<svg width="306" height="346" viewBox="0 0 306 346" fill="none" xmlns="http://www.w3.org/2000/svg">
<ellipse cx="160" cy="155.983" rx="145" ry="144" fill="white"/>
<path fill-rule="evenodd" clip-rule="evenodd" d="M295 113.44C295.016 131.04 284.428 146.914 268.174 153.659C251.921 160.404 233.204 156.692 220.755 144.254C208.306 131.816 204.578 113.103 211.309 96.8433C218.04 80.5839 233.905 69.9819 251.503 69.9827C275.51 69.9838 294.977 89.4333 295 113.44H295Z" fill="#F2F2F2"/>
<path fill-rule="evenodd" clip-rule="evenodd" d="M60 239.482C60 248.583 54.5182 256.787 46.1106 260.269C37.703 263.752 28.0255 261.827 21.5907 255.392C15.1558 248.957 13.2308 239.28 16.7134 230.872C20.1959 222.465 28.4001 216.983 37.5003 216.983C49.9266 216.983 60 227.056 60 239.482H60Z" fill="#F2F2F2"/>
<rect x="149" y="228.983" width="152" height="36" fill="#F2F2F2"/>
<rect x="14" y="120.983" width="152" height="36" rx="18" fill="#F2F2F2"/>
<path fill-rule="evenodd" clip-rule="evenodd" d="M199.487 149.979C198.514 149.979 197.49 149.888 196.449 149.78C196.185 149.753 195.955 149.59 195.847 149.351C195.738 149.112 195.767 148.835 195.922 148.623C196.078 148.411 196.336 148.296 196.6 148.323C197.599 148.422 198.581 148.48 199.521 148.505C199.933 148.506 200.267 148.835 200.267 149.242C200.267 149.648 199.933 149.978 199.521 149.979L199.487 149.979ZM247.174 149.978H244.194C243.814 149.939 243.526 149.623 243.526 149.246C243.526 148.869 243.814 148.553 244.194 148.513H247.174C247.458 148.484 247.735 148.616 247.886 148.855C248.038 149.094 248.038 149.398 247.886 149.637C247.735 149.876 247.458 150.008 247.174 149.978ZM241.214 149.978H238.234C237.95 150.008 237.673 149.876 237.522 149.637C237.37 149.398 237.37 149.094 237.522 148.855C237.673 148.616 237.95 148.484 238.234 148.513H241.214C241.498 148.484 241.775 148.616 241.927 148.855C242.078 149.094 242.078 149.398 241.927 149.637C241.775 149.876 241.498 150.008 241.214 149.978ZM235.254 149.978H232.274C231.99 150.008 231.714 149.876 231.562 149.637C231.41 149.398 231.41 149.094 231.562 148.855C231.714 148.616 231.99 148.484 232.274 148.513H235.254C235.538 148.484 235.815 148.616 235.967 148.855C236.118 149.094 236.118 149.398 235.967 149.637C235.815 149.876 235.538 150.008 235.254 149.978ZM229.295 149.978H226.315C226.03 150.008 225.754 149.876 225.602 149.637C225.451 149.398 225.451 149.094 225.602 148.855C225.754 148.616 226.03 148.484 226.315 148.513H229.269C229.554 148.484 229.83 148.616 229.982 148.855C230.133 149.094 230.133 149.398 229.982 149.637C229.83 149.876 229.554 150.008 229.269 149.978H229.295ZM223.335 149.978H220.355C220.071 150.008 219.794 149.876 219.643 149.637C219.491 149.398 219.491 149.094 219.643 148.855C219.794 148.616 220.071 148.484 220.355 148.513H223.335C223.619 148.484 223.896 148.616 224.047 148.855C224.199 149.094 224.199 149.398 224.047 149.637C223.896 149.876 223.619 150.008 223.335 149.978ZM217.375 149.978H214.395C214.111 150.008 213.834 149.876 213.683 149.637C213.531 149.398 213.531 149.094 213.683 148.855C213.834 148.616 214.111 148.484 214.395 148.513H217.375C217.659 148.484 217.936 148.616 218.087 148.855C218.239 149.094 218.239 149.398 218.087 149.637C217.936 149.876 217.659 150.008 217.375 149.978ZM211.415 149.978H208.436C208.151 150.008 207.875 149.876 207.723 149.637C207.571 149.398 207.571 149.094 207.723 148.855C207.875 148.616 208.151 148.484 208.436 148.513H211.415C211.7 148.484 211.976 148.616 212.128 148.855C212.279 149.094 212.279 149.398 212.128 149.637C211.976 149.876 211.7 150.008 211.415 149.978ZM205.455 149.978H202.476C202.191 150.008 201.915 149.876 201.763 149.637C201.612 149.398 201.612 149.094 201.763 148.855C201.915 148.616 202.191 148.484 202.476 148.513H205.455C205.74 148.484 206.016 148.616 206.168 148.855C206.319 149.094 206.319 149.398 206.168 149.637C206.016 149.876 205.74 150.008 205.455 149.978ZM193.553 149.391H193.418C192.411 149.217 191.404 149.002 190.447 148.753C190.049 148.652 189.809 148.252 189.91 147.859C190.016 147.466 190.424 147.23 190.825 147.33C191.748 147.57 192.705 147.776 193.679 147.95C194.047 148.027 194.3 148.363 194.268 148.734C194.236 149.104 193.929 149.393 193.553 149.407L193.553 149.391ZM187.786 147.909C187.7 147.912 187.615 147.898 187.534 147.868C186.573 147.525 185.631 147.129 184.714 146.684C184.447 146.586 184.26 146.347 184.231 146.068C184.202 145.788 184.337 145.517 184.579 145.369C184.821 145.22 185.127 145.22 185.369 145.368C186.237 145.788 187.128 146.161 188.038 146.486C188.425 146.625 188.624 147.047 188.483 147.429C188.377 147.718 188.098 147.91 187.786 147.909H187.786ZM182.456 145.31C182.309 145.31 182.166 145.267 182.045 145.186C181.183 144.631 180.363 144.014 179.593 143.34C179.308 143.065 179.292 142.618 179.556 142.324C179.821 142.03 180.273 141.992 180.584 142.239C181.302 142.866 182.065 143.442 182.867 143.961C183.205 144.188 183.298 144.64 183.077 144.979C182.933 145.174 182.7 145.285 182.456 145.277L182.456 145.31ZM178.066 141.378C177.841 141.379 177.627 141.279 177.487 141.105C176.835 140.327 176.251 139.497 175.741 138.622C175.581 138.393 175.565 138.095 175.7 137.851C175.836 137.607 176.098 137.459 176.38 137.468C176.662 137.477 176.915 137.642 177.033 137.894C177.504 138.709 178.044 139.484 178.645 140.211C178.904 140.527 178.855 140.99 178.536 141.246C178.398 141.34 178.233 141.386 178.066 141.378V141.378ZM175.103 136.321C174.79 136.321 174.509 136.13 174.398 135.841C174.05 134.89 173.77 133.916 173.558 132.927C173.47 132.661 173.543 132.367 173.747 132.171C173.951 131.976 174.25 131.911 174.518 132.004C174.786 132.098 174.977 132.334 175.011 132.613C175.207 133.536 175.473 134.444 175.808 135.328C175.878 135.51 175.872 135.712 175.79 135.89C175.708 136.067 175.557 136.204 175.371 136.271C175.286 136.304 175.195 136.321 175.103 136.321H175.103ZM173.844 130.61C173.453 130.611 173.127 130.315 173.097 129.931C173.038 129.17 173.004 128.375 173.004 127.572V126.935C173.045 126.56 173.365 126.276 173.747 126.276C174.129 126.276 174.45 126.56 174.49 126.935V127.572C174.49 128.334 174.49 129.087 174.582 129.807C174.608 130.007 174.55 130.208 174.422 130.364C174.294 130.521 174.106 130.618 173.903 130.635L173.844 130.61ZM173.743 124.733C173.545 124.733 173.356 124.655 173.217 124.517C173.079 124.378 173.002 124.191 173.004 123.996V121.058C173.044 120.683 173.365 120.399 173.747 120.399C174.129 120.399 174.449 120.683 174.49 121.058V123.996C174.49 124.403 174.155 124.733 173.742 124.733L173.743 124.733ZM173.743 118.856C173.338 118.843 173.02 118.511 173.029 118.111V115.173C172.999 114.893 173.134 114.62 173.376 114.471C173.618 114.321 173.926 114.321 174.168 114.471C174.411 114.62 174.545 114.893 174.515 115.173V118.111C174.513 118.31 174.43 118.499 174.284 118.636C174.139 118.773 173.944 118.847 173.743 118.84V118.856ZM173.743 112.98C173.546 112.98 173.356 112.902 173.218 112.764C173.079 112.625 173.002 112.438 173.004 112.243V109.305C172.974 109.024 173.109 108.752 173.351 108.602C173.593 108.453 173.901 108.453 174.143 108.602C174.386 108.752 174.52 109.024 174.49 109.305V112.243C174.481 112.644 174.149 112.963 173.743 112.963L173.743 112.98ZM173.743 107.103C173.546 107.103 173.356 107.025 173.218 106.887C173.079 106.748 173.002 106.561 173.004 106.366V103.428C172.974 103.147 173.109 102.875 173.351 102.725C173.593 102.576 173.901 102.576 174.143 102.725C174.386 102.875 174.52 103.147 174.49 103.428V106.366C174.481 106.766 174.149 107.086 173.743 107.086L173.743 107.103ZM173.743 101.226C173.546 101.226 173.356 101.148 173.218 101.01C173.079 100.872 173.002 100.684 173.004 100.49V97.5511C172.974 97.2708 173.109 96.9981 173.351 96.8486C173.593 96.6991 173.901 96.6991 174.143 96.8486C174.386 96.9981 174.52 97.2708 174.49 97.5511V100.49C174.481 100.89 174.149 101.21 173.743 101.21L173.743 101.226ZM173.743 95.3492C173.546 95.3492 173.356 95.2713 173.218 95.1329C173.079 94.9945 173.002 94.8071 173.004 94.6125V91.6245C172.974 91.3442 173.109 91.0714 173.351 90.9219C173.593 90.7724 173.901 90.7724 174.143 90.9219C174.386 91.0714 174.52 91.3442 174.49 91.6245V94.5629C174.499 94.7639 174.424 94.9599 174.283 95.1053C174.142 95.2507 173.947 95.3329 173.743 95.3327L173.743 95.3492ZM173.743 89.4724C173.546 89.4724 173.356 89.3945 173.218 89.2561C173.079 89.1177 173.002 88.9303 173.004 88.7357V85.7973C172.974 85.517 173.109 85.2443 173.351 85.0948C173.593 84.9453 173.901 84.9453 174.143 85.0948C174.386 85.2443 174.52 85.517 174.49 85.7973V88.7357C174.481 89.1361 174.149 89.456 173.743 89.4559L173.743 89.4724Z" fill="#6731CF"/>
<path fill-rule="evenodd" clip-rule="evenodd" d="M123.568 142.983H123.3C122.889 142.982 122.556 142.651 122.556 142.242C122.556 141.833 122.889 141.501 123.3 141.5H123.559C124.438 141.5 125.325 141.5 126.204 141.384C126.477 141.344 126.75 141.457 126.913 141.679C127.076 141.901 127.103 142.194 126.982 142.441C126.861 142.688 126.613 142.848 126.338 142.858C125.425 142.941 124.488 142.983 123.568 142.983ZM120.337 142.941H117.366C117.083 142.971 116.807 142.837 116.656 142.597C116.505 142.357 116.505 142.051 116.656 141.811C116.807 141.57 117.083 141.437 117.366 141.467H120.337C120.716 141.507 121.003 141.825 121.003 142.204C121.003 142.583 120.716 142.901 120.337 142.941V142.941ZM114.396 142.941H111.425C111.141 142.971 110.866 142.837 110.714 142.597C110.563 142.357 110.563 142.051 110.714 141.811C110.866 141.57 111.141 141.437 111.425 141.467H114.396C114.774 141.507 115.062 141.825 115.062 142.204C115.062 142.583 114.774 142.901 114.396 142.941V142.941ZM108.445 142.941H105.474C105.096 142.901 104.808 142.583 104.808 142.204C104.808 141.825 105.096 141.507 105.474 141.467H108.445C108.729 141.437 109.005 141.57 109.156 141.811C109.307 142.051 109.307 142.357 109.156 142.597C109.005 142.837 108.729 142.971 108.445 142.941L108.445 142.941ZM102.504 142.941H99.5326C99.1539 142.901 98.8666 142.583 98.8666 142.204C98.8666 141.825 99.1539 141.507 99.5326 141.467H102.503C102.787 141.437 103.063 141.57 103.214 141.811C103.365 142.051 103.365 142.357 103.214 142.597C103.063 142.837 102.787 142.971 102.503 142.941L102.504 142.941ZM96.5617 142.941H93.5908C93.2121 142.901 92.9248 142.583 92.9248 142.204C92.9248 141.825 93.2121 141.507 93.5908 141.467H96.5617C96.8451 141.437 97.1209 141.57 97.272 141.811C97.4231 142.051 97.4231 142.357 97.272 142.597C97.1209 142.837 96.8451 142.971 96.5617 142.941L96.5617 142.941ZM90.6197 142.941H87.6488C87.3654 142.971 87.0897 142.837 86.9385 142.597C86.7874 142.357 86.7874 142.051 86.9385 141.811C87.0897 141.57 87.3654 141.437 87.6488 141.467H90.6616C90.945 141.437 91.2207 141.57 91.3718 141.811C91.523 142.051 91.523 142.357 91.3718 142.597C91.2207 142.837 90.945 142.971 90.6616 142.941L90.6197 142.941ZM84.6781 142.941H81.7072C81.4238 142.971 81.148 142.837 80.9969 142.597C80.8458 142.357 80.8458 142.051 80.9969 141.811C81.148 141.57 81.4238 141.437 81.7072 141.467H84.6781C84.9615 141.437 85.2372 141.57 85.3884 141.811C85.5395 142.051 85.5395 142.357 85.3884 142.597C85.2372 142.837 84.9615 142.971 84.6781 142.941L84.6781 142.941ZM78.7364 142.941H75.7655C75.4822 142.971 75.2064 142.837 75.0553 142.597C74.9041 142.357 74.9041 142.051 75.0553 141.811C75.2064 141.57 75.4822 141.437 75.7655 141.467H78.7364C79.0198 141.437 79.2956 141.57 79.4467 141.811C79.5979 142.051 79.5979 142.357 79.4467 142.597C79.2956 142.837 79.0198 142.971 78.7364 142.941V142.941ZM72.7945 142.941H69.8236C69.5402 142.971 69.2645 142.837 69.1133 142.597C68.9622 142.357 68.9622 142.051 69.1133 141.811C69.2645 141.57 69.5402 141.437 69.8236 141.467H72.7945C73.0779 141.437 73.3537 141.57 73.5048 141.811C73.6559 142.051 73.6559 142.357 73.5048 142.597C73.3537 142.837 73.0779 142.971 72.7945 142.941V142.941ZM129.225 142.467C128.847 142.459 128.534 142.171 128.498 141.797C128.461 141.422 128.713 141.08 129.083 141.001C130.026 140.822 130.957 140.582 131.869 140.285C132.056 140.222 132.26 140.235 132.436 140.323C132.612 140.411 132.746 140.565 132.807 140.751C132.872 140.937 132.86 141.141 132.771 141.316C132.683 141.492 132.527 141.625 132.338 141.684C131.366 142.006 130.374 142.262 129.367 142.45L129.225 142.467ZM134.832 140.551C134.489 140.56 134.186 140.333 134.1 140.003C134.014 139.672 134.168 139.327 134.472 139.169C135.275 138.723 136.02 138.18 136.69 137.554C136.992 137.307 137.435 137.335 137.703 137.618C137.972 137.9 137.975 138.341 137.711 138.628C136.94 139.346 136.08 139.962 135.15 140.46C135.053 140.516 134.944 140.548 134.832 140.551V140.551ZM139.017 136.512C138.891 136.514 138.767 136.482 138.657 136.421C138.478 136.324 138.347 136.16 138.292 135.966C138.236 135.771 138.262 135.563 138.364 135.388C138.805 134.592 139.119 133.732 139.293 132.84C139.376 132.44 139.769 132.183 140.171 132.265C140.559 132.341 140.815 132.711 140.749 133.098C140.542 134.138 140.178 135.14 139.669 136.071C139.558 136.319 139.322 136.488 139.05 136.512L139.017 136.512ZM140.255 130.816C140.057 130.816 139.868 130.738 139.728 130.599C139.589 130.46 139.51 130.271 139.51 130.075V127.118C139.511 126.709 139.844 126.378 140.255 126.378C140.666 126.378 140.999 126.709 141 127.118V130.075C141 130.471 140.687 130.798 140.288 130.816H140.255ZM140.255 124.904C140.057 124.904 139.868 124.826 139.728 124.687C139.589 124.548 139.51 124.36 139.51 124.163V121.232C139.51 120.967 139.652 120.722 139.882 120.589C140.113 120.457 140.397 120.457 140.628 120.589C140.858 120.722 141 120.967 141 121.232V124.188C140.987 124.575 140.677 124.887 140.288 124.904L140.255 124.904ZM140.255 118.991C140.057 118.991 139.868 118.913 139.728 118.774C139.589 118.635 139.51 118.447 139.51 118.25V115.294C139.51 115.029 139.652 114.784 139.882 114.651C140.113 114.519 140.397 114.519 140.628 114.651C140.858 114.784 141 115.029 141 115.294V118.25C141 118.647 140.687 118.974 140.288 118.991L140.255 118.991ZM140.255 113.079C140.057 113.079 139.868 113.001 139.728 112.862C139.589 112.723 139.51 112.534 139.51 112.338V109.382C139.51 109.117 139.652 108.872 139.882 108.739C140.113 108.607 140.397 108.606 140.628 108.739C140.858 108.872 141 109.117 141 109.382V112.338C141 112.735 140.687 113.061 140.288 113.079L140.255 113.079ZM140.255 107.158C140.058 107.16 139.869 107.084 139.729 106.946C139.589 106.809 139.51 106.621 139.51 106.425V103.469C139.511 103.06 139.844 102.729 140.255 102.729C140.666 102.729 140.999 103.06 141 103.469V106.425C141 106.82 140.685 107.145 140.289 107.158L140.255 107.158ZM140.255 101.245C140.058 101.248 139.869 101.171 139.729 101.034C139.589 100.896 139.51 100.708 139.51 100.512V97.5562C139.511 97.1472 139.844 96.8159 140.255 96.8159C140.666 96.8159 140.999 97.1472 141 97.5562V100.512C141 100.908 140.685 101.232 140.289 101.245L140.255 101.245ZM140.255 95.3332C140.058 95.3355 139.869 95.2592 139.729 95.1216C139.589 94.9839 139.51 94.7962 139.51 94.6004V91.6358C139.511 91.2268 139.844 90.8955 140.255 90.8955C140.666 90.8955 140.999 91.2268 141 91.6358V94.5838C141.009 94.9854 140.692 95.3197 140.288 95.3333L140.255 95.3332ZM140.255 89.4204C140.057 89.4204 139.868 89.3423 139.728 89.2033C139.589 89.0643 139.51 88.8758 139.51 88.6792V85.723C139.511 85.314 139.844 84.9827 140.255 84.9827C140.666 84.9827 140.999 85.314 141 85.723V88.6792C141 89.0759 140.687 89.4026 140.288 89.4204L140.255 89.4204Z" fill="#F94F24"/>
<path fill-rule="evenodd" clip-rule="evenodd" d="M136.244 161.7C136.244 161.7 139.702 166.702 134.744 171.604C129.785 176.507 115.868 187.055 127.552 199.963C139.236 212.871 191.221 201.003 191.221 201.003C191.221 201.003 199.004 193.74 188.52 184.76C178.037 175.781 181.77 163.021 183.054 160.206C184.337 157.392 147.852 140.076 136.244 161.7Z" fill="#FFD000"/>
<path fill-rule="evenodd" clip-rule="evenodd" d="M133.655 153.91C133.655 153.91 126.352 113.983 160.514 113.983C194.676 113.983 186.021 153.91 186.021 153.91C186.021 153.91 169.472 166.983 159.154 166.983C148.836 166.983 135.023 159.749 133.655 153.91Z" fill="#FFD000"/>
<path fill-rule="evenodd" clip-rule="evenodd" d="M217 265.983L213.753 222.49C214.463 200.548 199.741 193.401 199.741 193.401L175.613 180.983L158.58 185.811V185.703L146.362 182.751L135.278 186.762C135.278 186.762 109.014 196.37 108.247 215.36L105 265.574H154.499V265.983H217Z" fill="#F94F24"/>
<path fill-rule="evenodd" clip-rule="evenodd" d="M147.053 170.983L144 191.579C144 191.579 144.176 205.983 160.521 205.983C177 205.983 177 190.789 177 190.789L174.14 170.983L147.053 170.983Z" fill="#FFA881"/>
<path fill-rule="evenodd" clip-rule="evenodd" d="M184 148.38C184 166.505 173.474 182.983 160.5 182.983C147.526 182.983 137 166.439 137 148.38C137 130.321 147.517 124.983 160.5 124.983C173.483 124.983 184 130.33 184 148.38Z" fill="#FFC1A6"/>
<path fill-rule="evenodd" clip-rule="evenodd" d="M138.046 155.206C138.046 155.206 136.537 150.129 132.581 152.718C128.626 155.308 132.354 164.734 140.838 165.902C149.322 167.069 138.046 155.206 138.046 155.206Z" fill="#FFC1A6"/>
<path fill-rule="evenodd" clip-rule="evenodd" d="M181.954 155.206C181.954 155.206 183.463 150.129 187.419 152.718C191.374 155.308 187.646 164.734 179.162 165.902C170.678 167.069 181.954 155.206 181.954 155.206Z" fill="#FFC1A6"/>
<path fill-rule="evenodd" clip-rule="evenodd" d="M146 175.983C149.408 180.524 154.782 183.227 160.514 183.285C166.092 183.33 171.31 180.579 174.367 175.983L176 187.122C176 187.122 155.045 195.711 146 175.983Z" fill="#FF9B6E"/>
<path fill-rule="evenodd" clip-rule="evenodd" d="M136.586 151.897C136.586 151.897 168.687 154.278 180 133.913C180 133.913 178.18 121.983 157.5 121.983C136.82 121.983 132.019 139.765 136.586 151.897Z" fill="#FFD000"/>
<path fill-rule="evenodd" clip-rule="evenodd" d="M136 151.902C136 151.902 168.535 154.867 180 133.983C179.983 133.983 171.987 164.591 136 151.902Z" fill="#FFA881"/>
<path fill-rule="evenodd" clip-rule="evenodd" d="M119 215.328L108.45 190.94C108.45 190.94 108.45 182.062 99.1876 181.158C99.1876 181.158 94.3039 178.671 90.3128 176.872C90.3128 176.872 85.446 177.444 89.2266 181.158C93.5714 185.436 91.2222 186.041 91.2222 186.041C91.2222 186.041 82.2464 179.906 78.2637 173.283C78.2637 173.283 76.8912 171.202 75.7377 172.305C74.5841 173.407 72.7485 182.849 88.1993 194.869L97.4614 197.356L104.871 215.983L119 215.328Z" fill="#FFC1A6"/>
<path fill-rule="evenodd" clip-rule="evenodd" d="M197 215.328L207.55 190.94C207.55 190.94 207.55 182.062 216.812 181.158C216.812 181.158 221.704 178.671 225.687 176.872C225.687 176.872 230.554 177.444 226.782 181.158C222.437 185.436 224.786 186.041 224.786 186.041C224.786 186.041 233.753 179.906 237.736 173.283C237.736 173.283 239.109 171.202 240.262 172.305C241.416 173.407 243.251 182.849 227.809 194.869L218.547 197.356L211.146 215.983L197 215.328Z" fill="#FFC1A6"/>
<path fill-rule="evenodd" clip-rule="evenodd" d="M209 51.4736C209 71.9085 196.573 90.3234 177.513 98.1388C158.454 105.954 136.517 101.631 121.933 87.1844C107.349 72.7383 102.989 51.0149 110.888 32.1452C118.787 13.2754 137.389 0.975931 158.018 0.982669C186.176 0.987271 209 23.5915 209 51.4736Z" fill="#E5E5E5" style="mix-blend-mode:multiply"/>
<path fill-rule="evenodd" clip-rule="evenodd" d="M197 50.9821C197 66.7559 187.376 80.9765 172.616 87.0129C157.856 93.0492 140.867 89.7126 129.57 78.5588C118.274 67.4051 114.894 50.6307 121.008 36.0576C127.122 21.4846 141.525 11.9827 157.501 11.9827C179.314 11.9873 196.995 29.4452 197 50.9821V50.9821Z" fill="url(#paint0_linear)"/>
<rect x="53" y="310.983" width="199" height="34" fill="#5315C9"/>
<path fill-rule="evenodd" clip-rule="evenodd" d="M222 274.983V213.98C222 211.239 219.784 209.01 217.032 208.983H98.9681C96.2162 209.01 93.9999 211.239 94 213.98V274.983H222Z" fill="#B3B3B3"/>
<path fill-rule="evenodd" clip-rule="evenodd" d="M91.0002 276.983V283.048C90.9724 286.293 93.4868 288.949 96.6191 288.983H219.381C222.513 288.949 225.028 286.293 225 283.048V276.983L91.0002 276.983Z" fill="#B3B3B3"/>
<rect x="94" y="215.983" width="128" height="63" fill="#999999"/>
<path fill-rule="evenodd" clip-rule="evenodd" d="M151 215.983H93V272.983C112.331 253.985 131.664 234.985 151 215.983Z" fill="#A6A6A6"/>
<rect x="94" y="276.983" width="128" height="1" fill="#E5E5E5" style="mix-blend-mode:multiply"/>
<rect x="94" y="215.983" width="128" height="1" fill="#E5E5E5" style="mix-blend-mode:multiply"/>
<path fill-rule="evenodd" clip-rule="evenodd" d="M115 283.488C115 284.313 114.462 284.983 113.797 284.983H108.203C107.538 284.983 107 284.313 107 283.488C107 282.66 107.537 281.988 108.203 281.983H113.781C114.447 281.988 114.984 282.66 114.984 283.488L115 283.488Z" fill="#808080"/>
<path fill-rule="evenodd" clip-rule="evenodd" d="M217 283.488C217 284.313 216.46 284.983 215.795 284.983H210.205C209.54 284.983 209 284.313 209 283.488C209 282.66 209.538 281.988 210.205 281.983H215.795C216.462 281.988 217 282.66 217 283.488L217 283.488Z" fill="#808080"/>
<path fill-rule="evenodd" clip-rule="evenodd" d="M124 283.488C124 284.313 123.328 284.983 122.5 284.983C121.672 284.983 121 284.313 121 283.488C121 282.66 121.67 281.988 122.5 281.983C123.33 281.988 124 282.66 124 283.488L124 283.488Z" fill="#808080"/>
<path fill-rule="evenodd" clip-rule="evenodd" d="M132 283.488C132 284.313 131.331 284.983 130.505 284.983C130.107 284.985 129.724 284.829 129.441 284.548C129.159 284.268 129 283.886 129 283.488C129 282.656 129.674 281.983 130.505 281.983C131.332 281.988 132 282.66 132 283.488L132 283.488Z" fill="#808080"/>
<path fill-rule="evenodd" clip-rule="evenodd" d="M165 248.483C165 252.073 162.09 254.983 158.5 254.983C154.91 254.983 152 252.073 152 248.483C152 244.893 154.91 241.983 158.5 241.983C162.09 241.983 165 244.893 165 248.483Z" fill="#A6A6A6"/>
<rect x="35" y="288.983" width="236" height="22" fill="#6731CF"/>
<path fill-rule="evenodd" clip-rule="evenodd" d="M53 310.983H252V339.983L53 310.983Z" fill="#5315B4"/>
<path fill-rule="evenodd" clip-rule="evenodd" d="M81.5137 242.983H78.5238C78.1113 242.982 77.7771 242.65 77.7771 242.241C77.7771 241.832 78.1112 241.5 78.5237 241.5H81.5137C81.9262 241.5 82.2603 241.832 82.2604 242.241C82.2604 242.65 81.9262 242.982 81.5137 242.983ZM75.5422 242.983H72.5606C72.1481 242.982 71.814 242.65 71.814 242.241C71.814 241.832 72.1481 241.5 72.5606 241.5H75.5421C75.9546 241.5 76.2888 241.832 76.2888 242.241C76.2888 242.65 75.9547 242.982 75.5422 242.983ZM69.5793 242.983H66.6229C66.2104 242.982 65.8762 242.65 65.8762 242.241C65.8762 241.832 66.2104 241.5 66.6228 241.5H69.6044C70.0169 241.5 70.351 241.832 70.3511 242.241C70.3511 242.65 70.0169 242.982 69.6044 242.983H69.5793ZM63.616 242.983H60.6345C60.222 242.982 59.8878 242.65 59.8878 242.241C59.8878 241.832 60.222 241.5 60.6344 241.5H63.616C64.0285 241.5 64.3626 241.832 64.3627 242.241C64.3627 242.65 64.0285 242.982 63.616 242.983ZM57.6528 242.983H54.6712C54.2587 242.982 53.9246 242.65 53.9246 242.241C53.9246 241.832 54.2587 241.5 54.6712 241.5H57.6527C58.0652 241.5 58.3994 241.832 58.3994 242.241C58.3994 242.65 58.0653 242.982 57.6528 242.983ZM51.6898 242.983H48.7083C48.441 242.983 48.194 242.842 48.0603 242.612C47.9265 242.383 47.9265 242.1 48.0603 241.87C48.194 241.64 48.4411 241.499 48.7083 241.5H51.6899C52.1024 241.5 52.4365 241.832 52.4366 242.241C52.4366 242.65 52.1024 242.982 51.6899 242.983H51.6898ZM45.7268 242.982H45.626C44.5885 242.876 43.5627 242.678 42.5605 242.391C42.3688 242.339 42.2065 242.212 42.1101 242.039C42.0137 241.867 41.9913 241.663 42.0482 241.474C42.162 241.081 42.5755 240.854 42.972 240.966C43.8859 241.23 44.822 241.411 45.7688 241.508C46.15 241.562 46.4277 241.894 46.4103 242.275C46.3929 242.657 46.0862 242.963 45.7016 242.983L45.7268 242.982ZM39.9987 241.375C39.8879 241.375 39.7786 241.349 39.6796 241.3C38.7379 240.861 37.8408 240.334 37.0003 239.725C36.7455 239.594 36.5905 239.328 36.6029 239.043C36.6152 238.758 36.7927 238.507 37.058 238.397C37.3233 238.288 37.6283 238.341 37.8402 238.534C38.6097 239.083 39.4277 239.563 40.2843 239.967C40.5958 240.117 40.7621 240.461 40.6861 240.796C40.6101 241.131 40.3116 241.371 39.9651 241.375L39.9987 241.375ZM35.2113 237.909C35.0029 237.909 34.8043 237.821 34.6653 237.667C33.9586 236.898 33.3312 236.061 32.7924 235.168C32.579 234.82 32.6899 234.367 33.0401 234.155C33.3904 233.943 33.8472 234.054 34.0606 234.401C34.5458 235.2 35.1084 235.951 35.7404 236.642C35.8739 236.787 35.9438 236.978 35.9343 237.173C35.9248 237.369 35.8368 237.553 35.69 237.684C35.5597 237.804 35.3892 237.872 35.2113 237.875L35.2113 237.909ZM32.1208 232.909C31.8133 232.91 31.5381 232.721 31.4321 232.434C31.0734 231.481 30.7925 230.5 30.5922 229.501C30.5038 229.233 30.577 228.938 30.7809 228.741C30.9848 228.543 31.2839 228.478 31.5524 228.572C31.8208 228.667 32.0119 228.904 32.0452 229.185C32.2567 230.112 32.5375 231.023 32.885 231.909C33.0332 232.291 32.8415 232.72 32.4567 232.868C32.3456 232.891 32.2305 232.888 32.1208 232.859L32.1208 232.909ZM30.8525 227.16C30.4645 227.162 30.1398 226.869 30.105 226.485C30.0378 225.652 30.0042 224.819 30.0042 223.986V223.469C29.9739 223.187 30.1086 222.912 30.3511 222.762C30.5936 222.612 30.9014 222.612 31.1439 222.762C31.3864 222.912 31.5211 223.187 31.4908 223.469V223.986C31.4908 224.802 31.5244 225.594 31.5916 226.361C31.6175 226.561 31.5595 226.764 31.431 226.921C31.3025 227.079 31.1147 227.177 30.9113 227.194L30.8525 227.16ZM30.7517 221.252C30.5535 221.252 30.3633 221.174 30.2231 221.035C30.083 220.896 30.0042 220.707 30.0042 220.511V217.553C29.9739 217.27 30.1086 216.996 30.3511 216.845C30.5936 216.695 30.9014 216.695 31.1439 216.845C31.3864 216.996 31.5211 217.27 31.4908 217.553V220.511C31.4685 220.899 31.144 221.203 30.7517 221.202V221.252ZM30.7517 215.337C30.5535 215.337 30.3633 215.259 30.2231 215.12C30.083 214.981 30.0042 214.792 30.0042 214.595V211.571C29.9739 211.289 30.1086 211.014 30.3511 210.863C30.5936 210.713 30.9014 210.713 31.1439 210.863C31.3864 211.014 31.5211 211.289 31.4908 211.571V214.529C31.4976 214.727 31.4228 214.92 31.2834 215.063C31.1441 215.206 30.9522 215.287 30.7517 215.287V215.337ZM30.7517 209.421C30.5535 209.421 30.3633 209.343 30.2231 209.204C30.083 209.065 30.0042 208.876 30.0042 208.68V205.722C29.9739 205.44 30.1086 205.165 30.3511 205.015C30.5936 204.864 30.9014 204.864 31.1439 205.015C31.3864 205.165 31.5211 205.44 31.4908 205.722V208.68C31.4685 209.068 31.144 209.372 30.7517 209.371V209.421ZM30.7517 203.505C30.5535 203.505 30.3633 203.427 30.2231 203.288C30.083 203.149 30.0042 202.96 30.0042 202.764V199.806C29.9739 199.524 30.1086 199.249 30.3511 199.098C30.5936 198.948 30.9014 198.948 31.1439 199.098C31.3864 199.249 31.5211 199.524 31.4908 199.806V202.764C31.4685 203.152 31.144 203.456 30.7517 203.455V203.505ZM30.7517 197.59C30.5535 197.59 30.3633 197.511 30.2231 197.372C30.083 197.233 30.0042 197.045 30.0042 196.848V193.89C29.9739 193.608 30.1086 193.333 30.3511 193.183C30.5936 193.032 30.9014 193.032 31.1439 193.183C31.3864 193.333 31.5211 193.608 31.4908 193.89V196.848C31.4685 197.237 31.144 197.54 30.7517 197.54V197.59ZM30.7517 191.665C30.5542 191.667 30.3641 191.591 30.2237 191.453C30.0832 191.316 30.0042 191.128 30.0042 190.932V187.974C29.9739 187.692 30.1086 187.417 30.3511 187.267C30.5936 187.116 30.9014 187.116 31.1439 187.267C31.3864 187.417 31.5211 187.692 31.4908 187.974V190.932C31.4683 191.319 31.1426 191.62 30.7517 191.615V191.665ZM30.7517 185.75C30.5542 185.752 30.364 185.676 30.2236 185.538C30.0832 185.4 30.0042 185.212 30.0042 185.016V182.05C30.0446 181.673 30.3653 181.387 30.7474 181.387C31.1296 181.387 31.4502 181.673 31.4907 182.05V185.016C31.4907 185.21 31.4126 185.396 31.2737 185.532C31.1349 185.668 30.9469 185.744 30.7516 185.741L30.7517 185.75ZM30.7517 179.834C30.5528 179.836 30.3613 179.759 30.2206 179.619C30.0799 179.479 30.0019 179.289 30.0042 179.092V176.134C30.0447 175.757 30.3653 175.471 30.7475 175.471C31.1297 175.471 31.4503 175.757 31.4908 176.134V179.075C31.4772 179.471 31.1502 179.784 30.7517 179.784V179.834ZM30.7517 173.918C30.5534 173.918 30.3633 173.839 30.2231 173.7C30.0829 173.561 30.0042 173.373 30.0042 173.176V170.218C30.0446 169.841 30.3653 169.555 30.7474 169.555C31.1296 169.555 31.4502 169.841 31.4907 170.218V173.176C31.4684 173.565 31.144 173.868 30.7517 173.868V173.918ZM30.7517 168.002C30.5534 168.002 30.3633 167.924 30.2231 167.785C30.0829 167.646 30.0042 167.457 30.0042 167.261V164.303C30.0446 163.926 30.3653 163.64 30.7474 163.64C31.1296 163.64 31.4502 163.926 31.4907 164.303V167.261C31.4684 167.649 31.144 167.953 30.7517 167.952V168.002ZM30.7517 162.086C30.5535 162.086 30.3633 162.008 30.2231 161.869C30.083 161.73 30.0042 161.541 30.0042 161.345V158.387C29.9739 158.105 30.1086 157.83 30.3511 157.68C30.5936 157.529 30.9014 157.529 31.1439 157.68C31.3864 157.83 31.5211 158.105 31.4908 158.387V161.345C31.4685 161.733 31.144 162.037 30.7517 162.036V162.086ZM30.7517 156.171C30.5535 156.171 30.3633 156.093 30.2231 155.954C30.083 155.814 30.0042 155.626 30.0042 155.429V152.413C29.9739 152.131 30.1086 151.856 30.3511 151.706C30.5936 151.555 30.9014 151.555 31.1439 151.706C31.3864 151.856 31.5211 152.131 31.4908 152.413V155.371C31.4953 155.568 31.4194 155.759 31.2803 155.9C31.1412 156.041 30.9507 156.121 30.7517 156.121V156.171ZM30.7517 150.255C30.5535 150.255 30.3633 150.177 30.2231 150.038C30.083 149.899 30.0042 149.71 30.0042 149.513V146.556C29.9739 146.273 30.1086 145.999 30.3511 145.848C30.5936 145.698 30.9014 145.698 31.1439 145.848C31.3864 145.999 31.5211 146.273 31.4908 146.556V149.513C31.4685 149.902 31.1441 150.206 30.7517 150.205V150.255ZM30.7517 144.339C30.5535 144.339 30.3633 144.261 30.2231 144.122C30.083 143.983 30.0042 143.794 30.0042 143.597V140.64C29.9739 140.357 30.1086 140.083 30.3511 139.932C30.5936 139.782 30.9014 139.782 31.1439 139.932C31.3864 140.083 31.5211 140.357 31.4908 140.64V143.597C31.4685 143.986 31.1441 144.29 30.7517 144.289V144.339ZM30.7517 138.423C30.5535 138.423 30.3633 138.345 30.2231 138.206C30.083 138.067 30.0042 137.878 30.0042 137.681V134.723C29.9739 134.441 30.1086 134.167 30.3511 134.016C30.5936 133.866 30.9014 133.866 31.1439 134.016C31.3864 134.167 31.5211 134.441 31.4908 134.723V137.681C31.4685 138.07 31.1441 138.374 30.7517 138.373V138.423ZM30.7517 132.508C30.5534 132.508 30.3633 132.429 30.2231 132.29C30.0829 132.151 30.0042 131.963 30.0042 131.766V129.316C30.0042 129.316 30.0042 129.1 30.0042 128.75C30.0439 128.346 30.3936 128.043 30.802 128.058C31.212 128.089 31.5197 128.443 31.4907 128.85C31.4907 129.158 31.4907 129.325 31.4907 129.333V131.766C31.4685 132.155 31.144 132.458 30.7517 132.458V132.508ZM31.1633 126.592H31.0289C30.6372 126.516 30.3724 126.151 30.4242 125.759C30.609 124.767 30.8357 123.775 31.1045 122.801C31.1556 122.525 31.359 122.302 31.6301 122.223C31.9012 122.145 32.1938 122.224 32.3864 122.429C32.579 122.634 32.6386 122.929 32.5407 123.192C32.2803 124.125 32.0619 125.075 31.894 126.017C31.8122 126.351 31.5098 126.585 31.1633 126.583L31.1633 126.592ZM32.7422 120.884C32.653 120.884 32.5647 120.867 32.4818 120.834C32.2961 120.767 32.1453 120.629 32.0632 120.45C31.9812 120.272 31.9746 120.068 32.0451 119.885C32.4072 118.936 32.8194 118.007 33.2797 117.102C33.3823 116.838 33.6272 116.655 33.9112 116.63C34.1951 116.605 34.4687 116.742 34.6164 116.984C34.7642 117.226 34.7604 117.53 34.6068 117.768C34.1868 118.601 33.7669 119.493 33.4393 120.409C33.3127 120.676 33.0391 120.843 32.7422 120.835L32.7422 120.884ZM35.4382 115.61C35.2924 115.613 35.1491 115.572 35.0267 115.493C34.6856 115.267 34.5887 114.812 34.8083 114.469C35.3748 113.617 35.9947 112.802 36.6645 112.027C36.8294 111.798 37.1108 111.682 37.3909 111.726C37.6709 111.771 37.9015 111.969 37.986 112.238C38.0706 112.506 37.9946 112.799 37.7899 112.994C37.1647 113.72 36.5869 114.486 36.0598 115.285C35.9074 115.468 35.6774 115.57 35.4382 115.56L35.4382 115.61ZM39.3184 111.152C39.1042 111.149 38.9008 111.059 38.7557 110.902C38.4854 110.593 38.5153 110.125 38.8229 109.852C39.5985 109.184 40.4147 108.563 41.2669 107.994C41.6134 107.776 42.0719 107.873 42.2999 108.211C42.526 108.552 42.4322 109.01 42.09 109.236C41.2905 109.756 40.5298 110.332 39.8139 110.96C39.6709 111.065 39.4953 111.115 39.3184 111.102L39.3184 111.152ZM44.2738 107.911C43.9273 107.907 43.6288 107.668 43.5528 107.332C43.4768 106.997 43.6431 106.654 43.9546 106.503C44.8788 106.069 45.8298 105.693 46.8018 105.378C46.99 105.315 47.1957 105.33 47.3727 105.42C47.5496 105.509 47.6829 105.665 47.7425 105.853C47.8693 106.242 47.6553 106.659 47.2637 106.786C46.352 107.08 45.4599 107.43 44.5929 107.836C44.4899 107.868 44.3808 107.877 44.2738 107.861L44.2738 107.911ZM49.9092 106.078C49.5298 106.071 49.2159 105.783 49.1794 105.408C49.1429 105.033 49.3954 104.691 49.7665 104.611C50.7407 104.42 51.757 104.27 52.7816 104.17C53.0541 104.131 53.3258 104.245 53.4889 104.464C53.652 104.684 53.6802 104.975 53.5623 105.222C53.4443 105.469 53.1992 105.631 52.9244 105.645C51.9632 105.735 51.0073 105.874 50.0604 106.061L49.9092 106.078ZM112.48 105.645C111.228 105.645 110.363 105.52 110.153 105.495H109.515C109.135 105.455 108.847 105.137 108.847 104.758C108.847 104.378 109.135 104.06 109.515 104.02H110.296C110.296 104.02 111.136 104.137 112.513 104.17C112.894 104.21 113.182 104.528 113.182 104.908C113.182 105.287 112.894 105.605 112.513 105.645H112.48ZM115.461 105.57C115.072 105.571 114.749 105.272 114.722 104.886C114.696 104.684 114.755 104.48 114.886 104.323C115.016 104.165 115.206 104.068 115.411 104.053C116.373 103.985 117.329 103.857 118.275 103.67C118.681 103.59 119.075 103.851 119.156 104.253C119.238 104.656 118.975 105.047 118.569 105.128C117.561 105.32 116.543 105.454 115.52 105.528L115.461 105.57ZM55.8302 105.495C55.5458 105.525 55.2691 105.391 55.1174 105.151C54.9657 104.91 54.9657 104.605 55.1174 104.364C55.2691 104.124 55.5458 103.99 55.8302 104.02H58.8202C59.1046 103.99 59.3813 104.124 59.533 104.364C59.6847 104.605 59.6847 104.91 59.533 105.151C59.3813 105.391 59.1046 105.525 58.8202 105.495H55.8302ZM106.517 105.495H103.577C103.197 105.455 102.909 105.137 102.909 104.757C102.909 104.378 103.197 104.06 103.577 104.02H106.559C106.843 103.99 107.12 104.124 107.272 104.364C107.423 104.605 107.423 104.91 107.272 105.151C107.12 105.391 106.843 105.525 106.559 105.495H106.517ZM100.554 105.495H97.5721C97.192 105.455 96.9037 105.137 96.9037 104.757C96.9037 104.378 97.192 104.06 97.5721 104.02H100.554C100.838 103.99 101.115 104.124 101.266 104.364C101.418 104.605 101.418 104.91 101.266 105.151C101.115 105.391 100.838 105.525 100.554 105.495ZM94.5906 105.495H91.6091C91.229 105.455 90.9407 105.137 90.9407 104.757C90.9407 104.378 91.229 104.06 91.6091 104.02H94.5906C94.875 103.99 95.1518 104.124 95.3034 104.364C95.4551 104.605 95.4551 104.91 95.3034 105.151C95.1518 105.391 94.875 105.525 94.5906 105.495ZM88.6276 105.495H85.646C85.3616 105.525 85.0849 105.391 84.9332 105.151C84.7815 104.91 84.7815 104.605 84.9332 104.364C85.0849 104.124 85.3616 103.99 85.646 104.02H88.6276C88.912 103.99 89.1887 104.124 89.3404 104.364C89.4921 104.605 89.4921 104.91 89.3404 105.151C89.1887 105.391 88.912 105.525 88.6276 105.495ZM82.6642 105.495H79.6827C79.3983 105.525 79.1215 105.391 78.9699 105.151C78.8182 104.91 78.8182 104.605 78.9699 104.364C79.1215 104.124 79.3983 103.99 79.6827 104.02H82.6642C82.9486 103.99 83.2254 104.124 83.377 104.364C83.5287 104.605 83.5287 104.91 83.377 105.151C83.2254 105.391 82.9486 105.525 82.6642 105.495ZM76.7012 105.495H73.7196C73.4352 105.525 73.1585 105.391 73.0068 105.151C72.8551 104.91 72.8551 104.605 73.0068 104.364C73.1585 104.124 73.4352 103.99 73.7196 104.02H76.7013C76.9857 103.99 77.2624 104.124 77.4141 104.364C77.5658 104.605 77.5658 104.91 77.4141 105.151C77.2624 105.391 76.9857 105.525 76.7013 105.495H76.7012ZM70.7381 105.495H67.7565C67.4721 105.525 67.1954 105.391 67.0437 105.151C66.892 104.91 66.892 104.605 67.0437 104.364C67.1954 104.124 67.4721 103.99 67.7565 104.02H70.7381C71.0225 103.99 71.2992 104.124 71.4509 104.364C71.6026 104.605 71.6026 104.91 71.4509 105.151C71.2992 105.391 71.0225 105.525 70.7381 105.495ZM64.7748 105.495H61.7932C61.5088 105.525 61.2321 105.391 61.0804 105.151C60.9287 104.91 60.9287 104.605 61.0804 104.364C61.2321 104.124 61.5088 103.99 61.7932 104.02H64.7748C65.0592 103.99 65.3359 104.124 65.4876 104.364C65.6393 104.605 65.6393 104.91 65.4876 105.151C65.3359 105.391 65.0592 105.525 64.7748 105.495ZM121.29 104.387C120.932 104.382 120.627 104.127 120.564 103.777C120.5 103.427 120.696 103.082 121.03 102.954C121.915 102.634 122.76 102.215 123.549 101.704C123.771 101.555 124.057 101.535 124.298 101.651C124.539 101.768 124.699 102.003 124.718 102.268C124.737 102.533 124.611 102.788 124.389 102.937C123.508 103.509 122.564 103.979 121.576 104.337C121.482 104.357 121.384 104.357 121.29 104.337L121.29 104.387ZM126.153 101.054C125.983 101.055 125.817 100.999 125.683 100.895C125.363 100.637 125.314 100.172 125.573 99.854C126.143 99.1482 126.591 98.3544 126.9 97.5043C127.042 97.1204 127.468 96.9202 127.858 97.0544C128.245 97.1951 128.444 97.62 128.303 98.0042C127.939 99.0096 127.408 99.9474 126.732 100.779C126.589 100.948 126.376 101.043 126.153 101.037L126.153 101.054ZM128.211 95.6129H128.152C127.948 95.5964 127.761 95.498 127.632 95.3406C127.504 95.1832 127.446 94.9806 127.472 94.7797C127.472 94.4548 127.472 94.1215 127.472 93.7715V91.8801C127.472 91.4709 127.807 91.1394 128.219 91.1394C128.631 91.1394 128.966 91.4709 128.966 91.8801V93.7715C128.966 94.1631 128.966 94.5381 128.966 94.8964C128.944 95.2928 128.611 95.6014 128.211 95.5963L128.211 95.6129ZM128.253 89.6976C128.054 89.6976 127.864 89.6194 127.724 89.4804C127.584 89.3413 127.505 89.1527 127.505 88.956V85.9981C127.505 85.733 127.647 85.4879 127.878 85.3552C128.11 85.2226 128.395 85.2226 128.626 85.3552C128.858 85.4879 129 85.733 129 85.9981V88.956C128.991 89.359 128.659 89.681 128.253 89.6809L128.253 89.6976ZM128.253 83.7814C128.054 83.7814 127.864 83.7033 127.724 83.5642C127.584 83.4252 127.505 83.2365 127.505 83.0399V81.7234C127.505 81.3142 127.84 80.9827 128.252 80.9827C128.665 80.9827 128.999 81.3142 129 81.7234V83.0399C128.991 83.4429 128.659 83.7649 128.253 83.7648L128.253 83.7814Z" fill="#F94F24"/>
<path fill-rule="evenodd" clip-rule="evenodd" d="M73.1697 209.978H70.1753C69.8897 210.008 69.6117 209.875 69.4594 209.635C69.307 209.395 69.307 209.091 69.4594 208.851C69.6117 208.611 69.8897 208.478 70.1753 208.508H73.1697C73.4554 208.478 73.7334 208.611 73.8857 208.851C74.0381 209.091 74.0381 209.395 73.8857 209.635C73.7334 209.875 73.4554 210.008 73.1697 209.978ZM67.1808 209.978H64.1864C63.9008 210.008 63.6228 209.875 63.4704 209.635C63.3181 209.395 63.3181 209.091 63.4704 208.851C63.6228 208.611 63.9008 208.478 64.1864 208.508H67.1808C67.4665 208.478 67.7445 208.611 67.8968 208.851C68.0491 209.091 68.0491 209.395 67.8968 209.635C67.7445 209.875 67.4665 210.008 67.1808 209.978ZM61.1921 209.978H58.1977C57.912 210.008 57.634 209.875 57.4817 209.635C57.3294 209.395 57.3294 209.091 57.4817 208.851C57.634 208.611 57.912 208.478 58.1977 208.508H61.2258C61.5115 208.478 61.7895 208.611 61.9418 208.851C62.0941 209.091 62.0941 209.395 61.9418 209.635C61.7895 209.875 61.5115 210.008 61.2258 209.978H61.1921ZM55.2033 209.978H52.2089C51.9232 210.008 51.6452 209.875 51.4929 209.635C51.3406 209.395 51.3406 209.091 51.4929 208.851C51.6452 208.611 51.9232 208.478 52.2089 208.508H55.2033C55.4889 208.478 55.7669 208.611 55.9193 208.851C56.0716 209.091 56.0716 209.395 55.9193 209.635C55.7669 209.875 55.4889 210.008 55.2033 209.978ZM49.2144 209.978H46.22C45.9344 210.008 45.6564 209.875 45.504 209.635C45.3517 209.395 45.3517 209.091 45.504 208.851C45.6564 208.611 45.9344 208.478 46.22 208.508H49.2144C49.5001 208.478 49.7781 208.611 49.9304 208.851C50.0827 209.091 50.0827 209.395 49.9304 209.635C49.7781 209.875 49.5001 210.008 49.2144 209.978ZM43.2255 209.978H40.2311C39.9454 210.008 39.6675 209.875 39.5151 209.635C39.3628 209.395 39.3628 209.091 39.5151 208.851C39.6675 208.611 39.9454 208.478 40.2311 208.508H43.2255C43.5112 208.478 43.7891 208.611 43.9415 208.851C44.0938 209.091 44.0938 209.395 43.9415 209.635C43.7891 209.875 43.5112 210.008 43.2255 209.978ZM37.2367 209.978H34.2339C33.9482 210.008 33.6703 209.875 33.5179 209.635C33.3656 209.395 33.3656 209.091 33.5179 208.851C33.6703 208.611 33.9482 208.478 34.2339 208.508H37.2283C37.61 208.548 37.8995 208.865 37.8995 209.243C37.8995 209.621 37.61 209.938 37.2283 209.978H37.2367ZM31.2477 209.978H28.2533C27.9677 210.008 27.6897 209.875 27.5373 209.635C27.385 209.395 27.385 209.091 27.5373 208.851C27.6897 208.611 27.9677 208.478 28.2533 208.508H31.2477C31.6294 208.548 31.9189 208.865 31.9189 209.243C31.9189 209.621 31.6294 209.938 31.2477 209.978ZM25.2589 209.978H22.2561C21.8744 209.938 21.5848 209.621 21.5848 209.243C21.5848 208.865 21.8744 208.548 22.2561 208.507H25.2589C25.6406 208.548 25.9301 208.865 25.9301 209.243C25.9301 209.621 25.6406 209.938 25.2589 209.978H25.2589ZM19.2616 209.978H17.9289C17.3388 209.968 16.75 209.92 16.166 209.837C15.778 209.76 15.5178 209.399 15.5713 209.013C15.6248 208.626 15.9736 208.347 16.3684 208.375C16.8858 208.446 17.4067 208.491 17.9289 208.508H19.2616C19.5472 208.478 19.8252 208.611 19.9775 208.851C20.1299 209.091 20.1299 209.395 19.9775 209.635C19.8252 209.875 19.5472 210.008 19.2616 209.978H19.2616ZM13.3573 209.214C13.2875 209.226 13.2162 209.226 13.1464 209.214C12.1499 208.922 11.1795 208.55 10.2448 208.101C9.87212 207.922 9.71728 207.479 9.89897 207.112C10.0807 206.745 10.53 206.593 10.9027 206.771C11.7628 207.189 12.6573 207.534 13.5767 207.802C13.9305 207.91 14.1513 208.256 14.0966 208.617C14.0418 208.978 13.7279 209.246 13.3573 209.247L13.3573 209.214ZM7.99264 206.655C7.83096 206.655 7.6738 206.602 7.54559 206.505C6.70474 205.887 5.93032 205.185 5.23438 204.411C4.96292 204.103 4.99296 203.637 5.30185 203.365C5.61233 203.098 6.08276 203.128 6.35622 203.431C6.98425 204.13 7.68226 204.765 8.43965 205.325C8.59964 205.441 8.70576 205.616 8.73429 205.809C8.76281 206.003 8.71138 206.2 8.59148 206.356C8.45355 206.546 8.22991 206.658 7.99264 206.655ZM4.07036 202.268C3.79897 202.269 3.54813 202.126 3.41244 201.895C2.90346 200.998 2.47719 200.058 2.13877 199.086C2.07184 198.901 2.0833 198.697 2.17056 198.521C2.25784 198.344 2.41357 198.21 2.6027 198.147C2.99397 198.015 3.42025 198.219 3.55585 198.604C3.85766 199.493 4.24756 200.35 4.71989 201.163C4.92191 201.519 4.79364 201.969 4.4331 202.169C4.32172 202.227 4.19659 202.256 4.07035 202.252L4.07036 202.268ZM2.10502 196.685C1.74156 196.682 1.43243 196.423 1.37118 196.07C1.19126 195.073 1.07855 194.065 1.03378 193.054C1.01464 192.648 1.33088 192.303 1.74232 192.281C2.15372 192.271 2.49976 192.583 2.52677 192.987C2.57192 193.937 2.67615 194.883 2.83886 195.82C2.87048 196.01 2.82421 196.204 2.71027 196.36C2.59631 196.516 2.42406 196.621 2.23154 196.651L2.10502 196.685ZM1.7507 190.811C1.55162 190.811 1.36066 190.733 1.21987 190.594C1.07909 190.455 1 190.267 1 190.071V187.122C0.999691 186.857 1.14271 186.613 1.37511 186.481C1.6075 186.348 1.89391 186.348 2.12631 186.481C2.3587 186.613 2.50172 186.857 2.50143 187.122V190.071C2.51793 190.277 2.44619 190.481 2.30357 190.632C2.16094 190.784 1.96047 190.869 1.7507 190.869V190.811ZM1.7507 184.903C1.55162 184.903 1.36066 184.825 1.21987 184.686C1.07909 184.548 1 184.359 1 184.163V181.214C0.999691 180.949 1.14271 180.705 1.37511 180.573C1.6075 180.44 1.89391 180.44 2.12631 180.573C2.3587 180.705 2.50172 180.949 2.50143 181.214V184.222C2.48777 184.62 2.15562 184.936 1.7507 184.936V184.903ZM1.7507 179.004C1.55162 179.004 1.36066 178.926 1.21987 178.787C1.07909 178.649 1 178.461 1 178.265V175.307C1.00048 174.899 1.33644 174.568 1.75073 174.568C2.165 174.568 2.50096 174.899 2.50143 175.307V178.264C2.51066 178.466 2.43566 178.663 2.29386 178.809C2.15205 178.955 1.9558 179.037 1.7507 179.037V179.004ZM1.7507 173.096C1.55162 173.096 1.36066 173.019 1.21987 172.88C1.07909 172.741 1 172.553 1 172.357V169.407C0.999691 169.143 1.14271 168.899 1.37511 168.766C1.6075 168.634 1.89391 168.634 2.12631 168.766C2.3587 168.899 2.50172 169.143 2.50143 169.407V172.357C2.51064 172.559 2.43563 172.755 2.29384 172.901C2.15202 173.047 1.95578 173.13 1.7507 173.13V173.096ZM1.7507 167.19C1.55162 167.19 1.36066 167.112 1.21987 166.973C1.07909 166.834 1 166.646 1 166.45V163.534C0.999691 163.269 1.14271 163.025 1.37511 162.893C1.6075 162.76 1.89391 162.76 2.12631 162.893C2.3587 163.025 2.50172 163.269 2.50143 163.534V166.483C2.50143 166.892 2.16532 167.223 1.75071 167.223L1.7507 167.19ZM1.7507 161.282C1.33611 161.282 1 160.951 1 160.542V157.634C1.00048 157.226 1.33644 156.896 1.75073 156.896C2.165 156.896 2.50096 157.226 2.50143 157.634V160.584C2.49681 160.989 2.16204 161.315 1.7507 161.315V161.282ZM1.81813 155.374H1.65786C1.25643 155.287 1.00077 154.898 1.08429 154.502C1.30606 153.5 1.60497 152.517 1.97839 151.561C2.12427 151.181 2.55341 150.988 2.94 151.129C3.32641 151.276 3.52161 151.701 3.37862 152.084C3.02795 152.967 2.74597 153.876 2.53511 154.801C2.46856 155.143 2.1713 155.394 1.81813 155.407V155.374ZM3.92704 149.857C3.80072 149.854 3.67676 149.823 3.56434 149.766C3.20569 149.569 3.07416 149.125 3.26911 148.769C3.75644 147.868 4.32081 147.009 4.95611 146.202C5.20774 145.881 5.67589 145.821 6.00189 146.069C6.32789 146.317 6.38836 146.778 6.13697 147.099C5.55235 147.85 5.0278 148.644 4.56807 149.475C4.44637 149.718 4.20124 149.876 3.92703 149.891L3.92704 149.857ZM7.60443 145.23C7.39037 145.23 7.18587 145.142 7.03929 144.989C6.76785 144.68 6.79789 144.214 7.10678 143.942C7.88372 143.253 8.73186 142.646 9.63729 142.131C9.86891 141.963 10.1772 141.941 10.4313 142.073C10.6854 142.205 10.8408 142.468 10.8316 142.751C10.8224 143.033 10.6502 143.286 10.388 143.402C9.56684 143.876 8.79792 144.433 8.09369 145.064C7.96103 145.187 7.78685 145.258 7.60442 145.263L7.60443 145.23ZM12.7415 142.289C12.4208 142.291 12.135 142.09 12.033 141.79C11.8986 141.405 12.1061 140.985 12.4969 140.851C13.4881 140.527 14.5074 140.293 15.542 140.153C15.9496 140.096 16.3272 140.375 16.3855 140.776C16.4437 141.178 16.1604 141.55 15.7528 141.607C14.8095 141.739 13.8805 141.956 12.9777 142.255C12.9032 142.29 12.8234 142.312 12.7415 142.322V142.289ZM49.1049 141.457H48.5735C48.2878 141.487 48.0099 141.354 47.8576 141.114C47.7052 140.874 47.7052 140.57 47.8576 140.33C48.0099 140.09 48.2878 139.957 48.5735 139.987H49.1049C49.4866 140.027 49.7761 140.344 49.7761 140.722C49.7761 141.1 49.4866 141.417 49.1049 141.457ZM45.579 141.457H42.5845C42.2989 141.487 42.0209 141.354 41.8686 141.114C41.7163 140.874 41.7163 140.57 41.8686 140.33C42.0209 140.09 42.2989 139.957 42.5845 139.987H45.5789C45.8646 139.957 46.1425 140.09 46.2948 140.33C46.4472 140.57 46.4472 140.874 46.2948 141.114C46.1425 141.354 45.8646 141.487 45.5789 141.457H45.579ZM39.5901 141.457H36.5957C36.31 141.487 36.0321 141.354 35.8798 141.114C35.7274 140.874 35.7274 140.57 35.8798 140.33C36.0321 140.09 36.31 139.957 36.5957 139.987H39.5901C39.8757 139.957 40.1537 140.09 40.306 140.33C40.4583 140.57 40.4583 140.874 40.306 141.114C40.1537 141.354 39.8757 141.487 39.5901 141.457H39.5901ZM33.6013 141.457H30.6069C30.3213 141.487 30.0433 141.354 29.891 141.114C29.7387 140.874 29.7387 140.57 29.891 140.33C30.0433 140.09 30.3213 139.957 30.6069 139.987H33.6013C33.8869 139.957 34.1649 140.09 34.3172 140.33C34.4695 140.57 34.4695 140.874 34.3172 141.114C34.1649 141.354 33.8869 141.487 33.6013 141.457ZM27.6123 141.457H24.6179C24.3322 141.487 24.0543 141.354 23.902 141.114C23.7496 140.874 23.7496 140.57 23.902 140.33C24.0543 140.09 24.3322 139.957 24.6179 139.987H27.6123C27.898 139.957 28.1759 140.09 28.3282 140.33C28.4806 140.57 28.4806 140.874 28.3282 141.114C28.1759 141.354 27.898 141.487 27.6123 141.457H27.6123ZM21.6234 141.457H18.629C18.3434 141.487 18.0654 141.354 17.9131 141.114C17.7607 140.874 17.7607 140.57 17.9131 140.33C18.0654 140.09 18.3434 139.957 18.629 139.987H21.6234C21.9091 139.957 22.187 140.09 22.3393 140.33C22.4917 140.57 22.4917 140.874 22.3393 141.114C22.187 141.354 21.9091 141.487 21.6234 141.457H21.6234Z" fill="#F94F24"/>
<path fill-rule="evenodd" clip-rule="evenodd" d="M61.4199 151.981C61.0175 152.009 60.6691 151.702 60.6416 151.297C60.6142 150.892 60.9181 150.541 61.3206 150.513C62.2218 150.384 63.1002 150.126 63.9288 149.746C64.2991 149.576 64.7366 149.74 64.9059 150.113C65.0751 150.486 64.9121 150.927 64.5417 151.097C63.5841 151.533 62.569 151.828 61.5278 151.972L61.4199 151.981ZM58.4971 151.981H58.3895C57.3472 151.828 56.3321 151.524 55.3755 151.08C55.0117 150.904 54.8538 150.467 55.0195 150.096C55.1005 149.917 55.2496 149.778 55.4333 149.711C55.6171 149.643 55.82 149.653 55.9965 149.738C56.8221 150.102 57.6947 150.346 58.5882 150.463C58.969 150.521 59.2412 150.865 59.213 151.251C59.1848 151.638 58.8656 151.938 58.4805 151.939L58.4971 151.981ZM66.7026 149.58C66.4888 149.581 66.2855 149.486 66.1479 149.321C65.8845 149.012 65.9177 148.547 66.2224 148.279C66.9131 147.679 67.5153 146.983 68.0109 146.212C68.233 145.869 68.6886 145.772 69.0294 145.995C69.1922 146.101 69.3065 146.267 69.3469 146.458C69.3873 146.649 69.3505 146.848 69.2446 147.012C68.6762 147.904 67.9817 148.707 67.1829 149.396C67.0499 149.513 66.8787 149.575 66.7026 149.572L66.7026 149.58ZM53.2312 149.53C53.0544 149.529 52.8837 149.464 52.751 149.346C51.9589 148.648 51.2702 147.84 50.7059 146.945C50.4772 146.6 50.5699 146.133 50.9129 145.903C51.2558 145.673 51.7192 145.766 51.9479 146.111C52.4353 146.886 53.0322 147.586 53.7198 148.188C54.023 148.461 54.0525 148.928 53.786 149.238C53.6532 149.412 53.4492 149.516 53.2312 149.521V149.53ZM69.8491 144.677C69.7807 144.69 69.7105 144.69 69.6421 144.677C69.4547 144.623 69.2966 144.496 69.2032 144.323C69.1099 144.151 69.089 143.948 69.1453 143.76C69.4003 142.88 69.5285 141.968 69.5262 141.051C69.5259 140.785 69.6662 140.54 69.8944 140.407C70.1225 140.275 70.4037 140.275 70.6318 140.407C70.8599 140.54 71.0003 140.785 71 141.051C71.0013 142.109 70.8507 143.162 70.5528 144.177C70.4467 144.476 70.1639 144.673 69.8491 144.669L69.8491 144.677ZM50.1261 144.628C49.7978 144.625 49.5108 144.404 49.4223 144.086C49.1408 143.096 48.9986 142.072 49 141.042C48.9994 140.625 49.3233 140.281 49.7369 140.259C49.9271 140.25 50.1126 140.319 50.2503 140.452C50.388 140.584 50.4658 140.767 50.4656 140.959C50.4602 141.878 50.5828 142.793 50.8299 143.677C50.8862 143.865 50.8653 144.068 50.7719 144.24C50.6786 144.413 50.5205 144.54 50.3331 144.594C50.2664 144.617 50.1964 144.628 50.1261 144.628ZM69.8904 139.016C69.562 139.014 69.2751 138.793 69.1866 138.474C68.941 137.592 68.5701 136.749 68.0853 135.973C67.8891 135.627 67.9998 135.186 68.336 134.975C68.6721 134.765 69.1136 134.859 69.3356 135.189C69.8915 136.089 70.3181 137.063 70.6024 138.082C70.7083 138.476 70.4791 138.882 70.0891 138.991C70.0229 139.001 69.9556 138.998 69.8904 138.983V139.016ZM50.1757 138.791C50.1044 138.804 50.0316 138.804 49.9604 138.791C49.7731 138.737 49.6155 138.609 49.5235 138.437C49.4315 138.264 49.4128 138.061 49.4718 137.874C49.7718 136.858 50.2181 135.892 50.7966 135.006C51.0253 134.663 51.4868 134.571 51.8275 134.802C52.1681 135.032 52.259 135.497 52.0303 135.84C51.5237 136.61 51.1357 137.454 50.8794 138.341C50.7617 138.625 50.4807 138.804 50.1756 138.791L50.1757 138.791ZM66.8184 134.064C66.6387 134.065 66.4647 134 66.3299 133.88C65.6513 133.272 64.8902 132.764 64.0694 132.371C63.7013 132.196 63.5438 131.754 63.7176 131.383C63.8913 131.012 64.3306 130.854 64.6987 131.029C65.6451 131.483 66.5231 132.07 67.3069 132.771C67.6101 133.044 67.6396 133.512 67.3731 133.822C67.2224 133.961 67.0225 134.033 66.8184 134.022V134.064ZM53.3554 133.914C53.1398 133.912 52.9352 133.818 52.7923 133.655C52.53 133.341 52.5669 132.873 52.8751 132.605C53.6794 131.927 54.5741 131.366 55.533 130.937C55.9057 130.772 56.3412 130.942 56.5058 131.317C56.6704 131.692 56.5018 132.131 56.1292 132.296C55.295 132.666 54.5194 133.158 53.8273 133.755C53.6877 133.847 53.5213 133.888 53.3554 133.872V133.914ZM61.5772 131.571H61.4695C60.566 131.442 59.6489 131.442 58.7454 131.571C58.5505 131.599 58.3526 131.547 58.1967 131.426C58.0407 131.305 57.94 131.126 57.9174 130.929C57.8868 130.734 57.9366 130.534 58.0554 130.377C58.1742 130.22 58.3516 130.118 58.5467 130.095C59.5874 129.945 60.6441 129.945 61.6848 130.095C62.0477 130.172 62.2974 130.508 62.2681 130.88C62.2386 131.252 61.9392 131.545 61.5689 131.563L61.5772 131.571Z" fill="#F94F24"/>
<path fill-rule="evenodd" clip-rule="evenodd" d="M247.89 239.983C247.48 239.982 247.147 239.652 247.147 239.246C247.147 238.839 247.48 238.509 247.89 238.509H248.851C249.461 238.446 250.067 238.344 250.664 238.202C251.063 238.109 251.463 238.353 251.558 238.749C251.605 238.938 251.573 239.138 251.469 239.303C251.365 239.469 251.198 239.585 251.006 239.627C250.314 239.793 249.61 239.912 248.901 239.983H247.89ZM244.95 239.983H241.984C241.718 239.983 241.472 239.842 241.339 239.614C241.206 239.386 241.206 239.105 241.339 238.877C241.472 238.649 241.718 238.508 241.984 238.508H244.95C245.36 238.509 245.692 238.839 245.692 239.245C245.692 239.652 245.36 239.982 244.95 239.983H244.95ZM239.018 239.983H236.052C235.642 239.982 235.31 239.652 235.31 239.245C235.31 238.839 235.642 238.509 236.052 238.508H239.018C239.428 238.509 239.761 238.839 239.761 239.245C239.761 239.652 239.428 239.982 239.018 239.983ZM233.087 239.983H230.121C229.855 239.983 229.609 239.842 229.476 239.614C229.343 239.386 229.343 239.105 229.476 238.877C229.609 238.649 229.855 238.508 230.121 238.508H233.087C233.497 238.509 233.829 238.839 233.829 239.245C233.829 239.652 233.497 239.982 233.087 239.983H233.087ZM253.68 238.716C253.331 238.712 253.032 238.469 252.96 238.131C252.887 237.793 253.062 237.451 253.379 237.308C254.237 236.935 255.052 236.471 255.81 235.925C256.14 235.686 256.603 235.756 256.846 236.082C257.088 236.412 257.017 236.873 256.687 237.117C255.841 237.722 254.934 238.239 253.98 238.658C253.875 238.689 253.764 238.697 253.655 238.682L253.68 238.716ZM258.391 235.237C258.22 235.239 258.054 235.18 257.923 235.072C257.606 234.815 257.557 234.352 257.815 234.036C258.394 233.324 258.874 232.539 259.243 231.701C259.407 231.331 259.843 231.162 260.216 231.324C260.59 231.486 260.76 231.918 260.597 232.289C260.167 233.253 259.605 234.153 258.926 234.964C258.783 235.12 258.579 235.208 258.366 235.204L258.391 235.237ZM260.764 229.929H260.631C260.241 229.853 259.978 229.491 260.029 229.101C260.183 228.239 260.258 227.366 260.255 226.492V226.301C260.225 226.021 260.359 225.748 260.6 225.599C260.841 225.449 261.147 225.449 261.388 225.599C261.63 225.748 261.763 226.021 261.733 226.301V226.492C261.736 227.452 261.654 228.411 261.491 229.357C261.401 229.691 261.087 229.915 260.739 229.896L260.764 229.929ZM260.99 224.066C260.793 224.066 260.605 223.988 260.467 223.849C260.329 223.711 260.252 223.523 260.254 223.329V220.356C260.224 220.075 260.358 219.802 260.6 219.653C260.841 219.503 261.147 219.503 261.388 219.653C261.629 219.802 261.763 220.075 261.733 220.356V223.295C261.733 223.495 261.651 223.687 261.506 223.826C261.362 223.965 261.166 224.039 260.964 224.032L260.99 224.066ZM260.99 218.185C260.793 218.185 260.605 218.108 260.467 217.969C260.329 217.831 260.252 217.643 260.254 217.448V214.475C260.224 214.195 260.358 213.922 260.6 213.773C260.841 213.623 261.147 213.623 261.388 213.773C261.629 213.922 261.763 214.195 261.733 214.475V217.415C261.733 217.615 261.651 217.807 261.506 217.946C261.362 218.084 261.166 218.159 260.964 218.152L260.99 218.185ZM260.99 212.306C260.793 212.306 260.605 212.228 260.467 212.09C260.329 211.951 260.252 211.764 260.254 211.569V208.596C260.224 208.316 260.358 208.043 260.6 207.893C260.841 207.744 261.147 207.744 261.388 207.893C261.629 208.043 261.763 208.316 261.733 208.596V211.536C261.733 211.736 261.651 211.927 261.506 212.066C261.362 212.205 261.166 212.28 260.964 212.273L260.99 212.306ZM260.99 206.427C260.793 206.427 260.605 206.349 260.467 206.21C260.329 206.072 260.252 205.884 260.254 205.689V205.582C260.24 205.358 260.24 205.134 260.254 204.911C260.253 204.141 260.329 203.372 260.48 202.617C260.587 202.251 260.959 202.026 261.337 202.099C261.714 202.172 261.973 202.519 261.934 202.899C261.801 203.561 261.734 204.235 261.733 204.911C261.733 205.267 261.733 205.482 261.733 205.499V205.689C261.715 206.093 261.372 206.408 260.964 206.393L260.99 206.427ZM262.159 200.729C262.036 200.731 261.915 200.699 261.809 200.638C261.636 200.545 261.508 200.388 261.453 200.201C261.399 200.015 261.421 199.814 261.516 199.644C262.036 198.689 262.74 197.845 263.588 197.159C263.91 196.923 264.362 196.982 264.612 197.292C264.861 197.602 264.819 198.052 264.515 198.311C263.832 198.871 263.264 199.557 262.844 200.331C262.699 200.579 262.422 200.721 262.134 200.696L262.159 200.729ZM266.654 197.126C266.295 197.117 265.994 196.855 265.939 196.503C265.883 196.152 266.089 195.811 266.428 195.694C267.431 195.384 268.47 195.2 269.519 195.147C269.927 195.133 270.274 195.44 270.305 195.843C270.316 196.036 270.249 196.226 270.119 196.371C269.989 196.515 269.806 196.602 269.611 196.613C268.684 196.661 267.767 196.822 266.879 197.093C266.81 197.104 266.74 197.104 266.671 197.093L266.654 197.126ZM287.364 196.588H284.398C284.115 196.617 283.84 196.485 283.689 196.246C283.538 196.006 283.538 195.703 283.689 195.464C283.84 195.225 284.115 195.092 284.398 195.122H287.364C287.742 195.162 288.028 195.478 288.028 195.855C288.028 196.232 287.742 196.548 287.364 196.588ZM281.424 196.588H278.458C278.08 196.548 277.793 196.232 277.793 195.855C277.793 195.478 278.08 195.162 278.458 195.122H281.424C281.707 195.092 281.982 195.225 282.133 195.464C282.284 195.703 282.284 196.006 282.133 196.246C281.982 196.485 281.707 196.617 281.424 196.588ZM275.492 196.588H272.518C272.14 196.548 271.853 196.232 271.853 195.855C271.853 195.478 272.14 195.162 272.518 195.122H275.484C275.767 195.092 276.042 195.225 276.193 195.464C276.344 195.703 276.344 196.006 276.193 196.246C276.042 196.485 275.767 196.617 275.484 196.588H275.492ZM290.33 196.522C289.947 196.519 289.629 196.229 289.594 195.851C289.566 195.652 289.622 195.45 289.748 195.294C289.875 195.137 290.061 195.039 290.263 195.023C291.208 194.935 292.144 194.769 293.061 194.526C293.252 194.475 293.455 194.502 293.626 194.6C293.796 194.697 293.921 194.858 293.972 195.047C294.073 195.44 293.84 195.841 293.446 195.95C292.449 196.213 291.432 196.39 290.405 196.48L290.33 196.522ZM296.027 194.965C295.747 194.965 295.491 194.808 295.367 194.559C295.274 194.387 295.256 194.185 295.315 194C295.375 193.814 295.508 193.66 295.685 193.574C296.505 193.16 297.261 192.633 297.932 192.008C298.07 191.87 298.258 191.793 298.454 191.793C298.65 191.793 298.838 191.87 298.976 192.008C299.115 192.145 299.194 192.332 299.194 192.526C299.194 192.72 299.115 192.907 298.976 193.044C298.208 193.772 297.335 194.383 296.386 194.857C296.266 194.912 296.134 194.937 296.002 194.932L296.027 194.965ZM300.204 190.932C300.087 190.932 299.972 190.903 299.87 190.849C299.694 190.762 299.56 190.609 299.499 190.424C299.438 190.238 299.454 190.037 299.544 189.863C299.955 189.053 300.237 188.184 300.379 187.288C300.446 186.885 300.829 186.613 301.236 186.679C301.642 186.746 301.916 187.126 301.85 187.528C301.679 188.57 301.352 189.58 300.88 190.526C300.739 190.779 300.461 190.925 300.17 190.899L300.204 190.932ZM301.256 185.217C301.059 185.217 300.87 185.14 300.731 185.001C300.591 184.863 300.513 184.676 300.513 184.48V181.54C300.513 181.133 300.846 180.803 301.256 180.803C301.667 180.803 302 181.133 302 181.54V184.48C301.991 184.676 301.905 184.86 301.759 184.992C301.613 185.124 301.42 185.193 301.223 185.184L301.256 185.217ZM301.256 179.338C301.059 179.338 300.87 179.26 300.731 179.122C300.591 178.983 300.513 178.796 300.513 178.601V175.661C300.513 175.254 300.846 174.924 301.256 174.924C301.667 174.924 302 175.254 302 175.661V178.601C301.991 178.796 301.905 178.98 301.759 179.112C301.613 179.244 301.42 179.313 301.223 179.304L301.256 179.338ZM301.256 173.458C301.059 173.458 300.87 173.38 300.731 173.242C300.591 173.104 300.513 172.916 300.513 172.721V169.781C300.513 169.374 300.846 169.044 301.256 169.044C301.667 169.044 302 169.374 302 169.781V172.721C301.991 172.916 301.905 173.101 301.759 173.233C301.613 173.365 301.42 173.434 301.223 173.425L301.256 173.458ZM301.256 167.579C301.059 167.579 300.87 167.501 300.731 167.363C300.591 167.225 300.513 167.037 300.513 166.842V163.902C300.513 163.495 300.846 163.165 301.256 163.165C301.667 163.165 302 163.495 302 163.902V166.842C301.991 167.037 301.905 167.221 301.759 167.353C301.613 167.486 301.42 167.555 301.223 167.546L301.256 167.579ZM301.256 161.69C301.06 161.692 300.871 161.616 300.731 161.48C300.592 161.343 300.513 161.156 300.513 160.961V157.997C300.513 157.59 300.846 157.26 301.256 157.26C301.667 157.26 302 157.59 302 157.997V160.936C301.998 161.136 301.914 161.325 301.767 161.462C301.62 161.598 301.424 161.668 301.223 161.657L301.256 161.69ZM301.256 155.81C301.06 155.813 300.871 155.737 300.731 155.6C300.592 155.463 300.513 155.276 300.513 155.082V152.142C300.513 151.735 300.846 151.405 301.256 151.405C301.667 151.405 302 151.735 302 152.142V155.082C301.991 155.277 301.904 155.46 301.758 155.591C301.612 155.721 301.419 155.789 301.223 155.777L301.256 155.81ZM301.256 149.931C301.06 149.933 300.871 149.857 300.731 149.72C300.592 149.583 300.513 149.397 300.513 149.202V146.262C300.513 145.855 300.846 145.525 301.256 145.525C301.667 145.525 302 145.855 302 146.262V149.202C301.991 149.397 301.904 149.58 301.758 149.711C301.612 149.842 301.419 149.909 301.223 149.898L301.256 149.931ZM301.256 144.051C301.059 144.051 300.87 143.973 300.731 143.835C300.591 143.697 300.513 143.509 300.513 143.314V140.374C300.513 139.967 300.846 139.637 301.256 139.637C301.667 139.637 302 139.967 302 140.374V143.314C301.991 143.509 301.905 143.694 301.759 143.826C301.613 143.958 301.42 144.027 301.223 144.018L301.256 144.051ZM301.256 138.171C301.059 138.171 300.87 138.093 300.731 137.955C300.591 137.817 300.513 137.629 300.513 137.434V134.494C300.513 134.087 300.846 133.757 301.256 133.757C301.667 133.757 302 134.087 302 134.494V137.434C301.973 137.835 301.628 138.14 301.223 138.121L301.256 138.171ZM301.006 132.291C300.646 132.293 300.336 132.038 300.271 131.686C300.11 130.748 299.886 129.821 299.603 128.912C299.481 128.523 299.699 128.11 300.091 127.989C300.484 127.868 300.901 128.085 301.023 128.473C301.324 129.443 301.561 130.43 301.733 131.43C301.793 131.822 301.526 132.19 301.132 132.258L301.006 132.291ZM299.252 126.644C298.96 126.646 298.694 126.477 298.575 126.213C298.177 125.356 297.722 124.526 297.213 123.729C296.997 123.387 297.098 122.937 297.439 122.718C297.786 122.503 298.242 122.603 298.466 122.942C299.01 123.801 299.495 124.694 299.92 125.617C300.004 125.794 300.013 125.998 299.944 126.182C299.875 126.366 299.733 126.515 299.552 126.594C299.456 126.63 299.354 126.647 299.252 126.644ZM296.077 121.674C295.861 121.674 295.657 121.58 295.517 121.418C294.894 120.703 294.219 120.036 293.496 119.422C293.189 119.155 293.156 118.694 293.422 118.387C293.688 118.081 294.153 118.044 294.465 118.304C295.242 118.967 295.968 119.686 296.637 120.457C296.902 120.764 296.869 121.226 296.561 121.492C296.427 121.622 296.248 121.696 296.06 121.699L296.077 121.674ZM291.599 117.857C291.46 117.854 291.325 117.814 291.207 117.741C290.403 117.239 289.565 116.791 288.701 116.4C288.352 116.218 288.206 115.8 288.368 115.444C288.529 115.088 288.943 114.919 289.31 115.058C290.239 115.477 291.138 115.958 292 116.499C292.278 116.674 292.406 117.01 292.315 117.323C292.224 117.637 291.937 117.854 291.608 117.857H291.599ZM286.227 115.422C286.153 115.42 286.08 115.406 286.01 115.381C285.093 115.099 284.161 114.864 283.22 114.677C282.834 114.598 282.578 114.235 282.635 113.849C282.718 113.469 283.082 113.217 283.47 113.269C284.481 113.476 285.475 113.725 286.411 114.015C286.599 114.072 286.756 114.201 286.847 114.374C286.938 114.547 286.955 114.748 286.895 114.934C286.798 115.23 286.525 115.435 286.211 115.447L286.227 115.422ZM280.438 114.254H280.363C279.427 114.155 278.45 114.089 277.464 114.064C277.054 114.063 276.721 113.734 276.721 113.327C276.721 112.92 277.054 112.59 277.464 112.59C278.491 112.59 279.502 112.689 280.48 112.789C280.89 112.811 281.205 113.16 281.181 113.567C281.158 113.974 280.807 114.286 280.396 114.263L280.438 114.254ZM200.898 114.105H200.33C200.133 114.101 199.947 114.018 199.812 113.877C199.677 113.735 199.605 113.546 199.612 113.351C199.629 112.951 199.959 112.635 200.363 112.631C200.895 112.663 201.428 112.663 201.959 112.631H203.312C203.723 112.631 204.055 112.961 204.055 113.368C204.055 113.775 203.723 114.104 203.312 114.105H202.034C202.034 114.105 201.608 114.105 200.898 114.105ZM274.507 114.105H271.541C271.131 114.104 270.798 113.775 270.798 113.368C270.798 112.961 271.13 112.631 271.541 112.631H274.506C274.917 112.631 275.249 112.961 275.249 113.368C275.249 113.775 274.917 114.104 274.507 114.105ZM268.567 114.105H265.601C265.191 114.104 264.858 113.775 264.858 113.368C264.858 112.961 265.191 112.631 265.601 112.631H268.567C268.977 112.631 269.31 112.961 269.31 113.368C269.31 113.775 268.977 114.104 268.567 114.105ZM262.635 114.105H259.669C259.259 114.104 258.927 113.775 258.927 113.368C258.927 112.961 259.259 112.631 259.669 112.631H262.635C263.045 112.631 263.378 112.961 263.378 113.368C263.378 113.775 263.046 114.104 262.635 114.105ZM256.704 114.105H253.738C253.328 114.104 252.996 113.775 252.996 113.368C252.996 112.961 253.328 112.631 253.738 112.631H256.704C257.114 112.631 257.447 112.961 257.447 113.368C257.447 113.775 257.114 114.104 256.704 114.105ZM250.772 114.105H247.807C247.396 114.104 247.064 113.775 247.064 113.368C247.064 112.961 247.396 112.631 247.807 112.631H250.797C251.208 112.631 251.54 112.961 251.54 113.368C251.54 113.775 251.208 114.104 250.797 114.105H250.772ZM244.841 114.105H241.875C241.465 114.104 241.133 113.775 241.133 113.368C241.133 112.961 241.465 112.631 241.875 112.631H244.841C245.251 112.631 245.584 112.961 245.584 113.368C245.584 113.775 245.251 114.104 244.841 114.105ZM238.91 114.105H235.944C235.678 114.105 235.432 113.965 235.299 113.737C235.166 113.508 235.166 113.227 235.299 112.999C235.432 112.771 235.678 112.631 235.944 112.631H238.91C239.175 112.631 239.421 112.771 239.554 112.999C239.687 113.227 239.687 113.509 239.554 113.737C239.421 113.965 239.175 114.105 238.91 114.105ZM232.978 114.105H230.012C229.602 114.104 229.27 113.775 229.27 113.368C229.27 112.961 229.602 112.631 230.012 112.631H232.978C233.388 112.631 233.721 112.961 233.721 113.368C233.721 113.775 233.388 114.104 232.978 114.105ZM227.047 114.105H224.064C223.654 114.104 223.321 113.775 223.321 113.368C223.321 112.961 223.654 112.631 224.064 112.631H227.03C227.44 112.631 227.772 112.961 227.772 113.368C227.772 113.775 227.44 114.104 227.03 114.105H227.047ZM221.115 114.105H218.149C217.884 114.105 217.638 113.965 217.505 113.737C217.372 113.508 217.372 113.227 217.505 112.999C217.638 112.771 217.884 112.631 218.149 112.631H221.115C221.525 112.631 221.858 112.961 221.858 113.368C221.858 113.775 221.525 114.104 221.115 114.105H221.115ZM215.184 114.105H212.218C211.808 114.104 211.475 113.775 211.475 113.368C211.475 112.961 211.808 112.631 212.218 112.631H215.184C215.594 112.631 215.926 112.961 215.926 113.368C215.926 113.775 215.594 114.104 215.184 114.105ZM209.252 114.105H206.287C206.021 114.105 205.775 113.965 205.642 113.737C205.509 113.508 205.509 113.227 205.642 112.999C205.775 112.771 206.021 112.631 206.287 112.631H209.252C209.663 112.631 209.995 112.961 209.995 113.368C209.995 113.775 209.663 114.104 209.252 114.105H209.252ZM197.398 113.832H197.264C196.249 113.656 195.252 113.395 194.281 113.053C193.936 112.892 193.769 112.498 193.897 112.141C194.024 111.784 194.403 111.58 194.774 111.67C195.668 111.985 196.588 112.224 197.523 112.382C197.89 112.46 198.141 112.796 198.11 113.166C198.078 113.537 197.772 113.826 197.398 113.84V113.832ZM191.85 111.836C191.714 111.835 191.58 111.794 191.466 111.72C190.553 111.186 189.711 110.54 188.96 109.799C188.821 109.662 188.742 109.476 188.742 109.282C188.742 109.087 188.821 108.901 188.96 108.764C189.098 108.626 189.286 108.548 189.482 108.548C189.678 108.548 189.866 108.626 190.004 108.764C190.659 109.417 191.391 109.99 192.185 110.47C192.535 110.681 192.647 111.133 192.435 111.48C192.299 111.669 192.084 111.785 191.85 111.795L191.85 111.836ZM187.732 107.696C187.47 107.695 187.228 107.556 187.097 107.331C186.568 106.438 186.145 105.488 185.835 104.499C185.724 104.241 185.771 103.942 185.955 103.729C186.14 103.516 186.431 103.426 186.705 103.496C186.98 103.566 187.19 103.785 187.247 104.06C187.527 104.941 187.906 105.788 188.375 106.586C188.574 106.939 188.456 107.385 188.108 107.596C187.989 107.647 187.86 107.666 187.732 107.654L187.732 107.696ZM185.911 102.147C185.539 102.146 185.226 101.874 185.175 101.509C185.056 100.559 184.998 99.6019 185 98.6441V98.4868C185 98.2233 185.141 97.9796 185.372 97.8478C185.602 97.7159 185.885 97.7159 186.116 97.8478C186.346 97.9796 186.487 98.2232 186.487 98.4868V98.6441C186.483 99.5383 186.536 100.432 186.646 101.319C186.677 101.513 186.626 101.711 186.507 101.867C186.387 102.024 186.208 102.125 186.011 102.147L185.911 102.147ZM185.744 96.2753C185.547 96.2775 185.358 96.2018 185.218 96.0648C185.079 95.9279 185 95.7413 185 95.5466V92.5736C185 92.3101 185.141 92.0664 185.372 91.9346C185.602 91.8027 185.885 91.8027 186.116 91.9346C186.346 92.0664 186.487 92.31 186.487 92.5736V95.5135C186.485 95.7067 186.405 95.8913 186.266 96.0264C186.126 96.1615 185.938 96.2362 185.743 96.2339L185.744 96.2753ZM185.744 90.3958C185.546 90.3958 185.357 90.3182 185.218 90.18C185.078 90.0417 185 89.8543 185 89.6588V86.7189C185 86.3121 185.333 85.9827 185.744 85.9827C186.154 85.9827 186.487 86.3121 186.487 86.7189V89.6588C186.465 90.0496 186.138 90.3551 185.743 90.3544L185.744 90.3958Z" fill="#6731CF"/>
<path fill-rule="evenodd" clip-rule="evenodd" d="M269.657 218.983H266.658C266.244 218.982 265.909 218.653 265.909 218.248C265.909 217.842 266.244 217.513 266.658 217.512H269.657C270.07 217.513 270.406 217.842 270.406 218.248C270.406 218.653 270.071 218.982 269.657 218.983ZM263.667 218.983H260.676C260.262 218.982 259.927 218.653 259.927 218.248C259.927 217.842 260.262 217.513 260.676 217.512H263.667C263.935 217.512 264.182 217.652 264.317 217.88C264.451 218.107 264.451 218.388 264.317 218.615C264.182 218.843 263.935 218.983 263.667 218.983H263.667ZM257.685 218.983H254.695C254.281 218.982 253.946 218.653 253.946 218.248C253.946 217.842 254.281 217.513 254.695 217.512H257.669C258.082 217.513 258.418 217.842 258.418 218.248C258.418 218.653 258.082 218.982 257.669 218.983H257.685ZM251.704 218.983H248.713C248.3 218.982 247.964 218.653 247.964 218.248C247.964 217.842 248.3 217.513 248.713 217.512H251.704C251.972 217.512 252.22 217.652 252.354 217.88C252.488 218.107 252.488 218.388 252.354 218.615C252.22 218.843 251.972 218.983 251.704 218.983H251.704ZM245.723 218.983H242.732C242.318 218.982 241.983 218.653 241.983 218.248C241.983 217.842 242.318 217.513 242.732 217.512H245.723C245.991 217.512 246.239 217.652 246.373 217.88C246.507 218.107 246.507 218.388 246.373 218.615C246.239 218.843 245.991 218.983 245.723 218.983H245.723ZM239.741 218.983H236.751C236.483 218.983 236.235 218.843 236.101 218.615C235.966 218.388 235.966 218.107 236.101 217.88C236.235 217.652 236.483 217.512 236.751 217.512H239.741C240.155 217.513 240.49 217.842 240.49 218.248C240.49 218.653 240.155 218.982 239.741 218.983H239.741ZM272.647 218.983C272.266 218.943 271.977 218.628 271.977 218.252C271.977 217.876 272.266 217.561 272.647 217.521C273.613 217.472 274.575 217.367 275.528 217.207C275.928 217.147 276.302 217.411 276.371 217.802C276.423 218.191 276.157 218.552 275.764 218.627C274.747 218.797 273.72 218.908 272.689 218.958L272.647 218.983ZM278.544 217.934C278.188 217.922 277.89 217.666 277.83 217.321C277.771 216.977 277.967 216.639 278.3 216.513C279.184 216.21 280.031 215.814 280.827 215.332C281.174 215.115 281.634 215.215 281.855 215.555C282.076 215.895 281.974 216.346 281.628 216.563C280.735 217.114 279.779 217.56 278.78 217.892C278.696 217.918 278.607 217.926 278.519 217.917L278.544 217.934ZM283.473 214.746C283.184 214.75 282.919 214.589 282.794 214.333C282.67 214.078 282.707 213.775 282.891 213.557C283.452 212.865 283.873 212.075 284.13 211.228C284.27 210.869 284.669 210.677 285.045 210.788C285.42 210.898 285.646 211.273 285.562 211.649C285.249 212.677 284.737 213.636 284.054 214.474C283.904 214.648 283.679 214.743 283.447 214.73L283.473 214.746ZM285.25 209.287C285.051 209.287 284.861 209.209 284.72 209.071C284.579 208.933 284.5 208.746 284.5 208.552V205.603C284.5 205.197 284.836 204.868 285.25 204.868C285.664 204.868 286 205.197 286 205.603V208.535C286 208.734 285.918 208.925 285.772 209.064C285.625 209.202 285.428 209.277 285.225 209.27L285.25 209.287ZM285.25 203.414C285.052 203.416 284.861 203.341 284.721 203.204C284.58 203.068 284.5 202.881 284.5 202.687V199.739C284.5 199.333 284.836 199.004 285.25 199.004C285.664 199.004 286 199.333 286 199.739V202.712C285.977 203.11 285.631 203.416 285.225 203.397L285.25 203.414ZM285.25 197.551C285.052 197.553 284.861 197.477 284.721 197.341C284.58 197.204 284.5 197.018 284.5 196.824V193.875C284.5 193.469 284.836 193.14 285.25 193.14C285.664 193.14 286 193.469 286 193.875V196.807C286 197.006 285.918 197.196 285.771 197.333C285.625 197.471 285.427 197.543 285.225 197.534L285.25 197.551ZM285.25 191.686C285.052 191.689 284.861 191.613 284.721 191.476C284.58 191.34 284.5 191.154 284.5 190.96V188.011C284.5 187.605 284.836 187.276 285.25 187.276C285.664 187.276 286 187.605 286 188.011V190.943C286 191.142 285.918 191.332 285.771 191.469C285.625 191.606 285.427 191.679 285.225 191.67L285.25 191.686ZM285.25 185.822C285.051 185.822 284.861 185.745 284.72 185.607C284.579 185.469 284.5 185.282 284.5 185.087V182.155C284.5 181.749 284.836 181.42 285.25 181.42C285.664 181.42 286 181.749 286 182.155V185.087C285.996 185.283 285.911 185.47 285.766 185.605C285.62 185.74 285.425 185.812 285.225 185.806L285.25 185.822ZM285.25 179.958C285.051 179.958 284.861 179.881 284.72 179.743C284.579 179.605 284.5 179.418 284.5 179.223V176.283C284.5 175.877 284.836 175.548 285.25 175.548C285.664 175.548 286 175.877 286 176.283V179.215C285.998 179.413 285.914 179.601 285.769 179.738C285.623 179.875 285.427 179.948 285.225 179.942L285.25 179.958ZM285.25 174.094C285.051 174.094 284.861 174.017 284.72 173.879C284.579 173.741 284.5 173.554 284.5 173.359V170.427C284.5 170.021 284.836 169.692 285.25 169.692C285.664 169.692 286 170.021 286 170.427V173.359C285.996 173.556 285.911 173.742 285.766 173.877C285.62 174.012 285.425 174.084 285.225 174.078L285.25 174.094ZM285.25 168.23C285.051 168.23 284.861 168.152 284.72 168.015C284.579 167.877 284.5 167.69 284.5 167.495V165.29C284.5 165.24 284.5 165.05 284.5 164.711V164.571C284.496 164.377 284.571 164.189 284.709 164.049C284.846 163.91 285.035 163.83 285.233 163.828C285.644 163.828 285.979 164.152 285.983 164.555V164.72C285.983 165.116 285.983 165.347 285.983 165.347V167.503C285.969 167.903 285.633 168.218 285.225 168.213L285.25 168.23ZM285.031 162.366C284.661 162.362 284.348 162.097 284.29 161.738C284.158 160.801 283.961 159.874 283.7 158.963C283.586 158.575 283.814 158.171 284.21 158.059C284.605 157.947 285.018 158.171 285.132 158.558C285.418 159.533 285.632 160.527 285.773 161.532C285.801 161.724 285.751 161.919 285.632 162.074C285.514 162.229 285.337 162.331 285.141 162.358L285.031 162.366ZM283.346 156.75C283.06 156.75 282.798 156.59 282.672 156.337C282.267 155.498 281.773 154.704 281.198 153.967C280.951 153.642 281.014 153.182 281.341 152.934C281.67 152.693 282.136 152.755 282.386 153.075C283.027 153.889 283.575 154.77 284.02 155.701C284.107 155.875 284.119 156.076 284.054 156.259C283.99 156.442 283.853 156.592 283.675 156.676C283.568 156.719 283.453 156.739 283.338 156.733L283.346 156.75ZM279.707 152.166C279.539 152.168 279.375 152.112 279.244 152.009C278.506 151.447 277.703 150.973 276.851 150.596C276.582 150.507 276.388 150.276 276.35 150C276.312 149.724 276.436 149.45 276.67 149.293C276.905 149.136 277.21 149.123 277.458 149.258C278.425 149.682 279.336 150.22 280.17 150.861C280.493 151.114 280.546 151.576 280.288 151.893C280.143 152.063 279.925 152.158 279.699 152.149L279.707 152.166ZM274.315 149.779H274.164C273.228 149.596 272.278 149.491 271.325 149.465C270.943 149.425 270.654 149.11 270.654 148.734C270.654 148.358 270.943 148.043 271.325 148.003C272.363 148.024 273.398 148.138 274.416 148.342C274.809 148.397 275.088 148.745 275.05 149.132C275.011 149.519 274.669 149.807 274.273 149.787L274.315 149.779ZM268.359 149.449H265.368C265.083 149.478 264.806 149.346 264.653 149.108C264.501 148.869 264.501 148.566 264.653 148.328C264.806 148.089 265.083 147.957 265.368 147.987H268.359C268.644 147.957 268.922 148.089 269.074 148.328C269.226 148.566 269.226 148.869 269.074 149.108C268.922 149.346 268.644 149.478 268.359 149.449V149.449Z" fill="#6731CF"/>
<path fill-rule="evenodd" clip-rule="evenodd" d="M255.496 157.983C255.012 157.984 254.529 157.947 254.051 157.872C253.785 157.832 253.56 157.654 253.462 157.403C253.363 157.153 253.405 156.869 253.572 156.658C253.739 156.447 254.006 156.342 254.272 156.381C255.183 156.522 256.112 156.505 257.017 156.33C257.407 156.29 257.763 156.554 257.838 156.939C257.913 157.324 257.683 157.703 257.306 157.812C256.709 157.925 256.103 157.982 255.496 157.983ZM251.313 156.918C251.188 156.92 251.064 156.888 250.956 156.824C249.996 156.301 249.133 155.615 248.406 154.797C248.192 154.602 248.108 154.302 248.189 154.024C248.269 153.746 248.501 153.539 248.786 153.489C249.071 153.44 249.359 153.557 249.528 153.792C250.147 154.474 250.873 155.05 251.679 155.495C251.988 155.657 252.144 156.01 252.057 156.348C251.97 156.686 251.661 156.918 251.313 156.909L251.313 156.918ZM259.967 156.756C259.702 156.757 259.457 156.618 259.321 156.39C259.219 156.217 259.189 156.011 259.238 155.816C259.288 155.621 259.412 155.454 259.585 155.351C260.376 154.878 261.08 154.273 261.668 153.562C261.832 153.332 262.111 153.213 262.391 153.253C262.67 153.294 262.904 153.487 262.997 153.755C263.09 154.022 263.026 154.319 262.832 154.525C262.133 155.369 261.297 156.089 260.358 156.654C260.239 156.721 260.104 156.757 259.967 156.756V156.756ZM247.386 152.498C247.075 152.499 246.796 152.31 246.681 152.021C246.273 151.003 246.043 149.923 246 148.827C245.994 148.626 246.067 148.43 246.204 148.283C246.341 148.136 246.531 148.05 246.732 148.043C246.931 148.034 247.127 148.106 247.274 148.242C247.421 148.378 247.507 148.567 247.514 148.767C247.545 149.691 247.737 150.602 248.083 151.459C248.235 151.845 248.049 152.281 247.667 152.438C247.579 152.478 247.483 152.499 247.386 152.498ZM263.733 152.183C263.646 152.185 263.56 152.171 263.478 152.14C263.291 152.073 263.138 151.933 263.053 151.753C262.969 151.572 262.959 151.365 263.028 151.177C263.337 150.305 263.495 149.386 263.495 148.46C263.495 148.265 263.495 148.06 263.495 147.856C263.466 147.44 263.777 147.078 264.192 147.047C264.393 147.028 264.592 147.092 264.745 147.223C265 147.983 264.989 147.544 265 147.745C265 147.745 265 148.222 265 148.46C265.001 149.558 264.814 150.647 264.447 151.681C264.35 151.994 264.061 152.208 263.733 152.208V152.183ZM247.156 146.57C247.08 146.582 247.003 146.582 246.927 146.57C246.531 146.44 246.314 146.013 246.442 145.616C246.773 144.571 247.282 143.591 247.947 142.72C248.21 142.42 248.659 142.375 248.976 142.618C249.292 142.861 249.366 143.308 249.146 143.64C248.587 144.373 248.158 145.197 247.879 146.076C247.767 146.377 247.477 146.576 247.156 146.57ZM263.47 145.641C263.171 145.642 262.899 145.469 262.773 145.198C262.396 144.355 261.879 143.583 261.242 142.916C261.101 142.775 261.021 142.583 261.021 142.383C261.021 142.183 261.101 141.992 261.242 141.851C261.54 141.559 262.016 141.559 262.314 141.851C263.073 142.641 263.688 143.557 264.133 144.559C264.216 144.741 264.223 144.949 264.153 145.136C264.083 145.323 263.941 145.474 263.759 145.556C263.67 145.606 263.571 145.635 263.47 145.641ZM250.718 141.86C250.386 141.858 250.093 141.639 249.998 141.32C249.902 141.001 250.025 140.657 250.302 140.471C251.222 139.872 252.241 139.439 253.311 139.194C253.505 139.146 253.711 139.178 253.88 139.284C254.05 139.39 254.17 139.56 254.212 139.756C254.258 139.95 254.225 140.155 254.119 140.324C254.014 140.494 253.846 140.614 253.651 140.659C252.744 140.865 251.88 141.231 251.101 141.741C250.985 141.81 250.854 141.851 250.718 141.86V141.86ZM259.355 141.365C259.24 141.365 259.127 141.339 259.024 141.289C258.196 140.881 257.305 140.616 256.388 140.505C256.186 140.484 256.001 140.381 255.876 140.221C255.751 140.06 255.697 139.855 255.725 139.653C255.749 139.452 255.852 139.268 256.012 139.143C256.171 139.018 256.374 138.963 256.575 138.989C257.667 139.113 258.729 139.427 259.712 139.918C260.021 140.078 260.18 140.428 260.1 140.766C260.019 141.104 259.719 141.345 259.372 141.348L259.355 141.365Z" fill="#6731CF"/>
<g filter="url(#filter0_d)">
<path d="M133.696 60.9827L131.276 47.9427H134.296L135.196 54.0427C135.276 54.7227 135.363 55.4093 135.456 56.1027C135.549 56.7827 135.636 57.4693 135.716 58.1627H135.796C135.929 57.4693 136.056 56.7827 136.176 56.1027C136.309 55.4093 136.443 54.7227 136.576 54.0427L137.976 47.9427H140.476L141.876 54.0427C142.009 54.7093 142.136 55.3893 142.256 56.0827C142.389 56.7627 142.523 57.456 142.656 58.1627H142.736C142.829 57.456 142.916 56.7627 142.996 56.0827C143.089 55.4027 143.183 54.7227 143.276 54.0427L144.176 47.9427H146.996L144.676 60.9827H140.976L139.696 55.0627C139.589 54.556 139.489 54.0493 139.396 53.5427C139.316 53.0227 139.243 52.5227 139.176 52.0427H139.096C139.016 52.5227 138.929 53.0227 138.836 53.5427C138.756 54.0493 138.663 54.556 138.556 55.0627L137.336 60.9827H133.696ZM154.106 61.2227C153.226 61.2227 152.419 61.0693 151.686 60.7627C150.966 60.4427 150.346 59.9893 149.826 59.4027C149.306 58.816 148.899 58.1027 148.606 57.2627C148.326 56.4227 148.186 55.4693 148.186 54.4027C148.186 53.336 148.326 52.3893 148.606 51.5627C148.899 50.7227 149.306 50.0227 149.826 49.4627C150.346 48.8893 150.966 48.456 151.686 48.1627C152.419 47.856 153.226 47.7027 154.106 47.7027C154.986 47.7027 155.786 47.856 156.506 48.1627C157.239 48.456 157.866 48.8893 158.386 49.4627C158.906 50.036 159.306 50.7427 159.586 51.5827C159.879 52.4093 160.026 53.3493 160.026 54.4027C160.026 55.4693 159.879 56.4227 159.586 57.2627C159.306 58.1027 158.906 58.816 158.386 59.4027C157.866 59.9893 157.239 60.4427 156.506 60.7627C155.786 61.0693 154.986 61.2227 154.106 61.2227ZM154.106 58.6827C154.999 58.6827 155.706 58.3027 156.226 57.5427C156.746 56.7693 157.006 55.7227 157.006 54.4027C157.006 53.096 156.746 52.076 156.226 51.3427C155.706 50.6093 154.999 50.2427 154.106 50.2427C153.212 50.2427 152.506 50.6093 151.986 51.3427C151.466 52.076 151.206 53.096 151.206 54.4027C151.206 55.7227 151.466 56.7693 151.986 57.5427C152.506 58.3027 153.212 58.6827 154.106 58.6827ZM163.638 60.9827L161.218 47.9427H164.238L165.138 54.0427C165.218 54.7227 165.304 55.4093 165.398 56.1027C165.491 56.7827 165.578 57.4693 165.658 58.1627H165.738C165.871 57.4693 165.998 56.7827 166.118 56.1027C166.251 55.4093 166.384 54.7227 166.518 54.0427L167.918 47.9427H170.418L171.818 54.0427C171.951 54.7093 172.078 55.3893 172.198 56.0827C172.331 56.7627 172.464 57.456 172.598 58.1627H172.678C172.771 57.456 172.858 56.7627 172.938 56.0827C173.031 55.4027 173.124 54.7227 173.218 54.0427L174.118 47.9427H176.938L174.618 60.9827H170.918L169.638 55.0627C169.531 54.556 169.431 54.0493 169.338 53.5427C169.258 53.0227 169.184 52.5227 169.118 52.0427H169.038C168.958 52.5227 168.871 53.0227 168.778 53.5427C168.698 54.0493 168.604 54.556 168.498 55.0627L167.278 60.9827H163.638ZM179.647 56.3627L179.227 50.2427L179.127 47.5827H182.087L181.987 50.2427L181.567 56.3627H179.647ZM180.607 61.2227C180.1 61.2227 179.674 61.0493 179.327 60.7027C178.994 60.3427 178.827 59.9027 178.827 59.3827C178.827 58.8493 178.994 58.4093 179.327 58.0627C179.674 57.7027 180.1 57.5227 180.607 57.5227C181.114 57.5227 181.534 57.7027 181.867 58.0627C182.214 58.4093 182.387 58.8493 182.387 59.3827C182.387 59.9027 182.214 60.3427 181.867 60.7027C181.534 61.0493 181.114 61.2227 180.607 61.2227Z" fill="white"/>
</g>
<defs>
<filter id="filter0_d" x="131.276" y="47.5826" width="53.1109" height="15.64" filterUnits="userSpaceOnUse" color-interpolation-filters="sRGB">
<feFlood flood-opacity="0" result="BackgroundImageFix"/>
<feColorMatrix in="SourceAlpha" type="matrix" values="0 0 0 0 0 0 0 0 0 0 0 0 0 0 0 0 0 0 127 0"/>
<feOffset dx="2" dy="2"/>
<feColorMatrix type="matrix" values="0 0 0 0 0.360784 0 0 0 0 0.113725 0 0 0 0 0.780392 0 0 0 1 0"/>
<feBlend mode="normal" in2="BackgroundImageFix" result="effect1_dropShadow"/>
<feBlend mode="normal" in="SourceGraphic" in2="effect1_dropShadow" result="shape"/>
</filter>
<linearGradient id="paint0_linear" x1="118.001" y1="89.9815" x2="197" y2="89.9815" gradientUnits="userSpaceOnUse">
<stop stop-color="#8033EB"/>
<stop offset="1" stop-color="#6731CE"/>
</linearGradient>
</defs>
</svg>
