<?xml version="1.0" encoding="UTF-8"?>
<svg width="528px" height="360px" viewBox="0 0 528 360" version="1.1" xmlns="http://www.w3.org/2000/svg" xmlns:xlink="http://www.w3.org/1999/xlink">
    <!-- Generator: Sketch 55.2 (78181) - https://sketchapp.com -->
    <title>icon</title>
    <desc>Created with Sketch.</desc>
    <defs>
        <linearGradient x1="87.226269%" y1="100%" x2="12.773731%" y2="0%" id="linearGradient-1">
            <stop stop-color="#4A3DA6" offset="0%"></stop>
            <stop stop-color="#C499FB" offset="100%"></stop>
        </linearGradient>
        <linearGradient x1="85.0984934%" y1="100%" x2="14.9015066%" y2="0%" id="linearGradient-2">
            <stop stop-color="#7D6DF2" offset="0%"></stop>
            <stop stop-color="#C499FB" offset="100%"></stop>
        </linearGradient>
        <rect id="path-3" x="0" y="0" width="157" height="41.9927483"></rect>
        <filter x="-14.0%" y="-50.0%" width="130.6%" height="214.3%" filterUnits="objectBoundingBox" id="filter-4">
            <feOffset dx="2" dy="3" in="SourceAlpha" result="shadowOffsetOuter1"></feOffset>
            <feGaussianBlur stdDeviation="7.5" in="shadowOffsetOuter1" result="shadowBlurOuter1"></feGaussianBlur>
            <feComposite in="shadowBlurOuter1" in2="SourceAlpha" operator="out" result="shadowBlurOuter1"></feComposite>
            <feColorMatrix values="0 0 0 0 0.392156863   0 0 0 0 0.392156863   0 0 0 0 0.392156863  0 0 0 0.239215686 0" type="matrix" in="shadowBlurOuter1"></feColorMatrix>
        </filter>
        <rect id="path-5" x="0" y="0" width="157" height="41.9927483"></rect>
        <filter x="-14.0%" y="-50.0%" width="130.6%" height="214.3%" filterUnits="objectBoundingBox" id="filter-6">
            <feOffset dx="2" dy="3" in="SourceAlpha" result="shadowOffsetOuter1"></feOffset>
            <feGaussianBlur stdDeviation="7.5" in="shadowOffsetOuter1" result="shadowBlurOuter1"></feGaussianBlur>
            <feComposite in="shadowBlurOuter1" in2="SourceAlpha" operator="out" result="shadowBlurOuter1"></feComposite>
            <feColorMatrix values="0 0 0 0 0.392156863   0 0 0 0 0.392156863   0 0 0 0 0.392156863  0 0 0 0.239215686 0" type="matrix" in="shadowBlurOuter1"></feColorMatrix>
        </filter>
        <rect id="path-7" x="0" y="0" width="105" height="30"></rect>
    </defs>
    <g id="Landing-page-Webiny" stroke="none" stroke-width="1" fill="none" fill-rule="evenodd">
        <g id="Desktop-HD" transform="translate(-758.000000, -3947.000000)">
            <g id="Webiny-is-self-hosted" transform="translate(-49.000000, 2661.000000)">
                <g id="3" transform="translate(206.000000, 1284.132812)">
                    <g id="icon" transform="translate(601.444092, 0.000000)">
                        <path d="M72.96077,71.1513213 C71.783095,70.4260038 72.0439192,68.1533566 73.7511596,68.1533566 L127.718857,68.1533566 C127.285005,41.0698333 110.453053,17.0886204 85.4510901,7.93263389 C60.4491345,-1.2233526 32.4993107,6.35829139 15.2645421,26.9713756 C-1.97022696,47.5844593 -4.89012636,76.9235398 7.9321999,100.646579 C20.7545266,124.369619 46.640888,137.521602 72.9370642,133.673338 L72.96077,71.1513213 Z" id="Path" fill="#F6F4F8"></path>
                        <path d="M40.2076645,183.828804 C40.2076645,194.502189 31.5551735,203.154678 20.8817863,203.154678 C10.2083986,203.154678 1.5559082,194.502189 1.5559082,183.828804 C1.5559082,173.155418 10.2083986,164.50293 20.8817863,164.50293 C26.0073275,164.50293 30.9229396,166.539043 34.5472468,170.163347 C38.1715516,173.787652 40.2076645,178.703264 40.2076645,183.828804 L40.2076645,183.828804 Z" id="Path" fill="#F6F4F8"></path>
                        <path d="M527.555908,237.184784 C527.555908,246.874765 521.716182,255.609696 512.761973,259.31341 C503.80776,263.017125 493.504036,260.959551 486.659047,254.100858 C479.814059,247.242165 477.777079,236.934329 481.498668,227.987517 C485.220258,219.040706 493.966823,213.2185 503.656765,213.237793 C510.003489,213.237793 516.089573,215.762327 520.5729,220.254629 C525.056227,224.746931 527.568555,230.83806 527.555908,237.184784 Z" id="Path" fill="#F6F4F8"></path>
                        <path d="M340.666702,25.15555 C346.978733,25.1531395 352.097618,20.0422383 352.100098,13.7400837 C352.102553,7.43789849 346.987645,2.33099556 340.675628,2.33346748 C334.363601,2.33593941 329.244705,7.44680983 329.242249,13.748995 C329.239777,20.0511183 334.354694,25.1580829 340.666702,25.15555 Z" id="Oval" fill="#F6F4F8" transform="translate(340.671173, 13.744509) rotate(-76.720000) translate(-340.671173, -13.744509) "></path>
                        <text id="01010111011001010110" font-family="SourceSansPro-Regular, Source Sans Pro" font-size="12" font-weight="normal" letter-spacing="1.3333334" fill="#D7D7D7">
                            <tspan x="72.8391113" y="73.8671875">01010111011001010110001001100101011100110111010001101</tspan>
                            <tspan x="72.8391113" y="88.8671875">11101101111011011000111001011101100101011000100110010</tspan>
                            <tspan x="72.8391113" y="103.867188">10111001101110100011011110110111101101100011100110101</tspan>
                            <tspan x="72.8391113" y="118.867188">01110110010101100010011001010111001101110100011011110</tspan>
                            <tspan x="72.8391113" y="133.867188">11011110110110001110011010101110110010101100010011001</tspan>
                            <tspan x="72.8391113" y="148.867188">01011100110111010001101111011011110110110001110010111</tspan>
                            <tspan x="72.8391113" y="163.867188">01100101011000100110010101110011011101000110111101101</tspan>
                            <tspan x="72.8391113" y="178.867188">11101101100011100110101011101100101011000100110010101</tspan>
                            <tspan x="72.8391113" y="193.867188">11001101110100011011110110111101101100011100110101011</tspan>
                            <tspan x="72.8391113" y="208.867188">10110010101100010011001010111001101110100011011110110</tspan>
                            <tspan x="72.8391113" y="223.867188">11110110110001110010111011001010110001001100101011100</tspan>
                            <tspan x="72.8391113" y="238.867188">11011101000110111101101111011011000111001101010111011</tspan>
                            <tspan x="72.8391113" y="253.867188">00101011000100110010101110011011101000110111101101111</tspan>
                            <tspan x="72.8391113" y="268.867188">01101100011100110101011101100101011000100110010101110</tspan>
                        </text>
                        <circle id="Ellipse" stroke="#FA5A28" cx="119.555908" cy="159.867188" r="6"></circle>
                        <circle id="Ellipse-Copy" stroke="#FA5A28" cx="367.555908" cy="234.867188" r="6"></circle>
                        <circle id="Ellipse-Copy" stroke="#FA5A28" cx="425.555908" cy="99.8671875" r="6"></circle>
                        <circle id="Ellipse-Copy-2" stroke="#FA5A28" cx="170.555908" cy="218.867188" r="6"></circle>
                        <path id="New-shape" d="M119.555908,291.367188 C117.070627,291.367188 115.055908,289.352469 115.055908,286.867188 C115.055908,284.381906 117.070627,282.367188 119.555908,282.367188 C122.04119,282.367188 124.055908,284.381906 124.055908,286.867188 C124.055908,289.352469 122.04119,291.367188 119.555908,291.367188 Z M119.055908,165.867188 L119.055908,166.867188 C119.055908,167.14333 119.279766,167.367188 119.555908,167.367188 C119.832051,167.367188 120.055908,167.14333 120.055908,166.867188 L120.055908,165.867188 C120.055908,165.591045 119.832051,165.367188 119.555908,165.367188 C119.279766,165.367188 119.055908,165.591045 119.055908,165.867188 Z M119.055908,165.867188 C119.055908,165.591045 119.279766,165.367188 119.555908,165.367188 C119.832051,165.367188 120.055908,165.591045 120.055908,165.867188 L120.055908,169.867188 C120.055908,170.14333 119.832051,170.367188 119.555908,170.367188 C119.279766,170.367188 119.055908,170.14333 119.055908,169.867188 L119.055908,165.867188 Z M119.055908,174.867188 L119.055908,175.867188 C119.055908,176.14333 119.279766,176.367188 119.555908,176.367188 C119.832051,176.367188 120.055908,176.14333 120.055908,175.867188 L120.055908,174.867188 C120.055908,174.591045 119.832051,174.367188 119.555908,174.367188 C119.279766,174.367188 119.055908,174.591045 119.055908,174.867188 Z M119.055908,174.867188 C119.055908,174.591045 119.279766,174.367188 119.555908,174.367188 C119.832051,174.367188 120.055908,174.591045 120.055908,174.867188 L120.055908,178.867188 C120.055908,179.14333 119.832051,179.367188 119.555908,179.367188 C119.279766,179.367188 119.055908,179.14333 119.055908,178.867188 L119.055908,174.867188 Z M119.055908,183.867188 L119.055908,184.867188 C119.055908,185.14333 119.279766,185.367188 119.555908,185.367188 C119.832051,185.367188 120.055908,185.14333 120.055908,184.867188 L120.055908,183.867188 C120.055908,183.591045 119.832051,183.367188 119.555908,183.367188 C119.279766,183.367188 119.055908,183.591045 119.055908,183.867188 Z M119.055908,183.867188 C119.055908,183.591045 119.279766,183.367188 119.555908,183.367188 C119.832051,183.367188 120.055908,183.591045 120.055908,183.867188 L120.055908,187.867188 C120.055908,188.14333 119.832051,188.367188 119.555908,188.367188 C119.279766,188.367188 119.055908,188.14333 119.055908,187.867188 L119.055908,183.867188 Z M119.055908,192.867188 L119.055908,193.867188 C119.055908,194.14333 119.279766,194.367188 119.555908,194.367188 C119.832051,194.367188 120.055908,194.14333 120.055908,193.867188 L120.055908,192.867188 C120.055908,192.591045 119.832051,192.367188 119.555908,192.367188 C119.279766,192.367188 119.055908,192.591045 119.055908,192.867188 Z M119.055908,192.867188 C119.055908,192.591045 119.279766,192.367188 119.555908,192.367188 C119.832051,192.367188 120.055908,192.591045 120.055908,192.867188 L120.055908,196.867188 C120.055908,197.14333 119.832051,197.367188 119.555908,197.367188 C119.279766,197.367188 119.055908,197.14333 119.055908,196.867188 L119.055908,192.867188 Z M119.055908,201.867188 L119.055908,202.867188 C119.055908,203.14333 119.279766,203.367188 119.555908,203.367188 C119.832051,203.367188 120.055908,203.14333 120.055908,202.867188 L120.055908,201.867188 C120.055908,201.591045 119.832051,201.367188 119.555908,201.367188 C119.279766,201.367188 119.055908,201.591045 119.055908,201.867188 Z M119.055908,201.867188 C119.055908,201.591045 119.279766,201.367188 119.555908,201.367188 C119.832051,201.367188 120.055908,201.591045 120.055908,201.867188 L120.055908,205.867188 C120.055908,206.14333 119.832051,206.367188 119.555908,206.367188 C119.279766,206.367188 119.055908,206.14333 119.055908,205.867188 L119.055908,201.867188 Z M119.055908,210.867188 L119.055908,211.867188 C119.055908,212.14333 119.279766,212.367188 119.555908,212.367188 C119.832051,212.367188 120.055908,212.14333 120.055908,211.867188 L120.055908,210.867188 C120.055908,210.591045 119.832051,210.367188 119.555908,210.367188 C119.279766,210.367188 119.055908,210.591045 119.055908,210.867188 Z M119.055908,210.867188 C119.055908,210.591045 119.279766,210.367188 119.555908,210.367188 C119.832051,210.367188 120.055908,210.591045 120.055908,210.867188 L120.055908,214.867188 C120.055908,215.14333 119.832051,215.367188 119.555908,215.367188 C119.279766,215.367188 119.055908,215.14333 119.055908,214.867188 L119.055908,210.867188 Z M119.055908,219.867188 L119.055908,220.867188 C119.055908,221.14333 119.279766,221.367188 119.555908,221.367188 C119.832051,221.367188 120.055908,221.14333 120.055908,220.867188 L120.055908,219.867188 C120.055908,219.591045 119.832051,219.367188 119.555908,219.367188 C119.279766,219.367188 119.055908,219.591045 119.055908,219.867188 Z M119.055908,219.867188 C119.055908,219.591045 119.279766,219.367188 119.555908,219.367188 C119.832051,219.367188 120.055908,219.591045 120.055908,219.867188 L120.055908,223.867188 C120.055908,224.14333 119.832051,224.367188 119.555908,224.367188 C119.279766,224.367188 119.055908,224.14333 119.055908,223.867188 L119.055908,219.867188 Z M119.055908,228.867188 L119.055908,229.867188 C119.055908,230.14333 119.279766,230.367188 119.555908,230.367188 C119.832051,230.367188 120.055908,230.14333 120.055908,229.867188 L120.055908,228.867188 C120.055908,228.591045 119.832051,228.367188 119.555908,228.367188 C119.279766,228.367188 119.055908,228.591045 119.055908,228.867188 Z M119.055908,228.867188 C119.055908,228.591045 119.279766,228.367188 119.555908,228.367188 C119.832051,228.367188 120.055908,228.591045 120.055908,228.867188 L120.055908,232.867188 C120.055908,233.14333 119.832051,233.367188 119.555908,233.367188 C119.279766,233.367188 119.055908,233.14333 119.055908,232.867188 L119.055908,228.867188 Z M119.055908,237.867188 L119.055908,238.867188 C119.055908,239.14333 119.279766,239.367188 119.555908,239.367188 C119.832051,239.367188 120.055908,239.14333 120.055908,238.867188 L120.055908,237.867188 C120.055908,237.591045 119.832051,237.367188 119.555908,237.367188 C119.279766,237.367188 119.055908,237.591045 119.055908,237.867188 Z M119.055908,237.867188 C119.055908,237.591045 119.279766,237.367188 119.555908,237.367188 C119.832051,237.367188 120.055908,237.591045 120.055908,237.867188 L120.055908,241.867188 C120.055908,242.14333 119.832051,242.367188 119.555908,242.367188 C119.279766,242.367188 119.055908,242.14333 119.055908,241.867188 L119.055908,237.867188 Z M119.055908,246.867188 L119.055908,247.867188 C119.055908,248.14333 119.279766,248.367188 119.555908,248.367188 C119.832051,248.367188 120.055908,248.14333 120.055908,247.867188 L120.055908,246.867188 C120.055908,246.591045 119.832051,246.367188 119.555908,246.367188 C119.279766,246.367188 119.055908,246.591045 119.055908,246.867188 Z M119.055908,246.867188 C119.055908,246.591045 119.279766,246.367188 119.555908,246.367188 C119.832051,246.367188 120.055908,246.591045 120.055908,246.867188 L120.055908,250.867188 C120.055908,251.14333 119.832051,251.367188 119.555908,251.367188 C119.279766,251.367188 119.055908,251.14333 119.055908,250.867188 L119.055908,246.867188 Z M119.055908,255.867188 L119.055908,256.867188 C119.055908,257.14333 119.279766,257.367188 119.555908,257.367188 C119.832051,257.367188 120.055908,257.14333 120.055908,256.867188 L120.055908,255.867188 C120.055908,255.591045 119.832051,255.367188 119.555908,255.367188 C119.279766,255.367188 119.055908,255.591045 119.055908,255.867188 Z M119.055908,255.867188 C119.055908,255.591045 119.279766,255.367188 119.555908,255.367188 C119.832051,255.367188 120.055908,255.591045 120.055908,255.867188 L120.055908,259.867188 C120.055908,260.14333 119.832051,260.367188 119.555908,260.367188 C119.279766,260.367188 119.055908,260.14333 119.055908,259.867188 L119.055908,255.867188 Z M119.055908,264.867188 L119.055908,265.867188 C119.055908,266.14333 119.279766,266.367188 119.555908,266.367188 C119.832051,266.367188 120.055908,266.14333 120.055908,265.867188 L120.055908,264.867188 C120.055908,264.591045 119.832051,264.367188 119.555908,264.367188 C119.279766,264.367188 119.055908,264.591045 119.055908,264.867188 Z M119.055908,264.867188 C119.055908,264.591045 119.279766,264.367188 119.555908,264.367188 C119.832051,264.367188 120.055908,264.591045 120.055908,264.867188 L120.055908,268.867188 C120.055908,269.14333 119.832051,269.367188 119.555908,269.367188 C119.279766,269.367188 119.055908,269.14333 119.055908,268.867188 L119.055908,264.867188 Z M119.055908,273.867188 C119.055908,273.591045 119.279766,273.367188 119.555908,273.367188 C119.832051,273.367188 120.055908,273.591045 120.055908,273.867188 L120.055908,274.867188 C120.055908,275.14333 119.832051,275.367188 119.555908,275.367188 C119.279766,275.367188 119.055908,275.14333 119.055908,274.867188 L119.055908,273.867188 Z M119.055908,273.867188 C119.055908,273.591045 119.279766,273.367188 119.555908,273.367188 C119.832051,273.367188 120.055908,273.591045 120.055908,273.867188 L120.055908,277.867188 C120.055908,278.14333 119.832051,278.367188 119.555908,278.367188 C119.279766,278.367188 119.055908,278.14333 119.055908,277.867188 L119.055908,273.867188 Z" fill="#FA5A28" fill-rule="nonzero"></path>
                        <g id="security-(1)" transform="translate(182.452393, 75.135742)">
                            <path d="M143.465777,23.1608631 C143.465777,20.8665119 143.911018,18.6817708 144.696395,16.6691829 C126.195454,4.70821732 102.384372,0 80.4533556,0 C58.5201717,0 34.7098646,4.70821732 16.2096923,16.6691829 C16.9942913,18.6817708 17.4403127,20.8665119 17.4403127,23.1608631 C17.4403127,32.9166511 9.63828314,40.8258132 0,40.8666834 C0.434873787,69.4602938 3.20109829,103.539288 16.779564,129.677548 C31.4372414,157.895274 60.7577035,177.475589 80.4533556,186.480209 C100.148384,177.475589 129.468844,157.895274 144.125746,129.677548 C157.704216,103.539288 160.471214,69.4602938 160.906097,40.8666834 C151.267028,40.8258132 143.465777,32.9166511 143.465777,23.1608631" id="path66" stroke="#FFFFFF" stroke-width="6" fill="url(#linearGradient-1)"></path>
                            <path d="M82.0521004,170.496613 C63.6147809,160.89317 41.8594779,144.040063 30.7741432,122.481836 C19.781542,101.108154 16.817774,72.7876304 15.9842529,50.3135212 C25.8354071,45.3545039 32.6874943,35.0698677 32.9057832,23.1881649 C46.4057586,16.4438274 63.5228186,12.7871094 82.0519429,12.7871094 C100.581225,12.7871094 117.696737,16.4438274 131.196709,23.1881649 C131.415775,35.0698677 138.267863,45.3545039 148.119019,50.3135212 C147.284722,72.7876304 144.322499,101.108154 133.329125,122.481836 C122.244565,144.040063 100.487872,160.89317 82.0521004,170.496613" id="path70" fill="url(#linearGradient-2)"></path>
                        </g>
                        <g id="image" transform="translate(255.056473, 166.366623) scale(-1, 1) translate(-255.056473, -166.366623) translate(201.432037, 112.742188)">
                            <circle id="Ellipse" fill="#FFFFFF" transform="translate(45.125000, 45.125000) scale(-1, 1) translate(-45.125000, -45.125000) " cx="45.125" cy="45.125" r="40"></circle>
                            <path d="M104.631303,91.9936842 L81.9434616,69.3058427 C86.6311815,62.2407468 89.3749966,53.7814015 89.3749966,44.6874983 C89.3749966,20.046812 69.3281846,0 44.6874983,0 C20.046812,0 0,20.046812 0,44.6874983 C0,69.3281846 20.046812,89.3749966 44.6874983,89.3749966 C53.7814015,89.3749966 62.2407468,86.6311815 69.3058363,81.9434616 L91.9936778,104.631303 C95.4793014,108.121395 101.14568,108.121395 104.631297,104.631303 C108.121395,101.141211 108.121395,95.4837762 104.631303,91.9936842 L104.631303,91.9936842 Z M13.40625,44.6874924 C13.40625,27.4381239 27.4381239,13.40625 44.6874924,13.40625 C61.9368664,13.40625 75.9687347,27.4381239 75.9687347,44.6874924 C75.9687347,61.9368664 61.9368664,75.9687347 44.6874924,75.9687347 C27.4381192,75.9687347 13.40625,61.9368664 13.40625,44.6874924 L13.40625,44.6874924 Z" id="XMLID_223_" fill="#6A55BC"></path>
                        </g>
                        <path d="M277.509849,147.490789 C275.793946,152.266147 274.065788,157.053589 272.338073,161.846244 L271.78972,161.846244 C270.067737,157.041941 268.339977,152.242853 266.617994,147.450195 L261.245779,147.450195 C259.500129,152.295482 257.772416,157.094135 256.044704,161.898876 L255.543187,161.898876 C253.791857,157.047545 252.040529,152.196605 250.347793,147.514083 L243.931885,147.514083 C247.05165,156.326261 250.094442,164.917441 253.137183,173.508621 L258.432772,173.508621 L263.675444,158.972708 L264.206257,158.972708 C265.957587,163.847332 267.703238,168.727612 269.419141,173.496924 L274.726586,173.496924 C277.781138,164.870806 280.823927,156.274021 283.931885,147.490789 L277.509849,147.490789 L277.509849,147.490789 Z" id="path-1-path" fill="#FA5A28"></path>
                        <path id="New-shape-2" d="M418.417479,282.44218 C418.401681,282.393903 418.39303,282.34238 418.392781,282.288852 L418.374174,278.288896 C418.372889,278.012756 418.595703,277.78786 418.871843,277.786575 C419.147982,277.785291 419.372879,278.008104 419.374163,278.284244 L419.39277,282.284201 C419.393019,282.337728 419.384848,282.38933 419.3695,282.437751 C421.632092,282.664997 423.403445,284.56963 423.414258,286.894106 C423.425819,289.379361 421.420494,291.403429 418.93524,291.41499 C416.449985,291.426551 414.425916,289.421227 414.414355,286.935972 C414.403542,284.611496 416.157099,282.690465 418.417479,282.44218 Z M368.055908,228.867188 L368.055908,227.867188 C368.055908,227.591045 367.832051,227.367188 367.555908,227.367188 C367.279766,227.367188 367.055908,227.591045 367.055908,227.867188 L367.055908,228.867188 C367.055908,229.14333 367.279766,229.367188 367.555908,229.367188 C367.832051,229.367188 368.055908,229.14333 368.055908,228.867188 Z M368.055908,228.867188 C368.055908,229.14333 367.832051,229.367188 367.555908,229.367188 C367.279766,229.367188 367.055908,229.14333 367.055908,228.867188 L367.055908,224.867188 C367.055908,224.591045 367.279766,224.367188 367.555908,224.367188 C367.832051,224.367188 368.055908,224.591045 368.055908,224.867188 L368.055908,228.867188 Z M368.055908,219.867188 L368.055908,218.867188 C368.055908,218.591045 367.832051,218.367188 367.555908,218.367188 C367.279766,218.367188 367.055908,218.591045 367.055908,218.867188 L367.055908,219.867188 C367.055908,220.14333 367.279766,220.367188 367.555908,220.367188 C367.832051,220.367188 368.055908,220.14333 368.055908,219.867188 Z M368.055908,219.867188 C368.055908,220.14333 367.832051,220.367188 367.555908,220.367188 C367.279766,220.367188 367.055908,220.14333 367.055908,219.867188 L367.055908,215.867188 C367.055908,215.591045 367.279766,215.367188 367.555908,215.367188 C367.832051,215.367188 368.055908,215.591045 368.055908,215.867188 L368.055908,219.867188 Z M368.055908,210.867188 L368.055908,209.867188 C368.055908,209.591045 367.832051,209.367188 367.555908,209.367188 C367.279766,209.367188 367.055908,209.591045 367.055908,209.867188 L367.055908,210.867188 C367.055908,211.14333 367.279766,211.367188 367.555908,211.367188 C367.832051,211.367188 368.055908,211.14333 368.055908,210.867188 Z M368.055908,210.867188 C368.055908,211.14333 367.832051,211.367188 367.555908,211.367188 C367.279766,211.367188 367.055908,211.14333 367.055908,210.867188 L367.055908,206.867188 C367.055908,206.591045 367.279766,206.367188 367.555908,206.367188 C367.832051,206.367188 368.055908,206.591045 368.055908,206.867188 L368.055908,210.867188 Z M368.055908,201.867188 L368.055908,200.867188 C368.055908,200.591045 367.832051,200.367188 367.555908,200.367188 C367.279766,200.367188 367.055908,200.591045 367.055908,200.867188 L367.055908,201.867188 C367.055908,202.14333 367.279766,202.367188 367.555908,202.367188 C367.832051,202.367188 368.055908,202.14333 368.055908,201.867188 Z M368.055908,201.867188 C368.055908,202.14333 367.832051,202.367188 367.555908,202.367188 C367.279766,202.367188 367.055908,202.14333 367.055908,201.867188 L367.055908,197.867188 C367.055908,197.591045 367.279766,197.367188 367.555908,197.367188 C367.832051,197.367188 368.055908,197.591045 368.055908,197.867188 L368.055908,201.867188 Z M368.055908,192.867188 L368.055908,191.867188 C368.055908,191.591045 367.832051,191.367188 367.555908,191.367188 C367.279766,191.367188 367.055908,191.591045 367.055908,191.867188 L367.055908,192.867188 C367.055908,193.14333 367.279766,193.367188 367.555908,193.367188 C367.832051,193.367188 368.055908,193.14333 368.055908,192.867188 Z M368.055908,189.370392 L368.055908,192.867188 C368.055908,193.14333 367.832051,193.367188 367.555908,193.367188 C367.279766,193.367188 367.055908,193.14333 367.055908,192.867188 L367.055908,188.867188 C367.055908,188.589797 367.281717,188.365426 367.559102,188.367198 L368.559082,188.373586 C368.835219,188.37535 369.057642,188.600633 369.055878,188.87677 C369.054114,189.152907 368.82883,189.37533 368.552694,189.373566 L368.055908,189.370392 Z M372.552612,189.399119 L373.552592,189.405507 C373.828728,189.407271 374.054011,189.184848 374.055776,188.908711 C374.05754,188.632575 373.835117,188.407292 373.55898,188.405527 L372.559,188.399139 C372.282864,188.397375 372.05758,188.619798 372.055816,188.895935 C372.054052,189.172072 372.276475,189.397355 372.552612,189.399119 Z M372.552612,189.399119 C372.276475,189.397355 372.054052,189.172072 372.055816,188.895935 C372.05758,188.619798 372.282864,188.397375 372.559,188.399139 L376.558919,188.424692 C376.835055,188.426456 377.057478,188.65174 377.055714,188.927876 C377.05395,189.204013 376.828667,189.426436 376.55253,189.424672 L372.552612,189.399119 Z M381.552428,189.456613 L382.552408,189.463002 C382.828545,189.464766 383.053828,189.242343 383.055592,188.966206 C383.057356,188.690069 382.834933,188.464786 382.558796,188.463022 L381.558817,188.456634 C381.28268,188.45487 381.057397,188.677293 381.055633,188.95343 C381.053869,189.229566 381.276292,189.454849 381.552428,189.456613 Z M381.552428,189.456613 C381.276292,189.454849 381.053869,189.229566 381.055633,188.95343 C381.057397,188.677293 381.28268,188.45487 381.558817,188.456634 L385.558735,188.482187 C385.834872,188.483951 386.057295,188.709234 386.055531,188.985371 C386.053767,189.261508 385.828483,189.483931 385.552347,189.482167 L381.552428,189.456613 Z M390.552245,189.514108 L391.552224,189.520496 C391.828361,189.522261 392.053644,189.299838 392.055408,189.023701 C392.057172,188.747564 391.834749,188.522281 391.558613,188.520517 L390.558633,188.514129 C390.282496,188.512364 390.057213,188.734787 390.055449,189.010924 C390.053685,189.287061 390.276108,189.512344 390.552245,189.514108 Z M390.552245,189.514108 C390.276108,189.512344 390.053685,189.287061 390.055449,189.010924 C390.057213,188.734787 390.282496,188.512364 390.558633,188.514129 L394.558551,188.539682 C394.834688,188.541446 395.057111,188.766729 395.055347,189.042866 C395.053583,189.319002 394.8283,189.541425 394.552163,189.539661 L390.552245,189.514108 Z M399.552061,189.571603 L400.552041,189.577991 C400.828177,189.579755 401.053461,189.357332 401.055225,189.081195 C401.056989,188.805059 400.834566,188.579776 400.558429,188.578011 L399.558449,188.571623 C399.282313,188.569859 399.05703,188.792282 399.055265,189.068419 C399.053501,189.344556 399.275924,189.569839 399.552061,189.571603 Z M399.552061,189.571603 C399.275924,189.569839 399.053501,189.344556 399.055265,189.068419 C399.05703,188.792282 399.282313,188.569859 399.558449,188.571623 L403.558368,188.597176 C403.834504,188.59894 404.056927,188.824224 404.055163,189.10036 C404.053399,189.376497 403.828116,189.59892 403.551979,189.597156 L399.552061,189.571603 Z M408.551877,189.629097 L409.551857,189.635486 C409.827994,189.63725 410.053277,189.414827 410.055041,189.13869 C410.056805,188.862553 409.834382,188.63727 409.558245,188.635506 L408.558266,188.629118 C408.282129,188.627354 408.056846,188.849777 408.055082,189.125914 C408.053318,189.40205 408.275741,189.627333 408.551877,189.629097 Z M408.551877,189.629097 C408.275741,189.627333 408.053318,189.40205 408.055082,189.125914 C408.056846,188.849777 408.282129,188.627354 408.558266,188.629118 L412.558184,188.654671 C412.834321,188.656435 413.056744,188.881718 413.05498,189.157855 C413.053216,189.433992 412.827933,189.656415 412.551796,189.654651 L408.551877,189.629097 Z M417.551694,189.686592 C417.275557,189.684828 417.053134,189.459545 417.054898,189.183408 C417.056662,188.907271 417.281945,188.684848 417.558082,188.686613 L418.558062,188.693001 C418.834198,188.694765 419.056621,188.920048 419.054857,189.196185 C419.053093,189.472322 418.82781,189.694745 418.551673,189.69298 L417.551694,189.686592 Z M417.962024,189.689214 L417.959724,189.194709 L418.456524,189.692373 L417.962024,189.689214 Z M417.962024,189.689214 L417.551694,189.686592 C417.275557,189.684828 417.053134,189.459545 417.054898,189.183408 C417.056662,188.907271 417.281945,188.684848 417.558082,188.686613 L418.462913,188.692393 C418.736896,188.694143 418.958439,188.916071 418.959713,189.190057 L418.974111,192.285174 C418.975396,192.561314 418.752582,192.78621 418.476442,192.787495 C418.200303,192.788779 417.975406,192.565965 417.974122,192.289826 L417.962024,189.689214 Z M417.997381,197.289772 L418.002033,198.289761 C418.003317,198.565901 418.228214,198.788714 418.504353,198.78743 C418.780492,198.786145 419.003306,198.561249 419.002022,198.285109 L418.99737,197.28512 C418.996085,197.008981 418.771189,196.786167 418.495049,196.787452 C418.21891,196.788736 417.996096,197.013633 417.997381,197.289772 Z M417.997381,197.289772 C417.996096,197.013633 418.21891,196.788736 418.495049,196.787452 C418.771189,196.786167 418.996085,197.008981 418.99737,197.28512 L419.015977,201.285077 C419.017262,201.561216 418.794448,201.786113 418.518308,201.787397 C418.242169,201.788682 418.017272,201.565868 418.015988,201.289729 L417.997381,197.289772 Z M418.039247,206.289675 L418.043898,207.289664 C418.045183,207.565803 418.27008,207.788617 418.546219,207.787332 C418.822358,207.786048 419.045172,207.561151 419.043888,207.285012 L419.039236,206.285023 C419.037951,206.008883 418.813055,205.78607 418.536915,205.787354 C418.260776,205.788639 418.037962,206.013535 418.039247,206.289675 Z M418.039247,206.289675 C418.037962,206.013535 418.260776,205.788639 418.536915,205.787354 C418.813055,205.78607 419.037951,206.008883 419.039236,206.285023 L419.057843,210.28498 C419.059127,210.561119 418.836314,210.786015 418.560174,210.7873 C418.284035,210.788585 418.059138,210.565771 418.057854,210.289631 L418.039247,206.289675 Z M418.081113,215.289577 L418.085764,216.289566 C418.087049,216.565706 418.311945,216.78852 418.588085,216.787235 C418.864224,216.785951 419.087038,216.561054 419.085754,216.284915 L419.081102,215.284925 C419.079817,215.008786 418.854921,214.785972 418.578781,214.787257 C418.302642,214.788541 418.079828,215.013438 418.081113,215.289577 Z M418.081113,215.289577 C418.079828,215.013438 418.302642,214.788541 418.578781,214.787257 C418.854921,214.785972 419.079817,215.008786 419.081102,215.284925 L419.099709,219.284882 C419.100993,219.561022 418.87818,219.785918 418.60204,219.787203 C418.325901,219.788487 418.101004,219.565673 418.09972,219.289534 L418.081113,215.289577 Z M418.122978,224.28948 L418.12763,225.289469 C418.128915,225.565608 418.353811,225.788422 418.629951,225.787138 C418.90609,225.785853 419.128904,225.560957 419.127619,225.284817 L419.122968,224.284828 C419.121683,224.008689 418.896787,223.785875 418.620647,223.787159 C418.344508,223.788444 418.121694,224.01334 418.122978,224.28948 Z M418.122978,224.28948 C418.121694,224.01334 418.344508,223.788444 418.620647,223.787159 C418.896787,223.785875 419.121683,224.008689 419.122968,224.284828 L419.141575,228.284785 C419.142859,228.560924 418.920045,228.785821 418.643906,228.787105 C418.367767,228.78839 418.14287,228.565576 418.141586,228.289437 L418.122978,224.28948 Z M418.164844,233.289382 L418.169496,234.289372 C418.170781,234.565511 418.395677,234.788325 418.671817,234.78704 C418.947956,234.785756 419.17077,234.560859 419.169485,234.28472 L419.164834,233.284731 C419.163549,233.008591 418.938652,232.785777 418.662513,232.787062 C418.386374,232.788347 418.16356,233.013243 418.164844,233.289382 Z M418.164844,233.289382 C418.16356,233.013243 418.386374,232.788347 418.662513,232.787062 C418.938652,232.785777 419.163549,233.008591 419.164834,233.284731 L419.183441,237.284687 C419.184725,237.560827 418.961911,237.785723 418.685772,237.787008 C418.409633,237.788292 418.184736,237.565479 418.183451,237.289339 L418.164844,233.289382 Z M418.20671,242.289285 L418.211362,243.289274 C418.212647,243.565414 418.437543,243.788228 418.713683,243.786943 C418.989822,243.785658 419.212636,243.560762 419.211351,243.284623 L419.2067,242.284633 C419.205415,242.008494 418.980518,241.78568 418.704379,241.786965 C418.42824,241.788249 418.205426,242.013146 418.20671,242.289285 Z M418.20671,242.289285 C418.205426,242.013146 418.42824,241.788249 418.704379,241.786965 C418.980518,241.78568 419.205415,242.008494 419.2067,242.284633 L419.225307,246.28459 C419.226591,246.560729 419.003777,246.785626 418.727638,246.786911 C418.451498,246.788195 418.226602,246.565381 418.225317,246.289242 L418.20671,242.289285 Z M418.248576,251.289188 L418.253228,252.289177 C418.254513,252.565316 418.479409,252.78813 418.755548,252.786846 C419.031688,252.785561 419.254502,252.560665 419.253217,252.284525 L419.248565,251.284536 C419.247281,251.008397 419.022384,250.785583 418.746245,250.786867 C418.470106,250.788152 418.247292,251.013048 418.248576,251.289188 Z M418.248576,251.289188 C418.247292,251.013048 418.470106,250.788152 418.746245,250.786867 C419.022384,250.785583 419.247281,251.008397 419.248565,251.284536 L419.267172,255.284493 C419.268457,255.560632 419.045643,255.785529 418.769504,255.786813 C418.493364,255.788098 418.268468,255.565284 418.267183,255.289144 L418.248576,251.289188 Z M418.290442,260.28909 L418.295094,261.28908 C418.296378,261.565219 418.521275,261.788033 418.797414,261.786748 C419.073554,261.785464 419.296368,261.560567 419.295083,261.284428 L419.290431,260.284439 C419.289147,260.008299 419.06425,259.785485 418.788111,259.78677 C418.511971,259.788054 418.289158,260.012951 418.290442,260.28909 Z M418.290442,260.28909 C418.289158,260.012951 418.511971,259.788054 418.788111,259.78677 C419.06425,259.785485 419.289147,260.008299 419.290431,260.284439 L419.309038,264.284395 C419.310323,264.560535 419.087509,264.785431 418.81137,264.786716 C418.53523,264.788 418.310334,264.565186 418.309049,264.289047 L418.290442,260.28909 Z M418.332308,269.288993 L418.33696,270.288982 C418.338244,270.565122 418.563141,270.787935 418.83928,270.786651 C419.11542,270.785366 419.338234,270.56047 419.336949,270.28433 L419.332297,269.284341 C419.331013,269.008202 419.106116,268.785388 418.829977,268.786672 C418.553837,268.787957 418.331024,269.012854 418.332308,269.288993 Z M418.332308,269.288993 C418.331024,269.012854 418.553837,268.787957 418.829977,268.786672 C419.106116,268.785388 419.331013,269.008202 419.332297,269.284341 L419.350904,273.284298 C419.352189,273.560437 419.129375,273.785334 418.853236,273.786618 C418.577096,273.787903 418.3522,273.565089 418.350915,273.28895 L418.332308,269.288993 Z M418.374174,278.288896 L418.378826,279.288885 C418.38011,279.565024 418.605007,279.787838 418.881146,279.786553 C419.157286,279.785269 419.380099,279.560372 419.378815,279.284233 L419.374163,278.284244 C419.372879,278.008104 419.147982,277.785291 418.871843,277.786575 C418.595703,277.78786 418.372889,278.012756 418.374174,278.288896 Z" fill="#FA5A28" fill-rule="nonzero"></path>
                        <g id="git-security-lab" transform="translate(76.555908, 301.818359)">
                            <g id="Rectangle">
                                <use fill="black" fill-opacity="1" filter="url(#filter-4)" xlink:href="#path-3"></use>
                                <use fill="#FFFFFF" fill-rule="evenodd" xlink:href="#path-3"></use>
                            </g>
                            <path d="M46.8638779,27.168 C45.6738779,27.168 44.4138779,26.72 43.4898779,25.852 L44.6658779,24.438 C45.3238779,24.998 46.1638779,25.39 46.9198779,25.39 C47.7738779,25.39 48.1938779,25.054 48.1938779,24.508 C48.1938779,23.934 47.6758779,23.752 46.8778779,23.416 L45.6878779,22.912 C44.7498779,22.534 43.8538779,21.75 43.8538779,20.42 C43.8538779,18.908 45.1978779,17.704 47.1018779,17.704 C48.1518779,17.704 49.2578779,18.124 50.0418779,18.908 L48.9918779,20.21 C48.3898779,19.748 47.8298779,19.482 47.1018779,19.482 C46.3878779,19.482 45.9398779,19.79 45.9398779,20.308 C45.9398779,20.868 46.5418779,21.064 47.3258779,21.386 L48.5018779,21.862 C49.6078779,22.31 50.3078779,23.052 50.3078779,24.34 C50.3078779,25.852 49.0478779,27.168 46.8638779,27.168 Z M52.6118779,27 L52.6118779,17.872 L58.3238779,17.872 L58.3238779,19.608 L54.6698779,19.608 L54.6698779,21.442 L57.7778779,21.442 L57.7778779,23.164 L54.6698779,23.164 L54.6698779,25.264 L58.4638779,25.264 L58.4638779,27 L52.6118779,27 Z M64.8418779,27.168 C62.5318779,27.168 60.5998779,25.558 60.5998779,22.492 C60.5998779,19.468 62.6018779,17.704 64.9118779,17.704 C66.0878779,17.704 67.0398779,18.264 67.6558779,18.894 L66.5638779,20.21 C66.1018779,19.79 65.6118779,19.482 64.9538779,19.482 C63.7078779,19.482 62.7138779,20.588 62.7138779,22.422 C62.7138779,24.298 63.5818779,25.39 64.9258779,25.39 C65.6678779,25.39 66.2558779,25.012 66.7038779,24.536 L67.7958779,25.824 C67.0398779,26.706 66.0318779,27.168 64.8418779,27.168 Z M73.2778779,27.168 C70.9118779,27.168 69.6238779,25.838 69.6238779,22.772 L69.6238779,17.872 L71.6958779,17.872 L71.6958779,22.982 C71.6958779,24.774 72.2558779,25.39 73.2778779,25.39 C74.2998779,25.39 74.8878779,24.774 74.8878779,22.982 L74.8878779,17.872 L76.8758779,17.872 L76.8758779,22.772 C76.8758779,25.838 75.6298779,27.168 73.2778779,27.168 Z M79.7398779,27 L79.7398779,17.872 L83.0298779,17.872 C84.9618779,17.872 86.5438779,18.544 86.5438779,20.714 C86.5438779,22.058 85.8998779,22.912 84.9198779,23.346 L86.9918779,27 L84.6818779,27 L82.9318779,23.71 L81.7978779,23.71 L81.7978779,27 L79.7398779,27 Z M81.7978779,22.072 L82.8618779,22.072 C83.9398779,22.072 84.5278779,21.61 84.5278779,20.714 C84.5278779,19.818 83.9398779,19.51 82.8618779,19.51 L81.7978779,19.51 L81.7978779,22.072 Z M89.0718779,27 L89.0718779,17.872 L91.1298779,17.872 L91.1298779,27 L89.0718779,27 Z M95.8138779,27 L95.8138779,19.608 L93.3078779,19.608 L93.3078779,17.872 L100.391878,17.872 L100.391878,19.608 L97.8858779,19.608 L97.8858779,27 L95.8138779,27 Z M103.885878,27 L103.885878,23.752 L101.127878,17.872 L103.339878,17.872 L104.151878,19.972 C104.403878,20.658 104.641878,21.288 104.893878,21.988 L104.949878,21.988 C105.215878,21.288 105.467878,20.658 105.719878,19.972 L106.545878,17.872 L108.701878,17.872 L105.943878,23.752 L105.943878,27 L103.885878,27 Z M113.967878,27 L113.967878,17.872 L116.025878,17.872 L116.025878,25.264 L119.637878,25.264 L119.637878,27 L113.967878,27 Z M124.027878,22.38 L123.803878,23.22 L125.749878,23.22 L125.539878,22.38 C125.287878,21.47 125.035878,20.392 124.797878,19.44 L124.741878,19.44 C124.517878,20.406 124.279878,21.47 124.027878,22.38 Z M120.723878,27 L123.579878,17.872 L126.057878,17.872 L128.913878,27 L126.729878,27 L126.169878,24.83 L123.383878,24.83 L122.823878,27 L120.723878,27 Z M130.657878,27 L130.657878,17.872 L133.779878,17.872 C135.669878,17.872 137.139878,18.39 137.139878,20.14 C137.139878,20.952 136.691878,21.834 135.949878,22.114 L135.949878,22.17 C136.873878,22.408 137.587878,23.094 137.587878,24.312 C137.587878,26.174 136.019878,27 134.045878,27 L130.657878,27 Z M132.715878,21.526 L133.681878,21.526 C134.689878,21.526 135.123878,21.106 135.123878,20.448 C135.123878,19.734 134.661878,19.468 133.695878,19.468 L132.715878,19.468 L132.715878,21.526 Z M132.715878,25.404 L133.877878,25.404 C134.997878,25.404 135.571878,25.012 135.571878,24.172 C135.571878,23.374 135.011878,23.052 133.877878,23.052 L132.715878,23.052 L132.715878,25.404 Z" id="SECURITYLAB" fill="#000E1A" fill-rule="nonzero"></path>
                            <g id="GitHub-Mark" transform="translate(12.718994, 10.833984)" fill="#191717">
                                <path d="M10.3073523,0 C4.61617575,0 0,4.61617721 0,10.3073532 C0,14.8602937 2.97205878,18.7176484 7.01911771,20.1088225 C7.52499981,20.1720564 7.71470644,19.8558805 7.71470644,19.602941 C7.71470644,19.349999 7.71470644,18.717646 7.71470644,17.8323534 C4.86911803,18.4647064 4.23676526,16.4411757 4.23676526,16.4411757 C3.79411819,15.239706 3.09852977,14.9235289 3.09852977,14.9235289 C2.1500003,14.2911758 3.16176511,14.2911758 3.16176511,14.2911758 C4.17353023,14.3544122 4.74264766,15.3661764 4.74264766,15.3661764 C5.69117682,16.9470596 7.14558901,16.5044121 7.71470644,16.2514702 C7.77794178,15.5558819 8.09411848,15.1132356 8.34705922,14.8602937 C6.07058824,14.607353 3.66764782,13.7220592 3.66764782,9.7382341 C3.66764782,8.59999957 4.04705985,7.71470458 4.74264766,6.95588176 C4.61617698,6.70294042 4.3000006,5.62793987 4.86911803,4.2367634 C4.86911803,4.2367634 5.75441216,3.98382236 7.71470644,5.31176335 C8.53676462,5.05882201 9.42205937,4.99558682 10.3073535,4.99558682 C11.192647,4.99558682 12.0779418,5.12205719 12.9000006,5.31176335 C14.8602954,3.98382176 15.745589,4.2367634 15.745589,4.2367634 C16.3147064,5.62793987 15.9352944,6.70294042 15.8720596,6.95588176 C16.504413,7.65146999 16.947061,8.59999957 16.947061,9.7382341 C16.947061,13.7220592 14.5441194,14.5441178 12.2676484,14.7970585 C12.6470604,15.1132344 12.9632377,15.7455875 12.9632377,16.6941177 C12.9632377,18.0852941 12.9632377,19.1602935 12.9632377,19.5397046 C12.9632377,19.7926465 13.1529431,20.1088225 13.6588259,20.0455861 C17.7691198,18.6544096 20.6779442,14.7970573 20.6779442,10.2441156 C20.6147045,4.61617661 15.9985291,0 10.3073523,0 L10.3073523,0 Z" id="Shape"></path>
                            </g>
                        </g>
                        <g id="Dependabot" transform="translate(304.555908, 301.818359)">
                            <g id="Rectangle">
                                <use fill="black" fill-opacity="1" filter="url(#filter-6)" xlink:href="#path-5"></use>
                                <use fill="#FFFFFF" fill-rule="evenodd" xlink:href="#path-5"></use>
                            </g>
                            <g id="logo" transform="translate(25.000000, 6.048828)">
                                <mask id="mask-8" fill="white">
                                    <use xlink:href="#path-7"></use>
                                </mask>
                                <g id="Background"></g>
                                <path d="M1.0828126,8.03981784 L12.748438,0.392317914 C13.5463944,-0.130772466 14.5786056,-0.130772759 15.3765628,0.392317774 L27.0421889,8.03981784 C27.7179614,8.48281042 28.125,9.23647626 28.125,10.0445057 L28.125,19.955131 C28.125,20.7628654 27.7179865,21.5164204 27.0423414,21.959404 L15.3765628,29.607005 C14.5786056,30.1300937 13.5463944,30.1300937 12.748438,29.607005 L1.0828126,21.9595042 C0.407133999,21.5165706 0,20.763046 0,19.9551292 L0,10.0445057 C0,9.23717273 0.406587133,8.48338798 1.08223027,8.04019871 L1.0828126,8.03981784 Z" id="Shape" fill="#0366D6" mask="url(#mask-8)"></path>
                                <path d="M35.639062,19.5806255 C38.4615614,19.5806255 40.1353121,17.8337492 40.1353121,14.9375 C40.1353121,12.0503128 38.4615614,10.3125 35.7025005,10.3125 L32.5,10.3125 L32.5,19.5806255 L35.639062,19.5806255 L35.639062,19.5806255 Z M34.1782227,18.1279507 L34.1782227,11.7651367 L35.6075969,11.7651367 C37.4891605,11.7651367 38.4707227,12.815137 38.4707227,14.9373248 C38.4707227,17.0688871 37.4891605,18.1279507 35.5579104,18.1279507 L34.1782227,18.1279507 L34.1782227,18.1279507 Z M44.5668764,19.7165623 C46.1862536,19.7165623 47.2990629,18.9246868 47.588441,17.7165615 L46.0593767,17.5443747 C45.8378145,18.1324994 45.295002,18.4403121 44.5893785,18.4403121 C43.530943,18.4403121 42.8300019,17.7434375 42.8162547,16.5531241 L47.6562519,16.5531241 L47.6562519,16.0509373 C47.6562519,13.6115622 46.1906264,12.5390625 44.4809409,12.5390625 C42.4906274,12.5390625 41.1925049,14.000938 41.1925049,16.1459375 C41.1925049,18.3271874 42.4725028,19.7165623 44.5668814,19.7165623 L44.5668764,19.7165623 Z M42.8209229,15.4491796 C42.8706093,14.5619921 43.5265465,13.8154297 44.5034236,13.8154297 C45.4443616,13.8154297 46.0774869,14.5032422 46.0865469,15.4491796 L42.8209229,15.4491796 L42.8209229,15.4491796 Z M48.9100342,22.1875 L50.5475359,22.1875 L50.5475359,18.485625 L50.6153468,18.485625 C50.8731585,18.9925005 51.4112833,19.7028123 52.6056602,19.7028123 C54.2428475,19.7028123 55.4687862,18.4040621 55.4687862,16.1143756 C55.4687862,13.7971879 54.206913,12.5390625 52.600973,12.5390625 C51.3753491,12.5390625 50.8640984,13.2765627 50.6153468,13.7790621 L50.5203466,13.7790621 L50.5203466,12.6296866 L48.9100342,12.6296866 L48.9100342,22.1875 L48.9100342,22.1875 Z M50.515625,16.1051756 C50.515625,14.7564253 51.0946865,13.8833008 52.1487493,13.8833008 C53.2387514,13.8833008 53.7996883,14.8108002 53.7996883,16.1051756 C53.7996883,17.4082998 53.2296867,18.3589249 52.1487493,18.3589249 C51.1037511,18.3589249 50.515625,17.4536125 50.515625,16.1051756 L50.515625,16.1051756 Z M59.9368669,19.7165625 C61.5562441,19.7165625 62.6690534,18.924687 62.9584315,17.7165617 L61.429682,17.544375 C61.207805,18.1324997 60.6649925,18.4403124 59.959369,18.4403124 C58.9009333,18.4403124 58.1999922,17.7434377 58.186245,16.5531244 L63.026247,16.5531244 L63.026247,16.0509375 C63.026247,13.6115625 61.5606216,12.5390627 59.8509361,12.5390627 C57.8606225,12.5390627 56.5625,14.0009382 56.5625,16.1459377 C56.5625,18.3271877 57.8424979,19.7165625 59.9368766,19.7165625 L59.9368669,19.7165625 Z M58.190918,15.4491796 C58.2406044,14.5619921 58.8965418,13.8154297 59.8734192,13.8154297 C60.8143575,13.8154297 61.4477928,14.5032422 61.456543,15.4491796 L58.190918,15.4491796 L58.190918,15.4491796 Z M65.7318571,15.5078126 C65.7318571,14.503125 66.3381077,13.92375 67.2018552,13.92375 C68.0477926,13.92375 68.5543557,14.4806254 68.5543557,15.408125 L68.5543557,19.5806255 L70.1918716,19.5806255 L70.1918716,15.1546872 C70.1962344,13.4893751 69.2465468,12.5390625 67.8124831,12.5390625 C66.7721724,12.5390625 66.0574844,13.0368745 65.7409218,13.8109374 L65.6593588,13.8109374 L65.6593588,12.6296878 L64.0943604,12.6296878 L64.0943604,19.5806255 L65.7318618,19.5806255 L65.7318618,15.5078126 L65.7318571,15.5078126 Z M74.1221533,19.703126 C75.3162151,19.703126 75.8546549,18.9924997 76.1124663,18.4856246 L76.2118389,18.4856246 L76.2118389,19.5806251 L77.8221512,19.5806251 L77.8221512,10.3125 L76.1802771,10.3125 L76.1802771,13.7790631 L76.1124663,13.7790631 C75.8637145,13.2765625 75.3524641,12.5390636 74.1265306,12.5390636 C72.5209061,12.5390636 71.2590332,13.797189 71.2590332,16.1140628 C71.2590332,18.4040626 72.4846569,19.703126 74.122158,19.703126 L74.1221533,19.703126 Z M74.5791612,18.3589249 C73.4979094,18.3589249 72.9282227,17.4082998 72.9282227,16.1051756 C72.9282227,14.8108014 73.4891594,13.8833008 74.5791612,13.8833008 C75.632909,13.8833008 76.2119751,14.7564253 76.2119751,16.1051756 C76.2119751,17.4536125 75.6241638,18.3589249 74.5791612,18.3589249 L74.5791612,18.3589249 Z M81.0974058,19.7212505 C82.1877227,19.7212505 82.8389679,19.2096877 83.1374012,18.6259379 L83.1917799,18.6259379 L83.1917799,19.5806254 L84.7658386,19.5806254 L84.7658386,14.9284374 C84.7658386,13.0909372 83.2686555,12.5390625 81.9433341,12.5390625 C80.4824003,12.5390625 79.3605214,13.1906248 78.9986449,14.4578124 L80.5277093,14.6749998 C80.6905206,14.1999996 81.1517749,13.7924994 81.9523939,13.7924994 C82.7123965,13.7924994 83.1286465,14.1818739 83.1286465,14.8653114 L83.1286465,14.8924996 C83.1286465,15.3631246 82.6355205,15.3856242 81.4095817,15.5168748 C80.0617726,15.6615628 78.7727051,16.0643744 78.7727051,17.6303125 C78.7727051,18.9968756 79.7720796,19.7209372 81.0973964,19.7209372 L81.0974058,19.7212505 Z M81.5228778,18.517128 C80.8397519,18.517128 80.3513184,18.2049405 80.3513184,17.603066 C80.3513184,16.9740035 80.8988224,16.7115034 81.6313201,16.6074409 C82.0613221,16.548691 82.9206964,16.4399411 83.133194,16.2680664 L83.133194,17.0871282 C83.133194,17.8611911 82.5088239,18.517128 81.5228778,18.517128 L81.5228778,18.517128 Z M85.9411621,19.5806255 L87.5514893,19.5806255 L87.5514893,18.4856247 L87.6464848,18.4856247 C87.9043013,18.9925002 88.4424216,19.7028122 89.6367943,19.7028122 C91.2739863,19.7028122 92.4999161,18.404062 92.4999161,16.1143755 C92.4999161,13.7971878 91.2380424,12.5390626 89.632102,12.5390626 C88.4064777,12.5390626 87.8952222,13.2765628 87.6464752,13.779062 L87.5786595,13.779062 L87.5786595,10.3125 L85.9411621,10.3125 L85.9411621,19.5806255 L85.9411621,19.5806255 Z M87.546875,16.1051756 C87.546875,14.7564253 88.1259369,13.8833008 89.180005,13.8833008 C90.2700077,13.8833008 90.8309402,14.8108002 90.8309402,16.1051756 C90.8309402,17.4082998 90.2609382,18.3589249 89.180005,18.3589249 C88.1350063,18.3589249 87.546875,17.4536125 87.546875,16.1051756 L87.546875,16.1051756 Z M96.8412838,19.7165632 C98.8769113,19.7165632 100.170341,18.2821879 100.170341,16.1321877 C100.170341,13.9781248 98.8769017,12.5390625 96.8412743,12.5390625 C94.8059616,12.5390625 93.512207,13.9781248 93.512207,16.1321877 C93.512207,18.2821879 94.8059616,19.7165632 96.8412743,19.7165632 L96.8412838,19.7165632 Z M96.8502427,18.4041405 C95.7239914,18.4041405 95.1721191,17.399453 95.1721191,16.1278906 C95.1721191,14.8560155 95.7239914,13.8378906 96.8502427,13.8378906 C97.9583645,13.8378906 98.5102463,14.8563278 98.5102463,16.1278906 C98.5102463,17.3997654 97.958374,18.4041405 96.8502427,18.4041405 L96.8502427,18.4041405 Z M104.619066,12.6294926 L103.248445,12.6294926 L103.248445,10.9638672 L101.610947,10.9638672 L101.610947,12.6294926 L100.625,12.6294926 L100.625,13.8963679 L101.610938,13.8963679 L101.610938,17.7613676 C101.602183,19.0691804 102.551871,19.7116807 103.782188,19.6757425 C104.248125,19.6619927 104.56938,19.5716797 104.745628,19.5126178 L104.469692,18.2319926 C104.312975,18.2720722 104.152052,18.2933677 103.990318,18.2954311 C103.57876,18.2954301 103.248445,18.1504297 103.248445,17.4898055 L103.248445,13.8963679 L104.619066,13.8963679 L104.619066,12.6294926 L104.619066,12.6294926 Z" id="Shape" fill="#24292E" mask="url(#mask-8)"></path>
                                <path d="M15.0000004,10.3125 L15.0000004,9.375 L13.4374999,9.375 C13.2649113,9.375 13.125,9.23508883 13.125,9.0625 L13.125,6.87500001 C13.125,6.70241117 13.2649113,6.5625 13.4374999,6.5625 L15.625,6.5625 C15.7975892,6.5625 15.9374999,6.70241117 15.9374999,6.87500001 L15.9374999,10.3125 L20.625,10.3125 C21.1427664,10.3125 21.5625006,10.7322335 21.5625006,11.25 L21.5625006,15 L22.1875002,15 C22.3600893,15 22.5,15.1399112 22.5,15.3125006 L22.5,18.4375003 C22.5,18.6100888 22.3600893,18.75 22.1875002,18.75 L21.5625006,18.75 L21.5625006,20.625 C21.5625006,21.1427665 21.1427664,21.5625 20.625,21.5625 L7.50000001,21.5625 C6.98223288,21.5625 6.56250001,21.1427665 6.56250001,20.625 L6.56250001,18.75 L5.9375,18.75 C5.76491118,18.75 5.625,18.6100888 5.625,18.4375003 L5.625,15.3125006 C5.625,15.1399112 5.76491118,15 5.9375,15 L6.56250001,15 L6.56250001,11.25 C6.56250001,10.7322335 6.98223288,10.3125 7.50000001,10.3125 L15.0000004,10.3125 L15.0000004,10.3125 Z" id="Shape" fill="#FFFFFF" mask="url(#mask-8)"></path>
                                <path d="M16.6071942,17.7010508 C16.754854,17.8486773 16.9942215,17.8486773 17.1418812,17.7010508 L19.1075066,15.7360514 C19.1784955,15.6651278 19.2183819,15.5688973 19.2183819,15.4685505 C19.2183819,15.3682037 19.1784955,15.271972 19.1075066,15.2010496 L18.7043812,14.7985513 C18.5567571,14.6511335 18.3176306,14.6511335 18.1700065,14.7985513 L16.8746938,16.0935517 L16.3606313,15.5798013 C16.2130072,15.4323836 15.9738805,15.4323836 15.8262565,15.5798013 L15.4231312,15.9823008 C15.3521421,16.0532232 15.3122559,16.1494537 15.3122559,16.2498005 C15.3122559,16.3501474 15.3521421,16.446379 15.4231312,16.5173014 L16.6075065,17.7010521 L16.6071942,17.7010508 Z M10.3571942,17.7010508 C10.504854,17.8486773 10.7442215,17.8486773 10.8918812,17.7010508 L12.8575066,15.7360514 C12.9284955,15.6651278 12.9683819,15.5688973 12.9683819,15.4685505 C12.9683819,15.3682037 12.9284955,15.271972 12.8575066,15.2010496 L12.4543812,14.7985513 C12.3067571,14.6511335 12.0676306,14.6511335 11.9200065,14.7985513 L10.6246938,16.0935517 L10.1106313,15.5798013 C9.96300724,15.4323836 9.72388053,15.4323836 9.5762565,15.5798013 L9.17313123,15.9823008 C9.1021421,16.0532232 9.06225586,16.1494537 9.06225586,16.2498005 C9.06225586,16.3501474 9.1021421,16.446379 9.17313123,16.5173014 L10.3575065,17.7010521 L10.3571942,17.7010508 Z" id="Shape" fill="#0366D6" mask="url(#mask-8)"></path>
                            </g>
                        </g>
                        <path id="New-shape-3" d="M170.055908,282.394652 L170.055908,278.867188 C170.055908,278.591045 170.279766,278.367188 170.555908,278.367188 C170.832051,278.367188 171.055908,278.591045 171.055908,278.867188 L171.055908,282.394652 C173.305883,282.643374 175.055908,284.550911 175.055908,286.867188 C175.055908,289.352469 173.04119,291.367188 170.555908,291.367188 C168.070627,291.367188 166.055908,289.352469 166.055908,286.867188 C166.055908,284.550911 167.805933,282.643374 170.055908,282.394652 Z M170.055908,224.867188 L170.055908,225.867188 C170.055908,226.14333 170.279766,226.367188 170.555908,226.367188 C170.832051,226.367188 171.055908,226.14333 171.055908,225.867188 L171.055908,224.867188 C171.055908,224.591045 170.832051,224.367188 170.555908,224.367188 C170.279766,224.367188 170.055908,224.591045 170.055908,224.867188 Z M170.055908,224.867188 C170.055908,224.591045 170.279766,224.367188 170.555908,224.367188 C170.832051,224.367188 171.055908,224.591045 171.055908,224.867188 L171.055908,228.867188 C171.055908,229.14333 170.832051,229.367188 170.555908,229.367188 C170.279766,229.367188 170.055908,229.14333 170.055908,228.867188 L170.055908,224.867188 Z M170.055908,233.867188 L170.055908,234.867188 C170.055908,235.14333 170.279766,235.367188 170.555908,235.367188 C170.832051,235.367188 171.055908,235.14333 171.055908,234.867188 L171.055908,233.867188 C171.055908,233.591045 170.832051,233.367188 170.555908,233.367188 C170.279766,233.367188 170.055908,233.591045 170.055908,233.867188 Z M170.055908,233.867188 C170.055908,233.591045 170.279766,233.367188 170.555908,233.367188 C170.832051,233.367188 171.055908,233.591045 171.055908,233.867188 L171.055908,237.867188 C171.055908,238.14333 170.832051,238.367188 170.555908,238.367188 C170.279766,238.367188 170.055908,238.14333 170.055908,237.867188 L170.055908,233.867188 Z M170.055908,242.867188 L170.055908,243.867188 C170.055908,244.14333 170.279766,244.367188 170.555908,244.367188 C170.832051,244.367188 171.055908,244.14333 171.055908,243.867188 L171.055908,242.867188 C171.055908,242.591045 170.832051,242.367188 170.555908,242.367188 C170.279766,242.367188 170.055908,242.591045 170.055908,242.867188 Z M170.055908,242.867188 C170.055908,242.591045 170.279766,242.367188 170.555908,242.367188 C170.832051,242.367188 171.055908,242.591045 171.055908,242.867188 L171.055908,246.867188 C171.055908,247.14333 170.832051,247.367188 170.555908,247.367188 C170.279766,247.367188 170.055908,247.14333 170.055908,246.867188 L170.055908,242.867188 Z M170.055908,251.867188 L170.055908,252.867188 C170.055908,253.14333 170.279766,253.367188 170.555908,253.367188 C170.832051,253.367188 171.055908,253.14333 171.055908,252.867188 L171.055908,251.867188 C171.055908,251.591045 170.832051,251.367188 170.555908,251.367188 C170.279766,251.367188 170.055908,251.591045 170.055908,251.867188 Z M170.055908,251.867188 C170.055908,251.591045 170.279766,251.367188 170.555908,251.367188 C170.832051,251.367188 171.055908,251.591045 171.055908,251.867188 L171.055908,255.867188 C171.055908,256.14333 170.832051,256.367188 170.555908,256.367188 C170.279766,256.367188 170.055908,256.14333 170.055908,255.867188 L170.055908,251.867188 Z M170.055908,260.867188 L170.055908,261.867188 C170.055908,262.14333 170.279766,262.367188 170.555908,262.367188 C170.832051,262.367188 171.055908,262.14333 171.055908,261.867188 L171.055908,260.867188 C171.055908,260.591045 170.832051,260.367188 170.555908,260.367188 C170.279766,260.367188 170.055908,260.591045 170.055908,260.867188 Z M170.055908,260.867188 C170.055908,260.591045 170.279766,260.367188 170.555908,260.367188 C170.832051,260.367188 171.055908,260.591045 171.055908,260.867188 L171.055908,264.867188 C171.055908,265.14333 170.832051,265.367188 170.555908,265.367188 C170.279766,265.367188 170.055908,265.14333 170.055908,264.867188 L170.055908,260.867188 Z M170.055908,269.867188 L170.055908,270.867188 C170.055908,271.14333 170.279766,271.367188 170.555908,271.367188 C170.832051,271.367188 171.055908,271.14333 171.055908,270.867188 L171.055908,269.867188 C171.055908,269.591045 170.832051,269.367188 170.555908,269.367188 C170.279766,269.367188 170.055908,269.591045 170.055908,269.867188 Z M170.055908,269.867188 C170.055908,269.591045 170.279766,269.367188 170.555908,269.367188 C170.832051,269.367188 171.055908,269.591045 171.055908,269.867188 L171.055908,273.867188 C171.055908,274.14333 170.832051,274.367188 170.555908,274.367188 C170.279766,274.367188 170.055908,274.14333 170.055908,273.867188 L170.055908,269.867188 Z M170.055908,278.867188 L170.055908,279.867188 C170.055908,280.14333 170.279766,280.367188 170.555908,280.367188 C170.832051,280.367188 171.055908,280.14333 171.055908,279.867188 L171.055908,278.867188 C171.055908,278.591045 170.832051,278.367188 170.555908,278.367188 C170.279766,278.367188 170.055908,278.591045 170.055908,278.867188 Z" fill="#FA5A28" fill-rule="nonzero"></path>
                        <path id="New-shape-4" d="M382.555908,292.367188 C380.070627,292.367188 378.055908,290.352469 378.055908,287.867188 C378.055908,285.381906 380.070627,283.367188 382.555908,283.367188 C385.04119,283.367188 387.055908,285.381906 387.055908,287.867188 C387.055908,290.352469 385.04119,292.367188 382.555908,292.367188 Z M419.555908,99.3671875 L418.555908,99.3671875 C418.279766,99.3671875 418.055908,99.5910451 418.055908,99.8671875 C418.055908,100.14333 418.279766,100.367188 418.555908,100.367188 L419.555908,100.367188 C419.832051,100.367188 420.055908,100.14333 420.055908,99.8671875 C420.055908,99.5910451 419.832051,99.3671875 419.555908,99.3671875 Z M419.555908,99.3671875 C419.832051,99.3671875 420.055908,99.5910451 420.055908,99.8671875 C420.055908,100.14333 419.832051,100.367188 419.555908,100.367188 L415.555908,100.367188 C415.279766,100.367188 415.055908,100.14333 415.055908,99.8671875 C415.055908,99.5910451 415.279766,99.3671875 415.555908,99.3671875 L419.555908,99.3671875 Z M410.555908,99.3671875 L409.555908,99.3671875 C409.279766,99.3671875 409.055908,99.5910451 409.055908,99.8671875 C409.055908,100.14333 409.279766,100.367188 409.555908,100.367188 L410.555908,100.367188 C410.832051,100.367188 411.055908,100.14333 411.055908,99.8671875 C411.055908,99.5910451 410.832051,99.3671875 410.555908,99.3671875 Z M410.555908,99.3671875 C410.832051,99.3671875 411.055908,99.5910451 411.055908,99.8671875 C411.055908,100.14333 410.832051,100.367188 410.555908,100.367188 L406.555908,100.367188 C406.279766,100.367188 406.055908,100.14333 406.055908,99.8671875 C406.055908,99.5910451 406.279766,99.3671875 406.555908,99.3671875 L410.555908,99.3671875 Z M401.555908,99.3671875 L400.555908,99.3671875 C400.279766,99.3671875 400.055908,99.5910451 400.055908,99.8671875 C400.055908,100.14333 400.279766,100.367188 400.555908,100.367188 L401.555908,100.367188 C401.832051,100.367188 402.055908,100.14333 402.055908,99.8671875 C402.055908,99.5910451 401.832051,99.3671875 401.555908,99.3671875 Z M401.555908,99.3671875 C401.832051,99.3671875 402.055908,99.5910451 402.055908,99.8671875 C402.055908,100.14333 401.832051,100.367188 401.555908,100.367188 L397.555908,100.367188 C397.279766,100.367188 397.055908,100.14333 397.055908,99.8671875 C397.055908,99.5910451 397.279766,99.3671875 397.555908,99.3671875 L401.555908,99.3671875 Z M392.555908,99.3671875 L391.555908,99.3671875 C391.279766,99.3671875 391.055908,99.5910451 391.055908,99.8671875 C391.055908,100.14333 391.279766,100.367188 391.555908,100.367188 L392.555908,100.367188 C392.832051,100.367188 393.055908,100.14333 393.055908,99.8671875 C393.055908,99.5910451 392.832051,99.3671875 392.555908,99.3671875 Z M392.555908,99.3671875 C392.832051,99.3671875 393.055908,99.5910451 393.055908,99.8671875 C393.055908,100.14333 392.832051,100.367188 392.555908,100.367188 L388.555908,100.367188 C388.279766,100.367188 388.055908,100.14333 388.055908,99.8671875 C388.055908,99.5910451 388.279766,99.3671875 388.555908,99.3671875 L392.555908,99.3671875 Z M383.555908,99.3671875 C383.832051,99.3671875 384.055908,99.5910451 384.055908,99.8671875 C384.055908,100.14333 383.832051,100.367188 383.555908,100.367188 L382.555908,100.367188 C382.279766,100.367188 382.055908,100.14333 382.055908,99.8671875 C382.055908,99.5910451 382.279766,99.3671875 382.555908,99.3671875 L383.555908,99.3671875 Z M383.055908,100.367188 L382.555908,100.367188 L383.055908,99.8671875 L383.055908,100.367188 Z M383.055908,100.367188 L383.055908,102.867188 C383.055908,103.14333 382.832051,103.367188 382.555908,103.367188 C382.279766,103.367188 382.055908,103.14333 382.055908,102.867188 L382.055908,99.8671875 C382.055908,99.5910451 382.279766,99.3671875 382.555908,99.3671875 L383.555908,99.3671875 C383.832051,99.3671875 384.055908,99.5910451 384.055908,99.8671875 C384.055908,100.14333 383.832051,100.367188 383.555908,100.367188 L383.055908,100.367188 Z M382.055908,107.867188 L382.055908,108.867188 C382.055908,109.14333 382.279766,109.367188 382.555908,109.367188 C382.832051,109.367188 383.055908,109.14333 383.055908,108.867188 L383.055908,107.867188 C383.055908,107.591045 382.832051,107.367188 382.555908,107.367188 C382.279766,107.367188 382.055908,107.591045 382.055908,107.867188 Z M382.055908,107.867188 C382.055908,107.591045 382.279766,107.367188 382.555908,107.367188 C382.832051,107.367188 383.055908,107.591045 383.055908,107.867188 L383.055908,111.867188 C383.055908,112.14333 382.832051,112.367188 382.555908,112.367188 C382.279766,112.367188 382.055908,112.14333 382.055908,111.867188 L382.055908,107.867188 Z M382.055908,116.867188 L382.055908,117.867188 C382.055908,118.14333 382.279766,118.367188 382.555908,118.367188 C382.832051,118.367188 383.055908,118.14333 383.055908,117.867188 L383.055908,116.867188 C383.055908,116.591045 382.832051,116.367188 382.555908,116.367188 C382.279766,116.367188 382.055908,116.591045 382.055908,116.867188 Z M382.055908,116.867188 C382.055908,116.591045 382.279766,116.367188 382.555908,116.367188 C382.832051,116.367188 383.055908,116.591045 383.055908,116.867188 L383.055908,120.867188 C383.055908,121.14333 382.832051,121.367188 382.555908,121.367188 C382.279766,121.367188 382.055908,121.14333 382.055908,120.867188 L382.055908,116.867188 Z M382.055908,125.867188 L382.055908,126.867188 C382.055908,127.14333 382.279766,127.367188 382.555908,127.367188 C382.832051,127.367188 383.055908,127.14333 383.055908,126.867188 L383.055908,125.867188 C383.055908,125.591045 382.832051,125.367188 382.555908,125.367188 C382.279766,125.367188 382.055908,125.591045 382.055908,125.867188 Z M382.055908,125.867188 C382.055908,125.591045 382.279766,125.367188 382.555908,125.367188 C382.832051,125.367188 383.055908,125.591045 383.055908,125.867188 L383.055908,129.867188 C383.055908,130.14333 382.832051,130.367188 382.555908,130.367188 C382.279766,130.367188 382.055908,130.14333 382.055908,129.867188 L382.055908,125.867188 Z M382.055908,134.867188 L382.055908,135.867188 C382.055908,136.14333 382.279766,136.367188 382.555908,136.367188 C382.832051,136.367188 383.055908,136.14333 383.055908,135.867188 L383.055908,134.867188 C383.055908,134.591045 382.832051,134.367188 382.555908,134.367188 C382.279766,134.367188 382.055908,134.591045 382.055908,134.867188 Z M382.055908,134.867188 C382.055908,134.591045 382.279766,134.367188 382.555908,134.367188 C382.832051,134.367188 383.055908,134.591045 383.055908,134.867188 L383.055908,138.867188 C383.055908,139.14333 382.832051,139.367188 382.555908,139.367188 C382.279766,139.367188 382.055908,139.14333 382.055908,138.867188 L382.055908,134.867188 Z M382.055908,143.867188 L382.055908,144.867188 C382.055908,145.14333 382.279766,145.367188 382.555908,145.367188 C382.832051,145.367188 383.055908,145.14333 383.055908,144.867188 L383.055908,143.867188 C383.055908,143.591045 382.832051,143.367188 382.555908,143.367188 C382.279766,143.367188 382.055908,143.591045 382.055908,143.867188 Z M382.055908,143.867188 C382.055908,143.591045 382.279766,143.367188 382.555908,143.367188 C382.832051,143.367188 383.055908,143.591045 383.055908,143.867188 L383.055908,147.867188 C383.055908,148.14333 382.832051,148.367188 382.555908,148.367188 C382.279766,148.367188 382.055908,148.14333 382.055908,147.867188 L382.055908,143.867188 Z M382.055908,152.867188 L382.055908,153.867188 C382.055908,154.14333 382.279766,154.367188 382.555908,154.367188 C382.832051,154.367188 383.055908,154.14333 383.055908,153.867188 L383.055908,152.867188 C383.055908,152.591045 382.832051,152.367188 382.555908,152.367188 C382.279766,152.367188 382.055908,152.591045 382.055908,152.867188 Z M382.055908,152.867188 C382.055908,152.591045 382.279766,152.367188 382.555908,152.367188 C382.832051,152.367188 383.055908,152.591045 383.055908,152.867188 L383.055908,156.867188 C383.055908,157.14333 382.832051,157.367188 382.555908,157.367188 C382.279766,157.367188 382.055908,157.14333 382.055908,156.867188 L382.055908,152.867188 Z M382.055908,161.867188 L382.055908,162.867188 C382.055908,163.14333 382.279766,163.367188 382.555908,163.367188 C382.832051,163.367188 383.055908,163.14333 383.055908,162.867188 L383.055908,161.867188 C383.055908,161.591045 382.832051,161.367188 382.555908,161.367188 C382.279766,161.367188 382.055908,161.591045 382.055908,161.867188 Z M382.055908,161.867188 C382.055908,161.591045 382.279766,161.367188 382.555908,161.367188 C382.832051,161.367188 383.055908,161.591045 383.055908,161.867188 L383.055908,165.867188 C383.055908,166.14333 382.832051,166.367188 382.555908,166.367188 C382.279766,166.367188 382.055908,166.14333 382.055908,165.867188 L382.055908,161.867188 Z M382.055908,170.867188 L382.055908,171.867188 C382.055908,172.14333 382.279766,172.367188 382.555908,172.367188 C382.832051,172.367188 383.055908,172.14333 383.055908,171.867188 L383.055908,170.867188 C383.055908,170.591045 382.832051,170.367188 382.555908,170.367188 C382.279766,170.367188 382.055908,170.591045 382.055908,170.867188 Z M382.055908,170.867188 C382.055908,170.591045 382.279766,170.367188 382.555908,170.367188 C382.832051,170.367188 383.055908,170.591045 383.055908,170.867188 L383.055908,174.867188 C383.055908,175.14333 382.832051,175.367188 382.555908,175.367188 C382.279766,175.367188 382.055908,175.14333 382.055908,174.867188 L382.055908,170.867188 Z M382.055908,179.867188 L382.055908,180.867188 C382.055908,181.14333 382.279766,181.367188 382.555908,181.367188 C382.832051,181.367188 383.055908,181.14333 383.055908,180.867188 L383.055908,179.867188 C383.055908,179.591045 382.832051,179.367188 382.555908,179.367188 C382.279766,179.367188 382.055908,179.591045 382.055908,179.867188 Z M382.055908,179.867188 C382.055908,179.591045 382.279766,179.367188 382.555908,179.367188 C382.832051,179.367188 383.055908,179.591045 383.055908,179.867188 L383.055908,183.867188 C383.055908,184.14333 382.832051,184.367188 382.555908,184.367188 C382.279766,184.367188 382.055908,184.14333 382.055908,183.867188 L382.055908,179.867188 Z M382.055908,188.867188 L382.055908,189.867188 C382.055908,190.14333 382.279766,190.367188 382.555908,190.367188 C382.832051,190.367188 383.055908,190.14333 383.055908,189.867188 L383.055908,188.867188 C383.055908,188.591045 382.832051,188.367188 382.555908,188.367188 C382.279766,188.367188 382.055908,188.591045 382.055908,188.867188 Z M382.055908,188.867188 C382.055908,188.591045 382.279766,188.367188 382.555908,188.367188 C382.832051,188.367188 383.055908,188.591045 383.055908,188.867188 L383.055908,192.867188 C383.055908,193.14333 382.832051,193.367188 382.555908,193.367188 C382.279766,193.367188 382.055908,193.14333 382.055908,192.867188 L382.055908,188.867188 Z M382.055908,197.867188 L382.055908,198.867188 C382.055908,199.14333 382.279766,199.367188 382.555908,199.367188 C382.832051,199.367188 383.055908,199.14333 383.055908,198.867188 L383.055908,197.867188 C383.055908,197.591045 382.832051,197.367188 382.555908,197.367188 C382.279766,197.367188 382.055908,197.591045 382.055908,197.867188 Z M382.055908,197.867188 C382.055908,197.591045 382.279766,197.367188 382.555908,197.367188 C382.832051,197.367188 383.055908,197.591045 383.055908,197.867188 L383.055908,201.867188 C383.055908,202.14333 382.832051,202.367188 382.555908,202.367188 C382.279766,202.367188 382.055908,202.14333 382.055908,201.867188 L382.055908,197.867188 Z M382.055908,206.867188 L382.055908,207.867188 C382.055908,208.14333 382.279766,208.367188 382.555908,208.367188 C382.832051,208.367188 383.055908,208.14333 383.055908,207.867188 L383.055908,206.867188 C383.055908,206.591045 382.832051,206.367188 382.555908,206.367188 C382.279766,206.367188 382.055908,206.591045 382.055908,206.867188 Z M382.055908,206.867188 C382.055908,206.591045 382.279766,206.367188 382.555908,206.367188 C382.832051,206.367188 383.055908,206.591045 383.055908,206.867188 L383.055908,210.867188 C383.055908,211.14333 382.832051,211.367188 382.555908,211.367188 C382.279766,211.367188 382.055908,211.14333 382.055908,210.867188 L382.055908,206.867188 Z M382.055908,215.867188 L382.055908,216.867188 C382.055908,217.14333 382.279766,217.367188 382.555908,217.367188 C382.832051,217.367188 383.055908,217.14333 383.055908,216.867188 L383.055908,215.867188 C383.055908,215.591045 382.832051,215.367188 382.555908,215.367188 C382.279766,215.367188 382.055908,215.591045 382.055908,215.867188 Z M382.055908,215.867188 C382.055908,215.591045 382.279766,215.367188 382.555908,215.367188 C382.832051,215.367188 383.055908,215.591045 383.055908,215.867188 L383.055908,219.867188 C383.055908,220.14333 382.832051,220.367188 382.555908,220.367188 C382.279766,220.367188 382.055908,220.14333 382.055908,219.867188 L382.055908,215.867188 Z M382.055908,224.867188 L382.055908,225.867188 C382.055908,226.14333 382.279766,226.367188 382.555908,226.367188 C382.832051,226.367188 383.055908,226.14333 383.055908,225.867188 L383.055908,224.867188 C383.055908,224.591045 382.832051,224.367188 382.555908,224.367188 C382.279766,224.367188 382.055908,224.591045 382.055908,224.867188 Z M382.055908,224.867188 C382.055908,224.591045 382.279766,224.367188 382.555908,224.367188 C382.832051,224.367188 383.055908,224.591045 383.055908,224.867188 L383.055908,228.867188 C383.055908,229.14333 382.832051,229.367188 382.555908,229.367188 C382.279766,229.367188 382.055908,229.14333 382.055908,228.867188 L382.055908,224.867188 Z M382.055908,233.867188 L382.055908,234.867188 C382.055908,235.14333 382.279766,235.367188 382.555908,235.367188 C382.832051,235.367188 383.055908,235.14333 383.055908,234.867188 L383.055908,233.867188 C383.055908,233.591045 382.832051,233.367188 382.555908,233.367188 C382.279766,233.367188 382.055908,233.591045 382.055908,233.867188 Z M382.055908,233.867188 C382.055908,233.591045 382.279766,233.367188 382.555908,233.367188 C382.832051,233.367188 383.055908,233.591045 383.055908,233.867188 L383.055908,237.867188 C383.055908,238.14333 382.832051,238.367188 382.555908,238.367188 C382.279766,238.367188 382.055908,238.14333 382.055908,237.867188 L382.055908,233.867188 Z M382.055908,242.867188 L382.055908,243.867188 C382.055908,244.14333 382.279766,244.367188 382.555908,244.367188 C382.832051,244.367188 383.055908,244.14333 383.055908,243.867188 L383.055908,242.867188 C383.055908,242.591045 382.832051,242.367188 382.555908,242.367188 C382.279766,242.367188 382.055908,242.591045 382.055908,242.867188 Z M382.055908,242.867188 C382.055908,242.591045 382.279766,242.367188 382.555908,242.367188 C382.832051,242.367188 383.055908,242.591045 383.055908,242.867188 L383.055908,246.867188 C383.055908,247.14333 382.832051,247.367188 382.555908,247.367188 C382.279766,247.367188 382.055908,247.14333 382.055908,246.867188 L382.055908,242.867188 Z M382.055908,251.867188 L382.055908,252.867188 C382.055908,253.14333 382.279766,253.367188 382.555908,253.367188 C382.832051,253.367188 383.055908,253.14333 383.055908,252.867188 L383.055908,251.867188 C383.055908,251.591045 382.832051,251.367188 382.555908,251.367188 C382.279766,251.367188 382.055908,251.591045 382.055908,251.867188 Z M382.055908,251.867188 C382.055908,251.591045 382.279766,251.367188 382.555908,251.367188 C382.832051,251.367188 383.055908,251.591045 383.055908,251.867188 L383.055908,255.867188 C383.055908,256.14333 382.832051,256.367188 382.555908,256.367188 C382.279766,256.367188 382.055908,256.14333 382.055908,255.867188 L382.055908,251.867188 Z M382.055908,260.867188 L382.055908,261.867188 C382.055908,262.14333 382.279766,262.367188 382.555908,262.367188 C382.832051,262.367188 383.055908,262.14333 383.055908,261.867188 L383.055908,260.867188 C383.055908,260.591045 382.832051,260.367188 382.555908,260.367188 C382.279766,260.367188 382.055908,260.591045 382.055908,260.867188 Z M382.055908,260.867188 C382.055908,260.591045 382.279766,260.367188 382.555908,260.367188 C382.832051,260.367188 383.055908,260.591045 383.055908,260.867188 L383.055908,264.867188 C383.055908,265.14333 382.832051,265.367188 382.555908,265.367188 C382.279766,265.367188 382.055908,265.14333 382.055908,264.867188 L382.055908,260.867188 Z M382.055908,269.867188 L382.055908,270.867188 C382.055908,271.14333 382.279766,271.367188 382.555908,271.367188 C382.832051,271.367188 383.055908,271.14333 383.055908,270.867188 L383.055908,269.867188 C383.055908,269.591045 382.832051,269.367188 382.555908,269.367188 C382.279766,269.367188 382.055908,269.591045 382.055908,269.867188 Z M382.055908,269.867188 C382.055908,269.591045 382.279766,269.367188 382.555908,269.367188 C382.832051,269.367188 383.055908,269.591045 383.055908,269.867188 L383.055908,273.867188 C383.055908,274.14333 382.832051,274.367188 382.555908,274.367188 C382.279766,274.367188 382.055908,274.14333 382.055908,273.867188 L382.055908,269.867188 Z M382.055908,278.867188 C382.055908,278.591045 382.279766,278.367188 382.555908,278.367188 C382.832051,278.367188 383.055908,278.591045 383.055908,278.867188 L383.055908,279.867188 C383.055908,280.14333 382.832051,280.367188 382.555908,280.367188 C382.279766,280.367188 382.055908,280.14333 382.055908,279.867188 L382.055908,278.867188 Z M382.055908,278.867188 C382.055908,278.591045 382.279766,278.367188 382.555908,278.367188 C382.832051,278.367188 383.055908,278.591045 383.055908,278.867188 L383.055908,282.867188 C383.055908,283.14333 382.832051,283.367188 382.555908,283.367188 C382.279766,283.367188 382.055908,283.14333 382.055908,282.867188 L382.055908,278.867188 Z" fill="#FA5A28" fill-rule="nonzero"></path>
                    </g>
                </g>
            </g>
        </g>
    </g>
</svg>