<svg width="580" height="428" viewBox="0 0 580 428" fill="none" xmlns="http://www.w3.org/2000/svg">
<path fill-rule="evenodd" clip-rule="evenodd" d="M89.3619 194.003C88.466 192.949 89.4164 190.868 91.04 191.396L142.366 208.073C150.323 182.181 141.725 154.172 120.777 137.738C99.8276 121.304 70.9029 119.878 48.1419 134.156C25.3809 148.435 13.5376 175.435 18.4015 201.96C23.2655 228.484 43.8207 248.992 70.019 253.458L89.3619 194.003Z" fill="white"/>
<path fill-rule="evenodd" clip-rule="evenodd" d="M66.6518 287.962C66.6518 298.635 57.9993 307.287 47.3259 307.287C36.6525 307.287 28 298.635 28 287.962C28 277.288 36.6525 268.636 47.3259 268.636C52.4514 268.636 57.367 270.672 60.9913 274.296C64.6156 277.92 66.6518 282.836 66.6518 287.962Z" fill="white"/>
<path fill-rule="evenodd" clip-rule="evenodd" d="M540 277.317C540 287.007 534.16 295.742 525.206 299.446C516.252 303.149 505.948 301.092 499.103 294.233C492.258 287.374 490.221 277.067 493.943 268.12C497.664 259.173 506.411 253.351 516.101 253.37C522.448 253.37 528.534 255.895 533.017 260.387C537.5 264.879 540.013 270.97 540 277.317Z" fill="white"/>
<ellipse cx="363.147" cy="13.879" rx="11.43" ry="11.4121" transform="rotate(-76.72 363.147 13.879)" fill="white"/>
<path d="M260.626 383.547C260.626 383.547 211.015 383.547 173.383 357.297C135.751 331.047 118.367 261.186 118.367 261.186" stroke="#F94F24" stroke-width="0.5" stroke-linecap="round" stroke-linejoin="round" stroke-dasharray="2 2"/>
<path d="M101.027 168.551C101.027 168.551 116.461 128.37 159.279 98.4999C202.097 68.6295 256.5 72.6294 256.5 72.6294" stroke="#F94F24" stroke-width="0.5" stroke-linecap="round" stroke-linejoin="round" stroke-dasharray="2 2"/>
<path d="M352.5 72.6296C352.5 72.6296 412.721 74.6474 447.852 103.443C482.984 132.238 507.5 178.247 507.5 178.247" stroke="#F94F24" stroke-width="0.5" stroke-linecap="round" stroke-linejoin="round" stroke-dasharray="2 2"/>
<path d="M506.469 272.578C506.469 272.578 495.309 320.918 461.266 351.68C427.224 382.442 355.243 383.666 355.243 383.666" stroke="#F94F24" stroke-width="0.5" stroke-linecap="round" stroke-linejoin="round" stroke-dasharray="2 2"/>
<path fill-rule="evenodd" clip-rule="evenodd" d="M540.263 205.36C538.385 205.362 536.512 205.555 534.674 205.936C527.002 194.97 513.561 189.46 500.305 191.846C487.049 194.233 476.428 204.075 473.146 217.013C472.4 216.937 471.652 216.898 470.902 216.898C459.081 216.903 449.501 226.392 449.5 238.096C449.499 249.8 459.079 259.29 470.899 259.296H540.263C555.306 259.296 567.5 247.222 567.5 232.328C567.5 217.434 555.306 205.36 540.263 205.36V205.36Z" fill="#262F3E"/>
<path fill-rule="evenodd" clip-rule="evenodd" d="M509.698 248.997C508.755 248.997 508.034 248.997 507.307 248.997C505.972 248.975 504.639 248.853 503.32 248.631C501.572 248.383 499.841 248.012 498.141 247.521C497.197 247.249 496.259 246.966 495.331 246.61C494.403 246.255 493.433 245.872 492.505 245.456C491.238 244.89 490 244.259 488.794 243.563C488.051 243.135 487.32 242.68 486.593 242.219C485.867 241.759 485.072 241.109 484.319 240.587C483.227 239.799 482.23 238.894 481.207 238.017C480.874 237.728 480.555 237.42 480.253 237.096C479.908 236.729 479.924 236.296 480.253 236.074C480.417 235.975 480.619 235.975 480.783 236.074C481.52 236.43 482.193 236.913 482.903 237.301C483.614 237.69 484.192 238.017 484.844 238.35C485.374 238.622 485.904 238.878 486.434 239.133C487.463 239.621 488.497 240.093 489.568 240.487C490.193 240.715 490.829 240.943 491.45 241.187C492.09 241.448 492.743 241.674 493.406 241.864C494.156 242.148 494.923 242.377 495.702 242.552C496.333 242.636 496.942 242.819 497.563 242.947C498.093 243.063 498.623 243.191 499.19 243.324C500.839 243.676 502.504 243.931 504.179 244.09C506.416 244.361 508.667 244.474 510.918 244.429C512.111 244.429 513.314 244.429 514.502 244.295C515.838 244.134 517.153 244.012 518.499 243.79C519.628 243.596 520.752 243.38 521.871 243.152C522.55 243.013 523.212 242.797 523.891 242.636C525.121 242.347 526.319 241.942 527.523 241.525C528.726 241.109 530.03 240.587 531.282 240.11C531.716 239.943 532.141 239.749 532.554 239.555C532.954 239.371 533.418 239.431 533.763 239.71C533.922 239.887 534.007 240.123 533.999 240.366C533.992 240.609 533.891 240.839 533.721 241.004C531.566 242.599 532.787 241.791 532.273 242.114C532.273 242.114 530.859 243.063 530.152 243.507C529.622 243.824 529.092 244.096 528.562 244.379C527.682 244.856 526.781 245.278 525.874 245.678C525.217 245.966 524.538 246.199 523.875 246.46C522.852 246.86 521.802 247.165 520.752 247.465C519.703 247.765 518.748 247.981 517.736 248.192C516.426 248.47 515.085 248.642 513.781 248.825C512.424 248.956 511.061 249.014 509.698 248.997H509.698Z" fill="#FB9A02"/>
<path fill-rule="evenodd" clip-rule="evenodd" d="M510.964 217.257C510.214 219.765 510.75 217.47 510.735 217.623C510.735 217.623 509.713 221.906 509.231 224.048C508.787 225.96 508.343 227.875 507.896 229.791C507.865 229.931 507.826 230.07 507.779 230.206C507.695 230.723 507.219 231.073 506.716 230.987C506.152 230.987 505.588 230.987 505.019 230.987C504.195 230.987 503.844 230.714 503.711 229.894C502.674 226.201 503.423 228.711 503.227 228.135C503.227 228.135 502.107 224.269 501.526 222.338C501.35 221.619 501.128 220.913 500.861 220.223C500.81 220.082 500.773 219.935 500.75 219.786C500.649 219.245 500.489 218.717 500.271 218.213C500.117 217.726 499.988 217.232 499.883 216.732C499.596 215.82 499.351 214.891 499.085 213.967C499.043 213.829 499.017 213.686 499.006 213.541C498.985 213.41 499.022 213.276 499.108 213.175C499.193 213.075 499.317 213.019 499.447 213.022C500.202 213.022 500.957 213.022 501.712 213.022C502.07 213.039 502.376 213.291 502.472 213.645C503.3 216.794 502.82 214.835 502.946 215.443C502.946 215.443 503.644 218.145 503.977 219.497C504.557 221.846 505.126 224.196 505.7 226.545C505.7 226.649 505.748 226.747 505.774 226.846C505.801 226.944 505.817 226.993 505.902 226.999C505.987 227.004 506.03 226.917 506.051 226.835L506.482 224.961C506.794 223.598 507.105 222.236 507.417 220.874C507.651 219.846 507.875 218.819 508.119 217.792C508.444 216.437 508.71 215.06 509.082 213.722C509.155 213.304 509.515 213.005 509.927 213.017C510.613 213.017 511.304 213.017 511.99 213.017C512.414 212.999 512.785 213.308 512.857 213.738C513.144 214.705 513.33 215.705 513.564 216.688C513.92 218.218 514.261 219.754 514.628 221.283L515.649 225.764C515.75 226.206 515.856 226.649 515.962 227.091C515.962 227.162 515.962 227.283 516.069 227.288C516.439 226.128 516.175 227.173 516.191 227.097C516.191 227.097 516.685 225.157 516.93 224.185L518.079 219.612C518.302 218.721 518.509 217.825 518.754 216.94C519.046 215.874 519.254 214.787 519.599 213.738C519.681 213.273 520.099 212.952 520.556 213.006C521.152 213.006 521.748 213.006 522.343 213.006C522.939 213.006 523.082 213.246 522.96 213.793C522.864 214.23 522.731 214.65 522.604 215.077L521.216 219.606L519.397 225.567C518.935 227.086 518.472 228.61 517.999 230.124C517.786 230.818 517.547 230.982 516.85 230.987C516.287 230.987 515.718 230.987 515.154 230.987C514.883 231.031 514.606 230.956 514.391 230.78C514.176 230.605 514.042 230.345 514.022 230.064C513.804 229.162 513.591 228.255 513.373 227.332C513.027 225.857 512.676 224.376 512.309 222.895C511.916 221.256 511.528 219.579 511.14 217.918C511.086 217.721 511.017 217.492 510.964 217.257Z" fill="white"/>
<path fill-rule="evenodd" clip-rule="evenodd" d="M497.009 222.96C497.009 223.906 497.041 224.852 497.009 225.793C496.946 227.074 497.234 228.347 497.839 229.462C498.12 230.009 498.037 230.283 497.562 230.622C497.181 230.895 496.79 231.169 496.399 231.415C496.082 231.681 495.622 231.637 495.356 231.316C494.874 230.822 494.485 230.238 494.209 229.594C494.057 229.271 493.979 229.254 493.75 229.517C492.677 230.81 491.195 231.652 489.577 231.891C487.929 232.126 486.302 232.055 484.883 230.944C483.777 230.083 483.099 228.745 483.037 227.302C482.933 226.349 483.048 225.383 483.371 224.486C483.787 223.42 484.518 222.523 485.457 221.926C485.882 221.641 486.344 221.42 486.829 221.27C487.928 220.932 489.076 220.804 490.219 220.893C491.271 220.974 492.317 221.133 493.348 221.368C493.75 221.461 493.797 221.428 493.791 220.991C493.825 220.183 493.789 219.374 493.682 218.574C493.586 217.983 493.365 217.422 493.035 216.933C492.771 216.6 492.425 216.35 492.034 216.211C490.935 215.795 489.753 215.686 488.602 215.894C487.649 216.045 486.716 216.311 485.822 216.687C485.471 216.851 485.104 216.972 484.727 217.048C484.362 217.086 484.205 216.982 484.205 216.605C484.182 216.129 484.182 215.653 484.205 215.178C484.244 214.847 484.44 214.561 484.727 214.417C485.368 214.027 486.06 213.737 486.782 213.559C488.087 213.134 489.453 212.949 490.818 213.012C492.06 213.007 493.285 213.307 494.396 213.887C495.391 214.446 496.152 215.374 496.529 216.49C496.868 217.488 497.03 218.543 497.009 219.602V222.965L497.009 222.96ZM489.124 229.337C490.026 229.373 490.923 229.172 491.732 228.751C492.546 228.377 493.194 227.69 493.542 226.832C493.839 225.987 493.948 225.081 493.86 224.185C493.823 223.687 493.797 223.704 493.307 223.611C492.598 223.474 491.888 223.359 491.169 223.293C490.114 223.166 489.045 223.285 488.039 223.643C487.483 223.843 487.019 224.255 486.741 224.797C486.346 225.57 486.242 226.469 486.449 227.319C486.541 228.003 486.925 228.606 487.492 228.959C487.992 229.241 488.557 229.372 489.124 229.337H489.124Z" fill="white"/>
<path fill-rule="evenodd" clip-rule="evenodd" d="M529.977 232C528.261 231.971 526.565 231.613 524.978 230.945C524.32 230.722 523.913 230.047 524.016 229.346C524.016 229.068 524.016 228.802 524.016 228.513C524.064 228.111 524.255 227.969 524.643 228.062C524.888 228.123 525.126 228.207 525.356 228.312C527.166 229.128 529.16 229.42 531.121 229.155C532.034 229.107 532.877 228.642 533.418 227.888C534.052 226.938 533.814 225.643 532.886 224.994C532.183 224.567 531.426 224.241 530.637 224.026C529.291 223.563 527.893 223.259 526.643 222.524C524.57 221.342 523.673 218.771 524.547 216.514C525.059 215.258 526.036 214.26 527.265 213.74C528.723 213.079 530.335 212.854 531.913 213.092C533.073 213.241 534.206 213.558 535.279 214.033C535.744 214.196 536.048 214.652 536.029 215.154C536.029 215.513 536.029 215.872 536.029 216.242C536.02 216.419 535.927 216.581 535.78 216.675C535.633 216.77 535.45 216.784 535.29 216.715C534.083 216.13 532.773 215.803 531.44 215.752C530.538 215.678 529.631 215.802 528.781 216.117C528.225 216.32 527.784 216.761 527.574 217.325C527.363 217.889 527.404 218.518 527.685 219.049C527.907 219.456 528.25 219.782 528.664 219.979C529.495 220.4 530.364 220.738 531.259 220.99C532.471 221.305 533.645 221.757 534.758 222.339C536.029 223.056 536.862 224.379 536.976 225.859C537.22 228.579 535.598 230.597 533.343 231.429C532.259 231.803 531.122 231.996 529.977 232H529.977Z" fill="white"/>
<path fill-rule="evenodd" clip-rule="evenodd" d="M536.179 236.016C537.029 235.976 537.881 236.07 538.703 236.296C538.995 236.358 539.278 236.455 539.548 236.586C539.824 236.764 539.991 237.076 539.988 237.41C540.033 238.358 539.948 239.308 539.737 240.232C539.474 241.43 539.065 242.59 538.519 243.683C538.01 244.763 537.297 245.728 536.42 246.521C536.312 246.61 536.209 246.706 536.111 246.806C535.955 247.012 535.673 247.061 535.46 246.92C535.24 246.774 535.308 246.5 535.392 246.306C536.003 244.879 536.517 243.411 536.929 241.912C537.162 241.195 537.276 240.443 537.265 239.688C537.322 239.118 536.935 238.603 536.384 238.514C535.414 238.285 534.416 238.21 533.424 238.293C532.511 238.347 531.598 238.433 530.691 238.509C530.287 238.541 529.883 238.6 529.473 238.638C529.29 238.638 529.096 238.638 529.022 238.428C528.949 238.218 529.069 238.072 529.221 237.932C529.906 237.362 530.694 236.938 531.541 236.683C532.225 236.446 532.927 236.266 533.639 236.145C534.48 236.017 535.33 235.973 536.179 236.016Z" fill="#FB9A02"/>
<path fill-rule="evenodd" clip-rule="evenodd" d="M463.906 204.898C463.906 204.898 480.433 179.032 505.198 179.298C529.964 179.565 538.884 193.765 539.15 192.698C539.417 191.631 579.02 196.965 578.495 231.097C577.97 265.23 544.337 271.096 544.337 271.096L469.268 271.296C469.268 271.296 436.5 266.563 436.5 239.097C436.5 211.631 463.906 204.898 463.906 204.898Z" stroke="#F94F24" stroke-width="0.5" stroke-linecap="round" stroke-linejoin="round" stroke-dasharray="2 2"/>
<g clip-path="url(#clip0)">
<ellipse cx="304.5" cy="75.7964" rx="47.5" ry="48" transform="rotate(90 304.5 75.7964)" fill="white" stroke="#F94F24" stroke-width="0.5" stroke-linecap="round" stroke-linejoin="round" stroke-dasharray="2 2"/>
<path fill-rule="evenodd" clip-rule="evenodd" d="M290.5 77.296H293.633L295.167 72.6294H290.5V77.296Z" fill="#E27567"/>
<path fill-rule="evenodd" clip-rule="evenodd" d="M298.967 77.296H318.5V72.6294H300.5L298.967 77.296Z" fill="#E27567"/>
<path fill-rule="evenodd" clip-rule="evenodd" d="M290.5 68.6295H296.433L297.967 63.9629H290.5V68.6295Z" fill="#E27567"/>
<path fill-rule="evenodd" clip-rule="evenodd" d="M301.767 68.6295H318.5V63.9629H303.3L301.767 68.6295Z" fill="#E27567"/>
<path fill-rule="evenodd" clip-rule="evenodd" d="M300.767 55.2964H290.5V59.963H299.233L300.767 55.2964Z" fill="#E27567"/>
<path fill-rule="evenodd" clip-rule="evenodd" d="M306.1 55.2964L304.567 59.963H318.5V55.2964H306.1Z" fill="#E27567"/>
<path d="M285.257 91.4164C284.83 91.4164 284.404 91.3397 283.977 91.1864C283.557 91.0264 283.18 90.7897 282.847 90.4764L283.687 89.4664C283.92 89.6664 284.177 89.8297 284.457 89.9564C284.744 90.0831 285.024 90.1464 285.297 90.1464C285.604 90.1464 285.83 90.0897 285.977 89.9764C286.13 89.8631 286.207 89.7097 286.207 89.5164C286.207 89.4164 286.184 89.3297 286.137 89.2564C286.097 89.1831 286.034 89.1197 285.947 89.0664C285.867 89.0064 285.767 88.9531 285.647 88.9064C285.534 88.8531 285.407 88.7964 285.267 88.7364L284.417 88.3764C284.25 88.3097 284.087 88.2231 283.927 88.1164C283.774 88.0097 283.634 87.8864 283.507 87.7464C283.387 87.5997 283.29 87.4331 283.217 87.2464C283.144 87.0531 283.107 86.8364 283.107 86.5964C283.107 86.3297 283.164 86.0797 283.277 85.8464C283.39 85.6064 283.55 85.3997 283.757 85.2264C283.964 85.0464 284.207 84.9064 284.487 84.8064C284.774 84.7064 285.087 84.6564 285.427 84.6564C285.807 84.6564 286.18 84.7297 286.547 84.8764C286.92 85.0231 287.247 85.2364 287.527 85.5164L286.777 86.4464C286.564 86.2797 286.35 86.1531 286.137 86.0664C285.924 85.9731 285.687 85.9264 285.427 85.9264C285.174 85.9264 284.97 85.9797 284.817 86.0864C284.67 86.1864 284.597 86.3297 284.597 86.5164C284.597 86.6164 284.62 86.7031 284.667 86.7764C284.72 86.8431 284.79 86.9064 284.877 86.9664C284.97 87.0197 285.077 87.0731 285.197 87.1264C285.317 87.1731 285.447 87.2264 285.587 87.2864L286.427 87.6264C286.827 87.7864 287.14 88.0064 287.367 88.2864C287.6 88.5664 287.717 88.9364 287.717 89.3964C287.717 89.6697 287.66 89.9297 287.547 90.1764C287.44 90.4164 287.28 90.6297 287.067 90.8164C286.86 90.9964 286.604 91.1431 286.297 91.2564C285.99 91.3631 285.644 91.4164 285.257 91.4164ZM290.924 91.4164C290.57 91.4164 290.24 91.3597 289.934 91.2464C289.627 91.1264 289.36 90.9564 289.134 90.7364C288.907 90.5097 288.73 90.2364 288.604 89.9164C288.477 89.5964 288.414 89.2297 288.414 88.8164C288.414 88.4164 288.48 88.0564 288.614 87.7364C288.747 87.4097 288.92 87.1364 289.134 86.9164C289.354 86.6897 289.604 86.5164 289.884 86.3964C290.164 86.2764 290.454 86.2164 290.754 86.2164C291.107 86.2164 291.414 86.2764 291.674 86.3964C291.94 86.5164 292.16 86.6831 292.334 86.8964C292.514 87.1097 292.647 87.3631 292.734 87.6564C292.82 87.9431 292.864 88.2564 292.864 88.5964C292.864 88.7297 292.857 88.8564 292.844 88.9764C292.83 89.0964 292.817 89.1864 292.804 89.2464H289.834C289.9 89.6064 290.047 89.8731 290.274 90.0464C290.507 90.2131 290.79 90.2964 291.124 90.2964C291.477 90.2964 291.834 90.1864 292.194 89.9664L292.684 90.8564C292.43 91.0297 292.147 91.1664 291.834 91.2664C291.527 91.3664 291.224 91.4164 290.924 91.4164ZM289.824 88.2764H291.614C291.614 87.9964 291.55 87.7697 291.424 87.5964C291.297 87.4231 291.084 87.3364 290.784 87.3364C290.55 87.3364 290.344 87.4131 290.164 87.5664C289.99 87.7197 289.877 87.9564 289.824 88.2764ZM293.879 91.2964V86.3364H295.079L295.179 87.2064H295.219C295.399 86.8664 295.616 86.6164 295.869 86.4564C296.123 86.2964 296.376 86.2164 296.629 86.2164C296.769 86.2164 296.883 86.2264 296.969 86.2464C297.063 86.2597 297.146 86.2831 297.219 86.3164L296.979 87.5864C296.886 87.5597 296.799 87.5397 296.719 87.5264C296.639 87.5131 296.546 87.5064 296.439 87.5064C296.253 87.5064 296.056 87.5731 295.849 87.7064C295.649 87.8397 295.483 88.0764 295.349 88.4164V91.2964H293.879ZM299.072 91.2964L297.402 86.3364H298.882L299.522 88.6764C299.589 88.9231 299.652 89.1764 299.712 89.4364C299.779 89.6897 299.846 89.9464 299.912 90.2064H299.952C300.012 89.9464 300.072 89.6897 300.132 89.4364C300.199 89.1764 300.266 88.9231 300.332 88.6764L300.982 86.3364H302.392L300.772 91.2964H299.072ZM305.308 91.4164C304.955 91.4164 304.625 91.3597 304.318 91.2464C304.012 91.1264 303.745 90.9564 303.518 90.7364C303.292 90.5097 303.115 90.2364 302.988 89.9164C302.862 89.5964 302.798 89.2297 302.798 88.8164C302.798 88.4164 302.865 88.0564 302.998 87.7364C303.132 87.4097 303.305 87.1364 303.518 86.9164C303.738 86.6897 303.988 86.5164 304.268 86.3964C304.548 86.2764 304.838 86.2164 305.138 86.2164C305.492 86.2164 305.798 86.2764 306.058 86.3964C306.325 86.5164 306.545 86.6831 306.718 86.8964C306.898 87.1097 307.032 87.3631 307.118 87.6564C307.205 87.9431 307.248 88.2564 307.248 88.5964C307.248 88.7297 307.242 88.8564 307.228 88.9764C307.215 89.0964 307.202 89.1864 307.188 89.2464H304.218C304.285 89.6064 304.432 89.8731 304.658 90.0464C304.892 90.2131 305.175 90.2964 305.508 90.2964C305.862 90.2964 306.218 90.1864 306.578 89.9664L307.068 90.8564C306.815 91.0297 306.532 91.1664 306.218 91.2664C305.912 91.3664 305.608 91.4164 305.308 91.4164ZM304.208 88.2764H305.998C305.998 87.9964 305.935 87.7697 305.808 87.5964C305.682 87.4231 305.468 87.3364 305.168 87.3364C304.935 87.3364 304.728 87.4131 304.548 87.5664C304.375 87.7197 304.262 87.9564 304.208 88.2764ZM308.264 91.2964V86.3364H309.464L309.564 87.2064H309.604C309.784 86.8664 310.001 86.6164 310.254 86.4564C310.508 86.2964 310.761 86.2164 311.014 86.2164C311.154 86.2164 311.268 86.2264 311.354 86.2464C311.448 86.2597 311.531 86.2831 311.604 86.3164L311.364 87.5864C311.271 87.5597 311.184 87.5397 311.104 87.5264C311.024 87.5131 310.931 87.5064 310.824 87.5064C310.638 87.5064 310.441 87.5731 310.234 87.7064C310.034 87.8397 309.868 88.0764 309.734 88.4164V91.2964H308.264ZM313.599 91.4164C313.345 91.4164 313.132 91.3764 312.959 91.2964C312.785 91.2164 312.645 91.1064 312.539 90.9664C312.439 90.8197 312.365 90.6464 312.319 90.4464C312.272 90.2397 312.249 90.0097 312.249 89.7564V84.2864H313.719V89.8164C313.719 89.9697 313.745 90.0764 313.799 90.1364C313.859 90.1964 313.919 90.2264 313.979 90.2264C314.012 90.2264 314.039 90.2264 314.059 90.2264C314.085 90.2264 314.119 90.2197 314.159 90.2064L314.339 91.2964C314.259 91.3297 314.155 91.3564 314.029 91.3764C313.909 91.4031 313.765 91.4164 313.599 91.4164ZM317.33 91.4164C316.977 91.4164 316.647 91.3597 316.34 91.2464C316.033 91.1264 315.767 90.9564 315.54 90.7364C315.313 90.5097 315.137 90.2364 315.01 89.9164C314.883 89.5964 314.82 89.2297 314.82 88.8164C314.82 88.4164 314.887 88.0564 315.02 87.7364C315.153 87.4097 315.327 87.1364 315.54 86.9164C315.76 86.6897 316.01 86.5164 316.29 86.3964C316.57 86.2764 316.86 86.2164 317.16 86.2164C317.513 86.2164 317.82 86.2764 318.08 86.3964C318.347 86.5164 318.567 86.6831 318.74 86.8964C318.92 87.1097 319.053 87.3631 319.14 87.6564C319.227 87.9431 319.27 88.2564 319.27 88.5964C319.27 88.7297 319.263 88.8564 319.25 88.9764C319.237 89.0964 319.223 89.1864 319.21 89.2464H316.24C316.307 89.6064 316.453 89.8731 316.68 90.0464C316.913 90.2131 317.197 90.2964 317.53 90.2964C317.883 90.2964 318.24 90.1864 318.6 89.9664L319.09 90.8564C318.837 91.0297 318.553 91.1664 318.24 91.2664C317.933 91.3664 317.63 91.4164 317.33 91.4164ZM316.23 88.2764H318.02C318.02 87.9964 317.957 87.7697 317.83 87.5964C317.703 87.4231 317.49 87.3364 317.19 87.3364C316.957 87.3364 316.75 87.4131 316.57 87.5664C316.397 87.7197 316.283 87.9564 316.23 88.2764ZM321.746 91.4164C321.419 91.4164 321.082 91.3531 320.736 91.2264C320.396 91.0997 320.099 90.9331 319.846 90.7264L320.506 89.8064C320.732 89.9797 320.949 90.1097 321.156 90.1964C321.362 90.2831 321.572 90.3264 321.786 90.3264C322.006 90.3264 322.166 90.2897 322.266 90.2164C322.366 90.1431 322.416 90.0397 322.416 89.9064C322.416 89.8264 322.386 89.7564 322.326 89.6964C322.272 89.6297 322.196 89.5697 322.096 89.5164C322.002 89.4631 321.896 89.4164 321.776 89.3764C321.656 89.3297 321.532 89.2797 321.406 89.2264C321.252 89.1664 321.099 89.0964 320.946 89.0164C320.792 88.9364 320.652 88.8397 320.526 88.7264C320.399 88.6064 320.296 88.4697 320.216 88.3164C320.136 88.1564 320.096 87.9731 320.096 87.7664C320.096 87.5397 320.139 87.3297 320.226 87.1364C320.319 86.9431 320.449 86.7797 320.616 86.6464C320.782 86.5131 320.982 86.4097 321.216 86.3364C321.449 86.2564 321.709 86.2164 321.996 86.2164C322.376 86.2164 322.709 86.2831 322.996 86.4164C323.282 86.5431 323.532 86.6864 323.746 86.8464L323.086 87.7264C322.906 87.5931 322.729 87.4897 322.556 87.4164C322.382 87.3431 322.209 87.3064 322.036 87.3064C321.662 87.3064 321.476 87.4364 321.476 87.6964C321.476 87.7764 321.502 87.8464 321.556 87.9064C321.609 87.9597 321.679 88.0097 321.766 88.0564C321.859 88.1031 321.962 88.1497 322.076 88.1964C322.196 88.2364 322.319 88.2797 322.446 88.3264C322.606 88.3864 322.762 88.4564 322.916 88.5364C323.076 88.6097 323.219 88.7031 323.346 88.8164C323.479 88.9297 323.586 89.0697 323.666 89.2364C323.746 89.3964 323.786 89.5897 323.786 89.8164C323.786 90.0431 323.742 90.2531 323.656 90.4464C323.569 90.6397 323.439 90.8097 323.266 90.9564C323.092 91.0964 322.879 91.2097 322.626 91.2964C322.372 91.3764 322.079 91.4164 321.746 91.4164ZM326.179 91.4164C325.853 91.4164 325.516 91.3531 325.169 91.2264C324.829 91.0997 324.533 90.9331 324.279 90.7264L324.939 89.8064C325.166 89.9797 325.383 90.1097 325.589 90.1964C325.796 90.2831 326.006 90.3264 326.219 90.3264C326.439 90.3264 326.599 90.2897 326.699 90.2164C326.799 90.1431 326.849 90.0397 326.849 89.9064C326.849 89.8264 326.819 89.7564 326.759 89.6964C326.706 89.6297 326.629 89.5697 326.529 89.5164C326.436 89.4631 326.329 89.4164 326.209 89.3764C326.089 89.3297 325.966 89.2797 325.839 89.2264C325.686 89.1664 325.533 89.0964 325.379 89.0164C325.226 88.9364 325.086 88.8397 324.959 88.7264C324.833 88.6064 324.729 88.4697 324.649 88.3164C324.569 88.1564 324.529 87.9731 324.529 87.7664C324.529 87.5397 324.573 87.3297 324.659 87.1364C324.753 86.9431 324.883 86.7797 325.049 86.6464C325.216 86.5131 325.416 86.4097 325.649 86.3364C325.883 86.2564 326.143 86.2164 326.429 86.2164C326.809 86.2164 327.143 86.2831 327.429 86.4164C327.716 86.5431 327.966 86.6864 328.179 86.8464L327.519 87.7264C327.339 87.5931 327.163 87.4897 326.989 87.4164C326.816 87.3431 326.643 87.3064 326.469 87.3064C326.096 87.3064 325.909 87.4364 325.909 87.6964C325.909 87.7764 325.936 87.8464 325.989 87.9064C326.043 87.9597 326.113 88.0097 326.199 88.0564C326.293 88.1031 326.396 88.1497 326.509 88.1964C326.629 88.2364 326.753 88.2797 326.879 88.3264C327.039 88.3864 327.196 88.4564 327.349 88.5364C327.509 88.6097 327.653 88.7031 327.779 88.8164C327.913 88.9297 328.019 89.0697 328.099 89.2364C328.179 89.3964 328.219 89.5897 328.219 89.8164C328.219 90.0431 328.176 90.2531 328.089 90.4464C328.003 90.6397 327.873 90.8097 327.699 90.9564C327.526 91.0964 327.313 91.2097 327.059 91.2964C326.806 91.3764 326.513 91.4164 326.179 91.4164ZM282.015 104.296V100.486H281.355V99.3964L282.015 99.3464V99.0764C282.015 98.8164 282.045 98.5697 282.105 98.3364C282.172 98.1031 282.279 97.8997 282.425 97.7264C282.572 97.5531 282.762 97.4164 282.995 97.3164C283.229 97.2164 283.512 97.1664 283.845 97.1664C284.052 97.1664 284.239 97.1864 284.405 97.2264C284.579 97.2664 284.722 97.3064 284.835 97.3464L284.565 98.4264C284.379 98.3597 284.209 98.3264 284.055 98.3264C283.875 98.3264 283.735 98.3831 283.635 98.4964C283.535 98.6031 283.485 98.7831 283.485 99.0364V99.3364H284.375V100.486H283.485V104.296H282.015ZM285.173 104.296V99.3364H286.373L286.473 100.206H286.513C286.693 99.8664 286.91 99.6164 287.163 99.4564C287.417 99.2964 287.67 99.2164 287.923 99.2164C288.063 99.2164 288.177 99.2264 288.263 99.2464C288.357 99.2597 288.44 99.2831 288.513 99.3164L288.273 100.586C288.18 100.56 288.093 100.54 288.013 100.526C287.933 100.513 287.84 100.506 287.733 100.506C287.547 100.506 287.35 100.573 287.143 100.706C286.943 100.84 286.777 101.076 286.643 101.416V104.296H285.173ZM290.125 104.416C289.898 104.416 289.691 104.376 289.505 104.296C289.325 104.223 289.171 104.12 289.045 103.986C288.918 103.846 288.818 103.686 288.745 103.506C288.678 103.326 288.645 103.13 288.645 102.916C288.645 102.396 288.865 101.99 289.305 101.696C289.745 101.403 290.455 101.206 291.435 101.106C291.421 100.886 291.355 100.713 291.235 100.586C291.121 100.453 290.928 100.386 290.655 100.386C290.441 100.386 290.228 100.426 290.015 100.506C289.808 100.586 289.585 100.696 289.345 100.836L288.815 99.8664C289.135 99.6731 289.468 99.5164 289.815 99.3964C290.168 99.2764 290.541 99.2164 290.935 99.2164C291.575 99.2164 292.061 99.3997 292.395 99.7664C292.735 100.126 292.905 100.69 292.905 101.456V104.296H291.705L291.605 103.786H291.565C291.351 103.973 291.128 104.126 290.895 104.246C290.661 104.36 290.405 104.416 290.125 104.416ZM290.625 103.276C290.791 103.276 290.935 103.24 291.055 103.166C291.175 103.093 291.301 102.99 291.435 102.856V101.986C290.915 102.06 290.555 102.166 290.355 102.306C290.155 102.446 290.055 102.613 290.055 102.806C290.055 102.966 290.105 103.086 290.205 103.166C290.311 103.24 290.451 103.276 290.625 103.276ZM294.148 104.296V99.3364H295.348L295.448 99.9764H295.488C295.695 99.7697 295.915 99.5931 296.148 99.4464C296.381 99.2931 296.661 99.2164 296.988 99.2164C297.341 99.2164 297.625 99.2897 297.838 99.4364C298.058 99.5764 298.231 99.7797 298.358 100.046C298.578 99.8197 298.808 99.6264 299.048 99.4664C299.295 99.2997 299.585 99.2164 299.918 99.2164C300.451 99.2164 300.841 99.3964 301.088 99.7564C301.341 100.11 301.468 100.596 301.468 101.216V104.296H299.998V101.406C299.998 101.046 299.948 100.8 299.848 100.666C299.755 100.533 299.601 100.466 299.388 100.466C299.141 100.466 298.858 100.626 298.538 100.946V104.296H297.068V101.406C297.068 101.046 297.018 100.8 296.918 100.666C296.825 100.533 296.671 100.466 296.458 100.466C296.205 100.466 295.925 100.626 295.618 100.946V104.296H294.148ZM304.942 104.416C304.589 104.416 304.259 104.36 303.952 104.246C303.646 104.126 303.379 103.956 303.152 103.736C302.926 103.51 302.749 103.236 302.622 102.916C302.496 102.596 302.432 102.23 302.432 101.816C302.432 101.416 302.499 101.056 302.632 100.736C302.766 100.41 302.939 100.136 303.152 99.9164C303.372 99.6897 303.622 99.5164 303.902 99.3964C304.182 99.2764 304.472 99.2164 304.772 99.2164C305.126 99.2164 305.432 99.2764 305.692 99.3964C305.959 99.5164 306.179 99.6831 306.352 99.8964C306.532 100.11 306.666 100.363 306.752 100.656C306.839 100.943 306.882 101.256 306.882 101.596C306.882 101.73 306.876 101.856 306.862 101.976C306.849 102.096 306.836 102.186 306.822 102.246H303.852C303.919 102.606 304.066 102.873 304.292 103.046C304.526 103.213 304.809 103.296 305.142 103.296C305.496 103.296 305.852 103.186 306.212 102.966L306.702 103.856C306.449 104.03 306.166 104.166 305.852 104.266C305.546 104.366 305.242 104.416 304.942 104.416ZM303.842 101.276H305.632C305.632 100.996 305.569 100.77 305.442 100.596C305.316 100.423 305.102 100.336 304.802 100.336C304.569 100.336 304.362 100.413 304.182 100.566C304.009 100.72 303.896 100.956 303.842 101.276ZM308.669 104.296L307.429 99.3364H308.889L309.369 101.636C309.409 101.883 309.446 102.126 309.479 102.366C309.513 102.606 309.549 102.853 309.589 103.106H309.629C309.676 102.853 309.719 102.603 309.759 102.356C309.806 102.11 309.859 101.87 309.919 101.636L310.469 99.3364H311.739L312.299 101.636C312.359 101.883 312.413 102.126 312.459 102.366C312.506 102.606 312.556 102.853 312.609 103.106H312.649C312.696 102.853 312.733 102.606 312.759 102.366C312.793 102.126 312.833 101.883 312.879 101.636L313.349 99.3364H314.709L313.519 104.296H311.799L311.349 102.316C311.296 102.083 311.249 101.85 311.209 101.616C311.169 101.383 311.126 101.133 311.079 100.866H311.039C310.993 101.133 310.949 101.383 310.909 101.616C310.876 101.85 310.836 102.083 310.789 102.316L310.349 104.296H308.669ZM317.655 104.416C317.342 104.416 317.038 104.36 316.745 104.246C316.452 104.126 316.192 103.956 315.965 103.736C315.745 103.516 315.568 103.246 315.435 102.926C315.302 102.6 315.235 102.23 315.235 101.816C315.235 101.403 315.302 101.036 315.435 100.716C315.568 100.39 315.745 100.116 315.965 99.8964C316.192 99.6764 316.452 99.5097 316.745 99.3964C317.038 99.2764 317.342 99.2164 317.655 99.2164C317.968 99.2164 318.268 99.2764 318.555 99.3964C318.848 99.5097 319.105 99.6764 319.325 99.8964C319.552 100.116 319.732 100.39 319.865 100.716C319.998 101.036 320.065 101.403 320.065 101.816C320.065 102.23 319.998 102.6 319.865 102.926C319.732 103.246 319.552 103.516 319.325 103.736C319.105 103.956 318.848 104.126 318.555 104.246C318.268 104.36 317.968 104.416 317.655 104.416ZM317.655 103.226C317.955 103.226 318.182 103.1 318.335 102.846C318.488 102.593 318.565 102.25 318.565 101.816C318.565 101.383 318.488 101.04 318.335 100.786C318.182 100.533 317.955 100.406 317.655 100.406C317.348 100.406 317.118 100.533 316.965 100.786C316.818 101.04 316.745 101.383 316.745 101.816C316.745 102.25 316.818 102.593 316.965 102.846C317.118 103.1 317.348 103.226 317.655 103.226ZM321.072 104.296V99.3364H322.272L322.372 100.206H322.412C322.592 99.8664 322.809 99.6164 323.062 99.4564C323.315 99.2964 323.569 99.2164 323.822 99.2164C323.962 99.2164 324.075 99.2264 324.162 99.2464C324.255 99.2597 324.339 99.2831 324.412 99.3164L324.172 100.586C324.079 100.56 323.992 100.54 323.912 100.526C323.832 100.513 323.739 100.506 323.632 100.506C323.445 100.506 323.249 100.573 323.042 100.706C322.842 100.84 322.675 101.076 322.542 101.416V104.296H321.072ZM325.056 104.296V97.2864H326.486V101.306H326.526L328.096 99.3364H329.696L327.956 101.376L329.826 104.296H328.236L327.116 102.366L326.486 103.076V104.296H325.056Z" fill="#000E1A"/>
</g>
<g clip-path="url(#clip1)">
<ellipse cx="306.5" cy="176.796" rx="47.5" ry="47" transform="rotate(90 306.5 176.796)" fill="white" stroke="#F94F24" stroke-width="0.5" stroke-linecap="round" stroke-linejoin="round" stroke-dasharray="2 2"/>
<mask id="mask0" mask-type="alpha" maskUnits="userSpaceOnUse" x="292" y="150" width="29" height="36">
<rect x="292.5" y="150.296" width="28" height="35" fill="white"/>
</mask>
<g mask="url(#mask0)">
<path fill-rule="evenodd" clip-rule="evenodd" d="M294.304 174.475L294.542 174.752L306.564 178.247L306.618 176.08L298.198 173.913L297.786 173.761L294.304 174.475" fill="#B7CA9D"/>
<path fill-rule="evenodd" clip-rule="evenodd" d="M318.696 174.474L306.418 178.678L306.381 176.08L314.801 173.913L315.168 173.489L318.696 174.474" fill="#B7CA9D"/>
<path fill-rule="evenodd" clip-rule="evenodd" d="M306.381 159.626L314.801 161.638L318.504 161.458L318.696 161.077L306.965 156.747L306.381 159.626Z" fill="#3C4929"/>
<path fill-rule="evenodd" clip-rule="evenodd" d="M298.198 173.913L294.304 174.474L294.195 174.06V161.514L294.304 161.078L297.823 161.346L298.198 161.639V173.913Z" fill="#759C3E"/>
<path fill-rule="evenodd" clip-rule="evenodd" d="M306.618 159.626L298.198 161.639L294.304 161.078L294.45 160.842L306.564 157.306L306.618 159.626Z" fill="#3C4929"/>
<path fill-rule="evenodd" clip-rule="evenodd" d="M306.483 150.296L292.5 157.535L292.507 178.021L306.483 185.256L306.691 184.932V150.717L306.483 150.296ZM302.394 176.965L294.304 174.474V161.077L302.394 158.588V176.965ZM314.801 173.913L318.696 174.474L318.914 174.078V161.458L318.696 161.077L314.801 161.639V173.913Z" fill="#4B612C"/>
<path fill-rule="evenodd" clip-rule="evenodd" d="M306.483 185.256L320.493 178.021L320.5 157.536L306.483 150.296V185.256ZM310.605 158.588L318.696 161.077V174.474L310.605 176.965V158.588V158.588Z" fill="#759C3E"/>
</g>
<path d="M274.98 196.416C274.567 196.416 274.177 196.346 273.81 196.206C273.444 196.06 273.12 195.846 272.84 195.566C272.567 195.286 272.35 194.94 272.19 194.526C272.03 194.106 271.95 193.623 271.95 193.076C271.95 192.536 272.034 192.056 272.2 191.636C272.367 191.21 272.59 190.85 272.87 190.556C273.15 190.263 273.477 190.04 273.85 189.886C274.224 189.733 274.617 189.656 275.03 189.656C275.45 189.656 275.827 189.743 276.16 189.916C276.494 190.083 276.77 190.28 276.99 190.506L276.21 191.446C276.044 191.293 275.867 191.17 275.68 191.076C275.5 190.976 275.294 190.926 275.06 190.926C274.84 190.926 274.63 190.976 274.43 191.076C274.237 191.17 274.067 191.306 273.92 191.486C273.78 191.666 273.667 191.886 273.58 192.146C273.5 192.406 273.46 192.7 273.46 193.026C273.46 193.7 273.604 194.223 273.89 194.596C274.177 194.963 274.56 195.146 275.04 195.146C275.307 195.146 275.544 195.09 275.75 194.976C275.964 194.856 276.15 194.71 276.31 194.536L277.09 195.456C276.544 196.096 275.84 196.416 274.98 196.416ZM279.311 196.416C279.057 196.416 278.844 196.376 278.671 196.296C278.497 196.216 278.357 196.106 278.251 195.966C278.151 195.82 278.077 195.646 278.031 195.446C277.984 195.24 277.961 195.01 277.961 194.756V189.286H279.431V194.816C279.431 194.97 279.457 195.076 279.511 195.136C279.571 195.196 279.631 195.226 279.691 195.226C279.724 195.226 279.751 195.226 279.771 195.226C279.797 195.226 279.831 195.22 279.871 195.206L280.051 196.296C279.971 196.33 279.867 196.356 279.741 196.376C279.621 196.403 279.477 196.416 279.311 196.416ZM282.952 196.416C282.639 196.416 282.335 196.36 282.042 196.246C281.749 196.126 281.489 195.956 281.262 195.736C281.042 195.516 280.865 195.246 280.732 194.926C280.599 194.6 280.532 194.23 280.532 193.816C280.532 193.403 280.599 193.036 280.732 192.716C280.865 192.39 281.042 192.116 281.262 191.896C281.489 191.676 281.749 191.51 282.042 191.396C282.335 191.276 282.639 191.216 282.952 191.216C283.265 191.216 283.565 191.276 283.852 191.396C284.145 191.51 284.402 191.676 284.622 191.896C284.849 192.116 285.029 192.39 285.162 192.716C285.295 193.036 285.362 193.403 285.362 193.816C285.362 194.23 285.295 194.6 285.162 194.926C285.029 195.246 284.849 195.516 284.622 195.736C284.402 195.956 284.145 196.126 283.852 196.246C283.565 196.36 283.265 196.416 282.952 196.416ZM282.952 195.226C283.252 195.226 283.479 195.1 283.632 194.846C283.785 194.593 283.862 194.25 283.862 193.816C283.862 193.383 283.785 193.04 283.632 192.786C283.479 192.533 283.252 192.406 282.952 192.406C282.645 192.406 282.415 192.533 282.262 192.786C282.115 193.04 282.042 193.383 282.042 193.816C282.042 194.25 282.115 194.593 282.262 194.846C282.415 195.1 282.645 195.226 282.952 195.226ZM287.859 196.416C287.319 196.416 286.925 196.24 286.679 195.886C286.439 195.533 286.319 195.043 286.319 194.416V191.336H287.789V194.226C287.789 194.586 287.839 194.833 287.939 194.966C288.039 195.1 288.195 195.166 288.409 195.166C288.595 195.166 288.752 195.123 288.879 195.036C289.005 194.95 289.142 194.81 289.289 194.616V191.336H290.759V196.296H289.559L289.449 195.606H289.419C289.205 195.86 288.975 196.06 288.729 196.206C288.489 196.346 288.199 196.416 287.859 196.416ZM293.822 196.416C293.516 196.416 293.236 196.356 292.982 196.236C292.736 196.116 292.522 195.946 292.342 195.726C292.169 195.5 292.032 195.226 291.932 194.906C291.839 194.586 291.792 194.223 291.792 193.816C291.792 193.41 291.849 193.046 291.962 192.726C292.082 192.406 292.236 192.136 292.422 191.916C292.616 191.69 292.836 191.516 293.082 191.396C293.336 191.276 293.592 191.216 293.852 191.216C294.132 191.216 294.362 191.263 294.542 191.356C294.722 191.45 294.899 191.576 295.072 191.736L295.012 190.976V189.286H296.482V196.296H295.282L295.182 195.806H295.142C294.969 195.98 294.766 196.126 294.532 196.246C294.299 196.36 294.062 196.416 293.822 196.416ZM294.202 195.216C294.362 195.216 294.506 195.183 294.632 195.116C294.766 195.05 294.892 194.933 295.012 194.766V192.736C294.879 192.616 294.742 192.533 294.602 192.486C294.462 192.44 294.326 192.416 294.192 192.416C293.959 192.416 293.752 192.53 293.572 192.756C293.392 192.976 293.302 193.323 293.302 193.796C293.302 194.29 293.379 194.65 293.532 194.876C293.692 195.103 293.916 195.216 294.202 195.216ZM298.035 196.296V192.486H297.375V191.396L298.035 191.346V191.076C298.035 190.816 298.065 190.57 298.125 190.336C298.191 190.103 298.298 189.9 298.445 189.726C298.591 189.553 298.781 189.416 299.015 189.316C299.248 189.216 299.531 189.166 299.865 189.166C300.071 189.166 300.258 189.186 300.425 189.226C300.598 189.266 300.741 189.306 300.855 189.346L300.585 190.426C300.398 190.36 300.228 190.326 300.075 190.326C299.895 190.326 299.755 190.383 299.655 190.496C299.555 190.603 299.505 190.783 299.505 191.036V191.336H300.395V192.486H299.505V196.296H298.035ZM303.225 196.416C302.912 196.416 302.609 196.36 302.315 196.246C302.022 196.126 301.762 195.956 301.535 195.736C301.315 195.516 301.139 195.246 301.005 194.926C300.872 194.6 300.805 194.23 300.805 193.816C300.805 193.403 300.872 193.036 301.005 192.716C301.139 192.39 301.315 192.116 301.535 191.896C301.762 191.676 302.022 191.51 302.315 191.396C302.609 191.276 302.912 191.216 303.225 191.216C303.539 191.216 303.839 191.276 304.125 191.396C304.419 191.51 304.675 191.676 304.895 191.896C305.122 192.116 305.302 192.39 305.435 192.716C305.569 193.036 305.635 193.403 305.635 193.816C305.635 194.23 305.569 194.6 305.435 194.926C305.302 195.246 305.122 195.516 304.895 195.736C304.675 195.956 304.419 196.126 304.125 196.246C303.839 196.36 303.539 196.416 303.225 196.416ZM303.225 195.226C303.525 195.226 303.752 195.1 303.905 194.846C304.059 194.593 304.135 194.25 304.135 193.816C304.135 193.383 304.059 193.04 303.905 192.786C303.752 192.533 303.525 192.406 303.225 192.406C302.919 192.406 302.689 192.533 302.535 192.786C302.389 193.04 302.315 193.383 302.315 193.816C302.315 194.25 302.389 194.593 302.535 194.846C302.689 195.1 302.919 195.226 303.225 195.226ZM306.642 196.296V191.336H307.842L307.942 192.206H307.982C308.162 191.866 308.379 191.616 308.632 191.456C308.886 191.296 309.139 191.216 309.392 191.216C309.532 191.216 309.646 191.226 309.732 191.246C309.826 191.26 309.909 191.283 309.982 191.316L309.742 192.586C309.649 192.56 309.562 192.54 309.482 192.526C309.402 192.513 309.309 192.506 309.202 192.506C309.016 192.506 308.819 192.573 308.612 192.706C308.412 192.84 308.246 193.076 308.112 193.416V196.296H306.642ZM310.627 196.296V191.336H311.827L311.927 191.976H311.967C312.173 191.77 312.393 191.593 312.627 191.446C312.86 191.293 313.14 191.216 313.467 191.216C313.82 191.216 314.103 191.29 314.317 191.436C314.537 191.576 314.71 191.78 314.837 192.046C315.057 191.82 315.287 191.626 315.527 191.466C315.773 191.3 316.063 191.216 316.397 191.216C316.93 191.216 317.32 191.396 317.567 191.756C317.82 192.11 317.947 192.596 317.947 193.216V196.296H316.477V193.406C316.477 193.046 316.427 192.8 316.327 192.666C316.233 192.533 316.08 192.466 315.867 192.466C315.62 192.466 315.337 192.626 315.017 192.946V196.296H313.547V193.406C313.547 193.046 313.497 192.8 313.397 192.666C313.303 192.533 313.15 192.466 312.937 192.466C312.683 192.466 312.403 192.626 312.097 192.946V196.296H310.627ZM320.451 196.416C320.224 196.416 320.017 196.376 319.831 196.296C319.651 196.223 319.497 196.12 319.371 195.986C319.244 195.846 319.144 195.686 319.071 195.506C319.004 195.326 318.971 195.13 318.971 194.916C318.971 194.396 319.191 193.99 319.631 193.696C320.071 193.403 320.781 193.206 321.761 193.106C321.747 192.886 321.681 192.713 321.561 192.586C321.447 192.453 321.254 192.386 320.981 192.386C320.767 192.386 320.554 192.426 320.341 192.506C320.134 192.586 319.911 192.696 319.671 192.836L319.141 191.866C319.461 191.673 319.794 191.516 320.141 191.396C320.494 191.276 320.867 191.216 321.261 191.216C321.901 191.216 322.387 191.4 322.721 191.766C323.061 192.126 323.231 192.69 323.231 193.456V196.296H322.031L321.931 195.786H321.891C321.677 195.973 321.454 196.126 321.221 196.246C320.987 196.36 320.731 196.416 320.451 196.416ZM320.951 195.276C321.117 195.276 321.261 195.24 321.381 195.166C321.501 195.093 321.627 194.99 321.761 194.856V193.986C321.241 194.06 320.881 194.166 320.681 194.306C320.481 194.446 320.381 194.613 320.381 194.806C320.381 194.966 320.431 195.086 320.531 195.166C320.637 195.24 320.777 195.276 320.951 195.276ZM326.208 196.416C325.902 196.416 325.638 196.37 325.418 196.276C325.205 196.183 325.028 196.053 324.888 195.886C324.755 195.72 324.655 195.52 324.588 195.286C324.528 195.046 324.498 194.783 324.498 194.496V192.486H323.818V191.396L324.578 191.336L324.748 190.016H325.968V191.336H327.158V192.486H325.968V194.476C325.968 194.756 326.025 194.96 326.138 195.086C326.258 195.206 326.415 195.266 326.608 195.266C326.688 195.266 326.768 195.256 326.848 195.236C326.935 195.216 327.012 195.193 327.078 195.166L327.308 196.236C327.175 196.276 327.018 196.316 326.838 196.356C326.658 196.396 326.448 196.416 326.208 196.416ZM328.127 196.296V191.336H329.597V196.296H328.127ZM328.857 190.606C328.61 190.606 328.407 190.536 328.247 190.396C328.087 190.25 328.007 190.063 328.007 189.836C328.007 189.61 328.087 189.426 328.247 189.286C328.407 189.146 328.61 189.076 328.857 189.076C329.11 189.076 329.313 189.146 329.467 189.286C329.627 189.426 329.707 189.61 329.707 189.836C329.707 190.063 329.627 190.25 329.467 190.396C329.313 190.536 329.11 190.606 328.857 190.606ZM333.02 196.416C332.707 196.416 332.404 196.36 332.11 196.246C331.817 196.126 331.557 195.956 331.33 195.736C331.11 195.516 330.934 195.246 330.8 194.926C330.667 194.6 330.6 194.23 330.6 193.816C330.6 193.403 330.667 193.036 330.8 192.716C330.934 192.39 331.11 192.116 331.33 191.896C331.557 191.676 331.817 191.51 332.11 191.396C332.404 191.276 332.707 191.216 333.02 191.216C333.334 191.216 333.634 191.276 333.92 191.396C334.214 191.51 334.47 191.676 334.69 191.896C334.917 192.116 335.097 192.39 335.23 192.716C335.364 193.036 335.43 193.403 335.43 193.816C335.43 194.23 335.364 194.6 335.23 194.926C335.097 195.246 334.917 195.516 334.69 195.736C334.47 195.956 334.214 196.126 333.92 196.246C333.634 196.36 333.334 196.416 333.02 196.416ZM333.02 195.226C333.32 195.226 333.547 195.1 333.7 194.846C333.854 194.593 333.93 194.25 333.93 193.816C333.93 193.383 333.854 193.04 333.7 192.786C333.547 192.533 333.32 192.406 333.02 192.406C332.714 192.406 332.484 192.533 332.33 192.786C332.184 193.04 332.11 193.383 332.11 193.816C332.11 194.25 332.184 194.593 332.33 194.846C332.484 195.1 332.714 195.226 333.02 195.226ZM336.437 196.296V191.336H337.637L337.737 191.966H337.777C337.99 191.766 338.224 191.593 338.477 191.446C338.73 191.293 339.027 191.216 339.367 191.216C339.907 191.216 340.297 191.393 340.537 191.746C340.784 192.1 340.907 192.59 340.907 193.216V196.296H339.437V193.406C339.437 193.046 339.387 192.8 339.287 192.666C339.194 192.533 339.04 192.466 338.827 192.466C338.64 192.466 338.48 192.51 338.347 192.596C338.214 192.676 338.067 192.793 337.907 192.946V196.296H336.437Z" fill="#000E1A"/>
</g>
<g clip-path="url(#clip2)">
<ellipse cx="306.5" cy="277.796" rx="47.5" ry="48" transform="rotate(90 306.5 277.796)" fill="white" stroke="#F94F24" stroke-width="0.5" stroke-linecap="round" stroke-linejoin="round" stroke-dasharray="2 2"/>
<path fill-rule="evenodd" clip-rule="evenodd" d="M311.114 264.322V273.787L319.5 269.057V259.582L311.114 264.322Z" fill="#4040B2"/>
<path fill-rule="evenodd" clip-rule="evenodd" d="M301.807 259.582L310.193 264.322V273.787L301.807 269.052V259.582H301.807Z" fill="#5C4EE5"/>
<path fill-rule="evenodd" clip-rule="evenodd" d="M292.5 254.296V263.766L300.886 268.501V259.031L292.5 254.296ZM301.807 279.561L310.193 284.296V274.826L301.807 270.091V279.561H301.807Z" fill="#5C4EE5"/>
<path d="M286.988 295.296V290.016H285.198V288.776H290.258V290.016H288.468V295.296H286.988ZM292.613 295.416C292.26 295.416 291.93 295.36 291.623 295.246C291.316 295.126 291.05 294.956 290.823 294.736C290.596 294.51 290.42 294.236 290.293 293.916C290.166 293.596 290.103 293.23 290.103 292.816C290.103 292.416 290.17 292.056 290.303 291.736C290.436 291.41 290.61 291.136 290.823 290.916C291.043 290.69 291.293 290.516 291.573 290.396C291.853 290.276 292.143 290.216 292.443 290.216C292.796 290.216 293.103 290.276 293.363 290.396C293.63 290.516 293.85 290.683 294.023 290.896C294.203 291.11 294.336 291.363 294.423 291.656C294.51 291.943 294.553 292.256 294.553 292.596C294.553 292.73 294.546 292.856 294.533 292.976C294.52 293.096 294.506 293.186 294.493 293.246H291.523C291.59 293.606 291.736 293.873 291.963 294.046C292.196 294.213 292.48 294.296 292.813 294.296C293.166 294.296 293.523 294.186 293.883 293.966L294.373 294.856C294.12 295.03 293.836 295.166 293.523 295.266C293.216 295.366 292.913 295.416 292.613 295.416ZM291.513 292.276H293.303C293.303 291.996 293.24 291.77 293.113 291.596C292.986 291.423 292.773 291.336 292.473 291.336C292.24 291.336 292.033 291.413 291.853 291.566C291.68 291.72 291.566 291.956 291.513 292.276ZM295.569 295.296V290.336H296.769L296.869 291.206H296.909C297.089 290.866 297.306 290.616 297.559 290.456C297.812 290.296 298.066 290.216 298.319 290.216C298.459 290.216 298.572 290.226 298.659 290.246C298.752 290.26 298.836 290.283 298.909 290.316L298.669 291.586C298.576 291.56 298.489 291.54 298.409 291.526C298.329 291.513 298.236 291.506 298.129 291.506C297.942 291.506 297.746 291.573 297.539 291.706C297.339 291.84 297.172 292.076 297.039 292.416V295.296H295.569ZM299.553 295.296V290.336H300.753L300.853 291.206H300.893C301.073 290.866 301.29 290.616 301.543 290.456C301.797 290.296 302.05 290.216 302.303 290.216C302.443 290.216 302.557 290.226 302.643 290.246C302.737 290.26 302.82 290.283 302.893 290.316L302.653 291.586C302.56 291.56 302.473 291.54 302.393 291.526C302.313 291.513 302.22 291.506 302.113 291.506C301.927 291.506 301.73 291.573 301.523 291.706C301.323 291.84 301.157 292.076 301.023 292.416V295.296H299.553ZM304.504 295.416C304.278 295.416 304.071 295.376 303.884 295.296C303.704 295.223 303.551 295.12 303.424 294.986C303.298 294.846 303.198 294.686 303.124 294.506C303.058 294.326 303.024 294.13 303.024 293.916C303.024 293.396 303.244 292.99 303.684 292.696C304.124 292.403 304.834 292.206 305.814 292.106C305.801 291.886 305.734 291.713 305.614 291.586C305.501 291.453 305.308 291.386 305.034 291.386C304.821 291.386 304.608 291.426 304.394 291.506C304.188 291.586 303.964 291.696 303.724 291.836L303.194 290.866C303.514 290.673 303.848 290.516 304.194 290.396C304.548 290.276 304.921 290.216 305.314 290.216C305.954 290.216 306.441 290.4 306.774 290.766C307.114 291.126 307.284 291.69 307.284 292.456V295.296H306.084L305.984 294.786H305.944C305.731 294.973 305.508 295.126 305.274 295.246C305.041 295.36 304.784 295.416 304.504 295.416ZM305.004 294.276C305.171 294.276 305.314 294.24 305.434 294.166C305.554 294.093 305.681 293.99 305.814 293.856V292.986C305.294 293.06 304.934 293.166 304.734 293.306C304.534 293.446 304.434 293.613 304.434 293.806C304.434 293.966 304.484 294.086 304.584 294.166C304.691 294.24 304.831 294.276 305.004 294.276ZM308.648 295.296V288.776H312.758V290.016H310.118V291.526H312.378V292.766H310.118V295.296H308.648ZM315.726 295.416C315.413 295.416 315.11 295.36 314.816 295.246C314.523 295.126 314.263 294.956 314.036 294.736C313.816 294.516 313.64 294.246 313.506 293.926C313.373 293.6 313.306 293.23 313.306 292.816C313.306 292.403 313.373 292.036 313.506 291.716C313.64 291.39 313.816 291.116 314.036 290.896C314.263 290.676 314.523 290.51 314.816 290.396C315.11 290.276 315.413 290.216 315.726 290.216C316.04 290.216 316.34 290.276 316.626 290.396C316.92 290.51 317.176 290.676 317.396 290.896C317.623 291.116 317.803 291.39 317.936 291.716C318.07 292.036 318.136 292.403 318.136 292.816C318.136 293.23 318.07 293.6 317.936 293.926C317.803 294.246 317.623 294.516 317.396 294.736C317.176 294.956 316.92 295.126 316.626 295.246C316.34 295.36 316.04 295.416 315.726 295.416ZM315.726 294.226C316.026 294.226 316.253 294.1 316.406 293.846C316.56 293.593 316.636 293.25 316.636 292.816C316.636 292.383 316.56 292.04 316.406 291.786C316.253 291.533 316.026 291.406 315.726 291.406C315.42 291.406 315.19 291.533 315.036 291.786C314.89 292.04 314.816 292.383 314.816 292.816C314.816 293.25 314.89 293.593 315.036 293.846C315.19 294.1 315.42 294.226 315.726 294.226ZM319.143 295.296V290.336H320.343L320.443 291.206H320.483C320.663 290.866 320.88 290.616 321.133 290.456C321.386 290.296 321.64 290.216 321.893 290.216C322.033 290.216 322.146 290.226 322.233 290.246C322.326 290.26 322.41 290.283 322.483 290.316L322.243 291.586C322.15 291.56 322.063 291.54 321.983 291.526C321.903 291.513 321.81 291.506 321.703 291.506C321.516 291.506 321.32 291.573 321.113 291.706C320.913 291.84 320.746 292.076 320.613 292.416V295.296H319.143ZM323.128 295.296V290.336H324.328L324.428 290.976H324.468C324.674 290.77 324.894 290.593 325.128 290.446C325.361 290.293 325.641 290.216 325.968 290.216C326.321 290.216 326.604 290.29 326.818 290.436C327.038 290.576 327.211 290.78 327.338 291.046C327.558 290.82 327.788 290.626 328.028 290.466C328.274 290.3 328.564 290.216 328.898 290.216C329.431 290.216 329.821 290.396 330.068 290.756C330.321 291.11 330.448 291.596 330.448 292.216V295.296H328.978V292.406C328.978 292.046 328.928 291.8 328.828 291.666C328.734 291.533 328.581 291.466 328.368 291.466C328.121 291.466 327.838 291.626 327.518 291.946V295.296H326.048V292.406C326.048 292.046 325.998 291.8 325.898 291.666C325.804 291.533 325.651 291.466 325.438 291.466C325.184 291.466 324.904 291.626 324.598 291.946V295.296H323.128Z" fill="#000E1A"/>
</g>
<g clip-path="url(#clip3)">
<ellipse cx="304.5" cy="378.796" rx="47.5" ry="48" transform="rotate(90 304.5 378.796)" fill="white" stroke="#F94F24" stroke-width="0.5" stroke-linecap="round" stroke-linejoin="round" stroke-dasharray="2 2"/>
<path d="M304.864 362.546C300.653 362.546 297.227 366.081 297.227 370.425V382.854C297.227 383.651 297.853 384.296 298.625 384.296C299.397 384.296 300.023 383.651 300.023 382.854V370.425C300.023 367.671 302.195 365.431 304.864 365.431C307.533 365.431 309.704 367.671 309.704 370.425C309.704 373.179 307.533 375.419 304.864 375.419C304.092 375.419 303.466 376.065 303.466 376.861C303.466 377.658 304.092 378.304 304.864 378.304C309.074 378.304 312.5 374.769 312.5 370.425C312.5 366.081 309.074 362.546 304.864 362.546Z" fill="#522768"/>
<path d="M304.555 383.546C304.015 383.546 303.471 383.511 302.94 383.44L302.901 383.435C302.29 383.346 301.865 382.761 301.95 382.127C302.035 381.494 302.599 381.052 303.208 381.139C303.213 381.14 303.233 381.143 303.235 381.143C303.661 381.199 304.109 381.229 304.555 381.229C306.997 381.229 309.372 380.332 311.242 378.703C311.433 378.536 311.672 378.441 311.921 378.432C315.479 378.304 318.267 375.307 318.267 371.61C318.267 370.358 317.938 369.134 317.316 368.071C317.189 367.853 317.134 367.598 317.161 367.344C317.186 367.108 317.198 366.874 317.198 366.649C317.198 363.15 314.456 360.303 311.086 360.303C310.524 360.303 309.963 360.384 309.418 360.544C309.171 360.617 308.907 360.599 308.672 360.494C307.368 359.91 305.983 359.614 304.555 359.614C300.016 359.614 296.033 362.626 294.644 367.108C294.528 367.482 294.238 367.769 293.873 367.872C292.024 368.392 290.733 370.145 290.733 372.135C290.733 374.312 292.295 376.191 294.366 376.505C294.41 376.512 294.453 376.518 294.497 376.523C295.109 376.597 295.548 377.172 295.477 377.808C295.405 378.444 294.851 378.9 294.239 378.825C294.173 378.817 294.108 378.808 294.043 378.798C290.883 378.319 288.5 375.454 288.5 372.135C288.5 369.313 290.203 366.805 292.709 365.829C294.548 360.701 299.237 357.296 304.555 357.296C306.158 357.296 307.718 357.604 309.196 358.211C309.817 358.061 310.451 357.986 311.086 357.986C315.687 357.986 319.431 361.872 319.431 366.649C319.431 366.832 319.425 367.018 319.413 367.206C320.125 368.55 320.5 370.065 320.5 371.61C320.5 376.429 316.965 380.359 312.383 380.726C310.16 382.548 307.394 383.546 304.555 383.546Z" fill="#EE985D"/>
<path d="M290.508 399.296V392.776H292.748C293.108 392.776 293.445 392.813 293.758 392.886C294.072 392.953 294.345 393.07 294.578 393.236C294.812 393.396 294.995 393.613 295.128 393.886C295.268 394.153 295.338 394.483 295.338 394.876C295.338 395.256 295.268 395.586 295.128 395.866C294.995 396.146 294.812 396.376 294.578 396.556C294.345 396.736 294.075 396.87 293.768 396.956C293.462 397.043 293.135 397.086 292.788 397.086H291.978V399.296H290.508ZM291.978 395.916H292.698C293.498 395.916 293.898 395.57 293.898 394.876C293.898 394.536 293.792 394.296 293.578 394.156C293.365 394.016 293.058 393.946 292.658 393.946H291.978V395.916ZM297.835 399.416C297.295 399.416 296.902 399.24 296.655 398.886C296.415 398.533 296.295 398.043 296.295 397.416V394.336H297.765V397.226C297.765 397.586 297.815 397.833 297.915 397.966C298.015 398.1 298.172 398.166 298.385 398.166C298.572 398.166 298.729 398.123 298.855 398.036C298.982 397.95 299.119 397.81 299.265 397.616V394.336H300.735V399.296H299.535L299.425 398.606H299.395C299.182 398.86 298.952 399.06 298.705 399.206C298.465 399.346 298.175 399.416 297.835 399.416ZM303.379 399.416C303.126 399.416 302.912 399.376 302.739 399.296C302.566 399.216 302.426 399.106 302.319 398.966C302.219 398.82 302.146 398.646 302.099 398.446C302.052 398.24 302.029 398.01 302.029 397.756V392.286H303.499V397.816C303.499 397.97 303.526 398.076 303.579 398.136C303.639 398.196 303.699 398.226 303.759 398.226C303.792 398.226 303.819 398.226 303.839 398.226C303.866 398.226 303.899 398.22 303.939 398.206L304.119 399.296C304.039 399.33 303.936 399.356 303.809 399.376C303.689 399.403 303.546 399.416 303.379 399.416ZM306.38 399.416C305.84 399.416 305.447 399.24 305.2 398.886C304.96 398.533 304.84 398.043 304.84 397.416V394.336H306.31V397.226C306.31 397.586 306.36 397.833 306.46 397.966C306.56 398.1 306.717 398.166 306.93 398.166C307.117 398.166 307.274 398.123 307.4 398.036C307.527 397.95 307.664 397.81 307.81 397.616V394.336H309.28V399.296H308.08L307.97 398.606H307.94C307.727 398.86 307.497 399.06 307.25 399.206C307.01 399.346 306.72 399.416 306.38 399.416ZM310.574 399.296V394.336H311.774L311.874 394.976H311.914C312.12 394.77 312.34 394.593 312.574 394.446C312.807 394.293 313.087 394.216 313.414 394.216C313.767 394.216 314.05 394.29 314.264 394.436C314.484 394.576 314.657 394.78 314.784 395.046C315.004 394.82 315.234 394.626 315.474 394.466C315.72 394.3 316.01 394.216 316.344 394.216C316.877 394.216 317.267 394.396 317.514 394.756C317.767 395.11 317.894 395.596 317.894 396.216V399.296H316.424V396.406C316.424 396.046 316.374 395.8 316.274 395.666C316.18 395.533 316.027 395.466 315.814 395.466C315.567 395.466 315.284 395.626 314.964 395.946V399.296H313.494V396.406C313.494 396.046 313.444 395.8 313.344 395.666C313.25 395.533 313.097 395.466 312.884 395.466C312.63 395.466 312.35 395.626 312.044 395.946V399.296H310.574ZM319.148 399.296V394.336H320.618V399.296H319.148ZM319.878 393.606C319.631 393.606 319.428 393.536 319.268 393.396C319.108 393.25 319.028 393.063 319.028 392.836C319.028 392.61 319.108 392.426 319.268 392.286C319.428 392.146 319.631 392.076 319.878 392.076C320.131 392.076 320.335 392.146 320.488 392.286C320.648 392.426 320.728 392.61 320.728 392.836C320.728 393.063 320.648 393.25 320.488 393.396C320.335 393.536 320.131 393.606 319.878 393.606Z" fill="#000E1A"/>
</g>
<path fill-rule="evenodd" clip-rule="evenodd" d="M42.1601 227.742C42.1823 227.539 42.3538 227.385 42.558 227.385C42.7623 227.385 42.9337 227.539 42.956 227.742C42.956 228.653 42.9941 229.579 43.0465 230.489C43.0544 230.596 43.0187 230.7 42.9476 230.78C42.8766 230.859 42.7763 230.906 42.67 230.909C42.5651 230.916 42.4618 230.88 42.3831 230.81C42.3044 230.741 42.2568 230.642 42.2506 230.537C42.1982 229.612 42.1696 228.672 42.1601 227.752V227.742ZM42.198 224.957C42.2362 224.031 42.2886 223.092 42.3696 222.176C42.3781 222.071 42.4282 221.973 42.5087 221.905C42.5892 221.837 42.6936 221.804 42.7986 221.814C42.9041 221.821 43.0022 221.87 43.0705 221.951C43.1388 222.032 43.1713 222.137 43.1608 222.243C43.0845 223.149 43.0273 224.07 42.994 224.99C42.9902 225.095 42.9449 225.194 42.8681 225.266C42.7912 225.337 42.689 225.375 42.5841 225.372C42.3641 225.361 42.1926 225.177 42.198 224.957ZM42.4698 233.279C42.4593 233.061 42.6278 232.875 42.8463 232.864C43.0648 232.854 43.2504 233.022 43.261 233.241C43.3563 234.152 43.4754 235.073 43.6089 235.969C43.6266 236.074 43.6011 236.181 43.5382 236.267C43.4753 236.352 43.3804 236.408 43.2753 236.422C43.0585 236.454 42.8567 236.305 42.8225 236.088C42.6843 235.177 42.5699 234.247 42.4746 233.322L42.4698 233.279ZM42.6651 219.448V219.396C42.7842 218.475 42.932 217.545 43.094 216.644C43.1124 216.537 43.1736 216.442 43.2635 216.38C43.3533 216.319 43.4642 216.297 43.5706 216.32C43.6775 216.338 43.7722 216.399 43.8326 216.489C43.893 216.58 43.9137 216.691 43.8899 216.796C43.7279 217.693 43.5897 218.604 43.4658 219.515C43.4527 219.62 43.3986 219.715 43.3154 219.779C43.2322 219.843 43.1268 219.872 43.0225 219.859C42.8081 219.834 42.6509 219.645 42.6651 219.429V219.448ZM43.299 238.788C43.2896 238.578 43.4465 238.397 43.656 238.376C43.8655 238.356 44.0542 238.503 44.0854 238.712C44.2665 239.608 44.4714 240.51 44.6906 241.392C44.7415 241.604 44.6115 241.817 44.3999 241.869C44.19 241.918 43.9794 241.791 43.9233 241.583C43.6993 240.686 43.4944 239.775 43.3133 238.864L43.299 238.788ZM43.6516 213.987V213.896C43.8613 213 44.0901 212.089 44.3427 211.197C44.4028 210.992 44.6122 210.871 44.8193 210.92C45.0232 210.98 45.1432 211.191 45.091 211.397C44.8479 212.279 44.6144 213.176 44.4142 214.063C44.3624 214.275 44.1504 214.407 43.9376 214.359C43.7644 214.309 43.6468 214.148 43.6516 213.968V213.987ZM44.6478 244.173C44.6431 243.973 44.788 243.801 44.9857 243.772C45.1833 243.743 45.3716 243.866 45.4247 244.059C45.6916 244.937 45.9775 245.814 46.2825 246.673C46.3325 246.874 46.2211 247.08 46.0256 247.148C45.8302 247.216 45.6151 247.124 45.5295 246.935C45.2245 246.067 44.9338 245.175 44.6621 244.288L44.6478 244.173ZM45.1528 208.621C45.1459 208.579 45.1459 208.535 45.1528 208.493C45.4483 207.61 45.7676 206.728 46.106 205.865C46.1571 205.733 46.2747 205.638 46.4145 205.616C46.5544 205.594 46.6952 205.649 46.7839 205.759C46.8726 205.869 46.8958 206.019 46.8447 206.151C46.5159 207.005 46.2013 207.873 45.8916 208.745C45.8317 208.931 45.6451 209.046 45.4524 209.015C45.2596 208.984 45.1182 208.817 45.1195 208.621H45.1528ZM46.5016 249.381C46.4993 249.191 46.6329 249.026 46.8196 248.988C47.0063 248.951 47.1931 249.052 47.2642 249.229C47.6121 250.078 47.9791 250.922 48.3651 251.742C48.4349 251.938 48.344 252.154 48.1556 252.241C47.9672 252.328 47.7438 252.256 47.6407 252.076C47.2547 251.246 46.8829 250.388 46.5302 249.529C46.5121 249.484 46.5024 249.435 46.5016 249.386V249.381ZM47.1357 203.437C47.1352 203.381 47.1466 203.325 47.169 203.274C47.5408 202.435 47.9411 201.586 48.3605 200.751C48.4592 200.555 48.6982 200.476 48.8943 200.575C49.0904 200.674 49.1693 200.913 49.0706 201.109C48.6608 201.934 48.2652 202.769 47.8982 203.599C47.8191 203.767 47.6346 203.859 47.4527 203.82C47.2708 203.781 47.1395 203.623 47.1357 203.437ZM48.837 254.408C48.8361 254.225 48.9613 254.065 49.1395 254.021C49.3178 253.978 49.5023 254.063 49.5853 254.227C50.0095 255.028 50.4575 255.839 50.9198 256.612C50.9913 256.734 50.992 256.886 50.9215 257.009C50.8511 257.133 50.7203 257.209 50.5784 257.21C50.4365 257.21 50.305 257.135 50.2335 257.012C49.7569 256.216 49.3089 255.395 48.8847 254.58C48.8551 254.527 48.8388 254.468 48.837 254.408ZM49.652 198.471C49.6514 198.403 49.6678 198.336 49.6996 198.276C50.1762 197.465 50.6528 196.659 51.1294 195.891C51.1846 195.801 51.2736 195.736 51.3766 195.712C51.4796 195.688 51.5879 195.706 51.6775 195.762C51.8633 195.879 51.9207 196.124 51.8062 196.311C51.3296 197.084 50.853 197.88 50.3764 198.696C50.2896 198.856 50.1043 198.937 49.9279 198.89C49.7514 198.844 49.6296 198.683 49.6329 198.5L49.652 198.471ZM51.6394 259.178C51.6364 259 51.7514 258.843 51.9211 258.792C52.0907 258.741 52.2735 258.809 52.3686 258.958C52.8452 259.726 53.3885 260.484 53.9223 261.224C54.0075 261.339 54.0248 261.49 53.9678 261.622C53.9109 261.753 53.7882 261.844 53.6461 261.86C53.504 261.877 53.3641 261.816 53.2789 261.701C52.7404 260.952 52.2113 260.179 51.7062 259.402C51.6601 259.336 51.6367 259.258 51.6394 259.178ZM52.5926 193.75C52.5928 193.669 52.6178 193.591 52.6641 193.525C53.1931 192.757 53.7459 192.004 54.3083 191.269C54.445 191.113 54.6796 191.089 54.8452 191.214C55.0109 191.34 55.0512 191.572 54.9374 191.746C54.3846 192.467 53.8413 193.215 53.317 193.969C53.2193 194.115 53.0367 194.18 52.8689 194.127C52.7012 194.074 52.5885 193.916 52.5926 193.74V193.75ZM54.8754 263.675C54.8719 263.504 54.9789 263.35 55.1405 263.294C55.3022 263.237 55.4818 263.291 55.5855 263.427C56.1527 264.138 56.7437 264.858 57.3442 265.536C57.4879 265.702 57.4709 265.953 57.306 266.098C57.1415 266.242 56.892 266.225 56.7484 266.06C56.1384 265.364 55.5379 264.629 54.9612 263.923C54.9099 263.854 54.8815 263.771 54.8802 263.685L54.8754 263.675ZM55.9718 189.342C55.9703 189.25 56.0025 189.16 56.0623 189.09C56.6628 188.379 57.2824 187.659 57.9115 187.001C58.0077 186.897 58.152 186.852 58.2901 186.883C58.4281 186.915 58.5389 187.018 58.5808 187.153C58.6226 187.288 58.5892 187.436 58.493 187.54C57.8734 188.207 57.2633 188.904 56.6724 189.6C56.5655 189.73 56.3885 189.778 56.2309 189.72C56.0733 189.662 55.9694 189.51 55.9718 189.342ZM58.531 267.849C58.5296 267.741 58.5727 267.638 58.6501 267.563C58.806 267.409 59.0566 267.409 59.2125 267.563C59.8416 268.221 60.4993 268.87 61.1665 269.499C61.3179 269.656 61.3179 269.905 61.1665 270.062C61.0106 270.216 60.7601 270.216 60.6042 270.062C59.9322 269.428 59.2649 268.765 58.6263 268.102C58.5693 268.033 58.5374 267.947 58.5357 267.858L58.531 267.849ZM59.7464 185.274C59.7458 185.167 59.7889 185.066 59.8656 184.992C60.5233 184.344 61.2096 183.704 61.9006 183.084C61.9779 183.013 62.0805 182.976 62.1854 182.981C62.2904 182.987 62.3887 183.034 62.4583 183.113C62.6044 183.277 62.5917 183.528 62.4297 183.676C61.7481 184.286 61.0714 184.916 60.4232 185.555C60.2673 185.709 60.0167 185.709 59.8608 185.555C59.7904 185.482 59.7511 185.385 59.7512 185.283L59.7464 185.274ZM62.5583 271.665C62.5589 271.569 62.5926 271.476 62.6536 271.402C62.7975 271.236 63.0486 271.217 63.216 271.359C63.9071 271.956 64.622 272.542 65.3416 273.105C65.4751 273.247 65.4865 273.465 65.3687 273.621C65.2509 273.777 65.0382 273.825 64.865 273.735C64.1358 273.162 63.4114 272.566 62.7108 271.965C62.623 271.893 62.5694 271.788 62.5631 271.674L62.5583 271.665ZM63.8833 181.583C63.8849 181.463 63.9388 181.349 64.031 181.273C64.7507 180.691 65.4894 180.118 66.2329 179.57C66.4106 179.438 66.6613 179.476 66.7929 179.653C66.9245 179.831 66.8872 180.082 66.7095 180.214C65.9755 180.753 65.2464 181.316 64.5362 181.893C64.3658 182.029 64.1179 182.003 63.9786 181.835C63.9216 181.767 63.8897 181.681 63.8881 181.592L63.8833 181.583ZM66.9334 275.065C66.9313 274.981 66.9564 274.899 67.0049 274.831C67.0661 274.746 67.1588 274.688 67.2625 274.671C67.3663 274.654 67.4725 274.679 67.5577 274.741C68.306 275.265 69.0733 275.785 69.8406 276.277C70.0249 276.395 70.0782 276.641 69.9598 276.825C69.8413 277.009 69.596 277.063 69.4117 276.944C68.6349 276.467 67.858 275.924 67.1002 275.389C67.0054 275.319 66.9461 275.211 66.9382 275.094L66.9334 275.065ZM68.3632 178.277C68.3624 178.145 68.4288 178.021 68.5395 177.948C69.3021 177.438 70.098 176.937 70.8939 176.46C71.0821 176.348 71.3253 176.41 71.4372 176.598C71.5491 176.787 71.4872 177.03 71.299 177.142C70.5174 177.619 69.7358 178.096 68.978 178.611C68.8901 178.669 68.783 178.689 68.6802 178.668C68.5774 178.646 68.4873 178.585 68.4299 178.497C68.3871 178.441 68.3606 178.375 68.3536 178.306L68.3632 178.277ZM71.6231 278.056C71.6219 277.988 71.64 277.92 71.6755 277.861C71.7855 277.671 72.0278 277.605 72.2188 277.713C73.0052 278.19 73.8202 278.61 74.6351 279.029C74.8299 279.13 74.9067 279.369 74.8067 279.564C74.7067 279.759 74.4677 279.835 74.2729 279.735C73.4437 279.311 72.6191 278.863 71.8232 278.4C71.7039 278.338 71.6247 278.219 71.6135 278.085L71.6231 278.056ZM73.1148 175.43C73.1142 175.283 73.1951 175.149 73.3245 175.081C74.1347 174.643 74.9687 174.218 75.8028 173.822C75.9305 173.761 76.0812 173.772 76.1981 173.852C76.3151 173.932 76.3805 174.069 76.3697 174.21C76.3589 174.352 76.2736 174.476 76.1459 174.538C75.3214 174.934 74.5017 175.349 73.701 175.778C73.6082 175.828 73.4991 175.84 73.3979 175.809C73.2967 175.779 73.212 175.709 73.1624 175.616C73.1317 175.568 73.1121 175.514 73.1052 175.458L73.1148 175.43ZM76.5559 280.641C76.555 280.585 76.5664 280.53 76.5893 280.479C76.6802 280.278 76.9169 280.188 77.1183 280.279C77.9428 280.655 78.7911 281.018 79.649 281.361C79.7472 281.399 79.8261 281.475 79.8681 281.572C79.9102 281.669 79.9119 281.778 79.873 281.876C79.7913 282.082 79.5588 282.182 79.3535 282.1C78.4861 281.752 77.6235 281.385 76.7847 281.003C76.6448 280.937 76.5557 280.796 76.5559 280.641ZM78.1144 173.074C78.1123 172.913 78.2087 172.767 78.3575 172.706C79.2058 172.349 80.0732 172.01 80.9454 171.69C81.1519 171.617 81.3793 171.723 81.4553 171.929C81.5263 172.135 81.4209 172.361 81.217 172.439C80.3592 172.749 79.5013 173.088 78.6673 173.441C78.5701 173.483 78.46 173.484 78.362 173.444C78.2641 173.403 78.1868 173.325 78.1478 173.226C78.1249 173.179 78.1135 173.126 78.1144 173.074ZM81.7317 282.678C81.7327 282.634 81.7407 282.59 81.7555 282.549C81.789 282.449 81.8615 282.366 81.9567 282.32C82.0519 282.275 82.1615 282.269 82.2607 282.306C83.1138 282.597 83.9955 282.878 84.8772 283.136C85.0134 283.175 85.1184 283.284 85.1526 283.421C85.1868 283.559 85.145 283.704 85.043 283.803C84.9409 283.901 84.7942 283.938 84.658 283.899C83.762 283.636 82.8707 283.355 81.9986 283.054C81.8333 283.003 81.7198 282.851 81.7174 282.678H81.7317ZM83.3188 171.17C83.3191 170.998 83.4309 170.845 83.5952 170.793C84.4769 170.517 85.3777 170.259 86.2737 170.026C86.4107 169.99 86.5565 170.03 86.656 170.131C86.7555 170.232 86.7936 170.378 86.7561 170.515C86.7185 170.651 86.6109 170.758 86.4738 170.793C85.5874 171.027 84.7009 171.27 83.8335 171.552C83.6299 171.607 83.4189 171.491 83.3569 171.289C83.3317 171.254 83.3138 171.213 83.3045 171.17H83.3188ZM87.0552 284.208C87.0505 284.177 87.0505 284.145 87.0552 284.113C87.1069 283.901 87.32 283.771 87.5318 283.822C88.4182 284.032 89.3238 284.227 90.2198 284.399C90.4356 284.44 90.5775 284.648 90.5367 284.864C90.4959 285.08 90.2879 285.222 90.072 285.181C89.1617 285.005 88.2467 284.809 87.3459 284.595C87.1761 284.553 87.0526 284.407 87.0409 284.232L87.0552 284.208ZM88.6853 169.74C88.6858 169.553 88.817 169.392 88.9999 169.354C89.9006 169.163 90.8204 168.991 91.7403 168.843C91.8439 168.827 91.9499 168.852 92.0348 168.914C92.1197 168.976 92.1766 169.069 92.193 169.172C92.2182 169.28 92.1969 169.393 92.1342 169.484C92.0716 169.575 91.9735 169.635 91.8642 169.649C90.9587 169.792 90.0531 169.964 89.1619 170.15C89.0582 170.174 88.9491 170.155 88.8594 170.098C88.7697 170.04 88.7069 169.949 88.6853 169.845C88.6772 169.822 88.6724 169.798 88.671 169.773L88.6853 169.74ZM92.4981 285.234V285.177C92.5142 285.068 92.5744 284.97 92.6645 284.907C92.7547 284.844 92.8669 284.821 92.9747 284.843C93.8802 284.967 94.7953 285.076 95.7008 285.162C95.9193 285.182 96.0804 285.375 96.0606 285.594C96.0409 285.813 95.8478 285.974 95.6293 285.954C94.7095 285.868 93.7801 285.758 92.8603 285.63C92.6661 285.614 92.5112 285.461 92.4933 285.267L92.4981 285.234ZM94.147 168.857C94.1507 168.655 94.3038 168.488 94.5044 168.466C95.4243 168.361 96.3536 168.28 97.2782 168.218C97.4967 168.205 97.6845 168.371 97.6976 168.59C97.7108 168.809 97.5444 168.997 97.3259 169.01C96.4204 169.072 95.5005 169.153 94.5902 169.258C94.4852 169.27 94.3797 169.239 94.2974 169.173C94.215 169.107 94.1625 169.01 94.1518 168.905L94.147 168.857ZM98.0169 285.754C98.0272 285.534 98.2121 285.364 98.4315 285.372C99.337 285.415 100.262 285.439 101.181 285.439C101.901 285.439 102.635 285.439 103.36 285.396C103.579 285.391 103.762 285.563 103.769 285.783C103.772 285.999 103.604 286.18 103.388 286.193C102.654 286.221 101.911 286.231 101.181 286.231C100.252 286.231 99.3132 286.231 98.3981 286.169C98.1898 286.162 98.0219 285.996 98.0121 285.787L98.0169 285.754ZM99.6802 168.557C99.6789 168.452 99.7194 168.351 99.7927 168.276C99.866 168.2 99.9661 168.158 100.071 168.156C100.438 168.156 100.805 168.156 101.177 168.156C101.734 168.156 102.297 168.156 102.854 168.18C103.071 168.193 103.241 168.373 103.24 168.59C103.233 168.81 103.05 168.982 102.83 168.977C102.282 168.977 101.73 168.953 101.177 168.953C100.81 168.953 100.448 168.953 100.085 168.953C99.866 168.955 99.6854 168.781 99.6802 168.562V168.557ZM105.223 168.714V168.681C105.243 168.462 105.433 168.299 105.652 168.313C106.572 168.385 107.501 168.475 108.421 168.59C108.638 168.616 108.793 168.814 108.767 169.031C108.74 169.248 108.543 169.403 108.326 169.377C107.415 169.267 106.496 169.177 105.59 169.11C105.373 169.095 105.209 168.907 105.223 168.69V168.714ZM105.747 285.663C105.749 285.458 105.905 285.287 106.11 285.267C107.025 285.191 107.94 285.095 108.84 284.976C109.058 284.947 109.257 285.1 109.286 285.317C109.315 285.535 109.162 285.734 108.945 285.763C108.035 285.882 107.101 285.983 106.176 286.064C105.958 286.08 105.767 285.919 105.747 285.701V285.663ZM110.728 169.363V169.296C110.745 169.188 110.806 169.092 110.896 169.031C110.986 168.97 111.098 168.948 111.204 168.972C112.119 169.129 113.039 169.31 113.94 169.506C114.079 169.537 114.191 169.639 114.233 169.775C114.276 169.91 114.244 170.059 114.148 170.163C114.052 170.268 113.907 170.314 113.768 170.283C112.882 170.088 111.976 169.911 111.071 169.754C110.875 169.728 110.728 169.561 110.728 169.363ZM111.242 284.933C111.244 284.741 111.382 284.577 111.571 284.542C112.467 284.38 113.373 284.194 114.264 283.989C114.367 283.965 114.476 283.983 114.565 284.039C114.655 284.096 114.718 284.186 114.741 284.289C114.766 284.392 114.749 284.501 114.694 284.59C114.638 284.68 114.548 284.744 114.445 284.766C113.544 284.976 112.625 285.162 111.719 285.329C111.613 285.353 111.502 285.332 111.412 285.272C111.322 285.211 111.261 285.117 111.242 285.01V284.933ZM116.142 170.56C116.137 170.525 116.137 170.49 116.142 170.455C116.198 170.247 116.409 170.122 116.618 170.174C117.514 170.417 118.41 170.684 119.292 170.965C119.482 171.048 119.578 171.261 119.514 171.458C119.449 171.654 119.246 171.77 119.044 171.724C118.177 171.442 117.29 171.18 116.413 170.942C116.25 170.886 116.141 170.732 116.142 170.56ZM116.647 283.675C116.647 283.496 116.766 283.34 116.938 283.293C117.815 283.045 118.696 282.773 119.564 282.487C119.772 282.417 119.997 282.529 120.067 282.737C120.136 282.946 120.024 283.171 119.816 283.241C118.935 283.536 118.039 283.808 117.152 284.056C117.033 284.091 116.904 284.067 116.804 283.992C116.705 283.917 116.647 283.799 116.647 283.675ZM121.413 172.268C121.414 172.219 121.422 172.171 121.437 172.125C121.474 172.023 121.551 171.942 121.65 171.898C121.749 171.855 121.862 171.854 121.961 171.896C122.824 172.22 123.696 172.573 124.549 172.941C124.646 172.982 124.723 173.061 124.761 173.16C124.8 173.259 124.797 173.368 124.754 173.465C124.665 173.666 124.431 173.757 124.23 173.67C123.391 173.308 122.533 172.96 121.68 172.64C121.528 172.579 121.427 172.432 121.427 172.268H121.413ZM121.89 281.924C121.891 281.758 121.993 281.611 122.147 281.552C122.991 281.223 123.844 280.87 124.678 280.502C124.807 280.444 124.958 280.46 125.072 280.543C125.187 280.626 125.249 280.765 125.234 280.906C125.22 281.047 125.131 281.169 125.002 281.227C124.153 281.604 123.291 281.962 122.433 282.291C122.335 282.33 122.226 282.328 122.129 282.286C122.032 282.244 121.956 282.165 121.918 282.067C121.906 282.02 121.903 281.972 121.909 281.924H121.89ZM126.527 174.471C126.528 174.334 126.599 174.208 126.715 174.136C126.831 174.063 126.975 174.055 127.099 174.113C127.933 174.524 128.767 174.953 129.577 175.401C129.701 175.47 129.779 175.6 129.782 175.743C129.784 175.885 129.711 176.017 129.589 176.091C129.467 176.164 129.315 176.167 129.191 176.098C128.395 175.659 127.571 175.229 126.751 174.829C126.614 174.763 126.527 174.624 126.527 174.471ZM126.97 279.687C126.97 279.535 127.055 279.397 127.189 279.329C128.004 278.923 128.819 278.489 129.615 278.046C129.706 277.993 129.815 277.98 129.917 278.008C130.018 278.037 130.104 278.106 130.154 278.198C130.206 278.29 130.22 278.399 130.191 278.5C130.162 278.602 130.094 278.687 130.001 278.737C129.196 279.214 128.371 279.629 127.547 280.044C127.349 280.138 127.113 280.058 127.013 279.863C126.985 279.808 126.97 279.748 126.97 279.687ZM131.393 177.142C131.394 177.069 131.415 176.998 131.455 176.937C131.509 176.847 131.597 176.783 131.699 176.758C131.801 176.732 131.908 176.749 131.998 176.803C132.789 177.28 133.576 177.8 134.343 178.32C134.461 178.4 134.526 178.537 134.516 178.679C134.505 178.821 134.42 178.946 134.292 179.008C134.164 179.07 134.013 179.058 133.895 178.978C133.142 178.468 132.365 177.962 131.584 177.485C131.465 177.411 131.393 177.282 131.393 177.142ZM131.803 276.964C131.801 276.827 131.872 276.7 131.989 276.63C132.761 276.153 133.533 275.638 134.281 275.118C134.398 275.033 134.551 275.016 134.683 275.075C134.815 275.133 134.906 275.258 134.921 275.401C134.937 275.545 134.874 275.686 134.758 275.771C133.995 276.301 133.214 276.816 132.432 277.302C132.246 277.418 132.002 277.363 131.884 277.178C131.839 277.117 131.811 277.044 131.803 276.968V276.964ZM135.983 180.276C135.981 180.189 136.01 180.105 136.064 180.037C136.194 179.862 136.441 179.826 136.616 179.956C137.355 180.514 138.089 181.096 138.804 181.687C138.886 181.754 138.938 181.85 138.948 181.955C138.958 182.06 138.925 182.165 138.856 182.245C138.789 182.326 138.693 182.378 138.588 182.387C138.484 182.397 138.38 182.365 138.299 182.298C137.593 181.716 136.869 181.139 136.14 180.595C136.04 180.519 135.982 180.401 135.983 180.276ZM136.354 273.811C136.356 273.688 136.414 273.572 136.512 273.496C137.236 272.943 137.941 272.361 138.651 271.774C138.821 271.635 139.07 271.657 139.214 271.822C139.355 271.991 139.334 272.242 139.166 272.385C138.461 272.981 137.736 273.568 136.993 274.131C136.872 274.22 136.71 274.234 136.576 274.167C136.441 274.099 136.355 273.962 136.354 273.811ZM140.253 183.819C140.252 183.72 140.29 183.624 140.358 183.552C140.506 183.39 140.757 183.377 140.92 183.523C141.602 184.148 142.278 184.797 142.931 185.431C143.006 185.505 143.049 185.607 143.049 185.712C143.049 185.818 143.006 185.92 142.931 185.994C142.774 186.145 142.526 186.145 142.369 185.994C141.726 185.345 141.058 184.706 140.382 184.086C140.305 184.017 140.259 183.921 140.253 183.819ZM140.596 270.239C140.596 270.128 140.643 270.022 140.725 269.948C141.392 269.328 142.054 268.684 142.693 268.04C142.85 267.888 143.099 267.888 143.255 268.04C143.331 268.114 143.373 268.216 143.373 268.321C143.373 268.427 143.331 268.528 143.255 268.603C142.607 269.266 141.935 269.919 141.259 270.544C141.143 270.653 140.974 270.682 140.829 270.619C140.683 270.556 140.59 270.412 140.591 270.253L140.596 270.239ZM144.17 187.726C144.172 187.561 144.274 187.414 144.427 187.355C144.581 187.296 144.755 187.337 144.866 187.459C145.49 188.146 146.101 188.856 146.687 189.567C146.754 189.648 146.786 189.752 146.776 189.857C146.766 189.962 146.715 190.058 146.634 190.125C146.465 190.262 146.217 190.239 146.077 190.073C145.495 189.372 144.89 188.675 144.275 187.993C144.213 187.925 144.176 187.837 144.17 187.745V187.726ZM144.485 266.261C144.485 266.163 144.521 266.068 144.585 265.994C145.195 265.312 145.796 264.606 146.368 263.905C146.512 263.784 146.72 263.78 146.869 263.895C147.017 264.009 147.067 264.212 146.987 264.382C146.406 265.097 145.796 265.813 145.176 266.504C145.107 266.583 145.008 266.63 144.903 266.636C144.798 266.641 144.696 266.604 144.619 266.533C144.543 266.469 144.495 266.379 144.485 266.28V266.261ZM147.697 192.023C147.699 191.897 147.759 191.779 147.859 191.704C148.034 191.573 148.282 191.61 148.412 191.785C148.97 192.524 149.513 193.287 150.033 194.05C150.113 194.168 150.124 194.319 150.062 194.447C150 194.575 149.875 194.661 149.733 194.671C149.591 194.682 149.455 194.616 149.375 194.498C148.865 193.745 148.326 192.991 147.778 192.262C147.727 192.193 147.699 192.109 147.697 192.023ZM147.978 261.973C147.978 261.888 148.005 261.804 148.055 261.735C148.598 261.005 149.127 260.247 149.637 259.483C149.695 259.395 149.787 259.333 149.89 259.313C149.994 259.292 150.102 259.314 150.19 259.374C150.372 259.497 150.421 259.744 150.299 259.927C149.785 260.695 149.246 261.463 148.698 262.207C148.595 262.343 148.417 262.399 148.255 262.346C148.093 262.294 147.982 262.144 147.978 261.973ZM150.809 196.631C150.809 196.492 150.881 196.363 151 196.292C151.187 196.177 151.432 196.235 151.548 196.421C152.025 197.208 152.501 198.018 152.945 198.805C153.028 198.996 152.951 199.218 152.769 199.317C152.587 199.417 152.359 199.36 152.244 199.187C151.806 198.39 151.343 197.589 150.871 196.802C150.835 196.745 150.815 196.679 150.814 196.611L150.809 196.631ZM151.062 257.371C151.06 257.299 151.078 257.228 151.114 257.166C151.591 256.384 152.044 255.582 152.477 254.781C152.581 254.587 152.822 254.515 153.016 254.619C153.209 254.723 153.282 254.964 153.178 255.158C152.735 255.978 152.272 256.794 151.796 257.585C151.742 257.675 151.654 257.74 151.552 257.765C151.45 257.79 151.342 257.773 151.253 257.719C151.126 257.642 151.054 257.5 151.067 257.352L151.062 257.371ZM153.478 201.467C153.475 201.28 153.602 201.117 153.784 201.074C153.965 201.032 154.152 201.122 154.231 201.29C154.637 202.12 155.027 202.969 155.394 203.818C155.481 204.02 155.388 204.254 155.187 204.341C154.986 204.427 154.752 204.335 154.665 204.133C154.303 203.298 153.917 202.459 153.517 201.639C153.493 201.584 153.48 201.526 153.478 201.467ZM153.693 252.448C153.693 252.39 153.708 252.332 153.736 252.281C154.131 251.451 154.508 250.607 154.86 249.768C154.915 249.636 155.035 249.544 155.176 249.526C155.317 249.507 155.457 249.566 155.543 249.678C155.629 249.791 155.649 249.942 155.594 250.073C155.237 250.927 154.851 251.785 154.451 252.62C154.406 252.716 154.325 252.79 154.226 252.826C154.127 252.861 154.017 252.856 153.922 252.811C153.784 252.744 153.696 252.606 153.693 252.453V252.448ZM155.671 206.551C155.667 206.357 155.803 206.189 155.994 206.154C156.184 206.118 156.372 206.226 156.438 206.408C156.762 207.276 157.072 208.158 157.358 209.041C157.425 209.25 157.31 209.474 157.1 209.541C156.891 209.609 156.667 209.493 156.6 209.284C156.319 208.416 156.014 207.543 155.695 206.689C155.678 206.647 155.67 206.601 155.671 206.556V206.551ZM155.852 247.326C155.842 247.28 155.842 247.233 155.852 247.188C156.161 246.329 156.462 245.452 156.733 244.579C156.8 244.368 157.023 244.251 157.234 244.316C157.434 244.38 157.547 244.591 157.491 244.793C157.215 245.681 156.915 246.572 156.595 247.44C156.56 247.54 156.486 247.622 156.39 247.666C156.294 247.711 156.184 247.716 156.085 247.679C155.947 247.618 155.856 247.482 155.852 247.331V247.326ZM157.372 211.836C157.372 211.638 157.519 211.47 157.715 211.444C157.911 211.418 158.096 211.54 158.149 211.731C158.392 212.628 158.626 213.539 158.816 214.44C158.847 214.579 158.801 214.724 158.696 214.82C158.592 214.916 158.443 214.948 158.308 214.905C158.172 214.862 158.07 214.751 158.039 214.612C157.844 213.72 157.62 212.823 157.387 211.941C157.375 211.907 157.37 211.871 157.372 211.836ZM157.505 242.027V241.922C157.734 241.044 157.944 240.143 158.135 239.246C158.164 239.107 158.266 238.995 158.401 238.951C158.536 238.908 158.684 238.94 158.789 239.035C158.895 239.13 158.941 239.274 158.911 239.413C158.721 240.319 158.506 241.235 158.273 242.127C158.229 242.327 158.039 242.461 157.836 242.435C157.633 242.409 157.483 242.232 157.491 242.027H157.505ZM158.559 217.259C158.568 217.058 158.725 216.895 158.925 216.878C159.126 216.861 159.307 216.995 159.35 217.192C159.507 218.103 159.641 219.028 159.755 219.949C159.778 220.166 159.624 220.363 159.407 220.392C159.189 220.418 158.991 220.262 158.964 220.044C158.854 219.138 158.721 218.222 158.568 217.326L158.559 217.259ZM158.659 236.594V236.532C158.802 235.636 158.926 234.72 159.031 233.809C159.046 233.667 159.136 233.545 159.266 233.488C159.396 233.43 159.547 233.446 159.661 233.53C159.776 233.614 159.837 233.753 159.822 233.895C159.717 234.82 159.588 235.75 159.441 236.656C159.409 236.861 159.225 237.006 159.019 236.99C158.813 236.973 158.654 236.801 158.654 236.594H158.659ZM159.245 222.763C159.244 222.554 159.404 222.379 159.612 222.362C159.717 222.354 159.821 222.388 159.9 222.457C159.98 222.526 160.029 222.624 160.036 222.729C160.103 223.645 160.151 224.58 160.179 225.515C160.164 225.719 159.997 225.879 159.792 225.885C159.587 225.891 159.411 225.742 159.383 225.538C159.383 224.618 159.312 223.693 159.245 222.791V222.763ZM159.279 231.076V231.038C159.34 230.132 159.379 229.206 159.398 228.291C159.4 228.186 159.444 228.086 159.52 228.014C159.596 227.941 159.698 227.902 159.803 227.904C159.908 227.906 160.009 227.949 160.081 228.026C160.154 228.102 160.193 228.204 160.189 228.31C160.189 229.235 160.132 230.17 160.074 231.09C160.052 231.294 159.881 231.447 159.676 231.447C159.472 231.447 159.301 231.294 159.279 231.09V231.076Z" fill="#F94F24"/>
<ellipse cx="101.157" cy="227.186" rx="51.0717" ry="51.0717" transform="rotate(45 101.157 227.186)" fill="#F94F24"/>
<path fill-rule="evenodd" clip-rule="evenodd" d="M122.142 242.359L103.899 252.75C102.172 253.734 100.045 253.734 98.3188 252.75L80.075 242.359C78.3484 241.375 77.2849 239.558 77.2849 237.591V216.808C77.2849 214.841 78.3484 213.024 80.075 212.04L98.3188 201.649C100.045 200.665 102.172 200.665 103.899 201.649L122.142 212.04C123.869 213.024 124.932 214.841 124.932 216.808V237.591C124.932 239.558 123.869 241.375 122.142 242.359ZM112.228 218.468C110.823 222.215 109.408 225.972 107.993 229.732H107.544C106.133 225.963 104.719 222.197 103.308 218.437H98.9088C97.4792 222.238 96.0643 226.004 94.6494 229.774H94.2387C92.8045 225.967 91.3702 222.161 89.984 218.487H84.7297C87.2846 225.401 89.7765 232.142 92.2683 238.883H96.6051L100.899 227.478H101.333C102.768 231.302 104.197 235.132 105.602 238.874H109.949C112.45 232.105 114.942 225.36 117.487 218.468H112.228Z" fill="white"/>
<g style="mix-blend-mode:multiply">
<path fill-rule="evenodd" clip-rule="evenodd" d="M144.541 280.507C144.376 278.459 144.189 276.41 144.007 274.361C143.932 273.51 143.622 273.242 142.746 273.221C141.207 273.179 139.668 273.122 138.124 273.095C137.65 273.155 137.208 272.846 137.109 272.386C136.897 271.713 136.595 271.07 136.212 270.474C135.394 269.256 134.507 268.084 133.61 266.923C133.385 266.705 133.32 266.373 133.444 266.088C133.759 265.295 134.048 264.512 134.331 263.682C134.651 262.779 134.951 261.865 135.255 260.956C135.399 260.079 134.555 259.737 133.561 259.196C131.959 258.393 130.398 257.563 128.796 256.785C128.09 256.444 127.727 256.596 127.262 257.237C126.35 258.596 125.44 259.96 124.532 261.329C124.418 261.568 124.141 261.688 123.885 261.607C121.249 261.095 118.528 261.179 115.93 261.854C115.708 261.881 115.486 261.808 115.326 261.655C114.119 260.357 112.932 259.028 111.752 257.72C111.164 257.069 110.752 257.022 110.01 257.542C108.316 258.713 106.617 259.884 104.913 261.035C104.149 261.56 103.994 262.017 104.426 262.81C105.189 264.211 105.962 265.612 106.745 267.013C106.9 267.245 106.867 267.553 106.665 267.748C105.972 268.616 105.347 269.534 104.795 270.495C104.237 271.645 103.741 272.823 103.31 274.025C103.235 274.304 102.997 274.511 102.706 274.55C101.018 274.85 99.34 275.186 97.6569 275.512C96.6151 275.717 96.4441 275.921 96.5135 276.983C96.6525 279.015 96.8181 281.043 96.957 283.076C97.0158 283.953 97.3096 284.263 98.2073 284.3C99.8101 284.363 101.45 284.447 103.069 284.489C103.47 284.489 103.604 284.662 103.743 285.014C104.672 287.456 106.131 289.669 108.017 291.502C108.149 291.698 108.186 291.942 108.118 292.169C107.584 293.829 107.05 295.483 106.516 297.138C106.374 297.427 106.369 297.763 106.503 298.056C106.637 298.349 106.896 298.568 107.21 298.656C109.187 299.533 111.153 300.426 113.141 301.282C113.447 301.386 113.784 301.339 114.049 301.156C114.546 300.711 114.985 300.209 115.358 299.659C116.031 298.656 116.619 297.595 117.276 296.576C117.401 296.405 117.597 296.299 117.81 296.287C120.242 296.633 122.721 296.487 125.093 295.856C125.318 295.81 125.553 295.868 125.729 296.014C126.888 297.259 128.021 298.525 129.143 299.796C129.896 300.647 130.286 300.741 131.2 300.121C132.926 298.955 134.63 297.763 136.334 296.571C136.606 296.429 136.802 296.18 136.874 295.887C136.946 295.593 136.885 295.283 136.708 295.037C135.923 293.555 135.106 292.095 134.326 290.619C134.237 290.442 134.237 290.234 134.326 290.057C135.899 288.151 137.054 285.946 137.718 283.58C137.782 283.272 138.046 283.042 138.365 283.018C140.028 282.703 141.69 282.377 143.35 282.041C144.456 281.81 144.627 281.584 144.541 280.507ZM120.525 289.436C116.226 289.436 112.351 286.891 110.707 282.987C109.062 279.082 109.971 274.589 113.01 271.6C116.05 268.612 120.62 267.719 124.592 269.336C128.563 270.953 131.152 274.763 131.152 278.988C131.137 284.748 126.384 289.41 120.525 289.41V289.436Z" fill="#EBEBEB"/>
</g>
<path fill-rule="evenodd" clip-rule="evenodd" d="M136.274 272.346C136.274 280.123 129.967 286.427 122.187 286.427C114.407 286.427 108.101 280.123 108.101 272.346C108.101 264.569 114.407 258.265 122.187 258.265C125.923 258.265 129.506 259.749 132.148 262.389C134.79 265.03 136.274 268.612 136.274 272.346Z" fill="white"/>
<path fill-rule="evenodd" clip-rule="evenodd" d="M146.199 277.197C146.034 275.143 145.847 273.099 145.665 271.051C145.59 270.2 145.286 269.932 144.409 269.911C142.865 269.869 141.326 269.811 139.788 269.785C139.312 269.844 138.869 269.536 138.767 269.075C138.556 268.401 138.254 267.758 137.87 267.163C137.052 265.945 136.165 264.773 135.268 263.607C135.043 263.391 134.977 263.061 135.102 262.777C135.423 261.984 135.711 261.201 135.994 260.371C136.309 259.467 136.609 258.553 136.913 257.645C137.057 256.762 136.213 256.426 135.22 255.885C133.617 255.076 132.057 254.251 130.454 253.474C129.754 253.132 129.385 253.285 128.926 253.925C128.007 255.284 127.097 256.648 126.195 258.018C126.081 258.26 125.801 258.379 125.544 258.296C122.907 257.782 120.187 257.865 117.588 258.538C117.367 258.567 117.145 258.495 116.984 258.343C115.777 257.046 114.591 255.717 113.41 254.409C112.822 253.757 112.411 253.71 111.668 254.225C109.974 255.402 108.281 256.573 106.571 257.723C105.807 258.249 105.652 258.706 106.085 259.494C106.854 260.895 107.627 262.295 108.404 263.696C108.56 263.928 108.529 264.235 108.329 264.432C107.633 265.296 107.008 266.213 106.459 267.174C105.898 268.324 105.402 269.505 104.973 270.709C104.898 270.99 104.657 271.197 104.364 271.234C102.676 271.539 100.998 271.875 99.3153 272.201C98.2467 272.406 98.1025 272.605 98.1719 273.672C98.3108 275.705 98.4818 277.732 98.6154 279.765C98.6742 280.643 98.968 280.947 99.871 280.984C101.474 281.052 103.109 281.136 104.728 281.173C105.056 281.153 105.347 281.38 105.401 281.699C106.329 284.142 107.788 286.358 109.675 288.191C109.809 288.388 109.846 288.632 109.777 288.858C109.242 290.518 108.708 292.168 108.174 293.828C108.032 294.117 108.028 294.453 108.162 294.746C108.295 295.039 108.554 295.258 108.868 295.346C110.845 296.223 112.811 297.116 114.799 297.973C115.105 298.073 115.442 298.027 115.707 297.847C116.204 297.402 116.643 296.899 117.016 296.349C117.689 295.341 118.277 294.285 118.934 293.266C119.064 293.088 119.272 292.981 119.495 292.977C121.927 293.323 124.406 293.177 126.778 292.546C127.005 292.5 127.241 292.558 127.419 292.704C128.573 293.947 129.709 295.208 130.828 296.486C131.581 297.337 131.971 297.432 132.885 296.812C134.612 295.638 136.325 294.455 138.025 293.261C138.295 293.118 138.491 292.869 138.561 292.575C138.632 292.282 138.57 291.973 138.393 291.727C137.613 290.245 136.79 288.785 136.01 287.309C135.919 287.132 135.919 286.923 136.01 286.747C137.581 284.84 138.734 282.635 139.398 280.27C139.46 279.96 139.724 279.73 140.044 279.708C141.706 279.392 143.373 279.067 145.034 278.731C146.098 278.499 146.285 278.274 146.199 277.197ZM122.156 286.1C117.858 286.1 113.983 283.555 112.338 279.65C110.693 275.746 111.602 271.252 114.642 268.264C117.681 265.275 122.252 264.382 126.223 265.999C130.194 267.616 132.783 271.426 132.783 275.652C132.783 281.412 128.042 286.086 122.183 286.1H122.156Z" fill="url(#paint0_linear)"/>
<path d="M450 209.796L355.176 176.621" stroke="#F94F24" stroke-width="0.5" stroke-linecap="round" stroke-linejoin="round" stroke-dasharray="2 2"/>
<path d="M155 202.796L259 176.796" stroke="#F94F24" stroke-width="0.5" stroke-linecap="round" stroke-linejoin="round" stroke-dasharray="2 2"/>
<path d="M155.571 247.678L258 277.796" stroke="#F94F24" stroke-width="0.5" stroke-linecap="round" stroke-linejoin="round" stroke-dasharray="2 2"/>
<path d="M439 251.796L354 277.796" stroke="#F94F24" stroke-width="0.5" stroke-linecap="round" stroke-linejoin="round" stroke-dasharray="2 2"/>
<defs>
<linearGradient id="paint0_linear" x1="98.1559" y1="298.016" x2="146.215" y2="298.016" gradientUnits="userSpaceOnUse">
<stop stop-color="#8033EB"/>
<stop offset="1" stop-color="#6731CE"/>
</linearGradient>
<clipPath id="clip0">
<rect width="96" height="96" fill="white" transform="translate(256.5 27.5)"/>
</clipPath>
<clipPath id="clip1">
<rect width="94" height="96" fill="white" transform="translate(259.5 128.5)"/>
</clipPath>
<clipPath id="clip2">
<rect width="96" height="96" fill="white" transform="translate(258.5 229.5)"/>
</clipPath>
<clipPath id="clip3">
<rect width="96" height="96" fill="white" transform="translate(256.5 330.5)"/>
</clipPath>
</defs>
</svg>
