<svg width="534" height="299" viewBox="0 0 534 299" fill="none" xmlns="http://www.w3.org/2000/svg">
<path fill-rule="evenodd" clip-rule="evenodd" d="M138.646 118.704C137.207 117.82 137.525 115.048 139.613 115.048H205.586C205.056 82.0207 184.479 52.7764 153.915 41.6109C123.351 30.4455 89.1837 39.6911 68.1149 64.8281C47.0461 89.9651 43.4766 125.743 59.1514 154.673C74.8262 183.602 106.471 199.641 138.617 194.948L138.646 118.704Z" fill="#F6F4F8"/>
<ellipse rx="14.8059" ry="14.8059" transform="matrix(1 0 0 -1 472.544 183.647)" fill="#F2F2F2"/>
<circle r="42.1743" transform="matrix(1 0 0 -1 43.1743 219.09)" stroke="#FA5A28" stroke-width="2"/>
<ellipse rx="61.9154" ry="62.3641" transform="matrix(1 0 0 -1 452.354 79.5563)" stroke="#FA5A28" stroke-width="2"/>
<path fill-rule="evenodd" clip-rule="evenodd" d="M66.952 291.768C53.8194 291.768 43.1733 281.122 43.1733 267.99C43.1733 254.857 53.8194 244.211 66.952 244.211C73.2584 244.211 79.3066 246.716 83.766 251.176C88.2253 255.635 90.7306 261.683 90.7306 267.99C90.7306 281.122 80.0845 291.768 66.952 291.768Z" fill="#F6F4F8"/>
<path fill-rule="evenodd" clip-rule="evenodd" d="M534 268.887C534 280.687 526.888 291.324 515.984 295.834C505.08 300.345 492.532 297.839 484.197 289.487C475.861 281.134 473.38 268.582 477.912 257.686C482.445 246.791 493.096 239.701 504.896 239.725C512.625 239.725 520.036 242.799 525.496 248.27C530.956 253.74 534.015 261.158 534 268.887Z" fill="#F6F4F8"/>
<ellipse cx="235.198" cy="17.1768" rx="13.9746" ry="13.9734" transform="rotate(-76.72 235.198 17.1768)" fill="#F6F4F8"/>
<path fill-rule="evenodd" clip-rule="evenodd" d="M158.923 76.8947C158.923 76.8947 162.489 82.0237 157.376 87.0512C152.263 92.0787 137.911 102.895 149.959 116.133C162.008 129.37 215.617 117.199 215.617 117.199C215.617 117.199 223.643 109.751 212.832 100.543C202.021 91.3339 205.871 78.2489 207.195 75.3627C208.518 72.4765 170.894 54.7195 158.923 76.8947Z" fill="#FFD000"/>
<path fill-rule="evenodd" clip-rule="evenodd" d="M156.253 68.9058C156.253 68.9058 148.722 27.9604 183.951 27.9604C219.18 27.9604 210.255 68.9058 210.255 68.9058C210.255 68.9058 193.189 82.3116 182.549 82.3116C171.909 82.3116 157.664 74.8934 156.253 68.9058Z" fill="#FFD000"/>
<path fill-rule="evenodd" clip-rule="evenodd" d="M242.201 183.835L238.853 139.234C239.585 116.733 224.403 109.403 224.403 109.403L199.522 96.6685L181.956 101.62V101.509L169.357 98.4816L157.927 102.595C157.927 102.595 130.843 112.448 130.051 131.922L126.703 183.416H177.748V183.835H242.201Z" fill="#D939B0"/>
<path fill-rule="evenodd" clip-rule="evenodd" d="M170.069 86.4141L166.921 107.536C166.921 107.536 167.103 122.306 183.958 122.306C200.952 122.306 200.952 106.726 200.952 106.726L198.003 86.4141L170.069 86.4141Z" fill="#FFA881"/>
<path fill-rule="evenodd" clip-rule="evenodd" d="M208.171 63.2349C208.171 81.822 197.316 98.7193 183.937 98.7193C170.557 98.7193 159.703 81.7544 159.703 63.2349C159.703 44.7154 170.549 39.2407 183.937 39.2407C197.325 39.2407 208.171 44.7239 208.171 63.2349Z" fill="#FFC1A6"/>
<path fill-rule="evenodd" clip-rule="evenodd" d="M160.782 70.2353C160.782 70.2353 159.225 65.0289 155.146 67.6842C151.067 70.3395 154.911 80.0062 163.66 81.2036C172.41 82.4011 160.782 70.2353 160.782 70.2353Z" fill="#FFC1A6"/>
<path fill-rule="evenodd" clip-rule="evenodd" d="M206.06 70.2353C206.06 70.2353 207.617 65.0289 211.696 67.6842C215.775 70.3395 211.931 80.0062 203.182 81.2036C194.432 82.4011 206.06 70.2353 206.06 70.2353Z" fill="#FFC1A6"/>
<path fill-rule="evenodd" clip-rule="evenodd" d="M168.984 91.541C172.499 96.1981 178.04 98.9704 183.951 99.0294C189.703 99.0759 195.085 96.2549 198.237 91.541L199.921 102.964C199.921 102.964 178.312 111.772 168.984 91.541Z" fill="#FF9B6E"/>
<path fill-rule="evenodd" clip-rule="evenodd" d="M159.276 66.8416C159.276 66.8416 192.38 69.2834 204.046 48.3993C204.046 48.3993 202.169 36.1646 180.843 36.1646C159.517 36.1646 154.566 54.4006 159.276 66.8416Z" fill="#FFD000"/>
<path fill-rule="evenodd" clip-rule="evenodd" d="M158.672 66.846C158.672 66.846 192.222 69.8872 204.046 48.4702C204.028 48.4702 195.782 79.8589 158.672 66.846Z" fill="#FFA881"/>
<path fill-rule="evenodd" clip-rule="evenodd" d="M247.357 193.064V130.506C247.357 127.696 245.072 125.41 242.234 125.382H120.483C117.645 125.41 115.359 127.696 115.36 130.506V193.064H247.357Z" fill="#B3B3B3"/>
<path fill-rule="evenodd" clip-rule="evenodd" d="M112.266 195.116V201.335C112.238 204.664 114.83 207.387 118.061 207.422H244.657C247.887 207.387 250.48 204.664 250.451 201.335V195.116L112.266 195.116Z" fill="#B3B3B3"/>
<rect x="115.36" y="132.561" width="131.998" height="64.606" fill="#999999"/>
<rect x="115.36" y="195.116" width="131.998" height="1.0255" fill="#E5E5E5" style="mix-blend-mode:multiply"/>
<rect x="115.36" y="132.561" width="131.998" height="1.02549" fill="#E5E5E5" style="mix-blend-mode:multiply"/>
<path fill-rule="evenodd" clip-rule="evenodd" d="M137.016 201.786C137.016 202.633 136.46 203.32 135.775 203.32H130.006C129.321 203.32 128.766 202.633 128.766 201.786C128.766 200.938 129.32 200.249 130.006 200.243H135.759C136.445 200.249 136.999 200.938 136.999 201.786L137.016 201.786Z" fill="#808080"/>
<path fill-rule="evenodd" clip-rule="evenodd" d="M242.201 201.786C242.201 202.633 241.645 203.32 240.958 203.32H235.194C234.508 203.32 233.951 202.633 233.951 201.786C233.951 200.938 234.507 200.249 235.194 200.243H240.959C241.646 200.249 242.201 200.938 242.201 201.786L242.201 201.786Z" fill="#808080"/>
<path fill-rule="evenodd" clip-rule="evenodd" d="M146.297 201.786C146.297 202.633 145.604 203.32 144.75 203.32C143.896 203.32 143.203 202.633 143.203 201.786C143.203 200.938 143.894 200.249 144.75 200.243C145.606 200.249 146.297 200.938 146.297 201.786L146.297 201.786Z" fill="#808080"/>
<path fill-rule="evenodd" clip-rule="evenodd" d="M154.547 201.786C154.547 202.633 153.856 203.32 153.005 203.32C152.594 203.322 152.199 203.162 151.908 202.874C151.617 202.586 151.453 202.195 151.453 201.786C151.453 200.934 152.148 200.243 153.005 200.243C153.858 200.249 154.547 200.938 154.547 201.786L154.547 201.786Z" fill="#808080"/>
<path fill-rule="evenodd" clip-rule="evenodd" d="M207.655 165.889C207.655 180.048 196.112 191.527 181.874 191.527C167.636 191.527 156.093 180.048 156.093 165.889C156.093 151.73 167.636 140.252 181.874 140.252C196.112 140.252 207.655 151.73 207.655 165.889Z" fill="#A6A6A6"/>
<path d="M169.887 158.189L163.706 165.364L169.894 172.546" stroke="white" stroke-width="3" stroke-linecap="round" stroke-linejoin="round"/>
<path d="M192.581 172.546L198.768 165.372L192.581 158.189" stroke="white" stroke-width="3" stroke-linecap="round" stroke-linejoin="round"/>
<path d="M178.144 158.189L184.331 172.546" stroke="white" stroke-width="3" stroke-linecap="round" stroke-linejoin="round"/>
<path fill-rule="evenodd" clip-rule="evenodd" d="M359.135 68.4161C359.135 68.4161 351.611 27.3262 386.806 27.3262C422.001 27.3262 413.085 68.4161 413.085 68.4161C413.085 68.4161 396.035 81.8692 385.406 81.8692C374.776 81.8692 360.545 74.4249 359.135 68.4161Z" fill="#002C51"/>
<path fill-rule="evenodd" clip-rule="evenodd" d="M445 183.752L441.656 138.993C442.387 116.412 427.22 109.056 427.22 109.056L402.362 96.2769L384.814 101.246V101.135L372.226 98.0964L360.808 102.225C360.808 102.225 333.749 112.112 332.958 131.655L329.614 183.331H380.609V183.752H445Z" fill="#F94F24"/>
<path fill-rule="evenodd" clip-rule="evenodd" d="M339.455 138.212L323.99 115.646C323.99 115.646 322.245 106.677 312.7 107.583C312.7 107.583 307.273 106.03 302.883 104.997C302.883 104.997 298.073 106.53 302.627 109.539C307.862 113.007 305.605 114.08 305.605 114.08C305.605 114.08 295.321 109.646 289.991 103.737C289.991 103.737 288.194 101.904 287.244 103.244C286.295 104.585 286.294 114.484 304.283 123.592L314.139 124.286L325.294 141.648L339.455 138.212Z" fill="#FFC1A6"/>
<path fill-rule="evenodd" clip-rule="evenodd" d="M372.938 85.9858L369.793 107.182C369.793 107.182 369.974 122.005 386.814 122.005C403.791 122.005 403.791 106.369 403.791 106.369L400.845 85.9859L372.938 85.9858Z" fill="#FFA881"/>
<path fill-rule="evenodd" clip-rule="evenodd" d="M411.003 62.7254C411.003 81.3781 400.159 98.3351 386.792 98.3351C373.425 98.3351 362.581 81.3103 362.581 62.7254C362.581 44.1405 373.417 38.6465 386.792 38.6465C400.167 38.6465 411.003 44.149 411.003 62.7254Z" fill="#FFC1A6"/>
<path fill-rule="evenodd" clip-rule="evenodd" d="M363.659 69.7499C363.659 69.7499 362.104 64.5251 358.029 67.1898C353.954 69.8544 357.794 79.5553 366.535 80.757C375.276 81.9587 363.659 69.7499 363.659 69.7499Z" fill="#FFC1A6"/>
<path fill-rule="evenodd" clip-rule="evenodd" d="M408.894 69.7499C408.894 69.7499 410.45 64.5251 414.525 67.1898C418.6 69.8544 414.759 79.5553 406.018 80.757C397.277 81.9587 408.894 69.7499 408.894 69.7499Z" fill="#FFC1A6"/>
<path fill-rule="evenodd" clip-rule="evenodd" d="M371.853 91.1313C375.365 95.8049 380.901 98.5869 386.807 98.6462C392.553 98.6929 397.929 95.8619 401.078 91.1314L402.761 102.595C402.761 102.595 381.172 111.434 371.853 91.1313Z" fill="#FF9B6E"/>
<path fill-rule="evenodd" clip-rule="evenodd" d="M362.08 55.5454C362.08 55.5454 392.078 69.6724 410.478 54.2783C410.478 54.2783 413.132 42.1444 393.241 34.5174C373.35 26.8903 362.167 42.2051 362.08 55.5454Z" fill="#002C51"/>
<path fill-rule="evenodd" clip-rule="evenodd" d="M362.245 55.0492C362.245 55.0492 392.697 69.3689 411.156 53.2077C411.14 53.2017 392.613 79.9876 362.245 55.0492Z" fill="#FFA881"/>
<path fill-rule="evenodd" clip-rule="evenodd" d="M450.152 193.013V130.234C450.152 127.414 447.868 125.12 445.033 125.092H323.399C320.564 125.12 318.281 127.414 318.281 130.234V193.013H450.152Z" fill="#B3B3B3"/>
<path fill-rule="evenodd" clip-rule="evenodd" d="M315.191 195.072V201.313C315.162 204.654 317.752 207.387 320.979 207.421H447.454C450.681 207.387 453.271 204.654 453.242 201.313V195.072L315.191 195.072Z" fill="#B3B3B3"/>
<rect x="318.281" y="132.295" width="131.871" height="62.8114" fill="url(#paint0_linear)"/>
<rect x="318.281" y="195.072" width="131.871" height="1.02911" fill="#E5E5E5" style="mix-blend-mode:multiply"/>
<rect x="318.281" y="132.295" width="131.871" height="1.02912" fill="#E5E5E5" style="mix-blend-mode:multiply"/>
<path fill-rule="evenodd" clip-rule="evenodd" d="M339.916 201.766C339.916 202.615 339.361 203.304 338.677 203.304H332.913C332.229 203.304 331.674 202.615 331.674 201.766C331.674 200.914 332.228 200.222 332.913 200.217H338.661C339.346 200.222 339.9 200.914 339.9 201.766L339.916 201.766Z" fill="#808080"/>
<path fill-rule="evenodd" clip-rule="evenodd" d="M445 201.766C445 202.615 444.445 203.304 443.759 203.304H438C437.314 203.304 436.759 202.615 436.759 201.766C436.759 200.914 437.313 200.222 438 200.217H443.759C444.446 200.222 445.001 200.914 445 201.766L445 201.766Z" fill="#808080"/>
<path fill-rule="evenodd" clip-rule="evenodd" d="M349.188 201.766C349.188 202.615 348.496 203.304 347.643 203.304C346.789 203.304 346.097 202.615 346.097 201.766C346.097 200.914 346.788 200.222 347.643 200.217C348.498 200.222 349.188 200.914 349.188 201.766L349.188 201.766Z" fill="#808080"/>
<path fill-rule="evenodd" clip-rule="evenodd" d="M357.43 201.766C357.43 202.615 356.74 203.304 355.89 203.304C355.48 203.307 355.085 203.146 354.794 202.857C354.503 202.568 354.339 202.175 354.339 201.766C354.339 200.91 355.034 200.217 355.89 200.217C356.742 200.222 357.43 200.914 357.43 201.765L357.43 201.766Z" fill="#808080"/>
<path fill-rule="evenodd" clip-rule="evenodd" d="M402.649 176.059L389.237 184.195C387.968 184.964 386.404 184.964 385.135 184.195L371.723 176.059C370.454 175.288 369.672 173.866 369.672 172.326V156.054C369.672 154.514 370.454 153.091 371.723 152.321L385.135 144.185C386.404 143.415 387.968 143.415 389.237 144.185L402.649 152.321C403.918 153.091 404.7 154.514 404.7 156.054V172.326C404.7 173.866 403.918 175.288 402.649 176.059ZM395.745 158.039C394.728 160.868 393.704 163.704 392.681 166.543H392.356C391.336 163.697 390.312 160.854 389.292 158.015H386.11C385.076 160.885 384.052 163.728 383.029 166.574H382.732C381.694 163.7 380.657 160.827 379.654 158.053H375.853C377.702 163.273 379.504 168.363 381.307 173.452H384.444L387.549 164.841H387.864C388.901 167.729 389.935 170.62 390.952 173.445H394.096C395.905 168.335 397.708 163.242 399.549 158.039H395.745Z" fill="white"/>
<path fill-rule="evenodd" clip-rule="evenodd" d="M366.187 80.8398C366.187 80.8398 366.187 107.584 386.792 107.584C407.397 107.584 407.397 80.8398 407.397 80.8398C407.397 80.8398 396.351 83.6957 386.792 83.6957C377.233 83.6957 366.187 80.8398 366.187 80.8398Z" fill="#002C51"/>
<rect x="380.095" y="93.1895" width="13.3931" height="3.08735" rx="1.5" fill="#FFC1A6"/>
<rect x="73.6819" y="229.854" width="408.274" height="34.9949" fill="#5315C9"/>
<rect x="54.8384" y="207.421" width="453.14" height="22.4326" fill="#6731CF"/>
<path fill-rule="evenodd" clip-rule="evenodd" d="M73.6819 230.751H481.956V260.363L73.6819 230.751Z" fill="#5315B4"/>
<path d="M256.683 176.355C266.636 176.355 272.714 174.27 281.962 164.947C291.21 155.624 297.412 152.981 309.673 152.981" stroke="#FA5A28" stroke-linecap="round" stroke-linejoin="round" stroke-dasharray="3 3"/>
<path d="M256.683 152.981C266.636 152.981 272.714 155.066 281.962 164.389C291.21 173.712 297.412 176.355 309.673 176.355" stroke="#FA5A28" stroke-linecap="round" stroke-linejoin="round" stroke-dasharray="3 3"/>
<path d="M258.976 151.604L255.898 152.981L258.976 154.699" stroke="#FA5A28" stroke-linecap="round" stroke-linejoin="round"/>
<path d="M310.968 176.464C310.968 176.931 310.589 177.31 310.122 177.31C309.655 177.31 309.276 176.931 309.276 176.464C309.276 175.997 309.655 175.618 310.122 175.618C310.589 175.618 310.968 175.997 310.968 176.464Z" fill="white" stroke="#FA5A28"/>
<path d="M257.13 176.464C257.13 176.931 256.751 177.31 256.284 177.31C255.816 177.31 255.438 176.931 255.438 176.464C255.438 175.997 255.816 175.618 256.284 175.618C256.751 175.618 257.13 175.997 257.13 176.464Z" fill="white" stroke="#FA5A28"/>
<path d="M307.045 151.604L310.122 152.981L307.045 154.699" stroke="#FA5A28" stroke-linecap="round" stroke-linejoin="round"/>
<defs>
<linearGradient id="paint0_linear" x1="317.401" y1="204.139" x2="457.327" y2="193.941" gradientUnits="userSpaceOnUse">
<stop stop-color="#9839C3"/>
<stop offset="1" stop-color="#F94F24"/>
</linearGradient>
</defs>
</svg>
