<?xml version="1.0" encoding="UTF-8"?>
<svg width="414px" height="240px" viewBox="0 0 414 240" version="1.1" xmlns="http://www.w3.org/2000/svg" xmlns:xlink="http://www.w3.org/1999/xlink">
    <!-- Generator: Sketch 55.2 (78181) - https://sketchapp.com -->
    <title>icon</title>
    <desc>Created with Sketch.</desc>
    <defs>
        <circle id="path-1" cx="113.5" cy="172.5" r="89.5"></circle>
        <filter x="-8.4%" y="-8.4%" width="116.8%" height="116.8%" filterUnits="objectBoundingBox" id="filter-2">
            <feOffset dx="0" dy="0" in="SourceAlpha" result="shadowOffsetOuter1"></feOffset>
            <feGaussianBlur stdDeviation="5" in="shadowOffsetOuter1" result="shadowBlurOuter1"></feGaussianBlur>
            <feColorMatrix values="0 0 0 0 0   0 0 0 0 0   0 0 0 0 0  0 0 0 0.150000006 0" type="matrix" in="shadowBlurOuter1"></feColorMatrix>
        </filter>
        <linearGradient x1="50%" y1="3.06161713e-15%" x2="50%" y2="100%" id="linearGradient-3">
            <stop stop-color="#7B39D9" offset="0%"></stop>
            <stop stop-color="#CA3666" offset="100%"></stop>
        </linearGradient>
        <circle id="path-4" cx="113.5" cy="172.5" r="58.5"></circle>
        <filter x="-11.5%" y="-11.5%" width="128.2%" height="128.2%" filterUnits="objectBoundingBox" id="filter-5">
            <feOffset dx="3" dy="3" in="SourceAlpha" result="shadowOffsetOuter1"></feOffset>
            <feGaussianBlur stdDeviation="5" in="shadowOffsetOuter1" result="shadowBlurOuter1"></feGaussianBlur>
            <feColorMatrix values="0 0 0 0 0   0 0 0 0 0   0 0 0 0 0  0 0 0 0.25 0" type="matrix" in="shadowBlurOuter1"></feColorMatrix>
        </filter>
        <ellipse id="path-6" cx="114" cy="172.5" rx="49" ry="48.5"></ellipse>
        <filter x="-13.8%" y="-13.9%" width="133.7%" height="134.0%" filterUnits="objectBoundingBox" id="filter-7">
            <feOffset dx="3" dy="3" in="SourceAlpha" result="shadowOffsetOuter1"></feOffset>
            <feGaussianBlur stdDeviation="5" in="shadowOffsetOuter1" result="shadowBlurOuter1"></feGaussianBlur>
            <feColorMatrix values="0 0 0 0 0   0 0 0 0 0   0 0 0 0 0  0 0 0 0.25 0" type="matrix" in="shadowBlurOuter1"></feColorMatrix>
        </filter>
        <path d="M25.443957,133.521516 C23.147957,133.521516 21.439957,131.757516 21.439957,128.761516 C21.439957,125.807516 23.175957,124.001516 25.513957,124.001516 C26.633957,124.001516 27.501957,124.533516 28.033957,125.135516 L27.403957,125.891516 C26.913957,125.373516 26.311957,125.023516 25.527957,125.023516 C23.791957,125.023516 22.643957,126.451516 22.643957,128.733516 C22.643957,131.043516 23.749957,132.499516 25.485957,132.499516 C26.367957,132.499516 27.025957,132.107516 27.613957,131.463516 L28.257957,132.191516 C27.529957,133.031516 26.633957,133.521516 25.443957,133.521516 Z M31.071957,133.521516 C30.203957,133.521516 29.853957,132.975516 29.853957,131.981516 L29.853957,123.385516 L31.001957,123.385516 L31.001957,132.065516 C31.001957,132.429516 31.155957,132.569516 31.323957,132.569516 C31.393957,132.569516 31.449957,132.569516 31.575957,132.541516 L31.729957,133.409516 C31.575957,133.479516 31.379957,133.521516 31.071957,133.521516 Z M36.069957,133.521516 C34.403957,133.521516 32.919957,132.219516 32.919957,129.965516 C32.919957,127.683516 34.403957,126.381516 36.069957,126.381516 C37.735957,126.381516 39.219957,127.683516 39.219957,129.965516 C39.219957,132.219516 37.735957,133.521516 36.069957,133.521516 Z M36.069957,132.569516 C37.245957,132.569516 38.029957,131.519516 38.029957,129.965516 C38.029957,128.397516 37.245957,127.333516 36.069957,127.333516 C34.907957,127.333516 34.109957,128.397516 34.109957,129.965516 C34.109957,131.519516 34.907957,132.569516 36.069957,132.569516 Z M42.999957,133.521516 C41.557957,133.521516 40.913957,132.597516 40.913957,130.861516 L40.913957,126.549516 L42.075957,126.549516 L42.075957,130.707516 C42.075957,131.981516 42.453957,132.527516 43.349957,132.527516 C44.049957,132.527516 44.539957,132.177516 45.183957,131.379516 L45.183957,126.549516 L46.331957,126.549516 L46.331957,133.353516 L45.379957,133.353516 L45.281957,132.289516 L45.239957,132.289516 C44.609957,133.031516 43.937957,133.521516 42.999957,133.521516 Z M50.951957,133.521516 C49.243957,133.521516 48.137957,132.233516 48.137957,129.965516 C48.137957,127.753516 49.537957,126.381516 51.091957,126.381516 C51.875957,126.381516 52.393957,126.675516 52.995957,127.165516 L52.939957,126.003516 L52.939957,123.385516 L54.101957,123.385516 L54.101957,133.353516 L53.149957,133.353516 L53.051957,132.555516 L53.009957,132.555516 C52.477957,133.073516 51.749957,133.521516 50.951957,133.521516 Z M51.203957,132.555516 C51.833957,132.555516 52.379957,132.247516 52.939957,131.617516 L52.939957,128.061516 C52.365957,127.543516 51.847957,127.347516 51.287957,127.347516 C50.195957,127.347516 49.327957,128.397516 49.327957,129.951516 C49.327957,131.575516 50.013957,132.555516 51.203957,132.555516 Z M9.32295703,151.521516 C7.51695703,151.521516 6.13095703,150.219516 6.13095703,147.965516 C6.13095703,145.683516 7.65695703,144.381516 9.40695703,144.381516 C10.302957,144.381516 10.918957,144.745516 11.394957,145.179516 L10.806957,145.935516 C10.414957,145.585516 9.99495703,145.333516 9.44895703,145.333516 C8.21695703,145.333516 7.32095703,146.397516 7.32095703,147.965516 C7.32095703,149.519516 8.17495703,150.569516 9.42095703,150.569516 C10.050957,150.569516 10.596957,150.261516 11.016957,149.883516 L11.520957,150.653516 C10.904957,151.199516 10.134957,151.521516 9.32295703,151.521516 Z M15.664957,151.521516 C13.998957,151.521516 12.514957,150.219516 12.514957,147.965516 C12.514957,145.683516 13.998957,144.381516 15.664957,144.381516 C17.330957,144.381516 18.814957,145.683516 18.814957,147.965516 C18.814957,150.219516 17.330957,151.521516 15.664957,151.521516 Z M15.664957,150.569516 C16.840957,150.569516 17.624957,149.519516 17.624957,147.965516 C17.624957,146.397516 16.840957,145.333516 15.664957,145.333516 C14.502957,145.333516 13.704957,146.397516 13.704957,147.965516 C13.704957,149.519516 14.502957,150.569516 15.664957,150.569516 Z M22.384957,151.521516 C21.418957,151.521516 20.494957,151.115516 19.850957,150.583516 L20.424957,149.813516 C21.012957,150.289516 21.614957,150.625516 22.426957,150.625516 C23.322957,150.625516 23.770957,150.149516 23.770957,149.561516 C23.770957,148.861516 22.958957,148.553516 22.216957,148.273516 C21.250957,147.923516 20.186957,147.461516 20.186957,146.313516 C20.186957,145.221516 21.054957,144.381516 22.524957,144.381516 C23.378957,144.381516 24.120957,144.731516 24.638957,145.151516 L24.092957,145.879516 C23.630957,145.529516 23.140957,145.277516 22.538957,145.277516 C21.684957,145.277516 21.292957,145.739516 21.292957,146.257516 C21.292957,146.901516 22.034957,147.139516 22.804957,147.433516 C23.784957,147.797516 24.876957,148.203516 24.876957,149.491516 C24.876957,150.597516 23.994957,151.521516 22.384957,151.521516 Z M28.614957,151.521516 C27.158957,151.521516 26.668957,150.597516 26.668957,149.253516 L26.668957,145.487516 L25.660957,145.487516 L25.660957,144.619516 L26.724957,144.549516 L26.864957,142.645516 L27.830957,142.645516 L27.830957,144.549516 L29.664957,144.549516 L29.664957,145.487516 L27.830957,145.487516 L27.830957,149.267516 C27.830957,150.107516 28.096957,150.583516 28.880957,150.583516 C29.118957,150.583516 29.426957,150.485516 29.650957,150.401516 L29.874957,151.269516 C29.496957,151.395516 29.034957,151.521516 28.614957,151.521516 Z M35.782957,151.521516 C34.816957,151.521516 33.892957,151.115516 33.248957,150.583516 L33.822957,149.813516 C34.410957,150.289516 35.012957,150.625516 35.824957,150.625516 C36.720957,150.625516 37.168957,150.149516 37.168957,149.561516 C37.168957,148.861516 36.356957,148.553516 35.614957,148.273516 C34.648957,147.923516 33.584957,147.461516 33.584957,146.313516 C33.584957,145.221516 34.452957,144.381516 35.922957,144.381516 C36.776957,144.381516 37.518957,144.731516 38.036957,145.151516 L37.490957,145.879516 C37.028957,145.529516 36.538957,145.277516 35.936957,145.277516 C35.082957,145.277516 34.690957,145.739516 34.690957,146.257516 C34.690957,146.901516 35.432957,147.139516 36.202957,147.433516 C37.182957,147.797516 38.274957,148.203516 38.274957,149.491516 C38.274957,150.597516 37.392957,151.521516 35.782957,151.521516 Z M41.438957,151.521516 C40.304957,151.521516 39.450957,150.807516 39.450957,149.589516 C39.450957,148.105516 40.724957,147.363516 43.622957,147.041516 C43.622957,146.173516 43.342957,145.333516 42.222957,145.333516 C41.438957,145.333516 40.724957,145.697516 40.192957,146.061516 L39.744957,145.263516 C40.374957,144.857516 41.326957,144.381516 42.418957,144.381516 C44.084957,144.381516 44.784957,145.487516 44.784957,147.181516 L44.784957,151.353516 L43.832957,151.353516 L43.734957,150.541516 L43.692957,150.541516 C43.048957,151.073516 42.292957,151.521516 41.438957,151.521516 Z M41.774957,150.597516 C42.432957,150.597516 42.964957,150.275516 43.622957,149.687516 L43.622957,147.797516 C41.354957,148.077516 40.570957,148.637516 40.570957,149.505516 C40.570957,150.275516 41.102957,150.597516 41.774957,150.597516 Z M48.396957,151.353516 L45.946957,144.549516 L47.136957,144.549516 L48.424957,148.413516 C48.620957,149.085516 48.844957,149.771516 49.054957,150.415516 L49.110957,150.415516 C49.306957,149.771516 49.530957,149.085516 49.726957,148.413516 L51.014957,144.549516 L52.148957,144.549516 L49.740957,151.353516 L48.396957,151.353516 Z M53.464957,151.353516 L53.464957,144.549516 L54.612957,144.549516 L54.612957,151.353516 L53.464957,151.353516 Z M54.052957,143.149516 C53.604957,143.149516 53.254957,142.841516 53.254957,142.407516 C53.254957,141.959516 53.604957,141.665516 54.052957,141.665516 C54.500957,141.665516 54.850957,141.959516 54.850957,142.407516 C54.850957,142.841516 54.500957,143.149516 54.052957,143.149516 Z M56.908957,151.353516 L56.908957,144.549516 L57.860957,144.549516 L57.958957,145.529516 L58.000957,145.529516 C58.644957,144.885516 59.344957,144.381516 60.282957,144.381516 C61.710957,144.381516 62.354957,145.305516 62.354957,147.041516 L62.354957,151.353516 L61.206957,151.353516 L61.206957,147.195516 C61.206957,145.921516 60.814957,145.375516 59.918957,145.375516 C59.218957,145.375516 58.742957,145.739516 58.056957,146.425516 L58.056957,151.353516 L56.908957,151.353516 Z M66.862957,154.489516 C65.196957,154.489516 64.048957,153.831516 64.048957,152.655516 C64.048957,152.081516 64.426957,151.535516 65.042957,151.115516 L65.042957,151.059516 C64.706957,150.849516 64.440957,150.485516 64.440957,149.953516 C64.440957,149.379516 64.832957,148.931516 65.182957,148.693516 L65.182957,148.637516 C64.734957,148.273516 64.300957,147.615516 64.300957,146.803516 C64.300957,145.319516 65.476957,144.381516 66.862957,144.381516 C67.240957,144.381516 67.576957,144.451516 67.828957,144.549516 L70.194957,144.549516 L70.194957,145.431516 L68.794957,145.431516 C69.116957,145.739516 69.354957,146.257516 69.354957,146.831516 C69.354957,148.287516 68.248957,149.197516 66.862957,149.197516 C66.526957,149.197516 66.148957,149.113516 65.840957,148.959516 C65.602957,149.169516 65.406957,149.393516 65.406957,149.771516 C65.406957,150.205516 65.686957,150.513516 66.610957,150.513516 L67.926957,150.513516 C69.508957,150.513516 70.306957,151.003516 70.306957,152.137516 C70.306957,153.397516 68.976957,154.489516 66.862957,154.489516 Z M66.862957,148.427516 C67.646957,148.427516 68.304957,147.797516 68.304957,146.803516 C68.304957,145.809516 67.660957,145.221516 66.862957,145.221516 C66.064957,145.221516 65.420957,145.809516 65.420957,146.803516 C65.420957,147.797516 66.078957,148.427516 66.862957,148.427516 Z M67.030957,153.691516 C68.332957,153.691516 69.186957,153.019516 69.186957,152.305516 C69.186957,151.675516 68.696957,151.465516 67.814957,151.465516 L66.638957,151.465516 C66.372957,151.465516 66.050957,151.437516 65.756957,151.353516 C65.266957,151.703516 65.056957,152.109516 65.056957,152.501516 C65.056957,153.229516 65.798957,153.691516 67.030957,153.691516 Z" id="path-8"></path>
        <path d="M6.846,24.288 C3.894,24.288 1.086,22.08 1.086,16.728 C1.086,11.04 4.038,8.472 7.254,8.472 C9.27,8.472 10.734,9.312 11.694,10.296 L9.846,12.408 C9.318,11.832 8.358,11.328 7.47,11.328 C5.79,11.328 4.446,12.528 4.326,16.08 C5.118,15.072 6.438,14.472 7.374,14.472 C9.99,14.472 11.91,15.96 11.91,19.176 C11.91,22.344 9.606,24.288 6.846,24.288 Z M6.774,21.648 C7.83,21.648 8.694,20.904 8.694,19.176 C8.694,17.568 7.854,16.968 6.702,16.968 C5.91,16.968 5.022,17.4 4.398,18.48 C4.71,20.88 5.718,21.648 6.774,21.648 Z M19.11,24.288 C15.846,24.288 13.662,21.504 13.662,16.32 C13.662,11.136 15.846,8.472 19.11,8.472 C22.374,8.472 24.558,11.136 24.558,16.32 C24.558,21.504 22.374,24.288 19.11,24.288 Z M19.11,21.552 C20.31,21.552 21.222,20.472 21.222,16.32 C21.222,12.144 20.31,11.208 19.11,11.208 C17.934,11.208 16.998,12.144 16.998,16.32 C16.998,20.472 17.934,21.552 19.11,21.552 Z M26.478,19.176 L26.478,16.68 L32.382,16.68 L32.382,19.176 L26.478,19.176 Z M39.726,24.288 C36.678,24.288 34.422,22.584 34.422,20.112 C34.422,18.264 35.574,17.136 37.014,16.368 L37.014,16.272 C35.838,15.384 34.974,14.28 34.974,12.672 C34.974,10.08 37.014,8.472 39.846,8.472 C42.63,8.472 44.478,10.128 44.478,12.648 C44.478,14.112 43.542,15.288 42.486,15.984 L42.486,16.08 C43.95,16.872 45.126,18.048 45.126,20.064 C45.126,22.464 42.966,24.288 39.726,24.288 Z M40.686,15.12 C41.286,14.424 41.622,13.68 41.622,12.888 C41.622,11.712 40.926,10.92 39.774,10.92 C38.838,10.92 38.07,11.496 38.07,12.672 C38.07,13.92 39.126,14.52 40.686,15.12 Z M39.798,21.84 C40.974,21.84 41.838,21.216 41.838,19.944 C41.838,18.6 40.542,18.096 38.622,17.28 C37.95,17.904 37.446,18.768 37.446,19.704 C37.446,21.048 38.526,21.84 39.798,21.84 Z M52.422,24.288 C49.158,24.288 46.974,21.504 46.974,16.32 C46.974,11.136 49.158,8.472 52.422,8.472 C55.686,8.472 57.87,11.136 57.87,16.32 C57.87,21.504 55.686,24.288 52.422,24.288 Z M52.422,21.552 C53.622,21.552 54.534,20.472 54.534,16.32 C54.534,12.144 53.622,11.208 52.422,11.208 C51.246,11.208 50.31,12.144 50.31,16.32 C50.31,20.472 51.246,21.552 52.422,21.552 Z M62.518,19 C60.638,19 59.278,17.46 59.278,14.84 C59.278,12.24 60.638,10.72 62.518,10.72 C64.398,10.72 65.778,12.24 65.778,14.84 C65.778,17.46 64.398,19 62.518,19 Z M62.518,17.36 C63.178,17.36 63.718,16.7 63.718,14.84 C63.718,12.98 63.178,12.36 62.518,12.36 C61.858,12.36 61.318,12.98 61.318,14.84 C61.318,16.7 61.858,17.36 62.518,17.36 Z M62.958,24.24 L69.998,10.72 L71.698,10.72 L64.658,24.24 L62.958,24.24 Z M72.138,24.24 C70.258,24.24 68.898,22.7 68.898,20.08 C68.898,17.48 70.258,15.96 72.138,15.96 C74.018,15.96 75.398,17.48 75.398,20.08 C75.398,22.7 74.018,24.24 72.138,24.24 Z M72.138,22.6 C72.798,22.6 73.338,21.94 73.338,20.08 C73.338,18.22 72.798,17.6 72.138,17.6 C71.478,17.6 70.938,18.22 70.938,20.08 C70.938,21.94 71.478,22.6 72.138,22.6 Z" id="path-9"></path>
        <ellipse id="path-10" cx="91.5" cy="97.5053711" rx="91.5" ry="92"></ellipse>
        <filter x="-8.2%" y="-8.2%" width="116.4%" height="116.3%" filterUnits="objectBoundingBox" id="filter-11">
            <feOffset dx="0" dy="0" in="SourceAlpha" result="shadowOffsetOuter1"></feOffset>
            <feGaussianBlur stdDeviation="5" in="shadowOffsetOuter1" result="shadowBlurOuter1"></feGaussianBlur>
            <feColorMatrix values="0 0 0 0 0   0 0 0 0 0   0 0 0 0 0  0 0 0 0.150000006 0" type="matrix" in="shadowBlurOuter1"></feColorMatrix>
        </filter>
        <linearGradient x1="50%" y1="2.77555756e-15%" x2="50%" y2="103.988638%" id="linearGradient-12">
            <stop stop-color="#8D77F4" offset="0%"></stop>
            <stop stop-color="#BD95FB" offset="100%"></stop>
        </linearGradient>
        <path d="M113.301944,-0.826123678 C133.227692,-0.826123678 151.529433,6.13671926 165.913218,17.765244 L113.301944,83.1058298 L81.050761,160.599108 C50.7695854,147.946928 29.4867199,118.015284 29.4867199,83.1058298 C29.4867199,36.7514902 67.0120762,-0.826123678 113.301944,-0.826123678 Z" id="path-13"></path>
        <filter x="-9.9%" y="-8.4%" width="124.2%" height="120.4%" filterUnits="objectBoundingBox" id="filter-14">
            <feOffset dx="3" dy="3" in="SourceAlpha" result="shadowOffsetOuter1"></feOffset>
            <feGaussianBlur stdDeviation="5" in="shadowOffsetOuter1" result="shadowBlurOuter1"></feGaussianBlur>
            <feColorMatrix values="0 0 0 0 0   0 0 0 0 0   0 0 0 0 0  0 0 0 0.25 0" type="matrix" in="shadowBlurOuter1"></feColorMatrix>
        </filter>
        <path d="M17.2551758,213.505371 L17.2551758,204.321371 L18.4171758,204.321371 L18.4171758,213.505371 L17.2551758,213.505371 Z M20.8251758,213.505371 L20.8251758,206.701371 L21.7771758,206.701371 L21.8751758,207.681371 L21.9171758,207.681371 C22.5611758,207.037371 23.2611758,206.533371 24.1991758,206.533371 C25.6271758,206.533371 26.2711758,207.457371 26.2711758,209.193371 L26.2711758,213.505371 L25.1231758,213.505371 L25.1231758,209.347371 C25.1231758,208.073371 24.7311758,207.527371 23.8351758,207.527371 C23.1351758,207.527371 22.6591758,207.891371 21.9731758,208.577371 L21.9731758,213.505371 L20.8251758,213.505371 Z M28.6791758,213.505371 L28.6791758,207.639371 L27.7551758,207.639371 L27.7551758,206.771371 L28.6791758,206.701371 L28.6791758,205.623371 C28.6791758,204.237371 29.3091758,203.369371 30.6671758,203.369371 C31.0871758,203.369371 31.4931758,203.467371 31.8011758,203.593371 L31.5491758,204.475371 C31.2971758,204.363371 31.0311758,204.307371 30.7791758,204.307371 C30.1351758,204.307371 29.8271758,204.755371 29.8271758,205.623371 L29.8271758,206.701371 L31.2691758,206.701371 L31.2691758,207.639371 L29.8271758,207.639371 L29.8271758,213.505371 L28.6791758,213.505371 Z M32.5711758,213.505371 L32.5711758,206.701371 L33.5231758,206.701371 L33.6211758,207.933371 L33.6631758,207.933371 C34.1251758,207.079371 34.8251758,206.533371 35.5951758,206.533371 C35.8891758,206.533371 36.0991758,206.575371 36.3231758,206.673371 L36.0991758,207.681371 C35.8751758,207.611371 35.7211758,207.569371 35.4411758,207.569371 C34.8671758,207.569371 34.1811758,207.989371 33.7191758,209.137371 L33.7191758,213.505371 L32.5711758,213.505371 Z M38.9971758,213.673371 C37.8631758,213.673371 37.0091758,212.959371 37.0091758,211.741371 C37.0091758,210.257371 38.2831758,209.515371 41.1811758,209.193371 C41.1811758,208.325371 40.9011758,207.485371 39.7811758,207.485371 C38.9971758,207.485371 38.2831758,207.849371 37.7511758,208.213371 L37.3031758,207.415371 C37.9331758,207.009371 38.8851758,206.533371 39.9771758,206.533371 C41.6431758,206.533371 42.3431758,207.639371 42.3431758,209.333371 L42.3431758,213.505371 L41.3911758,213.505371 L41.2931758,212.693371 L41.2511758,212.693371 C40.6071758,213.225371 39.8511758,213.673371 38.9971758,213.673371 Z M39.3331758,212.749371 C39.9911758,212.749371 40.5231758,212.427371 41.1811758,211.839371 L41.1811758,209.949371 C38.9131758,210.229371 38.1291758,210.789371 38.1291758,211.657371 C38.1291758,212.427371 38.6611758,212.749371 39.3331758,212.749371 Z M46.2631758,213.673371 C45.2971758,213.673371 44.3731758,213.267371 43.7291758,212.735371 L44.3031758,211.965371 C44.8911758,212.441371 45.4931758,212.777371 46.3051758,212.777371 C47.2011758,212.777371 47.6491758,212.301371 47.6491758,211.713371 C47.6491758,211.013371 46.8371758,210.705371 46.0951758,210.425371 C45.1291758,210.075371 44.0651758,209.613371 44.0651758,208.465371 C44.0651758,207.373371 44.9331758,206.533371 46.4031758,206.533371 C47.2571758,206.533371 47.9991758,206.883371 48.5171758,207.303371 L47.9711758,208.031371 C47.5091758,207.681371 47.0191758,207.429371 46.4171758,207.429371 C45.5631758,207.429371 45.1711758,207.891371 45.1711758,208.409371 C45.1711758,209.053371 45.9131758,209.291371 46.6831758,209.585371 C47.6631758,209.949371 48.7551758,210.355371 48.7551758,211.643371 C48.7551758,212.749371 47.8731758,213.673371 46.2631758,213.673371 Z M52.4931758,213.673371 C51.0371758,213.673371 50.5471758,212.749371 50.5471758,211.405371 L50.5471758,207.639371 L49.5391758,207.639371 L49.5391758,206.771371 L50.6031758,206.701371 L50.7431758,204.797371 L51.7091758,204.797371 L51.7091758,206.701371 L53.5431758,206.701371 L53.5431758,207.639371 L51.7091758,207.639371 L51.7091758,211.419371 C51.7091758,212.259371 51.9751758,212.735371 52.7591758,212.735371 C52.9971758,212.735371 53.3051758,212.637371 53.5291758,212.553371 L53.7531758,213.421371 C53.3751758,213.547371 52.9131758,213.673371 52.4931758,213.673371 Z M55.0831758,213.505371 L55.0831758,206.701371 L56.0351758,206.701371 L56.1331758,207.933371 L56.1751758,207.933371 C56.6371758,207.079371 57.3371758,206.533371 58.1071758,206.533371 C58.4011758,206.533371 58.6111758,206.575371 58.8351758,206.673371 L58.6111758,207.681371 C58.3871758,207.611371 58.2331758,207.569371 57.9531758,207.569371 C57.3791758,207.569371 56.6931758,207.989371 56.2311758,209.137371 L56.2311758,213.505371 L55.0831758,213.505371 Z M61.9291758,213.673371 C60.4871758,213.673371 59.8431758,212.749371 59.8431758,211.013371 L59.8431758,206.701371 L61.0051758,206.701371 L61.0051758,210.859371 C61.0051758,212.133371 61.3831758,212.679371 62.2791758,212.679371 C62.9791758,212.679371 63.4691758,212.329371 64.1131758,211.531371 L64.1131758,206.701371 L65.2611758,206.701371 L65.2611758,213.505371 L64.3091758,213.505371 L64.2111758,212.441371 L64.1691758,212.441371 C63.5391758,213.183371 62.8671758,213.673371 61.9291758,213.673371 Z M70.2451758,213.673371 C68.4391758,213.673371 67.0531758,212.371371 67.0531758,210.117371 C67.0531758,207.835371 68.5791758,206.533371 70.3291758,206.533371 C71.2251758,206.533371 71.8411758,206.897371 72.3171758,207.331371 L71.7291758,208.087371 C71.3371758,207.737371 70.9171758,207.485371 70.3711758,207.485371 C69.1391758,207.485371 68.2431758,208.549371 68.2431758,210.117371 C68.2431758,211.671371 69.0971758,212.721371 70.3431758,212.721371 C70.9731758,212.721371 71.5191758,212.413371 71.9391758,212.035371 L72.4431758,212.805371 C71.8271758,213.351371 71.0571758,213.673371 70.2451758,213.673371 Z M76.0831758,213.673371 C74.6271758,213.673371 74.1371758,212.749371 74.1371758,211.405371 L74.1371758,207.639371 L73.1291758,207.639371 L73.1291758,206.771371 L74.1931758,206.701371 L74.3331758,204.797371 L75.2991758,204.797371 L75.2991758,206.701371 L77.1331758,206.701371 L77.1331758,207.639371 L75.2991758,207.639371 L75.2991758,211.419371 C75.2991758,212.259371 75.5651758,212.735371 76.3491758,212.735371 C76.5871758,212.735371 76.8951758,212.637371 77.1191758,212.553371 L77.3431758,213.421371 C76.9651758,213.547371 76.5031758,213.673371 76.0831758,213.673371 Z M80.6611758,213.673371 C79.2191758,213.673371 78.5751758,212.749371 78.5751758,211.013371 L78.5751758,206.701371 L79.7371758,206.701371 L79.7371758,210.859371 C79.7371758,212.133371 80.1151758,212.679371 81.0111758,212.679371 C81.7111758,212.679371 82.2011758,212.329371 82.8451758,211.531371 L82.8451758,206.701371 L83.9931758,206.701371 L83.9931758,213.505371 L83.0411758,213.505371 L82.9431758,212.441371 L82.9011758,212.441371 C82.2711758,213.183371 81.5991758,213.673371 80.6611758,213.673371 Z M86.2891758,213.505371 L86.2891758,206.701371 L87.2411758,206.701371 L87.3391758,207.933371 L87.3811758,207.933371 C87.8431758,207.079371 88.5431758,206.533371 89.3131758,206.533371 C89.6071758,206.533371 89.8171758,206.575371 90.0411758,206.673371 L89.8171758,207.681371 C89.5931758,207.611371 89.4391758,207.569371 89.1591758,207.569371 C88.5851758,207.569371 87.8991758,207.989371 87.4371758,209.137371 L87.4371758,213.505371 L86.2891758,213.505371 Z M93.9051758,213.673371 C92.0851758,213.673371 90.6431758,212.343371 90.6431758,210.117371 C90.6431758,207.891371 92.1411758,206.533371 93.6951758,206.533371 C95.4311758,206.533371 96.4111758,207.779371 96.4111758,209.725371 C96.4111758,209.963371 96.3971758,210.215371 96.3691758,210.383371 L91.7771758,210.383371 C91.8611758,211.825371 92.7431758,212.749371 94.0451758,212.749371 C94.6891758,212.749371 95.2351758,212.539371 95.7391758,212.217371 L96.1451758,212.973371 C95.5571758,213.351371 94.8291758,213.673371 93.9051758,213.673371 Z M91.7631758,209.557371 L95.4031758,209.557371 C95.4031758,208.185371 94.7871758,207.443371 93.7231758,207.443371 C92.7711758,207.443371 91.9031758,208.213371 91.7631758,209.557371 Z M100.891176,213.505371 L100.891176,206.701371 L101.843176,206.701371 L101.941176,207.681371 L101.983176,207.681371 C102.571176,207.037371 103.285176,206.533371 104.097176,206.533371 C105.133176,206.533371 105.693176,207.023371 105.973176,207.835371 C106.687176,207.065371 107.387176,206.533371 108.213176,206.533371 C109.613176,206.533371 110.285176,207.457371 110.285176,209.193371 L110.285176,213.505371 L109.137176,213.505371 L109.137176,209.347371 C109.137176,208.073371 108.731176,207.527371 107.877176,207.527371 C107.345176,207.527371 106.799176,207.877371 106.169176,208.577371 L106.169176,213.505371 L105.021176,213.505371 L105.021176,209.347371 C105.021176,208.073371 104.615176,207.527371 103.747176,207.527371 C103.243176,207.527371 102.669176,207.877371 102.039176,208.577371 L102.039176,213.505371 L100.891176,213.505371 Z M114.065176,213.673371 C112.931176,213.673371 112.077176,212.959371 112.077176,211.741371 C112.077176,210.257371 113.351176,209.515371 116.249176,209.193371 C116.249176,208.325371 115.969176,207.485371 114.849176,207.485371 C114.065176,207.485371 113.351176,207.849371 112.819176,208.213371 L112.371176,207.415371 C113.001176,207.009371 113.953176,206.533371 115.045176,206.533371 C116.711176,206.533371 117.411176,207.639371 117.411176,209.333371 L117.411176,213.505371 L116.459176,213.505371 L116.361176,212.693371 L116.319176,212.693371 C115.675176,213.225371 114.919176,213.673371 114.065176,213.673371 Z M114.401176,212.749371 C115.059176,212.749371 115.591176,212.427371 116.249176,211.839371 L116.249176,209.949371 C113.981176,210.229371 113.197176,210.789371 113.197176,211.657371 C113.197176,212.427371 113.729176,212.749371 114.401176,212.749371 Z M119.553176,213.505371 L119.553176,206.701371 L120.505176,206.701371 L120.603176,207.681371 L120.645176,207.681371 C121.289176,207.037371 121.989176,206.533371 122.927176,206.533371 C124.355176,206.533371 124.999176,207.457371 124.999176,209.193371 L124.999176,213.505371 L123.851176,213.505371 L123.851176,209.347371 C123.851176,208.073371 123.459176,207.527371 122.563176,207.527371 C121.863176,207.527371 121.387176,207.891371 120.701176,208.577371 L120.701176,213.505371 L119.553176,213.505371 Z M128.779176,213.673371 C127.645176,213.673371 126.791176,212.959371 126.791176,211.741371 C126.791176,210.257371 128.065176,209.515371 130.963176,209.193371 C130.963176,208.325371 130.683176,207.485371 129.563176,207.485371 C128.779176,207.485371 128.065176,207.849371 127.533176,208.213371 L127.085176,207.415371 C127.715176,207.009371 128.667176,206.533371 129.759176,206.533371 C131.425176,206.533371 132.125176,207.639371 132.125176,209.333371 L132.125176,213.505371 L131.173176,213.505371 L131.075176,212.693371 L131.033176,212.693371 C130.389176,213.225371 129.633176,213.673371 128.779176,213.673371 Z M129.115176,212.749371 C129.773176,212.749371 130.305176,212.427371 130.963176,211.839371 L130.963176,209.949371 C128.695176,210.229371 127.911176,210.789371 127.911176,211.657371 C127.911176,212.427371 128.443176,212.749371 129.115176,212.749371 Z M136.563176,216.641371 C134.897176,216.641371 133.749176,215.983371 133.749176,214.807371 C133.749176,214.233371 134.127176,213.687371 134.743176,213.267371 L134.743176,213.211371 C134.407176,213.001371 134.141176,212.637371 134.141176,212.105371 C134.141176,211.531371 134.533176,211.083371 134.883176,210.845371 L134.883176,210.789371 C134.435176,210.425371 134.001176,209.767371 134.001176,208.955371 C134.001176,207.471371 135.177176,206.533371 136.563176,206.533371 C136.941176,206.533371 137.277176,206.603371 137.529176,206.701371 L139.895176,206.701371 L139.895176,207.583371 L138.495176,207.583371 C138.817176,207.891371 139.055176,208.409371 139.055176,208.983371 C139.055176,210.439371 137.949176,211.349371 136.563176,211.349371 C136.227176,211.349371 135.849176,211.265371 135.541176,211.111371 C135.303176,211.321371 135.107176,211.545371 135.107176,211.923371 C135.107176,212.357371 135.387176,212.665371 136.311176,212.665371 L137.627176,212.665371 C139.209176,212.665371 140.007176,213.155371 140.007176,214.289371 C140.007176,215.549371 138.677176,216.641371 136.563176,216.641371 Z M136.563176,210.579371 C137.347176,210.579371 138.005176,209.949371 138.005176,208.955371 C138.005176,207.961371 137.361176,207.373371 136.563176,207.373371 C135.765176,207.373371 135.121176,207.961371 135.121176,208.955371 C135.121176,209.949371 135.779176,210.579371 136.563176,210.579371 Z M136.731176,215.843371 C138.033176,215.843371 138.887176,215.171371 138.887176,214.457371 C138.887176,213.827371 138.397176,213.617371 137.515176,213.617371 L136.339176,213.617371 C136.073176,213.617371 135.751176,213.589371 135.457176,213.505371 C134.967176,213.855371 134.757176,214.261371 134.757176,214.653371 C134.757176,215.381371 135.499176,215.843371 136.731176,215.843371 Z M141.323176,213.505371 L141.323176,206.701371 L142.275176,206.701371 L142.373176,207.681371 L142.415176,207.681371 C143.003176,207.037371 143.717176,206.533371 144.529176,206.533371 C145.565176,206.533371 146.125176,207.023371 146.405176,207.835371 C147.119176,207.065371 147.819176,206.533371 148.645176,206.533371 C150.045176,206.533371 150.717176,207.457371 150.717176,209.193371 L150.717176,213.505371 L149.569176,213.505371 L149.569176,209.347371 C149.569176,208.073371 149.163176,207.527371 148.309176,207.527371 C147.777176,207.527371 147.231176,207.877371 146.601176,208.577371 L146.601176,213.505371 L145.453176,213.505371 L145.453176,209.347371 C145.453176,208.073371 145.047176,207.527371 144.179176,207.527371 C143.675176,207.527371 143.101176,207.877371 142.471176,208.577371 L142.471176,213.505371 L141.323176,213.505371 Z M155.687176,213.673371 C153.867176,213.673371 152.425176,212.343371 152.425176,210.117371 C152.425176,207.891371 153.923176,206.533371 155.477176,206.533371 C157.213176,206.533371 158.193176,207.779371 158.193176,209.725371 C158.193176,209.963371 158.179176,210.215371 158.151176,210.383371 L153.559176,210.383371 C153.643176,211.825371 154.525176,212.749371 155.827176,212.749371 C156.471176,212.749371 157.017176,212.539371 157.521176,212.217371 L157.927176,212.973371 C157.339176,213.351371 156.611176,213.673371 155.687176,213.673371 Z M153.545176,209.557371 L157.185176,209.557371 C157.185176,208.185371 156.569176,207.443371 155.505176,207.443371 C154.553176,207.443371 153.685176,208.213371 153.545176,209.557371 Z M159.873176,213.505371 L159.873176,206.701371 L160.825176,206.701371 L160.923176,207.681371 L160.965176,207.681371 C161.609176,207.037371 162.309176,206.533371 163.247176,206.533371 C164.675176,206.533371 165.319176,207.457371 165.319176,209.193371 L165.319176,213.505371 L164.171176,213.505371 L164.171176,209.347371 C164.171176,208.073371 163.779176,207.527371 162.883176,207.527371 C162.183176,207.527371 161.707176,207.891371 161.021176,208.577371 L161.021176,213.505371 L159.873176,213.505371 Z M169.673176,213.673371 C168.217176,213.673371 167.727176,212.749371 167.727176,211.405371 L167.727176,207.639371 L166.719176,207.639371 L166.719176,206.771371 L167.783176,206.701371 L167.923176,204.797371 L168.889176,204.797371 L168.889176,206.701371 L170.723176,206.701371 L170.723176,207.639371 L168.889176,207.639371 L168.889176,211.419371 C168.889176,212.259371 169.155176,212.735371 169.939176,212.735371 C170.177176,212.735371 170.485176,212.637371 170.709176,212.553371 L170.933176,213.421371 C170.555176,213.547371 170.093176,213.673371 169.673176,213.673371 Z M64.8971758,231.673371 C63.0911758,231.673371 61.7051758,230.371371 61.7051758,228.117371 C61.7051758,225.835371 63.2311758,224.533371 64.9811758,224.533371 C65.8771758,224.533371 66.4931758,224.897371 66.9691758,225.331371 L66.3811758,226.087371 C65.9891758,225.737371 65.5691758,225.485371 65.0231758,225.485371 C63.7911758,225.485371 62.8951758,226.549371 62.8951758,228.117371 C62.8951758,229.671371 63.7491758,230.721371 64.9951758,230.721371 C65.6251758,230.721371 66.1711758,230.413371 66.5911758,230.035371 L67.0951758,230.805371 C66.4791758,231.351371 65.7091758,231.673371 64.8971758,231.673371 Z M71.2391758,231.673371 C69.5731758,231.673371 68.0891758,230.371371 68.0891758,228.117371 C68.0891758,225.835371 69.5731758,224.533371 71.2391758,224.533371 C72.9051758,224.533371 74.3891758,225.835371 74.3891758,228.117371 C74.3891758,230.371371 72.9051758,231.673371 71.2391758,231.673371 Z M71.2391758,230.721371 C72.4151758,230.721371 73.1991758,229.671371 73.1991758,228.117371 C73.1991758,226.549371 72.4151758,225.485371 71.2391758,225.485371 C70.0771758,225.485371 69.2791758,226.549371 69.2791758,228.117371 C69.2791758,229.671371 70.0771758,230.721371 71.2391758,230.721371 Z M77.9591758,231.673371 C76.9931758,231.673371 76.0691758,231.267371 75.4251758,230.735371 L75.9991758,229.965371 C76.5871758,230.441371 77.1891758,230.777371 78.0011758,230.777371 C78.8971758,230.777371 79.3451758,230.301371 79.3451758,229.713371 C79.3451758,229.013371 78.5331758,228.705371 77.7911758,228.425371 C76.8251758,228.075371 75.7611758,227.613371 75.7611758,226.465371 C75.7611758,225.373371 76.6291758,224.533371 78.0991758,224.533371 C78.9531758,224.533371 79.6951758,224.883371 80.2131758,225.303371 L79.6671758,226.031371 C79.2051758,225.681371 78.7151758,225.429371 78.1131758,225.429371 C77.2591758,225.429371 76.8671758,225.891371 76.8671758,226.409371 C76.8671758,227.053371 77.6091758,227.291371 78.3791758,227.585371 C79.3591758,227.949371 80.4511758,228.355371 80.4511758,229.643371 C80.4511758,230.749371 79.5691758,231.673371 77.9591758,231.673371 Z M84.1891758,231.673371 C82.7331758,231.673371 82.2431758,230.749371 82.2431758,229.405371 L82.2431758,225.639371 L81.2351758,225.639371 L81.2351758,224.771371 L82.2991758,224.701371 L82.4391758,222.797371 L83.4051758,222.797371 L83.4051758,224.701371 L85.2391758,224.701371 L85.2391758,225.639371 L83.4051758,225.639371 L83.4051758,229.419371 C83.4051758,230.259371 83.6711758,230.735371 84.4551758,230.735371 C84.6931758,230.735371 85.0011758,230.637371 85.2251758,230.553371 L85.4491758,231.421371 C85.0711758,231.547371 84.6091758,231.673371 84.1891758,231.673371 Z M91.3571758,231.673371 C90.3911758,231.673371 89.4671758,231.267371 88.8231758,230.735371 L89.3971758,229.965371 C89.9851758,230.441371 90.5871758,230.777371 91.3991758,230.777371 C92.2951758,230.777371 92.7431758,230.301371 92.7431758,229.713371 C92.7431758,229.013371 91.9311758,228.705371 91.1891758,228.425371 C90.2231758,228.075371 89.1591758,227.613371 89.1591758,226.465371 C89.1591758,225.373371 90.0271758,224.533371 91.4971758,224.533371 C92.3511758,224.533371 93.0931758,224.883371 93.6111758,225.303371 L93.0651758,226.031371 C92.6031758,225.681371 92.1131758,225.429371 91.5111758,225.429371 C90.6571758,225.429371 90.2651758,225.891371 90.2651758,226.409371 C90.2651758,227.053371 91.0071758,227.291371 91.7771758,227.585371 C92.7571758,227.949371 93.8491758,228.355371 93.8491758,229.643371 C93.8491758,230.749371 92.9671758,231.673371 91.3571758,231.673371 Z M97.0131758,231.673371 C95.8791758,231.673371 95.0251758,230.959371 95.0251758,229.741371 C95.0251758,228.257371 96.2991758,227.515371 99.1971758,227.193371 C99.1971758,226.325371 98.9171758,225.485371 97.7971758,225.485371 C97.0131758,225.485371 96.2991758,225.849371 95.7671758,226.213371 L95.3191758,225.415371 C95.9491758,225.009371 96.9011758,224.533371 97.9931758,224.533371 C99.6591758,224.533371 100.359176,225.639371 100.359176,227.333371 L100.359176,231.505371 L99.4071758,231.505371 L99.3091758,230.693371 L99.2671758,230.693371 C98.6231758,231.225371 97.8671758,231.673371 97.0131758,231.673371 Z M97.3491758,230.749371 C98.0071758,230.749371 98.5391758,230.427371 99.1971758,229.839371 L99.1971758,227.949371 C96.9291758,228.229371 96.1451758,228.789371 96.1451758,229.657371 C96.1451758,230.427371 96.6771758,230.749371 97.3491758,230.749371 Z M103.971176,231.505371 L101.521176,224.701371 L102.711176,224.701371 L103.999176,228.565371 C104.195176,229.237371 104.419176,229.923371 104.629176,230.567371 L104.685176,230.567371 C104.881176,229.923371 105.105176,229.237371 105.301176,228.565371 L106.589176,224.701371 L107.723176,224.701371 L105.315176,231.505371 L103.971176,231.505371 Z M109.039176,231.505371 L109.039176,224.701371 L110.187176,224.701371 L110.187176,231.505371 L109.039176,231.505371 Z M109.627176,223.301371 C109.179176,223.301371 108.829176,222.993371 108.829176,222.559371 C108.829176,222.111371 109.179176,221.817371 109.627176,221.817371 C110.075176,221.817371 110.425176,222.111371 110.425176,222.559371 C110.425176,222.993371 110.075176,223.301371 109.627176,223.301371 Z M112.483176,231.505371 L112.483176,224.701371 L113.435176,224.701371 L113.533176,225.681371 L113.575176,225.681371 C114.219176,225.037371 114.919176,224.533371 115.857176,224.533371 C117.285176,224.533371 117.929176,225.457371 117.929176,227.193371 L117.929176,231.505371 L116.781176,231.505371 L116.781176,227.347371 C116.781176,226.073371 116.389176,225.527371 115.493176,225.527371 C114.793176,225.527371 114.317176,225.891371 113.631176,226.577371 L113.631176,231.505371 L112.483176,231.505371 Z M122.437176,234.641371 C120.771176,234.641371 119.623176,233.983371 119.623176,232.807371 C119.623176,232.233371 120.001176,231.687371 120.617176,231.267371 L120.617176,231.211371 C120.281176,231.001371 120.015176,230.637371 120.015176,230.105371 C120.015176,229.531371 120.407176,229.083371 120.757176,228.845371 L120.757176,228.789371 C120.309176,228.425371 119.875176,227.767371 119.875176,226.955371 C119.875176,225.471371 121.051176,224.533371 122.437176,224.533371 C122.815176,224.533371 123.151176,224.603371 123.403176,224.701371 L125.769176,224.701371 L125.769176,225.583371 L124.369176,225.583371 C124.691176,225.891371 124.929176,226.409371 124.929176,226.983371 C124.929176,228.439371 123.823176,229.349371 122.437176,229.349371 C122.101176,229.349371 121.723176,229.265371 121.415176,229.111371 C121.177176,229.321371 120.981176,229.545371 120.981176,229.923371 C120.981176,230.357371 121.261176,230.665371 122.185176,230.665371 L123.501176,230.665371 C125.083176,230.665371 125.881176,231.155371 125.881176,232.289371 C125.881176,233.549371 124.551176,234.641371 122.437176,234.641371 Z M122.437176,228.579371 C123.221176,228.579371 123.879176,227.949371 123.879176,226.955371 C123.879176,225.961371 123.235176,225.373371 122.437176,225.373371 C121.639176,225.373371 120.995176,225.961371 120.995176,226.955371 C120.995176,227.949371 121.653176,228.579371 122.437176,228.579371 Z M122.605176,233.843371 C123.907176,233.843371 124.761176,233.171371 124.761176,232.457371 C124.761176,231.827371 124.271176,231.617371 123.389176,231.617371 L122.213176,231.617371 C121.947176,231.617371 121.625176,231.589371 121.331176,231.505371 C120.841176,231.855371 120.631176,232.261371 120.631176,232.653371 C120.631176,233.381371 121.373176,233.843371 122.605176,233.843371 Z" id="path-15"></path>
        <circle id="path-16" cx="91.8288269" cy="97.9500427" r="53.059906"></circle>
        <filter x="-12.7%" y="-12.7%" width="131.1%" height="131.1%" filterUnits="objectBoundingBox" id="filter-17">
            <feOffset dx="3" dy="3" in="SourceAlpha" result="shadowOffsetOuter1"></feOffset>
            <feGaussianBlur stdDeviation="5" in="shadowOffsetOuter1" result="shadowBlurOuter1"></feGaussianBlur>
            <feColorMatrix values="0 0 0 0 0   0 0 0 0 0   0 0 0 0 0  0 0 0 0.25 0" type="matrix" in="shadowBlurOuter1"></feColorMatrix>
        </filter>
        <circle id="path-18" cx="91.2761879" cy="97.3973427" r="43.6638832"></circle>
        <filter x="-15.5%" y="-15.5%" width="137.8%" height="137.8%" filterUnits="objectBoundingBox" id="filter-19">
            <feOffset dx="3" dy="3" in="SourceAlpha" result="shadowOffsetOuter1"></feOffset>
            <feGaussianBlur stdDeviation="5" in="shadowOffsetOuter1" result="shadowBlurOuter1"></feGaussianBlur>
            <feColorMatrix values="0 0 0 0 0   0 0 0 0 0   0 0 0 0 0  0 0 0 0.25 0" type="matrix" in="shadowBlurOuter1"></feColorMatrix>
        </filter>
        <path d="M76.788,106.793371 C73.836,106.793371 71.028,104.585371 71.028,99.2333711 C71.028,93.5453711 73.98,90.9773711 77.196,90.9773711 C79.212,90.9773711 80.676,91.8173711 81.636,92.8013711 L79.788,94.9133711 C79.26,94.3373711 78.3,93.8333711 77.412,93.8333711 C75.732,93.8333711 74.388,95.0333711 74.268,98.5853711 C75.06,97.5773711 76.38,96.9773711 77.316,96.9773711 C79.932,96.9773711 81.852,98.4653711 81.852,101.681371 C81.852,104.849371 79.548,106.793371 76.788,106.793371 Z M76.716,104.153371 C77.772,104.153371 78.636,103.409371 78.636,101.681371 C78.636,100.073371 77.796,99.4733711 76.644,99.4733711 C75.852,99.4733711 74.964,99.9053711 74.34,100.985371 C74.652,103.385371 75.66,104.153371 76.716,104.153371 Z M89.052,106.793371 C85.788,106.793371 83.604,104.009371 83.604,98.8253711 C83.604,93.6413711 85.788,90.9773711 89.052,90.9773711 C92.316,90.9773711 94.5,93.6413711 94.5,98.8253711 C94.5,104.009371 92.316,106.793371 89.052,106.793371 Z M89.052,104.057371 C90.252,104.057371 91.164,102.977371 91.164,98.8253711 C91.164,94.6493711 90.252,93.7133711 89.052,93.7133711 C87.876,93.7133711 86.94,94.6493711 86.94,98.8253711 C86.94,102.977371 87.876,104.057371 89.052,104.057371 Z M99.9,100.505371 C97.644,100.505371 96.012,98.6573711 96.012,95.5133711 C96.012,92.3933711 97.644,90.5693711 99.9,90.5693711 C102.156,90.5693711 103.812,92.3933711 103.812,95.5133711 C103.812,98.6573711 102.156,100.505371 99.9,100.505371 Z M99.9,98.5373711 C100.692,98.5373711 101.34,97.7453711 101.34,95.5133711 C101.34,93.2813711 100.692,92.5373711 99.9,92.5373711 C99.108,92.5373711 98.46,93.2813711 98.46,95.5133711 C98.46,97.7453711 99.108,98.5373711 99.9,98.5373711 Z M100.428,106.793371 L108.876,90.5693711 L110.916,90.5693711 L102.468,106.793371 L100.428,106.793371 Z M111.444,106.793371 C109.188,106.793371 107.556,104.945371 107.556,101.801371 C107.556,98.6813711 109.188,96.8573711 111.444,96.8573711 C113.7,96.8573711 115.356,98.6813711 115.356,101.801371 C115.356,104.945371 113.7,106.793371 111.444,106.793371 Z M111.444,104.825371 C112.236,104.825371 112.884,104.033371 112.884,101.801371 C112.884,99.5693711 112.236,98.8253711 111.444,98.8253711 C110.652,98.8253711 110.004,99.5693711 110.004,101.801371 C110.004,104.033371 110.652,104.825371 111.444,104.825371 Z" id="path-20"></path>
    </defs>
    <g id="Landing-page-Webiny" stroke="none" stroke-width="1" fill="none" fill-rule="evenodd">
        <g id="Desktop-HD" transform="translate(-881.000000, -785.000000)">
            <g id="section" transform="translate(197.000000, 652.000000)">
                <g id="1" transform="translate(76.000000, 62.982544)">
                    <g id="icon" transform="translate(594.000000, 0.017456)">
                        <g>
                            <g id="Ellipse-47">
                                <use fill="black" fill-opacity="1" filter="url(#filter-2)" xlink:href="#path-1"></use>
                                <use fill="#F8F8F8" fill-rule="evenodd" xlink:href="#path-1"></use>
                            </g>
                            <path d="M33.1618652,171.339134 C33.1618652,215.905903 69.2903713,252.034409 113.85714,252.034409 C125.959197,252.034409 137.439026,249.370339 147.742168,244.596654 L113.85714,171.339134 M33.1618652,171.339134 C33.1618652,126.772366 69.2903713,90.6438599 113.85714,90.6438599 C158.423908,90.6438599 194.552414,126.772366 194.552414,171.339134 L113.85714,171.339134" id="Ellipse-41" fill="url(#linearGradient-3)"></path>
                            <g id="Ellipse-38" opacity="0.300000012">
                                <use fill="black" fill-opacity="1" filter="url(#filter-5)" xlink:href="#path-4"></use>
                                <use fill="#F6F6F6" fill-rule="evenodd" xlink:href="#path-4"></use>
                            </g>
                            <g id="Ellipse-39">
                                <use fill="black" fill-opacity="1" filter="url(#filter-7)" xlink:href="#path-6"></use>
                                <use fill="#F8F8F8" fill-rule="evenodd" xlink:href="#path-6"></use>
                            </g>
                            <g id="60-80" transform="translate(76.000000, 155.000000)" fill-rule="nonzero">
                                <g id="Cloudcostsaving" fill="#303030">
                                    <use xlink:href="#path-8"></use>
                                    <use xlink:href="#path-8"></use>
                                </g>
                                <g id="60-80%" fill="#C23772">
                                    <use xlink:href="#path-9"></use>
                                    <use xlink:href="#path-9"></use>
                                </g>
                            </g>
                        </g>
                        <g transform="translate(235.000000, 74.494629)">
                            <g id="Ellipse-47">
                                <use fill="black" fill-opacity="1" filter="url(#filter-11)" xlink:href="#path-10"></use>
                                <use fill="#F8F8F8" fill-rule="evenodd" xlink:href="#path-10"></use>
                            </g>
                            <g id="Ellipse-41" transform="translate(97.699969, 79.886492) rotate(98.906164) translate(-97.699969, -79.886492) ">
                                <use fill="black" fill-opacity="1" filter="url(#filter-14)" xlink:href="#path-13"></use>
                                <use fill="url(#linearGradient-12)" fill-rule="evenodd" xlink:href="#path-13"></use>
                            </g>
                            <g id="Infrastructuremanagmentcostsaving" fill-rule="nonzero" fill="#303030">
                                <use xlink:href="#path-15"></use>
                                <use xlink:href="#path-15"></use>
                            </g>
                            <g id="Ellipse-38" opacity="0.300000012">
                                <use fill="black" fill-opacity="1" filter="url(#filter-17)" xlink:href="#path-16"></use>
                                <use fill="#F6F6F6" fill-rule="evenodd" xlink:href="#path-16"></use>
                            </g>
                            <g id="Ellipse-39">
                                <use fill="black" fill-opacity="1" filter="url(#filter-19)" xlink:href="#path-18"></use>
                                <use fill="#F8F8F8" fill-rule="evenodd" xlink:href="#path-18"></use>
                            </g>
                            <g id="60%" fill-rule="nonzero" fill="#937BF5">
                                <use xlink:href="#path-20"></use>
                                <use xlink:href="#path-20"></use>
                            </g>
                        </g>
                    </g>
                </g>
            </g>
        </g>
    </g>
</svg>