<svg width="423" height="311" viewBox="0 0 423 311" fill="none" xmlns="http://www.w3.org/2000/svg">
<g filter="url(#filter0_d)">
<circle cx="113.5" cy="172.5" r="89.5" fill="#F8F8F8"/>
</g>
<path fill-rule="evenodd" clip-rule="evenodd" d="M33.1619 171.339C33.1619 215.906 69.2904 252.034 113.857 252.034C125.959 252.034 137.439 249.37 147.742 244.597L113.857 171.339M33.1619 171.339C33.1619 126.772 69.2904 90.6439 113.857 90.6439C158.424 90.6439 194.552 126.772 194.552 171.339H113.857M33.1619 171.339H113.857H33.1619Z" fill="url(#paint0_linear)"/>
<g opacity="0.3" filter="url(#filter1_d)">
<circle cx="113.5" cy="172.5" r="58.5" fill="#F7F7F7"/>
</g>
<g filter="url(#filter2_d)">
<ellipse cx="114" cy="172.5" rx="49" ry="48.5" fill="#F8F8F8"/>
</g>
<path d="M100.044 288.522C99.4653 288.522 98.9333 288.414 98.448 288.2C97.9627 287.985 97.538 287.677 97.174 287.276C96.8193 286.865 96.5393 286.366 96.334 285.778C96.138 285.18 96.04 284.508 96.04 283.762C96.04 283.024 96.1427 282.362 96.348 281.774C96.5533 281.186 96.838 280.686 97.202 280.276C97.566 279.865 97.9953 279.552 98.49 279.338C98.9847 279.114 99.526 279.002 100.114 279.002C100.674 279.002 101.164 279.118 101.584 279.352C102.013 279.576 102.363 279.837 102.634 280.136L102.004 280.892C101.761 280.63 101.486 280.42 101.178 280.262C100.87 280.103 100.52 280.024 100.128 280.024C99.6893 280.024 99.2927 280.112 98.938 280.29C98.5833 280.458 98.28 280.705 98.028 281.032C97.776 281.349 97.58 281.736 97.44 282.194C97.3093 282.651 97.244 283.164 97.244 283.734C97.244 284.312 97.3093 284.835 97.44 285.302C97.58 285.759 97.7713 286.151 98.014 286.478C98.2567 286.804 98.5507 287.056 98.896 287.234C99.2507 287.411 99.6473 287.5 100.086 287.5C100.534 287.5 100.926 287.411 101.262 287.234C101.598 287.047 101.915 286.79 102.214 286.464L102.858 287.192C102.494 287.612 102.083 287.938 101.626 288.172C101.169 288.405 100.641 288.522 100.044 288.522ZM105.676 288.522C105.237 288.522 104.925 288.391 104.738 288.13C104.551 287.868 104.458 287.486 104.458 286.982V278.386H105.606V287.066C105.606 287.252 105.639 287.383 105.704 287.458C105.769 287.532 105.844 287.57 105.928 287.57C105.965 287.57 105.998 287.57 106.026 287.57C106.063 287.57 106.115 287.56 106.18 287.542L106.334 288.41C106.259 288.447 106.171 288.475 106.068 288.494C105.965 288.512 105.835 288.522 105.676 288.522ZM110.672 288.522C110.252 288.522 109.851 288.442 109.468 288.284C109.095 288.125 108.764 287.896 108.474 287.598C108.185 287.29 107.952 286.916 107.774 286.478C107.606 286.03 107.522 285.526 107.522 284.966C107.522 284.396 107.606 283.892 107.774 283.454C107.952 283.006 108.185 282.628 108.474 282.32C108.764 282.012 109.095 281.778 109.468 281.62C109.851 281.461 110.252 281.382 110.672 281.382C111.092 281.382 111.489 281.461 111.862 281.62C112.245 281.778 112.581 282.012 112.87 282.32C113.16 282.628 113.388 283.006 113.556 283.454C113.734 283.892 113.822 284.396 113.822 284.966C113.822 285.526 113.734 286.03 113.556 286.478C113.388 286.916 113.16 287.29 112.87 287.598C112.581 287.896 112.245 288.125 111.862 288.284C111.489 288.442 111.092 288.522 110.672 288.522ZM110.672 287.57C110.962 287.57 111.228 287.509 111.47 287.388C111.713 287.257 111.918 287.08 112.086 286.856C112.264 286.622 112.399 286.347 112.492 286.03C112.586 285.712 112.632 285.358 112.632 284.966C112.632 284.574 112.586 284.219 112.492 283.902C112.399 283.575 112.264 283.295 112.086 283.062C111.918 282.828 111.713 282.651 111.47 282.53C111.228 282.399 110.962 282.334 110.672 282.334C110.383 282.334 110.117 282.399 109.874 282.53C109.632 282.651 109.422 282.828 109.244 283.062C109.076 283.295 108.946 283.575 108.852 283.902C108.759 284.219 108.712 284.574 108.712 284.966C108.712 285.358 108.759 285.712 108.852 286.03C108.946 286.347 109.076 286.622 109.244 286.856C109.422 287.08 109.632 287.257 109.874 287.388C110.117 287.509 110.383 287.57 110.672 287.57ZM117.602 288.522C116.874 288.522 116.342 288.298 116.006 287.85C115.68 287.402 115.516 286.739 115.516 285.862V281.55H116.678V285.708C116.678 286.352 116.776 286.818 116.972 287.108C117.178 287.388 117.504 287.528 117.952 287.528C118.307 287.528 118.62 287.439 118.89 287.262C119.161 287.075 119.46 286.781 119.786 286.38V281.55H120.934V288.354H119.982L119.884 287.29H119.842C119.525 287.663 119.189 287.962 118.834 288.186C118.489 288.41 118.078 288.522 117.602 288.522ZM125.554 288.522C124.695 288.522 124.009 288.214 123.496 287.598C122.992 286.982 122.74 286.104 122.74 284.966C122.74 284.415 122.819 283.92 122.978 283.482C123.146 283.034 123.365 282.656 123.636 282.348C123.906 282.04 124.219 281.802 124.574 281.634C124.928 281.466 125.302 281.382 125.694 281.382C126.086 281.382 126.426 281.452 126.716 281.592C127.005 281.732 127.299 281.923 127.598 282.166L127.542 281.004V278.386H128.704V288.354H127.752L127.654 287.556H127.612C127.341 287.817 127.028 288.046 126.674 288.242C126.328 288.428 125.955 288.522 125.554 288.522ZM125.806 287.556C126.123 287.556 126.422 287.481 126.702 287.332C126.982 287.173 127.262 286.935 127.542 286.618V283.062C127.252 282.8 126.972 282.618 126.702 282.516C126.44 282.404 126.17 282.348 125.89 282.348C125.619 282.348 125.362 282.413 125.12 282.544C124.886 282.665 124.681 282.842 124.504 283.076C124.326 283.3 124.186 283.57 124.084 283.888C123.981 284.205 123.93 284.56 123.93 284.952C123.93 285.773 124.093 286.412 124.42 286.87C124.746 287.327 125.208 287.556 125.806 287.556ZM85.6129 306.522C85.1649 306.522 84.7449 306.442 84.3529 306.284C83.9609 306.125 83.6202 305.896 83.3309 305.598C83.0509 305.29 82.8269 304.916 82.6589 304.478C82.5002 304.03 82.4209 303.526 82.4209 302.966C82.4209 302.396 82.5095 301.892 82.6869 301.454C82.8642 301.006 83.1022 300.628 83.4009 300.32C83.6995 300.012 84.0449 299.778 84.4369 299.62C84.8382 299.461 85.2582 299.382 85.6969 299.382C86.1449 299.382 86.5275 299.461 86.8449 299.62C87.1622 299.778 87.4422 299.965 87.6849 300.18L87.0969 300.936C86.9009 300.758 86.6909 300.614 86.4669 300.502C86.2522 300.39 86.0095 300.334 85.7389 300.334C85.4309 300.334 85.1462 300.399 84.8849 300.53C84.6235 300.651 84.3995 300.828 84.2129 301.062C84.0262 301.295 83.8769 301.575 83.7649 301.902C83.6622 302.219 83.6109 302.574 83.6109 302.966C83.6109 303.358 83.6622 303.712 83.7649 304.03C83.8675 304.347 84.0075 304.622 84.1849 304.856C84.3715 305.08 84.5955 305.257 84.8569 305.388C85.1182 305.509 85.4029 305.57 85.7109 305.57C86.0282 305.57 86.3175 305.504 86.5789 305.374C86.8495 305.234 87.0922 305.07 87.3069 304.884L87.8109 305.654C87.5029 305.924 87.1622 306.139 86.7889 306.298C86.4155 306.447 86.0235 306.522 85.6129 306.522ZM91.6548 306.522C91.2348 306.522 90.8335 306.442 90.4508 306.284C90.0775 306.125 89.7462 305.896 89.4568 305.598C89.1675 305.29 88.9342 304.916 88.7568 304.478C88.5888 304.03 88.5048 303.526 88.5048 302.966C88.5048 302.396 88.5888 301.892 88.7568 301.454C88.9342 301.006 89.1675 300.628 89.4568 300.32C89.7462 300.012 90.0775 299.778 90.4508 299.62C90.8335 299.461 91.2348 299.382 91.6548 299.382C92.0748 299.382 92.4715 299.461 92.8448 299.62C93.2275 299.778 93.5635 300.012 93.8528 300.32C94.1422 300.628 94.3708 301.006 94.5388 301.454C94.7162 301.892 94.8048 302.396 94.8048 302.966C94.8048 303.526 94.7162 304.03 94.5388 304.478C94.3708 304.916 94.1422 305.29 93.8528 305.598C93.5635 305.896 93.2275 306.125 92.8448 306.284C92.4715 306.442 92.0748 306.522 91.6548 306.522ZM91.6548 305.57C91.9442 305.57 92.2102 305.509 92.4528 305.388C92.6955 305.257 92.9008 305.08 93.0688 304.856C93.2462 304.622 93.3815 304.347 93.4748 304.03C93.5682 303.712 93.6148 303.358 93.6148 302.966C93.6148 302.574 93.5682 302.219 93.4748 301.902C93.3815 301.575 93.2462 301.295 93.0688 301.062C92.9008 300.828 92.6955 300.651 92.4528 300.53C92.2102 300.399 91.9442 300.334 91.6548 300.334C91.3655 300.334 91.0995 300.399 90.8568 300.53C90.6142 300.651 90.4042 300.828 90.2268 301.062C90.0588 301.295 89.9282 301.575 89.8348 301.902C89.7415 302.219 89.6948 302.574 89.6948 302.966C89.6948 303.358 89.7415 303.712 89.8348 304.03C89.9282 304.347 90.0588 304.622 90.2268 304.856C90.4042 305.08 90.6142 305.257 90.8568 305.388C91.0995 305.509 91.3655 305.57 91.6548 305.57ZM98.3747 306.522C97.8894 306.522 97.4274 306.433 96.9887 306.256C96.5501 306.078 96.1674 305.854 95.8407 305.584L96.4147 304.814C96.7134 305.056 97.0167 305.252 97.3247 305.402C97.6421 305.551 98.0061 305.626 98.4167 305.626C98.8647 305.626 99.2007 305.523 99.4247 305.318C99.6487 305.112 99.7607 304.86 99.7607 304.562C99.7607 304.384 99.7141 304.23 99.6207 304.1C99.5274 303.969 99.4061 303.857 99.2567 303.764C99.1167 303.661 98.9534 303.572 98.7667 303.498C98.5801 303.423 98.3934 303.348 98.2067 303.274C97.9641 303.19 97.7214 303.096 97.4787 302.994C97.2361 302.882 97.0167 302.751 96.8207 302.602C96.6341 302.443 96.4801 302.261 96.3587 302.056C96.2374 301.85 96.1767 301.603 96.1767 301.314C96.1767 301.043 96.2281 300.791 96.3307 300.558C96.4427 300.315 96.5967 300.11 96.7927 299.942C96.9981 299.764 97.2454 299.629 97.5347 299.536C97.8241 299.433 98.1507 299.382 98.5147 299.382C98.9441 299.382 99.3361 299.456 99.6907 299.606C100.055 299.755 100.367 299.937 100.629 300.152L100.083 300.88C99.8494 300.702 99.6067 300.558 99.3547 300.446C99.1027 300.334 98.8274 300.278 98.5287 300.278C98.0994 300.278 97.7821 300.376 97.5767 300.572C97.3807 300.768 97.2827 300.996 97.2827 301.258C97.2827 301.416 97.3247 301.556 97.4087 301.678C97.4927 301.79 97.6047 301.892 97.7447 301.986C97.8847 302.07 98.0434 302.149 98.2207 302.224C98.4074 302.289 98.5987 302.359 98.7947 302.434C99.0374 302.527 99.2801 302.625 99.5227 302.728C99.7747 302.83 99.9987 302.961 100.195 303.12C100.391 303.269 100.549 303.456 100.671 303.68C100.801 303.904 100.867 304.174 100.867 304.492C100.867 304.772 100.811 305.033 100.699 305.276C100.596 305.518 100.437 305.733 100.223 305.92C100.017 306.106 99.7561 306.251 99.4387 306.354C99.1307 306.466 98.7761 306.522 98.3747 306.522ZM104.331 306.522C103.967 306.522 103.659 306.466 103.407 306.354C103.164 306.242 102.963 306.088 102.805 305.892C102.655 305.696 102.548 305.458 102.483 305.178C102.417 304.898 102.385 304.59 102.385 304.254V300.488H101.377V299.62L102.441 299.55L102.581 297.646H103.547V299.55H105.381V300.488H103.547V304.268C103.547 304.688 103.621 305.014 103.771 305.248C103.929 305.472 104.205 305.584 104.597 305.584C104.718 305.584 104.849 305.565 104.989 305.528C105.129 305.49 105.255 305.448 105.367 305.402L105.591 306.27C105.404 306.335 105.199 306.391 104.975 306.438C104.76 306.494 104.545 306.522 104.331 306.522ZM111.5 306.522C111.014 306.522 110.552 306.433 110.114 306.256C109.675 306.078 109.292 305.854 108.966 305.584L109.54 304.814C109.838 305.056 110.142 305.252 110.45 305.402C110.767 305.551 111.131 305.626 111.542 305.626C111.99 305.626 112.326 305.523 112.55 305.318C112.774 305.112 112.886 304.86 112.886 304.562C112.886 304.384 112.839 304.23 112.746 304.1C112.652 303.969 112.531 303.857 112.382 303.764C112.242 303.661 112.078 303.572 111.892 303.498C111.705 303.423 111.518 303.348 111.332 303.274C111.089 303.19 110.846 303.096 110.604 302.994C110.361 302.882 110.142 302.751 109.946 302.602C109.759 302.443 109.605 302.261 109.484 302.056C109.362 301.85 109.302 301.603 109.302 301.314C109.302 301.043 109.353 300.791 109.456 300.558C109.568 300.315 109.722 300.11 109.918 299.942C110.123 299.764 110.37 299.629 110.66 299.536C110.949 299.433 111.276 299.382 111.64 299.382C112.069 299.382 112.461 299.456 112.816 299.606C113.18 299.755 113.492 299.937 113.754 300.152L113.208 300.88C112.974 300.702 112.732 300.558 112.48 300.446C112.228 300.334 111.952 300.278 111.654 300.278C111.224 300.278 110.907 300.376 110.702 300.572C110.506 300.768 110.408 300.996 110.408 301.258C110.408 301.416 110.45 301.556 110.534 301.678C110.618 301.79 110.73 301.892 110.87 301.986C111.01 302.07 111.168 302.149 111.346 302.224C111.532 302.289 111.724 302.359 111.92 302.434C112.162 302.527 112.405 302.625 112.648 302.728C112.9 302.83 113.124 302.961 113.32 303.12C113.516 303.269 113.674 303.456 113.796 303.68C113.926 303.904 113.992 304.174 113.992 304.492C113.992 304.772 113.936 305.033 113.824 305.276C113.721 305.518 113.562 305.733 113.348 305.92C113.142 306.106 112.881 306.251 112.564 306.354C112.256 306.466 111.901 306.522 111.5 306.522ZM117.155 306.522C116.586 306.522 116.11 306.354 115.727 306.018C115.354 305.682 115.167 305.206 115.167 304.59C115.167 303.843 115.498 303.274 116.161 302.882C116.824 302.48 117.883 302.2 119.339 302.042C119.339 301.827 119.316 301.617 119.269 301.412C119.232 301.206 119.162 301.024 119.059 300.866C118.956 300.707 118.812 300.581 118.625 300.488C118.448 300.385 118.219 300.334 117.939 300.334C117.547 300.334 117.178 300.408 116.833 300.558C116.488 300.707 116.18 300.875 115.909 301.062L115.461 300.264C115.778 300.058 116.166 299.862 116.623 299.676C117.08 299.48 117.584 299.382 118.135 299.382C118.966 299.382 119.568 299.638 119.941 300.152C120.314 300.656 120.501 301.332 120.501 302.182V306.354H119.549L119.451 305.542H119.409C119.082 305.812 118.732 306.046 118.359 306.242C117.986 306.428 117.584 306.522 117.155 306.522ZM117.491 305.598C117.818 305.598 118.126 305.523 118.415 305.374C118.704 305.215 119.012 304.986 119.339 304.688V302.798C118.77 302.872 118.289 302.961 117.897 303.064C117.514 303.166 117.202 303.288 116.959 303.428C116.726 303.568 116.553 303.731 116.441 303.918C116.338 304.095 116.287 304.291 116.287 304.506C116.287 304.898 116.404 305.178 116.637 305.346C116.87 305.514 117.155 305.598 117.491 305.598ZM124.112 306.354L121.662 299.55H122.852L124.14 303.414C124.242 303.75 124.345 304.086 124.448 304.422C124.56 304.758 124.667 305.089 124.77 305.416H124.826C124.928 305.089 125.031 304.758 125.134 304.422C125.236 304.086 125.339 303.75 125.442 303.414L126.73 299.55H127.864L125.456 306.354H124.112ZM129.177 306.354V299.55H130.325V306.354H129.177ZM129.765 298.15C129.541 298.15 129.349 298.08 129.191 297.94C129.041 297.8 128.967 297.622 128.967 297.408C128.967 297.184 129.041 297.006 129.191 296.876C129.349 296.736 129.541 296.666 129.765 296.666C129.989 296.666 130.175 296.736 130.325 296.876C130.483 297.006 130.563 297.184 130.563 297.408C130.563 297.622 130.483 297.8 130.325 297.94C130.175 298.08 129.989 298.15 129.765 298.15ZM132.622 306.354V299.55H133.574L133.672 300.53H133.714C134.041 300.203 134.381 299.932 134.736 299.718C135.1 299.494 135.52 299.382 135.996 299.382C136.715 299.382 137.237 299.606 137.564 300.054C137.9 300.502 138.068 301.164 138.068 302.042V306.354H136.92V302.196C136.92 301.552 136.817 301.09 136.612 300.81C136.407 300.52 136.08 300.376 135.632 300.376C135.277 300.376 134.965 300.464 134.694 300.642C134.423 300.819 134.115 301.08 133.77 301.426V306.354H132.622ZM142.574 309.49C142.154 309.49 141.772 309.448 141.426 309.364C141.081 309.289 140.782 309.172 140.53 309.014C140.288 308.855 140.096 308.664 139.956 308.44C139.826 308.216 139.76 307.954 139.76 307.656C139.76 307.366 139.849 307.091 140.026 306.83C140.204 306.568 140.446 306.33 140.754 306.116V306.06C140.586 305.957 140.442 305.817 140.32 305.64C140.208 305.453 140.152 305.224 140.152 304.954C140.152 304.664 140.232 304.412 140.39 304.198C140.549 303.983 140.717 303.815 140.894 303.694V303.638C140.67 303.451 140.465 303.204 140.278 302.896C140.101 302.578 140.012 302.214 140.012 301.804C140.012 301.43 140.078 301.094 140.208 300.796C140.348 300.497 140.535 300.245 140.768 300.04C141.002 299.825 141.272 299.662 141.58 299.55C141.898 299.438 142.229 299.382 142.574 299.382C142.761 299.382 142.934 299.4 143.092 299.438C143.26 299.466 143.41 299.503 143.54 299.55H145.906V300.432H144.506C144.665 300.59 144.796 300.791 144.898 301.034C145.01 301.276 145.066 301.542 145.066 301.832C145.066 302.196 145.001 302.527 144.87 302.826C144.74 303.115 144.562 303.362 144.338 303.568C144.114 303.764 143.848 303.918 143.54 304.03C143.242 304.142 142.92 304.198 142.574 304.198C142.406 304.198 142.234 304.179 142.056 304.142C141.879 304.095 141.711 304.034 141.552 303.96C141.431 304.062 141.328 304.179 141.244 304.31C141.16 304.431 141.118 304.585 141.118 304.772C141.118 304.986 141.202 305.164 141.37 305.304C141.538 305.444 141.856 305.514 142.322 305.514H143.638C144.432 305.514 145.024 305.644 145.416 305.906C145.818 306.158 146.018 306.568 146.018 307.138C146.018 307.455 145.939 307.754 145.78 308.034C145.622 308.323 145.393 308.575 145.094 308.79C144.796 309.004 144.432 309.172 144.002 309.294C143.582 309.424 143.106 309.49 142.574 309.49ZM142.574 303.428C142.77 303.428 142.952 303.39 143.12 303.316C143.298 303.241 143.452 303.134 143.582 302.994C143.722 302.854 143.83 302.686 143.904 302.49C143.979 302.284 144.016 302.056 144.016 301.804C144.016 301.3 143.876 300.912 143.596 300.642C143.316 300.362 142.976 300.222 142.574 300.222C142.173 300.222 141.832 300.362 141.552 300.642C141.272 300.912 141.132 301.3 141.132 301.804C141.132 302.056 141.17 302.284 141.244 302.49C141.319 302.686 141.422 302.854 141.552 302.994C141.692 303.134 141.846 303.241 142.014 303.316C142.192 303.39 142.378 303.428 142.574 303.428ZM142.742 308.692C143.069 308.692 143.363 308.65 143.624 308.566C143.895 308.491 144.124 308.388 144.31 308.258C144.497 308.136 144.642 307.992 144.744 307.824C144.847 307.656 144.898 307.483 144.898 307.306C144.898 306.988 144.782 306.769 144.548 306.648C144.315 306.526 143.974 306.466 143.526 306.466H142.35C142.22 306.466 142.075 306.456 141.916 306.438C141.767 306.428 141.618 306.4 141.468 306.354C141.226 306.531 141.048 306.718 140.936 306.914C140.824 307.11 140.768 307.306 140.768 307.502C140.768 307.866 140.941 308.155 141.286 308.37C141.641 308.584 142.126 308.692 142.742 308.692Z" fill="#303030"/>
<path d="M82.826 179.288C82.09 179.288 81.37 179.144 80.666 178.856C79.978 178.568 79.362 178.12 78.818 177.512C78.29 176.904 77.866 176.128 77.546 175.184C77.226 174.224 77.066 173.072 77.066 171.728C77.066 170.304 77.234 169.072 77.57 168.032C77.922 166.992 78.378 166.136 78.938 165.464C79.514 164.792 80.17 164.296 80.906 163.976C81.658 163.64 82.434 163.472 83.234 163.472C84.242 163.472 85.114 163.656 85.85 164.024C86.586 164.376 87.194 164.8 87.674 165.296L85.826 167.408C85.554 167.12 85.202 166.872 84.77 166.664C84.338 166.44 83.898 166.328 83.45 166.328C83.034 166.328 82.642 166.408 82.274 166.568C81.906 166.728 81.578 167 81.29 167.384C81.018 167.752 80.794 168.24 80.618 168.848C80.442 169.456 80.338 170.2 80.306 171.08C80.498 170.824 80.722 170.6 80.978 170.408C81.234 170.2 81.498 170.032 81.77 169.904C82.042 169.76 82.314 169.656 82.586 169.592C82.858 169.512 83.114 169.472 83.354 169.472C84.01 169.472 84.61 169.568 85.154 169.76C85.714 169.952 86.194 170.24 86.594 170.624C87.01 171.008 87.33 171.496 87.554 172.088C87.778 172.68 87.89 173.376 87.89 174.176C87.89 174.976 87.754 175.688 87.482 176.312C87.21 176.936 86.842 177.472 86.378 177.92C85.93 178.368 85.394 178.712 84.77 178.952C84.162 179.176 83.514 179.288 82.826 179.288ZM82.754 176.648C83.282 176.648 83.73 176.456 84.098 176.072C84.482 175.672 84.674 175.04 84.674 174.176C84.674 173.36 84.482 172.792 84.098 172.472C83.73 172.136 83.258 171.968 82.682 171.968C82.282 171.968 81.874 172.088 81.458 172.328C81.058 172.552 80.698 172.936 80.378 173.48C80.458 174.088 80.578 174.592 80.738 174.992C80.898 175.392 81.082 175.72 81.29 175.976C81.498 176.216 81.722 176.392 81.962 176.504C82.218 176.6 82.482 176.648 82.754 176.648ZM95.0977 179.288C94.2817 179.288 93.5377 179.12 92.8657 178.784C92.1937 178.432 91.6177 177.92 91.1377 177.248C90.6737 176.576 90.3057 175.744 90.0337 174.752C89.7777 173.76 89.6497 172.616 89.6497 171.32C89.6497 170.024 89.7777 168.888 90.0337 167.912C90.3057 166.936 90.6737 166.12 91.1377 165.464C91.6177 164.792 92.1937 164.296 92.8657 163.976C93.5377 163.64 94.2817 163.472 95.0977 163.472C95.9137 163.472 96.6577 163.64 97.3297 163.976C98.0017 164.296 98.5697 164.792 99.0337 165.464C99.5137 166.12 99.8817 166.936 100.138 167.912C100.41 168.888 100.546 170.024 100.546 171.32C100.546 172.616 100.41 173.76 100.138 174.752C99.8817 175.744 99.5137 176.576 99.0337 177.248C98.5697 177.92 98.0017 178.432 97.3297 178.784C96.6577 179.12 95.9137 179.288 95.0977 179.288ZM95.0977 176.552C95.4017 176.552 95.6817 176.48 95.9377 176.336C96.1937 176.176 96.4177 175.896 96.6097 175.496C96.8017 175.096 96.9457 174.56 97.0417 173.888C97.1537 173.216 97.2097 172.36 97.2097 171.32C97.2097 170.28 97.1537 169.432 97.0417 168.776C96.9457 168.104 96.8017 167.584 96.6097 167.216C96.4177 166.832 96.1937 166.568 95.9377 166.424C95.6817 166.28 95.4017 166.208 95.0977 166.208C94.8097 166.208 94.5377 166.28 94.2817 166.424C94.0257 166.568 93.8017 166.832 93.6097 167.216C93.4177 167.584 93.2657 168.104 93.1537 168.776C93.0417 169.432 92.9857 170.28 92.9857 171.32C92.9857 172.36 93.0417 173.216 93.1537 173.888C93.2657 174.56 93.4177 175.096 93.6097 175.496C93.8017 175.896 94.0257 176.176 94.2817 176.336C94.5377 176.48 94.8097 176.552 95.0977 176.552ZM102.473 174.176V171.68H108.377V174.176H102.473ZM115.722 179.288C114.954 179.288 114.242 179.192 113.586 179C112.946 178.792 112.386 178.504 111.906 178.136C111.442 177.768 111.074 177.328 110.802 176.816C110.546 176.304 110.418 175.736 110.418 175.112C110.418 174.184 110.666 173.424 111.162 172.832C111.674 172.24 112.29 171.752 113.01 171.368V171.272C112.418 170.824 111.93 170.32 111.546 169.76C111.162 169.184 110.97 168.488 110.97 167.672C110.97 167.032 111.09 166.456 111.33 165.944C111.57 165.416 111.906 164.968 112.338 164.6C112.77 164.232 113.282 163.952 113.874 163.76C114.482 163.568 115.138 163.472 115.842 163.472C116.53 163.472 117.162 163.576 117.738 163.784C118.314 163.976 118.802 164.256 119.202 164.624C119.602 164.976 119.914 165.416 120.138 165.944C120.362 166.456 120.474 167.024 120.474 167.648C120.474 168.384 120.274 169.04 119.874 169.616C119.474 170.176 119.01 170.632 118.482 170.984V171.08C119.218 171.48 119.842 171.992 120.354 172.616C120.866 173.24 121.122 174.056 121.122 175.064C121.122 175.672 120.994 176.232 120.738 176.744C120.482 177.256 120.114 177.704 119.634 178.088C119.17 178.456 118.602 178.752 117.93 178.976C117.274 179.184 116.538 179.288 115.722 179.288ZM116.682 170.12C117.306 169.4 117.618 168.656 117.618 167.888C117.618 167.296 117.45 166.824 117.114 166.472C116.794 166.104 116.346 165.92 115.77 165.92C115.306 165.92 114.906 166.064 114.57 166.352C114.234 166.64 114.066 167.08 114.066 167.672C114.066 168.296 114.306 168.784 114.786 169.136C115.266 169.488 115.898 169.816 116.682 170.12ZM115.794 176.84C116.386 176.84 116.874 176.688 117.258 176.384C117.642 176.064 117.834 175.584 117.834 174.944C117.834 174.608 117.754 174.32 117.594 174.08C117.45 173.84 117.234 173.624 116.946 173.432C116.658 173.224 116.314 173.032 115.914 172.856C115.53 172.68 115.098 172.488 114.618 172.28C114.282 172.6 114.002 172.968 113.778 173.384C113.554 173.8 113.442 174.24 113.442 174.704C113.442 175.376 113.674 175.904 114.138 176.288C114.602 176.656 115.154 176.84 115.794 176.84ZM128.426 179.288C127.61 179.288 126.866 179.12 126.194 178.784C125.522 178.432 124.946 177.92 124.466 177.248C124.002 176.576 123.634 175.744 123.362 174.752C123.106 173.76 122.978 172.616 122.978 171.32C122.978 170.024 123.106 168.888 123.362 167.912C123.634 166.936 124.002 166.12 124.466 165.464C124.946 164.792 125.522 164.296 126.194 163.976C126.866 163.64 127.61 163.472 128.426 163.472C129.242 163.472 129.986 163.64 130.658 163.976C131.33 164.296 131.898 164.792 132.362 165.464C132.842 166.12 133.21 166.936 133.466 167.912C133.738 168.888 133.874 170.024 133.874 171.32C133.874 172.616 133.738 173.76 133.466 174.752C133.21 175.744 132.842 176.576 132.362 177.248C131.898 177.92 131.33 178.432 130.658 178.784C129.986 179.12 129.242 179.288 128.426 179.288ZM128.426 176.552C128.73 176.552 129.01 176.48 129.266 176.336C129.522 176.176 129.746 175.896 129.938 175.496C130.13 175.096 130.274 174.56 130.37 173.888C130.482 173.216 130.538 172.36 130.538 171.32C130.538 170.28 130.482 169.432 130.37 168.776C130.274 168.104 130.13 167.584 129.938 167.216C129.746 166.832 129.522 166.568 129.266 166.424C129.01 166.28 128.73 166.208 128.426 166.208C128.138 166.208 127.866 166.28 127.61 166.424C127.354 166.568 127.13 166.832 126.938 167.216C126.746 167.584 126.594 168.104 126.482 168.776C126.37 169.432 126.314 170.28 126.314 171.32C126.314 172.36 126.37 173.216 126.482 173.888C126.594 174.56 126.746 175.096 126.938 175.496C127.13 175.896 127.354 176.176 127.61 176.336C127.866 176.48 128.138 176.552 128.426 176.552ZM138.53 174C138.063 174 137.63 173.907 137.23 173.72C136.83 173.533 136.483 173.26 136.19 172.9C135.91 172.54 135.69 172.107 135.53 171.6C135.37 171.08 135.29 170.493 135.29 169.84C135.29 169.187 135.37 168.607 135.53 168.1C135.69 167.593 135.91 167.167 136.19 166.82C136.483 166.46 136.83 166.187 137.23 166C137.63 165.813 138.063 165.72 138.53 165.72C138.996 165.72 139.43 165.813 139.83 166C140.23 166.187 140.57 166.46 140.85 166.82C141.143 167.167 141.37 167.593 141.53 168.1C141.703 168.607 141.79 169.187 141.79 169.84C141.79 170.493 141.703 171.08 141.53 171.6C141.37 172.107 141.143 172.54 140.85 172.9C140.57 173.26 140.23 173.533 139.83 173.72C139.43 173.907 138.996 174 138.53 174ZM138.53 172.36C138.863 172.36 139.143 172.173 139.37 171.8C139.61 171.427 139.73 170.773 139.73 169.84C139.73 168.907 139.61 168.26 139.37 167.9C139.143 167.54 138.863 167.36 138.53 167.36C138.196 167.36 137.91 167.54 137.67 167.9C137.443 168.26 137.33 168.907 137.33 169.84C137.33 170.773 137.443 171.427 137.67 171.8C137.91 172.173 138.196 172.36 138.53 172.36ZM138.97 179.24L146.01 165.72H147.71L140.67 179.24H138.97ZM148.15 179.24C147.683 179.24 147.25 179.147 146.85 178.96C146.45 178.773 146.103 178.5 145.81 178.14C145.53 177.78 145.31 177.347 145.15 176.84C144.99 176.32 144.91 175.733 144.91 175.08C144.91 174.427 144.99 173.847 145.15 173.34C145.31 172.833 145.53 172.407 145.81 172.06C146.103 171.7 146.45 171.427 146.85 171.24C147.25 171.053 147.683 170.96 148.15 170.96C148.616 170.96 149.05 171.053 149.45 171.24C149.85 171.427 150.19 171.7 150.47 172.06C150.763 172.407 150.99 172.833 151.15 173.34C151.323 173.847 151.41 174.427 151.41 175.08C151.41 175.733 151.323 176.32 151.15 176.84C150.99 177.347 150.763 177.78 150.47 178.14C150.19 178.5 149.85 178.773 149.45 178.96C149.05 179.147 148.616 179.24 148.15 179.24ZM148.15 177.6C148.483 177.6 148.763 177.413 148.99 177.04C149.23 176.667 149.35 176.013 149.35 175.08C149.35 174.147 149.23 173.5 148.99 173.14C148.763 172.78 148.483 172.6 148.15 172.6C147.816 172.6 147.53 172.78 147.29 173.14C147.063 173.5 146.95 174.147 146.95 175.08C146.95 176.013 147.063 176.667 147.29 177.04C147.53 177.413 147.816 177.6 148.15 177.6Z" fill="#C23772"/>
<g clip-path="url(#clip0)">
<g filter="url(#filter3_d)">
<ellipse cx="326.5" cy="172" rx="91.5" ry="92" fill="#F8F8F8"/>
</g>
<g filter="url(#filter4_d)">
<path fill-rule="evenodd" clip-rule="evenodd" d="M410.024 182.291C406.939 201.976 397.227 218.979 383.512 231.389L327.104 169.297L255.538 125.437C272.726 97.4797 305.591 81.0873 340.08 86.4919C385.875 93.6683 417.19 136.559 410.024 182.291Z" fill="url(#paint1_linear)"/>
</g>
<path d="M251.311 288V278.816H252.473V288H251.311ZM254.877 288V281.196H255.829L255.927 282.176H255.969C256.296 281.849 256.636 281.579 256.991 281.364C257.355 281.14 257.775 281.028 258.251 281.028C258.97 281.028 259.492 281.252 259.819 281.7C260.155 282.148 260.323 282.811 260.323 283.688V288H259.175V283.842C259.175 283.198 259.072 282.736 258.867 282.456C258.662 282.167 258.335 282.022 257.887 282.022C257.532 282.022 257.22 282.111 256.949 282.288C256.678 282.465 256.37 282.727 256.025 283.072V288H254.877ZM262.729 288V282.134H261.805V281.266L262.729 281.196V280.118C262.729 279.418 262.888 278.867 263.205 278.466C263.532 278.065 264.036 277.864 264.717 277.864C264.932 277.864 265.133 277.887 265.319 277.934C265.515 277.971 265.693 278.023 265.851 278.088L265.599 278.97C265.347 278.858 265.091 278.802 264.829 278.802C264.195 278.802 263.877 279.241 263.877 280.118V281.196H265.319V282.134H263.877V288H262.729ZM266.621 288V281.196H267.573L267.671 282.428H267.713C267.946 281.999 268.226 281.658 268.553 281.406C268.889 281.154 269.253 281.028 269.645 281.028C269.916 281.028 270.158 281.075 270.373 281.168L270.149 282.176C270.037 282.139 269.934 282.111 269.841 282.092C269.748 282.073 269.631 282.064 269.491 282.064C269.202 282.064 268.898 282.181 268.581 282.414C268.273 282.647 268.002 283.053 267.769 283.632V288H266.621ZM272.701 288.168C272.132 288.168 271.656 288 271.273 287.664C270.9 287.328 270.713 286.852 270.713 286.236C270.713 285.489 271.044 284.92 271.707 284.528C272.37 284.127 273.429 283.847 274.885 283.688C274.885 283.473 274.862 283.263 274.815 283.058C274.778 282.853 274.708 282.671 274.605 282.512C274.502 282.353 274.358 282.227 274.171 282.134C273.994 282.031 273.765 281.98 273.485 281.98C273.093 281.98 272.724 282.055 272.379 282.204C272.034 282.353 271.726 282.521 271.455 282.708L271.007 281.91C271.324 281.705 271.712 281.509 272.169 281.322C272.626 281.126 273.13 281.028 273.681 281.028C274.512 281.028 275.114 281.285 275.487 281.798C275.86 282.302 276.047 282.979 276.047 283.828V288H275.095L274.997 287.188H274.955C274.628 287.459 274.278 287.692 273.905 287.888C273.532 288.075 273.13 288.168 272.701 288.168ZM273.037 287.244C273.364 287.244 273.672 287.169 273.961 287.02C274.25 286.861 274.558 286.633 274.885 286.334V284.444C274.316 284.519 273.835 284.607 273.443 284.71C273.06 284.813 272.748 284.934 272.505 285.074C272.272 285.214 272.099 285.377 271.987 285.564C271.884 285.741 271.833 285.937 271.833 286.152C271.833 286.544 271.95 286.824 272.183 286.992C272.416 287.16 272.701 287.244 273.037 287.244ZM279.966 288.168C279.48 288.168 279.018 288.079 278.58 287.902C278.141 287.725 277.758 287.501 277.432 287.23L278.006 286.46C278.304 286.703 278.608 286.899 278.916 287.048C279.233 287.197 279.597 287.272 280.008 287.272C280.456 287.272 280.792 287.169 281.016 286.964C281.24 286.759 281.352 286.507 281.352 286.208C281.352 286.031 281.305 285.877 281.212 285.746C281.118 285.615 280.997 285.503 280.848 285.41C280.708 285.307 280.544 285.219 280.358 285.144C280.171 285.069 279.984 284.995 279.798 284.92C279.555 284.836 279.312 284.743 279.07 284.64C278.827 284.528 278.608 284.397 278.412 284.248C278.225 284.089 278.071 283.907 277.95 283.702C277.828 283.497 277.768 283.249 277.768 282.96C277.768 282.689 277.819 282.437 277.922 282.204C278.034 281.961 278.188 281.756 278.384 281.588C278.589 281.411 278.836 281.275 279.126 281.182C279.415 281.079 279.742 281.028 280.106 281.028C280.535 281.028 280.927 281.103 281.282 281.252C281.646 281.401 281.958 281.583 282.22 281.798L281.674 282.526C281.44 282.349 281.198 282.204 280.946 282.092C280.694 281.98 280.418 281.924 280.12 281.924C279.69 281.924 279.373 282.022 279.168 282.218C278.972 282.414 278.874 282.643 278.874 282.904C278.874 283.063 278.916 283.203 279 283.324C279.084 283.436 279.196 283.539 279.336 283.632C279.476 283.716 279.634 283.795 279.812 283.87C279.998 283.935 280.19 284.005 280.386 284.08C280.628 284.173 280.871 284.271 281.114 284.374C281.366 284.477 281.59 284.607 281.786 284.766C281.982 284.915 282.14 285.102 282.262 285.326C282.392 285.55 282.458 285.821 282.458 286.138C282.458 286.418 282.402 286.679 282.29 286.922C282.187 287.165 282.028 287.379 281.814 287.566C281.608 287.753 281.347 287.897 281.03 288C280.722 288.112 280.367 288.168 279.966 288.168ZM285.921 288.168C285.557 288.168 285.249 288.112 284.997 288C284.755 287.888 284.554 287.734 284.395 287.538C284.246 287.342 284.139 287.104 284.073 286.824C284.008 286.544 283.975 286.236 283.975 285.9V282.134H282.967V281.266L284.031 281.196L284.171 279.292H285.137V281.196H286.971V282.134H285.137V285.914C285.137 286.334 285.212 286.661 285.361 286.894C285.52 287.118 285.795 287.23 286.187 287.23C286.309 287.23 286.439 287.211 286.579 287.174C286.719 287.137 286.845 287.095 286.957 287.048L287.181 287.916C286.995 287.981 286.789 288.037 286.565 288.084C286.351 288.14 286.136 288.168 285.921 288.168ZM288.51 288V281.196H289.462L289.56 282.428H289.602C289.835 281.999 290.115 281.658 290.442 281.406C290.778 281.154 291.142 281.028 291.534 281.028C291.804 281.028 292.047 281.075 292.262 281.168L292.038 282.176C291.926 282.139 291.823 282.111 291.73 282.092C291.636 282.073 291.52 282.064 291.38 282.064C291.09 282.064 290.787 282.181 290.47 282.414C290.162 282.647 289.891 283.053 289.658 283.632V288H288.51ZM295.351 288.168C294.623 288.168 294.091 287.944 293.755 287.496C293.429 287.048 293.265 286.385 293.265 285.508V281.196H294.427V285.354C294.427 285.998 294.525 286.465 294.721 286.754C294.927 287.034 295.253 287.174 295.701 287.174C296.056 287.174 296.369 287.085 296.639 286.908C296.91 286.721 297.209 286.427 297.535 286.026V281.196H298.683V288H297.731L297.633 286.936H297.591C297.274 287.309 296.938 287.608 296.583 287.832C296.238 288.056 295.827 288.168 295.351 288.168ZM303.667 288.168C303.219 288.168 302.799 288.089 302.407 287.93C302.015 287.771 301.674 287.543 301.385 287.244C301.105 286.936 300.881 286.563 300.713 286.124C300.554 285.676 300.475 285.172 300.475 284.612C300.475 284.043 300.563 283.539 300.741 283.1C300.918 282.652 301.156 282.274 301.455 281.966C301.753 281.658 302.099 281.425 302.491 281.266C302.892 281.107 303.312 281.028 303.751 281.028C304.199 281.028 304.581 281.107 304.899 281.266C305.216 281.425 305.496 281.611 305.739 281.826L305.151 282.582C304.955 282.405 304.745 282.26 304.521 282.148C304.306 282.036 304.063 281.98 303.793 281.98C303.485 281.98 303.2 282.045 302.939 282.176C302.677 282.297 302.453 282.475 302.267 282.708C302.08 282.941 301.931 283.221 301.819 283.548C301.716 283.865 301.665 284.22 301.665 284.612C301.665 285.004 301.716 285.359 301.819 285.676C301.921 285.993 302.061 286.269 302.239 286.502C302.425 286.726 302.649 286.903 302.911 287.034C303.172 287.155 303.457 287.216 303.765 287.216C304.082 287.216 304.371 287.151 304.633 287.02C304.903 286.88 305.146 286.717 305.361 286.53L305.865 287.3C305.557 287.571 305.216 287.785 304.843 287.944C304.469 288.093 304.077 288.168 303.667 288.168ZM309.369 288.168C309.005 288.168 308.697 288.112 308.445 288C308.202 287.888 308.001 287.734 307.843 287.538C307.693 287.342 307.586 287.104 307.521 286.824C307.455 286.544 307.423 286.236 307.423 285.9V282.134H306.415V281.266L307.479 281.196L307.619 279.292H308.585V281.196H310.419V282.134H308.585V285.914C308.585 286.334 308.659 286.661 308.809 286.894C308.967 287.118 309.243 287.23 309.635 287.23C309.756 287.23 309.887 287.211 310.027 287.174C310.167 287.137 310.293 287.095 310.405 287.048L310.629 287.916C310.442 287.981 310.237 288.037 310.013 288.084C309.798 288.14 309.583 288.168 309.369 288.168ZM313.945 288.168C313.217 288.168 312.685 287.944 312.349 287.496C312.022 287.048 311.859 286.385 311.859 285.508V281.196H313.021V285.354C313.021 285.998 313.119 286.465 313.315 286.754C313.52 287.034 313.847 287.174 314.295 287.174C314.65 287.174 314.962 287.085 315.233 286.908C315.504 286.721 315.802 286.427 316.129 286.026V281.196H317.277V288H316.325L316.227 286.936H316.185C315.868 287.309 315.532 287.608 315.177 287.832C314.832 288.056 314.421 288.168 313.945 288.168ZM319.572 288V281.196H320.524L320.622 282.428H320.664C320.898 281.999 321.178 281.658 321.504 281.406C321.84 281.154 322.204 281.028 322.596 281.028C322.867 281.028 323.11 281.075 323.324 281.168L323.1 282.176C322.988 282.139 322.886 282.111 322.792 282.092C322.699 282.073 322.582 282.064 322.442 282.064C322.153 282.064 321.85 282.181 321.532 282.414C321.224 282.647 320.954 283.053 320.72 283.632V288H319.572ZM327.047 288.168C326.59 288.168 326.16 288.089 325.759 287.93C325.367 287.762 325.022 287.529 324.723 287.23C324.434 286.922 324.205 286.549 324.037 286.11C323.869 285.671 323.785 285.172 323.785 284.612C323.785 284.052 323.869 283.553 324.037 283.114C324.214 282.666 324.443 282.288 324.723 281.98C325.012 281.672 325.339 281.439 325.703 281.28C326.067 281.112 326.445 281.028 326.837 281.028C327.266 281.028 327.649 281.103 327.985 281.252C328.33 281.401 328.615 281.616 328.839 281.896C329.072 282.176 329.25 282.512 329.371 282.904C329.492 283.296 329.553 283.735 329.553 284.22C329.553 284.341 329.548 284.463 329.539 284.584C329.539 284.696 329.53 284.794 329.511 284.878H324.919C324.966 285.606 325.19 286.185 325.591 286.614C326.002 287.034 326.534 287.244 327.187 287.244C327.514 287.244 327.812 287.197 328.083 287.104C328.363 287.001 328.629 286.871 328.881 286.712L329.287 287.468C328.988 287.655 328.657 287.818 328.293 287.958C327.929 288.098 327.514 288.168 327.047 288.168ZM324.905 284.052H328.545C328.545 283.361 328.396 282.839 328.097 282.484C327.808 282.12 327.397 281.938 326.865 281.938C326.622 281.938 326.389 281.985 326.165 282.078C325.95 282.171 325.754 282.311 325.577 282.498C325.4 282.675 325.25 282.895 325.129 283.156C325.017 283.417 324.942 283.716 324.905 284.052ZM334.037 288V281.196H334.989L335.087 282.176H335.129C335.428 281.849 335.75 281.579 336.095 281.364C336.45 281.14 336.832 281.028 337.243 281.028C337.766 281.028 338.172 281.145 338.461 281.378C338.76 281.602 338.979 281.919 339.119 282.33C339.474 281.938 339.828 281.625 340.183 281.392C340.547 281.149 340.939 281.028 341.359 281.028C342.059 281.028 342.577 281.252 342.913 281.7C343.258 282.148 343.431 282.811 343.431 283.688V288H342.283V283.842C342.283 283.198 342.18 282.736 341.975 282.456C341.77 282.167 341.452 282.022 341.023 282.022C340.51 282.022 339.94 282.372 339.315 283.072V288H338.167V283.842C338.167 283.198 338.064 282.736 337.859 282.456C337.654 282.167 337.332 282.022 336.893 282.022C336.38 282.022 335.81 282.372 335.185 283.072V288H334.037ZM347.213 288.168C346.643 288.168 346.167 288 345.785 287.664C345.411 287.328 345.225 286.852 345.225 286.236C345.225 285.489 345.556 284.92 346.219 284.528C346.881 284.127 347.941 283.847 349.397 283.688C349.397 283.473 349.373 283.263 349.327 283.058C349.289 282.853 349.219 282.671 349.117 282.512C349.014 282.353 348.869 282.227 348.683 282.134C348.505 282.031 348.277 281.98 347.997 281.98C347.605 281.98 347.236 282.055 346.891 282.204C346.545 282.353 346.237 282.521 345.967 282.708L345.519 281.91C345.836 281.705 346.223 281.509 346.681 281.322C347.138 281.126 347.642 281.028 348.193 281.028C349.023 281.028 349.625 281.285 349.999 281.798C350.372 282.302 350.559 282.979 350.559 283.828V288H349.607L349.509 287.188H349.467C349.14 287.459 348.79 287.692 348.417 287.888C348.043 288.075 347.642 288.168 347.213 288.168ZM347.549 287.244C347.875 287.244 348.183 287.169 348.473 287.02C348.762 286.861 349.07 286.633 349.397 286.334V284.444C348.827 284.519 348.347 284.607 347.955 284.71C347.572 284.813 347.259 284.934 347.017 285.074C346.783 285.214 346.611 285.377 346.499 285.564C346.396 285.741 346.345 285.937 346.345 286.152C346.345 286.544 346.461 286.824 346.695 286.992C346.928 287.16 347.213 287.244 347.549 287.244ZM352.699 288V281.196H353.651L353.749 282.176H353.791C354.118 281.849 354.459 281.579 354.813 281.364C355.177 281.14 355.597 281.028 356.073 281.028C356.792 281.028 357.315 281.252 357.641 281.7C357.977 282.148 358.145 282.811 358.145 283.688V288H356.997V283.842C356.997 283.198 356.895 282.736 356.689 282.456C356.484 282.167 356.157 282.022 355.709 282.022C355.355 282.022 355.042 282.111 354.771 282.288C354.501 282.465 354.193 282.727 353.847 283.072V288H352.699ZM361.924 288.168C361.354 288.168 360.878 288 360.496 287.664C360.122 287.328 359.936 286.852 359.936 286.236C359.936 285.489 360.267 284.92 360.93 284.528C361.592 284.127 362.652 283.847 364.108 283.688C364.108 283.473 364.084 283.263 364.038 283.058C364 282.853 363.93 282.671 363.828 282.512C363.725 282.353 363.58 282.227 363.394 282.134C363.216 282.031 362.988 281.98 362.708 281.98C362.316 281.98 361.947 282.055 361.602 282.204C361.256 282.353 360.948 282.521 360.678 282.708L360.23 281.91C360.547 281.705 360.934 281.509 361.392 281.322C361.849 281.126 362.353 281.028 362.904 281.028C363.734 281.028 364.336 281.285 364.71 281.798C365.083 282.302 365.27 282.979 365.27 283.828V288H364.318L364.22 287.188H364.178C363.851 287.459 363.501 287.692 363.128 287.888C362.754 288.075 362.353 288.168 361.924 288.168ZM362.26 287.244C362.586 287.244 362.894 287.169 363.184 287.02C363.473 286.861 363.781 286.633 364.108 286.334V284.444C363.538 284.519 363.058 284.607 362.666 284.71C362.283 284.813 361.97 284.934 361.728 285.074C361.494 285.214 361.322 285.377 361.21 285.564C361.107 285.741 361.056 285.937 361.056 286.152C361.056 286.544 361.172 286.824 361.406 286.992C361.639 287.16 361.924 287.244 362.26 287.244ZM369.706 291.136C369.286 291.136 368.904 291.094 368.558 291.01C368.213 290.935 367.914 290.819 367.662 290.66C367.42 290.501 367.228 290.31 367.088 290.086C366.958 289.862 366.892 289.601 366.892 289.302C366.892 289.013 366.981 288.737 367.158 288.476C367.336 288.215 367.578 287.977 367.886 287.762V287.706C367.718 287.603 367.574 287.463 367.452 287.286C367.34 287.099 367.284 286.871 367.284 286.6C367.284 286.311 367.364 286.059 367.522 285.844C367.681 285.629 367.849 285.461 368.026 285.34V285.284C367.802 285.097 367.597 284.85 367.41 284.542C367.233 284.225 367.144 283.861 367.144 283.45C367.144 283.077 367.21 282.741 367.34 282.442C367.48 282.143 367.667 281.891 367.9 281.686C368.134 281.471 368.404 281.308 368.712 281.196C369.03 281.084 369.361 281.028 369.706 281.028C369.893 281.028 370.066 281.047 370.224 281.084C370.392 281.112 370.542 281.149 370.672 281.196H373.038V282.078H371.638C371.797 282.237 371.928 282.437 372.03 282.68C372.142 282.923 372.198 283.189 372.198 283.478C372.198 283.842 372.133 284.173 372.002 284.472C371.872 284.761 371.694 285.009 371.47 285.214C371.246 285.41 370.98 285.564 370.672 285.676C370.374 285.788 370.052 285.844 369.706 285.844C369.538 285.844 369.366 285.825 369.188 285.788C369.011 285.741 368.843 285.681 368.684 285.606C368.563 285.709 368.46 285.825 368.376 285.956C368.292 286.077 368.25 286.231 368.25 286.418C368.25 286.633 368.334 286.81 368.502 286.95C368.67 287.09 368.988 287.16 369.454 287.16H370.77C371.564 287.16 372.156 287.291 372.548 287.552C372.95 287.804 373.15 288.215 373.15 288.784C373.15 289.101 373.071 289.4 372.912 289.68C372.754 289.969 372.525 290.221 372.226 290.436C371.928 290.651 371.564 290.819 371.134 290.94C370.714 291.071 370.238 291.136 369.706 291.136ZM369.706 285.074C369.902 285.074 370.084 285.037 370.252 284.962C370.43 284.887 370.584 284.78 370.714 284.64C370.854 284.5 370.962 284.332 371.036 284.136C371.111 283.931 371.148 283.702 371.148 283.45C371.148 282.946 371.008 282.559 370.728 282.288C370.448 282.008 370.108 281.868 369.706 281.868C369.305 281.868 368.964 282.008 368.684 282.288C368.404 282.559 368.264 282.946 368.264 283.45C368.264 283.702 368.302 283.931 368.376 284.136C368.451 284.332 368.554 284.5 368.684 284.64C368.824 284.78 368.978 284.887 369.146 284.962C369.324 285.037 369.51 285.074 369.706 285.074ZM369.874 290.338C370.201 290.338 370.495 290.296 370.756 290.212C371.027 290.137 371.256 290.035 371.442 289.904C371.629 289.783 371.774 289.638 371.876 289.47C371.979 289.302 372.03 289.129 372.03 288.952C372.03 288.635 371.914 288.415 371.68 288.294C371.447 288.173 371.106 288.112 370.658 288.112H369.482C369.352 288.112 369.207 288.103 369.048 288.084C368.899 288.075 368.75 288.047 368.6 288C368.358 288.177 368.18 288.364 368.068 288.56C367.956 288.756 367.9 288.952 367.9 289.148C367.9 289.512 368.073 289.801 368.418 290.016C368.773 290.231 369.258 290.338 369.874 290.338ZM374.465 288V281.196H375.417L375.515 282.176H375.557C375.856 281.849 376.178 281.579 376.523 281.364C376.878 281.14 377.26 281.028 377.671 281.028C378.194 281.028 378.6 281.145 378.889 281.378C379.188 281.602 379.407 281.919 379.547 282.33C379.902 281.938 380.256 281.625 380.611 281.392C380.975 281.149 381.367 281.028 381.787 281.028C382.487 281.028 383.005 281.252 383.341 281.7C383.686 282.148 383.859 282.811 383.859 283.688V288H382.711V283.842C382.711 283.198 382.608 282.736 382.403 282.456C382.198 282.167 381.88 282.022 381.451 282.022C380.938 282.022 380.368 282.372 379.743 283.072V288H378.595V283.842C378.595 283.198 378.492 282.736 378.287 282.456C378.082 282.167 377.76 282.022 377.321 282.022C376.808 282.022 376.238 282.372 375.613 283.072V288H374.465ZM388.83 288.168C388.373 288.168 387.944 288.089 387.542 287.93C387.15 287.762 386.805 287.529 386.506 287.23C386.217 286.922 385.988 286.549 385.82 286.11C385.652 285.671 385.568 285.172 385.568 284.612C385.568 284.052 385.652 283.553 385.82 283.114C385.998 282.666 386.226 282.288 386.506 281.98C386.796 281.672 387.122 281.439 387.486 281.28C387.85 281.112 388.228 281.028 388.62 281.028C389.05 281.028 389.432 281.103 389.768 281.252C390.114 281.401 390.398 281.616 390.622 281.896C390.856 282.176 391.033 282.512 391.154 282.904C391.276 283.296 391.336 283.735 391.336 284.22C391.336 284.341 391.332 284.463 391.322 284.584C391.322 284.696 391.313 284.794 391.294 284.878H386.702C386.749 285.606 386.973 286.185 387.374 286.614C387.785 287.034 388.317 287.244 388.97 287.244C389.297 287.244 389.596 287.197 389.866 287.104C390.146 287.001 390.412 286.871 390.664 286.712L391.07 287.468C390.772 287.655 390.44 287.818 390.076 287.958C389.712 288.098 389.297 288.168 388.83 288.168ZM386.688 284.052H390.328C390.328 283.361 390.179 282.839 389.88 282.484C389.591 282.12 389.18 281.938 388.648 281.938C388.406 281.938 388.172 281.985 387.948 282.078C387.734 282.171 387.538 282.311 387.36 282.498C387.183 282.675 387.034 282.895 386.912 283.156C386.8 283.417 386.726 283.716 386.688 284.052ZM393.018 288V281.196H393.97L394.068 282.176H394.11C394.436 281.849 394.777 281.579 395.132 281.364C395.496 281.14 395.916 281.028 396.392 281.028C397.11 281.028 397.633 281.252 397.96 281.7C398.296 282.148 398.464 282.811 398.464 283.688V288H397.316V283.842C397.316 283.198 397.213 282.736 397.008 282.456C396.802 282.167 396.476 282.022 396.028 282.022C395.673 282.022 395.36 282.111 395.09 282.288C394.819 282.465 394.511 282.727 394.166 283.072V288H393.018ZM402.816 288.168C402.452 288.168 402.144 288.112 401.892 288C401.649 287.888 401.449 287.734 401.29 287.538C401.141 287.342 401.033 287.104 400.968 286.824C400.903 286.544 400.87 286.236 400.87 285.9V282.134H399.862V281.266L400.926 281.196L401.066 279.292H402.032V281.196H403.866V282.134H402.032V285.914C402.032 286.334 402.107 286.661 402.256 286.894C402.415 287.118 402.69 287.23 403.082 287.23C403.203 287.23 403.334 287.211 403.474 287.174C403.614 287.137 403.74 287.095 403.852 287.048L404.076 287.916C403.889 287.981 403.684 288.037 403.46 288.084C403.245 288.14 403.031 288.168 402.816 288.168ZM300.187 306.168C299.739 306.168 299.319 306.089 298.927 305.93C298.535 305.771 298.194 305.543 297.905 305.244C297.625 304.936 297.401 304.563 297.233 304.124C297.074 303.676 296.995 303.172 296.995 302.612C296.995 302.043 297.084 301.539 297.261 301.1C297.438 300.652 297.676 300.274 297.975 299.966C298.274 299.658 298.619 299.425 299.011 299.266C299.412 299.107 299.832 299.028 300.271 299.028C300.719 299.028 301.102 299.107 301.419 299.266C301.736 299.425 302.016 299.611 302.259 299.826L301.671 300.582C301.475 300.405 301.265 300.26 301.041 300.148C300.826 300.036 300.584 299.98 300.313 299.98C300.005 299.98 299.72 300.045 299.459 300.176C299.198 300.297 298.974 300.475 298.787 300.708C298.6 300.941 298.451 301.221 298.339 301.548C298.236 301.865 298.185 302.22 298.185 302.612C298.185 303.004 298.236 303.359 298.339 303.676C298.442 303.993 298.582 304.269 298.759 304.502C298.946 304.726 299.17 304.903 299.431 305.034C299.692 305.155 299.977 305.216 300.285 305.216C300.602 305.216 300.892 305.151 301.153 305.02C301.424 304.88 301.666 304.717 301.881 304.53L302.385 305.3C302.077 305.571 301.736 305.785 301.363 305.944C300.99 306.093 300.598 306.168 300.187 306.168ZM306.229 306.168C305.809 306.168 305.408 306.089 305.025 305.93C304.652 305.771 304.32 305.543 304.031 305.244C303.742 304.936 303.508 304.563 303.331 304.124C303.163 303.676 303.079 303.172 303.079 302.612C303.079 302.043 303.163 301.539 303.331 301.1C303.508 300.652 303.742 300.274 304.031 299.966C304.32 299.658 304.652 299.425 305.025 299.266C305.408 299.107 305.809 299.028 306.229 299.028C306.649 299.028 307.046 299.107 307.419 299.266C307.802 299.425 308.138 299.658 308.427 299.966C308.716 300.274 308.945 300.652 309.113 301.1C309.29 301.539 309.379 302.043 309.379 302.612C309.379 303.172 309.29 303.676 309.113 304.124C308.945 304.563 308.716 304.936 308.427 305.244C308.138 305.543 307.802 305.771 307.419 305.93C307.046 306.089 306.649 306.168 306.229 306.168ZM306.229 305.216C306.518 305.216 306.784 305.155 307.027 305.034C307.27 304.903 307.475 304.726 307.643 304.502C307.82 304.269 307.956 303.993 308.049 303.676C308.142 303.359 308.189 303.004 308.189 302.612C308.189 302.22 308.142 301.865 308.049 301.548C307.956 301.221 307.82 300.941 307.643 300.708C307.475 300.475 307.27 300.297 307.027 300.176C306.784 300.045 306.518 299.98 306.229 299.98C305.94 299.98 305.674 300.045 305.431 300.176C305.188 300.297 304.978 300.475 304.801 300.708C304.633 300.941 304.502 301.221 304.409 301.548C304.316 301.865 304.269 302.22 304.269 302.612C304.269 303.004 304.316 303.359 304.409 303.676C304.502 303.993 304.633 304.269 304.801 304.502C304.978 304.726 305.188 304.903 305.431 305.034C305.674 305.155 305.94 305.216 306.229 305.216ZM312.949 306.168C312.464 306.168 312.002 306.079 311.563 305.902C311.124 305.725 310.742 305.501 310.415 305.23L310.989 304.46C311.288 304.703 311.591 304.899 311.899 305.048C312.216 305.197 312.58 305.272 312.991 305.272C313.439 305.272 313.775 305.169 313.999 304.964C314.223 304.759 314.335 304.507 314.335 304.208C314.335 304.031 314.288 303.877 314.195 303.746C314.102 303.615 313.98 303.503 313.831 303.41C313.691 303.307 313.528 303.219 313.341 303.144C313.154 303.069 312.968 302.995 312.781 302.92C312.538 302.836 312.296 302.743 312.053 302.64C311.81 302.528 311.591 302.397 311.395 302.248C311.208 302.089 311.054 301.907 310.933 301.702C310.812 301.497 310.751 301.249 310.751 300.96C310.751 300.689 310.802 300.437 310.905 300.204C311.017 299.961 311.171 299.756 311.367 299.588C311.572 299.411 311.82 299.275 312.109 299.182C312.398 299.079 312.725 299.028 313.089 299.028C313.518 299.028 313.91 299.103 314.265 299.252C314.629 299.401 314.942 299.583 315.203 299.798L314.657 300.526C314.424 300.349 314.181 300.204 313.929 300.092C313.677 299.98 313.402 299.924 313.103 299.924C312.674 299.924 312.356 300.022 312.151 300.218C311.955 300.414 311.857 300.643 311.857 300.904C311.857 301.063 311.899 301.203 311.983 301.324C312.067 301.436 312.179 301.539 312.319 301.632C312.459 301.716 312.618 301.795 312.795 301.87C312.982 301.935 313.173 302.005 313.369 302.08C313.612 302.173 313.854 302.271 314.097 302.374C314.349 302.477 314.573 302.607 314.769 302.766C314.965 302.915 315.124 303.102 315.245 303.326C315.376 303.55 315.441 303.821 315.441 304.138C315.441 304.418 315.385 304.679 315.273 304.922C315.17 305.165 315.012 305.379 314.797 305.566C314.592 305.753 314.33 305.897 314.013 306C313.705 306.112 313.35 306.168 312.949 306.168ZM318.905 306.168C318.541 306.168 318.233 306.112 317.981 306C317.738 305.888 317.537 305.734 317.379 305.538C317.229 305.342 317.122 305.104 317.057 304.824C316.991 304.544 316.959 304.236 316.959 303.9V300.134H315.951V299.266L317.015 299.196L317.155 297.292H318.121V299.196H319.955V300.134H318.121V303.914C318.121 304.334 318.195 304.661 318.345 304.894C318.503 305.118 318.779 305.23 319.171 305.23C319.292 305.23 319.423 305.211 319.563 305.174C319.703 305.137 319.829 305.095 319.941 305.048L320.165 305.916C319.978 305.981 319.773 306.037 319.549 306.084C319.334 306.14 319.119 306.168 318.905 306.168ZM326.074 306.168C325.589 306.168 325.127 306.079 324.688 305.902C324.249 305.725 323.867 305.501 323.54 305.23L324.114 304.46C324.413 304.703 324.716 304.899 325.024 305.048C325.341 305.197 325.705 305.272 326.116 305.272C326.564 305.272 326.9 305.169 327.124 304.964C327.348 304.759 327.46 304.507 327.46 304.208C327.46 304.031 327.413 303.877 327.32 303.746C327.227 303.615 327.105 303.503 326.956 303.41C326.816 303.307 326.653 303.219 326.466 303.144C326.279 303.069 326.093 302.995 325.906 302.92C325.663 302.836 325.421 302.743 325.178 302.64C324.935 302.528 324.716 302.397 324.52 302.248C324.333 302.089 324.179 301.907 324.058 301.702C323.937 301.497 323.876 301.249 323.876 300.96C323.876 300.689 323.927 300.437 324.03 300.204C324.142 299.961 324.296 299.756 324.492 299.588C324.697 299.411 324.945 299.275 325.234 299.182C325.523 299.079 325.85 299.028 326.214 299.028C326.643 299.028 327.035 299.103 327.39 299.252C327.754 299.401 328.067 299.583 328.328 299.798L327.782 300.526C327.549 300.349 327.306 300.204 327.054 300.092C326.802 299.98 326.527 299.924 326.228 299.924C325.799 299.924 325.481 300.022 325.276 300.218C325.08 300.414 324.982 300.643 324.982 300.904C324.982 301.063 325.024 301.203 325.108 301.324C325.192 301.436 325.304 301.539 325.444 301.632C325.584 301.716 325.743 301.795 325.92 301.87C326.107 301.935 326.298 302.005 326.494 302.08C326.737 302.173 326.979 302.271 327.222 302.374C327.474 302.477 327.698 302.607 327.894 302.766C328.09 302.915 328.249 303.102 328.37 303.326C328.501 303.55 328.566 303.821 328.566 304.138C328.566 304.418 328.51 304.679 328.398 304.922C328.295 305.165 328.137 305.379 327.922 305.566C327.717 305.753 327.455 305.897 327.138 306C326.83 306.112 326.475 306.168 326.074 306.168ZM331.729 306.168C331.16 306.168 330.684 306 330.301 305.664C329.928 305.328 329.741 304.852 329.741 304.236C329.741 303.489 330.073 302.92 330.735 302.528C331.398 302.127 332.457 301.847 333.913 301.688C333.913 301.473 333.89 301.263 333.843 301.058C333.806 300.853 333.736 300.671 333.633 300.512C333.531 300.353 333.386 300.227 333.199 300.134C333.022 300.031 332.793 299.98 332.513 299.98C332.121 299.98 331.753 300.055 331.407 300.204C331.062 300.353 330.754 300.521 330.483 300.708L330.035 299.91C330.353 299.705 330.74 299.509 331.197 299.322C331.655 299.126 332.159 299.028 332.709 299.028C333.54 299.028 334.142 299.285 334.515 299.798C334.889 300.302 335.075 300.979 335.075 301.828V306H334.123L334.025 305.188H333.983C333.657 305.459 333.307 305.692 332.933 305.888C332.56 306.075 332.159 306.168 331.729 306.168ZM332.065 305.244C332.392 305.244 332.7 305.169 332.989 305.02C333.279 304.861 333.587 304.633 333.913 304.334V302.444C333.344 302.519 332.863 302.607 332.471 302.71C332.089 302.813 331.776 302.934 331.533 303.074C331.3 303.214 331.127 303.377 331.015 303.564C330.913 303.741 330.861 303.937 330.861 304.152C330.861 304.544 330.978 304.824 331.211 304.992C331.445 305.16 331.729 305.244 332.065 305.244ZM338.686 306L336.236 299.196H337.426L338.714 303.06C338.817 303.396 338.919 303.732 339.022 304.068C339.134 304.404 339.241 304.735 339.344 305.062H339.4C339.503 304.735 339.605 304.404 339.708 304.068C339.811 303.732 339.913 303.396 340.016 303.06L341.304 299.196H342.438L340.03 306H338.686ZM343.751 306V299.196H344.899V306H343.751ZM344.339 297.796C344.115 297.796 343.924 297.726 343.765 297.586C343.616 297.446 343.541 297.269 343.541 297.054C343.541 296.83 343.616 296.653 343.765 296.522C343.924 296.382 344.115 296.312 344.339 296.312C344.563 296.312 344.75 296.382 344.899 296.522C345.058 296.653 345.137 296.83 345.137 297.054C345.137 297.269 345.058 297.446 344.899 297.586C344.75 297.726 344.563 297.796 344.339 297.796ZM347.196 306V299.196H348.148L348.246 300.176H348.288C348.615 299.849 348.956 299.579 349.31 299.364C349.674 299.14 350.094 299.028 350.57 299.028C351.289 299.028 351.812 299.252 352.138 299.7C352.474 300.148 352.642 300.811 352.642 301.688V306H351.494V301.842C351.494 301.198 351.392 300.736 351.186 300.456C350.981 300.167 350.654 300.022 350.206 300.022C349.852 300.022 349.539 300.111 349.268 300.288C348.998 300.465 348.69 300.727 348.344 301.072V306H347.196ZM357.149 309.136C356.729 309.136 356.346 309.094 356.001 309.01C355.655 308.935 355.357 308.819 355.105 308.66C354.862 308.501 354.671 308.31 354.531 308.086C354.4 307.862 354.335 307.601 354.335 307.302C354.335 307.013 354.423 306.737 354.601 306.476C354.778 306.215 355.021 305.977 355.329 305.762V305.706C355.161 305.603 355.016 305.463 354.895 305.286C354.783 305.099 354.727 304.871 354.727 304.6C354.727 304.311 354.806 304.059 354.965 303.844C355.123 303.629 355.291 303.461 355.469 303.34V303.284C355.245 303.097 355.039 302.85 354.853 302.542C354.675 302.225 354.587 301.861 354.587 301.45C354.587 301.077 354.652 300.741 354.783 300.442C354.923 300.143 355.109 299.891 355.343 299.686C355.576 299.471 355.847 299.308 356.155 299.196C356.472 299.084 356.803 299.028 357.149 299.028C357.335 299.028 357.508 299.047 357.667 299.084C357.835 299.112 357.984 299.149 358.115 299.196H360.481V300.078H359.081C359.239 300.237 359.37 300.437 359.473 300.68C359.585 300.923 359.641 301.189 359.641 301.478C359.641 301.842 359.575 302.173 359.445 302.472C359.314 302.761 359.137 303.009 358.913 303.214C358.689 303.41 358.423 303.564 358.115 303.676C357.816 303.788 357.494 303.844 357.149 303.844C356.981 303.844 356.808 303.825 356.631 303.788C356.453 303.741 356.285 303.681 356.127 303.606C356.005 303.709 355.903 303.825 355.819 303.956C355.735 304.077 355.693 304.231 355.693 304.418C355.693 304.633 355.777 304.81 355.945 304.95C356.113 305.09 356.43 305.16 356.897 305.16H358.213C359.006 305.16 359.599 305.291 359.991 305.552C360.392 305.804 360.593 306.215 360.593 306.784C360.593 307.101 360.513 307.4 360.355 307.68C360.196 307.969 359.967 308.221 359.669 308.436C359.37 308.651 359.006 308.819 358.577 308.94C358.157 309.071 357.681 309.136 357.149 309.136ZM357.149 303.074C357.345 303.074 357.527 303.037 357.695 302.962C357.872 302.887 358.026 302.78 358.157 302.64C358.297 302.5 358.404 302.332 358.479 302.136C358.553 301.931 358.591 301.702 358.591 301.45C358.591 300.946 358.451 300.559 358.171 300.288C357.891 300.008 357.55 299.868 357.149 299.868C356.747 299.868 356.407 300.008 356.127 300.288C355.847 300.559 355.707 300.946 355.707 301.45C355.707 301.702 355.744 301.931 355.819 302.136C355.893 302.332 355.996 302.5 356.127 302.64C356.267 302.78 356.421 302.887 356.589 302.962C356.766 303.037 356.953 303.074 357.149 303.074ZM357.317 308.338C357.643 308.338 357.937 308.296 358.199 308.212C358.469 308.137 358.698 308.035 358.885 307.904C359.071 307.783 359.216 307.638 359.319 307.47C359.421 307.302 359.473 307.129 359.473 306.952C359.473 306.635 359.356 306.415 359.123 306.294C358.889 306.173 358.549 306.112 358.101 306.112H356.925C356.794 306.112 356.649 306.103 356.491 306.084C356.341 306.075 356.192 306.047 356.043 306C355.8 306.177 355.623 306.364 355.511 306.56C355.399 306.756 355.343 306.952 355.343 307.148C355.343 307.512 355.515 307.801 355.861 308.016C356.215 308.231 356.701 308.338 357.317 308.338Z" fill="#303030"/>
<g opacity="0.3" filter="url(#filter5_d)">
<circle cx="326.829" cy="172.445" r="53.0599" fill="#F7F7F7"/>
</g>
<g filter="url(#filter6_d)">
<circle cx="326.276" cy="171.892" r="43.6639" fill="#F8F8F8"/>
</g>
<path d="M311.775 181.288C311.039 181.288 310.319 181.144 309.615 180.856C308.927 180.568 308.311 180.12 307.767 179.512C307.239 178.904 306.815 178.128 306.495 177.184C306.175 176.224 306.015 175.072 306.015 173.728C306.015 172.304 306.183 171.072 306.519 170.032C306.871 168.992 307.327 168.136 307.887 167.464C308.463 166.792 309.119 166.296 309.855 165.976C310.607 165.64 311.383 165.472 312.183 165.472C313.191 165.472 314.063 165.656 314.799 166.024C315.535 166.376 316.143 166.8 316.623 167.296L314.775 169.408C314.503 169.12 314.151 168.872 313.719 168.664C313.287 168.44 312.847 168.328 312.399 168.328C311.983 168.328 311.591 168.408 311.223 168.568C310.855 168.728 310.527 169 310.239 169.384C309.967 169.752 309.743 170.24 309.567 170.848C309.391 171.456 309.287 172.2 309.255 173.08C309.447 172.824 309.671 172.6 309.927 172.408C310.183 172.2 310.447 172.032 310.719 171.904C310.991 171.76 311.263 171.656 311.535 171.592C311.807 171.512 312.063 171.472 312.303 171.472C312.959 171.472 313.559 171.568 314.103 171.76C314.663 171.952 315.143 172.24 315.543 172.624C315.959 173.008 316.279 173.496 316.503 174.088C316.727 174.68 316.839 175.376 316.839 176.176C316.839 176.976 316.703 177.688 316.431 178.312C316.159 178.936 315.791 179.472 315.327 179.92C314.879 180.368 314.343 180.712 313.719 180.952C313.111 181.176 312.463 181.288 311.775 181.288ZM311.703 178.648C312.231 178.648 312.679 178.456 313.047 178.072C313.431 177.672 313.623 177.04 313.623 176.176C313.623 175.36 313.431 174.792 313.047 174.472C312.679 174.136 312.207 173.968 311.631 173.968C311.231 173.968 310.823 174.088 310.407 174.328C310.007 174.552 309.647 174.936 309.327 175.48C309.407 176.088 309.527 176.592 309.687 176.992C309.847 177.392 310.031 177.72 310.239 177.976C310.447 178.216 310.671 178.392 310.911 178.504C311.167 178.6 311.431 178.648 311.703 178.648ZM324.047 181.288C323.231 181.288 322.487 181.12 321.815 180.784C321.143 180.432 320.567 179.92 320.087 179.248C319.623 178.576 319.255 177.744 318.983 176.752C318.727 175.76 318.599 174.616 318.599 173.32C318.599 172.024 318.727 170.888 318.983 169.912C319.255 168.936 319.623 168.12 320.087 167.464C320.567 166.792 321.143 166.296 321.815 165.976C322.487 165.64 323.231 165.472 324.047 165.472C324.863 165.472 325.607 165.64 326.279 165.976C326.951 166.296 327.519 166.792 327.983 167.464C328.463 168.12 328.831 168.936 329.087 169.912C329.359 170.888 329.495 172.024 329.495 173.32C329.495 174.616 329.359 175.76 329.087 176.752C328.831 177.744 328.463 178.576 327.983 179.248C327.519 179.92 326.951 180.432 326.279 180.784C325.607 181.12 324.863 181.288 324.047 181.288ZM324.047 178.552C324.351 178.552 324.631 178.48 324.887 178.336C325.143 178.176 325.367 177.896 325.559 177.496C325.751 177.096 325.895 176.56 325.991 175.888C326.103 175.216 326.159 174.36 326.159 173.32C326.159 172.28 326.103 171.432 325.991 170.776C325.895 170.104 325.751 169.584 325.559 169.216C325.367 168.832 325.143 168.568 324.887 168.424C324.631 168.28 324.351 168.208 324.047 168.208C323.759 168.208 323.487 168.28 323.231 168.424C322.975 168.568 322.751 168.832 322.559 169.216C322.367 169.584 322.215 170.104 322.103 170.776C321.991 171.432 321.935 172.28 321.935 173.32C321.935 174.36 321.991 175.216 322.103 175.888C322.215 176.56 322.367 177.096 322.559 177.496C322.751 177.896 322.975 178.176 323.231 178.336C323.487 178.48 323.759 178.552 324.047 178.552ZM334.903 175C334.343 175 333.823 174.888 333.343 174.664C332.863 174.44 332.447 174.112 332.095 173.68C331.759 173.248 331.495 172.728 331.303 172.12C331.111 171.496 331.015 170.792 331.015 170.008C331.015 169.224 331.111 168.528 331.303 167.92C331.495 167.312 331.759 166.8 332.095 166.384C332.447 165.952 332.863 165.624 333.343 165.4C333.823 165.176 334.343 165.064 334.903 165.064C335.463 165.064 335.983 165.176 336.463 165.4C336.943 165.624 337.351 165.952 337.687 166.384C338.039 166.8 338.311 167.312 338.503 167.92C338.711 168.528 338.815 169.224 338.815 170.008C338.815 170.792 338.711 171.496 338.503 172.12C338.311 172.728 338.039 173.248 337.687 173.68C337.351 174.112 336.943 174.44 336.463 174.664C335.983 174.888 335.463 175 334.903 175ZM334.903 173.032C335.303 173.032 335.639 172.808 335.911 172.36C336.199 171.912 336.343 171.128 336.343 170.008C336.343 168.888 336.199 168.112 335.911 167.68C335.639 167.248 335.303 167.032 334.903 167.032C334.503 167.032 334.159 167.248 333.871 167.68C333.599 168.112 333.463 168.888 333.463 170.008C333.463 171.128 333.599 171.912 333.871 172.36C334.159 172.808 334.503 173.032 334.903 173.032ZM335.431 181.288L343.879 165.064H345.919L337.471 181.288H335.431ZM346.447 181.288C345.887 181.288 345.367 181.176 344.887 180.952C344.407 180.728 343.991 180.4 343.639 179.968C343.303 179.536 343.039 179.016 342.847 178.408C342.655 177.784 342.559 177.08 342.559 176.296C342.559 175.512 342.655 174.816 342.847 174.208C343.039 173.6 343.303 173.088 343.639 172.672C343.991 172.24 344.407 171.912 344.887 171.688C345.367 171.464 345.887 171.352 346.447 171.352C347.007 171.352 347.527 171.464 348.007 171.688C348.487 171.912 348.895 172.24 349.231 172.672C349.583 173.088 349.855 173.6 350.047 174.208C350.255 174.816 350.359 175.512 350.359 176.296C350.359 177.08 350.255 177.784 350.047 178.408C349.855 179.016 349.583 179.536 349.231 179.968C348.895 180.4 348.487 180.728 348.007 180.952C347.527 181.176 347.007 181.288 346.447 181.288ZM346.447 179.32C346.847 179.32 347.183 179.096 347.455 178.648C347.743 178.2 347.887 177.416 347.887 176.296C347.887 175.176 347.743 174.4 347.455 173.968C347.183 173.536 346.847 173.32 346.447 173.32C346.047 173.32 345.703 173.536 345.415 173.968C345.143 174.4 345.007 175.176 345.007 176.296C345.007 177.416 345.143 178.2 345.415 178.648C345.703 179.096 346.047 179.32 346.447 179.32Z" fill="#937BF5"/>
</g>
<defs>
<filter id="filter0_d" x="14" y="73" width="199" height="199" filterUnits="userSpaceOnUse" color-interpolation-filters="sRGB">
<feFlood flood-opacity="0" result="BackgroundImageFix"/>
<feColorMatrix in="SourceAlpha" type="matrix" values="0 0 0 0 0 0 0 0 0 0 0 0 0 0 0 0 0 0 127 0"/>
<feOffset/>
<feGaussianBlur stdDeviation="5"/>
<feColorMatrix type="matrix" values="0 0 0 0 0 0 0 0 0 0 0 0 0 0 0 0 0 0 0.15 0"/>
<feBlend mode="normal" in2="BackgroundImageFix" result="effect1_dropShadow"/>
<feBlend mode="normal" in="SourceGraphic" in2="effect1_dropShadow" result="shape"/>
</filter>
<filter id="filter1_d" x="48" y="107" width="137" height="137" filterUnits="userSpaceOnUse" color-interpolation-filters="sRGB">
<feFlood flood-opacity="0" result="BackgroundImageFix"/>
<feColorMatrix in="SourceAlpha" type="matrix" values="0 0 0 0 0 0 0 0 0 0 0 0 0 0 0 0 0 0 127 0"/>
<feOffset dx="3" dy="3"/>
<feGaussianBlur stdDeviation="5"/>
<feColorMatrix type="matrix" values="0 0 0 0 0 0 0 0 0 0 0 0 0 0 0 0 0 0 0.25 0"/>
<feBlend mode="normal" in2="BackgroundImageFix" result="effect1_dropShadow"/>
<feBlend mode="normal" in="SourceGraphic" in2="effect1_dropShadow" result="shape"/>
</filter>
<filter id="filter2_d" x="58" y="117" width="118" height="117" filterUnits="userSpaceOnUse" color-interpolation-filters="sRGB">
<feFlood flood-opacity="0" result="BackgroundImageFix"/>
<feColorMatrix in="SourceAlpha" type="matrix" values="0 0 0 0 0 0 0 0 0 0 0 0 0 0 0 0 0 0 127 0"/>
<feOffset dx="3" dy="3"/>
<feGaussianBlur stdDeviation="5"/>
<feColorMatrix type="matrix" values="0 0 0 0 0 0 0 0 0 0 0 0 0 0 0 0 0 0 0.25 0"/>
<feBlend mode="normal" in2="BackgroundImageFix" result="effect1_dropShadow"/>
<feBlend mode="normal" in="SourceGraphic" in2="effect1_dropShadow" result="shape"/>
</filter>
<filter id="filter3_d" x="225" y="70" width="203" height="204" filterUnits="userSpaceOnUse" color-interpolation-filters="sRGB">
<feFlood flood-opacity="0" result="BackgroundImageFix"/>
<feColorMatrix in="SourceAlpha" type="matrix" values="0 0 0 0 0 0 0 0 0 0 0 0 0 0 0 0 0 0 127 0"/>
<feOffset/>
<feGaussianBlur stdDeviation="5"/>
<feColorMatrix type="matrix" values="0 0 0 0 0 0 0 0 0 0 0 0 0 0 0 0 0 0 0.15 0"/>
<feBlend mode="normal" in2="BackgroundImageFix" result="effect1_dropShadow"/>
<feBlend mode="normal" in="SourceGraphic" in2="effect1_dropShadow" result="shape"/>
</filter>
<filter id="filter4_d" x="248.538" y="78.4664" width="175.507" height="165.923" filterUnits="userSpaceOnUse" color-interpolation-filters="sRGB">
<feFlood flood-opacity="0" result="BackgroundImageFix"/>
<feColorMatrix in="SourceAlpha" type="matrix" values="0 0 0 0 0 0 0 0 0 0 0 0 0 0 0 0 0 0 127 0"/>
<feOffset dx="3" dy="3"/>
<feGaussianBlur stdDeviation="5"/>
<feColorMatrix type="matrix" values="0 0 0 0 0 0 0 0 0 0 0 0 0 0 0 0 0 0 0.25 0"/>
<feBlend mode="normal" in2="BackgroundImageFix" result="effect1_dropShadow"/>
<feBlend mode="normal" in="SourceGraphic" in2="effect1_dropShadow" result="shape"/>
</filter>
<filter id="filter5_d" x="266.769" y="112.385" width="126.12" height="126.12" filterUnits="userSpaceOnUse" color-interpolation-filters="sRGB">
<feFlood flood-opacity="0" result="BackgroundImageFix"/>
<feColorMatrix in="SourceAlpha" type="matrix" values="0 0 0 0 0 0 0 0 0 0 0 0 0 0 0 0 0 0 127 0"/>
<feOffset dx="3" dy="3"/>
<feGaussianBlur stdDeviation="5"/>
<feColorMatrix type="matrix" values="0 0 0 0 0 0 0 0 0 0 0 0 0 0 0 0 0 0 0.25 0"/>
<feBlend mode="normal" in2="BackgroundImageFix" result="effect1_dropShadow"/>
<feBlend mode="normal" in="SourceGraphic" in2="effect1_dropShadow" result="shape"/>
</filter>
<filter id="filter6_d" x="275.612" y="121.228" width="107.328" height="107.328" filterUnits="userSpaceOnUse" color-interpolation-filters="sRGB">
<feFlood flood-opacity="0" result="BackgroundImageFix"/>
<feColorMatrix in="SourceAlpha" type="matrix" values="0 0 0 0 0 0 0 0 0 0 0 0 0 0 0 0 0 0 127 0"/>
<feOffset dx="3" dy="3"/>
<feGaussianBlur stdDeviation="5"/>
<feColorMatrix type="matrix" values="0 0 0 0 0 0 0 0 0 0 0 0 0 0 0 0 0 0 0.25 0"/>
<feBlend mode="normal" in2="BackgroundImageFix" result="effect1_dropShadow"/>
<feBlend mode="normal" in="SourceGraphic" in2="effect1_dropShadow" result="shape"/>
</filter>
<linearGradient id="paint0_linear" x1="33.1619" y1="90.6439" x2="33.1619" y2="252.034" gradientUnits="userSpaceOnUse">
<stop stop-color="#7B39D9"/>
<stop offset="1" stop-color="#CA3666"/>
</linearGradient>
<linearGradient id="paint1_linear" x1="423.421" y1="96.798" x2="257.581" y2="70.8099" gradientUnits="userSpaceOnUse">
<stop stop-color="#8D77F4"/>
<stop offset="1" stop-color="#BD95FB"/>
</linearGradient>
<clipPath id="clip0">
<rect width="188" height="236" fill="white" transform="translate(235 74.4946)"/>
</clipPath>
</defs>
</svg>
