<svg width="224" height="126" viewBox="0 0 224 126" fill="none" xmlns="http://www.w3.org/2000/svg">
<path d="M223 65H223.5V65.5H223V65ZM3 65H2.5V64.5H3V65ZM3 125.75L0.113251 120.75H5.88675L3 125.75ZM223.5 0V4.33598H222.5V0H223.5ZM223.5 13.0079V21.6799H222.5V13.0079H223.5ZM223.5 30.3518V39.0238H222.5V30.3518H223.5ZM223.5 47.6958V52.0317H222.5V47.6958H223.5ZM223.5 52.0317V55.2738H222.5V52.0317H223.5ZM223.5 61.7579V65H222.5V61.7579H223.5ZM223 65.5H221.867V64.5H223V65.5ZM219.601 65.5H218.468V64.5H219.601V65.5ZM218.468 65.5H214.324V64.5H218.468V65.5ZM206.037 65.5H197.75V64.5H206.037V65.5ZM189.463 65.5H181.176V64.5H189.463V65.5ZM172.888 65.5H164.601V64.5H172.888V65.5ZM156.314 65.5H148.027V64.5H156.314V65.5ZM139.739 65.5H131.452V64.5H139.739V65.5ZM123.165 65.5H114.878V64.5H123.165V65.5ZM106.59 65.5H98.3032V64.5H106.59V65.5ZM90.016 65.5H81.7287V64.5H90.016V65.5ZM73.4415 65.5H65.1543V64.5H73.4415V65.5ZM56.867 65.5H48.5798V64.5H56.867V65.5ZM40.2926 65.5H32.0053V64.5H40.2926V65.5ZM23.7181 65.5H15.4309V64.5H23.7181V65.5ZM7.14365 65.5H3V64.5H7.14365V65.5ZM3.5 65V68.7969H2.5V65H3.5ZM3.5 76.3906V83.9844H2.5V76.3906H3.5ZM3.5 91.5781V99.1719H2.5V91.5781H3.5ZM3.5 106.766V114.359H2.5V106.766H3.5Z" fill="#FA5A28"/>
</svg>
