<svg width="436" height="127" viewBox="0 0 436 127" fill="none" xmlns="http://www.w3.org/2000/svg">
<path d="M1 65.6065H0.5V66.1065H1V65.6065ZM433 65.6065H433.5V65.1065H433V65.6065ZM433 126.356L435.887 121.356H430.113L433 126.356ZM0.5 0.606445V4.94242H1.5V0.606445H0.5ZM0.5 13.6144V22.2863H1.5V13.6144H0.5ZM0.5 30.9583V39.6302H1.5V30.9583H0.5ZM0.5 48.3022V52.6382H1.5V48.3022H0.5ZM0.5 52.6382V55.8802H1.5V52.6382H0.5ZM0.5 62.3644V65.6065H1.5V62.3644H0.5ZM1 66.1065H3.22477V65.1065H1V66.1065ZM7.6743 66.1065H9.89906V65.1065H7.6743V66.1065ZM9.89906 66.1065H13.9673V65.1065H9.89906V66.1065ZM22.1039 66.1065H30.2405V65.1065H22.1039V66.1065ZM38.377 66.1065H46.5136V65.1065H38.377V66.1065ZM54.6501 66.1065H62.7867V65.1065H54.6501V66.1065ZM70.9232 66.1065H79.0598V65.1065H70.9232V66.1065ZM87.1964 66.1065H95.3329V65.1065H87.1964V66.1065ZM103.469 66.1065H111.606V65.1065H103.469V66.1065ZM119.743 66.1065H127.879V65.1065H119.743V66.1065ZM136.016 66.1065H144.152V65.1065H136.016V66.1065ZM152.289 66.1065H160.425V65.1065H152.289V66.1065ZM168.562 66.1065H176.698V65.1065H168.562V66.1065ZM184.835 66.1065H192.972V65.1065H184.835V66.1065ZM201.108 66.1065H209.245V65.1065H201.108V66.1065ZM217.381 66.1065H225.518V65.1065H217.381V66.1065ZM233.654 66.1065H241.791V65.1065H233.654V66.1065ZM249.927 66.1065H258.064V65.1065H249.927V66.1065ZM266.201 66.1065H274.337V65.1065H266.201V66.1065ZM282.474 66.1065H290.61V65.1065H282.474V66.1065ZM298.747 66.1065H306.883V65.1065H298.747V66.1065ZM315.02 66.1065H323.156V65.1065H315.02V66.1065ZM331.293 66.1065H339.43V65.1065H331.293V66.1065ZM347.566 66.1065H355.703V65.1065H347.566V66.1065ZM363.839 66.1065H371.976V65.1065H363.839V66.1065ZM380.112 66.1065H388.249V65.1065H380.112V66.1065ZM396.386 66.1065H404.522V65.1065H396.386V66.1065ZM412.659 66.1065H420.795V65.1065H412.659V66.1065ZM428.932 66.1065H433V65.1065H428.932V66.1065ZM432.5 65.6065V69.4033H433.5V65.6065H432.5ZM432.5 76.9971V84.5908H433.5V76.9971H432.5ZM432.5 92.1846V99.7783H433.5V92.1846H432.5ZM432.5 107.372V114.966H433.5V107.372H432.5Z" fill="#FA5A28"/>
</svg>
