<svg width="414" height="413" viewBox="0 0 414 413" fill="none" xmlns="http://www.w3.org/2000/svg">
<circle cx="92.5" cy="109.5" r="24.5" fill="#F2F2F2"/>
<circle cx="341.5" cy="168.5" r="24.5" fill="#F2F2F2"/>
<ellipse cx="194" cy="80.5" rx="60" ry="60.5" stroke="#FA5A28" stroke-width="2"/>
<path d="M59.6849 195.616L57.4831 196.51L59.6849 195.616C55.7589 185.944 57.3663 175.157 63.8494 167.293L63.8495 167.292L138.661 76.5211L138.661 76.521C145.149 68.6483 155.589 64.8349 166.087 66.606L166.503 64.1409L166.087 66.606L285.946 86.8225L285.947 86.8226C296.449 88.5929 305.334 95.6765 309.265 105.362L354.315 216.349C358.241 226.021 356.633 236.807 350.15 244.673L275.341 335.443C268.852 343.315 258.411 347.128 247.914 345.359L128.053 325.143C128.053 325.143 128.053 325.143 128.053 325.143C117.549 323.371 108.665 316.288 104.734 306.603L59.6849 195.616ZM136.732 74.9312L136.732 74.9312L136.732 74.9312Z" fill="url(#paint0_linear)" stroke="white" stroke-width="5"/>
<path d="M59.6849 195.616L57.4831 196.51L59.6849 195.616C55.7589 185.944 57.3663 175.157 63.8494 167.293L63.8495 167.292L138.661 76.5211L138.661 76.521C145.149 68.6483 155.589 64.8349 166.087 66.606L166.503 64.1409L166.087 66.606L285.946 86.8225L285.947 86.8226C296.449 88.5929 305.334 95.6765 309.265 105.362L354.315 216.349C358.241 226.021 356.633 236.807 350.15 244.673L275.341 335.443C268.852 343.315 258.411 347.128 247.914 345.359L128.053 325.143C128.053 325.143 128.053 325.143 128.053 325.143C117.549 323.371 108.665 316.288 104.734 306.603L59.6849 195.616ZM136.732 74.9312L136.732 74.9312L136.732 74.9312Z" fill="url(#paint1_linear)" stroke="white" stroke-width="5"/>
<mask id="mask0" mask-type="alpha" maskUnits="userSpaceOnUse" x="55" y="63" width="304" height="286">
<path d="M59.6849 195.616L57.4831 196.51L59.6849 195.616C55.7589 185.944 57.3663 175.157 63.8494 167.293L63.8495 167.292L138.661 76.5211L138.661 76.521C145.149 68.6483 155.589 64.8349 166.087 66.606L166.503 64.1409L166.087 66.606L285.946 86.8225L285.947 86.8226C296.449 88.5929 305.334 95.6765 309.265 105.362L354.315 216.349C358.241 226.021 356.633 236.807 350.15 244.673L275.341 335.443C268.852 343.315 258.411 347.128 247.914 345.359L128.053 325.143C128.053 325.143 128.053 325.143 128.053 325.143C117.549 323.371 108.665 316.288 104.734 306.603L59.6849 195.616ZM136.732 74.9312L136.732 74.9312L136.732 74.9312Z" fill="white" stroke="white" stroke-width="5"/>
</mask>
<g mask="url(#mask0)">
<path opacity="0.62" fill-rule="evenodd" clip-rule="evenodd" d="M338.666 240.571C338.769 240.366 338.666 240.058 338.461 239.955C338.256 239.852 337.948 239.955 337.846 240.16C337.743 240.366 337.846 240.571 338.051 240.777C338.256 240.879 338.564 240.777 338.666 240.571Z" fill="white"/>
<path opacity="0.62" fill-rule="evenodd" clip-rule="evenodd" d="M312.088 280.263C312.19 280.058 312.088 279.75 311.882 279.647C311.677 279.544 311.37 279.647 311.267 279.852C311.164 280.058 311.267 280.366 311.472 280.468C311.677 280.571 311.985 280.468 312.088 280.263Z" fill="white"/>
<path opacity="0.62" fill-rule="evenodd" clip-rule="evenodd" d="M335.783 302.725C335.885 302.519 335.783 302.211 335.578 302.109C335.373 302.006 335.065 302.109 334.962 302.314C334.86 302.519 334.962 302.827 335.167 302.93C335.373 303.033 335.68 302.93 335.783 302.725Z" fill="white"/>
<path opacity="0.62" fill-rule="evenodd" clip-rule="evenodd" d="M337.675 319.142C337.777 318.937 337.675 318.629 337.47 318.526C337.265 318.423 336.957 318.526 336.854 318.731C336.752 319.039 336.854 319.245 337.059 319.347C337.265 319.45 337.572 319.347 337.675 319.142Z" fill="white"/>
<path opacity="0.62" fill-rule="evenodd" clip-rule="evenodd" d="M326.669 269.629C326.759 269.358 326.669 269.088 326.398 268.907C326.128 268.817 325.858 268.907 325.678 269.178C325.588 269.448 325.678 269.809 325.948 269.899C326.218 269.99 326.489 269.899 326.669 269.629Z" fill="white"/>
<path opacity="0.62" fill-rule="evenodd" clip-rule="evenodd" d="M351.167 212.735C350.955 212.84 350.639 212.631 350.639 212.422C350.533 212.213 350.744 211.9 350.955 211.9C351.167 211.796 351.378 211.9 351.483 212.213C351.589 212.422 351.378 212.735 351.167 212.735Z" fill="white"/>
<path opacity="0.62" fill-rule="evenodd" clip-rule="evenodd" d="M341.279 72.694C341.381 72.4886 341.279 72.1806 341.074 72.0779C340.868 71.9752 340.561 72.0779 340.458 72.2833C340.356 72.5913 340.458 72.7967 340.663 72.8994C340.868 73.0021 341.176 72.8994 341.279 72.694Z" fill="white"/>
<path opacity="0.62" fill-rule="evenodd" clip-rule="evenodd" d="M314.7 112.476C314.803 112.27 314.7 111.962 314.495 111.859C314.29 111.757 313.982 111.859 313.88 112.065C313.777 112.27 313.88 112.476 314.085 112.681C314.29 112.784 314.598 112.681 314.7 112.476Z" fill="white"/>
<path opacity="0.62" fill-rule="evenodd" clip-rule="evenodd" d="M338.396 134.937C338.498 134.732 338.396 134.424 338.191 134.321C337.985 134.219 337.678 134.321 337.575 134.527C337.473 134.732 337.575 135.04 337.78 135.143C337.985 135.245 338.293 135.143 338.396 134.937Z" fill="white"/>
<path opacity="0.62" fill-rule="evenodd" clip-rule="evenodd" d="M340.288 151.355C340.39 151.15 340.288 150.842 340.082 150.739C339.877 150.637 339.57 150.739 339.467 150.945C339.365 151.15 339.467 151.458 339.672 151.561C339.877 151.663 340.185 151.561 340.288 151.355Z" fill="white"/>
<path opacity="0.62" fill-rule="evenodd" clip-rule="evenodd" d="M329.281 101.841C329.371 101.571 329.281 101.3 329.011 101.12C328.741 101.03 328.47 101.12 328.29 101.39C328.2 101.661 328.29 102.022 328.561 102.112C328.831 102.202 329.101 102.112 329.281 101.841Z" fill="white"/>
<path opacity="0.62" fill-rule="evenodd" clip-rule="evenodd" d="M92.3266 183.57C92.4167 183.3 92.3266 183.029 92.0563 182.849C91.786 182.759 91.5157 182.849 91.3355 183.119C91.2454 183.39 91.3355 183.751 91.6058 183.841C91.8761 183.931 92.1464 183.841 92.3266 183.57Z" fill="white"/>
<path opacity="0.62" fill-rule="evenodd" clip-rule="evenodd" d="M100.432 263.935C100.532 263.73 100.432 263.422 100.232 263.319C100.031 263.216 99.7307 263.319 99.6305 263.524C99.5303 263.832 99.5303 264.038 99.8309 264.14C100.031 264.243 100.332 264.14 100.432 263.935Z" fill="white"/>
<path opacity="0.62" fill-rule="evenodd" clip-rule="evenodd" d="M79.4397 242.465C79.5399 242.26 79.4397 241.952 79.2392 241.849C79.0388 241.746 78.7382 241.849 78.6379 242.054C78.5377 242.363 78.5377 242.568 78.8384 242.671C79.0388 242.773 79.3394 242.671 79.4397 242.465Z" fill="white"/>
<path opacity="0.62" fill-rule="evenodd" clip-rule="evenodd" d="M56.2123 248.961C56.3149 248.756 56.2123 248.448 56.0072 248.345C55.802 248.242 55.4944 248.345 55.3918 248.55C55.2892 248.858 55.3918 249.064 55.5969 249.166C55.802 249.269 56.1097 249.166 56.2123 248.961Z" fill="white"/>
<path opacity="0.62" fill-rule="evenodd" clip-rule="evenodd" d="M89.1878 342.507C89.2903 342.301 89.1878 341.993 88.9826 341.89C88.7775 341.788 88.4698 341.89 88.3673 342.096C88.2647 342.301 88.3673 342.609 88.5724 342.712C88.7775 342.815 89.0852 342.712 89.1878 342.507Z" fill="white"/>
<path opacity="0.62" fill-rule="evenodd" clip-rule="evenodd" d="M81.8899 302.995C81.9925 302.79 81.8899 302.482 81.6848 302.379C81.4797 302.276 81.172 302.379 81.0694 302.584C80.9668 302.79 81.0694 303.098 81.2745 303.2C81.4797 303.303 81.7873 303.2 81.8899 302.995Z" fill="white"/>
<path opacity="0.62" fill-rule="evenodd" clip-rule="evenodd" d="M55.2937 327.622C55.3939 327.417 55.2937 327.109 55.0932 327.006C54.8928 326.904 54.5922 327.006 54.4919 327.212C54.3917 327.417 54.3917 327.725 54.6924 327.828C54.8928 327.931 55.1934 327.828 55.2937 327.622Z" fill="white"/>
<path opacity="0.62" fill-rule="evenodd" clip-rule="evenodd" d="M77.5651 297.131C77.6676 296.926 77.5651 296.618 77.36 296.515C77.1548 296.413 76.8471 296.515 76.7446 296.721C76.642 296.926 76.7446 297.234 76.9497 297.337C77.1548 297.44 77.4625 297.337 77.5651 297.131Z" fill="white"/>
<path opacity="0.62" fill-rule="evenodd" clip-rule="evenodd" d="M112.343 337.455C112.445 337.249 112.343 336.941 112.138 336.839C111.932 336.736 111.625 336.839 111.522 337.044C111.42 337.249 111.522 337.557 111.727 337.66C111.932 337.763 112.24 337.66 112.343 337.455Z" fill="white"/>
<path opacity="0.62" fill-rule="evenodd" clip-rule="evenodd" d="M113.334 296.771C113.436 296.566 113.334 296.257 113.129 296.155C112.924 296.052 112.616 296.155 112.513 296.36C112.411 296.566 112.513 296.874 112.718 296.976C112.924 297.079 113.231 296.976 113.334 296.771Z" fill="white"/>
<path opacity="0.62" fill-rule="evenodd" clip-rule="evenodd" d="M80.7942 250.595C80.8843 250.324 80.7942 250.054 80.614 249.873C80.3437 249.783 80.0734 249.873 79.8932 250.144C79.713 250.324 79.8031 250.685 80.0734 250.775C80.3437 250.865 80.614 250.775 80.7942 250.595Z" fill="white"/>
<path opacity="0.62" fill-rule="evenodd" clip-rule="evenodd" d="M142.24 276.485C141.97 276.575 141.7 276.395 141.61 276.124C141.52 275.853 141.7 275.583 141.97 275.492C142.24 275.402 142.511 275.583 142.601 275.853C142.691 276.124 142.511 276.395 142.24 276.485Z" fill="white"/>
<path opacity="0.62" fill-rule="evenodd" clip-rule="evenodd" d="M92.9489 289.445C92.7377 289.554 92.4209 289.336 92.4209 289.118C92.3153 288.9 92.5265 288.572 92.7377 288.572C92.9489 288.572 93.1601 288.681 93.2657 288.9C93.3713 289.118 93.1601 289.445 92.9489 289.445Z" fill="white"/>
<path opacity="0.62" fill-rule="evenodd" clip-rule="evenodd" d="M94.03 226.818C93.8188 226.924 93.502 226.712 93.502 226.501C93.3964 226.289 93.6076 225.972 93.8188 225.972C94.03 225.866 94.3468 226.078 94.3468 226.289C94.4523 226.501 94.2412 226.818 94.03 226.818Z" fill="white"/>
<path opacity="0.62" fill-rule="evenodd" clip-rule="evenodd" d="M68.8029 221.158C68.5917 221.267 68.2749 221.049 68.2749 220.831C68.1693 220.612 68.3805 220.285 68.5917 220.285C68.6973 220.285 69.0141 220.394 69.1197 220.612C69.2253 220.831 69.0141 221.158 68.8029 221.158Z" fill="white"/>
<path opacity="0.62" fill-rule="evenodd" clip-rule="evenodd" d="M127.816 228.826C127.605 228.935 127.288 228.717 127.288 228.498C127.183 228.28 127.394 227.953 127.605 227.953C127.816 227.953 128.133 228.062 128.133 228.28C128.239 228.498 128.028 228.826 127.816 228.826Z" fill="white"/>
<path opacity="0.62" fill-rule="evenodd" clip-rule="evenodd" d="M101.778 216.254C101.567 216.358 101.25 216.15 101.25 215.941C101.145 215.732 101.356 215.419 101.567 215.419C101.778 215.314 101.99 215.419 102.095 215.732C102.201 215.941 101.99 216.254 101.778 216.254Z" fill="white"/>
<path opacity="0.62" fill-rule="evenodd" clip-rule="evenodd" d="M81.7768 245.965C81.5656 246.074 81.2488 245.856 81.2488 245.638C81.1432 245.419 81.3544 245.092 81.5656 245.092C81.7768 245.092 81.988 245.201 82.0936 245.419C82.1992 245.638 81.988 245.965 81.7768 245.965Z" fill="white"/>
<path opacity="0.62" fill-rule="evenodd" clip-rule="evenodd" d="M126.113 317.71C125.843 317.8 125.572 317.62 125.482 317.349C125.392 317.078 125.572 316.808 125.843 316.718C126.113 316.627 126.383 316.808 126.473 317.078C126.563 317.349 126.383 317.62 126.113 317.71Z" fill="white"/>
<path opacity="0.62" fill-rule="evenodd" clip-rule="evenodd" d="M90.795 297.323C90.5247 297.413 90.2544 297.232 90.1643 296.962C90.0742 296.691 90.2544 296.421 90.5247 296.33C90.795 296.24 91.0653 296.33 91.1554 296.691C91.2455 296.962 91.0653 297.232 90.795 297.323Z" fill="white"/>
<path opacity="0.62" fill-rule="evenodd" clip-rule="evenodd" d="M78.1813 223.082C77.911 223.172 77.6408 222.991 77.5507 222.721C77.4606 222.45 77.6408 222.18 77.911 222.089C78.1813 221.999 78.4516 222.18 78.5417 222.45C78.6318 222.721 78.4516 222.991 78.1813 223.082Z" fill="white"/>
<path opacity="0.62" fill-rule="evenodd" clip-rule="evenodd" d="M135.934 282.8C135.573 282.89 135.123 282.709 135.033 282.258C134.942 281.898 135.123 281.447 135.573 281.356C135.933 281.266 136.294 281.537 136.474 281.898C136.564 282.258 136.384 282.709 135.934 282.8Z" fill="white"/>
<path opacity="0.62" fill-rule="evenodd" clip-rule="evenodd" d="M103.045 96.1481C103.145 95.9427 103.045 95.6347 102.845 95.532C102.644 95.4293 102.343 95.532 102.243 95.7374C102.143 95.9427 102.143 96.2508 102.444 96.3535C102.644 96.4562 102.945 96.3535 103.045 96.1481Z" fill="white"/>
<path opacity="0.62" fill-rule="evenodd" clip-rule="evenodd" d="M82.0701 74.6786C82.1726 74.4733 82.0701 74.1652 81.865 74.0625C81.6598 73.9598 81.3521 74.0625 81.2496 74.2679C81.147 74.5759 81.2496 74.7813 81.4547 74.884C81.6598 74.9867 81.9675 74.884 82.0701 74.6786Z" fill="white"/>
<path opacity="0.62" fill-rule="evenodd" clip-rule="evenodd" d="M58.8251 81.1735C58.9277 80.9681 58.8251 80.6601 58.62 80.5574C58.4148 80.4547 58.1072 80.5574 58.0046 80.7628C57.902 81.0708 58.0046 81.2762 58.2097 81.3789C58.4148 81.4816 58.7225 81.3789 58.8251 81.1735Z" fill="white"/>
<path opacity="0.62" fill-rule="evenodd" clip-rule="evenodd" d="M56.032 143.418C56.1346 143.212 56.032 142.904 55.8269 142.802C55.6217 142.699 55.3141 142.802 55.2115 143.007C55.1089 143.212 55.2115 143.52 55.4166 143.623C55.6217 143.726 55.9294 143.623 56.032 143.418Z" fill="white"/>
<path opacity="0.62" fill-rule="evenodd" clip-rule="evenodd" d="M91.8006 174.72C91.9031 174.515 91.8006 174.206 91.5954 174.104C91.3903 174.001 91.0826 174.104 90.9801 174.309C90.8775 174.515 90.9801 174.823 91.1852 174.925C91.3903 175.028 91.698 174.925 91.8006 174.72Z" fill="white"/>
<path opacity="0.62" fill-rule="evenodd" clip-rule="evenodd" d="M84.5027 135.208C84.6053 135.003 84.5027 134.695 84.2976 134.592C84.0925 134.49 83.7848 134.592 83.6822 134.798C83.5796 135.003 83.6822 135.311 83.8873 135.414C84.0925 135.516 84.4001 135.414 84.5027 135.208Z" fill="white"/>
<path opacity="0.62" fill-rule="evenodd" clip-rule="evenodd" d="M57.9065 159.836C58.0067 159.63 57.9065 159.322 57.706 159.219C57.5056 159.117 57.205 159.219 57.1047 159.425C57.0045 159.63 57.0045 159.938 57.3052 160.041C57.5056 160.144 57.8062 160.041 57.9065 159.836Z" fill="white"/>
<path opacity="0.62" fill-rule="evenodd" clip-rule="evenodd" d="M80.178 129.345C80.2806 129.14 80.178 128.831 79.9729 128.729C79.7677 128.626 79.4601 128.729 79.3575 128.934C79.2549 129.14 79.3575 129.448 79.5626 129.55C79.7677 129.653 80.0754 129.55 80.178 129.345Z" fill="white"/>
<path opacity="0.62" fill-rule="evenodd" clip-rule="evenodd" d="M114.955 169.668C115.058 169.463 114.955 169.155 114.75 169.052C114.545 168.949 114.238 169.052 114.135 169.257C114.032 169.463 114.135 169.771 114.34 169.874C114.545 169.976 114.853 169.874 114.955 169.668Z" fill="white"/>
<path opacity="0.62" fill-rule="evenodd" clip-rule="evenodd" d="M115.947 128.984C116.049 128.779 115.947 128.471 115.741 128.368C115.536 128.265 115.229 128.368 115.126 128.573C115.023 128.779 115.126 129.087 115.331 129.189C115.536 129.292 115.844 129.189 115.947 128.984Z" fill="white"/>
<path opacity="0.62" fill-rule="evenodd" clip-rule="evenodd" d="M83.4069 82.8077C83.497 82.5371 83.4069 82.2665 83.2268 82.0861C82.9565 81.9959 82.6862 82.0861 82.506 82.3567C82.3258 82.5371 82.4159 82.8979 82.6862 82.9881C82.9565 83.0784 83.2268 82.9881 83.4069 82.8077Z" fill="white"/>
<path opacity="0.62" fill-rule="evenodd" clip-rule="evenodd" d="M144.853 108.698C144.583 108.788 144.313 108.607 144.223 108.337C144.132 108.066 144.313 107.796 144.583 107.705C144.853 107.615 145.214 107.796 145.214 108.066C145.304 108.337 145.123 108.607 144.853 108.698Z" fill="white"/>
<path opacity="0.62" fill-rule="evenodd" clip-rule="evenodd" d="M95.5617 121.658C95.3505 121.768 95.0337 121.549 95.0337 121.331C94.9281 121.113 95.1393 120.785 95.3505 120.785C95.5617 120.785 95.7729 120.895 95.8785 121.113C95.9841 121.331 95.7729 121.658 95.5617 121.658Z" fill="white"/>
<path opacity="0.62" fill-rule="evenodd" clip-rule="evenodd" d="M84.3896 78.1782C84.1784 78.2874 83.8616 78.0691 83.8616 77.8508C83.756 77.6326 83.9672 77.3052 84.1784 77.3052C84.3896 77.3052 84.6008 77.4143 84.7064 77.6326C84.812 77.8508 84.6008 78.1782 84.3896 78.1782Z" fill="white"/>
<path opacity="0.62" fill-rule="evenodd" clip-rule="evenodd" d="M128.726 149.923C128.455 150.013 128.185 149.833 128.095 149.562C128.005 149.292 128.185 149.021 128.455 148.931C128.726 148.84 128.996 149.021 129.086 149.292C129.176 149.562 128.996 149.833 128.726 149.923Z" fill="white"/>
<path opacity="0.62" fill-rule="evenodd" clip-rule="evenodd" d="M93.4079 129.445C93.1376 129.536 92.8673 129.355 92.7772 129.085C92.6871 128.814 92.8673 128.543 93.1376 128.453C93.4079 128.453 93.7683 128.543 93.7683 128.814C93.8584 129.085 93.6782 129.355 93.4079 129.445Z" fill="white"/>
<path opacity="0.62" fill-rule="evenodd" clip-rule="evenodd" d="M138.546 115.012C138.186 115.102 137.735 114.922 137.645 114.471C137.555 114.11 137.735 113.659 138.186 113.569C138.546 113.479 138.907 113.749 139.087 114.11C139.177 114.471 138.997 114.922 138.546 115.012Z" fill="white"/>
<path opacity="0.62" fill-rule="evenodd" clip-rule="evenodd" d="M214.138 170.851C214.228 170.58 214.138 170.309 213.867 170.129C213.597 170.039 213.327 170.129 213.147 170.4C213.056 170.67 213.147 171.031 213.417 171.121C213.687 171.212 213.957 171.121 214.138 170.851Z" fill="white"/>
<path opacity="0.62" fill-rule="evenodd" clip-rule="evenodd" d="M222.171 251.306C222.273 251.101 222.171 250.793 221.966 250.69C221.761 250.587 221.453 250.69 221.35 250.895C221.248 251.101 221.35 251.306 221.555 251.511C221.761 251.614 222.068 251.511 222.171 251.306Z" fill="white"/>
<path opacity="0.62" fill-rule="evenodd" clip-rule="evenodd" d="M201.178 229.836C201.281 229.631 201.178 229.323 200.973 229.22C200.768 229.118 200.46 229.22 200.358 229.426C200.255 229.631 200.358 229.939 200.563 230.042C200.768 230.144 201.076 230.042 201.178 229.836Z" fill="white"/>
<path opacity="0.62" fill-rule="evenodd" clip-rule="evenodd" d="M178.023 236.331C178.126 236.126 178.023 235.818 177.818 235.715C177.613 235.613 177.305 235.715 177.203 235.921C177.1 236.126 177.203 236.434 177.408 236.537C177.613 236.64 177.921 236.537 178.023 236.331Z" fill="white"/>
<path opacity="0.62" fill-rule="evenodd" clip-rule="evenodd" d="M151.427 276.023C151.527 275.818 151.427 275.51 151.227 275.407C151.026 275.305 150.726 275.407 150.625 275.613C150.525 275.818 150.525 276.126 150.826 276.229C151.026 276.331 151.327 276.229 151.427 276.023Z" fill="white"/>
<path opacity="0.62" fill-rule="evenodd" clip-rule="evenodd" d="M175.14 298.485C175.243 298.28 175.14 297.972 174.935 297.869C174.73 297.766 174.422 297.869 174.32 298.074C174.217 298.382 174.32 298.588 174.525 298.69C174.73 298.793 175.038 298.69 175.14 298.485Z" fill="white"/>
<path opacity="0.62" fill-rule="evenodd" clip-rule="evenodd" d="M210.981 329.787C211.081 329.582 210.981 329.274 210.781 329.171C210.58 329.068 210.28 329.171 210.179 329.376C210.079 329.582 210.079 329.89 210.38 329.992C210.58 330.095 210.881 329.992 210.981 329.787Z" fill="white"/>
<path opacity="0.62" fill-rule="evenodd" clip-rule="evenodd" d="M203.611 290.276C203.713 290.07 203.611 289.762 203.406 289.66C203.201 289.557 202.893 289.66 202.79 289.865C202.688 290.173 202.79 290.378 202.995 290.481C203.201 290.584 203.508 290.481 203.611 290.276Z" fill="white"/>
<path opacity="0.62" fill-rule="evenodd" clip-rule="evenodd" d="M177.032 314.902C177.135 314.697 177.032 314.389 176.827 314.286C176.622 314.183 176.314 314.286 176.212 314.492C176.109 314.8 176.212 315.005 176.417 315.108C176.622 315.21 176.93 315.108 177.032 314.902Z" fill="white"/>
<path opacity="0.62" fill-rule="evenodd" clip-rule="evenodd" d="M199.286 284.412C199.389 284.207 199.286 283.899 199.081 283.796C198.876 283.693 198.568 283.796 198.466 284.002C198.363 284.207 198.466 284.515 198.671 284.618C198.876 284.72 199.184 284.618 199.286 284.412Z" fill="white"/>
<path opacity="0.62" fill-rule="evenodd" clip-rule="evenodd" d="M234.136 324.736C234.236 324.53 234.136 324.222 233.936 324.119C233.735 324.017 233.435 324.119 233.334 324.325C233.234 324.633 233.234 324.838 233.535 324.941C233.735 325.044 234.036 324.941 234.136 324.736Z" fill="white"/>
<path opacity="0.62" fill-rule="evenodd" clip-rule="evenodd" d="M235.145 284.051C235.247 283.846 235.145 283.538 234.94 283.435C234.734 283.333 234.427 283.435 234.324 283.641C234.222 283.846 234.324 284.154 234.529 284.257C234.734 284.359 235.042 284.257 235.145 284.051Z" fill="white"/>
<path opacity="0.62" fill-rule="evenodd" clip-rule="evenodd" d="M166.026 265.389C166.116 265.118 166.026 264.848 165.756 264.667C165.485 264.577 165.215 264.667 165.035 264.938C164.945 265.209 165.035 265.569 165.305 265.66C165.575 265.75 165.846 265.66 166.026 265.389Z" fill="white"/>
<path opacity="0.62" fill-rule="evenodd" clip-rule="evenodd" d="M202.605 237.876C202.695 237.605 202.605 237.334 202.425 237.154C202.155 237.064 201.884 237.154 201.704 237.425C201.524 237.605 201.614 237.966 201.884 238.056C202.155 238.146 202.425 238.056 202.605 237.876Z" fill="white"/>
<path opacity="0.62" fill-rule="evenodd" clip-rule="evenodd" d="M264.051 263.765C263.781 263.855 263.511 263.675 263.421 263.404C263.331 263.133 263.511 262.863 263.781 262.772C264.051 262.682 264.322 262.863 264.412 263.133C264.502 263.404 264.322 263.675 264.051 263.765Z" fill="white"/>
<path opacity="0.62" fill-rule="evenodd" clip-rule="evenodd" d="M214.67 276.784C214.459 276.888 214.142 276.679 214.142 276.471C214.036 276.262 214.247 275.949 214.459 275.949C214.67 275.844 214.987 275.949 214.987 276.262C215.092 276.471 214.881 276.784 214.67 276.784Z" fill="white"/>
<path opacity="0.62" fill-rule="evenodd" clip-rule="evenodd" d="M215.841 214.122C215.63 214.231 215.313 214.013 215.313 213.794C215.207 213.576 215.419 213.249 215.63 213.249C215.841 213.249 216.052 213.358 216.158 213.576C216.263 213.794 216.052 214.122 215.841 214.122Z" fill="white"/>
<path opacity="0.62" fill-rule="evenodd" clip-rule="evenodd" d="M190.524 208.496C190.313 208.601 189.996 208.392 189.996 208.183C189.89 207.974 190.101 207.661 190.313 207.661C190.524 207.557 190.735 207.661 190.841 207.974C190.946 208.183 190.735 208.496 190.524 208.496Z" fill="white"/>
<path opacity="0.62" fill-rule="evenodd" clip-rule="evenodd" d="M249.627 216.164C249.416 216.269 249.099 216.06 249.099 215.851C248.994 215.642 249.205 215.329 249.416 215.329C249.627 215.225 249.839 215.329 249.944 215.642C250.05 215.851 249.839 216.164 249.627 216.164Z" fill="white"/>
<path opacity="0.62" fill-rule="evenodd" clip-rule="evenodd" d="M223.589 203.544C223.378 203.65 223.061 203.439 223.061 203.227C222.956 203.016 223.167 202.699 223.378 202.699C223.484 202.593 223.801 202.804 223.906 203.016C224.012 203.227 223.801 203.544 223.589 203.544Z" fill="white"/>
<path opacity="0.62" fill-rule="evenodd" clip-rule="evenodd" d="M203.498 233.246C203.287 233.355 202.97 233.136 202.97 232.918C202.864 232.7 203.075 232.373 203.287 232.373C203.498 232.373 203.815 232.482 203.815 232.7C203.92 232.918 203.709 233.246 203.498 233.246Z" fill="white"/>
<path opacity="0.62" fill-rule="evenodd" clip-rule="evenodd" d="M247.834 304.99C247.564 305.081 247.293 304.9 247.203 304.63C247.113 304.359 247.293 304.088 247.564 303.998C247.834 303.908 248.104 304.088 248.194 304.359C248.284 304.63 248.104 304.9 247.834 304.99Z" fill="white"/>
<path opacity="0.62" fill-rule="evenodd" clip-rule="evenodd" d="M212.606 284.604C212.336 284.694 212.065 284.513 211.975 284.243C211.885 283.972 212.065 283.702 212.336 283.611C212.606 283.521 212.876 283.702 212.966 283.972C213.057 284.243 212.876 284.513 212.606 284.604Z" fill="white"/>
<path opacity="0.62" fill-rule="evenodd" clip-rule="evenodd" d="M199.902 210.362C199.632 210.452 199.362 210.272 199.272 210.001C199.182 209.731 199.362 209.46 199.632 209.37C199.902 209.37 200.263 209.46 200.263 209.731C200.353 210.001 200.173 210.272 199.902 210.362Z" fill="white"/>
<path opacity="0.62" fill-rule="evenodd" clip-rule="evenodd" d="M257.654 270.079C257.294 270.17 256.844 269.989 256.753 269.538C256.663 269.177 256.844 268.726 257.294 268.636C257.654 268.546 258.105 268.817 258.195 269.177C258.285 269.538 258.105 269.989 257.654 270.079Z" fill="white"/>
<path opacity="0.62" fill-rule="evenodd" clip-rule="evenodd" d="M224.784 83.4289C224.886 83.2235 224.784 82.9154 224.578 82.8127C224.373 82.7101 224.066 82.8127 223.963 83.0181C223.861 83.3262 223.963 83.5316 224.168 83.6343C224.373 83.7369 224.681 83.6343 224.784 83.4289Z" fill="white"/>
<path opacity="0.62" fill-rule="evenodd" clip-rule="evenodd" d="M180.636 68.5441C180.739 68.3387 180.636 68.0307 180.431 67.928C180.226 67.8253 179.918 67.928 179.816 68.1334C179.713 68.3387 179.816 68.5441 180.021 68.7495C180.226 68.8522 180.534 68.7495 180.636 68.5441Z" fill="white"/>
<path opacity="0.62" fill-rule="evenodd" clip-rule="evenodd" d="M154.04 108.236C154.14 108.03 154.04 107.722 153.839 107.62C153.639 107.517 153.338 107.62 153.238 107.825C153.138 108.03 153.138 108.338 153.439 108.441C153.639 108.544 153.94 108.441 154.04 108.236Z" fill="white"/>
<path opacity="0.62" fill-rule="evenodd" clip-rule="evenodd" d="M177.753 130.698C177.856 130.492 177.753 130.184 177.548 130.082C177.343 129.979 177.035 130.082 176.932 130.287C176.83 130.492 176.932 130.8 177.138 130.903C177.343 131.006 177.65 130.903 177.753 130.698Z" fill="white"/>
<path opacity="0.62" fill-rule="evenodd" clip-rule="evenodd" d="M213.594 162C213.694 161.795 213.594 161.486 213.394 161.384C213.193 161.281 212.892 161.384 212.792 161.589C212.692 161.795 212.692 162.103 212.993 162.205C213.193 162.308 213.494 162.205 213.594 162Z" fill="white"/>
<path opacity="0.62" fill-rule="evenodd" clip-rule="evenodd" d="M206.224 122.489C206.326 122.283 206.224 121.975 206.018 121.873C205.813 121.77 205.506 121.873 205.403 122.078C205.3 122.386 205.403 122.591 205.608 122.694C205.813 122.797 206.121 122.694 206.224 122.489Z" fill="white"/>
<path opacity="0.62" fill-rule="evenodd" clip-rule="evenodd" d="M179.645 147.116C179.747 146.91 179.645 146.602 179.44 146.5C179.235 146.397 178.927 146.5 178.824 146.705C178.722 147.013 178.824 147.218 179.03 147.321C179.235 147.424 179.542 147.321 179.645 147.116Z" fill="white"/>
<path opacity="0.62" fill-rule="evenodd" clip-rule="evenodd" d="M201.899 116.625C202.002 116.42 201.899 116.112 201.694 116.009C201.489 115.907 201.181 116.009 201.079 116.215C200.976 116.42 201.079 116.728 201.284 116.831C201.489 116.933 201.796 116.831 201.899 116.625Z" fill="white"/>
<path opacity="0.62" fill-rule="evenodd" clip-rule="evenodd" d="M236.766 156.948C236.869 156.743 236.766 156.435 236.561 156.332C236.356 156.23 236.049 156.332 235.946 156.538C235.843 156.743 235.946 157.051 236.151 157.154C236.356 157.256 236.664 157.154 236.766 156.948Z" fill="white"/>
<path opacity="0.62" fill-rule="evenodd" clip-rule="evenodd" d="M237.757 116.264C237.86 116.059 237.757 115.751 237.552 115.648C237.347 115.545 237.04 115.648 236.937 115.853C236.834 116.059 236.937 116.367 237.142 116.469C237.347 116.572 237.655 116.469 237.757 116.264Z" fill="white"/>
<path opacity="0.62" fill-rule="evenodd" clip-rule="evenodd" d="M168.639 97.6017C168.729 97.3311 168.639 97.0604 168.368 96.88C168.098 96.7898 167.828 96.88 167.648 97.1506C167.558 97.4213 167.648 97.7821 167.918 97.8723C168.188 97.9625 168.459 97.8723 168.639 97.6017Z" fill="white"/>
<path opacity="0.62" fill-rule="evenodd" clip-rule="evenodd" d="M205.218 70.088C205.308 69.8174 205.218 69.5468 205.038 69.3663C204.768 69.2761 204.497 69.3663 204.317 69.637C204.137 69.8174 204.227 70.1782 204.497 70.2684C204.768 70.3586 205.038 70.2684 205.218 70.088Z" fill="white"/>
<path opacity="0.62" fill-rule="evenodd" clip-rule="evenodd" d="M266.664 95.9779C266.394 96.0681 266.124 95.8877 266.033 95.6171C265.943 95.3465 266.124 95.0758 266.394 94.9856C266.664 94.8954 266.934 95.0758 267.024 95.3465C267.115 95.6171 266.934 95.8877 266.664 95.9779Z" fill="white"/>
<path opacity="0.62" fill-rule="evenodd" clip-rule="evenodd" d="M217.283 108.939C217.071 109.048 216.755 108.83 216.755 108.611C216.649 108.393 216.86 108.066 217.071 108.066C217.283 108.066 217.599 108.175 217.599 108.393C217.705 108.611 217.494 108.939 217.283 108.939Z" fill="white"/>
<path opacity="0.62" fill-rule="evenodd" clip-rule="evenodd" d="M206.111 65.459C205.899 65.5681 205.583 65.3499 205.583 65.1316C205.477 64.9133 205.688 64.5859 205.899 64.5859C206.111 64.5859 206.427 64.6951 206.427 64.9133C206.533 65.1316 206.322 65.459 206.111 65.459Z" fill="white"/>
<path opacity="0.62" fill-rule="evenodd" clip-rule="evenodd" d="M250.447 137.203C250.176 137.293 249.906 137.113 249.816 136.842C249.726 136.572 249.906 136.301 250.176 136.211C250.447 136.121 250.717 136.301 250.807 136.572C250.897 136.842 250.717 137.113 250.447 137.203Z" fill="white"/>
<path opacity="0.62" fill-rule="evenodd" clip-rule="evenodd" d="M215.219 116.816C214.949 116.906 214.678 116.726 214.588 116.455C214.498 116.185 214.678 115.914 214.949 115.824C215.219 115.734 215.489 115.914 215.579 116.185C215.669 116.455 215.489 116.726 215.219 116.816Z" fill="white"/>
<path opacity="0.62" fill-rule="evenodd" clip-rule="evenodd" d="M260.267 102.293C259.907 102.383 259.456 102.203 259.366 101.752C259.276 101.391 259.456 100.94 259.907 100.85C260.267 100.759 260.718 101.03 260.808 101.391C260.898 101.752 260.718 102.203 260.267 102.293Z" fill="white"/>
<path opacity="0.62" fill-rule="evenodd" clip-rule="evenodd" d="M285.593 173.036C285.683 172.765 285.593 172.494 285.323 172.314C285.052 172.224 284.782 172.314 284.602 172.584C284.512 172.855 284.692 173.216 284.872 173.306C285.142 173.396 285.413 173.306 285.593 173.036Z" fill="white"/>
<path opacity="0.62" fill-rule="evenodd" clip-rule="evenodd" d="M293.716 253.491C293.819 253.286 293.716 252.977 293.511 252.875C293.306 252.772 292.998 252.875 292.896 253.08C292.793 253.286 292.896 253.594 293.101 253.696C293.306 253.799 293.613 253.696 293.716 253.491Z" fill="white"/>
<path opacity="0.62" fill-rule="evenodd" clip-rule="evenodd" d="M272.724 232.021C272.826 231.816 272.724 231.508 272.518 231.405C272.313 231.302 272.006 231.405 271.903 231.61C271.8 231.816 271.903 232.124 272.108 232.227C272.313 232.329 272.621 232.227 272.724 232.021Z" fill="white"/>
<path opacity="0.62" fill-rule="evenodd" clip-rule="evenodd" d="M249.512 238.516C249.619 238.311 249.512 238.003 249.297 237.9C249.083 237.797 248.76 237.9 248.653 238.106C248.653 238.311 248.653 238.619 248.868 238.722C249.082 238.824 249.405 238.722 249.512 238.516Z" fill="white"/>
<path opacity="0.62" fill-rule="evenodd" clip-rule="evenodd" d="M222.9 278.208C223.002 278.003 222.9 277.695 222.695 277.592C222.49 277.489 222.182 277.592 222.079 277.797C221.977 278.003 222.079 278.311 222.285 278.414C222.49 278.516 222.797 278.414 222.9 278.208Z" fill="white"/>
<path opacity="0.62" fill-rule="evenodd" clip-rule="evenodd" d="M246.685 300.67C246.788 300.464 246.685 300.156 246.48 300.054C246.275 299.951 245.968 300.054 245.865 300.259C245.762 300.567 245.865 300.773 246.07 300.875C246.275 300.978 246.583 300.875 246.685 300.67Z" fill="white"/>
<path opacity="0.62" fill-rule="evenodd" clip-rule="evenodd" d="M282.454 331.971C282.557 331.766 282.454 331.458 282.249 331.355C282.044 331.252 281.736 331.355 281.633 331.56C281.531 331.766 281.633 332.074 281.839 332.176C282.044 332.279 282.351 332.176 282.454 331.971Z" fill="white"/>
<path opacity="0.62" fill-rule="evenodd" clip-rule="evenodd" d="M275.156 292.551C275.259 292.346 275.156 292.038 274.951 291.935C274.746 291.832 274.438 291.935 274.336 292.14C274.233 292.346 274.336 292.551 274.541 292.757C274.746 292.859 275.054 292.757 275.156 292.551Z" fill="white"/>
<path opacity="0.62" fill-rule="evenodd" clip-rule="evenodd" d="M248.578 317.087C248.68 316.882 248.578 316.574 248.372 316.471C248.167 316.368 247.86 316.471 247.757 316.676C247.654 316.984 247.757 317.19 247.962 317.292C248.167 317.395 248.475 317.292 248.578 317.087Z" fill="white"/>
<path opacity="0.62" fill-rule="evenodd" clip-rule="evenodd" d="M270.831 286.597C270.934 286.392 270.831 286.084 270.626 285.981C270.421 285.878 270.114 285.981 270.011 286.186C269.908 286.392 270.011 286.7 270.216 286.802C270.421 286.905 270.729 286.802 270.831 286.597Z" fill="white"/>
<path opacity="0.62" fill-rule="evenodd" clip-rule="evenodd" d="M305.609 326.92C305.711 326.715 305.609 326.407 305.404 326.304C305.199 326.202 304.891 326.304 304.788 326.51C304.686 326.818 304.788 327.023 304.994 327.126C305.199 327.228 305.506 327.126 305.609 326.92Z" fill="white"/>
<path opacity="0.62" fill-rule="evenodd" clip-rule="evenodd" d="M306.672 286.236C306.773 286.031 306.672 285.723 306.472 285.62C306.271 285.518 305.971 285.62 305.871 285.826C305.77 286.134 305.77 286.339 306.071 286.442C306.271 286.545 306.572 286.442 306.672 286.236Z" fill="white"/>
<path opacity="0.62" fill-rule="evenodd" clip-rule="evenodd" d="M237.571 267.574C237.661 267.303 237.571 267.033 237.301 266.852C237.031 266.762 236.76 266.852 236.58 267.123C236.49 267.393 236.58 267.754 236.85 267.844C237.121 267.935 237.391 267.844 237.571 267.574Z" fill="white"/>
<path opacity="0.62" fill-rule="evenodd" clip-rule="evenodd" d="M274.06 240.15C274.151 239.88 274.06 239.609 273.88 239.429C273.61 239.338 273.34 239.429 273.159 239.699C272.979 239.88 273.159 240.15 273.34 240.331C273.61 240.421 273.88 240.331 274.06 240.15Z" fill="white"/>
<path opacity="0.62" fill-rule="evenodd" clip-rule="evenodd" d="M335.596 265.95C335.326 266.04 335.056 265.859 334.966 265.589C334.876 265.318 335.056 265.048 335.326 264.957C335.506 264.867 335.867 265.048 335.957 265.318C336.047 265.589 335.867 265.859 335.596 265.95Z" fill="white"/>
<path opacity="0.62" fill-rule="evenodd" clip-rule="evenodd" d="M286.215 278.969C286.004 279.073 285.687 278.864 285.687 278.655C285.582 278.447 285.793 278.133 286.004 278.133C286.215 278.029 286.426 278.133 286.532 278.447C286.638 278.655 286.426 278.969 286.215 278.969Z" fill="white"/>
<path opacity="0.62" fill-rule="evenodd" clip-rule="evenodd" d="M287.386 216.306C287.175 216.415 286.858 216.197 286.858 215.979C286.753 215.76 286.964 215.433 287.175 215.433C287.281 215.433 287.597 215.542 287.703 215.76C287.809 215.979 287.597 216.306 287.386 216.306Z" fill="white"/>
<path opacity="0.62" fill-rule="evenodd" clip-rule="evenodd" d="M262.069 210.69C261.858 210.796 261.541 210.585 261.541 210.373C261.436 210.162 261.647 209.845 261.858 209.845C262.069 209.739 262.28 209.95 262.386 210.162C262.492 210.373 262.28 210.69 262.069 210.69Z" fill="white"/>
<path opacity="0.62" fill-rule="evenodd" clip-rule="evenodd" d="M321.082 218.348C320.871 218.453 320.554 218.244 320.554 218.035C320.449 217.826 320.66 217.513 320.871 217.513C321.082 217.409 321.399 217.513 321.399 217.826C321.505 218.035 321.294 218.348 321.082 218.348Z" fill="white"/>
<path opacity="0.62" fill-rule="evenodd" clip-rule="evenodd" d="M295.045 205.752C294.833 205.861 294.517 205.643 294.517 205.425C294.411 205.207 294.622 204.879 294.833 204.879C295.045 204.879 295.361 204.988 295.361 205.207C295.467 205.425 295.256 205.752 295.045 205.752Z" fill="white"/>
<path opacity="0.62" fill-rule="evenodd" clip-rule="evenodd" d="M275.043 235.488C274.832 235.593 274.515 235.384 274.515 235.175C274.409 234.966 274.621 234.653 274.832 234.653C275.043 234.549 275.254 234.653 275.36 234.966C275.465 235.175 275.254 235.488 275.043 235.488Z" fill="white"/>
<path opacity="0.62" fill-rule="evenodd" clip-rule="evenodd" d="M319.379 307.174C319.109 307.265 318.838 307.084 318.748 306.814C318.658 306.543 318.838 306.272 319.109 306.182C319.379 306.092 319.649 306.272 319.739 306.543C319.829 306.814 319.649 307.084 319.379 307.174Z" fill="white"/>
<path opacity="0.62" fill-rule="evenodd" clip-rule="evenodd" d="M284.151 286.788C283.881 286.879 283.611 286.698 283.521 286.428C283.431 286.157 283.611 285.886 283.881 285.796C284.061 285.706 284.422 285.886 284.512 286.157C284.602 286.428 284.422 286.698 284.151 286.788Z" fill="white"/>
<path opacity="0.62" fill-rule="evenodd" clip-rule="evenodd" d="M271.448 212.637C271.177 212.727 270.907 212.546 270.817 212.276C270.727 212.005 270.907 211.735 271.177 211.644C271.448 211.554 271.718 211.644 271.808 212.005C271.898 212.276 271.718 212.546 271.448 212.637Z" fill="white"/>
<path opacity="0.62" fill-rule="evenodd" clip-rule="evenodd" d="M329.2 272.355C328.839 272.445 328.389 272.264 328.299 271.813C328.209 271.452 328.389 271.001 328.839 270.911C329.2 270.821 329.56 271.001 329.74 271.452C329.83 271.813 329.65 272.264 329.2 272.355Z" fill="white"/>
<path opacity="0.62" fill-rule="evenodd" clip-rule="evenodd" d="M296.681 86.0448C296.784 85.8395 296.681 85.5314 296.476 85.4287C296.271 85.326 295.963 85.4287 295.861 85.6341C295.758 85.8395 295.861 86.0448 296.066 86.2502C296.271 86.3529 296.578 86.2502 296.681 86.0448Z" fill="white"/>
<path opacity="0.62" fill-rule="evenodd" clip-rule="evenodd" d="M275.688 64.5751C275.791 64.3697 275.688 64.0617 275.483 63.959C275.278 63.8563 274.971 63.959 274.868 64.1644C274.765 64.3697 274.868 64.6778 275.073 64.7805C275.278 64.8832 275.586 64.7805 275.688 64.5751Z" fill="white"/>
<path opacity="0.62" fill-rule="evenodd" clip-rule="evenodd" d="M252.516 71.0702C252.616 70.8649 252.516 70.5568 252.316 70.4541C252.115 70.3514 251.814 70.4541 251.714 70.6595C251.614 70.8649 251.614 71.1729 251.915 71.2756C252.115 71.3783 252.416 71.2756 252.516 71.0702Z" fill="white"/>
<path opacity="0.62" fill-rule="evenodd" clip-rule="evenodd" d="M225.865 110.762C225.967 110.556 225.865 110.248 225.66 110.146C225.455 110.043 225.147 110.146 225.044 110.351C224.942 110.556 225.044 110.864 225.25 110.967C225.455 111.07 225.762 110.967 225.865 110.762Z" fill="white"/>
<path opacity="0.62" fill-rule="evenodd" clip-rule="evenodd" d="M249.65 133.224C249.753 133.018 249.65 132.71 249.445 132.608C249.24 132.505 248.932 132.608 248.83 132.813C248.727 133.121 248.83 133.326 249.035 133.429C249.24 133.532 249.548 133.429 249.65 133.224Z" fill="white"/>
<path opacity="0.62" fill-rule="evenodd" clip-rule="evenodd" d="M285.419 164.526C285.522 164.321 285.419 164.013 285.214 163.91C285.009 163.807 284.701 163.91 284.598 164.115C284.496 164.321 284.598 164.629 284.804 164.731C285.009 164.834 285.316 164.731 285.419 164.526Z" fill="white"/>
<path opacity="0.62" fill-rule="evenodd" clip-rule="evenodd" d="M278.121 125.105C278.224 124.9 278.121 124.592 277.916 124.489C277.711 124.386 277.403 124.489 277.301 124.694C277.198 124.9 277.301 125.105 277.506 125.311C277.711 125.413 278.019 125.311 278.121 125.105Z" fill="white"/>
<path opacity="0.62" fill-rule="evenodd" clip-rule="evenodd" d="M251.542 149.642C251.645 149.436 251.542 149.128 251.337 149.026C251.132 148.923 250.825 149.026 250.722 149.231C250.619 149.539 250.722 149.744 250.927 149.847C251.132 149.95 251.44 149.847 251.542 149.642Z" fill="white"/>
<path opacity="0.62" fill-rule="evenodd" clip-rule="evenodd" d="M273.796 119.151C273.899 118.946 273.796 118.638 273.591 118.535C273.386 118.432 273.078 118.535 272.976 118.74C272.873 118.946 272.976 119.254 273.181 119.356C273.386 119.459 273.694 119.356 273.796 119.151Z" fill="white"/>
<path opacity="0.62" fill-rule="evenodd" clip-rule="evenodd" d="M308.574 159.474C308.676 159.269 308.574 158.961 308.369 158.858C308.163 158.755 307.856 158.858 307.753 159.064C307.651 159.372 307.753 159.577 307.958 159.68C308.164 159.782 308.471 159.68 308.574 159.474Z" fill="white"/>
<path opacity="0.62" fill-rule="evenodd" clip-rule="evenodd" d="M309.655 118.79C309.757 118.585 309.655 118.277 309.45 118.174C309.245 118.071 308.937 118.174 308.834 118.379C308.732 118.585 308.834 118.893 309.04 118.996C309.245 119.098 309.552 118.996 309.655 118.79Z" fill="white"/>
<path opacity="0.62" fill-rule="evenodd" clip-rule="evenodd" d="M240.536 100.128C240.626 99.8569 240.536 99.5863 240.266 99.4059C239.995 99.3157 239.725 99.4059 239.545 99.6765C239.455 99.9471 239.545 100.308 239.815 100.398C240.086 100.488 240.356 100.398 240.536 100.128Z" fill="white"/>
<path opacity="0.62" fill-rule="evenodd" clip-rule="evenodd" d="M277.025 72.6139C277.116 72.3433 277.025 72.0726 276.845 71.8922C276.575 71.802 276.305 71.8922 276.124 72.1628C275.944 72.4335 276.124 72.7041 276.305 72.7943C276.575 72.8845 276.845 72.7943 277.025 72.6139Z" fill="white"/>
<path opacity="0.62" fill-rule="evenodd" clip-rule="evenodd" d="M338.562 98.5038C338.291 98.594 338.021 98.4136 337.931 98.143C337.841 97.8723 338.021 97.6017 338.291 97.5115C338.472 97.4213 338.832 97.6017 338.922 97.8723C339.012 98.143 338.832 98.4136 338.562 98.5038Z" fill="white"/>
<path opacity="0.62" fill-rule="evenodd" clip-rule="evenodd" d="M289.18 111.523C288.969 111.627 288.652 111.418 288.652 111.209C288.547 111.001 288.758 110.687 288.969 110.687C289.18 110.583 289.391 110.687 289.497 111.001C289.603 111.209 289.391 111.523 289.18 111.523Z" fill="white"/>
<path opacity="0.62" fill-rule="evenodd" clip-rule="evenodd" d="M278.008 67.9844C277.797 68.0935 277.48 67.8753 277.48 67.657C277.374 67.4387 277.586 67.1113 277.797 67.1113C278.008 67.1113 278.219 67.2205 278.325 67.4387C278.43 67.657 278.219 67.9844 278.008 67.9844Z" fill="white"/>
<path opacity="0.62" fill-rule="evenodd" clip-rule="evenodd" d="M322.344 139.729C322.074 139.819 321.804 139.639 321.714 139.368C321.624 139.098 321.804 138.827 322.074 138.737C322.344 138.647 322.615 138.827 322.705 139.098C322.795 139.368 322.615 139.639 322.344 139.729Z" fill="white"/>
<path opacity="0.62" fill-rule="evenodd" clip-rule="evenodd" d="M287.116 119.342C286.846 119.432 286.576 119.252 286.486 118.981C286.395 118.71 286.576 118.44 286.846 118.35C287.026 118.259 287.387 118.44 287.477 118.71C287.567 118.981 287.387 119.252 287.116 119.342Z" fill="white"/>
<path opacity="0.62" fill-rule="evenodd" clip-rule="evenodd" d="M332.165 104.819C331.804 104.909 331.354 104.728 331.264 104.277C331.174 103.916 331.354 103.465 331.804 103.375C332.165 103.375 332.615 103.556 332.705 103.916C332.795 104.277 332.615 104.728 332.165 104.819Z" fill="white"/>
<path fill-rule="evenodd" clip-rule="evenodd" d="M229.815 283.469C232.919 284.506 235.833 286.144 238.261 288.488C241.296 291.419 243.348 295.165 244.404 298.929C253.107 295.18 263.49 296.777 270.672 303.713C279.169 311.919 280.275 324.944 274.054 334.423C276.456 335.175 278.767 336.426 280.689 338.282C286.859 344.241 287.019 354.197 281.044 360.384C280.261 361.196 279.376 361.909 278.39 362.526C278.595 362.92 278.602 363.318 278.709 363.814C284.582 363.604 290.691 365.78 295.243 370.176C298.48 373.302 300.532 377.047 301.494 381.112C308.522 378.49 316.813 380.027 322.579 385.595C330.57 393.313 330.873 405.955 323.236 414.066C325.746 415.313 328.059 416.764 330.184 418.815C333.724 422.234 335.982 426.375 337.048 430.736C347.053 427.461 358.441 429.637 366.534 437.452C375.132 445.755 377.521 458.059 373.705 468.488C375.643 471.34 376.592 474.609 376.943 477.888C382.528 478.381 388.044 480.767 392.393 484.967C398.564 490.926 401.091 499.443 399.724 507.337C409.344 504.865 420.04 507.353 427.728 514.777C434.607 521.42 437.643 530.624 436.592 539.607C442.073 539.803 447.585 541.99 451.935 546.19C458.308 552.344 460.44 561.068 458.378 569.074C465.226 567.651 472.426 569.507 477.787 574.684C486.386 582.988 486.506 596.629 478.278 605.15L447.814 636.696L218.794 415.534L202.912 400.197L48.3442 250.933L50.0094 249.208C39.441 236.062 40.0279 216.83 52.0763 204.354C60.6962 195.427 72.9931 192.208 84.2893 194.884C85.354 192.971 86.621 191.254 88.1883 189.631C97.5919 179.894 113.123 179.601 122.834 188.979C127.79 193.766 130.285 200.292 130.29 206.765C140.09 203.095 151.576 205.169 159.567 212.887C162.298 215.524 164.439 218.571 165.786 221.832C174.258 216.096 185.721 216.776 193.308 224.103C200.895 231.429 201.975 242.862 196.635 251.428C201.326 252.036 205.839 254.043 209.38 257.462C211.302 259.318 212.829 261.381 213.961 263.65C218.767 259.078 226.336 259.135 231.192 263.823C236.25 268.708 236.381 276.872 231.483 281.943C230.994 282.451 230.504 282.958 229.815 283.469Z" fill="white" fill-opacity="0.8"/>
<path d="M284.997 119.905C287.585 116.803 287.355 112.4 284.481 110.071C281.608 107.743 277.181 108.371 274.592 111.473L131.453 255.381C128.864 258.484 144.369 272.25 147.242 274.579C150.115 276.907 167.544 286.085 170.132 282.982L284.997 119.905Z" fill="url(#paint2_linear)"/>
<path d="M279.627 239.748C281.786 237.114 281.401 233.227 278.767 231.068C276.132 228.908 272.246 229.293 270.086 231.928C270.086 231.928 207.455 293.303 205.295 295.938C203.136 298.572 219.685 297.769 222.319 299.929C224.954 302.089 229.792 322.114 231.952 319.479L279.627 239.748Z" fill="white"/>
<path fill-rule="evenodd" clip-rule="evenodd" d="M229.306 280.06C228.818 280.565 228.432 281.167 228.046 281.77C227.202 279.199 225.765 276.836 223.642 274.981C221.013 272.637 217.811 271.495 214.424 271.151C217.94 262.647 216.671 253.423 210.506 248.054C203.226 241.609 191.616 242.688 183.007 249.981C182.471 247.902 181.342 246.032 179.624 244.568C174.366 239.88 165.347 241.316 159.704 247.767C158.925 248.574 158.246 249.48 157.669 250.483C157.271 250.489 156.971 250.395 156.574 250.401C156.869 245.029 154.982 239.89 151.138 236.373C148.407 233.931 145.103 232.691 141.421 232.451C143.876 225.653 142.742 218.316 137.889 214.019C131.115 208.063 119.716 209.735 112.318 218.004C111.384 215.931 109.955 213.966 108.136 212.404C105.203 209.767 101.498 208.335 97.5155 208.001C100.713 198.407 98.8323 188.398 91.9575 182.344C84.6777 175.9 73.7389 175.676 64.0948 180.799C61.5858 179.546 58.6945 179.095 55.6196 179.442C55.3263 174.477 53.3492 169.837 49.5087 166.518C44.2505 161.83 36.6791 160.957 29.5695 163.455C31.9793 154.272 29.9153 145.061 23.3443 139.301C17.4784 134.026 9.20575 132.865 1.19994 135.279C1.10537 130.31 -0.770381 125.768 -4.41218 122.446C-9.77172 117.66 -17.733 117.19 -24.9287 120.386C-23.4598 114.001 -24.9721 107.664 -29.5215 103.66C-36.8013 97.2157 -49.0897 99.2 -56.9707 108.172L-85.8702 140.935L108.861 313.184L122.408 325.095L253.951 441.59L255.507 439.776C267.081 447.246 284.409 443.691 295.893 430.785C304.066 421.511 307.125 409.832 305.049 400.025C306.815 398.804 308.476 397.287 309.935 395.574C318.888 385.492 319.414 371.369 311.126 364.145C306.88 360.435 301.09 359.135 295.345 360.22C298.842 350.722 297.161 340.709 290.286 334.656C287.961 332.605 285.249 331.157 282.354 330.508C287.659 321.974 287.263 311.643 280.693 305.883C274.223 300.221 263.899 300.981 256.164 307.167C255.788 303.098 254.025 299.249 250.991 296.514C249.375 295.148 247.466 294.085 245.564 293.419C249.535 287.889 249.702 281.028 245.558 277.416C241.211 273.609 233.977 274.817 229.306 280.06Z" fill="#EBE8F7"/>
<path d="M158.832 192.735C161.016 190.191 160.698 186.633 158.122 184.787C155.546 182.941 151.687 183.507 149.503 186.051L109.428 227.301C107.244 229.845 117.906 226.781 120.482 228.627C123.058 230.473 125.984 239.02 128.168 236.476L158.832 192.735Z" fill="white"/>
<path fill-rule="evenodd" clip-rule="evenodd" d="M166.528 172.709L164.65 193.319L147.739 181.388L166.528 172.709Z" fill="white"/>
<path fill-rule="evenodd" clip-rule="evenodd" d="M332.075 370.777C331.588 371.282 331.202 371.884 330.816 372.487C329.971 369.916 328.535 367.553 326.412 365.698C323.783 363.355 320.58 362.213 317.194 361.869C320.71 353.364 319.441 344.14 313.275 338.771C305.995 332.326 294.385 333.405 285.777 340.699C285.24 338.62 284.111 336.749 282.393 335.285C277.135 330.598 268.117 332.033 262.474 338.484C261.694 339.292 261.015 340.197 260.438 341.2C260.041 341.207 259.741 341.112 259.343 341.118C259.638 335.746 257.751 330.607 253.907 327.09C251.177 324.648 247.873 323.408 244.19 323.169C246.645 316.371 245.512 309.033 240.658 304.737C233.885 298.781 222.485 300.453 215.088 308.721C214.154 306.648 212.725 304.683 210.906 303.122C207.973 300.484 204.268 299.052 200.285 298.718C203.482 289.125 201.602 279.115 194.727 273.062C187.447 266.617 176.508 266.393 166.864 271.516C164.355 270.264 161.464 269.813 158.389 270.16C158.096 265.194 156.119 260.554 152.278 257.235C147.02 252.548 139.449 251.674 132.339 254.172C134.749 244.989 132.685 235.778 126.114 230.018C120.248 224.743 111.975 223.583 103.969 225.996C103.875 221.027 101.999 216.485 98.3574 213.163C92.9978 208.378 85.0365 207.908 77.8408 211.103C79.3097 204.718 77.7975 198.381 73.248 194.378C65.9682 187.933 53.6798 189.917 45.7988 198.889L16.8993 231.652L211.631 403.901L225.178 415.812L356.721 532.307L358.277 530.493C369.85 537.963 387.178 534.408 398.663 521.502C406.836 512.228 409.894 500.55 407.819 490.742C409.585 489.521 411.246 488.004 412.704 486.291C421.658 476.209 422.184 462.086 413.895 454.862C409.65 451.152 403.859 449.853 398.115 450.938C401.612 441.439 399.93 431.427 393.055 425.373C390.73 423.323 388.019 421.875 385.124 421.225C390.428 412.692 390.033 402.36 383.462 396.6C376.992 390.938 366.669 391.698 358.934 397.884C358.558 393.815 356.795 389.966 353.761 387.231C352.144 385.865 350.235 384.802 348.334 384.137C352.405 378.705 352.573 371.843 348.327 368.134C343.981 364.326 336.747 365.534 332.075 370.777Z" fill="white"/>
<path fill-rule="evenodd" clip-rule="evenodd" d="M289.028 215.148L287.198 243.668L263.414 227.823L289.028 215.148Z" fill="white"/>
</g>
<path fill-rule="evenodd" clip-rule="evenodd" d="M284.434 121.453C284.468 121.47 294.839 103.51 291.856 104.865C290.265 105.619 285.936 111.951 284.434 121.453Z" fill="#FFF4DC"/>
<path fill-rule="evenodd" clip-rule="evenodd" d="M293.083 102.735C293.05 102.718 290.801 98.8526 291.703 98.6354C292.522 98.4183 292.895 99.9621 293.083 102.735Z" fill="#FFF4DC"/>
<path fill-rule="evenodd" clip-rule="evenodd" d="M334.497 94.1058L334.781 95.2346C337.011 95.2978 340 95.775 340.7 95.4585C340.934 95.4083 341.893 93.1983 341.372 93.1492C339.744 92.9689 336.221 93.9206 334.497 94.1058Z" fill="#FFC197"/>
<path fill-rule="evenodd" clip-rule="evenodd" d="M340.137 93.5329L340.857 93.4322C340.857 93.4322 342.611 82.0046 336.24 74.425L333.805 74.0964C333.805 74.0964 340.042 81.6098 340.137 93.5329Z" fill="#F4C85B"/>
<path fill-rule="evenodd" clip-rule="evenodd" d="M338.436 92.9046L338.503 96.6077L335.834 97.5249L336.198 93.4559L338.436 92.9046Z" fill="#E5DCC1"/>
<path fill-rule="evenodd" clip-rule="evenodd" d="M250.913 166.415C253.492 165.082 260.53 157.566 258.243 155.826C255.788 154.003 250.541 163.758 250.913 166.415Z" fill="#728387"/>
<path fill-rule="evenodd" clip-rule="evenodd" d="M239.913 159.904C242.117 159.253 250.093 151.785 247.809 150.211C245.119 148.355 239.398 156.517 239.913 159.904Z" fill="#728387"/>
<path fill-rule="evenodd" clip-rule="evenodd" d="M251.02 147.251L252.344 148.478L248.028 151.556C248.028 151.556 246.409 152.04 246.822 150.346L251.02 147.251Z" fill="#ACBABC"/>
<path fill-rule="evenodd" clip-rule="evenodd" d="M261.774 152.981L263.098 154.208L258.782 157.287C258.765 157.237 257.163 157.771 257.592 156.043L261.774 152.981Z" fill="#ACBABC"/>
<path fill-rule="evenodd" clip-rule="evenodd" d="M283.48 95.3439C276.379 99.4062 267.398 111.907 263.718 123.504C263.718 123.504 284.6 113.543 290.146 101.213C291.513 98.1718 286.34 93.6957 283.48 95.3439Z" fill="#FFF4DC"/>
<path fill-rule="evenodd" clip-rule="evenodd" d="M289.235 101.96C287.754 105.234 285.353 108.592 282.204 111.171C285.735 108.326 288.872 104.834 290.548 101.161C291.914 98.1205 286.452 93.2962 283.591 94.9444C282.078 95.8101 280.421 97.224 278.919 98.9201C280.162 97.8388 281.322 96.9238 282.486 96.2579C285.347 94.6097 290.601 98.9196 289.235 101.96Z" fill="#FFEBC2"/>
<path fill-rule="evenodd" clip-rule="evenodd" d="M287.904 101.432C286.593 104.871 283.113 107.782 279.789 109.863C283.331 107.765 287.245 104.737 288.568 101.016C289.214 99.1879 285.449 95.9387 283.717 96.7383C280.952 98.021 278.015 101.446 275.843 105.617C277.987 101.845 280.793 98.6855 283.34 97.4197C285.039 96.6035 288.583 99.6206 287.904 101.432Z" fill="#FFEBC2"/>
<path fill-rule="evenodd" clip-rule="evenodd" d="M284.658 95.6732C280.03 98.0215 274.591 105.951 272.683 113.509C272.667 113.542 286.366 107.893 289.509 99.9505C290.27 97.9733 286.505 94.724 284.658 95.6732Z" fill="#FFCA6C"/>
<path fill-rule="evenodd" clip-rule="evenodd" d="M286.219 95.9039C284.628 95.9893 281.764 101.058 280.622 104.58C283.255 103.481 289.164 100.483 289.238 98.5399C289.263 97.8922 286.856 95.8864 286.219 95.9039Z" fill="#FFA65C"/>
<path fill-rule="evenodd" clip-rule="evenodd" d="M300.354 76.736C296.291 81.0927 287.274 93.411 287.274 93.411L292.059 97.6552C292.059 97.6552 303.077 88.3396 307.768 83.3011C312.443 78.2958 304.418 72.3792 300.354 76.736Z" fill="#B7AC92"/>
<path fill-rule="evenodd" clip-rule="evenodd" d="M287.57 92.9788C288.277 93.1604 288.952 93.4916 289.611 93.9389C290.982 94.9001 291.888 96.2107 292.158 97.5387C293.384 96.4908 303.358 88.0237 307.718 83.3177C312.409 78.2792 304.418 72.3792 300.354 76.7359C296.737 80.6104 289.167 90.8343 287.57 92.9788Z" fill="#96886E"/>
<path fill-rule="evenodd" clip-rule="evenodd" d="M311.138 66.1912C304.73 73.1087 290.21 92.3765 290.21 92.3765L296.894 98.295C296.894 98.295 314.121 83.3243 321.504 75.3592C328.887 67.3941 317.547 59.2737 311.138 66.1912Z" fill="#EAA04E"/>
<path fill-rule="evenodd" clip-rule="evenodd" d="M307.712 63.1905C301.303 70.108 286.784 89.3757 286.784 89.3757L293.468 95.2943C293.502 95.3109 310.728 80.3402 318.077 72.3585C325.46 64.3934 314.12 56.273 307.712 63.1905Z" fill="#F4C85B"/>
<path fill-rule="evenodd" clip-rule="evenodd" d="M305.538 66.0009C305.215 65.7191 304.713 65.7198 304.382 66.0524C304.184 66.2852 304.087 66.5676 304.091 66.8167C304.112 67.1156 304.232 67.3811 304.47 67.58L318.194 79.7156L319.499 78.3354L305.538 66.0009Z" fill="#F4E5C9"/>
<path fill-rule="evenodd" clip-rule="evenodd" d="M297.195 76.0927C296.821 75.7445 296.252 75.7952 295.921 76.1278C295.74 76.3273 295.659 76.5765 295.663 76.8256C295.666 77.0747 295.787 77.3402 295.991 77.5226L308.816 88.8458L310.105 87.4988L297.195 76.0927Z" fill="#F4E5C9"/>
<path fill-rule="evenodd" clip-rule="evenodd" d="M292.221 88.7046L290.625 89.6535L298.908 97.2635L300.18 95.8668L292.221 88.7046Z" fill="#E2C9A1"/>
<path fill-rule="evenodd" clip-rule="evenodd" d="M289.56 86.4497C289.237 86.1679 288.734 86.1686 288.438 86.5178C288.24 86.7506 288.143 87.033 288.164 87.3319C288.185 87.6308 288.306 87.8963 288.543 88.0952L294.886 93.5992L296.158 92.2024L289.56 86.4497Z" fill="#F4E5C9"/>
<path fill-rule="evenodd" clip-rule="evenodd" d="M304.253 84.8334L308.816 88.8454L310.088 87.4486L305.61 83.5195C305.197 84.0183 304.734 84.4507 304.253 84.8334Z" fill="#E2C9A1"/>
<path fill-rule="evenodd" clip-rule="evenodd" d="M325.269 49.1663C322.505 56.5933 326.782 64.176 333.53 66.2087C353.152 72.0419 358.029 45.0333 342.182 40.7223C335.352 38.8558 328.052 41.7891 325.269 49.1663Z" fill="#FF7C53"/>
<path fill-rule="evenodd" clip-rule="evenodd" d="M343.923 66.3601C340.4 67.3118 342.33 49.1253 342.33 49.1253L349.846 50.8746C351.452 59.2915 348.265 65.1913 343.923 66.3601Z" fill="#F75525"/>
<path fill-rule="evenodd" clip-rule="evenodd" d="M343.522 66.4099C339.998 67.3616 341.929 49.1751 341.929 49.1751L348.42 50.793C350.027 59.2099 347.897 65.2577 343.522 66.4099Z" fill="#E24717"/>
<path fill-rule="evenodd" clip-rule="evenodd" d="M333.09 60.9617L338.629 65.2877L336.22 75.4044L329.376 70.0672L333.09 60.9617Z" fill="#FFC197"/>
<path fill-rule="evenodd" clip-rule="evenodd" d="M337.483 73.4269C336.508 74.3915 332.572 70.8934 329.378 67.7595L328.812 69.2549L334.415 77.035L336.772 77.7788L337.483 73.4269Z" fill="#E5DCC1"/>
<path fill-rule="evenodd" clip-rule="evenodd" d="M337.621 98.3191L337.105 92.3749C337.105 92.3749 324.649 92.1607 318.781 95.6731C316.969 96.805 316.141 97.5535 316.297 99.1142C316.687 103.182 337.621 98.3191 337.621 98.3191Z" fill="#66545A"/>
<path fill-rule="evenodd" clip-rule="evenodd" d="M281.895 133.988C292.389 123.095 301.24 109.665 302.285 108.899C304.293 107.452 317.1 105.158 317.1 105.158L311.364 114.632C311.364 114.632 299.621 127.386 286.652 138.631C275.637 148.195 262.614 155.538 260.332 156.604C259.575 156.356 258.091 155.71 258.459 154.448C261.014 151.289 272.293 143.916 281.895 133.988Z" fill="#494042"/>
<path fill-rule="evenodd" clip-rule="evenodd" d="M302.659 110.526C304.219 109.395 312.493 107.722 315.953 107.069L317.1 105.158C317.1 105.158 304.277 107.485 302.285 108.899C301.24 109.665 292.406 123.062 281.895 133.988C272.293 143.916 261.014 151.289 258.459 154.448C258.283 155.062 258.541 155.56 258.965 155.892C261.77 152.649 272.833 145.376 282.27 135.615C292.764 124.722 301.614 111.292 302.659 110.526Z" fill="#3D3235"/>
<path fill-rule="evenodd" clip-rule="evenodd" d="M272.408 127.724C282.484 118.194 291.099 107.122 293.556 105.441C295.582 104.043 311.79 106.594 311.79 106.594C303.796 112.733 289.913 123.365 276.854 132.999C263.397 142.932 250.5 150.872 249.835 151.288C248.544 151.274 247.307 150.296 247.359 149.166C249.718 146.406 261.768 137.803 272.408 127.724Z" fill="#494042"/>
<path fill-rule="evenodd" clip-rule="evenodd" d="M294.401 107.133C295.912 106.101 305.464 107.283 310.099 107.907C310.696 107.458 311.243 107.026 311.774 106.626C311.774 106.626 295.566 104.076 293.54 105.474C291.083 107.155 282.434 118.21 272.391 127.757C261.752 137.836 249.702 146.439 247.343 149.199C247.318 149.847 247.678 150.394 248.236 150.792C250.711 147.965 262.695 139.412 273.252 129.416C283.329 119.886 291.943 108.814 294.401 107.133Z" fill="#3D3235"/>
<path fill-rule="evenodd" clip-rule="evenodd" d="M313.561 111.091C328.137 93.5006 340.547 86.7237 337.794 79.0225C333.403 66.7239 324.175 67.2688 318.131 72.5916C313.544 76.6502 304.334 96.9563 293.428 105.873C291.488 107.437 310.461 114.849 313.561 111.091Z" fill="#E5DCC1"/>
<path fill-rule="evenodd" clip-rule="evenodd" d="M309.871 107.177L314.842 104.214L312.388 108.618L309.683 109.353L309.871 107.177Z" fill="#563E35"/>
<path opacity="0.4" fill-rule="evenodd" clip-rule="evenodd" d="M305.811 120.402C309.233 116.926 311.33 114.615 311.33 114.615L313.329 111.307C313.412 111.224 313.495 111.141 313.577 111.058C315.111 109.212 316.629 107.483 318.099 105.853L315.043 101.756L299.363 99.8363C297.714 101.831 295.963 103.694 294.207 105.224C293.923 105.291 293.723 105.358 293.556 105.441C292.477 106.19 290.15 108.8 287.013 112.292C290.546 114.479 298.791 115.679 310.124 108.539C310.124 108.539 305.42 117.53 305.811 120.402Z" fill="#AF5652"/>
<path fill-rule="evenodd" clip-rule="evenodd" d="M315.933 104.378C324.101 98.654 336.273 79.3067 331.775 71.4918C329.526 67.5429 321.201 64.2006 316.282 68.5088C310.948 73.1497 313.521 77.4635 305.347 88.8341C296.63 101.052 286.42 109.404 287.278 110.814C291.033 117.069 308.413 109.637 315.933 104.378Z" fill="#726065"/>
<path fill-rule="evenodd" clip-rule="evenodd" d="M316.282 68.5091C310.948 73.15 313.521 77.4638 305.346 88.8343C296.597 101.036 286.436 109.371 287.227 110.831C287.743 111.743 288.64 112.39 289.768 112.82C291.463 110.476 304.455 102.087 313.996 92.6244C322.793 83.91 326.045 69.1756 316.282 68.5091Z" fill="#634E55"/>
<path fill-rule="evenodd" clip-rule="evenodd" d="M340.65 95.4744L339.789 95.0107C339.789 95.0107 319.245 98.9931 319.265 99.2089C319.267 99.375 318.343 101.685 318.343 101.685L340.65 95.4744Z" fill="#E5B548"/>
<path fill-rule="evenodd" clip-rule="evenodd" d="M317.529 99.7603C322.168 94.5724 339.195 82.2257 336.843 76.8654C336.843 76.8654 341.261 80.0639 335.946 87.3119C326.896 99.6137 306.695 120.135 306.695 120.135C307.188 116.913 311.636 106.395 317.529 99.7603Z" fill="#726065"/>
<path fill-rule="evenodd" clip-rule="evenodd" d="M318.853 80.0793L318.366 78.7681L324.592 74.4414C324.592 74.4414 323.053 78.3461 318.853 80.0793Z" fill="#634E55"/>
<path fill-rule="evenodd" clip-rule="evenodd" d="M324.051 66.7539C326.902 68.1114 328.734 72.144 321.863 77.1027C316.817 80.7302 307.906 82.3374 304.365 86.9093C302.488 89.3697 295.189 85.0462 298.511 81.6869C304.662 75.5503 319.175 64.403 324.051 66.7539Z" fill="#726065"/>
<path fill-rule="evenodd" clip-rule="evenodd" d="M322.788 89.639L323.528 89.8372C323.528 89.8372 329.575 76.0619 325.614 67.0672L323.58 66.6052C323.58 66.6052 327.36 74.6038 322.788 89.639Z" fill="#634E55"/>
<path fill-rule="evenodd" clip-rule="evenodd" d="M327.212 67.4803C327.212 67.4803 330.473 68.173 331.927 71.6083C335.807 80.7692 326.504 91.7926 326.504 91.7926C329.138 87.0228 333.001 74.1142 327.212 67.4803Z" fill="#A5848E"/>
<path fill-rule="evenodd" clip-rule="evenodd" d="M336.805 76.5165C337.292 81.4977 326.488 91.8259 326.488 91.8259C335.548 85.1369 339.809 80.5474 336.969 76.2672L336.805 76.5165Z" fill="#A5848E"/>
<path fill-rule="evenodd" clip-rule="evenodd" d="M326.632 90.0814C326.547 88.7198 324.432 88.507 323.532 88.8903C322.632 89.2735 325.239 89.934 325.239 89.934C325.451 89.5019 326.655 90.5463 326.632 90.0814Z" fill="#FFDEB3"/>
<path fill-rule="evenodd" clip-rule="evenodd" d="M325.453 89.6679L326.193 89.8661C326.193 89.8661 330.783 76.1593 326.336 67.1321L324.335 66.6867C324.335 66.6867 328.534 74.6847 325.453 89.6679Z" fill="#F4C85B"/>
<path fill-rule="evenodd" clip-rule="evenodd" d="M324.816 92.077L324.353 91.3138C324.353 91.3138 303.236 90.1491 303.188 90.3319C303.174 90.5311 301.744 92.5924 301.744 92.5924L324.816 92.077Z" fill="#E5B548"/>
<path fill-rule="evenodd" clip-rule="evenodd" d="M319.81 87.6012L319.507 88.7309C321.433 89.8407 323.806 91.8299 324.562 91.9118C324.797 91.9447 326.77 90.3975 326.297 90.0826C324.96 89.138 321.378 88.2466 319.81 87.6012Z" fill="#FFDEB3"/>
<path fill-rule="evenodd" clip-rule="evenodd" d="M322.88 87.7458L320.995 90.9037L318.575 90.3759L321.061 87.1008L322.88 87.7458Z" fill="#E5DCC1"/>
<path fill-rule="evenodd" clip-rule="evenodd" d="M318.429 91.9531L322.252 85.9527C322.252 85.9527 308.064 80.3939 300.784 81.1518C298.709 81.3707 297.002 82.8013 296.567 84.1138C295.472 87.3702 318.429 91.9531 318.429 91.9531Z" fill="#726065"/>
<path fill-rule="evenodd" clip-rule="evenodd" d="M298.764 81.7702C297.683 82.353 296.873 83.2343 296.583 84.0817C295.488 87.3381 318.445 91.921 318.445 91.921L318.838 91.2894C315.696 90.6961 296.366 86.5729 297.381 83.5657C297.607 82.9344 298.084 82.3026 298.764 81.7702Z" fill="#634E55"/>
<path fill-rule="evenodd" clip-rule="evenodd" d="M319.279 67.0937C312.74 69.3285 302.872 76.9818 298.176 81.6882C296.87 82.9853 297.022 84.297 297.807 85.342C297.629 84.595 297.836 83.7478 298.629 82.8998C303.186 77.878 312.893 69.5276 319.279 67.0937Z" fill="#634E55"/>
<path fill-rule="evenodd" clip-rule="evenodd" d="M328.01 73.1921C327.747 71.0835 327.216 69.0085 326.285 67.15L324.319 66.7211C324.335 66.6879 325.557 69.0608 326.19 73.6597C326.807 73.4264 327.391 73.2594 328.01 73.1921Z" fill="#E5B548"/>
<path fill-rule="evenodd" clip-rule="evenodd" d="M313.523 81.3L308.523 82.1044L313.245 82.9776L311.458 82.2662L313.523 81.3Z" fill="#59424B"/>
<path fill-rule="evenodd" clip-rule="evenodd" d="M300.622 118.434C300.622 118.434 298.497 119.948 296.254 118.889C294.836 118.193 295.269 116.715 295.269 116.715C296.547 118.29 299.101 118.718 300.622 118.434Z" fill="#3D3235"/>
<path fill-rule="evenodd" clip-rule="evenodd" d="M340.419 93.2997C341 92.8837 340.963 93.8137 341.194 93.5975C341.609 93.2648 341.347 92.5179 340.607 92.3197C340.086 92.1876 339.477 93.0022 338.76 93.269C338.41 93.4687 338.799 94.8963 339.564 94.5298C339.897 94.3633 340.087 93.5493 340.419 93.2997Z" fill="#FFDEB3"/>
<path fill-rule="evenodd" clip-rule="evenodd" d="M342.05 93.646C342.211 93.1476 341.775 93.1814 341.071 93.1659C339.982 93.1675 340.309 93.7814 340.996 93.8302C341.684 93.879 341.953 93.9285 342.05 93.646Z" fill="#FFDEB3"/>
<path fill-rule="evenodd" clip-rule="evenodd" d="M341.825 94.3606C341.987 93.9453 341.82 94.0285 341.165 93.9133C340.141 93.7819 340.235 94.529 340.889 94.5613C341.527 94.6268 341.694 94.6265 341.825 94.3606Z" fill="#FFDEB3"/>
<path fill-rule="evenodd" clip-rule="evenodd" d="M341.432 95.0757C341.593 94.5772 341.209 94.6774 340.856 94.6281C339.848 94.4635 339.524 95.2943 340.279 95.2932C341.05 95.3419 341.335 95.3581 341.432 95.0757Z" fill="#FFDEB3"/>
<path fill-rule="evenodd" clip-rule="evenodd" d="M340.361 47.251C338.041 44.2985 337.754 40.4463 341.785 41.1046C335.024 39.3543 327.841 42.3041 325.125 49.6313C322.36 57.0583 326.662 63.9933 333.46 66.0093C338.206 67.4305 342.045 67.5411 344.989 65.8928C344.536 65.7938 344.115 65.7114 343.678 65.5792C336.913 63.5798 345.034 53.1725 340.361 47.251Z" fill="#F75525"/>
<path fill-rule="evenodd" clip-rule="evenodd" d="M339.877 70.7664C339.877 70.7664 334.683 70.9401 331.315 63.5553L332.359 62.7068C332.359 62.7068 334.668 68.582 339.877 70.7664Z" fill="#E24717"/>
<path fill-rule="evenodd" clip-rule="evenodd" d="M333.613 66.1254C335.409 68.7797 340.083 71.1143 342.878 72.0734C342.878 72.0734 347.208 63.847 347.711 56.5064C351.169 49.5434 344.151 44.987 339.708 46.1061C335.316 47.2085 333.8 47.9082 334.056 53.1886C334.264 57.373 331.817 63.471 333.613 66.1254Z" fill="#FFDEB3"/>
<path opacity="0.4" fill-rule="evenodd" clip-rule="evenodd" d="M348.562 53.8317C348.795 52.4198 348.566 51.6065 348.252 50.7102L339.011 49.0631L338.202 52.4187L348.562 53.8317Z" fill="#C95D5D"/>
<path fill-rule="evenodd" clip-rule="evenodd" d="M339.007 45.0612L337.579 48.5672L349.195 51.0909L348.005 46.1773L339.007 45.0612Z" fill="#FF7C53"/>
<path fill-rule="evenodd" clip-rule="evenodd" d="M336.063 43.0391C329.233 41.1726 324.99 47.0905 324.166 53.0367C323.435 58.4514 328.215 64.8377 331.473 65.2813C333.641 65.7265 337.884 61.0042 338.976 55.1074C340.897 44.7922 338.872 43.7988 336.063 43.0391Z" fill="#F75525"/>
<path fill-rule="evenodd" clip-rule="evenodd" d="M339.674 47.2856C339.693 48.697 339.484 50.5738 339.032 53.0322C337.939 58.929 332.959 64.8978 330.739 64.3863C329.514 64.2386 328.076 63.2444 326.782 61.7849C328.233 63.6925 329.961 65.0351 331.421 65.2156C333.64 65.7271 337.883 61.0048 338.976 55.108C339.664 51.4869 339.848 48.9791 339.674 47.2856Z" fill="#E24717"/>
<path fill-rule="evenodd" clip-rule="evenodd" d="M354.178 52.711L350.648 49.4945L338.036 47.6365L337.638 49.1316L354.178 52.711Z" fill="#FFC2AF"/>
<path fill-rule="evenodd" clip-rule="evenodd" d="M339.57 64.223L344.023 66.2425C344.023 66.2425 343.077 69.4488 341.191 68.7707C339.49 68.1422 339.038 65.735 339.57 64.223Z" fill="#603333"/>
<path fill-rule="evenodd" clip-rule="evenodd" d="M280.195 91.6276C280.195 91.6276 285.328 92.002 284.99 93.0321C284.668 93.9459 282.966 93.3173 280.195 91.6276Z" fill="#FFF4DC"/>
<path fill-rule="evenodd" clip-rule="evenodd" d="M270.217 121.97C277.739 118.09 283.063 114.218 283.063 114.218C283.063 114.218 279.623 119.618 271.496 123.927C264.573 127.658 253.452 138.068 253.452 138.068C254.695 135.98 263.508 125.444 270.217 121.97Z" fill="#FFF4DC"/>
<path fill-rule="evenodd" clip-rule="evenodd" d="M260.456 122.637C267.568 109.495 274.151 99.8265 274.151 99.8265C274.151 99.8265 266.001 107.109 258.125 121.327C251.377 133.486 234.5 154.569 234.5 154.569C237.638 151.92 254.111 134.372 260.456 122.637Z" fill="#FFF4DC"/>
<path fill-rule="evenodd" clip-rule="evenodd" d="M263.357 98.6256C263.357 98.6256 282.429 92.2378 280.58 94.7761C279.592 96.1341 272.709 99.007 263.357 98.6256Z" fill="#FFF4DC"/>
<path d="M189.031 324.872C189.005 324.673 188.975 324.44 188.94 324.177C188.908 323.93 188.872 323.656 188.833 323.357C188.779 322.983 188.721 322.578 188.658 322.145C188.594 321.713 188.525 321.254 188.453 320.769C188.418 320.518 188.372 320.306 188.33 320.067C188.287 319.833 188.243 319.594 188.197 319.35C188.105 318.861 188.014 318.352 187.909 317.827C187.795 317.305 187.677 316.764 187.555 316.208C187.494 315.931 187.432 315.649 187.369 315.365C187.298 315.082 187.226 314.795 187.154 314.506C187.007 313.928 186.857 313.338 186.704 312.738C186.358 311.548 186.029 310.314 185.614 309.082C185.515 308.773 185.414 308.464 185.313 308.153L185.162 307.687L184.997 307.223C184.775 306.606 184.552 305.987 184.33 305.367C184.099 304.751 183.85 304.141 183.611 303.532C183.489 303.228 183.373 302.923 183.245 302.623C183.116 302.324 182.987 302.026 182.859 301.728C182.73 301.432 182.602 301.137 182.475 300.843C182.349 300.548 182.22 300.257 182.082 299.972C181.812 299.399 181.545 298.834 181.282 298.277C181.019 297.722 180.733 297.188 180.467 296.66C180.197 296.134 179.936 295.618 179.658 295.128C179.386 294.636 179.121 294.157 178.864 293.694C178.61 293.23 178.337 292.796 178.09 292.373C177.838 291.952 177.596 291.549 177.367 291.165C177.126 290.789 176.897 290.431 176.683 290.096C176.468 289.761 176.266 289.447 176.08 289.158C175.893 288.868 175.709 288.61 175.549 288.374C175.314 288.034 175.117 287.747 174.959 287.518C174.72 287.171 174.248 287.075 173.891 287.301L155.704 298.827C155.361 299.044 155.241 299.486 155.427 299.846C155.502 299.989 155.587 300.155 155.684 300.341C155.775 300.521 155.884 300.716 155.989 300.937C156.094 301.157 156.208 301.395 156.329 301.649C156.451 301.903 156.58 302.172 156.717 302.456C156.843 302.745 156.977 303.049 157.116 303.366C157.251 303.685 157.408 304.008 157.543 304.356C157.682 304.702 157.825 305.059 157.972 305.426C158.126 305.79 158.26 306.174 158.402 306.565C158.54 306.956 158.696 307.349 158.83 307.758C158.964 308.167 159.1 308.583 159.238 309.003C159.31 309.212 159.374 309.426 159.434 309.641C159.497 309.856 159.56 310.072 159.623 310.288C159.687 310.504 159.751 310.721 159.814 310.939C159.878 311.156 159.929 311.378 159.987 311.599C160.099 312.041 160.22 312.481 160.326 312.925C160.426 313.37 160.526 313.816 160.625 314.26L160.7 314.591L160.762 314.925C160.804 315.147 160.846 315.369 160.888 315.589C161.071 316.465 161.181 317.343 161.323 318.181C161.375 318.603 161.426 319.019 161.476 319.426C161.501 319.628 161.526 319.829 161.551 320.027C161.569 320.226 161.587 320.423 161.604 320.617C161.64 321.004 161.674 321.381 161.708 321.745C161.73 322.11 161.751 322.463 161.772 322.801C161.782 322.971 161.792 323.136 161.802 323.298C161.81 323.455 161.827 323.628 161.824 323.756C161.829 324.028 161.833 324.286 161.837 324.529C161.843 324.77 161.849 324.996 161.854 325.205C161.857 325.492 161.859 325.755 161.862 325.993C161.864 326.258 161.866 326.493 161.868 326.694C161.871 327.145 162.256 327.499 162.707 327.469L189.031 327.469C189.482 327.438 189.089 325.32 189.031 324.872Z" fill="#7338D5"/>
<path d="M132.012 277.093C132.232 277.21 132.469 277.338 132.722 277.474C132.975 277.609 133.245 277.752 133.529 277.903C133.776 278.033 134.026 278.187 134.288 278.339L147.951 263.855C147.571 263.66 147.193 263.466 146.823 263.276C146.569 263.148 146.321 263.015 146.07 262.896C145.818 262.778 145.57 262.662 145.325 262.547C144.834 262.318 144.357 262.096 143.896 261.881C143.429 261.682 142.977 261.489 142.543 261.305C142.108 261.124 141.697 260.939 141.295 260.787C140.895 260.634 140.515 260.488 140.158 260.352C139.801 260.217 139.467 260.09 139.159 259.973C138.847 259.866 138.56 259.767 138.301 259.678C137.936 259.555 137.627 259.45 137.378 259.366C136.984 259.232 136.554 259.445 136.402 259.847L130.487 275.538C130.341 275.925 130.504 276.356 130.864 276.532C131.017 276.607 131.196 276.694 131.398 276.793C131.584 276.883 131.789 276.984 132.012 277.093Z" fill="#7338D5"/>
<path d="M151.337 292.878C151.481 293.08 151.617 293.269 151.742 293.445C151.797 293.518 151.885 293.649 151.957 293.753C152.032 293.862 152.102 293.965 152.17 294.063C152.316 294.277 152.446 294.465 152.557 294.627C152.806 294.99 153.305 295.057 153.649 294.774L169.302 281.877C169.646 281.594 169.692 281.078 169.401 280.749C169.272 280.602 169.121 280.431 168.95 280.237C168.872 280.149 168.789 280.055 168.702 279.957C168.607 279.851 168.508 279.74 168.405 279.624C168.164 279.361 167.904 279.076 167.626 278.772C167.347 278.47 167.05 278.148 166.738 277.809C166.434 277.503 166.116 277.18 165.783 276.844C165.447 276.512 165.11 276.154 164.737 275.808C164.367 275.46 163.985 275.099 163.591 274.729C163.203 274.355 162.782 273.993 162.357 273.619C161.929 273.248 161.504 272.857 161.048 272.486C160.933 272.391 160.815 272.295 160.699 272.2L149.73 290.742C149.925 290.982 150.103 291.227 150.283 291.455C150.49 291.724 150.689 291.982 150.878 292.227C151.04 292.456 151.193 292.673 151.337 292.878Z" fill="#7338D5"/>
<path d="M117.887 272.621C118.096 272.666 118.303 272.71 118.506 272.754C118.913 272.84 119.309 272.924 119.692 273.006C120.072 273.101 120.439 273.193 120.791 273.282C120.967 273.326 121.139 273.369 121.307 273.411C121.474 273.453 121.643 273.492 121.784 273.538C122.077 273.624 122.355 273.707 122.616 273.784C122.877 273.859 123.12 273.93 123.346 273.995C123.622 274.083 123.875 274.163 124.104 274.236C124.355 274.316 124.578 274.387 124.768 274.448C125.196 274.584 125.652 274.327 125.764 273.885L129.64 258.681C129.753 258.239 129.476 257.796 129.035 257.713C128.838 257.676 128.609 257.632 128.349 257.583C128.109 257.538 127.842 257.488 127.551 257.433C127.206 257.376 126.833 257.314 126.433 257.247C126.035 257.182 125.611 257.114 125.164 257.041C124.936 257.001 124.722 256.978 124.498 256.95C124.275 256.922 124.047 256.894 123.813 256.865C123.348 256.809 122.863 256.75 122.361 256.689C121.857 256.645 121.336 256.599 120.801 256.553C120.533 256.53 120.262 256.507 119.988 256.483C119.714 256.461 119.435 256.452 119.153 256.436C118.591 256.407 118.017 256.379 117.433 256.349C116.849 256.339 116.255 256.328 115.653 256.318C115.353 256.315 115.051 256.306 114.747 256.309C114.444 256.315 114.139 256.32 113.832 256.326C113.526 256.332 113.219 256.338 112.911 256.345C112.603 256.35 112.294 256.356 111.985 256.377C111.368 256.411 110.748 256.445 110.128 256.479C109.509 256.519 108.891 256.585 108.277 256.637C107.97 256.666 107.663 256.691 107.358 256.724C107.053 256.762 106.75 256.8 106.447 256.837C106.145 256.875 105.844 256.913 105.545 256.951C105.246 256.988 104.948 257.024 104.654 257.075C104.066 257.169 103.485 257.262 102.913 257.354C102.342 257.444 101.785 257.567 101.239 257.67C100.693 257.777 100.159 257.876 99.6448 258.002C99.1297 258.121 98.6286 258.237 98.144 258.349C97.6592 258.458 97.1976 258.595 96.7518 258.71C96.3072 258.829 95.8812 258.943 95.476 259.052C95.0746 259.174 94.6938 259.289 94.336 259.397C93.9789 259.506 93.6447 259.608 93.3356 259.702C93.0268 259.796 92.7475 259.898 92.4934 259.982C92.1478 260.1 91.8528 260.201 91.614 260.282C91.2153 260.418 90.9927 260.847 91.1083 261.254L94.2516 272.326C94.3635 272.72 94.7547 272.96 95.1533 272.876C95.3369 272.838 95.554 272.793 95.8015 272.741C96.0166 272.698 96.2526 272.642 96.513 272.597C96.7733 272.551 97.0547 272.503 97.3553 272.45C97.6552 272.398 97.9745 272.342 98.311 272.283C98.649 272.236 99.0044 272.186 99.3752 272.135C99.7464 272.087 100.129 272.019 100.531 271.982C100.931 271.94 101.344 271.896 101.769 271.852C102.192 271.8 102.631 271.776 103.077 271.744C103.523 271.717 103.977 271.67 104.441 271.656C104.904 271.639 105.375 271.622 105.851 271.605C106.089 271.592 106.328 271.594 106.569 271.594C106.809 271.594 107.051 271.593 107.294 271.593C107.536 271.592 107.779 271.592 108.023 271.591C108.266 271.595 108.511 271.607 108.755 271.614C109.244 271.634 109.735 271.639 110.224 271.669C110.713 271.702 111.202 271.735 111.688 271.769C111.931 271.781 112.173 271.808 112.414 271.834C112.655 271.859 112.895 271.884 113.134 271.909C113.373 271.933 113.611 271.958 113.847 271.982C114.084 272.009 114.318 272.047 114.551 272.078C115.016 272.144 115.475 272.208 115.927 272.272C116.375 272.351 116.816 272.429 117.248 272.506C117.464 272.545 117.677 272.577 117.887 272.621Z" fill="#7338D5"/>
<path d="M70.9948 270.753C70.7567 270.928 70.5177 271.103 70.2779 271.28C70.0387 271.456 69.8073 271.645 69.5711 271.828C69.1022 272.199 68.6271 272.563 68.1629 272.941C67.7046 273.325 67.2464 273.71 66.7899 274.093L66.4489 274.379L66.1174 274.676C65.8971 274.873 65.6774 275.07 65.4586 275.266C64.5734 276.037 63.7566 276.854 62.9477 277.619C62.5577 278.017 62.1742 278.408 61.7987 278.79C61.612 278.982 61.427 279.171 61.2446 279.358C61.0676 279.55 60.8928 279.74 60.7202 279.928C60.3763 280.303 60.0416 280.667 59.7179 281.02C59.4051 281.382 59.1029 281.731 58.8129 282.067C58.5256 282.404 58.2436 282.721 57.9889 283.034C57.7361 283.348 57.496 283.646 57.2704 283.926C57.0454 284.205 56.8349 284.467 56.6404 284.709C56.4529 284.957 56.2808 285.184 56.1252 285.389C55.922 285.66 55.7475 285.892 55.6049 286.082C55.3524 286.417 55.4164 286.891 55.7491 287.157L60.8285 291.217C61.1518 291.476 61.6192 291.449 61.903 291.154C62.0437 291.009 62.2119 290.834 62.4051 290.634C62.5649 290.469 62.7417 290.286 62.9344 290.087C63.1333 289.894 63.3482 289.685 63.578 289.462C63.807 289.24 64.0507 289.002 64.3077 288.753C64.5656 288.504 64.8503 288.256 65.1392 287.989C65.4298 287.726 65.7327 287.451 66.0462 287.167C66.3683 286.892 66.7013 286.609 67.0438 286.317C67.2145 286.171 67.3875 286.023 67.5627 285.874C67.7427 285.73 67.9248 285.585 68.1091 285.437C68.477 285.143 68.8529 284.843 69.2353 284.538C70.0255 283.958 70.8167 283.334 71.6679 282.76C71.878 282.614 72.0888 282.467 72.3003 282.319L72.6174 282.098L72.9431 281.886C73.3768 281.604 73.8122 281.321 74.2476 281.038C74.6872 280.761 75.1355 280.498 75.5757 280.229C75.7976 280.097 76.0142 279.959 76.2383 279.833C76.4623 279.707 76.6857 279.582 76.9082 279.457C77.1303 279.332 77.3514 279.207 77.5715 279.084C77.7903 278.958 78.0097 278.837 78.233 278.725C78.6753 278.494 79.1123 278.267 79.5422 278.043C79.9713 277.82 80.4068 277.625 80.8245 277.42C81.244 277.218 81.6516 277.017 82.0604 276.845C82.4652 276.666 82.8589 276.493 83.2399 276.325C83.619 276.154 83.9978 276.015 84.3538 275.868C84.7106 275.724 85.0526 275.587 85.3778 275.456C85.6923 275.342 85.9907 275.235 86.271 275.133C86.5501 275.031 86.8113 274.936 87.0529 274.848C87.1647 274.805 87.3123 274.758 87.438 274.715C87.5667 274.672 87.6895 274.631 87.8061 274.592C88.06 274.506 88.2841 274.431 88.476 274.367C88.9078 274.222 89.1214 273.748 88.9442 273.33L84.8187 263.606C84.6415 263.188 84.1466 263 83.7363 263.195C83.5539 263.282 83.3406 263.383 83.0993 263.498C82.9886 263.55 82.8718 263.606 82.7494 263.664C82.6246 263.724 82.507 263.777 82.3503 263.857C82.0516 264.008 81.7287 264.171 81.3836 264.345C81.0398 264.519 80.6739 264.705 80.2881 264.901C79.9236 265.101 79.5403 265.311 79.1404 265.531C78.7435 265.754 78.3227 265.972 77.9022 266.225C77.481 266.475 77.0457 266.734 76.5981 266.999C76.148 267.259 75.6997 267.55 75.2403 267.844C74.7827 268.14 74.3078 268.43 73.8409 268.749C73.3749 269.069 72.9012 269.393 72.4217 269.722C72.1798 269.884 71.9432 270.055 71.7075 270.23C71.4709 270.403 71.2334 270.578 70.9948 270.753Z" fill="#7338D5"/>
<path d="M51.5368 293.833C51.4144 294.043 51.2787 294.275 51.1311 294.528C50.9825 294.788 50.8189 295.099 50.6465 295.414C50.474 295.732 50.2906 296.072 50.0973 296.429C50.0019 296.608 49.8997 296.791 49.8036 296.978C49.7113 297.165 49.6172 297.356 49.521 297.551C49.1413 298.335 48.7056 299.168 48.3134 300.083C48.111 300.537 47.9031 301.002 47.6907 301.479C47.4871 301.958 47.2941 302.455 47.0904 302.955C46.6708 303.951 46.3096 305.009 45.9243 306.072L45.7813 306.472L45.6516 306.878C45.5652 307.149 45.4786 307.421 45.3918 307.694C45.3053 307.966 45.2186 308.239 45.1317 308.512L45.0017 308.921L44.8855 309.336C44.7324 309.887 44.5792 310.439 44.4267 310.989L44.3129 311.4L44.2757 311.533L44.2516 311.633L44.2036 311.834C44.1395 312.101 44.0755 312.367 44.0119 312.633C43.9482 312.898 43.8849 313.163 43.8217 313.426C43.7626 313.702 43.7035 313.977 43.6452 314.251C43.5871 314.524 43.5294 314.796 43.4721 315.066C43.4436 315.201 43.4152 315.335 43.3871 315.469C43.363 315.602 43.339 315.734 43.315 315.866C43.2197 316.392 43.1261 316.909 43.0344 317.416C42.957 317.925 42.8812 318.423 42.8074 318.907C42.7287 319.39 42.6754 319.864 42.6194 320.321C42.6152 320.358 42.611 320.394 42.6067 320.431C42.5624 320.805 42.8066 321.166 43.1888 321.29L45.3255 321.984C45.7818 322.133 46.2606 321.891 46.3721 321.456C46.4018 321.34 46.4318 321.223 46.4612 321.104C46.5692 320.681 46.676 320.243 46.809 319.799C46.9366 319.353 47.0679 318.896 47.2019 318.428C47.3489 317.965 47.4993 317.492 47.6522 317.011C47.6904 316.891 47.7287 316.77 47.7671 316.649C47.8085 316.531 47.8502 316.413 47.8922 316.293C47.9756 316.056 48.0597 315.816 48.1444 315.575C48.2287 315.335 48.3138 315.092 48.3993 314.849C48.4956 314.597 48.5922 314.342 48.6894 314.088C48.7864 313.833 48.884 313.577 48.9816 313.32L49.0551 313.127L49.0918 313.031L49.0964 313.019C49.1066 312.987 49.0877 313.048 49.0914 313.037L49.101 313.014L49.1204 312.968L49.2762 312.599C49.4837 312.107 49.6919 311.614 49.9003 311.12L50.0569 310.751L50.2269 310.387C50.3401 310.145 50.453 309.903 50.5658 309.661C50.6783 309.42 50.7907 309.179 50.9026 308.939L51.07 308.58L51.2501 308.227C51.7339 307.292 52.188 306.365 52.6929 305.5C52.9394 305.065 53.1735 304.634 53.4162 304.219C53.6669 303.809 53.9122 303.407 54.1509 303.017C54.6137 302.229 55.1125 301.519 55.5475 300.852C55.6574 300.686 55.765 300.523 55.8701 300.365C55.9771 300.209 56.0851 300.065 56.1883 299.92C56.3949 299.632 56.5911 299.36 56.7754 299.103C56.9625 298.845 57.123 298.612 57.2965 298.382C57.476 298.149 57.6405 297.935 57.7894 297.741C57.9515 297.53 58.0946 297.344 58.2173 297.184C58.4927 296.826 58.3825 296.31 57.9771 296.057L53.0547 292.98C52.6492 292.726 52.1161 292.84 51.8891 293.229C51.7883 293.402 51.6703 293.604 51.5368 293.833Z" fill="#7338D5"/>
<path fill-rule="evenodd" clip-rule="evenodd" d="M104.461 339.096C108.647 340.456 113.435 339.408 116.714 335.993C117.345 335.336 117.918 334.57 118.372 333.82L146.109 287.39L156.673 269.708L163.217 258.754C163.978 257.479 163.198 256.189 162.11 255.835C161.473 255.628 160.73 255.743 160.129 256.369L150.948 265.93L137.405 280.034L99.648 319.355C95.0625 324.131 95.1656 331.727 99.8782 336.321C101.221 337.63 102.793 338.554 104.461 339.096ZM114.231 329.319C113.227 332.411 109.93 334.111 106.868 333.116C103.805 332.121 102.137 328.808 103.142 325.716C104.147 322.624 107.443 320.924 110.506 321.919C113.568 322.914 115.236 326.227 114.231 329.319Z" fill="#C3437D"/>
<defs>
<linearGradient id="paint0_linear" x1="516.58" y1="61.8161" x2="312.535" y2="-93.6848" gradientUnits="userSpaceOnUse">
<stop stop-color="#9033EA"/>
<stop offset="1" stop-color="#483EB7"/>
</linearGradient>
<linearGradient id="paint1_linear" x1="516.58" y1="61.8161" x2="312.535" y2="-93.6848" gradientUnits="userSpaceOnUse">
<stop stop-color="#9033EA"/>
<stop offset="1" stop-color="#483EB7"/>
</linearGradient>
<linearGradient id="paint2_linear" x1="319.996" y1="167.821" x2="285.71" y2="133.572" gradientUnits="userSpaceOnUse">
<stop stop-color="#9839C3"/>
<stop offset="1" stop-color="#F94F24"/>
</linearGradient>
</defs>
</svg>
