<svg width="553" height="316" viewBox="0 0 553 316" fill="none" xmlns="http://www.w3.org/2000/svg">
<path fill-rule="evenodd" clip-rule="evenodd" d="M422.366 58.6961C392.067 15.4766 338.988 -6.23946 286.638 3.16646C234.288 12.5723 192.343 51.3618 179.381 102.354C176.437 102.054 173.48 101.902 170.52 101.901C123.838 101.919 86.0029 139.317 86 185.445C85.9971 231.573 123.827 268.976 170.51 269H444.437C503.842 269 552 221.414 552 162.714C552 104.014 503.842 56.4284 444.437 56.4284V56.4283C437.021 56.4351 429.625 57.195 422.366 58.6961Z" fill="white" stroke="#232F3E" stroke-dasharray="6 2"/>
<path d="M389.626 60.016C390.11 60.4878 390.59 60.9653 391.065 61.4485L390.709 61.7991C391.418 62.5202 392.118 63.2541 392.808 64.0007C393.45 64.6957 394.112 65.3727 394.794 66.0292L395.141 65.669C395.591 66.1024 396.049 66.5268 396.516 66.9412L396.184 67.315C397.604 68.5771 399.1 69.7494 400.662 70.8104L400.943 70.3968C401.461 70.7483 401.985 71.0873 402.517 71.4131L402.255 71.8394C403.881 72.8358 405.571 73.7108 407.317 74.4418L407.51 73.9806C408.086 74.222 408.669 74.4475 409.257 74.6561L409.09 75.1273C410.881 75.7627 412.725 76.2449 414.612 76.5509L414.692 76.0573C415.307 76.157 415.926 76.2377 416.55 76.2985L416.501 76.7961C417.443 76.888 418.395 76.9353 419.355 76.9353H422.179V76.4353H424.061V76.9353H429.708V76.4353H431.59V76.9353H437.237V76.4353H439.119V76.9353H444.765V76.4353H446.648V76.9353H452.294V76.4353H454.177V76.9353H457C457.976 76.9353 458.941 76.9827 459.893 77.0753L459.942 76.5777C460.597 76.6415 461.247 76.7264 461.889 76.8317L461.808 77.3251C463.74 77.6417 465.608 78.146 467.395 78.8186L467.571 78.3507C468.185 78.582 468.79 78.833 469.385 79.1028L469.178 79.5581C470.947 80.3608 472.622 81.333 474.184 82.4541L474.475 82.0479C475.008 82.4299 475.527 82.8289 476.032 83.2441L475.715 83.6304C477.208 84.8571 478.578 86.2276 479.805 87.7206L480.191 87.4032C480.606 87.9085 481.005 88.4277 481.387 88.9599L480.981 89.2514C482.102 90.8131 483.074 92.4887 483.877 94.2574L484.332 94.0508C484.602 94.6453 484.853 95.2501 485.085 95.8646L484.617 96.0408C485.289 97.8268 485.794 99.6954 486.11 101.627L486.604 101.546C486.709 102.189 486.794 102.838 486.858 103.494L486.36 103.542C486.453 104.494 486.5 105.459 486.5 106.435V109.394H487V111.366H486.5V117.284H487V119.256H486.5V125.173H487V127.145H486.5V133.063H487V135.035H486.5V140.952H487V142.925H486.5V148.842H487V150.814H486.5V156.731H487V158.704H486.5V164.621H487V166.593H486.5V172.511H487V174.483H486.5V180.4H487V182.373H486.5V188.29H487V190.262H486.5V196.179H487V198.152H486.5V204.069H487V206.041H486.5V209C486.5 209.976 486.453 210.941 486.36 211.893L486.858 211.942C486.794 212.597 486.709 213.247 486.604 213.889L486.11 213.808C485.794 215.74 485.289 217.608 484.617 219.394L485.085 219.571C484.853 220.185 484.602 220.79 484.332 221.385L483.877 221.178C483.074 222.947 482.102 224.622 480.981 226.184L481.387 226.475C481.005 227.008 480.606 227.527 480.191 228.032L479.805 227.715C478.578 229.208 477.208 230.578 475.715 231.805L476.032 232.191C475.527 232.606 475.008 233.005 474.475 233.387L474.184 232.981C472.622 234.102 470.947 235.074 469.178 235.877L469.385 236.332C468.79 236.602 468.185 236.853 467.571 237.085L467.395 236.617C465.608 237.289 463.74 237.794 461.808 238.11L461.889 238.604C461.247 238.709 460.597 238.794 459.942 238.858L459.893 238.36C458.941 238.453 457.976 238.5 457 238.5H454.081V239H452.135V238.5H446.297V239H444.351V238.5H438.514V239H436.568V238.5H430.73V239H428.784V238.5H422.946V239H421V238.5H415.162V239H413.217V238.5H407.379V239H405.433V238.5H399.595V239H397.649V238.5H391.811V239H389.865V238.5H384.028V239H382.082V238.5H376.244V239H374.298V238.5H368.46V239H366.514V238.5H360.676V239H358.73V238.5H355.811C354.835 238.5 353.87 238.453 352.918 238.36L352.87 238.858C352.214 238.794 351.565 238.709 350.922 238.604L351.003 238.11C349.072 237.794 347.203 237.289 345.417 236.617L345.241 237.085C344.626 236.853 344.021 236.602 343.427 236.332L343.634 235.877C341.865 235.074 340.189 234.102 338.628 232.981L338.336 233.387C337.804 233.005 337.285 232.606 336.779 232.191L337.097 231.805C335.604 230.578 334.233 229.208 333.007 227.715L332.62 228.032C332.205 227.527 331.806 227.008 331.424 226.475L331.83 226.184C330.709 224.622 329.737 222.947 328.934 221.178L328.479 221.385C328.209 220.79 327.958 220.185 327.727 219.571L328.195 219.395C327.522 217.608 327.018 215.74 326.701 213.808L326.208 213.889C326.103 213.247 326.018 212.597 325.954 211.942L326.452 211.893C326.359 210.941 326.311 209.976 326.311 209V206.8H325.811V205.333H326.311V203.133C326.311 202.124 326.263 201.127 326.167 200.143L325.669 200.192C325.605 199.536 325.52 198.887 325.415 198.244L325.909 198.163C325.581 196.166 325.06 194.233 324.364 192.386L323.896 192.562C323.665 191.948 323.414 191.343 323.144 190.749L323.599 190.542C322.769 188.713 321.764 186.981 320.605 185.366L320.199 185.658C319.817 185.126 319.418 184.606 319.003 184.101L319.389 183.784C318.121 182.24 316.704 180.824 315.161 179.556L314.844 179.942C314.338 179.527 313.819 179.128 313.287 178.746L313.579 178.34C311.964 177.181 310.232 176.175 308.403 175.345L308.196 175.801C307.602 175.531 306.997 175.28 306.382 175.049L306.558 174.581C304.711 173.885 302.779 173.364 300.781 173.036L300.701 173.53C300.058 173.424 299.409 173.339 298.753 173.276L298.802 172.778C297.818 172.682 296.82 172.633 295.811 172.633H292.626V173.133H290.502V172.633H284.132V173.133H282.008V172.633H275.637V173.133H273.514V172.633H267.143V173.133H265.019V172.633H258.648V173.133H256.525V172.633H250.154V173.133H248.03V172.633H241.66V173.133H239.536V172.633H236.351C235.358 172.633 234.369 172.583 233.392 172.483L233.341 172.98C232.672 172.911 232.007 172.819 231.35 172.703L231.437 172.21C229.467 171.863 227.565 171.3 225.791 170.515L225.589 170.972C224.974 170.7 224.374 170.401 223.79 170.077L224.034 169.64C222.314 168.682 220.751 167.49 219.406 166.057L219.042 166.4C218.586 165.914 218.154 165.401 217.749 164.861L218.149 164.561C217.573 163.792 217.051 162.965 216.592 162.08C216.146 161.219 215.698 160.309 215.253 159.349L214.799 159.56C214.519 158.955 214.24 158.33 213.964 157.687L214.424 157.49C213.671 155.734 212.941 153.834 212.266 151.797L211.791 151.954C211.58 151.317 211.374 150.667 211.175 150.003L211.653 149.859C211.093 147.995 210.583 146.025 210.143 143.953L209.654 144.056C209.515 143.399 209.382 142.731 209.258 142.052L209.75 141.962C209.395 140.034 209.105 138.022 208.893 135.93L208.396 135.98C208.328 135.308 208.268 134.627 208.216 133.939L208.715 133.901C208.569 131.939 208.493 129.909 208.5 127.813L208 127.812C208.003 127.135 208.014 126.452 208.033 125.762L208.533 125.777C208.59 123.804 208.72 121.776 208.933 119.694L208.435 119.643C208.504 118.968 208.582 118.288 208.669 117.603L209.165 117.665C209.413 115.704 209.735 113.696 210.138 111.643L209.647 111.546C209.777 110.886 209.915 110.222 210.062 109.552L210.55 109.659C210.974 107.725 211.47 105.752 212.045 103.741L211.565 103.604C211.751 102.95 211.946 102.292 212.15 101.631L212.628 101.778C213.21 99.8862 213.861 97.9617 214.587 96.005L214.119 95.8311C214.354 95.1967 214.597 94.5589 214.848 93.9178L215.314 94.1002C216.038 92.2508 216.829 90.3736 217.69 88.4689L217.235 88.2629C217.513 87.6482 217.798 87.0306 218.091 86.4103L218.543 86.6237C219.392 84.8241 220.304 83.0006 221.283 81.1537L220.841 80.9197C221.157 80.3231 221.48 79.7241 221.81 79.1228L222.248 79.3632C222.735 78.4758 223.237 77.583 223.755 76.685C224.262 75.8051 224.785 74.9373 225.321 74.0817L224.898 73.8159C225.258 73.242 225.625 72.6735 225.998 72.1104L226.415 72.3866C227.535 70.6958 228.714 69.0543 229.947 67.4625L229.552 67.1563C229.967 66.62 230.389 66.0893 230.816 65.5643L231.204 65.88C232.483 64.3103 233.816 62.791 235.2 61.3225L234.836 60.9796C235.301 60.4862 235.772 59.9985 236.248 59.5166L236.604 59.8681C238.025 58.4301 239.496 57.0433 241.013 55.7081L240.683 55.3327C241.192 54.885 241.706 54.4431 242.225 54.007L242.546 54.3898C244.093 53.0903 245.685 51.8423 247.318 50.6463L247.023 50.2429C247.569 49.8431 248.119 49.449 248.674 49.0608L248.961 49.4705C250.615 48.3136 252.309 47.2083 254.041 46.155L253.781 45.7279C254.359 45.3757 254.942 45.0294 255.529 44.6889L255.78 45.1213C257.525 44.1082 259.306 43.1466 261.118 42.2369L260.894 41.79C261.5 41.4861 262.109 41.188 262.721 40.8956L262.936 41.3469C264.757 40.4774 266.609 39.6592 268.487 38.8927L268.298 38.4298C268.925 38.1742 269.554 37.9243 270.186 37.6802L270.366 38.1466C272.249 37.4193 274.158 36.7431 276.088 36.1184L275.934 35.6427C276.579 35.434 277.226 35.2311 277.876 35.0339L278.021 35.5123C279.953 34.9256 281.906 34.3898 283.876 33.9052L283.757 33.4197C284.414 33.258 285.074 33.1019 285.735 32.9516L285.846 33.4391C287.816 32.9913 289.802 32.5941 291.801 32.248L291.715 31.7554C292.382 31.6399 293.051 31.5301 293.72 31.4259L293.797 31.92C295.794 31.6094 297.803 31.3495 299.82 31.1405L299.769 30.6432C300.443 30.5733 301.118 30.5092 301.794 30.4507L301.837 30.9488C303.851 30.7745 305.873 30.6508 307.899 30.578L307.881 30.0783C308.558 30.054 309.236 30.0353 309.914 30.0223L309.923 30.5222C311.945 30.4835 313.971 30.4954 315.997 30.5583L316.012 30.0586C316.689 30.0796 317.366 30.1063 318.043 30.1387L318.019 30.6381C320.04 30.7348 322.06 30.8823 324.077 31.0809L324.126 30.5833C324.8 30.6498 325.474 30.7219 326.147 30.7998L326.09 31.2965C328.1 31.5289 330.106 31.8123 332.103 32.1472L332.186 31.6541C332.854 31.7661 333.522 31.8839 334.188 32.0074L334.097 32.499C336.087 32.8677 338.068 33.2878 340.038 33.7595L340.154 33.2733C340.813 33.4311 341.471 33.5947 342.127 33.7641L342.002 34.2483C343.961 34.7541 345.908 35.3116 347.839 35.921L347.989 35.4442C348.635 35.6482 349.28 35.8579 349.922 36.0735L349.763 36.5476C351.682 37.1912 353.583 37.8867 355.464 38.6345L355.649 38.1698C356.279 38.4201 356.906 38.6763 357.532 38.9383L357.339 39.3994C359.204 40.1811 361.049 41.0149 362.869 41.9012L363.088 41.4517C363.697 41.748 364.303 42.0502 364.907 42.3583L364.679 42.8036C366.479 43.7227 368.255 44.694 370.003 45.718L370.255 45.2866C370.84 45.629 371.421 45.9773 371.999 46.3314L371.738 46.7578C373.46 47.8126 375.154 48.9197 376.816 50.0793L377.102 49.6692C377.658 50.0572 378.211 50.451 378.76 50.8507L378.466 51.2549C380.097 52.4423 381.696 53.6817 383.26 54.9734L383.578 54.5878C384.099 55.0183 384.617 55.4545 385.13 55.8965L384.804 56.2754C386.331 57.59 387.823 58.9562 389.277 60.374L389.626 60.016Z" fill="#FFFBFA" stroke="#FD591C" stroke-dasharray="6 2"/>
<rect x="270" y="166" width="17" height="17" fill="white"/>
<path d="M102 171V187H85.0184C84.9475 180.771 85.0184 177.222 86.3953 171H102Z" fill="white"/>
<path fill-rule="evenodd" clip-rule="evenodd" d="M486 103H515.139C516.912 103 518.543 103.929 519.373 105.495C523.252 112.82 534.018 135.16 534.018 157.5C534.018 179.84 523.252 202.18 519.373 209.505C518.543 211.071 516.912 212 515.139 212H486V103Z" fill="#FD591C"/>
<path fill-rule="evenodd" clip-rule="evenodd" d="M519.576 155.355H520.198C520.687 155.322 521.146 155.103 521.481 154.742C521.816 154.382 522.002 153.907 522.002 153.414C522.002 152.921 521.816 152.446 521.481 152.086C521.146 151.726 520.687 151.507 520.198 151.473L519.594 151.473V150.803C519.594 150.683 519.547 150.568 519.462 150.483C519.378 150.398 519.263 150.351 519.144 150.351L515.694 150.351C515.574 150.351 515.46 150.398 515.375 150.483C515.291 150.568 515.243 150.683 515.243 150.803L515.243 156.025C515.243 156.145 515.291 156.26 515.375 156.345C515.46 156.43 515.574 156.478 515.694 156.478H519.126C519.245 156.478 519.36 156.43 519.444 156.345C519.529 156.26 519.576 156.145 519.576 156.025V155.355ZM520.849 152.74C521.023 152.932 521.119 153.182 521.119 153.441C521.119 153.701 521.023 153.95 520.849 154.142C520.675 154.334 520.437 154.453 520.18 154.478H519.576V152.378L520.18 152.405C520.437 152.429 520.675 152.549 520.849 152.74ZM516.189 151.256L518.675 151.256L518.675 155.573L516.189 155.6L516.189 151.256Z" fill="white"/>
<path fill-rule="evenodd" clip-rule="evenodd" d="M522.846 161.336C523.379 160.945 523.784 160.404 524.008 159.781C524.131 159.353 524.148 158.902 524.057 158.466C523.966 158.031 523.77 157.624 523.486 157.283C524.274 156.931 524.991 156.437 525.602 155.826C526.504 154.952 527.118 153.822 527.359 152.587C527.601 151.352 527.459 150.072 526.954 148.921C526.442 147.84 525.641 146.924 524.64 146.275C523.639 145.626 522.479 145.27 521.288 145.246C521.153 145.246 521.026 145.246 520.9 145.246C520.639 144.315 520.071 143.5 519.289 142.934C518.507 142.369 517.557 142.087 516.595 142.133C516.478 142.133 516.351 142.133 516.234 142.133C515.082 142.227 514.008 142.756 513.229 143.615C512.45 144.473 512.024 145.596 512.037 146.758L512.037 161.464C512.037 161.464 512.397 165.663 516.595 165.663C517.649 165.68 518.675 165.317 519.487 164.64C520.298 163.963 520.841 163.016 521.017 161.971C521.676 161.947 522.313 161.726 522.846 161.336ZM512.91 146.767C512.896 145.834 513.235 144.931 513.859 144.24C514.483 143.549 515.345 143.123 516.27 143.047C516.369 143.047 516.468 143.047 516.568 143.047C517.392 143.001 518.206 143.256 518.858 143.765C519.51 144.274 519.957 145.002 520.117 145.817C520.146 145.922 520.212 146.014 520.303 146.076C520.394 146.137 520.503 146.164 520.612 146.151C520.831 146.138 521.051 146.138 521.27 146.151C522.283 146.179 523.269 146.485 524.121 147.035C524.974 147.586 525.66 148.36 526.107 149.274C526.408 149.958 526.568 150.697 526.575 151.446C526.543 152.876 525.951 154.235 524.927 155.229C524.241 155.9 523.412 156.408 522.504 156.713C522.427 156.741 522.36 156.789 522.308 156.852C522.257 156.915 522.224 156.991 522.212 157.071C522.2 157.152 522.21 157.235 522.24 157.31C522.271 157.385 522.322 157.451 522.387 157.5C522.705 157.722 522.948 158.038 523.08 158.405C523.212 158.771 523.228 159.17 523.125 159.545C522.931 160.03 522.594 160.442 522.159 160.727C521.724 161.012 521.212 161.156 520.693 161.138C520.579 161.12 520.461 161.148 520.367 161.215C520.273 161.283 520.209 161.385 520.189 161.5C520.099 162.41 519.675 163.253 519.001 163.866C518.327 164.479 517.45 164.819 516.541 164.819C515.631 164.819 514.754 164.479 514.08 163.866C513.406 163.253 512.982 162.41 512.892 161.5L512.91 161.437L512.91 146.767Z" fill="white"/>
<path d="M498.627 135.982L498.627 132.408L496.4 131.605L496.4 130.445L504.931 133.703L504.931 134.687L496.4 137.951L496.4 136.796L498.627 135.982ZM499.552 132.748L499.552 135.648L503.543 134.195L499.552 132.748ZM499.089 140.529L497.964 140.693L498.978 140.933L504.931 142.621L504.931 143.57L498.978 145.216L497.947 145.451L499.095 145.632L504.931 146.957L504.931 148.087L496.4 146.019L496.4 144.994L502.617 143.236L503.267 143.101L502.617 142.966L496.4 141.144L496.4 140.119L504.931 138.056L504.931 139.181L499.089 140.529ZM500.203 151.855C500.48 150.89 500.82 150.187 501.222 149.746C501.629 149.308 502.129 149.089 502.722 149.089C503.394 149.089 503.949 149.357 504.386 149.892C504.828 150.431 505.048 151.13 505.048 151.99C505.048 152.576 504.935 153.097 504.709 153.554C504.482 154.015 504.17 154.371 503.771 154.621C503.373 154.875 502.937 155.001 502.464 155.001L502.464 153.871C502.98 153.871 503.384 153.707 503.677 153.378C503.974 153.05 504.123 152.587 504.123 151.99C504.123 151.435 504 151.001 503.754 150.689C503.511 150.38 503.173 150.226 502.74 150.226C502.392 150.226 502.097 150.373 501.855 150.666C501.617 150.962 501.398 151.464 501.199 152.171C501 152.882 500.779 153.437 500.537 153.835C500.298 154.238 500.019 154.535 499.699 154.726C499.379 154.921 499.002 155.019 498.568 155.019C497.877 155.019 497.322 154.75 496.904 154.21C496.49 153.671 496.283 152.951 496.283 152.048C496.283 151.462 496.394 150.916 496.617 150.408C496.843 149.9 497.152 149.507 497.543 149.23C497.933 148.957 498.377 148.82 498.873 148.82L498.873 149.951C498.357 149.951 497.949 150.14 497.648 150.519C497.351 150.902 497.203 151.412 497.203 152.048C497.203 152.642 497.324 153.097 497.566 153.414C497.808 153.73 498.138 153.888 498.556 153.888C498.974 153.888 499.297 153.742 499.523 153.449C499.754 153.156 499.98 152.625 500.203 151.855ZM497.894 162.267L504.931 164.705L504.931 165.935L496.4 162.771L496.4 161.775L504.931 158.617L504.931 159.841L497.894 162.267ZM499.74 168.208L496.4 168.208L496.4 167.083L504.931 167.083L504.931 170.23C504.931 171.164 504.693 171.894 504.216 172.421C503.74 172.953 503.109 173.218 502.324 173.218C501.496 173.218 500.857 172.958 500.408 172.439C499.963 171.923 499.74 171.183 499.74 170.218L499.74 168.208ZM500.66 168.208L500.66 170.23C500.66 170.832 500.8 171.292 501.082 171.613C501.367 171.933 501.777 172.093 502.312 172.093C502.82 172.093 503.226 171.933 503.531 171.613C503.836 171.292 503.994 170.853 504.005 170.294L504.005 168.208L500.66 168.208ZM499.107 180.929C498.205 180.824 497.507 180.49 497.015 179.927C496.527 179.369 496.283 178.625 496.283 177.695C496.283 176.687 496.644 175.878 497.367 175.269C498.089 174.664 499.056 174.361 500.267 174.361L501.088 174.361C501.88 174.361 502.578 174.501 503.179 174.783C503.781 175.068 504.242 175.47 504.562 175.99C504.886 176.509 505.048 177.111 505.048 177.794C505.048 178.701 504.795 179.427 504.287 179.974C503.783 180.521 503.084 180.839 502.189 180.929L502.189 179.798C502.869 179.701 503.361 179.488 503.666 179.16C503.97 178.835 504.123 178.38 504.123 177.794C504.123 177.076 503.857 176.511 503.326 176.101C502.795 175.695 502.039 175.492 501.058 175.492L500.232 175.492C499.306 175.492 498.57 175.685 498.023 176.072C497.476 176.458 497.203 177 497.203 177.695C497.203 178.32 497.343 178.798 497.625 179.13C497.91 179.466 498.404 179.689 499.107 179.798L499.107 180.929Z" fill="white"/>
<path fill-rule="evenodd" clip-rule="evenodd" d="M12.356 189.334C6.05598 189.334 1.24278 185.138 0.915181 179.355C0.915181 179.09 0.915181 178.838 0.915181 178.561C0.822325 176.182 1.53233 173.841 2.93098 171.914C4.32964 169.988 6.33566 168.587 8.62638 167.939C8.62638 167.674 8.62638 167.41 8.62638 167.145C8.62638 166.881 8.62638 166.717 8.62638 166.515C8.82766 163.664 9.79567 160.92 11.4281 158.573C13.0604 156.227 15.2966 154.365 17.9 153.184C20.8226 151.922 24.0577 151.569 27.1838 152.171C30.3099 152.774 33.1822 154.303 35.4266 156.561C36.9036 158.012 38.1035 159.72 38.9672 161.601C40.2159 160.647 41.7429 160.13 43.3142 160.127C46.6532 160.127 50.156 162.483 50.8742 167.687C56.8844 169.212 60.173 173.08 60.173 178.687C60.11 185.541 56.0402 189.334 48.644 189.334H12.356ZM18.8198 155.515C16.5849 156.553 14.6805 158.188 13.3174 160.241C11.9542 162.293 11.1854 164.683 11.096 167.145C11.0973 167.672 11.1309 168.198 11.1968 168.72C11.2369 169.027 11.1627 169.338 10.9885 169.593C10.8142 169.849 10.552 170.031 10.2518 170.106C7.73178 170.736 3.40998 172.626 3.40998 178.573C3.40998 178.8 3.40998 179.014 3.40998 179.229C3.64938 183.626 7.40418 186.789 12.3308 186.789H48.644C54.6668 186.789 57.59 184.117 57.59 178.636C57.59 173.949 54.8306 171.013 49.3874 169.905C49.1131 169.849 48.8651 169.704 48.6826 169.491C48.5001 169.279 48.3934 169.012 48.3794 168.733C48.1148 164.184 45.4688 162.571 43.3394 162.571C42.6032 162.579 41.8787 162.757 41.2228 163.091C40.567 163.425 39.9976 163.907 39.5594 164.499C39.4223 164.677 39.24 164.816 39.0314 164.9C38.8228 164.984 38.5954 165.011 38.373 164.977C38.1505 164.944 37.9411 164.852 37.7664 164.71C37.5917 164.568 37.4581 164.382 37.3796 164.172C36.6124 161.976 35.354 159.985 33.7004 158.35C31.1783 155.836 27.761 154.427 24.2 154.432C22.3529 154.437 20.5249 154.805 18.8198 155.515Z" fill="#232F3E"/>
<path d="M22.0454 181.559C24.1361 179.565 26.8967 178.425 29.7851 178.362C32.6736 178.299 35.4813 179.318 37.6568 181.219L36.0062 183.109C34.301 181.624 32.1024 180.829 29.8415 180.88C27.5806 180.931 25.4203 181.825 23.7842 183.386L22.0454 181.559Z" fill="#232F3E"/>
<path d="M18.656 177.994C21.638 175.157 25.5727 173.538 29.6875 173.454C33.8023 173.37 37.7999 174.827 40.895 177.54L39.2318 179.43C36.6106 177.141 33.2296 175.912 29.7503 175.984C26.271 176.057 22.9439 177.425 20.42 179.821L18.656 177.994Z" fill="#232F3E"/>
<path d="M15.254 174.415C19.1175 170.726 24.2199 168.614 29.5603 168.493C34.9008 168.372 40.0938 170.25 44.1206 173.76L42.47 175.675C38.9132 172.58 34.3279 170.926 29.6142 171.038C24.9004 171.15 20.3988 173.02 16.9928 176.28L15.254 174.415Z" fill="#232F3E"/>
<path d="M11.1973 204H10.0723V195.469H11.1973V204ZM14.1152 197.66L14.1504 198.457C14.6348 197.848 15.2676 197.543 16.0488 197.543C17.3887 197.543 18.0645 198.299 18.0762 199.811V204H16.9922V199.805C16.9883 199.348 16.8828 199.01 16.6758 198.791C16.4727 198.572 16.1543 198.463 15.7207 198.463C15.3691 198.463 15.0605 198.557 14.7949 198.744C14.5293 198.932 14.3223 199.178 14.1738 199.482V204H13.0898V197.66H14.1152ZM21.1816 196.125V197.66H22.3652V198.498H21.1816V202.43C21.1816 202.684 21.2344 202.875 21.3398 203.004C21.4453 203.129 21.625 203.191 21.8789 203.191C22.0039 203.191 22.1758 203.168 22.3945 203.121V204C22.1094 204.078 21.832 204.117 21.5625 204.117C21.0781 204.117 20.7129 203.971 20.4668 203.678C20.2207 203.385 20.0977 202.969 20.0977 202.43V198.498H18.9434V197.66H20.0977V196.125H21.1816ZM26.2676 204.117C25.4082 204.117 24.709 203.836 24.1699 203.273C23.6309 202.707 23.3613 201.951 23.3613 201.006V200.807C23.3613 200.178 23.4805 199.617 23.7188 199.125C23.9609 198.629 24.2969 198.242 24.7266 197.965C25.1602 197.684 25.6289 197.543 26.1328 197.543C26.957 197.543 27.5977 197.814 28.0547 198.357C28.5117 198.9 28.7402 199.678 28.7402 200.689V201.141H24.4453C24.4609 201.766 24.6426 202.271 24.9902 202.658C25.3418 203.041 25.7871 203.232 26.3262 203.232C26.709 203.232 27.0332 203.154 27.2988 202.998C27.5645 202.842 27.7969 202.635 27.9961 202.377L28.6582 202.893C28.127 203.709 27.3301 204.117 26.2676 204.117ZM26.1328 198.434C25.6953 198.434 25.3281 198.594 25.0312 198.914C24.7344 199.23 24.5508 199.676 24.4805 200.25H27.6562V200.168C27.625 199.617 27.4766 199.191 27.2109 198.891C26.9453 198.586 26.5859 198.434 26.1328 198.434ZM33.0645 198.633C32.9004 198.605 32.7227 198.592 32.5312 198.592C31.8203 198.592 31.3379 198.895 31.084 199.5V204H30V197.66H31.0547L31.0723 198.393C31.4277 197.826 31.9316 197.543 32.584 197.543C32.7949 197.543 32.9551 197.57 33.0645 197.625V198.633ZM35.0918 197.66L35.127 198.457C35.6113 197.848 36.2441 197.543 37.0254 197.543C38.3652 197.543 39.041 198.299 39.0527 199.811V204H37.9688V199.805C37.9648 199.348 37.8594 199.01 37.6523 198.791C37.4492 198.572 37.1309 198.463 36.6973 198.463C36.3457 198.463 36.0371 198.557 35.7715 198.744C35.5059 198.932 35.2988 199.178 35.1504 199.482V204H34.0664V197.66H35.0918ZM43.3184 204.117C42.459 204.117 41.7598 203.836 41.2207 203.273C40.6816 202.707 40.4121 201.951 40.4121 201.006V200.807C40.4121 200.178 40.5312 199.617 40.7695 199.125C41.0117 198.629 41.3477 198.242 41.7773 197.965C42.2109 197.684 42.6797 197.543 43.1836 197.543C44.0078 197.543 44.6484 197.814 45.1055 198.357C45.5625 198.9 45.791 199.678 45.791 200.689V201.141H41.4961C41.5117 201.766 41.6934 202.271 42.041 202.658C42.3926 203.041 42.8379 203.232 43.377 203.232C43.7598 203.232 44.084 203.154 44.3496 202.998C44.6152 202.842 44.8477 202.635 45.0469 202.377L45.709 202.893C45.1777 203.709 44.3809 204.117 43.3184 204.117ZM43.1836 198.434C42.7461 198.434 42.3789 198.594 42.082 198.914C41.7852 199.23 41.6016 199.676 41.5312 200.25H44.707V200.168C44.6758 199.617 44.5273 199.191 44.2617 198.891C43.9961 198.586 43.6367 198.434 43.1836 198.434ZM48.5215 196.125V197.66H49.7051V198.498H48.5215V202.43C48.5215 202.684 48.5742 202.875 48.6797 203.004C48.7852 203.129 48.9648 203.191 49.2188 203.191C49.3438 203.191 49.5156 203.168 49.7344 203.121V204C49.4492 204.078 49.1719 204.117 48.9023 204.117C48.418 204.117 48.0527 203.971 47.8066 203.678C47.5605 203.385 47.4375 202.969 47.4375 202.43V198.498H46.2832V197.66H47.4375V196.125H48.5215Z" fill="black"/>
<path d="M70.5 179.5L118.5 179.5" stroke="#F94F24" stroke-dasharray="6 2"/>
<path d="M110.5 171.5L118.5 179L110.5 186.5" stroke="#F94F24" stroke-dasharray="6 2"/>
<path d="M310.998 101.216L393.618 115.784" stroke="#F94F24" stroke-dasharray="6 2"/>
<path d="M387 108L395 116L387 124" stroke="#F94F24" stroke-dasharray="6 2"/>
<g clip-path="url(#clip0)">
<mask id="mask0" mask-type="alpha" maskUnits="userSpaceOnUse" x="124" y="146" width="60" height="71">
<rect x="124" y="146" width="59.37" height="70.53" fill="white"/>
</mask>
<g mask="url(#mask0)">
<path fill-rule="evenodd" clip-rule="evenodd" d="M160.669 191.311C161.471 189.786 162.114 188.183 162.588 186.526L164.212 187C163.707 188.761 163.024 190.466 162.174 192.089L160.669 191.311ZM159.291 163.352L160.703 162.431C163.494 166.624 165.127 171.48 165.438 176.508L163.747 176.609C163.454 171.875 161.917 167.302 159.291 163.352ZM148.689 153.807L149.459 152.302C150.919 153.021 152.311 153.87 153.618 154.839L152.595 156.208C151.368 155.292 150.061 154.488 148.689 153.807Z" fill="#7B49D7"/>
<path d="M150.076 172.838L150.6 171.232C154.38 172.559 157.816 174.71 160.661 177.531L159.52 178.756C156.851 176.106 153.625 174.084 150.076 172.838Z" fill="#7B49D7"/>
<path d="M165.429 186.442L166.943 185.689C167.36 186.515 167.735 187.362 168.067 188.226L166.486 188.851C166.173 188.006 165.818 187.228 165.429 186.442Z" fill="#7B49D7"/>
<path d="M161.151 190.897C163.177 190.215 165.072 189.194 166.757 187.879L167.797 189.215C165.962 190.645 163.898 191.754 161.692 192.495L161.151 190.897Z" fill="#7B49D7"/>
<path d="M134.427 170.437C136.301 169.978 138.221 169.726 140.15 169.685L140.193 171.375C138.38 171.413 136.577 171.648 134.815 172.077L134.427 170.437Z" fill="#7B49D7"/>
<path d="M147.26 165.779C148.501 163.763 150.031 161.94 151.8 160.368L152.916 161.645C151.264 163.113 149.837 164.816 148.681 166.7L147.26 165.779Z" fill="#7B49D7"/>
<path d="M160.678 155.084C161.95 154.607 163.259 154.233 164.592 153.968L164.905 155.659C163.661 155.895 162.44 156.234 161.253 156.673L160.678 155.084Z" fill="#7B49D7"/>
<path d="M142.34 180.532C142.368 179.186 142.544 177.848 142.864 176.541C142.923 176.245 142.991 175.941 143.05 175.628L144.741 175.958C144.682 176.279 144.614 176.584 144.555 176.888C144.26 178.081 144.095 179.303 144.065 180.532C144.103 183.812 144.787 187.052 146.077 190.069L144.513 190.677C143.131 187.47 142.393 184.023 142.34 180.532Z" fill="#7B49D7"/>
<path fill-rule="evenodd" clip-rule="evenodd" d="M139.924 187.446C135.96 183.482 133.733 178.106 133.733 172.5C133.733 172.069 133.733 171.655 133.775 171.223C134.037 166.898 135.621 162.757 138.315 159.362C141.008 155.967 144.68 153.482 148.833 152.243C151.545 151.437 154.391 151.183 157.202 151.496C160.014 151.81 162.734 152.685 165.201 154.069C168.246 155.777 170.821 158.212 172.696 161.158C174.57 164.103 175.686 167.467 175.943 170.949C176.2 174.431 175.59 177.922 174.169 181.111C172.747 184.3 170.558 187.087 167.796 189.223C164.089 192.073 159.546 193.624 154.869 193.636C149.264 193.636 143.888 191.41 139.924 187.446ZM149.315 153.9C145.498 155.039 142.123 157.323 139.646 160.442C137.17 163.561 135.71 167.366 135.466 171.342C135.466 171.739 135.424 172.12 135.424 172.5C135.424 177.657 137.473 182.603 141.119 186.25C144.766 189.897 149.712 191.946 154.869 191.946C157.004 191.949 159.125 191.594 161.143 190.897C163.172 190.217 165.07 189.196 166.757 187.879C169.964 185.397 172.315 181.975 173.481 178.091C174.646 174.207 174.569 170.056 173.259 166.218C171.949 162.381 169.472 159.049 166.175 156.688C162.877 154.328 158.925 153.057 154.869 153.055C152.986 153.061 151.115 153.346 149.315 153.9Z" fill="#7B49D7"/>
<path fill-rule="evenodd" clip-rule="evenodd" d="M154.842 162.086C154.226 161.675 153.746 161.089 153.463 160.404C153.18 159.719 153.106 158.966 153.251 158.239C153.396 157.512 153.754 156.845 154.279 156.322C154.803 155.798 155.471 155.442 156.198 155.298C156.926 155.155 157.679 155.23 158.363 155.515C159.047 155.8 159.632 156.281 160.042 156.898C160.453 157.515 160.671 158.24 160.669 158.981C160.669 159.473 160.572 159.959 160.384 160.413C160.196 160.867 159.92 161.28 159.572 161.627C159.224 161.974 158.811 162.249 158.357 162.436C157.902 162.624 157.415 162.719 156.924 162.718C156.183 162.718 155.458 162.498 154.842 162.086ZM155.783 157.273C155.445 157.499 155.181 157.82 155.026 158.195C154.87 158.571 154.83 158.984 154.909 159.382C154.988 159.781 155.184 160.147 155.471 160.434C155.759 160.721 156.125 160.917 156.523 160.996C156.922 161.076 157.335 161.035 157.71 160.879C158.086 160.724 158.406 160.461 158.632 160.123C158.858 159.785 158.978 159.388 158.978 158.981C158.978 158.436 158.762 157.914 158.377 157.529C157.991 157.143 157.469 156.927 156.924 156.927C156.518 156.927 156.12 157.047 155.783 157.273Z" fill="#7B49D7"/>
<path fill-rule="evenodd" clip-rule="evenodd" d="M143.311 173.881C142.695 173.469 142.215 172.885 141.932 172.2C141.648 171.516 141.574 170.763 141.719 170.036C141.863 169.31 142.22 168.642 142.744 168.118C143.267 167.595 143.935 167.238 144.661 167.093C145.388 166.949 146.141 167.023 146.825 167.307C147.51 167.59 148.095 168.07 148.506 168.686C148.918 169.302 149.137 170.026 149.137 170.767C149.135 171.759 148.74 172.711 148.038 173.413C147.336 174.115 146.385 174.51 145.392 174.512C144.651 174.512 143.927 174.293 143.311 173.881ZM144.251 169.059C143.913 169.284 143.649 169.605 143.494 169.981C143.338 170.356 143.298 170.769 143.377 171.168C143.456 171.566 143.652 171.932 143.939 172.22C144.227 172.507 144.593 172.703 144.991 172.782C145.39 172.861 145.803 172.82 146.178 172.665C146.554 172.509 146.874 172.246 147.1 171.908C147.326 171.57 147.446 171.173 147.446 170.767C147.449 170.496 147.397 170.227 147.295 169.975C147.193 169.724 147.042 169.496 146.851 169.303C146.66 169.111 146.432 168.958 146.182 168.853C145.932 168.749 145.663 168.695 145.392 168.695V168.712C144.986 168.712 144.588 168.833 144.251 169.059Z" fill="#7B49D7"/>
<path fill-rule="evenodd" clip-rule="evenodd" d="M161.9 184.723C161.282 184.312 160.801 183.728 160.516 183.043C160.232 182.358 160.157 181.604 160.301 180.877C160.446 180.15 160.802 179.482 161.327 178.957C161.851 178.433 162.519 178.076 163.246 177.932C163.974 177.788 164.728 177.863 165.412 178.147C166.097 178.432 166.682 178.913 167.093 179.53C167.504 180.147 167.722 180.873 167.72 181.614C167.72 182.605 167.327 183.556 166.626 184.257C165.925 184.957 164.975 185.351 163.984 185.351C163.242 185.353 162.517 185.134 161.9 184.723ZM162.84 179.902C162.501 180.127 162.236 180.447 162.079 180.822C161.923 181.197 161.881 181.611 161.959 182.01C162.037 182.409 162.232 182.776 162.519 183.064C162.806 183.352 163.172 183.549 163.571 183.628C163.97 183.708 164.383 183.668 164.759 183.513C165.135 183.358 165.457 183.094 165.683 182.756C165.909 182.418 166.03 182.021 166.03 181.614C166.03 181.071 165.814 180.549 165.431 180.164C165.047 179.779 164.527 179.562 163.984 179.56C163.577 179.558 163.179 179.677 162.84 179.902Z" fill="#7B49D7"/>
<path d="M131.869 206.823C131.764 207.725 131.43 208.423 130.867 208.915C130.309 209.403 129.564 209.647 128.635 209.647C127.627 209.647 126.818 209.286 126.209 208.563C125.604 207.841 125.301 206.874 125.301 205.663V204.843C125.301 204.05 125.441 203.352 125.723 202.751C126.008 202.149 126.41 201.688 126.93 201.368C127.449 201.044 128.051 200.882 128.734 200.882C129.641 200.882 130.367 201.135 130.914 201.643C131.461 202.147 131.779 202.846 131.869 203.741H130.738C130.641 203.061 130.428 202.569 130.1 202.264C129.775 201.96 129.32 201.807 128.734 201.807C128.016 201.807 127.451 202.073 127.041 202.604C126.635 203.135 126.432 203.891 126.432 204.872V205.698C126.432 206.624 126.625 207.36 127.012 207.907C127.398 208.454 127.939 208.727 128.635 208.727C129.26 208.727 129.738 208.587 130.07 208.305C130.406 208.02 130.629 207.526 130.738 206.823H131.869ZM134.418 209.53H133.334V200.53H134.418V209.53ZM135.871 206.302C135.871 205.68 135.992 205.122 136.234 204.626C136.48 204.13 136.82 203.747 137.254 203.477C137.691 203.208 138.189 203.073 138.748 203.073C139.611 203.073 140.309 203.372 140.84 203.969C141.375 204.567 141.643 205.362 141.643 206.354V206.43C141.643 207.048 141.523 207.602 141.285 208.094C141.051 208.583 140.713 208.964 140.271 209.237C139.834 209.51 139.33 209.647 138.76 209.647C137.9 209.647 137.203 209.348 136.668 208.751C136.137 208.153 135.871 207.362 135.871 206.378V206.302ZM136.961 206.43C136.961 207.134 137.123 207.698 137.447 208.124C137.775 208.55 138.213 208.762 138.76 208.762C139.311 208.762 139.748 208.548 140.072 208.118C140.396 207.684 140.559 207.079 140.559 206.302C140.559 205.606 140.393 205.044 140.061 204.614C139.732 204.18 139.295 203.964 138.748 203.964C138.213 203.964 137.781 204.177 137.453 204.602C137.125 205.028 136.961 205.637 136.961 206.43ZM146.916 208.903C146.494 209.399 145.875 209.647 145.059 209.647C144.383 209.647 143.867 209.452 143.512 209.061C143.16 208.667 142.982 208.085 142.979 207.315V203.19H144.062V207.286C144.062 208.247 144.453 208.727 145.234 208.727C146.062 208.727 146.613 208.419 146.887 207.802V203.19H147.971V209.53H146.939L146.916 208.903ZM149.359 206.307C149.359 205.335 149.59 204.553 150.051 203.964C150.512 203.37 151.115 203.073 151.861 203.073C152.604 203.073 153.191 203.327 153.625 203.835V200.53H154.709V209.53H153.713L153.66 208.85C153.227 209.382 152.623 209.647 151.85 209.647C151.115 209.647 150.516 209.346 150.051 208.745C149.59 208.143 149.359 207.358 149.359 206.389V206.307ZM150.443 206.43C150.443 207.149 150.592 207.712 150.889 208.118C151.186 208.524 151.596 208.727 152.119 208.727C152.807 208.727 153.309 208.419 153.625 207.802V204.889C153.301 204.292 152.803 203.993 152.131 203.993C151.6 203.993 151.186 204.198 150.889 204.608C150.592 205.018 150.443 205.626 150.443 206.43ZM161.271 205.762H157.691V209.53H156.566V200.999H161.852V201.925H157.691V204.843H161.271V205.762ZM165.941 204.163C165.777 204.135 165.6 204.122 165.408 204.122C164.697 204.122 164.215 204.425 163.961 205.03V209.53H162.877V203.19H163.932L163.949 203.923C164.305 203.356 164.809 203.073 165.461 203.073C165.672 203.073 165.832 203.1 165.941 203.155V204.163ZM166.539 206.302C166.539 205.68 166.66 205.122 166.902 204.626C167.148 204.13 167.488 203.747 167.922 203.477C168.359 203.208 168.857 203.073 169.416 203.073C170.279 203.073 170.977 203.372 171.508 203.969C172.043 204.567 172.311 205.362 172.311 206.354V206.43C172.311 207.048 172.191 207.602 171.953 208.094C171.719 208.583 171.381 208.964 170.939 209.237C170.502 209.51 169.998 209.647 169.428 209.647C168.568 209.647 167.871 209.348 167.336 208.751C166.805 208.153 166.539 207.362 166.539 206.378V206.302ZM167.629 206.43C167.629 207.134 167.791 207.698 168.115 208.124C168.443 208.55 168.881 208.762 169.428 208.762C169.979 208.762 170.416 208.548 170.74 208.118C171.064 207.684 171.227 207.079 171.227 206.302C171.227 205.606 171.061 205.044 170.729 204.614C170.4 204.18 169.963 203.964 169.416 203.964C168.881 203.964 168.449 204.177 168.121 204.602C167.793 205.028 167.629 205.637 167.629 206.43ZM174.695 203.19L174.73 203.987C175.215 203.378 175.848 203.073 176.629 203.073C177.969 203.073 178.645 203.829 178.656 205.341V209.53H177.572V205.335C177.568 204.878 177.463 204.54 177.256 204.321C177.053 204.102 176.734 203.993 176.301 203.993C175.949 203.993 175.641 204.087 175.375 204.274C175.109 204.462 174.902 204.708 174.754 205.012V209.53H173.67V203.19H174.695ZM181.762 201.655V203.19H182.945V204.028H181.762V207.96C181.762 208.214 181.814 208.405 181.92 208.534C182.025 208.659 182.205 208.721 182.459 208.721C182.584 208.721 182.756 208.698 182.975 208.651V209.53C182.689 209.608 182.412 209.647 182.143 209.647C181.658 209.647 181.293 209.501 181.047 209.208C180.801 208.915 180.678 208.499 180.678 207.96V204.028H179.523V203.19H180.678V201.655H181.762Z" fill="black"/>
</g>
</g>
<path fill-rule="evenodd" clip-rule="evenodd" d="M285.902 120.996C285.754 120.995 285.61 120.953 285.485 120.874C285.36 120.795 285.26 120.683 285.196 120.55L271.532 92.0492H265.751C265.543 92.0492 265.344 91.9668 265.197 91.8201C265.05 91.6734 264.967 91.4744 264.967 91.2669V82.6612C264.967 82.4538 265.05 82.2548 265.197 82.108C265.344 81.9613 265.543 81.8789 265.751 81.8789H277.831C277.979 81.8793 278.124 81.9214 278.248 82.0003C278.373 82.0792 278.473 82.1917 278.537 82.3248L292.138 110.825H295.566C295.774 110.825 295.974 110.908 296.121 111.054C296.268 111.201 296.35 111.4 296.35 111.608V120.213C296.35 120.421 296.268 120.62 296.121 120.766C295.974 120.913 295.774 120.996 295.566 120.996H285.902ZM294.782 119.431V112.39H291.644C291.496 112.389 291.351 112.347 291.227 112.268C291.102 112.19 291.002 112.077 290.938 111.944L277.337 83.4436H266.544V90.4846H272.034C272.182 90.485 272.327 90.5271 272.452 90.606C272.577 90.6849 272.677 90.7974 272.74 90.9305L286.396 119.431H294.782Z" fill="#FD591C"/>
<path fill-rule="evenodd" clip-rule="evenodd" d="M259.468 120.996C259.335 120.996 259.204 120.962 259.087 120.898C258.971 120.834 258.872 120.741 258.802 120.628C258.727 120.512 258.684 120.379 258.677 120.242C258.67 120.105 258.7 119.968 258.763 119.846L269.43 97.6195C269.494 97.4864 269.594 97.3739 269.719 97.295C269.844 97.2161 269.988 97.174 270.136 97.1736C270.283 97.1733 270.427 97.2142 270.552 97.2917C270.677 97.3691 270.777 97.48 270.842 97.6117L275.948 108.087C276 108.193 276.027 108.31 276.027 108.427C276.027 108.545 276 108.662 275.948 108.768L270.379 120.503C270.322 120.646 270.224 120.769 270.097 120.857C269.97 120.944 269.82 120.993 269.665 120.996H259.468ZM269.171 119.431L274.372 108.478L270.144 99.7553L260.723 119.431H269.171Z" fill="#FD591C"/>
<path d="M238.674 137.159L238.838 138.284L239.078 137.27L240.766 131.317H241.715L243.361 137.27L243.596 138.302L243.777 137.153L245.102 131.317H246.232L244.164 139.848H243.139L241.381 133.632L241.246 132.981L241.111 133.632L239.289 139.848H238.264L236.201 131.317H237.326L238.674 137.159ZM249.76 139.966C248.9 139.966 248.201 139.684 247.662 139.122C247.123 138.555 246.854 137.8 246.854 136.854V136.655C246.854 136.026 246.973 135.466 247.211 134.973C247.453 134.477 247.789 134.091 248.219 133.813C248.652 133.532 249.121 133.391 249.625 133.391C250.449 133.391 251.09 133.663 251.547 134.206C252.004 134.749 252.232 135.526 252.232 136.538V136.989H247.938C247.953 137.614 248.135 138.12 248.482 138.507C248.834 138.889 249.279 139.081 249.818 139.081C250.201 139.081 250.525 139.003 250.791 138.846C251.057 138.69 251.289 138.483 251.488 138.225L252.15 138.741C251.619 139.557 250.822 139.966 249.76 139.966ZM249.625 134.282C249.188 134.282 248.82 134.442 248.523 134.762C248.227 135.079 248.043 135.524 247.973 136.098H251.148V136.016C251.117 135.466 250.969 135.04 250.703 134.739C250.438 134.434 250.078 134.282 249.625 134.282ZM258.859 136.749C258.859 137.718 258.637 138.497 258.191 139.087C257.746 139.673 257.148 139.966 256.398 139.966C255.598 139.966 254.979 139.682 254.541 139.116L254.488 139.848H253.492V130.848H254.576V134.206C255.014 133.663 255.617 133.391 256.387 133.391C257.156 133.391 257.76 133.682 258.197 134.264C258.639 134.846 258.859 135.643 258.859 136.655V136.749ZM257.775 136.626C257.775 135.887 257.633 135.317 257.348 134.915C257.062 134.512 256.652 134.311 256.117 134.311C255.402 134.311 254.889 134.643 254.576 135.307V138.05C254.908 138.714 255.426 139.046 256.129 139.046C256.648 139.046 257.053 138.844 257.342 138.442C257.631 138.04 257.775 137.434 257.775 136.626ZM261.408 139.848H260.324V133.509H261.408V139.848ZM260.236 131.827C260.236 131.651 260.289 131.503 260.395 131.382C260.504 131.26 260.664 131.2 260.875 131.2C261.086 131.2 261.246 131.26 261.355 131.382C261.465 131.503 261.52 131.651 261.52 131.827C261.52 132.003 261.465 132.149 261.355 132.266C261.246 132.384 261.086 132.442 260.875 132.442C260.664 132.442 260.504 132.384 260.395 132.266C260.289 132.149 260.236 132.003 260.236 131.827ZM264.174 133.509L264.209 134.305C264.693 133.696 265.326 133.391 266.107 133.391C267.447 133.391 268.123 134.147 268.135 135.659V139.848H267.051V135.653C267.047 135.196 266.941 134.858 266.734 134.639C266.531 134.421 266.213 134.311 265.779 134.311C265.428 134.311 265.119 134.405 264.854 134.593C264.588 134.78 264.381 135.026 264.232 135.331V139.848H263.148V133.509H264.174ZM271.844 138.26L273.32 133.509H274.48L271.932 140.827C271.537 141.882 270.91 142.409 270.051 142.409L269.846 142.391L269.441 142.315V141.436L269.734 141.46C270.102 141.46 270.387 141.385 270.59 141.237C270.797 141.089 270.967 140.817 271.1 140.423L271.34 139.778L269.078 133.509H270.262L271.844 138.26ZM279.73 138.928H283.773V139.848H278.6V131.317H279.73V138.928ZM288.801 139.848C288.738 139.723 288.688 139.501 288.648 139.18C288.145 139.704 287.543 139.966 286.844 139.966C286.219 139.966 285.705 139.79 285.303 139.438C284.904 139.083 284.705 138.634 284.705 138.091C284.705 137.43 284.955 136.919 285.455 136.555C285.959 136.188 286.666 136.005 287.576 136.005H288.631V135.507C288.631 135.128 288.518 134.827 288.291 134.604C288.064 134.378 287.73 134.264 287.289 134.264C286.902 134.264 286.578 134.362 286.316 134.557C286.055 134.753 285.924 134.989 285.924 135.266H284.834C284.834 134.95 284.945 134.645 285.168 134.352C285.395 134.055 285.699 133.821 286.082 133.649C286.469 133.477 286.893 133.391 287.354 133.391C288.084 133.391 288.656 133.575 289.07 133.942C289.484 134.305 289.699 134.807 289.715 135.448V138.366C289.715 138.948 289.789 139.411 289.938 139.755V139.848H288.801ZM287.002 139.022C287.342 139.022 287.664 138.934 287.969 138.759C288.273 138.583 288.494 138.354 288.631 138.073V136.772H287.781C286.453 136.772 285.789 137.161 285.789 137.938C285.789 138.278 285.902 138.544 286.129 138.735C286.355 138.927 286.646 139.022 287.002 139.022ZM292.434 133.509L292.463 134.212C292.928 133.665 293.555 133.391 294.344 133.391C295.23 133.391 295.834 133.731 296.154 134.411C296.365 134.106 296.639 133.86 296.975 133.673C297.314 133.485 297.715 133.391 298.176 133.391C299.566 133.391 300.273 134.128 300.297 135.6V139.848H299.213V135.665C299.213 135.212 299.109 134.874 298.902 134.651C298.695 134.425 298.348 134.311 297.859 134.311C297.457 134.311 297.123 134.432 296.857 134.675C296.592 134.913 296.438 135.235 296.395 135.641V139.848H295.305V135.694C295.305 134.772 294.854 134.311 293.951 134.311C293.24 134.311 292.754 134.614 292.492 135.219V139.848H291.408V133.509H292.434ZM307.305 136.749C307.305 137.718 307.082 138.497 306.637 139.087C306.191 139.673 305.594 139.966 304.844 139.966C304.043 139.966 303.424 139.682 302.986 139.116L302.934 139.848H301.938V130.848H303.021V134.206C303.459 133.663 304.062 133.391 304.832 133.391C305.602 133.391 306.205 133.682 306.643 134.264C307.084 134.846 307.305 135.643 307.305 136.655V136.749ZM306.221 136.626C306.221 135.887 306.078 135.317 305.793 134.915C305.508 134.512 305.098 134.311 304.562 134.311C303.848 134.311 303.334 134.643 303.021 135.307V138.05C303.354 138.714 303.871 139.046 304.574 139.046C305.094 139.046 305.498 138.844 305.787 138.442C306.076 138.04 306.221 137.434 306.221 136.626ZM308.412 136.626C308.412 135.653 308.643 134.872 309.104 134.282C309.564 133.688 310.168 133.391 310.914 133.391C311.656 133.391 312.244 133.645 312.678 134.153V130.848H313.762V139.848H312.766L312.713 139.169C312.279 139.7 311.676 139.966 310.902 139.966C310.168 139.966 309.568 139.665 309.104 139.063C308.643 138.462 308.412 137.677 308.412 136.708V136.626ZM309.496 136.749C309.496 137.468 309.645 138.03 309.941 138.436C310.238 138.843 310.648 139.046 311.172 139.046C311.859 139.046 312.361 138.737 312.678 138.12V135.208C312.354 134.61 311.855 134.311 311.184 134.311C310.652 134.311 310.238 134.516 309.941 134.927C309.645 135.337 309.496 135.944 309.496 136.749ZM319.363 139.848C319.301 139.723 319.25 139.501 319.211 139.18C318.707 139.704 318.105 139.966 317.406 139.966C316.781 139.966 316.268 139.79 315.865 139.438C315.467 139.083 315.268 138.634 315.268 138.091C315.268 137.43 315.518 136.919 316.018 136.555C316.521 136.188 317.229 136.005 318.139 136.005H319.193V135.507C319.193 135.128 319.08 134.827 318.854 134.604C318.627 134.378 318.293 134.264 317.852 134.264C317.465 134.264 317.141 134.362 316.879 134.557C316.617 134.753 316.486 134.989 316.486 135.266H315.396C315.396 134.95 315.508 134.645 315.73 134.352C315.957 134.055 316.262 133.821 316.645 133.649C317.031 133.477 317.455 133.391 317.916 133.391C318.646 133.391 319.219 133.575 319.633 133.942C320.047 134.305 320.262 134.807 320.277 135.448V138.366C320.277 138.948 320.352 139.411 320.5 139.755V139.848H319.363ZM317.564 139.022C317.904 139.022 318.227 138.934 318.531 138.759C318.836 138.583 319.057 138.354 319.193 138.073V136.772H318.344C317.016 136.772 316.352 137.161 316.352 137.938C316.352 138.278 316.465 138.544 316.691 138.735C316.918 138.927 317.209 139.022 317.564 139.022Z" fill="black"/>
<path d="M353.8 185L393 185" stroke="#F94F24" stroke-dasharray="6 2"/>
<path d="M309.5 121.5L324.596 124.366C338.754 127.055 349 139.429 349 153.84V169" stroke="#F94F24" stroke-dasharray="6 2"/>
<path d="M353 185V185C350.791 185 349 183.209 349 181V168" stroke="#F94F24" stroke-dasharray="6 2"/>
<path d="M386 177L394 185L386 193" stroke="#F94F24" stroke-dasharray="6 2"/>
<path fill-rule="evenodd" clip-rule="evenodd" d="M436.78 119.569C437.603 119.341 438.397 119.022 439.147 118.616C439.366 118.75 439.553 118.93 439.695 119.143C439.837 119.356 439.931 119.597 439.97 119.85C439.97 121.104 437.285 122.468 433.299 123.023C432.07 123.188 430.831 123.275 429.59 123.283H428.898C423.306 123.153 419.21 121.405 419.21 119.856C419.249 119.604 419.343 119.363 419.485 119.15C419.627 118.937 419.814 118.757 420.033 118.623C422.206 119.822 425.728 120.535 429.59 120.535H429.666L430.054 119.164C429.901 119.164 429.749 119.164 429.59 119.164C425.784 119.164 422.255 118.417 420.379 117.238C419.632 116.752 419.217 116.224 419.21 115.765V112.591C421.327 114.195 425.549 115.031 429.59 115.031C430.137 115.031 430.683 115.031 431.216 114.983L431.611 113.613C430.919 113.661 430.275 113.681 429.59 113.681C423.652 113.681 419.21 111.879 419.21 110.254C419.249 110.002 419.343 109.761 419.485 109.548C419.627 109.335 419.814 109.155 420.033 109.021C421.943 110.083 424.877 110.748 428.206 110.898L428.24 109.528C424.967 109.37 422.012 108.671 420.379 107.636C419.639 107.163 419.224 106.629 419.21 106.162V102.996C421.327 104.6 425.549 105.436 429.59 105.436H429.742L430.476 104.065H429.59C423.652 104.065 419.21 102.263 419.21 100.638C419.21 99.0139 423.652 97.2113 429.59 97.2113C431.59 97.203 433.583 97.4331 435.527 97.8967H439.327C437.25 96.6425 433.666 95.8406 429.59 95.8406C423.888 95.8406 417.826 97.5129 417.826 100.638V106.156C417.847 106.546 417.95 106.929 418.13 107.277C418.31 107.625 418.563 107.932 418.871 108.177C418.559 108.427 418.304 108.739 418.124 109.094C417.944 109.448 417.842 109.837 417.826 110.234V115.717C417.842 116.113 417.943 116.502 418.123 116.857C418.304 117.211 418.558 117.524 418.871 117.773C418.559 118.022 418.304 118.335 418.124 118.689C417.944 119.044 417.842 119.432 417.826 119.829V125.312C417.822 125.36 417.822 125.408 417.826 125.456C418.013 128.465 423.964 130.082 429.59 130.082C435.216 130.082 441.167 128.465 441.354 125.442C441.361 125.395 441.361 125.346 441.354 125.298V119.815C441.341 119.418 441.241 119.028 441.06 118.673C440.88 118.318 440.623 118.006 440.309 117.759C440.621 117.51 440.876 117.198 441.056 116.843C441.237 116.488 441.338 116.1 441.354 115.703V115.045L436.78 119.569ZM429.59 128.753C423.652 128.753 419.21 126.964 419.21 125.326V122.173C421.327 123.763 425.549 124.599 429.59 124.599C433.631 124.599 437.853 123.763 439.97 122.173V125.326C439.97 126.943 435.527 128.753 429.59 128.753Z" fill="#7B49D7"/>
<path fill-rule="evenodd" clip-rule="evenodd" d="M421.286 107.019C420.808 107.019 420.421 106.636 420.421 106.162C420.421 105.689 420.808 105.306 421.286 105.306C421.763 105.306 422.151 105.689 422.151 106.162C422.151 106.636 421.763 107.019 421.286 107.019Z" fill="#7B49D7"/>
<path fill-rule="evenodd" clip-rule="evenodd" d="M421.286 116.615C420.808 116.615 420.421 116.231 420.421 115.758C420.421 115.285 420.808 114.901 421.286 114.901C421.763 114.901 422.151 115.285 422.151 115.758C422.151 116.231 421.763 116.615 421.286 116.615Z" fill="#7B49D7"/>
<path fill-rule="evenodd" clip-rule="evenodd" d="M421.286 126.21C420.808 126.21 420.421 125.826 420.421 125.353C420.421 124.88 420.808 124.497 421.286 124.497C421.763 124.497 422.151 124.88 422.151 125.353C422.151 125.826 421.763 126.21 421.286 126.21Z" fill="#7B49D7"/>
<path fill-rule="evenodd" clip-rule="evenodd" d="M430.974 122.488C430.839 122.411 430.734 122.292 430.677 122.149C430.619 122.006 430.611 121.848 430.656 121.7L434.545 108.877H430.628C430.507 108.878 430.388 108.848 430.282 108.79C430.177 108.732 430.088 108.647 430.026 108.544C429.964 108.442 429.93 108.325 429.927 108.205C429.925 108.085 429.954 107.967 430.012 107.862L434.164 99.6376C434.222 99.5245 434.31 99.4295 434.418 99.363C434.527 99.2964 434.652 99.261 434.78 99.2606H443.776C443.888 99.2551 444 99.2767 444.102 99.3235C444.204 99.3703 444.292 99.4409 444.361 99.5293C444.429 99.6176 444.474 99.7211 444.493 99.8307C444.512 99.9403 444.503 100.053 444.468 100.158L442.697 105.429H446.579C446.714 105.43 446.846 105.469 446.959 105.543C447.071 105.617 447.16 105.723 447.213 105.846C447.266 105.969 447.281 106.105 447.257 106.237C447.233 106.369 447.17 106.49 447.077 106.587L431.853 122.351C431.786 122.426 431.704 122.486 431.612 122.526C431.52 122.566 431.42 122.586 431.32 122.584C431.198 122.583 431.079 122.55 430.974 122.488ZM435.472 107.506C435.579 107.506 435.685 107.531 435.781 107.578C435.878 107.626 435.961 107.695 436.026 107.78C436.09 107.865 436.134 107.964 436.153 108.069C436.172 108.173 436.166 108.281 436.136 108.383L432.808 119.349L444.925 106.807H441.7C441.587 106.813 441.474 106.791 441.372 106.744C441.269 106.697 441.18 106.625 441.112 106.536C441.043 106.447 440.998 106.342 440.98 106.232C440.962 106.121 440.972 106.008 441.008 105.902L442.78 100.638H435.167L431.749 107.506H435.472Z" fill="#7B49D7"/>
<path d="M401.789 143.014V134.483H404.197C404.939 134.483 405.596 134.647 406.166 134.975C406.736 135.303 407.176 135.77 407.484 136.376C407.797 136.981 407.955 137.677 407.959 138.462V139.007C407.959 139.811 407.803 140.516 407.49 141.122C407.182 141.727 406.738 142.192 406.16 142.516C405.586 142.841 404.916 143.007 404.15 143.014H401.789ZM402.914 135.409V142.094H404.098C404.965 142.094 405.639 141.825 406.119 141.286C406.604 140.747 406.846 139.979 406.846 138.983V138.485C406.846 137.516 406.617 136.764 406.16 136.229C405.707 135.69 405.062 135.417 404.227 135.409H402.914ZM411.568 141.427L413.045 136.675H414.205L411.656 143.993C411.262 145.048 410.635 145.575 409.775 145.575L409.57 145.557L409.166 145.481V144.602L409.459 144.626C409.826 144.626 410.111 144.552 410.314 144.403C410.521 144.255 410.691 143.983 410.824 143.589L411.064 142.944L408.803 136.675H409.986L411.568 141.427ZM416.203 136.675L416.238 137.471C416.723 136.862 417.355 136.557 418.137 136.557C419.477 136.557 420.152 137.313 420.164 138.825V143.014H419.08V138.819C419.076 138.362 418.971 138.024 418.764 137.805C418.561 137.587 418.242 137.477 417.809 137.477C417.457 137.477 417.148 137.571 416.883 137.759C416.617 137.946 416.41 138.192 416.262 138.497V143.014H415.178V136.675H416.203ZM425.713 143.014C425.65 142.889 425.6 142.667 425.561 142.346C425.057 142.87 424.455 143.132 423.756 143.132C423.131 143.132 422.617 142.956 422.215 142.604C421.816 142.249 421.617 141.8 421.617 141.257C421.617 140.596 421.867 140.085 422.367 139.721C422.871 139.354 423.578 139.171 424.488 139.171H425.543V138.673C425.543 138.294 425.43 137.993 425.203 137.77C424.977 137.544 424.643 137.43 424.201 137.43C423.814 137.43 423.49 137.528 423.229 137.723C422.967 137.919 422.836 138.155 422.836 138.432H421.746C421.746 138.116 421.857 137.811 422.08 137.518C422.307 137.221 422.611 136.987 422.994 136.815C423.381 136.643 423.805 136.557 424.266 136.557C424.996 136.557 425.568 136.741 425.982 137.108C426.396 137.471 426.611 137.973 426.627 138.614V141.532C426.627 142.114 426.701 142.577 426.85 142.921V143.014H425.713ZM423.914 142.188C424.254 142.188 424.576 142.1 424.881 141.925C425.186 141.749 425.406 141.52 425.543 141.239V139.938H424.693C423.365 139.938 422.701 140.327 422.701 141.104C422.701 141.444 422.814 141.71 423.041 141.901C423.268 142.093 423.559 142.188 423.914 142.188ZM429.346 136.675L429.375 137.378C429.84 136.831 430.467 136.557 431.256 136.557C432.143 136.557 432.746 136.897 433.066 137.577C433.277 137.272 433.551 137.026 433.887 136.839C434.227 136.651 434.627 136.557 435.088 136.557C436.479 136.557 437.186 137.294 437.209 138.766V143.014H436.125V138.831C436.125 138.378 436.021 138.04 435.814 137.817C435.607 137.591 435.26 137.477 434.771 137.477C434.369 137.477 434.035 137.598 433.77 137.841C433.504 138.079 433.35 138.401 433.307 138.807V143.014H432.217V138.86C432.217 137.938 431.766 137.477 430.863 137.477C430.152 137.477 429.666 137.78 429.404 138.385V143.014H428.32V136.675H429.346ZM438.562 139.786C438.562 139.165 438.684 138.606 438.926 138.11C439.172 137.614 439.512 137.231 439.945 136.962C440.383 136.692 440.881 136.557 441.439 136.557C442.303 136.557 443 136.856 443.531 137.454C444.066 138.052 444.334 138.846 444.334 139.839V139.915C444.334 140.532 444.215 141.087 443.977 141.579C443.742 142.067 443.404 142.448 442.963 142.721C442.525 142.995 442.021 143.132 441.451 143.132C440.592 143.132 439.895 142.833 439.359 142.235C438.828 141.637 438.562 140.846 438.562 139.862V139.786ZM439.652 139.915C439.652 140.618 439.814 141.182 440.139 141.608C440.467 142.034 440.904 142.247 441.451 142.247C442.002 142.247 442.439 142.032 442.764 141.602C443.088 141.169 443.25 140.563 443.25 139.786C443.25 139.091 443.084 138.528 442.752 138.098C442.424 137.665 441.986 137.448 441.439 137.448C440.904 137.448 440.473 137.661 440.145 138.087C439.816 138.512 439.652 139.122 439.652 139.915ZM448.84 143.014V134.483H451.248C451.99 134.483 452.646 134.647 453.217 134.975C453.787 135.303 454.227 135.77 454.535 136.376C454.848 136.981 455.006 137.677 455.01 138.462V139.007C455.01 139.811 454.854 140.516 454.541 141.122C454.232 141.727 453.789 142.192 453.211 142.516C452.637 142.841 451.967 143.007 451.201 143.014H448.84ZM449.965 135.409V142.094H451.148C452.016 142.094 452.689 141.825 453.17 141.286C453.654 140.747 453.896 139.979 453.896 138.983V138.485C453.896 137.516 453.668 136.764 453.211 136.229C452.758 135.69 452.113 135.417 451.277 135.409H449.965ZM456.715 143.014V134.483H459.504C460.43 134.483 461.125 134.675 461.59 135.057C462.059 135.44 462.293 136.007 462.293 136.757C462.293 137.155 462.18 137.509 461.953 137.817C461.727 138.122 461.418 138.358 461.027 138.526C461.488 138.655 461.852 138.901 462.117 139.264C462.387 139.624 462.521 140.053 462.521 140.553C462.521 141.319 462.273 141.921 461.777 142.358C461.281 142.796 460.58 143.014 459.674 143.014H456.715ZM457.84 139.024V142.094H459.697C460.221 142.094 460.633 141.96 460.934 141.69C461.238 141.417 461.391 141.042 461.391 140.565C461.391 139.538 460.832 139.024 459.715 139.024H457.84ZM457.84 138.122H459.539C460.031 138.122 460.424 137.999 460.717 137.753C461.014 137.507 461.162 137.173 461.162 136.751C461.162 136.282 461.025 135.942 460.752 135.731C460.479 135.516 460.062 135.409 459.504 135.409H457.84V138.122Z" fill="black"/>
<path fill-rule="evenodd" clip-rule="evenodd" d="M413.353 173.619C413.151 173.619 412.958 173.699 412.816 173.841C412.674 173.983 412.594 174.176 412.594 174.377V198.617C412.594 198.818 412.674 199.01 412.816 199.152C412.958 199.294 413.151 199.374 413.353 199.374H420.184C420.386 199.374 420.579 199.294 420.721 199.152C420.863 199.01 420.943 198.818 420.943 198.617V174.377C420.943 174.176 420.863 173.983 420.721 173.841C420.579 173.699 420.386 173.619 420.184 173.619H413.353ZM414.112 197.859V175.134H419.425V197.859H414.112Z" fill="#7B49D7"/>
<path d="M430.811 198.617C430.811 198.818 430.731 199.01 430.589 199.152C430.447 199.294 430.254 199.374 430.052 199.374H423.221C423.019 199.374 422.826 199.294 422.684 199.152C422.542 199.01 422.462 198.818 422.462 198.617V185.55C422.708 186.958 423.224 188.305 423.98 189.519V197.852H429.293V193.882C429.785 194.091 430.293 194.26 430.811 194.39V198.617Z" fill="#7B49D7"/>
<path d="M430.811 172.513C430.292 172.652 429.784 172.832 429.293 173.051V170.589H423.98V177.406C423.224 178.62 422.708 179.968 422.462 181.376V169.831C422.462 169.631 422.542 169.438 422.684 169.296C422.826 169.154 423.019 169.074 423.221 169.074H430.052C430.254 169.074 430.447 169.154 430.589 169.296C430.731 169.438 430.811 169.631 430.811 169.831V172.513Z" fill="#7B49D7"/>
<path fill-rule="evenodd" clip-rule="evenodd" d="M439.161 197.859H433.848V194.829C433.34 194.831 432.833 194.798 432.329 194.731V198.617C432.329 198.818 432.409 199.01 432.552 199.152C432.694 199.294 432.887 199.374 433.089 199.374H439.92C440.122 199.374 440.315 199.294 440.457 199.152C440.599 199.01 440.679 198.818 440.679 198.617V196.511L439.161 194.996V197.859ZM433.089 163.014C432.887 163.014 432.694 163.094 432.552 163.236C432.409 163.378 432.329 163.571 432.329 163.772V172.203C432.833 172.135 433.34 172.102 433.848 172.104V164.529H439.161V173.43C439.693 173.711 440.201 174.035 440.679 174.399V163.794C440.682 163.693 440.665 163.592 440.628 163.498C440.591 163.403 440.536 163.317 440.465 163.244C440.394 163.171 440.31 163.113 440.216 163.074C440.122 163.034 440.022 163.014 439.92 163.014H433.089Z" fill="#7B49D7"/>
<path d="M442.956 166.802C442.755 166.802 442.562 166.881 442.42 167.023C442.277 167.165 442.197 167.358 442.197 167.559V175.77C442.783 176.401 443.292 177.097 443.716 177.846V168.317H449.029V191.61L450.547 193.125V167.559C450.547 167.358 450.467 167.165 450.325 167.023C450.183 166.881 449.989 166.802 449.788 166.802H442.956Z" fill="#7B49D7"/>
<path fill-rule="evenodd" clip-rule="evenodd" d="M442.797 187.557C443.773 185.436 443.962 183.038 443.331 180.791C442.699 178.544 441.289 176.594 439.351 175.288C437.413 173.982 435.073 173.405 432.748 173.661C430.424 173.916 428.266 174.987 426.659 176.683C425.052 178.378 424.101 180.588 423.975 182.919C423.849 185.249 424.557 187.548 425.972 189.407C427.387 191.265 429.417 192.561 431.7 193.065C433.984 193.568 436.372 193.246 438.44 192.155L445.158 198.851C445.75 199.443 446.553 199.776 447.391 199.777C448.228 199.777 449.032 199.446 449.625 198.855C450.218 198.265 450.551 197.463 450.552 196.627C450.553 195.791 450.221 194.989 449.629 194.397V194.375L442.797 187.557ZM426.905 178.822C427.823 177.452 429.127 176.384 430.652 175.753C432.178 175.123 433.857 174.958 435.477 175.279C437.096 175.601 438.584 176.394 439.752 177.559C440.92 178.725 441.715 180.209 442.037 181.826C442.359 183.442 442.194 185.118 441.562 186.64C440.93 188.163 439.86 189.464 438.487 190.38C437.113 191.295 435.499 191.784 433.848 191.784C431.633 191.784 429.509 190.906 427.943 189.343C426.378 187.781 425.498 185.661 425.498 183.451C425.498 181.803 425.988 180.192 426.905 178.822ZM447.389 198.239C446.954 198.239 446.537 198.067 446.228 197.761L439.761 191.307C440.648 190.638 441.418 189.826 442.038 188.905L448.566 195.45C448.87 195.759 449.04 196.175 449.037 196.609C449.034 197.042 448.859 197.456 448.551 197.761C448.242 198.067 447.825 198.239 447.389 198.239Z" fill="#7B49D7"/>
<path d="M429.165 185.655C428.823 185.102 428.595 184.487 428.494 183.846C428.393 183.204 428.421 182.549 428.576 181.918C428.731 181.288 429.011 180.694 429.398 180.172C429.785 179.65 430.273 179.211 430.832 178.879C431.392 178.547 432.012 178.329 432.656 178.239C433.301 178.149 433.957 178.188 434.586 178.353C435.216 178.518 435.806 178.807 436.322 179.202L435.419 180.422C435.061 180.157 434.655 179.966 434.224 179.859C433.793 179.751 433.344 179.729 432.904 179.795C432.465 179.86 432.042 180.011 431.661 180.24C431.279 180.468 430.947 180.769 430.682 181.126C430.418 181.483 430.226 181.888 430.118 182.318C430.01 182.749 429.989 183.196 430.054 183.635C430.12 184.074 430.271 184.496 430.5 184.876C430.729 185.257 431.031 185.589 431.388 185.853L430.485 187.065C429.956 186.687 429.507 186.208 429.165 185.655Z" fill="#7B49D7"/>
<path d="M402.096 210.042H398.398V213.066H402.693V213.986H397.273V205.455H402.635V206.38H398.398V209.123H402.096V210.042ZM405.102 213.986H404.018V204.986H405.102V213.986ZM410.756 213.986C410.693 213.861 410.643 213.638 410.604 213.318C410.1 213.841 409.498 214.103 408.799 214.103C408.174 214.103 407.66 213.927 407.258 213.576C406.859 213.22 406.66 212.771 406.66 212.228C406.66 211.568 406.91 211.056 407.41 210.693C407.914 210.326 408.621 210.142 409.531 210.142H410.586V209.644C410.586 209.265 410.473 208.964 410.246 208.742C410.02 208.515 409.686 208.402 409.244 208.402C408.857 208.402 408.533 208.5 408.271 208.695C408.01 208.89 407.879 209.126 407.879 209.404H406.789C406.789 209.087 406.9 208.783 407.123 208.49C407.35 208.193 407.654 207.958 408.037 207.787C408.424 207.615 408.848 207.529 409.309 207.529C410.039 207.529 410.611 207.712 411.025 208.08C411.439 208.443 411.654 208.945 411.67 209.585V212.503C411.67 213.085 411.744 213.548 411.893 213.892V213.986H410.756ZM408.957 213.16C409.297 213.16 409.619 213.072 409.924 212.896C410.229 212.72 410.449 212.492 410.586 212.21V210.91H409.736C408.408 210.91 407.744 211.298 407.744 212.076C407.744 212.416 407.857 212.681 408.084 212.873C408.311 213.064 408.602 213.16 408.957 213.16ZM417.061 212.304C417.061 212.011 416.949 211.785 416.727 211.625C416.508 211.46 416.123 211.32 415.572 211.203C415.025 211.085 414.59 210.945 414.266 210.781C413.945 210.617 413.707 210.421 413.551 210.195C413.398 209.968 413.322 209.699 413.322 209.386C413.322 208.867 413.541 208.427 413.979 208.068C414.42 207.708 414.982 207.529 415.666 207.529C416.385 207.529 416.967 207.714 417.412 208.085C417.861 208.457 418.086 208.931 418.086 209.509H416.996C416.996 209.212 416.869 208.957 416.615 208.742C416.365 208.527 416.049 208.419 415.666 208.419C415.271 208.419 414.963 208.505 414.74 208.677C414.518 208.849 414.406 209.074 414.406 209.351C414.406 209.613 414.51 209.81 414.717 209.943C414.924 210.076 415.297 210.203 415.836 210.324C416.379 210.445 416.818 210.589 417.154 210.757C417.49 210.925 417.738 211.128 417.898 211.367C418.062 211.601 418.145 211.888 418.145 212.228C418.145 212.794 417.918 213.25 417.465 213.593C417.012 213.933 416.424 214.103 415.701 214.103C415.193 214.103 414.744 214.013 414.354 213.833C413.963 213.654 413.656 213.404 413.434 213.083C413.215 212.759 413.105 212.41 413.105 212.035H414.189C414.209 212.398 414.354 212.687 414.623 212.902C414.896 213.113 415.256 213.218 415.701 213.218C416.111 213.218 416.439 213.136 416.686 212.972C416.936 212.804 417.061 212.582 417.061 212.304ZM421.027 206.111V207.646H422.211V208.484H421.027V212.416C421.027 212.669 421.08 212.861 421.186 212.99C421.291 213.115 421.471 213.177 421.725 213.177C421.85 213.177 422.021 213.154 422.24 213.107V213.986C421.955 214.064 421.678 214.103 421.408 214.103C420.924 214.103 420.559 213.957 420.312 213.664C420.066 213.371 419.943 212.955 419.943 212.416V208.484H418.789V207.646H419.943V206.111H421.027ZM424.66 213.986H423.576V207.646H424.66V213.986ZM423.488 205.964C423.488 205.789 423.541 205.64 423.646 205.519C423.756 205.398 423.916 205.337 424.127 205.337C424.338 205.337 424.498 205.398 424.607 205.519C424.717 205.64 424.771 205.789 424.771 205.964C424.771 206.14 424.717 206.287 424.607 206.404C424.498 206.521 424.338 206.58 424.127 206.58C423.916 206.58 423.756 206.521 423.646 206.404C423.541 206.287 423.488 206.14 423.488 205.964ZM428.943 213.218C429.33 213.218 429.668 213.101 429.957 212.867C430.246 212.632 430.406 212.339 430.438 211.988H431.463C431.443 212.351 431.318 212.697 431.088 213.025C430.857 213.353 430.549 213.615 430.162 213.81C429.779 214.005 429.373 214.103 428.943 214.103C428.08 214.103 427.393 213.816 426.881 213.242C426.373 212.664 426.119 211.875 426.119 210.875V210.693C426.119 210.076 426.232 209.527 426.459 209.046C426.686 208.566 427.01 208.193 427.432 207.927C427.857 207.662 428.359 207.529 428.938 207.529C429.648 207.529 430.238 207.742 430.707 208.167C431.18 208.593 431.432 209.146 431.463 209.826H430.438C430.406 209.416 430.25 209.08 429.969 208.818C429.691 208.552 429.348 208.419 428.938 208.419C428.387 208.419 427.959 208.619 427.654 209.017C427.354 209.412 427.203 209.984 427.203 210.734V210.939C427.203 211.669 427.354 212.232 427.654 212.626C427.955 213.021 428.385 213.218 428.943 213.218ZM435.365 210.183C434.4 209.906 433.697 209.566 433.256 209.164C432.818 208.757 432.6 208.257 432.6 207.664C432.6 206.992 432.867 206.437 433.402 206C433.941 205.558 434.641 205.337 435.5 205.337C436.086 205.337 436.607 205.451 437.064 205.677C437.525 205.904 437.881 206.216 438.131 206.615C438.385 207.013 438.512 207.449 438.512 207.921H437.381C437.381 207.406 437.217 207.001 436.889 206.708C436.561 206.412 436.098 206.263 435.5 206.263C434.945 206.263 434.512 206.386 434.199 206.632C433.891 206.875 433.736 207.212 433.736 207.646C433.736 207.994 433.883 208.289 434.176 208.531C434.473 208.769 434.975 208.988 435.682 209.187C436.393 209.386 436.947 209.607 437.346 209.849C437.748 210.087 438.045 210.367 438.236 210.687C438.432 211.007 438.529 211.384 438.529 211.818C438.529 212.509 438.26 213.064 437.721 213.482C437.182 213.896 436.461 214.103 435.559 214.103C434.973 214.103 434.426 213.992 433.918 213.769C433.41 213.542 433.018 213.234 432.74 212.843C432.467 212.453 432.33 212.009 432.33 211.513H433.461C433.461 212.029 433.65 212.437 434.029 212.738C434.412 213.035 434.922 213.183 435.559 213.183C436.152 213.183 436.607 213.062 436.924 212.82C437.24 212.578 437.398 212.248 437.398 211.83C437.398 211.412 437.252 211.089 436.959 210.863C436.666 210.632 436.135 210.406 435.365 210.183ZM442.438 214.103C441.578 214.103 440.879 213.822 440.34 213.259C439.801 212.693 439.531 211.937 439.531 210.992V210.792C439.531 210.164 439.65 209.603 439.889 209.111C440.131 208.615 440.467 208.228 440.896 207.951C441.33 207.669 441.799 207.529 442.303 207.529C443.127 207.529 443.768 207.8 444.225 208.343C444.682 208.886 444.91 209.664 444.91 210.675V211.126H440.615C440.631 211.751 440.812 212.257 441.16 212.644C441.512 213.027 441.957 213.218 442.496 213.218C442.879 213.218 443.203 213.14 443.469 212.984C443.734 212.828 443.967 212.621 444.166 212.363L444.828 212.878C444.297 213.695 443.5 214.103 442.438 214.103ZM442.303 208.419C441.865 208.419 441.498 208.58 441.201 208.9C440.904 209.216 440.721 209.662 440.65 210.236H443.826V210.154C443.795 209.603 443.646 209.177 443.381 208.876C443.115 208.572 442.756 208.419 442.303 208.419ZM450.084 213.986C450.021 213.861 449.971 213.638 449.932 213.318C449.428 213.841 448.826 214.103 448.127 214.103C447.502 214.103 446.988 213.927 446.586 213.576C446.188 213.22 445.988 212.771 445.988 212.228C445.988 211.568 446.238 211.056 446.738 210.693C447.242 210.326 447.949 210.142 448.859 210.142H449.914V209.644C449.914 209.265 449.801 208.964 449.574 208.742C449.348 208.515 449.014 208.402 448.572 208.402C448.186 208.402 447.861 208.5 447.6 208.695C447.338 208.89 447.207 209.126 447.207 209.404H446.117C446.117 209.087 446.229 208.783 446.451 208.49C446.678 208.193 446.982 207.958 447.365 207.787C447.752 207.615 448.176 207.529 448.637 207.529C449.367 207.529 449.939 207.712 450.354 208.08C450.768 208.443 450.982 208.945 450.998 209.585V212.503C450.998 213.085 451.072 213.548 451.221 213.892V213.986H450.084ZM448.285 213.16C448.625 213.16 448.947 213.072 449.252 212.896C449.557 212.72 449.777 212.492 449.914 212.21V210.91H449.064C447.736 210.91 447.072 211.298 447.072 212.076C447.072 212.416 447.186 212.681 447.412 212.873C447.639 213.064 447.93 213.16 448.285 213.16ZM455.762 208.619C455.598 208.591 455.42 208.578 455.229 208.578C454.518 208.578 454.035 208.88 453.781 209.486V213.986H452.697V207.646H453.752L453.77 208.378C454.125 207.812 454.629 207.529 455.281 207.529C455.492 207.529 455.652 207.556 455.762 207.611V208.619ZM459.189 213.218C459.576 213.218 459.914 213.101 460.203 212.867C460.492 212.632 460.652 212.339 460.684 211.988H461.709C461.689 212.351 461.564 212.697 461.334 213.025C461.104 213.353 460.795 213.615 460.408 213.81C460.025 214.005 459.619 214.103 459.189 214.103C458.326 214.103 457.639 213.816 457.127 213.242C456.619 212.664 456.365 211.875 456.365 210.875V210.693C456.365 210.076 456.479 209.527 456.705 209.046C456.932 208.566 457.256 208.193 457.678 207.927C458.104 207.662 458.605 207.529 459.184 207.529C459.895 207.529 460.484 207.742 460.953 208.167C461.426 208.593 461.678 209.146 461.709 209.826H460.684C460.652 209.416 460.496 209.08 460.215 208.818C459.938 208.552 459.594 208.419 459.184 208.419C458.633 208.419 458.205 208.619 457.9 209.017C457.6 209.412 457.449 209.984 457.449 210.734V210.939C457.449 211.669 457.6 212.232 457.9 212.626C458.201 213.021 458.631 213.218 459.189 213.218ZM464.012 208.414C464.492 207.824 465.117 207.529 465.887 207.529C467.227 207.529 467.902 208.285 467.914 209.796V213.986H466.83V209.791C466.826 209.333 466.721 208.996 466.514 208.777C466.311 208.558 465.992 208.449 465.559 208.449C465.207 208.449 464.898 208.542 464.633 208.73C464.367 208.917 464.16 209.164 464.012 209.468V213.986H462.928V204.986H464.012V208.414Z" fill="black"/>
<g clip-path="url(#clip1)">
<path fill-rule="evenodd" clip-rule="evenodd" d="M266 301C260.477 301 256 296.523 256 291L256 269L355 269L355 291C355 296.523 350.523 301 345 301L266 301Z" fill="#232F3E"/>
<path d="M314.13 286.705C314.024 287.607 313.69 288.304 313.128 288.797C312.569 289.285 311.825 289.529 310.895 289.529C309.888 289.529 309.079 289.168 308.47 288.445C307.864 287.722 307.561 286.756 307.561 285.545V284.724C307.561 283.931 307.702 283.234 307.983 282.633C308.268 282.031 308.671 281.57 309.19 281.25C309.71 280.926 310.311 280.763 310.995 280.763C311.901 280.763 312.628 281.017 313.175 281.525C313.722 282.029 314.04 282.728 314.13 283.623H312.999C312.901 282.943 312.688 282.451 312.36 282.146C312.036 281.842 311.581 281.689 310.995 281.689C310.276 281.689 309.712 281.955 309.302 282.486C308.895 283.017 308.692 283.773 308.692 284.754V285.58C308.692 286.506 308.886 287.242 309.272 287.789C309.659 288.336 310.2 288.609 310.895 288.609C311.52 288.609 311.999 288.469 312.331 288.187C312.667 287.902 312.89 287.408 312.999 286.705H314.13ZM316.679 289.412H315.595V280.412H316.679V289.412ZM318.132 286.183C318.132 285.562 318.253 285.004 318.495 284.508C318.741 284.011 319.081 283.629 319.515 283.359C319.952 283.09 320.45 282.955 321.009 282.955C321.872 282.955 322.569 283.254 323.1 283.851C323.636 284.449 323.903 285.244 323.903 286.236V286.312C323.903 286.929 323.784 287.484 323.546 287.976C323.311 288.465 322.974 288.845 322.532 289.119C322.095 289.392 321.591 289.529 321.02 289.529C320.161 289.529 319.464 289.23 318.929 288.633C318.397 288.035 318.132 287.244 318.132 286.26V286.183ZM319.222 286.312C319.222 287.015 319.384 287.58 319.708 288.006C320.036 288.431 320.474 288.644 321.02 288.644C321.571 288.644 322.009 288.429 322.333 288C322.657 287.566 322.819 286.961 322.819 286.183C322.819 285.488 322.653 284.926 322.321 284.496C321.993 284.062 321.556 283.845 321.009 283.845C320.474 283.845 320.042 284.058 319.714 284.484C319.386 284.91 319.222 285.519 319.222 286.312ZM329.177 288.785C328.755 289.281 328.136 289.529 327.319 289.529C326.643 289.529 326.128 289.334 325.772 288.943C325.421 288.549 325.243 287.967 325.239 287.197V283.072H326.323V287.168C326.323 288.129 326.714 288.609 327.495 288.609C328.323 288.609 328.874 288.301 329.147 287.683V283.072H330.231V289.412H329.2L329.177 288.785ZM331.62 286.189C331.62 285.217 331.85 284.435 332.311 283.845C332.772 283.252 333.376 282.955 334.122 282.955C334.864 282.955 335.452 283.209 335.886 283.717V280.412H336.97V289.412H335.974L335.921 288.732C335.487 289.263 334.884 289.529 334.11 289.529C333.376 289.529 332.776 289.228 332.311 288.627C331.85 288.025 331.62 287.24 331.62 286.271V286.189ZM332.704 286.312C332.704 287.031 332.852 287.594 333.149 288C333.446 288.406 333.856 288.609 334.38 288.609C335.067 288.609 335.569 288.301 335.886 287.683V284.771C335.561 284.174 335.063 283.875 334.391 283.875C333.86 283.875 333.446 284.08 333.149 284.49C332.852 284.9 332.704 285.508 332.704 286.312Z" fill="white"/>
<path fill-rule="evenodd" clip-rule="evenodd" d="M279.05 284.167C279.126 284.39 279.22 284.606 279.331 284.813C279.371 284.873 279.394 284.943 279.397 285.015C279.392 285.071 279.374 285.125 279.345 285.172C279.315 285.219 279.275 285.258 279.228 285.285L278.675 285.662C278.61 285.71 278.531 285.737 278.45 285.739C278.4 285.738 278.351 285.726 278.306 285.705C278.261 285.683 278.221 285.652 278.188 285.613C278.066 285.488 277.96 285.349 277.869 285.199C277.785 285.044 277.7 284.871 277.607 284.668C277.299 285.063 276.908 285.381 276.463 285.597C276.018 285.812 275.53 285.92 275.038 285.912C274.721 285.93 274.402 285.882 274.103 285.771C273.804 285.66 273.529 285.488 273.295 285.266C273.077 285.04 272.908 284.77 272.798 284.472C272.689 284.175 272.641 283.857 272.657 283.54C272.646 283.19 272.711 282.843 272.847 282.522C272.983 282.202 273.188 281.917 273.445 281.688C274.056 281.198 274.818 280.952 275.591 280.994C275.905 280.992 276.218 281.015 276.529 281.061C276.857 281.109 277.185 281.177 277.532 281.254V280.598C277.582 280.082 277.434 279.566 277.119 279.161C276.714 278.839 276.204 278.691 275.695 278.746C275.379 278.748 275.064 278.787 274.757 278.862C274.437 278.94 274.124 279.043 273.82 279.171L273.51 279.287H273.379C273.248 279.287 273.192 279.19 273.192 279.007V278.563C273.183 278.457 273.203 278.35 273.248 278.255C273.318 278.172 273.404 278.106 273.501 278.062C273.852 277.888 274.22 277.752 274.598 277.657C275.042 277.539 275.499 277.481 275.957 277.483C276.783 277.409 277.605 277.672 278.244 278.216C278.507 278.513 278.706 278.862 278.831 279.242C278.955 279.622 279.001 280.025 278.966 280.425L278.947 283.366C278.939 283.637 278.974 283.907 279.05 284.167ZM276.341 284.572C276.662 284.459 276.947 284.259 277.166 283.993C277.311 283.832 277.414 283.637 277.466 283.424C277.527 283.168 277.555 282.906 277.55 282.643V282.238C277.275 282.179 276.996 282.137 276.716 282.112C276.435 282.112 276.163 282.112 275.891 282.112C275.433 282.075 274.976 282.201 274.598 282.469C274.452 282.596 274.336 282.756 274.261 282.937C274.187 283.118 274.154 283.315 274.167 283.511C274.151 283.686 274.172 283.862 274.226 284.028C274.281 284.194 274.37 284.346 274.485 284.475C274.746 284.684 275.076 284.777 275.404 284.736C275.723 284.736 276.04 284.681 276.341 284.572ZM282.087 285.613C281.992 285.516 281.927 285.392 281.9 285.257L279.856 278.312C279.815 278.194 279.79 278.071 279.781 277.946C279.781 277.801 279.847 277.724 279.988 277.724H280.85C280.969 277.713 281.088 277.743 281.187 277.811C281.279 277.91 281.341 278.034 281.365 278.168L282.837 284.167L284.215 278.177C284.229 278.042 284.289 277.916 284.384 277.821C284.487 277.753 284.609 277.722 284.731 277.734H285.434C285.558 277.722 285.683 277.753 285.79 277.821C285.878 277.921 285.936 278.044 285.959 278.177L287.318 284.167L288.827 278.148C288.852 278.014 288.914 277.891 289.005 277.792C289.105 277.724 289.224 277.693 289.342 277.705H290.158C290.187 277.702 290.216 277.705 290.244 277.716C290.271 277.726 290.296 277.742 290.317 277.763C290.337 277.784 290.353 277.81 290.363 277.838C290.373 277.867 290.376 277.897 290.373 277.927C290.377 277.975 290.377 278.023 290.373 278.071C290.373 278.071 290.373 278.197 290.317 278.293L288.199 285.237C288.174 285.371 288.112 285.495 288.021 285.594C287.92 285.659 287.802 285.689 287.683 285.681H286.933C286.81 285.694 286.686 285.66 286.587 285.584C286.494 285.488 286.434 285.362 286.418 285.228L285.059 279.441L283.709 285.228C283.692 285.362 283.633 285.488 283.54 285.584C283.44 285.658 283.316 285.693 283.193 285.681L282.425 285.7C282.306 285.712 282.187 285.681 282.087 285.613ZM292.323 285.777C291.975 285.705 291.637 285.585 291.32 285.42C291.208 285.365 291.114 285.278 291.048 285.17C291.012 285.088 290.993 284.999 290.992 284.909V284.456C290.992 284.273 291.058 284.176 291.189 284.176C291.245 284.167 291.302 284.167 291.358 284.176L291.573 284.273C291.874 284.411 292.188 284.514 292.511 284.581C292.852 284.658 293.201 284.697 293.551 284.697C293.995 284.726 294.438 284.622 294.826 284.398C294.967 284.31 295.083 284.185 295.162 284.036C295.241 283.887 295.28 283.719 295.276 283.549C295.28 283.434 295.262 283.319 295.221 283.211C295.181 283.103 295.12 283.005 295.041 282.923C294.788 282.696 294.486 282.534 294.16 282.45L292.895 282.035C292.347 281.894 291.858 281.576 291.498 281.129C291.215 280.753 291.06 280.292 291.058 279.817C291.053 279.48 291.133 279.147 291.292 278.853C291.449 278.563 291.663 278.31 291.92 278.11C292.202 277.897 292.52 277.74 292.857 277.647C293.217 277.54 293.589 277.488 293.964 277.493C294.157 277.479 294.351 277.479 294.545 277.493L295.116 277.589L295.613 277.734L295.979 277.888C296.077 277.948 296.165 278.022 296.241 278.11C296.294 278.2 296.32 278.304 296.316 278.409V278.833C296.316 279.026 296.251 279.123 296.119 279.123C296 279.109 295.885 279.069 295.782 279.007C295.25 278.769 294.675 278.651 294.095 278.66C293.693 278.64 293.293 278.726 292.932 278.91C292.799 278.994 292.69 279.114 292.617 279.257C292.544 279.399 292.511 279.56 292.52 279.721C292.52 279.839 292.543 279.957 292.588 280.067C292.633 280.176 292.699 280.275 292.782 280.357C293.059 280.585 293.378 280.752 293.72 280.849L294.957 281.254C295.482 281.397 295.952 281.7 296.307 282.122C296.576 282.485 296.718 282.93 296.71 283.385C296.716 283.746 296.638 284.103 296.485 284.427C296.334 284.738 296.116 285.008 295.848 285.218C295.569 285.448 295.251 285.621 294.91 285.729C294.501 285.864 294.075 285.936 293.645 285.941L293.673 285.932C293.219 285.934 292.766 285.882 292.323 285.777Z" fill="white"/>
<path fill-rule="evenodd" clip-rule="evenodd" d="M285.394 293.47C280.393 293.497 275.561 291.651 271.846 288.292C271.562 288.037 271.846 287.684 272.159 287.88C276.283 290.251 280.954 291.495 285.707 291.489C289.26 291.475 292.775 290.755 296.049 289.371C296.557 289.155 296.988 289.704 296.489 290.067C293.217 292.298 289.35 293.484 285.394 293.47Z" fill="white"/>
<path fill-rule="evenodd" clip-rule="evenodd" d="M293.272 288.036C292.958 288.036 292.916 287.827 293.199 287.655C295.031 286.536 298.048 286.855 298.435 287.236C298.823 287.618 298.341 290.236 296.613 291.491C296.351 291.682 296.1 291.573 296.215 291.327C296.571 290.464 297.44 288.582 297.032 288.145C296.613 287.682 294.309 287.927 293.272 288.036Z" fill="white"/>
</g>
<path fill-rule="evenodd" clip-rule="evenodd" d="M285.441 229.202C285.342 229.131 285.261 229.039 285.206 228.932C285.15 228.824 285.12 228.705 285.12 228.584V193.524C285.12 193.394 285.154 193.266 285.219 193.152C285.283 193.039 285.375 192.944 285.487 192.876C285.6 192.803 285.73 192.762 285.864 192.755C285.998 192.748 286.132 192.777 286.251 192.838L296.188 197.678C296.316 197.74 296.423 197.837 296.499 197.956C296.574 198.076 296.615 198.215 296.616 198.356V225.292C296.624 225.459 296.577 225.624 296.482 225.762C296.387 225.899 296.248 226.002 296.089 226.054L286.152 229.346C286.066 229.359 285.978 229.359 285.892 229.346C285.73 229.347 285.572 229.296 285.441 229.202ZM286.656 227.525L295.064 224.743V198.829L286.656 194.751V227.525Z" fill="#7B49D7"/>
<path fill-rule="evenodd" clip-rule="evenodd" d="M268.823 229.346L258.886 226.054C258.728 226.001 258.592 225.898 258.498 225.76C258.404 225.622 258.358 225.458 258.367 225.292V198.356C258.368 198.215 258.408 198.076 258.484 197.956C258.56 197.837 258.667 197.74 258.795 197.678L268.732 192.838C268.851 192.777 268.985 192.748 269.119 192.755C269.253 192.762 269.383 192.803 269.496 192.876C269.606 192.945 269.697 193.04 269.76 193.154C269.823 193.267 269.855 193.394 269.855 193.524V228.584C269.855 228.705 269.825 228.824 269.769 228.932C269.714 229.039 269.633 229.131 269.534 229.202C269.4 229.303 269.235 229.354 269.068 229.346C268.987 229.357 268.904 229.357 268.823 229.346ZM268.303 227.555V194.782L259.895 198.875V224.773L268.303 227.555Z" fill="#7B49D7"/>
<path fill-rule="evenodd" clip-rule="evenodd" d="M282.827 203.432V201.908H285.12V203.432H282.827ZM278.24 203.432V201.908H280.534V203.432H278.24ZM273.654 203.432V201.908H275.947V203.432H273.654ZM269.068 203.432V201.908H271.361V203.432H269.068Z" fill="#7B49D7"/>
<path fill-rule="evenodd" clip-rule="evenodd" d="M282.827 220.2V218.676H285.12V220.2H282.827ZM278.24 220.2V218.676H280.534V220.2H278.24ZM273.654 220.2V218.676H275.947V220.2H273.654ZM269.068 220.2V218.676H271.361V220.2H269.068Z" fill="#7B49D7"/>
<path d="M271.246 211.23C271.163 211.158 271.095 211.069 271.049 210.969C271.003 210.869 270.979 210.76 270.979 210.65C270.979 210.54 271.003 210.431 271.049 210.331C271.095 210.231 271.163 210.143 271.246 210.071L274.113 207.625L275.107 208.783L272.92 210.673L275.107 212.541L274.121 213.676L271.246 211.23Z" fill="#7B49D7"/>
<path d="M279.846 212.518L282.032 210.673L279.838 208.814L280.832 207.625L283.706 210.063C283.79 210.135 283.857 210.224 283.903 210.324C283.949 210.424 283.973 210.533 283.973 210.643C283.973 210.753 283.949 210.862 283.903 210.962C283.857 211.062 283.79 211.15 283.706 211.222L280.839 213.676L279.846 212.518Z" fill="#7B49D7"/>
<path fill-rule="evenodd" clip-rule="evenodd" d="M278.267 206.322L279.714 206.812L276.676 215.773L275.229 215.282L278.267 206.322Z" fill="#7B49D7"/>
<path d="M250.311 244.773H246.736L245.934 247H244.773L248.031 238.469H249.016L252.279 247H251.125L250.311 244.773ZM247.076 243.848H249.977L248.523 239.857L247.076 243.848ZM254.553 243.66V247H253.428V238.469H256.574C257.508 238.469 258.238 238.707 258.766 239.184C259.297 239.66 259.562 240.291 259.562 241.076C259.562 241.904 259.303 242.543 258.783 242.992C258.268 243.438 257.527 243.66 256.562 243.66H254.553ZM254.553 242.74H256.574C257.176 242.74 257.637 242.6 257.957 242.318C258.277 242.033 258.438 241.623 258.438 241.088C258.438 240.58 258.277 240.174 257.957 239.869C257.637 239.564 257.197 239.406 256.639 239.395H254.553V242.74ZM262.205 247H261.08V238.469H262.205V247ZM273.543 245.881C273.254 246.295 272.85 246.605 272.33 246.812C271.814 247.016 271.213 247.117 270.525 247.117C269.83 247.117 269.213 246.955 268.674 246.631C268.135 246.303 267.717 245.838 267.42 245.236C267.127 244.635 266.977 243.938 266.969 243.145V242.4C266.969 241.115 267.268 240.119 267.865 239.412C268.467 238.705 269.311 238.352 270.396 238.352C271.287 238.352 272.004 238.58 272.547 239.037C273.09 239.49 273.422 240.135 273.543 240.971H272.418C272.207 239.842 271.535 239.277 270.402 239.277C269.648 239.277 269.076 239.543 268.686 240.074C268.299 240.602 268.104 241.367 268.1 242.371V243.068C268.1 244.025 268.318 244.787 268.756 245.354C269.193 245.916 269.785 246.197 270.531 246.197C270.953 246.197 271.322 246.15 271.639 246.057C271.955 245.963 272.217 245.805 272.424 245.582V243.666H270.449V242.752H273.543V245.881ZM279.168 247C279.105 246.875 279.055 246.652 279.016 246.332C278.512 246.855 277.91 247.117 277.211 247.117C276.586 247.117 276.072 246.941 275.67 246.59C275.271 246.234 275.072 245.785 275.072 245.242C275.072 244.582 275.322 244.07 275.822 243.707C276.326 243.34 277.033 243.156 277.943 243.156H278.998V242.658C278.998 242.279 278.885 241.979 278.658 241.756C278.432 241.529 278.098 241.416 277.656 241.416C277.27 241.416 276.945 241.514 276.684 241.709C276.422 241.904 276.291 242.141 276.291 242.418H275.201C275.201 242.102 275.312 241.797 275.535 241.504C275.762 241.207 276.066 240.973 276.449 240.801C276.836 240.629 277.26 240.543 277.721 240.543C278.451 240.543 279.023 240.727 279.438 241.094C279.852 241.457 280.066 241.959 280.082 242.6V245.518C280.082 246.1 280.156 246.562 280.305 246.906V247H279.168ZM277.369 246.174C277.709 246.174 278.031 246.086 278.336 245.91C278.641 245.734 278.861 245.506 278.998 245.225V243.924H278.148C276.82 243.924 276.156 244.312 276.156 245.09C276.156 245.43 276.27 245.695 276.496 245.887C276.723 246.078 277.014 246.174 277.369 246.174ZM283.252 239.125V240.66H284.436V241.498H283.252V245.43C283.252 245.684 283.305 245.875 283.41 246.004C283.516 246.129 283.695 246.191 283.949 246.191C284.074 246.191 284.246 246.168 284.465 246.121V247C284.18 247.078 283.902 247.117 283.633 247.117C283.148 247.117 282.783 246.971 282.537 246.678C282.291 246.385 282.168 245.969 282.168 245.43V241.498H281.014V240.66H282.168V239.125H283.252ZM288.338 247.117C287.479 247.117 286.779 246.836 286.24 246.273C285.701 245.707 285.432 244.951 285.432 244.006V243.807C285.432 243.178 285.551 242.617 285.789 242.125C286.031 241.629 286.367 241.242 286.797 240.965C287.23 240.684 287.699 240.543 288.203 240.543C289.027 240.543 289.668 240.814 290.125 241.357C290.582 241.9 290.811 242.678 290.811 243.689V244.141H286.516C286.531 244.766 286.713 245.271 287.061 245.658C287.412 246.041 287.857 246.232 288.396 246.232C288.779 246.232 289.104 246.154 289.369 245.998C289.635 245.842 289.867 245.635 290.066 245.377L290.729 245.893C290.197 246.709 289.4 247.117 288.338 247.117ZM288.203 241.434C287.766 241.434 287.398 241.594 287.102 241.914C286.805 242.23 286.621 242.676 286.551 243.25H289.727V243.168C289.695 242.617 289.547 242.191 289.281 241.891C289.016 241.586 288.656 241.434 288.203 241.434ZM297.684 245.506L298.902 240.66H299.986L298.141 247H297.262L295.721 242.195L294.221 247H293.342L291.502 240.66H292.58L293.828 245.406L295.305 240.66H296.178L297.684 245.506ZM305.008 247C304.945 246.875 304.895 246.652 304.855 246.332C304.352 246.855 303.75 247.117 303.051 247.117C302.426 247.117 301.912 246.941 301.51 246.59C301.111 246.234 300.912 245.785 300.912 245.242C300.912 244.582 301.162 244.07 301.662 243.707C302.166 243.34 302.873 243.156 303.783 243.156H304.838V242.658C304.838 242.279 304.725 241.979 304.498 241.756C304.271 241.529 303.938 241.416 303.496 241.416C303.109 241.416 302.785 241.514 302.523 241.709C302.262 241.904 302.131 242.141 302.131 242.418H301.041C301.041 242.102 301.152 241.797 301.375 241.504C301.602 241.207 301.906 240.973 302.289 240.801C302.676 240.629 303.1 240.543 303.561 240.543C304.291 240.543 304.863 240.727 305.277 241.094C305.691 241.457 305.906 241.959 305.922 242.6V245.518C305.922 246.1 305.996 246.562 306.145 246.906V247H305.008ZM303.209 246.174C303.549 246.174 303.871 246.086 304.176 245.91C304.48 245.734 304.701 245.506 304.838 245.225V243.924H303.988C302.66 243.924 301.996 244.312 301.996 245.09C301.996 245.43 302.109 245.695 302.336 245.887C302.562 246.078 302.854 246.174 303.209 246.174ZM309.602 245.412L311.078 240.66H312.238L309.689 247.979C309.295 249.033 308.668 249.561 307.809 249.561L307.604 249.543L307.199 249.467V248.588L307.492 248.611C307.859 248.611 308.145 248.537 308.348 248.389C308.555 248.24 308.725 247.969 308.857 247.574L309.098 246.93L306.836 240.66H308.02L309.602 245.412Z" fill="black"/>
<path d="M231.323 197.854L235.128 207.684L225.297 211.488" stroke="#F94F24" stroke-dasharray="6 2"/>
<path d="M192.566 189.716L235.174 208.547" stroke="#F94F24" stroke-dasharray="6 2"/>
<path d="M272.459 158.334L279.913 150.881L287.366 158.334" stroke="#F94F24" stroke-dasharray="6 2"/>
<path d="M280.077 186.62L280.077 151.216" stroke="#F94F24" stroke-dasharray="6 2"/>
<defs>
<clipPath id="clip0">
<rect width="60" height="71" fill="white" transform="translate(124 146)"/>
</clipPath>
<clipPath id="clip1">
<rect width="99" height="42" fill="white" transform="translate(256 269)"/>
</clipPath>
</defs>
</svg>
