<svg width="764" height="1289" viewBox="0 0 764 1289" fill="none" xmlns="http://www.w3.org/2000/svg">
<path opacity="0.7" fill-rule="evenodd" clip-rule="evenodd" d="M268.234 744.154L163.351 804.241C153.425 809.927 141.196 809.927 131.27 804.241L26.3845 744.154C16.4585 738.467 10.3442 727.96 10.3442 716.587L10.3442 596.412C10.3442 585.04 16.4585 574.531 26.3845 568.845L131.27 508.758C141.196 503.071 153.425 503.071 163.351 508.758L268.234 568.845C278.16 574.531 284.275 585.04 284.275 596.412V716.587C284.275 727.96 278.16 738.467 268.234 744.154Z" fill="white" fill-opacity="0.0509804"/>
<path fill-rule="evenodd" clip-rule="evenodd" d="M252.659 910.096L47.0813 907.861C27.627 907.648 9.53598 896.626 -0.378211 878.947L-105.129 692.121C-115.042 674.44 -115.271 652.79 -105.73 635.321L-4.90028 450.731C4.64141 433.262 22.504 422.631 41.9585 422.845L247.538 425.081C266.994 425.291 285.086 436.312 294.998 453.994L399.746 640.819C409.661 658.498 409.889 680.15 400.347 697.619L299.518 882.209C289.976 899.677 272.115 910.306 252.659 910.096V910.096Z" stroke="#E4E4E4"/>
<path fill-rule="evenodd" clip-rule="evenodd" d="M484.997 785.222L274.341 998.351C254.404 1018.52 225.61 1026.65 198.803 1019.68L-84.4634 946.05C-111.271 939.08 -132.016 918.073 -138.887 890.935L-211.492 604.17C-218.363 577.032 -210.315 547.889 -190.378 527.722L20.2829 314.591C40.2189 294.419 69.0129 286.287 95.821 293.257L379.083 366.893C405.89 373.859 426.635 394.87 433.507 422.007L506.112 708.773C512.983 735.911 504.934 765.05 484.997 785.222V785.222Z" stroke="#E4E4E4"/>
<path fill-rule="evenodd" clip-rule="evenodd" d="M401.263 1078.24L10.6483 1122.46C-26.3184 1126.65 -63.171 1110.15 -86.0322 1079.19L-327.582 751.973C-350.441 721.005 -355.833 680.281 -341.726 645.131L-192.655 273.699C-178.548 238.549 -147.086 214.316 -110.121 210.135L280.5 165.915C317.469 161.728 354.321 178.226 377.18 209.194L618.725 536.404C641.586 567.367 646.976 608.096 632.87 643.246L483.799 1014.68C469.692 1049.83 438.232 1074.06 401.263 1078.24V1078.24Z" stroke="#E4E4E4"/>
</svg>
