<svg width="474" height="267" viewBox="0 0 474 267" fill="none" xmlns="http://www.w3.org/2000/svg">
<path fill-rule="evenodd" clip-rule="evenodd" d="M269.239 98.6918C269.239 75.6814 287.887 57.0278 310.889 57.0278C333.892 57.0278 352.539 75.6814 352.539 98.6918C352.539 121.702 333.892 140.356 310.889 140.356C287.887 140.356 269.239 121.702 269.239 98.6918Z" fill="#F2F2F2"/>
<path fill-rule="evenodd" clip-rule="evenodd" d="M274.757 19.7969C274.757 30.0002 266.492 38.2735 256.292 38.28C246.093 38.2866 237.817 30.024 237.804 19.8207C237.791 9.61743 246.045 1.3335 256.245 1.31375C261.151 1.30426 265.86 3.24739 269.333 6.71468C272.806 10.182 274.757 14.8887 274.757 19.7969V19.7969Z" fill="#F2F2F2"/>
<rect x="7.38306" y="206.344" width="233.13" height="56.2861" rx="28" fill="#F2F2F2"/>
<path fill-rule="evenodd" clip-rule="evenodd" d="M201.136 170.866C200.643 164.595 200.071 158.339 199.521 152.075C199.292 149.479 198.37 148.657 195.739 148.593C191.115 148.471 186.483 148.293 181.851 148.207C180.279 148.207 179.328 147.728 178.792 146.062C178.158 144.003 177.252 142.039 176.098 140.22C173.639 136.495 170.973 132.912 168.285 129.359C167.606 128.694 167.407 127.679 167.785 126.806C168.743 124.382 169.6 121.923 170.451 119.463C171.409 116.696 172.309 113.907 173.231 111.126C173.66 108.437 171.123 107.401 168.149 105.749C163.375 103.282 158.643 100.744 153.854 98.3772C146.497 103.914 150.559 97.7909 149.251 99.7572C149.251 99.7572 143.761 108.08 141.045 112.256C140.705 112.99 139.873 113.358 139.101 113.114C131.18 111.537 123.005 111.781 115.192 113.829C114.53 113.908 113.867 113.688 113.384 113.228C109.76 109.267 106.193 105.234 102.662 101.201C100.897 99.1995 99.66 99.0564 97.4299 100.651C92.3336 104.226 87.2515 107.801 82.1124 111.333C82.9844 121.043 79.3605 114.336 80.6828 116.753C80.6828 116.753 85.3074 125.333 87.6518 129.623C88.12 130.329 88.021 131.269 87.4159 131.861C85.4432 134.593 83.3346 137.288 81.7978 140.256C80.1048 143.774 78.6017 147.38 77.2948 151.059C77.0973 151.941 76.3684 152.605 75.4722 152.718C70.4044 153.619 65.3295 154.635 60.3261 155.643C57.1954 156.258 56.6808 156.887 56.8952 160.14C57.3098 166.354 57.8173 172.553 58.2247 178.767C58.4034 181.448 59.2826 182.384 61.9915 182.499C66.8591 182.692 71.7267 182.949 76.5872 183.078C77.788 183.078 78.2311 183.6 78.61 184.637C81.3874 192.099 85.7585 198.865 91.4187 204.464C91.8119 205.067 91.9216 205.811 91.7189 206.502C90.1678 211.586 88.5024 216.634 86.887 221.689C86.1722 223.956 86.8012 225.357 88.9741 226.344C94.9067 229.025 100.825 231.756 106.801 234.323C107.717 234.633 108.726 234.492 109.524 233.944C111.016 232.583 112.336 231.043 113.455 229.361C115.478 226.279 117.243 223.047 119.216 219.93C119.609 219.387 120.233 219.059 120.903 219.043C128.206 220.106 135.65 219.661 142.775 217.735C143.454 217.588 144.164 217.762 144.698 218.207C148.171 222.018 151.574 225.879 154.948 229.776C166.305 227.199 158.378 232.672 161.13 230.77C161.13 230.77 171.447 223.581 176.555 219.916C178.363 218.629 178.699 217.242 177.67 215.225C175.318 210.706 172.867 206.245 170.522 201.726C170.272 201.178 170.285 200.546 170.558 200.01C175.283 194.184 178.751 187.443 180.744 180.211C187.684 177.534 181.722 178.562 182.681 178.488C182.681 178.488 192.687 176.54 197.691 175.506C200.857 174.841 201.415 174.162 201.136 170.866V170.866ZM129.023 198.086C111.389 198.086 97.0939 183.786 97.0939 166.146C97.0939 148.507 111.389 134.207 129.023 134.207C146.657 134.207 160.952 148.507 160.952 166.146C160.952 174.625 157.586 182.749 151.597 188.738C145.607 194.727 137.484 198.09 129.016 198.086H129.023Z" fill="url(#paint0_linear)"/>
<path fill-rule="evenodd" clip-rule="evenodd" d="M52.3064 145.626C51.8293 145.634 51.3554 145.546 50.9126 145.368C46.1665 143.323 41.3776 141.15 36.753 139.048L33.0719 137.374C30.3629 136.152 29.448 134.107 30.3415 131.29L31.771 127C32.9147 123.424 34.1012 119.771 35.2091 116.146C35.2778 115.844 35.2579 115.528 35.1519 115.237C29.3841 109.518 24.9262 102.614 22.0859 95.0025C21.8143 94.2875 21.7142 94.2303 21.1424 94.216C17.883 94.1302 14.5808 93.9872 11.3858 93.8442C9.76324 93.7727 8.14785 93.7012 6.52532 93.644C3.22308 93.501 1.85072 92.1424 1.62914 88.8033C1.40756 85.4642 1.16454 82.1823 0.914369 78.8717C0.699936 76.0117 0.485508 73.0801 0.292517 70.1771C0.0423479 66.359 0.942961 65.172 4.67406 64.457L7.6761 63.8635C11.6645 63.0699 15.7887 62.2476 19.8629 61.504C20.3704 61.411 20.4991 61.3252 20.7922 60.5816L21.6499 58.3293C22.6962 55.3691 23.9158 52.473 25.3024 49.6561C26.6946 47.1193 28.2865 44.6973 30.0627 42.4131L31.0134 41.1046C31.4137 40.5612 31.3708 40.4968 31.1706 40.1321C28.5903 35.4416 26.0886 30.8369 24.1945 27.2619C22.6363 24.3446 23.1795 22.2567 26.0243 20.3119C30.9491 16.9299 35.9167 13.4406 40.72 10.0657L41.3347 9.63671C44.058 7.69902 45.9592 7.90638 48.1322 10.3517C51.3272 13.984 55.0583 18.2169 58.8537 22.3568C59.0588 22.5152 59.3095 22.603 59.5685 22.6071C67.5263 20.5387 75.8482 20.2943 83.9136 21.8921C84.3067 21.9708 84.3639 21.9851 84.6283 21.5632C87.0657 17.8094 89.6746 13.8339 92.8482 9.04328C94.5351 6.50497 96.3649 5.96871 98.9595 7.25574C110.517 13.1904 105.814 10.7307 109.131 12.4611C109.131 12.4611 111.906 13.9054 113.298 14.6061L114.227 15.1066C116.829 16.5366 119.523 17.9667 119.009 21.2129L118.966 21.3988L118.065 24.1301C117.444 26.0035 116.829 27.884 116.178 29.7501C115.406 31.9953 114.491 34.6051 113.498 37.1363C113.312 37.6153 113.298 37.8513 113.834 38.5663C116.286 41.7982 119.116 45.5806 121.696 49.4917C122.921 51.3986 123.883 53.4622 124.555 55.6266C124.891 56.6776 125.27 56.9422 126.514 56.9708C129.416 57.0209 132.361 57.1138 135.206 57.1996L140.381 57.3927C143.647 57.4785 145.027 58.7512 145.312 61.9473L145.656 65.8942C146.092 70.7635 146.535 75.79 146.921 80.7522C147.228 84.6419 146.306 85.8503 142.46 86.644C137.622 87.6379 132.575 88.6389 127.45 89.6256C126.771 89.7615 126.6 89.9116 126.428 90.5122C125.407 94.19 124.015 97.7547 122.275 101.152L120.174 100.072C121.843 96.8173 123.177 93.4009 124.155 89.8759C124.459 88.4955 125.61 87.4628 127.014 87.309C132.125 86.3222 137.164 85.3212 142.025 84.3273C144.691 83.7768 144.812 83.6123 144.598 80.931C144.212 75.9903 143.769 70.9637 143.34 66.1016L142.989 62.1547C142.818 60.1884 142.396 59.8094 140.359 59.7522C138.615 59.7093 136.878 59.6521 135.141 59.6021C132.282 59.5091 129.366 59.4233 126.478 59.3661C124.97 59.3661 123.133 58.9729 122.311 56.3774C121.711 54.4226 120.853 52.5566 119.759 50.8288C117.215 46.9821 114.413 43.2354 111.983 40.0249C111.06 39.0268 110.806 37.5816 111.332 36.3283C112.311 33.8472 113.212 31.2589 113.984 29.0352C114.627 27.1761 115.242 25.3099 115.857 23.4437C116.143 22.5714 116.436 21.6919 116.729 20.8125C116.9 19.4253 115.857 18.7175 113.155 17.2374L112.24 16.7369L108.087 14.5918C104.785 12.8686 101.375 11.0811 97.9732 9.40796C96.4579 8.69295 95.9075 8.83595 94.8782 10.3875C91.7046 15.171 89.0957 19.1393 86.6726 22.8717C86.0711 24.0174 84.7546 24.5912 83.5062 24.2517C75.7588 22.7217 67.7656 22.9662 60.1261 24.9667C59.039 25.1563 57.9281 24.801 57.1526 24.0157C53.35 19.8615 49.6046 15.6214 46.431 11.9749C45.0658 10.4233 44.5226 10.3732 42.7786 11.6102L42.1567 12.0464C37.3463 15.4212 32.3786 18.9177 27.4467 22.3068C25.6026 23.5653 25.381 24.3661 26.3603 26.1822C28.2473 29.7001 30.7418 34.3334 33.315 39.0096C34.0007 40.1189 33.8757 41.5472 33.0076 42.5204L31.9712 43.8074C30.2745 45.9931 28.7499 48.3071 27.411 50.7287C26.0614 53.4615 24.8681 56.2689 23.8371 59.1372C23.5512 59.8952 23.2653 60.6602 22.9722 61.411C22.6329 62.6718 21.5872 63.6172 20.299 63.8278C16.2534 64.5428 12.1363 65.3865 8.14786 66.1802L5.13867 66.7737C2.8514 72.9323 2.47973 67.4029 2.65127 70.0341C2.65127 70.0341 3.06107 75.8258 3.28027 78.7144C3.52328 82.0321 3.76631 85.3426 3.99504 88.6603C4.13799 90.8054 4.55256 91.2058 6.62539 91.2916L11.493 91.4989C14.6809 91.6419 17.976 91.7849 21.2067 91.8707C22.6623 91.8142 23.9576 92.7875 24.3088 94.2017C27.036 101.501 31.3133 108.122 36.8459 113.607C37.5491 114.519 37.7699 115.714 37.4392 116.818C36.3241 120.464 35.1376 124.147 33.9868 127.707C33.5294 129.137 33.0648 130.567 32.6002 131.997C32.0641 133.685 32.4143 134.471 34.0297 135.208L37.7179 136.881C42.3282 138.976 47.1029 141.171 51.8347 143.18C52.3276 143.305 52.8493 143.244 53.2999 143.009C54.7192 141.717 55.9726 140.255 57.0311 138.654C58.1533 136.945 59.2183 135.158 60.2475 133.42C61.0624 132.047 61.9129 130.625 62.785 129.245C63.4229 128.301 64.5067 127.759 65.6441 127.815C68.6953 128.221 71.7728 128.395 74.8504 128.337L74.9075 130.696C71.7083 130.761 68.5087 130.582 65.3367 130.16C65.1353 130.237 64.9526 130.357 64.8006 130.51C63.9429 131.862 63.1066 133.27 62.2989 134.629C61.2554 136.388 60.1546 138.204 59.0253 139.948C57.8562 141.716 56.4733 143.332 54.9082 144.76C54.1689 145.345 53.2482 145.651 52.3064 145.626V145.626Z" fill="#D3C3F1"/>
<path fill-rule="evenodd" clip-rule="evenodd" d="M167.806 76.4262C167.473 76.435 167.141 76.3716 166.834 76.2402C164.247 75.132 161.645 73.945 159.122 72.801L157.178 71.9216C156.4 71.6568 155.767 71.0804 155.431 70.3305C155.095 69.5806 155.085 68.7246 155.405 67.9675L156.17 65.6008C156.792 63.656 157.421 61.7111 158.014 59.7663V59.7091C154.901 56.581 152.491 52.8246 150.945 48.6907C150.946 48.6668 150.946 48.643 150.945 48.6191C149.186 48.5762 147.428 48.4976 145.663 48.4189L143.047 48.3045C140.995 48.2187 140.016 47.2535 139.88 45.1871C139.382 38.2681 139.63 41.612 139.501 39.8459C139.501 39.8459 139.268 36.6879 139.158 35.1053C139.008 32.7815 139.687 31.8878 141.967 31.4373L143.547 31.1227C145.691 30.6937 147.964 30.2432 150.187 29.8357V29.8357L150.251 29.6784C150.409 29.2851 150.559 28.8775 150.709 28.4843C151.29 26.8609 151.96 25.2711 152.717 23.7222C153.502 22.3174 154.396 20.9763 155.391 19.7111L155.891 18.996V18.996C154.612 16.6651 153.382 14.3913 152.153 12.1033C151.174 10.2729 151.545 8.85712 153.311 7.6416C156.105 5.72535 158.893 3.76621 161.595 1.87142C162.181 1.39712 162.901 1.11723 163.653 1.0706C164.583 1.13248 165.436 1.60399 165.984 2.35763C168.128 4.76723 169.893 6.78358 171.702 8.79277C176.016 7.68117 180.522 7.54197 184.896 8.38521C186.326 6.13291 187.82 3.90921 189.292 1.69266C189.779 0.779472 190.704 0.184065 191.737 0.119629C192.281 0.135798 192.815 0.277735 193.295 0.53434C195.139 1.44241 196.99 2.40768 198.777 3.34435L201.057 4.53128L201.572 4.81014C203.002 5.58236 204.774 6.54763 204.431 8.67837L204.381 8.86428L203.917 10.2943C203.573 11.3382 203.202 12.375 202.873 13.4118C202.43 14.6988 201.944 16.0788 201.443 17.423V17.4874C201.49 17.5414 201.533 17.5987 201.572 17.659C202.909 19.4179 204.431 21.4772 205.861 23.6008C206.543 24.6733 207.079 25.8324 207.455 27.0471C207.569 27.3904 207.569 27.3904 208.012 27.4047C209.592 27.4047 211.164 27.4762 212.744 27.5262L215.532 27.6049C217.562 27.6621 218.548 28.5773 218.727 30.5722L218.905 32.6243C219.141 35.327 219.384 38.0369 219.62 40.7469C219.799 43.1136 219.113 44.0216 216.761 44.5078C214.131 45.0513 211.393 45.5875 208.634 46.1238H208.527C208.525 46.1452 208.525 46.1667 208.527 46.1881C207.426 50.1591 205.538 53.8675 202.973 57.0921C203.581 58.2505 204.195 59.4016 204.817 60.56C205.439 61.7183 206.132 63.0196 206.776 64.2637C207.205 64.9217 207.344 65.7272 207.162 66.4913C206.979 67.2554 206.491 67.9108 205.811 68.3036C202.58 70.6131 199.921 72.4793 197.455 74.1882C196.816 74.6962 196.039 75.0002 195.225 75.0605V75.0605C194.038 75.0605 193.216 74.2311 192.545 73.4517C190.465 71.0564 188.742 69.1044 187.112 67.3168V67.3168C183.16 68.4019 179.029 68.6743 174.968 68.1177C174.525 68.8327 174.096 69.5477 173.675 70.2627C173.11 71.2208 172.524 72.2076 171.888 73.1657C171.235 74.1626 170.457 75.071 169.572 75.8684C169.064 76.2512 168.441 76.4481 167.806 76.4262V76.4262ZM141.474 34.0256C141.579 36.5282 141.455 34.6456 141.474 34.9552C141.474 34.9552 141.691 38.1012 141.81 39.6743C141.943 41.4523 142.072 43.2374 142.196 45.0297C142.253 45.9092 142.267 45.9092 143.104 45.945L145.727 46.0594C147.478 46.1309 149.229 46.2095 150.98 46.2524C151.98 46.2457 152.86 46.9114 153.125 47.8755C154.574 51.7501 156.844 55.265 159.779 58.1789C160.303 58.8122 160.475 59.6659 160.237 60.4526C159.636 62.4189 159.007 64.3709 158.371 66.3229L157.614 68.6825C157.406 69.3331 157.471 69.4761 158.107 69.7621L160.058 70.6487C162.56 71.7856 165.147 72.9654 167.706 74.0665H167.763C167.839 74.0768 167.916 74.0768 167.992 74.0665C168.704 73.4074 169.335 72.6657 169.872 71.8571C170.472 70.9491 171.044 69.9838 171.602 69.0471C172.052 68.2892 172.502 67.5241 172.981 66.7805C173.398 66.1603 174.086 65.7754 174.832 65.7437H175.047C178.842 66.2892 182.708 66.0458 186.405 65.0287C186.584 64.9821 186.769 64.958 186.955 64.9572C187.582 64.9482 188.187 65.1902 188.635 65.6293C190.3 67.4598 192.073 69.4547 194.203 71.9072C194.853 72.6651 195.06 72.7008 195.096 72.7008C195.132 72.7008 195.375 72.7008 195.982 72.2504C198.441 70.5486 201.086 68.6753 204.31 66.3873C203.909 64.1278 204.846 65.9225 204.553 65.3576C204.553 65.3576 203.259 62.9027 202.601 61.6824C201.958 60.4741 201.307 59.2657 200.678 58.0573C200.322 57.3461 200.379 56.4974 200.829 55.8408C203.281 52.8144 205.081 49.3139 206.118 45.5588C206.341 44.6183 207.119 43.9114 208.076 43.7784C210.835 43.2493 213.559 42.7059 216.175 42.1696C216.512 42.1351 216.84 42.0355 217.14 41.8765C217.183 41.5538 217.183 41.2268 217.14 40.9041C216.925 38.2085 216.689 35.5057 216.425 32.8101L216.239 30.758C216.189 30.186 216.089 30.043 216.089 30.043C215.864 29.946 215.619 29.9043 215.374 29.9214L212.579 29.8428C211.014 29.7927 209.442 29.7427 207.876 29.7141C206.597 29.7915 205.441 28.9574 205.11 27.7192C204.805 26.71 204.362 25.7476 203.795 24.8591C202.437 22.7927 200.936 20.7764 199.613 19.046C198.999 18.3565 198.832 17.376 199.185 16.522C199.699 15.2135 200.171 13.8622 200.614 12.5966C200.964 11.567 201.329 10.5445 201.643 9.51487L202.072 8.21354C202.072 7.85604 201.758 7.59863 200.407 6.86932L199.907 6.59761L197.648 5.41783C195.868 4.48831 194.038 3.53019 192.216 2.63642C192.058 2.54232 191.883 2.48148 191.701 2.45767C189.743 5.21525 191.479 2.60067 191.229 2.97963C191.229 2.97963 188.265 7.46279 186.798 9.72223C186.353 10.5304 185.417 10.9338 184.525 10.7018C180.412 9.89323 176.17 10.0277 172.116 11.0951C171.334 11.2506 170.526 10.9974 169.972 10.4229C168.106 8.38515 166.298 6.34736 164.147 3.902C163.746 3.44439 163.589 3.41579 163.589 3.41579C163.589 3.41579 163.389 3.41579 162.874 3.78759C160.165 5.68954 157.371 7.65583 154.576 9.57208C155.455 13.3283 153.782 10.2871 154.154 11.0021C154.154 11.0021 156.727 15.6402 157.971 17.9378C158.438 18.7244 158.355 19.7207 157.764 20.4189L157.256 21.1339C156.349 22.3007 155.534 23.5367 154.819 24.8305C154.098 26.294 153.464 27.7981 152.917 29.3351C152.767 29.7427 152.617 30.1502 152.46 30.5506C152.199 31.412 151.469 32.0483 150.58 32.188C148.379 32.5884 146.141 33.0317 143.983 33.4607L142.396 33.7825C142.075 33.8143 141.763 33.904 141.474 34.0471L141.474 34.0256Z" fill="#D3C3F1"/>
<path fill-rule="evenodd" clip-rule="evenodd" d="M116.793 175.37C116.305 175.369 115.837 175.173 115.492 174.827L108.68 168.013C108.332 167.668 108.137 167.198 108.137 166.708C108.137 166.218 108.332 165.748 108.68 165.403L115.485 158.596C115.946 158.097 116.642 157.891 117.3 158.058C117.958 158.225 118.471 158.739 118.639 159.397C118.806 160.055 118.599 160.752 118.101 161.213L112.597 166.711L118.101 172.21C118.63 172.739 118.788 173.535 118.501 174.227C118.215 174.918 117.541 175.369 116.793 175.37V175.37Z" fill="#BBBBBB" style="mix-blend-mode:multiply"/>
<path fill-rule="evenodd" clip-rule="evenodd" d="M142.418 175.37C141.671 175.366 140.999 174.914 140.715 174.223C140.43 173.533 140.589 172.738 141.117 172.21L146.613 166.711L141.11 161.213C140.387 160.492 140.385 159.322 141.106 158.599C141.826 157.877 142.996 157.875 143.718 158.596L150.53 165.41C150.878 165.755 151.074 166.225 151.074 166.715C151.074 167.205 150.878 167.675 150.53 168.02L143.726 174.827C143.378 175.174 142.908 175.369 142.418 175.37H142.418Z" fill="#BBBBBB" style="mix-blend-mode:multiply"/>
<path fill-rule="evenodd" clip-rule="evenodd" d="M133.09 175.37C132.408 175.367 131.783 174.991 131.46 174.391L124.169 160.805C123.858 160.224 123.88 159.521 124.227 158.96C124.574 158.399 125.194 158.067 125.853 158.088C126.512 158.108 127.11 158.479 127.422 159.06L134.719 172.646C135.199 173.546 134.86 174.665 133.962 175.148C133.694 175.294 133.394 175.371 133.09 175.37V175.37Z" fill="#BBBBBB" style="mix-blend-mode:multiply"/>
<path fill-rule="evenodd" clip-rule="evenodd" d="M444.072 131.754H306.6C296.034 110.877 275.085 97.2755 251.721 96.1224C228.358 94.9693 206.172 106.442 193.602 126.177C192.259 128.322 192.988 132.734 196.89 132.734H229.948C245.175 132.738 257.517 145.087 257.517 160.319V162.056C257.517 177.287 245.174 189.635 229.948 189.635H197.505C193.402 189.635 192.28 194.132 193.638 196.263C206.229 215.956 228.403 227.389 251.741 226.224C275.08 225.058 296.005 211.471 306.572 190.621H444.072C454.694 190.787 464.58 185.213 469.939 176.039C475.298 166.864 475.298 155.512 469.939 146.337C464.58 137.162 454.694 131.589 444.072 131.754L444.072 131.754ZM444.866 170.079C439.955 170.079 435.974 166.097 435.974 161.184C435.974 156.272 439.955 152.289 444.866 152.289C449.777 152.289 453.758 156.272 453.758 161.184C453.746 166.086 449.772 170.054 444.873 170.058L444.866 170.079Z" fill="url(#paint1_linear)"/>
<path fill-rule="evenodd" clip-rule="evenodd" d="M440.877 184.2H315.371V179.753H440.877C451.141 179.753 459.462 171.43 459.462 161.163C459.462 150.895 451.141 142.572 440.877 142.572H315.371V138.125H440.877C449.201 137.978 456.955 142.336 461.16 149.523C465.364 156.71 465.364 165.608 461.16 172.795C456.955 179.982 449.201 184.34 440.877 184.193V184.2Z" fill="url(#paint2_linear)" style="mix-blend-mode:multiply"/>
<path fill-rule="evenodd" clip-rule="evenodd" d="M358.707 152.847H356.084L353.94 159.068L353.511 160.298L350.909 152.847H348.164L345.57 160.298L345.134 159.068L342.989 152.847H339.666L339.902 153.562L340.738 155.95L342.761 161.778L344.19 166.011H346.949L349.544 158.574L352.131 166.011H354.862L356.313 161.785L358.343 155.957L359.172 153.569L359.415 152.854L358.707 152.847ZM369.779 161.885L369.379 162.099C368.786 162.407 368.175 162.679 367.549 162.914C366.928 163.139 366.273 163.255 365.612 163.258C364.896 163.297 364.185 163.109 363.582 162.721C363.183 162.402 362.891 161.967 362.746 161.477H364.475C365.878 161.523 367.272 161.236 368.542 160.641C369.914 159.984 370.777 158.587 370.751 157.066C370.782 155.724 370.11 154.463 368.979 153.741C367.939 153.051 366.716 152.69 365.469 152.704C363.705 152.679 362.023 153.448 360.887 154.799C359.746 156.21 359.161 157.991 359.243 159.804C359.153 161.509 359.733 163.182 360.859 164.466C362.053 165.711 363.725 166.38 365.448 166.304C367.404 166.273 369.312 165.691 370.951 164.623L371.387 164.344L369.779 161.885ZM364.29 155.872C364.621 155.694 364.993 155.603 365.369 155.607C365.659 155.605 365.949 155.634 366.234 155.693C366.489 155.736 366.732 155.831 366.949 155.972C367.113 156.07 367.251 156.207 367.349 156.372C367.471 156.572 367.531 156.803 367.52 157.037C367.557 157.295 367.478 157.556 367.306 157.752C367.062 157.983 366.779 158.167 366.47 158.295C365.828 158.484 365.157 158.554 364.49 158.503H362.567C362.697 157.839 362.983 157.217 363.403 156.687C363.653 156.369 363.952 156.094 364.29 155.872V155.872ZM383.174 154.513C381.362 152.446 378.386 151.859 375.926 153.083V147.406H372.731V165.553L373.088 165.66C374.578 166.042 376.11 166.237 377.649 166.239C379.972 166.239 381.759 165.567 382.967 164.237C384.145 162.84 384.771 161.059 384.725 159.232C384.749 157.53 384.203 155.869 383.174 154.513V154.513ZM379.6 162.936C379.076 163.155 378.509 163.256 377.942 163.229C377.42 163.229 376.705 163.179 375.948 163.107V157.495C375.971 157.063 376.157 156.657 376.469 156.358C377.014 155.749 377.797 155.409 378.614 155.428C379.495 155.405 380.318 155.866 380.758 156.629C381.254 157.444 381.503 158.386 381.473 159.339C381.531 160.33 381.229 161.308 380.622 162.092C380.344 162.453 379.984 162.742 379.571 162.936L379.6 162.936ZM386.226 152.868H389.421V165.996H386.226V152.868ZM404.131 166.003V156.894C404.142 156.216 404.008 155.543 403.738 154.921C403.023 153.491 401.429 152.676 399.235 152.676C397.794 152.612 396.385 153.109 395.304 154.063C394.928 153.538 394.46 153.085 393.924 152.726L393.595 152.49L391.508 154.392L391.908 154.763C392.234 155.054 392.499 155.406 392.687 155.8C392.842 156.221 392.917 156.667 392.909 157.116V166.011H396.104V157.359C396.457 156.892 396.885 156.486 397.369 156.158C397.883 155.808 398.492 155.624 399.113 155.629C399.629 155.597 400.138 155.758 400.543 156.079C400.743 156.258 400.943 156.572 400.943 157.509V166.003H404.131ZM408.848 165.681C410.65 164.38 412.522 164.924 414.402 164.966H414.752C415.784 164.963 416.815 164.9 417.84 164.781V152.868H414.652V160.955C414.652 160.955 414.145 163 412.229 163.029C412.229 163.029 410.085 163.193 409.813 161.377V152.883H406.626V161.985C406.612 162.651 406.737 163.313 406.99 163.93C407.382 164.716 408.041 165.337 408.848 165.681V165.681Z" fill="#EEEEEE"/>
<path fill-rule="evenodd" clip-rule="evenodd" d="M422.236 158.296C421.008 157.551 419.535 157.324 418.141 157.666V157.666V161.291C418.178 161.224 418.224 161.162 418.276 161.106C418.349 161.036 418.428 160.974 418.512 160.92C419.172 160.59 419.955 160.622 420.585 161.005C421.148 161.343 421.455 161.985 421.364 162.636C421.335 163.177 421.075 163.68 420.649 164.016C419.893 164.573 419.008 164.929 418.076 165.052H418.026H417.926V165.052C416.871 165.153 415.812 165.201 414.753 165.196H414.038C413.402 165.16 412.816 165.117 412.315 165.074H411.808H411.365L410.979 165.11H410.857C410.212 165.223 409.597 165.466 409.049 165.825L408.999 165.86C408.466 166.206 408.017 166.665 407.683 167.205C406.708 168.864 406.708 170.922 407.683 172.582C408.606 174.178 410.364 175.101 412.201 174.955C413.577 174.892 414.868 174.27 415.775 173.232C416.612 172.224 417.191 171.026 417.462 169.743C417.562 169.335 417.64 168.928 417.697 168.542L414.467 168.47C414.395 168.813 414.309 169.185 414.209 169.493C414.054 170.068 413.787 170.608 413.423 171.08C413.07 171.483 412.565 171.722 412.029 171.738C411.377 171.819 410.741 171.496 410.421 170.923C410.042 170.291 410.023 169.506 410.371 168.856C410.423 168.77 410.485 168.691 410.557 168.62C410.984 168.293 411.524 168.149 412.058 168.22C412.672 168.22 413.266 168.22 413.852 168.22V168.22C414.081 168.22 414.302 168.22 414.524 168.22V168.22L417.797 168.292C419.579 168.149 421.284 167.504 422.715 166.432C423.776 165.536 424.425 164.244 424.509 162.857C424.692 161.02 423.802 159.242 422.222 158.288" fill="#EEEEEE"/>
<path fill-rule="evenodd" clip-rule="evenodd" d="M249.447 253.636C229.696 253.698 210.49 247.154 194.882 235.045L195.368 234.423C210.837 246.422 229.873 252.903 249.447 252.835C297.694 251.865 336.299 212.463 336.299 164.191C336.299 115.918 297.694 76.5159 249.447 75.5465C225.046 75.4491 201.704 85.5129 185.018 103.325L184.446 102.789C201.278 84.815 224.828 74.66 249.447 74.76C298.824 74.76 338.851 114.801 338.851 164.194C338.851 213.587 298.824 253.628 249.447 253.628L249.447 253.636Z" fill="#F94F24"/>
<path fill-rule="evenodd" clip-rule="evenodd" d="M127.021 266.234C73.1634 266.234 29.3479 222.404 29.3479 168.527C29.3447 161.927 30.0071 155.33 31.3251 148.849L32.0971 149.006C30.7865 155.435 30.1279 161.98 30.1314 168.541C30.1314 221.981 73.5895 265.461 127.019 265.461C148.13 265.527 168.674 258.631 185.473 245.841L185.952 246.47C169.014 259.359 148.302 266.305 127.021 266.234V266.234Z" fill="#F94F24"/>
<path fill-rule="evenodd" clip-rule="evenodd" d="M424.538 208.561H421.071C420.627 208.596 420.2 208.378 419.967 207.998C419.734 207.617 419.734 207.138 419.967 206.758C420.2 206.378 420.627 206.16 421.071 206.195H424.538C424.982 206.16 425.409 206.378 425.642 206.758C425.875 207.138 425.875 207.617 425.642 207.998C425.409 208.378 424.982 208.596 424.538 208.561V208.561ZM412.844 208.561H407.912C407.468 208.596 407.041 208.378 406.808 207.998C406.575 207.617 406.575 207.138 406.808 206.758C407.041 206.378 407.468 206.16 407.912 206.195H412.844C413.462 206.243 413.939 206.758 413.939 207.378C413.939 207.998 413.462 208.513 412.844 208.561V208.561ZM399.685 208.561H394.753C394.309 208.596 393.882 208.378 393.649 207.998C393.417 207.617 393.417 207.138 393.649 206.758C393.882 206.378 394.309 206.16 394.753 206.195H399.685C400.303 206.243 400.78 206.758 400.78 207.378C400.78 207.998 400.303 208.513 399.685 208.561V208.561ZM386.526 208.561H381.594C381.15 208.596 380.723 208.378 380.491 207.998C380.258 207.617 380.258 207.138 380.491 206.758C380.723 206.378 381.15 206.16 381.594 206.195H386.526C387.144 206.243 387.621 206.758 387.621 207.378C387.621 207.998 387.144 208.513 386.526 208.561V208.561ZM373.367 208.561H368.436C367.991 208.596 367.564 208.378 367.332 207.998C367.099 207.617 367.099 207.138 367.332 206.758C367.564 206.378 367.991 206.16 368.436 206.195H373.396C373.841 206.16 374.267 206.378 374.5 206.758C374.733 207.138 374.733 207.617 374.5 207.998C374.267 208.378 373.841 208.596 373.396 208.561H373.367ZM360.209 208.561H355.277C354.659 208.513 354.182 207.998 354.182 207.378C354.182 206.758 354.659 206.243 355.277 206.195H360.209C360.653 206.16 361.08 206.378 361.312 206.758C361.545 207.138 361.545 207.617 361.312 207.998C361.08 208.378 360.653 208.596 360.209 208.561V208.561ZM347.05 208.561H342.118C341.5 208.513 341.023 207.998 341.023 207.378C341.023 206.758 341.5 206.243 342.118 206.195H347.05C347.494 206.16 347.921 206.378 348.153 206.758C348.386 207.138 348.386 207.617 348.153 207.998C347.921 208.378 347.494 208.596 347.05 208.561V208.561ZM333.891 208.561H328.959C328.341 208.513 327.864 207.998 327.864 207.378C327.864 206.758 328.341 206.243 328.959 206.195H333.891C334.335 206.16 334.762 206.378 334.995 206.758C335.227 207.138 335.227 207.617 334.995 207.998C334.762 208.378 334.335 208.596 333.891 208.561V208.561ZM320.732 208.561H315.8C315.182 208.513 314.705 207.998 314.705 207.378C314.705 206.758 315.182 206.243 315.8 206.195H320.732C321.176 206.16 321.603 206.378 321.836 206.758C322.069 207.138 322.069 207.617 321.836 207.998C321.603 208.378 321.176 208.596 320.732 208.561V208.561Z" fill="#F94F24"/>
<defs>
<linearGradient id="paint0_linear" x1="56.8309" y1="234.218" x2="201.215" y2="234.218" gradientUnits="userSpaceOnUse">
<stop stop-color="#8033EB"/>
<stop offset="1" stop-color="#6731CE"/>
</linearGradient>
<linearGradient id="paint1_linear" x1="360.509" y1="292.709" x2="386.788" y2="154.516" gradientUnits="userSpaceOnUse">
<stop stop-color="#8033EB"/>
<stop offset="1" stop-color="#F94F24"/>
</linearGradient>
<linearGradient id="paint2_linear" x1="315.371" y1="184.139" x2="463.907" y2="184.139" gradientUnits="userSpaceOnUse">
<stop stop-color="#EEEEEE"/>
<stop offset="1" stop-color="#F94F24"/>
</linearGradient>
</defs>
</svg>
