<svg width="771" height="1289" viewBox="0 0 771 1289" fill="none" xmlns="http://www.w3.org/2000/svg">
<path opacity="0.7" fill-rule="evenodd" clip-rule="evenodd" d="M740.298 744.114L635.415 804.201C625.489 809.887 613.26 809.887 603.334 804.201L498.449 744.114C488.523 738.427 482.408 727.92 482.408 716.547V596.372C482.408 585 488.523 574.491 498.449 568.805L603.334 508.718C613.26 503.031 625.489 503.031 635.415 508.718L740.298 568.805C750.225 574.491 756.339 585 756.339 596.372V716.547C756.339 727.92 750.225 738.427 740.298 744.114Z" fill="white" fill-opacity="0.0509804"/>
<path fill-rule="evenodd" clip-rule="evenodd" d="M724.711 910.102L519.188 907.853C499.739 907.639 481.652 896.614 471.739 878.931L367.004 692.069C357.092 674.384 356.861 652.73 366.4 635.26L467.19 450.647C476.728 433.177 494.585 422.545 514.034 422.76L719.56 425.01C739.011 425.221 757.098 436.246 767.009 453.931L871.742 640.792C881.655 658.475 881.885 680.131 872.347 697.601L771.556 882.214C762.018 899.684 744.162 910.314 724.711 910.102V910.102Z" stroke="#E4E4E4"/>
<path fill-rule="evenodd" clip-rule="evenodd" d="M957.01 785.157L746.358 998.319C726.421 1018.49 697.63 1026.62 670.826 1019.66L387.6 946.049C360.796 939.081 340.055 918.075 333.188 890.936L260.619 604.161C253.751 577.022 261.8 547.877 281.737 527.707L492.394 314.544C512.329 294.369 541.121 286.233 567.925 293.201L851.147 366.815C877.951 373.778 898.692 394.789 905.56 421.927L978.129 708.702C984.997 735.841 976.946 764.982 957.01 785.157V785.157Z" stroke="#E4E4E4"/>
<path fill-rule="evenodd" clip-rule="evenodd" d="M873.318 1078.28L482.786 1122.47C445.827 1126.64 408.98 1110.14 386.12 1079.17L144.587 751.9C121.73 720.926 116.335 680.196 130.436 645.044L279.441 273.584C293.542 238.432 324.995 214.2 361.953 210.021L752.491 165.834C789.452 161.65 826.298 178.153 849.156 209.127L1090.68 536.397C1113.54 567.366 1118.94 608.1 1104.84 643.253L955.831 1014.71C941.73 1049.87 910.279 1074.09 873.318 1078.28V1078.28Z" stroke="#E4E4E4"/>
</svg>
