<svg width="20" height="20" viewBox="0 0 20 20" fill="none" xmlns="http://www.w3.org/2000/svg">
<path fill-rule="evenodd" clip-rule="evenodd" d="M10 20C15.5228 20 20 15.5228 20 10C20 4.47715 15.5228 0 10 0C4.47715 0 0 4.47715 0 10C0 15.5228 4.47715 20 10 20ZM10 19.2C15.0811 19.2 19.2 15.0811 19.2 10C19.2 4.91903 15.0811 0.800049 10 0.800049C4.91903 0.800049 0.800049 4.91903 0.800049 10C0.800049 15.0811 4.91903 19.2 10 19.2ZM10.5657 10.0001L15.0911 5.47462L14.5255 4.90894L9.99998 9.43442L5.4745 4.90894L4.90881 5.47462L9.4343 10.0001L4.90881 14.5256L5.4745 15.0913L9.99998 10.5658L14.5255 15.0913L15.0911 14.5256L10.5657 10.0001Z" fill="#C11718"/>
</svg>
