<svg width="81" height="90" viewBox="0 0 81 90" fill="none" xmlns="http://www.w3.org/2000/svg">
<path fill-rule="evenodd" clip-rule="evenodd" d="M76.2568 70.8638L45.2433 88.6271C42.3082 90.3078 38.6922 90.3078 35.7571 88.6271L4.74302 70.8638C1.80795 69.1825 0 66.0763 0 62.7143V27.1878C0 23.8258 1.80795 20.7191 4.74302 19.0384L35.7571 1.27511C38.6922 -0.406157 42.3082 -0.406157 45.2433 1.27511L76.2568 19.0384C79.1919 20.7191 80.9999 23.8258 80.9999 27.1878V62.7143C80.9999 66.0763 79.1919 69.1825 76.2568 70.8638ZM59.2454 29.9665C56.9194 36.4768 54.5768 43.0036 52.2349 49.5376H51.4915C49.1573 42.9878 46.8153 36.4451 44.4811 29.9111H37.1989C34.8326 36.5168 32.4906 43.0589 30.1486 49.6093H29.4688C27.0948 42.9954 24.7208 36.382 22.4262 29.9982H13.7292C17.9582 42.0121 22.0828 53.7246 26.2074 65.4371H33.3857L40.4924 45.62H41.2119C43.5859 52.2657 45.9522 58.9191 48.2781 65.4212H55.4726C59.6131 53.661 63.7377 41.9408 67.9507 29.9665H59.2454Z" fill="white"/>
</svg>
