<?xml version="1.0" encoding="UTF-8"?>
<svg width="63px" height="70px" viewBox="0 0 63 70" version="1.1" xmlns="http://www.w3.org/2000/svg" xmlns:xlink="http://www.w3.org/1999/xlink">
    <!-- Generator: Sketch 55.2 (78181) - https://sketchapp.com -->
    <title>Logo</title>
    <desc>Created with Sketch.</desc>
    <g id="Landing-page-Webiny" stroke="none" stroke-width="1" fill="none" fill-rule="evenodd">
        <g id="Desktop-HD" transform="translate(-795.000000, -3050.000000)" fill="#FA5A28">
            <g id="Section-DIY-approach" transform="translate(321.486206, 2682.999756)">
                <g id="webiny" transform="translate(433.513550, 367.000244)">
                    <g id="Logo" transform="translate(40.000244, 0.000000)">
                        <g id="Webiny-Icon-White">
                            <path d="M59.3108,55.1052391 L35.18921,68.921102 C32.9063251,70.2283359 30.0939056,70.2283359 27.8110751,68.921102 L3.6890163,55.1052391 C1.40618286,53.7975886 0,51.3816443 0,48.7667558 L0,21.1350341 C0,18.5201435 1.40618286,16.1038367 3.6890163,14.7965977 L27.8110751,0.980738559 C30.0939056,-0.326912875 32.9063251,-0.326912875 35.18921,0.980738559 L59.3108,14.7965977 C61.5936812,16.1038367 62.9998665,18.5201435 62.9998665,21.1350341 L62.9998665,48.7667558 C62.9998665,51.3816443 61.5936812,53.7975886 59.3108,55.1052391 L59.3108,55.1052391 Z M46.079763,23.296218 C44.2706774,28.3598139 42.4486717,33.4362241 40.6271335,38.5181623 L40.0490019,38.5181623 C38.2335065,33.4238736 36.4119206,28.3351141 34.5964252,23.2531738 L28.9324711,23.2531738 C27.0920239,28.3909199 25.2704869,33.4792179 23.4489512,38.573971 L22.9201993,38.573971 C21.0737639,33.4298158 19.2273291,28.2860744 17.4426695,23.3209177 L10.6783447,23.3209177 C13.9675294,32.6649951 17.1755599,41.7747354 20.3835376,50.8844757 L25.9667039,50.8844757 L31.4940796,35.4711806 L32.0537182,35.4711806 C33.9001542,40.6400352 35.7406026,45.8148863 37.5496882,50.8720725 L43.1453549,50.8720725 C46.3657847,41.7252856 49.5738121,32.6096023 52.8505478,23.296218 L46.079763,23.296218 L46.079763,23.296218 Z" id="path-1"></path>
                        </g>
                    </g>
                </g>
            </g>
        </g>
    </g>
</svg>