<?xml version="1.0" encoding="UTF-8"?>
<svg width="1084px" height="40px" viewBox="0 0 1084 40" version="1.1" xmlns="http://www.w3.org/2000/svg" xmlns:xlink="http://www.w3.org/1999/xlink">
    <!-- Generator: Sketch 50.2 (55047) - http://www.bohemiancoding.com/sketch -->
    <title>Logos</title>
    <desc>Created with Sketch.</desc>
    <defs></defs>
    <g id="Home-v1" stroke="none" stroke-width="1" fill="none" fill-rule="evenodd">
        <g id="Main-page" transform="translate(-250.000000, -2704.000000)" fill-rule="nonzero">
            <g id="CMS" transform="translate(0.000000, 525.000000)">
                <g id="Plugins" transform="translate(194.000000, 2105.000000)">
                    <g id="Logos" transform="translate(56.000000, 74.000000)">
                        <g id="twitter" transform="translate(205.000000, 2.000000)" fill="#CCCCCC">
                            <path d="M31.4039675,0.00843507214 L31.4039675,0 L33.6077547,0 L34.4129847,0.160266371 C34.9498188,0.264312986 35.4371948,0.400665927 35.8751127,0.56936737 C36.313073,0.738068812 36.7368783,0.934901221 37.1465284,1.15982242 C37.5562209,1.38474362 37.927771,1.61392453 38.2611785,1.8472808 C38.5917466,2.0778535 38.8884103,2.32247059 39.1511695,2.58113208 C39.4110469,2.84261931 39.8165014,2.91009989 40.3674482,2.78357381 C40.918395,2.65704772 41.5117223,2.481303 42.1474301,2.2563818 C42.783138,2.0314606 43.4118106,1.77840844 44.0333634,1.49722531 C44.6549585,1.21604218 45.0335861,1.03751387 45.1692038,0.961598224 C45.301982,0.882899001 45.3726303,0.84072364 45.3811064,0.835072142 L45.3895401,0.822419534 L45.4319206,0.801331853 L45.4743012,0.780244173 L45.5166817,0.759156493 L45.5590622,0.738068812 L45.5675383,0.725416204 L45.5802525,0.716981132 L45.593009,0.70854606 L45.6014427,0.695893452 L45.6438233,0.683240844 L45.6862038,0.674805771 L45.6777701,0.738068812 L45.6650135,0.801331853 L45.6438233,0.864594895 L45.622633,0.927857936 L45.6014427,0.970033296 L45.5802525,1.01220866 L45.5590622,1.0754717 C45.5449495,1.11764706 45.5308368,1.17386681 45.5166817,1.24417314 C45.502569,1.31447947 45.3683499,1.59562042 45.1140667,2.08768036 C44.8597836,2.57974029 44.5419297,3.07880133 44.160505,3.58490566 C43.7790803,4.09100999 43.437239,4.47337181 43.1349387,4.73207547 C42.8297989,4.99356271 42.627771,5.17630855 42.5288548,5.28035516 C42.4299811,5.38718535 42.309917,5.48558047 42.1686204,5.57558269 L41.9567178,5.71476138 L41.9143372,5.73584906 L41.8719567,5.75693674 L41.863523,5.76958935 L41.8507665,5.77802442 L41.8380523,5.78645949 L41.8295762,5.7991121 L41.7871957,5.82019978 L41.7448151,5.84128746 L41.7363814,5.85394007 L41.7236249,5.86237514 L41.7109107,5.87081021 L41.7024346,5.88346282 L41.6940009,5.89611543 L41.6812444,5.9045505 L41.6685302,5.91298557 L41.6600541,5.92563818 L41.8719567,5.92563818 L43.0586114,5.67258602 C43.8497286,5.50388457 44.6055005,5.30005105 45.3259693,5.06104329 L46.4702435,4.68146504 L46.597385,4.63928968 L46.6609558,4.618202 L46.7033363,4.59711432 L46.7457169,4.57602664 L46.7880974,4.55493896 L46.8304779,4.53385128 L46.915239,4.52119867 L47,4.5127636 L47,4.59711432 L46.9788097,4.60554939 L46.9576195,4.618202 L46.9491858,4.63085461 L46.9364292,4.63928968 L46.9237151,4.64772475 L46.915239,4.66037736 L46.9068052,4.67302997 L46.8940487,4.68146504 L46.8813345,4.68990011 L46.8728584,4.70255272 L46.8644247,4.71520533 L46.8516682,4.7236404 L46.8304779,4.76581576 L46.8092876,4.80799112 L46.7965735,4.81642619 C46.7909369,4.82486127 46.6115401,5.06382686 46.2583408,5.53340733 C45.9051839,6.00577137 45.7144716,6.24473696 45.6862038,6.25038846 C45.6579784,6.25882353 45.618395,6.30099889 45.5675383,6.37691454 C45.5195212,6.45561376 45.220018,6.76914539 44.6690712,7.31742508 C44.1181244,7.86570477 43.5785356,8.35350499 43.0501776,8.7809101 C42.5190225,9.21109878 42.2505843,9.73968257 42.2449477,10.3667037 C42.2364716,10.990899 42.2039657,11.6966615 42.1474301,12.4839068 C42.0909369,13.2711942 41.9849856,14.1217026 41.8295762,15.0355161 C41.6742092,15.9493296 41.4340388,16.982626 41.1091073,18.1354051 C40.7842182,19.2881842 40.3886384,20.4128746 39.9224527,21.509434 C39.4562669,22.6059933 38.9688909,23.590071 38.4603246,24.4617092 C37.9517583,25.3333474 37.4855726,26.0714162 37.0617674,26.6759156 C36.6379621,27.2804151 36.2071217,27.8497825 35.7691614,28.3840178 C35.3312435,28.9182531 34.7774995,29.5199689 34.1078873,30.1891232 C33.4354355,30.8554939 33.0681659,31.2210277 33.0059937,31.2856826 C32.9410243,31.3475538 32.6641524,31.5781265 32.1752931,31.9773585 C31.689358,32.3794162 31.1666366,32.7814739 30.6072137,33.1835738 C30.0506303,33.5828479 29.5392245,33.9160333 29.0730388,34.1831299 C28.606853,34.4502264 28.044633,34.7552808 27.386294,35.0983352 C26.7308368,35.4441731 26.0216411,35.7647059 25.2587917,36.0599334 C24.4959423,36.3551609 23.6907124,36.6293008 22.8431019,36.8823529 C21.9954914,37.1354051 21.1761488,37.3322375 20.3850316,37.472808 C19.5939567,37.6133785 18.6968882,37.7329034 17.6938683,37.8312986 L16.1893598,37.9789123 L16.1893598,38 L13.4346258,38 L13.4346258,37.9789123 L13.0743913,37.9578246 C12.8342633,37.9437802 12.6364734,37.9296937 12.481064,37.9156493 C12.325697,37.9016049 11.7394049,37.8242553 10.7222723,37.6836848 C9.70513977,37.5431143 8.90698738,37.4025017 8.32777277,37.2619312 C7.74860054,37.1213607 6.88683499,36.854222 5.74256087,36.4605993 C4.59828674,36.0669767 3.61929666,35.6690943 2.80559062,35.2670366 C1.99472408,34.8677625 1.4861578,34.6147103 1.27989179,34.5078801 C1.07646528,34.4038335 0.84761046,34.2745239 0.593327322,34.1198668 L0.211902615,33.8879023 L0.203468891,33.8752497 L0.190712353,33.8668147 L0.177998197,33.8583796 L0.169522092,33.845727 L0.127141569,33.8246393 L0.084761046,33.8035516 L0.0763273219,33.790899 L0.0635707845,33.7824639 L0.0508566276,33.7740289 L0.042380523,33.7613762 L0.0339467989,33.7487236 L0.0211902615,33.7402886 L0,33.7402886 L0,33.6559378 L0.042380523,33.6643729 L0.084761046,33.6770255 L0.275473399,33.6981132 C0.402614968,33.7121576 0.7487367,33.7332453 1.31379621,33.7613762 C1.87889811,33.7895072 2.4792606,33.7895072 3.11496844,33.7613762 C3.75067628,33.7332453 4.40053922,33.6699822 5.0644725,33.5715871 C5.72844815,33.473192 6.51248783,33.3044906 7.41659152,33.0654828 C8.3207376,32.826475 9.15139585,32.5425083 9.90860866,32.2135405 C10.662982,31.8817891 11.1997737,31.6343463 11.5190685,31.4712542 C11.8354815,31.3109878 12.3186195,31.0129345 12.96844,30.5771365 L13.9431921,29.9234184 L13.9516682,29.9107658 L13.9643823,29.9023307 L13.9771389,29.8938957 L13.9855726,29.8812431 L13.9940487,29.8685905 L14.0067628,29.8601554 L14.0195194,29.8517203 L14.0279531,29.8390677 L14.0703336,29.8264151 L14.1127142,29.81798 L14.1211903,29.7758047 L14.1339044,29.7336293 L14.146661,29.7251942 L14.1550947,29.7125416 L13.8160505,29.6914539 C13.5900352,29.6774095 13.371055,29.663323 13.1591524,29.6492786 C12.9472498,29.6352342 12.6152831,29.5719711 12.1632101,29.4594895 C11.7111794,29.3470078 11.2238034,29.1783063 10.7010821,28.9533851 C10.1784031,28.7284639 9.66983679,28.4613252 9.17538323,28.1520533 C8.68097205,27.8427814 8.32353472,27.5854695 8.103156,27.3802442 C7.88561677,27.1777603 7.60306583,26.89101 7.25554554,26.5198668 C6.91086474,26.1459401 6.61136159,25.7621021 6.35707845,25.3684795 C6.10279531,24.9748568 5.85982777,24.5207125 5.62817583,24.0062153 L5.27637511,23.2386238 L5.25518485,23.1753607 L5.23399459,23.1120977 L5.22128043,23.0699223 L5.21280433,23.0277469 L5.27637511,23.036182 L5.3399459,23.0488346 L5.80613165,23.1120977 C6.11695041,23.154273 6.60432642,23.1683174 7.26825969,23.154273 C7.93223535,23.1402286 8.39134355,23.1120977 8.64562669,23.0699223 C8.89990983,23.0277469 9.05531921,22.999616 9.11181244,22.9855716 L9.19657349,22.9644839 L9.3025248,22.9433962 L9.4084761,22.9223085 L9.41695221,22.9096559 L9.42966637,22.9012209 L9.4424229,22.8927858 L9.45085663,22.8801332 L9.36609558,22.8590455 L9.28133454,22.8379578 L9.19657349,22.8168701 L9.11181244,22.7957825 L9.0270514,22.7746948 C8.97055816,22.7606504 8.8716844,22.7325194 8.73038774,22.6903441 C8.58913345,22.6481687 8.20770875,22.4935117 7.58611362,22.2264151 C6.96456087,21.9593185 6.4701073,21.6992231 6.10279531,21.4461709 C5.73457279,21.1923852 5.38347353,20.914838 5.05175834,20.6153163 C4.72119026,20.3116537 4.3581587,19.9208147 3.9625789,19.4428413 C3.56704148,18.9648679 3.21388458,18.409545 2.90306583,17.7769145 C2.59228945,17.1442841 2.35919657,16.5397847 2.2037872,15.963374 C2.04900275,15.390354 1.9468834,14.8045174 1.89868981,14.2130966 L1.82236249,13.327414 L1.86474301,13.3358491 L1.90712353,13.3485017 L1.94950406,13.3695893 L1.99188458,13.390677 L2.0342651,13.4117647 L2.07664563,13.4328524 L2.73354373,13.7280799 C3.17150406,13.9249123 3.71537331,14.0936138 4.36519387,14.2341842 C5.01505681,14.3747547 5.40351668,14.4521043 5.53065825,14.4661487 L5.7213706,14.4872364 L6.10279531,14.4872364 L6.09436159,14.4745838 L6.08160505,14.4661487 L6.06889089,14.4577137 L6.06041479,14.445061 L6.05198106,14.4324084 L6.03922453,14.4239734 L6.02651037,14.4155383 L6.01803427,14.4028857 L5.97565374,14.381798 L5.93327322,14.3607103 L5.9248395,14.3480577 L5.91208296,14.3396226 L5.8993688,14.3311876 L5.8908927,14.318535 L5.84851217,14.2974473 L5.80613165,14.2763596 L5.79769793,14.263707 C5.78922182,14.2580555 5.66771686,14.1680954 5.43318305,13.9937847 C5.20148873,13.8166482 4.95852119,13.5875094 4.70423805,13.3063263 C4.44995491,13.0251432 4.19567178,12.7299156 3.94138864,12.4206437 C3.68663732,12.1106632 3.45973607,11.7790153 3.26330027,11.4295228 C3.06555275,11.0780755 2.85644725,10.6309745 2.63606853,10.0883463 C2.41852931,9.54850166 2.25324527,9.00443951 2.14021641,8.45615982 C2.02722994,7.90788013 1.96365915,7.36664373 1.94950406,6.83240844 C1.93539134,6.29817314 1.94950406,5.84128746 1.99188458,5.46170921 C2.0342651,5.08213097 2.11902615,4.65333407 2.24616772,4.17536071 C2.37330929,3.69738735 2.55698647,3.19128302 2.79711452,2.65704772 L3.15734896,1.85571587 L3.17853922,1.79245283 L3.19972949,1.72918979 L3.21248602,1.72075472 L3.22091975,1.70810211 L3.22939585,1.6954495 L3.24211001,1.68701443 L3.25486655,1.6954495 L3.26330027,1.70810211 L3.27177638,1.72075472 L3.28449053,1.72918979 L3.29724707,1.73762486 L3.30568079,1.75027747 L3.3141569,1.76293008 L3.32687106,1.77136515 L3.34806132,1.81354051 L3.36925158,1.85571587 L3.38200812,1.86415094 L3.39044184,1.87680355 L3.9625789,2.50943396 C4.34400361,2.93118757 4.79607665,3.40215982 5.31875564,3.92230855 C5.84147701,4.44245727 6.13106312,4.71237958 6.18755636,4.73207547 C6.24409197,4.75455494 6.31469793,4.81920977 6.39945897,4.92608213 C6.48422002,5.03012875 6.76677096,5.27896337 7.24706943,5.67258602 C7.72741028,6.06620866 8.35604058,6.52313651 9.13300271,7.04328524 C9.91000721,7.56343396 10.7717304,8.07658158 11.7182146,8.5826859 C12.6647412,9.08879023 13.6818738,9.54567592 14.7696123,9.95338513 C15.8573931,10.3610943 16.6202426,10.6281909 17.0581605,10.754717 C17.4961208,10.8812431 18.2448151,11.0429012 19.3043282,11.2397336 C20.3638413,11.436566 21.1620361,11.5630921 21.6988278,11.6193119 C22.2356619,11.6755316 22.6029739,11.7078801 22.8007214,11.7163152 L23.097385,11.7247503 L23.0889513,11.6614872 L23.0761948,11.5982242 L22.9914337,11.0710322 C22.9349405,10.7195849 22.9066727,10.227525 22.9066727,9.59489456 C22.9066727,8.96226415 22.9561307,8.37885239 23.0550045,7.84461709 C23.1539206,7.3103818 23.3022525,6.76914539 23.5,6.2208657 C23.6977899,5.67258602 23.8913417,5.2325283 24.0806132,4.90077691 C24.2727665,4.5718091 24.5242101,4.19644839 24.8349865,3.77469478 C25.1458052,3.35294118 25.5484202,2.91714317 26.0428314,2.4672586 C26.5372849,2.01737403 27.1023445,1.6167081 27.7380523,1.26526082 C28.3737601,0.913813541 28.9600523,0.646674806 29.496844,0.463928968 C30.0336781,0.28118313 30.4857511,0.161658158 30.8530207,0.105438402 C31.2203327,0.0492186459 31.4039675,0.0168701443 31.4039675,0.00843507214 Z" id="Shape"></path>
                        </g>
                        <g id="instagram-glyph-1" transform="translate(450.000000, 0.000000)" fill="#CCCCCC">
                            <path d="M13.3349489,20 C13.3349489,16.3182553 16.3189143,13.3327948 20.0008078,13.3327948 C23.6827012,13.3327948 26.6682822,16.3182553 26.6682822,20 C26.6682822,23.6817447 23.6827012,26.6672052 20.0008078,26.6672052 C16.3189143,26.6672052 13.3349489,23.6817447 13.3349489,20 M9.73060301,20 C9.73060301,25.6720517 14.328527,30.26979 20.0008078,30.26979 C25.6730886,30.26979 30.2710126,25.6720517 30.2710126,20 C30.2710126,14.3279483 25.6730886,9.73021002 20.0008078,9.73021002 C14.328527,9.73021002 9.73060301,14.3279483 9.73060301,20 M28.2773941,9.32310178 C28.2773941,10.6478191 29.3517509,11.723748 30.6781372,11.723748 C32.002908,11.723748 33.0788804,10.6478191 33.0788804,9.32310178 C33.0788804,7.99838449 32.0045236,6.92407108 30.6781372,6.92407108 C29.3517509,6.92407108 28.2773941,7.99838449 28.2773941,9.32310178 M11.919706,36.279483 C9.96970798,36.19063 8.90989135,35.8659128 8.20550103,35.5912763 C7.27169918,35.2277868 6.60608264,34.7948304 5.90492346,34.095315 C5.20537986,33.3957997 4.77079042,32.73021 4.40890181,31.7964459 C4.13425421,31.092084 3.80952381,30.0323102 3.72066723,28.082391 C3.62373278,25.9741519 3.60434589,25.3408724 3.60434589,20 C3.60434589,14.6591276 3.62534836,14.0274637 3.72066723,11.917609 C3.80952381,9.96768982 4.13586978,8.9095315 4.40890181,8.20355412 C4.77240599,7.26978998 5.20537986,6.60420032 5.90492346,5.90306947 C6.60446706,5.20355412 7.27008361,4.76898223 8.20550103,4.40710824 C8.90989135,4.13247173 9.96970798,3.80775444 11.919706,3.71890145 C14.0280302,3.62197092 14.6613353,3.60258481 20.0008078,3.60258481 C25.3418959,3.60258481 25.9735854,3.62358643 28.0835252,3.71890145 C30.0335232,3.80775444 31.0917242,4.13408724 31.7977301,4.40710824 C32.731532,4.76898223 33.3971485,5.20355412 34.0983077,5.90306947 C34.7978513,6.60258481 35.2308252,7.26978998 35.5943293,8.20355412 C35.8689769,8.90791599 36.1937073,9.96768982 36.2825639,11.917609 C36.3794984,14.0274637 36.3988853,14.6591276 36.3988853,20 C36.3988853,25.3392569 36.3794984,25.9725363 36.2825639,28.082391 C36.1937073,30.0323102 35.8673614,31.092084 35.5943293,31.7964459 C35.2308252,32.73021 34.7978513,33.3957997 34.0983077,34.095315 C33.3987641,34.7948304 32.731532,35.2277868 31.7977301,35.5912763 C31.0933398,35.8659128 30.0335232,36.19063 28.0835252,36.279483 C25.9752009,36.3764136 25.3418959,36.3957997 20.0008078,36.3957997 C14.6613353,36.3957997 14.0280302,36.3764136 11.919706,36.279483 M11.7549174,0.121163166 C9.62559069,0.2180937 8.17157397,0.555735057 6.90011713,1.05008078 C5.58503978,1.56058158 4.47029363,2.24555735 3.35716305,3.35702746 C2.24564805,4.46849758 1.56064461,5.58319871 1.05012319,6.89983845 C0.555757502,8.17124394 0.218102508,9.62520194 0.12116806,11.7544426 C0.0226180379,13.8869144 0,14.5686591 0,20 C0,25.4313409 0.0226180379,26.1130856 0.12116806,28.2455574 C0.218102508,30.3747981 0.555757502,31.8287561 1.05012319,33.1001616 C1.56064461,34.4151858 2.24403247,35.5315024 3.35716305,36.6429725 C4.46867806,37.7544426 5.58342421,38.4378029 6.90011713,38.9499192 C8.17318955,39.4442649 9.62559069,39.7819063 11.7549174,39.8788368 C13.8890908,39.9757674 14.5692475,40 20.0008078,40 C25.4339836,40 26.1141403,39.9773829 28.2466982,39.8788368 C30.3760249,39.7819063 31.8300416,39.4442649 33.1014984,38.9499192 C34.4165758,38.4378029 35.5313219,37.7544426 36.6444525,36.6429725 C37.7559675,35.5315024 38.4393554,34.4151858 38.9514924,33.1001616 C39.4458581,31.8287561 39.7851286,30.3747981 39.8804475,28.2455574 C39.977382,26.1114701 40,25.4313409 40,20 C40,14.5686591 39.977382,13.8869144 39.8804475,11.7544426 C39.7835131,9.62520194 39.4458581,8.17124394 38.9514924,6.89983845 C38.4393554,5.58481422 37.7559675,4.47011309 36.6444525,3.35702746 C35.5329375,2.24555735 34.4165758,1.56058158 33.103114,1.05008078 C31.8300416,0.555735057 30.3760249,0.216478191 28.2483137,0.121163166 C26.1157559,0.0242326333 25.4339836,0 20.0024234,0 C14.5692475,0 13.8890908,0.0226171244 11.7549174,0.121163166" id="Shape"></path>
                        </g>
                        <g id="youtube" transform="translate(302.000000, 2.000000)">
                            <path d="M98,28.3355022 C98,33.6727211 93.6408119,38 88.2642365,38 L49.7357635,38 C44.3591881,38 40,33.6727211 40,28.3355022 L40,9.66449781 C40,4.32727889 44.3591881,0 49.7357635,0 L88.2634251,0 C93.6400006,0 97.9991887,4.32727889 97.9991887,9.66449781 L97.9991887,28.3355022 L98,28.3355022 Z" id="Shape" fill="#CCCCCC"></path>
                            <g id="Group" transform="translate(45.000000, 6.000000)" fill="#FFFFFF">
                                <path d="M4.67959322,24.8885 L4.67959322,4.5345625 L0.64840678,4.5345625 L0.64840678,0.508625 L12.2033898,0.508625 L12.2033898,4.5345625 L8.17383051,4.5345625 L8.17383051,24.8885 L4.67959322,24.8885 Z M23.1294915,6.579625 L23.1294915,24.8885 L19.927322,24.8885 L19.927322,23.0693125 C19.2520678,24.607375 18.2652203,25.376 16.9627119,25.376 C14.8653559,25.376 13.8158644,23.90375 13.8158644,20.960875 L13.8158644,6.579625 L16.9692203,6.579625 L16.9692203,18.542875 C16.9692203,19.524375 17.0253559,20.2255625 17.1384407,20.6480625 C17.3410169,21.3760625 17.7461695,21.740875 18.3522712,21.740875 C19.008,21.740875 19.4448814,21.346 19.6637288,20.5538125 C19.783322,20.0988125 19.8451525,19.34075 19.8451525,18.27475 L19.8451525,6.579625 L23.1294915,6.579625 Z M25.9460339,24.8885 L25.9460339,0.508625 L29.2124746,0.508625 L29.2124746,8.1290625 C29.7591864,6.7705625 30.6833898,6.092125 31.9826441,6.092125 C33.6423051,6.092125 34.7292203,7.2735 35.2409492,9.6354375 C35.5029153,10.827375 35.6322712,12.8886875 35.6322712,15.821 C35.6322712,18.668 35.4898983,20.7033125 35.2059661,21.9269375 C34.6698305,24.2255 33.572339,25.3751875 31.9151186,25.3751875 C30.5328814,25.3751875 29.5785763,24.574875 29.0505763,22.972625 L29.0505763,24.886875 L25.9460339,24.8885 Z M30.8225085,9.6484375 C29.9300339,9.6484375 29.3816949,10.5876875 29.1774915,12.465375 C29.136,12.845625 29.1164746,14.1903125 29.1164746,16.501875 C29.1164746,18.2845 29.1530847,19.3968125 29.2271186,19.8404375 C29.4394576,21.2005625 29.9715254,21.88225 30.8241356,21.88225 C31.6189831,21.88225 32.1006102,21.048625 32.2722712,19.381375 C32.3137627,19.0328125 32.3341017,17.8368125 32.3341017,15.7893125 C32.3341017,13.6695 32.3170169,12.4596875 32.2844746,12.1655625 C32.112,10.4869375 31.6254915,9.6484375 30.8225085,9.6484375 Z M44.2999322,18.60625 L47.3703051,18.60625 C47.3703051,18.69075 47.3743729,18.809375 47.3825085,18.962125 C47.3922712,19.114875 47.3955254,19.2343125 47.3955254,19.318 C47.3955254,21.4280625 47.0058305,22.9636875 46.2256271,23.92975 C45.4454237,24.893375 44.235661,25.376 42.5930847,25.376 C40.8943729,25.376 39.6707797,24.7901875 38.9239322,23.6201875 C38.3300339,22.6906875 37.9525424,21.33625 37.7882034,19.55525 C37.7149831,18.7744375 37.6783729,17.303 37.6783729,15.140125 C37.6783729,13.39975 37.7149831,12.1615 37.7882034,11.42375 C37.9354576,9.9255 38.2551864,8.7871875 38.7522712,8.0071875 C39.5658305,6.7315625 40.8724068,6.0929375 42.6776949,6.0929375 C44.4170847,6.0929375 45.6870508,6.7835625 46.491661,8.1631875 C47.1425085,9.280375 47.4663051,11.53425 47.4663051,14.9280625 L47.4663051,16.31825 L41.0546441,16.31825 C41.0310508,16.51975 41.0180339,16.9105625 41.0180339,17.489875 C41.0180339,18.8524375 41.0741695,19.8241875 41.1888814,20.4043125 C41.4248136,21.597875 41.9129492,22.19425 42.651661,22.19425 C43.7507797,22.19425 44.2999322,20.99825 44.2999322,18.60625 Z M41.0277966,13.41275 L44.1901017,13.41275 L44.1901017,12.63925 C44.1901017,11.58625 44.1168814,10.83875 43.9696271,10.39675 C43.7426441,9.6915 43.2829831,9.338875 42.5930847,9.338875 C42.0162712,9.338875 41.6046102,9.581 41.3613559,10.06525 C41.0692881,10.6656875 40.9464407,11.5236875 40.9960678,12.63925 L41.0131525,12.8919375 C41.0229153,13.0706875 41.0277966,13.2445625 41.0277966,13.41275 Z" id="Shape"></path>
                            </g>
                            <path d="M4.90645291,30.5094217 L4.90645291,20.1179337 L0,6 L3.86261251,6 L6.69266938,15.2202729 L9.48564775,6 L13.2386369,6 L8.42004389,20.1171215 L8.42004389,30.5094217 L4.90645291,30.5094217 Z M14.44127,21.3151397 C14.44127,18.1450617 14.6798621,15.8976608 15.1578523,14.5705003 C15.8695983,12.5992528 17.2777753,11.6124107 19.3823832,11.6124107 C21.4853791,11.6124107 22.8991984,12.5984405 23.619005,14.5705003 C24.0969952,15.8854776 24.3355873,18.1336907 24.3355873,21.3151397 C24.3355873,24.4949643 24.0969952,26.7431774 23.619005,28.0573424 C22.8991984,30.0188434 21.4861851,31 19.3823832,31 C17.2777753,31 15.8695983,30.0139701 15.1578523,28.0419103 C14.6798621,26.7277453 14.44127,24.4844055 14.44127,21.3151397 Z M17.777529,21.5531189 C17.777529,23.8321962 17.7896198,25.0708252 17.8138014,25.2722547 C17.9822668,26.9145549 18.4973355,27.735705 19.3582016,27.735705 C20.2198737,27.735705 20.7462272,27.031514 20.9388742,25.6223197 C20.9791769,25.3144899 20.9993283,24.1652047 20.9993283,22.1728395 L20.9993283,20.3770305 C20.9993283,18.511371 20.9751467,17.3880767 20.9275894,17.0071475 C20.7252698,15.608512 20.2102011,14.9091943 19.3823832,14.9091943 C18.5771349,14.9091943 18.074157,15.5248538 17.8726434,16.7537362 C17.8089651,17.1452242 17.7767229,18.1783626 17.7767229,19.8523392 L17.777529,21.5531189 Z M36,12.1038012 L36,30.5094217 L32.8096368,30.5094217 L32.8096368,28.6803119 C32.1365814,30.2267706 31.151583,30.9991878 29.8562536,30.9991878 C27.7653486,30.9991878 26.7198961,29.5201429 26.7198961,26.5620533 L26.7198961,12.1038012 L29.861896,12.1038012 L29.861896,24.1302794 C29.861896,25.1179337 29.9183198,25.8221248 30.0303614,26.2452891 C30.231875,26.9779077 30.6357082,27.3450292 31.2394429,27.3450292 C31.892347,27.3450292 32.3284224,26.9470435 32.5460571,26.1518843 C32.6653531,25.6946069 32.7274193,24.9319363 32.7274193,23.861436 L32.7274193,12.1038012 L36,12.1038012 Z" id="Shape" fill="#CCCCCC"></path>
                        </g>
                        <g id="typeform" transform="translate(540.000000, 0.000000)" fill="#CCCCCC">
                            <polyline id="Shape" points="0 9.25252062 0 5 19 5 19 9.25252062 12.0494397 9.25252062 12.0494397 28 6.95056034 28 6.95056034 9.25252062 0 9.25252062"></polyline>
                            <path d="M24.1158429,32.8740734 C23.2280895,33.4522191 21.9944846,33.7408871 20.4150284,33.7408871 C19.938613,33.7408871 19.4679276,33.7250974 19.0029724,33.6927083 C18.5371986,33.6603191 18.0665132,33.6230717 17.5909164,33.5805609 L17.5909164,29.8234235 C18.0235376,29.8659342 18.4672097,29.9088498 18.9219327,29.9513605 C19.3762463,29.9938712 19.83056,30.0048025 20.2852829,29.9837496 C20.8906252,29.9197811 21.3404367,29.6837454 21.6326709,29.277262 C21.9197856,28.8851674 22.0731807,28.4128014 22.0706129,27.9286602 C22.0706129,27.5650924 22.0055355,27.2217677 21.8757901,26.9007106 L16,11.3264041 L20.9020854,11.3264041 L24.7003113,22.6937693 L24.7649794,22.6937693 L28.4334599,11.3264041 L33.2053906,11.3264041 L26.1934071,29.9837496 C25.6952992,31.3319466 25.0027778,32.2955228 24.1158429,32.8740734 Z M39.2252513,11.3264041 L39.2252513,13.4458669 L39.2903286,13.4458669 C39.8526953,12.5466641 40.5669091,11.8936185 41.4325608,11.4871351 C42.2982125,11.0806517 43.2506341,10.8770051 44.2898254,10.8770051 C45.6093815,10.8770051 46.745575,11.1231624 47.6984058,11.615477 C48.650418,12.1081964 49.4403508,12.761242 50.0682041,13.5742088 C50.6956481,14.3879853 51.1606033,15.335367 51.4638884,16.4163537 C51.7667642,17.4977453 51.9186114,18.6269109 51.9186114,19.8046601 C51.9186114,20.918036 51.7667642,21.9880914 51.4638884,23.0152313 C51.1606033,24.0431808 50.7009689,24.953315 50.0841665,25.744824 C49.467364,26.5371428 48.6991237,27.1691354 47.7794455,27.6395873 C46.859358,28.1100392 45.7829211,28.3464798 44.5493163,28.3464798 C43.5105342,28.3464798 42.5527919,28.13757 41.6760893,27.7201552 C40.7993867,27.3027405 40.0798521,26.6873473 39.5174855,25.8735708 L39.4524081,25.8735708 L39.4524081,34 L34.8425569,34 L34.8425569,11.3264041 L39.2252513,11.3264041 Z M45.2168709,24.477195 C45.7151799,24.187265 46.1377179,23.7856616 46.4504757,23.304709 C46.7639931,22.8229209 46.9862384,22.2613746 47.1159838,21.6188555 C47.2461386,20.9763364 47.3112159,20.3236957 47.3112159,19.6597188 C47.3117727,19.0012192 47.2409701,18.3445576 47.1000215,17.700987 C46.9588159,17.0588728 46.7267475,16.4859903 46.40177,15.9827444 C46.0843699,15.4872351 45.6568627,15.0698912 45.1517935,14.7624845 C44.6434533,14.4527635 44.0209208,14.2968909 43.2854239,14.2968909 C42.5274158,14.2968909 41.894651,14.4527635 41.3863109,14.7624845 C40.8867002,15.0644864 40.4644914,15.4767237 40.152706,15.9669547 C39.8387794,16.4596742 39.6173526,17.0264837 39.4871979,17.6685979 C39.3560765,18.3243315 39.2908181,18.9912825 39.2923751,19.6597188 C39.2923751,20.3236957 39.362364,20.9763364 39.5035696,21.6188555 C39.6439566,22.2613746 39.8711134,22.8229209 40.1850401,23.304709 C40.4985574,23.7864971 40.9156255,24.1771908 41.4350166,24.477195 C41.9544076,24.7767943 42.5818516,24.9261891 43.3177579,24.9261891 C44.0753566,24.9261891 44.7081214,24.7767943 45.2168709,24.477195 Z M59.3014131,23.9464184 C59.9935251,24.6108001 60.9897409,24.9419788 62.2880138,24.9419788 C63.2187429,24.9419788 64.0193172,24.7128258 64.6905554,24.2516858 C65.3609751,23.7913555 65.7723131,23.3043041 65.923751,22.7905318 L69.9818771,22.7905318 C69.3323314,24.7816527 68.3365249,26.2059641 66.9952764,27.0614416 C65.6532092,27.9177289 64.0303681,28.3464798 62.1259343,28.3464798 C60.8055597,28.3464798 59.6149304,28.13757 58.5552745,27.7201552 C57.4943907,27.3027405 56.5959957,26.7088051 55.860908,25.9379441 C55.1250017,25.1678929 54.556905,24.2464225 54.1562085,23.176772 C53.755512,22.1059068 53.5557777,20.9285625 53.5557777,19.6439291 C53.5557777,18.4026163 53.7612421,17.2467297 54.1725801,16.1762694 C54.5835089,15.1054042 55.1679773,14.1798852 55.925576,13.398093 C56.6827655,12.6171104 57.586072,12.0013123 58.6363142,11.5519133 C59.6853286,11.1017046 60.8485353,10.87741 62.1259343,10.87741 C63.554362,10.87741 64.7986084,11.1502883 65.8586736,11.6960449 C66.9191481,12.2422064 67.7905299,12.9758198 68.4720004,13.8956707 C69.1538802,14.8163314 69.6458487,15.8657387 69.9491338,17.0426782 C70.2520096,18.2208323 70.3600625,19.4516188 70.273702,20.7358472 L58.1652196,20.7358472 C58.230297,22.212386 58.6088917,23.2828463 59.3014131,23.9464184 Z M64.5121043,15.2122883 C63.9599699,14.6126848 63.1213315,14.3126806 61.9965982,14.3126806 C61.2602826,14.3126806 60.6492103,14.4361641 60.1621533,14.6819165 C59.6755056,14.9288836 59.28586,15.2337461 58.9940351,15.5973139 C58.7018009,15.9612866 58.4959272,16.3475268 58.3776419,16.7536054 C58.2581288,17.1600888 58.1877306,17.5240615 58.1660382,17.8451186 L65.6650787,17.8451186 C65.4477449,16.6888272 65.0634201,15.8118918 64.5121043,15.2122883 Z M70.3310028,14.377054 L70.3310028,11.3264041 L73.0900374,11.3264041 L73.0900374,10.0417708 C73.0900374,8.5648271 73.5549927,7.35549847 74.4861311,6.41297519 C75.4164508,5.47126164 76.8235953,5 78.7063366,5 C79.1172654,5 79.5290127,5.01659942 79.9399415,5.04817881 C80.3508702,5.08056793 80.7515667,5.10769381 81.1416216,5.12874674 L81.1416216,8.53243798 C80.5813959,8.46741444 80.0177714,8.435239 79.4537031,8.43608036 C78.8258498,8.43608036 78.3764476,8.58102165 78.1063152,8.87009451 C77.8353641,9.15876251 77.7007072,9.64621871 77.7007072,10.3312485 L77.7007072,11.3264041 L80.8817214,11.3264041 L80.8817214,14.377054 L77.7007072,14.377054 L77.7007072,27.9286602 L73.090856,27.9286602 L73.090856,14.377054 L70.3310028,14.377054 Z M81.4911566,16.0309232 C81.9020854,14.9499365 82.4865538,14.0292759 83.2441525,13.2689414 C84.0013419,12.5098214 84.9099693,11.9207444 85.9708531,11.5033297 C87.0309183,11.0855101 88.2211382,10.8770051 89.5419222,10.8770051 C90.861069,10.8770051 92.0578376,11.0855101 93.1297723,11.5033297 C94.2008884,11.9207444 95.1164737,12.5098214 95.8724352,13.2689414 C96.6312618,14.0292759 97.2153209,14.9499365 97.6262497,16.0309232 C98.0363599,17.11191 98.2426428,18.3163802 98.2426428,19.6435243 C98.2426428,20.9706683 98.0363599,22.1694705 97.6262497,23.2403356 C97.2153209,24.3112008 96.6308525,25.2257884 95.8724352,25.9857181 C95.1160644,26.7456477 94.2008884,27.3290567 93.1297723,27.7355401 C92.0582469,28.1420235 90.861069,28.3460749 89.5419222,28.3460749 C88.2211382,28.3460749 87.0309183,28.1420235 85.9708531,27.7355401 C84.9099693,27.3290567 84.0013419,26.7456477 83.2441525,25.9857181 C82.4861445,25.2257884 81.9020854,24.3107959 81.4911566,23.2403356 C81.0794093,22.1694705 80.8739449,20.9710732 80.8739449,19.6435243 C80.8739449,18.3159754 81.0794093,17.11191 81.4911566,16.0309232 Z M85.6786189,21.5860615 C85.8083643,22.2180541 86.0297911,22.7856734 86.3445363,23.2881096 C86.6529799,23.7866556 87.082705,24.2008754 87.5945128,24.4929847 C88.1134945,24.792584 88.762631,24.9419788 89.5419222,24.9419788 C90.3212134,24.9419788 90.9752613,24.792584 91.505294,24.4929847 C92.0353266,24.1933854 92.4581248,23.7917603 92.7720514,23.2881096 C93.0859781,22.7856734 93.3082234,22.2176493 93.4387874,21.5860615 C93.5677143,20.9548786 93.6336102,20.3075012 93.6336102,19.6435243 C93.6336102,18.9803571 93.5681236,18.3265018 93.4387874,17.6843876 C93.3082234,17.0422734 93.0859781,16.4754638 92.7720514,15.9827444 C92.4581248,15.4908347 92.0353266,15.0892097 91.505294,14.7782742 C90.9752613,14.4685532 90.3212134,14.3126806 89.5419222,14.3126806 C88.762631,14.3126806 88.1134945,14.4685532 87.5945128,14.7782742 C87.0876342,15.0766053 86.6593077,15.4893382 86.3445363,15.9827444 C86.0297911,16.4754638 85.8083643,17.0422734 85.6786189,17.6843876 C85.5485487,18.3294838 85.4832903,18.9857227 85.4837961,19.6435243 C85.4837961,20.3075012 85.5488734,20.9548786 85.6786189,21.5860615 Z M104.289107,11.3264041 L104.289107,14.4090382 L104.353776,14.4090382 C104.569472,13.8952659 104.862116,13.4191459 105.230069,12.9802734 C105.598022,12.5414008 106.020002,12.1664968 106.496417,11.8567759 C106.96928,11.5478307 107.482838,11.3046599 108.022665,11.1340937 C108.568198,10.9619761 109.137568,10.8752337 109.710175,10.8770051 C110.013869,10.8770051 110.349079,10.930852 110.717441,11.0373312 L110.717441,15.2762568 C110.459457,15.2276406 110.199444,15.1902223 109.93815,15.1641095 C109.646853,15.1325886 109.354071,15.1163712 109.061038,15.1155258 C108.217079,15.1155258 107.502865,15.2552039 106.918806,15.5333454 C106.334338,15.8118918 105.863652,16.1916542 105.507159,16.6730375 C105.149848,17.1548256 104.894859,17.7167767 104.74383,18.358891 C104.592802,19.0010052 104.516674,19.6969663 104.516674,20.4467744 L104.516674,27.9286602 L99.9072317,27.9286602 L99.9072317,11.3264041 L104.289107,11.3264041 Z M116.704559,11.3264041 L116.704559,13.5742088 L116.768817,13.5742088 C117.37416,12.7187312 118.105973,12.0543495 118.960165,11.5830879 C119.814765,11.1130408 120.7942,10.8770051 121.89806,10.8770051 C122.958534,10.8770051 123.926918,11.0806517 124.80403,11.4871351 C125.680323,11.8936185 126.345422,12.6110374 126.800964,13.6385821 C127.298253,12.9106368 127.973993,12.2685225 128.829822,11.7118346 C129.684423,11.1551467 130.695782,10.8770051 131.865128,10.8770051 C132.752473,10.8770051 133.57433,10.9842941 134.331519,11.1980622 C135.089937,11.4122353 135.738664,11.755155 136.279747,12.2256069 C136.819603,12.6968686 137.241992,13.3122618 137.546505,14.0717866 C137.848153,14.8321211 138,15.7475185 138,16.8179788 L138,27.9286602 L133.38933,27.9286602 L133.38933,18.5196219 C133.38933,17.962934 133.368456,17.4386352 133.324662,16.9459158 C133.282096,16.4540061 133.162992,16.0260649 132.96776,15.6616873 C132.772937,15.2981195 132.486024,15.0090466 132.107838,14.7944687 C131.728834,14.5807006 131.215583,14.4734116 130.566037,14.4734116 C129.916082,14.4734116 129.392189,14.5968951 128.990674,14.8426475 C128.599287,15.0794623 128.275427,15.4111064 128.049712,15.8062237 C127.822555,16.2025855 127.670708,16.6519845 127.595398,17.1548256 C127.519358,17.659703 127.481598,18.169499 127.482434,18.6799481 L127.482434,27.9286602 L122.871764,27.9286602 L122.871764,18.6159796 C122.871764,18.1232601 122.861123,17.6366137 122.839021,17.1548256 C122.816919,16.6730375 122.726056,16.2289017 122.562749,15.8224183 C122.401079,15.4159349 122.130128,15.0892097 121.752352,14.8426475 C121.372938,14.5968951 120.815483,14.4734116 120.079986,14.4734116 C119.862652,14.4734116 119.576558,14.5215904 119.218837,14.617948 C118.861116,14.7143057 118.516083,14.8960896 118.180464,15.1641095 C117.845664,15.4317246 117.558341,15.8171551 117.320133,16.3195912 C117.081925,16.823242 116.96364,17.4811459 116.96364,18.2949224 L116.96364,27.9286602 L112.35297,27.9286602 L112.35297,11.3264041 L116.704559,11.3264041 Z" id="Shape"></path>
                            <polygon id="Shape" points="143 0 147 0 147 39 143 39"></polygon>
                        </g>
                        <g id="vimeo" transform="translate(826.000000, 0.000000)" fill="#CCCCCC">
                            <path d="M119.570261,38.9910008 C116.877864,38.8136781 114.78387,37.9789229 113.13303,36.423585 C112.461395,35.7912454 111.752099,34.8356263 111.342004,34.008399 C111.272957,33.8678791 111.20684,33.7537066 111.195123,33.7537066 C111.184243,33.7537066 111.012673,33.854078 110.814321,33.9774511 C110.377026,34.2492902 109.057609,35.0066758 108.497286,35.3073717 C104.821917,37.2830148 101.039002,38.4506683 97.2192633,38.7885853 C95.9973486,38.8973209 94.5628541,38.9161405 93.6844982,38.835007 C91.7302715,38.6543385 90.1426192,38.096441 88.8583532,37.1374763 C88.5369729,36.8974214 87.7736946,36.1538369 87.5284747,35.8410128 C87.2821991,35.5223157 87.0551293,35.1892462 86.8484708,34.8435724 L86.7112146,34.6051904 L86.2969353,34.9615087 C84.0271867,36.9149864 81.671653,38.1361714 79.3387164,38.5686047 C78.2138852,38.7777117 77.0091275,38.8007135 76.1667595,38.6292457 C74.9942234,38.3917001 74.1430677,37.7827805 73.6589049,36.835944 C73.1023478,35.7485875 72.9684394,34.2706192 73.2345825,32.1477648 C73.3935988,30.878067 73.5304365,30.1988874 74.0924336,27.8777996 C74.3924723,26.6432318 74.6548492,25.2104306 74.7506774,24.2865958 C74.808007,23.7387354 74.808007,22.9357645 74.7519328,22.5622994 C74.6272305,21.7354903 74.320078,21.2578899 73.7727271,21.0379093 C73.5785598,20.959285 73.083517,20.9433929 72.8378786,21.0069614 C71.8205927,21.2708545 70.6409428,22.5070951 69.3123197,24.7014641 C67.4794475,27.7284972 66.4738786,30.5702615 66.2010401,33.49065 C66.144129,34.1012425 66.1524982,35.8234478 66.2148494,36.3817636 C66.2855698,37.0132667 66.4178044,37.6435153 66.5726361,38.0901678 C66.6450303,38.2984384 66.712403,38.4945808 66.7220277,38.5251104 C66.7396032,38.5794782 66.7144953,38.5803147 65.8076839,38.5631679 C64.7983488,38.5447665 64.1618651,38.494999 63.4667965,38.3799902 C60.9509911,37.9642854 59.5265397,36.9559714 58.9055392,35.1501233 C58.531014,34.0619304 58.4276534,32.886749 58.5523556,31.1402872 C58.6381407,29.9370855 58.8084556,28.9438272 59.1787962,27.489697 C59.5210997,26.1451389 59.686393,25.2999284 59.7956121,24.3363633 C59.8567078,23.7943579 59.8654956,22.7831164 59.8106768,22.5129501 C59.6328296,21.6305185 59.2198056,21.1596096 58.4870752,21.0040339 C58.3385205,20.9726679 58.1744826,20.9626308 57.9514414,20.9714132 C57.6811136,20.9818686 57.5940731,20.9977607 57.4049274,21.0722028 C56.4545957,21.4465044 55.4398206,22.6852543 54.3735744,24.7750698 C53.1872291,27.0990851 52.4511509,29.5761668 52.1954695,32.1034341 C52.0569579,33.4714122 52.0582133,35.4198713 52.1979802,36.7029519 C52.2728853,37.390914 52.427717,38.1340803 52.5779455,38.5251104 C52.5988687,38.5794782 52.5779455,38.5798965 51.7837009,38.5619133 C50.5952632,38.5355658 49.819431,38.4418858 48.9519552,38.221487 C47.6668524,37.8952801 46.631154,37.3156355 45.9180914,36.5247927 C45.4335102,35.9873877 45.0154647,35.1890172 44.7727556,34.3375334 C44.7469907,34.240125 44.7171136,34.1438497 44.6832043,34.0489657 C44.6773458,34.0426925 44.5509697,34.1480825 44.4019965,34.284002 C42.2665748,36.2295336 40.3295051,37.4507186 38.2731732,38.1474632 C37.136625,38.5326383 35.8933686,38.7467638 34.7936453,38.7467638 C33.1725159,38.7467638 32.0100229,38.1855206 31.2534401,37.0387778 C30.952146,36.5820881 30.7847604,36.1956583 30.632858,35.6059765 C30.3399332,34.4705255 30.3930782,33.084146 30.8123791,30.9357805 C31.0877284,29.5255629 31.3689361,28.3876025 32.0213215,26.0451858 C32.4900011,24.3610379 32.8113814,23.1783286 33.007641,22.4096513 C33.1620543,21.8044956 33.1716789,21.7480367 33.1691681,21.4314487 C33.1607989,20.3959508 32.7419164,19.794559 32.0213215,19.7845219 C31.8192034,19.7820126 31.7840524,19.7912133 31.5664511,19.9028764 C31.2442339,20.068071 30.9889709,20.2332655 30.3642042,20.6794999 L29.831918,21.0600746 L29.7536652,21.2967838 C29.3192996,22.6087211 28.3660387,24.5174499 27.2658969,26.2777128 C26.0540253,28.2169712 24.2027407,30.7546939 22.6134145,32.6588223 C19.5017164,36.3842728 16.8314978,38.4067558 14.4763826,38.8207877 C14.036577,38.8985755 13.3820993,38.8939752 13.0515128,38.8111688 C11.5919105,38.4473226 10.3800388,36.9718635 9.32927579,34.2794017 C9.24056143,34.051475 8.79782655,32.4576614 7.95671397,29.3294205 C7.50815469,27.6543123 7.05537524,25.9803356 6.59837992,24.3075065 C6.17489438,22.8333021 5.6183373,21.4812161 5.13250064,20.7485052 C4.75923077,20.1847527 4.29138806,19.817979 3.89510268,19.7782486 C3.73441251,19.7619383 3.70846775,19.7698844 3.45906322,19.8940939 C3.19836017,20.0254131 2.44638041,20.5088685 1.8019459,20.959285 C1.62200639,21.0851675 1.45880545,21.1968306 1.43997457,21.2081224 C1.41737751,21.2206688 1.16127756,20.910354 0.726911963,20.3445104 C0.489151248,20.0329657 0.249786683,19.7226468 0.00882779056,19.413566 C-0.0267416469,19.3721628 0.0284955971,19.3131946 0.487969036,18.9025085 C1.52726678,17.9699423 2.5618623,17.0321551 3.5917163,16.0891827 C5.00193988,14.7939739 5.81961847,14.1290136 6.76325473,13.5100569 C7.77175289,12.8480241 8.41032891,12.595841 9.15896095,12.5632203 C11.0428857,12.4799957 12.294093,13.6091736 12.9720046,16.0038671 C13.1339502,16.5759839 13.2071814,16.9578133 13.4544936,18.5131512 C14.0989281,22.5706637 14.3717666,24.0335763 14.796926,25.723161 C15.302849,27.7330976 15.8652645,28.9057697 16.4640865,29.2006106 C16.6251951,29.2800712 16.6745738,29.2905266 16.8197808,29.2800712 C17.4750954,29.2298856 18.4116178,28.2077705 19.6963022,26.1405386 C20.755016,24.4358982 21.3965213,23.063738 21.6241657,22.0131844 C21.6810768,21.7509642 21.6907015,21.6200632 21.6919568,21.0805671 C21.6927938,20.558636 21.6835876,20.4206254 21.6400673,20.2629587 C21.4902572,19.7288994 21.2103048,19.3721628 20.77301,19.1572008 C20.4194079,18.9832238 20.1817204,18.9384749 19.6188863,18.9384749 C18.9598056,18.9384749 18.3814884,19.0472105 17.7228261,19.2956297 C17.537865,19.3654714 17.4244613,19.3947464 17.4194397,19.3742539 C17.4148366,19.3566889 17.4834647,19.1295987 17.5713421,18.870306 C18.1002806,17.3132952 18.7208627,16.1105117 19.5335197,15.0662312 C19.8281183,14.6877476 20.4106202,14.0888651 20.755016,13.8103345 C21.3299855,13.3452805 22.096193,12.9074105 22.7690831,12.6585731 C24.2437501,12.1140585 26.2465187,12.0207967 27.5219969,12.4373379 C29.2561116,13.0035997 30.1721292,14.456057 30.3717365,16.9561404 L30.3909858,17.1970317 L30.528242,17.0732403 C30.6035655,17.0046532 31.1182762,16.5324896 31.6719041,16.0235231 C33.9504404,13.9282709 35.2761342,12.9818526 36.3888299,12.6560638 C36.6039204,12.5933317 36.7348996,12.5766032 37.1073326,12.5623839 C38.4995622,12.5113618 39.4645401,12.9563415 40.1307347,13.9562912 C40.7375075,14.8679978 41.0124383,16.0519617 40.9308379,17.4090662 C40.9078223,17.7980052 40.8634652,18.0614801 40.6123868,19.3165404 C40.1466364,21.6459925 39.6704244,24.333854 39.1477629,27.5771037 C38.9745188,28.6565141 38.9699157,28.6979173 38.9866542,29.0843471 C39.0285006,30.0546036 39.233548,30.6551589 39.674609,31.0984658 C39.8403207,31.264915 39.9491214,31.3460485 40.1139962,31.4246727 C40.5048415,31.6103598 41.0647463,31.6743465 41.4447116,31.5752298 C41.6644052,31.5179345 42.1209494,31.3017178 42.4808284,31.0825737 C43.1323768,30.686525 44.5434373,29.6033507 44.5672897,29.480814 C44.5744036,29.4448476 44.6212716,29.093966 44.6719057,28.7008448 C44.7221214,28.3077236 44.8932732,27.21033 45.0514526,26.2626571 C45.3560943,24.43548 45.5125999,23.3518875 45.6050804,22.4226159 C45.6799854,21.6702489 45.7348042,20.738468 45.7168103,20.5147235 C45.6758008,20.0032478 45.3443773,19.7314087 44.9275872,19.86691 C44.6375917,19.9614264 44.0295635,20.3332186 43.1859402,20.9333558 C42.8373597,21.1813567 42.7599439,21.2252692 42.7289775,21.191812 C42.5561519,21.0086343 41.1371406,19.3746721 41.1388144,19.3604528 C41.1404883,19.3504157 41.2162303,19.2776465 41.307037,19.198604 C41.5602077,18.9790416 42.8419628,17.7850406 44.3798179,16.3350926 C46.2599765,14.5627016 46.8211367,14.0650269 47.6019905,13.4778544 C48.194117,13.0332929 48.6531719,12.7643813 49.0427619,12.6355713 C49.2134952,12.5791125 49.3030465,12.5690753 49.6244268,12.5711664 C49.8533266,12.572421 50.0855741,12.5912407 50.2086025,12.6188428 C51.0191672,12.799093 51.654814,13.2591285 52.1808232,14.045789 C52.7231525,14.8571242 53.054576,15.7165541 53.2085707,16.7119034 C53.2922635,17.2534906 53.3002143,18.3119903 53.2236354,18.7502786 C53.1964353,18.9066906 53.1734197,19.0505562 53.1734197,19.0697941 C53.1734197,19.0890319 53.2625526,18.9744413 53.3709347,18.8146835 C54.1229145,17.7072528 55.1782806,16.6086046 56.3541644,15.7102808 C56.6834955,15.458516 57.4404968,14.9558227 57.775268,14.7659536 C59.4436839,13.8207899 61.29455,13.2917491 63.1366284,13.2336174 C64.8523307,13.1796678 66.1411997,13.592445 67.0224848,14.4786405 C67.3542291,14.8127391 67.6262586,15.201161 67.8267726,15.6270563 C68.223058,16.4530289 68.4096929,17.3459159 68.4498654,18.6047401 L68.4686963,19.2094776 L68.9804777,18.7598975 C69.308972,18.4713298 69.6064998,18.1769071 69.813221,17.9364341 C70.2107618,17.4734712 70.9836648,16.6784463 71.4489967,16.2535409 C73.3203676,14.5438819 75.2980283,13.5702797 77.4535362,13.2976041 C77.9724315,13.2319445 78.8528797,13.2101974 79.2939407,13.2520188 C80.5677451,13.3733009 81.5473692,13.7940242 82.2311393,14.5150252 C83.2844132,15.6237105 83.7221265,17.105861 83.6175105,19.2073865 C83.542187,20.7146298 83.3111948,22.1202472 82.6793143,24.9055526 C81.8859066,28.4051675 81.7695736,29.1420606 81.862891,30.096425 C81.9365407,30.852556 82.0943016,31.180854 82.4830546,31.3887063 C82.769284,31.5400998 83.0182701,31.5948858 83.5154053,31.6128691 C83.9355431,31.6279248 83.9631617,31.6254155 84.1874584,31.5501369 C84.4623892,31.4581299 84.8410991,31.2640786 85.2185536,31.0215144 C85.4374103,30.8809945 85.4863706,30.8375003 85.475909,30.7894056 C85.4298779,30.5957725 85.39389,29.5682207 85.4097917,28.9350447 C85.4600073,26.8887235 85.9014868,25.1188417 86.8317322,23.2264233 C87.4661236,21.9358148 88.2235434,20.7827987 89.2303677,19.5762513 C92.1734248,16.0507071 95.6830821,13.8726484 99.6283604,13.1248818 C101.240284,12.8195855 103.137181,12.7409613 104.536943,12.9207933 C107.193352,13.2624742 108.854654,14.4104717 109.594498,16.4162261 C109.835952,17.0703128 109.969442,17.7971688 109.992039,18.585084 C110.01631,19.4131478 109.939313,19.9434432 109.680283,20.7292673 C109.102803,22.4815841 107.792174,24.2247001 105.66554,26.0686058 C103.168566,28.2336997 100.089926,29.744707 96.5898935,30.5209122 C96.1107523,30.6271386 95.2236087,30.8036249 95.1666976,30.8036249 C95.1315466,30.8036249 95.4629701,31.1854543 95.6688543,31.3832696 C96.3300274,32.0189549 97.147706,32.3836375 98.1679212,32.499901 C98.5587665,32.5433953 99.981544,32.5183024 100.651505,32.4555703 C103.456887,32.1900044 106.206196,31.4384738 109.437156,30.0541854 L110.094981,29.7723091 L110.077824,29.6092057 C109.987854,28.7593948 109.985762,27.5495016 110.07364,26.7009454 C110.303376,24.4643368 111.072095,22.3615567 112.389001,20.3650029 C112.92045,19.5582681 113.395825,18.9480938 114.151571,18.1016286 C115.767679,16.2911801 117.301768,15.0821234 119.189459,14.1285954 C121.340363,13.0429118 123.610112,12.4992336 126.216306,12.4461204 C127.325235,12.4231186 128.078052,12.4820868 128.961429,12.6606642 C130.208452,12.9128472 131.356299,13.4176316 132.317092,14.1361233 C132.895828,14.5698112 133.615167,15.3355611 134.147872,16.0870917 C135.432556,17.8979584 136.068621,20.2767598 135.994135,22.9926416 C135.925925,25.4701415 135.430045,27.681239 134.470926,29.7836009 C133.613075,31.665564 132.204107,33.6085864 130.633611,35.0756812 C128.208194,37.3424012 125.437544,38.5949522 122.095272,38.936633 C121.664255,38.9818001 119.974916,39.0173483 119.570261,38.9910008 Z M121.644587,33.1376774 C123.404228,32.9243882 124.957985,31.7048761 126.285352,29.4950332 C127.644523,27.2324954 128.316995,24.8194005 128.253388,22.4389263 C128.227443,21.4728519 128.107763,20.7535237 127.839946,19.9526439 C127.5964,19.2228604 127.347832,18.7816446 127.014316,18.483458 C126.660296,18.1677064 126.338497,18.0836454 125.663933,18.1321582 C124.898981,18.1865261 124.226091,18.364267 123.573287,18.6842008 C122.332542,19.2910293 121.306049,20.3164901 120.344838,21.9065398 C119.099907,23.9670803 118.444174,26.0372397 118.297712,28.3666918 C118.219459,29.6129696 118.410279,30.6484675 118.897371,31.622488 C119.238,32.3029222 119.679898,32.7863776 120.158621,32.9996667 C120.518082,33.1602609 121.048694,33.209192 121.644168,33.1376774 L121.644587,33.1376774 Z M94.4841828,28.0120463 C97.1916447,26.9305449 99.638822,25.0159611 101.084615,22.8483578 C101.534882,22.1729421 101.819438,21.5326565 101.908989,20.9927422 C101.952091,20.7367952 101.930749,20.2525033 101.86505,19.9781549 C101.813161,19.759429 101.679671,19.485917 101.557479,19.34707 C101.435706,19.2090594 101.21392,19.0714669 100.995482,18.9999523 C100.777044,18.9276013 100.161902,18.9129638 99.8777649,18.9731866 C98.6696595,19.2287154 97.4799664,20.1525502 96.2831594,21.7668563 C94.9829919,23.5195913 94.2724401,25.1732095 94.1084022,26.8289188 C94.0657189,27.2554971 94.0682297,28.1467112 94.1121684,28.1467112 C94.1305808,28.1471294 94.2979664,28.0860702 94.4841828,28.0120463 Z M36.5085106,8.52452751 C35.8377129,8.46430469 35.156872,8.27401731 34.7174848,8.02434353 C34.4747757,7.88633291 34.0994135,7.5521799 33.9349572,7.32927183 C33.699362,7.00766525 33.5265364,6.56812231 33.4390774,6.06124691 C33.3704493,5.6672893 33.3779817,4.91784977 33.4545606,4.54396644 C33.6102292,3.78072585 34.0245085,3.06223416 34.7304572,2.33161426 C36.0473633,0.968236546 37.6069785,0.181994183 39.3067792,0.0255821387 C40.3516837,-0.0706070865 41.1070112,0.102115305 41.7464241,0.583479645 C42.3511046,1.0384965 42.9001293,1.82139315 43.1122905,2.53026592 C43.2164881,2.87780177 43.2411774,3.47626604 43.1696201,3.89991684 C43.0030714,4.88188337 42.4553021,5.813246 41.4945088,6.74879077 C40.4747121,7.74163086 39.3854504,8.29241872 38.0693812,8.48145146 C37.6843944,8.53665571 36.8893128,8.55840284 36.5085106,8.52452751 Z" id="Shape"></path>
                        </g>
                        <g id="facebook-icon" transform="translate(737.000000, 1.000000)">
                            <path d="M36.8477105,39 C38.0362992,39 39,38.0361603 39,36.8475805 L39,2.15241949 C39,0.963401338 38.0361531,0 36.8477105,0 L2.15243562,0 C0.963408557,0 0,0.963547462 0,2.15241949 L0,36.8474344 C0,38.0361603 0.963408557,38.9998539 2.15243562,38.9998539 L36.8477105,38.9998539 L36.8477105,39 Z" id="Shape" fill="#CCCCCC"></path>
                            <path d="M27.0346568,39 L27.0346568,23.9471589 L32.0467587,23.9471589 L32.7971581,18.0807512 L27.0345124,18.0807512 L27.0345124,14.335309 C27.0345124,12.6368471 27.5023201,11.4794404 29.918508,11.4794404 L33,11.477984 L33,6.2311318 C32.4670344,6.15976786 30.637701,6 28.5097393,6 C24.0667216,6 21.0249601,8.73382174 21.0249601,13.7544939 L21.0249601,18.0807512 L16,18.0807512 L16,23.9471589 L21.0249601,23.9471589 L21.0249601,38.9998544 L27.0346568,38.9998544 L27.0346568,39 Z" id="Shape" fill="#FFFFFF"></path>
                        </g>
                        <g id="soundcloud-icon" transform="translate(1012.000000, 0.000000)" fill="#CCCCCC">
                            <path d="M0,32.8186791 C0,33.7135765 0.323917339,34.3902162 0.971614705,34.8488735 C1.61938073,35.3074619 2.31177292,35.4696079 3.04885993,35.335449 C3.74125213,35.2012213 4.22705948,34.9551142 4.50635065,34.5971965 C4.7855045,34.2392788 4.92515009,33.6463938 4.92515009,32.8186791 L4.92515009,23.0871689 C4.92515009,22.3936132 4.68506129,21.8063669 4.20481505,21.32543 C3.72463746,20.8444244 3.13831824,20.603956 2.44585739,20.603956 C1.77577829,20.603956 1.20064994,20.8444244 0.720403695,21.32543 C0.24015745,21.8063669 0,22.3936132 0,23.0871689 L0,32.8186791 Z M7.70590973,36.9797386 C7.70590973,37.6285977 7.93487631,38.1151044 8.39274081,38.4395339 C8.85067397,38.7639634 9.43699319,38.9261094 10.1516985,38.9261094 C10.8887855,38.9261094 11.4862269,38.7638947 11.9441601,38.4395339 C12.4020246,38.1151732 12.6309912,37.6285977 12.6309912,36.9797386 L12.6309912,14.2952529 C12.6309912,13.6241142 12.3908337,13.0480077 11.9106561,12.5670709 C11.4304099,12.086134 10.8440907,11.8455969 10.1516985,11.8455969 C9.48161936,11.8455969 8.90642235,12.086134 8.42624477,12.5670709 C7.94599852,13.0480765 7.70590973,13.6241142 7.70590973,14.2952529 L7.70590973,36.9797386 Z M15.3783155,38.0535604 C15.3783155,38.7023507 15.6128432,39.1889262 16.0818986,39.5133557 C16.5509539,39.8377165 17.1540251,39.9999312 17.8911808,39.9999312 C18.6058861,39.9999312 19.1922053,39.8377165 19.6500698,39.5133557 C20.108003,39.1889262 20.3369695,38.7023507 20.3369695,38.0535604 L20.3369695,17.3489336 C20.3369695,16.6554466 20.0968121,16.0625617 19.6166345,15.5704163 C19.1363883,15.0782709 18.5612599,14.8322325 17.8911808,14.8322325 C17.19872,14.8322325 16.6068396,15.0782709 16.1154712,15.5704163 C15.6241027,16.0625617 15.3783842,16.6554466 15.3783842,17.3489336 L15.3783842,38.0535604 L15.3783155,38.0535604 Z M23.0842252,38.1542312 C23.0842252,39.3846979 23.9106332,39.9999312 25.5635179,39.9999312 C27.2163339,39.9999312 28.042742,39.3846979 28.042742,38.1542312 L28.042742,4.59729963 C28.042742,2.71811146 27.4731747,1.65549821 26.3340402,1.40939113 C25.5969532,1.2303979 24.8709884,1.44294806 24.1562831,2.04697283 C23.4415092,2.6509976 23.0841566,3.50106069 23.0841566,4.59729963 L23.0841566,38.1542312 L23.0842252,38.1542312 Z M30.9242194,39.1273822 L30.9242194,2.61744067 C30.9242194,1.45415662 31.2703812,0.760669626 31.962842,0.536910906 C33.4593292,0.178993223 34.9446941,0 36.4188681,0 C39.8362029,0 43.0191473,0.805366358 45.9674267,2.41609908 C48.9157748,4.02683179 51.3001854,6.22481081 53.1205212,9.01003614 C54.9409256,11.7953302 55.9963002,14.8657207 56.286645,18.2214826 C57.6491162,17.6398062 59.1009085,17.3490024 60.6420905,17.3490024 C63.7691492,17.3490024 66.4439045,18.4563811 68.6662878,20.6711386 C70.8887397,22.8859649 72,25.5481023 72,28.6577571 C72,31.7897603 70.8887397,34.4631063 68.6662878,36.6778638 C66.4439045,38.8926213 63.7803401,40 60.6755944,40 L31.5271533,39.9664431 C31.3260609,39.8993292 31.1752931,39.7762413 31.0747813,39.5973168 C30.9742694,39.4183924 30.9242194,39.26161 30.9242194,39.1273822 Z" id="Shape"></path>
                        </g>
                        <g id="mailchimp" transform="translate(0.000000, 2.000000)" fill="#CCCCCC">
                            <path d="M43.4722071,18.4452 L43.4722071,18.44444 L43.4722071,18.4452 Z M147.582386,27.89998 L147.635118,27.90074 C150.769843,27.90074 152.975872,25.72524 152.999773,22.6119 C153.011533,21.07024 152.566913,19.65892 151.747856,18.63938 C150.881757,17.56018 149.669294,16.98486 148.24097,16.97346 L148.212518,16.97346 C146.284945,16.97346 144.495083,18.43836 142.740502,21.45252 L142.600894,21.69306 L142.511363,21.43086 C142.068261,20.13924 141.673717,19.06308 141.43775,18.41898 C141.272345,17.96982 141.199506,17.76804 141.182055,17.70268 C141.097835,17.37664 140.819758,17.1741 140.454805,17.1741 C140.230598,17.1741 139.992355,17.25048 139.76701,17.39412 C139.543561,17.53662 139.418749,17.71066 139.373983,17.94322 L139.362602,17.97818 C137.606504,23.46424 136.158833,26.12766 134.931954,26.12766 C134.753651,26.12614 134.614043,26.068 134.510096,25.95172 C134.188771,25.59604 134.267679,24.75016 134.376938,23.579 C134.456984,22.71868 134.548412,21.74474 134.510475,20.71114 C134.438395,18.72412 133.352642,17.53092 131.607925,17.518 C129.390135,17.51724 127.953086,19.88312 127.291087,21.2933 L127.093436,21.71358 L127.049809,21.24998 C126.884404,19.50502 126.299797,17.42072 124.453788,17.40704 C122.300491,17.40704 120.6601,19.93784 119.659325,22.06204 L119.391111,22.63128 L119.417667,22.00276 C119.53641,19.16986 119.633907,17.4971 119.707884,17.03312 C119.780723,16.56762 119.742407,16.25526 119.59028,16.07628 C119.44612,15.9087 119.174492,15.84676 118.776155,15.87184 C118.086841,15.91554 117.734408,16.33582 117.203671,17.74448 C116.331881,20.05792 114.114471,25.44024 112.343957,25.44024 C111.992661,25.43758 111.714584,25.31788 111.510863,25.08342 C110.768438,24.23108 111.065484,21.926 111.47634,18.73666 L111.507448,18.49536 C111.702065,16.98524 111.370496,16.663 110.551439,16.51214 C110.469366,16.4966676 110.386084,16.4885289 110.302573,16.48782 C109.648541,16.48782 109.34277,17.1152 108.731986,18.85864 C107.645095,21.96096 106.247121,25.22364 104.6128,25.22364 C104.55286,25.22364 104.494057,25.21908 104.433738,25.20958 C103.567639,25.06176 103.586607,23.77508 103.610508,22.1445 C103.622647,21.2629 103.637443,20.26312 103.502008,19.36062 C103.257695,17.74106 102.305479,16.72988 101.015246,16.71962 C98.4416077,16.71962 96.7059954,20.02106 95.8986986,21.98946 L95.7158429,22.43482 L95.6547645,21.95678 C95.4962096,20.6932898 95.3920396,19.4235472 95.342544,18.15108 L95.3402678,18.10358 L95.3694792,18.06634 C100.186325,11.9928 102.347968,7.60988 102.3768,3.85472 C102.395389,1.45578 101.290288,0.01482 99.4211379,0 C98.0542721,0 94.804599,1.14038 93.6752181,11.70286 C93.464184,13.685763 93.3502369,15.6778296 93.3337862,17.6719 L93.3330275,17.71142 L93.3106447,17.74334 C91.1068914,20.93838 86.403477,26.43432 81.7986986,26.43432 C77.638161,26.43432 74.318684,23.06258 74.318684,17.11102 C74.318684,9.13254 79.9564837,4.23396 84.1993443,4.23396 L84.2346256,4.23396 C85.1564918,4.2408 85.9470963,4.49882 86.520702,4.9799 C87.116311,5.47922 87.4285315,6.17918 87.4220822,7.00378 C87.4137361,8.1054 87.0552326,8.6716 86.7088689,9.21842 C86.620476,9.3594 86.5313243,9.49924 86.4501394,9.64744 C86.3681957,9.79716 86.2934601,10.01414 86.4023389,10.19996 C86.5138733,10.39034 86.7987793,10.51004 87.1459017,10.5127 C88.1557815,10.5127 89.6831203,9.04818 89.6998125,6.8419 C89.7172635,4.53264 87.7752746,2.15308 84.3104994,2.15308 C79.0672432,2.15308 72.005293,7.923 72.005293,17.27404 C72.005293,23.8887 76.1457241,28.46048 81.7543124,28.46048 C85.7342705,28.46048 89.6713598,25.60592 93.1581384,20.83806 L93.3717231,20.54926 L93.3868978,20.90798 C93.4608747,22.65332 93.5872046,24.02816 93.6793912,25.0325 C93.7389521,25.67812 93.7822001,26.14438 93.7806826,26.40164 C93.7761302,26.96518 93.8675581,27.35734 94.0621743,27.5975 C94.2560317,27.83804 94.5640792,27.95166 95.0314616,27.9547 C95.8144788,27.9547 95.9715374,27.42004 96.2814818,26.10068 L96.3706334,25.7241 C96.7560721,24.12544 98.1794638,18.90728 100.320242,18.90728 C100.67002,18.9107 100.939751,19.01406 101.131332,19.21736 C101.604026,19.71972 101.552432,20.75066 101.492492,21.945 C101.454555,22.69018 101.416618,23.45968 101.490974,24.20942 C101.692419,26.2333 102.564967,27.2232 104.157937,27.2346 C105.793775,27.23536 107.500935,25.47026 108.401935,23.83018 L108.571893,23.52124 L108.638282,23.86856 C108.804446,24.74636 109.548009,27.62752 111.876195,27.62752 C113.986244,27.62752 115.796592,25.40186 117.780691,20.82096 L118.040558,20.22284 L118.024625,20.8753 C117.982515,22.61114 117.888811,24.73078 117.888052,26.36972 C117.887294,27.6374 118.015141,28.12114 118.600127,28.12114 L118.732907,28.12722 C119.293993,28.12722 119.674879,27.79168 119.864943,27.1282 C121.358139,21.91574 122.648372,19.4883 123.926845,19.4883 C125.178762,19.4978 125.295987,21.79072 125.396519,25.84228 L125.403348,26.12652 C125.433698,27.54354 125.484912,28.17054 126.363531,28.177 C127.030461,28.177 127.196245,27.65222 127.541091,26.36022 C127.607101,26.11398 127.678423,25.8438 127.763022,25.55196 C128.968656,21.36246 129.967913,19.65322 131.212243,19.65322 C132.277511,19.6612 132.336692,20.7613 132.356419,21.12268 C132.397391,21.89674 132.317724,22.70728 132.241091,23.4897 C132.169391,24.21702 132.095793,24.96942 132.123487,25.66824 C132.188738,27.3068 133.084049,28.21614 134.645531,28.22792 C136.672119,28.22792 138.501435,25.85368 140.10351,21.17284 L140.214665,20.8468 L140.341753,21.1679 C140.632729,21.90358 141.011339,22.89956 141.361497,24.08782 L141.374774,24.13304 L141.355427,24.17598 C139.803808,27.62638 138.709329,31.4697 138.693775,33.52322 C138.67291,36.22768 139.894477,37.98518 141.806117,38 L141.839122,38 C142.878972,38 145.302759,37.58162 145.349801,33.7117 C145.369149,32.12558 144.994712,29.88282 144.23863,27.0446 L144.151754,26.7197 L144.43059,26.9059 C145.399119,27.54772 146.487528,27.89086 147.582386,27.89998 Z M95.3482345,14.77516 C95.3914826,13.8054 95.4730468,12.8611 95.5887543,11.9681 C96.3391458,6.21414 97.9044215,2.19602 99.3972377,2.19602 L99.4040663,2.19602 C100.115762,2.20134 100.47161,2.74056 100.464402,3.79772 C100.443916,6.39578 98.8004906,10.11522 95.5804082,14.85268 L95.3285073,15.22356 L95.3482345,14.77516 Z M142.948776,35.46122 C142.711291,35.77814 142.380481,35.93888 141.96621,35.93888 C141.490482,35.9347 141.133117,35.76902 140.889941,35.44336 C140.208595,34.53174 140.400555,32.38854 141.512106,28.49848 C141.645264,28.03336 141.789045,27.56634 141.941551,27.1092 L142.070537,26.72122 L142.183968,27.11376 C143.478754,31.60422 143.735966,34.41242 142.948776,35.46122 Z M143.351665,23.95672 L143.328144,23.91378 L143.281103,23.76444 L143.303106,23.71998 C144.779609,20.67238 146.471594,18.92552 147.943545,18.92552 L147.95872,18.92552 C149.621114,18.93806 150.770601,20.43678 150.754668,22.5682 C150.743666,23.99092 150.117328,24.8102 149.594558,25.24682 C148.997811,25.74538 148.203033,26.03038 147.413946,26.03038 C145.468543,26.01556 144.133165,24.89418 143.351665,23.95672 Z M147.943545,19.05358 L147.943545,19.05168 L147.943545,19.05358 Z M49.1790519,27.3961 C51.4582996,27.2137 53.2663713,24.10872 53.9378541,22.78176 L54.1108462,22.43976 L54.1764771,22.81748 C54.4989405,24.68328 55.5122346,27.81828 58.6818609,27.84336 L58.7084167,27.84336 C60.0794555,27.84336 61.6348676,27.00318 63.2069719,25.4144 L63.3223,25.29774 L63.4061405,25.43796 C64.4645795,27.21104 65.8841775,28.15306 67.3955828,28.07554 C69.6205808,27.95964 70.9711337,26.38036 71.0898761,25.2833 C71.1202256,25.00362 71.0466281,24.74028 70.8869138,24.56282 C70.6869865,24.33938 70.39639,24.31354 70.1831847,24.51836 L70.0811345,24.61488 C69.5632961,25.11306 68.5981819,26.0414 67.5465716,26.09612 C66.2589939,26.1592 65.3067782,25.38818 64.691442,23.79674 L64.6660243,23.72986 L64.7092723,23.67362 C68.2499213,19.03496 70.7344076,11.95708 70.488956,7.20974 C70.3759041,5.01258 69.7381851,2.39324 67.3424712,2.39324 L67.1637885,2.3978 C66.2460953,2.4453 65.411484,2.88344 64.6834753,3.6993 C62.4607535,6.1902 61.2976087,12.32112 61.7198462,19.31882 C61.807101,20.7727 62.0593813,22.13158 62.4687202,23.35632 L62.4918617,23.4251 L62.4451994,23.48058 C61.1314452,25.01844 59.835142,25.86546 58.7949128,25.86546 C56.2922168,25.86546 56.3764367,21.6619 56.5740878,18.17654 C56.6169565,17.4249 56.6803111,16.9461 56.4583804,16.67402 C56.2998042,16.47908 56.0342461,16.38294 55.6472899,16.3799 L55.602145,16.37952 C54.7113871,16.37952 54.525117,16.56306 54.0694951,17.88698 C53.1214524,20.63742 51.2500261,25.25328 49.3675982,25.25328 C48.8459661,25.24834 48.4476288,25.07012 48.1748627,24.72204 C47.261722,23.55468 47.9552081,20.64312 48.5121215,18.3027 C48.6122749,17.88204 48.7082552,17.4781 48.7905782,17.10418 C48.9123556,16.54938 48.8751775,16.14468 48.6794232,15.89958 C48.4829101,15.65524 48.0910222,15.55644 47.5739425,15.59748 C46.7677838,15.66208 46.2522216,16.00028 46.0029763,17.53586 L45.9528996,17.85506 L45.7654914,17.62782 C45.4134372,17.10722 44.727159,16.48706 43.4528593,16.48706 C43.3413248,16.48706 43.2256173,16.49162 43.1061162,16.50112 C41.7464584,16.61284 40.1982543,17.5617 39.0650797,18.97796 C37.7422208,20.63134 37.1101923,22.724 37.2862195,24.87138 C37.2953243,24.985 37.3116372,25.09406 37.32795,25.20236 L37.3370549,25.26202 L37.296083,25.30724 C36.5047197,26.1706 35.6981817,26.60912 34.899231,26.60912 C33.665903,26.6 32.9583802,25.68192 32.9583802,24.15242 C32.9583802,21.5783 34.7000624,13.81756 34.7000624,11.00822 C34.7000624,8.01838 33.3699954,6.39084 31.0603981,6.37298 L31.0254962,6.37298 C27.6529076,6.37298 25.0246406,10.20604 22.5094254,18.09256 C22.2705044,18.8496368 22.0385737,19.6089092 21.8136631,20.37028 L21.4604707,21.55626 L21.5647971,20.32354 C21.7923108,17.679896 21.9513198,15.0307849 22.0416637,12.37888 C22.1668554,8.56748 21.6528107,6.11458 20.4688007,4.88034 C19.830323,4.21458 18.985848,3.88664 17.8856785,3.87828 L17.8576052,3.87828 C13.7308315,3.87828 11.7539407,10.84976 10.3142361,15.76886 C9.8798588,17.2539 9.02362343,20.6036 8.45191465,22.89348 L8.79069099,22.3421 C9.04448871,19.45866 9.78008481,12.236 9.73190497,8.31744 C9.67955208,4.11388 8.28271617,2.22946 5.20034469,2.2059 L5.16240781,2.2059 C3.51594723,2.2059 2.37366778,3.02556 1.70559933,3.71298 C0.632744369,4.8165 -0.0357034517,6.42922 0.00147469045,7.82192 C0.0242368183,8.66856 0.542833964,9.4221 0.935860038,9.4221 C1.19193398,9.4221 1.33381791,9.07972 1.39527565,8.87566 C2.34900881,5.71824 3.58309551,4.18304 5.16658087,4.18304 C5.82326825,4.18798 6.31227463,4.38178 6.67798615,4.77584 C7.91548717,6.10546 7.69014211,9.6957 7.28232065,16.21384 C7.15030031,18.31448 7.00158774,20.69442 6.87601667,23.40192 C6.85410951,23.8486528 6.82805839,24.2951721 6.79786669,24.74142 C6.67760679,26.62128 6.58200585,28.10708 7.29408108,28.21766 C8.22049968,28.36244 8.8233167,27.98548 9.1321229,27.0674 C9.58964167,25.70472 10.6158343,21.98034 12.6014506,15.17492 C14.5066407,8.64424 15.9459659,6.2681 17.787422,6.2681 C19.9149222,6.2681 20.0734984,9.92712 19.6835073,17.64872 C19.6004255,19.28576 19.4892704,21.13978 19.4039125,23.1572 C19.392152,23.44068 19.3788741,23.7158 19.3652168,23.98028 C19.2832732,25.65114 19.2187805,26.9686 19.6952677,27.474 C19.8439803,27.63132 20.0458045,27.70922 20.3132595,27.71074 C21.235505,27.71074 21.5128236,26.90096 21.9722392,25.55842 C22.0534241,25.32168 22.1395409,25.0686 22.2355212,24.80412 C25.3956632,16.0721 27.7321957,8.49604 30.8684375,8.49604 C31.8088928,8.49604 32.5410745,9.26136 32.5410745,10.754 C32.5410745,14.19946 30.8589533,20.85668 30.8589533,24.2326 C30.8589533,25.44214 31.2064551,26.52742 31.8627631,27.29046 C32.5365221,28.07402 33.4792536,28.49126 34.5889073,28.50076 L34.6131869,28.50076 C35.662521,28.50076 36.7554825,27.99004 37.8632394,26.98304 L37.9671864,26.8888 L38.0506476,27.00166 C38.7801738,27.98358 39.9569758,28.5114 41.2278613,28.41336 C43.1770581,28.26136 44.812517,26.52286 45.4210246,24.88354 L45.5401464,24.56282 L45.6588888,24.88354 C46.1110964,26.09992 47.0891092,27.56596 49.1790519,27.3961 Z M67.1398882,4.58014 L67.1732727,4.57938 C67.3959622,4.57938 67.5917165,4.6911 67.7540863,4.91226 C68.5279987,5.9603 68.5397591,9.78576 67.208554,14.13828 C66.4479195,16.62576 65.4247619,18.97568 64.2509948,20.93306 L64.0635866,21.24466 L64.0157862,20.88404 C63.8776959,19.83144 63.8094096,18.73552 63.7616091,17.803 C63.422074,11.22406 65.4088284,4.6702 67.1398882,4.58014 Z M45.5128318,19.95608 C44.8307267,22.70538 43.5226631,26.0243 41.1641273,26.2143 L40.9721667,26.22228 C39.9937746,26.22228 39.4452073,25.58084 39.3416396,24.31468 C39.2118955,22.73084 39.8936212,20.87606 41.0780106,19.58824 C41.8318164,18.7682 42.6823612,18.31676 43.4725864,18.31676 L43.4885199,18.31676 C44.4858805,18.32436 45.1850572,19.12654 45.5063826,19.87476 L45.5234542,19.91352 L45.5128318,19.95608 Z M56.4519311,9.87658 C55.5812797,9.87658 54.8783093,10.56362 54.8714807,11.40836 C54.864652,12.25918 55.5634494,12.95686 56.4284102,12.96332 L56.4409294,13.08986 L56.4409294,12.96332 C57.2990616,12.96332 58.0016526,12.27666 58.0084813,11.4323 C58.0153099,10.5811 57.316892,9.88342 56.4519311,9.87658 Z M111.192193,9.87658 C110.321542,9.87658 109.618951,10.56362 109.611743,11.40836 C109.604914,12.25918 110.303332,12.95686 111.168672,12.96332 L111.180812,13.08986 L111.180812,12.96332 C112.039703,12.96332 112.742294,12.27666 112.749123,11.4323 C112.755192,10.5811 112.057154,9.88342 111.192193,9.87658 Z" id="Shape"></path>
                            <path d="M153.999823,26 C153.447764,26.0009778 153.000586,26.4486325 153,27.0008873 C153.001173,27.5526109 153.448294,27.9994145 153.999823,28 C154.551409,27.9994151 154.998632,27.5526683 155,27.0008873 C154.999609,26.4484132 154.552101,26.0005872 153.999823,26 Z M153.999823,27.8555457 C153.526521,27.8555457 153.145113,27.4747116 153.145113,27.0012422 C153.145113,26.5277728 153.526521,26.145874 153.999823,26.145874 C154.472769,26.145874 154.854887,26.5277728 154.854887,27.0012422 C154.854887,27.4747116 154.472769,27.8555457 153.999823,27.8555457 Z M154.442966,26.7396628 C154.442966,26.5330967 154.341494,26.4202307 154.080362,26.4202307 L153.636864,26.4202307 L153.636864,27.5730257 L153.781976,27.5730257 L153.781976,27.068323 L153.989179,27.068323 L154.333333,27.5730257 L154.49725,27.5730257 L154.153096,27.068323 C154.309207,27.0409938 154.442966,26.9522626 154.442966,26.7396628 Z M153.967891,26.9384206 L153.782686,26.9384206 L153.782686,26.5483585 L154.040624,26.5483585 C154.164449,26.5483585 154.299273,26.5913043 154.299273,26.738953 C154.298208,26.9309672 154.126486,26.9384206 153.967891,26.9384206 Z" id="Shape"></path>
                        </g>
                    </g>
                </g>
            </g>
        </g>
    </g>
</svg>