<svg width="152" height="90" viewBox="0 0 152 90" fill="none" xmlns="http://www.w3.org/2000/svg">
<path fill-rule="evenodd" clip-rule="evenodd" d="M67.4595 72.7007C69.703 63.2144 63.816 53.7092 54.3105 51.4702C44.8051 49.2312 35.2806 55.1063 33.0371 64.5926C30.7936 74.0789 36.6806 83.5842 46.1861 85.8231C55.6916 88.0621 65.216 82.187 67.4595 72.7007Z" stroke="#F94F24" stroke-width="1.10206" stroke-linecap="round" stroke-dasharray="3 5"/>
<path fill-rule="evenodd" clip-rule="evenodd" d="M145 77.9999C145 80.0224 143.782 81.8457 141.913 82.6195C140.044 83.3932 137.894 82.965 136.464 81.5346C135.034 80.1041 134.607 77.9532 135.381 76.0849C136.156 74.2167 137.98 72.9991 140.002 73C141.328 73 142.6 73.5269 143.537 74.4646C144.474 75.4023 145.001 76.6741 145 77.9999Z" fill="#F2F2F2"/>
<path fill-rule="evenodd" clip-rule="evenodd" d="M143 78C143 79.6569 141.657 81 140 81C138.343 81 137 79.6569 137 78C137 76.3431 138.343 75 140 75C141.657 75 143 76.3431 143 78Z" stroke="#F94F24" stroke-width="1.10206" stroke-linecap="round" stroke-dasharray="2 4"/>
<path d="M119 77.0002H137" stroke="#F94F24" stroke-width="1.10206" stroke-linecap="round" stroke-dasharray="3 5"/>
<path fill-rule="evenodd" clip-rule="evenodd" d="M90 11.5C90 17.299 85.299 22 79.5 22C73.701 22 69 17.299 69 11.5C69 5.70101 73.701 1 79.5 1C85.299 1 90 5.70101 90 11.5Z" stroke="#F94F24" stroke-width="1.10206" stroke-linecap="round" stroke-dasharray="3 5"/>
<path fill-rule="evenodd" clip-rule="evenodd" d="M0 18V62.8625C0 63.6946 0.329513 64.4926 0.916051 65.081C1.50259 65.6694 2.2981 66 3.12759 66H76.87C78.5977 66 79.9987 64.5957 80 62.8625V18H0Z" fill="#F2F2F2"/>
<path fill-rule="evenodd" clip-rule="evenodd" d="M80 18V12.1944C79.9987 10.4298 78.5977 9 76.87 9H3.12759C1.40027 9 0 10.4302 0 12.1944V18H80Z" fill="#F94F24"/>
<path fill-rule="evenodd" clip-rule="evenodd" d="M9 13.5C9 14.1067 8.63454 14.6536 8.07404 14.8858C7.51354 15.1179 6.86837 14.9896 6.43938 14.5606C6.01039 14.1316 5.88205 13.4865 6.11422 12.926C6.34639 12.3655 6.89334 12 7.50002 12C8.32844 12 9 12.6716 9 13.5Z" fill="white"/>
<path fill-rule="evenodd" clip-rule="evenodd" d="M16 13.5C16 14.3284 15.3284 15 14.5 15C13.6716 15 13 14.3284 13 13.5C13 12.6716 13.6716 12 14.5 12C14.8978 12 15.2794 12.158 15.5607 12.4393C15.842 12.7206 16 13.1022 16 13.5Z" fill="white"/>
<path fill-rule="evenodd" clip-rule="evenodd" d="M21 13.5C21 14.1067 20.6345 14.6536 20.074 14.8858C19.5135 15.1179 18.8684 14.9896 18.4394 14.5606C18.0104 14.1316 17.8821 13.4865 18.1142 12.926C18.3464 12.3655 18.8933 12 19.5 12C20.3284 12 21 12.6716 21 13.5Z" fill="white"/>
<path fill-rule="evenodd" clip-rule="evenodd" d="M0 18H80V57L0 18Z" fill="#E9E9E9"/>
<path fill-rule="evenodd" clip-rule="evenodd" d="M18 50V72.8859C18 73.4466 18.2216 73.9843 18.6161 74.3808C19.0105 74.7773 19.5455 75 20.1034 75H53.8966C54.4545 75 54.9895 74.7773 55.3839 74.3808C55.7784 73.9843 56 73.4466 56 72.8859V50L18 50Z" fill="url(#paint0_linear)"/>
<path fill-rule="evenodd" clip-rule="evenodd" d="M56 50V46.0461C55.9986 44.9157 55.0573 44 53.8966 44H20.1034C18.9427 44 18.0013 44.9157 18 46.0461V50H56Z" fill="#F94F24"/>
<path fill-rule="evenodd" clip-rule="evenodd" d="M24 47C24 47.5523 23.5523 48 23 48C22.4477 48 22 47.5523 22 47C22 46.4477 22.4477 46 23 46C23.5523 46 24 46.4477 24 47Z" fill="white"/>
<path fill-rule="evenodd" clip-rule="evenodd" d="M28 46.9974C28.001 47.4021 27.7581 47.7675 27.3845 47.9231C27.0109 48.0787 26.5804 47.9938 26.2938 47.708C26.0073 47.4222 25.9213 46.9919 26.0759 46.6179C26.2305 46.2439 26.5953 46 27 46C27.265 45.9993 27.5193 46.1041 27.707 46.2912C27.8946 46.4783 28 46.7324 28 46.9974Z" fill="white"/>
<path fill-rule="evenodd" clip-rule="evenodd" d="M32 46.9974C32.001 47.4023 31.7578 47.7679 31.3839 47.9234C31.01 48.0788 30.5792 47.9934 30.2929 47.7071C30.0066 47.4208 29.9212 46.99 30.0766 46.6161C30.2321 46.2422 30.5977 45.999 31.0026 46C31.5534 46 32 46.4466 32 46.9974Z" fill="white"/>
<g style="mix-blend-mode:multiply">
<path fill-rule="evenodd" clip-rule="evenodd" d="M56.8623 75.8723C56.6594 75.5815 56.4497 75.2908 56.2435 75H56V77L56.6053 76.6789C56.794 76.6054 56.9307 76.4742 56.98 76.3195C57.0293 76.1647 56.9864 76.0016 56.8623 75.8723Z" fill="#E5E5E5"/>
</g>
<g style="mix-blend-mode:multiply">
<path fill-rule="evenodd" clip-rule="evenodd" d="M42.7613 75H56V74.2541L55.907 74.0846C55.8627 73.9953 55.8627 73.8907 55.907 73.8013L55.9927 73.6899V62.7926C55.8409 62.5916 55.6915 62.3882 55.5372 62.1896C55.4249 62.0792 55.392 61.9123 55.454 61.7682C55.6131 61.3711 55.7576 60.9667 55.8996 60.5574L55.9927 60.2814V58.5669C55.8555 58.4797 55.689 58.3973 55.5152 58.3005C54.7219 57.8961 53.9335 57.4771 53.1329 57.0897C52.7803 56.9177 52.5844 56.9928 52.3665 57.3173C51.9095 58.0002 51.4549 58.6847 51.0027 59.3708C50.9454 59.4908 50.8082 59.5515 50.6795 59.5137C49.362 59.2545 48.0021 59.2959 46.7033 59.6348C46.5933 59.6481 46.4831 59.6127 46.4021 59.5379C45.7973 58.8841 45.2048 58.223 44.6147 57.5595C44.3209 57.2301 44.1251 57.2083 43.7455 57.4674C42.8984 58.0583 42.0512 58.6443 41.1967 59.2255C40.8172 59.4846 40.7389 59.7099 40.9519 60.1167C41.3355 60.8222 41.7215 61.5253 42.11 62.2259C42.1879 62.3425 42.1725 62.4971 42.0733 62.5964C41.7261 63.0321 41.4134 63.4936 41.138 63.9768C40.8605 64.5547 40.6153 65.1473 40.4034 65.7518C40.3699 65.8968 40.2489 66.0059 40.0998 66.0255C39.2575 66.178 38.4177 66.3451 37.5779 66.5098C37.0564 66.6115 36.9707 66.7156 37.0074 67.2363C37.076 68.2606 37.1592 69.2777 37.2278 70.2996C37.2572 70.7428 37.4041 70.8953 37.8546 70.9147C38.6626 70.9462 39.473 70.9898 40.2834 71.0092C40.4447 70.999 40.5884 71.109 40.6189 71.2659C41.0806 72.4935 41.8075 73.6067 42.749 74.5278C42.8151 74.6263 42.8331 74.7489 42.798 74.862C42.7882 74.9104 42.7735 74.954 42.7613 75ZM48.9999 62.979C51.9329 62.979 54.3106 65.3306 54.3106 68.2315C54.3106 71.1324 51.9329 73.484 48.9999 73.484C46.0669 73.484 43.6892 71.1324 43.6892 68.2315C43.6892 65.3306 46.0669 62.979 48.9999 62.979Z" fill="#E5E5E5"/>
</g>
<g style="mix-blend-mode:multiply">
<path fill-rule="evenodd" clip-rule="evenodd" d="M60.9904 69.8098C60.9015 68.7351 60.7964 67.663 60.694 66.5908C60.6536 66.1443 60.4838 66.0055 60.0015 65.9929C59.1554 65.9728 58.3093 65.9425 57.4605 65.9273C57.1987 65.9604 56.9541 65.7985 56.9 65.5565C56.7846 65.201 56.6188 64.8616 56.4069 64.5474C56.2775 64.3633 56.1374 64.1816 56 64V74C56.5552 73.1995 56.9759 72.3241 57.2476 71.4041C57.2816 71.2425 57.4254 71.1213 57.6006 71.1065C58.5167 70.9383 59.432 70.7701 60.3464 70.6019C60.9338 70.5035 61.0362 70.3749 60.9904 69.8098Z" fill="#E5E5E5"/>
</g>
<path fill-rule="evenodd" clip-rule="evenodd" d="M62.9944 69.3134C62.9137 68.2571 62.8182 67.2033 62.7252 66.1495C62.6885 65.7106 62.5343 65.5742 62.0962 65.5618C61.3277 65.542 60.5593 65.5123 59.7883 65.4974C59.5506 65.5298 59.3284 65.3708 59.2793 65.1329C59.1755 64.7831 59.0248 64.4493 58.8314 64.1411C58.4227 63.5138 57.9797 62.9013 57.5318 62.3137C57.4191 62.2008 57.387 62.0291 57.4511 61.8822C57.6077 61.4756 57.7521 61.0615 57.894 60.6425C58.0531 60.1763 58.2024 59.7052 58.3566 59.2366C58.4251 58.7853 58.0066 58.6093 57.5098 58.3316C56.7168 57.9175 55.9288 57.4885 55.1285 57.0918C54.7785 56.9158 54.5803 56.9926 54.3624 57.3249C53.904 58.0241 53.4496 58.725 52.9992 59.4275C52.9427 59.5512 52.8048 59.6137 52.6762 59.5738C51.3592 59.3083 49.9999 59.3507 48.7016 59.6978C48.5917 59.7114 48.4815 59.6751 48.4006 59.5986C47.7985 58.9374 47.203 58.2621 46.614 57.5728C46.3227 57.2356 46.1245 57.2133 45.7451 57.4786C44.8983 58.0836 44.0515 58.6837 43.1974 59.2787C42.818 59.544 42.7397 59.7746 42.9526 60.1912C43.3344 60.9136 43.7203 61.6335 44.1103 62.3509C44.1875 62.4708 44.1711 62.6291 44.0711 62.7302C43.725 63.1769 43.4124 63.6494 43.1362 64.1436C42.8599 64.7358 42.6148 65.3425 42.402 65.961C42.3698 66.1103 42.2481 66.2226 42.0985 66.2412C41.2566 66.3974 40.4171 66.5685 39.5777 66.7371C39.0564 66.8413 38.9707 66.9479 39.0074 67.481C39.076 68.5298 39.1616 69.5712 39.2277 70.6176C39.2571 71.0713 39.4039 71.2275 39.8542 71.2474C40.6619 71.2796 41.472 71.3242 42.2821 71.3441C42.4432 71.3336 42.5869 71.4463 42.6173 71.6069C43.0789 72.8639 43.8055 74.0037 44.7466 74.9468C44.8122 75.0478 44.831 75.1728 44.798 75.289C44.5386 76.1444 44.262 76.9949 43.9928 77.8479C43.9224 77.9968 43.9204 78.1697 43.9874 78.3202C44.0544 78.4708 44.1835 78.5837 44.3403 78.6289C45.3193 79.0827 46.2982 79.5414 47.3041 79.9728C47.4566 80.0251 47.6245 80.0012 47.7569 79.9083C48.0061 79.6804 48.2256 79.4213 48.4104 79.1372C48.7456 78.619 49.0418 78.0735 49.3673 77.5503C49.4338 77.4598 49.5374 77.405 49.6487 77.4016C50.8632 77.5793 52.1007 77.5042 53.2856 77.1809C53.3981 77.1548 53.516 77.1843 53.6037 77.2602C54.1813 77.8999 54.7491 78.552 55.3169 79.2066C55.6914 79.6455 55.8872 79.7025 56.3448 79.3752C57.2039 78.7752 58.058 78.1628 58.9097 77.5478C59.0463 77.4757 59.1452 77.3471 59.1809 77.1954C59.2166 77.0436 59.1855 76.8836 59.0957 76.7569C58.7041 75.9957 58.2954 75.2444 57.9063 74.4856C57.8609 74.3944 57.8609 74.2868 57.9063 74.1955C58.692 73.2152 59.2687 72.0805 59.5999 70.8631C59.631 70.7034 59.7629 70.584 59.9229 70.5705C60.7518 70.4052 61.5823 70.2399 62.4144 70.0746C62.9332 69.9952 63.0262 69.8688 62.9944 69.3134ZM51.0021 73.8978C48.0704 73.8978 45.6937 71.4899 45.6937 68.5197C45.6937 65.5494 48.0704 63.1416 51.0021 63.1416C53.9339 63.1416 56.3106 65.5494 56.3106 68.5197C56.3092 71.4893 53.9333 73.8964 51.0021 73.8978Z" fill="#F94F24"/>
<g style="mix-blend-mode:multiply">
<path fill-rule="evenodd" clip-rule="evenodd" d="M98.8488 35.1499C104.855 41.156 106.651 50.1887 103.401 58.036C100.151 65.8834 92.4935 71 84 71C75.5065 71 67.8494 65.8834 64.5991 58.036C61.3488 50.1887 63.1454 41.156 69.1512 35.1499C77.3525 26.95 90.6475 26.95 98.8488 35.1499Z" fill="#D7C8F2"/>
</g>
<path fill-rule="evenodd" clip-rule="evenodd" d="M98.8488 35.1499C104.855 41.156 106.651 50.1887 103.401 58.036C100.151 65.8834 92.4935 71 84 71C75.5065 71 67.8494 65.8834 64.5991 58.036C61.3488 50.1887 63.1454 41.156 69.1512 35.1499C77.3525 26.95 90.6475 26.95 98.8488 35.1499Z" stroke="#C3C3C3" stroke-width="4"/>
<path opacity="0.4" fill-rule="evenodd" clip-rule="evenodd" d="M83.4223 34.5777C83.7921 34.9458 84 35.446 84 35.9678C84 36.4895 83.7921 36.9898 83.4223 37.3579L73.3586 47.4243C72.5898 48.1919 71.3445 48.1919 70.5757 47.4243C69.8081 46.6555 69.8081 45.4102 70.5757 44.6414L80.6421 34.5777C81.0102 34.2079 81.5105 34 82.0322 34C82.554 34 83.0542 34.2079 83.4223 34.5777Z" fill="white"/>
<path opacity="0.4" fill-rule="evenodd" clip-rule="evenodd" d="M78.5165 47.4845C79.1612 48.1296 79.1612 49.175 78.5165 49.8201L75.8193 52.5147C75.5101 52.8254 75.0898 53 74.6514 53C74.2131 53 73.7928 52.8254 73.4835 52.5147C72.8388 51.8697 72.8388 50.8243 73.4835 50.1792L76.1785 47.4845C76.4884 47.1743 76.909 47 77.3475 47C77.786 47 78.2066 47.1743 78.5165 47.4845Z" fill="white"/>
<path d="M98 64L104 70" stroke="#C3C3C3" stroke-width="13.6782"/>
<path fill-rule="evenodd" clip-rule="evenodd" d="M101 72.8271L115.981 87.0936C117.25 88.3021 119.308 88.3021 120.577 87.0936L121.048 86.6471C122.317 85.4379 122.317 83.4781 121.048 82.2689L106.068 68L101 72.8271Z" fill="#F94F24"/>
<path fill-rule="evenodd" clip-rule="evenodd" d="M105 68.922L119.095 82.2691C120.372 83.4783 120.372 85.4381 119.095 86.6473L118.621 87.0938C118.248 87.4486 117.789 87.7113 117.283 87.8589C118.443 88.2024 119.709 87.9077 120.569 87.0938L121.043 86.6473C122.319 85.4381 122.319 83.4783 121.043 82.2691L105.974 68L105 68.922Z" fill="#E54619"/>
<path fill-rule="evenodd" clip-rule="evenodd" d="M99 67.0239C99 67.0239 100.429 65.9129 101.024 65L102 65.9761C101.512 66.8136 100.815 67.5107 99.9782 68L99 67.0239Z" fill="#A3A3A3"/>
<g style="mix-blend-mode:multiply">
<path fill-rule="evenodd" clip-rule="evenodd" d="M119 18C119 20.7614 116.761 23 114 23C111.239 23 109 20.7614 109 18C109 15.2386 111.239 13 114 13C116.761 13 119 15.2386 119 18Z" fill="#F2F2F2"/>
</g>
<path fill-rule="evenodd" clip-rule="evenodd" d="M118 17.9999C118 19.6184 117.025 21.0774 115.529 21.6961C114.034 22.3148 112.313 21.9712 111.169 20.8258C110.026 19.6803 109.685 17.9587 110.307 16.4642C110.928 14.9698 112.389 13.9971 114.007 14C116.214 14.004 118 15.7937 118 17.9999Z" fill="url(#paint1_linear)"/>
<g style="mix-blend-mode:multiply">
<path d="M114 18.0665L114.636 19L116 17" stroke="#CCCCCC" stroke-linecap="round" stroke-linejoin="round"/>
</g>
<path d="M113 18.068L113.637 19L115 17" stroke="#F2F2F2" stroke-linecap="round" stroke-linejoin="round"/>
<path d="M125 18.0002H147" stroke="#DDDDDD" stroke-width="8.0599" stroke-linecap="round" stroke-linejoin="round"/>
<g style="mix-blend-mode:multiply">
<path fill-rule="evenodd" clip-rule="evenodd" d="M119 33C119 35.7614 116.761 38 114 38C111.239 38 109 35.7614 109 33C109 30.2386 111.239 28 114 28C116.761 28 119 30.2386 119 33Z" fill="#F2F2F2"/>
</g>
<path fill-rule="evenodd" clip-rule="evenodd" d="M118 32.9999C118 34.6178 117.025 36.0763 115.531 36.6954C114.036 37.3145 112.316 36.9723 111.172 35.8283C110.028 34.6844 109.685 32.9639 110.305 31.4692C110.924 29.9746 112.382 29 114 29C116.209 29.0013 117.999 30.7914 118 32.9999Z" fill="url(#paint2_linear)"/>
<g style="mix-blend-mode:multiply">
<path d="M114 33.0665L114.636 34L116 32" stroke="#CCCCCC" stroke-linecap="round" stroke-linejoin="round"/>
</g>
<path d="M113 33.068L113.637 34L115 32" stroke="#F2F2F2" stroke-linecap="round" stroke-linejoin="round"/>
<path d="M125 32.0002H147" stroke="#DDDDDD" stroke-width="8.0599" stroke-linecap="round" stroke-linejoin="round"/>
<g style="mix-blend-mode:multiply">
<path fill-rule="evenodd" clip-rule="evenodd" d="M119 47C119 49.7614 116.761 52 114 52C111.239 52 109 49.7614 109 47C109 44.2386 111.239 42 114 42C116.761 42 119 44.2386 119 47Z" fill="#F2F2F2"/>
</g>
<path fill-rule="evenodd" clip-rule="evenodd" d="M118 47C118 49.2091 116.209 51 114 51C111.791 51 110 49.2091 110 47C110 44.7909 111.791 43 114 43C116.209 43.0013 117.999 44.7914 118 47Z" fill="url(#paint3_linear)"/>
<g style="mix-blend-mode:multiply">
<path d="M114 47.0665L114.636 48L116 46" stroke="#CCCCCC" stroke-linecap="round" stroke-linejoin="round"/>
</g>
<path d="M113 47.0665L113.637 48L115 46" stroke="#F2F2F2" stroke-linecap="round" stroke-linejoin="round"/>
<path d="M125 47.0002H147" stroke="#DDDDDD" stroke-width="8.0599" stroke-linecap="round" stroke-linejoin="round"/>
<path d="M97 28V11.1311C97 11.1311 96.9099 3 105.597 3H147" stroke="#F94F24" stroke-width="1.10206" stroke-linecap="round" stroke-dasharray="3 5"/>
<path d="M109 62H140V52" stroke="#F94F24" stroke-linecap="round" stroke-dasharray="3 5"/>
<path d="M100 77.0002H66" stroke="#F94F24" stroke-width="1.10206" stroke-linecap="round" stroke-dasharray="3 5"/>
<defs>
<linearGradient id="paint0_linear" x1="18" y1="75" x2="56" y2="75" gradientUnits="userSpaceOnUse">
<stop stop-color="#8033EB"/>
<stop offset="1" stop-color="#6731CE"/>
</linearGradient>
<linearGradient id="paint1_linear" x1="116.203" y1="23.1592" x2="123.424" y2="15.751" gradientUnits="userSpaceOnUse">
<stop stop-color="#8033EB"/>
<stop offset="0.53" stop-color="#D4648E"/>
<stop offset="1" stop-color="#EC7071"/>
</linearGradient>
<linearGradient id="paint2_linear" x1="116.203" y1="38.1592" x2="123.424" y2="30.751" gradientUnits="userSpaceOnUse">
<stop stop-color="#8033EB"/>
<stop offset="0.53" stop-color="#D4648E"/>
<stop offset="1" stop-color="#EC7071"/>
</linearGradient>
<linearGradient id="paint3_linear" x1="116.203" y1="52.1594" x2="123.424" y2="44.7511" gradientUnits="userSpaceOnUse">
<stop stop-color="#8033EB"/>
<stop offset="0.53" stop-color="#D4648E"/>
<stop offset="1" stop-color="#EC7071"/>
</linearGradient>
</defs>
</svg>
