<svg width="170" height="120" viewBox="0 0 170 120" fill="none" xmlns="http://www.w3.org/2000/svg">
<path fill-rule="evenodd" clip-rule="evenodd" d="M31 51.5C31 58.4036 25.4036 64 18.5 64C11.5964 64 6 58.4036 6 51.5C6 44.5964 11.5964 39 18.5 39C25.4036 39 31 44.5964 31 51.5Z" stroke="#F2F2F2" stroke-width="5"/>
<path fill-rule="evenodd" clip-rule="evenodd" d="M97 101.503C96.9984 107.301 92.2967 112.001 86.4981 112C80.6995 111.999 75.9995 107.298 76 101.499C76.0005 95.7004 80.7014 91 86.5 91C89.2853 91 91.9564 92.1066 93.9256 94.0764C95.8949 96.0461 97.0008 98.7176 97 101.503V101.503Z" stroke="#F2F2F2" stroke-width="15.7586"/>
<path fill-rule="evenodd" clip-rule="evenodd" d="M52 79.4967C52.0012 88.5973 46.5201 96.8024 38.1126 100.286C29.7051 103.769 20.0272 101.845 13.5917 95.4104C7.15623 88.9757 5.23071 79.298 8.71306 70.8901C12.1954 62.4822 20.3998 57 29.5003 57C41.9254 57 51.9984 67.0717 52 79.4967Z" stroke="#F2F2F2" stroke-width="5"/>
<path fill-rule="evenodd" clip-rule="evenodd" d="M84.5 52C96.9264 52 107 41.9264 107 29.5C107 17.0736 96.9264 7 84.5 7C72.0736 7 62 17.0736 62 29.5C62 41.9264 72.0736 52 84.5 52Z" stroke="#F2F2F2" stroke-width="5"/>
<path fill-rule="evenodd" clip-rule="evenodd" d="M139.5 102C151.926 102 162 91.9264 162 79.5C162 67.0736 151.926 57 139.5 57C127.074 57 117 67.0736 117 79.5C117 91.9264 127.074 102 139.5 102Z" stroke="#F2F2F2" stroke-width="5"/>
<path fill-rule="evenodd" clip-rule="evenodd" d="M23 69.8638V86H36.9816V70.105C36.9816 70.105 37.1393 67.7081 36.531 67.0776C35.9226 66.4472 23 69.8638 23 69.8638Z" fill="#FFCD00"/>
<path fill-rule="evenodd" clip-rule="evenodd" d="M103 58L102.015 44.7174C102.015 40.4717 98.442 37.8151 98.442 37.8151L90.435 33.1312L85.2601 33.5128V33.483L81.5502 33L73.5432 37.681C73.5432 37.681 69.9846 40.3405 69.9846 44.5832L69 57.8658H84.0235V57.9911L103 58Z" fill="url(#paint0_linear)"/>
<path fill-rule="evenodd" clip-rule="evenodd" d="M114 30C114 46.0163 101.016 59 85 59C68.9837 59 56 46.0163 56 30C56 13.9837 68.9837 1 85 1C101.016 1 114 13.9837 114 30V30Z" stroke="#F94F24" stroke-width="0.860633" stroke-linecap="round" stroke-dasharray="2.58 1.72"/>
<path fill-rule="evenodd" clip-rule="evenodd" d="M81.0146 29L80 35.1561C80 35.1561 81.6364 37 85.5082 37C89.3799 37 91 34.9187 91 34.9187L90.0476 29.0147L81.0146 29Z" fill="#FFA881"/>
<path fill-rule="evenodd" clip-rule="evenodd" d="M90.7482 15C90.8568 15.1023 94.8417 16.9971 91.9493 23C91.9493 23 92.3186 20.0965 89.1003 17.7895C85.882 15.4825 90.7482 15 90.7482 15Z" fill="#7A4E0D"/>
<path fill-rule="evenodd" clip-rule="evenodd" d="M93 22.2574C93 27.8695 89.8661 33 86.0015 33C82.1369 33 79 27.8695 79 22.2574C79 16.6453 82.1339 15 85.9985 15C89.8631 15 93 16.6453 93 22.2574Z" fill="#FFC1A6"/>
<path fill-rule="evenodd" clip-rule="evenodd" d="M79.0933 24C79.0933 24 76.3924 19.5632 79.4808 16.9251C79.4808 16.9251 78.7445 13.8041 82.3606 12.4283C85.9766 11.0524 88.4449 13.4318 89.9802 13.4318C91.5154 13.4318 92.2965 12.5766 92.2965 12.5766C92.2965 12.5766 93 12.2799 93 12.9868C93 13.6937 92.3561 20.4562 86.9603 20.4562C81.8925 20.4562 80.8491 18.0011 80.8491 18.0011C80.8491 18.0011 79.2364 19.7872 79.0933 24Z" fill="#7A4E0D"/>
<path fill-rule="evenodd" clip-rule="evenodd" d="M80 17.1575C80 17.1575 81.6617 19.5981 85.8079 19.5981C89.9541 19.5981 92 16 92 16C92 16 91.3052 21 85.7599 21C80.9061 21 80 17.1575 80 17.1575Z" fill="#FFA881"/>
<path fill-rule="evenodd" clip-rule="evenodd" d="M79.1664 23.9194C79.1664 23.9194 78.7015 22.4727 77.4862 23.2088C76.2709 23.9448 77.4133 26.6428 80.0262 26.9768C82.6391 27.3109 79.1664 23.9194 79.1664 23.9194Z" fill="#FFC1A6"/>
<path fill-rule="evenodd" clip-rule="evenodd" d="M91.8319 23.9194C91.8319 23.9194 92.2963 22.4727 93.5135 23.2088C94.7306 23.9448 93.5833 26.6428 90.9729 26.9768C88.3624 27.3109 91.8319 23.9194 91.8319 23.9194Z" fill="#FFC1A6"/>
<path fill-rule="evenodd" clip-rule="evenodd" d="M81 30C82.022 31.3967 83.6336 32.2281 85.3529 32.2458C87.0262 32.2596 88.5917 31.4136 89.5088 30L90 33.4282C90 33.4282 83.7118 36.0691 81 30Z" fill="#FF9B6E"/>
<path fill-rule="evenodd" clip-rule="evenodd" d="M80.0818 16.1427C80.0818 16.1427 81.5966 19 85.7652 19C89.9339 19 92 14.6815 92 13C92 13 89.8945 19.5398 82.7235 16C82.7235 16 81.1179 15.0103 80.618 15.0103C79.691 15.0259 80.0818 16.1427 80.0818 16.1427Z" fill="#6D4400"/>
<path fill-rule="evenodd" clip-rule="evenodd" d="M104 59V40.5253C104.004 40.1247 103.851 39.7389 103.574 39.4528C103.298 39.1668 102.921 39.0039 102.526 39H67.4741C67.0793 39.0039 66.7022 39.1668 66.4258 39.4528C66.1493 39.7389 65.9962 40.1247 66.0001 40.5253V59H104Z" fill="#B3B3B3"/>
<path fill-rule="evenodd" clip-rule="evenodd" d="M65.0001 60V62.0253C64.992 63.1053 65.7422 63.9889 66.6768 64H103.323C104.258 63.9889 105.008 63.1053 105 62.0253V60L65.0001 60Z" fill="#B3B3B3"/>
<rect x="66" y="42" width="38" height="19" fill="#999999"/>
<path fill-rule="evenodd" clip-rule="evenodd" d="M83 42H66V59C71.6657 53.3304 77.3324 47.6638 83 42Z" fill="#A6A6A6"/>
<g style="mix-blend-mode:multiply">
<rect x="66" y="60" width="38" height="1" fill="#E5E5E5"/>
</g>
<g style="mix-blend-mode:multiply">
<rect x="66" y="41" width="38" height="1" fill="#E5E5E5"/>
</g>
<path fill-rule="evenodd" clip-rule="evenodd" d="M72 61.5C72 61.6326 71.9522 61.7598 71.867 61.8536C71.7819 61.9473 71.6664 62 71.546 62H69.4505C69.2011 61.9979 69 61.7746 69 61.5C69 61.2254 69.2011 61.0021 69.4505 61H71.546C71.7967 61 72 61.2239 72 61.5Z" fill="#808080"/>
<path fill-rule="evenodd" clip-rule="evenodd" d="M103 61.5C103 61.6326 102.952 61.7598 102.867 61.8536C102.782 61.9473 102.667 62 102.547 62H100.456C100.206 62 100.002 61.7768 100 61.5C100.002 61.2232 100.206 61 100.456 61H102.547C102.797 61 103 61.2239 103 61.5Z" fill="#808080"/>
<path fill-rule="evenodd" clip-rule="evenodd" d="M75 61.5C75 61.7746 74.7785 61.9979 74.5038 62C74.2271 62 74.0021 61.7768 74 61.5C74.0021 61.2232 74.2271 61 74.5038 61C74.7785 61.0021 75 61.2254 75 61.5Z" fill="#808080"/>
<path fill-rule="evenodd" clip-rule="evenodd" d="M78 61.5C78 61.7746 77.7785 61.9979 77.5038 62C77.2271 62 77.0021 61.7768 77 61.5C77.0021 61.2232 77.2271 61 77.5038 61C77.7785 61.0021 78 61.2254 78 61.5Z" fill="#808080"/>
<g style="mix-blend-mode:multiply">
<path d="M81.6945 49.2129L79.1306 51.9819L81.6973 54.7509" stroke="#CCCCCC" stroke-width="5.01129" stroke-linecap="round" stroke-linejoin="round"/>
<path d="M91.3472 54.7509L93.9138 51.9819L91.3472 49.2129" stroke="#CCCCCC" stroke-width="5.01129" stroke-linecap="round" stroke-linejoin="round"/>
<path d="M85.0834 49.2129L87.8334 54.7509" stroke="#CCCCCC" stroke-width="5.01129" stroke-linecap="round" stroke-linejoin="round"/>
</g>
<path d="M81.9968 49L79 51.9984L82 55" stroke="white" stroke-linecap="round" stroke-linejoin="round"/>
<path d="M91.0032 55L94 52.0016L91 49" stroke="white" stroke-linecap="round" stroke-linejoin="round"/>
<path d="M85 49L88 55" stroke="white" stroke-linecap="round" stroke-linejoin="round"/>
<path fill-rule="evenodd" clip-rule="evenodd" d="M48 106.988L44.7379 93.2447C44.7379 88.9456 41.1792 86.2508 41.1792 86.2508L35.4617 83.1239L30.2898 83.2568V83.4773L26.5769 83L20.4115 85.7855C20.4115 85.7855 16.8529 88.4804 16.8529 92.7795L14 106.873H29.0235V107L48 106.988Z" fill="#F94F24"/>
<path fill-rule="evenodd" clip-rule="evenodd" d="M59 80C59 96.0163 46.0163 109 30 109C13.9837 109 1 96.0163 1 80C1 63.9837 13.9837 51 30 51C46.0163 51 59 63.9837 59 80V80Z" stroke="#F94F24" stroke-width="0.860633" stroke-linecap="round" stroke-dasharray="2.58 1.72"/>
<path fill-rule="evenodd" clip-rule="evenodd" d="M27.2119 78L27 84.3293C27 84.3293 27.7978 89 31.4875 89C35.1773 89 36 84.3082 36 84.3082L35.813 78H27.2119Z" fill="#FFA881"/>
<path fill-rule="evenodd" clip-rule="evenodd" d="M38 70.2646C38 75.8729 34.8667 81 31 81C27.1333 81 24 75.861 24 70.2646C24 64.6682 27.1362 63 31 63C34.8638 63 38 64.6442 38 70.2646Z" fill="#FFC1A6"/>
<path fill-rule="evenodd" clip-rule="evenodd" d="M24.1664 72.9185C24.1664 72.9185 23.7015 71.4743 22.4862 72.2077C21.2709 72.9412 22.4133 75.6427 25.0262 75.9768C27.6391 76.311 24.1664 72.9185 24.1664 72.9185Z" fill="#FFC1A6"/>
<path fill-rule="evenodd" clip-rule="evenodd" d="M36.8319 72.9185C36.8319 72.9185 37.2963 71.4743 38.5135 72.2077C39.7306 72.9412 38.5833 75.6427 35.9729 75.9768C33.3624 76.311 36.8319 72.9185 36.8319 72.9185Z" fill="#FFC1A6"/>
<path fill-rule="evenodd" clip-rule="evenodd" d="M27 80C28.0893 81.3595 29.8042 82.1696 31.6346 82.1893C34.1224 82.1893 35.7841 80.2516 35.7841 80.2516L36 83.5196C36 83.5196 29.8884 85.9171 27 80Z" fill="#FF9B6E"/>
<path fill-rule="evenodd" clip-rule="evenodd" d="M48.9999 109V90.5264C49.0038 90.1255 48.8507 89.7394 48.5743 89.4532C48.2978 89.1669 47.9208 89.0039 47.526 89H12.474C12.0792 89.0039 11.7022 89.1669 11.4257 89.4532C11.1493 89.7394 10.9962 90.1255 11.0001 90.5264V109H48.9999Z" fill="#B3B3B3"/>
<path fill-rule="evenodd" clip-rule="evenodd" d="M10.0001 110V112.025C9.99196 113.105 10.7422 113.989 11.6767 114H48.3204C48.7697 113.996 49.1991 113.785 49.5141 113.415C49.8291 113.044 50.0038 112.545 49.9999 112.025V110H10.0001Z" fill="#B3B3B3"/>
<rect x="11" y="91" width="38" height="19" fill="#999999"/>
<path fill-rule="evenodd" clip-rule="evenodd" d="M28 92H11V109C16.6676 103.331 22.3343 97.6647 28 92Z" fill="#A6A6A6"/>
<g style="mix-blend-mode:multiply">
<rect x="11" y="110" width="38" height="1" fill="#E5E5E5"/>
</g>
<g style="mix-blend-mode:multiply">
<rect x="11" y="91" width="38" height="1" fill="#E5E5E5"/>
</g>
<path fill-rule="evenodd" clip-rule="evenodd" d="M17 111.5C17 111.776 16.797 112 16.5465 112H14.4535C14.3332 112 14.2179 111.947 14.1328 111.854C14.0478 111.76 14 111.633 14 111.5C14 111.224 14.203 111 14.4535 111H16.5465C16.797 111 17 111.224 17 111.5Z" fill="#808080"/>
<path fill-rule="evenodd" clip-rule="evenodd" d="M48 111.5C48 111.776 47.797 112 47.5465 112H45.4535C45.203 112 45 111.776 45 111.5C45 111.224 45.203 111 45.4535 111H47.5465C47.797 111 48 111.224 48 111.5Z" fill="#808080"/>
<path fill-rule="evenodd" clip-rule="evenodd" d="M20 111.5C20 111.775 19.7785 111.998 19.5038 112C19.2271 112 19.0021 111.777 19 111.5C19.0021 111.223 19.2271 111 19.5038 111C19.7785 111.002 20 111.225 20 111.5Z" fill="#808080"/>
<path fill-rule="evenodd" clip-rule="evenodd" d="M22 111.5C22 111.776 21.7761 112 21.5 112C21.2239 112 21 111.776 21 111.5C21 111.224 21.2239 111 21.5 111C21.7761 111 22 111.224 22 111.5Z" fill="#808080"/>
<g style="mix-blend-mode:multiply">
<path d="M26.6945 98.0127L24.1306 100.927L26.6973 103.842" stroke="#CCCCCC" stroke-width="5.01129" stroke-linecap="round" stroke-linejoin="round"/>
<path d="M36.3473 103.842L38.9111 100.927L36.3445 98.0127" stroke="#CCCCCC" stroke-width="5.01129" stroke-linecap="round" stroke-linejoin="round"/>
<path d="M30.0806 98.0127L32.8306 103.842" stroke="#CCCCCC" stroke-width="5.01129" stroke-linecap="round" stroke-linejoin="round"/>
</g>
<path d="M26.9968 98L24 100.998L27 104" stroke="white" stroke-linecap="round" stroke-linejoin="round"/>
<path d="M36.0032 104L39 101.002L36 98" stroke="white" stroke-linecap="round" stroke-linejoin="round"/>
<path d="M30 98L33 104" stroke="white" stroke-linecap="round" stroke-linejoin="round"/>
<path fill-rule="evenodd" clip-rule="evenodd" d="M158 106.985L157.015 93.6977C157.015 89.4505 153.455 86.793 153.455 86.793L145.445 82.1074L140.272 82.4891V82.4742L136.555 82L128.545 86.6856C128.545 86.6856 124.985 89.3431 124.985 93.5873L124 106.875H139.032V107L158 106.985Z" fill="#00568B"/>
<path fill-rule="evenodd" clip-rule="evenodd" d="M169 80C169 96.0163 156.016 109 140 109C123.984 109 111 96.0163 111 80C111 63.9837 123.984 51 140 51C156.016 51 169 63.9837 169 80Z" stroke="#F94F24" stroke-width="0.860633" stroke-linecap="round" stroke-dasharray="2.58 1.72"/>
<path fill-rule="evenodd" clip-rule="evenodd" d="M136.018 79L135 85.1527C135 85.1527 136.636 87 140.507 87C144.377 87 146 84.9148 146 84.9148L145.045 79H136.018Z" fill="#FFA881"/>
<path fill-rule="evenodd" clip-rule="evenodd" d="M148 70.2646C148 75.8729 144.864 81 141 81C137.136 81 134 75.861 134 70.2646C134 64.6682 137.133 63 140.997 63C144.861 63 148 64.6442 148 70.2646Z" fill="#FFC1A6"/>
<path fill-rule="evenodd" clip-rule="evenodd" d="M134.166 72.9185C134.166 72.9185 133.702 71.4743 132.486 72.2077C131.271 72.9412 132.413 75.6427 135.026 75.9768C137.639 76.311 134.166 72.9185 134.166 72.9185Z" fill="#FFC1A6"/>
<path fill-rule="evenodd" clip-rule="evenodd" d="M147.83 72.9185C147.83 72.9185 148.295 71.4743 149.513 72.2077C150.731 72.9412 149.583 75.6427 146.973 75.9768C144.363 76.311 147.83 72.9185 147.83 72.9185Z" fill="#FFC1A6"/>
<path fill-rule="evenodd" clip-rule="evenodd" d="M136 80C137.021 81.3967 138.633 82.2287 140.353 82.2471C142.027 82.2613 143.593 81.4145 144.509 80L145 83.4255C145 83.4255 138.715 86.0733 136 80Z" fill="#FF9B6E"/>
<path fill-rule="evenodd" clip-rule="evenodd" d="M159 109V90.5264C159.004 90.1255 158.851 89.7394 158.574 89.4532C158.298 89.1669 157.921 89.0039 157.526 89H122.474C122.079 89.0039 121.702 89.1669 121.426 89.4532C121.149 89.7394 120.996 90.1255 121 90.5264V109H159Z" fill="#B3B3B3"/>
<path fill-rule="evenodd" clip-rule="evenodd" d="M120 110V112.025C119.995 112.544 120.169 113.043 120.483 113.413C120.797 113.784 121.225 113.995 121.674 114H158.323C158.772 113.996 159.201 113.785 159.516 113.414C159.83 113.044 160.005 112.544 160 112.025V110H120Z" fill="#B3B3B3"/>
<rect x="121" y="91" width="38" height="19" fill="#999999"/>
<path fill-rule="evenodd" clip-rule="evenodd" d="M138 92H121V109C126.666 103.331 132.332 97.6647 138 92Z" fill="#A6A6A6"/>
<g style="mix-blend-mode:multiply">
<rect x="121" y="110" width="38" height="1" fill="#E5E5E5"/>
</g>
<g style="mix-blend-mode:multiply">
<rect x="121" y="91" width="38" height="1" fill="#E5E5E5"/>
</g>
<path fill-rule="evenodd" clip-rule="evenodd" d="M127 111.5C127 111.776 126.797 112 126.547 112H124.453C124.203 112 124 111.776 124 111.5C124 111.224 124.203 111 124.453 111H126.547C126.797 111 127 111.224 127 111.5Z" fill="#808080"/>
<path fill-rule="evenodd" clip-rule="evenodd" d="M158 111.5C158 111.776 157.797 112 157.547 112H155.453C155.203 112 155 111.776 155 111.5C155 111.224 155.203 111 155.453 111H157.547C157.797 111 158 111.224 158 111.5Z" fill="#808080"/>
<path fill-rule="evenodd" clip-rule="evenodd" d="M130 111.5C130 111.776 129.776 112 129.5 112C129.224 112 129 111.776 129 111.5C129 111.224 129.224 111 129.5 111C129.776 111 130 111.224 130 111.5Z" fill="#808080"/>
<path fill-rule="evenodd" clip-rule="evenodd" d="M133 111.5C133 111.776 132.776 112 132.5 112C132.224 112 132 111.776 132 111.5C132 111.224 132.224 111 132.5 111C132.776 111 133 111.224 133 111.5Z" fill="#808080"/>
<g style="mix-blend-mode:multiply">
<path d="M136.697 98.0127L134.133 100.927L136.697 103.842" stroke="#CCCCCC" stroke-width="5.01129" stroke-linecap="round" stroke-linejoin="round"/>
<path d="M146.347 103.842L148.914 100.927L146.347 98.0127" stroke="#CCCCCC" stroke-width="5.01129" stroke-linecap="round" stroke-linejoin="round"/>
<path d="M140.083 98.0127L142.833 103.842" stroke="#CCCCCC" stroke-width="5.01129" stroke-linecap="round" stroke-linejoin="round"/>
</g>
<path d="M136.997 98L134 100.998L137 104" stroke="white" stroke-linecap="round" stroke-linejoin="round"/>
<path d="M146 104L149 101.002L146 98" stroke="white" stroke-linecap="round" stroke-linejoin="round"/>
<path d="M140 98L143 104" stroke="white" stroke-linecap="round" stroke-linejoin="round"/>
<path d="M43 52C44.501 42.3956 49.0793 33.5911 56 27" stroke="#F94F24" stroke-width="0.860633" stroke-linecap="round" stroke-dasharray="2.58 1.72"/>
<path d="M113 93.2386C96.8131 106.342 74.0807 106.244 58 93" stroke="#F94F24" stroke-width="0.860633" stroke-linecap="round" stroke-dasharray="2.58 1.72"/>
<path d="M115 27C121.814 33.6349 126.377 42.4107 128 52" stroke="#F94F24" stroke-width="0.860633" stroke-linecap="round" stroke-dasharray="2.58 1.72"/>
<path fill-rule="evenodd" clip-rule="evenodd" d="M23.5328 72.9024C23.5328 72.9024 34.911 74.1539 37 67.6931C37 67.6931 36.7716 63 30.2791 63C24.4152 62.9875 21.7849 68.3407 23.5328 72.9024Z" fill="#FFD900"/>
<path fill-rule="evenodd" clip-rule="evenodd" d="M23 72.786C23 72.786 34.1367 74.0795 37 68C37 68 33.9902 77.2413 23 72.786Z" fill="#FFA881"/>
<path fill-rule="evenodd" clip-rule="evenodd" d="M134.223 72.6203C134.223 72.6203 132.087 62 141.035 62C149.982 62 147.754 72.6203 147.754 72.6203L146.972 74C146.972 74 147.494 70.5476 146.186 68.4043C144.879 66.261 144.579 68.4043 140.991 68.4043C137.404 68.4043 136.448 67.1209 135.759 68.9497C135.069 70.7786 134.223 72.6203 134.223 72.6203Z" fill="#7A4E0D"/>
<path fill-rule="evenodd" clip-rule="evenodd" d="M144.712 79.2049C144.17 79.2597 143.641 79.2049 143.641 78.2381C143.641 77.2713 141.704 77.3146 141.704 77.3146L141.019 77.4098V77.4329V77.4098L140.293 77.3146C140.293 77.3146 138.356 77.2713 138.356 78.2381C138.356 79.2049 137.827 79.2597 137.285 79.2049C136.074 79.0808 135 77 135 77C135 77 135.328 83 140.981 83C146.675 83 147 77 147 77C147 77 145.923 79.0808 144.712 79.2049ZM142.181 80.2612C141.303 80.2612 141.856 79.7388 141.856 79.3694H140.165C140.165 79.7388 140.723 80.2612 139.84 80.2612C138.956 80.2612 138.962 79.4877 138.962 78.6825C138.962 78.0187 143.058 78.0158 143.058 78.6825C143.058 79.4819 143.058 80.2612 142.181 80.2612Z" fill="#7A4E0D"/>
<path fill-rule="evenodd" clip-rule="evenodd" d="M27 51.9999C27 55.2355 25.0509 58.1526 22.0615 59.3908C19.0722 60.629 15.6313 59.9446 13.3433 57.6567C11.0554 55.3687 10.371 51.9278 11.6092 48.9385C12.8474 45.9491 15.7645 44 19.0001 44C21.1221 43.9992 23.1573 44.8418 24.6578 46.3422C26.1582 47.8427 27.0008 49.8779 27 51.9999Z" fill="white" stroke="#F94F24" stroke-width="0.860633" stroke-linecap="round" stroke-dasharray="2.58 1.72"/>
<path fill-rule="evenodd" clip-rule="evenodd" d="M16.6111 51.4644C17.2511 52.7222 18.28 53.7511 19.54 54.3911L20.5178 53.4111C20.64 53.2889 20.8156 53.2533 20.9689 53.3022C21.4667 53.4667 22.0022 53.5556 22.5556 53.5556C22.8022 53.5556 23 53.7533 23 54V55.5556C23 55.8022 22.8022 56 22.5556 56C18.3822 56 15 52.6178 15 48.4444C15 48.1978 15.2 48 15.4444 48H17C17.2467 48 17.4444 48.1978 17.4444 48.4444C17.4444 48.9978 17.5333 49.5333 17.6978 50.0311C17.7467 50.1844 17.7111 50.36 17.5889 50.4822L16.6111 51.4644Z" fill="#F94F24"/>
<path fill-rule="evenodd" clip-rule="evenodd" d="M130 40.0032C129.998 42.7642 127.759 45.0012 124.998 45C122.237 44.9988 119.999 42.76 120 39.9989C120.001 37.2379 122.239 35 125 35C127.762 35.0018 130 37.2412 130 40.0032Z" fill="white" stroke="#F94F24" stroke-width="0.860633" stroke-linecap="round" stroke-dasharray="2.58 1.72"/>
<path fill-rule="evenodd" clip-rule="evenodd" d="M123.806 39.7322C124.126 40.3611 124.64 40.8756 125.27 41.1956L125.759 40.7056C125.82 40.6444 125.908 40.6267 125.984 40.6511C126.233 40.7333 126.501 40.7778 126.778 40.7778C126.901 40.7778 127 40.8767 127 41V41.7778C127 41.9011 126.901 42 126.778 42C124.691 42 123 40.3089 123 38.2222C123 38.0989 123.1 38 123.222 38H124C124.123 38 124.222 38.0989 124.222 38.2222C124.222 38.4989 124.267 38.7667 124.349 39.0156C124.373 39.0922 124.356 39.18 124.294 39.2411L123.806 39.7322Z" fill="#F94F24"/>
<path fill-rule="evenodd" clip-rule="evenodd" d="M102 101.497C102.001 107.766 98.2256 113.419 92.4338 115.819C86.642 118.219 79.9748 116.893 75.5413 112.461C71.1078 108.028 69.7811 101.361 72.18 95.5689C74.5789 89.7767 80.2309 86 86.5002 86C95.0594 86 101.998 92.9377 102 101.497Z" fill="#FA6400"/>
<path fill-rule="evenodd" clip-rule="evenodd" d="M94.8874 107.555L87.6126 111.705C86.9242 112.098 86.076 112.098 85.3875 111.705L78.1126 107.555C77.4241 107.162 77 106.436 77 105.651V97.3494C77 96.5639 77.4241 95.838 78.1126 95.4452L85.3875 91.2946C86.076 90.9018 86.9242 90.9018 87.6126 91.2946L94.8874 95.4452C95.5759 95.838 96 96.5639 96 97.3494V105.651C96 106.436 95.5759 107.162 94.8874 107.555ZM90.9128 97.014C90.3552 98.6633 89.7935 100.317 89.232 101.972H89.0538C88.4942 100.313 87.9326 98.6553 87.373 97H85.627C85.0597 98.6735 84.4982 100.331 83.9367 101.99H83.7737C83.2045 100.315 82.6353 98.6393 82.0852 97.0221H80C81.0139 100.066 82.0028 103.033 82.9917 106H84.7128L86.4167 100.98H86.5892C87.1584 102.663 87.7257 104.349 88.2834 105.996H90.0083C91.001 103.017 91.9899 100.048 93 97.014H90.9128Z" fill="white"/>
<defs>
<linearGradient id="paint0_linear" x1="80.8661" y1="42.0449" x2="80.6672" y2="50.5909" gradientUnits="userSpaceOnUse">
<stop stop-color="#8033EB"/>
<stop offset="1" stop-color="#6731CE"/>
</linearGradient>
</defs>
</svg>
