<?xml version="1.0" encoding="utf-8"?>
<svg width="110px" height="86px" viewBox="0 0 110 86" version="1.1" xmlns:xlink="http://www.w3.org/1999/xlink" xmlns="http://www.w3.org/2000/svg">
  <desc>Created with Lunacy</desc>
  <g id="free" transform="translate(1 1)">
    <path d="M0 0C0 0 68.9901 0.999824 68.9901 53.9907" transform="translate(0.9997559 5.998962)" id="New-shape" fill="none" stroke="#FFFFFF" stroke-width="2" stroke-linecap="round" stroke-dasharray="3 6" />
    <path d="M0 5.99896L5.99914 11.9979M0 5.99896L5.99914 0" id="Combined-Shape" fill="none" stroke="#FFFFFF" stroke-width="2" stroke-linecap="round" />
    <g id="100%-Free" fill="#FFFFFF" transform="translate(26.99609 60.98755)">
      <path d="M29.025 12.2848Q29.808 13.2658 31.05 13.2658Q32.292 13.2658 33.075 12.2848Q33.858 11.3038 33.858 9.52176Q33.858 7.73976 33.075 6.77676Q32.292 5.81376 31.05 5.81376Q29.808 5.81376 29.025 6.77676Q28.242 7.73976 28.242 9.52176Q28.242 11.3038 29.025 12.2848ZM37.836 5.81376L31.41 18.0178L32.688 18.0178L39.096 5.81376L37.836 5.81376ZM47.934 17.8018L47.934 6.02976L55.044 6.02976L55.044 7.79376L50.022 7.79376L50.022 11.1238L54.306 11.1238L54.306 12.8878L50.022 12.8878L50.022 17.8018L47.934 17.8018ZM10.998 16.4788Q12.042 18.0178 13.842 18.0178Q15.642 18.0178 16.686 16.4788Q17.73 14.9398 17.73 12.0238Q17.73 9.12576 16.686 7.63176Q15.642 6.13776 13.842 6.13776Q12.042 6.13776 10.998 7.62276Q9.954 9.10776 9.954 12.0238Q9.954 14.9398 10.998 16.4788ZM23.076 18.0178Q21.276 18.0178 20.232 16.4788Q19.188 14.9398 19.188 12.0238Q19.188 9.10776 20.232 7.62276Q21.276 6.13776 23.076 6.13776Q24.876 6.13776 25.92 7.63176Q26.964 9.12576 26.964 12.0238Q26.964 14.9398 25.92 16.4788Q24.876 18.0178 23.076 18.0178ZM1.332 16.1098L1.332 17.8018L8.226 17.8018L8.226 16.1098L5.976 16.1098L5.976 6.35376L4.428 6.35376Q3.888 6.67776 3.267 6.90276Q2.646 7.12776 1.782 7.28976L1.782 8.58576L3.888 8.58576L3.888 16.1098L1.332 16.1098ZM31.995 11.4568Q31.626 12.0598 31.05 12.0598Q30.474 12.0598 30.105 11.4568Q29.736 10.8538 29.736 9.52176Q29.736 8.18976 30.105 7.60476Q30.474 7.01976 31.05 7.01976Q31.626 7.01976 31.995 7.60476Q32.364 8.18976 32.364 9.52176Q32.364 10.8538 31.995 11.4568ZM14.607 16.1728Q14.256 16.3978 13.842 16.3978Q13.428 16.3978 13.077 16.1728Q12.726 15.9478 12.474 15.4258Q12.222 14.9038 12.078 14.0758Q11.934 13.2478 11.934 12.0238Q11.934 10.8178 12.078 9.99876Q12.222 9.17976 12.474 8.67576Q12.726 8.17176 13.077 7.96476Q13.428 7.75776 13.842 7.75776Q14.256 7.75776 14.607 7.96476Q14.958 8.17176 15.21 8.67576Q15.462 9.17976 15.606 9.99876Q15.75 10.8178 15.75 12.0238Q15.75 13.2478 15.606 14.0758Q15.462 14.9038 15.21 15.4258Q14.958 15.9478 14.607 16.1728ZM23.076 16.3978Q23.49 16.3978 23.841 16.1728Q24.192 15.9478 24.444 15.4258Q24.696 14.9038 24.84 14.0758Q24.984 13.2478 24.984 12.0238Q24.984 10.8178 24.84 9.99876Q24.696 9.17976 24.444 8.67576Q24.192 8.17176 23.841 7.96476Q23.49 7.75776 23.076 7.75776Q22.662 7.75776 22.311 7.96476Q21.96 8.17176 21.708 8.67576Q21.456 9.17976 21.312 9.99876Q21.168 10.8178 21.168 12.0238Q21.168 13.2478 21.312 14.0758Q21.456 14.9038 21.708 15.4258Q21.96 15.9478 22.311 16.1728Q22.662 16.3978 23.076 16.3978ZM56.934 8.96376L56.934 17.8018L59.004 17.8018L59.004 12.4018Q59.418 11.3938 59.994 10.9888Q60.57 10.5838 61.092 10.5838Q61.38 10.5838 61.578 10.6198Q61.776 10.6558 62.01 10.7278L62.37 8.92776Q61.992 8.74776 61.362 8.74776Q60.66 8.74776 59.994 9.20676Q59.328 9.66576 58.86 10.5298L58.788 10.5298L58.644 8.96376L56.934 8.96376ZM67.428 18.0178Q66.51 18.0178 65.718 17.7028Q64.926 17.3878 64.332 16.7938Q63.738 16.1998 63.405 15.3448Q63.072 14.4898 63.072 13.3918Q63.072 12.3118 63.414 11.4478Q63.756 10.5838 64.323 9.98976Q64.89 9.39576 65.628 9.07176Q66.366 8.74776 67.14 8.74776Q68.04 8.74776 68.724 9.05376Q69.408 9.35976 69.867 9.91776Q70.326 10.4758 70.56 11.2498Q70.794 12.0238 70.794 12.9418Q70.794 13.2478 70.767 13.5178Q70.74 13.7878 70.704 13.9498L65.088 13.9498Q65.232 15.1378 65.925 15.7768Q66.618 16.4158 67.698 16.4158Q68.274 16.4158 68.769 16.2448Q69.264 16.0738 69.75 15.7678L70.452 17.0638Q69.822 17.4778 69.048 17.7478Q68.274 18.0178 67.428 18.0178ZM74.844 17.7028Q75.636 18.0178 76.554 18.0178Q77.4 18.0178 78.174 17.7478Q78.948 17.4778 79.578 17.0638L78.876 15.7678Q78.39 16.0738 77.895 16.2448Q77.4 16.4158 76.824 16.4158Q75.744 16.4158 75.051 15.7768Q74.358 15.1378 74.214 13.9498L79.83 13.9498Q79.866 13.7878 79.893 13.5178Q79.92 13.2478 79.92 12.9418Q79.92 12.0238 79.686 11.2498Q79.452 10.4758 78.993 9.91776Q78.534 9.35976 77.85 9.05376Q77.166 8.74776 76.266 8.74776Q75.492 8.74776 74.754 9.07176Q74.016 9.39576 73.449 9.98976Q72.882 10.5838 72.54 11.4478Q72.198 12.3118 72.198 13.3918Q72.198 14.4898 72.531 15.3448Q72.864 16.1998 73.458 16.7938Q74.052 17.3878 74.844 17.7028ZM65.07 12.5458L68.994 12.5458Q68.994 11.5198 68.553 10.9348Q68.112 10.3498 67.194 10.3498Q66.402 10.3498 65.808 10.9078Q65.214 11.4658 65.07 12.5458ZM78.12 12.5458L74.196 12.5458Q74.34 11.4658 74.934 10.9078Q75.528 10.3498 76.32 10.3498Q77.238 10.3498 77.679 10.9348Q78.12 11.5198 78.12 12.5458ZM37.467 17.0368Q38.25 18.0178 39.492 18.0178Q40.734 18.0178 41.517 17.0368Q42.3 16.0558 42.3 14.2738Q42.3 12.4918 41.517 11.5288Q40.734 10.5658 39.492 10.5658Q38.25 10.5658 37.467 11.5288Q36.684 12.4918 36.684 14.2738Q36.684 16.0558 37.467 17.0368ZM40.437 16.2088Q40.068 16.8118 39.492 16.8118Q38.916 16.8118 38.547 16.2088Q38.178 15.6058 38.178 14.2738Q38.178 12.9418 38.547 12.3568Q38.916 11.7718 39.492 11.7718Q40.068 11.7718 40.437 12.3568Q40.806 12.9418 40.806 14.2738Q40.806 15.6058 40.437 16.2088Z" />
    </g>
  </g>
</svg>