<?xml version="1.0" encoding="UTF-8"?>
<svg width="109px" height="81px" viewBox="0 0 109 81" version="1.1" xmlns="http://www.w3.org/2000/svg" xmlns:xlink="http://www.w3.org/1999/xlink">
    <!-- Generator: Sketch 55.2 (78181) - https://sketchapp.com -->
    <title>free</title>
    <desc>Created with Sketch.</desc>
    <g id="Landing-page-Webiny" stroke="none" stroke-width="1" fill="none" fill-rule="evenodd">
        <g id="Desktop-HD" transform="translate(-854.000000, -447.000000)">
            <g id="Header" transform="translate(-279.000000, -509.000000)">
                <g id="hero-section" transform="translate(537.922853, 691.880719)">
                    <g id="free" transform="translate(596.645557, 265.221360)">
                        <path d="M7.98984819,5.99896428 C49.9898482,6.66551332 70.9898482,24.6624062 70.9898482,59.9896428" id="New-shape" stroke="#FFFFFF" stroke-width="2" stroke-linecap="round" stroke-dasharray="3,6"></path>
                        <path d="M0.500014672,5.9968846 L0,5.4968846 L0.500014672,5.9968846 L0,6.4968846 L0.500014672,5.9968846 Z M0.500014672,5.9968846 L5.99914031,11.4958489 L0.500014672,5.9968846 L5.99914031,0.497920327 L0.500014672,5.9968846 Z" id="Combined-Shape" stroke="#FFFFFF" stroke-width="2" stroke-linecap="round"></path>
                        <path d="M29.3281314,78.987546 L29.3281314,77.295546 L31.8841314,77.295546 L31.8841314,69.771546 L29.7781314,69.771546 L29.7781314,68.475546 C30.9121314,68.259546 31.7041314,67.971546 32.4241314,67.539546 L33.9721314,67.539546 L33.9721314,77.295546 L36.2221314,77.295546 L36.2221314,78.987546 L29.3281314,78.987546 Z M41.8381314,79.203546 C39.4621314,79.203546 37.9501314,77.079546 37.9501314,73.209546 C37.9501314,69.339546 39.4621314,67.323546 41.8381314,67.323546 C44.2141314,67.323546 45.7261314,69.357546 45.7261314,73.209546 C45.7261314,77.079546 44.2141314,79.203546 41.8381314,79.203546 Z M41.8381314,77.583546 C42.9541314,77.583546 43.7461314,76.449546 43.7461314,73.209546 C43.7461314,69.969546 42.9541314,68.943546 41.8381314,68.943546 C40.7401314,68.943546 39.9301314,69.969546 39.9301314,73.209546 C39.9301314,76.449546 40.7401314,77.583546 41.8381314,77.583546 Z M51.0721314,79.203546 C48.6961314,79.203546 47.1841314,77.079546 47.1841314,73.209546 C47.1841314,69.339546 48.6961314,67.323546 51.0721314,67.323546 C53.4481314,67.323546 54.9601314,69.357546 54.9601314,73.209546 C54.9601314,77.079546 53.4481314,79.203546 51.0721314,79.203546 Z M51.0721314,77.583546 C52.1881314,77.583546 52.9801314,76.449546 52.9801314,73.209546 C52.9801314,69.969546 52.1881314,68.943546 51.0721314,68.943546 C49.9741314,68.943546 49.1641314,69.969546 49.1641314,73.209546 C49.1641314,76.449546 49.9741314,77.583546 51.0721314,77.583546 Z M59.0461314,74.451546 C57.3901314,74.451546 56.2381314,73.083546 56.2381314,70.707546 C56.2381314,68.349546 57.3901314,66.999546 59.0461314,66.999546 C60.7021314,66.999546 61.8541314,68.349546 61.8541314,70.707546 C61.8541314,73.083546 60.7021314,74.451546 59.0461314,74.451546 Z M59.0461314,73.245546 C59.8021314,73.245546 60.3601314,72.471546 60.3601314,70.707546 C60.3601314,68.943546 59.8021314,68.205546 59.0461314,68.205546 C58.2901314,68.205546 57.7321314,68.943546 57.7321314,70.707546 C57.7321314,72.471546 58.2901314,73.245546 59.0461314,73.245546 Z M59.4241314,79.203546 L65.8501314,66.999546 L67.1101314,66.999546 L60.7021314,79.203546 L59.4241314,79.203546 Z M67.4881314,79.203546 C65.8321314,79.203546 64.6801314,77.835546 64.6801314,75.459546 C64.6801314,73.101546 65.8321314,71.751546 67.4881314,71.751546 C69.1441314,71.751546 70.2961314,73.101546 70.2961314,75.459546 C70.2961314,77.835546 69.1441314,79.203546 67.4881314,79.203546 Z M67.4881314,77.997546 C68.2441314,77.997546 68.8021314,77.223546 68.8021314,75.459546 C68.8021314,73.695546 68.2441314,72.957546 67.4881314,72.957546 C66.7321314,72.957546 66.1741314,73.695546 66.1741314,75.459546 C66.1741314,77.223546 66.7321314,77.997546 67.4881314,77.997546 Z M75.9301314,78.987546 L75.9301314,67.215546 L83.0401314,67.215546 L83.0401314,68.979546 L78.0181314,68.979546 L78.0181314,72.309546 L82.3021314,72.309546 L82.3021314,74.073546 L78.0181314,74.073546 L78.0181314,78.987546 L75.9301314,78.987546 Z M84.5701314,78.987546 L84.5701314,70.149546 L86.2801314,70.149546 L86.4241314,71.715546 L86.4961314,71.715546 C87.1261314,70.563546 88.0621314,69.933546 88.9981314,69.933546 C89.4481314,69.933546 89.7361314,69.987546 90.0061314,70.113546 L89.6461314,71.913546 C89.3401314,71.823546 89.1061314,71.769546 88.7281314,71.769546 C88.0261314,71.769546 87.1801314,72.255546 86.6401314,73.587546 L86.6401314,78.987546 L84.5701314,78.987546 Z M94.8841314,79.203546 C92.4361314,79.203546 90.5281314,77.493546 90.5281314,74.577546 C90.5281314,71.697546 92.5261314,69.933546 94.5961314,69.933546 C96.9901314,69.933546 98.2501314,71.661546 98.2501314,74.127546 C98.2501314,74.523546 98.2141314,74.919546 98.1601314,75.135546 L92.5441314,75.135546 C92.7241314,76.701546 93.7321314,77.601546 95.1541314,77.601546 C95.9101314,77.601546 96.5581314,77.367546 97.2061314,76.953546 L97.9081314,78.249546 C97.0621314,78.807546 96.0001314,79.203546 94.8841314,79.203546 Z M92.5261314,73.731546 L96.4501314,73.731546 C96.4501314,72.363546 95.8561314,71.535546 94.6501314,71.535546 C93.6061314,71.535546 92.7061314,72.309546 92.5261314,73.731546 Z M104.010131,79.203546 C101.562131,79.203546 99.6541314,77.493546 99.6541314,74.577546 C99.6541314,71.697546 101.652131,69.933546 103.722131,69.933546 C106.116131,69.933546 107.376131,71.661546 107.376131,74.127546 C107.376131,74.523546 107.340131,74.919546 107.286131,75.135546 L101.670131,75.135546 C101.850131,76.701546 102.858131,77.601546 104.280131,77.601546 C105.036131,77.601546 105.684131,77.367546 106.332131,76.953546 L107.034131,78.249546 C106.188131,78.807546 105.126131,79.203546 104.010131,79.203546 Z M101.652131,73.731546 L105.576131,73.731546 C105.576131,72.363546 104.982131,71.535546 103.776131,71.535546 C102.732131,71.535546 101.832131,72.309546 101.652131,73.731546 Z" id="100%Free" fill="#FFFFFF" fill-rule="nonzero"></path>
                    </g>
                </g>
            </g>
        </g>
    </g>
</svg>