<svg width="109" height="85" viewBox="0 0 109 85" fill="none" xmlns="http://www.w3.org/2000/svg">
<g clip-path="url(#clip0)">
<path d="M1.56812 6.10107C1.56812 6.10107 70.5582 7.10089 70.5582 60.0918" stroke="white" stroke-width="2" stroke-linecap="round" stroke-dasharray="3 6"/>
<path d="M7.27462 -0.604985L6.5675 0.102112V0.102112L7.27462 -0.604985ZM7.2746 0.809229L7.98169 1.51635V1.51635L7.2746 0.809229ZM5.8604 -0.605005L5.15331 -1.31212L5.8604 -0.605005ZM-0.138322 5.39354L0.568328 6.10111L0.568775 6.10066L-0.138322 5.39354ZM-0.138737 5.39396L0.555857 6.11336L0.562013 6.10742L0.568065 6.10137L-0.138737 5.39396ZM-0.138758 5.39398L-0.833352 4.67458L-0.839667 4.68068L-0.845874 4.68688L-0.138758 5.39398ZM-0.26688 5.55083L0.567621 6.10184H0.567621L-0.26688 5.55083ZM-0.138758 6.80817L-0.845875 7.51527L-0.209416 8.15175L0.490292 7.58554L-0.138758 6.80817ZM5.8604 12.8072L5.15331 13.5143L5.15331 13.5143L5.8604 12.8072ZM7.27462 12.8071L6.5675 12.1L6.5675 12.1L7.27462 12.8071ZM7.2746 11.3929L7.98169 10.6858L7.2746 11.3929ZM1.98259 6.10108L1.2755 5.39396L0.568359 6.10108L1.2755 6.80819L1.98259 6.10108ZM-0.138737 6.80819L0.568065 6.10078L-0.845895 7.51525L-0.138737 6.80819ZM6.5675 0.102112V0.102112L7.98169 1.51635C8.76275 0.735309 8.76277 -0.531021 7.98173 -1.31208L6.5675 0.102112ZM6.5675 0.102112V0.102112L7.98173 -1.31208C7.2007 -2.09314 5.93437 -2.09316 5.15331 -1.31212L6.5675 0.102112ZM0.568775 6.10066L6.5675 0.102112L5.15331 -1.31212L-0.845418 4.68643L0.568775 6.10066ZM-0.844972 4.68598L-0.845539 4.68655L0.568065 6.10137L0.568328 6.10111L-0.844972 4.68598ZM-0.833332 4.67456C-0.837503 4.67859 -0.840827 4.68187 -0.842781 4.6838C-0.843789 4.6848 -0.8446 4.68561 -0.845088 4.6861C-0.845338 4.68635 -0.84554 4.68655 -0.845662 4.68667C-0.845725 4.68673 -0.845775 4.68678 -0.845806 4.68681C-0.845821 4.68683 -0.845834 4.68684 -0.845842 4.68685C-0.845846 4.68685 -0.845849 4.68686 -0.845851 4.68686C-0.845852 4.68686 -0.845853 4.68686 -0.845853 4.68686C-0.845854 4.68686 -0.845854 4.68686 -0.845854 4.68686C-0.845854 4.68686 -0.845854 4.68686 -0.845854 4.68686C-0.846116 4.68712 -0.844585 4.68559 -0.842792 4.68381C-0.840841 4.68188 -0.83752 4.6786 -0.833352 4.67458L0.555837 6.11338C0.560008 6.10935 0.563332 6.10607 0.565287 6.10414C0.566294 6.10314 0.567106 6.10233 0.567594 6.10184C0.567843 6.10159 0.568045 6.10139 0.568168 6.10127C0.56823 6.10121 0.56828 6.10115 0.568311 6.10112C0.568327 6.10111 0.568339 6.1011 0.568347 6.10109C0.568351 6.10108 0.568354 6.10108 0.568356 6.10108C0.568357 6.10108 0.568358 6.10108 0.568359 6.10108C0.568359 6.10108 0.568359 6.10108 0.568359 6.10108C0.568359 6.10108 0.568359 6.10108 0.568359 6.10108C0.568621 6.10081 0.56709 6.10235 0.565297 6.10413C0.563346 6.10606 0.560025 6.10934 0.555857 6.11336L-0.833332 4.67456ZM-0.845874 4.68688C-0.942563 4.78357 -1.02789 4.88852 -1.10138 4.99982L0.567621 6.10184C0.567343 6.10226 0.567432 6.102 0.568359 6.10108L-0.845874 4.68688ZM0.568359 6.10108C0.567082 6.0998 0.567561 6.1 0.568151 6.10127C0.568544 6.10212 0.568448 6.10229 0.568385 6.10164C0.568173 6.09942 0.569006 6.09974 0.567621 6.10184L-1.10138 4.99982C-1.61418 5.77646 -1.53011 6.83101 -0.845875 7.51527L0.568359 6.10108ZM0.490292 7.58554L7.90365 1.58659L6.64555 0.031864L-0.767808 6.03081L0.490292 7.58554ZM-0.845418 7.51573L5.15331 13.5143L6.5675 12.1L0.568775 6.10149L-0.845418 7.51573ZM5.15331 13.5143C5.93437 14.2953 7.2007 14.2953 7.98173 13.5142L6.5675 12.1V12.1L5.15331 13.5143ZM7.98173 13.5142C8.76277 12.7332 8.76275 11.4668 7.98169 10.6858L6.5675 12.1L6.5675 12.1L7.98173 13.5142ZM7.98169 10.6858L2.68969 5.39396L1.2755 6.80819L6.5675 12.1L7.98169 10.6858ZM6.5675 0.102112L1.2755 5.39396L2.68969 6.80819L7.98169 1.51635L6.5675 0.102112ZM6.6455 0.0319044L-0.767421 6.03128L0.490778 7.58593L7.9037 1.58655L6.6455 0.0319044ZM0.568328 6.10105L0.568065 6.10078L-0.845539 7.5156L-0.844972 7.51617L0.568328 6.10105ZM-0.845895 7.51525L-0.845479 7.51566L0.568836 6.10155L0.56842 6.10114L-0.845895 7.51525Z" fill="white"/>
<path d="M28.8965 79.0897V77.3977H31.4525V69.8737H29.3465V68.5777C29.9225 68.4697 30.4145 68.3437 30.8225 68.1997C31.2425 68.0437 31.6325 67.8577 31.9925 67.6417H33.5405V77.3977H35.7905V79.0897H28.8965ZM41.401 79.3057C40.201 79.3057 39.253 78.7957 38.557 77.7757C37.861 76.7437 37.513 75.2557 37.513 73.3117C37.513 71.3677 37.861 69.9037 38.557 68.9197C39.253 67.9237 40.201 67.4257 41.401 67.4257C42.601 67.4257 43.549 67.9237 44.245 68.9197C44.941 69.9157 45.289 71.3797 45.289 73.3117C45.289 75.2557 44.941 76.7437 44.245 77.7757C43.549 78.7957 42.601 79.3057 41.401 79.3057ZM41.401 77.6857C41.677 77.6857 41.929 77.6137 42.157 77.4697C42.397 77.3137 42.601 77.0617 42.769 76.7137C42.937 76.3657 43.069 75.9157 43.165 75.3637C43.261 74.8117 43.309 74.1277 43.309 73.3117C43.309 72.5077 43.261 71.8357 43.165 71.2957C43.069 70.7437 42.937 70.2997 42.769 69.9637C42.601 69.6277 42.397 69.3937 42.157 69.2617C41.929 69.1177 41.677 69.0457 41.401 69.0457C41.125 69.0457 40.867 69.1177 40.627 69.2617C40.399 69.3937 40.201 69.6277 40.033 69.9637C39.865 70.2997 39.733 70.7437 39.637 71.2957C39.541 71.8357 39.493 72.5077 39.493 73.3117C39.493 74.1277 39.541 74.8117 39.637 75.3637C39.733 75.9157 39.865 76.3657 40.033 76.7137C40.201 77.0617 40.399 77.3137 40.627 77.4697C40.867 77.6137 41.125 77.6857 41.401 77.6857ZM50.6295 79.3057C49.4295 79.3057 48.4815 78.7957 47.7855 77.7757C47.0895 76.7437 46.7415 75.2557 46.7415 73.3117C46.7415 71.3677 47.0895 69.9037 47.7855 68.9197C48.4815 67.9237 49.4295 67.4257 50.6295 67.4257C51.8295 67.4257 52.7775 67.9237 53.4735 68.9197C54.1695 69.9157 54.5175 71.3797 54.5175 73.3117C54.5175 75.2557 54.1695 76.7437 53.4735 77.7757C52.7775 78.7957 51.8295 79.3057 50.6295 79.3057ZM50.6295 77.6857C50.9055 77.6857 51.1575 77.6137 51.3855 77.4697C51.6255 77.3137 51.8295 77.0617 51.9975 76.7137C52.1655 76.3657 52.2975 75.9157 52.3935 75.3637C52.4895 74.8117 52.5375 74.1277 52.5375 73.3117C52.5375 72.5077 52.4895 71.8357 52.3935 71.2957C52.2975 70.7437 52.1655 70.2997 51.9975 69.9637C51.8295 69.6277 51.6255 69.3937 51.3855 69.2617C51.1575 69.1177 50.9055 69.0457 50.6295 69.0457C50.3535 69.0457 50.0955 69.1177 49.8555 69.2617C49.6275 69.3937 49.4295 69.6277 49.2615 69.9637C49.0935 70.2997 48.9615 70.7437 48.8655 71.2957C48.7695 71.8357 48.7215 72.5077 48.7215 73.3117C48.7215 74.1277 48.7695 74.8117 48.8655 75.3637C48.9615 75.9157 49.0935 76.3657 49.2615 76.7137C49.4295 77.0617 49.6275 77.3137 49.8555 77.4697C50.0955 77.6137 50.3535 77.6857 50.6295 77.6857ZM58.598 74.5537C57.77 74.5537 57.092 74.2297 56.564 73.5817C56.048 72.9217 55.79 71.9977 55.79 70.8097C55.79 69.6217 56.048 68.7097 56.564 68.0737C57.092 67.4257 57.77 67.1017 58.598 67.1017C59.426 67.1017 60.098 67.4257 60.614 68.0737C61.142 68.7097 61.406 69.6217 61.406 70.8097C61.406 71.9977 61.142 72.9217 60.614 73.5817C60.098 74.2297 59.426 74.5537 58.598 74.5537ZM58.598 73.3477C58.982 73.3477 59.294 73.1497 59.534 72.7537C59.786 72.3457 59.912 71.6977 59.912 70.8097C59.912 69.9217 59.786 69.2857 59.534 68.9017C59.294 68.5057 58.982 68.3077 58.598 68.3077C58.214 68.3077 57.896 68.5057 57.644 68.9017C57.404 69.2857 57.284 69.9217 57.284 70.8097C57.284 71.6977 57.404 72.3457 57.644 72.7537C57.896 73.1497 58.214 73.3477 58.598 73.3477ZM58.958 79.3057L65.384 67.1017H66.644L60.236 79.3057H58.958ZM67.04 79.3057C66.212 79.3057 65.534 78.9817 65.006 78.3337C64.49 77.6737 64.232 76.7497 64.232 75.5617C64.232 74.3737 64.49 73.4617 65.006 72.8257C65.534 72.1777 66.212 71.8537 67.04 71.8537C67.868 71.8537 68.54 72.1777 69.056 72.8257C69.584 73.4617 69.848 74.3737 69.848 75.5617C69.848 76.7497 69.584 77.6737 69.056 78.3337C68.54 78.9817 67.868 79.3057 67.04 79.3057ZM67.04 78.0997C67.424 78.0997 67.736 77.9017 67.976 77.5057C68.228 77.0977 68.354 76.4497 68.354 75.5617C68.354 74.6737 68.228 74.0377 67.976 73.6537C67.736 73.2577 67.424 73.0597 67.04 73.0597C66.656 73.0597 66.338 73.2577 66.086 73.6537C65.846 74.0377 65.726 74.6737 65.726 75.5617C65.726 76.4497 65.846 77.0977 66.086 77.5057C66.338 77.9017 66.656 78.0997 67.04 78.0997ZM75.4823 79.0897V67.3177H82.5923V69.0817H77.5703V72.4117H81.8543V74.1757H77.5703V79.0897H75.4823ZM84.1265 79.0897V70.2517H85.8365L85.9805 71.8177H86.0525C86.3645 71.2417 86.7425 70.8037 87.1865 70.5037C87.6305 70.1917 88.0865 70.0357 88.5545 70.0357C88.9745 70.0357 89.3105 70.0957 89.5625 70.2157L89.2025 72.0157C89.0465 71.9677 88.9025 71.9317 88.7705 71.9077C88.6385 71.8837 88.4765 71.8717 88.2845 71.8717C87.9365 71.8717 87.5705 72.0097 87.1865 72.2857C86.8025 72.5497 86.4725 73.0177 86.1965 73.6897V79.0897H84.1265ZM94.4456 79.3057C93.8336 79.3057 93.2636 79.2037 92.7356 78.9997C92.2076 78.7837 91.7456 78.4777 91.3496 78.0817C90.9536 77.6857 90.6416 77.2057 90.4136 76.6417C90.1976 76.0657 90.0896 75.4117 90.0896 74.6797C90.0896 73.9597 90.2036 73.3117 90.4316 72.7357C90.6596 72.1597 90.9596 71.6737 91.3316 71.2777C91.7156 70.8817 92.1536 70.5757 92.6456 70.3597C93.1376 70.1437 93.6416 70.0357 94.1576 70.0357C94.7576 70.0357 95.2856 70.1377 95.7416 70.3417C96.1976 70.5457 96.5756 70.8337 96.8756 71.2057C97.1876 71.5777 97.4216 72.0217 97.5776 72.5377C97.7336 73.0537 97.8116 73.6177 97.8116 74.2297C97.8116 74.4337 97.7996 74.6257 97.7756 74.8057C97.7636 74.9857 97.7456 75.1297 97.7216 75.2377H92.1056C92.2016 76.0297 92.4776 76.6417 92.9336 77.0737C93.4016 77.4937 93.9956 77.7037 94.7156 77.7037C95.0996 77.7037 95.4536 77.6497 95.7776 77.5417C96.1136 77.4217 96.4436 77.2597 96.7676 77.0557L97.4696 78.3517C97.0496 78.6277 96.5816 78.8557 96.0656 79.0357C95.5496 79.2157 95.0096 79.3057 94.4456 79.3057ZM92.0876 73.8337H96.0116C96.0116 73.1497 95.8616 72.6157 95.5616 72.2317C95.2736 71.8357 94.8236 71.6377 94.2116 71.6377C93.6836 71.6377 93.2216 71.8237 92.8256 72.1957C92.4296 72.5677 92.1836 73.1137 92.0876 73.8337ZM103.569 79.3057C102.957 79.3057 102.387 79.2037 101.859 78.9997C101.331 78.7837 100.869 78.4777 100.473 78.0817C100.077 77.6857 99.7646 77.2057 99.5366 76.6417C99.3206 76.0657 99.2126 75.4117 99.2126 74.6797C99.2126 73.9597 99.3266 73.3117 99.5546 72.7357C99.7826 72.1597 100.083 71.6737 100.455 71.2777C100.839 70.8817 101.277 70.5757 101.769 70.3597C102.261 70.1437 102.765 70.0357 103.281 70.0357C103.881 70.0357 104.409 70.1377 104.865 70.3417C105.321 70.5457 105.699 70.8337 105.999 71.2057C106.311 71.5777 106.545 72.0217 106.701 72.5377C106.857 73.0537 106.935 73.6177 106.935 74.2297C106.935 74.4337 106.923 74.6257 106.899 74.8057C106.887 74.9857 106.869 75.1297 106.845 75.2377H101.229C101.325 76.0297 101.601 76.6417 102.057 77.0737C102.525 77.4937 103.119 77.7037 103.839 77.7037C104.223 77.7037 104.577 77.6497 104.901 77.5417C105.237 77.4217 105.567 77.2597 105.891 77.0557L106.593 78.3517C106.173 78.6277 105.705 78.8557 105.189 79.0357C104.673 79.2157 104.133 79.3057 103.569 79.3057ZM101.211 73.8337H105.135C105.135 73.1497 104.985 72.6157 104.685 72.2317C104.397 71.8357 103.947 71.6377 103.335 71.6377C102.807 71.6377 102.345 71.8237 101.949 72.1957C101.553 72.5677 101.307 73.1137 101.211 73.8337Z" fill="white"/>
</g>
<defs>
<clipPath id="clip0">
<rect x="0.568359" y="0.102112" width="107.571" height="83.9856" fill="white"/>
</clipPath>
</defs>
</svg>
