<svg width="927" height="112" viewBox="0 0 927 112" fill="none" xmlns="http://www.w3.org/2000/svg">
<path fill-rule="evenodd" clip-rule="evenodd" d="M573.841 110.875C573.841 110.875 602.308 107.864 634.332 107.863C666.357 107.862 702.322 110.864 702.322 110.864C702.322 110.864 718.57 112.112 702.322 111.862C686.075 111.611 679.826 110.362 647.83 110.362C615.835 110.362 573.841 110.875 573.841 110.875Z" fill="white"/>
<path d="M2.92285 2.88077C7.1073 2.88077 24.2397 10.0458 25.6309 10.7026C31.2225 13.342 37.8222 16.7862 42.8154 16.7862" stroke="white" stroke-opacity="0.180392" stroke-width="5" stroke-linecap="round"/>
<path d="M10.3329 45.7512C10.9908 45.7512 13.1073 46.5823 16.2782 47.0809C19.449 47.5796 19.4807 46.9147 23.4125 47.0809C27.3442 47.2471 29.0268 47.7458 31.6089 47.7458" stroke="white" stroke-opacity="0.180392" stroke-width="5" stroke-linecap="round"/>
<path d="M5.56104 93.541C11.5001 89.9086 12.2307 90.4953 14.032 89.5355C17.3627 87.7608 20.6759 86.5795 24.1383 85.3655C29.3479 83.5389 35.4741 81.0133 40.3576 79.3239" stroke="white" stroke-opacity="0.180392" stroke-width="5" stroke-linecap="round"/>
<path d="M923.689 11.8792C919.505 11.8792 902.372 19.0443 900.981 19.701C895.389 22.3405 888.79 25.7847 883.796 25.7847" stroke="white" stroke-opacity="0.180392" stroke-width="5" stroke-linecap="round"/>
<path d="M912.483 58.7489C911.825 58.7489 909.708 59.5801 906.537 60.0787C903.367 60.5773 903.335 59.9125 899.403 60.0787C895.471 60.2449 893.789 60.7435 891.207 60.7435" stroke="white" stroke-opacity="0.180392" stroke-width="5" stroke-linecap="round"/>
<path d="M921.231 102.539C915.292 98.907 914.562 99.4937 912.76 98.5339C909.43 96.7592 906.116 95.5779 902.654 94.364C897.444 92.5373 891.318 90.0117 886.435 88.3223" stroke="white" stroke-opacity="0.180392" stroke-width="5" stroke-linecap="round"/>
</svg>
