<svg width="1440" height="988" viewBox="0 0 1440 988" fill="none" xmlns="http://www.w3.org/2000/svg">
<path fill-rule="evenodd" clip-rule="evenodd" d="M-40.3264 -126.065C-40.3264 -130.483 -36.7447 -134.065 -32.3264 -134.065H1474.46C1478.88 -134.065 1482.46 -130.483 1482.46 -126.065V479.706C1482.46 481.056 1482.82 482.374 1483.18 483.674C1485.67 492.562 1485.95 529.403 1319.21 528.465C1129.65 527.398 947.342 610.807 721.535 610.807C494.392 610.807 318.463 528.076 120.665 527.81C-49.6244 527.58 -46.0264 493.617 -41.732 484.174C-40.9772 482.515 -40.3264 480.77 -40.3264 478.946V-126.065Z" fill="url(#paint0_linear)"/>
<path fill-rule="evenodd" clip-rule="evenodd" d="M221.582 109.933L-2.33104 135.277C-23.5213 137.673 -44.6465 128.218 -57.7511 110.474L-196.215 -77.0494C-209.319 -94.7973 -212.41 -118.136 -204.323 -138.28L-118.871 -351.145C-110.784 -371.289 -92.7495 -385.177 -71.5596 -387.573L152.357 -412.915C173.548 -415.315 194.673 -405.86 207.777 -388.112L346.237 -200.591C359.342 -182.846 362.432 -159.504 354.346 -139.36L268.894 73.5048C260.807 93.649 242.773 107.533 221.582 109.933V109.933Z" fill="white" fill-opacity="0.0392157"/>
<path opacity="0.7" fill-rule="evenodd" clip-rule="evenodd" d="M841.529 530.98L736.633 591.061C726.706 596.745 714.475 596.745 704.548 591.061L599.65 530.98C589.723 525.294 583.608 514.788 583.608 503.417V383.256C583.608 371.885 589.723 361.377 599.65 355.693L704.548 295.612C714.475 289.926 726.706 289.926 736.633 295.612L841.529 355.693C851.457 361.377 857.572 371.885 857.572 383.256V503.417C857.572 514.788 851.457 525.294 841.529 530.98V530.98Z" fill="white" fill-opacity="0.0509804"/>
<path fill-rule="evenodd" clip-rule="evenodd" d="M825.952 696.903L620.35 694.668C600.893 694.455 582.8 683.435 572.884 665.758L468.12 478.954C458.207 461.274 457.977 439.627 467.52 422.16L568.362 237.592C577.904 220.126 595.769 209.496 615.226 209.709L820.831 211.945C840.289 212.155 858.383 223.175 868.297 240.855L973.057 427.657C982.974 445.335 983.202 466.985 973.659 484.451L872.817 669.019C863.274 686.485 845.411 697.113 825.952 696.903V696.903Z" fill="white" fill-opacity="0.0313726"/>
<path fill-rule="evenodd" clip-rule="evenodd" d="M1058.32 572.043L847.637 785.147C827.697 805.313 798.9 813.444 772.089 806.479L488.789 732.853C461.977 725.883 441.23 704.879 434.358 677.744L361.744 391.013C354.873 363.878 362.921 334.739 382.861 314.574L593.548 101.468C613.486 81.2987 642.284 73.1677 669.095 80.137L952.391 153.764C979.202 160.729 999.95 181.738 1006.82 208.872L1079.44 495.604C1086.31 522.738 1078.26 551.874 1058.32 572.043V572.043Z" fill="white" fill-opacity="0.0313726"/>
<path fill-rule="evenodd" clip-rule="evenodd" d="M595.891 836.797C562.202 840.607 528.617 825.576 507.783 797.365L287.649 499.236C266.817 471.02 261.903 433.916 274.759 401.89L410.613 63.4721C423.469 31.4464 452.142 9.36803 485.83 5.5584L841.817 -34.7312C875.508 -38.546 909.093 -23.515 929.926 4.70102L1150.05 302.827C1170.89 331.038 1175.8 368.147 1162.94 400.173L1027.09 738.591C1014.23 770.617 985.564 792.691 951.873 796.505L595.891 836.797Z" fill="white" fill-opacity="0.0196078"/>
<path fill-rule="evenodd" clip-rule="evenodd" d="M783.03 387.035C775.05 409.372 767.013 431.764 758.978 454.181H756.428C748.42 431.71 740.384 409.263 732.376 386.846H707.391C699.273 409.509 691.238 431.954 683.203 454.428H680.871C672.726 431.736 664.581 409.046 656.708 387.144H626.87C641.379 428.362 655.53 468.547 669.681 508.731H694.309L718.691 440.741H721.16C729.305 463.541 737.423 486.368 745.403 508.676H770.086C784.292 468.328 798.443 428.118 812.897 387.035H783.03V387.035Z" fill="white" fill-opacity="0.0509804"/>
<path fill-rule="evenodd" clip-rule="evenodd" d="M768.85 645.801H670.861V617.684C670.861 613.617 673.048 609.859 676.598 607.826L714.118 586.337C717.668 584.303 722.043 584.303 725.593 586.337L763.112 607.826C766.663 609.859 768.85 613.617 768.85 617.684V645.801Z" fill="#F6F4F8"/>
<rect x="709.858" y="596.809" width="19.9971" height="33.9941" rx="9.99857" stroke="url(#paint1_linear)"/>
<rect x="717.857" y="600.809" width="3.99943" height="8.99845" rx="1.99971" stroke="url(#paint2_linear)"/>
<defs>
<linearGradient id="paint0_linear" x1="2247.07" y1="238.371" x2="1659.99" y2="-964.945" gradientUnits="userSpaceOnUse">
<stop stop-color="#9033EA"/>
<stop offset="1" stop-color="#483EB7"/>
</linearGradient>
<linearGradient id="paint1_linear" x1="730.412" y1="630.791" x2="728.359" y2="595.689" gradientUnits="userSpaceOnUse">
<stop stop-color="#EE7170"/>
<stop offset="1" stop-color="#8F3DDC"/>
</linearGradient>
<linearGradient id="paint2_linear" x1="722.295" y1="610.733" x2="722.508" y2="600.069" gradientUnits="userSpaceOnUse">
<stop stop-color="#EE7170"/>
<stop offset="1" stop-color="#8F3DDC"/>
</linearGradient>
</defs>
</svg>
