<svg width="1440" height="551" viewBox="0 0 1440 551" fill="none" xmlns="http://www.w3.org/2000/svg">
<path fill-rule="evenodd" clip-rule="evenodd" d="M-65.9995 11.3577L1482 96.4228L1481.99 460L-67 550L-65.9995 11.3577Z" fill="#F3F1F5"/>
<path d="M998 1C906.322 1 832 75.2761 832 166.902C832 258.527 906.322 332.803 998 332.803C1089.68 332.803 1164 258.527 1164 166.902C1164 75.2761 1089.68 1 998 1Z" stroke="#FA5A28" stroke-width="2"/>
<path d="M506.456 159C455.395 159 414 200.369 414 251.402C414 302.434 455.395 343.803 506.456 343.803C557.518 343.803 598.913 302.434 598.913 251.402C598.913 200.369 557.518 159 506.456 159Z" stroke="#7B39D9" stroke-width="2"/>
</svg>
