<?xml version="1.0" encoding="UTF-8"?>
<svg width="50px" height="50px" viewBox="0 0 50 50" version="1.1" xmlns="http://www.w3.org/2000/svg" xmlns:xlink="http://www.w3.org/1999/xlink">
    <!-- Generator: Sketch 52.5 (67469) - http://www.bohemiancoding.com/sketch -->
    <title>Icon cra</title>
    <desc>Created with Sketch.</desc>
    <g id="Home-v1" stroke="none" stroke-width="1" fill="none" fill-rule="evenodd">
        <g id="Main-page" transform="translate(-651.000000, -5379.000000)">
            <g id="Made-for-devs" transform="translate(72.000000, 3974.000000)">
                <g id="Features" transform="translate(205.000000, 1378.000000)">
                    <g id="Test-coverage" transform="translate(352.000000, 0.000000)">
                        <g id="Icon-cra" transform="translate(22.000000, 27.000000)">
                            <circle id="Oval-2" fill="#BFF1EB" cx="25" cy="25" r="25"></circle>
                            <g id="react-brands" transform="translate(7.000000, 10.000000)" fill="#00C7B1" fill-rule="nonzero">
                                <path d="M28.5878906,9.92578125 C28.21875,9.80273437 27.8496094,9.68652344 27.4804688,9.57714844 C27.5419922,9.32421875 27.5966797,9.07128906 27.6513672,8.81835937 C28.4921875,4.74414062 27.9384766,1.46972656 26.0722656,0.389648437 C24.2744141,-0.642578125 21.3417969,0.430664062 18.375,3.01464844 C18.0810547,3.26757812 17.7939453,3.53417969 17.5205078,3.80078125 C17.3359375,3.62304687 17.1445312,3.4453125 16.953125,3.27441406 C13.8427734,0.512695312 10.7255859,-0.649414063 8.859375,0.4375 C7.06835937,1.4765625 6.53515625,4.55957031 7.28710937,8.41503906 C7.36230469,8.79785156 7.44433594,9.17382812 7.54003906,9.55664062 C7.10253906,9.6796875 6.671875,9.81640625 6.26855469,9.95996094 C2.61816406,11.2246094 0,13.2207031 0,15.2851562 C0,17.4179688 2.7890625,19.5576172 6.58300781,20.8564453 C6.890625,20.9589844 7.19824219,21.0615234 7.51269531,21.1503906 C7.41015625,21.5605469 7.32128906,21.9638672 7.23925781,22.3808594 C6.52148437,26.1748047 7.08203125,29.1826172 8.87304687,30.2148437 C10.71875,31.28125 13.8222656,30.1875 16.84375,27.5419922 C17.0830078,27.3300781 17.3222656,27.1113281 17.5615234,26.8789062 C17.8623047,27.1728516 18.1767578,27.453125 18.4912109,27.7265625 C21.4169922,30.2421875 24.3085938,31.2607422 26.0927734,30.2285156 C27.9384766,29.1621094 28.5400391,25.9287109 27.7607422,21.9912109 C27.6992187,21.6904297 27.6308594,21.3828125 27.5556641,21.0683594 C27.7744141,21.0068359 27.9863281,20.9384766 28.1982422,20.8701172 C32.1425781,19.5644531 35,17.4521484 35,15.2851562 C35,13.2138672 32.3066406,11.2041016 28.5878906,9.92578125 Z M19.3388672,4.12207031 C21.8818359,1.90722656 24.2539062,1.0390625 25.3339844,1.66113281 C26.4892578,2.32421875 26.9335937,5.00390625 26.2089844,8.52441406 C26.1611328,8.75683594 26.1132812,8.98242187 26.0517578,9.20800781 C24.5341797,8.86621094 22.9960937,8.62011719 21.4511719,8.48339844 C20.5625,7.21191406 19.5917969,5.99511719 18.5390625,4.85351562 C18.8056641,4.60058594 19.0654297,4.36132812 19.3388672,4.12207031 Z M10.4521484,17.0488281 C10.7666016,17.6503906 11.0878906,18.2451172 11.4296875,18.8330078 C11.7783203,19.4277344 12.1337891,20.0224609 12.5097656,20.6035156 C11.4433594,20.4873047 10.3837891,20.3164062 9.33789062,20.0908203 C9.63867188,19.1064453 10.0146484,18.0878906 10.4521484,17.0488281 Z M10.4521484,13.5898437 C10.0214844,12.5712891 9.65917969,11.5732422 9.35839844,10.609375 C10.3427734,10.390625 11.3886719,10.2128906 12.4755859,10.0761719 C12.1132812,10.6435547 11.7578125,11.2246094 11.4228516,11.8125 C11.0878906,12.3935547 10.7597656,12.9882812 10.4521484,13.5898437 Z M11.2314453,15.3193359 C11.6826172,14.3759766 12.1748047,13.453125 12.6943359,12.5439453 C13.2138672,11.6347656 13.7744141,10.7529297 14.3623047,9.88476562 C15.3876953,9.80957031 16.4335938,9.76855469 17.5,9.76855469 C18.5664063,9.76855469 19.6191406,9.80957031 20.6376953,9.88476562 C21.21875,10.7460937 21.7724609,11.6279297 22.2988281,12.5302734 C22.8251953,13.4326172 23.3173828,14.3554687 23.7822266,15.2919922 C23.3242188,16.2353516 22.8320313,17.1650391 22.3056641,18.0810547 C21.7861328,18.9902344 21.2324219,19.8720703 20.6513672,20.7470703 C19.6328125,20.8222656 18.5732422,20.8564453 17.5,20.8564453 C16.4267578,20.8564453 15.3876953,20.8222656 14.3828125,20.7607422 C13.7880859,19.8925781 13.2275391,19.0039062 12.7011719,18.0947266 C12.1748047,17.1855469 11.6894531,16.2626953 11.2314453,15.3193359 Z M23.5771484,18.8193359 C23.9257812,18.2177734 24.2539062,17.609375 24.5751953,16.9941406 C25.0126953,17.9853516 25.3955078,18.9902344 25.7304688,20.0224609 C24.6708984,20.2617188 23.5976562,20.4462891 22.5175781,20.5693359 C22.8867188,19.9951172 23.2353516,19.4072266 23.5771484,18.8193359 Z M24.5615234,13.5898437 C24.2402344,12.9882812 23.9121094,12.3867187 23.5703125,11.7988281 C23.2353516,11.2177734 22.8867187,10.6435547 22.5244141,10.0761719 C23.625,10.2128906 24.6777344,10.3974609 25.6621094,10.6230469 C25.3476562,11.6347656 24.9785156,12.6191406 24.5615234,13.5898437 Z M17.5136719,5.89941406 C18.2314453,6.67871094 18.9082031,7.49902344 19.5371094,8.34667969 C18.1835938,8.28515625 16.8232422,8.28515625 15.4697266,8.34667969 C16.1396484,7.46484375 16.8300781,6.64453125 17.5136719,5.89941406 Z M9.58398438,1.70898438 C10.7324219,1.0390625 13.2822266,1.99609375 15.96875,4.375 C16.1396484,4.52539063 16.3105469,4.68945312 16.4882812,4.85351562 C15.4287109,5.99511719 14.4511719,7.21191406 13.5556641,8.48339844 C12.0107422,8.62011719 10.4794922,8.859375 8.96191406,9.19433594 C8.87304688,8.84570312 8.79785156,8.49023437 8.72265625,8.13476562 C8.08007812,4.82617187 8.50390625,2.33105469 9.58398438,1.70898438 Z M7.90917969,19.7285156 C7.62207031,19.6464844 7.34179688,19.5576172 7.06152344,19.4619141 C5.60546875,19.0039063 3.95117187,18.2792969 2.75488281,17.3291016 C2.06445312,16.8505859 1.59960937,16.1123047 1.46972656,15.2851563 C1.46972656,14.0341797 3.62988281,12.4345703 6.74707031,11.3476563 C7.13671875,11.2109375 7.53320312,11.0878906 7.9296875,10.9716797 C8.39453125,12.4550781 8.95507812,13.9111328 9.60449219,15.3193359 C8.94824219,16.7480469 8.38085938,18.2246094 7.90917969,19.7285156 Z M15.8798828,26.4277344 C14.7519531,27.4599609 13.4462891,28.2802734 12.0244141,28.8408203 C11.265625,29.203125 10.390625,29.2373047 9.61132812,28.9296875 C8.52441406,28.3007813 8.07324219,25.8876953 8.68847656,22.640625 C8.76367187,22.2578125 8.84570312,21.875 8.94140625,21.4990234 C10.4726562,21.8271484 12.0175781,22.0527344 13.5830078,22.1689453 C14.4853516,23.4472656 15.4765625,24.6708984 16.5361328,25.8193359 C16.3173828,26.03125 16.0986328,26.2363281 15.8798828,26.4277344 Z M17.5546875,24.7666016 C16.8574219,24.0146484 16.1601562,23.1806641 15.4833984,22.2851562 C16.1396484,22.3125 16.8164062,22.3261719 17.5,22.3261719 C18.2041016,22.3261719 18.8945312,22.3125 19.578125,22.2783203 C18.9492187,23.1464844 18.2724609,23.9736328 17.5546875,24.7666016 Z M26.4892578,26.8173828 C26.4277344,27.6513672 26.0175781,28.4306641 25.3613281,28.9570312 C24.2744141,29.5859375 21.9570312,28.765625 19.4550781,26.6191406 C19.1679687,26.3730469 18.8808594,26.1064453 18.5869141,25.8330078 C19.6328125,24.6777344 20.5966797,23.4541016 21.4716797,22.1689453 C23.0371094,22.0390625 24.5957031,21.7998047 26.1337891,21.4511719 C26.2021484,21.7314453 26.2636719,22.0117187 26.3183594,22.2851562 C26.6533203,23.7617187 26.7080078,25.2998047 26.4892578,26.8173828 Z M27.7333984,19.46875 C27.5419922,19.5302734 27.3505859,19.5917969 27.1523437,19.6464844 C26.6738281,18.15625 26.0859375,16.7001953 25.4091797,15.2851563 C26.0654297,13.890625 26.6191406,12.4550781 27.0839844,10.9853516 C27.4394531,11.0878906 27.78125,11.1972656 28.109375,11.3066406 C31.2949219,12.4003906 33.5302734,14.0273438 33.5302734,15.2714844 C33.5302734,16.6113281 31.1445312,18.3408203 27.7333984,19.46875 Z M17.5,12.1816406 C19.2294922,12.1816406 20.6308594,13.5830078 20.6308594,15.3125 C20.6308594,17.0419922 19.2294922,18.4433594 17.5,18.4433594 C15.7705078,18.4433594 14.3691406,17.0419922 14.3691406,15.3125 C14.3691406,13.5830078 15.7705078,12.1816406 17.5,12.1816406 Z" id="Shape"></path>
                            </g>
                        </g>
                    </g>
                </g>
            </g>
        </g>
    </g>
</svg>