<?xml version="1.0" encoding="UTF-8"?>
<svg width="50px" height="50px" viewBox="0 0 50 50" version="1.1" xmlns="http://www.w3.org/2000/svg" xmlns:xlink="http://www.w3.org/1999/xlink">
    <!-- Generator: Sketch 55.2 (78181) - https://sketchapp.com -->
    <title>headless</title>
    <desc>Created with Sketch.</desc>
    <g id="Icons" stroke="none" stroke-width="1" fill="none" fill-rule="evenodd">
        <g id="headless">
            <circle id="Oval-2" fill="#FDD6CA" fill-rule="nonzero" cx="25" cy="25" r="25"></circle>
            <g id="user-regular" transform="translate(11.000000, 25.000000)" fill="#F75B34" fill-rule="nonzero">
                <path d="M19.6,0 C17.80625,0 16.94375,1 14,1 C11.05625,1 10.2,0 8.4,0 C3.7625,0 0,3.7625 0,8.4 L0,10 C0,11.65625 1.34375,13 3,13 L25,13 C26.65625,13 28,11.65625 28,10 L28,8.4 C28,3.7625 24.2375,0 19.6,0 Z M25,10 L3,10 L3,8.4 C3,5.425 5.425,3 8.4,3 C9.3125,3 10.79375,4 14,4 C17.23125,4 18.68125,3 19.6,3 C22.575,3 25,5.425 25,8.4 L25,10 Z" id="Shape"></path>
            </g>
            <text id="API" font-family="SourceSansPro-Bold, Source Sans Pro" font-size="14" font-weight="bold" fill="#F75B34">
                <tspan x="15" y="20">API</tspan>
            </text>
        </g>
    </g>
</svg>