<?xml version="1.0" encoding="UTF-8"?>
<svg width="50px" height="50px" viewBox="0 0 50 50" version="1.1" xmlns="http://www.w3.org/2000/svg" xmlns:xlink="http://www.w3.org/1999/xlink">
    <!-- Generator: Sketch 50.2 (55047) - http://www.bohemiancoding.com/sketch -->
    <title>Icon</title>
    <desc>Created with Sketch.</desc>
    <defs></defs>
    <g id="Home-v1" stroke="none" stroke-width="1" fill="none" fill-rule="evenodd">
        <g id="Main-page" transform="translate(-298.000000, -3863.000000)">
            <g id="Made-for-devs" transform="translate(72.000000, 2829.000000)">
                <g id="Features" transform="translate(205.000000, 383.000000)">
                    <g id="Headless" transform="translate(0.000000, 624.000000)">
                        <g id="Icon" transform="translate(21.000000, 27.000000)">
                            <circle id="Oval-2" fill="#C5F2C1" cx="25" cy="25" r="25"></circle>
                            <g id="code" transform="translate(7.000000, 11.000000)" fill="#5FBA83" fill-rule="nonzero">
                                <path d="M16.4353678,29.9707792 L12.8410057,28.9335918 C12.4638923,28.8281151 12.251766,28.4355075 12.3578292,28.0604792 L20.4009508,0.507625624 C20.507014,0.132597416 20.9018045,-0.0783559503 21.2789179,0.0271207331 L24.87328,1.06430812 C25.2503934,1.1697848 25.4625197,1.56239246 25.3564565,1.93742067 L17.3133349,29.4902743 C17.2013794,29.8653025 16.8124812,30.0821157 16.4353678,29.9707792 Z M9.71803542,23.3960659 L12.281228,20.6771114 C12.5522783,20.3899804 12.5346011,19.9329148 12.2340889,19.6692231 L6.89557735,14.99895 L12.2340889,10.3286768 C12.5346011,10.0649851 12.5581707,9.60791947 12.281228,9.3207885 L9.71803542,6.601834 C9.45287757,6.32056284 9.00505541,6.30298339 8.71632797,6.57253492 L0.225384178,14.4832862 C-0.0751280592,14.7586975 -0.0751280592,15.2333426 0.225384178,15.5087539 L8.71632797,23.425365 C9.00505541,23.6949165 9.45287757,23.6831969 9.71803542,23.3960659 Z M28.9979577,23.4312248 L37.4889015,15.5146137 C37.7894138,15.2392024 37.7894138,14.7645573 37.4889015,14.489146 L28.9979577,6.5666751 C28.7151227,6.30298339 28.2673005,6.31470302 27.9962503,6.59597418 L25.4330577,9.31492869 C25.1620074,9.60205966 25.1796846,10.0591253 25.4801969,10.322817 L30.8187084,14.99895 L25.4801969,19.6692231 C25.1796846,19.9329148 25.156115,20.3899804 25.4330577,20.6771114 L27.9962503,23.3960659 C28.2614081,23.6831969 28.7092303,23.6949165 28.9979577,23.4312248 Z" id="Shape"></path>
                            </g>
                        </g>
                    </g>
                </g>
            </g>
        </g>
    </g>
</svg>