<?xml version="1.0" encoding="UTF-8"?>
<svg width="200px" height="138px" viewBox="0 0 200 138" version="1.1" xmlns="http://www.w3.org/2000/svg" xmlns:xlink="http://www.w3.org/1999/xlink">
    <!-- Generator: Sketch 52.5 (67469) - http://www.bohemiancoding.com/sketch -->
    <title>undraw_maker_launch_crhe</title>
    <desc>Created with Sketch.</desc>
    <defs>
        <linearGradient x1="49.9996956%" y1="99.9906158%" x2="49.9996956%" y2="-0.00256609128%" id="linearGradient-1">
            <stop stop-color="#808080" stop-opacity="0.25" offset="0%"></stop>
            <stop stop-color="#808080" stop-opacity="0.12" offset="54%"></stop>
            <stop stop-color="#808080" stop-opacity="0.1" offset="100%"></stop>
        </linearGradient>
    </defs>
    <g id="Home-v1" stroke="none" stroke-width="1" fill="none" fill-rule="evenodd">
        <g id="Main-page" transform="translate(-274.000000, -7809.000000)">
            <g id="Mission----as-a-developer-v2" transform="translate(274.000000, 7658.000000)">
                <g id="Quick-start" transform="translate(0.000000, 151.000000)">
                    <g id="undraw_maker_launch_crhe" transform="translate(0.000000, 0.000000)">
                        <path d="M1.70928196,72.5849387 C5.23992995,66.8178634 13.2241681,67.8231173 18.8861646,70.8336252 C24.5481611,73.8441331 30.1978984,78.3380035 36.4290718,77.474606 C41.6830123,76.7460595 45.9912434,72.1646235 48.3187391,66.8791594 C50.6462347,61.5936953 51.3292469,55.6339755 51.9842382,49.7968476 C52.8073555,42.4635143 53.6298891,35.1255108 54.4518389,27.7828371 C54.7530648,25.0980736 55.1085814,22.2644483 56.6182137,20.1401051 C58.6129597,17.3380035 62.2697023,16.4763573 65.3975482,17.3187391 C68.525394,18.1611208 71.1926445,20.4203152 73.474606,22.9404553 C80.7845884,31.0105079 84.9264448,41.9194396 91.3169877,50.9001751 C92.6182137,52.7285464 94.0875657,54.5359019 96.0315236,55.4185639 C98.8336252,56.6882662 102.050788,55.7898424 104.788091,54.3765324 C113.71979,49.7723292 119.71979,40.3765324 125.616462,31.6094571 C128.485114,27.3485114 131.982487,22.7915937 136.754816,22.3274956 C141.775832,21.8283713 146.134851,26.1068301 149.085814,30.6374781 C158.556918,45.2154116 160.58669,65.117338 172.028021,77.8318739 C173.448336,79.408056 175.015762,80.8651489 176.821366,81.8441331 C177.416847,82.165906 178.037728,82.4382735 178.677758,82.6584939 C188.660245,86.1138354 191.987741,99.9842382 184.604203,108.208406 C184.444834,108.383538 184.281961,108.558669 184.117338,108.7338 C183.021016,109.891419 181.779335,110.985989 180.297723,111.330998 C178.91944,111.649737 177.495622,111.281961 176.129597,110.884413 C167.397548,108.336252 158.770578,104.441331 149.742557,104.630473 C140.957968,104.805604 132.625219,108.863398 123.938704,110.323993 C118.098074,111.30648 112.155867,111.110333 106.250438,110.898424 C86.5820198,110.190893 66.9176883,109.367776 47.2574431,108.429072 C37.4991243,107.980736 27.737303,107.553415 17.9807356,107.054291 C10.4640981,106.663748 5.67600701,105.803853 4.80385289,97.0805604 C4.04028021,89.441331 -2.8178634,79.9824869 1.70928196,72.5849387 Z" id="Path" fill="#FF6347" opacity="0.1"></path>
                        <ellipse id="Oval" fill="#30374E" cx="138.511384" cy="131.267951" rx="47.2837128" ry="6.60770578"></ellipse>
                        <path d="M26.2241681,102.761821 C26.2241681,102.761821 28.5359019,102.236427 30.0507881,103.789842 C30.0507881,103.789842 29.0770578,104.665499 26.7863398,103.695271 L26.2241681,102.761821 Z" id="Path" fill="#FF6347"></path>
                        <path d="M25.9684764,102.739054 C25.9684764,102.739054 24.5989492,104.67951 25.4676007,106.670753 C25.4676007,106.670753 26.6514886,106.101576 26.6182137,103.614711 L25.9684764,102.739054 Z" id="Path" fill="#FF6347"></path>
                        <path d="M24.4273205,99.8143608 C24.4273205,99.8143608 25.2486865,98.0367776 29.1558669,100.185639 C29.1558669,100.185639 28.7355517,101.37303 27.0753065,101.390543 C25.4150613,101.408056 24.9176883,100.688266 24.4273205,99.8143608 Z" id="Path" fill="#FF6347"></path>
                        <path d="M24.178634,99.7057793 C24.178634,99.7057793 22.2224168,99.614711 22.3327496,104.070053 C22.3327496,104.070053 23.5814361,104.245184 24.3607706,102.777583 C25.1401051,101.309982 24.7267951,100.551664 24.178634,99.7057793 Z" id="Path" fill="#FF6347"></path>
                        <path d="M22.8161121,96.2381786 C22.8161121,96.2381786 23.6917688,93.1418564 27.8021016,95.033275 C27.8021016,95.033275 27.084063,97.8686515 23.2837128,97.2469352 L22.8161121,96.2381786 Z" id="Path" fill="#FF6347"></path>
                        <path d="M21.290718,91.8003503 C21.290718,91.8003503 23.1436077,88.6059545 26.9807356,91.1978984 C26.9807356,91.1978984 25.8966725,94.1523643 21.676007,92.8704028 L21.290718,91.8003503 Z" id="Path" fill="#FF6347"></path>
                        <path d="M20.5656743,87.5271454 C20.5656743,87.5271454 22.7775832,84.558669 26.5831874,87.1225919 C26.5831874,87.1225919 24.4711033,89.7390543 20.6129597,88.2434326 L20.5656743,87.5271454 Z" id="Path" fill="#FF6347"></path>
                        <path d="M19.910683,83.3730298 C19.910683,83.3730298 22.145359,80.2802102 25.793345,82.821366 C25.793345,82.821366 23.2224168,85.5936953 19.9562172,84.0595447 L19.910683,83.3730298 Z" id="Path" fill="#FF6347"></path>
                        <path d="M19.8791594,79.6497373 C19.8791594,79.6497373 22.1821366,75.704028 25.5971979,78.0437828 C25.5971979,78.0437828 23.0718039,81.4711033 19.9281961,80.3660245 L19.8791594,79.6497373 Z" id="Path" fill="#FF6347"></path>
                        <path d="M20.1891419,75.2749562 C20.1891419,75.2749562 22.6409807,71.352014 25.9842382,74.0175131 C25.9842382,74.0175131 22.9894921,77.4763573 20.2276708,75.9702277 L20.1891419,75.2749562 Z" id="Path" fill="#FF6347"></path>
                        <path d="M20.8248687,71.3415061 C20.8248687,71.3415061 23.8021016,67.6094571 26.7005254,68.8248687 C26.7005254,68.8248687 23.6042032,72.7828371 20.7460595,72.2854641 L20.8248687,71.3415061 Z" id="Path" fill="#FF6347"></path>
                        <path d="M21.7005254,67.5936953 C21.7005254,67.5936953 25.1225919,63.0402802 27.3695271,64.3327496 C27.3695271,64.3327496 24.8633975,67.8511384 21.4886165,68.4220665 L21.7005254,67.5936953 Z" id="Path" fill="#FF6347"></path>
                        <path d="M23.0350263,63.2259194 C23.0350263,63.2259194 26.0420315,59.4921191 28.4640981,60.206655 C28.4640981,60.206655 25.9334501,64.0402802 22.6672504,64.3537653 L23.0350263,63.2259194 Z" id="Path" fill="#FF6347"></path>
                        <path d="M24.234676,59.1436077 C24.234676,59.1436077 27.5936953,55.5359019 29.1926445,56.0227671 C29.1926445,56.0227671 26.854641,59.938704 24.1278459,59.9019264 L24.234676,59.1436077 Z" id="Path" fill="#FF6347"></path>
                        <path d="M25.4203152,55.3677758 C25.4203152,55.3677758 28.2381786,51.1383538 29.9422067,51.3397548 C29.9422067,51.3397548 28.3117338,55.0507881 25.4483363,55.7758319 L25.4203152,55.3677758 Z" id="Path" fill="#FF6347"></path>
                        <path d="M26.6444834,50.3047285 C26.6444834,50.3047285 29.1646235,47.0367776 30.6392294,46.9457093 C30.6392294,46.9457093 28.7635727,51.2084063 26.5989492,51.323993 L26.6444834,50.3047285 Z" id="Path" fill="#FF6347"></path>
                        <path d="M27.3450088,46.9404553 L29.5481611,40.3397548 C29.5481611,40.3397548 30.0735552,46.1366025 27.0963222,48.1541156 L27.3450088,46.9404553 Z" id="Path" fill="#FF6347"></path>
                        <path d="M27.938704,39.7845884 C27.938704,39.7845884 28.0157618,34.3922942 27.7057793,33.9754816 C27.7057793,33.9754816 29.8896673,38.3082312 28.0805604,42.1558669 L27.938704,39.7845884 Z" id="Path" fill="#FF6347"></path>
                        <path d="M22.704028,96.17338 C22.704028,96.17338 19.8563923,94.6637478 18.3660245,98.9281961 C18.3660245,98.9281961 20.9054291,100.378284 23.0945709,97.2101576 L22.704028,96.17338 Z" id="Path" fill="#FF6347"></path>
                        <path d="M21.1908932,91.6339755 C21.1908932,91.6339755 17.737303,90.3292469 16.4010508,94.765324 C16.4010508,94.765324 19.1103327,96.3677758 21.5691769,92.7057793 L21.1908932,91.6339755 Z" id="Path" fill="#FF6347"></path>
                        <path d="M20.4273205,87.7950963 C20.4273205,87.7950963 17.8371278,85.1488616 14.4098074,88.2031524 C14.4098074,88.2031524 16.8511384,90.5131349 20.474606,88.5166375 L20.4273205,87.7950963 Z" id="Path" fill="#FF6347"></path>
                        <path d="M19.8283713,83.380035 C19.8283713,83.380035 17.2014011,80.6112084 13.9246935,83.6182137 C13.9246935,83.6182137 16.8423818,86.0227671 19.8791594,84.0647986 L19.8283713,83.380035 Z" id="Path" fill="#FF6347"></path>
                        <path d="M19.8861646,79.7548161 C19.8861646,79.7548161 17.8966725,75.6444834 14.3117338,77.7110333 C14.3117338,77.7110333 16.5639229,81.323993 19.7828371,80.4676007 L19.8861646,79.7548161 Z" id="Path" fill="#FF6347"></path>
                        <path d="M20.3940455,75.2434326 C20.3940455,75.2434326 18.4098074,71.0577933 14.7793345,73.3047285 C14.7793345,73.3047285 17.3467601,77.089317 20.267951,75.9194396 L20.3940455,75.2434326 Z" id="Path" fill="#FF6347"></path>
                        <path d="M21.1873905,71.3380035 C21.1873905,71.3380035 20.1996497,66.6707531 17.0630473,66.4570928 C17.0630473,66.4570928 18.0577933,71.3835377 20.8301226,72.2154116 L21.1873905,71.3380035 Z" id="Path" fill="#FF6347"></path>
                        <path d="M21.7810858,67.5971979 C21.7810858,67.5971979 21.1383538,61.938704 18.5481611,61.9124343 C18.5481611,61.9124343 18.9246935,66.2154116 21.5446585,68.4185639 L21.7810858,67.5971979 Z" id="Path" fill="#FF6347"></path>
                        <path d="M23.2924694,63.0455342 C23.2924694,63.0455342 22.2049037,58.3765324 19.7075306,57.966725 C19.7075306,57.966725 20.3204904,62.5201401 23.1278459,64.2224168 L23.2924694,63.0455342 Z" id="Path" fill="#FF6347"></path>
                        <path d="M24.5288967,59.1576182 C24.5288967,59.1576182 24.178634,54.2416813 22.619965,53.619965 C22.619965,53.619965 21.9877408,58.1348511 24.1348511,59.8161121 L24.5288967,59.1576182 Z" id="Path" fill="#FF6347"></path>
                        <path d="M25.5323993,55.3064799 C25.5323993,55.3064799 24.9807356,50.2539405 23.3765324,49.6462347 C23.3765324,49.6462347 23.1138354,53.6900175 25.3204904,55.6532399 L25.5323993,55.3064799 Z" id="Path" fill="#FF6347"></path>
                        <path d="M26.8896673,50.6935201 C26.8896673,50.6935201 26.6024518,46.5761821 25.4273205,45.6830123 C25.4273205,45.6830123 24.6252189,50.2697023 26.3642732,51.5604203 L26.8896673,50.6935201 Z" id="Path" fill="#FF6347"></path>
                        <path d="M27.1943958,46.7460595 L25.6532399,39.9614711 C25.6532399,39.9614711 24.5621716,45.6777583 27.3292469,47.9789842 L27.1943958,46.7460595 Z" id="Path" fill="#FF6347"></path>
                        <path d="M26.9544658,39.915937 C26.9544658,39.915937 23.8669002,35.4886165 23.8914186,34.9737303 C23.8914186,34.9737303 24.5113835,39.7863398 28.1663748,41.9597198 L26.9544658,39.915937 Z" id="Path" fill="#FF6347"></path>
                        <path d="M27.1943958,38.5341506 C27.1943958,38.5341506 24.1366025,32.1611208 22.915937,31.704028 C22.915937,31.704028 26.7845884,33.3555166 27.4010508,38.323993 L27.1943958,38.5341506 Z" id="Path" fill="#FF6347"></path>
                        <path d="M26.5884413,51.357268 L26.41331,51.3134851 C28.1383538,43.9579685 28.3817863,39.3204904 27.0963222,38.2556918 L27.2154116,38.1120841 C28.5709282,39.2399299 28.357268,43.821366 26.5884413,51.357268 Z" id="Path" fill="#444053"></path>
                        <path d="M21.6357268,68.6357268 L21.3642732,68.5604203 C21.5551664,67.8844133 21.7618214,67.1961471 21.9824869,66.5183888 C23.9089317,60.6129597 25.5096322,55.1348511 26.4921191,50.9422067 L26.7145359,50.8108581 C25.7302977,55.0140105 24.17338,60.6935201 22.2504378,66.6042032 C22.0315236,67.2802102 21.8248687,67.9632224 21.6357268,68.6357268 Z" id="Path" fill="#444053"></path>
                        <path d="M29.8756567,107.935201 C29.8371278,107.898424 25.9842382,104.105079 23.0245184,97.385289 C21.2903514,93.4520025 20.1903165,89.2687963 19.765324,84.9912434 C19.2399299,79.6444834 19.9579685,73.5849387 21.5166375,68.0210158 L21.7408056,68.2521891 C18.2381786,80.7408056 20.6567426,91.0788091 23.357268,97.2189142 C26.2872154,103.873905 30.0963222,107.630473 30.1348511,107.66725 L29.8756567,107.935201 Z" id="Path" fill="#444053"></path>
                        <path d="M34.117338,87.9334501 C34.117338,87.9334501 35.5183888,87.6129597 36.4325744,88.5551664 C36.4325744,88.5551664 35.8423818,89.0805604 34.4588441,88.497373 L34.117338,87.9334501 Z" id="Path" fill="#FF6347"></path>
                        <path d="M33.9649737,87.9211909 C33.9649737,87.9211909 33.1383538,89.0945709 33.6637478,90.2977233 C33.6637478,90.2977233 34.3782837,89.9474606 34.3642732,88.4500876 L33.9649737,87.9211909 Z" id="Path" fill="#FF6347"></path>
                        <path d="M33.033275,86.150613 C33.033275,86.150613 33.5288967,85.0770578 35.8879159,86.3765324 C35.8879159,86.3765324 35.6339755,87.0928196 34.6304729,87.1033275 C33.6269702,87.1138354 33.3327496,86.6795096 33.033275,86.150613 Z" id="Path" fill="#FF6347"></path>
                        <path d="M32.882662,86.0858144 C32.882662,86.0858144 31.6987741,86.0315236 31.765324,88.7232925 C31.765324,88.7232925 32.5201401,88.8283713 32.9912434,87.9422067 C33.4623468,87.056042 33.2136602,86.5971979 32.882662,86.0858144 Z" id="Path" fill="#FF6347"></path>
                        <path d="M32.0542907,83.9894921 C32.0542907,83.9894921 32.591944,82.117338 35.0718039,83.2574431 C35.0718039,83.2574431 34.6392294,84.971979 32.3415061,84.5954466 L32.0542907,83.9894921 Z" id="Path" fill="#FF6347"></path>
                        <path d="M31.1366025,81.3064799 C31.1366025,81.3064799 32.2556918,79.380035 34.5761821,80.9422067 C34.5761821,80.9422067 33.9194396,82.7285464 31.3695271,81.9527145 L31.1366025,81.3064799 Z" id="Path" fill="#FF6347"></path>
                        <path d="M30.6970228,78.7232925 C30.6970228,78.7232925 32.0350263,76.9281961 34.3345009,78.4781086 C34.3345009,78.4781086 33.0595447,80.0542907 30.7267951,79.1558669 L30.6970228,78.7232925 Z" id="Path" fill="#FF6347"></path>
                        <path d="M30.3012259,76.2119089 C30.3012259,76.2119089 31.6532399,74.3415061 33.8581436,75.8791594 C33.8581436,75.8791594 32.3047285,77.5551664 30.3292469,76.6269702 L30.3012259,76.2119089 Z" id="Path" fill="#FF6347"></path>
                        <path d="M30.2837128,73.9597198 C30.2837128,73.9597198 31.6847636,71.5761821 33.7390543,72.9894921 C33.7390543,72.9894921 32.2119089,75.061296 30.3117338,74.3905429 L30.2837128,73.9597198 Z" id="Path" fill="#FF6347"></path>
                        <path d="M30.4658494,71.3169877 C30.4658494,71.3169877 31.9527145,68.943958 33.9684764,70.5499124 C33.9684764,70.5499124 32.1576182,72.6409807 30.4868651,71.7302977 L30.4658494,71.3169877 Z" id="Path" fill="#FF6347"></path>
                        <path d="M30.854641,68.938704 C30.854641,68.938704 32.6532399,66.6830123 34.4063047,67.4185639 C34.4063047,67.4185639 32.5341506,69.8108581 30.8108581,69.5096322 L30.854641,68.938704 Z" id="Path" fill="#FF6347"></path>
                        <path d="M31.3835377,66.6725044 C31.3835377,66.6725044 33.4518389,63.9211909 34.8108581,64.7005254 C34.8108581,64.7005254 33.295972,66.8283713 31.2556918,67.17338 L31.3835377,66.6725044 Z" id="Path" fill="#FF6347"></path>
                        <path d="M32.1908932,64.0350263 C32.1908932,64.0350263 34.0087566,61.7775832 35.4763573,62.2101576 C35.4763573,62.2101576 33.9474606,64.5271454 31.9737303,64.7162872 L32.1908932,64.0350263 Z" id="Path" fill="#FF6347"></path>
                        <path d="M32.915937,61.5639229 C32.915937,61.5639229 34.9457093,59.3835377 35.9124343,59.6777583 C35.9124343,59.6777583 34.5008757,62.0437828 32.8511384,62.0227671 L32.915937,61.5639229 Z" id="Path" fill="#FF6347"></path>
                        <path d="M33.6322242,59.2819615 C33.6322242,59.2819615 35.3362522,56.7250438 36.3660245,56.8441331 C36.3660245,56.8441331 35.3817863,59.0875657 33.6497373,59.5271454 L33.6322242,59.2819615 Z" id="Path" fill="#FF6347"></path>
                        <path d="M34.3747811,56.2206655 C34.3747811,56.2206655 35.8984238,54.2451839 36.7898424,54.1891419 C36.7898424,54.1891419 35.6549912,56.7670753 34.3467601,56.8318739 L34.3747811,56.2206655 Z" id="Path" fill="#FF6347"></path>
                        <path d="M34.7968476,54.1856392 L36.1260946,50.1996497 C36.1260946,50.1996497 36.441331,53.7022767 34.6392294,54.9281961 L34.7968476,54.1856392 Z" id="Path" fill="#FF6347"></path>
                        <path d="M35.1558669,49.8598949 C35.1558669,49.8598949 35.2014011,46.6007005 35.0140105,46.3485114 C35.0140105,46.3485114 36.3345009,48.966725 35.2399299,51.2942207 L35.1558669,49.8598949 Z" id="Path" fill="#FF6347"></path>
                        <path d="M31.9894921,83.9509632 C31.9894921,83.9509632 30.2697023,83.0367776 29.3625219,85.614711 C29.3625219,85.614711 30.8984238,86.4903678 32.2224168,84.5779335 L31.9894921,83.9509632 Z" id="Path" fill="#FF6347"></path>
                        <path d="M31.0770578,81.1978984 C31.0770578,81.1978984 28.9877408,80.4098074 28.1803853,83.0910683 C28.1803853,83.0910683 29.8178634,84.0595447 31.3047285,81.8476357 L31.0770578,81.1978984 Z" id="Path" fill="#FF6347"></path>
                        <path d="M30.6129597,78.8844133 C30.6129597,78.8844133 29.0490368,77.2854641 26.9754816,79.1295972 C26.9754816,79.1295972 28.4518389,80.530648 30.642732,79.3187391 L30.6129597,78.8844133 Z" id="Path" fill="#FF6347"></path>
                        <path d="M30.2521891,76.2154116 C30.2521891,76.2154116 28.6637478,74.5429072 26.6830123,76.3607706 C26.6830123,76.3607706 28.4465849,77.8126095 30.2802102,76.6304729 L30.2521891,76.2154116 Z" id="Path" fill="#FF6347"></path>
                        <path d="M30.2872154,74.0175131 C30.2872154,74.0175131 29.084063,71.5323993 26.915937,72.7810858 C26.915937,72.7810858 28.2784588,74.9649737 30.2241681,74.4483363 L30.2872154,74.0175131 Z" id="Path" fill="#FF6347"></path>
                        <path d="M30.5936953,71.2942207 C30.5936953,71.2942207 29.3940455,68.7635727 27.1943958,70.1225919 C27.1943958,70.1225919 28.7460595,72.4115587 30.5131349,71.6987741 L30.5936953,71.2942207 Z" id="Path" fill="#FF6347"></path>
                        <path d="M31.0735552,68.938704 C31.0735552,68.938704 30.4763573,66.1155867 28.5796848,65.9877408 C28.5796848,65.9877408 29.1803853,68.9649737 30.8563923,69.4676007 L31.0735552,68.938704 Z" id="Path" fill="#FF6347"></path>
                        <path d="M31.4325744,66.6742557 C31.4325744,66.6742557 31.0472855,63.2539405 29.4711033,63.2364273 C29.4711033,63.2364273 29.6987741,65.8388792 31.2819615,67.1716287 L31.4325744,66.6742557 Z" id="Path" fill="#FF6347"></path>
                        <path d="M32.3450088,63.9229422 C32.3450088,63.9229422 31.6882662,61.0998249 30.178634,60.8511384 C30.178634,60.8511384 30.5499124,63.6024518 32.2469352,64.6322242 L32.3450088,63.9229422 Z" id="Path" fill="#FF6347"></path>
                        <path d="M33.0928196,61.5726795 C33.0928196,61.5726795 32.8774081,58.5954466 31.9404553,58.2241681 C31.9404553,58.2241681 31.5569177,60.9544658 32.854641,61.9702277 L33.0928196,61.5726795 Z" id="Path" fill="#FF6347"></path>
                        <path d="M33.7005254,59.2434326 C33.7005254,59.2434326 33.3677758,56.1891419 32.3975482,55.821366 C32.3975482,55.821366 32.2381786,58.2732049 33.5726795,59.4535902 L33.7005254,59.2434326 Z" id="Path" fill="#FF6347"></path>
                        <path d="M34.5201401,56.4553415 C34.5201401,56.4553415 34.3450088,53.966725 33.6444834,53.4255692 C33.6444834,53.4255692 33.1593695,56.1996497 34.2101576,56.9789842 L34.5201401,56.4553415 Z" id="Path" fill="#FF6347"></path>
                        <path d="M34.709282,54.0683012 L33.7775832,49.966725 C33.7775832,49.966725 33.117338,53.4238179 34.7898424,54.8143608 L34.709282,54.0683012 Z" id="Path" fill="#FF6347"></path>
                        <path d="M34.5604203,49.9404553 C34.5604203,49.9404553 32.6952715,47.2661996 32.709282,46.9527145 C32.709282,46.9527145 33.0823117,49.8616462 35.2924694,51.1751313 L34.5604203,49.9404553 Z" id="Path" fill="#FF6347"></path>
                        <path d="M34.7005254,49.1033275 C34.7005254,49.1033275 32.8511384,45.2504378 32.1138354,44.9789842 C32.1138354,44.9789842 34.4535902,45.9772329 34.8248687,48.9824869 L34.7005254,49.1033275 Z" id="Path" fill="#FF6347"></path>
                        <path d="M34.3380035,56.854641 L34.2276708,56.8283713 C35.2784588,52.3817863 35.4185639,49.5779335 34.6409807,48.9352014 L34.7127846,48.8476357 C35.5376532,49.530648 35.408056,52.3012259 34.3380035,56.854641 Z" id="Path" fill="#444053"></path>
                        <path d="M31.3450088,67.3029772 L31.1803853,67.2556918 C31.295972,66.8476357 31.4220665,66.4325744 31.5551664,66.0297723 C32.7162872,62.4588441 33.6865149,59.1471103 34.2802102,56.6129597 L34.4150613,56.5323993 C33.8196147,59.0718039 32.8791594,62.5078809 31.7162872,66.0823117 C31.5831874,66.4868651 31.4588441,66.8949212 31.3450088,67.3029772 Z" id="Path" fill="#444053"></path>
                        <path d="M36.3257443,91.061296 C36.3029772,91.0385289 33.9737303,88.7460595 32.1838879,84.6830123 C31.1362804,82.3051229 30.4713243,79.7765166 30.2136602,77.1908932 C29.8931699,73.9579685 30.3309982,70.2942207 31.2749562,66.9299475 L31.4098074,67.0700525 C29.2924694,74.619965 30.7548161,80.8704028 32.3870403,84.5831874 C34.1593695,88.6112084 36.4605954,90.8756567 36.4851138,90.8984238 L36.3257443,91.061296 Z" id="Path" fill="#444053"></path>
                        <path d="M41.5936953,99.8178634 C41.144238,99.8976981 40.7041211,100.023278 40.2802102,100.192644 C30.8336252,103.964974 30.9912434,128.658494 30.9912434,128.658494 L28.2101576,128.658494 C28.2101576,128.658494 27.3345009,118.061296 23.5183888,102.942207 C20.0805604,89.3397548 34.1803853,77.1488616 37.0437828,74.8371278 C37.3660245,74.5796848 37.5446585,74.4430823 37.5446585,74.4430823 C51.7460595,79.6619965 41.5936953,99.8178634 41.5936953,99.8178634 Z" id="Path" fill="#AFC0E0"></path>
                        <path d="M38.5779335,74.8721541 C38.2504378,74.7215412 37.9124343,74.5779335 37.5534151,74.4465849 C37.5534151,74.4465849 37.3782837,74.5831874 37.0525394,74.8406305 C34.1891419,77.1523643 20.089317,89.3432574 23.5271454,102.945709 C27.3432574,118.064799 28.2101576,128.658494 28.2101576,128.658494 L29.7740806,128.658494 C29.7740806,128.658494 28.9071804,118.061296 25.0823117,102.942207 C21.6584939,89.4028021 35.6217163,77.2574431 38.5779335,74.8721541 Z" id="Path" fill="#FFFFFF" opacity="0.2"></path>
                        <path d="M88.4483363,102.945709 C84.6234676,118.064799 83.7618214,128.658494 83.7618214,128.658494 L80.9754816,128.658494 C80.9754816,128.658494 81.150613,102.851138 71.0402802,99.9702277 C70.8213046,99.9045089 70.5984588,99.8524531 70.3730298,99.8143608 C70.3730298,99.8143608 60.2154116,79.6584939 74.4220665,74.4430823 C74.4220665,74.4430823 74.5656743,74.5499124 74.8248687,74.7583187 C77.4570928,76.8651489 91.9246935,89.1856392 88.4483363,102.945709 Z" id="Path" fill="#AFC0E0"></path>
                        <path d="M41.5936953,99.8178634 C41.144238,99.8976981 40.7041211,100.023278 40.2802102,100.192644 C38.5723109,91.834238 37.4904983,83.3600392 37.0437828,74.8406305 C37.3660245,74.5831874 37.5446585,74.4465849 37.5446585,74.4465849 C51.7460595,79.6619965 41.5936953,99.8178634 41.5936953,99.8178634 Z" id="Path" fill="#000000" opacity="0.1"></path>
                        <path d="M74.8301226,74.7618214 C74.2510518,83.2564648 72.9853902,91.6903044 71.0455342,99.9807356 C70.8265585,99.9150168 70.6037128,99.862961 70.3782837,99.8248687 C70.3782837,99.8248687 60.2206655,79.6690018 74.4273205,74.4535902 C74.4220665,74.4465849 74.5656743,74.5534151 74.8301226,74.7618214 Z" id="Path" fill="#000000" opacity="0.1"></path>
                        <path d="M69.6304729,103.639229 C68.6497373,107.508465 67.5002919,111.478109 66.1821366,115.548161 C66.1821366,115.548161 59.9264448,122.064799 44.8161121,115.548161 C44.8161121,115.548161 43.3064799,111.292469 41.6462347,104.057793 C37.9912434,88.150613 33.6077058,57.8371278 42.9474606,26.7005254 C45.728728,17.3402386 49.6818241,8.36898171 54.7127846,-5.68434189e-14 C54.7127846,-5.68434189e-14 62.6917688,9.16112084 68.5481611,26.6952715 C74.4045534,44.2294221 78.1313485,70.1401051 69.6304729,103.639229 Z" id="Path" fill="#E3E8F4"></path>
                        <circle id="Oval" fill="#AFC0E0" cx="55.9824869" cy="51.4185639" r="12.5446585"></circle>
                        <path d="M64.8791594,51.4255692 C64.8790768,54.8644013 62.8971663,57.9952532 59.7889901,59.4665814 C56.6808139,60.9379096 53.0030195,60.486212 50.3432574,58.3064799 C49.7072256,57.7827008 49.1462231,57.1739659 48.676007,56.497373 C48.464848,56.1951276 48.2729892,55.8798473 48.1015762,55.5534151 C47.4343582,54.2798561 47.0863847,52.8633212 47.0875657,51.4255692 C47.0875657,51.3537653 47.0875657,51.2837128 47.0875657,51.2136602 C47.1812087,47.3083703 49.8085446,43.9198171 53.5674256,42.8563923 C54.2666232,42.6636935 54.9861552,42.5543529 55.7110333,42.530648 L55.9772329,42.530648 C58.3373839,42.5292542 60.6013719,43.4657237 62.2709078,45.1339457 C63.9404436,46.8021678 64.8786952,49.0654178 64.8791594,51.4255692 Z" id="Path" fill="#FF6347"></path>
                        <path d="M68.5464098,26.6952715 C54.3134851,33.5096322 42.938704,26.6952715 42.938704,26.6952715 C45.7231509,17.3363788 49.6791864,8.36689347 54.7127846,0 C54.7127846,0 62.6917688,9.16112084 68.5464098,26.6952715 Z" id="Path" fill="#AFC0E0"></path>
                        <path d="M69.6304729,103.639229 C68.9649737,106.259194 68.2235844,108.92411 67.4063047,111.633975 C67.0186807,112.926445 66.6100409,114.229422 66.1803853,115.542907 C66.1803853,115.542907 59.9246935,122.059545 44.8143608,115.542907 C44.8143608,115.542907 44.323993,114.161121 43.5884413,111.633975 C43.0385289,109.725044 42.3537653,107.166375 41.6392294,104.052539 C41.6392294,104.052539 47.2644483,106.45359 55.2486865,106.45359 C60.1810573,106.47049 65.0683027,105.514108 69.6304729,103.639229 Z" id="Path" fill="#AFC0E0"></path>
                        <path d="M67.4063047,111.633975 C67.0186807,112.926445 66.6100409,114.229422 66.1803853,115.542907 C66.1803853,115.542907 59.9246935,122.059545 44.8143608,115.542907 C44.8143608,115.542907 44.323993,114.161121 43.5884413,111.633975 C43.58669,111.633975 58.9877408,116.064799 67.4063047,111.633975 Z" id="Path" fill="#E3E8F4"></path>
                        <path d="M53.5726795,42.8441331 L53.5534151,42.8581436 L47.0910683,51.2014011 C47.0910683,51.2714536 47.0910683,51.3415061 47.0910683,51.41331 C47.0898873,52.851062 47.4378609,54.2675969 48.1050788,55.5411559 L55.7197898,42.5183888 L53.5726795,42.8441331 Z" id="Path" fill="#FFFFFF" opacity="0.2"></path>
                        <path d="M55.6357268,50.3747811 L50.3432574,58.2994746 C49.7072256,57.7756955 49.1462231,57.1669606 48.676007,56.4903678 L54.9807356,49.7232925 L55.6357268,50.3747811 Z" id="Path" fill="#FFFFFF" opacity="0.2"></path>
                        <path d="M48.1961471,115.544658 C48.1961471,115.544658 46.6865149,111.287215 45.0262697,104.054291 C41.3712785,88.145359 36.9877408,57.8318739 46.3274956,26.6952715 C48.8380825,18.2704111 52.2956516,10.1573148 56.6339755,2.51138354 C55.4483363,0.84938704 54.7075306,0.00175131349 54.7075306,0.00175131349 C49.6757746,8.36829713 45.7215058,17.3371909 42.938704,26.6952715 C33.5989492,57.8318739 37.9824869,88.145359 41.6374781,104.054291 C43.2977233,111.287215 44.8073555,115.544658 44.8073555,115.544658 C50.7775832,118.117338 55.3642732,118.656743 58.7302977,118.369527 C55.854641,118.150613 52.3625219,117.339755 48.1961471,115.544658 Z" id="Path" fill="#FFFFFF" opacity="0.2"></path>
                        <path d="M164.269702,127.658494 C164.269702,127.658494 172.455342,117.472855 171.912434,107.271454 C171.657666,102.994813 172.796992,98.750918 175.15937,95.1768827 C176.296342,93.4861784 177.586044,91.9033614 179.012259,90.4483363" id="Path" stroke="#535461" stroke-width="2"></path>
                        <path d="M178.702277,84.0245184 C178.117338,85.4448336 178.992995,90.6234676 178.992995,90.6234676 C178.992995,90.6234676 183.260946,87.5621716 183.845884,86.1418564 C184.430571,84.7214883 183.753118,83.0960703 182.33275,82.5113835 C180.912382,81.9266968 179.286963,82.6041503 178.702277,84.0245184 Z" id="Path" fill="#FF6347"></path>
                        <path d="M171.210158,90.1436077 C171.492119,91.6532399 175.042032,95.5236427 175.042032,95.5236427 C175.042032,95.5236427 176.968476,90.6357268 176.67951,89.1243433 C176.398047,87.6140234 174.945521,86.6178374 173.435201,86.8992995 C171.924882,87.1807616 170.928696,88.6332879 171.210158,90.1436077 Z" id="Path" fill="#FF6347"></path>
                        <path d="M165.861646,103.66725 C166.8669,104.828371 171.886165,106.378284 171.886165,106.378284 C171.886165,106.378284 171.073555,101.189142 170.068301,100.02627 C169.053474,98.9048003 167.328453,98.7999427 166.185259,99.790234 C165.042066,100.780525 164.899859,102.50287 165.865149,103.66725 L165.861646,103.66725 Z" id="Path" fill="#FF6347"></path>
                        <path d="M164.119089,114.810858 C164.912434,116.126095 169.597198,118.500876 169.597198,118.500876 C169.597198,118.500876 169.674256,113.246935 168.880911,111.93345 C168.366911,111.082833 167.438157,110.571045 166.444501,110.590873 C165.450845,110.610701 164.543247,111.159132 164.06359,112.029577 C163.583934,112.900022 163.60509,113.960241 164.119089,114.810858 Z" id="Path" fill="#FF6347"></path>
                        <path d="M180.329247,98.0227671 C178.903678,98.591944 173.7338,97.6637478 173.7338,97.6637478 C173.7338,97.6637478 176.837128,93.4273205 178.264448,92.8563923 C179.691103,92.2862139 181.309857,92.9805254 181.880035,94.4071804 C182.450213,95.8338354 181.755902,97.4525887 180.329247,98.0227671 Z" id="Path" fill="#FF6347"></path>
                        <path d="M178.126095,111.029772 C176.595447,111.14711 171.940455,108.714536 171.940455,108.714536 C171.940455,108.714536 176.168126,105.598949 177.700525,105.481611 C179.212435,105.397379 180.5142,106.53749 180.63001,108.047309 C180.74582,109.557127 179.633163,110.882435 178.126095,111.029772 Z" id="Path" fill="#FF6347"></path>
                        <path d="M174.250438,123.376532 C172.76007,123.751313 167.761821,122.140105 167.761821,122.140105 C167.761821,122.140105 171.402802,118.355517 172.89317,117.982487 C173.856723,117.740034 174.87643,118.030048 175.568177,118.743284 C176.259924,119.456519 176.518618,120.484619 176.246811,121.440307 C175.975005,122.395995 175.213991,123.13408 174.250438,123.376532 Z" id="Path" fill="#FF6347"></path>
                        <path d="M178.702277,84.0245184 C178.117338,85.4448336 178.992995,90.6234676 178.992995,90.6234676 C178.992995,90.6234676 183.260946,87.5621716 183.845884,86.1418564 C184.430571,84.7214883 183.753118,83.0960703 182.33275,82.5113835 C180.912382,81.9266968 179.286963,82.6041503 178.702277,84.0245184 Z" id="Path" fill="#000000" opacity="0.25"></path>
                        <path d="M171.210158,90.1436077 C171.492119,91.6532399 175.042032,95.5236427 175.042032,95.5236427 C175.042032,95.5236427 176.968476,90.6357268 176.67951,89.1243433 C176.398047,87.6140234 174.945521,86.6178374 173.435201,86.8992995 C171.924882,87.1807616 170.928696,88.6332879 171.210158,90.1436077 Z" id="Path" fill="#000000" opacity="0.25"></path>
                        <path d="M165.861646,103.66725 C166.8669,104.828371 171.886165,106.378284 171.886165,106.378284 C171.886165,106.378284 171.073555,101.189142 170.068301,100.02627 C169.053474,98.9048003 167.328453,98.7999427 166.185259,99.790234 C165.042066,100.780525 164.899859,102.50287 165.865149,103.66725 L165.861646,103.66725 Z" id="Path" fill="#000000" opacity="0.25"></path>
                        <path d="M164.119089,114.810858 C164.912434,116.126095 169.597198,118.500876 169.597198,118.500876 C169.597198,118.500876 169.674256,113.246935 168.880911,111.93345 C168.366911,111.082833 167.438157,110.571045 166.444501,110.590873 C165.450845,110.610701 164.543247,111.159132 164.06359,112.029577 C163.583934,112.900022 163.60509,113.960241 164.119089,114.810858 Z" id="Path" fill="#000000" opacity="0.25"></path>
                        <path d="M180.329247,98.0227671 C178.903678,98.591944 173.7338,97.6637478 173.7338,97.6637478 C173.7338,97.6637478 176.837128,93.4273205 178.264448,92.8563923 C179.691103,92.2862139 181.309857,92.9805254 181.880035,94.4071804 C182.450213,95.8338354 181.755902,97.4525887 180.329247,98.0227671 Z" id="Path" fill="#000000" opacity="0.25"></path>
                        <path d="M178.126095,111.029772 C176.595447,111.14711 171.940455,108.714536 171.940455,108.714536 C171.940455,108.714536 176.168126,105.598949 177.700525,105.481611 C179.212435,105.397379 180.5142,106.53749 180.63001,108.047309 C180.74582,109.557127 179.633163,110.882435 178.126095,111.029772 Z" id="Path" fill="#000000" opacity="0.25"></path>
                        <path d="M174.250438,123.376532 C172.76007,123.751313 167.761821,122.140105 167.761821,122.140105 C167.761821,122.140105 171.402802,118.355517 172.89317,117.982487 C173.856723,117.740034 174.87643,118.030048 175.568177,118.743284 C176.259924,119.456519 176.518618,120.484619 176.246811,121.440307 C175.975005,122.395995 175.213991,123.13408 174.250438,123.376532 Z" id="Path" fill="#000000" opacity="0.25"></path>
                        <path d="M164.343257,127.232925 C164.343257,127.232925 175.954466,121.236427 179.591944,111.691769 C181.091501,107.677839 183.853333,104.259043 187.462347,101.949212 C189.183815,100.865082 191.001123,99.9411859 192.891419,99.1891419" id="Path" stroke="#535461" stroke-width="2"></path>
                        <path d="M195.218914,93.1873905 C194.108581,94.2504378 192.810858,99.3397548 192.810858,99.3397548 C192.810858,99.3397548 197.952715,98.2697023 199.063047,97.2084063 C200.175354,96.1468782 200.216519,94.3846366 199.154991,93.2723294 C198.093463,92.1600222 196.331221,92.1188574 195.218914,93.1803853 L195.218914,93.1873905 Z" id="Path" fill="#FF6347"></path>
                        <path d="M185.891419,95.7460595 C185.541156,97.2416813 187.21366,102.225919 187.21366,102.225919 C187.21366,102.225919 190.942207,98.5359019 191.302977,97.0315236 C191.651941,95.5395849 190.728443,94.0464366 189.237717,93.6923288 C187.746991,93.338221 186.250666,94.2565636 185.891419,95.7460595 Z" id="Path" fill="#FF6347"></path>
                        <path d="M175.52014,105.942207 C175.968476,107.411559 179.929947,110.861646 179.929947,110.861646 C179.929947,110.861646 181.290718,105.782837 180.842382,104.32049 C180.55269,103.369763 179.777797,102.645804 178.809598,102.421321 C177.841398,102.196838 176.826985,102.505935 176.148477,103.232179 C175.469969,103.958423 175.230448,104.99148 175.52014,105.942207 Z" id="Path" fill="#FF6347"></path>
                        <path d="M169.411559,115.423818 C169.604203,116.949212 172.924694,121.017513 172.924694,121.017513 C172.924694,121.017513 175.124343,116.248687 174.929947,114.723292 C174.736503,113.199431 173.344351,112.120916 171.82049,112.314361 C170.296629,112.507806 169.218114,113.899957 169.411559,115.423818 Z" id="Path" fill="#FF6347"></path>
                        <path d="M191.035026,106.644483 C189.499124,106.588441 185.150613,103.644483 185.150613,103.644483 C185.150613,103.644483 189.704028,101.029772 191.23993,101.085814 C192.232891,101.122417 193.130897,101.685977 193.595678,102.564208 C194.06046,103.442438 194.021405,104.501914 193.493226,105.343542 C192.965047,106.18517 192.027987,106.681086 191.035026,106.644483 Z" id="Path" fill="#FF6347"></path>
                        <path d="M183.749562,117.642732 C182.301226,117.129597 179.031524,113.019264 179.031524,113.019264 C179.031524,113.019264 184.161121,111.886165 185.607706,112.399299 C186.544355,112.731225 187.232774,113.537633 187.413643,114.514757 C187.594511,115.491882 187.240351,116.491275 186.484571,117.136474 C185.728791,117.781673 184.686211,117.974657 183.749562,117.642732 Z" id="Path" fill="#FF6347"></path>
                        <path d="M175.201401,127.360771 C173.688266,127.099825 169.772329,123.600701 169.772329,123.600701 C169.772329,123.600701 174.635727,121.618214 176.148862,121.879159 C177.662567,122.14031 178.677963,123.579114 178.416813,125.09282 C178.155662,126.606525 176.716858,127.621921 175.203152,127.360771 L175.201401,127.360771 Z" id="Path" fill="#FF6347"></path>
                        <path d="M180.85289,121.604203 L171.85289,108.551664 C171.85289,108.551664 171.677758,105.32049 171.096322,104.565674 C170.514886,103.810858 170.970228,102.131349 170.970228,102.131349 C170.970228,102.131349 171.600701,101.208406 171.054291,101.124343 C170.507881,101.04028 170.970228,98.9824869 170.970228,98.9824869 L170.928196,95.709282 C170.928196,95.709282 171.432574,92.5569177 171.012259,91.8073555 C170.760916,91.3902922 170.777364,90.8646315 171.054291,90.4640981 C171.054291,90.4640981 171.558669,88.6584939 171.054291,88.1978984 C170.549912,87.737303 170.676007,84.9229422 170.802102,82.6987741 C170.928196,80.474606 169.917688,79.2154116 169.917688,78.8791594 C169.917688,78.5429072 166.590193,75.2697023 166.590193,74.9772329 C166.590193,74.6847636 164.488616,73.4658494 163.225919,73.1295972 C161.963222,72.793345 161.33275,72.5429072 161.374781,72.3747811 C161.416813,72.206655 159.397548,71.5359019 159.397548,71.5359019 C159.397548,71.5359019 157.630473,71.4098074 156.956217,70.5271454 C156.281961,69.6444834 154.225919,69.3922942 154.166375,69.3835377 C154.154116,69.3257443 154.140105,69.2661996 154.127846,69.2084063 C154.115587,69.150613 154.101576,69.0823117 154.089317,69.0192644 C154.248687,68.7513135 154.395797,68.4781086 154.528897,68.1961471 C154.569177,68.1103327 154.607706,68.0210158 154.644483,67.9404553 C155.381786,67.9071804 156.138354,67.7495622 156.716287,67.2977233 C157.316483,66.7956407 157.6812,66.0668411 157.723292,65.2854641 C157.758964,64.5096669 157.589205,63.7382006 157.231173,63.0490368 C156.863398,62.2924694 156.322242,61.5096322 156.507881,60.6900175 C156.590193,60.3397548 156.802102,60.0245184 156.910683,59.6777583 C157.115587,59.0210158 156.926445,58.2994746 156.607706,57.6900175 C156.288967,57.0805604 155.845884,56.5446585 155.492119,55.9544658 C155.040232,55.202365 154.738679,54.369676 154.604203,53.502627 C154.532399,53.0472855 154.504378,52.5674256 154.274956,52.1663748 C154.084788,51.8687646 153.833452,51.6150402 153.537653,51.4220665 C152.221786,50.4809176 150.632731,49.9990316 149.015762,50.0507881 C147.870403,50.0910683 146.728546,50.4010508 145.591944,50.2591944 C144.90718,50.1751313 144.25394,49.9316988 143.591944,49.7338004 C142.180385,49.3169877 140.553415,49.145359 139.323993,49.9527145 C138.094571,50.7600701 137.605954,52.3485114 136.774081,53.5901926 C136.038529,54.6900175 134.95972,55.6112084 134.399299,56.7740806 C134.399299,56.7530648 134.409807,56.7302977 134.416813,56.7075306 C134.279051,56.9766346 134.173815,57.2611821 134.103327,57.5551664 C133.889667,58.469352 134.068301,59.4255692 134.290718,60.3380035 C134.404553,60.8091068 134.562172,61.3204904 134.970228,61.5814361 C135.378284,61.8423818 135.956217,61.7845884 136.43958,61.8704028 C136.422067,61.9492119 136.401051,62.0297723 136.383538,62.1103327 C135.345537,67.0141243 138.249003,71.8926174 143.054291,73.3187391 C143.054291,73.4045534 143.054291,73.4938704 143.054291,73.5744308 C143.053382,73.8155799 143.038764,74.0564823 143.010508,74.295972 C143.010508,74.295972 138.781086,73.4203152 137.644483,74.0157618 C136.507881,74.6112084 134.278459,75.0665499 133.942207,75.3992995 C133.605954,75.732049 132.765324,75.4833625 132.015762,77.4570928 C131.2662,79.4308231 131.175131,81.4430823 130.206655,82.3607706 C129.238179,83.2784588 128.735552,83.9141856 128.69352,84.58669 C128.651489,85.2591944 128.819615,85.4255692 128.43958,85.6374781 C128.059545,85.849387 127.514886,86.7285464 127.683012,87.0647986 C127.683012,87.0647986 127.89317,87.9036778 127.220665,88.3222417 C126.548161,88.7408056 126.630473,89.5814361 126.630473,89.5814361 C126.630473,89.5814361 126.378284,90.5061296 125.789842,90.7145359 C125.201401,90.9229422 124.821366,92.3099825 124.821366,92.3099825 L122.90718,94.5078809 L119.126095,90.3222417 C118.536495,89.6690428 117.529076,89.6172998 116.875657,90.206655 L115.019264,91.8809107 C114.302698,92.054667 113.655149,92.440389 113.161121,92.9877408 C112.756561,93.4031328 112.430787,93.8885304 112.19965,94.4203152 L111.182137,95.3345009 C110.528267,96.1453441 110.425373,97.2695727 110.921191,98.1856392 L113.343257,100.863398 L113.359019,100.886165 C112.443082,101.001751 111.633975,101.295972 111.015762,101.84063 C107.399299,105.029772 107.355517,107.970228 107.903678,109.309982 C108.451839,110.649737 113.035026,115.816112 113.035026,115.816112 C113.035026,115.816112 115.698774,119.278459 119.544658,121.120841 L119.514886,121.150613 C119.43958,121.231173 119.364273,121.325744 119.290718,121.41331 L119.227671,121.49387 L119.169877,121.574431 L119.101576,121.676007 C119.082312,121.702277 119.064799,121.730298 119.047285,121.758319 C119.029772,121.78634 118.998249,121.837128 118.975482,121.879159 L118.928196,121.95972 C118.900175,122.012259 118.870403,122.06655 118.842382,122.122592 L118.814361,122.176883 C118.779335,122.250438 118.744308,122.325744 118.711033,122.404553 C118.698774,122.432574 118.688266,122.462347 118.676007,122.490368 C118.654991,122.544658 118.632224,122.600701 118.611208,122.665499 C118.590193,122.730298 118.584939,122.737303 118.57268,122.774081 C118.56042,122.810858 118.535902,122.882662 118.518389,122.938704 C118.500876,122.994746 118.49387,123.017513 118.483363,123.056042 C118.472855,123.094571 118.448336,123.178634 118.432574,123.241681 C118.416813,123.304729 118.41331,123.315236 118.402802,123.355517 C118.380035,123.451839 118.357268,123.551664 118.338004,123.656743 C118.338004,123.695271 118.323993,123.735552 118.316988,123.775832 C118.302977,123.845884 118.290718,123.917688 118.28021,123.991243 C118.271454,124.042032 118.2662,124.09282 118.259194,124.143608 C118.252189,124.194396 118.241681,124.281961 118.232925,124.352014 L118.217163,124.513135 C118.217163,124.590193 118.203152,124.670753 118.197898,124.751313 C118.197898,124.80035 118.197898,124.849387 118.189142,124.898424 C118.189142,125.031524 118.175131,125.164623 118.17338,125.304729 C118.089317,130.208406 118.376532,130.928196 118.376532,130.928196 C118.376532,130.928196 118.970228,132.492119 120.609457,132.604203 C120.850051,132.621826 121.091909,132.608879 121.329247,132.565674 C123.516637,132.187391 128.647986,131.30648 130.457093,131.642732 C131.544658,131.844133 133.558669,131.54641 134.992995,131.274956 L135.369527,131.203152 L135.632224,132.036778 L136.464098,131.809107 L137.164623,132.217163 L137.611208,132.472855 C138.441331,135.288967 141.814361,134.329247 141.814361,134.329247 L142.605954,134.788091 L150.725044,134.998249 C150.725044,134.998249 152.476357,136.049037 153.598949,136.378284 C153.732426,136.418671 153.868862,136.448534 154.007005,136.467601 C154.759664,136.52796 155.515321,136.541997 156.269702,136.509632 C156.891419,136.49387 157.37303,136.467601 157.37303,136.467601 C157.37303,136.467601 157.290718,134.262697 157.171629,131.795096 C160.274956,131.665499 163.02627,131.471103 164.691769,131.178634 C169.028021,130.416813 170.837128,126.474606 171.502627,124.367776 C171.702627,125.228882 171.844801,126.102402 171.928196,126.982487 C172.104903,127.751358 172.330105,128.508271 172.602452,129.248687 C172.839246,129.844438 173.149907,130.408099 173.527145,130.926445 C176.725044,129.835377 174.789842,128.19965 174.115587,127.485114 C173.441331,126.770578 174.579685,126.183888 174.579685,126.183888 C174.579685,126.183888 175.455342,125.597198 175.378284,125.050788 C175.301226,124.504378 175.252189,123.917688 178.112084,123.95972 C180.971979,124.001751 180.85289,121.604203 180.85289,121.604203 Z M136.429072,94.8091068 C136.465849,95.0490368 136.865149,97.6357268 137.225919,98.3117338 C137.301226,98.4553415 137.330998,98.9649737 137.32049,99.6935201 C135.625219,99.558669 133.859895,99.4868651 133.859895,99.4868651 C133.910707,99.5481918 133.942375,99.6230993 133.950963,99.7022767 L133.684764,99.642732 L133.297723,99.5481611 L136.420315,94.7985989 L136.429072,94.8091068 Z M130.243433,104.651489 L133.176883,105.117338 L133.423818,105.155867 C133.339714,105.613355 133.288793,106.076325 133.271454,106.541156 C133.271454,106.584939 133.338004,106.637478 133.432574,106.698774 C133.39158,106.929979 133.372232,107.164502 133.374781,107.399299 C133.422067,107.632224 134.793345,108.1331 136.366025,108.549912 C136.345009,108.633975 136.323993,108.714536 136.302977,108.789842 C134.914186,108.059545 132.725044,107.718039 132.472855,107.175131 C132.220665,106.632224 124.767075,104.022767 124.767075,104.022767 C124.767075,104.022767 124.495622,103.879159 124.02627,103.651489 L125.987741,104.022767 L126.527145,103.968476 C127.750062,104.274401 128.991386,104.501373 130.243433,104.647986 L130.243433,104.651489 Z" id="Shape" fill="url(#linearGradient-1)" fill-rule="nonzero"></path>
                        <path d="M171.276708,123.430823 C171.276708,123.430823 170.110333,130.476357 164.189142,131.518389 C158.267951,132.56042 138.504378,132.352014 138.504378,132.352014 C138.504378,132.352014 127.204904,130.726795 123.119089,121.178634 C119.033275,111.630473 116.406305,107.835377 119.908932,107.669002 C123.411559,107.502627 142.299475,114.049037 143.376532,114.131349 C144.45359,114.21366 172.318739,99.6217163 171.276708,123.430823 Z" id="Path" fill="#434175"></path>
                        <path d="M171.276708,123.430823 C171.276708,123.430823 170.110333,130.476357 164.189142,131.518389 C158.267951,132.56042 138.504378,132.352014 138.504378,132.352014 C138.504378,132.352014 127.204904,130.726795 123.119089,121.178634 C119.033275,111.630473 116.406305,107.835377 119.908932,107.669002 C123.411559,107.502627 142.299475,114.049037 143.376532,114.131349 C144.45359,114.21366 172.318739,99.6217163 171.276708,123.430823 Z" id="Path" fill="#000000" opacity="0.05"></path>
                        <path d="M118.274956,131.267951 C118.274956,131.267951 118.865149,132.823117 120.488616,132.93345 C120.72689,132.950242 120.966326,132.9373 121.201401,132.894921 C123.369527,132.52014 128.457093,131.644483 130.248687,131.977233 C131.327496,132.178634 133.322242,131.880911 134.742557,131.61296 C135.688266,131.437828 136.378284,131.262697 136.378284,131.262697 C136.378284,131.262697 134.711033,125.718039 134.500876,125.551664 C134.290718,125.385289 126.996497,121.007005 126.996497,121.007005 L121.217163,120.591944 L121.19965,120.591944 C121.19965,120.591944 120.129597,120.663748 119.241681,121.742557 C118.630473,122.47986 118.10683,123.691769 118.071804,125.677758 C117.991243,130.558669 118.274956,131.267951 118.274956,131.267951 Z" id="Path" fill="#565387"></path>
                        <path d="M118.274956,131.267951 C118.274956,131.267951 118.865149,132.823117 120.488616,132.93345 C119.918913,132.201332 119.392616,131.436448 118.912434,130.642732 L118.942207,126.598949 C118.684764,123.570928 120.101576,121.632224 121.218914,120.597198 L121.201401,120.597198 C121.201401,120.597198 118.157618,120.803853 118.073555,125.676007 C117.989492,130.548161 118.274956,131.267951 118.274956,131.267951 Z" id="Path" fill="#000000" opacity="0.05"></path>
                        <path d="M143.341506,122.429072 L148.71979,118.225919 L157.183888,109.886165 C157.183888,109.886165 156.269702,109.842382 154.891419,109.782837 C154.541156,110.001751 153.58669,110.690018 153.551664,111.534151 C153.509632,112.553415 151.262697,111.604203 150.096322,112.187391 C148.929947,112.770578 143.217163,120.082312 142.215412,120.035026 C141.21366,119.987741 140.423818,119.527145 140.005254,120.236427 C140.005254,120.252189 139.985989,120.2662 139.975482,120.281961 L143.341506,122.429072 Z" id="Path" fill="#000000" opacity="0.1"></path>
                        <path d="M119.243433,121.74606 C119.434326,121.838879 119.62697,121.921191 119.824869,122.012259 C123.912434,123.763573 128.956217,127.441331 129.33275,128.099825 C129.56042,128.50613 132.485114,130.281961 134.742557,131.61296 C135.688266,131.437828 136.378284,131.262697 136.378284,131.262697 C136.378284,131.262697 134.711033,125.718039 134.500876,125.551664 C134.290718,125.385289 126.996497,121.007005 126.996497,121.007005 L121.217163,120.591944 L121.19965,120.591944 C121.19965,120.591944 120.131349,120.66725 119.243433,121.74606 Z" id="Path" fill="#000000" opacity="0.1"></path>
                        <path d="M107.901926,109.795096 C108.443082,111.129597 112.980736,116.259194 112.980736,116.259194 C112.980736,116.259194 115.856392,120.010508 119.943958,121.761821 C124.031524,123.513135 129.075306,127.190893 129.450088,127.849387 C129.691769,128.278459 132.952715,130.23993 135.243433,131.588441 L135.756567,131.887916 L136.894921,132.548161 L137.497373,132.898424 C137.497373,132.898424 138.898424,131.777583 140.283713,130.649737 C141.669002,129.521891 143.021016,128.416813 143.043783,128.353765 C143.084063,128.229422 143.625219,126.810858 143.500876,126.728546 C143.436077,126.684764 143.150613,126.10683 142.625219,125.437828 C142.064495,124.6953 141.336721,124.095321 140.500876,123.686515 C138.574431,122.810858 137.749562,120.817863 137.749562,120.817863 C137.749562,120.817863 137.574431,120.684764 137.288967,120.509632 C136.795096,120.197898 136.001751,119.749562 135.415061,119.674256 C134.495622,119.558669 132.788091,117.683012 132.788091,117.683012 C132.788091,117.683012 131.619965,116.931699 131.161121,115.97373 C130.723292,115.059545 124.257443,110.618214 123.658494,110.208406 L139.334501,120.274956 L143.085814,122.686515 L148.464098,118.483363 L156.929947,110.143608 C156.929947,110.143608 155.791594,110.087566 154.127846,110.017513 C150.014011,109.842382 142.707531,109.56042 141.784588,109.768827 C141.033185,109.943915 140.258097,109.994207 139.490368,109.917688 C139.490368,109.917688 137.409807,110.012259 136.033275,109.285464 C134.656743,108.558669 132.486865,108.218914 132.236427,107.681261 C131.985989,107.143608 124.605954,104.555166 124.605954,104.555166 C124.605954,104.555166 114.558669,99.2189142 110.971979,102.388792 C107.385289,105.558669 107.359019,108.462347 107.901926,109.795096 Z" id="Path" fill="#434175"></path>
                        <path d="M140.297723,79.1926445 L141.590193,83.4868651 L143.257443,93.1593695 L149.38704,93.5761821 L151.161121,90.6339755 L152.938704,87.6970228 C152.938704,87.6970228 154.042032,83.7880911 154.835377,80.0070053 C155.535902,76.6619965 155.994746,73.4150613 155.231173,73.0630473 C154.555166,72.7495622 154.110333,71.6234676 153.830123,70.4115587 C153.793345,70.262697 153.76007,70.1103327 153.728546,69.9579685 C153.524292,68.931937 153.388557,67.8934478 153.322242,66.849387 C153.322242,66.849387 140.47986,66.1838879 142.273205,71.4781086 C142.593246,72.3825084 142.75671,73.3348639 142.756567,74.2942207 C142.754789,74.5335941 142.740173,74.7726999 142.712785,75.0105079 C142.528261,76.6810196 141.652347,78.1978315 140.297723,79.1926445 Z" id="Path" fill="#EE8E9E"></path>
                        <path d="M137.628722,78.4833625 L138.087566,85.7793345 L139.129597,91.9912434 L140.297723,94.8686515 L141.339755,110.609457 C141.339755,110.609457 151.394046,111.772329 153.838879,110.588441 C154.015145,110.513254 154.168116,110.392328 154.281961,110.238179 C157.234676,105.784588 156.2662,92.8669002 156.2662,92.8669002 L157.392294,84.525394 L156.640981,80.1961471 L154.828371,80.0035026 L153.42732,79.854641 C153.42732,79.854641 153.112084,80.2434326 152.656743,80.8441331 C151.420315,82.4763573 149.154116,85.6865149 149.299475,87.0262697 C149.50613,88.8616462 149.049037,90.737303 148.339755,91.0297723 C147.630473,91.3222417 147.047285,91.821366 146.922942,91.3222417 C146.798599,90.8231173 146.672504,90.6970228 146.796848,89.9877408 C146.921191,89.2784588 146.25394,87.1103327 146.25394,87.1103327 C146.25394,87.1103327 145.129597,84.5674256 145.203152,83.4833625 C145.276708,82.3992995 145.078809,81.1471103 144.744308,80.8563923 C144.409807,80.5656743 143.952715,80.2714536 144.327496,78.9299475 C144.702277,77.5884413 142.683012,74.9982487 142.683012,74.9982487 L137.628722,78.4833625 Z" id="Path" fill="#E3E8F4"></path>
                        <path d="M150.908932,96.7057793 L151.325744,109.17338 L153.7338,110.507881 C153.910023,110.43262 154.062976,110.311708 154.176883,110.157618 C157.131349,105.697023 156.162872,92.7810858 156.162872,92.7810858 L157.288967,84.441331 L156.537653,80.1138354 L154.723292,79.9211909 C155.423818,76.5761821 155.882662,73.3292469 155.120841,72.9772329 C154.443082,72.6637478 153.998249,71.5376532 153.709282,70.3257443 L152.41331,79.1523643 C152.41331,79.1523643 152.521891,79.9474606 152.56042,80.7670753 C152.590193,81.3765324 152.579685,81.9929947 152.455342,82.3204904 C152.162872,83.0718039 152.371278,84.4063047 152.371278,84.4063047 C151.619965,85.7302977 151.245184,88.1838879 151.061296,90.5534151 C150.814361,93.704028 150.908932,96.7057793 150.908932,96.7057793 Z" id="Path" fill="#000000" opacity="0.1"></path>
                        <path d="M153.749562,70.1330998 C153.749562,70.1330998 155.851138,70.3940455 156.516637,71.2697023 C157.182137,72.145359 158.935201,72.2661996 158.935201,72.2661996 C158.935201,72.2661996 160.936953,72.9334501 160.894921,73.0998249 C160.85289,73.2661996 161.478109,73.5183888 162.730298,73.8511384 C163.982487,74.1838879 166.057793,75.3940455 166.057793,75.6865149 C166.057793,75.9789842 169.352014,79.2294221 169.352014,79.5639229 C169.352014,79.8984238 170.353765,81.1401051 170.227671,83.357268 C170.101576,85.5744308 169.977233,88.3607706 170.478109,88.8196147 C170.978984,89.2784588 170.478109,91.0718039 170.478109,91.0718039 C170.206731,91.4724642 170.19644,91.9952747 170.451839,92.4063047 C170.868651,93.1576182 170.369527,96.2854641 170.369527,96.2854641 L170.409807,99.5376532 C170.409807,99.5376532 169.950963,101.579685 170.49387,101.663748 C171.036778,101.747811 170.409807,102.663748 170.409807,102.663748 C170.409807,102.663748 169.950963,104.33275 170.535902,105.082312 C171.120841,105.831874 171.285464,109.043783 171.285464,109.043783 L180.217163,122.003503 C180.217163,122.003503 180.343257,124.380035 177.507881,124.338004 C174.672504,124.295972 174.705779,124.880911 174.796848,125.422067 C174.887916,125.963222 174.005254,126.548161 174.005254,126.548161 C174.005254,126.548161 172.879159,127.131349 173.54641,127.84063 C174.21366,128.549912 176.131349,130.175131 172.963222,131.259194 C172.588305,130.744327 172.279966,130.184138 172.045534,129.591944 C171.77662,128.856376 171.553772,128.104775 171.378284,127.341506 C171.378284,127.341506 171.085814,124.171629 170.502627,123.754816 C169.91944,123.338004 170.001751,121.336252 170.001751,121.336252 C170.001751,121.336252 170.835377,119.711033 169.669002,119.043783 C168.502627,118.376532 151.555166,109.003503 151.555166,109.003503 L151.138354,96.5359019 C151.138354,96.5359019 150.845884,87.3222417 152.597198,84.2364273 C152.597198,84.2364273 152.388792,82.9019264 152.681261,82.1523643 C152.97373,81.4028021 152.639229,78.9824869 152.639229,78.9824869 L153.749562,70.1330998 Z" id="Path" fill="#565387"></path>
                        <path d="M142.821366,75.1348511 C142.821366,75.1348511 138.630473,74.2714536 137.504378,74.854641 C136.378284,75.4378284 134.176883,75.9054291 133.82662,76.2311734 C133.476357,76.5569177 132.658494,76.3152364 131.908932,78.2749562 C131.15937,80.234676 131.073555,82.234676 130.115587,83.1523643 C129.157618,84.0700525 128.656743,84.6952715 128.614711,85.3625219 C128.57268,86.0297723 128.739054,86.1961471 128.364273,86.41331 C127.989492,86.6304729 127.446585,87.497373 127.61296,87.8318739 C127.779335,88.1663748 136.301226,95.4938704 136.301226,95.4938704 C136.301226,95.4938704 136.71979,98.295972 137.094571,98.9964974 C137.469352,99.6970228 136.677758,109.462347 135.844133,110.129597 C135.010508,110.796848 141.472855,110.735552 141.472855,110.735552 C141.472855,110.735552 141.763573,104.334501 142.014011,104 C142.264448,103.665499 141.838879,96.8196147 141.838879,96.8196147 C141.838879,96.8196147 141.796848,90.9824869 142.339755,89.4395797 C142.882662,87.8966725 142.821366,82.7740806 142.821366,82.7740806 C142.821366,82.7740806 143.301226,79.6970228 143.884413,78.9789842 C144.467601,78.2609457 142.821366,75.1348511 142.821366,75.1348511 Z" id="Path" fill="#000000" opacity="0.1"></path>
                        <path d="M142.697023,75.0105079 C142.697023,75.0105079 138.504378,74.1471103 137.378284,74.7302977 C136.252189,75.3134851 134.050788,75.7723292 133.709282,76.1068301 C133.367776,76.441331 132.542907,76.1891419 131.782837,78.1488616 C131.022767,80.1085814 130.949212,82.1103327 129.989492,83.028021 C129.029772,83.9457093 128.530648,84.5709282 128.488616,85.2381786 C128.446585,85.9054291 128.614711,86.0718039 128.23993,86.2802102 C127.865149,86.4886165 127.322242,87.3642732 127.488616,87.6970228 C127.654991,88.0297723 136.161121,95.3695271 136.161121,95.3695271 C136.161121,95.3695271 136.577933,98.1716287 136.952715,98.8721541 C137.327496,99.5726795 136.535902,109.336252 135.702277,110.003503 C134.868651,110.670753 141.330998,110.609457 141.330998,110.609457 C141.330998,110.609457 141.623468,104.208406 141.873905,103.875657 C142.124343,103.542907 141.698774,96.6952715 141.698774,96.6952715 C141.698774,96.6952715 141.658494,90.8581436 142.19965,89.3152364 C142.740806,87.7723292 142.681261,82.642732 142.681261,82.642732 C142.681261,82.642732 143.161121,79.5656743 143.742557,78.849387 C144.323993,78.1330998 142.697023,75.0105079 142.697023,75.0105079 Z" id="Path" fill="#565387"></path>
                        <path d="M142.255692,71.4781086 C142.575733,72.3825084 142.739197,73.3348639 142.739054,74.2942207 C146.958393,75.5441106 151.48617,73.7546808 153.711033,69.9579685 C153.506779,68.931937 153.371044,67.8934478 153.304729,66.849387 C153.304729,66.849387 140.464098,66.1838879 142.255692,71.4781086 Z" id="Path" fill="#000000" opacity="0.1"></path>
                        <path d="M135.91944,64.8896673 C135.923938,69.9688826 139.904118,74.1555589 144.976616,74.4167402 C150.049113,74.6779215 154.438246,70.9221784 154.964392,65.8702858 C155.490538,60.8183932 151.969514,56.2388209 146.952057,55.4491508 C141.934601,54.6594808 137.177127,57.9361455 136.126095,62.9054291 C135.988125,63.5578132 135.918862,64.2228536 135.91944,64.8896673 Z" id="Path" fill="#EE8E9E"></path>
                        <path d="M129.789842,86.9877408 L127.497373,87.6970228 C127.497373,87.6970228 127.705779,88.530648 127.038529,88.9474606 C126.371278,89.3642732 126.455342,90.1996497 126.455342,90.1996497 C126.455342,90.1996497 126.204904,91.1155867 125.621716,91.323993 C125.038529,91.5323993 124.661996,92.9001751 124.661996,92.9001751 L122.744308,95.1103327 C122.744308,95.1103327 122.035026,95.6935201 122.161121,95.9859895 C122.287215,96.2784588 121.409807,96.3607706 121.409807,96.3607706 L121.868651,103.789842 L125.830123,104.541156 L128.281961,104.290718 L130.283713,103.539405 L132.035026,102.488616 L132.833625,100.462347 L136.336252,95.1260946 L129.789842,86.9877408 Z" id="Path" fill="#565387"></path>
                        <path d="M121.992995,96.9597198 C121.992995,96.9597198 116.914186,89.619965 113.112084,93.5814361 C109.309982,97.5429072 114.654991,103.963222 115.905429,103.754816 C117.155867,103.54641 123.119089,103.21366 123.119089,103.21366 L121.992995,96.9597198 Z" id="Path" fill="#EE8E9E"></path>
                        <path d="M117.92188,92.3941387 L117.92188,92.3941387 C120.892224,92.3941387 123.300164,94.8020783 123.300164,97.7724224 L123.300164,99.2400231 C123.300164,102.210367 120.892224,104.618307 117.92188,104.618307 L117.92188,104.618307 C114.951536,104.618307 112.543597,102.210367 112.543597,99.2400231 L112.543597,97.7724224 C112.543597,94.8020783 114.951536,92.3941387 117.92188,92.3941387 Z" id="Rectangle" fill="#30374E" transform="translate(117.921880, 98.506223) rotate(-42.050000) translate(-117.921880, -98.506223) "></path>
                        <path d="M117.92188,92.3941387 L117.92188,92.3941387 C120.892224,92.3941387 123.300164,94.8020783 123.300164,97.7724224 L123.300164,99.2400231 C123.300164,102.210367 120.892224,104.618307 117.92188,104.618307 L117.92188,104.618307 C114.951536,104.618307 112.543597,102.210367 112.543597,99.2400231 L112.543597,97.7724224 C112.543597,94.8020783 114.951536,92.3941387 117.92188,92.3941387 Z" id="Rectangle" fill="#000000" opacity="0.1" transform="translate(117.921880, 98.506223) rotate(-42.050000) translate(-117.921880, -98.506223) "></path>
                        <path d="M118.065166,91.7897512 L118.065166,91.7897512 C121.03551,91.7897512 123.44345,94.1976908 123.44345,97.1680349 L123.44345,98.6356356 C123.44345,101.60598 121.03551,104.013919 118.065166,104.013919 L118.065166,104.013919 C115.094822,104.013919 112.686883,101.60598 112.686883,98.6356356 L112.686883,97.1680349 C112.686883,94.1976908 115.094822,91.7897512 118.065166,91.7897512 Z" id="Rectangle" fill="#30374E" transform="translate(118.065166, 97.901835) rotate(-42.050000) translate(-118.065166, -97.901835) "></path>
                        <circle id="Oval" fill="#FF6347" cx="117.931699" cy="98.2031524" r="2.3765324"></circle>
                        <circle id="Oval" fill="#000000" opacity="0.1" cx="117.931699" cy="98.2031524" r="2.3765324"></circle>
                        <circle id="Oval" fill="#FF6347" cx="118.064799" cy="97.9019264" r="2.3765324"></circle>
                        <path d="M118.700525,98.4956217 C118.658494,104 130.042032,105.166375 130.042032,105.166375 L132.949212,105.628722 L134.252189,105.835377 L134.795096,100.462347 C134.795096,100.462347 134.197898,100.37303 133.451839,100.19965 C132.350263,99.9422067 130.922942,99.4991243 130.623468,98.8774081 C130.124343,97.8353765 118.740806,92.9929947 118.700525,98.4956217 Z" id="Path" fill="#EE8E9E"></path>
                        <path d="M136.126095,62.9054291 C136.388734,62.9247762 136.636433,63.0350021 136.82662,63.2171629 C137.148862,63.558669 137.166375,64.1646235 137.584939,64.3747811 C137.741354,64.4428551 137.914455,64.462969 138.082312,64.4325744 C139.190893,64.2749562 139.833625,63.0315236 140.896673,62.6812609 C141.502627,62.4851138 142.169877,62.6129597 142.761821,62.8406305 C142.999856,62.9152215 143.213406,63.0525471 143.380035,63.2381786 C143.730298,63.6987741 143.486865,64.3765324 143.651489,64.9352014 C143.880911,65.709282 144.805604,66.0175131 145.605954,66.1190893 C146.406305,66.2206655 147.308231,66.2767075 147.842382,66.8809107 C148.220665,67.3099825 148.316988,67.9316988 148.23993,68.4938704 C148.192717,68.690137 148.192717,68.8948017 148.23993,69.0910683 C148.460595,69.7162872 149.542907,69.6164623 149.824869,69.1295972 C150.031524,68.7705779 149.968476,68.4728546 150.455342,68.3730298 C150.784588,68.3047285 151.171629,68.4430823 151.476357,68.5481611 C152.325161,68.8410137 153.21976,68.9786442 154.117338,68.9544658 C155.665958,65.6304207 155.174428,61.7132008 152.852553,58.8748222 C150.530677,56.0364435 146.788589,54.7782743 143.223552,55.6373483 C139.658514,56.4964222 136.900252,59.3209934 136.126095,62.9054291 Z" id="Path" fill="#000000" opacity="0.1"></path>
                        <path d="M148.234676,68.8388792 C148.187463,68.6426126 148.187463,68.4379479 148.234676,68.2416813 C148.309982,67.676007 148.215412,67.056042 147.837128,66.6287215 C147.311734,66.0245184 146.401051,65.966725 145.600701,65.8669002 C144.80035,65.7670753 143.875657,65.4588441 143.646235,64.6847636 C143.481611,64.1260946 143.730298,63.4465849 143.374781,62.9859895 C143.209163,62.8003899 142.99601,62.6635359 142.758319,62.5901926 C142.164623,62.3607706 141.497373,62.2399299 140.891419,62.4290718 C139.828371,62.7793345 139.185639,64.0262697 138.077058,64.1803853 C137.909201,64.2107798 137.7361,64.1906659 137.579685,64.1225919 C137.161121,63.9124343 137.143608,63.3064799 136.821366,62.966725 C136.315236,62.4308231 135.353765,62.7758319 134.7338,62.3782837 C134.329247,62.117338 134.17338,61.6112084 134.061296,61.1436077 C133.84063,60.2364273 133.663748,59.2854641 133.875657,58.3782837 C134.238179,56.82662 135.62697,55.7635727 136.502627,54.4395797 C137.327496,53.2049037 137.789842,51.6374781 139.029772,50.8248687 C140.269702,50.0122592 141.861646,50.1926445 143.259194,50.6077058 C143.914186,50.8021016 144.562172,51.0437828 145.23993,51.1330998 C146.367776,51.2714536 147.499124,50.9579685 148.633975,50.9264448 C150.236867,50.8746588 151.812094,51.3529518 153.115587,52.2872154 C153.40929,52.4795484 153.658808,52.7320514 153.847636,53.028021 C154.073555,53.4273205 154.103327,53.9036778 154.171629,54.3555166 C154.304066,55.2174164 154.601373,56.0457147 155.047285,56.7950963 C155.397548,57.3817863 155.837128,57.9141856 156.154116,58.5201401 C156.471103,59.1260946 156.656743,59.8423818 156.45359,60.4938704 C156.34676,60.8441331 156.134851,61.1471103 156.056042,61.4991243 C155.870403,62.3134851 156.406305,63.0910683 156.772329,63.8423818 C157.126836,64.5276258 157.294748,65.294104 157.259194,66.0647986 C157.21779,66.8404505 156.856275,67.5641148 156.260946,68.0630473 C155.670753,68.525394 154.894921,68.6795096 154.14711,68.704028 C153.232094,68.7348836 152.31917,68.5977671 151.45359,68.2994746 C151.14711,68.1943958 150.753065,68.056042 150.432574,68.1243433 C149.945709,68.2241681 150.008757,68.5218914 149.802102,68.8809107 C149.535902,69.3712785 148.455342,69.4640981 148.234676,68.8388792 Z" id="Path" fill="#434175"></path>
                        <path d="M143.091068,122.67951 L148.469352,118.476357 L156.935201,110.136602 C156.935201,110.136602 155.796848,110.08056 154.1331,110.010508 C153.830123,110.318739 153.56042,110.711033 153.542907,111.148862 C153.500876,112.168126 151.25394,111.220665 150.087566,111.803853 C148.921191,112.38704 143.208406,119.697023 142.206655,119.649737 C141.204904,119.602452 140.415061,119.141856 139.996497,119.851138 C139.987607,119.867528 139.977662,119.883323 139.966725,119.898424 C139.800332,120.088445 139.577604,120.220364 139.330998,120.274956 L143.091068,122.67951 Z" id="Path" fill="#000000" opacity="0.1"></path>
                        <path d="M132.250438,122.38704 L134.952715,131.014011 L135.376532,132.369527 L136.663748,132.019264 L139.500876,131.23993 L152.138354,127.768827 C152.138354,127.768827 154.513135,127.737303 156.691769,126.555166 C159.099825,125.245184 161.816112,124.58669 164.544658,124.842382 C166.215412,124.998249 168.073555,124.278459 169.623468,121.430823 C169.623468,121.430823 173.126095,111.098074 164.285464,108.120841 C155.444834,105.143608 155.024518,109.697023 155.024518,109.697023 C155.024518,109.697023 154.978984,109.721541 154.905429,109.770578 C154.555166,109.989492 153.600701,110.677758 153.565674,111.521891 C153.523643,112.541156 151.276708,111.591944 150.110333,112.175131 C148.943958,112.758319 143.231173,120.070053 142.229422,120.022767 C141.227671,119.975482 140.437828,119.514886 140.019264,120.224168 C140.019264,120.23993 140,120.25394 139.989492,120.269702 C139.681261,120.695271 138.753065,120.795096 138.138354,120.810858 C137.803853,120.821366 137.56042,120.810858 137.56042,120.810858 L137.481611,120.835377 L136.82662,121.017513 L132.250438,122.38704 Z" id="Path" fill="#434175"></path>
                        <path d="M132.949212,105.628722 L134.252189,105.835377 L134.795096,100.462347 C134.795096,100.462347 134.197898,100.37303 133.451839,100.19965 C133.649737,100.943958 133.201401,103.845884 132.949212,105.628722 Z" id="Path" fill="#000000" opacity="0.1"></path>
                        <path d="M167.043783,80.497373 C167.043783,80.497373 170.921191,79.3712785 169.961471,90.380035 C169.001751,101.388792 161.831874,108.343257 161.831874,108.343257 C161.831874,108.343257 153.576182,111.970228 149.865149,111.38704 C146.154116,110.803853 143.444834,110.686515 143.444834,110.686515 C142.276857,110.096102 140.998672,109.755531 139.691769,109.686515 C137.605954,109.602452 133.229422,108.309982 133.145359,107.89317 C133.061296,107.476357 134.229422,101.34676 133.728546,100.887916 C133.728546,100.887916 139.565674,101.127846 140.150613,101.549912 C140.735552,101.971979 141.567426,101.669002 142.192644,101.549912 C142.817863,101.430823 144.737303,99.7618214 148.530648,101.222417 C148.530648,101.222417 149.823117,101.34676 150.323993,101.014011 C150.824869,100.681261 151.62697,100.929947 151.62697,100.929947 C151.62697,100.929947 152.41331,100.637478 152.534151,100.462347 C152.654991,100.287215 153.658494,100.462347 153.658494,100.462347 C153.779189,100.521307 153.920065,100.522571 154.041798,100.465785 C154.163532,100.408998 154.253086,100.300244 154.285464,100.169877 C154.416447,99.8285342 154.61478,99.517039 154.868651,99.2539405 C154.868651,99.2539405 155.994746,92.915937 158.120841,90.5394046 C158.120841,90.5394046 158.74606,89.9964974 158.579685,89.3292469 C158.41331,88.6619965 162.045534,79.1611208 167.043783,80.497373 Z" id="Path" fill="#000000" opacity="0.1"></path>
                        <path d="M166.949212,79.6497373 C166.949212,79.6497373 170.82662,78.5236427 169.868651,89.5323993 C168.910683,100.541156 161.728546,107.502627 161.728546,107.502627 C161.728546,107.502627 153.472855,111.129597 149.761821,110.54641 C146.050788,109.963222 143.341506,109.837128 143.341506,109.837128 C142.173658,109.246377 140.8954,108.905787 139.588441,108.837128 C137.504378,108.753065 133.126095,107.460595 133.042032,107.043783 C132.957968,106.62697 134.126095,100.497373 133.62697,100.038529 C133.62697,100.038529 139.464098,100.278459 140.047285,100.700525 C140.630473,101.122592 141.465849,100.819615 142.091068,100.700525 C142.716287,100.581436 144.633975,98.9141856 148.429072,100.37303 C148.429072,100.37303 149.721541,100.497373 150.220665,100.164623 C150.71979,99.8318739 151.525394,100.08056 151.525394,100.08056 C151.525394,100.08056 152.30648,99.7880911 152.430823,99.6217163 C152.555166,99.4553415 153.556918,99.6217163 153.556918,99.6217163 C153.677123,99.6807267 153.817568,99.6822089 153.938992,99.6257484 C154.060416,99.5692879 154.149792,99.4609422 154.182137,99.3309982 C154.312825,98.9889882 154.511179,98.6768639 154.765324,98.41331 C154.765324,98.41331 155.891419,92.0753065 158.017513,89.6987741 C158.017513,89.6987741 158.642732,89.1558669 158.476357,88.4903678 C158.309982,87.8248687 161.936953,78.3152364 166.949212,79.6497373 Z" id="Path" fill="#565387"></path>
                        <path d="M136.82662,121.017513 L142.33275,127.672504 C142.353765,127.65324 142.367776,127.639229 142.367776,127.633975 C142.409807,127.507881 142.950963,126.091068 142.82662,126.007005 C142.702277,125.922942 141.742557,123.838879 139.824869,122.963222 C138.65324,122.437828 137.886165,121.476357 137.467601,120.817863 L136.82662,121.017513 Z" id="Path" fill="#000000" opacity="0.1"></path>
                        <path d="M136.901926,132.548161 L137.504378,132.898424 C137.504378,132.898424 138.905429,131.777583 140.290718,130.649737 C141.676007,129.521891 143.028021,128.416813 143.050788,128.353765 C143.091068,128.229422 143.632224,126.810858 143.507881,126.728546 C143.443082,126.684764 143.157618,126.10683 142.632224,125.437828 C138.898424,124.38704 141.274956,126.984238 141.591944,127.103327 C141.591944,127.103327 137.038529,126.052539 136.796848,131.010508 C136.763817,131.52545 136.799151,132.042499 136.901926,132.548161 Z" id="Path" fill="#000000" opacity="0.1"></path>
                        <path d="M141.50613,134.646235 L142.299475,135.105079 L150.355517,135.313485 C150.355517,135.313485 152.082312,136.364273 153.203152,136.683012 C153.335227,136.724202 153.470566,136.754082 153.607706,136.772329 C154.353344,136.832687 155.10201,136.846725 155.849387,136.814361 C156.465849,136.798599 156.943958,136.772329 156.943958,136.772329 C156.943958,136.772329 156.562172,126.614711 156.274956,125.563923 C156.138354,125.052539 155.464098,125.164623 154.798599,125.420315 C154.298614,125.623093 153.816486,125.867379 153.357268,126.150613 C153.357268,126.150613 149.938704,126.481611 149.395797,126.775832 C148.85289,127.070053 147.311734,126.600701 146.352014,126.775832 C145.392294,126.950963 143.684764,125.646235 143.684764,125.646235 C139.014011,124.105079 141.640981,126.980736 141.97373,127.10683 C141.97373,127.10683 137.430823,126.056042 137.180385,131.014011 C136.929947,135.971979 141.50613,134.646235 141.50613,134.646235 Z" id="Path" fill="#565387"></path>
                        <path d="M153.140105,130.726795 C153.227671,132.828371 154.865149,135.436077 155.84063,136.814361 C156.457093,136.798599 156.935201,136.772329 156.935201,136.772329 C156.935201,136.772329 156.553415,126.614711 156.2662,125.563923 C156.129597,125.052539 155.455342,125.164623 154.789842,125.420315 C153.989492,126.926445 153.070053,129.033275 153.140105,130.726795 Z" id="Path" fill="#565387"></path>
                        <path d="M153.140105,130.726795 C153.227671,132.828371 154.865149,135.436077 155.84063,136.814361 C156.457093,136.798599 156.935201,136.772329 156.935201,136.772329 C156.935201,136.772329 156.553415,126.614711 156.2662,125.563923 C156.129597,125.052539 155.455342,125.164623 154.789842,125.420315 C153.989492,126.926445 153.070053,129.033275 153.140105,130.726795 Z" id="Path" fill="#000000" opacity="0.1"></path>
                        <path d="M151.763573,131.005254 C152.316988,133.033275 152.311734,135.308231 153.194396,136.683012 C153.32647,136.724202 153.461809,136.754082 153.598949,136.772329 C154.344588,136.832687 155.093253,136.846725 155.84063,136.814361 C156.457093,136.798599 156.935201,136.772329 156.935201,136.772329 C156.935201,136.772329 156.553415,126.614711 156.2662,125.563923 C156.129597,125.052539 155.455342,125.164623 154.789842,125.420315 C154.289858,125.623093 153.80773,125.867379 153.348511,126.150613 C153.348511,126.150613 151.056042,128.409807 151.763573,131.005254 Z" id="Path" fill="#000000" opacity="0.05"></path>
                        <path d="M124.001751,110.434326 C124.001751,110.434326 127.998249,111.732049 131.385289,116.341506 L124.001751,110.434326 Z" id="Path" fill="#000000" opacity="0.1"></path>
                        <g id="Group" opacity="0.1" transform="translate(133.625219, 57.443082)" fill="#000000">
                            <path d="M22.8563923,2.95971979 C22.8498497,2.98934046 22.8416643,3.01857419 22.8318739,3.04728546 C22.7935887,3.16698375 22.7473684,3.2839973 22.6935201,3.39754816 C22.734639,3.24703821 22.7891472,3.10051079 22.8563923,2.95971979 Z" id="Path"></path>
                            <path d="M0.243432574,0.936952715 C0.312737401,0.64478378 0.41680693,0.361973366 0.553415061,0.0945709282 C0.532399299,0.166374781 0.509632224,0.238178634 0.492119089,0.3117338 C0.280210158,1.21891419 0.45709282,2.16987741 0.677758319,3.07705779 C0.791593695,3.54465849 0.945709282,4.05078809 1.3502627,4.3117338 C1.97197898,4.70928196 2.92644483,4.36252189 3.43782837,4.89842382 C3.76007005,5.23992995 3.77758319,5.84588441 4.19789842,6.05604203 C4.35428557,6.12421901 4.52741818,6.14433653 4.69527145,6.11383538 C5.80210158,5.95621716 6.44658494,4.71278459 7.50963222,4.36252189 C8.11558669,4.16637478 8.78108581,4.29422067 9.37478109,4.52364273 C9.61247257,4.59698601 9.82562562,4.73383996 9.99124343,4.91943958 C10.3415061,5.38003503 10.0980736,6.05954466 10.262697,6.61646235 C10.4921191,7.39054291 11.4168126,7.69877408 12.2171629,7.79859895 C13.0175131,7.89842382 13.9194396,7.95621716 14.4535902,8.56217163 C14.8318739,8.98949212 14.9281961,9.61295972 14.8511384,10.1751313 C14.8047758,10.3714979 14.8047758,10.5759627 14.8511384,10.7723292 C15.0718039,11.3975482 16.1541156,11.2977233 16.4273205,10.8108581 C16.6339755,10.4518389 16.5726795,10.1541156 17.0595447,10.0542907 C17.3870403,9.98598949 17.7740806,10.1243433 18.0788091,10.2294221 C18.9443893,10.5277145 19.8573126,10.6648311 20.7723292,10.6339755 C21.5201401,10.6077058 22.2977233,10.4588441 22.8861646,9.99299475 C23.1550329,9.77864223 23.3758076,9.51013251 23.5341506,9.20490368 C23.3969761,9.7606353 23.0836428,10.2570535 22.6409807,10.619965 C22.0525394,11.0823117 21.2767075,11.2364273 20.5271454,11.2609457 C19.6126932,11.2919438 18.7003184,11.1548204 17.8353765,10.8563923 C17.5288967,10.7513135 17.1348511,10.6129597 16.8143608,10.6812609 C16.3274956,10.7810858 16.3887916,11.0788091 16.1838879,11.4378284 C15.9001751,11.9316988 14.8196147,12.0245184 14.5971979,11.3992995 C14.5508354,11.202933 14.5508354,10.9984681 14.5971979,10.8021016 C14.6742557,10.2364273 14.5796848,9.61646235 14.2014011,9.18914186 C13.6654991,8.5849387 12.7635727,8.52714536 11.9632224,8.42732049 C11.1628722,8.32749562 10.2381786,8.01926445 10.0105079,7.24518389 C9.8441331,6.68651489 10.0945709,6.00700525 9.73905429,5.54640981 C9.57249368,5.3610858 9.3588647,5.22431484 9.12084063,5.15061296 C8.52714536,4.92119089 7.86164623,4.80035026 7.25569177,4.98949212 C6.19089317,5.33975482 5.54816112,6.58669002 4.441331,6.7408056 C4.27347773,6.77130676 4.10034512,6.75118924 3.94395797,6.68301226 C3.52364273,6.47285464 3.5061296,5.86690018 3.18388792,5.52714536 C2.67775832,4.99124343 1.71803853,5.33625219 1.09807356,4.93870403 C0.691768827,4.67775832 0.53765324,4.17162872 0.423817863,3.70402802 C0.206654991,2.79509632 0.0297723292,1.8441331 0.243432574,0.936952715 Z" id="Path"></path>
                        </g>
                        <path d="M157.127846,91.7513135 C156.364273,92.7828371 155.492119,93.737303 154.816112,94.8283713 C154.140105,95.9194396 153.661996,97.1926445 153.803853,98.4676007 C154.504378,97.7495622 154.823117,96.7583187 155.264448,95.8581436 C156.010508,94.3345009 157.127846,93.0420315 158.06655,91.6409807 C158.241681,91.3730298 159.399299,89.8283713 158.816112,89.7548161 C158.336252,89.6935201 157.388792,91.3992995 157.127846,91.7513135 Z" id="Path" fill="#000000" opacity="0.1"></path>
                    </g>
                </g>
            </g>
        </g>
    </g>
</svg>