<?xml version="1.0" encoding="UTF-8"?>
<svg width="200px" height="116px" viewBox="0 0 200 116" version="1.1" xmlns="http://www.w3.org/2000/svg" xmlns:xlink="http://www.w3.org/1999/xlink">
    <!-- Generator: Sketch 52.5 (67469) - http://www.bohemiancoding.com/sketch -->
    <title>undraw_finance_0bdk</title>
    <desc>Created with Sketch.</desc>
    <defs>
        <linearGradient x1="49.9999955%" y1="99.9890645%" x2="49.9999955%" y2="-0.00273388376%" id="linearGradient-1">
            <stop stop-color="#808080" stop-opacity="0.25" offset="0%"></stop>
            <stop stop-color="#808080" stop-opacity="0.12" offset="54%"></stop>
            <stop stop-color="#808080" stop-opacity="0.1" offset="100%"></stop>
        </linearGradient>
        <linearGradient x1="50.0209332%" y1="99.9891695%" x2="50.0209332%" y2="-0.0128016178%" id="linearGradient-2">
            <stop stop-color="#808080" stop-opacity="0.25" offset="0%"></stop>
            <stop stop-color="#808080" stop-opacity="0.12" offset="54%"></stop>
            <stop stop-color="#808080" stop-opacity="0.1" offset="100%"></stop>
        </linearGradient>
    </defs>
    <g id="Home-v1" stroke="none" stroke-width="1" fill="none" fill-rule="evenodd">
        <g id="Main-page" transform="translate(-274.000000, -8304.000000)">
            <g id="Mission----as-a-developer-v2" transform="translate(274.000000, 7658.000000)">
                <g id="Worry-free-scale" transform="translate(0.000000, 646.000000)">
                    <g id="undraw_finance_0bdk">
                        <path d="M49.5790576,75.4157068 C37.4994764,71.2418848 23.6879581,67.7089005 12.4020942,73.7068063 C10.9717277,74.4670157 9.56230366,75.4240838 8.79162304,76.8481675 C6.75602094,80.5947644 9.99162304,85.4534031 8.41465969,89.4136126 C6.83769634,93.373822 0.902617801,95.3675393 1.38848168,99.5979058 C1.51623037,100.703665 2.11518325,101.704712 2.82094241,102.567539 C7.24188482,107.968586 15.3465969,108.515183 22.1968586,107.174869 C29.0471204,105.834555 35.7465969,103.055497 42.7204188,103.405236 C49.4219895,103.750785 55.5874346,106.965445 61.7277487,109.671204 C72.0795812,114.245026 84.1696335,117.526702 94.513089,112.929843 C99.252356,110.823037 103.170681,107.235602 107.706806,104.73089 C113.819853,101.38653 120.846534,100.097203 127.748691,101.053403 C132.356021,101.702618 136.753927,103.336126 141.262827,104.462827 C151.503665,107.019895 162.19267,106.936126 172.74555,106.835602 C174.709948,106.816754 176.705759,106.793717 178.588482,106.232461 C181.375916,105.394764 183.675393,103.465969 185.889005,101.579058 C188.797906,99.1015707 191.86178,96.3790576 192.8,92.6743455 C193.907853,88.2764398 191.61466,83.6020942 188.213613,80.6136126 C184.812565,77.6251309 180.464921,75.991623 176.22199,74.4167539 C175.174869,74.0314136 174.056545,73.6397906 172.984293,73.9308901 C172.280628,74.1235602 171.687958,74.5926702 171.162304,75.0973822 C168.150785,77.9958115 165.606283,82.8984293 161.499476,82.1109948 C160.033508,81.8303665 158.833508,80.8104712 157.673298,79.8680628 C151.478534,74.8418848 143.14555,70.9612565 135.66911,73.7382199 C130.201047,75.7696335 126.341361,80.9863874 120.8,82.8272251 C116.858639,84.1382199 112.575916,83.5706806 108.429319,83.826178 C102.397906,84.1947644 96.5277487,86.3267016 90.4879581,86.1968586 C75.086911,85.8659686 62.2554974,71.139267 46.9172775,72.5424084 C45.7151832,72.6513089 44.4041885,72.9277487 43.6670157,73.878534" id="Path" fill="#FF6347" opacity="0.5"></path>
                        <path d="M30.1570681,61.4073298 C30.1570681,61.4073298 17.3591623,69.1329843 40.9591623,81.0324607 C40.9591623,81.0324607 46.1591623,71.3780105 40.4104712,63.5057592 C38.1014874,60.3311034 33.7832249,59.3846842 30.3581152,61.3026178 L30.1570681,61.4073298 Z" id="Path" fill="#FF6347"></path>
                        <path d="M30.3099476,61.2460733 C30.3099476,61.2460733 41.2670157,69.6230366 40.9612565,81.026178" id="Path" stroke="#535461"></path>
                        <path d="M192.073298,54.9717277 C194.665969,64.452356 183.606283,91.4617801 183.606283,91.4617801 C183.606283,91.4617801 160.335079,73.8429319 157.740314,64.3623037 C155.892658,58.1744782 157.541102,51.4712986 162.04788,46.8461534 C166.554658,42.2210081 173.212859,40.3993751 179.446496,42.0860246 C185.680132,43.7726742 190.511427,48.7030465 192.071204,54.9696335 L192.073298,54.9717277 Z" id="Path" fill="#FF6347"></path>
                        <path d="M192.073298,54.9717277 C194.665969,64.452356 183.606283,91.4617801 183.606283,91.4617801 C183.606283,91.4617801 160.335079,73.8429319 157.740314,64.3623037 C155.892658,58.1744782 157.541102,51.4712986 162.04788,46.8461534 C166.554658,42.2210081 173.212859,40.3993751 179.446496,42.0860246 C185.680132,43.7726742 190.511427,48.7030465 192.071204,54.9696335 L192.073298,54.9717277 Z" id="Path" fill="#000000" opacity="0.1"></path>
                        <path d="M170.305759,42.5549738 C170.305759,42.5549738 184.791623,64.4230366 183.708901,91.5141361" id="Path" stroke="#535461"></path>
                        <path d="M195.769634,72.2994764 C195.769634,72.2994764 182.634555,65.1539267 184.297382,91.5308901 C184.297382,91.5308901 195.25445,91.139267 199.143455,82.2010471 C200.717396,78.6029285 199.35057,74.3962708 195.962304,72.4104712 L195.769634,72.2994764 Z" id="Path" fill="#FF6347"></path>
                        <path d="M195.98534,72.3455497 C195.98534,72.3455497 194.289005,86.0376963 184.297382,91.5308901" id="Path" stroke="#535461"></path>
                        <path d="M3.46806283,69.3591623 C3.46806283,69.3591623 -9.33612565,77.0827225 14.2659686,88.9759162 C14.2659686,88.9759162 19.4659686,79.321466 13.7172775,71.4492147 C11.4082936,68.2745589 7.09003114,67.3281397 3.66492147,69.2460733 L3.46806283,69.3591623 Z" id="Path" fill="#FF6347"></path>
                        <path d="M3.61465969,69.1979058 C3.61465969,69.1979058 14.5717277,77.5748691 14.2659686,88.9780105" id="Path" stroke="#535461"></path>
                        <path d="M163.231414,79.4136126 L149.775916,79.4136126 C150.085516,78.7909406 150.246113,78.1048169 150.245026,77.4094241 L150.245026,16.1403141 C150.245026,13.6524304 148.228198,11.6356021 145.740314,11.6356021 L41.5874346,11.6356021 C39.0995508,11.6356021 37.0827225,13.6524304 37.0827225,16.1403141 L37.0827225,77.4115183 C37.0816352,78.1069112 37.2422326,78.7930349 37.5518325,79.4157068 L23.6209424,79.4157068 C23.3038128,79.4157024 22.9997628,79.5421101 22.7761086,79.7669435 C22.5524544,79.9917768 22.4276473,80.2964873 22.4293194,80.6136126 L22.4293194,81.5748691 C22.4293194,85.2552253 25.4128375,88.2387435 29.0931937,88.2387435 L157.759162,88.2387435 C159.526532,88.2387435 161.221514,87.5366587 162.471233,86.2869398 C163.720952,85.037221 164.423037,83.3422385 164.423037,81.5748691 L164.423037,80.6136126 C164.425269,80.2961256 164.300709,79.9908751 164.076994,79.7655874 C163.853279,79.5402996 163.548908,79.4136047 163.231414,79.4136126 Z M80.3225131,83.2251309 L79.1623037,81.9162304 L107.80733,81.9162304 L106.529843,83.2272251 L80.3225131,83.2251309 Z" id="Shape" fill="url(#linearGradient-1)" fill-rule="nonzero"></path>
                        <rect id="Rectangle" fill="#535461" x="38.3581152" y="12.5026178" width="110.601047" height="68.6890052" rx="23.26"></rect>
                        <rect id="Rectangle" fill="#FFFFFF" x="40.686911" y="22.5151832" width="105.710995" height="56.1151832"></rect>
                        <circle id="Oval" fill="#FFFFFF" cx="93.5434555" cy="17.6251309" r="1"></circle>
                        <path d="M109.863874,78.7455497 L106.232461,82.4712042 L80.6282723,82.4712042 L77.3465969,78.7455497 L25.2020942,78.7455497 C24.559015,78.7455497 24.0376963,79.2668684 24.0376963,79.9099476 L24.0376963,80.8481675 C24.0376963,84.4452473 26.9537056,87.3612565 30.5507853,87.3612565 L156.301571,87.3612565 C158.028949,87.3612565 159.685579,86.6750581 160.90702,85.4536169 C162.128461,84.2321758 162.81466,82.5755461 162.81466,80.8481675 L162.81466,79.9099476 C162.81466,79.2668684 162.293341,78.7455497 161.650262,78.7455497 L109.863874,78.7455497 Z" id="Path" fill="#535461"></path>
                        <polyline id="Path" stroke="#535461" stroke-width="2" points="54.1926702 26.008377 54.1926702 73.7403141 133.124607 73.7403141"></polyline>
                        <rect id="Rectangle" fill="#FF6347" opacity="0.5" x="61.1769634" y="59.304712" width="8.1486911" height="12.573822"></rect>
                        <rect id="Rectangle" fill="#FF6347" opacity="0.7" x="75.147644" y="48.1277487" width="8.1486911" height="23.7507853"></rect>
                        <rect id="Rectangle" fill="#FF6347" opacity="0.5" x="89.1183246" y="54.8795812" width="8.1486911" height="16.9968586"></rect>
                        <rect id="Rectangle" fill="#FF6347" opacity="0.8" x="103.089005" y="44.4020942" width="8.1486911" height="27.4764398"></rect>
                        <rect id="Rectangle" fill="#FF6347" x="117.059686" y="34.6219895" width="8.1486911" height="37.2544503"></rect>
                        <polyline id="Path" stroke="#535461" stroke-width="2" points="65.1350785 51.6209424 79.3382199 38.8146597 93.3089005 50.921466 107.04712 36.2534031 121.017801 30.4314136"></polyline>
                        <circle id="Oval" fill="#FF6347" cx="65.1350785" cy="51.6209424" r="1.62931937"></circle>
                        <circle id="Oval" fill="#FF6347" cx="93.0764398" cy="50.6890052" r="1.62931937"></circle>
                        <circle id="Oval" fill="#FF6347" cx="107.279581" cy="36.2534031" r="1.62931937"></circle>
                        <circle id="Oval" fill="#FF6347" cx="79.3382199" cy="38.5801047" r="1.62931937"></circle>
                        <circle id="Oval" fill="#FF6347" cx="121.017801" cy="30.4314136" r="1.62931937"></circle>
                        <path d="M181.635602,80.7853403 C180.776963,80.5026178 179.503665,80.1759162 178.494241,80.2910995 C177.532984,79.9413613 175.273298,79.034555 173.729843,77.6691099 C173.774347,76.3265472 173.740082,74.98253 173.627225,73.6439791 C172.837696,64.6659686 174.613613,58.747644 174.613613,58.747644 C174.613613,58.747644 176.008377,54.2324607 175.855497,50.4858639 C175.94555,50.6554974 175.995812,50.7560209 175.995812,50.7560209 C176.117277,47.5246073 177.218848,44.1801047 178.043979,42.0963351 C178.075445,42.0873482 178.106237,42.0761511 178.136126,42.0628272 L179.057592,39.8764398 C179.13101,39.7489068 179.189343,39.6132655 179.231414,39.4722513 L179.380105,39.1267016 L179.336126,39.1078534 C179.350785,39.0513089 179.365445,38.9905759 179.380105,38.9298429 C179.968586,36.4397906 180.427225,30.5340314 180.427225,30.5340314 C182.006283,24.3183246 178.257592,20.4816754 178.257592,20.4816754 L171.895288,15.0073298 C171.926957,15.0785931 171.94812,15.1540738 171.958115,15.2314136 L171.905759,15.1853403 C171.815707,14.9277487 171.717277,14.6198953 171.620942,14.2680628 C171.845351,14.1069248 172.055543,13.92686 172.249215,13.7298429 C172.972608,13.04668 173.47018,12.1589402 173.675393,11.1853403 C173.798773,10.4239793 173.830413,9.65057021 173.769634,8.88167539 L173.664921,6.2408377 C173.660164,5.72400186 173.607584,5.20871543 173.507853,4.70157068 C173.028272,2.60732984 170.881675,1.14136126 168.726702,1.04502618 C168.041039,1.04103364 167.355736,1.07739668 166.674346,1.1539267 C166.117117,1.19970428 165.557623,1.21159354 164.998953,1.1895288 C164.935337,1.1928989 164.872289,1.17603702 164.818848,1.14136126 C164.77035,1.09298771 164.742563,1.02765058 164.741361,0.959162304 C164.719127,0.71147056 164.799356,0.465486389 164.963351,0.278534031 C165.047643,0.204600353 165.14592,0.148340549 165.252356,0.113089005 L165.099476,0.148691099 C165.17483,0.0892549746 165.259836,0.0432097261 165.350785,0.012565445 C164.79218,0.110780765 164.254986,0.305673161 163.763351,0.588481675 C163.627891,0.677478281 163.503462,0.782223518 163.39267,0.90052356 C163.099833,1.15747387 162.909481,1.51141008 162.856545,1.8973822 C162.594181,1.67585045 162.398437,1.38585985 162.291099,1.05968586 C162.257761,0.926310072 162.257761,0.786778933 162.291099,0.653403141 C162.253403,0.69947644 162.217103,0.746945899 162.182199,0.795811518 C162.182199,0.781151832 162.182199,0.766492147 162.182199,0.751832461 C161.777483,1.2493058 161.491046,1.83220532 161.344503,2.4565445 C161.230644,2.31997713 161.176326,2.14344415 161.193717,1.96649215 C161.162304,2.06492147 161.132984,2.16335079 161.105759,2.2617801 C161.096249,2.19650513 161.096249,2.13019644 161.105759,2.06492147 C160.859173,2.81993175 160.747865,3.61255823 160.776963,4.40628272 C160.776963,5.19790576 161.128796,6.43141361 161.976963,6.70994764 C162.020942,6.72460733 162.064921,6.73507853 162.110995,6.74554974 C161.142087,8.25068832 160.994131,10.1419002 161.71718,11.7794059 C162.440229,13.4169117 163.937552,14.5816426 165.702618,14.8795812 C165.716579,14.9759162 165.729843,15.0771379 165.742408,15.1832461 L165.775916,15.1832461 C165.798953,15.3926702 165.817801,15.6230366 165.830366,15.8575916 C165.61631,16.0673125 165.382008,16.2553157 165.13089,16.4188482 C164.418867,16.8397571 163.624641,17.1025946 162.802094,17.1895288 C161.819834,17.266597 160.865288,17.5521755 160.002094,18.0272251 C158.986387,18.5947644 157.865969,19.4219895 157.514136,20.4272251 C156.927749,22.1026178 153.698429,24.7099476 151.532984,25.034555 L150.762304,24.9905759 L150.705759,24.973822 L150.705759,24.9884817 L150.517277,24.9780105 L150.506806,24.9780105 L150.456545,24.9780105 L150.456545,24.9884817 L150.26178,24.9780105 C150.26178,24.9780105 150.242932,25.0680628 150.215707,25.2272251 C149.126702,24.852356 146.812565,23.8136126 143.801047,21.0806283 C140.450262,18.0376963 135.91623,18.6366492 134.167539,19.0198953 C134.04572,19.0467703 133.95332,19.1463452 133.935612,19.2698306 C133.917905,19.393316 133.9786,19.5148441 134.087958,19.5748691 C134.793717,19.9623037 135.886911,20.5256545 136.391623,20.5884817 C136.391623,20.5884817 135.344503,21.6837696 136.458639,22.2638743 C136.731141,22.3956259 137.054415,22.3641068 137.296335,22.182199 C137.836649,21.7863874 139.33822,22.6827225 141.514136,23.1497382 C141.514136,23.1497382 147.65445,29.5036649 150.703665,30.4795812 C150.773926,30.6183395 150.851523,30.7532598 150.936126,30.8837696 L151.124607,30.8691099 L151.124607,30.8837696 L151.204188,30.8837696 L151.227225,31.0931937 C151.227225,31.0931937 155.968586,30.8439791 157.509948,29.1225131 C157.61908,29.0248017 157.719301,28.9175725 157.809424,28.8020942 L156.161257,49.5350785 L156.175916,49.5350785 L156.161257,49.7319372 L157.373822,49.7319372 C157.477581,52.2818537 157.367598,54.835981 157.045026,57.3675393 L157.045026,70.8837696 C157.045026,70.8837696 156.982199,72.0732984 159.453403,73.8157068 C162.04441,75.6195794 164.541229,77.5551041 166.934031,79.6146597 L167.233508,79.8743455 C166.779058,84.0104712 165.828272,91.7193717 165.034555,92.0062827 L165.524607,92.0921466 C164.686911,93.1539267 162.307853,96.0712042 161.583246,96.1486911 C160.695288,96.2471204 160.102618,97.6293194 161.583246,97.9246073 C164.539639,98.4363699 167.579481,98.1367284 170.379058,97.0575916 C170.953622,96.8309145 171.299359,96.2414335 171.216754,95.6293194 L170.929843,93.4513089 C170.984162,93.4814967 171.027994,93.5275196 171.055497,93.5832461 C171.252356,94.1759162 171.055497,92.7937173 171.055497,92.7937173 C171.866796,90.1861383 172.504148,87.5275915 172.963351,84.8356021 L175.895288,87.3696335 C175.895288,87.3696335 175.953927,87.2963351 176.056545,87.1602094 C176.774869,88.7895288 178.056545,92.1235602 177.769634,94.565445 C177.375916,97.9162304 181.120419,94.9591623 180.728796,92.9863874 C180.410471,91.3905759 181.834555,84.626178 182.389529,82.0963351 C182.513429,81.5303751 182.187086,80.9629002 181.635602,80.7853403 Z" id="Path" fill="url(#linearGradient-2)"></path>
                        <path d="M150.994764,26.0565445 C150.994764,26.0565445 148.201047,25.5748691 144.058639,21.817801 C140.781152,18.8460733 136.360209,19.4303665 134.655497,19.8052356 C134.536527,19.8309454 134.446113,19.9279594 134.428834,20.0484429 C134.411556,20.1689265 134.471061,20.2874407 134.57801,20.3455497 C135.267016,20.7225131 136.335079,21.2732984 136.835602,21.3361257 C136.835602,21.3361257 135.803141,22.4041885 136.900524,22.9759162 C137.168492,23.1075255 137.487778,23.0767315 137.725654,22.8963351 C138.253403,22.5109948 139.719372,23.3863874 141.845026,23.8408377 C141.845026,23.8408377 150.129843,32.4146597 152.056545,30.9612565 L150.994764,26.0565445 Z" id="Path" fill="#FEC3BE"></path>
                        <path d="M165.258639,14.4 C165.258639,14.4 166.029319,17.6753927 165.258639,19.9874346 L168.726702,20.4691099 L171.809424,18.9277487 L171.809424,16.904712 C171.809424,16.904712 170.364398,13.8219895 170.749738,10.2575916 L165.258639,14.4 Z" id="Path" fill="#FEC3BE"></path>
                        <path d="M175.078534,85.3947644 C175.078534,85.3947644 177.591623,90.3078534 177.197906,93.5832461 C176.804188,96.8586387 180.473298,93.9685864 180.087958,92.0418848 C179.775916,90.4837696 181.166492,83.8743455 181.708901,81.4157068 C181.830683,80.8653018 181.515633,80.3121538 180.980105,80.1361257 C179.82199,79.7549738 177.882723,79.2879581 176.908901,80.0020942 C175.470157,81.0596859 175.078534,85.3947644 175.078534,85.3947644 Z" id="Path" fill="#8B416F"></path>
                        <path d="M165.547644,90.7895288 C165.547644,90.7895288 162.272251,95.0282723 161.405236,95.1246073 C160.53822,95.2209424 159.960209,96.5696335 161.405236,96.8586387 C164.290463,97.3608069 167.257862,97.0713046 169.991623,96.0209424 C170.554663,95.8013061 170.8946,95.2252305 170.81466,94.626178 L170.26178,90.5005236 L165.547644,90.7895288 Z" id="Path" fill="#8B416F"></path>
                        <path d="M160.15288,45.8031414 L157.011518,46.2219895 C157.442683,49.8911116 157.430026,53.5988285 156.973822,57.2649215 L156.973822,70.4586387 C156.973822,70.4586387 156.913089,71.6209424 159.325654,73.3109948 C161.855545,75.0698012 164.293646,76.9570926 166.630366,78.965445 L175.371728,86.5382199 C175.371728,86.5382199 178.839791,82.2994764 178.358115,79.7947644 C178.358115,79.7947644 172.57801,77.9643979 171.80733,74.9780105 C171.365445,73.2691099 169.124607,71.8366492 167.290052,70.9361257 C164.913912,69.782204 163.662912,67.1285145 164.284817,64.5612565 C164.391947,64.1282716 164.557515,63.711884 164.776963,63.3235602 C166.318325,60.626178 168.534031,54.5570681 168.534031,54.5570681 L164.295288,46.4774869 L160.15288,45.8031414 Z" id="Path" fill="#4D4981"></path>
                        <path d="M160.15288,45.8031414 L157.011518,46.2219895 C157.442683,49.8911116 157.430026,53.5988285 156.973822,57.2649215 L156.973822,70.4586387 C156.973822,70.4586387 156.913089,71.6209424 159.325654,73.3109948 C161.855545,75.0698012 164.293646,76.9570926 166.630366,78.965445 L175.371728,86.5382199 C175.371728,86.5382199 178.839791,82.2994764 178.358115,79.7947644 C178.358115,79.7947644 172.57801,77.9643979 171.80733,74.9780105 C171.365445,73.2691099 169.124607,71.8366492 167.290052,70.9361257 C164.913912,69.782204 163.662912,67.1285145 164.284817,64.5612565 C164.391947,64.1282716 164.557515,63.711884 164.776963,63.3235602 C166.318325,60.626178 168.534031,54.5570681 168.534031,54.5570681 L164.295288,46.4774869 L160.15288,45.8031414 Z" id="Path" fill="#000000" opacity="0.05"></path>
                        <path d="M164.776963,91.0848168 C164.776963,91.0848168 170.460733,92.0481675 170.653403,92.626178 C170.846073,93.2041885 170.653403,91.8554974 170.653403,91.8554974 C170.653403,91.8554974 173.928796,81.9329843 173.166492,73.1685864 C172.404188,64.4041885 174.129843,58.6219895 174.129843,58.6219895 C174.129843,58.6219895 176.15288,52.0712042 174.996859,48.3141361 C173.840838,44.5570681 161.702618,46.1947644 161.702618,46.1947644 C161.702618,46.1947644 165.941361,56.1172775 165.845026,60.8376963 C165.845026,60.8376963 166.326702,75.095288 167.193717,76.7329843 C167.18534,76.7246073 165.836649,90.6931937 164.776963,91.0848168 Z" id="Path" fill="#4D4981"></path>
                        <path d="M165.445026,16.904712 C165.445026,16.904712 166.023037,20.4649215 171.803141,18.9277487 L167.958115,48.2115183 C167.958115,48.2115183 156.783246,48.5968586 156.879581,47.2481675 L159.183246,29.5246073 L165.445026,16.904712 Z" id="Path" fill="#FFFFFF"></path>
                        <path d="M165.595812,16.7120419 C164.84311,17.4530488 163.862542,17.9186153 162.812565,18.0335079 C161.853504,18.1070093 160.921111,18.3840142 160.077487,18.8460733 C159.086911,19.4010471 157.983246,20.2073298 157.648168,21.1895288 C156.973822,23.1162304 152.735079,26.295288 150.808377,25.6209424 L151.482723,31.4010471 C151.482723,31.4010471 156.973822,31.1120419 157.937173,28.9926702 L156.301571,49.6188482 L157.746597,49.6188482 C157.746597,49.6188482 158.517277,44.0314136 159.095288,42.8753927 C159.673298,41.7193717 160.829319,35.3612565 160.925654,33.8198953 C161.02199,32.278534 162.467016,23.4157068 163.719372,21.8827225 L165.604188,17.3068063 L165.595812,16.7120419 Z" id="Path" fill="#000000" opacity="0.1"></path>
                        <path d="M165.595812,17.0010471 C164.734889,17.6744801 163.705412,18.098297 162.619895,18.226178 C161.661238,18.3012667 160.729571,18.579696 159.886911,19.0429319 C158.896335,19.5979058 157.79267,20.4041885 157.457592,21.3863874 C156.783246,23.313089 152.544503,26.4921466 150.617801,25.817801 L151.292147,31.5979058 C151.292147,31.5979058 156.783246,31.3089005 157.746597,29.1895288 L156.108901,49.8031414 L157.553927,49.8031414 C157.553927,49.8031414 158.324607,44.2157068 158.902618,43.0596859 C159.480628,41.9036649 160.636649,35.5455497 160.732984,34.0041885 C160.829319,32.4628272 162.274346,23.6 163.526702,22.0670157 L165.595812,17.5769634 L165.595812,17.0010471 Z" id="Path" fill="#000000" opacity="0.1"></path>
                        <path d="M165.595812,16.808377 C164.734889,17.4818099 163.705412,17.9056268 162.619895,18.0335079 C161.660834,18.1070093 160.728441,18.3840142 159.884817,18.8460733 C158.894241,19.4010471 157.790576,20.2073298 157.455497,21.1895288 C156.781152,23.1162304 152.542408,26.295288 150.615707,25.6209424 L151.290052,31.4010471 C151.290052,31.4010471 156.781152,31.1120419 157.744503,28.9926702 L156.108901,49.6188482 L157.553927,49.6188482 C157.553927,49.6188482 158.324607,44.0314136 158.902618,42.8753927 C159.480628,41.7193717 160.636649,35.3612565 160.732984,33.8198953 C160.829319,32.278534 162.274346,23.4157068 163.526702,21.8827225 L165.597906,17.4031414 L165.595812,16.808377 Z" id="Path" fill="#FD6F8D"></path>
                        <path d="M170.508901,13.0994764 C170.383246,12.1863874 170.634555,11.6167539 170.749738,10.5465969 L165.258639,14.6890052 C165.258639,14.6890052 165.390576,15.2481675 165.491099,16.0670157 C165.768085,16.1117643 166.048219,16.1341751 166.328796,16.1340314 C168.234555,16.1340314 169.606283,14.6450262 170.508901,13.0994764 Z" id="Path" fill="#000000" opacity="0.1"></path>
                        <circle id="Oval" fill="#FEC3BE" cx="166.318325" cy="10.6450262" r="5.20209424"></circle>
                        <path d="M160.640838,5.54554974 C160.607467,4.66826511 160.749875,3.79316511 161.059686,2.97172775 C160.881717,3.23897865 160.928203,3.596559 161.168586,3.80942408 C161.33628,2.91415732 161.795816,2.09965857 162.475393,1.49319372 C162.104712,1.5539267 161.914136,2.01256545 162.006283,2.37696335 C162.131457,2.7328876 162.354258,3.04640656 162.649215,3.28167539 C162.617801,2.73089005 162.982199,2.21570681 163.442932,1.91413613 C163.922964,1.63839868 164.447396,1.44846913 164.99267,1.35287958 C164.608188,1.48936099 164.363939,1.86777469 164.397906,2.27434555 C164.39953,2.34151744 164.427336,2.40539621 164.475393,2.45235602 C164.527725,2.48583696 164.589283,2.5019595 164.651309,2.49842932 C165.193939,2.51934203 165.737338,2.50745301 166.278534,2.46282723 C166.943923,2.38793839 167.613143,2.35227464 168.282723,2.35602094 C170.376963,2.44397906 172.481675,3.87434555 172.950785,5.91623037 C173.048004,6.41166531 173.099182,6.91503172 173.103665,7.41989529 L173.206283,9.99790576 C173.265879,10.7500207 173.234942,11.5065711 173.114136,12.2513089 C172.820453,13.6433102 171.921364,14.8318577 170.66178,15.4931937 C169.905759,14.3979058 169.838743,12.9905759 169.576963,11.6858639 C169.535655,11.3847734 169.423706,11.0977253 169.250262,10.8481675 C169.066697,10.5952533 168.743288,10.4860503 168.443979,10.5759162 C168.161257,10.6890052 168.039791,11.1204188 168.274346,11.313089 C168.064921,11.5602094 167.673298,11.3759162 167.436649,11.1560209 C166.775772,10.5290825 166.320805,9.71627564 166.131937,8.82513089 C166.037696,8.37696335 165.943455,7.82408377 165.503665,7.67120419 C165.352372,7.62962743 165.194255,7.61894385 165.038743,7.63979058 C164.121466,7.7026178 162.686911,8.08167539 161.798953,7.79057592 C160.984293,7.52460733 160.640838,6.31832461 160.640838,5.54554974 Z" id="Path" fill="#000000" opacity="0.1"></path>
                        <path d="M160.737173,5.44921466 C160.703802,4.57193003 160.84621,3.69683003 161.156021,2.87539267 C160.978052,3.14264357 161.024538,3.50022392 161.264921,3.71308901 C161.432615,2.81782224 161.892151,2.00332349 162.571728,1.39685864 C162.201047,1.45759162 162.010471,1.91623037 162.102618,2.28062827 C162.227792,2.63655252 162.450593,2.95007148 162.74555,3.18534031 C162.714136,2.63455497 163.078534,2.11937173 163.539267,1.81780105 C164.019299,1.5420636 164.543731,1.35213406 165.089005,1.2565445 C164.704523,1.39302591 164.460274,1.77143961 164.494241,2.17801047 C164.495865,2.24518236 164.523671,2.30906113 164.571728,2.35602094 C164.62406,2.38950188 164.685619,2.40562442 164.747644,2.40209424 C165.290274,2.42300695 165.833673,2.41111793 166.374869,2.36649215 C167.040258,2.29160331 167.709478,2.25593956 168.379058,2.25968586 C170.473298,2.34764398 172.57801,3.77801047 173.04712,5.81989529 C173.144339,6.31533023 173.195517,6.81869664 173.2,7.32356021 L173.302618,9.90157068 C173.362214,10.6536856 173.331277,11.410236 173.210471,12.1549738 C172.916788,13.5469751 172.017699,14.7355226 170.758115,15.3968586 C170.002094,14.3015707 169.935079,12.8942408 169.673298,11.5895288 C169.63199,11.2884383 169.520041,11.0013902 169.346597,10.7518325 C169.163032,10.4989183 168.839623,10.3897152 168.540314,10.4795812 C168.257592,10.5926702 168.136126,11.0240838 168.370681,11.2167539 C168.161257,11.4638743 167.769634,11.2795812 167.532984,11.0596859 C166.872107,10.4327474 166.41714,9.61994056 166.228272,8.72879581 C166.134031,8.28062827 166.039791,7.72774869 165.6,7.57486911 C165.448707,7.53329235 165.29059,7.52260878 165.135079,7.5434555 C164.217801,7.60628272 162.783246,7.98534031 161.895288,7.69424084 C161.080628,7.42617801 160.737173,6.22198953 160.737173,5.44921466 Z" id="Path" fill="#784F69"></path>
                        <path d="M150.366492,25.6230366 C150.366492,25.6230366 149.595812,29.1832461 151.040838,31.4031414 L151.859686,31.3361257 L151.413613,25.6816754 L150.366492,25.6230366 Z" id="Path" fill="#000000" opacity="0.1"></path>
                        <path d="M150.575916,25.6230366 C150.575916,25.6230366 149.805236,29.1832461 151.250262,31.4031414 L152.06911,31.3361257 L151.623037,25.6816754 L150.575916,25.6230366 Z" id="Path" fill="#FD6F8D"></path>
                        <path d="M171.279581,15.9015707 L177.493194,21.2481675 C177.493194,21.2481675 181.153927,25.0052356 179.612565,31.0743455 C179.612565,31.0743455 178.93822,39.9371728 178.167539,40.3225131 C178.167539,40.3225131 175.470157,45.7172775 175.277487,50.8230366 C175.277487,50.8230366 171.664921,43.5497382 170.027225,47.9811518 C168.389529,52.4125654 164.582199,53.0387435 164.582199,53.0387435 L166.701571,26.8272251 C166.701571,26.8272251 172.050262,17.5308901 171.279581,15.9015707 Z" id="Path" fill="#000000" opacity="0.1"></path>
                        <path d="M171.472251,15.9015707 L177.685864,21.2481675 C177.685864,21.2481675 181.346597,25.0052356 179.805236,31.0743455 C179.805236,31.0743455 179.13089,39.9371728 178.360209,40.3225131 C178.360209,40.3225131 175.662827,45.7172775 175.470157,50.8230366 C175.470157,50.8230366 171.664921,43.1643979 170.025131,47.5958115 C168.38534,52.0272251 164.774869,53.0408377 164.774869,53.0408377 L166.894241,26.8397906 C166.894241,26.8397906 172.242932,17.5308901 171.472251,15.9015707 Z" id="Path" fill="#FD6F8D"></path>
                        <path d="M174.314136,38.4837696 C174.314136,38.4837696 175.855497,37.4240838 178.360209,40.3141361 L172.194764,51.4890052 L170.12356,48.3623037 C170.12356,48.3623037 174.506806,39.7361257 174.314136,38.4837696 Z" id="Path" fill="#FEC3BE"></path>
                        <path d="M172.820942,39.1099476 C172.820942,39.1099476 176.230366,42.9382199 177.560209,42.3246073 L178.791623,39.4575916 L174.169634,37.4722513 L172.820942,39.1099476 Z" id="Path" fill="#000000" opacity="0.1"></path>
                        <path d="M172.820942,38.9172775 C172.820942,38.9172775 176.230366,42.7455497 177.560209,42.1319372 L178.791623,39.2649215 L174.169634,37.2795812 L172.820942,38.9172775 Z" id="Path" fill="#FD6F8D"></path>
                        <path d="M170.332984,47.6314136 C170.332984,47.6314136 171.956021,50.9570681 172.820942,51.1497382 L171.564398,52.5947644 L169.734031,49.1267016 L170.332984,47.6314136 Z" id="Path" fill="#000000" opacity="0.1"></path>
                        <path d="M170.236649,47.7340314 C170.236649,47.7340314 171.859686,51.0596859 172.724607,51.252356 L171.468063,52.6973822 L169.633508,49.2230366 L170.236649,47.7340314 Z" id="Path" fill="#4D4981"></path>
                        <path d="M173.302618,27.1643979 C173.302618,27.1643979 173.495288,34.1005236 172.724607,36.7015707" id="Path" fill="#000000" opacity="0.1"></path>
                        <path d="M157.696335,28.513089 C157.696335,28.513089 158.852356,28.1277487 158.852356,27.1643979" id="Path" fill="#000000" opacity="0.1"></path>
                        <path d="M17.3172775,29.6732984 C17.3172775,29.6732984 11.826178,41.0324607 15.4324607,54.4753927 C19.0387435,67.9183246 17.8931937,84.0041885 14.2973822,87.9832461" id="Path" stroke="#535461" stroke-width="2"></path>
                        <circle id="Oval" fill="#FF6347" cx="17.3172775" cy="29.6753927" r="1.51413613"></circle>
                        <path d="M15.034555,36.9801047 C15.034555,36.9801047 20.7267016,38.0062827 22.2408377,35.9329843" id="Path" stroke="#535461" stroke-width="2"></path>
                        <path d="M14.4942408,40.278534 C14.4942408,40.278534 11.0701571,36.4900524 11.2586387,34.217801" id="Path" stroke="#535461" stroke-width="2"></path>
                        <path d="M14.2031414,47.2188482 C14.2031414,47.2188482 17.3172775,48.0397906 20.1591623,41.9832461" id="Path" stroke="#535461" stroke-width="2"></path>
                        <path d="M15.034555,52.2659686 C15.034555,52.2659686 7.28586387,47.2795812 8.23036649,44.0628272" id="Path" stroke="#535461" stroke-width="2"></path>
                        <path d="M16.2450262,57.9727749 C16.2450262,57.9727749 21.6732984,53.1560209 21.1057592,48.4167539" id="Path" stroke="#535461" stroke-width="2"></path>
                        <path d="M16.8356021,61.3277487 C16.8356021,61.3277487 9.92460733,59.3968586 10.1340314,56.3685864" id="Path" stroke="#535461" stroke-width="2"></path>
                        <path d="M17.3172775,65.3256545 C17.3172775,65.3256545 21.6712042,61.2921466 22.2387435,58.8335079" id="Path" stroke="#535461" stroke-width="2"></path>
                        <path d="M17.6209424,72.1842932 C17.6209424,72.1842932 13.1539267,66.9696335 12.9633508,64.3204188" id="Path" stroke="#535461" stroke-width="2"></path>
                        <path d="M17.6209424,76.5005236 C17.6209424,76.5005236 22.6198953,70.9465969 22.9968586,68.2973822" id="Path" stroke="#535461" stroke-width="2"></path>
                        <circle id="Oval" fill="#FF6347" cx="11.2586387" cy="34.5968586" r="1.51413613"></circle>
                        <circle id="Oval" fill="#FF6347" cx="9.55602094" cy="56.3685864" r="1.51413613"></circle>
                        <circle id="Oval" fill="#FF6347" cx="8.23036649" cy="44.0628272" r="1.51413613"></circle>
                        <circle id="Oval" fill="#FF6347" cx="22.2408377" cy="35.9225131" r="1.51413613"></circle>
                        <circle id="Oval" fill="#FF6347" cx="22.2408377" cy="59.208377" r="1.51413613"></circle>
                        <circle id="Oval" fill="#FF6347" cx="19.7801047" cy="41.9811518" r="1.51413613"></circle>
                        <circle id="Oval" fill="#FF6347" cx="22.808377" cy="69.2439791" r="1.51413613"></circle>
                        <circle id="Oval" fill="#FF6347" cx="12.5842932" cy="65.2670157" r="1.51413613"></circle>
                        <circle id="Oval" fill="#FF6347" cx="21.2942408" cy="48.4167539" r="1.51413613"></circle>
                    </g>
                </g>
            </g>
        </g>
    </g>
</svg>