<svg xmlns="http://www.w3.org/2000/svg" xmlns:xlink="http://www.w3.org/1999/xlink" viewBox="0 0 900 450"><defs><linearGradient id="a" x1="158.39" y1="262.56" x2="190.61" y2="136.71" gradientUnits="userSpaceOnUse"><stop offset="0" stop-color="#8033eb"/><stop offset="0.53" stop-color="#d4648e"/><stop offset="1" stop-color="#ec7071"/></linearGradient></defs><title>Artboard 2 copy 4</title><path d="M759.48,156.45a12.25,12.25,0,0,1-12.25,12.25H695.9a12.25,12.25,0,0,1-12.25-12.25h0a12.25,12.25,0,0,1,12.25-12.24h51.33a12.25,12.25,0,0,1,12.25,12.24Z" style="fill:#f2f2f2"/><path d="M356.7,310.66a12.24,12.24,0,0,1-12.24,12.25H293.13a12.24,12.24,0,0,1-12.25-12.25h0a12.24,12.24,0,0,1,12.25-12.24h51.33a12.24,12.24,0,0,1,12.24,12.24Z" style="fill:#f2f2f2"/><path d="M280,195.59s-58.87,30.26-87.38,15.68S161.55,171.2,173,130.86s39.66-63.25,83.48-33.16S328.31,167,280,195.59Z" style="fill:#f2f2f2"/><path d="M613.64,241.41s65.77-7.53,87.29,16.18,15,48.47-9.94,82.19-59.44,45.17-89.81,1.55S558.39,251.11,613.64,241.41Z" style="fill:#f2f2f2"/><path d="M490.58,199.86a24.92,24.92,0,1,1-24.92-24.92A24.92,24.92,0,0,1,490.58,199.86Z" style="fill:#f2f2f2"/><path d="M106,282.68a24.92,24.92,0,1,1-24.92-24.93A24.92,24.92,0,0,1,106,282.68Z" style="fill:#f2f2f2"/><path d="M756.75,200.71l7.07,62.36c0,5.5,11.8,9.95,26.35,9.95s26.35-4.45,26.35-9.95l7-62.36Z" style="fill:#f94f24;stroke:#e43f10;stroke-linecap:round;stroke-linejoin:round;stroke-width:2px"/><path d="M823.59,199.86c0,7-15,12.63-33.42,12.63s-33.42-5.66-33.42-12.63,15-12.63,33.42-12.63S823.59,192.88,823.59,199.86Z" style="fill:#cc3f10;stroke:#e43f10;stroke-linecap:round;stroke-miterlimit:10;stroke-width:2px"/><path d="M812.77,233.2a1.78,1.78,0,0,1-.94,2.34L798,241.46a1.78,1.78,0,0,1-2.34-.94l-5.92-13.79a1.79,1.79,0,0,1,.94-2.34l13.79-5.92a1.78,1.78,0,0,1,2.34.94Z" style="fill:#fa8a6d"/><circle cx="780.03" cy="247.03" r="10.1" style="fill:#fa8a6d"/><path d="M789,211.38l2.29-15.69a1.55,1.55,0,0,0-2.1-1.82L770,199.53a1.38,1.38,0,0,0-.56,2.54l9.91,8.59C781.35,210.89,784.9,211.23,789,211.38Z" style="fill:#fa7f5f"/><path d="M790.17,176.23c-26.57,0-44.42,9.49-44.42,23.63,0,.16,0,.33,0,.5a10.31,10.31,0,0,0,.06,1.57l7,62c.25,4.32,2.56,11.61,14.25,16.27,6.25,2.49,14.45,3.86,23.08,3.86s16.83-1.37,23.08-3.86c11.7-4.67,14-12,14.25-16.28l6.91-61.73a15.32,15.32,0,0,0,.18-2.29c0-14.14-17.85-23.63-44.42-23.63Z" style="fill:none;stroke:#f94f24;stroke-linecap:round;stroke-miterlimit:10;stroke-dasharray:3.8880200386047363,2.592010021209717"/><rect x="74.41" y="190.59" width="181.24" height="92.08" rx="20" ry="20" style="fill:url(#a)"/><polygon points="560.25 196.97 617.68 163.81 675.12 196.97 675.12 263.28 617.68 296.45 560.25 263.28 560.25 196.97" style="fill:#f94f24"/><polygon points="547.93 189.86 617.68 149.59 687.43 189.86 687.43 270.39 617.68 310.66 547.93 270.39 547.93 189.86" style="fill:none;stroke:#f94f24;stroke-linecap:round;stroke-miterlimit:10;stroke-dasharray:3.8880200386047363,2.592010021209717"/><path d="M510.08,229.86A23.14,23.14,0,0,1,486.94,253H325.77a23.14,23.14,0,0,1-23.14-23.14h0a23.14,23.14,0,0,1,23.14-23.14H486.94a23.14,23.14,0,0,1,23.14,23.14Z" style="fill:#581cca"/><path d="M517.71,229.86A29.08,29.08,0,0,1,488.63,259H324.08A29.09,29.09,0,0,1,295,229.86h0a29.08,29.08,0,0,1,29.08-29.08H488.63a29.07,29.07,0,0,1,29.08,29.08Z" style="fill:none;stroke:#f94f24;stroke-linecap:round;stroke-miterlimit:10;stroke-dasharray:3.8880200386047363,2.592010021209717"/><path d="M346.25,227a1.47,1.47,0,0,0,.47.58,3.14,3.14,0,0,0,.92.48,11.08,11.08,0,0,0,1.52.41,6.63,6.63,0,0,1,2.76,1.15,2.49,2.49,0,0,1,.89,2,3,3,0,0,1-.28,1.31,2.8,2.8,0,0,1-.79,1,3.29,3.29,0,0,1-1.2.64,5,5,0,0,1-1.54.23,6.51,6.51,0,0,1-4.57-1.78l.78-.92a6.92,6.92,0,0,0,1.78,1.19,5.11,5.11,0,0,0,2.06.39,2.9,2.9,0,0,0,1.82-.53,1.69,1.69,0,0,0,.68-1.39,1.81,1.81,0,0,0-.13-.72,1.5,1.5,0,0,0-.45-.57,3.18,3.18,0,0,0-.89-.46,11.41,11.41,0,0,0-1.45-.4,12.32,12.32,0,0,1-1.68-.48,4.13,4.13,0,0,1-1.18-.66,2.39,2.39,0,0,1-.69-.9,3.17,3.17,0,0,1-.22-1.22,2.84,2.84,0,0,1,.27-1.23,3,3,0,0,1,.77-1,3.87,3.87,0,0,1,1.17-.64,4.62,4.62,0,0,1,1.47-.23,6.1,6.1,0,0,1,2.15.34,6.23,6.23,0,0,1,1.79,1l-.74,1a5.5,5.5,0,0,0-1.58-.92,4.81,4.81,0,0,0-1.65-.29,3.43,3.43,0,0,0-1,.14,2.66,2.66,0,0,0-.75.39,1.64,1.64,0,0,0-.65,1.3A2.09,2.09,0,0,0,346.25,227Z" style="fill:#fff"/><path d="M359.37,234.71h-1.26v-10h-3.76v-1.17h8.78v1.17h-3.76Z" style="fill:#fff"/><path d="M374.51,234.71h-1.36l-1.31-3h-6.1l-1.33,3h-1.29l5.1-11.28h1.18Zm-5.71-9.79-2.56,5.71h5.1Z" style="fill:#fff"/><path d="M379.5,234.71h-1.26v-10h-3.76v-1.17h8.78v1.17H379.5Z" style="fill:#fff"/><path d="M387,223.51v11.2h-1.26v-11.2Z" style="fill:#fff"/><path d="M399,233.74a5.62,5.62,0,0,1-2.19,1,6.54,6.54,0,0,1-1.39.14,5.5,5.5,0,0,1-2.24-.45,5.43,5.43,0,0,1-2.95-3,6.16,6.16,0,0,1-.43-2.28,6,6,0,0,1,.43-2.25A5.82,5.82,0,0,1,391.4,225a5.52,5.52,0,0,1,4.07-1.7,7.24,7.24,0,0,1,1.38.12,6.72,6.72,0,0,1,1.15.36,6.13,6.13,0,0,1,1,.56,9.89,9.89,0,0,1,.87.73L399,226a6.7,6.7,0,0,0-1.54-1.1,4.19,4.19,0,0,0-2-.43,4.1,4.1,0,0,0-1.72.35,4.17,4.17,0,0,0-1.37,1,4.63,4.63,0,0,0-.92,1.47,4.89,4.89,0,0,0-.32,1.81,5,5,0,0,0,.32,1.83,4.63,4.63,0,0,0,.92,1.47,4.35,4.35,0,0,0,1.37,1,4.11,4.11,0,0,0,1.72.36,4.39,4.39,0,0,0,2-.42,7.1,7.1,0,0,0,1.63-1.19l.83.81A8.44,8.44,0,0,1,399,233.74Z" style="fill:#fff"/><path d="M417.34,234.71H416l-1.31-3h-6.1l-1.33,3H406l5.1-11.28h1.19Zm-5.71-9.79-2.56,5.71h5.1Z" style="fill:#fff"/><path d="M420.43,227a1.44,1.44,0,0,0,.46.58,3.35,3.35,0,0,0,.93.48,10.33,10.33,0,0,0,1.52.41,6.63,6.63,0,0,1,2.76,1.15,2.52,2.52,0,0,1,.89,2,3,3,0,0,1-.29,1.31,2.89,2.89,0,0,1-.78,1,3.29,3.29,0,0,1-1.2.64,5.07,5.07,0,0,1-1.54.23,6.51,6.51,0,0,1-4.58-1.78l.79-.92a6.88,6.88,0,0,0,1.77,1.19,5.16,5.16,0,0,0,2.07.39,2.87,2.87,0,0,0,1.81-.53,1.66,1.66,0,0,0,.68-1.39,2,2,0,0,0-.12-.72,1.5,1.5,0,0,0-.45-.57,3.33,3.33,0,0,0-.89-.46,11.91,11.91,0,0,0-1.45-.4,11.91,11.91,0,0,1-1.68-.48,4,4,0,0,1-1.18-.66,2.39,2.39,0,0,1-.69-.9,3,3,0,0,1-.22-1.22,2.84,2.84,0,0,1,.27-1.23,3,3,0,0,1,.77-1,3.94,3.94,0,0,1,1.16-.64,4.64,4.64,0,0,1,1.48-.23,5.85,5.85,0,0,1,3.93,1.36l-.73,1a5.63,5.63,0,0,0-1.58-.92,4.87,4.87,0,0,0-1.66-.29,3.31,3.31,0,0,0-1,.14,2.66,2.66,0,0,0-.75.39,1.64,1.64,0,0,0-.65,1.3A1.88,1.88,0,0,0,420.43,227Z" style="fill:#fff"/><path d="M430.51,227a1.44,1.44,0,0,0,.46.58,3.35,3.35,0,0,0,.93.48,10.33,10.33,0,0,0,1.52.41,6.63,6.63,0,0,1,2.76,1.15,2.52,2.52,0,0,1,.89,2,3,3,0,0,1-.29,1.31,2.89,2.89,0,0,1-.78,1,3.29,3.29,0,0,1-1.2.64,5.07,5.07,0,0,1-1.54.23,6.51,6.51,0,0,1-4.58-1.78l.79-.92a6.88,6.88,0,0,0,1.77,1.19,5.16,5.16,0,0,0,2.07.39,2.87,2.87,0,0,0,1.81-.53,1.66,1.66,0,0,0,.68-1.39,2,2,0,0,0-.12-.72,1.5,1.5,0,0,0-.45-.57,3.33,3.33,0,0,0-.89-.46,11.91,11.91,0,0,0-1.45-.4,11.91,11.91,0,0,1-1.68-.48,4,4,0,0,1-1.18-.66,2.39,2.39,0,0,1-.69-.9,3,3,0,0,1-.22-1.22,2.84,2.84,0,0,1,.27-1.23,3,3,0,0,1,.77-1,3.94,3.94,0,0,1,1.16-.64,4.64,4.64,0,0,1,1.48-.23,5.85,5.85,0,0,1,3.93,1.36l-.73,1a5.63,5.63,0,0,0-1.58-.92,4.87,4.87,0,0,0-1.66-.29,3.31,3.31,0,0,0-1,.14,2.66,2.66,0,0,0-.75.39,1.64,1.64,0,0,0-.65,1.3A1.88,1.88,0,0,0,430.51,227Z" style="fill:#fff"/><path d="M447.74,224.66h-6.83v3.83H447v1.15h-6.11v3.92h6.91v1.15h-8.18v-11.2h8.1Z" style="fill:#fff"/><path d="M454.59,234.71h-1.27v-10h-3.76v-1.17h8.79v1.17h-3.76Z" style="fill:#fff"/><path d="M461.6,227a1.44,1.44,0,0,0,.46.58,3.08,3.08,0,0,0,.93.48,10.33,10.33,0,0,0,1.52.41,6.63,6.63,0,0,1,2.76,1.15,2.52,2.52,0,0,1,.89,2,3,3,0,0,1-.29,1.31,2.89,2.89,0,0,1-.78,1,3.42,3.42,0,0,1-1.21.64,5,5,0,0,1-1.53.23,6.51,6.51,0,0,1-4.58-1.78l.79-.92a6.71,6.71,0,0,0,1.77,1.19,5.16,5.16,0,0,0,2.07.39,2.89,2.89,0,0,0,1.81-.53,1.66,1.66,0,0,0,.68-1.39,1.81,1.81,0,0,0-.13-.72,1.33,1.33,0,0,0-.45-.57,3.18,3.18,0,0,0-.89-.46,11.41,11.41,0,0,0-1.45-.4,11.75,11.75,0,0,1-1.67-.48,4,4,0,0,1-1.18-.66,2.39,2.39,0,0,1-.69-.9,3,3,0,0,1-.23-1.22,2.71,2.71,0,0,1,.28-1.23,3,3,0,0,1,.76-1,3.87,3.87,0,0,1,1.17-.64,4.62,4.62,0,0,1,1.47-.23,6.16,6.16,0,0,1,2.16.34,6.32,6.32,0,0,1,1.78,1l-.74,1a5.45,5.45,0,0,0-1.57-.92,4.87,4.87,0,0,0-1.66-.29,3.31,3.31,0,0,0-1,.14,2.41,2.41,0,0,0-.75.39,1.58,1.58,0,0,0-.48.58,1.47,1.47,0,0,0-.17.72A1.88,1.88,0,0,0,461.6,227Z" style="fill:#fff"/><path d="M136.72,266.84a5.05,5.05,0,0,1-1,.62,5.76,5.76,0,0,1-2.56.54,5.41,5.41,0,0,1-4-1.67A5.39,5.39,0,0,1,128,264.5a6.32,6.32,0,0,1,0-4.53,5.68,5.68,0,0,1,1.18-1.85,5.42,5.42,0,0,1,1.79-1.24,5.48,5.48,0,0,1,2.27-.46,6.47,6.47,0,0,1,1.38.13,5,5,0,0,1,1.15.36,4.63,4.63,0,0,1,1,.56,8.41,8.41,0,0,1,.87.73l-.87.92a7.37,7.37,0,0,0-1.54-1.1,4.19,4.19,0,0,0-2-.43,4.3,4.3,0,0,0-1.72.35,4.15,4.15,0,0,0-1.37,1,4.29,4.29,0,0,0-.91,1.46,5.18,5.18,0,0,0,0,3.64,4.24,4.24,0,0,0,.91,1.47,4.33,4.33,0,0,0,1.37,1,4.14,4.14,0,0,0,1.72.36,4.26,4.26,0,0,0,2-.43,6.9,6.9,0,0,0,1.63-1.19l.83.82A8.32,8.32,0,0,1,136.72,266.84Z" style="fill:#fff"/><path d="M139.83,256.61h1.26v10h6.31v1.17h-7.57Z" style="fill:#fff"/><path d="M151.11,256.61v11.2h-1.26v-11.2Z" style="fill:#fff"/><path d="M162.49,257.76h-6.84v3.83h6.12v1.15h-6.12v3.92h6.92v1.15h-8.18v-11.2h8.1Z" style="fill:#fff"/><path d="M173.35,256.61h1.23v11.2h-1l-7.23-9.18v9.18h-1.23v-11.2h1.18l7.06,9Z" style="fill:#fff"/><path d="M182,267.81h-1.26v-10H177v-1.17h8.78v1.17H182Z" style="fill:#fff"/><path d="M141.57,235.6H139l-2.18,6.23-.43,1.24-2.61-7.47H131l-2.6,7.47-.44-1.24-2.17-6.23h-3.34l.24.68.84,2.4,2,5.84,1.47,4.25h2.74l2.6-7.46,2.6,7.46h2.74l1.47-4.25,2-5.84.83-2.4.24-.68Zm11.11,9.06-.4.21a16.27,16.27,0,0,1-1.83.82,5.68,5.68,0,0,1-1.95.34,3.4,3.4,0,0,1-2-.53,2.46,2.46,0,0,1-.84-1.25h1.73a8.86,8.86,0,0,0,4.08-.84,4,4,0,0,0,.44-6.95,6.36,6.36,0,0,0-3.52-1,5.87,5.87,0,0,0-4.59,2.1,7.43,7.43,0,0,0-1.66,5,6.59,6.59,0,0,0,1.62,4.67,6,6,0,0,0,4.6,1.84,10.31,10.31,0,0,0,5.53-1.69l.43-.27Zm-5.51-6a2.18,2.18,0,0,1,1.09-.27,4.41,4.41,0,0,1,.87.09,2,2,0,0,1,.7.28,1.23,1.23,0,0,1,.4.4,1.18,1.18,0,0,1,.17.67.93.93,0,0,1-.21.71,2.8,2.8,0,0,1-.84.54,5.34,5.34,0,0,1-2,.21h-1.93a4.35,4.35,0,0,1,.84-1.82A3.66,3.66,0,0,1,147.17,238.63Zm19-1.36a6.09,6.09,0,0,0-7.28-1.45v-5.69h-3.2v18.2l.36.1a18.83,18.83,0,0,0,4.57.58,6.89,6.89,0,0,0,5.34-2,7.47,7.47,0,0,0,1.76-5A7.68,7.68,0,0,0,166.12,237.27Zm-3.62,8.44a3.77,3.77,0,0,1-1.66.29c-.52,0-1.24,0-2-.12v-5.6a1.72,1.72,0,0,1,.53-1.14,2.77,2.77,0,0,1,2.15-.92,2.4,2.4,0,0,1,2.17,1.2,4.92,4.92,0,0,1,.72,2.72,4.09,4.09,0,0,1-.85,2.76A2.92,2.92,0,0,1,162.5,245.71Zm6.65-10.09h3.2v13.16h-3.2Zm18,13.17v-9.13a4.83,4.83,0,0,0-.39-2c-.71-1.45-2.32-2.25-4.52-2.25a5.59,5.59,0,0,0-3.94,1.39,5.39,5.39,0,0,0-1.38-1.35l-.33-.23-2.09,1.9.39.38a3,3,0,0,1,.78,1,3.5,3.5,0,0,1,.23,1.32v8.92h3.2v-8.68a5.28,5.28,0,0,1,1.28-1.2,3,3,0,0,1,1.74-.53,2.08,2.08,0,0,1,1.43.45c.2.18.4.49.4,1.42v8.53Zm4.74-.32c1.8-1.3,3.68-.76,5.57-.69h.35a25.5,25.5,0,0,0,3.1-.19v-12h-3.2v8.11a2.74,2.74,0,0,1-2.44,2.08s-2.16.17-2.41-1.66v-8.52h-3.21v9.13a4.7,4.7,0,0,0,.4,2A3.7,3.7,0,0,0,191.87,248.47Z" style="fill:#fff"/><path d="M205.3,241.06a5.43,5.43,0,0,0-4.11-.63h0v3.63a.79.79,0,0,1,.14-.18,1.12,1.12,0,0,1,.24-.19,2.1,2.1,0,0,1,2.07.09,1.61,1.61,0,0,1,.78,1.63,1.9,1.9,0,0,1-.69,1.39,5.62,5.62,0,0,1-2.58,1h0l-.1,0h0c-.45,0-1.88.16-3.19.14h-.71c-.64,0-1.23-.08-1.73-.12h-.51l-.45,0-.38,0h-.12a5.14,5.14,0,0,0-1.82.68.1.1,0,0,1,0,0,4.33,4.33,0,0,0-1.31,1.35,5.31,5.31,0,0,0,0,5.39,4.8,4.8,0,0,0,4.54,2.38,5.06,5.06,0,0,0,3.61-1.73,8.12,8.12,0,0,0,1.69-3.49c.1-.41.18-.82.24-1.21-.48,0-2.27-.05-3.24-.07-.08.35-.16.69-.26,1a4.56,4.56,0,0,1-.81,1.62,2,2,0,0,1-1.4.66,1.64,1.64,0,0,1-1.62-.81,1.77,1.77,0,0,1,.14-2.31,2,2,0,0,1,1.51-.4c.61,0,1.21,0,1.8,0h.68l3.29.08a9.59,9.59,0,0,0,4.91-1.86,5.13,5.13,0,0,0,1.8-3.58,4.82,4.82,0,0,0-2.29-4.58" style="fill:#fff"/><path d="M116.38,149.76h97.3a22.3,22.3,0,0,1,22.3,22.3v27.05a22.31,22.31,0,0,1-22.31,22.31h-97.3a22.3,22.3,0,0,1-22.3-22.3V172.06A22.31,22.31,0,0,1,116.38,149.76Z" style="fill:#fff;stroke:#e5e5e5;stroke-miterlimit:10;stroke-width:3px"/><path d="M213.68,139.26h-97.3a32.84,32.84,0,0,0-32.8,32.8v11.63a29,29,0,0,0-18.17,26.9v52.09a29,29,0,0,0,29,29H235.65a29,29,0,0,0,29-29V210.59a29,29,0,0,0-18.17-26.9V172.06a32.84,32.84,0,0,0-32.8-32.8Z" style="fill:none;stroke:#f94f24;stroke-linecap:round;stroke-miterlimit:10;stroke-dasharray:3.8880200386047363,2.592010021209717"/><path d="M141.25,168.7l.29.06a3.32,3.32,0,0,1,2.36,1.68,6.47,6.47,0,0,1,.77,2.21,13.11,13.11,0,0,1,.15,3.19,22.4,22.4,0,0,1-.55,3.55,1.57,1.57,0,0,0,0,.16l.21.07a19.67,19.67,0,0,1,4,1.64,10.78,10.78,0,0,1,2.48,1.8,5.57,5.57,0,0,1,.95,1.22,3.31,3.31,0,0,1,0,3.46,6.31,6.31,0,0,1-1.47,1.74,13.83,13.83,0,0,1-3.3,2,22.66,22.66,0,0,1-2.64,1l-.21.07c0,.2.09.4.13.6a18.76,18.76,0,0,1,.47,4.22,9.85,9.85,0,0,1-.46,3.05,4.9,4.9,0,0,1-1,1.82,3.23,3.23,0,0,1-2,1.08l-.38.08h-.49l-.18,0-.7-.11a9,9,0,0,1-2.5-1,18.38,18.38,0,0,1-3.76-2.74l-.46-.42a.86.86,0,0,0-.14.13,20.83,20.83,0,0,1-2.8,2.24,11.82,11.82,0,0,1-3.26,1.57,5.68,5.68,0,0,1-2.39.24,3.26,3.26,0,0,1-2.2-1.25,5.16,5.16,0,0,1-1-2,11.88,11.88,0,0,1-.24-3.94,21,21,0,0,1,.55-3.25,1.38,1.38,0,0,0,0-.2l-.17-.06a20.22,20.22,0,0,1-2.26-.8,15.14,15.14,0,0,1-3.36-1.92A7.37,7.37,0,0,1,114,188a3.45,3.45,0,0,1,0-3.91,6.11,6.11,0,0,1,1-1.23,11.44,11.44,0,0,1,2.76-1.86,21.7,21.7,0,0,1,3.64-1.4.94.94,0,0,0,.15-.06s0-.08,0-.11a21.85,21.85,0,0,1-.58-3.5,12.85,12.85,0,0,1,.14-3.45,6,6,0,0,1,.74-2,3.29,3.29,0,0,1,2.07-1.59,4.89,4.89,0,0,1,2.25,0A10,10,0,0,1,128.9,170a20.27,20.27,0,0,1,3.91,2.93l.13.11.71-.65a18.22,18.22,0,0,1,3.75-2.66,9.06,9.06,0,0,1,2.68-.92l.34-.06ZM133,192.36l3.31-.14a.32.32,0,0,0,.3-.17,57.09,57.09,0,0,0,3.35-5.83.37.37,0,0,0,0-.38c-.33-.61-.64-1.24-1-1.84-.73-1.35-1.52-2.65-2.37-3.93a.35.35,0,0,0-.31-.18l-1.51-.08a45.82,45.82,0,0,0-5.24.08.34.34,0,0,0-.28.16,48.47,48.47,0,0,0-3.37,5.85.31.31,0,0,0,0,.32,47.43,47.43,0,0,0,3.39,5.86.29.29,0,0,0,.26.15Zm-10.91-11.2H122l-.39.12a17.38,17.38,0,0,0-3.6,1.48,8.65,8.65,0,0,0-2,1.49,3.72,3.72,0,0,0-.79,1.13,1.62,1.62,0,0,0,0,1.24,3.27,3.27,0,0,0,.58.95,7.18,7.18,0,0,0,1.69,1.47A16.54,16.54,0,0,0,121.8,191l.25.07a1.62,1.62,0,0,1,.06-.17,40,40,0,0,1,1.77-4.6.46.46,0,0,0,0-.44,38.66,38.66,0,0,1-1.74-4.52ZM131.82,198l-1-1.13c-.8-.92-1.54-1.88-2.25-2.88a.36.36,0,0,0-.27-.15l-1.42-.14c-1-.12-2.1-.28-3.14-.5l-.52-.1,0,.16a19.5,19.5,0,0,0-.55,3.65,9.78,9.78,0,0,0,.23,2.75,3.76,3.76,0,0,0,.58,1.35,1.68,1.68,0,0,0,1.19.71,3.42,3.42,0,0,0,1,0,7,7,0,0,0,1.89-.62,15.69,15.69,0,0,0,3.63-2.46Zm10.87-5-.52.11a40,40,0,0,1-4.48.68.48.48,0,0,0-.42.23,36.46,36.46,0,0,1-3,3.8l-.12.14.11.12a21.52,21.52,0,0,0,2,1.69,12.36,12.36,0,0,0,2.74,1.56,5,5,0,0,0,1.9.4,1.72,1.72,0,0,0,1.51-.82,4.32,4.32,0,0,0,.48-1,8.75,8.75,0,0,0,.35-2.59,17,17,0,0,0-.5-4.09Zm-10.91-18.82a1,1,0,0,1-.15-.11,19.28,19.28,0,0,0-2.27-1.85,11.69,11.69,0,0,0-2.81-1.5,5.07,5.07,0,0,0-1.64-.31,1.68,1.68,0,0,0-1.62,1,5,5,0,0,0-.35.83,8.12,8.12,0,0,0-.31,2.45,18.36,18.36,0,0,0,.5,4c0,.16.08.33.11.48.77-.14,1.51-.3,2.26-.41.9-.14,1.81-.25,2.72-.36a.41.41,0,0,0,.35-.19,38.53,38.53,0,0,1,2.51-3.18Zm10.83,5c0-.11.06-.2.08-.29a19.72,19.72,0,0,0,.48-3.41,9.93,9.93,0,0,0-.23-2.93,4,4,0,0,0-.65-1.47,1.59,1.59,0,0,0-1-.62,3.24,3.24,0,0,0-1.28.05,7.73,7.73,0,0,0-2.12.83,17.85,17.85,0,0,0-3.75,2.83l-.06.08.09.1c.54.63,1.09,1.25,1.6,1.89s1,1.32,1.49,2a.35.35,0,0,0,.29.16l.72.08a36,36,0,0,1,3.58.57Zm1.25,11.81H144a19.44,19.44,0,0,0,3.88-1.63,9.27,9.27,0,0,0,2-1.52,3.8,3.8,0,0,0,.76-1.1,1.57,1.57,0,0,0,0-1.34,3.47,3.47,0,0,0-.63-.93,8.07,8.07,0,0,0-1.78-1.41,18.09,18.09,0,0,0-3.91-1.7l-.48-.14a.77.77,0,0,1-.06.15,35.84,35.84,0,0,1-1.77,4.54.39.39,0,0,0,0,.35,37.6,37.6,0,0,1,1.84,4.57ZM138.65,192a33.67,33.67,0,0,0,3.59-.62A33.25,33.25,0,0,0,141,188C140.18,189.33,139.42,190.65,138.65,192Zm-13.71-4a32.87,32.87,0,0,0-1.26,3.42,24,24,0,0,0,3.56.56C126.41,190.71,125.65,189.4,124.94,188ZM135.25,194h-4.6a34.77,34.77,0,0,0,2.33,2.79A31.78,31.78,0,0,0,135.25,194Zm-4.62-15.81c1.55-.07,3.06-.07,4.6,0a32.55,32.55,0,0,0-2.29-2.76A34.58,34.58,0,0,0,130.63,178.16Zm10.3,5.9a32.19,32.19,0,0,0,1.23-3.32,32.88,32.88,0,0,0-3.5-.61Zm-17.23-3.34a34,34,0,0,0,1.23,3.37c.71-1.37,1.46-2.67,2.29-4C126,180.27,124.87,180.46,123.7,180.72Z" style="fill:#00d8ff;fill-rule:evenodd"/><path d="M165.88,187.43l4.39,6.62-.13,0c-.71,0-1.42,0-2.13,0-.13,0-.17-.06-.23-.15l-3-4.76c-.32-.48-.63-1-.94-1.46a.22.22,0,0,0-.21-.13h-3.15v6.47h-2V177.73H165a5.68,5.68,0,0,1,2.65.59,4.44,4.44,0,0,1,2.44,3.36,5.34,5.34,0,0,1-.18,2.69,4.34,4.34,0,0,1-3.12,2.89c-.22.07-.46.09-.68.14Zm-5.42-1.63h4.18a4,4,0,0,0,1-.12,2.93,2.93,0,0,0,2.06-1.65,3.23,3.23,0,0,0,.24-2,2.83,2.83,0,0,0-1.5-2.13,3.74,3.74,0,0,0-1.8-.4h-4.21Z" style="fill:#00d8ff;fill-rule:evenodd"/><path d="M183.37,188.75h-9.55c0,.16,0,.29,0,.42a4.38,4.38,0,0,0,1.07,2.35,3.74,3.74,0,0,0,2.39,1.27,5.1,5.1,0,0,0,4.32-1.36,1,1,0,0,1,.1-.09l.88,1.2-.51.44a6.4,6.4,0,0,1-3.06,1.31,6.82,6.82,0,0,1-3.11-.21,5.45,5.45,0,0,1-3.74-3.71,6.76,6.76,0,0,1,.29-5.09,5.48,5.48,0,0,1,4-3.2,5.43,5.43,0,0,1,6.43,3.42,8.06,8.06,0,0,1,.5,3.16A.51.51,0,0,1,183.37,188.75Zm-9.56-1.38h7.74a3.9,3.9,0,0,0-.34-1.62,3.64,3.64,0,0,0-2-2,4.06,4.06,0,0,0-2.23-.25,3.48,3.48,0,0,0-1.76.81,4.17,4.17,0,0,0-1.32,2.15A3,3,0,0,0,173.81,187.37Z" style="fill:#00d8ff;fill-rule:evenodd"/><path d="M187.15,185.21l-.87-1.28.09-.11A6,6,0,0,1,190,182a7.12,7.12,0,0,1,2.68.12,4.32,4.32,0,0,1,1.3.52,3.32,3.32,0,0,1,1.57,2.34,6.61,6.61,0,0,1,.08,1c0,2.62,0,5.25,0,7.87v.21h-1.83v-1.31l-.15.13a5,5,0,0,1-3,1.44,4.83,4.83,0,0,1-2.17-.17,3.85,3.85,0,0,1-2.34-1.93,4,4,0,0,1-.37-2.27,3.64,3.64,0,0,1,.84-2,3.71,3.71,0,0,1,1.81-1.15,5.54,5.54,0,0,1,4.27.47,4.21,4.21,0,0,1,.94.74,1.71,1.71,0,0,1,.11.14s0-.07,0-.09c0-.73,0-1.46,0-2.19a2.2,2.2,0,0,0-1.33-2,3.89,3.89,0,0,0-2-.34,4.64,4.64,0,0,0-3.18,1.53A1.06,1.06,0,0,1,187.15,185.21Zm6.61,5.24v-.68c0-.5,0-.5-.36-.84a4.29,4.29,0,0,0-4.11-.84,2.48,2.48,0,0,0-1.62,3.06,2.43,2.43,0,0,0,1.71,1.73,4.1,4.1,0,0,0,2.59,0,3.48,3.48,0,0,0,1.68-1.11.41.41,0,0,0,.11-.3C193.75,191.09,193.76,190.77,193.76,190.45Z" style="fill:#00d8ff;fill-rule:evenodd"/><path d="M208.87,184l-1.22,1.1-.08-.09A3.45,3.45,0,0,0,205,183.6a3.85,3.85,0,0,0-3.26,1.23,4.28,4.28,0,0,0-1,2.06,5.62,5.62,0,0,0,.22,3.25,3.77,3.77,0,0,0,2.4,2.38,3.87,3.87,0,0,0,2.95-.14,3.47,3.47,0,0,0,1.27-1l.14-.18,1.23,1.13a6,6,0,0,1-.81.86,4.82,4.82,0,0,1-2.41,1.11,6.48,6.48,0,0,1-3-.19,5.56,5.56,0,0,1-3.41-3,6.79,6.79,0,0,1-.6-3.47,6.51,6.51,0,0,1,.73-2.62,5.49,5.49,0,0,1,4-2.92,6.1,6.1,0,0,1,3.14.21A4.9,4.9,0,0,1,208.87,184Z" style="fill:#00d8ff;fill-rule:evenodd"/><path d="M211.83,183.86h-2v-1.61h2V179h1.86c0,.27,0,.53,0,.8v2.42c.27,0,.53,0,.78,0h1.61v1.62h-2.37a1.28,1.28,0,0,0,0,.17v7.21a2.12,2.12,0,0,0,.16.83,1.06,1.06,0,0,0,1.11.66,1.82,1.82,0,0,0,1.15-.48s0,.07.06.1c.14.36.28.71.41,1.06s.07.23-.1.37a2.9,2.9,0,0,1-1.46.57,3.89,3.89,0,0,1-1.48-.09,2.16,2.16,0,0,1-1.63-1.79,5.55,5.55,0,0,1-.08-1q0-3.66,0-7.34Z" style="fill:#00d8ff;fill-rule:evenodd"/><path d="M132.93,182.54a3.48,3.48,0,1,1-3.5,3.47A3.47,3.47,0,0,1,132.93,182.54Z" style="fill:#00d8ff;fill-rule:evenodd"/><line x1="295.26" y1="229.94" x2="269.85" y2="229.94" style="fill:#fff;stroke:#f94f24;stroke-linecap:round;stroke-miterlimit:10;stroke-width:0.8615379999999999px;stroke-dasharray:2.5846099853515625,1.723080039024353"/><path d="M269.85,229.94a4,4,0,1,1-4-4A4,4,0,0,1,269.85,229.94Z" style="fill:#fff;stroke:#f94f24;stroke-linecap:round;stroke-miterlimit:10;stroke-width:1.7230800000000002px"/><path d="M299.27,229.94a4,4,0,1,1-4-4A4,4,0,0,1,299.27,229.94Z" style="fill:#fff;stroke:#f94f24;stroke-linecap:round;stroke-miterlimit:10;stroke-width:1.7230800000000002px"/><line x1="547.52" y1="229.94" x2="522.1" y2="229.94" style="fill:#fff;stroke:#f94f24;stroke-linecap:round;stroke-miterlimit:10;stroke-width:0.8615379999999999px;stroke-dasharray:2.5846099853515625,1.723080039024353"/><path d="M522.1,229.94a4,4,0,1,1-4-4A4,4,0,0,1,522.1,229.94Z" style="fill:#fff;stroke:#f94f24;stroke-linecap:round;stroke-miterlimit:10;stroke-width:1.7230800000000002px"/><path d="M551.53,229.94a4,4,0,1,1-4-4A4,4,0,0,1,551.53,229.94Z" style="fill:#fff;stroke:#f94f24;stroke-linecap:round;stroke-miterlimit:10;stroke-width:1.7230800000000002px"/><line x1="748.67" y1="229.94" x2="691.25" y2="229.94" style="fill:#fff;stroke:#f94f24;stroke-linecap:round;stroke-miterlimit:10;stroke-width:0.8615379999999999px;stroke-dasharray:2.5846099853515625,1.723080039024353"/><path d="M691.25,229.94a4,4,0,1,1-4-4A4,4,0,0,1,691.25,229.94Z" style="fill:#fff;stroke:#f94f24;stroke-linecap:round;stroke-miterlimit:10;stroke-width:1.7230800000000002px"/><path d="M752.69,229.94a4,4,0,1,1-4-4A4,4,0,0,1,752.69,229.94Z" style="fill:#fff;stroke:#f94f24;stroke-linecap:round;stroke-miterlimit:10;stroke-width:1.7230800000000002px"/><polygon points="559.79 197 617.46 163.71 675.12 197 675.12 263.58 617.46 296.87 559.79 263.58 559.79 197" style="fill:#fa5855"/><path d="M622.89,197.14l4.72-7.56.06-5.86-.07-.06c-7.45,6.06-16.25,13.32-23.7,19.39,0,0,0,1.19,0,3.49l8.8-1.37q-3.15,5-6.22,10l0,5.92,21.76-18.73-.07-5.76Z" style="fill:none;stroke:#fff;stroke-width:1.1462846199616408px"/><path d="M628.11,196.61,606.4,215.2h0l8.68-13.87L604,202.89h0l23.57-19.08h0l-9.37,13.87,9.93-1.09s0,0,0,0Z" style="fill:none;stroke:#fff;stroke-width:1.1462846199616408px"/><path d="M578.4,237.54c1.4.17,3.49.42,3.59,2.57a2.45,2.45,0,0,1-.69,2A4.26,4.26,0,0,1,578,243a9.8,9.8,0,0,1-3.65-.89l.75-1.57a8.28,8.28,0,0,0,2.86.82c2.27.18,2.29-.8,2.27-1.17s-.47-.66-2.08-.85c-1.41-.16-3.57-.4-3.6-2.68-.06-1.88,1.67-2.75,3.55-2.7a14.17,14.17,0,0,1,3.45.56l-.56,1.73a10.24,10.24,0,0,0-2.94-.58c-.82,0-1.73.3-1.73,1S576.66,237.35,578.4,237.54Zm9.16-3.58c4.1,0,4,4.17,4,4.17v1h-6.45a2.36,2.36,0,0,0,2.65,2.19,9,9,0,0,0,2.87-.6l.46,1.56a10.21,10.21,0,0,1-3.4.7,4.23,4.23,0,0,1-4.45-4.54A4.27,4.27,0,0,1,587.56,234Zm2.2,3.63s.12-1.9-2.2-1.9a2.26,2.26,0,0,0-2.47,1.9Zm5.44-1.78a2,2,0,0,1,2-1.69h2.77V236h-3a1.72,1.72,0,0,0-1.57,1.43v5.47h-2v-8.74h1.71l.1,1.7Zm10,5.34,2.3-7h1.87l-2.78,8.73h-2.77l-2.65-8.74h2l2.06,7Zm9.39-7.19c4.09,0,4,4.17,4,4.17v1h-6.45a2.36,2.36,0,0,0,2.65,2.19,9.1,9.1,0,0,0,2.88-.6l.45,1.56a10.21,10.21,0,0,1-3.4.7c-4,0-4.44-3.37-4.44-4.54a4.27,4.27,0,0,1,4.36-4.49Zm2.19,3.63s.12-1.9-2.19-1.9a2.28,2.28,0,0,0-2.48,1.9Zm5.45-1.78a2,2,0,0,1,2-1.69H627V236h-3a1.71,1.71,0,0,0-1.57,1.43v5.47h-2v-8.74h1.71Zm9.24-5.19V241h3.59v1.84h-5.45V232.23h-2.79v-1.61Zm9,3.34c4.1,0,4,4.17,4,4.17v1H638a2.36,2.36,0,0,0,2.65,2.19,9.09,9.09,0,0,0,2.87-.6l.46,1.56a10.21,10.21,0,0,1-3.4.7,4.23,4.23,0,0,1-4.45-4.54A4.27,4.27,0,0,1,640.49,234Zm2.2,3.63s.12-1.9-2.2-1.9a2.26,2.26,0,0,0-2.47,1.9Zm6.92-.05c1.4.17,3.49.42,3.6,2.57a2.48,2.48,0,0,1-.7,2,4.26,4.26,0,0,1-3.26.92,9.65,9.65,0,0,1-3.64-.89l.74-1.57a8.28,8.28,0,0,0,2.86.82c2.27.18,2.29-.8,2.27-1.17s-.47-.66-2.07-.85c-1.42-.16-3.58-.4-3.61-2.68-.06-1.88,1.67-2.75,3.55-2.7a14.06,14.06,0,0,1,3.45.56l-.55,1.73a10.36,10.36,0,0,0-3-.58c-.82,0-1.73.3-1.73,1S647.87,237.35,649.61,237.54Zm8.8,0c1.39.17,3.48.42,3.59,2.57a2.48,2.48,0,0,1-.7,2A4.24,4.24,0,0,1,658,243a9.65,9.65,0,0,1-3.64-.89l.75-1.57a8.19,8.19,0,0,0,2.86.82c2.26.18,2.28-.8,2.26-1.17s-.47-.66-2.07-.85c-1.41-.16-3.58-.4-3.61-2.68-.05-1.88,1.67-2.75,3.56-2.7a14.17,14.17,0,0,1,3.45.56l-.56,1.73a10.36,10.36,0,0,0-2.95-.58c-.82,0-1.72.3-1.72,1S656.66,237.35,658.41,237.54Zm-83.27,14h1.57v-1a2.45,2.45,0,0,1,2.56-2.66h2.15v1.84h-2c-.9,0-.83.68-.83,1.31v.52h2.49v1.73h-2.49v6.83h-1.87v-6.83h-1.57v-1.73Zm10.07,1.52a2,2,0,0,1,2-1.69H590v1.83h-3a1.71,1.71,0,0,0-1.57,1.43v5.47h-2V251.4h1.7l.11,1.7Zm13.64,7h-1.68l-.12-1.21a3.45,3.45,0,0,1-2.84,1.31,3.1,3.1,0,0,1-3.42-2.95c0-1.29,1.14-2.64,3.18-2.64h3.08s.18-1.66-1.78-1.66a11.29,11.29,0,0,0-3.12.49l-.52-1.7a18.73,18.73,0,0,1,3.42-.54c2.32,0,3.8,1.21,3.8,3.86v5Zm-4.41-1.54a3.6,3.6,0,0,0,2.66-1.1v-1.27s-1.11,0-2.79,0c-1.18,0-1.62.43-1.62,1.08S593.25,258.6,594.44,258.6Zm12.29-5.89a2.08,2.08,0,0,1,2.22-1.37,2.23,2.23,0,0,1,2.28,1.83v7h-1.86v-5.78c0-.77-.23-1.24-1.12-1.24-.71,0-1.15.43-1.15,1.34v5.68h-1.8v-5.85a1.06,1.06,0,0,0-1.11-1.17,1.2,1.2,0,0,0-1.26,1.15v5.87H601V251.4h1.76l.07,1.07a2.27,2.27,0,0,1,1.87-1.15,2,2,0,0,1,2,1.39Zm10.36-1.46c4.1,0,4,4.17,4,4.17v1H614.6a2.36,2.36,0,0,0,2.65,2.19,9.1,9.1,0,0,0,2.88-.6l.45,1.56a10.21,10.21,0,0,1-3.4.7c-4,0-4.44-3.37-4.44-4.54a4.26,4.26,0,0,1,4.35-4.49Zm2.2,3.63s.12-1.9-2.2-1.9a2.27,2.27,0,0,0-2.47,1.9Zm11.39-3.47h1.85l-1.45,8.73h-2.35l-1.29-6.57,0,0,0,0-1.29,6.57h-2.35l-1.45-8.74h1.85L625,258l1.34-6.57,0,0h2.2l0,0,1.35,6.57.83-6.6Zm7.52-.16a4.12,4.12,0,0,1,4.43,4.49,4.24,4.24,0,0,1-4.43,4.55,4.31,4.31,0,0,1-4.62-4.55C633.58,252.92,635.33,251.25,638.2,251.25Zm0,7.25c1.88,0,2.62-1.17,2.62-2.76a2.67,2.67,0,1,0-5.34,0C635.48,257.33,636.14,258.5,638.2,258.5Zm7.89-5.4a2,2,0,0,1,2-1.69h2.77v1.83h-3a1.71,1.71,0,0,0-1.57,1.43v5.47h-2V251.4H646Zm15.12,7h-2.69l-3.8-4.39v4.39h-1.86V249.52h-1.75v-1.61h3.61v6.69l3.33-3.19h2.48l-4,3.72,4.64,5Z" style="fill:#fff"/><path d="M762.17,303a1.33,1.33,0,0,0,.46.59,3.62,3.62,0,0,0,.93.48,11.76,11.76,0,0,0,1.52.41,6.61,6.61,0,0,1,2.76,1.15,2.5,2.5,0,0,1,.88,2,3,3,0,0,1-.28,1.31,3.08,3.08,0,0,1-.78,1,3.58,3.58,0,0,1-1.21.64,5,5,0,0,1-1.53.23,6.69,6.69,0,0,1-2.46-.44,6.86,6.86,0,0,1-2.12-1.34l.78-.93a6.67,6.67,0,0,0,1.78,1.19,5.15,5.15,0,0,0,2.06.39,2.89,2.89,0,0,0,1.82-.52,1.71,1.71,0,0,0,.68-1.4,1.76,1.76,0,0,0-.13-.71,1.33,1.33,0,0,0-.45-.57A3.18,3.18,0,0,0,766,306a13.38,13.38,0,0,0-1.45-.4,9.6,9.6,0,0,1-1.67-.48,4.23,4.23,0,0,1-1.18-.65,2.47,2.47,0,0,1-.69-.9,3,3,0,0,1-.23-1.22,2.77,2.77,0,0,1,.27-1.23,2.9,2.9,0,0,1,.77-1,3.67,3.67,0,0,1,1.17-.64,4.36,4.36,0,0,1,1.47-.24,6.34,6.34,0,0,1,2.15.34,6.52,6.52,0,0,1,1.79,1l-.74,1a5.63,5.63,0,0,0-1.57-.93,4.87,4.87,0,0,0-1.66-.29,3,3,0,0,0-1,.15,2.57,2.57,0,0,0-.76.38,1.91,1.91,0,0,0-.48.58,1.61,1.61,0,0,0-.16.72A1.81,1.81,0,0,0,762.17,303Z" style="fill:#6731cf"/><path d="M775.28,310.67H774v-10h-3.76v-1.17H779v1.17h-3.76Z" style="fill:#6731cf"/><path d="M790.42,310.67h-1.36l-1.31-3h-6.1l-1.33,3H779l5.1-11.29h1.19Zm-5.71-9.8-2.56,5.72h5.1Z" style="fill:#6731cf"/><path d="M795.41,310.67h-1.26v-10h-3.76v-1.17h8.78v1.17h-3.76Z" style="fill:#6731cf"/><path d="M802.93,299.46v11.21h-1.26V299.46Z" style="fill:#6731cf"/><path d="M814.91,309.7a5.86,5.86,0,0,1-1,.61,5.37,5.37,0,0,1-1.17.4,5.92,5.92,0,0,1-1.39.15,5.47,5.47,0,0,1-4-1.68,5.29,5.29,0,0,1-1.18-1.83,6.07,6.07,0,0,1-.42-2.27,6,6,0,0,1,.42-2.25,5.48,5.48,0,0,1,1.18-1.85,5.3,5.3,0,0,1,1.79-1.25,5.48,5.48,0,0,1,2.27-.46,7.19,7.19,0,0,1,1.38.13,6.45,6.45,0,0,1,1.15.36,5.45,5.45,0,0,1,1,.56,8.41,8.41,0,0,1,.87.73l-.87.93a7.07,7.07,0,0,0-1.54-1.11,4.33,4.33,0,0,0-6,2.36,5.18,5.18,0,0,0,0,3.64,4.24,4.24,0,0,0,.91,1.47,4.33,4.33,0,0,0,1.37,1,4.14,4.14,0,0,0,1.72.36,4.26,4.26,0,0,0,2-.43,6.63,6.63,0,0,0,1.63-1.19l.83.82A8.44,8.44,0,0,1,814.91,309.7Z" style="fill:#6731cf"/><path d="M750.64,322.17a1.4,1.4,0,0,0,.46.59,3.62,3.62,0,0,0,.93.48,11.76,11.76,0,0,0,1.52.41,6.5,6.5,0,0,1,2.76,1.15,2.51,2.51,0,0,1,.89,2,3,3,0,0,1-1.07,2.32,3.58,3.58,0,0,1-1.21.64,5,5,0,0,1-1.53.22,6.69,6.69,0,0,1-2.46-.43,7.05,7.05,0,0,1-2.12-1.34l.79-.93a6.48,6.48,0,0,0,1.77,1.19,5.16,5.16,0,0,0,2.07.4,2.89,2.89,0,0,0,1.81-.53,1.68,1.68,0,0,0,.68-1.4,1.76,1.76,0,0,0-.13-.71,1.33,1.33,0,0,0-.45-.57,2.94,2.94,0,0,0-.89-.46,10,10,0,0,0-1.45-.4,10.51,10.51,0,0,1-1.67-.49,4.23,4.23,0,0,1-1.18-.65,2.47,2.47,0,0,1-.69-.9,3,3,0,0,1-.23-1.22,2.65,2.65,0,0,1,.28-1.23,2.76,2.76,0,0,1,.76-1,3.67,3.67,0,0,1,1.17-.64,4.36,4.36,0,0,1,1.47-.24,6.4,6.4,0,0,1,2.16.34,6.85,6.85,0,0,1,1.78,1l-.74,1a5.5,5.5,0,0,0-1.57-.93,4.87,4.87,0,0,0-1.66-.29,3,3,0,0,0-1,.15,2.4,2.4,0,0,0-.75.38,1.66,1.66,0,0,0-.48.58,1.47,1.47,0,0,0-.17.72A1.81,1.81,0,0,0,750.64,322.17Z" style="fill:#6731cf"/><path d="M763.76,329.86h-1.27v-10h-3.76v-1.16h8.79v1.16h-3.76Z" style="fill:#6731cf"/><path d="M779.64,326.46a5.63,5.63,0,0,1-1.16,1.85A5.67,5.67,0,0,1,769,326.5a6.11,6.11,0,0,1-.4-2.22,5.87,5.87,0,0,1,1.58-4.06,5.5,5.5,0,0,1,1.81-1.28,6,6,0,0,1,4.66,0,5.48,5.48,0,0,1,3,3.09,6.12,6.12,0,0,1,.41,2.22A5.83,5.83,0,0,1,779.64,326.46Zm-1.22-4a4.63,4.63,0,0,0-.92-1.47,4.39,4.39,0,0,0-1.4-1,4.16,4.16,0,0,0-1.77-.37,4.31,4.31,0,0,0-1.77.36,4.16,4.16,0,0,0-1.38,1,4.43,4.43,0,0,0-.9,1.46,4.88,4.88,0,0,0-.33,1.8,5,5,0,0,0,.33,1.81,4.3,4.3,0,0,0,.92,1.47,4.39,4.39,0,0,0,1.4,1,4.08,4.08,0,0,0,1.76.37,4.31,4.31,0,0,0,1.77-.36,4.2,4.2,0,0,0,1.39-1,4.6,4.6,0,0,0,.9-1.46,4.88,4.88,0,0,0,.33-1.8A5,5,0,0,0,778.42,322.47Z" style="fill:#6731cf"/><path d="M790.44,329.86l-3.24-4.35H784v4.35h-1.27V318.67h4.82a5.43,5.43,0,0,1,1.67.24,3.59,3.59,0,0,1,1.27.68,3,3,0,0,1,.82,1.05,3.23,3.23,0,0,1,.29,1.37,3.33,3.33,0,0,1-.23,1.26,2.86,2.86,0,0,1-.63,1,3.44,3.44,0,0,1-1,.68,4.38,4.38,0,0,1-1.21.38l3.44,4.57Zm-.86-9.44a3.38,3.38,0,0,0-2.12-.59H784v4.56h3.45a3.85,3.85,0,0,0,1.15-.16,2.6,2.6,0,0,0,.91-.46,2.06,2.06,0,0,0,.61-.73,2.19,2.19,0,0,0,.21-1A2,2,0,0,0,789.58,320.42Z" style="fill:#6731cf"/><path d="M804.73,329.86h-1.36l-1.31-2.95H796l-1.32,2.95h-1.3l5.1-11.27h1.19ZM799,320.07l-2.56,5.71h5.1Z" style="fill:#6731cf"/><path d="M814.05,329.55a6.24,6.24,0,0,1-2.57.51,6,6,0,0,1-2.37-.45,5.29,5.29,0,0,1-1.79-1.23,5.37,5.37,0,0,1-1.14-1.84,6.51,6.51,0,0,1-.39-2.26,5.94,5.94,0,0,1,.41-2.21,5.74,5.74,0,0,1,1.14-1.85,5.44,5.44,0,0,1,1.77-1.28,5.52,5.52,0,0,1,2.29-.47,7.35,7.35,0,0,1,1.29.1,5.28,5.28,0,0,1,1.09.29,4.86,4.86,0,0,1,.94.47,7.27,7.27,0,0,1,.86.63l-.82,1a5.7,5.7,0,0,0-.67-.52,4.56,4.56,0,0,0-.76-.4,4.63,4.63,0,0,0-.89-.26,5.22,5.22,0,0,0-1.08-.1,4,4,0,0,0-1.72.37,4.14,4.14,0,0,0-1.34,1,4.72,4.72,0,0,0-.88,1.47,5.07,5.07,0,0,0-.32,1.79,5.34,5.34,0,0,0,.31,1.86,4.44,4.44,0,0,0,.89,1.49,4.21,4.21,0,0,0,1.39,1,4.71,4.71,0,0,0,1.84.35,5,5,0,0,0,1.81-.33,5.17,5.17,0,0,0,1.42-.8V325h-3.4V323.9H816v4.45A7,7,0,0,1,814.05,329.55Z" style="fill:#6731cf"/><path d="M826.92,319.82h-6.83v3.82h6.11v1.15h-6.11v3.92H827v1.15h-8.17V318.67h8.09Z" style="fill:#6731cf"/></svg>