<?xml version="1.0" encoding="UTF-8"?>
<svg width="400px" height="831px" viewBox="0 0 400 831" version="1.1" xmlns="http://www.w3.org/2000/svg" xmlns:xlink="http://www.w3.org/1999/xlink">
    <!-- Generator: Sketch 50.2 (55047) - http://www.bohemiancoding.com/sketch -->
    <title>Diagram</title>
    <desc>Created with Sketch.</desc>
    <defs>
        <path d="M6.409713,-2.58960077e-16 L393.590287,-1.60180366e-14 C395.819084,9.30694053e-15 396.627299,0.232064028 397.442114,0.667831759 C398.256929,1.10359949 398.896401,1.74307093 399.332168,2.55788574 C399.767936,3.37270056 400,4.18091615 400,6.409713 L400,293.590287 C400,295.819084 399.767936,296.627299 399.332168,297.442114 C398.896401,298.256929 398.256929,298.896401 397.442114,299.332168 C396.627299,299.767936 395.819084,300 393.590287,300 L6.409713,300 C4.18091615,300 3.37270056,299.767936 2.55788574,299.332168 C1.74307093,298.896401 1.10359949,298.256929 0.667831759,297.442114 C0.232064028,296.627299 1.00308841e-16,295.819084 -1.72640051e-16,293.590287 L1.72640051e-16,6.409713 C-1.00308841e-16,4.18091615 0.232064028,3.37270056 0.667831759,2.55788574 C1.10359949,1.74307093 1.74307093,1.10359949 2.55788574,0.667831759 C3.37270056,0.232064028 4.18091615,1.50463262e-16 6.409713,-2.58960077e-16 Z" id="path-1"></path>
        <mask id="mask-2" maskContentUnits="userSpaceOnUse" maskUnits="objectBoundingBox" x="0" y="0" width="400" height="300" fill="white">
            <use xlink:href="#path-1"></use>
        </mask>
        <path d="M6.409713,-2.58960077e-16 L327.590287,2.58960077e-16 C329.819084,-1.50463262e-16 330.627299,0.232064028 331.442114,0.667831759 C332.256929,1.10359949 332.896401,1.74307093 333.332168,2.55788574 C333.767936,3.37270056 334,4.18091615 334,6.409713 L334,167.590287 C334,169.819084 333.767936,170.627299 333.332168,171.442114 C332.896401,172.256929 332.256929,172.896401 331.442114,173.332168 C330.627299,173.767936 329.819084,174 327.590287,174 L6.409713,174 C4.18091615,174 3.37270056,173.767936 2.55788574,173.332168 C1.74307093,172.896401 1.10359949,172.256929 0.667831759,171.442114 C0.232064028,170.627299 1.00308841e-16,169.819084 -1.72640051e-16,167.590287 L1.72640051e-16,6.409713 C-1.00308841e-16,4.18091615 0.232064028,3.37270056 0.667831759,2.55788574 C1.10359949,1.74307093 1.74307093,1.10359949 2.55788574,0.667831759 C3.37270056,0.232064028 4.18091615,1.50463262e-16 6.409713,-2.58960077e-16 Z" id="path-3"></path>
        <mask id="mask-4" maskContentUnits="userSpaceOnUse" maskUnits="objectBoundingBox" x="0" y="0" width="334" height="174" fill="white">
            <use xlink:href="#path-3"></use>
        </mask>
        <path d="M22.5,16.25 L16.25,16.25 L16.25,22.5 C16.25,23.1875 15.6875,23.75 15,23.75 C14.3125,23.75 13.75,23.1875 13.75,22.5 L13.75,16.25 L7.5,16.25 C6.8125,16.25 6.25,15.6875 6.25,15 C6.25,14.3125 6.8125,13.75 7.5,13.75 L13.75,13.75 L13.75,7.5 C13.75,6.8125 14.3125,6.25 15,6.25 C15.6875,6.25 16.25,6.8125 16.25,7.5 L16.25,13.75 L22.5,13.75 C23.1875,13.75 23.75,14.3125 23.75,15 C23.75,15.6875 23.1875,16.25 22.5,16.25 Z" id="path-5"></path>
        <path d="M6.409713,-2.58960077e-16 L393.590287,-1.60180366e-14 C395.819084,9.30694053e-15 396.627299,0.232064028 397.442114,0.667831759 C398.256929,1.10359949 398.896401,1.74307093 399.332168,2.55788574 C399.767936,3.37270056 400,4.18091615 400,6.409713 L400,293.590287 C400,295.819084 399.767936,296.627299 399.332168,297.442114 C398.896401,298.256929 398.256929,298.896401 397.442114,299.332168 C396.627299,299.767936 395.819084,300 393.590287,300 L6.409713,300 C4.18091615,300 3.37270056,299.767936 2.55788574,299.332168 C1.74307093,298.896401 1.10359949,298.256929 0.667831759,297.442114 C0.232064028,296.627299 1.00308841e-16,295.819084 -1.72640051e-16,293.590287 L1.72640051e-16,6.409713 C-1.00308841e-16,4.18091615 0.232064028,3.37270056 0.667831759,2.55788574 C1.10359949,1.74307093 1.74307093,1.10359949 2.55788574,0.667831759 C3.37270056,0.232064028 4.18091615,1.50463262e-16 6.409713,-2.58960077e-16 Z" id="path-7"></path>
        <mask id="mask-8" maskContentUnits="userSpaceOnUse" maskUnits="objectBoundingBox" x="0" y="0" width="400" height="300" fill="white">
            <use xlink:href="#path-7"></use>
        </mask>
        <path d="M22.5,16.25 L16.25,16.25 L16.25,22.5 C16.25,23.1875 15.6875,23.75 15,23.75 C14.3125,23.75 13.75,23.1875 13.75,22.5 L13.75,16.25 L7.5,16.25 C6.8125,16.25 6.25,15.6875 6.25,15 C6.25,14.3125 6.8125,13.75 7.5,13.75 L13.75,13.75 L13.75,7.5 C13.75,6.8125 14.3125,6.25 15,6.25 C15.6875,6.25 16.25,6.8125 16.25,7.5 L16.25,13.75 L22.5,13.75 C23.1875,13.75 23.75,14.3125 23.75,15 C23.75,15.6875 23.1875,16.25 22.5,16.25 Z" id="path-9"></path>
        <path d="M6.409713,-2.58960077e-16 L327.590287,2.58960077e-16 C329.819084,-1.50463262e-16 330.627299,0.232064028 331.442114,0.667831759 C332.256929,1.10359949 332.896401,1.74307093 333.332168,2.55788574 C333.767936,3.37270056 334,4.18091615 334,6.409713 L334,44.590287 C334,46.8190838 333.767936,47.6272994 333.332168,48.4421143 C332.896401,49.2569291 332.256929,49.8964005 331.442114,50.3321682 C330.627299,50.767936 329.819084,51 327.590287,51 L6.409713,51 C4.18091615,51 3.37270056,50.767936 2.55788574,50.3321682 C1.74307093,49.8964005 1.10359949,49.2569291 0.667831759,48.4421143 C0.232064028,47.6272994 1.00308841e-16,46.8190838 -1.72640051e-16,44.590287 L1.72640051e-16,6.409713 C-1.00308841e-16,4.18091615 0.232064028,3.37270056 0.667831759,2.55788574 C1.10359949,1.74307093 1.74307093,1.10359949 2.55788574,0.667831759 C3.37270056,0.232064028 4.18091615,1.50463262e-16 6.409713,-2.58960077e-16 Z" id="path-11"></path>
        <mask id="mask-12" maskContentUnits="userSpaceOnUse" maskUnits="objectBoundingBox" x="0" y="0" width="334" height="51" fill="white">
            <use xlink:href="#path-11"></use>
        </mask>
        <path d="M6.409713,-2.58960077e-16 L327.590287,2.58960077e-16 C329.819084,-1.50463262e-16 330.627299,0.232064028 331.442114,0.667831759 C332.256929,1.10359949 332.896401,1.74307093 333.332168,2.55788574 C333.767936,3.37270056 334,4.18091615 334,6.409713 L334,44.590287 C334,46.8190838 333.767936,47.6272994 333.332168,48.4421143 C332.896401,49.2569291 332.256929,49.8964005 331.442114,50.3321682 C330.627299,50.767936 329.819084,51 327.590287,51 L6.409713,51 C4.18091615,51 3.37270056,50.767936 2.55788574,50.3321682 C1.74307093,49.8964005 1.10359949,49.2569291 0.667831759,48.4421143 C0.232064028,47.6272994 1.00308841e-16,46.8190838 -1.72640051e-16,44.590287 L1.72640051e-16,6.409713 C-1.00308841e-16,4.18091615 0.232064028,3.37270056 0.667831759,2.55788574 C1.10359949,1.74307093 1.74307093,1.10359949 2.55788574,0.667831759 C3.37270056,0.232064028 4.18091615,1.50463262e-16 6.409713,-2.58960077e-16 Z" id="path-13"></path>
        <mask id="mask-14" maskContentUnits="userSpaceOnUse" maskUnits="objectBoundingBox" x="0" y="0" width="334" height="51" fill="white">
            <use xlink:href="#path-13"></use>
        </mask>
        <path d="M6.409713,-2.58960077e-16 L327.590287,2.58960077e-16 C329.819084,-1.50463262e-16 330.627299,0.232064028 331.442114,0.667831759 C332.256929,1.10359949 332.896401,1.74307093 333.332168,2.55788574 C333.767936,3.37270056 334,4.18091615 334,6.409713 L334,44.590287 C334,46.8190838 333.767936,47.6272994 333.332168,48.4421143 C332.896401,49.2569291 332.256929,49.8964005 331.442114,50.3321682 C330.627299,50.767936 329.819084,51 327.590287,51 L6.409713,51 C4.18091615,51 3.37270056,50.767936 2.55788574,50.3321682 C1.74307093,49.8964005 1.10359949,49.2569291 0.667831759,48.4421143 C0.232064028,47.6272994 1.00308841e-16,46.8190838 -1.72640051e-16,44.590287 L1.72640051e-16,6.409713 C-1.00308841e-16,4.18091615 0.232064028,3.37270056 0.667831759,2.55788574 C1.10359949,1.74307093 1.74307093,1.10359949 2.55788574,0.667831759 C3.37270056,0.232064028 4.18091615,1.50463262e-16 6.409713,-2.58960077e-16 Z" id="path-15"></path>
        <mask id="mask-16" maskContentUnits="userSpaceOnUse" maskUnits="objectBoundingBox" x="0" y="0" width="334" height="51" fill="white">
            <use xlink:href="#path-15"></use>
        </mask>
        <polygon id="path-17" points="45 76.5 67.5 54 45 31.5"></polygon>
        <polygon id="path-19" points="45 76.5 67.5 54 45 31.5"></polygon>
        <path d="M55,193 C74.3299662,193 90,177.329966 90,158 C90,138.670034 74.3299662,123 55,123 C35.6700338,123 20,138.670034 20,158 C20,177.329966 35.6700338,193 55,193 Z" id="path-21"></path>
        <mask id="mask-22" maskContentUnits="userSpaceOnUse" maskUnits="objectBoundingBox" x="0" y="0" width="70" height="70" fill="white">
            <use xlink:href="#path-21"></use>
        </mask>
    </defs>
    <g id="Home-v1" stroke="none" stroke-width="1" fill="none" fill-rule="evenodd">
        <g id="Main-page" transform="translate(-276.000000, -3513.000000)">
            <g id="Made-for-devs" transform="translate(72.000000, 3054.000000)">
                <g id="Architecture-v2" transform="translate(204.000000, 459.000000)">
                    <g id="Diagram">
                        <g id="Client-Side">
                            <use id="Rectangle-9" stroke="#FFFFFF" mask="url(#mask-2)" stroke-width="4" fill-opacity="0.248329937" fill="#FFFFFF" stroke-dasharray="5,10" xlink:href="#path-1"></use>
                            <text id="CLIENT-SIDE" font-family="SourceSansPro-Semibold, Source Sans Pro" font-size="16" font-weight="500" fill="#FEFEFE">
                                <tspan x="158" y="33">CLIENT SIDE</tspan>
                            </text>
                            <g id="Apps" transform="translate(32.000000, 55.000000)">
                                <use id="Rectangle-11" stroke="#FFFFFF" mask="url(#mask-4)" stroke-width="2" fill-opacity="0.25" fill="#FFFFFF" stroke-dasharray="5,10" xlink:href="#path-3"></use>
                                <text id="Webiny-Apps" font-family="SourceSansPro-Bold, Source Sans Pro" font-size="18" font-weight="bold" fill="#FEFEFE">
                                    <tspan x="111" y="96">Webiny Apps</tspan>
                                </text>
                            </g>
                            <g id="stack" transform="translate(33.000000, 251.000000)">
                                <g id="react-logo" transform="translate(0.000000, 1.000000)">
                                    <path d="M24.074303,17.7181813 C23.9206285,17.7696112 23.7628477,17.8192807 23.6020805,17.8674412 C23.2462027,16.7290667 22.7658921,15.5185143 22.1783205,14.2679747 C22.7391391,13.0469854 23.2007848,11.8520254 23.5467079,10.7209441 C23.8342721,10.8051936 24.1134993,10.8938443 24.382523,10.9875247 C26.9844127,11.8925155 28.5714286,13.2308254 28.5714286,14.2619389 C28.5714286,15.3603264 26.8573668,16.786281 24.0744274,17.7181813 L24.074303,17.7181813 Z M22.9195666,20.0305163 C23.2009092,21.466782 23.241101,22.7653563 23.0547007,23.7805002 C22.8872141,24.6926585 22.550499,25.300764 22.1341468,25.5443331 C21.2480609,26.0626563 19.3530739,25.3889116 17.3096386,23.6118754 C17.0753316,23.4081676 16.8392826,23.1906278 16.6026114,22.9605134 C17.394875,22.0848214 18.1866409,21.0667854 18.9593685,19.9363328 C20.3186724,19.8144854 21.6028188,19.6151787 22.7673853,19.3431911 C22.8246244,19.5770778 22.8756419,19.8063119 22.9195666,20.0305163 Z M11.2415489,25.4548023 C10.37587,25.7637591 9.68638788,25.7725613 9.26966246,25.5297466 C8.3827055,25.0129324 8.01413557,23.0173504 8.51696849,20.3408563 C8.57676342,20.0245509 8.64522778,19.7099823 8.7222826,19.3975131 C9.8739081,19.6549143 11.1487221,19.8401375 12.5112612,19.9517995 C13.2890906,21.0579832 14.1037521,22.0747618 14.9247596,22.965166 C14.7502737,23.1357353 14.5716585,23.3019374 14.3890765,23.4636214 C13.2981742,24.4273353 12.2050321,25.1108882 11.2416734,25.4548023 L11.2415489,25.4548023 Z M7.18591089,17.711391 C5.81491037,17.2378332 4.68269638,16.6224345 3.90660904,15.9509532 C3.20928766,15.3473746 2.85714286,14.748197 2.85714286,14.2619389 C2.85714286,13.2274303 4.38355994,11.9077307 6.92933047,11.0107876 C7.24886134,10.8987002 7.57157085,10.7960898 7.89704431,10.7030883 C8.24894025,11.8595701 8.71046148,13.0687394 9.26742267,14.2914892 C8.70324438,15.532472 8.23512821,16.7608804 7.87999701,17.9309427 C7.64688977,17.863517 7.41545783,17.790311 7.18591089,17.711391 Z M8.5454636,8.3596941 C8.01699752,5.63063832 8.367898,3.57205785 9.25099754,3.05549511 C10.1917095,2.50523256 12.2716036,3.28988482 14.4638606,5.25692254 C14.6039719,5.38266809 14.7447054,5.51432369 14.8856877,5.65050612 C14.0689109,6.53688654 13.2617153,7.54599461 12.4906053,8.64576523 C11.168258,8.76962461 9.90240321,8.96855407 8.73870772,9.2350089 C8.66702491,8.94488243 8.60258973,8.65297622 8.5454636,8.35956835 L8.5454636,8.3596941 Z M20.6735547,11.3860124 C20.3986923,10.9062214 20.1136336,10.4324699 19.818577,9.96508759 C20.7157374,10.079516 21.5751947,10.2316682 22.3822658,10.4178973 C22.1399952,11.2026753 21.8379968,12.0232908 21.4823679,12.8645286 C21.2225294,12.3662983 20.9528713,11.8733613 20.6735547,11.3860124 Z M15.7277245,6.51789896 C16.2816993,7.12436977 16.8365451,7.80163533 17.3823073,8.5363666 C16.2752301,8.48350068 15.1663057,8.48324891 14.0592051,8.53561213 C14.6054651,7.80767111 15.1650394,7.13141152 15.7277245,6.51789896 Z M10.7501638,11.3943116 C10.4743444,11.8777846 10.2097282,12.3676969 9.95653148,12.8636484 C9.60675089,12.0253028 9.30749002,11.2010407 9.06310402,10.4050713 C9.86532224,10.2236205 10.7207977,10.0753664 11.6121098,9.96282418 C11.3137465,10.4331031 11.026352,10.9103971 10.7501638,11.3943116 Z M11.637743,18.6476924 C10.7169403,18.5438266 9.84852381,18.4031173 9.04655446,18.2266963 C9.29479788,17.4166434 9.60065369,16.5746512 9.95790024,15.718324 C10.2121644,16.214643 10.4779433,16.7048509 10.7550167,17.188541 C11.0377419,17.6819449 11.3320676,18.1684669 11.637743,18.6476924 Z M15.760948,22.0917374 C15.191668,21.4709316 14.6238811,20.7843609 14.0692842,20.0458572 C14.6075804,20.067234 15.1564535,20.0780481 15.7142857,20.0780481 C16.2874232,20.0780481 16.8539657,20.0650963 17.411549,20.0399472 C16.8640447,20.7919056 16.3111898,21.4794823 15.760948,22.0917374 Z M21.4938157,15.6746903 C21.8696027,16.5403227 22.1864086,17.377788 22.4380117,18.1741346 C21.6227281,18.3621242 20.7426149,18.5135219 19.8152173,18.6259384 C20.1124065,18.1498298 20.4001936,17.6677936 20.6784076,17.180116 C20.9612291,16.6844831 21.2330991,16.1825502 21.4938157,15.6746903 Z M19.6379006,16.573771 C19.211992,17.3214485 18.7621371,18.0549327 18.2890491,18.7730607 C17.4548516,18.8332928 16.5927812,18.864352 15.7142857,18.864352 C14.8393987,18.864352 13.9882784,18.8368137 13.1686396,18.7831204 C12.6832816,18.0666644 12.2249167,17.3319108 11.7945283,16.5804355 C11.3661515,15.8329472 10.9660191,15.0692891 10.5949961,14.2911119 C10.9650754,13.5127016 11.3639987,12.7486344 11.7909197,12.0005309 L11.7909197,12.0007824 C12.2177068,11.2525196 12.6724632,10.5209076 13.1542054,9.80752841 C13.9903938,9.74364967 14.8477357,9.71020136 15.7144101,9.71020136 C16.584942,9.71020136 17.4434038,9.74390116 18.2793433,9.80828289 C18.7562128,10.5205643 19.2080606,11.2496296 19.6340432,11.9941179 C20.0624323,12.740557 20.4666793,13.5008814 20.846143,14.2738848 C20.4705827,15.0547639 20.0676213,15.8218788 19.638025,16.573771 L19.6379006,16.573771 Z M22.1157308,3.01940614 C23.0571893,3.56815974 23.423395,5.78090426 22.8318415,8.68273443 C22.7930683,8.87177113 22.7509202,9.06008484 22.7054178,9.24758346 C21.5389848,8.97559582 20.272259,8.77314548 18.9460542,8.64739993 C18.173451,7.53568348 17.3729749,6.52481496 16.5693879,5.64987739 C16.7799609,5.44472955 16.995545,5.24490012 17.2159407,5.05057408 C19.2917285,3.22500012 21.2317602,2.5042266 22.1157308,3.01940614 Z" id="Shape" fill="#FFFFFF" fill-rule="nonzero"></path>
                                    <path d="M16.2857143,12 C17.7059452,12 18.8571429,13.1512965 18.8571429,14.5713649 C18.8571429,15.9915606 17.7059452,17.1428571 16.2857143,17.1428571 C14.8656108,17.1428571 13.7142857,15.9915606 13.7142857,14.5713649 C13.7142857,13.1512965 14.8656108,12 16.2857143,12" id="Shape" fill="#FFFFFF" fill-rule="nonzero"></path>
                                    <text id="React" font-family="SourceSansPro-Bold, Source Sans Pro" font-size="18" font-weight="bold" fill="#FEFEFE">
                                        <tspan x="39" y="21">React</tspan>
                                    </text>
                                </g>
                                <g id="material_logo" transform="translate(174.000000, 1.000000)">
                                    <g id="Group" stroke="#FFFFFF" stroke-width="2">
                                        <circle id="Oval" cx="14" cy="14" r="14"></circle>
                                        <polygon id="Shape" points="4.33548387 4.33548387 23.6645161 4.33548387 23.6645161 23.6645161 4.33548387 23.6645161"></polygon>
                                        <polygon id="Shape" points="23.3854058 4.33548387 4.61459419 4.33548387 14 23.106291"></polygon>
                                    </g>
                                    <text id="Material-Design" font-family="SourceSansPro-Bold, Source Sans Pro" font-size="18" font-weight="bold" fill="#FEFEFE">
                                        <tspan x="38" y="21">Material Design</tspan>
                                    </text>
                                </g>
                                <g id="Icon-/-Add-/-Rounded" transform="translate(114.000000, 0.000000)">
                                    <mask id="mask-6" fill="white">
                                        <use xlink:href="#path-5"></use>
                                    </mask>
                                    <g id="Mask" fill-rule="nonzero"></g>
                                    <g id="✱-/-Color-/-Icons-/-Primary-or-Secondary" mask="url(#mask-6)" fill="#FFFFFF" fill-rule="evenodd">
                                        <g id="✱-/-Color-/-Primary-/-Main">
                                            <g id="✱-/-Color-/-Primary-/-050">
                                                <rect id="Rectangle-13" x="0" y="0" width="30" height="30"></rect>
                                            </g>
                                        </g>
                                    </g>
                                </g>
                            </g>
                        </g>
                        <g id="Server-Side" transform="translate(0.000000, 531.000000)">
                            <use id="Rectangle-9" stroke="#FFFFFF" mask="url(#mask-8)" stroke-width="4" fill-opacity="0.248329937" fill="#FFFFFF" stroke-dasharray="5,10" xlink:href="#path-7"></use>
                            <text id="SERVER-SIDE" font-family="SourceSansPro-Semibold, Source Sans Pro" font-size="16" font-weight="500" fill="#FEFEFE">
                                <tspan x="156.284" y="33">SERVER SIDE</tspan>
                            </text>
                            <g id="Stack" transform="translate(35.000000, 252.000000)">
                                <g id="node-js-brands">
                                    <path d="M13.3333333,30 C12.9345238,30 12.5297619,29.8928571 12.1785714,29.6904762 L8.50595238,27.5178571 C7.95833333,27.2083333 8.22619048,27.1011905 8.4047619,27.0416667 C9.13690476,26.7857143 9.28571429,26.7321429 10.0654762,26.2857143 C10.1488095,26.2380952 10.2559524,26.2559524 10.3392857,26.3095238 L13.1607143,27.9821429 C13.2619048,28.0416667 13.4047619,28.0416667 13.5,27.9821429 L24.4940476,21.6369048 C24.5952381,21.577381 24.6607143,21.4583333 24.6607143,21.3392857 L24.6607143,8.64880952 C24.6607143,8.52380952 24.5952381,8.41071429 24.4880952,8.3452381 L13.5,2.00595238 C13.3988095,1.94642857 13.2619048,1.94642857 13.1607143,2.00595238 L2.17857143,8.35119048 C2.07142857,8.41071429 2.00595238,8.5297619 2.00595238,8.6547619 L2.00595238,21.3392857 C2.00595238,21.4583333 2.07142857,21.577381 2.17857143,21.6309524 L5.19047619,23.3690476 C6.82738095,24.1845238 7.82738095,23.2261905 7.82738095,22.2559524 L7.82738095,9.73214286 C7.82738095,9.55357143 7.9702381,9.41666667 8.14880952,9.41666667 L9.54166667,9.41666667 C9.71428571,9.41666667 9.86309524,9.55357143 9.86309524,9.73214286 L9.86309524,22.2619048 C9.86309524,24.4404762 8.67261905,25.6904762 6.60714286,25.6904762 C5.9702381,25.6904762 5.4702381,25.6904762 4.07738095,25 L1.19642857,23.3392857 C0.482142857,22.9285714 0.0416666667,22.1607143 0.0416666667,21.3333333 L0.0416666667,8.64880952 C0.0416666667,7.82738095 0.482142857,7.05357143 1.19642857,6.64285714 L12.1785714,0.297619048 C12.875,-0.0952380952 13.797619,-0.0952380952 14.4880952,0.297619048 L25.4821429,6.64880952 C26.1964286,7.05952381 26.6369048,7.82738095 26.6369048,8.6547619 L26.6369048,21.3392857 C26.6369048,22.1607143 26.1964286,22.9285714 25.4821429,23.3452381 L14.4880952,29.6904762 C14.1369048,29.8928571 13.7380952,30 13.3333333,30 Z M22.2083333,17.4940476 C22.2083333,15.1190476 20.6011905,14.4880952 17.2261905,14.0416667 C13.8095238,13.5892857 13.4642857,13.3571429 13.4642857,12.5595238 C13.4642857,11.8988095 13.7559524,11.0178571 16.2857143,11.0178571 C18.5416667,11.0178571 19.375,11.5059524 19.7202381,13.0297619 C19.75,13.172619 19.8809524,13.2797619 20.0297619,13.2797619 L21.4583333,13.2797619 C21.547619,13.2797619 21.6309524,13.2440476 21.6904762,13.1785714 C21.75,13.1130952 21.7797619,13.0238095 21.7738095,12.9345238 C21.5535714,10.3095238 19.8095238,9.08928571 16.2857143,9.08928571 C13.1488095,9.08928571 11.2797619,10.4107143 11.2797619,12.6309524 C11.2797619,15.0357143 13.1428571,15.702381 16.1488095,16 C19.75,16.3511905 20.0297619,16.8809524 20.0297619,17.5892857 C20.0297619,18.8154762 19.0416667,19.3392857 16.7261905,19.3392857 C13.8154762,19.3392857 13.1785714,18.6071429 12.9642857,17.1607143 C12.9404762,17.0059524 12.8095238,16.8928571 12.6488095,16.8928571 L11.2261905,16.8928571 C11.047619,16.8928571 10.9107143,17.0357143 10.9107143,17.2083333 C10.9107143,19.0595238 11.9166667,21.2678571 16.7321429,21.2678571 C20.2083333,21.2619048 22.2083333,19.8869048 22.2083333,17.4940476 Z" id="Shape" fill="#FFFFFF" fill-rule="nonzero"></path>
                                    <text id="Node.js" font-family="SourceSansPro-Bold, Source Sans Pro" font-size="18" font-weight="bold" fill="#FEFEFE">
                                        <tspan x="36" y="21">Node.js</tspan>
                                    </text>
                                </g>
                                <g id="mysql-copy" transform="translate(220.000000, 0.000000)">
                                    <path d="M10.7855481,27.4162529 L9.05452181,27.4162529 C8.99330871,24.6320151 8.8247218,22.014481 8.54909558,19.5617381 L8.53370868,19.5617381 L5.89820027,27.4162529 L4.58027881,27.4162529 L1.96049179,19.5617381 L1.94543939,19.5617381 C1.75109615,21.9166263 1.62866994,24.5347979 1.57782627,27.4162529 L0,27.4162529 C0.101687341,23.9122889 0.357243684,20.6273027 0.765665537,17.5609756 L2.91113463,17.5609756 L5.40816094,24.8025437 L5.42354784,24.8025437 L7.93596106,17.5609756 L9.98877425,17.5609756 C10.4383393,21.1525945 10.7039306,24.4378994 10.7855481,27.4162529 Z M18.2926829,20.1450415 C17.587896,23.789572 16.657992,26.4377057 15.5039745,28.0907173 C14.6048443,29.3631475 13.6197482,30 12.5470137,30 C12.261018,30 11.9081228,29.9177638 11.4900005,29.7545663 L11.4900005,28.8757863 C11.6943787,28.9038359 11.9342136,28.9197731 12.2098399,28.9197731 C12.7109176,28.9197731 13.113653,28.7884502 13.420722,28.5251668 C13.7880006,28.2045093 13.9716399,27.8440087 13.9716399,27.4452587 C13.9716399,27.1717754 13.8284749,26.6126967 13.5428137,25.7661099 L11.6432005,20.1447227 L13.3437875,20.1447227 L14.7072007,24.3489695 C15.0136007,25.3036109 15.1413789,25.9701067 15.0902007,26.349732 C15.8357964,24.4522429 16.3566095,22.383269 16.6533091,20.144404 L18.2926829,20.144404 L18.2926829,20.1450415 Z" id="Shape" fill="#FFFFFF" fill-rule="nonzero"></path>
                                    <path d="M40.2439024,27.8801864 L35.4912387,27.8801864 L35.4912387,17.7122499 L37.0900089,17.7122499 L37.0900089,26.6285558 L40.2439024,26.6285558 L40.2439024,27.8801864 Z M34.24714,28.1258427 L32.4094433,27.2033982 C32.5723918,27.0672513 32.7282275,26.9199233 32.8685442,26.7492464 C33.6496623,25.8159496 34.0392514,24.4357358 34.0392514,22.6076185 C34.0392514,19.243738 32.7414832,17.5609756 30.1449769,17.5609756 C28.8717803,17.5609756 27.8785705,17.9878323 27.1682575,18.8418745 C26.387786,19.775829 25.9981969,21.1511099 25.9981969,22.9693615 C25.9981969,24.7567005 26.3434925,26.0678542 27.0344069,26.8995341 C27.6664789,27.652946 28.6192748,28.0301452 29.8934413,28.0301452 C30.3687077,28.0301452 30.8048535,27.9709509 31.2022021,27.8515758 L33.5946995,29.2682927 L34.24714,28.1258427 Z M28.2940245,25.8455467 C27.8892398,25.1832283 27.6868474,24.119704 27.6868474,22.6533297 C27.6868474,20.0931762 28.4514767,18.8116196 29.9823517,18.8116196 C30.7825451,18.8116196 31.3690303,19.1181146 31.7440704,19.729789 C32.1482085,20.393094 32.3515708,21.4470814 32.3515708,22.8930666 C32.3515708,25.4742669 31.5862949,26.7650315 30.0563898,26.7650315 C29.2558731,26.7653604 28.6693879,26.459852 28.2940245,25.8455467 Z M25.3014628,25.06188 C25.3014628,25.9241436 24.9904382,26.6315155 24.3690355,27.1856399 C23.7469862,27.7374623 22.9128452,28.0140312 21.8675824,28.0140312 C20.8898916,28.0140312 19.9419453,27.6963552 19.0243902,27.0642916 L19.4540698,26.1911757 C20.243594,26.593368 20.9584334,26.7933132 21.6002047,26.7933132 C22.2025321,26.7933132 22.6732721,26.6574952 23.014688,26.3881611 C23.3557805,26.1178405 23.5591428,25.7386681 23.5591428,25.2591943 C23.5591428,24.6550836 23.1449821,24.1387777 22.3852025,23.7063305 C21.6845887,23.3149904 20.2833612,22.4967936 20.2833612,22.4967936 C19.5239049,21.9337901 19.1436918,21.3293505 19.1436918,20.3335708 C19.1436918,19.5094546 19.4272351,18.8441765 19.9946449,18.3380652 C20.5627014,17.8299808 21.2956462,17.5767608 22.194126,17.5767608 C23.122027,17.5767608 23.965544,17.829652 24.7253236,18.3301727 L24.3399375,19.2036174 C23.6900835,18.9227734 23.0486356,18.7823513 22.415917,18.7823513 C21.9034699,18.7823513 21.5077379,18.9076459 21.2326007,19.1592217 C20.9552003,19.4098109 20.7841691,19.7304467 20.7841691,20.1237599 C20.7841691,20.7249109 21.2070592,21.2477939 21.9875306,21.6887914 C22.6975204,22.0807893 24.1336655,22.9131269 24.1336655,22.9131269 C24.9125204,23.4751439 25.3014628,24.0739929 25.3014628,25.06188 Z" id="Shape" fill="#FFFFFF" fill-rule="nonzero"></path>
                                    <path d="M43.189798,14.14818 C42.1940402,14.1223956 41.4230772,14.2245154 40.7760012,14.5033941 C40.5891717,14.5793902 40.2921095,14.5793902 40.2661332,14.8199315 C40.3670411,14.921712 40.3786971,15.0859179 40.4662839,15.2263751 C40.615481,15.4798086 40.8755769,15.8207733 41.1130269,15.9985499 C41.3737889,16.202111 41.6355499,16.4036364 41.9099661,16.5810738 C42.3938578,16.8860761 42.9423572,17.0635135 43.4139268,17.367498 C43.688676,17.5442568 43.9617601,17.7729237 44.2368423,17.9632533 C44.3720522,18.0646946 44.4586399,18.2292397 44.6341463,18.2926829 L44.6341463,18.2540063 C44.5462266,18.1400121 44.5212494,17.9751277 44.4349948,17.8482413 L44.0613358,17.4811529 C43.700332,16.9871781 43.2517415,16.5559679 42.7678498,16.2017717 C42.3695467,15.9222146 41.4983419,15.5422339 41.3368226,15.0747221 L41.3115124,15.0489377 C41.5852625,15.022814 41.9099661,14.921712 42.1700621,14.8440196 C42.5933424,14.7303646 42.9793234,14.756149 43.4135937,14.6424941 C43.6134113,14.5916039 43.8115638,14.5278214 44.0120475,14.4650567 L44.0120475,14.3507233 C43.7869196,14.1223956 43.6263995,13.8190897 43.3896156,13.603315 C42.7561938,13.045897 42.0581642,12.5006927 41.3368226,12.0443766 C40.9505085,11.7902646 40.4536287,11.6267372 40.0423375,11.4106233 C39.8941394,11.3342879 39.6443674,11.2966291 39.5571137,11.1697427 C39.333984,10.8908641 39.2084319,10.5237756 39.0465797,10.1936675 C38.686908,9.49714944 38.3375602,8.724296 38.0271768,7.98774429 C37.802715,7.49376948 37.666173,7.00047322 37.3924228,6.54347867 C36.1102598,4.38912428 34.717864,3.08429798 32.5778173,1.80355974 C32.1179038,1.53689477 31.5707365,1.42323985 30.98627,1.28346126 L30.0527887,1.23324954 C29.8536371,1.14436122 29.6541525,0.903141379 29.4803112,0.789147194 C28.7702926,0.333170453 26.9422944,-0.655118421 26.4201044,0.649707878 C26.0837447,1.47446938 26.9176502,2.28532088 27.2040555,2.70363882 C27.4155291,2.99405258 27.6896123,3.32450001 27.8374773,3.6542689 C27.9250641,3.86970434 27.9497082,4.09837125 28.037295,4.32602035 C28.2364465,4.88377762 28.4226099,5.50429954 28.684371,6.02473727 C28.8209131,6.29004517 28.9697772,6.5689238 29.1442846,6.80912583 C29.2441934,6.94958296 29.4180347,7.01166907 29.4560001,7.24067525 C29.2824918,7.49309095 29.2688376,7.87408937 29.1692618,8.19096606 C28.7216703,9.62301802 28.8965107,11.3970525 29.5309317,12.4494631 C29.7294172,12.7663398 30.2029849,13.4638757 30.8364068,13.1965322 C31.3972282,12.9685438 31.2730083,12.2462413 31.4341945,11.6128272 C31.4711607,11.4598172 31.4468496,11.3593937 31.5214482,11.2589703 L31.5214482,11.2837369 C31.6949565,11.6382724 31.8701299,11.9799156 32.0309831,12.3354689 C32.4169641,12.9559909 33.0890174,13.6026364 33.6488397,14.0324895 C33.946901,14.261835 34.1830188,14.6540292 34.5563448,14.7941471 L34.5563448,14.756149 L34.5317006,14.756149 C34.4561029,14.6424941 34.3455372,14.5916039 34.2462944,14.5033941 C34.0218326,14.2750664 33.7733927,13.9961878 33.5992184,13.7430936 C33.0776944,13.0330048 32.6161157,12.2469199 32.2064896,11.4357291 C32.0060059,11.0421778 31.8331637,10.6119854 31.6716444,10.2191126 C31.5963798,10.0674596 31.5963798,9.83879272 31.4714938,9.76245733 C31.2843313,10.0409967 31.0115802,10.2822165 30.8750382,10.6235206 C30.6382543,11.1694034 30.6136101,11.8408156 30.5256904,12.53903 L30.4767351,12.5634573 C30.0804301,12.4620161 29.942556,12.0443766 29.7920267,11.6898412 C29.4193668,10.7894228 29.3567573,9.34413938 29.6801288,8.30529952 C29.7667164,8.03965235 30.1413745,7.20301646 29.9918443,6.94992222 C29.9169127,6.70734531 29.6678067,6.56926307 29.5312647,6.37825496 C29.3707445,6.13805292 29.194905,5.83406843 29.0830072,5.56740346 C28.7846129,4.85799322 28.6344166,4.07190831 28.3130433,3.36283734 C28.162847,3.03238991 27.902085,2.69040736 27.6909444,2.38608359 C27.4538275,2.04410104 27.1930655,1.80322047 27.00557,1.39779472 C26.9436265,1.2583554 26.8567059,1.03036703 26.9562816,0.878714054 C26.9805928,0.776933531 27.0312133,0.738935469 27.130456,0.713490339 C27.2916422,0.57472956 27.7522218,0.751149132 27.9137411,0.827484524 C28.3749867,1.01747483 28.7606347,1.19491221 29.1456167,1.46089864 C29.319791,1.5881243 29.5066205,1.82900487 29.7300832,1.89244806 L29.9918443,1.89244806 C30.3891483,1.98065784 30.8370728,1.91687538 31.2110648,2.03154811 C31.8701299,2.24732281 32.4672516,2.56386024 33.0027628,2.90550353 C34.6322755,3.9582534 35.9760489,5.45408781 36.8832209,7.24067525 C37.0320851,7.53176754 37.0953606,7.79843251 37.2312366,8.10207774 C37.4933307,8.72361746 37.8173683,9.35737085 38.0774642,9.96567911 C38.3388923,10.5610952 38.5879982,11.1690642 38.9613242,11.6637175 C39.1474876,11.9297039 39.8954715,12.0691432 40.2308321,12.2085826 C40.478939,12.3222375 40.865253,12.4233395 41.0890488,12.5627788 C41.5123291,12.8284259 41.9339443,13.1334282 42.3319143,13.4255383 C42.5300668,13.5775306 43.1528317,13.8944073 43.189798,14.14818 M30.4993811,3.13417043 C30.3276227,3.13235168 30.156389,3.15380035 29.9901792,3.19795289 L29.9901792,3.22339802 L30.0141573,3.22339802 C30.1143991,3.42594126 30.2885735,3.56639839 30.4127934,3.74315723 C30.5130353,3.946379 30.5999559,4.14790444 30.6981996,4.35078695 L30.7221777,4.32568108 C30.8976842,4.19913397 30.9849379,3.99625146 30.9849379,3.6919277 C30.9093402,3.60236084 30.8976842,3.51482959 30.8347416,3.42594126 C30.7614752,3.29905488 30.5999559,3.23595096 30.4993811,3.13417043" id="Shape" fill="#FFFFFF" fill-rule="nonzero"></path>
                                    <path d="M44.3553664,27.804878 L44.6341463,27.804878 L44.6341463,26.3418496 L44.2159764,26.3418496 L43.8748852,27.3402468 L43.5042591,26.3418496 L43.101577,26.3418496 L43.101577,27.804878 L43.3648692,27.804878 L43.3648692,26.6917714 L43.3796366,26.6917714 L43.7679115,27.804878 L43.9685322,27.804878 L44.3553664,26.6917714 L44.3553664,27.804878 Z M42.109639,27.804878 L42.4046271,27.804878 L42.4046271,26.5898075 L42.790741,26.5898075 L42.790741,26.3414634 L41.7073171,26.3414634 L41.7073171,26.5898075 L42.1089187,26.5898075 L42.109639,27.804878 Z" id="Shape" fill="#FFFFFF" fill-rule="nonzero"></path>
                                    <text id="Node.js-Copy" font-family="SourceSansPro-Bold, Source Sans Pro" font-size="18" font-weight="bold" fill="#FEFEFE">
                                        <tspan x="56" y="21">MySQL</tspan>
                                    </text>
                                </g>
                                <g id="Icon-/-Add-/-Rounded" transform="translate(150.000000, 0.000000)">
                                    <mask id="mask-10" fill="white">
                                        <use xlink:href="#path-9"></use>
                                    </mask>
                                    <g id="Mask" fill-rule="nonzero"></g>
                                    <g id="✱-/-Color-/-Icons-/-Primary-or-Secondary" mask="url(#mask-10)" fill="#FFFFFF" fill-rule="evenodd">
                                        <g id="✱-/-Color-/-Primary-/-Main">
                                            <g id="✱-/-Color-/-Primary-/-050">
                                                <rect id="Rectangle-13" x="0" y="0" width="30" height="30"></rect>
                                            </g>
                                        </g>
                                    </g>
                                </g>
                            </g>
                            <g id="Services" transform="translate(32.000000, 54.000000)">
                                <g id="Security">
                                    <use id="Rectangle-11" stroke="#FFFFFF" mask="url(#mask-12)" stroke-width="2" fill-opacity="0.25" fill="#FFFFFF" stroke-dasharray="5,10" xlink:href="#path-11"></use>
                                    <text id="Security-Microservic" font-family="SourceSansPro-Bold, Source Sans Pro" font-size="18" font-weight="bold" fill="#FEFEFE">
                                        <tspan x="82.432" y="30">Security Microservice</tspan>
                                    </text>
                                </g>
                                <g id="Pages" transform="translate(0.000000, 61.000000)">
                                    <use id="Rectangle-11" stroke="#FFFFFF" mask="url(#mask-14)" stroke-width="2" fill-opacity="0.25" fill="#FFFFFF" stroke-dasharray="5,10" xlink:href="#path-13"></use>
                                    <text id="Pages-Microservice" font-family="SourceSansPro-Bold, Source Sans Pro" font-size="18" font-weight="bold" fill="#FEFEFE">
                                        <tspan x="92.021" y="30">Pages Microservice</tspan>
                                    </text>
                                </g>
                                <g id="Pages-Copy" transform="translate(0.000000, 122.000000)">
                                    <use id="Rectangle-11" stroke="#FFFFFF" mask="url(#mask-16)" stroke-width="2" fill-opacity="0.25" fill="#FFFFFF" stroke-dasharray="5,10" xlink:href="#path-15"></use>
                                    <text id="File-Upload-Microser" font-family="SourceSansPro-Bold, Source Sans Pro" font-size="18" font-weight="bold" fill="#FEFEFE">
                                        <tspan x="70.367" y="30">File Upload Microservice</tspan>
                                    </text>
                                </g>
                            </g>
                        </g>
                        <g id="Pipe" transform="translate(145.000000, 259.000000)">
                            <g id="Group-2" transform="translate(54.500000, 155.500000) rotate(-270.000000) translate(-54.500000, -155.500000) translate(-100.500000, 101.500000)">
                                <rect id="Rectangle-10-Copy" fill-opacity="0.25" fill="#FFFFFF" x="192" y="44" width="55" height="19"></rect>
                                <g id="Icon-/-Arrow-Right-/-Filled" opacity="0.25" transform="translate(202.000000, 0.000000)">
                                    <mask id="mask-18" fill="white">
                                        <use xlink:href="#path-17"></use>
                                    </mask>
                                    <g id="Mask" fill-rule="nonzero"></g>
                                    <g id="✱-/-Color-/-Icons-/-Primary-or-Secondary" mask="url(#mask-18)" fill="#FFFFFF" fill-rule="evenodd">
                                        <g id="✱-/-Color-/-Primary-/-Main">
                                            <g id="✱-/-Color-/-Primary-/-050">
                                                <rect id="Rectangle-13" x="0" y="0" width="108" height="108"></rect>
                                            </g>
                                        </g>
                                    </g>
                                </g>
                                <g id="Icon-/-Arrow-Right-/-Filled" opacity="0.25" transform="translate(54.000000, 54.000000) scale(-1, 1) translate(-54.000000, -54.000000) ">
                                    <mask id="mask-20" fill="white">
                                        <use xlink:href="#path-19"></use>
                                    </mask>
                                    <g id="Mask" fill-rule="nonzero"></g>
                                    <g id="✱-/-Color-/-Icons-/-Primary-or-Secondary" mask="url(#mask-20)" fill="#FFFFFF" fill-rule="evenodd">
                                        <g id="✱-/-Color-/-Primary-/-Main">
                                            <g id="✱-/-Color-/-Primary-/-050">
                                                <rect id="Rectangle-13" x="0" y="0" width="108" height="108"></rect>
                                            </g>
                                        </g>
                                    </g>
                                </g>
                                <rect id="Rectangle-10" fill-opacity="0.25" fill="#FFFFFF" x="63" y="44" width="60" height="19"></rect>
                            </g>
                            <use id="Oval-3" stroke="#FFFFFF" mask="url(#mask-22)" stroke-width="4" fill-opacity="0.25" fill="#FFFFFF" stroke-dasharray="5" xlink:href="#path-21"></use>
                            <g id="graphql-copy" transform="translate(36.000000, 137.000000)" fill="#4A4A4A">
                                <path d="M22.0519928,4.81305364 L30.6004209,9.79942568 C30.8472177,9.53561403 31.1304348,9.30919435 31.441302,9.12717804 C33.2141187,8.09748856 35.4754501,8.70884844 36.5052332,10.5 C37.5244655,12.2911516 36.9193144,14.5755378 35.1463531,15.6158863 C34.8378008,15.7953967 34.5053013,15.9291513 34.1590621,16.0130439 L34.1590621,25.9894383 C34.5015194,26.0734719 34.8303966,26.2063134 35.1358024,26.3839677 C36.9193144,27.4243162 37.5244655,29.7088484 36.4946824,31.5 C35.4754501,33.2910055 33.203568,33.9023654 31.4306067,32.872822 C31.0871336,32.6737441 30.7777135,32.4199704 30.5142804,32.1212888 L22.0178835,37.076998 C22.1423141,37.4576215 22.205506,37.855945 22.2050511,38.2567896 C22.2050511,40.3160226 20.5490154,42 18.5,42 C16.4509846,42 14.7949489,40.3266816 14.7949489,38.2567896 C14.7949489,37.8888348 14.8472691,37.5334372 14.9448275,37.1977514 L6.39871193,32.2128395 C6.15462154,32.4714192 5.87538935,32.6936358 5.56939329,32.872822 C3.78588127,33.9023654 1.52454989,33.2910055 0.505317576,31.5 C-0.51377021,29.7088484 0.0913809116,27.4243162 1.86419765,26.3839677 C2.16960402,26.2062805 2.49847892,26.0733907 2.84093786,25.9892923 L2.84093786,16.0130439 C2.49469867,15.9291513 2.16219918,15.7953967 1.85364689,15.6158863 C0.0806856207,14.5863428 -0.524465501,12.2911516 0.494766816,10.5 C1.51399913,8.70884844 3.78573674,8.09748856 5.558698,9.12717804 C5.86786294,9.30822279 6.14968522,9.53319089 6.39553225,9.79519128 L14.9464173,4.80750511 C14.8456187,4.46187521 14.7946058,4.10338341 14.7949489,3.74306434 C14.7949489,1.67331841 16.4509846,0 18.5,0 C20.5490154,0 22.2050511,1.67317239 22.2050511,3.74306434 C22.2050511,4.11510756 22.1515747,4.47415555 22.0519928,4.81305364 Z M21.1613931,6.34941108 L29.7302,11.3474642 C29.4545212,12.3210176 29.5816224,13.3659102 30.0824219,14.2430643 C30.6040342,15.1597391 31.4537317,15.7674487 32.3967962,16.0042831 L32.3967962,25.9930887 C32.3486674,26.0049158 32.3008276,26.017911 32.2532769,26.0316363 L21.0618112,6.44943055 C21.0956315,6.41672345 21.1288736,6.3834323 21.1613931,6.34955709 L21.1613931,6.34941108 Z M15.9405013,6.45162075 L4.7491801,26.0335345 C4.70078966,26.0193994 4.65212094,26.0062555 4.60320383,25.9941108 L4.60320383,16.0042831 C5.54626834,15.7674487 6.39596584,15.1597391 6.91757807,14.2430643 C7.41939641,13.3641877 7.54601354,12.3169824 7.2683547,11.3419157 L15.8347046,6.34532269 C15.8692475,6.3813881 15.9045131,6.41686946 15.9405013,6.45147474 L15.9405013,6.45162075 Z M19.5352753,7.33865473 L30.7239949,26.9161881 C30.4677016,27.1632523 30.2480176,27.4463669 30.0717266,27.7567896 C29.8958766,28.0653288 29.7643841,28.3975802 29.681204,28.7435511 L7.31908507,28.7435511 C7.23579525,28.3975708 7.10420623,28.0653214 6.92827336,27.7567896 C6.75136803,27.4485071 6.53210158,27.1671139 6.27701686,26.9210065 L17.4679044,7.33953081 C17.8034127,7.4371293 18.1508601,7.48648039 18.5,7.48612869 C18.8594485,7.48612869 19.2067564,7.43473182 19.5352753,7.33865473 Z M21.2400179,35.7351309 L29.7531804,30.7694928 C29.7276614,30.6884289 29.7048607,30.6065171 29.6848173,30.5238976 L7.31431555,30.5238976 C7.30246401,30.5725202 7.28960076,30.6207048 7.27587031,30.6687433 L15.8306577,35.6587657 C16.5287345,34.9254354 17.4929183,34.5118394 18.5,34.5137253 C19.5430481,34.5118838 20.5382744,34.9555214 21.2400179,35.7351309 Z" id="Shape"></path>
                            </g>
                            <text id="GRAPHQL-API" font-family="SourceSansPro-Semibold, Source Sans Pro" font-size="16" font-weight="500" fill="#FEFEFE">
                                <tspan x="123.48" y="162">GRAPHQL API</tspan>
                            </text>
                        </g>
                    </g>
                </g>
            </g>
        </g>
    </g>
</svg>