<?xml version="1.0" encoding="UTF-8"?>
<svg width="17px" height="16px" viewBox="0 0 17 16" version="1.1" xmlns="http://www.w3.org/2000/svg" xmlns:xlink="http://www.w3.org/1999/xlink">
    <g id="Home-v1" stroke="none" stroke-width="1" fill="none" fill-rule="evenodd">
        <g id="Main-page" transform="translate(-838.000000, -2364.000000)" fill="#E8663A" fill-rule="nonzero">
            <g id="Components" transform="translate(72.000000, 1629.000000)">
                <g id="Learn-more" transform="translate(656.000000, 728.000000)">
                    <g id="arrow-right-solid" transform="translate(110.000000, 7.000000)">
                        <path d="M7.22798795,1.07167392 L8.07030465,0.258300893 C8.42696128,-0.0861002977 9.00368262,-0.0861002977 9.35654503,0.258300893 L16.7325075,7.37714678 C17.0891642,7.72154797 17.0891642,8.27845203 16.7325075,8.61918937 L9.35654503,15.7416991 C8.99988841,16.0861003 8.42316706,16.0861003 8.07030465,15.7416991 L7.22798795,14.9283261 C6.86753711,14.580261 6.87512554,14.0123655 7.24316483,13.6716281 L11.8151992,9.46553698 L0.910612655,9.46553698 C0.405981475,9.46553698 0,9.07350584 0,8.58621479 L0,7.41378521 C0,6.92649416 0.405981475,6.53446302 0.910612655,6.53446302 L11.8151992,6.53446302 L7.24316483,2.32837188 C6.87133132,1.98763453 6.86374289,1.41973895 7.22798795,1.07167392 Z" id="Path"></path>
                    </g>
                </g>
            </g>
        </g>
    </g>
</svg>