<?xml version="1.0" encoding="UTF-8"?>
<svg width="379px" height="124px" viewBox="0 0 379 124" version="1.1" xmlns="http://www.w3.org/2000/svg" xmlns:xlink="http://www.w3.org/1999/xlink">
    <g id="Page-1" stroke="none" stroke-width="1" fill="none" fill-rule="evenodd">
        <g id="Testimonial-03" transform="translate(-254.000000, -373.000000)" fill="#FFFFFF" fill-rule="nonzero">
            <g id="Group" transform="translate(165.000000, 120.000000)">
                <g id="Coca-Cola_logo" transform="translate(89.000000, 253.000000)">
                    <path d="M316.669006,105.74304 C316.663321,105.74304 315.496936,106.782083 315.496936,106.782083 C313.830266,108.270826 312.115274,109.864657 310.044964,109.067505 C309.473142,108.859696 309.070924,108.09852 308.974278,107.507756 C308.880096,103.246496 310.800603,99.2980367 312.662934,95.4535293 L313.140479,94.4480952 C318.4977,85.5105244 324.724736,74.9794069 333.870102,67.6706015 C335.411227,66.5596063 337.083676,65.6260295 338.848698,66.3541645 C339.254706,66.7342792 339.727513,67.3932077 339.727513,68.0507162 C339.727513,68.2594716 339.54237,68.8133124 339.435207,68.9856185 C336.881099,73.1099811 334.448462,77.4399749 332.082908,81.5965266 C327.460007,89.8075718 322.664281,98.2941173 316.668817,105.743986 L316.669006,105.74304 Z M267.116132,84.6800472 C266.766027,84.9238319 260.587788,82.8443253 259.393926,77.1284986 C258.381037,72.2073626 261.772555,68.3620978 265.053971,66.4237496 C266.462444,65.3146479 268.584014,64.9345332 270.140204,65.4864805 C271.584683,66.4578321 271.976005,68.1913066 271.976005,70.0592176 C271.976005,71.2047687 271.824024,72.3815621 271.689857,73.4551612 C271.689857,73.4551612 271.664274,73.6639166 271.660105,73.6984725 C270.630635,77.5426012 269.0554,81.3193222 267.116226,84.6802366 L267.116132,84.6800472 Z M243.515554,107.926214 C242.88546,106.990838 242.676534,105.967984 242.655689,104.862196 C242.534787,98.0693621 249.849184,85.9047455 255.012166,79.2775904 L255.023536,79.2775904 C257.18727,84.0112726 262.086654,87.0540835 265.044401,88.3363434 C261.370905,96.512738 248.772244,114.023197 243.516975,107.926214 L243.515554,107.926214 Z M332.683819,109.132356 C331.461058,109.963591 329.743127,109.324544 330.385539,107.41971 C331.98541,102.569579 338.346139,92.6856506 338.346139,92.6856506 L356.062679,61.2880831 L343.926972,61.2880831 C343.350412,62.2348195 342.116754,64.4089051 342.116754,64.4089051 C341.555355,63.4744762 339.876462,61.3963897 339.185159,60.9476367 C336.2204,59.0754653 331.870382,59.9606639 328.869618,61.657689 C315.822785,69.2804322 306.303721,84.3414943 298.795653,96.0848132 C298.795653,96.0848132 290.893041,109.140309 286.50607,110.111282 C283.08139,110.388675 283.434621,105.779016 283.583002,104.705038 C284.907147,96.9436925 287.98229,89.5652073 291.080648,82.8789758 C297.381968,78.5141421 304.573568,72.7981261 311.109113,66.5278906 C325.292389,52.9810388 337.249017,37.6334943 338.996225,34.2044149 C338.996225,34.2044149 337.104522,34.5859497 334.870767,34.6545881 C323.959242,49.8629623 301.630223,71.9673649 294.861212,75.2563273 C297.860081,68.0493908 317.235712,33.6491539 333.72428,17.1948745 L336.318941,14.6996559 C340.330698,10.7849007 344.487993,6.7663832 347.72734,6.10802267 C348.069391,6.07356147 348.509983,6.10802267 348.890408,6.9061215 C349.034998,9.95423416 347.899313,12.2063308 346.596487,14.7697144 L344.770635,18.5117849 C344.770635,18.5117849 347.356958,18.0265825 349.055275,17.4708482 C351.026096,13.7657004 353.20878,9.60725525 352.404154,4.65430886 C352.135535,3.06049699 350.980994,1.84818203 349.472179,1.57078825 C344.553655,0.635412643 339.193213,4.27182733 334.880147,7.21750311 L334.705805,7.32069739 C312.534073,24.6772167 293.811277,49.6909403 277.442095,83.8491913 C276.255812,84.7485909 271.672138,85.8237049 270.892906,85.3033785 C272.509358,81.9784401 274.544609,77.5083293 275.563183,72.6583878 C275.73942,71.2723657 275.903339,69.8526397 275.903339,68.4671856 C275.903339,65.4853445 275.187021,62.6803537 272.513527,60.7408694 C269.379164,59.1815945 265.505365,59.9096348 262.893459,61.0869016 C251.192659,65.9370324 242.448089,77.9246093 236.137673,87.7962302 C232.743693,94.0683592 229.359566,100.785833 228.422668,108.478635 C227.762728,114.505559 229.106297,118.385664 232.535809,120.326473 C236.06282,122.126693 240.502093,120.255468 242.245891,119.355595 C254.099619,113.12001 262.382372,100.614379 268.910715,89.181211 C269.170333,89.1471285 272.734865,89.0439342 275.4311,88.3499764 C275.467105,88.3499764 275.482265,88.3499764 275.541958,88.3863311 C275.387514,88.9037225 273.994201,93.0622624 273.994201,93.0622624 C269.856425,105.186548 267.943023,113.432244 271.851312,118.317404 C277.436315,125.211917 286.682686,118.075986 294.204967,108.651225 C292.59041,119.944844 298.448295,121.712401 302.913531,120.847084 C308.042971,119.462008 313.758729,113.987031 316.411378,111.181851 C315.559567,114.472328 315.791233,120.362355 320.457246,120.950657 C323.65566,121.54142 326.04907,119.803212 328.818452,118.313049 C338.752526,112.90813 350.645291,94.898363 353.732279,89.6913126 L349.684137,89.6913126 C345.295271,96.3188464 339.710269,105.008562 332.684861,109.133492 L332.683819,109.132356 Z M179.640119,41.8799859 L191.009859,41.8799859 L197.426776,31.465885 L186.054761,31.465885 L179.640119,41.8799859 Z M361.260719,14.2144535 C352.591382,19.1346428 343.604819,22.320979 332.72551,21.2127293 C329.710533,24.6086729 326.775147,28.1072428 324.069438,31.7097643 C339.337992,35.589869 355.524873,26.9637745 364.552747,18.7542441 C374.1027,10.4740871 379,0.0472999624 379,0.0472999624 C379,0.0472999624 371.841562,8.22236918 361.26034,14.2146428 L361.260719,14.2144535 Z M265.656966,11.5825262 C263.849117,32.2990131 247.732352,44.4607895 243.744851,45.4283541 C241.328322,45.9126098 237.204759,44.8394841 240.885645,36.1450352 C246.306918,24.4342841 255.562195,14.4931727 265.492479,9.39973062 C265.734094,10.2659945 265.727935,10.8188886 265.656777,11.5819581 L265.656966,11.5825262 Z M234.252697,63.7893608 C233.098156,61.295657 230.356915,59.7017315 227.435931,59.8746056 C217.949841,60.7413428 208.671445,68.5357293 203.799348,79.7257754 C201.242967,85.4771993 199.847853,90.2228104 198.932937,97.7747377 C201.882536,94.3806876 207.899224,88.8034631 214.726981,85.7545931 C214.726981,85.7545931 215.656014,78.5143314 220.393469,72.0704645 C222.186158,69.4021825 225.773809,65.1066499 229.802243,66.2495501 C233.321674,67.428237 232.084794,77.1631492 227.406938,86.5835555 C223.945684,93.5132876 218.649103,100.443777 213.289987,105.223281 C208.552058,109.242178 201.541811,114.09193 195.408579,110.350806 C191.545581,108.065384 189.575329,103.283418 189.991665,97.1169452 C191.837415,79.6227705 199.807489,64.7253044 211.212098,47.75032 C222.972591,31.9875368 235.936422,15.8093257 253.400925,7.18076974 C256.963184,5.37960365 260.261845,4.96389168 263.113281,6.07261473 C263.113281,6.07261473 246.719464,15.0798653 238.904402,31.7443202 C236.916526,35.9714985 234.151692,41.6859996 236.935856,46.7444125 C238.390757,49.3767185 240.974143,49.5850005 243.053927,49.4463983 C252.632874,47.2287628 258.82144,38.2910027 263.878301,30.1159335 C266.809896,23.9148098 269.415549,17.7481473 269.415549,10.8877163 C269.415549,10.0564817 269.372342,8.94842136 269.301847,8.11605068 C273.87832,5.69202668 283.262459,9.9868019 283.262459,9.9868019 C290.595807,12.4127194 306.21115,24.3654564 311.47741,26.6508781 C314.046678,23.6720666 318.268782,19.16882 320.645895,16.916534 L317.204539,14.8030395 C311.694769,11.4425039 305.870804,8.25503159 300.138369,5.10277791 C287.119961,-1.99812413 276.522631,0.49557967 271.129405,2.43582134 C269.009825,3.19747082 267.072546,3.85592601 267.072546,3.85592601 C263.070264,-0.5089077 256.506294,-0.0942371363 251.669825,1.08444974 C234.276385,6.07280408 218.127973,18.232119 200.815071,39.3307087 C188.086223,55.8559934 180.189675,70.1299388 175.982731,84.228738 C172.738836,93.7203389 171.753046,107.681293 179.670439,115.96145 C186.401929,122.991915 195.328041,121.469184 201.631825,118.94083 C215.288854,112.219948 227.563277,97.7377203 233.680401,81.0751589 C235.156148,76.1218338 236.794298,69.1239366 234.253171,63.78813 L234.252697,63.7893608 Z M82.8690342,47.7160481 C82.8462939,47.7851599 80.5495298,53.0503399 80.5495298,53.0503399 C80.2174276,53.3272603 79.6925071,53.1891315 79.0908383,53.0503399 L78.0599475,52.8761404 C74.8228745,51.8721264 72.3809519,49.7238868 71.62825,47.1606925 C70.5897791,42.1717701 74.8550899,38.2572043 76.7343811,36.8374783 C78.5374925,35.5892063 81.3407954,34.9311298 82.9686175,36.213579 C83.9725042,37.3917925 84.3529297,38.9155648 84.3529297,40.5795488 C84.3534032,42.830888 83.6579309,45.3596211 82.8691289,47.7160481 L82.8690342,47.7160481 Z M77.9353499,57.7268393 C77.9353499,57.7268393 77.8311238,58.0397357 77.7795793,58.1419832 C77.7663142,58.1419832 72.5587995,66.6285287 72.5587995,66.6285287 C69.4159091,70.8210564 65.4918914,76.0883193 60.586443,78.6161056 C59.132489,79.101308 57.1227256,79.4137311 56.0986569,78.1327967 C53.9273431,75.5340051 55.0464471,71.9312942 55.9555829,69.0214051 L56.2772625,67.9818885 C58.8838624,60.9154476 63.0197432,54.6783479 67.0451445,48.8918948 C67.0953625,48.8578122 67.2081162,48.823351 67.2488591,48.823351 C67.2583342,48.8580016 67.2744419,48.8580016 67.2814534,48.9274921 C69.8075149,53.7766761 74.5441171,56.0276367 78.0864778,57.0684788 C78.1078915,57.0684788 78.1306346,57.10294 78.1306346,57.1726198 C78.1311055,57.275814 78.0732126,57.4154577 77.9354447,57.7259872 L77.9353499,57.7268393 Z M143.078553,52.1496149 C145.407912,48.9284388 152.187914,40.3017763 153.84075,38.8470211 C159.399791,33.9603462 161.621702,36.110574 161.814046,37.6337783 C156.625861,46.9178546 150.502673,57.5531131 144.745602,67.1151513 C144.756972,67.0810687 142.943912,69.8515983 142.943912,69.8515983 C140.401174,73.7309455 137.841002,77.0566413 133.664947,79.3776604 C133.069437,79.5518599 132.087817,79.621445 131.434509,79.1348225 C130.648076,78.6150642 130.337766,77.7488003 130.426358,76.8475073 C130.676501,73.8690744 133.711944,64.7595763 143.078458,52.1490468 L143.078553,52.1496149 Z M85.3467727,31.0866224 C78.1599098,26.3752832 63.7151208,35.3825337 52.1460245,50.8317577 C41.5661285,64.6904645 36.9976146,80.7978598 41.9693887,88.2467821 C49.3652723,97.0112894 63.0950703,84.2629151 68.9336265,77.4392175 L69.6868969,76.6415921 C73.6573426,72.3803313 76.7250007,67.2528067 79.6941179,62.3329961 C79.6941179,62.3329961 82.4229465,57.8293708 82.5533239,57.6210888 C84.2398916,57.3105593 86.2713529,56.8253568 88.5605369,56.1669016 C88.5279425,56.2700959 79.802134,70.9246294 80.6924143,78.1993522 C80.969561,80.4185025 80.7577925,88.5248386 88.6789756,90.9840812 C99.2361313,92.7521115 107.667075,84.5750542 115.103133,77.2999526 C115.103133,77.2999526 116.370427,76.0886033 117.087219,75.3970123 C116.905865,76.1226858 116.669367,77.0907238 116.669367,77.0907238 C113.578589,87.8305021 117.74479,90.0837348 120.351011,90.9153481 C128.227093,93.2030421 137.636435,81.7698741 137.666755,81.7698741 C137.422772,85.3712595 136.709297,88.3506391 140.508906,90.7411486 C144.095231,92.0239765 147.724763,90.0684924 150.483343,88.232297 C160.420449,81.2343999 168.42577,70.282174 174.891199,60.8148095 L170.766689,60.8148095 C170.717987,60.8148095 160.588916,75.4835441 154.01187,78.6717737 C154.002395,78.6717737 152.804743,79.2857323 152.114955,78.7999618 C151.261249,78.0719215 151.598089,76.5590367 152.124431,75.487331 C152.157593,75.4172725 177.519592,31.4659797 177.519592,31.4659797 L165.544961,31.4659797 C165.544961,31.4659797 164.236924,33.5806102 164.130329,33.7192124 C164.049791,33.6501007 163.85792,33.2865539 163.724795,33.1123544 C156.305792,22.8582519 139.504546,38.6308811 126.855288,56.9208825 C121.985466,63.9541876 115.785529,71.8732593 109.356674,77.5900326 C109.356674,77.5900326 99.8326836,86.3132623 95.7633179,80.045867 C94.2757273,77.4124249 94.7333746,73.5626158 95.5723947,71.0344508 C100.310323,57.5582255 108.474637,45.3286628 117.764972,37.9479055 C120.38768,35.9052269 123.238169,35.3144634 124.652991,36.1808219 C126.000824,36.9789207 126.218277,38.9519195 125.365518,40.3032911 C123.201784,40.2341793 121.46841,40.8912144 120.059083,42.3463483 C117.282879,45.2566162 116.318314,48.0631217 117.201014,50.6965638 C121.489065,56.7935465 130.040722,44.7374259 129.627039,37.3930232 C129.479227,34.7595811 128.073123,32.2658773 125.974957,31.0521612 C122.847795,29.1823567 118.076893,29.6666124 114.989526,31.1572489 C110.856488,32.7155771 104.313932,38.15401 100.494898,42.3813776 C95.6872329,47.682723 87.4420014,53.5714237 84.8632583,52.9119271 C85.7079634,50.659073 92.6726352,36.4212929 85.3460147,31.0877585 L85.3467727,31.0866224 Z M145.536394,108.16801 C131.433656,99.0907014 112.293955,97.497912 81.4278716,106.054516 C48.5227464,113.780832 37.5505814,118.733589 23.1427453,108.790963 C17.6073922,103.90675 15.6227379,96.0425887 17.1048329,84.7154552 C20.54202,66.2493608 29.8302704,48.4781709 46.3298295,28.7671181 C55.539247,18.5130157 64.0814281,9.71310039 75.3615339,6.17987997 C84.0066146,3.96300191 83.1983886,10.7516703 82.1523377,11.7224538 C81.0484886,11.7224538 79.1942116,11.8962746 77.7611976,12.8306088 C76.5981292,13.7319019 73.4054944,16.6421698 73.2339951,20.556925 C72.986695,26.5497667 79.1938326,25.3023467 81.8711167,22.0120589 C84.756853,18.3042603 89.0214057,11.2035476 85.6668415,4.58585981 C84.2607368,2.23037953 81.8313213,0.602560888 78.8148287,0.0481520252 C68.4860228,-0.541664781 58.8659544,4.37795649 49.9877863,9.81695738 C30.5770977,23.292804 15.0455148,41.9662336 6.25830768,62.4062735 C1.19140354,74.7388412 -3.39075452,92.4045646 3.47793452,106.783598 C8.79119124,116.760306 19.8221019,122.059758 32.983394,120.951509 C42.2136568,119.982524 53.3738078,117.001724 60.8818766,115.201978 C68.3884293,113.399392 106.813368,100.201507 119.439886,123.171606 C119.439886,123.171606 123.638302,115.028157 134.130459,114.854526 C142.756589,114.059267 155.201185,117.349745 164.26317,124 C161.244024,119.463239 152.684219,112.777007 145.543216,108.168673 L145.536394,108.16801 Z" id="Shape"></path>
                </g>
            </g>
        </g>
    </g>
</svg>