<svg width="98" height="99" viewBox="0 0 98 99" fill="none" xmlns="http://www.w3.org/2000/svg">
<path d="M49 98.5654C76.062 98.5654 98 76.6274 98 49.5654C98 22.5035 76.062 0.56543 49 0.56543C21.938 0.56543 0 22.5035 0 49.5654C0 76.6274 21.938 98.5654 49 98.5654Z" fill="#00CCB0"/>
<g opacity="0.2">
<path d="M71 69.4226C71 72.815 68.2495 75.5654 64.8571 75.5654H34.1429C30.7505 75.5654 28 72.815 28 69.4226V38.7083C28 35.3159 30.7505 32.5654 34.1429 32.5654H64.8571C68.2495 32.5654 71 35.3159 71 38.7083V69.4226Z" fill="#231F20"/>
</g>
<path d="M34.1428 69.4939C32.4489 69.4939 31.0714 68.1163 31.0714 66.4224V35.7081C31.0714 34.0143 32.4489 32.6367 34.1428 32.6367H64.8571C66.551 32.6367 67.9286 34.0143 67.9286 35.7081V66.4224C67.9286 68.1163 66.551 69.4939 64.8571 69.4939H34.1428Z" fill="white"/>
<path fill-rule="evenodd" clip-rule="evenodd" d="M34.1429 29.5654H64.8571C68.2495 29.5654 71 32.3159 71 35.7083V66.4226C71 69.815 68.2495 72.5654 64.8571 72.5654H34.1429C30.7505 72.5654 28 69.815 28 66.4226V35.7083C28 32.3159 30.7505 29.5654 34.1429 29.5654ZM64.8571 66.4226V35.7083H34.1429V66.4226H64.8571Z" fill="white"/>
<g opacity="0.2">
<path d="M49.8345 63.5653C48.896 63.5653 48.0016 63.1285 47.4231 62.3707L38.1313 50.1968C37.1123 48.8622 37.3674 46.9524 38.6992 45.9314C40.0309 44.9118 41.9367 45.1644 42.9556 46.5005L49.3136 54.8305C52.8214 48.5077 60.4383 36.8998 72.5561 29.0537C73.9637 28.1407 75.8467 28.547 76.7548 29.9577C77.6659 31.3698 77.2604 33.2537 75.8528 34.1653C60.3517 44.2027 52.6969 61.5611 52.621 61.7346C52.1912 62.7237 51.2725 63.4131 50.2035 63.5424C50.079 63.5577 49.956 63.5653 49.8345 63.5653Z" fill="#231F20"/>
</g>
<path d="M49.4107 60.5654C48.4661 60.5654 47.5658 60.1287 46.9819 59.3708L37.629 47.1964C36.6034 45.8618 36.8586 43.9505 38.2007 42.9293C39.5412 41.9097 41.4625 42.1639 42.4866 43.4985L48.888 51.8303C52.4173 45.5073 60.0843 33.899 72.2818 26.0526C73.7017 25.141 75.5925 25.5458 76.5096 26.9566C77.4267 28.3688 77.0201 30.2528 75.6017 31.1658C59.9987 41.2036 52.292 58.5627 52.2155 58.7362C51.7845 59.7254 50.8582 60.4148 49.7821 60.5441C49.6568 60.5578 49.533 60.5654 49.4107 60.5654Z" fill="#FA6400"/>
</svg>
