<?xml version="1.0" encoding="UTF-8"?>
<svg width="47px" height="38px" viewBox="0 0 47 38" version="1.1" xmlns="http://www.w3.org/2000/svg" xmlns:xlink="http://www.w3.org/1999/xlink">
    <!-- Generator: Sketch 50.2 (55047) - http://www.bohemiancoding.com/sketch -->
    <title>twitter</title>
    <desc>Created with Sketch.</desc>
    <defs></defs>
    <g id="Home-v1" stroke="none" stroke-width="1" fill="none" fill-rule="evenodd">
        <g id="Main-page" transform="translate(-455.000000, -2706.000000)" fill="#CCCCCC" fill-rule="nonzero">
            <g id="CMS" transform="translate(0.000000, 525.000000)">
                <g id="Plugins" transform="translate(194.000000, 2105.000000)">
                    <g id="Logos" transform="translate(56.000000, 74.000000)">
                        <g id="twitter" transform="translate(205.000000, 2.000000)">
                            <path d="M31.4039675,0.00843507214 L31.4039675,0 L33.6077547,0 L34.4129847,0.160266371 C34.9498188,0.264312986 35.4371948,0.400665927 35.8751127,0.56936737 C36.313073,0.738068812 36.7368783,0.934901221 37.1465284,1.15982242 C37.5562209,1.38474362 37.927771,1.61392453 38.2611785,1.8472808 C38.5917466,2.0778535 38.8884103,2.32247059 39.1511695,2.58113208 C39.4110469,2.84261931 39.8165014,2.91009989 40.3674482,2.78357381 C40.918395,2.65704772 41.5117223,2.481303 42.1474301,2.2563818 C42.783138,2.0314606 43.4118106,1.77840844 44.0333634,1.49722531 C44.6549585,1.21604218 45.0335861,1.03751387 45.1692038,0.961598224 C45.301982,0.882899001 45.3726303,0.84072364 45.3811064,0.835072142 L45.3895401,0.822419534 L45.4319206,0.801331853 L45.4743012,0.780244173 L45.5166817,0.759156493 L45.5590622,0.738068812 L45.5675383,0.725416204 L45.5802525,0.716981132 L45.593009,0.70854606 L45.6014427,0.695893452 L45.6438233,0.683240844 L45.6862038,0.674805771 L45.6777701,0.738068812 L45.6650135,0.801331853 L45.6438233,0.864594895 L45.622633,0.927857936 L45.6014427,0.970033296 L45.5802525,1.01220866 L45.5590622,1.0754717 C45.5449495,1.11764706 45.5308368,1.17386681 45.5166817,1.24417314 C45.502569,1.31447947 45.3683499,1.59562042 45.1140667,2.08768036 C44.8597836,2.57974029 44.5419297,3.07880133 44.160505,3.58490566 C43.7790803,4.09100999 43.437239,4.47337181 43.1349387,4.73207547 C42.8297989,4.99356271 42.627771,5.17630855 42.5288548,5.28035516 C42.4299811,5.38718535 42.309917,5.48558047 42.1686204,5.57558269 L41.9567178,5.71476138 L41.9143372,5.73584906 L41.8719567,5.75693674 L41.863523,5.76958935 L41.8507665,5.77802442 L41.8380523,5.78645949 L41.8295762,5.7991121 L41.7871957,5.82019978 L41.7448151,5.84128746 L41.7363814,5.85394007 L41.7236249,5.86237514 L41.7109107,5.87081021 L41.7024346,5.88346282 L41.6940009,5.89611543 L41.6812444,5.9045505 L41.6685302,5.91298557 L41.6600541,5.92563818 L41.8719567,5.92563818 L43.0586114,5.67258602 C43.8497286,5.50388457 44.6055005,5.30005105 45.3259693,5.06104329 L46.4702435,4.68146504 L46.597385,4.63928968 L46.6609558,4.618202 L46.7033363,4.59711432 L46.7457169,4.57602664 L46.7880974,4.55493896 L46.8304779,4.53385128 L46.915239,4.52119867 L47,4.5127636 L47,4.59711432 L46.9788097,4.60554939 L46.9576195,4.618202 L46.9491858,4.63085461 L46.9364292,4.63928968 L46.9237151,4.64772475 L46.915239,4.66037736 L46.9068052,4.67302997 L46.8940487,4.68146504 L46.8813345,4.68990011 L46.8728584,4.70255272 L46.8644247,4.71520533 L46.8516682,4.7236404 L46.8304779,4.76581576 L46.8092876,4.80799112 L46.7965735,4.81642619 C46.7909369,4.82486127 46.6115401,5.06382686 46.2583408,5.53340733 C45.9051839,6.00577137 45.7144716,6.24473696 45.6862038,6.25038846 C45.6579784,6.25882353 45.618395,6.30099889 45.5675383,6.37691454 C45.5195212,6.45561376 45.220018,6.76914539 44.6690712,7.31742508 C44.1181244,7.86570477 43.5785356,8.35350499 43.0501776,8.7809101 C42.5190225,9.21109878 42.2505843,9.73968257 42.2449477,10.3667037 C42.2364716,10.990899 42.2039657,11.6966615 42.1474301,12.4839068 C42.0909369,13.2711942 41.9849856,14.1217026 41.8295762,15.0355161 C41.6742092,15.9493296 41.4340388,16.982626 41.1091073,18.1354051 C40.7842182,19.2881842 40.3886384,20.4128746 39.9224527,21.509434 C39.4562669,22.6059933 38.9688909,23.590071 38.4603246,24.4617092 C37.9517583,25.3333474 37.4855726,26.0714162 37.0617674,26.6759156 C36.6379621,27.2804151 36.2071217,27.8497825 35.7691614,28.3840178 C35.3312435,28.9182531 34.7774995,29.5199689 34.1078873,30.1891232 C33.4354355,30.8554939 33.0681659,31.2210277 33.0059937,31.2856826 C32.9410243,31.3475538 32.6641524,31.5781265 32.1752931,31.9773585 C31.689358,32.3794162 31.1666366,32.7814739 30.6072137,33.1835738 C30.0506303,33.5828479 29.5392245,33.9160333 29.0730388,34.1831299 C28.606853,34.4502264 28.044633,34.7552808 27.386294,35.0983352 C26.7308368,35.4441731 26.0216411,35.7647059 25.2587917,36.0599334 C24.4959423,36.3551609 23.6907124,36.6293008 22.8431019,36.8823529 C21.9954914,37.1354051 21.1761488,37.3322375 20.3850316,37.472808 C19.5939567,37.6133785 18.6968882,37.7329034 17.6938683,37.8312986 L16.1893598,37.9789123 L16.1893598,38 L13.4346258,38 L13.4346258,37.9789123 L13.0743913,37.9578246 C12.8342633,37.9437802 12.6364734,37.9296937 12.481064,37.9156493 C12.325697,37.9016049 11.7394049,37.8242553 10.7222723,37.6836848 C9.70513977,37.5431143 8.90698738,37.4025017 8.32777277,37.2619312 C7.74860054,37.1213607 6.88683499,36.854222 5.74256087,36.4605993 C4.59828674,36.0669767 3.61929666,35.6690943 2.80559062,35.2670366 C1.99472408,34.8677625 1.4861578,34.6147103 1.27989179,34.5078801 C1.07646528,34.4038335 0.84761046,34.2745239 0.593327322,34.1198668 L0.211902615,33.8879023 L0.203468891,33.8752497 L0.190712353,33.8668147 L0.177998197,33.8583796 L0.169522092,33.845727 L0.127141569,33.8246393 L0.084761046,33.8035516 L0.0763273219,33.790899 L0.0635707845,33.7824639 L0.0508566276,33.7740289 L0.042380523,33.7613762 L0.0339467989,33.7487236 L0.0211902615,33.7402886 L0,33.7402886 L0,33.6559378 L0.042380523,33.6643729 L0.084761046,33.6770255 L0.275473399,33.6981132 C0.402614968,33.7121576 0.7487367,33.7332453 1.31379621,33.7613762 C1.87889811,33.7895072 2.4792606,33.7895072 3.11496844,33.7613762 C3.75067628,33.7332453 4.40053922,33.6699822 5.0644725,33.5715871 C5.72844815,33.473192 6.51248783,33.3044906 7.41659152,33.0654828 C8.3207376,32.826475 9.15139585,32.5425083 9.90860866,32.2135405 C10.662982,31.8817891 11.1997737,31.6343463 11.5190685,31.4712542 C11.8354815,31.3109878 12.3186195,31.0129345 12.96844,30.5771365 L13.9431921,29.9234184 L13.9516682,29.9107658 L13.9643823,29.9023307 L13.9771389,29.8938957 L13.9855726,29.8812431 L13.9940487,29.8685905 L14.0067628,29.8601554 L14.0195194,29.8517203 L14.0279531,29.8390677 L14.0703336,29.8264151 L14.1127142,29.81798 L14.1211903,29.7758047 L14.1339044,29.7336293 L14.146661,29.7251942 L14.1550947,29.7125416 L13.8160505,29.6914539 C13.5900352,29.6774095 13.371055,29.663323 13.1591524,29.6492786 C12.9472498,29.6352342 12.6152831,29.5719711 12.1632101,29.4594895 C11.7111794,29.3470078 11.2238034,29.1783063 10.7010821,28.9533851 C10.1784031,28.7284639 9.66983679,28.4613252 9.17538323,28.1520533 C8.68097205,27.8427814 8.32353472,27.5854695 8.103156,27.3802442 C7.88561677,27.1777603 7.60306583,26.89101 7.25554554,26.5198668 C6.91086474,26.1459401 6.61136159,25.7621021 6.35707845,25.3684795 C6.10279531,24.9748568 5.85982777,24.5207125 5.62817583,24.0062153 L5.27637511,23.2386238 L5.25518485,23.1753607 L5.23399459,23.1120977 L5.22128043,23.0699223 L5.21280433,23.0277469 L5.27637511,23.036182 L5.3399459,23.0488346 L5.80613165,23.1120977 C6.11695041,23.154273 6.60432642,23.1683174 7.26825969,23.154273 C7.93223535,23.1402286 8.39134355,23.1120977 8.64562669,23.0699223 C8.89990983,23.0277469 9.05531921,22.999616 9.11181244,22.9855716 L9.19657349,22.9644839 L9.3025248,22.9433962 L9.4084761,22.9223085 L9.41695221,22.9096559 L9.42966637,22.9012209 L9.4424229,22.8927858 L9.45085663,22.8801332 L9.36609558,22.8590455 L9.28133454,22.8379578 L9.19657349,22.8168701 L9.11181244,22.7957825 L9.0270514,22.7746948 C8.97055816,22.7606504 8.8716844,22.7325194 8.73038774,22.6903441 C8.58913345,22.6481687 8.20770875,22.4935117 7.58611362,22.2264151 C6.96456087,21.9593185 6.4701073,21.6992231 6.10279531,21.4461709 C5.73457279,21.1923852 5.38347353,20.914838 5.05175834,20.6153163 C4.72119026,20.3116537 4.3581587,19.9208147 3.9625789,19.4428413 C3.56704148,18.9648679 3.21388458,18.409545 2.90306583,17.7769145 C2.59228945,17.1442841 2.35919657,16.5397847 2.2037872,15.963374 C2.04900275,15.390354 1.9468834,14.8045174 1.89868981,14.2130966 L1.82236249,13.327414 L1.86474301,13.3358491 L1.90712353,13.3485017 L1.94950406,13.3695893 L1.99188458,13.390677 L2.0342651,13.4117647 L2.07664563,13.4328524 L2.73354373,13.7280799 C3.17150406,13.9249123 3.71537331,14.0936138 4.36519387,14.2341842 C5.01505681,14.3747547 5.40351668,14.4521043 5.53065825,14.4661487 L5.7213706,14.4872364 L6.10279531,14.4872364 L6.09436159,14.4745838 L6.08160505,14.4661487 L6.06889089,14.4577137 L6.06041479,14.445061 L6.05198106,14.4324084 L6.03922453,14.4239734 L6.02651037,14.4155383 L6.01803427,14.4028857 L5.97565374,14.381798 L5.93327322,14.3607103 L5.9248395,14.3480577 L5.91208296,14.3396226 L5.8993688,14.3311876 L5.8908927,14.318535 L5.84851217,14.2974473 L5.80613165,14.2763596 L5.79769793,14.263707 C5.78922182,14.2580555 5.66771686,14.1680954 5.43318305,13.9937847 C5.20148873,13.8166482 4.95852119,13.5875094 4.70423805,13.3063263 C4.44995491,13.0251432 4.19567178,12.7299156 3.94138864,12.4206437 C3.68663732,12.1106632 3.45973607,11.7790153 3.26330027,11.4295228 C3.06555275,11.0780755 2.85644725,10.6309745 2.63606853,10.0883463 C2.41852931,9.54850166 2.25324527,9.00443951 2.14021641,8.45615982 C2.02722994,7.90788013 1.96365915,7.36664373 1.94950406,6.83240844 C1.93539134,6.29817314 1.94950406,5.84128746 1.99188458,5.46170921 C2.0342651,5.08213097 2.11902615,4.65333407 2.24616772,4.17536071 C2.37330929,3.69738735 2.55698647,3.19128302 2.79711452,2.65704772 L3.15734896,1.85571587 L3.17853922,1.79245283 L3.19972949,1.72918979 L3.21248602,1.72075472 L3.22091975,1.70810211 L3.22939585,1.6954495 L3.24211001,1.68701443 L3.25486655,1.6954495 L3.26330027,1.70810211 L3.27177638,1.72075472 L3.28449053,1.72918979 L3.29724707,1.73762486 L3.30568079,1.75027747 L3.3141569,1.76293008 L3.32687106,1.77136515 L3.34806132,1.81354051 L3.36925158,1.85571587 L3.38200812,1.86415094 L3.39044184,1.87680355 L3.9625789,2.50943396 C4.34400361,2.93118757 4.79607665,3.40215982 5.31875564,3.92230855 C5.84147701,4.44245727 6.13106312,4.71237958 6.18755636,4.73207547 C6.24409197,4.75455494 6.31469793,4.81920977 6.39945897,4.92608213 C6.48422002,5.03012875 6.76677096,5.27896337 7.24706943,5.67258602 C7.72741028,6.06620866 8.35604058,6.52313651 9.13300271,7.04328524 C9.91000721,7.56343396 10.7717304,8.07658158 11.7182146,8.5826859 C12.6647412,9.08879023 13.6818738,9.54567592 14.7696123,9.95338513 C15.8573931,10.3610943 16.6202426,10.6281909 17.0581605,10.754717 C17.4961208,10.8812431 18.2448151,11.0429012 19.3043282,11.2397336 C20.3638413,11.436566 21.1620361,11.5630921 21.6988278,11.6193119 C22.2356619,11.6755316 22.6029739,11.7078801 22.8007214,11.7163152 L23.097385,11.7247503 L23.0889513,11.6614872 L23.0761948,11.5982242 L22.9914337,11.0710322 C22.9349405,10.7195849 22.9066727,10.227525 22.9066727,9.59489456 C22.9066727,8.96226415 22.9561307,8.37885239 23.0550045,7.84461709 C23.1539206,7.3103818 23.3022525,6.76914539 23.5,6.2208657 C23.6977899,5.67258602 23.8913417,5.2325283 24.0806132,4.90077691 C24.2727665,4.5718091 24.5242101,4.19644839 24.8349865,3.77469478 C25.1458052,3.35294118 25.5484202,2.91714317 26.0428314,2.4672586 C26.5372849,2.01737403 27.1023445,1.6167081 27.7380523,1.26526082 C28.3737601,0.913813541 28.9600523,0.646674806 29.496844,0.463928968 C30.0336781,0.28118313 30.4857511,0.161658158 30.8530207,0.105438402 C31.2203327,0.0492186459 31.4039675,0.0168701443 31.4039675,0.00843507214 Z" id="Shape"></path>
                        </g>
                    </g>
                </g>
            </g>
        </g>
    </g>
</svg>