<svg width="1144" height="770" viewBox="0 0 1144 770" fill="none" xmlns="http://www.w3.org/2000/svg">
<path fill-rule="evenodd" clip-rule="evenodd" d="M606.764 651.342C622.963 656.92 631.576 674.564 626.002 690.752C620.428 706.941 602.777 715.542 586.579 709.964C570.38 704.387 561.767 686.742 567.341 670.554C572.915 654.366 590.565 645.765 606.764 651.342Z" fill="white"/>
<path fill-rule="evenodd" clip-rule="evenodd" d="M551.201 654.42C578.112 663.686 592.421 692.998 583.16 719.891C573.9 746.785 544.578 761.074 517.668 751.808C490.757 742.542 476.448 713.229 485.708 686.336C494.968 659.443 524.291 645.153 551.201 654.42Z" stroke="#FA5A28" stroke-width="2"/>
<path fill-rule="evenodd" clip-rule="evenodd" d="M867.6 134.692C866.251 130.775 868.332 126.506 872.248 125.157C876.163 123.809 880.431 125.891 881.779 129.808C883.128 133.726 881.047 137.995 877.131 139.344C873.216 140.692 868.948 138.61 867.6 134.692Z" stroke="url(#paint0_linear)" stroke-linecap="round" stroke-linejoin="round" stroke-dasharray="2 2"/>
<path fill-rule="evenodd" clip-rule="evenodd" d="M885.864 15.736C884.245 11.035 886.743 5.9122 891.441 4.29386C896.14 2.67552 901.261 5.17449 902.879 9.87546C904.497 14.5764 902 19.6992 897.301 21.3176C892.603 22.9359 887.482 20.4369 885.864 15.736Z" stroke="url(#paint1_linear)" stroke-linecap="round" stroke-linejoin="round" stroke-dasharray="2 2"/>
<path fill-rule="evenodd" clip-rule="evenodd" d="M812.268 47.8697L814.33 72.4943L791.175 60.6724L812.268 47.8697Z" stroke="url(#paint2_linear)" stroke-linecap="round" stroke-linejoin="round" stroke-dasharray="2 2"/>
<path fill-rule="evenodd" clip-rule="evenodd" d="M1049.97 79.3082L1060.28 92.1509L1043.08 94.2585L1049.97 79.3082Z" stroke="url(#paint3_linear)" stroke-linecap="round" stroke-linejoin="round" stroke-dasharray="2 2"/>
<path fill-rule="evenodd" clip-rule="evenodd" d="M8.9765 140.755C13.0951 140.322 16.7846 143.311 17.2171 147.431C17.6497 151.552 14.6615 155.243 10.5429 155.677C6.4243 156.11 2.73485 153.121 2.30229 149.001C1.86974 144.88 4.85788 141.189 8.9765 140.755Z" stroke="url(#paint4_linear)" stroke-linecap="round" stroke-linejoin="round" stroke-dasharray="2 2"/>
<path fill-rule="evenodd" clip-rule="evenodd" d="M120.72 185.317C125.662 184.797 130.089 188.384 130.608 193.328C131.127 198.273 127.542 202.703 122.599 203.223C117.657 203.743 113.23 200.156 112.71 195.212C112.191 190.267 115.777 185.837 120.72 185.317Z" stroke="url(#paint5_linear)" stroke-linecap="round" stroke-linejoin="round" stroke-dasharray="2 2"/>
<path fill-rule="evenodd" clip-rule="evenodd" d="M213.112 131.088L188.666 127.559L205.388 107.646L213.112 131.088Z" stroke="url(#paint6_linear)" stroke-linecap="round" stroke-linejoin="round" stroke-dasharray="2 2"/>
<path fill-rule="evenodd" clip-rule="evenodd" d="M21.8867 330.996L7.0597 338.158L8.87674 320.916L21.8867 330.996Z" stroke="url(#paint7_linear)" stroke-linecap="round" stroke-linejoin="round" stroke-dasharray="2 2"/>
<path fill-rule="evenodd" clip-rule="evenodd" d="M627.016 90.9072C623.148 92.3908 618.809 90.4591 617.324 86.5925C615.838 82.726 617.77 78.3888 621.637 76.9052C625.505 75.4216 629.844 77.3533 631.329 81.2199C632.815 85.0864 630.883 89.4236 627.016 90.9072Z" stroke="url(#paint8_linear)" stroke-linecap="round" stroke-linejoin="round" stroke-dasharray="2 2"/>
<path fill-rule="evenodd" clip-rule="evenodd" d="M507.495 116.779C502.854 118.559 497.647 116.241 495.865 111.601C494.082 106.961 496.4 101.757 501.041 99.9763C505.682 98.1959 510.889 100.514 512.671 105.154C514.454 109.794 512.136 114.998 507.495 116.779Z" stroke="url(#paint9_linear)" stroke-linecap="round" stroke-linejoin="round" stroke-dasharray="2 2"/>
<path fill-rule="evenodd" clip-rule="evenodd" d="M432.264 223.035L456.8 220.12L445.799 243.672L432.264 223.035Z" stroke="url(#paint10_linear)" stroke-linecap="round" stroke-linejoin="round" stroke-dasharray="2 2"/>
<path fill-rule="evenodd" clip-rule="evenodd" d="M268.984 227.435C295.416 194.794 343.287 189.746 375.907 216.161C408.526 242.576 413.542 290.45 387.11 323.091C360.678 355.732 312.807 360.78 280.187 334.365C247.568 307.95 242.552 260.076 268.984 227.435Z" stroke="#FA5A28" stroke-width="2"/>
<path opacity="0.25" fill-rule="evenodd" clip-rule="evenodd" d="M1105.16 301.006L1042.56 308.088C1036.63 308.757 1030.73 306.115 1027.06 301.157L988.35 248.759C984.686 243.8 983.822 237.278 986.083 231.65L1009.97 172.17C1012.23 166.542 1017.28 162.661 1023.2 161.992L1085.8 154.91C1091.73 154.24 1097.63 156.882 1101.3 161.841L1140.01 214.239C1143.67 219.197 1144.54 225.719 1142.28 231.348L1118.38 290.827C1116.12 296.456 1111.08 300.336 1105.16 301.006Z" fill="#FA5A28"/>
<path fill-rule="evenodd" clip-rule="evenodd" d="M231.04 299.716C241.821 286.402 261.347 284.343 274.653 295.117C287.958 305.892 290.004 325.419 279.223 338.734C268.441 352.048 248.915 354.106 235.609 343.332C222.304 332.557 220.258 313.03 231.04 299.716Z" fill="white"/>
<defs>
<linearGradient id="paint0_linear" x1="888.869" y1="127.368" x2="869.801" y2="118.073" gradientUnits="userSpaceOnUse">
<stop stop-color="#C6426E"/>
<stop offset="1" stop-color="#933671"/>
</linearGradient>
<linearGradient id="paint1_linear" x1="911.387" y1="6.94668" x2="888.505" y2="-4.20763" gradientUnits="userSpaceOnUse">
<stop stop-color="#7D6DF2"/>
<stop offset="1" stop-color="#C499FB"/>
</linearGradient>
<linearGradient id="paint2_linear" x1="830.68" y1="69.0382" x2="823.922" y2="37.0676" gradientUnits="userSpaceOnUse">
<stop stop-color="#9033EA"/>
<stop offset="1" stop-color="#483EB7"/>
</linearGradient>
<linearGradient id="paint3_linear" x1="1068.03" y1="84.1454" x2="1052.38" y2="68.997" gradientUnits="userSpaceOnUse">
<stop stop-color="#EE7170"/>
<stop offset="1" stop-color="#8F3DDC"/>
</linearGradient>
<linearGradient id="paint4_linear" x1="11.328" y1="163.137" x2="24.6813" y2="146.654" gradientUnits="userSpaceOnUse">
<stop stop-color="#C6426E"/>
<stop offset="1" stop-color="#933671"/>
</linearGradient>
<linearGradient id="paint5_linear" x1="123.541" y1="212.175" x2="139.565" y2="192.395" gradientUnits="userSpaceOnUse">
<stop stop-color="#7D6DF2"/>
<stop offset="1" stop-color="#C499FB"/>
</linearGradient>
<linearGradient id="paint6_linear" x1="188.35" y1="144.267" x2="221.015" y2="144.884" gradientUnits="userSpaceOnUse">
<stop stop-color="#9033EA"/>
<stop offset="1" stop-color="#483EB7"/>
</linearGradient>
<linearGradient id="paint7_linear" x1="13.1138" y1="347.511" x2="31.3991" y2="335.675" gradientUnits="userSpaceOnUse">
<stop stop-color="#EE7170"/>
<stop offset="1" stop-color="#8F3DDC"/>
</linearGradient>
<linearGradient id="paint8_linear" x1="618.951" y1="69.903" x2="610.324" y2="89.2828" gradientUnits="userSpaceOnUse">
<stop stop-color="#C6426E"/>
<stop offset="1" stop-color="#933671"/>
</linearGradient>
<linearGradient id="paint9_linear" x1="497.818" y1="91.5736" x2="487.465" y2="114.829" gradientUnits="userSpaceOnUse">
<stop stop-color="#7D6DF2"/>
<stop offset="1" stop-color="#C499FB"/>
</linearGradient>
<linearGradient id="paint10_linear" x1="452.774" y1="203.902" x2="421.061" y2="211.775" gradientUnits="userSpaceOnUse">
<stop stop-color="#9033EA"/>
<stop offset="1" stop-color="#483EB7"/>
</linearGradient>
</defs>
</svg>
