<svg width="129" height="173" viewBox="0 0 129 173" fill="none" xmlns="http://www.w3.org/2000/svg">
<path fill-rule="evenodd" clip-rule="evenodd" d="M57.0425 36.5064L56.5357 65.5379L46.4172 65.3174L12.9077 73.6774L12.8786 71.8229L57.0425 36.5064Z" fill="#FBDCD4"/>
<path fill-rule="evenodd" clip-rule="evenodd" d="M23.729 69.4296L24.433 71.8846L22.6933 72.3814L21.9893 69.9264C21.782 69.2198 22.0137 68.5297 22.4905 68.3975C22.9674 68.2564 23.5217 68.723 23.729 69.4296V69.4296Z" fill="#7B39D9"/>
<path fill-rule="evenodd" clip-rule="evenodd" d="M32.9141 66.7513L33.6181 69.2063L31.8784 69.7031L31.1744 67.2481C30.9758 66.5417 31.1988 65.8514 31.6756 65.7192C32.1525 65.5781 32.7067 66.0447 32.9141 66.7513V66.7513Z" fill="#7B39D9"/>
<path fill-rule="evenodd" clip-rule="evenodd" d="M39.1503 52.3576L37.9352 45.4563L47.5398 43.9105L48.7549 50.8118C49.0797 52.8472 46.4908 56.6858 44.7108 56.9799C42.9483 57.2742 39.4751 54.393 39.1503 52.3576V52.3576Z" fill="#7B39D9"/>
<path fill-rule="evenodd" clip-rule="evenodd" d="M47.5479 43.9083C47.0851 42.7316 46.1228 41.9854 45.1537 42.1355L39.6644 42.9974C38.6953 43.1475 38.0185 44.1637 37.9351 45.4188L47.5479 43.9083V43.9083Z" fill="#F1ECD9"/>
<path fill-rule="evenodd" clip-rule="evenodd" d="M38.9863 51.688L48.6718 49.9523L48.8563 50.9814L39.1707 52.7171L38.9863 51.688Z" fill="#F1ECD9"/>
<path d="M44.7692 55.5422L46.4525 65.8258" stroke="#7B39D9" stroke-width="5.5936" stroke-linecap="round"/>
<path fill-rule="evenodd" clip-rule="evenodd" d="M69.5863 34.0018L69.1762 63.0351L79.2881 63.1325L112.522 72.5522L112.608 70.6908L69.5863 34.0018Z" fill="#FBDCD4"/>
<path fill-rule="evenodd" clip-rule="evenodd" d="M101.848 67.9636L101.067 70.3927L102.788 70.95L103.569 68.5209C103.792 67.8218 103.593 67.1242 103.113 66.9752C102.641 66.8176 102.071 67.2558 101.848 67.9636V67.9636Z" fill="#7B39D9"/>
<path fill-rule="evenodd" clip-rule="evenodd" d="M92.7436 64.9934L91.9631 67.4225L93.6845 67.971L94.465 65.5419C94.6881 64.8428 94.4894 64.1452 94.0087 63.9962C93.5368 63.8474 92.9754 64.2945 92.7436 64.9934V64.9934Z" fill="#7B39D9"/>
<path fill-rule="evenodd" clip-rule="evenodd" d="M86.9615 50.4017L88.3906 43.5378L78.8364 41.6927L77.4073 48.5567C77.0205 50.5797 79.4827 54.4976 81.2516 54.8448C83.0203 55.2008 86.5747 52.4247 86.9615 50.4017V50.4017Z" fill="#7B39D9"/>
<path fill-rule="evenodd" clip-rule="evenodd" d="M78.8448 41.7019C79.3484 40.5421 80.3275 39.8211 81.2908 40.0049L86.7557 41.0404C87.7191 41.2242 88.3689 42.2548 88.4084 43.512L78.8448 41.7019V41.7019Z" fill="#F1ECD9"/>
<path fill-rule="evenodd" clip-rule="evenodd" d="M86.9286 50.7706L87.1486 49.7464L77.5187 47.7067L77.3075 48.7311L86.9286 50.7706Z" fill="#F1ECD9"/>
<path d="M81.2504 53.4135L79.2355 63.6413" stroke="#7B39D9" stroke-width="5.5936" stroke-linecap="round"/>
<path fill-rule="evenodd" clip-rule="evenodd" d="M58.82 104.641L59.2816 116.959L43.5984 120.411L43.6604 116.854L58.82 104.641Z" fill="#FBDCD4"/>
<path fill-rule="evenodd" clip-rule="evenodd" d="M43.6428 117.758L43.5965 120.41L59.2797 116.959L59.1848 114.338L43.6428 117.758Z" fill="#7B39D9"/>
<path fill-rule="evenodd" clip-rule="evenodd" d="M64.1071 104.723L63.251 117.018L78.8048 120.98L78.8698 117.256L64.1071 104.723Z" fill="#FBDCD4"/>
<path fill-rule="evenodd" clip-rule="evenodd" d="M78.8528 118.34L78.8066 120.984L63.2528 117.022L63.4301 114.416L78.8528 118.34Z" fill="#7B39D9"/>
<path fill-rule="evenodd" clip-rule="evenodd" d="M71.9031 28.1353C71.54 50.4474 69.8891 73.0447 67.9904 92.7203C66.7135 105.966 63.9415 115.267 63.7881 116.503C63.4179 119.59 63.0277 122.316 61.4465 122.288C59.8566 122.26 58.9581 119.872 58.7636 116.415C58.6901 115.087 57.0227 105.402 56.3403 92.1479C55.236 70.8382 54.085 46.1711 54.3865 27.891C54.648 11.9036 61.6988 2.62475 64.2363 2.73055C66.774 2.82757 72.177 10.9355 71.9031 28.1353V28.1353Z" fill="#D9BEFF"/>
<path fill-rule="evenodd" clip-rule="evenodd" d="M59.0181 14.9987C59.0181 13.8941 61.5284 12.9958 64.0137 12.9958C66.499 12.9958 68.5137 13.8913 68.5137 14.9959C68.5137 16.1004 66.5021 15.4986 64.0168 15.4986C61.5316 15.4986 59.0181 16.1033 59.0181 14.9987Z" fill="#7B39D9"/>
<path fill-rule="evenodd" clip-rule="evenodd" d="M45.4932 69.4209L36.9929 162.912L23.9928 162.912L45.4932 69.4209Z" fill="white"/>
<path fill-rule="evenodd" clip-rule="evenodd" d="M77.6606 69.7776L86.161 163.268L99.161 163.269L77.6606 69.7776Z" fill="white"/>
<path fill-rule="evenodd" clip-rule="evenodd" d="M73.6514 142.275C76.9028 142.331 79.5223 145.046 79.4655 148.299C79.4599 148.625 79.4542 148.95 79.3823 149.339C80.7592 148.712 82.2618 148.348 83.8225 148.375C85.7733 148.409 87.649 149.028 89.1937 149.966C90.9549 145.961 94.9705 143.233 99.5875 143.313C105.05 143.408 109.533 147.457 110.418 152.615C111.468 152.112 112.644 151.808 113.88 151.829C117.846 151.898 121.041 155.209 120.972 159.178C120.962 159.699 120.888 160.218 120.749 160.736C120.943 160.805 123.214 160.338 124.505 162.906C127.348 166.455 123.018 171.665 123.018 171.665L5.00715 170.618C-2.71421 169.507 1.86155 163.282 1.87973 162.241C1.98877 155.995 7.14959 151.008 13.3923 151.117C16.5787 151.172 19.4812 152.59 21.5246 154.773C23.6816 150.45 28.2209 147.535 33.358 147.625C35.1138 147.655 36.7989 148.01 38.2832 148.687C39.3393 144.084 43.4312 140.706 48.3084 140.791C53.1855 140.876 57.1571 144.395 58.0529 148.967C59.8314 147.696 61.9912 146.953 64.2671 146.993C65.5025 147.014 66.6697 147.23 67.7683 147.639C67.9517 144.583 70.53 142.22 73.6514 142.275V142.275Z" fill="white"/>
</svg>
