<svg width="271" height="261" viewBox="0 0 271 261" fill="none" xmlns="http://www.w3.org/2000/svg">
<path fill-rule="evenodd" clip-rule="evenodd" d="M138.254 119.239L116.849 132.253L96.3359 230.863L129.633 230.058L138.254 119.239Z" fill="#FA5A28"/>
<path fill-rule="evenodd" clip-rule="evenodd" d="M124.281 119.239L145.686 132.253L166.299 230.863L132.903 230.058L124.281 119.239Z" fill="#F94F24"/>
<g opacity="0.69">
<path opacity="0.69" fill-rule="evenodd" clip-rule="evenodd" d="M124.281 128.296L116.354 137.821L102.183 259.239H130.921H159.659L145.488 137.821L137.56 128.296L130.921 128.631L124.281 128.296Z" fill="white"/>
</g>
<g opacity="0.69">
<path opacity="0.69" fill-rule="evenodd" clip-rule="evenodd" d="M128.047 125.075L124.579 134.601L118.435 256.019H130.921H143.407L137.263 134.601L133.795 125.075L130.921 125.344L128.047 125.075Z" fill="white"/>
</g>
<path fill-rule="evenodd" clip-rule="evenodd" d="M79.1042 206.581C82.3561 206.581 85.0227 209.25 85.0227 212.504C85.0227 212.829 85.0227 213.155 84.9577 213.545C86.3235 212.894 87.8193 212.504 89.3803 212.504C91.3314 212.504 93.2175 213.089 94.7784 214.001C96.4694 209.966 100.437 207.167 105.054 207.167C110.518 207.167 115.07 211.137 116.046 216.278C117.087 215.758 118.257 215.432 119.493 215.432C123.46 215.432 126.712 218.686 126.712 222.656C126.712 223.177 126.647 223.698 126.517 224.218C126.712 224.283 126.842 224.413 127.037 224.544C128.923 222.591 131.655 221.355 134.582 221.355C136.663 221.355 138.549 221.94 140.175 222.982C141.671 219.858 144.923 217.71 148.63 217.71C153.768 217.71 157.931 221.81 157.996 226.952C159.231 226.561 160.467 226.301 161.833 226.301C164.109 226.301 166.19 226.952 167.946 228.058C170.223 223.763 174.71 220.834 179.913 220.834C185.442 220.834 190.19 224.153 192.271 228.839C193.832 229.164 195.197 229.945 196.368 230.922C198.384 229.295 200.986 228.318 203.783 228.318C207.75 228.318 211.327 230.336 213.408 233.395C215.815 229.49 220.172 226.887 225.115 226.887C229.538 226.887 233.505 228.969 236.041 232.288C237.928 230.596 240.464 229.555 243.261 229.555C247.358 229.555 250.87 231.768 252.756 235.087C254.577 232.418 257.569 230.726 261.016 230.726C266.544 230.726 270.967 235.217 270.967 240.684V260.924H123.72H113.509H14.131V259.817C6.39148 258.841 0.407959 252.268 0.407959 244.263C0.407959 238.536 3.46476 233.525 8.08247 230.791C7.82232 229.815 7.69224 228.839 7.69224 227.798C7.69224 221.55 12.7652 216.474 19.0089 216.474C22.1958 216.474 25.1225 217.84 27.2037 219.988C29.2849 215.628 33.7726 212.634 38.9106 212.634C40.6666 212.634 42.3576 212.959 43.8535 213.61C44.8291 208.989 48.8614 205.54 53.7393 205.54C58.6172 205.54 62.6495 208.989 63.6251 213.545C65.3811 212.243 67.5274 211.462 69.8037 211.462C71.0395 211.462 72.2102 211.658 73.3158 212.048C73.4459 208.989 75.9824 206.581 79.1042 206.581V206.581Z" fill="white"/>
<path opacity="0.64" fill-rule="evenodd" clip-rule="evenodd" d="M194.578 197.87C191.911 198 189.895 200.733 190.025 203.987C190.025 204.313 190.09 204.638 190.155 204.963C189.049 204.378 187.814 204.052 186.513 204.117C184.887 204.182 183.456 204.833 182.22 205.809C180.66 201.839 177.278 199.171 173.505 199.366C169.018 199.562 165.506 203.662 164.985 208.868C164.14 208.348 163.164 208.087 162.124 208.152C158.872 208.282 156.335 211.667 156.53 215.637C156.53 216.157 156.595 216.678 156.725 217.199C156.595 217.329 156.465 217.394 156.335 217.524C154.709 215.637 152.433 214.53 150.027 214.595C148.336 214.66 146.84 215.311 145.539 216.418C144.173 213.359 141.441 211.276 138.45 211.406C134.287 211.602 131.035 215.832 131.23 220.973C130.255 220.583 129.149 220.387 128.044 220.453C126.223 220.518 124.532 221.234 123.101 222.405C121.085 218.175 117.247 215.441 113.02 215.637C108.532 215.832 104.825 219.281 103.264 224.097C102.028 224.488 100.923 225.269 100.012 226.375C98.3211 224.813 96.1749 223.902 93.8335 224.032C90.5816 224.162 87.785 226.31 86.224 229.434C84.0778 225.594 80.4356 223.186 76.4033 223.381C72.7611 223.511 69.6393 225.789 67.7532 229.173C66.1272 227.546 64.046 226.635 61.7697 226.7C58.4527 226.831 55.6561 229.238 54.2903 232.623C52.7293 230.019 50.1929 228.392 47.3962 228.523C42.9086 228.718 39.4615 233.339 39.7217 238.87L40.6322 259.111L160.628 253.839L168.953 253.449L250.055 249.934L249.99 248.828C256.234 247.591 260.852 240.823 260.527 232.818C260.266 227.091 257.535 222.21 253.697 219.607C253.893 218.63 253.958 217.589 253.893 216.548C253.632 210.3 249.275 205.419 244.202 205.679C241.6 205.809 239.259 207.241 237.698 209.454C235.812 205.159 232.04 202.36 227.812 202.555C226.381 202.62 225.016 203.011 223.845 203.727C222.869 199.171 219.422 195.852 215.39 196.047C211.423 196.242 208.236 199.822 207.65 204.378C206.22 203.141 204.398 202.425 202.512 202.49C201.537 202.555 200.561 202.816 199.716 203.206C199.26 200.082 197.114 197.739 194.578 197.87V197.87Z" fill="white"/>
<path opacity="0.64" fill-rule="evenodd" clip-rule="evenodd" d="M142.658 187.357C140.473 187.487 138.82 190.22 138.927 193.474C138.927 193.8 138.98 194.125 139.034 194.451C138.127 193.865 137.114 193.54 136.048 193.605C134.716 193.67 133.543 194.32 132.53 195.297C131.251 191.327 128.479 188.658 125.387 188.854C121.709 189.049 118.83 193.149 118.404 198.355C117.711 197.835 116.911 197.575 116.058 197.64C113.393 197.77 111.314 201.154 111.474 205.124C111.474 205.645 111.527 206.165 111.634 206.686C111.527 206.816 111.421 206.881 111.314 207.011C109.981 205.124 108.116 204.018 106.143 204.083C104.757 204.148 103.531 204.798 102.465 205.905C101.346 202.846 99.107 200.763 96.6549 200.894C93.2433 201.089 90.578 205.319 90.7379 210.461C89.9383 210.07 89.0321 209.875 88.1259 209.94C86.6333 210.005 85.2473 210.721 84.0746 211.892C82.4221 207.662 79.277 204.929 75.8121 205.124C72.1339 205.319 69.0954 208.768 67.8161 213.584C66.8033 213.975 65.8971 214.756 65.1508 215.862C63.7648 214.3 62.0057 213.389 60.0867 213.519C57.4213 213.649 55.1292 215.797 53.8498 218.921C52.0907 215.081 49.1055 212.673 45.8005 212.869C42.8154 212.999 40.2567 215.277 38.7108 218.661C37.3781 217.034 35.6723 216.123 33.8066 216.188C31.0879 216.318 28.7958 218.726 27.6763 222.11C26.397 219.507 24.318 217.88 22.0258 218.01C18.3477 218.205 15.5225 222.826 15.7357 228.358L16.482 248.598L114.832 243.326L121.656 242.936L188.129 239.421L188.075 238.315C193.193 237.079 196.978 230.31 196.711 222.305C196.498 216.578 194.259 211.697 191.114 209.094C191.274 208.118 191.327 207.076 191.274 206.035C191.061 199.787 187.489 194.906 183.331 195.167C181.199 195.297 179.28 196.728 178.001 198.941C176.455 194.646 173.363 191.847 169.898 192.043C168.725 192.108 167.606 192.498 166.646 193.214C165.847 188.658 163.021 185.339 159.716 185.535C156.465 185.73 153.853 189.309 153.373 193.865C152.2 192.628 150.708 191.912 149.162 191.978C148.362 192.043 147.563 192.303 146.87 192.693C146.55 189.57 144.791 187.227 142.658 187.357V187.357Z" fill="white"/>
<path fill-rule="evenodd" clip-rule="evenodd" d="M125.24 135.928C124.942 136.324 120.087 138.903 120.087 138.903C120.087 138.903 119.294 139.696 118.204 143.365C117.114 147.034 116.717 150.604 116.717 150.306C116.717 150.009 118.798 147.53 118.798 147.53C118.798 147.53 117.807 152.091 117.807 156.157C117.807 160.322 118.303 164.09 118.303 163.594C118.303 163.098 119.69 159.628 119.69 159.628C119.69 159.628 120.186 164.586 121.87 169.048C123.555 173.51 124.843 175.89 124.744 175.295C124.645 174.7 125.933 170.337 125.933 170.337C125.933 170.337 126.627 176.584 129.204 182.038C130.095 184.021 130.888 185.608 131.483 186.798C132.077 185.608 132.771 184.121 133.762 182.038C136.239 176.584 137.032 170.337 137.032 170.337C137.032 170.337 138.32 174.7 138.221 175.295C138.122 175.89 139.411 173.609 141.095 169.048C142.78 164.586 143.275 159.628 143.275 159.628C143.275 159.628 144.663 163.098 144.663 163.594C144.663 164.09 145.158 160.322 145.158 156.157C145.158 151.992 144.167 147.53 144.167 147.53C144.167 147.53 146.248 149.91 146.248 150.306C146.248 150.604 145.852 147.034 144.762 143.365C143.672 139.696 142.879 138.903 142.879 138.903C142.879 138.903 138.023 136.225 137.726 135.928L131.483 135.729L125.24 135.928V135.928Z" fill="#F9B059"/>
<path fill-rule="evenodd" clip-rule="evenodd" d="M120.681 142.472L122.465 140.389L120.879 147.926C120.582 149.512 120.285 151.198 120.086 152.884L120.879 150.702L121.672 159.329C121.969 162.205 122.663 165.576 123.654 168.254C123.753 168.551 123.852 168.75 123.951 169.047L126.627 159.825L127.816 169.94C128.212 173.509 129.402 177.773 130.888 181.046C130.987 181.343 131.086 181.542 131.284 181.839C131.384 181.542 131.582 181.343 131.681 181.046C133.167 177.873 134.356 173.509 134.753 169.94L135.942 159.825L138.618 169.047C138.717 168.75 138.816 168.551 138.915 168.254C139.906 165.576 140.699 162.205 140.897 159.329L141.69 150.702L142.482 152.884C142.284 151.198 142.086 149.512 141.69 147.926L140.104 140.389L141.888 142.472C141.69 141.778 141.293 140.984 141.095 140.488C140.401 140.092 139.609 139.695 138.915 139.199C138.419 138.902 137.428 138.406 136.735 137.91L131.185 137.712L125.636 137.91C124.942 138.406 123.951 138.902 123.456 139.199C122.762 139.596 121.969 139.993 121.276 140.488C121.276 140.984 120.978 141.778 120.681 142.472V142.472Z" fill="#F7CE78"/>
<path fill-rule="evenodd" clip-rule="evenodd" d="M131.483 174.798C131.978 173.113 132.275 171.427 132.474 169.84L135.05 147.529L138.618 159.726V159.726L139.609 148.719L138.122 141.48L138.023 141.381C137.429 141.083 136.834 140.687 136.338 140.389L131.582 140.29L126.825 140.389C126.231 140.687 125.636 141.083 125.14 141.381L125.041 141.48L123.555 148.521C123.555 148.62 123.555 148.917 123.555 149.016L124.546 159.825L128.113 147.628L130.69 169.939C130.69 171.427 130.987 173.113 131.483 174.798V174.798Z" fill="#F6F0EB"/>
<path fill-rule="evenodd" clip-rule="evenodd" d="M120.78 129.085H142.482L145.852 141.877H117.411L120.78 129.085Z" fill="url(#paint0_linear)"/>
<path opacity="0.17" fill-rule="evenodd" clip-rule="evenodd" d="M119.987 132.159C120.285 132.159 120.582 132.159 120.879 132.159C120.582 133.547 120.186 134.935 119.789 136.522C119.393 138.208 118.996 139.993 118.501 141.877C118.105 141.877 117.807 141.877 117.411 141.877C117.906 139.993 118.402 138.208 118.798 136.522C119.294 135.035 119.591 133.547 119.987 132.159V132.159Z" fill="white"/>
<path opacity="0.17" fill-rule="evenodd" clip-rule="evenodd" d="M122.267 132.159C122.564 132.159 122.861 132.159 123.159 132.159C122.861 133.547 122.564 134.935 122.267 136.522C121.969 138.208 121.573 139.993 121.276 141.877C120.879 141.877 120.582 141.877 120.186 141.877C120.582 139.993 120.978 138.208 121.375 136.522C121.672 135.035 121.969 133.547 122.267 132.159V132.159Z" fill="white"/>
<path opacity="0.17" fill-rule="evenodd" clip-rule="evenodd" d="M124.447 132.159C124.744 132.159 125.041 132.159 125.339 132.159C125.14 133.547 124.942 134.935 124.744 136.522C124.546 138.208 124.249 139.993 123.951 141.877C123.555 141.877 123.258 141.877 122.861 141.877C123.159 139.993 123.456 138.208 123.753 136.522C124.05 135.035 124.249 133.547 124.447 132.159V132.159Z" fill="white"/>
<path opacity="0.17" fill-rule="evenodd" clip-rule="evenodd" d="M126.726 132.159C127.023 132.159 127.321 132.159 127.618 132.159C127.519 133.547 127.321 134.935 127.222 136.522C127.023 138.208 126.924 139.993 126.726 141.877C126.33 141.877 126.032 141.877 125.636 141.877C125.834 139.993 126.032 138.208 126.231 136.522C126.429 135.035 126.528 133.547 126.726 132.159V132.159Z" fill="white"/>
<path opacity="0.17" fill-rule="evenodd" clip-rule="evenodd" d="M128.906 132.159C129.204 132.159 129.501 132.159 129.798 132.159C129.699 133.547 129.699 134.935 129.6 136.522C129.501 138.208 129.501 139.993 129.402 141.877C129.005 141.877 128.708 141.877 128.312 141.877C128.411 139.993 128.51 138.208 128.609 136.522C128.807 135.035 128.906 133.547 128.906 132.159V132.159Z" fill="white"/>
<path opacity="0.17" fill-rule="evenodd" clip-rule="evenodd" d="M131.185 132.159C131.483 132.159 131.78 132.159 132.077 132.159C132.077 133.547 132.077 134.935 132.077 136.522C132.077 138.208 132.077 139.993 132.176 141.877C131.78 141.877 131.483 141.877 131.086 141.877C131.086 139.993 131.086 138.208 131.185 136.522C131.185 135.035 131.185 133.547 131.185 132.159V132.159Z" fill="white"/>
<path opacity="0.17" fill-rule="evenodd" clip-rule="evenodd" d="M133.465 132.159C133.762 132.159 134.059 132.159 134.357 132.159C134.456 133.547 134.555 134.935 134.654 136.522C134.753 138.208 134.852 139.993 134.951 141.877C134.555 141.877 134.258 141.877 133.861 141.877C133.762 139.993 133.663 138.208 133.663 136.522C133.564 135.035 133.465 133.547 133.465 132.159V132.159Z" fill="white"/>
<path opacity="0.17" fill-rule="evenodd" clip-rule="evenodd" d="M135.645 132.159C135.942 132.159 136.239 132.159 136.537 132.159C136.735 133.547 136.834 134.935 137.032 136.522C137.23 138.208 137.429 139.993 137.627 141.877C137.23 141.877 136.933 141.877 136.537 141.877C136.338 139.993 136.239 138.208 136.041 136.522C135.942 135.035 135.744 133.547 135.645 132.159V132.159Z" fill="white"/>
<path opacity="0.17" fill-rule="evenodd" clip-rule="evenodd" d="M137.924 132.159C138.221 132.159 138.519 132.159 138.816 132.159C139.014 133.547 139.311 134.935 139.51 136.522C139.807 138.208 140.104 139.993 140.401 141.877C140.005 141.877 139.708 141.877 139.311 141.877C139.014 139.993 138.816 138.208 138.519 136.522C138.32 135.035 138.122 133.547 137.924 132.159V132.159Z" fill="white"/>
<path opacity="0.17" fill-rule="evenodd" clip-rule="evenodd" d="M140.104 132.159C140.402 132.159 140.699 132.159 140.996 132.159C141.293 133.547 141.591 134.935 141.888 136.522C142.284 138.208 142.582 139.993 143.077 141.877C142.681 141.877 142.383 141.877 141.987 141.877C141.591 139.993 141.293 138.208 140.996 136.522C140.699 135.035 140.402 133.547 140.104 132.159V132.159Z" fill="white"/>
<path opacity="0.17" fill-rule="evenodd" clip-rule="evenodd" d="M142.383 132.159C142.681 132.159 142.978 132.159 143.275 132.159C143.672 133.547 144.068 134.935 144.464 136.522C144.861 138.208 145.356 139.993 145.852 141.877C145.455 141.877 145.158 141.877 144.762 141.877C144.266 139.993 143.87 138.208 143.473 136.522C143.077 135.035 142.681 133.547 142.383 132.159V132.159Z" fill="white"/>
<path fill-rule="evenodd" clip-rule="evenodd" d="M113.051 109.55C112.654 109.946 93.5284 122.738 92.3393 124.622C91.1501 126.507 89.3663 146.339 89.3663 146.339L98.3842 135.034L116.717 131.266L113.051 109.55V109.55Z" fill="url(#paint1_linear)"/>
<path opacity="0.24" fill-rule="evenodd" clip-rule="evenodd" d="M112.456 121.053C106.312 123.433 97.5914 126.903 97.5914 126.903L89.3663 146.339L98.3842 135.035L116.717 131.266C115.132 127.994 113.645 124.523 112.456 121.053V121.053Z" fill="#DB6E00"/>
<path opacity="0.24" fill-rule="evenodd" clip-rule="evenodd" d="M97.5914 126.903L89.3663 146.339L98.3842 135.034L97.5914 126.903Z" fill="#CE6612"/>
<path opacity="0.25" fill-rule="evenodd" clip-rule="evenodd" d="M109.483 113.318L110.375 117.483L94.8167 126.308L90.8528 137.414L93.0329 124.722L109.483 113.318Z" fill="#EA926A"/>
<path fill-rule="evenodd" clip-rule="evenodd" d="M150.212 109.55C150.608 109.946 169.734 122.738 170.923 124.622C172.113 126.507 173.896 146.339 173.896 146.339L164.878 135.034L146.545 131.266L150.212 109.55V109.55Z" fill="url(#paint2_linear)"/>
<path opacity="0.24" fill-rule="evenodd" clip-rule="evenodd" d="M150.906 121.053C157.05 123.433 165.77 126.903 165.77 126.903L173.995 146.339L164.978 135.035L146.645 131.266C148.23 127.994 149.617 124.523 150.906 121.053V121.053Z" fill="#DB6E00"/>
<path opacity="0.24" fill-rule="evenodd" clip-rule="evenodd" d="M165.671 126.903L173.896 146.339L164.878 135.034L165.671 126.903Z" fill="#CE6612"/>
<path opacity="0.25" fill-rule="evenodd" clip-rule="evenodd" d="M153.879 113.318L152.888 117.483L168.446 126.308L172.41 137.414L170.23 124.722L153.879 113.318Z" fill="#EA926A"/>
<path fill-rule="evenodd" clip-rule="evenodd" d="M131.681 0.67041C158.338 34.1872 165.969 92.2961 146.645 131.267H116.816C97.3932 92.2961 105.024 34.088 131.681 0.67041V0.67041Z" fill="#E5EEF9"/>
<path fill-rule="evenodd" clip-rule="evenodd" d="M131.681 0.67041C123.059 11.4791 116.42 24.8659 112.06 39.4428H151.203C146.843 24.8659 140.203 11.4791 131.681 0.67041V0.67041Z" fill="url(#paint3_linear)"/>
<path fill-rule="evenodd" clip-rule="evenodd" d="M151.203 39.3438H112.06C111.762 40.3354 111.465 41.4262 111.168 42.4178H152.095C151.798 41.4262 151.5 40.4345 151.203 39.3438V39.3438Z" fill="#752994"/>
<path fill-rule="evenodd" clip-rule="evenodd" d="M117.123 72.8536C116.133 64.8098 121.847 57.4861 129.886 56.4956C137.924 55.5051 145.243 61.2229 146.233 69.2667C147.223 77.3105 141.509 84.6342 133.47 85.6247C125.432 86.6152 118.113 80.8974 117.123 72.8536Z" fill="#E47D7D"/>
<path fill-rule="evenodd" clip-rule="evenodd" d="M131.681 83.6691C138.618 83.6691 144.266 78.0169 144.266 71.0755C144.266 64.1342 138.618 58.4819 131.681 58.4819C124.744 58.4819 119.095 64.1342 119.095 71.0755C119.095 78.0169 124.744 83.6691 131.681 83.6691V83.6691Z" fill="url(#paint4_radial)"/>
<path opacity="0.25" fill-rule="evenodd" clip-rule="evenodd" d="M143.077 69.3896C143.077 77.0251 136.933 83.1731 129.303 83.1731C128.906 83.1731 128.51 83.1731 128.113 83.1731C129.203 83.4706 130.393 83.6689 131.582 83.6689C138.519 83.6689 144.167 78.0167 144.167 71.0753C144.167 68.2988 143.275 65.7206 141.789 63.6382C142.582 65.4231 143.077 67.4063 143.077 69.3896V69.3896Z" fill="#0EA8EE"/>
<path fill-rule="evenodd" clip-rule="evenodd" d="M131.681 57.0933L131.78 57.1924L131.978 57.2916L132.077 57.4899V57.6882L131.978 57.8866L131.879 57.9857H131.681H131.383L131.284 57.8866L131.185 57.6882V57.4899L131.284 57.2916L131.483 57.1924L131.681 57.0933Z" fill="#31587D"/>
<path fill-rule="evenodd" clip-rule="evenodd" d="M121.771 61.2579L121.969 61.1587L122.168 61.0596L122.366 61.1587L122.564 61.2579V61.4562V61.6545L122.465 61.8529L122.267 61.952H122.069H121.87L121.771 61.7537L121.672 61.5554V61.3571L121.771 61.2579Z" fill="#31587D"/>
<path fill-rule="evenodd" clip-rule="evenodd" d="M117.708 71.0759L117.807 70.8776L117.906 70.6792H118.105L118.303 70.5801L118.402 70.7784L118.6 70.8776V71.0759V71.2742L118.402 71.3734L118.303 71.5717L118.105 71.4725H117.906L117.807 71.2742L117.708 71.0759Z" fill="#31587D"/>
<path fill-rule="evenodd" clip-rule="evenodd" d="M121.771 80.8924L121.672 80.6941V80.4958L121.771 80.3966L121.87 80.1983H122.069L122.267 80.0991L122.465 80.2974L122.564 80.3966V80.5949V80.7932L122.366 80.9916L122.168 81.0907L121.969 80.9916L121.771 80.8924Z" fill="#31587D"/>
<path fill-rule="evenodd" clip-rule="evenodd" d="M131.681 84.9584H131.483L131.284 84.8592L131.185 84.6609V84.4626L131.284 84.2642L131.383 84.0659H131.681H131.879L131.978 84.2642L132.077 84.4626V84.6609L131.978 84.8592L131.78 84.9584H131.681Z" fill="#31587D"/>
<path fill-rule="evenodd" clip-rule="evenodd" d="M141.491 80.8924L141.293 80.9916L141.095 81.0907L140.897 80.9916L140.699 80.7932V80.5949V80.3966L140.798 80.2974L140.996 80.0991L141.194 80.1983H141.392L141.491 80.3966L141.591 80.4958V80.6941L141.491 80.8924Z" fill="#31587D"/>
<path fill-rule="evenodd" clip-rule="evenodd" d="M145.554 71.0759L145.455 71.2742L145.356 71.4725H145.158L144.96 71.5717L144.861 71.3734L144.663 71.2742V71.0759V70.8776L144.861 70.7784L144.96 70.5801L145.158 70.6792H145.356L145.455 70.8776L145.554 71.0759Z" fill="#31587D"/>
<path fill-rule="evenodd" clip-rule="evenodd" d="M141.491 61.2579L141.591 61.3571V61.5554L141.491 61.7537L141.392 61.952H141.194H140.996L140.798 61.8529L140.699 61.6545V61.4562V61.2579L140.897 61.1587L141.095 61.0596L141.293 61.1587L141.491 61.2579Z" fill="#31587D"/>
<rect x="116.717" y="131.267" width="29.8283" height="4.75978" fill="#752994"/>
<path fill-rule="evenodd" clip-rule="evenodd" d="M118.897 132.952L119.195 133.051L119.492 133.25L119.591 133.547L119.69 133.944L119.492 134.241L119.294 134.539H118.897H118.501L118.303 134.241L118.105 133.944L118.204 133.547V133.25L118.6 133.051L118.897 132.952Z" fill="#303030"/>
<path fill-rule="evenodd" clip-rule="evenodd" d="M125.24 132.952L125.636 133.051L125.933 133.25L126.032 133.547V133.944L125.834 134.241L125.636 134.539H125.24H124.942L124.645 134.241L124.447 133.944L124.546 133.547L124.645 133.25L124.942 133.051L125.24 132.952Z" fill="#303030"/>
<path fill-rule="evenodd" clip-rule="evenodd" d="M131.681 132.952L131.978 133.051L132.276 133.25L132.375 133.547L132.474 133.944L132.177 134.241L131.978 134.539H131.681H131.285L131.086 134.241L130.789 133.944L130.888 133.547L130.987 133.25L131.285 133.051L131.681 132.952Z" fill="#303030"/>
<path fill-rule="evenodd" clip-rule="evenodd" d="M138.023 132.952L138.321 133.051L138.618 133.25L138.717 133.547L138.816 133.944L138.618 134.241L138.321 134.539H138.023H137.627L137.429 134.241L137.23 133.944L137.33 133.547V133.25L137.726 133.051L138.023 132.952Z" fill="#303030"/>
<path fill-rule="evenodd" clip-rule="evenodd" d="M144.365 132.952L144.663 133.051L145.059 133.25V133.547L145.158 133.944L144.96 134.241L144.762 134.539H144.365H144.068L143.771 134.241L143.573 133.944L143.672 133.547L143.771 133.25L144.068 133.051L144.365 132.952Z" fill="#303030"/>
<path fill-rule="evenodd" clip-rule="evenodd" d="M131.681 111.831L133.96 120.855L131.681 146.339V111.831Z" fill="url(#paint5_linear)"/>
<path fill-rule="evenodd" clip-rule="evenodd" d="M131.681 111.831L129.303 120.855L131.681 146.339V111.831Z" fill="url(#paint6_linear)"/>
<path opacity="0.46" fill-rule="evenodd" clip-rule="evenodd" d="M130.194 4.53809C127.32 6.81881 117.807 29.3286 115.33 36.5674H124.248C125.537 26.4529 127.32 15.1484 130.194 4.53809V4.53809Z" fill="#EA926A"/>
<path fill-rule="evenodd" clip-rule="evenodd" d="M112.258 45.3918C112.258 45.3918 108.69 61.6544 108.591 75.3388C108.492 82.181 110.969 118.375 116.123 122.54L125.14 122.242V86.5441C113.348 83.8667 111.465 61.6544 125.636 54.8122L125.438 44.7969C120.978 44.7969 116.717 45.1935 112.258 45.3918V45.3918Z" fill="#FCFDFF"/>
<path opacity="0.25" fill-rule="evenodd" clip-rule="evenodd" d="M129.302 81.7849C124.447 81.3882 120.681 76.6285 120.681 70.8771C120.681 65.1257 124.546 60.3659 129.302 59.9692V81.7849V81.7849Z" fill="#3DC6FA"/>
<defs>
<linearGradient id="paint0_linear" x1="152.075" y1="149.807" x2="152.075" y2="131.421" gradientUnits="userSpaceOnUse">
<stop stop-color="#FF5A19"/>
<stop offset="0.18" stop-color="#FD591C"/>
<stop offset="0.304" stop-color="#F75525"/>
<stop offset="0.4112" stop-color="#EC4D34"/>
<stop offset="0.5088" stop-color="#DD434A"/>
<stop offset="0.5999" stop-color="#CA3666"/>
<stop offset="0.685" stop-color="#B22788"/>
<stop offset="0.7069" stop-color="#AB2292"/>
</linearGradient>
<linearGradient id="paint1_linear" x1="47.1767" y1="87.9672" x2="93.1485" y2="181.675" gradientUnits="userSpaceOnUse">
<stop stop-color="#FF5A19"/>
<stop offset="0.18" stop-color="#FD591C"/>
<stop offset="0.304" stop-color="#F75525"/>
<stop offset="0.4112" stop-color="#EC4D34"/>
<stop offset="0.5088" stop-color="#DD434A"/>
<stop offset="0.5999" stop-color="#CA3666"/>
<stop offset="0.685" stop-color="#B22788"/>
<stop offset="0.7069" stop-color="#AB2292"/>
</linearGradient>
<linearGradient id="paint2_linear" x1="139.821" y1="50.5421" x2="93.8496" y2="144.25" gradientUnits="userSpaceOnUse">
<stop stop-color="#FF5A19"/>
<stop offset="0.18" stop-color="#FD591C"/>
<stop offset="0.304" stop-color="#F75525"/>
<stop offset="0.4112" stop-color="#EC4D34"/>
<stop offset="0.5088" stop-color="#DD434A"/>
<stop offset="0.5999" stop-color="#CA3666"/>
<stop offset="0.685" stop-color="#B22788"/>
<stop offset="0.7069" stop-color="#AB2292"/>
</linearGradient>
<linearGradient id="paint3_linear" x1="112.041" y1="39.4227" x2="151.23" y2="39.4227" gradientUnits="userSpaceOnUse">
<stop stop-color="#FF5A19"/>
<stop offset="0.7069" stop-color="#AB2292"/>
</linearGradient>
<radialGradient id="paint4_radial" cx="0" cy="0" r="1" gradientUnits="userSpaceOnUse" gradientTransform="translate(131.427 61.4266) scale(20.5199 20.5333)">
<stop stop-color="#D650D1"/>
<stop offset="1" stop-color="#3B1AAF"/>
</radialGradient>
<linearGradient id="paint5_linear" x1="108.056" y1="424.846" x2="147.577" y2="424.871" gradientUnits="userSpaceOnUse">
<stop stop-color="#FF5A19"/>
<stop offset="0.18" stop-color="#FD591C"/>
<stop offset="0.304" stop-color="#F75525"/>
<stop offset="0.4112" stop-color="#EC4D34"/>
<stop offset="0.5088" stop-color="#DD434A"/>
<stop offset="0.5999" stop-color="#CA3666"/>
<stop offset="0.685" stop-color="#B22788"/>
<stop offset="0.7069" stop-color="#AB2292"/>
</linearGradient>
<linearGradient id="paint6_linear" x1="138.886" y1="18.9841" x2="123.855" y2="18.9946" gradientUnits="userSpaceOnUse">
<stop stop-color="#FF5A19"/>
<stop offset="0.18" stop-color="#FD591C"/>
<stop offset="0.304" stop-color="#F75525"/>
<stop offset="0.4112" stop-color="#EC4D34"/>
<stop offset="0.5088" stop-color="#DD434A"/>
<stop offset="0.5999" stop-color="#CA3666"/>
<stop offset="0.685" stop-color="#B22788"/>
<stop offset="0.7069" stop-color="#AB2292"/>
</linearGradient>
</defs>
</svg>
