<svg width="1440" height="1068" viewBox="0 0 1440 1068" fill="none" xmlns="http://www.w3.org/2000/svg">
<path fill-rule="evenodd" clip-rule="evenodd" d="M1.03733 283L1606.04 378.926L1606.02 817.846L0 916L1.03733 283Z" fill="#F3F1F5"/>
<path fill-rule="evenodd" clip-rule="evenodd" d="M808.764 788.342C824.963 793.92 833.576 811.564 828.002 827.752C822.428 843.941 804.777 852.542 788.579 846.964C772.38 841.387 763.767 823.742 769.341 807.554C774.915 791.366 792.565 782.765 808.764 788.342Z" fill="white"/>
<path fill-rule="evenodd" clip-rule="evenodd" d="M753.201 791.42C780.112 800.686 794.421 829.998 785.16 856.891C775.9 883.785 746.578 898.074 719.668 888.808C692.757 879.542 678.448 850.229 687.708 823.336C696.968 796.443 726.291 782.153 753.201 791.42Z" stroke="#FA5A28" stroke-width="2"/>
<path fill-rule="evenodd" clip-rule="evenodd" d="M1069.6 271.692C1068.25 267.775 1070.33 263.506 1074.25 262.157C1078.16 260.809 1082.43 262.891 1083.78 266.808C1085.13 270.726 1083.05 274.995 1079.13 276.344C1075.22 277.692 1070.95 275.61 1069.6 271.692Z" stroke="url(#paint0_linear)" stroke-linecap="round" stroke-linejoin="round" stroke-dasharray="2 2"/>
<path fill-rule="evenodd" clip-rule="evenodd" d="M1087.86 152.736C1086.25 148.035 1088.74 142.912 1093.44 141.294C1098.14 139.676 1103.26 142.174 1104.88 146.875C1106.5 151.576 1104 156.699 1099.3 158.318C1094.6 159.936 1089.48 157.437 1087.86 152.736Z" stroke="url(#paint1_linear)" stroke-linecap="round" stroke-linejoin="round" stroke-dasharray="2 2"/>
<path fill-rule="evenodd" clip-rule="evenodd" d="M1014.27 184.87L1016.33 209.494L993.175 197.672L1014.27 184.87Z" stroke="url(#paint2_linear)" stroke-linecap="round" stroke-linejoin="round" stroke-dasharray="2 2"/>
<path fill-rule="evenodd" clip-rule="evenodd" d="M1251.97 216.308L1262.28 229.151L1245.08 231.259L1251.97 216.308Z" stroke="url(#paint3_linear)" stroke-linecap="round" stroke-linejoin="round" stroke-dasharray="2 2"/>
<path fill-rule="evenodd" clip-rule="evenodd" d="M210.977 277.755C215.095 277.322 218.785 280.311 219.217 284.431C219.65 288.552 216.662 292.243 212.543 292.677C208.424 293.11 204.735 290.121 204.302 286.001C203.87 281.88 206.858 278.189 210.977 277.755Z" stroke="url(#paint4_linear)" stroke-linecap="round" stroke-linejoin="round" stroke-dasharray="2 2"/>
<path fill-rule="evenodd" clip-rule="evenodd" d="M322.72 322.317C327.662 321.797 332.089 325.384 332.608 330.328C333.127 335.273 329.542 339.703 324.599 340.223C319.657 340.743 315.23 337.156 314.71 332.212C314.191 327.267 317.777 322.837 322.72 322.317Z" stroke="url(#paint5_linear)" stroke-linecap="round" stroke-linejoin="round" stroke-dasharray="2 2"/>
<path fill-rule="evenodd" clip-rule="evenodd" d="M415.112 268.088L390.666 264.559L407.388 244.646L415.112 268.088Z" stroke="url(#paint6_linear)" stroke-linecap="round" stroke-linejoin="round" stroke-dasharray="2 2"/>
<path fill-rule="evenodd" clip-rule="evenodd" d="M223.887 467.996L209.06 475.158L210.877 457.916L223.887 467.996Z" stroke="url(#paint7_linear)" stroke-linecap="round" stroke-linejoin="round" stroke-dasharray="2 2"/>
<path fill-rule="evenodd" clip-rule="evenodd" d="M829.016 227.907C825.148 229.391 820.809 227.459 819.324 223.593C817.838 219.726 819.77 215.389 823.637 213.905C827.505 212.422 831.844 214.353 833.329 218.22C834.815 222.086 832.883 226.424 829.016 227.907Z" stroke="url(#paint8_linear)" stroke-linecap="round" stroke-linejoin="round" stroke-dasharray="2 2"/>
<path fill-rule="evenodd" clip-rule="evenodd" d="M709.495 253.779C704.854 255.559 699.647 253.241 697.865 248.601C696.082 243.961 698.4 238.757 703.041 236.976C707.682 235.196 712.889 237.514 714.671 242.154C716.454 246.794 714.136 251.998 709.495 253.779Z" stroke="url(#paint9_linear)" stroke-linecap="round" stroke-linejoin="round" stroke-dasharray="2 2"/>
<path fill-rule="evenodd" clip-rule="evenodd" d="M634.264 360.035L658.8 357.12L647.799 380.672L634.264 360.035Z" stroke="url(#paint10_linear)" stroke-linecap="round" stroke-linejoin="round" stroke-dasharray="2 2"/>
<path fill-rule="evenodd" clip-rule="evenodd" d="M939.971 250.986C953.784 244.576 969.765 244.809 983.385 251.621L1264.59 392.263C1281.53 400.733 1292.22 418.045 1292.22 436.982L1292.22 607.823C1292.22 630.334 1277.18 650.069 1255.47 656.035L627.107 828.743C614.966 832.08 602.013 830.714 590.835 824.916L262.1 654.413C225.231 635.29 226.399 582.158 264.072 564.674L939.971 250.986Z" fill="url(#paint11_linear)"/>
<path fill-rule="evenodd" clip-rule="evenodd" d="M470.984 364.435C497.416 331.794 545.287 326.746 577.907 353.161C610.526 379.576 615.542 427.45 589.11 460.091C562.678 492.732 514.807 497.78 482.187 471.365C449.568 444.95 444.552 397.076 470.984 364.435Z" stroke="#FA5A28" stroke-width="2"/>
<path opacity="0.25" fill-rule="evenodd" clip-rule="evenodd" d="M1307.16 438.006L1244.56 445.088C1238.63 445.757 1232.73 443.115 1229.06 438.157L1190.35 385.759C1186.69 380.8 1185.82 374.278 1188.08 368.65L1211.97 309.17C1214.23 303.542 1219.28 299.661 1225.2 298.992L1287.8 291.91C1293.73 291.24 1299.63 293.882 1303.3 298.841L1342.01 351.239C1345.67 356.197 1346.54 362.719 1344.28 368.348L1320.38 427.827C1318.12 433.456 1313.08 437.336 1307.16 438.006V438.006Z" fill="#FA5A28"/>
<path fill-rule="evenodd" clip-rule="evenodd" d="M433.04 436.716C443.821 423.402 463.347 421.343 476.653 432.117C489.958 442.892 492.004 462.419 481.223 475.734C470.441 489.048 450.915 491.106 437.609 480.332C424.304 469.557 422.258 450.03 433.04 436.716Z" fill="white"/>
<defs>
<linearGradient id="paint0_linear" x1="1090.87" y1="264.368" x2="1071.8" y2="255.073" gradientUnits="userSpaceOnUse">
<stop stop-color="#C6426E"/>
<stop offset="1" stop-color="#933671"/>
</linearGradient>
<linearGradient id="paint1_linear" x1="1113.39" y1="143.947" x2="1090.5" y2="132.792" gradientUnits="userSpaceOnUse">
<stop stop-color="#7D6DF2"/>
<stop offset="1" stop-color="#C499FB"/>
</linearGradient>
<linearGradient id="paint2_linear" x1="1032.68" y1="206.038" x2="1025.92" y2="174.068" gradientUnits="userSpaceOnUse">
<stop stop-color="#9033EA"/>
<stop offset="1" stop-color="#483EB7"/>
</linearGradient>
<linearGradient id="paint3_linear" x1="1270.03" y1="221.145" x2="1254.38" y2="205.997" gradientUnits="userSpaceOnUse">
<stop stop-color="#EE7170"/>
<stop offset="1" stop-color="#8F3DDC"/>
</linearGradient>
<linearGradient id="paint4_linear" x1="213.328" y1="300.137" x2="226.681" y2="283.654" gradientUnits="userSpaceOnUse">
<stop stop-color="#C6426E"/>
<stop offset="1" stop-color="#933671"/>
</linearGradient>
<linearGradient id="paint5_linear" x1="325.541" y1="349.175" x2="341.565" y2="329.395" gradientUnits="userSpaceOnUse">
<stop stop-color="#7D6DF2"/>
<stop offset="1" stop-color="#C499FB"/>
</linearGradient>
<linearGradient id="paint6_linear" x1="390.35" y1="281.267" x2="423.015" y2="281.884" gradientUnits="userSpaceOnUse">
<stop stop-color="#9033EA"/>
<stop offset="1" stop-color="#483EB7"/>
</linearGradient>
<linearGradient id="paint7_linear" x1="215.114" y1="484.511" x2="233.399" y2="472.675" gradientUnits="userSpaceOnUse">
<stop stop-color="#EE7170"/>
<stop offset="1" stop-color="#8F3DDC"/>
</linearGradient>
<linearGradient id="paint8_linear" x1="820.951" y1="206.903" x2="812.324" y2="226.283" gradientUnits="userSpaceOnUse">
<stop stop-color="#C6426E"/>
<stop offset="1" stop-color="#933671"/>
</linearGradient>
<linearGradient id="paint9_linear" x1="699.818" y1="228.574" x2="689.465" y2="251.829" gradientUnits="userSpaceOnUse">
<stop stop-color="#7D6DF2"/>
<stop offset="1" stop-color="#C499FB"/>
</linearGradient>
<linearGradient id="paint10_linear" x1="654.774" y1="340.902" x2="623.061" y2="348.775" gradientUnits="userSpaceOnUse">
<stop stop-color="#9033EA"/>
<stop offset="1" stop-color="#483EB7"/>
</linearGradient>
<linearGradient id="paint11_linear" x1="529.937" y1="3.23532" x2="204.192" y2="607.982" gradientUnits="userSpaceOnUse">
<stop stop-color="#9839C3"/>
<stop offset="1" stop-color="#F94F24"/>
</linearGradient>
</defs>
</svg>
