<svg width="66" height="65" viewBox="0 0 66 65" fill="none" xmlns="http://www.w3.org/2000/svg">
<g filter="url(#filter0_d)">
<rect x="1" width="60" height="60" rx="30" fill="white"/>
</g>
<path fill-rule="evenodd" clip-rule="evenodd" d="M44.8816 15.4047C45.2068 15.4742 45.5272 15.7947 45.5969 16.1188C46.0044 18.0057 46.0044 19.4824 45.9989 20.9592C45.9989 26.976 42.7506 30.6143 38.4969 33.3279V39.4473C38.4969 40.4059 37.8008 41.5311 36.9437 41.9586L31.1588 44.8526C30.9612 44.9419 30.7481 44.992 30.5315 45C29.7548 44.9999 29.1251 44.3704 29.1249 43.5938V37.5092L27.808 38.8257C27.0392 39.5966 25.8087 39.4812 25.155 38.8257L22.1724 35.8429C21.4109 35.0816 21.5064 33.8572 22.1724 33.1915L23.4892 31.875H17.4066C16.6299 31.8749 16.0003 31.2454 16 30.4688C16.0078 30.2521 16.0579 30.0391 16.1474 29.8416L19.044 24.0518C19.4735 23.1958 20.599 22.5009 21.5569 22.5H27.6632C30.3712 18.2346 33.9986 15 40.0473 15C41.518 15 42.9951 15 44.8816 15.4047ZM36.1592 22.4996C36.159 23.794 37.208 24.8434 38.5024 24.8438C39.7967 24.8433 40.8459 23.7943 40.8467 22.5C40.8467 21.2057 39.7975 20.1564 38.5031 20.1562C37.2088 20.1561 36.1594 21.2053 36.1592 22.4996Z" fill="white"/>
<path d="M45.5969 16.1188L44.6192 16.329L44.6194 16.3299L45.5969 16.1188ZM44.8816 15.4047L44.6719 16.3824L44.6724 16.3825L44.8816 15.4047ZM45.9989 20.9592L44.9989 20.9554V20.9592H45.9989ZM38.4969 33.3279L37.9591 32.4849L37.4969 32.7797V33.3279H38.4969ZM36.9437 41.9586L36.4973 41.0638L36.4963 41.0643L36.9437 41.9586ZM31.1588 44.8526L31.5707 45.7638L31.5886 45.7557L31.6062 45.7469L31.1588 44.8526ZM30.5315 45L30.5313 46L30.5499 46L30.5684 45.9993L30.5315 45ZM29.1249 43.5938H28.1249V43.5941L29.1249 43.5938ZM29.1249 37.5092H30.1249V35.0954L28.4178 36.802L29.1249 37.5092ZM27.808 38.8257L27.101 38.1185L27.0999 38.1195L27.808 38.8257ZM25.155 38.8257L25.8631 38.1196L25.8621 38.1186L25.155 38.8257ZM22.1724 35.8429L22.8795 35.1358L22.8794 35.1357L22.1724 35.8429ZM22.1724 33.1915L22.8793 33.8988L22.8794 33.8987L22.1724 33.1915ZM23.4892 31.875L24.1962 32.5822L25.9039 30.875H23.4892V31.875ZM17.4066 31.875L17.4065 32.875H17.4066V31.875ZM16 30.4688L15.0006 30.4327L15 30.4509L15 30.4691L16 30.4688ZM16.1474 29.8416L15.2531 29.3942L15.2445 29.4113L15.2366 29.4287L16.1474 29.8416ZM19.044 24.0518L18.1502 23.6034L18.1497 23.6044L19.044 24.0518ZM21.5569 22.5V21.5L21.5559 21.5L21.5569 22.5ZM27.6632 22.5V23.5H28.2129L28.5075 23.036L27.6632 22.5ZM38.5024 24.8438L38.5021 25.8438H38.5027L38.5024 24.8438ZM36.1592 22.4996L35.1592 22.4995L36.1592 22.4996ZM40.8467 22.5L41.8467 22.5006V22.5H40.8467ZM46.5745 15.9085C46.4906 15.5183 46.2756 15.1923 46.0418 14.9588C45.8079 14.7252 45.4816 14.5104 45.0909 14.4268L44.6724 16.3825C44.6348 16.3745 44.6169 16.3638 44.6164 16.3635C44.6151 16.3628 44.6205 16.366 44.6283 16.3738C44.6361 16.3816 44.6393 16.3869 44.6385 16.3856C44.6382 16.385 44.6274 16.3669 44.6192 16.329L46.5745 15.9085ZM46.9989 20.9629C47.0044 19.4792 47.0065 17.9087 46.5744 15.9077L44.6194 16.3299C45.0023 18.1027 45.0044 19.4857 44.9989 20.9554L46.9989 20.9629ZM39.0347 34.171C43.4518 31.3532 46.9989 27.4429 46.9989 20.9592H44.9989C44.9989 26.5092 42.0495 29.8754 37.9591 32.4849L39.0347 34.171ZM39.4969 39.4473V33.3279H37.4969V39.4473H39.4969ZM37.39 42.8535C38.0218 42.5384 38.5374 42.0017 38.8922 41.4281C39.247 40.8545 39.4969 40.1535 39.4969 39.4473H37.4969C37.4969 39.6997 37.3987 40.0406 37.1912 40.3761C36.9837 40.7116 36.7227 40.9513 36.4973 41.0638L37.39 42.8535ZM31.6062 45.7469L37.3911 42.8529L36.4963 41.0643L30.7114 43.9583L31.6062 45.7469ZM30.5684 45.9993C30.9146 45.9865 31.255 45.9065 31.5707 45.7638L30.7469 43.9414C30.6674 43.9773 30.5817 43.9975 30.4945 44.0007L30.5684 45.9993ZM28.1249 43.5941C28.1253 44.9229 29.2026 45.9998 30.5313 46L30.5316 44C30.307 44 30.1249 43.818 30.1249 43.5934L28.1249 43.5941ZM28.1249 37.5092V43.5938H30.1249V37.5092H28.1249ZM28.515 39.5329L29.8319 38.2164L28.4178 36.802L27.101 38.1185L28.515 39.5329ZM24.4469 39.5318C25.4512 40.5389 27.3175 40.7336 28.516 39.5318L27.0999 38.1195C26.7608 38.4595 26.1662 38.4235 25.8631 38.1196L24.4469 39.5318ZM21.4652 36.55L24.4479 39.5328L25.8621 38.1186L22.8795 35.1358L21.4652 36.55ZM21.4654 32.4843C20.442 33.5073 20.2807 35.3658 21.4654 36.5501L22.8794 35.1357C22.541 34.7974 22.5708 34.2072 22.8793 33.8988L21.4654 32.4843ZM22.7822 31.1678L21.4653 32.4843L22.8794 33.8987L24.1962 32.5822L22.7822 31.1678ZM17.4066 32.875H23.4892V30.875H17.4066V32.875ZM15 30.4691C15.0005 31.7979 16.0777 32.8748 17.4065 32.875L17.4067 30.875C17.1821 30.875 17.0001 30.693 17 30.4684L15 30.4691ZM15.2366 29.4287C15.0933 29.7448 15.0132 30.0859 15.0006 30.4327L16.9994 30.5048C17.0025 30.4183 17.0224 30.3333 17.0582 30.2545L15.2366 29.4287ZM18.1497 23.6044L15.2531 29.3942L17.0417 30.289L19.9383 24.4992L18.1497 23.6044ZM21.5559 21.5C20.8508 21.5007 20.1504 21.7502 19.5769 22.1044C19.0034 22.4585 18.4665 22.973 18.1502 23.6034L19.9378 24.5003C20.051 24.2747 20.2916 24.0136 20.6277 23.8061C20.9638 23.5986 21.3051 23.5002 21.5579 23.5L21.5559 21.5ZM27.6632 21.5H21.5569V23.5H27.6632V21.5ZM40.0473 14C33.5332 14 29.633 17.5316 26.819 21.964L28.5075 23.036C31.1095 18.9375 34.4639 16 40.0473 16V14ZM45.0914 14.4269C43.092 13.9981 41.5217 14 40.0473 14V16C41.5142 16 42.8981 16.0019 44.6719 16.3824L45.0914 14.4269ZM38.5026 23.8438C37.7605 23.8436 37.1591 23.2419 37.1592 22.4998L35.1592 22.4995C35.1589 24.3461 36.6555 25.8433 38.5021 25.8438L38.5026 23.8438ZM39.8467 22.4994C39.8462 23.2418 39.2444 23.8435 38.502 23.8438L38.5027 25.8438C40.349 25.8431 41.8456 24.3468 41.8467 22.5006L39.8467 22.4994ZM38.503 21.1562C39.2451 21.1563 39.8467 21.7579 39.8467 22.5H41.8467C41.8467 20.6534 40.3498 19.1564 38.5032 19.1562L38.503 21.1562ZM37.1592 22.4998C37.1593 21.7577 37.7609 21.1562 38.503 21.1562L38.5032 19.1562C36.6566 19.1561 35.1595 20.6529 35.1592 22.4995L37.1592 22.4998Z" fill="#FA6400"/>
<defs>
<filter id="filter0_d" x="-4" y="-5" width="70" height="70" filterUnits="userSpaceOnUse" color-interpolation-filters="sRGB">
<feFlood flood-opacity="0" result="BackgroundImageFix"/>
<feColorMatrix in="SourceAlpha" type="matrix" values="0 0 0 0 0 0 0 0 0 0 0 0 0 0 0 0 0 0 127 0"/>
<feOffset/>
<feGaussianBlur stdDeviation="2.5"/>
<feColorMatrix type="matrix" values="0 0 0 0 0.392157 0 0 0 0 0.392157 0 0 0 0 0.392157 0 0 0 0.239216 0"/>
<feBlend mode="normal" in2="BackgroundImageFix" result="effect1_dropShadow"/>
<feBlend mode="normal" in="SourceGraphic" in2="effect1_dropShadow" result="shape"/>
</filter>
</defs>
</svg>
