<?xml version="1.0" encoding="UTF-8"?>
<svg width="635px" height="478px" viewBox="0 0 635 478" version="1.1" xmlns="http://www.w3.org/2000/svg" xmlns:xlink="http://www.w3.org/1999/xlink">
    <!-- Generator: Sketch 52.5 (67469) - http://www.bohemiancoding.com/sketch -->
    <title>Use Webiny for</title>
    <desc>Created with Sketch.</desc>
    <defs>
        <filter x="-15.0%" y="-15.0%" width="130.0%" height="130.0%" filterUnits="objectBoundingBox" id="filter-1">
            <feOffset dx="0" dy="2" in="SourceAlpha" result="shadowOffsetOuter1"></feOffset>
            <feGaussianBlur stdDeviation="2" in="shadowOffsetOuter1" result="shadowBlurOuter1"></feGaussianBlur>
            <feColorMatrix values="0 0 0 0 0.767963435   0 0 0 0 0.767963435   0 0 0 0 0.767963435  0 0 0 0.5 0" type="matrix" in="shadowBlurOuter1" result="shadowMatrixOuter1"></feColorMatrix>
            <feMerge>
                <feMergeNode in="shadowMatrixOuter1"></feMergeNode>
                <feMergeNode in="SourceGraphic"></feMergeNode>
            </feMerge>
        </filter>
        <filter x="-15.0%" y="-15.0%" width="130.0%" height="130.0%" filterUnits="objectBoundingBox" id="filter-2">
            <feOffset dx="0" dy="2" in="SourceAlpha" result="shadowOffsetOuter1"></feOffset>
            <feGaussianBlur stdDeviation="2" in="shadowOffsetOuter1" result="shadowBlurOuter1"></feGaussianBlur>
            <feColorMatrix values="0 0 0 0 0.767963435   0 0 0 0 0.767963435   0 0 0 0 0.767963435  0 0 0 0.5 0" type="matrix" in="shadowBlurOuter1" result="shadowMatrixOuter1"></feColorMatrix>
            <feMerge>
                <feMergeNode in="shadowMatrixOuter1"></feMergeNode>
                <feMergeNode in="SourceGraphic"></feMergeNode>
            </feMerge>
        </filter>
        <filter x="-15.0%" y="-15.0%" width="130.0%" height="130.0%" filterUnits="objectBoundingBox" id="filter-3">
            <feOffset dx="0" dy="2" in="SourceAlpha" result="shadowOffsetOuter1"></feOffset>
            <feGaussianBlur stdDeviation="2" in="shadowOffsetOuter1" result="shadowBlurOuter1"></feGaussianBlur>
            <feColorMatrix values="0 0 0 0 0.767963435   0 0 0 0 0.767963435   0 0 0 0 0.767963435  0 0 0 0.5 0" type="matrix" in="shadowBlurOuter1" result="shadowMatrixOuter1"></feColorMatrix>
            <feMerge>
                <feMergeNode in="shadowMatrixOuter1"></feMergeNode>
                <feMergeNode in="SourceGraphic"></feMergeNode>
            </feMerge>
        </filter>
    </defs>
    <g id="Home-v1" stroke="none" stroke-width="1" fill="none" fill-rule="evenodd">
        <g id="Main-page" transform="translate(-458.000000, -785.000000)">
            <g id="Use-Webiny-for" transform="translate(458.000000, 785.000000)">
                <g id="blob-shape" fill="#FA5A28" fill-opacity="0.1">
                    <path d="M483.185199,94.8039637 C540.987914,143.74465 605.609181,184.012303 626.529735,240.851644 C647.450289,297.84586 624.515163,371.721516 579.26478,416.015934 C534.014397,460.465228 466.293789,475.333285 409.420876,477.501543 C352.70293,479.669801 306.677711,468.983386 235.392861,468.673634 C164.108011,468.518759 67.5635287,478.585672 25.7224209,440.486277 C-16.2736539,402.386882 -3.41138741,316.12118 39.5144898,263.153728 C82.440367,210.186277 155.274888,190.671953 207.653756,140.802013 C260.187591,90.932074 275.623793,13.305918 317,2 C358.376207,-9.15104237 425.537451,45.8632777 483.185199,94.8039637 Z" id="Path"></path>
                </g>
                <g id="Box" filter="url(#filter-1)" transform="translate(277.000000, 83.000000)">
                    <rect id="Rectangle" fill="#FA5A28" fill-rule="nonzero" x="0" y="0" width="80" height="80" rx="5"></rect>
                    <path d="M30.5,58 L30.5,52.05 L37.4,52.05 L37.4,33.7 L31.45,33.7 L31.45,29.15 C34.9,28.5 37.1,27.6 39.35,26.25 L44.75,26.25 L44.75,52.05 L50.7,52.05 L50.7,58 L30.5,58 Z" id="1" fill="#FFFFFF"></path>
                </g>
                <g id="Box-Copy" filter="url(#filter-2)" transform="translate(277.000000, 199.000000)">
                    <rect id="Rectangle" fill="#FA5A28" fill-rule="nonzero" x="0" y="0" width="80" height="80" rx="5"></rect>
                    <path d="M28.85,58 L28.85,53.8 C36.95,46.15 42.65,40.7 42.65,36.2 C42.65,33.1 40.9,31.4 38.15,31.4 C35.85,31.4 34.1,32.95 32.5,34.65 L28.5,30.7 C31.65,27.35 34.6,25.65 39.15,25.65 C45.4,25.65 49.65,29.65 49.65,35.75 C49.65,41.1 44.65,46.8 39.5,52.2 C41.1,52 43.3,51.8 44.8,51.8 L51.2,51.8 L51.2,58 L28.85,58 Z" id="2" fill="#FFFFFF"></path>
                </g>
                <g id="Box-Copy-2" filter="url(#filter-3)" transform="translate(277.000000, 315.000000)">
                    <rect id="Rectangle" fill="#FA5A28" fill-rule="nonzero" x="0" y="0" width="80" height="80" rx="5"></rect>
                    <path d="M39.15,58.6 C34,58.6 30.4,56.8 28.1,54.1 L31.5,49.45 C33.4,51.3 35.75,52.65 38.45,52.65 C41.55,52.65 43.6,51.3 43.6,48.9 C43.6,46.1 41.95,44.35 35.05,44.35 L35.05,39.15 C40.75,39.15 42.55,37.45 42.55,34.9 C42.55,32.7 41.15,31.4 38.65,31.4 C36.4,31.4 34.7,32.45 32.7,34.2 L29,29.7 C31.9,27.2 35.1,25.65 39,25.65 C45.55,25.65 49.95,28.8 49.95,34.35 C49.95,37.65 48.05,39.95 44.65,41.4 L44.65,41.6 C48.3,42.65 50.95,45.25 50.95,49.35 C50.95,55.25 45.55,58.6 39.15,58.6 Z" id="3" fill="#FFFFFF"></path>
                </g>
                <path d="M145.71,110.54 C138.33,110.54 132.84,104.87 132.84,95.24 C132.84,85.745 138.42,79.94 145.935,79.94 C149.535,79.94 152.325,81.65 154.035,83.585 L152.01,86.015 C150.435,84.35 148.5,83.225 145.98,83.225 C140.4,83.225 136.71,87.815 136.71,95.15 C136.71,102.575 140.265,107.255 145.845,107.255 C148.68,107.255 150.795,105.995 152.685,103.925 L154.755,106.265 C152.415,108.965 149.535,110.54 145.71,110.54 Z M159.885,110 L159.885,88.13 L162.945,88.13 L163.26,92.09 L163.395,92.09 C164.88,89.345 167.13,87.59 169.605,87.59 C170.55,87.59 171.225,87.725 171.945,88.04 L171.225,91.28 C170.505,91.055 170.01,90.92 169.11,90.92 C167.265,90.92 165.06,92.27 163.575,95.96 L163.575,110 L159.885,110 Z M183.915,110.54 C178.065,110.54 173.43,106.265 173.43,99.11 C173.43,91.955 178.245,87.59 183.24,87.59 C188.82,87.59 191.97,91.595 191.97,97.85 C191.97,98.615 191.925,99.425 191.835,99.965 L177.075,99.965 C177.345,104.6 180.18,107.57 184.365,107.57 C186.435,107.57 188.19,106.895 189.81,105.86 L191.115,108.29 C189.225,109.505 186.885,110.54 183.915,110.54 Z M177.03,97.31 L188.73,97.31 C188.73,92.9 186.75,90.515 183.33,90.515 C180.27,90.515 177.48,92.99 177.03,97.31 Z M201.78,110.54 C198.135,110.54 195.39,108.245 195.39,104.33 C195.39,99.56 199.485,97.175 208.8,96.14 C208.8,93.35 207.9,90.65 204.3,90.65 C201.78,90.65 199.485,91.82 197.775,92.99 L196.335,90.425 C198.36,89.12 201.42,87.59 204.93,87.59 C210.285,87.59 212.535,91.145 212.535,96.59 L212.535,110 L209.475,110 L209.16,107.39 L209.025,107.39 C206.955,109.1 204.525,110.54 201.78,110.54 Z M202.86,107.57 C204.975,107.57 206.685,106.535 208.8,104.645 L208.8,98.57 C201.51,99.47 198.99,101.27 198.99,104.06 C198.99,106.535 200.7,107.57 202.86,107.57 Z M225.675,110.54 C220.995,110.54 219.42,107.57 219.42,103.25 L219.42,91.145 L216.18,91.145 L216.18,88.355 L219.6,88.13 L220.05,82.01 L223.155,82.01 L223.155,88.13 L229.05,88.13 L229.05,91.145 L223.155,91.145 L223.155,103.295 C223.155,105.995 224.01,107.525 226.53,107.525 C227.295,107.525 228.285,107.21 229.005,106.94 L229.725,109.73 C228.51,110.135 227.025,110.54 225.675,110.54 Z M242.235,110.54 C236.385,110.54 231.75,106.265 231.75,99.11 C231.75,91.955 236.565,87.59 241.56,87.59 C247.14,87.59 250.29,91.595 250.29,97.85 C250.29,98.615 250.245,99.425 250.155,99.965 L235.395,99.965 C235.665,104.6 238.5,107.57 242.685,107.57 C244.755,107.57 246.51,106.895 248.13,105.86 L249.435,108.29 C247.545,109.505 245.205,110.54 242.235,110.54 Z M235.35,97.31 L247.05,97.31 C247.05,92.9 245.07,90.515 241.65,90.515 C238.59,90.515 235.8,92.99 235.35,97.31 Z M94.14,166 L88.065,144.13 L91.845,144.13 L95.085,156.775 C95.58,158.845 95.985,160.825 96.39,162.85 L96.57,162.85 C97.065,160.825 97.515,158.8 98.055,156.775 L101.43,144.13 L105.03,144.13 L108.45,156.775 C108.99,158.845 109.485,160.825 109.98,162.85 L110.16,162.85 C110.655,160.825 111.06,158.845 111.51,156.775 L114.705,144.13 L118.215,144.13 L112.365,166 L107.865,166 L104.715,154.255 C104.175,152.185 103.77,150.16 103.23,147.955 L103.05,147.955 C102.555,150.16 102.105,152.23 101.52,154.3 L98.46,166 L94.14,166 Z M131.67,166.54 C125.82,166.54 121.185,162.265 121.185,155.11 C121.185,147.955 126,143.59 130.995,143.59 C136.575,143.59 139.725,147.595 139.725,153.85 C139.725,154.615 139.68,155.425 139.59,155.965 L124.83,155.965 C125.1,160.6 127.935,163.57 132.12,163.57 C134.19,163.57 135.945,162.895 137.565,161.86 L138.87,164.29 C136.98,165.505 134.64,166.54 131.67,166.54 Z M124.785,153.31 L136.485,153.31 C136.485,148.9 134.505,146.515 131.085,146.515 C128.025,146.515 125.235,148.99 124.785,153.31 Z M154.8,166.54 C152.775,166.54 150.48,165.505 148.545,163.75 L148.41,163.75 L148.095,166 L145.125,166 L145.125,133.96 L148.815,133.96 L148.815,142.69 L148.725,146.65 C150.705,144.895 153.135,143.59 155.565,143.59 C161.235,143.59 164.25,147.955 164.25,154.705 C164.25,162.175 159.795,166.54 154.8,166.54 Z M154.17,163.435 C157.77,163.435 160.425,160.15 160.425,154.75 C160.425,149.935 158.805,146.695 154.665,146.695 C152.82,146.695 150.885,147.73 148.815,149.665 L148.815,161.14 C150.75,162.805 152.73,163.435 154.17,163.435 Z M175.725,166.54 C172.62,166.54 169.65,165.235 167.58,163.525 L169.425,161.05 C171.315,162.58 173.25,163.66 175.86,163.66 C178.74,163.66 180.18,162.13 180.18,160.24 C180.18,157.99 177.57,157 175.185,156.1 C172.08,154.975 168.66,153.49 168.66,149.8 C168.66,146.29 171.45,143.59 176.175,143.59 C178.92,143.59 181.305,144.715 182.97,146.065 L181.215,148.405 C179.73,147.28 178.155,146.47 176.22,146.47 C173.475,146.47 172.215,147.955 172.215,149.62 C172.215,151.69 174.6,152.455 177.075,153.4 C180.225,154.57 183.735,155.875 183.735,160.015 C183.735,163.57 180.9,166.54 175.725,166.54 Z M188.865,166 L188.865,144.13 L192.555,144.13 L192.555,166 L188.865,166 Z M190.755,139.63 C189.315,139.63 188.19,138.64 188.19,137.245 C188.19,135.805 189.315,134.86 190.755,134.86 C192.195,134.86 193.32,135.805 193.32,137.245 C193.32,138.64 192.195,139.63 190.755,139.63 Z M206.82,166.54 C202.14,166.54 200.565,163.57 200.565,159.25 L200.565,147.145 L197.325,147.145 L197.325,144.355 L200.745,144.13 L201.195,138.01 L204.3,138.01 L204.3,144.13 L210.195,144.13 L210.195,147.145 L204.3,147.145 L204.3,159.295 C204.3,161.995 205.155,163.525 207.675,163.525 C208.44,163.525 209.43,163.21 210.15,162.94 L210.87,165.73 C209.655,166.135 208.17,166.54 206.82,166.54 Z M223.38,166.54 C217.53,166.54 212.895,162.265 212.895,155.11 C212.895,147.955 217.71,143.59 222.705,143.59 C228.285,143.59 231.435,147.595 231.435,153.85 C231.435,154.615 231.39,155.425 231.3,155.965 L216.54,155.965 C216.81,160.6 219.645,163.57 223.83,163.57 C225.9,163.57 227.655,162.895 229.275,161.86 L230.58,164.29 C228.69,165.505 226.35,166.54 223.38,166.54 Z M216.495,153.31 L228.195,153.31 C228.195,148.9 226.215,146.515 222.795,146.515 C219.735,146.515 216.945,148.99 216.495,153.31 Z M242.55,166.54 C239.445,166.54 236.475,165.235 234.405,163.525 L236.25,161.05 C238.14,162.58 240.075,163.66 242.685,163.66 C245.565,163.66 247.005,162.13 247.005,160.24 C247.005,157.99 244.395,157 242.01,156.1 C238.905,154.975 235.485,153.49 235.485,149.8 C235.485,146.29 238.275,143.59 243,143.59 C245.745,143.59 248.13,144.715 249.795,146.065 L248.04,148.405 C246.555,147.28 244.98,146.47 243.045,146.47 C240.3,146.47 239.04,147.955 239.04,149.62 C239.04,151.69 241.425,152.455 243.9,153.4 C247.05,154.57 250.56,155.875 250.56,160.015 C250.56,163.57 247.725,166.54 242.55,166.54 Z" id="Create-websites" fill="#000000"></path>
                <path d="M387.05,227 L387.05,197.48 L391.55,197.48 L397.22,213.23 C397.94,215.255 398.615,217.37 399.335,219.395 L399.515,219.395 C400.235,217.37 400.82,215.255 401.54,213.23 L407.12,197.48 L411.665,197.48 L411.665,227 L408.155,227 L408.155,210.755 C408.155,208.145 408.47,204.635 408.65,202.025 L408.47,202.025 L406.13,208.73 L400.55,224.03 L398.075,224.03 L392.495,208.73 L390.155,202.025 L389.975,202.025 C390.155,204.635 390.425,208.145 390.425,210.755 L390.425,227 L387.05,227 Z M424.445,227.54 C420.8,227.54 418.055,225.245 418.055,221.33 C418.055,216.56 422.15,214.175 431.465,213.14 C431.465,210.35 430.565,207.65 426.965,207.65 C424.445,207.65 422.15,208.82 420.44,209.99 L419,207.425 C421.025,206.12 424.085,204.59 427.595,204.59 C432.95,204.59 435.2,208.145 435.2,213.59 L435.2,227 L432.14,227 L431.825,224.39 L431.69,224.39 C429.62,226.1 427.19,227.54 424.445,227.54 Z M425.525,224.57 C427.64,224.57 429.35,223.535 431.465,221.645 L431.465,215.57 C424.175,216.47 421.655,218.27 421.655,221.06 C421.655,223.535 423.365,224.57 425.525,224.57 Z M442.085,227 L442.085,194.96 L445.73,194.96 L445.73,216.65 L445.865,216.65 L455.18,205.13 L459.275,205.13 L451.94,213.905 L460.265,227 L456.215,227 L449.825,216.47 L445.73,221.24 L445.73,227 L442.085,227 Z M472.415,227.54 C466.565,227.54 461.93,223.265 461.93,216.11 C461.93,208.955 466.745,204.59 471.74,204.59 C477.32,204.59 480.47,208.595 480.47,214.85 C480.47,215.615 480.425,216.425 480.335,216.965 L465.575,216.965 C465.845,221.6 468.68,224.57 472.865,224.57 C474.935,224.57 476.69,223.895 478.31,222.86 L479.615,225.29 C477.725,226.505 475.385,227.54 472.415,227.54 Z M465.53,214.31 L477.23,214.31 C477.23,209.9 475.25,207.515 471.83,207.515 C468.77,207.515 465.98,209.99 465.53,214.31 Z M498.335,227 L492.26,205.13 L496.04,205.13 L499.28,217.775 C499.775,219.845 500.18,221.825 500.585,223.85 L500.765,223.85 C501.26,221.825 501.71,219.8 502.25,217.775 L505.625,205.13 L509.225,205.13 L512.645,217.775 C513.185,219.845 513.68,221.825 514.175,223.85 L514.355,223.85 C514.85,221.825 515.255,219.845 515.705,217.775 L518.9,205.13 L522.41,205.13 L516.56,227 L512.06,227 L508.91,215.255 C508.37,213.185 507.965,211.16 507.425,208.955 L507.245,208.955 C506.75,211.16 506.3,213.23 505.715,215.3 L502.655,227 L498.335,227 Z M535.865,227.54 C530.015,227.54 525.38,223.265 525.38,216.11 C525.38,208.955 530.195,204.59 535.19,204.59 C540.77,204.59 543.92,208.595 543.92,214.85 C543.92,215.615 543.875,216.425 543.785,216.965 L529.025,216.965 C529.295,221.6 532.13,224.57 536.315,224.57 C538.385,224.57 540.14,223.895 541.76,222.86 L543.065,225.29 C541.175,226.505 538.835,227.54 535.865,227.54 Z M528.98,214.31 L540.68,214.31 C540.68,209.9 538.7,207.515 535.28,207.515 C532.22,207.515 529.43,209.99 528.98,214.31 Z M558.995,227.54 C556.97,227.54 554.675,226.505 552.74,224.75 L552.605,224.75 L552.29,227 L549.32,227 L549.32,194.96 L553.01,194.96 L553.01,203.69 L552.92,207.65 C554.9,205.895 557.33,204.59 559.76,204.59 C565.43,204.59 568.445,208.955 568.445,215.705 C568.445,223.175 563.99,227.54 558.995,227.54 Z M558.365,224.435 C561.965,224.435 564.62,221.15 564.62,215.75 C564.62,210.935 563,207.695 558.86,207.695 C557.015,207.695 555.08,208.73 553.01,210.665 L553.01,222.14 C554.945,223.805 556.925,224.435 558.365,224.435 Z M391.73,283.54 C388.085,283.54 385.34,281.245 385.34,277.33 C385.34,272.56 389.435,270.175 398.75,269.14 C398.75,266.35 397.85,263.65 394.25,263.65 C391.73,263.65 389.435,264.82 387.725,265.99 L386.285,263.425 C388.31,262.12 391.37,260.59 394.88,260.59 C400.235,260.59 402.485,264.145 402.485,269.59 L402.485,283 L399.425,283 L399.11,280.39 L398.975,280.39 C396.905,282.1 394.475,283.54 391.73,283.54 Z M392.81,280.57 C394.925,280.57 396.635,279.535 398.75,277.645 L398.75,271.57 C391.46,272.47 388.94,274.27 388.94,277.06 C388.94,279.535 390.65,280.57 392.81,280.57 Z M409.37,292.225 L409.37,261.13 L412.43,261.13 L412.745,263.65 L412.88,263.65 C414.86,261.985 417.29,260.59 419.855,260.59 C425.48,260.59 428.495,264.955 428.495,271.75 C428.495,279.175 424.04,283.54 419.045,283.54 C417.02,283.54 414.995,282.595 412.97,281.02 L413.06,284.845 L413.06,292.225 L409.37,292.225 Z M418.415,280.435 C422.015,280.435 424.67,277.15 424.67,271.75 C424.67,266.935 423.05,263.695 418.91,263.695 C417.065,263.695 415.22,264.73 413.06,266.665 L413.06,278.14 C415.04,279.805 416.975,280.435 418.415,280.435 Z M434.345,292.225 L434.345,261.13 L437.405,261.13 L437.72,263.65 L437.855,263.65 C439.835,261.985 442.265,260.59 444.83,260.59 C450.455,260.59 453.47,264.955 453.47,271.75 C453.47,279.175 449.015,283.54 444.02,283.54 C441.995,283.54 439.97,282.595 437.945,281.02 L438.035,284.845 L438.035,292.225 L434.345,292.225 Z M443.39,280.435 C446.99,280.435 449.645,277.15 449.645,271.75 C449.645,266.935 448.025,263.695 443.885,263.695 C442.04,263.695 440.195,264.73 438.035,266.665 L438.035,278.14 C440.015,279.805 441.95,280.435 443.39,280.435 Z M463.235,283.54 C460.445,283.54 459.32,281.785 459.32,278.59 L459.32,250.96 L463.01,250.96 L463.01,278.86 C463.01,280.03 463.505,280.48 464.045,280.48 C464.27,280.48 464.45,280.48 464.855,280.39 L465.35,283.18 C464.855,283.405 464.225,283.54 463.235,283.54 Z M470.795,283 L470.795,261.13 L474.485,261.13 L474.485,283 L470.795,283 Z M472.685,256.63 C471.245,256.63 470.12,255.64 470.12,254.245 C470.12,252.805 471.245,251.86 472.685,251.86 C474.125,251.86 475.25,252.805 475.25,254.245 C475.25,255.64 474.125,256.63 472.685,256.63 Z M490.505,283.54 C484.7,283.54 480.245,279.355 480.245,272.11 C480.245,264.775 485.15,260.59 490.775,260.59 C493.655,260.59 495.635,261.76 497.165,263.155 L495.275,265.585 C494.015,264.46 492.665,263.65 490.91,263.65 C486.95,263.65 484.07,267.07 484.07,272.11 C484.07,277.105 486.815,280.48 490.82,280.48 C492.845,280.48 494.6,279.49 495.95,278.275 L497.57,280.75 C495.59,282.505 493.115,283.54 490.505,283.54 Z M506.975,283.54 C503.33,283.54 500.585,281.245 500.585,277.33 C500.585,272.56 504.68,270.175 513.995,269.14 C513.995,266.35 513.095,263.65 509.495,263.65 C506.975,263.65 504.68,264.82 502.97,265.99 L501.53,263.425 C503.555,262.12 506.615,260.59 510.125,260.59 C515.48,260.59 517.73,264.145 517.73,269.59 L517.73,283 L514.67,283 L514.355,280.39 L514.22,280.39 C512.15,282.1 509.72,283.54 506.975,283.54 Z M508.055,280.57 C510.17,280.57 511.88,279.535 513.995,277.645 L513.995,271.57 C506.705,272.47 504.185,274.27 504.185,277.06 C504.185,279.535 505.895,280.57 508.055,280.57 Z M530.87,283.54 C526.19,283.54 524.615,280.57 524.615,276.25 L524.615,264.145 L521.375,264.145 L521.375,261.355 L524.795,261.13 L525.245,255.01 L528.35,255.01 L528.35,261.13 L534.245,261.13 L534.245,264.145 L528.35,264.145 L528.35,276.295 C528.35,278.995 529.205,280.525 531.725,280.525 C532.49,280.525 533.48,280.21 534.2,279.94 L534.92,282.73 C533.705,283.135 532.22,283.54 530.87,283.54 Z M539.195,283 L539.195,261.13 L542.885,261.13 L542.885,283 L539.195,283 Z M541.085,256.63 C539.645,256.63 538.52,255.64 538.52,254.245 C538.52,252.805 539.645,251.86 541.085,251.86 C542.525,251.86 543.65,252.805 543.65,254.245 C543.65,255.64 542.525,256.63 541.085,256.63 Z M558.77,283.54 C553.415,283.54 548.645,279.355 548.645,272.11 C548.645,264.775 553.415,260.59 558.77,260.59 C564.125,260.59 568.895,264.775 568.895,272.11 C568.895,279.355 564.125,283.54 558.77,283.54 Z M558.77,280.48 C562.55,280.48 565.07,277.105 565.07,272.11 C565.07,267.07 562.55,263.65 558.77,263.65 C555.035,263.65 552.47,267.07 552.47,272.11 C552.47,277.105 555.035,280.48 558.77,280.48 Z M574.655,283 L574.655,261.13 L577.715,261.13 L578.03,264.28 L578.165,264.28 C580.235,262.21 582.485,260.59 585.5,260.59 C590.09,260.59 592.16,263.56 592.16,269.14 L592.16,283 L588.47,283 L588.47,269.635 C588.47,265.54 587.21,263.785 584.33,263.785 C582.08,263.785 580.55,264.955 578.345,267.16 L578.345,283 L574.655,283 Z M604.985,283.54 C601.88,283.54 598.91,282.235 596.84,280.525 L598.685,278.05 C600.575,279.58 602.51,280.66 605.12,280.66 C608,280.66 609.44,279.13 609.44,277.24 C609.44,274.99 606.83,274 604.445,273.1 C601.34,271.975 597.92,270.49 597.92,266.8 C597.92,263.29 600.71,260.59 605.435,260.59 C608.18,260.59 610.565,261.715 612.23,263.065 L610.475,265.405 C608.99,264.28 607.415,263.47 605.48,263.47 C602.735,263.47 601.475,264.955 601.475,266.62 C601.475,268.69 603.86,269.455 606.335,270.4 C609.485,271.57 612.995,272.875 612.995,277.015 C612.995,280.57 610.16,283.54 604.985,283.54 Z" id="Make-web-application" fill="#000000"></path>
                <path d="M156.59,343 L156.59,313.48 L165.365,313.48 C171.35,313.48 175.49,315.505 175.49,320.68 C175.49,323.605 173.96,326.215 171.17,327.115 L171.17,327.295 C174.725,327.97 177.2,330.31 177.2,334.36 C177.2,340.165 172.61,343 165.995,343 L156.59,343 Z M160.325,326.035 L164.69,326.035 C169.73,326.035 171.8,324.19 171.8,321.175 C171.8,317.755 169.46,316.45 164.87,316.45 L160.325,316.45 L160.325,326.035 Z M160.325,340.03 L165.455,340.03 C170.54,340.03 173.51,338.185 173.51,334.225 C173.51,330.58 170.63,328.915 165.455,328.915 L160.325,328.915 L160.325,340.03 Z M189.08,343.54 C184.445,343.54 182.375,340.57 182.375,334.99 L182.375,321.13 L186.11,321.13 L186.11,334.495 C186.11,338.59 187.325,340.345 190.205,340.345 C192.455,340.345 194.03,339.22 196.1,336.655 L196.1,321.13 L199.79,321.13 L199.79,343 L196.73,343 L196.415,339.58 L196.28,339.58 C194.255,341.965 192.095,343.54 189.08,343.54 Z M207.17,343 L207.17,321.13 L210.86,321.13 L210.86,343 L207.17,343 Z M209.06,316.63 C207.62,316.63 206.495,315.64 206.495,314.245 C206.495,312.805 207.62,311.86 209.06,311.86 C210.5,311.86 211.625,312.805 211.625,314.245 C211.625,315.64 210.5,316.63 209.06,316.63 Z M222.155,343.54 C219.365,343.54 218.24,341.785 218.24,338.59 L218.24,310.96 L221.93,310.96 L221.93,338.86 C221.93,340.03 222.425,340.48 222.965,340.48 C223.19,340.48 223.37,340.48 223.775,340.39 L224.27,343.18 C223.775,343.405 223.145,343.54 222.155,343.54 Z M237.185,343.54 C231.695,343.54 228.14,339.4 228.14,332.11 C228.14,325 232.64,320.59 237.635,320.59 C240.155,320.59 241.82,321.535 243.755,323.11 L243.575,319.375 L243.575,310.96 L247.31,310.96 L247.31,343 L244.25,343 L243.935,340.435 L243.8,340.435 C242.09,342.1 239.75,343.54 237.185,343.54 Z M237.995,340.435 C240.02,340.435 241.775,339.445 243.575,337.42 L243.575,325.99 C241.73,324.325 240.065,323.695 238.265,323.695 C234.755,323.695 231.965,327.07 231.965,332.065 C231.965,337.285 234.17,340.435 237.995,340.435 Z M179.495,382.485 L178.1,386.985 L186.965,386.985 L185.57,382.485 C184.49,379.2 183.545,375.96 182.6,372.54 L182.42,372.54 C181.52,375.96 180.575,379.2 179.495,382.485 Z M170.495,399 L180.485,369.48 L184.715,369.48 L194.705,399 L190.7,399 L187.91,390 L177.155,390 L174.32,399 L170.495,399 Z M198.89,399 L198.89,369.48 L207.305,369.48 C213.92,369.48 218.375,371.685 218.375,378.165 C218.375,384.375 213.965,387.3 207.485,387.3 L202.625,387.3 L202.625,399 L198.89,399 Z M202.625,384.24 L207.035,384.24 C212.165,384.24 214.64,382.35 214.64,378.165 C214.64,373.89 212.03,372.495 206.855,372.495 L202.625,372.495 L202.625,384.24 Z M224.36,399 L224.36,369.48 L228.095,369.48 L228.095,399 L224.36,399 Z M241.55,399.54 C238.445,399.54 235.475,398.235 233.405,396.525 L235.25,394.05 C237.14,395.58 239.075,396.66 241.685,396.66 C244.565,396.66 246.005,395.13 246.005,393.24 C246.005,390.99 243.395,390 241.01,389.1 C237.905,387.975 234.485,386.49 234.485,382.8 C234.485,379.29 237.275,376.59 242,376.59 C244.745,376.59 247.13,377.715 248.795,379.065 L247.04,381.405 C245.555,380.28 243.98,379.47 242.045,379.47 C239.3,379.47 238.04,380.955 238.04,382.62 C238.04,384.69 240.425,385.455 242.9,386.4 C246.05,387.57 249.56,388.875 249.56,393.015 C249.56,396.57 246.725,399.54 241.55,399.54 Z" id="Build-APIs" fill="#000000"></path>
            </g>
        </g>
    </g>
</svg>