<svg width="48" height="48" viewBox="0 0 48 48" fill="none" xmlns="http://www.w3.org/2000/svg">
<rect width="48" height="48" rx="4" fill="#FA5A28" fill-opacity="0.1"/>
<path fill-rule="evenodd" clip-rule="evenodd" d="M14.1211 14.921C13.1902 14.921 12.6663 13.8205 13.2373 13.0646L15.9718 9.44478C16.3827 8.90082 17.1632 8.84746 17.6406 9.33067L21.2164 12.9504C21.9299 13.6727 21.4325 14.921 20.4314 14.921L19.711 14.921L19.711 17.7183C19.711 17.8618 19.7668 18.0487 19.8836 18.2315C20.0006 18.4146 20.1471 18.5435 20.2692 18.6019L26.7366 21.6935C27.2891 21.9576 28.0889 22.495 28.7578 23.2751C29.4298 24.0589 30 25.1255 30 26.431L30 30.6468C30 30.9645 29.7495 31.2221 29.4405 31.2221C29.1315 31.2221 28.881 30.9645 28.881 30.6468L28.881 26.431C28.881 25.488 28.4713 24.6809 27.9184 24.036C27.3624 23.3875 26.6924 22.9412 26.2649 22.7369L19.7975 19.6453C19.4493 19.4788 19.1548 19.1862 18.9485 18.8634C18.7419 18.5403 18.5919 18.137 18.5919 17.7183L18.5919 14.921C18.5919 14.2855 19.0929 13.7704 19.711 13.7704L20.4314 13.7704L16.8555 10.1506L14.1211 13.7704L15.0643 13.7704C15.6814 13.7704 16.1833 14.2838 16.1833 14.9203L16.1833 18.2804C16.1833 19.3512 16.6056 20.2325 17.1562 20.9126C17.712 21.5991 18.3788 22.0546 18.7994 22.2556L24.6788 25.0661C25.9036 25.6516 26.1784 26.9816 26.1784 27.5552L26.1784 34.5C26.1784 34.8177 25.9279 35.0753 25.6188 35.0753C25.3098 35.0753 25.0593 34.8177 25.0593 34.5L25.0593 27.5552C25.0593 27.1919 24.8637 26.4234 24.2071 26.1095L18.3276 23.299C17.7683 23.0316 16.9653 22.4752 16.2962 21.6487C15.6219 20.8159 15.0643 19.6829 15.0643 18.2804L15.0643 14.921L14.1211 14.921Z" fill="#FA5A28"/>
<circle cx="18.5" cy="38.5" r="1.5" fill="#FA5A28"/>
<circle cx="23.5" cy="38.5" r="1.5" fill="#FCA489"/>
<circle cx="28.5" cy="38.5" r="1.5" fill="#FED1C3"/>
<path fill-rule="evenodd" clip-rule="evenodd" d="M33.813 13.921C34.7986 13.921 35.3533 12.8205 34.7487 12.0646L31.8534 8.44481C31.4183 7.90084 30.5919 7.84748 30.0864 8.33069L26.3003 11.9505C25.5449 12.6727 26.0714 13.921 27.1315 13.921L27.8943 13.921L27.8943 16.7183C27.8943 16.8618 27.8352 17.0487 27.7115 17.2315C27.5876 17.4146 27.4325 17.5435 27.3032 17.6019L24.813 18.7261C24.5164 18.8601 24.3877 19.2022 24.5256 19.4904C24.6635 19.7785 25.0158 19.9035 25.3125 19.7695L27.8027 18.6453C28.1713 18.4788 28.4832 18.1862 28.7016 17.8634C28.9203 17.5403 29.0791 17.137 29.0791 16.7183L29.0791 13.921C29.0791 13.2855 28.5487 12.7704 27.8943 12.7704L27.1315 12.7704L30.9177 9.15063L33.813 12.7704L32.8143 12.7704C32.1609 12.7704 31.6295 13.2839 31.6295 13.9203L31.6295 17.2805C31.6295 18.3512 31.1823 19.2325 30.5993 19.9126C30.0108 20.5992 29.3048 21.0546 28.8595 21.2556C28.5628 21.3896 28.4341 21.7317 28.572 22.0198C28.71 22.308 29.0623 22.4329 29.359 22.299C29.9513 22.0316 30.8015 21.4752 31.5099 20.6488C32.2239 19.8159 32.8143 18.6829 32.8143 17.2805L32.8143 13.921L33.813 13.921ZM21.6389 35C21.9661 35 22.2313 34.7424 22.2313 34.4247L22.2313 26.5552C22.2313 26.2375 21.966 25.9799 21.6389 25.9799C21.3117 25.9799 21.0465 26.2375 21.0465 26.5552L21.0465 34.4247C21.0465 34.7424 21.3117 35 21.6389 35ZM17.5924 30.2221C17.9196 30.2221 18.1848 29.9645 18.1848 29.6468L18.1848 25.431C18.1848 25.1133 17.9196 24.8557 17.5924 24.8557C17.2652 24.8557 17 25.1133 17 25.431L17 29.6468C17 29.9645 17.2652 30.2221 17.5924 30.2221Z" fill="#FCA489"/>
</svg>
