<svg width="48" height="48" viewBox="0 0 48 48" fill="none" xmlns="http://www.w3.org/2000/svg">
<rect width="48" height="48" rx="4" fill="#E5F5F3"/>
<path fill-rule="evenodd" clip-rule="evenodd" d="M37.5303 18.353C38.8938 18.353 39.9991 17.1796 39.9991 15.7387C39.9991 14.6659 39.3906 13.7441 38.5173 13.3411C38.4948 11.7735 37.2876 10.51 35.8017 10.51C35.2789 10.51 34.7906 10.6664 34.3763 10.9374C33.746 10.0433 32.739 9.46429 31.6042 9.46429C29.6951 9.46429 28.1475 11.103 28.1475 13.1244C28.1475 13.1966 28.1495 13.2683 28.1534 13.3395C27.2782 13.7422 26.666 14.6664 26.666 15.7387C26.666 17.1825 27.7685 18.353 29.1349 18.353H37.5303Z" fill="white"/>
<path fill-rule="evenodd" clip-rule="evenodd" d="M18.8643 27.2419C20.2278 27.2419 21.3331 26.0684 21.3331 24.6275C21.3331 23.5548 20.7245 22.6329 19.8513 22.2299C19.8288 20.6623 18.6215 19.3989 17.1356 19.3989C16.6129 19.3989 16.1246 19.5553 15.7102 19.8263C15.08 18.9321 14.0729 18.3531 12.9382 18.3531C11.0291 18.3531 9.48145 19.9918 9.48145 22.0132C9.48145 22.0854 9.48343 22.1572 9.48733 22.2284C8.61217 22.631 8 23.5552 8 24.6275C8 26.0714 9.10245 27.2419 10.4688 27.2419H18.8643Z" fill="#74E6D7"/>
<path d="M23.2163 26.0875V31.7746L20.12 34.8709" stroke="#74E6D7"/>
<path d="M29.978 26.0875V31.7746L33.0743 34.8709" stroke="#74E6D7"/>
<path d="M26.4401 23.6862V37.3352" stroke="#74E6D7"/>
<path d="M20.6945 35.2499C20.6945 35.6718 20.3526 36.0137 19.9307 36.0137C19.5089 36.0137 19.1669 35.6718 19.1669 35.2499C19.1669 34.8281 19.5089 34.4861 19.9307 34.4861C20.3526 34.4861 20.6945 34.8281 20.6945 35.2499Z" fill="#74E6D7" stroke="#00C2A8"/>
<path d="M33.8385 35.25C33.8385 35.6719 33.4966 36.0138 33.0747 36.0138C32.6529 36.0138 32.3109 35.6719 32.3109 35.25C32.3109 34.8282 32.6529 34.4862 33.0747 34.4862C33.4966 34.4862 33.8385 34.8282 33.8385 35.25Z" fill="#74E6D7" stroke="#00C2A8"/>
<circle cx="26.3763" cy="37.2719" r="0.763798" fill="#74E6D7" stroke="#00C2A8"/>
<path fill-rule="evenodd" clip-rule="evenodd" d="M35.227 29.0196C37.8631 29.0196 40 26.7901 40 24.0524C40 22.0142 38.8235 20.2627 37.1352 19.497C37.0916 16.5185 34.7577 14.1179 31.8849 14.1179C30.8742 14.1179 29.9302 14.4151 29.1292 14.93C27.9107 13.231 25.9638 12.131 23.7699 12.131C20.0789 12.131 17.0869 15.2445 17.0869 19.0851C17.0869 19.2224 17.0907 19.3587 17.0982 19.494C15.4062 20.259 14.2227 22.0149 14.2227 24.0524C14.2227 26.7957 16.3541 29.0196 18.9958 29.0196H35.227Z" fill="#00C2A8"/>
</svg>
