<svg width="48" height="48" viewBox="0 0 48 48" fill="none" xmlns="http://www.w3.org/2000/svg">
<rect y="0.00012207" width="48" height="48" rx="4" fill="#FA5A28" fill-opacity="0.1"/>
<path d="M22.2967 14.6924L16.2888 17.5038C15.9678 17.6065 15.2565 17.8042 14.9792 17.7734C14.6326 17.7349 13.9392 17.5808 13.7852 16.5795" stroke="#F0997D"/>
<path d="M13.8242 27.9408C14.0553 27.6712 14.6868 27.2553 15.3646 27.7482C16.0424 28.2412 19.7037 30.8549 21.4496 32.1002C21.6037 32.2542 22.0427 32.5546 22.5665 32.5238C23.2212 32.4853 24.3061 31.9076 23.5294 30.3671C24.1071 31.0603 24.8238 31.908 25.2031 31.908C26.1037 31.908 27.0923 30.8596 25.7686 28.9687C26.3078 29.7389 27.4665 31.1812 27.9998 30.7546C28.1923 30.6006 29.5282 29.7552 27.9998 27.6977C28.8085 28.3909 29.9214 29.5198 30.3066 29.5198C30.8596 29.5198 31.7711 28.4029 31.1549 27.4401" stroke="#F0997D"/>
<path d="M33.9376 16.8492C33.6715 17.4837 32.7096 18.5192 30.9906 17.586C29.2715 16.6528 26.4678 15.3962 25.2808 14.8846C24.3803 14.598 22.2968 14.2706 21.1671 15.2529C20.0374 16.2353 17.6267 18.1181 16.5626 18.9367C16.1738 19.3051 15.6295 20.2015 16.5626 20.84C17.729 21.6381 21.3514 21.5767 23.3161 18.9367C25.4281 21.2452 29.5171 25.6698 31.2976 27.5936C31.5093 27.7989 32.061 28.071 32.5739 27.5164C33.0867 26.9618 33.6871 26.3411 33.9231 26.1001" stroke="#FA5A28"/>
<rect x="9.70068" y="16.181" width="4.29564" height="12.9006" rx="0.5" fill="#FED1C3" stroke="#FA5A28"/>
<rect x="34.0034" y="16.181" width="4.29564" height="12.9006" rx="0.5" fill="#FED1C3" stroke="#FA5A28"/>
</svg>
