<svg width="48" height="48" viewBox="0 0 48 48" fill="none" xmlns="http://www.w3.org/2000/svg">
<rect y="0.00012207" width="48" height="48" rx="4" fill="#FA5A28" fill-opacity="0.1"/>
<rect opacity="0.2" x="13.7524" y="11.3372" width="20.4947" height="25.049" rx="2.27718" fill="#FA5A28"/>
<rect x="10.3369" y="13.6143" width="20.4947" height="25.049" rx="2.27718" fill="#FC8C69"/>
<rect x="13.9282" y="18.6306" width="13.6401" height="2.10202" rx="1.05101" fill="#FFEFEA"/>
<rect x="13.9282" y="22.8345" width="13.6401" height="2.10202" rx="1.05101" fill="#FFEFEA"/>
<rect x="13.9282" y="27.0385" width="13.6401" height="2.10202" rx="1.05101" fill="#FFEFEA"/>
<rect x="13.7524" y="30.6932" width="10.2473" height="2.27718" rx="1.13859" fill="#FFEFEA"/>
<path d="M18.8106 36.3861L18.8106 36.9955L19.4222 36.9523L21.4277 36.8106C21.8391 36.7815 22.2261 36.606 22.5177 36.3162L35.9921 22.9264C36.6612 22.2616 36.6612 21.1836 35.9921 20.5187L35.1768 19.7086C34.5077 19.0437 33.423 19.0437 32.7539 19.7086L19.3125 33.0655C18.9912 33.3847 18.8107 33.8177 18.8107 34.2692L18.8106 36.3861Z" fill="#FA5A28" stroke="#FFEFEA" stroke-width="1.13859"/>
</svg>
