<svg width="24" height="24" viewBox="0 0 24 24" fill="none" xmlns="http://www.w3.org/2000/svg">
<rect opacity="0.2" x="3" width="18" height="22" rx="2" fill="#FA5A28"/>
<rect y="2" width="18" height="22" rx="2" fill="#FC8C69"/>
<rect x="3.1543" y="6.40564" width="11.9798" height="1.84615" rx="0.923077" fill="#FFEFEA"/>
<rect x="3.1543" y="10.0979" width="11.9798" height="1.84615" rx="0.923077" fill="#FFEFEA"/>
<rect x="3.1543" y="13.7902" width="11.9798" height="1.84615" rx="0.923077" fill="#FFEFEA"/>
<rect x="3" y="17" width="9" height="2" rx="1" fill="#FFEFEA"/>
<path d="M7.44213 22L7.4421 22.5351L7.97927 22.4972L9.74067 22.3728C10.102 22.3472 10.4419 22.1931 10.698 21.9386L22.5323 10.1786C23.1199 9.59467 23.1199 8.64792 22.5323 8.06398L21.8162 7.35241C21.2286 6.76847 20.2759 6.76847 19.6882 7.35241L7.88296 19.0835C7.6008 19.3639 7.44227 19.7442 7.44224 20.1407L7.44213 22Z" fill="#FA5A28" stroke="#FFEFEA"/>
</svg>
