<svg width="48" height="48" viewBox="0 0 48 48" fill="none" xmlns="http://www.w3.org/2000/svg">
<rect width="48" height="48" rx="4" fill="#FA5A28" fill-opacity="0.1"/>
<path d="M9.42993 13.9106C9.42993 13.0822 10.1015 12.4106 10.9299 12.4106H37.0698C37.8983 12.4106 38.5698 13.0822 38.5698 13.9106V31.4879H9.42993V13.9106Z" stroke="#FA5A28"/>
<path d="M11.9119 15.3628C11.9119 15.0867 12.1357 14.8628 12.4119 14.8628H35.4243C35.7005 14.8628 35.9243 15.0867 35.9243 15.3628V28.2548C35.9243 28.531 35.7005 28.7548 35.4243 28.7548H12.4119C12.1357 28.7548 11.9119 28.531 11.9119 28.2548V15.3628Z" stroke="#FCA489"/>
<path fill-rule="evenodd" clip-rule="evenodd" d="M22.4828 17.62C22.4084 17.319 22.1228 17.1404 21.845 17.2211C21.5672 17.3017 21.4023 17.6111 21.4768 17.9121L21.6115 18.457C21.686 18.758 21.9715 18.9366 22.2494 18.8559C22.5272 18.7753 22.692 18.4659 22.6176 18.165L22.4828 17.62ZM20.2734 19.2157C19.9955 19.1351 19.71 19.3137 19.6355 19.6147C19.5611 19.9156 19.726 20.225 20.0038 20.3056L20.5068 20.4517C20.7846 20.5323 21.0702 20.3537 21.1446 20.0527C21.2191 19.7518 21.0542 19.4424 20.7764 19.3618L20.2734 19.2157ZM24.8632 18.8951C25.0665 18.6747 25.0665 18.3175 24.8632 18.0972C24.6598 17.8769 24.3301 17.8769 24.1267 18.0972L23.7584 18.4961C23.5551 18.7164 23.5551 19.0737 23.7584 19.294C23.9618 19.5143 24.2916 19.5143 24.4949 19.294L24.8632 18.8951ZM21.1808 22.8844L21.549 22.4855C21.7524 22.2651 21.7524 21.9079 21.549 21.6876C21.3456 21.4673 21.0159 21.4673 20.8125 21.6876L20.4443 22.0865C20.2409 22.3068 20.2409 22.664 20.4443 22.8844C20.6476 23.1047 20.9774 23.1047 21.1808 22.8844ZM22.8472 19.967C22.6538 19.8832 22.4328 19.9323 22.2855 20.0919C22.1382 20.2515 22.0929 20.4908 22.1702 20.7003L24.2534 26.3421C24.3295 26.5484 24.5103 26.687 24.7152 26.6962C24.9201 26.7055 25.111 26.5836 25.2027 26.3849L25.9211 24.8283L27.4932 26.5315C27.6967 26.7518 28.0264 26.7518 28.2298 26.5315C28.4331 26.3112 28.4331 25.9539 28.2298 25.7336L26.6576 24.0304L28.0944 23.2521C28.2778 23.1528 28.3904 22.9461 28.3818 22.724C28.3733 22.5021 28.2453 22.3062 28.0549 22.2237L22.8472 19.967Z" fill="#FA5A28"/>
<path d="M31.3496 31.9976C31.3496 31.4453 30.9019 30.9976 30.3496 30.9976H17.6501C17.0979 30.9976 16.6501 31.4453 16.6501 31.9976V32.3245C16.6501 33.4291 17.5456 34.3245 18.6501 34.3245H29.3496C30.4542 34.3245 31.3496 33.4291 31.3496 32.3245V31.9976Z" fill="#FED1C3"/>
<path d="M39.8157 32.028C39.8157 31.7518 39.5918 31.528 39.3157 31.528H8.68408C8.40794 31.528 8.18408 31.7518 8.18408 32.028V34.0894C8.18408 34.9178 8.85565 35.5894 9.68408 35.5894H38.3157C39.1441 35.5894 39.8157 34.9178 39.8157 34.0894V32.028Z" stroke="#FA5A28"/>
</svg>
