<svg width="48" height="48" viewBox="0 0 48 48" fill="none" xmlns="http://www.w3.org/2000/svg">
<rect width="48" height="48" rx="4" fill="#FA5A28" fill-opacity="0.1"/>
<path d="M32.4683 35.6417H15.252V38.6452H35.7936V12.4722H32.4683V35.6417Z" fill="#FED1C3"/>
<path d="M15.3838 35.5962V37.7993C15.3838 38.3516 15.8315 38.7993 16.3838 38.7993H33.819C34.9235 38.7993 35.819 37.9039 35.819 36.7993V13.4444C35.819 12.8921 35.3713 12.4444 34.819 12.4444H32.6969" stroke="#FCA489"/>
<path d="M12.2068 14.0039L16.7852 9.21414V14.0039H12.2068Z" fill="#FED1C3"/>
<path d="M16.8029 9.2007H30.6159C31.7204 9.2007 32.6159 10.0961 32.6159 11.2007V33.5556C32.6159 34.6602 31.7204 35.5556 30.6159 35.5556H14.1807C13.0761 35.5556 12.1807 34.6602 12.1807 33.5556V13.9851M16.8029 9.2007L12.1807 13.9851M16.8029 9.2007V12.9851C16.8029 13.5374 16.3552 13.9851 15.8029 13.9851H12.1807" stroke="#FA5A28"/>
<path d="M22.1143 13.5797H28.6828" stroke="#FA5A28" stroke-linecap="round"/>
<path d="M16.5596 17.1072H28.6829" stroke="#FA5A28" stroke-linecap="round"/>
<path d="M16.5596 20.6347H28.6829" stroke="#FCA489" stroke-linecap="round"/>
<path d="M16.5596 24.1622H28.6829" stroke="#FCA489" stroke-linecap="round"/>
<path d="M16.5596 27.6897H28.6829" stroke="#FCA489" stroke-linecap="round"/>
<path d="M16.5596 31.2172H28.6829" stroke="#FCA489" stroke-linecap="round"/>
</svg>
