<svg width="48" height="48" viewBox="0 0 48 48" fill="none" xmlns="http://www.w3.org/2000/svg">
<rect y="0.00012207" width="48" height="48" rx="4" fill="#FA5A28" fill-opacity="0.1"/>
<rect x="8" y="33.0668" width="32.0003" height="1.60002" rx="0.800008" fill="#FC8C69"/>
<path d="M17.6006 12.8001H30.4007V33.0669H17.6006V12.8001Z" fill="#FA5A28"/>
<path d="M11.2002 21.8667L17.6003 18.6667V33.0668H11.2002V21.8667Z" fill="#FCAC93"/>
<path d="M36.8008 21.8667L30.4007 18.6667V33.0668H36.8008V21.8667Z" fill="#FCAC93"/>
<rect x="22.3999" y="26.667" width="3.20003" height="6.40006" fill="#FEDED4"/>
<rect x="12.8003" y="29.8669" width="3.20003" height="3.20003" fill="#FEDED4"/>
<rect x="32" y="29.8669" width="3.20003" height="3.20003" fill="#FEDED4"/>
<rect width="3.20003" height="1.60002" transform="matrix(1 0 0 -1 12.8003 28.2668)" fill="#FEDED4"/>
<rect width="3.20003" height="1.60002" transform="matrix(1 0 0 -1 32 28.2668)" fill="#FEDED4"/>
<rect width="3.20003" height="1.60002" transform="matrix(1 0 0 -1 12.8003 25.0668)" fill="#FEDED4"/>
<rect width="3.20003" height="1.60002" transform="matrix(1 0 0 -1 32 25.0668)" fill="#FEDED4"/>
<rect x="27.2002" y="21.8669" width="1.60002" height="6.40006" transform="rotate(90 27.2002 21.8669)" fill="#FEDED4"/>
<rect x="27.2002" y="18.6667" width="1.60002" height="6.40006" transform="rotate(90 27.2002 18.6667)" fill="#FEDED4"/>
</svg>
