<svg width="48" height="48" viewBox="0 0 48 48" fill="none" xmlns="http://www.w3.org/2000/svg">
<rect width="48" height="48" rx="4" fill="#FA5A28" fill-opacity="0.1"/>
<rect x="8" y="8" width="18.7586" height="24.4706" rx="2" fill="#FA5A28" fill-opacity="0.2"/>
<rect x="11.3103" y="14.5882" width="12.1379" height="1.88235" rx="0.941176" fill="#FFEFEA"/>
<rect x="11.3103" y="18.3529" width="12.1379" height="1.88235" rx="0.941176" fill="#FFEFEA"/>
<rect x="11.3103" y="22.1176" width="12.1379" height="1.88235" rx="0.941176" fill="#FFEFEA"/>
<rect x="11.3103" y="25.8824" width="12.1379" height="1.88235" rx="0.941176" fill="#FFEFEA"/>
<rect x="14.6206" y="11.7647" width="18.7586" height="24.4706" rx="2" fill="#FA5A28" fill-opacity="0.5"/>
<rect x="19.0344" y="18.3529" width="12.1379" height="1.88235" rx="0.941176" fill="#FED1C3"/>
<rect x="19.0344" y="22.1176" width="12.1379" height="1.88235" rx="0.941176" fill="#FED1C3"/>
<rect x="19.0344" y="25.8824" width="12.1379" height="1.88235" rx="0.941176" fill="#FED1C3"/>
<rect x="19.0344" y="29.6471" width="12.1379" height="1.88235" rx="0.941176" fill="#FED1C3"/>
<rect x="21.2415" y="15.5294" width="18.7586" height="24.4706" rx="2" fill="#FA5A28"/>
<rect x="24.5518" y="21.1765" width="12.1379" height="1.88235" rx="0.941176" fill="#FED1C3"/>
<rect x="24.5518" y="24.9412" width="12.1379" height="1.88235" rx="0.941176" fill="#FED1C3"/>
<rect x="24.5518" y="28.7059" width="12.1379" height="1.88235" rx="0.941176" fill="#FED1C3"/>
<rect x="24.5518" y="32.4706" width="12.1379" height="1.88235" rx="0.941176" fill="#FED1C3"/>
</svg>
