<svg width="48" height="48" viewBox="0 0 48 48" fill="none" xmlns="http://www.w3.org/2000/svg">
<rect y="0.00012207" width="48" height="48" rx="4" fill="#FA5A28" fill-opacity="0.1"/>
<path d="M33.8844 33.444L29.1068 28.6664M31.6878 22.4611C31.6878 27.3137 27.7541 31.2474 22.9015 31.2474C18.049 31.2474 14.1152 27.3137 14.1152 22.4611C14.1152 17.6086 18.049 13.6748 22.9015 13.6748C27.7541 13.6748 31.6878 17.6086 31.6878 22.4611Z" stroke="#FEEEE9" stroke-width="6.98685" stroke-linecap="round" stroke-linejoin="round"/>
<path d="M22.902 31.2474C27.7545 31.2474 31.6883 27.3137 31.6883 22.4611C31.6883 17.6086 27.7545 13.6748 22.902 13.6748C18.0495 13.6748 14.1157 17.6086 14.1157 22.4611C14.1157 27.3137 18.0495 31.2474 22.902 31.2474Z" fill="#FED1C3"/>
<path d="M33.8849 33.444L29.1073 28.6664M31.6883 22.4611C31.6883 27.3137 27.7545 31.2474 22.902 31.2474C18.0495 31.2474 14.1157 27.3137 14.1157 22.4611C14.1157 17.6086 18.0495 13.6748 22.902 13.6748C27.7545 13.6748 31.6883 17.6086 31.6883 22.4611Z" stroke="#FA5A28" stroke-linecap="round" stroke-linejoin="round"/>
<path d="M22.9023 16.9697C25.9352 16.9697 28.3938 19.4283 28.3938 22.4611" stroke="#FA5A28" stroke-linecap="round" stroke-linejoin="round"/>
</svg>
