<svg width="48" height="48" viewBox="0 0 48 48" fill="none" xmlns="http://www.w3.org/2000/svg">
<rect width="48" height="48" rx="4" fill="#FA5A28" fill-opacity="0.1"/>
<path fill-rule="evenodd" clip-rule="evenodd" d="M20.5849 11.1892H10.4151C9.74818 11.1892 9.20755 11.7216 9.20755 12.3784V17.7297C9.20755 18.3865 9.74818 18.9189 10.4151 18.9189H20.5849C21.2518 18.9189 21.7925 18.3865 21.7925 17.7297V12.3784C21.7925 11.7216 21.2518 11.1892 20.5849 11.1892ZM10.4151 10C9.08127 10 8 11.0648 8 12.3784V17.7297C8 19.0432 9.08127 20.1081 10.4151 20.1081H20.5849C21.9187 20.1081 23 19.0432 23 17.7297V12.3784C23 11.0648 21.9187 10 20.5849 10H10.4151Z" fill="#FCA489"/>
<path fill-rule="evenodd" clip-rule="evenodd" d="M37.5849 11.1892H27.4151C26.7482 11.1892 26.2075 11.7216 26.2075 12.3784V17.7297C26.2075 18.3865 26.7482 18.9189 27.4151 18.9189H37.5849C38.2518 18.9189 38.7925 18.3865 38.7925 17.7297V12.3784C38.7925 11.7216 38.2518 11.1892 37.5849 11.1892ZM27.4151 10C26.0813 10 25 11.0648 25 12.3784V17.7297C25 19.0432 26.0813 20.1081 27.4151 20.1081H37.5849C38.9187 20.1081 40 19.0432 40 17.7297V12.3784C40 11.0648 38.9187 10 37.5849 10H27.4151Z" fill="#FCA489"/>
<path fill-rule="evenodd" clip-rule="evenodd" d="M37.5849 23.1892H10.4151C9.74818 23.1892 9.20755 23.7216 9.20755 24.3784V29.7297C9.20755 30.3865 9.74818 30.9189 10.4151 30.9189H37.5849C38.2518 30.9189 38.7925 30.3865 38.7925 29.7297V24.3784C38.7925 23.7216 38.2518 23.1892 37.5849 23.1892ZM10.4151 22C9.08127 22 8 23.0648 8 24.3784V29.7297C8 31.0432 9.08127 32.1081 10.4151 32.1081H37.5849C38.9187 32.1081 40 31.0432 40 29.7297V24.3784C40 23.0648 38.9187 22 37.5849 22H10.4151Z" fill="#FCA489"/>
<path d="M32.7546 28.5946C32.7546 33.3561 28.8349 37.2162 23.9998 37.2162C19.1647 37.2162 15.2451 33.3561 15.2451 28.5946C15.2451 23.833 19.1647 19.973 23.9998 19.973C28.8349 19.973 32.7546 23.833 32.7546 28.5946Z" fill="#FED1C3"/>
<path fill-rule="evenodd" clip-rule="evenodd" d="M24.9228 25.5727C24.8209 25.1606 24.4299 24.9161 24.0495 25.0265C23.6692 25.1369 23.4434 25.5605 23.5453 25.9725L23.7299 26.7187C23.8318 27.1307 24.2228 27.3753 24.6032 27.2648C24.9835 27.1544 25.2092 26.7309 25.1073 26.3188L24.9228 25.5727ZM21.8977 27.7575C21.5174 27.6471 21.1264 27.8916 21.0245 28.3037C20.9226 28.7157 21.1483 29.1393 21.5286 29.2497L22.2174 29.4496C22.5977 29.56 22.9887 29.3155 23.0906 28.9034C23.1925 28.4914 22.9668 28.0678 22.5864 27.9574L21.8977 27.7575ZM28.1818 27.3184C28.4603 27.0168 28.4603 26.5277 28.1818 26.226C27.9034 25.9244 27.4519 25.9244 27.1735 26.226L26.6693 26.7722C26.3909 27.0739 26.3909 27.563 26.6693 27.8646C26.9477 28.1663 27.3992 28.1663 27.6777 27.8646L28.1818 27.3184ZM23.1401 32.7804L23.6442 32.2342C23.9227 31.9325 23.9227 31.4434 23.6442 31.1418C23.3658 30.8401 22.9143 30.8401 22.6359 31.1418L22.1317 31.688C21.8533 31.9896 21.8533 32.4787 22.1317 32.7804C22.4102 33.082 22.8616 33.082 23.1401 32.7804ZM25.4217 28.7861C25.1568 28.6713 24.8544 28.7386 24.6527 28.9571C24.451 29.1755 24.3889 29.5032 24.4948 29.7901L27.3469 37.5145C27.4511 37.7969 27.6987 37.9867 27.9793 37.9993C28.2598 38.012 28.5211 37.8451 28.6467 37.573L29.6303 35.4419L31.7828 37.7738C32.0613 38.0754 32.5127 38.0754 32.7912 37.7738C33.0696 37.4721 33.0696 36.983 32.7912 36.6814L30.6386 34.3494L32.6059 33.2838C32.857 33.1478 33.0111 32.8648 32.9994 32.5609C32.9877 32.257 32.8125 31.9888 32.5517 31.8758L25.4217 28.7861Z" fill="#FA5A28"/>
</svg>
