<svg width="48" height="48" viewBox="0 0 48 48" fill="none" xmlns="http://www.w3.org/2000/svg">
<rect width="48" height="48" rx="4" fill="#E5F5F3"/>
<path d="M35.6246 24.2304H28.3738V26.3021H33.3458C32.9903 27.8386 32.2535 29.2608 31.2036 30.4375C30.1536 31.6142 28.8241 32.5075 27.3379 33.0351L15.4258 21.1229C16.0693 19.3029 17.2619 17.7274 18.839 16.6142C20.4161 15.5009 22.3 14.9047 24.2304 14.9079C25.727 14.9184 27.2002 15.28 28.5315 15.9637C29.8628 16.6473 31.0151 17.6339 31.8956 18.8441L33.4494 17.4975C32.1569 15.7317 30.383 14.3757 28.3399 13.5918C26.2969 12.8079 24.0713 12.6293 21.9294 13.0774C19.7874 13.5254 17.82 14.5812 16.2625 16.1182C14.7049 17.6553 13.6233 19.6086 13.1469 21.7444L26.82 35.4175C29.3175 34.7878 31.5361 33.3486 33.129 31.3246C34.722 29.3006 35.5995 26.8059 35.6246 24.2304ZM12.8362 24.334C12.8395 25.8004 13.1342 27.2515 13.7032 28.6029C14.2723 29.9544 15.1043 31.1793 16.1509 32.2064C18.2368 34.3038 21.0653 35.4947 24.0232 35.5211L12.8362 24.334Z" fill="white"/>
<path d="M24.2305 9.72868C21.3623 9.72868 18.5586 10.5792 16.1738 12.1727C13.789 13.7661 11.9302 16.031 10.8326 18.6809C9.73504 21.3307 9.44786 24.2465 10.0074 27.0596C10.567 29.8726 11.9481 32.4566 13.9762 34.4847C16.0043 36.5128 18.5883 37.894 21.4014 38.4535C24.2144 39.0131 27.1302 38.7259 29.7801 37.6283C32.4299 36.5307 34.6948 34.672 36.2883 32.2872C37.8817 29.9024 38.7323 27.0986 38.7323 24.2304C38.721 20.3878 37.1896 16.7057 34.4724 13.9885C31.7552 11.2713 28.0732 9.73989 24.2305 9.72868ZM16.151 32.31C14.0535 30.224 12.8626 27.3956 12.8363 24.4376L24.1269 35.6247C21.144 35.5717 18.2928 34.3867 16.151 32.31ZM26.7165 35.3139L13.147 21.7444C13.6234 19.6086 14.705 17.6553 16.2626 16.1182C17.8201 14.5812 19.7875 13.5254 21.9295 13.0774C24.0714 12.6293 26.297 12.8079 28.34 13.5918C30.3831 14.3757 32.157 15.7317 33.4495 17.4975L31.8957 18.8441C31.0152 17.6339 29.8629 16.6473 28.5316 15.9637C27.2003 15.28 25.7271 14.9184 24.2305 14.9079C22.3036 14.9197 20.4266 15.5218 18.8524 16.633C17.2781 17.7442 16.0823 19.3112 15.4259 21.1229L27.338 33.0351C28.8242 32.5075 30.1537 31.6142 31.2037 30.4375C32.2536 29.2608 32.9904 27.8386 33.3459 26.3021H28.3739V24.2304H35.6247C35.6107 26.8126 34.7225 29.314 33.1048 31.3267C31.4871 33.3394 29.2353 34.7449 26.7165 35.3139Z" fill="#00C2A8"/>
</svg>
