<svg width="24" height="24" viewBox="0 0 24 24" fill="none" xmlns="http://www.w3.org/2000/svg">
<rect y="-0.00012207" width="24" height="24" rx="12" fill="#FA5A28" fill-opacity="0.1"/>
<path fill-rule="evenodd" clip-rule="evenodd" d="M11.9633 -0.00012207C5.3578 -0.00012207 0 5.50707 0 12.2968C0 17.7285 3.44954 22.3304 8.14679 23.9901C8.73394 24.0656 8.95413 23.6884 8.95413 23.3866C8.95413 23.0848 8.95413 22.3304 8.95413 21.2742C5.65138 22.0287 4.91743 19.6145 4.91743 19.6145C4.40367 18.1812 3.59633 17.804 3.59633 17.804C2.49541 17.0495 3.66972 17.0495 3.66972 17.0495C4.84404 17.125 5.50459 18.332 5.50459 18.332C6.6055 20.2181 8.29358 19.69 8.95413 19.3882C9.02752 18.5584 9.3945 18.0303 9.68807 17.7285C7.04587 17.4268 4.25688 16.3706 4.25688 11.6178C4.25688 10.2599 4.69725 9.20368 5.50459 8.29839C5.3578 7.99662 4.99083 6.71413 5.65138 5.05442C5.65138 5.05442 6.6789 4.75266 8.95413 6.33692C9.90825 6.03516 10.9358 5.95972 11.9633 5.95972C12.9908 5.95972 14.0183 6.1106 14.9725 6.33692C17.2477 4.75266 18.2752 5.05442 18.2752 5.05442C18.9358 6.71413 18.4954 7.99662 18.422 8.29839C19.156 9.12824 19.6697 10.2599 19.6697 11.6178C19.6697 16.3706 16.8807 17.3513 14.2385 17.6531C14.6789 18.0303 15.0459 18.7847 15.0459 19.9163C15.0459 21.576 15.0459 22.8585 15.0459 23.3111C15.0459 23.6129 15.2661 23.9901 15.8532 23.9147C20.6239 22.255 24 17.6531 24 12.2213C23.9266 5.50707 18.5688 -0.00012207 11.9633 -0.00012207Z" fill="#FA5A28"/>
</svg>
