<svg width="48" height="48" viewBox="0 0 48 48" fill="none" xmlns="http://www.w3.org/2000/svg">
<rect y="0.00012207" width="48" height="48" rx="4" fill="#FA5A28" fill-opacity="0.1"/>
<path d="M10.8257 37.6084V33.2043L23.6671 37.6084L36.5085 33.2043V37.6084H23.6671H10.8257Z" fill="#FDD0C2"/>
<path d="M18.5664 14.2943C17.3565 13.6827 14.4809 12.5269 11.7649 12.2796C11.2149 12.2295 10.7666 12.6785 10.7666 13.2308C10.7666 16.5358 10.7666 26.0714 10.7666 33.2112M28.6526 14.2943C30.8208 13.0051 33.6554 12.466 35.435 12.2956C35.9926 12.2422 36.4524 12.6924 36.4524 13.2525V33.2112M10.7666 33.2112C10.7666 34.4257 10.7666 35.5708 10.7666 36.6042C10.7666 37.1565 11.2143 37.6042 11.7666 37.6042H23.6095M10.7666 33.2112L23.6095 37.6042M23.6095 37.6042H35.4524C36.0047 37.6042 36.4524 37.1565 36.4524 36.6042V33.2112M23.6095 37.6042L36.4524 33.2112M23.6095 37.6042V29.894" stroke="#FC8C69"/>
<path d="M21.1216 29.894H26.2319" stroke="#FA5A28"/>
<path d="M21.1216 28.1906H26.2319" stroke="#FA5A28"/>
<path d="M17.3564 17.746C17.3564 13.1557 21.5027 11.6944 23.6318 11.6944C25.6603 11.6944 29.7733 13.1557 29.7733 17.746C29.7733 18.6724 29.3391 20.7505 28.1147 22.139C26.852 23.5709 26.5906 25.4511 26.5906 26.3975H20.9424C20.9424 25.6365 20.9424 23.7699 19.4636 22.697C17.6346 21.3701 17.3564 18.8069 17.3564 17.746Z" fill="#FDD0C2" stroke="#FA5A28"/>
<path d="M22.6904 20.3011V26.4872" stroke="#FA5A28"/>
<path d="M24.6626 20.3011V26.4872" stroke="#FA5A28"/>
</svg>
