<svg width="86" height="27" viewBox="0 0 86 27" fill="none" xmlns="http://www.w3.org/2000/svg">
<path fill-rule="evenodd" clip-rule="evenodd" d="M63.1389 19.0554V10.9649H61.3203V19.0554H63.1389ZM79.4908 10.9557C79.4908 12.5528 79.4946 14.0703 79.4889 15.5877C79.4835 16.5963 78.7539 17.306 77.7497 17.2969C76.7363 17.2897 76.2664 16.7845 76.259 15.6618C76.2498 14.3346 76.259 13.0056 76.2535 11.6782C76.2516 11.4373 76.2111 11.1965 76.1891 10.9666H74.4129C74.3816 11.039 74.3501 11.077 74.3501 11.115C74.3447 13.0109 74.3134 14.9104 74.3501 16.8062C74.3686 17.7297 74.8109 18.4522 75.7376 18.8398C76.6865 18.2186 77.7367 18.2731 78.7888 18.3998C79.6474 18.5048 80.4877 18.4468 81.4108 18.264C81.4034 15.8195 81.431 13.393 81.3923 10.9557H79.4908ZM71.2976 11.1676C70.5385 10.8236 69.7296 10.675 68.9188 10.8634C68.2481 11.0191 67.6089 11.3034 66.9363 11.5389C66.6452 11.2907 66.3118 11.0083 65.947 10.695C65.4917 11.0971 65.0976 11.4429 64.7051 11.7886C65.5453 12.8244 65.5453 12.8244 65.5453 14.1735C65.5453 15.5641 65.5453 16.9566 65.5471 18.3472C65.5471 18.5718 65.5673 18.7981 65.5803 19.0516H67.456V14.5194C67.456 13.5343 67.9793 12.8733 68.9558 12.6253C70.0982 12.3355 70.6952 12.7792 70.6988 13.9345C70.7042 15.4084 70.6988 16.8842 70.7025 18.36C70.7025 18.5845 70.7246 18.8091 70.7374 19.0371H72.5837C72.5837 16.9476 72.6206 14.9051 72.5671 12.8643C72.545 12.0784 72.0328 11.5007 71.2976 11.1676ZM49.1651 13.862C48.2439 14.7728 47.0996 14.3871 46.0217 14.4487C46.0992 13.3242 46.9965 12.4659 47.9657 12.5311C48.8758 12.5926 49.2277 12.9548 49.1651 13.862ZM49.3255 17.1812C48.6732 17.4364 47.997 17.5107 47.3042 17.3731C46.6152 17.2373 46.2834 16.9131 46.1526 16.1978C46.5451 16.1978 46.9248 16.1961 47.3024 16.1978C48.1942 16.2069 49.0602 16.0839 49.8561 15.6674C51.4831 14.8145 51.6839 12.6071 50.2118 11.5496C48.6511 10.4269 46.3221 10.5229 44.9735 12.1002C43.9638 13.2825 43.7667 14.6659 44.008 16.1472C44.207 17.3568 44.8427 18.2712 45.95 18.8163C47.5235 19.5912 50.1675 19.1801 51.5421 17.9598C51.2343 17.5215 50.9229 17.078 50.6152 16.6361C50.149 16.8353 49.7419 17.02 49.3255 17.1812ZM82.1534 13.8565C82.0335 13.8728 81.9231 13.9471 81.7868 14.0051V15.8484C82.0392 15.8086 82.2473 15.7597 82.4573 15.7471C82.9844 15.7145 83.5003 15.9951 83.6883 16.3988C83.9001 16.8516 83.7785 17.498 83.3731 17.8475C83.1686 18.0232 82.9254 18.2006 82.6694 18.2675C82.0539 18.4287 81.4237 18.6025 80.7918 18.6279C79.6364 18.6768 78.4758 18.6025 77.3187 18.6369C76.3826 18.666 75.5018 19.1368 75.0155 19.9226C74.1715 21.2878 74.5678 23.1819 75.8427 24.1017C77.081 24.9945 78.9271 24.8352 80.0234 23.727C80.8139 22.9285 81.1547 21.9325 81.3334 20.7882H79.4006C79.3343 20.9946 79.2754 21.2391 79.1795 21.469C79.0745 21.7206 78.9659 21.9778 78.8111 22.2006C78.4277 22.751 77.7387 22.932 77.1656 22.666C76.7125 22.4559 76.4139 21.8457 76.5134 21.3332C76.635 20.7048 76.963 20.4821 77.7958 20.4803C78.975 20.4768 80.1543 20.5166 81.3317 20.4784C82.5108 20.4386 83.6127 20.1055 84.5541 19.3739C85.6652 18.5121 86.0448 16.9511 85.4754 15.6583C84.9503 14.4667 83.4911 13.6718 82.1534 13.8565ZM55.7484 17.4364C55.3853 17.4346 55.0224 17.3784 54.5525 17.3386C54.5525 16.0729 54.5046 14.8524 54.5728 13.6375C54.606 13.0344 55.1402 12.6995 55.6948 12.5437C56.3416 12.3608 56.9773 12.4133 57.484 12.9313C58.3462 13.8166 58.4439 15.6618 57.6866 16.6414C57.1948 17.2771 56.5018 17.4399 55.7484 17.4364ZM56.0029 10.6787C55.5403 10.7058 55.0852 10.8525 54.5491 10.9612V7.53705H52.6016V18.762C53.4749 19.0606 55.2454 19.2779 56.1318 19.2073C58.2507 19.039 59.5921 17.9869 60.0066 16.0366C60.154 15.3504 60.1614 14.6025 60.0581 13.9072C59.7504 11.814 58.1383 10.5555 56.0029 10.6787ZM40.2473 15.4319H40.0759C39.5379 13.9363 38.998 12.4424 38.46 10.9503H36.7815C36.2361 12.4587 35.6962 13.9525 35.1564 15.4482H34.9997C34.4526 13.938 33.9054 12.4279 33.3765 10.9703H31.3718C32.3466 13.7135 33.2973 16.3881 34.2481 19.0625H35.9027L37.5406 14.5373H37.7065C38.2537 16.0548 38.7991 17.5741 39.3352 19.0588H40.9936C41.948 16.3734 42.8987 13.6972 43.8697 10.9629H41.8632C41.327 12.4496 40.7872 13.9398 40.2473 15.4319Z" fill="#FA5A28"/>
<path fill-rule="evenodd" clip-rule="evenodd" d="M13.3232 26.6227C12.4889 27.1088 11.4612 27.1088 10.627 26.6227L1.81217 21.4853C0.977967 20.9991 0.464111 20.1007 0.464111 19.1284V8.85362C0.464111 7.88128 0.977967 6.98279 1.81217 6.49669L10.627 1.35931C11.4612 0.873067 12.4889 0.873067 13.3232 1.35931L22.1378 6.49669C22.972 6.98279 23.4859 7.88128 23.4859 8.85362V19.1284C23.4859 20.1007 22.972 20.9991 22.1378 21.4853L13.3232 26.6227ZM15.3103 15.3173H15.099C14.4356 13.4231 13.7699 11.5308 13.1065 9.64111H11.0367C10.3642 11.5516 9.69855 13.4436 9.03292 15.3381H8.8397C8.16496 13.4253 7.49023 11.5126 6.83807 9.6663H4.36621C5.56816 13.1409 6.74046 16.5283 7.91274 19.9157H9.95297L11.9728 14.1843H12.1773C12.8521 16.1064 13.5246 18.0306 14.1857 19.9111H16.2305C17.4073 16.5099 18.5796 13.1203 19.777 9.65712H17.3028C16.6417 11.54 15.9759 13.4276 15.3103 15.3173Z" fill="#FA5A28"/>
</svg>
