<svg width="48" height="48" viewBox="0 0 48 48" fill="none" xmlns="http://www.w3.org/2000/svg">
<rect width="48" height="48" rx="4" fill="#E5F5F3"/>
<path fill-rule="evenodd" clip-rule="evenodd" d="M29.6892 27.943C31.4073 27.943 32.8 26.57 32.8 24.8841C32.8 23.629 32.0332 22.5504 30.9329 22.0789C30.9045 20.2448 29.3834 18.7665 27.5111 18.7665C26.8524 18.7665 26.2372 18.9495 25.7151 19.2666C24.921 18.2204 23.6521 17.543 22.2222 17.543C19.8167 17.543 17.8667 19.4602 17.8667 21.8253C17.8667 21.9098 17.8692 21.9938 17.8741 22.0771C16.7713 22.5482 16 23.6295 16 24.8841C16 26.5735 17.3891 27.943 19.1108 27.943H29.6892Z" fill="#00C2A8"/>
<path d="M9.28089 9.33791L23.9376 11.6521L24 11.662L24.0624 11.6521L38.7191 9.33791L36.4049 23.9946L36.395 24.057L36.4049 24.1194L38.7191 38.7761L24.0624 36.4619L24 36.4521L23.9376 36.4619L9.28089 38.7761L11.5951 24.1194L11.605 24.057L11.5951 23.9946L9.28089 9.33791Z" stroke="#74E6D7" stroke-width="0.8"/>
<path d="M25.2 36C25.2 36.6627 24.6627 37.2 24 37.2C23.3373 37.2 22.8 36.6627 22.8 36C22.8 35.3373 23.3373 34.8 24 34.8C24.6627 34.8 25.2 35.3373 25.2 36Z" fill="#74E6D7" stroke="#00C2A8" stroke-width="0.8"/>
<path d="M10.8 38.4C10.8 39.0627 10.2627 39.6 9.6 39.6C8.93726 39.6 8.4 39.0627 8.4 38.4C8.4 37.7372 8.93726 37.2 9.6 37.2C10.2627 37.2 10.8 37.7372 10.8 38.4Z" fill="#74E6D7" stroke="#00C2A8" stroke-width="0.8"/>
<path d="M12.4 24C12.4 24.6627 11.8627 25.2 11.2 25.2C10.5373 25.2 10 24.6627 10 24C10 23.3373 10.5373 22.8 11.2 22.8C11.8627 22.8 12.4 23.3373 12.4 24Z" fill="#74E6D7" stroke="#00C2A8" stroke-width="0.8"/>
<path d="M38 24C38 24.6627 37.4627 25.2 36.8 25.2C36.1373 25.2 35.6 24.6627 35.6 24C35.6 23.3373 36.1373 22.8 36.8 22.8C37.4627 22.8 38 23.3373 38 24Z" fill="#74E6D7" stroke="#00C2A8" stroke-width="0.8"/>
<path d="M39.6 38.4C39.6 39.0627 39.0627 39.6 38.4 39.6C37.7373 39.6 37.2 39.0627 37.2 38.4C37.2 37.7372 37.7373 37.2 38.4 37.2C39.0627 37.2 39.6 37.7372 39.6 38.4Z" fill="#74E6D7" stroke="#00C2A8" stroke-width="0.8"/>
<path d="M25.2 12C25.2 11.3373 24.6627 10.8 24 10.8C23.3373 10.8 22.8 11.3373 22.8 12C22.8 12.6627 23.3373 13.2 24 13.2C24.6627 13.2 25.2 12.6627 25.2 12Z" fill="#74E6D7" stroke="#00C2A8" stroke-width="0.8"/>
<path d="M10.8 9.60001C10.8 8.93727 10.2627 8.40001 9.6 8.40001C8.93726 8.40001 8.4 8.93727 8.4 9.60001C8.4 10.2628 8.93726 10.8 9.6 10.8C10.2627 10.8 10.8 10.2628 10.8 9.60001Z" fill="#74E6D7" stroke="#00C2A8" stroke-width="0.8"/>
<path d="M39.6 9.60001C39.6 8.93727 39.0627 8.40001 38.4 8.40001C37.7373 8.40001 37.2 8.93727 37.2 9.60001C37.2 10.2628 37.7373 10.8 38.4 10.8C39.0627 10.8 39.6 10.2628 39.6 9.60001Z" fill="#74E6D7" stroke="#00C2A8" stroke-width="0.8"/>
<circle cx="24" cy="27.943" r="3.2" fill="white"/>
</svg>
