<svg width="48" height="48" viewBox="0 0 48 48" fill="none" xmlns="http://www.w3.org/2000/svg">
<rect width="48" height="48" rx="4" fill="#E5F5F3"/>
<path d="M24.5541 26.6543L34.5584 22.6145L34.5582 34.1335L24.5539 38.1734L24.5541 26.6543ZM23.4461 26.6543L23.4459 38.1734L13.4416 34.1335L13.4418 22.6145L23.4461 26.6543ZM24.0001 25.6831L14.3674 21.7932L24.0001 17.9034L33.6329 21.7932L24.0001 25.6831Z" fill="white" stroke="#00C2A8" stroke-width="1.10805"/>
<path d="M13.9956 33.814V22.8332L23.4486 26.6508V37.5798L13.9956 33.814Z" fill="#74E6D7"/>
<path d="M34.051 33.814V22.8332L24.5979 26.6508V37.5798L34.051 33.814Z" fill="#EFFFFD"/>
<path d="M20.4349 23.9646V17.663L17.004 14.2321" stroke="#74E6D7" stroke-width="1.10805"/>
<path d="M27.7375 23.9646V17.663L31.1684 14.2321" stroke="#74E6D7" stroke-width="1.10805"/>
<path d="M24.0069 25.4594V10.3356" stroke="#74E6D7" stroke-width="1.10805"/>
<path d="M17.6405 13.8121C17.6405 13.3447 17.2616 12.9658 16.7942 12.9658C16.3268 12.9658 15.9478 13.3447 15.9478 13.8121C15.9478 14.2795 16.3268 14.6584 16.7942 14.6584C17.2616 14.6584 17.6405 14.2795 17.6405 13.8121Z" fill="#74E6D7" stroke="#00C2A8" stroke-width="1.10805"/>
<path d="M32.015 13.812C32.015 13.3446 31.6361 12.9657 31.1687 12.9657C30.7013 12.9657 30.3223 13.3446 30.3223 13.812C30.3223 14.2794 30.7013 14.6583 31.1687 14.6583C31.6361 14.6583 32.015 14.2794 32.015 13.812Z" fill="#74E6D7" stroke="#00C2A8" stroke-width="1.10805"/>
<circle cx="1.40035" cy="1.40035" r="0.846326" transform="matrix(1 0 0 -1 22.5359 11.806)" fill="#74E6D7" stroke="#00C2A8" stroke-width="1.10805"/>
</svg>
