<svg width="48" height="48" viewBox="0 0 48 48" fill="none" xmlns="http://www.w3.org/2000/svg">
<rect y="0.00012207" width="48" height="48" rx="4" fill="#FA5A28" fill-opacity="0.1"/>
<path d="M17.4395 16.9673L17.0195 19.0672V29.0536C17.0195 29.2869 17.4395 30.6868 17.766 30.9202C18.0273 31.1068 18.8704 31.4335 19.2593 31.5735C20.4104 31.7757 22.8245 32.1801 23.2725 32.1801C23.8325 32.1801 26.819 32.8801 27.7057 32.8801H29.3856C29.8336 32.8801 30.4745 32.4135 30.7389 32.1801L31.7189 30.9202C31.75 26.4092 31.7935 17.3033 31.7189 16.9673C31.6255 16.5473 31.3456 15.9407 31.2056 15.5207C31.0936 15.1847 30.4745 14.6963 30.1789 14.494L28.8256 14.1674L25.0924 14.494L19.586 15.2874L17.4395 16.9673Z" fill="#FED1C3"/>
<path d="M17 28.5594C17 28.9107 17 29.0864 17.0157 29.2391C17.1457 30.5068 18.0626 31.5541 19.3021 31.8506C19.4513 31.8863 19.6255 31.9095 19.9737 31.9559L26.5656 32.8348C28.442 33.085 29.3803 33.2101 30.1084 32.9206C30.7478 32.6664 31.2803 32.2002 31.6168 31.6C32 30.9165 32 29.97 32 28.0769V19.0419C32 17.1489 32 16.2023 31.6168 15.5188C31.2803 14.9187 30.7478 14.4525 30.1084 14.1983C29.3803 13.9087 28.4421 14.0338 26.5656 14.284L19.9737 15.1629C19.6255 15.2094 19.4514 15.2326 19.3021 15.2683C18.0626 15.5648 17.1457 16.612 17.0157 17.8798C17 18.0325 17 18.2081 17 18.5594" stroke="#FA5A28" stroke-linecap="round" stroke-linejoin="round"/>
<path d="M23 19.5594L27 23.5594M27 23.5594L23 27.5594M27 23.5594H14" stroke="#FA5A28" stroke-linecap="round" stroke-linejoin="round"/>
</svg>
