<svg width="48" height="48" viewBox="0 0 48 48" fill="none" xmlns="http://www.w3.org/2000/svg">
<rect width="48" height="48" rx="4" fill="#E5F5F3"/>
<path d="M26.6788 23.9759C26.6788 22.5415 25.4795 21.3785 23.9999 21.3785C22.5205 21.3785 21.321 22.5415 21.321 23.9759C21.321 25.4105 22.5205 26.5734 23.9999 26.5734C25.4795 26.5734 26.6788 25.4105 26.6788 23.9759Z" fill="#74E6D7"/>
<path fill-rule="evenodd" clip-rule="evenodd" d="M32.7004 19.1537C33.2661 16.9248 33.9772 12.7915 31.4704 11.3902C28.9753 9.99495 25.7284 12.6684 24.0139 14.2732C22.3044 12.6844 18.9663 10.0224 16.4616 11.4281C13.9675 12.828 14.7366 16.8928 15.3149 19.1357C12.9883 19.7764 9 21.1564 9 23.9759C9 26.7874 12.9842 28.2888 15.297 28.9289C14.7166 31.1842 13.986 35.1909 16.4833 36.5877C18.9973 37.9932 22.325 35.3945 24.0554 33.7722C25.7809 35.3864 28.9966 38.0021 31.4922 36.6014C33.9956 35.1963 33.3436 31.1184 32.7653 28.8625C35.0073 28.221 39 26.7523 39 23.9759C39 21.1835 34.9903 19.7923 32.7004 19.1537ZM32.4162 27.667C32.0365 26.5016 31.524 25.2623 30.8971 23.9821C31.4955 22.7321 31.9881 21.5088 32.3572 20.3509C34.0359 20.8228 37.7185 21.9013 37.7185 23.9759C37.7185 26.07 34.1846 27.1587 32.4162 27.667ZM30.85 35.526C28.988 36.571 26.2221 34.0696 24.9478 32.8809C25.7932 31.9844 26.638 30.9422 27.4625 29.7849C28.9129 29.6602 30.283 29.4562 31.5256 29.1777C31.9326 30.7734 32.7202 34.4763 30.85 35.526ZM17.1236 35.5111C15.2614 34.47 16.1126 30.8946 16.5396 29.2333C17.7683 29.4969 19.1286 29.6865 20.5824 29.8008C21.4123 30.9332 22.2816 31.9741 23.1576 32.8857C22.0753 33.9008 18.9945 36.557 17.1236 35.5111ZM10.2815 23.9759C10.2815 21.874 13.9421 20.8033 15.659 20.3326C16.0345 21.5165 16.5269 22.7544 17.1212 24.0062C16.5192 25.2766 16.0198 26.5341 15.6409 27.732C14.0037 27.2776 10.2815 26.0791 10.2815 23.9759ZM17.1037 12.5035C18.9735 11.4542 21.8747 14.0098 23.1159 15.1601C22.2444 16.0675 21.3831 17.1006 20.5603 18.2265C19.1494 18.3533 17.7987 18.5569 16.5571 18.8297C16.0912 17.0207 15.2359 13.5518 17.1037 12.5035ZM28.3793 19.5771C29.3365 19.6942 30.2536 19.85 31.1147 20.0406C30.8562 20.844 30.534 21.6841 30.1545 22.5453C29.6044 21.5333 29.0139 20.5416 28.3793 19.5771ZM24.0143 16.0481C24.6054 16.669 25.1974 17.3623 25.7798 18.1145C24.5985 18.0603 23.4153 18.0601 22.234 18.1137C22.8169 17.3685 23.414 16.6762 24.0143 16.0481ZM17.8565 22.5444C17.4833 21.6862 17.164 20.8424 16.9032 20.0275C17.7592 19.8418 18.672 19.69 19.623 19.5748C18.9866 20.5372 18.3971 21.5285 17.8565 22.5444ZM19.6503 28.4657C18.6679 28.3594 17.7413 28.2153 16.8856 28.0347C17.1504 27.2055 17.4768 26.3435 17.858 25.4668C18.406 26.4933 19.0045 27.4942 19.6503 28.4657ZM24.0498 31.9915C23.4424 31.356 22.8365 30.6531 22.2448 29.8971C23.4328 29.9423 24.6231 29.9424 25.811 29.891C25.2268 30.6608 24.6369 31.3647 24.0498 31.9915ZM30.1667 25.4222C30.5677 26.3084 30.9057 27.1657 31.1742 27.9809C30.3043 28.1734 29.3652 28.3284 28.3757 28.4435C29.015 27.4607 29.6149 26.4536 30.1667 25.4222ZM26.7473 28.5941C24.9301 28.72 23.1016 28.7186 21.2838 28.6044C20.2509 27.1415 19.3314 25.603 18.5377 24.0058C19.3276 22.4119 20.2404 20.8764 21.2684 19.4158C23.0875 19.2825 24.9178 19.2821 26.7369 19.4166C27.7561 20.8771 28.6675 22.4086 29.4757 23.9881C28.6771 25.5812 27.7595 27.1198 26.7473 28.5941ZM30.8303 12.4666C32.7006 13.5125 31.8681 17.2273 31.4595 18.8426C30.2149 18.5641 28.8633 18.3569 27.4483 18.2281C26.6239 17.09 25.7698 16.0552 24.9124 15.1595C26.1695 13.9844 28.9781 11.4309 30.8303 12.4666Z" fill="#00C2A8"/>
</svg>
