<svg width="48" height="48" viewBox="0 0 48 48" fill="none" xmlns="http://www.w3.org/2000/svg">
<rect width="48" height="48" rx="4" fill="#E5F5F3"/>
<path fill-rule="evenodd" clip-rule="evenodd" d="M33.1838 29.6114C36.1668 29.6114 38.585 27.0885 38.585 23.9904C38.585 21.6839 37.2536 19.7019 35.3432 18.8354C35.2939 15.4649 32.6527 12.7484 29.4019 12.7484C28.2581 12.7484 27.1899 13.0846 26.2834 13.6673C24.9046 11.7448 22.7013 10.5 20.2187 10.5C16.042 10.5 12.6561 14.0233 12.6561 18.3694C12.6561 18.5247 12.6604 18.679 12.6689 18.8321C10.7543 19.6978 9.41496 21.6848 9.41496 23.9904C9.41496 27.0948 11.8269 29.6114 14.8162 29.6114H33.1838Z" fill="#00C2A8"/>
<rect x="15" y="20.5" width="18" height="5" rx="1" fill="#74E6D7"/>
<rect x="15" y="26.5" width="18" height="5" rx="1" fill="white"/>
<rect x="15" y="32.5" width="18" height="5" rx="1" fill="#74E6D7"/>
<circle cx="25.5" cy="23" r="1.5" fill="white"/>
<circle cx="25.5" cy="29" r="1.5" fill="#00C2A8"/>
<circle cx="25.5" cy="35" r="1.5" fill="white"/>
<circle cx="30.5" cy="23" r="1.5" fill="white"/>
<circle cx="30.5" cy="29" r="1.5" fill="#00C2A8"/>
<circle cx="30.5" cy="35" r="1.5" fill="white"/>
</svg>
