<svg width="24" height="24" viewBox="0 0 24 24" fill="none" xmlns="http://www.w3.org/2000/svg">
<path opacity="0.7" fill-rule="evenodd" clip-rule="evenodd" d="M8.79949 0C7.4728 0.000978595 6.3991 1.07548 6.40008 2.39952C6.3991 3.72356 7.47378 4.79805 8.80047 4.79903H11.2009V2.40049C11.2018 1.07645 10.1272 0.00195719 8.79949 0C8.80047 0 8.80047 0 8.79949 0V0ZM8.79949 6.40001H2.4004C1.07371 6.40099 -0.000977874 7.47549 2.67973e-06 8.79953C-0.00195843 10.1236 1.07273 11.1981 2.39942 11.2H8.79949C10.1262 11.199 11.2009 10.1245 11.1999 8.80051C11.2009 7.47549 10.1262 6.40099 8.79949 6.40001Z" fill="#FA5A28"/>
<path fill-rule="evenodd" clip-rule="evenodd" d="M24 8.79953C24.001 7.47549 22.9263 6.40099 21.5996 6.40001C20.2729 6.40099 19.1982 7.47549 19.1992 8.79953V11.2H21.5996C22.9263 11.199 24.001 10.1245 24 8.79953ZM17.5999 8.79953V2.39952C17.6009 1.07645 16.5271 0.00195719 15.2005 0C13.8738 0.000978595 12.7991 1.07548 12.8001 2.39952V8.79953C12.7981 10.1236 13.8728 11.1981 15.1995 11.2C16.5262 11.199 17.6009 10.1245 17.5999 8.79953Z" fill="#FA5A28"/>
<path opacity="0.2" fill-rule="evenodd" clip-rule="evenodd" d="M15.1995 23.9998C16.5262 23.9988 17.6008 22.9244 17.5999 21.6003C17.6008 20.2763 16.5262 19.2018 15.1995 19.2008H12.7991V21.6003C12.7981 22.9234 13.8728 23.9979 15.1995 23.9998ZM15.1995 17.5988H21.5995C22.9262 17.5979 24.0009 16.5234 23.9999 15.1993C24.0019 13.8753 22.9272 12.8008 21.6005 12.7988H15.2004C13.8738 12.7998 12.7991 13.8743 12.8001 15.1983C12.7991 16.5234 13.8728 17.5979 15.1995 17.5988Z" fill="#FA5A28"/>
<path opacity="0.5" fill-rule="evenodd" clip-rule="evenodd" d="M6.70467e-07 15.1993C-0.000979885 16.5234 1.07371 17.5979 2.4004 17.5988C3.72709 17.5979 4.80178 16.5234 4.8008 15.1993V12.7998H2.4004C1.07371 12.8008 -0.000979885 13.8753 6.70467e-07 15.1993ZM6.40009 15.1993V21.5994C6.39813 22.9234 7.47282 23.9979 8.79951 23.9999C10.1262 23.9989 11.2009 22.9244 11.1999 21.6003V15.2013C11.2019 13.8772 10.1272 12.8027 8.80049 12.8008C7.47282 12.8008 6.39911 13.8753 6.40009 15.1993C6.40009 15.1993 6.40009 15.2003 6.40009 15.1993Z" fill="#FA5A28"/>
</svg>
