<svg width="48" height="48" viewBox="0 0 48 48" fill="none" xmlns="http://www.w3.org/2000/svg">
<rect width="48" height="48" rx="4" fill="#FA5A28" fill-opacity="0.1"/>
<path d="M14.4846 32.0429H32.7956L31.7186 34.5562L32.7956 37.5182H14.4846C13.6767 37.5182 11.9714 36.3514 11.9714 34.5562C11.9714 33.12 13.6469 32.2823 14.4846 32.0429Z" fill="#FED1C3"/>
<path d="M13.4991 11.7971C14.4004 10.7572 16.2433 10.6127 17.0521 10.6705V32.1615H13.4991L12.0259 34.4146V14.7434C12.1414 14.1946 12.5978 12.8369 13.4991 11.7971Z" fill="#FCA489"/>
<path d="M32.8425 12.2266H34.9451C35.4974 12.2266 35.9451 12.6743 35.9451 13.2266V33.7857C35.9451 34.3379 35.4974 34.7857 34.9451 34.7857H31.7908" stroke="#FCA489"/>
<path d="M21.0632 25.4255H29.3718" stroke="#FCA489" stroke-linecap="round"/>
<path d="M21.0632 28.2125H29.3718" stroke="#FCA489" stroke-linecap="round"/>
<path d="M32.95 32.0478L32.0072 33.9331C31.7174 34.5128 31.7264 35.1969 32.0314 35.7688L32.95 37.491H14.6887C13.2341 37.491 12.0549 36.3118 12.0549 34.8572V34.8572M32.95 32.0478V11.509C32.95 10.9567 32.5022 10.509 31.95 10.509H16.9128M32.95 32.0478H16.9128M12.0549 34.8572V15.3669C12.0549 12.684 14.2299 10.509 16.9128 10.509V10.509M12.0549 34.8572C12.2989 33.4225 12.7927 32.5163 13.9137 32.1236C14.0763 32.0667 14.2492 32.0478 14.4214 32.0478H16.9128M16.9128 32.0478V10.509" stroke="#FA5A28"/>
<path d="M29.1614 22.8488H21.0632C21.2561 21.5867 22.3254 19.0627 25.0598 19.0627C27.7943 19.0627 28.9335 21.5867 29.1614 22.8488Z" fill="#FCA489"/>
<circle cx="25.1124" cy="15.6445" r="2.15588" fill="#FCA489"/>
</svg>
