<?xml version="1.0" encoding="UTF-8"?>
<svg width="404px" height="137px" viewBox="0 0 404 137" version="1.1" xmlns="http://www.w3.org/2000/svg" xmlns:xlink="http://www.w3.org/1999/xlink">
    <!-- Generator: Sketch 55.2 (78181) - https://sketchapp.com -->
    <title>Group 27</title>
    <desc>Created with Sketch.</desc>
    <g id="Page-4" stroke="none" stroke-width="1" fill="none" fill-rule="evenodd">
        <g id="Webiny-Logo-Icon" transform="translate(-95.000000, -229.000000)" fill="#FFFFFF">
            <g id="Group-27" transform="translate(297.500000, 297.500000) rotate(-90.000000) translate(-297.500000, -297.500000) translate(229.000000, 95.000000)">
                <path d="M50.9737,286.2691 L50.9737,295.0376 L90.6679,295.0376 L90.6679,286.2691 L50.9737,286.2691 Z M90.7124,383.0518 L90.7124,373.8833 C82.8765,373.8833 75.4314,373.9015 67.9863,373.8743 C63.0381,373.8479 59.5559,370.3302 59.6004,365.4883 C59.6359,360.6019 62.1145,358.336 67.6227,358.3005 C74.1344,358.256 80.6551,358.3005 87.1676,358.2741 C88.3492,358.2651 89.5308,358.0696 90.6588,357.9633 L90.6588,349.3993 C90.3034,349.2484 90.1171,349.0966 89.9307,349.0966 C80.6287,349.0702 71.3094,348.9194 62.0082,349.0966 C57.4771,349.1857 53.9323,351.318 52.0308,355.7864 C55.0785,360.362 54.8113,365.4257 54.1896,370.4984 C53.6742,374.6386 53.9587,378.6898 54.8558,383.1408 C66.8492,383.1054 78.7544,383.2381 90.7124,383.0518 L90.7124,383.0518 Z M81.3485,340.4972 C85.2043,340.3908 88.0383,337.9212 89.6726,334.3763 C91.3605,330.7161 92.0894,326.8158 91.1651,322.9065 C90.4015,319.6725 89.0064,316.5903 87.8511,313.3472 C89.069,311.9438 90.4543,310.3359 91.9913,308.5771 C90.0189,306.3821 88.322,304.4814 86.6258,302.589 C81.544,306.6402 81.544,306.6402 74.9251,306.6402 C68.1026,306.6402 61.2702,306.6402 54.4477,306.6492 C53.346,306.6492 52.2353,306.7465 50.9919,306.8092 L50.9919,315.8531 L73.2281,315.8531 C78.061,315.8531 81.304,318.3763 82.5211,323.0846 C83.9427,328.5928 81.7658,331.4714 76.0977,331.4887 C68.8662,331.5151 61.6256,331.4887 54.385,331.5068 C53.2834,331.5068 52.1817,331.6132 51.0628,331.675 L51.0628,340.5771 C61.3147,340.5771 71.3357,340.7552 81.3485,340.4972 L81.3485,340.4972 Z M82.9829,221.8773 C82.6811,226.2657 80.9041,227.9626 76.4531,227.6608 C71.9847,223.2189 73.8771,217.7016 73.5745,212.5043 C79.0917,212.8779 83.3028,217.2044 82.9829,221.8773 L82.9829,221.8773 Z M62.8426,234.6524 C61.8655,232.4046 60.9593,230.4413 60.1685,228.4335 C58.916,225.2885 58.5516,222.0282 59.2269,218.6878 C59.8931,215.3656 61.4837,213.7659 64.9931,213.1351 C64.9931,215.0275 65.0014,216.8581 64.9931,218.6788 C64.9486,222.9789 65.5522,227.1546 67.5955,230.9921 C71.7802,238.8371 82.6101,239.8052 87.7984,232.7072 C93.3065,225.1822 92.8357,213.9523 85.0971,207.4497 C79.2962,202.5814 72.5091,201.6307 65.2413,202.7942 C59.3069,203.754 54.8204,206.8189 52.1463,212.158 C48.3442,219.7449 50.3611,232.4937 56.3483,239.1216 C58.4988,237.6374 60.6748,236.1358 62.8426,234.6524 L62.8426,234.6524 Z M67.64,402.7385 C73.4862,400.207 77.3865,393.1709 76.4803,386.7211 C76.4003,386.1431 76.0358,385.6104 75.7513,384.9532 L66.7074,384.9532 C66.9028,386.1703 67.1428,387.1738 67.2046,388.1864 C67.3646,390.7277 65.9876,393.2155 64.0069,394.1217 C61.7855,395.1433 58.6142,394.557 56.8991,392.602 C56.0374,391.6158 55.1667,390.4432 54.8385,389.2088 C54.0477,386.2412 53.1951,383.2027 53.0706,380.1559 C52.8307,374.585 53.1951,368.9887 53.0261,363.4096 C52.8834,358.8959 50.5738,354.6493 46.7181,352.3042 C40.0201,348.235 30.7271,350.1455 26.2143,356.2927 C21.8341,362.2634 22.6158,371.1647 28.0531,376.451 C31.9706,380.2622 36.857,381.9056 42.4715,382.7673 L42.4715,373.4479 C41.459,373.128 40.2592,372.8444 39.1312,372.3818 C37.8968,371.8755 36.6352,371.3519 35.5418,370.6056 C32.8413,368.7569 31.9533,365.4347 33.2586,362.6716 C34.2893,360.4865 37.2833,359.0468 39.7975,359.5267 C42.8805,360.1129 43.9731,361.6945 43.9822,365.7101 C43.9995,371.3956 43.8041,377.0818 43.9912,382.759 C44.1867,388.4445 45.821,393.7572 49.4103,398.2965 C53.6387,403.6537 61.2974,405.4843 67.64,402.7385 L67.64,402.7385 Z M62.8163,268.7493 C59.6977,266.3779 58.8987,263.0367 58.916,259.4036 C58.9251,257.6531 59.2005,255.9033 59.3959,253.6374 C65.6058,253.6374 71.5938,253.4065 77.5547,253.7355 C80.5133,253.8955 82.1566,256.4714 82.921,259.1455 C83.8181,262.2641 83.5609,265.329 81.0195,267.7722 C76.6757,271.9297 67.6227,272.4006 62.8163,268.7493 L62.8163,268.7493 Z M76.2312,280.1829 C86.5013,278.6995 92.6757,270.9262 92.0713,260.6298 C91.9385,258.3993 91.2187,256.2051 90.6852,253.6201 L107.4851,253.6201 L107.4851,244.2298 L52.4126,244.2298 C50.9473,248.4409 49.8812,256.9777 50.2275,261.2515 C51.0537,271.468 56.2155,277.9359 65.7839,279.9347 C69.1506,280.6455 72.82,280.6809 76.2312,280.1829 L76.2312,280.1829 Z M90.677,192.4532 C83.3828,189.8682 76.0713,187.265 68.7507,184.6618 L68.7507,183.8356 C76.0886,181.2415 83.4182,178.6383 90.7388,176.0442 L90.7388,167.951 C83.3382,165.3214 76.0094,162.7182 68.6707,160.1151 L68.6707,159.3597 C76.0803,156.7219 83.4891,154.0833 90.6407,151.5329 L90.6407,141.8672 C77.182,146.5673 64.0597,151.1511 50.9383,155.7357 L50.9383,163.7135 L73.1399,171.6113 L73.1399,172.4111 C65.6948,175.0497 58.2407,177.6793 50.9564,180.2643 L50.9564,188.2602 C64.1314,192.8622 77.262,197.446 90.677,202.1279 L90.677,192.4532 Z" id="Fill-23"></path>
                <path d="M29.4615,114.7162 L2.7247,68.4073 C0.1949,64.0247 0.1949,58.6254 2.7247,54.2428 L29.4615,7.9331 C31.9913,3.5504 36.6675,0.8508 41.7279,0.8508 L95.2015,0.8508 C100.2619,0.8508 104.938,3.5504 107.4678,7.9331 L134.2046,54.2428 C136.7352,58.6254 136.7352,64.0247 134.2046,68.4073 L107.4678,114.7162 C104.938,119.0988 100.2619,121.7984 95.2015,121.7984 L41.7279,121.7984 C36.6675,121.7984 31.9913,119.0988 29.4615,114.7162 Z M95.1179,88.8074 C85.3187,85.3343 75.4947,81.8365 65.66,78.3394 L65.66,77.2296 C75.5186,73.7441 85.3665,70.2471 95.2012,66.7616 L95.2012,55.8879 C85.2585,52.3547 75.4115,48.8576 65.552,45.3606 L65.552,44.3456 C75.5071,40.8007 85.4614,37.2559 95.0701,33.8298 L95.0701,20.8436 C76.9872,27.1582 59.3578,33.3169 41.7284,39.4756 L41.7284,50.1943 L71.5566,60.8057 L71.5566,61.8801 C61.5537,65.425 51.5392,68.9583 41.7524,72.4314 L41.7524,83.1739 C59.4535,89.3566 77.0944,95.5153 95.1179,101.806 L95.1179,88.8074 Z" id="Combined-Shape"></path>
            </g>
        </g>
    </g>
</svg>