<?xml version="1.0" encoding="UTF-8"?>
<svg width="404px" height="136px" viewBox="0 0 404 136" version="1.1" xmlns="http://www.w3.org/2000/svg" xmlns:xlink="http://www.w3.org/1999/xlink">
    <!-- Generator: Sketch 55.2 (78181) - https://sketchapp.com -->
    <title>Logo</title>
    <desc>Created with Sketch.</desc>
    <g id="Page-3" stroke="none" stroke-width="1" fill="none" fill-rule="evenodd">
        <g id="Webiny-Logo-Icon" transform="translate(-96.000000, -230.000000)" fill="#FA5A28">
            <g id="Logo" transform="translate(96.000000, 229.598492)">
                <path d="M257.622918,84.401 L257.622918,93.1695 L297.317118,93.1695 L297.317118,84.401 L257.622918,84.401 Z M297.361618,181.1845 L297.361618,172.0161 C289.525718,172.0161 282.080618,172.0334 274.635518,172.007 C269.687218,171.9806 266.205118,168.4622 266.249618,163.6203 C266.285118,158.7339 268.763718,156.4688 274.271918,156.4333 C280.783518,156.3888 287.304318,156.4333 293.816718,156.4069 C294.998418,156.3979 296.180018,156.2024 297.308018,156.0961 L297.308018,147.5312 C296.952618,147.3803 296.766218,147.2294 296.579118,147.2294 C287.277918,147.203 277.958518,147.0513 268.656518,147.2294 C264.126318,147.3185 260.581518,149.45 258.680018,153.9192 C261.727618,158.4939 261.460518,163.5584 260.838718,168.6312 C260.323418,172.7714 260.607918,176.8217 261.505018,181.2728 C273.498418,181.2373 285.403618,181.3709 297.361618,181.1845 L297.361618,181.1845 Z M287.997718,138.6299 C291.853418,138.5227 294.687518,136.0531 296.321818,132.5083 C298.009718,128.848 298.738618,124.9478 297.814318,121.0393 C297.049918,117.8053 295.655518,114.7222 294.500318,111.48 C295.717418,110.0758 297.103518,108.4679 298.640518,106.709 C296.668118,104.5148 294.971218,102.6134 293.275018,100.721 C288.193218,104.7721 288.193218,104.7721 281.574318,104.7721 C274.751018,104.7721 267.919418,104.7721 261.096818,104.7812 C259.995218,104.7812 258.884518,104.8793 257.640218,104.9412 L257.640218,113.9851 L279.877318,113.9851 C284.710218,113.9851 287.953218,116.5083 289.170318,121.2166 C290.591818,126.7247 288.415018,129.6033 282.746818,129.6215 C275.515318,129.6479 268.274818,129.6215 261.034218,129.6388 C259.932518,129.6388 258.830918,129.7452 257.712018,129.8078 L257.712018,138.7099 C267.963918,138.7099 277.984918,138.8872 287.997718,138.6299 L287.997718,138.6299 Z M289.632018,20.0101 C289.330218,24.3984 287.553318,26.0954 283.102218,25.7928 C278.633918,21.3508 280.526318,15.8344 280.223718,10.6371 C285.740918,11.0098 289.952018,15.3364 289.632018,20.0101 L289.632018,20.0101 Z M269.491818,32.7852 C268.514718,30.5374 267.608518,28.5741 266.817718,26.5662 C265.565218,23.4213 265.200718,20.161 265.876118,16.8206 C266.542318,13.4976 268.132918,11.8987 271.641518,11.2679 C271.641518,13.1603 271.650618,14.9901 271.641518,16.8115 C271.597818,21.1117 272.201418,25.2865 274.244718,29.1249 C278.429418,36.9691 289.259318,37.9379 294.447518,30.8392 C299.955718,23.3141 299.484918,12.0851 291.746218,5.5817 C285.945418,0.7134 279.157518,-0.2373 271.890518,0.927 C265.956118,1.8859 261.469518,4.9509 258.795518,10.2908 C254.993318,17.8777 257.010318,30.6264 262.997518,37.2535 C265.148018,35.7701 267.324018,34.2686 269.491818,32.7852 L269.491818,32.7852 Z M274.289218,200.8712 C280.135418,198.339 284.034818,191.3029 283.128618,184.8531 C283.048618,184.2759 282.685018,183.7432 282.400518,183.0852 L273.356618,183.0852 C273.552018,184.3023 273.792018,185.3066 273.853818,186.3192 C274.013818,188.8597 272.636718,191.3474 270.656118,192.2536 C268.434718,193.2753 265.263418,192.689 263.548318,190.7348 C262.686618,189.7486 261.815918,188.576 261.487718,187.3408 C260.696918,184.3732 259.843518,181.3354 259.719818,178.2878 C259.479818,172.7178 259.843518,167.1206 259.675318,161.5415 C259.532618,157.0287 257.223018,152.7821 253.367318,150.4362 C246.668418,146.3677 237.376318,148.2774 232.862618,154.4255 C228.483318,160.3954 229.265018,169.2975 234.702218,174.583 C238.619818,178.395 243.506218,180.0384 249.120718,180.9001 L249.120718,171.5807 C248.108218,171.2608 246.908418,170.9763 245.780418,170.5146 C244.545218,170.0083 243.284418,169.4838 242.191018,168.7376 C239.490518,166.8897 238.602518,163.5675 239.907818,160.8044 C240.938518,158.6184 243.932518,157.1795 246.446618,157.6594 C249.529718,158.2457 250.622318,159.8273 250.631318,163.8429 C250.648718,169.5284 250.453218,175.2138 250.640418,180.891 C250.835818,186.5772 252.470118,191.8892 256.059518,196.4293 C260.287918,201.7865 267.945718,203.6162 274.289218,200.8712 L274.289218,200.8712 Z M269.465418,66.8821 C266.346918,64.5098 265.547118,61.1695 265.565218,57.5356 C265.574318,55.7858 265.849718,54.0353 266.045118,51.7702 C272.255018,51.7702 278.243018,51.5393 284.203918,51.8683 C287.162418,52.0274 288.805818,54.6042 289.570218,57.2783 C290.467318,60.3969 290.209218,63.4618 287.668718,65.905 C283.324018,70.0625 274.271918,70.5333 269.465418,66.8821 L269.465418,66.8821 Z M282.880418,78.3157 C293.150518,76.8323 299.324918,69.0582 298.720518,58.7617 C298.586918,56.5321 297.867918,54.3379 297.334418,51.752 L314.134218,51.752 L314.134218,42.3618 L259.061818,42.3618 C257.596518,46.5729 256.530318,55.1105 256.876718,59.3835 C257.702918,69.6007 262.864718,76.0679 272.432318,78.0666 C275.799818,78.7774 279.468318,78.8129 282.880418,78.3157 L282.880418,78.3157 Z M297.326118,-9.414 C290.032018,-11.9999 282.720518,-14.6022 275.399918,-17.2054 L275.399918,-18.0316 C282.737818,-20.6258 290.067418,-23.2289 297.388018,-25.823 L297.388018,-33.9162 C289.987418,-36.5466 282.657818,-39.149 275.319918,-41.7522 L275.319918,-42.5075 C282.729518,-45.1461 290.138318,-47.7847 297.289918,-50.3343 L297.289918,-60 C283.831218,-55.3007 270.708918,-50.7161 257.587518,-46.1323 L257.587518,-38.1545 L279.788318,-30.256 L279.788318,-29.4569 C272.344018,-26.8183 264.889918,-24.1887 257.604818,-21.6029 L257.604818,-13.6078 C270.779818,-9.0059 283.911118,-4.4212 297.326118,0.2607 L297.326118,-9.414 Z" id="Fill-15" transform="translate(272.084988, 71.068188) rotate(-90.000000) translate(-272.084988, -71.068188) "></path>
                <path d="M113.8653,107.042558 L67.5565,133.779358 C63.1738,136.309158 57.7745,136.309158 53.3919,133.779358 L7.0822,107.042558 C2.6996,104.511958 9.30000361e-15,99.8365584 9.60986374e-15,94.7761584 L1.28841774e-14,41.3025584 C1.31940375e-14,36.2421584 2.6996,31.5660584 7.0822,29.0362584 L53.3919,2.2994584 C57.7745,-0.231141603 63.1738,-0.231141603 67.5565,2.2994584 L113.8653,29.0362584 C118.248,31.5660584 120.9476,36.2421584 120.9476,41.3025584 L120.9476,94.7761584 C120.9476,99.8365584 118.248,104.511958 113.8653,107.042558 Z M87.9566,41.3861584 C84.4835,51.1853584 80.9856,61.0093584 77.4886,70.8440584 L76.3787,70.8440584 C72.8933,60.9854584 69.3962,51.1375584 65.9108,41.3028584 L55.0371,41.3028584 C51.5038,51.2455584 48.0068,61.0925584 44.5098,70.9520584 L43.4947,70.9520584 C39.9499,60.9969584 36.4051,51.0426584 32.9789,41.4339584 L19.9927,41.4339584 C26.3073,59.5168584 32.4661,77.1462584 38.6248,94.7756584 L49.3434,94.7756584 L59.9549,64.9474584 L61.0293,64.9474584 C64.5741,74.9503584 68.1074,84.9648584 71.5805,94.7516584 L82.3231,94.7516584 C88.5057,77.0505584 94.6645,59.4096584 100.9552,41.3861584 L87.9566,41.3861584 Z" id="Combined-Shape"></path>
            </g>
        </g>
    </g>
</svg>