<svg width="48" height="48" viewBox="0 0 48 48" fill="none" xmlns="http://www.w3.org/2000/svg">
<rect y="0.00012207" width="48" height="48" rx="4" fill="#FA5A28" fill-opacity="0.1"/>
<path d="M20.2109 38.1104H28.1351" stroke="#FA5A28"/>
<path d="M20.2109 35.4691H28.1351" stroke="#FA5A28"/>
<path d="M14.373 19.2735C14.373 12.1558 20.8022 9.8898 24.1038 9.8898C27.2492 9.8898 33.6267 12.1558 33.6267 19.2735C33.6267 20.71 32.9535 23.9323 31.0549 26.0854C29.097 28.3057 28.6916 31.2212 28.6916 32.6887H19.9335C19.9335 31.5086 19.9335 28.6142 17.6404 26.9506C14.8044 24.8931 14.3729 20.9186 14.373 19.2735Z" stroke="#FA5A28"/>
<path fill-rule="evenodd" clip-rule="evenodd" d="M24.6982 25.3331C24.2664 25.5847 23.7345 25.5847 23.3028 25.3331L18.7407 22.6743C18.3089 22.4226 18.043 21.9577 18.043 21.4544V16.1367C18.043 15.6335 18.3089 15.1685 18.7407 14.9169L23.3028 12.258C23.7345 12.0064 24.2664 12.0064 24.6982 12.258L29.2602 14.9169C29.692 15.1685 29.9579 15.6335 29.9579 16.1367V21.4544C29.9579 21.9577 29.692 22.4226 29.2602 22.6743L24.6982 25.3331ZM25.7265 19.482H25.6171C25.2738 18.5016 24.9293 17.5223 24.5859 16.5443H23.5147C23.1666 17.533 22.8221 18.5123 22.4776 19.4928H22.3776C22.0284 18.5028 21.6792 17.5129 21.3417 16.5573H20.0624C20.6845 18.3556 21.2912 20.1088 21.8979 21.8619H22.9538L23.9992 18.8956H24.105C24.4542 19.8904 24.8023 20.8863 25.1445 21.8595H26.2027C26.8118 20.0992 27.4185 18.3449 28.0383 16.5526H26.7577C26.4156 17.5271 26.071 18.504 25.7265 19.482Z" fill="#FA5A28"/>
<path d="M22.644 26.5558V32.8278" stroke="#FA5A28"/>
<path d="M25.7021 26.5558V32.8278" stroke="#FA5A28"/>
</svg>
