<svg width="24" height="16" viewBox="0 0 24 16" fill="none" xmlns="http://www.w3.org/2000/svg">
<path fill-rule="evenodd" clip-rule="evenodd" d="M1.39447 2.66785C0.658036 2.66785 0.0610352 2.07085 0.0610352 1.33441C0.0610352 0.597977 0.658036 0.000976562 1.39447 0.000976562H22.6665C23.403 0.000976562 24 0.597977 24 1.33441C24 2.07085 23.403 2.66785 22.6665 2.66785H1.39447ZM0.0610352 8C0.0610352 8.73626 0.657897 9.33312 1.39416 9.33312H22.6668C23.4031 9.33312 24 8.73626 24 8C24 7.26373 23.4031 6.66687 22.6668 6.66687H1.39416C0.657896 6.66687 0.0610352 7.26373 0.0610352 8ZM0.0610352 14.6656C0.0610352 15.402 0.658037 15.999 1.39447 15.999H22.6665C23.403 15.999 24 15.402 24 14.6656C24 13.9292 23.403 13.3322 22.6665 13.3322H1.39447C0.658035 13.3322 0.0610352 13.9292 0.0610352 14.6656Z" fill="#334155"/>
</svg>
