<svg width="25" height="24" viewBox="0 0 25 24" fill="none" xmlns="http://www.w3.org/2000/svg">
<path opacity="0.5" d="M1 5C1 3.89543 1.89543 3 3 3H19C20.1046 3 21 3.89543 21 5V14.3265C21 15.4311 20.1046 16.3265 19 16.3265H8.81922C8.55543 16.3265 8.30231 16.4308 8.11502 16.6165L5.55581 19.1549C5.24024 19.4678 4.7037 19.2443 4.7037 18.7999V17.3265C4.7037 16.7742 4.25599 16.3265 3.7037 16.3265H3C1.89543 16.3265 1 15.4311 1 14.3265V5Z" fill="#FA5A28"/>
<path d="M23 9.50012C23.8284 9.50012 24.5 10.1717 24.5 11.0001V17.7551C24.5 18.5836 23.8284 19.2551 23 19.2551H22.3063V20.2638C22.3063 20.9809 21.4354 21.3358 20.9341 20.8229L19.4021 19.2551L13.154 19.2551C12.3255 19.2551 11.654 18.5836 11.654 17.7551V11.0001C11.654 10.1717 12.3256 9.50012 13.154 9.50012H23Z" fill="#FA5A28" stroke="#FFEFEA"/>
<path d="M24 11.0001C24 10.4478 23.5523 10.0001 23 10.0001H13.154C12.6017 10.0001 12.154 10.4478 12.154 11.0001V17.7551C12.154 18.3074 12.6017 18.7551 13.154 18.7551H19.4021C19.5367 18.7551 19.6656 18.8094 19.7597 18.9057L21.2917 20.4734C21.4797 20.6658 21.8063 20.5327 21.8063 20.2638V19.2551C21.8063 18.979 22.0301 18.7551 22.3063 18.7551H23C23.5523 18.7551 24 18.3074 24 17.7551V11.0001Z" fill="#FA5A28"/>
</svg>
