<svg width="48" height="48" viewBox="0 0 48 48" fill="none" xmlns="http://www.w3.org/2000/svg">
<rect width="48" height="48" rx="4" fill="#FA5A28" fill-opacity="0.1"/>
<path fill-rule="evenodd" clip-rule="evenodd" d="M39.9829 25.4326C39.8781 24.0191 39.7472 22.6123 39.6293 21.2055C39.577 20.6215 39.3741 20.4423 38.7849 20.4224C37.7637 20.4224 36.7359 20.356 35.7081 20.3361C35.401 20.3637 35.1212 20.1566 35.0535 19.8517C34.9168 19.3834 34.7163 18.9367 34.4578 18.5245C33.9145 17.6884 33.3188 16.8854 32.723 16.0825C32.5757 15.9325 32.5318 15.7074 32.6118 15.5118C32.8278 14.9677 33.0176 14.4102 33.2075 13.8594C33.3973 13.3087 33.6199 12.6119 33.8228 11.9881C33.9145 11.3842 33.358 11.152 32.6969 10.7804C31.6364 10.2229 30.589 9.65225 29.5219 9.12137C29.0506 8.88911 28.7887 8.98865 28.4942 9.43326C27.8875 10.3623 27.2809 11.298 26.6743 12.2403C26.6001 12.4035 26.4182 12.4858 26.2488 12.4327C24.4914 12.0809 22.6779 12.1399 20.9463 12.6052C20.7973 12.6223 20.6486 12.5712 20.5405 12.4659C19.7353 11.5767 18.9497 10.6676 18.1576 9.76506C17.7714 9.31381 17.503 9.28727 16.999 9.63898C15.873 10.4419 14.7405 11.2515 13.6014 12.0412C13.0974 12.3929 12.9926 12.7048 13.2806 13.2556C13.7913 14.2244 14.3019 15.1866 14.8256 16.1422C14.927 16.302 14.9053 16.5117 14.7732 16.6465C14.3131 17.245 13.8974 17.8771 13.5294 18.5378C13.153 19.3247 12.8229 20.1335 12.5409 20.9599C12.4942 21.1568 12.333 21.3043 12.1351 21.3315C11.0091 21.5439 9.8897 21.7695 8.77028 21.9951C8.07637 22.1345 7.95855 22.2738 8.01091 23.0104C8.10256 24.404 8.21384 25.7975 8.3055 27.1911C8.34477 27.795 8.54115 28.0073 9.13687 28.0339C10.217 28.0737 11.2971 28.1334 12.3773 28.1599C12.593 28.1431 12.7859 28.2955 12.8224 28.5116C13.4393 30.1893 14.4088 31.7109 15.6635 32.971C15.7545 33.1048 15.781 33.2731 15.7355 33.4289C15.3886 34.5703 15.022 35.705 14.6619 36.8398C14.5666 37.0394 14.5632 37.2716 14.6529 37.474C14.7426 37.6763 14.9161 37.828 15.1267 37.8883C16.4359 38.4921 17.7452 39.1026 19.0544 39.68C19.2589 39.7556 19.4871 39.7233 19.6632 39.5937C19.9931 39.2875 20.2854 38.9421 20.5339 38.5651C20.979 37.9015 21.3718 37.145 21.8432 36.4482C21.9275 36.3235 22.0671 36.249 22.2163 36.2492C23.8364 36.4857 25.4871 36.3841 27.0671 35.9506C27.2175 35.9183 27.3742 35.9574 27.4926 36.0567C28.265 36.9128 29.0179 37.7821 29.7707 38.658C30.2682 39.242 30.5301 39.3216 31.1389 38.8836C32.291 38.0829 33.4322 37.2689 34.5625 36.4416C34.745 36.3458 34.8773 36.1743 34.9251 35.9718C34.9729 35.7692 34.9313 35.5555 34.8113 35.3865C34.2876 34.3712 33.7443 33.3957 33.2206 32.3539C33.1648 32.2318 33.1648 32.091 33.2206 31.969C34.2711 30.6604 35.0404 29.1438 35.479 27.5162C35.5242 27.3058 35.6994 27.1497 35.9111 27.1314C37.0239 26.9124 38.1303 26.6934 39.2366 26.4678C39.9174 26.3284 40.0549 26.1691 39.9829 25.4326Z" fill="#FA5A28" fill-opacity="0.2" stroke="#FA5A28" stroke-opacity="0.5"/>
<circle cx="24" cy="24" r="7" fill="#FA5A28"/>
<path d="M27 27.4999V26.7222C27 26.3096 26.8419 25.914 26.5606 25.6222C26.2793 25.3305 25.8978 25.1666 25.5 25.1666H22.5C22.1022 25.1666 21.7206 25.3305 21.4393 25.6222C21.158 25.914 21 26.3096 21 26.7222V27.4999" stroke="#FFEFEA" stroke-linecap="round" stroke-linejoin="round"/>
<path d="M24 23.6111C24.8284 23.6111 25.5 22.9146 25.5 22.0555C25.5 21.1964 24.8284 20.5 24 20.5C23.1716 20.5 22.5 21.1964 22.5 22.0555C22.5 22.9146 23.1716 23.6111 24 23.6111Z" stroke="#FFEFEA" stroke-linecap="round" stroke-linejoin="round"/>
</svg>
