<?xml version="1.0" encoding="UTF-8"?>
<svg width="39px" height="39px" viewBox="0 0 39 39" version="1.1" xmlns="http://www.w3.org/2000/svg" xmlns:xlink="http://www.w3.org/1999/xlink">
    <!-- Generator: Sketch 50.2 (55047) - http://www.bohemiancoding.com/sketch -->
    <title>facebook-icon</title>
    <desc>Created with Sketch.</desc>
    <defs></defs>
    <g id="Home-v1" stroke="none" stroke-width="1" fill="none" fill-rule="evenodd">
        <g id="Main-page" transform="translate(-987.000000, -2705.000000)" fill-rule="nonzero">
            <g id="CMS" transform="translate(0.000000, 525.000000)">
                <g id="Plugins" transform="translate(194.000000, 2105.000000)">
                    <g id="Logos" transform="translate(56.000000, 74.000000)">
                        <g id="facebook-icon" transform="translate(737.000000, 1.000000)">
                            <path d="M36.8477105,39 C38.0362992,39 39,38.0361603 39,36.8475805 L39,2.15241949 C39,0.963401338 38.0361531,0 36.8477105,0 L2.15243562,0 C0.963408557,0 0,0.963547462 0,2.15241949 L0,36.8474344 C0,38.0361603 0.963408557,38.9998539 2.15243562,38.9998539 L36.8477105,38.9998539 L36.8477105,39 Z" id="Shape" fill="#CCCCCC"></path>
                            <path d="M27.0346568,39 L27.0346568,23.9471589 L32.0467587,23.9471589 L32.7971581,18.0807512 L27.0345124,18.0807512 L27.0345124,14.335309 C27.0345124,12.6368471 27.5023201,11.4794404 29.918508,11.4794404 L33,11.477984 L33,6.2311318 C32.4670344,6.15976786 30.637701,6 28.5097393,6 C24.0667216,6 21.0249601,8.73382174 21.0249601,13.7544939 L21.0249601,18.0807512 L16,18.0807512 L16,23.9471589 L21.0249601,23.9471589 L21.0249601,38.9998544 L27.0346568,38.9998544 L27.0346568,39 Z" id="Shape" fill="#FFFFFF"></path>
                        </g>
                    </g>
                </g>
            </g>
        </g>
    </g>
</svg>