<?xml version="1.0" encoding="UTF-8"?>
<svg width="155px" height="38px" viewBox="0 0 155 38" version="1.1" xmlns="http://www.w3.org/2000/svg" xmlns:xlink="http://www.w3.org/1999/xlink">
    <!-- Generator: Sketch 50.2 (55047) - http://www.bohemiancoding.com/sketch -->
    <title>mailchimp</title>
    <desc>Created with Sketch.</desc>
    <defs></defs>
    <g id="Home-v1" stroke="none" stroke-width="1" fill="none" fill-rule="evenodd">
        <g id="Main-page" transform="translate(-250.000000, -2706.000000)" fill="#CCCCCC" fill-rule="nonzero">
            <g id="CMS" transform="translate(0.000000, 525.000000)">
                <g id="Plugins" transform="translate(194.000000, 2105.000000)">
                    <g id="Logos" transform="translate(56.000000, 74.000000)">
                        <g id="mailchimp" transform="translate(0.000000, 2.000000)">
                            <path d="M43.4722071,18.4452 L43.4722071,18.44444 L43.4722071,18.4452 Z M147.582386,27.89998 L147.635118,27.90074 C150.769843,27.90074 152.975872,25.72524 152.999773,22.6119 C153.011533,21.07024 152.566913,19.65892 151.747856,18.63938 C150.881757,17.56018 149.669294,16.98486 148.24097,16.97346 L148.212518,16.97346 C146.284945,16.97346 144.495083,18.43836 142.740502,21.45252 L142.600894,21.69306 L142.511363,21.43086 C142.068261,20.13924 141.673717,19.06308 141.43775,18.41898 C141.272345,17.96982 141.199506,17.76804 141.182055,17.70268 C141.097835,17.37664 140.819758,17.1741 140.454805,17.1741 C140.230598,17.1741 139.992355,17.25048 139.76701,17.39412 C139.543561,17.53662 139.418749,17.71066 139.373983,17.94322 L139.362602,17.97818 C137.606504,23.46424 136.158833,26.12766 134.931954,26.12766 C134.753651,26.12614 134.614043,26.068 134.510096,25.95172 C134.188771,25.59604 134.267679,24.75016 134.376938,23.579 C134.456984,22.71868 134.548412,21.74474 134.510475,20.71114 C134.438395,18.72412 133.352642,17.53092 131.607925,17.518 C129.390135,17.51724 127.953086,19.88312 127.291087,21.2933 L127.093436,21.71358 L127.049809,21.24998 C126.884404,19.50502 126.299797,17.42072 124.453788,17.40704 C122.300491,17.40704 120.6601,19.93784 119.659325,22.06204 L119.391111,22.63128 L119.417667,22.00276 C119.53641,19.16986 119.633907,17.4971 119.707884,17.03312 C119.780723,16.56762 119.742407,16.25526 119.59028,16.07628 C119.44612,15.9087 119.174492,15.84676 118.776155,15.87184 C118.086841,15.91554 117.734408,16.33582 117.203671,17.74448 C116.331881,20.05792 114.114471,25.44024 112.343957,25.44024 C111.992661,25.43758 111.714584,25.31788 111.510863,25.08342 C110.768438,24.23108 111.065484,21.926 111.47634,18.73666 L111.507448,18.49536 C111.702065,16.98524 111.370496,16.663 110.551439,16.51214 C110.469366,16.4966676 110.386084,16.4885289 110.302573,16.48782 C109.648541,16.48782 109.34277,17.1152 108.731986,18.85864 C107.645095,21.96096 106.247121,25.22364 104.6128,25.22364 C104.55286,25.22364 104.494057,25.21908 104.433738,25.20958 C103.567639,25.06176 103.586607,23.77508 103.610508,22.1445 C103.622647,21.2629 103.637443,20.26312 103.502008,19.36062 C103.257695,17.74106 102.305479,16.72988 101.015246,16.71962 C98.4416077,16.71962 96.7059954,20.02106 95.8986986,21.98946 L95.7158429,22.43482 L95.6547645,21.95678 C95.4962096,20.6932898 95.3920396,19.4235472 95.342544,18.15108 L95.3402678,18.10358 L95.3694792,18.06634 C100.186325,11.9928 102.347968,7.60988 102.3768,3.85472 C102.395389,1.45578 101.290288,0.01482 99.4211379,0 C98.0542721,0 94.804599,1.14038 93.6752181,11.70286 C93.464184,13.685763 93.3502369,15.6778296 93.3337862,17.6719 L93.3330275,17.71142 L93.3106447,17.74334 C91.1068914,20.93838 86.403477,26.43432 81.7986986,26.43432 C77.638161,26.43432 74.318684,23.06258 74.318684,17.11102 C74.318684,9.13254 79.9564837,4.23396 84.1993443,4.23396 L84.2346256,4.23396 C85.1564918,4.2408 85.9470963,4.49882 86.520702,4.9799 C87.116311,5.47922 87.4285315,6.17918 87.4220822,7.00378 C87.4137361,8.1054 87.0552326,8.6716 86.7088689,9.21842 C86.620476,9.3594 86.5313243,9.49924 86.4501394,9.64744 C86.3681957,9.79716 86.2934601,10.01414 86.4023389,10.19996 C86.5138733,10.39034 86.7987793,10.51004 87.1459017,10.5127 C88.1557815,10.5127 89.6831203,9.04818 89.6998125,6.8419 C89.7172635,4.53264 87.7752746,2.15308 84.3104994,2.15308 C79.0672432,2.15308 72.005293,7.923 72.005293,17.27404 C72.005293,23.8887 76.1457241,28.46048 81.7543124,28.46048 C85.7342705,28.46048 89.6713598,25.60592 93.1581384,20.83806 L93.3717231,20.54926 L93.3868978,20.90798 C93.4608747,22.65332 93.5872046,24.02816 93.6793912,25.0325 C93.7389521,25.67812 93.7822001,26.14438 93.7806826,26.40164 C93.7761302,26.96518 93.8675581,27.35734 94.0621743,27.5975 C94.2560317,27.83804 94.5640792,27.95166 95.0314616,27.9547 C95.8144788,27.9547 95.9715374,27.42004 96.2814818,26.10068 L96.3706334,25.7241 C96.7560721,24.12544 98.1794638,18.90728 100.320242,18.90728 C100.67002,18.9107 100.939751,19.01406 101.131332,19.21736 C101.604026,19.71972 101.552432,20.75066 101.492492,21.945 C101.454555,22.69018 101.416618,23.45968 101.490974,24.20942 C101.692419,26.2333 102.564967,27.2232 104.157937,27.2346 C105.793775,27.23536 107.500935,25.47026 108.401935,23.83018 L108.571893,23.52124 L108.638282,23.86856 C108.804446,24.74636 109.548009,27.62752 111.876195,27.62752 C113.986244,27.62752 115.796592,25.40186 117.780691,20.82096 L118.040558,20.22284 L118.024625,20.8753 C117.982515,22.61114 117.888811,24.73078 117.888052,26.36972 C117.887294,27.6374 118.015141,28.12114 118.600127,28.12114 L118.732907,28.12722 C119.293993,28.12722 119.674879,27.79168 119.864943,27.1282 C121.358139,21.91574 122.648372,19.4883 123.926845,19.4883 C125.178762,19.4978 125.295987,21.79072 125.396519,25.84228 L125.403348,26.12652 C125.433698,27.54354 125.484912,28.17054 126.363531,28.177 C127.030461,28.177 127.196245,27.65222 127.541091,26.36022 C127.607101,26.11398 127.678423,25.8438 127.763022,25.55196 C128.968656,21.36246 129.967913,19.65322 131.212243,19.65322 C132.277511,19.6612 132.336692,20.7613 132.356419,21.12268 C132.397391,21.89674 132.317724,22.70728 132.241091,23.4897 C132.169391,24.21702 132.095793,24.96942 132.123487,25.66824 C132.188738,27.3068 133.084049,28.21614 134.645531,28.22792 C136.672119,28.22792 138.501435,25.85368 140.10351,21.17284 L140.214665,20.8468 L140.341753,21.1679 C140.632729,21.90358 141.011339,22.89956 141.361497,24.08782 L141.374774,24.13304 L141.355427,24.17598 C139.803808,27.62638 138.709329,31.4697 138.693775,33.52322 C138.67291,36.22768 139.894477,37.98518 141.806117,38 L141.839122,38 C142.878972,38 145.302759,37.58162 145.349801,33.7117 C145.369149,32.12558 144.994712,29.88282 144.23863,27.0446 L144.151754,26.7197 L144.43059,26.9059 C145.399119,27.54772 146.487528,27.89086 147.582386,27.89998 Z M95.3482345,14.77516 C95.3914826,13.8054 95.4730468,12.8611 95.5887543,11.9681 C96.3391458,6.21414 97.9044215,2.19602 99.3972377,2.19602 L99.4040663,2.19602 C100.115762,2.20134 100.47161,2.74056 100.464402,3.79772 C100.443916,6.39578 98.8004906,10.11522 95.5804082,14.85268 L95.3285073,15.22356 L95.3482345,14.77516 Z M142.948776,35.46122 C142.711291,35.77814 142.380481,35.93888 141.96621,35.93888 C141.490482,35.9347 141.133117,35.76902 140.889941,35.44336 C140.208595,34.53174 140.400555,32.38854 141.512106,28.49848 C141.645264,28.03336 141.789045,27.56634 141.941551,27.1092 L142.070537,26.72122 L142.183968,27.11376 C143.478754,31.60422 143.735966,34.41242 142.948776,35.46122 Z M143.351665,23.95672 L143.328144,23.91378 L143.281103,23.76444 L143.303106,23.71998 C144.779609,20.67238 146.471594,18.92552 147.943545,18.92552 L147.95872,18.92552 C149.621114,18.93806 150.770601,20.43678 150.754668,22.5682 C150.743666,23.99092 150.117328,24.8102 149.594558,25.24682 C148.997811,25.74538 148.203033,26.03038 147.413946,26.03038 C145.468543,26.01556 144.133165,24.89418 143.351665,23.95672 Z M147.943545,19.05358 L147.943545,19.05168 L147.943545,19.05358 Z M49.1790519,27.3961 C51.4582996,27.2137 53.2663713,24.10872 53.9378541,22.78176 L54.1108462,22.43976 L54.1764771,22.81748 C54.4989405,24.68328 55.5122346,27.81828 58.6818609,27.84336 L58.7084167,27.84336 C60.0794555,27.84336 61.6348676,27.00318 63.2069719,25.4144 L63.3223,25.29774 L63.4061405,25.43796 C64.4645795,27.21104 65.8841775,28.15306 67.3955828,28.07554 C69.6205808,27.95964 70.9711337,26.38036 71.0898761,25.2833 C71.1202256,25.00362 71.0466281,24.74028 70.8869138,24.56282 C70.6869865,24.33938 70.39639,24.31354 70.1831847,24.51836 L70.0811345,24.61488 C69.5632961,25.11306 68.5981819,26.0414 67.5465716,26.09612 C66.2589939,26.1592 65.3067782,25.38818 64.691442,23.79674 L64.6660243,23.72986 L64.7092723,23.67362 C68.2499213,19.03496 70.7344076,11.95708 70.488956,7.20974 C70.3759041,5.01258 69.7381851,2.39324 67.3424712,2.39324 L67.1637885,2.3978 C66.2460953,2.4453 65.411484,2.88344 64.6834753,3.6993 C62.4607535,6.1902 61.2976087,12.32112 61.7198462,19.31882 C61.807101,20.7727 62.0593813,22.13158 62.4687202,23.35632 L62.4918617,23.4251 L62.4451994,23.48058 C61.1314452,25.01844 59.835142,25.86546 58.7949128,25.86546 C56.2922168,25.86546 56.3764367,21.6619 56.5740878,18.17654 C56.6169565,17.4249 56.6803111,16.9461 56.4583804,16.67402 C56.2998042,16.47908 56.0342461,16.38294 55.6472899,16.3799 L55.602145,16.37952 C54.7113871,16.37952 54.525117,16.56306 54.0694951,17.88698 C53.1214524,20.63742 51.2500261,25.25328 49.3675982,25.25328 C48.8459661,25.24834 48.4476288,25.07012 48.1748627,24.72204 C47.261722,23.55468 47.9552081,20.64312 48.5121215,18.3027 C48.6122749,17.88204 48.7082552,17.4781 48.7905782,17.10418 C48.9123556,16.54938 48.8751775,16.14468 48.6794232,15.89958 C48.4829101,15.65524 48.0910222,15.55644 47.5739425,15.59748 C46.7677838,15.66208 46.2522216,16.00028 46.0029763,17.53586 L45.9528996,17.85506 L45.7654914,17.62782 C45.4134372,17.10722 44.727159,16.48706 43.4528593,16.48706 C43.3413248,16.48706 43.2256173,16.49162 43.1061162,16.50112 C41.7464584,16.61284 40.1982543,17.5617 39.0650797,18.97796 C37.7422208,20.63134 37.1101923,22.724 37.2862195,24.87138 C37.2953243,24.985 37.3116372,25.09406 37.32795,25.20236 L37.3370549,25.26202 L37.296083,25.30724 C36.5047197,26.1706 35.6981817,26.60912 34.899231,26.60912 C33.665903,26.6 32.9583802,25.68192 32.9583802,24.15242 C32.9583802,21.5783 34.7000624,13.81756 34.7000624,11.00822 C34.7000624,8.01838 33.3699954,6.39084 31.0603981,6.37298 L31.0254962,6.37298 C27.6529076,6.37298 25.0246406,10.20604 22.5094254,18.09256 C22.2705044,18.8496368 22.0385737,19.6089092 21.8136631,20.37028 L21.4604707,21.55626 L21.5647971,20.32354 C21.7923108,17.679896 21.9513198,15.0307849 22.0416637,12.37888 C22.1668554,8.56748 21.6528107,6.11458 20.4688007,4.88034 C19.830323,4.21458 18.985848,3.88664 17.8856785,3.87828 L17.8576052,3.87828 C13.7308315,3.87828 11.7539407,10.84976 10.3142361,15.76886 C9.8798588,17.2539 9.02362343,20.6036 8.45191465,22.89348 L8.79069099,22.3421 C9.04448871,19.45866 9.78008481,12.236 9.73190497,8.31744 C9.67955208,4.11388 8.28271617,2.22946 5.20034469,2.2059 L5.16240781,2.2059 C3.51594723,2.2059 2.37366778,3.02556 1.70559933,3.71298 C0.632744369,4.8165 -0.0357034517,6.42922 0.00147469045,7.82192 C0.0242368183,8.66856 0.542833964,9.4221 0.935860038,9.4221 C1.19193398,9.4221 1.33381791,9.07972 1.39527565,8.87566 C2.34900881,5.71824 3.58309551,4.18304 5.16658087,4.18304 C5.82326825,4.18798 6.31227463,4.38178 6.67798615,4.77584 C7.91548717,6.10546 7.69014211,9.6957 7.28232065,16.21384 C7.15030031,18.31448 7.00158774,20.69442 6.87601667,23.40192 C6.85410951,23.8486528 6.82805839,24.2951721 6.79786669,24.74142 C6.67760679,26.62128 6.58200585,28.10708 7.29408108,28.21766 C8.22049968,28.36244 8.8233167,27.98548 9.1321229,27.0674 C9.58964167,25.70472 10.6158343,21.98034 12.6014506,15.17492 C14.5066407,8.64424 15.9459659,6.2681 17.787422,6.2681 C19.9149222,6.2681 20.0734984,9.92712 19.6835073,17.64872 C19.6004255,19.28576 19.4892704,21.13978 19.4039125,23.1572 C19.392152,23.44068 19.3788741,23.7158 19.3652168,23.98028 C19.2832732,25.65114 19.2187805,26.9686 19.6952677,27.474 C19.8439803,27.63132 20.0458045,27.70922 20.3132595,27.71074 C21.235505,27.71074 21.5128236,26.90096 21.9722392,25.55842 C22.0534241,25.32168 22.1395409,25.0686 22.2355212,24.80412 C25.3956632,16.0721 27.7321957,8.49604 30.8684375,8.49604 C31.8088928,8.49604 32.5410745,9.26136 32.5410745,10.754 C32.5410745,14.19946 30.8589533,20.85668 30.8589533,24.2326 C30.8589533,25.44214 31.2064551,26.52742 31.8627631,27.29046 C32.5365221,28.07402 33.4792536,28.49126 34.5889073,28.50076 L34.6131869,28.50076 C35.662521,28.50076 36.7554825,27.99004 37.8632394,26.98304 L37.9671864,26.8888 L38.0506476,27.00166 C38.7801738,27.98358 39.9569758,28.5114 41.2278613,28.41336 C43.1770581,28.26136 44.812517,26.52286 45.4210246,24.88354 L45.5401464,24.56282 L45.6588888,24.88354 C46.1110964,26.09992 47.0891092,27.56596 49.1790519,27.3961 Z M67.1398882,4.58014 L67.1732727,4.57938 C67.3959622,4.57938 67.5917165,4.6911 67.7540863,4.91226 C68.5279987,5.9603 68.5397591,9.78576 67.208554,14.13828 C66.4479195,16.62576 65.4247619,18.97568 64.2509948,20.93306 L64.0635866,21.24466 L64.0157862,20.88404 C63.8776959,19.83144 63.8094096,18.73552 63.7616091,17.803 C63.422074,11.22406 65.4088284,4.6702 67.1398882,4.58014 Z M45.5128318,19.95608 C44.8307267,22.70538 43.5226631,26.0243 41.1641273,26.2143 L40.9721667,26.22228 C39.9937746,26.22228 39.4452073,25.58084 39.3416396,24.31468 C39.2118955,22.73084 39.8936212,20.87606 41.0780106,19.58824 C41.8318164,18.7682 42.6823612,18.31676 43.4725864,18.31676 L43.4885199,18.31676 C44.4858805,18.32436 45.1850572,19.12654 45.5063826,19.87476 L45.5234542,19.91352 L45.5128318,19.95608 Z M56.4519311,9.87658 C55.5812797,9.87658 54.8783093,10.56362 54.8714807,11.40836 C54.864652,12.25918 55.5634494,12.95686 56.4284102,12.96332 L56.4409294,13.08986 L56.4409294,12.96332 C57.2990616,12.96332 58.0016526,12.27666 58.0084813,11.4323 C58.0153099,10.5811 57.316892,9.88342 56.4519311,9.87658 Z M111.192193,9.87658 C110.321542,9.87658 109.618951,10.56362 109.611743,11.40836 C109.604914,12.25918 110.303332,12.95686 111.168672,12.96332 L111.180812,13.08986 L111.180812,12.96332 C112.039703,12.96332 112.742294,12.27666 112.749123,11.4323 C112.755192,10.5811 112.057154,9.88342 111.192193,9.87658 Z" id="Shape"></path>
                            <path d="M153.999823,26 C153.447764,26.0009778 153.000586,26.4486325 153,27.0008873 C153.001173,27.5526109 153.448294,27.9994145 153.999823,28 C154.551409,27.9994151 154.998632,27.5526683 155,27.0008873 C154.999609,26.4484132 154.552101,26.0005872 153.999823,26 Z M153.999823,27.8555457 C153.526521,27.8555457 153.145113,27.4747116 153.145113,27.0012422 C153.145113,26.5277728 153.526521,26.145874 153.999823,26.145874 C154.472769,26.145874 154.854887,26.5277728 154.854887,27.0012422 C154.854887,27.4747116 154.472769,27.8555457 153.999823,27.8555457 Z M154.442966,26.7396628 C154.442966,26.5330967 154.341494,26.4202307 154.080362,26.4202307 L153.636864,26.4202307 L153.636864,27.5730257 L153.781976,27.5730257 L153.781976,27.068323 L153.989179,27.068323 L154.333333,27.5730257 L154.49725,27.5730257 L154.153096,27.068323 C154.309207,27.0409938 154.442966,26.9522626 154.442966,26.7396628 Z M153.967891,26.9384206 L153.782686,26.9384206 L153.782686,26.5483585 L154.040624,26.5483585 C154.164449,26.5483585 154.299273,26.5913043 154.299273,26.738953 C154.298208,26.9309672 154.126486,26.9384206 153.967891,26.9384206 Z" id="Shape"></path>
                        </g>
                    </g>
                </g>
            </g>
        </g>
    </g>
</svg>