<svg width="72" height="70" viewBox="0 0 72 70" fill="none" xmlns="http://www.w3.org/2000/svg">
<path d="M71.4005 1.23876C71.4005 0.743479 70.9547 0.387722 70.4048 0.444157C69.8549 0.500591 69.4092 0.947845 69.4092 1.44313L71.4005 1.23876ZM6.66702 69.3845C7.05584 69.6948 7.68626 69.6301 8.07509 69.24L14.4114 62.8826C14.8002 62.4924 14.8002 61.9246 14.4114 61.6143C14.0226 61.304 13.3922 61.3687 13.0033 61.7588L7.37105 67.4098L1.73877 62.9149C1.34995 62.6046 0.71953 62.6693 0.330704 63.0594C-0.0581228 63.4495 -0.0581243 64.0173 0.330705 64.3276L6.66702 69.3845ZM8.39704 66.3964C8.41107 65.8998 7.97683 65.5328 7.42712 65.5765C6.87742 65.6203 6.42041 66.0583 6.40637 66.5549L8.39704 66.3964ZM6.66074 62.2331C6.61517 62.7313 7.02247 63.1229 7.57047 63.1077C8.11846 63.0925 8.59964 62.6763 8.6452 62.1781L6.66074 62.2331ZM9.189 57.9599C9.2733 57.4619 8.90115 57.0417 8.35776 57.0216C7.81438 57.0014 7.30553 57.3888 7.22123 57.8869L9.189 57.9599ZM8.16457 53.5271C8.03234 54.0214 8.35784 54.4743 8.89159 54.5386C9.42535 54.6029 9.96523 54.2543 10.0975 53.76L8.16457 53.5271ZM11.4514 49.6301C11.6423 49.146 11.379 48.6571 10.8634 48.5381C10.3477 48.4191 9.77487 48.715 9.58398 49.1991L11.4514 49.6301ZM11.5754 44.9913C11.3155 45.4545 11.4977 45.9794 11.9822 46.1638C12.4668 46.3481 13.0704 46.1221 13.3303 45.659L11.5754 44.9913ZM15.79 41.9602C16.1245 41.5328 16.0419 40.9783 15.6055 40.7218C15.1691 40.4653 14.5441 40.6038 14.2096 41.0312L15.79 41.9602ZM17.5321 37.4243C17.1263 37.8002 17.0981 38.3703 17.4691 38.6978C17.8401 39.0252 18.4699 38.986 18.8758 38.6102L17.5321 37.4243ZM22.4911 35.7387C22.9534 35.4232 23.0869 34.8545 22.7892 34.4686C22.4915 34.0828 21.8754 34.0258 21.413 34.3414L22.4911 35.7387ZM25.7001 31.8028C25.2 32.06 24.9799 32.6147 25.2085 33.0417C25.4371 33.4687 26.0279 33.6063 26.528 33.349L25.7001 31.8028ZM30.8421 31.3938C31.3641 31.1845 31.6472 30.6482 31.4744 30.1957C31.3016 29.7432 30.7383 29.5461 30.2163 29.7553L30.8421 31.3938ZM34.8428 28.0836C34.3093 28.2586 33.9851 28.7788 34.1186 29.2456C34.2521 29.7123 34.7927 29.9489 35.3262 29.7739L34.8428 28.0836ZM39.9113 28.3733C40.4499 28.2181 40.7966 27.7083 40.6857 27.2346C40.5748 26.7608 40.0483 26.5026 39.5097 26.6578L39.9113 28.3733ZM44.1704 25.35C43.6306 25.5001 43.2783 26.0071 43.3834 26.4825C43.4885 26.9578 44.0113 27.2215 44.551 27.0715L44.1704 25.35ZM49.224 25.7346C49.7611 25.5735 50.1012 25.0605 49.9835 24.5887C49.8659 24.117 49.335 23.8652 48.7979 24.0263L49.224 25.7346ZM53.3309 22.5437C52.8026 22.7352 52.4978 23.2636 52.6503 23.7238C52.8027 24.184 53.3546 24.4019 53.8829 24.2103L53.3309 22.5437ZM58.467 22.2945C58.9727 22.0482 59.2077 21.4972 58.9918 21.0638C58.776 20.6304 58.191 20.4788 57.6852 20.7252L58.467 22.2945ZM61.6769 18.3722C61.2236 18.6991 61.1085 19.2692 61.4199 19.6455C61.7312 20.0218 62.351 20.0619 62.8043 19.7349L61.6769 18.3722ZM66.5127 16.3547C66.8676 15.94 66.8148 15.3796 66.3948 15.103C65.9748 14.8264 65.3466 14.9384 64.9917 15.3531L66.5127 16.3547ZM67.3564 11.7275C67.128 12.2015 67.3484 12.7108 67.8486 12.8652C68.3489 13.0195 68.9395 12.7604 69.1679 12.2864L67.3564 11.7275ZM70.7011 7.87065C70.8158 7.37449 70.4729 6.93325 69.9351 6.88511C69.3973 6.83696 68.8683 7.20015 68.7536 7.6963L70.7011 7.87065ZM69.3416 3.58002C69.3091 4.07777 69.7278 4.45929 70.2768 4.43216C70.8257 4.40504 71.297 3.97955 71.3294 3.4818L69.3416 3.58002ZM8.36671 68.5759C8.36671 67.8347 8.37691 67.1083 8.39704 66.3964L6.40637 66.5549C6.3858 67.2826 6.3754 68.0243 6.3754 68.7803L8.36671 68.5759ZM8.6452 62.1781C8.78008 60.7031 8.96245 59.2984 9.189 57.9599L7.22123 57.8869C6.98702 59.2706 6.79928 60.7181 6.66074 62.2331L8.6452 62.1781ZM10.0975 53.76C10.49 52.2925 10.9434 50.9183 11.4514 49.6301L9.58398 49.1991C9.04868 50.5564 8.57388 51.9969 8.16457 53.5271L10.0975 53.76ZM13.3303 45.659C14.0825 44.3185 14.9057 43.09 15.79 41.9602L14.2096 41.0312C13.2586 42.2463 12.3773 43.5624 11.5754 44.9913L13.3303 45.659ZM18.8758 38.6102C20.0161 37.5541 21.2253 36.6028 22.4911 35.7387L21.413 34.3414C20.0596 35.2653 18.7605 36.2867 17.5321 37.4243L18.8758 38.6102ZM26.528 33.349C27.9243 32.6308 29.3666 31.9851 30.8421 31.3938L30.2163 29.7553C28.6835 30.3696 27.1724 31.0455 25.7001 31.8028L26.528 33.349ZM35.3262 29.7739C36.8428 29.2764 38.3751 28.8159 39.9113 28.3733L39.5097 26.6578C37.9573 27.105 36.3957 27.5742 34.8428 28.0836L35.3262 29.7739ZM44.551 27.0715C46.1259 26.6336 47.6913 26.1943 49.224 25.7346L48.7979 24.0263C47.2898 24.4786 45.7441 24.9124 44.1704 25.35L44.551 27.0715ZM53.8829 24.2103C55.4705 23.6348 57.0073 23.0056 58.467 22.2945L57.6852 20.7252C56.3177 21.3913 54.8608 21.9891 53.3309 22.5437L53.8829 24.2103ZM62.8043 19.7349C64.1702 18.7498 65.4174 17.6345 66.5127 16.3547L64.9917 15.3531C64.022 16.4862 62.9108 17.4822 61.6769 18.3722L62.8043 19.7349ZM69.1679 12.2864C69.8143 10.9447 70.3293 9.47833 70.7011 7.87065L68.7536 7.6963C68.4094 9.18492 67.9375 10.5214 67.3564 11.7275L69.1679 12.2864ZM71.3294 3.4818C71.3765 2.75822 71.4005 2.01089 71.4005 1.23876L69.4092 1.44313C69.4092 2.18192 69.3863 2.89382 69.3416 3.58002L71.3294 3.4818Z" fill="#FA5A28"/>
</svg>
