<svg width="217" height="113" viewBox="0 0 217 113" fill="none" xmlns="http://www.w3.org/2000/svg">
<path d="M216.156 1.02742C216.156 0.532134 215.71 0.176376 215.16 0.232811C214.61 0.289245 214.164 0.736498 214.164 1.23178L216.156 1.02742ZM6.66515 111.887C7.05398 112.197 7.68439 112.133 8.07322 111.743L14.4095 105.385C14.7984 104.995 14.7984 104.427 14.4095 104.117C14.0207 103.807 13.3903 103.871 13.0015 104.261L7.36919 109.912L1.73691 105.417C1.34808 105.107 0.717671 105.172 0.328844 105.562C-0.0599822 105.952 -0.0599837 106.52 0.328842 106.83L6.66515 111.887ZM8.4205 108.981C8.44712 108.483 8.02346 108.106 7.47422 108.139C6.92498 108.171 6.45815 108.601 6.43153 109.098L8.4205 108.981ZM6.88958 104.87C6.80741 105.368 7.18156 105.786 7.72528 105.804C8.26899 105.823 8.77636 105.434 8.85853 104.935L6.88958 104.87ZM9.78168 100.855C9.92453 100.362 9.60985 99.9023 9.07885 99.8281C8.54784 99.754 8.00157 100.093 7.85873 100.586L9.78168 100.855ZM9.34192 96.421C9.13768 96.9018 9.38599 97.3982 9.89653 97.5298C10.4071 97.6613 10.9865 97.3782 11.1908 96.8974L9.34192 96.421ZM13.1009 93.0516C13.3646 92.59 13.1873 92.0633 12.7048 91.8753C12.2223 91.6872 11.6173 91.9091 11.3536 92.3707L13.1009 93.0516ZM13.8512 88.5152C13.5335 88.9521 13.6398 89.5009 14.0886 89.741C14.5374 89.9811 15.1588 89.8216 15.4765 89.3847L13.8512 88.5152ZM18.2662 85.9309C18.6303 85.5224 18.5913 84.9596 18.1792 84.674C17.7671 84.3884 17.1379 84.4881 16.7738 84.8966L18.2662 85.9309ZM20.0698 81.5162C19.6674 81.8951 19.6451 82.4648 20.0198 82.7888C20.3946 83.1127 21.0246 83.0682 21.427 82.6894L20.0698 81.5162ZM24.8432 79.7124C25.2759 79.3623 25.3515 78.7908 25.0122 78.436C24.6728 78.0811 24.0469 78.0772 23.6143 78.4273L24.8432 79.7124ZM27.4084 75.5611C26.9518 75.8839 26.83 76.4535 27.1363 76.8333C27.4427 77.2132 28.0612 77.2594 28.5179 76.9366L27.4084 75.5611ZM32.3797 74.3686C32.855 74.0708 33.0161 73.5053 32.7396 73.1055C32.4631 72.7058 31.8536 72.6232 31.3783 72.9211L32.3797 74.3686ZM35.4498 70.5051C34.9601 70.7807 34.7658 71.3408 35.0159 71.7562C35.266 72.1716 35.8658 72.285 36.3555 72.0095L35.4498 70.5051ZM40.5024 69.7903C41.0035 69.535 41.2262 68.9809 40.9998 68.5528C40.7734 68.1247 40.1837 67.9846 39.6825 68.24L40.5024 69.7903ZM43.9199 66.1754C43.41 66.4132 43.1636 66.9611 43.3694 67.3992C43.5753 67.8374 44.1555 67.9998 44.6654 67.7621L43.9199 66.1754ZM48.9558 65.8433C49.4727 65.6213 49.7398 65.0796 49.5523 64.6332C49.3648 64.1869 48.7937 64.0049 48.2768 64.2269L48.9558 65.8433ZM52.6457 62.421C52.1233 62.6291 51.8387 63.1649 52.0102 63.6179C52.1816 64.0709 52.7442 64.2695 53.2666 64.0614L52.6457 62.421ZM57.6475 62.3773C58.1744 62.1816 58.4741 61.6513 58.3169 61.1928C58.1596 60.7343 57.605 60.5213 57.0781 60.717L57.6475 62.3773ZM61.5264 59.1176C60.9959 59.3024 60.6831 59.8275 60.8278 60.2905C60.9725 60.7535 61.5198 60.979 62.0504 60.7942L61.5264 59.1176ZM66.4926 59.2927C67.026 59.1176 67.3501 58.5973 67.2165 58.1306C67.0829 57.6639 66.5422 57.4274 66.0088 57.6025L66.4926 59.2927ZM70.5039 56.1672C69.9681 56.3337 69.6342 56.8496 69.758 57.3195C69.8818 57.7893 70.4165 58.0353 70.9523 57.8688L70.5039 56.1672ZM75.4387 56.5095C75.9764 56.3506 76.319 55.8388 76.2038 55.3663C76.0887 54.8938 75.5594 54.6396 75.0218 54.7985L75.4387 56.5095ZM79.5444 53.4927C79.0051 53.6449 78.6551 54.1531 78.7627 54.6278C78.8702 55.1025 79.3945 55.3639 79.9338 55.2117L79.5444 53.4927ZM84.4526 53.9632C84.9932 53.8169 85.3497 53.312 85.2489 52.8355C85.148 52.359 84.6281 52.0912 84.0875 52.2375L84.4526 53.9632ZM88.6269 51.0325C88.0853 51.1736 87.7232 51.6756 87.8182 52.1537C87.9132 52.6318 88.4292 52.9049 88.9708 52.7638L88.6269 51.0325ZM93.5121 51.6009C94.0546 51.4643 94.4215 50.9649 94.3316 50.4855C94.2418 50.0061 93.7291 49.7282 93.1866 49.8648L93.5121 51.6009ZM97.7376 48.7361C97.1944 48.8688 96.8234 49.366 96.9089 49.8465C96.9944 50.3269 97.5041 50.6088 98.0473 50.4761L97.7376 48.7361ZM102.602 49.3776C103.145 49.2481 103.52 48.7529 103.438 48.2716C103.356 47.7902 102.849 47.5049 102.305 47.6344L102.602 49.3776ZM106.866 46.5604C106.322 46.6872 105.945 47.1808 106.023 47.6629C106.102 48.145 106.607 48.433 107.151 48.3063L106.866 46.5604ZM111.71 47.2539C112.254 47.1292 112.634 46.6369 112.558 46.1543C112.481 45.6716 111.978 45.3814 111.433 45.506L111.71 47.2539ZM116.004 44.4672C115.459 44.5902 115.078 45.0816 115.153 45.5646C115.227 46.0477 115.729 46.3396 116.274 46.2165L116.004 44.4672ZM120.831 45.1925C121.376 45.0705 121.758 44.5798 121.685 44.0965C121.612 43.6132 121.111 43.3202 120.566 43.4422L120.831 45.1925ZM125.145 42.4201C124.6 42.5416 124.217 43.0319 124.29 43.5154C124.362 43.9989 124.863 44.2924 125.408 44.171L125.145 42.4201ZM129.964 43.1565C130.509 43.0351 130.892 42.5447 130.82 42.0612C130.747 41.5778 130.246 41.2843 129.701 41.4057L129.964 43.1565ZM134.282 40.3832C133.737 40.5052 133.355 40.9959 133.428 41.4792C133.501 41.9626 134.003 42.2555 134.548 42.1335L134.282 40.3832ZM139.103 41.1092C139.648 40.9861 140.029 40.4947 139.954 40.0116C139.879 39.5286 139.377 39.2369 138.832 39.36L139.103 41.1092ZM143.409 38.3179C142.865 38.4429 142.485 38.9354 142.562 39.418C142.639 39.9006 143.142 40.1904 143.687 40.0655L143.409 38.3179ZM148.238 39.0104C148.782 38.8829 149.159 38.3888 149.079 37.9069C149 37.425 148.494 37.1377 147.95 37.2652L148.238 39.0104ZM152.519 36.1808C151.975 36.3116 151.602 36.8076 151.686 37.2886C151.769 37.7696 152.277 38.0535 152.821 37.9227L152.519 36.1808ZM157.361 36.8124C157.904 36.6775 158.273 36.179 158.185 35.6992C158.097 35.2193 157.585 34.9397 157.043 35.0747L157.361 36.8124ZM161.601 33.9191C161.059 34.0593 160.696 34.5607 160.79 35.0391C160.884 35.5175 161.399 35.7916 161.941 35.6515L161.601 33.9191ZM166.457 34.4564C166.997 34.3099 167.353 33.8049 167.252 33.3284C167.151 32.8519 166.631 32.5844 166.091 32.7309L166.457 34.4564ZM170.635 31.4656C170.096 31.6199 169.749 32.1293 169.859 32.6033C169.969 33.0773 170.494 33.3365 171.033 33.1822L170.635 31.4656ZM175.508 31.8609C176.044 31.6973 176.381 31.183 176.261 30.7121C176.14 30.2412 175.608 29.9921 175.071 30.1557L175.508 31.8609ZM179.582 28.7295C179.048 28.9046 178.724 29.425 178.858 29.8917C178.992 30.3584 179.532 30.5947 180.066 30.4195L179.582 28.7295ZM184.532 28.8901C185.062 28.7009 185.369 28.1737 185.219 27.7125C185.07 27.2513 184.519 27.0308 183.99 27.22L184.532 28.8901ZM188.353 25.5828C187.83 25.7892 187.543 26.3244 187.713 26.7781C187.882 27.2319 188.444 27.4324 188.967 27.2259L188.353 25.5828ZM193.394 25.3756C193.908 25.1474 194.167 24.6032 193.973 24.16C193.778 23.7168 193.203 23.5425 192.689 23.7706L193.394 25.3756ZM196.869 21.787C196.368 22.0421 196.145 22.5961 196.371 23.0244C196.598 23.4526 197.187 23.5929 197.689 23.3377L196.869 21.787ZM201.847 21.0427C202.328 20.7536 202.502 20.19 202.236 19.7839C201.97 19.3779 201.364 19.2831 200.883 19.5722L201.847 21.0427ZM204.726 17.0161C204.278 17.3487 204.172 17.9193 204.49 18.2906C204.808 18.6619 205.43 18.6933 205.878 18.3606L204.726 17.0161ZM209.553 15.2574C209.948 14.8725 209.958 14.3037 209.576 13.9869C209.194 13.6701 208.564 13.7252 208.168 14.1101L209.553 15.2574ZM211.017 10.8112C210.705 11.2515 210.82 11.7979 211.274 12.0317C211.727 12.2656 212.347 12.0983 212.658 11.658L211.017 10.8112ZM214.894 7.59046C215.088 7.10707 214.827 6.61651 214.313 6.49475C213.798 6.373 213.224 6.66616 213.03 7.14955L214.894 7.59046ZM214.039 3.26162C213.976 3.7601 214.368 4.16455 214.914 4.16496C215.461 4.16538 215.954 3.76162 216.017 3.26313L214.039 3.26162ZM8.36484 111.078C8.36484 110.371 8.38353 109.671 8.4205 108.981L6.43153 109.098C6.39297 109.818 6.37353 110.547 6.37353 111.283L8.36484 111.078ZM8.85853 104.935C9.08871 103.54 9.39765 102.18 9.78168 100.855L7.85873 100.586C7.45491 101.98 7.13075 103.407 6.88958 104.87L8.85853 104.935ZM11.1908 96.8974C11.7499 95.5811 12.3879 94.2997 13.1009 93.0516L11.3536 92.3707C10.6029 93.6848 9.93092 95.0344 9.34192 96.421L11.1908 96.8974ZM15.4765 89.3847C16.3358 88.2031 17.2669 87.0523 18.2662 85.9309L16.7738 84.8966C15.7291 86.069 14.7534 87.2747 13.8512 88.5152L15.4765 89.3847ZM21.427 82.6894C22.5076 81.672 23.6473 80.68 24.8432 79.7124L23.6143 78.4273C22.3765 79.4288 21.1937 80.4579 20.0698 81.5162L21.427 82.6894ZM28.5179 76.9366C29.7582 76.0598 31.0464 75.2041 32.3797 74.3686L31.3783 72.9211C30.0105 73.7782 28.6861 74.6578 27.4084 75.5611L28.5179 76.9366ZM36.3555 72.0095C37.7007 71.2526 39.0838 70.5132 40.5024 69.7903L39.6825 68.24C38.2367 68.9767 36.8249 69.7314 35.4498 70.5051L36.3555 72.0095ZM44.6654 67.7621C46.0669 67.1086 47.4977 66.4693 48.9558 65.8433L48.2768 64.2269C46.7977 64.8619 45.3447 65.5111 43.9199 66.1754L44.6654 67.7621ZM53.2666 64.0614C54.7048 63.4887 56.1656 62.9276 57.6475 62.3773L57.0781 60.717C55.58 61.2734 54.1019 61.8411 52.6457 62.421L53.2666 64.0614ZM62.0504 60.7942C63.514 60.2844 64.9953 59.7841 66.4926 59.2927L66.0088 57.6025C64.4989 58.0981 63.0041 58.6029 61.5264 59.1176L62.0504 60.7942ZM70.9523 57.8688C72.4348 57.408 73.9308 56.9551 75.4387 56.5095L75.0218 54.7985C73.504 55.247 71.9975 55.7031 70.5039 56.1672L70.9523 57.8688ZM79.9338 55.2117C81.4306 54.7893 82.9373 54.3733 84.4526 53.9632L84.0875 52.2375C82.5647 52.6496 81.0498 53.0679 79.5444 53.4927L79.9338 55.2117ZM88.9708 52.7638C90.4782 52.3711 91.9924 51.9836 93.5121 51.6009L93.1866 49.8648C91.6612 50.249 90.1408 50.638 88.6269 51.0325L88.9708 52.7638ZM98.0473 50.4761C99.5618 50.1059 101.08 49.7399 102.602 49.3776L102.305 47.6344C100.78 47.9977 99.2569 48.3647 97.7376 48.7361L98.0473 50.4761ZM107.151 48.3063C108.67 47.9524 110.19 47.6018 111.71 47.2539L111.433 45.506C109.911 45.8546 108.388 46.2059 106.866 46.5604L107.151 48.3063ZM116.274 46.2165C117.795 45.8731 119.314 45.5319 120.831 45.1925L120.566 43.4422C119.048 43.7819 117.527 44.1234 116.004 44.4672L116.274 46.2165ZM125.408 44.171C126.928 43.8325 128.454 43.4929 129.964 43.1565L129.701 41.4057C128.184 41.7436 126.672 42.08 125.145 42.4201L125.408 44.171ZM134.548 42.1335C136.073 41.792 137.592 41.4507 139.103 41.1092L138.832 39.36C137.324 39.7011 135.806 40.042 134.282 40.3832L134.548 42.1335ZM143.687 40.0655C145.215 39.7148 146.732 39.3633 148.238 39.0104L147.95 37.2652C146.448 37.6172 144.934 37.9679 143.409 38.3179L143.687 40.0655ZM152.821 37.9227C154.349 37.5549 155.863 37.185 157.361 36.8124L157.043 35.0747C155.55 35.4457 154.042 35.8142 152.519 36.1808L152.821 37.9227ZM161.941 35.6515C163.465 35.257 164.971 34.8589 166.457 34.4564L166.091 32.7309C164.615 33.1309 163.118 33.5267 161.601 33.9191L161.941 35.6515ZM171.033 33.1822C172.55 32.7478 174.043 32.3076 175.508 31.8609L175.071 30.1557C173.62 30.5982 172.141 31.0346 170.635 31.4656L171.033 33.1822ZM180.066 30.4195C181.59 29.9189 183.08 29.4095 184.532 28.8901L183.99 27.22C182.558 27.7319 181.088 28.2347 179.582 28.7295L180.066 30.4195ZM188.967 27.2259C190.493 26.6236 191.97 26.0074 193.394 25.3756L192.689 23.7706C191.298 24.3878 189.851 24.9914 188.353 25.5828L188.967 27.2259ZM197.689 23.3377C199.147 22.5955 200.535 21.8312 201.847 21.0427L200.883 19.5722C199.623 20.3293 198.284 21.067 196.869 21.787L197.689 23.3377ZM205.878 18.3606C207.219 17.3665 208.447 16.3333 209.553 15.2574L208.168 14.1101C207.144 15.1077 205.994 16.0756 204.726 17.0161L205.878 18.3606ZM212.658 11.658C213.577 10.359 214.327 9.00438 214.894 7.59046L213.03 7.14955C212.523 8.4153 211.849 9.63415 211.017 10.8112L212.658 11.658ZM216.017 3.26313C216.109 2.53026 216.156 1.78512 216.156 1.02742L214.164 1.23178C214.164 1.92317 214.122 2.59956 214.039 3.26162L216.017 3.26313Z" fill="#FA5A28"/>
</svg>
