<svg width="392" height="137" viewBox="0 0 392 137" fill="none" xmlns="http://www.w3.org/2000/svg">
<path fill-rule="evenodd" clip-rule="evenodd" d="M200.802 113.696C197.831 115.435 194.17 115.435 191.199 113.696L159.802 95.3144C156.83 93.5746 155 90.3604 155 86.8814V50.119C155 46.64 156.83 43.4252 159.802 41.686L191.199 23.3048C194.17 21.5651 197.831 21.5651 200.802 23.3048L232.198 41.686C235.17 43.4252 237 46.64 237 50.119V86.8814C237 90.3604 235.17 93.5746 232.198 95.3144L200.802 113.696Z" fill="#FA5A28"/>
<path d="M193.32 76.14L192.06 57.78L191.76 49.8H200.64L200.34 57.78L199.08 76.14H193.32ZM196.2 90.72C194.68 90.72 193.4 90.2 192.36 89.16C191.36 88.08 190.86 86.76 190.86 85.2C190.86 83.6 191.36 82.28 192.36 81.24C193.4 80.16 194.68 79.62 196.2 79.62C197.72 79.62 198.98 80.16 199.98 81.24C201.02 82.28 201.54 83.6 201.54 85.2C201.54 86.76 201.02 88.08 199.98 89.16C198.98 90.2 197.72 90.72 196.2 90.72Z" fill="white"/>
<g filter="url(#filter0_d_1175_11181)">
<path fill-rule="evenodd" clip-rule="evenodd" d="M11.4831 10C9.55942 10 8 11.5594 8 13.483V60.5169C8 62.4406 9.55941 64 11.483 64H142.517C144.441 64 146 62.4406 146 60.5169V44.119C146 40.64 147.83 37.4252 150.802 35.686L174.277 21.9427C175.344 21.3178 176 20.1737 176 18.9368V13.4831C176 11.5594 174.441 10 172.517 10H11.4831Z" fill="white"/>
</g>
<path d="M8 13C8 11.3431 9.34315 10 11 10V64C9.34315 64 8 62.6569 8 61V13Z" fill="#FA5A28"/>
<g filter="url(#filter1_d_1175_11181)">
<path fill-rule="evenodd" clip-rule="evenodd" d="M11.4831 127C9.55942 127 8 125.441 8 123.517V76.4832C8 74.5595 9.55941 73.0001 11.483 73.0001H142.517C144.441 73.0001 146 74.5595 146 76.4832V92.881C146 96.36 147.83 99.5748 150.802 101.314L174.277 115.057C175.344 115.682 176 116.826 176 118.063V123.517C176 125.441 174.441 127 172.517 127H11.4831Z" fill="white"/>
</g>
<path d="M8 76C8 74.3431 9.34315 73 11 73V127C9.34315 127 8 125.657 8 124V76Z" fill="#FA5A28"/>
<g filter="url(#filter2_d_1175_11181)">
<path fill-rule="evenodd" clip-rule="evenodd" d="M380.517 10C382.441 10 384 11.5594 384 13.483V60.5169C384 62.4406 382.441 64 380.517 64H249.483C247.559 64 246 62.4406 246 60.5169V44.119C246 40.64 244.17 37.4252 241.198 35.686L217.723 21.9427C216.656 21.3178 216 20.1737 216 18.9368V13.4831C216 11.5594 217.559 10 219.483 10H380.517Z" fill="white"/>
</g>
<path d="M384 13C384 11.3431 382.657 10 381 10V64C382.657 64 384 62.6569 384 61V13Z" fill="#FA5A28"/>
<g filter="url(#filter3_d_1175_11181)">
<path fill-rule="evenodd" clip-rule="evenodd" d="M380.517 127C382.441 127 384 125.441 384 123.517V76.4832C384 74.5595 382.441 73.0001 380.517 73.0001H249.483C247.559 73.0001 246 74.5595 246 76.4832V92.881C246 96.36 244.17 99.5748 241.198 101.314L217.723 115.057C216.656 115.682 216 116.826 216 118.063V123.517C216 125.441 217.559 127 219.483 127H380.517Z" fill="white"/>
</g>
<path d="M384 76C384 74.3431 382.657 73 381 73V127C382.657 127 384 125.657 384 124V76Z" fill="#FA5A28"/>
<defs>
<filter id="filter0_d_1175_11181" x="2.19491" y="5.35593" width="179.61" height="65.6102" filterUnits="userSpaceOnUse" color-interpolation-filters="sRGB">
<feFlood flood-opacity="0" result="BackgroundImageFix"/>
<feColorMatrix in="SourceAlpha" type="matrix" values="0 0 0 0 0 0 0 0 0 0 0 0 0 0 0 0 0 0 127 0" result="hardAlpha"/>
<feOffset dy="1.16102"/>
<feGaussianBlur stdDeviation="2.90254"/>
<feComposite in2="hardAlpha" operator="out"/>
<feColorMatrix type="matrix" values="0 0 0 0 0 0 0 0 0 0 0 0 0 0 0 0 0 0 0.05 0"/>
<feBlend mode="normal" in2="BackgroundImageFix" result="effect1_dropShadow_1175_11181"/>
<feBlend mode="normal" in="SourceGraphic" in2="effect1_dropShadow_1175_11181" result="shape"/>
</filter>
<filter id="filter1_d_1175_11181" x="2.19491" y="68.3559" width="179.61" height="65.6102" filterUnits="userSpaceOnUse" color-interpolation-filters="sRGB">
<feFlood flood-opacity="0" result="BackgroundImageFix"/>
<feColorMatrix in="SourceAlpha" type="matrix" values="0 0 0 0 0 0 0 0 0 0 0 0 0 0 0 0 0 0 127 0" result="hardAlpha"/>
<feOffset dy="1.16102"/>
<feGaussianBlur stdDeviation="2.90254"/>
<feComposite in2="hardAlpha" operator="out"/>
<feColorMatrix type="matrix" values="0 0 0 0 0 0 0 0 0 0 0 0 0 0 0 0 0 0 0.05 0"/>
<feBlend mode="normal" in2="BackgroundImageFix" result="effect1_dropShadow_1175_11181"/>
<feBlend mode="normal" in="SourceGraphic" in2="effect1_dropShadow_1175_11181" result="shape"/>
</filter>
<filter id="filter2_d_1175_11181" x="210.195" y="5.35593" width="179.61" height="65.6102" filterUnits="userSpaceOnUse" color-interpolation-filters="sRGB">
<feFlood flood-opacity="0" result="BackgroundImageFix"/>
<feColorMatrix in="SourceAlpha" type="matrix" values="0 0 0 0 0 0 0 0 0 0 0 0 0 0 0 0 0 0 127 0" result="hardAlpha"/>
<feOffset dy="1.16102"/>
<feGaussianBlur stdDeviation="2.90254"/>
<feComposite in2="hardAlpha" operator="out"/>
<feColorMatrix type="matrix" values="0 0 0 0 0 0 0 0 0 0 0 0 0 0 0 0 0 0 0.05 0"/>
<feBlend mode="normal" in2="BackgroundImageFix" result="effect1_dropShadow_1175_11181"/>
<feBlend mode="normal" in="SourceGraphic" in2="effect1_dropShadow_1175_11181" result="shape"/>
</filter>
<filter id="filter3_d_1175_11181" x="210.195" y="68.3559" width="179.61" height="65.6102" filterUnits="userSpaceOnUse" color-interpolation-filters="sRGB">
<feFlood flood-opacity="0" result="BackgroundImageFix"/>
<feColorMatrix in="SourceAlpha" type="matrix" values="0 0 0 0 0 0 0 0 0 0 0 0 0 0 0 0 0 0 127 0" result="hardAlpha"/>
<feOffset dy="1.16102"/>
<feGaussianBlur stdDeviation="2.90254"/>
<feComposite in2="hardAlpha" operator="out"/>
<feColorMatrix type="matrix" values="0 0 0 0 0 0 0 0 0 0 0 0 0 0 0 0 0 0 0.05 0"/>
<feBlend mode="normal" in2="BackgroundImageFix" result="effect1_dropShadow_1175_11181"/>
<feBlend mode="normal" in="SourceGraphic" in2="effect1_dropShadow_1175_11181" result="shape"/>
</filter>
</defs>
</svg>
