<svg width="51" height="50" viewBox="0 0 51 50" fill="none" xmlns="http://www.w3.org/2000/svg">
<rect x="0.236328" y="0.000244141" width="50" height="50" rx="2.32258" fill="#FA5A28"/>
<path d="M18.9148 34.0645V31.7125C20.0535 30.6485 21.0895 29.6591 22.0228 28.7445C22.9748 27.8111 23.7868 26.9431 24.4588 26.1405C25.1495 25.3191 25.6815 24.5631 26.0548 23.8725C26.4468 23.1631 26.6428 22.4911 26.6428 21.8565C26.6428 20.9791 26.4188 20.3165 25.9708 19.8685C25.5228 19.4018 24.9068 19.1685 24.1228 19.1685C23.4695 19.1685 22.8908 19.3551 22.3868 19.7285C21.8828 20.0831 21.4068 20.5031 20.9588 20.9885L18.7188 18.7765C19.5962 17.8431 20.4922 17.1431 21.4068 16.6765C22.3215 16.1911 23.4135 15.9485 24.6828 15.9485C25.5602 15.9485 26.3535 16.0885 27.0628 16.3685C27.7908 16.6298 28.4162 17.0125 28.9388 17.5165C29.4615 18.0018 29.8628 18.5898 30.1428 19.2805C30.4228 19.9711 30.5628 20.7458 30.5628 21.6045C30.5628 22.3511 30.4042 23.1165 30.0868 23.9005C29.7695 24.6658 29.3402 25.4405 28.7988 26.2245C28.2762 26.9898 27.6695 27.7645 26.9788 28.5485C26.3068 29.3138 25.6068 30.0698 24.8788 30.8165C25.3268 30.7605 25.8215 30.7138 26.3628 30.6765C26.9228 30.6205 27.4175 30.5925 27.8468 30.5925H31.4308V34.0645H18.9148Z" fill="white"/>
</svg>
