<svg width="51" height="50" viewBox="0 0 51 50" fill="none" xmlns="http://www.w3.org/2000/svg">
<rect x="0.0644531" y="0.000244141" width="50" height="50" rx="2.32258" fill="#FA5A28"/>
<path d="M24.6828 33.4005C23.2268 33.4005 21.9948 33.1765 20.9868 32.7285C19.9788 32.2618 19.1482 31.6458 18.4948 30.8805L20.3988 28.2765C20.9402 28.7991 21.5282 29.2285 22.1628 29.5645C22.8162 29.9005 23.5255 30.0685 24.2908 30.0685C25.1682 30.0685 25.8682 29.8911 26.3908 29.5365C26.9135 29.1631 27.1748 28.6405 27.1748 27.9685C27.1748 27.5765 27.1002 27.2218 26.9508 26.9045C26.8202 26.5871 26.5775 26.3258 26.2228 26.1205C25.8682 25.8965 25.3828 25.7285 24.7668 25.6165C24.1508 25.4858 23.3575 25.4205 22.3868 25.4205V22.5085C23.1895 22.5085 23.8522 22.4525 24.3748 22.3405C24.9162 22.2285 25.3455 22.0698 25.6628 21.8645C25.9988 21.6405 26.2322 21.3885 26.3628 21.1085C26.5122 20.8098 26.5868 20.4831 26.5868 20.1285C26.5868 19.5125 26.4002 19.0365 26.0268 18.7005C25.6535 18.3458 25.1122 18.1685 24.4028 18.1685C23.7682 18.1685 23.1895 18.3085 22.6668 18.5885C22.1628 18.8685 21.6308 19.2511 21.0708 19.7365L18.9988 17.2165C19.8202 16.5071 20.6788 15.9565 21.5748 15.5645C22.4895 15.1538 23.4975 14.9485 24.5988 14.9485C25.5135 14.9485 26.3442 15.0605 27.0908 15.2845C27.8562 15.4898 28.5002 15.8071 29.0228 16.2365C29.5642 16.6471 29.9842 17.1511 30.2828 17.7485C30.5815 18.3458 30.7308 19.0365 30.7308 19.8205C30.7308 20.7538 30.4695 21.5471 29.9468 22.2005C29.4428 22.8351 28.7148 23.3578 27.7628 23.7685V23.8805C28.7895 24.1791 29.6295 24.6925 30.2828 25.4205C30.9548 26.1298 31.2908 27.0631 31.2908 28.2205C31.2908 29.0418 31.1135 29.7791 30.7588 30.4325C30.4042 31.0671 29.9282 31.6085 29.3308 32.0565C28.7335 32.4858 28.0335 32.8218 27.2308 33.0645C26.4282 33.2885 25.5788 33.4005 24.6828 33.4005Z" fill="white"/>
</svg>
