<?xml version="1.0" encoding="UTF-8"?>
<svg width="24px" height="24px" viewBox="0 0 24 24" version="1.1" xmlns="http://www.w3.org/2000/svg" xmlns:xlink="http://www.w3.org/1999/xlink">
    <!-- Generator: Sketch 50.2 (55047) - http://www.bohemiancoding.com/sketch -->
    <title>round-library_books-24px</title>
    <desc>Created with Sketch.</desc>
    <defs></defs>
    <g id="Home-v1" stroke="none" stroke-width="1" fill="none" fill-rule="evenodd">
        <g id="Main-page" transform="translate(-643.000000, -1514.000000)" fill="#000000" fill-rule="nonzero">
            <g id="CMS-v2" transform="translate(73.000000, 525.000000)">
                <g id="Features--1" transform="translate(202.000000, 540.000000)">
                    <g id="Page-Revisions" transform="translate(368.000000, 448.000000)">
                        <g id="round-library_books-24px" transform="translate(0.000000, 1.000000)">
                            <path d="M1.2,4.8 C0.54,4.8 0,5.34 0,6 L0,21.6 C0,22.92 1.08,24 2.4,24 L18,24 C18.66,24 19.2,23.46 19.2,22.8 C19.2,22.14 18.66,21.6 18,21.6 L3.6,21.6 C2.94,21.6 2.4,21.06 2.4,20.4 L2.4,6 C2.4,5.34 1.86,4.8 1.2,4.8 Z M21.6,0 L7.2,0 C5.88,0 4.8,1.08 4.8,2.4 L4.8,16.8 C4.8,18.12 5.88,19.2 7.2,19.2 L21.6,19.2 C22.92,19.2 24,18.12 24,16.8 L24,2.4 C24,1.08 22.92,0 21.6,0 Z M19.2,10.8 L9.6,10.8 C8.94,10.8 8.4,10.26 8.4,9.6 C8.4,8.94 8.94,8.4 9.6,8.4 L19.2,8.4 C19.86,8.4 20.4,8.94 20.4,9.6 C20.4,10.26 19.86,10.8 19.2,10.8 Z M14.4,15.6 L9.6,15.6 C8.94,15.6 8.4,15.06 8.4,14.4 C8.4,13.74 8.94,13.2 9.6,13.2 L14.4,13.2 C15.06,13.2 15.6,13.74 15.6,14.4 C15.6,15.06 15.06,15.6 14.4,15.6 Z M19.2,6 L9.6,6 C8.94,6 8.4,5.46 8.4,4.8 C8.4,4.14 8.94,3.6 9.6,3.6 L19.2,3.6 C19.86,3.6 20.4,4.14 20.4,4.8 C20.4,5.46 19.86,6 19.2,6 Z" id="Shape"></path>
                        </g>
                    </g>
                </g>
            </g>
        </g>
    </g>
</svg>