<?xml version="1.0" encoding="UTF-8"?>
<svg width="24px" height="24px" viewBox="0 0 24 24" version="1.1" xmlns="http://www.w3.org/2000/svg" xmlns:xlink="http://www.w3.org/1999/xlink">
    <!-- Generator: Sketch 50.2 (55047) - http://www.bohemiancoding.com/sketch -->
    <title>round-palette-24px</title>
    <desc>Created with Sketch.</desc>
    <defs></defs>
    <g id="Home-v1" stroke="none" stroke-width="1" fill="none" fill-rule="evenodd">
        <g id="Main-page" transform="translate(-276.000000, -2214.000000)">
            <g id="CMS-v2" transform="translate(73.000000, 525.000000)">
                <g id="Features--2" transform="translate(200.000000, 1240.000000)">
                    <g id="Design-System" transform="translate(0.000000, 446.000000)">
                        <g id="round-palette-24px">
                            <polygon id="Shape" points="0 0 24 0 24 24 0 24"></polygon>
                            <path d="M15,3 C8.37333333,3 3,8.37333333 3,15 C3,21.6266667 8.37333333,27 15,27 C16.1066667,27 17,26.1066667 17,25 C17,24.48 16.8,24.0133333 16.48,23.6533333 C16.1733333,23.3066667 15.9733333,22.84 15.9733333,22.3333333 C15.9733333,21.2266667 16.8666667,20.3333333 17.9733333,20.3333333 L20.3333333,20.3333333 C24.0133333,20.3333333 27,17.3466667 27,13.6666667 C27,7.77333333 21.6266667,3 15,3 Z M7.66666667,15 C6.56,15 5.66666667,14.1066667 5.66666667,13 C5.66666667,11.8933333 6.56,11 7.66666667,11 C8.77333333,11 9.66666667,11.8933333 9.66666667,13 C9.66666667,14.1066667 8.77333333,15 7.66666667,15 Z M11.6666667,9.66666667 C10.56,9.66666667 9.66666667,8.77333333 9.66666667,7.66666667 C9.66666667,6.56 10.56,5.66666667 11.6666667,5.66666667 C12.7733333,5.66666667 13.6666667,6.56 13.6666667,7.66666667 C13.6666667,8.77333333 12.7733333,9.66666667 11.6666667,9.66666667 Z M18.3333333,9.66666667 C17.2266667,9.66666667 16.3333333,8.77333333 16.3333333,7.66666667 C16.3333333,6.56 17.2266667,5.66666667 18.3333333,5.66666667 C19.44,5.66666667 20.3333333,6.56 20.3333333,7.66666667 C20.3333333,8.77333333 19.44,9.66666667 18.3333333,9.66666667 Z M22.3333333,15 C21.2266667,15 20.3333333,14.1066667 20.3333333,13 C20.3333333,11.8933333 21.2266667,11 22.3333333,11 C23.44,11 24.3333333,11.8933333 24.3333333,13 C24.3333333,14.1066667 23.44,15 22.3333333,15 Z" id="Shape" fill="#000000" fill-rule="nonzero"></path>
                        </g>
                    </g>
                </g>
            </g>
        </g>
    </g>
</svg>