<?xml version="1.0" encoding="UTF-8"?>
<svg width="72px" height="40px" viewBox="0 0 72 40" version="1.1" xmlns="http://www.w3.org/2000/svg" xmlns:xlink="http://www.w3.org/1999/xlink">
    <!-- Generator: Sketch 50.2 (55047) - http://www.bohemiancoding.com/sketch -->
    <title>soundcloud-icon</title>
    <desc>Created with Sketch.</desc>
    <defs></defs>
    <g id="Home-v1" stroke="none" stroke-width="1" fill="none" fill-rule="evenodd">
        <g id="Main-page" transform="translate(-1262.000000, -2704.000000)" fill="#CCCCCC" fill-rule="nonzero">
            <g id="CMS" transform="translate(0.000000, 525.000000)">
                <g id="Plugins" transform="translate(194.000000, 2105.000000)">
                    <g id="Logos" transform="translate(56.000000, 74.000000)">
                        <g id="soundcloud-icon" transform="translate(1012.000000, 0.000000)">
                            <path d="M0,32.8186791 C0,33.7135765 0.323917339,34.3902162 0.971614705,34.8488735 C1.61938073,35.3074619 2.31177292,35.4696079 3.04885993,35.335449 C3.74125213,35.2012213 4.22705948,34.9551142 4.50635065,34.5971965 C4.7855045,34.2392788 4.92515009,33.6463938 4.92515009,32.8186791 L4.92515009,23.0871689 C4.92515009,22.3936132 4.68506129,21.8063669 4.20481505,21.32543 C3.72463746,20.8444244 3.13831824,20.603956 2.44585739,20.603956 C1.77577829,20.603956 1.20064994,20.8444244 0.720403695,21.32543 C0.24015745,21.8063669 0,22.3936132 0,23.0871689 L0,32.8186791 Z M7.70590973,36.9797386 C7.70590973,37.6285977 7.93487631,38.1151044 8.39274081,38.4395339 C8.85067397,38.7639634 9.43699319,38.9261094 10.1516985,38.9261094 C10.8887855,38.9261094 11.4862269,38.7638947 11.9441601,38.4395339 C12.4020246,38.1151732 12.6309912,37.6285977 12.6309912,36.9797386 L12.6309912,14.2952529 C12.6309912,13.6241142 12.3908337,13.0480077 11.9106561,12.5670709 C11.4304099,12.086134 10.8440907,11.8455969 10.1516985,11.8455969 C9.48161936,11.8455969 8.90642235,12.086134 8.42624477,12.5670709 C7.94599852,13.0480765 7.70590973,13.6241142 7.70590973,14.2952529 L7.70590973,36.9797386 Z M15.3783155,38.0535604 C15.3783155,38.7023507 15.6128432,39.1889262 16.0818986,39.5133557 C16.5509539,39.8377165 17.1540251,39.9999312 17.8911808,39.9999312 C18.6058861,39.9999312 19.1922053,39.8377165 19.6500698,39.5133557 C20.108003,39.1889262 20.3369695,38.7023507 20.3369695,38.0535604 L20.3369695,17.3489336 C20.3369695,16.6554466 20.0968121,16.0625617 19.6166345,15.5704163 C19.1363883,15.0782709 18.5612599,14.8322325 17.8911808,14.8322325 C17.19872,14.8322325 16.6068396,15.0782709 16.1154712,15.5704163 C15.6241027,16.0625617 15.3783842,16.6554466 15.3783842,17.3489336 L15.3783842,38.0535604 L15.3783155,38.0535604 Z M23.0842252,38.1542312 C23.0842252,39.3846979 23.9106332,39.9999312 25.5635179,39.9999312 C27.2163339,39.9999312 28.042742,39.3846979 28.042742,38.1542312 L28.042742,4.59729963 C28.042742,2.71811146 27.4731747,1.65549821 26.3340402,1.40939113 C25.5969532,1.2303979 24.8709884,1.44294806 24.1562831,2.04697283 C23.4415092,2.6509976 23.0841566,3.50106069 23.0841566,4.59729963 L23.0841566,38.1542312 L23.0842252,38.1542312 Z M30.9242194,39.1273822 L30.9242194,2.61744067 C30.9242194,1.45415662 31.2703812,0.760669626 31.962842,0.536910906 C33.4593292,0.178993223 34.9446941,0 36.4188681,0 C39.8362029,0 43.0191473,0.805366358 45.9674267,2.41609908 C48.9157748,4.02683179 51.3001854,6.22481081 53.1205212,9.01003614 C54.9409256,11.7953302 55.9963002,14.8657207 56.286645,18.2214826 C57.6491162,17.6398062 59.1009085,17.3490024 60.6420905,17.3490024 C63.7691492,17.3490024 66.4439045,18.4563811 68.6662878,20.6711386 C70.8887397,22.8859649 72,25.5481023 72,28.6577571 C72,31.7897603 70.8887397,34.4631063 68.6662878,36.6778638 C66.4439045,38.8926213 63.7803401,40 60.6755944,40 L31.5271533,39.9664431 C31.3260609,39.8993292 31.1752931,39.7762413 31.0747813,39.5973168 C30.9742694,39.4183924 30.9242194,39.26161 30.9242194,39.1273822 Z" id="Shape"></path>
                        </g>
                    </g>
                </g>
            </g>
        </g>
    </g>
</svg>