<svg width="21" height="21" viewBox="0 0 21 21" fill="none" xmlns="http://www.w3.org/2000/svg">
<path fill-rule="evenodd" clip-rule="evenodd" d="M14.4927 6.75518L8.35298 12.8947L6.02279 10.5642C5.86699 10.4082 5.61444 10.4082 5.45865 10.5638C5.30285 10.7198 5.30285 10.9723 5.45865 11.1281L8.35318 14.0232L15.0569 7.31913C15.2127 7.16373 15.2127 6.91098 15.0569 6.75518C14.9011 6.59918 14.6485 6.59918 14.4927 6.75518ZM10.2574 0.248291C4.74327 0.248291 0.257446 4.73432 0.257446 10.2477C0.257845 15.7619 4.74387 20.2481 10.2578 20.2481H10.2586C15.772 20.2481 20.2574 15.7619 20.2574 10.2477C20.2575 4.73412 15.7716 0.248291 10.2574 0.248291ZM10.2587 19.4501H10.2579C5.18397 19.4501 1.05582 15.3219 1.05542 10.2476C1.05542 5.17389 5.18337 1.04614 10.2575 1.04614C15.3316 1.04614 19.4595 5.17409 19.4595 10.2476C19.4595 15.3219 15.3322 19.4501 10.2587 19.4501Z" fill="#00CCB0"/>
</svg>
