<svg width="1440" height="800" viewBox="0 0 1440 800" fill="none" xmlns="http://www.w3.org/2000/svg">
<path fill-rule="evenodd" clip-rule="evenodd" d="M0 446.072V62.0721H1440V486.072C1440 486.072 816.104 486.072 754.056 486.072C692.008 486.072 710.886 446.072 652.815 446.072C594.744 446.072 0 446.072 0 446.072Z" fill="url(#paint0_linear)"/>
<path opacity="0.7" fill-rule="evenodd" clip-rule="evenodd" d="M833.563 342.948L728.667 403.035C718.74 408.72 706.509 408.72 696.582 403.035L591.684 342.948C581.757 337.261 575.642 326.753 575.642 315.381V195.207C575.642 183.834 581.757 173.326 591.684 167.64L696.582 107.553C706.509 101.866 718.74 101.866 728.667 107.553L833.563 167.64C843.491 173.326 849.606 183.834 849.606 195.207V315.381C849.606 326.753 843.491 337.261 833.563 342.948V342.948Z" fill="white" fill-opacity="0.0588235"/>
<path fill-rule="evenodd" clip-rule="evenodd" d="M817.991 508.86L612.367 506.632C592.908 506.419 574.813 495.399 564.897 477.721L460.127 290.913C450.213 273.233 449.984 251.585 459.528 234.118L560.385 49.5399C569.93 32.0727 587.797 21.4418 607.256 21.6547L812.882 23.885C832.343 24.0948 850.438 35.1148 860.352 52.7952L965.119 239.601C975.036 257.279 975.263 278.93 965.719 296.397L864.862 480.975C855.317 498.442 837.452 509.07 817.991 508.86V508.86Z" fill="white" fill-opacity="0.0509804"/>
<path fill-rule="evenodd" clip-rule="evenodd" d="M1050.37 384.016L839.69 597.129C819.75 617.295 790.951 625.426 764.139 618.459L480.823 544.817C454.01 537.846 433.261 516.839 426.388 489.702L353.76 202.946C346.887 175.809 354.935 146.668 374.874 126.502L585.563 -86.6125C605.502 -106.783 634.3 -114.913 661.113 -107.943L944.425 -34.2989C971.237 -27.3325 991.987 -6.32144 998.86 20.8152L1071.49 307.572C1078.36 334.709 1070.31 363.846 1050.37 384.016V384.016Z" fill="white" fill-opacity="0.0509804"/>
<path fill-rule="evenodd" clip-rule="evenodd" d="M943.91 608.464L587.898 648.772C554.206 652.583 520.619 637.553 499.784 609.342L279.645 311.205C258.812 282.988 253.899 245.882 266.758 213.854L402.635 -124.588C415.494 -156.616 444.169 -178.697 477.86 -182.508L833.878 -222.814C867.571 -226.63 901.159 -211.6 921.992 -183.383L1142.13 114.752C1162.96 142.963 1167.87 180.074 1155.01 212.102L1019.14 550.544C1006.28 582.572 977.604 604.648 943.91 608.464V608.464Z" fill="white" fill-opacity="0.0392157"/>
<path opacity="0.8" fill-rule="evenodd" clip-rule="evenodd" d="M775.064 198.987C767.084 221.325 759.047 243.721 751.012 266.14H748.462C740.454 243.666 732.418 221.216 724.41 198.797H699.426C691.307 221.463 683.272 243.91 675.237 266.386H672.905C664.76 243.692 656.615 221 648.742 199.096H618.904C633.413 240.318 647.564 280.507 661.715 320.696H686.343L710.725 252.698H713.194C721.339 275.501 729.457 298.33 737.437 320.641H762.12C776.326 280.289 790.477 240.074 804.931 198.987H775.064V198.987Z" fill="white" fill-opacity="0.101961"/>
<defs>
<linearGradient id="paint0_linear" x1="-720" y1="274.072" x2="-490.231" y2="-506.274" gradientUnits="userSpaceOnUse">
<stop stop-color="#4253C6"/>
<stop offset="1" stop-color="#FF7B41"/>
</linearGradient>
</defs>
</svg>
