<svg width="1440" height="462" viewBox="0 0 1440 462" fill="none" xmlns="http://www.w3.org/2000/svg">
<g filter="url(#filter0_d)">
<path fill-rule="evenodd" clip-rule="evenodd" d="M69.9844 30.3867C191.967 78.1056 290.212 69.7702 401.952 42.7196C513.693 15.6691 619.098 0 719.83 0C820.563 0 902.689 15.6691 1042.35 52.7196C1182.01 89.7703 1248.11 46.7338 1368.95 20.3867C1489.79 -5.96048 1496.99 83.3769 1496.99 83.3769L1495.49 453.63L-51.9981 453.131L-56 90.8368C-56 90.8368 -51.9981 -17.3322 69.9844 30.3867Z" fill="url(#paint0_linear)"/>
<mask id="mask0" mask-type="alpha" maskUnits="userSpaceOnUse" x="-56" y="0" width="1553" height="454">
<path fill-rule="evenodd" clip-rule="evenodd" d="M69.9844 30.3867C191.967 78.1056 290.212 69.7702 401.952 42.7196C513.693 15.6691 619.098 0 719.83 0C820.563 0 902.689 15.6691 1042.35 52.7196C1182.01 89.7703 1248.11 46.7338 1368.95 20.3867C1489.79 -5.96048 1496.99 83.3769 1496.99 83.3769L1495.49 453.63L-51.9981 453.131L-56 90.8368C-56 90.8368 -51.9981 -17.3322 69.9844 30.3867Z" fill="white"/>
</mask>
<g mask="url(#mask0)">
<g opacity="0.7">
<circle cx="722.5" cy="536.5" r="131.5" fill="white" fill-opacity="0.0509804" stroke="white" stroke-opacity="0.2"/>
<circle cx="718.76" cy="520.684" r="173.635" fill="white" fill-opacity="0.0509804" stroke="white" stroke-opacity="0.2"/>
<circle cx="708.112" cy="516.112" r="224.511" fill="white" fill-opacity="0.0509804" stroke="white" stroke-opacity="0.2"/>
<circle cx="712" cy="526" r="299" fill="white" fill-opacity="0.0509804" stroke="white" stroke-opacity="0.2"/>
<circle cx="711" cy="526" r="375" fill="white" fill-opacity="0.0509804" stroke="white" stroke-opacity="0.2"/>
<circle cx="709" cy="528" r="463" fill="white" fill-opacity="0.0509804" stroke="white" stroke-opacity="0.2"/>
<circle cx="709" cy="528" r="564" fill="white" fill-opacity="0.0509804" stroke="white" stroke-opacity="0.2"/>
<circle cx="708" cy="528" r="668" fill="white" fill-opacity="0.0509804" stroke="white" stroke-opacity="0.2"/>
</g>
</g>
</g>
<defs>
<filter id="filter0_d" x="-60" y="0" width="1560.99" height="461.63" filterUnits="userSpaceOnUse" color-interpolation-filters="sRGB">
<feFlood flood-opacity="0" result="BackgroundImageFix"/>
<feColorMatrix in="SourceAlpha" type="matrix" values="0 0 0 0 0 0 0 0 0 0 0 0 0 0 0 0 0 0 127 0"/>
<feOffset dy="4"/>
<feGaussianBlur stdDeviation="2"/>
<feColorMatrix type="matrix" values="0 0 0 0 0 0 0 0 0 0 0 0 0 0 0 0 0 0 0.25 0"/>
<feBlend mode="normal" in2="BackgroundImageFix" result="effect1_dropShadow"/>
<feBlend mode="normal" in="SourceGraphic" in2="effect1_dropShadow" result="shape"/>
</filter>
<linearGradient id="paint0_linear" x1="2273.49" y1="226.815" x2="2029.31" y2="1062.75" gradientUnits="userSpaceOnUse">
<stop stop-color="#9033EA"/>
<stop offset="1" stop-color="#483EB7"/>
</linearGradient>
</defs>
</svg>
