<svg width="1440" height="533" viewBox="0 0 1440 533" fill="none" xmlns="http://www.w3.org/2000/svg">
<path fill-rule="evenodd" clip-rule="evenodd" d="M-42 225.809C-42 225.809 263.674 21.2084 338.433 38.1067C413.191 55.0051 611.912 274.089 697.956 280.562C784 287.035 1025.2 208.864 1154.15 128.809C1283.1 48.7538 1378 0 1401.07 0C1424.14 0 1471 48.7538 1471 48.7538V513H-42V225.809Z" fill="url(#paint0_linear)"/>
<path fill-rule="evenodd" clip-rule="evenodd" d="M-43 222.76C-43 222.76 48.5707 252.373 166.811 258.961C285.051 265.549 386.485 242.536 437.242 249.518C488 256.5 654.692 352.321 689.971 354.658C725.249 356.996 880.95 276.35 923.026 272.687C965.103 269.025 1089.19 328.322 1134.92 328.322C1180.66 328.322 1473 177 1473 177V465H-43V222.76Z" fill="url(#paint1_linear)"/>
<path fill-rule="evenodd" clip-rule="evenodd" d="M-43 318C-43 318 259.992 400.522 308.081 400.522C356.17 400.522 456.321 373.473 517.316 370.748C578.311 368.024 695.75 418.502 748.625 418.016C801.5 417.529 940.302 363.521 1000.03 355.732C1059.76 347.943 1141.11 365.958 1259.17 362.503C1377.24 359.048 1475 341.832 1475 341.832V533H-43V318Z" fill="url(#paint2_linear)"/>
<defs>
<linearGradient id="paint0_linear" x1="-42" y1="0" x2="-42" y2="513" gradientUnits="userSpaceOnUse">
<stop stop-color="#F6E6F7"/>
<stop offset="1" stop-color="white" stop-opacity="0.01"/>
</linearGradient>
<linearGradient id="paint1_linear" x1="-43" y1="177" x2="-43" y2="465" gradientUnits="userSpaceOnUse">
<stop stop-color="#FCD8FF"/>
<stop offset="1" stop-color="white" stop-opacity="0.01"/>
</linearGradient>
<linearGradient id="paint2_linear" x1="-43" y1="318" x2="-43" y2="533" gradientUnits="userSpaceOnUse">
<stop stop-color="#FFD4F2"/>
<stop offset="1" stop-color="white" stop-opacity="0.01"/>
</linearGradient>
</defs>
</svg>
