<svg width="241" height="150" viewBox="0 0 241 150" fill="none" xmlns="http://www.w3.org/2000/svg">
<path fill-rule="evenodd" clip-rule="evenodd" d="M206.273 112.08C195.177 112.083 185.173 105.401 180.925 95.1514C176.677 84.9015 179.022 73.1019 186.866 65.2552C194.711 57.4085 206.51 55.0603 216.761 59.3057C227.012 63.551 233.696 73.5537 233.696 84.649C233.678 99.7879 221.412 112.057 206.273 112.08H206.273ZM206.273 57.6526C191.363 57.6526 179.276 69.7393 179.276 84.6491C179.276 99.5588 191.363 111.646 206.273 111.646C221.182 111.646 233.269 99.5588 233.269 84.6491C233.253 69.746 221.176 57.6688 206.273 57.6526L206.273 57.6526Z" fill="#F94F24"/>
<path fill-rule="evenodd" clip-rule="evenodd" d="M19.0188 133.514V132.638C19.0188 128.586 20.4516 125.127 23.3173 122.261C26.1829 119.395 29.642 117.963 33.6946 117.963H133.206C137.258 117.963 140.717 119.395 143.583 122.261C146.449 125.127 147.881 128.586 147.881 132.638V134.39C147.881 138.443 146.449 141.902 143.583 144.768C140.717 147.633 137.258 149.066 133.206 149.066H33.6946C29.642 149.066 26.1829 147.633 23.3173 144.768C20.4516 141.902 19.0188 138.443 19.0188 134.39V133.514Z" fill="#F2F2F2"/>
<path fill-rule="evenodd" clip-rule="evenodd" d="M48.2821 50.0115C48.2835 54.0621 45.8447 57.7144 42.1031 59.2653C38.3615 60.8163 34.054 59.9604 31.1895 57.0968C28.325 54.2333 27.4678 49.9261 29.0175 46.184C30.5672 42.4418 34.2187 40.0019 38.2691 40.002C43.7977 40.0021 48.2801 44.4829 48.2821 50.0115Z" fill="#F2F2F2"/>
<path fill-rule="evenodd" clip-rule="evenodd" d="M49.9381 93.9986C49.9394 96.603 48.3716 98.9512 45.9661 99.9481C43.5606 100.945 40.7914 100.394 38.9503 98.553C37.1092 96.7116 36.559 93.9423 37.5563 91.537C38.5537 89.1316 40.9021 87.5642 43.506 87.5659C47.0576 87.5682 49.9361 90.447 49.9381 93.9986Z" fill="#F2F2F2"/>
<path fill-rule="evenodd" clip-rule="evenodd" d="M211.31 50.6482C211.31 60.7737 203.102 68.982 192.976 68.982C182.851 68.982 174.642 60.7737 174.642 50.6482C174.642 40.5228 182.851 32.3145 192.976 32.3145C203.102 32.3145 211.31 40.5228 211.31 50.6482Z" fill="#F2F2F2"/>
<path fill-rule="evenodd" clip-rule="evenodd" d="M194.22 124.064V55.664C194.235 54.1794 193.659 52.7499 192.62 51.6898C191.58 50.6298 190.162 50.026 188.678 50.0115H56.8933C53.8034 50.0438 51.3243 52.574 51.3549 55.664L51.3549 124.064H194.22Z" fill="#B3B3B3"/>
<path fill-rule="evenodd" clip-rule="evenodd" d="M43.5055 127.06V133.569C43.4687 137.063 46.268 139.927 49.7615 139.969H195.784C199.277 139.927 202.077 137.063 202.04 133.569V127.06H43.5055Z" fill="#B3B3B3"/>
<rect x="51.355" y="57.4304" width="142.869" height="70.2696" fill="url(#paint0_linear)"/>
<path opacity="0.2" fill-rule="evenodd" clip-rule="evenodd" d="M115.549 57.4304H51.355V121.558C72.748 100.167 94.146 78.7916 115.549 57.4304Z" fill="white"/>
<g style="mix-blend-mode:multiply">
<rect x="51.355" y="126.309" width="142.869" height="1.39472" fill="#E5E5E5"/>
</g>
<g style="mix-blend-mode:multiply">
<rect x="51.355" y="57.4304" width="142.869" height="1.39472" fill="#E5E5E5"/>
</g>
<path fill-rule="evenodd" clip-rule="evenodd" d="M128.885 133.514C128.885 134.299 128.249 134.935 127.465 134.935H120.878C120.093 134.935 119.457 134.299 119.457 133.514V133.514C119.457 132.73 120.093 132.094 120.877 132.094H127.472C128.257 132.094 128.893 132.73 128.893 133.514H128.885Z" fill="#808080"/>
<path fill-rule="evenodd" clip-rule="evenodd" d="M85.152 133.514C85.153 133.891 85.0041 134.252 84.7383 134.518C84.4725 134.785 84.1116 134.935 83.7352 134.935H83.7352C83.3578 134.936 82.9956 134.786 82.7284 134.52C82.4612 134.253 82.311 133.892 82.311 133.514C82.311 133.137 82.4612 132.775 82.7284 132.508C82.9956 132.242 83.3578 132.093 83.7352 132.094H83.7352C84.1116 132.094 84.4725 132.244 84.7383 132.51C85.0041 132.777 85.153 133.138 85.152 133.514Z" fill="#808080"/>
<path fill-rule="evenodd" clip-rule="evenodd" d="M93.697 133.514C93.697 134.299 93.0611 134.935 92.2766 134.935H92.2766C91.492 134.935 90.8561 134.299 90.8561 133.514V133.514C90.8561 132.73 91.492 132.094 92.2765 132.094H92.2766C93.0611 132.094 93.697 132.73 93.697 133.514Z" fill="#808080"/>
<path fill-rule="evenodd" clip-rule="evenodd" d="M239.896 128.649H238.7C238.454 128.668 238.218 128.547 238.089 128.336C237.96 128.125 237.96 127.86 238.089 127.649C238.218 127.438 238.454 127.317 238.7 127.336H239.896C240.24 127.361 240.506 127.648 240.506 127.992C240.506 128.337 240.24 128.624 239.896 128.649ZM234.122 128.649H231.373C231.127 128.668 230.891 128.547 230.762 128.336C230.633 128.125 230.633 127.86 230.762 127.649C230.891 127.438 231.127 127.317 231.373 127.336H234.122C234.466 127.361 234.732 127.648 234.732 127.992C234.732 128.337 234.466 128.624 234.122 128.649ZM226.795 128.649H224.046C223.703 128.624 223.437 128.337 223.437 127.992C223.437 127.648 223.703 127.361 224.046 127.336H226.795C227.042 127.317 227.278 127.438 227.407 127.649C227.535 127.86 227.535 128.125 227.407 128.336C227.278 128.547 227.042 128.668 226.795 128.649ZM219.468 128.649H216.723C216.477 128.668 216.241 128.547 216.112 128.336C215.983 128.125 215.983 127.86 216.112 127.649C216.241 127.438 216.477 127.317 216.723 127.336H219.472C219.718 127.317 219.954 127.438 220.083 127.649C220.212 127.86 220.212 128.125 220.083 128.336C219.954 128.547 219.718 128.668 219.472 128.649H219.468ZM212.142 128.649H209.396C209.15 128.668 208.914 128.547 208.785 128.336C208.656 128.125 208.656 127.86 208.785 127.649C208.914 127.438 209.15 127.317 209.396 127.336H212.142C212.388 127.317 212.624 127.438 212.753 127.649C212.882 127.86 212.882 128.125 212.753 128.336C212.624 128.547 212.388 128.668 212.142 128.649ZM204.818 128.649H202.069C201.726 128.624 201.46 128.337 201.46 127.992C201.46 127.648 201.726 127.361 202.069 127.336H204.818C205.065 127.317 205.301 127.438 205.43 127.649C205.558 127.86 205.558 128.125 205.43 128.336C205.301 128.547 205.065 128.668 204.818 128.649Z" fill="#F94F24"/>
<path fill-rule="evenodd" clip-rule="evenodd" d="M46.4789 95.7281C28.1989 91.0885 15.7493 74.1727 16.7542 55.3399C17.7591 36.5071 31.9382 21.0122 50.6081 18.3443C69.278 15.6763 87.2295 26.5799 93.4688 44.3774L93.0567 44.5209C86.8868 26.9185 69.133 16.1339 50.6681 18.7718C32.2032 21.4096 18.1793 36.7339 17.1848 55.3598C16.1904 73.9856 28.5029 90.716 46.582 95.3049L46.4789 95.7281Z" fill="#F94F24"/>
<path d="M168.544 100.66C168.147 100.546 167.803 100.367 167.512 100.124C167.221 99.8814 166.99 99.5863 166.819 99.239C166.656 98.8872 166.562 98.4893 166.537 98.0451C166.52 97.5964 166.585 97.1157 166.732 96.603C166.877 96.0967 167.078 95.662 167.335 95.2987C167.592 94.9354 167.886 94.6486 168.216 94.4382C168.547 94.2279 168.904 94.0978 169.286 94.0478C169.669 93.9914 170.063 94.0211 170.467 94.1368C170.851 94.2471 171.165 94.4237 171.407 94.6666C171.658 94.9049 171.847 95.1532 171.974 95.4116L171.392 95.8066C171.277 95.5794 171.129 95.381 170.949 95.2114C170.769 95.0419 170.544 94.9185 170.275 94.8413C169.974 94.7549 169.684 94.7377 169.406 94.7896C169.129 94.8352 168.872 94.9453 168.635 95.12C168.399 95.2882 168.188 95.5156 168.002 95.802C167.823 96.0903 167.677 96.4299 167.564 96.8208C167.451 97.2182 167.393 97.5899 167.39 97.936C167.396 98.2776 167.451 98.5844 167.553 98.8565C167.655 99.1286 167.807 99.3595 168.01 99.5492C168.218 99.7408 168.473 99.8798 168.774 99.9662C169.082 100.054 169.369 100.071 169.634 100.015C169.902 99.9531 170.17 99.8393 170.439 99.6738L170.738 100.3C170.406 100.517 170.059 100.661 169.699 100.731C169.34 100.801 168.954 100.777 168.544 100.66ZM171.685 101.435L173.493 95.1295L174.291 95.3583L172.483 101.664L171.685 101.435ZM173 103.477L177.965 95.8499L178.542 96.0153L173.577 103.642L173 103.477ZM179.828 103.895C179.431 103.781 179.086 103.603 178.795 103.36C178.504 103.117 178.274 102.822 178.103 102.475C177.94 102.123 177.846 101.725 177.821 101.281C177.804 100.832 177.869 100.351 178.016 99.8385C178.161 99.3323 178.362 98.8975 178.619 98.5342C178.875 98.1709 179.169 97.8841 179.5 97.6738C179.831 97.4635 180.187 97.3333 180.569 97.2833C180.953 97.2269 181.347 97.2566 181.75 97.3723C182.135 97.4826 182.448 97.6592 182.691 97.9021C182.941 98.1404 183.13 98.3887 183.257 98.6471L182.676 99.0421C182.561 98.8149 182.413 98.6165 182.233 98.447C182.053 98.2774 181.828 98.154 181.559 98.0768C181.257 97.9904 180.968 97.9732 180.689 98.0252C180.413 98.0707 180.156 98.1808 179.918 98.3555C179.683 98.5237 179.472 98.7511 179.286 99.0375C179.106 99.3258 178.96 99.6654 178.848 100.056C178.734 100.454 178.676 100.825 178.674 101.172C178.68 101.513 178.734 101.82 178.836 102.092C178.939 102.364 179.091 102.595 179.293 102.785C179.502 102.976 179.757 103.115 180.058 103.202C180.366 103.29 180.652 103.306 180.918 103.251C181.185 103.189 181.454 103.075 181.723 102.909L182.022 103.536C181.689 103.753 181.343 103.896 180.983 103.966C180.623 104.036 180.238 104.013 179.828 103.895ZM182.969 104.671L184.777 98.365L186.353 98.8171C187.327 99.0964 187.99 99.5778 188.342 100.261C188.694 100.945 188.726 101.79 188.437 102.796C188.294 103.295 188.101 103.726 187.859 104.086C187.619 104.44 187.334 104.719 187.005 104.923C186.678 105.121 186.311 105.241 185.903 105.284C185.498 105.32 185.058 105.27 184.584 105.134L182.969 104.671ZM183.954 104.246L184.675 104.453C185.412 104.664 186.026 104.601 186.518 104.264C187.017 103.928 187.381 103.36 187.611 102.559C187.84 101.758 187.83 101.092 187.58 100.563C187.336 100.035 186.845 99.6655 186.108 99.4542L185.387 99.2474L183.954 104.246Z" fill="white" fill-opacity="0.129412"/>
<path d="M105.38 77.12C104.967 77.12 104.587 77.0433 104.24 76.89C103.893 76.7367 103.59 76.5167 103.33 76.23C103.077 75.9367 102.877 75.58 102.73 75.16C102.59 74.7333 102.52 74.2533 102.52 73.72C102.52 73.1933 102.593 72.72 102.74 72.3C102.887 71.88 103.09 71.5233 103.35 71.23C103.61 70.9367 103.917 70.7133 104.27 70.56C104.623 70.4 105.01 70.32 105.43 70.32C105.83 70.32 106.18 70.4033 106.48 70.57C106.787 70.73 107.037 70.9167 107.23 71.13L106.78 71.67C106.607 71.4833 106.41 71.3333 106.19 71.22C105.97 71.1067 105.72 71.05 105.44 71.05C105.127 71.05 104.843 71.1133 104.59 71.24C104.337 71.36 104.12 71.5367 103.94 71.77C103.76 71.9967 103.62 72.2733 103.52 72.6C103.427 72.9267 103.38 73.2933 103.38 73.7C103.38 74.1133 103.427 74.4867 103.52 74.82C103.62 75.1467 103.757 75.4267 103.93 75.66C104.103 75.8933 104.313 76.0733 104.56 76.2C104.813 76.3267 105.097 76.39 105.41 76.39C105.73 76.39 106.01 76.3267 106.25 76.2C106.49 76.0667 106.717 75.8833 106.93 75.65L107.39 76.17C107.13 76.47 106.837 76.7033 106.51 76.87C106.183 77.0367 105.807 77.12 105.38 77.12ZM108.613 77V70.44H109.443V77H108.613ZM110.44 78.6L113.11 69.9H113.71L111.04 78.6H110.44ZM117.118 77.12C116.705 77.12 116.325 77.0433 115.978 76.89C115.632 76.7367 115.328 76.5167 115.068 76.23C114.815 75.9367 114.615 75.58 114.468 75.16C114.328 74.7333 114.258 74.2533 114.258 73.72C114.258 73.1933 114.332 72.72 114.478 72.3C114.625 71.88 114.828 71.5233 115.088 71.23C115.348 70.9367 115.655 70.7133 116.008 70.56C116.362 70.4 116.748 70.32 117.168 70.32C117.568 70.32 117.918 70.4033 118.218 70.57C118.525 70.73 118.775 70.9167 118.968 71.13L118.518 71.67C118.345 71.4833 118.148 71.3333 117.928 71.22C117.708 71.1067 117.458 71.05 117.178 71.05C116.865 71.05 116.582 71.1133 116.328 71.24C116.075 71.36 115.858 71.5367 115.678 71.77C115.498 71.9967 115.358 72.2733 115.258 72.6C115.165 72.9267 115.118 73.2933 115.118 73.7C115.118 74.1133 115.165 74.4867 115.258 74.82C115.358 75.1467 115.495 75.4267 115.668 75.66C115.842 75.8933 116.052 76.0733 116.298 76.2C116.552 76.3267 116.835 76.39 117.148 76.39C117.468 76.39 117.748 76.3267 117.988 76.2C118.228 76.0667 118.455 75.8833 118.668 75.65L119.128 76.17C118.868 76.47 118.575 76.7033 118.248 76.87C117.922 77.0367 117.545 77.12 117.118 77.12ZM120.351 77V70.44H121.991C123.005 70.44 123.775 70.72 124.301 71.28C124.828 71.84 125.091 72.6433 125.091 73.69C125.091 74.21 125.025 74.6767 124.891 75.09C124.758 75.4967 124.561 75.8433 124.301 76.13C124.041 76.41 123.721 76.6267 123.341 76.78C122.961 76.9267 122.525 77 122.031 77H120.351ZM121.181 76.32H121.931C122.698 76.32 123.271 76.09 123.651 75.63C124.038 75.17 124.231 74.5233 124.231 73.69C124.231 72.8567 124.038 72.22 123.651 71.78C123.271 71.34 122.698 71.12 121.931 71.12H121.181V76.32Z" fill="white" fill-opacity="0.129412"/>
<path d="M165.706 81.3146C165.313 81.4423 164.928 81.4868 164.551 81.4481C164.174 81.4094 163.818 81.2939 163.482 81.1016C163.15 80.9009 162.85 80.6235 162.58 80.2694C162.315 79.9069 162.101 79.472 161.936 78.9648C161.773 78.4639 161.696 77.9911 161.706 77.5463C161.716 77.1015 161.799 76.6995 161.956 76.3402C162.112 75.9808 162.335 75.6737 162.624 75.4187C162.91 75.1573 163.253 74.9617 163.653 74.832C164.033 74.7083 164.392 74.6794 164.729 74.7453C165.07 74.8027 165.365 74.9029 165.615 75.0461L165.354 75.6987C165.131 75.5747 164.898 75.4929 164.654 75.4531C164.409 75.4132 164.154 75.4366 163.888 75.5231C163.59 75.62 163.34 75.7677 163.138 75.9665C162.934 76.1589 162.783 76.3939 162.684 76.6714C162.583 76.9426 162.535 77.249 162.541 77.5906C162.553 77.9301 162.622 78.2932 162.747 78.68C162.875 79.0731 163.035 79.4138 163.227 79.7019C163.423 79.9817 163.639 80.2058 163.876 80.3741C164.113 80.5425 164.369 80.6488 164.642 80.693C164.922 80.7352 165.211 80.7079 165.509 80.611C165.814 80.5122 166.06 80.3654 166.25 80.1708C166.437 79.9698 166.596 79.7254 166.726 79.4376L167.325 79.79C167.17 80.1556 166.963 80.4682 166.704 80.7276C166.445 80.9871 166.112 81.1827 165.706 81.3146ZM168.744 80.2014L166.717 73.9625L167.506 73.706L169.533 79.945L168.744 80.2014ZM170.976 81.1586L170.827 72.0593L171.397 71.8739L171.547 80.9732L170.976 81.1586ZM176.87 77.6873C176.477 77.815 176.092 77.8595 175.715 77.8208C175.338 77.7821 174.981 77.6666 174.646 77.4743C174.314 77.2736 174.014 76.9962 173.744 76.6421C173.479 76.2796 173.264 75.8447 173.1 75.3375C172.937 74.8366 172.86 74.3637 172.87 73.919C172.88 73.4742 172.963 73.0722 173.119 72.7128C173.276 72.3535 173.499 72.0464 173.787 71.7913C174.074 71.53 174.417 71.3344 174.816 71.2046C175.197 71.081 175.555 71.0521 175.892 71.1179C176.233 71.1753 176.529 71.2756 176.779 71.4188L176.518 72.0714C176.295 71.9474 176.062 71.8655 175.817 71.8257C175.573 71.7859 175.318 71.8093 175.052 71.8958C174.754 71.9926 174.504 72.1404 174.302 72.3392C174.098 72.5316 173.947 72.7666 173.847 73.0441C173.746 73.3153 173.699 73.6217 173.704 73.9633C173.717 74.3028 173.786 74.6659 173.911 75.0527C174.039 75.4458 174.199 75.7864 174.391 76.0746C174.587 76.3544 174.803 76.5784 175.04 76.7468C175.277 76.9151 175.532 77.0214 175.806 77.0657C176.086 77.1079 176.375 77.0805 176.673 76.9837C176.978 76.8848 177.224 76.7381 177.413 76.5434C177.6 76.3425 177.759 76.0981 177.89 75.8102L178.488 76.1626C178.334 76.5283 178.127 76.8409 177.868 77.1003C177.608 77.3598 177.276 77.5554 176.87 77.6873ZM179.908 76.5741L177.881 70.3352L179.44 69.8284C180.404 69.5153 181.223 69.5436 181.897 69.9135C182.571 70.2833 183.07 70.9659 183.393 71.9614C183.554 72.4559 183.634 72.9204 183.635 73.3547C183.634 73.7826 183.554 74.1731 183.396 74.5261C183.235 74.8727 182.997 75.1777 182.683 75.4409C182.367 75.6978 181.975 75.9025 181.506 76.055L179.908 76.5741ZM180.487 75.6709L181.2 75.4392C181.929 75.2022 182.404 74.8063 182.623 74.2514C182.849 73.6944 182.833 73.0197 182.575 72.2271C182.318 71.4346 181.937 70.8888 181.433 70.5898C180.936 70.2888 180.323 70.2567 179.593 70.4937L178.88 70.7254L180.487 75.6709Z" fill="white" fill-opacity="0.129412"/>
<path d="M139.496 115.301C139.083 115.294 138.704 115.211 138.36 115.051C138.016 114.892 137.717 114.667 137.462 114.376C137.214 114.078 137.02 113.718 136.881 113.295C136.748 112.866 136.687 112.385 136.696 111.852C136.705 111.325 136.787 110.853 136.941 110.436C137.095 110.019 137.304 109.665 137.569 109.377C137.834 109.088 138.145 108.87 138.501 108.723C138.857 108.569 139.245 108.496 139.665 108.503C140.065 108.51 140.413 108.6 140.71 108.771C141.014 108.937 141.261 109.128 141.45 109.344L140.991 109.876C140.821 109.687 140.627 109.533 140.409 109.416C140.191 109.299 139.942 109.238 139.662 109.233C139.349 109.228 139.064 109.286 138.809 109.408C138.553 109.524 138.334 109.697 138.15 109.927C137.966 110.15 137.821 110.425 137.715 110.749C137.616 111.074 137.563 111.44 137.556 111.847C137.549 112.26 137.589 112.634 137.677 112.969C137.771 113.297 137.903 113.58 138.072 113.816C138.241 114.052 138.448 114.236 138.692 114.367C138.943 114.498 139.226 114.566 139.539 114.572C139.859 114.577 140.14 114.519 140.382 114.397C140.624 114.267 140.854 114.088 141.071 113.859L141.522 114.386C141.257 114.682 140.96 114.91 140.63 115.071C140.301 115.232 139.923 115.309 139.496 115.301ZM142.731 115.238L142.845 108.679L143.675 108.693L143.56 115.252L142.731 115.238ZM144.529 116.869L147.351 108.217L147.951 108.228L145.129 116.88L144.529 116.869ZM151.233 115.506C150.819 115.499 150.441 115.416 150.097 115.256C149.753 115.097 149.453 114.872 149.198 114.58C148.95 114.283 148.756 113.923 148.617 113.5C148.485 113.071 148.423 112.59 148.432 112.057C148.442 111.53 148.523 111.058 148.677 110.641C148.831 110.223 149.041 109.87 149.306 109.582C149.571 109.293 149.881 109.075 150.237 108.928C150.593 108.774 150.981 108.701 151.401 108.708C151.801 108.715 152.15 108.804 152.447 108.976C152.751 109.142 152.997 109.333 153.187 109.549L152.727 110.081C152.557 109.892 152.363 109.738 152.145 109.621C151.927 109.504 151.678 109.443 151.399 109.438C151.085 109.433 150.801 109.491 150.545 109.613C150.29 109.729 150.07 109.902 149.886 110.132C149.702 110.355 149.557 110.629 149.452 110.954C149.353 111.279 149.3 111.645 149.293 112.052C149.285 112.465 149.325 112.839 149.413 113.174C149.507 113.502 149.639 113.785 149.808 114.021C149.978 114.257 150.184 114.441 150.429 114.572C150.68 114.703 150.962 114.771 151.275 114.777C151.595 114.782 151.876 114.724 152.118 114.601C152.361 114.472 152.591 114.293 152.808 114.063L153.259 114.591C152.994 114.887 152.696 115.115 152.367 115.276C152.037 115.437 151.659 115.514 151.233 115.506ZM154.467 115.443L154.582 108.884L156.221 108.912C157.234 108.93 157.999 109.223 158.516 109.792C159.033 110.361 159.282 111.169 159.264 112.216C159.255 112.736 159.18 113.201 159.04 113.612C158.899 114.016 158.697 114.36 158.432 114.642C158.167 114.917 157.843 115.128 157.46 115.275C157.078 115.415 156.64 115.48 156.147 115.472L154.467 115.443ZM155.309 114.777L156.059 114.79C156.825 114.804 157.403 114.584 157.79 114.13C158.185 113.677 158.39 113.034 158.404 112.201C158.419 111.368 158.237 110.728 157.858 110.281C157.485 109.834 156.916 109.604 156.149 109.591L155.4 109.578L155.309 114.777Z" fill="white" fill-opacity="0.129412"/>
<path d="M61.7514 108.458C61.354 108.345 61.0099 108.166 60.7189 107.923C60.4279 107.68 60.197 107.385 60.0261 107.038C59.8634 106.686 59.7695 106.288 59.7443 105.844C59.7273 105.395 59.7923 104.915 59.9393 104.402C60.0845 103.896 60.2855 103.461 60.5422 103.097C60.799 102.734 61.0927 102.447 61.4235 102.237C61.7543 102.027 62.1106 101.897 62.4925 101.847C62.8763 101.79 63.27 101.82 63.6738 101.936C64.0583 102.046 64.3717 102.222 64.6142 102.465C64.8649 102.704 65.0537 102.952 65.1808 103.21L64.5994 103.605C64.4842 103.378 64.3365 103.18 64.1562 103.01C63.976 102.841 63.7513 102.717 63.4822 102.64C63.181 102.554 62.8911 102.537 62.6127 102.588C62.3361 102.634 62.0791 102.744 61.8418 102.919C61.6063 103.087 61.3955 103.314 61.2093 103.601C61.0295 103.889 60.8836 104.229 60.7715 104.62C60.6576 105.017 60.5995 105.389 60.5974 105.735C60.6035 106.076 60.6577 106.383 60.76 106.655C60.8623 106.927 61.0145 107.158 61.2167 107.348C61.4253 107.54 61.6802 107.679 61.9814 107.765C62.289 107.853 62.5756 107.87 62.8412 107.814C63.1087 107.752 63.3771 107.638 63.6465 107.473L63.9454 108.099C63.6127 108.316 63.2664 108.459 62.9065 108.53C62.5465 108.6 62.1615 108.576 61.7514 108.458ZM64.8921 109.234L66.7003 102.928L67.4981 103.157L65.6899 109.463L64.8921 109.234ZM66.2073 111.276L71.1719 103.649L71.7486 103.814L66.784 111.441L66.2073 111.276ZM73.0349 111.694C72.6376 111.58 72.2935 111.402 72.0025 111.159C71.7115 110.916 71.4806 110.621 71.3097 110.273C71.147 109.922 71.053 109.524 71.0278 109.079C71.0109 108.631 71.0759 108.15 71.2229 107.637C71.3681 107.131 71.569 106.696 71.8258 106.333C72.0825 105.97 72.3763 105.683 72.7071 105.473C73.0378 105.262 73.3942 105.132 73.7761 105.082C74.1599 105.026 74.5536 105.055 74.9573 105.171C75.3418 105.281 75.6553 105.458 75.8977 105.701C76.1484 105.939 76.3373 106.188 76.4643 106.446L75.8829 106.841C75.7677 106.614 75.62 106.415 75.4398 106.246C75.2596 106.076 75.0349 105.953 74.7657 105.876C74.4645 105.789 74.1747 105.772 73.8963 105.824C73.6197 105.87 73.3627 105.98 73.1254 106.154C72.8899 106.323 72.679 106.55 72.4929 106.836C72.3131 107.125 72.1672 107.464 72.0551 107.855C71.9411 108.252 71.8831 108.624 71.8809 108.97C71.887 109.312 71.9412 109.619 72.0435 109.891C72.1458 110.163 72.2981 110.394 72.5003 110.584C72.7089 110.775 72.9638 110.914 73.265 111.001C73.5726 111.089 73.8592 111.105 74.1248 111.049C74.3923 110.987 74.6607 110.874 74.9301 110.708L75.2289 111.335C74.8963 111.552 74.55 111.695 74.1901 111.765C73.8301 111.835 73.4451 111.812 73.0349 111.694ZM76.1757 112.47L77.9838 106.164L79.5603 106.616C80.5344 106.895 81.1974 107.377 81.5493 108.06C81.9012 108.744 81.9329 109.588 81.6444 110.594C81.5011 111.094 81.3083 111.525 81.0662 111.885C80.826 112.239 80.5414 112.518 80.2124 112.722C79.8853 112.92 79.518 113.04 79.1105 113.082C78.7048 113.119 78.2648 113.069 77.7906 112.933L76.1757 112.47ZM77.1609 112.045L77.8819 112.252C78.6188 112.463 79.2334 112.4 79.7254 112.062C80.2239 111.727 80.588 111.158 80.8177 110.357C81.0474 109.556 81.0371 108.891 80.7866 108.362C80.5426 107.834 80.0522 107.464 79.3152 107.253L78.5942 107.046L77.1609 112.045Z" fill="white" fill-opacity="0.129412"/>
<path d="M101.549 118.641C101.156 118.768 100.771 118.813 100.394 118.774C100.017 118.735 99.6603 118.62 99.3244 118.428C98.9928 118.227 98.6924 117.949 98.4231 117.595C98.1581 117.233 97.9432 116.798 97.7784 116.291C97.6157 115.79 97.5391 115.317 97.5488 114.872C97.5585 114.427 97.6417 114.025 97.7983 113.666C97.955 113.307 98.1776 113 98.4663 112.745C98.7529 112.483 99.0959 112.288 99.4953 112.158C99.8758 112.034 100.234 112.005 100.571 112.071C100.912 112.129 101.208 112.229 101.458 112.372L101.196 113.025C100.974 112.901 100.741 112.819 100.496 112.779C100.252 112.739 99.9967 112.763 99.7304 112.849C99.4324 112.946 99.1825 113.094 98.9807 113.292C98.7769 113.485 98.6254 113.72 98.5263 113.997C98.4252 114.269 98.3775 114.575 98.3834 114.917C98.3956 115.256 98.4645 115.619 98.5901 116.006C98.7179 116.399 98.8776 116.74 99.0694 117.028C99.2654 117.308 99.4819 117.532 99.7189 117.7C99.9559 117.868 100.211 117.975 100.485 118.019C100.765 118.061 101.054 118.034 101.352 117.937C101.656 117.838 101.903 117.691 102.092 117.497C102.279 117.296 102.438 117.051 102.569 116.763L103.167 117.116C103.013 117.482 102.806 117.794 102.547 118.054C102.287 118.313 101.955 118.509 101.549 118.641ZM104.587 117.527L102.56 111.288L103.349 111.032L105.376 117.271L104.587 117.527ZM106.819 118.485L106.67 109.385L107.24 109.2L107.389 118.299L106.819 118.485ZM112.713 115.013C112.32 115.141 111.935 115.185 111.558 115.147C111.181 115.108 110.824 114.993 110.488 114.8C110.157 114.6 109.856 114.322 109.587 113.968C109.322 113.605 109.107 113.171 108.942 112.663C108.779 112.162 108.703 111.69 108.713 111.245C108.722 110.8 108.805 110.398 108.962 110.039C109.119 109.679 109.341 109.372 109.63 109.117C109.917 108.856 110.26 108.66 110.659 108.531C111.04 108.407 111.398 108.378 111.735 108.444C112.076 108.501 112.372 108.602 112.621 108.745L112.36 109.397C112.138 109.273 111.904 109.191 111.66 109.152C111.416 109.112 111.16 109.135 110.894 109.222C110.596 109.319 110.346 109.466 110.145 109.665C109.941 109.858 109.789 110.092 109.69 110.37C109.589 110.641 109.541 110.948 109.547 111.289C109.559 111.629 109.628 111.992 109.754 112.379C109.882 112.772 110.041 113.112 110.233 113.401C110.429 113.68 110.646 113.904 110.883 114.073C111.12 114.241 111.375 114.347 111.649 114.392C111.929 114.434 112.218 114.406 112.516 114.31C112.82 114.211 113.067 114.064 113.256 113.869C113.443 113.668 113.602 113.424 113.733 113.136L114.331 113.489C114.176 113.854 113.969 114.167 113.71 114.426C113.451 114.686 113.119 114.881 112.713 115.013ZM115.75 113.9L113.723 107.661L115.283 107.154C116.247 106.841 117.066 106.87 117.74 107.239C118.413 107.609 118.912 108.292 119.236 109.287C119.396 109.782 119.477 110.246 119.478 110.681C119.477 111.109 119.397 111.499 119.238 111.852C119.078 112.199 118.84 112.504 118.526 112.767C118.21 113.024 117.817 113.228 117.348 113.381L115.75 113.9ZM116.33 112.997L117.043 112.765C117.772 112.528 118.246 112.132 118.466 111.577C118.691 111.02 118.675 110.346 118.418 109.553C118.16 108.761 117.78 108.215 117.276 107.916C116.778 107.615 116.165 107.583 115.436 107.82L114.723 108.051L116.33 112.997Z" fill="white" fill-opacity="0.129412"/>
<path d="M81.027 98.9669C80.6339 99.0947 80.2488 99.1392 79.8717 99.1005C79.4946 99.0618 79.1382 98.9463 78.8023 98.754C78.4707 98.5533 78.1703 98.2759 77.901 97.9218C77.636 97.5592 77.4211 97.1244 77.2563 96.6171C77.0936 96.1162 77.0171 95.6434 77.0268 95.1986C77.0365 94.7539 77.1196 94.3518 77.2762 93.9925C77.4329 93.6332 77.6555 93.326 77.9442 93.071C78.2308 92.8097 78.5738 92.6141 78.9732 92.4843C79.3537 92.3607 79.7123 92.3318 80.0491 92.3976C80.3902 92.455 80.6857 92.5553 80.9354 92.6984L80.6743 93.3511C80.4518 93.2271 80.2184 93.1452 79.9742 93.1054C79.7299 93.0656 79.4746 93.089 79.2083 93.1755C78.9103 93.2723 78.6604 93.4201 78.4586 93.6188C78.2548 93.8113 78.1033 94.0462 78.0042 94.3238C77.9031 94.595 77.8554 94.9013 77.8613 95.2429C77.8735 95.5824 77.9424 95.9456 78.0681 96.3324C78.1958 96.7255 78.3555 97.0661 78.5473 97.3543C78.7434 97.6341 78.9599 97.8581 79.1968 98.0265C79.4338 98.1948 79.6891 98.3011 79.9628 98.3454C80.2429 98.3875 80.532 98.3602 80.83 98.2634C81.1343 98.1645 81.381 98.0177 81.5701 97.8231C81.7572 97.6221 81.9161 97.3777 82.0469 97.0899L82.6451 97.4423C82.4905 97.808 82.2836 98.1205 82.0244 98.38C81.7653 98.6394 81.4328 98.8351 81.027 98.9669ZM84.0646 97.8538L82.0374 91.6149L82.8268 91.3584L84.854 97.5973L84.0646 97.8538ZM86.2965 98.8109L86.1474 89.7117L86.7181 89.5262L86.8672 98.6255L86.2965 98.8109ZM92.1908 95.3396C91.7977 95.4673 91.4126 95.5118 91.0355 95.4731C90.6584 95.4344 90.3019 95.3189 89.9661 95.1266C89.6345 94.926 89.3341 94.6486 89.0648 94.2944C88.7998 93.9319 88.5849 93.497 88.4201 92.9898C88.2573 92.4889 88.1808 92.0161 88.1905 91.5713C88.2002 91.1266 88.2834 90.7245 88.44 90.3652C88.5966 90.0059 88.8193 89.6987 89.1079 89.4437C89.3945 89.1823 89.7376 88.9868 90.137 88.857C90.5174 88.7334 90.8761 88.7045 91.2129 88.7703C91.554 88.8277 91.8494 88.9279 92.0992 89.0711L91.8381 89.7237C91.6156 89.5998 91.3822 89.5179 91.1379 89.4781C90.8937 89.4383 90.6384 89.4616 90.3721 89.5482C90.0741 89.645 89.8242 89.7928 89.6224 89.9915C89.4186 90.1839 89.2671 90.4189 89.168 90.6964C89.0669 90.9676 89.0192 91.274 89.0251 91.6156C89.0372 91.9551 89.1062 92.3183 89.2318 92.705C89.3595 93.0981 89.5193 93.4388 89.7111 93.7269C89.9071 94.0067 90.1236 94.2308 90.3606 94.3991C90.5975 94.5675 90.8529 94.6738 91.1266 94.718C91.4067 94.7602 91.6957 94.7329 91.9937 94.6361C92.2981 94.5372 92.5448 94.3904 92.7339 94.1958C92.9209 93.9948 93.0799 93.7504 93.2107 93.4626L93.8088 93.815C93.6543 94.1806 93.4474 94.4932 93.1882 94.7527C92.929 95.0121 92.5966 95.2078 92.1908 95.3396ZM95.2284 94.2265L93.2012 87.9875L94.7609 87.4807C95.7247 87.1676 96.5435 87.196 97.2174 87.5658C97.8914 87.9356 98.3901 88.6183 98.7135 89.6137C98.8742 90.1083 98.955 90.5727 98.9559 91.007C98.9548 91.435 98.8749 91.8254 98.7162 92.1784C98.5554 92.5251 98.318 92.83 98.004 93.0933C97.6879 93.3502 97.2953 93.5549 96.8261 93.7073L95.2284 94.2265ZM95.8076 93.3233L96.5209 93.0915C97.25 92.8546 97.7242 92.4587 97.9435 91.9038C98.1691 91.3468 98.1531 90.672 97.8956 89.8795C97.6381 89.0869 97.2575 88.5412 96.7538 88.2422C96.2564 87.9412 95.6431 87.9091 94.914 88.146L94.2007 88.3778L95.8076 93.3233Z" fill="white" fill-opacity="0.129412"/>
<path d="M128.223 96.7936C127.809 96.7936 127.429 96.7169 127.083 96.5636C126.736 96.4103 126.433 96.1903 126.173 95.9036C125.919 95.6103 125.719 95.2536 125.573 94.8336C125.433 94.4069 125.363 93.9269 125.363 93.3936C125.363 92.8669 125.436 92.3936 125.583 91.9736C125.729 91.5536 125.933 91.1969 126.193 90.9036C126.453 90.6103 126.759 90.3869 127.113 90.2336C127.466 90.0736 127.853 89.9936 128.273 89.9936C128.673 89.9936 129.023 90.0769 129.323 90.2436C129.629 90.4036 129.879 90.5903 130.073 90.8036L129.623 91.3436C129.449 91.1569 129.253 91.0069 129.033 90.8936C128.813 90.7803 128.563 90.7236 128.283 90.7236C127.969 90.7236 127.686 90.7869 127.433 90.9136C127.179 91.0336 126.963 91.2103 126.783 91.4436C126.603 91.6703 126.463 91.9469 126.363 92.2736C126.269 92.6003 126.223 92.9669 126.223 93.3736C126.223 93.7869 126.269 94.1603 126.363 94.4936C126.463 94.8203 126.599 95.1003 126.773 95.3336C126.946 95.5669 127.156 95.7469 127.403 95.8736C127.656 96.0003 127.939 96.0636 128.253 96.0636C128.573 96.0636 128.853 96.0003 129.093 95.8736C129.333 95.7403 129.559 95.5569 129.773 95.3236L130.233 95.8436C129.973 96.1436 129.679 96.3769 129.353 96.5436C129.026 96.7103 128.649 96.7936 128.223 96.7936ZM131.456 96.6736V90.1136H132.286V96.6736H131.456ZM133.282 98.2736L135.952 89.5736H136.552L133.882 98.2736H133.282ZM139.961 96.7936C139.548 96.7936 139.168 96.7169 138.821 96.5636C138.474 96.4103 138.171 96.1903 137.911 95.9036C137.658 95.6103 137.458 95.2536 137.311 94.8336C137.171 94.4069 137.101 93.9269 137.101 93.3936C137.101 92.8669 137.174 92.3936 137.321 91.9736C137.468 91.5536 137.671 91.1969 137.931 90.9036C138.191 90.6103 138.498 90.3869 138.851 90.2336C139.204 90.0736 139.591 89.9936 140.011 89.9936C140.411 89.9936 140.761 90.0769 141.061 90.2436C141.368 90.4036 141.618 90.5903 141.811 90.8036L141.361 91.3436C141.188 91.1569 140.991 91.0069 140.771 90.8936C140.551 90.7803 140.301 90.7236 140.021 90.7236C139.708 90.7236 139.424 90.7869 139.171 90.9136C138.918 91.0336 138.701 91.2103 138.521 91.4436C138.341 91.6703 138.201 91.9469 138.101 92.2736C138.008 92.6003 137.961 92.9669 137.961 93.3736C137.961 93.7869 138.008 94.1603 138.101 94.4936C138.201 94.8203 138.338 95.1003 138.511 95.3336C138.684 95.5669 138.894 95.7469 139.141 95.8736C139.394 96.0003 139.678 96.0636 139.991 96.0636C140.311 96.0636 140.591 96.0003 140.831 95.8736C141.071 95.7403 141.298 95.5569 141.511 95.3236L141.971 95.8436C141.711 96.1436 141.418 96.3769 141.091 96.5436C140.764 96.7103 140.388 96.7936 139.961 96.7936ZM143.194 96.6736V90.1136H144.834C145.847 90.1136 146.617 90.3936 147.144 90.9536C147.67 91.5136 147.934 92.3169 147.934 93.3636C147.934 93.8836 147.867 94.3503 147.734 94.7636C147.6 95.1703 147.404 95.5169 147.144 95.8036C146.884 96.0836 146.564 96.3003 146.184 96.4536C145.804 96.6003 145.367 96.6736 144.874 96.6736H143.194ZM144.024 95.9936H144.774C145.54 95.9936 146.114 95.7636 146.494 95.3036C146.88 94.8436 147.074 94.1969 147.074 93.3636C147.074 92.5303 146.88 91.8936 146.494 91.4536C146.114 91.0136 145.54 90.7936 144.774 90.7936H144.024V95.9936Z" fill="white" fill-opacity="0.129412"/>
<path d="M64.38 75.12C63.9667 75.12 63.5867 75.0433 63.24 74.89C62.8933 74.7367 62.59 74.5167 62.33 74.23C62.0767 73.9367 61.8767 73.58 61.73 73.16C61.59 72.7333 61.52 72.2533 61.52 71.72C61.52 71.1933 61.5933 70.72 61.74 70.3C61.8867 69.88 62.09 69.5233 62.35 69.23C62.61 68.9367 62.9167 68.7133 63.27 68.56C63.6233 68.4 64.01 68.32 64.43 68.32C64.83 68.32 65.18 68.4033 65.48 68.57C65.7867 68.73 66.0367 68.9167 66.23 69.13L65.78 69.67C65.6067 69.4833 65.41 69.3333 65.19 69.22C64.97 69.1067 64.72 69.05 64.44 69.05C64.1267 69.05 63.8433 69.1133 63.59 69.24C63.3367 69.36 63.12 69.5367 62.94 69.77C62.76 69.9967 62.62 70.2733 62.52 70.6C62.4267 70.9267 62.38 71.2933 62.38 71.7C62.38 72.1133 62.4267 72.4867 62.52 72.82C62.62 73.1467 62.7567 73.4267 62.93 73.66C63.1033 73.8933 63.3133 74.0733 63.56 74.2C63.8133 74.3267 64.0967 74.39 64.41 74.39C64.73 74.39 65.01 74.3267 65.25 74.2C65.49 74.0667 65.7167 73.8833 65.93 73.65L66.39 74.17C66.13 74.47 65.8367 74.7033 65.51 74.87C65.1833 75.0367 64.8067 75.12 64.38 75.12ZM67.6129 75V68.44H68.4429V75H67.6129ZM69.4398 76.6L72.1098 67.9H72.7098L70.0398 76.6H69.4398ZM76.1183 75.12C75.7049 75.12 75.3249 75.0433 74.9783 74.89C74.6316 74.7367 74.3283 74.5167 74.0683 74.23C73.8149 73.9367 73.6149 73.58 73.4683 73.16C73.3283 72.7333 73.2583 72.2533 73.2583 71.72C73.2583 71.1933 73.3316 70.72 73.4783 70.3C73.6249 69.88 73.8283 69.5233 74.0883 69.23C74.3483 68.9367 74.6549 68.7133 75.0083 68.56C75.3616 68.4 75.7483 68.32 76.1683 68.32C76.5683 68.32 76.9183 68.4033 77.2183 68.57C77.5249 68.73 77.7749 68.9167 77.9683 69.13L77.5183 69.67C77.3449 69.4833 77.1483 69.3333 76.9283 69.22C76.7083 69.1067 76.4583 69.05 76.1783 69.05C75.8649 69.05 75.5816 69.1133 75.3283 69.24C75.0749 69.36 74.8583 69.5367 74.6783 69.77C74.4983 69.9967 74.3583 70.2733 74.2583 70.6C74.1649 70.9267 74.1183 71.2933 74.1183 71.7C74.1183 72.1133 74.1649 72.4867 74.2583 72.82C74.3583 73.1467 74.4949 73.4267 74.6683 73.66C74.8416 73.8933 75.0516 74.0733 75.2983 74.2C75.5516 74.3267 75.8349 74.39 76.1483 74.39C76.4683 74.39 76.7483 74.3267 76.9883 74.2C77.2283 74.0667 77.4549 73.8833 77.6683 73.65L78.1283 74.17C77.8683 74.47 77.5749 74.7033 77.2483 74.87C76.9216 75.0367 76.5449 75.12 76.1183 75.12ZM79.3512 75V68.44H80.9912C82.0045 68.44 82.7745 68.72 83.3012 69.28C83.8278 69.84 84.0912 70.6433 84.0912 71.69C84.0912 72.21 84.0245 72.6767 83.8912 73.09C83.7578 73.4967 83.5612 73.8433 83.3012 74.13C83.0412 74.41 82.7212 74.6267 82.3412 74.78C81.9612 74.9267 81.5245 75 81.0312 75H79.3512ZM80.1812 74.32H80.9312C81.6978 74.32 82.2712 74.09 82.6512 73.63C83.0378 73.17 83.2312 72.5233 83.2312 71.69C83.2312 70.8567 83.0378 70.22 82.6512 69.78C82.2712 69.34 81.6978 69.12 80.9312 69.12H80.1812V74.32Z" fill="white" fill-opacity="0.129412"/>
<path fill-rule="evenodd" clip-rule="evenodd" d="M147.602 39.6693C147.732 41.1781 147.862 42.6884 147.973 44.2034C148.087 45.378 147.87 45.632 146.795 45.8542C145.048 46.214 143.301 46.5632 141.543 46.9124C141.209 46.9417 140.933 47.1905 140.861 47.5261C140.169 50.1214 138.954 52.5399 137.295 54.6265C137.207 54.8212 137.207 55.0456 137.295 55.2403C137.769 56.1935 138.254 57.1119 138.737 58.0274C139.096 58.7075 139.454 59.3861 139.807 60.0762C139.996 60.3458 140.062 60.6864 139.987 61.0095C139.911 61.3325 139.702 61.606 139.414 61.7587C137.629 63.0779 135.827 64.3759 134.008 65.6528C133.046 66.3512 132.633 66.2242 131.847 65.293C130.659 63.8962 129.47 62.51 128.25 61.1449C128.063 60.9866 127.816 60.9242 127.578 60.9756C125.083 61.6669 122.477 61.829 119.918 61.4518C119.683 61.4515 119.462 61.5703 119.329 61.7693C118.946 62.3412 118.596 62.9383 118.25 63.5275C117.925 64.083 117.603 64.6314 117.262 65.1449C116.869 65.7461 116.408 66.2967 115.887 66.7851C115.609 66.9917 115.249 67.0432 114.926 66.9226C113.203 66.1556 111.481 65.3518 109.758 64.548C109.413 64.3871 109.068 64.2261 108.724 64.0655C108.391 63.9694 108.117 63.7275 107.975 63.4049C107.834 63.0822 107.839 62.712 107.99 62.3936C108.121 61.975 108.253 61.5564 108.385 61.1377C108.824 59.7464 109.264 58.3536 109.685 56.9545C109.757 56.7061 109.715 56.4377 109.571 56.2244C107.59 54.215 106.059 51.7886 105.085 49.1134C105.027 48.7687 104.723 48.5257 104.382 48.5526C103.316 48.5261 102.25 48.479 101.184 48.4319C100.544 48.4036 99.9048 48.3753 99.2652 48.3515C98.3245 48.3092 98.0144 47.9706 97.9524 47.0076C97.88 45.8965 97.7999 44.7854 97.7198 43.6744C97.6397 42.5633 97.5596 41.4522 97.4872 40.3411C97.4045 39.1665 97.5906 38.9443 98.6863 38.722L98.6877 38.7218C100.455 38.3621 102.222 38.0024 104 37.6639C104.312 37.6205 104.567 37.3852 104.64 37.0713C105.086 35.7534 105.607 34.4637 106.201 33.2089C106.782 32.1554 107.439 31.1473 108.165 30.1931C108.374 29.9781 108.408 29.6436 108.248 29.3889C107.421 27.8651 106.615 26.3307 105.808 24.7858C105.354 23.9075 105.519 23.4101 106.315 22.8493C107.979 21.6845 109.634 20.4925 111.28 19.3068C111.413 19.2107 111.547 19.1147 111.68 19.0187C112.476 18.4578 112.9 18.5002 113.51 19.2197C113.822 19.5798 114.135 19.9405 114.447 20.3012C115.383 21.3823 116.319 22.4633 117.272 23.5265C117.443 23.6945 117.678 23.776 117.913 23.7488C120.647 23.0067 123.511 22.9126 126.286 23.4736C126.554 23.5583 126.841 23.4271 126.958 23.1668C127.916 21.6641 128.874 20.1721 129.832 18.6906C130.297 17.9817 130.71 17.8229 131.455 18.1933C132.656 18.797 133.842 19.4329 135.031 20.0705C135.509 20.327 135.988 20.5837 136.468 20.8388C136.573 20.8986 136.677 20.9562 136.778 21.0124C137.679 21.5122 138.376 21.899 138.246 22.7646C138.177 22.9797 138.106 23.2001 138.035 23.4225C137.776 24.2288 137.509 25.0603 137.274 25.7487C137.254 25.8094 137.233 25.8701 137.212 25.9309C136.933 26.7498 136.651 27.5758 136.334 28.3836C136.207 28.6954 136.277 29.0544 136.509 29.2936C137.45 30.574 138.391 31.8544 139.249 33.1878C139.657 33.845 139.973 34.5573 140.189 35.3041C140.296 35.7903 140.738 36.1206 141.223 36.0766C141.893 36.0897 142.563 36.1154 143.232 36.1411C144.184 36.1777 145.134 36.2142 146.081 36.2142C147.012 36.2459 147.332 36.5316 147.415 37.4628C147.476 38.1982 147.539 38.9336 147.602 39.6693ZM123 34.7021C118.582 34.7021 115 38.2839 115 42.7021C115 47.1204 118.582 50.7021 123 50.7021C127.418 50.7021 131 47.1204 131 42.7021C131 38.2839 127.418 34.7021 123 34.7021Z" fill="url(#paint1_linear)"/>
<path fill-rule="evenodd" clip-rule="evenodd" d="M206.712 35.9699C206.172 36.3754 205.632 36.7814 205.085 37.1814C204.668 37.5019 204.521 37.4798 204.183 37.1258C203.634 36.5503 203.089 35.9722 202.542 35.3902C202.452 35.2708 202.292 35.2249 202.149 35.2773C201.004 35.6286 199.802 35.7407 198.621 35.6065C198.527 35.6191 198.442 35.6722 198.389 35.7515C198.141 36.1561 197.908 36.5564 197.676 36.9554C197.504 37.2518 197.332 37.5476 197.154 37.8439C197.097 37.9793 196.984 38.0846 196.844 38.1324C196.704 38.1802 196.551 38.1658 196.425 38.0929C195.505 37.7297 194.588 37.355 193.675 36.9688C193.184 36.7703 193.134 36.5839 193.301 36.0668C193.548 35.2873 193.791 34.5103 194.019 33.7265C194.035 33.6184 194 33.5101 193.925 33.4325C193.074 32.6524 192.397 31.7051 191.935 30.6487C191.879 30.5595 191.782 30.5042 191.675 30.5009C191.369 30.4911 191.06 30.4998 190.756 30.5084C190.469 30.5164 190.185 30.5244 189.911 30.5167C189.591 30.5104 189.273 30.466 188.966 30.3844C188.822 30.328 188.717 30.204 188.686 30.0534C188.569 29.2208 188.466 28.3795 188.363 27.5383C188.343 27.3699 188.322 27.2015 188.301 27.0331C188.259 26.8847 188.286 26.724 188.374 26.5942C188.463 26.4644 188.604 26.3789 188.76 26.3606C188.949 26.3114 189.139 26.2624 189.328 26.2135C189.958 26.0507 190.589 25.8878 191.217 25.7165C191.328 25.6849 191.42 25.6057 191.466 25.5009C191.758 24.277 192.314 23.1249 193.095 22.1244C193.212 22.0212 193.232 21.8486 193.141 21.7261C192.899 21.3168 192.665 20.9026 192.431 20.4884C192.291 20.2398 192.15 19.9913 192.008 19.7438C191.802 19.3781 191.857 19.1809 192.206 18.9299C192.609 18.64 193.011 18.3472 193.412 18.0544C193.813 17.7615 194.214 17.4687 194.617 17.1788C195.042 16.87 195.17 16.8879 195.513 17.2497L195.513 17.2502C196.067 17.8334 196.62 18.4166 197.168 19.0087C197.258 19.1167 197.408 19.1573 197.544 19.1111C198.147 18.968 198.758 18.8604 199.373 18.7887C199.909 18.7595 200.445 18.7695 200.977 18.8187C201.108 18.8468 201.243 18.7808 201.301 18.66C201.682 17.9873 202.071 17.3199 202.465 16.6499C202.69 16.2704 202.917 16.2155 203.317 16.3839C204.151 16.7378 204.992 17.0819 205.83 17.4242C205.898 17.452 205.965 17.4797 206.033 17.5074C206.433 17.6759 206.517 17.8461 206.389 18.2468C206.327 18.4502 206.265 18.6535 206.202 18.8568C206.014 19.4661 205.827 20.0754 205.65 20.6871C205.627 20.7914 205.651 20.8994 205.717 20.982C206.644 21.8405 207.356 22.9011 207.8 24.083C207.831 24.2041 207.948 24.2818 208.075 24.2645C208.869 24.2717 209.66 24.2814 210.446 24.2935C210.824 24.3019 210.982 24.4208 211.018 24.7897C211.073 25.3866 211.113 25.9853 211.153 26.5854C211.169 26.8268 211.185 27.0685 211.202 27.3105C211.204 27.3645 211.207 27.4173 211.21 27.4689C211.233 27.9275 211.252 28.2824 210.894 28.4378C210.796 28.4624 210.696 28.4877 210.595 28.5132C210.229 28.606 209.852 28.7016 209.536 28.7754C209.508 28.782 209.48 28.7885 209.452 28.795C209.076 28.8829 208.698 28.9716 208.317 29.0423C208.169 29.0682 208.05 29.1793 208.015 29.3238C207.753 29.982 207.491 30.6402 207.189 31.2797C207.037 31.5893 206.843 31.8773 206.611 32.1354C206.453 32.2907 206.432 32.5358 206.564 32.7088C206.717 32.9651 206.865 33.2245 207.014 33.4835C207.225 33.8522 207.436 34.2203 207.659 34.5784C207.867 34.9377 207.835 35.1263 207.502 35.3776C207.239 35.5745 206.976 35.7721 206.712 35.9699ZM202.778 25.4935C201.734 23.8229 199.533 23.3148 197.863 24.3588C196.192 25.4027 195.684 27.6033 196.728 29.274C197.772 30.9446 199.972 31.4527 201.643 30.4087C203.314 29.3648 203.822 27.1642 202.778 25.4935Z" fill="url(#paint2_linear)"/>
<path fill-rule="evenodd" clip-rule="evenodd" d="M70.6312 24.3952C70.0914 24.8007 69.551 25.2067 69.0044 25.6067C68.5871 25.9272 68.4398 25.9051 68.1018 25.5511C67.553 24.9755 67.0082 24.3975 66.4609 23.8155C66.3708 23.696 66.2114 23.6502 66.0676 23.7026C64.9227 24.0539 63.7212 24.166 62.5402 24.0318C62.4458 24.0444 62.3609 24.0975 62.3081 24.1768C62.0598 24.5814 61.827 24.9817 61.595 25.3807C61.4226 25.6771 61.2507 25.9729 61.073 26.2692C61.0159 26.4045 60.9026 26.5098 60.7626 26.5577C60.6226 26.6055 60.4698 26.5911 60.344 26.5182C59.4235 26.155 58.5069 25.7803 57.5942 25.3941C57.103 25.1956 57.0533 25.0092 57.2198 24.4921C57.4671 23.7126 57.7103 22.9356 57.9383 22.1518C57.954 22.0437 57.9191 21.9354 57.8435 21.8577C56.9927 21.0777 56.3155 20.1304 55.8537 19.0739C55.7981 18.9848 55.7011 18.9295 55.5944 18.9262C55.2877 18.9164 54.9791 18.9251 54.6747 18.9336C54.3877 18.9417 54.1043 18.9497 53.8295 18.942C53.5095 18.9357 53.1922 18.8913 52.8845 18.8097C52.7407 18.7533 52.636 18.6293 52.6053 18.4787C52.4884 17.6461 52.3853 16.8048 52.2822 15.9635C52.2616 15.7951 52.241 15.6267 52.2202 15.4584C52.178 15.31 52.2048 15.1492 52.2933 15.0195C52.3818 14.8897 52.5231 14.8042 52.679 14.7859C52.8684 14.7367 53.0579 14.6877 53.2474 14.6388C53.8772 14.476 54.5077 14.3131 55.1362 14.1417C55.2471 14.1102 55.3388 14.031 55.3854 13.9262C55.6771 12.7023 56.2329 11.5502 57.0143 10.5497C57.131 10.4464 57.1509 10.2738 57.0603 10.1514C56.8184 9.74208 56.5843 9.32788 56.3503 8.91366C56.2099 8.66513 56.0694 8.41659 55.9273 8.16911C55.721 7.80342 55.7758 7.60615 56.1253 7.35518C56.5283 7.06529 56.9295 6.77248 57.3307 6.47966C57.7319 6.18684 58.1331 5.89402 58.5361 5.60413C58.9607 5.29533 59.0887 5.31318 59.4316 5.67499L59.4321 5.67548C59.9857 6.2587 60.5392 6.84191 61.0872 7.43403C61.1774 7.54195 61.3265 7.58259 61.4627 7.53635C62.0662 7.39333 62.677 7.28567 63.2919 7.21396C63.8276 7.18475 64.3639 7.1948 64.8963 7.24404C65.0269 7.27209 65.1615 7.20605 65.22 7.0853C65.6008 6.41255 65.9904 5.74515 66.3841 5.07522C66.6087 4.69572 66.8359 4.64076 67.236 4.80922C68.0696 5.16311 68.9113 5.50724 69.7486 5.84953C69.8165 5.87727 69.8843 5.905 69.9521 5.93273C70.3522 6.10116 70.4363 6.27143 70.3084 6.67205C70.2461 6.87547 70.1835 7.07879 70.1209 7.28212C69.9333 7.89143 69.7457 8.50074 69.5689 9.11241C69.5457 9.21666 69.5704 9.32472 69.6363 9.40726C70.5629 10.2658 71.2751 11.3264 71.7187 12.5083C71.7499 12.6294 71.8674 12.707 71.9935 12.6898C72.788 12.697 73.5785 12.7067 74.365 12.7188C74.743 12.7272 74.9007 12.846 74.9365 13.215C74.9921 13.8119 75.0318 14.4106 75.0716 15.0107C75.0876 15.2521 75.1037 15.4938 75.1208 15.7357C75.123 15.7898 75.1258 15.8426 75.1285 15.8942C75.1523 16.3528 75.1707 16.7077 74.8126 16.8631C74.715 16.8877 74.6151 16.913 74.5142 16.9385C74.1481 17.0313 73.7706 17.1269 73.4547 17.2007C73.4268 17.2072 73.3989 17.2138 73.371 17.2203C72.9954 17.3082 72.6165 17.3968 72.2361 17.4676C72.0884 17.4935 71.969 17.6046 71.9335 17.7491C71.6716 18.4073 71.4097 19.0655 71.1083 19.705C70.9562 20.0146 70.7617 20.3026 70.5303 20.5607C70.3717 20.716 70.3513 20.9611 70.4825 21.1341C70.6358 21.3904 70.7843 21.6498 70.9326 21.9088C71.1438 22.2775 71.3546 22.6456 71.5784 23.0037C71.7862 23.363 71.7539 23.5516 71.4213 23.8029C71.1576 23.9998 70.8945 24.1974 70.6312 24.3952ZM66.6964 13.9182C65.6525 12.2475 63.4518 11.7395 61.7812 12.7834C60.1105 13.8274 59.6025 16.028 60.6464 17.6986C61.6904 19.3693 63.891 19.8773 65.5616 18.8334C67.2323 17.7895 67.7403 15.5888 66.6964 13.9182Z" fill="url(#paint3_linear)"/>
<path fill-rule="evenodd" clip-rule="evenodd" d="M23.132 74.777C22.5921 75.1825 22.0518 75.5885 21.5052 75.9885C21.0879 76.309 20.9406 76.2869 20.6026 75.9329C20.0537 75.3574 19.5089 74.7793 18.9617 74.1973C18.8716 74.0779 18.7122 74.032 18.5684 74.0844C17.4234 74.4357 16.2219 74.5478 15.0409 74.4136C14.9465 74.4262 14.8617 74.4793 14.8089 74.5586C14.5606 74.9632 14.3278 75.3635 14.0958 75.7625C13.9234 76.0589 13.7515 76.3547 13.5738 76.651C13.5167 76.7864 13.4034 76.8917 13.2634 76.9395C13.1234 76.9873 12.9706 76.9729 12.8448 76.9C11.9243 76.5368 11.0077 76.1621 10.095 75.7759C9.60375 75.5774 9.55406 75.391 9.72054 74.8739C9.96784 74.0944 10.2111 73.3174 10.4391 72.5336C10.4548 72.4255 10.4199 72.3172 10.3443 72.2396C9.49346 71.4595 8.81631 70.5122 8.35446 69.4558C8.2989 69.3666 8.20188 69.3113 8.09521 69.308C7.78843 69.2982 7.47989 69.3069 7.17545 69.3154C6.88844 69.3235 6.60509 69.3315 6.33033 69.3238C6.0103 69.3175 5.69301 69.2731 5.38529 69.1915C5.24144 69.1351 5.13683 69.0111 5.10613 68.8605C4.98917 68.0279 4.8861 67.1866 4.78303 66.3453C4.7624 66.177 4.74177 66.0086 4.72102 65.8402C4.6788 65.6918 4.70554 65.531 4.79408 65.4013C4.88261 65.2715 5.02386 65.186 5.17982 65.1677C5.36917 65.1185 5.55865 65.0695 5.74818 65.0206C6.37801 64.8578 7.00849 64.6949 7.637 64.5236C7.74793 64.492 7.83955 64.4128 7.88623 64.308C8.1779 63.0841 8.73367 61.932 9.51507 60.9315C9.63176 60.8283 9.65169 60.6557 9.56104 60.5332C9.31918 60.1239 9.08513 59.7097 8.85107 59.2955C8.71064 59.0469 8.5702 58.7984 8.42807 58.5509C8.22182 58.1852 8.27659 57.988 8.62605 57.737C9.02908 57.4471 9.43028 57.1543 9.83148 56.8615C10.2327 56.5686 10.6339 56.2758 11.0369 55.9859C11.4615 55.6771 11.5895 55.695 11.9324 56.0568L11.9329 56.0573C12.4864 56.6405 13.04 57.2237 13.588 57.8158C13.6782 57.9238 13.8273 57.9644 13.9635 57.9182C14.567 57.7751 15.1778 57.6675 15.7927 57.5958C16.3284 57.5666 16.8646 57.5766 17.3971 57.6258C17.5277 57.6539 17.6623 57.5879 17.7208 57.4671C18.1015 56.7944 18.4912 56.127 18.8849 55.457C19.1095 55.0775 19.3367 55.0226 19.7368 55.191C20.5704 55.5449 21.4121 55.889 22.2494 56.2313C22.3172 56.2591 22.3851 56.2868 22.4529 56.3145C22.853 56.483 22.9371 56.6532 22.8091 57.0539C22.7469 57.2573 22.6843 57.4606 22.6217 57.6639C22.4341 58.2732 22.2464 58.8825 22.0697 59.4942C22.0465 59.5985 22.0712 59.7065 22.1371 59.7891C23.0637 60.6476 23.7759 61.7082 24.2194 62.8901C24.2506 63.0112 24.3682 63.0889 24.4942 63.0716C25.2888 63.0788 26.0793 63.0885 26.8658 63.1006C27.2438 63.109 27.4015 63.2278 27.4373 63.5968C27.4929 64.1937 27.5326 64.7924 27.5724 65.3925C27.5884 65.6339 27.6045 65.8756 27.6215 66.1176C27.6238 66.1716 27.6266 66.2244 27.6292 66.276C27.653 66.7346 27.6715 67.0895 27.3134 67.2449C27.2158 67.2695 27.1159 67.2948 27.015 67.3203C26.6489 67.4131 26.2714 67.5087 25.9555 67.5825C25.9276 67.589 25.8997 67.5956 25.8718 67.6021C25.4962 67.69 25.1173 67.7786 24.7369 67.8494C24.5891 67.8753 24.4698 67.9864 24.4343 68.1309C24.1724 68.7891 23.9105 69.4473 23.6091 70.0868C23.457 70.3964 23.2625 70.6844 23.0311 70.9425C22.8725 71.0978 22.852 71.3429 22.9832 71.5159C23.1365 71.7722 23.2851 72.0316 23.4334 72.2906C23.6446 72.6593 23.8554 73.0274 24.0792 73.3855C24.287 73.7448 24.2547 73.9334 23.9221 74.1847C23.6584 74.3816 23.3952 74.5792 23.132 74.777ZM19.1971 64.2995C18.1531 62.6288 15.9525 62.1208 14.2818 63.1647C12.6112 64.2087 12.1031 66.4093 13.1471 68.0799C14.191 69.7506 16.3916 70.2587 18.0623 69.2147C19.733 68.1708 20.241 65.9701 19.1971 64.2995Z" fill="url(#paint4_linear)"/>
<path fill-rule="evenodd" clip-rule="evenodd" d="M30.651 94.0759C30.1111 94.4814 29.5708 94.8873 29.0242 95.2873C28.6069 95.6078 28.4596 95.5858 28.1215 95.2318C27.5727 94.6562 27.0279 94.0782 26.4807 93.4962C26.3906 93.3767 26.2312 93.3309 26.0874 93.3832C24.9424 93.7345 23.7409 93.8467 22.5599 93.7124C22.4655 93.7251 22.3807 93.7781 22.3279 93.8574C22.0795 94.2621 21.8468 94.6623 21.6148 95.0614C21.4424 95.3578 21.2705 95.6535 21.0928 95.9499C21.0357 96.0852 20.9223 96.1905 20.7824 96.2383C20.6424 96.2861 20.4896 96.2717 20.3638 96.1989C19.4433 95.8357 18.5266 95.461 17.614 95.0747C17.1227 94.8762 17.073 94.6899 17.2395 94.1728C17.4868 93.3933 17.7301 92.6162 17.9581 91.8325C17.9738 91.7244 17.9389 91.6161 17.8633 91.5384C17.0125 90.7584 16.3353 89.8111 15.8735 88.7546C15.8179 88.6655 15.7209 88.6102 15.6142 88.6068C15.3074 88.5971 14.9989 88.6058 14.6944 88.6143C14.4074 88.6224 14.1241 88.6303 13.8493 88.6227C13.5293 88.6164 13.212 88.5719 12.9043 88.4904C12.7604 88.434 12.6558 88.3099 12.6251 88.1594C12.5082 87.3268 12.4051 86.4855 12.302 85.6442C12.2814 85.4758 12.2608 85.3074 12.24 85.1391C12.1978 84.9907 12.2245 84.8299 12.3131 84.7001C12.4016 84.5703 12.5428 84.4848 12.6988 84.4665C12.8882 84.4174 13.0776 84.3684 13.2672 84.3194C13.897 84.1567 14.5275 83.9938 15.156 83.8224C15.2669 83.7909 15.3585 83.7117 15.4052 83.6069C15.6969 82.383 16.2527 81.2308 17.0341 80.2304C17.1508 80.1271 17.1707 79.9545 17.08 79.8321C16.8382 79.4227 16.6041 79.0085 16.3701 78.5943C16.2296 78.3458 16.0892 78.0973 15.9471 77.8498C15.7408 77.4841 15.7956 77.2868 16.145 77.0358C16.5481 76.746 16.9493 76.4531 17.3505 76.1603C17.7517 75.8675 18.1529 75.5747 18.5559 75.2848C18.9805 74.976 19.1085 74.9938 19.4514 75.3557L19.4519 75.3561C20.0054 75.9394 20.559 76.5226 21.1069 77.1147C21.1972 77.2226 21.3463 77.2633 21.4824 77.217C22.086 77.074 22.6968 76.9663 23.3117 76.8946C23.8474 76.8654 24.3836 76.8755 24.9161 76.9247C25.0467 76.9528 25.1813 76.8867 25.2398 76.766C25.6205 76.0932 26.0102 75.4258 26.4039 74.7559C26.6285 74.3764 26.8557 74.3214 27.2558 74.4899C28.0894 74.8438 28.9311 75.1879 29.7684 75.5302C29.8362 75.5579 29.9041 75.5857 29.9719 75.6134C30.372 75.7818 30.4561 75.9521 30.3281 76.3527C30.2659 76.5561 30.2033 76.7595 30.1407 76.9628C29.9531 77.5721 29.7654 78.1814 29.5887 78.7931C29.5655 78.8973 29.5902 79.0054 29.6561 79.0879C30.5827 79.9465 31.2949 81.007 31.7384 82.1889C31.7696 82.3101 31.8871 82.3877 32.0132 82.3705C32.8078 82.3777 33.5982 82.3873 34.3848 82.3995C34.7627 82.4079 34.9205 82.5267 34.9563 82.8956C35.0119 83.4926 35.0516 84.0912 35.0914 84.6914C35.1074 84.9328 35.1234 85.1745 35.1405 85.4164C35.1428 85.4704 35.1456 85.5233 35.1482 85.5748C35.172 86.0335 35.1905 86.3884 34.8324 86.5437C34.7348 86.5683 34.6348 86.5937 34.534 86.6192C34.1679 86.7119 33.7904 86.8076 33.4745 86.8814C33.4466 86.8879 33.4187 86.8944 33.3908 86.901C33.0152 86.9888 32.6363 87.0775 32.2559 87.1483C32.1081 87.1742 31.9888 87.2852 31.9533 87.4297C31.6914 88.088 31.4295 88.7462 31.1281 89.3856C30.976 89.6953 30.7815 89.9833 30.5501 90.2414C30.3915 90.3967 30.371 90.6418 30.5022 90.8148C30.6555 91.0711 30.804 91.3304 30.9524 91.5895C31.1636 91.9581 31.3744 92.3262 31.5982 92.6843C31.806 93.0436 31.7737 93.2323 31.4411 93.4836C31.1774 93.6804 30.9142 93.8781 30.651 94.0759ZM26.7157 83.5977C25.6717 81.9271 23.4711 81.419 21.8004 82.463C20.1298 83.5069 19.6217 85.7075 20.6657 87.3782C21.7096 89.0488 23.9102 89.5569 25.5809 88.5129C27.2516 87.469 27.7596 85.2684 26.7157 83.5977Z" fill="url(#paint5_linear)"/>
<path fill-rule="evenodd" clip-rule="evenodd" d="M218.631 116.62C218.091 117.025 217.551 117.431 217.004 117.831C216.587 118.152 216.44 118.129 216.102 117.775C215.553 117.2 215.008 116.622 214.461 116.04C214.371 115.92 214.211 115.875 214.068 115.927C212.923 116.278 211.721 116.39 210.54 116.256C210.446 116.269 210.361 116.322 210.308 116.401C210.06 116.806 209.827 117.206 209.595 117.605C209.423 117.901 209.251 118.197 209.073 118.494C209.016 118.629 208.903 118.734 208.763 118.782C208.623 118.83 208.47 118.815 208.344 118.743C207.423 118.379 206.507 118.005 205.594 117.618C205.103 117.42 205.053 117.234 205.22 116.716C205.467 115.937 205.71 115.16 205.938 114.376C205.954 114.268 205.919 114.16 205.844 114.082C204.993 113.302 204.316 112.355 203.854 111.298C203.798 111.209 203.701 111.154 203.594 111.151C203.288 111.141 202.979 111.149 202.675 111.158C202.388 111.166 202.104 111.174 201.83 111.166C201.51 111.16 201.192 111.116 200.885 111.034C200.741 110.978 200.636 110.854 200.605 110.703C200.488 109.87 200.385 109.029 200.282 108.188C200.262 108.02 200.241 107.851 200.22 107.683C200.178 107.534 200.205 107.374 200.293 107.244C200.382 107.114 200.523 107.029 200.679 107.01C200.868 106.961 201.058 106.912 201.247 106.863C201.877 106.7 202.508 106.537 203.136 106.366C203.247 106.335 203.339 106.255 203.385 106.151C203.677 104.927 204.233 103.775 205.014 102.774C205.131 102.671 205.151 102.498 205.06 102.376C204.818 101.966 204.584 101.552 204.35 101.138C204.21 100.889 204.069 100.641 203.927 100.393C203.721 100.028 203.776 99.8305 204.125 99.5795C204.528 99.2897 204.929 98.9968 205.331 98.704C205.732 98.4112 206.133 98.1184 206.536 97.8285C206.961 97.5197 207.089 97.5375 207.432 97.8994L207.432 97.8998C207.986 98.4831 208.539 99.0663 209.087 99.6584C209.177 99.7663 209.327 99.807 209.463 99.7607C210.066 99.6177 210.677 99.51 211.292 99.4383C211.828 99.4091 212.364 99.4192 212.896 99.4684C213.027 99.4965 213.162 99.4304 213.22 99.3097C213.601 98.6369 213.99 97.9695 214.384 97.2996C214.609 96.9201 214.836 96.8651 215.236 97.0336C216.07 97.3875 216.911 97.7316 217.749 98.0739C217.816 98.1016 217.884 98.1294 217.952 98.1571C218.352 98.3255 218.436 98.4958 218.308 98.8964C218.246 99.0998 218.184 99.3032 218.121 99.5065C217.933 100.116 217.746 100.725 217.569 101.337C217.546 101.441 217.57 101.549 217.636 101.632C218.563 102.49 219.275 103.551 219.719 104.733C219.75 104.854 219.867 104.931 219.993 104.914C220.788 104.921 221.578 104.931 222.365 104.943C222.743 104.952 222.901 105.07 222.936 105.439C222.992 106.036 223.032 106.635 223.072 107.235C223.088 107.477 223.104 107.718 223.121 107.96C223.123 108.014 223.126 108.067 223.128 108.119C223.152 108.577 223.171 108.932 222.813 109.087C222.715 109.112 222.615 109.137 222.514 109.163C222.148 109.256 221.771 109.351 221.455 109.425C221.427 109.432 221.399 109.438 221.371 109.445C220.995 109.533 220.617 109.621 220.236 109.692C220.088 109.718 219.969 109.829 219.934 109.973C219.672 110.632 219.41 111.29 219.108 111.929C218.956 112.239 218.762 112.527 218.53 112.785C218.372 112.94 218.351 113.185 218.482 113.358C218.636 113.615 218.784 113.874 218.933 114.133C219.144 114.502 219.355 114.87 219.578 115.228C219.786 115.587 219.754 115.776 219.421 116.027C219.158 116.224 218.894 116.422 218.631 116.62ZM214.697 106.142C213.653 104.472 211.452 103.964 209.781 105.008C208.111 106.052 207.603 108.252 208.647 109.923C209.69 111.594 211.891 112.102 213.562 111.058C215.232 110.014 215.74 107.813 214.697 106.142Z" fill="url(#paint6_linear)"/>
<defs>
<linearGradient id="paint0_linear" x1="196.109" y1="133.801" x2="209.655" y2="39.53" gradientUnits="userSpaceOnUse">
<stop stop-color="#8033EB"/>
<stop offset="1" stop-color="#F94F24"/>
</linearGradient>
<linearGradient id="paint1_linear" x1="176.326" y1="100.699" x2="166.97" y2="8.74001" gradientUnits="userSpaceOnUse">
<stop stop-color="#8033EB"/>
<stop offset="1" stop-color="#A2E1E0"/>
</linearGradient>
<linearGradient id="paint2_linear" x1="190.423" y1="61.251" x2="222.984" y2="35.9854" gradientUnits="userSpaceOnUse">
<stop stop-color="#8033EB"/>
<stop offset="1" stop-color="#A2E1E0"/>
</linearGradient>
<linearGradient id="paint3_linear" x1="75.6271" y1="34.7662" x2="83.1556" y2="4.31846" gradientUnits="userSpaceOnUse">
<stop stop-color="#EE7170"/>
<stop offset="1" stop-color="#8F3DDC"/>
</linearGradient>
<linearGradient id="paint4_linear" x1="28.1278" y1="85.148" x2="35.6563" y2="54.7003" gradientUnits="userSpaceOnUse">
<stop stop-color="#C6426E"/>
<stop offset="1" stop-color="#933671"/>
</linearGradient>
<linearGradient id="paint5_linear" x1="35.6468" y1="104.447" x2="43.1753" y2="73.9991" gradientUnits="userSpaceOnUse">
<stop stop-color="#9033EA"/>
<stop offset="1" stop-color="#483EB7"/>
</linearGradient>
<linearGradient id="paint6_linear" x1="223.627" y1="126.991" x2="231.156" y2="96.5428" gradientUnits="userSpaceOnUse">
<stop stop-color="#9033EA"/>
<stop offset="1" stop-color="#483EB7"/>
</linearGradient>
</defs>
</svg>
