<svg width="178" height="158" viewBox="0 0 178 158" fill="none" xmlns="http://www.w3.org/2000/svg">
<path fill-rule="evenodd" clip-rule="evenodd" d="M162.865 73.3407C162.873 82.2693 157.501 90.3223 149.256 93.7443C141.01 97.1663 131.515 95.2831 125.199 88.9731C118.884 82.663 116.992 73.1695 120.407 64.9208C123.822 56.6721 131.87 51.2935 140.798 51.2939C152.977 51.2945 162.853 61.1616 162.865 73.3407H162.865Z" fill="#F2F2F2"/>
<path fill-rule="evenodd" clip-rule="evenodd" d="M43.9919 137.715C43.9919 142.321 41.2174 146.473 36.9622 148.236C32.7069 149.998 27.8089 149.024 24.5521 145.767C21.2953 142.51 20.321 137.612 22.0836 133.357C23.8462 129.102 27.9985 126.327 32.6044 126.327C38.8935 126.327 43.9919 131.426 43.9919 137.715H43.9919Z" fill="#F2F2F2"/>
<path fill-rule="evenodd" clip-rule="evenodd" d="M88.9578 141.38V140.857C88.9578 138.438 89.8132 136.372 91.5241 134.662C93.235 132.951 95.3002 132.095 97.7197 132.095H157.135C159.555 132.095 161.62 132.951 163.331 134.662C165.042 136.372 165.897 138.438 165.897 140.857V141.903C165.897 144.323 165.042 146.388 163.331 148.099C161.62 149.81 159.555 150.665 157.135 150.665H97.7197C95.3002 150.665 93.235 149.81 91.5241 148.099C89.8132 146.388 88.9578 144.323 88.9578 141.903V141.38Z" fill="#F2F2F2"/>
<path fill-rule="evenodd" clip-rule="evenodd" d="M21.0812 86.4285V85.9055C21.0812 83.486 21.9366 81.4208 23.6475 79.7099C25.3584 77.999 27.4236 77.1436 29.8431 77.1436H89.2585C91.678 77.1436 93.7432 77.999 95.4541 79.7099C97.165 81.4208 98.0204 83.486 98.0204 85.9055V86.9515C98.0204 89.3711 97.165 91.4363 95.4541 93.1472C93.7432 94.8581 91.678 95.7135 89.2585 95.7135H29.8431C27.4236 95.7135 25.3584 94.8581 23.6475 93.1472C21.9366 91.4363 21.0812 89.3711 21.0812 86.9515V86.4285Z" fill="#F2F2F2"/>
<path fill-rule="evenodd" clip-rule="evenodd" d="M114.63 91.7369C114.138 91.7369 113.622 91.6904 113.097 91.6353C112.963 91.6217 112.848 91.5381 112.793 91.416C112.738 91.2938 112.753 91.1517 112.831 91.0432C112.909 90.9347 113.04 90.8763 113.173 90.89C113.677 90.9408 114.172 90.9704 114.647 90.9831C114.855 90.9834 115.023 91.152 115.023 91.36C115.023 91.568 114.855 91.7367 114.647 91.7369H114.63ZM138.688 91.7371H137.185C136.993 91.7167 136.848 91.555 136.848 91.3623C136.848 91.1695 136.993 91.0079 137.185 90.9875L138.688 90.9875C138.831 90.9722 138.971 91.0401 139.047 91.1624C139.124 91.2847 139.124 91.4399 139.047 91.5621C138.971 91.6844 138.831 91.7523 138.688 91.7371ZM135.681 91.7371H134.178C134.034 91.7523 133.895 91.6844 133.818 91.5621C133.742 91.4399 133.742 91.2847 133.818 91.1624C133.895 91.0401 134.034 90.9722 134.178 90.9875L135.681 90.9875C135.825 90.9722 135.964 91.0401 136.041 91.1624C136.117 91.2847 136.117 91.4399 136.041 91.5621C135.964 91.6844 135.825 91.7523 135.681 91.7371ZM132.674 91.7371H131.171C131.028 91.7523 130.888 91.6844 130.812 91.5621C130.735 91.4399 130.735 91.2847 130.812 91.1624C130.888 91.0401 131.028 90.9722 131.171 90.9875L132.674 90.9875C132.818 90.9722 132.957 91.0401 133.034 91.1624C133.11 91.2847 133.11 91.4399 133.034 91.5621C132.957 91.6844 132.818 91.7523 132.674 91.7371ZM129.668 91.7371H128.164C128.021 91.7523 127.881 91.6844 127.805 91.5621C127.728 91.4399 127.728 91.2847 127.805 91.1624C127.881 91.0401 128.021 90.9722 128.164 90.9875L129.655 90.9875C129.798 90.9722 129.938 91.0401 130.014 91.1624C130.091 91.2847 130.091 91.4399 130.014 91.5621C129.938 91.6844 129.798 91.7523 129.655 91.7371H129.668ZM126.661 91.7371H125.158C125.014 91.7523 124.875 91.6844 124.798 91.5621C124.722 91.4399 124.722 91.2847 124.798 91.1624C124.875 91.0401 125.014 90.9722 125.158 90.9875L126.661 90.9875C126.804 90.9722 126.944 91.0401 127.02 91.1624C127.097 91.2847 127.097 91.4399 127.02 91.5621C126.944 91.6844 126.804 91.7523 126.661 91.7371ZM123.654 91.7371H122.151C122.007 91.7523 121.868 91.6844 121.791 91.5621C121.715 91.4399 121.715 91.2847 121.791 91.1624C121.868 91.0401 122.007 90.9722 122.151 90.9875L123.654 90.9875C123.798 90.9722 123.937 91.0401 124.014 91.1624C124.09 91.2847 124.09 91.4399 124.014 91.5621C123.937 91.6844 123.798 91.7523 123.654 91.7371ZM120.647 91.7371H119.144C119.001 91.7523 118.861 91.6844 118.785 91.5621C118.708 91.4399 118.708 91.2847 118.785 91.1624C118.861 91.0401 119.001 90.9722 119.144 90.9875L120.647 90.9875C120.791 90.9722 120.93 91.0401 121.007 91.1624C121.083 91.2847 121.083 91.4399 121.007 91.5621C120.93 91.6844 120.791 91.7523 120.647 91.7371ZM117.641 91.7371H116.137C115.994 91.7523 115.854 91.6844 115.778 91.5621C115.701 91.4399 115.701 91.2847 115.778 91.1624C115.854 91.0401 115.994 90.9722 116.137 90.9875L117.641 90.9875C117.784 90.9722 117.924 91.0401 118 91.1624C118.077 91.2847 118.077 91.4399 118 91.5621C117.924 91.6844 117.784 91.7523 117.641 91.7371ZM111.636 91.4362H111.568C111.06 91.3473 110.551 91.2372 110.069 91.1101C109.868 91.0582 109.747 90.8538 109.798 90.6528C109.851 90.4514 110.057 90.3307 110.259 90.3817C110.725 90.5045 111.208 90.6104 111.699 90.6993C111.885 90.7388 112.013 90.9106 111.996 91.1001C111.98 91.2895 111.826 91.4373 111.636 91.4447L111.636 91.4362ZM108.726 90.6783C108.683 90.6795 108.64 90.6723 108.599 90.6571C108.114 90.4815 107.639 90.2793 107.176 90.0515C107.042 90.0015 106.947 89.8792 106.932 89.7362C106.918 89.5932 106.986 89.4544 107.108 89.3784C107.23 89.3023 107.385 89.3022 107.507 89.3782C107.945 89.5932 108.394 89.784 108.853 89.9499C109.048 90.0214 109.149 90.2374 109.078 90.4327C109.024 90.5805 108.883 90.6788 108.726 90.6783H108.726ZM106.037 89.3486C105.963 89.3484 105.891 89.3263 105.83 89.285C105.395 89.001 104.981 88.6854 104.593 88.3407C104.449 88.2001 104.441 87.9713 104.574 87.8208C104.708 87.6702 104.936 87.6512 105.093 87.7774C105.455 88.0983 105.84 88.3927 106.245 88.6583C106.415 88.7746 106.462 89.0055 106.35 89.1792C106.278 89.2787 106.16 89.3358 106.037 89.3316L106.037 89.3486ZM103.822 87.337C103.709 87.3374 103.601 87.286 103.53 87.1973C103.201 86.7992 102.907 86.3742 102.649 85.9268C102.569 85.8097 102.561 85.6571 102.629 85.5323C102.697 85.4074 102.83 85.3316 102.972 85.3363C103.114 85.3409 103.241 85.4251 103.301 85.5541C103.539 85.9713 103.811 86.3679 104.114 86.7399C104.245 86.9014 104.221 87.1381 104.059 87.2693C103.99 87.3172 103.907 87.341 103.822 87.337V87.337ZM102.327 84.7496C102.169 84.7494 102.028 84.6516 101.972 84.5039C101.796 84.0174 101.655 83.5193 101.548 83.0133C101.504 82.8768 101.541 82.7268 101.643 82.6265C101.746 82.5263 101.897 82.4931 102.032 82.5411C102.168 82.589 102.264 82.7097 102.281 82.8523C102.38 83.3248 102.514 83.7892 102.683 84.2414C102.719 84.3346 102.715 84.4381 102.674 84.5288C102.633 84.6195 102.557 84.6899 102.463 84.7242C102.42 84.7409 102.374 84.7495 102.327 84.7496H102.327ZM101.692 81.8274C101.495 81.828 101.331 81.6766 101.315 81.4801C101.285 81.0905 101.269 80.684 101.269 80.2732V79.9471C101.289 79.7555 101.451 79.6101 101.643 79.6101C101.836 79.6101 101.998 79.7555 102.018 79.9471V80.2732C102.018 80.6628 102.018 81.0482 102.065 81.4166C102.078 81.5187 102.049 81.6217 101.984 81.7017C101.919 81.7816 101.824 81.8317 101.722 81.8401L101.692 81.8274ZM101.641 78.8207C101.542 78.8207 101.446 78.7808 101.376 78.71C101.306 78.6392 101.267 78.5434 101.269 78.4438V76.9404C101.289 76.7488 101.451 76.6034 101.643 76.6034C101.836 76.6034 101.998 76.7488 102.018 76.9404V78.4438C102.018 78.6521 101.849 78.8208 101.641 78.8207L101.641 78.8207ZM101.641 75.8139C101.437 75.807 101.277 75.637 101.281 75.4328V73.9294C101.266 73.786 101.334 73.6464 101.456 73.5699C101.579 73.4934 101.734 73.4934 101.856 73.5699C101.978 73.6464 102.046 73.786 102.031 73.9294L102.031 75.4328C102.03 75.5342 101.988 75.631 101.915 75.7011C101.841 75.7712 101.743 75.8089 101.641 75.8054V75.8139ZM101.641 72.8072C101.542 72.8072 101.446 72.7673 101.376 72.6965C101.306 72.6257 101.267 72.5298 101.269 72.4303V70.9269C101.253 70.7835 101.321 70.6439 101.444 70.5674C101.566 70.4909 101.721 70.4909 101.843 70.5674C101.966 70.6439 102.033 70.7835 102.018 70.9269V72.4303C102.014 72.6351 101.846 72.7987 101.641 72.7987L101.641 72.8072ZM101.641 69.8003C101.542 69.8003 101.446 69.7604 101.376 69.6896C101.306 69.6188 101.267 69.5229 101.269 69.4234V67.92C101.253 67.7766 101.321 67.637 101.444 67.5605C101.566 67.484 101.721 67.484 101.843 67.5605C101.966 67.637 102.033 67.7766 102.018 67.92V69.4234C102.014 69.6282 101.846 69.7918 101.641 69.7918L101.641 69.8003ZM101.641 66.7936C101.542 66.7936 101.446 66.7537 101.376 66.6829C101.306 66.6121 101.267 66.5162 101.269 66.4167V64.9133C101.253 64.7699 101.321 64.6303 101.444 64.5538C101.566 64.4774 101.721 64.4774 101.843 64.5538C101.966 64.6303 102.033 64.7699 102.018 64.9133V66.4167C102.014 66.6215 101.846 66.7852 101.641 66.7851L101.641 66.7936ZM101.641 63.7868C101.542 63.7868 101.446 63.747 101.376 63.6762C101.306 63.6054 101.267 63.5095 101.269 63.4099V61.8811C101.253 61.7377 101.321 61.5982 101.444 61.5217C101.566 61.4452 101.721 61.4452 101.843 61.5217C101.966 61.5982 102.033 61.7377 102.018 61.8811V63.3845C102.023 63.4874 101.985 63.5877 101.914 63.662C101.843 63.7364 101.744 63.7785 101.641 63.7784L101.641 63.7868ZM101.641 60.78C101.542 60.78 101.446 60.7402 101.376 60.6694C101.306 60.5986 101.267 60.5027 101.269 60.4031V58.8997C101.253 58.7563 101.321 58.6168 101.444 58.5403C101.566 58.4638 101.721 58.4638 101.843 58.5403C101.966 58.6168 102.033 58.7563 102.018 58.8997V60.4031C102.014 60.608 101.846 60.7716 101.641 60.7716L101.641 60.78Z" fill="#6731CF"/>
<path fill-rule="evenodd" clip-rule="evenodd" d="M76.4311 88.1882H76.2955C76.0875 88.188 75.9191 88.0193 75.919 87.8113C75.919 87.6033 76.0875 87.4346 76.2955 87.4344H76.4268C76.8715 87.4344 77.3204 87.4344 77.765 87.3751C77.9032 87.3548 78.0413 87.4125 78.1239 87.5252C78.2065 87.6379 78.2199 87.787 78.1589 87.9126C78.0979 88.0383 77.9724 88.1199 77.8328 88.1247C77.3712 88.167 76.8969 88.1882 76.4311 88.1882ZM74.7964 88.1668H73.293C73.1496 88.1821 73.0101 88.1142 72.9336 87.9919C72.8571 87.8697 72.8571 87.7145 72.9336 87.5922C73.0101 87.4699 73.1496 87.402 73.293 87.4173H74.7964C74.988 87.4377 75.1334 87.5993 75.1334 87.7921C75.1334 87.9848 74.988 88.1464 74.7964 88.1668V88.1668ZM71.7896 88.1668H70.2862C70.1428 88.1821 70.0033 88.1142 69.9268 87.9919C69.8503 87.8697 69.8503 87.7145 69.9268 87.5922C70.0033 87.4699 70.1428 87.402 70.2862 87.4173H71.7896C71.9812 87.4377 72.1266 87.5993 72.1266 87.7921C72.1266 87.9848 71.9812 88.1464 71.7896 88.1668V88.1668ZM68.7786 88.1668H67.2752C67.0836 88.1464 66.9382 87.9848 66.9382 87.7921C66.9382 87.5993 67.0836 87.4377 67.2752 87.4173H68.7786C68.922 87.402 69.0615 87.4699 69.138 87.5922C69.2145 87.7145 69.2145 87.8697 69.138 87.9919C69.0615 88.1142 68.922 88.1821 68.7786 88.1668L68.7786 88.1668ZM65.7719 88.1668H64.2685C64.0769 88.1464 63.9315 87.9848 63.9315 87.7921C63.9315 87.5993 64.0769 87.4377 64.2685 87.4173H65.7719C65.9153 87.402 66.0548 87.4699 66.1313 87.5922C66.2078 87.7145 66.2078 87.8697 66.1313 87.9919C66.0548 88.1142 65.9153 88.1821 65.7719 88.1668L65.7719 88.1668ZM62.7651 88.1668H61.2617C61.0701 88.1464 60.9247 87.9848 60.9247 87.7921C60.9247 87.5993 61.0701 87.4377 61.2617 87.4173H62.7651C62.9085 87.402 63.0481 87.4699 63.1245 87.5922C63.201 87.7145 63.201 87.8697 63.1245 87.9919C63.0481 88.1142 62.9085 88.1821 62.7651 88.1668L62.7651 88.1668ZM59.7583 88.1668H58.2549C58.1115 88.1821 57.972 88.1142 57.8955 87.9919C57.819 87.8697 57.819 87.7145 57.8955 87.5922C57.972 87.4699 58.1115 87.402 58.2549 87.4173H59.7795C59.9229 87.402 60.0624 87.4699 60.1389 87.5922C60.2154 87.7145 60.2154 87.8697 60.1389 87.9919C60.0624 88.1142 59.9229 88.1821 59.7795 88.1668L59.7583 88.1668ZM56.7515 88.1668H55.2481C55.1047 88.1821 54.9652 88.1142 54.8887 87.9919C54.8122 87.8697 54.8122 87.7145 54.8887 87.5922C54.9652 87.4699 55.1047 87.402 55.2481 87.4173H56.7515C56.8949 87.402 57.0345 87.4699 57.1109 87.5922C57.1874 87.7145 57.1874 87.8697 57.1109 87.9919C57.0345 88.1142 56.8949 88.1821 56.7515 88.1668L56.7515 88.1668ZM53.7448 88.1668H52.2415C52.098 88.1821 51.9585 88.1142 51.882 87.9919C51.8055 87.8697 51.8055 87.7145 51.882 87.5922C51.9585 87.4699 52.098 87.402 52.2415 87.4173H53.7448C53.8882 87.402 54.0278 87.4699 54.1043 87.5922C54.1807 87.7145 54.1807 87.8697 54.1043 87.9919C54.0278 88.1142 53.8882 88.1821 53.7448 88.1668V88.1668ZM50.738 88.1668H49.2347C49.0912 88.1821 48.9517 88.1142 48.8752 87.9919C48.7987 87.8697 48.7987 87.7145 48.8752 87.5922C48.9517 87.4699 49.0912 87.402 49.2347 87.4173H50.738C50.8814 87.402 51.021 87.4699 51.0975 87.5922C51.1739 87.7145 51.1739 87.8697 51.0975 87.9919C51.021 88.1142 50.8814 88.1821 50.738 88.1668V88.1668ZM79.2938 87.9254C79.1025 87.9218 78.9442 87.7754 78.9258 87.5849C78.9074 87.3944 79.0347 87.2203 79.2218 87.1801C79.6992 87.0889 80.1702 86.9672 80.632 86.8159C80.7264 86.7838 80.8296 86.7908 80.9187 86.8354C81.0079 86.88 81.0754 86.9584 81.1063 87.0531C81.1397 87.1474 81.1332 87.2511 81.0885 87.3406C81.0438 87.43 80.9646 87.4975 80.8692 87.5274C80.3775 87.6912 79.8752 87.8213 79.3658 87.917L79.2938 87.9254ZM82.1311 86.9515C81.9577 86.956 81.8041 86.8403 81.7605 86.6724C81.717 86.5044 81.7952 86.3287 81.949 86.2485C82.3553 86.0216 82.7322 85.7456 83.0713 85.4269C83.2242 85.3015 83.4481 85.3157 83.5841 85.4594C83.72 85.6031 83.7217 85.8275 83.5879 85.9732C83.1981 86.3385 82.7625 86.6517 82.292 86.9049C82.2431 86.9337 82.1878 86.9497 82.1311 86.9515V86.9515ZM84.2486 84.8977C84.1849 84.8984 84.1221 84.8823 84.0665 84.8512C83.9762 84.8021 83.9096 84.7187 83.8817 84.6198C83.8538 84.521 83.867 84.415 83.9183 84.326C84.1417 83.9213 84.3003 83.484 84.3883 83.0302C84.4308 82.8269 84.6296 82.6962 84.833 82.738C85.0292 82.7765 85.1588 82.9644 85.1252 83.1614C85.0207 83.6901 84.8365 84.1999 84.5789 84.6733C84.5228 84.7993 84.4029 84.8852 84.2655 84.8977L84.2486 84.8977ZM84.8754 82.001C84.7754 82.001 84.6796 81.9613 84.6089 81.8906C84.5382 81.8199 84.4985 81.724 84.4985 81.6241V80.1207C84.4987 79.9127 84.6674 79.7442 84.8754 79.7442C85.0834 79.7442 85.2521 79.9127 85.2523 80.1207L85.2523 81.6241C85.2525 81.8258 85.0938 81.9919 84.8923 82.001L84.8754 82.001ZM84.8754 78.9943C84.7754 78.9943 84.6796 78.9546 84.6089 78.8839C84.5382 78.8132 84.4985 78.7174 84.4985 78.6174V77.1267C84.4983 76.992 84.5701 76.8674 84.6868 76.8C84.8035 76.7326 84.9473 76.7326 85.064 76.8C85.1806 76.8674 85.2524 76.992 85.2523 77.1267L85.2523 78.6301C85.2458 78.8269 85.089 78.9856 84.8923 78.9943L84.8754 78.9943ZM84.8754 75.9874C84.7754 75.9874 84.6796 75.9477 84.6089 75.877C84.5382 75.8063 84.4985 75.7104 84.4985 75.6105V74.1071C84.4983 73.9724 84.5701 73.8478 84.6868 73.7804C84.8035 73.7129 84.9473 73.7129 85.064 73.7804C85.1806 73.8478 85.2524 73.9724 85.2523 74.1071L85.2523 75.6105C85.2525 75.8122 85.0938 75.9784 84.8923 75.9874L84.8754 75.9874ZM84.8754 72.9807C84.7754 72.9807 84.6796 72.941 84.6089 72.8703C84.5382 72.7996 84.4985 72.7038 84.4985 72.6038V71.1004C84.4983 70.9657 84.5701 70.8411 84.6868 70.7737C84.8035 70.7063 84.9473 70.7062 85.064 70.7737C85.1806 70.8411 85.2524 70.9657 85.2523 71.1004L85.2523 72.6038C85.2525 72.8055 85.0938 72.9717 84.8923 72.9807L84.8754 72.9807ZM84.8754 69.9698C84.7758 69.9709 84.6799 69.9322 84.6091 69.8622C84.5383 69.7921 84.4985 69.6967 84.4985 69.5971V68.0937C84.4987 67.8857 84.6674 67.7173 84.8754 67.7173C85.0834 67.7173 85.2521 67.8858 85.2523 68.0937L85.2523 69.5971C85.2524 69.7981 85.0932 69.963 84.8923 69.9698L84.8754 69.9698ZM84.8754 66.9629C84.7758 66.964 84.6799 66.9253 84.6091 66.8553C84.5383 66.7853 84.4985 66.6898 84.4985 66.5902V65.0869C84.4987 64.8789 84.6674 64.7104 84.8754 64.7104C85.0834 64.7104 85.2521 64.8789 85.2523 65.0869L85.2523 66.5902C85.2524 66.7912 85.0932 66.9561 84.8923 66.9629L84.8754 66.9629ZM84.8754 63.9563C84.7758 63.9574 84.6799 63.9187 84.6091 63.8486C84.5383 63.7786 84.4985 63.6832 84.4985 63.5836V62.076C84.4987 61.868 84.6674 61.6995 84.8754 61.6995C85.0834 61.6995 85.2521 61.868 85.2523 62.076L85.2523 63.5752C85.257 63.7794 85.0965 63.9494 84.8923 63.9563L84.8754 63.9563ZM84.8754 60.9494C84.7754 60.9494 84.6796 60.9097 84.6089 60.839C84.5382 60.7683 84.4985 60.6725 84.4985 60.5725V59.0691C84.4987 58.8611 84.6674 58.6926 84.8754 58.6926C85.0834 58.6926 85.2521 58.8611 85.2523 59.0691L85.2523 60.5725C85.2525 60.7742 85.0938 60.9404 84.8923 60.9494L84.8754 60.9494Z" fill="#F94F24"/>
<path fill-rule="evenodd" clip-rule="evenodd" d="M55.0067 139.252H53.4991C53.2911 139.252 53.1226 139.084 53.1226 138.876C53.1226 138.668 53.2911 138.499 53.4991 138.499L55.0067 138.499C55.2147 138.499 55.3832 138.668 55.3832 138.875C55.3832 139.083 55.2147 139.252 55.0068 139.252H55.0067ZM51.9957 139.252H50.4923C50.2843 139.252 50.1159 139.084 50.1158 138.876C50.1158 138.668 50.2843 138.499 50.4923 138.499L51.9957 138.499C52.2037 138.499 52.3722 138.668 52.3722 138.875C52.3722 139.083 52.2037 139.252 51.9957 139.252H51.9957ZM48.989 139.252H47.4983C47.2903 139.252 47.1218 139.084 47.1218 138.876C47.1218 138.668 47.2903 138.499 47.4983 138.499L49.0017 138.499C49.2097 138.499 49.3782 138.668 49.3782 138.875C49.3782 139.083 49.2097 139.252 49.0017 139.252H48.989ZM45.9822 139.252H44.4789C44.2709 139.252 44.1024 139.084 44.1024 138.876C44.1024 138.668 44.2709 138.499 44.4788 138.499L45.9822 138.499C46.1902 138.499 46.3587 138.668 46.3587 138.875C46.3587 139.083 46.1903 139.252 45.9823 139.252H45.9822ZM42.9755 139.252H41.4721C41.2641 139.252 41.0956 139.084 41.0956 138.876C41.0956 138.668 41.2641 138.499 41.4721 138.499L42.9755 138.499C43.1835 138.499 43.3519 138.668 43.352 138.875C43.352 139.083 43.1835 139.252 42.9755 139.252H42.9755ZM39.9687 139.252H38.4653C38.3305 139.253 38.206 139.181 38.1385 139.064C38.0711 138.947 38.0711 138.804 38.1385 138.687C38.206 138.57 38.3306 138.498 38.4653 138.499L39.9687 138.499C40.1767 138.499 40.3452 138.668 40.3452 138.875C40.3452 139.083 40.1767 139.252 39.9687 139.252H39.9687ZM36.9619 139.252H36.9111C36.388 139.198 35.8707 139.097 35.3654 138.952C35.2687 138.925 35.1869 138.861 35.1383 138.773C35.0897 138.685 35.0784 138.582 35.1071 138.486C35.1645 138.286 35.373 138.17 35.5729 138.227C36.0337 138.362 36.5057 138.454 36.9831 138.503C37.1753 138.53 37.3153 138.699 37.3065 138.893C37.2978 139.087 37.1431 139.242 36.9492 139.252H36.9619ZM34.0738 138.435C34.0179 138.435 33.9628 138.422 33.9129 138.397C33.4381 138.174 32.9857 137.906 32.5619 137.597C32.4334 137.53 32.3553 137.395 32.3615 137.25C32.3678 137.105 32.4573 136.977 32.591 136.922C32.7248 136.866 32.8786 136.893 32.9854 136.991C33.3734 137.27 33.7859 137.514 34.2178 137.719C34.3748 137.796 34.4587 137.97 34.4204 138.141C34.382 138.311 34.2316 138.433 34.0569 138.435L34.0738 138.435ZM31.6599 136.673C31.5548 136.674 31.4546 136.629 31.3846 136.55C31.0282 136.16 30.7119 135.734 30.4402 135.28C30.3326 135.103 30.3886 134.873 30.5651 134.765C30.7417 134.658 30.9721 134.714 31.0797 134.89C31.3244 135.297 31.608 135.678 31.9267 136.03C31.994 136.103 32.0292 136.2 32.0244 136.3C32.0197 136.399 31.9753 136.492 31.9012 136.559C31.8355 136.62 31.7496 136.655 31.6599 136.656L31.6599 136.673ZM30.1014 134.132C29.9464 134.133 29.8076 134.036 29.7542 133.891C29.5733 133.406 29.4317 132.908 29.3307 132.4C29.2861 132.264 29.3231 132.114 29.4258 132.014C29.5287 131.913 29.6795 131.88 29.8149 131.928C29.9502 131.976 30.0466 132.097 30.0633 132.239C30.17 132.711 30.3116 133.174 30.4868 133.624C30.5615 133.818 30.4649 134.036 30.2708 134.111C30.2148 134.123 30.1568 134.122 30.1015 134.107L30.1014 134.132ZM29.462 131.21C29.2663 131.211 29.1026 131.062 29.085 130.867C29.0512 130.444 29.0342 130.02 29.0342 129.597V129.334C29.019 129.191 29.0869 129.051 29.2091 128.975C29.3314 128.898 29.4866 128.898 29.6089 128.975C29.7312 129.051 29.7991 129.191 29.7838 129.334L29.7838 129.597C29.7838 130.012 29.8007 130.414 29.8346 130.804C29.8477 130.906 29.8184 131.009 29.7536 131.089C29.6888 131.169 29.5942 131.219 29.4916 131.227L29.462 131.21ZM29.4111 128.208C29.3112 128.208 29.2153 128.168 29.1446 128.097C29.0739 128.027 29.0342 127.931 29.0342 127.831V126.327C29.019 126.184 29.0869 126.045 29.2091 125.968C29.3314 125.892 29.4866 125.892 29.6089 125.968C29.7312 126.045 29.7991 126.184 29.7838 126.327L29.7838 127.831C29.7725 128.028 29.609 128.183 29.4111 128.182L29.4111 128.208ZM29.4111 125.201C29.3112 125.201 29.2153 125.161 29.1446 125.091C29.0739 125.02 29.0342 124.924 29.0342 124.824V123.287C29.019 123.144 29.0869 123.004 29.2091 122.927C29.3314 122.851 29.4866 122.851 29.6089 122.927C29.7312 123.004 29.7991 123.144 29.7838 123.287L29.7838 124.79C29.7872 124.891 29.7495 124.989 29.6793 125.062C29.609 125.135 29.5122 125.176 29.4111 125.176L29.4111 125.201ZM29.4111 122.194C29.3112 122.194 29.2153 122.155 29.1446 122.084C29.0739 122.013 29.0342 121.917 29.0342 121.817V120.314C29.019 120.171 29.0869 120.031 29.2091 119.955C29.3314 119.878 29.4866 119.878 29.6089 119.955C29.7312 120.031 29.7991 120.171 29.7838 120.314L29.7838 121.817C29.7725 122.015 29.609 122.169 29.4111 122.169L29.4111 122.194ZM29.4111 119.188C29.3112 119.188 29.2153 119.148 29.1446 119.077C29.0739 119.006 29.0342 118.911 29.0342 118.811V117.307C29.019 117.164 29.0869 117.024 29.2091 116.948C29.3314 116.871 29.4866 116.871 29.6089 116.948C29.7312 117.024 29.7991 117.164 29.7838 117.307L29.7838 118.811C29.7726 119.008 29.609 119.162 29.4111 119.162L29.4111 119.188ZM29.4111 116.181C29.3112 116.181 29.2153 116.141 29.1446 116.07C29.0739 116 29.0342 115.904 29.0342 115.804V114.301C29.019 114.157 29.0869 114.018 29.2091 113.941C29.3314 113.865 29.4866 113.865 29.6089 113.941C29.7312 114.018 29.7991 114.157 29.7838 114.301L29.7838 115.804C29.7726 116.001 29.609 116.156 29.4111 116.155L29.4111 116.181ZM29.4111 113.17C29.3116 113.171 29.2157 113.132 29.1449 113.062C29.0741 112.992 29.0342 112.897 29.0342 112.797V111.294C29.019 111.15 29.0869 111.011 29.2091 110.934C29.3314 110.858 29.4866 110.858 29.6089 110.934C29.7312 111.011 29.7991 111.15 29.7838 111.294L29.7838 112.797C29.7725 112.994 29.6083 113.147 29.4111 113.144L29.4111 113.17ZM29.4111 110.163C29.3115 110.164 29.2157 110.125 29.1448 110.055C29.074 109.985 29.0342 109.89 29.0342 109.79V108.283C29.0546 108.091 29.2163 107.946 29.409 107.946C29.6017 107.946 29.7634 108.091 29.7838 108.283L29.7838 109.79C29.7838 109.889 29.7444 109.983 29.6743 110.052C29.6043 110.122 29.5095 110.16 29.4111 110.159L29.4111 110.163ZM29.4111 107.156C29.3108 107.158 29.2143 107.118 29.1433 107.047C29.0724 106.976 29.0331 106.88 29.0342 106.779V105.276C29.0546 105.084 29.2163 104.939 29.409 104.939C29.6017 104.939 29.7634 105.084 29.7838 105.276L29.7838 106.771C29.7769 106.972 29.6121 107.131 29.4111 107.131L29.4111 107.156ZM29.4111 104.149C29.3112 104.149 29.2153 104.11 29.1446 104.039C29.0739 103.968 29.0342 103.873 29.0342 103.773V102.269C29.0546 102.078 29.2163 101.932 29.409 101.932C29.6017 101.932 29.7634 102.078 29.7838 102.269L29.7838 103.773C29.7725 103.97 29.6089 104.124 29.4111 104.124L29.4111 104.149ZM29.4111 101.143C29.3112 101.143 29.2153 101.103 29.1446 101.032C29.0739 100.962 29.0342 100.866 29.0342 100.766V99.2625C29.0546 99.0709 29.2163 98.9255 29.409 98.9255C29.6017 98.9255 29.7634 99.0709 29.7838 99.2625L29.7838 100.766C29.7725 100.963 29.6089 101.118 29.4111 101.117L29.4111 101.143ZM29.4111 98.1359C29.3112 98.1359 29.2153 98.0962 29.1446 98.0255C29.0739 97.9548 29.0342 97.859 29.0342 97.759V96.2556C29.019 96.1122 29.0869 95.9727 29.2091 95.8962C29.3314 95.8197 29.4866 95.8197 29.6089 95.8962C29.7312 95.9727 29.7991 96.1122 29.7838 96.2556L29.7838 97.759C29.7726 97.9565 29.609 98.1108 29.4111 98.1105L29.4111 98.1359ZM29.4111 95.1292C29.3112 95.1292 29.2153 95.0895 29.1446 95.0188C29.0739 94.9481 29.0342 94.8523 29.0342 94.7523V93.2193C29.019 93.0759 29.0869 92.9363 29.2091 92.8599C29.3314 92.7834 29.4866 92.7834 29.6089 92.8599C29.7312 92.9363 29.7991 93.0759 29.7838 93.2193L29.7838 94.7227C29.7861 94.823 29.7478 94.92 29.6777 94.9917C29.6076 95.0634 29.5115 95.1038 29.4111 95.1038L29.4111 95.1292ZM29.4111 92.1224C29.3112 92.1224 29.2153 92.0826 29.1446 92.012C29.0739 91.9413 29.0342 91.8454 29.0342 91.7455V90.2421C29.019 90.0987 29.0869 89.9591 29.2091 89.8826C29.3314 89.8061 29.4866 89.8061 29.6089 89.8826C29.7312 89.9591 29.7991 90.0987 29.7838 90.2421L29.7838 91.7455C29.7726 91.943 29.609 92.0973 29.4111 92.097L29.4111 92.1224ZM29.4111 89.1157C29.3112 89.1157 29.2153 89.076 29.1446 89.0053C29.0739 88.9346 29.0342 88.8387 29.0342 88.7388V87.2354C29.019 87.092 29.0869 86.9524 29.2091 86.8759C29.3314 86.7995 29.4866 86.7995 29.6089 86.8759C29.7312 86.9524 29.7991 87.092 29.7838 87.2354L29.7838 88.7388C29.7726 88.9363 29.609 89.0906 29.4111 89.0903L29.4111 89.1157ZM29.4111 86.109C29.3112 86.109 29.2153 86.0693 29.1446 85.9986C29.0739 85.9279 29.0342 85.8321 29.0342 85.7321V84.2287C29.019 84.0853 29.0869 83.9457 29.2091 83.8693C29.3314 83.7928 29.4866 83.7928 29.6089 83.8693C29.7312 83.9457 29.7991 84.0853 29.7838 84.2287L29.7838 85.7321C29.7726 85.9296 29.609 86.0839 29.4111 86.0836L29.4111 86.109ZM29.4111 83.102C29.3112 83.102 29.2153 83.0623 29.1446 82.9916C29.0739 82.9209 29.0342 82.8251 29.0342 82.7251V81.48C29.0342 81.48 29.0342 81.3699 29.0342 81.1921C29.0542 80.9869 29.2305 80.8329 29.4365 80.8406C29.6432 80.8564 29.7984 81.0361 29.7838 81.2429C29.7838 81.3996 29.7838 81.4843 29.7838 81.4885V82.7251C29.7725 82.9226 29.6089 83.0769 29.4111 83.0766V83.102ZM29.6187 80.0955H29.5509C29.3534 80.0569 29.2199 79.8715 29.246 79.672C29.3392 79.168 29.4535 78.6641 29.589 78.1686C29.6148 78.0285 29.7174 77.915 29.8541 77.8751C29.9908 77.8351 30.1383 77.8757 30.2354 77.9799C30.3325 78.084 30.3626 78.2341 30.3132 78.3676C30.1819 78.8419 30.0718 79.3247 29.9871 79.8033C29.9459 79.973 29.7934 80.0922 29.6187 80.0912L29.6187 80.0955ZM30.4148 77.1946C30.3698 77.1944 30.3253 77.1857 30.2835 77.1691C30.1899 77.1349 30.1139 77.0645 30.0725 76.9738C30.0311 76.8831 30.0278 76.7795 30.0633 76.6864C30.2459 76.2043 30.4537 75.7322 30.6859 75.2719C30.7376 75.1378 30.8611 75.0448 31.0042 75.0321C31.1474 75.0194 31.2853 75.0892 31.3598 75.2121C31.4343 75.3351 31.4324 75.4897 31.355 75.6107C31.1432 76.0342 30.9315 76.4873 30.7663 76.9532C30.7024 77.0886 30.5645 77.1734 30.4148 77.1692L30.4148 77.1946ZM31.7742 74.5137C31.7007 74.5151 31.6284 74.4945 31.5667 74.4545C31.3947 74.3395 31.3459 74.1083 31.4566 73.9336C31.7422 73.5007 32.0548 73.0863 32.3925 72.6928C32.4757 72.5764 32.6176 72.5171 32.7588 72.5398C32.9 72.5624 33.0163 72.6631 33.0589 72.7996C33.1015 72.9361 33.0632 73.085 32.96 73.184C32.6448 73.5533 32.3534 73.9423 32.0876 74.3486C32.0108 74.4417 31.8948 74.4934 31.7742 74.4884L31.7742 74.5137ZM33.7307 72.248C33.6227 72.2464 33.5201 72.2005 33.4469 72.121C33.3107 71.9637 33.3257 71.7262 33.4808 71.5874C33.8719 71.2477 34.2834 70.9323 34.7131 70.643C34.8879 70.5323 35.1191 70.5811 35.234 70.7531C35.348 70.9263 35.3007 71.1591 35.1282 71.274C34.725 71.5382 34.3415 71.8312 33.9805 72.1506C33.9084 72.2035 33.8199 72.229 33.7307 72.2227L33.7307 72.248ZM36.2293 70.6008C36.0545 70.5989 35.9041 70.4771 35.8657 70.3066C35.8274 70.1362 35.9113 69.9617 36.0683 69.8851C36.5343 69.6644 37.0138 69.4735 37.504 69.3134C37.5988 69.2815 37.7026 69.2891 37.7918 69.3345C37.881 69.3799 37.9482 69.4593 37.9783 69.5548C38.0422 69.7524 37.9343 69.9645 37.7369 70.0291C37.2771 70.1783 36.8273 70.3566 36.3902 70.5627C36.3382 70.5791 36.2832 70.5834 36.2293 70.5755L36.2293 70.6008ZM39.0709 69.6691C38.8795 69.6655 38.7213 69.519 38.7029 69.3285C38.6845 69.138 38.8118 68.964 38.9989 68.9238C39.4901 68.8264 40.0025 68.7502 40.5192 68.6993C40.6566 68.6798 40.7936 68.7373 40.8758 68.8491C40.9581 68.9608 40.9723 69.1087 40.9128 69.2341C40.8533 69.3594 40.7298 69.442 40.5912 69.4489C40.1065 69.4948 39.6245 69.5655 39.1471 69.6607L39.0709 69.6691ZM70.6207 69.4489C69.9897 69.4489 69.5536 69.3854 69.4477 69.3727H69.1258C68.9342 69.3523 68.7888 69.1906 68.7888 68.9979C68.7888 68.8052 68.9342 68.6435 69.1258 68.6231L69.5197 68.6231C69.5197 68.6231 69.9432 68.6824 70.6377 68.6993C70.8293 68.7197 70.9747 68.8814 70.9747 69.0741C70.9747 69.2668 70.8293 69.4285 70.6377 69.4489H70.6207ZM72.1241 69.4108C71.9278 69.4112 71.7648 69.2593 71.7514 69.0635C71.7383 68.9607 71.7682 68.8571 71.8338 68.777C71.8995 68.6969 71.9953 68.6473 72.0987 68.64C72.5836 68.6056 73.066 68.5405 73.5428 68.4452C73.7474 68.4044 73.9464 68.5371 73.9873 68.7417C74.0282 68.9463 73.8955 69.1453 73.6909 69.1863C73.183 69.2841 72.6697 69.352 72.1537 69.3896L72.1241 69.4108ZM42.0565 69.3727C41.9131 69.388 41.7735 69.3201 41.6971 69.1978C41.6206 69.0755 41.6206 68.9203 41.6971 68.798C41.7735 68.6758 41.9131 68.6079 42.0565 68.6231L43.5641 68.6231C43.7075 68.6079 43.847 68.6758 43.9235 68.798C44 68.9203 44 69.0755 43.9235 69.1978C43.847 69.3201 43.7075 69.388 43.5641 69.3727H42.0565ZM67.614 69.3727H66.1318C65.9402 69.3523 65.7948 69.1906 65.7948 68.9979C65.7948 68.8052 65.9402 68.6435 66.1318 68.6231L67.6352 68.6231C67.7786 68.6079 67.9181 68.6758 67.9946 68.798C68.0711 68.9203 68.0711 69.0755 67.9946 69.1978C67.9181 69.3201 67.7786 69.388 67.6352 69.3727H67.614ZM64.6072 69.3727H63.1038C62.9122 69.3523 62.7668 69.1906 62.7668 68.9979C62.7668 68.8052 62.9122 68.6435 63.1038 68.6231L64.6072 68.6231C64.7506 68.6079 64.8901 68.6758 64.9666 68.798C65.0431 68.9203 65.0431 69.0755 64.9666 69.1978C64.8901 69.3201 64.7506 69.388 64.6072 69.3727ZM61.6004 69.3727H60.097C59.9054 69.3523 59.76 69.1906 59.76 68.9979C59.76 68.8052 59.9054 68.6435 60.097 68.6231L61.6004 68.6231C61.7438 68.6079 61.8833 68.6758 61.9598 68.798C62.0363 68.9203 62.0363 69.0755 61.9598 69.1978C61.8833 69.3201 61.7438 69.388 61.6004 69.3727ZM58.5937 69.3727H57.0903C56.9469 69.388 56.8073 69.3201 56.7309 69.1978C56.6544 69.0755 56.6544 68.9203 56.7309 68.798C56.8073 68.6758 56.9469 68.6079 57.0903 68.6231L58.5937 68.6231C58.7371 68.6079 58.8766 68.6758 58.9531 68.798C59.0296 68.9203 59.0296 69.0755 58.9531 69.1978C58.8766 69.3201 58.7371 69.388 58.5937 69.3727ZM55.5869 69.3727H54.0835C53.9401 69.388 53.8006 69.3201 53.7241 69.1978C53.6476 69.0755 53.6476 68.9203 53.7241 68.798C53.8006 68.6758 53.9401 68.6079 54.0835 68.6231L55.5869 68.6231C55.7303 68.6079 55.8699 68.6758 55.9463 68.798C56.0228 68.9203 56.0228 69.0755 55.9463 69.1978C55.8699 69.3201 55.7303 69.388 55.5869 69.3727ZM52.5801 69.3727H51.0767C50.9333 69.388 50.7938 69.3201 50.7173 69.1978C50.6408 69.0755 50.6408 68.9203 50.7173 68.798C50.7938 68.6758 50.9333 68.6079 51.0767 68.6231L52.5801 68.6231C52.7235 68.6079 52.8631 68.6758 52.9396 68.798C53.016 68.9203 53.016 69.0755 52.9396 69.1978C52.8631 69.3201 52.7235 69.388 52.5801 69.3727H52.5801ZM49.5733 69.3727H48.07C47.9266 69.388 47.787 69.3201 47.7105 69.1978C47.634 69.0755 47.634 68.9203 47.7105 68.798C47.787 68.6758 47.9266 68.6079 48.07 68.6231L49.5733 68.6231C49.7167 68.6079 49.8563 68.6758 49.9328 68.798C50.0092 68.9203 50.0092 69.0755 49.9328 69.1978C49.8563 69.3201 49.7167 69.388 49.5733 69.3727ZM46.5665 69.3727H45.0632C44.9198 69.388 44.7802 69.3201 44.7037 69.1978C44.6272 69.0755 44.6272 68.9203 44.7037 68.798C44.7802 68.6758 44.9198 68.6079 45.0632 68.6231L46.5665 68.6231C46.7099 68.6079 46.8495 68.6758 46.926 68.798C47.0024 68.9203 47.0024 69.0755 46.926 69.1978C46.8495 69.3201 46.7099 69.388 46.5665 69.3727ZM75.0631 68.8095C74.8825 68.8072 74.7289 68.6772 74.6968 68.4994C74.6648 68.3217 74.7634 68.1462 74.9318 68.0811C75.3782 67.9186 75.8045 67.7055 76.2023 67.4458C76.3142 67.3701 76.4581 67.3599 76.5796 67.4191C76.7011 67.4782 76.7818 67.5977 76.7914 67.7325C76.8009 67.8673 76.7378 67.997 76.6258 68.0726C76.1816 68.3632 75.7056 68.6019 75.2071 68.7841C75.1596 68.7942 75.1106 68.7943 75.0631 68.7841L75.0631 68.8095ZM77.5151 67.1154C77.4293 67.116 77.3457 67.0877 77.278 67.0349C77.1169 66.9038 77.0923 66.667 77.2229 66.5055C77.5099 66.1469 77.736 65.7434 77.892 65.3113C77.9637 65.1162 78.1784 65.0145 78.3748 65.0826C78.5699 65.1542 78.6703 65.3701 78.5993 65.5654C78.4159 66.0764 78.1482 66.5531 77.8073 66.9756C77.7351 67.0617 77.6275 67.11 77.5151 67.1069L77.5151 67.1154ZM78.5526 64.35H78.5229C78.4204 64.3416 78.3257 64.2916 78.2609 64.2116C78.1961 64.1316 78.1669 64.0286 78.1799 63.9265C78.1799 63.7613 78.1799 63.592 78.1799 63.4141V62.4528C78.1802 62.2448 78.3488 62.0763 78.5568 62.0763C78.7648 62.0763 78.9335 62.2448 78.9337 62.4528V63.4141C78.9337 63.6131 78.9337 63.8037 78.9337 63.9858C78.9224 64.1873 78.7544 64.3441 78.5526 64.3415L78.5526 64.35ZM78.5738 61.3433C78.4739 61.3433 78.378 61.3036 78.3073 61.2329C78.2366 61.1622 78.1969 61.0663 78.1969 60.9664V59.463C78.1968 59.3283 78.2686 59.2037 78.3852 59.1363C78.5019 59.0688 78.6457 59.0688 78.7624 59.1362C78.8791 59.2037 78.9509 59.3282 78.9507 59.463V60.9664C78.9461 61.1712 78.7788 61.3349 78.5739 61.3348L78.5738 61.3433ZM78.5738 58.3366C78.4739 58.3366 78.378 58.2969 78.3073 58.2262C78.2366 58.1555 78.1969 58.0596 78.1969 57.9597V57.2905C78.1972 57.0825 78.3658 56.9141 78.5738 56.9141C78.7818 56.9141 78.9505 57.0826 78.9507 57.2905V57.9597C78.9461 58.1645 78.7788 58.3281 78.5739 58.3281L78.5738 58.3366Z" fill="#F94F24"/>
<path fill-rule="evenodd" clip-rule="evenodd" d="M50.5305 122.44H49.0271C48.8837 122.455 48.7442 122.387 48.6677 122.265C48.5912 122.143 48.5912 121.987 48.6677 121.865C48.7442 121.743 48.8837 121.675 49.0271 121.69L50.5305 121.69C50.6739 121.675 50.8135 121.743 50.89 121.865C50.9665 121.987 50.9665 122.143 50.89 122.265C50.8135 122.387 50.6739 122.455 50.5305 122.44ZM47.5237 122.44H46.0203C45.8769 122.455 45.7374 122.387 45.6609 122.265C45.5844 122.143 45.5844 121.987 45.6609 121.865C45.7374 121.743 45.8769 121.675 46.0203 121.69L47.5237 121.69C47.6671 121.675 47.8067 121.743 47.8832 121.865C47.9597 121.987 47.9597 122.143 47.8832 122.265C47.8067 122.387 47.6671 122.455 47.5237 122.44ZM44.517 122.44H43.0136C42.8702 122.455 42.7306 122.387 42.6541 122.265C42.5776 122.143 42.5776 121.987 42.6541 121.865C42.7306 121.743 42.8702 121.675 43.0136 121.69L44.5339 121.69C44.6773 121.675 44.8169 121.743 44.8934 121.865C44.9698 121.987 44.9698 122.143 44.8934 122.265C44.8169 122.387 44.6773 122.455 44.5339 122.44H44.517ZM41.5102 122.44H40.0068C39.8634 122.455 39.7238 122.387 39.6473 122.265C39.5708 122.143 39.5708 121.987 39.6473 121.865C39.7238 121.743 39.8634 121.675 40.0068 121.69L41.5102 121.69C41.6536 121.675 41.7931 121.743 41.8696 121.865C41.9461 121.987 41.9461 122.143 41.8696 122.265C41.7931 122.387 41.6536 122.455 41.5102 122.44ZM38.5034 122.44H37C36.8566 122.455 36.717 122.387 36.6405 122.265C36.5641 122.143 36.5641 121.987 36.6405 121.865C36.717 121.743 36.8566 121.675 37 121.69L38.5034 121.69C38.6468 121.675 38.7864 121.743 38.8628 121.865C38.9393 121.987 38.9393 122.143 38.8628 122.265C38.7864 122.387 38.6468 122.455 38.5034 122.44ZM35.4967 122.44H33.9933C33.8499 122.455 33.7103 122.387 33.6339 122.265C33.5574 122.143 33.5574 121.987 33.6339 121.865C33.7103 121.743 33.8499 121.675 33.9933 121.69L35.4967 121.69C35.6401 121.675 35.7797 121.743 35.8562 121.865C35.9326 121.987 35.9326 122.143 35.8562 122.265C35.7797 122.387 35.6401 122.455 35.4967 122.44ZM32.4899 122.44H30.9822C30.8388 122.455 30.6993 122.387 30.6228 122.265C30.5463 122.143 30.5463 121.987 30.6228 121.865C30.6993 121.743 30.8388 121.675 30.9822 121.69L32.4856 121.69C32.6772 121.711 32.8226 121.872 32.8226 122.065C32.8226 122.258 32.6772 122.419 32.4856 122.44H32.4899ZM29.4831 122.44H27.9797C27.8363 122.455 27.6968 122.387 27.6203 122.265C27.5438 122.143 27.5438 121.987 27.6203 121.865C27.6968 121.743 27.8363 121.675 27.9797 121.69L29.4831 121.69C29.6747 121.711 29.8201 121.872 29.8201 122.065C29.8201 122.258 29.6747 122.419 29.4831 122.44ZM26.4763 122.44H24.9687C24.7771 122.419 24.6318 122.258 24.6318 122.065C24.6318 121.872 24.7771 121.711 24.9687 121.69L26.4764 121.69C26.668 121.711 26.8133 121.872 26.8133 122.065C26.8133 122.258 26.668 122.419 26.4764 122.44H26.4763ZM23.4654 122.44H22.7963C22.5 122.434 22.2044 122.41 21.9112 122.368C21.7164 122.328 21.5858 122.145 21.6127 121.948C21.6395 121.751 21.8146 121.609 22.0128 121.623C22.2726 121.659 22.5341 121.682 22.7963 121.69H23.4654C23.6088 121.675 23.7483 121.743 23.8248 121.865C23.9013 121.988 23.9013 122.143 23.8248 122.265C23.7483 122.387 23.6088 122.455 23.4654 122.44H23.4654ZM20.501 122.05C20.466 122.056 20.4301 122.056 20.3951 122.05C19.8948 121.901 19.4076 121.711 18.9383 121.483C18.7512 121.392 18.6735 121.166 18.7647 120.979C18.8559 120.792 19.0815 120.714 19.2686 120.805C19.7004 121.018 20.1495 121.194 20.6111 121.33C20.7887 121.385 20.8996 121.562 20.8721 121.746C20.8446 121.93 20.687 122.066 20.501 122.067V122.05ZM17.8076 120.746C17.7264 120.746 17.6475 120.719 17.5831 120.67C17.161 120.355 16.7722 119.997 16.4228 119.603C16.2865 119.445 16.3016 119.208 16.4567 119.069C16.6126 118.933 16.8487 118.948 16.986 119.103C17.3013 119.459 17.6518 119.783 18.032 120.068C18.1124 120.128 18.1656 120.216 18.18 120.315C18.1943 120.414 18.1685 120.514 18.1083 120.594C18.039 120.691 17.9267 120.747 17.8076 120.746ZM15.8383 118.51C15.7021 118.51 15.5761 118.437 15.508 118.319C15.2525 117.862 15.0385 117.383 14.8686 116.888C14.835 116.794 14.8407 116.69 14.8845 116.6C14.9283 116.51 15.0065 116.441 15.1015 116.409C15.2979 116.342 15.5119 116.446 15.58 116.642C15.7315 117.095 15.9273 117.532 16.1644 117.947C16.2658 118.128 16.2015 118.357 16.0204 118.459C15.9645 118.489 15.9017 118.504 15.8383 118.501V118.51ZM14.8516 115.664C14.6691 115.663 14.5139 115.531 14.4832 115.351C14.3929 114.843 14.3363 114.329 14.3138 113.814C14.3042 113.607 14.4629 113.431 14.6695 113.42C14.8761 113.415 15.0498 113.573 15.0634 113.78C15.086 114.264 15.1384 114.746 15.22 115.224C15.2359 115.32 15.2127 115.419 15.1555 115.499C15.0983 115.578 15.0118 115.632 14.9151 115.647L14.8516 115.664ZM14.6738 112.67C14.5738 112.67 14.478 112.63 14.4073 112.56C14.3366 112.489 14.2969 112.393 14.2969 112.293L14.2969 110.79C14.2967 110.655 14.3685 110.53 14.4852 110.463C14.6019 110.396 14.7457 110.396 14.8624 110.463C14.979 110.53 15.0508 110.655 15.0507 110.79V112.293C15.059 112.398 15.0229 112.502 14.9513 112.579C14.8797 112.656 14.7791 112.7 14.6738 112.7L14.6738 112.67ZM14.6738 109.659C14.5738 109.659 14.478 109.619 14.4073 109.549C14.3366 109.478 14.2969 109.382 14.2969 109.282L14.2969 107.779C14.2967 107.644 14.3685 107.519 14.4852 107.452C14.6019 107.385 14.7457 107.385 14.8624 107.452C14.979 107.519 15.0508 107.644 15.0507 107.779V109.312C15.0438 109.515 14.8771 109.676 14.6738 109.676V109.659ZM14.6738 106.652C14.5738 106.652 14.478 106.612 14.4073 106.542C14.3366 106.471 14.2969 106.375 14.2969 106.275L14.2969 104.768C14.2971 104.56 14.4658 104.391 14.6738 104.391C14.8818 104.391 15.0504 104.56 15.0507 104.768V106.275C15.0553 106.378 15.0176 106.478 14.9465 106.553C14.8753 106.627 14.7767 106.669 14.6738 106.669L14.6738 106.652ZM14.6738 103.641C14.5738 103.641 14.478 103.602 14.4073 103.531C14.3366 103.46 14.2969 103.364 14.2969 103.264L14.2969 101.761C14.2967 101.626 14.3685 101.502 14.4852 101.434C14.6019 101.367 14.7457 101.367 14.8624 101.434C14.979 101.502 15.0508 101.626 15.0507 101.761V103.264C15.0553 103.367 15.0176 103.467 14.9465 103.542C14.8753 103.616 14.7767 103.658 14.6738 103.658L14.6738 103.641ZM14.6738 100.63C14.5738 100.63 14.478 100.591 14.4073 100.52C14.3366 100.449 14.2969 100.353 14.2969 100.253L14.2969 98.767C14.2967 98.6323 14.3685 98.5077 14.4852 98.4403C14.6019 98.3729 14.7457 98.3729 14.8624 98.4403C14.979 98.5077 15.0508 98.6323 15.0507 98.767V100.27C15.0507 100.37 15.011 100.466 14.9404 100.537C14.8697 100.608 14.7739 100.647 14.6739 100.647L14.6738 100.63ZM14.6738 97.6193C14.4656 97.6193 14.2969 97.4505 14.2969 97.2424L14.2969 95.7601C14.2971 95.5521 14.4658 95.3837 14.6738 95.3837C14.8818 95.3837 15.0504 95.5521 15.0507 95.7601V97.2635C15.0484 97.47 14.8803 97.6362 14.6738 97.6362L14.6738 97.6193ZM14.7077 94.6082H14.6272C14.4257 94.5638 14.2973 94.3656 14.3393 94.1635C14.4506 93.6531 14.6007 93.152 14.7882 92.6644C14.8614 92.4709 15.0769 92.3727 15.271 92.4442C15.465 92.5192 15.563 92.736 15.4912 92.9312C15.3151 93.3814 15.1735 93.8443 15.0677 94.316C15.0343 94.4903 14.885 94.6184 14.7077 94.6251L14.7077 94.6082ZM15.7664 91.7963C15.703 91.7946 15.6408 91.7787 15.5843 91.7497C15.4043 91.6493 15.3382 91.4229 15.4361 91.2415C15.6808 90.7821 15.9641 90.3443 16.2831 89.9329C16.4094 89.7692 16.6445 89.7389 16.8082 89.8652C16.9719 89.9915 17.0022 90.2266 16.876 90.3903C16.5824 90.773 16.3191 91.178 16.0883 91.6015C16.0272 91.7251 15.9041 91.806 15.7664 91.8132L15.7664 91.7963ZM17.6128 89.4376C17.5053 89.4375 17.4027 89.3931 17.3291 89.3147C17.1928 89.1575 17.2079 88.9199 17.363 88.7812C17.753 88.4299 18.1788 88.1205 18.6334 87.858C18.7497 87.7727 18.9045 87.7612 19.032 87.8285C19.1596 87.8957 19.2377 88.0298 19.233 88.174C19.2284 88.3181 19.1419 88.447 19.0103 88.5059C18.598 88.7475 18.212 89.0314 17.8584 89.3529C17.7918 89.4158 17.7044 89.452 17.6128 89.4545L17.6128 89.4376ZM20.1918 87.9383C20.0308 87.9393 19.8873 87.8368 19.8361 87.6842C19.7686 87.4877 19.8728 87.2737 20.069 87.2056C20.5666 87.0405 21.0784 86.9214 21.5978 86.8499C21.8024 86.8207 21.992 86.9629 22.0213 87.1675C22.0505 87.3722 21.9083 87.5618 21.7037 87.591C21.2301 87.658 20.7637 87.7686 20.3104 87.9213C20.273 87.939 20.2329 87.9504 20.1918 87.9552V87.9383ZM38.4483 87.5149H38.1815C38.0381 87.5301 37.8986 87.4622 37.8221 87.34C37.7456 87.2177 37.7456 87.0625 37.8221 86.9402C37.8986 86.818 38.0381 86.75 38.1815 86.7653L38.4483 86.7653C38.64 86.7857 38.7854 86.9474 38.7854 87.1401C38.7854 87.3328 38.64 87.4945 38.4483 87.5149ZM36.6781 87.5149H35.1747C35.0313 87.5301 34.8918 87.4622 34.8153 87.34C34.7388 87.2177 34.7388 87.0625 34.8153 86.9402C34.8918 86.818 35.0313 86.75 35.1747 86.7653L36.6781 86.7653C36.8215 86.75 36.9611 86.818 37.0375 86.9402C37.114 87.0625 37.114 87.2177 37.0375 87.34C36.9611 87.4622 36.8215 87.5301 36.6781 87.5149H36.6781ZM33.6715 87.5149H32.1681C32.0247 87.5301 31.8851 87.4622 31.8087 87.34C31.7322 87.2177 31.7322 87.0625 31.8087 86.9402C31.8851 86.818 32.0247 86.75 32.1681 86.7653L33.6715 86.7653C33.8149 86.75 33.9544 86.818 34.0309 86.9402C34.1074 87.0625 34.1074 87.2177 34.0309 87.34C33.9544 87.4622 33.8149 87.5301 33.6715 87.5149H33.6715ZM30.6647 87.5149H29.1613C29.0179 87.5301 28.8783 87.4622 28.8019 87.34C28.7254 87.2177 28.7254 87.0625 28.8019 86.9402C28.8783 86.818 29.0179 86.75 29.1613 86.7653L30.6647 86.7653C30.8081 86.75 30.9476 86.818 31.0241 86.9402C31.1006 87.0625 31.1006 87.2177 31.0241 87.34C30.9476 87.4622 30.8081 87.5301 30.6647 87.5149ZM27.6579 87.5149H26.1545C26.0111 87.5301 25.8716 87.4622 25.7951 87.34C25.7186 87.2177 25.7186 87.0625 25.7951 86.9402C25.8716 86.818 26.0111 86.75 26.1545 86.7653L27.6579 86.7653C27.8013 86.75 27.9409 86.818 28.0173 86.9402C28.0938 87.0625 28.0938 87.2177 28.0173 87.34C27.9409 87.4622 27.8013 87.5301 27.6579 87.5149H27.6579ZM24.6511 87.5149H23.1477C23.0043 87.5301 22.8648 87.4622 22.7883 87.34C22.7118 87.2177 22.7118 87.0625 22.7883 86.9402C22.8648 86.818 23.0043 86.75 23.1477 86.7653L24.6511 86.7653C24.7945 86.75 24.9341 86.818 25.0105 86.9402C25.087 87.0625 25.087 87.2177 25.0105 87.34C24.9341 87.4622 24.7945 87.5301 24.6511 87.5149H24.6511Z" fill="#F94F24"/>
<path fill-rule="evenodd" clip-rule="evenodd" d="M44.7119 92.7197C44.506 92.7337 44.3278 92.5783 44.3138 92.3725C44.2998 92.1666 44.4552 91.9884 44.6611 91.9744C45.122 91.9088 45.5713 91.7776 45.995 91.5848C46.1845 91.4982 46.4082 91.5816 46.4948 91.771C46.5814 91.9604 46.498 92.1842 46.3085 92.2708C45.8187 92.4923 45.2995 92.6421 44.7669 92.7155L44.7119 92.7197ZM43.2169 92.7196H43.1618C42.6288 92.6418 42.1096 92.4878 41.6203 92.2622C41.4343 92.1725 41.3535 91.9509 41.4383 91.7625C41.4796 91.6714 41.5559 91.6008 41.6499 91.5666C41.7439 91.5324 41.8477 91.5373 41.938 91.5804C42.3602 91.7651 42.8065 91.8891 43.2635 91.9488C43.4582 91.9783 43.5975 92.1527 43.5831 92.3491C43.5686 92.5455 43.4054 92.6977 43.2084 92.6984L43.2169 92.7196ZM47.4137 91.4999C47.3043 91.5004 47.2004 91.4523 47.13 91.3686C46.9952 91.2116 47.0122 90.9754 47.1681 90.8393C47.5213 90.5344 47.8293 90.1808 48.0828 89.789C48.1964 89.615 48.4294 89.5657 48.6037 89.6789C48.687 89.7327 48.7455 89.8174 48.7661 89.9144C48.7868 90.0113 48.768 90.1125 48.7138 90.1956C48.4231 90.6484 48.0678 91.0564 47.6593 91.4068C47.5913 91.4658 47.5038 91.4974 47.4137 91.4957L47.4137 91.4999ZM40.5235 91.4745C40.4331 91.4743 40.3458 91.4412 40.2779 91.3813C39.8728 91.0268 39.5205 90.6161 39.2319 90.1617C39.1149 89.9863 39.1623 89.7493 39.3377 89.6323C39.5132 89.5154 39.7502 89.5628 39.8671 89.7382C40.1164 90.1318 40.4217 90.4871 40.7734 90.7927C40.9284 90.9315 40.9435 91.169 40.8072 91.3263C40.7393 91.4147 40.635 91.4677 40.5235 91.4703L40.5235 91.4745ZM49.0229 89.0099C48.9879 89.0163 48.952 89.0163 48.917 89.0099C48.8212 88.9824 48.7403 88.9176 48.6926 88.8301C48.6448 88.7425 48.6341 88.6395 48.6629 88.544C48.7934 88.0969 48.859 87.6334 48.8577 87.1677C48.8569 87.0325 48.9286 86.9072 49.0455 86.8394C49.1625 86.7716 49.3068 86.7716 49.4237 86.8394C49.5407 86.9072 49.6123 87.0325 49.6115 87.1677C49.6122 87.7054 49.5352 88.2403 49.3828 88.7558C49.3286 88.9074 49.1839 89.0078 49.0229 89.0056L49.0229 89.0099ZM38.9354 88.9844C38.7675 88.9831 38.6208 88.8708 38.5755 88.7091C38.4315 88.2065 38.3588 87.6862 38.3595 87.1634C38.3592 86.9516 38.5249 86.7766 38.7364 86.7653C38.8337 86.7607 38.9285 86.7961 38.999 86.8633C39.0694 86.9306 39.1092 87.0237 39.1091 87.1211C39.1063 87.5877 39.169 88.0524 39.2954 88.5016C39.3242 88.5971 39.3135 88.7001 39.2658 88.7877C39.218 88.8752 39.1372 88.94 39.0413 88.9675C39.0072 88.9789 38.9714 88.9846 38.9354 88.9844V88.9844ZM49.0441 86.1344C48.8761 86.133 48.7294 86.0208 48.6841 85.8591C48.5585 85.4107 48.3688 84.9828 48.1209 84.5886C48.0205 84.4127 48.0772 84.189 48.2491 84.0819C48.421 83.9749 48.6468 84.0229 48.7603 84.1906C49.0447 84.6473 49.2628 85.1421 49.4083 85.6601C49.4624 85.8599 49.3452 86.0661 49.1457 86.1217C49.1119 86.1264 49.0774 86.125 49.0441 86.1174L49.0441 86.1344ZM38.9608 86.02C38.9244 86.0264 38.8871 86.0264 38.8507 86.02C38.7549 85.9926 38.6743 85.9277 38.6273 85.8399C38.5802 85.7521 38.5707 85.6491 38.6008 85.5542C38.7542 85.038 38.9825 84.5472 39.2784 84.0974C39.3954 83.9231 39.6314 83.8767 39.8057 83.9936C39.9799 84.1106 40.0264 84.3466 39.9094 84.5209C39.6503 84.9123 39.4518 85.3406 39.3207 85.7913C39.2605 85.9354 39.1168 86.0267 38.9608 86.02ZM47.4729 83.619C47.381 83.6198 47.292 83.5866 47.2231 83.5258C46.876 83.2168 46.4867 82.9587 46.067 82.7593C45.8787 82.6704 45.7981 82.4458 45.887 82.2575C45.9759 82.0692 46.2005 81.9886 46.3888 82.0775C46.8728 82.3084 47.3219 82.6064 47.7228 82.9626C47.8779 83.1014 47.893 83.3389 47.7567 83.4962C47.6796 83.5668 47.5773 83.6034 47.4729 83.5978V83.619ZM40.5871 83.5426C40.4769 83.5416 40.3722 83.4939 40.2991 83.4113C40.1649 83.2518 40.1838 83.0141 40.3415 82.8777C40.7528 82.5333 41.2104 82.2482 41.7009 82.0307C41.8915 81.9466 42.1142 82.0329 42.1984 82.2235C42.2826 82.414 42.1964 82.6368 42.0058 82.721C41.5791 82.909 41.1824 83.1587 40.8285 83.4621C40.757 83.5086 40.6719 83.5295 40.5871 83.5214L40.5871 83.5426ZM44.7922 82.3526H44.7372C44.275 82.287 43.806 82.287 43.3439 82.3526C43.2442 82.367 43.143 82.3405 43.0632 82.2791C42.9835 82.2176 42.9319 82.1266 42.9204 82.0266C42.9047 81.9274 42.9302 81.8261 42.991 81.7461C43.0517 81.6662 43.1425 81.6145 43.2423 81.6031C43.7745 81.5268 44.315 81.5268 44.8473 81.6031C45.0329 81.642 45.1606 81.8128 45.1456 82.0018C45.1305 82.1909 44.9774 82.3393 44.788 82.3484L44.7922 82.3526Z" fill="#F94F24"/>
<path fill-rule="evenodd" clip-rule="evenodd" d="M139.192 138.109C138.984 138.109 138.815 137.94 138.815 137.732C138.815 137.524 138.984 137.355 139.192 137.355L139.679 137.355C139.988 137.323 140.295 137.271 140.598 137.199C140.8 137.151 141.003 137.276 141.051 137.478C141.075 137.575 141.059 137.677 141.006 137.762C140.954 137.846 140.869 137.906 140.772 137.927C140.42 138.012 140.064 138.073 139.704 138.109H139.192ZM137.701 138.109H136.198C136.063 138.109 135.939 138.037 135.871 137.921C135.804 137.804 135.804 137.66 135.871 137.544C135.939 137.427 136.063 137.355 136.198 137.355L137.701 137.355C137.909 137.356 138.078 137.524 138.078 137.732C138.078 137.94 137.909 138.109 137.701 138.109H137.701ZM134.694 138.109H133.191C132.983 138.109 132.815 137.94 132.815 137.732C132.815 137.524 132.983 137.356 133.191 137.355L134.694 137.355C134.902 137.356 135.071 137.524 135.071 137.732C135.071 137.94 134.902 138.109 134.694 138.109H134.694ZM131.688 138.109H130.184C130.05 138.109 129.925 138.037 129.858 137.921C129.79 137.804 129.79 137.66 129.858 137.544C129.925 137.427 130.05 137.355 130.184 137.355L131.688 137.355C131.896 137.356 132.064 137.524 132.064 137.732C132.064 137.94 131.896 138.109 131.688 138.109H131.688ZM142.127 137.461C141.95 137.459 141.798 137.335 141.762 137.162C141.725 136.989 141.813 136.814 141.974 136.741C142.409 136.551 142.823 136.313 143.207 136.034C143.374 135.912 143.609 135.948 143.732 136.114C143.854 136.283 143.818 136.519 143.651 136.644C143.222 136.953 142.763 137.217 142.279 137.431C142.226 137.447 142.169 137.452 142.114 137.444L142.127 137.461ZM144.515 135.683C144.429 135.683 144.345 135.653 144.278 135.598C144.117 135.467 144.092 135.23 144.223 135.068C144.516 134.704 144.76 134.303 144.947 133.874C145.03 133.685 145.251 133.599 145.44 133.682C145.63 133.765 145.716 133.985 145.633 134.175C145.416 134.668 145.13 135.128 144.786 135.543C144.714 135.623 144.61 135.668 144.502 135.666L144.515 135.683ZM145.718 132.968H145.65C145.453 132.929 145.319 132.744 145.345 132.544C145.423 132.104 145.461 131.658 145.46 131.21V131.113C145.444 130.97 145.512 130.83 145.634 130.754C145.757 130.677 145.912 130.677 146.034 130.754C146.156 130.83 146.224 130.97 146.209 131.113V131.21C146.21 131.702 146.169 132.192 146.086 132.676C146.04 132.846 145.881 132.961 145.705 132.951L145.718 132.968ZM145.832 129.97C145.733 129.97 145.637 129.93 145.567 129.859C145.497 129.788 145.458 129.692 145.46 129.593V128.072C145.444 127.929 145.512 127.789 145.635 127.713C145.757 127.636 145.912 127.636 146.034 127.713C146.157 127.789 146.224 127.929 146.209 128.072V129.576C146.209 129.678 146.168 129.776 146.094 129.847C146.021 129.918 145.922 129.956 145.819 129.953L145.832 129.97ZM145.832 126.963C145.733 126.963 145.637 126.923 145.567 126.852C145.497 126.781 145.458 126.685 145.46 126.586V125.065C145.444 124.922 145.512 124.783 145.635 124.706C145.757 124.63 145.912 124.63 146.034 124.706C146.157 124.783 146.224 124.922 146.209 125.065V126.569C146.209 126.671 146.168 126.769 146.094 126.84C146.021 126.911 145.922 126.949 145.819 126.946L145.832 126.963ZM145.832 123.956C145.733 123.956 145.637 123.916 145.567 123.845C145.497 123.775 145.458 123.679 145.46 123.579V122.059C145.444 121.915 145.512 121.776 145.635 121.699C145.757 121.623 145.912 121.623 146.034 121.699C146.157 121.776 146.224 121.915 146.209 122.059V123.562C146.209 123.664 146.168 123.762 146.094 123.833C146.021 123.904 145.922 123.943 145.819 123.939L145.832 123.956ZM145.832 120.949C145.733 120.949 145.637 120.909 145.567 120.839C145.497 120.768 145.458 120.672 145.46 120.572V120.517C145.452 120.403 145.452 120.288 145.46 120.174C145.459 119.78 145.497 119.387 145.574 119.001C145.628 118.814 145.817 118.699 146.008 118.736C146.2 118.774 146.331 118.951 146.311 119.145C146.244 119.484 146.21 119.829 146.209 120.174C146.209 120.356 146.209 120.466 146.209 120.475V120.572C146.2 120.779 146.026 120.94 145.819 120.932L145.832 120.949ZM146.425 118.036C146.363 118.037 146.301 118.021 146.247 117.989C146.16 117.942 146.095 117.861 146.067 117.766C146.039 117.67 146.051 117.568 146.099 117.481C146.363 116.993 146.719 116.561 147.149 116.21C147.312 116.09 147.542 116.12 147.668 116.278C147.795 116.437 147.773 116.667 147.619 116.799C147.273 117.085 146.985 117.436 146.772 117.832C146.699 117.959 146.558 118.032 146.412 118.019L146.425 118.036ZM148.704 116.193C148.522 116.189 148.369 116.055 148.341 115.875C148.313 115.695 148.417 115.521 148.589 115.461C149.098 115.302 149.624 115.208 150.156 115.181C150.363 115.174 150.538 115.331 150.554 115.537C150.56 115.636 150.526 115.733 150.46 115.807C150.394 115.881 150.302 115.925 150.203 115.931C149.733 115.955 149.268 116.038 148.818 116.176C148.783 116.182 148.747 116.182 148.712 116.177L148.704 116.193ZM159.202 115.918H157.698C157.555 115.934 157.415 115.866 157.339 115.743C157.262 115.621 157.262 115.466 157.339 115.344C157.415 115.221 157.555 115.153 157.698 115.169L159.202 115.169C159.393 115.189 159.539 115.351 159.539 115.544C159.539 115.736 159.393 115.898 159.202 115.918ZM156.191 115.918H154.687C154.496 115.898 154.35 115.736 154.35 115.544C154.35 115.351 154.496 115.189 154.687 115.169L156.191 115.169C156.334 115.153 156.474 115.221 156.55 115.344C156.627 115.466 156.627 115.621 156.55 115.743C156.474 115.866 156.334 115.934 156.191 115.918ZM153.184 115.918H151.676C151.485 115.898 151.339 115.736 151.339 115.544C151.339 115.351 151.485 115.189 151.676 115.169L153.18 115.169C153.323 115.153 153.463 115.221 153.539 115.344C153.616 115.466 153.616 115.621 153.539 115.743C153.463 115.866 153.323 115.934 153.18 115.918H153.184ZM160.705 115.884C160.511 115.883 160.35 115.734 160.332 115.541C160.318 115.44 160.346 115.337 160.41 115.256C160.475 115.176 160.569 115.126 160.671 115.118C161.15 115.073 161.625 114.988 162.09 114.864C162.186 114.838 162.289 114.851 162.376 114.901C162.463 114.951 162.526 115.034 162.552 115.13C162.603 115.331 162.484 115.536 162.285 115.592C161.78 115.727 161.264 115.817 160.743 115.863L160.705 115.884ZM163.593 115.088C163.451 115.088 163.322 115.008 163.259 114.881C163.212 114.793 163.202 114.69 163.233 114.595C163.263 114.5 163.33 114.421 163.42 114.377C163.835 114.165 164.219 113.896 164.559 113.576C164.629 113.506 164.724 113.466 164.824 113.466C164.923 113.466 165.018 113.506 165.088 113.576C165.159 113.646 165.199 113.742 165.199 113.841C165.199 113.94 165.159 114.036 165.088 114.106C164.699 114.478 164.257 114.791 163.775 115.033C163.714 115.061 163.648 115.074 163.581 115.071L163.593 115.088ZM165.711 113.026C165.652 113.026 165.594 113.011 165.541 112.983C165.452 112.939 165.385 112.861 165.354 112.766C165.322 112.671 165.331 112.568 165.376 112.48C165.585 112.065 165.728 111.621 165.8 111.162C165.834 110.957 166.028 110.817 166.234 110.851C166.44 110.885 166.579 111.08 166.545 111.285C166.459 111.818 166.293 112.335 166.054 112.818C165.982 112.948 165.841 113.022 165.694 113.009L165.711 113.026ZM166.244 110.104C166.144 110.104 166.049 110.064 165.978 109.993C165.907 109.923 165.867 109.827 165.867 109.727V108.223C165.867 108.015 166.036 107.847 166.244 107.847C166.453 107.847 166.621 108.015 166.621 108.223V109.727C166.617 109.827 166.573 109.921 166.499 109.989C166.425 110.056 166.327 110.091 166.227 110.087L166.244 110.104ZM166.244 107.097C166.144 107.097 166.049 107.057 165.978 106.986C165.907 106.916 165.867 106.82 165.867 106.72V105.217C165.867 105.008 166.036 104.84 166.244 104.84C166.453 104.84 166.621 105.008 166.621 105.217V106.72C166.617 106.82 166.573 106.914 166.499 106.982C166.425 107.049 166.327 107.085 166.227 107.08L166.244 107.097ZM166.244 104.09C166.144 104.09 166.049 104.05 165.978 103.98C165.907 103.909 165.867 103.813 165.867 103.713V102.21C165.867 102.002 166.036 101.833 166.244 101.833C166.453 101.833 166.621 102.002 166.621 102.21V103.713C166.617 103.813 166.573 103.907 166.499 103.975C166.425 104.043 166.327 104.078 166.227 104.073L166.244 104.09ZM166.244 101.084C166.144 101.084 166.049 101.044 165.978 100.973C165.907 100.902 165.867 100.807 165.867 100.707V99.2032C165.867 98.9951 166.036 98.8263 166.244 98.8263C166.453 98.8263 166.621 98.9951 166.621 99.2032V100.707C166.617 100.807 166.573 100.901 166.499 100.968C166.425 101.036 166.327 101.071 166.227 101.067L166.244 101.084ZM166.244 98.0726C166.145 98.0737 166.049 98.0349 165.978 97.9649C165.907 97.8949 165.867 97.7995 165.867 97.6999V96.1838C165.867 95.9757 166.036 95.8069 166.244 95.8069C166.453 95.8069 166.621 95.9757 166.621 96.1838V97.6872C166.62 97.7891 166.578 97.8861 166.503 97.9557C166.429 98.0254 166.329 98.0615 166.227 98.0556L166.244 98.0726ZM166.244 95.0657C166.145 95.0669 166.049 95.0281 165.978 94.9581C165.907 94.8881 165.867 94.7926 165.867 94.6931V93.1897C165.867 92.9815 166.036 92.8128 166.244 92.8128C166.453 92.8128 166.621 92.9815 166.621 93.1897V94.6931C166.617 94.7927 166.573 94.8865 166.499 94.9533C166.425 95.0202 166.327 95.0546 166.227 95.0488L166.244 95.0657ZM166.244 92.059C166.145 92.0602 166.049 92.0214 165.978 91.9514C165.907 91.8814 165.867 91.7859 165.867 91.6864V90.183C165.867 89.9748 166.036 89.8061 166.244 89.8061C166.453 89.8061 166.621 89.9748 166.621 90.183V91.6864C166.617 91.786 166.573 91.8798 166.499 91.9467C166.425 92.0135 166.327 92.0479 166.227 92.0421L166.244 92.059ZM166.244 89.0522C166.144 89.0522 166.049 89.0125 165.978 88.9418C165.907 88.8711 165.867 88.7753 165.867 88.6753V87.1719C165.867 86.9638 166.036 86.795 166.244 86.795C166.453 86.795 166.621 86.9638 166.621 87.1719V88.6753C166.617 88.7753 166.573 88.8695 166.499 88.937C166.425 89.0045 166.327 89.0399 166.227 89.0353L166.244 89.0522ZM166.244 86.0455C166.144 86.0455 166.049 86.0058 165.978 85.9351C165.907 85.8645 165.867 85.7686 165.867 85.6686V84.1652C165.867 83.9571 166.036 83.7883 166.244 83.7883C166.453 83.7883 166.621 83.9571 166.621 84.1652V85.6686C166.608 85.8735 166.433 86.0299 166.227 86.0201L166.244 86.0455ZM166.117 83.0386C165.935 83.0396 165.778 82.9093 165.745 82.7295C165.663 82.2497 165.55 81.7758 165.406 81.3108C165.344 81.112 165.455 80.9007 165.654 80.8387C165.852 80.7768 166.064 80.8877 166.126 81.0864C166.278 81.5821 166.398 82.0871 166.486 82.5982C166.516 82.7989 166.381 82.9871 166.181 83.0217L166.117 83.0386ZM165.228 80.1505C165.08 80.1517 164.945 80.0652 164.885 79.9303C164.683 79.4919 164.453 79.0675 164.195 78.6598C164.085 78.4853 164.136 78.2552 164.309 78.1431C164.485 78.0332 164.716 78.084 164.83 78.2575C165.105 78.6967 165.351 79.1536 165.567 79.6254C165.609 79.7162 165.614 79.8204 165.579 79.9145C165.544 80.0085 165.472 80.0844 165.38 80.1251C165.332 80.1434 165.28 80.152 165.228 80.1505ZM163.619 77.6095C163.51 77.6095 163.406 77.5615 163.335 77.4783C163.019 77.1131 162.677 76.7719 162.31 76.4576C162.155 76.3213 162.139 76.0855 162.273 75.9289C162.408 75.7722 162.643 75.7531 162.801 75.8859C163.195 76.2249 163.564 76.593 163.902 76.987C164.037 77.144 164.02 77.3803 163.864 77.5164C163.796 77.5828 163.705 77.6207 163.61 77.6222L163.619 77.6095ZM161.349 75.6574C161.278 75.656 161.21 75.6355 161.15 75.5981C160.742 75.3413 160.318 75.1121 159.879 74.912C159.703 74.8194 159.629 74.6052 159.711 74.4234C159.793 74.2415 160.002 74.155 160.188 74.226C160.659 74.4403 161.115 74.6865 161.552 74.9628C161.693 75.0526 161.757 75.224 161.712 75.3843C161.666 75.5446 161.52 75.6557 161.353 75.6574L161.349 75.6574ZM158.626 74.4122C158.588 74.4109 158.551 74.4038 158.516 74.391C158.051 74.2467 157.579 74.1265 157.101 74.0311C156.906 73.9905 156.776 73.8049 156.805 73.6076C156.847 73.4135 157.031 73.2845 157.228 73.3111C157.741 73.417 158.245 73.5441 158.719 73.6923C158.814 73.7215 158.894 73.7877 158.94 73.876C158.986 73.9643 158.995 74.0674 158.965 74.1623C158.915 74.3139 158.777 74.4186 158.617 74.4249L158.626 74.4122ZM155.691 73.8151H155.653C155.179 73.7643 154.683 73.7304 154.183 73.7177C153.975 73.7174 153.807 73.5488 153.807 73.3408C153.807 73.1328 153.975 72.9641 154.183 72.9639H154.183C154.704 72.9639 155.217 73.0147 155.712 73.0655C155.92 73.0772 156.08 73.2554 156.068 73.4636C156.056 73.6717 155.878 73.831 155.67 73.8193L155.691 73.8151ZM115.371 73.7388H115.083C114.983 73.7366 114.889 73.6946 114.82 73.6222C114.752 73.5497 114.715 73.453 114.719 73.3534C114.728 73.1488 114.895 72.987 115.1 72.985C115.369 73.0016 115.639 73.0016 115.909 72.985H116.595C116.803 72.9852 116.971 73.1539 116.971 73.3619C116.971 73.5698 116.803 73.7385 116.595 73.7388H115.947C115.947 73.7388 115.731 73.7388 115.371 73.7388ZM152.684 73.7388H151.181C150.973 73.7385 150.804 73.5699 150.804 73.3619C150.804 73.1539 150.973 72.9852 151.181 72.985H152.684C152.892 72.9852 153.061 73.1539 153.061 73.3619C153.061 73.5698 152.892 73.7385 152.684 73.7388H152.684ZM149.673 73.7388H148.17C147.962 73.7385 147.793 73.5699 147.793 73.3619C147.793 73.1539 147.962 72.9852 148.17 72.985H149.673C149.881 72.9852 150.05 73.1539 150.05 73.3619C150.05 73.5698 149.881 73.7385 149.673 73.7388H149.673ZM146.666 73.7388H145.163C144.955 73.7385 144.787 73.5699 144.787 73.3619C144.787 73.1539 144.955 72.9852 145.163 72.985H146.666C146.874 72.9852 147.043 73.1539 147.043 73.3619C147.043 73.5698 146.874 73.7385 146.666 73.7388H146.666ZM143.66 73.7388H142.156C141.948 73.7385 141.78 73.5699 141.78 73.3619C141.78 73.1539 141.948 72.9852 142.156 72.985H143.66C143.868 72.9852 144.036 73.1539 144.036 73.3619C144.036 73.5698 143.868 73.7385 143.66 73.7388H143.66ZM140.653 73.7388H139.15C138.942 73.7385 138.773 73.5699 138.773 73.3619C138.773 73.1539 138.942 72.9852 139.15 72.985H140.666C140.874 72.9852 141.042 73.1539 141.042 73.3619C141.042 73.5698 140.874 73.7385 140.666 73.7388H140.653ZM137.646 73.7388H136.143C135.935 73.7385 135.766 73.5699 135.766 73.3619C135.766 73.1539 135.935 72.9852 136.143 72.985H137.646C137.854 72.9852 138.023 73.1539 138.023 73.3619C138.023 73.5698 137.854 73.7385 137.646 73.7388H137.646ZM134.639 73.7388H133.136C133.001 73.7389 132.877 73.6671 132.809 73.5504C132.742 73.4338 132.742 73.29 132.809 73.1733C132.877 73.0566 133.001 72.9848 133.136 72.985H134.639C134.774 72.9848 134.899 73.0566 134.966 73.1733C135.034 73.29 135.034 73.4338 134.966 73.5504C134.899 73.6671 134.774 73.7389 134.639 73.7388H134.639ZM131.633 73.7388H130.129C129.921 73.7385 129.753 73.5699 129.753 73.3619C129.753 73.1539 129.921 72.9852 130.129 72.985H131.633C131.841 72.9852 132.009 73.1539 132.009 73.3619C132.009 73.5698 131.841 73.7385 131.633 73.7388H131.633ZM128.626 73.7388H127.114C126.906 73.7385 126.738 73.5699 126.738 73.3619C126.738 73.1539 126.906 72.9852 127.114 72.985H128.617C128.825 72.9852 128.994 73.1539 128.994 73.3619C128.994 73.5698 128.825 73.7385 128.618 73.7388H128.626ZM125.619 73.7388H124.116C123.981 73.7389 123.856 73.6671 123.789 73.5504C123.722 73.4338 123.722 73.29 123.789 73.1733C123.856 73.0566 123.981 72.9848 124.116 72.985H125.619C125.827 72.9852 125.996 73.1539 125.996 73.3619C125.996 73.5698 125.827 73.7385 125.619 73.7388H125.619ZM122.612 73.7388H121.109C120.901 73.7385 120.733 73.5699 120.732 73.3619C120.732 73.1539 120.901 72.9852 121.109 72.985H122.612C122.82 72.9852 122.989 73.1539 122.989 73.3619C122.989 73.5698 122.82 73.7385 122.612 73.7388H122.612ZM119.606 73.7388H118.102C117.968 73.7389 117.843 73.6671 117.776 73.5504C117.708 73.4338 117.708 73.29 117.776 73.1733C117.843 73.0566 117.968 72.9848 118.102 72.985H119.606C119.814 72.9852 119.982 73.1539 119.982 73.3619C119.982 73.5698 119.814 73.7385 119.606 73.7388H119.606ZM113.596 73.5992H113.529C113.014 73.5091 112.509 73.3759 112.017 73.2011C111.841 73.1187 111.757 72.917 111.822 72.7345C111.886 72.5519 112.078 72.4479 112.267 72.4939C112.72 72.655 113.186 72.7768 113.66 72.8581C113.846 72.8975 113.973 73.0693 113.957 73.2588C113.941 73.4483 113.786 73.5961 113.596 73.6034V73.5992ZM110.784 72.5786C110.715 72.5777 110.648 72.5572 110.59 72.5193C110.127 72.2459 109.7 71.9159 109.319 71.5368C109.249 71.4668 109.209 71.3715 109.209 71.2721C109.209 71.1727 109.249 71.0774 109.319 71.0074C109.389 70.9368 109.484 70.8971 109.584 70.8971C109.683 70.8971 109.779 70.9368 109.849 71.0074C110.181 71.3415 110.552 71.6344 110.954 71.8798C111.131 71.9876 111.188 72.2186 111.081 72.3965C111.012 72.4928 110.903 72.5521 110.784 72.5574L110.784 72.5786ZM108.697 70.4611C108.564 70.4608 108.441 70.3898 108.375 70.2747C108.107 69.8181 107.892 69.3322 107.735 68.8264C107.679 68.6943 107.702 68.5416 107.796 68.4327C107.89 68.3238 108.037 68.2775 108.176 68.3135C108.315 68.3494 108.422 68.4613 108.451 68.602C108.593 69.0524 108.785 69.4856 109.023 69.8936C109.124 70.0743 109.064 70.3023 108.887 70.4103C108.827 70.436 108.762 70.4462 108.697 70.4399L108.697 70.4611ZM107.773 67.6237C107.585 67.6233 107.426 67.4841 107.401 67.2976C107.34 66.8116 107.311 66.3222 107.312 65.8324V65.7519C107.312 65.6172 107.383 65.4926 107.5 65.4251C107.617 65.3577 107.761 65.3577 107.877 65.4251C107.994 65.4926 108.066 65.6171 108.066 65.7519V65.8324C108.064 66.2896 108.091 66.7465 108.146 67.2003C108.162 67.2995 108.136 67.4007 108.075 67.4807C108.015 67.5606 107.924 67.6123 107.824 67.6237L107.773 67.6237ZM107.689 64.6213C107.589 64.6224 107.493 64.5837 107.422 64.5137C107.352 64.4436 107.312 64.3482 107.312 64.2486V62.7283C107.312 62.5936 107.383 62.469 107.5 62.4015C107.617 62.3341 107.761 62.3341 107.877 62.4015C107.994 62.469 108.066 62.5935 108.066 62.7283L108.066 64.2317C108.064 64.3305 108.024 64.4249 107.953 64.494C107.883 64.5631 107.787 64.6013 107.689 64.6001L107.689 64.6213ZM107.689 61.6144C107.589 61.6144 107.493 61.5747 107.422 61.504C107.351 61.4334 107.312 61.3375 107.312 61.2375V59.7341C107.312 59.5261 107.481 59.3577 107.689 59.3577C107.897 59.3577 108.065 59.5262 108.066 59.7341L108.066 61.2375C108.054 61.4374 107.889 61.5936 107.689 61.5933L107.689 61.6144Z" fill="#6731CF"/>
<path fill-rule="evenodd" clip-rule="evenodd" d="M150.08 127.395H148.572C148.364 127.394 148.196 127.226 148.196 127.018C148.196 126.81 148.364 126.641 148.572 126.641L150.08 126.641C150.288 126.641 150.456 126.81 150.456 127.018C150.456 127.226 150.288 127.394 150.08 127.395H150.08ZM147.069 127.395H145.565C145.357 127.394 145.189 127.226 145.189 127.018C145.189 126.81 145.357 126.641 145.565 126.641L147.069 126.641C147.204 126.641 147.328 126.713 147.396 126.829C147.463 126.946 147.463 127.09 147.395 127.206C147.328 127.323 147.204 127.395 147.069 127.395H147.069ZM144.062 127.395H142.559C142.351 127.394 142.182 127.226 142.182 127.018C142.182 126.81 142.351 126.641 142.559 126.641L144.053 126.641C144.261 126.641 144.43 126.81 144.43 127.018C144.43 127.226 144.262 127.394 144.054 127.395H144.062ZM141.055 127.395H139.552C139.344 127.394 139.175 127.226 139.175 127.018C139.175 126.81 139.344 126.641 139.552 126.641L141.055 126.641C141.19 126.641 141.315 126.713 141.382 126.829C141.449 126.946 141.449 127.09 141.382 127.206C141.315 127.323 141.19 127.395 141.055 127.395H141.055ZM138.049 127.395H136.545C136.337 127.394 136.169 127.226 136.169 127.018C136.169 126.81 136.337 126.641 136.545 126.641L138.049 126.641C138.183 126.641 138.308 126.713 138.375 126.829C138.443 126.946 138.443 127.09 138.375 127.206C138.308 127.323 138.183 127.395 138.048 127.395H138.049ZM135.042 127.395H133.538C133.404 127.395 133.279 127.323 133.212 127.206C133.144 127.09 133.144 126.946 133.212 126.829C133.279 126.713 133.404 126.641 133.538 126.641L135.042 126.641C135.25 126.641 135.418 126.81 135.418 127.018C135.418 127.226 135.25 127.394 135.042 127.395H135.042ZM151.583 127.395C151.391 127.374 151.246 127.213 151.246 127.02C151.246 126.827 151.391 126.665 151.583 126.645C152.069 126.62 152.552 126.566 153.031 126.484C153.232 126.454 153.42 126.589 153.455 126.789C153.481 126.989 153.347 127.174 153.15 127.213C152.639 127.3 152.122 127.356 151.604 127.382L151.583 127.395ZM154.548 126.857C154.368 126.851 154.218 126.719 154.189 126.543C154.159 126.366 154.258 126.193 154.425 126.128C154.869 125.973 155.295 125.77 155.695 125.523C155.869 125.412 156.101 125.463 156.212 125.637C156.323 125.811 156.272 126.043 156.098 126.154C155.649 126.436 155.168 126.665 154.666 126.836C154.624 126.849 154.579 126.853 154.535 126.848L154.548 126.857ZM157.025 125.222C156.88 125.224 156.747 125.141 156.684 125.01C156.621 124.88 156.64 124.724 156.733 124.612C157.015 124.258 157.226 123.852 157.355 123.418C157.426 123.234 157.627 123.136 157.815 123.193C158.004 123.249 158.117 123.441 158.075 123.634C157.918 124.161 157.661 124.653 157.317 125.082C157.242 125.172 157.129 125.221 157.012 125.214L157.025 125.222ZM157.918 122.423C157.819 122.423 157.723 122.383 157.652 122.312C157.581 122.242 157.542 122.146 157.542 122.046V120.534C157.542 120.326 157.71 120.157 157.918 120.157C158.127 120.157 158.295 120.326 158.295 120.534V122.037C158.295 122.14 158.254 122.237 158.181 122.309C158.107 122.38 158.008 122.418 157.906 122.414L157.918 122.423ZM157.918 119.412C157.819 119.413 157.723 119.374 157.652 119.304C157.581 119.234 157.542 119.139 157.542 119.039V117.527C157.542 117.319 157.71 117.15 157.918 117.15C158.127 117.15 158.295 117.319 158.295 117.527V119.052C158.284 119.256 158.11 119.413 157.906 119.403L157.918 119.412ZM157.918 116.405C157.819 116.406 157.723 116.368 157.652 116.298C157.581 116.228 157.542 116.132 157.542 116.033V114.521C157.542 114.313 157.71 114.144 157.918 114.144C158.127 114.144 158.295 114.313 158.295 114.521V116.024C158.295 116.126 158.254 116.223 158.18 116.294C158.107 116.364 158.007 116.401 157.906 116.397L157.918 116.405ZM157.918 113.398C157.819 113.399 157.723 113.361 157.652 113.291C157.581 113.221 157.542 113.125 157.542 113.026V111.514C157.542 111.306 157.71 111.137 157.918 111.137C158.127 111.137 158.295 111.306 158.295 111.514V113.017C158.295 113.119 158.254 113.216 158.18 113.287C158.107 113.357 158.007 113.394 157.906 113.39L157.918 113.398ZM157.918 110.392C157.819 110.392 157.723 110.352 157.652 110.281C157.581 110.21 157.542 110.115 157.542 110.015V108.511C157.542 108.303 157.71 108.134 157.918 108.134C158.127 108.134 158.295 108.303 158.295 108.511V110.015C158.293 110.115 158.251 110.211 158.178 110.28C158.104 110.349 158.006 110.387 157.906 110.383L157.918 110.392ZM157.918 107.385C157.819 107.385 157.723 107.345 157.652 107.274C157.581 107.204 157.542 107.108 157.542 107.008V105.5C157.542 105.292 157.71 105.123 157.918 105.123C158.127 105.123 158.295 105.292 158.295 105.5V107.004C158.294 107.105 158.252 107.202 158.179 107.272C158.106 107.342 158.007 107.38 157.906 107.376L157.918 107.385ZM157.918 104.378C157.819 104.378 157.723 104.338 157.652 104.268C157.581 104.197 157.542 104.101 157.542 104.001V102.498C157.542 102.29 157.71 102.121 157.918 102.121C158.127 102.121 158.295 102.29 158.295 102.498V104.001C158.293 104.102 158.251 104.197 158.178 104.267C158.104 104.336 158.006 104.373 157.906 104.37L157.918 104.378ZM157.918 101.371C157.819 101.371 157.723 101.332 157.652 101.261C157.581 101.19 157.542 101.094 157.542 100.994V99.8637C157.542 99.8383 157.542 99.7409 157.542 99.5673V99.4953C157.539 99.3957 157.577 99.2994 157.646 99.2278C157.715 99.1562 157.81 99.1152 157.91 99.1141V99.1141C158.117 99.1141 158.285 99.2803 158.287 99.4868V99.5715C158.287 99.7748 158.287 99.8933 158.287 99.8933V100.999C158.28 101.203 158.111 101.365 157.906 101.363L157.918 101.371ZM157.808 98.3645C157.622 98.3626 157.465 98.2266 157.436 98.0427C157.369 97.5622 157.27 97.0868 157.139 96.6198C157.082 96.421 157.197 96.2133 157.396 96.156C157.594 96.0987 157.802 96.2134 157.859 96.4122C158.003 96.9121 158.11 97.4216 158.181 97.9368C158.196 98.0351 158.17 98.1352 158.111 98.2147C158.051 98.2942 157.962 98.3466 157.863 98.3603L157.808 98.3645ZM156.961 95.4848C156.817 95.4848 156.686 95.4026 156.623 95.2731C156.419 94.8431 156.171 94.4357 155.881 94.0577C155.757 93.8911 155.789 93.6556 155.954 93.5283C156.119 93.4044 156.353 93.4365 156.479 93.6003C156.801 94.0179 157.076 94.4695 157.3 94.947C157.344 95.0362 157.35 95.1392 157.317 95.233C157.285 95.3268 157.216 95.4038 157.127 95.4467C157.073 95.4691 157.015 95.4792 156.957 95.4764L156.961 95.4848ZM155.132 93.1344C155.047 93.1355 154.965 93.107 154.899 93.054C154.528 92.7658 154.125 92.5227 153.696 92.3298C153.561 92.2838 153.464 92.1654 153.444 92.0239C153.425 91.8824 153.487 91.7422 153.605 91.6617C153.723 91.5812 153.876 91.5742 154.001 91.6438C154.488 91.8609 154.946 92.1368 155.365 92.4653C155.527 92.5952 155.554 92.8321 155.424 92.9947C155.351 93.0819 155.242 93.1304 155.128 93.126L155.132 93.1344ZM152.422 91.9104H152.345C151.875 91.8165 151.398 91.7627 150.918 91.7495C150.727 91.7291 150.581 91.5675 150.581 91.3747C150.581 91.182 150.727 91.0203 150.918 90.9999C151.44 91.0107 151.961 91.0688 152.472 91.1736C152.67 91.2017 152.81 91.3801 152.791 91.5785C152.772 91.7769 152.6 91.9251 152.4 91.9147L152.422 91.9104ZM149.428 91.7412H147.924C147.781 91.7565 147.641 91.6886 147.565 91.5663C147.488 91.444 147.488 91.2888 147.565 91.1665C147.641 91.0443 147.781 90.9764 147.924 90.9916H149.428C149.571 90.9764 149.711 91.0443 149.787 91.1665C149.863 91.2888 149.863 91.444 149.787 91.5663C149.711 91.6886 149.571 91.7565 149.428 91.7412V91.7412Z" fill="#6731CF"/>
<path fill-rule="evenodd" clip-rule="evenodd" d="M143.046 96.0906C142.805 96.0912 142.564 96.0728 142.326 96.0355C142.193 96.0159 142.081 95.9271 142.032 95.8026C141.983 95.6781 142.004 95.5368 142.087 95.432C142.17 95.3271 142.303 95.2747 142.436 95.2944C142.89 95.3645 143.353 95.3559 143.804 95.269C143.998 95.2488 144.175 95.3801 144.213 95.5716C144.25 95.7631 144.135 95.9515 143.948 96.0059C143.65 96.0619 143.348 96.0903 143.046 96.0906ZM140.962 95.5611C140.9 95.5622 140.838 95.5461 140.784 95.5145C140.306 95.2544 139.876 94.9134 139.514 94.5066C139.407 94.4097 139.365 94.2606 139.405 94.1224C139.446 93.9842 139.561 93.8809 139.703 93.8564C139.845 93.8318 139.988 93.8902 140.073 94.0069C140.381 94.3462 140.743 94.6324 141.144 94.8538C141.298 94.934 141.376 95.1098 141.333 95.2777C141.289 95.4457 141.136 95.5614 140.962 95.5568V95.5611ZM145.273 95.4807C145.141 95.4812 145.019 95.412 144.951 95.2986C144.9 95.2127 144.885 95.11 144.91 95.0131C144.935 94.9162 144.997 94.833 145.083 94.7819C145.477 94.547 145.828 94.2462 146.12 93.8926C146.202 93.7781 146.341 93.7189 146.48 93.739C146.62 93.7591 146.736 93.8552 146.783 93.9882C146.829 94.1212 146.797 94.2689 146.7 94.3711C146.352 94.7908 145.935 95.1488 145.468 95.4299C145.409 95.4634 145.341 95.4809 145.273 95.4807ZM139.006 93.3633C138.851 93.3639 138.711 93.2698 138.654 93.1261C138.451 92.6201 138.336 92.0829 138.315 91.538C138.312 91.4381 138.348 91.3408 138.417 91.2678C138.485 91.1947 138.58 91.1518 138.679 91.1484C138.779 91.1438 138.876 91.1793 138.95 91.247C139.023 91.3146 139.066 91.4088 139.069 91.5084C139.085 91.9677 139.181 92.4206 139.353 92.8466C139.428 93.0384 139.336 93.2554 139.145 93.3336C139.101 93.3536 139.054 93.3637 139.006 93.3633V93.3633ZM147.149 93.2066C147.106 93.2078 147.063 93.2007 147.022 93.1854C146.929 93.152 146.853 93.0827 146.811 92.9928C146.768 92.903 146.764 92.8001 146.798 92.7069C146.952 92.2731 147.031 91.8162 147.031 91.356C147.031 91.2586 147.031 91.1569 147.031 91.0553C147.016 90.8485 147.171 90.6688 147.378 90.653C147.478 90.6436 147.577 90.6753 147.653 90.7409C147.729 90.8064 147.775 90.9001 147.78 91.0002C147.78 91.1188 147.78 91.2374 147.78 91.356C147.781 91.9018 147.688 92.4433 147.505 92.9571C147.456 93.1129 147.312 93.2192 147.149 93.2193V93.2066ZM138.891 90.4157C138.853 90.4219 138.815 90.4219 138.777 90.4157C138.579 90.3511 138.471 90.139 138.535 89.9414C138.7 89.4218 138.954 88.9346 139.285 88.5016C139.416 88.3524 139.64 88.3302 139.798 88.4509C139.955 88.5716 139.992 88.7937 139.882 88.9589C139.604 89.3233 139.39 89.7331 139.251 90.1701C139.195 90.3201 139.051 90.4185 138.891 90.4157ZM147.018 89.9542C146.869 89.9548 146.734 89.8688 146.671 89.7339C146.483 89.3149 146.226 88.931 145.908 88.599C145.838 88.529 145.798 88.4337 145.798 88.3343C145.798 88.2349 145.838 88.1396 145.908 88.0696C146.057 87.9244 146.294 87.9244 146.442 88.0696C146.82 88.4623 147.127 88.9181 147.348 89.4163C147.39 89.5067 147.393 89.6098 147.358 89.7029C147.323 89.7959 147.253 89.8712 147.162 89.9118C147.118 89.9368 147.069 89.9513 147.018 89.9542ZM140.666 88.0739C140.5 88.0731 140.354 87.9642 140.307 87.8055C140.259 87.6469 140.32 87.4757 140.458 87.3836C140.917 87.0855 141.424 86.8705 141.957 86.7484C142.054 86.7244 142.156 86.7406 142.241 86.7932C142.325 86.8459 142.385 86.9305 142.406 87.0279C142.429 87.1245 142.412 87.2262 142.36 87.3105C142.307 87.3948 142.223 87.4546 142.127 87.4768C141.675 87.5791 141.244 87.7612 140.856 88.0146C140.798 88.0493 140.733 88.0696 140.666 88.0739V88.0739ZM144.968 87.8283C144.911 87.8283 144.855 87.8153 144.803 87.7902C144.391 87.5873 143.947 87.4556 143.49 87.4006C143.39 87.3901 143.297 87.339 143.235 87.2591C143.173 87.1792 143.146 87.0774 143.16 86.9771C143.172 86.8768 143.223 86.7854 143.303 86.7233C143.382 86.6612 143.483 86.6336 143.584 86.6468C144.127 86.7082 144.656 86.8645 145.146 87.1084C145.3 87.188 145.379 87.362 145.339 87.5302C145.299 87.6985 145.15 87.8179 144.977 87.8198L144.968 87.8283Z" fill="#6731CF"/>
<path fill-rule="evenodd" clip-rule="evenodd" d="M11.0318 104.387C2.17724 97.2253 -1.71672 85.5764 1.05134 74.5298C3.8194 63.4832 12.7463 55.047 23.9316 52.9071C35.1168 50.7673 46.5273 55.3129 53.1773 64.5577L52.7961 64.833C46.2649 55.6978 35.0191 51.1926 23.9873 53.2918C12.9554 55.391 4.15015 63.7116 1.43046 74.6071C-1.28924 85.5026 2.5728 96.9852 11.324 104.023L11.0318 104.387Z" fill="#F94F24"/>
<path fill-rule="evenodd" clip-rule="evenodd" d="M156.449 147.455C150.516 147.449 144.851 144.985 140.801 140.65L141.144 140.332C146.511 146.089 154.655 148.344 162.218 146.168C169.782 143.992 175.482 137.753 176.969 130.025C178.455 122.297 175.476 114.388 169.26 109.562L169.543 109.193C176.769 114.79 179.636 124.362 176.677 133.009C173.718 141.657 165.589 147.466 156.449 147.464L156.449 147.455Z" fill="#F94F24"/>
<path fill-rule="evenodd" clip-rule="evenodd" d="M136.43 147.896V104.513C136.43 102.564 134.86 100.978 132.911 100.959H49.3073C47.3585 100.978 45.7891 102.564 45.7892 104.513V147.896H136.43Z" fill="#B3B3B3"/>
<path fill-rule="evenodd" clip-rule="evenodd" d="M43.6571 149.797V153.943C43.6374 156.162 45.4185 157.977 47.6372 158L134.594 158C136.812 157.977 138.594 156.162 138.574 153.943V149.797H43.6571Z" fill="#B3B3B3"/>
<rect x="45.813" y="105.632" width="90.6109" height="44.5681" fill="#999999"/>
<path fill-rule="evenodd" clip-rule="evenodd" d="M86.5313 105.632H45.813V146.303C59.3838 132.748 72.9566 119.191 86.5313 105.632Z" fill="#A6A6A6"/>
<g style="mix-blend-mode:multiply">
<rect x="45.813" y="149.318" width="90.6109" height="0.882477" fill="#E5E5E5"/>
</g>
<g style="mix-blend-mode:multiply">
<rect x="45.813" y="105.632" width="90.6109" height="0.882476" fill="#E5E5E5"/>
</g>
<path fill-rule="evenodd" clip-rule="evenodd" d="M60.9099 153.89C60.9099 154.387 60.5069 154.79 60.0097 154.79L55.8224 154.79C55.3252 154.79 54.9221 154.387 54.9221 153.89V153.89C54.9221 153.392 55.3242 152.987 55.8224 152.984H59.9978C60.496 152.987 60.8981 153.392 60.8981 153.89H60.9099Z" fill="#808080"/>
<path fill-rule="evenodd" clip-rule="evenodd" d="M133.368 153.89C133.368 154.387 132.965 154.79 132.468 154.79L128.292 154.79C127.795 154.79 127.392 154.387 127.392 153.89L127.392 153.89C127.392 153.392 127.794 152.987 128.292 152.984H132.468C132.966 152.987 133.368 153.392 133.368 153.89H133.368Z" fill="#808080"/>
<path fill-rule="evenodd" clip-rule="evenodd" d="M67.2412 153.89C67.2412 154.387 66.8381 154.79 66.3409 154.79L66.3409 154.79C65.8437 154.79 65.4407 154.387 65.4407 153.89V153.89C65.4407 153.392 65.8428 152.987 66.3409 152.984H66.3409C66.8391 152.987 67.2412 153.392 67.2412 153.89Z" fill="#808080"/>
<path fill-rule="evenodd" clip-rule="evenodd" d="M72.6724 153.89C72.6724 154.387 72.2693 154.79 71.7721 154.79V154.79C71.5324 154.792 71.3019 154.698 71.1318 154.529C70.9616 154.36 70.866 154.13 70.866 153.89L70.866 153.89C70.866 153.39 71.2717 152.984 71.7722 152.984L71.7721 152.984C72.2703 152.987 72.6724 153.392 72.6724 153.89H72.6724Z" fill="#808080"/>
<path fill-rule="evenodd" clip-rule="evenodd" d="M96.1615 129.115C96.1615 131.713 94.0561 133.818 91.4589 133.818C88.8618 133.818 86.7563 131.713 86.7563 129.115C86.7563 126.518 88.8618 124.413 91.4589 124.413C94.0561 124.413 96.1615 126.518 96.1615 129.115Z" fill="#A6A6A6"/>
<path fill-rule="evenodd" clip-rule="evenodd" d="M112.075 30.0089C110.995 30.0094 109.918 30.1213 108.86 30.3429C104.465 23.9759 96.7661 20.7769 89.173 22.1628C81.58 23.5486 75.496 29.2632 73.6157 36.7755C73.1895 36.7318 72.7614 36.7095 72.333 36.7087C67.9145 36.6519 63.8072 38.9852 61.5814 42.8166C59.3557 46.6479 59.3557 51.3848 61.5814 55.2162C63.8072 59.0475 67.9146 61.3808 72.3331 61.324H112.075C120.622 61.2264 127.499 54.245 127.499 45.6664C127.499 37.0879 120.622 30.1064 112.075 30.0089V30.0089Z" fill="url(#paint0_linear)"/>
<path fill-rule="evenodd" clip-rule="evenodd" d="M72.1706 38.697C72.5995 38.6967 73.0282 38.7189 73.4549 38.7636C75.3339 31.2741 81.4159 25.5766 89.0068 24.1949C96.5978 22.8132 104.295 26.0027 108.688 32.3507C109.746 32.1298 110.823 32.0183 111.904 32.0177C120.124 32.0186 126.931 38.4056 127.463 46.6154C127.483 46.2784 127.499 45.9373 127.499 45.5943C127.499 36.9739 120.517 29.9857 111.904 29.9857C110.823 29.9862 109.746 30.0978 108.688 30.3186C104.295 23.9707 96.599 20.7806 89.0082 22.1614C81.4174 23.5422 75.335 29.2386 73.4549 36.7275C69.9985 36.3599 66.5488 37.4794 63.9655 39.807C61.3822 42.1346 59.9087 45.4511 59.9121 48.9299C59.9121 49.273 59.9303 49.612 59.9585 49.949C60.486 43.5904 65.7956 38.6982 72.1706 38.697V38.697Z" fill="#C4ECEC"/>
<path fill-rule="evenodd" clip-rule="evenodd" d="M94.0394 54.6319C93.5716 54.6319 93.2142 54.6319 92.8541 54.6319C92.1921 54.6218 91.5316 54.565 90.8779 54.4622C90.0112 54.3474 89.1534 54.1756 88.3103 53.9478C87.8425 53.8218 87.3774 53.6907 86.9175 53.5261C86.4576 53.3615 85.9766 53.1841 85.5167 52.9912C84.8889 52.7293 84.2749 52.4366 83.6771 52.1142C83.3092 51.9162 82.9465 51.7053 82.5865 51.4919C82.2265 51.2784 81.8323 50.9776 81.4591 50.7358C80.9177 50.3706 80.4237 49.9515 79.9165 49.5451C79.7513 49.4109 79.5934 49.2685 79.4434 49.1182C79.2726 48.9485 79.2805 48.7479 79.4434 48.645C79.5247 48.5991 79.6249 48.5991 79.7062 48.645C80.0715 48.8096 80.4053 49.0334 80.7574 49.2134C81.1096 49.3934 81.396 49.5451 81.7193 49.6994C81.9821 49.8254 82.2449 49.9437 82.5077 50.062C83.0175 50.2883 83.53 50.5069 84.0608 50.6895C84.3709 50.795 84.6863 50.9004 84.9937 51.0136C85.3112 51.1347 85.6349 51.2394 85.9635 51.3273C86.335 51.4586 86.7152 51.5651 87.1014 51.6462C87.4141 51.6848 87.7164 51.7696 88.0238 51.8288C88.2866 51.8828 88.5494 51.9419 88.8306 52.0036C89.6476 52.1665 90.4732 52.285 91.3036 52.3585C92.4121 52.484 93.528 52.5364 94.6438 52.5154C95.2351 52.5154 95.8316 52.5154 96.4203 52.4537C97.0826 52.3791 97.7343 52.3225 98.4018 52.2197C98.9616 52.1297 99.5187 52.0294 100.073 51.9239C100.41 51.8596 100.738 51.7593 101.074 51.6848C101.684 51.551 102.278 51.3633 102.875 51.1704C103.471 50.9776 104.118 50.7358 104.738 50.5147C104.953 50.4375 105.164 50.3475 105.369 50.2575C105.567 50.1724 105.797 50.2 105.968 50.3295C106.047 50.4114 106.089 50.5208 106.085 50.6334C106.081 50.7459 106.031 50.8523 105.947 50.9287C104.879 51.6676 105.484 51.2934 105.229 51.443C105.229 51.443 104.529 51.8828 104.178 52.0885C103.915 52.2351 103.653 52.3611 103.39 52.4923C102.954 52.7134 102.507 52.9089 102.057 53.094C101.732 53.2278 101.395 53.3358 101.067 53.4566C100.559 53.6418 100.039 53.7832 99.5187 53.9221C98.9984 54.061 98.5253 54.1613 98.0234 54.259C97.3743 54.3876 96.7094 54.4673 96.0629 54.5522C95.3903 54.613 94.7148 54.6396 94.0394 54.6319H94.0394Z" fill="#FB9A02"/>
<path fill-rule="evenodd" clip-rule="evenodd" d="M94.6912 39.2918C94.3149 40.5039 94.5836 39.3949 94.5764 39.4688C94.5764 39.4688 94.0632 41.539 93.8212 42.5741C93.5988 43.4983 93.3755 44.4234 93.1514 45.3494C93.1359 45.4174 93.1163 45.4844 93.0927 45.5501C93.0505 45.8001 92.8117 45.969 92.5589 45.9277C92.2761 45.9277 91.9932 45.9277 91.7076 45.9277C91.294 45.9277 91.1179 45.7957 91.0512 45.3996C90.5308 43.6145 90.9067 44.8276 90.8083 44.5493C90.8083 44.5493 90.2461 42.6806 89.9544 41.7476C89.8659 41.4001 89.7544 41.0587 89.6208 40.7257C89.5952 40.6572 89.5765 40.5865 89.5647 40.5145C89.5143 40.2527 89.4337 39.9975 89.3246 39.754C89.2475 39.5188 89.1824 39.28 89.1297 39.0383C88.9856 38.5974 88.8629 38.1485 88.7295 37.7022C88.7084 37.6352 88.695 37.5661 88.6894 37.4962C88.6791 37.4327 88.6979 37.3678 88.7407 37.3194C88.7835 37.2709 88.8459 37.2438 88.9109 37.2454C89.2899 37.2454 89.6688 37.2454 90.0478 37.2454C90.2273 37.2537 90.3812 37.3751 90.4294 37.5464C90.8448 39.0683 90.604 38.1214 90.6669 38.4152C90.6669 38.4152 91.0174 39.7214 91.1846 40.3745C91.4755 41.5099 91.761 42.6454 92.0492 43.7809C92.0492 43.831 92.0733 43.8786 92.0866 43.9261C92.0999 43.9736 92.108 43.9974 92.1506 44C92.1933 44.0027 92.2147 43.9604 92.2254 43.9208L92.4415 43.0151C92.5981 42.3567 92.7547 41.6983 92.9112 41.0399C93.0286 40.5435 93.1407 40.0471 93.2635 39.5506C93.4263 38.8957 93.5597 38.2303 93.7465 37.5834C93.7834 37.3816 93.9637 37.2368 94.1708 37.2427C94.5151 37.2427 94.862 37.2427 95.2063 37.2427C95.4191 37.2344 95.6052 37.3835 95.6413 37.5913C95.7854 38.0587 95.8788 38.5419 95.9962 39.0172C96.175 39.7566 96.3458 40.4986 96.5299 41.238L97.0423 43.4033C97.093 43.6172 97.1464 43.831 97.1998 44.0449C97.1998 44.0793 97.1998 44.1374 97.2531 44.14C97.439 43.5793 97.3065 44.0845 97.3145 44.0476C97.3145 44.0476 97.5627 43.1101 97.6854 42.6401L98.2619 40.4299C98.3739 39.9995 98.478 39.5665 98.6008 39.1387C98.7476 38.6238 98.8516 38.0983 99.0251 37.5913C99.0659 37.3664 99.2761 37.2116 99.5055 37.2374C99.8043 37.2374 100.103 37.2374 100.402 37.2374C100.701 37.2374 100.773 37.3536 100.712 37.6177C100.664 37.8289 100.597 38.0323 100.533 38.2382L99.8364 40.4273L98.9237 43.3082C98.6915 44.0423 98.4594 44.779 98.2218 45.5105C98.1151 45.8458 97.995 45.925 97.6454 45.9277C97.3626 45.9277 97.077 45.9277 96.7941 45.9277C96.658 45.9487 96.5191 45.9125 96.4112 45.8277C96.3032 45.7429 96.236 45.6174 96.2257 45.4814C96.1163 45.0457 96.0096 44.6074 95.9001 44.1611C95.7267 43.4481 95.5506 42.7325 95.3664 42.0169C95.1689 41.2248 94.9741 40.4141 94.7793 39.6114C94.7526 39.5163 94.7179 39.4054 94.6912 39.2918Z" fill="#24303F"/>
<path fill-rule="evenodd" clip-rule="evenodd" d="M87.5314 42.1456C87.5314 42.6121 87.5467 43.0786 87.5314 43.5424C87.5002 44.1741 87.6414 44.802 87.9383 45.3518C88.0765 45.6215 88.0356 45.7563 87.8027 45.9235C87.6158 46.0583 87.4239 46.1932 87.2319 46.3145C87.0766 46.4456 86.8507 46.4242 86.7201 46.266C86.4836 46.0224 86.2927 45.7343 86.157 45.4165C86.0828 45.2574 86.0444 45.2494 85.9318 45.3788C85.4054 46.0161 84.6783 46.4317 83.8843 46.5491C83.0755 46.6651 82.2769 46.63 81.5808 46.0826C81.038 45.6578 80.7053 44.9983 80.6748 44.2867C80.624 43.8166 80.6801 43.3406 80.8386 42.8979C81.0428 42.3726 81.4016 41.9302 81.8623 41.6359C82.0711 41.4951 82.2977 41.3861 82.5355 41.3123C83.0749 41.1455 83.6384 41.0825 84.1991 41.1262C84.7155 41.1665 85.2287 41.2449 85.7347 41.3608C85.9318 41.4067 85.9548 41.3905 85.9522 41.1748C85.9689 40.7766 85.9509 40.3776 85.8985 39.9829C85.8516 39.6916 85.7431 39.4151 85.5811 39.1739C85.4516 39.0098 85.2815 38.8866 85.0897 38.8179C84.5507 38.6128 83.9704 38.5589 83.4056 38.6615C82.9381 38.7361 82.4804 38.8673 82.0415 39.0526C81.8693 39.1332 81.689 39.193 81.504 39.2305C81.3248 39.2494 81.2481 39.1982 81.2481 39.0121C81.2366 38.7777 81.2366 38.5427 81.2481 38.3083C81.267 38.1455 81.3635 38.0041 81.504 37.9335C81.8185 37.7408 82.1583 37.5981 82.5124 37.5101C83.1531 37.3009 83.8233 37.2097 84.4934 37.2404C85.1025 37.238 85.7038 37.3858 86.2491 37.6719C86.7374 37.9476 87.1107 38.4053 87.2959 38.9555C87.4619 39.4477 87.5417 39.9676 87.5313 40.4899V42.1483L87.5314 42.1456ZM83.6616 45.2899C84.1043 45.3078 84.5442 45.2086 84.9413 45.0014C85.341 44.8166 85.6587 44.4781 85.8294 44.0548C85.9756 43.6381 86.029 43.1916 85.9855 42.7497C85.9676 42.5043 85.9548 42.5124 85.7142 42.4665C85.3661 42.3991 85.0181 42.3425 84.6649 42.3101C84.1472 42.2472 83.6227 42.3062 83.1292 42.4827C82.8563 42.581 82.6287 42.7842 82.4919 43.0517C82.2984 43.4326 82.2473 43.8762 82.3486 44.2948C82.3941 44.6323 82.5823 44.9298 82.8605 45.1038C83.106 45.2428 83.3834 45.3072 83.6616 45.2899H83.6616Z" fill="#24303F"/>
<path fill-rule="evenodd" clip-rule="evenodd" d="M103.809 46.6031C102.925 46.5888 102.053 46.4123 101.235 46.0828C100.897 45.9731 100.687 45.6402 100.74 45.2942C100.74 45.1574 100.74 45.026 100.74 44.8839C100.765 44.6854 100.863 44.6157 101.063 44.6613C101.189 44.6915 101.312 44.7328 101.43 44.7846C102.361 45.1872 103.388 45.331 104.397 45.2004C104.867 45.1768 105.302 44.9473 105.58 44.5754C105.906 44.1073 105.783 43.4687 105.306 43.1485C104.944 42.9381 104.555 42.7774 104.148 42.6711C103.456 42.4432 102.736 42.293 102.092 41.9309C101.025 41.3478 100.564 40.0803 101.014 38.9671C101.277 38.3479 101.78 37.8561 102.413 37.5993C103.163 37.2735 103.993 37.1628 104.805 37.2801C105.402 37.3536 105.986 37.5099 106.538 37.7441C106.777 37.8245 106.934 38.0491 106.924 38.2966C106.924 38.4736 106.924 38.6506 106.924 38.833C106.919 38.9206 106.872 39.0004 106.796 39.0469C106.72 39.0934 106.626 39.1007 106.543 39.0664C105.922 38.778 105.248 38.6165 104.561 38.5916C104.097 38.5549 103.631 38.6162 103.193 38.7713C102.907 38.8716 102.68 39.0892 102.571 39.3671C102.463 39.645 102.484 39.9555 102.629 40.217C102.743 40.4181 102.919 40.5786 103.133 40.6756C103.561 40.8832 104.008 41.0503 104.468 41.1745C105.092 41.3296 105.696 41.5527 106.27 41.8397C106.924 42.1931 107.353 42.8452 107.411 43.575C107.537 44.916 106.702 45.9111 105.541 46.3215C104.983 46.5061 104.398 46.6012 103.809 46.6031H103.809Z" fill="#24303F"/>
<path fill-rule="evenodd" clip-rule="evenodd" d="M106.903 48.6182C107.316 48.5989 107.731 48.6448 108.131 48.7545C108.273 48.7846 108.411 48.8321 108.542 48.896C108.676 48.9824 108.758 49.1341 108.756 49.2969C108.778 49.7583 108.737 50.2205 108.634 50.6701C108.506 51.2534 108.307 51.8178 108.041 52.3499C107.794 52.8753 107.447 53.3448 107.02 53.7309C106.967 53.7744 106.917 53.8208 106.869 53.8698C106.794 53.9697 106.656 53.9936 106.553 53.9248C106.445 53.8541 106.479 53.7204 106.52 53.6261C106.817 52.9319 107.067 52.2174 107.268 51.4877C107.381 51.1389 107.436 50.773 107.431 50.4054C107.459 50.1282 107.27 49.8773 107.002 49.8341C106.53 49.7225 106.045 49.6863 105.562 49.7267C105.118 49.7529 104.673 49.7948 104.231 49.8315C104.035 49.8472 103.838 49.876 103.639 49.8944C103.55 49.8944 103.455 49.8944 103.419 49.7922C103.384 49.69 103.442 49.6192 103.516 49.5511C103.85 49.2736 104.233 49.0669 104.645 48.9431C104.978 48.8275 105.32 48.7399 105.667 48.6811C106.076 48.6187 106.49 48.5977 106.903 48.6182Z" fill="#FB9A02"/>
<defs>
<linearGradient id="paint0_linear" x1="165.387" y1="88.4954" x2="160.813" y2="13.8937" gradientUnits="userSpaceOnUse">
<stop stop-color="#8033EB"/>
<stop offset="1" stop-color="#A2E1E0"/>
</linearGradient>
</defs>
</svg>
