<svg width="182" height="168" viewBox="0 0 182 168" fill="none" xmlns="http://www.w3.org/2000/svg">
<g clip-path="url(#clip0)">
<path fill-rule="evenodd" clip-rule="evenodd" d="M50.4872 37.4749C50.4872 41.7925 46.9871 45.2926 42.6695 45.2926C38.3519 45.2926 34.8518 41.7925 34.8518 37.4749C34.8518 33.1573 38.3519 29.6572 42.6695 29.6572C46.9871 29.6572 50.4872 33.1573 50.4872 37.4749Z" fill="#F2F2F2"/>
<path fill-rule="evenodd" clip-rule="evenodd" d="M150.296 29.6571C150.298 32.8197 148.393 35.6731 145.471 36.8852C142.549 38.0973 139.184 37.4295 136.946 35.1932C134.708 32.9569 134.038 29.5926 135.248 26.6694C136.458 23.7462 139.31 21.8398 142.473 21.8394C146.792 21.8388 150.294 25.3385 150.296 29.6571Z" fill="#F2F2F2"/>
<path fill-rule="evenodd" clip-rule="evenodd" d="M63.8211 152.259C63.8211 156.576 60.321 160.076 56.0034 160.076C51.6858 160.076 48.1857 156.576 48.1857 152.259C48.1857 147.941 51.6858 144.441 56.0034 144.441C60.321 144.441 63.8211 147.941 63.8211 152.259Z" fill="#F2F2F2"/>
<path fill-rule="evenodd" clip-rule="evenodd" d="M127.607 29.6574C127.607 32.8453 125.023 35.4296 121.835 35.4296H107.232C104.044 35.4296 101.459 32.8453 101.459 29.6574C101.459 26.4696 104.044 23.8853 107.232 23.8853H121.832C125.019 23.8852 127.604 26.4695 127.604 29.6574H127.607Z" fill="#F2F2F2"/>
<path fill-rule="evenodd" clip-rule="evenodd" d="M113.437 154.304C113.437 157.492 110.852 160.077 107.664 160.077H83.4609C80.273 160.077 77.6887 157.492 77.6887 154.304C77.6887 151.117 80.273 148.532 83.4609 148.532H107.664C110.852 148.532 113.437 151.117 113.437 154.304H113.437Z" fill="#F2F2F2"/>
<path fill-rule="evenodd" clip-rule="evenodd" d="M82.4509 57.5439C65.0251 57.5439 50.8987 71.6704 50.8987 89.0962C50.8987 106.522 65.0251 120.648 82.4509 120.648C99.8767 120.648 114.003 106.522 114.003 89.0962C113.985 71.6775 99.8691 57.5617 82.4507 57.5439H82.4509Z" fill="white" stroke="#FA5A28" stroke-linecap="round" stroke-linejoin="round" stroke-dasharray="3 3"/>
<path fill-rule="evenodd" clip-rule="evenodd" d="M67.4675 152.557C32.4152 144.284 10.7063 109.162 18.9794 74.1093C27.2525 39.0569 62.3747 17.3481 97.4271 25.6212C132.479 33.8943 154.188 69.0165 145.915 104.069C137.642 139.121 102.52 160.83 67.4675 152.557Z" stroke="#F94F24" stroke-linecap="round" stroke-dasharray="4 4"/>
<path fill-rule="evenodd" clip-rule="evenodd" d="M33.0006 89.4003C32.7282 62.0173 54.7056 39.5982 82.0885 39.3258C109.471 39.0534 131.891 61.0308 132.163 88.4137C132.435 115.797 110.458 138.216 83.075 138.488C55.6921 138.761 33.273 116.783 33.0006 89.4003Z" stroke="#EAEAEA" stroke-width="10"/>
<path fill-rule="evenodd" clip-rule="evenodd" d="M135 115.366L151.902 105.607L168.804 115.366V134.883L151.902 144.642L135 134.883V115.366Z" fill="white" stroke="#E5E5E5"/>
<path fill-rule="evenodd" clip-rule="evenodd" d="M138.972 117.659L151.902 110.193L164.832 117.659V132.59L151.902 140.056L138.972 132.59V117.659Z" fill="url(#paint0_linear)"/>
<g style="mix-blend-mode:multiply">
<path d="M160.626 124.128L161.124 124.083L161.124 124.082L160.626 124.128ZM160.192 123.727L160.203 123.227H160.192V123.727ZM158.594 123.683L158.603 123.183L158.575 123.183L158.546 123.185L158.594 123.683ZM158.255 123.432L158.745 123.332L158.74 123.309L158.733 123.286L158.255 123.432ZM157.946 122.754L158.37 122.489L158.363 122.478L157.946 122.754ZM157.044 121.506L157.441 121.201L157.422 121.177L157.401 121.155L157.044 121.506ZM156.99 121.21L157.448 121.411L157.452 121.402L157.455 121.392L156.99 121.21ZM157.295 120.369L156.823 120.204L156.823 120.204L157.295 120.369ZM157.603 119.409L158.087 119.535L158.093 119.513L158.097 119.491L157.603 119.409ZM157.02 118.792L157.263 118.355L157.255 118.351L157.248 118.347L157.02 118.792ZM155.375 117.944L155.598 117.496L155.594 117.494L155.375 117.944ZM154.846 118.103L154.43 117.826L154.428 117.828L154.846 118.103ZM153.903 119.542L153.484 119.268L153.468 119.294L153.454 119.321L153.903 119.542ZM153.679 119.64L153.82 119.16L153.798 119.154L153.777 119.15L153.679 119.64ZM150.932 119.725L150.988 120.222L151.024 120.218L151.059 120.208L150.932 119.725ZM150.725 119.657L150.358 119.996L150.371 120.011L150.385 120.024L150.725 119.657ZM149.49 118.273L149.869 117.947L149.865 117.942L149.49 118.273ZM148.89 118.212L149.176 118.622L149.177 118.621L148.89 118.212ZM147.129 119.437L146.847 119.024L146.845 119.025L147.129 119.437ZM146.96 120.061L146.517 120.293L146.52 120.298L146.96 120.061ZM147.76 121.536L147.321 121.776L147.335 121.801L147.352 121.824L147.76 121.536ZM147.733 121.794L147.393 121.427L147.364 121.454L147.339 121.486L147.733 121.794ZM147.089 122.757L146.654 122.51L146.645 122.526L146.637 122.543L147.089 122.757ZM146.576 123.999L146.105 123.832L146.096 123.857L146.09 123.882L146.576 123.999ZM146.366 124.189L146.299 123.693L146.288 123.695L146.277 123.697L146.366 124.189ZM144.626 124.528L144.722 125.018L144.724 125.018L144.626 124.528ZM144.229 125.043L143.73 125.075L143.73 125.077L144.229 125.043ZM144.382 127.184L144.881 127.151L144.881 127.151L144.382 127.184ZM144.816 127.611L144.794 128.111L144.795 128.111L144.816 127.611ZM146.492 127.679L146.479 128.179L146.506 128.179L146.532 128.177L146.492 127.679ZM146.726 127.855L146.235 127.954L146.243 127.992L146.257 128.029L146.726 127.855ZM148.198 130.135L148.621 129.869L148.59 129.82L148.549 129.779L148.198 130.135ZM148.232 130.369L148.71 130.516L148.713 130.504L148.232 130.369ZM147.675 132.116L148.127 132.33L148.141 132.299L148.152 132.268L147.675 132.116ZM147.672 132.438L148.128 132.231L148.128 132.231L147.672 132.438ZM147.916 132.648L148.123 132.193L148.09 132.178L148.054 132.167L147.916 132.648ZM149.951 133.564L149.752 134.022L149.767 134.029L149.783 134.035L149.951 133.564ZM150.263 133.52L150.555 133.926L150.577 133.91L150.598 133.892L150.263 133.52ZM150.715 132.994L150.303 132.71L150.296 132.72L150.715 132.994ZM151.393 131.912L150.998 131.605L150.988 131.618L150.979 131.632L151.393 131.912ZM151.59 131.81L151.662 131.315L151.615 131.309L151.567 131.311L151.59 131.81ZM154.103 131.658L154.012 131.166L153.991 131.17L153.971 131.175L154.103 131.658ZM154.324 131.715L154.693 131.378L154.67 131.353L154.644 131.331L154.324 131.715ZM155.501 133.042L155.122 133.368L155.122 133.369L155.501 133.042ZM156.213 133.157L155.929 132.745L155.925 132.748L156.213 133.157ZM157.983 131.909L157.761 131.461L157.724 131.479L157.691 131.503L157.983 131.909ZM158.173 131.671L157.687 131.554L157.687 131.554L158.173 131.671ZM158.112 131.373L157.669 131.603L157.687 131.638L157.71 131.67L158.112 131.373ZM157.291 129.819L156.844 130.042L156.847 130.049L157.291 129.819ZM157.291 129.622L156.903 129.308L156.868 129.35L156.844 129.399L157.291 129.622ZM158.462 127.35L158.943 127.484L158.95 127.462L158.954 127.439L158.462 127.35ZM158.686 127.15L158.719 127.649L158.749 127.647L158.779 127.641L158.686 127.15ZM160.405 126.811L160.315 126.319L160.305 126.321L160.405 126.811ZM149.129 127.149L148.667 127.341L148.667 127.341L149.129 127.149ZM149.923 123.148L149.569 122.795L149.569 122.795L149.923 123.148ZM153.923 122.351L154.114 121.889L153.923 122.351ZM156.189 125.742H155.689V125.743L156.189 125.742ZM155.116 128.337L155.47 128.69L155.47 128.69L155.116 128.337ZM161.311 126.245C161.253 125.523 161.188 124.802 161.124 124.083L160.128 124.172C160.192 124.892 160.256 125.608 160.314 126.325L161.311 126.245ZM161.124 124.082C161.107 123.901 161.06 123.642 160.85 123.45C160.642 123.259 160.382 123.231 160.203 123.227L160.18 124.227C160.206 124.228 160.224 124.229 160.236 124.231C160.248 124.232 160.252 124.233 160.25 124.233C160.248 124.232 160.238 124.229 160.223 124.222C160.208 124.214 160.191 124.202 160.173 124.186C160.156 124.17 160.143 124.154 160.133 124.138C160.124 124.124 160.12 124.113 160.119 124.11C160.117 124.106 160.119 124.109 160.121 124.12C160.123 124.131 160.126 124.148 160.128 124.173L161.124 124.082ZM160.192 123.227C159.655 123.227 159.176 123.194 158.603 123.183L158.584 124.183C159.077 124.193 159.663 124.227 160.192 124.227V123.227ZM158.546 123.185C158.64 123.176 158.726 123.24 158.745 123.332L157.765 123.532C157.848 123.941 158.226 124.221 158.642 124.181L158.546 123.185ZM158.733 123.286C158.648 123.006 158.526 122.738 158.37 122.489L157.522 123.019C157.631 123.193 157.717 123.381 157.776 123.578L158.733 123.286ZM158.363 122.478C158.069 122.033 157.755 121.612 157.441 121.201L156.647 121.81C156.957 122.214 157.254 122.613 157.529 123.03L158.363 122.478ZM157.401 121.155C157.467 121.223 157.486 121.324 157.448 121.411L156.531 121.01C156.406 121.297 156.467 121.632 156.687 121.856L157.401 121.155ZM157.455 121.392C157.568 121.104 157.669 120.814 157.767 120.534L156.823 120.204C156.724 120.487 156.629 120.76 156.524 121.029L157.455 121.392ZM157.767 120.534C157.863 120.26 157.993 119.899 158.087 119.535L157.12 119.284C157.038 119.598 156.924 119.915 156.823 120.204L157.767 120.534ZM158.097 119.491C158.124 119.327 158.108 119.162 158.039 119.006C157.973 118.858 157.872 118.75 157.781 118.674C157.623 118.54 157.391 118.426 157.263 118.355L156.778 119.229C156.823 119.255 156.868 119.279 156.907 119.3C156.948 119.322 156.983 119.341 157.015 119.359C157.082 119.398 157.118 119.422 157.137 119.439C157.156 119.454 157.14 119.446 157.125 119.412C157.107 119.372 157.109 119.337 157.11 119.328L158.097 119.491ZM157.248 118.347C156.712 118.073 156.152 117.772 155.598 117.496L155.152 118.392C155.704 118.666 156.229 118.948 156.792 119.237L157.248 118.347ZM155.594 117.494C155.422 117.411 155.183 117.335 154.922 117.419C154.674 117.499 154.523 117.687 154.43 117.826L155.262 118.381C155.287 118.344 155.298 118.333 155.297 118.334C155.293 118.338 155.27 118.358 155.228 118.371C155.184 118.385 155.147 118.384 155.129 118.381C155.116 118.379 155.123 118.377 155.156 118.394L155.594 117.494ZM154.428 117.828C154.114 118.306 153.799 118.786 153.484 119.268L154.322 119.815C154.636 119.334 154.949 118.855 155.263 118.379L154.428 117.828ZM153.454 119.321C153.521 119.186 153.675 119.118 153.82 119.16L153.538 120.12C153.86 120.214 154.203 120.063 154.351 119.762L153.454 119.321ZM153.777 119.15C152.792 118.954 151.775 118.985 150.804 119.241L151.059 120.208C151.883 119.991 152.746 119.964 153.582 120.13L153.777 119.15ZM150.875 119.228C150.944 119.22 151.013 119.243 151.064 119.29L150.385 120.024C150.548 120.174 150.768 120.247 150.988 120.222L150.875 119.228ZM151.092 119.317C150.677 118.87 150.27 118.413 149.869 117.947L149.111 118.599C149.52 119.074 149.935 119.54 150.358 119.996L151.092 119.317ZM149.865 117.942C149.747 117.808 149.552 117.619 149.262 117.59C148.978 117.561 148.749 117.7 148.603 117.803L149.177 118.621C149.2 118.605 149.218 118.594 149.231 118.586C149.244 118.579 149.25 118.576 149.249 118.577C149.249 118.577 149.24 118.58 149.224 118.583C149.207 118.586 149.186 118.587 149.161 118.585C149.136 118.582 149.114 118.576 149.097 118.569C149.079 118.563 149.069 118.556 149.066 118.554C149.063 118.552 149.066 118.554 149.076 118.562C149.085 118.571 149.098 118.584 149.115 118.604L149.865 117.942ZM148.603 117.802C148.015 118.214 147.434 118.622 146.847 119.024L147.411 119.849C148.004 119.444 148.591 119.031 149.176 118.622L148.603 117.802ZM146.845 119.025C146.688 119.134 146.486 119.303 146.409 119.572C146.328 119.854 146.42 120.108 146.517 120.293L147.403 119.829C147.391 119.806 147.384 119.791 147.38 119.78C147.376 119.769 147.375 119.766 147.376 119.769C147.376 119.772 147.378 119.781 147.378 119.797C147.378 119.812 147.375 119.83 147.37 119.848C147.365 119.867 147.358 119.881 147.352 119.891C147.346 119.901 147.342 119.905 147.343 119.904C147.345 119.902 147.35 119.897 147.362 119.886C147.374 119.876 147.391 119.864 147.414 119.848L146.845 119.025ZM146.52 120.298C146.785 120.789 147.052 121.282 147.321 121.776L148.199 121.297C147.93 120.804 147.664 120.313 147.4 119.823L146.52 120.298ZM147.352 121.824C147.264 121.7 147.282 121.53 147.393 121.427L148.073 122.161C148.329 121.924 148.37 121.533 148.169 121.248L147.352 121.824ZM147.339 121.486C147.086 121.81 146.857 122.153 146.654 122.51L147.523 123.004C147.702 122.689 147.904 122.387 148.127 122.101L147.339 121.486ZM146.637 122.543C146.437 122.963 146.26 123.393 146.105 123.832L147.048 124.165C147.191 123.759 147.355 123.361 147.54 122.972L146.637 122.543ZM146.09 123.882C146.114 123.782 146.197 123.707 146.299 123.693L146.433 124.684C146.74 124.642 146.99 124.417 147.062 124.116L146.09 123.882ZM146.277 123.697C145.691 123.803 145.105 123.923 144.528 124.037L144.724 125.018C145.307 124.902 145.881 124.785 146.455 124.681L146.277 123.697ZM144.53 124.037C144.433 124.056 144.323 124.081 144.221 124.122C144.114 124.165 143.987 124.237 143.887 124.366C143.787 124.496 143.749 124.636 143.734 124.752C143.72 124.861 143.724 124.975 143.73 125.075L144.728 125.012C144.726 124.971 144.724 124.941 144.724 124.917C144.724 124.906 144.725 124.897 144.725 124.89C144.725 124.884 144.726 124.88 144.726 124.879C144.726 124.876 144.725 124.887 144.718 124.906C144.715 124.916 144.71 124.927 144.703 124.94C144.696 124.953 144.688 124.966 144.678 124.979C144.668 124.991 144.657 125.003 144.647 125.013C144.636 125.022 144.626 125.03 144.618 125.036C144.601 125.047 144.591 125.051 144.594 125.05C144.595 125.049 144.598 125.048 144.605 125.046C144.611 125.044 144.619 125.042 144.63 125.039C144.653 125.033 144.683 125.026 144.722 125.018L144.53 124.037ZM143.73 125.077C143.754 125.435 143.781 125.793 143.807 126.149C143.833 126.506 143.859 126.861 143.883 127.217L144.881 127.151C144.857 126.791 144.83 126.432 144.804 126.075C144.778 125.719 144.752 125.364 144.728 125.01L143.73 125.077ZM143.883 127.217C143.895 127.399 143.935 127.662 144.137 127.863C144.341 128.066 144.606 128.102 144.794 128.111L144.838 127.112C144.812 127.11 144.793 127.109 144.781 127.107C144.768 127.105 144.765 127.103 144.767 127.104C144.769 127.105 144.779 127.108 144.794 127.117C144.809 127.125 144.826 127.137 144.842 127.153C144.858 127.17 144.87 127.186 144.878 127.2C144.886 127.214 144.89 127.223 144.89 127.225C144.891 127.226 144.889 127.222 144.887 127.209C144.885 127.196 144.882 127.177 144.881 127.151L143.883 127.217ZM144.795 128.111C145.346 128.134 145.917 128.165 146.479 128.179L146.504 127.179C145.953 127.166 145.405 127.136 144.837 127.111L144.795 128.111ZM146.532 128.177C146.391 128.189 146.263 128.093 146.235 127.954L147.216 127.757C147.144 127.399 146.815 127.151 146.451 127.181L146.532 128.177ZM146.257 128.029C146.601 128.956 147.144 129.795 147.846 130.49L148.549 129.779C147.95 129.187 147.488 128.471 147.194 127.681L146.257 128.029ZM147.774 130.401C147.743 130.351 147.734 130.29 147.75 130.234L148.713 130.504C148.773 130.288 148.74 130.058 148.621 129.869L147.774 130.401ZM147.754 130.221C147.575 130.802 147.387 131.375 147.199 131.963L148.152 132.268C148.337 131.689 148.529 131.103 148.709 130.516L147.754 130.221ZM147.223 131.901C147.112 132.136 147.11 132.407 147.217 132.644L148.128 132.231C148.142 132.263 148.142 132.299 148.127 132.33L147.223 131.901ZM147.217 132.644C147.324 132.88 147.529 133.057 147.778 133.129L148.054 132.167C148.087 132.177 148.114 132.2 148.128 132.231L147.217 132.644ZM147.709 133.103C148.385 133.411 149.069 133.725 149.752 134.022L150.151 133.105C149.477 132.812 148.804 132.503 148.123 132.193L147.709 133.103ZM149.783 134.035C150.043 134.127 150.332 134.087 150.555 133.926L149.971 133.114C150.014 133.083 150.07 133.075 150.119 133.093L149.783 134.035ZM150.598 133.892C150.802 133.708 150.982 133.498 151.133 133.268L150.296 132.72C150.193 132.878 150.07 133.022 149.929 133.148L150.598 133.892ZM151.126 133.278C151.253 133.093 151.371 132.899 151.48 132.717C151.592 132.53 151.696 132.357 151.807 132.192L150.979 131.632C150.849 131.823 150.731 132.021 150.622 132.202C150.511 132.387 150.41 132.556 150.303 132.71L151.126 133.278ZM151.787 132.219C151.745 132.274 151.681 132.307 151.612 132.31L151.567 131.311C151.344 131.321 151.136 131.428 150.998 131.605L151.787 132.219ZM151.517 132.305C152.425 132.438 153.35 132.381 154.235 132.14L153.971 131.175C153.219 131.38 152.433 131.428 151.662 131.315L151.517 132.305ZM154.194 132.149C154.126 132.162 154.056 132.144 154.003 132.099L154.644 131.331C154.468 131.185 154.237 131.124 154.012 131.166L154.194 132.149ZM153.954 132.053C154.348 132.483 154.738 132.924 155.122 133.368L155.879 132.715C155.49 132.264 155.093 131.816 154.693 131.378L153.954 132.053ZM155.122 133.369C155.246 133.511 155.447 133.734 155.746 133.788C156.068 133.847 156.332 133.684 156.5 133.566L155.925 132.748C155.894 132.769 155.871 132.784 155.853 132.795C155.844 132.799 155.838 132.803 155.833 132.805C155.831 132.806 155.829 132.807 155.828 132.808C155.827 132.808 155.826 132.808 155.826 132.808C155.826 132.808 155.827 132.808 155.828 132.808C155.829 132.807 155.831 132.807 155.834 132.806C155.839 132.805 155.846 132.803 155.855 132.802C155.875 132.8 155.899 132.8 155.924 132.804C155.976 132.814 155.999 132.835 155.986 132.825C155.979 132.82 155.967 132.809 155.948 132.79C155.929 132.771 155.906 132.747 155.879 132.714L155.122 133.369ZM156.496 133.569C157.094 133.157 157.687 132.739 158.276 132.314L157.691 131.503C157.108 131.924 156.521 132.338 155.929 132.745L156.496 133.569ZM158.206 132.356C158.434 132.243 158.6 132.035 158.659 131.788L157.687 131.554C157.696 131.513 157.724 131.479 157.761 131.461L158.206 132.356ZM158.659 131.788C158.719 131.54 158.665 131.28 158.514 131.075L157.71 131.67C157.686 131.637 157.677 131.594 157.687 131.554L158.659 131.788ZM158.556 131.142C158.419 130.878 158.279 130.617 158.142 130.359C158.004 130.101 157.868 129.846 157.736 129.59L156.847 130.049C156.983 130.311 157.122 130.572 157.259 130.83C157.398 131.089 157.534 131.345 157.669 131.603L158.556 131.142ZM157.739 129.596C157.778 129.675 157.778 129.767 157.739 129.846L156.844 129.399C156.743 129.602 156.743 129.84 156.844 130.042L157.739 129.596ZM157.68 129.937C158.265 129.214 158.695 128.379 158.943 127.484L157.98 127.216C157.768 127.98 157.401 128.692 156.903 129.308L157.68 129.937ZM158.954 127.439C158.933 127.554 158.836 127.641 158.719 127.649L158.652 126.651C158.312 126.674 158.03 126.925 157.97 127.261L158.954 127.439ZM158.779 127.641C159.353 127.532 159.929 127.418 160.506 127.3L160.305 126.321C159.733 126.438 159.162 126.55 158.592 126.659L158.779 127.641ZM160.495 127.302C160.657 127.273 160.96 127.218 161.152 126.972C161.344 126.726 161.323 126.418 161.311 126.249L160.314 126.32C160.316 126.361 160.318 126.392 160.318 126.415C160.318 126.427 160.317 126.435 160.317 126.442C160.317 126.449 160.316 126.452 160.316 126.453C160.316 126.456 160.317 126.446 160.324 126.427C160.327 126.418 160.332 126.407 160.339 126.394C160.346 126.382 160.354 126.369 160.363 126.357C160.373 126.345 160.383 126.334 160.394 126.324C160.404 126.314 160.414 126.307 160.422 126.301C160.438 126.291 160.448 126.287 160.445 126.288C160.443 126.289 160.44 126.29 160.434 126.292C160.427 126.294 160.419 126.296 160.408 126.299C160.385 126.305 160.355 126.311 160.315 126.319L160.495 127.302ZM152.522 128.912C151.239 128.913 150.083 128.142 149.591 126.957L148.667 127.341C149.314 128.899 150.836 129.914 152.523 129.912L152.522 128.912ZM149.591 126.957C149.099 125.773 149.37 124.409 150.276 123.502L149.569 122.795C148.377 123.988 148.021 125.783 148.667 127.341L149.591 126.957ZM150.276 123.502C151.183 122.594 152.547 122.323 153.731 122.813L154.114 121.889C152.555 121.244 150.761 121.601 149.569 122.795L150.276 123.502ZM153.731 122.813C154.916 123.304 155.689 124.46 155.689 125.742H156.689C156.689 124.055 155.673 122.534 154.114 121.889L153.731 122.813ZM155.689 125.743C155.69 126.583 155.357 127.389 154.763 127.984L155.47 128.69C156.252 127.908 156.69 126.847 156.689 125.742L155.689 125.743ZM154.763 127.984C154.169 128.578 153.363 128.912 152.522 128.912V129.912C153.628 129.912 154.688 129.473 155.47 128.69L154.763 127.984Z" fill="#CCCCCC"/>
</g>
<path d="M160.008 123.507L160.507 123.464L160.506 123.462L160.008 123.507ZM159.571 123.107L159.588 122.607L159.579 122.607H159.571V123.107ZM157.977 123.062L157.986 122.563L157.959 122.562L157.933 122.564L157.977 123.062ZM157.637 122.815L158.125 122.705L158.122 122.689L158.117 122.673L157.637 122.815ZM157.329 122.136L157.751 121.868L157.746 121.861L157.329 122.136ZM156.43 120.888L156.83 120.588L156.809 120.56L156.784 120.535L156.43 120.888ZM156.372 120.597L156.834 120.788L156.836 120.783L156.372 120.597ZM156.681 119.752L156.209 119.587L156.209 119.587L156.681 119.752ZM157 118.795L157.475 118.952L157.488 118.913L157.494 118.871L157 118.795ZM156.416 118.178L156.659 117.741L156.647 117.734L156.416 118.178ZM154.771 117.33L154.992 116.881L154.99 116.88L154.771 117.33ZM154.239 117.49L153.824 117.211L153.822 117.214L154.239 117.49ZM153.296 118.924L152.877 118.651L152.857 118.682L152.842 118.715L153.296 118.924ZM153.075 119.023L153.223 118.545L153.198 118.537L153.172 118.532L153.075 119.023ZM150.328 119.111L150.384 119.608L150.42 119.604L150.456 119.594L150.328 119.111ZM150.118 119.04L149.749 119.378L149.76 119.389L149.771 119.4L150.118 119.04ZM148.883 117.659L148.505 117.987L148.509 117.991L148.883 117.659ZM148.283 117.595L147.999 117.183L147.995 117.186L148.283 117.595ZM146.522 118.823L146.24 118.41L146.239 118.411L146.522 118.823ZM146.356 119.443L145.914 119.677L145.915 119.679L146.356 119.443ZM147.156 120.919L146.719 121.162L146.727 121.176L146.736 121.189L147.156 120.919ZM147.129 121.177L146.774 120.824L146.753 120.846L146.735 120.869L147.129 121.177ZM146.485 122.143L146.049 121.897L146.042 121.911L146.035 121.925L146.485 122.143ZM145.973 123.381L145.5 123.218L145.492 123.241L145.487 123.264L145.973 123.381ZM145.762 123.571L145.695 123.076L145.683 123.077L145.671 123.08L145.762 123.571ZM144.019 123.91L144.116 124.401L144.116 124.401L144.019 123.91ZM143.625 124.429L144.124 124.396L144.124 124.393L143.625 124.429ZM143.778 126.566L144.277 126.533L144.277 126.533L143.778 126.566ZM144.209 126.997L144.187 127.497L144.191 127.497L144.209 126.997ZM145.888 127.062L145.876 127.561L145.901 127.562L145.926 127.56L145.888 127.062ZM146.118 127.241L145.626 127.326L145.634 127.372L145.65 127.416L146.118 127.241ZM147.591 129.521L148.002 129.237L147.976 129.198L147.942 129.165L147.591 129.521ZM147.628 129.755L148.106 129.902L148.107 129.897L147.628 129.755ZM147.072 131.498L147.522 131.716L147.537 131.685L147.548 131.651L147.072 131.498ZM147.067 131.822L146.611 132.027L146.611 132.027L147.067 131.822ZM147.312 132.034L147.519 131.579L147.485 131.563L147.448 131.553L147.312 132.034ZM149.348 132.95L149.148 133.408L149.162 133.414L149.176 133.42L149.348 132.95ZM149.663 132.906L149.957 133.311L149.98 133.294L150.001 133.275L149.663 132.906ZM150.114 132.38L149.701 132.099L149.698 132.102L150.114 132.38ZM150.793 131.298L151.205 131.581L151.205 131.581L150.793 131.298ZM150.986 131.196L151.057 130.701L151.022 130.696L150.986 130.696L150.986 131.196ZM153.499 131.044L153.396 130.554L153.382 130.557L153.369 130.561L153.499 131.044ZM153.72 131.098L154.089 130.76L154.065 130.735L154.038 130.713L153.72 131.098ZM154.9 132.428L155.279 132.101L155.277 132.099L154.9 132.428ZM155.609 132.543L155.326 132.13L155.32 132.135L155.609 132.543ZM157.383 131.295L157.153 130.851L157.12 130.868L157.09 130.889L157.383 131.295ZM157.571 131.054L158.057 131.171L158.057 131.171L157.571 131.054ZM157.512 130.755L157.069 130.987L157.085 131.019L157.106 131.047L157.512 130.755ZM156.688 129.205L156.234 129.415L156.238 129.424L156.242 129.432L156.688 129.205ZM156.688 129.009L156.3 128.693L156.26 128.741L156.234 128.798L156.688 129.009ZM157.858 126.733L158.34 126.864L158.344 126.852L158.347 126.839L157.858 126.733ZM158.082 126.536L158.124 127.034L158.151 127.032L158.177 127.027L158.082 126.536ZM159.805 126.197L159.904 126.687L159.904 126.687L159.805 126.197ZM160.69 125.63C160.636 124.905 160.567 124.177 160.507 123.464L159.51 123.549C159.572 124.275 159.639 124.985 159.693 125.705L160.69 125.63ZM160.506 123.462C160.49 123.28 160.442 123.02 160.23 122.828C160.023 122.641 159.764 122.613 159.588 122.607L159.554 123.606C159.581 123.607 159.6 123.609 159.614 123.61C159.627 123.612 159.632 123.614 159.631 123.613C159.628 123.612 159.595 123.602 159.558 123.569C159.541 123.553 159.527 123.536 159.517 123.521C159.508 123.506 159.503 123.495 159.502 123.491C159.5 123.487 159.501 123.489 159.504 123.5C159.506 123.511 159.508 123.528 159.51 123.552L160.506 123.462ZM159.571 122.607C159.037 122.607 158.559 122.573 157.986 122.563L157.967 123.562C158.459 123.572 159.046 123.607 159.571 123.607V122.607ZM157.933 122.564C158.023 122.556 158.105 122.617 158.125 122.705L157.15 122.925C157.24 123.325 157.612 123.597 158.021 123.561L157.933 122.564ZM158.117 122.673C158.033 122.389 157.91 122.118 157.751 121.868L156.907 122.405C157.016 122.576 157.1 122.762 157.158 122.957L158.117 122.673ZM157.746 121.861C157.455 121.419 157.137 120.996 156.83 120.588L156.03 121.189C156.341 121.601 156.64 121.999 156.911 122.412L157.746 121.861ZM156.784 120.535C156.85 120.602 156.87 120.701 156.834 120.788L155.91 120.405C155.792 120.692 155.857 121.021 156.076 121.241L156.784 120.535ZM156.836 120.783C156.953 120.492 157.056 120.195 157.153 119.917L156.209 119.587C156.109 119.872 156.015 120.145 155.908 120.41L156.836 120.783ZM157.153 119.917C157.253 119.63 157.371 119.266 157.475 118.952L156.525 118.639C156.418 118.962 156.305 119.311 156.209 119.587L157.153 119.917ZM157.494 118.871C157.519 118.709 157.502 118.545 157.433 118.391C157.367 118.244 157.268 118.137 157.177 118.06C157.019 117.927 156.789 117.813 156.659 117.741L156.174 118.615C156.277 118.673 156.336 118.703 156.41 118.745C156.476 118.783 156.512 118.808 156.532 118.824C156.55 118.839 156.535 118.832 156.52 118.799C156.503 118.761 156.504 118.728 156.506 118.719L157.494 118.871ZM156.647 117.734C156.106 117.454 155.551 117.156 154.992 116.881L154.551 117.779C155.097 118.047 155.628 118.332 156.186 118.622L156.647 117.734ZM154.99 116.88C154.821 116.798 154.583 116.721 154.321 116.803C154.071 116.882 153.918 117.07 153.824 117.211L154.654 117.768C154.679 117.73 154.691 117.719 154.69 117.72C154.686 117.724 154.663 117.744 154.621 117.757C154.577 117.771 154.54 117.769 154.523 117.766C154.511 117.764 154.518 117.763 154.553 117.78L154.99 116.88ZM153.822 117.214C153.507 117.689 153.192 118.169 152.877 118.651L153.715 119.198C154.028 118.717 154.342 118.239 154.656 117.766L153.822 117.214ZM152.842 118.715C152.908 118.571 153.071 118.498 153.223 118.545L152.928 119.5C153.255 119.602 153.607 119.445 153.75 119.133L152.842 118.715ZM153.172 118.532C152.187 118.338 151.17 118.37 150.2 118.628L150.456 119.594C151.28 119.376 152.142 119.348 152.978 119.513L153.172 118.532ZM150.272 118.614C150.342 118.606 150.413 118.63 150.464 118.679L149.771 119.4C149.934 119.557 150.159 119.633 150.384 119.608L150.272 118.614ZM150.486 118.702C150.072 118.251 149.67 117.792 149.256 117.327L148.509 117.991C148.916 118.449 149.329 118.919 149.749 119.378L150.486 118.702ZM149.261 117.331C149.141 117.194 148.948 117.006 148.658 116.976C148.377 116.946 148.147 117.081 147.999 117.183L148.566 118.007C148.589 117.991 148.607 117.98 148.62 117.972C148.633 117.965 148.639 117.963 148.638 117.963C148.638 117.963 148.629 117.966 148.614 117.969C148.598 117.971 148.577 117.973 148.553 117.97C148.529 117.968 148.508 117.962 148.49 117.955C148.473 117.948 148.463 117.942 148.459 117.939C148.456 117.937 148.459 117.939 148.468 117.947C148.476 117.955 148.488 117.968 148.505 117.987L149.261 117.331ZM147.995 117.186C147.41 117.597 146.827 118.008 146.24 118.41L146.804 119.235C147.398 118.829 147.988 118.413 148.57 118.004L147.995 117.186ZM146.239 118.411C146.08 118.52 145.88 118.689 145.804 118.959C145.725 119.239 145.816 119.492 145.914 119.677L146.798 119.209C146.786 119.188 146.78 119.172 146.776 119.162C146.772 119.152 146.771 119.149 146.772 119.152C146.773 119.155 146.774 119.165 146.774 119.18C146.774 119.195 146.771 119.213 146.766 119.231C146.761 119.249 146.754 119.263 146.748 119.274C146.743 119.284 146.739 119.288 146.739 119.287C146.74 119.286 146.745 119.281 146.756 119.271C146.768 119.262 146.784 119.25 146.806 119.234L146.239 118.411ZM145.915 119.679C146.18 120.175 146.446 120.669 146.719 121.162L147.593 120.676C147.324 120.191 147.061 119.702 146.797 119.208L145.915 119.679ZM146.736 121.189C146.662 121.074 146.678 120.922 146.774 120.824L147.484 121.529C147.718 121.293 147.756 120.927 147.577 120.648L146.736 121.189ZM146.735 120.869C146.481 121.195 146.252 121.538 146.049 121.897L146.92 122.389C147.099 122.073 147.3 121.77 147.524 121.484L146.735 120.869ZM146.035 121.925C145.831 122.345 145.653 122.777 145.5 123.218L146.445 123.545C146.585 123.141 146.748 122.746 146.935 122.361L146.035 121.925ZM145.487 123.264C145.511 123.164 145.593 123.09 145.695 123.076L145.83 124.067C146.136 124.025 146.386 123.799 146.459 123.498L145.487 123.264ZM145.671 123.08C145.084 123.189 144.501 123.305 143.921 123.42L144.116 124.401C144.697 124.285 145.274 124.171 145.854 124.063L145.671 123.08ZM143.922 123.42C143.826 123.439 143.716 123.464 143.615 123.505C143.507 123.548 143.381 123.621 143.281 123.75C143.181 123.88 143.143 124.021 143.129 124.138C143.115 124.249 143.119 124.363 143.127 124.465L144.124 124.393C144.121 124.353 144.12 124.322 144.12 124.299C144.12 124.288 144.12 124.279 144.12 124.272C144.121 124.266 144.121 124.262 144.121 124.261C144.121 124.258 144.12 124.269 144.114 124.288C144.11 124.298 144.105 124.309 144.098 124.322C144.091 124.335 144.083 124.348 144.073 124.361C144.063 124.373 144.053 124.385 144.042 124.395C144.032 124.405 144.022 124.412 144.013 124.418C143.997 124.429 143.987 124.433 143.989 124.432C143.99 124.432 143.994 124.431 144 124.429C144.006 124.427 144.014 124.424 144.025 124.421C144.048 124.415 144.077 124.409 144.116 124.401L143.922 123.42ZM143.127 124.463C143.15 124.821 143.177 125.179 143.203 125.535C143.229 125.891 143.256 126.245 143.279 126.6L144.277 126.533C144.253 126.175 144.227 125.817 144.2 125.461C144.174 125.105 144.148 124.75 144.124 124.396L143.127 124.463ZM143.279 126.599C143.291 126.782 143.331 127.042 143.53 127.244C143.732 127.449 143.997 127.488 144.187 127.497L144.231 126.498C144.206 126.496 144.188 126.495 144.177 126.493C144.165 126.491 144.162 126.49 144.165 126.491C144.169 126.492 144.179 126.496 144.194 126.504C144.209 126.513 144.225 126.525 144.241 126.541C144.257 126.557 144.268 126.573 144.276 126.587C144.283 126.6 144.286 126.608 144.287 126.609C144.287 126.61 144.285 126.605 144.283 126.592C144.281 126.579 144.279 126.56 144.277 126.533L143.279 126.599ZM144.191 127.497C144.736 127.517 145.314 127.548 145.876 127.561L145.9 126.562C145.342 126.548 144.801 126.518 144.227 126.497L144.191 127.497ZM145.926 127.56C145.781 127.571 145.65 127.47 145.626 127.326L146.611 127.157C146.549 126.792 146.219 126.535 145.849 126.563L145.926 127.56ZM145.65 127.416C145.995 128.341 146.537 129.181 147.239 129.876L147.942 129.165C147.344 128.572 146.881 127.856 146.587 127.067L145.65 127.416ZM147.179 129.805C147.14 129.749 147.129 129.678 147.148 129.613L148.107 129.897C148.174 129.672 148.135 129.43 148.002 129.237L147.179 129.805ZM147.15 129.607C146.971 130.187 146.783 130.762 146.596 131.345L147.548 131.651C147.733 131.075 147.925 130.489 148.106 129.902L147.15 129.607ZM146.622 131.28C146.508 131.515 146.504 131.789 146.611 132.027L147.523 131.617C147.537 131.649 147.537 131.685 147.522 131.716L146.622 131.28ZM146.611 132.027C146.718 132.266 146.925 132.444 147.177 132.515L147.448 131.553C147.482 131.562 147.509 131.586 147.523 131.617L146.611 132.027ZM147.105 132.489C147.781 132.797 148.465 133.111 149.148 133.408L149.547 132.491C148.874 132.198 148.201 131.889 147.519 131.579L147.105 132.489ZM149.176 133.42C149.438 133.515 149.731 133.474 149.957 133.311L149.369 132.501C149.413 132.47 149.469 132.462 149.519 132.48L149.176 133.42ZM150.001 133.275C150.201 133.091 150.379 132.884 150.53 132.658L149.698 132.102C149.592 132.262 149.467 132.408 149.325 132.537L150.001 133.275ZM150.528 132.661C150.652 132.478 150.769 132.283 150.877 132.103C150.988 131.918 151.093 131.745 151.205 131.581L150.38 131.015C150.248 131.208 150.129 131.406 150.02 131.588C149.908 131.775 149.807 131.943 149.701 132.099L150.528 132.661ZM151.205 131.581C151.155 131.653 151.073 131.696 150.985 131.696L150.986 130.696C150.744 130.696 150.517 130.815 150.38 131.015L151.205 131.581ZM150.915 131.691C151.821 131.822 152.746 131.766 153.63 131.526L153.369 130.561C152.616 130.765 151.829 130.813 151.057 130.701L150.915 131.691ZM153.603 131.533C153.531 131.548 153.457 131.53 153.401 131.483L154.038 130.713C153.86 130.565 153.623 130.506 153.396 130.554L153.603 131.533ZM153.351 131.435C153.747 131.868 154.134 132.309 154.523 132.756L155.277 132.099C154.887 131.651 154.493 131.203 154.089 130.76L153.351 131.435ZM154.522 132.754C154.645 132.897 154.845 133.118 155.142 133.173C155.465 133.232 155.729 133.071 155.898 132.951L155.32 132.135C155.29 132.156 155.267 132.171 155.25 132.181C155.233 132.19 155.225 132.193 155.225 132.193C155.226 132.193 155.237 132.189 155.255 132.187C155.275 132.185 155.299 132.185 155.324 132.189C155.375 132.199 155.397 132.22 155.384 132.21C155.377 132.204 155.365 132.194 155.347 132.175C155.328 132.157 155.306 132.132 155.279 132.101L154.522 132.754ZM155.892 132.955C156.492 132.544 157.087 132.125 157.676 131.7L157.09 130.889C156.508 131.31 155.92 131.723 155.326 132.13L155.892 132.955ZM157.613 131.739C157.837 131.623 157.999 131.416 158.057 131.171L157.085 130.938C157.094 130.9 157.119 130.869 157.153 130.851L157.613 131.739ZM158.057 131.171C158.116 130.926 158.065 130.668 157.918 130.463L157.106 131.047C157.083 131.016 157.076 130.976 157.085 130.938L158.057 131.171ZM157.955 130.524C157.669 129.976 157.408 129.517 157.133 128.978L156.242 129.432C156.51 129.958 156.812 130.496 157.069 130.987L157.955 130.524ZM157.141 128.995C157.174 129.066 157.174 129.148 157.141 129.219L156.234 128.798C156.143 128.994 156.143 129.22 156.234 129.415L157.141 128.995ZM157.076 129.324C157.664 128.601 158.095 127.763 158.34 126.864L157.376 126.601C157.167 127.365 156.8 128.078 156.3 128.693L157.076 129.324ZM158.347 126.839C158.323 126.946 158.233 127.025 158.124 127.034L158.039 126.038C157.711 126.066 157.439 126.304 157.369 126.626L158.347 126.839ZM158.177 127.027C158.754 126.915 159.329 126.802 159.904 126.687L159.706 125.706C159.135 125.821 158.563 125.933 157.987 126.045L158.177 127.027ZM159.904 126.687C160.062 126.655 160.359 126.594 160.545 126.347C160.731 126.098 160.707 125.794 160.689 125.618L159.694 125.717C159.698 125.756 159.7 125.785 159.7 125.808C159.701 125.818 159.7 125.827 159.7 125.833C159.7 125.839 159.7 125.842 159.7 125.843C159.699 125.845 159.7 125.834 159.707 125.816C159.71 125.807 159.715 125.796 159.721 125.784C159.728 125.771 159.735 125.759 159.745 125.746C159.754 125.734 159.764 125.723 159.773 125.714C159.783 125.704 159.793 125.697 159.801 125.691C159.817 125.679 159.827 125.675 159.825 125.676C159.824 125.677 159.821 125.678 159.816 125.68C159.81 125.681 159.802 125.684 159.792 125.687C159.771 125.692 159.743 125.699 159.706 125.706L159.904 126.687ZM151.902 128.295C150.151 128.295 148.732 126.876 148.732 125.125H147.732C147.732 127.428 149.599 129.295 151.902 129.295V128.295ZM148.732 125.125C148.732 123.374 150.151 121.955 151.902 121.955V120.955C149.599 120.955 147.732 122.822 147.732 125.125H148.732ZM151.902 121.955C153.653 121.955 155.072 123.374 155.072 125.125H156.072C156.072 122.822 154.205 120.955 151.902 120.955V121.955ZM155.072 125.125C155.072 126.876 153.653 128.295 151.902 128.295V129.295C154.205 129.295 156.072 127.428 156.072 125.125H155.072Z" fill="white"/>
<path fill-rule="evenodd" clip-rule="evenodd" d="M0 110.866L14.3039 102.607L28.6079 110.866V127.383L14.3039 135.642L0 127.383V110.866Z" fill="white" stroke="#E5E5E5"/>
<path fill-rule="evenodd" clip-rule="evenodd" d="M3.36145 112.806L14.304 106.488L25.2465 112.806V125.443L14.304 131.761L3.36145 125.443V112.806Z" fill="url(#paint1_linear)"/>
<path fill-rule="evenodd" clip-rule="evenodd" d="M11.3397 19.1604L30.6697 8L49.9998 19.1604V41.4813L30.6697 52.6417L11.3397 41.4813V19.1604Z" fill="white" stroke="#E5E5E5"/>
<path fill-rule="evenodd" clip-rule="evenodd" d="M15.8823 21.7827L30.6698 13.2446L45.4573 21.7827V38.8589L30.6698 47.397L15.8823 38.8589V21.7827Z" fill="url(#paint2_linear)"/>
<path fill-rule="evenodd" clip-rule="evenodd" d="M34 33V35C34 35.5523 34.4477 36 35 36H37C37.5523 36 38 35.5523 38 35V33C38 32.4477 37.5523 32 37 32H36.5V30.5C36.5 29.9477 36.0523 29.5 35.5 29.5H31.5V28H33C33.5523 28 34 27.5523 34 27V23C34 22.4477 33.5523 22 33 22H29C28.4477 22 28 22.4477 28 23V27C28 27.5523 28.4477 28 29 28H30.5V29.5H26.5C25.9477 29.5 25.5 29.9477 25.5 30.5V32H25C24.4477 32 24 32.4477 24 33V35C24 35.5523 24.4477 36 25 36H27C27.5523 36 28 35.5523 28 35V33C28 32.4477 27.5523 32 27 32H26.5V30.5H30.5V32H30C29.4477 32 29 32.4477 29 33V35C29 35.5523 29.4477 36 30 36H32C32.5523 36 33 35.5523 33 35V33C33 32.4477 32.5523 32 32 32H31.5V30.5H35.5V32H35C34.4477 32 34 32.4477 34 33ZM29 27V23H33V27H29ZM27 33V35H25V33H27ZM32 33V35H30V33H32ZM37 33V35H35V33H37Z" fill="white"/>
<g style="mix-blend-mode:multiply">
<path d="M97.7573 7.14181L98.2553 7.09717L98.2553 7.09656L97.7573 7.14181ZM97.2608 6.68406L97.272 6.18406H97.2608V6.68406ZM95.4337 6.63363L95.4432 6.13372L95.4145 6.13317L95.386 6.13591L95.4337 6.63363ZM95.0458 6.34657L95.5357 6.24669L95.531 6.2235L95.5241 6.20087L95.0458 6.34657ZM94.6928 5.57073L95.117 5.30578L95.1098 5.29489L94.6928 5.57073ZM93.6609 4.14319L94.0577 3.83897L94.0391 3.81474L94.0177 3.79296L93.6609 4.14319ZM93.5988 3.8057L94.0569 4.00612L94.061 3.99687L94.0646 3.98748L93.5988 3.8057ZM93.948 2.84366L93.4759 2.67872L93.4759 2.67875L93.948 2.84366ZM94.301 1.74585L94.7849 1.87167L94.7906 1.84963L94.7943 1.82715L94.301 1.74585ZM93.6337 1.03984L93.8762 0.602555L93.869 0.598581L93.8617 0.594844L93.6337 1.03984ZM91.7523 0.0700401L91.9749 -0.377739L91.9709 -0.379648L91.7523 0.0700401ZM91.1472 0.252363L90.7312 -0.0249923L90.7297 -0.0227064L91.1472 0.252363ZM90.0688 1.89714L89.65 1.62388L89.6335 1.64919L89.6202 1.67631L90.0688 1.89714ZM89.8127 2.00964L89.9535 1.52984L89.9321 1.52357L89.9102 1.51923L89.8127 2.00964ZM86.6706 2.10662L86.7271 2.60342L86.7631 2.59933L86.7981 2.59008L86.6706 2.10662ZM86.434 2.02903L86.0669 2.36855L86.0801 2.38281L86.0943 2.39599L86.434 2.02903ZM85.022 0.446322L85.401 0.120157L85.3969 0.1155L85.022 0.446322ZM84.3353 0.376497L84.6219 0.786223L84.6224 0.785866L84.3353 0.376497ZM82.322 1.77688L82.0398 1.36417L82.0374 1.36578L82.322 1.77688ZM82.1281 2.49065L81.6851 2.72268L81.688 2.72794L82.1281 2.49065ZM83.0436 4.1781L82.6047 4.41767L82.6184 4.44287L82.635 4.46633L83.0436 4.1781ZM83.0125 4.47292L82.6729 4.10596L82.6432 4.13344L82.6183 4.16533L83.0125 4.47292ZM82.2755 5.57461L81.8407 5.32764L81.8317 5.34356L81.8238 5.3601L82.2755 5.57461ZM81.6897 6.9944L81.2182 6.82804L81.2097 6.85229L81.2036 6.87728L81.6897 6.9944ZM81.4492 7.21163L81.382 6.71616L81.371 6.71766L81.36 6.71965L81.4492 7.21163ZM79.4592 7.59955L79.5555 8.09019L79.5567 8.08995L79.4592 7.59955ZM79.0053 8.18919L78.5063 8.22093L78.5064 8.22245L79.0053 8.18919ZM79.1799 10.637L79.6788 10.6041L79.6788 10.6039L79.1799 10.637ZM79.6764 11.1257L79.6547 11.6253L79.6552 11.6253L79.6764 11.1257ZM81.5927 11.2033L81.5805 11.7032L81.607 11.7038L81.6333 11.7017L81.5927 11.2033ZM81.8604 11.405L81.3702 11.5034L81.378 11.5422L81.3917 11.5792L81.8604 11.405ZM83.544 14.0119L83.9673 13.7458L83.9366 13.6969L83.8955 13.6563L83.544 14.0119ZM83.5828 14.2795L84.0608 14.4268L84.0642 14.4145L83.5828 14.2795ZM82.9466 16.2773L83.3985 16.4913L83.4127 16.4613L83.4228 16.4296L82.9466 16.2773ZM82.9433 16.6456L83.3989 16.4395L83.3989 16.4395L82.9433 16.6456ZM83.222 16.8863L83.4291 16.4312L83.3953 16.4159L83.3597 16.4057L83.222 16.8863ZM85.5495 17.9337L85.3501 18.3922L85.3656 18.399L85.3815 18.4046L85.5495 17.9337ZM85.9064 17.8833L86.1984 18.2892L86.2204 18.2733L86.2406 18.2552L85.9064 17.8833ZM86.4223 17.282L86.0107 16.998L86.004 17.0082L86.4223 17.282ZM87.1982 16.0445L86.8036 15.7374L86.7934 15.7506L86.784 15.7645L87.1982 16.0445ZM87.4232 15.9282L87.4955 15.4334L87.4482 15.4265L87.4005 15.4287L87.4232 15.9282ZM90.2976 15.7536L90.2064 15.262L90.186 15.2658L90.166 15.2712L90.2976 15.7536ZM90.5498 15.8196L90.9189 15.4822L90.896 15.4572L90.87 15.4355L90.5498 15.8196ZM91.8959 17.3363L91.5175 17.6631L91.5178 17.6635L91.8959 17.3363ZM92.7105 17.4682L92.427 17.0563L92.4232 17.059L92.7105 17.4682ZM94.7354 16.0407L94.5129 15.5929L94.4761 15.6112L94.4428 15.6353L94.7354 16.0407ZM94.9522 15.7686L94.4661 15.6517L94.466 15.6517L94.9522 15.7686ZM94.8829 15.4278L94.4391 15.6583L94.4574 15.6934L94.481 15.7253L94.8829 15.4278ZM93.9441 13.6511L93.4966 13.8742L93.4998 13.8805L93.9441 13.6511ZM93.9441 13.4261L93.5554 13.1115L93.521 13.154L93.4966 13.203L93.9441 13.4261ZM95.2824 10.827L95.7642 10.9607L95.7703 10.9387L95.7744 10.9162L95.2824 10.827ZM95.5384 10.5982L95.5721 11.097L95.6021 11.095L95.6316 11.0894L95.5384 10.5982ZM97.5052 10.2102L97.4149 9.71835L97.4049 9.72041L97.5052 10.2102ZM84.6093 10.5973L84.1475 10.7889L84.1475 10.7889L84.6093 10.5973ZM85.5167 6.02178L85.163 5.66839L85.163 5.66839L85.5167 6.02178ZM90.0913 5.11018L90.2826 4.6482L90.0913 5.11018ZM92.6833 8.98833H92.1833L92.1833 8.98879L92.6833 8.98833ZM91.4564 11.956L91.8102 12.3094L91.8102 12.3094L91.4564 11.956ZM98.4691 9.56901C98.4029 8.74389 98.329 7.91917 98.2553 7.09717L97.2593 7.18644C97.3331 8.00922 97.4066 8.82927 97.4723 9.64893L98.4691 9.56901ZM98.2553 7.09656C98.2369 6.89423 98.1845 6.621 97.9651 6.41955C97.748 6.22018 97.4728 6.1887 97.272 6.18419L97.2496 7.18393C97.2804 7.18463 97.3034 7.18635 97.3202 7.18837C97.3371 7.19041 97.3453 7.19245 97.3469 7.19291C97.3483 7.1933 97.3418 7.19163 97.3303 7.18568C97.3184 7.17945 97.3037 7.16983 97.2887 7.15611C97.2815 7.14946 97.2749 7.1425 97.2691 7.13546C97.2633 7.12845 97.2586 7.12182 97.2549 7.11595C97.2475 7.10424 97.2448 7.09681 97.2449 7.097C97.245 7.09747 97.2474 7.10425 97.2504 7.11985C97.2535 7.13544 97.2567 7.15726 97.2594 7.18705L98.2553 7.09656ZM97.2608 6.18406C96.6474 6.18406 96.0927 6.14613 95.4432 6.13372L95.4241 7.13354C95.9928 7.14441 96.6561 7.18406 97.2608 7.18406V6.18406ZM95.386 6.13591C95.4569 6.12911 95.5215 6.17692 95.5357 6.24669L94.5559 6.44646C94.6438 6.87785 95.0431 7.17337 95.4814 7.13135L95.386 6.13591ZM95.5241 6.20087C95.4281 5.88596 95.2912 5.58505 95.1169 5.30587L94.2687 5.83559C94.3966 6.04045 94.4971 6.26124 94.5675 6.49227L95.5241 6.20087ZM95.1098 5.29489C94.7744 4.78776 94.417 4.30761 94.0577 3.83897L93.2641 4.44742C93.6186 4.90978 93.9595 5.36839 94.2757 5.84657L95.1098 5.29489ZM94.0177 3.79296C94.0731 3.84932 94.0886 3.93369 94.0569 4.00612L93.1408 3.60529C93.0088 3.90696 93.0735 4.2585 93.3041 4.49342L94.0177 3.79296ZM94.0646 3.98748C94.1926 3.65961 94.308 3.32914 94.42 3.00857L93.4759 2.67875C93.363 3.00213 93.2534 3.3156 93.1331 3.62393L94.0646 3.98748ZM94.42 3.0086C94.5298 2.69422 94.6777 2.28398 94.7849 1.87167L93.8171 1.62003C93.7225 1.98356 93.5911 2.34916 93.4759 2.67872L94.42 3.0086ZM94.7943 1.82715C94.8231 1.65241 94.806 1.47777 94.7333 1.31416C94.6636 1.15724 94.557 1.04264 94.4579 0.959281C94.2839 0.812861 94.0298 0.687702 93.8762 0.602555L93.3913 1.47712C93.5088 1.54227 93.5773 1.57711 93.6636 1.62637C93.7411 1.67063 93.7866 1.70131 93.8143 1.72458C93.8403 1.74645 93.8307 1.74555 93.8194 1.72016C93.8052 1.68808 93.8079 1.66279 93.8076 1.66455L94.7943 1.82715ZM93.8617 0.594844C93.2472 0.279994 92.6086 -0.0627927 91.9749 -0.377722L91.5298 0.517802C92.1607 0.831303 92.7634 1.15573 93.4058 1.48483L93.8617 0.594844ZM91.9709 -0.379648C91.7816 -0.471692 91.5293 -0.54958 91.256 -0.461736C90.9961 -0.378172 90.8347 -0.18025 90.7312 -0.0249881L91.5632 0.529713C91.5776 0.508097 91.5893 0.492396 91.5984 0.48121C91.6075 0.470013 91.6128 0.464938 91.614 0.46379C91.6151 0.462767 91.6113 0.466543 91.6022 0.472135C91.5927 0.47795 91.5792 0.484778 91.562 0.490291C91.5447 0.495849 91.5277 0.498801 91.5124 0.4997C91.4974 0.500576 91.4871 0.499327 91.483 0.498642C91.4791 0.498008 91.4811 0.497973 91.4901 0.501074C91.4992 0.504192 91.5135 0.509862 91.5338 0.519728L91.9709 -0.379648ZM90.7297 -0.0227064C90.3698 0.52358 90.0099 1.07244 89.65 1.62388L90.4875 2.1704C90.8466 1.62015 91.2056 1.07249 91.5647 0.527432L90.7297 -0.0227064ZM89.6202 1.67631C89.6809 1.55294 89.8216 1.49116 89.9535 1.52984L89.672 2.48943C90.0066 2.58755 90.3633 2.43084 90.5174 2.11797L89.6202 1.67631ZM89.9102 1.51923C88.7945 1.29748 87.643 1.33302 86.5431 1.62315L86.7981 2.59008C87.751 2.33872 88.7487 2.30793 89.7153 2.50004L89.9102 1.51923ZM86.6142 1.60981C86.6724 1.6032 86.7306 1.62229 86.7736 1.66207L86.0943 2.39599C86.265 2.55393 86.496 2.62967 86.7271 2.60342L86.6142 1.60981ZM86.801 1.68951C86.3267 1.17671 85.86 0.653597 85.4009 0.120182L84.643 0.772462C85.1097 1.31488 85.5844 1.84691 86.0669 2.36855L86.801 1.68951ZM85.3969 0.1155C85.2639 -0.0351857 85.0576 -0.232718 84.7538 -0.263514C84.4569 -0.293611 84.213 -0.148431 84.0482 -0.0328727L84.6224 0.785866C84.6506 0.766095 84.6728 0.752041 84.69 0.742159C84.7073 0.732245 84.717 0.728009 84.7203 0.726692C84.7234 0.725468 84.718 0.727928 84.7056 0.730022C84.6925 0.732231 84.6743 0.733554 84.6529 0.731386C84.6315 0.729208 84.6128 0.724115 84.5982 0.718402C84.5843 0.712946 84.5773 0.708135 84.5776 0.708305C84.5781 0.708668 84.5844 0.713087 84.597 0.72476C84.6095 0.736409 84.6259 0.753233 84.647 0.777145L85.3969 0.1155ZM84.0488 -0.0332292C83.3761 0.437244 82.7119 0.904466 82.0398 1.36417L82.6043 2.1896C83.2821 1.72605 83.9524 1.25451 84.6219 0.786222L84.0488 -0.0332292ZM82.0374 1.36578C81.8617 1.48746 81.6483 1.66862 81.567 1.95222C81.4822 2.24768 81.5776 2.5174 81.6852 2.72266L82.571 2.25865C82.5414 2.20211 82.5346 2.17553 82.5337 2.17097C82.5335 2.16994 82.5348 2.17585 82.5345 2.18718C82.5343 2.19896 82.5325 2.21312 82.5282 2.22804C82.5191 2.25965 82.5058 2.27204 82.5133 2.26364C82.5231 2.25263 82.5491 2.22779 82.6066 2.18799L82.0374 1.36578ZM81.688 2.72794C81.9909 3.2899 82.2965 3.85315 82.6047 4.41767L83.4824 3.93854C83.1751 3.37551 82.8703 2.81379 82.5682 2.25337L81.688 2.72794ZM82.635 4.46633C82.5555 4.35363 82.5718 4.19955 82.6729 4.10596L83.3521 4.83989C83.6188 4.59308 83.6617 4.1869 83.4521 3.88987L82.635 4.46633ZM82.6183 4.16533C82.3312 4.53332 82.0713 4.92179 81.8407 5.32764L82.7102 5.82159C82.9167 5.45807 83.1495 5.11011 83.4067 4.78051L82.6183 4.16533ZM81.8238 5.3601C81.5966 5.83855 81.3944 6.32853 81.2182 6.82804L82.1612 7.16075C82.3259 6.69402 82.5148 6.23619 82.7271 5.78912L81.8238 5.3601ZM81.2036 6.87728C81.2242 6.79198 81.295 6.72796 81.382 6.71616L81.5164 7.7071C81.838 7.66349 82.0998 7.42696 82.1758 7.11151L81.2036 6.87728ZM81.36 6.71965C80.6912 6.8409 80.0212 6.97801 79.3617 7.10915L79.5567 8.08995C80.2238 7.95731 80.8805 7.82287 81.5384 7.70361L81.36 6.71965ZM79.3629 7.10891C79.2528 7.13052 79.1327 7.15801 79.023 7.20208C78.9076 7.24844 78.7754 7.32409 78.6711 7.45872C78.5668 7.59343 78.5264 7.74056 78.5105 7.86481C78.4953 7.98295 78.4991 8.10713 78.5063 8.22093L79.5043 8.15744C79.5013 8.11029 79.5 8.07376 79.5 8.04486C79.5 8.01574 79.5014 7.99952 79.5023 7.99218C79.5032 7.98508 79.503 7.99208 79.4974 8.00748C79.4913 8.0243 79.4802 8.04722 79.4617 8.07108C79.4432 8.09493 79.4238 8.11142 79.4092 8.12151C79.3957 8.13074 79.389 8.13269 79.3957 8.13001C79.4026 8.12724 79.4179 8.12183 79.446 8.11447C79.4739 8.10718 79.5094 8.09924 79.5555 8.09019L79.3629 7.10891ZM78.5064 8.22245C78.5337 8.63182 78.5639 9.04092 78.594 9.44838C78.624 9.85644 78.654 10.2629 78.681 10.6701L79.6788 10.6039C79.6515 10.1925 79.6213 9.7824 79.5913 9.37486C79.5612 8.96672 79.5312 8.56118 79.5042 8.15592L78.5064 8.22245ZM78.681 10.6699C78.6944 10.8741 78.7385 11.1519 78.9506 11.3626C79.1646 11.5752 79.4445 11.6161 79.6547 11.6253L79.6981 10.6262C79.6665 10.6248 79.643 10.6225 79.6259 10.62C79.6087 10.6175 79.6006 10.6152 79.599 10.6147C79.5977 10.6143 79.6044 10.6162 79.6156 10.6226C79.6274 10.6293 79.6415 10.6394 79.6555 10.6532C79.6694 10.6671 79.6793 10.6808 79.6857 10.692C79.6919 10.7026 79.6936 10.7085 79.6929 10.7063C79.6921 10.704 79.6895 10.6952 79.6866 10.6775C79.6837 10.6598 79.6809 10.6359 79.6788 10.6041L78.681 10.6699ZM79.6552 11.6253C80.2871 11.6521 80.9384 11.6875 81.5805 11.7032L81.6049 10.7035C80.9747 10.6881 80.3459 10.6537 79.6976 10.6262L79.6552 11.6253ZM81.6333 11.7017C81.5079 11.7119 81.3949 11.6266 81.3702 11.5034L82.3506 11.3066C82.2756 10.9327 81.9325 10.674 81.5522 10.705L81.6333 11.7017ZM81.3917 11.5792C81.7818 12.6286 82.3963 13.5802 83.1924 14.3674L83.8955 13.6563C83.203 12.9715 82.6684 12.1437 82.3291 11.2308L81.3917 11.5792ZM83.1207 14.2779C83.0957 14.2382 83.0887 14.1897 83.1013 14.1445L84.0642 14.4145C84.1277 14.1879 84.0925 13.945 83.9673 13.7458L83.1207 14.2779ZM83.1049 14.1323C82.9004 14.7962 82.6851 15.4533 82.4703 16.125L83.4228 16.4296C83.6347 15.7668 83.854 15.0973 84.0606 14.4268L83.1049 14.1323ZM82.4947 16.0633C82.3768 16.3123 82.3742 16.6006 82.4878 16.8516L83.3989 16.4395C83.4064 16.456 83.4062 16.475 83.3985 16.4913L82.4947 16.0633ZM82.4877 16.8516C82.6013 17.1026 82.8194 17.2911 83.0843 17.367L83.3597 16.4057C83.3771 16.4107 83.3915 16.423 83.3989 16.4395L82.4877 16.8516ZM83.0149 17.3414C83.7881 17.6932 84.5693 18.0526 85.3501 18.3922L85.749 17.4752C84.9781 17.1399 84.2076 16.7855 83.4291 16.4312L83.0149 17.3414ZM85.3815 18.4046C85.6562 18.5027 85.9616 18.4595 86.1984 18.2892L85.6144 17.4774C85.6443 17.4559 85.6829 17.4504 85.7176 17.4628L85.3815 18.4046ZM86.2406 18.2552C86.47 18.049 86.6718 17.8139 86.8407 17.5558L86.004 17.0082C85.8824 17.1939 85.7373 17.363 85.5722 17.5114L86.2406 18.2552ZM86.8339 17.566C86.9781 17.357 87.111 17.1361 87.236 16.9279C87.3637 16.7153 87.4836 16.515 87.6124 16.3246L86.784 15.7645C86.6373 15.9814 86.5031 16.2059 86.3787 16.4132C86.2515 16.625 86.1342 16.8191 86.0108 16.9981L86.8339 17.566ZM87.5927 16.3517C87.5572 16.3973 87.5036 16.425 87.4459 16.4277L87.4005 15.4287C87.166 15.4394 86.9479 15.5521 86.8036 15.7374L87.5927 16.3517ZM87.3509 16.4229C88.3789 16.5731 89.4269 16.5095 90.4293 16.236L90.166 15.2712C89.2965 15.5085 88.3873 15.5637 87.4955 15.4334L87.3509 16.4229ZM90.3888 16.2452C90.3322 16.2557 90.2738 16.2405 90.2296 16.2036L90.87 15.4355C90.6856 15.2818 90.4424 15.2182 90.2064 15.262L90.3888 16.2452ZM90.1807 16.1569C90.6311 16.6495 91.0779 17.1542 91.5175 17.6631L92.2743 17.0095C91.8294 16.4944 91.3763 15.9826 90.9189 15.4822L90.1807 16.1569ZM91.5178 17.6635C91.6599 17.8278 91.8757 18.0631 92.1895 18.1198C92.527 18.1808 92.8072 18.0112 92.9978 17.8774L92.4232 17.059C92.3461 17.1131 92.3076 17.1315 92.294 17.1367C92.2878 17.139 92.3187 17.1269 92.3674 17.1357C92.4119 17.1438 92.4275 17.1616 92.4065 17.1452C92.3825 17.1264 92.3418 17.0875 92.274 17.0092L91.5178 17.6635ZM92.994 17.8801C93.6772 17.4099 94.3553 16.9319 95.0281 16.4461L94.4428 15.6353C93.776 16.1167 93.1041 16.5904 92.427 17.0563L92.994 17.8801ZM94.958 16.4884C95.1994 16.3684 95.3753 16.1476 95.4383 15.8855L94.466 15.6517C94.4722 15.6262 94.4893 15.6046 94.5129 15.5929L94.958 16.4884ZM95.4383 15.8856C95.5014 15.6235 95.4451 15.3469 95.2847 15.1302L94.481 15.7253C94.4654 15.7042 94.4599 15.6772 94.4661 15.6517L95.4383 15.8856ZM95.3266 15.1973C95.1699 14.8956 95.0104 14.5972 94.8531 14.3026C94.6954 14.007 94.5398 13.715 94.3884 13.4217L93.4998 13.8805C93.6548 14.1807 93.8134 14.4783 93.9709 14.7734C94.1289 15.0693 94.2855 15.3625 94.4391 15.6583L95.3266 15.1973ZM94.3916 13.428C94.4263 13.4976 94.4263 13.5796 94.3916 13.6492L93.4966 13.203C93.3913 13.4143 93.3913 13.6629 93.4966 13.8742L94.3916 13.428ZM94.3328 13.7406C94.9954 12.9219 95.4826 11.9757 95.7642 10.9607L94.8006 10.6934C94.5557 11.5762 94.1318 12.3993 93.5554 13.1115L94.3328 13.7406ZM95.7744 10.9162C95.7564 11.0157 95.673 11.0902 95.5721 11.097L95.5048 10.0993C95.1485 10.1233 94.8541 10.3865 94.7904 10.7379L95.7744 10.9162ZM95.6316 11.0894C96.2883 10.9648 96.9462 10.835 97.6055 10.7001L97.4049 9.72041C96.7504 9.85441 96.0971 9.98324 95.4452 10.1069L95.6316 11.0894ZM97.5954 10.702C97.784 10.6674 98.1024 10.6071 98.3022 10.3512C98.503 10.0941 98.4834 9.76978 98.4694 9.57334L97.4719 9.6446C97.4753 9.69198 97.4768 9.72878 97.4769 9.75783C97.477 9.7871 97.4756 9.80356 97.4746 9.8111C97.4737 9.81837 97.4738 9.81182 97.4793 9.79697C97.4853 9.78076 97.4961 9.75867 97.514 9.73571C97.5522 9.6868 97.5902 9.67441 97.5767 9.67972C97.5695 9.68259 97.5538 9.68801 97.5254 9.69518C97.4973 9.70229 97.4614 9.70993 97.415 9.71846L97.5954 10.702ZM88.4894 12.6856C86.9937 12.687 85.6445 11.7871 85.0711 10.4056L84.1475 10.7889C84.8759 12.544 86.5901 13.6874 88.4903 13.6856L88.4894 12.6856ZM85.0711 10.4056C84.4978 9.02412 84.8133 7.43329 85.8704 6.37517L85.163 5.66839C83.8199 7.01271 83.4191 9.0338 84.1475 10.7889L85.0711 10.4056ZM85.8704 6.37517C86.9276 5.31704 88.5181 5.0001 89.9001 5.57216L90.2826 4.6482C88.5268 3.9214 86.5061 4.32408 85.163 5.66839L85.8704 6.37517ZM89.9001 5.57216C91.2821 6.14423 92.1833 7.49262 92.1833 8.98833H93.1833C93.1833 7.08806 92.0383 5.37499 90.2826 4.6482L89.9001 5.57216ZM92.1833 8.98879C92.1842 9.96894 91.7955 10.9093 91.1027 11.6026L91.8102 12.3094C92.6905 11.4283 93.1844 10.2334 93.1833 8.98788L92.1833 8.98879ZM91.1027 11.6026C90.41 12.296 89.47 12.6856 88.4899 12.6856V13.6856C89.7354 13.6856 90.9298 13.1905 91.8102 12.3094L91.1027 11.6026Z" fill="#FA5A28"/>
</g>
<g style="mix-blend-mode:multiply">
<path d="M180.757 84.1418L181.255 84.0972L181.255 84.0966L180.757 84.1418ZM180.261 83.6841L180.272 83.1841H180.261V83.6841ZM178.434 83.6336L178.443 83.1337L178.415 83.1332L178.386 83.1359L178.434 83.6336ZM178.046 83.3466L178.536 83.2467L178.531 83.2235L178.524 83.2009L178.046 83.3466ZM177.693 82.5707L178.117 82.3058L178.11 82.2949L177.693 82.5707ZM176.661 81.1432L177.058 80.839L177.039 80.8147L177.018 80.793L176.661 81.1432ZM176.599 80.8057L177.057 81.0061L177.061 80.9969L177.065 80.9875L176.599 80.8057ZM176.948 79.8437L176.476 79.6787L176.476 79.6788L176.948 79.8437ZM177.301 78.7459L177.785 78.8717L177.791 78.8496L177.794 78.8272L177.301 78.7459ZM176.634 78.0398L176.876 77.6026L176.869 77.5986L176.862 77.5948L176.634 78.0398ZM174.752 77.07L174.975 76.6223L174.971 76.6204L174.752 77.07ZM174.147 77.2524L173.731 76.975L173.73 76.9773L174.147 77.2524ZM173.069 78.8971L172.65 78.6239L172.634 78.6492L172.62 78.6763L173.069 78.8971ZM172.813 79.0096L172.953 78.5298L172.932 78.5236L172.91 78.5192L172.813 79.0096ZM169.671 79.1066L169.727 79.6034L169.763 79.5993L169.798 79.5901L169.671 79.1066ZM169.434 79.029L169.067 79.3686L169.08 79.3828L169.094 79.396L169.434 79.029ZM168.022 77.4463L168.401 77.1202L168.397 77.1155L168.022 77.4463ZM167.335 77.3765L167.622 77.7862L167.622 77.7859L167.335 77.3765ZM165.322 78.7769L165.04 78.3642L165.037 78.3658L165.322 78.7769ZM165.128 79.4907L164.685 79.7227L164.688 79.7279L165.128 79.4907ZM166.044 81.1781L165.605 81.4177L165.618 81.4429L165.635 81.4663L166.044 81.1781ZM166.013 81.4729L165.673 81.106L165.643 81.1334L165.618 81.1653L166.013 81.4729ZM165.275 82.5746L164.841 82.3276L164.832 82.3436L164.824 82.3601L165.275 82.5746ZM164.69 83.9944L164.218 83.828L164.21 83.8523L164.204 83.8773L164.69 83.9944ZM164.449 84.2116L164.382 83.7162L164.371 83.7177L164.36 83.7197L164.449 84.2116ZM162.459 84.5996L162.555 85.0902L162.557 85.09L162.459 84.5996ZM162.005 85.1892L161.506 85.2209L161.506 85.2225L162.005 85.1892ZM162.18 87.637L162.679 87.6041L162.679 87.6039L162.18 87.637ZM162.676 88.1257L162.655 88.6253L162.655 88.6253L162.676 88.1257ZM164.593 88.2033L164.581 88.7032L164.607 88.7038L164.633 88.7017L164.593 88.2033ZM164.86 88.405L164.37 88.5034L164.378 88.5422L164.392 88.5792L164.86 88.405ZM166.544 91.0119L166.967 90.7458L166.937 90.6969L166.896 90.6563L166.544 91.0119ZM166.583 91.2795L167.061 91.4268L167.064 91.4145L166.583 91.2795ZM165.947 93.2773L166.398 93.4913L166.413 93.4613L166.423 93.4296L165.947 93.2773ZM165.943 93.6456L166.399 93.4395L166.399 93.4395L165.943 93.6456ZM166.222 93.8863L166.429 93.4312L166.395 93.4159L166.36 93.4057L166.222 93.8863ZM168.55 94.9337L168.35 95.3922L168.366 95.399L168.381 95.4046L168.55 94.9337ZM168.906 94.8833L169.198 95.2892L169.22 95.2733L169.241 95.2552L168.906 94.8833ZM169.422 94.282L169.011 93.998L169.004 94.0082L169.422 94.282ZM170.198 93.0445L169.804 92.7374L169.793 92.7506L169.784 92.7645L170.198 93.0445ZM170.423 92.9282L170.495 92.4334L170.448 92.4265L170.4 92.4287L170.423 92.9282ZM173.298 92.7536L173.206 92.262L173.186 92.2658L173.166 92.2712L173.298 92.7536ZM173.55 92.8196L173.919 92.4822L173.896 92.4572L173.87 92.4355L173.55 92.8196ZM174.896 94.3363L174.517 94.6631L174.518 94.6635L174.896 94.3363ZM175.71 94.4682L175.427 94.0563L175.423 94.059L175.71 94.4682ZM177.735 93.0407L177.513 92.5929L177.476 92.6112L177.443 92.6353L177.735 93.0407ZM177.952 92.7686L177.466 92.6517L177.466 92.6517L177.952 92.7686ZM177.883 92.4278L177.439 92.6583L177.457 92.6934L177.481 92.7253L177.883 92.4278ZM176.944 90.6511L176.497 90.8742L176.5 90.8805L176.944 90.6511ZM176.944 90.4261L176.555 90.1115L176.521 90.154L176.497 90.203L176.944 90.4261ZM178.282 87.827L178.764 87.9607L178.77 87.9387L178.774 87.9162L178.282 87.827ZM178.538 87.5982L178.572 88.097L178.602 88.095L178.632 88.0894L178.538 87.5982ZM180.505 87.2102L180.415 86.7184L180.405 86.7204L180.505 87.2102ZM167.609 87.5973L167.148 87.7889L167.148 87.7889L167.609 87.5973ZM168.517 83.0218L168.163 82.6684L168.163 82.6684L168.517 83.0218ZM173.091 82.1102L173.283 81.6482L173.091 82.1102ZM175.683 85.9883H175.183L175.183 85.9888L175.683 85.9883ZM174.456 88.956L174.81 89.3094L174.81 89.3094L174.456 88.956ZM181.469 86.569C181.403 85.7439 181.329 84.9192 181.255 84.0972L180.259 84.1864C180.333 85.0092 180.407 85.8293 180.472 86.6489L181.469 86.569ZM181.255 84.0966C181.237 83.8942 181.184 83.621 180.965 83.4195C180.748 83.2202 180.473 83.1887 180.272 83.1842L180.25 84.1839C180.28 84.1846 180.303 84.1863 180.32 84.1884C180.337 84.1904 180.345 84.1924 180.347 84.1929C180.348 84.1933 180.342 84.1916 180.33 84.1857C180.318 84.1795 180.304 84.1698 180.289 84.1561C180.281 84.1495 180.275 84.1425 180.269 84.1355C180.263 84.1284 180.259 84.1218 180.255 84.116C180.247 84.1042 180.245 84.0968 180.245 84.097C180.245 84.0975 180.247 84.1042 180.25 84.1199C180.253 84.1354 180.257 84.1573 180.259 84.187L181.255 84.0966ZM180.261 83.1841C179.647 83.1841 179.093 83.1461 178.443 83.1337L178.424 84.1335C178.993 84.1444 179.656 84.1841 180.261 84.1841V83.1841ZM178.386 83.1359C178.457 83.1291 178.521 83.1769 178.536 83.2467L177.556 83.4465C177.644 83.8779 178.043 84.1734 178.481 84.1313L178.386 83.1359ZM178.524 83.2009C178.428 82.886 178.291 82.5851 178.117 82.3059L177.269 82.8356C177.397 83.0405 177.497 83.2612 177.567 83.4923L178.524 83.2009ZM178.11 82.2949C177.774 81.7878 177.417 81.3076 177.058 80.839L176.264 81.4474C176.619 81.9098 176.959 82.3684 177.276 82.8466L178.11 82.2949ZM177.018 80.793C177.073 80.8493 177.089 80.9337 177.057 81.0061L176.141 80.6053C176.009 80.907 176.073 81.2585 176.304 81.4934L177.018 80.793ZM177.065 80.9875C177.193 80.6596 177.308 80.3291 177.42 80.0086L176.476 79.6788C176.363 80.0021 176.253 80.3156 176.133 80.6239L177.065 80.9875ZM177.42 80.0086C177.53 79.6942 177.678 79.284 177.785 78.8717L176.817 78.62C176.723 78.9836 176.591 79.3492 176.476 79.6787L177.42 80.0086ZM177.794 78.8272C177.823 78.6524 177.806 78.4778 177.733 78.3142C177.664 78.1572 177.557 78.0426 177.458 77.9593C177.284 77.8129 177.03 77.6877 176.876 77.6026L176.391 78.4771C176.509 78.5423 176.577 78.5771 176.664 78.6264C176.741 78.6706 176.787 78.7013 176.814 78.7246C176.84 78.7464 176.831 78.7456 176.819 78.7202C176.805 78.6881 176.808 78.6628 176.808 78.6646L177.794 78.8272ZM176.862 77.5948C176.247 77.28 175.609 76.9372 174.975 76.6223L174.53 77.5178C175.161 77.8313 175.763 78.1557 176.406 78.4848L176.862 77.5948ZM174.971 76.6204C174.782 76.5283 174.529 76.4504 174.256 76.5383C173.996 76.6218 173.835 76.8197 173.731 76.975L174.563 77.5297C174.578 77.5081 174.589 77.4924 174.598 77.4812C174.608 77.47 174.613 77.4649 174.614 77.4638C174.615 77.4628 174.611 77.4665 174.602 77.4721C174.593 77.4779 174.579 77.4848 174.562 77.4903C174.545 77.4958 174.528 77.4988 174.512 77.4997C174.497 77.5006 174.487 77.4993 174.483 77.4986C174.479 77.498 174.481 77.498 174.49 77.5011C174.499 77.5042 174.513 77.5099 174.534 77.5197L174.971 76.6204ZM173.73 76.9773C173.37 77.5236 173.01 78.0724 172.65 78.6239L173.487 79.1704C173.847 78.6201 174.206 78.0725 174.565 77.5274L173.73 76.9773ZM172.62 78.6763C172.681 78.5529 172.822 78.4912 172.953 78.5298L172.672 79.4894C173.007 79.5876 173.363 79.4308 173.517 79.118L172.62 78.6763ZM172.91 78.5192C171.795 78.2975 170.643 78.333 169.543 78.6232L169.798 79.5901C170.751 79.3387 171.749 79.3079 172.715 79.5L172.91 78.5192ZM169.614 78.6098C169.672 78.6032 169.731 78.6223 169.774 78.6621L169.094 79.396C169.265 79.5539 169.496 79.6297 169.727 79.6034L169.614 78.6098ZM169.801 78.6895C169.327 78.1767 168.86 77.6536 168.401 77.1202L167.643 77.7725C168.11 78.3149 168.584 78.8469 169.067 79.3686L169.801 78.6895ZM168.397 77.1155C168.264 76.9648 168.058 76.7673 167.754 76.7365C167.457 76.7064 167.213 76.8516 167.048 76.9671L167.622 77.7859C167.651 77.7661 167.673 77.752 167.69 77.7422C167.707 77.7322 167.717 77.728 167.72 77.7267C167.723 77.7255 167.718 77.7279 167.706 77.73C167.693 77.7322 167.674 77.7336 167.653 77.7314C167.631 77.7292 167.613 77.7241 167.598 77.7184C167.584 77.7129 167.577 77.7081 167.578 77.7083C167.578 77.7087 167.584 77.7131 167.597 77.7248C167.609 77.7364 167.626 77.7532 167.647 77.7771L168.397 77.1155ZM167.049 76.9668C166.376 77.4372 165.712 77.9045 165.04 78.3642L165.604 79.1896C166.282 78.7261 166.952 78.2545 167.622 77.7862L167.049 76.9668ZM165.037 78.3658C164.862 78.4875 164.648 78.6686 164.567 78.9522C164.482 79.2477 164.578 79.5174 164.685 79.7227L165.571 79.2586C165.541 79.2021 165.535 79.1755 165.534 79.171C165.533 79.1699 165.535 79.1759 165.535 79.1872C165.534 79.199 165.532 79.2131 165.528 79.228C165.519 79.2597 165.506 79.272 165.513 79.2636C165.523 79.2526 165.549 79.2278 165.607 79.188L165.037 78.3658ZM164.688 79.7279C164.991 80.2899 165.297 80.8531 165.605 81.4177L166.482 80.9385C166.175 80.3755 165.87 79.8138 165.568 79.2534L164.688 79.7279ZM165.635 81.4663C165.555 81.3536 165.572 81.1996 165.673 81.106L166.352 81.8399C166.619 81.5931 166.662 81.1869 166.452 80.8899L165.635 81.4663ZM165.618 81.1653C165.331 81.5333 165.071 81.9218 164.841 82.3276L165.71 82.8216C165.917 82.4581 166.15 82.1101 166.407 81.7805L165.618 81.1653ZM164.824 82.3601C164.597 82.8386 164.394 83.3285 164.218 83.828L165.161 84.1608C165.326 83.694 165.515 83.2362 165.727 82.7891L164.824 82.3601ZM164.204 83.8773C164.224 83.792 164.295 83.728 164.382 83.7162L164.516 84.7071C164.838 84.6635 165.1 84.427 165.176 84.1115L164.204 83.8773ZM164.36 83.7197C163.691 83.8409 163.021 83.978 162.362 84.1092L162.557 85.09C163.224 84.9573 163.881 84.8229 164.538 84.7036L164.36 83.7197ZM162.363 84.1089C162.253 84.1305 162.133 84.158 162.023 84.2021C161.908 84.2484 161.775 84.3241 161.671 84.4587C161.567 84.5934 161.526 84.7406 161.51 84.8648C161.495 84.983 161.499 85.1071 161.506 85.2209L162.504 85.1574C162.501 85.1103 162.5 85.0738 162.5 85.0449C162.5 85.0157 162.501 84.9995 162.502 84.9922C162.503 84.9851 162.503 84.9921 162.497 85.0075C162.491 85.0243 162.48 85.0472 162.462 85.0711C162.443 85.0949 162.424 85.1114 162.409 85.1215C162.396 85.1307 162.389 85.1327 162.396 85.13C162.403 85.1272 162.418 85.1218 162.446 85.1145C162.474 85.1072 162.509 85.0992 162.555 85.0902L162.363 84.1089ZM161.506 85.2225C161.534 85.6318 161.564 86.0409 161.594 86.4484C161.624 86.8564 161.654 87.2629 161.681 87.6701L162.679 87.6039C162.651 87.1925 162.621 86.7824 162.591 86.3749C162.561 85.9667 162.531 85.5612 162.504 85.1559L161.506 85.2225ZM161.681 87.6699C161.694 87.8741 161.739 88.1519 161.951 88.3626C162.165 88.5752 162.445 88.6161 162.655 88.6253L162.698 87.6262C162.667 87.6248 162.643 87.6225 162.626 87.62C162.609 87.6175 162.601 87.6152 162.599 87.6147C162.598 87.6143 162.604 87.6162 162.616 87.6226C162.627 87.6293 162.642 87.6394 162.655 87.6532C162.669 87.6671 162.679 87.6808 162.686 87.692C162.692 87.7026 162.694 87.7085 162.693 87.7063C162.692 87.704 162.69 87.6952 162.687 87.6775C162.684 87.6598 162.681 87.6359 162.679 87.6041L161.681 87.6699ZM162.655 88.6253C163.287 88.6521 163.938 88.6875 164.581 88.7032L164.605 87.7035C163.975 87.6881 163.346 87.6537 162.698 87.6262L162.655 88.6253ZM164.633 88.7017C164.508 88.7119 164.395 88.6266 164.37 88.5034L165.351 88.3066C165.276 87.9327 164.932 87.674 164.552 87.705L164.633 88.7017ZM164.392 88.5792C164.782 89.6286 165.396 90.5802 166.192 91.3674L166.896 90.6563C166.203 89.9715 165.668 89.1437 165.329 88.2308L164.392 88.5792ZM166.121 91.2779C166.096 91.2382 166.089 91.1897 166.101 91.1445L167.064 91.4145C167.128 91.1879 167.093 90.945 166.967 90.7458L166.121 91.2779ZM166.105 91.1323C165.9 91.7962 165.685 92.4533 165.47 93.125L166.423 93.4296C166.635 92.7668 166.854 92.0973 167.061 91.4268L166.105 91.1323ZM165.495 93.0633C165.377 93.3123 165.374 93.6006 165.488 93.8516L166.399 93.4395C166.406 93.456 166.406 93.475 166.398 93.4913L165.495 93.0633ZM165.488 93.8516C165.601 94.1026 165.819 94.2911 166.084 94.367L166.36 93.4057C166.377 93.4107 166.391 93.423 166.399 93.4395L165.488 93.8516ZM166.015 94.3414C166.788 94.6932 167.569 95.0526 168.35 95.3922L168.749 94.4752C167.978 94.1399 167.208 93.7855 166.429 93.4312L166.015 94.3414ZM168.381 95.4046C168.656 95.5027 168.962 95.4595 169.198 95.2892L168.614 94.4774C168.644 94.4559 168.683 94.4504 168.718 94.4628L168.381 95.4046ZM169.241 95.2552C169.47 95.049 169.672 94.8139 169.841 94.5558L169.004 94.0082C168.882 94.1939 168.737 94.363 168.572 94.5114L169.241 95.2552ZM169.834 94.566C169.978 94.357 170.111 94.1361 170.236 93.9279C170.364 93.7153 170.484 93.515 170.612 93.3246L169.784 92.7645C169.637 92.9814 169.503 93.2059 169.379 93.4132C169.252 93.625 169.134 93.8191 169.011 93.9981L169.834 94.566ZM170.593 93.3517C170.557 93.3973 170.504 93.425 170.446 93.4277L170.4 92.4287C170.166 92.4394 169.948 92.5521 169.804 92.7374L170.593 93.3517ZM170.351 93.4229C171.379 93.5731 172.427 93.5095 173.429 93.236L173.166 92.2712C172.296 92.5085 171.387 92.5637 170.495 92.4334L170.351 93.4229ZM173.389 93.2452C173.332 93.2557 173.274 93.2405 173.23 93.2036L173.87 92.4355C173.686 92.2818 173.442 92.2182 173.206 92.262L173.389 93.2452ZM173.181 93.1569C173.631 93.6495 174.078 94.1542 174.517 94.6631L175.274 94.0095C174.829 93.4944 174.376 92.9826 173.919 92.4822L173.181 93.1569ZM174.518 94.6635C174.66 94.8278 174.876 95.0631 175.19 95.1198C175.527 95.1808 175.807 95.0112 175.998 94.8774L175.423 94.059C175.346 94.1131 175.308 94.1315 175.294 94.1367C175.288 94.139 175.319 94.1269 175.367 94.1357C175.412 94.1438 175.427 94.1616 175.407 94.1452C175.383 94.1264 175.342 94.0875 175.274 94.0092L174.518 94.6635ZM175.994 94.8801C176.677 94.4099 177.355 93.9319 178.028 93.4461L177.443 92.6353C176.776 93.1167 176.104 93.5904 175.427 94.0563L175.994 94.8801ZM177.958 93.4884C178.199 93.3684 178.375 93.1476 178.438 92.8855L177.466 92.6517C177.472 92.6262 177.489 92.6046 177.513 92.5929L177.958 93.4884ZM178.438 92.8856C178.501 92.6235 178.445 92.3469 178.285 92.1302L177.481 92.7253C177.465 92.7042 177.46 92.6772 177.466 92.6517L178.438 92.8856ZM178.327 92.1973C178.17 91.8956 178.01 91.5972 177.853 91.3026C177.695 91.007 177.54 90.715 177.388 90.4217L176.5 90.8805C176.655 91.1807 176.813 91.4783 176.971 91.7734C177.129 92.0693 177.286 92.3625 177.439 92.6583L178.327 92.1973ZM177.392 90.428C177.426 90.4976 177.426 90.5796 177.392 90.6492L176.497 90.203C176.391 90.4143 176.391 90.6629 176.497 90.8742L177.392 90.428ZM177.333 90.7406C177.995 89.9219 178.483 88.9757 178.764 87.9607L177.801 87.6934C177.556 88.5762 177.132 89.3993 176.555 90.1115L177.333 90.7406ZM178.774 87.9162C178.756 88.0157 178.673 88.0902 178.572 88.097L178.505 87.0993C178.148 87.1233 177.854 87.3865 177.79 87.7379L178.774 87.9162ZM178.632 88.0894C179.288 87.9648 179.946 87.835 180.605 87.7001L180.405 86.7204C179.75 86.8544 179.097 86.9832 178.445 87.1069L178.632 88.0894ZM180.595 87.702C180.784 87.6674 181.102 87.6071 181.302 87.3512C181.503 87.0941 181.483 86.7698 181.469 86.5733L180.472 86.6446C180.475 86.692 180.477 86.7288 180.477 86.7578C180.477 86.7871 180.476 86.8036 180.475 86.8111C180.474 86.8184 180.474 86.8118 180.479 86.797C180.485 86.7808 180.496 86.7587 180.514 86.7357C180.552 86.6868 180.59 86.6744 180.577 86.6797C180.569 86.6826 180.554 86.688 180.525 86.6952C180.497 86.7023 180.461 86.7099 180.415 86.7185L180.595 87.702ZM171.489 89.6856C169.994 89.687 168.644 88.7871 168.071 87.4056L167.148 87.7889C167.876 89.544 169.59 90.6874 171.49 90.6856L171.489 89.6856ZM168.071 87.4056C167.498 86.0241 167.813 84.4333 168.87 83.3752L168.163 82.6684C166.82 84.0127 166.419 86.0338 167.148 87.7889L168.071 87.4056ZM168.87 83.3752C169.928 82.317 171.518 82.0001 172.9 82.5722L173.283 81.6482C171.527 80.9214 169.506 81.3241 168.163 82.6684L168.87 83.3752ZM172.9 82.5722C174.282 83.1442 175.183 84.4926 175.183 85.9883H176.183C176.183 84.0881 175.038 82.375 173.283 81.6482L172.9 82.5722ZM175.183 85.9888C175.184 86.9689 174.795 87.9093 174.103 88.6026L174.81 89.3094C175.69 88.4283 176.184 87.2334 176.183 85.9879L175.183 85.9888ZM174.103 88.6026C173.41 89.296 172.47 89.6856 171.49 89.6856V90.6856C172.735 90.6856 173.93 90.1905 174.81 89.3094L174.103 88.6026Z" fill="#7B39D9"/>
</g>
<g style="mix-blend-mode:multiply">
<path d="M39.7573 153.142L40.2553 153.097L40.2553 153.097L39.7573 153.142ZM39.2608 152.684L39.272 152.184H39.2608V152.684ZM37.4337 152.634L37.4432 152.134L37.4145 152.133L37.386 152.136L37.4337 152.634ZM37.0458 152.347L37.5357 152.247L37.531 152.224L37.5241 152.201L37.0458 152.347ZM36.6928 151.571L37.117 151.306L37.1098 151.295L36.6928 151.571ZM35.6609 150.143L36.0577 149.839L36.0391 149.815L36.0177 149.793L35.6609 150.143ZM35.5988 149.806L36.0569 150.006L36.061 149.997L36.0646 149.987L35.5988 149.806ZM35.948 148.844L35.4759 148.679L35.4759 148.679L35.948 148.844ZM36.301 147.746L36.7849 147.872L36.7906 147.85L36.7943 147.827L36.301 147.746ZM35.6337 147.04L35.8762 146.603L35.869 146.599L35.8617 146.595L35.6337 147.04ZM33.7523 146.07L33.9749 145.622L33.9709 145.62L33.7523 146.07ZM33.1472 146.252L32.7312 145.975L32.7297 145.977L33.1472 146.252ZM32.0688 147.897L31.65 147.624L31.6335 147.649L31.6202 147.676L32.0688 147.897ZM31.8127 148.01L31.9535 147.53L31.9321 147.524L31.9102 147.519L31.8127 148.01ZM28.6706 148.107L28.7271 148.603L28.7631 148.599L28.7981 148.59L28.6706 148.107ZM28.434 148.029L28.0669 148.369L28.0801 148.383L28.0943 148.396L28.434 148.029ZM27.022 146.446L27.401 146.12L27.3969 146.115L27.022 146.446ZM26.3353 146.376L26.6219 146.786L26.6224 146.786L26.3353 146.376ZM24.322 147.777L24.0398 147.364L24.0374 147.366L24.322 147.777ZM24.1281 148.491L23.6851 148.723L23.688 148.728L24.1281 148.491ZM25.0436 150.178L24.6047 150.418L24.6184 150.443L24.635 150.466L25.0436 150.178ZM25.0125 150.473L24.6729 150.106L24.6432 150.133L24.6183 150.165L25.0125 150.473ZM24.2755 151.575L23.8407 151.328L23.8317 151.344L23.8238 151.36L24.2755 151.575ZM23.6897 152.994L23.2182 152.828L23.2097 152.852L23.2036 152.877L23.6897 152.994ZM23.4492 153.212L23.382 152.716L23.371 152.718L23.36 152.72L23.4492 153.212ZM21.4592 153.6L21.5555 154.09L21.5567 154.09L21.4592 153.6ZM21.0053 154.189L20.5063 154.221L20.5064 154.222L21.0053 154.189ZM21.1799 156.637L21.6788 156.604L21.6788 156.604L21.1799 156.637ZM21.6764 157.126L21.6547 157.625L21.6552 157.625L21.6764 157.126ZM23.5927 157.203L23.5805 157.703L23.607 157.704L23.6333 157.702L23.5927 157.203ZM23.8604 157.405L23.3702 157.503L23.378 157.542L23.3917 157.579L23.8604 157.405ZM25.544 160.012L25.9673 159.746L25.9366 159.697L25.8955 159.656L25.544 160.012ZM25.5828 160.28L26.0608 160.427L26.0642 160.414L25.5828 160.28ZM24.9466 162.277L25.3985 162.491L25.4127 162.461L25.4228 162.43L24.9466 162.277ZM24.9433 162.646L25.3989 162.44L25.3989 162.44L24.9433 162.646ZM25.222 162.886L25.4291 162.431L25.3953 162.416L25.3597 162.406L25.222 162.886ZM27.5495 163.934L27.3501 164.392L27.3656 164.399L27.3815 164.405L27.5495 163.934ZM27.9064 163.883L28.1984 164.289L28.2204 164.273L28.2406 164.255L27.9064 163.883ZM28.4223 163.282L28.0107 162.998L28.004 163.008L28.4223 163.282ZM29.1982 162.045L28.8036 161.737L28.7934 161.751L28.784 161.764L29.1982 162.045ZM29.4232 161.928L29.4955 161.433L29.4482 161.427L29.4005 161.429L29.4232 161.928ZM32.2976 161.754L32.2064 161.262L32.186 161.266L32.166 161.271L32.2976 161.754ZM32.5498 161.82L32.9189 161.482L32.896 161.457L32.87 161.436L32.5498 161.82ZM33.8959 163.336L33.5175 163.663L33.5178 163.663L33.8959 163.336ZM34.7105 163.468L34.427 163.056L34.4232 163.059L34.7105 163.468ZM36.7354 162.041L36.5129 161.593L36.4761 161.611L36.4428 161.635L36.7354 162.041ZM36.9522 161.769L36.4661 161.652L36.466 161.652L36.9522 161.769ZM36.8829 161.428L36.4391 161.658L36.4574 161.693L36.481 161.725L36.8829 161.428ZM35.9441 159.651L35.4966 159.874L35.4998 159.88L35.9441 159.651ZM35.9441 159.426L35.5554 159.112L35.521 159.154L35.4966 159.203L35.9441 159.426ZM37.2824 156.827L37.7642 156.961L37.7703 156.939L37.7744 156.916L37.2824 156.827ZM37.5384 156.598L37.5721 157.097L37.6021 157.095L37.6316 157.089L37.5384 156.598ZM39.5052 156.21L39.4149 155.718L39.4049 155.72L39.5052 156.21ZM26.6093 156.597L26.1475 156.789L26.1475 156.789L26.6093 156.597ZM27.5167 152.022L27.163 151.668L27.163 151.668L27.5167 152.022ZM32.0913 151.11L32.2826 150.648L32.0913 151.11ZM34.6833 154.988H34.1833L34.1833 154.989L34.6833 154.988ZM33.4564 157.956L33.8102 158.309L33.8102 158.309L33.4564 157.956ZM40.4691 155.569C40.4029 154.744 40.329 153.919 40.2553 153.097L39.2593 153.186C39.3331 154.009 39.4066 154.829 39.4723 155.649L40.4691 155.569ZM40.2553 153.097C40.2369 152.894 40.1845 152.621 39.9651 152.42C39.748 152.22 39.4728 152.189 39.272 152.184L39.2496 153.184C39.2804 153.185 39.3034 153.186 39.3202 153.188C39.3371 153.19 39.3453 153.192 39.3469 153.193C39.3483 153.193 39.3418 153.192 39.3303 153.186C39.3184 153.179 39.3037 153.17 39.2887 153.156C39.2815 153.149 39.2749 153.143 39.2691 153.135C39.2633 153.128 39.2586 153.122 39.2549 153.116C39.2475 153.104 39.2448 153.097 39.2449 153.097C39.245 153.097 39.2474 153.104 39.2504 153.12C39.2535 153.135 39.2567 153.157 39.2594 153.187L40.2553 153.097ZM39.2608 152.184C38.6474 152.184 38.0927 152.146 37.4432 152.134L37.4241 153.134C37.9928 153.144 38.6561 153.184 39.2608 153.184V152.184ZM37.386 152.136C37.4569 152.129 37.5215 152.177 37.5357 152.247L36.5559 152.446C36.6438 152.878 37.0431 153.173 37.4814 153.131L37.386 152.136ZM37.5241 152.201C37.4281 151.886 37.2912 151.585 37.1169 151.306L36.2687 151.836C36.3966 152.04 36.4971 152.261 36.5675 152.492L37.5241 152.201ZM37.1098 151.295C36.7744 150.788 36.417 150.308 36.0577 149.839L35.2641 150.447C35.6186 150.91 35.9595 151.368 36.2757 151.847L37.1098 151.295ZM36.0177 149.793C36.0731 149.849 36.0886 149.934 36.0569 150.006L35.1408 149.605C35.0088 149.907 35.0735 150.258 35.3041 150.493L36.0177 149.793ZM36.0646 149.987C36.1926 149.66 36.308 149.329 36.42 149.009L35.4759 148.679C35.363 149.002 35.2534 149.316 35.1331 149.624L36.0646 149.987ZM36.42 149.009C36.5298 148.694 36.6777 148.284 36.7849 147.872L35.8171 147.62C35.7225 147.984 35.5911 148.349 35.4759 148.679L36.42 149.009ZM36.7943 147.827C36.8231 147.652 36.806 147.478 36.7333 147.314C36.6636 147.157 36.557 147.043 36.4579 146.959C36.2839 146.813 36.0298 146.688 35.8762 146.603L35.3913 147.477C35.5088 147.542 35.5773 147.577 35.6636 147.626C35.7411 147.671 35.7866 147.701 35.8143 147.725C35.8403 147.746 35.8307 147.746 35.8194 147.72C35.8052 147.688 35.8079 147.663 35.8076 147.665L36.7943 147.827ZM35.8617 146.595C35.2472 146.28 34.6086 145.937 33.9749 145.622L33.5298 146.518C34.1607 146.831 34.7634 147.156 35.4058 147.485L35.8617 146.595ZM33.9709 145.62C33.7816 145.528 33.5293 145.45 33.256 145.538C32.9961 145.622 32.8347 145.82 32.7312 145.975L33.5632 146.53C33.5776 146.508 33.5893 146.492 33.5984 146.481C33.6075 146.47 33.6128 146.465 33.614 146.464C33.6151 146.463 33.6113 146.467 33.6022 146.472C33.5927 146.478 33.5792 146.485 33.562 146.49C33.5447 146.496 33.5277 146.499 33.5124 146.5C33.4974 146.501 33.4871 146.499 33.483 146.499C33.4791 146.498 33.4811 146.498 33.4901 146.501C33.4992 146.504 33.5135 146.51 33.5338 146.52L33.9709 145.62ZM32.7297 145.977C32.3698 146.524 32.0099 147.072 31.65 147.624L32.4875 148.17C32.8466 147.62 33.2056 147.072 33.5647 146.527L32.7297 145.977ZM31.6202 147.676C31.6809 147.553 31.8216 147.491 31.9535 147.53L31.672 148.489C32.0066 148.588 32.3633 148.431 32.5174 148.118L31.6202 147.676ZM31.9102 147.519C30.7945 147.297 29.643 147.333 28.5431 147.623L28.7981 148.59C29.751 148.339 30.7487 148.308 31.7153 148.5L31.9102 147.519ZM28.6142 147.61C28.6724 147.603 28.7306 147.622 28.7736 147.662L28.0943 148.396C28.265 148.554 28.496 148.63 28.7271 148.603L28.6142 147.61ZM28.801 147.69C28.3267 147.177 27.86 146.654 27.4009 146.12L26.643 146.772C27.1097 147.315 27.5844 147.847 28.0669 148.369L28.801 147.69ZM27.3969 146.115C27.2639 145.965 27.0576 145.767 26.7538 145.736C26.4569 145.706 26.213 145.852 26.0482 145.967L26.6224 146.786C26.6506 146.766 26.6728 146.752 26.69 146.742C26.7073 146.732 26.717 146.728 26.7203 146.727C26.7234 146.725 26.718 146.728 26.7056 146.73C26.6925 146.732 26.6743 146.734 26.6529 146.731C26.6315 146.729 26.6128 146.724 26.5982 146.718C26.5843 146.713 26.5773 146.708 26.5776 146.708C26.5781 146.709 26.5844 146.713 26.597 146.725C26.6095 146.736 26.6259 146.753 26.647 146.777L27.3969 146.115ZM26.0488 145.967C25.3761 146.437 24.7119 146.904 24.0398 147.364L24.6043 148.19C25.2821 147.726 25.9524 147.255 26.6219 146.786L26.0488 145.967ZM24.0374 147.366C23.8617 147.487 23.6483 147.669 23.567 147.952C23.4822 148.248 23.5776 148.517 23.6852 148.723L24.571 148.259C24.5414 148.202 24.5346 148.176 24.5337 148.171C24.5335 148.17 24.5348 148.176 24.5345 148.187C24.5343 148.199 24.5325 148.213 24.5282 148.228C24.5191 148.26 24.5058 148.272 24.5133 148.264C24.5231 148.253 24.5491 148.228 24.6066 148.188L24.0374 147.366ZM23.688 148.728C23.9909 149.29 24.2965 149.853 24.6047 150.418L25.4824 149.939C25.1751 149.376 24.8703 148.814 24.5682 148.253L23.688 148.728ZM24.635 150.466C24.5555 150.354 24.5718 150.2 24.6729 150.106L25.3521 150.84C25.6188 150.593 25.6617 150.187 25.4521 149.89L24.635 150.466ZM24.6183 150.165C24.3312 150.533 24.0713 150.922 23.8407 151.328L24.7102 151.822C24.9167 151.458 25.1495 151.11 25.4067 150.781L24.6183 150.165ZM23.8238 151.36C23.5966 151.839 23.3944 152.329 23.2182 152.828L24.1612 153.161C24.3259 152.694 24.5148 152.236 24.7271 151.789L23.8238 151.36ZM23.2036 152.877C23.2242 152.792 23.295 152.728 23.382 152.716L23.5164 153.707C23.838 153.663 24.0998 153.427 24.1758 153.112L23.2036 152.877ZM23.36 152.72C22.6912 152.841 22.0212 152.978 21.3617 153.109L21.5567 154.09C22.2238 153.957 22.8805 153.823 23.5384 153.704L23.36 152.72ZM21.3629 153.109C21.2528 153.131 21.1327 153.158 21.023 153.202C20.9076 153.248 20.7754 153.324 20.6711 153.459C20.5668 153.593 20.5264 153.741 20.5105 153.865C20.4953 153.983 20.4991 154.107 20.5063 154.221L21.5043 154.157C21.5013 154.11 21.5 154.074 21.5 154.045C21.5 154.016 21.5014 154 21.5023 153.992C21.5032 153.985 21.503 153.992 21.4974 154.007C21.4913 154.024 21.4802 154.047 21.4617 154.071C21.4432 154.095 21.4238 154.111 21.4092 154.122C21.3957 154.131 21.389 154.133 21.3957 154.13C21.4026 154.127 21.4179 154.122 21.446 154.114C21.4739 154.107 21.5094 154.099 21.5555 154.09L21.3629 153.109ZM20.5064 154.222C20.5337 154.632 20.5639 155.041 20.594 155.448C20.624 155.856 20.654 156.263 20.681 156.67L21.6788 156.604C21.6515 156.192 21.6213 155.782 21.5913 155.375C21.5612 154.967 21.5312 154.561 21.5042 154.156L20.5064 154.222ZM20.681 156.67C20.6944 156.874 20.7385 157.152 20.9506 157.363C21.1646 157.575 21.4445 157.616 21.6547 157.625L21.6981 156.626C21.6665 156.625 21.643 156.623 21.6259 156.62C21.6087 156.618 21.6006 156.615 21.599 156.615C21.5977 156.614 21.6044 156.616 21.6156 156.623C21.6274 156.629 21.6415 156.639 21.6555 156.653C21.6694 156.667 21.6793 156.681 21.6857 156.692C21.6919 156.703 21.6936 156.708 21.6929 156.706C21.6921 156.704 21.6895 156.695 21.6866 156.677C21.6837 156.66 21.6809 156.636 21.6788 156.604L20.681 156.67ZM21.6552 157.625C22.2871 157.652 22.9384 157.688 23.5805 157.703L23.6049 156.703C22.9747 156.688 22.3459 156.654 21.6976 156.626L21.6552 157.625ZM23.6333 157.702C23.5079 157.712 23.3949 157.627 23.3702 157.503L24.3506 157.307C24.2756 156.933 23.9325 156.674 23.5522 156.705L23.6333 157.702ZM23.3917 157.579C23.7818 158.629 24.3963 159.58 25.1924 160.367L25.8955 159.656C25.203 158.972 24.6684 158.144 24.3291 157.231L23.3917 157.579ZM25.1207 160.278C25.0957 160.238 25.0887 160.19 25.1013 160.145L26.0642 160.414C26.1277 160.188 26.0925 159.945 25.9673 159.746L25.1207 160.278ZM25.1049 160.132C24.9004 160.796 24.6851 161.453 24.4703 162.125L25.4228 162.43C25.6347 161.767 25.854 161.097 26.0606 160.427L25.1049 160.132ZM24.4947 162.063C24.3768 162.312 24.3742 162.601 24.4878 162.852L25.3989 162.44C25.4064 162.456 25.4062 162.475 25.3985 162.491L24.4947 162.063ZM24.4877 162.852C24.6013 163.103 24.8194 163.291 25.0843 163.367L25.3597 162.406C25.3771 162.411 25.3915 162.423 25.3989 162.44L24.4877 162.852ZM25.0149 163.341C25.7881 163.693 26.5693 164.053 27.3501 164.392L27.749 163.475C26.9781 163.14 26.2076 162.785 25.4291 162.431L25.0149 163.341ZM27.3815 164.405C27.6562 164.503 27.9616 164.46 28.1984 164.289L27.6144 163.477C27.6443 163.456 27.6829 163.45 27.7176 163.463L27.3815 164.405ZM28.2406 164.255C28.47 164.049 28.6718 163.814 28.8407 163.556L28.004 163.008C27.8824 163.194 27.7373 163.363 27.5722 163.511L28.2406 164.255ZM28.8339 163.566C28.9781 163.357 29.111 163.136 29.236 162.928C29.3637 162.715 29.4836 162.515 29.6124 162.325L28.784 161.764C28.6373 161.981 28.5031 162.206 28.3787 162.413C28.2515 162.625 28.1342 162.819 28.0108 162.998L28.8339 163.566ZM29.5927 162.352C29.5572 162.397 29.5036 162.425 29.4459 162.428L29.4005 161.429C29.166 161.439 28.9479 161.552 28.8036 161.737L29.5927 162.352ZM29.3509 162.423C30.3789 162.573 31.4269 162.509 32.4293 162.236L32.166 161.271C31.2965 161.509 30.3873 161.564 29.4955 161.433L29.3509 162.423ZM32.3888 162.245C32.3322 162.256 32.2738 162.24 32.2296 162.204L32.87 161.436C32.6856 161.282 32.4424 161.218 32.2064 161.262L32.3888 162.245ZM32.1807 162.157C32.6311 162.65 33.0779 163.154 33.5175 163.663L34.2743 163.01C33.8294 162.494 33.3763 161.983 32.9189 161.482L32.1807 162.157ZM33.5178 163.663C33.6599 163.828 33.8757 164.063 34.1895 164.12C34.527 164.181 34.8072 164.011 34.9978 163.877L34.4232 163.059C34.3461 163.113 34.3076 163.132 34.294 163.137C34.2878 163.139 34.3187 163.127 34.3674 163.136C34.4119 163.144 34.4275 163.162 34.4065 163.145C34.3825 163.126 34.3418 163.088 34.274 163.009L33.5178 163.663ZM34.994 163.88C35.6772 163.41 36.3553 162.932 37.0281 162.446L36.4428 161.635C35.776 162.117 35.1041 162.59 34.427 163.056L34.994 163.88ZM36.958 162.488C37.1994 162.368 37.3753 162.148 37.4383 161.885L36.466 161.652C36.4722 161.626 36.4893 161.605 36.5129 161.593L36.958 162.488ZM37.4383 161.886C37.5014 161.623 37.4451 161.347 37.2847 161.13L36.481 161.725C36.4654 161.704 36.4599 161.677 36.4661 161.652L37.4383 161.886ZM37.3266 161.197C37.1699 160.896 37.0104 160.597 36.8531 160.303C36.6954 160.007 36.5398 159.715 36.3884 159.422L35.4998 159.88C35.6548 160.181 35.8134 160.478 35.9709 160.773C36.1289 161.069 36.2855 161.363 36.4391 161.658L37.3266 161.197ZM36.3916 159.428C36.4263 159.498 36.4263 159.58 36.3916 159.649L35.4966 159.203C35.3913 159.414 35.3913 159.663 35.4966 159.874L36.3916 159.428ZM36.3328 159.741C36.9954 158.922 37.4826 157.976 37.7642 156.961L36.8006 156.693C36.5557 157.576 36.1318 158.399 35.5554 159.112L36.3328 159.741ZM37.7744 156.916C37.7564 157.016 37.673 157.09 37.5721 157.097L37.5048 156.099C37.1485 156.123 36.8541 156.386 36.7904 156.738L37.7744 156.916ZM37.6316 157.089C38.2883 156.965 38.9462 156.835 39.6055 156.7L39.4049 155.72C38.7504 155.854 38.0971 155.983 37.4452 156.107L37.6316 157.089ZM39.5954 156.702C39.784 156.667 40.1024 156.607 40.3022 156.351C40.503 156.094 40.4834 155.77 40.4694 155.573L39.4719 155.645C39.4753 155.692 39.4768 155.729 39.4769 155.758C39.477 155.787 39.4756 155.804 39.4746 155.811C39.4737 155.818 39.4738 155.812 39.4793 155.797C39.4853 155.781 39.4961 155.759 39.514 155.736C39.5522 155.687 39.5902 155.674 39.5767 155.68C39.5695 155.683 39.5538 155.688 39.5254 155.695C39.4973 155.702 39.4614 155.71 39.415 155.718L39.5954 156.702ZM30.4894 158.686C28.9937 158.687 27.6445 157.787 27.0711 156.406L26.1475 156.789C26.8759 158.544 28.5901 159.687 30.4903 159.686L30.4894 158.686ZM27.0711 156.406C26.4978 155.024 26.8133 153.433 27.8704 152.375L27.163 151.668C25.8199 153.013 25.4191 155.034 26.1475 156.789L27.0711 156.406ZM27.8704 152.375C28.9276 151.317 30.5181 151 31.9001 151.572L32.2826 150.648C30.5268 149.921 28.5061 150.324 27.163 151.668L27.8704 152.375ZM31.9001 151.572C33.2821 152.144 34.1833 153.493 34.1833 154.988H35.1833C35.1833 153.088 34.0383 151.375 32.2826 150.648L31.9001 151.572ZM34.1833 154.989C34.1842 155.969 33.7955 156.909 33.1027 157.603L33.8102 158.309C34.6905 157.428 35.1844 156.233 35.1833 154.988L34.1833 154.989ZM33.1027 157.603C32.41 158.296 31.47 158.686 30.4899 158.686V159.686C31.7354 159.686 32.9298 159.191 33.8102 158.309L33.1027 157.603Z" fill="#FA5A28"/>
</g>
<path fill-rule="evenodd" clip-rule="evenodd" d="M134 46.616L146.139 39.6074L158.278 46.616V60.6331L146.139 67.6417L134 60.6331V46.616Z" fill="white" stroke="#E5E5E5"/>
<path fill-rule="evenodd" clip-rule="evenodd" d="M136.853 48.2627L146.139 42.9009L155.425 48.2627V58.9862L146.139 64.348L136.853 58.9862V48.2627Z" fill="url(#paint3_linear)"/>
<path d="M28.9861 110.009L52.9999 101.642" stroke="#FA5A28" stroke-linecap="round" stroke-linejoin="round" stroke-dasharray="2 2"/>
<path d="M49.9999 40.6416C49.9999 41.6416 64.7053 63.1992 64.7053 63.1992" stroke="#FA5A28" stroke-linecap="round" stroke-linejoin="round" stroke-dasharray="2 2"/>
<path d="M133 59.6416L109.242 71.6592" stroke="#FA5A28" stroke-linecap="round" stroke-linejoin="round" stroke-dasharray="2 2"/>
<path d="M135 114.642L109 105.642" stroke="#FA5A28" stroke-linecap="round" stroke-linejoin="round" stroke-dasharray="2 2"/>
<path fill-rule="evenodd" clip-rule="evenodd" d="M25.9999 110.142C25.9999 108.761 27.1192 107.642 28.4999 107.642C29.8806 107.642 30.9999 108.761 30.9999 110.142C30.9999 111.522 29.8806 112.642 28.4999 112.642C27.1192 112.642 25.9999 111.522 25.9999 110.142Z" fill="white" stroke="#FA5A28"/>
<path fill-rule="evenodd" clip-rule="evenodd" d="M47.9999 41.1411C47.9999 39.7604 49.1192 38.6411 50.4999 38.6411C51.8806 38.6411 52.9999 39.7604 52.9999 41.1411C52.9999 42.5218 51.8806 43.6411 50.4999 43.6411C49.1192 43.6411 47.9999 42.5218 47.9999 41.1411Z" fill="white" stroke="#FA5A28"/>
<path fill-rule="evenodd" clip-rule="evenodd" d="M131 60.1416C131 58.7609 132.119 57.6416 133.5 57.6416C134.881 57.6416 136 58.7609 136 60.1416C136 61.5223 134.881 62.6416 133.5 62.6416C132.119 62.6416 131 61.5223 131 60.1416Z" fill="white" stroke="#FA5A28"/>
<path fill-rule="evenodd" clip-rule="evenodd" d="M133 115.141C133 113.76 134.119 112.641 135.5 112.641C136.881 112.641 138 113.76 138 115.141C138 116.522 136.881 117.641 135.5 117.641C134.119 117.641 133 116.522 133 115.141Z" fill="white" stroke="#FA5A28"/>
<path fill-rule="evenodd" clip-rule="evenodd" d="M150.423 51.6342L150.286 51.5962C150.221 51.5841 150.158 51.5612 150.101 51.5285C150.497 51.0559 150.684 50.4461 150.62 49.8362V49.595C150.62 48.7141 149.897 48 149.004 48C148.112 48 147.389 48.7141 147.389 49.595V49.815C147.318 50.432 147.506 51.0506 147.907 51.5285L147.86 51.5538C147.462 50.9228 146.762 50.5392 146.009 50.5392C145.255 50.5392 144.555 50.9228 144.157 51.5538L144.11 51.5285C144.506 51.0559 144.693 50.4461 144.629 49.8362V49.595C144.615 48.7149 143.892 48.0068 143 48C142.113 48.0136 141.398 48.7198 141.384 49.595V49.815C141.314 50.432 141.501 51.0506 141.903 51.5285C141.844 51.5617 141.781 51.5846 141.714 51.5962L141.577 51.6342C140.793 51.8923 140 52.6158 140 53.5C140 53.7337 140.192 53.9231 140.429 53.9231C140.665 53.9231 140.857 53.7337 140.857 53.5C140.857 53.0388 141.363 52.5988 141.851 52.4381C141.88 52.4265 141.911 52.418 141.941 52.4127C142.2 52.3583 142.432 52.2197 142.601 52.0192C142.859 52.1096 143.141 52.1096 143.399 52.0192C143.508 52.1628 143.657 52.2729 143.827 52.3365C143.804 52.4622 143.791 52.5896 143.789 52.7173C143.789 52.8315 143.789 52.9415 143.789 53.0515C143.789 53.8469 143.767 54.6719 144.594 55.59C144.556 55.8227 144.423 55.8608 144.127 55.9412L143.934 55.9962C142.833 56.3431 141.714 57.35 141.714 58.5769C141.714 58.8106 141.906 59 142.143 59C142.38 59 142.571 58.8106 142.571 58.5769C142.571 57.79 143.403 57.0454 144.209 56.7831C144.256 56.7659 144.305 56.7518 144.354 56.7408C144.746 56.669 145.089 56.4389 145.301 56.1062C145.748 56.2923 146.252 56.2923 146.699 56.1062C146.911 56.4389 147.254 56.669 147.646 56.7408C147.695 56.7518 147.744 56.7659 147.791 56.7831C148.597 57.0454 149.429 57.79 149.429 58.5769C149.429 58.8106 149.62 59 149.857 59C150.094 59 150.286 58.8106 150.286 58.5769C150.286 57.35 149.167 56.3431 148.066 55.9792L147.873 55.9242C147.577 55.8438 147.444 55.8058 147.406 55.5731C148.233 54.6719 148.229 53.8469 148.211 53.0346C148.211 52.9246 148.211 52.8146 148.211 52.7004C148.209 52.5726 148.196 52.4453 148.173 52.3196C148.343 52.2559 148.492 52.1459 148.601 52.0023C148.859 52.0927 149.141 52.0927 149.399 52.0023C149.568 52.2028 149.8 52.3414 150.059 52.3958C150.089 52.4011 150.12 52.4096 150.149 52.4212C150.637 52.5988 151.143 53.0388 151.143 53.5C151.143 53.7337 151.335 53.9231 151.571 53.9231C151.808 53.9231 152 53.7337 152 53.5C152 52.6158 151.207 51.8923 150.423 51.6342ZM142.661 51.1012C142.313 50.7754 142.152 50.2991 142.233 49.8319C142.233 49.7515 142.233 49.6754 142.233 49.595C142.244 49.1829 142.582 48.8528 143 48.8462C143.414 48.8572 143.747 49.1861 143.759 49.595C143.759 49.6754 143.759 49.7515 143.759 49.8319C143.84 50.2991 143.679 50.7754 143.33 51.1012C143.141 51.2732 142.85 51.2732 142.661 51.1012ZM145.34 55.1288C144.62 54.4181 144.629 53.8596 144.646 53.0685C144.646 52.9542 144.646 52.8358 144.646 52.7173C144.646 51.9813 145.25 51.3846 145.996 51.3846C146.741 51.3846 147.346 51.9813 147.346 52.7173C147.346 52.8358 147.346 52.9542 147.346 53.0685C147.346 53.8512 147.371 54.4181 146.651 55.1288C146.282 55.4695 145.709 55.4695 145.34 55.1288ZM148.661 51.1012C148.313 50.7754 148.152 50.2991 148.233 49.8319C148.233 49.7515 148.233 49.6754 148.233 49.595C148.233 49.1814 148.572 48.8462 148.991 48.8462C149.41 48.8462 149.75 49.1814 149.75 49.595C149.75 49.6754 149.75 49.7515 149.75 49.8319C149.831 50.2991 149.67 50.7754 149.321 51.1012C149.134 51.268 148.849 51.268 148.661 51.1012Z" fill="white"/>
<path fill-rule="evenodd" clip-rule="evenodd" d="M18.4229 117.634L18.2857 117.596C18.2208 117.584 18.1585 117.561 18.1014 117.528C18.4974 117.056 18.6842 116.446 18.62 115.836V115.595C18.62 114.714 17.8966 114 17.0043 114C16.112 114 15.3886 114.714 15.3886 115.595V115.815C15.3184 116.432 15.5056 117.051 15.9071 117.528L15.86 117.554C15.4617 116.923 14.7618 116.539 14.0086 116.539C13.2554 116.539 12.5555 116.923 12.1571 117.554L12.11 117.528C12.5059 117.056 12.6928 116.446 12.6286 115.836V115.595C12.6146 114.715 11.8916 114.007 11 114C10.1134 114.014 9.39807 114.72 9.38429 115.595V115.815C9.31411 116.432 9.50133 117.051 9.90286 117.528C9.84447 117.562 9.78066 117.585 9.71429 117.596L9.57714 117.634C8.79286 117.892 8 118.616 8 119.5C8 119.734 8.19188 119.923 8.42857 119.923C8.66526 119.923 8.85714 119.734 8.85714 119.5C8.85714 119.039 9.36286 118.599 9.85143 118.438C9.88045 118.427 9.91062 118.418 9.94143 118.413C10.1999 118.358 10.4323 118.22 10.6014 118.019C10.8593 118.11 11.1407 118.11 11.3986 118.019C11.5082 118.163 11.6568 118.273 11.8271 118.337C11.8037 118.462 11.7908 118.59 11.7886 118.717C11.7886 118.832 11.7886 118.942 11.7886 119.052C11.7886 119.847 11.7671 120.672 12.5943 121.59C12.5557 121.823 12.4229 121.861 12.1271 121.941L11.9343 121.996C10.8329 122.343 9.71429 123.35 9.71429 124.577C9.71429 124.811 9.90616 125 10.1429 125C10.3796 125 10.5714 124.811 10.5714 124.577C10.5714 123.79 11.4029 123.045 12.2086 122.783C12.2562 122.766 12.3048 122.752 12.3543 122.741C12.7459 122.669 13.0892 122.439 13.3014 122.106C13.748 122.292 14.252 122.292 14.6986 122.106C14.9108 122.439 15.2541 122.669 15.6457 122.741C15.6952 122.752 15.7438 122.766 15.7914 122.783C16.5971 123.045 17.4286 123.79 17.4286 124.577C17.4286 124.811 17.6204 125 17.8571 125C18.0938 125 18.2857 124.811 18.2857 124.577C18.2857 123.35 17.1671 122.343 16.0657 121.979L15.8729 121.924C15.5771 121.844 15.4443 121.806 15.4057 121.573C16.2329 120.672 16.2286 119.847 16.2114 119.035C16.2114 118.925 16.2114 118.815 16.2114 118.7C16.2092 118.573 16.1963 118.445 16.1729 118.32C16.3432 118.256 16.4918 118.146 16.6014 118.002C16.8593 118.093 17.1407 118.093 17.3986 118.002C17.5677 118.203 17.8001 118.341 18.0586 118.396C18.0894 118.401 18.1195 118.41 18.1486 118.421C18.6371 118.599 19.1429 119.039 19.1429 119.5C19.1429 119.734 19.3347 119.923 19.5714 119.923C19.8081 119.923 20 119.734 20 119.5C20 118.616 19.2071 117.892 18.4229 117.634ZM10.6614 117.101C10.3126 116.775 10.1517 116.299 10.2329 115.832C10.2329 115.752 10.2329 115.675 10.2329 115.595C10.2443 115.183 10.5825 114.853 11 114.846C11.4142 114.857 11.7473 115.186 11.7586 115.595C11.7586 115.675 11.7586 115.752 11.7586 115.832C11.8397 116.299 11.6789 116.775 11.33 117.101C11.1412 117.273 10.8502 117.273 10.6614 117.101ZM13.34 121.129C12.62 120.418 12.6286 119.86 12.6457 119.068C12.6457 118.954 12.6457 118.836 12.6457 118.717C12.6457 117.981 13.2501 117.385 13.9957 117.385C14.7413 117.385 15.3457 117.981 15.3457 118.717C15.3457 118.836 15.3457 118.954 15.3457 119.068C15.3457 119.851 15.3714 120.418 14.6514 121.129C14.2824 121.47 13.709 121.47 13.34 121.129ZM16.6614 117.101C16.3126 116.775 16.1517 116.299 16.2329 115.832C16.2329 115.752 16.2329 115.675 16.2329 115.595C16.2329 115.181 16.5725 114.846 16.9914 114.846C17.4104 114.846 17.75 115.181 17.75 115.595C17.75 115.675 17.75 115.752 17.75 115.832C17.8311 116.299 17.6703 116.775 17.3214 117.101C17.1339 117.268 16.849 117.268 16.6614 117.101Z" fill="white"/>
<path d="M67.5091 96L65.3311 84.264H68.0491L68.8591 89.754C68.9311 90.366 69.0091 90.984 69.0931 91.608C69.1771 92.22 69.2551 92.838 69.3271 93.462H69.3991C69.5191 92.838 69.6331 92.22 69.7411 91.608C69.8611 90.984 69.9811 90.366 70.1011 89.754L71.3611 84.264H73.6111L74.8711 89.754C74.9911 90.354 75.1051 90.966 75.2131 91.59C75.3331 92.202 75.4531 92.826 75.5731 93.462H75.6451C75.7291 92.826 75.8071 92.202 75.8791 91.59C75.9631 90.978 76.0471 90.366 76.1311 89.754L76.9411 84.264H79.4791L77.3911 96H74.0611L72.9091 90.672C72.8131 90.216 72.7231 89.76 72.6391 89.304C72.5671 88.836 72.5011 88.386 72.4411 87.954H72.3691C72.2971 88.386 72.2191 88.836 72.1351 89.304C72.0631 89.76 71.9791 90.216 71.8831 90.672L70.7851 96H67.5091ZM81.1077 96V84.264H85.1397C85.7877 84.264 86.3937 84.33 86.9577 84.462C87.5217 84.582 88.0137 84.792 88.4337 85.092C88.8537 85.38 89.1837 85.77 89.4237 86.262C89.6757 86.742 89.8017 87.336 89.8017 88.044C89.8017 88.728 89.6757 89.322 89.4237 89.826C89.1837 90.33 88.8537 90.744 88.4337 91.068C88.0137 91.392 87.5277 91.632 86.9757 91.788C86.4237 91.944 85.8357 92.022 85.2117 92.022H83.7537V96H81.1077ZM83.7537 89.916H85.0497C86.4897 89.916 87.2097 89.292 87.2097 88.044C87.2097 87.432 87.0177 87 86.6337 86.748C86.2497 86.496 85.6977 86.37 84.9777 86.37H83.7537V89.916ZM96.7263 96.216C95.9823 96.216 95.2803 96.09 94.6203 95.838C93.9603 95.574 93.3783 95.19 92.8743 94.686C92.3823 94.182 91.9923 93.558 91.7043 92.814C91.4163 92.058 91.2723 91.188 91.2723 90.204C91.2723 89.232 91.4223 88.368 91.7223 87.612C92.0223 86.844 92.4243 86.196 92.9283 85.668C93.4323 85.14 94.0203 84.738 94.6923 84.462C95.3643 84.186 96.0723 84.048 96.8163 84.048C97.5723 84.048 98.2503 84.204 98.8503 84.516C99.4503 84.816 99.9483 85.17 100.344 85.578L98.9403 87.27C98.6403 86.994 98.3223 86.772 97.9863 86.604C97.6623 86.424 97.2903 86.334 96.8703 86.334C96.4743 86.334 96.0963 86.424 95.7363 86.604C95.3883 86.772 95.0823 87.018 94.8183 87.342C94.5663 87.666 94.3623 88.062 94.2063 88.53C94.0623 88.998 93.9903 89.526 93.9903 90.114C93.9903 91.326 94.2483 92.268 94.7643 92.94C95.2803 93.6 95.9703 93.93 96.8343 93.93C97.3143 93.93 97.7403 93.828 98.1123 93.624C98.4963 93.408 98.8323 93.144 99.1203 92.832L100.524 94.488C99.5403 95.64 98.2743 96.216 96.7263 96.216Z" fill="#FA5A28"/>
</g>
<defs>
<linearGradient id="paint0_linear" x1="177.762" y1="125.125" x2="148.206" y2="99.53" gradientUnits="userSpaceOnUse">
<stop stop-color="#EE7170"/>
<stop offset="1" stop-color="#8F3DDC"/>
</linearGradient>
<linearGradient id="paint1_linear" x1="36.189" y1="119.124" x2="11.1762" y2="97.464" gradientUnits="userSpaceOnUse">
<stop stop-color="#9033EA"/>
<stop offset="1" stop-color="#483EB7"/>
</linearGradient>
<linearGradient id="paint2_linear" x1="15.685" y1="52.3081" x2="47.2046" y2="51.3605" gradientUnits="userSpaceOnUse">
<stop stop-color="#9839C3"/>
<stop offset="1" stop-color="#F94F24"/>
</linearGradient>
<linearGradient id="paint3_linear" x1="137.757" y1="47.61" x2="124.979" y2="65.2574" gradientUnits="userSpaceOnUse">
<stop stop-color="#8033EB"/>
<stop offset="0.53" stop-color="#D4648E"/>
<stop offset="1" stop-color="#EC7071"/>
</linearGradient>
<clipPath id="clip0">
<rect width="181.34" height="167.537" fill="white"/>
</clipPath>
</defs>
</svg>
