<svg width="221" height="141" viewBox="0 0 221 141" fill="none" xmlns="http://www.w3.org/2000/svg">
<path fill-rule="evenodd" clip-rule="evenodd" d="M221 28.5C221 44.2401 208.24 57 192.5 57C176.76 57 164 44.2401 164 28.5C164 12.7599 176.76 0 192.5 0C200.059 0 207.308 3.00267 212.653 8.34746C217.997 13.6922 221 20.9413 221 28.5Z" fill="#F2F2F2"/>
<path fill-rule="evenodd" clip-rule="evenodd" d="M206 114.996C206.001 122.277 201.617 128.841 194.891 131.628C188.165 134.415 180.422 132.876 175.274 127.729C170.125 122.581 168.585 114.839 171.37 108.112C174.156 101.386 180.72 97 188 97C197.94 97 205.998 105.057 206 114.996Z" fill="#F2F2F2"/>
<path fill-rule="evenodd" clip-rule="evenodd" d="M42 85.5C42 92.9558 36.1797 99 29 99C21.8203 99 16 92.9558 16 85.5C16 78.0442 21.8203 72 29 72C32.4481 71.9991 35.7552 73.4211 38.1933 75.9531C40.6315 78.485 42.0009 81.9193 42 85.5Z" fill="#F2F2F2"/>
<rect x="70" y="119" width="60" height="14" rx="7" fill="#F2F2F2"/>
<rect y="32" width="60" height="14" rx="7" fill="#F2F2F2"/>
<path fill-rule="evenodd" clip-rule="evenodd" d="M131.113 109H103.887C103.887 109 106.849 132.336 88 137H147C128.151 132.329 131.113 109 131.113 109Z" fill="#999999"/>
<rect x="88" y="137" width="59" height="4" fill="#E5E5E5"/>
<path fill-rule="evenodd" clip-rule="evenodd" d="M191 108.93C191.015 110.524 190.399 112.059 189.286 113.198C188.173 114.336 186.655 114.984 185.065 115H43.9348C40.6254 114.966 37.9694 112.249 38.0003 108.93V26.0666C37.9712 22.7488 40.6267 20.0342 43.9348 20H185.065C186.655 20.0156 188.173 20.6639 189.286 21.8022C190.399 22.9405 191.015 24.4757 191 26.0699V108.93Z" fill="#B3B3B3"/>
<rect x="38" y="28" width="153.939" height="75.0372" fill="url(#paint0_linear)"/>
<g style="mix-blend-mode:multiply">
<rect x="38" y="28" width="153" height="1" fill="#E5E5E5"/>
</g>
<path fill-rule="evenodd" clip-rule="evenodd" d="M103.582 115H130.485C130.485 115 130.813 118.536 131 119.451L101 126C101 126 103.582 121.909 103.582 115Z" fill="#828282"/>
<rect x="48" y="45" width="128" height="58" fill="white"/>
<rect x="70" y="55" width="37" height="14" fill="#DBDBDB"/>
<rect x="75" y="58" width="26" height="2" rx="1" fill="white"/>
<rect x="78" y="62" width="20" height="3" rx="1.5" fill="white"/>
<rect x="56" y="84" width="28" height="14" fill="#DBDBDB"/>
<rect x="94" y="84" width="28" height="14" fill="#DBDBDB"/>
<rect x="60" y="90" width="20" height="3" rx="1.5" fill="white"/>
<rect x="98" y="90" width="19" height="3" rx="1.5" fill="white"/>
<path fill-rule="evenodd" clip-rule="evenodd" d="M176 45V41.646C176 40.4138 175.495 39.2321 174.596 38.3608C173.697 37.4895 172.477 37 171.206 37H52.7943C50.1465 37 48 39.0801 48 41.646V45H176Z" fill="#F94F24"/>
<path fill-rule="evenodd" clip-rule="evenodd" d="M57 41C57 41.5523 56.5523 42 56 42C55.4477 42 55 41.5523 55 41C55 40.4477 55.4477 40 56 40C56.5516 40.0016 56.9984 40.4484 57 41Z" fill="white"/>
<path fill-rule="evenodd" clip-rule="evenodd" d="M66 41C66 41.4044 65.7564 41.7691 65.3827 41.9239C65.009 42.0786 64.5789 41.9931 64.2929 41.7071C64.0069 41.4211 63.9214 40.991 64.0761 40.6173C64.2309 40.2436 64.5956 40 65 40C65.5523 40 66 40.4477 66 41Z" fill="white"/>
<path fill-rule="evenodd" clip-rule="evenodd" d="M74 41C74 41.4047 73.756 41.7695 73.382 41.9241C73.008 42.0787 72.5777 41.9926 72.2919 41.7061C72.0061 41.4195 71.9213 40.9889 72.077 40.6153C72.2327 40.2417 72.5982 39.9988 73.0029 40C73.5541 40.0016 74 40.4488 74 41Z" fill="white"/>
<g style="mix-blend-mode:screen" opacity="0.1">
<path fill-rule="evenodd" clip-rule="evenodd" d="M191 104V72.7006C191 72.7006 169.217 100.682 114.5 75.979C59.7829 51.2763 38 75.979 38 75.979V104H191Z" fill="#E5E5E5"/>
</g>
<g style="mix-blend-mode:multiply">
<rect x="38" y="102" width="153" height="1" fill="#E5E5E5"/>
</g>
<rect x="113" y="54" width="54" height="19" rx="2" fill="#FA5A28"/>
<rect x="120" y="62" width="42" height="3" rx="1.5" fill="white" fill-opacity="0.329412"/>
<path fill-rule="evenodd" clip-rule="evenodd" d="M165.397 98.3067L159.809 103.877L146.821 90.9191L142.308 100.946L130.763 69.5071L161.549 80.0651L153.029 86.4519L165.397 98.3067Z" fill="url(#paint1_linear)"/>
<g style="mix-blend-mode:multiply">
<path fill-rule="evenodd" clip-rule="evenodd" d="M165.94 99.8482L154.221 88.6163L162.02 82.7706C162.249 82.6028 162.364 82.3203 162.316 82.0406C162.273 81.7588 162.075 81.5247 161.805 81.433L131.019 70.875C130.739 70.7815 130.429 70.8547 130.221 71.0639C130.012 71.275 129.945 71.5872 130.047 71.8655L141.592 103.299C141.698 103.593 141.973 103.793 142.286 103.804C142.598 103.815 142.887 103.636 143.014 103.351L147.072 94.3395L159.287 106.516C159.431 106.659 159.626 106.74 159.829 106.741C160.033 106.741 160.228 106.66 160.372 106.516L165.94 100.941C166.088 100.798 166.169 100.6 166.165 100.394C166.166 100.19 166.085 99.9929 165.94 99.8482Z" fill="#E5E5E5"/>
</g>
<path fill-rule="evenodd" clip-rule="evenodd" d="M159.799 104.387C159.663 104.388 159.532 104.335 159.436 104.239L147.006 91.8073L142.794 101.155C142.71 101.343 142.52 101.462 142.313 101.457C142.103 101.45 141.919 101.317 141.848 101.12L130.303 69.6856C130.236 69.5011 130.28 69.2943 130.418 69.1538C130.555 69.0133 130.761 68.964 130.948 69.027L161.738 79.5849C161.917 79.6468 162.047 79.8019 162.076 79.9883C162.104 80.1743 162.027 80.3607 161.876 80.4733L153.837 86.4977L165.771 97.9338C165.869 98.0298 165.925 98.1614 165.925 98.2988C165.925 98.4362 165.869 98.5678 165.771 98.6638L160.172 104.239C160.073 104.337 159.938 104.391 159.799 104.387V104.387ZM146.811 90.4084C146.948 90.409 147.079 90.4641 147.175 90.5616L159.799 103.157L164.655 98.3116L152.665 86.8193C152.558 86.7153 152.502 86.5698 152.512 86.4211C152.52 86.2721 152.593 86.1341 152.711 86.0433L160.459 80.2385L131.613 70.3391L142.359 99.593L146.361 90.7096C146.43 90.5575 146.57 90.4488 146.735 90.4186L146.811 90.4084Z" fill="white"/>
<path d="M88.5 69.3125V73.6875" stroke="#FA5A28" stroke-linecap="square" stroke-dasharray="4 4"/>
<path d="M74.3214 74.5H100.679" stroke="#FA5A28" stroke-linecap="square" stroke-dasharray="4 4"/>
<path d="M74.5 74.3333V83.6667" stroke="#FA5A28" stroke-linecap="square" stroke-dasharray="4 4"/>
<path d="M101.5 74.3333V83.6667" stroke="#FA5A28" stroke-linecap="square" stroke-dasharray="4 4"/>
<defs>
<linearGradient id="paint0_linear" x1="-21.0296" y1="54.9284" x2="16.3456" y2="158.284" gradientUnits="userSpaceOnUse">
<stop stop-color="#8033EB"/>
<stop offset="0.53" stop-color="#D4648E"/>
<stop offset="1" stop-color="#EC7071"/>
</linearGradient>
<linearGradient id="paint1_linear" x1="130.763" y1="103.877" x2="165.397" y2="103.877" gradientUnits="userSpaceOnUse">
<stop stop-color="#8033EB"/>
<stop offset="1" stop-color="#6731CE"/>
</linearGradient>
</defs>
</svg>
