<svg width="51" height="46" viewBox="0 0 51 46" fill="none" xmlns="http://www.w3.org/2000/svg">
<path d="M49.5 4V32.2903C49.5 34.2233 47.933 35.7903 46 35.7903H38.3833H21.1982H13.6774C11.7444 35.7903 10.1774 34.2233 10.1774 32.2903V4C10.1774 2.06701 11.7444 0.5 13.6774 0.5H46C47.933 0.5 49.5 2.067 49.5 4Z" fill="#F9F5FF" stroke="#7B39D9"/>
<path d="M27.765 20.9678C28.0194 20.9678 28.2258 20.7876 28.2258 20.5646C28.2258 20.3416 28.0194 20.1614 27.765 20.1614H25.4608C25.2065 20.1614 25 20.3416 25 20.5646C25 20.7876 25.2065 20.9678 25.4608 20.9678H27.765Z" fill="#7B39D9"/>
<rect x="25" y="21.7742" width="6.45161" height="0.806452" rx="0.403226" fill="#7B39D9"/>
<rect x="25" y="23.3872" width="10.4839" height="0.806452" rx="0.403226" fill="#7B39D9"/>
<rect x="25" y="26.6128" width="8.87097" height="0.806452" rx="0.403226" fill="#7B39D9"/>
<rect x="25" y="28.2258" width="8.87097" height="0.806452" rx="0.403226" fill="#7B39D9"/>
<rect x="25" y="31.4517" width="8.87097" height="0.806452" rx="0.403226" fill="#7B39D9"/>
<rect x="25" y="29.8386" width="5.64516" height="0.806452" rx="0.403226" fill="#7B39D9"/>
<rect x="37.0968" y="26.6128" width="8.87097" height="0.806452" rx="0.403226" fill="#7B39D9"/>
<rect x="37.0968" y="28.2258" width="8.87097" height="0.806452" rx="0.403226" fill="#7B39D9"/>
<rect x="37.0968" y="29.8386" width="8.87097" height="0.806452" rx="0.403226" fill="#7B39D9"/>
<rect x="37.0968" y="31.4517" width="5.64516" height="0.806452" rx="0.403226" fill="#7B39D9"/>
<rect x="13.4032" y="10.1775" width="32.871" height="6.25806" rx="0.5" stroke="#7B39D9"/>
<rect x="13.4032" y="19.8547" width="7.87097" height="11.9032" rx="0.5" stroke="#7B39D9"/>
<path d="M10.6081 7.25806L49.8757 7.25805" stroke="#7B39D9"/>
<circle cx="12.8306" cy="3.53532" r="1.43327" fill="#7B39D9"/>
<circle cx="17.226" cy="3.53532" r="1.43327" fill="#7B39D9"/>
<circle cx="21.6213" cy="3.53532" r="1.43327" fill="#7B39D9"/>
<path d="M44.6613 8.22583V36.5161C44.6613 38.4491 43.0943 40.0162 41.1613 40.0162H33.5446H16.3595H8.83871C6.90571 40.0162 5.33871 38.4492 5.33871 36.5162V8.22583C5.33871 6.29284 6.90572 4.72583 8.83871 4.72583H41.1613C43.0943 4.72583 44.6613 6.29283 44.6613 8.22583Z" fill="#F9F5FF" stroke="#7B39D9"/>
<path d="M22.9263 25.1937C23.1806 25.1937 23.3871 25.0134 23.3871 24.7904C23.3871 24.5674 23.1806 24.3872 22.9263 24.3872H20.6221C20.3677 24.3872 20.1613 24.5674 20.1613 24.7904C20.1613 25.0134 20.3677 25.1937 20.6221 25.1937H22.9263Z" fill="#7B39D9"/>
<rect x="20.1613" y="26" width="6.45161" height="0.806452" rx="0.403226" fill="#7B39D9"/>
<rect x="20.1613" y="27.6128" width="10.4839" height="0.806452" rx="0.403226" fill="#7B39D9"/>
<rect x="20.1613" y="30.8386" width="8.87097" height="0.806452" rx="0.403226" fill="#7B39D9"/>
<rect x="20.1613" y="32.4517" width="8.87097" height="0.806452" rx="0.403226" fill="#7B39D9"/>
<rect x="20.1613" y="35.6775" width="8.87097" height="0.806452" rx="0.403226" fill="#7B39D9"/>
<rect x="20.1613" y="34.0645" width="5.64516" height="0.806452" rx="0.403226" fill="#7B39D9"/>
<rect x="32.2581" y="30.8386" width="8.87097" height="0.806452" rx="0.403226" fill="#7B39D9"/>
<rect x="32.2581" y="32.4517" width="8.87097" height="0.806452" rx="0.403226" fill="#7B39D9"/>
<rect x="32.2581" y="34.0645" width="8.87097" height="0.806452" rx="0.403226" fill="#7B39D9"/>
<rect x="32.2581" y="35.6775" width="5.64516" height="0.806452" rx="0.403226" fill="#7B39D9"/>
<rect x="8.56451" y="14.4033" width="32.871" height="6.25806" rx="0.5" stroke="#7B39D9"/>
<rect x="8.56451" y="24.0806" width="7.87097" height="11.9032" rx="0.5" stroke="#7B39D9"/>
<path d="M5.76942 11.4839L45.037 11.4839" stroke="#7B39D9"/>
<circle cx="7.99191" cy="7.76115" r="1.43327" fill="#7B39D9"/>
<circle cx="12.3873" cy="7.76115" r="1.43327" fill="#7B39D9"/>
<circle cx="16.7826" cy="7.76115" r="1.43327" fill="#7B39D9"/>
<path d="M39.8226 12.2581V40.5484C39.8226 42.4814 38.2556 44.0484 36.3226 44.0484H28.7058H11.5207H4C2.067 44.0484 0.5 42.4814 0.5 40.5484V12.2581C0.5 10.3251 2.067 8.75806 4 8.75806H36.3226C38.2556 8.75806 39.8226 10.3251 39.8226 12.2581Z" fill="#F9F5FF" stroke="#7B39D9"/>
<path d="M18.0876 29.2259C18.3419 29.2259 18.5484 29.0456 18.5484 28.8227C18.5484 28.5997 18.3419 28.4194 18.0876 28.4194H15.7834C15.529 28.4194 15.3226 28.5997 15.3226 28.8227C15.3226 29.0456 15.529 29.2259 15.7834 29.2259H18.0876Z" fill="#7B39D9"/>
<rect x="15.3226" y="30.0322" width="6.45161" height="0.806452" rx="0.403226" fill="#7B39D9"/>
<rect x="15.3226" y="31.6453" width="10.4839" height="0.806452" rx="0.403226" fill="#7B39D9"/>
<rect x="15.3226" y="34.8708" width="8.87097" height="0.806452" rx="0.403226" fill="#7B39D9"/>
<rect x="15.3226" y="36.4839" width="8.87097" height="0.806452" rx="0.403226" fill="#7B39D9"/>
<rect x="15.3226" y="39.7097" width="8.87097" height="0.806452" rx="0.403226" fill="#7B39D9"/>
<rect x="15.3226" y="38.0967" width="5.64516" height="0.806452" rx="0.403226" fill="#7B39D9"/>
<rect x="27.4194" y="34.8708" width="8.87097" height="0.806452" rx="0.403226" fill="#7B39D9"/>
<rect x="27.4194" y="36.4839" width="8.87097" height="0.806452" rx="0.403226" fill="#7B39D9"/>
<rect x="27.4194" y="38.0967" width="8.87097" height="0.806452" rx="0.403226" fill="#7B39D9"/>
<rect x="27.4194" y="39.7097" width="5.64516" height="0.806452" rx="0.403226" fill="#7B39D9"/>
<rect x="3.7258" y="18.4355" width="32.871" height="6.25806" rx="0.5" stroke="#7B39D9"/>
<rect x="3.7258" y="28.1128" width="7.87097" height="11.9032" rx="0.5" stroke="#7B39D9"/>
<path d="M0.930722 15.5161L40.1983 15.5161" stroke="#7B39D9"/>
<circle cx="3.15319" cy="11.7936" r="1.43327" fill="#7B39D9"/>
<circle cx="7.54855" cy="11.7936" r="1.43327" fill="#7B39D9"/>
<circle cx="11.9439" cy="11.7936" r="1.43327" fill="#7B39D9"/>
</svg>
