<svg width="50" height="45" viewBox="0 0 50 45" fill="none" xmlns="http://www.w3.org/2000/svg">
<path d="M49.5 4V41C49.5 42.933 47.933 44.5 46 44.5H35.5952H14.2857H4C2.06701 44.5 0.5 42.933 0.5 41V4C0.5 2.067 2.067 0.5 4 0.5H46C47.933 0.5 49.5 2.067 49.5 4Z" stroke="#7B39D9"/>
<path d="M25.4615 28C25.7588 28 26 27.7765 26 27.5C26 27.2235 25.7588 27 25.4615 27H19.5385C19.2412 27 19 27.2235 19 27.5C19 27.7765 19.2412 28 19.5385 28H25.4615Z" fill="#7B39D9"/>
<path d="M22.4286 26C22.744 26 23 25.7765 23 25.5C23 25.2235 22.744 25 22.4286 25H19.5714C19.256 25 19 25.2235 19 25.5C19 25.7765 19.256 26 19.5714 26H22.4286Z" fill="#7B39D9"/>
<path d="M25.4615 30C25.7588 30 26 29.7765 26 29.5C26 29.2235 25.7588 29 25.4615 29H19.5385C19.2412 29 19 29.2235 19 29.5C19 29.7765 19.2412 30 19.5385 30H25.4615Z" fill="#7B39D9"/>
<path fill-rule="evenodd" clip-rule="evenodd" d="M23.704 35.1695L22.7283 36.1235C22.5136 36.0485 22.2857 36 22.0444 36C20.9169 36 20 36.897 20 38C20 39.103 20.9169 40 22.0444 40C23.172 40 24.0889 39.103 24.0889 38C24.0889 37.5015 23.8947 37.0505 23.5849 36.7L24.2928 36.0075C24.6516 36.31 25.1126 36.5 25.6222 36.5C26.1318 36.5 26.5928 36.31 26.9511 36.0075L27.659 36.7C27.3498 37.0505 27.1556 37.5015 27.1556 38C27.1556 39.103 28.0725 40 29.2 40C30.3275 40 31.2444 39.103 31.2444 38C31.2444 37.63 31.1346 37.288 30.9546 36.9905L34.5156 33.5075C34.8738 33.81 35.3349 34 35.8444 34C36.354 34 36.815 33.81 37.1733 33.5075L39.4151 35.7C39.1053 36.0505 38.9111 36.5015 38.9111 37C38.9111 38.103 39.828 39 40.9556 39C42.0831 39 43 38.103 43 37C43 35.897 42.0831 35 40.9556 35C40.7143 35 40.4864 35.0485 40.2717 35.1235L37.7626 32.6695C37.8393 32.459 37.8889 32.236 37.8889 32C37.8889 30.897 36.972 30 35.8444 30C34.7169 30 33.8 30.897 33.8 32C33.8 32.236 33.8496 32.459 33.9262 32.6695L30.2319 36.2835C29.9278 36.1075 29.5782 36 29.2 36C28.9588 36 28.7308 36.0485 28.5161 36.1235L27.5404 35.1695C27.6171 34.959 27.6667 34.736 27.6667 34.5C27.6667 33.397 26.7497 32.5 25.6222 32.5C24.4947 32.5 23.5778 33.397 23.5778 34.5C23.5778 34.736 23.6274 34.959 23.704 35.1695ZM21.0222 38C21.0222 37.4485 21.4807 37 22.0444 37C22.6082 37 23.0667 37.4485 23.0667 38C23.0667 38.5515 22.6082 39 22.0444 39C21.4807 39 21.0222 38.5515 21.0222 38ZM40.9556 38C40.3918 38 39.9333 37.5515 39.9333 37C39.9333 36.4485 40.3918 36 40.9556 36C41.5193 36 41.9778 36.4485 41.9778 37C41.9778 37.5515 41.5193 38 40.9556 38ZM36.8667 32C36.8667 32.5515 36.4082 33 35.8444 33C35.2807 33 34.8222 32.5515 34.8222 32C34.8222 31.4485 35.2807 31 35.8444 31C36.4082 31 36.8667 31.4485 36.8667 32ZM29.2 39C28.6362 39 28.1778 38.5515 28.1778 38C28.1778 37.4485 28.6362 37 29.2 37C29.7638 37 30.2222 37.4485 30.2222 38C30.2222 38.5515 29.7638 39 29.2 39ZM25.6222 35.5C25.0585 35.5 24.6 35.0515 24.6 34.5C24.6 33.9485 25.0585 33.5 25.6222 33.5C26.186 33.5 26.6444 33.9485 26.6444 34.5C26.6444 35.0515 26.186 35.5 25.6222 35.5Z" fill="#7B39D9"/>
<rect x="4.5" y="12.5" width="41" height="8" rx="0.5" stroke="#7B39D9"/>
<rect x="4.5" y="24.5" width="10" height="15" rx="0.5" stroke="#7B39D9"/>
<path d="M1.15409 9L49.8459 9" stroke="#7B39D9"/>
<circle cx="3.90996" cy="4.38394" r="1.77725" fill="#7B39D9"/>
<circle cx="9.3602" cy="4.38394" r="1.77725" fill="#7B39D9"/>
<circle cx="14.8104" cy="4.38394" r="1.77725" fill="#7B39D9"/>
</svg>
