<svg width="50" height="56" viewBox="0 0 50 56" fill="none" xmlns="http://www.w3.org/2000/svg">
<path d="M3.84936 15.7887L25 3.57735L46.1506 15.7887V40.2113L25 52.4226L3.84936 40.2113V15.7887Z" stroke="#7B39D9"/>
<path d="M4.21539 40L25 4L45.7846 40H4.21539Z" stroke="#7B39D9"/>
<circle cx="5" cy="40" r="4.5" fill="#7B39D9" stroke="#7B39D9"/>
<circle cx="5" cy="17" r="4.5" fill="#7B39D9" stroke="#7B39D9"/>
<circle cx="45" cy="40" r="4.5" fill="#7B39D9" stroke="#7B39D9"/>
<circle cx="25" cy="51" r="4.5" fill="#7B39D9" stroke="#7B39D9"/>
<circle cx="25" cy="5" r="4.5" fill="#7B39D9" stroke="#7B39D9"/>
<circle cx="45" cy="17" r="4.5" fill="#7B39D9" stroke="#7B39D9"/>
<path d="M33.7959 26.1225L34.2939 26.0787L34.2939 26.0786L33.7959 26.1225ZM33.336 25.6991L33.3229 26.199L33.3238 26.199L33.336 25.6991ZM31.6469 25.6522L31.6562 25.1522H31.6469V25.6522ZM31.2749 25.3914L30.797 25.5388L30.7989 25.5446L31.2749 25.3914ZM30.9471 24.6812L31.3693 24.4132L31.3644 24.4057L30.9471 24.6812ZM29.997 23.3607L30.3957 23.059L30.3733 23.0294L30.3467 23.0034L29.997 23.3607ZM29.9361 23.0504L30.3949 23.2491L30.3981 23.2417L30.4011 23.2342L29.9361 23.0504ZM30.2604 22.1576L29.7879 21.994L29.7878 21.9941L30.2604 22.1576ZM30.5985 21.144L31.0731 21.3013L31.0859 21.2628L31.0923 21.2227L30.5985 21.144ZM29.9805 20.4902L30.2232 20.0531L30.2166 20.0494L30.2099 20.046L29.9805 20.4902ZM28.2418 19.594L28.4633 19.1457L28.4606 19.1444L28.2418 19.594ZM27.682 19.7618L27.2657 19.4847L27.2652 19.4855L27.682 19.7618ZM26.684 21.2813L26.2649 21.0086L26.2454 21.0387L26.2303 21.0712L26.684 21.2813ZM26.4476 21.3856L26.5983 20.9089L26.5721 20.9006L26.5452 20.8952L26.4476 21.3856ZM23.5397 21.4726L23.5993 21.969L23.6333 21.9649L23.6664 21.9562L23.5397 21.4726ZM23.3198 21.3995L22.9509 21.7371L22.9626 21.7499L22.9752 21.7618L23.3198 21.3995ZM22.0158 19.9374L22.392 19.6079L22.3908 19.6066L22.0158 19.9374ZM21.3795 19.8704L21.6666 20.2798L21.6702 20.2772L21.3795 19.8704ZM19.5166 21.1692L19.7992 21.5816L19.7997 21.5813L19.5166 21.1692ZM19.3427 21.8281L19.7833 21.5917L19.7813 21.588L19.3427 21.8281ZM20.1903 23.3929L19.7516 23.6327L19.7618 23.6514L19.7736 23.6692L20.1903 23.3929ZM20.1616 23.665L19.8117 23.3077L19.7813 23.3376L19.7563 23.3721L20.1616 23.665ZM19.4783 24.6855L19.0344 24.4555L19.031 24.462L19.0278 24.4687L19.4783 24.6855ZM18.9306 25.9991L18.4595 25.8316L18.4494 25.8602L18.4428 25.8897L18.9306 25.9991ZM18.709 26.2007L18.6461 25.7047L18.6337 25.7063L18.6215 25.7085L18.709 26.2007ZM16.8669 26.5563L16.9632 27.0469L16.9656 27.0464L16.8669 26.5563ZM16.4496 27.1031L15.9507 27.136L15.9507 27.1364L16.4496 27.1031ZM16.6113 29.3676L16.1124 29.4004L16.1124 29.4009L16.6113 29.3676ZM17.0695 29.8214L17.0484 30.321L17.0496 30.321L17.0695 29.8214ZM18.8446 29.8918L18.8313 30.3918H18.8446V29.8918ZM19.0906 30.0813L18.621 30.253L18.622 30.2558L19.0906 30.0813ZM20.6484 32.4919L21.0671 32.2186L21.0379 32.1739L21 32.1364L20.6484 32.4919ZM20.6849 32.7397L21.1632 32.8857L21.1646 32.8806L20.6849 32.7397ZM20.0973 34.5861L19.621 34.4339L19.6204 34.4357L20.0973 34.5861ZM20.3511 35.152L20.1444 35.6073L20.1452 35.6077L20.3511 35.152ZM22.5192 36.1222L22.3219 36.5816L22.3403 36.5895L22.3593 36.5959L22.5192 36.1222ZM22.8504 36.0761L23.1335 36.4882L23.1619 36.4687L23.1873 36.4455L22.8504 36.0761ZM23.3285 35.5189L23.7448 35.7958L23.7464 35.7933L23.3285 35.5189ZM24.0292 34.3723L23.6241 34.0791L23.615 34.0917L23.6067 34.1048L24.0292 34.3723ZM24.2343 34.2645L24.3063 33.7697L24.2647 33.7636L24.2226 33.7646L24.2343 34.2645ZM26.8944 34.1054L26.7887 33.6167L26.7762 33.6194L26.764 33.6227L26.8944 34.1054ZM27.1282 34.1628L27.4977 33.8259L27.4746 33.8005L27.4482 33.7785L27.1282 34.1628ZM28.3748 35.5693L27.9969 35.8966L27.9973 35.8971L28.3748 35.5693ZM29.1268 35.6901L28.8429 35.2785L28.8426 35.2788L29.1268 35.6901ZM31.0028 34.3705L30.7129 33.9631L30.7113 33.9642L31.0028 34.3705ZM31.1384 33.8003L31.5837 33.5729L31.5819 33.5694L31.1384 33.8003ZM30.2691 32.159L29.8144 32.367L29.8196 32.3783L29.8253 32.3893L30.2691 32.159ZM30.2734 31.9504L29.8851 31.6353L29.8518 31.6764L29.8278 31.7236L30.2734 31.9504ZM31.5122 29.5432L31.9942 29.6761L31.9991 29.6582L32.0027 29.6401L31.5122 29.5432ZM31.7478 29.3337L31.7866 29.8322L31.8142 29.8301L31.8413 29.8249L31.7478 29.3337ZM33.5733 28.9712L33.6745 29.4609L33.676 29.4606L33.5733 28.9712ZM27.9673 30.5799L28.3208 30.9335L28.3208 30.9335L27.9673 30.5799ZM25.221 31.7164V31.2164L25.2207 32.2164L25.221 31.7164ZM34.2939 26.0786C34.2771 25.8881 34.2275 25.6228 34.013 25.4265C33.8018 25.2333 33.5356 25.2039 33.3482 25.1993L33.3238 26.199C33.3515 26.1997 33.3718 26.2012 33.3862 26.203C33.4006 26.2047 33.4065 26.2064 33.4061 26.2063C33.4056 26.2061 33.3972 26.2038 33.3842 26.197C33.3706 26.1899 33.3543 26.1793 33.338 26.1643C33.3215 26.1493 33.309 26.1335 33.3 26.1194C33.2914 26.1058 33.2877 26.0962 33.2869 26.0939C33.2862 26.0919 33.2878 26.096 33.2903 26.1087C33.2927 26.1214 33.2955 26.14 33.2978 26.1664L34.2939 26.0786ZM33.3491 25.1993C32.7964 25.1848 32.2205 25.1627 31.6562 25.1523L31.6377 26.1521C32.1999 26.1625 32.7507 26.1839 33.3229 26.199L33.3491 25.1993ZM31.6469 25.1522C31.5936 25.1522 31.6307 25.1423 31.6873 25.1793C31.7164 25.1984 31.7363 25.2205 31.7476 25.2372C31.7573 25.2516 31.7564 25.2555 31.7508 25.2382L30.7989 25.5446C30.8535 25.7142 30.9527 25.8937 31.1399 26.0162C31.3184 26.133 31.509 26.1522 31.6469 26.1522V25.1522ZM31.7527 25.2441C31.6624 24.9513 31.5335 24.6719 31.3693 24.4132L30.525 24.9491C30.6415 25.1327 30.733 25.331 30.7971 25.5387L31.7527 25.2441ZM31.3644 24.4057C31.0558 23.9384 30.7232 23.4919 30.3957 23.059L29.5982 23.6624C29.9245 24.0936 30.2403 24.5182 30.5299 24.9567L31.3644 24.4057ZM30.3467 23.0034C30.4121 23.0674 30.4313 23.1651 30.3949 23.2491L29.4773 22.8516C29.349 23.1477 29.4166 23.4923 29.6472 23.718L30.3467 23.0034ZM30.4011 23.2342C30.5221 22.9281 30.6296 22.6196 30.7329 22.321L29.7878 21.9941C29.6842 22.2937 29.5831 22.5832 29.4711 22.8666L30.4011 23.2342ZM30.7329 22.3212C30.8508 21.9806 30.9626 21.6346 31.0731 21.3013L30.1239 20.9866C30.0102 21.3296 29.903 21.6617 29.7879 21.994L30.7329 22.3212ZM31.0923 21.2227C31.1191 21.0546 31.1019 20.886 31.0312 20.728C30.9636 20.5767 30.8609 20.4666 30.7666 20.3872C30.6019 20.2487 30.3619 20.1301 30.2232 20.0531L29.7377 20.9274C29.8475 20.9883 29.909 21.0196 29.9887 21.0652C30.0597 21.1058 30.0996 21.1329 30.1227 21.1524C30.1443 21.1705 30.1316 21.1658 30.1184 21.1363C30.1116 21.1211 30.1071 21.1047 30.1052 21.089C30.1034 21.0738 30.1048 21.065 30.1048 21.0652L31.0923 21.2227ZM30.2099 20.046C29.6388 19.751 29.0507 19.4359 28.4633 19.1457L28.0204 20.0423C28.5978 20.3275 29.1607 20.6296 29.751 20.9345L30.2099 20.046ZM28.4606 19.1444C28.2845 19.0586 28.0397 18.9788 27.7717 19.0643C27.5168 19.1457 27.3617 19.3405 27.2657 19.4847L28.0983 20.0388C28.1115 20.0189 28.1218 20.005 28.1296 19.9954C28.1373 19.9858 28.1411 19.9824 28.1407 19.9827C28.139 19.9843 28.1172 20.0037 28.0758 20.0169C28.056 20.0233 28.0364 20.0266 28.0187 20.0275C28.0013 20.0285 27.9889 20.027 27.9828 20.0259C27.9731 20.0243 27.984 20.0245 28.023 20.0436L28.4606 19.1444ZM27.2652 19.4855C26.9295 19.992 26.5961 20.4997 26.2649 21.0086L27.1031 21.554C27.4327 21.0475 27.7646 20.5422 28.0988 20.038L27.2652 19.4855ZM26.2303 21.0712C26.2947 20.9322 26.4523 20.8627 26.5983 20.9089L26.2969 21.8624C26.6306 21.9679 26.9907 21.809 27.1378 21.4914L26.2303 21.0712ZM26.5452 20.8952C25.5075 20.6887 24.4365 20.7207 23.413 20.9889L23.6664 21.9562C24.5433 21.7265 25.4609 21.6991 26.35 21.876L26.5452 20.8952ZM23.4802 20.9761C23.5477 20.968 23.6152 20.9904 23.6644 21.0373L22.9752 21.7618C23.1419 21.9204 23.3707 21.9964 23.5993 21.969L23.4802 20.9761ZM23.6886 21.062C23.2515 20.5843 22.8205 20.0972 22.392 19.6079L21.6397 20.2668C22.0701 20.7581 22.5066 21.2516 22.9509 21.7371L23.6886 21.062ZM22.3908 19.6066C22.2646 19.4635 22.0654 19.2742 21.7721 19.2428C21.4818 19.2116 21.2457 19.3514 21.0888 19.4636L21.6702 20.2772C21.6942 20.2601 21.7124 20.2484 21.7259 20.2407C21.7325 20.2369 21.7375 20.2343 21.7409 20.2326C21.7443 20.2309 21.746 20.2302 21.7459 20.2303C21.7458 20.2303 21.7377 20.2335 21.7231 20.2358C21.7078 20.2383 21.688 20.2395 21.6656 20.2371C21.6431 20.2347 21.6235 20.2293 21.6081 20.2232C21.5933 20.2173 21.5851 20.212 21.5838 20.2111C21.5828 20.2104 21.5873 20.2134 21.5977 20.223C21.6081 20.2327 21.6223 20.2471 21.6409 20.2681L22.3908 19.6066ZM21.0924 19.461C20.4717 19.8963 19.856 20.3293 19.2334 20.7571L19.7997 21.5813C20.4272 21.1501 21.0476 20.7138 21.6666 20.2798L21.0924 19.461ZM19.2339 20.7567C19.0642 20.8731 18.8591 21.05 18.7826 21.3273C18.7033 21.6152 18.7983 21.8749 18.9041 22.0682L19.7813 21.588C19.7689 21.5654 19.7613 21.5488 19.7567 21.5373C19.7521 21.5258 19.7513 21.5213 19.7516 21.5229C19.752 21.5248 19.7536 21.5331 19.7534 21.5465C19.7533 21.5603 19.7513 21.5763 19.7467 21.593C19.7421 21.6096 19.7361 21.6226 19.731 21.6316C19.7261 21.6402 19.723 21.6434 19.7248 21.6413C19.7268 21.6391 19.7329 21.6326 19.7454 21.6219C19.758 21.6113 19.7754 21.5979 19.7992 21.5816L19.2339 20.7567ZM18.9021 22.0645C19.1827 22.5873 19.4658 23.11 19.7516 23.6327L20.629 23.153C20.3445 22.6326 20.0626 22.1121 19.7833 21.5917L18.9021 22.0645ZM19.7736 23.6692C19.698 23.5552 19.714 23.4035 19.8117 23.3077L20.5114 24.0222C20.7564 23.7823 20.7965 23.4022 20.6069 23.1165L19.7736 23.6692ZM19.7563 23.3721C19.5328 23.6815 19.2433 24.0521 19.0344 24.4555L19.9223 24.9155C20.0871 24.5974 20.3106 24.3125 20.5669 23.9578L19.7563 23.3721ZM19.0278 24.4687C18.8141 24.9125 18.6244 25.3675 18.4595 25.8316L19.4018 26.1665C19.5547 25.736 19.7307 25.314 19.9288 24.9024L19.0278 24.4687ZM18.4428 25.8897C18.4648 25.7914 18.5461 25.7174 18.6461 25.7047L18.7719 26.6968C19.0898 26.6565 19.3484 26.4212 19.4185 26.1084L18.4428 25.8897ZM18.6215 25.7085C17.9988 25.8191 17.3764 25.9436 16.7682 26.0661L16.9656 27.0464C17.5744 26.9238 18.1865 26.8014 18.7965 26.693L18.6215 25.7085ZM16.7706 26.0657C16.6687 26.0856 16.5549 26.1117 16.4499 26.1541C16.3391 26.1989 16.2109 26.2727 16.1095 26.4044C16.0083 26.5359 15.9695 26.6788 15.9543 26.7981C15.9399 26.9114 15.9437 27.0295 15.9507 27.136L16.9486 27.0702C16.9457 27.0271 16.9445 26.9942 16.9445 26.9686C16.9444 26.9427 16.9457 26.9293 16.9463 26.9245C16.9469 26.9199 16.9462 26.9289 16.94 26.9461C16.9368 26.9549 16.9322 26.9657 16.9257 26.9777C16.9192 26.9898 16.9113 27.0022 16.9019 27.0144C16.8925 27.0266 16.8825 27.0375 16.8724 27.0469C16.8624 27.0563 16.8531 27.0636 16.8452 27.069C16.8299 27.0796 16.821 27.0827 16.8249 27.0812C16.829 27.0795 16.8412 27.075 16.8657 27.0686C16.8901 27.0622 16.9216 27.0551 16.9632 27.0469L16.7706 26.0657ZM15.9507 27.1364C16.0039 27.9323 16.0609 28.6148 16.1124 29.4004L17.1103 29.3349C17.0627 28.6096 16.9962 27.7847 16.9485 27.0698L15.9507 27.1364ZM16.1124 29.4009C16.1251 29.5913 16.1664 29.8591 16.3706 30.0643C16.5783 30.2729 16.8494 30.3126 17.0484 30.321L17.0905 29.3219C17.0627 29.3207 17.0428 29.3187 17.0289 29.3166C17.0151 29.3146 17.01 29.3129 17.0111 29.3133C17.0126 29.3137 17.0216 29.3167 17.0348 29.3243C17.0486 29.3322 17.0642 29.3436 17.0794 29.3588C17.0944 29.374 17.1053 29.3892 17.1125 29.4017C17.1194 29.4138 17.1218 29.4214 17.1218 29.4212C17.1216 29.4207 17.1196 29.4141 17.1171 29.399C17.1146 29.3839 17.1121 29.3629 17.1102 29.3344L16.1124 29.4009ZM17.0496 30.321C17.6323 30.3441 18.2364 30.3759 18.8314 30.3917L18.8578 29.392C18.2705 29.3765 17.6906 29.3456 17.0893 29.3218L17.0496 30.321ZM18.8446 30.3918C18.8462 30.3918 18.8262 30.3922 18.7941 30.3825C18.7586 30.3718 18.719 30.3521 18.6827 30.3215C18.6171 30.2661 18.6054 30.2104 18.621 30.253L19.5602 29.9097C19.5297 29.8262 19.4681 29.6757 19.3275 29.5571C19.1708 29.425 18.9912 29.3918 18.8446 29.3918V30.3918ZM18.622 30.2558C18.9852 31.2312 19.5567 32.1157 20.2968 32.8475L21 32.1364C20.3633 31.5068 19.8716 30.746 19.5592 29.9069L18.622 30.2558ZM20.2297 32.7653C20.1976 32.716 20.1886 32.6552 20.2052 32.5988L21.1646 32.8806C21.2305 32.6563 21.1949 32.4144 21.0671 32.2186L20.2297 32.7653ZM20.2067 32.5937C20.0193 33.2077 19.8194 33.8132 19.621 34.4339L20.5735 34.7383C20.7681 34.1298 20.9732 33.5078 21.1631 32.8856L20.2067 32.5937ZM19.6204 34.4357C19.5576 34.6349 19.5252 34.8846 19.6363 35.1321C19.7471 35.3791 19.9547 35.5212 20.1444 35.6073L20.5578 34.6967C20.5224 34.6807 20.5121 34.6713 20.5147 34.6735C20.5165 34.675 20.5218 34.6799 20.5285 34.6887C20.5354 34.6977 20.5426 34.7091 20.5487 34.7228C20.5548 34.7364 20.5586 34.7494 20.5608 34.7608C20.5629 34.7719 20.5631 34.7794 20.563 34.7821C20.563 34.7862 20.5626 34.7729 20.5741 34.7365L19.6204 34.4357ZM20.1452 35.6077C20.8619 35.9315 21.5894 36.2671 22.3219 36.5816L22.7165 35.6627C21.9954 35.3531 21.2833 35.0245 20.557 34.6964L20.1452 35.6077ZM22.3593 36.5959C22.6199 36.6839 22.9068 36.644 23.1335 36.4882L22.5672 35.664C22.6 35.6415 22.6414 35.6357 22.6791 35.6484L22.3593 36.5959ZM23.1873 36.4455C23.3989 36.2525 23.5862 36.0343 23.7448 35.7958L22.9122 35.242C22.7987 35.4126 22.6648 35.5686 22.5134 35.7067L23.1873 36.4455ZM23.7464 35.7933C23.8762 35.5957 23.9964 35.3953 24.1109 35.2027C24.227 35.0074 24.3363 34.8218 24.4516 34.6397L23.6067 34.1048C23.482 34.3017 23.364 34.5021 23.2513 34.6917C23.137 34.884 23.0268 35.0673 22.9105 35.2444L23.7464 35.7933ZM24.4342 34.6655C24.3903 34.726 24.3207 34.7626 24.246 34.7643L24.2226 33.7646C23.985 33.7701 23.7635 33.8865 23.6241 34.0791L24.4342 34.6655ZM24.1623 34.7593C25.1182 34.8983 26.0924 34.8401 27.0248 34.5881L26.764 33.6227C25.9634 33.8391 25.127 33.8891 24.3063 33.7697L24.1623 34.7593ZM27.0001 34.5941C26.9324 34.6087 26.8616 34.5914 26.8083 34.547L27.4482 33.7785C27.2649 33.6259 27.0217 33.5663 26.7887 33.6167L27.0001 34.5941ZM26.7588 34.4996C27.1776 34.9589 27.5884 35.425 27.9969 35.8966L28.7528 35.242C28.3406 34.7661 27.9239 34.2933 27.4977 33.8259L26.7588 34.4996ZM27.9973 35.8971C28.1302 36.0502 28.3377 36.2744 28.6422 36.3276C28.9665 36.3844 29.2345 36.2234 29.411 36.1015L28.8426 35.2788C28.8095 35.3016 28.784 35.3176 28.7643 35.3287C28.7445 35.3398 28.7341 35.344 28.7314 35.345C28.7291 35.3459 28.737 35.3427 28.753 35.3407C28.7701 35.3386 28.7914 35.3385 28.8145 35.3426C28.8622 35.3509 28.882 35.3703 28.8669 35.3586C28.8592 35.3526 28.8458 35.3412 28.8256 35.3211C28.8056 35.3011 28.7816 35.2752 28.7524 35.2415L27.9973 35.8971ZM29.4107 36.1017C30.0426 35.6659 30.6704 35.2243 31.2942 34.7768L30.7113 33.9642C30.0926 34.4081 29.4698 34.8462 28.8429 35.2785L29.4107 36.1017ZM31.2926 34.7779C31.4542 34.663 31.6252 34.4908 31.6863 34.2348C31.7471 33.9803 31.6738 33.7494 31.5837 33.5729L30.6931 34.0276C30.7096 34.06 30.7112 34.0718 30.7103 34.067C30.7088 34.0594 30.7058 34.0352 30.7137 34.0025C30.7215 33.9696 30.7354 33.9483 30.7416 33.9405C30.7459 33.935 30.7407 33.9433 30.7129 33.9631L31.2926 34.7779ZM31.5819 33.5694C31.4374 33.2918 31.29 33.0163 31.1443 32.7439C30.9982 32.4706 30.8538 32.2003 30.7129 31.9287L29.8253 32.3893C29.9695 32.6671 30.1167 32.9427 30.2625 33.2154C30.4087 33.4889 30.5534 33.7593 30.6949 34.0311L31.5819 33.5694ZM30.7237 31.951C30.7567 32.0231 30.755 32.1064 30.719 32.1771L29.8278 31.7236C29.7254 31.9248 29.7205 32.1617 29.8144 32.367L30.7237 31.951ZM30.6617 32.2654C31.2798 31.5035 31.7335 30.6219 31.9942 29.6761L31.0301 29.4104C30.8061 30.2231 30.4163 30.9807 29.8851 31.6353L30.6617 32.2654ZM32.0027 29.6401C31.9819 29.7453 31.8936 29.8239 31.7866 29.8322L31.7089 28.8353C31.3687 28.8618 31.0877 29.1116 31.0216 29.4464L32.0027 29.6401ZM31.8413 29.8249C32.4524 29.7085 33.0635 29.5872 33.6745 29.4609L33.4721 28.4816C32.8661 28.6068 32.2602 28.7271 31.6542 28.8426L31.8413 29.8249ZM33.676 29.4606C33.8464 29.4248 34.1507 29.3606 34.3394 29.1098C34.5294 28.8575 34.5059 28.5462 34.4905 28.3649L33.4941 28.4492C33.4977 28.4923 33.4995 28.5253 33.4999 28.5509C33.5003 28.5767 33.4992 28.5902 33.4987 28.5951C33.4981 28.5998 33.4987 28.5911 33.5045 28.5744C33.5109 28.5564 33.5221 28.5328 33.5405 28.5084C33.5588 28.484 33.5783 28.4668 33.5936 28.4559C33.6078 28.4458 33.6157 28.4429 33.6112 28.4448C33.6065 28.4468 33.5938 28.4517 33.5689 28.4586C33.5443 28.4655 33.5125 28.4731 33.4706 28.4819L33.676 29.4606ZM34.4908 28.3678C34.4306 27.6024 34.3607 26.8379 34.2939 26.0787L33.2978 26.1663C33.3649 26.9301 33.4341 27.6869 33.4939 28.4463L34.4908 28.3678ZM21.8386 27.8332C21.8386 25.9647 23.3533 24.45 25.2218 24.45V23.45C22.8011 23.45 20.8386 25.4124 20.8386 27.8332H21.8386ZM25.2218 24.45C27.0903 24.45 28.605 25.9647 28.605 27.8332H29.605C29.605 25.4124 27.6426 23.45 25.2218 23.45V24.45ZM28.605 27.8332C28.605 28.7314 28.2484 29.5919 27.6138 30.2262L28.3208 30.9335C29.1431 30.1116 29.605 28.9966 29.605 27.8332H28.605ZM27.6138 30.2262C26.9792 30.8606 26.1185 31.2168 25.2212 31.2164L25.2207 32.2164C26.3834 32.2169 27.4985 31.7554 28.3208 30.9335L27.6138 30.2262ZM25.221 32.2164H25.2218V31.2164H25.221V32.2164ZM25.2218 31.2164C23.3533 31.2164 21.8386 29.7017 21.8386 27.8332H20.8386C20.8386 30.2539 22.8011 32.2164 25.2218 32.2164L25.2218 31.2164Z" fill="#7B39D9"/>
</svg>
