<svg width="51" height="47" viewBox="0 0 51 47" fill="none" xmlns="http://www.w3.org/2000/svg">
<rect x="0.842041" y="0.5" width="45.696" height="37.1057" rx="0.5" stroke="#7B39D9"/>
<rect x="1" y="12" width="46" height="1" fill="#7B39D9"/>
<circle cx="6.5" cy="7.5" r="1.5" fill="#7B39D9"/>
<circle cx="12.5" cy="7.5" r="1.5" fill="#7B39D9"/>
<rect x="17.9125" y="4.46484" width="23.0088" height="5.1674" rx="0.5" fill="#F9F5FF" stroke="#7B39D9"/>
<path d="M49.8341 24.285C49.6583 32.9324 46.5648 40.6222 38.4912 45.6372C38.3435 45.729 38.1562 45.73 38.0097 45.6417C30.966 41.3954 26.6828 34.188 26.7234 24.2341C26.7243 24.0244 26.8672 23.8326 27.0812 23.7703C28.1976 23.4452 30.4151 22.787 32.008 22.2328C32.9266 21.9132 33.774 21.5185 34.5484 21.1579C34.8493 21.0177 35.1392 20.8827 35.4181 20.7592C36.4395 20.3067 37.3369 19.9949 38.2555 19.9934C39.1837 19.9919 40.1703 20.3195 41.2338 20.7802C41.6166 20.946 42.0186 21.134 42.4286 21.3256C43.1107 21.6444 43.8149 21.9735 44.4889 22.2283C46.5324 23.0006 48.4227 23.5267 49.4412 23.7884C49.6816 23.8502 49.8386 24.0609 49.8341 24.285Z" fill="#F9F5FF" stroke="#F9F5FF"/>
<path d="M47.7399 25.9537C47.5663 32.9871 45.0365 39.2279 38.5161 43.3244C38.3702 43.4161 38.1852 43.4171 38.0403 43.3286C32.3406 39.8501 28.8643 33.9882 28.8616 25.9017C28.8615 25.6948 29.0025 25.5036 29.2179 25.4406C30.1705 25.1618 31.9012 24.6446 33.1607 24.2057C33.9227 23.9402 34.628 23.6113 35.2678 23.3128C35.5149 23.1976 35.7522 23.0869 35.9793 22.9861C36.8195 22.6134 37.5453 22.3626 38.2834 22.3613C39.0296 22.3601 39.829 22.6242 40.7039 23.0038C41.0144 23.1385 41.3438 23.2926 41.681 23.4505C42.2464 23.715 42.8339 23.99 43.3919 24.2012C44.9931 24.8073 46.4799 25.23 47.347 25.4568C47.5895 25.5202 47.7453 25.7321 47.7399 25.9537Z" fill="#F9F5FF" stroke="#7B39D9"/>
</svg>
