<svg width="40" height="31" viewBox="0 0 40 31" fill="none" xmlns="http://www.w3.org/2000/svg">
<rect x="0.5" y="0.5" width="39" height="30" rx="1.5" stroke="#6A6E7C"/>
<rect x="3" y="10" width="15" height="4" fill="#F4F4F4"/>
<path d="M39 9V29C39 29.5523 38.5523 30 38 30H20V9H39Z" fill="#F4F4F4"/>
<rect x="23" y="19" width="14" height="1" fill="#C4C4C4"/>
<rect x="23" y="13" width="5" height="1" fill="#C4C4C4"/>
<rect x="32" y="13" width="5" height="1" fill="#C4C4C4"/>
<rect x="6" y="6" width="7" height="1" fill="#C4C4C4"/>
<rect x="21" y="6" width="5" height="1" fill="#C4C4C4"/>
<rect x="32" y="6" width="5" height="1" fill="#C4C4C4"/>
<rect x="23" y="25" width="4" height="1" fill="#C4C4C4"/>
<rect x="32" y="25" width="4" height="1" fill="#C4C4C4"/>
<rect x="5" y="15" width="11" height="3" fill="#C4C4C4"/>
<rect x="5" y="12" width="2" height="1" fill="#FA5A28"/>
<rect x="8" y="12" width="5" height="1" fill="#C4C4C4"/>
<rect x="5" y="19" width="11" height="3" fill="#C4C4C4"/>
<rect x="5" y="23" width="11" height="3" fill="#FA5A28"/>
<rect x="3.25" y="10.25" width="14.5" height="17.5" stroke="#C4C4C4" stroke-width="0.5"/>
<rect x="7" y="16" width="7" height="1" fill="white"/>
<rect x="7" y="20" width="7" height="1" fill="white"/>
<rect x="7" y="24" width="7" height="1" fill="white"/>
<rect x="3" y="6" width="2" height="1" fill="#FA5A28"/>
<rect x="20" y="8" width="7" height="1" fill="#FA5A28"/>
<rect x="1" y="4" width="38" height="0.5" fill="#6A6E7C"/>
<circle cx="3.5" cy="2.5" r="0.5" fill="#6A6E7C"/>
<circle cx="5.5" cy="2.5" r="0.5" fill="#6A6E7C"/>
<circle cx="7.5" cy="2.5" r="0.5" fill="#6A6E7C"/>
</svg>
