<svg width="40" height="31" viewBox="0 0 40 31" fill="none" xmlns="http://www.w3.org/2000/svg">
<rect x="0.5" y="0.5" width="39" height="30" rx="1.5" stroke="#6A6E7C"/>
<path d="M39 4V29C39 29.5523 38.5523 30 38 30H14V4H39Z" fill="#F4F4F4"/>
<rect x="17.25" y="8.25" width="4.5" height="4.5" rx="0.25" fill="white" stroke="#6A6E7C" stroke-width="0.5"/>
<rect x="17.25" y="15.25" width="4.5" height="4.5" rx="0.25" fill="white" stroke="#6A6E7C" stroke-width="0.5"/>
<rect x="17.25" y="22.25" width="4.5" height="4.5" rx="0.25" fill="white" stroke="#6A6E7C" stroke-width="0.5"/>
<rect x="24.25" y="8.25" width="4.5" height="4.5" rx="0.25" fill="white" stroke="#6A6E7C" stroke-width="0.5"/>
<rect x="24.25" y="15.25" width="4.5" height="4.5" rx="0.25" fill="white" stroke="#FA5A28" stroke-width="0.5"/>
<rect x="24.25" y="22.25" width="4.5" height="4.5" rx="0.25" fill="white" stroke="#6A6E7C" stroke-width="0.5"/>
<rect x="31.25" y="8.25" width="4.5" height="4.5" rx="0.25" fill="white" stroke="#6A6E7C" stroke-width="0.5"/>
<rect x="31.25" y="15.25" width="4.5" height="4.5" rx="0.25" fill="white" stroke="#6A6E7C" stroke-width="0.5"/>
<rect x="31.25" y="22.25" width="4.5" height="4.5" rx="0.25" fill="white" stroke="#6A6E7C" stroke-width="0.5"/>
<rect x="3" y="8" width="1" height="1" fill="#FA5A28"/>
<rect x="3" y="12" width="1" height="1" fill="#FA5A28"/>
<rect x="3" y="16" width="1" height="1" fill="#FA5A28"/>
<rect x="3" y="20" width="1" height="1" fill="#FA5A28"/>
<rect x="3" y="24" width="1" height="1" fill="#FA5A28"/>
<rect x="6" y="8" width="6" height="1" rx="0.5" fill="#6A6E7C"/>
<rect x="6" y="12" width="6" height="1" rx="0.5" fill="#6A6E7C"/>
<rect x="6" y="16" width="6" height="1" rx="0.5" fill="#6A6E7C"/>
<rect x="6" y="20" width="6" height="1" rx="0.5" fill="#6A6E7C"/>
<rect x="6" y="24" width="6" height="1" rx="0.5" fill="#6A6E7C"/>
<rect x="1" y="4" width="38" height="0.5" fill="#6A6E7C"/>
<circle cx="3.5" cy="2.5" r="0.5" fill="#6A6E7C"/>
<circle cx="5.5" cy="2.5" r="0.5" fill="#6A6E7C"/>
<circle cx="7.5" cy="2.5" r="0.5" fill="#6A6E7C"/>
</svg>
