<svg width="80" height="90" viewBox="0 0 80 90" fill="none" xmlns="http://www.w3.org/2000/svg">
<path opacity="0.3" fill-rule="evenodd" clip-rule="evenodd" d="M44.6848 88.5414C41.7859 90.2199 38.2146 90.2199 35.3157 88.5414L4.68447 70.8013C1.78563 69.1222 0 66.0201 0 62.6625L0 27.1823C0 23.8247 1.78563 20.7221 4.68447 19.0436L35.3157 1.30349C38.2146 -0.375579 41.7859 -0.375579 44.6848 1.30349L75.3155 19.0436C78.2144 20.7221 80 23.8247 80 27.1823V62.6625C80 66.0201 78.2144 69.1222 75.3155 70.8013V70.8013L44.6848 88.5414Z" fill="#FA5A28"/>
<path fill-rule="evenodd" clip-rule="evenodd" d="M44.8234 84.8598C42.1687 86.3945 38.8982 86.3945 36.2435 84.8598L8.19236 68.6401C5.53769 67.1049 3.90247 64.2686 3.90247 61.1987L3.90247 28.7592C3.90247 25.6893 5.53769 22.8526 8.19236 21.3179L36.2435 5.09816C38.8982 3.56298 42.1687 3.56298 44.8234 5.09816L72.874 21.3179C75.5287 22.8526 77.164 25.6893 77.164 28.7592V61.1987C77.164 64.2686 75.5287 67.1049 72.874 68.6401V68.6401L44.8234 84.8598Z" fill="url(#paint0_linear)"/>
<path d="M60.0369 60.8909L40.5987 72.4276L20.6113 60.888L40.2536 49.4651L60.0369 60.8909Z" fill="white" fill-opacity="0.7"/>
<path d="M64.8129 47.7504L40.6652 62.0822L15.8353 47.7467L40.2365 33.5563L64.8129 47.7504Z" fill="white" fill-opacity="0.9"/>
<path d="M69.5935 34.6084L40.3252 51.3367L11.0569 34.6084L40.3252 17.1663L69.5935 34.6084Z" fill="#8033EB" fill-opacity="0.7"/>
<defs>
<linearGradient id="paint0_linear" x1="82.0504" y1="143.682" x2="116.274" y2="69.1975" gradientUnits="userSpaceOnUse">
<stop stop-color="#8033EB"/>
<stop offset="1" stop-color="#F94F24"/>
</linearGradient>
</defs>
</svg>
