<svg width="256" height="140" viewBox="0 0 256 140" fill="none" xmlns="http://www.w3.org/2000/svg">
<path fill-rule="evenodd" clip-rule="evenodd" d="M32.1343 26.2577C31.664 25.9736 31.7682 25.0837 32.4499 25.0837H54C53.8268 14.4782 47.1055 5.08746 37.1219 1.50211C27.1382 -2.08325 15.9774 0.885615 9.09535 8.95741C2.21326 17.0292 1.0473 28.518 6.16744 37.8076C11.2876 47.0972 21.6244 52.2473 32.1248 50.7404L32.1343 26.2577Z" fill="#F2F2F2"/>
<path fill-rule="evenodd" clip-rule="evenodd" d="M251.008 105.501C251.008 110.154 248.203 114.349 243.901 116.128C239.6 117.907 234.65 116.919 231.362 113.625C228.073 110.331 227.095 105.38 228.883 101.084C230.67 96.7869 234.872 93.9907 239.527 94C242.576 94 245.5 95.2124 247.654 97.3699C249.807 99.5273 251.014 102.453 251.008 105.501Z" fill="#F2F2F2"/>
<path fill-rule="evenodd" clip-rule="evenodd" d="M237.87 51.0019H220V62.999H237.87C240.045 63.0533 242.078 61.9219 243.181 60.0437C244.285 58.1654 244.285 55.8355 243.181 53.9572C242.078 52.0789 240.045 50.9476 237.87 51.0019Z" fill="#F2F2F2"/>
<rect x="23" y="25" width="208" height="112" fill="white"/>
<rect x="23.0116" y="25.0029" width="2" height="113.008" fill="#EFEFEF"/>
<rect x="231.012" y="25.0029" width="2" height="113.008" fill="#EFEFEF"/>
<rect x="16.0076" y="137.012" width="225.082" height="2.00015" fill="#DEDEDE"/>
<rect x="23.0116" y="23.002" width="210.076" height="15" fill="#D3D3D3"/>
<rect x="3.00256" y="137.012" width="8.0029" height="2.00015" fill="#DEDEDE"/>
<rect x="247.003" y="137.012" width="8.0029" height="2.00015" fill="#DEDEDE"/>
<path fill-rule="evenodd" clip-rule="evenodd" d="M18.0065 88.0007C18.0065 92.9716 13.9756 97.0013 9.00326 97.0013C4.0309 97.0013 0 92.9716 0 88.0007C0 83.0297 4.0309 79 9.00326 79C11.3911 79 13.6811 79.9483 15.3695 81.6362C17.058 83.3242 18.0065 85.6135 18.0065 88.0007Z" fill="#F2F2F2"/>
<rect x="24" y="38.001" width="16.0058" height="99" fill="#EFEFEF"/>
<path fill-rule="evenodd" clip-rule="evenodd" d="M126.051 75.0078H55.0254V49.0059H126.051V75.0078ZM55.3992 74.6359H125.677V49.3777H55.3992V74.6359Z" fill="#F94F24"/>
<path fill-rule="evenodd" clip-rule="evenodd" d="M92.0414 82.008C92.0414 83.1126 91.0506 84.0081 89.8285 84.0081H57.2408C56.0187 84.0081 55.028 83.1126 55.028 82.008C55.028 81.4775 55.2611 80.9687 55.6761 80.5936C56.0911 80.2185 56.6539 80.0078 57.2408 80.0078H89.8285C90.4154 80.0078 90.9782 80.2185 91.3932 80.5936C91.8082 80.9687 92.0414 81.4775 92.0414 82.008Z" fill="#E9E9E9"/>
<path fill-rule="evenodd" clip-rule="evenodd" d="M92.0414 88.0001C92.0414 89.1048 91.0506 90.0003 89.8285 90.0003H57.2408C56.0187 90.0003 55.028 89.1048 55.028 88.0001C55.028 87.4697 55.2611 86.9609 55.6761 86.5858C56.0911 86.2107 56.6539 86 57.2408 86H89.8285C90.4154 86 90.9782 86.2107 91.3932 86.5858C91.8082 86.9609 92.0414 87.4697 92.0414 88.0001Z" fill="#E9E9E9"/>
<path fill-rule="evenodd" clip-rule="evenodd" d="M99.0414 57.0001C99.0414 58.1048 98.0506 59.0003 96.8285 59.0003H64.2408C63.0187 59.0003 62.028 58.1048 62.028 57.0001C62.028 56.4697 62.2611 55.9609 62.6761 55.5858C63.0911 55.2107 63.6539 55 64.2408 55H96.8285C97.4154 55 97.9782 55.2107 98.3932 55.5858C98.8082 55.9609 99.0414 56.4697 99.0414 57.0001Z" fill="#E9E9E9"/>
<path d="M148.5 62C148.5 54.5442 154.544 48.5 162 48.5H202C209.456 48.5 215.5 54.5442 215.5 62V137.5H148.5V62Z" stroke="#979797"/>
<rect x="148" y="137" width="68" height="2" fill="#D8D8D8"/>
<path d="M156 65C156 60.0294 160.029 56 165 56H199C203.971 56 208 60.0294 208 65V136H156V65Z" fill="#F3F3F3"/>
<rect x="168" y="54" width="27" height="7" rx="2" fill="white"/>
<rect x="176" y="58" width="11" height="1" rx="0.5" fill="#D8D8D8"/>
<rect x="173" y="58" width="1" height="1" rx="0.5" fill="#D8D8D8"/>
<rect x="189" y="58" width="1" height="1" rx="0.5" fill="#D8D8D8"/>
<mask id="path-24-inside-1" fill="white">
<path d="M147 67.5C147 67.2239 147.224 67 147.5 67H148V75H147.5C147.224 75 147 74.7761 147 74.5V67.5Z"/>
</mask>
<path d="M147 67.5C147 67.2239 147.224 67 147.5 67H148V75H147.5C147.224 75 147 74.7761 147 74.5V67.5Z" fill="#D8D8D8"/>
<path d="M148 67H149V66H148V67ZM148 75V76H149V75H148ZM147.5 68H148V66H147.5V68ZM147 67V75H149V67H147ZM148 74H147.5V76H148V74ZM148 74.5V67.5H146V74.5H148ZM147.5 74C147.776 74 148 74.2239 148 74.5H146C146 75.3284 146.672 76 147.5 76V74ZM147.5 66C146.672 66 146 66.6716 146 67.5H148C148 67.7761 147.776 68 147.5 68V66Z" fill="#979797" mask="url(#path-24-inside-1)"/>
<mask id="path-26-inside-2" fill="white">
<path d="M147 80.5C147 80.2239 147.224 80 147.5 80H148V94H147.5C147.224 94 147 93.7761 147 93.5V80.5Z"/>
</mask>
<path d="M147 80.5C147 80.2239 147.224 80 147.5 80H148V94H147.5C147.224 94 147 93.7761 147 93.5V80.5Z" fill="#D8D8D8"/>
<path d="M148 80H149V79H148V80ZM148 94V95H149V94H148ZM147.5 81H148V79H147.5V81ZM147 80V94H149V80H147ZM148 93H147.5V95H148V93ZM148 93.5V80.5H146V93.5H148ZM147.5 93C147.776 93 148 93.2239 148 93.5H146C146 94.3284 146.672 95 147.5 95V93ZM147.5 79C146.672 79 146 79.6716 146 80.5H148C148 80.7761 147.776 81 147.5 81V79Z" fill="#979797" mask="url(#path-26-inside-2)"/>
<mask id="path-28-inside-3" fill="white">
<path d="M147 95.5C147 95.2239 147.224 95 147.5 95H148V109H147.5C147.224 109 147 108.776 147 108.5V95.5Z"/>
</mask>
<path d="M147 95.5C147 95.2239 147.224 95 147.5 95H148V109H147.5C147.224 109 147 108.776 147 108.5V95.5Z" fill="#D8D8D8"/>
<path d="M148 95H149V94H148V95ZM148 109V110H149V109H148ZM147.5 96H148V94H147.5V96ZM147 95V109H149V95H147ZM148 108H147.5V110H148V108ZM148 108.5V95.5H146V108.5H148ZM147.5 108C147.776 108 148 108.224 148 108.5H146C146 109.328 146.672 110 147.5 110V108ZM147.5 94C146.672 94 146 94.6716 146 95.5H148C148 95.7761 147.776 96 147.5 96V94Z" fill="#979797" mask="url(#path-28-inside-3)"/>
<path fill-rule="evenodd" clip-rule="evenodd" d="M88.028 65.0001C88.028 66.1048 87.332 67.0003 86.4735 67.0003H63.5824C62.7239 67.0003 62.028 66.1048 62.028 65.0001C62.028 64.4697 62.1917 63.9609 62.4832 63.5858C62.7747 63.2107 63.1701 63 63.5824 63H86.4735C86.8858 63 87.2812 63.2107 87.5727 63.5858C87.8642 63.9609 88.028 64.4697 88.028 65.0001Z" fill="#E9E9E9"/>
<rect x="55" y="97" width="33" height="11" rx="2" fill="#FA5A28"/>
<rect x="93" y="97" width="33" height="11" rx="2" fill="#E9E9E9"/>
<path fill-rule="evenodd" clip-rule="evenodd" d="M82 102C82 103.105 81.4111 104 80.6847 104H61.3153C60.5889 104 60 103.105 60 102C60 101.47 60.1386 100.961 60.3852 100.586C60.6319 100.211 60.9664 100 61.3153 100H80.6847C81.0336 100 81.3681 100.211 81.6148 100.586C81.8614 100.961 82 101.47 82 102Z" fill="#E9E9E9"/>
<path fill-rule="evenodd" clip-rule="evenodd" d="M121 102C121 103.105 120.411 104 119.685 104H100.315C99.5889 104 99 103.105 99 102C99 101.47 99.1386 100.961 99.3852 100.586C99.6319 100.211 99.9664 100 100.315 100H119.685C120.034 100 120.368 100.211 120.615 100.586C120.861 100.961 121 101.47 121 102Z" fill="#FBFBFB"/>
<path fill-rule="evenodd" clip-rule="evenodd" d="M130.053 49.5062C130.053 51.9912 128.038 54.0058 125.552 54.0065C123.067 54.0072 121.051 51.9937 121.049 49.5088C121.048 47.0238 123.061 45.008 125.547 45.0059C126.742 45.0038 127.889 45.4772 128.734 46.3215C129.579 47.1658 130.054 48.3116 130.053 49.5062Z" fill="#F94F24"/>
<path fill-rule="evenodd" clip-rule="evenodd" d="M127.532 48.4971H126.614V47.6017C126.63 47.3946 126.527 47.1958 126.346 47.0873C126.165 46.9787 125.937 46.9787 125.756 47.0873C125.575 47.1958 125.472 47.3946 125.489 47.6017V48.4971H124.57C124.277 48.5198 124.05 48.7596 124.05 49.0478C124.05 49.336 124.277 49.5757 124.57 49.5984H125.489V50.4973C125.512 50.7846 125.757 51.0061 126.051 51.0061C126.346 51.0061 126.591 50.7846 126.614 50.4973V49.5984H127.532C127.826 49.5757 128.052 49.336 128.052 49.0478C128.052 48.7596 127.826 48.5198 127.532 48.4971Z" fill="white"/>
<path fill-rule="evenodd" clip-rule="evenodd" d="M31.5016 55.001C29.0142 55.001 27 56.3465 27 58.0012C27 59.6559 29.0142 61.0014 31.5016 61.0014C33.9891 61.0014 36.0033 59.66 36.0033 58.0012C36.0033 56.3424 33.9891 55.001 31.5016 55.001ZM31.5016 60.4954C30.2031 60.4954 29.1505 59.3787 29.1505 58.0012C29.1505 56.6237 30.2031 55.507 31.5016 55.507C32.8001 55.507 33.8528 56.6237 33.8528 58.0012C33.8538 58.6634 33.6065 59.2988 33.1655 59.7674C32.7244 60.236 32.1258 60.4994 31.5016 60.4994V60.4954Z" fill="#D3D3D3"/>
<path fill-rule="evenodd" clip-rule="evenodd" d="M33.0022 57.5011C33.0022 58.3296 32.3304 59.0012 31.5016 59.0012C30.6729 59.0012 30.0011 58.3296 30.0011 57.5011C30.0011 56.6726 30.6729 56.001 31.5016 56.001C32.3304 56.001 33.0022 56.6726 33.0022 57.5011Z" fill="#D3D3D3"/>
<path fill-rule="evenodd" clip-rule="evenodd" d="M31.5016 44C29.5679 44 28.0004 45.5671 28.0004 47.5003C28.0004 49.4334 29.5679 51.0005 31.5016 51.0005C33.4353 51.0005 35.0029 49.4334 35.0029 47.5003C35.0029 45.5671 33.4353 44 31.5016 44ZM32.675 47.9725H31.974V48.6695C31.974 48.9303 31.7625 49.1417 31.5016 49.1417C31.2408 49.1417 31.0293 48.9303 31.0293 48.6695V47.9725H30.332C30.1526 47.9884 29.9794 47.9017 29.8848 47.7484C29.7901 47.5952 29.7901 47.4016 29.8848 47.2483C29.9794 47.095 30.1526 47.0083 30.332 47.0243H31.0293V46.3273C31.0293 46.0665 31.2408 45.8551 31.5016 45.8551C31.7625 45.8551 31.974 46.0665 31.974 46.3273V47.043H32.675C32.9206 47.0649 33.1089 47.2706 33.1089 47.5171C33.1089 47.7636 32.9206 47.9693 32.675 47.9912V47.9725Z" fill="#D3D3D3"/>
<path fill-rule="evenodd" clip-rule="evenodd" d="M96.0062 35.0005C95.9029 35.0005 95.8191 34.9188 95.8191 34.818V28.1825C95.8191 28.0817 95.9029 28 96.0062 28C96.1087 28.0019 96.1913 28.0825 96.1933 28.1825V34.818C96.1933 34.9188 96.1095 35.0005 96.0062 35.0005Z" fill="white"/>
<path fill-rule="evenodd" clip-rule="evenodd" d="M121.015 35.0005C120.912 35.0005 120.828 34.9188 120.828 34.818V28.1825C120.83 28.0825 120.913 28.0019 121.015 28C121.119 28 121.202 28.0817 121.202 28.1825V34.818C121.202 34.9188 121.119 35.0005 121.015 35.0005Z" fill="white"/>
<path fill-rule="evenodd" clip-rule="evenodd" d="M145.024 35.0005C144.921 35.0005 144.837 34.9188 144.837 34.818V28.1825C144.837 28.0817 144.921 28 145.024 28C145.127 28 145.211 28.0817 145.211 28.1825V34.818C145.211 34.9188 145.127 35.0005 145.024 35.0005Z" fill="white"/>
<path fill-rule="evenodd" clip-rule="evenodd" d="M176.035 35.0005C175.932 35.0005 175.848 34.9188 175.848 34.818V28.1825C175.85 28.0825 175.933 28.0019 176.035 28C176.138 28 176.222 28.0817 176.222 28.1825V34.818C176.222 34.9188 176.138 35.0005 176.035 35.0005Z" fill="white"/>
<path fill-rule="evenodd" clip-rule="evenodd" d="M84.0018 31.5212C84.0018 32.8905 82.8821 34.0005 81.5009 34.0005C80.1197 34.0005 79 32.8905 79 31.5212C79 30.1532 81.5009 27 81.5009 27C81.5009 27 84.0018 30.1532 84.0018 31.5212Z" fill="white"/>
<path fill-rule="evenodd" clip-rule="evenodd" d="M108.012 33.95L105.647 32L105.009 32.5251L108.012 35.0002L111.012 32.5251L110.374 32L108.012 33.95Z" fill="white"/>
<path fill-rule="evenodd" clip-rule="evenodd" d="M105.016 29.9121L107.908 27.0183L110.799 29.9121L107.908 32.8059L105.016 29.9121Z" fill="white"/>
<path fill-rule="evenodd" clip-rule="evenodd" d="M131.393 30.0001C131.186 30.0001 131.019 29.834 131.019 29.6291V28.3711C131.019 28.1661 131.186 28 131.393 28H132.646C132.852 28 133.02 28.1661 133.02 28.3711C133.02 28.576 132.852 28.7422 132.646 28.7422H131.767V29.6291C131.767 29.834 131.599 30.0001 131.393 30.0001Z" fill="white"/>
<path fill-rule="evenodd" clip-rule="evenodd" d="M136.632 29.9998C136.426 29.9998 136.258 29.8337 136.258 29.6288V28.7421H135.394C135.188 28.7421 135.02 28.5759 135.02 28.371C135.02 28.1661 135.188 28 135.394 28H136.647C136.854 28 137.021 28.1661 137.021 28.371V29.6288C137.021 29.7298 136.98 29.8265 136.906 29.8966C136.833 29.9666 136.734 30.0039 136.632 29.9998Z" fill="white"/>
<path fill-rule="evenodd" clip-rule="evenodd" d="M136.632 33.9998H135.394C135.188 33.9998 135.02 33.8337 135.02 33.6288C135.02 33.4239 135.188 33.2578 135.394 33.2578H136.273V32.371C136.273 32.1661 136.44 32 136.647 32C136.854 32 137.021 32.1661 137.021 32.371V33.6288C137.021 33.7298 136.98 33.8265 136.906 33.8966C136.833 33.9666 136.734 34.0039 136.632 33.9998Z" fill="white"/>
<path fill-rule="evenodd" clip-rule="evenodd" d="M132.631 34.0001H131.393C131.186 34.0001 131.019 33.834 131.019 33.6291V32.3711C131.019 32.1661 131.186 32 131.393 32C131.599 32 131.767 32.1661 131.767 32.3711V33.258H132.646C132.852 33.258 133.02 33.4241 133.02 33.6291C133.02 33.834 132.852 34.0001 132.646 34.0001H132.631Z" fill="white"/>
<rect x="158.029" y="28" width="5.00182" height="5.00037" fill="white"/>
<path fill-rule="evenodd" clip-rule="evenodd" d="M157.192 32.8367V29H156.028V34.0004H161.03V32.8367H157.192Z" fill="white"/>
<path fill-rule="evenodd" clip-rule="evenodd" d="M183.1 30H183.038V33.8855C183.038 34.7913 183.781 35.0004 184.69 35.0004H186.387C187.3 35.0004 188.039 34.7913 188.039 33.8855V30.0205L183.1 30Z" fill="white"/>
<path fill-rule="evenodd" clip-rule="evenodd" d="M187.602 27.6856H187.019C187.023 27.6538 187.023 27.6214 187.019 27.5896C187.017 27.2632 186.802 27 186.538 27H184.697C184.433 27 184.218 27.2632 184.216 27.5896C184.214 27.6215 184.214 27.6537 184.216 27.6856H183.633C183.429 27.6565 183.229 27.7746 183.12 27.9893C183.01 28.2041 183.01 28.4773 183.12 28.6921C183.229 28.9068 183.429 29.0249 183.633 28.9958H187.567C187.836 28.9573 188.039 28.6756 188.039 28.3407C188.039 28.0058 187.836 27.7241 187.567 27.6856H187.602Z" fill="white"/>
<rect x="55.5" y="114.5" width="71" height="13" stroke="#00CCB0" stroke-dasharray="1"/>
</svg>
