<?xml version="1.0" encoding="UTF-8"?>
<svg width="50px" height="50px" viewBox="0 0 50 50" version="1.1" xmlns="http://www.w3.org/2000/svg" xmlns:xlink="http://www.w3.org/1999/xlink">
    <!-- Generator: Sketch 50.2 (55047) - http://www.bohemiancoding.com/sketch -->
    <title>Github Icon</title>
    <desc>Created with Sketch.</desc>
    <defs></defs>
    <g id="Home-v1" stroke="none" stroke-width="1" fill="none" fill-rule="evenodd">
        <g id="Main-page" transform="translate(-1058.000000, -6975.000000)">
            <g id="FAQ-/-Patreon" transform="translate(252.000000, 6718.000000)">
                <g id="Right-Boxes-v1" transform="translate(784.000000, 6.000000)">
                    <g id="GitHub" transform="translate(22.000000, 242.000000)">
                        <g id="Github-Icon" transform="translate(0.000000, 9.000000)">
                            <circle id="Oval-2" fill="#EDEDED" cx="25" cy="25" r="25"></circle>
                            <g id="Octicons-mark-github-Copy" transform="translate(9.000000, 11.000000)" fill="#565656" fill-rule="nonzero">
                                <path d="M16,0 C7.1640625,0 0,6.65655952 0,14.8665582 C0,21.436009 4.584,27.0073388 10.942375,28.9727152 C11.7421875,29.1088372 12.0341875,28.649687 12.0341875,28.2576977 C12.0341875,27.9038039 12.0195312,26.7314945 12.0117188,25.4901949 C7.5625,26.3884893 6.6220625,23.7371315 6.6220625,23.7371315 C5.8935625,22.0203635 4.8456875,21.5630426 4.8456875,21.5630426 C3.39159375,20.6411418 4.956,20.6592894 4.956,20.6592894 C6.5624375,20.7627165 7.4081875,22.1909514 7.4081875,22.1909514 C8.8359375,24.4630377 11.1542813,23.8060926 12.0644375,23.4249919 C12.209875,22.4667958 12.6239375,21.8098507 13.0800625,21.4396385 C9.5283125,21.0639966 5.792,19.788202 5.792,14.0916389 C5.792,12.4674093 6.41603125,11.1426596 7.4375,10.1018844 C7.27440625,9.72441318 6.723625,8.21179895 7.5956875,6.16567273 C7.5956875,6.16567273 8.9375,5.76642434 11.9960625,7.69007568 C13.2714375,7.35888825 14.639625,7.19555936 15.9999688,7.19010055 C17.3593438,7.19555936 18.7284688,7.3606885 20.0058438,7.69187592 C23.0585938,5.76642434 24.4023438,6.16747298 24.4023438,6.16747298 C25.2773438,8.21542849 24.7265625,9.72621343 24.5625,10.1018844 C25.587875,11.1426596 26.2070312,12.4674384 26.2070312,14.0916389 C26.2070312,19.8027201 22.4648438,21.060338 18.9004062,21.4287499 C19.4765937,21.8897004 19.9863437,22.7934535 19.9863437,24.1799343 C19.9863437,26.1671169 19.9648438,27.7695403 19.9648438,28.2595269 C19.9648438,28.6551458 20.2558438,29.1178965 21.0664062,28.9727152 C27.4199375,27.0037093 32,21.4323795 32,14.8665582 C32,6.65655952 24.8359375,0 16,0 Z" id="Shape"></path>
                            </g>
                        </g>
                    </g>
                </g>
            </g>
        </g>
    </g>
</svg>