<?xml version="1.0" encoding="UTF-8"?>
<svg width="275px" height="150px" viewBox="0 0 275 150" version="1.1" xmlns="http://www.w3.org/2000/svg" xmlns:xlink="http://www.w3.org/1999/xlink">
    <!-- Generator: Sketch 55.2 (78181) - https://sketchapp.com -->
    <title>undraw_hamburger_91cc</title>
    <desc>Created with Sketch.</desc>
    <g id="Why-Webiny" stroke="none" stroke-width="1" fill="none" fill-rule="evenodd">
        <g id="Agency-Landing-Page" transform="translate(-1118.000000, -793.000000)">
            <g id="Feature-list" transform="translate(148.000000, 780.000000)">
                <g id="Icons---v2" transform="translate(56.000000, 13.000000)">
                    <g id="undraw_hamburger_91cc" transform="translate(914.000000, 0.000000)">
                        <path d="M188.278297,128.306063 C213.906206,128.003764 239.533243,128.17711 265.159409,128.826102 C267.363916,128.881962 269.651495,128.953706 271.598284,129.537523 C273.545074,130.12134 275.043282,131.373754 274.510642,132.576949 C264.507028,132.872878 254.493086,132.964316 244.468817,132.851264 C242.285782,133.920553 239.889096,135.531089 241.230734,136.973152 C242.159096,137.971008 244.450695,138.268076 246.454723,138.270414 C250.084386,138.27465 253.728647,137.678876 257.304602,138.028421 C260.880556,138.377967 264.448726,140.258766 263.401195,142.211307 C262.605708,143.694048 259.587774,144.428038 256.841325,144.559104 C254.094876,144.69017 251.282695,144.417627 248.598142,144.768749 C246.046997,145.102416 243.836721,145.969437 241.449127,146.574673 C237.682853,147.529391 233.507855,147.824381 229.400206,148.075325 C197.85914,150.002228 166.056515,149.986939 134.329556,149.969487 C121.48516,149.962419 108.466302,149.942967 96.0630457,148.067888 C88.9929365,146.999053 82.2179086,145.339261 75.058599,144.478023 C66.5068959,143.449287 57.6685711,143.588924 48.9232208,143.619756 C33.5704695,143.673883 18.230665,143.378025 2.90380711,142.73218 C1.76324112,142.684091 0.363225888,142.521218 0.0554187817,141.902302 C-0.30380203,141.18 1.15406345,140.616383 2.38636548,140.328142 C9.36909958,138.711859 16.4691901,137.6528 23.6196472,137.160957 C27.2409518,136.906317 30.9726142,136.776693 34.303269,135.938426 C37.6339239,135.10016 40.5437056,133.342206 40.5124365,131.291789 C40.5028985,130.666307 40.2389695,129.997185 40.7609822,129.444703 C41.4541472,128.711074 43.1596193,128.542764 44.6310761,128.462782 C60.9430609,127.576119 77.3439442,127.205987 93.7299543,127.354721 C99.4939137,127.407041 105.281627,127.522871 111.004769,127.134624 C115.694145,126.816508 120.287256,126.163373 124.908782,125.615041 C131.112226,124.879015 158.109459,121.066124 162.047734,124.159929 C164.995855,126.475896 158.909211,126.975607 166.816261,127.920665 C173.701015,128.743538 181.295485,128.388431 188.278297,128.306063 Z" id="Path" fill="#F2F2F2" fill-rule="nonzero"></path>
                        <path d="M88.507132,117.72853 C88.507132,117.72853 79.0031777,136.534231 87.0916497,136.534231 C95.1801218,136.534231 197.094878,136.938655 199.925843,131.681147 C201.909254,127.99767 200.81569,114.884739 199.983109,107.363216 C199.647404,104.327875 196.997819,102.084234 193.948655,102.253302 C171.907299,103.469868 89.564533,107.978429 89.9226142,107.415739 C90.6303553,106.303574 90.1248274,106.606891 90.1248274,106.606891 C90.1248274,106.606891 86.8894365,116.919685 88.507132,117.72853 Z" id="Path" fill="#3F3D56" fill-rule="nonzero"></path>
                        <path d="M200.185322,107.363201 C199.849612,104.327862 197.200023,102.084227 194.15086,102.253302 C172.109525,103.469881 89.7667589,107.978429 90.1248274,107.415726 C90.8325685,106.303561 90.3270381,106.606878 90.3270381,106.606878 C90.3270381,106.606878 89.6048807,108.909162 89.0135,111.423332 C89.0973274,111.415038 89.1599772,111.493952 88.8869695,111.974348 C88.8626802,112.082761 88.8387538,112.191198 88.8151904,112.29966 C92.1131777,112.625515 171.201695,108.294919 192.735378,107.106381 C195.784541,106.937306 198.43413,109.180941 198.76984,112.216279 C199.388876,117.808454 200.151751,126.490454 199.687444,132.090898 C199.866498,131.993627 200.018062,131.852676 200.128053,131.681142 C202.11147,127.997668 201.017916,114.884731 200.185322,107.363201 Z" id="Path" fill="#000000" fill-rule="nonzero" opacity="0.1"></path>
                        <path d="M99.8349289,89.5453503 C98.7814162,89.2224873 97.448066,88.8055508 97.568236,88.1256599 C97.6320812,87.7644239 98.1154594,87.4826066 98.465698,87.179736 C99.1408249,86.5959289 99.3228706,85.7736117 98.5976904,85.2097614 C97.8725102,84.6459112 96.1258046,84.5705152 95.4860152,85.1671853 C95.1568934,85.4741218 95.1767234,85.8590635 95.0068071,86.205736 C94.4767005,87.2872589 92.331868,87.762132 90.5098274,88.1823096 C88.6877868,88.6024873 86.6492132,89.384231 86.8205051,90.5031218 C87.0073579,91.7236802 89.8181523,92.8064594 88.687203,93.847198 C88.2770914,94.2245964 87.4143909,94.4351777 87.2308173,94.866901 C87.1016548,95.1706548 87.3611015,95.4795584 87.6129543,95.7570279 L89.4028604,97.7289898 C90.1150051,98.513566 90.8487792,99.3672766 90.6102665,100.240612 C90.1375051,101.97167 86.294835,102.633916 83.2490761,102.439411 C82.1337132,102.368183 80.8227792,102.270678 80.0563325,102.739358 C79.4656599,103.100551 79.466665,103.663142 79.6629949,104.144688 C80.1683046,105.384069 81.7848223,106.457414 83.8536497,106.927223 C81.5349036,107.384693 80.6242589,109.312906 82.2251802,110.375368 C81.3090433,110.690548 80.3185902,110.718939 79.3859036,110.456754 C78.5941041,111.185688 79.0595914,112.186036 80.0638223,112.823713 C81.0680533,113.461391 82.4907259,113.82016 83.8682766,114.160805 L82.5790914,115.366241 C83.5120431,116.094848 85.5267234,115.838015 86.8853325,115.377495 C88.2439416,114.916975 89.7181777,114.298632 91.2403756,114.539594 C92.6679873,114.765581 93.7477995,115.717822 95.2014137,115.554766 C96.3279239,115.428404 96.8639975,114.704462 97.214967,114.079602 L98.7069315,111.423315 C100.830695,111.755586 103.063693,110.30035 102.210794,109.13986 C104.587332,109.395081 106.926556,107.851734 106.146391,106.543274 C107.412046,107.519449 108.30317,108.653462 108.739145,109.842713 C108.933944,110.374094 109.052518,110.935944 109.583122,111.386228 C110.286263,111.909305 111.19357,112.073445 112.035406,111.829868 C111.602043,112.670282 111.251025,113.650536 112.141596,114.363602 C113.032168,115.076668 115.602038,114.874439 115.488586,114.000675 C116.846647,114.584277 118.368487,115.132744 120.065744,115.176282 C121.763,115.21982 123.620467,114.573904 123.774995,113.606665 C126.166872,114.395531 128.669154,114.798299 131.187761,114.799827 C131.40202,114.152538 132.898216,113.943228 134.016855,114.101424 C135.135495,114.259619 136.17315,114.639706 137.325503,114.640355 C138.477855,114.641005 139.717127,113.947462 139.12716,113.381576 C141.553691,113.889202 144.044594,114.014904 146.509901,113.75414 C148.835452,113.507261 151.039398,112.920477 153.394325,112.793931 C155.78317,112.648478 158.174974,113.026235 160.402716,113.900822 C161.174739,114.224523 162.134302,114.63197 162.982449,114.378051 C163.463536,114.234023 163.697388,113.923025 164.024203,113.675079 C165.430827,112.607921 168.307089,112.812558 170.526221,113.232119 C172.745353,113.65168 175.326698,114.156784 177.271074,113.415234 C178.004739,113.135424 178.545325,112.703051 179.325708,112.46816 C182.121355,111.62667 185.4675,113.782827 188.434769,113.162454 C189.401046,112.960424 190.185053,112.477071 191.208627,112.417449 C193.024188,112.311693 194.223975,113.542213 195.989228,113.806896 C197.820853,114.081515 199.806409,112.96702 199.359635,111.915063 C201.120081,111.954135 202.875375,111.710164 204.558437,111.192475 L203.726939,109.695891 C205.798904,109.662515 207.323132,108.177183 206.363137,107.126959 C208.440949,106.731241 210.083898,105.666254 210.510972,104.438261 C210.938046,103.210269 210.132645,101.867 208.47764,101.047003 C207.500868,100.563046 206.218124,100.222716 205.659774,99.5562792 C205.257683,99.0763477 205.316284,98.5180279 205.159901,97.9934543 C204.817609,96.8452741 203.334013,95.8314873 201.417551,95.4361929 C200.585195,95.2645102 199.674391,95.1992716 198.920754,94.9341624 C198.167117,94.6690533 197.622784,94.0947792 198.057726,93.6542437 C198.287929,93.4210888 198.731305,93.2837792 199.017987,93.0720761 C200.180442,92.2136599 198.187254,91.1271878 196.485675,90.6452665 L200.549061,90.5123629 L201.421579,86.5562919 C199.813901,87.8638401 195.643599,87.5888274 194.598891,86.1063655 C195.904188,86.5346878 197.65486,85.9869924 198.293053,85.2077741 C198.931246,84.4285558 198.774386,83.5223553 198.604041,82.6674797 C198.571271,82.2355239 198.314164,81.8524737 197.926815,81.6585152 C197.529099,81.4690711 196.895459,81.3899873 196.76499,81.1036066 C196.631868,80.8113934 197.146363,80.5530051 197.222693,80.2542157 C197.369221,79.6806345 196.050744,79.4278426 195.160409,79.1504543 C193.059731,78.4959772 192.042518,76.6567792 189.652421,76.716566 C187.280883,76.7758883 186.618038,78.5865431 186.616414,79.9436015 C186.614789,81.3006599 185.812244,83.1154289 183.438832,83.0906777 C182.491079,83.0807919 181.664741,82.7400254 180.908018,82.413665 L174.110482,79.4820025 C173.212333,79.0641456 172.277915,78.7291498 171.318858,78.4811853 C169.947769,78.1612183 168.433036,78.1234239 166.953274,78.089797 L157.444254,77.8737081 C156.959929,77.8356716 156.472646,77.8775712 156.001924,77.9977284 C155.502431,78.1646142 155.259703,78.493203 154.958835,78.775703 C153.634792,80.0189188 150.52169,80.5058376 148.274972,79.8211345 C147.679299,79.6395964 147.14553,79.3893325 146.514312,79.2525406 C144.526081,78.8216599 142.439739,79.618835 140.373982,79.906835 C136.987569,80.3789569 132.779383,79.5663426 130.338069,80.9886447 C129.524162,81.4628249 129.092383,82.1111853 128.338135,82.6165787 C127.583886,83.1219721 126.222878,83.4646701 125.271637,83.0830584 C125.391124,84.0104949 125.499931,84.9782893 124.872089,85.8361802 C124.244246,86.6940711 122.633964,87.3942132 121.051893,87.1778883 C120.212274,86.9559365 120.278464,86.2502234 120.675563,85.7726041 C121.072662,85.2949848 121.681706,84.8069873 121.483731,84.2904137 C121.287325,83.7779442 120.388485,83.4798832 119.716414,83.1226472 C119.044343,82.7654112 118.596063,82.0883503 119.309888,81.7586497 C118.828868,81.1404315 117.099962,81.2158122 116.339429,81.7342513 C115.578896,82.2526904 115.502934,82.9827868 115.420013,83.6577437 C115.337091,84.3327005 115.15635,85.072066 114.275152,85.523769 C112.773434,86.293566 109.890429,85.8941827 108.894487,86.8968934 C108.578114,87.2154213 108.559447,87.5996624 108.378434,87.9510305 C107.570475,89.5193807 104.082454,89.9255203 101.231327,90.0535025 C101.171245,90.3798301 101.157894,90.7130462 101.191678,91.0431345 C102.166924,90.6210178 100.541766,89.761967 99.8349289,89.5453503 Z" id="Path" fill="#61AB43" fill-rule="nonzero"></path>
                        <path d="M198.604041,87.7539239 C198.774409,88.6087944 198.931251,89.515 198.293069,90.2942157 C198.198341,90.4067352 198.09119,90.5081779 197.973657,90.5966091 C198.832119,90.5685212 199.69059,90.5404492 200.549069,90.5123934 C200.839921,89.1936827 201.130757,87.8749915 201.421576,86.5563198 C200.755551,87.098 199.649657,87.3672716 198.508462,87.3924188 C198.549166,87.5104068 198.581112,87.6312363 198.604041,87.7539239 Z" id="Path" fill="#000000" fill-rule="nonzero" opacity="0.1"></path>
                        <path d="M199.35414,92.4137919 C199.252736,91.8790203 198.370924,91.336302 197.383807,90.9484061 C196.514841,91.3611612 195.526483,91.4479042 194.598904,91.1928223 C195.319381,92.2151878 197.526284,92.6630178 199.35414,92.4137919 Z" id="Path" fill="#000000" fill-rule="nonzero" opacity="0.1"></path>
                        <path d="M200.615789,95.2963249 C200.593525,95.3971709 200.571285,95.4980017 200.549069,95.5988173 C199.194607,95.6430998 197.840143,95.6874002 196.485678,95.7317183 C198.187274,96.2136244 200.180462,97.3001015 199.017992,98.1585127 C198.73131,98.3702259 198.287937,98.5075431 198.057731,98.7406929 C197.622799,99.1812234 198.167122,99.7555127 198.920761,100.020609 C199.674401,100.285706 200.585183,100.350944 201.417553,100.522624 C203.33401,100.917926 204.817609,101.931703 205.159904,103.079891 C205.316289,103.604467 205.25769,104.162784 205.659782,104.642713 C206.218135,105.309152 207.500865,105.649492 208.47764,106.133442 C208.571734,106.180066 208.662264,106.22885 208.750805,106.278746 C209.633815,105.779345 210.268571,105.135272 210.510975,104.438282 C210.938048,103.210279 210.132642,101.867015 208.47764,101.047018 C207.500865,100.563066 206.218135,100.222728 205.659782,99.5562893 C205.25769,99.0763604 205.316289,98.5180431 205.159904,97.993467 C204.817609,96.8452766 203.334015,95.8315 201.417553,95.436198 C201.155632,95.3821802 200.885883,95.3388299 200.615789,95.2963249 Z" id="Path" fill="#000000" fill-rule="nonzero" opacity="0.1"></path>
                        <path d="M81.568099,113.514287 C81.8843756,112.840863 82.692335,112.242794 83.8536472,112.013668 C82.7441069,111.783242 81.69878,111.311741 80.7916624,110.632541 C80.3168309,110.64649 79.8426843,110.587204 79.3859061,110.456769 C78.5940888,111.185703 79.0595812,112.186051 80.0638249,112.823731 C80.5374197,113.110255 81.0420937,113.341932 81.568099,113.514287 L81.568099,113.514287 Z" id="Path" fill="#000000" fill-rule="nonzero" opacity="0.1"></path>
                        <path d="M88.735533,93.7973426 C89.3141912,93.5808065 89.9070112,93.4041887 90.5098249,93.268731 C92.3318528,92.8485635 94.4767005,92.3736853 95.0068147,91.2921599 C95.1767411,90.9455 95.1568934,90.5605406 95.4860305,90.2536193 C96.1258173,89.6569315 97.8725355,89.7323426 98.5977056,90.2961777 C99.3228756,90.8600127 99.1408528,91.6823553 98.4656954,92.2661574 C98.1154797,92.5690305 97.6320914,92.8508503 97.5682335,93.2120964 C97.4480711,93.8919848 98.7814061,94.3089188 99.8349213,94.6317741 C100.330827,94.7913688 100.795096,95.0362342 101.20686,95.3553629 C101.21565,95.2832411 101.224411,95.211302 101.231348,95.1399543 C104.08248,95.0119645 107.57051,94.6058376 108.37847,93.0374822 C108.559477,92.6861218 108.57814,92.3018706 108.894515,91.9833477 C109.890454,90.9806472 112.773467,91.3800152 114.275195,90.6102234 C115.156365,90.1585178 115.337124,89.419165 115.420041,88.7441878 C115.502957,88.0692107 115.578909,87.3391447 116.339472,86.8207056 C117.09999,86.3022665 118.828911,86.2268832 119.309904,86.8451041 C118.596089,87.1747995 119.044378,87.851868 119.716449,88.209099 C120.38852,88.5663299 121.287343,88.8643883 121.483754,89.3768655 C121.681746,89.8934416 121.07269,90.381434 120.675599,90.8590711 C120.278508,91.3367081 120.212305,92.0423959 121.051906,92.2643401 C122.634008,92.4806675 124.244272,91.7805305 124.872112,90.9226294 C125.499952,90.0647284 125.391168,89.0969518 125.271647,88.1695228 C126.222896,88.5511244 127.583901,88.2084289 128.338145,87.7030254 C129.092388,87.1976218 129.524165,86.5492792 130.338096,86.0751066 C132.779401,84.6527919 136.987589,85.4654112 140.373995,84.9932995 C142.439754,84.7052868 144.526099,83.9081041 146.514327,84.3389975 C147.145523,84.4757792 147.679302,84.7260533 148.274967,84.9075863 C150.521711,85.5922995 153.634789,85.1053731 154.958843,83.8621548 C155.259716,83.5796675 155.502434,83.2510761 156.001916,83.0841929 C156.472641,82.9640304 156.959928,82.9221299 157.444256,82.9601701 C160.613937,83.0321937 163.783617,83.1042225 166.953297,83.1762563 C168.43303,83.2098832 169.947769,83.2476751 171.318871,83.5676497 C172.277926,83.8156162 173.212344,84.1506093 174.110495,84.5684594 C176.376343,85.5456726 178.642191,86.5228959 180.908041,87.5001294 C181.664754,87.8264848 182.491079,88.1672614 183.438848,88.1771396 C185.812269,88.2018909 186.614797,86.3871218 186.616426,85.0300558 C186.618056,83.6729898 187.280893,81.8623452 189.652416,81.8030203 C192.042518,81.7432437 193.059756,83.5824391 195.160419,84.2369112 C196.050749,84.5142995 197.369246,84.7670914 197.222698,85.3406777 C197.154693,85.6068604 196.740124,85.8410533 196.744345,86.0955939 C197.335846,85.956334 197.873995,85.647847 198.293076,85.2078046 C198.931259,84.4285863 198.774416,83.5223807 198.604048,82.6675127 C198.571282,82.2355536 198.314171,81.8525007 197.926815,81.6585482 C197.529099,81.4691015 196.895467,81.3900355 196.764985,81.103632 C196.631888,80.8114264 197.146378,80.553033 197.222703,80.2542513 C197.369251,79.680665 196.050754,79.4278756 195.160424,79.1504873 C193.059761,78.4960152 192.04253,76.6568122 189.652421,76.7166015 C187.280901,76.7759188 186.618061,78.5865736 186.616431,79.943632 C186.614802,81.3006904 185.812274,83.1154594 183.438853,83.0907132 C182.491084,83.080835 181.664759,82.7400584 180.908046,82.4137056 C178.642196,81.4364772 176.376348,80.459253 174.1105,79.482033 C173.212347,79.0641856 172.277929,78.729191 171.318876,78.4812183 C169.947774,78.1612487 168.433036,78.1234594 166.953302,78.0898325 C163.783622,78.0177986 160.613942,77.945769 157.444261,77.8737437 C156.959934,77.8357069 156.472647,77.8776056 156.001921,77.9977614 C155.502429,78.1646497 155.259721,78.4932335 154.958848,78.775731 C153.634794,80.0189442 150.521716,80.5058731 148.274972,79.8211624 C147.679287,79.639632 147.14553,79.3893528 146.514332,79.2525711 C144.526104,78.8216802 142.439759,79.6188604 140.374,79.9068731 C136.987594,80.3789848 132.779406,79.5663655 130.338102,80.9886827 C129.52417,81.4628528 129.092396,82.1112157 128.33815,82.6166015 C127.583904,83.1219873 126.222898,83.4646954 125.271652,83.083099 C125.391173,84.0105279 125.49998,84.9783147 124.872117,85.836203 C124.244254,86.6940914 122.634013,87.3942437 121.051911,87.1779162 C120.212317,86.9559721 120.27851,86.2502513 120.675604,85.7726472 C121.072698,85.2950431 121.681751,84.8070178 121.483759,84.2904416 C121.287348,83.7779721 120.388503,83.4799112 119.716454,83.1226751 C119.044406,82.7654391 118.596094,82.0883807 119.309909,81.7586827 C118.828916,81.1404619 117.099995,81.2158452 116.339477,81.7342843 C115.578914,82.2527234 115.502985,82.9828173 115.420046,83.6577665 C115.337107,84.3327157 115.156371,85.0720939 114.275201,85.5237995 C112.773472,86.2935964 109.890472,85.8942259 108.89452,86.8969239 C108.578145,87.2154518 108.559482,87.5997005 108.378475,87.9510609 C107.570515,89.5194137 104.082485,89.9255406 101.231353,90.0535305 C101.224416,90.1248782 101.215655,90.1968173 101.206865,90.2689416 C100.795102,89.9498112 100.330832,89.7049449 99.8349264,89.5453503 C98.7814112,89.2225076 97.4480761,88.8055609 97.5682386,88.1256751 C97.6320964,87.7644365 98.1154848,87.4826168 98.4657005,87.179736 C99.1408604,86.5959315 99.3228807,85.7736193 98.5977107,85.2097563 C97.8725406,84.6458934 96.1258249,84.5705102 95.4860355,85.1671954 C95.1568985,85.4741193 95.1767462,85.8590736 95.0068198,86.2057386 C94.4767056,87.287264 92.3318579,87.7621396 90.5098299,88.1823071 C88.687802,88.6024746 86.6492183,89.384231 86.8204898,90.5031396 C87.0043934,91.7042132 89.7263553,92.7718528 88.735533,93.7973426 Z" id="Path" fill="#000000" fill-rule="nonzero" opacity="0.1"></path>
                        <path d="M83.8536472,106.927231 C83.3526321,107.019646 82.8739207,107.20705 82.4433223,107.47934 C82.7162792,107.491307 82.9880508,107.50917 83.2490838,107.52585 C86.2948249,107.720348 90.1374924,107.058102 90.6102665,105.327041 C90.8487868,104.453716 90.1150051,103.600003 89.4028706,102.815411 C89.1166083,102.500049 88.8303638,102.184687 88.5441371,101.869325 C87.0539594,102.375698 85.0177208,102.552373 83.2490838,102.439426 C82.133736,102.36819 80.822764,102.270683 80.0563249,102.739363 C79.4656599,103.100558 79.4666726,103.663137 79.6630076,104.144693 C80.1682919,105.384084 81.7848249,106.457434 83.8536472,106.927231 Z" id="Path" fill="#000000" fill-rule="nonzero" opacity="0.1"></path>
                        <ellipse id="Oval" fill="#EA565C" fill-rule="nonzero" cx="176.823736" cy="80.812835" rx="30.3317716" ry="20.0189695"></ellipse>
                        <path d="M166.510934,79.3973528 C166.510934,79.3973528 152.76053,80.812835 156.804766,74.9486929 C160.849003,69.0845508 165.904297,67.0624315 168.33084,68.6801269 C170.757383,70.2978223 171.768439,74.7464797 171.364018,74.7464797 C170.959596,74.7464797 165.095449,71.3088782 163.073332,73.937632 C161.051216,76.5663858 166.510934,79.3973528 166.510934,79.3973528 Z" id="Path" fill="#FFFFFF" fill-rule="nonzero" opacity="0.2"></path>
                        <path d="M178.425287,79.9704898 C178.425287,79.9704898 189.780147,87.8536548 182.891723,89.6684898 C176.003299,91.4833249 170.850485,89.7244949 170.06318,86.9164365 C169.275876,84.1083782 171.406655,80.0744467 171.713503,80.3378909 C172.02035,80.601335 174.23035,87.0294898 177.47698,86.3522081 C180.723609,85.6749264 178.425287,79.9704898 178.425287,79.9704898 Z" id="Path" fill="#FFFFFF" fill-rule="nonzero" opacity="0.2"></path>
                        <path d="M181.076142,75.0301548 C181.076142,75.0301548 181.972251,61.236165 187.080312,66.2012208 C192.188373,71.1662766 193.339637,76.4878858 191.340135,78.6108655 C189.340632,80.7338452 184.785685,80.9892919 184.853091,80.5905305 C184.920497,80.191769 189.287396,74.9825939 187.032442,72.5506244 C184.777487,70.1186548 181.076142,75.0301548 181.076142,75.0301548 Z" id="Path" fill="#FFFFFF" fill-rule="nonzero" opacity="0.2"></path>
                        <ellipse id="Oval" fill="#EA565C" fill-rule="nonzero" cx="145.885327" cy="78.9929289" rx="30.3317716" ry="20.0189695"></ellipse>
                        <path d="M135.572525,77.5774467 C135.572525,77.5774467 121.822122,78.9929289 125.866358,73.1287868 C129.910594,67.2646447 134.965888,65.2425254 137.392431,66.8602183 C139.818975,68.4779112 140.830033,72.9265736 140.425609,72.9265736 C140.021185,72.9265736 134.157043,69.4889721 132.134924,72.1177259 C130.112805,74.7464797 135.572525,77.5774467 135.572525,77.5774467 Z" id="Path" fill="#FFFFFF" fill-rule="nonzero" opacity="0.2"></path>
                        <path d="M147.486878,78.1505812 C147.486878,78.1505812 158.841741,86.0337462 151.953315,87.8485812 C145.064888,89.6634162 139.912076,87.9045863 139.124774,85.0965279 C138.337472,82.2884695 140.468249,78.2545381 140.775094,78.5179822 C141.081939,78.7814264 143.291944,85.2095812 146.538571,84.5322995 C149.785198,83.8550178 147.486878,78.1505812 147.486878,78.1505812 Z" id="Path" fill="#FFFFFF" fill-rule="nonzero" opacity="0.2"></path>
                        <path d="M150.137721,73.2102487 C150.137721,73.2102487 151.03383,59.4162563 156.141891,64.3813147 C161.249952,69.3463731 162.401216,74.6679797 160.401716,76.7909594 C158.402216,78.9139391 153.847264,79.1693858 153.91466,78.7706244 C153.982056,78.3718629 158.348967,73.1626878 156.09401,70.7307183 C153.839053,68.2987487 150.137721,73.2102487 150.137721,73.2102487 Z" id="Path" fill="#FFFFFF" fill-rule="nonzero" opacity="0.2"></path>
                        <ellipse id="Oval" fill="#EA565C" fill-rule="nonzero" cx="109.284987" cy="77.3752335" rx="30.3317716" ry="20.0189695"></ellipse>
                        <path d="M98.9721853,75.9597513 C98.9721853,75.9597513 85.2217817,77.3752335 89.2660178,71.5110914 C93.3102538,65.6469492 98.3655508,63.6248299 100.792091,65.2425254 C103.218632,66.8602208 104.229693,71.3088782 103.825269,71.3088782 C103.420845,71.3088782 97.556703,67.8712792 95.5345838,70.500033 C93.5124645,73.1287868 98.9721853,75.9597513 98.9721853,75.9597513 Z" id="Path" fill="#FFFFFF" fill-rule="nonzero" opacity="0.2"></path>
                        <path d="M110.886548,76.5328883 C110.886548,76.5328883 122.241409,84.4160558 115.352985,86.2308883 C108.464561,88.0457208 103.311744,86.2868959 102.524442,83.478835 C101.73714,80.6707741 103.867916,76.6368452 104.174764,76.9002893 C104.481612,77.1637335 106.691612,83.5918909 109.938241,82.9146091 C113.184871,82.2373274 110.886548,76.5328883 110.886548,76.5328883 Z" id="Path" fill="#FFFFFF" fill-rule="nonzero" opacity="0.2"></path>
                        <path d="M113.537381,71.5925533 C113.537381,71.5925533 114.43349,57.7985635 119.541551,62.7636193 C124.649612,67.7286751 125.800876,73.0502817 123.801376,75.173264 C121.801876,77.2962462 117.246926,77.5516904 117.314332,77.1529315 C117.381739,76.7541726 121.748637,71.5449924 119.49368,69.1130228 C117.238723,66.6810533 113.537381,71.5925533 113.537381,71.5925533 Z" id="Path" fill="#FFFFFF" fill-rule="nonzero" opacity="0.2"></path>
                        <path d="M125.069853,60.3382716 C131.676665,64.0105051 135.875843,69.5093985 135.875843,75.656434 C135.875843,86.7125964 122.295858,95.6754036 105.544071,95.6754036 C99.8040888,95.6754036 94.4367868,94.6227766 89.8603147,92.7945025 C95.136632,95.7272437 101.948,97.4953096 109.386096,97.4953096 C126.137886,97.4953096 139.717871,88.5325025 139.717871,77.4763401 C139.717871,70.2085635 133.849492,63.8456777 125.069853,60.3382716 Z" id="Path" fill="#000000" fill-rule="nonzero" opacity="0.1"></path>
                        <path d="M161.67019,61.7537538 C168.277003,65.4259898 172.476183,70.9248807 172.476183,77.0719162 C172.476183,88.1280787 158.896198,97.0908858 142.144409,97.0908858 C136.404426,97.0908858 131.037124,96.0382589 126.460652,94.2099848 C131.73697,97.1427259 138.54834,98.9107919 145.986437,98.9107919 C162.738213,98.9107919 176.318208,89.9479848 176.318208,78.8918223 C176.318208,71.6240457 170.449843,65.2611624 161.67019,61.7537538 Z" id="Path" fill="#000000" fill-rule="nonzero" opacity="0.1"></path>
                        <path d="M192.608599,63.7758731 C199.215411,67.4481066 203.414589,72.947 203.414589,79.0940355 C203.414589,90.150198 189.834604,99.1130051 173.082817,99.1130051 C167.342835,99.1130051 161.975533,98.0603782 157.399061,96.2321041 C162.675378,99.1648452 169.486746,100.932911 176.924845,100.932911 C193.676622,100.932911 207.256617,91.9701041 207.256617,80.9139416 C207.256617,73.6461624 201.388251,67.2832792 192.608599,63.7758731 Z" id="Path" fill="#000000" fill-rule="nonzero" opacity="0.1"></path>
                        <path d="M90.8515888,73.5401041 C90.8515888,73.5401041 116.936914,45.6348731 180.835853,57.1609467 C231.348447,66.2723959 189.869053,81.9547005 170.272967,88.1254746 C164.587597,89.9150669 158.697986,90.9754561 152.745457,91.281198 C130.638193,92.4196472 75.0316548,93.4373426 90.8515888,73.5401041 Z" id="Path" fill="#714B4F" fill-rule="nonzero"></path>
                        <path d="M170.272947,81.8569061 C164.587576,83.6465024 158.697962,84.7068909 152.745431,85.0126269 C134.836208,85.9348959 94.9443223,86.7772538 88.8496066,76.4857766 C81.1536675,93.1203147 131.875675,92.1537132 152.745431,91.0789822 C158.69796,90.7732448 164.587571,89.7128554 170.272939,87.9232589 C184.636546,83.4001904 210.755637,73.7669772 203.788759,65.3568198 C199.097931,71.9569264 181.251777,78.3996929 170.272947,81.8569061 Z" id="Path" fill="#000000" fill-rule="nonzero" opacity="0.1"></path>
                        <path d="M146.560947,57.2620533 L153.63836,71.2146675" id="Path" stroke="#000000" stroke-width="2" opacity="0.1"></path>
                        <path d="M124.722069,62.3173477 L130.788424,74.0456345" id="Path" stroke="#000000" stroke-width="2" opacity="0.1"></path>
                        <path d="M159.300289,57.2620533 L168.804246,71.2146675" id="Path" stroke="#000000" stroke-width="2" opacity="0.1"></path>
                        <path d="M124.722069,75.2589061 L188.418792,67.1704315" id="Path" stroke="#000000" stroke-width="2" opacity="0.1"></path>
                        <path d="M185.992251,59.8908071 L190.440911,66.1593731" id="Path" stroke="#000000" stroke-width="2" opacity="0.1"></path>
                        <path d="M112.184937,67.1704315 L115.015901,73.0345761" id="Path" stroke="#000000" stroke-width="2" opacity="0.1"></path>
                        <path d="M183.886041,44.9821701 C183.886041,44.9821701 192.198556,49.7469137 194.497764,50.4543629 C196.796972,51.1618122 208.469865,53.8147411 201.749107,57.1751218 C195.028348,60.5355025 159.125353,64.2496015 142.323457,77.3373959 L127.11332,86.0036396 C127.11332,86.0036396 124.106665,84.5887437 125.521561,82.4663985 C126.936457,80.3440533 140.201112,49.6131523 140.201112,49.6131523 L162.308868,49.5805888 C162.308868,49.5805888 168.852777,45.8664848 174.866076,45.8664848 C180.879376,45.8664848 183.886041,44.9821701 183.886041,44.9821701 Z" id="Path" fill="#FAD375" fill-rule="nonzero"></path>
                        <path d="M123.399206,48.8731345 C123.399206,48.8731345 161.955132,48.6962716 162.30885,48.3425482 C162.662569,47.9888249 170.798231,47.8014315 172.38999,50.1006396 C173.981749,52.3998477 174.512325,53.4610178 172.38999,53.8147411 C170.267655,54.1684645 100.407137,90.4252005 100.407137,90.4252005 C100.407137,90.4252005 96.5161726,90.7789239 98.4616548,86.8879594 C100.407137,82.9969949 123.399206,48.8731345 123.399206,48.8731345 Z" id="Path" fill="#F6C964" fill-rule="nonzero"></path>
                        <path d="M88.5573807,48.3425482 C88.5573807,48.3425482 82.0134721,94.1392893 89.087967,92.0169442 C96.1624619,89.894599 112.610619,51.6923959 142.85403,50.4543629 C142.85403,50.4543629 144.976365,49.7469137 142.323444,48.3320279 C139.670523,46.9171421 120.392551,49.0500076 120.392551,49.0500076 L88.5573807,48.3425482 Z" id="Path" fill="#FAD375" fill-rule="nonzero"></path>
                        <path d="M130.885244,60.0526929 C130.885244,62.2304239 120.383378,67.5345305 107.428673,67.5345305 C94.473967,67.5345305 83.9721015,62.2304239 83.9721015,60.0526929 C83.9721015,57.8749619 94.473967,57.0195152 107.42868,57.0195152 C120.383393,57.0195152 130.885244,57.8749619 130.885244,60.0526929 Z" id="Path" fill="#61AB43" fill-rule="nonzero"></path>
                        <path d="M130.885244,60.0526929 C130.885244,62.2304239 120.383378,67.5345305 107.428673,67.5345305 C94.473967,67.5345305 83.9721015,62.2304239 83.9721015,60.0526929 C83.9721015,57.8749619 94.473967,57.0195152 107.42868,57.0195152 C120.383393,57.0195152 130.885244,57.8749619 130.885244,60.0526929 Z" id="Path" fill="#000000" fill-rule="nonzero" opacity="0.1"></path>
                        <ellipse id="Oval" fill="#61AB43" fill-rule="nonzero" cx="107.428673" cy="59.9515863" rx="23.4565711" ry="3.94312944"></ellipse>
                        <path d="M159.194898,56.4128807 C159.194898,58.5906117 148.693033,63.8947183 135.738327,63.8947183 C122.783622,63.8947183 112.281756,58.5906117 112.281756,56.4128807 C112.281756,54.2351497 122.783619,53.379703 135.738327,53.379703 C148.693036,53.379703 159.194898,54.2351497 159.194898,56.4128807 Z" id="Path" fill="#61AB43" fill-rule="nonzero"></path>
                        <path d="M159.194898,56.4128807 C159.194898,58.5906117 148.693033,63.8947183 135.738327,63.8947183 C122.783622,63.8947183 112.281756,58.5906117 112.281756,56.4128807 C112.281756,54.2351497 122.783619,53.379703 135.738327,53.379703 C148.693036,53.379703 159.194898,54.2351497 159.194898,56.4128807 Z" id="Path" fill="#000000" fill-rule="nonzero" opacity="0.1"></path>
                        <ellipse id="Oval" fill="#61AB43" fill-rule="nonzero" cx="135.738327" cy="56.3117741" rx="23.4565711" ry="3.94312944"></ellipse>
                        <path d="M187.504553,52.7730685 C187.504553,54.950797 177.002688,60.2549036 164.047982,60.2549036 C151.093277,60.2549036 140.591411,54.950797 140.591411,52.7730685 C140.591411,50.5953401 151.093274,49.7398909 164.047982,49.7398909 C177.00269,49.7398909 187.504553,50.5953376 187.504553,52.7730685 Z" id="Path" fill="#61AB43" fill-rule="nonzero"></path>
                        <path d="M187.504553,52.7730685 C187.504553,54.950797 177.002688,60.2549036 164.047982,60.2549036 C151.093277,60.2549036 140.591411,54.950797 140.591411,52.7730685 C140.591411,50.5953401 151.093274,49.7398909 164.047982,49.7398909 C177.00269,49.7398909 187.504553,50.5953376 187.504553,52.7730685 Z" id="Path" fill="#000000" fill-rule="nonzero" opacity="0.1"></path>
                        <ellipse id="Oval" fill="#61AB43" fill-rule="nonzero" cx="164.047982" cy="52.6719619" rx="23.4565711" ry="3.94312944"></ellipse>
                        <path d="M91.621236,54.147132 C91.621236,54.147132 81.9739543,52.5766447 86.9097741,44.7242056 C91.8455939,36.8717665 93.5057513,28.0692944 95.6596345,26.1027056 C98.0676574,23.9040761 147.769492,-14.6443426 186.489637,28.011632 C190.591742,32.5845874 193.926333,37.7915849 196.363959,43.4304822 C196.832332,44.4965584 197.348731,45.4533604 197.853523,45.9581472 C199.42401,47.5286345 200.770142,52.0157437 197.853523,54.259297 C194.936904,56.5028503 109.008782,65.2527234 91.621236,54.147132 Z" id="Path" fill="#3F3D56" fill-rule="nonzero"></path>
                        <path d="M136.82885,21.5034213 C136.234299,21.9168558 135.533354,22.1505043 134.809652,22.1764873 C133.69448,22.1764873 132.790454,21.8751447 132.790454,21.5034213 C132.790454,21.131698 133.69448,20.8303528 134.809652,20.8303528 C135.533354,20.8563361 136.2343,21.0899856 136.82885,21.5034213 Z" id="Path" fill="#F2F2F2" fill-rule="nonzero"></path>
                        <path d="M120.675261,17.2406675 C120.08071,17.654102 119.379765,17.8877505 118.656063,17.9137335 C117.540891,17.9137335 116.636865,17.6123909 116.636865,17.2406675 C116.636865,16.8689442 117.540891,16.5676015 118.656063,16.5676015 C119.379765,16.5935845 120.08071,16.827233 120.675261,17.2406675 L120.675261,17.2406675 Z" id="Path" fill="#F2F2F2" fill-rule="nonzero"></path>
                        <path d="M164.556825,23.4524188 C163.865954,23.6694825 163.127219,23.6831945 162.428769,23.4919188 C161.364459,23.158967 160.591637,22.6014569 160.702627,22.2466878 C160.813617,21.8919188 161.766376,21.8742335 162.830683,22.2071853 C163.513617,22.4480577 164.11283,22.8803287 164.556825,23.4524188 L164.556825,23.4524188 Z" id="Path" fill="#F2F2F2" fill-rule="nonzero"></path>
                        <path d="M134.717556,12.0102919 C134.026685,12.2273557 133.287951,12.2410686 132.5895,12.0497944 C131.52519,11.7168401 130.752368,11.1593299 130.863358,10.8045609 C130.974348,10.4497919 131.927107,10.4321066 132.991414,10.7650609 C133.674348,11.0059319 134.273562,11.4382021 134.717556,12.0102919 Z" id="Path" fill="#F2F2F2" fill-rule="nonzero"></path>
                        <path d="M167.249089,16.0486904 C166.558218,16.265754 165.819483,16.2794661 165.121033,16.0881904 C164.056723,15.7552386 163.283904,15.1977284 163.394891,14.8429594 C163.505878,14.4881904 164.458637,14.4705051 165.522947,14.8034569 C166.205881,15.0443293 166.805094,15.4766003 167.249089,16.0486904 L167.249089,16.0486904 Z" id="Path" fill="#F2F2F2" fill-rule="nonzero"></path>
                        <path d="M160.610525,15.4458249 C160.015973,15.8592592 159.315027,16.0929077 158.591325,16.1188909 C157.476152,16.1188909 156.572127,15.8175482 156.572127,15.4458249 C156.572127,15.0741015 157.476152,14.7727589 158.591325,14.7727589 C159.315027,14.7987421 160.015973,15.0323906 160.610525,15.4458249 L160.610525,15.4458249 Z" id="Path" fill="#F2F2F2" fill-rule="nonzero"></path>
                        <path d="M141.315959,11.407434 C140.721408,11.8208685 140.020463,12.054517 139.296761,12.0805 C138.181589,12.0805 137.277561,11.7791599 137.277561,11.407434 C137.277561,11.0357081 138.181589,10.734368 139.296761,10.734368 C140.020463,10.760351 140.721408,10.9939995 141.315959,11.407434 Z" id="Path" fill="#F2F2F2" fill-rule="nonzero"></path>
                        <path d="M156.123416,11.407434 C155.528865,11.8208685 154.82792,12.054517 154.104218,12.0805 C152.989046,12.0805 152.085018,11.7791599 152.085018,11.407434 C152.085018,11.0357081 152.989046,10.734368 154.104218,10.734368 C154.82792,10.760351 155.528865,10.9939995 156.123416,11.407434 L156.123416,11.407434 Z" id="Path" fill="#F2F2F2" fill-rule="nonzero"></path>
                        <path d="M150.51453,20.1572868 C149.91998,20.5707213 149.219034,20.8043698 148.495332,20.8303528 C147.38016,20.8303528 146.476135,20.5290127 146.476135,20.1572868 C146.476135,19.7855609 147.38016,19.4842208 148.495332,19.4842208 C149.219034,19.5102038 149.91998,19.7438523 150.51453,20.1572868 Z" id="Path" fill="#F2F2F2" fill-rule="nonzero"></path>
                        <path d="M134.200414,18.584967 C134.368802,17.880648 134.736271,17.239646 135.258975,16.7384467 C136.091081,15.9960127 136.966256,15.619 137.213734,15.896368 C137.461211,16.173736 136.987279,17.0004518 136.155173,17.7428883 C135.597872,18.2053105 134.919296,18.4976302 134.200414,18.584967 Z" id="Path" fill="#F2F2F2" fill-rule="nonzero"></path>
                        <path d="M124.104421,16.1170558 C124.272808,15.412737 124.640277,14.7717355 125.162982,14.2705381 C125.995086,13.5281015 126.870264,13.1510914 127.117741,13.4284594 C127.365218,13.7058274 126.891287,14.5325431 126.05918,15.2749772 C125.50188,15.7374005 124.823303,16.0297203 124.104421,16.1170558 L124.104421,16.1170558 Z" id="Path" fill="#F2F2F2" fill-rule="nonzero"></path>
                        <path d="M106.604698,28.2322487 C106.773086,27.5279303 107.140555,26.8869292 107.663259,26.385731 C108.495365,25.6432944 109.370541,25.2662843 109.61802,25.5436523 C109.8655,25.8210203 109.391563,26.6477335 108.559459,27.3901701 C108.002158,27.8525933 107.323581,28.1449131 106.604698,28.2322487 L106.604698,28.2322487 Z" id="Path" fill="#F2F2F2" fill-rule="nonzero"></path>
                        <path d="M145.418185,14.7709239 C145.586572,14.066605 145.954041,13.4256035 146.476746,12.9244061 C147.30885,12.1819695 148.184025,11.8049594 148.431505,12.0823274 C148.678985,12.3596954 148.205051,13.1864112 147.372944,13.9288452 C146.815644,14.3912681 146.137067,14.6835879 145.418185,14.7709239 L145.418185,14.7709239 Z" id="Path" fill="#F2F2F2" fill-rule="nonzero"></path>
                        <path d="M141.379787,22.8477183 C141.548173,22.1433994 141.915643,21.5023979 142.438348,21.0012005 C143.270454,20.258764 144.145629,19.8817538 144.393107,20.1591218 C144.640584,20.4364898 144.166652,21.2632056 143.334546,22.0056396 C142.777245,22.4680629 142.098669,22.7603827 141.379787,22.8477183 L141.379787,22.8477183 Z" id="Path" fill="#F2F2F2" fill-rule="nonzero"></path>
                        <path d="M217.171827,122.695815 C217.171827,122.695815 214.10003,123.617355 212.564132,125.460434 C212.564132,125.460434 209.799515,126.689152 208.110025,126.381972 C206.420536,126.074792 203.348741,129.146589 205.806178,130.068129 C208.263614,130.98967 223.315424,133.447107 223.622602,132.679157 C223.929782,131.911208 223.929782,124.078124 223.929782,124.078124 L217.171827,122.695815 Z" id="Path" fill="#575A89" fill-rule="nonzero"></path>
                        <path d="M241.301269,121.376845 C241.301269,121.376845 238.432018,122.80952 237.233503,124.887853 C237.233503,124.887853 234.719383,126.570726 233.002254,126.556635 C231.285124,126.542543 228.783147,130.093876 231.361876,130.582129 C233.940604,131.070383 249.190964,130.920787 249.362462,130.111655 C249.533959,129.302523 248.196028,121.584548 248.196028,121.584548 L241.301269,121.376845 Z" id="Path" fill="#575A89" fill-rule="nonzero"></path>
                        <circle id="Oval" fill="#FFB9B9" fill-rule="nonzero" cx="222.163497" cy="10.3448274" r="6.91154315"></circle>
                        <path d="M227.769525,11.4967513 C227.769525,11.4967513 228.537477,16.7188071 229.919779,17.3331675 C230.88152,17.8065807 231.762666,18.4285663 232.530807,19.1762462 L228.691061,21.0193249 L221.165157,20.5585533 C221.165157,20.5585533 221.779518,17.1795761 220.704388,15.4900888 C219.629259,13.8006015 227.769525,11.4967513 227.769525,11.4967513 Z" id="Path" fill="#FFB9B9" fill-rule="nonzero"></path>
                        <path d="M242.053383,36.2247208 C242.053383,36.2247208 245.585952,45.2865228 242.053383,54.0411447 C238.520815,62.7957665 236.984919,64.1780761 236.984919,64.1780761 L235.909792,52.6588376 L237.146043,51.5372893 C237.146043,51.5372893 237.894652,48.0425228 237.286198,45.973368 C236.677744,43.9042132 237.599282,37.4534391 237.599282,37.4534391 L242.053383,36.2247208 Z" id="Path" fill="#FFB9B9" fill-rule="nonzero"></path>
                        <path d="M215.635926,55.8842234 C215.635926,55.8842234 211.18182,66.0211548 211.642591,70.9360305 C212.103363,75.8509061 215.635926,96.5855381 215.635926,96.5855381 C215.635926,96.5855381 215.175157,123.310175 216.557467,123.310175 C217.939777,123.310175 224.54414,125.767612 224.54414,124.078124 C224.54414,122.388637 225.926449,81.8409112 225.926449,81.8409112 C225.926449,81.8409112 233.75953,99.657335 234.52748,101.039642 C235.295429,102.421949 240.210305,124.078122 241.899794,124.078122 C243.589284,124.078122 248.811338,122.542223 248.350569,121.467094 C247.889799,120.391964 242.667744,96.4319467 239.749536,90.2883503 C236.831327,84.1447538 237.445685,60.9526904 237.445685,60.9526904 L232.530812,50.2013985 L215.635926,55.8842234 Z" id="Path" fill="#3F3D56" fill-rule="nonzero"></path>
                        <path d="M220.090033,7.19623604 C220.090033,7.19623604 215.789525,6.88905584 215.482338,5.8139264 C215.17515,4.73879695 214.560797,3.81725888 214.867977,3.81725888 C215.175157,3.81725888 215.328746,3.04930964 215.328746,3.04930964 C215.328746,3.04930964 215.635926,2.89572081 215.789518,3.04930964 C215.943109,3.20289848 216.096698,1.97418274 216.096698,1.97418274 C216.096698,1.97418274 216.250287,1.51341371 216.403876,1.82059391 C216.557464,2.12777411 216.557467,1.97418274 216.711056,1.51341371 C216.864645,1.05264467 217.632596,0.745464467 217.632596,0.745464467 C217.632596,0.745464467 220.550802,0.899053299 221.011574,0.284695431 C221.472345,-0.329662437 226.694398,0.131104061 227.769525,0.899053299 C228.844652,1.66700254 233.605942,4.43162183 232.837992,6.73546954 C232.070043,9.03931726 229.305426,14.1077817 229.305426,14.875731 C229.305426,15.6436802 228.230299,15.4900914 227.923117,14.7221421 C227.615934,13.9541929 225.1585,13.0326523 225.1585,12.5718883 C225.1585,12.1111244 223.77619,7.81060406 223.008246,8.11778173 C222.240302,8.42495939 221.318756,10.882401 221.011579,10.421632 C220.704401,9.96086294 220.090033,7.19623604 220.090033,7.19623604 Z" id="Path" fill="#3F3D56" fill-rule="nonzero"></path>
                        <path d="M241.285434,28.2380482 C241.285434,28.2380482 234.988251,19.0226624 233.145178,18.5618858 C231.302104,18.1011091 227.155173,16.8723985 227.155173,16.8723985 C227.155173,16.8723985 223.008246,17.4867563 221.779538,18.1011168 C220.55083,18.7154772 215.943122,19.7906041 215.789533,21.6336827 C215.635944,23.4767614 217.018251,41.1395964 216.250302,42.8290838 C215.482353,44.5185711 212.871325,60.6455102 214.100048,60.3383299 C215.328772,60.0311497 214.407228,56.0378223 219.782873,55.8842234 C225.158518,55.7306244 228.076726,52.5052462 230.073396,56.3449924 C232.070066,60.1847386 237.752888,63.1029467 237.752888,63.1029467 C237.895721,61.8647012 238.100767,60.6344267 238.367249,59.4167893 C238.828018,57.2665355 237.138528,52.0444772 237.138528,52.0444772 C237.138528,52.0444772 237.292119,39.9108782 237.906477,38.5285685 C238.520835,37.1462589 241.285434,28.2380482 241.285434,28.2380482 Z" id="Path" fill="#ED6E52" fill-rule="nonzero"></path>
                        <path d="M238.981586,27.930868 L241.285434,28.2380482 C241.285434,28.2380482 241.131845,31.3098452 241.746206,32.2313832 C242.360566,33.1529213 243.435693,37.9142081 242.821332,38.0677995 C242.206972,38.2213909 236.677739,39.1429264 236.677739,39.1429264 L236.370558,32.0777944 L238.981586,27.930868 Z" id="Path" fill="#ED6E52" fill-rule="nonzero"></path>
                        <path d="M214.100028,33.4601041 C214.100028,33.4601041 212.564129,43.4434442 211.79618,44.6721624 C211.028231,45.9008807 207.188485,63.1029467 207.188485,63.1029467 C207.188485,63.1029467 200.874363,71.8836574 203.946162,71.7300685 C207.017962,71.5764797 210.260282,63.7173071 210.260282,63.7173071 C210.260282,63.7173071 219.782853,46.3616523 219.782853,44.5185761 C219.782853,42.6755 222.086701,33.4601041 222.086701,33.4601041 L214.100028,33.4601041 Z" id="Path" fill="#FFB9B9" fill-rule="nonzero"></path>
                        <path d="M218.554135,19.9441954 L215.789518,21.0193223 C215.789518,21.0193223 212.256949,33.6136904 213.024898,34.6888198 C213.792848,35.7639492 223.008241,34.2280508 223.16183,33.7672792 C223.315419,33.3065076 221.472335,19.9441954 218.554135,19.9441954 Z" id="Path" fill="#ED6E52" fill-rule="nonzero"></path>
                        <path d="M24.516165,103.293909 C24.516165,118.258444 33.9041269,130.367556 45.5058452,130.367556" id="Path" fill="#46455B" fill-rule="nonzero"></path>
                        <path d="M45.5058376,130.367556 C45.5058376,115.234881 55.9822614,102.989711 68.9291041,102.989711" id="Path" fill="#ED6E52" fill-rule="nonzero"></path>
                        <path d="M32.1211218,104.65047 C32.1211218,118.86519 38.1076497,130.367556 45.5058452,130.367556" id="Path" fill="#ED6E52" fill-rule="nonzero"></path>
                        <path d="M45.5058376,130.367556 C45.5058376,111.031358 57.6149492,95.3847538 72.5794848,95.3847538" id="Path" fill="#46455B" fill-rule="nonzero"></path>
                        <path d="M41.0901574,130.558429 C41.0901574,130.558429 44.0668401,130.466749 44.9639365,129.827939 C45.861033,129.189129 49.5428249,128.426353 49.7653731,129.450865 C49.9879213,130.475378 54.2387716,134.546325 50.8781117,134.573431 C47.5174518,134.600538 43.069434,134.049957 42.1740508,133.504551 C41.2786675,132.959145 41.0901574,130.558429 41.0901574,130.558429 Z" id="Path" fill="#A8A8A8" fill-rule="nonzero"></path>
                        <path d="M50.9380863,134.216794 C47.5774264,134.243911 43.1294112,133.693325 42.2340406,133.147916 C41.5521675,132.732561 41.2804467,131.242165 41.189533,130.554553 C41.1265711,130.557259 41.0901599,130.558426 41.0901599,130.558426 C41.0901599,130.558426 41.2786954,132.959142 42.174066,133.504548 C43.0694365,134.049954 47.517467,134.600543 50.8781142,134.573426 C51.848203,134.565604 52.1832893,134.220459 52.1648909,133.709272 C52.0301218,134.018119 51.6601523,134.210972 50.9380863,134.216794 Z" id="Path" fill="#000000" fill-rule="nonzero" opacity="0.2"></path>
                    </g>
                </g>
            </g>
        </g>
    </g>
</svg>