<?xml version="1.0" encoding="UTF-8"?>
<svg width="207px" height="150px" viewBox="0 0 207 150" version="1.1" xmlns="http://www.w3.org/2000/svg" xmlns:xlink="http://www.w3.org/1999/xlink">
    <!-- Generator: Sketch 55.2 (78181) - https://sketchapp.com -->
    <title>undraw_upgrade_06a0</title>
    <desc>Created with Sketch.</desc>
    <g id="Why-Webiny" stroke="none" stroke-width="1" fill="none" fill-rule="evenodd">
        <g id="Agency-Landing-Page" transform="translate(-204.000000, -1138.000000)" fill-rule="nonzero">
            <g id="Feature-list" transform="translate(148.000000, 780.000000)">
                <g id="Icons---v2" transform="translate(56.000000, 13.000000)">
                    <g id="undraw_upgrade_06a0" transform="translate(0.000000, 345.000000)">
                        <path d="M192.866279,71.6802326 C192.98062,70.3682171 193.040698,69.0348837 193.040698,67.6879845 C193.040698,46.5968992 178.73062,29.498062 161.079457,29.498062 C155.459302,29.498062 150.160853,31.2422481 145.575581,34.2945736 C133.081395,24.6046512 116.76938,18.75 98.9244186,18.75 C69.8875969,18.75 44.9108527,34.2674419 33.8294574,56.5213178 C33.2151163,56.4786822 32.5949612,56.4554264 31.9689922,56.4554264 C14.3081395,56.4554264 0,73.5523256 0,94.6434109 C0,102.395349 1.9379845,109.610465 5.25968992,115.633721 L5.25968992,115.633721 C5.25968992,134.608527 20.4631783,149.996124 39.2170543,149.996124 L62.8604651,149.996124 L62.9651163,149.815891 C64.3546512,147.560078 67.6821705,146.996124 70,148.277132 C70.6124031,148.614341 71.1821705,149.052326 71.8662791,149.207364 C74.6046512,149.78876 76.4437984,145.383721 79.2151163,145.812016 C80.6065891,146.027132 81.6918605,147.465116 83.0910853,147.317829 C84.0193798,147.218992 84.7228682,146.44186 85.5949612,146.112403 C86.9922481,145.581395 88.4089147,146.317829 89.3875969,147.513566 C89.9554264,145.879845 89.9515504,143.943798 90.870155,142.445736 C92.2596899,140.189922 95.5872093,139.625969 97.9050388,140.906977 C98.5174419,141.244186 99.0872093,141.682171 99.7713178,141.837209 C102.50969,142.418605 104.348837,138.013566 107.120155,138.44186 C108.511628,138.656977 109.596899,140.094961 110.996124,139.947674 C111.924419,139.848837 112.627907,139.071705 113.5,138.742248 C115.674419,137.914729 117.901163,140.160853 118.436047,142.424419 C118.643302,143.421735 118.752993,144.436857 118.763566,145.455426 C120.639535,144.546512 122.224806,141.99031 124.366279,142.321705 C125.757752,142.536822 126.843023,143.974806 128.242248,143.827519 C129.170543,143.728682 129.874031,142.95155 130.746124,142.622093 C132.920543,141.794574 135.147287,144.040698 135.682171,146.304264 C135.967054,147.505814 135.986434,148.753876 136.034884,149.986434 L175.21124,149.986434 C189.939922,149.986434 201.874031,137.908915 201.874031,123.00969 L201.874031,123.00969 C204.862403,117.195736 206.589147,110.358527 206.589147,103.036822 C206.589147,90.0523256 201.162791,78.5794574 192.866279,71.6802326 Z" id="Path" fill="#ED6E52" opacity="0.1"></path>
                        <circle id="Oval" fill="#ED6E52" cx="120.736434" cy="34.6899225" r="16.8604651"></circle>
                        <polygon id="Path" fill="#FFFFFF" points="115.30814 35.3255814 120.709302 29.9244186 126.164729 35.3255814 122.457364 35.3255814 122.457364 39.4554264 119.015504 39.4554264 119.015504 35.3527132"></polygon>
                        <path d="M142.930233,77.751938 C142.462636,75.3422563 140.520621,73.492844 138.090985,73.1434446 C135.661349,72.7940452 133.27689,74.0212789 132.149225,76.2015504 C129.712356,76.4669823 127.908332,78.5914565 128.041335,81.0391275 C128.174338,83.4867985 130.197943,85.4032845 132.649225,85.4031008 L142.660853,85.4031008 C144.781164,85.3967497 146.499935,83.6823044 146.511655,81.5620155 C146.519157,79.542397 144.946454,77.8692726 142.930233,77.751938 Z M138.501938,80.0232558 L138.501938,82.9418605 L136.046512,82.9418605 L136.046512,80.0155039 L133.420543,80.0155039 L137.271318,76.1647287 L141.120155,80.0155039 L138.501938,80.0232558 Z" id="Shape" fill="#FFFFFF"></path>
                        <path d="M172.387597,125.620155 C171.920001,123.210473 169.977986,121.361061 167.548349,121.011662 C165.118713,120.662262 162.734254,121.889496 161.606589,124.069767 C159.16972,124.335199 157.365696,126.459674 157.4987,128.907345 C157.631703,131.355016 159.655307,133.271502 162.106589,133.271318 L172.118217,133.271318 C174.238529,133.264967 175.957299,131.550521 175.969019,129.430233 C175.976521,127.410614 174.403818,125.73749 172.387597,125.620155 L172.387597,125.620155 Z M167.959302,127.891473 L167.959302,130.810078 L165.503876,130.810078 L165.503876,127.883721 L162.877907,127.883721 L166.728682,124.032946 L170.577519,127.883721 L167.959302,127.891473 Z" id="Shape" fill="#FFFFFF"></path>
                        <path d="M63.8468992,91.0813953 C63.1172452,87.3599637 60.1131032,84.5074839 56.3588947,83.9714178 C52.6046861,83.4353518 48.9222626,85.3330522 47.1802326,88.7015504 C43.4162605,89.1149771 40.6315739,92.3978855 40.8376789,96.1788812 C41.0437839,99.9598768 44.1688179,102.920642 47.9554264,102.922481 L63.4302326,102.922481 C66.713204,102.911833 69.371335,100.25197 69.379879,96.9689922 C69.3903649,93.8490559 66.9614767,91.2644808 63.8468992,91.0813953 L63.8468992,91.0813953 Z M57.003876,94.5891473 L57.003876,99.1124031 L53.1957364,99.1124031 L53.1957364,94.5891473 L49.1492248,94.5891473 L55.1007752,88.6395349 L61.0465116,94.5891473 L57.003876,94.5891473 Z" id="Shape" fill="#FFFFFF"></path>
                        <polygon id="Path" fill="#FFFFFF" points="130.426357 106.585271 130.426357 101.875969 132.596899 104.046512 133.139535 103.484496 130.03876 100.383721 126.937984 103.484496 127.48062 104.027132 129.651163 101.875969 129.651163 106.585271"></polygon>
                        <polygon id="Path" fill="#FFFFFF" points="22.0930233 112.98062 22.0930233 108.271318 24.2635659 110.44186 24.8062016 109.879845 21.7054264 106.77907 18.6046512 109.879845 19.1472868 110.422481 21.3178295 108.271318 21.3178295 112.98062"></polygon>
                        <polygon id="Path" fill="#FFFFFF" points="130.232558 62.2054264 130.232558 58.6763566 131.860465 60.3042636 132.267442 59.8837209 129.94186 57.5581395 127.616279 59.8837209 128.023256 60.2906977 129.651163 58.6763566 129.651163 62.2054264"></polygon>
                        <polygon id="Path" fill="#FFFFFF" points="87.7906977 36.624031 87.7906977 33.0949612 89.4186047 34.7228682 89.8255814 34.3023256 87.5 31.9767442 85.1744186 34.3023256 85.5813953 34.7093023 87.2093023 33.0949612 87.2093023 36.624031"></polygon>
                        <polygon id="Path" fill="#FFFFFF" points="71.8992248 71.5077519 71.8992248 67.9786822 73.5271318 69.6065891 73.9341085 69.1860465 71.6085271 66.8604651 69.2829457 69.1860465 69.6899225 69.5930233 71.3178295 67.9786822 71.3178295 71.5077519"></polygon>
                        <polygon id="Path" fill="#FFFFFF" points="171.511628 87.7868217 171.511628 84.2577519 173.139535 85.8856589 173.546512 85.4651163 171.22093 83.1395349 168.895349 85.4651163 169.302326 85.872093 170.930233 84.2577519 170.930233 87.7868217"></polygon>
                        <polygon id="Path" fill="#FFFFFF" points="68.4108527 118.988372 68.4108527 115.459302 70.0387597 117.087209 70.4457364 116.666667 68.120155 114.341085 65.7945736 116.666667 66.2015504 117.073643 67.8294574 115.459302 67.8294574 118.988372"></polygon>
                        <circle id="Oval" fill="#FFFFFF" cx="152.906977" cy="56.7829457" r="1.1627907"></circle>
                        <circle id="Oval" fill="#FFFFFF" cx="43.4108527" cy="53.6821705" r="1.1627907"></circle>
                        <circle id="Oval" fill="#FFFFFF" cx="77.7131783" cy="83.1395349" r="1.1627907"></circle>
                        <circle id="Oval" fill="#FFFFFF" cx="179.263566" cy="102.906977" r="1"></circle>
                        <circle id="Oval" fill="#FFFFFF" cx="135.658915" cy="118.992248" r="1"></circle>
                        <circle id="Oval" fill="#FFFFFF" cx="61.0465116" cy="132.55814" r="1"></circle>
                        <circle id="Oval" fill="#FFFFFF" cx="18.6046512" cy="85.4651163" r="1"></circle>
                        <circle id="Oval" fill="#FFFFFF" cx="24.2248062" cy="73.0620155" r="1"></circle>
                        <circle id="Oval" fill="#FFFFFF" cx="149.224806" cy="138.178295" r="1"></circle>
                        <circle id="Oval" fill="#FFFFFF" cx="41.6666667" cy="118.023256" r="1"></circle>
                        <circle id="Oval" fill="#FFFFFF" cx="55.0387597" cy="64.7286822" r="1"></circle>
                        <polygon id="Path" fill="#FFFFFF" points="74.9031008 44.0891473 71.8992248 44.0891473 71.8992248 41.0852713 71.5116279 41.0852713 71.5116279 44.0891473 68.5077519 44.0891473 68.5077519 44.4767442 71.5116279 44.4767442 71.5116279 47.4806202 71.8992248 47.4806202 71.8992248 44.4767442 74.9031008 44.4767442"></polygon>
                        <polygon id="Path" fill="#FFFFFF" points="148.062016 99.5910853 146.242248 99.5910853 146.242248 97.7713178 146.005814 97.7713178 146.005814 99.5910853 144.186047 99.5910853 144.186047 99.8275194 146.005814 99.8275194 146.005814 101.647287 146.242248 101.647287 146.242248 99.8275194 148.062016 99.8275194"></polygon>
                        <polygon id="Path" fill="#FFFFFF" points="137.015504 133.505814 135.195736 133.505814 135.195736 131.686047 134.959302 131.686047 134.959302 133.505814 133.139535 133.505814 133.139535 133.742248 134.959302 133.742248 134.959302 135.562016 135.195736 135.562016 135.195736 133.742248 137.015504 133.742248"></polygon>
                        <polygon id="Path" fill="#FFFFFF" points="46.5116279 129.242248 44.6918605 129.242248 44.6918605 127.422481 44.4554264 127.422481 44.4554264 129.242248 42.6356589 129.242248 42.6356589 129.478682 44.4554264 129.478682 44.4554264 131.29845 44.6918605 131.29845 44.6918605 129.478682 46.5116279 129.478682"></polygon>
                        <polygon id="Path" fill="#FFFFFF" points="33.7209302 95.1337209 31.9011628 95.1337209 31.9011628 93.3139535 31.6647287 93.3139535 31.6647287 95.1337209 29.8449612 95.1337209 29.8449612 95.370155 31.6647287 95.370155 31.6647287 97.1899225 31.9011628 97.1899225 31.9011628 95.370155 33.7209302 95.370155"></polygon>
                        <polygon id="Path" fill="#3F3D56" points="87.879845 129.782946 87.8934109 128.69186 87.2383721 128.684109 87.2248062 129.775194 86.0949612 133.03876 88.9321705 133.071705"></polygon>
                        <polygon id="Path" fill="#3F3D56" points="90.7267442 129.844961 90.7403101 128.726744 90.0678295 128.717054 90.0542636 129.837209 88.8953488 133.184109 91.8062016 133.217054"></polygon>
                        <polygon id="Path" fill="#3F3D56" points="93.5562016 129.850775 93.5697674 128.75969 92.9147287 128.751938 92.9011628 129.843023 91.7713178 133.106589 94.6104651 133.139535"></polygon>
                        <polygon id="Path" fill="#3F3D56" points="113.792636 130.120155 113.806202 129 113.133721 128.992248 113.120155 130.112403 111.96124 133.457364 114.872093 133.492248"></polygon>
                        <polygon id="Path" fill="#3F3D56" points="116.703488 130.155039 116.717054 129.034884 116.044574 129.027132 116.031008 130.147287 114.872093 133.492248 117.782946 133.527132"></polygon>
                        <polygon id="Path" fill="#3F3D56" points="119.614341 130.189922 119.627907 129.069767 118.955426 129.062016 118.94186 130.182171 117.782946 133.527132 120.693798 133.562016"></polygon>
                        <polygon id="Path" fill="#3F3D56" points="100.579457 129.963178 100.593023 128.843023 99.9205426 128.835271 99.9069767 129.955426 98.748062 133.300388 101.658915 133.335271"></polygon>
                        <polygon id="Path" fill="#3F3D56" points="103.49031 129.998062 103.503876 128.877907 102.833333 128.870155 102.819767 129.99031 101.658915 133.335271 104.569767 133.370155"></polygon>
                        <polygon id="Path" fill="#3F3D56" points="106.401163 130.032946 106.414729 128.912791 105.744186 128.905039 105.73062 130.025194 104.569767 133.370155 107.482558 133.405039"></polygon>
                        <path d="M98.5968992,51.6627907 C98.5562016,47.8062016 94.0135659,40.9689922 91.5620155,40.9398286 C89.1104651,40.9108527 84.627907,47.6395349 84.496124,51.494186 L84.379845,51.494186 L83.4554264,128.976744 L97.6763566,129.145349 L98.6007752,51.6647287 L98.5968992,51.6627907 Z" id="Path" fill="#3F3D56"></path>
                        <path d="M124.573643,51.9728682 C124.532946,48.1162791 119.99031,41.2790698 117.53876,41.2499061 C115.087209,41.2209302 110.604651,47.9496124 110.474806,51.8042636 L110.358527,51.8042636 L109.434109,129.286822 L123.655039,129.455426 L124.579457,51.9748062 L124.573643,51.9728682 Z" id="Path" fill="#3F3D56"></path>
                        <path d="M111.794574,15.6821705 C111.773256,10.0290698 107.267442,0.0290697674 104.817829,-6.39311158e-05 C102.368217,-0.0290697674 97.8410853,9.8624031 97.6918605,15.503876 L97.5775194,15.503876 L96.2209302,129.116279 L110.439922,129.286822 L111.796512,15.6724806 L111.794574,15.6821705 Z" id="Path" fill="#2F2E41"></path>
                        <polygon id="Path" fill="#ED6E52" points="98.6686047 76.6337209 104.071705 71.2306202 109.525194 76.6337209 105.819767 76.6337209 105.819767 80.7635659 102.375969 80.7635659 102.375969 76.6589147"></polygon>
                        <g id="Group" opacity="0.1" transform="translate(83.333333, 0.193798)" fill="#000000">
                            <path d="M28.0755814,53.0852713 C29.5465116,49.6531008 32.4186047,46.0736434 34.2054264,46.0949612 C36.5310078,46.122093 40.7209302,52.255814 41.1957364,56.1724806 L41.246124,51.9651163 L41.246124,51.9651163 C41.2054264,48.1085271 36.6627907,41.2713178 34.2112403,41.2421508 C32.4476744,41.2209302 29.629845,44.7073643 28.1414729,48.0988372 L28.0755814,53.0852713 Z" id="Path"></path>
                            <path d="M1.04844961,56.3372093 L1.16472868,56.3372093 C1.29457364,52.4825581 5.77906977,45.753876 8.22868217,45.7829457 C9.82945736,45.8023256 12.3197674,48.7228682 13.8682171,51.8217054 L14.244186,20.3565891 L14.3585271,20.3565891 C14.5096899,14.7054264 19.0348837,4.81395349 21.4844961,4.85271318 C23.7984496,4.87984496 27.9496124,13.8081395 28.4186047,19.5620155 L28.4631783,15.6860465 L28.4631783,15.6860465 C28.4418605,10.0329457 23.9360465,0.0329457364 21.4864341,0.00381203791 C19.0368217,-0.0251937984 14.5096899,9.86627907 14.3604651,15.5174419 L14.246124,15.5174419 L13.870155,46.9825581 C12.3197674,43.8817829 9.83139535,40.9631783 8.23062016,40.9437984 C5.78100775,40.9147287 1.29651163,47.6434109 1.16666667,51.498062 L1.0503876,51.498062 L0.125968992,128.98062 L0.184108527,128.98062 L1.04844961,56.3372093 Z" id="Path"></path>
                        </g>
                        <path d="M104.781838,4.91946849 C105.524105,4.91946849 106.125831,5.52119431 106.125831,6.26346074 L106.125831,9.39911965 C106.125831,10.1413861 105.524105,10.7431119 104.781838,10.7431119 C104.039572,10.7431119 103.437846,10.1413861 103.437846,9.39911965 L103.437846,6.26346074 C103.437846,5.52119431 104.039572,4.91946849 104.781838,4.91946849 Z" id="Rectangle" fill="#ECECF3" transform="translate(104.781838, 7.831290) rotate(0.680000) translate(-104.781838, -7.831290) "></path>
                    </g>
                </g>
            </g>
        </g>
    </g>
</svg>