<?xml version="1.0" encoding="UTF-8"?>
<svg width="188px" height="150px" viewBox="0 0 188 150" version="1.1" xmlns="http://www.w3.org/2000/svg" xmlns:xlink="http://www.w3.org/1999/xlink">
    <!-- Generator: Sketch 55.2 (78181) - https://sketchapp.com -->
    <title>undraw_analyze_17kw</title>
    <desc>Created with Sketch.</desc>
    <g id="Why-Webiny" stroke="none" stroke-width="1" fill="none" fill-rule="evenodd">
        <g id="Agency-Landing-Page" transform="translate(-1165.000000, -1147.000000)">
            <g id="Feature-list" transform="translate(148.000000, 780.000000)">
                <g id="Icons---v2" transform="translate(56.000000, 13.000000)">
                    <g id="undraw_analyze_17kw" transform="translate(961.000000, 354.000000)">
                        <ellipse id="Oval" fill="#3F3D56" fill-rule="nonzero" cx="139.112903" cy="146.370968" rx="43.5483871" ry="3.62903226"></ellipse>
                        <path d="M182.66129,105.549516 C182.66129,123.253806 172.100265,129.435484 159.07258,129.435484 C146.044894,129.435484 135.483871,123.253806 135.483871,105.549516 C135.483871,87.8452258 159.07258,65.3225806 159.07258,65.3225806 C159.07258,65.3225806 182.66129,87.8452235 182.66129,105.549516 Z" id="Path" fill="#F2F2F2" fill-rule="nonzero"></path>
                        <polygon id="Path" fill="#3F3D56" fill-rule="nonzero" points="158.06915 127.330617 158.305533 112.367995 168.145161 93.8573408 158.342565 110.020958 158.448782 103.293148 165.230283 89.900691 158.476944 101.512747 158.476944 101.512747 158.668091 89.4124944 165.929898 78.7506092 158.698249 87.509873 158.81755 65.3225806 158.066932 94.6946402 158.128578 93.4829276 150.745476 81.8619789 158.010165 95.8089871 157.322302 109.322752 157.301901 108.964072 148.790323 96.7347592 157.276179 110.231195 157.19014 111.921071 157.174618 111.946609 157.181714 112.085247 155.436335 146.370968 157.768238 146.370968 158.048084 128.661813 166.512874 115.198441"></polygon>
                        <path d="M175.403226,137.191412 C175.403226,142.202075 172.424618,143.951613 168.75,143.951613 C168.664876,143.951613 168.579886,143.950667 168.495029,143.948774 C168.324775,143.945126 168.156142,143.937019 167.989539,143.925668 C164.673264,143.690966 162.096774,141.851437 162.096774,137.191412 C162.096774,132.368836 168.259511,126.283563 168.722434,125.833206 L168.723243,125.832396 C168.741084,125.814966 168.750004,125.806452 168.750004,125.806452 C168.750004,125.806452 175.403226,132.180749 175.403226,137.191412 Z" id="Path" fill="#ED6E52" fill-rule="nonzero"></path>
                        <path d="M168.62539,143.187782 L171.263895,139.787092 L168.618803,143.561191 L168.611774,143.951613 C168.427169,143.947964 168.244323,143.939856 168.063676,143.928503 L168.348055,138.914633 L168.345857,138.87571 L168.350693,138.868414 L168.377502,138.394879 L165.725806,134.611455 L168.385847,138.039716 L168.392006,138.140261 L168.606933,134.351986 L166.336761,130.442484 L168.634622,133.687081 L168.858344,125.833217 L168.859221,125.806452 L168.859221,125.8324 L168.821862,132.02565 L171.081931,129.5704 L168.812635,132.559183 L168.752861,135.950954 L170.863046,132.695809 L168.744071,136.450033 L168.710665,138.335655 L171.774194,133.805048 L168.699238,138.993659 L168.62539,143.187782 Z" id="Path" fill="#3F3D56" fill-rule="nonzero"></path>
                        <circle id="Oval" fill="#F2F2F2" fill-rule="nonzero" cx="50.8064516" cy="47.1774194" r="10.8870968"></circle>
                        <circle id="Oval" stroke="#3F3D56" stroke-width="2" cx="53.2258065" cy="44.7580645" r="10.8870968"></circle>
                        <path d="M38.7096774,26.6129032 L29.7345708,12.2757179 C31.9619755,9.57899034 31.74676,5.72506238 29.2316194,3.26921469 C26.7164788,0.813367008 22.6816205,0.51741423 19.8022879,2.57758276 C16.9229553,4.63775129 16.09233,8.41496788 17.8611437,11.4048141 C19.6299574,14.3946603 23.4495164,15.6696727 26.7873279,14.3844764 L38.7096774,26.6129032 Z" id="Path" fill="#3F3D56" fill-rule="nonzero"></path>
                        <circle id="Oval" fill="#ED6E52" fill-rule="nonzero" cx="23.5887097" cy="7.86290323" r="3.02419355"></circle>
                        <path d="M66.5322581,25.4032258 L78.5338006,13.3642151 C81.7068888,14.804728 85.4468489,13.6477354 87.2739647,10.6603612 C89.1010805,7.67298696 88.4485728,3.78192769 85.7490755,1.56708328 C83.0495783,-0.647761128 79.1404873,-0.499336306 76.6136581,1.91394722 C74.086829,4.32723075 73.726095,8.25676193 75.7706347,11.0971327 L66.5322581,25.4032258 Z" id="Path" fill="#3F3D56" fill-rule="nonzero"></path>
                        <circle id="Oval" fill="#ED6E52" fill-rule="nonzero" cx="81.6532258" cy="6.65322581" r="3.02419355"></circle>
                        <path d="M75,52.016129 L89.8937008,60.7830126 C89.2583055,64.2107651 91.3331511,67.5655711 94.7425472,68.6230845 C98.1519433,69.6805979 101.83828,68.1127734 103.357396,64.95913 C104.876512,61.8054866 103.757171,58.044298 100.741532,56.1693555 C97.725893,54.294413 93.7494209,54.8873317 91.4486468,57.5549872 L75,52.016129 Z" id="Path" fill="#3F3D56" fill-rule="nonzero"></path>
                        <circle id="Oval" fill="#ED6E52" fill-rule="nonzero" cx="96.1693548" cy="62.2983871" r="3.02419355"></circle>
                        <path d="M50.7207934,66.5322581 L45.4898348,82.8259031 C41.8531676,83.0565308 38.9583662,85.8459187 38.724779,89.344611 C38.4911917,92.8433034 40.9912784,95.9659906 44.5673994,96.6422286 C48.1435205,97.3184665 51.6863477,95.3384833 52.8468702,92.0150727 C54.0073928,88.6916622 52.4256116,85.0557607 49.1502995,83.5180903 L50.7207934,66.5322581 Z" id="Path" fill="#3F3D56" fill-rule="nonzero"></path>
                        <circle id="Oval" fill="#ED6E52" fill-rule="nonzero" cx="46.5725806" cy="90.1209677" r="3.02419355"></circle>
                        <path d="M30.2419355,47.1500923 L13.4451954,46.1721952 C12.3895726,42.7014911 9.0550816,40.5941433 5.6525992,41.2473925 C2.25011681,41.9006417 -0.16489222,45.1118472 0.00880221336,48.7518744 C0.182496647,52.3919016 2.89101378,55.3315985 6.33851802,55.6218497 C9.78602226,55.9121008 12.9030829,53.4628691 13.6229866,49.8980754 L30.2419355,47.1500923 Z" id="Path" fill="#3F3D56" fill-rule="nonzero"></path>
                        <circle id="Oval" fill="#ED6E52" fill-rule="nonzero" cx="6.65322581" cy="47.7822581" r="3.02419355"></circle>
                        <circle id="Oval" fill="#F2F2F2" fill-rule="nonzero" cx="183.870968" cy="10.8870968" r="3.62903226"></circle>
                        <circle id="Oval" stroke="#3F3D56" stroke-width="2" cx="182.66129" cy="9.67741935" r="3.62903226"></circle>
                        <rect id="Rectangle" fill="#ED6E52" fill-rule="nonzero" x="154.83871" y="12.0967742" width="7.25806452" height="7.25806452"></rect>
                        <rect id="Rectangle" stroke="#3F3D56" stroke-width="2" x="157.258065" y="10.8870968" width="7.25806452" height="7.25806452"></rect>
                        <path d="M137.450087,133.064516 C137.450087,133.064516 136.759846,137.373992 135.609444,138.054435 C134.459042,138.734879 141.591534,140.322581 141.591534,140.322581 L142.741935,133.518145 L137.450087,133.064516 Z" id="Path" fill="#FBBEBE" fill-rule="nonzero"></path>
                        <path d="M146.25576,83.4677419 L148.790323,86.4470888 L147.638249,96.7602125 L146.71659,117.157279 C146.71659,117.157279 148.559908,134.80418 146.71659,135.262541 C144.873272,135.720902 136.578341,135.491721 136.808756,134.345819 C137.039171,133.199916 137.269585,132.283194 137.730415,130.67893 C138.191244,129.074667 137.269585,123.345154 137.269585,123.345154 L138.421659,116.928099 L134.274194,89.1972551 L146.25576,83.4677419 Z" id="Path" fill="#2F2E41" fill-rule="nonzero"></path>
                        <path d="M137.453785,136.885009 C137.453785,136.885009 135.030049,136.454222 134.809709,136.885009 C134.58937,137.315796 130.402917,141.839055 129.741898,141.839055 C129.080879,141.839055 124.233408,146.146921 129.301219,146.362314 C134.36903,146.577708 142.741935,142.700628 142.741935,142.700628 C142.741935,142.700628 141.509739,137.219627 141.574988,137.483105 C141.640237,137.746582 137.453785,137.961976 137.453785,136.885009 Z" id="Path" fill="#2F2E41" fill-rule="nonzero"></path>
                        <path d="M135.483871,127.15752 C135.483871,127.15752 142.125237,134.462715 142.362429,135.169669 C142.59962,135.876623 146.157495,135.169669 146.157495,135.169669 L147.580645,130.45664 L146.394687,128.80708 L139.753321,123.387097 L135.483871,127.15752 Z" id="Path" fill="#FBBEBE" fill-rule="nonzero"></path>
                        <path d="M144.997013,131.825429 L141.532258,134.922389 C141.532258,134.922389 145.952808,141.355856 145.952808,142.036601 C145.952808,142.717346 146.191756,148.390219 148.581243,147.482559 C150.970729,146.574899 151.209677,137.498302 151.209677,137.498302 C151.209677,137.498302 150.970729,128.194791 149.537037,127.514046 C148.103345,126.833301 144.961056,127.048375 144.961056,127.048375 C144.961056,127.048375 146.908602,131.598514 144.997013,131.825429 Z" id="Path" fill="#2F2E41" fill-rule="nonzero"></path>
                        <path d="M125.632795,63.8416473 C125.632795,63.8416473 124.497622,67.4703446 124.270587,68.3775189 C124.043553,69.2846933 122.681345,71.7794227 122.681345,75.6349136 C122.681345,79.4904045 123.135414,84.0262762 122.681345,84.4798634 C122.227276,84.9334506 114.962169,110.334332 118.140653,113.055855 C121.319137,115.777378 131.762728,124.849121 132.443832,125.983089 C133.124936,127.117057 133.351971,129.83858 134.714178,129.384993 C136.076386,128.931406 141.298181,124.395534 141.525216,123.48836 C141.75225,122.581185 138.573766,120.99363 138.573766,120.99363 C138.573766,120.99363 132.216798,111.695093 130.627556,111.921887 C129.038313,112.148681 129.265348,110.787919 129.492383,110.107538 C129.719417,109.427158 130.173486,108.97357 129.492383,108.97357 C128.811279,108.97357 129.265348,107.159222 129.492383,106.252047 C129.719417,105.344873 134.941213,93.0980196 134.941213,93.0980196 L148.790323,86.9745928 C148.790323,86.9745928 148.109219,70.4186612 143.114458,65.8827895 L141.979285,63.1612665 C141.979285,63.1612665 129.265348,62.2540922 125.632795,63.8416473 Z" id="Path" fill="#2F2E41" fill-rule="nonzero"></path>
                        <path d="M131.359308,27.8225806 C131.359308,27.8225806 132.525262,35.5747388 129.726972,36.0177192 C126.928682,36.4606997 124.596774,36.2392095 124.596774,36.4606997 C124.596774,36.6821899 131.592499,43.5483871 131.592499,43.5483871 L138.121842,43.1054066 L143.951613,37.1251704 C143.951613,37.1251704 138.588224,36.2392095 138.588224,33.1383462 C138.588224,30.037483 138.355033,27.8225806 138.355033,27.8225806 L131.359308,27.8225806 Z" id="Path" fill="#FBBEBE" fill-rule="nonzero"></path>
                        <path d="M131.359308,27.8225806 C131.359308,27.8225806 132.525262,35.5747388 129.726972,36.0177192 C126.928682,36.4606997 124.596774,36.2392095 124.596774,36.4606997 C124.596774,36.6821899 131.592499,43.5483871 131.592499,43.5483871 L138.121842,43.1054066 L143.951613,37.1251704 C143.951613,37.1251704 138.588224,36.2392095 138.588224,33.1383462 C138.588224,30.037483 138.355033,27.8225806 138.355033,27.8225806 L131.359308,27.8225806 Z" id="Path" fill="#000000" fill-rule="nonzero" opacity="0.1"></path>
                        <circle id="Oval" fill="#FBBEBE" fill-rule="nonzero" cx="134.274194" cy="24.1935484" r="7.25806452"></circle>
                        <path d="M128.30433,35.0806452 C128.30433,35.0806452 119.302936,36.2349175 118.610521,39.2360256 C117.918106,42.2371337 123.22662,60.9363457 123.919035,62.552327 C124.61145,64.1683083 124.380645,65.3225806 124.380645,65.3225806 C126.493568,63.7420268 129.186689,63.1527802 131.766405,63.7065994 C136.1517,64.6300172 142.383435,64.1683083 142.383435,64.1683083 C142.383435,64.1683083 144.46068,55.6266929 144.92229,54.7032751 C145.3839,53.7798572 147.23034,48.7010589 147.23034,47.315932 C147.23034,45.9308052 150,40.1594435 150,40.1594435 C150,40.1594435 148.61517,36.004063 143.53746,36.2349175 C143.53746,36.2349175 141.322612,35.2433837 140.698997,35.9700051 C140.075383,36.6966264 136.61331,39.928589 132.228015,38.5434622 C127.84272,37.1583354 128.30433,35.0806452 128.30433,35.0806452 Z" id="Path" fill="#3F3D56" fill-rule="nonzero"></path>
                        <path d="M121.36806,39.9193548 L118.760833,39.9193548 L117.33871,57.3210877 C117.33871,57.3210877 122.553163,58.6427383 123.264225,57.7616379 C123.975287,56.8805375 121.36806,39.9193548 121.36806,39.9193548 Z" id="Path" fill="#3F3D56" fill-rule="nonzero"></path>
                        <path d="M117.987678,55.6774309 L117.364668,57.4276472 C117.364668,57.4276472 116.949329,63.11585 119.441368,62.8970729 C121.933407,62.6782959 123.387097,59.3966404 123.387097,59.3966404 C123.387097,59.3966404 121.933407,55.2398768 120.272048,55.6774309 C118.610688,56.114985 117.987678,55.6774309 117.987678,55.6774309 Z" id="Path" fill="#3F3D56" fill-rule="nonzero"></path>
                        <path d="M145.16129,38.7096774 L149.574946,39.8678792 C149.574946,39.8678792 152.827113,51.6815374 153.059411,51.9131778 C153.291708,52.1448181 153.524006,53.5346603 153.524006,53.5346603 C153.524006,53.5346603 153.524006,53.7663006 153.988601,54.4612217 C154.453197,55.1561428 155.15009,54.692862 154.685494,55.6194235 C154.220899,56.5459849 153.524006,56.0827042 153.988601,57.0092656 C154.453197,57.935827 154.220899,60.483871 154.220899,60.483871 C154.220899,60.483871 153.059411,56.0827042 148.878053,57.240906 L146.090481,44.7323267 L145.16129,38.7096774 Z" id="Path" fill="#3F3D56" fill-rule="nonzero"></path>
                        <path d="M127.025799,18.9861031 C125.582269,21.4742371 125.257147,24.4213644 125.057964,27.2775979 C124.97255,28.502569 124.908307,29.7598395 125.278663,30.9326884 C125.669182,32.1693859 126.538069,33.4259264 126.092498,34.6445804 C125.661536,35.823243 124.220323,36.2949017 123.415483,37.2667918 C122.733424,38.0904204 122.562107,39.2189018 122.621294,40.2784799 C122.680481,41.338058 122.942367,42.378283 123.019187,43.4367693 C123.177797,45.7618468 122.44626,48.0613086 120.967742,49.8851409 C124.416807,49.7546691 128.10441,48.2542446 129.558909,45.1834456 C129.993729,44.2654367 130.205268,43.2607799 130.597659,42.3245545 C131.041556,41.2654369 131.711385,40.3068099 132.131789,39.2385066 C132.766095,37.6266625 132.800425,35.8567489 132.826766,34.1291518 C132.842535,33.0950035 132.853751,32.0332553 132.488949,31.0628816 C131.6859,28.9267646 129.1885,27.546586 128.94053,25.2828615 C128.89778,25.0434852 128.933896,24.7969726 129.043635,24.5790969 C129.16012,24.4199241 129.301421,24.2797336 129.46235,24.1636737 C131.021796,22.8134269 130.76465,19.9548211 132.620958,19.0343457 C133.453959,18.6212902 134.458067,18.7665998 135.352569,19.0280758 C136.345857,19.31843 137.336882,19.7680914 137.983111,20.5630283 C139.284439,22.1638064 138.770894,24.4761532 138.368222,26.4851883 C137.784651,29.3993414 137.577726,32.3740213 137.752336,35.3389323 C137.763627,35.8131604 137.834908,36.2841773 137.964545,36.7411688 C138.203651,37.482658 138.713371,38.1055817 139.098154,38.7855361 C139.882346,40.183256 140.13681,41.8082024 139.816447,43.3723905 C139.532392,44.7336292 138.82679,46.183304 139.447931,47.4320313 C139.721358,47.914269 140.102225,48.3297333 140.562134,48.6474459 C142.591522,50.2078328 145.167586,51.1746503 146.676479,53.2258065 C146.936341,51.5504012 146.440619,49.8643814 146.074654,48.2081631 C145.70869,46.5519448 145.485991,44.7488174 146.238071,43.223172 C146.568013,42.5538681 147.072316,41.9715333 147.342038,41.2767501 C147.964955,39.6721755 147.22252,37.9122205 146.771646,36.2531671 C146.449341,34.9503404 146.216676,33.6277318 146.075224,32.2942865 L145.61021,28.6950519 C145.225786,25.7195968 144.823558,22.6835414 143.491716,19.9838184 C140.981852,14.8961711 135.30198,13.0066405 130.216462,15.8257716 C128.883852,16.5802086 127.781991,17.6715953 127.025799,18.9861031 Z" id="Path" fill="#FF6584" fill-rule="nonzero"></path>
                        <path d="M120.335602,56.5043244 C120.335602,56.5043244 118.887747,60.483871 120.576912,60.483871 C122.266076,60.483871 125.403096,58.0519259 125.644406,56.0621526 C125.885715,54.0723793 130.229281,46.5554581 127.092261,47.2187159 C123.955241,47.8819736 122.507386,53.4091216 122.507386,53.4091216 L120.335602,56.5043244 Z" id="Path" fill="#FBBEBE" fill-rule="nonzero"></path>
                        <polygon id="Path" fill="#ED6E52" fill-rule="nonzero" points="143.16067 38.7096774 135.483871 63.0479735 145.952233 65.3225806 153.629032 41.6666667"></polygon>
                        <path d="M153.359429,57.0973516 L154.78854,59.5388361 C154.78854,59.5388361 155.418265,64.1129032 152.215631,64.1129032 C149.012996,64.1129032 144.437803,59.6697205 144.437803,59.6697205 C144.437803,59.6697205 142.150207,58.7343137 140.777649,58.9681654 C139.405092,59.2020171 131.856024,58.9681654 135.058659,54.9926861 C138.261293,51.0172069 143.751524,54.9926861 143.751524,54.9926861 L149.470515,57.7989068 L152.44439,56.1619447 L153.359429,57.0973516 Z" id="Path" fill="#FBBEBE" fill-rule="nonzero"></path>
                        <path d="M151.186382,53.6815013 L148.790323,57.32706 C148.790323,57.32706 154.30126,58.0106022 154.780472,59.1498393 C155.259684,60.2890764 152.624018,53.2258065 152.624018,53.2258065 L151.186382,53.6815013 Z" id="Path" fill="#3F3D56" fill-rule="nonzero"></path>
                    </g>
                </g>
            </g>
        </g>
    </g>
</svg>