<?xml version="1.0" encoding="UTF-8"?>
<svg width="220px" height="144px" viewBox="0 0 220 144" version="1.1" xmlns="http://www.w3.org/2000/svg" xmlns:xlink="http://www.w3.org/1999/xlink">
    <!-- Generator: Sketch 55.2 (78181) - https://sketchapp.com -->
    <title>undraw_pair_programming_njlp</title>
    <desc>Created with Sketch.</desc>
    <defs>
        <linearGradient x1="-3.01724138%" y1="50.2564103%" x2="96.9827586%" y2="50.2564103%" id="linearGradient-1">
            <stop stop-color="#808080" stop-opacity="0.25" offset="0%"></stop>
            <stop stop-color="#808080" stop-opacity="0.12" offset="54%"></stop>
            <stop stop-color="#808080" stop-opacity="0.1" offset="100%"></stop>
        </linearGradient>
    </defs>
    <g id="Why-Webiny" stroke="none" stroke-width="1" fill="none" fill-rule="evenodd">
        <g id="Agency-Landing-Page" transform="translate(-676.000000, -1144.000000)">
            <g id="Feature-list" transform="translate(148.000000, 780.000000)">
                <g id="Icons---v2" transform="translate(56.000000, 13.000000)">
                    <g id="undraw_pair_programming_njlp" transform="translate(472.000000, 351.000000)">
                        <path d="M113.779732,25.7456605 C99.8853565,28.0841627 86.0104491,27.0816705 72.6631269,25.6234999 C59.3158048,24.1653294 46.0015783,22.2611759 32.1013624,22.8351367 C23.1596689,23.2035574 13.2017411,24.9680988 6.95832477,30.0969033 C0.948525529,35.0298631 0.012110423,41.6866442 0,47.6957804 C-0.0151449023,52.2157211 0.378110506,56.8927255 3.5942389,60.4935534 C5.82917557,62.9910582 9.26918699,64.7808074 11.8603897,67.0863456 C20.876062,75.0946491 18.134955,87.7043336 12.2186026,98.4253772 C9.44245299,103.45529 6.04721818,108.401823 4.15686668,113.550018 C2.26651519,118.698213 2.01537684,124.214829 5.3989308,128.412886 C8.75133581,132.576041 15.2361564,134.922299 21.9974239,136.138088 C35.7302143,138.608446 51.0301858,137.074652 65.8337211,134.995983 C98.596569,130.37909 131.020672,123.181312 163.37469,116.000985 C175.345618,113.342539 187.36911,110.672458 198.902007,106.840882 C205.307008,104.70792 211.828818,102.053352 215.965787,97.9212225 C221.222171,92.6857698 221.354554,85.5248341 216.288957,81.2453364 C207.78919,74.0708272 188.550823,75.6627926 181.97645,67.4605835 C178.359279,62.9445209 179.934247,56.8112851 182.813578,51.3935612 C188.986909,39.7747345 200.918901,28.2955198 199.373134,16.7115962 C198.306283,8.76146441 190.166675,2.18224562 179.256758,0.468119655 C167.821202,-1.32744669 153.134475,2.07753657 146.550367,10.0780838 C139.781312,18.3210131 126.048522,23.6747481 113.779732,25.7456605 Z" id="Path" fill="#ED6E52" fill-rule="nonzero" opacity="0.1"></path>
                        <rect id="Rectangle" fill="#565661" fill-rule="nonzero" x="70.4854369" y="69.7734628" width="54.8220065" height="12.815534"></rect>
                        <rect id="Rectangle" fill="#000000" fill-rule="nonzero" opacity="0.1" x="70.4854369" y="69.7734628" width="54.8220065" height="12.815534"></rect>
                        <polygon id="Path" fill="#BCBEC9" fill-rule="nonzero" points="76.5072785 83.3009709 76.8932039 117.550505 71.6066082 131.003236 71.197411 83.3009709"></polygon>
                        <polygon id="Path" fill="#565661" fill-rule="nonzero" points="70.4854369 72.6213592 123.883495 72.948749 123.883495 82.5889968 70.4854369 82.5889968"></polygon>
                        <polygon id="Path" fill="#BCBEC9" fill-rule="nonzero" points="119.61165 83.3009709 123.883495 83.9492605 123.883495 130.291262 119.61165 116.116497"></polygon>
                        <rect id="Rectangle" fill="#EFEFF0" fill-rule="nonzero" x="126.019417" y="70.4854369" width="25.631068" height="54.8220065"></rect>
                        <rect id="Rectangle" fill="#565661" fill-rule="nonzero" x="128.15534" y="71.9093851" width="22.0711974" height="42.0064725"></rect>
                        <rect id="Rectangle" fill="#000000" fill-rule="nonzero" opacity="0.1" x="128.15534" y="71.9093851" width="22.0711974" height="42.0064725"></rect>
                        <rect id="Rectangle" fill="#565661" fill-rule="nonzero" x="128.15534" y="72.6213592" width="22.0711974" height="9.25566343"></rect>
                        <rect id="Rectangle" fill="#565661" fill-rule="nonzero" x="128.15534" y="83.3009709" width="22.0711974" height="19.9352751"></rect>
                        <rect id="Rectangle" fill="#565661" fill-rule="nonzero" x="128.15534" y="103.94822" width="22.0711974" height="19.9352751"></rect>
                        <rect id="Rectangle" fill="#000000" fill-rule="nonzero" opacity="0.1" x="128.15534" y="103.94822" width="22.0711974" height="19.9352751"></rect>
                        <ellipse id="Oval" fill="#565661" fill-rule="nonzero" cx="128.867314" cy="127.087379" rx="1.42394822" ry="1.77993528"></ellipse>
                        <ellipse id="Oval" fill="#565661" fill-rule="nonzero" cx="148.090615" cy="127.087379" rx="1.42394822" ry="1.77993528"></ellipse>
                        <polygon id="Path" fill="#EFEFF0" fill-rule="nonzero" points="69.9245874 131.003236 71.9093851 131.003236 71.3637716 71.197411 68.3495146 71.197411"></polygon>
                        <polygon id="Path" fill="#EFEFF0" fill-rule="nonzero" points="124.595469 70.4854369 124.595469 130.291262 126.019417 130.291262 126.019417 70.9634465"></polygon>
                        <polygon id="Path" fill="#EFEFF0" fill-rule="nonzero" points="71.197411 81.8770227 71.197411 84.012945 123.883495 84.012945 123.883495 82.460608"></polygon>
                        <polygon id="Path" fill="#FFFFFF" fill-rule="nonzero" points="74.5086326 66.9255663 141.862494 66.9255663 151.650485 70.079834 151.650485 71.9093851 67.6375405 71.2792907 67.6375405 69.4174757"></polygon>
                        <polygon id="Path" fill="#BCBEC9" fill-rule="nonzero" points="67.6375405 69.0614887 151.650485 69.8184695 151.650485 71.9093851 67.6375405 71.1892773"></polygon>
                        <path d="M75.4324294,91.1326861 L74.8186586,91.0231516 C74.8186586,90.9902913 74.8186586,90.9610821 74.8186586,90.9318729 C74.8002455,90.7602689 74.7787635,90.592316 74.7572816,90.420712 C75.0089276,90.6580367 75.2482982,90.8953614 75.4692557,91.1326861 L75.4324294,91.1326861 Z" id="Path" fill="url(#linearGradient-1)" fill-rule="nonzero"></path>
                        <path d="M67.530616,121.401202 C67.7808025,121.340938 68.0348381,121.290717 68.2888737,121.254559 C70.0335781,120.995221 71.8129022,121.268717 73.4119246,122.042011 C73.2502656,123.283455 73.0905311,124.567083 73.4330943,125.766341 C73.6717337,126.610041 74.1509372,127.373388 74.2529364,128.253246 C74.7771281,128.347328 75.2054724,128.742337 75.3595308,129.27372 C75.4333578,129.504223 75.4704167,129.745816 75.4692557,129.988856 C75.4670898,130.289553 75.4309147,130.588932 75.3614553,130.880766 C75.3128054,131.365528 74.9032687,131.721757 74.4376895,131.68429 C72.9481172,131.861065 71.4874126,131.248378 70.101764,130.647745 L67.4074472,129.478618 C67.0918273,129.34202 66.7742828,129.203412 66.4721344,129.034672 C65.899035,128.711461 65.3902209,128.277172 64.9729396,127.755061 C64.8847113,127.661866 64.8227859,127.545101 64.7939599,127.417582 C64.7439226,127.064031 65.1403721,126.853107 65.3924832,126.614058 C65.4663228,126.541208 65.5309915,126.458857 65.5849344,126.368984 C65.8832337,125.898923 65.9121014,125.250078 66.091081,124.695647 C66.5144737,123.379878 67.8231418,122.532161 68.2850247,121.248532 C68.3100433,121.178224 68.3331375,121.107916 68.3523826,121.035599" id="Path" fill="#A26565" fill-rule="nonzero"></path>
                        <path d="M75.4692557,129.393907 C75.4671175,129.67422 75.4309423,129.953306 75.3614827,130.225357 C75.3128328,130.677258 74.903295,131.009339 74.4377146,130.974412 C72.9481384,131.139203 71.48743,130.56805 70.1017778,130.008132 L67.407454,128.918258 C67.0918332,128.790918 66.7742879,128.661706 66.4721388,128.504405 C65.8990379,128.203104 65.3902225,127.798254 64.97294,127.311536 C64.8847116,127.224658 64.8227859,127.115808 64.7939599,126.996933 C64.7439225,126.667349 65.140373,126.470723 65.3924847,126.247879 C65.4663246,126.179967 65.5309934,126.103198 65.5849364,126.019417 C66.3278,126.174846 67.2496436,126.629897 67.8173761,126.805924 C68.38604,126.95662 68.932076,127.178841 69.4416685,127.466965 C70.1498907,127.908907 70.6598877,128.590546 71.260337,129.152337 C71.8607863,129.714128 72.6363667,130.225357 73.4735315,130.15607 C73.9161619,130.09115 74.3427798,129.947699 74.7321657,129.732854 L75.4692557,129.393907 Z" id="Path" fill="#000000" fill-rule="nonzero" opacity="0.1"></path>
                        <path d="M72.2099506,102.279127 C72.3135235,102.637697 72.1817183,103.022383 71.8793575,103.243995 C71.6246063,103.400304 71.2959579,103.379077 71.0431514,103.548894 C70.7300603,103.766954 70.685333,104.199215 70.6308823,104.573584 C70.4364158,105.860719 69.7927315,107.02821 69.2423912,108.211139 C68.6920509,109.394068 68.2272759,110.685062 68.4295211,111.970267 C68.5675923,112.842508 68.999308,113.772641 68.5948176,114.558044 C68.4956397,114.751018 68.3478451,114.922764 68.2350545,115.109949 C67.6808249,116.028504 67.9958607,117.192135 67.9744694,118.261209 C67.9825574,118.379913 67.9562405,118.498434 67.8986274,118.602773 C67.8136113,118.701379 67.7090132,118.781525 67.5913703,118.838201 C67.1914127,119.129993 66.9472937,119.586777 66.9282394,120.079022 C66.9118527,120.564949 66.9708829,121.050487 67.1032593,121.518606 C67.1246797,121.707553 67.2088283,121.884063 67.3424531,122.020337 C67.4972723,122.121887 67.6800872,122.173141 67.8655681,122.166997 C69.0873078,122.265235 70.285735,122.554401 71.4165271,123.023801 C72.1535553,123.328699 72.8691922,123.710787 73.6528924,123.857447 C73.8060522,123.904646 73.9720382,123.887198 74.1118334,123.809203 C74.2103773,123.720949 74.2784164,123.604144 74.3062999,123.475359 C74.6077231,122.491193 74.9130355,121.476151 74.8099683,120.453391 C74.765241,120.013411 74.6466164,119.583079 74.6155017,119.143099 C74.4793752,117.406336 75.6636764,115.839389 76.0389968,114.125783 C76.2081827,113.353888 76.2081827,112.554977 76.328752,111.775363 C76.6554558,109.639144 77.8417017,107.722915 78.298698,105.609853 C78.3623047,105.215945 78.4612272,104.828459 78.5942872,104.452011 C78.9346036,103.633802 79.7221931,102.969973 79.7396951,102.084223 C79.7505024,101.889373 79.698757,101.696142 79.5919005,101.532319 C79.4085689,101.332636 79.1650047,101.197233 78.897655,101.146371 C77.8411531,100.857955 76.765766,100.642594 75.6792337,100.501839 C75.1812537,100.40475 74.6730056,100.369744 74.166284,100.397633 C73.5082534,100.474409 72.8757786,100.695922 72.3149626,101.046025 C71.5643217,101.505302 72.0465987,101.615297 72.2099506,102.279127 Z" id="Path" fill="#454B69" fill-rule="nonzero"></path>
                        <path d="M72.2099506,102.279127 C72.3135235,102.637697 72.1817183,103.022383 71.8793575,103.243995 C71.6246063,103.400304 71.2959579,103.379077 71.0431514,103.548894 C70.7300603,103.766954 70.685333,104.199215 70.6308823,104.573584 C70.4364158,105.860719 69.7927315,107.02821 69.2423912,108.211139 C68.6920509,109.394068 68.2272759,110.685062 68.4295211,111.970267 C68.5675923,112.842508 68.999308,113.772641 68.5948176,114.558044 C68.4956397,114.751018 68.3478451,114.922764 68.2350545,115.109949 C67.6808249,116.028504 67.9958607,117.192135 67.9744694,118.261209 C67.9825574,118.379913 67.9562405,118.498434 67.8986274,118.602773 C67.8136113,118.701379 67.7090132,118.781525 67.5913703,118.838201 C67.1914127,119.129993 66.9472937,119.586777 66.9282394,120.079022 C66.9118527,120.564949 66.9708829,121.050487 67.1032593,121.518606 C67.1246797,121.707553 67.2088283,121.884063 67.3424531,122.020337 C67.4972723,122.121887 67.6800872,122.173141 67.8655681,122.166997 C69.0873078,122.265235 70.285735,122.554401 71.4165271,123.023801 C72.1535553,123.328699 72.8691922,123.710787 73.6528924,123.857447 C73.8060522,123.904646 73.9720382,123.887198 74.1118334,123.809203 C74.2103773,123.720949 74.2784164,123.604144 74.3062999,123.475359 C74.6077231,122.491193 74.9130355,121.476151 74.8099683,120.453391 C74.765241,120.013411 74.6466164,119.583079 74.6155017,119.143099 C74.4793752,117.406336 75.6636764,115.839389 76.0389968,114.125783 C76.2081827,113.353888 76.2081827,112.554977 76.328752,111.775363 C76.6554558,109.639144 77.8417017,107.722915 78.298698,105.609853 C78.3623047,105.215945 78.4612272,104.828459 78.5942872,104.452011 C78.9346036,103.633802 79.7221931,102.969973 79.7396951,102.084223 C79.7505024,101.889373 79.698757,101.696142 79.5919005,101.532319 C79.4085689,101.332636 79.1650047,101.197233 78.897655,101.146371 C77.8411531,100.857955 76.765766,100.642594 75.6792337,100.501839 C75.1812537,100.40475 74.6730056,100.369744 74.166284,100.397633 C73.5082534,100.474409 72.8757786,100.695922 72.3149626,101.046025 C71.5643217,101.505302 72.0465987,101.615297 72.2099506,102.279127 Z" id="Path" fill="#000000" fill-rule="nonzero" opacity="0.05"></path>
                        <polygon id="Path" fill="#565661" fill-rule="nonzero" points="68.3495146 131.71521 66.6741658 131.71521 65.5782167 109.282875 65.5016181 108.007065 66.9255663 107.508091 67.0218056 108.864128"></polygon>
                        <polygon id="Path" fill="#000000" fill-rule="nonzero" opacity="0.1" points="66.9255663 108.596069 65.5733675 108.932039 65.5016181 107.908429 66.8354198 107.508091"></polygon>
                        <polygon id="Path" fill="#565661" fill-rule="nonzero" points="88.9967638 135.82653 86.2519181 136.157275 73.6065097 107.536219 70.1964242 107.287188 64.2073153 109.030405 63.042658 143.106796 60.2978123 143.106796 61.3785831 107.78525 54.8061702 107.952567 43.0776612 137.06974 40.5825243 137.06974 52.9177476 103.040042 53.3937549 101.728738 71.7766126 101.100324 76.3591588 103.662619 76.4176842 103.810481"></polygon>
                        <path d="M76.1812298,103.775087 C72.2315643,104.946376 68.1317141,106.225193 68.1317141,106.225193 C68.1317141,106.225193 64.3926975,107.509771 62.8089304,106.225193 C62.6092198,106.071811 62.3860411,105.950614 62.1477271,105.866126 C62.3532425,106.010646 62.5751343,106.131145 62.8089304,106.225193 L52.6860841,103.012789 L53.160044,101.720531 L71.5411043,101.100324 L76.1227162,103.629156 L76.1812298,103.775087 Z" id="Path" fill="#000000" fill-rule="nonzero" opacity="0.1"></path>
                        <path d="M57.672091,98.5007347 L65.0564599,96.828479 C65.0564599,96.828479 82.7004249,100.17299 84.012945,101.510011 C84.012945,101.510011 69.8985428,104.434988 68.3396846,105.430892 C66.7808264,106.426796 57.5065826,107.528563 57.672091,98.5007347 Z" id="Path" fill="#FFFFFF" fill-rule="nonzero"></path>
                        <path d="M54.4319879,79.7117605 C53.835723,81.5553093 52.2079199,83.2166355 50.226333,83.2961156 C50.082148,83.3125837 49.9361953,83.2869466 49.8069601,83.2224511 C49.5585164,83.0712453 49.5525537,82.716493 49.6539187,82.4470363 C49.7552838,82.1775797 49.9321757,81.9352625 49.9600014,81.6522361 C49.965936,81.5944803 49.9619051,81.5361627 49.9480761,81.4797063 C49.8963998,81.2490204 49.7036075,81.0435355 49.4770268,81.0919989 C49.7966953,80.8424937 49.8698112,80.3969982 49.6459685,80.0626358 C49.5560181,79.9635816 49.4748969,79.8572225 49.4034875,79.7447157 C49.2385209,79.4151644 49.4949148,79.0449038 49.6022425,78.6920901 C49.8228605,77.9166752 49.2623715,77.1412604 49.2166578,76.3328905 C49.1769069,75.6098162 49.5525537,74.9293896 49.6459685,74.2121309 C49.7950348,73.0490087 49.202745,71.9343499 49.1331808,70.7731662 C49.0854796,69.9628577 49.2901972,69.1603034 49.5187654,68.379073 C49.7175203,67.6811996 49.9421134,66.9755721 49.9560263,66.2466822 C49.9560263,65.7174616 49.8626114,65.1940566 49.8367733,64.6667745 C49.7955375,64.1847505 49.8853462,63.7006433 50.0971423,63.2632737 C50.2347487,63.0061032 50.4690959,62.8108824 50.7510461,62.7185448 C51.4029624,62.5053057 51.8302855,62.8367955 51.9256879,63.4396806 C52.0846919,64.4651667 51.9932646,65.5119767 52.2019573,66.5413398 C52.3949121,67.5039623 52.687246,68.4450698 53.0744915,69.35028 C53.4262878,70.1683427 53.853611,70.9592658 54.1239177,71.8064065 C54.3274201,72.5046646 54.4729811,73.2177631 54.559191,73.9387972 C54.8255227,75.8753957 55.0342154,77.8682118 54.4319879,79.7117605 Z" id="Path" fill="#ED6E52" fill-rule="nonzero"></path>
                        <path d="M98.5406312,126.765732 C98.0495318,127.438176 97.2863023,127.875014 96.4427891,127.966443 C95.6097941,128.067124 94.7441703,127.863898 93.9361269,128.085768 C93.6819694,128.126412 93.4657299,128.288155 93.3603239,128.516458 C93.3403227,128.668035 93.3281516,128.82049 93.3238564,128.97325 C93.2298085,129.47106 92.5561191,129.582928 92.0321384,129.579199 L89.8709579,129.566148 C89.4218316,129.566148 88.9247217,129.54191 88.602272,129.239868 C88.2851653,128.898697 88.2769603,128.382213 88.5830786,128.031699 C88.6501192,127.95454 88.7323372,127.891154 88.8249159,127.845253 C88.5497137,127.75679 88.3492681,127.525297 88.3066932,127.246762 C88.2673948,126.972636 88.2810638,126.693795 88.3469994,126.424536 C88.3469994,125.645193 88.5389337,124.340072 89.1032206,123.730395 C89.7961035,122.97156 90.9976124,121.990855 92.0436544,121.78763 C92.7599372,121.654211 93.498944,121.858231 94.0359327,122.337645 C94.5311233,122.785114 94.8919598,123.486151 95.5714073,123.564458 C95.9418405,123.609205 96.2988384,123.439539 96.6654329,123.378012 C97.519151,123.271263 98.3497623,123.697458 98.7402429,124.442618 C98.8332525,124.626979 98.8979189,124.823597 98.9321773,125.026193 C99.033592,125.633295 98.8936223,126.255145 98.5406312,126.765732 L98.5406312,126.765732 Z" id="Path" fill="#A26565" fill-rule="nonzero"></path>
                        <path d="M98.5453668,126.498307 C98.0504667,127.234666 97.2813303,127.713025 96.431289,127.813144 C95.5918474,127.923395 94.7195243,127.700852 93.9052272,127.943811 C93.6491027,127.988318 93.4311897,128.165434 93.324968,128.415437 C93.304812,128.581422 93.2925467,128.748367 93.2882182,128.915647 C93.1934425,129.460773 92.5145392,129.583274 91.9865033,129.57919 L89.808597,129.564899 C89.3559948,129.564899 88.8550377,129.538357 88.5300925,129.207606 C88.2105317,128.834007 88.2022631,128.268432 88.5107506,127.884603 C89.7679789,127.829478 91.0039311,127.884603 92.257291,127.611019 C92.7659849,127.50281 93.266942,127.359893 93.7814386,127.284351 C94.8955363,127.116934 96.0811993,127.259851 97.1043897,126.761683 C97.9573708,126.353349 98.5685772,125.522388 98.9302721,124.595469 C99.0347885,125.258311 98.8972352,125.938327 98.5453668,126.498307 L98.5453668,126.498307 Z" id="Path" fill="#000000" fill-rule="nonzero" opacity="0.1"></path>
                        <path d="M93.2177287,123.471227 C92.4335943,124.072097 91.5141967,124.541163 90.5261874,124.591559 C89.538178,124.641954 88.4893982,124.203901 88.0051952,123.354929 C87.2975139,122.108608 87.9248215,120.375776 87.0583529,119.232185 C86.7878266,118.873601 86.3977197,118.619685 86.1115106,118.272731 C85.8253016,117.925777 85.6606333,117.404377 85.915477,117.036101 C85.6077043,117.152399 85.2822885,116.857779 85.192113,116.543776 C85.1019376,116.229772 85.1587873,115.89251 85.1038979,115.57463 C84.9607934,114.731474 84.1237299,114.190691 83.721861,113.44251 C83.3199921,112.69433 83.3748815,111.723246 83.3297938,110.837448 C83.2295882,108.679296 82.41709,106.613024 81.0165973,104.954735 C80.7499916,104.640732 80.4088931,104.320914 79.9933019,104.33642 C80.0658343,103.627006 79.5875123,102.948604 78.9680461,102.591959 C78.3485799,102.235313 77.6114936,102.115139 76.8940106,102.045361 C69.6544896,101.339823 62.1111166,104.001096 55.1989717,101.76237 C53.2758821,101.140179 51.4214042,100.099317 50.2452026,98.4672758 C49.3196036,97.2124581 48.9456637,95.6412603 49.2081848,94.1099981 L49.2081848,94.082862 C49.4806715,92.7066756 50.2157975,92.3674747 51.4331662,91.7394685 C52.8385323,91.0048355 54.3074277,90.3957324 55.8223586,89.9194134 C58.7628626,89.010355 61.9288053,88.6827839 64.9634055,89.3495559 C66.3807285,89.663559 67.7470827,90.183021 69.166366,90.4873326 C69.7250617,90.6075066 70.2876782,90.6927914 70.8542153,90.7645082 C71.7344062,90.8730525 72.6185177,90.9447692 73.5045896,91.0455604 C76.3378043,91.368128 79.1281255,91.9886626 81.8281764,92.8966281 C82.8338288,93.2338906 83.8394812,93.6196105 84.7039894,94.2301721 C86.0852912,95.2220697 87.0062103,96.720588 87.2602675,98.3897441 C87.3426017,98.9596016 87.344562,99.5527186 87.4700235,100.105131 C87.5889112,100.569404 87.74627,101.023205 87.9405041,101.461935 C89.6155253,105.556822 90.984251,109.767769 92.0356461,114.060825 C92.0952683,114.379722 92.205772,114.687224 92.3630222,114.971822 C92.6139453,115.373048 93.0452192,115.64247 93.2981025,116.043697 C93.8862033,116.989582 93.3196662,118.309558 93.8411156,119.29421 C94.0214665,119.635349 94.3213979,119.904772 94.5017489,120.245911 C95.0898497,121.364305 94.2214208,122.701725 93.2177287,123.471227 Z" id="Path" fill="#454B69" fill-rule="nonzero"></path>
                        <path d="M83.0741033,101.584391 C83.3441276,101.350336 83.577095,101.06914 83.7636425,100.752105 C83.9508186,100.433481 84.0251378,100.050868 83.9725938,99.6763754 C84.1227916,100.636993 83.8486898,101.618763 83.2336661,102.323045 C82.7568773,102.857788 81.862186,103.382128 81.1650485,103.199026 C81.2638255,102.587295 82.6315065,101.996372 83.0741033,101.584391 Z" id="Path" fill="#000000" fill-rule="nonzero" opacity="0.1"></path>
                        <path d="M71.1778715,91.4839453 C71.0598457,91.8967371 70.7386142,92.2231556 70.3234374,92.352176 C69.9130942,92.4757176 69.4834594,92.525169 69.0552571,92.4981449 L68.6703769,92.4981449 C63.6207484,92.3881943 58.5172367,91.2848967 53.5849966,92.3370104 C52.9905617,92.457718 52.4073739,92.6270213 51.8414892,92.8431624 C51.1205213,93.1230849 50.4454716,93.5063598 49.8381877,93.9805825 L49.8381877,93.9540427 C50.1056795,92.6080955 50.8273299,92.276348 52.022383,91.6621411 C53.4007342,90.9498147 54.8407418,90.3598174 56.3253438,89.8991398 C59.2119455,89.0100564 62.3198532,88.689683 65.2988261,89.3418039 C66.6901681,89.6489074 68.0314757,90.1569551 69.4247421,90.45458 C69.9731964,90.5721134 70.5254995,90.6555242 71.0816514,90.7256651 C71.1895187,90.9633865 71.2230178,91.2273825 71.1778715,91.4839453 Z" id="Path" fill="#000000" fill-rule="nonzero" opacity="0.1"></path>
                        <path d="M71.1815467,91.4188459 C71.063563,91.8311199 70.7398235,92.1573476 70.321024,92.2859824 C69.9078403,92.4094119 69.4749673,92.4580733 69.0438068,92.4295606 L68.656184,92.4295606 C63.5705725,92.3199878 58.4306938,91.2204814 53.4633072,92.2689798 C52.8649119,92.3895106 52.2776409,92.5575795 51.7073758,92.7715033 C50.9469864,93.0670766 50.237747,93.4748684 49.6045219,93.9805825 C49.4559332,93.5825939 49.3079905,93.1839756 49.1606938,92.7847276 C48.9823873,92.3086527 49.5483166,92.2028582 49.656851,91.7759021 C49.7285612,91.4868566 49.60646,91.1581382 49.5444404,90.8502009 C49.5285303,90.7748211 49.5181673,90.6984293 49.5134306,90.6216093 C49.4785445,89.9396131 49.7285612,89.5466623 50.302243,89.178271 C52.0039072,88.082543 54.0796275,87.3306468 56.0216179,86.7657801 C57.0540455,86.447628 58.1205293,86.2460547 59.2001251,86.1650189 C60.727359,86.0781163 62.2526549,86.3539375 63.7391884,86.703437 C65.56683,87.1436174 67.3750905,87.7254868 68.995354,88.6568556 C69.7899808,89.1083711 70.5652264,89.675127 70.9935497,90.4799204 C71.1644837,90.7627457 71.2308343,91.0941248 71.1815467,91.4188459 L71.1815467,91.4188459 Z" id="Path" fill="#A26565" fill-rule="nonzero"></path>
                        <path d="M54.4508956,79.7094001 C53.8825986,81.5541612 52.3311478,83.2165801 50.4425073,83.2961124 C50.3050853,83.3125914 50.1659786,83.2869374 50.0428051,83.2223995 C49.8060147,83.0710942 49.8003317,82.7161086 49.8969422,82.4464747 C49.9935527,82.1768409 50.1621475,81.9343644 50.188668,81.6511518 C50.1943242,81.593358 50.1904824,81.5350021 50.1773021,81.4785086 C51.1793991,80.0314089 52.151187,78.5687907 52.5357347,76.8559368 C52.6135791,76.561005 52.6373441,76.2538492 52.6058247,75.9500446 C52.5546779,75.6008784 52.3822945,75.2846891 52.2875783,74.9471618 C52.1208779,74.3496997 52.1985451,73.717321 52.2459032,73.098521 C52.443155,70.3737271 51.9988011,67.6402559 50.950186,65.1278338 C50.6944524,64.5226125 50.4027266,63.9096319 50.3136934,63.2636746 C50.4448453,63.006335 50.6682004,62.8109857 50.9369257,62.7185874 C51.5582638,62.5052081 51.9655433,62.8369159 52.0564709,63.4401974 C52.2080167,64.466358 52.1208779,65.5138564 52.3197818,66.5438965 C52.5036861,67.5071521 52.782308,68.4488785 53.1513898,69.354684 C53.486685,70.1732847 53.8939646,70.9647279 54.1515925,71.8124257 C54.3455497,72.5111431 54.4842831,73.2247105 54.5664494,73.9462189 C54.8259717,75.8705123 55.0248756,77.864639 54.4508956,79.7094001 Z" id="Path" fill="#000000" fill-rule="nonzero" opacity="0.1"></path>
                        <path d="M71.1812615,91.5199482 C71.0611564,91.9395298 70.7315959,92.27154 70.3052664,92.4024549 C69.8846535,92.5280722 69.4439973,92.5775961 69.0050845,92.548578 L68.6104921,92.548578 C66.9252329,91.4578108 64.8991946,90.9812324 62.8889025,91.2027073 C62.2457169,91.2776915 61.6025313,91.4238146 60.9593457,91.3661344 C59.6591638,91.2507741 58.6056022,90.3394273 57.4474735,89.7568575 C54.7515276,88.4596089 51.5173895,88.8871389 49.2734922,90.8373995 L49.1610334,90.9335331 C49.1448373,90.8568172 49.134288,90.7790713 49.129466,90.7008897 C49.0939527,90.0068049 49.3484648,89.606889 49.9324615,89.2319679 C51.6647221,88.1168178 53.7777643,87.3515941 55.7546722,86.7767151 C56.8056631,86.4529236 57.8913225,86.2477774 58.9903297,86.1653052 C60.5450237,86.0768622 62.0977448,86.3575724 63.6110066,86.7132669 C65.4715097,87.1612496 67.3122831,87.7534327 68.9616793,88.7013103 C69.7646748,89.1685197 70.5538596,89.7453215 70.9898842,90.56438 C71.1638917,90.8522184 71.2314353,91.1894713 71.1812615,91.5199482 L71.1812615,91.5199482 Z" id="Path" fill="#000000" fill-rule="nonzero" opacity="0.1"></path>
                        <path d="M75.7918368,70.3370965 L75.7643616,70.4070845 C75.3247579,71.5366131 74.5162011,72.4911717 73.9980968,73.5915386 C73.3445789,74.9854664 73.1836525,76.5485318 73.0384263,78.0804914 C72.9128252,79.3927665 72.7891867,80.712818 72.889275,82.0289813 C73.1404771,85.2717588 74.739928,88.3473427 75.1677566,91.5279087 C75.2731784,92.2624647 75.3001485,93.0059825 75.2482198,93.7461396 C75.2128945,94.2146704 75.1265437,94.7181952 74.8125411,95.064247 C74.4985385,95.4102988 73.8881959,95.5463866 73.5506431,95.2139435 C73.7017568,94.9281592 73.8548331,94.644319 74.0079094,94.3585346 C73.1110394,93.6683751 71.7608281,94.1641235 70.7128443,93.7325308 C70.251653,93.5381197 69.8826999,93.1881797 69.4960842,92.8751777 C67.713539,91.4394468 65.421885,90.7764109 63.1394935,91.0360485 C62.4997132,91.113813 61.8599328,91.2615654 61.2201525,91.2032421 C59.9268542,91.0846513 58.8788704,90.1650867 57.7268733,89.576021 C55.0454077,88.264889 51.829085,88.696324 49.5961678,90.6666674 C49.3214155,90.9194019 48.9524624,91.2149068 48.6149096,91.0554897 C48.4844424,90.976366 48.3790407,90.8625219 48.3107195,90.7269349 C47.0252713,88.5514744 47.9712042,85.7461219 49.3449657,83.6270407 C50.7187272,81.5079595 52.5379799,79.5541277 53.1031846,77.0987153 C53.1847905,76.8032952 53.2094253,76.4952796 53.1757977,76.1908153 C53.1228098,75.8408753 52.9442208,75.5239852 52.846095,75.1857098 C52.6733935,74.5869236 52.7538567,73.9531433 52.8029196,73.3329718 C53.0088258,70.6018065 52.5498177,67.8615853 51.4644834,65.3426748 C51.1504808,64.6175213 50.7776027,63.8826472 50.7776027,63.0952822 C50.7776027,61.8549392 51.6744727,60.8265044 52.4163039,59.8291754 C53.2699985,58.6821498 53.986317,57.4126451 55.0676635,56.4697512 C56.0920971,55.5735159 57.5757595,55.0252766 58.8435451,55.4801986 C60.9977747,54.9621182 63.2150825,54.7480956 65.4297502,54.8444742 C66.1951316,54.8794682 66.9860257,54.9591768 67.6572063,55.3266138 C68.3754873,55.715436 68.8916291,56.4075396 69.598135,56.8216353 C70.1142768,57.1268608 70.7089193,57.270725 71.270199,57.4845772 C72.8200562,58.0842126 74.0994586,59.2176968 74.8733791,60.6768079 C75.6583857,62.183494 75.8546373,63.9156971 76.0273388,65.6031857 C76.1921902,67.1915245 76.3491915,68.8420749 75.7918368,70.3370965 Z" id="Path" fill="#ED6E52" fill-rule="nonzero"></path>
                        <path d="M72.6032599,81.5865897 C72.8529859,84.8454699 74.443038,87.9363263 74.8683525,91.1326861 C74.0177235,90.4117468 72.8334761,89.6868999 72.6754464,88.8487347 C72.4998578,87.9421876 71.9379743,86.7542985 71.8443271,85.8379826 C71.7506799,84.9216668 72.3925537,83.8021594 71.7194641,83.173047 C71.3916988,82.8663059 72.2637887,82.9522715 71.9438273,82.6377153 C71.2239141,81.9363137 71.0463746,80.8558816 71.0015019,79.8536 C70.9254136,78.0795813 71.1497767,76.2860249 70.8239624,74.5413127 C70.628864,73.4647881 70.2211083,72.4390614 69.8952939,71.3937971 C69.516803,70.1766014 69.2436652,68.9300993 68.9705274,67.6816434 C68.7017015,66.5716664 68.5061798,65.4451614 68.3852322,64.3094448 C68.3013399,63.3325622 68.3403596,62.2970667 68.775429,61.4061498 C69.2104985,60.5152329 70.0903923,59.7923398 71.0775903,59.8058252 C74.3786555,59.848999 73.8089681,64.3309362 74.5347343,66.4019272 C74.8254309,67.2264161 75.2175787,68.0235522 75.3756084,68.8832089 C75.4332506,69.2202093 75.4645613,69.5611982 75.4692557,69.9030743 C75.0322352,71.0382118 74.2284297,71.9975105 73.7133699,73.1033416 C73.0636922,74.5041911 72.9037115,76.0750183 72.7593387,77.6145852 C72.6266717,78.9372842 72.5037597,80.2638907 72.6032599,81.5865897 Z" id="Path" fill="#000000" fill-rule="nonzero" opacity="0.1"></path>
                        <path d="M74.315478,66.4079417 C74.5962991,67.2309945 74.9751249,68.0267422 75.127786,68.8849016 C75.3822213,70.3223184 74.9883178,71.849452 75.416146,73.2420105 C75.5275152,73.5392541 75.6206785,73.843463 75.6950824,74.1528296 C75.7685859,74.5955618 75.6837741,75.0480458 75.6837741,75.4985795 C75.6837741,76.2241142 75.9042847,76.9262445 76.100294,77.6225238 C76.7631453,79.9886634 77.2018377,82.4159591 77.4101643,84.8700694 C77.4412857,85.5295257 77.5417684,86.1835077 77.7098324,86.8204315 C77.7889855,87.0362616 77.8569318,87.2563165 77.9133806,87.4796539 C77.9639898,87.7776814 77.9760321,88.081355 77.94919,88.3826716 C77.898303,89.338349 77.7946442,90.2979272 77.898303,91.2497039 C78.0019618,92.2014806 78.3374393,93.1669098 79.0291262,93.8046782 C78.4109428,93.9431539 77.7569501,94.0816297 77.1538443,93.8768416 C76.3057269,93.5901384 75.7968564,92.7066244 75.3652589,91.9030752 C74.8186943,90.8771847 72.741749,89.9527131 72.5268926,88.8000491 C72.3591538,87.8970314 71.8163586,86.7112112 71.7258928,85.7945411 C71.6354269,84.8778709 72.2536103,83.7642141 71.6033869,83.1361975 C71.2886411,82.8299906 72.1311044,82.9138562 71.820128,82.6017983 C71.1265564,81.9016183 70.9550483,80.823068 70.9117,79.8205819 C70.8381965,78.0516035 71.0530529,76.2611711 70.7401918,74.5194977 C70.5517213,73.4448482 70.1578179,72.4209081 69.8430721,71.375514 C69.4774392,70.1623888 69.2135805,68.9180577 68.9497217,67.669826 C68.6892773,66.5619441 68.5003891,65.4373495 68.3843101,64.303501 C68.3032677,63.3283199 68.3390772,62.2926776 68.7612512,61.4033125 C69.1834252,60.5139474 70.0334273,59.7942638 70.9852035,59.8058252 C74.1609321,59.8644768 73.6143676,64.3405579 74.315478,66.4079417 Z" id="Path" fill="#ED6E52" fill-rule="nonzero"></path>
                        <path d="M65.0318677,67.5380162 C65.3430552,67.901832 65.742872,68.3010461 66.2135922,68.2302495 C66.1392479,68.347898 65.9843389,68.3846007 65.8649835,68.3128456 C65.7519902,68.2380861 65.6614518,68.1340899 65.6030346,68.0119601 L64.9294516,66.8772481 C64.8408222,66.7297552 64.2302645,65.8703633 64.0805794,66.3659394 C64.0214932,66.5763626 64.880213,67.3610248 65.0318677,67.5380162 Z" id="Path" fill="#000000" fill-rule="nonzero" opacity="0.1"></path>
                        <path d="M64.789644,70.4854369 C64.7708568,70.0863771 64.6189282,69.7092469 64.3633008,69.4271308 C64.1334981,69.1963755 63.8653094,69.0173658 63.5737054,68.9000944 C62.8567605,68.5741362 62.0078977,68.3116763 61.2297735,68.3540085 C61.5127277,68.8111967 62.420858,69.0842397 62.875879,69.3424664 C63.5208108,69.7107569 64.1587325,70.091747 64.789644,70.4854369 Z" id="Path" fill="#000000" fill-rule="nonzero" opacity="0.1"></path>
                        <path d="M67.1236235,77.7194215 C66.9943377,78.7382838 66.2092542,79.5103903 65.4148021,80.10738 C64.62035,80.7043696 63.7284652,81.2177806 63.2094481,82.0814256 C62.8496963,82.6784152 62.6885574,83.3709231 62.383143,83.9937823 C62.0458757,84.6803203 61.5418483,85.2574103 61.1390011,85.902159 C60.736154,86.5469078 60.4213711,87.3170244 60.5450358,88.0811711 C60.5486245,88.1522484 60.5798397,88.2185524 60.6312264,88.2642479 C60.7097228,88.299458 60.7997972,88.2889125 60.8691872,88.2363884 C61.6861238,87.7826763 62.0084015,86.7459043 62.35129,85.84843 C62.7112508,84.9425397 63.1165499,84.0577327 63.5654526,83.1977961 C63.767813,82.7998031 63.9907843,82.3659906 64.3673995,82.1451045 C64.6252661,82.0310116 64.8893017,81.9333303 65.1581041,81.8525796 C65.5394025,81.6668664 65.8739154,81.3879704 66.1343059,81.0386837 C67.1571585,79.7427172 67.6912361,78.0899932 67.633272,76.4000745 C67.6220298,76.0438707 67.6032927,74.3285206 67.0992653,74.8578514 C66.5952379,75.3871821 67.2098141,77.0269136 67.1236235,77.7194215 Z" id="Path" fill="#000000" fill-rule="nonzero" opacity="0.1"></path>
                        <path d="M68.518695,39.8576499 C70.2087144,40.5883301 71.6629172,42.1958265 71.6098585,44.0176558 C71.5646603,45.9310636 69.9493161,47.7334081 70.5054504,49.5669282 C70.8277332,50.6307985 71.7985118,51.3439424 72.5668811,52.1525618 C75.492973,55.223367 75.4870775,60.5836369 72.55116,63.6485967 C71.4271006,64.817685 69.9827235,65.6496861 68.7938144,66.7661655 C64.6021731,70.6826112 64.4233455,77.4574779 66.6675341,82.7164267 C64.9480555,83.085159 63.1954532,83.2809981 61.4363343,83.3009709 C60.6129411,83.3009709 59.6048249,83.1626288 59.3061238,82.4007729 C59.0310043,81.6973714 59.5026377,80.746513 58.9602593,80.2262687 C58.7047913,79.9827086 58.3215892,79.9495844 57.9776899,79.8930785 C55.7649435,79.5384551 53.9491551,77.7867711 53.1198665,75.7233303 C52.2905779,73.6598894 52.3338109,71.3373007 52.8093745,69.1666934 C53.1473784,67.5981666 53.6760008,65.8718129 52.8919104,64.468907 C51.9093409,62.7035836 49.0834712,61.9592641 49.1267042,59.9406383 C49.1620767,58.2863784 51.1291808,57.4816559 52.2453797,56.2521647 C54.3048452,53.9880304 53.3242409,50.4749201 53.3203107,47.4235997 C53.3203107,44.7385935 54.2675076,41.9678543 56.2837401,40.1791492 C59.2825421,37.4960916 65.0580854,38.3670623 68.518695,39.8576499 Z" id="Path" fill="#A26565" fill-rule="nonzero"></path>
                        <g id="Group" opacity="0.1" transform="translate(49.126214, 43.430421)" fill="#000000" fill-rule="nonzero">
                            <path d="M4.14010228,18.9287391 C3.28116801,17.3808237 1.02524272,16.6146837 0.500881939,15.0921759 C0.238556308,15.44749 0.0911079872,15.8743515 0.0782628029,16.3156545 C0.0352182613,18.3404531 2.84485289,19.0870487 3.82705106,20.8597246 C4.14958483,21.4872815 4.28538024,22.1940049 4.21836508,22.8962498 C4.52750315,21.5359604 4.79946639,20.1170379 4.14010228,18.9287391 Z" id="Path"></path>
                            <path d="M21.5809679,3.48280982 C21.9331505,2.45672949 22.4438153,1.42087696 22.4692507,0.355707849 C22.4728121,0.240304139 22.4695455,0.124791042 22.4594679,0.00977219367 C22.0661973,1.18634431 21.4635737,2.32773653 21.5809679,3.48280982 Z" id="Path"></path>
                            <path d="M4.47663233,8.94937496 C5.14969243,6.82490006 4.56859112,4.19031664 4.56663455,1.83326353 C4.56663455,1.54791548 4.57837397,1.26061298 4.59989624,0.975264928 C4.36807306,1.88616289 4.25107732,2.82242235 4.25162484,3.76229456 C4.25553991,5.44506631 4.55098199,7.27051209 4.47663233,8.94937496 Z" id="Path"></path>
                            <path d="M23.719499,18.1137382 C22.6003409,19.2864014 21.1622619,20.1209468 19.978537,21.2408402 C17.8654413,23.2285043 16.7795449,25.9510375 16.5075817,28.8377435 C17.0123768,26.6878609 18.0317498,24.7080145 19.6654858,23.1698712 C20.8394279,22.0558411 22.2872897,21.2252046 23.4064478,20.0427692 C24.7376796,18.593558 25.5107627,16.7194018 25.5880234,14.754058 C25.2501262,16.0099502 24.6084736,17.1636666 23.719499,18.1137382 L23.719499,18.1137382 Z" id="Path"></path>
                            <path d="M12.6531387,37.8203439 C11.8333358,37.8203439 10.8296154,37.6796243 10.5322167,36.9154388 C10.2582969,36.2118409 10.7278737,35.2580748 10.1878604,34.7342852 C9.93350626,34.4899803 9.55001853,34.4567549 9.20957534,34.4000761 C7.008434,34.0463227 5.20056326,32.2873279 4.37489068,30.2195317 C3.76639739,28.6911606 3.6353072,27.0240244 3.78791966,25.378387 C3.7722671,25.4428834 3.75857111,25.5073799 3.74487512,25.5738308 C3.27921144,27.7510756 3.23029719,30.082721 4.05401319,32.1524716 C4.87772919,34.2222222 6.68755651,35.9792626 8.88869784,36.3330161 C9.23696732,36.3896948 9.62045505,36.4248747 9.86698288,36.6672251 C10.4128659,37.1910147 9.9374194,38.1447808 10.2113392,38.8483787 C10.5087379,39.6125642 11.5124583,39.763056 12.3322612,39.7532838 C14.0837021,39.7331305 15.8286504,39.5366939 17.5406507,39.1669522 C17.2991814,38.5967784 17.0882263,38.014185 16.9086786,37.4216384 C15.5035412,37.6711101 14.0802092,37.8044634 12.6531387,37.8203439 Z" id="Path"></path>
                        </g>
                        <path d="M68.3544018,72.5612861 C68.7837001,72.9236872 69.2494975,71.5422766 68.9835758,71.197411 C68.9123158,71.2870371 68.2883559,72.5106279 68.3544018,72.5612861 Z" id="Path" fill="#000000" fill-rule="nonzero" opacity="0.1"></path>
                        <path d="M69.7734628,97.5404531 C70.4265853,97.3514654 71.120107,97.1624776 71.5465444,96.7089071 C71.8989163,96.3441608 72.1884448,94.8965149 71.4433017,95.5900998 C70.8103789,96.1854111 70.5118727,96.9697102 69.7734628,97.5404531 Z" id="Path" fill="#000000" fill-rule="nonzero" opacity="0.1"></path>
                        <path d="M75.4515542,96.1616558 C75.3869278,96.6369405 75.2669072,97.1303505 74.9585468,97.4727165 C74.9013062,97.5371619 74.7738998,97.5774403 74.7572816,97.4908418 C75.1017071,97.2908616 75.4217945,97.0445869 75.71006,96.7577756 C76.3341668,96.083113 76.4191044,94.4216306 75.4681724,93.9805825 C75.4589401,94.7096209 75.5531101,95.420534 75.4515542,96.1616558 Z" id="Path" fill="#000000" fill-rule="nonzero" opacity="0.1"></path>
                        <path d="M82.5889968,93.049038 C82.5889968,93.049038 77.2174398,90.9299391 75.2755027,91.1485008 C73.3335656,91.3670626 77.4748506,94.4402311 77.4748506,94.4402311 L79.9505364,96.1165049 C79.9505364,96.1165049 81.4647174,95.5463437 81.5650319,95.5026314 C81.6653464,95.458919 82.5889968,93.049038 82.5889968,93.049038 Z" id="Path" fill="#454B69" fill-rule="nonzero"></path>
                        <path d="M44.8543689,69.9758802 C44.8543689,69.9758802 48.9769499,67.5721225 54.4182927,70.5593166 C59.8596356,73.5465107 60.766526,91.1254482 60.766526,91.1254482 C60.766526,91.1254482 58.5408737,109.034999 67.122494,105.050129 C67.122494,105.050129 82.7852079,100.158988 84.3534129,101.2364 C84.3534129,101.2364 85.8384703,101.2364 82.8702893,101.899573 C79.9021083,102.562746 68.4354548,106.217002 68.4354548,106.217002 C68.4354548,106.217002 64.7286125,107.52001 63.1584738,106.217002 C61.5883351,104.913994 57.1389642,106.384254 56.5607973,97.4265608 C56.1781753,91.7817144 55.4900587,86.1620254 54.4995068,80.5924771 L52.9699751,76.0319496 L44.8543689,69.9758802 Z" id="Path" fill="#565661" fill-rule="nonzero"></path>
                        <path d="M44.3231988,97.4956512 C44.3231988,97.4956512 46.161028,79.2353299 43.147615,72.6473 C40.5260633,66.9059953 50.6635136,69.5908766 53.308577,70.3730707 C53.7179283,70.4952179 54.0749646,70.7497466 54.3234976,71.0966002 C55.8909426,73.2965212 61.5141514,82.1138042 59.8565784,93.9112467 C59.8565784,93.9112467 59.188455,104.418069 63.3656958,106.084142 L50.4950133,101.946336 C49.4507031,101.609992 48.3907184,101.330358 47.3209373,101.087878 C45.9572601,100.778911 43.7354069,99.900898 44.3231988,97.4956512 Z" id="Path" fill="#FFFFFF" fill-rule="nonzero"></path>
                        <polygon id="Path" fill="#565661" fill-rule="nonzero" points="135.275081 131.71521 136.95043 131.71521 138.048343 109.282875 138.122977 108.007065 136.699029 107.508091 136.604754 108.864128"></polygon>
                        <polygon id="Path" fill="#000000" fill-rule="nonzero" opacity="0.1" points="136.699029 108.596069 138.052977 108.932039 138.122977 107.908429 136.78745 107.508091"></polygon>
                        <path d="M120.991084,122.702819 C120.949602,123.0005 120.869915,123.292124 120.753835,123.571064 C120.633953,123.935328 120.376622,124.243588 120.032201,124.435517 C119.800856,124.527132 119.552957,124.574157 119.302658,124.573905 C118.371454,124.626985 117.386868,124.613715 116.586151,124.15874 C116.245031,123.947994 115.932276,123.69777 115.654947,123.413718 C113.855594,121.699511 112.219948,119.834246 110.767606,117.840271 C110.524426,117.504727 110.273337,117.108519 110.382076,116.702833 C112.263447,116.20246 114.049939,115.418596 115.674718,114.380563 C115.898932,114.215622 116.150138,114.0875 116.4181,114.001417 C116.876857,113.90739 117.34919,113.890711 117.813918,113.952128 C118.262715,114.02227 118.282485,114.03554 118.454491,114.520847 C118.739191,115.341699 118.691741,116.227005 119.012028,117.047856 C119.215313,117.50147 119.462892,117.935631 119.751455,118.344535 C120.577875,119.669651 121.212517,121.233628 120.991084,122.702819 Z" id="Path" fill="#A26565" fill-rule="nonzero"></path>
                        <path d="M121.035599,122.686968 C120.993943,122.987142 120.913922,123.281209 120.797356,123.562484 C120.676973,123.929799 120.418565,124.240641 120.072702,124.434177 C119.840389,124.52656 119.591452,124.573978 119.340106,124.573724 C118.405004,124.627249 117.416297,124.613868 116.612228,124.155082 C116.26968,123.942571 115.955616,123.690252 115.677126,123.403821 C113.870242,121.675257 112.22775,119.794371 110.769329,117.783696 C110.525131,117.445341 110.272991,117.045816 110.382185,116.636732 C110.998513,116.472269 111.605529,116.27702 112.20077,116.05178 L112.23055,116.072808 C112.840054,116.49145 113.282788,117.091694 113.71361,117.680469 L115.103359,119.563402 C115.351087,119.933232 115.64367,120.273343 115.974929,120.576554 C116.385654,120.893935 116.839127,121.156298 117.322985,121.35649 C117.976167,121.660435 118.629349,121.964381 119.30834,122.209066 C119.747103,122.379199 120.489626,122.446106 121.035599,122.686968 Z" id="Path" fill="#000000" fill-rule="nonzero" opacity="0.1"></path>
                        <path d="M122.144929,102.498773 C122.010522,102.823581 121.847338,103.135659 121.657335,103.431261 C119.844555,106.482364 118.446145,109.76232 117.49914,113.184263 C117.229989,113.123661 117.07786,113.491182 117.07981,113.770733 C117.08176,114.050284 117.07981,114.402166 116.822361,114.503821 C116.746296,114.533145 116.66048,114.533145 116.586366,114.566378 C116.422534,114.640664 116.375725,114.849839 116.352321,115.02969 L116.122177,116.722634 C116.042212,117.309105 115.971998,117.944447 116.258703,118.462496 C116.456497,118.770407 116.713,119.036142 117.013497,119.244457 L120.820625,122.255005 C120.976655,122.378163 121.169742,122.509142 121.356978,122.44072 C121.78411,122.284328 121.405737,121.518007 121.747052,121.207178 C121.973296,120.994093 122.332164,121.154395 122.646174,121.128982 C123.055753,121.097703 123.365862,120.720407 123.469232,120.323562 C123.541793,119.91943 123.549036,119.506232 123.490686,119.099794 C123.464949,118.914339 123.486418,118.725373 123.553098,118.550467 C123.669444,118.36514 123.829538,118.211388 124.019237,118.102794 C125.36054,117.120957 126.128485,115.536094 126.069079,113.872388 C126.038103,113.622958 126.047322,113.370159 126.096384,113.123661 C126.175703,112.897988 126.295323,112.688664 126.449402,112.505912 C127.832216,110.631162 128.984887,108.59611 130.129755,106.564967 C130.788982,105.392027 131.45991,104.201492 131.690054,102.879979 C131.730509,102.780295 131.721809,102.667341 131.66657,102.575062 C131.61133,102.482782 131.51599,102.421934 131.4092,102.410802 C130.838069,102.232091 130.255527,102.092322 129.665567,101.992453 C127.873174,101.628842 126.143193,101.067785 124.39956,100.528232 C122.655926,99.9886796 122.669579,101.087334 122.144929,102.498773 Z" id="Path" fill="#454B69" fill-rule="nonzero"></path>
                        <polygon id="Path" fill="#565661" fill-rule="nonzero" points="113.915858 136.538504 116.662654 136.869249 129.306112 108.248193 132.716197 107.999162 138.707257 109.742379 139.869963 143.81877 142.614809 143.81877 141.534038 108.497224 148.106451 108.664542 159.83496 137.781714 162.330097 137.781714 149.994874 103.752016 149.520817 102.440712 131.136009 101.812298 126.553463 104.374593 126.494937 104.522455"></polygon>
                        <path d="M126.731392,104.487061 C130.681057,105.65835 134.780907,106.937167 134.780907,106.937167 C134.780907,106.937167 138.519924,108.221745 140.103691,106.937167 C140.303402,106.783785 140.52658,106.662588 140.764894,106.5781 C140.559379,106.72262 140.337487,106.843119 140.103691,106.937167 L150.226537,103.724763 L149.758429,102.432505 L131.377368,101.812298 L126.795757,104.34113 L126.731392,104.487061 Z" id="Path" fill="#000000" fill-rule="nonzero" opacity="0.1"></path>
                        <path d="M145.24053,98.5007347 L137.856161,96.828479 C137.856161,96.828479 120.212196,100.17299 118.899676,101.510011 C118.899676,101.510011 133.014079,104.434988 134.572937,105.430892 C136.131795,106.426796 145.406039,107.528563 145.24053,98.5007347 Z" id="Path" fill="#FFFFFF" fill-rule="nonzero"></path>
                        <path d="M117.991032,125.593634 C117.536387,126.46972 116.416502,126.716617 115.43242,126.730554 C114.066132,126.747663 112.709038,126.502403 111.433112,126.007783 C110.704892,125.725046 110.006194,125.360674 109.254356,125.153599 C108.134471,124.842987 106.89256,124.868871 105.908478,124.245656 C105.386575,123.893652 104.95538,123.420568 104.650822,122.86582 C104.593745,122.768256 104.538636,122.666709 104.487464,122.563172 C104.017073,121.637308 103.798607,120.56012 104.060373,119.560586 C104.322138,118.561051 105.272761,117.45997 106.374933,117.475899 C107.683761,117.49581 109.244515,118.123008 110.508076,118.447558 C112.082606,118.845779 113.657137,119.305724 115.048628,120.147962 C116.213781,120.856795 117.24313,121.87425 117.792248,123.116699 C117.897805,123.356366 117.984669,123.604018 118.052045,123.85739 C118.223276,124.430828 118.262639,125.069973 117.991032,125.593634 Z" id="Path" fill="#A26565" fill-rule="nonzero"></path>
                        <path d="M117.992468,125.565348 C117.543589,126.463214 116.43791,126.716249 115.466312,126.730534 C114.117355,126.748067 112.777476,126.49671 111.517736,125.989794 C110.798753,125.700028 110.108918,125.326597 109.366617,125.114374 C108.260938,124.79604 107.034781,124.822568 106.063182,124.183858 C105.5479,123.823104 105.122175,123.338258 104.82148,122.769719 C104.765127,122.669729 104.710717,122.565658 104.660194,122.459547 C104.854514,122.475872 105.033288,122.496278 105.130448,122.506481 C106.323571,122.626877 107.462284,123.083972 108.600997,123.428834 C110.181853,123.908357 111.814164,124.175762 113.458989,124.22467 C114.624907,124.259361 115.841349,124.169574 116.859584,123.571677 C117.16364,123.370247 117.479013,123.188301 117.803977,123.026835 C117.908195,123.27246 117.993957,123.526269 118.060479,123.78594 C118.221765,124.373635 118.260629,125.028669 117.992468,125.565348 Z" id="Path" fill="#000000" fill-rule="nonzero" opacity="0.1"></path>
                        <path d="M126.008783,88.3192649 C123.493798,87.9072153 120.932382,87.8066211 118.382574,87.7060268 L115.263993,87.5822185 C115.042186,87.5565131 114.817445,87.5836929 114.608162,87.6615332 C114.427808,87.7774581 114.256434,87.9067903 114.095492,88.0484342 C113.782086,88.2612298 113.381623,88.2844438 113.004376,88.3057234 C110.328247,88.4531502 107.6667,88.7984353 105.041546,89.3387491 C103.687323,89.6153834 102.280866,89.9771358 101.263264,90.9115018 C100.187625,91.9000339 99.7155812,93.4070134 99.6788237,94.8656303 C99.6420663,96.3242472 100.025118,97.7577155 100.42945,99.1582972 C100.944175,100.844305 101.228559,102.592165 101.274872,104.354378 C101.256697,104.843234 101.275451,105.332765 101.330975,105.818798 C101.421019,106.282795 101.557783,106.73649 101.739177,107.172952 L103.163045,110.974254 C103.288795,111.306989 103.412609,111.63779 103.549966,111.962787 C103.687323,112.287783 103.818876,112.543138 103.936887,112.84879 C104.111001,113.266643 104.248358,113.699972 104.385715,114.131367 L105.333671,117.10857 L105.457486,117.495471 C105.799911,118.567187 106.150074,119.658248 106.796232,120.579072 C107.442389,121.499897 108.44258,122.242747 109.566584,122.298848 C109.929248,122.28526 110.292409,122.294952 110.653832,122.327865 C110.9619,122.403067 111.260925,122.511385 111.545684,122.650927 C112.389703,123.001537 113.295711,123.178518 114.209634,123.171521 C115.051187,123.171521 115.9856,122.937234 116.442167,122.229205 C116.693665,121.842304 116.759442,121.366416 116.829088,120.909873 C116.950968,119.992917 117.068978,119.035337 116.757507,118.16481 C116.564047,117.644428 116.239033,117.197558 116.014619,116.684914 C115.701213,115.986557 115.598679,115.21469 115.395546,114.477643 C114.955933,112.89124 114.06147,111.468242 112.822523,110.38423 C112.382513,108.642177 112.05936,106.87268 111.855221,105.087555 C111.826864,104.692276 111.7482,104.302227 111.621134,103.926852 C111.394785,103.346501 110.936284,102.876416 110.744758,102.284457 C110.56484,101.735058 110.619009,101.10054 110.292061,100.626587 C113.014049,101.37524 115.708952,101.206938 118.535408,101.162444 C119.440513,101.165323 120.344968,101.113643 121.243854,101.007684 C121.662902,100.930852 122.087128,100.885586 122.512954,100.872269 C123.387395,100.872269 124.207667,101.25917 125.010528,101.599643 C127.279818,102.566895 129.670988,103.327156 132.135674,103.431619 C134.679678,103.538017 137.194663,102.940255 139.680629,102.348296 C140.77368,102.087138 141.909293,101.8047 142.775995,101.086999 C143.642698,100.369297 144.130218,99.0751134 143.596267,98.0904503 C143.190001,97.3495349 142.348448,96.9858479 141.562999,96.6763271 C139.388504,95.8174068 137.202401,94.9797661 135.107225,93.9409368 C131.90739,92.3817257 129.514285,88.8996165 126.008783,88.3192649 Z" id="Path" fill="#454B69" fill-rule="nonzero"></path>
                        <path d="M121.430978,79.7758017 C121.137158,80.4507312 120.64309,81.0025853 120.278153,81.6378131 C119.667667,82.683459 119.466216,83.9406184 119.716712,85.1414914 C119.983379,86.3445775 120.761079,87.3484074 121.822115,87.8590752 C122.289465,88.0565583 122.78101,88.182226 123.281861,88.2322715 C123.940618,88.3176303 124.642419,88.3354961 125.224446,87.9980313 C125.660044,87.7207501 126.017461,87.3244948 126.259369,86.8506511 C126.762794,85.957362 127.049129,84.950923 127.311135,83.9484542 C127.795845,82.0983533 128.20944,80.2006103 128.149553,78.2810313 C128.128967,77.6199974 128.00545,76.8755898 127.488924,76.4944532 C127.22231,76.3311335 126.926601,76.2283823 126.620562,76.19272 L124.152095,75.7242395 C123.67487,75.6329255 122.842066,75.2617143 122.428471,75.6269702 C122.014877,75.9922262 121.983062,77.0721134 121.911946,77.5783106 C121.799658,78.3266883 121.730413,79.0869766 121.430978,79.7758017 Z" id="Path" fill="#A1616A" fill-rule="nonzero"></path>
                        <path d="M152.867977,71.9491259 L152.22117,77.5038442 C152.087261,78.494573 152.010262,79.4925038 151.990569,80.4924824 C151.990569,81.0494908 152.007443,81.6679622 151.647481,82.0847582 C151.471409,82.274415 151.248574,82.4117889 151.002549,82.4823469 C150.217007,82.7320404 149.360223,82.509237 148.610302,82.1654284 C148.171598,81.9733565 147.723521,81.6948523 147.524792,81.2473248 C147.409321,80.9370709 147.361335,80.6047367 147.384182,80.2735205 C147.384182,76.9602808 147.689774,73.504908 149.378971,70.6814516 C149.523072,70.4044018 149.726196,70.1641359 149.973283,69.9784685 C150.441983,69.6711535 151.055043,69.7575859 151.585612,69.9246884 C151.911828,70.0264865 152.792984,70.1398089 153.001087,70.4375203 C153.20919,70.7352317 152.912972,71.5669028 152.867977,71.9491259 Z" id="Path" fill="#A1616A" fill-rule="nonzero"></path>
                        <circle id="Oval" fill="#A1616A" fill-rule="nonzero" cx="135.275081" cy="44.8543689" r="7.1197411"></circle>
                        <path d="M133.335197,55.4320754 C133.3094,55.9662808 133.157938,56.487943 132.892173,56.9579288 C136.543643,56.4238801 140.185842,55.8287973 143.81877,55.1726803 C142.613415,54.5778251 141.702117,53.5493307 141.2838,52.3117051 C141.086246,51.648053 140.978085,50.9628322 140.961962,50.2727835 C140.904314,49.1784865 140.92622,48.0816621 141.027521,46.9902913 C139.756063,47.1180815 138.552151,47.5758375 137.340292,47.9687448 C136.121856,48.364074 134.882428,48.697051 133.627235,48.9662715 C133.021306,49.095969 132.411403,49.2065934 131.799514,49.3095885 C131.084318,49.4316568 130.740627,49.4297494 131.237291,50.0324615 C132.570335,51.6422369 133.521943,53.2787147 133.335197,55.4320754 Z" id="Path" fill="#A1616A" fill-rule="nonzero"></path>
                        <path d="M135.306124,54.4349383 C134.388962,54.5729655 133.42739,54.7284891 132.695591,55.3000383 C132.41705,55.540908 132.152107,55.7972742 131.902005,56.067936 C130.448061,57.4890328 128.395549,58.060582 126.630737,59.0637092 C126.342905,59.2069574 126.087785,59.4088716 125.88156,59.6566429 C125.688473,59.9268651 125.589999,60.2709611 125.387258,60.5392393 C125.151692,60.8502864 124.779035,61.0446909 124.595602,61.3887869 C124.41217,61.7328828 124.452718,62.0983633 124.433409,62.4638437 C124.388999,63.2667342 124.087784,64.0287998 123.854149,64.7966976 C122.782518,68.4728864 123.369501,72.5728771 121.747573,76.0449413 C121.898281,76.4491143 122.206641,76.7736268 122.601016,76.94309 C123.009145,77.0911237 123.435167,77.1833174 123.867665,77.2172003 L127.46101,77.6662747 C127.97462,77.7304282 128.519125,77.7906936 128.988326,77.5749046 C128.559117,78.7662273 128.255588,79.9997087 128.082749,81.2549816 C127.995403,82.0222981 127.859972,82.7832888 127.677267,83.5334022 C127.182965,85.2441617 125.939486,86.6691466 124.466234,87.6431131 C124.280674,87.7409759 124.124128,87.8865179 124.01248,88.0649708 C123.819394,88.4537798 124.105162,88.8892458 124.307903,89.2702786 C124.896818,90.3744961 124.815721,91.7003348 124.807998,92.9522997 C124.800274,94.2042646 124.925781,95.5787043 125.794671,96.476853 C126.308282,97.0075773 127.011117,97.2952959 127.694644,97.5694063 L133.3154,99.8303305 C134.242983,100.227996 135.199674,100.552969 136.176945,100.802353 C137.65792,101.142561 139.196822,101.128952 140.716414,101.062855 C141.720465,101.020086 142.723229,100.955284 143.724706,100.86845 C144.123094,100.86711 144.514548,100.763393 144.861987,100.567123 C145.161064,100.329495 145.391152,100.015246 145.528136,99.6573105 C146.310137,97.9446069 146.572735,95.9461288 147.78532,94.5114237 C148.617524,93.5257929 149.909274,92.7384547 150.003887,91.449553 C150.048297,90.8080182 149.764459,90.1839797 149.760597,89.5405009 C149.760597,88.7492746 150.171872,87.9969292 150.146771,87.207647 C150.094638,85.9226334 148.891707,84.9428347 148.700551,83.6714294 C148.213973,80.4482029 149.839763,77.2288646 150.838021,74.128113 C151.017592,73.5740602 151.249296,72.9616861 151.778354,72.7245126 C152.307412,72.4873391 153.052726,72.611758 153.241951,72.0868659 C153.718876,70.7688035 153.832797,69.2232878 153.771009,67.8216314 C153.736253,67.0109647 153.450485,66.2177944 153.48331,65.4051836 C153.50648,64.8336344 153.687982,64.2776376 153.736253,63.7080324 C153.809626,62.8468205 153.583715,61.9914408 153.35008,61.1593896 C153.282569,60.8623331 153.181506,60.5740339 153.048865,60.3001217 C152.906217,60.0516576 152.737944,59.8190301 152.546839,59.6060977 L151.606507,58.4804957 C151.166269,57.9536596 150.70093,57.4073829 150.061813,57.1410488 C149.85521,56.6258769 149.194853,56.2701167 148.721791,55.9862861 C148.244958,55.7138493 147.752349,55.4704079 147.246608,55.2572693 L141.928999,52.8933107 C141.730227,52.7925471 141.517291,52.7230508 141.297606,52.687242 C140.973928,52.6763085 140.6523,52.7429388 140.359204,52.8816465 C138.737275,53.5290134 137.043905,54.1744363 135.306124,54.4349383 Z" id="Path" fill="#ED6E52" fill-rule="nonzero"></path>
                        <path d="M129.904817,45.8006285 C129.69962,45.0739618 129.175013,44.4466516 129.095645,43.6946587 C129.024019,43.0264371 129.316328,42.3796453 129.482808,41.7289571 C129.649289,41.078269 129.643481,40.2834164 129.130489,39.850923 C129.045313,39.7768926 128.936907,39.7106549 128.905934,39.6015575 C128.843988,39.4067407 129.039506,39.2294574 129.099516,39.0326924 C129.209858,38.6430588 128.731711,38.2125136 128.905934,37.8384654 C129.004661,37.6339077 129.252446,37.5618255 129.469257,37.4975359 C130.297788,37.2501186 131.137933,36.7007352 131.317964,35.8493857 C131.966463,36.1221292 132.65755,35.609761 133.155055,35.1129781 C133.652561,34.6161953 134.264279,34.0492784 134.949559,34.1992873 L134.796629,34.5129424 C135.853285,34.126878 137.00897,34.1138254 138.073969,34.4759272 L137.748752,34.4759272 C138.682911,34.4918493 139.588925,34.8003205 140.340812,35.3584473 C140.257572,35.3584473 140.249829,35.4831301 140.282738,35.5532641 C140.553752,36.1903151 141.250647,36.5273482 141.922376,36.6851498 C142.326962,36.7825582 142.766392,36.8526923 143.062573,37.1449175 C143.358753,37.4371427 143.36456,38.0469193 142.973525,38.1871875 C143.770957,38.4996346 144.526071,38.9120007 145.22101,39.4145334 C145.414592,39.5567496 145.633339,39.7496183 145.608174,39.9989838 C145.580479,40.1241827 145.540267,40.2462402 145.488153,40.3632912 C145.449505,40.5712364 145.463485,40.7856263 145.528805,40.986705 L145.743681,41.878966 C145.979851,42.8705836 146.165689,44.0648107 145.447501,44.7836847 C145.999497,45.8216999 145.809895,47.1011652 144.980968,47.9319244 C145.096179,48.2839848 145.05627,48.6688251 144.87131,48.9893585 C144.686349,49.309892 144.374,49.5355111 144.013059,49.6092972 C144.251165,49.9833455 144.032418,50.5171435 143.656869,50.7509237 C143.28132,50.9847039 142.80898,50.986652 142.371486,50.9457405 C141.933991,50.904829 141.490688,50.8054724 141.053193,50.8717101 C140.416309,50.9710667 139.792976,51.4074564 139.179321,51.2126395 C138.950586,51.1142115 138.730978,50.9955577 138.523079,50.8580729 C138.093327,50.6262409 137.593886,50.5736404 137.117675,50.4684393 C136.30584,50.2928616 135.535007,49.9621923 134.84696,49.4943553 C134.390874,49.2184474 134.027432,48.8112938 133.803554,48.3254544 C133.377674,47.2422729 134.093927,45.8220583 133.340894,44.9395382 C132.899527,44.4252218 132.024537,44.4174291 131.530904,44.8577151 C131.285055,45.0778581 131.252146,45.5415221 130.996618,45.7071164 C130.640166,45.7978778 130.271382,45.829464 129.904817,45.8006285 L129.904817,45.8006285 Z" id="Path" fill="#464353" fill-rule="nonzero"></path>
                        <path d="M119.838518,101.584391 C119.568494,101.350336 119.335526,101.06914 119.148979,100.752105 C118.961803,100.433481 118.887484,100.050868 118.940028,99.6763754 C118.78983,100.636993 119.063932,101.618763 119.678955,102.323045 C120.155744,102.857788 121.050435,103.382128 121.747573,103.199026 C121.648796,102.587295 120.281115,101.996372 119.838518,101.584391 Z" id="Path" fill="#000000" fill-rule="nonzero" opacity="0.1"></path>
                        <path d="M158.770227,70.6878543 C158.770227,70.6878543 154.647646,68.2840966 149.206303,71.2712907 C143.76496,74.2584848 142.858069,91.8374223 142.858069,91.8374223 C142.858069,91.8374223 145.083722,109.746974 136.502101,105.762103 C136.502101,105.762103 120.839388,100.870962 119.271183,101.948374 C119.271183,101.948374 117.786125,101.948374 120.754306,102.611547 C123.722487,103.27472 135.189141,106.928976 135.189141,106.928976 C135.189141,106.928976 138.895983,108.231984 140.466122,106.928976 C142.03626,105.625968 146.485631,107.096228 147.063798,98.1385349 C147.44642,92.4936886 148.134537,86.8739996 149.125089,81.3044512 L150.65462,76.7439237 L158.770227,70.6878543 Z" id="Path" fill="#565661" fill-rule="nonzero"></path>
                        <path d="M159.301397,98.2076253 C159.301397,98.2076253 157.463567,79.947304 160.47698,73.3592742 C163.098532,67.6179695 152.961082,70.3028507 150.316018,71.0850448 C149.906667,71.207192 149.549631,71.4617207 149.301098,71.8085744 C147.733653,74.0084953 142.110444,82.8257783 143.768017,94.6232208 C143.768017,94.6232208 144.436141,105.130043 140.2589,106.796117 L153.129582,102.65831 C154.173892,102.321966 155.233877,102.042332 156.303658,101.799852 C157.667335,101.490885 159.889189,100.612872 159.301397,98.2076253 Z" id="Path" fill="#FFFFFF" fill-rule="nonzero"></path>
                        <ellipse id="Oval" fill="#ED6E52" fill-rule="nonzero" opacity="0.1" cx="192.588997" cy="130.647249" rx="18.8673139" ry="3.2038835"></ellipse>
                        <rect id="Rectangle" fill="#535461" fill-rule="nonzero" x="191.521036" y="71.9093851" width="1.42394822" height="27.7669903"></rect>
                        <path d="M200.773095,99.4008311 L200.698069,100.635905 L200.59034,102.38365 L200.546094,103.109935 L200.440289,104.857681 L200.39412,105.583966 L200.286391,107.331712 L199.070594,127.153088 C198.955097,128.918556 197.502959,130.291262 195.750237,130.291262 L189.426938,130.291262 C187.670771,130.290497 186.218156,128.910889 186.110429,127.141436 L184.890784,107.318118 L184.784979,105.570373 L184.740733,104.844087 L184.631081,103.096342 L184.586835,102.370057 L184.48103,100.622311 L184.404081,99.3872375 C184.377175,98.9088159 184.546042,98.4402267 184.871179,98.0910852 C185.196317,97.7419437 185.649202,97.5428774 186.123895,97.5404531 L199.055204,97.5404531 C199.532048,97.5431959 199.98666,97.7443479 200.311803,98.0964601 C200.636947,98.4485723 200.803833,98.9204671 200.773095,99.4008311 Z" id="Path" fill="#565661" fill-rule="nonzero"></path>
                        <polygon id="Path" fill="#9D9CB5" fill-rule="nonzero" points="200.776699 101.100324 200.667918 102.524272 184.510075 102.524272 184.401294 101.100324"></polygon>
                        <polygon id="Path" fill="#9D9CB5" fill-rule="nonzero" points="200.776699 103.236246 200.66782 104.660194 184.512153 104.660194 184.401294 103.236246"></polygon>
                        <polygon id="Path" fill="#9D9CB5" fill-rule="nonzero" points="200.064725 106.084142 199.956621 107.508091 184.509398 107.508091 184.401294 106.084142"></polygon>
                        <path d="M182.207338,82.2960499 C189.285195,87.4086283 192.23301,95.4045307 192.23301,95.4045307 C192.23301,95.4045307 183.705471,95.1123281 176.625676,89.9997497 C169.545881,84.8871712 166.601942,76.8932039 166.601942,76.8932039 C166.601942,76.8932039 175.131419,77.1854065 182.207338,82.2960499 Z" id="Path" fill="#ED6E52" fill-rule="nonzero"></path>
                        <path d="M166.601942,76.8932039 C166.601942,76.8932039 175.453139,81.7987249 178.29436,85.8605349 C181.135581,89.922345 192.23301,95.4045307 192.23301,95.4045307" id="Path" stroke="#535461" stroke-width="2"></path>
                        <path d="M187.370344,71.9711889 C191.30585,74.7220042 192.944984,79.0291262 192.944984,79.0291262 C192.944984,79.0291262 188.193871,78.8702413 184.268263,76.119426 C180.342656,73.3686107 178.705502,69.0614887 178.705502,69.0614887 C178.705502,69.0614887 183.436819,69.2184593 187.370344,71.9711889 Z" id="Path" fill="#ED6E52" fill-rule="nonzero"></path>
                        <path d="M178.705502,69.0614887 C178.705502,69.0614887 183.623444,71.7031902 185.200114,73.8892939 C186.776784,76.0753976 192.944984,79.0291262 192.944984,79.0291262" id="Path" stroke="#535461" stroke-width="2"></path>
                        <path d="M198.424583,79.0845925 C193.901834,83.9986084 192.944984,90.420712 192.944984,90.420712 C192.944984,90.420712 199.322001,88.8734531 203.840789,83.9574787 C208.359576,79.0415043 209.320388,72.6213592 209.320388,72.6213592 C209.320388,72.6213592 202.947333,74.1705767 198.424583,79.0845925 Z" id="Path" fill="#ED6E52" fill-rule="nonzero"></path>
                        <path d="M209.320388,72.6213592 C209.320388,72.6213592 203.430155,77.6593184 201.932839,81.1302608 C200.435523,84.6012031 192.944984,90.420712 192.944984,90.420712" id="Path" stroke="#535461" stroke-width="2"></path>
                        <path d="M108.220065,67.1833644 L108.220065,67.6375405 L95.4045307,67.6375405 L95.4045307,67.2690204 C95.7558995,67.1305213 96.0885354,66.9443524 96.3939863,66.7152443 C97.498145,65.8844017 98.1531273,64.5448391 98.1530183,63.1176918 C98.1532333,62.7501465 98.1092891,62.3840433 98.0222282,62.0280676 C97.7083177,60.7304919 96.8526299,59.6518349 95.6945436,59.0938511 L108.132871,59.0938511 C106.974785,59.6518349 106.119097,60.7304919 105.805187,62.0280676 C105.718765,62.384129 105.675458,62.7502309 105.676292,63.1176918 C105.675431,64.5445577 106.329742,65.8841914 107.433429,66.7152443 C107.6794,66.8996682 107.943045,67.0565611 108.220065,67.1833644 L108.220065,67.1833644 Z" id="Path" fill="#DFE6F5" fill-rule="nonzero"></path>
                        <path d="M108.220065,59.0938511 C107.026858,59.6354199 106.145221,60.6823445 105.82179,61.9417476 L97.802805,61.9417476 C97.4793748,60.6823445 96.5977374,59.6354199 95.4045307,59.0938511 L108.220065,59.0938511 Z" id="Path" fill="#000000" fill-rule="nonzero" opacity="0.1"></path>
                        <path d="M79.7411003,56.9579288 L79.7411003,59.4508089 C79.7411003,60.8253877 80.7541118,61.9417476 82.0057089,61.9417476 L120.904957,61.9417476 C122.156554,61.9417476 123.171521,60.8253877 123.171521,59.4508089 L123.171521,56.9579288 L79.7411003,56.9579288 Z" id="Path" fill="#DFE6F5" fill-rule="nonzero"></path>
                        <path d="M108.220065,67.2869355 L108.220065,67.6375405 L95.4045307,67.6375405 L95.4045307,67.3530584 C95.7558995,67.2461428 96.0885354,67.1024282 96.3939863,66.9255663 L107.433429,66.9255663 C107.6794,67.0679339 107.943045,67.1890487 108.220065,67.2869355 Z" id="Path" fill="#000000" fill-rule="nonzero" opacity="0.1"></path>
                        <rect id="Rectangle" fill="#DFE6F5" fill-rule="nonzero" x="90.420712" y="66.9255663" width="22.0711974" height="1.42394822" rx="0.71197411"></rect>
                        <path d="M123.171521,30.0052157 C123.171521,29.4112666 122.932661,28.8416723 122.507541,28.4218682 C122.082422,28.002064 121.505907,27.7664782 120.904957,27.7669903 L82.0057097,27.7669903 C81.4049391,27.7664777 80.8286252,28.0021251 80.403816,28.421985 C79.9790069,28.8418448 79.7405817,29.4114444 79.7411003,30.0052157 L79.7411003,57.6699029 L123.171521,57.6699029 L123.171521,30.0052157 Z" id="Path" fill="#474157" fill-rule="nonzero"></path>
                        <path d="M121.747573,31.020057 L121.747573,55.1268507 C121.748084,55.4234752 121.632236,55.7081289 121.425565,55.9180581 C121.218893,56.1279874 120.93837,56.2459547 120.645836,56.2459547 L82.2667968,56.2459547 C81.9742633,56.2459547 81.6937394,56.1279874 81.4870683,55.9180581 C81.2803972,55.7081289 81.1645485,55.4234752 81.1650485,55.1268507 L81.1650485,31.020057 C81.1641089,30.8239254 81.2148216,30.631093 81.3119597,30.4614849 C81.5088919,30.1156176 81.8729324,29.9029126 82.2667968,29.9029126 L120.645836,29.9029126 C121.254308,29.9029126 121.747573,30.4030753 121.747573,31.020057 L121.747573,31.020057 Z" id="Path" fill="#4C4C78" fill-rule="nonzero"></path>
                        <circle id="Oval" fill="#FFFFFF" fill-rule="nonzero" cx="101.456311" cy="28.8349515" r="1"></circle>
                        <circle id="Oval" fill="#FFFFFF" fill-rule="nonzero" cx="101.812298" cy="59.8058252" r="1.42394822"></circle>
                        <path d="M121.747573,31.3268608 L81.1650485,31.3268608 C81.1650485,30.540436 81.6583593,29.9029126 82.266889,29.9029126 L120.645732,29.9029126 C121.254262,29.9029126 121.747573,30.540436 121.747573,31.3268608 L121.747573,31.3268608 Z" id="Path" fill="#C8CAD7" fill-rule="nonzero"></path>
                        <circle id="Oval" fill="#EDEDF4" fill-rule="nonzero" cx="82.2330097" cy="30.2588997" r="1"></circle>
                        <circle id="Oval" fill="#EDEDF4" fill-rule="nonzero" cx="82.9449838" cy="30.2588997" r="1"></circle>
                        <circle id="Oval" fill="#EDEDF4" fill-rule="nonzero" cx="84.368932" cy="30.2588997" r="1"></circle>
                    </g>
                </g>
            </g>
        </g>
    </g>
</svg>