<svg width="100" height="34" viewBox="0 0 100 34" fill="none" xmlns="http://www.w3.org/2000/svg">
<g clip-path="url(#clip0_125_535)">
<path d="M23.3258 22.1454C22.8222 22.1454 22.4445 21.7677 22.4445 21.2641C22.3186 19.2497 22.3815 17.2982 22.6963 15.3466L22.7593 14.7171L22.3186 15.2207C22.1297 15.4725 21.8779 15.6614 21.6891 15.9132C21.5002 16.1021 21.3114 16.165 21.0596 16.165C20.8077 16.165 20.6189 16.1021 20.43 15.9132C20.2412 15.7244 20.1782 15.5355 20.1782 15.2837C20.1782 15.0319 20.2412 14.7801 20.43 14.6542C22.9481 12.0102 24.2701 9.80687 24.2701 9.80687C24.459 9.55507 24.7108 9.36621 25.0885 9.36621C25.2144 9.36621 25.4032 9.42916 25.5291 9.49211C25.9698 9.74392 26.1587 10.2475 25.9698 10.6882C25.9698 10.7512 24.0183 15.0948 24.396 21.2641C24.396 21.5159 24.3331 21.7677 24.1442 21.9566C23.8294 22.0195 23.6406 22.1454 23.3258 22.1454C23.3888 22.1454 23.3258 22.1454 23.3258 22.1454Z" fill="#44486C"/>
<path d="M10.4202 23.3414C9.60187 23.3414 8.9094 23.1526 8.15398 22.7119C7.3356 22.2713 6.83199 21.5158 6.58018 20.5716C6.20247 19.1237 6.64313 17.361 7.96512 15.3465C9.53892 12.9544 11.7422 11.4435 14.0085 11.3176C14.0715 11.3176 14.1974 11.3176 14.2603 11.3176C15.2046 11.3176 16.023 11.6324 16.4007 12.136C16.8413 12.7026 17.0931 13.458 16.9672 14.2134C16.7784 15.4095 15.96 16.5426 14.638 17.4869C13.379 18.3682 11.8052 18.9348 10.4832 18.9348C10.1055 18.9348 9.79073 18.8719 9.47597 18.8089C9.22416 18.746 8.97235 18.62 8.72054 18.4941L8.46874 18.3682L8.40578 18.62C8.21693 19.3125 8.27988 19.8161 8.34283 20.1309C8.46874 20.5716 8.65759 20.8863 9.0353 21.0752C9.35006 21.264 9.72777 21.4529 10.4202 21.4529C11.8052 21.4529 13.7567 20.4457 16.4007 18.4312C16.7784 18.1794 17.1561 17.8017 17.5338 17.424C17.6597 17.2981 17.7856 17.1722 17.9745 17.0463C18.1633 16.8574 18.3522 16.7944 18.604 16.7944C18.8558 16.7944 19.1076 16.9203 19.2335 17.0463C19.4224 17.2351 19.4853 17.424 19.4853 17.6758C19.4853 17.9276 19.3594 18.1164 19.2335 18.3053C19.1076 18.4312 18.9817 18.5571 18.8558 18.683C18.4151 19.1237 18.0374 19.5014 17.5338 19.8791C14.4492 22.2713 12.1829 23.3414 10.4202 23.3414ZM14.2603 13.1432C14.0085 13.1432 13.7567 13.1432 13.5049 13.2062C12.6236 13.395 10.9868 14.0246 9.47597 16.2908C9.41301 16.3538 9.41301 16.4167 9.35006 16.4797L9.28711 16.6056L9.41301 16.7315C9.53892 16.8574 9.72777 16.9203 9.91663 16.9833C10.1055 17.0463 10.2943 17.0463 10.4832 17.0463C11.4275 17.0463 12.6236 16.6056 13.5678 15.9761C14.4492 15.3465 15.0787 14.5911 15.1416 13.9616C15.2046 13.7098 15.1416 13.5209 15.0157 13.3321L14.9528 13.2691H14.8898C14.8898 13.2691 14.638 13.1432 14.2603 13.1432Z" fill="#44486C"/>
<path d="M16.275 33.0361C14.953 33.0361 13.631 32.6584 12.4349 32.0289L5.00657 27.6852C2.6144 26.3003 1.1665 23.7822 1.1665 21.0753V12.3879C1.1665 9.68097 2.6144 7.16289 5.00657 5.8409L12.4979 1.49722C13.631 0.80475 14.953 0.48999 16.3379 0.48999C17.7229 0.48999 18.9819 0.867702 20.178 1.49722L27.6693 5.8409C29.9985 7.22584 31.5093 9.74392 31.5093 12.4509V21.0753C31.5093 23.7822 30.0614 26.3003 27.6693 27.6852L20.178 32.0289C18.9189 32.6584 17.597 33.0361 16.275 33.0361ZM16.275 2.12674C15.2048 2.12674 14.1976 2.37855 13.3162 2.94511L5.82495 7.2888C3.99934 8.35898 2.86621 10.3105 2.86621 12.4509V21.0753C2.86621 23.2156 3.99934 25.1671 5.82495 26.2373L13.3162 30.518C14.1976 31.0217 15.2677 31.3364 16.275 31.3364C17.2822 31.3364 18.3524 31.0846 19.2337 30.518L26.725 26.1744C28.5506 25.1042 29.6837 23.1527 29.6837 21.0123V12.3879C29.6837 10.2475 28.5506 8.29603 26.725 7.22584L19.2337 2.94511C18.3524 2.4415 17.3451 2.12674 16.275 2.12674Z" fill="#44486C"/>
<path d="M44.7292 22.0826H37.4268V12.0732H44.7921L44.2885 13.5841H39.0006V15.9763H43.7849V17.4871H39.0006V20.5088H44.7292V22.0826Z" fill="#44486C"/>
<path d="M49.9544 14.6541C50.5209 14.6541 50.9616 14.717 51.4023 14.9059C51.8429 15.0947 52.1577 15.2836 52.4724 15.5983C52.7872 15.9131 52.9761 16.2279 53.102 16.6685C53.2279 17.1092 53.3538 17.5498 53.3538 18.0535V18.9977C53.3538 19.5643 53.2908 20.005 53.102 20.4456C52.9761 20.8863 52.7243 21.2011 52.4724 21.4529C52.1577 21.7047 51.8429 21.9565 51.4652 22.0824C51.0875 22.2083 50.6468 22.2712 50.1432 22.2712C49.7655 22.2712 49.3878 22.1453 49.0101 21.9565C48.6324 21.7676 48.3176 21.5158 48.0029 21.264V24.8523H46.4291V16.6056C46.4291 16.3538 46.4291 16.1019 46.3661 15.9131C46.3032 15.7242 46.2402 15.5354 46.1772 15.2836L47.5622 14.6541C47.6251 14.78 47.6881 14.9059 47.751 15.0318C47.814 15.1577 47.877 15.3465 47.877 15.4724H47.9399C48.1917 15.2206 48.5065 14.9688 48.8212 14.8429C49.1989 14.717 49.5767 14.6541 49.9544 14.6541ZM49.8914 16.039C49.5137 16.039 49.136 16.1649 48.8212 16.3538C48.4435 16.5426 48.1917 16.7944 47.9399 17.1092V19.7532C48.0658 19.8791 48.1917 20.0679 48.3806 20.1938C48.5694 20.3197 48.6953 20.4456 48.8842 20.5715C49.073 20.6974 49.2619 20.7604 49.4508 20.8233C49.6396 20.8863 49.8285 20.9492 50.0803 20.9492C50.395 20.9492 50.7098 20.8863 50.8986 20.8233C51.0875 20.6974 51.2764 20.5715 51.4023 20.3827C51.5282 20.1938 51.5911 20.005 51.6541 19.7532C51.717 19.5013 51.717 19.2495 51.717 18.9977V18.2423C51.717 17.9276 51.717 17.6757 51.6541 17.4239C51.5911 17.1721 51.4652 16.9203 51.3393 16.7315C51.2134 16.5426 51.0245 16.4167 50.7727 16.2908C50.5209 16.1019 50.2691 16.039 49.8914 16.039Z" fill="#44486C"/>
<path d="M55.6201 11.8843C55.8719 11.8843 56.0608 11.9472 56.2496 12.1361C56.4385 12.3249 56.5014 12.5138 56.5014 12.7656C56.5014 13.0174 56.4385 13.2063 56.2496 13.3951C56.0608 13.521 55.8719 13.6469 55.6201 13.6469C55.3683 13.6469 55.1794 13.584 54.9906 13.3951C54.8017 13.2692 54.7388 13.0174 54.7388 12.7656C54.7388 12.5138 54.8017 12.3249 54.9906 12.1361C55.1165 11.9472 55.3683 11.8843 55.6201 11.8843ZM54.8647 22.0825V14.7801H56.4385V22.0825H54.8647Z" fill="#44486C"/>
<path d="M60.7819 14.6541C61.2856 14.6541 61.7262 14.717 62.1669 14.9059C62.6076 15.0947 62.9223 15.3465 63.2371 15.6613L62.2298 16.6056C62.041 16.4167 61.8521 16.2908 61.6003 16.1649C61.3485 16.039 61.0967 15.976 60.719 15.976C60.3413 15.976 59.9636 16.039 59.7118 16.1019C59.46 16.2279 59.3341 16.3538 59.3341 16.6056C59.3341 16.7315 59.3341 16.7944 59.397 16.9203C59.46 16.9833 59.5229 17.1092 59.6488 17.1092C59.7118 17.1721 59.8377 17.2351 59.9636 17.2351C60.0895 17.298 60.2154 17.298 60.3413 17.361C60.719 17.4869 61.0338 17.5498 61.4115 17.6757C61.7892 17.7387 62.1039 17.8646 62.4817 18.0535C62.6705 18.1164 62.7964 18.2423 62.9853 18.3682C63.1112 18.4941 63.3 18.62 63.4259 18.7459C63.5518 18.8718 63.6148 19.0607 63.7407 19.2495C63.8036 19.4384 63.8666 19.6273 63.8666 19.8161C63.8666 20.2568 63.8036 20.6345 63.6148 20.9492C63.4259 21.264 63.2371 21.5158 62.9223 21.7047C62.6076 21.8935 62.2928 22.0194 61.9151 22.1453C61.5374 22.2083 61.1597 22.2712 60.7819 22.2712C60.1524 22.2712 59.5859 22.1453 59.0193 21.9565C58.5157 21.7676 58.075 21.327 57.7603 20.7604L58.9563 20.005C59.2081 20.3197 59.397 20.5086 59.7118 20.6974C59.9636 20.8233 60.4042 20.8863 60.8449 20.8863C61.7892 20.8863 62.2298 20.6345 62.2298 20.0679C62.2298 19.8161 62.1039 19.6902 61.9151 19.5643C61.7262 19.4384 61.4744 19.3125 61.2226 19.2495C60.8449 19.1236 60.5301 19.0607 60.0895 18.9348C59.7118 18.8718 59.3341 18.7459 58.9563 18.5571C58.5786 18.3682 58.2639 18.1164 58.075 17.8016C57.8862 17.4869 57.7603 17.1092 57.7603 16.6685C57.7603 16.3538 57.8232 16.039 57.9491 15.7872C58.075 15.5354 58.3268 15.3465 58.5786 15.1577C58.8304 14.9688 59.1452 14.8429 59.5229 14.78C59.9636 14.6541 60.3413 14.6541 60.7819 14.6541Z" fill="#44486C"/>
<path d="M68.5253 22.2712C67.9587 22.2712 67.4551 22.1453 67.0144 21.9565C66.5738 21.7676 66.196 21.5158 65.8813 21.1381C65.5665 20.8233 65.3777 20.3827 65.1888 19.942C65.0629 19.5013 64.937 18.9977 64.937 18.4312V18.1794C64.937 17.6757 65.0629 17.1721 65.1888 16.7944C65.3777 16.3538 65.5665 15.976 65.8813 15.6613C66.196 15.3465 66.5738 15.0947 67.0144 14.9059C67.4551 14.717 67.9587 14.6541 68.4623 14.6541C68.9659 14.6541 69.4695 14.717 69.9102 14.9059C70.3509 15.0947 70.7286 15.3465 71.0433 15.6613C71.3581 15.976 71.6099 16.3538 71.7988 16.7944C71.9876 17.2351 72.0506 17.6757 72.0506 18.1794V18.4941C72.0506 19.0607 71.9876 19.5643 71.7988 20.005C71.6099 20.4456 71.4211 20.8863 71.1063 21.2011C70.7915 21.5158 70.4138 21.8306 69.9732 22.0194C69.5955 22.1453 69.0918 22.2712 68.5253 22.2712ZM70.6656 18.4312V18.1164C70.6656 17.4869 70.4768 16.9833 70.162 16.5426C69.8473 16.1649 69.2807 15.976 68.5882 15.976C67.8328 15.976 67.3292 16.1649 67.0144 16.5426C66.6997 16.9203 66.5108 17.4869 66.5108 18.1164V18.4941C66.5108 18.8718 66.5108 19.1866 66.5738 19.4384C66.6367 19.7532 66.7626 19.942 66.8885 20.1938C67.0144 20.3827 67.2662 20.5715 67.518 20.6974C67.7698 20.8233 68.1476 20.8863 68.5882 20.8863C69.0289 20.8863 69.3436 20.8233 69.6584 20.6974C69.9102 20.5715 70.162 20.3827 70.2879 20.1938C70.4768 20.005 70.5397 19.7532 70.6027 19.4384C70.6027 19.1236 70.6656 18.8089 70.6656 18.4312Z" fill="#44486C"/>
<path d="M78.5971 12.3249L80.1709 11.8843V20.4457C80.1709 20.6346 80.1709 20.8234 80.1709 20.9494C80.1709 21.0753 80.2339 21.2012 80.2339 21.3271C80.2968 21.453 80.2968 21.5789 80.3598 21.7048C80.4227 21.8307 80.4857 21.9566 80.5486 22.0825H78.9119C78.8489 21.9566 78.786 21.8307 78.723 21.7048C78.6601 21.5159 78.6601 21.39 78.6601 21.2641C78.3453 21.5789 78.0305 21.7677 77.6528 22.0195C77.2751 22.2084 76.8974 22.3343 76.4568 22.3343C75.9531 22.3343 75.5125 22.2713 75.1348 22.0825C74.757 21.8936 74.4423 21.7048 74.1905 21.39C73.9387 21.0753 73.7498 20.7605 73.6239 20.3828C73.498 20.0051 73.4351 19.5644 73.4351 19.0608V18.3683C73.4351 17.1722 73.7498 16.228 74.3793 15.5984C75.0089 14.9689 75.9531 14.6542 77.2122 14.6542C77.6528 14.6542 78.1565 14.7171 78.5971 14.906V12.3249ZM78.5971 16.3539C78.4083 16.228 78.1565 16.165 77.8417 16.1021C77.5899 16.0391 77.3381 16.0391 77.0863 16.0391C76.7086 16.0391 76.3938 16.1021 76.142 16.228C75.8902 16.3539 75.6384 16.4798 75.5125 16.6686C75.3236 16.8575 75.1977 17.1093 75.1348 17.3611C75.0718 17.6129 75.0089 17.9277 75.0089 18.2424V18.746C75.0089 18.9978 75.0089 19.2497 75.0718 19.5644C75.1348 19.8162 75.1977 20.068 75.3236 20.2569C75.4495 20.4457 75.5754 20.6346 75.7643 20.6975C75.9531 20.8234 76.2049 20.8864 76.5197 20.8864C76.7086 20.8864 76.8974 20.8234 77.1492 20.7605C77.3381 20.6975 77.5269 20.6346 77.7158 20.5087C77.9046 20.3828 78.0935 20.2569 78.2194 20.131C78.4083 20.0051 78.5342 19.8792 78.6601 19.6903V16.3539H78.5971Z" fill="#44486C"/>
<path d="M83.2555 18.935C83.2555 19.1868 83.3185 19.5015 83.3814 19.6904C83.4444 19.9422 83.5703 20.131 83.7591 20.3199C83.948 20.5088 84.1368 20.6347 84.4516 20.6976C84.7034 20.8235 85.0811 20.8235 85.5218 20.8235C85.8995 20.8235 86.1513 20.7606 86.4031 20.6347C86.592 20.5088 86.8438 20.3829 87.0326 20.131L88.3546 20.6347C88.0399 21.1383 87.6621 21.516 87.1585 21.7678C86.6549 22.0196 86.0883 22.1455 85.5218 22.1455C84.3257 22.1455 83.3814 21.8307 82.7519 21.2012C82.1224 20.5717 81.8076 19.6274 81.8076 18.4313V18.2425C81.8076 18.1166 81.8076 17.9907 81.8076 17.8648C81.8076 17.7389 81.8076 17.613 81.8076 17.55C81.8076 17.1093 81.9335 16.6687 82.1224 16.291C82.3112 15.9133 82.563 15.5985 82.8778 15.3467C83.1926 15.0949 83.5703 14.8431 83.948 14.7172C84.3886 14.5913 84.8293 14.5283 85.27 14.5283C85.7736 14.5283 86.2772 14.5913 86.6549 14.7801C87.0956 14.969 87.4103 15.1578 87.7251 15.4726C88.0399 15.7874 88.2287 16.1651 88.3546 16.5428C88.4805 16.9834 88.6064 17.4241 88.6064 17.9907V18.8091H83.2555V18.935ZM83.2555 17.613H86.9697C86.9697 17.3612 86.9067 17.1723 86.8438 16.9834C86.7808 16.7946 86.6549 16.6057 86.4661 16.4798C86.2772 16.3539 86.0883 16.228 85.8995 16.1651C85.7106 16.1021 85.4588 16.0392 85.207 16.0392C84.9552 16.0392 84.7034 16.0392 84.5146 16.1021C84.2627 16.1651 84.0739 16.228 83.885 16.3539C83.6962 16.4798 83.5703 16.6687 83.4444 16.8575C83.3185 17.1093 83.2555 17.2982 83.2555 17.613Z" fill="#44486C"/>
<path d="M94.398 20.5716H95.9718V14.2764L94.7128 15.4725L93.7056 14.4023L95.9718 12.199H97.5456V20.5086H99.1194V22.0824H94.398V20.5716Z" fill="#44486C"/>
</g>
<defs>
<clipPath id="clip0_125_535">
<rect width="98.5198" height="32.9868" fill="white" transform="translate(0.725586 0.238281)"/>
</clipPath>
</defs>
</svg>
