<svg width="82" height="35" viewBox="0 0 82 35" fill="none" xmlns="http://www.w3.org/2000/svg">
<g clip-path="url(#clip0_125_494)">
<path d="M17.4233 24.2468H22.7857V12.5883L29.5289 16.9419V10.8122L17.4233 1.66431V24.2468Z" fill="#44486C"/>
<path d="M31.647 9.15621L36.205 12.5883V24.2468H41.5673V1.66431L31.647 9.15621Z" fill="#44486C"/>
<path d="M55.8043 19.6664L60.0942 14.9923C62.2793 12.8155 63.5127 10.9859 63.5127 8.62215C63.5127 4.4956 60.0942 1.46411 54.2358 1.46411C48.5249 1.46411 44.8919 4.58908 44.8919 9.69052V9.85077H50.9513V9.57033C50.9513 7.23328 52.1847 5.97795 54.3028 5.97795C56.1394 5.97795 57.3326 7.08638 57.3326 8.66222C57.3326 9.70387 56.6623 10.8657 55.3217 12.2813L44.0071 24.247H60.7243L63.9149 19.653H55.8043V19.6664Z" fill="#44486C"/>
<path d="M4.03903 34.1026L4.05243 31.405H4.03903L3.04699 34.1026H2.40351L1.43828 31.405H1.41147L1.43828 34.1026H0.566895V30.2832H1.88067L2.75206 32.7271H2.77887L3.61004 30.2832H4.93722V34.1026H4.03903Z" fill="#44486C"/>
<path d="M6.65328 30.2832H5.72827V34.0892H6.65328V30.2832Z" fill="#44486C"/>
<path d="M10.1788 34.0359C9.92413 34.1561 9.6426 34.2095 9.32086 34.2095C9.02593 34.2095 8.75781 34.1561 8.5031 34.0626C8.24839 33.9691 8.03389 33.8222 7.84621 33.6486C7.65853 33.475 7.52447 33.2613 7.41722 33.0076C7.30997 32.7538 7.25635 32.4868 7.25635 32.193C7.25635 31.8858 7.30997 31.6054 7.41722 31.365C7.52447 31.1112 7.67193 30.9109 7.85961 30.7373C8.0473 30.5637 8.26179 30.4302 8.51651 30.3367C8.77122 30.2432 9.03934 30.2031 9.33427 30.2031C9.60239 30.2031 9.8705 30.2565 10.1252 30.35C10.3799 30.4435 10.5944 30.5904 10.7553 30.764L10.1252 31.3917C10.0448 31.2715 9.92413 31.1914 9.79007 31.1246C9.6426 31.0712 9.50854 31.0445 9.36108 31.0445C9.20021 31.0445 9.05274 31.0712 8.91868 31.1379C8.78462 31.1914 8.66397 31.2848 8.57013 31.3783C8.47629 31.4852 8.39585 31.6054 8.34223 31.7523C8.2886 31.8992 8.26179 32.0461 8.26179 32.2197C8.26179 32.3933 8.2886 32.5535 8.34223 32.6871C8.39585 32.834 8.47629 32.9542 8.57013 33.061C8.66397 33.1678 8.78462 33.248 8.91868 33.3014C9.05274 33.3548 9.20021 33.3815 9.36108 33.3815C9.54876 33.3815 9.70963 33.3414 9.84369 33.2747C9.97775 33.2079 10.085 33.1144 10.1788 32.9942L10.8223 33.5952C10.648 33.7688 10.4336 33.9157 10.1788 34.0359Z" fill="#44486C"/>
<path d="M13.2489 34.1027L12.4177 32.5936H12.1094V34.1027H11.2112V30.2966H12.6724C12.8601 30.2966 13.0344 30.31 13.2087 30.3501C13.3829 30.3901 13.5438 30.4569 13.6779 30.537C13.8119 30.6305 13.9326 30.7507 14.013 30.8976C14.0935 31.0445 14.1337 31.2315 14.1337 31.4451C14.1337 31.6989 14.0666 31.9259 13.9192 32.0995C13.7851 32.2731 13.584 32.4067 13.3293 32.4734L14.3348 34.1027H13.2489ZM13.2221 31.4585C13.2221 31.365 13.2087 31.2982 13.1684 31.2448C13.1282 31.1914 13.0746 31.1513 13.021 31.1113C12.954 31.0846 12.9003 31.0578 12.8199 31.0445C12.7395 31.0311 12.6724 31.0311 12.6054 31.0311H12.1094V31.9125H12.5518C12.6322 31.9125 12.6992 31.9125 12.7797 31.8992C12.8601 31.8858 12.9271 31.8591 12.9942 31.8324C13.0612 31.8057 13.1148 31.7523 13.155 31.6989C13.1953 31.6321 13.2221 31.552 13.2221 31.4585Z" fill="#44486C"/>
<path d="M18.772 32.1795C18.772 32.4867 18.7184 32.7538 18.6112 33.0075C18.5039 33.2613 18.3565 33.4749 18.1822 33.6485C17.9945 33.8221 17.78 33.969 17.5253 34.0625C17.2706 34.156 16.9891 34.2094 16.6941 34.2094C16.3992 34.2094 16.1177 34.156 15.863 34.0625C15.6082 33.969 15.3938 33.8221 15.2061 33.6485C15.0184 33.4749 14.8709 33.2613 14.7771 33.0075C14.6698 32.7538 14.6162 32.4867 14.6162 32.1795C14.6162 31.8724 14.6698 31.5919 14.7771 31.3515C14.8843 31.1112 15.0318 30.8975 15.2061 30.7239C15.3938 30.5503 15.6082 30.4167 15.863 30.3232C16.1177 30.2298 16.3992 30.1897 16.6941 30.1897C16.9891 30.1897 17.2706 30.2298 17.5253 30.3232C17.78 30.4167 18.0079 30.5503 18.1822 30.7239C18.3699 30.8975 18.5173 31.0978 18.6112 31.3515C18.7184 31.5919 18.772 31.8724 18.772 32.1795ZM17.78 32.1795C17.78 32.0193 17.7532 31.859 17.6996 31.7121C17.6459 31.5652 17.5655 31.445 17.4717 31.3382C17.3778 31.2314 17.2572 31.1512 17.1231 31.0978C16.9891 31.0444 16.8416 31.0043 16.6807 31.0043C16.5198 31.0043 16.3724 31.031 16.2383 31.0978C16.1043 31.1512 15.9836 31.2314 15.8898 31.3382C15.7959 31.445 15.7155 31.5652 15.6619 31.7121C15.6082 31.859 15.5814 32.0059 15.5814 32.1795C15.5814 32.3531 15.6082 32.5134 15.6619 32.6603C15.7155 32.8072 15.7959 32.9274 15.8898 33.0342C15.9836 33.1411 16.1043 33.2212 16.2383 33.2746C16.3724 33.328 16.5198 33.3681 16.6807 33.3681C16.8416 33.3681 16.9891 33.3414 17.1231 33.2746C17.2572 33.2212 17.3778 33.1277 17.4717 33.0342C17.5655 32.9274 17.6459 32.8072 17.6996 32.6603C17.7532 32.5134 17.78 32.3531 17.78 32.1795Z" fill="#44486C"/>
<path d="M21.3997 31.2848C21.3193 31.1779 21.2121 31.1112 21.0914 31.0444C20.9708 30.991 20.8367 30.9509 20.716 30.9509C20.649 30.9509 20.5954 30.9509 20.5284 30.9643C20.4613 30.9776 20.4077 30.991 20.3541 31.031C20.3005 31.0577 20.2602 31.0978 20.2334 31.1512C20.1932 31.2046 20.1798 31.2581 20.1798 31.3382C20.1798 31.405 20.1932 31.4584 20.22 31.4984C20.2468 31.5385 20.2871 31.5786 20.3407 31.6053C20.3943 31.632 20.4613 31.6721 20.5284 31.6988C20.5954 31.7255 20.6758 31.7522 20.7697 31.7789C20.9037 31.819 21.0378 31.8724 21.1718 31.9258C21.3059 31.9792 21.44 32.046 21.5606 32.1395C21.6679 32.2196 21.7751 32.3264 21.8421 32.46C21.9226 32.5935 21.9494 32.7404 21.9494 32.9407C21.9494 33.1544 21.9092 33.3547 21.8287 33.5016C21.7483 33.6619 21.6411 33.7954 21.507 33.9023C21.3729 34.0091 21.2121 34.0892 21.0378 34.1293C20.8635 34.1827 20.6758 34.2094 20.4881 34.2094C20.22 34.2094 19.9519 34.156 19.6972 34.0625C19.4425 33.969 19.228 33.8355 19.0537 33.6619L19.657 33.0476C19.7508 33.1678 19.8715 33.2613 20.0323 33.3414C20.1798 33.4215 20.3407 33.4616 20.4881 33.4616C20.5552 33.4616 20.6222 33.4482 20.6892 33.4349C20.7563 33.4215 20.8099 33.3948 20.8635 33.3681C20.9171 33.3414 20.9574 33.288 20.9842 33.2345C21.011 33.1811 21.0244 33.1144 21.0244 33.0342C21.0244 32.9675 21.011 32.9007 20.9708 32.8473C20.9305 32.7938 20.8769 32.7538 20.8099 32.7137C20.7429 32.6737 20.6624 32.6336 20.5552 32.6069C20.4613 32.5668 20.3407 32.5401 20.22 32.5C20.0994 32.46 19.9787 32.4066 19.8581 32.3531C19.7374 32.2997 19.6302 32.233 19.5497 32.1395C19.4559 32.0593 19.3889 31.9525 19.3218 31.8323C19.2682 31.7121 19.2414 31.5652 19.2414 31.3916C19.2414 31.1779 19.2816 31.0043 19.3755 30.8441C19.4693 30.6972 19.5765 30.5636 19.7106 30.4701C19.8447 30.3767 20.0055 30.2965 20.1798 30.2565C20.3541 30.2164 20.5284 30.1897 20.716 30.1897C20.9305 30.1897 21.1584 30.2298 21.3729 30.3099C21.6008 30.39 21.8019 30.5102 21.9628 30.6571L21.3997 31.2848Z" fill="#44486C"/>
<path d="M26.5609 32.1795C26.5609 32.4867 26.5072 32.7538 26.4 33.0075C26.2927 33.2613 26.1453 33.4749 25.971 33.6485C25.7833 33.8221 25.5688 33.969 25.3141 34.0625C25.0594 34.156 24.7779 34.2094 24.4829 34.2094C24.188 34.2094 23.9065 34.156 23.6518 34.0625C23.3971 33.969 23.1826 33.8221 22.9949 33.6485C22.8072 33.4749 22.6597 33.2613 22.5659 33.0075C22.4587 32.7538 22.405 32.4867 22.405 32.1795C22.405 31.8724 22.4587 31.5919 22.5659 31.3515C22.6731 31.1112 22.8206 30.8975 22.9949 30.7239C23.1826 30.5503 23.3971 30.4167 23.6518 30.3232C23.9065 30.2298 24.188 30.1897 24.4829 30.1897C24.7779 30.1897 25.0594 30.2298 25.3141 30.3232C25.5688 30.4167 25.7967 30.5503 25.971 30.7239C26.1587 30.8975 26.3061 31.0978 26.4 31.3515C26.5072 31.5919 26.5609 31.8724 26.5609 32.1795ZM25.5822 32.1795C25.5822 32.0193 25.5554 31.859 25.5018 31.7121C25.4482 31.5652 25.3677 31.445 25.2739 31.3382C25.1801 31.2314 25.0594 31.1512 24.9253 31.0978C24.7913 31.0444 24.6438 31.0043 24.4829 31.0043C24.3221 31.0043 24.1746 31.031 24.0405 31.0978C23.9065 31.1512 23.7858 31.2314 23.692 31.3382C23.5982 31.445 23.5177 31.5652 23.4641 31.7121C23.4105 31.859 23.3837 32.0059 23.3837 32.1795C23.3837 32.3531 23.4105 32.5134 23.4641 32.6603C23.5177 32.8072 23.5982 32.9274 23.692 33.0342C23.7858 33.1411 23.9065 33.2212 24.0405 33.2746C24.1746 33.328 24.3221 33.3681 24.4829 33.3681C24.6438 33.3681 24.7913 33.3414 24.9253 33.2746C25.0594 33.2212 25.1801 33.1277 25.2739 33.0342C25.3677 32.9274 25.4482 32.8072 25.5018 32.6603C25.5554 32.5134 25.5822 32.3531 25.5822 32.1795Z" fill="#44486C"/>
<path d="M28.0893 31.0711V31.859H29.564V32.6202H28.0893V34.1026H27.1777V30.2832H29.698V31.0711H28.0893Z" fill="#44486C"/>
<path d="M31.9233 31.0711V34.1026H30.9983V31.0711H29.9258V30.2832H33.0091V31.0711H31.9233Z" fill="#44486C"/>
<path d="M33.9342 31.7522H33.2505L33.6393 30.2832H34.4302L33.9342 31.7522Z" fill="#44486C"/>
<path d="M37.0711 31.2848C36.9907 31.1779 36.8834 31.1112 36.7628 31.0444C36.6287 30.991 36.5081 30.9509 36.3874 30.9509C36.3204 30.9509 36.2668 30.9509 36.1997 30.9643C36.1327 30.9776 36.0791 30.991 36.0255 31.031C35.9718 31.0577 35.9316 31.0978 35.9048 31.1512C35.8646 31.2046 35.8512 31.2581 35.8512 31.3382C35.8512 31.405 35.8646 31.4584 35.8914 31.4984C35.9182 31.5385 35.9584 31.5786 36.0121 31.6053C36.0657 31.632 36.1327 31.6721 36.1997 31.6988C36.2668 31.7255 36.3472 31.7522 36.4411 31.7789C36.5751 31.819 36.7092 31.8724 36.8432 31.9258C36.9773 31.9792 37.1114 32.046 37.232 32.1395C37.3527 32.2196 37.4465 32.3264 37.5135 32.46C37.594 32.5935 37.6208 32.7404 37.6208 32.9407C37.6208 33.1544 37.5806 33.3547 37.5001 33.5016C37.4197 33.6619 37.3124 33.7954 37.1784 33.9023C37.0443 34.0091 36.8835 34.0892 36.7092 34.1293C36.5349 34.1827 36.3472 34.2094 36.1595 34.2094C35.8914 34.2094 35.6233 34.156 35.3686 34.0625C35.1139 33.969 34.8994 33.8355 34.7251 33.6619L35.3284 33.0476C35.4222 33.1678 35.5429 33.2613 35.7037 33.3414C35.8512 33.4215 36.0121 33.4616 36.1595 33.4616C36.2266 33.4616 36.2936 33.4482 36.3606 33.4349C36.4276 33.4215 36.4813 33.3948 36.5349 33.3681C36.5885 33.3414 36.6153 33.288 36.6556 33.2345C36.6824 33.1811 36.6958 33.1144 36.6958 33.0342C36.6958 32.9675 36.6824 32.9007 36.6421 32.8473C36.6019 32.7938 36.5483 32.7538 36.4813 32.7137C36.4142 32.6737 36.3338 32.6336 36.24 32.6069C36.1461 32.5668 36.0255 32.5401 35.9048 32.5C35.7842 32.46 35.6635 32.4066 35.5429 32.3531C35.4222 32.2997 35.315 32.233 35.2345 32.1395C35.1407 32.0593 35.0737 31.9525 35.02 31.8323C34.9664 31.7121 34.9396 31.5652 34.9396 31.3916C34.9396 31.1779 34.9798 31.0043 35.0737 30.8441C35.1675 30.6972 35.2747 30.5636 35.4088 30.4701C35.5563 30.3767 35.7037 30.2965 35.8914 30.2565C36.0657 30.2164 36.24 30.1897 36.4276 30.1897C36.6421 30.1897 36.87 30.2298 37.0845 30.3099C37.3124 30.39 37.5135 30.5102 37.6744 30.6571L37.0711 31.2848Z" fill="#44486C"/>
<path d="M41.388 34.1026H40.463L39.0151 30.2832H40.0608L40.9456 32.9942H40.959L41.8438 30.2832H42.8626L41.388 34.1026Z" fill="#44486C"/>
<path d="M43.1843 34.1026V30.2832H45.7448V31.0578H44.0691V31.7789H45.6644V32.5268H44.0691V33.3147H45.8521V34.1026H43.1843Z" fill="#44486C"/>
<path d="M48.8952 34.1026L47.3535 31.6053H47.3401L47.3535 34.1026H46.4553V30.2832H47.5144L49.0427 32.7805H49.0695L49.0427 30.2832H49.9409V34.1026H48.8952Z" fill="#44486C"/>
<path d="M52.3673 31.0711V34.1026H51.4423V31.0711H50.3564V30.2832H53.4398V31.0711H52.3673Z" fill="#44486C"/>
<path d="M56.9924 33.288C56.912 33.4749 56.8047 33.6352 56.6573 33.7687C56.5098 33.9023 56.3355 34.0091 56.1344 34.0892C55.9334 34.1694 55.7054 34.1961 55.4507 34.1961C55.196 34.1961 54.9681 34.156 54.767 34.0892C54.5659 34.0091 54.3917 33.9023 54.2576 33.7687C54.1101 33.6352 54.0029 33.4749 53.9359 33.288C53.8554 33.101 53.8286 32.8873 53.8286 32.6603V30.2832H54.7402V32.5802C54.7402 32.687 54.7536 32.7805 54.7804 32.874C54.8072 32.9675 54.8475 33.0476 54.9011 33.1277C54.9547 33.1945 55.0352 33.2613 55.129 33.3013C55.2228 33.3414 55.3301 33.3681 55.4641 33.3681C55.5982 33.3681 55.7055 33.3414 55.7993 33.3013C55.8931 33.2613 55.9602 33.1945 56.0272 33.1277C56.0808 33.0609 56.121 32.9675 56.1478 32.874C56.1747 32.7805 56.1881 32.687 56.1881 32.5802V30.2832H57.1131V32.6603C57.1131 32.8873 57.0729 33.101 56.9924 33.288Z" fill="#44486C"/>
<path d="M59.9014 34.1027L59.0703 32.5936H58.7485V34.1027H57.8503V30.2966H59.3116C59.4993 30.2966 59.6735 30.31 59.8478 30.3501C60.0221 30.3901 60.183 30.4569 60.317 30.537C60.4511 30.6305 60.5717 30.7507 60.6522 30.8976C60.7326 31.0445 60.7728 31.2315 60.7728 31.4451C60.7728 31.6989 60.7058 31.9259 60.5583 32.0995C60.4243 32.2731 60.2232 32.4067 59.9685 32.4734L60.9739 34.1027H59.9014ZM59.8612 31.4585C59.8612 31.365 59.8478 31.2982 59.8076 31.2448C59.7674 31.1914 59.7138 31.1513 59.6601 31.1113C59.5931 31.0846 59.5395 31.0578 59.459 31.0445C59.3786 31.0311 59.3116 31.0311 59.2446 31.0311H58.7485V31.9125H59.1909C59.2714 31.9125 59.3518 31.9125 59.4188 31.8992C59.4993 31.8858 59.5663 31.8591 59.6333 31.8324C59.7004 31.8057 59.754 31.7523 59.7942 31.6989C59.8478 31.6321 59.8612 31.552 59.8612 31.4585Z" fill="#44486C"/>
<path d="M61.4297 34.1026V30.2832H64.0036V31.0578H62.3279V31.7789H63.9098V32.5268H62.3279V33.3147H64.0975V34.1026H61.4297Z" fill="#44486C"/>
<path d="M66.98 31.0711V31.859H68.4546V32.6202H66.98V34.1026H66.0684V30.2832H68.5886V31.0711H66.98Z" fill="#44486C"/>
<path d="M72.302 33.288C72.2216 33.4749 72.1143 33.6352 71.9668 33.7687C71.8194 33.9023 71.6451 34.0091 71.444 34.0892C71.2429 34.1694 71.015 34.1961 70.7603 34.1961C70.5056 34.1961 70.2777 34.156 70.0766 34.0892C69.8755 34.0091 69.7012 33.9023 69.5672 33.7687C69.4197 33.6352 69.3125 33.4749 69.2454 33.288C69.165 33.101 69.1382 32.8873 69.1382 32.6603V30.2832H70.0498V32.5802C70.0498 32.687 70.0632 32.7805 70.09 32.874C70.1168 32.9675 70.157 33.0476 70.2107 33.1277C70.2643 33.1945 70.3447 33.2613 70.4386 33.3013C70.5324 33.3414 70.6397 33.3681 70.7737 33.3681C70.9078 33.3681 71.015 33.3414 71.1089 33.3013C71.2027 33.2613 71.2697 33.1945 71.3368 33.1277C71.3904 33.0609 71.4306 32.9675 71.4574 32.874C71.4842 32.7805 71.4976 32.687 71.4976 32.5802V30.2832H72.4226V32.6603C72.4226 32.8873 72.3824 33.101 72.302 33.288Z" fill="#44486C"/>
<path d="M75.5998 34.1026L74.0581 31.6053H74.0447L74.0581 34.1026H73.1599V30.2832H74.219L75.7472 32.7805H75.7741L75.7472 30.2832H76.6454V34.1026H75.5998Z" fill="#44486C"/>
<path d="M81.0025 32.1796C81.0025 32.5135 80.9355 32.8073 80.8148 33.0477C80.6941 33.2881 80.5199 33.4884 80.3188 33.6486C80.1177 33.8089 79.8898 33.9157 79.6351 33.9958C79.3804 34.0626 79.1257 34.1027 78.8575 34.1027H77.4365V30.2966H78.8173C79.0854 30.2966 79.3536 30.3233 79.6217 30.3901C79.8898 30.4569 80.1177 30.5504 80.3188 30.6973C80.5199 30.8442 80.6941 31.0311 80.8148 31.2849C80.9355 31.5253 81.0025 31.8191 81.0025 32.1796ZM80.0373 32.1796C80.0373 31.966 79.997 31.779 79.93 31.6454C79.863 31.4985 79.7691 31.3917 79.6485 31.3116C79.5278 31.2315 79.3938 31.1647 79.2463 31.138C79.0989 31.0979 78.938 31.0846 78.7771 31.0846H78.3213V33.3148H78.7637C78.9246 33.3148 79.0854 33.3014 79.2463 33.2613C79.3938 33.2213 79.5278 33.1679 79.6485 33.0744C79.7691 32.9943 79.863 32.8741 79.93 32.7272C80.0105 32.5669 80.0373 32.3933 80.0373 32.1796Z" fill="#44486C"/>
</g>
<defs>
<clipPath id="clip0_125_494">
<rect width="81.0392" height="33.4447" fill="white" transform="translate(0 0.917236)"/>
</clipPath>
</defs>
</svg>
