<svg width="69" height="35" viewBox="0 0 69 35" fill="none" xmlns="http://www.w3.org/2000/svg">
<g clip-path="url(#clip0_125_523)">
<path fill-rule="evenodd" clip-rule="evenodd" d="M32.8305 13.7216C32.7979 13.7541 32.8031 13.8064 32.8369 13.7856C32.8528 13.7759 32.89 13.8238 32.9196 13.8921C32.9725 14.0136 33.0415 14.1332 33.0781 14.1666C33.0882 14.1756 33.1397 14.2582 33.1926 14.35C33.2455 14.4418 33.2977 14.5244 33.3084 14.5336C33.3418 14.5619 33.4108 14.6782 33.4667 14.8007C33.496 14.8648 33.5297 14.925 33.5415 14.934C33.5752 14.9603 33.6456 15.0758 33.6888 15.1761C33.7107 15.2265 33.7402 15.2677 33.7544 15.2677C33.7685 15.2677 33.8025 15.3167 33.8301 15.3763C33.8796 15.4835 33.9497 15.6026 33.9822 15.635C33.9915 15.644 34.0218 15.6966 34.0494 15.7518C34.077 15.8069 34.1147 15.87 34.1332 15.8925C34.1516 15.9148 34.1856 15.9553 34.2087 15.9828C34.2318 16.0101 34.2506 16.0448 34.2506 16.0597C34.2506 16.0746 34.3106 16.1766 34.3838 16.2864C34.4571 16.3961 34.5175 16.5046 34.518 16.5276C34.5185 16.5506 34.5337 16.5693 34.5519 16.5693C34.5699 16.5693 34.594 16.6058 34.6053 16.6504C34.6164 16.695 34.645 16.7389 34.6686 16.7477C34.6923 16.7568 34.7218 16.8049 34.7342 16.8543C34.7469 16.9039 34.7752 16.9647 34.7974 16.9893C34.8838 17.0857 34.9552 17.1967 35.0475 17.3787C35.0732 17.4291 35.1069 17.4705 35.1226 17.4705C35.1382 17.4705 35.161 17.5155 35.1731 17.5705C35.1852 17.6256 35.2088 17.6707 35.2256 17.6707C35.2423 17.6707 35.2785 17.7194 35.3061 17.7791C35.363 17.9024 35.4223 17.9975 35.4833 18.0637C35.5063 18.0888 35.5254 18.1284 35.5254 18.1518C35.5254 18.1753 35.5555 18.2291 35.5924 18.2715C35.6293 18.3137 35.6594 18.3686 35.6594 18.3933C35.6594 18.418 35.6746 18.4383 35.6931 18.4383C35.7115 18.4383 35.7266 18.4601 35.7266 18.4867C35.7266 18.5132 35.7466 18.547 35.7711 18.5618C35.817 18.5894 35.8755 18.703 35.866 18.7469C35.8632 18.7607 35.8748 18.772 35.8918 18.772C35.909 18.772 35.9443 18.8133 35.9706 18.8639C35.9969 18.9143 36.1186 19.1188 36.2414 19.3185C36.3642 19.5182 36.4645 19.6948 36.4645 19.7107C36.4645 19.7267 36.4787 19.7399 36.4958 19.7399C36.513 19.7399 36.5376 19.7729 36.5506 19.8134C36.5635 19.8538 36.591 19.9059 36.6115 19.929C36.7111 20.0408 36.7318 20.0743 36.7526 20.1569C36.7649 20.2058 36.7949 20.2534 36.819 20.2626C36.8432 20.2718 36.8727 20.3232 36.8845 20.3767C36.8963 20.4303 36.9207 20.474 36.9386 20.474C36.9566 20.474 36.9871 20.5191 37.0063 20.5742C37.0256 20.6292 37.0539 20.6742 37.0694 20.6742C37.0847 20.6742 37.108 20.7074 37.1209 20.7478C37.1337 20.7883 37.1612 20.8402 37.1819 20.8635C37.2777 20.9713 37.3031 21.0074 37.3031 21.0366C37.3031 21.0539 37.356 21.1462 37.4205 21.2417C37.4852 21.3372 37.538 21.4206 37.538 21.4271C37.538 21.4392 37.6839 21.6652 37.7307 21.7255C37.7448 21.7439 37.7755 21.7964 37.7986 21.8423C37.8216 21.8882 37.8705 21.9708 37.907 22.0259C37.9435 22.081 37.9922 22.1636 38.0153 22.2095C38.0384 22.2554 38.0762 22.3127 38.0995 22.337C38.1227 22.3613 38.1417 22.4033 38.1417 22.4306C38.1417 22.458 38.1542 22.4727 38.1692 22.4635C38.1844 22.4543 38.2165 22.5012 38.2408 22.5677C38.265 22.6344 38.2982 22.7049 38.3145 22.7245C38.3309 22.7441 38.3738 22.7955 38.4097 22.8389C38.4455 22.8823 38.5083 22.9875 38.5493 23.0726C38.59 23.1577 38.6586 23.2738 38.7013 23.3306C38.7441 23.3874 38.7791 23.4461 38.7791 23.461C38.7791 23.4759 38.8168 23.5372 38.863 23.5973C38.9091 23.6575 38.9468 23.7228 38.9468 23.7424C38.9468 23.762 38.9585 23.7779 38.9728 23.7779C39.0378 23.7779 39.1242 24.0068 39.077 24.0539C39.0516 24.0792 39.0006 24.1589 38.9637 24.231C38.9268 24.303 38.8889 24.3695 38.8797 24.3787C38.8295 24.4283 38.6786 24.6712 38.6786 24.7022C38.6786 24.7223 38.6574 24.7468 38.6314 24.7567C38.6055 24.7666 38.574 24.8207 38.5616 24.877C38.5493 24.9334 38.5247 24.9793 38.5073 24.9793C38.4898 24.9793 38.4619 25.0132 38.445 25.0546C38.4282 25.0958 38.3682 25.1971 38.3118 25.2797C38.2554 25.3623 38.2091 25.4488 38.2091 25.4717C38.2089 25.4947 38.1938 25.5134 38.1754 25.5134C38.1569 25.5134 38.1417 25.5364 38.1417 25.5645C38.1417 25.5927 38.12 25.6238 38.0936 25.634C38.067 25.6441 38.0358 25.695 38.0244 25.747C38.0129 25.7991 37.9838 25.8492 37.9595 25.8584C37.9355 25.8676 37.9055 25.9152 37.8932 25.9641C37.8711 26.0517 37.8467 26.0896 37.7309 26.2166C37.6985 26.2521 37.6723 26.3012 37.6723 26.326C37.6723 26.3506 37.6423 26.4069 37.6057 26.4511C37.5044 26.5734 37.4949 26.588 37.3892 26.7832C37.335 26.8832 37.2481 27.0237 37.1962 27.0953C37.1443 27.1668 37.1019 27.244 37.1019 27.2668C37.1019 27.2898 37.0807 27.3164 37.0547 27.3265C37.0288 27.3364 36.9977 27.3891 36.9855 27.4439C36.9736 27.4987 36.9419 27.5518 36.9153 27.562C36.8889 27.5721 36.8672 27.6034 36.8672 27.6315C36.8672 27.6597 36.855 27.6826 36.8402 27.6826C36.8256 27.6826 36.7944 27.7353 36.771 27.7994C36.7476 27.8638 36.7144 27.9162 36.6972 27.9162C36.6799 27.9162 36.6658 27.9343 36.6658 27.9562C36.6658 27.9933 36.5076 28.2457 36.4608 28.2834C36.4494 28.2925 36.4295 28.3338 36.4165 28.3751C36.4036 28.4164 36.3788 28.4503 36.3616 28.4503C36.3445 28.4503 36.3303 28.4704 36.3303 28.4952C36.3303 28.52 36.3002 28.5748 36.2633 28.6172C36.2264 28.6594 36.1963 28.712 36.1963 28.7339C36.1963 28.7559 36.166 28.8083 36.1291 28.8507C36.0922 28.8931 36.0621 28.9464 36.0621 28.969C36.0621 28.9918 36.0393 29.0191 36.0117 29.0296C35.9841 29.0402 35.9614 29.0718 35.9614 29.1C35.9614 29.1281 35.9499 29.1511 35.9361 29.1511C35.9221 29.1511 35.8893 29.1998 35.8632 29.2595C35.8371 29.3191 35.8071 29.3756 35.7963 29.3846C35.7665 29.4103 35.7005 29.5207 35.6247 29.6719C35.5868 29.7473 35.5264 29.8406 35.4903 29.8792C35.4541 29.9177 35.4247 29.9638 35.4247 29.9815C35.4247 29.9995 35.4053 30.0338 35.3817 30.0581C35.3582 30.0824 35.2952 30.1886 35.242 30.2942C35.1889 30.3997 35.1327 30.486 35.1172 30.486C35.1019 30.486 35.0892 30.5004 35.0892 30.5178C35.0892 30.5448 34.9892 30.7113 34.8968 30.8383C34.8284 30.9321 34.7831 31.0114 34.7499 31.095C34.73 31.1456 34.7019 31.1868 34.6874 31.1868C34.6731 31.1868 34.6411 31.2357 34.6167 31.2953C34.5921 31.355 34.5525 31.4237 34.5288 31.4478C34.5049 31.4721 34.4854 31.5118 34.4854 31.5361C34.4854 31.5604 34.4641 31.5882 34.4382 31.5982C34.4123 31.6081 34.381 31.6622 34.3685 31.7185C34.356 31.7748 34.3355 31.8209 34.3227 31.8209C34.3099 31.8209 34.2624 31.8886 34.2171 31.9712C34.1716 32.0538 34.1245 32.1213 34.112 32.1213C34.0996 32.1213 34.0736 32.1663 34.0543 32.2215C34.0351 32.2764 34.0046 32.3215 33.9866 32.3215C33.9687 32.3215 33.9443 32.3654 33.9325 32.4188C33.9207 32.4724 33.8892 32.5245 33.8628 32.5346C33.8362 32.5448 33.8145 32.576 33.8145 32.6041C33.8145 32.6323 33.7985 32.6552 33.7789 32.6552C33.7594 32.6552 33.7528 32.6703 33.7641 32.6885C33.7756 32.707 33.7725 32.7221 33.7574 32.7221C33.7421 32.7221 33.6939 32.7971 33.6501 32.8889C33.6063 32.9806 33.5592 33.0558 33.5455 33.0558C33.5319 33.0558 33.5009 33.1045 33.4767 33.1642C33.4524 33.2238 33.4241 33.2801 33.4139 33.2893C33.4036 33.2985 33.3421 33.3887 33.2771 33.4895C33.1035 33.7596 33.0801 33.7983 33.035 33.8901C33.0126 33.936 32.9748 33.9854 32.9514 34.0002C32.928 34.0149 32.9087 34.0449 32.9085 34.0668C32.9085 34.089 32.8868 34.1483 32.8602 34.1987L32.8122 34.2905H35.8155C38.7907 34.2905 38.8192 34.2898 38.8365 34.2238C38.8461 34.1871 38.8677 34.157 38.8845 34.157C38.9012 34.157 38.9293 34.1195 38.9468 34.0735C38.9644 34.0276 38.9927 33.9901 39.0095 33.9901C39.0265 33.9901 39.0502 33.9507 39.0624 33.9027C39.0745 33.8546 39.1024 33.7951 39.1247 33.7703C39.2102 33.675 39.2959 33.541 39.3896 33.356C39.4128 33.3103 39.451 33.2607 39.4744 33.2459C39.498 33.2314 39.5172 33.197 39.5172 33.1699C39.5172 33.1426 39.5389 33.1121 39.5654 33.102C39.592 33.0918 39.6231 33.041 39.6346 32.9889C39.646 32.937 39.6772 32.8861 39.7036 32.876C39.7302 32.8658 39.752 32.8346 39.752 32.8065C39.752 32.7783 39.7671 32.7554 39.7855 32.7554C39.804 32.7554 39.8191 32.7351 39.8191 32.7105C39.8191 32.6857 39.8496 32.6304 39.887 32.5875C39.9244 32.5445 39.9636 32.4758 39.9739 32.4346C39.9843 32.3934 40.0141 32.3516 40.0401 32.3416C40.0662 32.3317 40.0874 32.3022 40.0874 32.2761C40.0874 32.2499 40.1101 32.22 40.1377 32.2094C40.1654 32.1987 40.1881 32.1672 40.1881 32.139C40.1881 32.1109 40.1996 32.0879 40.2137 32.0879C40.2278 32.0879 40.2656 32.0317 40.2977 31.9628C40.3634 31.8221 40.4207 31.7276 40.4794 31.6636C40.5011 31.6398 40.5296 31.5873 40.5426 31.547C40.5554 31.5066 40.5828 31.456 40.6034 31.4344C40.6241 31.4129 40.6635 31.3615 40.6913 31.3203C40.7189 31.2791 40.7573 31.2285 40.7765 31.2077C40.7957 31.1871 40.8315 31.1213 40.8561 31.0616C40.8805 31.002 40.9136 30.9532 40.9295 30.9532C40.9454 30.9532 40.9678 30.9157 40.9792 30.87C40.9908 30.8242 41.0137 30.7951 41.0303 30.8053C41.0468 30.8154 41.0602 30.8013 41.0602 30.774C41.0602 30.7467 41.0835 30.7013 41.1118 30.6731C41.14 30.645 41.1648 30.6101 41.1667 30.5957C41.1742 30.5362 41.2407 30.4193 41.2668 30.4193C41.2823 30.4193 41.295 30.3975 41.295 30.3709C41.295 30.3443 41.3214 30.3071 41.3537 30.2885C41.3861 30.2697 41.4007 30.254 41.3866 30.2535C41.3591 30.2523 41.4489 30.0998 41.521 30.0248C41.5444 30.0005 41.5634 29.9583 41.5634 29.9309C41.5634 29.9036 41.5785 29.8906 41.5969 29.902C41.6154 29.9134 41.6304 29.9003 41.6304 29.873C41.6304 29.8457 41.6542 29.7998 41.6833 29.7708C41.7123 29.742 41.7262 29.7183 41.7143 29.7183C41.7025 29.7183 41.7165 29.6947 41.7454 29.6659C41.7746 29.6371 41.7981 29.592 41.7981 29.5659C41.7981 29.5396 41.8133 29.5181 41.8318 29.5181C41.8502 29.5181 41.8653 29.4964 41.8653 29.4697C41.8653 29.4431 41.8918 29.4061 41.9241 29.3873C41.9563 29.3687 41.9704 29.353 41.9554 29.3523C41.9265 29.3513 42.1332 29.0418 42.1757 29.0231C42.1895 29.0171 42.2008 28.9931 42.2008 28.9698C42.2008 28.9467 42.2314 28.8926 42.2688 28.8497C42.3062 28.8068 42.3456 28.7369 42.3562 28.6944C42.367 28.6518 42.3892 28.6172 42.4057 28.6172C42.422 28.6172 42.4355 28.6026 42.4355 28.5848C42.4355 28.5464 42.7093 28.1382 42.7459 28.1221C42.7597 28.1159 42.771 28.0908 42.771 28.066C42.771 28.0413 42.7905 28.0013 42.8144 27.977C42.8382 27.9527 42.8777 27.8842 42.9023 27.8245C42.9269 27.7647 42.9602 27.716 42.9764 27.716C42.9926 27.716 43.0059 27.7011 43.0059 27.6826C43.0059 27.6644 43.0588 27.5763 43.1232 27.4868C43.1877 27.3973 43.2406 27.3096 43.2406 27.2916C43.2406 27.2737 43.2671 27.2275 43.2994 27.1888C43.4351 27.0263 43.4755 26.9658 43.4755 26.9249C43.4755 26.9011 43.4895 26.8817 43.5067 26.8817C43.524 26.8817 43.5486 26.8478 43.5616 26.8066C43.5745 26.7652 43.6288 26.6763 43.6822 26.6088C43.7355 26.5412 43.7953 26.4399 43.815 26.3836C43.8349 26.3271 43.8647 26.2894 43.8814 26.2997C43.8979 26.3099 43.9115 26.2975 43.9115 26.2722C43.9115 26.2467 43.9644 26.1521 44.029 26.0618C44.0935 25.9713 44.1464 25.8852 44.1464 25.8703C44.1464 25.8554 44.1991 25.7743 44.2638 25.6902C44.3283 25.6061 44.3812 25.5184 44.3812 25.4955C44.3812 25.4725 44.4039 25.4451 44.4315 25.4345C44.4591 25.424 44.4819 25.3935 44.4819 25.3667C44.4819 25.3399 44.5007 25.2975 44.5238 25.2723C44.5779 25.2137 44.6397 25.1177 44.6907 25.0128C44.7131 24.9669 44.7808 24.8634 44.8414 24.7826C44.9018 24.7021 44.9515 24.6158 44.9515 24.5908C44.9515 24.5659 44.9674 24.5456 44.9867 24.5456C45.0061 24.5456 45.0377 24.5005 45.0571 24.4454C45.0765 24.3904 45.1043 24.3454 45.1192 24.3454C45.1341 24.3454 45.1632 24.304 45.1841 24.2536C45.2048 24.2031 45.2437 24.1242 45.2705 24.0783C45.3257 23.9832 45.307 23.8883 45.2157 23.8017C45.1811 23.7689 45.1528 23.72 45.1528 23.6932C45.1528 23.6664 45.1376 23.6444 45.1192 23.6444C45.1007 23.6444 45.0856 23.6238 45.0856 23.5985C45.0856 23.5732 45.0632 23.534 45.0357 23.5112C45.0083 23.4886 44.994 23.4568 45.0041 23.4405C45.0142 23.4241 45.0066 23.4109 44.9871 23.4109C44.9675 23.4109 44.9515 23.3916 44.9515 23.3682C44.9515 23.3447 44.9251 23.3008 44.8928 23.2705C44.8 23.1832 44.7601 23.1274 44.7353 23.0497C44.7227 23.01 44.6929 22.9582 44.6693 22.9348C44.6258 22.8915 44.4841 22.6622 44.4066 22.5102C44.3834 22.4647 44.3418 22.4018 44.3141 22.3708C44.2134 22.2579 44.1092 22.0926 44.0385 21.9341C44.0159 21.8836 43.9858 21.8423 43.9713 21.8423C43.9568 21.8423 43.9452 21.8193 43.9452 21.7912C43.9452 21.7632 43.9225 21.7315 43.8948 21.721C43.8671 21.7104 43.8445 21.688 43.8445 21.6712C43.8445 21.6436 43.685 21.3821 43.6434 21.3417C43.634 21.3326 43.6039 21.28 43.5766 21.2249C43.5491 21.1698 43.47 21.0466 43.4004 20.951C43.331 20.8555 43.2741 20.7687 43.2741 20.7585C43.2741 20.7354 43.103 20.4715 43.055 20.4204C43.0359 20.4001 42.9831 20.3103 42.9375 20.221C42.892 20.1317 42.8398 20.0399 42.8213 20.0172C42.7371 19.9131 42.7176 19.8838 42.6704 19.7898C42.6174 19.6844 42.6081 19.6707 42.502 19.5429C42.4655 19.4986 42.4355 19.4423 42.4355 19.4177C42.4355 19.3929 42.4224 19.3727 42.406 19.3727C42.3899 19.3727 42.3565 19.3239 42.332 19.2643C42.3074 19.2046 42.2526 19.1183 42.2104 19.0728C42.1683 19.027 42.1337 18.9768 42.1337 18.9612C42.1337 18.9456 42.0733 18.8471 41.9995 18.7426C41.9256 18.6379 41.8653 18.534 41.8653 18.5119C41.8653 18.4898 41.854 18.4717 41.8402 18.4715C41.8263 18.4715 41.7702 18.3889 41.7155 18.288C41.6609 18.187 41.6041 18.1046 41.5897 18.1046C41.5752 18.1046 41.5634 18.0815 41.5634 18.0535C41.5634 18.0254 41.5422 17.9942 41.5161 17.9843C41.4901 17.9743 41.4603 17.9325 41.4499 17.8913C41.4396 17.8501 41.4004 17.7814 41.363 17.7385C41.3256 17.6956 41.295 17.6402 41.295 17.6156C41.295 17.5908 41.2818 17.5705 41.2655 17.5705C41.2493 17.5705 41.2173 17.5254 41.1944 17.4705C41.1715 17.4154 41.1405 17.3703 41.1256 17.3703C41.1106 17.3703 41.0877 17.3373 41.0749 17.2967C41.0619 17.2564 41.0345 17.2043 41.0139 17.1811C40.9285 17.0855 40.9046 17.0481 40.862 16.9448C40.8374 16.8851 40.8051 16.8364 40.7901 16.8364C40.7751 16.8364 40.7524 16.8037 40.7398 16.7638C40.727 16.7239 40.7031 16.6752 40.6866 16.6554C40.5508 16.4933 40.5229 16.4529 40.5033 16.3917C40.491 16.3535 40.4643 16.3033 40.4436 16.28C40.3228 16.1443 40.2359 16.0026 40.248 15.9603C40.2519 15.9466 40.2411 15.9352 40.2238 15.9352C40.2066 15.9352 40.1822 15.9027 40.1694 15.8628C40.1568 15.8228 40.1327 15.774 40.1162 15.7543C39.9806 15.5921 39.9525 15.5517 39.933 15.4907C39.9209 15.4524 39.8939 15.4035 39.8734 15.3818C39.8527 15.3604 39.8133 15.309 39.7855 15.2677C39.7578 15.2265 39.7163 15.1733 39.6932 15.1493C39.6703 15.1253 39.6513 15.0918 39.6513 15.0749C39.6513 15.0444 39.399 14.6449 39.2998 14.5185C39.2719 14.4827 39.2488 14.4338 39.2488 14.41C39.2488 14.3862 39.2336 14.3668 39.2153 14.3668C39.1968 14.3668 39.1818 14.3438 39.1818 14.3157C39.1818 14.2875 39.159 14.2558 39.1314 14.2453C39.1038 14.2347 39.0811 14.2069 39.0811 14.1833C39.0811 14.1599 39.031 14.0675 38.9698 13.9784C38.9086 13.8891 38.8487 13.7898 38.8367 13.7576C38.8142 13.6976 32.8903 13.6619 32.8305 13.7216Z" fill="#44486C"/>
<path fill-rule="evenodd" clip-rule="evenodd" d="M3.27163 0.960868C3.10559 0.978627 2.96212 1.00325 2.95286 1.01582C2.9436 1.02822 2.83801 1.05804 2.71811 1.08183C2.59821 1.10578 2.49499 1.13896 2.48893 1.15588C2.48269 1.17263 2.448 1.18654 2.41163 1.18654C2.3505 1.18654 2.08562 1.31051 2.04722 1.35725C2.03796 1.36848 1.99569 1.38858 1.95326 1.40165C1.91082 1.41488 1.831 1.4695 1.77594 1.52294C1.72087 1.57655 1.66462 1.62028 1.65098 1.62028C1.63718 1.62028 1.60148 1.64876 1.57167 1.68361C1.5417 1.71829 1.49673 1.75967 1.47164 1.77525C1.41018 1.81395 1.24212 2.04096 1.24212 2.08535C1.24212 2.10495 1.2273 2.12087 1.20911 2.12087C1.19109 2.12087 1.16685 2.1584 1.15523 2.2043C1.14361 2.25021 1.12188 2.28773 1.1069 2.28773C1.09191 2.28773 1.06901 2.33665 1.05604 2.39629C1.04307 2.45594 1.01815 2.51374 1.00097 2.52463C0.98363 2.53568 0.95214 2.64827 0.930922 2.77492C0.909704 2.90174 0.877709 3.0155 0.85969 3.0279C0.812371 3.0604 0.81456 4.23631 0.861879 4.29462C0.882255 4.31975 0.910041 4.40787 0.923344 4.49046C0.950288 4.65682 1.05587 4.91064 1.12828 4.98268C1.15388 5.00814 1.17493 5.05069 1.17493 5.07683C1.17493 5.10313 1.19059 5.12458 1.20962 5.12458C1.22865 5.12458 1.25407 5.15071 1.26637 5.18288C1.2923 5.25174 1.86064 5.82537 1.90274 5.82537C1.91874 5.82537 1.95747 5.85536 1.98912 5.89205C2.02061 5.92874 2.06777 5.95889 2.09353 5.95889C2.11946 5.95889 2.14927 5.98134 2.15988 6.00882C2.17049 6.03646 2.2008 6.05891 2.22707 6.05891C2.25334 6.05891 2.28348 6.08153 2.29409 6.109C2.3047 6.13648 2.33417 6.1591 2.3596 6.1591C2.38502 6.1591 2.44076 6.18909 2.4832 6.22577C2.5258 6.26246 2.58087 6.29262 2.60579 6.29262C2.63072 6.29262 2.65092 6.30569 2.65092 6.32194C2.65092 6.33802 2.70009 6.37119 2.76004 6.39565C2.81999 6.41995 2.88904 6.45932 2.91328 6.48311C2.9377 6.50673 2.9793 6.52616 3.00557 6.52616C3.032 6.52616 3.05356 6.54024 3.05356 6.55732C3.05356 6.57441 3.08757 6.59904 3.129 6.61194C3.17059 6.62467 3.21202 6.64461 3.22128 6.65583C3.23054 6.66706 3.32855 6.72134 3.43935 6.77646C3.54999 6.83158 3.64833 6.88669 3.6576 6.89892C3.66703 6.91132 3.71502 6.93143 3.76419 6.94366C3.81353 6.95605 3.86136 6.98587 3.87062 7.01C3.88005 7.03412 3.93259 7.06378 3.98765 7.07567C4.04272 7.08773 4.0961 7.11923 4.10637 7.1457C4.11648 7.172 4.14797 7.19362 4.17626 7.19362C4.20455 7.19362 4.22762 7.20501 4.22762 7.21891C4.22762 7.23282 4.27662 7.26565 4.33657 7.29196C4.39652 7.31826 4.46405 7.35562 4.48644 7.37522C4.55919 7.43838 4.61122 7.47775 4.73079 7.55951C4.83081 7.6282 4.94364 7.73776 5.05781 7.87782C5.27976 8.14956 5.33095 8.63675 5.17081 8.95255C5.13174 9.02961 5.09924 9.10467 5.09856 9.11941C5.09637 9.16381 4.83486 9.3295 4.76665 9.3295C4.73163 9.3295 4.69694 9.34726 4.68953 9.36904C4.67252 9.4198 4.0311 9.42399 3.9986 9.37339C3.98614 9.35429 3.94134 9.32782 3.89908 9.31459C3.79518 9.28242 3.58148 9.0725 3.50654 8.92909C3.45636 8.8331 3.44289 8.70678 3.43026 8.21993L3.41511 7.62753H2.0937H0.772461L0.772629 8.16983C0.772629 8.70695 0.823148 9.29733 0.871646 9.3295C0.885623 9.33871 0.915766 9.42499 0.938668 9.52149C0.96157 9.61782 0.992387 9.69657 1.00704 9.69657C1.02152 9.69657 1.04341 9.73543 1.05537 9.78284C1.06732 9.83042 1.09191 9.88672 1.10993 9.90816C1.24363 10.0665 1.27563 10.1114 1.27563 10.1407C1.27563 10.1806 1.48882 10.3863 1.66782 10.5195C1.73805 10.5718 1.81551 10.6332 1.83993 10.6562C1.86434 10.679 1.90577 10.6979 1.93221 10.6979C1.95848 10.6979 1.98003 10.71 1.98003 10.7249C1.98003 10.7579 2.28618 10.8939 2.42039 10.9206C2.47343 10.9311 2.51688 10.9512 2.51688 10.9653C2.51688 10.9794 2.57346 11.0013 2.64267 11.0142C2.71171 11.0269 2.78497 11.0512 2.80534 11.068C2.82572 11.0846 2.93888 11.108 3.05693 11.1201C3.17497 11.132 3.28241 11.1583 3.29554 11.1786C3.33023 11.2318 5.19522 11.2292 5.30434 11.1756C5.34863 11.1539 5.47139 11.1266 5.57732 11.1149C5.68307 11.1032 5.77754 11.0811 5.78714 11.0655C5.79674 11.0501 5.86494 11.0273 5.93853 11.0149C6.01228 11.0025 6.07257 10.9787 6.07257 10.9619C6.07257 10.9452 6.098 10.9315 6.12898 10.9315C6.20712 10.9315 6.40801 10.8564 6.40801 10.8272C6.40801 10.814 6.45331 10.7934 6.50872 10.7813C6.56395 10.7691 6.60925 10.7455 6.60925 10.7286C6.60925 10.7117 6.63249 10.6979 6.66061 10.6979C6.6889 10.6979 6.72073 10.6753 6.73134 10.6478C6.74194 10.6202 6.77108 10.5977 6.79617 10.5977C6.85763 10.5977 7.3709 10.0807 7.40004 9.98941C7.41284 9.94937 7.44466 9.89543 7.47076 9.86946C7.49687 9.84332 7.52701 9.77882 7.53762 9.72605C7.54823 9.67311 7.56827 9.62989 7.58207 9.62989C7.59588 9.62989 7.61727 9.56656 7.62973 9.48899C7.64219 9.41159 7.66526 9.34022 7.68109 9.33051C7.80217 9.25578 7.80503 7.27102 7.68429 7.19395C7.66964 7.18457 7.64707 7.12811 7.63394 7.06847C7.62097 7.00883 7.59942 6.96007 7.58612 6.96007C7.57298 6.96007 7.54368 6.90931 7.52111 6.84732C7.49855 6.7855 7.44264 6.69453 7.39701 6.64545C7.3512 6.59636 7.31382 6.54777 7.31382 6.53755C7.31382 6.51812 7.22524 6.41777 7.07352 6.26548C6.99622 6.18791 6.85881 6.06561 6.63451 5.87513C6.60218 5.84782 6.56024 5.82537 6.54122 5.82537C6.52219 5.82537 6.49794 5.80275 6.48733 5.77528C6.47672 5.7478 6.44927 5.72518 6.42637 5.72518C6.40347 5.72518 6.34941 5.69486 6.3063 5.6575C6.26319 5.62031 6.19415 5.58144 6.15273 5.57105C6.1113 5.56083 6.0692 5.53118 6.05927 5.50521C6.04933 5.47941 6.01801 5.4583 5.98972 5.4583C5.9616 5.4583 5.93836 5.4444 5.93836 5.42748C5.93836 5.41056 5.89441 5.3871 5.84052 5.37537C5.7868 5.36365 5.73493 5.33383 5.7255 5.3092C5.71591 5.28457 5.66185 5.25425 5.60527 5.24185C5.54869 5.22945 5.50238 5.2055 5.50238 5.18858C5.50238 5.17165 5.48082 5.15792 5.45439 5.15792C5.42812 5.15792 5.38602 5.13915 5.36093 5.1162C5.336 5.09325 5.22537 5.02942 5.1154 4.9743C5.00527 4.91935 4.9076 4.86406 4.89817 4.85183C4.88874 4.83944 4.83974 4.81916 4.78922 4.80643C4.73853 4.79387 4.69728 4.77142 4.69728 4.75651C4.69728 4.7416 4.65097 4.71915 4.59439 4.70692C4.5378 4.69452 4.48358 4.6642 4.47415 4.63957C4.46455 4.61477 4.41403 4.58529 4.36183 4.57389C4.30946 4.5625 4.25843 4.53151 4.24816 4.50504C4.23806 4.47874 4.20657 4.45712 4.17828 4.45712C4.15016 4.45712 4.12692 4.44205 4.12692 4.42362C4.12692 4.40536 4.10806 4.39011 4.08499 4.38978C3.93646 4.38827 3.42251 3.8396 3.42251 3.68262C3.42251 3.63135 3.40736 3.5893 3.389 3.5893C3.37048 3.5893 3.35549 3.51425 3.35549 3.42244C3.35549 3.33063 3.36863 3.25557 3.38463 3.25557C3.40062 3.25557 3.42251 3.20163 3.43329 3.13562C3.46024 2.9701 3.72916 2.70288 3.9011 2.67088C3.96997 2.65798 4.02638 2.63419 4.02638 2.61777C4.02638 2.57958 4.35206 2.57891 4.37581 2.6171C4.38574 2.63302 4.45462 2.6558 4.52871 2.66753C4.60297 2.67943 4.66376 2.70389 4.66376 2.72198C4.66376 2.74024 4.68178 2.75498 4.70384 2.75498C4.75739 2.75498 4.93202 2.92369 4.93202 2.97546C4.93202 2.99791 4.94819 3.0217 4.96772 3.02823C4.98742 3.03477 5.01201 3.10362 5.02245 3.18119C5.03289 3.25892 5.05461 3.32242 5.07061 3.32242C5.08661 3.32242 5.09974 3.48761 5.09974 3.68949V4.05655H6.32415H7.54856V3.52061C7.54856 3.00796 7.50411 2.54238 7.44837 2.47135C7.43389 2.45292 7.41166 2.38909 7.39886 2.32945C7.38606 2.26981 7.36501 2.22105 7.35204 2.22105C7.33908 2.22105 7.30995 2.17967 7.28721 2.12925C7.26448 2.07882 7.22693 2.00594 7.20386 1.96741C7.13363 1.85081 6.71298 1.46045 6.6074 1.41388C6.55317 1.38992 6.50872 1.36077 6.50872 1.34888C6.50872 1.33698 6.46914 1.31738 6.42081 1.30532C6.37248 1.29325 6.31102 1.26159 6.28424 1.23495C6.25747 1.20832 6.20005 1.18654 6.15677 1.18654C6.11366 1.18654 6.07307 1.17263 6.06701 1.15588C6.06078 1.13896 5.95772 1.10578 5.83782 1.08183C5.71793 1.05804 5.61217 1.02822 5.60291 1.01565C5.54094 0.931215 3.90918 0.893017 3.27163 0.960868ZM34.7377 0.975276C34.6274 0.983318 34.5294 1.00108 34.5196 1.01448C34.51 1.02805 34.3748 1.05703 34.2192 1.07898C34.0636 1.10109 33.9277 1.13242 33.9172 1.14867C33.9068 1.16492 33.8341 1.18905 33.7558 1.20195C33.6773 1.21502 33.6131 1.23881 33.6131 1.25472C33.6131 1.27047 33.5602 1.29342 33.4958 1.30548C33.4311 1.31755 33.3782 1.3405 33.3782 1.35658C33.3782 1.37267 33.3292 1.40818 33.2693 1.43566C33.0965 1.51457 33.0439 1.55561 32.7929 1.80758C32.5275 2.07396 32.4391 2.18252 32.4391 2.24166C32.4391 2.26394 32.4271 2.28723 32.4125 2.29343C32.3683 2.31169 32.2417 2.63486 32.2171 2.79184C32.2043 2.87259 32.1774 2.94932 32.1572 2.96239C32.108 2.99405 32.1058 4.34923 32.1548 4.38324C32.1738 4.39631 32.2075 4.49599 32.2297 4.60489C32.2521 4.71379 32.2821 4.81146 32.2966 4.82184C32.3111 4.83223 32.3414 4.8783 32.364 4.92421C32.4113 5.02054 32.481 5.13362 32.5079 5.15792C32.518 5.16713 32.5709 5.23465 32.6251 5.30803C32.6794 5.38141 32.7434 5.45395 32.7673 5.46903C32.7913 5.4841 32.858 5.54793 32.9155 5.61093C32.973 5.67375 33.0327 5.72518 33.048 5.72518C33.0633 5.72518 33.119 5.77025 33.1719 5.82537C33.2248 5.88049 33.2859 5.92539 33.3075 5.92539C33.3292 5.92539 33.3555 5.948 33.3661 5.97548C33.3769 6.00312 33.3983 6.02557 33.4139 6.02557C33.4424 6.02557 33.6379 6.14737 33.7625 6.24253C33.7985 6.27 33.8475 6.29262 33.8714 6.29262C33.8955 6.29262 33.9151 6.30485 33.9151 6.31976C33.9151 6.33467 33.9678 6.36751 34.0324 6.39264C34.0969 6.41794 34.1498 6.4496 34.1498 6.463C34.1498 6.4764 34.1939 6.49718 34.2476 6.50891C34.3015 6.52063 34.3539 6.5518 34.364 6.57827C34.3743 6.60474 34.4056 6.62635 34.4339 6.62635C34.4622 6.62635 34.4852 6.63891 34.4852 6.65433C34.4852 6.66974 34.5457 6.70224 34.6195 6.72636C34.6932 6.75066 34.7537 6.78316 34.7537 6.79857C34.7537 6.81398 34.7752 6.82655 34.8015 6.82655C34.8279 6.82655 34.8695 6.84531 34.8941 6.86827C34.9187 6.89122 35.0253 6.95505 35.1312 7.01017C35.2371 7.06512 35.3237 7.1199 35.3239 7.13163C35.3239 7.14336 35.3616 7.16245 35.4077 7.17401C35.4539 7.18557 35.4916 7.20853 35.4916 7.22511C35.4916 7.2417 35.5445 7.27252 35.6091 7.2938C35.6736 7.31491 35.7265 7.34624 35.7265 7.36316C35.7265 7.38008 35.7486 7.39382 35.7757 7.39382C35.8026 7.39382 35.8408 7.42397 35.8607 7.46066C35.8804 7.49735 35.9109 7.52734 35.9286 7.52734C35.9665 7.52734 36.0832 7.61865 36.1589 7.70744C36.1886 7.74212 36.2393 7.79422 36.2716 7.82321C36.3039 7.85219 36.3302 7.89357 36.3302 7.91501C36.3302 7.93646 36.3519 7.96226 36.3782 7.97248C36.4046 7.98253 36.4365 8.05909 36.4491 8.14286C36.4617 8.22646 36.4855 8.29498 36.5018 8.29498C36.5181 8.29498 36.5316 8.37004 36.5316 8.46184C36.5316 8.55365 36.5198 8.62871 36.5057 8.62871C36.4914 8.62871 36.4627 8.71834 36.4417 8.8279C36.4036 9.02744 36.2509 9.22948 36.1382 9.22948C36.1147 9.22948 36.0955 9.24423 36.0955 9.26232C36.0955 9.28058 36.035 9.30504 35.9612 9.31677C35.8875 9.32849 35.827 9.35111 35.827 9.36719C35.827 9.38311 35.729 9.39635 35.6091 9.39635C35.4891 9.39635 35.3911 9.38294 35.3911 9.36669C35.3911 9.35044 35.323 9.32699 35.24 9.31459C35.157 9.30219 35.0891 9.27723 35.0891 9.25897C35.0891 9.24087 35.0437 9.21022 34.9883 9.19095C34.9256 9.16934 34.8798 9.12544 34.8672 9.07552C34.8559 9.03112 34.8242 8.98237 34.7966 8.96712C34.7683 8.95121 34.7389 8.87163 34.7289 8.78384C34.7193 8.69857 34.6983 8.62871 34.6823 8.62871C34.6661 8.62871 34.653 8.40337 34.653 8.12812V7.62753H33.3447H32.0364V8.26164C32.0364 8.61028 32.0496 8.89576 32.0654 8.89576C32.0812 8.89576 32.1026 8.9879 32.1129 9.10065C32.1232 9.21323 32.1472 9.31509 32.1663 9.32682C32.1855 9.33855 32.2114 9.4126 32.224 9.49134C32.2367 9.56991 32.2656 9.65284 32.2883 9.67546C32.3109 9.69791 32.3411 9.75252 32.3552 9.79675C32.3692 9.84098 32.3976 9.89493 32.4184 9.9167C32.4389 9.93848 32.485 9.99645 32.5207 10.0455C32.5566 10.0946 32.6132 10.1662 32.6465 10.2045C32.68 10.2429 32.7073 10.2866 32.7073 10.3019C32.7073 10.3169 32.7432 10.3384 32.787 10.3493C32.8308 10.3603 32.8857 10.4049 32.9092 10.4485C32.9326 10.492 32.9949 10.5428 33.0476 10.561C33.1004 10.5793 33.1435 10.6084 33.1435 10.6257C33.1435 10.6431 33.1849 10.6676 33.2354 10.6802C33.2859 10.6927 33.3351 10.7132 33.3445 10.7256C33.3838 10.7767 33.6429 10.8943 33.766 10.9169C33.8388 10.9301 33.9066 10.9537 33.9169 10.9693C33.927 10.9849 34.01 11.0077 34.1013 11.0197C34.1926 11.032 34.2758 11.0548 34.2864 11.0705C34.2968 11.0864 34.4516 11.1089 34.6301 11.1206C34.8087 11.1322 34.9549 11.1544 34.9549 11.17C34.9549 11.1856 35.2191 11.1985 35.5419 11.1985C35.8647 11.1985 36.129 11.1856 36.129 11.17C36.129 11.1544 36.2751 11.1322 36.4538 11.1206C36.6325 11.1089 36.7871 11.0861 36.7977 11.07C36.8081 11.0539 36.8921 11.0298 36.9844 11.0164C37.0767 11.003 37.1671 10.9804 37.1857 10.9663C37.2042 10.9522 37.264 10.9299 37.3187 10.9169C37.3734 10.9038 37.482 10.8643 37.56 10.8289C37.6381 10.7936 37.7114 10.7646 37.723 10.7646C37.7345 10.7646 37.7649 10.7458 37.7907 10.7229C37.8742 10.6483 37.9221 10.6152 38.0153 10.5674C38.1457 10.5004 38.5108 10.1467 38.5108 10.0873C38.5108 10.0599 38.5333 10.0288 38.5609 10.0182C38.5887 10.0077 38.6113 9.97601 38.6113 9.94803C38.6113 9.91989 38.6253 9.89694 38.6423 9.89694C38.6591 9.89694 38.683 9.85187 38.6952 9.79675C38.7073 9.74163 38.7297 9.69657 38.7448 9.69657C38.78 9.69657 38.8462 9.5101 38.8462 9.41075C38.8462 9.3692 38.8612 9.33017 38.8794 9.32397C38.8977 9.31777 38.9227 9.19648 38.9346 9.05424C38.9467 8.91201 38.9695 8.79557 38.9853 8.79557C39.001 8.79557 39.0139 8.53271 39.0139 8.21155C39.0139 7.89039 39.0008 7.62753 38.9846 7.62753C38.9686 7.62753 38.9451 7.52232 38.9323 7.39382C38.9196 7.26532 38.8967 7.16028 38.8816 7.16028C38.8664 7.16028 38.8375 7.09477 38.8172 7.01469C38.797 6.93478 38.7575 6.85034 38.7295 6.82705C38.7014 6.80393 38.6785 6.76423 38.6785 6.7391C38.6785 6.7138 38.6643 6.69303 38.6472 6.69303C38.63 6.69303 38.6071 6.66572 38.5965 6.63238C38.5722 6.55649 38.0022 5.97598 37.8991 5.92204C37.8572 5.90026 37.8109 5.86206 37.7963 5.8371C37.7814 5.8123 37.7488 5.79203 37.7235 5.79203C37.6982 5.79203 37.6727 5.78064 37.6664 5.7669C37.646 5.72133 37.4455 5.59501 37.3591 5.57357C37.3126 5.56184 37.2661 5.53118 37.2562 5.50521C37.2463 5.47941 37.215 5.4583 37.1867 5.4583C37.1585 5.4583 37.1353 5.44323 37.1353 5.4248C37.1353 5.40654 37.1146 5.39146 37.0892 5.39146C37.0637 5.39146 37.0248 5.36968 37.0026 5.34321C36.9804 5.31657 36.9073 5.2767 36.8401 5.25475C36.7729 5.23264 36.6992 5.19812 36.6763 5.17785C36.57 5.08454 36.5356 5.0636 36.4203 5.02205C36.3523 4.99759 36.2967 4.96676 36.2967 4.95353C36.2967 4.94046 36.2514 4.91968 36.1962 4.90762C36.1408 4.89556 36.0955 4.87294 36.0955 4.85753C36.0955 4.84212 36.0515 4.81983 35.9976 4.80811C35.9437 4.79638 35.8922 4.76706 35.8829 4.74294C35.8737 4.71898 35.8235 4.68866 35.7715 4.67559C35.7194 4.66269 35.6691 4.64191 35.6596 4.62968C35.6378 4.60104 35.5318 4.53469 35.4246 4.48259C35.3784 4.46014 35.3286 4.42261 35.3139 4.39932C35.2991 4.37604 35.269 4.3566 35.2467 4.35627C35.2247 4.3561 35.1701 4.31757 35.1257 4.27099C35.0812 4.22442 35.0019 4.16428 34.9495 4.1373C34.8971 4.11033 34.8542 4.06845 34.8542 4.04415C34.8542 4.02003 34.8241 3.97295 34.7872 3.93978C34.7503 3.90661 34.7202 3.86037 34.7202 3.83725C34.7202 3.81413 34.7021 3.78917 34.6803 3.78196C34.6228 3.76287 34.621 3.18286 34.6782 3.16377C34.7013 3.15623 34.7202 3.12289 34.7202 3.08988C34.7202 3.02119 34.9743 2.75498 35.0399 2.75498C35.0639 2.75498 35.0898 2.73622 35.0975 2.71327C35.1075 2.68328 35.2139 2.67155 35.4749 2.67155C35.7358 2.67155 35.8422 2.68328 35.8523 2.71327C35.8599 2.73622 35.8838 2.75549 35.9053 2.75599C35.9725 2.75766 36.1655 2.95368 36.2017 3.05688C36.2206 3.11116 36.2499 3.15556 36.2664 3.15556C36.283 3.15556 36.2967 3.35827 36.2967 3.60605V4.05655H37.5379H38.779V3.47253C38.779 3.15137 38.7661 2.88851 38.7501 2.88851C38.7342 2.88851 38.7118 2.80859 38.7002 2.71092C38.681 2.54842 38.5995 2.32878 38.5433 2.28773C38.5308 2.27869 38.5032 2.21837 38.4821 2.15404C38.4611 2.08971 38.406 1.99639 38.3599 1.94697C38.3136 1.89738 38.2759 1.84662 38.2759 1.83422C38.2759 1.80591 38.113 1.65395 38.0812 1.65278C38.0684 1.65228 38.0143 1.60772 37.9611 1.55377C37.9079 1.49982 37.8102 1.43784 37.7441 1.41622C37.6777 1.39444 37.6033 1.35641 37.5784 1.33162C37.5534 1.30682 37.5115 1.28655 37.4852 1.28655C37.4588 1.28655 37.4372 1.27231 37.4372 1.25472C37.4372 1.23713 37.3842 1.21301 37.3195 1.20094C37.2547 1.18888 37.1944 1.1671 37.1855 1.15286C37.1766 1.13845 37.0371 1.10746 36.8756 1.08401C36.714 1.06055 36.5725 1.02755 36.5612 1.01079C36.5395 0.978459 35.0804 0.950146 34.7377 0.975276ZM63.7541 0.975611C63.6621 0.98382 63.5791 1.00141 63.5695 1.01481C63.5599 1.02822 63.4314 1.05888 63.2837 1.08283C63.1362 1.10679 63.0003 1.13812 62.9818 1.15253C62.9634 1.16693 62.8993 1.18922 62.8393 1.20195C62.7794 1.21468 62.7302 1.2373 62.7302 1.25221C62.7302 1.26695 62.6775 1.28907 62.6128 1.30113C62.5483 1.31319 62.4955 1.33547 62.4955 1.35089C62.4955 1.36613 62.4465 1.39863 62.3863 1.42309C62.2584 1.47536 62.2407 1.48893 61.9027 1.79234C61.7906 1.89302 61.6904 2.01315 61.6904 2.04699C61.6904 2.06542 61.6678 2.08904 61.64 2.09959C61.6124 2.11015 61.5897 2.14181 61.5897 2.16996C61.5897 2.1981 61.5774 2.22105 61.5622 2.22105C61.5267 2.22105 61.3962 2.5077 61.3682 2.64743C61.3563 2.70657 61.3342 2.75498 61.3192 2.75498C61.3042 2.75498 61.2827 2.82635 61.2714 2.91347C61.2601 3.00076 61.2327 3.10211 61.2106 3.1388C61.1582 3.22559 61.1341 8.28543 61.1842 8.66205C61.2295 9.00231 61.294 9.29616 61.3233 9.29616C61.3366 9.29616 61.3573 9.34877 61.3694 9.41293C61.3815 9.47726 61.4029 9.5297 61.4167 9.5297C61.4307 9.5297 61.4622 9.58499 61.4868 9.65267C61.5344 9.78385 61.5432 9.79675 61.7239 10.0026C61.9017 10.205 62.0054 10.3072 62.108 10.3808C62.1592 10.4175 62.2188 10.4642 62.2403 10.4845C62.2621 10.5049 62.336 10.5416 62.4044 10.5662C62.4729 10.591 62.529 10.6219 62.529 10.6351C62.529 10.6483 62.5743 10.6691 62.6297 10.6812C62.6849 10.6932 62.7302 10.7153 62.7302 10.7301C62.7302 10.745 62.7868 10.7676 62.856 10.7805C62.9252 10.7934 62.9969 10.8159 63.0155 10.8304C63.0619 10.8673 63.3811 10.9315 63.5175 10.9315C63.5796 10.9315 63.6367 10.9502 63.6444 10.9732C63.655 11.0052 63.8815 11.0149 64.6255 11.0149C65.3695 11.0149 65.596 11.0052 65.6068 10.9732C65.6145 10.9502 65.6622 10.9315 65.713 10.9315C65.8331 10.9315 66.1926 10.8618 66.2357 10.8303C66.2542 10.8167 66.3184 10.7952 66.3783 10.7825C66.4383 10.7698 66.4873 10.7462 66.4873 10.7301C66.4873 10.714 66.5402 10.691 66.6047 10.679C66.6693 10.6669 66.722 10.6473 66.722 10.6356C66.722 10.6237 66.7712 10.5925 66.8312 10.5662C66.8911 10.5399 66.9585 10.5024 66.9809 10.483C67.0322 10.4384 67.0748 10.4054 67.2409 10.2819C67.4003 10.1631 67.4936 10.0732 67.4936 10.0378C67.4936 10.0236 67.5238 9.98606 67.5608 9.95473C67.5977 9.92324 67.6278 9.8765 67.6278 9.8507C67.6278 9.8249 67.6491 9.79574 67.675 9.78586C67.7009 9.77598 67.7323 9.72186 67.7447 9.66557C67.7572 9.60928 67.7801 9.56321 67.7956 9.56321C67.8111 9.56321 67.8345 9.51429 67.8474 9.45465C67.8604 9.39501 67.8848 9.33737 67.9018 9.32682C67.9187 9.3161 67.9503 9.17704 67.972 9.01805C67.9939 8.8589 68.0234 8.72889 68.0379 8.72889C68.0522 8.72889 68.064 7.97784 68.064 7.06009V5.39146H66.3196H64.5752V6.12576V6.85989H65.082H65.5887L65.5768 7.74547C65.5687 8.34826 65.5529 8.63876 65.5274 8.65501C65.5069 8.66808 65.4791 8.71365 65.4656 8.75637C65.4375 8.84617 65.2567 9.0395 65.1706 9.07183C65.1384 9.0839 65.112 9.10802 65.112 9.12528C65.112 9.23568 64.231 9.2397 64.0961 9.12997C63.9127 8.98086 63.7741 8.83209 63.7532 8.76223C63.7396 8.71633 63.7115 8.65769 63.6906 8.63189C63.6365 8.56504 63.6367 3.48576 63.6907 3.41925C63.7118 3.39345 63.7394 3.32343 63.7524 3.26345C63.7835 3.11836 63.9501 2.94798 64.156 2.85081C64.3466 2.76085 64.9429 2.73471 64.97 2.81513C64.9773 2.83708 65.0049 2.85517 65.0313 2.85517C65.1256 2.85517 65.3467 3.01131 65.3467 3.07782C65.3467 3.10044 65.3705 3.13193 65.3995 3.14819C65.4286 3.16427 65.4608 3.24016 65.471 3.31672C65.4813 3.39329 65.5029 3.45578 65.5189 3.45578C65.535 3.45578 65.548 3.65866 65.548 3.90644V4.35694H66.8059H68.064V3.83926C68.064 3.55445 68.0502 3.29545 68.0333 3.26345C68.0167 3.23162 67.9862 3.0862 67.9657 2.94011C67.9453 2.79419 67.9156 2.66653 67.8998 2.65647C67.884 2.64642 67.8604 2.58946 67.8474 2.52982C67.8345 2.47001 67.8116 2.42126 67.7966 2.42126C67.7816 2.42126 67.7592 2.38138 67.7469 2.3328C67.7051 2.16661 67.255 1.62028 67.1602 1.62028C67.1445 1.62028 67.0844 1.57639 67.0267 1.52261C66.9689 1.469 66.8766 1.41522 66.8219 1.40316C66.767 1.39126 66.722 1.36881 66.722 1.3534C66.722 1.33782 66.6769 1.31537 66.6215 1.30331C66.5661 1.29124 66.5208 1.26745 66.5208 1.25053C66.5208 1.23361 66.4944 1.21971 66.4622 1.21971C66.4299 1.21954 66.359 1.19625 66.3044 1.16811C66.25 1.13979 66.0916 1.09959 65.9523 1.07848C65.813 1.05737 65.6891 1.02554 65.6768 1.00778C65.6539 0.974271 64.0653 0.947633 63.7541 0.975611ZM11.0192 1.40332C11.0064 1.52278 10.984 1.62028 10.9697 1.62028C10.9552 1.62028 10.9327 1.72918 10.9195 1.8622C10.9064 1.99539 10.8838 2.11919 10.8695 2.13762C10.8552 2.15588 10.8245 2.33246 10.8013 2.52982C10.7781 2.72701 10.7473 2.88851 10.7328 2.88851C10.7183 2.88851 10.6959 3.00863 10.6831 3.15556C10.6701 3.30232 10.6481 3.42244 10.6338 3.42244C10.6196 3.42244 10.5972 3.53133 10.5841 3.66436C10.5709 3.79754 10.5477 3.92169 10.5325 3.94045C10.5174 3.95921 10.4862 4.13563 10.4632 4.33265C10.4403 4.5295 10.41 4.69067 10.3961 4.69067C10.3823 4.69067 10.3604 4.81079 10.3475 4.95771C10.3347 5.10447 10.313 5.2246 10.2993 5.2246C10.2857 5.2246 10.2549 5.38978 10.2306 5.59166C10.2065 5.79371 10.1757 5.95889 10.1621 5.95889C10.1484 5.95889 10.1264 6.07516 10.1132 6.21757C10.1001 6.3598 10.0784 6.48361 10.0654 6.49282C10.0417 6.50941 10.0125 6.67091 9.90561 7.37723C9.87513 7.57911 9.83926 7.75184 9.82596 7.76122C9.81265 7.7706 9.79093 7.88687 9.77779 8.01989C9.76466 8.15274 9.74294 8.26164 9.72963 8.26164C9.71616 8.26164 9.68518 8.44174 9.66059 8.66205C9.63584 8.88235 9.60502 9.06262 9.59188 9.06262C9.57875 9.06262 9.55753 9.16766 9.54457 9.29616C9.5316 9.42466 9.50887 9.5297 9.49422 9.5297C9.47956 9.5297 9.457 9.64999 9.44386 9.79675C9.43073 9.94368 9.40951 10.0638 9.39671 10.0638C9.37398 10.0638 9.29197 10.6364 9.29264 10.7896L9.29298 10.8648H10.6141H11.9351L11.9553 10.7896C11.9664 10.7483 11.9759 10.6582 11.976 10.5894C11.9764 10.5205 11.99 10.4642 12.0065 10.4642C12.0229 10.4642 12.0471 10.3141 12.0604 10.1305C12.0735 9.94686 12.0964 9.79675 12.1113 9.79675C12.1261 9.79675 12.149 9.6654 12.162 9.50474C12.1751 9.34408 12.1976 9.19765 12.2123 9.17939C12.227 9.16096 12.2579 8.93948 12.2813 8.68718C12.3048 8.4347 12.3352 8.22813 12.349 8.22813C12.3628 8.22813 12.3847 8.0931 12.3977 7.92791C12.4107 7.76273 12.4316 7.62753 12.4444 7.62753C12.457 7.62753 12.487 7.42096 12.511 7.16865C12.5349 6.91618 12.5663 6.6947 12.5806 6.67644C12.5947 6.65801 12.6175 6.51527 12.6309 6.3593C12.6444 6.20333 12.666 6.06813 12.6789 6.05891C12.7025 6.04233 12.7293 5.8577 12.8367 4.9743C12.868 4.7173 12.9044 4.49968 12.9179 4.49046C12.9312 4.48125 12.9531 4.32729 12.9664 4.14836C12.9799 3.96943 13.0028 3.82301 13.0174 3.82301C13.0321 3.82301 13.0546 3.6915 13.0678 3.531C13.0807 3.37033 13.1029 3.22391 13.1169 3.20548C13.138 3.17784 13.2181 2.53535 13.2178 2.39629C13.2173 2.20748 13.2818 2.42159 13.3006 2.67155C13.3138 2.84595 13.3367 2.98869 13.3513 2.98869C13.3662 2.98869 13.3891 3.1388 13.4022 3.32242C13.4153 3.50587 13.437 3.65615 13.4504 3.65615C13.4635 3.65615 13.4941 3.8664 13.5184 4.1234C13.5426 4.38023 13.5738 4.59048 13.5878 4.59048C13.6016 4.59048 13.6238 4.74076 13.6369 4.92421C13.6502 5.10782 13.6718 5.25793 13.6849 5.25793C13.6981 5.25793 13.728 5.4645 13.7514 5.71681C13.775 5.96911 13.8062 6.18322 13.821 6.19244C13.8356 6.20165 13.8587 6.35561 13.8722 6.53454C13.8857 6.71346 13.9081 6.85989 13.9222 6.85989C13.9362 6.85989 13.9584 7.00263 13.9715 7.17703C13.9847 7.35126 14.0066 7.494 14.0202 7.494C14.0337 7.494 14.0642 7.70794 14.0877 7.96963C14.1115 8.23115 14.1426 8.46017 14.1573 8.4786C14.1718 8.49686 14.1945 8.64328 14.2078 8.80395C14.2211 8.96444 14.2437 9.09596 14.258 9.09596C14.2723 9.09596 14.2947 9.24607 14.3078 9.42968C14.3211 9.61313 14.3427 9.76341 14.3558 9.76341C14.369 9.76341 14.3988 9.96981 14.4222 10.2223C14.4454 10.4746 14.4784 10.6862 14.4952 10.6922C14.5121 10.6984 14.5259 10.7396 14.5259 10.784V10.8648H15.8549H17.1839L17.1598 10.6394C17.1467 10.5155 17.1244 10.3992 17.1104 10.3808C17.0965 10.3625 17.0655 10.1859 17.0417 9.98858C17.0178 9.79139 16.9875 9.62989 16.974 9.62989C16.9607 9.62989 16.9394 9.50977 16.9264 9.36284C16.9136 9.21608 16.8909 9.09596 16.8762 9.09596C16.8614 9.09596 16.8385 8.98706 16.8254 8.85404C16.812 8.72085 16.7891 8.59704 16.7743 8.57861C16.7595 8.56035 16.7285 8.38377 16.7053 8.18642C16.682 7.98923 16.6521 7.82773 16.6388 7.82773C16.6253 7.82773 16.6039 7.70761 16.5909 7.56068C16.5781 7.41392 16.5552 7.2938 16.5403 7.2938C16.5253 7.2938 16.5024 7.18105 16.4894 7.04351C16.4764 6.90579 16.4545 6.79321 16.4406 6.79321C16.4268 6.79321 16.3959 6.62048 16.3724 6.40939C16.3488 6.1983 16.318 6.02557 16.3042 6.02557C16.2904 6.02557 16.2685 5.90545 16.2555 5.75852C16.2427 5.61176 16.2203 5.49164 16.2058 5.49164C16.1913 5.49164 16.1604 5.33014 16.1373 5.13279C16.114 4.9356 16.0834 4.75902 16.0689 4.74076C16.0546 4.72233 16.0322 4.59852 16.0191 4.46533C16.0059 4.33231 15.9835 4.22341 15.9694 4.22341C15.9551 4.22341 15.933 4.10329 15.9201 3.95637C15.9073 3.80961 15.8849 3.68949 15.8704 3.68949C15.8559 3.68949 15.8249 3.52798 15.8018 3.33063C15.7786 3.13344 15.7478 2.95686 15.7335 2.9386C15.7192 2.92017 15.6968 2.79636 15.6836 2.66318C15.6705 2.53015 15.6493 2.42126 15.6366 2.42126C15.6238 2.42126 15.5937 2.25238 15.5695 2.04581C15.5452 1.83941 15.5139 1.66283 15.4997 1.65362C15.4856 1.64457 15.4634 1.53568 15.4502 1.4117L15.4263 1.18654H13.2345H11.0426L11.0192 1.40332ZM19.2107 1.47855C19.1996 1.63904 19.1804 2.69785 19.1681 3.83122C19.156 4.96475 19.1347 5.89205 19.1211 5.89205C19.1075 5.89205 19.0851 6.88334 19.0713 8.09478C19.0566 9.39216 19.0337 10.2973 19.0155 10.2973C18.9985 10.2973 18.9891 10.4206 18.9945 10.5728L19.0042 10.848L20.2537 10.8567L21.5034 10.8654V8.27873C21.5034 6.57642 21.5149 5.69185 21.5369 5.69185C21.5586 5.69185 21.5726 5.14552 21.5765 4.13161C21.5799 3.2735 21.5881 2.64274 21.595 2.73002C21.6019 2.81714 21.6206 2.88851 21.6364 2.88851C21.6524 2.88851 21.676 3.00109 21.689 3.1388C21.7019 3.27652 21.723 3.3891 21.7358 3.3891C21.7486 3.3891 21.7787 3.5506 21.8026 3.74779C21.8266 3.94514 21.8579 4.12172 21.8724 4.13998C21.8867 4.15841 21.9092 4.27099 21.9227 4.39028C21.936 4.50956 21.9586 4.62231 21.9729 4.64057C21.9874 4.659 22.0098 4.78281 22.0229 4.916C22.036 5.04902 22.0573 5.15792 22.0699 5.15792C22.0827 5.15792 22.1128 5.32679 22.1371 5.53336C22.1613 5.73976 22.1928 5.91634 22.2071 5.92539C22.2216 5.9346 22.2442 6.05104 22.2575 6.18406C22.2708 6.31725 22.2934 6.42614 22.3075 6.42614C22.3216 6.42614 22.3439 6.54627 22.3567 6.69303C22.3696 6.83995 22.3924 6.96007 22.4074 6.96007C22.4223 6.96007 22.4533 7.1328 22.4761 7.34389C22.499 7.55499 22.5298 7.72754 22.5444 7.72754C22.5591 7.72754 22.5816 7.84029 22.5946 7.97784C22.6076 8.11555 22.6291 8.22813 22.6424 8.22813C22.6556 8.22813 22.6859 8.40086 22.7095 8.61195C22.7332 8.82305 22.7647 8.99577 22.7797 8.99577C22.7947 8.99577 22.8176 9.11589 22.8304 9.26282C22.8433 9.40958 22.8657 9.5297 22.8802 9.5297C22.8947 9.5297 22.9171 9.64245 22.9301 9.78C22.943 9.91771 22.9642 10.0303 22.9774 10.0303C22.9903 10.0303 23.0212 10.199 23.0457 10.4052C23.1064 10.911 22.9681 10.8648 24.415 10.8648H25.6542L25.6749 10.7396C25.6864 10.6708 25.696 10.5731 25.6961 10.5227C25.6963 10.4721 25.7098 10.4309 25.7261 10.4309C25.7424 10.4309 25.7665 10.3295 25.7797 10.2055C25.793 10.0817 25.8155 9.96529 25.8298 9.94686C25.8443 9.9286 25.8669 9.80848 25.8802 9.67998C25.8935 9.55148 25.9169 9.43102 25.9322 9.41243C25.9476 9.39367 25.9784 9.21725 26.0006 9.02023C26.0228 8.82321 26.0521 8.66205 26.0658 8.66205C26.0792 8.66205 26.1011 8.55315 26.1143 8.42013C26.1274 8.28711 26.1503 8.16313 26.1651 8.1447C26.1799 8.12644 26.2111 7.95003 26.2343 7.75267C26.2576 7.55532 26.2884 7.39382 26.3029 7.39382C26.3173 7.39382 26.3397 7.2737 26.3525 7.12694C26.3655 6.98001 26.3876 6.85989 26.4019 6.85989C26.416 6.85989 26.4384 6.75099 26.4516 6.61797C26.4647 6.48495 26.4879 6.36064 26.5031 6.34188C26.5182 6.32311 26.5494 6.1467 26.5725 5.94985C26.5954 5.75283 26.6248 5.59166 26.6378 5.59166C26.6508 5.59166 26.6723 5.4903 26.6855 5.3665C26.6986 5.24252 26.721 5.12625 26.7351 5.10782C26.7495 5.0894 26.7808 4.90544 26.8049 4.69904C26.8291 4.49247 26.8594 4.3236 26.8726 4.3236C26.8855 4.3236 26.9067 4.21085 26.9197 4.0733C26.9327 3.93559 26.9552 3.82301 26.9697 3.82301C26.9842 3.82301 27.0068 3.71411 27.0201 3.58092C27.0332 3.4479 27.0561 3.3241 27.0709 3.30567C27.0857 3.28724 27.1169 3.11083 27.14 2.91347C27.1632 2.71628 27.1927 2.55478 27.2055 2.55478C27.2183 2.55478 27.2395 4.41323 27.2526 6.68465C27.2658 8.95623 27.288 10.8261 27.302 10.8401C27.3161 10.8541 27.8851 10.8616 28.5666 10.8567L29.8057 10.848L29.8166 10.7711C29.8227 10.7287 29.8131 10.6761 29.7951 10.6544C29.7755 10.6302 29.7528 9.77748 29.738 8.50356C29.7245 7.34255 29.7021 6.39264 29.6883 6.39264C29.6745 6.39264 29.6519 5.43887 29.6381 4.273C29.6245 3.10714 29.5999 2.14516 29.5837 2.13511C29.5674 2.12523 29.5541 1.9076 29.5541 1.65178V1.18654H27.5621H25.5702L25.55 1.26159C25.5387 1.3028 25.5294 1.40048 25.5293 1.47855C25.5289 1.55645 25.5158 1.62028 25.4998 1.62028C25.484 1.62028 25.4516 1.80808 25.428 2.03744C25.4046 2.26696 25.3737 2.4546 25.3595 2.4546C25.3454 2.4546 25.323 2.59733 25.3098 2.77174C25.2967 2.94614 25.274 3.08871 25.2595 3.08871C25.2448 3.08871 25.2221 3.21637 25.2091 3.37234C25.196 3.52849 25.1738 3.65615 25.1595 3.65615C25.1453 3.65615 25.1142 3.85886 25.0902 4.10664C25.0663 4.35443 25.0359 4.55714 25.0224 4.55714C25.0091 4.55714 24.9874 4.6848 24.9742 4.84078C24.9613 4.99692 24.9389 5.12458 24.9247 5.12458C24.9104 5.12458 24.8792 5.32729 24.8553 5.57507C24.8314 5.82286 24.8009 6.02557 24.7876 6.02557C24.7742 6.02557 24.7526 6.15323 24.7395 6.30921C24.7263 6.46535 24.7039 6.59301 24.6896 6.59301C24.6753 6.59301 24.6528 6.71681 24.6396 6.86827C24.6263 7.01972 24.6043 7.1586 24.5903 7.17703C24.5763 7.19529 24.5451 7.40186 24.5209 7.6359C24.4968 7.86995 24.4647 8.06127 24.4495 8.06127C24.4342 8.06127 24.4195 8.1251 24.4167 8.20317C24.4126 8.3171 24.4087 8.3253 24.397 8.24489C24.3889 8.18977 24.37 8.12979 24.355 8.11136C24.34 8.0931 24.3168 7.9579 24.3033 7.81098C24.2899 7.66422 24.268 7.53656 24.2548 7.52734C24.2417 7.51813 24.2053 7.31541 24.174 7.07684C24.1428 6.83828 24.1001 6.51159 24.079 6.35092C24.0581 6.19042 24.0299 6.05891 24.0164 6.05891C24.0027 6.05891 23.981 5.93125 23.9679 5.77528C23.9549 5.6193 23.9337 5.49164 23.9209 5.49164C23.9079 5.49164 23.8773 5.28893 23.8527 5.04115C23.8281 4.79336 23.7965 4.59048 23.7825 4.59048C23.7683 4.59048 23.7461 4.46282 23.7331 4.30685C23.72 4.15087 23.6991 4.02321 23.6867 4.02321C23.6742 4.02321 23.6442 3.83172 23.6201 3.59768C23.5961 3.36363 23.5641 3.15723 23.5491 3.1388C23.5341 3.12037 23.5112 2.98149 23.4979 2.83004C23.4846 2.67859 23.4627 2.55478 23.4489 2.55478C23.4352 2.55478 23.4134 2.41958 23.4004 2.25439C23.3874 2.08921 23.3659 1.95401 23.3526 1.95401C23.3393 1.95401 23.3105 1.79552 23.2887 1.60168C23.267 1.40785 23.2404 1.23512 23.2296 1.21786C23.2178 1.19877 22.4276 1.18654 21.2205 1.18654H19.2309L19.2107 1.47855ZM41.1608 4.90896C41.1608 8.46134 41.1777 9.20988 41.2603 9.31275C41.2752 9.33117 41.2977 9.39501 41.3105 9.45465C41.3233 9.51429 41.3461 9.56321 41.361 9.56321C41.3759 9.56321 41.3981 9.61565 41.4102 9.67998C41.4222 9.74414 41.4449 9.79675 41.4606 9.79675C41.4762 9.79675 41.4983 9.83394 41.5097 9.87951C41.5214 9.92508 41.572 10.0043 41.6224 10.0559C41.6729 10.1074 41.7416 10.1911 41.775 10.2419C41.8083 10.2926 41.8608 10.3439 41.8917 10.3556C41.9223 10.3675 41.9823 10.4143 42.0245 10.4597C42.1057 10.5468 42.1917 10.6041 42.3433 10.6714C42.394 10.6941 42.4354 10.723 42.4354 10.7359C42.4354 10.7487 42.4807 10.7691 42.5361 10.7813C42.5915 10.7934 42.6368 10.815 42.6368 10.8294C42.6368 10.8438 42.7277 10.8748 42.8391 10.8983C42.9502 10.9217 43.0485 10.9527 43.0576 10.9673C43.0666 10.9817 43.1605 11.0042 43.2663 11.0171C43.372 11.03 43.4694 11.0573 43.4825 11.0779C43.516 11.1298 45.6147 11.1303 45.6486 11.0784C45.6619 11.0581 45.7626 11.0313 45.8726 11.0187C45.9825 11.0062 46.0807 10.9829 46.0906 10.9668C46.1007 10.9507 46.1691 10.9268 46.2429 10.9135C46.3166 10.9003 46.4148 10.8711 46.4609 10.8489C46.7425 10.7123 46.8634 10.6472 46.8634 10.6316C46.8634 10.6219 46.9067 10.595 46.9594 10.5718C47.0648 10.5254 47.5343 10.0889 47.5343 10.0375C47.5343 10.0197 47.5569 9.98657 47.5845 9.96378C47.6121 9.941 47.6522 9.8641 47.6737 9.79273C47.6951 9.72153 47.7247 9.66323 47.7394 9.66323C47.754 9.66323 47.7759 9.61062 47.7881 9.54646C47.8002 9.48229 47.8216 9.42968 47.8357 9.42968C47.8497 9.42968 47.8716 9.35111 47.8844 9.25528C47.8972 9.15945 47.9255 9.05944 47.9474 9.0333C47.9775 8.99728 47.9896 8.03145 47.997 5.08604L48.007 1.18654H46.7475H45.4881V4.84128C45.4881 6.88535 45.475 8.52165 45.4585 8.55399C45.4423 8.58599 45.4122 8.68332 45.3916 8.77044C45.352 8.93831 45.1511 9.17118 45.0075 9.21574C44.9674 9.22831 44.9246 9.25361 44.9127 9.27237C44.8671 9.34307 44.343 9.31861 44.1717 9.23769C44.0844 9.19648 44.005 9.16264 43.9956 9.16264C43.9552 9.16264 43.8547 9.03397 43.8122 8.92759C43.7868 8.86409 43.7497 8.79121 43.7297 8.76541C43.7043 8.73258 43.6908 7.5905 43.6844 4.95252L43.6755 1.18654H42.4181H41.1608V4.90896ZM50.587 5.97548V10.7646H51.7966H53.0062L52.9849 8.52031C52.9732 7.28576 52.9502 6.24588 52.9337 6.20919C52.9174 6.1725 52.8996 5.46651 52.8943 4.64057C52.8891 3.81463 52.8896 3.18018 52.8954 3.23061C52.9012 3.28104 52.9188 3.32242 52.9344 3.32242C52.9499 3.32242 52.9733 3.38625 52.9863 3.46415C52.9993 3.54222 53.0215 3.62096 53.0358 3.63939C53.0501 3.65782 53.0809 3.75918 53.1043 3.86473C53.1279 3.97027 53.1577 4.05655 53.1708 4.05655C53.184 4.05655 53.2049 4.13161 53.217 4.22341C53.2293 4.31522 53.2525 4.39028 53.2685 4.39028C53.2847 4.39028 53.3081 4.46533 53.3209 4.55714C53.3335 4.64895 53.3549 4.724 53.3682 4.724C53.3815 4.724 53.412 4.82168 53.4357 4.94096C53.4596 5.06024 53.4906 5.15792 53.5046 5.15792C53.5188 5.15792 53.5403 5.23297 53.5524 5.32478C53.5647 5.41659 53.5888 5.49164 53.606 5.49164C53.6232 5.49164 53.6472 5.5667 53.6595 5.65851C53.6717 5.75031 53.6932 5.82537 53.7072 5.82537C53.7212 5.82537 53.7511 5.92304 53.7737 6.04233C53.7963 6.16161 53.8268 6.25928 53.8414 6.25928C53.8561 6.25928 53.8784 6.33434 53.8911 6.42614C53.9039 6.51779 53.9263 6.59301 53.9409 6.59301C53.9557 6.59301 53.984 6.68465 54.0039 6.7969C54.0238 6.90898 54.0543 7.01787 54.0716 7.03881C54.0889 7.05976 54.1137 7.13314 54.1267 7.20199C54.1396 7.27085 54.1617 7.32714 54.1757 7.32714C54.1896 7.32714 54.2112 7.40219 54.2233 7.494C54.2356 7.58581 54.2578 7.66087 54.2727 7.66087C54.2875 7.66087 54.3186 7.76591 54.3417 7.89441C54.3648 8.02274 54.3959 8.13549 54.4113 8.14487C54.4264 8.15425 54.449 8.22177 54.4614 8.29515C54.4739 8.36853 54.4944 8.4285 54.5071 8.4285C54.5197 8.4285 54.5492 8.52936 54.5727 8.65266C54.5962 8.77614 54.6278 8.88487 54.6428 8.89475C54.6578 8.90447 54.6807 8.98371 54.6937 9.07083C54.7065 9.15811 54.7295 9.22948 54.7449 9.22948C54.76 9.22948 54.7826 9.297 54.795 9.37959C54.8075 9.46219 54.8296 9.5297 54.8439 9.5297C54.8582 9.5297 54.8888 9.63491 54.9119 9.76341C54.935 9.89191 54.9656 9.99695 54.9801 9.99695C54.9944 9.99695 55.0163 10.072 55.0284 10.1638C55.0407 10.2556 55.064 10.3307 55.0801 10.3307C55.0963 10.3307 55.1199 10.3908 55.1323 10.4642C55.1448 10.5376 55.1687 10.5977 55.1855 10.5977C55.2024 10.5977 55.2162 10.6353 55.2162 10.6812V10.7646H56.9773H58.7384V5.97548V1.18654H57.5003H56.2621L56.2806 3.04699C56.2909 4.07029 56.3101 4.91516 56.3234 4.92421C56.3367 4.93342 56.3544 5.74445 56.3628 6.72636C56.3711 7.70845 56.3716 8.48178 56.3636 8.44509C56.3559 8.4084 56.3377 8.36333 56.3234 8.34507C56.3089 8.32664 56.2867 8.2479 56.2737 8.17C56.2608 8.0921 56.2373 8.02039 56.2215 8.01068C56.2057 8.00096 56.1828 7.92574 56.1703 7.84365C56.1579 7.76155 56.1368 7.69421 56.1235 7.69421C56.11 7.69421 56.0802 7.58916 56.0572 7.46066C56.0341 7.33233 56.0023 7.21925 55.9866 7.2097C55.9709 7.19998 55.9479 7.12476 55.9354 7.04233C55.923 6.95991 55.9004 6.88485 55.8851 6.87547C55.8699 6.86609 55.8472 6.79086 55.8349 6.70861C55.8224 6.62618 55.8002 6.55129 55.7855 6.54241C55.7709 6.53337 55.7401 6.42095 55.717 6.29245C55.6939 6.16395 55.6629 6.05891 55.648 6.05891C55.6331 6.05891 55.6109 5.98386 55.5988 5.89205C55.5865 5.80024 55.5649 5.72518 55.5508 5.72518C55.5368 5.72518 55.509 5.63338 55.4892 5.5213C55.4693 5.40905 55.4375 5.29864 55.4184 5.27603C55.3996 5.25324 55.3743 5.16479 55.3625 5.07951C55.3509 4.99407 55.3287 4.92421 55.3134 4.92421C55.298 4.92421 55.2755 4.84915 55.2633 4.75734C55.251 4.6657 55.2293 4.59048 55.2148 4.59048C55.2005 4.59048 55.1709 4.48544 55.149 4.35694C55.1273 4.22844 55.0963 4.1234 55.0801 4.1234C55.064 4.1234 55.0407 4.04817 55.0284 3.95637C55.0163 3.86473 54.9944 3.7895 54.9801 3.7895C54.9656 3.7895 54.936 3.68446 54.9143 3.55596C54.8925 3.42746 54.8629 3.32242 54.8484 3.32242C54.8341 3.32242 54.8122 3.2472 54.8001 3.15556C54.7878 3.06375 54.7637 2.98869 54.7465 2.98869C54.7294 2.98869 54.7053 2.91347 54.693 2.82183C54.6809 2.73002 54.659 2.65497 54.6447 2.65497C54.6302 2.65497 54.6005 2.54976 54.5788 2.42126C54.5571 2.29276 54.5269 2.18772 54.5118 2.18772C54.4968 2.18772 54.4741 2.11266 54.4614 2.02085C54.4486 1.92904 54.4252 1.85399 54.4091 1.85399C54.3931 1.85399 54.3698 1.77877 54.3575 1.68713C54.3454 1.59532 54.3227 1.52026 54.3072 1.52026C54.2919 1.52026 54.2691 1.44504 54.257 1.3534L54.2348 1.18654H52.4109H50.587V5.97548ZM0.772461 23.9971V34.2927H3.40568H6.03906V28.7486C6.03906 23.8243 6.04461 23.2093 6.08941 23.2462C6.11703 23.269 6.13976 23.3077 6.13976 23.3319C6.13976 23.3564 6.15879 23.3884 6.18236 23.403C6.20577 23.4177 6.24416 23.4673 6.26774 23.5132C6.37332 23.7186 6.41391 23.7801 6.44338 23.7801C6.46089 23.7801 6.4752 23.8004 6.4752 23.8252C6.4752 23.8498 6.50535 23.9047 6.54223 23.947C6.5791 23.9893 6.60925 24.0373 6.60925 24.0535C6.60925 24.0892 6.74986 24.2929 6.78539 24.3085C6.7992 24.3147 6.81065 24.3413 6.81065 24.368C6.81065 24.3946 6.83237 24.4246 6.85881 24.4348C6.88542 24.4449 6.91708 24.498 6.92903 24.5528C6.94116 24.6075 6.97231 24.6605 6.99824 24.6704C7.02418 24.6803 7.04539 24.7069 7.04539 24.7297C7.04539 24.7525 7.07554 24.8057 7.11242 24.8481C7.14946 24.8903 7.17961 24.9453 7.17961 24.9699C7.17961 24.9947 7.19291 25.015 7.20908 25.015C7.22524 25.015 7.25724 25.0601 7.28014 25.115C7.30321 25.1701 7.33521 25.2152 7.35137 25.2152C7.36754 25.2152 7.38084 25.2381 7.38084 25.2663C7.38084 25.2944 7.40256 25.3258 7.42917 25.3358C7.45561 25.346 7.48727 25.3991 7.49939 25.4538C7.51152 25.5085 7.5425 25.5615 7.56843 25.5714C7.59437 25.5813 7.61558 25.6081 7.61558 25.6308C7.61558 25.6536 7.64556 25.7082 7.6821 25.7523C7.71864 25.7965 7.76074 25.8476 7.77556 25.8659C7.79055 25.8843 7.82271 25.9482 7.84747 26.0078C7.87205 26.0674 7.90539 26.1162 7.92156 26.1162C7.9379 26.1162 7.95103 26.1393 7.95103 26.1673C7.95103 26.1954 7.97275 26.2268 7.99936 26.237C8.02597 26.247 8.05746 26.3001 8.06958 26.3549C8.08171 26.4097 8.11286 26.4626 8.13879 26.4725C8.16473 26.4824 8.18594 26.5091 8.18594 26.5318C8.18594 26.5546 8.21592 26.6094 8.25246 26.6535C8.289 26.6975 8.3311 26.7486 8.34592 26.7671C8.36074 26.7853 8.39307 26.8491 8.41766 26.9088C8.44224 26.9686 8.47575 27.0173 8.49192 27.0173C8.50809 27.0173 8.52139 27.0403 8.52139 27.0684C8.52139 27.0966 8.54395 27.1283 8.57174 27.1388C8.59936 27.1494 8.62209 27.1794 8.62209 27.2055C8.62209 27.2316 8.64331 27.2611 8.66924 27.2712C8.69534 27.281 8.72616 27.3271 8.73795 27.3735C8.7563 27.4466 8.86997 27.6349 8.92588 27.6848C8.93615 27.694 8.96427 27.7503 8.98852 27.8099C9.01277 27.8696 9.04594 27.9183 9.06211 27.9183C9.07844 27.9183 9.09158 27.9415 9.09158 27.9694C9.09158 27.9976 9.11431 28.0293 9.14193 28.0398C9.16971 28.0504 9.19228 28.0805 9.19228 28.1067C9.19228 28.1328 9.2135 28.1623 9.2396 28.1722C9.26553 28.182 9.29652 28.2281 9.30814 28.2745C9.32986 28.3605 9.45683 28.56 9.50263 28.5803C9.51644 28.5865 9.52773 28.6131 9.52773 28.6397C9.52773 28.6664 9.54945 28.6964 9.57606 28.7066C9.60249 28.7166 9.63415 28.7697 9.64628 28.8245C9.6584 28.8793 9.68939 28.9323 9.71532 28.9421C9.74125 28.952 9.76247 28.9803 9.76247 29.005C9.76247 29.0296 9.7815 29.0618 9.8044 29.0765C9.82747 29.0911 9.89112 29.1896 9.94585 29.2951C10.0006 29.4005 10.0572 29.487 10.0716 29.487C10.0861 29.487 10.0979 29.5099 10.0979 29.5381C10.0979 29.5662 10.1196 29.5975 10.1462 29.6076C10.1729 29.6178 10.2045 29.6709 10.2165 29.7255C10.2286 29.7803 10.2597 29.8333 10.2857 29.8431C10.3116 29.853 10.3328 29.8813 10.3328 29.906C10.3328 29.9308 10.3517 29.9629 10.3748 29.9775C10.3978 29.9922 10.4615 30.0906 10.5162 30.1961C10.5708 30.3017 10.6275 30.388 10.642 30.388C10.6565 30.388 10.6683 30.4111 10.6683 30.4391C10.6683 30.4672 10.6883 30.4979 10.7129 30.5072C10.7375 30.5166 10.7779 30.5763 10.803 30.6398C10.8281 30.7033 10.8608 30.7552 10.8757 30.7552C10.8907 30.7552 10.903 30.7781 10.903 30.8063C10.903 30.8343 10.9258 30.8659 10.9534 30.8765C10.9812 30.887 11.0037 30.9157 11.0037 30.9398C11.0037 30.9641 11.0233 31.0038 11.047 31.0281C11.0709 31.0524 11.1105 31.1209 11.1351 31.1806C11.1595 31.2404 11.1928 31.2891 11.209 31.2891C11.2253 31.2891 11.2385 31.3121 11.2385 31.3402C11.2385 31.3684 11.2587 31.399 11.2831 31.4084C11.3077 31.4178 11.3483 31.4773 11.3732 31.5408C11.3983 31.6042 11.4311 31.6562 11.4461 31.6562C11.4611 31.6562 11.4734 31.6791 11.4734 31.7073C11.4734 31.7354 11.4959 31.7671 11.5237 31.7776C11.5513 31.7882 11.5739 31.8167 11.5739 31.841C11.5739 31.8653 11.5938 31.905 11.618 31.9291C11.6421 31.9534 11.6835 32.0221 11.71 32.0817C11.7364 32.1414 11.7694 32.1901 11.7834 32.1901C11.7974 32.1901 11.8088 32.2132 11.8088 32.2412C11.8088 32.2694 11.8314 32.301 11.8592 32.3116C11.8868 32.3221 11.9094 32.3523 11.9094 32.3784C11.9094 32.4046 11.9311 32.4342 11.9577 32.4443C11.9843 32.4545 12.0158 32.5076 12.0279 32.5624C12.04 32.6172 12.0698 32.6694 12.0941 32.6788C12.1183 32.688 12.1475 32.7321 12.1586 32.7766C12.1699 32.8212 12.1939 32.8576 12.212 32.8576C12.2302 32.8576 12.2448 32.873 12.2448 32.8917C12.2448 32.9323 12.4184 33.2032 12.4546 33.2191C12.4684 33.2253 12.4797 33.2508 12.4797 33.2759C12.4797 33.301 12.4994 33.3335 12.5237 33.3483C12.5477 33.3628 12.5873 33.4237 12.6116 33.4835C12.6358 33.5431 12.6671 33.5919 12.6815 33.5919C12.6956 33.5919 12.7166 33.6294 12.7283 33.6753C12.7399 33.7212 12.7641 33.7587 12.7823 33.7587C12.8003 33.7587 12.8152 33.7805 12.8152 33.8071C12.8152 33.8338 12.8349 33.8675 12.8591 33.8822C12.8832 33.8969 12.9228 33.9578 12.947 34.0174C12.9713 34.077 13.0043 34.1258 13.0204 34.1258C13.0368 34.1258 13.0499 34.1477 13.0499 34.1747C13.0499 34.2876 13.1642 34.2927 15.7314 34.2927H18.283V23.9971V13.7015H15.6329H12.9829L12.979 19.0662C12.9768 22.0168 12.9682 24.4047 12.9598 24.3725C12.9514 24.3403 12.9303 24.314 12.9133 24.314C12.8962 24.314 12.8822 24.2968 12.8822 24.2755C12.8822 24.2544 12.8445 24.1877 12.7983 24.1276C12.7522 24.0674 12.7145 24.0022 12.7145 23.9826C12.7145 23.963 12.7005 23.947 12.6833 23.947C12.666 23.947 12.6415 23.9143 12.6287 23.8744C12.6161 23.8345 12.5922 23.7858 12.5757 23.766C12.5072 23.6836 12.379 23.4745 12.379 23.4449C12.379 23.4274 12.3642 23.413 12.346 23.413C12.3278 23.413 12.2903 23.3643 12.2628 23.3046C12.2121 23.1951 12.1422 23.0766 12.1099 23.046C12.0791 23.0167 11.9614 22.8319 11.9186 22.7456C11.8536 22.6147 11.7957 22.531 11.7501 22.502C11.727 22.4872 11.7081 22.4534 11.7081 22.4269C11.7081 22.4003 11.6948 22.3785 11.6787 22.3785C11.6625 22.3785 11.6293 22.3296 11.6051 22.27C11.5808 22.2103 11.5527 22.154 11.5424 22.1448C11.4971 22.1044 11.3727 21.9109 11.3727 21.8809C11.3727 21.8627 11.3535 21.8359 11.3301 21.8211C11.3067 21.8064 11.2689 21.7568 11.2464 21.7111C11.1954 21.607 11.1332 21.51 11.0814 21.4536C11.0595 21.4298 11.0313 21.3777 11.0185 21.338C11.0059 21.2981 10.982 21.2493 10.9655 21.2296C10.8272 21.0644 10.8025 21.028 10.8025 20.99C10.8025 20.9662 10.7833 20.9347 10.7599 20.92C10.7363 20.9054 10.6988 20.8558 10.6762 20.8099C10.6252 20.706 10.563 20.609 10.5112 20.5526C10.4893 20.5286 10.4618 20.4792 10.4502 20.4427C10.4384 20.406 10.4148 20.376 10.3977 20.376C10.3805 20.376 10.3663 20.3545 10.3663 20.3284C10.3663 20.3021 10.3475 20.2604 10.3244 20.2358C10.2572 20.1636 10.1457 19.9974 10.122 19.9339C10.1099 19.9017 10.0858 19.8754 10.0681 19.8754C10.0506 19.8754 10.0263 19.8303 10.0141 19.7754C10.0019 19.7203 9.98004 19.6752 9.96522 19.6752C9.9504 19.6752 9.91958 19.6301 9.89668 19.5752C9.87378 19.5201 9.84179 19.475 9.82562 19.475C9.80929 19.475 9.79615 19.4532 9.79615 19.4266C9.79615 19.3999 9.77695 19.3661 9.75338 19.3515C9.72997 19.3368 9.69158 19.2872 9.668 19.2414C9.56242 19.0359 9.522 18.9744 9.49236 18.9744C9.47485 18.9744 9.4607 18.953 9.4607 18.9267C9.4607 18.9005 9.43999 18.8585 9.41473 18.8333C9.38947 18.8082 9.35832 18.7546 9.34535 18.7142C9.33255 18.6737 9.30965 18.6407 9.29467 18.6407C9.27968 18.6407 9.24869 18.5956 9.22579 18.5405C9.20289 18.4855 9.17089 18.4405 9.15473 18.4405C9.13839 18.4405 9.12526 18.4174 9.12526 18.3894C9.12526 18.3612 9.10353 18.3299 9.07693 18.3198C9.05032 18.3096 9.01883 18.2565 9.00671 18.2017C8.99458 18.147 8.96478 18.0945 8.94053 18.0853C8.91628 18.0761 8.88731 18.032 8.87603 17.9875C8.86475 17.9429 8.84067 17.9064 8.82265 17.9064C8.80446 17.9064 8.78981 17.8846 8.78981 17.8581C8.78981 17.8315 8.76994 17.7976 8.74586 17.7829C8.72161 17.7683 8.68204 17.7075 8.65796 17.6479C8.63371 17.5882 8.60053 17.5393 8.58437 17.5393C8.5682 17.5393 8.5549 17.5175 8.5549 17.4909C8.5549 17.4643 8.5352 17.4306 8.51095 17.4158C8.48687 17.4011 8.44729 17.3403 8.42305 17.2806C8.3988 17.221 8.36579 17.1722 8.34962 17.1722C8.33329 17.1722 8.32016 17.152 8.32016 17.1273C8.32016 17.1026 8.29018 17.0463 8.25364 17.0022C8.2171 16.958 8.17466 16.9069 8.15951 16.8886C8.14435 16.8702 8.11017 16.8063 8.08356 16.7467C8.05712 16.6871 8.02395 16.6383 8.00997 16.6383C7.99599 16.6383 7.98471 16.6152 7.98471 16.5872C7.98471 16.5591 7.96332 16.5279 7.93739 16.518C7.91129 16.5081 7.88081 16.4634 7.86969 16.4188C7.85841 16.3743 7.83618 16.3379 7.82035 16.3379C7.80453 16.3379 7.77152 16.2892 7.74693 16.2294C7.72235 16.1697 7.68665 16.1027 7.66745 16.0804C7.59235 15.9935 7.56355 15.9504 7.51505 15.8539C7.48744 15.799 7.44584 15.7418 7.42277 15.7273C7.3997 15.7125 7.38084 15.6787 7.38084 15.652C7.38084 15.6254 7.36568 15.6036 7.34733 15.6036C7.32881 15.6036 7.31382 15.5842 7.31382 15.5604C7.31382 15.5366 7.29109 15.4879 7.26347 15.452C7.16327 15.3222 7.04539 15.1329 7.04539 15.1017C7.04539 15.0841 7.03024 15.0697 7.01188 15.0697C6.99336 15.0697 6.97837 15.0467 6.97837 15.0186C6.97837 14.9905 6.95817 14.9598 6.93375 14.9504C6.90916 14.941 6.86858 14.8816 6.84366 14.8181C6.81856 14.7546 6.78674 14.7026 6.7731 14.7026C6.75929 14.7026 6.73757 14.67 6.72494 14.6301C6.71214 14.5902 6.68823 14.5415 6.67189 14.5217C6.60319 14.4393 6.4752 14.23 6.4752 14.2005C6.4752 14.1829 6.46005 14.1687 6.44153 14.1687C6.42317 14.1687 6.40801 14.1469 6.40801 14.1203C6.40801 14.0936 6.38915 14.0598 6.36608 14.0452C6.34301 14.0305 6.30142 13.9737 6.2738 13.9187C6.15374 13.6808 6.42132 13.7015 3.44862 13.7015H0.772461V23.9971ZM19.3228 23.9971V34.2927H25.8307H32.3384V31.773V29.2534H28.4807H24.6229V27.8684V26.4834H28.4807H32.3384V23.9304V21.3773H28.4807H24.6229V20.0758V18.7742H28.4807H32.3384V16.2377V13.7015H25.8307H19.3228V23.9971ZM44.9514 13.7515C44.9514 13.779 44.9649 13.8015 44.9816 13.8015C44.9982 13.8015 45.0289 13.8429 45.0498 13.8933C45.0996 14.0141 45.173 14.1392 45.2089 14.1648C45.2249 14.1761 45.2566 14.2228 45.2793 14.2687C45.3022 14.3146 45.3588 14.4123 45.4051 14.4857C45.4516 14.5591 45.4994 14.6417 45.5113 14.6693C45.5235 14.6968 45.5533 14.7313 45.5779 14.746C45.6023 14.7606 45.6223 14.7944 45.6223 14.8211C45.6223 14.8477 45.6343 14.8695 45.6491 14.8695C45.6637 14.8695 45.6949 14.9221 45.7183 14.9863C45.7417 15.0506 45.7749 15.103 45.7922 15.103C45.8094 15.103 45.8235 15.1245 45.8235 15.1508C45.8235 15.1769 45.8431 15.2183 45.8668 15.2426C45.8907 15.2669 45.9303 15.3354 45.9547 15.395C45.9793 15.4547 46.0127 15.5036 46.0288 15.5036C46.0452 15.5036 46.0583 15.5254 46.0583 15.552C46.0583 15.5787 46.0775 15.6123 46.1011 15.6271C46.1245 15.6418 46.1625 15.6912 46.1854 15.7372C46.2085 15.7831 46.2641 15.8807 46.309 15.9541C46.3538 16.0275 46.4018 16.1101 46.4156 16.1377C46.4394 16.1851 46.466 16.221 46.5461 16.314C46.5653 16.3364 46.6012 16.4034 46.6258 16.4631C46.6502 16.5227 46.6835 16.5715 46.6997 16.5715C46.716 16.5715 46.7292 16.5929 46.7292 16.6192C46.7292 16.6454 46.7487 16.6867 46.7726 16.711C46.7964 16.7351 46.8359 16.8038 46.8605 16.8635C46.8851 16.9231 46.9183 16.972 46.9346 16.972C46.9508 16.972 46.9641 16.995 46.9641 17.0231C46.9641 17.0513 46.9858 17.0824 47.0123 17.0927C47.0389 17.1027 47.0702 17.1548 47.0821 17.2084C47.0939 17.2619 47.1173 17.3058 47.134 17.3058C47.1507 17.3058 47.1871 17.3545 47.2145 17.4142C47.2707 17.5358 47.3304 17.6321 47.3896 17.6966C47.4114 17.7204 47.4396 17.7725 47.4524 17.8122C47.474 17.8802 47.4969 17.9146 47.5887 18.0176C47.6092 18.0407 47.6367 18.0928 47.6496 18.1332C47.6624 18.1738 47.684 18.2068 47.6976 18.2068C47.7111 18.2068 47.7412 18.2594 47.7647 18.3235C47.7879 18.3879 47.8211 18.4405 47.8384 18.4405C47.8556 18.4405 47.8697 18.4634 47.8697 18.4916C47.8697 18.5197 47.8914 18.5509 47.9181 18.5611C47.9447 18.5711 47.976 18.6232 47.9878 18.6769C47.9996 18.7303 48.023 18.7742 48.0396 18.7742C48.0565 18.7742 48.0927 18.823 48.1203 18.8826C48.2645 19.195 48.415 19.3023 48.4598 19.1245C48.4714 19.0786 48.4914 19.0411 48.5046 19.0411C48.5175 19.0411 48.5487 18.9891 48.5736 18.9256C48.5987 18.8623 48.6393 18.8027 48.6637 18.7933C48.6883 18.7839 48.7083 18.7533 48.7083 18.7251C48.7083 18.697 48.7235 18.674 48.742 18.674C48.7604 18.674 48.7755 18.6596 48.7755 18.6422C48.7755 18.611 48.8932 18.4217 48.9936 18.2919C49.0212 18.256 49.0438 18.2071 49.0438 18.1833C49.0438 18.1595 49.0589 18.1401 49.0775 18.1401C49.0958 18.1401 49.111 18.124 49.111 18.1044C49.111 18.0848 49.1487 18.0196 49.1948 17.9595C49.241 17.8993 49.2787 17.8392 49.2787 17.8258C49.2787 17.8126 49.2976 17.7806 49.3206 17.7551C49.4094 17.6566 49.4335 17.6194 49.4769 17.5143C49.5015 17.4547 49.5338 17.4058 49.5488 17.4058C49.5638 17.4058 49.5865 17.3728 49.5995 17.3322C49.6125 17.2919 49.6399 17.2398 49.6605 17.2166C49.7342 17.1339 49.7657 17.0875 49.8154 16.9886C49.843 16.9337 49.8809 16.8703 49.8992 16.8481C49.9178 16.8256 49.9484 16.7881 49.9676 16.7646C49.9866 16.741 50.0225 16.6728 50.0471 16.6132C50.0717 16.5535 50.1049 16.5048 50.1207 16.5048C50.1365 16.5048 50.1587 16.4683 50.17 16.4237C50.1813 16.3791 50.2118 16.3346 50.2377 16.3247C50.2638 16.3148 50.285 16.2836 50.285 16.2555C50.285 16.2274 50.2965 16.2044 50.3103 16.2044C50.3243 16.2044 50.3574 16.1557 50.3841 16.096C50.4105 16.0364 50.4447 15.9725 50.4598 15.9541C50.4752 15.9357 50.5174 15.8846 50.554 15.8405C50.5905 15.7965 50.6205 15.7402 50.6205 15.7154C50.6205 15.6907 50.6338 15.6705 50.65 15.6705C50.6661 15.6705 50.6993 15.6216 50.7234 15.5619C50.7476 15.5023 50.7872 15.4415 50.8114 15.4269C50.8355 15.4121 50.8552 15.3783 50.8552 15.3517C50.8552 15.3252 50.8667 15.3034 50.8807 15.3034C50.8946 15.3034 50.9276 15.2545 50.9542 15.1948C50.9809 15.1352 51.0149 15.0714 51.0302 15.0531C51.0453 15.0347 51.0878 14.9836 51.1243 14.9395C51.1609 14.8953 51.1907 14.839 51.1907 14.8144C51.1907 14.7896 51.204 14.7693 51.2201 14.7693C51.2365 14.7693 51.2695 14.7206 51.2937 14.6609C51.318 14.6013 51.3576 14.5405 51.3816 14.5257C51.4057 14.5111 51.4256 14.4773 51.4256 14.4507C51.4256 14.424 51.4396 14.4022 51.4566 14.4022C51.4737 14.4022 51.5088 14.361 51.5344 14.3104C51.6081 14.1652 51.6738 14.0581 51.7191 14.009C51.7422 13.9841 51.761 13.9439 51.761 13.9196C51.761 13.8953 51.7836 13.8668 51.8114 13.8563C51.839 13.8457 51.8616 13.8065 51.8616 13.7691C51.8616 13.7015 51.857 13.7015 48.4066 13.7015C45.3576 13.7015 44.9514 13.7073 44.9514 13.7515ZM52.6667 16.2377V18.7742H55.2162H57.7655V26.5333V34.2927H60.3821H62.9986V26.5333V18.7742H65.5648H68.131V16.2377V13.7015H60.3989H52.6667V16.2377ZM48.2833 28.812C48.2618 28.8257 48.234 28.877 48.2217 28.9259C48.2092 28.9748 48.1792 29.0226 48.155 29.0318C48.1307 29.041 48.1011 29.0934 48.089 29.1482C48.0769 29.203 48.0452 29.2561 48.0188 29.2661C47.9922 29.2764 47.9704 29.3075 47.9704 29.3357C47.9704 29.3638 47.9588 29.3868 47.9448 29.3868C47.9307 29.3868 47.9043 29.4156 47.8861 29.4509C47.778 29.6602 47.6158 29.9209 47.5937 29.9209C47.5794 29.9209 47.5678 29.941 47.5678 29.9658C47.5678 29.9904 47.5377 30.0453 47.5008 30.0877C47.4639 30.13 47.4338 30.1854 47.4338 30.2107C47.4338 30.236 47.412 30.265 47.3854 30.275C47.3588 30.2853 47.3278 30.336 47.3162 30.388C47.3048 30.4401 47.2751 30.4903 47.2504 30.4999C47.2254 30.5092 47.1953 30.5619 47.1832 30.6166C47.1711 30.6714 47.1396 30.7245 47.113 30.7346C47.0864 30.7448 47.0646 30.776 47.0646 30.8041C47.0646 30.8323 47.0532 30.8552 47.039 30.8552C47.0251 30.8552 46.9986 30.8845 46.9804 30.9202C46.9095 31.0594 46.7189 31.3734 46.6957 31.3893C46.6822 31.3983 46.6606 31.4396 46.6477 31.4808C46.6347 31.522 46.6063 31.5753 46.5845 31.5991C46.5327 31.6555 46.4705 31.7525 46.4193 31.8564C46.3969 31.9023 46.3604 31.9512 46.3383 31.9651C46.3164 31.979 46.2888 32.034 46.277 32.0874C46.2651 32.1409 46.2338 32.193 46.2073 32.203C46.1807 32.2132 46.159 32.2444 46.159 32.2725C46.159 32.3007 46.1475 32.3236 46.1334 32.3236C46.1071 32.3236 46.0913 32.3491 45.9744 32.5766C45.9375 32.6487 45.8923 32.7257 45.8739 32.748C45.8554 32.7703 45.8232 32.809 45.8025 32.8339C45.7816 32.8591 45.7543 32.912 45.7415 32.9517C45.7289 32.9916 45.7006 33.0435 45.6787 33.0675C45.6269 33.1239 45.5647 33.2209 45.5137 33.3248C45.4911 33.3707 45.4548 33.4196 45.4327 33.4335C45.4106 33.4474 45.383 33.5024 45.3712 33.5558C45.3594 33.6093 45.3281 33.6614 45.3015 33.6714C45.2749 33.6817 45.2532 33.7128 45.2532 33.741C45.2532 33.7691 45.2417 33.7921 45.2276 33.7921C45.2015 33.7921 45.1855 33.8175 45.0688 34.045C45.0319 34.1171 44.9903 34.1809 44.9765 34.1869C44.9627 34.1931 44.9514 34.2194 44.9514 34.2454C44.9514 34.286 45.4485 34.2927 48.4101 34.2927H51.869L51.8459 34.2012C51.8331 34.1509 51.8122 34.1022 51.7994 34.0928C51.7738 34.074 51.6651 33.9127 51.6081 33.8088C51.5088 33.6272 51.4724 33.5729 51.434 33.5485C51.4109 33.5337 51.3921 33.5001 51.3921 33.4734C51.3921 33.4468 51.3769 33.425 51.3584 33.425C51.34 33.425 51.3249 33.4093 51.3249 33.39C51.3249 33.3707 51.2646 33.2645 51.1907 33.1541C51.1169 33.0435 51.0566 32.9392 51.0566 32.9221C51.0566 32.905 51.0415 32.8911 51.023 32.8911C51.0046 32.8911 50.9894 32.8736 50.9894 32.8524C50.9894 32.8313 50.9517 32.7646 50.9056 32.7044C50.8594 32.6443 50.8217 32.5803 50.8217 32.5624C50.8217 32.5443 50.8096 32.5245 50.7946 32.5183C50.7702 32.5083 50.5873 32.2167 50.5035 32.0542C50.4853 32.0189 50.4588 31.9899 50.4448 31.9899C50.4307 31.9899 50.4193 31.9727 50.4193 31.9514C50.4193 31.9301 50.3815 31.8636 50.3354 31.8034C50.2892 31.7433 50.2515 31.6845 50.2515 31.6728C50.2515 31.661 50.2327 31.6306 50.2096 31.6049C50.1208 31.5066 50.0966 31.4692 50.0533 31.3642C50.0287 31.3045 49.9956 31.2558 49.9797 31.2558C49.9639 31.2558 49.9413 31.2183 49.9297 31.1723C49.9183 31.1264 49.8955 31.0889 49.8794 31.0889C49.863 31.0889 49.8273 31.04 49.7997 30.9804C49.7337 30.8373 49.6733 30.7445 49.5465 30.5915C49.5099 30.5474 49.4799 30.4933 49.4799 30.4714C49.4799 30.4496 49.4498 30.397 49.4129 30.3546C49.3759 30.3124 49.3457 30.2574 49.3457 30.2328C49.3457 30.208 49.3309 30.1878 49.3127 30.1878C49.2945 30.1878 49.257 30.139 49.2295 30.0794C49.1634 29.9361 49.1029 29.8433 48.9761 29.6903C48.9396 29.6463 48.9097 29.5974 48.9097 29.5816C48.9097 29.5659 48.8569 29.4782 48.7922 29.3868C48.7277 29.2955 48.6748 29.207 48.6748 29.1904C48.6748 29.1738 48.6536 29.1522 48.6277 29.1423C48.6017 29.1325 48.5704 29.0783 48.558 29.0221C48.5455 28.9656 48.5224 28.9195 48.5068 28.9195C48.4909 28.9195 48.4685 28.8895 48.4568 28.8528C48.4352 28.7853 48.3552 28.7664 48.2833 28.812Z" fill="#44486C"/>
</g>
<defs>
<clipPath id="clip0_125_523">
<rect width="67.3586" height="33.3645" fill="white" transform="translate(0.772461 0.917236)"/>
</clipPath>
</defs>
</svg>
