<svg width="35" height="34" viewBox="0 0 35 34" fill="none" xmlns="http://www.w3.org/2000/svg">
<g clip-path="url(#clip0_125_529)">
<path d="M34.0339 0.238281H0.669434V33.6028H34.0339V0.238281Z" fill="#44486C"/>
<path d="M16.2273 19.103L10.5005 8.375H13.1177L16.4864 15.1642C16.5382 15.2852 16.5987 15.4104 16.6678 15.54C16.7369 15.6695 16.7974 15.8034 16.8492 15.9416C16.8837 15.9935 16.9097 16.041 16.9269 16.0841C16.9442 16.1273 16.9615 16.1662 16.9788 16.2008C17.0651 16.3735 17.1429 16.5419 17.212 16.7061C17.2811 16.8702 17.3415 17.0213 17.3934 17.1595C17.5316 16.8659 17.6827 16.5506 17.8469 16.2137C18.011 15.8768 18.1794 15.527 18.3522 15.1642L21.7727 8.375H24.2085L18.4299 19.2326V26.1514H16.2273V19.103Z" fill="white"/>
</g>
<defs>
<clipPath id="clip0_125_529">
<rect width="33.3645" height="33.3645" fill="white" transform="translate(0.669434 0.238281)"/>
</clipPath>
</defs>
</svg>
