<svg width="1440" height="615" viewBox="0 0 1440 615" fill="none" xmlns="http://www.w3.org/2000/svg">
<path opacity="0.3" fill-rule="evenodd" clip-rule="evenodd" d="M1889 121.023C1889 121.023 1764.69 122.619 1599.45 85.1216C1434.2 47.6248 1326.57 50.8159 1206.8 81.1325C1087.04 111.449 1078.7 109.854 1037.01 111.449C995.323 113.045 895.644 109.254 725.097 52.6114C554.547 -4.03102 436.767 28.0583 401.804 38.7825C366.84 49.5068 146.737 117.152 -75.7332 125.745C-298.204 134.337 -334.968 97.0879 -334.968 97.0879L-338 421H1888.99L1889 121.023Z" fill="url(#paint0_linear)"/>
<path opacity="0.25" fill-rule="evenodd" clip-rule="evenodd" d="M1475.5 133.455C1475.5 133.455 1181.88 122.068 1054.11 77.4639C926.333 32.8604 843.105 36.6563 750.499 72.7188C657.893 108.781 651.446 106.884 619.211 108.781C586.976 110.679 509.9 106.17 378.026 38.7921C246.151 -28.5855 155.079 9.58553 128.044 22.3423C101.009 35.0991 -69.1831 115.564 -241.205 125.786C-413.228 136.007 -441.655 91.6981 -441.655 91.6981L-444 477L1482.5 472.729L1475.5 133.455Z" fill="url(#paint1_linear)"/>
<path fill-rule="evenodd" clip-rule="evenodd" d="M1440 126.625C1440 126.625 1358 128.625 1249 81.6252C1140 34.6257 1069 38.6255 990 76.6252C910.999 114.625 905.499 112.625 878 114.625C850.501 116.625 784.749 111.873 672.251 40.8761C559.75 -30.1212 482.059 10.1004 458.996 23.5426C435.932 36.9847 290.745 121.772 143.996 132.543C-2.75281 143.314 -27.0038 96.6242 -27.0038 96.6242L-29 615L1440 615V126.625Z" fill="url(#paint2_linear)"/>
<defs>
<linearGradient id="paint0_linear" x1="1218.24" y1="21.2021" x2="1217.73" y2="257.178" gradientUnits="userSpaceOnUse">
<stop stop-color="#3961DD"/>
<stop offset="1" stop-color="#4229BE"/>
</linearGradient>
<linearGradient id="paint1_linear" x1="1807.18" y1="50.0357" x2="1807.42" y2="418.676" gradientUnits="userSpaceOnUse">
<stop stop-color="#3961DD"/>
<stop offset="1" stop-color="#4229BE"/>
</linearGradient>
<linearGradient id="paint2_linear" x1="1418.45" y1="593.166" x2="23.071" y2="610.271" gradientUnits="userSpaceOnUse">
<stop stop-color="#3961DD"/>
<stop offset="1" stop-color="#4229BE"/>
</linearGradient>
</defs>
</svg>
