<svg xmlns="http://www.w3.org/2000/svg" xmlns:xlink="http://www.w3.org/1999/xlink" viewBox="0 0 900 450"><defs><linearGradient id="a" x1="94.05" y1="208.55" x2="175.49" y2="262.54" gradientUnits="userSpaceOnUse"><stop offset="0" stop-color="#8033eb"/><stop offset="0.53" stop-color="#d4648e"/><stop offset="1" stop-color="#ec7071"/></linearGradient><linearGradient id="b" x1="127.27" y1="147.99" x2="97.83" y2="85.14" xlink:href="#a"/><linearGradient id="c" x1="126.19" y1="374.42" x2="103.43" y2="337.66" xlink:href="#a"/><linearGradient id="d" x1="128.75" y1="349.1" x2="128.64" y2="348.92" xlink:href="#a"/><linearGradient id="e" x1="107.73" y1="350.4" x2="107.18" y2="349.5" xlink:href="#a"/></defs><title>Artboard 2 copy 3</title><g style="isolation:isolate"><path d="M292.18,300.54a12.25,12.25,0,0,1-12.25,12.25H249a12.25,12.25,0,0,1-12.24-12.25h0A12.25,12.25,0,0,1,249,288.29h31a12.25,12.25,0,0,1,12.25,12.25Z" style="fill:#f2f2f2"/><path d="M567.77,170a12.25,12.25,0,0,1-12.25,12.24h-31A12.24,12.24,0,0,1,512.3,170h0a12.24,12.24,0,0,1,12.25-12.25h31A12.25,12.25,0,0,1,567.77,170Z" style="fill:#f2f2f2"/><path d="M571.78,332.8a12.24,12.24,0,0,1-12.24,12.25H508.21A12.24,12.24,0,0,1,496,332.8h0a12.24,12.24,0,0,1,12.25-12.24h51.33a12.24,12.24,0,0,1,12.24,12.24Z" style="fill:#f2f2f2"/><path d="M369.83,152.52a12.25,12.25,0,0,1-12.25,12.25H306.25A12.25,12.25,0,0,1,294,152.52h0a12.25,12.25,0,0,1,12.24-12.25h51.33a12.25,12.25,0,0,1,12.25,12.25Z" style="fill:#f2f2f2"/><path d="M713.47,299.2S708.1,252,725.14,236.55s34.8-10.71,59,7.19,32.39,42.69,1.06,64.47S720.4,338.87,713.47,299.2Z" style="fill:#f2f2f2"/><rect x="708.59" y="187.7" width="72.23" height="101.05" rx="20" ry="20" style="fill:none;stroke:#f94f24;stroke-linecap:round;stroke-miterlimit:10;stroke-width:0.8615379999999999px;stroke-dasharray:2.5846099853515625,1.723080039024353"/><path d="M409.83,183.66s65.93-5.91,86.87,18.33,13.76,48.82-12,81.92-60.53,43.69-89.82-.66S354.35,192,409.83,183.66Z" style="fill:#f2f2f2"/><rect x="434.3" y="207.59" width="99.94" height="49.83" rx="17.23" ry="17.23" style="fill:#1d127d"/><rect x="429.88" y="203.89" width="108.78" height="57.23" rx="19.79" ry="19.79" style="fill:none;stroke:#f94f24;stroke-linecap:round;stroke-miterlimit:10;stroke-width:0.8615379999999999px;stroke-dasharray:2.5846099853515625,1.723080039024353"/><path d="M218.31,193.68s-58.87,30.26-87.38,15.67S99.82,169.29,111.22,129,150.88,65.7,194.7,95.79,266.59,165.09,218.31,193.68Z" style="fill:#f2f2f2"/><path d="M147,267.6H127.72s2.1,16-11.27,19.23h41.86C144.94,283.63,147,267.6,147,267.6Z" style="fill:#999"/><rect x="116.45" y="286.83" width="41.1" height="2.92" style="fill:#e5e5e5"/><path d="M190.34,267a4.28,4.28,0,0,1-4.23,4.32H85.3A4.28,4.28,0,0,1,81.07,267v-59a4.28,4.28,0,0,1,4.23-4.33H186.11a4.28,4.28,0,0,1,4.23,4.33Z" style="fill:#b3b3b3"/><rect x="81.07" y="209.29" width="109.28" height="53.75" style="fill:url(#a)"/><rect x="81.07" y="261.97" width="109.28" height="1.07" style="fill:#e5e5e5;mix-blend-mode:multiply"/><rect x="81.07" y="209.29" width="109.28" height="1.07" style="fill:#e5e5e5;mix-blend-mode:multiply"/><path d="M190.34,263V241s-15.56,19.67-54.63,2.3-54.64,0-54.64,0V263Z" style="fill:#e5e5e5;opacity:0.1;mix-blend-mode:screen"/><path d="M127.81,271.27H147s.24,2.55.37,3.2L126,279.19A15.89,15.89,0,0,0,127.81,271.27Z" style="fill:#828282"/><rect x="97.46" y="90.06" width="40.1" height="77.9" rx="4.88" ry="4.88" style="fill:gray"/><rect x="97.46" y="94.94" width="40.1" height="64.4" style="fill:url(#b)"/><path d="M97.46,94.94h40.09v12s-5.52,8.55-20.05,3.29-20,0-20,0Z" style="fill:#e5e5e5;opacity:0.1;mix-blend-mode:screen"/><rect x="97.46" y="94.94" width="40.1" height="0.91" style="fill:#ccc;mix-blend-mode:multiply"/><rect x="97.46" y="158.44" width="40.1" height="0.91" style="fill:#ccc;mix-blend-mode:multiply"/><path d="M121.86,162.94a1.82,1.82,0,0,1-1.81,1.82H115a1.82,1.82,0,0,1-1.81-1.82h0a1.81,1.81,0,0,1,1.81-1.81h5.09a1.81,1.81,0,0,1,1.81,1.81Z" style="fill:#747474"/><path d="M120.05,164.07H115a1.81,1.81,0,0,1-1.78-1.47,2,2,0,0,0,0,.34,1.82,1.82,0,0,0,1.81,1.82h5.09a1.82,1.82,0,0,0,1.81-1.82,2,2,0,0,0,0-.34A1.81,1.81,0,0,1,120.05,164.07Z" style="fill:#8e8e8e"/><path d="M104.91,93.16a.94.94,0,1,1-.93-.93A.93.93,0,0,1,104.91,93.16Z" style="fill:#4d4d4d"/><path d="M107.94,93.41a.69.69,0,1,1-.68-.68A.68.68,0,0,1,107.94,93.41Z" style="fill:#4d4d4d"/><path d="M128,345.39c-2.89-2-1.93-6.08-1.43-7.59a2.76,2.76,0,0,0-.86-3.68c-1.77-1.31-4.41-1.32-7-1.32h0c-2.64,0-5.28,0-7.06,1.32a2.71,2.71,0,0,0-1.09,3.09h0c0,.14.09.27.14.4.47,1.34,1.69,5.76-1.48,7.86a4.71,4.71,0,0,1-1.09.47H112a7,7,0,0,0,13.33,0h3.9A4.22,4.22,0,0,1,128,345.39Z" style="fill:#6731cf"/><path d="M109.28,378.86c2.89,2.05,1.92,6.09,1.43,7.6a2.75,2.75,0,0,0,.85,3.68c1.78,1.31,4.42,1.31,7.06,1.31h0c2.64,0,5.28,0,7-1.31a2.71,2.71,0,0,0,1.09-3.1h0a2.37,2.37,0,0,0-.15-.4c-.46-1.35-1.69-5.76,1.49-7.86a3.86,3.86,0,0,1,1.09-.47h-3.91a7,7,0,0,0-13.33,0h-3.9A4.78,4.78,0,0,1,109.28,378.86Z" style="fill:#6731cf"/><path d="M105.87,362.94a1.89,1.89,0,0,1-1.89,1.89h0a1.89,1.89,0,0,1-1.88-1.89v-3.77a1.89,1.89,0,0,1,1.88-1.89h0a1.89,1.89,0,0,1,1.89,1.89Z" style="fill:#999"/><rect x="105.87" y="347.48" width="25.51" height="29.44" rx="2.8" ry="2.8" style="stroke:#ccc;stroke-miterlimit:10;stroke-width:3.0776000000000003px;fill:url(#c)"/><path d="M128.58,349a2.4,2.4,0,0,1,.28,0A1.33,1.33,0,0,0,128.58,349Z" style="fill:url(#d)"/><path d="M118.62,362.2c-8.25-4.11-11.21,0-11.21,0v11.92a1.26,1.26,0,0,0,1.26,1.26h19.91a1.27,1.27,0,0,0,1.26-1.26V362.2S126.88,366.31,118.62,362.2Z" style="fill:#e5e5e5;opacity:0.2;mix-blend-mode:screen"/><path d="M107.41,350.28v.43a2.25,2.25,0,0,1,.28-1.22A1.29,1.29,0,0,0,107.41,350.28Z" style="fill:url(#e)"/><line x1="223.78" y1="232.66" x2="194.36" y2="232.66" style="fill:#fff;stroke:#f94f24;stroke-linecap:round;stroke-miterlimit:10;stroke-width:0.8615379999999999px;stroke-dasharray:2.5846099853515625,1.723080039024353"/><line x1="306.59" y1="232.66" x2="282.52" y2="232.66" style="fill:#fff;stroke:#f94f24;stroke-linecap:round;stroke-miterlimit:10;stroke-width:0.8615379999999999px;stroke-dasharray:2.5846099853515625,1.723080039024353"/><line x1="430.28" y1="232.66" x2="406.2" y2="232.66" style="fill:#fff;stroke:#f94f24;stroke-linecap:round;stroke-miterlimit:10;stroke-width:0.8615379999999999px;stroke-dasharray:2.5846099853515625,1.723080039024353"/><path d="M141.57,131.16a4,4,0,1,1-4-4A4,4,0,0,1,141.57,131.16Z" style="fill:#fff;stroke:#f94f24;stroke-linecap:round;stroke-miterlimit:10;stroke-width:1.7230800000000002px"/><path d="M194.36,232.66a4,4,0,1,1-4-4A4,4,0,0,1,194.36,232.66Z" style="fill:#fff;stroke:#f94f24;stroke-linecap:round;stroke-miterlimit:10;stroke-width:1.7230800000000002px"/><path d="M137,362.41a4,4,0,1,1-4-4A4,4,0,0,1,137,362.41Z" style="fill:#fff;stroke:#f94f24;stroke-linecap:round;stroke-miterlimit:10;stroke-width:1.7230800000000002px"/><path d="M453.05,224.59a8.9,8.9,0,0,0,9.06,9,8.62,8.62,0,0,0,6.33-2.91c.19-.22.38-.73.77-.39s0,.67-.26.91c-2.81,2.91-6.2,3.94-10.05,2.63a9.2,9.2,0,0,1-6.52-8.23,9.65,9.65,0,0,1,9.46-10.79,9.15,9.15,0,0,1,5.7,1.86,1.86,1.86,0,0,0,.83.28,1,1,0,0,1,1,.94,1,1,0,0,1-.94,1,.91.91,0,0,1-.95-.93.79.79,0,0,0-.43-.75,8.42,8.42,0,0,0-9-.74,8.63,8.63,0,0,0-5,7.47C453.06,224.16,453.06,224.38,453.05,224.59Z" style="fill:#fff;fill-rule:evenodd"/><path d="M510.23,224.09a3.82,3.82,0,0,1,3.81-3.87A3.87,3.87,0,0,1,514,228,3.82,3.82,0,0,1,510.23,224.09Zm1.39,0a2.38,2.38,0,0,0,2.36,2.45,2.45,2.45,0,0,0,.06-4.9A2.39,2.39,0,0,0,511.62,224.09Z" style="fill:#fff;fill-rule:evenodd"/><path d="M487.89,224.11a3.79,3.79,0,1,1-3.74-3.89A3.86,3.86,0,0,1,487.89,224.11Zm-3.8-2.47a2.45,2.45,0,1,0,2.43,2.47A2.45,2.45,0,0,0,484.09,221.64Z" style="fill:#fff;fill-rule:evenodd"/><path d="M461.92,221.84l-1.19,3.36a8.49,8.49,0,0,0,1.14,0,.68.68,0,0,1,.86.63,4.47,4.47,0,0,0,.25.72c-.78,0-1.5,0-2.21,0a.76.76,0,0,0-.56.34c-.42.9-.4.91-1.38.91h-.68c.14-.38.26-.68.37-1,.76-2,1.52-4,2.25-6a.67.67,0,0,1,.77-.52c1.34,0,1.34,0,1.83,1.29l2.1,5.58c.07.18.13.37.19.56a1.23,1.23,0,0,1-.21,0c-1.45.08-1.45.08-1.91-1.29S462.5,223.5,461.92,221.84Z" style="fill:#fff;fill-rule:evenodd"/><path d="M471.92,225.24v2.54h-1.49v-7.44h3.22a2.45,2.45,0,1,1,0,4.9Zm.05-3.48v2c.68,0,1.33,0,2,0a1,1,0,0,0,.84-1,1,1,0,0,0-.92-1C473.25,221.74,472.64,221.76,472,221.76Z" style="fill:#fff;fill-rule:evenodd"/><path d="M493,220.37h1.46v6.08h3.11v1.32H493Z" style="fill:#fff;fill-rule:evenodd"/><path d="M502.09,227.76v-7.39h1.45v6.08h3.12v1.31Z" style="fill:#fff;fill-rule:evenodd"/><path d="M141.57,131.16h86.57s25.9,1.23,25.9,24.15v42.17" style="fill:none;stroke:#f94f24;stroke-linecap:round;stroke-miterlimit:10;stroke-width:0.8615379999999999px;stroke-dasharray:2.5846099853515625,1.723080039024353"/><path d="M137,363.05h91.13s25.9-1.4,25.9-27.68v-63" style="fill:none;stroke:#f94f24;stroke-linecap:round;stroke-miterlimit:10;stroke-width:0.8615379999999999px;stroke-dasharray:2.5846099853515625,1.723080039024353"/><path d="M263.1,235.33a2.06,2.06,0,0,1-1.54-.65s-.06,0-.11,0l-4.17,2.41-.45.26a.07.07,0,0,0,0,.09,2.23,2.23,0,0,1,.09.72,2.06,2.06,0,0,1-.78,1.48,2,2,0,0,1-1.06.44,2.05,2.05,0,0,1-2-1,2,2,0,0,1-.28-1.16,2.57,2.57,0,0,1,.07-.4c0-.05,0-.07,0-.09l-2.67-1.54-2-1.14c-.08,0-.08,0-.15,0a2,2,0,0,1-1.14.56,2.05,2.05,0,0,1-.94-4,.35.35,0,0,1,.11,0c.06,0,.07,0,.07-.09v-5.35a.09.09,0,0,0-.08-.11,2,2,0,0,1,.13-4,2,2,0,0,1,1.86.55.07.07,0,0,0,.11,0l4.62-2.66c.09-.06.09-.06.06-.17a2.05,2.05,0,1,1,4-.89,2.13,2.13,0,0,1,0,.94s0,.07,0,.1l4.16,2.4.49.29a.08.08,0,0,0,.1,0,2,2,0,0,1,1.17-.59,2,2,0,0,1,1.53.4,1.94,1.94,0,0,1,.78,1.31,2,2,0,0,1-.9,2,1.69,1.69,0,0,1-.58.26c-.06,0-.07.05-.07.11v5.34a.09.09,0,0,0,.07.1,2,2,0,0,1,1.47,1.59,2,2,0,0,1-1.6,2.39A3.5,3.5,0,0,1,263.1,235.33Zm-8.27-2.54H261s.08,0,.09-.06a2,2,0,0,1,.52-.9s0-.06,0-.11c-.26-.44-.52-.88-.77-1.32l-2.4-4.15q-1.49-2.59-3-5.19a.09.09,0,0,0-.12-.05,2,2,0,0,1-1,0c-.09,0-.09,0-.14.06q-1.62,2.82-3.26,5.64c-1,1.68-1.93,3.35-2.89,5a.07.07,0,0,0,0,.1,2.06,2.06,0,0,1,.52.89c0,.06,0,.07.1.07Zm0,1h-6.16s-.07,0-.09.05,0,.06,0,.08l1.09.62,3.54,2.05c.08.05.08.05.15,0a2,2,0,0,1,1.72-.55,1.9,1.9,0,0,1,1.17.6s.06,0,.11,0l3.77-2.17.86-.5s0,0,0-.05a.11.11,0,0,0-.11-.13Zm-7.74-5.24v2.69s0,.07,0,.09.07,0,.09-.05l2.82-4.89c.63-1.1,1.26-2.2,1.9-3.29l1.44-2.5s0-.06,0-.09-.06,0-.09,0l-2,1.15-2.67,1.54s-.05,0,0,.09a1.83,1.83,0,0,1,0,.87,2,2,0,0,1-1.43,1.61c-.11,0-.1,0-.1.14Zm15.48,0v-2.65c0-.14,0-.11-.11-.14a2.05,2.05,0,0,1-1.4-2.44c0-.1,0-.1-.06-.14L257.23,221l-.87-.51s-.06,0-.09,0,0,.07,0,.09l1,1.79,2.24,3.88,2,3.52c.29.5.58,1,.86,1.49,0,.05.05.06.1,0s0,0,0-.08Z" style="fill:#db34a7;fill-rule:evenodd"/><path d="M254.83,242a13.45,13.45,0,1,1,13.44-13.45A13.46,13.46,0,0,1,254.83,242Zm0-25.71a12.27,12.27,0,1,0,12.26,12.26A12.28,12.28,0,0,0,254.83,216.26Z" style="fill:#db34a7"/><polygon points="318.79 210.75 356.98 188.7 395.16 210.75 395.16 254.83 356.98 276.88 318.79 254.83 318.79 210.75" style="fill:#f94f24"/><polygon points="310.61 206.02 356.98 179.25 403.34 206.02 403.34 259.56 356.98 286.33 310.61 259.56 310.61 206.02" style="fill:none;stroke:#f94f24;stroke-linecap:round;stroke-miterlimit:10;stroke-width:0.8615379999999999px;stroke-dasharray:2.5846099853515625,1.723080039024353"/><path d="M314.63,232.66a4,4,0,1,1-4-4A4,4,0,0,1,314.63,232.66Z" style="fill:#fff;stroke:#f94f24;stroke-linecap:round;stroke-miterlimit:10;stroke-width:1.7230800000000002px"/><path d="M406.2,232.66a4,4,0,1,1-4-4A4,4,0,0,1,406.2,232.66Z" style="fill:#fff;stroke:#f94f24;stroke-linecap:round;stroke-miterlimit:10;stroke-width:1.7230800000000002px"/><path d="M432.31,232.66a4,4,0,1,1-4-4A4,4,0,0,1,432.31,232.66Z" style="fill:#fff;stroke:#f94f24;stroke-linecap:round;stroke-miterlimit:10;stroke-width:1.7230800000000002px"/><line x1="556.12" y1="232.66" x2="538.05" y2="232.66" style="fill:#fff;stroke:#f94f24;stroke-linecap:round;stroke-miterlimit:10;stroke-width:0.8615379999999999px;stroke-dasharray:2.5846099853515625,1.723080039024353"/><line x1="597.11" y1="232.66" x2="564.16" y2="232.66" style="fill:#fff;stroke:#f94f24;stroke-linecap:round;stroke-miterlimit:10;stroke-width:0.8615379999999999px;stroke-dasharray:2.5846099853515625,1.723080039024353"/><line x1="673.5" y1="232.66" x2="640.54" y2="232.66" style="fill:#fff;stroke:#f94f24;stroke-linecap:round;stroke-miterlimit:10;stroke-width:0.8615379999999999px;stroke-dasharray:2.5846099853515625,1.723080039024353"/><path d="M544.05,232.66a4,4,0,1,1-4-4A4,4,0,0,1,544.05,232.66Z" style="fill:#fff;stroke:#f94f24;stroke-linecap:round;stroke-miterlimit:10;stroke-width:1.7230800000000002px"/><path d="M564.16,232.66a4,4,0,1,1-4-4A4,4,0,0,1,564.16,232.66Z" style="fill:#fff;stroke:#f94f24;stroke-linecap:round;stroke-miterlimit:10;stroke-width:1.7230800000000002px"/><path d="M683.68,232.66a4,4,0,1,1-4-4A4,4,0,0,1,683.68,232.66Z" style="fill:#fff;stroke:#f94f24;stroke-linecap:round;stroke-miterlimit:10;stroke-width:1.7230800000000002px"/><path d="M338.65,239a2.51,2.51,0,0,1-.67.81,3,3,0,0,1-1,.49,4.56,4.56,0,0,1-1.19.16h-1.9v2.76H333v-7.84H336a3.78,3.78,0,0,1,1.2.18,2.57,2.57,0,0,1,.93.49,2.1,2.1,0,0,1,.6.78,2.52,2.52,0,0,1,.2,1A2.46,2.46,0,0,1,338.65,239Zm-1.22-2.37a2.55,2.55,0,0,0-1.53-.43h-2v3.45h1.94a3,3,0,0,0,.88-.12,2,2,0,0,0,.69-.35,1.65,1.65,0,0,0,.44-.55A1.67,1.67,0,0,0,338,238,1.5,1.5,0,0,0,337.43,236.66Z" style="fill:#fff"/><path d="M345.91,243.25l-2.28-3h-2.24v3h-.88v-7.84h3.37a3.89,3.89,0,0,1,1.17.17,2.54,2.54,0,0,1,.89.48,2,2,0,0,1,.57.74,2.17,2.17,0,0,1,.2,1,2.42,2.42,0,0,1-.15.88,2.19,2.19,0,0,1-.45.67,2.31,2.31,0,0,1-.67.47,3.08,3.08,0,0,1-.86.27l2.41,3.2Zm-.61-6.61a2.39,2.39,0,0,0-1.48-.41h-2.43v3.19h2.42a2.54,2.54,0,0,0,.8-.11,1.83,1.83,0,0,0,.64-.32,1.63,1.63,0,0,0,.43-.51,1.52,1.52,0,0,0,.15-.69A1.39,1.39,0,0,0,345.3,236.64Z" style="fill:#fff"/><path d="M356,240.87a3.86,3.86,0,0,1-2.08,2.19,4,4,0,0,1-1.63.33,3.89,3.89,0,0,1-1.63-.33,3.93,3.93,0,0,1-2.08-2.16,4.27,4.27,0,0,1-.28-1.56,4.07,4.07,0,0,1,.29-1.55,3.92,3.92,0,0,1,3.72-2.51,4.12,4.12,0,0,1,1.63.32,3.85,3.85,0,0,1,2.07,2.17,4.26,4.26,0,0,1,.28,1.55A4,4,0,0,1,356,240.87Zm-.85-2.79a3.12,3.12,0,0,0-.65-1,3.18,3.18,0,0,0-1-.7A3,3,0,0,0,350,237a3.13,3.13,0,0,0-.63,1,3.59,3.59,0,0,0,0,2.53,3,3,0,0,0,.64,1,3.1,3.1,0,0,0,1,.69,2.84,2.84,0,0,0,1.24.26,2.91,2.91,0,0,0,1.23-.25,2.85,2.85,0,0,0,1-.69,3.33,3.33,0,0,0,.64-1,3.59,3.59,0,0,0,0-2.53Z" style="fill:#fff"/><path d="M363,243.25l-2.51-3.37L358,243.25h-1l3-4-2.9-3.85h1l2.41,3.21,2.39-3.21h1l-2.9,3.83,3,4Z" style="fill:#fff"/><path d="M368.76,243.25h-.88v-3.1l-3.26-4.74h1.08l2.63,3.92,2.66-3.92h1l-3.26,4.73Z" style="fill:#fff"/><path d="M464.69,247.67a4.47,4.47,0,0,1-1.79.35,4.21,4.21,0,0,1-1.67-.32,3.54,3.54,0,0,1-1.25-.86,3.7,3.7,0,0,1-.8-1.29,4.52,4.52,0,0,1-.27-1.58,4.24,4.24,0,0,1,.28-1.54,4,4,0,0,1,.81-1.3,3.75,3.75,0,0,1,2.84-1.22,5,5,0,0,1,.9.07,3.53,3.53,0,0,1,.76.2,3.39,3.39,0,0,1,.66.33,5.13,5.13,0,0,1,.6.44l-.57.67a4.17,4.17,0,0,0-.47-.36,3,3,0,0,0-.53-.28,3.59,3.59,0,0,0-.63-.19,4.38,4.38,0,0,0-.75-.06,2.64,2.64,0,0,0-1.2.26,2.83,2.83,0,0,0-.94.69,3.22,3.22,0,0,0-.62,1,3.46,3.46,0,0,0-.22,1.25,3.71,3.71,0,0,0,.22,1.31,2.9,2.9,0,0,0,.62,1,3,3,0,0,0,1,.69,3.58,3.58,0,0,0,2.55,0,3.78,3.78,0,0,0,1-.55v-2h-2.38v-.78H466v3.11A5,5,0,0,1,464.69,247.67Z" style="fill:#fff"/><path d="M475.34,247.88h-.95l-.92-2.07H469.2l-.93,2.07h-.91l3.58-7.89h.83Zm-4-6.85-1.79,4h3.57Z" style="fill:#fff"/><path d="M478.83,247.88H478v-7h-2.63V240h6.15v.82h-2.64Z" style="fill:#fff"/><path d="M488.8,240.85H484v2.68h4.28v.8H484v2.75h4.84v.8h-5.73V240h5.67Z" style="fill:#fff"/><path d="M495.39,240h.72l2.16,6.55,2.24-6.53h.93l-2.81,7.9h-.75l-2.15-6.36-2.16,6.36h-.74L490,240h1l2.24,6.53Z" style="fill:#fff"/><path d="M509.33,247.88h-.95l-.92-2.07h-4.27l-.93,2.07h-.9l3.57-7.89h.83Zm-4-6.85-1.79,4h3.57Z" style="fill:#fff"/><path d="M513,247.88h-.88v-3.1L508.84,240h1.07l2.64,3.92,2.66-3.92h1L513,244.77Z" style="fill:#fff"/><path d="M342.7,221.93H341l-1.44,4.14-.29.83-1.73-5h-1.82l-1.73,5-.29-.83-1.44-4.14H330l.16.45.55,1.6,1.35,3.88,1,2.82h1.82l1.73-5,1.73,5h1.82l1-2.82,1.35-3.88.56-1.6.16-.45Zm7.38,6-.27.14a10.64,10.64,0,0,1-1.22.55,3.76,3.76,0,0,1-1.29.22,2.3,2.3,0,0,1-1.35-.35,1.77,1.77,0,0,1-.56-.83h1.15a5.77,5.77,0,0,0,2.71-.56,2.68,2.68,0,0,0,.3-4.62,4.23,4.23,0,0,0-2.34-.68,3.94,3.94,0,0,0-3.06,1.39,4.94,4.94,0,0,0-1.1,3.32,4.41,4.41,0,0,0,1.08,3.11,4,4,0,0,0,3.06,1.22,6.79,6.79,0,0,0,3.67-1.12l.29-.18Zm-3.66-4a1.43,1.43,0,0,1,.72-.18,2.65,2.65,0,0,1,.58.06,1.28,1.28,0,0,1,.46.18.68.68,0,0,1,.27.27.73.73,0,0,1,.12.44.59.59,0,0,1-.15.47,1.75,1.75,0,0,1-.56.37,3.71,3.71,0,0,1-1.32.13h-1.28a2.92,2.92,0,0,1,.56-1.21A2.33,2.33,0,0,1,346.42,224ZM359,223a4,4,0,0,0-4.83-1v-3.79h-2.13v12.1l.24.07a12.67,12.67,0,0,0,3,.39,4.53,4.53,0,0,0,3.54-1.34,4.94,4.94,0,0,0,1.17-3.32A5,5,0,0,0,359,223Zm-2.4,5.61a2.53,2.53,0,0,1-1.11.2c-.34,0-.82,0-1.32-.08V225a1.13,1.13,0,0,1,.34-.75,1.85,1.85,0,0,1,1.44-.62,1.6,1.6,0,0,1,1.44.8,3.25,3.25,0,0,1,.48,1.8,2.69,2.69,0,0,1-.57,1.84A1.84,1.84,0,0,1,356.61,228.65Zm4.42-6.71h2.13v8.75H361Zm12,8.76v-6.07a2.71,2.71,0,0,0-3.26-2.81,3.7,3.7,0,0,0-2.62.92,3.57,3.57,0,0,0-.92-.89l-.22-.16L364.57,223l.26.25a2.05,2.05,0,0,1,.52.69,2.3,2.3,0,0,1,.15.87v5.93h2.13v-5.76a3.67,3.67,0,0,1,.85-.81,2.07,2.07,0,0,1,1.16-.35,1.4,1.4,0,0,1,.95.3c.13.12.26.33.26.95v5.67Zm3.15-.22c1.2-.86,2.45-.5,3.7-.45h.24a18.18,18.18,0,0,0,2.06-.12v-8H380v5.39a1.84,1.84,0,0,1-1.62,1.39s-1.44.11-1.61-1.1V222h-2.12V228a3.07,3.07,0,0,0,.26,1.31A2.45,2.45,0,0,0,376.13,230.48Z" style="fill:#fff"/><path d="M385.06,225.56a3.58,3.58,0,0,0-2.73-.42h0v2.42a.38.38,0,0,1,.09-.13.48.48,0,0,1,.16-.12,1.4,1.4,0,0,1,1.38.06,1.07,1.07,0,0,1,.51,1.08,1.22,1.22,0,0,1-.46.92,3.62,3.62,0,0,1-1.71.69h-.1c-.3,0-1.25.11-2.12.1h-.48l-1.14-.08h-.64l-.26,0h-.08a3.17,3.17,0,0,0-1.2.45l0,0a2.84,2.84,0,0,0-.87.89,3.55,3.55,0,0,0,0,3.59,3.19,3.19,0,0,0,3,1.58,3.39,3.39,0,0,0,2.4-1.15,5.44,5.44,0,0,0,1.12-2.33c.07-.27.12-.54.16-.79l-2.15,0c-.05.23-.11.45-.18.68a2.88,2.88,0,0,1-.54,1.08,1.27,1.27,0,0,1-.92.44,1.1,1.1,0,0,1-1.08-.54,1.39,1.39,0,0,1,0-1.38,1,1,0,0,1,.12-.16,1.39,1.39,0,0,1,1-.27c.41,0,.81,0,1.2,0h.46l2.18.05a6.34,6.34,0,0,0,3.27-1.24,3.37,3.37,0,0,0,1.19-2.37,3.21,3.21,0,0,0-1.52-3.05" style="fill:#fff"/><path d="M627.07,137.49l-1.41.74-4.86-13.79a2,2,0,0,0-1.88-1.33H616.2a2,2,0,1,0,0,4h1.31l1.16,3.29-7,9.5a2,2,0,0,0,.42,2.79,2,2,0,0,0,1.18.39,2,2,0,0,0,1.61-.81l5.37-7.31,2.39,6.79a2,2,0,0,0,2.82,1.1l3.45-1.81a2,2,0,0,0-1.86-3.54Z" style="fill:#6731cf"/><path d="M619.3,113.66a19.43,19.43,0,1,0,19.43,19.43A19.45,19.45,0,0,0,619.3,113.66Zm0,37.26a17.84,17.84,0,1,1,17.84-17.83A17.85,17.85,0,0,1,619.3,150.92Z" style="fill:#6731cf"/><path d="M627.07,336.83l-1.41.74-4.86-13.8a2,2,0,0,0-1.88-1.33H616.2a2,2,0,1,0,0,4h1.31l1.16,3.3-7,9.5a2,2,0,0,0,.42,2.79,2,2,0,0,0,1.18.39,2,2,0,0,0,1.61-.82l5.37-7.3,2.39,6.79a2,2,0,0,0,2.82,1.1l3.45-1.82a2,2,0,0,0-1.86-3.53Z" style="fill:#6731cf"/><path d="M619.3,313a19.43,19.43,0,1,0,19.43,19.42A19.45,19.45,0,0,0,619.3,313Zm0,37.26a17.84,17.84,0,1,1,17.84-17.84A17.85,17.85,0,0,1,619.3,350.26Z" style="fill:#6731cf"/><path d="M627.07,237.16l-1.41.74-4.86-13.79a2,2,0,0,0-1.88-1.34H616.2a2,2,0,1,0,0,4h1.31l1.16,3.3-7,9.5a2,2,0,0,0,.42,2.79,2,2,0,0,0,1.18.39,2,2,0,0,0,1.61-.82l5.37-7.3,2.39,6.79a2,2,0,0,0,2.82,1.1l3.45-1.82a2,2,0,0,0-1.86-3.53Z" style="fill:#6731cf"/><path d="M619.3,213.33a19.43,19.43,0,1,0,19.43,19.43A19.45,19.45,0,0,0,619.3,213.33Zm0,37.26a17.84,17.84,0,1,1,17.84-17.83A17.85,17.85,0,0,1,619.3,250.59Z" style="fill:#6731cf"/><line x1="561.91" y1="228.64" x2="608.14" y2="152.52" style="fill:#fff;stroke:#f94f24;stroke-linecap:round;stroke-miterlimit:10;stroke-width:0.8615379999999999px;stroke-dasharray:2.5846099853515625,1.723080039024353"/><line x1="676.65" y1="228.64" x2="630.41" y2="152.52" style="fill:#fff;stroke:#f94f24;stroke-linecap:round;stroke-miterlimit:10;stroke-width:0.8615379999999999px;stroke-dasharray:2.5846099853515625,1.723080039024353"/><line x1="561.91" y1="236.68" x2="608.14" y2="312.8" style="fill:#fff;stroke:#f94f24;stroke-linecap:round;stroke-miterlimit:10;stroke-width:0.8615379999999999px;stroke-dasharray:2.5846099853515625,1.723080039024353"/><line x1="676.65" y1="236.68" x2="630.41" y2="312.8" style="fill:#fff;stroke:#f94f24;stroke-linecap:round;stroke-miterlimit:10;stroke-width:0.8615379999999999px;stroke-dasharray:2.5846099853515625,1.723080039024353"/><path d="M612.5,166a2.3,2.3,0,0,1-.66.82,2.89,2.89,0,0,1-1,.5,3.87,3.87,0,0,1-1.2.18h-1.53V170h-1.34v-7.7h3a3.86,3.86,0,0,1,1.22.18,2.66,2.66,0,0,1,.92.52,2.3,2.3,0,0,1,.59.82,2.74,2.74,0,0,1,.2,1.06A2.6,2.6,0,0,1,612.5,166Zm-1.59-2.16a1.93,1.93,0,0,0-1.21-.35h-1.58v2.78h1.58a1.8,1.8,0,0,0,1.22-.38,1.25,1.25,0,0,0,.45-1A1.24,1.24,0,0,0,610.91,163.87Z" style="fill:#6731cf"/><path d="M617.42,170v-.71a2.67,2.67,0,0,1-.76.59,2.42,2.42,0,0,1-1.13.24,3,3,0,0,1-.79-.11,2,2,0,0,1-.65-.35,1.55,1.55,0,0,1-.45-.56,1.59,1.59,0,0,1-.17-.77v0a2,2,0,0,1,.17-.83,1.62,1.62,0,0,1,.49-.58,2.16,2.16,0,0,1,.75-.35,3.51,3.51,0,0,1,.94-.11,5.8,5.8,0,0,1,.9.06,5.68,5.68,0,0,1,.71.18v-.14a1.17,1.17,0,0,0-.37-.93,1.6,1.6,0,0,0-1.06-.32,3.81,3.81,0,0,0-.88.1,4.81,4.81,0,0,0-.78.27l-.37-1.07a5.58,5.58,0,0,1,1-.35,4.82,4.82,0,0,1,1.22-.14,2.59,2.59,0,0,1,1.93.65,2.48,2.48,0,0,1,.63,1.81V170Zm0-2.46a3.63,3.63,0,0,0-.6-.17,4.3,4.3,0,0,0-.73-.07,1.71,1.71,0,0,0-1,.25.77.77,0,0,0-.35.69v0a.74.74,0,0,0,.32.64,1.37,1.37,0,0,0,.8.22,2,2,0,0,0,.61-.09,1.51,1.51,0,0,0,.49-.25,1,1,0,0,0,.32-.38,1.06,1.06,0,0,0,.12-.5Z" style="fill:#6731cf"/><path d="M625.21,171.07a3.41,3.41,0,0,1-2.31.71,4.92,4.92,0,0,1-2.59-.69l.49-1a4.49,4.49,0,0,0,1,.45,3.57,3.57,0,0,0,1.1.16,1.92,1.92,0,0,0,1.37-.45,1.79,1.79,0,0,0,.47-1.34v-.45a3.14,3.14,0,0,1-.85.78,2.23,2.23,0,0,1-1.2.3,2.8,2.8,0,0,1-1-.18,2.58,2.58,0,0,1-1.43-1.4,3.12,3.12,0,0,1,0-2.3,2.53,2.53,0,0,1,.59-.86,2.46,2.46,0,0,1,.85-.54,2.59,2.59,0,0,1,1-.19,2.27,2.27,0,0,1,1.22.3,3.27,3.27,0,0,1,.82.7v-.88H626v4.62A2.84,2.84,0,0,1,625.21,171.07Zm-.63-4.92a1.46,1.46,0,0,0-.37-.51,1.61,1.61,0,0,0-.54-.32,1.84,1.84,0,0,0-.66-.12,1.78,1.78,0,0,0-1.17.44,1.61,1.61,0,0,0-.35.5,1.76,1.76,0,0,0-.13.66,1.51,1.51,0,0,0,.14.65,1.41,1.41,0,0,0,.35.51,1.65,1.65,0,0,0,.52.33,1.73,1.73,0,0,0,.64.12,1.84,1.84,0,0,0,.66-.12,1.63,1.63,0,0,0,.54-.33,1.53,1.53,0,0,0,.51-1.15A1.59,1.59,0,0,0,624.58,166.15Z" style="fill:#6731cf"/><path d="M629.27,168.66a1.62,1.62,0,0,0,1.1.38,2.06,2.06,0,0,0,.86-.17,3,3,0,0,0,.72-.52l.78.69a3.24,3.24,0,0,1-1,.8,3.06,3.06,0,0,1-1.38.29,3,3,0,0,1-1.17-.22,2.87,2.87,0,0,1-.95-.61,3.2,3.2,0,0,1-.63-1,3.25,3.25,0,0,1-.23-1.23,3.29,3.29,0,0,1,.21-1.18,2.92,2.92,0,0,1,.59-1,2.76,2.76,0,0,1,.89-.66,2.72,2.72,0,0,1,1.15-.24,2.84,2.84,0,0,1,1.21.25,2.47,2.47,0,0,1,.87.69,3,3,0,0,1,.53,1,4.3,4.3,0,0,1,.17,1.2v.17c0,.06,0,.12,0,.19H628.7A1.72,1.72,0,0,0,629.27,168.66Zm2.4-2a2.39,2.39,0,0,0-.14-.6,1.52,1.52,0,0,0-.74-.81,1.41,1.41,0,0,0-.59-.12,1.36,1.36,0,0,0-1,.42,1.93,1.93,0,0,0-.49,1.11Z" style="fill:#6731cf"/><path d="M606.12,176a1.73,1.73,0,0,1,.68,1.44,2,2,0,0,1-.09.63,1.8,1.8,0,0,1-.24.48,1.71,1.71,0,0,1-.35.36,3.1,3.1,0,0,1-.41.26,4.45,4.45,0,0,1,.62.28,2.59,2.59,0,0,1,.48.38,1.6,1.6,0,0,1,.31.52,2.19,2.19,0,0,1,.11.7,2,2,0,0,1-.2.91,1.87,1.87,0,0,1-.58.67,2.65,2.65,0,0,1-.9.4,4.67,4.67,0,0,1-1.16.14h-3.56v-7.7h3.45A2.94,2.94,0,0,1,606.12,176Zm-1.06,2.47a.89.89,0,0,0,.4-.81.87.87,0,0,0-.35-.73,1.66,1.66,0,0,0-1-.26h-1.94v2.06H604A1.9,1.9,0,0,0,605.06,178.5Zm.43,3.23a1,1,0,0,0,0-1.57,2.12,2.12,0,0,0-1.19-.27h-2.14V182h2.24A1.88,1.88,0,0,0,605.49,181.73Z" style="fill:#6731cf"/><path d="M612.42,177.39h1.34v5.81h-1.34v-.91a3.07,3.07,0,0,1-.71.73,1.88,1.88,0,0,1-1.1.3,1.93,1.93,0,0,1-1.52-.6,2.38,2.38,0,0,1-.54-1.63v-3.7h1.34v3.29a1.55,1.55,0,0,0,.32,1,1.14,1.14,0,0,0,.91.37,1.24,1.24,0,0,0,.94-.38,1.46,1.46,0,0,0,.36-1.06Z" style="fill:#6731cf"/><path d="M615.46,176.5v-1.26h1.44v1.26Zm0,6.7v-5.81h1.34v5.81Z" style="fill:#6731cf"/><path d="M618.66,183.2v-8H620v8Z" style="fill:#6731cf"/><path d="M626.09,183.2v-1a2.9,2.9,0,0,1-.79.77,2.1,2.1,0,0,1-1.18.32,2.66,2.66,0,0,1-1-.2,2.61,2.61,0,0,1-.86-.58,3.2,3.2,0,0,1-.6-1,3.7,3.7,0,0,1,0-2.57,2.84,2.84,0,0,1,.59-.95,2.44,2.44,0,0,1,.87-.59,2.66,2.66,0,0,1,1-.2,2.07,2.07,0,0,1,1.18.31,3,3,0,0,1,.79.71v-3.12h1.35v8Zm-.11-3.67a1.69,1.69,0,0,0-.37-.59,1.52,1.52,0,0,0-.53-.38,1.59,1.59,0,0,0-.64-.13,1.69,1.69,0,0,0-.64.12,1.64,1.64,0,0,0-.53.37,1.69,1.69,0,0,0-.37.59,2.38,2.38,0,0,0-.13.79,2.34,2.34,0,0,0,.13.77,1.69,1.69,0,0,0,.37.59,1.5,1.5,0,0,0,.53.37,1.53,1.53,0,0,0,.64.14,1.61,1.61,0,0,0,.64-.14,1.41,1.41,0,0,0,.53-.38,1.75,1.75,0,0,0,.37-.58,2.11,2.11,0,0,0,.14-.77A2,2,0,0,0,626,179.53Z" style="fill:#6731cf"/><path d="M630.68,181.86a1.62,1.62,0,0,0,1.1.38,2.06,2.06,0,0,0,.86-.17,2.74,2.74,0,0,0,.71-.52l.79.69a3.24,3.24,0,0,1-1,.8,3.09,3.09,0,0,1-1.38.29,3,3,0,0,1-1.17-.22,2.87,2.87,0,0,1-1-.61,2.76,2.76,0,0,1-.63-1,3.25,3.25,0,0,1-.23-1.23,3.29,3.29,0,0,1,.21-1.18,2.95,2.95,0,0,1,1.48-1.62,2.72,2.72,0,0,1,1.15-.24,2.87,2.87,0,0,1,1.21.25,2.47,2.47,0,0,1,.87.69,2.8,2.8,0,0,1,.52,1,4,4,0,0,1,.18,1.2,1,1,0,0,1,0,.17c0,.06,0,.12,0,.19h-4.27A1.72,1.72,0,0,0,630.68,181.86Zm2.4-2a2.39,2.39,0,0,0-.14-.6,1.63,1.63,0,0,0-.3-.48,1.25,1.25,0,0,0-.45-.33,1.45,1.45,0,0,0-1.6.3,1.93,1.93,0,0,0-.49,1.11Z" style="fill:#6731cf"/><path d="M637.08,183.2h-1.34v-5.81h1.34v1.31a2.63,2.63,0,0,1,.78-1,1.87,1.87,0,0,1,1.28-.37v1.41h-.08a2.28,2.28,0,0,0-.8.14,1.81,1.81,0,0,0-.63.43,1.93,1.93,0,0,0-.4.72,3.11,3.11,0,0,0-.15,1Z" style="fill:#6731cf"/><path d="M601.93,189.92h-4.37V192h3.88v1.23h-3.88v3.13h-1.35v-7.7h5.72Z" style="fill:#6731cf"/><path d="M607.08,190.59h1.34v5.81h-1.34v-.91a3.07,3.07,0,0,1-.71.73,1.88,1.88,0,0,1-1.1.3,1.92,1.92,0,0,1-1.52-.6,2.38,2.38,0,0,1-.54-1.63v-3.7h1.34v3.29a1.55,1.55,0,0,0,.32,1.05,1.14,1.14,0,0,0,.91.37,1.24,1.24,0,0,0,.94-.38,1.46,1.46,0,0,0,.36-1.06Z" style="fill:#6731cf"/><path d="M611.44,196.4h-1.35v-5.81h1.35v.91a3,3,0,0,1,.31-.39,2.12,2.12,0,0,1,.39-.33,2.54,2.54,0,0,1,.5-.23,2.25,2.25,0,0,1,.61-.08,1.92,1.92,0,0,1,1.52.61,2.33,2.33,0,0,1,.54,1.62v3.7H614v-3.29a1.55,1.55,0,0,0-.32-1.05,1.15,1.15,0,0,0-.92-.37,1.24,1.24,0,0,0-.93.38,1.48,1.48,0,0,0-.36,1.06Z" style="fill:#6731cf"/><path d="M621,196.23a2.93,2.93,0,0,1-1.4.3,3.17,3.17,0,0,1-1.2-.23,3,3,0,0,1-.95-.65,3.29,3.29,0,0,1-.64-1,3,3,0,0,1-.22-1.17,3.1,3.1,0,0,1,.22-1.18,3.21,3.21,0,0,1,.64-1,3.1,3.1,0,0,1,1-.66,3,3,0,0,1,1.2-.24,2.93,2.93,0,0,1,1.37.28,3.19,3.19,0,0,1,1,.72l-.82.89a3.5,3.5,0,0,0-.66-.52,1.7,1.7,0,0,0-.85-.2,1.6,1.6,0,0,0-1.2.55,1.92,1.92,0,0,0-.35.59,2.09,2.09,0,0,0-.12.72,2.15,2.15,0,0,0,.12.73,2,2,0,0,0,.36.6,1.81,1.81,0,0,0,.55.4,1.75,1.75,0,0,0,1.54-.06,3.19,3.19,0,0,0,.67-.52l.81.79A3.67,3.67,0,0,1,621,196.23Z" style="fill:#6731cf"/><path d="M624.81,194.58a.74.74,0,0,0,.19.56.77.77,0,0,0,.53.17,1.71,1.71,0,0,0,.82-.2v1.09a2.11,2.11,0,0,1-.54.22,2.59,2.59,0,0,1-.66.08,2.41,2.41,0,0,1-.67-.09,1.39,1.39,0,0,1-.54-.28,1.33,1.33,0,0,1-.35-.53,2.39,2.39,0,0,1-.12-.81v-3.06h-.74v-1.14h.74V189h1.34v1.59h1.57v1.14h-1.57Z" style="fill:#6731cf"/><path d="M627.73,189.7v-1.26h1.44v1.26Zm0,6.7v-5.81h1.34v5.81Z" style="fill:#6731cf"/><path d="M636.49,194.67a3.06,3.06,0,0,1-.65,1,3.16,3.16,0,0,1-1,.65,3.36,3.36,0,0,1-2.47,0,3.05,3.05,0,0,1-1-.65,3.13,3.13,0,0,1-.65-1,3,3,0,0,1-.23-1.17,3.06,3.06,0,0,1,.89-2.15,3.06,3.06,0,0,1,2.21-.9,3.15,3.15,0,0,1,1.24.24,2.9,2.9,0,0,1,1,.65,2.74,2.74,0,0,1,.64,1,2.93,2.93,0,0,1,.24,1.18A2.88,2.88,0,0,1,636.49,194.67Zm-1.24-1.88a2,2,0,0,0-.36-.6,1.73,1.73,0,0,0-1.28-.55,1.64,1.64,0,0,0-.71.15,1.6,1.6,0,0,0-.56.4,1.74,1.74,0,0,0-.35.59,2.09,2.09,0,0,0-.12.72,2,2,0,0,0,.14.73,1.81,1.81,0,0,0,.36.6,1.74,1.74,0,0,0,.56.4,1.63,1.63,0,0,0,.7.15,1.7,1.7,0,0,0,.73-.15,1.59,1.59,0,0,0,.55-.4,1.68,1.68,0,0,0,.35-.59,2.09,2.09,0,0,0,.12-.72A2,2,0,0,0,635.25,192.79Z" style="fill:#6731cf"/><path d="M639.42,196.4h-1.34v-5.81h1.34v.91a4.08,4.08,0,0,1,.31-.39,2.6,2.6,0,0,1,.4-.33,2.45,2.45,0,0,1,.49-.23,2.25,2.25,0,0,1,.61-.08,1.92,1.92,0,0,1,1.53.61,2.38,2.38,0,0,1,.53,1.62v3.7H642v-3.29a1.55,1.55,0,0,0-.32-1.05,1.14,1.14,0,0,0-.91-.37,1.24,1.24,0,0,0-.94.38,1.48,1.48,0,0,0-.36,1.06Z" style="fill:#6731cf"/><path d="M597.88,261.73V265h-1.34v-7.7h1.34v3.21h3.69v-3.21h1.35V265h-1.35v-3.24Z" style="fill:#6731cf"/><path d="M606.33,263.64a1.65,1.65,0,0,0,1.1.38,1.87,1.87,0,0,0,.85-.18,2.78,2.78,0,0,0,.72-.52l.78.7a3.21,3.21,0,0,1-1,.79,2.93,2.93,0,0,1-1.38.3,3.29,3.29,0,0,1-1.17-.22,2.9,2.9,0,0,1-1.58-1.57,3.44,3.44,0,0,1,0-2.42,3.15,3.15,0,0,1,.59-1,2.81,2.81,0,0,1,.9-.65,2.64,2.64,0,0,1,1.14-.24,2.77,2.77,0,0,1,1.22.25,2.53,2.53,0,0,1,.87.68,3.07,3.07,0,0,1,.52,1,4,4,0,0,1,.17,1.2v.18a1.1,1.1,0,0,1,0,.18h-4.27A1.79,1.79,0,0,0,606.33,263.64Zm2.39-2a2.39,2.39,0,0,0-.14-.6,1.5,1.5,0,0,0-.3-.48,1.28,1.28,0,0,0-.44-.32,1.25,1.25,0,0,0-.59-.13,1.37,1.37,0,0,0-1,.43,1.9,1.9,0,0,0-.49,1.1Z" style="fill:#6731cf"/><path d="M614.94,265v-.71a2.53,2.53,0,0,1-.76.59,2.41,2.41,0,0,1-1.12.25,2.56,2.56,0,0,1-.79-.12,2.06,2.06,0,0,1-.66-.34,1.64,1.64,0,0,1-.45-.56,1.76,1.76,0,0,1-.17-.78v0a1.77,1.77,0,0,1,.18-.82,1.56,1.56,0,0,1,.49-.59,2,2,0,0,1,.74-.34,3.56,3.56,0,0,1,.94-.12,4.56,4.56,0,0,1,.9.07,5.26,5.26,0,0,1,.71.17v-.14a1.14,1.14,0,0,0-.37-.92,1.53,1.53,0,0,0-1.06-.32,3.38,3.38,0,0,0-.88.1,4.76,4.76,0,0,0-.78.26l-.36-1.07a6.84,6.84,0,0,1,1-.35,4.75,4.75,0,0,1,1.22-.13,2.57,2.57,0,0,1,1.92.64,2.48,2.48,0,0,1,.63,1.81V265Zm0-2.46a2.89,2.89,0,0,0-.6-.16,3.41,3.41,0,0,0-.73-.07,1.73,1.73,0,0,0-1,.24.79.79,0,0,0-.35.69v0a.74.74,0,0,0,.32.64,1.47,1.47,0,0,0,.8.21A2,2,0,0,0,614,264a1.51,1.51,0,0,0,.49-.25,1.23,1.23,0,0,0,.33-.39,1.15,1.15,0,0,0,.11-.5Z" style="fill:#6731cf"/><path d="M622.21,265v-1a3.09,3.09,0,0,1-.8.77,2.08,2.08,0,0,1-1.18.32,2.61,2.61,0,0,1-1-.2,2.41,2.41,0,0,1-.86-.59,3,3,0,0,1-.6-.95,3.3,3.3,0,0,1-.23-1.29,3.49,3.49,0,0,1,.22-1.29,3,3,0,0,1,.6-.95,2.64,2.64,0,0,1,.86-.59,2.69,2.69,0,0,1,1-.19,2.17,2.17,0,0,1,1.19.3,3.43,3.43,0,0,1,.79.72v-3.13h1.34v8Zm-.11-3.67a2.19,2.19,0,0,0-.37-.59,1.71,1.71,0,0,0-.54-.38,1.64,1.64,0,0,0-1.28,0,1.46,1.46,0,0,0-.53.37,1.78,1.78,0,0,0-.36.58,2.18,2.18,0,0,0-.13.79,2.13,2.13,0,0,0,.13.78,1.78,1.78,0,0,0,.36.58,1.62,1.62,0,0,0,.53.38,1.64,1.64,0,0,0,1.28,0,1.71,1.71,0,0,0,.54-.38,2.19,2.19,0,0,0,.37-.59,2.35,2.35,0,0,0,0-1.54Z" style="fill:#6731cf"/><path d="M625.29,265v-8h1.34v8Z" style="fill:#6731cf"/><path d="M629.94,263.64a1.67,1.67,0,0,0,1.1.38,1.91,1.91,0,0,0,.86-.18,3,3,0,0,0,.72-.52l.78.7a3.21,3.21,0,0,1-1,.79,2.93,2.93,0,0,1-1.38.3,3.2,3.2,0,0,1-1.17-.22,3.06,3.06,0,0,1-1-.62,2.87,2.87,0,0,1-.63-.95,3.44,3.44,0,0,1,0-2.42,3,3,0,0,1,.59-1,2.88,2.88,0,0,1,.89-.65,3,3,0,0,1,2.36,0,2.44,2.44,0,0,1,.87.68,2.89,2.89,0,0,1,.52,1,4,4,0,0,1,.18,1.2v.18c0,.06,0,.12,0,.18h-4.27A1.78,1.78,0,0,0,629.94,263.64Zm2.4-2a2.39,2.39,0,0,0-.14-.6,1.69,1.69,0,0,0-.3-.48,1.4,1.4,0,0,0-1-.45,1.37,1.37,0,0,0-1,.43,1.9,1.9,0,0,0-.49,1.1Z" style="fill:#6731cf"/><path d="M639,264.06a1.48,1.48,0,0,1-.45.57,2.22,2.22,0,0,1-.69.34,2.91,2.91,0,0,1-.85.12,3.88,3.88,0,0,1-1.27-.23,4,4,0,0,1-1.19-.64l.59-.91a3.76,3.76,0,0,0,1,.54,2.69,2.69,0,0,0,.94.18,1.15,1.15,0,0,0,.66-.17.55.55,0,0,0,.24-.46v0a.44.44,0,0,0-.11-.29.89.89,0,0,0-.28-.21,2.81,2.81,0,0,0-.42-.17l-.49-.14-.64-.22a2.78,2.78,0,0,1-.59-.32,1.58,1.58,0,0,1-.42-.47,1.37,1.37,0,0,1-.16-.7v0a1.64,1.64,0,0,1,.16-.74,1.5,1.5,0,0,1,.44-.56,1.89,1.89,0,0,1,.66-.35,2.63,2.63,0,0,1,.8-.12,3.82,3.82,0,0,1,2.14.66l-.53.94a4.36,4.36,0,0,0-.85-.4,2.38,2.38,0,0,0-.79-.15,1,1,0,0,0-.6.17.51.51,0,0,0-.21.42v0a.36.36,0,0,0,.11.27,1.14,1.14,0,0,0,.29.21,2.81,2.81,0,0,0,.42.17c.15.06.32.11.49.16l.63.23a2.5,2.5,0,0,1,.58.33,1.45,1.45,0,0,1,.42.47,1.17,1.17,0,0,1,.17.67v0A1.69,1.69,0,0,1,639,264.06Z" style="fill:#6731cf"/><path d="M644.38,264.06a1.61,1.61,0,0,1-.46.57,2.12,2.12,0,0,1-.69.34,2.91,2.91,0,0,1-.85.12,3.88,3.88,0,0,1-1.27-.23,4,4,0,0,1-1.19-.64l.59-.91a3.76,3.76,0,0,0,1,.54,2.69,2.69,0,0,0,.94.18,1.15,1.15,0,0,0,.66-.17.55.55,0,0,0,.24-.46v0a.44.44,0,0,0-.11-.29.79.79,0,0,0-.28-.21,2.81,2.81,0,0,0-.42-.17l-.49-.14-.64-.22a2.78,2.78,0,0,1-.59-.32,1.58,1.58,0,0,1-.42-.47,1.37,1.37,0,0,1-.16-.7v0a1.64,1.64,0,0,1,.16-.74,1.5,1.5,0,0,1,.44-.56,1.89,1.89,0,0,1,.66-.35,2.63,2.63,0,0,1,.8-.12,3.82,3.82,0,0,1,2.14.66l-.53.94a4.36,4.36,0,0,0-.85-.4,2.38,2.38,0,0,0-.79-.15,1,1,0,0,0-.6.17.51.51,0,0,0-.21.42v0a.36.36,0,0,0,.11.27,1.14,1.14,0,0,0,.29.21,2.81,2.81,0,0,0,.42.17c.15.06.32.11.49.16l.63.23a2.5,2.5,0,0,1,.58.33,1.61,1.61,0,0,1,.43.47,1.26,1.26,0,0,1,.16.67v0A1.81,1.81,0,0,1,644.38,264.06Z" style="fill:#6731cf"/><path d="M602.59,271.7h-4.38v2.12h3.89V275h-3.89v3.13h-1.34v-7.7h5.72Z" style="fill:#6731cf"/><path d="M607.74,272.37h1.34v5.8h-1.34v-.91a2.9,2.9,0,0,1-.71.73,1.88,1.88,0,0,1-1.1.31,1.92,1.92,0,0,1-1.52-.61,2.34,2.34,0,0,1-.54-1.63v-3.69h1.34v3.29a1.59,1.59,0,0,0,.32,1,1.17,1.17,0,0,0,.91.37,1.24,1.24,0,0,0,.94-.38,1.5,1.5,0,0,0,.36-1.06Z" style="fill:#6731cf"/><path d="M612.1,278.17h-1.35v-5.8h1.35v.91a2.87,2.87,0,0,1,.31-.4,2.07,2.07,0,0,1,.89-.55,1.92,1.92,0,0,1,.61-.08,1.94,1.94,0,0,1,1.52.6,2.36,2.36,0,0,1,.54,1.63v3.69h-1.34v-3.29a1.54,1.54,0,0,0-.33-1.05,1.14,1.14,0,0,0-.91-.36,1.2,1.2,0,0,0-.93.38,1.45,1.45,0,0,0-.36,1Z" style="fill:#6731cf"/><path d="M621.67,278a2.82,2.82,0,0,1-1.4.31,3,3,0,0,1-1.2-.24,2.91,2.91,0,0,1-1-.65,2.86,2.86,0,0,1-.63-1,3,3,0,0,1-.23-1.17,3.05,3.05,0,0,1,.23-1.17,3,3,0,0,1,.63-1,2.94,2.94,0,0,1,1-.66,3.39,3.39,0,0,1,2.58,0,3.22,3.22,0,0,1,1,.73l-.82.89a2.84,2.84,0,0,0-.66-.52,1.6,1.6,0,0,0-.85-.21,1.5,1.5,0,0,0-.67.15,1.61,1.61,0,0,0-.53.4,2,2,0,0,0-.35.59,2.09,2.09,0,0,0-.12.72,2.21,2.21,0,0,0,.12.74,2,2,0,0,0,.36.59,1.69,1.69,0,0,0,.55.4,1.63,1.63,0,0,0,.7.15,1.74,1.74,0,0,0,.84-.2,3.56,3.56,0,0,0,.67-.52l.81.79A3.83,3.83,0,0,1,621.67,278Z" style="fill:#6731cf"/><path d="M625.47,276.36a.72.72,0,0,0,.19.56.77.77,0,0,0,.53.17,1.84,1.84,0,0,0,.82-.2V278a2.55,2.55,0,0,1-.54.22,2.62,2.62,0,0,1-.66.07,2.86,2.86,0,0,1-.67-.08,1.41,1.41,0,0,1-.54-.29,1.29,1.29,0,0,1-.35-.52,2.41,2.41,0,0,1-.12-.82V273.5h-.74v-1.13h.74v-1.6h1.34v1.6H627v1.13h-1.56Z" style="fill:#6731cf"/><path d="M628.39,271.48v-1.27h1.44v1.27Zm.05,6.69v-5.8h1.34v5.8Z" style="fill:#6731cf"/><path d="M637.15,276.45a3.19,3.19,0,0,1-.65,1,2.94,2.94,0,0,1-1,.65,3,3,0,0,1-1.24.25,3.14,3.14,0,0,1-1.23-.24,3,3,0,0,1-1-.65,2.91,2.91,0,0,1-.65-1,3,3,0,0,1-.23-1.17,3,3,0,0,1,.24-1.18,3,3,0,0,1,1.63-1.62,3.1,3.1,0,0,1,1.23-.24,3,3,0,0,1,2.22.88,3.1,3.1,0,0,1,.64,1,3.14,3.14,0,0,1,0,2.36Zm-1.24-1.88a1.84,1.84,0,0,0-.37-.6,1.59,1.59,0,0,0-.55-.41,1.72,1.72,0,0,0-.72-.15,1.64,1.64,0,0,0-.71.15,1.74,1.74,0,0,0-.56.4,1.85,1.85,0,0,0-.35.59,2.09,2.09,0,0,0-.12.72,2.2,2.2,0,0,0,.13.73,1.84,1.84,0,0,0,.37.6,1.74,1.74,0,0,0,.56.4,1.63,1.63,0,0,0,.7.15A1.7,1.7,0,0,0,635,277a1.69,1.69,0,0,0,.9-1,2.09,2.09,0,0,0,.12-.72A1.92,1.92,0,0,0,635.91,274.57Z" style="fill:#6731cf"/><path d="M640.08,278.17h-1.34v-5.8h1.34v.91a3.9,3.9,0,0,1,.31-.4,2.08,2.08,0,0,1,.4-.32,1.69,1.69,0,0,1,.49-.23,2.26,2.26,0,0,1,2.13.52,2.36,2.36,0,0,1,.54,1.63v3.69h-1.34v-3.29a1.59,1.59,0,0,0-.32-1.05,1.17,1.17,0,0,0-.91-.36,1.21,1.21,0,0,0-.94.38,1.45,1.45,0,0,0-.36,1Z" style="fill:#6731cf"/><path d="M589,366.44v-1.51h1.47v1.51Z" style="fill:#6731cf"/><path d="M591.91,366.44v-1.51h1.47v1.51Z" style="fill:#6731cf"/><path d="M594.87,366.44v-1.51h1.46v1.51Z" style="fill:#6731cf"/><path d="M600.36,366.6a5.48,5.48,0,0,1-.36.76,2.13,2.13,0,0,1-.42.5,1.41,1.41,0,0,1-.51.28,2,2,0,0,1-.62.09,2.48,2.48,0,0,1-.75-.1,2.8,2.8,0,0,1-.63-.26l.45-1a3.08,3.08,0,0,0,.38.16,1.34,1.34,0,0,0,.4.06.76.76,0,0,0,.48-.15,1.33,1.33,0,0,0,.35-.52l-2.42-5.8h1.42l1.65,4.31,1.5-4.31h1.39Z" style="fill:#6731cf"/><path d="M609.12,364.71a3.08,3.08,0,0,1-1.63,1.62,3.19,3.19,0,0,1-1.24.24,3.14,3.14,0,0,1-1.23-.24,2.9,2.9,0,0,1-1-.65,3.07,3.07,0,0,1-.64-3.31,3.24,3.24,0,0,1,.65-1,3.11,3.11,0,0,1,2.22-.89,3.28,3.28,0,0,1,1.23.23,3,3,0,0,1,1.63,1.62,3,3,0,0,1,.23,1.17A2.93,2.93,0,0,1,609.12,364.71Zm-1.23-1.88a1.84,1.84,0,0,0-.37-.6,1.76,1.76,0,0,0-.56-.41,1.78,1.78,0,0,0-1.43,0,1.59,1.59,0,0,0-.55.4,1.68,1.68,0,0,0-.35.59,2.18,2.18,0,0,0-.12.72,2,2,0,0,0,.13.73,1.78,1.78,0,0,0,.36.6,1.69,1.69,0,0,0,.56.4,1.67,1.67,0,0,0,.71.15,1.66,1.66,0,0,0,.72-.15,1.6,1.6,0,0,0,.56-.4,1.7,1.7,0,0,0,.35-.58,2.16,2.16,0,0,0,0-1.45Z" style="fill:#6731cf"/><path d="M614.52,360.63h1.34v5.81h-1.34v-.91a2.74,2.74,0,0,1-.72.72,1.78,1.78,0,0,1-1.09.31,1.92,1.92,0,0,1-1.53-.61,2.34,2.34,0,0,1-.53-1.63v-3.69H612v3.29a1.52,1.52,0,0,0,.32,1.05,1.16,1.16,0,0,0,.91.37,1.26,1.26,0,0,0,.94-.38,1.48,1.48,0,0,0,.36-1.06Z" style="fill:#6731cf"/><path d="M618.87,366.44h-1.34v-5.81h1.34v1.31a2.74,2.74,0,0,1,.78-1.06,1.92,1.92,0,0,1,1.28-.36v1.41h-.08a2.07,2.07,0,0,0-.8.14,1.81,1.81,0,0,0-.63.43,1.93,1.93,0,0,0-.4.72,3.07,3.07,0,0,0-.15,1Z" style="fill:#6731cf"/><path d="M631,364.71a3.08,3.08,0,0,1-1.63,1.62,3.19,3.19,0,0,1-1.24.24,3.14,3.14,0,0,1-1.23-.24,2.9,2.9,0,0,1-1-.65,2.8,2.8,0,0,1-.64-.95,2.92,2.92,0,0,1-.23-1.18,3,3,0,0,1,.23-1.18,3.24,3.24,0,0,1,.65-1,3.11,3.11,0,0,1,2.22-.89,3.28,3.28,0,0,1,1.23.23,3,3,0,0,1,1.63,1.62,3,3,0,0,1,.23,1.17A2.93,2.93,0,0,1,631,364.71Zm-1.24-1.88a1.66,1.66,0,0,0-.36-.6,1.76,1.76,0,0,0-.56-.41,1.78,1.78,0,0,0-1.43,0,1.59,1.59,0,0,0-.55.4,1.68,1.68,0,0,0-.35.59,2.18,2.18,0,0,0-.12.72,2,2,0,0,0,.13.73,1.78,1.78,0,0,0,.36.6,1.69,1.69,0,0,0,.56.4,1.67,1.67,0,0,0,.71.15,1.66,1.66,0,0,0,.72-.15,1.6,1.6,0,0,0,.56-.4,1.7,1.7,0,0,0,.35-.58,2.19,2.19,0,0,0,.12-.73A2,2,0,0,0,629.77,362.83Z" style="fill:#6731cf"/><path d="M638.09,364.61l1.19-4h1.33l-1.9,5.85h-1.19l-1.3-4-1.31,4h-1.19l-1.88-5.85h1.37l1.16,4,1.29-4h1.13Z" style="fill:#6731cf"/><path d="M643.14,366.44H641.8v-5.81h1.34v.91a3,3,0,0,1,.31-.39,1.85,1.85,0,0,1,.4-.33,2,2,0,0,1,.49-.23,2.25,2.25,0,0,1,.61-.08,1.92,1.92,0,0,1,1.52.6,2.38,2.38,0,0,1,.54,1.63v3.7h-1.34v-3.3a1.54,1.54,0,0,0-.32-1,1.14,1.14,0,0,0-.91-.37,1.21,1.21,0,0,0-.94.38,1.46,1.46,0,0,0-.36,1.06Z" style="fill:#6731cf"/><path d="M598,373.87V375h-1.52v4.67h-1.34V375h-.74v-1.11h.74v-.42a2,2,0,0,1,.46-1.43,1.8,1.8,0,0,1,1.33-.47,4.47,4.47,0,0,1,1.08.15v1.13a3.18,3.18,0,0,0-.38-.11,2.46,2.46,0,0,0-.4,0c-.52,0-.77.3-.77.88v.32Z" style="fill:#6731cf"/><path d="M602.79,373.83h1.34v5.81h-1.34v-.91a2.86,2.86,0,0,1-.71.72,1.81,1.81,0,0,1-1.1.31,1.89,1.89,0,0,1-1.52-.61,2.34,2.34,0,0,1-.54-1.63v-3.69h1.34v3.29a1.57,1.57,0,0,0,.32,1.05,1.17,1.17,0,0,0,.91.37,1.24,1.24,0,0,0,.94-.38,1.48,1.48,0,0,0,.36-1.06Z" style="fill:#6731cf"/><path d="M607.15,379.64h-1.34v-5.81h1.34v.91a3,3,0,0,1,.31-.39,1.79,1.79,0,0,1,.39-.33,2.07,2.07,0,0,1,.5-.23,2.25,2.25,0,0,1,.61-.08,1.93,1.93,0,0,1,1.52.6,2.38,2.38,0,0,1,.54,1.63v3.7h-1.34v-3.3a1.54,1.54,0,0,0-.32-1,1.15,1.15,0,0,0-.92-.37,1.2,1.2,0,0,0-.93.38,1.46,1.46,0,0,0-.36,1.06Z" style="fill:#6731cf"/><path d="M616.72,379.47a2.93,2.93,0,0,1-1.4.3,3,3,0,0,1-1.2-.24,2.73,2.73,0,0,1-1-.65,2.89,2.89,0,0,1-.86-2.13,3,3,0,0,1,.22-1.17,3.21,3.21,0,0,1,.64-1,2.94,2.94,0,0,1,1-.66,3,3,0,0,1,1.2-.24,3.07,3.07,0,0,1,1.37.27,3.39,3.39,0,0,1,.95.73l-.82.89a3.14,3.14,0,0,0-.66-.52,1.6,1.6,0,0,0-.85-.21,1.5,1.5,0,0,0-.67.15,1.61,1.61,0,0,0-.53.4,2,2,0,0,0-.35.59,2.18,2.18,0,0,0-.12.72,2.21,2.21,0,0,0,.12.74,1.83,1.83,0,0,0,.36.59,1.68,1.68,0,0,0,1.26.55,1.62,1.62,0,0,0,.83-.2,3.56,3.56,0,0,0,.67-.52l.81.79A4.1,4.1,0,0,1,616.72,379.47Z" style="fill:#6731cf"/><path d="M620.52,377.82a.72.72,0,0,0,.19.56.77.77,0,0,0,.53.17,1.84,1.84,0,0,0,.82-.2v1.09a2.55,2.55,0,0,1-.54.22,2.59,2.59,0,0,1-.66.08,2.41,2.41,0,0,1-.67-.09,1.41,1.41,0,0,1-.54-.29,1.29,1.29,0,0,1-.35-.52,2.39,2.39,0,0,1-.12-.81V375h-.74v-1.13h.74v-1.6h1.34v1.6h1.56V375h-1.56Z" style="fill:#6731cf"/><path d="M623.44,372.94v-1.27h1.44v1.27Zm0,6.7v-5.81h1.34v5.81Z" style="fill:#6731cf"/><path d="M632.2,377.91a2.91,2.91,0,0,1-.65,1,3,3,0,0,1-1,.66,3.24,3.24,0,0,1-1.25.24,3.05,3.05,0,0,1-1.22-.24,2.76,2.76,0,0,1-1-.65,3,3,0,0,1-.65-.95,3.1,3.1,0,0,1-.23-1.18,3,3,0,0,1,.24-1.18,3,3,0,0,1,1.63-1.62,3.1,3.1,0,0,1,1.23-.24,3.34,3.34,0,0,1,1.24.23,3.05,3.05,0,0,1,1,.65,2.88,2.88,0,0,1,.64,1,2.85,2.85,0,0,1,.24,1.17A2.93,2.93,0,0,1,632.2,377.91ZM631,376a1.81,1.81,0,0,0-.36-.6A1.88,1.88,0,0,0,630,375a1.72,1.72,0,0,0-.72-.15,1.64,1.64,0,0,0-.71.15,1.74,1.74,0,0,0-.56.4,1.85,1.85,0,0,0-.35.59,2.18,2.18,0,0,0-.12.72,2,2,0,0,0,.14.73,1.63,1.63,0,0,0,.36.6,1.6,1.6,0,0,0,.56.4,1.63,1.63,0,0,0,.7.15,1.7,1.7,0,0,0,.73-.15,1.48,1.48,0,0,0,.55-.4,1.56,1.56,0,0,0,.35-.58,2.19,2.19,0,0,0,.12-.73A2,2,0,0,0,631,376Z" style="fill:#6731cf"/><path d="M635.13,379.64h-1.34v-5.81h1.34v.91a4.08,4.08,0,0,1,.31-.39,2.13,2.13,0,0,1,.4-.33,2,2,0,0,1,.49-.23,2.25,2.25,0,0,1,.61-.08,2,2,0,0,1,1.53.6,2.42,2.42,0,0,1,.53,1.63v3.7h-1.34v-3.3a1.54,1.54,0,0,0-.32-1,1.14,1.14,0,0,0-.91-.37,1.21,1.21,0,0,0-.94.38,1.46,1.46,0,0,0-.36,1.06Z" style="fill:#6731cf"/><path d="M644.59,378.72a1.51,1.51,0,0,1-.46.57,2.07,2.07,0,0,1-.68.34,3,3,0,0,1-.85.12,4.09,4.09,0,0,1-1.27-.22,4.18,4.18,0,0,1-1.19-.65l.59-.9a4.17,4.17,0,0,0,1,.53,2.74,2.74,0,0,0,.94.18,1.16,1.16,0,0,0,.67-.17.54.54,0,0,0,.24-.46v0a.41.41,0,0,0-.11-.28.74.74,0,0,0-.29-.22,2.19,2.19,0,0,0-.41-.16l-.49-.15-.65-.22a2.33,2.33,0,0,1-.58-.32,1.47,1.47,0,0,1-.42-.47,1.37,1.37,0,0,1-.17-.7v0a1.78,1.78,0,0,1,.16-.74,1.71,1.71,0,0,1,.44-.56,2.08,2.08,0,0,1,.66-.35,2.64,2.64,0,0,1,.81-.12,3.58,3.58,0,0,1,1.11.18,3.42,3.42,0,0,1,1,.48l-.52.95a4.42,4.42,0,0,0-.85-.41,2.69,2.69,0,0,0-.79-.14,1,1,0,0,0-.6.16.5.5,0,0,0-.22.42v0a.4.4,0,0,0,.11.27,1.08,1.08,0,0,0,.29.21,3.33,3.33,0,0,0,.42.17l.49.17a5.47,5.47,0,0,1,.64.23,2.33,2.33,0,0,1,.58.32,1.58,1.58,0,0,1,.42.47,1.26,1.26,0,0,1,.17.67v0A1.78,1.78,0,0,1,644.59,378.72Z" style="fill:#6731cf"/><line x1="708.02" y1="232.66" x2="685.07" y2="232.66" style="fill:#fff;stroke:#f94f24;stroke-linecap:round;stroke-miterlimit:10;stroke-width:0.8615379999999999px;stroke-dasharray:2.5846099853515625,1.723080039024353"/><path d="M745.11,214c-13,0-23.54-3.75-23.54-8.38V219.2c0,4.63,10.54,8.39,23.54,8.39s23.54-3.76,23.54-8.39V205.62C768.65,210.25,758.11,214,745.11,214Z" style="fill:#2e9033"/><path d="M745.11,233.06c-13,0-23.54-3.75-23.54-8.39v13.59c0,4.63,10.54,8.39,23.54,8.39s23.54-3.76,23.54-8.39V224.67C768.65,229.31,758.11,233.06,745.11,233.06Z" style="fill:#2e9033"/><path d="M745.11,252.12c-13,0-23.54-3.76-23.54-8.39v13.59c0,4.63,10.54,8.39,23.54,8.39s23.54-3.76,23.54-8.39V243.73C768.65,248.36,758.11,252.12,745.11,252.12Z" style="fill:#2e9033"/><path d="M768.65,205.62c0,4.63-10.54,8.38-23.54,8.38s-23.54-3.75-23.54-8.38,10.54-8.39,23.54-8.39S768.65,201,768.65,205.62Z" style="fill:#4ba54b"/><path d="M823,268.53a13.77,13.77,0,0,1-13.78,13.77H747.57a13.77,13.77,0,0,1-13.78-13.77h0a13.78,13.78,0,0,1,13.78-13.78h61.65A13.78,13.78,0,0,1,823,268.53Z" style="fill:#fff;stroke:#f94f24;stroke-linecap:round;stroke-miterlimit:10;stroke-width:1.7230800000000002px"/><path d="M750.61,265.71c-1-4.59-3.21-5.82-3.77-6.68a8.84,8.84,0,0,1-.6-1.19,1.24,1.24,0,0,1-.43,1,11,11,0,0,0-3.91,8.26,10,10,0,0,0,4.08,8.18,1.11,1.11,0,0,0,1.09-.17,9.5,9.5,0,0,0,3.55-9.38" style="fill:#4ba54b"/><path d="M746.4,272.67a10.36,10.36,0,0,1-.41,2.59s.16,1.15.27,2.37h.4a21.89,21.89,0,0,1,.43-2.55C746.58,274.83,746.41,273.73,746.4,272.67Z" style="fill:#baba9d"/><path d="M747.09,275.08h0c-.52-.24-.67-1.36-.69-2.41.12-1.73.16-3.47.11-5.2,0-.91,0-8.43-.23-9.53a10.16,10.16,0,0,0,.56,1.09c.56.86,2.73,2.09,3.77,6.68A9.48,9.48,0,0,1,747.09,275.08Z" style="fill:#439b47"/><path d="M815.66,273.42a1.13,1.13,0,1,1,1.12-1.15,1.11,1.11,0,0,1-1.08,1.15h0m0-2.16a1,1,0,1,0,1,1h0a1,1,0,0,0-1-1h0m.27,1.74-.29-.62h-.24V273h-.17v-1.42h.42c.32,0,.45.13.45.39a.35.35,0,0,1-.29.38l.3.65Zm-.52-.77h.25c.19,0,.27-.07.27-.25s-.07-.25-.3-.25h-.22Z" style="fill:silver"/><path d="M798.84,272.39a2.65,2.65,0,0,0,1.46.35,2.81,2.81,0,0,0,2.05-.74,3.9,3.9,0,0,0,1.15-3.08,3.65,3.65,0,0,0-1.69-3.32,4.53,4.53,0,0,0-2.41-.56,1.86,1.86,0,0,0-.72.09.39.39,0,0,0-.13.2c0,.26,0,2.23,0,3.39s0,2.86,0,3.07a.9.9,0,0,0,.29.6m-2.9-8c.25,0,1.19.05,1.62.05.82,0,1.39-.05,2.91-.05a4.72,4.72,0,0,1,3.13,1,4.2,4.2,0,0,1,1.43,3.29,4.27,4.27,0,0,1-1.78,3.7,5.85,5.85,0,0,1-3.67,1l-3.62,0h0c-.06-.11.11-.56.21-.57a2.09,2.09,0,0,0,.59-.12c.26-.11.32-.24.35-.72,0-.89,0-2,0-3.16,0-.86,0-2.55,0-3.08s-.24-.56-.62-.65-.54-.1-.81-.13c0-.08.19-.47.26-.56" style="fill:silver"/><path d="M808.64,265.12a.33.33,0,0,0-.14.23c0,.52,0,1.87,0,2.81a.08.08,0,0,0,.07.07c.19,0,.65,0,1.05,0a2.38,2.38,0,0,0,1-.16,1.34,1.34,0,0,0,.68-1.28c0-1.25-.87-1.73-2.16-1.73a4.71,4.71,0,0,0-.53,0m3.3,5.76c0-1.27-.93-2-2.63-2a6.42,6.42,0,0,0-.74,0s-.09,0-.09.07c0,.9,0,2.36,0,2.93a1,1,0,0,0,.42.69,2.94,2.94,0,0,0,1.12.16,1.74,1.74,0,0,0,1.89-1.88M806,264.42c.13,0,.51,0,1.5,0s1.69,0,2.59,0c1.12,0,2.66.4,2.66,2.07a2,2,0,0,1-1.33,1.8s0,0,0,.06a2.3,2.3,0,0,1,2,2.2,2.67,2.67,0,0,1-1.89,2.5,6.06,6.06,0,0,1-2.39.4c-.65,0-2.41-.06-3.38,0-.1-.05.09-.51.18-.58a2.51,2.51,0,0,0,.66-.1c.35-.09.39-.2.43-.72s0-2,0-3.18c0-1.55,0-2.6,0-3.12s-.16-.53-.43-.6l-.88-.13c-.07-.07.16-.5.23-.56" style="fill:silver"/><path d="M753.83,273.42a.7.7,0,0,1,0-.29.45.45,0,0,1,0-.2,3.47,3.47,0,0,0,.56-.11c.26-.06.36-.2.37-.53,0-.78,0-2.23,0-3.25v0a.43.43,0,0,0-.13-.36,2.72,2.72,0,0,0-.78-.34c-.12,0-.19-.1-.18-.18s.08-.16.24-.19a9.15,9.15,0,0,0,2-.51.3.3,0,0,1,.05.21.71.71,0,0,1,0,.14c0,.14,0,.31,0,.47a.1.1,0,0,0,.12.09l.06,0a3.71,3.71,0,0,1,1.94-.88,1.66,1.66,0,0,1,1.49.92.11.11,0,0,0,.09.05.1.1,0,0,0,.08-.05,3.92,3.92,0,0,1,2-.92c1.19,0,1.9.9,1.9,2.39,0,.43,0,1,0,1.48v1.15a.39.39,0,0,0,.23.3,2.74,2.74,0,0,0,.75.18h0a1.15,1.15,0,0,1-.08.49h-.32c-.25,0-.59,0-1,0-.79,0-1.21,0-1.6,0a1.15,1.15,0,0,1,0-.49,2.73,2.73,0,0,0,.48-.1c.25-.08.32-.2.34-.53s.05-2.33,0-2.83a1.26,1.26,0,0,0-1.31-1.12,2.3,2.3,0,0,0-1.31.5.18.18,0,0,0,0,.12h0a5.19,5.19,0,0,1,.06,1.06v.84c0,.58,0,1.12,0,1.53a.38.38,0,0,0,.31.4l.19.05a2.47,2.47,0,0,0,.41.08.92.92,0,0,1,0,.37.31.31,0,0,1-.05.12c-.44,0-.89,0-1.54,0l-.81,0h-.57a.55.55,0,0,1,0-.25.41.41,0,0,1,0-.24l.18,0,.41-.08c.21-.07.29-.18.31-.46a21.94,21.94,0,0,0,0-2.94,1.2,1.2,0,0,0-1.25-1.12,2.34,2.34,0,0,0-1.31.5.38.38,0,0,0-.12.29v.77c0,.92,0,2.07,0,2.57a.39.39,0,0,0,.35.4l.3.06.23,0a1,1,0,0,1,0,.49l-.47,0-1,0-1,0-.46,0" style="fill:#484849"/><path d="M768.44,268a1.17,1.17,0,0,0-.7.2,2,2,0,0,0-.76,1.82c0,1.69.84,2.86,2,2.86a1.31,1.31,0,0,0,.89-.31,2.28,2.28,0,0,0,.57-1.79c0-1.66-.83-2.78-2.06-2.78m.24,5.51a2.83,2.83,0,0,1-3-3.11A2.77,2.77,0,0,1,767,268a3.8,3.8,0,0,1,2-.58,2.75,2.75,0,0,1,2.84,2.91,3,3,0,0,1-1.35,2.67,3.8,3.8,0,0,1-1.76.54" style="fill:#484849"/><path d="M790.69,268a1.17,1.17,0,0,0-.7.2,2,2,0,0,0-.76,1.82c0,1.69.84,2.86,2,2.86a1.29,1.29,0,0,0,.89-.31,2.28,2.28,0,0,0,.57-1.79c0-1.66-.82-2.78-2-2.78m.23,5.51a2.82,2.82,0,0,1-3-3.1,2.77,2.77,0,0,1,1.27-2.44,3.81,3.81,0,0,1,2-.58,2.75,2.75,0,0,1,2.83,2.91,3,3,0,0,1-1.35,2.67,3.76,3.76,0,0,1-1.76.54" style="fill:#484849"/><path d="M783.33,268c-.68,0-1.11.53-1.11,1.36s.37,1.8,1.43,1.8a1,1,0,0,0,.67-.26,1.65,1.65,0,0,0,.41-1.18c0-1.08-.52-1.72-1.4-1.72m-.09,5.69a1,1,0,0,0-.54.13c-.53.34-.78.68-.78,1.08a1.13,1.13,0,0,0,.45.92,2.3,2.3,0,0,0,1.55.47c1.3,0,1.89-.7,1.89-1.39a1,1,0,0,0-.75-1,5.87,5.87,0,0,0-1.81-.21m.08,3.33a2.83,2.83,0,0,1-1.83-.54,1.71,1.71,0,0,1-.68-1.27,1,1,0,0,1,.26-.64,6.11,6.11,0,0,1,1.18-.95.07.07,0,0,0,0-.06.06.06,0,0,0,0-.06,1.26,1.26,0,0,1-.84-.82v0a.2.2,0,0,1,.07-.24l.37-.22a4.45,4.45,0,0,0,.58-.38.1.1,0,0,0,0-.14h0a1.88,1.88,0,0,1-1.34-2,1.94,1.94,0,0,1,.82-1.61,3.71,3.71,0,0,1,1.84-.63h0a3.8,3.8,0,0,1,1.41.32,2.29,2.29,0,0,0,.83.13,1.15,1.15,0,0,0,.9-.34,1.11,1.11,0,0,1,.05.25,1,1,0,0,1-.17.6.73.73,0,0,1-.56.24h-.06a1.86,1.86,0,0,1-.34-.06l-.06,0s0,.05,0,.09v0a5,5,0,0,1,.08.56,2.05,2.05,0,0,1-.87,1.85,3.06,3.06,0,0,1-1.5.59h-.17l-.17,0h0c-.09,0-.35.14-.35.37s.11.42.67.46l.36,0a10.53,10.53,0,0,1,2.07.26,1.44,1.44,0,0,1,1,1.38,2.82,2.82,0,0,1-1.81,2.39,4,4,0,0,1-1.71.38" style="fill:#484849"/><path d="M780,272.91a2.47,2.47,0,0,1-.83-.21.35.35,0,0,1-.1-.21c0-.44,0-1.74,0-2.58a3.1,3.1,0,0,0-.41-1.73,1.76,1.76,0,0,0-1.49-.78,3.44,3.44,0,0,0-1.94.92s-.11.11-.11,0,0-.43,0-.62a.29.29,0,0,0-.09-.26,8.88,8.88,0,0,1-2,.51c-.31.07-.39.36-.06.47h0a2.77,2.77,0,0,1,.75.33c.13.1.11.24.11.36,0,1,0,2.44,0,3.25,0,.31-.1.43-.33.49h0a5.12,5.12,0,0,1-.54.1.8.8,0,0,0,0,.57c.15,0,.89,0,1.5,0,.84,0,1.28,0,1.5,0a.82.82,0,0,0,.06-.57,3.11,3.11,0,0,1-.6-.09c-.23-.06-.29-.17-.31-.43,0-.68,0-2.11,0-3.09a.57.57,0,0,1,.16-.48,1.9,1.9,0,0,1,1.19-.43,1.29,1.29,0,0,1,.88.3,1.24,1.24,0,0,1,.42.81c.06.55,0,1.65,0,2.59,0,.52,0,.65-.23.71a2.68,2.68,0,0,1-.6.11.89.89,0,0,0,0,.58c.38,0,.82-.05,1.46-.05.8,0,1.31.05,1.51.05a.79.79,0,0,0,.06-.58" style="fill:#484849"/><path d="M712.61,232.66a4,4,0,1,1-4-4A4,4,0,0,1,712.61,232.66Z" style="fill:#fff;stroke:#f94f24;stroke-linecap:round;stroke-miterlimit:10;stroke-width:1.7230800000000002px"/><path d="M694.43,197.23a10.75,10.75,0,1,1-10.75-10.75A10.75,10.75,0,0,1,694.43,197.23Z" style="fill:#f2f2f2"/><path d="M366.81,314.25a10.76,10.76,0,1,1-10.76-10.75A10.76,10.76,0,0,1,366.81,314.25Z" style="fill:#f2f2f2"/><path d="M269.06,253.23l.54.77c.12.17.35.34.1.56s-.63,0-.77-.19l-.22-.33-.2-.27c-.61.08-1.18.19-1.76.21a2.55,2.55,0,0,1-2.81-2.4,10.19,10.19,0,0,1,.13-3.89,2.44,2.44,0,0,1,1.87-1.78,3.27,3.27,0,0,1,2.83.48,2.55,2.55,0,0,1,1,2,18.24,18.24,0,0,1,.08,2.45A3.64,3.64,0,0,1,269.06,253.23Zm-4.5-3.49c.05.63.06,1.11.12,1.58a2.08,2.08,0,0,0,2.72,1.89,2,2,0,0,0,1.67-2.12c0-.74,0-1.48,0-2.22a2.12,2.12,0,0,0-1.77-2.3,2.08,2.08,0,0,0-2.54,1.48A13.16,13.16,0,0,0,264.56,249.74Z" style="fill:#db34a7;stroke:#db34a7;stroke-miterlimit:10;stroke-width:0.22744699999999998px;fill-rule:evenodd"/><path d="M233.12,249.9a15.21,15.21,0,0,1,.25-2.15,2.44,2.44,0,0,1,1.92-1.83,3.39,3.39,0,0,1,2.9.46,2.26,2.26,0,0,1,.94,1.25.63.63,0,0,1-.1.51.42.42,0,0,1-.62-.26c-.55-1.66-3.12-1.75-4-.57a2.44,2.44,0,0,0-.45,1.41c0,.78,0,1.56,0,2.35a2.06,2.06,0,0,0,2.2,2.18,2.21,2.21,0,0,0,2.06-1,3,3,0,0,0,.33-1.78c0-.06-.19-.16-.3-.16-.51,0-1,0-1.53,0-.25,0-.38-.05-.38-.35s.15-.34.39-.33c.75,0,1.49,0,2.24,0,.12,0,.33.14.34.22a4.56,4.56,0,0,1-.49,2.85,2.71,2.71,0,0,1-2,1.23,3.26,3.26,0,0,1-2.45-.54,2.86,2.86,0,0,1-1.11-2.11,13.25,13.25,0,0,1,0-1.41Z" style="fill:#db34a7;stroke:#db34a7;stroke-miterlimit:10;stroke-width:0.22744699999999998px;fill-rule:evenodd"/><path d="M251.48,253.16v2.36c0,.25.05.51-.35.49s-.4-.21-.4-.49v-7.08c0-.26,0-.48.39-.5s.37.22.36.48c0,.05,0,.11,0,.24a2.59,2.59,0,0,1,2.81-.68,2,2,0,0,1,1.38,1.62,5.44,5.44,0,0,1,0,2.63,2.4,2.4,0,0,1-4.05,1.06A1.46,1.46,0,0,0,251.48,253.16Zm3.68-2.18-.06,0c0-.35-.06-.71-.13-1a1.57,1.57,0,0,0-1.33-1.35,1.64,1.64,0,0,0-1.8.79,3.33,3.33,0,0,0-.36,1.93c.08,1,.48,1.91,1.72,2a1.41,1.41,0,0,0,1.57-.82A15.16,15.16,0,0,0,255.16,251Z" style="fill:#db34a7;stroke:#db34a7;stroke-miterlimit:10;stroke-width:0.22744699999999998px;fill-rule:evenodd"/><path d="M248.26,250.16c.05-.67,0-1.22-.7-1.47a1.86,1.86,0,0,0-1.81.15.92.92,0,0,0-.37.44.35.35,0,0,1-.48.25c-.27-.06-.29-.25-.21-.48a1.76,1.76,0,0,1,1.48-1.16,4,4,0,0,1,1.47.07,1.73,1.73,0,0,1,1.37,1.73c0,1.23,0,2.46,0,3.69,0,.29,0,.53-.39.53s-.4-.23-.36-.52a.7.7,0,0,0,0-.14,2.55,2.55,0,0,1-2.16.73,1.81,1.81,0,0,1-1.83-1.78c0-.75.4-1.25,1.38-1.55a15.77,15.77,0,0,1,2.05-.39Zm0,.7c-.39,0-.76.07-1.11.15a8.51,8.51,0,0,0-1.61.45.85.85,0,0,0-.19,1.5,2.08,2.08,0,0,0,2.05.07A2.12,2.12,0,0,0,248.26,250.86Z" style="fill:#db34a7;stroke:#db34a7;stroke-miterlimit:10;stroke-width:0.22744699999999998px;fill-rule:evenodd"/><path d="M258.1,248.57A4.13,4.13,0,0,1,259,248c1.45-.45,2.94,0,3.2,1.79a18.35,18.35,0,0,1,.08,2c0,.57,0,1.15,0,1.72,0,.28-.11.43-.37.44s-.4-.16-.39-.46c0-1,0-2,0-3a3.3,3.3,0,0,0-.1-.76,1.71,1.71,0,0,0-3.32.46c0,1.06,0,2.13,0,3.2a.6.6,0,0,1-.06.36.55.55,0,0,1-.39.2c-.11,0-.21-.19-.29-.31s0-.14,0-.22c0-2.35,0-4.69,0-7a.65.65,0,0,1,.19-.49c.28-.18.55,0,.56.42,0,.66,0,1.32,0,2Z" style="fill:#db34a7;stroke:#db34a7;stroke-miterlimit:10;stroke-width:0.22744699999999998px;fill-rule:evenodd"/><path d="M272.43,253.17h3.67c.22,0,.45-.06.45.31s-.17.43-.46.43h-4c-.39,0-.48-.11-.48-.52,0-2.34,0-4.68,0-7,0-.28.07-.44.39-.45s.44.15.44.45q0,3.15,0,6.3Z" style="fill:#db34a7;stroke:#db34a7;stroke-miterlimit:10;stroke-width:0.22744699999999998px;fill-rule:evenodd"/><path d="M241.57,248.67a1.94,1.94,0,0,1,1.82-.73c.23,0,.38.07.41.32s-.13.38-.35.42a.77.77,0,0,1-.26,0c-1.16-.09-1.6.55-1.61,1.6s0,2.11,0,3.17a.66.66,0,0,1-.19.39.35.35,0,0,1-.36,0,.8.8,0,0,1-.19-.48c0-1.52,0-3,0-4.55v-.37c0-.25,0-.5.39-.49s.37.21.36.46Z" style="fill:#db34a7;stroke:#db34a7;stroke-miterlimit:10;stroke-width:0.22744699999999998px;fill-rule:evenodd"/><path d="M283.05,243.34a29,29,0,0,1-29,29h0a29,29,0,0,1-29-29V226.49a29,29,0,0,1,29-29h0a29,29,0,0,1,29,29Z" style="fill:none;stroke:#f94f24;stroke-linecap:round;stroke-miterlimit:10;stroke-width:0.8615379999999999px;stroke-dasharray:2.5846099853515625,1.723080039024353;fill-rule:evenodd"/><path d="M227.79,232.66a4,4,0,1,1-4-4A4,4,0,0,1,227.79,232.66Z" style="fill:#fff;stroke:#f94f24;stroke-linecap:round;stroke-miterlimit:10;stroke-width:1.7230800000000002px"/><path d="M287.54,232.66a4,4,0,1,1-4-4A4,4,0,0,1,287.54,232.66Z" style="fill:#fff;stroke:#f94f24;stroke-linecap:round;stroke-miterlimit:10;stroke-width:1.7230800000000002px"/></g></svg>