<svg xmlns="http://www.w3.org/2000/svg" xmlns:xlink="http://www.w3.org/1999/xlink" viewBox="0 0 900 550"><defs><linearGradient id="a" x1="608.02" y1="265.27" x2="672.21" y2="265.27" gradientUnits="userSpaceOnUse"><stop offset="0" stop-color="#8033eb"/><stop offset="1" stop-color="#6731ce"/></linearGradient><linearGradient id="b" x1="222.19" y1="265.27" x2="286.38" y2="265.27" xlink:href="#a"/><linearGradient id="c" x1="417.93" y1="70.38" x2="482.12" y2="70.38" gradientTransform="translate(61.19 -166.86) rotate(22.5)" xlink:href="#a"/><linearGradient id="d" x1="417.45" y1="455.59" x2="481.64" y2="455.59" xlink:href="#a"/></defs><title>build-stuff</title><path d="M198.07,459.45a17.4,17.4,0,0,1-17.4,17.4H107.73a17.4,17.4,0,0,1-17.4-17.4h0a17.4,17.4,0,0,1,17.4-17.4h72.94a17.4,17.4,0,0,1,17.4,17.4Z" style="fill:#f2f2f2"/><path d="M714.83,476.85a46.78,46.78,0,1,1-46.78-46.78A46.77,46.77,0,0,1,714.83,476.85Z" style="fill:#f2f2f2"/><path d="M265.81,179.43s-83.66,43-124.17,22.28-44.21-56.93-28-114.25S170-2.42,232.25,40.33,334.41,138.82,265.81,179.43Z" style="fill:#f2f2f2"/><path d="M744.36,65.25a27.5,27.5,0,1,1-27.5-27.5A27.5,27.5,0,0,1,744.36,65.25Z" style="fill:#f2f2f2"/><circle cx="451.64" cy="263.05" r="112.14" transform="translate(44.58 590.89) rotate(-69.07)" style="fill:#f1ecfa"/><circle cx="450" cy="262.99" r="90.86" style="fill:#f94f24"/><path d="M423.69,253.63h-2.95l-2.43,7-.49,1.38-2.92-8.38h-3.07L408.91,262l-.49-1.38-2.43-7h-3.75l.27.77.94,2.69,2.28,6.56,1.65,4.76h3.07l2.91-8.37,2.92,8.37h3.07l1.65-4.76,2.28-6.56.94-2.69.27-.77Zm12.46,10.16-.46.24a17.76,17.76,0,0,1-2.05.93,6.45,6.45,0,0,1-2.18.38,3.86,3.86,0,0,1-2.28-.6,2.77,2.77,0,0,1-.94-1.41h1.94a10,10,0,0,0,4.57-.93,4.53,4.53,0,0,0,.5-7.8,7.05,7.05,0,0,0-3.95-1.16,6.59,6.59,0,0,0-5.15,2.36,8.33,8.33,0,0,0-1.86,5.6,7.38,7.38,0,0,0,1.82,5.24,6.73,6.73,0,0,0,5.16,2.07,11.7,11.7,0,0,0,6.2-1.89l.49-.31ZM430,257a2.43,2.43,0,0,1,1.22-.31,5.49,5.49,0,0,1,1,.1,2.32,2.32,0,0,1,.79.32,1.2,1.2,0,0,1,.45.44,1.41,1.41,0,0,1,.2.75,1,1,0,0,1-.25.8,3,3,0,0,1-.94.61,6,6,0,0,1-2.23.24H428a4.82,4.82,0,0,1,.94-2.05A3.94,3.94,0,0,1,430,257Zm21.25-1.53a6.34,6.34,0,0,0-5.13-2.34,6.42,6.42,0,0,0-3,.71V247.5h-3.59v20.41l.4.12a21,21,0,0,0,5.13.65,7.66,7.66,0,0,0,6-2.26,8.34,8.34,0,0,0,2-5.59A8.55,8.55,0,0,0,451.22,255.51ZM447.16,265a4.33,4.33,0,0,1-1.86.33c-.58,0-1.39-.05-2.24-.14v-6.28a1.92,1.92,0,0,1,.59-1.28,3.1,3.1,0,0,1,2.41-1,2.69,2.69,0,0,1,2.44,1.35,5.51,5.51,0,0,1,.81,3.05,4.62,4.62,0,0,1-1,3.1A3.24,3.24,0,0,1,447.16,265Zm7.46-11.32h3.59v14.76h-3.59Zm20.17,14.77V258.18a5.26,5.26,0,0,0-.44-2.21c-.8-1.63-2.6-2.53-5.06-2.53a6.3,6.3,0,0,0-4.42,1.56,6.36,6.36,0,0,0-1.55-1.5l-.38-.27-2.34,2.14.44.42a3.63,3.63,0,0,1,.88,1.16,4.13,4.13,0,0,1,.25,1.48v10h3.59v-9.73a6.22,6.22,0,0,1,1.43-1.36,3.48,3.48,0,0,1,2-.59,2.36,2.36,0,0,1,1.6.5c.23.21.45.56.45,1.61v9.56Zm5.32-.36c2-1.46,4.12-.86,6.24-.77h.39a31.08,31.08,0,0,0,3.48-.21V253.66h-3.59v9.09a3.06,3.06,0,0,1-2.73,2.33s-2.43.19-2.71-1.85v-9.56H477.6v10.24a5.3,5.3,0,0,0,.44,2.22A4.13,4.13,0,0,0,480.11,268.07Z" style="fill:#fff"/><path d="M495.17,259.76a6.11,6.11,0,0,0-4.61-.71h0v4.08a1.13,1.13,0,0,1,.15-.21,1.39,1.39,0,0,1,.27-.21,2.37,2.37,0,0,1,2.33.1,1.83,1.83,0,0,1,.88,1.83,2.15,2.15,0,0,1-.78,1.56,6.16,6.16,0,0,1-2.9,1.15h-.05l-.12,0h0c-.5,0-2.11.18-3.57.16H486l-1.94-.13a5.43,5.43,0,0,0-.57,0,4.07,4.07,0,0,0-.5,0l-.44,0h-.13a5.45,5.45,0,0,0-2,.77l-.06,0a5,5,0,0,0-1.48,1.51,6,6,0,0,0,0,6.05,5.38,5.38,0,0,0,5.08,2.67,5.64,5.64,0,0,0,4.05-1.94,9,9,0,0,0,1.9-3.92q.17-.69.27-1.35l-3.64-.08c-.08.39-.18.77-.29,1.15a5.09,5.09,0,0,1-.91,1.82,2.16,2.16,0,0,1-1.56.75,1.85,1.85,0,0,1-1.82-.92,2.36,2.36,0,0,1-.05-2.33,1.71,1.71,0,0,1,.21-.26,2.21,2.21,0,0,1,1.68-.45c.7,0,1.37,0,2-.05h0c.26,0,.51,0,.76,0h0l3.69.08a10.64,10.64,0,0,0,5.51-2.09,5.73,5.73,0,0,0,2-4,5.41,5.41,0,0,0-2.57-5.14" style="fill:#fff"/><path d="M579.78,263A129.78,129.78,0,1,1,450,133.21,129.78,129.78,0,0,1,579.78,263Z" style="fill:none;stroke:#fec9bc;stroke-linecap:round;stroke-miterlimit:10;stroke-dasharray:3.8880200386047363,2.592010021209717"/><path d="M624.11,345.44a192.69,192.69,0,0,1-352.19-8.93" style="fill:none;stroke:#f94f24;stroke-linecap:round;stroke-miterlimit:10;stroke-dasharray:3.440769910812378,2.2938499450683594"/><path d="M259.09,288.65a194,194,0,0,1-1.7-25.66c0-106.38,86.24-192.61,192.61-192.61S642.61,156.61,642.61,263q0,8.85-.79,17.5" style="fill:none;stroke:#f94f24;stroke-linecap:round;stroke-miterlimit:10;stroke-dasharray:3.440769910812378,2.2938499450683594"/><circle cx="639.55" cy="265.27" r="43.68" style="fill:#f1ecfa"/><circle cx="640.11" cy="265.27" r="32.1" style="stroke:#f94f24;stroke-linecap:round;stroke-miterlimit:10;stroke-width:1.7230800000000002px;fill:url(#a)"/><path d="M208.36,324h0l-2.6-3.88v5.92h-1.45v-8.29h1.56l2.52,3.92,2.53-3.92h1.55v8.29H211v-5.95Z" style="fill:#6731cf"/><path d="M216.09,317.78v8.29h-1.44v-8.29Z" style="fill:#6731cf"/><path d="M224.87,325.36a5.3,5.3,0,0,1-.76.46,3.37,3.37,0,0,1-.88.29,5,5,0,0,1-1.06.1,4.21,4.21,0,0,1-3-1.23,4.31,4.31,0,0,1-.88-1.36,4.57,4.57,0,0,1,0-3.36,4,4,0,0,1,.88-1.36,4.12,4.12,0,0,1,1.35-.93,4.41,4.41,0,0,1,1.73-.34,5.56,5.56,0,0,1,1,.1,3.76,3.76,0,0,1,.86.27,4.17,4.17,0,0,1,.72.4,7.91,7.91,0,0,1,.63.52l-.94,1.08a4.89,4.89,0,0,0-1-.74,2.79,2.79,0,0,0-1.27-.29,2.67,2.67,0,0,0-1.1.23,3,3,0,0,0-.87.63,3.14,3.14,0,0,0-.57.93,3.35,3.35,0,0,0-.2,1.15,3.41,3.41,0,0,0,.2,1.16,3.07,3.07,0,0,0,.57.94,2.7,2.7,0,0,0,.87.63,2.53,2.53,0,0,0,1.1.24,2.66,2.66,0,0,0,1.3-.3,4.74,4.74,0,0,0,1.08-.78l.94.95A7.54,7.54,0,0,1,224.87,325.36Z" style="fill:#6731cf"/><path d="M232.39,326.07l-2-2.89h-1.83v2.89h-1.44v-8.29h3.69a4.28,4.28,0,0,1,1.29.18,2.81,2.81,0,0,1,1,.52,2.19,2.19,0,0,1,.61.83,2.9,2.9,0,0,1,.07,2,2.54,2.54,0,0,1-.41.72,2.42,2.42,0,0,1-.62.53,3.16,3.16,0,0,1-.8.34l2.24,3.14Zm-.48-6.63a2,2,0,0,0-1.27-.35h-2.13v2.8h2.14a1.94,1.94,0,0,0,1.25-.38,1.27,1.27,0,0,0,.46-1A1.24,1.24,0,0,0,231.91,319.44Z" style="fill:#6731cf"/><path d="M243.62,323.57a4.08,4.08,0,0,1-.9,1.37,4.28,4.28,0,0,1-3.13,1.27,4.51,4.51,0,0,1-1.75-.33,4.19,4.19,0,0,1-1.36-.92,4.11,4.11,0,0,1-.89-1.37,4.44,4.44,0,0,1,0-3.31,4,4,0,0,1,.9-1.37,4.34,4.34,0,0,1,3.13-1.28,4.51,4.51,0,0,1,1.75.34,4.15,4.15,0,0,1,2.25,2.28,4.47,4.47,0,0,1,0,3.32Zm-1.41-2.78a2.91,2.91,0,0,0-.58-.94,2.78,2.78,0,0,0-.9-.64,2.71,2.71,0,0,0-1.14-.24,2.68,2.68,0,0,0-2,.86,2.91,2.91,0,0,0-.58.94,3.38,3.38,0,0,0,0,2.29,3.1,3.1,0,0,0,.58.94,2.78,2.78,0,0,0,.9.64,2.71,2.71,0,0,0,1.14.24,2.78,2.78,0,0,0,2-.86,2.91,2.91,0,0,0,.58-.94,3.38,3.38,0,0,0,0-2.29Z" style="fill:#6731cf"/><path d="M247,320.37a.87.87,0,0,0,.31.33,2.24,2.24,0,0,0,.6.29c.26.08.59.18,1,.27a8,8,0,0,1,1.16.37,2.82,2.82,0,0,1,.84.49,1.9,1.9,0,0,1,.5.67,2.14,2.14,0,0,1,.18.91,2.54,2.54,0,0,1-.22,1.06,2.33,2.33,0,0,1-.61.78,2.64,2.64,0,0,1-.93.48,3.76,3.76,0,0,1-1.19.17,5.39,5.39,0,0,1-1.84-.32,5.09,5.09,0,0,1-1.63-1l.88-1a5.32,5.32,0,0,0,1.22.8,3.3,3.3,0,0,0,1.4.28,1.79,1.79,0,0,0,1.07-.29.88.88,0,0,0,.4-.77.87.87,0,0,0-.08-.4.7.7,0,0,0-.28-.32,2.16,2.16,0,0,0-.57-.28,9.85,9.85,0,0,0-.95-.28,9.34,9.34,0,0,1-1.18-.34,3.26,3.26,0,0,1-.87-.47,1.88,1.88,0,0,1-.53-.69,2.41,2.41,0,0,1-.19-1,2.33,2.33,0,0,1,.22-1,2.27,2.27,0,0,1,.58-.76,2.56,2.56,0,0,1,.89-.49,3.45,3.45,0,0,1,1.14-.17,5,5,0,0,1,1.64.26,5.09,5.09,0,0,1,1.37.78l-.79,1.1a5.09,5.09,0,0,0-1.12-.63,3,3,0,0,0-1.13-.22,1.54,1.54,0,0,0-1,.29.87.87,0,0,0-.36.7A1.1,1.1,0,0,0,247,320.37Z" style="fill:#6731cf"/><path d="M259.38,319.09h-4.7v2.13h4.16v1.32h-4.16v2.22h4.75v1.31h-6.19v-8.29h6.14Z" style="fill:#6731cf"/><path d="M266.5,326.07l-2.05-2.89h-1.83v2.89h-1.44v-8.29h3.69a4.28,4.28,0,0,1,1.29.18,2.81,2.81,0,0,1,1,.52,2.19,2.19,0,0,1,.61.83,2.6,2.6,0,0,1,.22,1.1,2.75,2.75,0,0,1-.15.93,2.54,2.54,0,0,1-.41.72,2.27,2.27,0,0,1-.62.53,3,3,0,0,1-.8.34l2.24,3.14Zm-.48-6.63a2,2,0,0,0-1.27-.35h-2.13v2.8h2.14a1.92,1.92,0,0,0,1.25-.38,1.27,1.27,0,0,0,.46-1A1.24,1.24,0,0,0,266,319.44Z" style="fill:#6731cf"/><path d="M275.4,317.78H277l-3.45,8.35h-1.28l-3.45-8.35h1.61l2.5,6.37Z" style="fill:#6731cf"/><path d="M279.93,317.78v8.29h-1.45v-8.29Z" style="fill:#6731cf"/><path d="M288.7,325.36a4.7,4.7,0,0,1-.75.46,3.5,3.5,0,0,1-.88.29,5,5,0,0,1-1.06.1,4.28,4.28,0,0,1-1.69-.33A4.22,4.22,0,0,1,283,325a4.31,4.31,0,0,1-.88-1.36,4.64,4.64,0,0,1,0-3.36,4.17,4.17,0,0,1,.89-1.36,3.92,3.92,0,0,1,1.35-.93,4.38,4.38,0,0,1,1.73-.34,5.37,5.37,0,0,1,1,.1,3.61,3.61,0,0,1,.86.27,4.68,4.68,0,0,1,.73.4,6.31,6.31,0,0,1,.62.52l-.93,1.08a5,5,0,0,0-1.06-.74,2.72,2.72,0,0,0-1.26-.29,2.64,2.64,0,0,0-1.1.23,2.76,2.76,0,0,0-1.44,1.56,3.13,3.13,0,0,0-.2,1.15,3.18,3.18,0,0,0,.2,1.16,2.73,2.73,0,0,0,.57.94,2.69,2.69,0,0,0,2,.87,2.66,2.66,0,0,0,1.3-.3,5.22,5.22,0,0,0,1.08-.78l.93.95A5.51,5.51,0,0,1,288.7,325.36Z" style="fill:#6731cf"/><path d="M297,319.09h-4.69v2.13h4.16v1.32h-4.16v2.22h4.75v1.31h-6.2v-8.29H297Z" style="fill:#6731cf"/><path d="M300.15,320.37a.77.77,0,0,0,.3.33,2.32,2.32,0,0,0,.61.29c.25.08.58.18,1,.27a8.83,8.83,0,0,1,1.16.37,2.89,2.89,0,0,1,.83.49,2.06,2.06,0,0,1,.51.67,2.31,2.31,0,0,1,.17.91,2.39,2.39,0,0,1-.22,1.06,2.18,2.18,0,0,1-.6.78,2.73,2.73,0,0,1-.93.48,3.87,3.87,0,0,1-1.2.17,5.44,5.44,0,0,1-1.84-.32,5.16,5.16,0,0,1-1.62-1l.88-1a5.11,5.11,0,0,0,1.22.8,3.26,3.26,0,0,0,1.39.28,1.82,1.82,0,0,0,1.08-.29.9.9,0,0,0,.39-.77,1,1,0,0,0-.07-.4.73.73,0,0,0-.29-.32,2.16,2.16,0,0,0-.57-.28,9.53,9.53,0,0,0-.94-.28,9.05,9.05,0,0,1-1.19-.34,3,3,0,0,1-.86-.47,1.91,1.91,0,0,1-.54-.69,2.42,2.42,0,0,1-.18-1,2.33,2.33,0,0,1,.21-1,2.4,2.4,0,0,1,.58-.76,2.65,2.65,0,0,1,.89-.49,3.49,3.49,0,0,1,1.14-.17,4.52,4.52,0,0,1,3,1l-.78,1.1a5.15,5.15,0,0,0-1.13-.63,3,3,0,0,0-1.12-.22,1.57,1.57,0,0,0-1,.29.87.87,0,0,0-.36.7A.94.94,0,0,0,300.15,320.37Z" style="fill:#6731cf"/><path d="M423.9,118.86h1.24l2,6.17,2-6.15h1.53l-2.89,8.36h-1.25l-2-6-2,6H421.2l-2.89-8.36h1.58l2,6.15Z" style="fill:#6731cf"/><path d="M438.32,120.2h-4.7v2.13h4.16v1.32h-4.16v2.21h4.76v1.32h-6.2v-8.3h6.14Z" style="fill:#6731cf"/><path d="M445.82,119.45a1.86,1.86,0,0,1,.73,1.56,2.07,2.07,0,0,1-.1.68,1.86,1.86,0,0,1-.25.51,2,2,0,0,1-.38.39,3.59,3.59,0,0,1-.44.28,5,5,0,0,1,.66.3,2.14,2.14,0,0,1,.52.41,1.68,1.68,0,0,1,.34.56,2.36,2.36,0,0,1-.1,1.74,2.11,2.11,0,0,1-.62.71,2.88,2.88,0,0,1-1,.44,5,5,0,0,1-1.26.15h-3.83v-8.3h3.71A3.16,3.16,0,0,1,445.82,119.45Zm-1.14,2.66a1.05,1.05,0,0,0,.06-1.65,1.76,1.76,0,0,0-1.08-.29h-2.1v2.22h2A2,2,0,0,0,444.68,122.11Zm.47,3.49a1,1,0,0,0,.42-.86,1,1,0,0,0-.42-.83,2.22,2.22,0,0,0-1.28-.3h-2.31v2.28H444A2.11,2.11,0,0,0,445.15,125.6Z" style="fill:#6731cf"/><path d="M450,121.48a.92.92,0,0,0,.3.33,2.33,2.33,0,0,0,.61.28c.26.09.58.18,1,.28a8.83,8.83,0,0,1,1.16.37,2.86,2.86,0,0,1,.84.49,1.9,1.9,0,0,1,.5.67,2.31,2.31,0,0,1,.17.91,2.49,2.49,0,0,1-.21,1,2.36,2.36,0,0,1-.61.79,2.73,2.73,0,0,1-.93.48,4.14,4.14,0,0,1-1.2.17,5.21,5.21,0,0,1-1.84-.33,5.12,5.12,0,0,1-1.62-1l.88-1a5.11,5.11,0,0,0,1.22.8,3.46,3.46,0,0,0,1.4.28,1.81,1.81,0,0,0,1.07-.29.91.91,0,0,0,.4-.77,1,1,0,0,0-.08-.4.81.81,0,0,0-.29-.33,2.15,2.15,0,0,0-.57-.28c-.24-.08-.55-.17-.94-.27a10.69,10.69,0,0,1-1.18-.34,3,3,0,0,1-.87-.48,2.09,2.09,0,0,1-.54-.68,2.43,2.43,0,0,1-.18-1,2.31,2.31,0,0,1,.21-1,2.4,2.4,0,0,1,.58-.76,2.49,2.49,0,0,1,.89-.49,3.49,3.49,0,0,1,1.14-.18,4.66,4.66,0,0,1,1.64.27,4.94,4.94,0,0,1,1.37.78l-.78,1.1a4.58,4.58,0,0,0-1.13-.63,2.94,2.94,0,0,0-1.12-.22,1.51,1.51,0,0,0-1,.29.89.89,0,0,0-.35.7A.94.94,0,0,0,450,121.48Z" style="fill:#6731cf"/><path d="M457.79,118.88v8.3h-1.45v-8.3Z" style="fill:#6731cf"/><path d="M463.53,127.18h-1.47v-7h-2.63v-1.35h6.73v1.35h-2.63Z" style="fill:#6731cf"/><path d="M473.84,120.2h-4.7v2.13h4.16v1.32h-4.16v2.21h4.76v1.32h-6.2v-8.3h6.14Z" style="fill:#6731cf"/><path d="M476.94,121.48a.87.87,0,0,0,.31.33,2.11,2.11,0,0,0,.6.28c.26.09.59.18,1,.28a8.37,8.37,0,0,1,1.16.37,2.62,2.62,0,0,1,.84.49,1.9,1.9,0,0,1,.5.67,2.14,2.14,0,0,1,.18.91,2.49,2.49,0,0,1-.22,1,2.36,2.36,0,0,1-.61.79,2.73,2.73,0,0,1-.93.48,4.07,4.07,0,0,1-1.19.17,5.17,5.17,0,0,1-1.84-.33,5.06,5.06,0,0,1-1.63-1l.88-1a5.11,5.11,0,0,0,1.22.8,3.46,3.46,0,0,0,1.4.28,1.79,1.79,0,0,0,1.07-.29.88.88,0,0,0,.4-.77,1,1,0,0,0-.08-.4.78.78,0,0,0-.28-.33,2.52,2.52,0,0,0-.57-.28c-.24-.08-.56-.17-.95-.27a11.37,11.37,0,0,1-1.18-.34,3.28,3.28,0,0,1-.87-.48,1.93,1.93,0,0,1-.53-.68,2.43,2.43,0,0,1-.19-1,2.18,2.18,0,0,1,.22-1,2.27,2.27,0,0,1,.58-.76,2.33,2.33,0,0,1,.89-.49,3.45,3.45,0,0,1,1.14-.18,4.74,4.74,0,0,1,1.64.27,5.09,5.09,0,0,1,1.37.78l-.79,1.1a4.71,4.71,0,0,0-1.12-.63,3,3,0,0,0-1.13-.22,1.46,1.46,0,0,0-1,.29.87.87,0,0,0-.36.7A1.1,1.1,0,0,0,476.94,121.48Z" style="fill:#6731cf"/><path d="M445.07,512.55h-1.54l-.84-2h-3.92l-.86,2h-1.49l3.65-8.36h1.35Zm-4.35-6.62-1.42,3.32h2.86Z" style="fill:#6731cf"/><path d="M452.66,508.27a2.6,2.6,0,0,1-.72.89,3.47,3.47,0,0,1-1.05.54,4.59,4.59,0,0,1-1.3.18h-1.65v2.67H446.5v-8.3h3.27a4.19,4.19,0,0,1,1.31.2,2.67,2.67,0,0,1,1,.56,2.54,2.54,0,0,1,.63.88,2.81,2.81,0,0,1,.22,1.15A2.85,2.85,0,0,1,452.66,508.27ZM451,505.94a2.1,2.1,0,0,0-1.31-.37h-1.7v3h1.7a2,2,0,0,0,1.32-.41,1.34,1.34,0,0,0,.48-1.08A1.36,1.36,0,0,0,451,505.94Z" style="fill:#6731cf"/><path d="M455.94,504.25v8.3H454.5v-8.3Z" style="fill:#6731cf"/><path d="M462.29,511.56a1.54,1.54,0,0,1-.49.61,2,2,0,0,1-.74.37,3.33,3.33,0,0,1-.91.13,4.16,4.16,0,0,1-1.37-.24,4.5,4.5,0,0,1-1.29-.7l.64-1a4.28,4.28,0,0,0,1,.57,2.92,2.92,0,0,0,1,.2,1.16,1.16,0,0,0,.72-.19.57.57,0,0,0,.26-.49v0a.45.45,0,0,0-.12-.31.91.91,0,0,0-.3-.23,3,3,0,0,0-.45-.18l-.53-.16-.7-.24a2.44,2.44,0,0,1-.62-.33,1.72,1.72,0,0,1-.46-.51,1.47,1.47,0,0,1-.18-.76v0a1.83,1.83,0,0,1,.17-.79,1.91,1.91,0,0,1,.48-.61,2.3,2.3,0,0,1,.71-.38,3,3,0,0,1,.87-.13,4.23,4.23,0,0,1,1.2.19,4.45,4.45,0,0,1,1.1.52l-.57,1a5,5,0,0,0-.91-.43,2.54,2.54,0,0,0-.86-.16,1,1,0,0,0-.64.18.53.53,0,0,0-.23.45v0a.4.4,0,0,0,.12.29,1.14,1.14,0,0,0,.31.23c.13.06.28.13.45.19l.53.17a6.37,6.37,0,0,1,.69.25,2.91,2.91,0,0,1,.62.35,1.65,1.65,0,0,1,.45.5,1.37,1.37,0,0,1,.18.72v0A1.91,1.91,0,0,1,462.29,511.56Z" style="fill:#6731cf"/><path d="M628.93,315.75h1.23l2,6.18,2-6.16h1.53l-2.89,8.36h-1.26l-2-6-2,6h-1.25l-2.89-8.36h1.57l2,6.16Z" style="fill:#6731cf"/><path d="M643.34,317.09h-4.69v2.13h4.16v1.32h-4.16v2.22h4.75v1.31h-6.2v-8.3h6.14Z" style="fill:#6731cf"/><path d="M650.85,316.34a1.86,1.86,0,0,1,.73,1.56,2.07,2.07,0,0,1-.1.68,1.88,1.88,0,0,1-.26.51,1.71,1.71,0,0,1-.37.39,3.19,3.19,0,0,1-.44.28,4,4,0,0,1,.66.31,2.32,2.32,0,0,1,.52.4,1.61,1.61,0,0,1,.33.57,2.11,2.11,0,0,1,.12.75,2.05,2.05,0,0,1-.22,1,2,2,0,0,1-.62.72,2.78,2.78,0,0,1-1,.43,4.87,4.87,0,0,1-1.25.15h-3.83v-8.3h3.71A3.16,3.16,0,0,1,650.85,316.34ZM649.71,319a1,1,0,0,0,.42-.86.92.92,0,0,0-.37-.79,1.76,1.76,0,0,0-1.08-.28h-2.09v2.21h2A2,2,0,0,0,649.71,319Zm.46,3.49a1.05,1.05,0,0,0,0-1.69,2.22,2.22,0,0,0-1.28-.3h-2.31v2.28H649A2.06,2.06,0,0,0,650.17,322.49Z" style="fill:#6731cf"/><path d="M606.45,338.29h-1.54l-.84-2h-3.92l-.86,2H597.8l3.65-8.35h1.35Zm-4.35-6.61L600.68,335h2.86Z" style="fill:#6731cf"/><path d="M614,334a2.47,2.47,0,0,1-.72.88,3.08,3.08,0,0,1-1.05.54,4.26,4.26,0,0,1-1.3.19h-1.65v2.66h-1.44V330h3.27a4.19,4.19,0,0,1,1.31.19,2.68,2.68,0,0,1,1,.57,2.5,2.5,0,0,1,.63.87,3.1,3.1,0,0,1,0,2.39Zm-1.71-2.33a2.1,2.1,0,0,0-1.31-.38h-1.7v3H611a2,2,0,0,0,1.32-.41,1.36,1.36,0,0,0,.48-1.09A1.34,1.34,0,0,0,612.33,331.69Z" style="fill:#6731cf"/><path d="M622,334a2.45,2.45,0,0,1-.71.88,3,3,0,0,1-1.06.54,4.15,4.15,0,0,1-1.29.19h-1.65v2.66h-1.45V330h3.27a4.1,4.1,0,0,1,1.31.19,2.73,2.73,0,0,1,1,.57,2.5,2.5,0,0,1,.63.87,3,3,0,0,1,.22,1.15A2.73,2.73,0,0,1,622,334Zm-1.7-2.33a2.1,2.1,0,0,0-1.31-.38h-1.7v3h1.7a2,2,0,0,0,1.31-.41,1.36,1.36,0,0,0,.48-1.09A1.33,1.33,0,0,0,620.25,331.69Z" style="fill:#6731cf"/><path d="M623.71,330h1.45v7h4.36v1.31h-5.81Z" style="fill:#6731cf"/><path d="M632.58,330v8.29h-1.45V330Z" style="fill:#6731cf"/><path d="M641.35,337.58a4.7,4.7,0,0,1-.75.46,3.5,3.5,0,0,1-.88.29,5,5,0,0,1-1.06.11,4.11,4.11,0,0,1-3.9-2.6,4.26,4.26,0,0,1-.32-1.68,4.39,4.39,0,0,1,.31-1.67,4.08,4.08,0,0,1,.88-1.37,4.28,4.28,0,0,1,1.35-.93,4.44,4.44,0,0,1,1.73-.33,5.52,5.52,0,0,1,1,.09,3.76,3.76,0,0,1,.86.27,3.63,3.63,0,0,1,.72.41,5.11,5.11,0,0,1,.63.52l-.93,1.08a4.89,4.89,0,0,0-1.06-.75,2.73,2.73,0,0,0-1.27-.29,2.49,2.49,0,0,0-1.09.24,2.75,2.75,0,0,0-.88.62,2.92,2.92,0,0,0-.56.93,3.13,3.13,0,0,0-.21,1.15,3.19,3.19,0,0,0,.21,1.16,2.86,2.86,0,0,0,.56.94,2.81,2.81,0,0,0,.88.64,2.63,2.63,0,0,0,1.09.23,2.81,2.81,0,0,0,1.31-.29,5.35,5.35,0,0,0,1.07-.79l.94,1A5.43,5.43,0,0,1,641.35,337.58Z" style="fill:#6731cf"/><path d="M651.49,338.29H650l-.84-2h-3.92l-.86,2h-1.49l3.65-8.35h1.35Zm-4.35-6.61L645.72,335h2.86Z" style="fill:#6731cf"/><path d="M655.36,338.29h-1.47v-6.94h-2.64V330H658v1.35h-2.63Z" style="fill:#6731cf"/><path d="M661.06,330v8.29h-1.45V330Z" style="fill:#6731cf"/><path d="M671.27,335.79a4.08,4.08,0,0,1-.9,1.37,4.34,4.34,0,0,1-3.13,1.28,4.51,4.51,0,0,1-1.75-.34,4.15,4.15,0,0,1-2.25-2.28,4.27,4.27,0,0,1-.32-1.66,4.2,4.2,0,0,1,.32-1.66,4.08,4.08,0,0,1,.9-1.37,4.26,4.26,0,0,1,1.37-.93,4.38,4.38,0,0,1,1.76-.34,4.51,4.51,0,0,1,1.75.33,4.15,4.15,0,0,1,2.25,2.28,4.27,4.27,0,0,1,.32,1.66A4.2,4.2,0,0,1,671.27,335.79ZM669.86,333a3.1,3.1,0,0,0-.58-.94,2.78,2.78,0,0,0-.9-.64,2.71,2.71,0,0,0-1.14-.24,2.78,2.78,0,0,0-2,.86,2.91,2.91,0,0,0-.58.94,3.38,3.38,0,0,0,0,2.29,3.1,3.1,0,0,0,.58.94,2.78,2.78,0,0,0,.9.64,2.71,2.71,0,0,0,1.14.24,2.78,2.78,0,0,0,1.13-.23,2.82,2.82,0,0,0,.88-.63,2.91,2.91,0,0,0,.58-.94,3.38,3.38,0,0,0,0-2.29Z" style="fill:#6731cf"/><path d="M679.14,330h1.45v8.29h-1.22l-4.57-5.9v5.9h-1.44V330h1.35l4.43,5.73Z" style="fill:#6731cf"/><circle cx="254.28" cy="265.27" r="43.68" style="fill:#f1ecfa"/><circle cx="254.28" cy="265.27" r="32.1" style="stroke:#f94f24;stroke-linecap:round;stroke-miterlimit:10;stroke-width:1.7230800000000002px;fill:url(#b)"/><path d="M261.45,256.35c-.15.45-.29.91-.45,1.36s-.28.79-.43,1.18a.37.37,0,0,0,.08.42c.44.57.87,1.15,1.26,1.76a3.52,3.52,0,0,1,.44.94.44.44,0,0,0,.5.35l2.25.06c.42,0,.57.15.61.57.09,1,.18,2,.26,3,0,.54-.05.65-.57.75l-2.43.49a.34.34,0,0,0-.31.28,8.8,8.8,0,0,1-1.65,3.2.31.31,0,0,0,0,.28c.38.73.78,1.45,1.16,2.18a.53.53,0,0,1-.18.77l-2.5,1.75c-.44.31-.63.26-1-.16-.55-.63-1.1-1.26-1.66-1.87a.38.38,0,0,0-.31-.08,8.68,8.68,0,0,1-3.55.21.36.36,0,0,0-.27.15c-.32.5-.6,1-.93,1.52a4.16,4.16,0,0,1-.64.75.52.52,0,0,1-.44.06c-1-.42-1.93-.86-2.89-1.29a.54.54,0,0,1-.33-.76c.26-.82.53-1.63.78-2.46a.41.41,0,0,0-.05-.33,8.77,8.77,0,0,1-2.08-3.21c-.06-.17-.13-.25-.32-.25l-2.37-.09c-.44,0-.58-.17-.61-.61-.06-1-.15-2-.21-3,0-.52,0-.62.55-.72l2.46-.48a.36.36,0,0,0,.3-.27,15.69,15.69,0,0,1,.72-1.75,11.11,11.11,0,0,1,.91-1.36.3.3,0,0,0,0-.36l-1.13-2.08c-.21-.39-.14-.62.23-.88l2.48-1.73c.37-.25.57-.23.85.09.58.66,1.15,1.31,1.74,1.95a.36.36,0,0,0,.29.1,8.62,8.62,0,0,1,3.88-.12.25.25,0,0,0,.31-.14l1.33-2a.5.5,0,0,1,.75-.22c.78.38,1.54.79,2.32,1.19Zm-3.4,8.67a3.77,3.77,0,1,1-3.77-3.76A3.77,3.77,0,0,1,258.05,265Z" style="fill:none;stroke:#fff;stroke-linecap:round;stroke-linejoin:round;stroke-width:2px;fill-rule:evenodd"/><line x1="244.36" y1="249.71" x2="248.08" y2="255.43" style="fill:none;stroke:#fff;stroke-linecap:round;stroke-linejoin:round;stroke-width:2px"/><path d="M245.28,246.79a2.6,2.6,0,1,1-2.6-2.59A2.59,2.59,0,0,1,245.28,246.79Z" style="fill:none;stroke:#fff;stroke-linecap:round;stroke-linejoin:round;stroke-width:2px;fill-rule:evenodd"/><line x1="262.44" y1="248.68" x2="259.81" y2="254.97" style="fill:none;stroke:#fff;stroke-linecap:round;stroke-linejoin:round;stroke-width:2px"/><path d="M265.36,247.8a2.59,2.59,0,1,1,.68-3.61A2.59,2.59,0,0,1,265.36,247.8Z" style="fill:none;stroke:#fff;stroke-linecap:round;stroke-linejoin:round;stroke-width:2px;fill-rule:evenodd"/><line x1="272.8" y1="264.49" x2="265.98" y2="264.65" style="fill:none;stroke:#fff;stroke-linecap:round;stroke-linejoin:round;stroke-width:2px"/><path d="M274.8,266.8a2.59,2.59,0,1,1,3.57-.85A2.6,2.6,0,0,1,274.8,266.8Z" style="fill:none;stroke:#fff;stroke-linecap:round;stroke-linejoin:round;stroke-width:2px;fill-rule:evenodd"/><line x1="265.16" y1="280.31" x2="261.01" y2="274.89" style="fill:none;stroke:#fff;stroke-linecap:round;stroke-linejoin:round;stroke-width:2px"/><path d="M264.46,283.28a2.59,2.59,0,1,1,2.78,2.39A2.59,2.59,0,0,1,264.46,283.28Z" style="fill:none;stroke:#fff;stroke-linecap:round;stroke-linejoin:round;stroke-width:2px;fill-rule:evenodd"/><line x1="246.62" y1="282.22" x2="249.2" y2="275.91" style="fill:none;stroke:#fff;stroke-linecap:round;stroke-linejoin:round;stroke-width:2px"/><path d="M243.7,283.13a2.59,2.59,0,1,1-.65,3.61A2.59,2.59,0,0,1,243.7,283.13Z" style="fill:none;stroke:#fff;stroke-linecap:round;stroke-linejoin:round;stroke-width:2px;fill-rule:evenodd"/><line x1="235.88" y1="266.4" x2="242.68" y2="265.87" style="fill:none;stroke:#fff;stroke-linecap:round;stroke-linejoin:round;stroke-width:2px"/><path d="M233.77,264.19a2.6,2.6,0,1,1-3.52,1A2.59,2.59,0,0,1,233.77,264.19Z" style="fill:none;stroke:#fff;stroke-linecap:round;stroke-linejoin:round;stroke-width:2px;fill-rule:evenodd"/><circle cx="450.02" cy="70.38" r="43.68" transform="translate(18.36 215.78) rotate(-27.5)" style="fill:#f1ecfa"/><circle cx="450.02" cy="70.38" r="32.1" transform="translate(7.32 177.57) rotate(-22.5)" style="stroke:#f94f24;stroke-linecap:round;stroke-miterlimit:10;stroke-width:1.7230800000000002px;fill:url(#c)"/><rect x="432.22" y="55.93" width="36.56" height="27.67" style="fill:none;stroke:#fff;stroke-linecap:round;stroke-linejoin:round;stroke-width:2px"/><line x1="432.22" y1="65.24" x2="468.79" y2="65.24" style="fill:none;stroke:#fff;stroke-linecap:round;stroke-linejoin:round;stroke-width:2px"/><path d="M438.63,60.92a1.22,1.22,0,0,1-2.43,0,1.22,1.22,0,1,1,2.43,0Z" style="fill:#fff;fill-rule:evenodd"/><path d="M443.78,60.92a1.22,1.22,0,1,1-1.21-1.22A1.21,1.21,0,0,1,443.78,60.92Z" style="fill:#fff;fill-rule:evenodd"/><path d="M448.93,60.92a1.22,1.22,0,1,1-1.22-1.22A1.22,1.22,0,0,1,448.93,60.92Z" style="fill:#fff;fill-rule:evenodd"/><rect x="621.27" y="250.65" width="36.56" height="27.67" style="fill:none;stroke:#fff;stroke-linecap:round;stroke-linejoin:round;stroke-width:2px"/><line x1="621.27" y1="259.96" x2="657.83" y2="259.96" style="fill:none;stroke:#fff;stroke-linecap:round;stroke-linejoin:round;stroke-width:2px"/><path d="M627.68,255.64a1.22,1.22,0,1,1-1.22-1.22A1.21,1.21,0,0,1,627.68,255.64Z" style="fill:#fff;fill-rule:evenodd"/><path d="M632.83,255.64a1.22,1.22,0,1,1-1.22-1.22A1.22,1.22,0,0,1,632.83,255.64Z" style="fill:#fff;fill-rule:evenodd"/><path d="M638,255.64a1.22,1.22,0,1,1-1.21-1.22A1.21,1.21,0,0,1,638,255.64Z" style="fill:#fff;fill-rule:evenodd"/><line x1="437.4" y1="71.52" x2="455.39" y2="71.52" style="fill:none;stroke:#fff;stroke-linecap:round;stroke-linejoin:round;stroke-width:2px"/><line x1="437.4" y1="77.43" x2="447.69" y2="77.43" style="fill:none;stroke:#fff;stroke-linecap:round;stroke-linejoin:round;stroke-width:2px"/><polyline points="636.44 266.15 633.46 269.13 636.44 272.11" style="fill:none;stroke:#fff;stroke-linecap:round;stroke-linejoin:round;stroke-width:2px;fill-rule:evenodd"/><polyline points="647.65 272.11 650.63 269.13 647.65 266.15" style="fill:none;stroke:#fff;stroke-linecap:round;stroke-linejoin:round;stroke-width:2px;fill-rule:evenodd"/><line x1="640.37" y1="266.15" x2="643.57" y2="272.11" style="fill:none;stroke:#fff;stroke-linecap:round;stroke-linejoin:round;stroke-width:2px"/><circle cx="449.55" cy="455.59" r="43.68" transform="translate(-104.25 776.49) rotate(-75.47)" style="fill:#f1ecfa"/><circle cx="449.55" cy="455.59" r="32.1" style="stroke:#f94f24;stroke-linecap:round;stroke-miterlimit:10;stroke-width:1.7230800000000002px;fill:url(#d)"/><path d="M461.06,465a2.86,2.86,0,0,1-2.14-.89c-.06-.06-.09-.06-.16,0L453,467.47l-.64.37a.09.09,0,0,0,0,.12,2.44,2.44,0,0,1,.12,1,2.78,2.78,0,0,1-1.07,2.05,2.63,2.63,0,0,1-1.48.61,2.83,2.83,0,0,1-2.75-1.39,2.71,2.71,0,0,1-.38-1.62,3.32,3.32,0,0,1,.09-.55c0-.07,0-.1-.06-.13l-3.7-2.14-2.72-1.57c-.12-.07-.12-.07-.21,0a2.78,2.78,0,0,1-1.59.77,2.85,2.85,0,0,1-1.3-5.52l.16-.05c.07,0,.09-.05.09-.12v-7.43c0-.09,0-.12-.11-.15a2.77,2.77,0,0,1-2.05-2.29,2.82,2.82,0,0,1,2.23-3.24,2.77,2.77,0,0,1,2.59.77.1.1,0,0,0,.15,0l6.41-3.7c.13-.08.13-.08.09-.23a2.85,2.85,0,1,1,5.56-1.24,2.72,2.72,0,0,1,0,1.3.12.12,0,0,0,.06.15l5.77,3.33.69.39c.06,0,.09,0,.14,0a2.84,2.84,0,0,1,3.74-.25,2.67,2.67,0,0,1,1.08,1.81,2.76,2.76,0,0,1-1.25,2.83,2.32,2.32,0,0,1-.8.36c-.09,0-.1.07-.1.15v7.42c0,.08,0,.11.1.14a2.79,2.79,0,0,1,2,2.22,2.83,2.83,0,0,1-2.22,3.31A4,4,0,0,1,461.06,465Zm-11.49-3.52h8.54c.08,0,.11,0,.13-.09a2.73,2.73,0,0,1,.72-1.24.1.1,0,0,0,0-.15l-1.07-1.84q-1.65-2.88-3.32-5.76l-4.16-7.2a.13.13,0,0,0-.17-.08,2.76,2.76,0,0,1-1.37,0c-.13,0-.13,0-.19.08l-4.52,7.83c-1.34,2.32-2.68,4.65-4,7,0,.06,0,.09,0,.14a2.83,2.83,0,0,1,.71,1.23c0,.08.06.1.14.1Zm0,1.35H441c-.05,0-.09,0-.11.06s0,.08.06.11l1.52.87,4.92,2.85c.11.06.11.06.2,0A2.81,2.81,0,0,1,450,466a2.76,2.76,0,0,1,1.62.83.11.11,0,0,0,.16,0l5.23-3,1.19-.69s.07,0,.07-.07a.15.15,0,0,0-.15-.18Zm-10.75-7.28v3.74c0,.06,0,.1.07.11s.08,0,.11-.06l3.92-6.79,2.64-4.57,2-3.47s.05-.08,0-.13-.08,0-.13,0l-2.77,1.6-3.7,2.14c-.06,0-.08.06-.06.13a2.75,2.75,0,0,1,.05,1.21,2.83,2.83,0,0,1-2,2.23c-.15,0-.14,0-.14.19Zm21.5,0v-3.68c0-.19,0-.15-.15-.19a2.86,2.86,0,0,1-1.95-3.39c0-.13,0-.13-.08-.2l-5.24-3-1.21-.7c-.05,0-.08,0-.12,0s0,.09,0,.12c.48.83.95,1.66,1.43,2.48l3.12,5.4,2.82,4.89,1.19,2.06a.1.1,0,0,0,.13.06c.06,0,.05-.08.05-.12Z" style="fill:#fff;fill-rule:evenodd"/><path d="M449.57,474.26a18.67,18.67,0,1,1,18.66-18.66A18.68,18.68,0,0,1,449.57,474.26Zm0-35.69a17,17,0,1,0,17,17A17,17,0,0,0,449.57,438.57Z" style="fill:#fff"/><path d="M106.32,280.49a46.78,46.78,0,1,1-46.78-46.78A46.77,46.77,0,0,1,106.32,280.49Z" style="fill:#f2f2f2"/><path d="M830.39,330.68s-78.32-16-94.15-51.28,1-61.24,42.2-90.62,85.15-29.6,103.68,31.85S897.45,340.24,830.39,330.68Z" style="fill:#f2f2f2"/></svg>