<svg xmlns="http://www.w3.org/2000/svg" xmlns:xlink="http://www.w3.org/1999/xlink" viewBox="0 0 900 450"><defs><linearGradient id="a" x1="78.94" y1="171.42" x2="834.68" y2="171.42" gradientUnits="userSpaceOnUse"><stop offset="0" stop-color="#8033eb"/><stop offset="1" stop-color="#6731ce"/></linearGradient><linearGradient id="b" x1="71.12" y1="171.42" x2="80.21" y2="171.42" xlink:href="#a"/><linearGradient id="c" x1="833.41" y1="171.42" x2="842.49" y2="171.42" xlink:href="#a"/><linearGradient id="d" x1="75.2" y1="264.89" x2="76.13" y2="264.89" xlink:href="#a"/></defs><title>webiny-vs-oss</title><rect x="651.9" y="87.41" width="160.04" height="267.2" style="fill:#feeeea"/><path d="M351.52,121.77H350V109.52h-4.59v-1.43h10.73v1.43h-4.59Z" style="fill:#581cca"/><path d="M358.53,121.77H357v-10.1h1.5v2.64a5.35,5.35,0,0,1,.68-1.16,5.05,5.05,0,0,1,.94-.91,4.12,4.12,0,0,1,1.15-.57,4.24,4.24,0,0,1,1.35-.18v1.62h-.11a4.09,4.09,0,0,0-1.56.3,3.38,3.38,0,0,0-1.28.88,4.23,4.23,0,0,0-.86,1.45,5.88,5.88,0,0,0-.31,2Z" style="fill:#581cca"/><path d="M366.47,113.06a9.52,9.52,0,0,0-1.43.54l-.45-1.23a10.85,10.85,0,0,1,1.7-.62,8.29,8.29,0,0,1,2-.22,4.53,4.53,0,0,1,3.19,1,3.91,3.91,0,0,1,1.11,3v6.18h-1.45v-1.52a5,5,0,0,1-1.41,1.21,4.37,4.37,0,0,1-2.24.52,4.94,4.94,0,0,1-1.38-.19,3.71,3.71,0,0,1-1.21-.6,3,3,0,0,1-.86-1,2.91,2.91,0,0,1-.32-1.39,3.09,3.09,0,0,1,.31-1.42,2.82,2.82,0,0,1,.89-1,4,4,0,0,1,1.37-.63,6.83,6.83,0,0,1,1.75-.21,11.92,11.92,0,0,1,1.7.11,12.41,12.41,0,0,1,1.4.32v-.36a2.6,2.6,0,0,0-.79-2.06,3.26,3.26,0,0,0-2.22-.69A6.38,6.38,0,0,0,366.47,113.06Zm-.48,4.16a1.82,1.82,0,0,0-.76,1.54,1.71,1.71,0,0,0,.21.86,1.85,1.85,0,0,0,.55.63,2.81,2.81,0,0,0,.81.41,3.42,3.42,0,0,0,1,.13,4.34,4.34,0,0,0,1.32-.2,3.64,3.64,0,0,0,1.07-.57,2.57,2.57,0,0,0,.72-.86,2.26,2.26,0,0,0,.26-1.1v-1c-.37-.1-.8-.2-1.29-.29a9.22,9.22,0,0,0-1.67-.14A3.6,3.6,0,0,0,366,117.22Z" style="fill:#581cca"/><path d="M383.87,121.77v-2a7.88,7.88,0,0,1-.69.86,4.91,4.91,0,0,1-.85.72,3.9,3.9,0,0,1-1.05.49A4.27,4.27,0,0,1,380,122a4.51,4.51,0,0,1-1.77-.35,4.64,4.64,0,0,1-1.55-1,5.05,5.05,0,0,1-1.09-1.65,5.65,5.65,0,0,1-.41-2.23,5.58,5.58,0,0,1,.41-2.23,5.05,5.05,0,0,1,1.09-1.65,4.86,4.86,0,0,1,1.55-1,4.52,4.52,0,0,1,1.77-.36,4.37,4.37,0,0,1,1.29.18,4.1,4.1,0,0,1,1.06.47,4.3,4.3,0,0,1,.85.68,6.33,6.33,0,0,1,.67.82v-6.1h1.51v14.27Zm-.24-6.66a3.74,3.74,0,0,0-.82-1.22,4,4,0,0,0-1.17-.79,3.38,3.38,0,0,0-1.36-.28,3.74,3.74,0,0,0-1.39.26,3.32,3.32,0,0,0-1.12.76,3.46,3.46,0,0,0-.76,1.23,4.44,4.44,0,0,0-.29,1.64,4.35,4.35,0,0,0,.29,1.61,3.66,3.66,0,0,0,.77,1.24,3.27,3.27,0,0,0,1.13.78,3.41,3.41,0,0,0,2.73,0,3.93,3.93,0,0,0,1.17-.78,3.73,3.73,0,0,0,.82-1.24,4.42,4.42,0,0,0,0-3.2Z" style="fill:#581cca"/><path d="M388.78,109.46V107.8h1.72v1.66Zm.1,12.31v-10.1h1.5v10.1Z" style="fill:#581cca"/><path d="M395.91,118.9a1.6,1.6,0,0,0,.47,1.31,2,2,0,0,0,1.23.37,3.4,3.4,0,0,0,.73-.08,3.36,3.36,0,0,0,.74-.27v1.29a3.65,3.65,0,0,1-.83.32,4.35,4.35,0,0,1-1,.11,4.19,4.19,0,0,1-1.14-.16,2.33,2.33,0,0,1-.9-.5,2.19,2.19,0,0,1-.6-.89,3.63,3.63,0,0,1-.21-1.31V113H393v-1.33h1.41v-3h1.5v3h3.2V113h-3.2Z" style="fill:#581cca"/><path d="M401.81,109.46V107.8h1.72v1.66Zm.1,12.31v-10.1h1.5v10.1Z" style="fill:#581cca"/><path d="M416.42,118.75a5.28,5.28,0,0,1-1.11,1.69,5.2,5.2,0,0,1-1.68,1.14,5.26,5.26,0,0,1-2.11.42,5.22,5.22,0,0,1-3.75-1.55,5,5,0,0,1-1.09-1.67,5.5,5.5,0,0,1,0-4.07,5.07,5.07,0,0,1,1.09-1.69,5.14,5.14,0,0,1,1.67-1.15,5.28,5.28,0,0,1,2.12-.42,5.22,5.22,0,0,1,3.77,1.56,5,5,0,0,1,1.1,1.67,5.28,5.28,0,0,1,.39,2A5.41,5.41,0,0,1,416.42,118.75ZM415,115.2a3.8,3.8,0,0,0-2-2.11,3.52,3.52,0,0,0-1.49-.31,3.65,3.65,0,0,0-1.5.3,3.44,3.44,0,0,0-1.17.84,4.12,4.12,0,0,0-.75,1.25,4.24,4.24,0,0,0-.27,1.53,4.13,4.13,0,0,0,.28,1.54,3.89,3.89,0,0,0,.78,1.25,3.7,3.7,0,0,0,1.19.83,3.48,3.48,0,0,0,1.48.32,3.66,3.66,0,0,0,2.68-1.13,3.91,3.91,0,0,0,.76-1.24,4.32,4.32,0,0,0,.27-1.53A4.13,4.13,0,0,0,415,115.2Z" style="fill:#581cca"/><path d="M421,121.77h-1.51v-10.1H421v1.76a4.67,4.67,0,0,1,1.33-1.4,3.56,3.56,0,0,1,2.13-.58,4.19,4.19,0,0,1,1.63.3,3.31,3.31,0,0,1,1.21.83,3.49,3.49,0,0,1,.76,1.28,4.74,4.74,0,0,1,.27,1.64v6.27h-1.51v-5.9a3.27,3.27,0,0,0-.72-2.23,2.6,2.6,0,0,0-2.07-.82,3.46,3.46,0,0,0-1.21.22,2.91,2.91,0,0,0-1,.65,2.86,2.86,0,0,0-.64,1A3.57,3.57,0,0,0,421,116Z" style="fill:#581cca"/><path d="M433.59,113.06a9.13,9.13,0,0,0-1.43.54l-.45-1.23a10.85,10.85,0,0,1,1.7-.62,8.29,8.29,0,0,1,2-.22,4.49,4.49,0,0,1,3.18,1,3.88,3.88,0,0,1,1.12,3v6.18h-1.45v-1.52a5,5,0,0,1-1.41,1.21,4.37,4.37,0,0,1-2.24.52,4.94,4.94,0,0,1-1.38-.19,3.71,3.71,0,0,1-1.21-.6,2.79,2.79,0,0,1-1.18-2.37,3.09,3.09,0,0,1,.31-1.42,2.73,2.73,0,0,1,.89-1,4,4,0,0,1,1.37-.63,6.77,6.77,0,0,1,1.75-.21,12,12,0,0,1,1.7.11,12.41,12.41,0,0,1,1.4.32v-.36a2.6,2.6,0,0,0-.79-2.06,3.28,3.28,0,0,0-2.22-.69A6.33,6.33,0,0,0,433.59,113.06Zm-.48,4.16a1.8,1.8,0,0,0-.76,1.54,1.71,1.71,0,0,0,.21.86,1.85,1.85,0,0,0,.55.63,2.57,2.57,0,0,0,.81.41,3.37,3.37,0,0,0,1,.13,4.34,4.34,0,0,0,1.32-.2,3.64,3.64,0,0,0,1.07-.57,2.83,2.83,0,0,0,.72-.86,2.38,2.38,0,0,0,.26-1.1v-1c-.37-.1-.81-.2-1.29-.29a9.22,9.22,0,0,0-1.67-.14A3.58,3.58,0,0,0,433.11,117.22Z" style="fill:#581cca"/><path d="M443,121.77V107.5h1.5v14.27Z" style="fill:#581cca"/><path d="M347.71,135.82a1.77,1.77,0,0,0,.56.72,4.44,4.44,0,0,0,1.14.59,13.68,13.68,0,0,0,1.85.49,8,8,0,0,1,3.37,1.41,3.07,3.07,0,0,1,1.09,2.49,3.65,3.65,0,0,1-.35,1.6,3.54,3.54,0,0,1-1,1.24,4.3,4.3,0,0,1-1.47.78,6.21,6.21,0,0,1-1.87.27,8,8,0,0,1-3-.53,8.36,8.36,0,0,1-2.59-1.64l1-1.13a8,8,0,0,0,2.16,1.46,6.23,6.23,0,0,0,2.52.47,3.51,3.51,0,0,0,2.22-.64,2,2,0,0,0,.83-1.7,2.33,2.33,0,0,0-.15-.87,1.8,1.8,0,0,0-.55-.7,3.92,3.92,0,0,0-1.09-.57,14.1,14.1,0,0,0-1.77-.49,13.13,13.13,0,0,1-2.05-.58,5.16,5.16,0,0,1-1.44-.8,3,3,0,0,1-.84-1.1,3.74,3.74,0,0,1-.28-1.49,3.42,3.42,0,0,1,1.28-2.69,4.52,4.52,0,0,1,1.42-.78,5.48,5.48,0,0,1,1.8-.29,7.52,7.52,0,0,1,2.63.42,8.28,8.28,0,0,1,2.18,1.24l-.9,1.2a6.84,6.84,0,0,0-1.93-1.14,6,6,0,0,0-2-.35,3.78,3.78,0,0,0-1.2.18,3,3,0,0,0-.92.47,2.08,2.08,0,0,0-.59.7,2.06,2.06,0,0,0-.2.88A2.23,2.23,0,0,0,347.71,135.82Z" style="fill:#581cca"/><path d="M360.63,136.51a9.64,9.64,0,0,0-1.44.54l-.44-1.23a9.83,9.83,0,0,1,1.69-.62,7.94,7.94,0,0,1,2-.22,4.53,4.53,0,0,1,3.18,1,3.92,3.92,0,0,1,1.12,3v6.18h-1.45v-1.53a4.93,4.93,0,0,1-1.42,1.22,4.31,4.31,0,0,1-2.23.52,4.94,4.94,0,0,1-1.38-.19,3.71,3.71,0,0,1-1.21-.6,3,3,0,0,1-.86-1,2.76,2.76,0,0,1-.32-1.38,3.06,3.06,0,0,1,.31-1.42,2.73,2.73,0,0,1,.89-1,4,4,0,0,1,1.37-.63,6.73,6.73,0,0,1,1.74-.22,10.43,10.43,0,0,1,1.7.12,12.58,12.58,0,0,1,1.41.31v-.35a2.58,2.58,0,0,0-.79-2.06,3.28,3.28,0,0,0-2.22-.69A6.33,6.33,0,0,0,360.63,136.51Zm-.48,4.16a1.8,1.8,0,0,0-.76,1.54,1.85,1.85,0,0,0,.2.86,2,2,0,0,0,.56.63,2.36,2.36,0,0,0,.81.4,3,3,0,0,0,1,.14,4.34,4.34,0,0,0,1.32-.2,3.64,3.64,0,0,0,1.07-.57,2.83,2.83,0,0,0,.72-.86,2.39,2.39,0,0,0,.26-1.11v-1c-.38-.11-.81-.2-1.29-.29a8.47,8.47,0,0,0-1.67-.14A3.58,3.58,0,0,0,360.15,140.67Z" style="fill:#581cca"/><path d="M371.94,136.51a10,10,0,0,0-1.43.54l-.45-1.23a10.24,10.24,0,0,1,1.7-.62,7.8,7.8,0,0,1,2-.22,4.58,4.58,0,0,1,3.19,1,4,4,0,0,1,1.11,3v6.18h-1.44v-1.53a5.21,5.21,0,0,1-1.42,1.22,4.34,4.34,0,0,1-2.24.52,4.94,4.94,0,0,1-1.38-.19,3.71,3.71,0,0,1-1.21-.6,3.14,3.14,0,0,1-.86-1,2.87,2.87,0,0,1-.32-1.38,3.06,3.06,0,0,1,.31-1.42,2.82,2.82,0,0,1,.89-1,4.11,4.11,0,0,1,1.37-.63,6.81,6.81,0,0,1,1.75-.22,10.51,10.51,0,0,1,1.7.12,13.09,13.09,0,0,1,1.41.31v-.35a2.59,2.59,0,0,0-.8-2.06,3.23,3.23,0,0,0-2.21-.69A6.41,6.41,0,0,0,371.94,136.51Zm-.48,4.16a1.82,1.82,0,0,0-.76,1.54,1.74,1.74,0,0,0,.21.86,1.85,1.85,0,0,0,.55.63,2.56,2.56,0,0,0,.81.4,3.12,3.12,0,0,0,1,.14,4.33,4.33,0,0,0,1.31-.2,3.52,3.52,0,0,0,1.07-.57,2.57,2.57,0,0,0,.72-.86,2.27,2.27,0,0,0,.26-1.11v-1a12.67,12.67,0,0,0-1.29-.29,8.4,8.4,0,0,0-1.67-.14A3.6,3.6,0,0,0,371.46,140.67Z" style="fill:#581cca"/><path d="M382.84,135.82a1.77,1.77,0,0,0,.56.72,4.61,4.61,0,0,0,1.14.59,13.68,13.68,0,0,0,1.85.49,8,8,0,0,1,3.37,1.41,3,3,0,0,1,1.09,2.49,3.65,3.65,0,0,1-.35,1.6,3.54,3.54,0,0,1-1,1.24,4.13,4.13,0,0,1-1.47.78,6.17,6.17,0,0,1-1.87.27,8,8,0,0,1-3-.53,8.36,8.36,0,0,1-2.59-1.64l1-1.13a8,8,0,0,0,2.17,1.46,6.23,6.23,0,0,0,2.52.47,3.55,3.55,0,0,0,2.22-.64,2.06,2.06,0,0,0,.83-1.7,2.33,2.33,0,0,0-.16-.87,1.8,1.8,0,0,0-.55-.7,3.78,3.78,0,0,0-1.09-.57,14.1,14.1,0,0,0-1.77-.49,13.46,13.46,0,0,1-2.05-.58,5.16,5.16,0,0,1-1.44-.8,3.05,3.05,0,0,1-.84-1.1,3.74,3.74,0,0,1-.27-1.49,3.37,3.37,0,0,1,1.27-2.69,4.63,4.63,0,0,1,1.42-.78,5.48,5.48,0,0,1,1.8-.29,7.48,7.48,0,0,1,2.63.42,8.13,8.13,0,0,1,2.18,1.24l-.9,1.2a6.93,6.93,0,0,0-1.92-1.14,6,6,0,0,0-2-.35,3.78,3.78,0,0,0-1.2.18,3.07,3.07,0,0,0-.92.47,2,2,0,0,0-.79,1.58A2.23,2.23,0,0,0,382.84,135.82Z" style="fill:#581cca"/><path d="M102.28,219.88a6.46,6.46,0,0,1-1.18.73,6.31,6.31,0,0,1-1.39.47,8.46,8.46,0,0,1-1.66.15,6.51,6.51,0,0,1-2.64-.52,6.36,6.36,0,0,1-3.48-3.55,6.84,6.84,0,0,1-.51-2.65,6.94,6.94,0,0,1,.5-2.62,6.44,6.44,0,0,1,3.5-3.6,6.87,6.87,0,0,1,2.72-.53,8.15,8.15,0,0,1,1.63.15,6.67,6.67,0,0,1,1.35.42,5.91,5.91,0,0,1,1.13.64,8.62,8.62,0,0,1,1,.82l-1.47,1.69a7.37,7.37,0,0,0-1.66-1.17,4.26,4.26,0,0,0-2-.45,4,4,0,0,0-1.72.37,4.35,4.35,0,0,0-1.37,1,4.51,4.51,0,0,0-.89,1.46,5.28,5.28,0,0,0,0,3.62,4.5,4.5,0,0,0,.89,1.48,4.25,4.25,0,0,0,1.37,1,4.11,4.11,0,0,0,1.72.36,4.22,4.22,0,0,0,2-.46,7.7,7.7,0,0,0,1.69-1.23l1.47,1.49A7.77,7.77,0,0,1,102.28,219.88Z" style="fill:#999"/><path d="M111.48,221V219.8a4,4,0,0,1-1.28,1,4,4,0,0,1-1.9.41A4.52,4.52,0,0,1,107,221a3.13,3.13,0,0,1-1.1-.58,2.76,2.76,0,0,1-.77-.95,2.84,2.84,0,0,1-.29-1.31v0a3.06,3.06,0,0,1,.3-1.39,2.75,2.75,0,0,1,.83-1,3.71,3.71,0,0,1,1.27-.58,6.18,6.18,0,0,1,1.59-.2,9.16,9.16,0,0,1,1.51.11,10.52,10.52,0,0,1,1.2.3v-.24a2,2,0,0,0-.62-1.57,2.67,2.67,0,0,0-1.8-.54,6,6,0,0,0-1.48.17,9.06,9.06,0,0,0-1.33.45l-.61-1.81a11.44,11.44,0,0,1,1.67-.59,8.31,8.31,0,0,1,2.07-.22,4.4,4.4,0,0,1,3.26,1.08,4.25,4.25,0,0,1,1.06,3.06V221Zm.06-4.17a6.57,6.57,0,0,0-1-.28,7.06,7.06,0,0,0-1.24-.11,2.93,2.93,0,0,0-1.66.41A1.34,1.34,0,0,0,107,218v0a1.22,1.22,0,0,0,.55,1.08,2.31,2.31,0,0,0,1.35.37,3.42,3.42,0,0,0,1-.15,2.82,2.82,0,0,0,.83-.42,2,2,0,0,0,.55-.65,1.79,1.79,0,0,0,.19-.84Z" style="fill:#999"/><path d="M118.67,221H116.4v-9.83h2.27v1.55a4.88,4.88,0,0,1,.53-.67,3.61,3.61,0,0,1,.66-.56,3.54,3.54,0,0,1,.84-.38,3.61,3.61,0,0,1,1-.14,3.29,3.29,0,0,1,2.58,1,4,4,0,0,1,.91,2.76V221H123v-5.57a2.55,2.55,0,0,0-.55-1.77,1.91,1.91,0,0,0-1.54-.63,2.07,2.07,0,0,0-1.58.65,2.46,2.46,0,0,0-.61,1.79Z" style="fill:#999"/><path d="M140.44,220.72a4.88,4.88,0,0,1-2.36.51,5.09,5.09,0,0,1-3.65-1.49,5.37,5.37,0,0,1-1.07-1.62,5.4,5.4,0,0,1,0-4,5.47,5.47,0,0,1,1.07-1.64A5.11,5.11,0,0,1,138.1,211a5.08,5.08,0,0,1,2.31.46,5.39,5.39,0,0,1,1.61,1.23l-1.39,1.51a5.3,5.3,0,0,0-1.11-.88,2.79,2.79,0,0,0-1.44-.35,2.72,2.72,0,0,0-1.14.25,2.85,2.85,0,0,0-.89.68,3.22,3.22,0,0,0-.59,1,3.47,3.47,0,0,0-.21,1.22,3.59,3.59,0,0,0,.21,1.24A3,3,0,0,0,137,219a2.73,2.73,0,0,0,1.19.25,2.77,2.77,0,0,0,1.4-.35,5,5,0,0,0,1.15-.88l1.36,1.34A6.2,6.2,0,0,1,140.44,220.72Z" style="fill:#999"/><path d="M150.58,211.18h2.27V221h-2.27v-1.54a5,5,0,0,1-1.2,1.23,3.17,3.17,0,0,1-1.86.51,3.29,3.29,0,0,1-2.58-1,4,4,0,0,1-.91-2.75v-6.26h2.27v5.57a2.6,2.6,0,0,0,.55,1.78,1.94,1.94,0,0,0,1.54.62,2.06,2.06,0,0,0,1.58-.64,2.49,2.49,0,0,0,.61-1.79Z" style="fill:#999"/><path d="M162.42,219.46a2.71,2.71,0,0,1-.77,1,3.38,3.38,0,0,1-1.17.58,5,5,0,0,1-1.43.2,6.59,6.59,0,0,1-2.15-.38,6.72,6.72,0,0,1-2-1.09l1-1.53a6.23,6.23,0,0,0,1.62.9,4.53,4.53,0,0,0,1.6.31,1.91,1.91,0,0,0,1.12-.29.89.89,0,0,0,.4-.77v0a.7.7,0,0,0-.18-.48,1.45,1.45,0,0,0-.48-.37,4.41,4.41,0,0,0-.71-.27l-.82-.26c-.36-.11-.73-.23-1.09-.37a3.61,3.61,0,0,1-1-.53,2.76,2.76,0,0,1-.72-.8,2.34,2.34,0,0,1-.27-1.18v0a2.93,2.93,0,0,1,.26-1.24,2.69,2.69,0,0,1,.75-1,3.44,3.44,0,0,1,1.12-.6,4.3,4.3,0,0,1,1.36-.2,6.51,6.51,0,0,1,1.88.29,6.9,6.9,0,0,1,1.73.82l-.89,1.6a8.08,8.08,0,0,0-1.43-.68,4.35,4.35,0,0,0-1.34-.25,1.69,1.69,0,0,0-1,.28.86.86,0,0,0-.36.71v0a.61.61,0,0,0,.19.45,2,2,0,0,0,.49.36,5.48,5.48,0,0,0,.71.29c.26.1.54.19.83.27l1.07.39a4.88,4.88,0,0,1,1,.55,2.86,2.86,0,0,1,.72.79,2.24,2.24,0,0,1,.28,1.14v0A3.13,3.13,0,0,1,162.42,219.46Z" style="fill:#999"/><path d="M167.54,217.94a1.22,1.22,0,0,0,.31.94,1.3,1.3,0,0,0,.9.29,3,3,0,0,0,1.39-.34v1.84a3.65,3.65,0,0,1-.91.38,4.66,4.66,0,0,1-1.12.13A4.14,4.14,0,0,1,167,221a2.3,2.3,0,0,1-.91-.49,2.24,2.24,0,0,1-.59-.88,3.92,3.92,0,0,1-.2-1.37V213.1H164v-1.92h1.25v-2.69h2.27v2.69h2.64v1.92h-2.64Z" style="fill:#999"/><path d="M181.69,218.09a5.24,5.24,0,0,1-4.87,3.14,5.27,5.27,0,0,1-2.07-.4,5,5,0,0,1-3.14-4.7,5,5,0,0,1,.4-2,5.1,5.1,0,0,1,1.1-1.63,5,5,0,0,1,1.66-1.11,5.6,5.6,0,0,1,4.18,0,5.13,5.13,0,0,1,2.74,6.71Zm-2.09-3.18a3.28,3.28,0,0,0-.62-1,3,3,0,0,0-.95-.69,2.94,2.94,0,0,0-1.21-.25,3,3,0,0,0-1.21.25,3,3,0,0,0-.93.68,3.07,3.07,0,0,0-.6,1,3.72,3.72,0,0,0-.2,1.22,3.62,3.62,0,0,0,.22,1.23,3.17,3.17,0,0,0,.62,1,3.11,3.11,0,0,0,.95.68,2.76,2.76,0,0,0,1.19.25,2.91,2.91,0,0,0,1.23-.25,3,3,0,0,0,.93-.68,2.88,2.88,0,0,0,.59-1,3.47,3.47,0,0,0,.21-1.22A3.52,3.52,0,0,0,179.6,214.91Z" style="fill:#999"/><path d="M194,211.46a3.7,3.7,0,0,1,1.92-.48,3.29,3.29,0,0,1,2.54,1,3.91,3.91,0,0,1,.91,2.78V221h-2.27v-5.57a2.66,2.66,0,0,0-.52-1.78,1.81,1.81,0,0,0-1.46-.62,2,2,0,0,0-1.51.63,2.53,2.53,0,0,0-.59,1.81V221h-2.27v-5.59a2.62,2.62,0,0,0-.52-1.76,1.8,1.8,0,0,0-1.46-.62,1.94,1.94,0,0,0-1.52.65,2.67,2.67,0,0,0-.57,1.81V221h-2.27v-9.83h2.27v1.51a5.38,5.38,0,0,1,.52-.64,3.85,3.85,0,0,1,.64-.55,2.94,2.94,0,0,1,.82-.38,3.52,3.52,0,0,1,1-.14,3.22,3.22,0,0,1,1.8.48,3.13,3.13,0,0,1,1.12,1.27A4.85,4.85,0,0,1,194,211.46Z" style="fill:#999"/><path d="M202.09,209.68v-2.14h2.44v2.14Zm.1,11.33v-9.83h2.27V221Z" style="fill:#999"/><path d="M207.14,213v-1.85h8.33v1.55l-5.67,6.44h5.67V221h-8.54v-1.55l5.68-6.43Z" style="fill:#999"/><path d="M220.2,218.75a2.79,2.79,0,0,0,1.86.64,3.26,3.26,0,0,0,1.45-.3,4.71,4.71,0,0,0,1.21-.87l1.32,1.17a5.33,5.33,0,0,1-1.68,1.34,5,5,0,0,1-2.34.5,5.24,5.24,0,0,1-2-.37,4.81,4.81,0,0,1-1.6-1,4.88,4.88,0,0,1-1.07-1.61,5.44,5.44,0,0,1-.39-2.09,5.76,5.76,0,0,1,.35-2,5,5,0,0,1,1-1.62,4.66,4.66,0,0,1,1.52-1.11,4.51,4.51,0,0,1,1.93-.41,4.63,4.63,0,0,1,2.06.43,4.19,4.19,0,0,1,1.47,1.15,5,5,0,0,1,.88,1.69,6.88,6.88,0,0,1,.3,2c0,.1,0,.2,0,.3l0,.32h-7.22A3,3,0,0,0,220.2,218.75Zm4.06-3.34a4.22,4.22,0,0,0-.24-1,2.66,2.66,0,0,0-.51-.81,2.4,2.4,0,0,0-3.47,0,3.26,3.26,0,0,0-.83,1.87Z" style="fill:#999"/><path d="M241.27,220.72a4.9,4.9,0,0,1-2.37.51,5,5,0,0,1-2-.4,4.88,4.88,0,0,1-1.61-1.09,5,5,0,0,1-1.07-1.62,5.23,5.23,0,0,1,1.07-5.62,5,5,0,0,1,1.62-1.11,5.68,5.68,0,0,1,4.36.05,5.52,5.52,0,0,1,1.61,1.23l-1.4,1.51a5.05,5.05,0,0,0-1.11-.88,2.79,2.79,0,0,0-1.44-.35,2.64,2.64,0,0,0-1.13.25,2.89,2.89,0,0,0-.9.68,3.41,3.41,0,0,0-.58,1,3.48,3.48,0,0,0-.22,1.22,3.59,3.59,0,0,0,.22,1.24,2.9,2.9,0,0,0,1.53,1.69,3,3,0,0,0,2.6-.1,5.13,5.13,0,0,0,1.14-.88l1.36,1.34A6,6,0,0,1,241.27,220.72Z" style="fill:#999"/><path d="M254.23,218.09a5.38,5.38,0,0,1-1.1,1.63,5.49,5.49,0,0,1-5.84,1.11,5,5,0,0,1-1.66-1.09,5,5,0,0,1-1.48-3.61,5,5,0,0,1,.4-2,5.17,5.17,0,0,1,2.75-2.74,5.62,5.62,0,0,1,4.19,0,5.13,5.13,0,0,1,2.74,6.71Zm-2.1-3.18a3.08,3.08,0,0,0-.61-1,3,3,0,0,0-3.37-.69,2.91,2.91,0,0,0-.93.68,3.07,3.07,0,0,0-.6,1,3.72,3.72,0,0,0-.2,1.22,3.39,3.39,0,0,0,.22,1.23,3.17,3.17,0,0,0,.62,1,3.11,3.11,0,0,0,1,.68,2.76,2.76,0,0,0,1.19.25,2.91,2.91,0,0,0,1.23-.25,3,3,0,0,0,.93-.68,2.88,2.88,0,0,0,.59-1,3.47,3.47,0,0,0,.21-1.22A3.31,3.31,0,0,0,252.13,214.91Z" style="fill:#999"/><path d="M264.3,221v-1.64a4.75,4.75,0,0,1-1.34,1.3,3.53,3.53,0,0,1-2,.54,4.5,4.5,0,0,1-1.69-.33,4.29,4.29,0,0,1-1.45-1,5,5,0,0,1-1-1.61,5.64,5.64,0,0,1-.39-2.17,5.89,5.89,0,0,1,.38-2.18,5.15,5.15,0,0,1,1-1.61,4.24,4.24,0,0,1,1.45-1A4.55,4.55,0,0,1,261,211a3.58,3.58,0,0,1,2,.52,5.36,5.36,0,0,1,1.33,1.21v-5.29h2.27V221Zm-.19-6.22a3.32,3.32,0,0,0-.62-1,2.64,2.64,0,0,0-.91-.64,2.72,2.72,0,0,0-1.08-.23,2.75,2.75,0,0,0-2,.84,2.8,2.8,0,0,0-.61,1,3.9,3.9,0,0,0,0,2.64,2.76,2.76,0,0,0,.61,1,2.7,2.7,0,0,0,.9.64,2.64,2.64,0,0,0,1.08.22,2.71,2.71,0,0,0,1.08-.22,2.78,2.78,0,0,0,.91-.64,3.38,3.38,0,0,0,.62-1,3.82,3.82,0,0,0,0-2.61Z" style="fill:#999"/><path d="M272.06,218.75a2.79,2.79,0,0,0,1.87.64,3.29,3.29,0,0,0,1.45-.3,4.89,4.89,0,0,0,1.21-.87l1.32,1.17a5.25,5.25,0,0,1-1.69,1.34,5,5,0,0,1-2.33.5,5.17,5.17,0,0,1-2-.37,4.74,4.74,0,0,1-2.67-2.65,5.44,5.44,0,0,1-.4-2.09,5.54,5.54,0,0,1,.36-2,4.94,4.94,0,0,1,1-1.62,4.77,4.77,0,0,1,1.52-1.11,4.95,4.95,0,0,1,4,0,4.19,4.19,0,0,1,1.47,1.15,5.05,5.05,0,0,1,.89,1.69,7.22,7.22,0,0,1,.29,2v.3l0,.32H271.1A3,3,0,0,0,272.06,218.75Zm4.06-3.34a4.22,4.22,0,0,0-.24-1,2.64,2.64,0,0,0-.5-.81,2.32,2.32,0,0,0-.76-.55,2.42,2.42,0,0,0-2.71.51,3.2,3.2,0,0,0-.83,1.87Z" style="fill:#999"/><path d="M101.68,291.68H94.27v3.59h6.57v2.07H94.27v5.3H92v-13h9.68Z" style="fill:#999"/><path d="M110.39,292.82h2.27v9.82h-2.27V301.1a4.88,4.88,0,0,1-1.21,1.23,3.15,3.15,0,0,1-1.86.52,3.26,3.26,0,0,1-2.57-1,4,4,0,0,1-.91-2.75v-6.25h2.27v5.57a2.64,2.64,0,0,0,.54,1.77,2,2,0,0,0,1.54.62,2.09,2.09,0,0,0,1.59-.64,2.52,2.52,0,0,0,.61-1.79Z" style="fill:#999"/><path d="M115.62,302.64V289.06h2.27v13.58Z" style="fill:#999"/><path d="M120.94,302.64V289.06h2.27v13.58Z" style="fill:#999"/><path d="M131.38,302.92a8.69,8.69,0,0,1-.62,1.29,3.47,3.47,0,0,1-.7.84,2.53,2.53,0,0,1-.86.48,3.45,3.45,0,0,1-1.06.14,4.84,4.84,0,0,1-1.26-.15,5.8,5.8,0,0,1-1.07-.45l.77-1.68a4,4,0,0,0,.64.27,2.54,2.54,0,0,0,.68.1,1.29,1.29,0,0,0,.8-.24,2.17,2.17,0,0,0,.59-.89l-4.09-9.81h2.4l2.79,7.29,2.55-7.29h2.35Z" style="fill:#999"/><path d="M152.39,293.09a3.73,3.73,0,0,1,1.93-.48,3.3,3.3,0,0,1,2.53,1,3.92,3.92,0,0,1,.92,2.78v6.27H155.5v-5.57a2.72,2.72,0,0,0-.52-1.78,1.82,1.82,0,0,0-1.47-.61,2,2,0,0,0-1.51.62,2.54,2.54,0,0,0-.58,1.81v5.53h-2.27v-5.59a2.64,2.64,0,0,0-.52-1.76,1.8,1.8,0,0,0-1.46-.61,1.9,1.9,0,0,0-1.52.65,2.63,2.63,0,0,0-.58,1.8v5.51H142.8v-9.82h2.27v1.5a6.59,6.59,0,0,1,.52-.64,3.46,3.46,0,0,1,.65-.54,3,3,0,0,1,.81-.39,3.64,3.64,0,0,1,1-.14,3.21,3.21,0,0,1,1.79.48,3.15,3.15,0,0,1,1.13,1.27A4.82,4.82,0,0,1,152.39,293.09Z" style="fill:#999"/><path d="M166.49,302.64v-1.21a4.22,4.22,0,0,1-1.28,1,4.07,4.07,0,0,1-1.9.41,4.52,4.52,0,0,1-1.34-.2,3.27,3.27,0,0,1-1.11-.58,2.79,2.79,0,0,1-1.05-2.26v0a3.07,3.07,0,0,1,.3-1.4,2.66,2.66,0,0,1,.83-1,3.66,3.66,0,0,1,1.26-.58,6.2,6.2,0,0,1,1.6-.2,9.16,9.16,0,0,1,1.51.11,10.52,10.52,0,0,1,1.2.3v-.24a2,2,0,0,0-.62-1.56,2.69,2.69,0,0,0-1.8-.54,6.13,6.13,0,0,0-1.49.16,10.85,10.85,0,0,0-1.32.45l-.61-1.8a10.09,10.09,0,0,1,1.67-.6,8.26,8.26,0,0,1,2.07-.22,4.37,4.37,0,0,1,3.26,1.09,4.21,4.21,0,0,1,1.06,3.06v5.82Zm.06-4.17a6.57,6.57,0,0,0-1-.28,7.15,7.15,0,0,0-1.24-.11,2.93,2.93,0,0,0-1.66.41,1.33,1.33,0,0,0-.59,1.17v0a1.23,1.23,0,0,0,.54,1.08,2.35,2.35,0,0,0,1.35.37,3.44,3.44,0,0,0,1-.15,2.41,2.41,0,0,0,.83-.42,1.88,1.88,0,0,0,.74-1.49Z" style="fill:#999"/><path d="M173.68,302.64h-2.27v-9.82h2.27v1.54a4.88,4.88,0,0,1,.53-.67,3.22,3.22,0,0,1,.66-.55,3.29,3.29,0,0,1,1.87-.53,3.29,3.29,0,0,1,2.58,1,4.06,4.06,0,0,1,.91,2.76v6.25H178v-5.57a2.6,2.6,0,0,0-.55-1.77,1.91,1.91,0,0,0-1.54-.62,2.06,2.06,0,0,0-1.58.64,2.46,2.46,0,0,0-.61,1.79Z" style="fill:#999"/><path d="M189,302.64v-1.21a4.39,4.39,0,0,1-1.29,1,4.07,4.07,0,0,1-1.9.41,4.52,4.52,0,0,1-1.34-.2,3.13,3.13,0,0,1-1.1-.58,2.82,2.82,0,0,1-.77-.94,2.92,2.92,0,0,1-.29-1.32v0a3.07,3.07,0,0,1,.3-1.4,2.75,2.75,0,0,1,.83-1,3.71,3.71,0,0,1,1.27-.58,6.18,6.18,0,0,1,1.59-.2,9.16,9.16,0,0,1,1.51.11,10.52,10.52,0,0,1,1.2.3v-.24a1.94,1.94,0,0,0-.62-1.56,2.67,2.67,0,0,0-1.8-.54,6,6,0,0,0-1.48.16,10.42,10.42,0,0,0-1.33.45l-.61-1.8a10.19,10.19,0,0,1,1.68-.6,8.17,8.17,0,0,1,2.06-.22,4.37,4.37,0,0,1,3.26,1.09,4.21,4.21,0,0,1,1.06,3.06v5.82Zm0-4.17a6.26,6.26,0,0,0-1-.28,7.06,7.06,0,0,0-1.24-.11,2.93,2.93,0,0,0-1.66.41,1.35,1.35,0,0,0-.59,1.17v0a1.22,1.22,0,0,0,.55,1.08,2.31,2.31,0,0,0,1.35.37,3.42,3.42,0,0,0,1-.15,2.41,2.41,0,0,0,.83-.42,1.82,1.82,0,0,0,.55-.65,1.79,1.79,0,0,0,.19-.84Z" style="fill:#999"/><path d="M202.15,304.45a5.77,5.77,0,0,1-3.91,1.21,8.22,8.22,0,0,1-4.39-1.18l.84-1.69a7.31,7.31,0,0,0,1.63.76,5.91,5.91,0,0,0,1.87.28,3.19,3.19,0,0,0,2.3-.76,3,3,0,0,0,.8-2.27V300a5.22,5.22,0,0,1-1.43,1.31,3.78,3.78,0,0,1-2,.51,4.5,4.5,0,0,1-1.67-.31,4.12,4.12,0,0,1-1.43-.9,4.55,4.55,0,0,1-1-1.45,5.35,5.35,0,0,1,0-3.91,4.55,4.55,0,0,1,1-1.45,4.35,4.35,0,0,1,1.44-.91,4.54,4.54,0,0,1,1.66-.32,3.9,3.9,0,0,1,2.06.5,5.49,5.49,0,0,1,1.38,1.19v-1.48h2.26v7.81A4.83,4.83,0,0,1,202.15,304.45Zm-1.07-8.32a2.6,2.6,0,0,0-.62-.86,2.8,2.8,0,0,0-.93-.55,3.14,3.14,0,0,0-1.1-.19,3,3,0,0,0-1.1.19,2.72,2.72,0,0,0-.89.55,2.45,2.45,0,0,0-.59.85,2.82,2.82,0,0,0-.21,1.11,2.64,2.64,0,0,0,.22,1.1,2.68,2.68,0,0,0,.59.86,2.64,2.64,0,0,0,.89.56,3,3,0,0,0,1.09.19,3.14,3.14,0,0,0,1.1-.19,2.82,2.82,0,0,0,.93-.56,2.67,2.67,0,0,0,.62-.85,2.56,2.56,0,0,0,.23-1.09A2.73,2.73,0,0,0,201.08,296.13Z" style="fill:#999"/><path d="M209,300.38a2.75,2.75,0,0,0,1.86.64,3.29,3.29,0,0,0,1.45-.3,4.42,4.42,0,0,0,1.21-.87l1.32,1.17a5.25,5.25,0,0,1-1.69,1.34,5,5,0,0,1-2.33.51,5.17,5.17,0,0,1-2-.38,4.57,4.57,0,0,1-1.6-1,4.73,4.73,0,0,1-1.07-1.61,5.81,5.81,0,0,1,0-4.08,5,5,0,0,1,1-1.63,4.81,4.81,0,0,1,5.5-1.09,4.19,4.19,0,0,1,1.47,1.15,5.1,5.1,0,0,1,.89,1.7,6.78,6.78,0,0,1,.3,2c0,.09,0,.19,0,.29l0,.32h-7.22A2.92,2.92,0,0,0,209,300.38Zm4-3.34a3.64,3.64,0,0,0-.24-1,2.51,2.51,0,0,0-.5-.82,2.22,2.22,0,0,0-.76-.55,2.42,2.42,0,0,0-2.71.51A3.2,3.2,0,0,0,208,297Z" style="fill:#999"/><path d="M225,302.64V301a5.07,5.07,0,0,1-1.34,1.31,3.53,3.53,0,0,1-2,.54,4.51,4.51,0,0,1-1.69-.34,4.26,4.26,0,0,1-1.45-1,5.15,5.15,0,0,1-1-1.61,5.73,5.73,0,0,1-.39-2.18,5.89,5.89,0,0,1,.38-2.18,5,5,0,0,1,1-1.61,4.08,4.08,0,0,1,1.45-1,4.37,4.37,0,0,1,1.7-.34,3.68,3.68,0,0,1,2,.52,5.54,5.54,0,0,1,1.33,1.21v-5.28h2.27v13.58Zm-.19-6.21a3.25,3.25,0,0,0-.62-1,2.71,2.71,0,0,0-2-.86,2.81,2.81,0,0,0-1.08.21,2.64,2.64,0,0,0-.9.62,2.89,2.89,0,0,0-.61,1,3.9,3.9,0,0,0,0,2.64,2.89,2.89,0,0,0,.61,1,2.82,2.82,0,0,0,.9.63,2.64,2.64,0,0,0,1.08.22,2.71,2.71,0,0,0,2-.86,3.25,3.25,0,0,0,.62-1,3.79,3.79,0,0,0,0-2.6Z" style="fill:#999"/><path d="M91.78,313.64V311.5h2.43v2.14ZM91.87,325v-9.82h2.27V325Z" style="fill:#999"/><path d="M99.33,325H97.06v-9.82h2.27v1.54a5.78,5.78,0,0,1,.53-.67,3.64,3.64,0,0,1,.67-.55,3.72,3.72,0,0,1,.83-.39,3.66,3.66,0,0,1,1-.14,3.23,3.23,0,0,1,2.58,1,4,4,0,0,1,.91,2.75V325h-2.27V319.4a2.62,2.62,0,0,0-.54-1.77,1.92,1.92,0,0,0-1.54-.62,2.09,2.09,0,0,0-1.59.64,2.52,2.52,0,0,0-.61,1.79Z" style="fill:#999"/><path d="M113.94,315.22v1.86h-2.57V325H109.1v-7.89h-1.24V315.2h1.24v-.7a3.27,3.27,0,0,1,.79-2.43,3,3,0,0,1,2.25-.79,6.12,6.12,0,0,1,1,.07,6.24,6.24,0,0,1,.8.19v1.89a6.12,6.12,0,0,0-.64-.17,2.9,2.9,0,0,0-.68-.07c-.87,0-1.3.5-1.3,1.49v.54Z" style="fill:#999"/><path d="M117.87,325H115.6v-9.82h2.27v2.21a4.29,4.29,0,0,1,1.32-1.78,3.14,3.14,0,0,1,2.16-.62v2.38h-.13a3.7,3.7,0,0,0-1.36.24,3,3,0,0,0-1.06.73,3.22,3.22,0,0,0-.69,1.22,5.49,5.49,0,0,0-.24,1.7Z" style="fill:#999"/><path d="M128.83,325v-1.21a4.11,4.11,0,0,1-1.29,1,4.06,4.06,0,0,1-1.89.41,4.48,4.48,0,0,1-1.34-.2,3.33,3.33,0,0,1-1.11-.57,2.93,2.93,0,0,1-.76-1,2.79,2.79,0,0,1-.29-1.32v0a3.07,3.07,0,0,1,.3-1.4,2.71,2.71,0,0,1,.82-1,3.8,3.8,0,0,1,1.27-.58,6.18,6.18,0,0,1,1.59-.2,9.3,9.3,0,0,1,1.52.11,11.69,11.69,0,0,1,1.2.3v-.24a1.94,1.94,0,0,0-.63-1.56,2.64,2.64,0,0,0-1.79-.54,6.08,6.08,0,0,0-1.49.16,11.43,11.43,0,0,0-1.32.45l-.62-1.8a10.53,10.53,0,0,1,1.68-.6,8.23,8.23,0,0,1,2.06-.22,4.35,4.35,0,0,1,3.26,1.09,4.17,4.17,0,0,1,1.06,3.06V325Zm0-4.17a5.42,5.42,0,0,0-1-.27,6.14,6.14,0,0,0-1.24-.12,2.89,2.89,0,0,0-1.65.41,1.35,1.35,0,0,0-.6,1.18v0a1.22,1.22,0,0,0,.55,1.08,2.35,2.35,0,0,0,1.35.37,3.37,3.37,0,0,0,1-.15,2.48,2.48,0,0,0,.83-.41,1.84,1.84,0,0,0,.55-.66,1.79,1.79,0,0,0,.19-.84Z" style="fill:#999"/><path d="M140.48,323.43a2.89,2.89,0,0,1-.77,1,3.55,3.55,0,0,1-1.17.57,5,5,0,0,1-1.43.2,6.85,6.85,0,0,1-2.15-.37,7,7,0,0,1-2-1.1l1-1.53a6.59,6.59,0,0,0,1.62.91,4.74,4.74,0,0,0,1.6.3,1.84,1.84,0,0,0,1.12-.29.89.89,0,0,0,.4-.77v0a.72.72,0,0,0-.18-.48,1.32,1.32,0,0,0-.48-.36,3.62,3.62,0,0,0-.71-.28l-.82-.25c-.36-.11-.73-.24-1.09-.37a3.92,3.92,0,0,1-1-.54,2.64,2.64,0,0,1-.72-.8,2.34,2.34,0,0,1-.28-1.18v0a2.83,2.83,0,0,1,.27-1.25,2.78,2.78,0,0,1,.75-1,3.44,3.44,0,0,1,1.12-.6,4.61,4.61,0,0,1,1.36-.2,6.2,6.2,0,0,1,1.88.3,6.57,6.57,0,0,1,1.73.82l-.89,1.6a6.89,6.89,0,0,0-1.43-.68,4.08,4.08,0,0,0-1.34-.25,1.69,1.69,0,0,0-1,.27.88.88,0,0,0-.36.71v0a.63.63,0,0,0,.19.46,1.76,1.76,0,0,0,.49.35,7.25,7.25,0,0,0,.71.3l.82.27q.54.16,1.08.39a4.43,4.43,0,0,1,1,.55,2.72,2.72,0,0,1,.72.79,2.23,2.23,0,0,1,.28,1.13v0A3.2,3.2,0,0,1,140.48,323.43Z" style="fill:#999"/><path d="M145.6,321.9a1.22,1.22,0,0,0,.31.94,1.29,1.29,0,0,0,.89.29,3,3,0,0,0,1.4-.34v1.85a4,4,0,0,1-.91.37,4.2,4.2,0,0,1-1.12.13A4.14,4.14,0,0,1,145,325a2.41,2.41,0,0,1-.91-.48,2.28,2.28,0,0,1-.59-.89,3.87,3.87,0,0,1-.21-1.37v-5.19h-1.24v-1.91h1.24v-2.7h2.28v2.7h2.64v1.91H145.6Z" style="fill:#999"/><path d="M152.76,325h-2.27v-9.82h2.27v2.21a4.29,4.29,0,0,1,1.32-1.78,3.14,3.14,0,0,1,2.16-.62v2.38h-.13a3.7,3.7,0,0,0-1.36.24,3,3,0,0,0-1.06.73,3.22,3.22,0,0,0-.69,1.22,5.49,5.49,0,0,0-.24,1.7Z" style="fill:#999"/><path d="M164.61,315.15h2.27V325h-2.27v-1.54a4.68,4.68,0,0,1-1.2,1.23,3.15,3.15,0,0,1-1.86.52,3.26,3.26,0,0,1-2.58-1,4,4,0,0,1-.91-2.75v-6.25h2.27v5.57a2.62,2.62,0,0,0,.55,1.77,1.94,1.94,0,0,0,1.54.62,2.06,2.06,0,0,0,1.58-.64,2.48,2.48,0,0,0,.61-1.79Z" style="fill:#999"/><path d="M176.64,324.68a4.78,4.78,0,0,1-2.37.52,5.21,5.21,0,0,1-2-.4,5.16,5.16,0,0,1-2.68-6.69,5,5,0,0,1,1.07-1.64,5.41,5.41,0,0,1,6-1.06,5.52,5.52,0,0,1,1.61,1.23l-1.4,1.5a5.05,5.05,0,0,0-1.11-.88,2.79,2.79,0,0,0-1.44-.34,2.5,2.5,0,0,0-1.13.25,2.62,2.62,0,0,0-.9.68,3.23,3.23,0,0,0-.58,1,3.52,3.52,0,0,0-.22,1.22,3.65,3.65,0,0,0,.22,1.25,3,3,0,0,0,.6,1,2.87,2.87,0,0,0,.93.68,3,3,0,0,0,2.6-.09,5.51,5.51,0,0,0,1.14-.89l1.36,1.34A6,6,0,0,1,176.64,324.68Z" style="fill:#999"/><path d="M183.07,321.9a1.23,1.23,0,0,0,.32.94,1.29,1.29,0,0,0,.89.29,3,3,0,0,0,1.4-.34v1.85a3.91,3.91,0,0,1-2,.5,4.14,4.14,0,0,1-1.14-.15,2.41,2.41,0,0,1-.91-.48,2.28,2.28,0,0,1-.59-.89,3.87,3.87,0,0,1-.21-1.37v-5.19h-1.24v-1.91h1.24v-2.7h2.27v2.7h2.65v1.91h-2.65Z" style="fill:#999"/><path d="M194.41,315.15h2.27V325h-2.27v-1.54a4.72,4.72,0,0,1-1.21,1.23,3.14,3.14,0,0,1-1.85.52,3.23,3.23,0,0,1-2.58-1,4,4,0,0,1-.91-2.75v-6.25h2.27v5.57a2.62,2.62,0,0,0,.54,1.77,2,2,0,0,0,1.54.62,2.09,2.09,0,0,0,1.59-.64,2.52,2.52,0,0,0,.61-1.79Z" style="fill:#999"/><path d="M201.78,325h-2.27v-9.82h2.27v2.21a4.29,4.29,0,0,1,1.32-1.78,3.14,3.14,0,0,1,2.16-.62v2.38h-.13a3.7,3.7,0,0,0-1.36.24,3,3,0,0,0-1.06.73,3.22,3.22,0,0,0-.69,1.22,5.49,5.49,0,0,0-.24,1.7Z" style="fill:#999"/><path d="M209.54,322.71a2.79,2.79,0,0,0,1.86.64,3.41,3.41,0,0,0,1.45-.29,4.69,4.69,0,0,0,1.21-.88l1.32,1.17a5.33,5.33,0,0,1-1.68,1.34,5,5,0,0,1-2.34.51,5.17,5.17,0,0,1-2-.38,4.57,4.57,0,0,1-1.6-1,4.88,4.88,0,0,1-1.07-1.61,5.37,5.37,0,0,1-.39-2.09,5.66,5.66,0,0,1,.35-2,5,5,0,0,1,1-1.63,4.77,4.77,0,0,1,1.51-1.11,5,5,0,0,1,4,0,4.5,4.5,0,0,1,1.47,1.15,5.08,5.08,0,0,1,.88,1.7,6.78,6.78,0,0,1,.3,2c0,.1,0,.19,0,.29l0,.32h-7.22A3,3,0,0,0,209.54,322.71Zm4.05-3.34a3.32,3.32,0,0,0-.24-1,2.51,2.51,0,0,0-.5-.82,2.43,2.43,0,0,0-.75-.55,2.33,2.33,0,0,0-1-.21,2.26,2.26,0,0,0-1.72.72,3.26,3.26,0,0,0-.83,1.87Z" style="fill:#999"/><path d="M550.35,117.62a7.1,7.1,0,0,1-1.42,2.25,6.86,6.86,0,0,1-2.21,1.56,7,7,0,0,1-2.86.57,6.76,6.76,0,0,1-5-2.1,6.76,6.76,0,0,1-1.41-2.24,7.52,7.52,0,0,1,0-5.42,6.93,6.93,0,0,1,1.42-2.25,6.77,6.77,0,0,1,5.06-2.13,7.1,7.1,0,0,1,2.85.56,6.72,6.72,0,0,1,2.19,1.54,6.57,6.57,0,0,1,1.42,2.25,7.4,7.4,0,0,1,.5,2.7A7.29,7.29,0,0,1,550.35,117.62Zm-1.49-4.88a5.39,5.39,0,0,0-1.13-1.8,5.52,5.52,0,0,0-1.71-1.21,5.09,5.09,0,0,0-2.16-.45,5.17,5.17,0,0,0-3.84,1.64,5.74,5.74,0,0,0-1.11,1.79,6.28,6.28,0,0,0,0,4.41,5.53,5.53,0,0,0,1.12,1.8,5.77,5.77,0,0,0,1.71,1.21,5.16,5.16,0,0,0,2.16.45,5.17,5.17,0,0,0,3.85-1.64,5.74,5.74,0,0,0,1.11-1.79,6.28,6.28,0,0,0,0-4.41Z" style="fill:#581cca"/><path d="M563.66,118.94a5.21,5.21,0,0,1-1.09,1.65,4.73,4.73,0,0,1-3.33,1.39,4.38,4.38,0,0,1-1.29-.17,4.19,4.19,0,0,1-1.05-.47,4.38,4.38,0,0,1-.85-.68,5.88,5.88,0,0,1-.68-.83v5.07h-1.5V111.67h1.5v2a7.11,7.11,0,0,1,.7-.86,4.17,4.17,0,0,1,.85-.71,4.19,4.19,0,0,1,2.32-.68,4.77,4.77,0,0,1,1.77.35,4.72,4.72,0,0,1,1.55,1,5.07,5.07,0,0,1,1.1,1.65,6.27,6.27,0,0,1,0,4.46Zm-1.42-3.83a3.67,3.67,0,0,0-.77-1.23,3.4,3.4,0,0,0-1.13-.79,3.52,3.52,0,0,0-1.37-.27,3.38,3.38,0,0,0-1.36.28,3.72,3.72,0,0,0-1.17.79,3.59,3.59,0,0,0-.82,1.22,4.28,4.28,0,0,0,0,3.2,3.58,3.58,0,0,0,.82,1.24,3.69,3.69,0,0,0,1.17.78,3.39,3.39,0,0,0,1.36.29,3.61,3.61,0,0,0,1.38-.27,3.19,3.19,0,0,0,1.13-.75,3.61,3.61,0,0,0,.76-1.23,4.48,4.48,0,0,0,.28-1.64A4.37,4.37,0,0,0,562.24,115.11Z" style="fill:#581cca"/><path d="M568.15,118.73a3.8,3.8,0,0,0,.8,1.08,3.43,3.43,0,0,0,1.1.66,3.58,3.58,0,0,0,1.27.23,3.86,3.86,0,0,0,1.8-.4,5.08,5.08,0,0,0,1.38-1l.94.84a6.39,6.39,0,0,1-1.74,1.38,5.19,5.19,0,0,1-2.42.51,5,5,0,0,1-2-.38,4.84,4.84,0,0,1-1.6-1.07,5.11,5.11,0,0,1-1.1-1.67,5.56,5.56,0,0,1-.4-2.15,5.83,5.83,0,0,1,.36-2.06,5.06,5.06,0,0,1,1-1.68,4.76,4.76,0,0,1,1.53-1.13,4.88,4.88,0,0,1,3.94,0,4.29,4.29,0,0,1,1.48,1.15,4.81,4.81,0,0,1,.92,1.7,6.73,6.73,0,0,1,.31,2.09V117a1.23,1.23,0,0,1,0,.26h-8A4.08,4.08,0,0,0,568.15,118.73Zm6.08-2.57a5.28,5.28,0,0,0-.28-1.31,3.64,3.64,0,0,0-.62-1.09,3,3,0,0,0-1-.75,2.93,2.93,0,0,0-1.33-.29,2.79,2.79,0,0,0-1.22.27,3.15,3.15,0,0,0-1,.72,4,4,0,0,0-.7,1.08,4.68,4.68,0,0,0-.35,1.37Z" style="fill:#581cca"/><path d="M579.92,121.77h-1.51v-10.1h1.51v1.76a4.63,4.63,0,0,1,1.32-1.4,3.6,3.6,0,0,1,2.13-.58,4.21,4.21,0,0,1,1.64.3,3.4,3.4,0,0,1,1.21.83,3.63,3.63,0,0,1,.76,1.28,4.74,4.74,0,0,1,.26,1.64v6.27h-1.5v-5.9a3.27,3.27,0,0,0-.72-2.23,2.63,2.63,0,0,0-2.08-.82,3.37,3.37,0,0,0-1.2.22,2.91,2.91,0,0,0-1,.65,2.86,2.86,0,0,0-.64,1,3.57,3.57,0,0,0-.22,1.29Z" style="fill:#581cca"/><path d="M543.91,143.66a2.83,2.83,0,0,1-.76,1,3.49,3.49,0,0,1-1.13.6,5,5,0,0,1-1.42.2,6.46,6.46,0,0,1-2.21-.4,6.82,6.82,0,0,1-2-1.08l.76-1.08a6.64,6.64,0,0,0,1.71,1,5.1,5.1,0,0,0,1.79.33,2.45,2.45,0,0,0,1.5-.43,1.36,1.36,0,0,0,.59-1.17v0a1,1,0,0,0-.21-.64,1.62,1.62,0,0,0-.55-.48,4.31,4.31,0,0,0-.81-.36c-.31-.11-.62-.21-1-.3s-.79-.24-1.18-.38a4.89,4.89,0,0,1-1.08-.51,2.56,2.56,0,0,1-.78-.79,2.12,2.12,0,0,1-.3-1.17v0a2.71,2.71,0,0,1,.25-1.18,2.68,2.68,0,0,1,.72-.92,3.35,3.35,0,0,1,1.09-.59,4.65,4.65,0,0,1,1.38-.2,6.31,6.31,0,0,1,1.89.3,7,7,0,0,1,1.74.81l-.68,1.14a7,7,0,0,0-1.48-.72,4.8,4.8,0,0,0-1.51-.26,2.23,2.23,0,0,0-1.43.42,1.3,1.3,0,0,0-.53,1.05v0a1,1,0,0,0,.22.62,1.71,1.71,0,0,0,.58.46,4.6,4.6,0,0,0,.83.35c.31.11.63.21,1,.31s.78.25,1.17.39a4.89,4.89,0,0,1,1,.55,2.72,2.72,0,0,1,.75.8,2.19,2.19,0,0,1,.29,1.16v0A2.75,2.75,0,0,1,543.91,143.66Z" style="fill:#581cca"/><path d="M556.5,142.2a5.39,5.39,0,0,1-1.11,1.69,5.2,5.2,0,0,1-1.68,1.14,5.26,5.26,0,0,1-2.11.42,5.17,5.17,0,0,1-2.09-.42,5.37,5.37,0,0,1-1.66-1.13,5.08,5.08,0,0,1-1.09-1.67,5.35,5.35,0,0,1-.39-2,5.46,5.46,0,0,1,.39-2,5.17,5.17,0,0,1,4.88-3.25,5.18,5.18,0,0,1,2.1.42,5.3,5.3,0,0,1,1.67,1.13,5.15,5.15,0,0,1,1.1,1.68,5.28,5.28,0,0,1,.39,2A5.45,5.45,0,0,1,556.5,142.2Zm-1.43-3.55a3.8,3.8,0,0,0-2-2.11,3.52,3.52,0,0,0-1.49-.31,3.65,3.65,0,0,0-1.5.3,3.31,3.31,0,0,0-1.17.84,4.12,4.12,0,0,0-.75,1.25,4.24,4.24,0,0,0-.27,1.53,4.17,4.17,0,0,0,.28,1.54,3.84,3.84,0,0,0,.78,1.24,3.72,3.72,0,0,0,1.19.84,3.47,3.47,0,0,0,1.48.31,3.73,3.73,0,0,0,1.51-.3,3.61,3.61,0,0,0,1.17-.83,3.86,3.86,0,0,0,.76-1.23,4.32,4.32,0,0,0,.27-1.53A4.13,4.13,0,0,0,555.07,138.65Z" style="fill:#581cca"/><path d="M566.78,135.12h1.49v10.1h-1.49v-1.76a4.75,4.75,0,0,1-1.32,1.4,3.67,3.67,0,0,1-2.13.57,4.4,4.4,0,0,1-1.64-.29,3.53,3.53,0,0,1-1.21-.83,3.82,3.82,0,0,1-.76-1.28,4.78,4.78,0,0,1-.26-1.64v-6.27H561V141a3.22,3.22,0,0,0,.72,2.22,2.63,2.63,0,0,0,2.08.82,3.16,3.16,0,0,0,1.2-.22,2.74,2.74,0,0,0,1-.64,3.33,3.33,0,0,0,.63-1,3.37,3.37,0,0,0,.23-1.29Z" style="fill:#581cca"/><path d="M573.15,145.22h-1.5v-10.1h1.5v2.63a5.57,5.57,0,0,1,.69-1.15,4.51,4.51,0,0,1,.94-.91,4,4,0,0,1,1.15-.57,4.24,4.24,0,0,1,1.35-.18v1.62h-.12a4.23,4.23,0,0,0-1.55.29,3.54,3.54,0,0,0-1.28.88,4.21,4.21,0,0,0-.86,1.46,5.87,5.87,0,0,0-.32,2Z" style="fill:#581cca"/><path d="M586.08,144.9a4.72,4.72,0,0,1-2.39.55,5,5,0,0,1-2.06-.42A5.32,5.32,0,0,1,580,143.9a5.22,5.22,0,0,1-1.08-1.67,5.35,5.35,0,0,1-.39-2,5.41,5.41,0,0,1,1.47-3.74,5.18,5.18,0,0,1,1.65-1.14,5,5,0,0,1,2.06-.42A5.85,5.85,0,0,1,585,135a4.82,4.82,0,0,1,1.07.38,4.2,4.2,0,0,1,.9.58,7.25,7.25,0,0,1,.76.7l-1,1.05a7.39,7.39,0,0,0-1.31-1.07,3.23,3.23,0,0,0-1.75-.45,3.43,3.43,0,0,0-2.58,1.14,3.78,3.78,0,0,0-.76,1.25,4,4,0,0,0-.28,1.53,4.17,4.17,0,0,0,.29,1.54,3.73,3.73,0,0,0,.78,1.25,3.5,3.5,0,0,0,1.17.84,3.59,3.59,0,0,0,1.48.3,3.35,3.35,0,0,0,1.72-.43,5.4,5.4,0,0,0,1.36-1.07l1,.9A6.91,6.91,0,0,1,586.08,144.9Z" style="fill:#581cca"/><path d="M591.31,142.18a3.45,3.45,0,0,0,.8,1.07,3.25,3.25,0,0,0,1.09.67,3.65,3.65,0,0,0,1.27.22,3.87,3.87,0,0,0,1.81-.39,5.4,5.4,0,0,0,1.38-1l.94.84a6.17,6.17,0,0,1-1.74,1.37,5.08,5.08,0,0,1-2.43.52,5,5,0,0,1-3.56-1.45,5.2,5.2,0,0,1-1.09-1.67,5.6,5.6,0,0,1-.41-2.15,5.83,5.83,0,0,1,.36-2.06,5.39,5.39,0,0,1,1-1.69,4.61,4.61,0,0,1,3.48-1.53,4.54,4.54,0,0,1,2,.42,4.42,4.42,0,0,1,1.49,1.14,5.16,5.16,0,0,1,.92,1.7,7.14,7.14,0,0,1,.31,2.09v.22a2.29,2.29,0,0,1,0,.25h-8A4.07,4.07,0,0,0,591.31,142.18Zm6.07-2.57a4.78,4.78,0,0,0-.28-1.31,3.33,3.33,0,0,0-.62-1.09,2.9,2.9,0,0,0-1-.76,3.1,3.1,0,0,0-1.33-.28,2.9,2.9,0,0,0-1.22.26,3.11,3.11,0,0,0-1,.73,3.66,3.66,0,0,0-.7,1.08,4.38,4.38,0,0,0-.35,1.37Z" style="fill:#581cca"/><path d="M712.32,123.17h-2.6l-2.14,6.15-.43,1.22-2.57-7.37h-2.7l-2.57,7.37-.43-1.22-2.14-6.15h-3.29l.23.67.83,2.37,2,5.77,1.45,4.19h2.71l2.56-7.37,2.57,7.37h2.7L710,132l2-5.77.82-2.37.24-.67Zm11,8.94-.4.21a16.94,16.94,0,0,1-1.81.81,5.64,5.64,0,0,1-1.91.33,3.43,3.43,0,0,1-2-.52,2.48,2.48,0,0,1-.83-1.24H718a8.73,8.73,0,0,0,4-.82,3.86,3.86,0,0,0,2.19-3.57,3.8,3.8,0,0,0-1.75-3.29,6.22,6.22,0,0,0-3.48-1,5.81,5.81,0,0,0-4.53,2.07,7.35,7.35,0,0,0-1.63,4.93,6.46,6.46,0,0,0,1.6,4.61,5.9,5.9,0,0,0,4.54,1.82,10.21,10.21,0,0,0,5.45-1.66l.43-.28Zm-5.44-6a2.16,2.16,0,0,1,1.08-.27,4.16,4.16,0,0,1,.85.09,1.83,1.83,0,0,1,.69.28,1.09,1.09,0,0,1,.4.39,1.17,1.17,0,0,1,.17.66,1,1,0,0,1-.21.71,2.8,2.8,0,0,1-.83.53,5.41,5.41,0,0,1-2,.21h-1.9A4.24,4.24,0,0,1,717,127,3.57,3.57,0,0,1,717.84,126.16Zm18.7-1.34a6,6,0,0,0-7.18-1.43v-5.62H726.2v18l.36.1a18.36,18.36,0,0,0,4.51.58,6.79,6.79,0,0,0,5.27-2,7.38,7.38,0,0,0,1.73-4.92A7.49,7.49,0,0,0,736.54,124.82ZM733,133.15a3.68,3.68,0,0,1-1.64.29c-.51,0-1.22-.05-2-.12v-5.53a1.67,1.67,0,0,1,.52-1.12,2.73,2.73,0,0,1,2.12-.92,2.39,2.39,0,0,1,2.15,1.19,4.87,4.87,0,0,1,.71,2.68,4.07,4.07,0,0,1-.84,2.73A2.94,2.94,0,0,1,733,133.15Zm6.57-10h3.16v13h-3.16Zm17.75,13v-9a4.72,4.72,0,0,0-.39-2c-.71-1.43-2.29-2.22-4.46-2.22a5.5,5.5,0,0,0-3.89,1.37,5.57,5.57,0,0,0-1.36-1.33l-.33-.23-2.07,1.88.4.37a3.36,3.36,0,0,1,.77,1,3.65,3.65,0,0,1,.22,1.3v8.8h3.16v-8.56a5.34,5.34,0,0,1,1.26-1.19,3.06,3.06,0,0,1,1.72-.52,2.09,2.09,0,0,1,1.41.44c.2.18.4.49.4,1.41v8.42Zm4.67-.32c1.78-1.29,3.63-.75,5.5-.68h.34a27.43,27.43,0,0,0,3.06-.18V123.19H767.7v8a2.69,2.69,0,0,1-2.4,2.05s-2.14.17-2.38-1.63V123.2h-3.16v9a4.71,4.71,0,0,0,.38,1.95A3.7,3.7,0,0,0,762,135.87Z" style="fill:#f94f24"/><path d="M775.21,128.56a5.32,5.32,0,0,0-4.05-.62h0v3.58a1.24,1.24,0,0,1,.14-.18,1.3,1.3,0,0,1,.23-.18,2.09,2.09,0,0,1,2,.08,1.6,1.6,0,0,1,.77,1.62,1.88,1.88,0,0,1-.68,1.36,5.49,5.49,0,0,1-2.55,1h-.05l-.1,0h0c-.44,0-1.85.16-3.14.14h-.71l-1.7-.12h-.5l-.45,0-.38,0H764a4.86,4.86,0,0,0-1.79.67.1.1,0,0,1,0,0,4.58,4.58,0,0,0-1.3,1.33,5.25,5.25,0,0,0,0,5.32,4.72,4.72,0,0,0,4.47,2.35,5,5,0,0,0,3.57-1.7,8,8,0,0,0,1.67-3.46,10.65,10.65,0,0,0,.23-1.18l-3.2-.07c-.07.34-.15.68-.25,1a4.7,4.7,0,0,1-.8,1.6,1.94,1.94,0,0,1-1.38.66,1.65,1.65,0,0,1-1.6-.81,2.08,2.08,0,0,1,0-2,1.3,1.3,0,0,1,.18-.23,2,2,0,0,1,1.49-.4c.61,0,1.19,0,1.78,0h0a4.85,4.85,0,0,1,.66,0h0l3.24.08a9.42,9.42,0,0,0,4.85-1.84,5.05,5.05,0,0,0,1.78-3.53,4.75,4.75,0,0,0-2.27-4.52" style="fill:#f94f24"/><line x1="79.4" y1="171.42" x2="834.21" y2="171.42" style="fill:none;stroke-linecap:round;stroke-miterlimit:10;stroke-width:0.9304749999999999px;stroke-dasharray:3.6177101135253906,2.411799907684326;stroke:url(#a)"/><line x1="75.67" y1="353.61" x2="647.98" y2="353.61" style="fill:none;stroke:#e9e1f8;stroke-linecap:round;stroke-miterlimit:10;stroke-width:0.9304749999999999px;stroke-dasharray:3.6177101135253906,2.411799907684326"/><line x1="79.4" y1="262.32" x2="642" y2="262.32" style="fill:none;stroke:#e9e1f8;stroke-linecap:round;stroke-miterlimit:10;stroke-width:0.9304749999999999px;stroke-dasharray:3.6177101135253906,2.411799907684326"/><line x1="647.48" y1="262.32" x2="816.36" y2="262.32" style="fill:none;stroke:#fff;stroke-linecap:round;stroke-miterlimit:10;stroke-width:0.9304749999999999px;stroke-dasharray:3.6177101135253906,2.411799907684326"/><path d="M79.4,171.42a3.74,3.74,0,1,1-3.74-3.74A3.73,3.73,0,0,1,79.4,171.42Z" style="fill:#fff;stroke-linecap:round;stroke-miterlimit:10;stroke-width:1.60328px;stroke:url(#b)"/><path d="M841.69,171.42a3.74,3.74,0,1,1-3.74-3.74A3.73,3.73,0,0,1,841.69,171.42Z" style="fill:#fff;stroke-linecap:round;stroke-miterlimit:10;stroke-width:1.60328px;stroke:url(#c)"/><path d="M575.3,304.84a9.22,9.22,0,1,1-9.22-9.22A9.22,9.22,0,0,1,575.3,304.84Z" style="fill:none;stroke:#ff1f00;stroke-linecap:round;stroke-miterlimit:10;stroke-width:1.86095px"/><line x1="562.89" y1="301.65" x2="569.27" y2="308.03" style="fill:none;stroke:#ff1f00;stroke-linecap:round;stroke-miterlimit:10;stroke-width:1.86095px"/><line x1="569.27" y1="301.65" x2="562.89" y2="308.03" style="fill:none;stroke:#ff1f00;stroke-linecap:round;stroke-miterlimit:10;stroke-width:1.86095px"/><path d="M741.14,304.84a9.22,9.22,0,1,1-9.22-9.22A9.22,9.22,0,0,1,741.14,304.84Z" style="fill:none;stroke:#fff;stroke-linecap:round;stroke-miterlimit:10;stroke-width:7px"/><polyline points="729.17 304.12 731.5 306.45 736.12 301.84" style="fill:none;stroke:#fff;stroke-linecap:round;stroke-linejoin:round;stroke-width:7px"/><path d="M574.57,215a9.22,9.22,0,1,1-9.22-9.22A9.22,9.22,0,0,1,574.57,215Z" style="fill:none;stroke:#37d000;stroke-linecap:round;stroke-miterlimit:10;stroke-width:1.86095px"/><polyline points="562.61 214.29 564.94 216.62 569.55 212.01" style="fill:none;stroke:#37d000;stroke-linecap:round;stroke-linejoin:round;stroke-width:1.86095px"/><path d="M741.14,215a9.22,9.22,0,1,1-9.22-9.22A9.22,9.22,0,0,1,741.14,215Z" style="fill:none;stroke:#fff;stroke-linecap:round;stroke-miterlimit:10;stroke-width:7px"/><polyline points="729.17 214.29 731.5 216.62 736.12 212.01" style="fill:none;stroke:#fff;stroke-linecap:round;stroke-linejoin:round;stroke-width:7px"/><line x1="75.66" y1="175.16" x2="75.66" y2="354.61" style="fill:none;stroke-linecap:round;stroke-miterlimit:10;stroke-width:0.9304749999999999px;stroke-dasharray:3.6177101135253906,2.411799907684326;stroke:url(#d)"/><path d="M741.14,304.84a9.22,9.22,0,1,1-9.22-9.22A9.22,9.22,0,0,1,741.14,304.84Z" style="fill:none;stroke:#37d000;stroke-linecap:round;stroke-miterlimit:10;stroke-width:1.86095px"/><polyline points="729.17 304.12 731.5 306.45 736.12 301.84" style="fill:none;stroke:#37d000;stroke-linecap:round;stroke-linejoin:round;stroke-width:1.86095px"/><path d="M741.14,215a9.22,9.22,0,1,1-9.22-9.22A9.22,9.22,0,0,1,741.14,215Z" style="fill:none;stroke:#37d000;stroke-linecap:round;stroke-miterlimit:10;stroke-width:1.86095px"/><polyline points="729.17 214.29 731.5 216.62 736.12 212.01" style="fill:none;stroke:#37d000;stroke-linecap:round;stroke-linejoin:round;stroke-width:1.86095px"/><path d="M407,215a9.22,9.22,0,1,1-9.22-9.22A9.22,9.22,0,0,1,407,215Z" style="fill:none;stroke:#ff1f00;stroke-linecap:round;stroke-miterlimit:10;stroke-width:1.86095px"/><line x1="394.62" y1="211.82" x2="400.99" y2="218.2" style="fill:none;stroke:#ff1f00;stroke-linecap:round;stroke-miterlimit:10;stroke-width:1.86095px"/><line x1="400.99" y1="211.82" x2="394.62" y2="218.2" style="fill:none;stroke:#ff1f00;stroke-linecap:round;stroke-miterlimit:10;stroke-width:1.86095px"/><path d="M407,304.84a9.22,9.22,0,1,1-9.22-9.22A9.22,9.22,0,0,1,407,304.84Z" style="fill:none;stroke:#37d000;stroke-linecap:round;stroke-miterlimit:10;stroke-width:1.86095px"/><polyline points="395.06 304.12 397.39 306.45 402 301.84" style="fill:none;stroke:#37d000;stroke-linecap:round;stroke-linejoin:round;stroke-width:1.86095px"/><line x1="642.48" y1="354.32" x2="811.36" y2="354.32" style="fill:none;stroke:#fff;stroke-linecap:round;stroke-miterlimit:10;stroke-width:0.9304749999999999px;stroke-dasharray:3.6177101135253906,2.411799907684326"/></svg>