<svg width="144" height="143" viewBox="0 0 144 143" fill="none" xmlns="http://www.w3.org/2000/svg">
<path fill-rule="evenodd" clip-rule="evenodd" d="M102.337 24.1781C102.337 18.6081 106.85 14.0928 112.416 14.0928C117.982 14.0928 122.495 18.6081 122.495 24.1781C122.495 29.7481 117.982 34.2634 112.416 34.2634C106.85 34.2634 102.337 29.7481 102.337 24.1781Z" fill="#F2F2F2"/>
<rect x="8.37708" y="113.97" width="70.5512" height="14.9653" rx="7.48267" fill="#F2F2F2"/>
<path fill-rule="evenodd" clip-rule="evenodd" d="M109.165 40.9314C109.165 31.6781 116.661 24.1768 125.908 24.1768C135.156 24.1768 142.652 31.6781 142.652 40.9314C142.652 50.1848 135.156 57.6861 125.908 57.6861C116.661 57.6861 109.165 50.1848 109.165 40.9314Z" stroke="#FA5A28"/>
<path fill-rule="evenodd" clip-rule="evenodd" d="M0.574341 31.6599C0.574341 18.0045 11.637 6.93457 25.2835 6.93457C38.93 6.93457 49.9927 18.0045 49.9927 31.6599C49.9927 45.3153 38.93 56.3852 25.2835 56.3852C11.637 56.3852 0.574341 45.3153 0.574341 31.6599Z" stroke="#FA5A28"/>
<path d="M81.1144 129.207L80.9799 129.688L76.7095 128.496L76.8439 128.014L70.4382 126.226L70.3038 126.707L61.7628 124.323L61.8973 123.841L55.4915 122.052L55.3571 122.534L46.8161 120.149L46.9506 119.668L40.5449 117.879L40.4104 118.361L36.1399 117.168L36.2744 116.687L36.1399 117.168C34.8834 116.817 33.7107 116.28 32.6513 115.588L32.9248 115.17C31.3759 114.157 30.0795 112.8 29.135 111.199L28.7044 111.454C28.0628 110.367 27.5773 109.173 27.2765 107.903L26.2466 103.553L26.7331 103.438L25.1882 96.9129L24.7016 97.0281L22.6417 88.3285L23.1282 88.2133L21.5832 81.6887L21.0967 81.8039L19.0368 73.1043L19.5233 72.9891L17.9783 66.4644L17.4918 66.5797L16.4618 62.2299C16.158 60.9467 16.0556 59.6407 16.1421 58.354L16.641 58.3875C16.7669 56.5145 17.3089 54.6827 18.226 53.0316L17.7889 52.7888C18.4126 51.6659 19.2034 50.6234 20.1491 49.702L81.1144 129.207ZM81.1144 129.207L80.98 129.688C82.244 130.041 83.538 130.191 84.8196 130.148L84.8028 129.648C86.6636 129.585 88.498 129.101 90.1662 128.231L90.3973 128.675C91.5268 128.086 92.5825 127.327 93.5244 126.41L93.1755 126.051L93.5245 126.41L96.7649 123.252L96.416 122.894L101.277 118.158L101.626 118.516L108.106 112.202L107.758 111.843L112.618 107.107L112.967 107.465L119.448 101.151L119.099 100.793L123.96 96.0566L124.309 96.4147L127.549 93.2574C128.495 92.3359 129.285 91.2934 129.909 90.1705L129.472 89.9277C130.389 88.2765 130.931 86.4448 131.057 84.5719L131.556 84.6054C131.643 83.3187 131.54 82.0127 131.236 80.7295L130.206 76.3797L129.72 76.4949L128.175 69.9702L128.662 69.855L126.602 61.1555L126.115 61.2707L124.57 54.746L125.057 54.6308L122.997 45.9313L122.51 46.0465L120.965 39.5218L121.452 39.4066L120.422 35.0568C120.121 33.7865 119.635 32.5927 118.994 31.5057L118.563 31.7599C117.619 30.1597 116.322 28.8017 114.773 27.7896L115.047 27.371C113.987 26.6788 112.815 26.142 111.558 25.7913L107.288 24.5989L107.153 25.0805L100.748 23.2918L100.882 22.8102L92.3414 20.4254L92.207 20.907L85.8014 19.1183L85.9358 18.6368L77.395 16.2519L77.2605 16.7335L70.8549 14.9449L70.9894 14.4633L66.719 13.2709C65.4549 12.9178 64.1609 12.7684 62.8794 12.8113L62.8961 13.311C61.0352 13.3733 59.2007 13.8576 57.5326 14.7275L57.3014 14.2842C56.172 14.8731 55.1163 15.6319 54.1745 16.5497L50.934 19.707L51.2829 20.0651L46.4221 24.8012L46.0732 24.4431L39.5922 30.7578L39.9411 31.1159L35.0804 35.852L34.7314 35.4939L28.2504 41.8086L28.5993 42.1667L23.7386 46.9028L23.3896 46.5447L20.1492 49.702L81.1144 129.207Z" fill="white" stroke="#FA5A28" stroke-dasharray="8 6"/>
<path fill-rule="evenodd" clip-rule="evenodd" d="M105.842 65.3762L90.0671 65.9512L79.8416 65.3773L96.7551 63.9512L105.842 65.3762Z" fill="#634B1E"/>
<path fill-rule="evenodd" clip-rule="evenodd" d="M96.5546 65.0371L105.842 65.9512V47.5254L96.5546 42.9512L95.8416 43.7095V64.253L96.5546 65.0371Z" fill="#D9A740"/>
<path fill-rule="evenodd" clip-rule="evenodd" d="M79.8416 47.5275L96.8416 42.9512V65.0365L79.8416 65.9512V47.5275" fill="#886A2A"/>
<path fill-rule="evenodd" clip-rule="evenodd" d="M41.8416 65.4195L57.616 65.9512L67.8416 65.4206L50.9762 63.9512L41.8416 65.4195Z" fill="#634B1E"/>
<path fill-rule="evenodd" clip-rule="evenodd" d="M50.4454 65.0662L41.8416 65.9512V47.5083L50.4454 42.9512L50.8416 43.7361V64.3772L50.4454 65.0662Z" fill="#886A2A"/>
<path fill-rule="evenodd" clip-rule="evenodd" d="M67.8416 47.5275L50.8416 42.9512V65.0365L67.8416 65.9512V47.5275Z" fill="#D9A740"/>
<path fill-rule="evenodd" clip-rule="evenodd" d="M105.837 75.5978L90.0748 74.9614L79.8575 75.5966L96.6839 77.2535L105.837 75.5978Z" fill="#FAD791"/>
<path fill-rule="evenodd" clip-rule="evenodd" d="M96.7209 76.4855L105.836 75.5981V93.4851L96.7209 97.9257L96.2421 96.9101V77.3981L96.7209 76.4855Z" fill="#D9A740"/>
<path fill-rule="evenodd" clip-rule="evenodd" d="M79.8575 93.4955L96.7209 97.9415V76.4853L79.8575 75.5967V93.4955" fill="#886A2A"/>
<path fill-rule="evenodd" clip-rule="evenodd" d="M41.8416 75.5978L57.6033 74.9614L67.8205 75.5966L50.8469 77.397L41.8416 75.5978Z" fill="#FAD791"/>
<path fill-rule="evenodd" clip-rule="evenodd" d="M50.9572 76.4855L41.8416 75.5981V93.4851L50.9572 97.9257L51.5098 97.1252V77.3973L50.9572 76.4855Z" fill="#886A2A"/>
<path fill-rule="evenodd" clip-rule="evenodd" d="M67.8205 93.4955L50.9572 97.9415V76.4853L67.8205 75.5967V93.4955Z" fill="#D9A740"/>
<path fill-rule="evenodd" clip-rule="evenodd" d="M65.7281 58.3627L73.9665 56.9224L90.4139 59.2441L91.8306 60.0566L83.8421 60.9281L65.7281 58.3627Z" fill="#634B1E"/>
<path fill-rule="evenodd" clip-rule="evenodd" d="M81.9456 58.3627L73.7072 56.9224L56.5516 59.5762L55.8431 60.0566L63.8316 60.9281L81.9456 58.3627Z" fill="#634B1E"/>
<path fill-rule="evenodd" clip-rule="evenodd" d="M65.7281 82.8457L73.9665 84.286L90.3724 81.9989L91.8306 81.1518L83.8421 80.2803L65.7281 82.8457Z" fill="#FAD791"/>
<path fill-rule="evenodd" clip-rule="evenodd" d="M81.9456 82.8457L73.7072 84.286L56.4267 81.8327L55.8431 81.1518L63.8316 80.2803L81.9456 82.8457Z" fill="#FAD791"/>
<path fill-rule="evenodd" clip-rule="evenodd" d="M91.8305 60.0564V51.1403L83.4055 48.3935V36.7237L73.8368 31.9546V31.9548L73.4377 32.5884L73.365 107.976L73.8368 108.945L83.4055 104.176V92.8147L91.8305 90.0679V81.1518L83.4055 82.6305V58.5778L91.8305 60.0564Z" fill="#D9A740"/>
<path fill-rule="evenodd" clip-rule="evenodd" d="M64.2682 36.7237V48.3935L55.8431 51.1403V60.0564L64.2682 58.5778V82.6305L55.8431 81.1518V90.0679L64.2682 92.8147V104.176L73.8369 108.945V31.9546L64.2682 36.7237Z" fill="#886A2A"/>
</svg>
