<svg width="145" height="144" viewBox="0 0 145 144" fill="none" xmlns="http://www.w3.org/2000/svg">
<rect x="9.07983" y="113.946" width="70.5512" height="14.9653" rx="7.48267" fill="#F2F2F2"/>
<path fill-rule="evenodd" clip-rule="evenodd" d="M1.27698 31.6365C1.27698 17.981 12.3397 6.91113 25.9862 6.91113C39.6327 6.91113 50.6953 17.981 50.6953 31.6365C50.6953 45.2919 39.6327 56.3618 25.9862 56.3618C12.3397 56.3618 1.27698 45.2919 1.27698 31.6365Z" stroke="#FA5A28"/>
<path fill-rule="evenodd" clip-rule="evenodd" d="M109.867 40.908C109.867 31.6546 117.364 24.1533 126.611 24.1533C135.858 24.1533 143.355 31.6546 143.355 40.908C143.355 50.1613 135.858 57.6627 126.611 57.6627C117.364 57.6627 109.867 50.1613 109.867 40.908Z" stroke="#FA5A28"/>
<path fill-rule="evenodd" clip-rule="evenodd" d="M103.04 24.1547C103.04 18.5847 107.552 14.0693 113.119 14.0693C118.685 14.0693 123.197 18.5847 123.197 24.1547C123.197 29.7246 118.685 34.24 113.119 34.24C107.552 34.24 103.04 29.7246 103.04 24.1547Z" fill="#F2F2F2"/>
<path d="M78.8171 130.183L78.6826 130.664L74.4121 129.472L74.5466 128.99L68.1409 127.202L68.0064 127.683L59.4654 125.299L59.5999 124.817L53.1942 123.028L53.0597 123.51L44.5187 121.125L44.6532 120.644L38.2475 118.855L38.113 119.337L33.8425 118.144L33.977 117.663L33.8425 118.144C32.5861 117.793 31.4134 117.257 30.354 116.564L30.6275 116.146C29.0785 115.134 27.7821 113.776 26.8376 112.175L26.407 112.43C25.7654 111.343 25.28 110.149 24.9792 108.879L23.9492 104.529L24.4357 104.414L22.8908 97.8889L22.4042 98.0042L20.3443 89.3046L20.8308 89.1894L19.2859 82.6647L18.7993 82.7799L16.7394 74.0804L17.2259 73.9652L15.681 67.4405L15.1944 67.5557L14.1645 63.2059C13.8606 61.9228 13.7582 60.6168 13.8447 59.33L14.3436 59.3636C14.4695 57.4906 15.0115 55.6588 15.9286 54.0077L15.4915 53.7649C16.1153 52.642 16.906 51.5995 17.8518 50.6781L78.8171 130.183ZM78.8171 130.183L78.6826 130.664C79.9467 131.017 81.2407 131.167 82.5222 131.124L82.5054 130.624C84.3663 130.562 86.2007 130.077 87.8688 129.207L88.1 129.651C89.2294 129.062 90.2851 128.303 91.2271 127.386L90.8782 127.028L91.2271 127.386L94.4676 124.228L94.1186 123.87L98.9793 119.134L99.3282 119.492L105.809 113.178L105.46 112.819L110.321 108.083L110.67 108.442L117.151 102.127L116.802 101.769L121.662 97.0327L122.011 97.3908L125.252 94.2334C126.197 93.312 126.988 92.2695 127.612 91.1465L127.175 90.9038C128.092 89.2526 128.634 87.4209 128.76 85.5479L129.259 85.5815C129.345 84.2947 129.243 82.9887 128.939 81.7056L127.909 77.3558L127.423 77.471L125.878 70.9463L126.364 70.8311L124.304 62.1316L123.818 62.2468L122.273 55.7221L122.759 55.6069L120.699 46.9073L120.213 47.0225L118.668 40.4979L119.154 40.3827L118.124 36.0329C117.824 34.7626 117.338 33.5687 116.697 32.4818L116.266 32.736C115.321 31.1358 114.025 29.7777 112.476 28.7657L112.75 28.3471C111.69 27.6548 110.517 27.1181 109.261 26.7674L104.99 25.575L104.856 26.0565L98.4504 24.2679L98.5849 23.7863L90.0441 21.4015L89.9096 21.883L83.504 20.0944L83.6385 19.6128L75.0977 17.228L74.9632 17.7096L68.5576 15.9209L68.692 15.4394L64.4217 14.2469C63.1576 13.8939 61.8635 13.7445 60.582 13.7873L60.5987 14.2871C58.7378 14.3494 56.9034 14.8337 55.2353 15.7036L55.0041 15.2602C53.8747 15.8492 52.819 16.6079 51.8771 17.5257L48.6366 20.6831L48.9855 21.0412L44.1248 25.7773L43.7758 25.4192L37.2948 31.7339L37.6438 32.092L32.783 36.8281L32.4341 36.47L25.953 42.7847L26.302 43.1428L21.4412 47.8789L21.0923 47.5208L17.8518 50.6781L78.8171 130.183Z" fill="white" stroke="#FA5A28" stroke-dasharray="8 6"/>
<path fill-rule="evenodd" clip-rule="evenodd" d="M48.8176 51.9512L44.8416 54.2024V93.7131L48.8176 95.9512L48.8416 95.9186V51.9822L48.8176 51.9512Z" fill="#8C3123"/>
<path fill-rule="evenodd" clip-rule="evenodd" d="M72.8416 90.2164L48.8416 95.9512V51.9512L72.8416 57.5609V90.2164Z" fill="#E05243"/>
<path fill-rule="evenodd" clip-rule="evenodd" d="M62.8416 80.653L72.724 81.9512L72.786 81.8035L72.8416 65.0819L72.724 64.9512L62.8416 66.2306V80.653Z" fill="#8C3123"/>
<path fill-rule="evenodd" clip-rule="evenodd" d="M72.8416 90.2702L95.8054 95.9512L95.8416 95.8925L95.8409 51.9904L95.8046 51.9512L72.8416 57.6237V90.2702" fill="#8C3123"/>
<path fill-rule="evenodd" clip-rule="evenodd" d="M82.8416 80.653L72.8416 81.9512V64.9512L82.8416 66.2306V80.653Z" fill="#E05243"/>
<path fill-rule="evenodd" clip-rule="evenodd" d="M82.8416 59.3091L72.8402 60.9512L62.8416 59.3091L72.8276 56.9512L82.8416 59.3091Z" fill="#5E1F18"/>
<path fill-rule="evenodd" clip-rule="evenodd" d="M82.8416 86.9358L72.8402 84.9512L62.8416 86.9358L72.828 89.9512L82.8416 86.9358Z" fill="#F2B0A9"/>
<path fill-rule="evenodd" clip-rule="evenodd" d="M62.8416 58.9512L72.7613 56.4952L72.8416 56.4704V40.0175L72.7613 39.9512L62.8416 44.9143V58.9512Z" fill="#8C3123"/>
<path fill-rule="evenodd" clip-rule="evenodd" d="M82.8416 58.9512L72.8416 56.4952V39.9512L82.8416 44.9143V58.9512Z" fill="#E05243"/>
<path fill-rule="evenodd" clip-rule="evenodd" d="M72.6965 106.951L62.8416 101.989V87.9512L72.6965 90.4066L72.8416 90.5726L72.8022 106.665L72.6965 106.951Z" fill="#8C3123"/>
<path fill-rule="evenodd" clip-rule="evenodd" d="M71.8416 106.951L82.0846 101.918V87.677L71.8416 90.1679V106.951ZM95.3282 51.9512L99.8416 54.1693V93.0996L95.3282 95.3168V51.9512Z" fill="#E05243"/>
</svg>
