<svg width="144" height="144" viewBox="0 0 144 144" fill="none" xmlns="http://www.w3.org/2000/svg">
<path fill-rule="evenodd" clip-rule="evenodd" d="M0.726685 33.5915C0.726685 19.9361 11.7894 8.86621 25.4359 8.86621C39.0824 8.86621 50.145 19.9361 50.145 33.5915C50.145 47.247 39.0824 58.3169 25.4359 58.3169C11.7894 58.3169 0.726685 47.247 0.726685 33.5915Z" stroke="#FA5A28"/>
<path fill-rule="evenodd" clip-rule="evenodd" d="M109.317 42.8631C109.317 33.6097 116.813 26.1084 126.061 26.1084C135.308 26.1084 142.804 33.6097 142.804 42.8631C142.804 52.1164 135.308 59.6177 126.061 59.6177C116.813 59.6177 109.317 52.1164 109.317 42.8631Z" stroke="#FA5A28"/>
<rect x="8.52942" y="115.901" width="70.5512" height="14.9653" rx="7.48267" fill="#F2F2F2"/>
<path fill-rule="evenodd" clip-rule="evenodd" d="M102.49 26.1097C102.49 20.5398 107.002 16.0244 112.569 16.0244C118.135 16.0244 122.647 20.5398 122.647 26.1097C122.647 31.6797 118.135 36.1951 112.569 36.1951C107.002 36.1951 102.49 31.6797 102.49 26.1097Z" fill="#F2F2F2"/>
<path d="M80.2666 130.138L80.1322 130.62L75.8617 129.427L75.9962 128.946L69.5904 127.157L69.456 127.639L60.915 125.254L61.0495 124.772L54.6438 122.984L54.5093 123.465L45.9683 121.08L46.1028 120.599L39.6971 118.81L39.5626 119.292L35.2921 118.099L35.4266 117.618L35.2921 118.099C34.0357 117.748 32.863 117.212 31.8035 116.519L32.077 116.101C30.5281 115.089 29.2317 113.731 28.2872 112.131L27.8566 112.385C27.215 111.298 26.7296 110.104 26.4288 108.834L25.3988 104.484L25.8853 104.369L24.3404 97.844L23.8538 97.9592L21.7939 89.2597L22.2804 89.1445L20.7355 82.6198L20.2489 82.735L18.189 74.0355L18.6755 73.9203L17.1306 67.3956L16.644 67.5108L15.614 63.161C15.3102 61.8779 15.2078 60.5719 15.2943 59.2851L15.7932 59.3186C15.9191 57.4457 16.4611 55.6139 17.3782 53.9628L16.9411 53.72C17.5649 52.597 18.3556 51.5545 19.3014 50.6332L80.2666 130.138ZM80.2666 130.138L80.1322 130.62C81.3963 130.972 82.6903 131.122 83.9718 131.079L83.955 130.579C85.8158 130.517 87.6503 130.032 89.3184 129.163L89.5495 129.606C90.679 129.017 91.7347 128.258 92.6767 127.341L92.3278 126.983L92.6767 127.341L95.9171 124.183L95.5682 123.825L100.429 119.089L100.778 119.447L107.259 113.133L106.91 112.775L111.77 108.039L112.119 108.397L118.6 102.082L118.251 101.724L123.112 96.9878L123.461 97.3459L126.701 94.1885C127.647 93.267 128.438 92.2245 129.061 91.1016L128.624 90.8588C129.541 89.2077 130.084 87.376 130.209 85.503L130.708 85.5366C130.795 84.2498 130.692 82.9438 130.389 81.6606L129.359 77.3109L128.872 77.4261L127.327 70.9014L127.814 70.7862L125.754 62.0866L125.267 62.2018L123.722 55.6772L124.209 55.562L122.149 46.8624L121.662 46.9776L120.117 40.453L120.604 40.3377L119.574 35.988C119.273 34.7176 118.788 33.5238 118.146 32.4369L117.716 32.691C116.771 31.0909 115.475 29.7328 113.926 28.7207L114.199 28.3022C113.14 27.6099 111.967 27.0731 110.71 26.7225L106.44 25.53L106.306 26.0116L99.9 24.223L100.034 23.7414L91.4937 21.3565L91.3592 21.8381L84.9536 20.0495L85.088 19.5679L76.5472 17.1831L76.4128 17.6646L70.0072 15.876L70.1416 15.3944L65.8712 14.202C64.6072 13.849 63.3131 13.6995 62.0316 13.7424L62.0483 14.2421C60.1874 14.3044 58.353 14.7888 56.6848 15.6587L56.4536 15.2153C55.3242 15.8043 54.2685 16.563 53.3267 17.4808L50.0862 20.6382L50.4351 20.9963L45.5744 25.7324L45.2254 25.3742L38.7444 31.689L39.0933 32.0471L34.2326 36.7832L33.8836 36.425L27.4026 42.7398L27.7516 43.0979L22.8908 47.8339L22.5419 47.4758L19.3014 50.6332L80.2666 130.138Z" fill="white" stroke="#FA5A28" stroke-dasharray="8 6"/>
<path fill-rule="evenodd" clip-rule="evenodd" d="M84.8551 63.8819L99.9774 61.9512L107.813 63.8987L107.842 63.9195L93.3946 64.9512L84.8416 63.8987L84.8551 63.8819Z" fill="#5E1F18"/>
<path fill-rule="evenodd" clip-rule="evenodd" d="M84.8416 63.9512L99.7386 62.7817L99.841 62.6318L99.8416 44.1623L99.7391 43.9512L84.8416 47.8444V63.9512" fill="#8C3123"/>
<path fill-rule="evenodd" clip-rule="evenodd" d="M107.842 63.9512L99.8416 62.7653L99.8421 43.9512L107.841 47.8488L107.842 63.9512Z" fill="#E05243"/>
<path fill-rule="evenodd" clip-rule="evenodd" d="M84.8416 77.8118L85.0625 77.963L99.9671 78.9512L107.572 77.963L107.842 77.8185L93.3947 76.9512L84.8416 77.8118Z" fill="#F2B0A9"/>
<path fill-rule="evenodd" clip-rule="evenodd" d="M84.8416 77.9512L99.7953 79.0667L99.8416 79.129L99.8302 97.8534L99.7933 97.9512L84.8416 94.0831V77.9512" fill="#8C3123"/>
<path fill-rule="evenodd" clip-rule="evenodd" d="M107.842 77.9512L99.8436 79.0602L99.8416 97.9512L107.842 94.0731V77.9512Z" fill="#E05243"/>
<path fill-rule="evenodd" clip-rule="evenodd" d="M64.759 63.9863L49.7077 62.6519L41.8917 63.9948L41.842 64.035L56.386 64.9329L64.8398 64.0344L64.759 63.9865V63.9863Z" fill="#5E1F18"/>
<path fill-rule="evenodd" clip-rule="evenodd" d="M41.842 64.0348L49.7 62.8441L49.9311 62.6746V43.1934L49.7 42.9658L41.842 47.0726V64.0348Z" fill="#8C3123"/>
<path fill-rule="evenodd" clip-rule="evenodd" d="M64.8398 64.0343L49.7 62.8441V42.9658L64.8405 47.0635L64.8398 64.0343Z" fill="#E05243"/>
<path fill-rule="evenodd" clip-rule="evenodd" d="M64.8398 77.8911L64.4924 78.1536L49.7 79.3032L42.0925 78.1536L41.8416 77.8911L56.386 76.9648L64.8398 77.8911Z" fill="#F2B0A9"/>
<path fill-rule="evenodd" clip-rule="evenodd" d="M41.8416 77.8911L49.6997 79.0479L49.8995 79.3016L49.9209 98.5809L49.7 98.9345L41.8421 94.8542L41.8416 77.8911Z" fill="#8C3123"/>
<path fill-rule="evenodd" clip-rule="evenodd" d="M64.8398 77.8911L49.6997 79.0479L49.7 98.9345L64.8398 94.8632V77.8911Z" fill="#E05243"/>
<path fill-rule="evenodd" clip-rule="evenodd" d="M90.8178 80.5104L74.9145 78.9561L58.8527 80.5107L59.0791 80.7003L74.8361 83.1809L90.5911 80.7003L90.8178 80.5104Z" fill="#F2B0A9"/>
<path fill-rule="evenodd" clip-rule="evenodd" d="M58.8527 80.5103L74.8361 82.8312L74.9983 83.0461L75.0188 110.636L74.8361 110.942L58.8527 103.021V80.5103" fill="#8C3123"/>
<path fill-rule="evenodd" clip-rule="evenodd" d="M90.8177 80.5103L74.8361 82.8315V110.942L90.818 103.021L90.8177 80.5103" fill="#E05243"/>
<path fill-rule="evenodd" clip-rule="evenodd" d="M74.9145 62.9508L58.8527 61.4125L58.894 61.389L74.8354 58.9355L90.7696 61.3947L90.818 61.4125L74.9145 62.9508Z" fill="#5E1F18"/>
<path fill-rule="evenodd" clip-rule="evenodd" d="M58.8527 61.4124L74.8361 59.1018L74.9127 59.0326L74.8773 30.9938L74.8361 30.9512L58.8527 38.8803V61.4124Z" fill="#8C3123"/>
<path fill-rule="evenodd" clip-rule="evenodd" d="M90.818 61.4124L74.8361 59.1018V30.9512L90.818 38.8803V61.4124Z" fill="#E05243"/>
</svg>
