<svg width="144" height="143" viewBox="0 0 144 143" fill="none" xmlns="http://www.w3.org/2000/svg">
<path fill-rule="evenodd" clip-rule="evenodd" d="M102.604 23.1947C102.604 17.6247 107.117 13.1094 112.683 13.1094C118.25 13.1094 122.762 17.6247 122.762 23.1947C122.762 28.7647 118.25 33.28 112.683 33.28C107.117 33.28 102.604 28.7647 102.604 23.1947Z" fill="#F2F2F2"/>
<path fill-rule="evenodd" clip-rule="evenodd" d="M109.432 39.948C109.432 30.6947 116.928 23.1934 126.176 23.1934C135.423 23.1934 142.919 30.6947 142.919 39.948C142.919 49.2014 135.423 56.7027 126.176 56.7027C116.928 56.7027 109.432 49.2014 109.432 39.948Z" stroke="#FA5A28"/>
<path fill-rule="evenodd" clip-rule="evenodd" d="M0.841553 30.6765C0.841553 17.0211 11.9042 5.95117 25.5507 5.95117C39.1972 5.95117 50.2599 17.0211 50.2599 30.6765C50.2599 44.3319 39.1972 55.4018 25.5507 55.4018C11.9042 55.4018 0.841553 44.3319 0.841553 30.6765Z" stroke="#FA5A28"/>
<rect x="8.64441" y="112.986" width="70.5512" height="14.9653" rx="7.48267" fill="#F2F2F2"/>
<path d="M79.3816 129.223L79.2472 129.705L74.9767 128.512L75.1111 128.031L68.7054 126.242L68.571 126.724L60.03 124.339L60.1645 123.857L53.7587 122.069L53.6243 122.55L45.0833 120.165L45.2178 119.684L38.8121 117.895L38.6776 118.377L34.4071 117.184L34.5416 116.703L34.4071 117.184C33.1507 116.833 31.978 116.297 30.9185 115.604L31.192 115.186C29.6431 114.174 28.3467 112.816 27.4022 111.216L26.9716 111.47C26.33 110.383 25.8446 109.189 25.5438 107.919L24.5138 103.569L25.0003 103.454L23.4554 96.929L22.9688 97.0442L20.9089 88.3446L21.3954 88.2294L19.8505 81.7048L19.3639 81.82L17.304 73.1204L17.7905 73.0052L16.2456 66.4806L15.759 66.5958L14.729 62.246C14.4252 60.9628 14.3228 59.6568 14.4093 58.3701L14.9082 58.4036C15.0341 56.5306 15.5761 54.6988 16.4932 53.0477L16.0561 52.805C16.6798 51.682 17.4706 50.6395 18.4163 49.7182L79.3816 129.223ZM79.3816 129.223L79.2472 129.705C80.5113 130.057 81.8053 130.207 83.0868 130.164L83.07 129.664C84.9308 129.602 86.7653 129.117 88.4334 128.247L88.6645 128.691C89.794 128.102 90.8497 127.343 91.7917 126.426L91.4428 126.068L91.7917 126.426L95.0321 123.268L94.6832 122.91L99.5438 118.174L99.8928 118.532L106.374 112.218L106.025 111.86L110.885 107.123L111.234 107.482L117.715 101.167L117.366 100.809L122.227 96.0727L122.576 96.4308L125.816 93.2735C126.762 92.352 127.553 91.3095 128.176 90.1866L127.739 89.9438C128.656 88.2926 129.198 86.4609 129.324 84.588L129.823 84.6215C129.91 83.3348 129.807 82.0288 129.504 80.7456L128.474 76.3958L127.987 76.511L126.442 69.9864L126.929 69.8711L124.869 61.1716L124.382 61.2868L122.837 54.7621L123.324 54.6469L121.264 45.9474L120.777 46.0626L119.232 39.5379L119.719 39.4227L118.689 35.0729C118.388 33.8026 117.903 32.6088 117.261 31.5218L116.831 31.776C115.886 30.1758 114.59 28.8178 113.041 27.8057L113.314 27.3871C112.255 26.6949 111.082 26.1581 109.825 25.8074L105.555 24.615L105.421 25.0966L99.015 23.3079L99.1495 22.8264L90.6086 20.4415L90.4742 20.9231L84.0686 19.1345L84.203 18.6529L75.6622 16.268L75.5278 16.7496L69.1221 14.961L69.2566 14.4794L64.9862 13.287C63.7221 12.934 62.4281 12.7845 61.1466 12.8274L61.1633 13.3271C59.3024 13.3894 57.4679 13.8738 55.7998 14.7436L55.5686 14.3003C54.4392 14.8892 53.3835 15.648 52.4417 16.5658L49.2012 19.7231L49.5501 20.0813L44.6893 24.8173L44.3404 24.4592L37.8594 30.7739L38.2083 31.1321L33.3476 35.8681L32.9986 35.51L26.5176 41.8247L26.8665 42.1829L22.0058 46.9189L21.6569 46.5608L18.4164 49.7181L79.3816 129.223Z" fill="white" stroke="#FA5A28" stroke-dasharray="8 6"/>
<path fill-rule="evenodd" clip-rule="evenodd" d="M55.3069 84.8387L48.2528 87.8887L54.7858 90.7008L62.3611 87.8887L55.3069 84.8387ZM44.7014 88.6512L44.4651 102.376L54.7857 106.951V92.7017L44.7014 88.6512ZM65.9123 88.6512L56.5856 92.2258V105.664L65.9123 101.852V88.6512ZM77.0389 45.9512L69.9363 49.0012L76.5177 51.8133L84.093 49.0012L77.0389 45.9512ZM67.191 50.0032V63.7281L75.9966 66.3023L76.2814 53.8156L67.191 50.0032ZM86.8869 50.7656L78.5541 54.3402V67.8274L86.8869 64.0149V50.7656H86.8869ZM43.6833 65.2684L36.6292 68.3184L43.1622 71.1305L50.7375 68.3184L43.6833 65.2684ZM33.0779 69.0809L32.8416 82.8059L43.1622 87.3809V73.1313L33.0779 69.0809ZM54.2888 69.0809L44.9621 72.6555V86.0938L54.2888 82.2813V69.0809ZM66.4093 64.762L59.3552 67.812L65.8881 70.6242L73.4634 67.812L66.4093 64.762ZM55.8038 68.5746L55.5674 82.2996L65.8881 86.8746V72.6265L55.8038 68.5746ZM77.0147 68.5746L67.688 72.1492V85.5875L77.0147 81.775V68.5746ZM99.2361 45.9512L92.1821 49.0012L98.715 51.8132L106.29 49.0012L99.2361 45.9512ZM88.6307 49.7637L88.3944 63.4887L98.715 68.0636V53.8156L88.6307 49.7637ZM109.842 49.7637L100.515 53.3382V66.7766L109.842 62.9641V49.7637Z" fill="#F7A80D"/>
</svg>
