<?xml version="1.0" encoding="UTF-8"?>
<svg width="144px" height="124px" viewBox="0 0 144 124" version="1.1" xmlns="http://www.w3.org/2000/svg" xmlns:xlink="http://www.w3.org/1999/xlink">
    <!-- Generator: Sketch 58 (84663) - https://sketch.com -->
    <title>icon</title>
    <desc>Created with Sketch.</desc>
    <defs>
        <path d="M112.85909,104.234719 L71.8249576,128.170897 C67.9414847,130.435713 63.1895501,130.490515 59.3587498,128.314655 L18.8795688,105.318516 C15.0487524,103.14197 12.7214395,99.0658913 12.7740277,94.624544 L13.3297652,47.6922479 C13.3823572,43.2508722 15.8068649,39.1193841 19.6902691,36.8545742 L60.7252047,12.9184219 C64.6085915,10.6529086 69.3605037,10.598101 73.1914092,12.7746598 L113.669771,35.7707931 C117.500721,37.9466529 119.828035,42.0233277 119.775436,46.4646821 L119.21969,93.3969889 C119.167104,97.8383433 116.742595,101.969225 112.85909,104.234719 L112.85909,104.234719 Z" id="path-1"></path>
        <mask id="mask-2" maskContentUnits="userSpaceOnUse" maskUnits="objectBoundingBox" x="-1" y="-1" width="109.004852" height="120.728928">
            <rect x="11.7723122" y="10.1799316" width="109.004852" height="120.728928" fill="white"></rect>
            <use xlink:href="#path-1" fill="black"></use>
        </mask>
    </defs>
    <g id="Landing-page-Webiny" stroke="none" stroke-width="1" fill="none" fill-rule="evenodd">
        <g id="Desktop-HD" transform="translate(-245.000000, -4416.000000)">
            <g id="Serverless-Benefits" transform="translate(120.000000, 3881.000000)">
                <g id="group" transform="translate(28.841553, 237.951172)">
                    <g id="4" transform="translate(0.000000, 290.983887)">
                        <g id="icon" transform="translate(96.732788, 0.000000)">
                            <ellipse id="Ellipse-2" fill="#F2F2F2" cx="15.2806473" cy="57.8172646" rx="10.078743" ry="10.085331"></ellipse>
                            <rect id="Rectangle" fill="#F2F2F2" x="7.80285645" y="114.099609" width="70.5512085" height="14.9653301"></rect>
                            <ellipse id="Ellipse" stroke="#FA5A28" cx="24.7091808" cy="31.7902718" rx="24.7091808" ry="24.7253304"></ellipse>
                            <ellipse id="Ellipse-Copy" stroke="#FA5A28" cx="125.334055" cy="41.0622845" rx="16.7437229" ry="16.7546673"></ellipse>
                            <ellipse id="Ellipse-2-Copy" fill="#F2F2F2" cx="111.841685" cy="24.3079872" rx="10.0787458" ry="10.085331"></ellipse>
                            <use id="path-1-path-Copy-7" stroke="#FA5A28" mask="url(#mask-2)" stroke-width="2" fill="#FFFFFF" stroke-dasharray="8,6" transform="translate(66.274738, 70.544395) rotate(-14.000000) translate(-66.274738, -70.544395) " xlink:href="#path-1"></use>
                            <path d="M67.6942288,71.1795254 C67.4621395,71.5083852 67.2665417,71.779041 67.0782429,72.0526032 C64.075196,76.4587388 61.0731217,80.86439 58.0720218,85.2695529 C55.2801415,89.3672001 52.4853425,93.4624215 49.6876239,97.5552171 C49.593729,97.6851997 49.44887,97.7693062 49.2891311,97.7865834 C45.3392383,97.7526299 41.3903195,97.7099457 37.4423734,97.658531 C37.3985831,97.658531 37.353333,97.645437 37.2672119,97.6323392 C37.2990989,97.5500652 37.3361507,97.4698752 37.3781475,97.3922424 C40.133049,93.1345344 42.8879503,88.8777914 45.6428518,84.622021 C48.0863554,80.8503234 50.5313179,77.0795946 52.9777402,73.3098383 C55.6888511,69.1210024 58.3985041,64.9292564 61.1066954,60.7346001 C61.506648,60.1161702 61.9226549,59.509381 62.302172,58.8793084 C62.3994883,58.7106484 62.4287171,58.5113713 62.383914,58.3219944 C61.654074,56.0025169 60.9096378,53.6888588 60.1666614,51.3752017 C59.8484507,50.3842581 59.5156438,49.3991349 59.2178704,48.4023709 C59.1215304,48.0822417 58.9624259,47.9847483 58.6339984,47.9862034 C56.1525426,47.9963891 53.6856848,47.9934789 51.2115289,47.9934789 C50.7415119,47.9934789 50.7400521,47.9934789 50.7400521,47.5307472 C50.7400521,44.498256 50.7400521,41.4657643 50.7312942,38.4332726 C50.7312942,38.0956824 50.8422295,38.0200156 51.1604402,38.0200156 C56.1418386,38.0287464 61.1242113,38.0287464 66.1075566,38.0200156 C66.346965,37.9894966 66.5719007,38.1408551 66.6330417,38.3736123 C69.2604656,44.9614725 71.8878857,51.5469071 74.5153096,58.1299177 C77.5806355,65.8071839 80.6459615,73.4854227 83.7112911,81.1646321 C84.6630018,83.5481321 85.6220096,85.9301826 86.5635034,88.3195068 C86.6758995,88.610534 86.7926732,88.6658277 87.0875288,88.5756078 C89.6988929,87.7709215 92.3160999,86.9880636 94.926006,86.1819203 C95.2544354,86.0800596 95.3741286,86.1484511 95.4763042,86.4729475 C96.3667102,89.2624293 97.2746303,92.0460945 98.1767111,94.8326699 C98.2073653,94.9287101 98.2307186,95.0262036 98.2672119,95.1600726 C98.0803711,95.2284641 97.9052125,95.3055862 97.7256725,95.3550633 C91.7896422,97.2302402 85.8570186,99.1063858 79.9278018,100.983504 C79.6446211,101.072267 79.5599632,100.97623 79.4650812,100.739044 C77.6541058,96.164113 75.8387529,91.5911237 74.0190188,87.0200757 C72.2391812,82.5440955 70.4583728,78.0681114 68.6765936,73.5921311 C68.4094725,72.9198607 68.1467291,72.24468 67.879608,71.5724095 C67.8372754,71.4574549 67.7788904,71.3570512 67.6942288,71.1795254 L67.6942288,71.1795254 Z" id="Path" fill="#FA7E14"></path>
                        </g>
                    </g>
                </g>
            </g>
        </g>
    </g>
</svg>