<?xml version="1.0" encoding="UTF-8"?>
<svg width="144px" height="126px" viewBox="0 0 144 126" version="1.1" xmlns="http://www.w3.org/2000/svg" xmlns:xlink="http://www.w3.org/1999/xlink">
    <!-- Generator: Sketch 58 (84663) - https://sketch.com -->
    <title>icon</title>
    <desc>Created with Sketch.</desc>
    <defs>
        <path d="M116.85909,104.234719 L75.8249576,128.170897 C71.9414847,130.435713 67.1895501,130.490515 63.3587498,128.314655 L22.8795688,105.318516 C19.0487524,103.14197 16.7214395,99.0658913 16.7740277,94.624544 L17.3297652,47.6922479 C17.3823572,43.2508722 19.8068649,39.1193841 23.6902691,36.8545742 L64.7252047,12.9184219 C68.6085915,10.6529086 73.3605037,10.598101 77.1914092,12.7746598 L117.669771,35.7707931 C121.500721,37.9466529 123.828035,42.0233277 123.775436,46.4646821 L123.21969,93.3969889 C123.167104,97.8383433 120.742595,101.969225 116.85909,104.234719 L116.85909,104.234719 Z" id="path-1"></path>
        <mask id="mask-2" maskContentUnits="userSpaceOnUse" maskUnits="objectBoundingBox" x="-1" y="-1" width="109.004852" height="120.728928">
            <rect x="15.7723122" y="10.1799316" width="109.004852" height="120.728928" fill="white"></rect>
            <use xlink:href="#path-1" fill="black"></use>
        </mask>
    </defs>
    <g id="Landing-page-Webiny" stroke="none" stroke-width="1" fill="none" fill-rule="evenodd">
        <g id="Desktop-HD" transform="translate(-648.000000, -4125.000000)">
            <g id="Serverless-Benefits" transform="translate(120.000000, 3881.000000)">
                <g id="group" transform="translate(28.841553, 237.951172)">
                    <g id="2" transform="translate(407.000000, 1.959961)">
                        <g id="icon" transform="translate(93.435425, 0.000000)">
                            <rect id="Rectangle" fill="#F2F2F2" x="7.80285645" y="112.035156" width="70.5512085" height="14.9653301"></rect>
                            <ellipse id="Ellipse-3" stroke="#FA5A28" cx="24.7091808" cy="29.7253304" rx="24.7091808" ry="24.7253304"></ellipse>
                            <ellipse id="Ellipse-Copy" stroke="#FA5A28" cx="125.334055" cy="38.9968548" rx="16.7437229" ry="16.7546673"></ellipse>
                            <ellipse id="Ellipse-2-Copy" fill="#F2F2F2" cx="111.841685" cy="22.2435341" rx="10.0787458" ry="10.085331"></ellipse>
                            <use id="path-1-path-Copy-5" stroke="#FA5A28" mask="url(#mask-2)" stroke-width="2" fill="#FFFFFF" stroke-dasharray="8,6" transform="translate(70.274738, 70.544395) rotate(-14.000000) translate(-70.274738, -70.544395) " xlink:href="#path-1"></use>
                            <polyline id="Path" fill="#8C3123" points="47.5406692 50.0400391 43.5645752 52.2912445 43.5645752 91.8019295 47.5406692 94.0400391 47.5645752 94.0075161 47.5645752 50.071033 47.5406692 50.0400391"></polyline>
                            <polyline id="Path" fill="#E05243" points="71.5645752 88.3052924 47.5645752 94.0400391 47.5645752 50.0400391 71.5645752 55.6497183 71.5645752 88.3052924"></polyline>
                            <polyline id="Path" fill="#8C3123" points="61.5645752 78.7418635 71.4470026 80.0400391 71.5090606 79.8923607 71.5645752 63.1707279 71.4470026 63.0400391 61.5645752 64.3194825 61.5645752 78.7418635"></polyline>
                            <polyline id="Path" fill="#8C3123" points="71.5645752 88.3590374 94.5284299 94.0400391 94.5645752 93.9813426 94.5639336 50.0793162 94.5275744 50.0400391 71.5645752 55.712531 71.5645752 88.3590374"></polyline>
                            <polyline id="Path" fill="#E05243" points="81.5645752 78.7418635 71.5645752 80.0400391 71.5645752 63.0400391 81.5645752 64.3194825 81.5645752 78.7418635"></polyline>
                            <polyline id="Path" fill="#5E1F18" points="81.5645752 57.3979824 71.563187 59.0400391 61.5645752 57.3979824 71.5505866 55.0400391 81.5645752 57.3979824"></polyline>
                            <polyline id="Path" fill="#F2B0A9" points="81.5645752 85.0246538 71.563187 83.0400391 61.5645752 85.0246538 71.5510139 88.0400391 81.5645752 85.0246538"></polyline>
                            <polyline id="Path" fill="#8C3123" points="61.5645752 57.0400391 71.4842734 54.5840356 71.5645752 54.5592341 71.5645752 38.1063889 71.4842734 38.0400391 61.5645752 43.003132 61.5645752 57.0400391"></polyline>
                            <polyline id="Path" fill="#E05243" points="81.5645752 57.0400391 71.5645752 54.5840356 71.5645752 38.0400391 81.5645752 43.003132 81.5645752 57.0400391"></polyline>
                            <polyline id="Path" fill="#8C3123" points="71.4195595 105.040039 61.5645752 100.078144 61.5645752 86.0400391 71.4195595 88.4954406 71.5645752 88.6614379 71.5252165 104.753625 71.4195595 105.040039"></polyline>
                            <path d="M70.5645752,105.040039 L80.8076611,100.006549 L80.8076611,85.7658882 L70.5645752,88.2567188 L70.5645752,105.040039 M94.0512466,50.0400391 L98.5645752,52.258173 L98.5645752,91.1884238 L94.0512466,93.4056969 L94.0512466,50.0400391" id="Shape" fill="#E05243"></path>
                        </g>
                    </g>
                </g>
            </g>
        </g>
    </g>
</svg>