<?xml version="1.0" encoding="UTF-8"?>
<svg width="144px" height="125px" viewBox="0 0 144 125" version="1.1" xmlns="http://www.w3.org/2000/svg" xmlns:xlink="http://www.w3.org/1999/xlink">
    <!-- Generator: Sketch 58 (84663) - https://sketch.com -->
    <title>icon</title>
    <desc>Created with Sketch.</desc>
    <defs>
        <path d="M119.85909,104.234719 L78.8249576,128.170897 C74.9414847,130.435713 70.1895501,130.490515 66.3587498,128.314655 L25.8795688,105.318516 C22.0487524,103.14197 19.7214395,99.0658913 19.7740277,94.624544 L20.3297652,47.6922479 C20.3823572,43.2508722 22.8068649,39.1193841 26.6902691,36.8545742 L67.7252047,12.9184219 C71.6085915,10.6529086 76.3605037,10.598101 80.1914092,12.7746598 L120.669771,35.7707931 C124.500721,37.9466529 126.828035,42.0233277 126.775436,46.4646821 L126.21969,93.3969889 C126.167104,97.8383433 123.742595,101.969225 119.85909,104.234719 L119.85909,104.234719 Z" id="path-1"></path>
        <mask id="mask-2" maskContentUnits="userSpaceOnUse" maskUnits="objectBoundingBox" x="-1" y="-1" width="109.004852" height="120.728928">
            <rect x="18.7723122" y="10.1799316" width="109.004852" height="120.728928" fill="white"></rect>
            <use xlink:href="#path-1" fill="black"></use>
        </mask>
    </defs>
    <g id="Landing-page-Webiny" stroke="none" stroke-width="1" fill="none" fill-rule="evenodd">
        <g id="Desktop-HD" transform="translate(-1060.000000, -4415.000000)">
            <g id="Serverless-Benefits" transform="translate(120.000000, 3881.000000)">
                <g id="group" transform="translate(28.841553, 237.951172)">
                    <g id="6" transform="translate(821.000000, 290.983887)">
                        <g id="icon" transform="translate(90.732788, 0.000000)">
                            <ellipse id="Ellipse-2-Copy" fill="#F2F2F2" cx="111.841807" cy="23.2430458" rx="10.0787458" ry="10.085331"></ellipse>
                            <rect id="Rectangle" fill="#F2F2F2" x="7.80273438" y="113.034668" width="70.5512085" height="14.9653301"></rect>
                            <ellipse id="Ellipse-Copy" stroke="#FA5A28" cx="125.333933" cy="39.9963665" rx="16.7437229" ry="16.7546673"></ellipse>
                            <ellipse id="Ellipse-3" stroke="#FA5A28" cx="24.7091808" cy="30.7248421" rx="24.7091808" ry="24.7253304"></ellipse>
                            <use id="path-1-path-Copy-9" stroke="#FA5A28" mask="url(#mask-2)" stroke-width="2" fill="#FFFFFF" stroke-dasharray="8,6" transform="translate(73.274738, 70.544395) rotate(-14.000000) translate(-73.274738, -70.544395) " xlink:href="#path-1"></use>
                            <polyline id="Path" fill="#634B1E" points="105.267212 64.441144 89.4927468 65.0161133 79.2672119 64.4422604 96.1807528 63.0161133 105.267212 64.441144"></polyline>
                            <polyline id="Path" fill="#D9A740" points="95.980298 64.1020269 105.267212 65.0161133 105.267212 46.5903602 95.980298 42.0161133 95.2672119 42.7744585 95.2672119 63.3179792 95.980298 64.1020269"></polyline>
                            <polyline id="Path" fill="#886A2A" points="79.2672119 46.5924649 96.2672119 42.0161133 96.2672119 64.1014538 79.2672119 65.0161133 79.2672119 46.5924649"></polyline>
                            <polyline id="Path" fill="#634B1E" points="41.2672119 64.484473 57.041677 65.0161133 67.2672119 64.4855052 50.4018945 63.0161133 41.2672119 64.484473"></polyline>
                            <polyline id="Path" fill="#886A2A" points="49.8710684 64.1311066 41.2672119 65.0161133 41.2672119 46.5731961 49.8710684 42.0161133 50.2672119 42.8010641 50.2672119 63.4421477 49.8710684 64.1311066"></polyline>
                            <polyline id="Path" fill="#D9A740" points="67.2672119 46.5924649 50.2672119 42.0161133 50.2672119 64.1014538 67.2672119 65.0161133 67.2672119 46.5924649"></polyline>
                            <g id="Group" transform="translate(79.267212, 74.016113)">
                                <polyline id="Path" fill="#FAD791" points="25.9949644 0.64680199 10.2332656 0.0104259429 0.0160062257 0.645566842 16.8423145 2.30246677 25.9949644 0.64680199"></polyline>
                                <polyline id="Path" fill="#D9A740" points="16.8793405 1.53417106 25.9949646 0.646802008 25.9949646 18.5337612 16.8793405 22.9743128 16.4005451 21.9587296 16.4005451 2.44673826 16.8793405 1.53417106"></polyline>
                                <polyline id="Path" fill="#886A2A" points="0.0160062257 18.5443854 16.8793409 22.9903716 16.8793409 1.53417117 0.0160062257 0.645566821 0.0160062257 18.5443854"></polyline>
                            </g>
                            <g id="Group" transform="translate(41.267212, 74.016113)">
                                <polyline id="Path" fill="#FAD791" points="0 0.646802064 15.7616988 0.0104259429 25.9789581 0.645566873 9.00530864 2.44599738 0 0.646802064"></polyline>
                                <polyline id="Path" fill="#886A2A" points="9.11562389 1.53417106 0 0.646802008 0 18.5337612 9.11562389 22.9743128 9.66821671 22.1739024 9.66821671 2.44599716 9.11562389 1.53417106"></polyline>
                                <polyline id="Path" fill="#D9A740" points="25.9789591 18.5443854 9.11562443 22.9903716 9.11562443 1.53417117 25.9789591 0.645566821 25.9789591 18.5443854"></polyline>
                            </g>
                            <g id="Group" transform="translate(55.267212, 31.016113)">
                                <polyline id="Path" fill="#634B1E" points="9.88658428 26.4114276 18.124981 24.9711323 34.5722854 27.2928953 35.9890013 28.1053505 28.0005105 28.9768524 9.88658428 26.4114276"></polyline>
                                <polyline id="Path" fill="#634B1E" points="26.1039764 26.4114276 17.8655791 24.9711323 0.710040693 27.6250029 0.00155752478 28.1053505 7.99004887 28.9768524 26.1039764 26.4114276"></polyline>
                                <polyline id="Path" fill="#FAD791" points="9.88658428 50.8947006 18.124981 52.3349953 34.5308009 50.0478642 35.9890013 49.2007786 28.0005105 48.329277 9.88658428 50.8947006"></polyline>
                                <polyline id="Path" fill="#FAD791" points="26.1039764 50.8947006 17.8655791 52.3349953 0.585087735 49.881686 0.00155752478 49.2007786 7.99004887 48.329277 26.1039764 50.8947006"></polyline>
                                <polyline id="Path" fill="#D9A740" points="35.989006 28.1053491 35.989006 19.1892722 27.563928 16.4424716 27.563928 4.77261783 17.9952808 0.00352419587 17.9952808 0.00377333878 17.5961811 0.637343774 17.5234585 76.0249991 17.9952808 76.9944147 27.563928 72.2253225 27.563928 60.8636564 35.989006 58.1168558 35.989006 49.2007765 27.563928 50.6794397 27.563928 26.626686 35.989006 28.1053491"></polyline>
                                <polyline id="Path" fill="#886A2A" points="8.42663416 4.77261783 8.42663416 16.4424716 0.00155752478 19.1892722 0.00155752478 28.1053491 8.42663416 26.626686 8.42663416 50.6794397 0.00155752478 49.2007765 0.00155752478 58.1168558 8.42663416 60.8636564 8.42663416 72.2253225 17.9952804 76.9944147 17.9952804 0.00352419587 8.42663416 4.77261783"></polyline>
                            </g>
                        </g>
                    </g>
                </g>
            </g>
        </g>
    </g>
</svg>