<?xml version="1.0" encoding="UTF-8"?>
<svg width="144px" height="124px" viewBox="0 0 144 124" version="1.1" xmlns="http://www.w3.org/2000/svg" xmlns:xlink="http://www.w3.org/1999/xlink">
    <!-- Generator: Sketch 58 (84663) - https://sketch.com -->
    <title>icon</title>
    <desc>Created with Sketch.</desc>
    <defs>
        <path d="M118.858968,104.234719 L77.8248355,128.170897 C73.9413626,130.435713 69.1894281,130.490515 65.3586278,128.314655 L24.8794467,105.318516 C21.0486303,103.14197 18.7213174,99.0658913 18.7739057,94.624544 L19.3296431,47.6922479 C19.3822352,43.2508722 21.8067429,39.1193841 25.690147,36.8545742 L66.7250826,12.9184219 C70.6084694,10.6529086 75.3603816,10.598101 79.1912872,12.7746598 L119.669649,35.7707931 C123.500599,37.9466529 125.827913,42.0233277 125.775314,46.4646821 L125.219568,93.3969889 C125.166982,97.8383433 122.742473,101.969225 118.858968,104.234719 L118.858968,104.234719 Z" id="path-1"></path>
        <mask id="mask-2" maskContentUnits="userSpaceOnUse" maskUnits="objectBoundingBox" x="-1" y="-1" width="109.004852" height="120.728928">
            <rect x="17.7721901" y="10.1799316" width="109.004852" height="120.728928" fill="white"></rect>
            <use xlink:href="#path-1" fill="black"></use>
        </mask>
    </defs>
    <g id="Landing-page-Webiny" stroke="none" stroke-width="1" fill="none" fill-rule="evenodd">
        <g id="Desktop-HD" transform="translate(-645.000000, -4416.000000)">
            <g id="Serverless-Benefits" transform="translate(120.000000, 3881.000000)">
                <g id="group" transform="translate(28.841553, 237.951172)">
                    <g id="5" transform="translate(407.000000, 290.915039)">
                        <g id="icon" transform="translate(89.885132, 0.000000)">
                            <ellipse id="Ellipse-3" stroke="#FA5A28" cx="24.7091808" cy="31.7253304" rx="24.7091808" ry="24.7253304"></ellipse>
                            <ellipse id="Ellipse-Copy" stroke="#FA5A28" cx="125.334055" cy="40.9968548" rx="16.7437229" ry="16.7546673"></ellipse>
                            <rect id="Rectangle" fill="#F2F2F2" x="7.80273438" y="114.035156" width="70.5512085" height="14.9653301"></rect>
                            <ellipse id="Ellipse-2-Copy" fill="#F2F2F2" cx="111.841929" cy="24.2435341" rx="10.0787458" ry="10.085331"></ellipse>
                            <use id="path-1-path-Copy-8" stroke="#FA5A28" mask="url(#mask-2)" stroke-width="2" fill="#FFFFFF" stroke-dasharray="8,6" transform="translate(72.274616, 70.544395) rotate(-14.000000) translate(-72.274616, -70.544395) " xlink:href="#path-1"></use>
                            <polygon id="Path" fill="#5E1F18" points="84.1284063 62.0156509 99.2507489 60.0849609 107.086515 62.0324689 107.114868 62.0532618 92.667899 63.0849609 84.1148682 62.0324689"></polygon>
                            <polyline id="Path" fill="#8C3123" points="84.1148682 62.0849609 99.0119545 60.9155107 99.1143648 60.765568 99.1148682 42.2960941 99.0124578 42.0849609 84.1148682 45.9781554 84.1148682 62.0849609"></polyline>
                            <polyline id="Path" fill="#E05243" points="107.114868 62.0849609 99.1148682 60.8990979 99.115387 42.0849609 107.114609 45.9825939 107.114868 62.0849609"></polyline>
                            <polyline id="Path" fill="#F2B0A9" points="84.1148682 75.9455625 84.3358231 76.0968167 99.2404438 77.0849609 106.845379 76.0968167 107.114868 75.9523015 92.6679943 75.0849609 84.1148682 75.9455625"></polyline>
                            <polyline id="Path" fill="#8C3123" points="84.1148682 76.0849609 99.0686537 77.2004473 99.1148682 77.2627424 99.1035036 95.9872129 99.0666331 96.0849609 84.1148682 92.2168436 84.1148682 76.0849609"></polyline>
                            <polyline id="Path" fill="#E05243" points="107.114868 76.0849609 99.1169437 77.1939892 99.1148682 96.0849609 107.114868 92.2069087 107.114868 76.0849609"></polyline>
                            <g id="Group" transform="translate(41.114868, 41.084961)">
                                <polygon id="Path" fill="#5E1F18" points="22.9174922 21.0350695 7.86614682 19.7006569 0.0501454342 21.0435859 0.000514312182 21.0837726 14.54449 21.98172 22.9982388 21.0832403 22.9174922 21.0353356"></polygon>
                                <polyline id="Path" fill="#8C3123" points="0.000514312182 21.0835066 7.85843287 19.8928087 8.0896161 19.7232791 8.0896161 0.242028937 7.85843287 0.0144815575 0.000514312182 4.12124626 0.000514312182 21.0835066"></polyline>
                                <polyline id="Path" fill="#E05243" points="22.9982404 21.0829744 7.85843277 19.8928089 7.85843277 0.0144815575 22.999012 4.11219761 22.9982404 21.0829744"></polyline>
                            </g>
                            <g id="Group" transform="translate(41.114868, 75.084961)">
                                <polyline id="Path" fill="#F2B0A9" points="22.9982395 0.939806907 22.6508221 1.20234337 7.85843236 2.3519068 0.250984339 1.20234337 6.21724894e-15 0.939806907 14.5444905 0.0135994172 22.9982395 0.939806907"></polyline>
                                <polyline id="Path" fill="#8C3123" points="0 0.939806879 7.85817532 2.09656662 8.05798554 2.35030749 8.07932949 21.6295479 7.85843248 21.9832391 0.00051431214 17.9028626 0 0.939806879"></polyline>
                                <polyline id="Path" fill="#E05243" points="22.9982395 0.939806879 7.85817528 2.09656662 7.85843243 21.9832391 22.9982395 17.9119249 22.9982395 0.939806879"></polyline>
                            </g>
                            <g id="Group" transform="translate(58.114868, 77.084961)">
                                <polyline id="Path" fill="#F2B0A9" points="31.976216 1.5590218 16.0729046 0.0046489574 0.0110899303 1.55927979 0.237525299 1.74886898 15.9945637 4.22952012 31.7495212 1.74886898 31.976216 1.5590218"></polyline>
                                <polyline id="Path" fill="#8C3123" points="0.0110899303 1.5592798 15.9945633 3.88026355 16.1567116 4.09513103 16.1772734 31.6846046 15.9945633 31.9905275 0.0110899303 24.0700869 0.0110899303 1.5592798"></polyline>
                                <polyline id="Path" fill="#E05243" points="31.9762166 1.55902183 15.9945641 3.88026329 15.9945641 31.990527 31.9764767 24.0700865 31.9762166 1.55902183"></polyline>
                            </g>
                            <g id="Group" transform="translate(58.114868, 29.084961)">
                                <polygon id="Path" fill="#5E1F18" points="16.0729063 31.9995995 0.0110899303 30.4612387 0.0524729485 30.4377425 15.9937836 27.9843178 31.9280678 30.4434227 31.9764773 30.4612387"></polygon>
                                <polyline id="Path" fill="#8C3123" points="0.0110899303 30.4612389 15.994564 28.1505993 16.0710837 28.0814019 16.0356865 0.0426031329 15.994564 0 0.0110899303 7.92908803 0.0110899303 30.4612389"></polyline>
                                <polyline id="Path" fill="#E05243" points="31.9764767 30.4612389 15.9945641 28.1505993 15.9945641 0 31.9764767 7.92908803 31.9764767 30.4612389"></polyline>
                            </g>
                        </g>
                    </g>
                </g>
            </g>
        </g>
    </g>
</svg>