<?xml version="1.0" encoding="UTF-8"?>
<svg width="144px" height="126px" viewBox="0 0 144 126" version="1.1" xmlns="http://www.w3.org/2000/svg" xmlns:xlink="http://www.w3.org/1999/xlink">
    <!-- Generator: Sketch 58 (84663) - https://sketch.com -->
    <title>icon</title>
    <desc>Created with Sketch.</desc>
    <defs>
        <path d="M117.85909,104.234719 L76.8249576,128.170897 C72.9414847,130.435713 68.1895501,130.490515 64.3587498,128.314655 L23.8795688,105.318516 C20.0487524,103.14197 17.7214395,99.0658913 17.7740277,94.624544 L18.3297652,47.6922479 C18.3823572,43.2508722 20.8068649,39.1193841 24.6902691,36.8545742 L65.7252047,12.9184219 C69.6085915,10.6529086 74.3605037,10.598101 78.1914092,12.7746598 L118.669771,35.7707931 C122.500721,37.9466529 124.828035,42.0233277 124.775436,46.4646821 L124.21969,93.3969889 C124.167104,97.8383433 121.742595,101.969225 117.85909,104.234719 L117.85909,104.234719 Z" id="path-1"></path>
        <mask id="mask-2" maskContentUnits="userSpaceOnUse" maskUnits="objectBoundingBox" x="-1" y="-1" width="109.004852" height="120.728928">
            <rect x="16.7723122" y="10.1799316" width="109.004852" height="120.728928" fill="white"></rect>
            <use xlink:href="#path-1" fill="black"></use>
        </mask>
    </defs>
    <g id="Landing-page-Webiny" stroke="none" stroke-width="1" fill="none" fill-rule="evenodd">
        <g id="Desktop-HD" transform="translate(-241.000000, -4123.000000)">
            <g id="Serverless-Benefits" transform="translate(120.000000, 3881.000000)">
                <g id="group" transform="translate(28.841553, 237.951172)">
                    <g id="1">
                        <g id="icon" transform="translate(93.000000, 0.000000)">
                            <ellipse id="Ellipse-2-Copy" fill="#F2F2F2" cx="111.841685" cy="22.2435341" rx="10.0787458" ry="10.085331"></ellipse>
                            <ellipse id="Ellipse-Copy" stroke="#FA5A28" cx="125.334055" cy="38.9968548" rx="16.7437229" ry="16.7546673"></ellipse>
                            <ellipse id="Ellipse-3" stroke="#FA5A28" cx="24.7091808" cy="29.7253304" rx="24.7091808" ry="24.7253304"></ellipse>
                            <rect id="Rectangle" fill="#F2F2F2" x="7.80285645" y="112.035156" width="70.5512085" height="14.9653301"></rect>
                            <use id="path-1-path-Copy-4" stroke="#FA5A28" mask="url(#mask-2)" stroke-width="2" fill="#FFFFFF" stroke-dasharray="8,6" transform="translate(71.274738, 70.544395) rotate(-14.000000) translate(-71.274738, -70.544395) " xlink:href="#path-1"></use>
                            <path d="M54.4653764,83.8875275 L47.4112444,86.9375237 L53.9442119,89.7496758 L61.5195084,86.9375237 L54.4653764,83.8875275 Z M43.8598907,87.7000198 L43.6235256,101.425005 L53.9441414,106 L53.9441414,91.7505026 L43.8598907,87.7000198 L43.8598907,87.7000198 Z M65.0707893,87.7000198 L55.7439995,91.2746001 L55.7439995,104.71299 L65.0707893,100.900494 L65.0707893,87.7000198 Z M76.1973704,45 L69.0947342,48.0500675 L75.6761349,50.8621483 L83.2514305,48.0500675 L76.1973704,45 L76.1973704,45 Z M66.3494835,49.0519791 L66.3494835,62.776963 L75.1550388,65.3511276 L75.4398384,52.8644033 L66.3494835,49.0519791 L66.3494835,49.0519791 Z M86.0453949,49.8144073 L77.7124977,53.3890584 L77.7124977,66.8761978 L86.0453949,63.063702 L86.0453949,49.8144073 L86.0453949,49.8144073 Z M42.841779,64.317215 L35.787648,67.3672112 L42.3206146,70.1793633 L49.89591,67.3672112 L42.841779,64.317215 L42.841779,64.317215 Z M32.2363651,68.1297092 L32,81.8547647 L42.3206148,86.42976 L42.3206148,72.1801206 L32.2363651,68.1297092 Z M53.4472656,68.1297092 L44.1205444,71.7042889 L44.1205444,85.1426048 L53.4472656,81.3301093 L53.4472656,68.1297092 Z M65.5677395,63.8108768 L58.513607,66.8608731 L65.046575,69.6730251 L72.6218719,66.8608731 L65.5677395,63.8108768 Z M54.9622524,67.6234436 L54.7258873,81.3484287 L65.0465012,85.9234238 L65.0465012,71.6753519 L54.9622524,67.6234436 Z M76.1731529,67.6234436 L66.8464317,71.1980228 L66.8464317,84.6363373 L76.1731529,80.8238422 L76.1731529,67.6234436 Z M98.3945856,45 L91.3405266,48.0499963 L97.873492,50.8620772 L105.448715,48.0499963 L98.3945856,45 Z M87.7891011,48.8124955 L87.5528069,62.5374792 L97.8734207,67.1124737 L97.8734207,52.8644034 L87.7891011,48.8124955 Z M109,48.8124955 L99.6732788,52.3870751 L99.6732788,65.8253911 L109,62.0128956 L109,48.8124955 Z" id="Shape" fill="#F7A80D"></path>
                        </g>
                    </g>
                </g>
            </g>
        </g>
    </g>
</svg>