<?xml version="1.0" encoding="UTF-8"?>
<svg width="144px" height="125px" viewBox="0 0 144 125" version="1.1" xmlns="http://www.w3.org/2000/svg" xmlns:xlink="http://www.w3.org/1999/xlink">
    <!-- Generator: Sketch 58 (84663) - https://sketch.com -->
    <title>icon</title>
    <desc>Created with Sketch.</desc>
    <defs>
        <path d="M117.859212,104.234719 L76.8250797,128.170897 C72.9416068,130.435713 68.1896722,130.490515 64.3588719,128.314655 L23.8796909,105.318516 C20.0488744,103.14197 17.7215615,99.0658913 17.7741498,94.624544 L18.3298872,47.6922479 C18.3824793,43.2508722 20.806987,39.1193841 24.6903911,36.8545742 L65.7253267,12.9184219 C69.6087135,10.6529086 74.3606258,10.598101 78.1915313,12.7746598 L118.669893,35.7707931 C122.500843,37.9466529 124.828157,42.0233277 124.775558,46.4646821 L124.219812,93.3969889 C124.167226,97.8383433 121.742717,101.969225 117.859212,104.234719 L117.859212,104.234719 Z" id="path-1"></path>
        <mask id="mask-2" maskContentUnits="userSpaceOnUse" maskUnits="objectBoundingBox" x="-1" y="-1" width="109.004852" height="120.728928">
            <rect x="16.7724342" y="10.1799316" width="109.004852" height="120.728928" fill="white"></rect>
            <use xlink:href="#path-1" fill="black"></use>
        </mask>
    </defs>
    <g id="Landing-page-Webiny" stroke="none" stroke-width="1" fill="none" fill-rule="evenodd">
        <g id="Desktop-HD" transform="translate(-1060.000000, -4128.000000)">
            <g id="Serverless-Benefits" transform="translate(120.000000, 3881.000000)">
                <g id="group" transform="translate(28.841553, 237.951172)">
                    <g id="3" transform="translate(821.000000, 3.914551)">
                        <g id="icon" transform="translate(90.884888, 0.000000)">
                            <ellipse id="Ellipse-2-Copy" fill="#F2F2F2" cx="111.842052" cy="23.2440224" rx="10.0787458" ry="10.085331"></ellipse>
                            <rect id="Rectangle" fill="#F2F2F2" x="7.80297852" y="113.035645" width="70.5512085" height="14.9653301"></rect>
                            <ellipse id="Ellipse-Copy" stroke="#FA5A28" cx="125.334177" cy="39.9973431" rx="16.7437229" ry="16.7546673"></ellipse>
                            <ellipse id="Ellipse-3" stroke="#FA5A28" cx="24.7091808" cy="30.7258186" rx="24.7091808" ry="24.7253304"></ellipse>
                            <use id="path-1-path-Copy-6" stroke="#FA5A28" mask="url(#mask-2)" stroke-width="2" fill="#FFFFFF" stroke-dasharray="8,6" transform="translate(71.274860, 70.544395) rotate(-14.000000) translate(-71.274860, -70.544395) " xlink:href="#path-1"></use>
                            <path d="M90.2132492,48.66459 L96.081599,47.1342773 L96.1253196,47.1995393 L96.2735596,83.0837121 L96.081599,83.2788064 L94.8724517,83.3311539 L90.282018,82.6075061 L90.2132492,82.4244054 L90.2132492,48.66459 M56.2735596,85.7716789 L56.2951921,85.7732932 L71.7857113,90.3317155 L71.825105,90.362386 L71.8925076,90.4168098 L71.8706476,104.076164 L71.825105,104.134277 L56.2735596,96.4831757 L56.2735596,85.7716789" id="Shape" fill="#7A3E65"></path>
                            <polyline id="Path" fill="#CFB2C1" points="90.3769126 82.1342773 71.9257238 86.6225696 62.6616892 84.3512316 56.2735596 85.5077014 71.9000974 90.1342773 96.0177507 83.5020072 96.2735596 82.9953545 90.3769126 82.1342773"></polyline>
                            <polyline id="Path" fill="#512843" points="87.2735596 53.7556224 87.1232319 53.584681 71.8149686 49.1479709 71.6470218 49.2125588 71.4932632 49.1342773 47.405125 56.0625286 47.2735596 56.2229714 47.4669035 56.32864 52.9754895 57.1342773 53.1702065 57.0683203 71.6213965 52.661051 80.8854294 54.8915019 87.2735596 53.7556224"></polyline>
                            <polyline id="Path" fill="#C17B9E" points="53.2735596 90.7016108 47.5105988 92.1342773 47.5005358 92.0999644 47.2735596 56.3981958 47.5105988 56.1342773 53.2735596 56.9872914 53.2735596 90.7016108"></polyline>
                            <polyline id="Path" fill="#7A3E65" points="61.2735596 76.8786839 72.1476883 78.1342773 72.2293156 78.0143315 72.2735596 61.2714586 72.1476883 61.1342773 61.2735596 62.3901034 61.2735596 76.8786839"></polyline>
                            <path d="M81.3680029,76.8865887 L71.2735596,78.1342773 L71.2735596,61.2413044 L81.3680029,62.4892241 L81.3680029,76.8865887 M86.2735596,53.562849 L71.2735596,48.9558215 L71.2735596,35.1342773 L86.2735596,42.8127334 L86.2735596,53.562849" id="Shape" fill="#C17B9E"></path>
                            <polyline id="Path" fill="#7A3E65" points="72.2735596 35.1342773 42.2735596 49.4081853 42.2735596 89.8349479 47.3072313 92.1342773 47.3072313 56.0248227 72.2735596 48.9293313 72.2735596 35.1342773"></polyline>
                            <polyline id="Path" fill="#C17B9E" points="96.2398883 47.1342773 96.2398883 83.2788075 71.2735596 90.3623856 71.2735596 104.134277 101.27356 89.8841041 101.27356 49.5252181 96.2398883 47.1342773"></polyline>
                        </g>
                    </g>
                </g>
            </g>
        </g>
    </g>
</svg>