<svg width="144" height="144" viewBox="0 0 144 144" fill="none" xmlns="http://www.w3.org/2000/svg">
<path fill-rule="evenodd" clip-rule="evenodd" d="M102.49 25.1097C102.49 19.5398 107.002 15.0244 112.568 15.0244C118.135 15.0244 122.647 19.5398 122.647 25.1097C122.647 30.6797 118.135 35.1951 112.568 35.1951C107.002 35.1951 102.49 30.6797 102.49 25.1097Z" fill="#F2F2F2"/>
<rect x="8.52942" y="114.901" width="70.5512" height="14.9653" rx="7.48267" fill="#F2F2F2"/>
<path fill-rule="evenodd" clip-rule="evenodd" d="M109.317 41.8631C109.317 32.6097 116.813 25.1084 126.061 25.1084C135.308 25.1084 142.804 32.6097 142.804 41.8631C142.804 51.1164 135.308 58.6177 126.061 58.6177C116.813 58.6177 109.317 51.1164 109.317 41.8631Z" stroke="#FA5A28"/>
<path fill-rule="evenodd" clip-rule="evenodd" d="M0.72644 32.5915C0.72644 18.9361 11.7891 7.86621 25.4356 7.86621C39.0821 7.86621 50.1448 18.9361 50.1448 32.5915C50.1448 46.247 39.0821 57.3169 25.4356 57.3169C11.7891 57.3169 0.72644 46.247 0.72644 32.5915Z" stroke="#FA5A28"/>
<path d="M79.2666 130.137L79.1322 130.619L74.8617 129.427L74.9962 128.945L68.5904 127.156L68.456 127.638L59.915 125.253L60.0495 124.772L53.6438 122.983L53.5093 123.465L44.9683 121.08L45.1028 120.598L38.6971 118.81L38.5626 119.291L34.2921 118.099L34.4266 117.617L34.2921 118.099C33.0357 117.748 31.863 117.211 30.8035 116.519L31.077 116.1C29.5281 115.088 28.2317 113.73 27.2872 112.13L26.8566 112.384C26.215 111.297 25.7296 110.104 25.4288 108.833L24.3988 104.483L24.8853 104.368L23.3404 97.8435L22.8538 97.9587L20.7939 89.2592L21.2804 89.144L19.7355 82.6193L19.2489 82.7345L17.189 74.035L17.6755 73.9198L16.1306 67.3951L15.644 67.5103L14.614 63.1605C14.3102 61.8774 14.2078 60.5714 14.2943 59.2846L14.7932 59.3182C14.9191 57.4452 15.4611 55.6134 16.3782 53.9623L15.9411 53.7195C16.5649 52.5965 17.3556 51.554 18.3014 50.6327L79.2666 130.137ZM79.2666 130.137L79.1322 130.619C80.3963 130.972 81.6903 131.121 82.9718 131.078L82.955 130.579C84.8158 130.516 86.6503 130.032 88.3184 129.162L88.5495 129.605C89.679 129.017 90.7347 128.258 91.6767 127.34L91.3278 126.982L91.6767 127.34L94.9171 124.183L94.5682 123.825L99.4289 119.089L99.7778 119.447L106.259 113.132L105.91 112.774L110.77 108.038L111.119 108.396L117.6 102.081L117.251 101.723L122.112 96.9873L122.461 97.3454L125.701 94.188C126.647 93.2666 127.438 92.224 128.061 91.1011L127.624 90.8583C128.541 89.2072 129.084 87.3755 129.209 85.5025L129.708 85.5361C129.795 84.2493 129.692 82.9433 129.389 81.6601L128.359 77.3104L127.872 77.4256L126.327 70.9009L126.814 70.7857L124.754 62.0861L124.267 62.2014L122.722 55.6767L123.209 55.5615L121.149 46.8619L120.662 46.9771L119.117 40.4525L119.604 40.3373L118.574 35.9875C118.273 34.7171 117.788 33.5233 117.146 32.4364L116.716 32.6905C115.771 31.0904 114.475 29.7323 112.926 28.7203L113.199 28.3017C112.14 27.6094 110.967 27.0727 109.71 26.722L105.44 25.5295L105.306 26.0111L98.9 24.2225L99.0345 23.7409L90.4937 21.3561L90.3592 21.8376L83.9536 20.049L84.088 19.5674L75.5472 17.1826L75.4128 17.6642L69.0072 15.8755L69.1416 15.3939L64.8712 14.2015C63.6072 13.8485 62.3131 13.699 61.0316 13.7419L61.0483 14.2417C59.1874 14.3039 57.353 14.7883 55.6848 15.6582L55.4536 15.2148C54.3242 15.8038 53.2685 16.5625 52.3267 17.4803L49.0862 20.6377L49.4351 20.9958L44.5744 25.7319L44.2254 25.3737L37.7444 31.6885L38.0933 32.0466L33.2326 36.7827L32.8836 36.4245L26.4026 42.7393L26.7516 43.0974L21.8908 47.8335L21.5419 47.4753L18.3014 50.6327L79.2666 130.137Z" fill="white" stroke="#FA5A28" stroke-dasharray="8 6"/>
<path fill-rule="evenodd" clip-rule="evenodd" d="M90.9397 50.5303L96.808 49L96.8518 49.0653L97 84.9494L96.808 85.1445L95.5989 85.1969L91.0085 84.4732L90.9397 84.2901V50.5303ZM57 87.6374L57.0216 87.639L72.5122 92.1974L72.5515 92.2281L72.6189 92.2825L72.5971 105.942L72.5515 106L57 98.3489V87.6374Z" fill="#7A3E65"/>
<path fill-rule="evenodd" clip-rule="evenodd" d="M91.1034 84L72.6522 88.4883L63.3881 86.217L57 87.3734L72.6265 92L96.7442 85.3677L97 84.8611L91.1034 84" fill="#CFB2C1"/>
<path fill-rule="evenodd" clip-rule="evenodd" d="M88 55.6213L87.8497 55.4504L72.5414 51.0137L72.3735 51.0783L72.2197 51L48.1316 57.9283L48 58.0887L48.1933 58.1944L53.7019 59L53.8966 58.934L72.3478 54.5268L81.6119 56.7572L88 55.6213Z" fill="#512843"/>
<path fill-rule="evenodd" clip-rule="evenodd" d="M54 92.5673L48.237 94L48.227 93.9657L48 58.2639L48.237 58L54 58.853V92.5673Z" fill="#C17B9E"/>
<path fill-rule="evenodd" clip-rule="evenodd" d="M62 78.7444L72.8741 80L72.9558 79.8801L73 63.1372L72.8741 63L62 64.2558V78.7444" fill="#7A3E65"/>
<path fill-rule="evenodd" clip-rule="evenodd" d="M82.0944 78.7523L72 80V63.107L82.0944 64.3549V78.7523ZM87 55.4286L72 50.8215V37L87 44.6785V55.4286Z" fill="#C17B9E"/>
<path fill-rule="evenodd" clip-rule="evenodd" d="M73 37L43 51.2739V91.7007L48.0337 94V57.8905L73 50.7951V37Z" fill="#7A3E65"/>
<path fill-rule="evenodd" clip-rule="evenodd" d="M96.9663 49V85.1445L72 92.2281V106L102 91.7498V51.3909L96.9663 49Z" fill="#C17B9E"/>
</svg>
