<svg width="121" height="97" viewBox="0 0 121 97" fill="none" xmlns="http://www.w3.org/2000/svg">
<path fill-rule="evenodd" clip-rule="evenodd" d="M106.9 40.9233C101.506 40.9248 96.6411 37.6749 94.5756 32.6894C92.5101 27.7038 93.6503 21.9644 97.4645 18.1478C101.279 14.3312 107.016 13.189 112 15.254C116.984 17.3189 120.234 22.1842 120.234 27.581C120.225 34.9446 114.262 40.9124 106.9 40.9233H106.9ZM106.9 14.45C99.6508 14.4499 93.7739 20.3289 93.7739 27.5811C93.7739 34.8332 99.6508 40.7122 106.9 40.7122C114.15 40.7122 120.027 34.8332 120.027 27.5811C120.019 20.3322 114.146 14.4578 106.9 14.4499L106.9 14.45Z" fill="#F94F24"/>
<path fill-rule="evenodd" clip-rule="evenodd" d="M19.4804 37.8341C10.5923 35.5774 4.53895 27.3495 5.02757 18.1893C5.51618 9.02897 12.4104 1.49221 21.4881 0.19453C30.5659 -1.10315 39.2943 4.20033 42.328 12.8571L42.1276 12.9269C39.1277 4.36506 30.4954 -0.88057 21.5173 0.402482C12.5392 1.68554 5.72047 9.13927 5.23695 18.1989C4.75343 27.2586 10.7401 35.3962 19.5305 37.6283L19.4804 37.8341Z" fill="#F94F24"/>
<path fill-rule="evenodd" clip-rule="evenodd" d="M114.694 65.9301C114.694 70.8552 110.703 74.8477 105.78 74.8477C100.856 74.8477 96.8652 70.8552 96.8652 65.9301C96.8652 61.0051 100.856 57.0126 105.78 57.0126C110.703 57.0126 114.694 61.0051 114.694 65.9301Z" fill="#F2F2F2"/>
<path fill-rule="evenodd" clip-rule="evenodd" d="M20.3573 15.5973C20.358 17.5675 19.1722 19.3439 17.3529 20.0983C15.5336 20.8527 13.4392 20.4364 12.0465 19.0435C10.6537 17.6507 10.2369 15.5557 10.9904 13.7355C11.7439 11.9153 13.5193 10.7285 15.4887 10.7286C18.1769 10.7286 20.3563 12.9081 20.3573 15.5973Z" fill="#F2F2F2"/>
<rect x="0.128662" y="48.8713" width="62.656" height="15.1287" rx="7.56436" fill="#F2F2F2"/>
<path fill-rule="evenodd" clip-rule="evenodd" d="M92.3193 18.9749C90.6831 18.9749 89.0772 19.1567 87.5016 19.4597C78.1995 6.03676 59.8074 2.70376 46.3845 12.0059C40.5063 16.0964 36.2946 22.1564 34.5675 29.0951C33.9312 29.0345 33.2949 29.0042 32.6283 29.0042C22.4475 28.883 14.0847 37.0034 13.9635 47.1842C13.8423 57.365 21.9627 65.7278 32.1435 65.849C32.295 65.849 32.4465 65.849 32.6283 65.849H92.3496C105.288 65.6975 115.681 55.0925 115.529 42.1544C115.347 29.3981 105.045 19.1264 92.3193 18.9749Z" fill="url(#paint0_linear)"/>
<mask id="mask0" mask-type="alpha" maskUnits="userSpaceOnUse" x="13" y="6" width="103" height="60">
<path fill-rule="evenodd" clip-rule="evenodd" d="M92.3193 18.9749C90.6831 18.9749 89.0772 19.1567 87.5016 19.4597C78.1995 6.03676 59.8074 2.70376 46.3845 12.0059C40.5063 16.0964 36.2946 22.1564 34.5675 29.0951C33.9312 29.0345 33.2949 29.0042 32.6283 29.0042C22.4475 28.883 14.0847 37.0034 13.9635 47.1842C13.8423 57.365 21.9627 65.7278 32.1435 65.849C32.295 65.849 32.4465 65.849 32.6283 65.849H92.3496C105.288 65.6975 115.681 55.0925 115.529 42.1544C115.347 29.3981 105.045 19.1264 92.3193 18.9749Z" fill="white"/>
</mask>
<g mask="url(#mask0)">
</g>
<path opacity="0.5" fill-rule="evenodd" clip-rule="evenodd" d="M32.5979 31.8524C33.2342 31.8524 33.9008 31.8827 34.5371 31.9433C38.5064 16.1267 54.5654 6.49127 70.382 10.4909C77.3207 12.2483 83.411 16.4297 87.4712 22.3382C89.0468 22.0049 90.683 21.8534 92.3192 21.8534C104.682 21.8534 114.893 31.4585 115.711 43.7603C115.741 43.2452 115.771 42.7301 115.771 42.215C115.771 29.2769 105.288 18.7628 92.3192 18.7628C90.683 18.7628 89.0771 18.9446 87.4712 19.2476C78.1691 5.82467 59.777 2.49167 46.3541 11.7938C40.4759 15.8843 36.2642 21.9443 34.5068 28.883C24.3866 27.8225 15.3269 35.1248 14.2664 45.245C14.2058 45.9116 14.1755 46.5479 14.1755 47.2145C14.1755 47.7296 14.2058 48.2447 14.2361 48.7295C15.0542 39.185 23.0231 31.8524 32.5979 31.8524Z" fill="#EAD8FF"/>
<path fill-rule="evenodd" clip-rule="evenodd" d="M82.1176 79.466C91.7941 69.8022 91.7941 54.1341 82.1176 44.4703C72.4411 34.8065 56.7525 34.8065 47.076 44.4703C37.3995 54.1341 37.3995 69.8022 47.076 79.466C56.7525 89.1298 72.4411 89.1298 82.1176 79.466Z" fill="url(#paint1_linear)"/>
<g style="mix-blend-mode:multiply">
<path fill-rule="evenodd" clip-rule="evenodd" d="M89.3216 65.816C89.8092 62.8759 90.6831 58.983 89.0709 56.2559C88.9898 56.1156 88.9837 55.9432 89.0547 55.7974C89.1256 55.6515 89.264 55.552 89.4228 55.5326C87.1346 52.9058 83.8494 51.404 80.4003 51.4079C79.5642 51.408 78.7303 51.4959 77.9119 51.6701C74.5095 46.6715 68.5485 44.1612 62.6708 45.2517C56.7931 46.3423 52.0858 50.832 50.6352 56.7311C50.3086 56.6983 49.9752 56.6796 49.6394 56.6796C46.2135 56.6253 43.0249 58.4545 41.2964 61.4655C39.5679 64.4765 39.5679 68.2019 41.2964 71.2129C43.0249 74.224 46.2135 76.0531 49.6394 75.9988H80.4003C83.0038 75.9988 85.0668 75.2966 86.9964 73.3349C88.1244 70.9562 88.9076 68.4235 89.3216 65.816Z" fill="#EBEBEB"/>
</g>
<path fill-rule="evenodd" clip-rule="evenodd" d="M78.7714 50.4125C77.9254 50.4126 77.0816 50.5005 76.2535 50.6747C72.8087 45.6747 66.7733 43.1624 60.8209 44.2507C54.8686 45.3389 50.0994 49.8266 48.6262 55.7257C45.0885 55.3487 41.633 56.9667 39.6436 59.9317C37.6542 62.8966 37.4562 66.7237 39.129 69.8801C40.8018 73.0365 44.0718 75.0061 47.6293 75H78.7714C85.5251 75 91 69.4959 91 62.7062C91 55.9166 85.5251 50.4125 78.7714 50.4125Z" fill="url(#paint2_linear)"/>
<path d="M53.5705 64.04L53.3785 64.76H55.0465L54.8665 64.04C54.7545 63.648 54.6465 63.232 54.5425 62.792C54.4385 62.352 54.3345 61.928 54.2305 61.52H54.1825C54.0865 61.936 53.9865 62.364 53.8825 62.804C53.7865 63.236 53.6825 63.648 53.5705 64.04ZM50.7385 68L53.1865 60.176H55.3105L57.7585 68H55.8865L55.4065 66.14H53.0185L52.5385 68H50.7385ZM58.6135 68V60.176H61.3015C61.7335 60.176 62.1375 60.22 62.5135 60.308C62.8895 60.388 63.2175 60.528 63.4975 60.728C63.7775 60.92 63.9975 61.18 64.1575 61.508C64.3255 61.828 64.4095 62.224 64.4095 62.696C64.4095 63.152 64.3255 63.548 64.1575 63.884C63.9975 64.22 63.7775 64.496 63.4975 64.712C63.2175 64.928 62.8935 65.088 62.5255 65.192C62.1575 65.296 61.7655 65.348 61.3495 65.348H60.3775V68H58.6135ZM60.3775 63.944H61.2415C62.2015 63.944 62.6815 63.528 62.6815 62.696C62.6815 62.288 62.5535 62 62.2975 61.832C62.0415 61.664 61.6735 61.58 61.1935 61.58H60.3775V63.944ZM65.7619 68V60.176H68.4499C68.8819 60.176 69.2859 60.22 69.6619 60.308C70.0379 60.388 70.3659 60.528 70.6459 60.728C70.9259 60.92 71.1459 61.18 71.3059 61.508C71.4739 61.828 71.5579 62.224 71.5579 62.696C71.5579 63.152 71.4739 63.548 71.3059 63.884C71.1459 64.22 70.9259 64.496 70.6459 64.712C70.3659 64.928 70.0419 65.088 69.6739 65.192C69.3059 65.296 68.9139 65.348 68.4979 65.348H67.5259V68H65.7619ZM67.5259 63.944H68.3899C69.3499 63.944 69.8299 63.528 69.8299 62.696C69.8299 62.288 69.7019 62 69.4459 61.832C69.1899 61.664 68.8219 61.58 68.3419 61.58H67.5259V63.944ZM74.4011 68.144C74.0091 68.144 73.6051 68.068 73.1891 67.916C72.7811 67.764 72.4251 67.564 72.1211 67.316L72.9131 66.212C73.1851 66.42 73.4451 66.576 73.6931 66.68C73.9411 66.784 74.1931 66.836 74.4491 66.836C74.7131 66.836 74.9051 66.792 75.0251 66.704C75.1451 66.616 75.2051 66.492 75.2051 66.332C75.2051 66.236 75.1691 66.152 75.0971 66.08C75.0331 66 74.9411 65.928 74.8211 65.864C74.7091 65.8 74.5811 65.744 74.4371 65.696C74.2931 65.64 74.1451 65.58 73.9931 65.516C73.8091 65.444 73.6251 65.36 73.4411 65.264C73.2571 65.168 73.0891 65.052 72.9371 64.916C72.7851 64.772 72.6611 64.608 72.5651 64.424C72.4691 64.232 72.4211 64.012 72.4211 63.764C72.4211 63.492 72.4731 63.24 72.5771 63.008C72.6891 62.776 72.8451 62.58 73.0451 62.42C73.2451 62.26 73.4851 62.136 73.7651 62.048C74.0451 61.952 74.3571 61.904 74.7011 61.904C75.1571 61.904 75.5571 61.984 75.9011 62.144C76.2451 62.296 76.5451 62.468 76.8011 62.66L76.0091 63.716C75.7931 63.556 75.5811 63.432 75.3731 63.344C75.1651 63.256 74.9571 63.212 74.7491 63.212C74.3011 63.212 74.0771 63.368 74.0771 63.68C74.0771 63.776 74.1091 63.86 74.1731 63.932C74.2371 63.996 74.3211 64.056 74.4251 64.112C74.5371 64.168 74.6611 64.224 74.7971 64.28C74.9411 64.328 75.0891 64.38 75.2411 64.436C75.4331 64.508 75.6211 64.592 75.8051 64.688C75.9971 64.776 76.1691 64.888 76.3211 65.024C76.4811 65.16 76.6091 65.328 76.7051 65.528C76.8011 65.72 76.8491 65.952 76.8491 66.224C76.8491 66.496 76.7971 66.748 76.6931 66.98C76.5891 67.212 76.4331 67.416 76.2251 67.592C76.0171 67.76 75.7611 67.896 75.4571 68C75.1531 68.096 74.8011 68.144 74.4011 68.144Z" fill="#7B39D9"/>
<path fill-rule="evenodd" clip-rule="evenodd" d="M47.6118 57.2013C47.9487 57.2015 48.2854 57.2194 48.6205 57.2549C50.0922 51.3895 54.8622 46.927 60.8163 45.845C66.7704 44.7631 72.8073 47.262 76.2515 52.234C79.7206 51.5068 83.3347 52.3186 86.1586 54.4592C88.9825 56.5998 90.7385 59.859 90.972 63.393C90.9907 63.13 91 62.8623 91 62.5946C90.9986 58.9125 89.3363 55.4271 86.475 53.1068C83.6136 50.7865 79.858 49.8784 76.2515 50.6349C72.8062 45.6647 66.77 43.1674 60.8169 44.2492C54.8637 45.3309 50.094 49.7918 48.6205 55.6557C45.9132 55.3754 43.2137 56.2531 41.1899 58.0717C39.1661 59.8902 38.0072 62.4797 38 65.1993C38 65.4693 38.0116 65.7346 38.0349 66C38.4539 61.026 42.6162 57.2019 47.6118 57.2013Z" fill="#C4ECEC"/>
<g style="mix-blend-mode:multiply">
<path fill-rule="evenodd" clip-rule="evenodd" d="M97.9917 77.1521C97.9193 76.2819 97.8376 75.4116 97.7583 74.5414C97.7256 74.1799 97.5902 74.0661 97.2073 74.0572C96.5349 74.0394 95.8626 74.0148 95.1878 74.0037C94.9805 74.0289 94.7876 73.8979 94.7443 73.7024C94.6516 73.4163 94.5197 73.1432 94.3521 72.8902C93.9949 72.3725 93.6073 71.8749 93.2151 71.3818C93.1171 71.289 93.0884 71.1483 93.1427 71.027C93.2805 70.6901 93.4065 70.3576 93.5303 70.0051C93.6704 69.6213 93.8011 69.233 93.9342 68.847C93.9972 68.4744 93.6283 68.3293 93.1941 68.0995C92.4937 67.7581 91.812 67.4056 91.1116 67.0753C90.8035 66.9303 90.6447 66.995 90.4416 67.2672C90.0431 67.8444 89.6455 68.4238 89.2486 69.0054C89.199 69.1071 89.078 69.1578 88.9661 69.1237C87.8141 68.906 86.6253 68.9419 85.4899 69.2286C85.3931 69.2399 85.296 69.2088 85.2261 69.1438C84.6985 68.5926 84.1802 68.0281 83.6642 67.4725C83.4074 67.1958 83.2276 67.1757 82.9031 67.3966C82.1631 67.8942 81.4207 68.3918 80.6759 68.8805C80.3421 69.1036 80.2744 69.2977 80.4635 69.6347C80.7965 70.2297 81.1343 70.8247 81.4767 71.4197C81.5445 71.5185 81.5298 71.6493 81.4417 71.7321C81.1388 72.1008 80.8656 72.4909 80.6246 72.8991C80.3805 73.3876 80.1639 73.8881 79.9755 74.3986C79.9428 74.5171 79.8387 74.6051 79.7117 74.6217C78.974 74.7489 78.2409 74.8917 77.5055 75.0301C77.0503 75.1171 76.9756 75.2041 77.0059 75.6549C77.0666 76.5184 77.139 77.3797 77.1997 78.2432C77.2254 78.6159 77.3538 78.7475 77.746 78.7631C78.4464 78.7899 79.1631 78.8256 79.8705 78.8435C80.0456 78.8435 80.1039 78.9171 80.1646 79.0666C80.5708 80.1037 81.2081 81.044 82.0323 81.8223C82.0899 81.906 82.1061 82.0096 82.0767 82.1057C81.8432 82.8108 81.6098 83.5137 81.3763 84.2165C81.3144 84.3394 81.3124 84.4821 81.3709 84.6065C81.4295 84.7309 81.5425 84.8242 81.6798 84.8614C82.5436 85.234 83.4027 85.6134 84.2712 85.9771C84.4049 86.021 84.5524 86.0011 84.6681 85.9235C84.885 85.7345 85.0771 85.521 85.2401 85.2876C85.5342 84.8614 85.791 84.4107 86.0782 83.9778C86.1328 83.9054 86.2185 83.8604 86.3117 83.8551C87.3743 84.0022 88.4572 83.94 89.4937 83.6721C89.5922 83.6524 89.6947 83.677 89.7716 83.739C90.2782 84.2679 90.7731 84.8056 91.2634 85.3456C91.5926 85.7071 91.763 85.7472 92.1622 85.4839C92.9163 84.9886 93.661 84.4821 94.4058 83.9756C94.5244 83.9156 94.6103 83.8098 94.6415 83.6851C94.6728 83.5604 94.6465 83.4288 94.5692 83.324C94.226 82.6948 93.8688 82.0744 93.5279 81.4474C93.4891 81.3722 93.4891 81.2839 93.5279 81.2087C94.2155 80.3992 94.7202 79.4625 95.0104 78.4574C95.0382 78.3264 95.1535 78.229 95.2929 78.2187C96.0197 78.0848 96.7458 77.9464 97.4711 77.8036C97.9544 77.7055 98.0291 77.6095 97.9917 77.1521ZM87.4976 80.9454C85.6195 80.9454 83.9263 79.8641 83.2076 78.2056C82.4888 76.5472 82.8861 74.6383 84.2142 73.369C85.5422 72.0997 87.5395 71.72 89.2747 72.4069C91.0098 73.0938 92.1412 74.7122 92.1412 76.5072C92.1347 78.954 90.0577 80.9342 87.4976 80.9342V80.9454Z" fill="#EBEBEB"/>
</g>
<path fill-rule="evenodd" clip-rule="evenodd" d="M94 74C94 77.3137 91.3137 80 88 80C84.6863 80 82 77.3137 82 74C82 70.6863 84.6863 68 88 68C89.5913 68 91.1174 68.6321 92.2426 69.7574C93.3679 70.8826 94 72.4087 94 74Z" fill="white"/>
<path fill-rule="evenodd" clip-rule="evenodd" d="M97.992 76.1525C97.9197 75.28 97.8379 74.412 97.7586 73.5417C97.7259 73.1802 97.5928 73.0664 97.2099 73.0575C96.5352 73.0396 95.8629 73.0151 95.1905 73.0039C94.9826 73.0293 94.789 72.8985 94.7446 72.7027C94.6525 72.4164 94.5206 72.1432 94.3524 71.8904C93.9952 71.3727 93.6077 70.8751 93.2155 70.3798C93.1172 70.2879 93.0884 70.1477 93.1431 70.0272C93.2832 69.6902 93.4092 69.3578 93.533 69.0052C93.6707 68.6214 93.8014 68.2331 93.9345 67.8471C93.9975 67.4722 93.6287 67.3294 93.1945 67.0995C92.4941 66.7559 91.8124 66.4056 91.112 66.0753C90.8062 65.9303 90.6451 65.995 90.4443 66.2672C90.0428 66.8444 89.6451 67.4238 89.2513 68.0055C89.2016 68.1083 89.0791 68.1592 88.9665 68.1238C87.8146 67.9054 86.6259 67.9405 85.4903 68.2264C85.3938 68.2387 85.2967 68.2083 85.2265 68.1439C84.6989 67.5927 84.1806 67.0281 83.6647 66.4725C83.4079 66.1958 83.2281 66.1757 82.9036 66.3944C82.1635 66.8943 81.4235 67.3919 80.6764 67.8805C80.3425 68.1037 80.2748 68.2978 80.4639 68.6325C80.8001 69.2276 81.1379 69.8226 81.4772 70.4177C81.5455 70.516 81.5318 70.6467 81.4445 70.7301C81.1406 71.0973 80.8674 71.4867 80.6274 71.8949C80.3823 72.3837 80.1657 72.885 79.9784 73.3967C79.9453 73.5158 79.8401 73.604 79.7122 73.6198C78.9745 73.7492 78.2414 73.892 77.506 74.0304C77.0391 74.1174 76.9761 74.2022 77.0064 74.6552C77.0671 75.5187 77.1418 76.3801 77.2002 77.2436C77.2259 77.6163 77.3543 77.7457 77.7488 77.7613C78.4492 77.7903 79.1636 77.8261 79.871 77.8417C80.0144 77.8329 80.1415 77.9293 80.1651 78.0648C80.5707 79.1029 81.208 80.0441 82.0328 80.8229C82.0913 80.9062 82.1076 81.0102 82.0771 81.1063C81.8437 81.8114 81.6102 82.5121 81.3768 83.2172C81.3148 83.3401 81.3129 83.4828 81.3714 83.6072C81.4299 83.7316 81.543 83.8249 81.6803 83.8621C82.5441 84.2347 83.4032 84.6141 84.2717 84.9778C84.4054 85.0206 84.5524 85.0008 84.6685 84.9242C84.8855 84.7352 85.0775 84.5217 85.2405 84.2883C85.5347 83.8599 85.7915 83.4113 86.0786 82.9784C86.1354 82.9028 86.2263 82.8573 86.3238 82.8557C87.3864 83.0029 88.4693 82.9406 89.5058 82.6727C89.605 82.6533 89.708 82.6779 89.786 82.7397C90.2902 83.2678 90.7867 83.8033 91.2754 84.3463C91.6046 84.7078 91.775 84.748 92.1742 84.4847C92.9291 83.9863 93.6777 83.4835 94.4201 82.9762C94.5383 82.9159 94.6237 82.8098 94.6546 82.6852C94.6854 82.5605 94.6587 82.4292 94.5812 82.3246C94.2403 81.6954 93.8808 81.075 93.54 80.448C93.5 80.373 93.5 80.2842 93.54 80.2092C94.2263 79.3993 94.7302 78.4626 95.0201 77.4579C95.0471 77.3265 95.1629 77.2287 95.3026 77.2191C96.0286 77.0852 96.757 76.9469 97.4831 76.8041C97.9477 76.7059 98.0294 76.6099 97.992 76.1525ZM87.4864 79.9348C85.6083 79.9348 83.9151 78.8534 83.1964 77.1949C82.4776 75.5364 82.8749 73.6274 84.2029 72.3581C85.531 71.0887 87.5282 70.709 89.2634 71.396C90.9985 72.0829 92.1299 73.7013 92.1299 75.4964C92.1299 77.9433 90.058 79.9286 87.4981 79.9348H87.4864Z" fill="#FF6060"/>
<defs>
<linearGradient id="paint0_linear" x1="166.315" y1="36.292" x2="114.916" y2="-52.0211" gradientUnits="userSpaceOnUse">
<stop stop-color="#9033EA"/>
<stop offset="1" stop-color="#483EB7"/>
</linearGradient>
<linearGradient id="paint1_linear" x1="71.5149" y1="116.891" x2="101.705" y2="60.4457" gradientUnits="userSpaceOnUse">
<stop stop-color="#8033EB"/>
<stop offset="0.53" stop-color="#D4648E"/>
<stop offset="1" stop-color="#EC7071"/>
</linearGradient>
<linearGradient id="paint2_linear" x1="88.7991" y1="106.026" x2="92.7032" y2="64.5201" gradientUnits="userSpaceOnUse">
<stop stop-color="#8033EB"/>
<stop offset="1" stop-color="#A2E1E0"/>
</linearGradient>
</defs>
</svg>
