<svg width="107" height="89" viewBox="0 0 107 89" fill="none" xmlns="http://www.w3.org/2000/svg">
<g clip-path="url(#clip0)">
<path fill-rule="evenodd" clip-rule="evenodd" d="M67.886 11.38C67.886 17.5656 62.8716 22.58 56.686 22.58C50.5004 22.58 45.486 17.5656 45.486 11.38C45.486 5.19437 50.5004 0.179962 56.686 0.179962C62.8716 0.179962 67.886 5.19437 67.886 11.38Z" fill="#F2F2F2"/>
<path fill-rule="evenodd" clip-rule="evenodd" d="M51.464 29.245V28.996C51.464 27.8428 51.8717 26.8585 52.6871 26.0431C53.5025 25.2277 54.4868 24.82 55.64 24.82H83.956C85.1092 24.82 86.0935 25.2277 86.9089 26.0431C87.7243 26.8585 88.132 27.8428 88.132 28.996V29.494C88.132 30.6471 87.7243 31.6314 86.9089 32.4469C86.0935 33.2623 85.1092 33.67 83.956 33.67H55.64C54.4868 33.67 53.5025 33.2623 52.6871 32.4469C51.8717 31.6314 51.464 30.6471 51.464 29.494V29.245Z" fill="#F2F2F2"/>
<path fill-rule="evenodd" clip-rule="evenodd" d="M0.416016 35.287V34.884C0.416016 33.0228 1.07405 31.4342 2.39012 30.1181C3.70618 28.802 5.29482 28.144 7.15602 28.144H52.862C54.7232 28.144 56.3119 28.802 57.6279 30.1181C58.944 31.4342 59.602 33.0228 59.602 34.884V35.69C59.602 37.5512 58.944 39.1398 57.6279 40.4559C56.3119 41.772 54.7232 42.43 52.862 42.43H7.15602C5.29482 42.43 3.70618 41.772 2.39012 40.4559C1.07405 39.1398 0.416016 37.5512 0.416016 35.69V35.287Z" fill="#F2F2F2"/>
<path fill-rule="evenodd" clip-rule="evenodd" d="M47.9004 80.6865C30.4993 80.5104 16.5357 66.2612 16.7119 48.8601C16.8881 31.459 31.1372 17.4954 48.5383 17.6716C65.9394 17.8477 79.903 32.0969 79.7269 49.498C79.5507 66.8991 65.3015 80.8627 47.9004 80.6865Z" fill="url(#paint0_linear)"/>
<path fill-rule="evenodd" clip-rule="evenodd" d="M48.2481 87.8259H48.2281C47.8141 87.8259 47.4001 87.8259 46.9921 87.8059C46.8264 87.8032 46.6943 87.6666 46.6971 87.5009C46.6998 87.3352 46.8364 87.2032 47.0021 87.2059H47.0121C47.4121 87.2199 47.8221 87.2259 48.2281 87.2259C48.3959 87.2248 48.5337 87.3582 48.5381 87.5259C48.5402 87.6044 48.5107 87.6804 48.4561 87.7369C48.4016 87.7933 48.3266 87.8254 48.2481 87.8259ZM50.324 87.7699C50.1584 87.7743 50.0205 87.6436 50.0161 87.4779C50.0117 87.3123 50.1424 87.1744 50.308 87.1699C50.708 87.1479 51.128 87.1179 51.54 87.0819C51.7057 87.0676 51.8517 87.1902 51.866 87.3559C51.8804 87.5216 51.7577 87.6676 51.592 87.6819C51.174 87.7179 50.752 87.7479 50.34 87.7699H50.324ZM44.924 87.6859H44.898C44.48 87.6499 44.06 87.6079 43.648 87.5579C43.4823 87.5386 43.3637 87.3886 43.383 87.2229C43.4024 87.0572 43.5524 86.9386 43.7181 86.9579C44.118 87.0059 44.538 87.0499 44.948 87.0839C45.1137 87.0906 45.2426 87.2303 45.2359 87.3959C45.2293 87.5616 45.0897 87.6905 44.924 87.6839L44.924 87.6859ZM53.6201 87.4459C53.4544 87.4575 53.3107 87.3326 53.2991 87.1669C53.2875 87.0012 53.4124 86.8575 53.5781 86.8459C53.9781 86.7899 54.3961 86.7239 54.7981 86.6459C54.9053 86.6273 55.0143 86.6673 55.084 86.7508C55.1537 86.8344 55.1735 86.9488 55.136 87.0509C55.0985 87.153 55.0093 87.2274 54.9021 87.2459C54.5021 87.3179 54.0761 87.3839 53.6621 87.4459H53.6201ZM41.6301 87.2579H41.5781C41.1681 87.1859 40.7541 87.1059 40.3461 87.0219C40.1841 86.9869 40.08 86.8285 40.1121 86.6659C40.1285 86.5879 40.1752 86.5196 40.242 86.476C40.3088 86.4325 40.3901 86.4173 40.4681 86.4339C40.8681 86.5179 41.2781 86.5959 41.6821 86.6659C41.8478 86.6803 41.9705 86.8262 41.9561 86.9919C41.9418 87.1576 41.7958 87.2803 41.6301 87.2659L41.6301 87.2579ZM56.8842 86.8359C56.7185 86.8547 56.5689 86.7356 56.5502 86.5699C56.5314 86.4043 56.6505 86.2547 56.8162 86.2359C57.2162 86.1439 57.6162 86.0359 58.0162 85.9359C58.1763 85.8929 58.341 85.9878 58.3841 86.1479C58.4272 86.3081 58.3323 86.4728 58.1722 86.5159C57.7722 86.6239 57.3582 86.7259 56.9542 86.8199C56.9342 86.8278 56.9134 86.8331 56.8922 86.8359H56.8842ZM38.4 86.5439C38.3737 86.5436 38.3476 86.5402 38.322 86.5339C37.922 86.4279 37.522 86.3119 37.122 86.1899C36.9677 86.1387 36.8823 85.9738 36.9295 85.8182C36.9767 85.6626 37.1392 85.5729 37.296 85.6159C37.696 85.7359 38.096 85.8499 38.484 85.9539C38.6497 85.975 38.7669 86.1263 38.7459 86.2919C38.7249 86.4576 38.5737 86.5749 38.408 86.5539L38.4 86.5439ZM60.0942 85.944C59.9455 85.9457 59.818 85.8383 59.7945 85.6915C59.7709 85.5447 59.8584 85.4028 60.0002 85.358C60.3882 85.232 60.7822 85.096 61.1682 84.958C61.3239 84.9017 61.4958 84.9823 61.5522 85.138C61.5798 85.2125 61.5766 85.2949 61.5432 85.3671C61.5098 85.4392 61.4489 85.4949 61.3742 85.522C60.9742 85.666 60.5742 85.804 60.1862 85.932C60.1551 85.9416 60.1225 85.945 60.0902 85.942L60.0942 85.944ZM35.2261 85.544C35.1913 85.5448 35.1566 85.5387 35.1241 85.5259C34.7241 85.384 34.3241 85.2319 33.9481 85.078C33.794 85.0161 33.7193 84.841 33.7811 84.687C33.843 84.5329 34.018 84.4581 34.1721 84.5199C34.5521 84.674 34.9401 84.822 35.3301 84.962C35.405 84.9894 35.4659 85.0456 35.4993 85.118C35.5327 85.1904 35.5359 85.2732 35.5081 85.3479C35.4657 85.4689 35.3503 85.5488 35.2221 85.5459L35.2261 85.544ZM63.2001 84.7719C63.0575 84.7721 62.9344 84.6719 62.9058 84.5322C62.8772 84.3924 62.9509 84.2518 63.0821 84.1959C63.4581 84.0359 63.8361 83.8659 64.2081 83.6939C64.3061 83.6394 64.4263 83.6441 64.5198 83.7062C64.6132 83.7682 64.6643 83.8771 64.6521 83.9886C64.64 84.1001 64.5667 84.1955 64.4621 84.2359C64.0841 84.4139 63.7001 84.5859 63.3181 84.7479C63.2808 84.7637 63.2407 84.7719 63.2001 84.7719ZM32.156 84.2739C32.1125 84.2735 32.0696 84.2639 32.03 84.2459C31.652 84.0699 31.27 83.8839 30.898 83.6939C30.7971 83.6485 30.7293 83.5513 30.7217 83.4409C30.7141 83.3304 30.7679 83.2248 30.8616 83.166C30.9554 83.1073 31.074 83.1049 31.17 83.1599C31.536 83.3459 31.912 83.5279 32.284 83.7019C32.4118 83.7614 32.481 83.9018 32.4502 84.0394C32.4194 84.177 32.297 84.2746 32.156 84.2739L32.156 84.2739ZM66.1881 83.3359C66.0508 83.3357 65.9312 83.2423 65.8977 83.1092C65.8641 82.976 65.9253 82.8371 66.0461 82.7719C66.4081 82.5719 66.7701 82.3719 67.1241 82.1719C67.2677 82.0891 67.4513 82.1383 67.5341 82.2819C67.6169 82.4255 67.5677 82.6091 67.4241 82.6919C67.0661 82.8919 66.6981 83.1039 66.3301 83.2919C66.2852 83.3203 66.2332 83.3356 66.1801 83.3359L66.1881 83.3359ZM29.2061 82.7359C29.1534 82.7362 29.1016 82.7224 29.0561 82.6959C28.6941 82.4959 28.3321 82.2699 27.9781 82.0499C27.8373 81.9621 27.7943 81.7768 27.8821 81.6359C27.9699 81.4951 28.1553 81.4521 28.2961 81.5399C28.6441 81.7559 29.0001 81.9719 29.3581 82.1759C29.501 82.2594 29.5494 82.4429 29.4661 82.5859C29.4124 82.6817 29.3098 82.7395 29.2001 82.7359H29.2061ZM69.0401 81.6439C68.9065 81.6462 68.7877 81.5592 68.7495 81.4311C68.7113 81.3031 68.7631 81.1652 68.8761 81.0939C69.2161 80.8699 69.5601 80.6379 69.8981 80.4019C70.0339 80.3069 70.2211 80.34 70.3161 80.4759C70.4111 80.6117 70.378 80.7989 70.2422 80.8939C69.9001 81.1339 69.5501 81.3699 69.2041 81.5959C69.1532 81.6296 69.0931 81.6464 69.0321 81.6439H69.0401ZM26.4001 80.9479C26.3385 80.9488 26.2782 80.9299 26.2281 80.8939C25.8861 80.6559 25.5441 80.4059 25.2121 80.1559C25.126 80.0918 25.0808 79.9864 25.0936 79.8798C25.1063 79.7732 25.1751 79.6815 25.2739 79.6394C25.3726 79.5973 25.4864 79.6113 25.5721 79.6759C25.9001 79.9239 26.2361 80.1679 26.5721 80.4019C26.6796 80.477 26.7259 80.6131 26.6866 80.7381C26.6472 80.8631 26.5312 80.9481 26.4001 80.9479L26.4001 80.9479ZM71.7321 79.71C71.64 79.7111 71.5526 79.6689 71.4961 79.5959C71.3943 79.4654 71.4166 79.2771 71.5461 79.174C71.8661 78.924 72.1881 78.6619 72.5041 78.396C72.5863 78.327 72.699 78.307 72.7999 78.3437C72.9007 78.3804 72.9743 78.4681 72.9929 78.5738C73.0115 78.6794 72.9724 78.787 72.8902 78.8559C72.5701 79.1259 72.2421 79.3919 71.9161 79.6559C71.8616 79.6952 71.7952 79.7143 71.7281 79.71H71.7321ZM23.7661 78.9239C23.6931 78.9259 23.6219 78.901 23.5661 78.8539C23.2481 78.5879 22.9301 78.3099 22.6181 78.0319C22.4944 77.9215 22.4837 77.7317 22.5941 77.608C22.7045 77.4843 22.8943 77.4735 23.0181 77.5839C23.3261 77.8599 23.6401 78.1319 23.9521 78.3939C24.0499 78.4758 24.0853 78.6106 24.0402 78.7299C23.9952 78.8493 23.8796 78.9271 23.7521 78.9239H23.7661ZM74.25 77.5479C74.1673 77.5491 74.0879 77.5149 74.032 77.4539C73.9771 77.3961 73.9477 77.3187 73.9504 77.239C73.953 77.1593 73.9874 77.084 74.046 77.0299C74.346 76.7479 74.646 76.4579 74.934 76.1699C75.0522 76.0598 75.2364 76.063 75.3506 76.1773C75.4649 76.2915 75.4681 76.4757 75.358 76.5939C75.066 76.8879 74.758 77.1819 74.456 77.4679C74.399 77.5208 74.3237 77.5495 74.246 77.5479L74.25 77.5479ZM21.312 76.6799C21.2324 76.6803 21.156 76.6486 21.1 76.5919C20.806 76.2979 20.512 75.9919 20.228 75.6919C20.1143 75.571 20.1201 75.3807 20.241 75.2669C20.362 75.1532 20.5523 75.159 20.666 75.2799C20.946 75.5799 21.234 75.8799 21.524 76.1679C21.5807 76.2239 21.6126 76.3003 21.6126 76.3799C21.6126 76.4596 21.5807 76.5359 21.524 76.5919C21.4685 76.6492 21.3918 76.681 21.312 76.6799ZM76.5702 75.1759C76.4518 75.1761 76.3444 75.1066 76.296 74.9986C76.2476 74.8905 76.2673 74.7642 76.3462 74.6759C76.6202 74.3699 76.8942 74.0559 77.1582 73.7419C77.2248 73.6527 77.3354 73.6077 77.4455 73.6251C77.5555 73.6426 77.6468 73.7195 77.6826 73.825C77.7184 73.9305 77.6928 74.0471 77.6162 74.1279C77.3482 74.4459 77.0722 74.7659 76.7942 75.0759C76.737 75.1395 76.6556 75.1758 76.5702 75.1759V75.1759ZM19.068 74.2339C18.979 74.2344 18.8946 74.1947 18.838 74.1259C18.572 73.8099 18.306 73.4819 18.048 73.1539C17.9758 73.0705 17.9551 72.9542 17.9943 72.851C18.0334 72.7478 18.1261 72.6744 18.2355 72.66C18.345 72.6456 18.4535 72.6924 18.518 72.7819C18.774 73.1059 19.036 73.4299 19.298 73.7399C19.4046 73.8672 19.3885 74.0565 19.262 74.164C19.2073 74.2089 19.1388 74.2336 19.0681 74.2339H19.068ZM78.6801 72.6099C78.5665 72.6099 78.4626 72.5457 78.4118 72.4441C78.361 72.3425 78.3719 72.2208 78.4401 72.1299C78.6861 71.8019 78.9301 71.4659 79.1661 71.1299C79.2617 70.9941 79.4493 70.9615 79.5851 71.057C79.7209 71.1525 79.7536 71.3401 79.6581 71.4759C79.4181 71.8179 79.1701 72.1599 78.9201 72.4919C78.8627 72.5662 78.7741 72.6098 78.6802 72.6099L78.6801 72.6099ZM17.046 71.61C16.9485 71.6101 16.8569 71.5632 16.8 71.484C16.562 71.142 16.324 70.7939 16.096 70.4459C16.033 70.3563 16.0239 70.2394 16.0723 70.141C16.1207 70.0427 16.2188 69.9786 16.3283 69.9737C16.4378 69.9689 16.5412 70.0242 16.5981 70.1179C16.822 70.4599 17.056 70.8039 17.29 71.1379C17.3364 71.2028 17.3549 71.2834 17.3414 71.362C17.3279 71.4405 17.2835 71.5104 17.2181 71.5559C17.1668 71.5884 17.1066 71.6038 17.0461 71.6L17.046 71.61ZM80.56 69.8759C80.5036 69.8763 80.4483 69.861 80.4 69.8319C80.2608 69.7429 80.2182 69.5591 80.304 69.4179C80.524 69.0679 80.738 68.7119 80.942 68.3579C80.9956 68.265 81.0947 68.2077 81.2019 68.2077C81.3092 68.2077 81.4083 68.2648 81.462 68.3577C81.5156 68.4506 81.5156 68.565 81.462 68.6579C81.262 69.0179 81.036 69.3799 80.814 69.7359C80.7574 69.8204 80.6617 69.8701 80.56 69.8679V69.8759ZM15.2601 68.7999C15.1528 68.8 15.0537 68.7428 15.0001 68.6499C14.8001 68.2899 14.5861 67.9219 14.3901 67.5559C14.3194 67.4112 14.3757 67.2365 14.5176 67.1601C14.6594 67.0838 14.8362 67.1332 14.9181 67.2719C15.1181 67.6339 15.3181 67.9959 15.5181 68.3499C15.5933 68.4913 15.545 68.6669 15.4081 68.7499C15.3637 68.7787 15.3128 68.7958 15.2601 68.7999ZM82.2001 66.9739C82.1528 66.9733 82.1062 66.9617 82.0641 66.9399C81.9173 66.8658 81.8582 66.6868 81.9321 66.5399C82.1181 66.1719 82.3021 65.7959 82.4741 65.4259C82.5443 65.2757 82.7229 65.2108 82.8731 65.2809C83.0234 65.3511 83.0883 65.5297 83.0181 65.6799C82.8421 66.0559 82.6561 66.4359 82.4661 66.8119C82.415 66.9116 82.3122 66.9742 82.2001 66.9739L82.2001 66.9739ZM13.732 65.8699C13.6151 65.8704 13.5087 65.8023 13.46 65.6959C13.284 65.32 13.112 64.936 12.9481 64.554C12.8966 64.4542 12.9051 64.334 12.9702 64.2425C13.0353 64.1511 13.146 64.1036 13.2571 64.1194C13.3682 64.1353 13.4612 64.2119 13.498 64.318C13.66 64.694 13.8301 65.0719 14.0021 65.442C14.0719 65.5922 14.0077 65.7707 13.8581 65.842C13.8165 65.8606 13.7715 65.8701 13.726 65.8699H13.732ZM83.5741 63.9439C83.5357 63.9442 83.4976 63.9367 83.4621 63.9219C83.3087 63.8599 83.2344 63.6855 83.2961 63.5319C83.4501 63.1519 83.5981 62.7619 83.7401 62.3759C83.7954 62.2207 83.9659 62.1397 84.1211 62.1949C84.2763 62.2502 84.3574 62.4207 84.3021 62.5759C84.1601 62.9759 84.0081 63.3639 83.8521 63.7519C83.8079 63.8698 83.694 63.9468 83.5681 63.9439H83.5741ZM12.46 62.8099C12.3334 62.809 12.2208 62.7291 12.178 62.6099C12.036 62.2099 11.896 61.8199 11.766 61.4219C11.7281 61.3188 11.7495 61.2032 11.8219 61.1206C11.8943 61.038 12.006 61.0015 12.1132 61.0255C12.2204 61.0496 12.3059 61.1303 12.336 61.2359C12.464 61.6259 12.602 62.0199 12.736 62.4039C12.7923 62.5597 12.7117 62.7315 12.556 62.7879C12.5236 62.8011 12.4891 62.8085 12.454 62.8099H12.46ZM84.678 60.8099C84.6488 60.8102 84.6197 60.8054 84.592 60.7959C84.5156 60.7733 84.4515 60.721 84.4139 60.6507C84.3763 60.5804 84.3684 60.498 84.392 60.4219C84.51 60.0219 84.624 59.6219 84.73 59.2339C84.7731 59.0738 84.9378 58.9789 85.098 59.0219C85.2581 59.0649 85.3531 59.2296 85.3101 59.3898C85.202 59.7899 85.086 60.1899 84.966 60.5899C84.9253 60.7173 84.8057 60.8027 84.672 60.7999L84.678 60.8099ZM11.458 59.6499C11.3228 59.6499 11.2045 59.5587 11.17 59.428C11.06 59.028 10.958 58.6139 10.864 58.2099C10.833 58.0514 10.9331 57.8967 11.0904 57.8601C11.2478 57.8234 11.4059 57.918 11.448 58.074C11.542 58.4739 11.648 58.874 11.748 59.274C11.7688 59.3509 11.7581 59.4329 11.7184 59.5019C11.6786 59.571 11.613 59.6213 11.536 59.642C11.5082 59.646 11.48 59.6467 11.452 59.644L11.458 59.6499ZM85.5001 57.5919H85.4381C85.3601 57.5756 85.2918 57.5289 85.2482 57.4621C85.2047 57.3953 85.1896 57.3139 85.2061 57.2359C85.2901 56.8359 85.3701 56.4359 85.4401 56.0239C85.4587 55.9167 85.533 55.8275 85.6351 55.79C85.7373 55.7525 85.8517 55.7723 85.9352 55.842C86.0187 55.9117 86.0588 56.0207 86.0401 56.1279C85.9681 56.5379 85.8901 56.9519 85.8041 57.3599C85.7688 57.5001 85.6384 57.5951 85.4941 57.5859L85.5001 57.5919ZM10.7341 56.3999C10.5882 56.4002 10.4633 56.2955 10.4381 56.1519C10.3661 55.7379 10.3001 55.3199 10.2381 54.9119C10.2149 54.7463 10.3304 54.5932 10.496 54.5699C10.6617 54.5467 10.8148 54.6622 10.8381 54.8278C10.8941 55.2279 10.9601 55.6399 11.0381 56.0479C11.0659 56.2112 10.9571 56.3665 10.7941 56.3959L10.7341 56.3999ZM86.032 54.308H86C85.921 54.2985 85.8489 54.2579 85.7998 54.1953C85.7507 54.1326 85.7284 54.053 85.738 53.974C85.786 53.574 85.828 53.156 85.864 52.744C85.8784 52.5783 86.0244 52.4556 86.19 52.47C86.3557 52.4843 86.4784 52.6303 86.464 52.796C86.428 53.214 86.384 53.634 86.336 54.046C86.3167 54.1985 86.1858 54.3122 86.032 54.31V54.308ZM10.302 53.1079C10.1463 53.1076 10.0164 52.9889 10.002 52.8339C9.96601 52.4179 9.93601 51.9959 9.91401 51.5819C9.90517 51.4163 10.0323 51.2748 10.198 51.2659C10.3637 51.2571 10.5052 51.3843 10.514 51.5499C10.536 51.9499 10.564 52.3719 10.6 52.7819C10.6139 52.9468 10.4926 53.0921 10.328 53.1079H10.302ZM86.2821 50.9999C86.2027 50.9978 86.1274 50.9641 86.073 50.9063C86.0185 50.8485 85.9894 50.7713 85.9921 50.6919C86.0041 50.2919 86.0101 49.8679 86.0101 49.4559V49.3779C86.0101 49.2122 86.1444 49.0779 86.3101 49.0779C86.4758 49.0779 86.6101 49.2122 86.6101 49.3779V49.4539C86.6101 49.8739 86.6101 50.2959 86.5901 50.7099C86.588 50.7893 86.5543 50.8646 86.4965 50.9191C86.4387 50.9735 86.3615 51.0026 86.2821 50.9999ZM10.1561 49.7999C9.99039 49.7999 9.85608 49.6656 9.85608 49.4999V49.4619C9.85608 49.0619 9.85608 48.6479 9.87408 48.2459C9.87905 48.0803 10.0173 47.95 10.183 47.9549C10.3487 47.9599 10.479 48.0981 10.4741 48.2638C10.4621 48.6639 10.4561 49.0639 10.4561 49.4639V49.5019C10.455 49.6668 10.321 49.7999 10.1561 49.7999H10.1561ZM86.2401 47.5999C86.0808 47.6001 85.9496 47.475 85.9421 47.3159C85.9181 46.9159 85.8901 46.4939 85.8521 46.0839C85.8377 45.9182 85.9604 45.7723 86.1261 45.7579C86.2918 45.7436 86.4378 45.8662 86.4521 46.0319C86.4901 46.4459 86.5201 46.8679 86.5421 47.2839C86.5512 47.4489 86.4251 47.5902 86.2601 47.5999L86.2401 47.5999ZM10.2962 46.4759H10.2702C10.1909 46.4693 10.1174 46.4314 10.066 46.3707C10.0147 46.3099 9.98952 46.2312 9.99616 46.1519C10.0322 45.7359 10.0742 45.3139 10.1222 44.9019C10.142 44.7362 10.2925 44.618 10.4582 44.6379C10.6238 44.6578 10.742 44.8082 10.7222 44.9739C10.6742 45.3739 10.6322 45.7919 10.5982 46.2019C10.5846 46.3582 10.453 46.4776 10.2962 46.4759H10.2962ZM85.9121 44.2959C85.763 44.2954 85.6369 44.1855 85.6161 44.0379C85.5581 43.6379 85.4921 43.2239 85.4161 42.8179C85.3883 42.6551 85.4973 42.5004 85.6601 42.4719C85.7381 42.4574 85.8187 42.4749 85.8838 42.5204C85.9489 42.5659 85.9929 42.6356 86.0061 42.7139C86.0801 43.1259 86.1461 43.5439 86.2061 43.9539C86.2287 44.1172 86.1152 44.2682 85.9521 44.2919C85.9389 44.2948 85.9255 44.2962 85.9121 44.2959V44.2959ZM10.7221 43.1819H10.6701C10.5913 43.1688 10.521 43.1245 10.4751 43.0591C10.4293 42.9936 10.4116 42.9125 10.4261 42.8339C10.4961 42.4239 10.5761 42.0099 10.6601 41.6019C10.6938 41.4396 10.8527 41.3353 11.015 41.369C11.1774 41.4027 11.2817 41.5615 11.2481 41.7239C11.1641 42.1239 11.0861 42.5339 11.0161 42.9379C10.9892 43.0792 10.8659 43.1816 10.7221 43.1819H10.7221ZM85.2981 41.0339C85.1559 41.0365 85.0314 40.9387 85.0001 40.7999C84.9061 40.3999 84.8001 39.9999 84.6981 39.5999C84.6551 39.4398 84.7499 39.2751 84.91 39.2319C85.0702 39.1888 85.2349 39.2837 85.2781 39.4438C85.3861 39.8439 85.4881 40.2559 85.5841 40.6599C85.6027 40.7377 85.5895 40.8196 85.5475 40.8875C85.5054 40.9555 85.438 41.0039 85.3601 41.0219C85.3398 41.0275 85.3191 41.0315 85.2981 41.0339ZM11.4321 39.9379C11.4065 39.9384 11.3808 39.9351 11.3561 39.9279C11.1961 39.8859 11.1003 39.7221 11.1421 39.5619C11.2501 39.1619 11.3641 38.7619 11.4861 38.3619C11.515 38.2568 11.5987 38.1755 11.7047 38.1498C11.8107 38.1241 11.9223 38.1579 11.9961 38.2382C12.07 38.3184 12.0945 38.4324 12.0601 38.5359C11.9401 38.9359 11.8281 39.3359 11.7221 39.7239C11.6845 39.8523 11.5659 39.9398 11.4321 39.9379ZM84.4001 37.8359C84.2725 37.8364 84.1586 37.7562 84.1161 37.6359C83.9881 37.2359 83.8501 36.8539 83.7161 36.4699C83.6709 36.367 83.6871 36.2475 83.7579 36.1602C83.8288 36.073 83.9425 36.0327 84.0525 36.0558C84.1625 36.0789 84.2503 36.1615 84.2801 36.2699C84.4221 36.6699 84.5621 37.0579 84.6921 37.4539C84.717 37.5308 84.7098 37.6145 84.6722 37.6861C84.6345 37.7576 84.5696 37.8109 84.4921 37.8339C84.4617 37.8393 84.4307 37.84 84.4001 37.8359H84.4001ZM12.4301 36.7659C12.3953 36.7658 12.3608 36.7597 12.3281 36.7479C12.1724 36.6915 12.0918 36.5197 12.1481 36.3639C12.2921 35.9639 12.4421 35.5739 12.5961 35.1879C12.6574 35.0339 12.832 34.9588 12.986 35.0201C13.1401 35.0814 13.2153 35.2559 13.154 35.41C13.0021 35.7919 12.8521 36.1799 12.7121 36.5679C12.6689 36.6874 12.5551 36.7667 12.4281 36.7659L12.4301 36.7659ZM83.2301 34.7359C83.1101 34.7355 83.0018 34.664 82.9541 34.5539C82.7941 34.1779 82.6241 33.7999 82.4501 33.4299C82.3794 33.2797 82.4438 33.1007 82.594 33.03C82.7442 32.9592 82.9233 33.0236 82.994 33.1738C83.1701 33.5519 83.3421 33.9359 83.5061 34.3159C83.5399 34.3897 83.5422 34.4741 83.5124 34.5496C83.4825 34.6251 83.4232 34.6852 83.3481 34.7159C83.3089 34.7321 83.2664 34.739 83.2241 34.7359L83.2301 34.7359ZM13.7 33.6899C13.6564 33.6905 13.6133 33.6809 13.574 33.6619C13.5014 33.6285 13.4451 33.5674 13.4177 33.4923C13.3903 33.4172 13.394 33.3343 13.428 33.2619C13.604 32.8859 13.788 32.5059 13.978 32.1299C14.0531 31.9819 14.234 31.9228 14.382 31.9979C14.53 32.073 14.5891 32.2539 14.514 32.4019C14.326 32.7699 14.144 33.1459 13.972 33.5159C13.9229 33.6219 13.8168 33.6898 13.7 33.6899ZM81.7841 31.7499C81.6736 31.7503 81.572 31.6895 81.5201 31.5919C81.3201 31.2319 81.1201 30.8699 80.9201 30.5159C80.8439 30.3736 80.894 30.1964 81.0335 30.1151C81.173 30.0338 81.3518 30.0775 81.4381 30.2139C81.6481 30.5739 81.8541 30.9419 82.0501 31.3079C82.1244 31.4523 82.0703 31.6296 81.9281 31.7079C81.8848 31.7346 81.835 31.7491 81.7841 31.7499L81.7841 31.7499ZM15.236 30.7399C15.1833 30.7407 15.1314 30.7269 15.086 30.6999C15.0166 30.6606 14.9659 30.595 14.9452 30.518C14.9246 30.4409 14.9357 30.3588 14.976 30.2899C15.176 29.9299 15.402 29.5679 15.622 29.2119C15.7098 29.0711 15.8952 29.0281 16.036 29.1159C16.1769 29.2038 16.2198 29.3891 16.132 29.5299C15.914 29.8799 15.7 30.2359 15.496 30.5899C15.4427 30.6831 15.3434 30.7404 15.236 30.7399H15.236ZM80.0881 28.8999C79.9869 28.9007 79.8921 28.8503 79.8361 28.7659C79.6121 28.4239 79.3781 28.0799 79.1441 27.7439C79.0739 27.6568 79.0581 27.5378 79.103 27.4353C79.1479 27.3328 79.2462 27.2639 79.3578 27.2564C79.4695 27.249 79.576 27.3043 79.6341 27.3999C79.8741 27.7399 80.1101 28.0879 80.3381 28.4359C80.382 28.5025 80.3976 28.5837 80.3814 28.6618C80.3653 28.7398 80.3188 28.8082 80.2521 28.8519C80.2035 28.884 80.1464 28.9008 80.0881 28.8999V28.8999ZM17.022 27.9379C16.9101 27.938 16.8075 27.8758 16.7558 27.7766C16.7041 27.6774 16.7119 27.5576 16.776 27.4659C17.016 27.1239 17.264 26.7819 17.514 26.4479C17.6112 26.3137 17.7987 26.2837 17.9329 26.3809C18.0671 26.478 18.0972 26.6656 18.0001 26.7998C17.754 27.1279 17.51 27.4639 17.274 27.7999C17.2192 27.886 17.1241 27.9381 17.022 27.9379H17.022ZM78.1501 26.1999C78.0582 26.1998 77.9714 26.1579 77.9141 26.0859C77.6621 25.7659 77.3981 25.4419 77.1341 25.1279C77.0391 25.0007 77.0597 24.8214 77.1811 24.719C77.3026 24.6167 77.4828 24.6267 77.5921 24.7419C77.8621 25.0619 78.1281 25.3879 78.3921 25.7139C78.4635 25.8042 78.4769 25.9274 78.4266 26.031C78.3763 26.1345 78.2712 26.2002 78.1561 26.1999H78.1501ZM19.0441 25.2939C18.927 25.2944 18.8204 25.2267 18.771 25.1206C18.7215 25.0144 18.7384 24.8892 18.8141 24.7999C19.0841 24.4799 19.3601 24.1599 19.6381 23.8519C19.7076 23.7653 19.8194 23.7241 19.9285 23.745C20.0376 23.7659 20.1263 23.8454 20.1589 23.9516C20.1915 24.0579 20.1627 24.1734 20.0841 24.2519C19.8121 24.5559 19.5381 24.8699 19.2841 25.1859C19.2266 25.26 19.1378 25.3029 19.0441 25.3019L19.0441 25.2939ZM75.9842 23.6939C75.9016 23.6941 75.8227 23.6601 75.7662 23.5999C75.4822 23.2979 75.1922 22.9999 74.9042 22.7139C74.7866 22.5968 74.7861 22.4066 74.9032 22.2889C75.0203 22.1713 75.2106 22.1708 75.3282 22.2879C75.6202 22.5799 75.9142 22.8879 76.2022 23.1899C76.285 23.2765 76.308 23.4043 76.2604 23.5142C76.2128 23.6242 76.104 23.695 75.9842 23.6939H75.9842ZM21.2881 22.8539C21.1669 22.8538 21.0576 22.7807 21.0112 22.6687C20.9648 22.5567 20.9905 22.4277 21.0761 22.3419C21.3721 22.0439 21.6761 21.7419 21.9761 21.4679C22.0541 21.3931 22.1663 21.366 22.2698 21.397C22.3734 21.4279 22.4522 21.5122 22.4763 21.6176C22.5004 21.7229 22.4659 21.8331 22.3861 21.9059C22.0901 22.1839 21.7861 22.4739 21.5001 22.7659C21.4433 22.8209 21.3673 22.8518 21.2881 22.8519L21.2881 22.8539ZM73.6002 21.3739C73.5261 21.3741 73.4546 21.3462 73.4002 21.2959C73.0962 21.0239 72.7822 20.7519 72.4642 20.4959C72.3372 20.3893 72.3206 20.2 72.4272 20.0729C72.5338 19.9459 72.7232 19.9293 72.8502 20.0359C73.1722 20.3039 73.4922 20.5819 73.8002 20.8579C73.8599 20.9109 73.8958 20.9856 73.8999 21.0653C73.9041 21.145 73.8761 21.223 73.8222 21.2819C73.7645 21.3426 73.6839 21.376 73.6002 21.3739ZM23.734 20.5999C23.6454 20.6005 23.5611 20.5617 23.504 20.4939C23.3975 20.3667 23.4136 20.1774 23.54 20.0699C23.858 19.8039 24.184 19.5359 24.512 19.2699C24.6424 19.1673 24.8313 19.1897 24.934 19.32C25.0367 19.4503 25.0143 19.6392 24.884 19.7419C24.56 19.9959 24.238 20.2579 23.926 20.5219C23.8737 20.5705 23.8054 20.5983 23.734 20.5999ZM71.0381 19.2599C70.9731 19.2607 70.9097 19.2395 70.8581 19.1999C70.5281 18.9539 70.1921 18.7099 69.8581 18.4759C69.7454 18.4273 69.6737 18.3149 69.6771 18.1922C69.6805 18.0695 69.7583 17.9613 69.8735 17.9189C69.9887 17.8766 70.118 17.9087 70.2001 17.9999C70.5401 18.2379 70.8821 18.4859 71.2181 18.7359C71.3506 18.8353 71.3775 19.0234 71.2781 19.1559C71.2198 19.2282 71.1309 19.2689 71.0381 19.2659V19.2599ZM26.3642 18.5759C26.266 18.5767 26.1739 18.5287 26.1182 18.4479C26.0718 18.3831 26.0533 18.3024 26.0668 18.2239C26.0804 18.1453 26.1248 18.0755 26.1902 18.0299C26.5282 17.7919 26.8782 17.5559 27.2282 17.3259C27.3665 17.2421 27.5464 17.283 27.6349 17.4184C27.7233 17.5538 27.6885 17.7349 27.5562 17.8279C27.2122 18.0539 26.8682 18.2879 26.5362 18.5219C26.4861 18.5586 26.4262 18.5795 26.3642 18.5819V18.5759ZM68.2941 17.3759C68.2382 17.3752 68.1836 17.3593 68.1361 17.3299C67.7881 17.1139 67.4301 16.8999 67.0741 16.6939C66.9735 16.6445 66.9088 16.5431 66.9064 16.4311C66.904 16.319 66.9643 16.215 67.0627 16.1613C67.1611 16.1076 67.2812 16.1133 67.3741 16.1759C67.7361 16.3759 68.0981 16.6019 68.4521 16.8199C68.567 16.8901 68.6211 17.0284 68.5843 17.1579C68.5474 17.2875 68.4288 17.3766 68.2941 17.3759H68.2941ZM29.1581 16.7759C29.0218 16.777 28.9019 16.6861 28.8662 16.5545C28.8305 16.423 28.888 16.2839 29.0061 16.2159C29.3641 16.0159 29.7321 15.8039 30.1001 15.6159C30.2449 15.5453 30.4196 15.6015 30.4959 15.7434C30.5722 15.8853 30.5229 16.0621 30.3841 16.1439C30.0221 16.3439 29.6601 16.5439 29.3081 16.7439C29.2642 16.776 29.2123 16.7954 29.1581 16.7999V16.7759ZM65.4001 15.7619C65.3529 15.762 65.3063 15.7511 65.2641 15.7299C64.8981 15.5439 64.5221 15.3619 64.1501 15.1879C63.9999 15.1178 63.9349 14.9392 64.005 14.7889C64.0752 14.6387 64.2538 14.5738 64.404 14.6439C64.7821 14.8199 65.1621 15.0059 65.5361 15.1939C65.6605 15.2565 65.7255 15.3964 65.693 15.5318C65.6606 15.6672 65.5393 15.7625 65.4001 15.7619V15.7619ZM32.0982 15.2579C31.9576 15.2577 31.836 15.1598 31.8058 15.0225C31.7755 14.8851 31.8447 14.7452 31.9722 14.6859C32.3482 14.5099 32.7342 14.3379 33.1142 14.1739C33.2666 14.1087 33.443 14.1795 33.5082 14.3319C33.5734 14.4843 33.5026 14.6607 33.3502 14.7259C32.9762 14.8859 32.5982 15.0559 32.2262 15.2299C32.185 15.2495 32.1398 15.2591 32.0942 15.2579H32.0982ZM62.3641 14.3999C62.3264 14.3994 62.2891 14.3919 62.2541 14.3779C61.8721 14.2259 61.4821 14.0759 61.0961 13.9359C60.9522 13.8727 60.8814 13.7091 60.9339 13.561C60.9865 13.4128 61.1445 13.3303 61.2961 13.3719C61.6961 13.5139 62.0841 13.6659 62.4721 13.8199C62.6079 13.8721 62.6866 14.0141 62.6591 14.1568C62.6315 14.2996 62.5055 14.402 62.3601 14.3999H62.3641ZM35.1641 13.9999C35.0182 14.0007 34.8928 13.8964 34.8671 13.7527C34.8415 13.609 34.9229 13.4677 35.0601 13.4179C35.4501 13.2739 35.8481 13.1359 36.2461 13.0059C36.4035 12.954 36.5732 13.0395 36.6251 13.1969C36.677 13.3543 36.5915 13.524 36.4341 13.5759C36.0341 13.7039 35.6501 13.8399 35.2661 13.9759C35.2297 13.9862 35.1917 13.9896 35.1541 13.9859L35.1641 13.9999ZM59.232 13.3059C59.203 13.3059 59.174 13.3018 59.146 13.2939C58.746 13.1739 58.346 13.0619 57.958 12.9559C57.8508 12.932 57.7652 12.8515 57.7349 12.7459C57.7046 12.6403 57.7344 12.5266 57.8126 12.4495C57.8908 12.3724 58.0049 12.3442 58.11 12.3759C58.51 12.4839 58.91 12.5979 59.31 12.7179C59.4537 12.7598 59.5446 12.9012 59.5229 13.0493C59.5012 13.1975 59.3737 13.3069 59.224 13.3059H59.232ZM38.3181 12.9839C38.1525 13.0055 38.0007 12.8886 37.9791 12.723C37.9576 12.5573 38.0744 12.4055 38.24 12.3839C38.6401 12.2739 39.0541 12.1719 39.4581 12.0779C39.5625 12.0532 39.672 12.0861 39.7456 12.1641C39.8191 12.2421 39.8454 12.3535 39.8146 12.4562C39.7838 12.5589 39.7005 12.6373 39.5961 12.6619C39.1961 12.7539 38.7961 12.8619 38.3961 12.9619C38.3714 12.9732 38.3451 12.9806 38.3181 12.9839ZM56.0001 12.4759H55.9381C55.5381 12.3919 55.1381 12.3139 54.7261 12.2439C54.6189 12.2258 54.5295 12.1517 54.4917 12.0498C54.4538 11.9478 54.4733 11.8334 54.5427 11.7497C54.6121 11.666 54.7209 11.6257 54.8281 11.6439C55.2281 11.7159 55.6521 11.7939 56.0601 11.8799C56.2258 11.8965 56.3467 12.0442 56.3301 12.2099C56.3135 12.3756 56.1658 12.4965 56.0001 12.4799L56.0001 12.4759ZM41.5601 12.2619C41.3944 12.2763 41.2484 12.1536 41.2341 11.9879C41.2197 11.8222 41.3424 11.6763 41.5081 11.6619C41.9221 11.5879 42.3401 11.5219 42.7481 11.4619C42.9137 11.4387 43.0668 11.5542 43.0901 11.7199C43.1133 11.8855 42.9978 12.0387 42.8322 12.0619C42.4321 12.1179 42.0201 12.1839 41.6121 12.2619C41.5948 12.2639 41.5773 12.2639 41.5601 12.2619ZM52.7261 11.9439H52.692C52.292 11.8959 51.8701 11.8539 51.462 11.8199C51.3548 11.811 51.2605 11.7456 51.2147 11.6483C51.1688 11.551 51.1783 11.4366 51.2397 11.3482C51.301 11.2599 51.4049 11.2109 51.5121 11.2199C51.9261 11.2539 52.3461 11.2959 52.7621 11.3459C52.9277 11.3559 53.0539 11.4983 53.0439 11.6639C53.034 11.8296 52.8917 11.9558 52.7261 11.9459V11.9439ZM44.8521 11.8279C44.6865 11.8351 44.5464 11.7066 44.5392 11.5409C44.5321 11.3753 44.6605 11.2352 44.8261 11.2279C45.2441 11.1899 45.6641 11.1599 46.0781 11.1379C46.2438 11.1291 46.3853 11.2562 46.3941 11.4219C46.403 11.5876 46.2758 11.7291 46.1101 11.7379C45.7101 11.7599 45.2901 11.7899 44.8781 11.8239L44.8521 11.8279ZM49.416 11.6979H49.4C49.01 11.6859 48.614 11.6799 48.222 11.6799H48.164C47.9983 11.6799 47.864 11.5456 47.864 11.3799C47.864 11.2142 47.9983 11.0799 48.164 11.0799H48.222C48.622 11.0799 49.022 11.0799 49.422 11.0999C49.5877 11.0999 49.722 11.2342 49.722 11.3999C49.722 11.5656 49.5877 11.6999 49.422 11.6999L49.416 11.6979Z" fill="#F94F24"/>
<path fill-rule="evenodd" clip-rule="evenodd" d="M11.966 50.466C11.9664 51.2529 11.4921 51.9635 10.7643 52.2653C10.0366 52.5672 9.19863 52.4009 8.64123 51.8441C8.08383 51.2872 7.91676 50.4494 8.21792 49.7214C8.51908 48.9933 9.22916 48.5184 10.0171 48.518C10.5339 48.5177 11.0296 48.7228 11.3951 49.0882C11.7606 49.4535 11.966 49.9492 11.966 50.466Z" fill="white"/>
<path fill-rule="evenodd" clip-rule="evenodd" d="M10.0181 52.714C9.10885 52.714 8.28915 52.1663 7.9412 51.3263C7.59326 50.4862 7.78559 49.5193 8.42851 48.8764C9.07143 48.2335 10.0383 48.0412 10.8784 48.3891C11.7184 48.7371 12.2661 49.5568 12.2661 50.466C12.265 51.707 11.2593 52.7128 10.0182 52.714H10.0181ZM10.018 48.818C9.35149 48.818 8.75057 49.2195 8.49549 49.8353C8.24041 50.4511 8.38141 51.16 8.85273 51.6313C9.32406 52.1026 10.0329 52.2436 10.6487 51.9885C11.2645 51.7335 11.666 51.1325 11.666 50.466C11.666 49.5558 10.9282 48.818 10.018 48.818Z" fill="#F94F24"/>
<path fill-rule="evenodd" clip-rule="evenodd" d="M20.758 75.536C20.758 78.0941 18.6842 80.168 16.126 80.168C13.5678 80.168 11.494 78.0941 11.494 75.536C11.494 72.9778 13.5678 70.904 16.126 70.904C18.6842 70.904 20.758 72.9778 20.758 75.536Z" fill="#F2F2F2"/>
<path fill-rule="evenodd" clip-rule="evenodd" d="M97.4 64.0659C97.4011 65.939 96.2732 67.6289 94.5422 68.3467C92.8113 69.0644 90.8185 68.6686 89.4932 67.3438C88.168 66.019 87.7715 64.0263 88.4887 62.2951C89.2058 60.564 90.8954 59.4354 92.7692 59.4359C93.9973 59.4357 95.1752 59.9235 96.0436 60.7918C96.9121 61.6601 97.4 62.8379 97.4 64.0659L97.4 64.0659Z" fill="#F2F2F2"/>
<path fill-rule="evenodd" clip-rule="evenodd" d="M82.4741 73.644C82.4731 76.374 80.2593 78.5866 77.529 78.586C74.7988 78.5855 72.5859 76.3719 72.5861 73.6417C72.5863 70.9114 74.7995 68.6982 77.5298 68.698C78.8414 68.698 80.0993 69.2191 81.0266 70.1467C81.9539 71.0743 82.4746 72.3324 82.4741 73.644Z" fill="white"/>
<path fill-rule="evenodd" clip-rule="evenodd" d="M77.53 78.8879C75.4079 78.8888 73.4942 77.6109 72.6817 75.6504C71.8692 73.6899 72.3179 71.4331 73.8185 69.9325C75.3191 68.4319 77.576 67.9832 79.5365 68.7956C81.497 69.6081 82.7748 71.5218 82.774 73.6439C82.7707 76.5388 80.4248 78.8846 77.53 78.8879H77.53ZM77.53 68.9979C75.6507 68.9971 73.956 70.1286 73.2362 71.8646C72.5165 73.6006 72.9135 75.5993 74.242 76.9284C75.5706 78.2576 77.5691 78.6554 79.3055 77.9365C81.0418 77.2175 82.174 75.5232 82.174 73.6439C82.1707 71.0805 80.0934 69.0032 77.53 68.9999L77.53 68.9979Z" fill="#F94F24"/>
<path fill-rule="evenodd" clip-rule="evenodd" d="M89.12 52.758L89.078 52.558C97.8162 50.6415 104.435 43.4832 105.662 34.6218C106.889 25.7604 102.464 17.073 94.5753 12.8543C86.6866 8.63569 77.0047 9.77935 70.316 15.72L70.184 15.572C76.9362 9.5823 86.7048 8.43265 94.6631 12.6911C102.621 16.9495 107.085 25.7145 105.848 34.6553C104.611 43.5962 97.9355 50.8202 89.12 52.758H89.12Z" fill="#F94F24"/>
<path fill-rule="evenodd" clip-rule="evenodd" d="M10.156 60.6859C4.56687 60.6077 0.0770355 56.0546 0.0770264 50.4649C0.0770172 44.8753 4.56684 40.3221 10.156 40.2439C12.4021 40.2367 14.5868 40.9769 16.366 42.3479L16.246 42.5079C14.5012 41.1634 12.3588 40.4373 10.156 40.4439C4.67679 40.5214 0.275668 44.9852 0.275671 50.4649C0.275674 55.9447 4.6768 60.4085 10.156 60.4859C11.7309 60.4895 13.2839 60.1172 14.686 59.3999L14.778 59.5799C13.3468 60.3098 11.7626 60.6889 10.156 60.6859Z" fill="#F94F24"/>
<path fill-rule="evenodd" clip-rule="evenodd" d="M68.8937 54.8391L64.8207 51.8152C64.8308 51.7535 64.8382 51.6914 64.848 51.6293C64.8523 51.6039 64.8554 51.5781 64.8593 51.5531C64.8992 51.2895 64.9328 51.0262 64.9597 50.7625C64.9613 50.7484 64.9625 50.7352 64.964 50.7211C64.9918 50.4461 65.0129 50.1707 65.0265 49.8953C65.0277 49.8836 65.0281 49.8711 65.0285 49.8594C65.0418 49.5867 65.0492 49.3141 65.0496 49.0414C65.0496 49.0277 65.0504 49.0141 65.0504 49.0004C65.0504 48.9852 65.0496 48.9699 65.0496 48.9547C65.0496 48.8953 65.0508 48.8352 65.05 48.7758C65.0496 48.7648 65.05 48.7539 65.05 48.7426C65.048 48.6238 65.0429 48.5059 65.0386 48.3871C65.0355 48.3137 65.032 48.241 65.0285 48.168C65.0207 48.0227 65.0152 47.8773 65.0043 47.7324C65.0027 47.7176 65.0007 47.7023 65 47.6875C64.9964 47.6449 64.9922 47.602 64.9894 47.5598C64.9828 47.4828 64.9738 47.4059 64.9664 47.3289C64.9644 47.3121 64.9629 47.2953 64.9613 47.2789C64.9601 47.2695 64.9593 47.2594 64.9582 47.25C64.9539 47.2113 64.9507 47.1723 64.9468 47.1336C64.9414 47.0856 64.9386 47.0375 64.9328 46.9898C64.9296 46.9648 64.9257 46.9402 64.9234 46.9156C64.9199 46.8887 64.9152 46.8609 64.9117 46.834C64.8871 46.6359 64.8593 46.4387 64.8273 46.2426C64.8246 46.2254 64.8234 46.2082 64.8207 46.191L68.8992 43.1629C69.8672 42.6043 70.1984 41.3672 69.6398 40.3996L66.2683 34.5602C65.7097 33.5926 64.4722 33.2613 63.505 33.8199L58.8425 35.8383C58.8168 35.8168 58.7886 35.7984 58.7629 35.7777C58.7508 35.768 58.739 35.7582 58.7269 35.7484C58.6668 35.6996 58.6047 35.6527 58.5433 35.6047C58.4765 35.552 58.4101 35.5 58.3429 35.4492C58.2879 35.4074 58.2324 35.3668 58.1773 35.3258C58.1519 35.3063 58.1254 35.2871 58.0996 35.268C58.0543 35.2348 58.0101 35.2 57.9644 35.1672C57.9394 35.1488 57.9144 35.1309 57.889 35.1125C57.8257 35.0676 57.7617 35.0242 57.6976 34.9801C57.6816 34.9691 57.6656 34.9574 57.6492 34.9465C57.6215 34.9273 57.5933 34.9082 57.5656 34.8895C57.4722 34.8258 57.3785 34.7633 57.284 34.7016C57.2734 34.6949 57.2625 34.6883 57.2519 34.6813C57.0972 34.5813 56.9418 34.4828 56.784 34.3879C56.7437 34.3637 56.7035 34.341 56.6629 34.3172C56.3238 34.1168 55.9785 33.927 55.6254 33.7504C55.6183 33.7469 55.6121 33.7438 55.6047 33.7406C55.1472 33.5121 54.6777 33.3043 54.1976 33.1164C54.1843 33.1113 54.1711 33.1063 54.1578 33.1008C54.0965 33.077 54.0355 33.0512 53.9742 33.0277L53.391 27.9801C53.3914 26.8629 52.4859 25.957 51.3683 25.957H44.6269C43.5097 25.957 42.6043 26.8625 42.6043 27.9801L42.0211 33.0277C41.9937 33.0379 41.9675 33.0496 41.9402 33.0598C41.9086 33.0719 41.8765 33.0848 41.8449 33.0977C41.6586 33.1699 41.4742 33.2445 41.2914 33.323C41.2586 33.3367 41.2257 33.352 41.1933 33.366C41.0277 33.4383 40.8629 33.5125 40.6996 33.5895C40.6824 33.5977 40.6652 33.6063 40.648 33.6145C40.6265 33.6246 40.605 33.6344 40.5836 33.6445C40.5238 33.6734 40.4644 33.7031 40.405 33.7328C40.2679 33.8012 40.1324 33.8715 39.9976 33.9438C39.9 33.9957 39.8015 34.0469 39.7043 34.1004C39.6429 34.1348 39.5828 34.1715 39.5218 34.2063C39.5172 34.2086 39.5125 34.2117 39.5078 34.2145C39.4964 34.2211 39.4843 34.2258 39.4734 34.2324C39.4535 34.2438 39.4351 34.257 39.4156 34.268C39.1949 34.3961 38.9773 34.5293 38.7625 34.6676C38.7379 34.6832 38.7136 34.6988 38.6894 34.7148C38.6648 34.7309 38.6394 34.7469 38.6144 34.7629C38.6074 34.768 38.6 34.7719 38.5933 34.7766C38.4097 34.898 38.2289 35.0234 38.0496 35.152C38.0246 35.1699 37.9992 35.1879 37.9742 35.2063C37.7738 35.3516 37.5761 35.502 37.3816 35.6562C37.348 35.6828 37.314 35.7098 37.2808 35.7367C37.2382 35.7715 37.1945 35.8039 37.1523 35.8391L32.4961 33.8234C31.5285 33.2648 30.291 33.5965 29.7324 34.5641L26.3601 40.4024C25.8011 41.3707 26.1332 42.6078 27.1004 43.1664L31.1742 46.1906C31.166 46.2395 31.1601 46.2887 31.1523 46.3375C31.1437 46.3934 31.1355 46.4488 31.1277 46.5047C31.0937 46.7367 31.0636 46.9684 31.039 47.2C31.0343 47.2457 31.03 47.291 31.0254 47.3371C31.005 47.5445 30.9879 47.7524 30.9754 47.9598C30.9746 47.9758 30.9738 47.9922 30.973 48.0082C30.9718 48.0258 30.9714 48.0434 30.9703 48.0609C30.9675 48.1066 30.9656 48.1527 30.9632 48.1988C30.9523 48.4352 30.9464 48.6719 30.9457 48.9078C30.9453 48.941 30.9429 48.9731 30.9429 49.0063C30.9429 49.0422 30.9449 49.0785 30.9449 49.1145C30.9449 49.1406 30.9445 49.1672 30.9449 49.1934C30.9449 49.2219 30.9441 49.2504 30.9449 49.2793C30.9464 49.3758 30.9507 49.4727 30.9543 49.5692C30.9582 49.6945 30.9648 49.8195 30.9714 49.9441C30.9773 50.0492 30.9816 50.1539 30.9894 50.2586C30.9906 50.2734 30.9918 50.2887 30.9925 50.3035C30.9964 50.3555 31.0011 50.4074 31.0054 50.4586C31.0109 50.5254 31.0187 50.5918 31.025 50.6582C31.0394 50.8086 31.0539 50.9586 31.0722 51.1074C31.0722 51.1094 31.073 51.1117 31.073 51.1137C31.1004 51.3359 31.132 51.557 31.1683 51.777C31.1703 51.7895 31.1711 51.8024 31.1734 51.8156L27.1007 54.8398C26.1328 55.3984 25.8015 56.6356 26.3605 57.6027L29.7316 63.4422C30.2902 64.4102 31.5277 64.7414 32.4949 64.1828L37.1504 62.1688C37.1824 62.1953 37.2164 62.2176 37.2484 62.2434C37.2539 62.2484 37.2601 62.252 37.2656 62.2563C37.2656 62.257 37.2664 62.257 37.2664 62.2574C37.3164 62.298 37.3679 62.3371 37.4187 62.3773C37.4984 62.4402 37.5781 62.5031 37.6589 62.5645C37.7058 62.6004 37.7531 62.6348 37.8004 62.6703C37.8625 62.7164 37.9242 62.7633 37.9871 62.809C37.9941 62.8141 38.0004 62.8188 38.007 62.8242C38.0367 62.8457 38.0656 62.8672 38.0957 62.8883C38.1679 62.9399 38.2418 62.9895 38.3148 63.0395C38.3211 63.0445 38.3277 63.0484 38.3339 63.0523C38.3629 63.0727 38.3914 63.0926 38.4203 63.1117C38.6761 63.2859 38.9363 63.4543 39.2023 63.6145C39.2488 63.6422 39.2953 63.6691 39.3418 63.6957C39.675 63.8926 40.0148 64.0789 40.3621 64.2535C40.3738 64.2598 40.3859 64.2649 40.3976 64.2711C40.9234 64.5328 41.4636 64.7711 42.0183 64.9789L42.6011 70.0195C42.6011 71.1363 43.5066 72.0426 44.6242 72.0426L51.3668 72.043C52.4836 72.0426 53.3898 71.1375 53.3898 70.0195L53.973 64.9781C54.0015 64.9676 54.0289 64.9555 54.0574 64.9449C54.0855 64.9344 54.1136 64.9223 54.1414 64.9113C54.3293 64.8387 54.516 64.7633 54.7007 64.6844C54.7371 64.6691 54.773 64.6524 54.809 64.6367C54.9738 64.5645 55.1379 64.491 55.2996 64.4145C55.3148 64.4066 55.3304 64.3992 55.3457 64.3914C55.3468 64.391 55.3484 64.3902 55.35 64.3895C55.3671 64.3813 55.3851 64.3738 55.4023 64.3648C55.466 64.334 55.5297 64.3027 55.5925 64.2711C55.7273 64.2043 55.8601 64.1348 55.9922 64.0645C56.0929 64.0109 56.1937 63.959 56.2933 63.9039C56.3441 63.8758 56.3941 63.8453 56.4445 63.816C56.4613 63.8066 56.4785 63.7961 56.4953 63.7863C56.5039 63.7816 56.5129 63.7781 56.5211 63.7731C56.5359 63.7649 56.5496 63.7551 56.5644 63.7469C56.7941 63.6137 57.0211 63.475 57.2445 63.3309C57.2609 63.3203 57.2769 63.3094 57.2933 63.2996C57.3281 63.2766 57.3632 63.2551 57.3976 63.232C57.5863 63.1078 57.773 62.9785 57.9574 62.8461C57.9757 62.8332 57.9933 62.8203 58.0113 62.8066C58.2187 62.6563 58.4238 62.5012 58.6246 62.341C58.6519 62.3195 58.6796 62.2981 58.7062 62.2766C58.7515 62.2391 58.7984 62.2039 58.8437 62.1668L63.5 64.182C64.4679 64.741 65.705 64.409 66.2632 63.4414L69.6347 57.6024C70.1925 56.6348 69.8613 55.3977 68.8937 54.8391ZM48.0365 54.5363C45.8275 54.5363 44.0366 51.8504 44.0366 48.5365C44.0366 45.2227 45.8275 42.5363 48.0365 42.5363C50.2455 42.5363 52.0366 45.223 52.0366 48.5365C52.0366 51.85 50.2455 54.5363 48.0365 54.5363Z" fill="white"/>
<path d="M48.0735 55.444C47.3255 55.444 46.6435 55.29 46.0275 54.982C45.4115 54.6593 44.8835 54.19 44.4435 53.574C44.0182 52.958 43.6808 52.1953 43.4315 51.286C43.1968 50.3766 43.0795 49.328 43.0795 48.14C43.0795 46.952 43.1968 45.9106 43.4315 45.016C43.6808 44.1213 44.0182 43.3733 44.4435 42.772C44.8835 42.156 45.4115 41.7013 46.0275 41.408C46.6435 41.1 47.3255 40.946 48.0735 40.946C48.8215 40.946 49.5035 41.1 50.1195 41.408C50.7355 41.7013 51.2562 42.156 51.6815 42.772C52.1215 43.3733 52.4588 44.1213 52.6935 45.016C52.9428 45.9106 53.0675 46.952 53.0675 48.14C53.0675 49.328 52.9428 50.3766 52.6935 51.286C52.4588 52.1953 52.1215 52.958 51.6815 53.574C51.2562 54.19 50.7355 54.6593 50.1195 54.982C49.5035 55.29 48.8215 55.444 48.0735 55.444ZM48.0735 52.936C48.3522 52.936 48.6088 52.87 48.8435 52.738C49.0782 52.5913 49.2835 52.3346 49.4595 51.968C49.6355 51.6013 49.7675 51.11 49.8555 50.494C49.9582 49.878 50.0095 49.0933 50.0095 48.14C50.0095 47.1866 49.9582 46.4093 49.8555 45.808C49.7675 45.192 49.6355 44.7153 49.4595 44.378C49.2835 44.026 49.0782 43.784 48.8435 43.652C48.6088 43.52 48.3522 43.454 48.0735 43.454C47.8095 43.454 47.5602 43.52 47.3255 43.652C47.0908 43.784 46.8855 44.026 46.7095 44.378C46.5335 44.7153 46.3942 45.192 46.2915 45.808C46.1888 46.4093 46.1375 47.1866 46.1375 48.14C46.1375 49.0933 46.1888 49.878 46.2915 50.494C46.3942 51.11 46.5335 51.6013 46.7095 51.968C46.8855 52.3346 47.0908 52.5913 47.3255 52.738C47.5602 52.87 47.8095 52.936 48.0735 52.936Z" fill="#7B39D9"/>
</g>
<defs>
<linearGradient id="paint0_linear" x1="-4.05479" y1="115.1" x2="34.3621" y2="43.2765" gradientUnits="userSpaceOnUse">
<stop stop-color="#8033EB"/>
<stop offset="0.53" stop-color="#D4648E"/>
<stop offset="1" stop-color="#EC7071"/>
</linearGradient>
<clipPath id="clip0">
<rect width="106" height="88" fill="white" transform="translate(0.0770264 0.179962)"/>
</clipPath>
</defs>
</svg>
