<?xml version="1.0" encoding="UTF-8"?>
<svg width="200px" height="144px" viewBox="0 0 200 144" version="1.1" xmlns="http://www.w3.org/2000/svg" xmlns:xlink="http://www.w3.org/1999/xlink">
    <!-- Generator: Sketch 52.5 (67469) - http://www.bohemiancoding.com/sketch -->
    <title>undraw_Outer_space_drqu</title>
    <desc>Created with Sketch.</desc>
    <defs>
        <linearGradient x1="50%" y1="100%" x2="50%" y2="0.0362318841%" id="linearGradient-1">
            <stop stop-color="#808080" stop-opacity="0.25" offset="0%"></stop>
            <stop stop-color="#808080" stop-opacity="0.12" offset="54%"></stop>
            <stop stop-color="#808080" stop-opacity="0.1" offset="100%"></stop>
        </linearGradient>
        <linearGradient x1="50%" y1="99.9565972%" x2="50%" y2="0%" id="linearGradient-2">
            <stop stop-color="#808080" stop-opacity="0.25" offset="0%"></stop>
            <stop stop-color="#808080" stop-opacity="0.12" offset="54%"></stop>
            <stop stop-color="#808080" stop-opacity="0.1" offset="100%"></stop>
        </linearGradient>
        <linearGradient x1="49.9931239%" y1="100.004517%" x2="49.9931239%" y2="-0.00210674363%" id="linearGradient-3">
            <stop stop-color="#808080" stop-opacity="0.25" offset="0%"></stop>
            <stop stop-color="#808080" stop-opacity="0.12" offset="54%"></stop>
            <stop stop-color="#808080" stop-opacity="0.1" offset="100%"></stop>
        </linearGradient>
        <linearGradient x1="50.0210704%" y1="0%" x2="50.0210704%" y2="100%" id="linearGradient-4">
            <stop stop-color="#E0E0E0" offset="0%"></stop>
            <stop stop-color="#FCCC63" offset="31%"></stop>
            <stop stop-color="#F55F44" offset="77%"></stop>
        </linearGradient>
        <linearGradient x1="50%" y1="0%" x2="50%" y2="100%" id="linearGradient-5">
            <stop stop-color="#E0E0E0" offset="0%"></stop>
            <stop stop-color="#FCCC63" offset="31%"></stop>
            <stop stop-color="#F55F44" offset="77%"></stop>
        </linearGradient>
        <linearGradient x1="49.971933%" y1="99.9126132%" x2="49.971933%" y2="-0.086983954%" id="linearGradient-6">
            <stop stop-color="#808080" stop-opacity="0.25" offset="0%"></stop>
            <stop stop-color="#808080" stop-opacity="0.12" offset="54%"></stop>
            <stop stop-color="#808080" stop-opacity="0.1" offset="100%"></stop>
        </linearGradient>
        <linearGradient x1="50.2887832%" y1="99.9990848%" x2="50.2887832%" y2="0.186964431%" id="linearGradient-7">
            <stop stop-color="#808080" stop-opacity="0.25" offset="0%"></stop>
            <stop stop-color="#808080" stop-opacity="0.12" offset="54%"></stop>
            <stop stop-color="#808080" stop-opacity="0.1" offset="100%"></stop>
        </linearGradient>
    </defs>
    <g id="Home-v1" stroke="none" stroke-width="1" fill="none" fill-rule="evenodd">
        <g id="Main-page" transform="translate(-785.000000, -8049.000000)">
            <g id="Mission----as-a-developer-v2" transform="translate(274.000000, 7658.000000)">
                <g id="Boost-productivity" transform="translate(511.000000, 391.000000)">
                    <g id="undraw_Outer_space_drqu">
                        <path d="M174.494283,124.601583 C172.871972,124.74112 171.239817,124.719318 169.621812,124.5365 C151.834653,122.569921 127.613017,123.129288 107.868074,135.363237 C80.5611258,152.279683 37.766051,137.797713 18.8883026,129.919085 C4.46437995,123.901495 -3.0237467,109.162709 1.47405453,95.3280563 C1.53737907,95.1328056 1.60246262,94.937555 1.6710642,94.7423043 C4.50131926,86.5206684 10.0879507,80.0861917 17.0061566,76.6754617 C23.0360598,73.7027265 31.8399296,67.4951627 35.7572559,55.5672823 C37.3755497,50.6420405 39.5954266,46.0087951 42.4784521,41.9700967 C50.1987687,31.1539138 66.3605981,15.0466139 94.1565523,15.1468777 C99.0300074,15.1704874 103.86695,15.9892207 108.476693,17.5708004 C118.631486,21.0307828 127.80299,28.0650836 134.796834,37.8170624 C139.259455,44.0369393 145.94723,49.8188215 155.521548,50.2902375 C168.809147,50.9481091 181.489886,57.1345646 191.002639,68.1442392 C191.277045,68.4608619 191.547933,68.7792436 191.818821,69.1011434 C208.756376,89.2788039 196.992084,122.635004 174.494283,124.601583 Z" id="Path" fill="#FF6347"></path>
                        <g id="Group" opacity="0.7" transform="translate(46.437995, 117.678100)" fill="url(#linearGradient-1)">
                            <circle id="Oval" cx="2.54353562" cy="2.5171504" r="2.42744063"></circle>
                        </g>
                        <circle id="Oval" fill="#000000" opacity="0.2" cx="48.9815303" cy="120.195251" r="2.31838171"></circle>
                        <circle id="Oval" fill="#FFFFFF" cx="35.9032542" cy="72.8478452" r="1"></circle>
                        <circle id="Oval" fill="#FFFFFF" cx="99.9313984" cy="124.914688" r="1"></circle>
                        <circle id="Oval" fill="#FFFFFF" cx="62.112577" cy="129.488127" r="1"></circle>
                        <circle id="Oval" fill="#FFFFFF" cx="173.10642" cy="105.21372" r="1"></circle>
                        <circle id="Oval" fill="#FFFFFF" cx="144.434477" cy="60.1829376" r="1"></circle>
                        <circle id="Oval" fill="#FFFFFF" cx="185.067722" cy="82.1706245" r="1"></circle>
                        <circle id="Oval" fill="#FFFFFF" cx="51.7343887" cy="43.4722955" r="1"></circle>
                        <polygon id="Path" fill="#FFFFFF" points="27.0782762 104.170624 26.2796834 104.170624 26.2796834 103.372032 25.9542656 103.372032 25.9542656 104.170624 25.1556728 104.170624 25.1556728 104.496042 25.9542656 104.496042 25.9542656 105.292876 26.2796834 105.292876 26.2796834 104.496042 27.0782762 104.496042"></polygon>
                        <polygon id="Path" fill="#FFFFFF" points="47.1310466 103.818821 46.3324538 103.818821 46.3324538 103.020229 46.0070361 103.020229 46.0070361 103.818821 45.2084433 103.818821 45.2084433 104.144239 46.0070361 104.144239 46.0070361 104.941073 46.3324538 104.941073 46.3324538 104.144239 47.1310466 104.144239"></polygon>
                        <polygon id="Path" fill="#FFFFFF" points="75.8029903 120.001759 75.0043975 120.001759 75.0043975 119.203166 74.6789798 119.203166 74.6789798 120.001759 73.880387 120.001759 73.880387 120.327177 74.6789798 120.327177 74.6789798 121.124011 75.0043975 121.124011 75.0043975 120.327177 75.8029903 120.327177"></polygon>
                        <polygon id="Path" fill="#FFFFFF" points="115.737907 22.9920844 115.373791 22.9920844 115.373791 22.6279683 115.226033 22.6279683 115.226033 22.9920844 114.861917 22.9920844 114.861917 23.1398417 115.226033 23.1398417 115.226033 23.5039578 115.373791 23.5039578 115.373791 23.1398417 115.737907 23.1398417"></polygon>
                        <polygon id="Path" fill="#FFFFFF" points="167.628848 56.4133685 167.264732 56.4133685 167.264732 56.0492524 167.116974 56.0492524 167.116974 56.4133685 166.752858 56.4133685 166.752858 56.5611258 167.116974 56.5611258 167.116974 56.9252419 167.264732 56.9252419 167.264732 56.5611258 167.628848 56.5611258"></polygon>
                        <polygon id="Path" fill="#FFFFFF" points="137.021988 78.2251539 136.657872 78.2251539 136.657872 77.8610378 136.510114 77.8610378 136.510114 78.2251539 136.145998 78.2251539 136.145998 78.3729112 136.510114 78.3729112 136.510114 78.7370273 136.657872 78.7370273 136.657872 78.3729112 137.021988 78.3729112"></polygon>
                        <polygon id="Path" fill="#FFFFFF" points="12.4837291 91.9454705 12.119613 91.9454705 12.119613 91.5813544 11.9718558 91.5813544 11.9718558 91.9454705 11.6077397 91.9454705 11.6077397 92.0932278 11.9718558 92.0932278 11.9718558 92.4573439 12.119613 92.4573439 12.119613 92.0932278 12.4837291 92.0932278"></polygon>
                        <polygon id="Path" fill="#FFFFFF" points="27.4353562 121.848725 27.0712401 121.848725 27.0712401 121.484609 26.9234828 121.484609 26.9234828 121.848725 26.5593668 121.848725 26.5593668 121.996482 26.9234828 121.996482 26.9234828 122.360598 27.0712401 122.360598 27.0712401 121.996482 27.4353562 121.996482"></polygon>
                        <polygon id="Path" fill="#FFFFFF" points="74.4010554 27.3896218 74.0369393 27.3896218 74.0369393 27.0255057 73.8891821 27.0255057 73.8891821 27.3896218 73.525066 27.3896218 73.525066 27.5373791 73.8891821 27.5373791 73.8891821 27.9014952 74.0369393 27.9014952 74.0369393 27.5373791 74.4010554 27.5373791"></polygon>
                        <polygon id="Path" fill="#FFFFFF" points="52.237467 79.9841689 51.8733509 79.9841689 51.8733509 79.6200528 51.7255937 79.6200528 51.7255937 79.9841689 51.3614776 79.9841689 51.3614776 80.1319261 51.7255937 80.1319261 51.7255937 80.4960422 51.8733509 80.4960422 51.8733509 80.1319261 52.237467 80.1319261"></polygon>
                        <polygon id="Path" fill="#FFFFFF" points="56.9868074 64.8566403 56.6226913 64.8566403 56.6226913 64.4925242 56.474934 64.4925242 56.474934 64.8566403 56.1108179 64.8566403 56.1108179 65.0043975 56.474934 65.0043975 56.474934 65.3685136 56.6226913 65.3685136 56.6226913 65.0043975 56.9868074 65.0043975"></polygon>
                        <g id="Group" opacity="0.7" transform="translate(129.639402, 95.690413)" fill="url(#linearGradient-2)">
                            <circle id="Oval" cx="2.13720317" cy="2.04925242" r="2.02638522"></circle>
                        </g>
                        <circle id="Oval" fill="#000000" opacity="0.2" cx="131.776605" cy="97.7396658" r="1.87686895"></circle>
                        <circle id="Oval" fill="#000000" opacity="0.2" cx="136.830255" cy="110.951627" r="2.09850484"></circle>
                        <g id="Group" opacity="0.7" transform="translate(66.842568, 0.000000)" fill="url(#linearGradient-3)">
                            <path d="M51.182058,54.0070361 C51.1965635,49.5984288 50.1402,45.2522473 48.1037819,41.3421284 C47.1380827,39.5057168 46.2568162,38.3658751 45.5778364,37.6640281 C45.0460396,37.1022161 44.2151167,36.9422599 43.5127529,37.2664908 C43.238845,37.3636322 42.9913229,37.5232268 42.7897977,37.7326297 C41.8733509,38.6824978 41.0448549,39.9384345 40.3271768,41.2735268 C38.1860507,45.2768502 37.0755354,49.750347 37.0958663,54.2902375 L37.0958663,57.0131926 L35.3491645,57.0131926 L35.3491645,25.3491645 C35.3491645,18.7141601 33.8645558,12.1688654 30.9516271,6.36411609 C29.5725594,3.61301671 28.3131047,1.90325418 27.3474055,0.853122252 C26.8731435,0.312461252 26.1888501,0.00246148445 25.469657,0.00246148445 C24.7504639,0.00246148445 24.0661705,0.312461252 23.5919085,0.853122252 C22.2832014,2.27616535 21.1011434,4.15831135 20.0738786,6.15831135 C17.0149516,12.0897098 15.4617414,18.823219 15.4617414,25.651715 L15.4617414,57.0008795 L13.9525066,57.0008795 L13.9525066,54.1459982 C13.9716718,49.6090463 12.8611826,45.1386774 10.7211961,41.1380827 C9.99824099,39.8029903 9.16974494,38.5470536 8.2585752,37.5971856 C7.71526192,37.020177 6.85930315,36.8646778 6.14775726,37.2137203 L6.21108179,37.2471416 C5.99016966,37.3454449 5.79013985,37.4851672 5.62181179,37.6587511 C4.94459103,38.3623571 4.06332454,39.5004398 3.09762533,41.3368514 C1.06120722,45.2469703 0.00484368274,49.5931517 0.0193491645,54.001759 L0.0193491645,101.319261 L5.40897098,101.319261 L4.81442392,105.208443 L4.81442392,116.840809 L9.22251539,116.840809 L9.22251539,105.208443 L8.63324538,101.317502 L13.9454705,101.317502 L13.9454705,58.2216359 L15.4547054,58.2216359 L15.4547054,101.131047 L19.759015,101.131047 L19.1416007,105.208443 L19.1416007,116.840809 L23.5496922,116.840809 L23.5496922,105.208443 L22.9322779,101.12577 L28.7370273,101.12577 L28.116095,105.208443 L28.116095,116.840809 L32.5241865,116.840809 L32.5241865,105.208443 L31.9067722,101.12577 L35.3438874,101.12577 L35.3438874,58.2269129 L37.0905893,58.2269129 L37.0905893,101.387863 L38.5065963,101.387863 L38.5065963,101.322779 L43.1890941,101.322779 L42.6015831,105.208443 L42.6015831,116.840809 L47.0096746,116.840809 L47.0096746,105.208443 L46.4204046,101.317502 L51.182058,101.317502 L51.182058,54.0070361 Z" id="Path"></path>
                        </g>
                        <polygon id="Path" fill="#535461" points="76.939314 102.94635 72.7651715 102.94635 73.5109938 97.878628 76.1934916 97.878628"></polygon>
                        <g id="Group" opacity="0.1" transform="translate(73.175022, 98.328936)" fill="#000000">
                            <polygon id="Path" points="0.128408091 1.56200528 3.22603342 1.56200528 3.01846966 0.145998241 0.335971856 0.145998241"></polygon>
                        </g>
                        <polygon id="Path" fill="#535461" points="112.708883 102.94635 108.5365 102.94635 109.280563 97.878628 111.96482 97.878628"></polygon>
                        <g id="Group" opacity="0.1" transform="translate(109.058927, 98.328936)" fill="#000000">
                            <polygon id="Path" points="0.0140721196 1.56200528 3.11345646 1.56200528 2.9058927 0.145998241 0.221635884 0.145998241"></polygon>
                        </g>
                        <polygon id="Path" fill="#535461" points="90.5013193 102.94635 86.3289358 102.94635 87.0729991 97.878628 89.7572559 97.878628"></polygon>
                        <g id="Group" opacity="0.1" transform="translate(86.719437, 98.328936)" fill="#000000">
                            <polygon id="Path" points="0.145998241 1.56200528 3.24538259 1.56200528 3.03781882 0.145998241 0.353562005 0.145998241"></polygon>
                        </g>
                        <polygon id="Path" fill="#535461" points="98.9973615 102.94635 94.824978 102.94635 95.5690413 97.878628 98.2515391 97.878628"></polygon>
                        <g id="Group" opacity="0.1" transform="translate(95.338610, 98.328936)" fill="#000000">
                            <polygon id="Path" points="0.0228671944 1.56200528 3.12225154 1.56200528 2.91292876 0.145998241 0.230430959 0.145998241"></polygon>
                        </g>
                        <rect id="Rectangle" fill="#535461" x="76.939314" y="55.998241" width="29.8082674" height="1.19261214"></rect>
                        <path d="M111.354442,37.1627089 C111.035982,36.8109112 110.583588,36.6102135 110.109059,36.6102135 C109.63453,36.6102135 109.182136,36.8109112 108.863676,37.1627089 C107.996482,38.0879507 107.211961,39.3104661 106.527704,40.6103782 C104.497999,44.5221978 103.448297,48.8682896 103.468777,53.2752858 L103.468777,99.1574318 L116.66139,99.1574318 L116.66139,53.0817942 C116.677903,48.7967351 115.679068,44.5687155 113.746702,40.7440633 C112.830255,38.9569041 111.996482,37.8381706 111.354442,37.1627089 Z" id="Path" fill="#E0E0E0"></path>
                        <path d="M73.5233069,37.1627089 C73.8417665,36.8109112 74.2941602,36.6102135 74.7686895,36.6102135 C75.2432189,36.6102135 75.6956125,36.8109112 76.0140721,37.1627089 C76.8830255,38.0879507 77.6657872,39.3104661 78.351803,40.6103782 C80.3807142,44.5224946 81.4303681,48.8683878 81.41073,53.2752858 L81.41073,99.1574318 L68.2181179,99.1574318 L68.2181179,53.0817942 C68.2016042,48.7967351 69.2004392,44.5687155 71.1328056,40.7440633 C72.0474934,38.9569041 72.8812665,37.8381706 73.5233069,37.1627089 Z" id="Path" fill="#E0E0E0"></path>
                        <polygon id="Path" fill="#535461" points="68.2937555 54.0598065 71.4248021 54.0756376 71.4248021 57.9349164 68.2937555 57.9349164"></polygon>
                        <polygon id="Path" fill="#535461" points="78.2796834 54.0598065 81.41073 54.0756376 81.41073 57.9349164 78.2796834 57.9349164"></polygon>
                        <polygon id="Path" fill="#535461" points="103.468777 54.0598065 106.598065 54.0756376 106.598065 57.9349164 103.468777 57.9349164"></polygon>
                        <polygon id="Path" fill="#535461" points="113.454705 54.0598065 116.583993 54.0756376 116.583993 57.9349164 113.454705 57.9349164"></polygon>
                        <g id="Group" opacity="0.1" transform="translate(73.878628, 36.411609)" fill="#000000">
                            <path d="M4.47317502,4.13896218 C3.78715919,2.83905013 3.00439754,1.61653474 2.13544415,0.691292876 C1.63116652,0.132082411 0.815411323,-0.0212766865 0.142480211,0.316622691 C0.331048068,0.410718148 0.501390081,0.537581256 0.645558487,0.691292876 C1.51275286,1.61653474 2.29727353,2.83905013 2.98153034,4.13896218 C5.01136793,8.05073227 6.06107782,12.3968572 6.04045734,16.8038698 L6.04045734,62.6824978 L7.53210202,62.6824978 L7.53210202,16.8056288 C7.55209505,12.3981283 6.50242901,8.05158136 4.47317502,4.13896218 Z" id="Path"></path>
                        </g>
                        <g id="Group" opacity="0.1" transform="translate(103.254178, 36.587511)" fill="#000000">
                            <path d="M4.46613896,4.08970976 C5.15039578,2.78979771 5.93491645,1.56728232 6.80211082,0.642040457 C6.96424805,0.466814169 7.1606168,0.326721828 7.37906772,0.230430959 C6.71793975,-0.0589158606 5.94585529,0.106834382 5.46174142,0.642040457 C4.59278804,1.56728232 3.80826737,2.78979771 3.12401055,4.08970976 C1.09509936,8.00182619 0.0454454205,12.3477194 0.0650835532,16.7546174 L0.0650835532,62.6402814 L1.40721196,62.6402814 L1.40721196,16.7581354 C1.38616188,12.3499505 2.43588001,8.00258418 4.46613896,4.08970976 Z" id="Path"></path>
                        </g>
                        <path d="M74.9094107,114.274406 L74.7950748,114.274406 C73.6739901,114.274406 72.7651715,113.365588 72.7651715,112.244503 L72.7651715,102.94635 L76.939314,102.94635 L76.939314,112.244503 C76.939314,112.782867 76.7254498,113.299181 76.3447691,113.679861 C75.9640884,114.060542 75.4477745,114.274406 74.9094107,114.274406 Z" id="Path" fill="url(#linearGradient-4)"></path>
                        <path d="M88.473175,114.274406 L88.35708,114.274406 C87.2366824,114.273435 86.3289354,113.364901 86.3289358,112.244503 L86.3289358,102.94635 L90.5013193,102.94635 L90.5013193,112.244503 C90.5013197,113.364901 89.5935726,114.273435 88.473175,114.274406 Z" id="Path" fill="url(#linearGradient-5)"></path>
                        <path d="M96.9674582,114.274406 L96.8496042,114.274406 C95.730581,114.271497 94.8249742,113.36353 94.824978,112.244503 L94.824978,102.94635 L98.9973615,102.94635 L98.9973615,112.244503 C98.9973615,113.365588 98.0885428,114.274406 96.9674582,114.274406 Z" id="Path" fill="url(#linearGradient-5)"></path>
                        <path d="M110.680739,114.274406 L110.569921,114.274406 C110.030948,114.27534 109.51373,114.061889 109.132288,113.681107 C108.750846,113.300325 108.536499,112.783477 108.5365,112.244503 L108.5365,102.94635 L112.708883,102.94635 L112.708883,112.244503 C112.708883,113.364901 111.801136,114.273435 110.680739,114.274406 Z" id="Path" fill="url(#linearGradient-5)"></path>
                        <path d="M94.0949868,1.18733509 C93.6538153,0.662420238 93.0031901,0.359345277 92.3175022,0.359345277 C91.6318143,0.359345277 90.9811891,0.662420238 90.5400176,1.18733509 C89.3087071,2.57343887 88.1829376,4.40457344 87.1978892,6.35356201 C84.3025506,12.1301671 82.8320141,18.6877748 82.8320141,25.3368514 L82.8320141,98.9709763 L101.653474,98.9709763 L101.653474,25.0413369 C101.653474,18.5804749 100.246262,12.2005277 97.4951627,6.55408971 C96.2022867,3.87510994 95.0114336,2.20932278 94.0949868,1.18733509 Z" id="Path" fill="#EEEEEE"></path>
                        <rect id="Rectangle" fill="#535461" x="87.2102023" y="9.36675462" width="9.82233949" height="4.50131926" rx="2.25065963"></rect>
                        <g id="Group" opacity="0.1" transform="translate(82.849604, 27.792436)" fill="#000000">
                            <rect id="Rectangle" x="0.0844327177" y="0.07" width="18.6297274" height="1"></rect>
                        </g>
                        <path d="M134.043975,54.7634125 C133.555459,54.1218935 132.944401,53.5837803 132.246262,53.180299 C130.04777,51.912597 127.291247,52.1547376 125.347436,53.7863108 C123.403624,55.4178841 122.687339,58.0907082 123.554769,60.4756608 C124.422199,62.8606135 126.688233,64.4487397 129.226033,64.4503078 C129.354442,64.4503078 129.48285,64.4503078 129.60774,64.4362357 C131.824987,64.2963333 133.786219,62.9499139 134.713515,60.9310325 C135.640811,58.9121512 135.384303,56.5470976 134.045734,54.7739666 L134.043975,54.7634125 Z" id="Path" fill="url(#linearGradient-6)"></path>
                        <path d="M134.932278,58.4010554 C134.931797,61.413136 132.590937,63.9064603 129.584872,64.0967458 C129.467018,64.0967458 129.345646,64.1090589 129.224274,64.1090589 C126.823004,64.1104901 124.677439,62.6093706 123.855777,60.353052 C123.034116,58.0967334 123.711963,55.567439 125.551845,54.0244106 C127.391727,52.4813822 130.000421,52.2543978 132.079156,53.4564644 C132.740276,53.8400702 133.318007,54.352014 133.778364,54.9621812 C134.528412,55.9516015 134.933714,57.1594749 134.932278,58.4010554 Z" id="Path" fill="#000000" opacity="0.2"></path>
                        <path d="M127.818821,54.7792436 C127.523728,54.90624 127.239065,55.0562175 126.967458,55.2277924 C126.786138,55.3268411 126.630206,55.4665173 126.511873,55.6358839 C126.391898,55.8102792 126.387743,56.039489 126.501319,56.2181179 C126.640281,56.4080915 126.907652,56.4362357 127.14336,56.4503078 C127.390879,56.4818358 127.642329,56.4565706 127.878628,56.3764292 C128.038181,56.2975145 128.183282,56.1922565 128.307828,56.0650836 L128.798593,55.6200528 C128.974494,55.4652595 129.150396,55.2524186 129.081794,55.0343008 C128.999357,54.8760334 128.842518,54.7701503 128.664908,54.7528584 C128.241836,54.6704265 127.803225,54.7474966 127.433597,54.9692172" id="Path" fill="#000000" opacity="0.1"></path>
                        <g id="Group" opacity="0.1" transform="translate(125.417766, 60.334213)" fill="#000000">
                            <circle id="Oval" cx="0.5" cy="0.455" r="1"></circle>
                        </g>
                        <g id="Group" opacity="0.1" transform="translate(130.694811, 57.519789)" fill="#000000">
                            <circle id="Oval" cx="1.18205805" cy="1.23131047" r="1.10114336"></circle>
                        </g>
                        <g id="Group" opacity="0.1" transform="translate(130.694811, 53.298153)" fill="#000000">
                            <path d="M3.0941073,1.66402814 C3.08517469,2.46561556 2.44840586,3.11895337 1.64731224,3.14846937 C0.846218616,3.17798538 0.163097579,2.57327844 0.0952008678,1.77452177 C0.0273041566,0.975765098 0.598557892,0.264432546 1.39313984,0.158311346 C2.054893,0.541726888 2.63323539,1.0536825 3.0941073,1.66402814 Z" id="Path"></path>
                        </g>
                        <g id="Group" opacity="0.1" transform="translate(129.463500, 61.037819)" fill="#000000">
                            <path d="M4.42744063,0.649076517 C3.43279715,2.06490288 1.84832567,2.95163733 0.121372032,3.058927 C0.121372032,2.97977133 0.110817942,2.90061566 0.110817942,2.81970097 C0.111794499,1.79813707 0.688122083,0.864238172 1.6007933,0.405299182 C2.51346451,-0.0536398069 3.60682141,0.0406541033 4.42744063,0.649076517 Z" id="Path"></path>
                        </g>
                        <path d="M56.0703606,87.3491645 C55.7297591,86.8988117 55.3027924,86.5208805 54.8144239,86.237467 C53.2778697,85.3359943 51.340803,85.4960888 49.9730964,86.6375924 C48.6053898,87.779096 48.1014425,89.6563 48.7135764,91.3293044 C49.3257104,93.0023088 50.9221637,94.1109992 52.703606,94.1002639 C52.7933157,94.1002639 52.8795075,94.1002639 52.9709763,94.0914688 C54.5149112,93.9875429 55.8782569,93.0472492 56.523973,91.6409824 C57.169689,90.2347156 56.9942803,88.5878714 56.0668426,87.3491645 L56.0703606,87.3491645 Z" id="Path" fill="url(#linearGradient-7)"></path>
                        <path d="M56.6895339,89.887423 C56.6890889,91.9888557 55.0558998,93.728306 52.9586631,93.8610378 C52.8759894,93.8610378 52.7827617,93.8610378 52.707124,93.8610378 C51.0331809,93.8606297 49.5381744,92.8134667 48.9657602,91.2404354 C48.3933459,89.667404 48.8657262,87.9043238 50.1479266,86.8281975 C51.430127,85.7520712 53.2484161,85.5926362 54.6983289,86.4291996 C55.1602525,86.698001 55.5634304,87.056913 55.883905,87.4846086 C56.4083185,88.1757189 56.6913518,89.019875 56.6895339,89.887423 Z" id="Path" fill="#000000" opacity="0.2"></path>
                        <path d="M51.7255937,87.3614776 C51.5199036,87.449059 51.3216574,87.5531824 51.1328056,87.6728232 C51.0069046,87.7430874 50.8981638,87.8404134 50.8144239,87.9577836 C50.7346017,88.0814672 50.7346017,88.2404325 50.8144239,88.3641161 C50.9325608,88.48074 51.0957938,88.5398637 51.2612137,88.5259455 C51.4340755,88.5482525 51.6097486,88.5308055 51.7748461,88.474934 C51.8866883,88.4197033 51.9883857,88.3459577 52.0756376,88.2568162 L52.4168865,87.9472296 C52.5364996,87.8381706 52.6666667,87.6904134 52.6138962,87.5391381 C52.5591251,87.4264787 52.4485798,87.3514419 52.3236588,87.3421284 C52.0292337,87.2844669 51.7238866,87.3383885 51.4670185,87.4934037" id="Path" fill="#000000" opacity="0.1"></path>
                        <g id="Group" opacity="0.1" transform="translate(49.956025, 91.116974)" fill="#000000">
                            <circle id="Oval" cx="0.4825" cy="0.485" r="1"></circle>
                        </g>
                        <g id="Group" opacity="0.1" transform="translate(53.649956, 89.357960)" fill="#000000">
                            <circle id="Oval" cx="0.907651715" cy="0.773966579" r="1"></circle>
                        </g>
                        <g id="Group" opacity="0.1" transform="translate(53.649956, 86.367634)" fill="#000000">
                            <path d="M2.235708,1.12049252 C2.23127697,1.68514357 1.78319441,2.14627774 1.21890321,2.16691449 C0.654612007,2.18755124 0.1740431,1.76037887 0.128379248,1.19755985 C0.082715397,0.634740834 0.488135511,0.135684493 1.04837291,0.0650835532 C1.51092993,0.33369375 1.91471947,0.692617784 2.235708,1.12049252 Z" id="Path"></path>
                        </g>
                        <g id="Group" opacity="0.1" transform="translate(52.946350, 91.644679)" fill="#000000">
                            <path d="M3.01671064,0.534740545 C2.32269552,1.52257067 1.21723397,2.14131847 0.0123131047,2.21635884 C0.0123131047,2.16182938 0.0123131047,2.1055409 0.0123131047,2.04045734 C0.0129632243,1.32776096 0.415006991,0.676205413 1.05171672,0.355990997 C1.68842646,0.0357765815 2.45121229,0.101515372 3.0237467,0.525945471 L3.01671064,0.534740545 Z" id="Path"></path>
                        </g>
                        <polyline id="Path" points="147.526825 94.8847845 151.361478 96.9252419 148.367634 100.274406"></polyline>
                        <circle id="Oval" fill="#FFFFFF" cx="168.144239" cy="75.3262973" r="1"></circle>
                    </g>
                </g>
            </g>
        </g>
    </g>
</svg>