<?xml version="1.0" encoding="UTF-8"?>
<svg width="50px" height="50px" viewBox="0 0 50 50" version="1.1" xmlns="http://www.w3.org/2000/svg" xmlns:xlink="http://www.w3.org/1999/xlink">
    <!-- Generator: Sketch 50.2 (55047) - http://www.bohemiancoding.com/sketch -->
    <title>Icon</title>
    <desc>Created with Sketch.</desc>
    <defs></defs>
    <g id="Home-v1" stroke="none" stroke-width="1" fill="none" fill-rule="evenodd">
        <g id="Main-page" transform="translate(-650.000000, -4183.000000)">
            <g id="Made-for-devs" transform="translate(72.000000, 2829.000000)">
                <g id="Features" transform="translate(205.000000, 383.000000)">
                    <g id="I18N" transform="translate(352.000000, 944.000000)">
                        <g id="Icon" transform="translate(21.000000, 27.000000)">
                            <circle id="Oval-2" fill-opacity="0.605242301" fill="#A28FE3" cx="25" cy="25" r="25"></circle>
                            <g id="globe" transform="translate(8.000000, 8.000000)" fill="#534189" fill-rule="nonzero">
                                <path d="M23.7449597,10.7258065 C22.7217742,4.42439516 20.3084677,0 17.5,0 C14.6915323,0 12.2782258,4.42439516 11.2550403,10.7258065 L23.7449597,10.7258065 Z M10.7258065,17.5 C10.7258065,19.0665323 10.8104839,20.5695565 10.9586694,22.016129 L24.0342742,22.016129 C24.1824597,20.5695565 24.2671371,19.0665323 24.2671371,17.5 C24.2671371,15.9334677 24.1824597,14.4304435 24.0342742,12.983871 L10.9586694,12.983871 C10.8104839,14.4304435 10.7258065,15.9334677 10.7258065,17.5 Z M33.6381048,10.7258065 C31.6199597,5.93447581 27.5342742,2.22983871 22.4889113,0.733870968 C24.2106855,3.11895161 25.3961694,6.71068548 26.0171371,10.7258065 L33.6381048,10.7258065 Z M12.5040323,0.733870968 C7.46572581,2.22983871 3.37298387,5.93447581 1.36189516,10.7258065 L8.9828629,10.7258065 C9.59677419,6.71068548 10.7822581,3.11895161 12.5040323,0.733870968 Z M34.3931452,12.983871 L26.2993952,12.983871 C26.4475806,14.4657258 26.5322581,15.9828629 26.5322581,17.5 C26.5322581,19.0171371 26.4475806,20.5342742 26.2993952,22.016129 L34.3860887,22.016129 C34.7741935,20.5695565 34.9929435,19.0665323 34.9929435,17.5 C34.9929435,15.9334677 34.7741935,14.4304435 34.3931452,12.983871 Z M8.46774194,17.5 C8.46774194,15.9828629 8.55241935,14.4657258 8.70060484,12.983871 L0.606854839,12.983871 C0.225806452,14.4304435 0,15.9334677 0,17.5 C0,19.0665323 0.225806452,20.5695565 0.606854839,22.016129 L8.69354839,22.016129 C8.55241935,20.5342742 8.46774194,19.0171371 8.46774194,17.5 Z M11.2550403,24.2741935 C12.2782258,30.5756048 14.6915323,35 17.5,35 C20.3084677,35 22.7217742,30.5756048 23.7449597,24.2741935 L11.2550403,24.2741935 Z M22.4959677,34.266129 C27.5342742,32.7701613 31.6270161,29.0655242 33.6451613,24.2741935 L26.0241935,24.2741935 C25.4032258,28.2893145 24.2177419,31.8810484 22.4959677,34.266129 Z M1.36189516,24.2741935 C3.38004032,29.0655242 7.46572581,32.7701613 12.5110887,34.266129 C10.7893145,31.8810484 9.60383065,28.2893145 8.9828629,24.2741935 L1.36189516,24.2741935 Z" id="Shape"></path>
                            </g>
                        </g>
                    </g>
                </g>
            </g>
        </g>
    </g>
</svg>