<?xml version="1.0" encoding="UTF-8"?>
<svg width="50px" height="50px" viewBox="0 0 50 50" version="1.1" xmlns="http://www.w3.org/2000/svg" xmlns:xlink="http://www.w3.org/1999/xlink">
    <!-- Generator: Sketch 52.5 (67469) - http://www.bohemiancoding.com/sketch -->
    <title>Icon-integrations</title>
    <desc>Created with Sketch.</desc>
    <g id="Home-v1" stroke="none" stroke-width="1" fill="none" fill-rule="evenodd">
        <g id="Main-page" transform="translate(-651.000000, -6323.000000)">
            <g id="Made-for-devs" transform="translate(72.000000, 3974.000000)">
                <g id="Features" transform="translate(205.000000, 1378.000000)">
                    <g id="I18N" transform="translate(352.000000, 944.000000)">
                        <g id="Icon-integrations" transform="translate(22.000000, 27.000000)">
                            <circle id="Oval-2" fill-opacity="0.605242301" fill="#A28FE3" cx="25" cy="25" r="25"></circle>
                            <g id="round-extension-24px-(1)" transform="translate(9.000000, 9.000000)">
                                <polygon id="Path" points="0 0 32 0 32 32 0 32"></polygon>
                                <path d="M27.3333333,14.6666667 L25.3333333,14.6666667 L25.3333333,9.33333333 C25.3333333,7.86666667 24.1333333,6.66666667 22.6666667,6.66666667 L17.3333333,6.66666667 L17.3333333,4.66666667 C17.3333333,2.82666667 15.84,1.33333333 14,1.33333333 C12.16,1.33333333 10.6666667,2.82666667 10.6666667,4.66666667 L10.6666667,6.66666667 L5.33333333,6.66666667 C3.86666667,6.66666667 2.68,7.86666667 2.68,9.33333333 L2.68,14.4 L4.66666667,14.4 C6.65333333,14.4 8.26666667,16.0133333 8.26666667,18 C8.26666667,19.9866667 6.65333333,21.6 4.66666667,21.6 L2.66666667,21.6 L2.66666667,26.6666667 C2.66666667,28.1333333 3.86666667,29.3333333 5.33333333,29.3333333 L10.4,29.3333333 L10.4,27.3333333 C10.4,25.3466667 12.0133333,23.7333333 14,23.7333333 C15.9866667,23.7333333 17.6,25.3466667 17.6,27.3333333 L17.6,29.3333333 L22.6666667,29.3333333 C24.1333333,29.3333333 25.3333333,28.1333333 25.3333333,26.6666667 L25.3333333,21.3333333 L27.3333333,21.3333333 C29.1733333,21.3333333 30.6666667,19.84 30.6666667,18 C30.6666667,16.16 29.1733333,14.6666667 27.3333333,14.6666667 Z" id="Path" fill="#534189"></path>
                            </g>
                        </g>
                    </g>
                </g>
            </g>
        </g>
    </g>
</svg>