<?xml version="1.0" encoding="UTF-8"?>
<svg width="50px" height="50px" viewBox="0 0 50 50" version="1.1" xmlns="http://www.w3.org/2000/svg" xmlns:xlink="http://www.w3.org/1999/xlink">
    <!-- Generator: Sketch 50.2 (55047) - http://www.bohemiancoding.com/sketch -->
    <title>Icon</title>
    <desc>Created with Sketch.</desc>
    <defs></defs>
    <g id="Home-v1" stroke="none" stroke-width="1" fill="none" fill-rule="evenodd">
        <g id="Main-page" transform="translate(-650.000000, -3863.000000)">
            <g id="Made-for-devs" transform="translate(72.000000, 2829.000000)">
                <g id="Features" transform="translate(205.000000, 383.000000)">
                    <g id="Material-Theme" transform="translate(352.000000, 624.000000)">
                        <g id="Icon" transform="translate(21.000000, 27.000000)">
                            <circle id="Oval-2" fill-opacity="0.605242301" fill="#F8D3EF" cx="25" cy="25" r="25"></circle>
                            <g id="baseline-color_lens-24px" transform="translate(5.000000, 5.000000)">
                                <path d="M20,5 C11.7166667,5 5,11.7166667 5,20 C5,28.2833333 11.7166667,35 20,35 C21.3833333,35 22.5,33.8833333 22.5,32.5 C22.5,31.85 22.25,31.2666667 21.85,30.8166667 C21.4666667,30.3833333 21.2166667,29.8 21.2166667,29.1666667 C21.2166667,27.7833333 22.3333333,26.6666667 23.7166667,26.6666667 L26.6666667,26.6666667 C31.2666667,26.6666667 35,22.9333333 35,18.3333333 C35,10.9666667 28.2833333,5 20,5 Z M10.8333333,20 C9.45,20 8.33333333,18.8833333 8.33333333,17.5 C8.33333333,16.1166667 9.45,15 10.8333333,15 C12.2166667,15 13.3333333,16.1166667 13.3333333,17.5 C13.3333333,18.8833333 12.2166667,20 10.8333333,20 Z M15.8333333,13.3333333 C14.45,13.3333333 13.3333333,12.2166667 13.3333333,10.8333333 C13.3333333,9.45 14.45,8.33333333 15.8333333,8.33333333 C17.2166667,8.33333333 18.3333333,9.45 18.3333333,10.8333333 C18.3333333,12.2166667 17.2166667,13.3333333 15.8333333,13.3333333 Z M24.1666667,13.3333333 C22.7833333,13.3333333 21.6666667,12.2166667 21.6666667,10.8333333 C21.6666667,9.45 22.7833333,8.33333333 24.1666667,8.33333333 C25.55,8.33333333 26.6666667,9.45 26.6666667,10.8333333 C26.6666667,12.2166667 25.55,13.3333333 24.1666667,13.3333333 Z M29.1666667,20 C27.7833333,20 26.6666667,18.8833333 26.6666667,17.5 C26.6666667,16.1166667 27.7833333,15 29.1666667,15 C30.55,15 31.6666667,16.1166667 31.6666667,17.5 C31.6666667,18.8833333 30.55,20 29.1666667,20 Z" id="Shape" fill="#CB88D4" fill-rule="nonzero"></path>
                                <polygon id="Shape" points="0 0 40 0 40 40 0 40"></polygon>
                            </g>
                        </g>
                    </g>
                </g>
            </g>
        </g>
    </g>
</svg>