<?xml version="1.0" encoding="UTF-8"?>
<svg width="50px" height="50px" viewBox="0 0 50 50" version="1.1" xmlns="http://www.w3.org/2000/svg" xmlns:xlink="http://www.w3.org/1999/xlink">
    <!-- Generator: Sketch 55.2 (78181) - https://sketchapp.com -->
    <title>multilanguage</title>
    <desc>Created with Sketch.</desc>
    <g id="Icons" stroke="none" stroke-width="1" fill="none" fill-rule="evenodd">
        <g id="multilanguage" fill-rule="nonzero">
            <circle id="Oval-2" fill="#CBDCE9" cx="25" cy="25" r="25"></circle>
            <g id="globe-solid" transform="translate(11.000000, 10.000000)" fill="#1A5690">
                <path d="M18.9997983,8.58064516 C18.1810849,3.53951613 16.2500504,0 14.0028231,0 C11.7555959,0 9.8245614,3.53951613 9.00584795,8.58064516 L18.9997983,8.58064516 Z M8.58237548,14 C8.58237548,15.2532258 8.65013107,16.4556452 8.76870337,17.6129032 L19.2312966,17.6129032 C19.3498689,16.4556452 19.4176245,15.2532258 19.4176245,14 C19.4176245,12.7467742 19.3498689,11.5443548 19.2312966,10.3870968 L8.76870337,10.3870968 C8.65013107,11.5443548 8.58237548,12.7467742 8.58237548,14 Z M26.9159105,8.58064516 C25.3010688,4.74758065 22.0318613,1.78387097 17.994757,0.587096774 C19.3724541,2.49516129 20.3210325,5.36854839 20.8179068,8.58064516 L26.9159105,8.58064516 Z M10.005243,0.587096774 C5.97378504,1.78387097 2.69893124,4.74758065 1.08973583,8.58064516 L7.18773946,8.58064516 C7.67896753,5.36854839 8.62754588,2.49516129 10.005243,0.587096774 Z M27.5200645,10.3870968 L21.0437588,10.3870968 C21.1623311,11.5725806 21.2300867,12.7862903 21.2300867,14 C21.2300867,15.2137097 21.1623311,16.4274194 21.0437588,17.6129032 L27.5144182,17.6129032 C27.8249647,16.4556452 28,15.2532258 28,14 C28,12.7467742 27.8249647,11.5443548 27.5200645,10.3870968 Z M6.77555959,14 C6.77555959,12.7862903 6.84331518,11.5725806 6.96188748,10.3870968 L0.485581771,10.3870968 C0.180681589,11.5443548 0,12.7467742 0,14 C0,15.2532258 0.180681589,16.4556452 0.485581771,17.6129032 L6.95624118,17.6129032 C6.84331518,16.4274194 6.77555959,15.2137097 6.77555959,14 Z M9.00584795,19.4193548 C9.8245614,24.4604839 11.7555959,28 14.0028231,28 C16.2500504,28 18.1810849,24.4604839 18.9997983,19.4193548 L9.00584795,19.4193548 Z M18.0004033,27.4129032 C22.0318613,26.216129 25.3067151,23.2524194 26.9215568,19.4193548 L20.8235531,19.4193548 C20.3266788,22.6314516 19.3781004,25.5048387 18.0004033,27.4129032 Z M1.08973583,19.4193548 C2.70457754,23.2524194 5.97378504,26.216129 10.0108893,27.4129032 C8.63319218,25.5048387 7.68461383,22.6314516 7.18773946,19.4193548 L1.08973583,19.4193548 Z" id="Shape"></path>
            </g>
        </g>
    </g>
</svg>