<svg xmlns="http://www.w3.org/2000/svg" xmlns:xlink="http://www.w3.org/1999/xlink" viewBox="0 0 900 450"><defs><linearGradient id="a" x1="264.24" y1="118.27" x2="367.37" y2="58.11" gradientUnits="userSpaceOnUse"><stop offset="0" stop-color="#8033eb"/><stop offset="0.53" stop-color="#d4648e"/><stop offset="1" stop-color="#ec7071"/></linearGradient><linearGradient id="b" x1="263.76" y1="129.72" x2="373.43" y2="65.75" gradientUnits="userSpaceOnUse"><stop offset="0" stop-color="#9b5eef"/><stop offset="1" stop-color="#6731ce"/></linearGradient><linearGradient id="c" x1="263.76" y1="163.63" x2="373.43" y2="99.66" xlink:href="#b"/><linearGradient id="d" x1="263.76" y1="197.55" x2="373.43" y2="133.58" xlink:href="#b"/><linearGradient id="e" x1="263.76" y1="231.46" x2="373.43" y2="167.49" xlink:href="#b"/><linearGradient id="f" x1="263.76" y1="265.38" x2="373.43" y2="201.41" xlink:href="#b"/><linearGradient id="g" x1="263.76" y1="299.29" x2="373.43" y2="235.32" xlink:href="#b"/><linearGradient id="h" x1="263.76" y1="333.21" x2="373.43" y2="269.24" xlink:href="#b"/><linearGradient id="i" x1="263.76" y1="367.12" x2="373.43" y2="303.15" xlink:href="#b"/><linearGradient id="j" x1="510.42" y1="127.05" x2="520.18" y2="127.05" gradientUnits="userSpaceOnUse"><stop offset="0" stop-color="#8033eb"/><stop offset="1" stop-color="#6731ce"/></linearGradient><linearGradient id="k" x1="510.42" y1="160.44" x2="520.18" y2="160.44" xlink:href="#j"/><linearGradient id="l" x1="510.42" y1="193.84" x2="520.18" y2="193.84" xlink:href="#j"/><linearGradient id="m" x1="510.42" y1="227.23" x2="520.18" y2="227.23" xlink:href="#j"/><linearGradient id="n" x1="510.42" y1="260.63" x2="520.18" y2="260.63" xlink:href="#j"/><linearGradient id="o" x1="510.42" y1="294.02" x2="520.18" y2="294.02" xlink:href="#j"/><linearGradient id="p" x1="510.42" y1="327.42" x2="520.18" y2="327.42" xlink:href="#j"/><linearGradient id="q" x1="510.42" y1="360.81" x2="520.18" y2="360.81" xlink:href="#j"/><linearGradient id="r" x1="369.2" y1="127.05" x2="378.97" y2="127.05" xlink:href="#j"/><linearGradient id="s" x1="369.2" y1="160.44" x2="378.97" y2="160.44" xlink:href="#j"/><linearGradient id="t" x1="369.2" y1="193.84" x2="378.97" y2="193.84" xlink:href="#j"/><linearGradient id="u" x1="369.2" y1="227.23" x2="378.97" y2="227.23" xlink:href="#j"/><linearGradient id="v" x1="369.2" y1="260.63" x2="378.97" y2="260.63" xlink:href="#j"/><linearGradient id="w" x1="369.2" y1="294.02" x2="378.97" y2="294.02" xlink:href="#j"/><linearGradient id="x" x1="369.2" y1="327.42" x2="378.97" y2="327.42" xlink:href="#j"/><linearGradient id="y" x1="369.2" y1="360.81" x2="378.97" y2="360.81" xlink:href="#j"/><linearGradient id="z" x1="377.6" y1="127.05" x2="511.79" y2="127.05" xlink:href="#j"/><linearGradient id="aa" x1="377.6" y1="160.44" x2="511.79" y2="160.44" xlink:href="#j"/><linearGradient id="ab" x1="377.6" y1="193.83" x2="511.79" y2="193.83" xlink:href="#j"/><linearGradient id="ac" x1="377.6" y1="227.23" x2="511.79" y2="227.23" xlink:href="#j"/><linearGradient id="ad" x1="377.6" y1="260.62" x2="511.79" y2="260.62" xlink:href="#j"/><linearGradient id="ae" x1="377.6" y1="294.01" x2="511.79" y2="294.01" xlink:href="#j"/><linearGradient id="af" x1="377.6" y1="327.41" x2="511.79" y2="327.41" xlink:href="#j"/><linearGradient id="ag" x1="377.6" y1="360.8" x2="511.79" y2="360.8" xlink:href="#j"/></defs><title>Artboard 2 copy 5</title><path d="M202.26,305.79A12.24,12.24,0,0,1,190,318H138.68a12.24,12.24,0,0,1-12.24-12.25h0a12.24,12.24,0,0,1,12.24-12.24H190a12.24,12.24,0,0,1,12.25,12.24Z" style="fill:#f2f2f2"/><path d="M364.84,389.75a32.92,32.92,0,1,1-32.92-32.92A32.92,32.92,0,0,1,364.84,389.75Z" style="fill:#f2f2f2"/><path d="M213,173.05s-58.87,30.26-87.38,15.68-31.11-40.07-19.71-80.41,39.66-63.25,83.48-33.16S261.24,144.47,213,173.05Z" style="fill:#f2f2f2"/><polygon points="374.66 113.87 271.78 147.79 168.91 113.87 271.78 79.94 374.66 113.87" style="fill:url(#a)"/><polygon points="374.66 136.21 271.78 170.13 168.91 136.21 168.91 113.87 271.78 147.79 374.66 113.87 374.66 136.21" style="fill:url(#b)"/><polygon points="271.78 147.79 271.78 170.13 374.66 136.21 374.66 113.87 271.78 147.79" style="fill:#5519c9"/><polygon points="374.66 170.12 271.78 204.05 168.91 170.12 168.91 147.78 271.78 181.71 374.66 147.78 374.66 170.12" style="fill:url(#c)"/><polygon points="271.78 181.71 271.78 204.05 374.66 170.12 374.66 147.78 271.78 181.71" style="fill:#5519c9"/><polygon points="374.66 204.04 271.78 237.96 168.91 204.04 168.91 181.7 271.78 215.62 374.66 181.7 374.66 204.04" style="fill:url(#d)"/><polygon points="271.78 215.62 271.78 237.96 374.66 204.04 374.66 181.7 271.78 215.62" style="fill:#5519c9"/><polygon points="374.66 237.95 271.78 271.88 168.91 237.95 168.91 215.61 271.78 249.54 374.66 215.61 374.66 237.95" style="fill:url(#e)"/><polygon points="271.78 249.54 271.78 271.88 374.66 237.95 374.66 215.61 271.78 249.54" style="fill:#5519c9"/><polygon points="374.66 271.87 271.78 305.79 168.91 271.87 168.91 249.53 271.78 283.45 374.66 249.53 374.66 271.87" style="fill:url(#f)"/><polygon points="271.78 283.45 271.78 305.79 374.66 271.87 374.66 249.53 271.78 283.45" style="fill:#5519c9"/><polygon points="374.66 305.78 271.78 339.71 168.91 305.78 168.91 283.44 271.78 317.37 374.66 283.44 374.66 305.78" style="fill:url(#g)"/><polygon points="271.78 317.37 271.78 339.71 374.66 305.78 374.66 283.44 271.78 317.37" style="fill:#5519c9"/><polygon points="374.66 339.7 271.78 373.62 168.91 339.7 168.91 317.36 271.78 351.28 374.66 317.36 374.66 339.7" style="fill:url(#h)"/><polygon points="271.78 351.28 271.78 373.62 374.66 339.7 374.66 317.36 271.78 351.28" style="fill:#5519c9"/><polygon points="374.66 373.61 271.78 407.54 168.91 373.61 168.91 351.27 271.78 385.2 374.66 351.27 374.66 373.61" style="fill:url(#i)"/><polygon points="271.78 385.2 271.78 407.54 374.66 373.61 374.66 351.27 271.78 385.2" style="fill:#5519c9"/><path d="M416.81,78a19.36,19.36,0,1,1-19.36-19.35A19.35,19.35,0,0,1,416.81,78Z" style="fill:#f2f2f2"/><path d="M537.2,121.84a3.85,3.85,0,0,1,1.15.56,2.46,2.46,0,0,1,.73.88,2.87,2.87,0,0,1,.1,2.14,2.45,2.45,0,0,1-.4.73,2.42,2.42,0,0,1-.57.54,4.13,4.13,0,0,1-.65.36,4.62,4.62,0,0,1,.94.38,3,3,0,0,1,.76.55,2.46,2.46,0,0,1,.51.77,2.51,2.51,0,0,1,.19,1,2.92,2.92,0,0,1-.29,1.3,2.6,2.6,0,0,1-.82,1,3.75,3.75,0,0,1-1.29.6,6.13,6.13,0,0,1-1.66.21h-5v-11.2h4.76A5.39,5.39,0,0,1,537.2,121.84Zm.15,4.28a1.74,1.74,0,0,0,.72-1.51,1.61,1.61,0,0,0-.64-1.35,2.91,2.91,0,0,0-1.83-.5h-3.4v3.87h3.3A3.09,3.09,0,0,0,537.35,126.12Zm.61,5.07a1.73,1.73,0,0,0,.74-1.49,1.64,1.64,0,0,0-.75-1.44,4,4,0,0,0-2.22-.51H532.2v4H536A3.4,3.4,0,0,0,538,131.19Z" style="fill:#6731cf"/><path d="M548.15,124.57h1.22v8.27h-1.22V131.4a3.84,3.84,0,0,1-1.09,1.15,3,3,0,0,1-1.74.47,3.52,3.52,0,0,1-1.34-.24,2.78,2.78,0,0,1-1-.68,3,3,0,0,1-.62-1,3.85,3.85,0,0,1-.22-1.34v-5.14h1.23v4.83a2.65,2.65,0,0,0,.6,1.83,2.15,2.15,0,0,0,1.69.67,2.53,2.53,0,0,0,1-.19,2.18,2.18,0,0,0,.78-.52,2.6,2.6,0,0,0,.52-.83,2.76,2.76,0,0,0,.19-1.05Z" style="fill:#6731cf"/><path d="M552.17,122.76V121.4h1.41v1.36Zm.08,10.08v-8.27h1.23v8.27Z" style="fill:#6731cf"/><path d="M556.46,132.84V121.16h1.23v11.68Z" style="fill:#6731cf"/><path d="M562.22,130.49a1.28,1.28,0,0,0,.38,1.07,1.6,1.6,0,0,0,1,.31,2.9,2.9,0,0,0,.6-.07,3.19,3.19,0,0,0,.6-.22v1a2.84,2.84,0,0,1-.68.27,3.35,3.35,0,0,1-.81.09,3.48,3.48,0,0,1-.93-.13,1.84,1.84,0,0,1-1.23-1.14,2.85,2.85,0,0,1-.18-1.07v-5h-1.15v-1.09H561v-2.5h1.24v2.5h2.62v1.09h-2.62Z" style="fill:#6731cf"/><path d="M566.68,128.68v-1.29h4.45v1.29Z" style="fill:#6731cf"/><path d="M573.58,122.76V121.4H575v1.36Zm.08,10.08v-8.27h1.23v8.27Z" style="fill:#6731cf"/><path d="M579,132.84h-1.23v-8.27H579V126a3.82,3.82,0,0,1,1.09-1.14,3,3,0,0,1,1.75-.48,3.47,3.47,0,0,1,1.33.24,2.78,2.78,0,0,1,1,.68,3.1,3.1,0,0,1,.63,1,4.11,4.11,0,0,1,.21,1.35v5.13h-1.23V128a2.66,2.66,0,0,0-.59-1.82,2.15,2.15,0,0,0-1.7-.68,2.63,2.63,0,0,0-1,.19,2.33,2.33,0,0,0-1.31,1.35,2.78,2.78,0,0,0-.19,1.06Z" style="fill:#6731cf"/><path d="M603.05,132.84h-1.36l-1.31-3h-6.1l-1.33,3h-1.3l5.11-11.28h1.18Zm-5.72-9.79-2.56,5.71h5.11Z" style="fill:#6731cf"/><path d="M613.29,131.87a5.47,5.47,0,0,1-1,.62,5.76,5.76,0,0,1-2.56.54,5.67,5.67,0,0,1-2.24-.44,5.56,5.56,0,0,1-1.78-1.23,5.62,5.62,0,0,1-1.17-1.83,6.18,6.18,0,0,1,0-4.53,5.82,5.82,0,0,1,1.17-1.85,5.62,5.62,0,0,1,4.07-1.7,6.47,6.47,0,0,1,1.38.13,5.06,5.06,0,0,1,1.14.36,4.71,4.71,0,0,1,1,.56,8.41,8.41,0,0,1,.87.73l-.87.92a7.37,7.37,0,0,0-1.54-1.1,4.19,4.19,0,0,0-2-.43A4.26,4.26,0,0,0,608,123a4,4,0,0,0-1.37,1,4.48,4.48,0,0,0-.92,1.46,5.34,5.34,0,0,0,0,3.64,4.42,4.42,0,0,0,.92,1.47,4.14,4.14,0,0,0,3.09,1.35,4.39,4.39,0,0,0,2-.43,7.1,7.1,0,0,0,1.63-1.19l.83.82A8.54,8.54,0,0,1,613.29,131.87Z" style="fill:#6731cf"/><path d="M616.41,121.64h1.26v10H624v1.17h-7.56Z" style="fill:#6731cf"/><path d="M536.31,162.77h-.06l-4.08-6v9.05h-1.23v-11.2h1.28l4.08,6.11,4.08-6.11h1.28v11.2h-1.27v-9.07Z" style="fill:#6731cf"/><path d="M552.4,163.37a4.34,4.34,0,0,1-.9,1.38,4.28,4.28,0,0,1-3.11,1.28,4.18,4.18,0,0,1-1.71-.34,4.24,4.24,0,0,1-2.26-2.3,4.38,4.38,0,0,1-.32-1.66,4.38,4.38,0,0,1,1.22-3.06,4.26,4.26,0,0,1,1.37-.93,4.31,4.31,0,0,1,1.73-.35,4.34,4.34,0,0,1,3.09,1.28,4,4,0,0,1,.9,1.36,4.47,4.47,0,0,1,.32,1.67A4.33,4.33,0,0,1,552.4,163.37Zm-1.17-2.91a3.11,3.11,0,0,0-1.62-1.72,3.07,3.07,0,0,0-2.45,0,2.62,2.62,0,0,0-.95.69,3.28,3.28,0,0,0-.62,1,3.42,3.42,0,0,0-.22,1.25,3.48,3.48,0,0,0,.23,1.26,3.33,3.33,0,0,0,.64,1,3.06,3.06,0,0,0,1,.69,2.88,2.88,0,0,0,1.21.25,3.15,3.15,0,0,0,1.24-.24,3,3,0,0,0,1-.68,3.28,3.28,0,0,0,.62-1,3.39,3.39,0,0,0,.22-1.25A3.28,3.28,0,0,0,551.23,160.46Z" style="fill:#6731cf"/><path d="M556.18,165.84H555v-8.27h1.23V159a3.82,3.82,0,0,1,1.09-1.14,3,3,0,0,1,1.75-.48,3.47,3.47,0,0,1,1.33.24,2.78,2.78,0,0,1,1,.68,3.1,3.1,0,0,1,.63,1.05,4.11,4.11,0,0,1,.21,1.35v5.13H561V161a2.61,2.61,0,0,0-.59-1.82,2.13,2.13,0,0,0-1.7-.68,2.63,2.63,0,0,0-1,.19,2.33,2.33,0,0,0-1.31,1.35,3,3,0,0,0-.19,1.06Z" style="fill:#6731cf"/><path d="M572.38,166.16a3.36,3.36,0,0,1-.84,1.26,3.7,3.7,0,0,1-1.33.76,5.58,5.58,0,0,1-1.74.25,6.82,6.82,0,0,1-2-.28,6.53,6.53,0,0,1-1.78-.87l.56-1a6.23,6.23,0,0,0,1.51.79,5.1,5.1,0,0,0,1.68.27,3.13,3.13,0,0,0,2.19-.75,2.83,2.83,0,0,0,.81-2.2v-1a5.17,5.17,0,0,1-1.32,1.23,3.48,3.48,0,0,1-1.92.51,4.14,4.14,0,0,1-1.45-.26,3.76,3.76,0,0,1-2.11-2,3.91,3.91,0,0,1-.33-1.64,4,4,0,0,1,.33-1.64,3.76,3.76,0,0,1,.87-1.23,3.91,3.91,0,0,1,1.25-.77,3.8,3.8,0,0,1,1.44-.28,4,4,0,0,1,1.06.14,3.68,3.68,0,0,1,.88.36,3.37,3.37,0,0,1,.71.53,4.36,4.36,0,0,1,.58.64v-1.49h1.23v6.83A4.73,4.73,0,0,1,572.38,166.16Zm-1.14-6a2.85,2.85,0,0,0-.68-.89,3.14,3.14,0,0,0-1-.57,3.32,3.32,0,0,0-1.13-.2,3.42,3.42,0,0,0-1.12.19,2.83,2.83,0,0,0-.91.56,2.77,2.77,0,0,0-.61.89,2.93,2.93,0,0,0-.23,1.16,2.86,2.86,0,0,0,.23,1.16,2.91,2.91,0,0,0,.63.9,2.6,2.6,0,0,0,.91.57,2.9,2.9,0,0,0,1.1.2,3.27,3.27,0,0,0,2.1-.76,3,3,0,0,0,.68-.89,2.63,2.63,0,0,0,.26-1.16A2.57,2.57,0,0,0,571.24,160.14Z" style="fill:#6731cf"/><path d="M583.22,163.37a4.2,4.2,0,0,1-.91,1.38,4.13,4.13,0,0,1-1.37.94,4.34,4.34,0,0,1-1.73.34,4.23,4.23,0,0,1-3.07-1.27,4,4,0,0,1-.9-1.37,4.38,4.38,0,0,1-.32-1.66,4.47,4.47,0,0,1,.32-1.67,4.16,4.16,0,0,1,.9-1.39,4.29,4.29,0,0,1,3.1-1.28,4.26,4.26,0,0,1,1.72.35,4.37,4.37,0,0,1,1.37.93,4.17,4.17,0,0,1,.89,1.36,4.28,4.28,0,0,1,.32,1.67A4.51,4.51,0,0,1,583.22,163.37Zm-1.17-2.91a3.22,3.22,0,0,0-.65-1,3.1,3.1,0,0,0-1-.69,2.86,2.86,0,0,0-1.21-.26,2.91,2.91,0,0,0-1.23.25,2.65,2.65,0,0,0-1,.69,3.26,3.26,0,0,0-.61,1,3.43,3.43,0,0,0-.23,1.25,3.29,3.29,0,0,0,.24,1.26,3.1,3.1,0,0,0,1.6,1.71,2.93,2.93,0,0,0,1.22.25,3.07,3.07,0,0,0,1.23-.24,2.79,2.79,0,0,0,1-.68,3.13,3.13,0,0,0,.63-1,3.39,3.39,0,0,0,.22-1.25A3.48,3.48,0,0,0,582.05,160.46Z" style="fill:#6731cf"/><path d="M595.38,162.44a5.14,5.14,0,0,1-1.22,1.79,5.88,5.88,0,0,1-1.89,1.18,6.46,6.46,0,0,1-2.41.43H586v-11.2h3.88a6.46,6.46,0,0,1,2.41.43,5.69,5.69,0,0,1,1.89,1.17,5,5,0,0,1,1.22,1.78,5.77,5.77,0,0,1,0,4.42Zm-1.2-3.93a4.23,4.23,0,0,0-.93-1.41,4.29,4.29,0,0,0-1.47-.95,5.09,5.09,0,0,0-1.92-.34h-2.62v8.86h2.62a5.3,5.3,0,0,0,1.92-.33,4.27,4.27,0,0,0,1.47-.94,4.18,4.18,0,0,0,.93-1.4,4.68,4.68,0,0,0,.32-1.74A4.85,4.85,0,0,0,594.18,158.51Z" style="fill:#6731cf"/><path d="M606.3,163.52a4.07,4.07,0,0,1-.89,1.35,3.88,3.88,0,0,1-1.27.85,3.7,3.7,0,0,1-1.46.3,3.57,3.57,0,0,1-1.06-.15,3.35,3.35,0,0,1-.86-.38,3.82,3.82,0,0,1-.7-.56,5.75,5.75,0,0,1-.55-.67v1.58h-1.23V154.16h1.23v5.07a6.23,6.23,0,0,1,.57-.7,3.54,3.54,0,0,1,.7-.58,3.32,3.32,0,0,1,.85-.4,3.21,3.21,0,0,1,1-.16,3.91,3.91,0,0,1,1.45.29,3.8,3.8,0,0,1,1.27.84,4.31,4.31,0,0,1,.9,1.35,4.81,4.81,0,0,1,.33,1.83A4.73,4.73,0,0,1,606.3,163.52Zm-1.16-3.13a3.17,3.17,0,0,0-.64-1,2.68,2.68,0,0,0-.92-.64,2.88,2.88,0,0,0-1.12-.23,2.72,2.72,0,0,0-1.12.24,3,3,0,0,0-1.63,1.64,3.56,3.56,0,0,0,0,2.62,3,3,0,0,0,.67,1,3.39,3.39,0,0,0,1,.65,2.88,2.88,0,0,0,1.12.23,2.83,2.83,0,0,0,1.12-.22,2.58,2.58,0,0,0,.93-.62,3.05,3.05,0,0,0,.63-1,3.82,3.82,0,0,0,.23-1.35A3.73,3.73,0,0,0,605.14,160.39Z" style="fill:#6731cf"/><path d="M619.15,164.57a2.46,2.46,0,0,1-.62.78,2.73,2.73,0,0,1-.93.48,3.62,3.62,0,0,1-1.16.17,5.77,5.77,0,0,1-3.42-1.21l.62-.88a5.4,5.4,0,0,0,1.4.78,4.14,4.14,0,0,0,1.46.27,2.09,2.09,0,0,0,1.24-.35,1.12,1.12,0,0,0,.48-1v0a.88.88,0,0,0-.17-.53,1.49,1.49,0,0,0-.46-.39,4.07,4.07,0,0,0-.66-.3l-.78-.24c-.32-.09-.64-.2-1-.31a4,4,0,0,1-.88-.42,2.43,2.43,0,0,1-.64-.64,1.8,1.8,0,0,1-.24-1v0a2.17,2.17,0,0,1,.2-1,2.2,2.2,0,0,1,.59-.76,3,3,0,0,1,.89-.48,3.77,3.77,0,0,1,1.13-.16,5.26,5.26,0,0,1,1.55.24,5.88,5.88,0,0,1,1.43.67l-.56.93a5.88,5.88,0,0,0-1.21-.59,3.94,3.94,0,0,0-1.24-.21,1.83,1.83,0,0,0-1.17.34,1,1,0,0,0-.43.86v0a.75.75,0,0,0,.18.5,1.4,1.4,0,0,0,.47.38,5,5,0,0,0,.68.29l.8.25c.32.1.63.2.95.32a4.13,4.13,0,0,1,.86.45,2.13,2.13,0,0,1,.61.66,1.73,1.73,0,0,1,.23.94v0A2.2,2.2,0,0,1,619.15,164.57Z" style="fill:#6731cf"/><path d="M627.54,157.57h1.22v8.27h-1.22V164.4a3.94,3.94,0,0,1-1.08,1.15,3,3,0,0,1-1.75.47,3.43,3.43,0,0,1-1.33-.24,2.91,2.91,0,0,1-1-.68,3,3,0,0,1-.62-1,4.09,4.09,0,0,1-.22-1.34v-5.14h1.24v4.83a2.65,2.65,0,0,0,.59,1.83,2.15,2.15,0,0,0,1.69.67,2.5,2.5,0,0,0,1-.19,2.18,2.18,0,0,0,.78-.52,2.6,2.6,0,0,0,.52-.83,2.76,2.76,0,0,0,.19-1.05Z" style="fill:#6731cf"/><path d="M639.54,163.52a4.05,4.05,0,0,1-.88,1.35,3.88,3.88,0,0,1-1.27.85,3.7,3.7,0,0,1-1.46.3,3.53,3.53,0,0,1-1.06-.15,3.21,3.21,0,0,1-.86-.38,3.82,3.82,0,0,1-.7-.56,4.89,4.89,0,0,1-.55-.67v4.14h-1.23V157.57h1.23v1.66a6.23,6.23,0,0,1,.57-.7A3.79,3.79,0,0,1,634,158a3.39,3.39,0,0,1,.86-.4,3.13,3.13,0,0,1,1-.16,3.9,3.9,0,0,1,2.72,1.13,4.12,4.12,0,0,1,.89,1.35,4.63,4.63,0,0,1,.34,1.83A4.54,4.54,0,0,1,639.54,163.52Zm-1.16-3.13a3,3,0,0,0-.63-1,2.72,2.72,0,0,0-.93-.64,2.8,2.8,0,0,0-1.12-.23,2.71,2.71,0,0,0-1.11.24,2.94,2.94,0,0,0-1,.64,3,3,0,0,0-.67,1,3.56,3.56,0,0,0,0,2.62,2.88,2.88,0,0,0,.67,1,3.13,3.13,0,0,0,1,.65,2.9,2.9,0,0,0,2.24,0,2.58,2.58,0,0,0,.93-.62,2.88,2.88,0,0,0,.62-1,3.61,3.61,0,0,0,.24-1.35A3.52,3.52,0,0,0,638.38,160.39Z" style="fill:#6731cf"/><path d="M650.17,163.52a4.07,4.07,0,0,1-.89,1.35,4,4,0,0,1-1.26.85,3.79,3.79,0,0,1-1.47.3,3.46,3.46,0,0,1-1-.15,3.27,3.27,0,0,1-.87-.38,3.76,3.76,0,0,1-.69-.56,5,5,0,0,1-.56-.67v4.14h-1.23V157.57h1.23v1.66a6.23,6.23,0,0,1,.57-.7,3.54,3.54,0,0,1,.7-.58,3.32,3.32,0,0,1,.85-.4,3.21,3.21,0,0,1,1-.16,3.91,3.91,0,0,1,1.45.29,3.8,3.8,0,0,1,1.27.84,4.31,4.31,0,0,1,.9,1.35,4.81,4.81,0,0,1,.33,1.83A4.73,4.73,0,0,1,650.17,163.52ZM649,160.39a3.33,3.33,0,0,0-.63-1,2.82,2.82,0,0,0-.93-.64,2.88,2.88,0,0,0-1.12-.23,2.72,2.72,0,0,0-1.12.24,3,3,0,0,0-1.63,1.64,3.56,3.56,0,0,0,0,2.62,3,3,0,0,0,.67,1,3.39,3.39,0,0,0,1,.65,2.88,2.88,0,0,0,1.12.23,2.92,2.92,0,0,0,1.13-.22,2.62,2.62,0,0,0,.92-.62,3.05,3.05,0,0,0,.63-1,3.82,3.82,0,0,0,.23-1.35A3.73,3.73,0,0,0,649,160.39Z" style="fill:#6731cf"/><path d="M660.56,163.37a4.2,4.2,0,0,1-.91,1.38,4.13,4.13,0,0,1-1.37.94,4.31,4.31,0,0,1-1.73.34,4.18,4.18,0,0,1-1.71-.34,4.33,4.33,0,0,1-1.36-.93,4.13,4.13,0,0,1-.9-1.37,4.38,4.38,0,0,1-.32-1.66,4.47,4.47,0,0,1,.32-1.67,4.32,4.32,0,0,1,.9-1.39,4.37,4.37,0,0,1,6.19,0,4.36,4.36,0,0,1,.9,1.36,4.47,4.47,0,0,1,.32,1.67A4.33,4.33,0,0,1,660.56,163.37Zm-1.17-2.91a3.11,3.11,0,0,0-1.62-1.72,3.07,3.07,0,0,0-2.45,0,2.62,2.62,0,0,0-1,.69,3.28,3.28,0,0,0-.62,1,3.42,3.42,0,0,0-.22,1.25,3.28,3.28,0,0,0,.23,1.26,3.15,3.15,0,0,0,.64,1,3,3,0,0,0,1,.69,2.88,2.88,0,0,0,1.21.25,3.07,3.07,0,0,0,1.23-.24,2.79,2.79,0,0,0,1-.68,3.13,3.13,0,0,0,.63-1,3.39,3.39,0,0,0,.22-1.25A3.28,3.28,0,0,0,659.39,160.46Z" style="fill:#6731cf"/><path d="M664.34,165.84h-1.23v-8.27h1.23v2.16a4.41,4.41,0,0,1,.56-.94,3.9,3.9,0,0,1,.77-.75,3.31,3.31,0,0,1,.94-.47,3.35,3.35,0,0,1,1.11-.14v1.32h-.1a3.38,3.38,0,0,0-1.27.24,2.9,2.9,0,0,0-1.05.72,3.37,3.37,0,0,0-.7,1.2,4.82,4.82,0,0,0-.26,1.64Z" style="fill:#6731cf"/><path d="M671.25,163.49a1.28,1.28,0,0,0,.39,1.07,1.6,1.6,0,0,0,1,.31,2.9,2.9,0,0,0,.6-.07,3.19,3.19,0,0,0,.6-.22v1a2.84,2.84,0,0,1-.68.27,3.35,3.35,0,0,1-.81.09,3.48,3.48,0,0,1-.93-.13,1.84,1.84,0,0,1-1.23-1.14,2.85,2.85,0,0,1-.18-1.07v-5h-1.15v-1.09H670v-2.5h1.23v2.5h2.63v1.09h-2.63Z" style="fill:#6731cf"/><path d="M536.31,195.77h-.06l-4.08-6v9.05h-1.23v-11.2h1.28l4.08,6.11,4.08-6.11h1.28v11.2h-1.27v-9.07Z" style="fill:#6731cf"/><path d="M550.49,190.57h1.21v8.27h-1.21V197.4a4,4,0,0,1-1.09,1.15,3,3,0,0,1-1.74.47,3.52,3.52,0,0,1-1.34-.24,2.78,2.78,0,0,1-1-.68,3.16,3.16,0,0,1-.63-1,4.09,4.09,0,0,1-.21-1.34v-5.14h1.23v4.83a2.7,2.7,0,0,0,.59,1.83,2.18,2.18,0,0,0,1.7.67,2.45,2.45,0,0,0,1-.19,2.14,2.14,0,0,0,.79-.52,2.6,2.6,0,0,0,.52-.83,3,3,0,0,0,.19-1.05Z" style="fill:#6731cf"/><path d="M554.58,198.84V187.16h1.24v11.68Z" style="fill:#6731cf"/><path d="M560.34,196.49a1.28,1.28,0,0,0,.39,1.07,1.58,1.58,0,0,0,1,.31,2.9,2.9,0,0,0,.6-.07,3.19,3.19,0,0,0,.6-.22v1a2.84,2.84,0,0,1-.68.27,3.35,3.35,0,0,1-.81.09,3.48,3.48,0,0,1-.93-.13,1.84,1.84,0,0,1-.74-.41,1.92,1.92,0,0,1-.49-.73,2.85,2.85,0,0,1-.18-1.07v-5H558v-1.09h1.15v-2.5h1.23v2.5H563v1.09h-2.63Z" style="fill:#6731cf"/><path d="M564.81,194.68v-1.29h4.45v1.29Z" style="fill:#6731cf"/><path d="M577.36,198.58a3.92,3.92,0,0,1-2,.45,4.12,4.12,0,0,1-1.69-.34,4.24,4.24,0,0,1-1.34-.93,4.11,4.11,0,0,1-.89-1.37,4.38,4.38,0,0,1-.32-1.66,4.47,4.47,0,0,1,.32-1.67,4.3,4.3,0,0,1,.89-1.39,4.24,4.24,0,0,1,1.34-.93,4.12,4.12,0,0,1,1.69-.35,4.43,4.43,0,0,1,1.07.12,3.53,3.53,0,0,1,.88.31,4,4,0,0,1,.74.47,5.67,5.67,0,0,1,.62.58l-.81.86a6.4,6.4,0,0,0-1.08-.88,2.61,2.61,0,0,0-1.44-.37,2.86,2.86,0,0,0-2.11.94,3.28,3.28,0,0,0-.62,1,3.43,3.43,0,0,0-.23,1.25,3.29,3.29,0,0,0,.24,1.26,3.08,3.08,0,0,0,1.6,1.72,3,3,0,0,0,1.2.24,2.75,2.75,0,0,0,1.42-.35,4.68,4.68,0,0,0,1.11-.88l.79.74A5.61,5.61,0,0,1,577.36,198.58Z" style="fill:#6731cf"/><path d="M580.92,198.84V187.16h1.23v11.68Z" style="fill:#6731cf"/><path d="M592.8,196.37a4.34,4.34,0,0,1-.9,1.38,4.28,4.28,0,0,1-3.11,1.28,4.18,4.18,0,0,1-1.71-.34,4.24,4.24,0,0,1-2.26-2.3,4.38,4.38,0,0,1-.32-1.66,4.38,4.38,0,0,1,1.22-3.06,4.37,4.37,0,0,1,6.19,0,4.19,4.19,0,0,1,.9,1.36,4.47,4.47,0,0,1,.32,1.67A4.33,4.33,0,0,1,592.8,196.37Zm-1.17-2.91a3.11,3.11,0,0,0-1.62-1.72,3.07,3.07,0,0,0-2.45,0,2.62,2.62,0,0,0-.95.69,3.28,3.28,0,0,0-.62,1,3.42,3.42,0,0,0-.22,1.25A3.28,3.28,0,0,0,586,196a3.15,3.15,0,0,0,.64,1,3,3,0,0,0,1,.69,2.88,2.88,0,0,0,1.21.25,3.15,3.15,0,0,0,1.24-.24,3,3,0,0,0,1-.68,3.28,3.28,0,0,0,.62-1,3.39,3.39,0,0,0,.22-1.25A3.28,3.28,0,0,0,591.63,193.46Z" style="fill:#6731cf"/><path d="M601.22,190.57h1.22v8.27h-1.22V197.4a3.94,3.94,0,0,1-1.08,1.15,3,3,0,0,1-1.75.47,3.43,3.43,0,0,1-1.33-.24,2.91,2.91,0,0,1-1-.68,3,3,0,0,1-.62-1,4.09,4.09,0,0,1-.22-1.34v-5.14h1.24v4.83a2.65,2.65,0,0,0,.59,1.83,2.15,2.15,0,0,0,1.69.67,2.5,2.5,0,0,0,1-.19,2.18,2.18,0,0,0,.78-.52,2.6,2.6,0,0,0,.52-.83,2.76,2.76,0,0,0,.19-1.05Z" style="fill:#6731cf"/><path d="M611.85,198.84v-1.66a6.23,6.23,0,0,1-.57.7,3.59,3.59,0,0,1-.7.59,3,3,0,0,1-.85.4,3.51,3.51,0,0,1-1.05.15,3.88,3.88,0,0,1-1.46-.29,3.76,3.76,0,0,1-1.26-.84,4.31,4.31,0,0,1-.9-1.35,4.78,4.78,0,0,1-.33-1.83,4.73,4.73,0,0,1,.33-1.82,4.31,4.31,0,0,1,.9-1.35,4,4,0,0,1,1.26-.85,3.7,3.7,0,0,1,1.46-.3,3.57,3.57,0,0,1,1.06.15,3.35,3.35,0,0,1,.86.38,3.82,3.82,0,0,1,.7.56,6.73,6.73,0,0,1,.55.67v-5h1.23v11.68Zm-.2-5.45a3,3,0,0,0-1.63-1.64,2.72,2.72,0,0,0-1.12-.24,3,3,0,0,0-1.13.22,2.62,2.62,0,0,0-.92.62,3.05,3.05,0,0,0-.63,1,3.82,3.82,0,0,0-.23,1.35,3.65,3.65,0,0,0,.23,1.32,3.17,3.17,0,0,0,.64,1,2.55,2.55,0,0,0,.92.64,2.84,2.84,0,0,0,2.24,0,3.39,3.39,0,0,0,1-.65,3,3,0,0,0,.67-1,3.56,3.56,0,0,0,0-2.62Z" style="fill:#6731cf"/><path d="M627.27,198.84v-1.66a6.23,6.23,0,0,1-.57.7,3.53,3.53,0,0,1-.69.59,3.08,3.08,0,0,1-.86.4,3.41,3.41,0,0,1-1,.15,3.83,3.83,0,0,1-1.45-.29,3.91,3.91,0,0,1-1.27-.84,4.12,4.12,0,0,1-.89-1.35,4.59,4.59,0,0,1-.34-1.83,4.54,4.54,0,0,1,.34-1.82,4,4,0,0,1,2.16-2.2,3.66,3.66,0,0,1,1.45-.3,3.53,3.53,0,0,1,1.06.15,3.21,3.21,0,0,1,.86.38,3.82,3.82,0,0,1,.7.56,5.57,5.57,0,0,1,.55.67v-5h1.23v11.68Zm-.2-5.45a3,3,0,0,0-.67-1,2.94,2.94,0,0,0-1-.64,2.71,2.71,0,0,0-1.11-.24,3,3,0,0,0-1.14.22,2.62,2.62,0,0,0-.92.62,2.88,2.88,0,0,0-.62,1,3.61,3.61,0,0,0-.23,1.35,3.45,3.45,0,0,0,.23,1.32,3,3,0,0,0,.63,1,2.67,2.67,0,0,0,.93.64,2.8,2.8,0,0,0,1.12.23,2.87,2.87,0,0,0,1.11-.23,3.13,3.13,0,0,0,1-.65,2.88,2.88,0,0,0,.67-1,3.56,3.56,0,0,0,0-2.62Z" style="fill:#6731cf"/><path d="M632.33,196.35a2.92,2.92,0,0,0,.65.88,2.8,2.8,0,0,0,.9.55,3,3,0,0,0,1,.18,3.08,3.08,0,0,0,1.48-.32,4.14,4.14,0,0,0,1.13-.85l.76.69a5,5,0,0,1-1.42,1.13,4.21,4.21,0,0,1-2,.42,4.08,4.08,0,0,1-2.92-1.19,4.22,4.22,0,0,1-.89-1.37,4.38,4.38,0,0,1-.34-1.76A4.68,4.68,0,0,1,631,193a4.32,4.32,0,0,1,.82-1.38,3.73,3.73,0,0,1,1.26-.92,3.78,3.78,0,0,1,1.59-.34,3.72,3.72,0,0,1,1.63.35,3.64,3.64,0,0,1,1.22.93,4.1,4.1,0,0,1,.75,1.4,5.57,5.57,0,0,1,.26,1.71V195a1.49,1.49,0,0,1,0,.21H632A3.31,3.31,0,0,0,632.33,196.35Zm5-2.1a4.25,4.25,0,0,0-.23-1.07,2.84,2.84,0,0,0-.51-.9,2.39,2.39,0,0,0-.79-.61,2.49,2.49,0,0,0-2.09,0,2.49,2.49,0,0,0-.81.59,3,3,0,0,0-.58.89,3.61,3.61,0,0,0-.28,1.12Z" style="fill:#6731cf"/><path d="M648.74,196.52a3.92,3.92,0,0,1-.89,1.35,3.88,3.88,0,0,1-2.72,1.15,3.53,3.53,0,0,1-1.06-.15,3.21,3.21,0,0,1-.86-.38,3.82,3.82,0,0,1-.7-.56,4.89,4.89,0,0,1-.55-.67v4.14h-1.23V190.57H642v1.66a6.23,6.23,0,0,1,.57-.7,3.48,3.48,0,0,1,.69-.58,3.39,3.39,0,0,1,.86-.4,3.13,3.13,0,0,1,1-.16,3.9,3.9,0,0,1,2.72,1.13,4.12,4.12,0,0,1,.89,1.35,4.63,4.63,0,0,1,.34,1.83A4.54,4.54,0,0,1,648.74,196.52Zm-1.16-3.13a3,3,0,0,0-.63-1,2.72,2.72,0,0,0-.93-.64,2.8,2.8,0,0,0-1.12-.23,2.71,2.71,0,0,0-1.11.24,2.94,2.94,0,0,0-1,.64,3,3,0,0,0-.67,1,3.56,3.56,0,0,0,0,2.62,2.88,2.88,0,0,0,.67,1,3.13,3.13,0,0,0,1,.65,2.9,2.9,0,0,0,2.24,0,2.58,2.58,0,0,0,.93-.62,2.88,2.88,0,0,0,.62-1,3.61,3.61,0,0,0,.23-1.35A3.52,3.52,0,0,0,647.58,193.39Z" style="fill:#6731cf"/><path d="M651.46,198.84V187.16h1.23v11.68Z" style="fill:#6731cf"/><path d="M663.34,196.37a4.34,4.34,0,0,1-.9,1.38,4.17,4.17,0,0,1-1.38.94,4.31,4.31,0,0,1-1.73.34,4.21,4.21,0,0,1-1.71-.34,4.44,4.44,0,0,1-1.36-.93,4.11,4.11,0,0,1-.89-1.37,4.2,4.2,0,0,1-.32-1.66,4.43,4.43,0,0,1,1.21-3.06,4.37,4.37,0,0,1,1.37-.93,4.35,4.35,0,0,1,4.82.93,4,4,0,0,1,.9,1.36,4.47,4.47,0,0,1,.32,1.67A4.33,4.33,0,0,1,663.34,196.37Zm-1.17-2.91a3,3,0,0,0-1.62-1.72,2.9,2.9,0,0,0-1.22-.26,3,3,0,0,0-1.23.25,2.62,2.62,0,0,0-1,.69,3.28,3.28,0,0,0-.62,1,3.42,3.42,0,0,0-.22,1.25,3.48,3.48,0,0,0,.23,1.26,3.33,3.33,0,0,0,.64,1,3.06,3.06,0,0,0,1,.69,2.9,2.9,0,0,0,1.22.25,3.14,3.14,0,0,0,1.23-.24,3,3,0,0,0,1-.68,3.28,3.28,0,0,0,.62-1,3.39,3.39,0,0,0,.23-1.25A3.29,3.29,0,0,0,662.17,193.46Z" style="fill:#6731cf"/><path d="M669.45,199.11a4.6,4.6,0,0,1-1.18,1.81,2.43,2.43,0,0,1-1.58.53,3.71,3.71,0,0,1-.92-.1,4.13,4.13,0,0,1-.84-.32l.42-1a3,3,0,0,0,.6.23,2.91,2.91,0,0,0,.7.07,1.4,1.4,0,0,0,.94-.33,3.29,3.29,0,0,0,.75-1.22l-3.76-8.24h1.36l3,6.9,2.66-6.9h1.31Z" style="fill:#6731cf"/><path d="M681.93,191.4a3.28,3.28,0,0,1,.64-.53,3,3,0,0,1,.79-.35,3.69,3.69,0,0,1,1-.13,2.94,2.94,0,0,1,2.26.89,3.49,3.49,0,0,1,.81,2.44v5.12h-1.23V194a2.71,2.71,0,0,0-.57-1.85,2,2,0,0,0-1.57-.65,2.38,2.38,0,0,0-.88.17,2,2,0,0,0-.73.5,2.52,2.52,0,0,0-.5.81,3.06,3.06,0,0,0-.18,1.08v4.77h-1.22V194a2.71,2.71,0,0,0-.56-1.82,2,2,0,0,0-1.56-.65,2.17,2.17,0,0,0-.92.2,2.1,2.1,0,0,0-.72.54,2.59,2.59,0,0,0-.49.82,3,3,0,0,0-.18,1.05v4.72h-1.23v-8.27h1.23V192a6.26,6.26,0,0,1,.46-.59,2.5,2.5,0,0,1,.57-.5,2.68,2.68,0,0,1,.72-.35,3.14,3.14,0,0,1,.92-.13,2.75,2.75,0,0,1,1.67.48,2.94,2.94,0,0,1,1,1.17A6.12,6.12,0,0,1,681.93,191.4Z" style="fill:#6731cf"/><path d="M691.16,196.35a2.92,2.92,0,0,0,.65.88,2.8,2.8,0,0,0,.9.55,3,3,0,0,0,1,.18,3.08,3.08,0,0,0,1.48-.32,4.14,4.14,0,0,0,1.13-.85l.77.69a5,5,0,0,1-1.43,1.13,4.21,4.21,0,0,1-2,.42,4.08,4.08,0,0,1-2.92-1.19,4.22,4.22,0,0,1-.89-1.37,4.38,4.38,0,0,1-.34-1.76,4.68,4.68,0,0,1,.3-1.68,4.32,4.32,0,0,1,.82-1.38,3.82,3.82,0,0,1,2.85-1.26,3.72,3.72,0,0,1,1.63.35,3.64,3.64,0,0,1,1.22.93,4.1,4.1,0,0,1,.75,1.4,5.57,5.57,0,0,1,.26,1.71V195a1.49,1.49,0,0,1,0,.21h-6.54A3.31,3.31,0,0,0,691.16,196.35Zm5-2.1a3.86,3.86,0,0,0-.23-1.07,2.84,2.84,0,0,0-.51-.9,2.39,2.39,0,0,0-.79-.61,2.37,2.37,0,0,0-1.09-.24,2.4,2.4,0,0,0-1,.22,2.49,2.49,0,0,0-.81.59,3,3,0,0,0-.58.89,3.92,3.92,0,0,0-.28,1.12Z" style="fill:#6731cf"/><path d="M700.79,198.84h-1.23v-8.27h1.23V192a3.82,3.82,0,0,1,1.09-1.14,2.93,2.93,0,0,1,1.74-.48,3.52,3.52,0,0,1,1.34.24,2.78,2.78,0,0,1,1,.68,3.07,3.07,0,0,1,.62,1.05,3.86,3.86,0,0,1,.22,1.35v5.13h-1.23V194a2.66,2.66,0,0,0-.59-1.82,2.15,2.15,0,0,0-1.7-.68,2.63,2.63,0,0,0-1,.19,2.28,2.28,0,0,0-.8.53,2.55,2.55,0,0,0-.52.82,3,3,0,0,0-.18,1.06Z" style="fill:#6731cf"/><path d="M711.08,196.49a1.31,1.31,0,0,0,.38,1.07,1.6,1.6,0,0,0,1,.31,2.9,2.9,0,0,0,.6-.07,2.76,2.76,0,0,0,.6-.22v1a2.68,2.68,0,0,1-.68.27,3.35,3.35,0,0,1-.81.09,3.48,3.48,0,0,1-.93-.13,2,2,0,0,1-.74-.41,1.92,1.92,0,0,1-.49-.73,2.86,2.86,0,0,1-.17-1.07v-5h-1.16v-1.09h1.16v-2.5h1.23v2.5h2.62v1.09h-2.62Z" style="fill:#6731cf"/><path d="M538.65,231.84l-3.25-4.35h-3.2v4.35h-1.26v-11.2h4.81a5.39,5.39,0,0,1,1.67.24,3.91,3.91,0,0,1,1.28.68,3.1,3.1,0,0,1,.81,1.06,3.51,3.51,0,0,1,.07,2.62,2.74,2.74,0,0,1-.64,1,3.33,3.33,0,0,1-1,.68,4.47,4.47,0,0,1-1.22.39l3.44,4.57Zm-.87-9.44a3.31,3.31,0,0,0-2.11-.59H532.2v4.56h3.45a3.81,3.81,0,0,0,1.15-.16,2.84,2.84,0,0,0,.92-.46,2,2,0,0,0,.6-.73,2.21,2.21,0,0,0,.22-1A1.93,1.93,0,0,0,537.78,222.4Z" style="fill:#6731cf"/><path d="M543.21,229.35a2.92,2.92,0,0,0,.65.88,2.8,2.8,0,0,0,.9.55,3,3,0,0,0,1,.18,3.08,3.08,0,0,0,1.48-.32,4.14,4.14,0,0,0,1.13-.85l.77.69a5,5,0,0,1-1.43,1.13,4.21,4.21,0,0,1-2,.42,4.08,4.08,0,0,1-2.92-1.19,4.22,4.22,0,0,1-.89-1.37,4.38,4.38,0,0,1-.34-1.76,4.68,4.68,0,0,1,.3-1.68,4.32,4.32,0,0,1,.82-1.38,3.82,3.82,0,0,1,2.85-1.26,3.72,3.72,0,0,1,1.63.35,3.64,3.64,0,0,1,1.22.93,4.1,4.1,0,0,1,.75,1.4,5.57,5.57,0,0,1,.26,1.71V228a1.49,1.49,0,0,1,0,.21h-6.54A3.31,3.31,0,0,0,543.21,229.35Zm5-2.1a3.86,3.86,0,0,0-.23-1.07,2.84,2.84,0,0,0-.51-.9,2.39,2.39,0,0,0-.79-.61,2.37,2.37,0,0,0-1.09-.24,2.4,2.4,0,0,0-1,.22,2.49,2.49,0,0,0-.81.59,3,3,0,0,0-.58.89,3.92,3.92,0,0,0-.28,1.12Z" style="fill:#6731cf"/><path d="M553.26,224.71a8.25,8.25,0,0,0-1.17.44l-.37-1a7.53,7.53,0,0,1,1.39-.51,6.58,6.58,0,0,1,1.62-.18,3.72,3.72,0,0,1,2.61.84,3.25,3.25,0,0,1,.91,2.49v5.05h-1.19v-1.25a3.84,3.84,0,0,1-1.16,1,3.59,3.59,0,0,1-1.83.43,4.34,4.34,0,0,1-1.13-.16,3.27,3.27,0,0,1-1-.49,2.48,2.48,0,0,1-.7-.81,2.28,2.28,0,0,1-.27-1.13,2.51,2.51,0,0,1,.26-1.16,2.19,2.19,0,0,1,.73-.84,3.4,3.4,0,0,1,1.12-.52,5.78,5.78,0,0,1,1.43-.17,9.35,9.35,0,0,1,1.39.09,10.16,10.16,0,0,1,1.15.26v-.29a2.14,2.14,0,0,0-.64-1.69,2.73,2.73,0,0,0-1.82-.56A5.08,5.08,0,0,0,553.26,224.71Zm-.39,3.4a1.51,1.51,0,0,0-.62,1.27,1.35,1.35,0,0,0,.17.7,1.6,1.6,0,0,0,.45.52,1.86,1.86,0,0,0,.66.33,3,3,0,0,0,.79.11,3.22,3.22,0,0,0,1.08-.17,2.83,2.83,0,0,0,.88-.46,2.47,2.47,0,0,0,.59-.7,2,2,0,0,0,.21-.91V228c-.31-.08-.66-.16-1.06-.24a7.88,7.88,0,0,0-1.36-.11A3,3,0,0,0,552.87,228.11Z" style="fill:#6731cf"/><path d="M567.51,231.84v-1.66a6.23,6.23,0,0,1-.57.7,3.53,3.53,0,0,1-.69.59,3.08,3.08,0,0,1-.86.4,3.41,3.41,0,0,1-1,.15,3.83,3.83,0,0,1-1.45-.29,3.91,3.91,0,0,1-1.27-.84,4.12,4.12,0,0,1-.89-1.35,4.59,4.59,0,0,1-.34-1.83,4.54,4.54,0,0,1,.34-1.82,4,4,0,0,1,2.16-2.2,3.66,3.66,0,0,1,1.45-.3,3.53,3.53,0,0,1,1.06.15,3.21,3.21,0,0,1,.86.38,3.82,3.82,0,0,1,.7.56,5.57,5.57,0,0,1,.55.67v-5h1.23v11.68Zm-.2-5.45a3,3,0,0,0-.67-1,2.94,2.94,0,0,0-1-.64,2.71,2.71,0,0,0-1.11-.24,3,3,0,0,0-1.14.22,2.62,2.62,0,0,0-.92.62,2.88,2.88,0,0,0-.62,1,3.61,3.61,0,0,0-.23,1.35,3.45,3.45,0,0,0,.23,1.32,3,3,0,0,0,.63,1,2.67,2.67,0,0,0,.93.64,2.8,2.8,0,0,0,1.12.23,2.87,2.87,0,0,0,1.11-.23,3.13,3.13,0,0,0,1-.65,2.88,2.88,0,0,0,.67-1,3.56,3.56,0,0,0,0-2.62Z" style="fill:#6731cf"/><path d="M575.53,232.11a4.49,4.49,0,0,1-1.18,1.81,2.42,2.42,0,0,1-1.57.53,3.79,3.79,0,0,1-.93-.1A3.84,3.84,0,0,1,571,234l.41-1a3,3,0,0,0,.6.23,2.91,2.91,0,0,0,.7.07,1.38,1.38,0,0,0,.94-.33,3.29,3.29,0,0,0,.75-1.22l-3.76-8.24H572l3,6.9,2.66-6.9H579Z" style="fill:#6731cf"/><path d="M580.38,227.68v-1.29h4.44v1.29Z" style="fill:#6731cf"/><path d="M594.3,224.4a3.28,3.28,0,0,1,.64-.53,3,3,0,0,1,.79-.35,3.69,3.69,0,0,1,1-.13,2.94,2.94,0,0,1,2.26.89,3.49,3.49,0,0,1,.81,2.44v5.12h-1.23V227a2.71,2.71,0,0,0-.57-1.85,2,2,0,0,0-1.57-.65,2.38,2.38,0,0,0-.88.17,2,2,0,0,0-.73.5,2.52,2.52,0,0,0-.5.81,3.06,3.06,0,0,0-.18,1.08v4.77H592.9V227a2.71,2.71,0,0,0-.56-1.82,2,2,0,0,0-1.56-.65,2.14,2.14,0,0,0-.92.2,2.1,2.1,0,0,0-.72.54,2.59,2.59,0,0,0-.49.82,3,3,0,0,0-.18,1.05v4.72h-1.23v-8.27h1.23V225a6.26,6.26,0,0,1,.46-.59,2.5,2.5,0,0,1,.57-.5,2.68,2.68,0,0,1,.72-.35,3.14,3.14,0,0,1,.92-.13,2.75,2.75,0,0,1,1.67.48,2.94,2.94,0,0,1,1,1.17A6.12,6.12,0,0,1,594.3,224.4Z" style="fill:#6731cf"/><path d="M604.11,224.71a8.25,8.25,0,0,0-1.17.44l-.37-1a7.53,7.53,0,0,1,1.39-.51,6.58,6.58,0,0,1,1.62-.18,3.68,3.68,0,0,1,2.6.84,3.22,3.22,0,0,1,.92,2.49v5.05h-1.19v-1.25a4,4,0,0,1-1.16,1,3.59,3.59,0,0,1-1.83.43,4.34,4.34,0,0,1-1.13-.16,3.06,3.06,0,0,1-1-.49,2.48,2.48,0,0,1-.7-.81,2.28,2.28,0,0,1-.27-1.13,2.51,2.51,0,0,1,.26-1.16,2.19,2.19,0,0,1,.73-.84,3.31,3.31,0,0,1,1.12-.52,5.72,5.72,0,0,1,1.43-.17,9.44,9.44,0,0,1,1.39.09,10.68,10.68,0,0,1,1.15.26v-.29a2.12,2.12,0,0,0-.65-1.69,2.69,2.69,0,0,0-1.81-.56A5.08,5.08,0,0,0,604.11,224.71Zm-.39,3.4a1.48,1.48,0,0,0-.62,1.27,1.45,1.45,0,0,0,.16.7,1.63,1.63,0,0,0,.46.52,1.86,1.86,0,0,0,.66.33,2.9,2.9,0,0,0,.79.11,3.22,3.22,0,0,0,1.08-.17,2.78,2.78,0,0,0,.87-.46,2.19,2.19,0,0,0,.59-.7,1.88,1.88,0,0,0,.22-.91V228c-.31-.08-.66-.16-1.06-.24a8,8,0,0,0-1.37-.11A2.93,2.93,0,0,0,603.72,228.11Z" style="fill:#6731cf"/><path d="M618.36,231.84v-1.66a6.23,6.23,0,0,1-.57.7,3.85,3.85,0,0,1-.69.59,3.22,3.22,0,0,1-.86.4,3.46,3.46,0,0,1-1,.15,3.9,3.9,0,0,1-2.72-1.13,4.12,4.12,0,0,1-.89-1.35,4.59,4.59,0,0,1-.34-1.83,4.54,4.54,0,0,1,.34-1.82,4.12,4.12,0,0,1,.89-1.35,4,4,0,0,1,1.27-.85,3.62,3.62,0,0,1,1.45-.3,3.53,3.53,0,0,1,1.06.15,3.21,3.21,0,0,1,.86.38,3.82,3.82,0,0,1,.7.56,5.57,5.57,0,0,1,.55.67v-5h1.23v11.68Zm-.2-5.45a3,3,0,0,0-1.63-1.64,2.71,2.71,0,0,0-1.11-.24,3,3,0,0,0-1.14.22,2.62,2.62,0,0,0-.92.62,2.88,2.88,0,0,0-.62,1,3.61,3.61,0,0,0-.24,1.35,3.45,3.45,0,0,0,.24,1.32,3,3,0,0,0,.63,1,2.5,2.5,0,0,0,.93.64,2.8,2.8,0,0,0,1.12.23,2.87,2.87,0,0,0,1.11-.23,3.39,3.39,0,0,0,1-.65,3,3,0,0,0,.67-1,3.56,3.56,0,0,0,0-2.62Z" style="fill:#6731cf"/><path d="M623.42,229.35a2.76,2.76,0,0,0,.65.88,2.8,2.8,0,0,0,.9.55,3,3,0,0,0,1,.18,3.11,3.11,0,0,0,1.48-.32,4.3,4.3,0,0,0,1.13-.85l.76.69a5,5,0,0,1-1.42,1.13,4.23,4.23,0,0,1-2,.42,4.07,4.07,0,0,1-1.6-.31,4,4,0,0,1-1.32-.88,4.24,4.24,0,0,1-.9-1.37,4.56,4.56,0,0,1-.33-1.76,4.68,4.68,0,0,1,.3-1.68,4.15,4.15,0,0,1,.82-1.38,3.73,3.73,0,0,1,1.26-.92,3.78,3.78,0,0,1,1.59-.34,3.72,3.72,0,0,1,1.63.35,3.64,3.64,0,0,1,1.22.93,4.1,4.1,0,0,1,.75,1.4,5.57,5.57,0,0,1,.26,1.71V228a1.49,1.49,0,0,1,0,.21H623.1A3.12,3.12,0,0,0,623.42,229.35Zm5-2.1a4.25,4.25,0,0,0-.23-1.07,2.84,2.84,0,0,0-.51-.9,2.5,2.5,0,0,0-.79-.61,2.39,2.39,0,0,0-1.09-.24,2.36,2.36,0,0,0-1,.22,2.64,2.64,0,0,0-.82.59,3.23,3.23,0,0,0-.57.89,3.61,3.61,0,0,0-.28,1.12Z" style="fill:#6731cf"/><path d="M638.27,224.71a8.86,8.86,0,0,0-1.18.44l-.36-1a7.53,7.53,0,0,1,1.39-.51,6.55,6.55,0,0,1,1.61-.18,3.71,3.71,0,0,1,2.61.84,3.21,3.21,0,0,1,.91,2.49v5.05h-1.18v-1.25a4,4,0,0,1-1.16,1,3.62,3.62,0,0,1-1.83.43,4.28,4.28,0,0,1-1.13-.16,3.06,3.06,0,0,1-1-.49,2.63,2.63,0,0,1-.71-.81,2.39,2.39,0,0,1-.26-1.13,2.51,2.51,0,0,1,.26-1.16,2.25,2.25,0,0,1,.72-.84,3.5,3.5,0,0,1,1.12-.52,5.86,5.86,0,0,1,1.44-.17,9.44,9.44,0,0,1,1.39.09,10.68,10.68,0,0,1,1.15.26v-.29a2.15,2.15,0,0,0-.65-1.69,2.69,2.69,0,0,0-1.81-.56A5.08,5.08,0,0,0,638.27,224.71Zm-.39,3.4a1.49,1.49,0,0,0-.63,1.27,1.45,1.45,0,0,0,.17.7,1.63,1.63,0,0,0,.46.52,1.86,1.86,0,0,0,.66.33,2.9,2.9,0,0,0,.79.11,3.12,3.12,0,0,0,1.07-.17,2.73,2.73,0,0,0,.88-.46,2.19,2.19,0,0,0,.59-.7,1.88,1.88,0,0,0,.22-.91V228l-1.06-.24a8,8,0,0,0-1.37-.11A2.93,2.93,0,0,0,637.88,228.11Z" style="fill:#6731cf"/><path d="M653.9,229.52a4.07,4.07,0,0,1-.89,1.35,3.88,3.88,0,0,1-1.27.85,3.7,3.7,0,0,1-1.46.3,3.57,3.57,0,0,1-1.06-.15,3.21,3.21,0,0,1-.86-.38,3.82,3.82,0,0,1-.7-.56,5.75,5.75,0,0,1-.55-.67v4.14h-1.23V223.57h1.23v1.66a6.23,6.23,0,0,1,.57-.7,3.54,3.54,0,0,1,.7-.58,3.32,3.32,0,0,1,.85-.4,3.21,3.21,0,0,1,1-.16,3.91,3.91,0,0,1,1.45.29,3.8,3.8,0,0,1,1.27.84,4.31,4.31,0,0,1,.9,1.35,4.81,4.81,0,0,1,.33,1.83A4.73,4.73,0,0,1,653.9,229.52Zm-1.17-3.13a3,3,0,0,0-.63-1,2.62,2.62,0,0,0-.93-.64,2.8,2.8,0,0,0-1.12-.23,2.71,2.71,0,0,0-1.11.24,3,3,0,0,0-1.63,1.64,3.56,3.56,0,0,0,0,2.62,3,3,0,0,0,.67,1,3.39,3.39,0,0,0,1,.65,2.9,2.9,0,0,0,2.24,0,2.58,2.58,0,0,0,.93-.62,2.88,2.88,0,0,0,.62-1,3.61,3.61,0,0,0,.24-1.35A3.52,3.52,0,0,0,652.73,226.39Z" style="fill:#6731cf"/><path d="M664.52,229.52a4.07,4.07,0,0,1-.89,1.35,4,4,0,0,1-1.26.85,3.79,3.79,0,0,1-1.47.3,3.51,3.51,0,0,1-1-.15,3.42,3.42,0,0,1-.87-.38,3.76,3.76,0,0,1-.69-.56,5,5,0,0,1-.56-.67v4.14H656.5V223.57h1.23v1.66a6.23,6.23,0,0,1,.57-.7,3.54,3.54,0,0,1,.7-.58,3.32,3.32,0,0,1,.85-.4,3.21,3.21,0,0,1,1-.16,3.87,3.87,0,0,1,1.45.29,3.71,3.71,0,0,1,1.27.84,4.15,4.15,0,0,1,.9,1.35,4.81,4.81,0,0,1,.33,1.83A4.73,4.73,0,0,1,664.52,229.52Zm-1.16-3.13a3.33,3.33,0,0,0-.63-1,2.86,2.86,0,0,0-2.05-.87,2.64,2.64,0,0,0-1.11.24,2.94,2.94,0,0,0-1,.64,3.06,3.06,0,0,0-.68,1,3.7,3.7,0,0,0,0,2.62,2.9,2.9,0,0,0,.68,1,3.13,3.13,0,0,0,1,.65,2.79,2.79,0,0,0,1.11.23,2.92,2.92,0,0,0,1.13-.22,2.62,2.62,0,0,0,.92-.62,2.9,2.9,0,0,0,.63-1,3.82,3.82,0,0,0,.23-1.35A3.73,3.73,0,0,0,663.36,226.39Z" style="fill:#6731cf"/><path d="M672.57,230.57a2.46,2.46,0,0,1-.62.78,2.73,2.73,0,0,1-.93.48,3.58,3.58,0,0,1-1.16.17,5.34,5.34,0,0,1-1.81-.33,5.57,5.57,0,0,1-1.61-.88l.62-.88a5.57,5.57,0,0,0,1.4.78,4.24,4.24,0,0,0,1.47.27,2.06,2.06,0,0,0,1.23-.35,1.12,1.12,0,0,0,.48-1v0a.88.88,0,0,0-.17-.53,1.38,1.38,0,0,0-.46-.39,4.07,4.07,0,0,0-.66-.3l-.78-.24c-.32-.09-.64-.2-1-.31a3.77,3.77,0,0,1-.88-.42,2.17,2.17,0,0,1-.64-.64,1.72,1.72,0,0,1-.25-1v0a2.24,2.24,0,0,1,.79-1.72,3,3,0,0,1,.9-.48,3.65,3.65,0,0,1,1.12-.16,5.33,5.33,0,0,1,1.56.24,6,6,0,0,1,1.42.67l-.56.93a5.64,5.64,0,0,0-1.21-.59,3.89,3.89,0,0,0-1.24-.21,1.83,1.83,0,0,0-1.17.34,1.07,1.07,0,0,0-.43.86v0a.75.75,0,0,0,.18.5,1.51,1.51,0,0,0,.47.38,5.56,5.56,0,0,0,.68.29l.8.25c.32.1.64.2,1,.32a3.89,3.89,0,0,1,.86.45,2.13,2.13,0,0,1,.61.66,1.73,1.73,0,0,1,.24.94v0A2.2,2.2,0,0,1,672.57,230.57Z" style="fill:#6731cf"/><path d="M532.2,259.8v5h-1.26v-11.2h1.26v5h6.46v-5h1.27v11.2h-1.27v-5Z" style="fill:#6731cf"/><path d="M544,262.35a2.79,2.79,0,0,0,.66.88,2.65,2.65,0,0,0,.89.55,3,3,0,0,0,1,.18,3.08,3.08,0,0,0,1.48-.32,4.14,4.14,0,0,0,1.13-.85l.77.69a5,5,0,0,1-1.43,1.13,4.21,4.21,0,0,1-2,.42,4.08,4.08,0,0,1-2.92-1.19,4.22,4.22,0,0,1-.89-1.37,4.56,4.56,0,0,1-.33-1.76,4.67,4.67,0,0,1,.29-1.68,4.17,4.17,0,0,1,.83-1.38,3.79,3.79,0,0,1,1.25-.92,3.84,3.84,0,0,1,1.59-.34,3.76,3.76,0,0,1,1.64.35,3.6,3.6,0,0,1,1.21.93,4.1,4.1,0,0,1,.75,1.4,5.57,5.57,0,0,1,.26,1.71V261a1.49,1.49,0,0,1,0,.21h-6.54A3.31,3.31,0,0,0,544,262.35Zm5-2.1a4.74,4.74,0,0,0-.23-1.07,3.29,3.29,0,0,0-.51-.9,2.54,2.54,0,0,0-.8-.61,2.34,2.34,0,0,0-1.09-.24,2.4,2.4,0,0,0-1,.22,2.49,2.49,0,0,0-.81.59,3.23,3.23,0,0,0-.57.89,3.62,3.62,0,0,0-.29,1.12Z" style="fill:#6731cf"/><path d="M554,257.71a8.38,8.38,0,0,0-1.18.44l-.37-1a7.8,7.8,0,0,1,1.39-.51,6.58,6.58,0,0,1,1.62-.18,3.72,3.72,0,0,1,2.61.84,3.21,3.21,0,0,1,.91,2.49v5h-1.18v-1.25a4.1,4.1,0,0,1-1.16,1,3.66,3.66,0,0,1-1.84.43,4.21,4.21,0,0,1-1.12-.16,3.21,3.21,0,0,1-1-.49,2.6,2.6,0,0,1-.7-.81,2.27,2.27,0,0,1-.26-1.13,2.51,2.51,0,0,1,.25-1.16,2.27,2.27,0,0,1,.73-.84,3.4,3.4,0,0,1,1.12-.52,5.78,5.78,0,0,1,1.43-.17,9.25,9.25,0,0,1,1.39.09,10.86,10.86,0,0,1,1.16.26v-.29a2.15,2.15,0,0,0-.65-1.69,2.71,2.71,0,0,0-1.82-.56A5,5,0,0,0,554,257.71Zm-.4,3.4a1.51,1.51,0,0,0-.62,1.27,1.45,1.45,0,0,0,.17.7,1.6,1.6,0,0,0,.45.52,1.86,1.86,0,0,0,.66.33,3,3,0,0,0,.79.11,3.18,3.18,0,0,0,1.08-.17,2.83,2.83,0,0,0,.88-.46,2.32,2.32,0,0,0,.59-.7,2,2,0,0,0,.21-.91V261c-.31-.08-.66-.16-1.06-.24a7.88,7.88,0,0,0-1.36-.11A3,3,0,0,0,553.62,261.11Z" style="fill:#6731cf"/><path d="M568.26,264.84v-1.66a7.46,7.46,0,0,1-.56.7,3.59,3.59,0,0,1-.7.59,3.08,3.08,0,0,1-.86.4,3.39,3.39,0,0,1-1,.15,3.88,3.88,0,0,1-1.46-.29,3.76,3.76,0,0,1-1.26-.84,4,4,0,0,1-.9-1.35,4.78,4.78,0,0,1-.34-1.83,4.72,4.72,0,0,1,.34-1.82,4,4,0,0,1,.9-1.35,4,4,0,0,1,1.26-.85,3.7,3.7,0,0,1,1.46-.3,3.51,3.51,0,0,1,1,.15,3.42,3.42,0,0,1,.87.38,4.12,4.12,0,0,1,.69.56,5.57,5.57,0,0,1,.55.67v-5h1.24v11.68Zm-.2-5.45a3,3,0,0,0-.67-1,2.94,2.94,0,0,0-1-.64,2.67,2.67,0,0,0-1.11-.24,3.12,3.12,0,0,0-1.14.22,2.72,2.72,0,0,0-.92.62,2.88,2.88,0,0,0-.62,1,3.82,3.82,0,0,0-.23,1.35,3.65,3.65,0,0,0,.23,1.32,3.14,3.14,0,0,0,.63,1,2.67,2.67,0,0,0,.93.64,2.82,2.82,0,0,0,2.23,0,3.13,3.13,0,0,0,1-.65,2.88,2.88,0,0,0,.67-1,3.56,3.56,0,0,0,0-2.62Z" style="fill:#6731cf"/><path d="M572.36,264.84V253.16h1.23v11.68Z" style="fill:#6731cf"/><path d="M577.53,262.35a2.92,2.92,0,0,0,.65.88,2.8,2.8,0,0,0,.9.55,3,3,0,0,0,1,.18,3.08,3.08,0,0,0,1.48-.32,4.14,4.14,0,0,0,1.13-.85l.77.69a5.14,5.14,0,0,1-1.43,1.13,4.21,4.21,0,0,1-2,.42,4.08,4.08,0,0,1-2.92-1.19,4.22,4.22,0,0,1-.89-1.37,4.38,4.38,0,0,1-.34-1.76,4.68,4.68,0,0,1,.3-1.68,4.32,4.32,0,0,1,.82-1.38,3.82,3.82,0,0,1,2.85-1.26,3.72,3.72,0,0,1,1.63.35,3.64,3.64,0,0,1,1.22.93,4.1,4.1,0,0,1,.75,1.4,5.57,5.57,0,0,1,.26,1.71V261a1.49,1.49,0,0,1,0,.21h-6.54A3.31,3.31,0,0,0,577.53,262.35Zm5-2.1a3.86,3.86,0,0,0-.23-1.07,2.84,2.84,0,0,0-.51-.9,2.39,2.39,0,0,0-.79-.61,2.37,2.37,0,0,0-1.09-.24,2.4,2.4,0,0,0-1,.22,2.49,2.49,0,0,0-.81.59,3,3,0,0,0-.58.89,3.92,3.92,0,0,0-.28,1.12Z" style="fill:#6731cf"/><path d="M591.38,263.57a2.64,2.64,0,0,1-.63.78,2.73,2.73,0,0,1-.93.48,3.58,3.58,0,0,1-1.16.17,5.24,5.24,0,0,1-1.8-.33,5.5,5.5,0,0,1-1.62-.88l.62-.88a5.57,5.57,0,0,0,1.4.78,4.24,4.24,0,0,0,1.47.27,2.06,2.06,0,0,0,1.23-.35,1.12,1.12,0,0,0,.48-1v0a.88.88,0,0,0-.17-.53,1.44,1.44,0,0,0-.45-.39,4.64,4.64,0,0,0-.67-.3l-.77-.24c-.32-.09-.65-.2-1-.31a3.77,3.77,0,0,1-.88-.42,2.29,2.29,0,0,1-.64-.64,1.72,1.72,0,0,1-.25-1v0a2.24,2.24,0,0,1,.79-1.72,3,3,0,0,1,.9-.48,3.67,3.67,0,0,1,1.13-.16,5.32,5.32,0,0,1,1.55.24,6,6,0,0,1,1.42.67l-.56.93a5.64,5.64,0,0,0-1.21-.59,3.89,3.89,0,0,0-1.24-.21,1.78,1.78,0,0,0-1.16.34,1.05,1.05,0,0,0-.44.86v0a.75.75,0,0,0,.18.5,1.51,1.51,0,0,0,.47.38,6.32,6.32,0,0,0,.68.29l.8.25c.32.1.64.2.95.32a3.89,3.89,0,0,1,.86.45,2.16,2.16,0,0,1,.62.66,1.82,1.82,0,0,1,.23.94v0A2.32,2.32,0,0,1,591.38,263.57Z" style="fill:#6731cf"/><path d="M599.18,263.57a2.46,2.46,0,0,1-.62.78,2.73,2.73,0,0,1-.93.48,3.62,3.62,0,0,1-1.16.17,5.3,5.3,0,0,1-1.81-.33,5.57,5.57,0,0,1-1.61-.88l.62-.88a5.57,5.57,0,0,0,1.4.78,4.2,4.2,0,0,0,1.47.27,2.06,2.06,0,0,0,1.23-.35,1.12,1.12,0,0,0,.48-1v0a.88.88,0,0,0-.17-.53,1.38,1.38,0,0,0-.46-.39,4.07,4.07,0,0,0-.66-.3l-.78-.24c-.32-.09-.64-.2-1-.31a3.77,3.77,0,0,1-.88-.42,2.17,2.17,0,0,1-.64-.64,1.72,1.72,0,0,1-.25-1v0a2.18,2.18,0,0,1,.21-1,2.06,2.06,0,0,1,.58-.76,3,3,0,0,1,.9-.48,3.65,3.65,0,0,1,1.12-.16,5.33,5.33,0,0,1,1.56.24,6,6,0,0,1,1.42.67l-.56.93a5.64,5.64,0,0,0-1.21-.59,3.89,3.89,0,0,0-1.24-.21,1.83,1.83,0,0,0-1.17.34,1.07,1.07,0,0,0-.43.86v0a.75.75,0,0,0,.18.5,1.51,1.51,0,0,0,.47.38,5.56,5.56,0,0,0,.68.29l.8.25c.32.1.64.2,1,.32a3.89,3.89,0,0,1,.86.45,2.13,2.13,0,0,1,.61.66,1.73,1.73,0,0,1,.24.94v0A2.2,2.2,0,0,1,599.18,263.57Z" style="fill:#6731cf"/><path d="M613.57,257.4a3,3,0,0,1,.63-.53,3.16,3.16,0,0,1,.79-.35,3.71,3.71,0,0,1,1-.13,2.9,2.9,0,0,1,2.25.89,3.45,3.45,0,0,1,.82,2.44v5.12h-1.23V260a2.71,2.71,0,0,0-.57-1.85,2,2,0,0,0-1.58-.65,2.38,2.38,0,0,0-.88.17,2,2,0,0,0-.73.5,2.5,2.5,0,0,0-.49.81,2.85,2.85,0,0,0-.19,1.08v4.77h-1.21V260a2.66,2.66,0,0,0-.57-1.82,2,2,0,0,0-1.56-.65,2.09,2.09,0,0,0-.91.2,2.14,2.14,0,0,0-.73.54,2.59,2.59,0,0,0-.49.82,3,3,0,0,0-.17,1.05v4.72H606.5v-8.27h1.24V258a6.14,6.14,0,0,1,.45-.59,3,3,0,0,1,.57-.5,2.68,2.68,0,0,1,.72-.35,3.26,3.26,0,0,1,.93-.13,2.74,2.74,0,0,1,1.66.48,2.94,2.94,0,0,1,1,1.17A5.11,5.11,0,0,1,613.57,257.4Z" style="fill:#6731cf"/><path d="M629.5,262.37a4.34,4.34,0,0,1-.9,1.38,4.07,4.07,0,0,1-1.38.94,4.52,4.52,0,0,1-3.44,0,4.44,4.44,0,0,1-1.36-.93,4.11,4.11,0,0,1-.89-1.37,4.2,4.2,0,0,1-.32-1.66,4.43,4.43,0,0,1,1.21-3.06,4.37,4.37,0,0,1,1.37-.93,4.33,4.33,0,0,1,1.74-.35,4.26,4.26,0,0,1,1.72.35,4.37,4.37,0,0,1,1.37.93,4.17,4.17,0,0,1,.89,1.36,4.47,4.47,0,0,1,.32,1.67A4.33,4.33,0,0,1,629.5,262.37Zm-1.16-2.91a3.4,3.4,0,0,0-.65-1,3.22,3.22,0,0,0-1-.69,2.89,2.89,0,0,0-1.21-.26,3,3,0,0,0-1.24.25,2.62,2.62,0,0,0-1,.69,3.08,3.08,0,0,0-.61,1,3.43,3.43,0,0,0-.23,1.25,3.48,3.48,0,0,0,.23,1.26,3.33,3.33,0,0,0,.64,1,3.18,3.18,0,0,0,1,.69,2.9,2.9,0,0,0,1.22.25,3.07,3.07,0,0,0,1.23-.24,3,3,0,0,0,1-.68,3.1,3.1,0,0,0,.62-1,3.39,3.39,0,0,0,.23-1.25A3.48,3.48,0,0,0,628.34,259.46Z" style="fill:#6731cf"/><path d="M638.7,264.84v-1.66c-.18.24-.37.48-.57.7a3.59,3.59,0,0,1-.7.59,3,3,0,0,1-.85.4,3.51,3.51,0,0,1-1.05.15,3.88,3.88,0,0,1-1.46-.29,3.76,3.76,0,0,1-1.26-.84,4.15,4.15,0,0,1-.9-1.35,4.78,4.78,0,0,1-.33-1.83,4.73,4.73,0,0,1,.33-1.82,4.15,4.15,0,0,1,.9-1.35,4,4,0,0,1,1.26-.85,3.7,3.7,0,0,1,1.46-.3,3.51,3.51,0,0,1,1.05.15,3.42,3.42,0,0,1,.87.38,3.76,3.76,0,0,1,.69.56,5.68,5.68,0,0,1,.56.67v-5h1.23v11.68Zm-.2-5.45a3.06,3.06,0,0,0-.68-1,2.94,2.94,0,0,0-1-.64,2.64,2.64,0,0,0-1.11-.24,3,3,0,0,0-1.13.22,2.54,2.54,0,0,0-.92.62,2.9,2.9,0,0,0-.63,1,3.82,3.82,0,0,0-.23,1.35,3.65,3.65,0,0,0,.23,1.32,3.33,3.33,0,0,0,.63,1,2.67,2.67,0,0,0,.93.64,2.84,2.84,0,0,0,1.12.23,2.79,2.79,0,0,0,1.11-.23,3.13,3.13,0,0,0,1-.65,2.9,2.9,0,0,0,.68-1,3.7,3.7,0,0,0,0-2.62Z" style="fill:#6731cf"/><path d="M648.55,256.57h1.22v8.27h-1.22V263.4a4,4,0,0,1-1.09,1.15,3,3,0,0,1-1.74.47,3.52,3.52,0,0,1-1.34-.24,2.78,2.78,0,0,1-1-.68,3,3,0,0,1-.62-1.05,3.85,3.85,0,0,1-.22-1.34v-5.14h1.23v4.83a2.7,2.7,0,0,0,.59,1.83,2.18,2.18,0,0,0,1.7.67,2.45,2.45,0,0,0,1-.19,2.14,2.14,0,0,0,.79-.52,2.6,2.6,0,0,0,.52-.83,2.76,2.76,0,0,0,.19-1.05Z" style="fill:#6731cf"/><path d="M652.65,264.84V253.16h1.23v11.68Z" style="fill:#6731cf"/><path d="M657.81,262.35a3,3,0,0,0,.66.88,2.8,2.8,0,0,0,.9.55,3,3,0,0,0,1,.18,3.11,3.11,0,0,0,1.48-.32,4.1,4.1,0,0,0,1.12-.85l.77.69a5,5,0,0,1-1.42,1.13,4.25,4.25,0,0,1-2,.42,4.15,4.15,0,0,1-1.6-.31,3.93,3.93,0,0,1-1.31-.88,4.08,4.08,0,0,1-.9-1.37,4.56,4.56,0,0,1-.33-1.76,4.68,4.68,0,0,1,.3-1.68,4.15,4.15,0,0,1,.82-1.38,3.73,3.73,0,0,1,1.26-.92,3.78,3.78,0,0,1,1.59-.34,3.72,3.72,0,0,1,1.63.35,3.64,3.64,0,0,1,1.22.93,4.1,4.1,0,0,1,.75,1.4,5.57,5.57,0,0,1,.25,1.71V261a1.48,1.48,0,0,1,0,.21h-6.55A3.52,3.52,0,0,0,657.81,262.35Zm5-2.1a4.25,4.25,0,0,0-.23-1.07,2.84,2.84,0,0,0-.51-.9,2.5,2.5,0,0,0-.79-.61,2.39,2.39,0,0,0-1.09-.24,2.44,2.44,0,0,0-1,.22,2.72,2.72,0,0,0-.81.59,3.23,3.23,0,0,0-.57.89,3.92,3.92,0,0,0-.29,1.12Z" style="fill:#6731cf"/><path d="M539.63,296.87a5.47,5.47,0,0,1-1,.62,6.45,6.45,0,0,1-1.17.4,6,6,0,0,1-1.39.14,5.67,5.67,0,0,1-2.24-.44,5.45,5.45,0,0,1-1.78-1.23,5.82,5.82,0,0,1-1.18-1.83,6,6,0,0,1,1.18-6.38,5.57,5.57,0,0,1,4.06-1.7,6.51,6.51,0,0,1,1.39.13,5.06,5.06,0,0,1,1.14.36,5,5,0,0,1,1,.56,8.32,8.32,0,0,1,.86.73l-.86.92a7.42,7.42,0,0,0-1.55-1.1,4.13,4.13,0,0,0-2-.43,4.26,4.26,0,0,0-1.72.35,4.09,4.09,0,0,0-1.38,1,4.45,4.45,0,0,0-.91,1.46,5.18,5.18,0,0,0,0,3.64,4.4,4.4,0,0,0,.91,1.47,4.26,4.26,0,0,0,1.38,1,4.11,4.11,0,0,0,1.72.36,4.32,4.32,0,0,0,2-.43,6.7,6.7,0,0,0,1.63-1.19l.84.82A8.54,8.54,0,0,1,539.63,296.87Z" style="fill:#6731cf"/><path d="M542.74,286.64H544v10h6.3v1.17h-7.57Z" style="fill:#6731cf"/><path d="M554,286.64v11.2h-1.26v-11.2Z" style="fill:#6731cf"/><path d="M563.56,295.49a1.31,1.31,0,0,0,.38,1.07,1.62,1.62,0,0,0,1,.31,2.65,2.65,0,0,0,1.2-.29v1.05a2.68,2.68,0,0,1-.68.27,3.48,3.48,0,0,1-1.73,0,2,2,0,0,1-.75-.41,1.92,1.92,0,0,1-.49-.73,3.08,3.08,0,0,1-.17-1.07v-5h-1.15v-1.09h1.15v-2.5h1.23v2.5h2.62v1.09h-2.62Z" style="fill:#6731cf"/><path d="M575.9,295.37a4.17,4.17,0,0,1-.9,1.38,4.07,4.07,0,0,1-1.38.94,4.52,4.52,0,0,1-3.44,0,4.44,4.44,0,0,1-1.36-.93,4.11,4.11,0,0,1-.89-1.37,4.2,4.2,0,0,1-.32-1.66,4.43,4.43,0,0,1,1.21-3.06,4.37,4.37,0,0,1,1.37-.93,4.33,4.33,0,0,1,1.74-.35,4.26,4.26,0,0,1,1.72.35,4.37,4.37,0,0,1,1.37.93,4.17,4.17,0,0,1,.89,1.36,4.47,4.47,0,0,1,.32,1.67A4.33,4.33,0,0,1,575.9,295.37Zm-1.16-2.91a3.4,3.4,0,0,0-.65-1,3.22,3.22,0,0,0-1-.69,2.89,2.89,0,0,0-1.21-.26,3,3,0,0,0-1.24.25,2.62,2.62,0,0,0-.95.69,3.26,3.26,0,0,0-.61,1,3.43,3.43,0,0,0-.23,1.25,3.48,3.48,0,0,0,.23,1.26,3.33,3.33,0,0,0,.64,1,3.18,3.18,0,0,0,1,.69,2.9,2.9,0,0,0,1.22.25,3.07,3.07,0,0,0,1.23-.24,3,3,0,0,0,1-.68,3.1,3.1,0,0,0,.62-1,3.39,3.39,0,0,0,.23-1.25A3.48,3.48,0,0,0,574.74,292.46Z" style="fill:#6731cf"/><path d="M588.94,297.58a3.89,3.89,0,0,1-2,.45,4.07,4.07,0,0,1-1.68-.34,4.21,4.21,0,0,1-2.24-2.3,4.38,4.38,0,0,1-.32-1.66,4.43,4.43,0,0,1,1.21-3.06,4.28,4.28,0,0,1,1.35-.93,4.08,4.08,0,0,1,1.68-.35,4.46,4.46,0,0,1,1.08.12,3.53,3.53,0,0,1,.88.31,4,4,0,0,1,.73.47,5.77,5.77,0,0,1,.63.58l-.82.86a6,6,0,0,0-1.08-.88,2.6,2.6,0,0,0-1.43-.37,2.7,2.7,0,0,0-1.17.25,2.67,2.67,0,0,0-.94.69,3.13,3.13,0,0,0-.63,1,3.42,3.42,0,0,0-.22,1.25,3.28,3.28,0,0,0,.23,1.26,3.2,3.2,0,0,0,.64,1,2.85,2.85,0,0,0,2.17.93,2.73,2.73,0,0,0,1.41-.35,4.94,4.94,0,0,0,1.12-.88l.78.74A5.61,5.61,0,0,1,588.94,297.58Z" style="fill:#6731cf"/><path d="M593.62,297.84h-1.23v-8.27h1.23v2.16a4.41,4.41,0,0,1,.56-.94A3.9,3.9,0,0,1,595,290a3.27,3.27,0,0,1,2-.61v1.32h-.1a3.41,3.41,0,0,0-1.27.24,2.9,2.9,0,0,0-1,.72,3.37,3.37,0,0,0-.7,1.2,4.82,4.82,0,0,0-.26,1.64Z" style="fill:#6731cf"/><path d="M599.59,295.35a2.79,2.79,0,0,0,.66.88,2.65,2.65,0,0,0,.89.55,3,3,0,0,0,1,.18,3.08,3.08,0,0,0,1.48-.32,4.14,4.14,0,0,0,1.13-.85l.77.69a5.09,5.09,0,0,1-1.42,1.13,4.28,4.28,0,0,1-2,.42,4.11,4.11,0,0,1-1.6-.31,3.93,3.93,0,0,1-1.31-.88,4.08,4.08,0,0,1-.9-1.37,4.56,4.56,0,0,1-.33-1.76,4.9,4.9,0,0,1,.29-1.68,4.34,4.34,0,0,1,.83-1.38,3.79,3.79,0,0,1,1.25-.92,3.86,3.86,0,0,1,1.6-.34,3.75,3.75,0,0,1,1.63.35,3.6,3.6,0,0,1,1.21.93,4.29,4.29,0,0,1,.76,1.4,5.57,5.57,0,0,1,.25,1.71V294a1.48,1.48,0,0,1,0,.21h-6.55A3.31,3.31,0,0,0,599.59,295.35Zm5-2.1a4.25,4.25,0,0,0-.23-1.07,3.05,3.05,0,0,0-.51-.9,2.43,2.43,0,0,0-.8-.61,2.34,2.34,0,0,0-1.09-.24,2.4,2.4,0,0,0-1,.22,2.49,2.49,0,0,0-.81.59,3.23,3.23,0,0,0-.57.89,3.62,3.62,0,0,0-.29,1.12Z" style="fill:#6731cf"/><path d="M609.65,290.71a8.86,8.86,0,0,0-1.18.44l-.37-1a7.62,7.62,0,0,1,1.4-.51,6.44,6.44,0,0,1,1.61-.18,3.72,3.72,0,0,1,2.61.84,3.21,3.21,0,0,1,.91,2.49v5h-1.18v-1.25a4.1,4.1,0,0,1-1.16,1,3.64,3.64,0,0,1-1.83.43,4.28,4.28,0,0,1-1.13-.16,3.06,3.06,0,0,1-1-.49,2.51,2.51,0,0,1-.71-.81,2.39,2.39,0,0,1-.26-1.13,2.51,2.51,0,0,1,.25-1.16,2.27,2.27,0,0,1,.73-.84,3.5,3.5,0,0,1,1.12-.52,5.78,5.78,0,0,1,1.43-.17,9.49,9.49,0,0,1,1.4.09,11.25,11.25,0,0,1,1.15.26v-.29a2.15,2.15,0,0,0-.65-1.69,2.71,2.71,0,0,0-1.82-.56A5,5,0,0,0,609.65,290.71Zm-.4,3.4a1.51,1.51,0,0,0-.62,1.27,1.45,1.45,0,0,0,.17.7,1.6,1.6,0,0,0,.45.52,1.91,1.91,0,0,0,.67.33,2.9,2.9,0,0,0,.79.11,3.12,3.12,0,0,0,1.07-.17,2.73,2.73,0,0,0,.88-.46,2.32,2.32,0,0,0,.59-.7,2,2,0,0,0,.21-.91V294c-.3-.08-.66-.16-1.06-.24a7.88,7.88,0,0,0-1.36-.11A3,3,0,0,0,609.25,294.11Z" style="fill:#6731cf"/><path d="M618.84,295.49a1.31,1.31,0,0,0,.38,1.07,1.62,1.62,0,0,0,1,.31,2.9,2.9,0,0,0,.6-.07,2.76,2.76,0,0,0,.6-.22v1.05a2.68,2.68,0,0,1-.68.27,3.48,3.48,0,0,1-1.73,0,2,2,0,0,1-.75-.41,1.92,1.92,0,0,1-.49-.73,3.08,3.08,0,0,1-.17-1.07v-5h-1.15v-1.09h1.15v-2.5h1.23v2.5h2.62v1.09h-2.62Z" style="fill:#6731cf"/><path d="M624.47,295.35a2.79,2.79,0,0,0,.66.88,2.65,2.65,0,0,0,.89.55,3,3,0,0,0,1,.18,3.08,3.08,0,0,0,1.48-.32,4.14,4.14,0,0,0,1.13-.85l.77.69a5.09,5.09,0,0,1-1.42,1.13,4.28,4.28,0,0,1-2,.42,4.11,4.11,0,0,1-1.6-.31,3.93,3.93,0,0,1-1.31-.88,4.08,4.08,0,0,1-.9-1.37,4.56,4.56,0,0,1-.33-1.76,4.9,4.9,0,0,1,.29-1.68,4.34,4.34,0,0,1,.83-1.38,3.79,3.79,0,0,1,1.25-.92,3.86,3.86,0,0,1,1.6-.34,3.75,3.75,0,0,1,1.63.35,3.6,3.6,0,0,1,1.21.93,4.29,4.29,0,0,1,.76,1.4,5.57,5.57,0,0,1,.25,1.71V294a1.48,1.48,0,0,1,0,.21h-6.55A3.31,3.31,0,0,0,624.47,295.35Zm5-2.1a4.25,4.25,0,0,0-.23-1.07,3.05,3.05,0,0,0-.51-.9,2.43,2.43,0,0,0-.8-.61,2.34,2.34,0,0,0-1.09-.24,2.4,2.4,0,0,0-1,.22,2.49,2.49,0,0,0-.81.59,3.23,3.23,0,0,0-.57.89,3.62,3.62,0,0,0-.29,1.12Z" style="fill:#6731cf"/><path d="M639.33,290.71a8.86,8.86,0,0,0-1.18.44l-.37-1a7.62,7.62,0,0,1,1.4-.51,6.44,6.44,0,0,1,1.61-.18,3.72,3.72,0,0,1,2.61.84,3.21,3.21,0,0,1,.91,2.49v5h-1.18v-1.25a4.1,4.1,0,0,1-1.16,1,3.64,3.64,0,0,1-1.83.43,4.28,4.28,0,0,1-1.13-.16,3.06,3.06,0,0,1-1-.49,2.51,2.51,0,0,1-.71-.81,2.39,2.39,0,0,1-.26-1.13,2.51,2.51,0,0,1,.25-1.16,2.27,2.27,0,0,1,.73-.84,3.5,3.5,0,0,1,1.12-.52,5.78,5.78,0,0,1,1.43-.17,9.49,9.49,0,0,1,1.4.09,11.25,11.25,0,0,1,1.15.26v-.29a2.15,2.15,0,0,0-.65-1.69,2.71,2.71,0,0,0-1.82-.56A5,5,0,0,0,639.33,290.71Zm-.4,3.4a1.51,1.51,0,0,0-.62,1.27,1.45,1.45,0,0,0,.17.7,1.6,1.6,0,0,0,.45.52,1.91,1.91,0,0,0,.67.33,2.83,2.83,0,0,0,.78.11,3.14,3.14,0,0,0,1.08-.17,2.73,2.73,0,0,0,.88-.46,2.32,2.32,0,0,0,.59-.7,2,2,0,0,0,.21-.91V294c-.31-.08-.66-.16-1.06-.24a7.88,7.88,0,0,0-1.36-.11A3,3,0,0,0,638.93,294.11Z" style="fill:#6731cf"/><path d="M648.17,297.84h-1.23v-8.27h1.23V291a3.78,3.78,0,0,1,1.08-1.14,3,3,0,0,1,1.75-.48,3.43,3.43,0,0,1,1.33.24,2.82,2.82,0,0,1,1,.68,3.07,3.07,0,0,1,.62,1.05,3.86,3.86,0,0,1,.22,1.35v5.13h-1.23V293a2.61,2.61,0,0,0-.6-1.82,2.13,2.13,0,0,0-1.69-.68,2.68,2.68,0,0,0-1,.19,2.34,2.34,0,0,0-.79.53,2.39,2.39,0,0,0-.52.82,3,3,0,0,0-.18,1.06Z" style="fill:#6731cf"/><path d="M663.43,297.84v-1.66a6.23,6.23,0,0,1-.57.7,3.53,3.53,0,0,1-.69.59,3.08,3.08,0,0,1-.86.4,3.41,3.41,0,0,1-1,.15,3.83,3.83,0,0,1-1.45-.29,3.91,3.91,0,0,1-1.27-.84,4.12,4.12,0,0,1-.89-1.35,4.59,4.59,0,0,1-.34-1.83,4.54,4.54,0,0,1,.34-1.82,4,4,0,0,1,2.16-2.2,3.66,3.66,0,0,1,1.45-.3,3.53,3.53,0,0,1,1.06.15,3.21,3.21,0,0,1,.86.38,3.82,3.82,0,0,1,.7.56,5.57,5.57,0,0,1,.55.67v-5h1.23v11.68Zm-.2-5.45a3,3,0,0,0-.67-1,2.94,2.94,0,0,0-1-.64,2.71,2.71,0,0,0-1.11-.24,3,3,0,0,0-1.14.22,2.62,2.62,0,0,0-.92.62,2.88,2.88,0,0,0-.62,1,3.61,3.61,0,0,0-.23,1.35,3.45,3.45,0,0,0,.23,1.32,3,3,0,0,0,.63,1,2.67,2.67,0,0,0,.93.64,2.8,2.8,0,0,0,1.12.23,2.87,2.87,0,0,0,1.11-.23,3.13,3.13,0,0,0,1-.65,2.88,2.88,0,0,0,.67-1,3.56,3.56,0,0,0,0-2.62Z" style="fill:#6731cf"/><path d="M678.85,297.84v-1.66a7.46,7.46,0,0,1-.56.7,3.59,3.59,0,0,1-.7.59,3.08,3.08,0,0,1-.86.4,3.39,3.39,0,0,1-1,.15,3.88,3.88,0,0,1-1.46-.29,3.76,3.76,0,0,1-1.26-.84,4,4,0,0,1-.9-1.35,4.78,4.78,0,0,1-.34-1.83,4.72,4.72,0,0,1,.34-1.82,4,4,0,0,1,.9-1.35,4,4,0,0,1,1.26-.85,3.7,3.7,0,0,1,1.46-.3,3.51,3.51,0,0,1,1,.15,3.42,3.42,0,0,1,.87.38,4.12,4.12,0,0,1,.69.56,5.57,5.57,0,0,1,.55.67v-5h1.24v11.68Zm-.2-5.45a3,3,0,0,0-.67-1,2.94,2.94,0,0,0-1-.64,2.67,2.67,0,0,0-1.11-.24,3.08,3.08,0,0,0-1.14.22,2.72,2.72,0,0,0-.92.62,2.88,2.88,0,0,0-.62,1,3.82,3.82,0,0,0-.23,1.35,3.65,3.65,0,0,0,.23,1.32,3.14,3.14,0,0,0,.63,1,2.67,2.67,0,0,0,.93.64,2.82,2.82,0,0,0,2.23,0,3.13,3.13,0,0,0,1-.65,2.88,2.88,0,0,0,.67-1,3.56,3.56,0,0,0,0-2.62Z" style="fill:#6731cf"/><path d="M683.91,295.35a2.79,2.79,0,0,0,.66.88,2.65,2.65,0,0,0,.89.55,3,3,0,0,0,1,.18,3.08,3.08,0,0,0,1.48-.32,4.14,4.14,0,0,0,1.13-.85l.77.69a5,5,0,0,1-1.43,1.13,4.21,4.21,0,0,1-2,.42,4.08,4.08,0,0,1-2.92-1.19,4.22,4.22,0,0,1-.89-1.37,4.56,4.56,0,0,1-.33-1.76,4.67,4.67,0,0,1,.29-1.68,4.17,4.17,0,0,1,.83-1.38,3.79,3.79,0,0,1,1.25-.92,3.84,3.84,0,0,1,1.59-.34,3.76,3.76,0,0,1,1.64.35,3.6,3.6,0,0,1,1.21.93,4.1,4.1,0,0,1,.75,1.4,5.57,5.57,0,0,1,.26,1.71V294a.75.75,0,0,1,0,.21h-6.54A3.31,3.31,0,0,0,683.91,295.35Zm5-2.1a4.74,4.74,0,0,0-.23-1.07,3.29,3.29,0,0,0-.51-.9,2.54,2.54,0,0,0-.8-.61,2.34,2.34,0,0,0-1.09-.24,2.4,2.4,0,0,0-1,.22,2.49,2.49,0,0,0-.81.59,3.23,3.23,0,0,0-.57.89,3.62,3.62,0,0,0-.29,1.12Z" style="fill:#6731cf"/><path d="M700.33,295.52a4.07,4.07,0,0,1-.89,1.35,3.88,3.88,0,0,1-1.27.85,3.7,3.7,0,0,1-1.46.3,3.57,3.57,0,0,1-1.06-.15,3.35,3.35,0,0,1-.86-.38,3.82,3.82,0,0,1-.7-.56,5.75,5.75,0,0,1-.55-.67v4.14h-1.23V289.57h1.23v1.66a6.23,6.23,0,0,1,.57-.7,3.54,3.54,0,0,1,.7-.58,3.32,3.32,0,0,1,.85-.4,3.21,3.21,0,0,1,1.05-.16,3.91,3.91,0,0,1,1.45.29,3.8,3.8,0,0,1,1.27.84,4.31,4.31,0,0,1,.9,1.35,4.81,4.81,0,0,1,.33,1.83A4.73,4.73,0,0,1,700.33,295.52Zm-1.16-3.13a3.17,3.17,0,0,0-.64-1,2.68,2.68,0,0,0-.92-.64,2.88,2.88,0,0,0-1.12-.23,2.72,2.72,0,0,0-1.12.24,3,3,0,0,0-1.63,1.64,3.56,3.56,0,0,0,0,2.62,3,3,0,0,0,.67,1,3.39,3.39,0,0,0,1,.65,2.88,2.88,0,0,0,1.12.23,2.83,2.83,0,0,0,1.12-.22,2.58,2.58,0,0,0,.93-.62,3.05,3.05,0,0,0,.63-1,3.82,3.82,0,0,0,.23-1.35A3.73,3.73,0,0,0,699.17,292.39Z" style="fill:#6731cf"/><path d="M703.05,297.84V286.16h1.23v11.68Z" style="fill:#6731cf"/><path d="M714.93,295.37a4.2,4.2,0,0,1-.91,1.38,4.13,4.13,0,0,1-1.37.94,4.34,4.34,0,0,1-1.73.34,4.23,4.23,0,0,1-3.07-1.27,4,4,0,0,1-.9-1.37,4.38,4.38,0,0,1-.32-1.66,4.47,4.47,0,0,1,.32-1.67,4.16,4.16,0,0,1,.9-1.39,4.29,4.29,0,0,1,3.1-1.28,4.26,4.26,0,0,1,1.72.35,4.37,4.37,0,0,1,1.37.93,4.17,4.17,0,0,1,.89,1.36,4.28,4.28,0,0,1,.32,1.67A4.51,4.51,0,0,1,714.93,295.37Zm-1.17-2.91a3.22,3.22,0,0,0-.65-1,3.1,3.1,0,0,0-1-.69,2.86,2.86,0,0,0-1.21-.26,2.91,2.91,0,0,0-1.23.25,2.65,2.65,0,0,0-1,.69,3.26,3.26,0,0,0-.61,1,3.43,3.43,0,0,0-.23,1.25,3.29,3.29,0,0,0,.24,1.26,3.1,3.1,0,0,0,1.6,1.71,2.93,2.93,0,0,0,1.22.25,3.07,3.07,0,0,0,1.23-.24,2.79,2.79,0,0,0,1-.68,3.13,3.13,0,0,0,.63-1,3.39,3.39,0,0,0,.22-1.25A3.48,3.48,0,0,0,713.76,292.46Z" style="fill:#6731cf"/><path d="M721,298.11a4.39,4.39,0,0,1-1.18,1.81,2.4,2.4,0,0,1-1.57.53,3.51,3.51,0,0,1-1.76-.42l.41-1a3.48,3.48,0,0,0,.6.23,2.91,2.91,0,0,0,.7.07,1.38,1.38,0,0,0,.94-.33,3.42,3.42,0,0,0,.76-1.22l-3.76-8.24h1.36l3,6.9,2.66-6.9h1.31Z" style="fill:#6731cf"/><path d="M739.27,295.52a4,4,0,0,1-2.15,2.2,3.79,3.79,0,0,1-1.47.3,3.51,3.51,0,0,1-1-.15,3.42,3.42,0,0,1-.87-.38,4.12,4.12,0,0,1-.69-.56,4.89,4.89,0,0,1-.55-.67v4.14h-1.24V289.57h1.24v1.66a7.46,7.46,0,0,1,.56-.7,3.54,3.54,0,0,1,.7-.58,3.39,3.39,0,0,1,.86-.4,3.11,3.11,0,0,1,1-.16,3.87,3.87,0,0,1,1.45.29,3.71,3.71,0,0,1,1.27.84,4,4,0,0,1,.9,1.35,4.81,4.81,0,0,1,.34,1.83A4.72,4.72,0,0,1,739.27,295.52Zm-1.16-3.13a3.33,3.33,0,0,0-.63-1,2.86,2.86,0,0,0-2.05-.87,2.67,2.67,0,0,0-1.11.24,2.94,2.94,0,0,0-1,.64,2.89,2.89,0,0,0-.67,1,3.56,3.56,0,0,0,0,2.62,2.75,2.75,0,0,0,.67,1,3.13,3.13,0,0,0,1,.65,2.83,2.83,0,0,0,1.11.23,2.92,2.92,0,0,0,1.13-.22,2.76,2.76,0,0,0,.93-.62,3,3,0,0,0,.62-1,3.82,3.82,0,0,0,.23-1.35A3.73,3.73,0,0,0,738.11,292.39Z" style="fill:#6731cf"/><path d="M743.11,297.84h-1.23v-8.27h1.23v2.16a4.41,4.41,0,0,1,.56-.94,3.65,3.65,0,0,1,.77-.75,3.22,3.22,0,0,1,2-.61v1.32h-.1a3.38,3.38,0,0,0-1.27.24,2.9,2.9,0,0,0-1,.72,3.37,3.37,0,0,0-.7,1.2,4.59,4.59,0,0,0-.26,1.64Z" style="fill:#6731cf"/><path d="M755.79,295.37a4.34,4.34,0,0,1-.9,1.38,4.28,4.28,0,0,1-3.11,1.28,4.18,4.18,0,0,1-1.71-.34,4.24,4.24,0,0,1-2.26-2.3,4.38,4.38,0,0,1-.32-1.66,4.38,4.38,0,0,1,1.22-3.06,4.37,4.37,0,0,1,6.19,0,4.19,4.19,0,0,1,.9,1.36,4.47,4.47,0,0,1,.32,1.67A4.33,4.33,0,0,1,755.79,295.37Zm-1.17-2.91a3.11,3.11,0,0,0-1.62-1.72,3.07,3.07,0,0,0-2.45,0,2.62,2.62,0,0,0-.95.69,3.28,3.28,0,0,0-.62,1,3.42,3.42,0,0,0-.22,1.25A3.28,3.28,0,0,0,749,295a3.15,3.15,0,0,0,.64,1,3,3,0,0,0,1,.69,2.88,2.88,0,0,0,1.21.25,3.15,3.15,0,0,0,1.24-.24,3,3,0,0,0,1-.68,3.28,3.28,0,0,0,.62-1,3.39,3.39,0,0,0,.22-1.25A3.28,3.28,0,0,0,754.62,292.46Z" style="fill:#6731cf"/><path d="M759.69,289.57v8.75a2.14,2.14,0,0,1-.54,1.62,2.06,2.06,0,0,1-1.48.51l-.39,0-.38-.06v-1a1.55,1.55,0,0,0,.31,0h.3a.94.94,0,0,0,.68-.26,1.14,1.14,0,0,0,.26-.84v-8.74Zm-1.32-1.81V286.4h1.41v1.36Z" style="fill:#6731cf"/><path d="M763.62,295.35a2.79,2.79,0,0,0,.66.88,2.65,2.65,0,0,0,.89.55,3,3,0,0,0,1,.18,3.08,3.08,0,0,0,1.48-.32,4.14,4.14,0,0,0,1.13-.85l.77.69a5.09,5.09,0,0,1-1.42,1.13,4.28,4.28,0,0,1-2,.42,4.11,4.11,0,0,1-1.6-.31,3.93,3.93,0,0,1-1.31-.88,4.08,4.08,0,0,1-.9-1.37,4.56,4.56,0,0,1-.33-1.76,4.9,4.9,0,0,1,.29-1.68,4.34,4.34,0,0,1,.83-1.38,3.79,3.79,0,0,1,1.25-.92,3.86,3.86,0,0,1,1.6-.34,3.75,3.75,0,0,1,1.63.35,3.6,3.6,0,0,1,1.21.93,4.29,4.29,0,0,1,.76,1.4,5.57,5.57,0,0,1,.25,1.71V294a1.48,1.48,0,0,1,0,.21H763.3A3.31,3.31,0,0,0,763.62,295.35Zm5-2.1a4.25,4.25,0,0,0-.23-1.07,3.05,3.05,0,0,0-.51-.9,2.43,2.43,0,0,0-.8-.61,2.34,2.34,0,0,0-1.09-.24,2.4,2.4,0,0,0-1,.22,2.49,2.49,0,0,0-.81.59,3.23,3.23,0,0,0-.57.89,3.62,3.62,0,0,0-.29,1.12Z" style="fill:#6731cf"/><path d="M777.71,297.58a3.92,3.92,0,0,1-2,.45,4.12,4.12,0,0,1-1.69-.34,4.24,4.24,0,0,1-1.34-.93,4.11,4.11,0,0,1-.89-1.37,4.38,4.38,0,0,1-.32-1.66,4.47,4.47,0,0,1,.32-1.67,4.3,4.3,0,0,1,.89-1.39,4.24,4.24,0,0,1,1.34-.93,4.12,4.12,0,0,1,1.69-.35,4.43,4.43,0,0,1,1.07.12,3.53,3.53,0,0,1,.88.31,4,4,0,0,1,.74.47,5.67,5.67,0,0,1,.62.58l-.81.86a6.82,6.82,0,0,0-1.08-.88,2.61,2.61,0,0,0-1.44-.37,2.82,2.82,0,0,0-2.11.94,3.1,3.1,0,0,0-.62,1,3.43,3.43,0,0,0-.23,1.25A3.48,3.48,0,0,0,773,295a3.22,3.22,0,0,0,.65,1,3.09,3.09,0,0,0,1,.69,3,3,0,0,0,1.21.24,2.75,2.75,0,0,0,1.42-.35,4.68,4.68,0,0,0,1.11-.88l.78.74A5.39,5.39,0,0,1,777.71,297.58Z" style="fill:#6731cf"/><path d="M782.82,295.49a1.31,1.31,0,0,0,.38,1.07,1.62,1.62,0,0,0,1,.31,2.65,2.65,0,0,0,1.2-.29v1.05a2.68,2.68,0,0,1-.68.27,3.48,3.48,0,0,1-1.73,0,2,2,0,0,1-.75-.41,1.92,1.92,0,0,1-.49-.73,3.08,3.08,0,0,1-.17-1.07v-5h-1.15v-1.09h1.15v-2.5h1.23v2.5h2.62v1.09h-2.62Z" style="fill:#6731cf"/><path d="M793.07,296.57a2.49,2.49,0,0,1-.63.78,2.78,2.78,0,0,1-.92.48,3.66,3.66,0,0,1-1.16.17,5.3,5.3,0,0,1-1.81-.33,5.5,5.5,0,0,1-1.62-.88l.63-.88a5.25,5.25,0,0,0,1.4.78,4.14,4.14,0,0,0,1.46.27,2.06,2.06,0,0,0,1.23-.35,1.12,1.12,0,0,0,.48-1v0a.82.82,0,0,0-.17-.53,1.44,1.44,0,0,0-.45-.39,3.83,3.83,0,0,0-.67-.3l-.77-.24c-.32-.09-.64-.2-1-.31a3.77,3.77,0,0,1-.88-.42,2.43,2.43,0,0,1-.64-.64,1.8,1.8,0,0,1-.25-1v0a2.24,2.24,0,0,1,.79-1.72,3.09,3.09,0,0,1,.9-.48,3.72,3.72,0,0,1,1.13-.16,5.26,5.26,0,0,1,1.55.24,5.8,5.8,0,0,1,1.42.67l-.56.93a5.57,5.57,0,0,0-1.2-.59,3.94,3.94,0,0,0-1.24-.21,1.83,1.83,0,0,0-1.17.34,1,1,0,0,0-.43.86v0a.8.8,0,0,0,.17.5,1.63,1.63,0,0,0,.47.38,6.32,6.32,0,0,0,.68.29l.8.25c.32.1.64.2,1,.32a3.82,3.82,0,0,1,.85.45,2.16,2.16,0,0,1,.62.66,1.82,1.82,0,0,1,.23.94v0A2.32,2.32,0,0,1,793.07,296.57Z" style="fill:#6731cf"/><path d="M538.7,330.53a6.73,6.73,0,0,1-4.94.06,5.33,5.33,0,0,1-2.93-3.08,6.41,6.41,0,0,1-.39-2.25,6.1,6.1,0,0,1,.41-2.21,5.9,5.9,0,0,1,1.14-1.86,5.42,5.42,0,0,1,4.07-1.74,7.15,7.15,0,0,1,1.28.1,5.79,5.79,0,0,1,1.09.28,5.29,5.29,0,0,1,1,.48,6.22,6.22,0,0,1,.85.63l-.81,1a5.57,5.57,0,0,0-.68-.52,3.65,3.65,0,0,0-.76-.4,5.47,5.47,0,0,0-.89-.27,6,6,0,0,0-1.08-.09,3.89,3.89,0,0,0-1.71.37,4,4,0,0,0-1.35,1,4.91,4.91,0,0,0-.88,1.47,5,5,0,0,0-.32,1.78,5.6,5.6,0,0,0,.31,1.87,4.4,4.4,0,0,0,.89,1.48,4,4,0,0,0,1.39,1,4.54,4.54,0,0,0,1.84.35,4.93,4.93,0,0,0,1.81-.33,5.12,5.12,0,0,0,1.43-.79V326H536v-1.12h4.62v4.46A7.13,7.13,0,0,1,538.7,330.53Z" style="fill:#6731cf"/><path d="M544.5,330.84h-1.23v-8.27h1.23v2.16a4.41,4.41,0,0,1,.56-.94,3.9,3.9,0,0,1,.77-.75,3.37,3.37,0,0,1,.95-.47,3.29,3.29,0,0,1,1.1-.14v1.32h-.1a3.41,3.41,0,0,0-1.27.24,2.9,2.9,0,0,0-1,.72,3.52,3.52,0,0,0-.7,1.2,4.82,4.82,0,0,0-.26,1.64Z" style="fill:#6731cf"/><path d="M551,323.71a8.86,8.86,0,0,0-1.18.44l-.37-1a7.62,7.62,0,0,1,1.4-.51,6.49,6.49,0,0,1,1.61-.18,3.72,3.72,0,0,1,2.61.84,3.21,3.21,0,0,1,.91,2.49v5h-1.18v-1.25a4.1,4.1,0,0,1-1.16,1,3.64,3.64,0,0,1-1.83.43,4.28,4.28,0,0,1-1.13-.16,3.06,3.06,0,0,1-1-.49,2.51,2.51,0,0,1-.71-.81,2.39,2.39,0,0,1-.26-1.13,2.51,2.51,0,0,1,.25-1.16,2.37,2.37,0,0,1,.73-.84,3.5,3.5,0,0,1,1.12-.52,5.78,5.78,0,0,1,1.43-.17,9.49,9.49,0,0,1,1.4.09,10.68,10.68,0,0,1,1.15.26v-.29a2.15,2.15,0,0,0-.65-1.69,2.71,2.71,0,0,0-1.82-.56A5,5,0,0,0,551,323.71Zm-.4,3.4a1.51,1.51,0,0,0-.62,1.27,1.45,1.45,0,0,0,.17.7,1.6,1.6,0,0,0,.45.52,2,2,0,0,0,.67.33,2.9,2.9,0,0,0,.79.11,3.12,3.12,0,0,0,1.07-.17,2.73,2.73,0,0,0,.88-.46,2.19,2.19,0,0,0,.59-.7,2,2,0,0,0,.21-.91V327c-.3-.08-.66-.16-1.06-.24a7.8,7.8,0,0,0-1.36-.11A3,3,0,0,0,550.61,327.11Z" style="fill:#6731cf"/><path d="M566.63,328.52a3.92,3.92,0,0,1-.89,1.35A3.88,3.88,0,0,1,563,331a3.53,3.53,0,0,1-1.06-.15,3.21,3.21,0,0,1-.86-.38,3.82,3.82,0,0,1-.7-.56,4.89,4.89,0,0,1-.55-.67v4.14h-1.23V322.57h1.23v1.66a6.23,6.23,0,0,1,.57-.7,3.48,3.48,0,0,1,.69-.58,3.39,3.39,0,0,1,.86-.4,3.13,3.13,0,0,1,1-.16,4,4,0,0,1,2.72,1.13,4.12,4.12,0,0,1,.89,1.35,4.63,4.63,0,0,1,.34,1.83A4.54,4.54,0,0,1,566.63,328.52Zm-1.16-3.13a3,3,0,0,0-.63-1,2.86,2.86,0,0,0-2.05-.87,2.71,2.71,0,0,0-1.11.24,2.94,2.94,0,0,0-1,.64,3,3,0,0,0-.67,1,3.56,3.56,0,0,0,0,2.62,2.88,2.88,0,0,0,.67,1,3.13,3.13,0,0,0,1,.65,2.9,2.9,0,0,0,2.24,0,2.58,2.58,0,0,0,.93-.62,2.88,2.88,0,0,0,.62-1,3.61,3.61,0,0,0,.23-1.35A3.52,3.52,0,0,0,565.47,325.39Z" style="fill:#6731cf"/><path d="M570.47,330.84h-1.23V319.16h1.23V324a3.82,3.82,0,0,1,1.09-1.14,2.93,2.93,0,0,1,1.74-.48,3.48,3.48,0,0,1,1.34.24,2.78,2.78,0,0,1,1,.68,3.27,3.27,0,0,1,.63,1.05,4.11,4.11,0,0,1,.21,1.35v5.13h-1.23V326a2.66,2.66,0,0,0-.59-1.82,2.15,2.15,0,0,0-1.7-.68,2.63,2.63,0,0,0-1,.19,2.16,2.16,0,0,0-.79.53,2.25,2.25,0,0,0-.52.82,2.78,2.78,0,0,0-.19,1.06Z" style="fill:#6731cf"/><path d="M590.38,330.23l-.87.95L588,329.83a5.54,5.54,0,0,1-1.6.88,5.49,5.49,0,0,1-1.94.32,5.62,5.62,0,0,1-2.32-.46,5.51,5.51,0,0,1-1.8-1.26,5.33,5.33,0,0,1-1.16-1.84,5.83,5.83,0,0,1-.41-2.21,6.12,6.12,0,0,1,.41-2.22,5.93,5.93,0,0,1,1.17-1.85,5.6,5.6,0,0,1,4.15-1.74,5.62,5.62,0,0,1,2.32.46,5.51,5.51,0,0,1,1.8,1.26,5.42,5.42,0,0,1,1.16,1.84,5.91,5.91,0,0,1,.41,2.22,6.05,6.05,0,0,1-.34,2,5.38,5.38,0,0,1-1,1.74Zm-5.35-3,.85-.94,2.06,1.87a4.43,4.43,0,0,0,.72-1.34,4.79,4.79,0,0,0,.26-1.57,5,5,0,0,0-.33-1.81,4.38,4.38,0,0,0-2.32-2.46,4.16,4.16,0,0,0-1.77-.37,4.23,4.23,0,0,0-1.76.36,4.32,4.32,0,0,0-1.39,1,4.76,4.76,0,0,0-.9,1.47,5.07,5.07,0,0,0,0,3.6,4.4,4.4,0,0,0,.92,1.48,4.55,4.55,0,0,0,1.4,1,4.31,4.31,0,0,0,1.77.37,4.24,4.24,0,0,0,1.4-.23,4.08,4.08,0,0,0,1.17-.62Z" style="fill:#6731cf"/><path d="M592.9,319.64h1.27v10h6.3v1.17H592.9Z" style="fill:#6731cf"/><path d="M618,330.84h-1.36l-1.31-3h-6.1l-1.33,3h-1.29l5.1-11.28h1.19Zm-5.71-9.79-2.56,5.71h5.1Z" style="fill:#6731cf"/><path d="M628.28,324.81a3.43,3.43,0,0,1-.95,1.15,4.28,4.28,0,0,1-1.4.7,6.29,6.29,0,0,1-1.7.23h-2.72v3.95h-1.26v-11.2h4.19a5.5,5.5,0,0,1,1.72.25,4.1,4.1,0,0,1,1.33.7,3.12,3.12,0,0,1,.85,1.12,3.82,3.82,0,0,1,.29,1.5A3.52,3.52,0,0,1,628.28,324.81Zm-1.74-3.38a3.58,3.58,0,0,0-2.19-.62h-2.84v4.93h2.78a4.17,4.17,0,0,0,1.26-.18,2.87,2.87,0,0,0,1-.5,2.09,2.09,0,0,0,.63-.79,2.23,2.23,0,0,0,.22-1A2.14,2.14,0,0,0,626.54,321.43Z" style="fill:#6731cf"/><path d="M632.31,319.64v11.2h-1.26v-11.2Z" style="fill:#6731cf"/><path d="M538.65,363.84l-3.25-4.35h-3.2v4.35h-1.26v-11.2h4.81a5.39,5.39,0,0,1,1.67.24,3.91,3.91,0,0,1,1.28.68,3.1,3.1,0,0,1,.81,1.06,3.51,3.51,0,0,1,.07,2.62,2.74,2.74,0,0,1-.64,1,3.33,3.33,0,0,1-1,.68,4.47,4.47,0,0,1-1.22.39l3.44,4.57Zm-.87-9.44a3.31,3.31,0,0,0-2.11-.59H532.2v4.56h3.45a3.81,3.81,0,0,0,1.15-.16,2.84,2.84,0,0,0,.92-.46,2,2,0,0,0,.6-.73,2.21,2.21,0,0,0,.22-1A1.93,1.93,0,0,0,537.78,354.4Z" style="fill:#6731cf"/><path d="M543.21,361.35a2.92,2.92,0,0,0,.65.88,2.8,2.8,0,0,0,.9.55,3,3,0,0,0,1,.18,3.08,3.08,0,0,0,1.48-.32,4.14,4.14,0,0,0,1.13-.85l.77.69a5,5,0,0,1-1.43,1.13,4.21,4.21,0,0,1-2,.42,4.08,4.08,0,0,1-2.92-1.19,4.22,4.22,0,0,1-.89-1.37,4.38,4.38,0,0,1-.34-1.76,4.68,4.68,0,0,1,.3-1.68,4.32,4.32,0,0,1,.82-1.38,3.82,3.82,0,0,1,2.85-1.26,3.72,3.72,0,0,1,1.63.35,3.64,3.64,0,0,1,1.22.93,4.1,4.1,0,0,1,.75,1.4,5.57,5.57,0,0,1,.26,1.71V360a1.49,1.49,0,0,1,0,.21h-6.54A3.31,3.31,0,0,0,543.21,361.35Zm5-2.1a3.86,3.86,0,0,0-.23-1.07,2.84,2.84,0,0,0-.51-.9,2.39,2.39,0,0,0-.79-.61,2.37,2.37,0,0,0-1.09-.24,2.4,2.4,0,0,0-1,.22,2.49,2.49,0,0,0-.81.59,3,3,0,0,0-.58.89,3.92,3.92,0,0,0-.28,1.12Z" style="fill:#6731cf"/><path d="M553.26,356.71a8.25,8.25,0,0,0-1.17.44l-.37-1a7.53,7.53,0,0,1,1.39-.51,6.58,6.58,0,0,1,1.62-.18,3.72,3.72,0,0,1,2.61.84,3.25,3.25,0,0,1,.91,2.49v5h-1.19v-1.25a3.84,3.84,0,0,1-1.16,1,3.59,3.59,0,0,1-1.83.43,4.34,4.34,0,0,1-1.13-.16,3.27,3.27,0,0,1-1-.49,2.48,2.48,0,0,1-.7-.81,2.28,2.28,0,0,1-.27-1.13,2.51,2.51,0,0,1,.26-1.16,2.19,2.19,0,0,1,.73-.84,3.4,3.4,0,0,1,1.12-.52,5.78,5.78,0,0,1,1.43-.17,9.35,9.35,0,0,1,1.39.09,10.16,10.16,0,0,1,1.15.26v-.29a2.14,2.14,0,0,0-.64-1.69,2.73,2.73,0,0,0-1.82-.56A5.08,5.08,0,0,0,553.26,356.71Zm-.39,3.4a1.51,1.51,0,0,0-.62,1.27,1.35,1.35,0,0,0,.17.7,1.6,1.6,0,0,0,.45.52,1.86,1.86,0,0,0,.66.33,3,3,0,0,0,.79.11,3.22,3.22,0,0,0,1.08-.17,2.83,2.83,0,0,0,.88-.46,2.47,2.47,0,0,0,.59-.7,2,2,0,0,0,.21-.91V360c-.31-.08-.66-.16-1.06-.24a7.88,7.88,0,0,0-1.36-.11A3,3,0,0,0,552.87,360.11Z" style="fill:#6731cf"/><path d="M566.56,363.58a3.92,3.92,0,0,1-2,.45,4.12,4.12,0,0,1-1.69-.34,4.35,4.35,0,0,1-1.34-.93,4.11,4.11,0,0,1-.89-1.37,4.38,4.38,0,0,1-.32-1.66,4.47,4.47,0,0,1,.32-1.67,4.3,4.3,0,0,1,.89-1.39,4.35,4.35,0,0,1,1.34-.93,4.12,4.12,0,0,1,1.69-.35,4.38,4.38,0,0,1,1.07.12,3.39,3.39,0,0,1,.88.31,4,4,0,0,1,.74.47,5.67,5.67,0,0,1,.62.58l-.81.86a6,6,0,0,0-1.08-.88,2.61,2.61,0,0,0-1.44-.37,2.86,2.86,0,0,0-2.11.94,3.28,3.28,0,0,0-.62,1,3.43,3.43,0,0,0-.23,1.25,3.29,3.29,0,0,0,.24,1.26,3.08,3.08,0,0,0,1.6,1.72,3,3,0,0,0,1.2.24,2.75,2.75,0,0,0,1.42-.35,4.68,4.68,0,0,0,1.11-.88l.79.74A5.61,5.61,0,0,1,566.56,363.58Z" style="fill:#6731cf"/><path d="M571.67,361.49a1.28,1.28,0,0,0,.39,1.07,1.57,1.57,0,0,0,1,.31,2.65,2.65,0,0,0,1.2-.29v1.05a2.68,2.68,0,0,1-.68.27,3.32,3.32,0,0,1-.8.09,3.48,3.48,0,0,1-.93-.13,2,2,0,0,1-.75-.41,1.9,1.9,0,0,1-.48-.73,2.85,2.85,0,0,1-.18-1.07v-5h-1.15v-1.09h1.15v-2.5h1.23v2.5h2.63v1.09h-2.63Z" style="fill:#6731cf"/><path d="M587,363.58a3.92,3.92,0,0,1-2,.45,4.12,4.12,0,0,1-1.69-.34,4.24,4.24,0,0,1-1.34-.93,4.11,4.11,0,0,1-.89-1.37,4.38,4.38,0,0,1-.32-1.66,4.47,4.47,0,0,1,.32-1.67,4.3,4.3,0,0,1,.89-1.39,4.24,4.24,0,0,1,1.34-.93,4.12,4.12,0,0,1,1.69-.35,4.43,4.43,0,0,1,1.07.12,3.39,3.39,0,0,1,.88.31,4,4,0,0,1,.74.47,5.67,5.67,0,0,1,.62.58l-.81.86a6,6,0,0,0-1.08-.88,2.61,2.61,0,0,0-1.44-.37,2.86,2.86,0,0,0-2.11.94,3.28,3.28,0,0,0-.62,1,3.43,3.43,0,0,0-.23,1.25,3.29,3.29,0,0,0,.24,1.26,3.08,3.08,0,0,0,1.6,1.72,3,3,0,0,0,1.2.24,2.75,2.75,0,0,0,1.42-.35,4.68,4.68,0,0,0,1.11-.88l.79.74A5.61,5.61,0,0,1,587,363.58Z" style="fill:#6731cf"/><path d="M598,361.37a4.34,4.34,0,0,1-.9,1.38,4.17,4.17,0,0,1-1.38.94,4.31,4.31,0,0,1-1.73.34,4.21,4.21,0,0,1-1.71-.34,4.44,4.44,0,0,1-1.36-.93,4.11,4.11,0,0,1-.89-1.37,4.2,4.2,0,0,1-.32-1.66,4.43,4.43,0,0,1,1.21-3.06,4.37,4.37,0,0,1,1.37-.93,4.35,4.35,0,0,1,4.82.93A4,4,0,0,1,598,358a4.47,4.47,0,0,1,.32,1.67A4.33,4.33,0,0,1,598,361.37Zm-1.17-2.91a3,3,0,0,0-1.62-1.72,2.9,2.9,0,0,0-1.22-.26,3,3,0,0,0-1.23.25,2.62,2.62,0,0,0-1,.69,3.28,3.28,0,0,0-.62,1,3.42,3.42,0,0,0-.22,1.25,3.48,3.48,0,0,0,.23,1.26,3.33,3.33,0,0,0,.64,1,3.06,3.06,0,0,0,1,.69,2.9,2.9,0,0,0,1.22.25,3.14,3.14,0,0,0,1.23-.24,3,3,0,0,0,1-.68,3.28,3.28,0,0,0,.62-1,3.39,3.39,0,0,0,.23-1.25A3.29,3.29,0,0,0,596.78,358.46Z" style="fill:#6731cf"/><path d="M607.57,356.4a3.22,3.22,0,0,1,.63-.53,3.16,3.16,0,0,1,.79-.35,3.77,3.77,0,0,1,1-.13,2.9,2.9,0,0,1,2.25.89,3.45,3.45,0,0,1,.82,2.44v5.12h-1.23V359a2.71,2.71,0,0,0-.57-1.85,2,2,0,0,0-1.58-.65,2.38,2.38,0,0,0-.88.17,2,2,0,0,0-.73.5,2.5,2.5,0,0,0-.49.81,3.06,3.06,0,0,0-.19,1.08v4.77h-1.21V359a2.66,2.66,0,0,0-.57-1.82,2,2,0,0,0-1.56-.65,2.2,2.2,0,0,0-1.64.74,2.59,2.59,0,0,0-.49.82,3,3,0,0,0-.17,1.05v4.72H600.5v-8.27h1.24V357a6.14,6.14,0,0,1,.45-.59,3,3,0,0,1,.57-.5,2.68,2.68,0,0,1,.72-.35,3.26,3.26,0,0,1,.93-.13,2.74,2.74,0,0,1,1.66.48,2.94,2.94,0,0,1,1,1.17A5.11,5.11,0,0,1,607.57,356.4Z" style="fill:#6731cf"/><path d="M623.74,361.52a4.07,4.07,0,0,1-.89,1.35,3.88,3.88,0,0,1-1.27.85,3.7,3.7,0,0,1-1.46.3,3.57,3.57,0,0,1-1.06-.15,3.35,3.35,0,0,1-.86-.38,3.82,3.82,0,0,1-.7-.56,5.75,5.75,0,0,1-.55-.67v4.14h-1.23V355.57H617v1.66a6.23,6.23,0,0,1,.57-.7,3.54,3.54,0,0,1,.7-.58,3.32,3.32,0,0,1,.85-.4,3.21,3.21,0,0,1,1-.16,3.91,3.91,0,0,1,1.45.29,3.8,3.8,0,0,1,1.27.84,4.31,4.31,0,0,1,.9,1.35,4.81,4.81,0,0,1,.33,1.83A4.73,4.73,0,0,1,623.74,361.52Zm-1.16-3.13a3.17,3.17,0,0,0-.64-1,2.68,2.68,0,0,0-.92-.64,2.88,2.88,0,0,0-1.12-.23,2.72,2.72,0,0,0-1.12.24,3,3,0,0,0-1.63,1.64,3.56,3.56,0,0,0,0,2.62,3,3,0,0,0,.67,1,3.39,3.39,0,0,0,1,.65,2.88,2.88,0,0,0,1.12.23,2.83,2.83,0,0,0,1.12-.22,2.58,2.58,0,0,0,.93-.62,3.05,3.05,0,0,0,.63-1,3.82,3.82,0,0,0,.23-1.35A3.73,3.73,0,0,0,622.58,358.39Z" style="fill:#6731cf"/><path d="M634.13,361.37a4.2,4.2,0,0,1-.91,1.38,4.13,4.13,0,0,1-1.37.94,4.34,4.34,0,0,1-1.73.34,4.23,4.23,0,0,1-3.07-1.27,4,4,0,0,1-.9-1.37,4.38,4.38,0,0,1-.32-1.66,4.47,4.47,0,0,1,.32-1.67,4.16,4.16,0,0,1,.9-1.39,4.37,4.37,0,0,1,6.19,0,4.36,4.36,0,0,1,.9,1.36,4.47,4.47,0,0,1,.32,1.67A4.33,4.33,0,0,1,634.13,361.37ZM633,358.46a3.22,3.22,0,0,0-.65-1,3.18,3.18,0,0,0-1-.69,3.07,3.07,0,0,0-2.45,0,2.53,2.53,0,0,0-.95.69,3.1,3.1,0,0,0-.62,1,3.42,3.42,0,0,0-.22,1.25,3.28,3.28,0,0,0,.23,1.26,3.15,3.15,0,0,0,.64,1,3,3,0,0,0,1,.69,2.85,2.85,0,0,0,1.21.25,3.07,3.07,0,0,0,1.23-.24,2.79,2.79,0,0,0,1-.68,3.13,3.13,0,0,0,.63-1,3.39,3.39,0,0,0,.22-1.25A3.48,3.48,0,0,0,633,358.46Z" style="fill:#6731cf"/><path d="M637.91,363.84h-1.23v-8.27h1.23V357a3.82,3.82,0,0,1,1.09-1.14,2.93,2.93,0,0,1,1.74-.48,3.52,3.52,0,0,1,1.34.24,2.78,2.78,0,0,1,1,.68,3.27,3.27,0,0,1,.63,1.05,4.11,4.11,0,0,1,.21,1.35v5.13h-1.23V359a2.66,2.66,0,0,0-.59-1.82,2.15,2.15,0,0,0-1.7-.68,2.63,2.63,0,0,0-1,.19,2.16,2.16,0,0,0-.79.53,2.25,2.25,0,0,0-.52.82,2.78,2.78,0,0,0-.19,1.06Z" style="fill:#6731cf"/><path d="M647.61,361.35a2.92,2.92,0,0,0,.65.88,2.8,2.8,0,0,0,.9.55,3,3,0,0,0,1,.18,3.08,3.08,0,0,0,1.48-.32,4.14,4.14,0,0,0,1.13-.85l.77.69a5,5,0,0,1-1.43,1.13,4.21,4.21,0,0,1-2,.42,4.08,4.08,0,0,1-2.92-1.19,4.22,4.22,0,0,1-.89-1.37,4.38,4.38,0,0,1-.34-1.76,4.68,4.68,0,0,1,.3-1.68,4.32,4.32,0,0,1,.82-1.38,3.82,3.82,0,0,1,2.85-1.26,3.72,3.72,0,0,1,1.63.35,3.64,3.64,0,0,1,1.22.93,4.1,4.1,0,0,1,.75,1.4,5.57,5.57,0,0,1,.26,1.71V360a1.49,1.49,0,0,1,0,.21h-6.54A3.31,3.31,0,0,0,647.61,361.35Zm5-2.1a3.86,3.86,0,0,0-.23-1.07,2.84,2.84,0,0,0-.51-.9,2.39,2.39,0,0,0-.79-.61,2.37,2.37,0,0,0-1.09-.24,2.4,2.4,0,0,0-1,.22,2.49,2.49,0,0,0-.81.59,3,3,0,0,0-.58.89,3.92,3.92,0,0,0-.28,1.12Z" style="fill:#6731cf"/><path d="M657.24,363.84H656v-8.27h1.23V357a3.82,3.82,0,0,1,1.09-1.14,2.93,2.93,0,0,1,1.74-.48,3.52,3.52,0,0,1,1.34.24,2.78,2.78,0,0,1,1,.68,3.07,3.07,0,0,1,.62,1.05,3.86,3.86,0,0,1,.22,1.35v5.13H662V359a2.66,2.66,0,0,0-.59-1.82,2.15,2.15,0,0,0-1.7-.68,2.63,2.63,0,0,0-1,.19,2.28,2.28,0,0,0-.8.53,2.55,2.55,0,0,0-.52.82,3,3,0,0,0-.18,1.06Z" style="fill:#6731cf"/><path d="M667.53,361.49a1.31,1.31,0,0,0,.38,1.07,1.6,1.6,0,0,0,1,.31,2.9,2.9,0,0,0,.6-.07,2.76,2.76,0,0,0,.6-.22v1.05a2.68,2.68,0,0,1-.68.27,3.35,3.35,0,0,1-.81.09,3.48,3.48,0,0,1-.93-.13,2,2,0,0,1-.74-.41,1.92,1.92,0,0,1-.49-.73,2.86,2.86,0,0,1-.17-1.07v-5h-1.16v-1.09h1.16v-2.5h1.23v2.5h2.62v1.09h-2.62Z" style="fill:#6731cf"/><path d="M677.78,362.57a2.64,2.64,0,0,1-.63.78,2.73,2.73,0,0,1-.93.48,3.58,3.58,0,0,1-1.16.17,5.24,5.24,0,0,1-1.8-.33,5.5,5.5,0,0,1-1.62-.88l.62-.88a5.57,5.57,0,0,0,1.4.78,4.24,4.24,0,0,0,1.47.27,2.06,2.06,0,0,0,1.23-.35,1.12,1.12,0,0,0,.48-1v0a.88.88,0,0,0-.17-.53,1.44,1.44,0,0,0-.45-.39,4.64,4.64,0,0,0-.67-.3l-.77-.24c-.32-.09-.65-.2-1-.31a3.77,3.77,0,0,1-.88-.42,2.29,2.29,0,0,1-.64-.64,1.72,1.72,0,0,1-.25-1v0a2.24,2.24,0,0,1,.79-1.72,3,3,0,0,1,.9-.48,3.65,3.65,0,0,1,1.12-.16,5.33,5.33,0,0,1,1.56.24,6,6,0,0,1,1.42.67l-.56.93a5.64,5.64,0,0,0-1.21-.59,3.89,3.89,0,0,0-1.24-.21,1.78,1.78,0,0,0-1.16.34,1.05,1.05,0,0,0-.44.86v0a.75.75,0,0,0,.18.5,1.51,1.51,0,0,0,.47.38,6.32,6.32,0,0,0,.68.29l.8.25c.32.1.64.2.95.32a3.89,3.89,0,0,1,.86.45,2.16,2.16,0,0,1,.62.66,1.82,1.82,0,0,1,.23.94v0A2.32,2.32,0,0,1,677.78,362.57Z" style="fill:#6731cf"/><line x1="515.3" y1="108" x2="515.3" y2="385.75" style="fill:none;stroke:#f94f24;stroke-linecap:round;stroke-miterlimit:10;stroke-dasharray:3.8880200386047363,2.592010021209717"/><path d="M519.32,104a4,4,0,1,1-4-4A4,4,0,0,1,519.32,104Z" style="fill:#fff;stroke:#f94f24;stroke-linecap:round;stroke-miterlimit:10;stroke-width:1.7230800000000002px"/><path d="M519.32,127.05a4,4,0,1,1-4-4A4,4,0,0,1,519.32,127.05Z" style="fill:#fff;stroke-linecap:round;stroke-miterlimit:10;stroke-width:1.7230800000000002px;stroke:url(#j)"/><path d="M519.32,160.44a4,4,0,1,1-4-4A4,4,0,0,1,519.32,160.44Z" style="fill:#fff;stroke-linecap:round;stroke-miterlimit:10;stroke-width:1.7230800000000002px;stroke:url(#k)"/><path d="M519.32,193.84a4,4,0,1,1-4-4A4,4,0,0,1,519.32,193.84Z" style="fill:#fff;stroke-linecap:round;stroke-miterlimit:10;stroke-width:1.7230800000000002px;stroke:url(#l)"/><path d="M519.32,227.23a4,4,0,1,1-4-4A4,4,0,0,1,519.32,227.23Z" style="fill:#fff;stroke-linecap:round;stroke-miterlimit:10;stroke-width:1.7230800000000002px;stroke:url(#m)"/><path d="M519.32,260.63a4,4,0,1,1-4-4A4,4,0,0,1,519.32,260.63Z" style="fill:#fff;stroke-linecap:round;stroke-miterlimit:10;stroke-width:1.7230800000000002px;stroke:url(#n)"/><path d="M519.32,294a4,4,0,1,1-4-4A4,4,0,0,1,519.32,294Z" style="fill:#fff;stroke-linecap:round;stroke-miterlimit:10;stroke-width:1.7230800000000002px;stroke:url(#o)"/><path d="M519.32,327.42a4,4,0,1,1-4-4A4,4,0,0,1,519.32,327.42Z" style="fill:#fff;stroke-linecap:round;stroke-miterlimit:10;stroke-width:1.7230800000000002px;stroke:url(#p)"/><path d="M519.32,360.81a4,4,0,1,1-4-4A4,4,0,0,1,519.32,360.81Z" style="fill:#fff;stroke-linecap:round;stroke-miterlimit:10;stroke-width:1.7230800000000002px;stroke:url(#q)"/><path d="M378.1,127.05a4,4,0,1,1-4-4A4,4,0,0,1,378.1,127.05Z" style="fill:#fff;stroke-linecap:round;stroke-miterlimit:10;stroke-width:1.7230800000000002px;stroke:url(#r)"/><path d="M378.1,160.44a4,4,0,1,1-4-4A4,4,0,0,1,378.1,160.44Z" style="fill:#fff;stroke-linecap:round;stroke-miterlimit:10;stroke-width:1.7230800000000002px;stroke:url(#s)"/><path d="M378.1,193.84a4,4,0,1,1-4-4A4,4,0,0,1,378.1,193.84Z" style="fill:#fff;stroke-linecap:round;stroke-miterlimit:10;stroke-width:1.7230800000000002px;stroke:url(#t)"/><path d="M378.1,227.23a4,4,0,1,1-4-4A4,4,0,0,1,378.1,227.23Z" style="fill:#fff;stroke-linecap:round;stroke-miterlimit:10;stroke-width:1.7230800000000002px;stroke:url(#u)"/><path d="M378.1,260.63a4,4,0,1,1-4-4A4,4,0,0,1,378.1,260.63Z" style="fill:#fff;stroke-linecap:round;stroke-miterlimit:10;stroke-width:1.7230800000000002px;stroke:url(#v)"/><path d="M378.1,294a4,4,0,1,1-4-4A4,4,0,0,1,378.1,294Z" style="fill:#fff;stroke-linecap:round;stroke-miterlimit:10;stroke-width:1.7230800000000002px;stroke:url(#w)"/><path d="M378.1,327.42a4,4,0,1,1-4-4A4,4,0,0,1,378.1,327.42Z" style="fill:#fff;stroke-linecap:round;stroke-miterlimit:10;stroke-width:1.7230800000000002px;stroke:url(#x)"/><path d="M378.1,360.81a4,4,0,1,1-4-4A4,4,0,0,1,378.1,360.81Z" style="fill:#fff;stroke-linecap:round;stroke-miterlimit:10;stroke-width:1.7230800000000002px;stroke:url(#y)"/><path d="M519.32,389.77a4,4,0,1,1-4-4A4,4,0,0,1,519.32,389.77Z" style="fill:#fff;stroke:#f94f24;stroke-linecap:round;stroke-miterlimit:10;stroke-width:1.7230800000000002px"/><line x1="378.1" y1="127.05" x2="511.29" y2="127.05" style="fill:none;stroke-linecap:round;stroke-miterlimit:10;stroke-dasharray:3.8880200386047363,2.592010021209717;stroke:url(#z)"/><line x1="378.1" y1="160.44" x2="511.29" y2="160.44" style="fill:none;stroke-linecap:round;stroke-miterlimit:10;stroke-dasharray:3.8880200386047363,2.592010021209717;stroke:url(#aa)"/><line x1="378.1" y1="193.83" x2="511.29" y2="193.83" style="fill:none;stroke-linecap:round;stroke-miterlimit:10;stroke-dasharray:3.8880200386047363,2.592010021209717;stroke:url(#ab)"/><line x1="378.1" y1="227.23" x2="511.29" y2="227.23" style="fill:none;stroke-linecap:round;stroke-miterlimit:10;stroke-dasharray:3.8880200386047363,2.592010021209717;stroke:url(#ac)"/><line x1="378.1" y1="260.62" x2="511.29" y2="260.62" style="fill:none;stroke-linecap:round;stroke-miterlimit:10;stroke-dasharray:3.8880200386047363,2.592010021209717;stroke:url(#ad)"/><line x1="378.1" y1="294.01" x2="511.29" y2="294.01" style="fill:none;stroke-linecap:round;stroke-miterlimit:10;stroke-dasharray:3.8880200386047363,2.592010021209717;stroke:url(#ae)"/><line x1="378.1" y1="327.41" x2="511.29" y2="327.41" style="fill:none;stroke-linecap:round;stroke-miterlimit:10;stroke-dasharray:3.8880200386047363,2.592010021209717;stroke:url(#af)"/><line x1="378.1" y1="360.8" x2="511.29" y2="360.8" style="fill:none;stroke-linecap:round;stroke-miterlimit:10;stroke-dasharray:3.8880200386047363,2.592010021209717;stroke:url(#ag)"/></svg>