<svg xmlns="http://www.w3.org/2000/svg" xmlns:xlink="http://www.w3.org/1999/xlink" viewBox="0 0 800 500"><defs><linearGradient id="a" x1="546.77" y1="387.04" x2="603.43" y2="299.4" gradientUnits="userSpaceOnUse"><stop offset="0" stop-color="#8033eb"/><stop offset="0.53" stop-color="#d4648e"/><stop offset="1" stop-color="#ec7071"/></linearGradient><linearGradient id="b" x1="634.26" y1="380.23" x2="701.94" y2="380.23" gradientUnits="userSpaceOnUse"><stop offset="0" stop-color="#8033eb"/><stop offset="1" stop-color="#6731ce"/></linearGradient></defs><title>Artboard 2 copy 8</title><g style="isolation:isolate"><path d="M162.72,131.14c-1.49-.9-1.16-3.72,1-3.72H232a80.8,80.8,0,1,0-69.31,81.3Z" style="fill:#f2f2f2"/><rect x="212.98" y="443.01" width="419.34" height="7.04" style="fill:#f4f4f4"/><path d="M243,201.06v-7.51s1-13.41,14.81-13.41h383s18.38-.74,18.38,13.41v256.5H632.33V228.89Z" style="fill:#f2f2f2"/><rect x="143.42" y="149.56" width="42.28" height="300.49" style="fill:#efefef"/><rect x="112.99" y="448.05" width="602.84" height="4" style="fill:#dedede"/><path d="M632.33,245.31V217.06a16,16,0,0,0-16-16H227a16,16,0,0,0-16,16v28.25Z" style="fill:#f94f24"/><rect x="628.67" y="245.31" width="4" height="204.74" style="fill:#dedede"/><rect x="210.98" y="246.31" width="4" height="203.74" style="fill:#dedede"/><path d="M248.68,223.18a5.7,5.7,0,1,1-5.7-5.69A5.71,5.71,0,0,1,248.68,223.18Z" style="fill:#fff"/><path d="M287,223.18a5.7,5.7,0,1,1-5.7-5.69A5.71,5.71,0,0,1,287,223.18Z" style="fill:#fff"/><path d="M325.39,223.18a5.7,5.7,0,1,1-5.7-5.69A5.71,5.71,0,0,1,325.39,223.18Z" style="fill:#fff"/><path d="M432.51,355h-190V285.08h190Zm-189-1h188V286.08h-188Z" style="fill:#f94f24"/><path d="M443.66,285.56A11.65,11.65,0,1,1,432,273.91,11.64,11.64,0,0,1,443.66,285.56Z" style="fill:#f94f24"/><path d="M436.24,284h-2.62v-2.61a1.61,1.61,0,1,0-3.21,0V284h-2.62a1.61,1.61,0,0,0,0,3.21h2.62v2.62a1.61,1.61,0,0,0,3.21,0v-2.62h2.62a1.61,1.61,0,0,0,0-3.21Z" style="fill:#fff"/><rect x="267.93" y="261.67" width="29.36" height="16.54" style="fill:#e8e8e8"/><rect x="299.29" y="261.67" width="29.36" height="16.54" style="fill:#dedede"/><rect x="330.64" y="261.67" width="29.36" height="16.54" style="fill:#dedede"/><path d="M265.93,261.67H251.25a8.27,8.27,0,1,0,0,16.53h14.68Z" style="fill:#dedede"/><rect x="362" y="261.67" width="29.36" height="16.54" style="fill:#dedede"/><path d="M407.53,261.67H393.35V278.2h14.18a8.27,8.27,0,1,0,0-16.53Z" style="fill:#dedede"/><path d="M164.56,203.31c-6.57,0-11.89,3.35-11.89,7.47s5.32,7.47,11.89,7.47,11.89-3.34,11.89-7.47S171.13,203.31,164.56,203.31Zm0,13.68a6.21,6.21,0,1,1,6.21-6.21A6.21,6.21,0,0,1,164.56,217Z" style="fill:#d3d3d3"/><path d="M169,210.78a4.47,4.47,0,1,1-4.47-4.47A4.47,4.47,0,0,1,169,210.78Z" style="fill:#d3d3d3"/><path d="M164.56,174.88a9.34,9.34,0,1,0,9.34,9.34A9.34,9.34,0,0,0,164.56,174.88Zm3.13,10.6h-1.87v1.86a1.26,1.26,0,0,1-2.52,0v-1.86h-1.86a1.27,1.27,0,1,1,0-2.53h1.86v-1.86a1.26,1.26,0,1,1,2.52,0V183h1.87a1.27,1.27,0,0,1,0,2.53Z" style="fill:#d3d3d3"/><rect x="143.42" y="115.44" width="560.77" height="34.12" style="fill:#d3d3d3"/><path d="M322,382.49H248.68a3.5,3.5,0,0,1,0-7H322a3.5,3.5,0,0,1,0,7Z" style="fill:#dedede"/><path d="M356,382.49H338a3.5,3.5,0,0,1,0-7h18a3.5,3.5,0,0,1,0,7Z" style="fill:#dedede"/><path d="M432,382.49H373.36a3.5,3.5,0,0,1,0-7H432a3.5,3.5,0,0,1,0,7Z" style="fill:#dedede"/><path d="M349,407H248.68a3.5,3.5,0,0,1,0-7H349a3.5,3.5,0,0,1,0,7Z" style="fill:#dedede"/><path d="M404.58,407H369.35a3.5,3.5,0,0,1,0-7h35.23a3.5,3.5,0,0,1,0,7Z" style="fill:#dedede"/><path d="M557.17,433.24H485.44a3.5,3.5,0,0,1,0-7h71.73a3.5,3.5,0,0,1,0,7Z" style="fill:#dedede"/><path d="M305.13,309.73a5.85,5.85,0,0,1-5.84,5.85H264.06a5.85,5.85,0,0,1-5.85-5.85h0a5.85,5.85,0,0,1,5.85-5.85h35.23a5.85,5.85,0,0,1,5.84,5.85Z" style="fill:#e9e9e9"/><path d="M416.57,309.73a5.85,5.85,0,0,1-5.84,5.85H396a5.85,5.85,0,0,1-5.85-5.85h0a5.85,5.85,0,0,1,5.85-5.85h14.69a5.85,5.85,0,0,1,5.84,5.85Z" style="fill:#e9e9e9"/><path d="M383,309.73a5.85,5.85,0,0,1-5.85,5.85H316.43a5.85,5.85,0,0,1-5.85-5.85h0a5.85,5.85,0,0,1,5.85-5.85h60.73a5.85,5.85,0,0,1,5.85,5.85Z" style="fill:#e9e9e9"/><path d="M358.92,333.1a5.85,5.85,0,0,1-5.85,5.85H266.92a5.85,5.85,0,0,1-5.85-5.85h0a5.85,5.85,0,0,1,5.85-5.85h86.15a5.85,5.85,0,0,1,5.85,5.85Z" style="fill:#e9e9e9"/><path d="M392.77,142.2a.5.5,0,0,1-.5-.5V123.52a.5.5,0,0,1,.5-.5.51.51,0,0,1,.5.5V141.7A.5.5,0,0,1,392.77,142.2Z" style="fill:#fff"/><path d="M458.73,142.2a.5.5,0,0,1-.5-.5V123.52a.51.51,0,0,1,.5-.5.5.5,0,0,1,.5.5V141.7A.5.5,0,0,1,458.73,142.2Z" style="fill:#fff"/><path d="M525.64,142.2a.5.5,0,0,1-.5-.5V123.52a.5.5,0,1,1,1,0V141.7A.5.5,0,0,1,525.64,142.2Z" style="fill:#fff"/><path d="M604.61,142.2a.5.5,0,0,1-.5-.5V123.52a.51.51,0,0,1,.5-.5.5.5,0,0,1,.5.5V141.7A.5.5,0,0,1,604.61,142.2Z" style="fill:#fff"/><path d="M361.76,135.15a6.18,6.18,0,1,1-12.36,0c0-3.41,6.18-11.27,6.18-11.27S361.76,131.74,361.76,135.15Z" style="fill:#fff"/><polygon points="424.61 140.1 418.52 134.01 416.88 135.65 424.61 143.38 432.33 135.65 430.69 134.01 424.61 140.1" style="fill:#fff"/><rect x="419.14" y="124.1" width="10.93" height="10.93" transform="translate(32.75 338.19) rotate(-45)" style="fill:#fff"/><path d="M486,129.46a1,1,0,0,1-1-1v-3.39a1,1,0,0,1,1-1h3.35a1,1,0,0,1,0,2H487v2.39A1,1,0,0,1,486,129.46Z" style="fill:#fff"/><path d="M501.31,129.46a1,1,0,0,1-1-1v-2.39H498a1,1,0,0,1,0-2h3.35a1,1,0,0,1,1,1v3.39A1,1,0,0,1,501.31,129.46Z" style="fill:#fff"/><path d="M501.31,140.94H498a1,1,0,0,1,0-2h2.35v-2.39a1,1,0,0,1,2,0v3.39A1,1,0,0,1,501.31,140.94Z" style="fill:#fff"/><path d="M489.31,140.94H486a1,1,0,0,1-1-1v-3.39a1,1,0,0,1,2,0v2.39h2.35a1,1,0,0,1,0,2Z" style="fill:#fff"/><rect x="558.88" y="124.18" width="12.29" height="12.29" style="fill:#fff"/><polygon points="557 138.18 557 128.75 554.14 128.75 554.14 141.04 566.43 141.04 566.43 138.18 557 138.18" style="fill:#fff"/><path d="M625.77,129.52l-.15,0V139c0,2.21,1.8,2.72,4,2.72h4.11c2.21,0,4-.51,4-2.72v-9.43Z" style="fill:#fff"/><path d="M637.25,124.91H635.6a.79.79,0,0,0,0-.22,1.36,1.36,0,0,0-1.36-1.35h-5.21a1.36,1.36,0,0,0-1.36,1.35,1.42,1.42,0,0,0,0,.22h-1.65a1.51,1.51,0,1,0,0,3h11.13a1.51,1.51,0,0,0,0-3Z" style="fill:#fff"/><rect x="76.46" y="448.05" width="21.11" height="4" style="fill:#dedede"/><path d="M690.55,223.18H642.4v32.27h48.15a16.14,16.14,0,1,0,0-32.27Z" style="fill:#f2f2f2"/><path d="M104.89,272.23a24,24,0,1,1-24-24A24,24,0,0,1,104.89,272.23Z" style="fill:#f2f2f2"/><path d="M743,370.06A30.06,30.06,0,1,1,713,340,30,30,0,0,1,743,370.06Z" style="fill:#f2f2f2"/><path d="M500.08,379.49h-3v-1h3Zm-7,0h-3v-1h3Zm-7,0h-3v-1h3Zm-7,0h-3v-1h3Zm-7,0h-3v-1h3Zm-7,0h-3v-1h3Zm-7,0h-1.4v-2.61h1v1.61h.4Zm-.4-6.61h-1v-3h1Zm0-7h-1v-3h1Zm0-7h-1v-3h1Zm0-7h-1v-3h1Zm0-7h-1v-3h1Zm0-7h-1v-3h1Zm0-7h-1v-3h1Zm0-7h-1v-3h1Zm0-7h-1v-3h1Zm0-7h-1v-3h1Zm0-7h-1v-3h1Zm0-7h-1v-3h1Zm0-7h-1v-3h1Zm0-7h-1v-3h1Zm0-7h-1v-3h1Zm0-7h-1v-3h1Zm170.86-3.45h-.31v-1h.31Zm-4.31,0h-3v-1h3Zm-7,0h-3v-1h3Zm-7,0h-3v-1h3Zm-7,0h-3v-1h3Zm-7,0h-3v-1h3Zm-7,0h-3v-1h3Zm-7,0h-3v-1h3Zm-7,0h-3v-1h3Zm-7,0h-3v-1h3Zm-7,0h-3v-1h3Zm-7,0h-3v-1h3Zm-7,0h-3v-1h3Zm-7,0h-3v-1h3Zm-7,0h-3v-1h3Zm-7,0h-3v-1h3Zm-7,0h-3v-1h3Zm-7,0h-3v-1h3Zm-7,0h-3v-1h3Zm-7,0h-3v-1h3Zm-7,0h-3v-1h3Zm-7,0h-3v-1h3Zm-7,0h-3v-1h3Zm-7,0h-3v-1h3Zm-7,0h-3v-1h3Z" style="fill:#f94f24"/><rect x="499.41" y="289.7" width="168.68" height="113.75" rx="7.57" ry="7.57" style="fill:#e5e5e5;mix-blend-mode:multiply"/><rect x="492.84" y="283.13" width="168.68" height="113.75" rx="7.57" ry="7.57" style="fill:url(#a)"/><path d="M607.18,314l-60.53,60.53-26-26-27.83,27.83v12.9a7.57,7.57,0,0,0,7.57,7.57H654a7.57,7.57,0,0,0,7.57-7.57V368.38Z" style="fill:#fff"/><circle cx="547.37" cy="322.33" r="14.47" transform="translate(107.91 781) rotate(-76.72)" style="fill:#fff"/><path d="M703,406l-22.9-22,15.24-11.45a1.47,1.47,0,0,0,.58-1.43,1.5,1.5,0,0,0-1-1.19l-60.16-20.68a1.52,1.52,0,0,0-1.56.37,1.5,1.5,0,0,0-.34,1.57l22.56,61.57a1.5,1.5,0,0,0,2.78.1l7.93-17.65L690,419.06a1.51,1.51,0,0,0,1.06.44,1.49,1.49,0,0,0,1.06-.44L703,408.14a1.44,1.44,0,0,0,.44-1.07A1.5,1.5,0,0,0,703,406Z" style="fill:#e5e5e5;mix-blend-mode:multiply"/><polygon points="701.94 402.98 691.02 413.89 665.64 388.51 656.82 408.15 634.26 346.57 694.42 367.25 677.77 379.76 701.94 402.98" style="fill:url(#b)"/><path d="M691,414.89a1,1,0,0,1-.71-.29L666,390.25l-8.23,18.31a1,1,0,0,1-.94.59,1,1,0,0,1-.91-.66l-22.56-61.57a1,1,0,0,1,1.26-1.29l60.17,20.68a1,1,0,0,1,.66.79,1,1,0,0,1-.39.95l-15.71,11.8,23.32,22.4a1,1,0,0,1,0,1.43L691.73,414.6A1,1,0,0,1,691,414.89Zm-25.38-27.38a1,1,0,0,1,.71.3L691,412.48l9.49-9.49-23.43-22.51a1,1,0,0,1-.3-.78,1,1,0,0,1,.39-.74l15.14-11.37L635.92,348.2l21,57.3,7.82-17.4a1,1,0,0,1,.73-.57Z" style="fill:#fff"/></g></svg>