<?xml version="1.0" encoding="UTF-8"?>
<svg width="50px" height="50px" viewBox="0 0 50 50" version="1.1" xmlns="http://www.w3.org/2000/svg" xmlns:xlink="http://www.w3.org/1999/xlink">
    <!-- Generator: Sketch 50.2 (55047) - http://www.bohemiancoding.com/sketch -->
    <title>Icon</title>
    <desc>Created with Sketch.</desc>
    <defs></defs>
    <g id="Home-v1" stroke="none" stroke-width="1" fill="none" fill-rule="evenodd">
        <g id="Main-page" transform="translate(-1003.000000, -4183.000000)">
            <g id="Made-for-devs" transform="translate(72.000000, 2829.000000)">
                <g id="Features" transform="translate(205.000000, 383.000000)">
                    <g id="Security" transform="translate(705.000000, 944.000000)">
                        <g id="Icon" transform="translate(21.000000, 27.000000)">
                            <circle id="Oval-2" fill-opacity="0.285552536" fill="#C2C2C2" cx="25" cy="25" r="25"></circle>
                            <g id="baseline-lock-24px" transform="translate(8.000000, 8.000000)">
                                <polygon id="Shape" points="0 0 35 0 35 35 0 35"></polygon>
                                <path d="M26.25,11.6666667 L24.7916667,11.6666667 L24.7916667,8.75 C24.7916667,4.725 21.525,1.45833333 17.5,1.45833333 C13.475,1.45833333 10.2083333,4.725 10.2083333,8.75 L10.2083333,11.6666667 L8.75,11.6666667 C7.14583333,11.6666667 5.83333333,12.9791667 5.83333333,14.5833333 L5.83333333,29.1666667 C5.83333333,30.7708333 7.14583333,32.0833333 8.75,32.0833333 L26.25,32.0833333 C27.8541667,32.0833333 29.1666667,30.7708333 29.1666667,29.1666667 L29.1666667,14.5833333 C29.1666667,12.9791667 27.8541667,11.6666667 26.25,11.6666667 Z M17.5,24.7916667 C15.8958333,24.7916667 14.5833333,23.4791667 14.5833333,21.875 C14.5833333,20.2708333 15.8958333,18.9583333 17.5,18.9583333 C19.1041667,18.9583333 20.4166667,20.2708333 20.4166667,21.875 C20.4166667,23.4791667 19.1041667,24.7916667 17.5,24.7916667 Z M22.0208333,11.6666667 L12.9791667,11.6666667 L12.9791667,8.75 C12.9791667,6.25625 15.00625,4.22916667 17.5,4.22916667 C19.99375,4.22916667 22.0208333,6.25625 22.0208333,8.75 L22.0208333,11.6666667 Z" id="Shape" fill="#565656" fill-rule="nonzero"></path>
                            </g>
                        </g>
                    </g>
                </g>
            </g>
        </g>
    </g>
</svg>