<?xml version="1.0" encoding="UTF-8"?>
<svg width="309px" height="32px" viewBox="0 0 309 32" version="1.1" xmlns="http://www.w3.org/2000/svg" xmlns:xlink="http://www.w3.org/1999/xlink">
    <!-- Generator: Sketch 50.2 (55047) - http://www.bohemiancoding.com/sketch -->
    <title>Title</title>
    <desc>Created with Sketch.</desc>
    <defs></defs>
    <g id="Home-v1" stroke="none" stroke-width="1" fill="none" fill-rule="evenodd">
        <g id="Main-page" transform="translate(-654.000000, -4722.000000)">
            <g id="Made-for-devs" transform="translate(72.000000, 2829.000000)">
                <g id="Show-me-code" transform="translate(228.000000, 1885.000000)">
                    <g id="title" transform="translate(34.000000, 0.000000)">
                        <g id="Title" transform="translate(320.000000, 0.000000)">
                            <text id="show-me-the-code" font-family="SourceSansPro-Light, Source Sans Pro" font-size="36" font-weight="300" fill="#FFFFFF">
                                <tspan x="22.088" y="34">show me the code</tspan>
                            </text>
                            <g id="bullet-arrow-copy-4" transform="translate(8.000000, 25.000000) rotate(-180.000000) translate(-8.000000, -25.000000) translate(0.000000, 12.000000)" fill="#282C34" fill-rule="nonzero">
                                <path d="M0.8,21.58 L9.6,13 L0.8,4.42 C-0.266666667,3.38 -0.266666667,1.82 0.8,0.78 C1.86666667,-0.26 3.46666667,-0.26 4.53333333,0.78 L15.2,11.18 C16.2666667,12.22 16.2666667,13.78 15.2,14.82 L4.53333333,25.22 C4,25.74 3.46666667,26 2.66666667,26 C1.86666667,26 1.33333333,25.74 0.8,25.22 C-0.266666667,24.18 -0.266666667,22.62 0.8,21.58 Z" id="Shape"></path>
                            </g>
                            <g id="bullet-arrow-copy-5" transform="translate(292.394531, 13.137695)" fill="#282C34" fill-rule="nonzero">
                                <path d="M0.8,21.58 L9.6,13 L0.8,4.42 C-0.266666667,3.38 -0.266666667,1.82 0.8,0.78 C1.86666667,-0.26 3.46666667,-0.26 4.53333333,0.78 L15.2,11.18 C16.2666667,12.22 16.2666667,13.78 15.2,14.82 L4.53333333,25.22 C4,25.74 3.46666667,26 2.66666667,26 C1.86666667,26 1.33333333,25.74 0.8,25.22 C-0.266666667,24.18 -0.266666667,22.62 0.8,21.58 Z" id="Shape"></path>
                            </g>
                        </g>
                    </g>
                </g>
            </g>
        </g>
    </g>
</svg>