<?xml version="1.0" encoding="UTF-8"?>
<svg width="50px" height="50px" viewBox="0 0 50 50" version="1.1" xmlns="http://www.w3.org/2000/svg" xmlns:xlink="http://www.w3.org/1999/xlink">
    <!-- Generator: Sketch 55.2 (78181) - https://sketchapp.com -->
    <title>ssr</title>
    <desc>Created with Sketch.</desc>
    <g id="Icons" stroke="none" stroke-width="1" fill="none" fill-rule="evenodd">
        <g id="ssr" fill-rule="nonzero">
            <circle id="Oval-2" fill="#C7BDED" cx="25" cy="25" r="25"></circle>
            <g id="server-solid" transform="translate(9.000000, 10.000000)" fill="#534387">
                <path d="M28.125,7.42857143 L1.875,7.42857143 C0.839472656,7.42857143 0,6.59709375 0,5.57142857 L0,1.85714286 C0,0.831477679 0.839472656,0 1.875,0 L28.125,0 C29.1605273,0 30,0.831477679 30,1.85714286 L30,5.57142857 C30,6.59709375 29.1605273,7.42857143 28.125,7.42857143 Z M25.3125,2.32142857 C24.5358398,2.32142857 23.90625,2.94502232 23.90625,3.71428571 C23.90625,4.48354911 24.5358398,5.10714286 25.3125,5.10714286 C26.0891602,5.10714286 26.71875,4.48354911 26.71875,3.71428571 C26.71875,2.94502232 26.0891602,2.32142857 25.3125,2.32142857 Z M21.5625,2.32142857 C20.7858398,2.32142857 20.15625,2.94502232 20.15625,3.71428571 C20.15625,4.48354911 20.7858398,5.10714286 21.5625,5.10714286 C22.3391602,5.10714286 22.96875,4.48354911 22.96875,3.71428571 C22.96875,2.94502232 22.3391602,2.32142857 21.5625,2.32142857 Z M28.125,16.7142857 L1.875,16.7142857 C0.839472656,16.7142857 0,15.882808 0,14.8571429 L0,11.1428571 C0,10.117192 0.839472656,9.28571429 1.875,9.28571429 L28.125,9.28571429 C29.1605273,9.28571429 30,10.117192 30,11.1428571 L30,14.8571429 C30,15.882808 29.1605273,16.7142857 28.125,16.7142857 Z M25.3125,11.6071429 C24.5358398,11.6071429 23.90625,12.2307366 23.90625,13 C23.90625,13.7692634 24.5358398,14.3928571 25.3125,14.3928571 C26.0891602,14.3928571 26.71875,13.7692634 26.71875,13 C26.71875,12.2307366 26.0891602,11.6071429 25.3125,11.6071429 Z M21.5625,11.6071429 C20.7858398,11.6071429 20.15625,12.2307366 20.15625,13 C20.15625,13.7692634 20.7858398,14.3928571 21.5625,14.3928571 C22.3391602,14.3928571 22.96875,13.7692634 22.96875,13 C22.96875,12.2307366 22.3391602,11.6071429 21.5625,11.6071429 Z M28.125,26 L1.875,26 C0.839472656,26 0,25.1685223 0,24.1428571 L0,20.4285714 C0,19.4029062 0.839472656,18.5714286 1.875,18.5714286 L28.125,18.5714286 C29.1605273,18.5714286 30,19.4029062 30,20.4285714 L30,24.1428571 C30,25.1685223 29.1605273,26 28.125,26 Z M25.3125,20.8928571 C24.5358398,20.8928571 23.90625,21.5164509 23.90625,22.2857143 C23.90625,23.0549777 24.5358398,23.6785714 25.3125,23.6785714 C26.0891602,23.6785714 26.71875,23.0549777 26.71875,22.2857143 C26.71875,21.5164509 26.0891602,20.8928571 25.3125,20.8928571 Z M21.5625,20.8928571 C20.7858398,20.8928571 20.15625,21.5164509 20.15625,22.2857143 C20.15625,23.0549777 20.7858398,23.6785714 21.5625,23.6785714 C22.3391602,23.6785714 22.96875,23.0549777 22.96875,22.2857143 C22.96875,21.5164509 22.3391602,20.8928571 21.5625,20.8928571 Z" id="Shape"></path>
            </g>
            <g id="eye-solid" transform="translate(20.000000, 20.000000)" fill="#534387" stroke="#C7BDED" stroke-width="2">
                <path d="M26.7292227,8.05716575 L26.7318091,8.06214914 C27.089397,8.75589397 27.089397,9.57699666 26.729256,10.2756611 C24.0542607,15.3954523 18.8056689,18.6666667 13,18.6666667 C7.19369148,18.6666667 1.94681702,15.3970602 -0.73180906,10.2711842 C-1.08939698,9.57743937 -1.08939698,8.75633667 -0.729255973,8.05767221 C1.94573934,2.93788099 7.19433106,-0.333333333 13,-0.333333333 C18.8063085,-0.333333333 24.053183,2.93627316 26.7292227,8.05716575 Z M13,14.5416674 L13.0004767,14.5416675 C14.4633282,14.5423648 15.8653222,13.9732004 16.896921,12.9614419 C17.9247446,11.9533861 18.5007177,10.5886691 18.5000131,9.16666667 C18.5000131,6.20252972 16.0418732,3.79166667 13,3.79166667 C9.95812702,3.79166667 7.49998766,6.20252954 7.49998766,9.16666667 C7.49998766,12.130804 9.9581272,14.5416674 13,14.5416674 Z M12.986264,3.91674916 L12.9976978,3.91665747 C15.2763436,3.91141147 17.308965,5.33497332 18.0474982,7.46210739 C18.7882852,9.59573301 18.0593733,11.9545802 16.2415339,13.3213692 C14.4322461,14.6817285 11.9444901,14.7588059 10.0519425,13.5136072 C8.15084576,12.2627837 7.27194921,9.95472398 7.87396285,7.77944553 L8.25736439,6.39408635 L9.42294925,7.23529306 C9.88817644,7.57104916 10.5382442,7.52281783 10.9449455,7.1239385 C11.3421253,6.73439745 11.3890309,6.1262825 11.0576424,5.6845995 L10.1853293,4.52195871 L11.5829711,4.12288356 C12.0392637,3.99259622 12.5112543,3.92327449 12.986264,3.91674916 Z" id="Shape"></path>
            </g>
        </g>
    </g>
</svg>