<?xml version="1.0" encoding="UTF-8"?>
<svg width="316px" height="42px" viewBox="0 0 316 42" version="1.1" xmlns="http://www.w3.org/2000/svg" xmlns:xlink="http://www.w3.org/1999/xlink">
    <!-- Generator: Sketch 55.2 (78181) - https://sketchapp.com -->
    <title>Logos</title>
    <desc>Created with Sketch.</desc>
    <g id="Features" stroke="none" stroke-width="1" fill="none" fill-rule="evenodd">
        <g id="Desktop-HD" transform="translate(-562.000000, -529.000000)" fill="#FFFFFF">
            <g id="Technology" transform="translate(481.000000, 483.000000)">
                <g id="Logos" transform="translate(81.000000, 46.000000)">
                    <path d="M314.98527,31.5175456 L300.151059,40 L300.151059,33.3933695 L309.393614,28.2536836 L314.98527,31.5175456 Z M316,30.5886002 L316,12.8489725 L310.571551,16.0159946 L310.571551,27.4179915 L316,30.5886002 Z M284.01473,31.5175456 L298.848941,40 L298.848941,33.3933695 L289.606386,28.2536836 L284.01473,31.5175456 L284.01473,31.5175456 Z M283,30.5886002 L283,12.8489725 L288.428449,16.0159946 L288.428449,27.4179915 L283,30.5886002 Z M283.635093,11.7012408 L298.848941,3 L298.848941,9.38784413 L289.10257,14.8072896 L289.028061,14.8503296 L283.635093,11.7012408 L283.635093,11.7012408 Z M315.364907,11.7012408 L300.151059,3 L300.151059,9.38784413 L309.89743,14.8072896 L309.971939,14.8503296 L315.364907,11.7012408 L315.364907,11.7012408 Z" id="Shape" fill-rule="nonzero"></path>
                    <path d="M299.333575,32 L290,26.7807253 L290,16.4382136 L299.333575,21.9197448 L299.333575,32 M300.666425,32 L310,26.7807253 L310,16.4382136 L300.666425,21.9197448 L300.666425,32 M290.631923,15.2414372 L300.001816,10 L309.371709,15.2414372 L300.001816,20.745131 L290.631923,15.2414372" id="Shape" fill-rule="nonzero"></path>
                    <path d="M241.051993,4.81305364 L249.600421,9.79942568 C249.847218,9.53561403 250.130435,9.30919435 250.441302,9.12717804 C252.214119,8.09748856 254.47545,8.70884844 255.505233,10.5 C256.524466,12.2911516 255.919314,14.5755378 254.146353,15.6158863 C253.837801,15.7953967 253.505301,15.9291513 253.159062,16.0130439 L253.159062,25.9894383 C253.501519,26.0734719 253.830397,26.2063134 254.135802,26.3839677 C255.919314,27.4243162 256.524466,29.7088484 255.494682,31.5 C254.47545,33.2910055 252.203568,33.9023654 250.430607,32.872822 C250.087134,32.6737441 249.777713,32.4199704 249.51428,32.1212888 L241.017884,37.076998 C241.142314,37.4576215 241.205506,37.855945 241.205051,38.2567896 C241.205051,40.3160226 239.549015,42 237.5,42 C235.450985,42 233.794949,40.3266816 233.794949,38.2567896 C233.794949,37.8888348 233.847269,37.5334372 233.944827,37.1977514 L225.398712,32.2128395 C225.154622,32.4714192 224.875389,32.6936358 224.569393,32.872822 C222.785881,33.9023654 220.52455,33.2910055 219.505318,31.5 C218.48623,29.7088484 219.091381,27.4243162 220.864198,26.3839677 C221.169604,26.2062805 221.498479,26.0733907 221.840938,25.9892923 L221.840938,16.0130439 C221.494699,15.9291513 221.162199,15.7953967 220.853647,15.6158863 C219.080686,14.5863428 218.475534,12.2911516 219.494767,10.5 C220.513999,8.70884844 222.785737,8.09748856 224.558698,9.12717804 C224.867863,9.30822279 225.149685,9.53319089 225.395532,9.79519128 L233.946417,4.80750511 C233.845619,4.46187521 233.794606,4.10338341 233.794949,3.74306434 C233.794949,1.67331841 235.450985,0 237.5,0 C239.549015,0 241.205051,1.67317239 241.205051,3.74306434 C241.205051,4.11510756 241.151575,4.47415555 241.051993,4.81305364 Z M240.161393,6.34941108 L248.7302,11.3474642 C248.454521,12.3210176 248.581622,13.3659102 249.082422,14.2430643 C249.604034,15.1597391 250.453732,15.7674487 251.396796,16.0042831 L251.396796,25.9930887 C251.348667,26.0049158 251.300828,26.017911 251.253277,26.0316363 L240.061811,6.44943055 C240.095631,6.41672345 240.128874,6.3834323 240.161393,6.34941108 L240.161393,6.34941108 Z M234.940501,6.45162075 L223.74918,26.0335345 C223.70079,26.0193994 223.652121,26.0062555 223.603204,25.9941108 L223.603204,16.0042831 C224.546268,15.7674487 225.395966,15.1597391 225.917578,14.2430643 C226.419396,13.3641877 226.546014,12.3169824 226.268355,11.3419157 L234.834705,6.34532269 C234.869247,6.3813881 234.904513,6.41686946 234.940501,6.45147474 L234.940501,6.45162075 Z M238.535275,7.33865473 L249.723995,26.9161881 C249.467702,27.1632523 249.248018,27.4463669 249.071727,27.7567896 C248.895877,28.0653288 248.764384,28.3975802 248.681204,28.7435511 L226.319085,28.7435511 C226.235795,28.3975708 226.104206,28.0653214 225.928273,27.7567896 C225.751368,27.4485071 225.532102,27.1671139 225.277017,26.9210065 L236.467904,7.33953081 C236.803413,7.4371293 237.15086,7.48648039 237.5,7.48612869 C237.859448,7.48612869 238.206756,7.43473182 238.535275,7.33865473 Z M240.240018,35.7351309 L248.75318,30.7694928 C248.727661,30.6884289 248.704861,30.6065171 248.684817,30.5238976 L226.314316,30.5238976 C226.302464,30.5725202 226.289601,30.6207048 226.27587,30.6687433 L234.830658,35.6587657 C235.528734,34.9254354 236.492918,34.5118394 237.5,34.5137253 C238.543048,34.5118838 239.538274,34.9555214 240.240018,35.7351309 L240.240018,35.7351309 Z" id="Shape"></path>
                    <path d="M155.411655,0 C155.300635,0 155.191549,0.0289906026 155.095138,0.0836477924 C154.900231,0.196883971 154.780008,0.403867937 154.778915,0.628080204 L154.778915,16.6444612 C154.778915,16.8015929 154.705354,16.9424295 154.568197,17.0212864 C154.431348,17.1004325 154.262215,17.1004325 154.125367,17.0212864 L151.489487,15.5139855 C151.098151,15.2891694 150.615637,15.2891694 150.224301,15.5139855 L139.702178,21.5434799 C139.308877,21.7689931 139.069731,22.2022693 139.069731,22.6532956 L139.069731,34.7125754 C139.069731,35.1630198 139.30917,35.5756361 139.702178,35.8011492 L150.224301,41.8309346 C150.615473,42.0563551 151.098315,42.0563551 151.489487,41.8309346 L162.01161,35.8011492 C162.403731,35.5770652 162.645114,35.1617869 162.644352,34.7125754 L162.644352,4.64803411 C162.643768,4.18821234 162.394105,3.76425007 161.990802,3.53821839 L155.727878,0.0626968925 C155.629699,0.00828274981 155.520677,-0.00131974596 155.411655,0 L155.411655,0 Z M87.7240115,15.0533567 C87.5235511,15.0612133 87.3348134,15.0961315 87.1548679,15.199722 L76.6324522,21.2295074 C76.2400869,21.4533108 75.9986927,21.8688008 76,22.3180813 L76.0211064,38.5023604 C76.0211064,38.7272916 76.1380417,38.9365096 76.3373299,39.0465018 C76.5320228,39.1626495 76.7753769,39.1626495 76.9700698,39.0465018 L83.2115997,35.4874677 C83.6069523,35.254098 83.8651477,34.8484653 83.8651477,34.3986029 L83.8651477,26.8405658 C83.8651477,26.3895395 84.1040004,25.9757592 84.4978876,25.7517009 L87.1545749,24.2234492 C87.3466609,24.1125569 87.5651217,24.0546885 87.7873148,24.055842 C88.0041873,24.055842 88.2269211,24.1096742 88.4197617,24.2234492 L91.076742,25.7517009 C91.4694905,25.9753032 91.7110849,26.3910564 91.709482,26.8405658 L91.709482,34.3983119 C91.709482,34.8481743 91.970315,35.2567168 92.36303,35.4871767 L98.6045598,39.0465018 C98.7992527,39.1626495 99.0426069,39.1626495 99.2372998,39.0465018 C99.4330191,38.9340309 99.5536153,38.7265963 99.5538163,38.5020694 L99.5743511,22.3180813 C99.5768746,21.8684764 99.3351487,21.4524154 98.9418844,21.2295074 L88.4197617,15.199722 C88.2418677,15.0961315 88.0525439,15.0615043 87.8506181,15.0533567 L87.7240115,15.0533567 Z M182.275701,15.199722 C182.055898,15.199722 181.840491,15.2550091 181.643254,15.3673292 L171.121131,21.3971146 C170.728921,21.6211101 170.487505,22.0364447 170.488389,22.4856884 L170.488389,34.5449682 C170.488389,34.9986134 170.745707,35.4094838 171.141939,35.633833 L181.579951,41.537913 C181.965339,41.7561515 182.43601,41.7727377 182.824036,41.5582819 L189.149971,38.0621005 C189.350724,37.9515263 189.486416,37.7449272 189.487295,37.5179591 C189.489495,37.2928758 189.368387,37.084369 189.171072,36.9735267 L178.585646,30.9437413 C178.38753,30.8314212 178.248321,30.6041621 178.248321,30.378358 L178.248321,26.6101059 C178.248321,26.3845927 178.388995,26.1779936 178.585646,26.0656735 L181.875073,24.1812564 C182.070778,24.0687922 182.312107,24.0687922 182.507813,24.1812564 L185.796947,26.0656735 C185.993108,26.1775639 186.113885,26.3851987 186.113463,26.6098149 L186.113463,29.5828058 C186.11286,29.807394 186.23355,30.0150713 186.429687,30.1269472 C186.626924,30.2401403 186.865483,30.2404312 187.062134,30.1269472 L193.36726,26.4846915 C193.758718,26.2598071 194,25.8448686 194,25.3958266 L194,22.4859794 C194,22.036408 193.759682,21.6229188 193.36726,21.3971146 L182.908441,15.3673292 C182.716173,15.2569049 182.497816,15.1991645 182.275701,15.200013 L182.275701,15.199722 Z M150.814545,24.2024983 C150.869643,24.2024983 150.934118,24.2158836 150.983354,24.2441091 L154.589298,26.3167933 C154.687183,26.3729533 154.758107,26.4768349 154.758107,26.588864 L154.758107,30.7342323 C154.758107,30.8468434 154.68777,30.950434 154.589298,31.006594 L150.983354,33.0792782 C150.885371,33.1348293 150.765114,33.1348293 150.667131,33.0792782 L147.06148,31.006594 C146.963301,30.950143 146.892671,30.8468434 146.892671,30.7342323 L146.892671,26.588864 C146.892671,26.4765439 146.963594,26.3735353 147.06148,26.3167933 L150.667131,24.2444001 C150.711452,24.2170292 150.762643,24.2026082 150.814838,24.2027893 L150.814838,24.2024983 L150.814545,24.2024983 Z" id="Shape" fill-rule="nonzero"></path>
                    <path d="M118.792566,15 C118.573251,15 118.356282,15.0560527 118.159837,15.1699214 L107.633022,21.2616003 C107.239252,21.4896327 107,21.9297675 107,22.3864222 L107,34.6119645 C107,35.0692092 107.239546,35.4869243 107.633022,35.7158416 L118.159837,41.8284653 C118.551135,42.0571782 119.03429,42.0571782 119.425588,41.8284653 L129.952402,35.7158416 C130.344677,35.4885405 130.586061,35.0674137 130.585134,34.6119645 L130.585134,22.3864222 C130.585134,21.9291775 130.345879,21.4896327 129.952402,21.2616003 L119.425588,15.1699214 C119.233166,15.0581076 119.014774,14.9994862 118.792566,15 L118.792566,15 Z M181.742641,25.9098611 C181.700714,25.9098611 181.654095,25.9098611 181.616272,25.9311008 L179.591129,27.119642 C179.514243,27.1626088 179.465966,27.2435647 179.464465,27.3320395 L179.464465,29.6666422 C179.464465,29.7545512 179.514896,29.8350853 179.591129,29.8790398 L181.616272,31.0463411 C181.692211,31.0905906 181.773134,31.0905906 181.848194,31.0463411 L183.873337,29.8787448 C183.949874,29.8355624 183.99804,29.7549075 184,29.6666422 L184,27.3317445 C183.99804,27.2434792 183.949874,27.1628244 183.873337,27.119642 L181.848194,25.9308058 C181.810664,25.9086811 181.784862,25.9101561 181.742641,25.9101561 L181.742641,25.9098611 Z" id="Shape" fill-rule="nonzero"></path>
                    <path d="M37.1300302,27.0068172 C36.8610998,27.0968196 36.5849835,27.1837412 36.3036409,27.2680222 C35.6808548,25.2758668 34.8403112,23.1574 33.8120609,20.9689558 C34.7934934,18.8322244 35.6013733,16.7410444 36.2067389,14.7616522 C36.7099762,14.9090889 37.1986238,15.0642275 37.6694152,15.2281682 C42.2227223,16.8119021 45,19.1539444 45,20.9583932 C45,22.8805711 42.000392,25.3759917 37.130248,27.0068172 L37.1300302,27.0068172 Z M35.1092416,31.0534035 C35.6015911,33.5668685 35.6719267,35.8393736 35.3457261,37.6158753 C35.0526247,39.2121523 34.4633732,40.2763369 33.734757,40.7025829 C32.1841066,41.6096485 28.8678793,40.4305953 25.2918675,37.320782 C24.8818303,36.9642933 24.4687446,36.5835987 24.05457,36.1808985 C25.4410313,34.6484374 26.8266216,32.8668744 28.178895,30.8885825 C30.5576767,30.6753495 32.8049329,30.3265627 34.8429243,29.8505844 C34.9430927,30.2598861 35.0323733,30.6610459 35.1092416,31.0534035 L35.1092416,31.0534035 Z M14.6727106,40.545904 C13.1577725,41.0865784 11.9511788,41.1019822 11.2219093,40.6770566 C9.66973463,39.7726317 9.02473724,36.2803632 9.90469485,31.5964985 C10.009336,31.0429641 10.1291486,30.492469 10.2639945,29.945648 C12.2793392,30.3961 14.5102636,30.7202406 16.894707,30.9156492 C18.2559085,32.8514706 19.6815661,34.6308331 21.1183294,36.1890405 C20.8129789,36.4875367 20.5004024,36.7783905 20.1808838,37.0613375 C18.2718048,38.7478368 16.3588061,39.9440543 14.6729284,40.545904 L14.6727106,40.545904 Z M7.57534406,26.9949343 C5.17609314,26.1662082 3.19471866,25.0892604 1.83656582,23.9141682 C0.616253412,22.8579055 0,21.8093448 0,20.9583932 C0,19.148003 2.67122989,16.8385287 7.12632832,15.2688783 C7.68550735,15.0727254 8.25024898,14.8931572 8.81982754,14.7304044 C9.43564543,16.7542477 10.2433076,18.8702939 11.2179897,21.010106 C10.2306777,23.1818261 9.41147436,25.3315406 8.78999477,27.3791498 C8.38205709,27.2611547 7.9770512,27.1330442 7.57534406,26.9949343 L7.57534406,26.9949343 Z M9.95456129,10.6294647 C9.02974566,5.85361707 9.6438215,2.25110123 11.1892457,1.34711644 C12.8354916,0.384156983 16.4753063,1.75729844 20.311756,5.19961444 C20.5569508,5.41966916 20.8032344,5.65006645 21.0499535,5.88838571 C19.620594,7.43955144 18.2080019,9.20549057 16.8585593,11.1300892 C14.5444515,11.3468431 12.3292056,11.6949696 10.2927385,12.1612656 C10.1672936,11.6535442 10.054532,11.1427084 9.95456129,10.6292446 L9.95456129,10.6294647 Z M31.1787207,15.9255216 C30.6977115,15.0858875 30.1988587,14.2568223 29.6825097,13.4389033 C31.2525405,13.6391531 32.7565908,13.9054193 34.1689652,14.2313203 C33.7449916,15.6046819 33.2164944,17.040759 32.5941438,18.512925 C32.1394265,17.641022 31.6675248,16.7783822 31.1787207,15.9255216 L31.1787207,15.9255216 Z M22.5235178,7.40632318 C23.4929737,8.4676471 24.4639539,9.65286182 25.4190378,10.9386416 C23.4816527,10.8461262 21.5410351,10.8456856 19.603609,10.9373212 C20.5595639,9.66342445 21.5388189,8.47997016 22.5235178,7.40632318 L22.5235178,7.40632318 Z M13.8127867,15.9400452 C13.3301027,16.7861231 12.8670244,17.6434696 12.4239301,18.5113847 C11.8118141,17.0442798 11.2881075,15.6018211 10.860432,14.2088748 C12.2643139,13.8913358 13.761396,13.6318913 15.3211921,13.4349423 C14.7990564,14.2579303 14.2961159,15.0931949 13.8127867,15.9400452 L13.8127867,15.9400452 Z M15.3660502,28.6334617 C13.7546455,28.4516965 12.2349167,28.2054553 10.8314703,27.8967185 C11.2658963,26.479126 11.801144,25.0056396 12.4263254,23.5070669 C12.8712877,24.3756253 13.3364008,25.233489 13.8212793,26.0799467 C14.3160483,26.9434035 14.8311183,27.7948171 15.3660502,28.6334617 L15.3660502,28.6334617 Z M22.581659,34.6605404 C21.585419,33.5741303 20.591792,32.3726315 19.6212473,31.0802501 C20.5632658,31.1176594 21.5237936,31.1365842 22.5,31.1365842 C23.5029905,31.1365842 24.4944399,31.1139185 25.4702108,31.0699076 C24.5120783,32.3858348 23.5445822,33.589094 22.581659,34.6605404 Z M32.6141775,23.4307079 C33.2718048,24.9455646 33.8262151,26.4111291 34.2665205,27.8047356 C32.8397741,28.1337174 31.2995761,28.3986633 29.6766303,28.5953922 C30.1967114,27.7622021 30.7003387,26.9186388 31.1872133,26.0652031 C31.6821509,25.1978454 32.1579234,24.3194628 32.6141775,23.4307079 L32.6141775,23.4307079 Z M29.366326,25.0040992 C28.620986,26.3125349 27.83374,27.5961322 27.0058359,28.8528563 C25.5459904,28.9582625 24.0373672,29.012616 22.5,29.012616 C20.9689478,29.012616 19.4794873,28.964424 18.0451193,28.8704606 C17.1957428,27.6166627 16.3936043,26.3308438 15.6404245,25.0157621 C14.8907651,23.7076577 14.1905335,22.371256 13.5412432,21.0094458 C14.188882,19.6472277 14.8869977,18.3101102 15.6341095,17.0009291 L15.6341095,17.0013692 C16.380987,15.6919092 17.1768106,14.4115883 18.0198595,13.1631747 C19.4831891,13.0513869 20.9835375,12.9928524 22.5002178,12.9928524 C24.0236485,12.9928524 25.5259567,13.051827 26.9888508,13.1644951 C27.8233724,14.4109875 28.6141061,15.6868519 29.3595755,16.9897063 C30.1092565,18.2959747 30.8166888,19.6265424 31.4807502,20.9792984 C30.8235197,22.3458368 30.1183373,23.6882879 29.3665438,25.0040992 L29.366326,25.0040992 Z M33.7025289,1.28396074 C35.3500813,2.24427954 35.9909413,6.11658246 34.9557227,11.1947852 C34.8878696,11.5255995 34.8141104,11.8551485 34.7344812,12.1832711 C32.6932234,11.7072927 30.4764532,11.3530046 28.1555949,11.1329499 C26.8035393,9.18744609 25.402706,7.41842619 23.9964288,5.88728544 C24.3649316,5.52827671 24.7422038,5.17857522 25.1278962,4.83850464 C28.7605249,1.6437502 32.1555804,0.382396546 33.7025289,1.28396074 L33.7025289,1.28396074 Z" id="Shape" fill-rule="nonzero"></path>
                    <path d="M23.5,17 C25.9854042,17 28,19.0147689 28,21.4998885 C28,23.9852311 25.9854042,26 23.5,26 C21.0148189,26 19,23.9852311 19,21.4998885 C19,19.0147689 21.0148189,17 23.5,17" id="Shape" fill-rule="nonzero"></path>
                </g>
            </g>
        </g>
    </g>
</svg>