<?xml version="1.0" encoding="UTF-8"?>
<svg width="50px" height="50px" viewBox="0 0 50 50" version="1.1" xmlns="http://www.w3.org/2000/svg" xmlns:xlink="http://www.w3.org/1999/xlink">
    <!-- Generator: Sketch 55.2 (78181) - https://sketchapp.com -->
    <title>Icon</title>
    <desc>Created with Sketch.</desc>
    <g id="Home-v1" stroke="none" stroke-width="1" fill="none" fill-rule="evenodd">
        <g id="Main-page" transform="translate(-1007.000000, -6003.000000)">
            <g id="Made-for-devs" transform="translate(72.000000, 3974.000000)">
                <g id="Features" transform="translate(205.000000, 1378.000000)">
                    <g id="TypeScript" transform="translate(705.000000, 624.000000)">
                        <g id="Icon" transform="translate(25.000000, 27.000000)">
                            <circle id="Oval-2" fill="#EEF9FD" cx="25" cy="25" r="25"></circle>
                            <g id="typescript" transform="translate(11.000000, 11.000000)" fill-rule="nonzero">
                                <polyline id="Path" fill="#35C2FF" points="0 14 0 0 28 0 28 28 0 28"></polyline>
                                <path d="M6.17647059,14.0734318 L6.17647059,15.2158115 L9.81452699,15.2158115 L9.81452699,25.588338 L12.3961478,25.588338 L12.3961478,15.2158115 L16.0342042,15.2158115 L16.0342042,14.0944572 C16.0342042,13.4636955 16.0342042,12.9520776 16.0062191,12.9380607 C16.0062191,12.9170353 13.788404,12.9100268 11.094843,12.9100268 L6.19745938,12.9310522 L6.19745938,14.0804403 L6.17647059,14.0734318 Z M22.5267356,12.9030184 C23.2403544,13.0712215 23.7860628,13.3936108 24.2758012,13.9052287 C24.5346629,14.1855673 24.9194573,14.6761597 24.9474424,14.8023121 C24.9474424,14.8443629 23.737089,15.6643531 23.0024814,16.1199033 C22.9744964,16.1409287 22.8625562,16.0217848 22.750616,15.8395647 C22.3868103,15.3209384 22.0160084,15.0966676 21.4353187,15.0546168 C20.5957672,14.9985491 20.0360662,15.4400823 20.0360662,16.175971 C20.0360662,16.4002418 20.0780438,16.5263942 20.1619989,16.7086143 C20.350898,17.0940798 20.7007111,17.3253591 21.7851318,17.8019346 C23.7860628,18.6639757 24.6535993,19.2316613 25.178319,20.0446431 C25.7730013,20.9557434 25.9059303,22.38547 25.5071433,23.457765 C25.0593826,24.6281784 23.9679656,25.4201349 22.4077991,25.679448 C21.9180608,25.7635496 20.7986588,25.7495327 20.2739391,25.6584226 C19.1545372,25.4481687 18.084109,24.8874916 17.4264604,24.1656198 C17.1675987,23.8852813 16.670864,23.1353756 16.6988491,23.0863164 L16.9647071,22.9181133 L18.0141464,22.3083769 L18.804724,21.8458183 L18.9866269,22.0911145 C19.2175035,22.4555546 19.7352269,22.9461471 20.0360662,23.1143502 C20.9455803,23.5839173 22.16293,23.5208412 22.7646085,22.974181 C23.0234702,22.7358932 23.1354104,22.4835885 23.1354104,22.1331653 C23.1354104,21.810776 23.0864366,21.6635982 22.9255225,21.418302 C22.7016422,21.1099296 22.2538814,20.8576249 20.9945542,20.2969478 C19.5463279,19.6802029 18.9306568,19.287729 18.3569633,18.6850011 C18.0281389,18.320561 17.7272997,17.7528754 17.5873744,17.2833083 C17.4824305,16.8768174 17.4474492,15.8816155 17.5453968,15.4821331 C17.8462361,14.0804403 18.9026717,13.0992554 20.4138644,12.8189168 C20.9036027,12.7207983 22.057986,12.7628491 22.5407281,12.8890014 L22.5267356,12.9030184 L22.5267356,12.9030184 Z" id="Shape" fill="#FFFFFF"></path>
                            </g>
                        </g>
                    </g>
                </g>
            </g>
        </g>
    </g>
</svg>