<?xml version="1.0" encoding="UTF-8"?>
<svg width="50px" height="50px" viewBox="0 0 50 50" version="1.1" xmlns="http://www.w3.org/2000/svg" xmlns:xlink="http://www.w3.org/1999/xlink">
    <!-- Generator: Sketch 50.2 (55047) - http://www.bohemiancoding.com/sketch -->
    <title>Icon</title>
    <desc>Created with Sketch.</desc>
    <defs></defs>
    <g id="Home-v1" stroke="none" stroke-width="1" fill="none" fill-rule="evenodd">
        <g id="Main-page" transform="translate(-298.000000, -3863.000000)">
            <g id="Made-for-devs" transform="translate(72.000000, 2829.000000)">
                <g id="Features" transform="translate(205.000000, 383.000000)">
                    <g id="Headless" transform="translate(0.000000, 624.000000)">
                        <g id="Icon" transform="translate(21.000000, 27.000000)">
                            <circle id="Oval-2" fill="#C5F2C1" cx="25" cy="25" r="25"></circle>
                            <g id="round-dashboard-24px" transform="translate(7.000000, 7.000000)">
                                <g id="Bounding_Boxes">
                                    <polygon id="Shape" points="0 0 36 0 36 36 0 36"></polygon>
                                </g>
                                <g id="Rounded" transform="translate(4.500000, 4.500000)" fill="#5FBA83" fill-rule="nonzero">
                                    <path d="M1.5,15 L10.5,15 C11.325,15 12,14.325 12,13.5 L12,1.5 C12,0.675 11.325,0 10.5,0 L1.5,0 C0.675,0 0,0.675 0,1.5 L0,13.5 C0,14.325 0.675,15 1.5,15 Z M1.5,27 L10.5,27 C11.325,27 12,26.325 12,25.5 L12,19.5 C12,18.675 11.325,18 10.5,18 L1.5,18 C0.675,18 0,18.675 0,19.5 L0,25.5 C0,26.325 0.675,27 1.5,27 Z M16.5,27 L25.5,27 C26.325,27 27,26.325 27,25.5 L27,13.5 C27,12.675 26.325,12 25.5,12 L16.5,12 C15.675,12 15,12.675 15,13.5 L15,25.5 C15,26.325 15.675,27 16.5,27 Z M15,1.5 L15,7.5 C15,8.325 15.675,9 16.5,9 L25.5,9 C26.325,9 27,8.325 27,7.5 L27,1.5 C27,0.675 26.325,0 25.5,0 L16.5,0 C15.675,0 15,0.675 15,1.5 Z" id="Shape"></path>
                                </g>
                            </g>
                        </g>
                    </g>
                </g>
            </g>
        </g>
    </g>
</svg>