<svg xmlns="http://www.w3.org/2000/svg" xmlns:xlink="http://www.w3.org/1999/xlink" viewBox="0 0 800 500"><defs><linearGradient id="a" x1="202.8" y1="107.78" x2="-22.92" y2="389.12" gradientUnits="userSpaceOnUse"><stop offset="0" stop-color="#8033eb"/><stop offset="1" stop-color="#a2e1e0"/></linearGradient><linearGradient id="b" x1="432.22" y1="107.78" x2="206.5" y2="389.12" xlink:href="#a"/><linearGradient id="c" x1="430.74" y1="103.14" x2="196.63" y2="394.94" xlink:href="#a"/><linearGradient id="d" x1="658.16" y1="103.14" x2="424.05" y2="394.94" xlink:href="#a"/><linearGradient id="e" x1="112.39" y1="250" x2="283.79" y2="250" gradientUnits="userSpaceOnUse"><stop offset="0" stop-color="#8033eb"/><stop offset="1" stop-color="#6731ce"/></linearGradient><linearGradient id="f" x1="339.81" x2="511.21" xlink:href="#e"/><linearGradient id="g" x1="187.67" y1="184.23" x2="188.67" y2="184.23" xlink:href="#e"/><linearGradient id="h" x1="187.67" y1="307.76" x2="188.67" y2="307.76" xlink:href="#e"/><linearGradient id="i" x1="421.93" y1="203.39" x2="422.93" y2="203.39" xlink:href="#e"/><linearGradient id="j" x1="421.93" y1="298.62" x2="422.93" y2="298.62" xlink:href="#e"/><linearGradient id="k" x1="686.77" y1="151.2" x2="624.86" y2="220.18" gradientTransform="translate(329.42 -396.76) rotate(45)" gradientUnits="userSpaceOnUse"><stop offset="0" stop-color="#fdbaa9"/><stop offset="1" stop-color="#f94f24"/></linearGradient></defs><title>Artboard 2 copy 8</title><g style="isolation:isolate"><rect x="20.37" y="324.37" width="295.93" height="71.43" rx="33.7" ry="33.7" style="fill:#f2f2f2"/><path d="M133.61,128.65a56,56,0,1,1-56-56A56,56,0,0,1,133.61,128.65Z" style="fill:#f2f2f2"/><path d="M777,353.53A66.53,66.53,0,1,1,710.48,287,66.54,66.54,0,0,1,777,353.53Z" style="fill:#f2f2f2"/><rect x="289.79" y="123.4" width="220.42" height="253.19" style="fill:#eae3f2"/><path d="M719.63,123.4H517.21V376.6H719.63a20,20,0,0,0,20-20V143.4A20,20,0,0,0,719.63,123.4Z" style="fill:#eae3f2"/><path d="M282.79,123.4H80.37a20,20,0,0,0-20,20V356.6a20,20,0,0,0,20,20H282.79Z" style="fill:#eae3f2"/><path d="M106.62,123.4H80.37a20,20,0,0,0-20,20V356.6a20,20,0,0,0,20,20h26.25Z" style="fill:url(#a)"/><path d="M336,123.4H309.79a20,20,0,0,0-20,20V356.6a20,20,0,0,0,20,20H336Z" style="fill:url(#b)"/><rect x="289.79" y="123.4" width="46.25" height="253.19" style="fill:url(#c)"/><rect x="517.21" y="123.4" width="46.25" height="253.19" style="fill:url(#d)"/><path d="M282.79,368.55H80.37c-11,0-20-10.34-20-21.38v9.43a20,20,0,0,0,20,20H282.79Z" style="fill:#ded3ea;mix-blend-mode:multiply"/><path d="M719.63,368.55H517.21v8.05H719.63a20,20,0,0,0,20-20v-13C739.63,354.61,730.67,368.55,719.63,368.55Z" style="fill:#ded3ea;mix-blend-mode:multiply"/><rect x="289.79" y="368.55" width="220.42" height="8.05" style="fill:#ded3ea;mix-blend-mode:multiply"/><line x1="113.39" y1="250" x2="282.79" y2="250" style="fill:none;stroke-linecap:round;stroke-miterlimit:10;stroke-width:2px;stroke-dasharray:3.0499401092529297,5.083230018615723;stroke:url(#e)"/><line x1="340.81" y1="250" x2="510.21" y2="250" style="fill:none;stroke-linecap:round;stroke-miterlimit:10;stroke-width:2px;stroke-dasharray:3.0499401092529297,5.083230018615723;stroke:url(#f)"/><line x1="188.17" y1="134.93" x2="188.17" y2="233.54" style="fill:none;stroke-linecap:round;stroke-miterlimit:10;stroke:url(#g)"/><line x1="188.17" y1="260.36" x2="188.17" y2="355.16" style="fill:none;stroke-linecap:round;stroke-miterlimit:10;stroke:url(#h)"/><line x1="422.43" y1="170.3" x2="422.43" y2="236.48" style="fill:none;stroke-linecap:round;stroke-miterlimit:10;stroke:url(#i)"/><line x1="422.43" y1="265.53" x2="422.43" y2="331.71" style="fill:none;stroke-linecap:round;stroke-miterlimit:10;stroke:url(#j)"/><path d="M81.34,303.28v-1.46l7.29-2.4-7.26-2.34v-1.81l9.87,3.42v1.48l-7,2.41,7,2.41v1.48l-9.87,3.42V308l7.26-2.34Z" style="fill:#fff"/><path d="M82.92,286.26v5.54h2.52v-4.91H87v4.91h2.62v-5.61h1.56v7.32h-9.8v-7.25Z" style="fill:#fff"/><path d="M82,277.39a2.22,2.22,0,0,1,1.84-.86,2.74,2.74,0,0,1,.79.11,2.57,2.57,0,0,1,.62.31,2.34,2.34,0,0,1,.45.44,5.24,5.24,0,0,1,.34.53,5.22,5.22,0,0,1,.35-.79,2.48,2.48,0,0,1,.49-.61,1.7,1.7,0,0,1,.66-.4,2.68,2.68,0,0,1,.89-.14,2.54,2.54,0,0,1,1.16.26,2.35,2.35,0,0,1,.84.73,3.47,3.47,0,0,1,.52,1.15,5.72,5.72,0,0,1,.18,1.48v4.53h-9.8v-4.39A3.73,3.73,0,0,1,82,277.39Zm3.14,1.35a1.13,1.13,0,0,0-1-.51,1.11,1.11,0,0,0-.94.44,2.12,2.12,0,0,0-.33,1.28v2.47h2.62v-2.34A2.39,2.39,0,0,0,85.18,278.74Zm4.12-.55a1.17,1.17,0,0,0-1-.5,1.12,1.12,0,0,0-1,.49A2.69,2.69,0,0,0,87,279.7v2.72h2.69v-2.85A2.51,2.51,0,0,0,89.3,278.19Z" style="fill:#fff"/><path d="M81.37,272.21h9.8v1.71h-9.8Z" style="fill:#fff"/><path d="M81.37,262.75V261h9.8v1.44l-7,5.4h7v1.7h-9.8V268l6.77-5.24Z" style="fill:#fff"/><path d="M91.17,253.9v1.74H87.3l-5.93,3.89v-2l4.34-2.74L81.37,252v-2l5.89,3.89Z" style="fill:#fff"/><path d="M91.17,234.92v1.82l-2.37,1v4.64l2.37,1v1.76l-9.88-4.31v-1.6Zm-7.82,5.14,3.92,1.68v-3.38Z" style="fill:#fff"/><path d="M88.19,224.76a4.57,4.57,0,0,1,1.56,1.07,5,5,0,0,1,1,1.65,5.74,5.74,0,0,1,.38,2.11v3.65h-9.8v-3.65a5.74,5.74,0,0,1,.37-2.11,4.94,4.94,0,0,1,1-1.65,4.57,4.57,0,0,1,1.56-1.07,5.12,5.12,0,0,1,3.87,0Zm-3.25,1.67a3.08,3.08,0,0,0-1.07.69,3.21,3.21,0,0,0-.7,1.07,3.71,3.71,0,0,0-.25,1.4v1.94h6.69v-1.94a3.92,3.92,0,0,0-.24-1.4,3.18,3.18,0,0,0-.69-1.07,3,3,0,0,0-1.06-.69,3.63,3.63,0,0,0-1.34-.25A3.59,3.59,0,0,0,84.94,226.43Z" style="fill:#fff"/><path d="M88.76,217.46v.06l-4.59,3.06h7v1.71h-9.8v-1.83l4.63-3-4.63-3v-1.83h9.8v1.71h-7Z" style="fill:#fff"/><path d="M81.37,208.33h9.8V210h-9.8Z" style="fill:#fff"/><path d="M81.37,198.87v-1.71h9.8v1.44l-7,5.39h7v1.71h-9.8v-1.59l6.77-5.24Z" style="fill:#fff"/><path d="M317.17,289.57v1.81l-2.37,1V297l2.37,1v1.77l-9.88-4.32v-1.59Zm-7.82,5.13,3.92,1.68V293Z" style="fill:#fff"/><path d="M312.11,280.61a2.88,2.88,0,0,1,1.05.84,3.79,3.79,0,0,1,.64,1.25,5.34,5.34,0,0,1,.21,1.53v1.95h3.16v1.71h-9.8V284a4.76,4.76,0,0,1,.23-1.55,3.19,3.19,0,0,1,.66-1.17,3,3,0,0,1,1-.74,3.27,3.27,0,0,1,1.36-.26A3.19,3.19,0,0,1,312.11,280.61Zm-2.75,2a2.52,2.52,0,0,0-.44,1.55v2h3.54v-2a2.32,2.32,0,0,0-.48-1.55,1.63,1.63,0,0,0-1.29-.57A1.59,1.59,0,0,0,309.36,282.62Z" style="fill:#fff"/><path d="M312.11,271.25a3,3,0,0,1,1.05.85,3.84,3.84,0,0,1,.64,1.24,5.44,5.44,0,0,1,.21,1.53v2h3.16v1.7h-9.8v-3.86a4.72,4.72,0,0,1,.23-1.55,3.19,3.19,0,0,1,.66-1.17,3,3,0,0,1,1-.75,3.44,3.44,0,0,1,1.36-.25A3.32,3.32,0,0,1,312.11,271.25Zm-2.75,2a2.52,2.52,0,0,0-.44,1.55v2h3.54v-2a2.35,2.35,0,0,0-.48-1.56,1.62,1.62,0,0,0-1.29-.56A1.59,1.59,0,0,0,309.36,273.27Z" style="fill:#fff"/><path d="M307.37,269.18v-1.71h8.24v-5.15h1.56v6.86Z" style="fill:#fff"/><path d="M307.37,258.71h9.8v1.71h-9.8Z" style="fill:#fff"/><path d="M316.32,248.34a5.42,5.42,0,0,1,.54.89,4.39,4.39,0,0,1,.35,1,6.13,6.13,0,0,1,.12,1.26,5,5,0,0,1-.39,2,4.92,4.92,0,0,1-1.07,1.57,5,5,0,0,1-1.6,1,5.08,5.08,0,0,1-2,.38,5.24,5.24,0,0,1-2-.37,5,5,0,0,1-1.61-1,4.84,4.84,0,0,1-1.09-1.6,5,5,0,0,1-.4-2,5.86,5.86,0,0,1,.11-1.23,5,5,0,0,1,.31-1,5.18,5.18,0,0,1,.49-.86,7,7,0,0,1,.61-.74l1.28,1.11a5.32,5.32,0,0,0-.88,1.24,3.19,3.19,0,0,0-.34,1.5,3.12,3.12,0,0,0,.27,1.3,3.3,3.3,0,0,0,.74,1,3.42,3.42,0,0,0,1.1.67,3.81,3.81,0,0,0,1.36.24,3.87,3.87,0,0,0,1.37-.24,3.47,3.47,0,0,0,1.11-.67,3.18,3.18,0,0,0,.75-1,3.12,3.12,0,0,0,.27-1.3,3.24,3.24,0,0,0-.34-1.54,6.13,6.13,0,0,0-.93-1.27l1.12-1.11A6.6,6.6,0,0,1,316.32,248.34Z" style="fill:#fff"/><path d="M317.17,236.37v1.82l-2.37,1v4.63l2.37,1v1.77l-9.88-4.32v-1.59Zm-7.82,5.13,3.92,1.68v-3.37Z" style="fill:#fff"/><path d="M317.17,231.8v1.74H309v3.11h-1.59v-8H309v3.11Z" style="fill:#fff"/><path d="M307.37,225.07h9.8v1.71h-9.8Z" style="fill:#fff"/><path d="M314.21,213a5,5,0,0,1,1.62,1.06,5.39,5.39,0,0,1,1.1,5.77,4.75,4.75,0,0,1-1.08,1.61,4.88,4.88,0,0,1-1.61,1.05,5.24,5.24,0,0,1-3.92,0,4.79,4.79,0,0,1-1.62-1.06,5.39,5.39,0,0,1-1.1-5.77,4.83,4.83,0,0,1,2.69-2.66,5.24,5.24,0,0,1,3.92,0Zm-3.28,1.67a3.47,3.47,0,0,0-1.11.69,3.26,3.26,0,0,0-.76,1.06,3.16,3.16,0,0,0-.28,1.34,3.27,3.27,0,0,0,.27,1.34,3.23,3.23,0,0,0,.74,1,3.49,3.49,0,0,0,1.11.68,3.84,3.84,0,0,0,1.35.24,3.76,3.76,0,0,0,1.35-.24,3.16,3.16,0,0,0,1.11-.69,3.22,3.22,0,0,0,.76-1,3.17,3.17,0,0,0,.28-1.35,3.23,3.23,0,0,0-.27-1.33,3.17,3.17,0,0,0-.74-1.05,3.68,3.68,0,0,0-1.11-.68,3.8,3.8,0,0,0-1.35-.24A3.76,3.76,0,0,0,310.93,214.67Z" style="fill:#fff"/><path d="M307.37,203.7V202h9.8v1.43l-7,5.4h7v1.71h-9.8v-1.6l6.77-5.24Z" style="fill:#fff"/><path d="M310.43,197.94a1.09,1.09,0,0,0,.39-.36,2.7,2.7,0,0,0,.34-.72c.1-.3.21-.69.32-1.16a10.38,10.38,0,0,1,.44-1.36,3.16,3.16,0,0,1,.58-1,2.19,2.19,0,0,1,.79-.6,2.57,2.57,0,0,1,1.08-.2,2.89,2.89,0,0,1,1.24.25,2.71,2.71,0,0,1,.93.72,3.1,3.1,0,0,1,.57,1.1,4.86,4.86,0,0,1,.19,1.41,5.93,5.93,0,0,1-1.56,4.09l-1.24-1a5.6,5.6,0,0,0,.95-1.44,3.92,3.92,0,0,0,.33-1.65,2.12,2.12,0,0,0-.34-1.27,1.06,1.06,0,0,0-.91-.47,1.2,1.2,0,0,0-.47.1,1,1,0,0,0-.39.33,3.6,3.6,0,0,0-.33.68,10.91,10.91,0,0,0-.32,1.11,13.5,13.5,0,0,1-.4,1.4,3.31,3.31,0,0,1-.57,1,2.07,2.07,0,0,1-.81.63,2.67,2.67,0,0,1-1.16.22,2.68,2.68,0,0,1-2.07-.93,3.11,3.11,0,0,1-.58-1.06,4.09,4.09,0,0,1-.21-1.34,5.6,5.6,0,0,1,.32-1.94,6,6,0,0,1,.92-1.62l1.3.93a5.79,5.79,0,0,0-.75,1.33,3.66,3.66,0,0,0-.26,1.33,1.85,1.85,0,0,0,.34,1.17,1.05,1.05,0,0,0,.84.42A1.28,1.28,0,0,0,310.43,197.94Z" style="fill:#fff"/><path d="M543.66,285.44a4.57,4.57,0,0,1,1.56,1.07,5.09,5.09,0,0,1,1,1.65,5.78,5.78,0,0,1,.38,2.11v3.66h-9.8v-3.66a5.78,5.78,0,0,1,.37-2.11,4.9,4.9,0,0,1,1-1.65,4.44,4.44,0,0,1,1.55-1.07,5.12,5.12,0,0,1,3.87,0Zm-3.25,1.68a3.16,3.16,0,0,0-1.06.68,3.22,3.22,0,0,0-.71,1.08,3.71,3.71,0,0,0-.25,1.4v1.94h6.69v-1.94a3.92,3.92,0,0,0-.24-1.4,3.33,3.33,0,0,0-.69-1.08,3.16,3.16,0,0,0-1.06-.68,3.72,3.72,0,0,0-2.68,0Z" style="fill:#fff"/><path d="M538.39,275.73v5.54h2.52v-4.91h1.55v4.91h2.62v-5.61h1.56V283h-9.8v-7.25Z" style="fill:#fff"/><path d="M536.84,266.64v-1.86l9.87,4.07v1.51l-9.87,4.08v-1.91l7.53-2.95Z" style="fill:#fff"/><path d="M546.64,259v1.74h-8.21v3.11h-1.59v-8h1.59V259Z" style="fill:#fff"/><path d="M543.68,245.12a4.82,4.82,0,0,1,1.62,1.07,5,5,0,0,1,1.1,1.62,5.56,5.56,0,0,1,0,4.14,4.66,4.66,0,0,1-1.08,1.61,4.88,4.88,0,0,1-1.61,1.05,5.24,5.24,0,0,1-3.92,0,4.79,4.79,0,0,1-1.62-1.06,5.39,5.39,0,0,1-1.1-5.77,4.85,4.85,0,0,1,1.08-1.61,5,5,0,0,1,1.61-1,5.24,5.24,0,0,1,3.92,0Zm-3.28,1.67a3.47,3.47,0,0,0-1.11.69,3.26,3.26,0,0,0-.76,1.06,3.16,3.16,0,0,0-.28,1.34,3.27,3.27,0,0,0,.27,1.34,3.39,3.39,0,0,0,.74,1,3.49,3.49,0,0,0,1.11.68,3.85,3.85,0,0,0,1.35.25,3.77,3.77,0,0,0,1.35-.25,3.29,3.29,0,0,0,1.12-.69,3.35,3.35,0,0,0,.75-1.05,3.17,3.17,0,0,0,.28-1.35,3.23,3.23,0,0,0-.27-1.33,3.17,3.17,0,0,0-.74-1.05,3.56,3.56,0,0,0-1.11-.68,3.92,3.92,0,0,0-2.7,0Z" style="fill:#fff"/><path d="M543.68,233.22a4.82,4.82,0,0,1,1.62,1.07,5.1,5.1,0,0,1,1.1,1.62,5.2,5.2,0,0,1,.4,2.07,5.13,5.13,0,0,1-.4,2.07,4.66,4.66,0,0,1-1.08,1.61,4.88,4.88,0,0,1-1.61,1.05,5.24,5.24,0,0,1-3.92,0,4.79,4.79,0,0,1-1.62-1.06,5.39,5.39,0,0,1-1.1-5.77,4.85,4.85,0,0,1,1.08-1.61,5,5,0,0,1,1.61-1.05,5.24,5.24,0,0,1,3.92,0Zm-3.28,1.67a3.47,3.47,0,0,0-1.11.69,3.37,3.37,0,0,0-.76,1.06,3.16,3.16,0,0,0-.28,1.34,3.27,3.27,0,0,0,.27,1.34,3.39,3.39,0,0,0,.74,1,3.49,3.49,0,0,0,1.11.68,3.85,3.85,0,0,0,1.35.25,3.77,3.77,0,0,0,1.35-.25,3.29,3.29,0,0,0,1.12-.69,3.35,3.35,0,0,0,.75-1,3.17,3.17,0,0,0,.28-1.35,3.23,3.23,0,0,0-.27-1.33,3.17,3.17,0,0,0-.74-1.05,3.8,3.8,0,0,0-3.81-.68Z" style="fill:#fff"/><path d="M536.84,230.76v-1.71h8.24V223.9h1.56v6.86Z" style="fill:#fff"/><path d="M539.9,220.55a.93.93,0,0,0,.39-.36,2.47,2.47,0,0,0,.34-.71c.1-.31.21-.69.32-1.16a10.56,10.56,0,0,1,.44-1.37,3.16,3.16,0,0,1,.58-1,2.25,2.25,0,0,1,.79-.59,2.57,2.57,0,0,1,1.08-.21,2.89,2.89,0,0,1,1.24.26,2.71,2.71,0,0,1,.93.71,3.28,3.28,0,0,1,.57,1.1,4.87,4.87,0,0,1,.2,1.42,6.13,6.13,0,0,1-.39,2.17,6,6,0,0,1-1.18,1.92l-1.23-1a6.21,6.21,0,0,0,.94-1.44,4,4,0,0,0,.33-1.65,2.08,2.08,0,0,0-.34-1.27,1.06,1.06,0,0,0-.91-.47,1.19,1.19,0,0,0-.47.09.94.94,0,0,0-.39.34,3.48,3.48,0,0,0-.33.67c-.1.29-.21.66-.32,1.12a11.22,11.22,0,0,1-.4,1.39,3.72,3.72,0,0,1-.56,1,2.29,2.29,0,0,1-.82.63,2.67,2.67,0,0,1-1.16.22,2.65,2.65,0,0,1-2.07-.94,3,3,0,0,1-.58-1,4.14,4.14,0,0,1-.2-1.34,5.6,5.6,0,0,1,.31-1.94,5.69,5.69,0,0,1,.92-1.62l1.3.92a6,6,0,0,0-.75,1.33,3.7,3.7,0,0,0-.26,1.33,1.86,1.86,0,0,0,.34,1.18,1.05,1.05,0,0,0,.84.42A1.12,1.12,0,0,0,539.9,220.55Z" style="fill:#fff"/><path d="M131.21,224.17a5.26,5.26,0,0,1-.75.38,5.4,5.4,0,0,1-.86.26,5.07,5.07,0,0,1-1,.09,4.32,4.32,0,0,1-1.64-.3,3.79,3.79,0,0,1-1.26-.83,3.65,3.65,0,0,1-.81-1.25,4.15,4.15,0,0,1-.28-1.55,3.93,3.93,0,0,1,.29-1.53,3.81,3.81,0,0,1,.82-1.26,4,4,0,0,1,2.86-1.17,5.17,5.17,0,0,1,.92.08,3.53,3.53,0,0,1,.76.2,3.18,3.18,0,0,1,.67.32,4.07,4.07,0,0,1,.61.44l-.86,1-.45-.34a3.23,3.23,0,0,0-.49-.25,2.73,2.73,0,0,0-.55-.17,3.48,3.48,0,0,0-.67-.06,2.31,2.31,0,0,0-1,.22,2.28,2.28,0,0,0-.79.58,2.8,2.8,0,0,0-.72,1.91,3.2,3.2,0,0,0,.18,1.09,2.56,2.56,0,0,0,.54.87,2.52,2.52,0,0,0,.82.57,2.65,2.65,0,0,0,1.07.21,3.13,3.13,0,0,0,1-.16,3.07,3.07,0,0,0,.83-.42v-1.44h-2v-1.16h3.28v3.2A6.41,6.41,0,0,1,131.21,224.17Z" style="fill:#6731cf"/><path d="M134.79,224.77h-1.34V219h1.34v1.29a2.49,2.49,0,0,1,.78-1,1.91,1.91,0,0,1,1.28-.36v1.39h-.08a2.28,2.28,0,0,0-.8.14,1.81,1.81,0,0,0-.63.43,2,2,0,0,0-.41.71,3.35,3.35,0,0,0-.14,1Z" style="fill:#6731cf"/><path d="M141.27,224.77v-.71a2.53,2.53,0,0,1-.76.59,2.41,2.41,0,0,1-1.12.24,2.52,2.52,0,0,1-.79-.12,2,2,0,0,1-.66-.33,1.64,1.64,0,0,1-.45-.56,1.71,1.71,0,0,1-.17-.77v0a1.8,1.8,0,0,1,.18-.82,1.5,1.5,0,0,1,.49-.57,2,2,0,0,1,.74-.35,4,4,0,0,1,.94-.11,5.71,5.71,0,0,1,.9.06c.25,0,.48.11.71.18v-.14a1.14,1.14,0,0,0-.37-.92,1.58,1.58,0,0,0-1.06-.31,3.38,3.38,0,0,0-.88.1,4.76,4.76,0,0,0-.78.26l-.36-1.06a5.82,5.82,0,0,1,1-.35,4.75,4.75,0,0,1,1.22-.13,2.57,2.57,0,0,1,1.92.64,2.43,2.43,0,0,1,.63,1.79v3.41Zm0-2.44a2.89,2.89,0,0,0-.6-.16,3.41,3.41,0,0,0-.73-.07,1.73,1.73,0,0,0-1,.24.79.79,0,0,0-.35.69v0a.73.73,0,0,0,.32.63,1.47,1.47,0,0,0,.8.22,2,2,0,0,0,.61-.09,1.51,1.51,0,0,0,.49-.25,1.1,1.1,0,0,0,.33-.38,1.14,1.14,0,0,0,.11-.49Z" style="fill:#6731cf"/><path d="M150,223.17a2.91,2.91,0,0,1-.6.94,2.42,2.42,0,0,1-.87.58,2.71,2.71,0,0,1-1,.2,2.07,2.07,0,0,1-1.18-.31,3.17,3.17,0,0,1-.79-.7v2.63h-1.34V219h1.34v1a3,3,0,0,1,.79-.77,2.1,2.1,0,0,1,1.18-.31,2.65,2.65,0,0,1,1,.19,2.5,2.5,0,0,1,.86.59,3,3,0,0,1,.61.94,3.34,3.34,0,0,1,.23,1.27A3.4,3.4,0,0,1,150,223.17Zm-1.24-2a1.83,1.83,0,0,0-.36-.59,1.64,1.64,0,0,0-.53-.37,1.67,1.67,0,0,0-1.29,0,1.47,1.47,0,0,0-.54.38,1.75,1.75,0,0,0-.37.58,2.16,2.16,0,0,0,0,1.53,1.85,1.85,0,0,0,.37.58,1.45,1.45,0,0,0,.54.37,1.67,1.67,0,0,0,1.29,0,1.5,1.5,0,0,0,.53-.37,1.78,1.78,0,0,0,.36-.58,2.3,2.3,0,0,0,.13-.77A2.24,2.24,0,0,0,148.71,221.13Z" style="fill:#6731cf"/><path d="M152.88,224.77h-1.34v-8h1.34v3.1a3,3,0,0,1,.32-.39,1.76,1.76,0,0,1,.39-.32,2.07,2.07,0,0,1,.5-.23,2.25,2.25,0,0,1,.61-.08,1.94,1.94,0,0,1,1.52.6,2.31,2.31,0,0,1,.54,1.61v3.66h-1.34v-3.26a1.49,1.49,0,0,0-.33-1,1.14,1.14,0,0,0-.91-.36,1.23,1.23,0,0,0-.93.37,1.42,1.42,0,0,0-.37,1.05Z" style="fill:#6731cf"/><path d="M166.33,224l-.87,1-.93-.82a4.64,4.64,0,0,1-1.07.53,4,4,0,0,1-1.27.19,4.3,4.3,0,0,1-1.63-.31,3.89,3.89,0,0,1-2.09-2.1,4.15,4.15,0,0,1,0-3.05,3.87,3.87,0,0,1,.84-1.26,4.05,4.05,0,0,1,2.9-1.17,4.26,4.26,0,0,1,1.63.31,4,4,0,0,1,1.27.85,3.82,3.82,0,0,1,.82,1.25,3.94,3.94,0,0,1,.3,1.53,3.77,3.77,0,0,1-.21,1.25,3.84,3.84,0,0,1-.57,1.1Zm-4.12-1.85.87-1,1.33,1.19a2.4,2.4,0,0,0,.3-.67,2.68,2.68,0,0,0,.1-.76,2.84,2.84,0,0,0-.19-1.05,2.77,2.77,0,0,0-.54-.87,2.61,2.61,0,0,0-.83-.59,2.68,2.68,0,0,0-1.06-.22,2.6,2.6,0,0,0-1.05.22,2.52,2.52,0,0,0-.82.57,2.7,2.7,0,0,0-.53.86,2.89,2.89,0,0,0-.19,1.06,2.84,2.84,0,0,0,.19,1.05,2.62,2.62,0,0,0,.54.86,2.5,2.5,0,0,0,.83.59,2.6,2.6,0,0,0,1.05.22,2.44,2.44,0,0,0,1.32-.37Z" style="fill:#6731cf"/><path d="M167.87,217.14h1.34v6.42h4v1.21h-5.39Z" style="fill:#6731cf"/><path d="M147.43,235.77H146l-.78-1.84h-3.64l-.79,1.84H139.4l3.39-7.68h1.26Zm-4-6.08-1.32,3.05h2.65Z" style="fill:#6731cf"/><path d="M154.47,231.84a2.27,2.27,0,0,1-.66.81,2.84,2.84,0,0,1-1,.5,4.24,4.24,0,0,1-1.2.17H150.1v2.45h-1.35v-7.63h3a3.8,3.8,0,0,1,1.21.18,2.62,2.62,0,0,1,.93.52,2.32,2.32,0,0,1,.58.81,2.52,2.52,0,0,1,.21,1A2.58,2.58,0,0,1,154.47,231.84Zm-1.58-2.14a2,2,0,0,0-1.22-.35H150.1v2.76h1.57a1.82,1.82,0,0,0,1.22-.38,1.23,1.23,0,0,0,.45-1A1.21,1.21,0,0,0,152.89,229.7Z" style="fill:#6731cf"/><path d="M157.52,228.14v7.63h-1.34v-7.63Z" style="fill:#6731cf"/><path d="M145.62,362.07h-1.43l-.78-1.84h-3.64l-.79,1.84h-1.39l3.39-7.68h1.26Zm-4-6.08L140.27,359h2.65Z" style="fill:#6731cf"/><path d="M152.55,361.41a3.87,3.87,0,0,1-.7.43,3.43,3.43,0,0,1-.82.27,5,5,0,0,1-1,.09,4,4,0,0,1-1.57-.3,3.79,3.79,0,0,1-1.23-.84,3.73,3.73,0,0,1-.82-1.24,4,4,0,0,1-.3-1.55,4.17,4.17,0,0,1,.29-1.54,3.93,3.93,0,0,1,.82-1.25,3.69,3.69,0,0,1,1.26-.85,3.94,3.94,0,0,1,1.6-.31,5.64,5.64,0,0,1,1,.08,3.75,3.75,0,0,1,.8.25,3.6,3.6,0,0,1,.67.37,6.86,6.86,0,0,1,.59.48l-.87,1a4.17,4.17,0,0,0-1-.69,2.53,2.53,0,0,0-1.18-.26,2.45,2.45,0,0,0-1.83.79,2.63,2.63,0,0,0-.52.85,3.05,3.05,0,0,0,0,2.12,2.72,2.72,0,0,0,.52.87,2.61,2.61,0,0,0,.81.58,2.45,2.45,0,0,0,1,.21,2.54,2.54,0,0,0,1.21-.27,4.56,4.56,0,0,0,1-.72l.87.87A4.61,4.61,0,0,1,152.55,361.41Z" style="fill:#6731cf"/><path d="M154.59,354.45h1.34v6.41h4v1.21h-5.39Z" style="fill:#6731cf"/><path d="M223.23,224.77H221.8l-.78-1.84h-3.64l-.8,1.84H215.2l3.39-7.68h1.25Zm-4-6.08-1.32,3.05h2.65Z" style="fill:#6731cf"/><path d="M228.49,224.77v-1a2.9,2.9,0,0,1-.8.76,2.1,2.1,0,0,1-1.18.32,2.66,2.66,0,0,1-1-.2,2.43,2.43,0,0,1-.85-.58,3.11,3.11,0,0,1-.61-.94,3.4,3.4,0,0,1-.23-1.28,3.34,3.34,0,0,1,.23-1.27,2.81,2.81,0,0,1,.6-.94,2.32,2.32,0,0,1,.86-.59,2.65,2.65,0,0,1,1-.19,2.19,2.19,0,0,1,1.19.3,3.39,3.39,0,0,1,.79.71v-3.09h1.34v8Zm-.12-3.64a1.75,1.75,0,0,0-.37-.58,1.52,1.52,0,0,0-.53-.38,1.78,1.78,0,0,0-.64-.13,1.56,1.56,0,0,0-.64.13,1.47,1.47,0,0,0-.53.36,1.58,1.58,0,0,0-.36.58,2.13,2.13,0,0,0-.13.78,2.07,2.07,0,0,0,.13.77,1.65,1.65,0,0,0,.89,1,1.56,1.56,0,0,0,.64.13,1.59,1.59,0,0,0,.64-.13,1.5,1.5,0,0,0,.53-.37,1.85,1.85,0,0,0,.37-.58,2.16,2.16,0,0,0,0-1.53Z" style="fill:#6731cf"/><path d="M237.16,219.18a2.19,2.19,0,0,1,1.14-.28,1.93,1.93,0,0,1,1.49.57,2.27,2.27,0,0,1,.54,1.63v3.67H239v-3.26a1.6,1.6,0,0,0-.3-1,1.12,1.12,0,0,0-.87-.35,1.18,1.18,0,0,0-.89.36,1.49,1.49,0,0,0-.35,1.06v3.24h-1.34V221.5a1.54,1.54,0,0,0-.31-1,1.09,1.09,0,0,0-.86-.35,1.14,1.14,0,0,0-.9.38,1.54,1.54,0,0,0-.34,1v3.23h-1.34V219h1.34v.88c.1-.13.2-.26.31-.38a2.33,2.33,0,0,1,.38-.31A1.78,1.78,0,0,1,234,219a2.23,2.23,0,0,1,.6-.08,1.88,1.88,0,0,1,1.06.28,1.91,1.91,0,0,1,.67.74A2.79,2.79,0,0,1,237.16,219.18Z" style="fill:#6731cf"/><path d="M242,218.14v-1.26h1.44v1.26Zm.06,6.63V219h1.34v5.75Z" style="fill:#6731cf"/><path d="M246.43,224.77h-1.34V219h1.34v.9a3,3,0,0,1,.31-.39,1.82,1.82,0,0,1,.4-.32,2,2,0,0,1,.49-.23,2.25,2.25,0,0,1,.61-.08,1.93,1.93,0,0,1,1.52.6,2.31,2.31,0,0,1,.54,1.61v3.66H249v-3.26a1.54,1.54,0,0,0-.32-1,1.17,1.17,0,0,0-.91-.36,1.24,1.24,0,0,0-.94.37,1.45,1.45,0,0,0-.36,1.05Z" style="fill:#6731cf"/><path d="M218.41,235.77H217v-6.38H214.6v-1.25h6.25v1.25h-2.44Z" style="fill:#6731cf"/><path d="M223.4,235.77h-1.34v-8h1.34v3.1a4.08,4.08,0,0,1,.31-.39,2.08,2.08,0,0,1,.4-.32,2,2,0,0,1,.49-.23,2.25,2.25,0,0,1,.61-.08,1.92,1.92,0,0,1,1.52.6,2.31,2.31,0,0,1,.54,1.61v3.66h-1.34v-3.26a1.54,1.54,0,0,0-.32-1,1.17,1.17,0,0,0-.91-.36,1.24,1.24,0,0,0-.94.37,1.45,1.45,0,0,0-.36,1.05Z" style="fill:#6731cf"/><path d="M230.46,234.44a1.62,1.62,0,0,0,1.1.38,2.06,2.06,0,0,0,.86-.17,2.74,2.74,0,0,0,.71-.52l.79.69a3,3,0,0,1-1,.78,2.93,2.93,0,0,1-1.38.3,3,3,0,0,1-1.17-.22,2.87,2.87,0,0,1-1-.61,2.68,2.68,0,0,1-.63-.94,3.25,3.25,0,0,1-.23-1.23,3.19,3.19,0,0,1,.21-1.16,2.82,2.82,0,0,1,.59-1,2.87,2.87,0,0,1,3.25-.64,2.54,2.54,0,0,1,.87.67,2.93,2.93,0,0,1,.52,1,3.94,3.94,0,0,1,.18,1.19,1.09,1.09,0,0,1,0,.18,1.15,1.15,0,0,1,0,.18h-4.27A1.72,1.72,0,0,0,230.46,234.44Zm2.4-1.95a2.21,2.21,0,0,0-.14-.59,1.63,1.63,0,0,0-.3-.48,1.32,1.32,0,0,0-.45-.32,1.34,1.34,0,0,0-.58-.12,1.36,1.36,0,0,0-1,.42,1.84,1.84,0,0,0-.49,1.09Z" style="fill:#6731cf"/><path d="M241.19,230.18a2.19,2.19,0,0,1,1.14-.28,2,2,0,0,1,1.5.57,2.27,2.27,0,0,1,.54,1.63v3.67H243v-3.26a1.6,1.6,0,0,0-.3-1,1.12,1.12,0,0,0-.87-.35,1.18,1.18,0,0,0-.89.36,1.49,1.49,0,0,0-.35,1.06v3.24h-1.34V232.5a1.59,1.59,0,0,0-.3-1,1.12,1.12,0,0,0-.87-.35,1.14,1.14,0,0,0-.9.38,1.54,1.54,0,0,0-.34,1v3.23h-1.34V230h1.34v.88c.1-.13.2-.26.31-.38a2.33,2.33,0,0,1,.38-.31A1.78,1.78,0,0,1,238,230a2.23,2.23,0,0,1,.6-.08,1.86,1.86,0,0,1,1.06.28,1.84,1.84,0,0,1,.67.74A2.79,2.79,0,0,1,241.19,230.18Z" style="fill:#6731cf"/><path d="M247.56,234.44a1.6,1.6,0,0,0,1.1.38,2,2,0,0,0,.85-.17,2.78,2.78,0,0,0,.72-.52l.78.69a3,3,0,0,1-1,.78,2.93,2.93,0,0,1-1.38.3,3.08,3.08,0,0,1-1.17-.22,2.73,2.73,0,0,1-.94-.61,2.85,2.85,0,0,1-.64-.94,3.25,3.25,0,0,1-.23-1.23,3.19,3.19,0,0,1,.21-1.16,3,3,0,0,1,.59-1,2.74,2.74,0,0,1,2-.89,2.77,2.77,0,0,1,1.22.25,2.74,2.74,0,0,1,.87.67,3.12,3.12,0,0,1,.52,1,4.28,4.28,0,0,1,.17,1.19v.18s0,.12,0,.18H247A1.69,1.69,0,0,0,247.56,234.44Zm2.39-1.95a2.21,2.21,0,0,0-.14-.59,1.31,1.31,0,0,0-.3-.48,1.28,1.28,0,0,0-.44-.32,1.38,1.38,0,0,0-.59-.12,1.36,1.36,0,0,0-1,.42,1.84,1.84,0,0,0-.49,1.09Z" style="fill:#6731cf"/><path d="M223,351.25l-1.9-2.66h-1.7v2.66h-1.34v-7.63h3.43a4.09,4.09,0,0,1,1.2.17,2.59,2.59,0,0,1,.9.48,2.15,2.15,0,0,1,.57.76,2.84,2.84,0,0,1,.06,1.87,2.15,2.15,0,0,1-.38.66,2.29,2.29,0,0,1-.58.49,2.89,2.89,0,0,1-.74.31l2.08,2.89Zm-.44-6.1a1.93,1.93,0,0,0-1.18-.32h-2v2.57h2a1.75,1.75,0,0,0,1.16-.35,1.27,1.27,0,0,0,0-1.9Z" style="fill:#6731cf"/><path d="M227.37,349.92a1.64,1.64,0,0,0,1.09.38,1.91,1.91,0,0,0,.86-.18,2.52,2.52,0,0,0,.72-.51l.78.69a3,3,0,0,1-1,.78,2.93,2.93,0,0,1-1.38.3,3.24,3.24,0,0,1-1.17-.22,2.88,2.88,0,0,1-.94-.61,3,3,0,0,1-.64-.94,3.25,3.25,0,0,1-.23-1.23,3.19,3.19,0,0,1,.21-1.16,3,3,0,0,1,.59-1,2.78,2.78,0,0,1,.9-.64,2.64,2.64,0,0,1,1.14-.24,2.77,2.77,0,0,1,1.22.25,2.47,2.47,0,0,1,.86.67,3,3,0,0,1,.53,1,4.28,4.28,0,0,1,.17,1.19v.17c0,.06,0,.12,0,.19h-4.27A1.69,1.69,0,0,0,227.37,349.92Zm2.39-1.95a2.21,2.21,0,0,0-.14-.59,1.52,1.52,0,0,0-.74-.81,1.38,1.38,0,0,0-.59-.12,1.36,1.36,0,0,0-1,.42,1.9,1.9,0,0,0-.49,1.1Z" style="fill:#6731cf"/><path d="M236,351.25v-.71a2.53,2.53,0,0,1-.76.59,2.41,2.41,0,0,1-1.12.24,2.52,2.52,0,0,1-.79-.12,1.88,1.88,0,0,1-.66-.34,1.52,1.52,0,0,1-.45-.55,1.71,1.71,0,0,1-.17-.77v0a1.77,1.77,0,0,1,.18-.82,1.6,1.6,0,0,1,.49-.58,2.2,2.2,0,0,1,.74-.34,4,4,0,0,1,.94-.11,5.71,5.71,0,0,1,.9.06,5.27,5.27,0,0,1,.71.18v-.14a1.14,1.14,0,0,0-.37-.92,1.58,1.58,0,0,0-1.06-.31,3.91,3.91,0,0,0-.88.09,7.92,7.92,0,0,0-.78.26l-.36-1.05a5.82,5.82,0,0,1,1-.35,4.75,4.75,0,0,1,1.22-.13,2.57,2.57,0,0,1,1.92.64,2.43,2.43,0,0,1,.63,1.79v3.41Zm0-2.44a3.63,3.63,0,0,0-.6-.17,4.23,4.23,0,0,0-.73-.06,1.73,1.73,0,0,0-1,.24.79.79,0,0,0-.35.68v0a.73.73,0,0,0,.32.63,1.47,1.47,0,0,0,.8.22,2,2,0,0,0,.61-.09,1.51,1.51,0,0,0,.49-.25,1.1,1.1,0,0,0,.33-.38,1.14,1.14,0,0,0,.11-.49Z" style="fill:#6731cf"/><path d="M243,351.08a2.86,2.86,0,0,1-1.39.3,2.92,2.92,0,0,1-1.2-.24,2.89,2.89,0,0,1-1-.64,2.92,2.92,0,0,1-.63-.95,3,3,0,0,1-.23-1.16,3,3,0,0,1,.23-1.16,2.86,2.86,0,0,1,.63-1,2.91,2.91,0,0,1,1-.65,3,3,0,0,1,1.21-.24,3.1,3.1,0,0,1,1.37.27,3.19,3.19,0,0,1,.95.72l-.83.88a3.16,3.16,0,0,0-.65-.52,1.72,1.72,0,0,0-.85-.2,1.47,1.47,0,0,0-.67.15,1.52,1.52,0,0,0-.53.4,1.87,1.87,0,0,0-.35.58,2.08,2.08,0,0,0-.12.71,2.15,2.15,0,0,0,.12.73,2,2,0,0,0,.36.59,1.69,1.69,0,0,0,.55.4,1.78,1.78,0,0,0,.7.14,1.57,1.57,0,0,0,.83-.2,2.74,2.74,0,0,0,.68-.52l.8.79A3.52,3.52,0,0,1,243,351.08Z" style="fill:#6731cf"/><path d="M246.78,349.45a.69.69,0,0,0,.19.55.77.77,0,0,0,.53.17,1.84,1.84,0,0,0,.82-.2v1.08a2.55,2.55,0,0,1-.54.22,2.62,2.62,0,0,1-.66.07,2.37,2.37,0,0,1-.67-.08,1.41,1.41,0,0,1-.54-.29,1.23,1.23,0,0,1-.35-.52,2.29,2.29,0,0,1-.12-.8v-3h-.74V345.5h.74v-1.58h1.34v1.58h1.56v1.12h-1.56Z" style="fill:#6731cf"/><path d="M203.56,362.08a2.93,2.93,0,0,1-1.4.3,3,3,0,0,1-1.2-.24,2.89,2.89,0,0,1-1-.64,2.92,2.92,0,0,1-.63-.95,3,3,0,0,1-.23-1.16,3,3,0,0,1,.23-1.16,2.86,2.86,0,0,1,.63-1,2.91,2.91,0,0,1,1-.65,3.39,3.39,0,0,1,2.58,0,3.19,3.19,0,0,1,1,.72l-.82.88a3.5,3.5,0,0,0-.66-.52,1.7,1.7,0,0,0-.85-.2,1.5,1.5,0,0,0-.67.15,1.61,1.61,0,0,0-.53.4,1.87,1.87,0,0,0-.35.58,2.08,2.08,0,0,0-.12.71,2.15,2.15,0,0,0,.12.73,2,2,0,0,0,.36.59,1.69,1.69,0,0,0,.55.4,1.78,1.78,0,0,0,.7.14,1.63,1.63,0,0,0,.84-.2,2.89,2.89,0,0,0,.67-.52l.81.79A3.83,3.83,0,0,1,203.56,362.08Z" style="fill:#6731cf"/><path d="M211.22,360.54a3.15,3.15,0,0,1-.65.95,3.1,3.1,0,0,1-1,.65,3.3,3.3,0,0,1-2.47,0,2.93,2.93,0,0,1-1-.64,2.91,2.91,0,0,1-.88-2.11,2.92,2.92,0,0,1,.24-1.17,3.13,3.13,0,0,1,.65-1,3,3,0,0,1,1-.64,3.1,3.1,0,0,1,1.23-.24,3.1,3.1,0,0,1,2.22.87,3,3,0,0,1,.64,1,2.83,2.83,0,0,1,.23,1.16A3.05,3.05,0,0,1,211.22,360.54ZM210,358.67a1.9,1.9,0,0,0-.37-.59,1.69,1.69,0,0,0-.55-.4,1.8,1.8,0,0,0-1.44,0,1.81,1.81,0,0,0-.55.4,1.7,1.7,0,0,0-.35.58,2.08,2.08,0,0,0-.12.71,2.2,2.2,0,0,0,.13.73,1.9,1.9,0,0,0,.37.59,1.74,1.74,0,0,0,.56.4,1.78,1.78,0,0,0,.7.14,1.9,1.9,0,0,0,.73-.14,1.69,1.69,0,0,0,.55-.4,1.8,1.8,0,0,0,.35-.58,2.13,2.13,0,0,0,.12-.72A2,2,0,0,0,210,358.67Z" style="fill:#6731cf"/><path d="M218.48,356.66a2.13,2.13,0,0,1,1.13-.28,2,2,0,0,1,1.5.57,2.27,2.27,0,0,1,.54,1.63v3.67h-1.34V359a1.55,1.55,0,0,0-.31-1.05,1.09,1.09,0,0,0-.86-.35,1.15,1.15,0,0,0-.89.36,1.43,1.43,0,0,0-.35,1.06v3.24h-1.34V359a1.54,1.54,0,0,0-.31-1,1.09,1.09,0,0,0-.86-.35,1.11,1.11,0,0,0-.9.38,1.49,1.49,0,0,0-.34,1v3.23h-1.34V356.5h1.34v.88a3.68,3.68,0,0,1,.31-.38,2.47,2.47,0,0,1,.38-.32,1.76,1.76,0,0,1,.48-.22,2.19,2.19,0,0,1,1.66.2,1.75,1.75,0,0,1,.66.74A2.8,2.8,0,0,1,218.48,356.66Z" style="fill:#6731cf"/><path d="M229,360.65a2.78,2.78,0,0,1-.61.94,2.55,2.55,0,0,1-.87.58,2.66,2.66,0,0,1-1,.2,2.17,2.17,0,0,1-1.19-.31,2.82,2.82,0,0,1-.78-.71V364h-1.34V356.5h1.34v.95a2.73,2.73,0,0,1,.79-.76,2,2,0,0,1,1.17-.31,2.62,2.62,0,0,1,1,.19,2.5,2.5,0,0,1,.86.59,2.68,2.68,0,0,1,.61.94,3.16,3.16,0,0,1,.23,1.27A3.4,3.4,0,0,1,229,360.65Zm-1.25-2a1.89,1.89,0,0,0-.36-.58,1.6,1.6,0,0,0-1.17-.5,1.61,1.61,0,0,0-.65.13,1.66,1.66,0,0,0-.54.38,1.8,1.8,0,0,0-.37.58,2.29,2.29,0,0,0,0,1.52,2,2,0,0,0,.37.59,1.79,1.79,0,0,0,.54.37,1.61,1.61,0,0,0,.65.13,1.6,1.6,0,0,0,1.17-.5,1.78,1.78,0,0,0,.36-.58,2.35,2.35,0,0,0,0-1.54Z" style="fill:#6731cf"/><path d="M236.26,360.54a3,3,0,0,1-.64.95,3.16,3.16,0,0,1-2.23.89,3.14,3.14,0,0,1-1.23-.24,2.92,2.92,0,0,1-1.62-1.59,2.8,2.8,0,0,1-.23-1.16,3.09,3.09,0,0,1,.23-1.17,3.32,3.32,0,0,1,.65-1,3.21,3.21,0,0,1,4.44,0,3,3,0,0,1,.87,2.12A2.88,2.88,0,0,1,236.26,360.54ZM235,358.67a1.9,1.9,0,0,0-.37-.59,1.74,1.74,0,0,0-.56-.4,1.64,1.64,0,0,0-.71-.15,1.72,1.72,0,0,0-.72.15,1.71,1.71,0,0,0-.9,1,2.08,2.08,0,0,0-.12.71,2,2,0,0,0,.13.73,1.9,1.9,0,0,0,.37.59,1.63,1.63,0,0,0,.56.4,1.78,1.78,0,0,0,.7.14,1.9,1.9,0,0,0,.73-.14,1.69,1.69,0,0,0,.55-.4,1.8,1.8,0,0,0,.35-.58,2.13,2.13,0,0,0,.12-.72A2,2,0,0,0,235,358.67Z" style="fill:#6731cf"/><path d="M239.2,362.25h-1.35V356.5h1.35v.9a2.31,2.31,0,0,1,.31-.39,2.12,2.12,0,0,1,.39-.33,2.05,2.05,0,0,1,.5-.22,1.92,1.92,0,0,1,.61-.08,1.94,1.94,0,0,1,1.52.6,2.31,2.31,0,0,1,.54,1.61v3.66h-1.34V359a1.49,1.49,0,0,0-.33-1,1.14,1.14,0,0,0-.91-.36,1.23,1.23,0,0,0-.93.37,1.45,1.45,0,0,0-.36,1.05Z" style="fill:#6731cf"/><path d="M246.26,360.92a1.65,1.65,0,0,0,1.1.38,1.94,1.94,0,0,0,.86-.18,2.48,2.48,0,0,0,.71-.51l.78.69a3.11,3.11,0,0,1-1,.78,3,3,0,0,1-1.38.3,3.3,3.3,0,0,1-1.18-.22,3,3,0,0,1-.94-.61,2.78,2.78,0,0,1-.63-.94,3.07,3.07,0,0,1-.24-1.23,3.19,3.19,0,0,1,.21-1.16,3,3,0,0,1,.59-1,2.89,2.89,0,0,1,.9-.64,2.64,2.64,0,0,1,1.14-.24,2.74,2.74,0,0,1,1.22.25,2.42,2.42,0,0,1,.87.67,3.12,3.12,0,0,1,.52,1,3.94,3.94,0,0,1,.18,1.19c0,.06,0,.12,0,.17a1.37,1.37,0,0,1,0,.19h-4.26A1.72,1.72,0,0,0,246.26,360.92Zm2.4-1.95a2.22,2.22,0,0,0-.15-.59,1.43,1.43,0,0,0-.29-.48,1.45,1.45,0,0,0-.45-.33,1.38,1.38,0,0,0-.59-.12,1.36,1.36,0,0,0-1,.42,2,2,0,0,0-.49,1.1Z" style="fill:#6731cf"/><path d="M252.66,362.25h-1.34V356.5h1.34v.9A3,3,0,0,1,253,357a2.2,2.2,0,0,1,.4-.33,2,2,0,0,1,.49-.22A2.26,2.26,0,0,1,256,357a2.31,2.31,0,0,1,.54,1.61v3.66h-1.34V359a1.54,1.54,0,0,0-.32-1,1.17,1.17,0,0,0-.91-.36,1.24,1.24,0,0,0-.94.37,1.45,1.45,0,0,0-.36,1.05Z" style="fill:#6731cf"/><path d="M259.75,360.45a.73.73,0,0,0,.19.55.78.78,0,0,0,.53.17,1.81,1.81,0,0,0,.82-.2v1.08a2.27,2.27,0,0,1-.53.22,2.67,2.67,0,0,1-.66.07,2.44,2.44,0,0,1-.68-.08,1.48,1.48,0,0,1-.54-.29,1.21,1.21,0,0,1-.34-.52,2.06,2.06,0,0,1-.13-.8v-3h-.73V356.5h.73v-1.58h1.34v1.58h1.57v1.12h-1.57Z" style="fill:#6731cf"/><path d="M266.63,361.34a1.48,1.48,0,0,1-.46.56,2.07,2.07,0,0,1-.68.34,3,3,0,0,1-.85.12,4.09,4.09,0,0,1-1.27-.22,4.34,4.34,0,0,1-1.2-.64l.6-.9a3.8,3.8,0,0,0,1,.53,2.74,2.74,0,0,0,.94.18,1.16,1.16,0,0,0,.67-.17.51.51,0,0,0,.23-.45v0a.43.43,0,0,0-.1-.29.94.94,0,0,0-.29-.21,2.85,2.85,0,0,0-.42-.16l-.48-.15c-.22-.06-.43-.14-.65-.22a2.3,2.3,0,0,1-.58-.31,1.54,1.54,0,0,1-.42-.46,1.37,1.37,0,0,1-.17-.7v0a1.6,1.6,0,0,1,.16-.73,1.58,1.58,0,0,1,.44-.55,1.9,1.9,0,0,1,.66-.35,2.64,2.64,0,0,1,.81-.12,3.89,3.89,0,0,1,1.11.17,4.34,4.34,0,0,1,1,.48l-.53.94a4.29,4.29,0,0,0-.84-.4,2.43,2.43,0,0,0-.79-.15,1,1,0,0,0-.6.17.48.48,0,0,0-.22.41v0a.4.4,0,0,0,.11.27.94.94,0,0,0,.29.21,2.81,2.81,0,0,0,.42.17l.49.16a5.47,5.47,0,0,1,.64.23,2.52,2.52,0,0,1,.58.32,1.67,1.67,0,0,1,.42.46,1.26,1.26,0,0,1,.16.67v0A1.77,1.77,0,0,1,266.63,361.34Z" style="fill:#6731cf"/><path d="M164.83,288.81A12,12,0,0,0,145,301l-13.5,13.5a1.06,1.06,0,0,0-.32.77v6.16a1.09,1.09,0,0,0,1.09,1.09h6.16a1.06,1.06,0,0,0,.77-.32l1.54-1.54a1.09,1.09,0,0,0,.32-.9l-.2-1.65,2.3-.22a1.09,1.09,0,0,0,1-1l.22-2.29,1.65.19a1.06,1.06,0,0,0,.85-.27,1.1,1.1,0,0,0,.37-.81v-2h2a1.12,1.12,0,0,0,.77-.32l2.79-2.76a11.81,11.81,0,0,0,12.08-2.83A12,12,0,0,0,164.83,288.81Zm-3.08,7.7a3.27,3.27,0,1,1,0-4.62A3.28,3.28,0,0,1,161.75,296.51Z" style="fill:#dbcfe9"/><path d="M163.66,287.07a12,12,0,0,0-19.87,12.17l-13.5,13.5a1.1,1.1,0,0,0-.32.77v6.16a1.09,1.09,0,0,0,1.09,1.09h6.17a1.14,1.14,0,0,0,.77-.32l1.54-1.54a1.11,1.11,0,0,0,.31-.9l-.19-1.65,2.29-.22a1.09,1.09,0,0,0,1-1l.22-2.3,1.65.2a1.06,1.06,0,0,0,.85-.27A1.07,1.07,0,0,0,146,312v-2h2a1.1,1.1,0,0,0,.77-.32l2.8-2.76A11.8,11.8,0,0,0,163.66,304,12,12,0,0,0,163.66,287.07Zm-3.09,7.71a3.27,3.27,0,1,1,0-4.62A3.28,3.28,0,0,1,160.57,294.78Z" style="fill:#ffc300"/><path d="M161.58,295.82a3.28,3.28,0,0,0,0-4.62,2.93,2.93,0,0,0-.56-.44,3.26,3.26,0,0,1-4.51,4.5,3.45,3.45,0,0,0,.45.56A3.26,3.26,0,0,0,161.58,295.82Z" style="fill:#ffd344"/><path d="M131,320.71v-6.16a1.06,1.06,0,0,1,.32-.77l13.49-13.5a12,12,0,0,1,19.35-12.65c-.15-.17-.31-.35-.48-.52a12,12,0,0,0-19.87,12.17l-13.5,13.49a1.14,1.14,0,0,0-.32.78v6.16a1.09,1.09,0,0,0,1,1.08Z" style="fill:#ffd344"/><path d="M161.67,181.23a3.13,3.13,0,0,1-2.33-1,.12.12,0,0,0-.17,0l-6.3,3.65-.69.39c-.06,0-.08.07-.06.14a2.68,2.68,0,0,1,.13,1.09,3,3,0,0,1-1.16,2.23,2.92,2.92,0,0,1-1.61.67,3.11,3.11,0,0,1-3-1.52,3,3,0,0,1-.42-1.76,4.09,4.09,0,0,1,.1-.61.12.12,0,0,0-.06-.14l-4-2.33-3-1.71c-.12-.07-.12-.07-.22,0a3.11,3.11,0,1,1-3.15-5.18l.17-.05c.08,0,.1,0,.1-.13v-8.09a.15.15,0,0,0-.12-.17,3,3,0,0,1-2.23-2.5,3.06,3.06,0,0,1,2.43-3.52,3,3,0,0,1,2.82.83.11.11,0,0,0,.16,0l7-4c.14-.08.14-.08.1-.25A3.1,3.1,0,1,1,152.2,156a3.06,3.06,0,0,1,0,1.41.12.12,0,0,0,.07.16l6.29,3.63.74.43c.07,0,.1,0,.16,0a2.94,2.94,0,0,1,1.76-.88,3.07,3.07,0,0,1,2.32.61,2.93,2.93,0,0,1,1.17,2,3,3,0,0,1-1.36,3.09,2.73,2.73,0,0,1-.87.39c-.1,0-.12.07-.12.16V175c0,.08,0,.12.11.14a3,3,0,0,1,2.22,2.42,3.08,3.08,0,0,1-2.41,3.61C162,181.2,161.8,181.21,161.67,181.23Zm-12.51-3.83h9.3c.08,0,.12,0,.14-.11a3.14,3.14,0,0,1,.79-1.35.11.11,0,0,0,0-.16c-.39-.67-.78-1.34-1.16-2q-1.81-3.14-3.62-6.27l-4.53-7.84a.14.14,0,0,0-.19-.09,3,3,0,0,1-1.5,0c-.13,0-.13,0-.2.09l-4.92,8.53q-2.21,3.8-4.39,7.59c0,.06,0,.1,0,.16a3,3,0,0,1,.77,1.33.14.14,0,0,0,.16.12Zm0,1.46h-9.32c-.06,0-.1,0-.13.07s0,.09.07.12l1.65.95,5.36,3.09c.12.07.12.07.22,0a3.07,3.07,0,0,1,2.61-.83,2.93,2.93,0,0,1,1.76.91.12.12,0,0,0,.18,0l5.69-3.29,1.3-.75s.07,0,.08-.07a.17.17,0,0,0-.18-.2Zm-11.71-7.92V175c0,.06,0,.1.07.12s.1,0,.12-.07q2.15-3.69,4.27-7.4l2.88-5c.72-1.26,1.45-2.52,2.18-3.78,0,0,.06-.09,0-.14s-.09,0-.14,0l-3,1.74-4,2.33a.11.11,0,0,0-.07.14,2.68,2.68,0,0,1,0,1.32,3,3,0,0,1-2.16,2.42c-.17.06-.15,0-.15.21Zm23.41,0v-4c0-.21,0-.16-.16-.22a3.1,3.1,0,0,1-2.12-3.69c0-.14,0-.14-.08-.21l-5.71-3.3-1.32-.76a.1.1,0,0,0-.14,0c-.05.06,0,.09,0,.13l1.56,2.7,3.39,5.88q1.53,2.67,3.08,5.32l1.29,2.25c0,.07.08.09.14.06s.05-.08.05-.13Z" style="fill:#dbcfe9;fill-rule:evenodd"/><path d="M149.15,191.27a20.34,20.34,0,1,1,20.34-20.33A20.35,20.35,0,0,1,149.15,191.27Zm0-38.88a18.55,18.55,0,1,0,18.55,18.55A18.57,18.57,0,0,0,149.15,152.39Z" style="fill:#dbcfe9"/><path d="M161,180.59a3.16,3.16,0,0,1-2.34-1c-.06-.06-.09-.06-.16,0l-6.31,3.64-.69.39a.1.1,0,0,0,0,.14,3.09,3.09,0,0,1-1,3.33,3,3,0,0,1-1.61.66,3.11,3.11,0,0,1-3.42-3.28c0-.2.06-.4.1-.6s0-.11-.06-.15l-4-2.32-3-1.71c-.13-.08-.13-.08-.23,0a3.1,3.1,0,1,1-3.15-5.17.55.55,0,0,1,.17-.05c.09,0,.1-.06.1-.14v-8.09c0-.1,0-.14-.12-.17a3,3,0,0,1-2.23-2.5,3.07,3.07,0,0,1,2.43-3.52,3,3,0,0,1,2.82.84.12.12,0,0,0,.17,0l7-4c.14-.08.14-.08.1-.26a3.1,3.1,0,1,1,6.06-1.34,3.05,3.05,0,0,1,0,1.41c0,.08,0,.12.06.17l6.29,3.62.75.43a.1.1,0,0,0,.15,0,3,3,0,0,1,1.76-.89,3.06,3.06,0,0,1,2.32.61,2.94,2.94,0,0,1,1.18,2,3.06,3.06,0,0,1-1.36,3.09,2.92,2.92,0,0,1-.88.4c-.09,0-.12.06-.12.16,0,1.69,0,3.39,0,5.09,0,1,0,2,0,3a.14.14,0,0,0,.11.15,3,3,0,0,1,2.23,2.41,3.09,3.09,0,0,1-2.42,3.61A3.57,3.57,0,0,1,161,180.59Zm-12.52-3.83h9.31c.08,0,.11,0,.14-.1a3.05,3.05,0,0,1,.78-1.36c.06-.05.06-.09,0-.16l-1.16-2C156.4,171,155.2,169,154,166.87L149.46,159a.13.13,0,0,0-.18-.08,3.17,3.17,0,0,1-1.5,0c-.14,0-.14,0-.21.08l-4.92,8.53q-2.19,3.8-4.39,7.59a.12.12,0,0,0,0,.16,3,3,0,0,1,.78,1.33.13.13,0,0,0,.15.12Zm0,1.46H139.2s-.1,0-.12.07,0,.09.07.12l1.64,1,5.37,3.1c.12.07.11.07.21,0a3.08,3.08,0,0,1,2.61-.83,3,3,0,0,1,1.76.91.13.13,0,0,0,.18,0l5.7-3.29,1.29-.75a.2.2,0,0,0,.08-.08.17.17,0,0,0-.17-.2Zm-11.71-7.92v4.07c0,.06,0,.1.07.12s.1,0,.13-.06q2.13-3.7,4.27-7.4l2.87-5c.73-1.26,1.46-2.52,2.18-3.78,0,0,.06-.08,0-.14a.1.1,0,0,0-.14,0l-3,1.74-4,2.33c-.06,0-.08.07-.06.14a3,3,0,0,1,0,1.32,3,3,0,0,1-2.17,2.43c-.16,0-.15,0-.15.21Zm23.42,0v-4c0-.2,0-.16-.16-.21A3.1,3.1,0,0,1,158,162.4c0-.15,0-.15-.09-.22-1.91-1.1-3.81-2.19-5.71-3.3l-1.32-.75c-.05,0-.09,0-.13,0s0,.1,0,.14l1.56,2.69,3.39,5.88,3.08,5.33c.43.75.86,1.5,1.3,2.25a.09.09,0,0,0,.14,0c.06,0,0-.08,0-.12Z" style="fill:#db34a7;fill-rule:evenodd"/><path d="M148.52,190.63a20.33,20.33,0,1,1,20.33-20.33A20.35,20.35,0,0,1,148.52,190.63Zm0-38.88a18.55,18.55,0,1,0,18.55,18.55A18.57,18.57,0,0,0,148.52,151.75Z" style="fill:#db34a7"/><path d="M177.48,170.3a29,29,0,1,1-29-29A29,29,0,0,1,177.48,170.3Z" style="fill:none;stroke:#d6c7f2;stroke-linecap:round;stroke-miterlimit:10;stroke-dasharray:2,3"/><path d="M177.48,303.9a29,29,0,1,1-29-29A29,29,0,0,1,177.48,303.9Z" style="fill:none;stroke:#d6c7f2;stroke-linecap:round;stroke-miterlimit:10;stroke-dasharray:2,3"/><path d="M261.93,303.9a29,29,0,1,1-29-29A29,29,0,0,1,261.93,303.9Z" style="fill:none;stroke:#d6c7f2;stroke-linecap:round;stroke-miterlimit:10;stroke-dasharray:2,3"/><path d="M261.93,170.3a29,29,0,1,1-29-29A29,29,0,0,1,261.93,170.3Z" style="fill:none;stroke:#d6c7f2;stroke-linecap:round;stroke-miterlimit:10;stroke-dasharray:2,3"/><path d="M242.7,286.71l.31.06a3.48,3.48,0,0,1,2.47,1.77,6.91,6.91,0,0,1,.81,2.31,13.84,13.84,0,0,1,.15,3.34,22.32,22.32,0,0,1-.58,3.72s0,.09,0,.17l.22.07a21.06,21.06,0,0,1,4.24,1.72,11.24,11.24,0,0,1,2.6,1.89,5.79,5.79,0,0,1,1,1.27,3.48,3.48,0,0,1,0,3.63,6.76,6.76,0,0,1-1.54,1.83,14.43,14.43,0,0,1-3.45,2.12,22.63,22.63,0,0,1-2.78,1l-.22.07c.05.21.1.42.14.63a19.38,19.38,0,0,1,.49,4.42,10.51,10.51,0,0,1-.47,3.2,5.27,5.27,0,0,1-1,1.9,3.43,3.43,0,0,1-2.11,1.14l-.4.08H242l-.18,0c-.25,0-.49-.06-.73-.11a9.76,9.76,0,0,1-2.62-1,19.21,19.21,0,0,1-3.94-2.87l-.48-.45a1,1,0,0,0-.15.14,21.49,21.49,0,0,1-2.94,2.35,12.4,12.4,0,0,1-3.42,1.64,5.84,5.84,0,0,1-2.49.26,3.5,3.5,0,0,1-2.32-1.31,5.58,5.58,0,0,1-1-2.14,12.74,12.74,0,0,1-.25-4.13,21.89,21.89,0,0,1,.58-3.41,1.52,1.52,0,0,0,0-.21l-.18-.06a20.08,20.08,0,0,1-2.36-.84,15.14,15.14,0,0,1-3.52-2,7.58,7.58,0,0,1-1.87-2,3.61,3.61,0,0,1,0-4.1,6.72,6.72,0,0,1,1.09-1.29,12.39,12.39,0,0,1,2.9-1.95,22.94,22.94,0,0,1,3.8-1.46.76.76,0,0,0,.16-.06c0-.05,0-.08,0-.12a22.85,22.85,0,0,1-.61-3.67,13.32,13.32,0,0,1,.15-3.62,6.55,6.55,0,0,1,.77-2.1,3.46,3.46,0,0,1,2.17-1.66,5.22,5.22,0,0,1,2.36,0,10.65,10.65,0,0,1,2.8,1.12,20.14,20.14,0,0,1,4.1,3.07l.15.12.74-.69a19,19,0,0,1,3.93-2.78,9.32,9.32,0,0,1,2.8-1l.36-.06ZM234,311.5l3.48-.15a.33.33,0,0,0,.31-.18,59.47,59.47,0,0,0,3.51-6.1.38.38,0,0,0,0-.4c-.34-.65-.67-1.3-1-1.94q-1.16-2.1-2.48-4.1a.38.38,0,0,0-.33-.2l-1.58-.08a47.9,47.9,0,0,0-5.49.08.33.33,0,0,0-.29.17,49.68,49.68,0,0,0-3.53,6.13.34.34,0,0,0,0,.34,51.14,51.14,0,0,0,3.55,6.13.32.32,0,0,0,.28.16Zm-11.43-11.74h-.06l-.41.13a18.24,18.24,0,0,0-3.77,1.55,9.51,9.51,0,0,0-2.12,1.56,3.85,3.85,0,0,0-.82,1.18,1.7,1.7,0,0,0,0,1.31,3.45,3.45,0,0,0,.6,1,7.48,7.48,0,0,0,1.78,1.54,17,17,0,0,0,4.54,2l.25.07a1.77,1.77,0,0,0,.06-.17,41.35,41.35,0,0,1,1.86-4.82.5.5,0,0,0,0-.46,40,40,0,0,1-1.84-4.74A.85.85,0,0,0,222.61,299.76Zm10.21,17.61-1-1.17c-.83-1-1.62-2-2.36-3a.34.34,0,0,0-.28-.16l-1.48-.15a33.11,33.11,0,0,1-3.29-.52l-.55-.1c0,.07,0,.11,0,.16a20.61,20.61,0,0,0-.58,3.83,10.33,10.33,0,0,0,.24,2.88,4,4,0,0,0,.61,1.42,1.78,1.78,0,0,0,1.25.74,3.7,3.7,0,0,0,1.05,0,7.35,7.35,0,0,0,2-.64,16.41,16.41,0,0,0,3.79-2.59C232.36,317.81,232.58,317.59,232.82,317.37Zm11.39-5.21-.54.12a41.29,41.29,0,0,1-4.7.7.53.53,0,0,0-.44.25,40,40,0,0,1-3.13,4l-.12.15.11.12a19.85,19.85,0,0,0,2.1,1.77,12.86,12.86,0,0,0,2.86,1.64,5.27,5.27,0,0,0,2,.42,1.83,1.83,0,0,0,1.58-.86,4.09,4.09,0,0,0,.5-1.08,9.53,9.53,0,0,0,.37-2.71,18.17,18.17,0,0,0-.53-4.28C244.25,312.31,244.23,312.25,244.21,312.16Zm-11.43-19.72a1.32,1.32,0,0,1-.16-.12,22,22,0,0,0-2.37-1.94,12.36,12.36,0,0,0-3-1.57,5.23,5.23,0,0,0-1.71-.32,1.77,1.77,0,0,0-1.7,1,4.79,4.79,0,0,0-.36.88,8.22,8.22,0,0,0-.32,2.56,18.79,18.79,0,0,0,.51,4.16l.12.5c.81-.14,1.58-.31,2.37-.43.94-.14,1.9-.25,2.85-.37a.48.48,0,0,0,.37-.21,42,42,0,0,1,2.62-3.32Zm11.35,5.2c0-.12.05-.21.07-.31a19.69,19.69,0,0,0,.51-3.57,10.54,10.54,0,0,0-.24-3.07,4.18,4.18,0,0,0-.68-1.54,1.63,1.63,0,0,0-1-.65,3.31,3.31,0,0,0-1.33.05,8.54,8.54,0,0,0-2.23.87,18.92,18.92,0,0,0-3.92,3,.27.27,0,0,0-.07.08l.09.11c.57.66,1.14,1.3,1.68,2s1.05,1.38,1.57,2.07a.36.36,0,0,0,.29.17l.76.08c1.26.14,2.51.34,3.76.6ZM245.44,310l.12,0a19.77,19.77,0,0,0,4.05-1.71,9.37,9.37,0,0,0,2.1-1.59,3.63,3.63,0,0,0,.79-1.15,1.69,1.69,0,0,0,0-1.41,3.58,3.58,0,0,0-.67-1,8.59,8.59,0,0,0-1.86-1.48,18.74,18.74,0,0,0-4.09-1.77l-.51-.15-.06.15a39.59,39.59,0,0,1-1.85,4.75.4.4,0,0,0,0,.37,39.1,39.1,0,0,1,1.93,4.8Zm-5.47,1.1a36.65,36.65,0,0,0,3.77-.65,35,35,0,0,0-1.36-3.54C241.58,308.32,240.79,309.71,240,311.12ZM225.61,307a36.19,36.19,0,0,0-1.32,3.59,23.86,23.86,0,0,0,3.73.58C227.15,309.77,226.36,308.4,225.61,307Zm10.81,6.24H231.6a37.72,37.72,0,0,0,2.44,2.92A37.38,37.38,0,0,0,236.42,313.19Zm-4.85-16.57c1.63-.07,3.21-.07,4.83,0-.78-1-1.56-2-2.41-2.9C233.13,294.64,232.35,295.59,231.57,296.62Zm10.8,6.18a36.16,36.16,0,0,0,1.29-3.47,36.38,36.38,0,0,0-3.68-.65Zm-18.06-3.49c.37,1.2.8,2.36,1.29,3.53.75-1.44,1.53-2.8,2.4-4.17C226.74,298.83,225.54,299,224.31,299.31Z" style="fill:#dbcfe9;fill-rule:evenodd"/><path d="M234,301.21a3.65,3.65,0,1,1-3.66,3.63A3.64,3.64,0,0,1,234,301.21Z" style="fill:#dbcfe9;fill-rule:evenodd"/><path d="M241.7,285.71l.31.06a3.47,3.47,0,0,1,2.46,1.76,6.84,6.84,0,0,1,.82,2.32,13.84,13.84,0,0,1,.15,3.34,23.4,23.4,0,0,1-.58,3.72,1.39,1.39,0,0,0,0,.17l.22.07a21.06,21.06,0,0,1,4.24,1.72,11.45,11.45,0,0,1,2.6,1.89,6.11,6.11,0,0,1,1,1.27,3.48,3.48,0,0,1,0,3.63,6.57,6.57,0,0,1-1.54,1.82,14.16,14.16,0,0,1-3.45,2.13,25.11,25.11,0,0,1-2.78,1l-.22.07c.05.21.1.42.14.63a19.32,19.32,0,0,1,.49,4.42,10.51,10.51,0,0,1-.47,3.2,5.27,5.27,0,0,1-1,1.9,3.37,3.37,0,0,1-2.11,1.13l-.4.08H241l-.18,0-.73-.11a9.76,9.76,0,0,1-2.62-1,19.26,19.26,0,0,1-3.94-2.88l-.48-.44-.16.13a20.74,20.74,0,0,1-2.93,2.36,12.4,12.4,0,0,1-3.42,1.64,5.68,5.68,0,0,1-2.49.25,3.44,3.44,0,0,1-2.32-1.3,5.58,5.58,0,0,1-1-2.14,12.74,12.74,0,0,1-.25-4.13,21.89,21.89,0,0,1,.58-3.41l0-.21-.18-.06a19.46,19.46,0,0,1-2.36-.84,15.41,15.41,0,0,1-3.53-2,7.87,7.87,0,0,1-1.86-2,3.61,3.61,0,0,1,0-4.1,6.72,6.72,0,0,1,1.09-1.29,12.55,12.55,0,0,1,2.89-1.95A22.52,22.52,0,0,1,221,297.1l.16-.06c0-.05,0-.09,0-.12a22.85,22.85,0,0,1-.61-3.67,13.32,13.32,0,0,1,.15-3.62,6.55,6.55,0,0,1,.77-2.1,3.46,3.46,0,0,1,2.17-1.66,5.09,5.09,0,0,1,2.36,0,10.32,10.32,0,0,1,2.8,1.12,20.47,20.47,0,0,1,4.1,3.06l.14.13.75-.69a18.64,18.64,0,0,1,3.93-2.78,9,9,0,0,1,2.8-1l.36-.06ZM233,310.5l3.47-.15a.33.33,0,0,0,.32-.18,58.57,58.57,0,0,0,3.51-6.11.37.37,0,0,0,0-.39c-.34-.65-.67-1.3-1-1.94q-1.16-2.1-2.48-4.11a.4.4,0,0,0-.33-.19l-1.58-.08a47.9,47.9,0,0,0-5.49.08.33.33,0,0,0-.29.17,49.68,49.68,0,0,0-3.53,6.13.34.34,0,0,0,0,.34,51.14,51.14,0,0,0,3.55,6.13.31.31,0,0,0,.28.16Zm-11.43-11.74h-.06l-.41.12a18.84,18.84,0,0,0-3.77,1.56,9.51,9.51,0,0,0-2.12,1.56,3.85,3.85,0,0,0-.82,1.18,1.7,1.7,0,0,0,0,1.31,3.45,3.45,0,0,0,.6,1,7.43,7.43,0,0,0,1.77,1.54,17.32,17.32,0,0,0,4.54,2l.26.07c0-.07,0-.12.06-.17a41.35,41.35,0,0,1,1.86-4.82.47.47,0,0,0,0-.46,40.67,40.67,0,0,1-1.83-4.74Zm10.21,17.61c-.36-.41-.71-.78-1-1.17-.83-1-1.62-2-2.36-3a.34.34,0,0,0-.28-.16l-1.48-.15c-1.11-.13-2.2-.29-3.29-.52l-.55-.1c0,.07,0,.11,0,.16a19.82,19.82,0,0,0-.58,3.82,10.37,10.37,0,0,0,.24,2.89,4,4,0,0,0,.61,1.42,1.78,1.78,0,0,0,1.24.74,3.76,3.76,0,0,0,1.06,0,7.84,7.84,0,0,0,2-.64,16.41,16.41,0,0,0,3.79-2.59C231.36,316.81,231.58,316.59,231.82,316.37Zm11.39-5.21-.54.12a41.29,41.29,0,0,1-4.7.7.52.52,0,0,0-.44.25,40,40,0,0,1-3.13,4l-.13.15a1.36,1.36,0,0,1,.12.12,20.79,20.79,0,0,0,2.09,1.77,13.16,13.16,0,0,0,2.87,1.64,5.27,5.27,0,0,0,2,.42,1.83,1.83,0,0,0,1.58-.86,4.25,4.25,0,0,0,.5-1.08,9.53,9.53,0,0,0,.37-2.71,18.17,18.17,0,0,0-.53-4.28Zm-11.43-19.72a1.32,1.32,0,0,1-.16-.12,22,22,0,0,0-2.37-1.94,12.36,12.36,0,0,0-3-1.57,5.23,5.23,0,0,0-1.71-.32,1.77,1.77,0,0,0-1.7,1,4.79,4.79,0,0,0-.36.88,8.49,8.49,0,0,0-.33,2.56,19.41,19.41,0,0,0,.52,4.16l.12.5c.81-.15,1.58-.31,2.37-.43.94-.14,1.89-.25,2.85-.37a.48.48,0,0,0,.37-.21,39.79,39.79,0,0,1,2.62-3.32Zm11.35,5.19c0-.11.05-.2.07-.3a19.69,19.69,0,0,0,.51-3.57,10.54,10.54,0,0,0-.24-3.07,4.18,4.18,0,0,0-.68-1.54,1.63,1.63,0,0,0-1-.65,3.31,3.31,0,0,0-1.33.05,8.08,8.08,0,0,0-2.23.87,18.57,18.57,0,0,0-3.92,3,.27.27,0,0,0-.07.08l.09.11c.57.66,1.14,1.3,1.68,2s1.05,1.38,1.56,2.07a.39.39,0,0,0,.3.17l.76.08q1.89.21,3.75.6ZM244.44,309l.11,0a19.85,19.85,0,0,0,4.06-1.71,9.6,9.6,0,0,0,2.1-1.59,3.93,3.93,0,0,0,.79-1.15,1.69,1.69,0,0,0,0-1.41,4.06,4.06,0,0,0-.67-1,8.86,8.86,0,0,0-1.86-1.47,18.65,18.65,0,0,0-4.1-1.78l-.5-.14-.06.15a39.59,39.59,0,0,1-1.85,4.75.4.4,0,0,0,0,.37,41.31,41.31,0,0,1,1.93,4.79C244.39,308.89,244.41,309,244.44,309Zm-5.47,1.1a36.65,36.65,0,0,0,3.77-.65,35,35,0,0,0-1.36-3.54C240.58,307.32,239.79,308.71,239,310.12ZM224.61,306a36.19,36.19,0,0,0-1.32,3.59,23.68,23.68,0,0,0,3.73.58C226.15,308.77,225.36,307.4,224.61,306Zm10.81,6.24H230.6a37.72,37.72,0,0,0,2.44,2.92C233.89,314.17,234.66,313.21,235.42,312.19Zm-4.85-16.57c1.62-.07,3.2-.07,4.83,0-.78-1-1.56-2-2.41-2.9A35.89,35.89,0,0,0,230.57,295.62Zm10.8,6.18a36.16,36.16,0,0,0,1.29-3.47,36.38,36.38,0,0,0-3.68-.65Zm-18.06-3.49c.37,1.2.8,2.36,1.29,3.53.75-1.44,1.53-2.8,2.4-4.17C225.74,297.83,224.54,298,223.31,298.31Z" style="fill:#00d8ff;fill-rule:evenodd"/><path d="M233,300.21a3.65,3.65,0,1,1-3.66,3.63A3.64,3.64,0,0,1,233,300.21Z" style="fill:#00d8ff;fill-rule:evenodd"/><path d="M253.7,163.85v-5.28a.79.79,0,0,0-.79-.79H214.55a.79.79,0,0,0-.79.79v5.28Z" style="fill:#dbcfe9;fill-rule:evenodd"/><path d="M213.76,163.85v20a.79.79,0,0,0,.79.79h38.36a.79.79,0,0,0,.79-.79v-20Z" style="fill:#dbcfe9;fill-rule:evenodd"/><path d="M252.94,162.92v-5.28a.79.79,0,0,0-.79-.79H213.79a.79.79,0,0,0-.79.79v5.28Z" style="fill:#6731cf;fill-rule:evenodd"/><path d="M213,162.92v20a.79.79,0,0,0,.79.79h38.36a.79.79,0,0,0,.79-.79v-20Z" style="fill:#fff;fill-rule:evenodd"/><path d="M217.59,159.85a.8.8,0,0,1-.8.8.8.8,0,1,1,.8-.8Z" style="fill:#fff;fill-rule:evenodd"/><path d="M220.59,159.85a.79.79,0,0,1-.79.8.8.8,0,1,1,0-1.59A.79.79,0,0,1,220.59,159.85Z" style="fill:#fff;fill-rule:evenodd"/><path d="M223.6,159.85a.8.8,0,0,1-.8.8.8.8,0,1,1,.8-.8Z" style="fill:#fff;fill-rule:evenodd"/><rect x="216" y="164.58" width="16.97" height="10.65" style="fill:#efecea"/><rect x="237.45" y="175.65" width="12.03" height="5.24" style="fill:#efecea"/><line x1="216" y1="177.51" x2="232.97" y2="177.51" style="fill:none;stroke:#efecea;stroke-miterlimit:10"/><line x1="216" y1="180.05" x2="232.97" y2="180.05" style="fill:none;stroke:#efecea;stroke-miterlimit:10"/><line x1="237.22" y1="165.51" x2="249.65" y2="165.51" style="fill:none;stroke:#efecea;stroke-miterlimit:10"/><line x1="237.22" y1="168.05" x2="249.65" y2="168.05" style="fill:none;stroke:#efecea;stroke-miterlimit:10"/><line x1="237.22" y1="170.58" x2="249.65" y2="170.58" style="fill:none;stroke:#efecea;stroke-miterlimit:10"/><line x1="237.22" y1="173.12" x2="249.65" y2="173.12" style="fill:none;stroke:#efecea;stroke-miterlimit:10"/><path d="M357.5,189.35v3.21h-1.34v-7.62h1.34v3.17h3.69v-3.17h1.35v7.62h-1.35v-3.21Z" style="fill:#6731cf"/><path d="M366,191.24a1.65,1.65,0,0,0,1.1.37,2,2,0,0,0,.85-.17,3,3,0,0,0,.72-.51l.78.68a3.29,3.29,0,0,1-1,.79,3.13,3.13,0,0,1-1.39.29,3.08,3.08,0,0,1-1.17-.22,2.59,2.59,0,0,1-.94-.61,2.85,2.85,0,0,1-.64-.94,3.36,3.36,0,0,1,0-2.39,3,3,0,0,1,.59-.95,2.81,2.81,0,0,1,.9-.65,2.64,2.64,0,0,1,1.14-.24,2.77,2.77,0,0,1,1.22.25,2.44,2.44,0,0,1,.87.68,2.92,2.92,0,0,1,.52,1,3.87,3.87,0,0,1,.17,1.18V190a1.1,1.1,0,0,1,0,.18h-4.27A1.78,1.78,0,0,0,366,191.24Zm2.39-2a2.21,2.21,0,0,0-.14-.59,1.31,1.31,0,0,0-.3-.48,1.43,1.43,0,0,0-.44-.32,1.38,1.38,0,0,0-.59-.12,1.36,1.36,0,0,0-1,.42,1.87,1.87,0,0,0-.49,1.09Z" style="fill:#6731cf"/><path d="M374.56,192.56v-.71a2.37,2.37,0,0,1-1.88.83,2.85,2.85,0,0,1-.79-.11,2.06,2.06,0,0,1-.66-.34,1.64,1.64,0,0,1-.45-.56,1.67,1.67,0,0,1-.17-.76v0a1.73,1.73,0,0,1,.18-.81,1.53,1.53,0,0,1,.49-.58,2,2,0,0,1,.74-.34A3.56,3.56,0,0,1,373,189a4.63,4.63,0,0,1,.9.07,5.26,5.26,0,0,1,.71.17v-.14a1.11,1.11,0,0,0-.37-.91,1.53,1.53,0,0,0-1.06-.32,3.38,3.38,0,0,0-.88.1,4.76,4.76,0,0,0-.78.26l-.36-1.06a6.84,6.84,0,0,1,1-.35,5.24,5.24,0,0,1,1.22-.13,2.61,2.61,0,0,1,1.92.64,2.44,2.44,0,0,1,.63,1.79v3.41Zm0-2.44a3.69,3.69,0,0,0-.6-.16,3.41,3.41,0,0,0-.73-.07,1.73,1.73,0,0,0-1,.24.79.79,0,0,0-.35.69v0a.71.71,0,0,0,.32.63,1.39,1.39,0,0,0,.8.22,2,2,0,0,0,.61-.09,1.72,1.72,0,0,0,.49-.24,1.19,1.19,0,0,0,.33-.38,1.18,1.18,0,0,0,.11-.5Z" style="fill:#6731cf"/><path d="M381.83,192.56v-1a2.9,2.9,0,0,1-.8.76,2,2,0,0,1-1.18.32,2.43,2.43,0,0,1-1-.2,2.38,2.38,0,0,1-.86-.58,2.91,2.91,0,0,1-.6-.94,3.16,3.16,0,0,1-.23-1.27,3.4,3.4,0,0,1,.22-1.28,2.91,2.91,0,0,1,.6-.94,2.47,2.47,0,0,1,.86-.58,2.7,2.7,0,0,1,1-.2A2.09,2.09,0,0,1,381,187a3.36,3.36,0,0,1,.79.7v-3.09h1.34v7.95Zm-.12-3.64a1.89,1.89,0,0,0-.36-.58,1.83,1.83,0,0,0-.54-.38,1.64,1.64,0,0,0-1.28,0,1.61,1.61,0,0,0-.53.36,1.83,1.83,0,0,0-.36.59,2.13,2.13,0,0,0-.13.78,2.06,2.06,0,0,0,.13.76,1.83,1.83,0,0,0,.36.59,1.64,1.64,0,0,0,.53.37,1.64,1.64,0,0,0,1.28,0,1.83,1.83,0,0,0,.54-.38,1.89,1.89,0,0,0,.36-.58,2.16,2.16,0,0,0,0-1.53Z" style="fill:#6731cf"/><path d="M384.91,192.56v-7.95h1.34v7.95Z" style="fill:#6731cf"/><path d="M389.56,191.24a1.66,1.66,0,0,0,1.1.37,2.06,2.06,0,0,0,.86-.17,3.19,3.19,0,0,0,.72-.51l.78.68a3.21,3.21,0,0,1-1,.79,3.06,3.06,0,0,1-1.38.29,3,3,0,0,1-1.17-.22,2.72,2.72,0,0,1-1-.61,2.68,2.68,0,0,1-.63-.94,3.36,3.36,0,0,1,0-2.39,2.82,2.82,0,0,1,.59-.95,2.88,2.88,0,0,1,.89-.65,3,3,0,0,1,2.36,0,2.44,2.44,0,0,1,.87.68,2.76,2.76,0,0,1,.52,1,3.88,3.88,0,0,1,.18,1.18V190c0,.06,0,.12,0,.18H389A1.72,1.72,0,0,0,389.56,191.24Zm2.4-2a2.21,2.21,0,0,0-.14-.59,1.45,1.45,0,0,0-.3-.48,1.35,1.35,0,0,0-1-.44,1.36,1.36,0,0,0-1,.42,1.87,1.87,0,0,0-.49,1.09Z" style="fill:#6731cf"/><path d="M398.6,191.66a1.64,1.64,0,0,1-.45.56,2,2,0,0,1-.69.33,2.91,2.91,0,0,1-.85.12,3.86,3.86,0,0,1-1.27-.22,4,4,0,0,1-1.19-.64l.59-.89a4,4,0,0,0,1,.52,2.69,2.69,0,0,0,.94.18,1.15,1.15,0,0,0,.66-.16.55.55,0,0,0,.24-.46v0a.41.41,0,0,0-.11-.28.89.89,0,0,0-.28-.21,2,2,0,0,0-.42-.17l-.49-.14-.64-.22a2.75,2.75,0,0,1-.59-.31,1.71,1.71,0,0,1-.42-.47,1.35,1.35,0,0,1-.16-.69v0a1.7,1.7,0,0,1,.15-.73,1.74,1.74,0,0,1,.44-.56,2.08,2.08,0,0,1,.66-.35,2.74,2.74,0,0,1,.81-.12,4.12,4.12,0,0,1,2.14.66l-.53.93a4.31,4.31,0,0,0-.85-.39,2.38,2.38,0,0,0-.79-.15,1,1,0,0,0-.6.16.51.51,0,0,0-.21.42v0a.33.33,0,0,0,.11.26.94.94,0,0,0,.29.21,2.81,2.81,0,0,0,.42.17c.15.06.32.11.48.16s.43.14.64.23a2.91,2.91,0,0,1,.58.32,1.58,1.58,0,0,1,.42.47,1.24,1.24,0,0,1,.17.66v0A1.81,1.81,0,0,1,398.6,191.66Z" style="fill:#6731cf"/><path d="M404,191.66a1.8,1.8,0,0,1-.46.56,1.92,1.92,0,0,1-.69.33,2.91,2.91,0,0,1-.85.12,3.86,3.86,0,0,1-1.27-.22,4,4,0,0,1-1.19-.64l.59-.89a4,4,0,0,0,1,.52,2.69,2.69,0,0,0,.94.18,1.15,1.15,0,0,0,.66-.16.55.55,0,0,0,.24-.46v0a.41.41,0,0,0-.11-.28.89.89,0,0,0-.28-.21,2,2,0,0,0-.42-.17l-.49-.14L401,190a2.75,2.75,0,0,1-.59-.31,1.71,1.71,0,0,1-.42-.47,1.35,1.35,0,0,1-.16-.69v0a1.57,1.57,0,0,1,.16-.73,1.59,1.59,0,0,1,.43-.56,2.08,2.08,0,0,1,.66-.35,2.74,2.74,0,0,1,.81-.12,4.12,4.12,0,0,1,2.14.66l-.53.93a4.31,4.31,0,0,0-.85-.39,2.38,2.38,0,0,0-.79-.15,1,1,0,0,0-.6.16.51.51,0,0,0-.21.42v0a.33.33,0,0,0,.11.26.94.94,0,0,0,.29.21,2.81,2.81,0,0,0,.42.17c.15.06.32.11.49.16s.42.14.63.23a2.91,2.91,0,0,1,.58.32,1.76,1.76,0,0,1,.43.47,1.34,1.34,0,0,1,.16.66v0A2,2,0,0,1,404,191.66Z" style="fill:#6731cf"/><path d="M374.64,202.9a3.87,3.87,0,0,1-.7.43,3.43,3.43,0,0,1-.82.27,5.06,5.06,0,0,1-1,.09,4,4,0,0,1-1.56-.3,3.83,3.83,0,0,1-1.24-.84,3.94,3.94,0,0,1-.82-1.24,4.19,4.19,0,0,1-.29-1.55,4,4,0,0,1,.29-1.54,3.87,3.87,0,0,1,.82-1.25,3.75,3.75,0,0,1,1.25-.85,4,4,0,0,1,1.61-.31,5.64,5.64,0,0,1,1,.08,3.75,3.75,0,0,1,.8.25,4,4,0,0,1,.67.37,6.71,6.71,0,0,1,.58.48l-.87,1a3.8,3.8,0,0,0-1-.69,2.58,2.58,0,0,0-1.17-.26,2.45,2.45,0,0,0-1.83.79,2.65,2.65,0,0,0-.53.85,3.21,3.21,0,0,0,0,2.12,2.75,2.75,0,0,0,.53.87,2.61,2.61,0,0,0,.81.58,2.45,2.45,0,0,0,1,.21,2.54,2.54,0,0,0,1.21-.27,4.81,4.81,0,0,0,1-.72l.87.87A5.32,5.32,0,0,1,374.64,202.9Z" style="fill:#6731cf"/><path d="M380.47,201.69h0L378,198.12v5.44h-1.34v-7.62h1.44l2.34,3.6,2.34-3.6h1.44v7.62H382.9v-5.47Z" style="fill:#6731cf"/><path d="M387.43,198.32a.93.93,0,0,0,.29.31,2.27,2.27,0,0,0,.56.26c.24.08.54.16.91.25a7.51,7.51,0,0,1,1.07.34,2.54,2.54,0,0,1,.78.45,1.76,1.76,0,0,1,.47.62,2,2,0,0,1,.16.83,2.27,2.27,0,0,1-.2,1,2.19,2.19,0,0,1-.56.72,2.4,2.4,0,0,1-.87.45,3.92,3.92,0,0,1-1.11.15,4.87,4.87,0,0,1-1.7-.3,4.65,4.65,0,0,1-1.51-.92l.81-1a4.71,4.71,0,0,0,1.14.74,3.13,3.13,0,0,0,1.29.25,1.67,1.67,0,0,0,1-.26.83.83,0,0,0,.37-.71,1.11,1.11,0,0,0-.07-.37.76.76,0,0,0-.27-.3,2.2,2.2,0,0,0-.53-.25,6.72,6.72,0,0,0-.88-.25,9.64,9.64,0,0,1-1.09-.32,2.82,2.82,0,0,1-.81-.43,1.8,1.8,0,0,1-.49-.64,2,2,0,0,1-.17-.9,2.09,2.09,0,0,1,.19-.91,2.06,2.06,0,0,1,.54-.7,2.29,2.29,0,0,1,.83-.45,3.21,3.21,0,0,1,1.05-.16,4.55,4.55,0,0,1,1.53.24,4.61,4.61,0,0,1,1.27.72l-.73,1a4.74,4.74,0,0,0-1-.58,2.79,2.79,0,0,0-1.05-.2,1.42,1.42,0,0,0-.92.26.82.82,0,0,0-.33.65A.94.94,0,0,0,387.43,198.32Z" style="fill:#6731cf"/><path d="M372,297.48h-4.38v2.1h3.88v1.21h-3.88v3.11h-1.34v-7.63H372Z" style="fill:#6731cf"/><path d="M378.81,302.19a3,3,0,0,1-.65.95,3.05,3.05,0,0,1-1,.65,3.24,3.24,0,0,1-1.25.24,3.05,3.05,0,0,1-1.22-.24,2.87,2.87,0,0,1-1-.64,2.91,2.91,0,0,1-.88-2.11,2.92,2.92,0,0,1,.24-1.17,3,3,0,0,1,.65-1,2.87,2.87,0,0,1,1-.64,3.36,3.36,0,0,1,2.47,0,3,3,0,0,1,1,.64,2.74,2.74,0,0,1,.64,1,2.83,2.83,0,0,1,.24,1.16A2.92,2.92,0,0,1,378.81,302.19Zm-1.24-1.87a1.87,1.87,0,0,0-.36-.59,1.73,1.73,0,0,0-1.28-.55,1.64,1.64,0,0,0-.71.15,1.57,1.57,0,0,0-.55.39,1.68,1.68,0,0,0-.35.59,2.08,2.08,0,0,0-.12.71,2,2,0,0,0,.13.73,1.87,1.87,0,0,0,.36.59,2,2,0,0,0,.56.4,1.8,1.8,0,0,0,.71.14,1.85,1.85,0,0,0,.72-.14,1.73,1.73,0,0,0,.55-.4,1.64,1.64,0,0,0,.35-.58,2.13,2.13,0,0,0,.12-.72A2,2,0,0,0,377.57,300.32Z" style="fill:#6731cf"/><path d="M381.74,303.9H380.4v-5.75h1.34v1.29a2.58,2.58,0,0,1,.78-1,1.82,1.82,0,0,1,1.28-.36v1.39h-.08a2.28,2.28,0,0,0-.8.14,1.81,1.81,0,0,0-.63.43,2,2,0,0,0-.41.71,3.35,3.35,0,0,0-.14,1Z" style="fill:#6731cf"/><path d="M390.61,298.31a2.19,2.19,0,0,1,1.14-.28,2,2,0,0,1,1.5.57,2.27,2.27,0,0,1,.54,1.63v3.67h-1.35v-3.26a1.6,1.6,0,0,0-.3-1.05,1.08,1.08,0,0,0-.87-.36,1.19,1.19,0,0,0-.89.37,1.47,1.47,0,0,0-.34,1.06v3.24h-1.35v-3.27a1.59,1.59,0,0,0-.3-1,1.1,1.1,0,0,0-.87-.36,1.14,1.14,0,0,0-.9.39,1.54,1.54,0,0,0-.34,1.05v3.23h-1.34v-5.75h1.34V299a3.93,3.93,0,0,1,.31-.38,3.05,3.05,0,0,1,.38-.32,1.83,1.83,0,0,1,.49-.22,1.79,1.79,0,0,1,.59-.08,1.92,1.92,0,0,1,1.07.28,1.82,1.82,0,0,1,.66.74A2.77,2.77,0,0,1,390.61,298.31Z" style="fill:#6731cf"/><path d="M366.4,307.8a1.71,1.71,0,0,1,.68,1.43,2,2,0,0,1-.09.62,2.29,2.29,0,0,1-.24.47,1.71,1.71,0,0,1-.35.36,3.93,3.93,0,0,1-.41.26,3.42,3.42,0,0,1,.61.28,2,2,0,0,1,.49.37,1.6,1.6,0,0,1,.31.52,2.08,2.08,0,0,1,.11.69,1.87,1.87,0,0,1-.21.9,1.8,1.8,0,0,1-.57.66,2.65,2.65,0,0,1-.9.4,4.69,4.69,0,0,1-1.17.14h-3.55v-7.63h3.44A3,3,0,0,1,366.4,307.8Zm-1.06,2.44a.89.89,0,0,0,.4-.79.85.85,0,0,0-.35-.73,1.59,1.59,0,0,0-1-.26h-1.94v2h1.84A1.9,1.9,0,0,0,365.34,310.24Zm.43,3.2a.9.9,0,0,0,.4-.79.88.88,0,0,0-.39-.76,2.12,2.12,0,0,0-1.19-.27h-2.14v2.09h2.23A1.89,1.89,0,0,0,365.77,313.44Z" style="fill:#6731cf"/><path d="M372.7,309.15H374v5.75H372.7V314a2.86,2.86,0,0,1-.71.72,1.83,1.83,0,0,1-1.1.31,2,2,0,0,1-1.53-.6,2.38,2.38,0,0,1-.53-1.62v-3.65h1.34v3.26a1.53,1.53,0,0,0,.32,1,1.14,1.14,0,0,0,.91.37,1.24,1.24,0,0,0,.94-.38,1.45,1.45,0,0,0,.36-1.05Z" style="fill:#6731cf"/><path d="M375.74,308.26V307h1.44v1.25Zm.05,6.64v-5.75h1.34v5.75Z" style="fill:#6731cf"/><path d="M378.94,314.9V307h1.34v7.95Z" style="fill:#6731cf"/><path d="M386.37,314.9v-1a3,3,0,0,1-.79.76,2.1,2.1,0,0,1-1.18.32,2.61,2.61,0,0,1-1.86-.78,2.86,2.86,0,0,1-.6-.95,3.7,3.7,0,0,1,0-2.54,3,3,0,0,1,.6-.95,2.61,2.61,0,0,1,.86-.58,2.7,2.7,0,0,1,1-.19,2.15,2.15,0,0,1,1.18.3,3,3,0,0,1,.79.71V307h1.34v7.95Zm-.11-3.64a1.8,1.8,0,0,0-.37-.58,1.47,1.47,0,0,0-.54-.38,1.51,1.51,0,0,0-.63-.13,1.69,1.69,0,0,0-.64.12,1.68,1.68,0,0,0-.54.37,1.78,1.78,0,0,0-.36.58,2.38,2.38,0,0,0,0,1.55,1.78,1.78,0,0,0,.36.58,1.68,1.68,0,0,0,.54.37,1.62,1.62,0,0,0,1.27,0,1.58,1.58,0,0,0,.54-.37,2,2,0,0,0,.37-.59,2.29,2.29,0,0,0,0-1.52Z" style="fill:#6731cf"/><path d="M391,313.57a1.67,1.67,0,0,0,1.1.38,1.94,1.94,0,0,0,.86-.18,2.48,2.48,0,0,0,.71-.51l.78.69a3.26,3.26,0,0,1-1,.78,3,3,0,0,1-1.38.3,3.2,3.2,0,0,1-1.17-.22,2.93,2.93,0,0,1-.95-.61,2.78,2.78,0,0,1-.63-.94,3.06,3.06,0,0,1-.23-1.23,3.41,3.41,0,0,1,.2-1.16,3,3,0,0,1,.59-1,2.85,2.85,0,0,1,.9-.64,2.68,2.68,0,0,1,1.14-.24,2.74,2.74,0,0,1,1.22.25,2.42,2.42,0,0,1,.87.67,3,3,0,0,1,.52,1,3.94,3.94,0,0,1,.18,1.19c0,.06,0,.12,0,.17s0,.12,0,.19h-4.27A1.72,1.72,0,0,0,391,313.57Zm2.4-1.95a2.4,2.4,0,0,0-.15-.6,1.66,1.66,0,0,0-.29-.48,1.6,1.6,0,0,0-.45-.32,1.38,1.38,0,0,0-.59-.12,1.32,1.32,0,0,0-1,.42,1.84,1.84,0,0,0-.49,1.1Z" style="fill:#6731cf"/><path d="M397.36,314.9H396v-5.75h1.34v1.29a2.49,2.49,0,0,1,.78-1,1.8,1.8,0,0,1,1.28-.36v1.39h-.08a2.28,2.28,0,0,0-.8.14,1.81,1.81,0,0,0-.63.43,1.9,1.9,0,0,0-.41.71,3.35,3.35,0,0,0-.14,1Z" style="fill:#6731cf"/><path d="M462.78,297.48H458.4v2.1h3.88v1.21H458.4v3.11h-1.34v-7.63h5.72Z" style="fill:#6731cf"/><path d="M464.14,297.26V296h1.44v1.25Zm.06,6.64v-5.75h1.34v5.75Z" style="fill:#6731cf"/><path d="M467.34,303.9V296h1.34v7.95Z" style="fill:#6731cf"/><path d="M472,302.57a1.64,1.64,0,0,0,1.09.38,1.91,1.91,0,0,0,.86-.18,2.52,2.52,0,0,0,.72-.51l.78.69a3.18,3.18,0,0,1-1,.78,2.93,2.93,0,0,1-1.38.3,3.24,3.24,0,0,1-1.17-.22,2.88,2.88,0,0,1-.94-.61,3,3,0,0,1-.64-.94,3.25,3.25,0,0,1-.23-1.23,3.19,3.19,0,0,1,.21-1.16,3,3,0,0,1,.59-1,2.78,2.78,0,0,1,2-.88,2.77,2.77,0,0,1,1.22.25,2.47,2.47,0,0,1,.86.67,2.86,2.86,0,0,1,.53,1,4.28,4.28,0,0,1,.17,1.19v.17c0,.06,0,.12,0,.19h-4.27A1.69,1.69,0,0,0,472,302.57Zm2.39-1.95a2.39,2.39,0,0,0-.14-.6,1.5,1.5,0,0,0-.3-.48,1.35,1.35,0,0,0-1-.44,1.36,1.36,0,0,0-1,.42,1.9,1.9,0,0,0-.49,1.1Z" style="fill:#6731cf"/><path d="M447,313h0l-2.41-3.57v5.45h-1.35v-7.63h1.45l2.34,3.61,2.34-3.61h1.44v7.63h-1.34v-5.47Z" style="fill:#6731cf"/><path d="M456.16,314.9v-.71a2.53,2.53,0,0,1-.76.59,2.41,2.41,0,0,1-1.12.24,2.56,2.56,0,0,1-.79-.12,1.88,1.88,0,0,1-.66-.34,1.75,1.75,0,0,1-.45-.55,1.71,1.71,0,0,1-.17-.77v0a1.77,1.77,0,0,1,.18-.82,1.71,1.71,0,0,1,.49-.58,2.35,2.35,0,0,1,.75-.34,4,4,0,0,1,.94-.11,5.57,5.57,0,0,1,.89.06,4.91,4.91,0,0,1,.71.18v-.15a1.13,1.13,0,0,0-.37-.91,1.58,1.58,0,0,0-1.06-.32,3.87,3.87,0,0,0-.88.1c-.25.07-.51.16-.78.26l-.36-1a5.82,5.82,0,0,1,1-.35,4.8,4.8,0,0,1,1.22-.13,2.56,2.56,0,0,1,1.92.64,2.43,2.43,0,0,1,.63,1.79v3.41Zm0-2.44a3.14,3.14,0,0,0-.6-.17,4.23,4.23,0,0,0-.73-.06,1.75,1.75,0,0,0-1,.24.79.79,0,0,0-.35.68v0a.73.73,0,0,0,.33.64,1.41,1.41,0,0,0,.79.21,2,2,0,0,0,.61-.08,1.42,1.42,0,0,0,.49-.25,1.1,1.1,0,0,0,.33-.38,1,1,0,0,0,.11-.49Z" style="fill:#6731cf"/><path d="M460.41,314.9h-1.34v-5.75h1.34v.9a3,3,0,0,1,.31-.39,1.9,1.9,0,0,1,.4-.33,1.83,1.83,0,0,1,.49-.22,1.92,1.92,0,0,1,.61-.08,1.94,1.94,0,0,1,1.52.6,2.29,2.29,0,0,1,.54,1.61v3.66h-1.34v-3.26a1.54,1.54,0,0,0-.32-1,1.17,1.17,0,0,0-.91-.37,1.24,1.24,0,0,0-.94.38,1.45,1.45,0,0,0-.36,1.05Z" style="fill:#6731cf"/><path d="M469.44,314.9v-.71a2.53,2.53,0,0,1-.76.59,2.41,2.41,0,0,1-1.12.24,2.52,2.52,0,0,1-.79-.12,1.88,1.88,0,0,1-.66-.34,1.52,1.52,0,0,1-.45-.55,1.71,1.71,0,0,1-.17-.77v0a1.77,1.77,0,0,1,.18-.82,1.6,1.6,0,0,1,.49-.58,2.2,2.2,0,0,1,.74-.34,4,4,0,0,1,.94-.11,5.71,5.71,0,0,1,.9.06,5.27,5.27,0,0,1,.71.18v-.15a1.13,1.13,0,0,0-.37-.91,1.58,1.58,0,0,0-1.06-.32,3.87,3.87,0,0,0-.88.1,7.92,7.92,0,0,0-.78.26l-.36-1a5.82,5.82,0,0,1,1-.35,4.75,4.75,0,0,1,1.22-.13,2.57,2.57,0,0,1,1.92.64,2.43,2.43,0,0,1,.63,1.79v3.41Zm0-2.44a3.63,3.63,0,0,0-.6-.17,4.23,4.23,0,0,0-.73-.06,1.73,1.73,0,0,0-1,.24.79.79,0,0,0-.35.68v0a.74.74,0,0,0,.32.64,1.47,1.47,0,0,0,.8.21,2,2,0,0,0,.61-.08,1.51,1.51,0,0,0,.49-.25,1.1,1.1,0,0,0,.33-.38,1.14,1.14,0,0,0,.11-.49Z" style="fill:#6731cf"/><path d="M477.24,316a3.45,3.45,0,0,1-2.31.71,4.93,4.93,0,0,1-2.6-.69l.5-1a4.42,4.42,0,0,0,1,.45,3.57,3.57,0,0,0,1.1.16,1.92,1.92,0,0,0,1.37-.45,1.76,1.76,0,0,0,.47-1.32v-.45a3,3,0,0,1-.85.77,2.23,2.23,0,0,1-1.2.3,2.7,2.7,0,0,1-1-.18,2.59,2.59,0,0,1-.85-.53,2.75,2.75,0,0,1-.59-.85,2.9,2.9,0,0,1-.22-1.14,3,3,0,0,1,.22-1.15,2.87,2.87,0,0,1,.59-.85,2.59,2.59,0,0,1,.85-.53,2.78,2.78,0,0,1,1-.18,2.25,2.25,0,0,1,1.22.29,3.08,3.08,0,0,1,.82.7v-.87h1.33v4.57A2.8,2.8,0,0,1,477.24,316Zm-.64-4.87a1.53,1.53,0,0,0-.36-.5,1.77,1.77,0,0,0-.55-.32,2.06,2.06,0,0,0-.65-.11,1.93,1.93,0,0,0-.65.11,1.62,1.62,0,0,0-.52.32,1.39,1.39,0,0,0-.36.5,1.67,1.67,0,0,0-.12.65,1.57,1.57,0,0,0,.13.65,1.61,1.61,0,0,0,.35.5,1.46,1.46,0,0,0,.52.32,1.75,1.75,0,0,0,.65.12,1.82,1.82,0,0,0,.65-.12,1.59,1.59,0,0,0,.55-.32,1.64,1.64,0,0,0,.36-.5,1.34,1.34,0,0,0,.14-.64A1.45,1.45,0,0,0,476.6,311.08Z" style="fill:#6731cf"/><path d="M481.3,313.57a1.65,1.65,0,0,0,1.1.38,1.87,1.87,0,0,0,.85-.18,2.52,2.52,0,0,0,.72-.51l.78.69a3.18,3.18,0,0,1-1,.78,2.93,2.93,0,0,1-1.38.3,3.29,3.29,0,0,1-1.17-.22,2.88,2.88,0,0,1-.94-.61,3,3,0,0,1-.64-.94,3.25,3.25,0,0,1-.23-1.23,3.19,3.19,0,0,1,.21-1.16,3,3,0,0,1,.59-1,2.78,2.78,0,0,1,2-.88,2.77,2.77,0,0,1,1.22.25,2.6,2.6,0,0,1,.87.67,3,3,0,0,1,.52,1,3.94,3.94,0,0,1,.17,1.19v.17c0,.06,0,.12,0,.19h-4.27A1.73,1.73,0,0,0,481.3,313.57Zm2.39-1.95a2.39,2.39,0,0,0-.14-.6,1.5,1.5,0,0,0-.3-.48,1.43,1.43,0,0,0-.44-.32,1.38,1.38,0,0,0-.59-.12,1.36,1.36,0,0,0-1,.42,1.9,1.9,0,0,0-.49,1.1Z" style="fill:#6731cf"/><path d="M487.7,314.9h-1.34v-5.75h1.34v1.29a2.49,2.49,0,0,1,.78-1,1.8,1.8,0,0,1,1.28-.36v1.39h-.08a2.24,2.24,0,0,0-.8.14,1.65,1.65,0,0,0-.63.43,1.9,1.9,0,0,0-.41.71,3.35,3.35,0,0,0-.14,1Z" style="fill:#6731cf"/><path d="M459,188.63a2.3,2.3,0,0,1-.66.82,3.11,3.11,0,0,1-1,.49,4.31,4.31,0,0,1-1.21.17h-1.53v2.45h-1.34v-7.62h3a3.84,3.84,0,0,1,1.21.18,2.64,2.64,0,0,1,.92.51,2.35,2.35,0,0,1,.59.81,2.71,2.71,0,0,1,.2,1.06A2.57,2.57,0,0,1,459,188.63Zm-1.59-2.14a1.93,1.93,0,0,0-1.21-.34h-1.58v2.75h1.58a1.8,1.8,0,0,0,1.22-.38,1.23,1.23,0,0,0,.45-1A1.22,1.22,0,0,0,457.41,186.49Z" style="fill:#6731cf"/><path d="M463.92,192.56v-.71a2.37,2.37,0,0,1-1.88.83,3,3,0,0,1-.8-.11,2,2,0,0,1-.65-.34,1.64,1.64,0,0,1-.45-.56,1.55,1.55,0,0,1-.17-.76v0a1.86,1.86,0,0,1,.17-.81,1.62,1.62,0,0,1,.49-.58,2.15,2.15,0,0,1,.75-.34,3.51,3.51,0,0,1,.94-.12,4.7,4.7,0,0,1,.9.07,5.65,5.65,0,0,1,.71.17v-.14a1.15,1.15,0,0,0-.37-.91,1.54,1.54,0,0,0-1.06-.32,3.33,3.33,0,0,0-.88.1,4.76,4.76,0,0,0-.78.26l-.37-1.06a7.8,7.8,0,0,1,1-.35,5.36,5.36,0,0,1,1.22-.13,2.62,2.62,0,0,1,1.93.64,2.44,2.44,0,0,1,.63,1.79v3.41Zm0-2.44a3.69,3.69,0,0,0-.6-.16,3.48,3.48,0,0,0-.73-.07,1.71,1.71,0,0,0-1,.24.77.77,0,0,0-.35.69v0a.71.71,0,0,0,.32.63,1.37,1.37,0,0,0,.8.22,2,2,0,0,0,.61-.09,1.72,1.72,0,0,0,.49-.24,1.1,1.1,0,0,0,.44-.88Z" style="fill:#6731cf"/><path d="M471.72,193.62a3.45,3.45,0,0,1-2.31.71,4.93,4.93,0,0,1-2.6-.69l.49-1a4,4,0,0,0,1,.44,3.57,3.57,0,0,0,1.1.17,1.92,1.92,0,0,0,1.37-.45,1.76,1.76,0,0,0,.47-1.32V191a3.27,3.27,0,0,1-.85.77,2.32,2.32,0,0,1-1.2.29,2.8,2.8,0,0,1-1-.18,2.62,2.62,0,0,1-.84-.52,2.87,2.87,0,0,1-.59-.85,3,3,0,0,1-.22-1.15,2.9,2.9,0,0,1,.22-1.14,2.63,2.63,0,0,1,.59-.85,2.75,2.75,0,0,1,1.83-.72,2.37,2.37,0,0,1,1.22.29,3.49,3.49,0,0,1,.82.7v-.87h1.33v4.57A2.84,2.84,0,0,1,471.72,193.62Zm-.64-4.87a1.34,1.34,0,0,0-.37-.5,1.46,1.46,0,0,0-.54-.32,1.82,1.82,0,0,0-.65-.12,1.67,1.67,0,0,0-.65.12,1.51,1.51,0,0,0-.53.32,1.46,1.46,0,0,0-.35.49,1.71,1.71,0,0,0-.12.65,1.51,1.51,0,0,0,.13.65,1.37,1.37,0,0,0,.35.5,1.65,1.65,0,0,0,.52.33,2,2,0,0,0,.65.11,2.06,2.06,0,0,0,.65-.11,1.63,1.63,0,0,0,.54-.33,1.48,1.48,0,0,0,.37-.49,1.55,1.55,0,0,0,.14-.65A1.58,1.58,0,0,0,471.08,188.75Z" style="fill:#6731cf"/><path d="M475.77,191.24a1.66,1.66,0,0,0,1.1.37,2.06,2.06,0,0,0,.86-.17,3.19,3.19,0,0,0,.72-.51l.78.68a3.21,3.21,0,0,1-1,.79,3.06,3.06,0,0,1-1.38.29,3,3,0,0,1-1.17-.22,2.72,2.72,0,0,1-.95-.61,3,3,0,0,1-.63-.94,3.36,3.36,0,0,1,0-2.39,3,3,0,0,1,.59-.95,2.88,2.88,0,0,1,.89-.65,3,3,0,0,1,2.36,0,2.44,2.44,0,0,1,.87.68,2.94,2.94,0,0,1,.53,1,4.21,4.21,0,0,1,.17,1.18V190c0,.06,0,.12,0,.18H475.2A1.72,1.72,0,0,0,475.77,191.24Zm2.4-2a2.21,2.21,0,0,0-.14-.59,1.31,1.31,0,0,0-.3-.48,1.35,1.35,0,0,0-1-.44,1.36,1.36,0,0,0-1,.42,1.87,1.87,0,0,0-.49,1.09Z" style="fill:#6731cf"/><path d="M452.62,196.46a1.72,1.72,0,0,1,.68,1.43,2,2,0,0,1-.09.62,1.8,1.8,0,0,1-.24.48,1.93,1.93,0,0,1-.35.35,3.1,3.1,0,0,1-.41.26,4.45,4.45,0,0,1,.62.28,2.23,2.23,0,0,1,.48.38,1.45,1.45,0,0,1,.31.51,2.08,2.08,0,0,1,.11.69,2,2,0,0,1-.2.9,1.84,1.84,0,0,1-.58.66,2.65,2.65,0,0,1-.9.4,4.24,4.24,0,0,1-1.16.14h-3.56v-7.62h3.45A2.94,2.94,0,0,1,452.62,196.46Zm-1.06,2.44a1,1,0,0,0,.05-1.52,1.66,1.66,0,0,0-1-.25h-1.94v2h1.84A1.82,1.82,0,0,0,451.56,198.9Zm.43,3.21a.88.88,0,0,0,.4-.79.9.9,0,0,0-.39-.77,2.12,2.12,0,0,0-1.19-.27h-2.14v2.09h2.24A1.88,1.88,0,0,0,452,202.11Z" style="fill:#6731cf"/><path d="M458.92,197.81h1.34v5.75h-1.34v-.9a2.86,2.86,0,0,1-.71.72,1.88,1.88,0,0,1-1.1.3,1.93,1.93,0,0,1-1.52-.6,2.32,2.32,0,0,1-.54-1.61v-3.66h1.34v3.26a1.54,1.54,0,0,0,.32,1,1.17,1.17,0,0,0,.91.36,1.24,1.24,0,0,0,.94-.37,1.45,1.45,0,0,0,.36-1Z" style="fill:#6731cf"/><path d="M462,196.93v-1.25h1.44v1.25Zm.05,6.63v-5.75h1.34v5.75Z" style="fill:#6731cf"/><path d="M465.16,203.56v-7.95h1.34v7.95Z" style="fill:#6731cf"/><path d="M472.59,203.56v-1a2.86,2.86,0,0,1-.79.76,2,2,0,0,1-1.18.32,2.61,2.61,0,0,1-1.86-.78,3.09,3.09,0,0,1-.6-.94,3.34,3.34,0,0,1-.23-1.27,3.4,3.4,0,0,1,.23-1.28,2.89,2.89,0,0,1,.59-.94,2.42,2.42,0,0,1,.87-.58,2.66,2.66,0,0,1,1-.2,2.07,2.07,0,0,1,1.18.31,3.17,3.17,0,0,1,.79.7v-3.09h1.35v7.95Zm-.11-3.64a1.75,1.75,0,0,0-.37-.58,1.66,1.66,0,0,0-.53-.38,1.78,1.78,0,0,0-.64-.13,1.7,1.7,0,0,0-.64.13,1.61,1.61,0,0,0-.53.36,1.69,1.69,0,0,0-.37.59,2.36,2.36,0,0,0-.13.78,2.28,2.28,0,0,0,.13.76,1.69,1.69,0,0,0,.37.59,1.64,1.64,0,0,0,.53.37,1.7,1.7,0,0,0,.64.13,1.78,1.78,0,0,0,.64-.13,1.66,1.66,0,0,0,.53-.38,1.75,1.75,0,0,0,.37-.58,2.16,2.16,0,0,0,0-1.53Z" style="fill:#6731cf"/><path d="M477.18,202.24a1.66,1.66,0,0,0,1.1.37,2.06,2.06,0,0,0,.86-.17,2.94,2.94,0,0,0,.71-.51l.79.68a3.21,3.21,0,0,1-1,.79,3.12,3.12,0,0,1-1.38.29,3,3,0,0,1-1.17-.22,2.72,2.72,0,0,1-.95-.61,2.68,2.68,0,0,1-.63-.94,3.36,3.36,0,0,1,0-2.39,2.82,2.82,0,0,1,.59-.95,2.88,2.88,0,0,1,.89-.65,3,3,0,0,1,2.36,0,2.44,2.44,0,0,1,.87.68,2.76,2.76,0,0,1,.52,1,3.88,3.88,0,0,1,.18,1.18,1.09,1.09,0,0,1,0,.18c0,.06,0,.12,0,.18h-4.27A1.72,1.72,0,0,0,477.18,202.24Zm2.4-2a2.21,2.21,0,0,0-.14-.59,1.63,1.63,0,0,0-.3-.48,1.47,1.47,0,0,0-.45-.32,1.34,1.34,0,0,0-.58-.12,1.36,1.36,0,0,0-1,.42,1.87,1.87,0,0,0-.49,1.09Z" style="fill:#6731cf"/><path d="M483.58,203.56h-1.34v-5.75h1.34v1.3a2.63,2.63,0,0,1,.78-1.05,1.92,1.92,0,0,1,1.28-.36v1.4h-.08a2.07,2.07,0,0,0-.8.14,1.66,1.66,0,0,0-.63.42,1.93,1.93,0,0,0-.4.72,3,3,0,0,0-.15,1Z" style="fill:#6731cf"/><circle cx="643.64" cy="199.26" r="46.34" transform="translate(47.62 513.49) rotate(-45)" style="fill:url(#k)"/><g style="mix-blend-mode:multiply"><path d="M631.59,204.9h-1.41L629,208.25l-.24.66-1.39-4h-1.47l-1.4,4-.23-.66-1.17-3.35h-1.79l.13.37.45,1.29,1.09,3.13.79,2.27h1.47l1.39-4,1.4,4h1.47l.78-2.27,1.09-3.13.45-1.29.13-.37Zm6,4.86-.22.11a8.06,8.06,0,0,1-1,.45,3.08,3.08,0,0,1-1,.18,1.81,1.81,0,0,1-1.09-.29,1.3,1.3,0,0,1-.46-.67h.94a4.77,4.77,0,0,0,2.18-.45,2.09,2.09,0,0,0,1.19-1.94,2.05,2.05,0,0,0-1-1.78,3.39,3.39,0,0,0-1.89-.56,3.16,3.16,0,0,0-2.46,1.12,4,4,0,0,0-.89,2.69,3.48,3.48,0,0,0,.87,2.5,3.21,3.21,0,0,0,2.47,1,5.56,5.56,0,0,0,3-.9l.23-.15Zm-3-3.23a1.15,1.15,0,0,1,.59-.15,3,3,0,0,1,.46.05,1.19,1.19,0,0,1,.38.15.63.63,0,0,1,.21.22.6.6,0,0,1,.1.35.51.51,0,0,1-.12.39,1.5,1.5,0,0,1-.45.29,3.14,3.14,0,0,1-1.06.11h-1a2.26,2.26,0,0,1,.45-1A2,2,0,0,1,634.59,206.53Zm10.17-.73a3.26,3.26,0,0,0-3.91-.78V202h-1.72v9.76l.2.06a10.28,10.28,0,0,0,2.45.31,3.69,3.69,0,0,0,2.86-1.08,4,4,0,0,0,1-2.68A4.14,4.14,0,0,0,644.76,205.8Zm-1.94,4.52a2,2,0,0,1-.9.16c-.28,0-.66,0-1.07-.06v-3a.92.92,0,0,1,.28-.62,1.51,1.51,0,0,1,1.16-.5,1.3,1.3,0,0,1,1.17.65,2.71,2.71,0,0,1,.38,1.46,2.2,2.2,0,0,1-.46,1.48A1.39,1.39,0,0,1,642.82,210.32Zm3.56-5.41h1.72V212h-1.72ZM656,212v-4.9a2.57,2.57,0,0,0-.21-1.06,2.51,2.51,0,0,0-2.42-1.21,3,3,0,0,0-2.12.75,2.68,2.68,0,0,0-.74-.72l-.18-.13-1.12,1,.21.2a1.67,1.67,0,0,1,.42.56,1.92,1.92,0,0,1,.12.71V212h1.72v-4.65a3.25,3.25,0,0,1,.68-.65,1.64,1.64,0,0,1,.94-.28,1.18,1.18,0,0,1,.77.24c.1.1.21.26.21.76V212Zm2.54-.18c1-.7,2-.4,3-.36h.19a14.64,14.64,0,0,0,1.67-.1v-6.43h-1.72v4.35a1.47,1.47,0,0,1-1.31,1.12s-1.16.09-1.29-.89v-4.57h-1.72v4.9a2.61,2.61,0,0,0,.21,1.06A1.94,1.94,0,0,0,658.57,211.8Z" style="fill:#e5e5e5"/><path d="M665.77,207.83a2.92,2.92,0,0,0-2.2-.34h0v1.95a.61.61,0,0,1,.07-.1l.13-.1a1.13,1.13,0,0,1,1.11,0,.87.87,0,0,1,.42.88,1,1,0,0,1-.37.74,3,3,0,0,1-1.39.55h-.08a15.05,15.05,0,0,1-1.7.08h-.39l-.92-.06h-.52l-.2,0h-.07a2.67,2.67,0,0,0-1,.37l0,0a2.29,2.29,0,0,0-.7.72,2.82,2.82,0,0,0,0,2.89,2.58,2.58,0,0,0,2.43,1.28,2.72,2.72,0,0,0,1.94-.93,4.38,4.38,0,0,0,.9-1.88,4.84,4.84,0,0,0,.13-.64l-1.74,0a4.92,4.92,0,0,1-.14.55,2.29,2.29,0,0,1-.43.87,1,1,0,0,1-.75.36.9.9,0,0,1-.87-.44,1.13,1.13,0,0,1,0-1.11.41.41,0,0,1,.1-.13,1.1,1.1,0,0,1,.8-.22c.33,0,.66,0,1,0h.37l1.76,0a5.13,5.13,0,0,0,2.64-1,2.77,2.77,0,0,0,1-1.92,2.56,2.56,0,0,0-1.23-2.46" style="fill:#e5e5e5"/></g><path d="M630.53,203.84h-1.41L628,207.18l-.23.67-1.4-4h-1.46l-1.4,4-.23-.67-1.17-3.34h-1.79l.13.37.45,1.28,1.09,3.14.79,2.27h1.47l1.39-4,1.39,4h1.47l.79-2.27,1.09-3.14.45-1.28.13-.37Zm6,4.86-.22.11a9.93,9.93,0,0,1-1,.44,3.12,3.12,0,0,1-1,.18,1.85,1.85,0,0,1-1.1-.28,1.44,1.44,0,0,1-.45-.67h.93a4.78,4.78,0,0,0,2.19-.45,2.17,2.17,0,0,0,.24-3.73,3.38,3.38,0,0,0-1.89-.55,3.16,3.16,0,0,0-2.47,1.12,4,4,0,0,0-.88,2.68,3.56,3.56,0,0,0,.86,2.51,3.26,3.26,0,0,0,2.47,1,5.61,5.61,0,0,0,3-.91l.23-.14Zm-3-3.23a1.15,1.15,0,0,1,.59-.15,2.19,2.19,0,0,1,.46.05,1,1,0,0,1,.37.15.53.53,0,0,1,.22.21.65.65,0,0,1,.1.36.48.48,0,0,1-.12.38,1.33,1.33,0,0,1-.45.29,2.88,2.88,0,0,1-1.07.12h-1a2.26,2.26,0,0,1,.45-1A1.79,1.79,0,0,1,633.53,205.47Zm10.16-.73a3.25,3.25,0,0,0-3.9-.78V200.9h-1.72v9.77l.2.05a9.8,9.8,0,0,0,2.45.31,3.7,3.7,0,0,0,2.86-1.07,4,4,0,0,0,.95-2.68A4.08,4.08,0,0,0,643.69,204.74Zm-1.94,4.52a1.92,1.92,0,0,1-.89.16c-.28,0-.67,0-1.07-.06v-3a.91.91,0,0,1,.28-.61,1.51,1.51,0,0,1,1.16-.5,1.27,1.27,0,0,1,1.16.65,2.62,2.62,0,0,1,.39,1.45,2.21,2.21,0,0,1-.46,1.49A1.44,1.44,0,0,1,641.75,209.26Zm3.57-5.41H647v7.06h-1.72Zm9.65,7.06V206a2.39,2.39,0,0,0-.22-1.06,2.47,2.47,0,0,0-2.42-1.21,3,3,0,0,0-2.11.74,3.18,3.18,0,0,0-.74-.72l-.18-.13-1.12,1,.21.2a1.67,1.67,0,0,1,.42.56,1.86,1.86,0,0,1,.12.7v4.79h1.72v-4.66a2.8,2.8,0,0,1,.68-.64,1.64,1.64,0,0,1,.94-.28,1.13,1.13,0,0,1,.76.23c.11.1.22.27.22.77v4.57Zm2.54-.17c1-.7,2-.41,3-.37h.19c.66,0,1.38-.07,1.66-.1v-6.43h-1.71v4.35a1.49,1.49,0,0,1-1.31,1.12s-1.16.08-1.3-.89v-4.57h-1.71v4.89a2.54,2.54,0,0,0,.21,1.06A1.92,1.92,0,0,0,657.51,210.74Z" style="fill:#fff"/><path d="M664.71,206.77a2.94,2.94,0,0,0-2.21-.34h0v1.95l.08-.1.13-.1a1.13,1.13,0,0,1,1.11,0,.86.86,0,0,1,.42.87,1,1,0,0,1-.37.74,2.86,2.86,0,0,1-1.39.56h-.08c-.24,0-1,.09-1.7.08h-.39l-.93-.06h-.51l-.21,0h-.06a2.53,2.53,0,0,0-1,.36l0,0a2.22,2.22,0,0,0-.71.72,2.85,2.85,0,0,0,0,2.89,2.58,2.58,0,0,0,2.43,1.28,2.7,2.7,0,0,0,1.93-.93,4.29,4.29,0,0,0,.91-1.88,5.19,5.19,0,0,0,.13-.64l-1.74,0a5.54,5.54,0,0,1-.14.55,2.62,2.62,0,0,1-.43.87,1.05,1.05,0,0,1-.75.36.89.89,0,0,1-.87-.44,1.13,1.13,0,0,1,0-1.11.41.41,0,0,1,.1-.13,1.1,1.1,0,0,1,.8-.22c.33,0,.65,0,1,0h.37l1.76,0a5.06,5.06,0,0,0,2.63-1,2.72,2.72,0,0,0,1-1.91,2.6,2.6,0,0,0-1.23-2.46" style="fill:#fff"/><path d="M638.94,225.66a4.89,4.89,0,0,1-.93.56,5.19,5.19,0,0,1-1.07.37,5.51,5.51,0,0,1-1.27.13,4.94,4.94,0,0,1-2-.41,4.89,4.89,0,0,1-1.63-1.12,5.19,5.19,0,0,1-1.07-1.68,5.54,5.54,0,0,1,1.07-5.83,5.08,5.08,0,0,1,3.72-1.56,6.16,6.16,0,0,1,1.27.12,5.6,5.6,0,0,1,1,.33,4.57,4.57,0,0,1,.89.51,7,7,0,0,1,.79.67l-.79.85a6.42,6.42,0,0,0-1.41-1,3.81,3.81,0,0,0-1.81-.4,4,4,0,0,0-1.58.32,3.74,3.74,0,0,0-1.25.9,4,4,0,0,0-.84,1.34,4.49,4.49,0,0,0-.3,1.66,4.62,4.62,0,0,0,.3,1.67,4.11,4.11,0,0,0,.84,1.34,3.88,3.88,0,0,0,1.25.9,3.79,3.79,0,0,0,1.58.33,3.9,3.9,0,0,0,1.81-.39,6.06,6.06,0,0,0,1.5-1.09l.76.75A8.15,8.15,0,0,1,638.94,225.66Z" style="fill:#fff"/><path d="M641.79,216.3H643v9.18h5.76v1.07h-6.92Z" style="fill:#fff"/><path d="M652.11,216.3v10.25H651V216.3Z" style="fill:#fff"/><path d="M632.49,191.63a2,2,0,0,1-1.21-3.5l6.85-5.31-6.85-5.31a2,2,0,0,1,2.4-3.1l8.85,6.86a2,2,0,0,1,0,3.1l-8.85,6.85A1.89,1.89,0,0,1,632.49,191.63Z" style="fill:#e5e5e5;mix-blend-mode:multiply"/><path d="M654.41,191.63h-9.09a2,2,0,1,1,0-3.92h9.09a2,2,0,1,1,0,3.92Z" style="fill:#e5e5e5;mix-blend-mode:multiply"/><path d="M631.42,190.66a2,2,0,0,1-1.2-3.51l6.85-5.3-6.85-5.31a2,2,0,1,1,2.4-3.1l8.84,6.86a2,2,0,0,1,.76,1.55,2,2,0,0,1-.76,1.55l-8.84,6.85A1.92,1.92,0,0,1,631.42,190.66Z" style="fill:#fff"/><path d="M653.35,190.66h-9.1a2,2,0,1,1,0-3.92h9.1a2,2,0,0,1,0,3.92Z" style="fill:#fff"/><path d="M608,318c-2.66,0-5.33,0-8,0-.82,0-.85-.24-.6-.89.36-.92.66-1.86.94-2.81a.67.67,0,0,1,.76-.56h15.16c.46,0,.64.13.63.61,0,1,0,2,0,3,0,.59-.23.69-.74.68C613.39,318,610.67,318,608,318Z" style="fill:#d5c8e6;fill-rule:evenodd"/><path d="M609.28,310.06c-2.24,0-4.48,0-6.72,0-.77,0-.85-.21-.6-.87.35-.91.64-1.86.93-2.8a.73.73,0,0,1,.82-.61q6.24,0,12.46,0c.58,0,.7.23.68.74,0,.93,0,1.86,0,2.78,0,.61-.19.76-.76.75C613.82,310,611.55,310.06,609.28,310.06Z" style="fill:#d5c8e6;fill-rule:evenodd"/><path d="M610.53,302.13c-1.83,0-3.66,0-5.48,0-.6,0-.73-.13-.51-.71.36-.94.68-1.91,1-2.89a.76.76,0,0,1,.87-.66q4.89,0,9.78,0c.57,0,.72.18.7.72a25.77,25.77,0,0,0,0,2.78c0,.61-.19.77-.77.76C614.24,302.11,612.38,302.13,610.53,302.13Z" style="fill:#d5c8e6;fill-rule:evenodd"/><path d="M638.58,308.64c-.84,0-1.68,0-2.51,0-.65,0-.62.26-.43.7a2.48,2.48,0,0,0,2.5,1.39,6,6,0,0,0,2.11-.38c.68-.29.72.16.87.6s.26.77-.36.92a13.41,13.41,0,0,1-2.73.51c-2.55.11-4.22-1.46-4.43-4.14a4.29,4.29,0,0,1,5.54-4.59,4.35,4.35,0,0,1,2.66,4.68c-.09.35-.3.32-.53.32Zm-.85-1.59c.57,0,1.13,0,1.69,0s.66-.25.46-.73a2.08,2.08,0,0,0-2.17-1.23,2.31,2.31,0,0,0-2.12,1.49c-.12.38,0,.48.36.47C636.54,307,637.14,307.05,637.73,307.05Z" style="fill:#d5c8e6;fill-rule:evenodd"/><path d="M689.3,308.64c-.86,0-1.73,0-2.6,0-.48,0-.56.13-.41.57a2.5,2.5,0,0,0,2.6,1.52,6.57,6.57,0,0,0,2.11-.39c.72-.29.67.3.84.67s.17.7-.36.85a11.8,11.8,0,0,1-2.81.52,4.27,4.27,0,0,1-4.19-5.72,4,4,0,0,1,4.29-3.19,4.09,4.09,0,0,1,3.73,4.84c-.09.42-.35.34-.6.34Zm-3.12-1.59c1.26,0,2.45,0,3.63,0,.29,0,.72.22.86-.18a1.09,1.09,0,0,0-.33-1,2.27,2.27,0,0,0-2.25-.74A2.23,2.23,0,0,0,686.18,307.05Z" style="fill:#d5c8e6;fill-rule:evenodd"/><path d="M665.25,308.64c-.9,0-1.8,0-2.69,0-.45,0-.49.18-.37.55a2.49,2.49,0,0,0,2.58,1.54,6.54,6.54,0,0,0,2.19-.41c.51-.2.67.09.7.48s.59.78-.15,1a8.88,8.88,0,0,1-3.34.55c-3-.21-4.65-2.87-3.74-5.82a4,4,0,0,1,3.75-3.07c3.35-.13,4.34,2.54,4.22,4.8,0,.42-.28.38-.55.38Zm-.92-1.59c.57,0,1.13,0,1.69,0s.68-.25.48-.74a2.1,2.1,0,0,0-2.26-1.21,2.32,2.32,0,0,0-2.07,1.57c-.1.4.13.37.38.37Z" style="fill:#d5c8e6;fill-rule:evenodd"/><path d="M697.51,303.45a16.59,16.59,0,0,1,3.12.45c.36.08.45.2.34.6-.34,1.21-.31,1.18-1.49,1a5.68,5.68,0,0,0-2.75-.09c-.36.11-.68.26-.69.7s.35.61.71.68c.85.16,1.72.23,2.56.43,1.58.36,2.23,1.17,2.18,2.59a2.56,2.56,0,0,1-2.39,2.47,8.94,8.94,0,0,1-4.57-.59c-.45-.15-.38-.37-.24-.73.3-.79.64-1.2,1.59-.71a4.86,4.86,0,0,0,2.8.38c.53-.06,1-.24,1.09-.87s-.5-.73-1-.82c-.81-.15-1.65-.23-2.46-.42a2.33,2.33,0,0,1-2.11-2.39,2.52,2.52,0,0,1,2.06-2.48A4.13,4.13,0,0,1,697.51,303.45Z" style="fill:#d5c8e6;fill-rule:evenodd"/><path d="M628.24,303.46a15.47,15.47,0,0,1,3,.4c.29.07.8.11.49.58s.15,1.38-.92,1.17c-.58-.11-1.17-.22-1.76-.29a4.76,4.76,0,0,0-1.25,0c-.45.08-1,.16-1,.81s.57.61,1,.7a21.41,21.41,0,0,1,2.73.49,2.3,2.3,0,0,1,1.74,2.32,2.43,2.43,0,0,1-1.76,2.44,8,8,0,0,1-5.33-.46c-.3-.11-.29-.28-.19-.55.45-1.18.49-1.21,1.66-.81a6.27,6.27,0,0,0,2.64.36c.58-.05,1.19-.16,1.23-.91s-.61-.71-1.07-.81c-.7-.15-1.43-.18-2.13-.33-1.6-.34-2.34-1.15-2.34-2.49a2.62,2.62,0,0,1,2.44-2.54A8.51,8.51,0,0,1,628.24,303.46Z" style="fill:#d5c8e6;fill-rule:evenodd"/><path d="M706.73,303.46a14.84,14.84,0,0,1,2.74.4c.27.06.82.07.5.57s.16,1.4-.9,1.17a8.14,8.14,0,0,0-3-.28c-.47.08-1,.17-1,.82s.57.62,1,.7c.82.16,1.67.21,2.48.42a2.25,2.25,0,0,1,2,2.49,2.44,2.44,0,0,1-2.07,2.46,8.48,8.48,0,0,1-4.92-.55c-.31-.11-.48-.32-.23-.59s.13-1.22,1-.94a8.29,8.29,0,0,0,3,.51,3.76,3.76,0,0,0,.88-.14.81.81,0,0,0,.66-.84c0-.45-.35-.6-.72-.67-1-.19-2.08-.3-3.08-.57a2.2,2.2,0,0,1-1.75-2.13,2.43,2.43,0,0,1,1.56-2.48,3.82,3.82,0,0,1,.51-.18A4.5,4.5,0,0,1,706.73,303.46Z" style="fill:#d5c8e6;fill-rule:evenodd"/><path d="M601.37,297.89c-.43,1.34-.84,2.58-1.24,3.82-.11.36-.36.42-.69.42q-3.57,0-7.16,0c-.52,0-.66-.2-.65-.69,0-1,0-2,0-2.95,0-.3,0-.61.42-.61Z" style="fill:#d5c8e6;fill-rule:evenodd"/><path d="M655.39,309.88l1.68-5c.42-1.28.42-1.26,1.74-1.17.45,0,.48.17.35.55-.87,2.48-1.74,5-2.57,7.45a.61.61,0,0,1-.63.47c-1.82.11-1.82.12-2.38-1.63-.66-2-1.3-4-2-6-.21-.6-.16-.77.55-.82.92-.06,1.3.24,1.52,1.13.44,1.71,1,3.39,1.52,5.09Z" style="fill:#d5c8e6;fill-rule:evenodd"/><path d="M678.81,306.56c0-1.56,0-3.11,0-4.66,0-.73-.21-1-.89-.85s-1-.19-.93-.93c0-.48.12-.69.65-.66a20,20,0,0,0,2.32,0c.59,0,.68.18.68.71,0,3.13,0,6.27,0,9.4,0,.78.23,1,1,.9.2,0,.42,0,.62,0,.86-.15,1.06.24,1,1,0,.48-.1.69-.64.67-1.05,0-2.09,0-3.14,0-.52,0-.64-.17-.63-.66C678.83,309.84,678.81,308.2,678.81,306.56Z" style="fill:#d5c8e6;fill-rule:evenodd"/><path d="M595.22,305.81c1,0,2,0,3,0,.48,0,.55.14.4.58-.37,1-.72,2.09-1,3.14a.68.68,0,0,1-.78.54c-1.49,0-3,0-4.48,0-.44,0-.66-.11-.65-.6,0-1,0-2,0-3.05,0-.46.17-.63.63-.61C593.25,305.83,594.23,305.81,595.22,305.81Z" style="fill:#d5c8e6;fill-rule:evenodd"/><path d="M672.16,304.67c1-1.56,2.57-.92,3.93-1.05.34,0,.36.19.38.46.13,1.38.14,1.38-1.23,1.38-3,0-3.08.11-3.08,3.05,0,1-.06,2,0,2.95s-.53.66-1,.67-1,.14-1-.71c.06-2.32,0-4.65,0-7,0-.43-.06-.9.6-.77.46.08,1.26-.38,1.16.67C672,304.41,672.09,304.49,672.16,304.67Z" style="fill:#d5c8e6;fill-rule:evenodd"/><path d="M645.42,304.71a4.51,4.51,0,0,1,4.1-1.06c.56.26.13.91.23,1.37s-.13.45-.46.44h-2c-1.29,0-1.85.57-1.86,1.88s-.06,2.69,0,4c0,.77-.31.82-.89.77s-1,.2-1-.73c.06-2.33,0-4.66,0-7,0-.45,0-.88.62-.75.47.09,1.26-.36,1.15.69A1.28,1.28,0,0,0,645.42,304.71Z" style="fill:#d5c8e6;fill-rule:evenodd"/><path d="M591.64,315.8c0-2.05,0-2.08,2-2,.78,0,1.86-.37,2.26.19.27.38-.33,1.41-.57,2.14-.62,1.9-.62,1.9-2.38,1.9-1.35,0-1.35,0-1.35-1.38Z" style="fill:#d5c8e6;fill-rule:evenodd"/><path d="M606.77,316.8c-2.67,0-5.33,0-8,0-.82,0-.85-.24-.6-.89.35-.92.66-1.86.94-2.81a.67.67,0,0,1,.76-.56H615c.46,0,.64.13.63.61,0,1,0,2,0,3,0,.59-.23.69-.74.68C612.21,316.79,609.49,316.8,606.77,316.8Z" style="fill:#f05e57;fill-rule:evenodd"/><path d="M608.1,308.88c-2.24,0-4.49,0-6.72,0-.77,0-.85-.21-.6-.86.35-.92.64-1.86.93-2.8a.73.73,0,0,1,.82-.61q6.22,0,12.46,0c.58,0,.7.23.68.74,0,.93,0,1.85,0,2.78,0,.61-.19.76-.76.75C612.64,308.86,610.37,308.88,608.1,308.88Z" style="fill:#f05e57;fill-rule:evenodd"/><path d="M609.34,301c-1.82,0-3.65,0-5.47,0-.6,0-.74-.13-.52-.71.37-.95.68-1.91,1-2.89a.74.74,0,0,1,.86-.66q4.91,0,9.79,0c.57,0,.72.18.7.72,0,.93,0,1.86,0,2.78,0,.61-.18.77-.76.76C613.05,300.93,611.2,301,609.34,301Z" style="fill:#f05e57;fill-rule:evenodd"/><path d="M637.39,307.46c-.83,0-1.67,0-2.51,0-.64,0-.61.26-.43.7a2.5,2.5,0,0,0,2.51,1.39,6.06,6.06,0,0,0,2.11-.38c.68-.29.71.16.87.6s.26.76-.36.92a14.93,14.93,0,0,1-2.73.51c-2.55.11-4.22-1.46-4.43-4.14a4.28,4.28,0,0,1,5.54-4.59,4.35,4.35,0,0,1,2.66,4.68c-.09.35-.3.32-.54.32Zm-.84-1.59c.56,0,1.13,0,1.69,0s.66-.25.46-.74a2.07,2.07,0,0,0-2.17-1.22,2.34,2.34,0,0,0-2.13,1.49c-.11.38,0,.47.37.46Z" style="fill:#080808;fill-rule:evenodd"/><path d="M688.12,307.46c-.87,0-1.73,0-2.6,0-.48,0-.57.13-.41.57a2.49,2.49,0,0,0,2.6,1.51,6.24,6.24,0,0,0,2.1-.38c.73-.29.68.29.85.66s.17.71-.36.86a12.42,12.42,0,0,1-2.81.52,4.27,4.27,0,0,1-4.19-5.72,4,4,0,0,1,4.28-3.19,4.07,4.07,0,0,1,3.73,4.84c-.08.42-.34.33-.59.34ZM685,305.87c1.26,0,2.45,0,3.63,0,.29,0,.72.22.86-.18a1.13,1.13,0,0,0-.33-1,2.28,2.28,0,0,0-2.26-.74A2.22,2.22,0,0,0,685,305.87Z" style="fill:#080808;fill-rule:evenodd"/><path d="M664.07,307.46c-.9,0-1.8,0-2.69,0-.46,0-.49.18-.38.55a2.5,2.5,0,0,0,2.59,1.54,6.59,6.59,0,0,0,2.19-.41c.51-.2.66.09.7.48s.59.78-.15,1a9.3,9.3,0,0,1-3.34.55c-3-.22-4.66-2.88-3.74-5.83a4,4,0,0,1,3.75-3.06c3.35-.13,4.34,2.54,4.22,4.8,0,.42-.28.38-.55.38Zm-.92-1.59c.56,0,1.13,0,1.69,0s.67-.25.48-.74a2.13,2.13,0,0,0-2.27-1.22A2.33,2.33,0,0,0,661,305.5c-.1.4.13.37.38.37Z" style="fill:#080808;fill-rule:evenodd"/><path d="M696.33,302.27a16.52,16.52,0,0,1,3.11.44c.37.09.46.21.35.61-.34,1.21-.31,1.18-1.49,1a5.81,5.81,0,0,0-2.75-.1c-.36.12-.68.27-.69.71s.35.61.71.67c.85.16,1.71.24,2.56.43,1.57.37,2.23,1.18,2.18,2.6a2.55,2.55,0,0,1-2.39,2.46,9,9,0,0,1-4.57-.58c-.45-.16-.38-.37-.24-.73.3-.79.63-1.21,1.59-.71a4.86,4.86,0,0,0,2.8.38c.53-.07,1-.24,1.09-.87s-.51-.73-1-.82c-.82-.16-1.66-.23-2.47-.42a2.34,2.34,0,0,1-2.1-2.39,2.53,2.53,0,0,1,2.06-2.49A4.42,4.42,0,0,1,696.33,302.27Z" style="fill:#080808;fill-rule:evenodd"/><path d="M627.05,302.28a14.72,14.72,0,0,1,3,.4c.28.07.8.1.48.58s.15,1.38-.91,1.17c-.58-.11-1.17-.23-1.76-.29a4.36,4.36,0,0,0-1.25,0c-.46.07-1,.16-1,.81s.58.61,1,.7a19.27,19.27,0,0,1,2.73.49,2.29,2.29,0,0,1,1.75,2.32,2.42,2.42,0,0,1-1.76,2.43,7.9,7.9,0,0,1-5.33-.45c-.31-.12-.3-.28-.19-.55.45-1.18.48-1.21,1.66-.81a6.27,6.27,0,0,0,2.64.36c.58-.06,1.18-.16,1.23-.91s-.62-.72-1.08-.81c-.69-.16-1.42-.18-2.12-.33-1.61-.34-2.35-1.15-2.34-2.49s.88-2.23,2.44-2.54A6.31,6.31,0,0,1,627.05,302.28Z" style="fill:#080808;fill-rule:evenodd"/><path d="M705.54,302.28a14.14,14.14,0,0,1,2.75.4c.27.06.82.07.5.57s.16,1.4-.91,1.17a8.06,8.06,0,0,0-3-.28c-.47.07-1,.17-1,.82s.57.61,1,.7c.82.15,1.67.21,2.47.41a2.27,2.27,0,0,1,2,2.5,2.43,2.43,0,0,1-2.07,2.45,8.47,8.47,0,0,1-4.92-.54c-.31-.12-.48-.32-.23-.59s.13-1.22,1-.94a8.47,8.47,0,0,0,3,.51,3.84,3.84,0,0,0,.88-.14.82.82,0,0,0,.66-.85c0-.44-.35-.59-.73-.66-1-.19-2.07-.31-3.08-.58a2.18,2.18,0,0,1-1.74-2.13,2.4,2.4,0,0,1,1.56-2.47,4.24,4.24,0,0,1,.5-.18A4.57,4.57,0,0,1,705.54,302.28Z" style="fill:#080808;fill-rule:evenodd"/><path d="M600.19,296.71c-.44,1.34-.85,2.58-1.24,3.82-.12.36-.36.42-.69.42-2.39,0-4.77,0-7.16,0-.52,0-.67-.21-.65-.69,0-1,0-2,0-2.95,0-.3,0-.62.43-.62Z" style="fill:#f05e57;fill-rule:evenodd"/><path d="M654.21,308.7l1.68-5c.42-1.28.42-1.26,1.74-1.17.44,0,.48.16.34.55q-1.31,3.72-2.57,7.44a.58.58,0,0,1-.63.47c-1.81.12-1.81.13-2.38-1.62-.65-2-1.29-4-2-6-.21-.61-.15-.77.56-.82a1.24,1.24,0,0,1,1.52,1.13c.44,1.71,1,3.39,1.51,5.09Z" style="fill:#080808;fill-rule:evenodd"/><path d="M677.63,305.38c0-1.56,0-3.11,0-4.66,0-.73-.21-1-.89-.86s-1-.18-.93-.92c0-.48.11-.69.64-.66a18.11,18.11,0,0,0,2.33,0c.59,0,.68.19.68.71,0,3.14,0,6.28,0,9.41,0,.78.22,1,.94.9.21,0,.43,0,.63,0,.85-.16,1.06.23,1,1,0,.47-.1.69-.63.67-1,0-2.1,0-3.14,0-.53,0-.64-.17-.63-.67C677.64,308.66,677.63,307,677.63,305.38Z" style="fill:#080808;fill-rule:evenodd"/><path d="M594,304.63c1,0,2,0,3,0,.47,0,.55.14.4.58-.37,1-.73,2.08-1,3.14a.66.66,0,0,1-.78.53H591.1c-.44,0-.66-.11-.65-.59,0-1,0-2,0-3.05,0-.46.16-.63.63-.62C592.06,304.65,593.05,304.63,594,304.63Z" style="fill:#f05e57;fill-rule:evenodd"/><path d="M671,303.49c1-1.57,2.57-.92,3.93-1.05.34,0,.35.19.38.45.13,1.39.13,1.39-1.23,1.39-3,0-3.08.1-3.08,3.05,0,1-.06,2,0,2.95s-.53.65-1,.67-1,.14-.95-.71c.06-2.32,0-4.65,0-7,0-.43-.05-.9.61-.77.46.08,1.25-.39,1.16.67C670.84,303.23,670.9,303.31,671,303.49Z" style="fill:#080808;fill-rule:evenodd"/><path d="M644.23,303.53a4.54,4.54,0,0,1,4.11-1.06c.56.26.12.91.23,1.37s-.13.45-.46.44h-2c-1.29,0-1.85.57-1.86,1.87s-.06,2.7,0,4c.05.77-.3.82-.88.77s-1,.19-1-.73c.07-2.33,0-4.66,0-7,0-.45,0-.89.62-.76.47.09,1.26-.36,1.15.7A1.72,1.72,0,0,0,644.23,303.53Z" style="fill:#080808;fill-rule:evenodd"/><path d="M590.45,314.62c0-2.06,0-2.08,2-2.05.78,0,1.85-.36,2.26.2.27.38-.33,1.41-.57,2.14-.62,1.89-.63,1.89-2.38,1.89-1.36,0-1.36,0-1.36-1.38Z" style="fill:#f05e57;fill-rule:evenodd"/><path d="M497.2,81.39A23.16,23.16,0,1,1,474,58.24,23.16,23.16,0,0,1,497.2,81.39Z" style="fill:#f2f2f2"/></g></svg>