<svg width="210" height="36" viewBox="0 0 210 36" fill="none" xmlns="http://www.w3.org/2000/svg">
<path d="M6 0H204C207.3 0 210 2.7 210 6V30C210 33.3 207.3 36 204 36H6C2.7 36 0 33.3 0 30V6C0 2.7 2.7 0 6 0Z" fill="#663399"/>
<path d="M25.9 12.1C25.1 11.3 24.2 10.7 23.2 10.3C22.2 9.9 21.1 9.7 20 9.7C17.8 9.7 15.7 10.6 14.1 12.1C12.5 13.6 11.7 15.8 11.7 18C11.7 20.2 12.6 22.3 14.1 23.9C14.9 24.7 15.8 25.3 16.8 25.7C17.8 26.1 18.9 26.3 20 26.3C22.2 26.3 24.3 25.4 25.9 23.9C27.5 22.4 28.3 20.2 28.3 18C28.3 16.9 28.1 15.8 27.7 14.8C27.3 13.8 26.7 12.9 25.9 12.1V12.1ZM20 24.7C18.2 24.7 16.5 24 15.3 22.7C14 21.4 13.3 19.8 13.3 18C20.1 24.7 20 24.7 20 24.7ZM21.7 24.5L13.6 16.4C14.3 13.5 16.9 11.4 20.1 11.4C22.3 11.4 24.2 12.5 25.4 14.1L24.4 15C23.4 13.7 21.9 12.8 20.1 12.8C17.9 12.8 15.9 14.2 15.1 16.2L22 23.1C23.6 22.5 24.8 21.1 25.2 19.4H22.3V18H26.7C26.7 21.1 24.5 23.7 21.7 24.5V24.5ZM61.2 15.7C60.7 15.4 60.2 15.2 59.6 15.2C59.2 15.2 58.8 15.3 58.5 15.4C58.2 15.5 58 15.7 57.8 15.9C57.6 16.1 57.5 16.3 57.4 16.5H57.3V15.2H55.5V25.7H57.3V21.6H57.4C57.5 21.8 57.6 22 57.8 22.2C58 22.4 58.2 22.6 58.5 22.7C58.8 22.8 59.2 22.9 59.6 22.9C60.2 22.9 60.7 22.7 61.2 22.4C61.7 22.1 62 21.6 62.3 21.1C62.6 20.5 62.7 19.8 62.7 19C62.7 18.2 62.6 17.4 62.3 16.9C62.1 16.5 61.7 16 61.2 15.7ZM60.7 20.5C60.6 20.9 60.4 21.2 60.1 21.4C59.8 21.6 59.5 21.7 59.1 21.7C58.7 21.7 58.4 21.6 58.1 21.4C57.8 21.2 57.6 20.9 57.5 20.5C57.4 20.1 57.3 19.7 57.3 19.2C57.3 18.7 57.4 18.3 57.5 17.9C57.6 17.5 57.8 17.3 58.1 17C58.4 16.8 58.7 16.7 59.1 16.7C59.5 16.7 59.8 16.8 60.1 17C60.4 17.2 60.6 17.5 60.7 17.9C60.8 18.3 60.9 18.7 60.9 19.2C61 19.7 60.9 20.1 60.7 20.5ZM43.1 13.4C42.4 13 41.5 12.8 40.5 12.8H37V23H40.5C41.5 23 42.4 22.8 43.2 22.4C43.9 22 44.5 21.4 44.9 20.6C45.3 19.8 45.5 18.9 45.5 17.9C45.5 16.8 45.3 15.9 44.9 15.2C44.4 14.4 43.9 13.8 43.1 13.4V13.4ZM43.2 19.8C43 20.3 42.6 20.7 42.1 21C41.6 21.3 41 21.4 40.3 21.4H38.8V14.4H40.4C41.1 14.4 41.7 14.5 42.1 14.8C42.6 15.1 42.9 15.4 43.2 16C43.4 16.5 43.6 17.2 43.6 17.9C43.6 18.7 43.4 19.3 43.2 19.8V19.8ZM52.9 16.2C52.6 15.9 52.2 15.7 51.8 15.5C51.4 15.3 50.9 15.3 50.5 15.3C49.8 15.3 49.1 15.5 48.6 15.8C48.1 16.1 47.6 16.6 47.3 17.2C47 17.8 46.9 18.5 46.9 19.3C46.9 20.1 47 20.8 47.3 21.4C47.6 22 48 22.4 48.6 22.8C49.2 23.1 49.8 23.3 50.6 23.3C51.2 23.3 51.7 23.2 52.2 23C52.7 22.8 53 22.6 53.3 22.2C53.6 21.9 53.8 21.5 53.9 21L52.2 20.8C52.1 21 52 21.2 51.8 21.3C51.6 21.4 51.5 21.6 51.2 21.6C51 21.7 50.8 21.7 50.5 21.7C50.1 21.7 49.8 21.6 49.5 21.5C49.2 21.3 49 21.1 48.8 20.8C48.6 20.5 48.6 20.1 48.6 19.7H54V19.1C54 18.4 53.9 17.9 53.7 17.4C53.5 16.9 53.2 16.5 52.9 16.2V16.2ZM48.6 18.5C48.6 18.2 48.7 17.9 48.8 17.7C49 17.4 49.2 17.2 49.5 17C49.8 16.8 50.1 16.7 50.5 16.7C50.8 16.7 51.1 16.8 51.4 16.9C51.7 17.1 51.9 17.3 52 17.5C52.1 17.8 52.2 18.1 52.2 18.4L48.6 18.5ZM151.3 15.4H153.2L150.1 24C150 24.4 149.8 24.8 149.5 25C149.3 25.3 149 25.5 148.6 25.7C148.3 25.9 147.9 25.9 147.4 25.9C147.2 25.9 146.9 25.9 146.7 25.8C146.5 25.8 146.3 25.7 146.2 25.7L146.6 24.3C146.9 24.4 147.1 24.4 147.3 24.4C147.5 24.4 147.7 24.3 147.8 24.2C148 24.1 148.1 23.9 148.2 23.6L148.4 23.2L145.6 15.4H147.5L149.3 21.2H149.4L151.3 15.4ZM160.2 16C160 16.5 159.8 17.2 159.8 17.9C159.8 18.7 159.9 19.3 160.2 19.9C160.4 20.4 160.8 20.8 161.2 21.1C161.6 21.4 162.1 21.5 162.7 21.5C163 21.5 163.3 21.5 163.6 21.4C163.9 21.3 164.1 21.2 164.3 21C164.5 20.8 164.7 20.6 164.8 20.4C164.9 20.2 165.1 19.9 165.1 19.6H167C166.9 20.1 166.8 20.5 166.5 21C166.3 21.4 166 21.8 165.6 22.1C165.2 22.4 164.8 22.7 164.3 22.9C163.8 23.1 163.3 23.2 162.6 23.2C161.7 23.2 160.9 23 160.2 22.6C159.5 22.2 158.9 21.6 158.5 20.8C158.1 20 157.9 19.1 157.9 18C157.9 16.9 158.1 16 158.5 15.2C158.9 14.4 159.5 13.8 160.2 13.4C160.9 13 161.7 12.8 162.6 12.8C163.2 12.8 163.7 12.9 164.2 13C164.7 13.1 165.1 13.4 165.5 13.7C165.9 14 166.2 14.4 166.4 14.8C166.6 15.2 166.8 15.7 166.9 16.3H165C164.9 16 164.8 15.7 164.7 15.5C164.6 15.3 164.4 15.1 164.2 14.9C164 14.7 163.7 14.6 163.5 14.5C163.2 14.4 162.9 14.4 162.6 14.4C162 14.4 161.6 14.5 161.1 14.8C160.8 15 160.5 15.4 160.2 16V16ZM185.9 15.4H187.7V23H186V21.6H185.9C185.7 22 185.4 22.4 185.1 22.6C184.7 22.9 184.2 23 183.7 23C183.2 23 182.8 22.9 182.4 22.7C182 22.5 181.7 22.1 181.5 21.7C181.3 21.3 181.2 20.7 181.2 20.1V15.2H183V19.8C183 20.3 183.1 20.7 183.4 21C183.7 21.3 184 21.4 184.4 21.4C184.7 21.4 184.9 21.3 185.2 21.2C185.4 21.1 185.7 20.9 185.8 20.6C186 20.3 186 20 186 19.6V15.4H185.9ZM194.8 12.8V16.6H194.7C194.6 16.4 194.5 16.2 194.3 16C194.1 15.8 193.9 15.6 193.6 15.5C193.3 15.3 192.9 15.3 192.5 15.3C191.9 15.3 191.4 15.5 190.9 15.8C190.4 16.1 190 16.5 189.8 17.1C189.5 17.7 189.4 18.4 189.4 19.2C189.4 20 189.5 20.8 189.8 21.3C190.1 21.9 190.4 22.3 190.9 22.6C191.4 22.9 191.9 23.1 192.5 23.1C192.9 23.1 193.3 23 193.6 22.9C193.9 22.8 194.1 22.6 194.3 22.4C194.5 22.2 194.6 22 194.7 21.8H194.8V23H196.6V12.8H194.8ZM194.6 20.5C194.5 20.9 194.3 21.2 194 21.4C193.7 21.6 193.4 21.7 193 21.7C192.6 21.7 192.3 21.6 192 21.4C191.7 21.2 191.5 20.9 191.4 20.5C191.3 20.1 191.2 19.7 191.2 19.2C191.2 18.7 191.3 18.3 191.4 17.9C191.5 17.5 191.7 17.2 192 17C192.3 16.8 192.6 16.7 193 16.7C193.4 16.7 193.7 16.8 194 17C194.3 17.2 194.5 17.5 194.6 17.9C194.7 18.3 194.8 18.7 194.8 19.2C194.8 19.7 194.7 20.1 194.6 20.5ZM177.7 15.8C177.2 15.5 176.5 15.3 175.8 15.3C175.1 15.3 174.4 15.5 173.9 15.8C173.4 16.1 172.9 16.6 172.6 17.2C172.3 17.8 172.2 18.5 172.2 19.3C172.2 20.1 172.3 20.8 172.6 21.4C172.9 22 173.3 22.4 173.9 22.8C174.4 23.1 175.1 23.3 175.8 23.3C176.5 23.3 177.2 23.1 177.7 22.8C178.2 22.5 178.7 22 179 21.4C179.3 20.8 179.5 20.1 179.5 19.3C179.5 18.5 179.3 17.8 179 17.2C178.7 16.5 178.3 16.1 177.7 15.8V15.8ZM177.4 20.5C177.3 20.9 177.1 21.2 176.8 21.4C176.5 21.6 176.2 21.7 175.8 21.7C175.4 21.7 175 21.6 174.8 21.4C174.5 21.2 174.3 20.9 174.2 20.5C174.1 20.1 174 19.7 174 19.2C174 18.7 174.1 18.3 174.2 17.9C174.3 17.5 174.5 17.2 174.8 17C175.1 16.8 175.4 16.7 175.8 16.7C176.2 16.7 176.5 16.8 176.8 17C177.1 17.2 177.3 17.5 177.4 17.9C177.5 18.3 177.6 18.7 177.6 19.2C177.6 19.7 177.5 20.1 177.4 20.5ZM168.7 12.8H170.5V23H168.7V12.8ZM98.9 15.8C98.4 15.5 97.7 15.3 97 15.3C96.3 15.3 95.6 15.5 95.1 15.8C94.6 16.1 94.1 16.6 93.8 17.2C93.5 17.8 93.4 18.5 93.4 19.3C93.4 20.1 93.5 20.8 93.8 21.4C94.1 22 94.5 22.4 95.1 22.8C95.6 23.1 96.3 23.3 97 23.3C97.7 23.3 98.4 23.1 98.9 22.8C99.4 22.5 99.9 22 100.2 21.4C100.5 20.8 100.7 20.1 100.7 19.3C100.7 18.5 100.5 17.8 100.2 17.2C99.9 16.5 99.5 16.1 98.9 15.8V15.8ZM98.6 20.5C98.5 20.9 98.3 21.2 98 21.4C97.7 21.6 97.4 21.7 97 21.7C96.6 21.7 96.2 21.6 96 21.4C95.7 21.2 95.5 20.9 95.4 20.5C95.3 20.1 95.2 19.7 95.2 19.2C95.2 18.7 95.3 18.3 95.4 17.9C95.5 17.5 95.7 17.2 96 17C96.3 16.8 96.6 16.7 97 16.7C97.4 16.7 97.7 16.8 98 17C98.3 17.2 98.5 17.5 98.6 17.9C98.7 18.3 98.8 18.7 98.8 19.2C98.8 19.7 98.7 20.1 98.6 20.5ZM121.7 15.8C121.4 15.6 121.1 15.5 120.7 15.4C120.3 15.3 120 15.3 119.6 15.3C119.1 15.3 118.6 15.4 118.1 15.5C117.7 15.7 117.3 15.9 117 16.2C116.7 16.5 116.5 16.9 116.3 17.4L118 17.6C118.1 17.3 118.3 17.1 118.5 16.9C118.8 16.7 119.1 16.6 119.5 16.6C119.9 16.6 120.2 16.7 120.5 16.9C120.8 17.1 120.8 17.4 120.8 17.8C120.8 18 120.7 18.1 120.6 18.2C120.5 18.3 120.3 18.3 120 18.4C119.7 18.4 119.4 18.5 118.9 18.5C118.5 18.5 118.2 18.6 117.8 18.7C117.5 18.8 117.1 18.9 116.9 19.1C116.6 19.3 116.4 19.5 116.2 19.8C116 20.1 116 20.4 116 20.9C116 21.4 116.1 21.8 116.3 22.2C116.5 22.5 116.8 22.8 117.2 23C117.6 23.2 118 23.3 118.5 23.3C118.9 23.3 119.2 23.2 119.5 23.1C119.8 23 120 22.8 120.2 22.7C120.4 22.5 120.6 22.3 120.7 22.1H120.8V23.1H122.5V18C122.5 17.5 122.4 17.1 122.2 16.7C122.3 16.3 122 16 121.7 15.8V15.8ZM121 20.3C121 20.6 120.9 20.8 120.8 21.1C120.7 21.3 120.5 21.5 120.2 21.7C119.9 21.8 119.6 21.9 119.3 21.9C118.9 21.9 118.6 21.8 118.4 21.6C118.2 21.4 118 21.2 118 20.8C118 20.6 118.1 20.4 118.2 20.2C118.3 20.1 118.5 19.9 118.7 19.9C118.9 19.8 119.2 19.8 119.4 19.7C119.5 19.7 119.7 19.7 119.8 19.6C120 19.6 120.1 19.6 120.3 19.5C120.5 19.5 120.6 19.4 120.7 19.4C120.8 19.4 120.9 19.3 121 19.3V20.3ZM110.6 17.7H114.7V18.9C114.7 19.8 114.5 20.5 114.1 21.2C113.7 21.8 113.2 22.3 112.6 22.7C112 23 111.2 23.2 110.4 23.2C109.5 23.2 108.6 23 107.9 22.6C107.2 22.2 106.6 21.6 106.2 20.8C105.8 20 105.6 19.1 105.6 18C105.6 17.2 105.7 16.4 105.9 15.8C106.1 15.2 106.5 14.6 106.9 14.2C107.3 13.7 107.8 13.4 108.4 13.2C109 13 109.6 12.8 110.2 12.8C110.8 12.8 111.3 12.9 111.8 13C112.3 13.2 112.7 13.4 113.1 13.7C113.5 14 113.8 14.4 114 14.8C114.2 15.2 114.4 15.7 114.5 16.2H112.6C112.5 15.9 112.4 15.7 112.3 15.5C112.2 15.3 112 15.1 111.8 14.9C111.6 14.7 111.4 14.6 111.1 14.6C110.8 14.5 110.6 14.5 110.3 14.5C109.8 14.5 109.3 14.6 108.8 14.9C108.4 15.2 108 15.6 107.8 16.1C107.6 16.6 107.4 17.3 107.4 18C107.4 18.8 107.5 19.4 107.8 20C108 20.5 108.4 20.9 108.8 21.2C109.2 21.5 109.7 21.6 110.3 21.6C110.8 21.6 111.3 21.5 111.6 21.3C112 21.1 112.3 20.8 112.5 20.5C112.7 20.1 112.8 19.7 112.8 19.3H110.5L110.6 17.7ZM128.3 21.5L128.6 22.9C128.5 22.9 128.4 23 128.2 23C128 23 127.8 23.1 127.6 23.1C127.1 23.1 126.7 23 126.4 22.9C126 22.7 125.8 22.5 125.5 22.2C125.3 21.9 125.2 21.5 125.2 21V16.8H124.1V15.4H125.2V13.6H127V15.4H128.5V16.8H127V20.7C127 20.9 127 21.1 127.1 21.3C127.2 21.4 127.3 21.5 127.4 21.6C127.5 21.6 127.7 21.7 127.8 21.7C127.9 21.7 128 21.7 128.1 21.7C128.2 21.5 128.3 21.5 128.3 21.5V21.5ZM135.6 19.4C136 19.7 136.1 20.2 136.1 20.7C136.1 21.2 136 21.6 135.7 22C135.4 22.4 135 22.6 134.6 22.9C134.1 23.1 133.5 23.2 132.9 23.2C132 23.2 131.2 23 130.6 22.6C130 22.2 129.7 21.7 129.6 21L131.4 20.8C131.5 21.1 131.6 21.4 131.9 21.6C132.2 21.8 132.5 21.9 132.9 21.9C133.3 21.9 133.7 21.8 133.9 21.6C134.2 21.4 134.3 21.2 134.3 20.9C134.3 20.7 134.2 20.5 134 20.4C133.8 20.3 133.6 20.1 133.2 20.1L131.9 19.8C131.2 19.6 130.6 19.4 130.3 19C129.9 18.6 129.8 18.2 129.8 17.6C129.8 17.1 129.9 16.7 130.2 16.4C130.5 16.1 130.8 15.8 131.3 15.6C131.8 15.4 132.3 15.3 132.9 15.3C133.8 15.3 134.5 15.5 135 15.9C135.5 16.3 135.8 16.8 136 17.4L134.4 17.6C134.4 17.4 134.3 17.3 134.2 17.1C134.1 17 133.9 16.8 133.7 16.7C133.5 16.6 133.3 16.6 133 16.6C132.6 16.6 132.3 16.7 132.1 16.8C131.8 17 131.7 17.2 131.7 17.4C131.7 17.6 131.8 17.8 131.9 17.9C132.1 18 132.3 18.2 132.7 18.2L134 18.5C134.7 18.8 135.3 19 135.6 19.4ZM81.5 15.4H83.4L80.3 24C80.2 24.4 80 24.8 79.7 25C79.5 25.3 79.2 25.5 78.8 25.7C78.5 25.9 78.1 25.9 77.6 25.9C77.4 25.9 77.1 25.9 76.9 25.8C76.7 25.8 76.5 25.7 76.4 25.7L76.8 24.3C77.1 24.4 77.3 24.4 77.5 24.4C77.7 24.4 77.9 24.3 78 24.2C78.2 24.1 78.3 23.9 78.4 23.6L78.6 23.2L75.8 15.4H77.7L79.5 21.2H79.6L81.5 15.4ZM91.9 21.5L92.2 22.9C92.2 23 92 23 91.8 23C91.6 23 91.4 23.1 91.2 23.1C90.7 23.1 90.3 23 90 22.9C89.6 22.7 89.4 22.5 89.1 22.2C88.9 21.9 88.8 21.5 88.8 21V16.8H87.7V15.4H88.8V13.6H90.6V15.4H92.1V16.8H90.6V20.7C90.6 20.9 90.6 21.1 90.7 21.3C90.8 21.4 90.9 21.5 91 21.6C91.1 21.6 91.3 21.7 91.4 21.7C91.5 21.7 91.6 21.7 91.7 21.7C91.8 21.5 91.9 21.5 91.9 21.5V21.5ZM143.5 15.7C143 15.4 142.5 15.2 141.9 15.2C141.5 15.2 141.1 15.3 140.8 15.4C140.5 15.5 140.3 15.7 140.1 15.9C139.9 16.1 139.8 16.3 139.7 16.5H139.6V12.7H137.8V23H139.6V21.8H139.7C139.8 22 139.9 22.2 140.1 22.4C140.3 22.6 140.5 22.8 140.8 22.9C141.1 23 141.5 23.1 141.9 23.1C142.5 23.1 143 22.9 143.5 22.6C144 22.3 144.3 21.8 144.6 21.3C144.9 20.7 145 20 145 19.2C145 18.4 144.9 17.6 144.6 17.1C144.3 16.5 144 16 143.5 15.7V15.7ZM143 20.5C142.9 20.9 142.7 21.2 142.4 21.4C142.1 21.6 141.8 21.7 141.4 21.7C141 21.7 140.7 21.6 140.4 21.4C140.1 21.2 139.9 20.9 139.8 20.5C139.7 20.1 139.6 19.7 139.6 19.2C139.6 18.7 139.7 18.3 139.8 17.9C139.9 17.5 140.1 17.3 140.4 17C140.7 16.8 141 16.7 141.4 16.7C141.8 16.7 142.1 16.8 142.4 17C142.7 17.2 142.9 17.5 143 17.9C143.1 18.3 143.2 18.7 143.2 19.2C143.2 19.7 143.1 20.1 143 20.5ZM73.5 15.8C73 15.5 72.3 15.3 71.6 15.3C70.9 15.3 70.2 15.5 69.7 15.8C69.2 16.1 68.7 16.6 68.4 17.2C68.1 17.8 68 18.5 68 19.3C68 20.1 68.1 20.8 68.4 21.4C68.7 22 69.1 22.4 69.7 22.8C70.2 23.1 70.9 23.3 71.6 23.3C72.3 23.3 73 23.1 73.5 22.8C74 22.5 74.5 22 74.8 21.4C75.1 20.8 75.3 20.1 75.3 19.3C75.3 18.5 75.1 17.8 74.8 17.2C74.4 16.5 74 16.1 73.5 15.8V15.8ZM73.2 20.5C73.1 20.9 72.9 21.2 72.6 21.4C72.3 21.6 72 21.7 71.6 21.7C71.2 21.7 70.8 21.6 70.6 21.4C70.3 21.2 70.1 20.9 70 20.5C69.9 20.1 69.8 19.7 69.8 19.2C69.8 18.7 69.9 18.3 70 17.9C70.1 17.5 70.3 17.2 70.6 17C70.9 16.8 71.2 16.7 71.6 16.7C72 16.7 72.3 16.8 72.6 17C72.9 17.2 73.1 17.5 73.2 17.9C73.3 18.3 73.4 18.7 73.4 19.2C73.4 19.7 73.3 20.1 73.2 20.5ZM64.4 12.8H66.2V23H64.4V12.8Z" fill="white"/>
</svg>
