<svg height="36" viewBox="0 0 210 36" width="210" xmlns="http://www.w3.org/2000/svg">
  <path d="m6 0h198c3.3 0 6 2.7 6 6v24c0 3.3-2.7 6-6 6h-198c-3.3 0-6-2.7-6-6v-24c0-3.3 2.7-6 6-6z" fill="#639"/>
  <path d="m25.9 12.1c-.8-.8-1.7-1.4-2.7-1.8s-2.1-.6-3.2-.6c-2.2 0-4.3.9-5.9 2.4s-2.4 3.7-2.4 5.9.9 4.3 2.4 5.9c.8.8 1.7 1.4 2.7 1.8s2.1.6 3.2.6c2.2 0 4.3-.9 5.9-2.4s2.4-3.7 2.4-5.9c0-1.1-.2-2.2-.6-3.2s-1-1.9-1.8-2.7zm-5.9 12.6c-1.8 0-3.5-.7-4.7-2-1.3-1.3-2-2.9-2-4.7 6.8 6.7 6.7 6.7 6.7 6.7zm1.7-.2-8.1-8.1c.7-2.9 3.3-5 6.5-5 2.2 0 4.1 1.1 5.3 2.7l-1 .9c-1-1.3-2.5-2.2-4.3-2.2-2.2 0-4.2 1.4-5 3.4l6.9 6.9c1.6-.6 2.8-2 3.2-3.7h-2.9v-1.4h4.4c0 3.1-2.2 5.7-5 6.5zm39.5-8.8c-.5-.3-1-.5-1.6-.5-.4 0-.8.1-1.1.2s-.5.3-.7.5-.3.4-.4.6h-.1v-1.3h-1.8v10.5h1.8v-4.1h.1c.1.2.2.4.4.6s.4.4.7.5.7.2 1.1.2c.6 0 1.1-.2 1.6-.5s.8-.8 1.1-1.3c.3-.6.4-1.3.4-2.1s-.1-1.6-.4-2.1c-.2-.4-.6-.9-1.1-1.2zm-.5 4.8c-.1.4-.3.7-.6.9s-.6.3-1 .3-.7-.1-1-.3-.5-.5-.6-.9-.2-.8-.2-1.3.1-.9.2-1.3.3-.6.6-.9c.3-.2.6-.3 1-.3s.7.1 1 .3.5.5.6.9.2.8.2 1.3c.1.5 0 .9-.2 1.3zm-17.6-7.1c-.7-.4-1.6-.6-2.6-.6h-3.5v10.2h3.5c1 0 1.9-.2 2.7-.6.7-.4 1.3-1 1.7-1.8s.6-1.7.6-2.7c0-1.1-.2-2-.6-2.7-.5-.8-1-1.4-1.8-1.8zm.1 6.4c-.2.5-.6.9-1.1 1.2s-1.1.4-1.8.4h-1.5v-7h1.6c.7 0 1.3.1 1.7.4.5.3.8.6 1.1 1.2.2.5.4 1.2.4 1.9 0 .8-.2 1.4-.4 1.9zm9.7-3.6c-.3-.3-.7-.5-1.1-.7s-.9-.2-1.3-.2c-.7 0-1.4.2-1.9.5s-1 .8-1.3 1.4-.4 1.3-.4 2.1.1 1.5.4 2.1.7 1 1.3 1.4c.6.3 1.2.5 2 .5.6 0 1.1-.1 1.6-.3s.8-.4 1.1-.8c.3-.3.5-.7.6-1.2l-1.7-.2c-.1.2-.2.4-.4.5s-.3.3-.6.3c-.2.1-.4.1-.7.1-.4 0-.7-.1-1-.2-.3-.2-.5-.4-.7-.7s-.2-.7-.2-1.1h5.4v-.6c0-.7-.1-1.2-.3-1.7s-.5-.9-.8-1.2zm-4.3 2.3c0-.3.1-.6.2-.8.2-.3.4-.5.7-.7s.6-.3 1-.3c.3 0 .6.1.9.2.3.2.5.4.6.6.1.3.2.6.2.9zm102.7-3.1h1.9l-3.1 8.6c-.1.4-.3.8-.6 1-.2.3-.5.5-.9.7-.3.2-.7.2-1.2.2-.2 0-.5 0-.7-.1-.2 0-.4-.1-.5-.1l.4-1.4c.3.1.5.1.7.1s.4-.1.5-.2c.2-.1.3-.3.4-.6l.2-.4-2.8-7.8h1.9l1.8 5.8h.1zm8.9.6c-.2.5-.4 1.2-.4 1.9 0 .8.1 1.4.4 2 .2.5.6.9 1 1.2s.9.4 1.5.4c.3 0 .6 0 .9-.1s.5-.2.7-.4.4-.4.5-.6.3-.5.3-.8h1.9c-.1.5-.2.9-.5 1.4-.2.4-.5.8-.9 1.1s-.8.6-1.3.8-1 .3-1.7.3c-.9 0-1.7-.2-2.4-.6s-1.3-1-1.7-1.8-.6-1.7-.6-2.8.2-2 .6-2.8 1-1.4 1.7-1.8 1.5-.6 2.4-.6c.6 0 1.1.1 1.6.2s.9.4 1.3.7.7.7.9 1.1.4.9.5 1.5h-1.9c-.1-.3-.2-.6-.3-.8s-.3-.4-.5-.6-.5-.3-.7-.4c-.3-.1-.6-.1-.9-.1-.6 0-1 .1-1.5.4-.3.2-.6.6-.9 1.2zm25.7-.6h1.8v7.6h-1.7v-1.4h-.1c-.2.4-.5.8-.8 1-.4.3-.9.4-1.4.4s-.9-.1-1.3-.3-.7-.6-.9-1-.3-1-.3-1.6v-4.9h1.8v4.6c0 .5.1.9.4 1.2s.6.4 1 .4c.3 0 .5-.1.8-.2.2-.1.5-.3.6-.6.2-.3.2-.6.2-1v-4.2zm8.9-2.6v3.8h-.1c-.1-.2-.2-.4-.4-.6s-.4-.4-.7-.5c-.3-.2-.7-.2-1.1-.2-.6 0-1.1.2-1.6.5s-.9.7-1.1 1.3c-.3.6-.4 1.3-.4 2.1s.1 1.6.4 2.1c.3.6.6 1 1.1 1.3s1 .5 1.6.5c.4 0 .8-.1 1.1-.2s.5-.3.7-.5.3-.4.4-.6h.1v1.2h1.8v-10.2zm-.2 7.7c-.1.4-.3.7-.6.9s-.6.3-1 .3-.7-.1-1-.3-.5-.5-.6-.9-.2-.8-.2-1.3.1-.9.2-1.3.3-.7.6-.9.6-.3 1-.3.7.1 1 .3.5.5.6.9.2.8.2 1.3-.1.9-.2 1.3zm-16.9-4.7c-.5-.3-1.2-.5-1.9-.5s-1.4.2-1.9.5-1 .8-1.3 1.4-.4 1.3-.4 2.1.1 1.5.4 2.1.7 1 1.3 1.4c.5.3 1.2.5 1.9.5s1.4-.2 1.9-.5 1-.8 1.3-1.4.5-1.3.5-2.1-.2-1.5-.5-2.1c-.3-.7-.7-1.1-1.3-1.4zm-.3 4.7c-.1.4-.3.7-.6.9s-.6.3-1 .3-.8-.1-1-.3c-.3-.2-.5-.5-.6-.9s-.2-.8-.2-1.3.1-.9.2-1.3.3-.7.6-.9.6-.3 1-.3.7.1 1 .3.5.5.6.9.2.8.2 1.3-.1.9-.2 1.3zm-8.7-7.7h1.8v10.2h-1.8zm-69.8 3c-.5-.3-1.2-.5-1.9-.5s-1.4.2-1.9.5-1 .8-1.3 1.4-.4 1.3-.4 2.1.1 1.5.4 2.1.7 1 1.3 1.4c.5.3 1.2.5 1.9.5s1.4-.2 1.9-.5 1-.8 1.3-1.4.5-1.3.5-2.1-.2-1.5-.5-2.1c-.3-.7-.7-1.1-1.3-1.4zm-.3 4.7c-.1.4-.3.7-.6.9s-.6.3-1 .3-.8-.1-1-.3c-.3-.2-.5-.5-.6-.9s-.2-.8-.2-1.3.1-.9.2-1.3.3-.7.6-.9.6-.3 1-.3.7.1 1 .3.5.5.6.9.2.8.2 1.3-.1.9-.2 1.3zm23.1-4.7c-.3-.2-.6-.3-1-.4s-.7-.1-1.1-.1c-.5 0-1 .1-1.5.2-.4.2-.8.4-1.1.7s-.5.7-.7 1.2l1.7.2c.1-.3.3-.5.5-.7.3-.2.6-.3 1-.3s.7.1 1 .3.3.5.3.9c0 .2-.1.3-.2.4s-.3.1-.6.2c-.3 0-.6.1-1.1.1-.4 0-.7.1-1.1.2-.3.1-.7.2-.9.4-.3.2-.5.4-.7.7s-.2.6-.2 1.1.1.9.3 1.3c.2.3.5.6.9.8s.8.3 1.3.3c.4 0 .7-.1 1-.2s.5-.3.7-.4c.2-.2.4-.4.5-.6h.1v1h1.7v-5.1c0-.5-.1-.9-.3-1.3.1-.4-.2-.7-.5-.9zm-.7 4.5c0 .3-.1.5-.2.8-.1.2-.3.4-.6.6-.3.1-.6.2-.9.2-.4 0-.7-.1-.9-.3s-.4-.4-.4-.8c0-.2.1-.4.2-.6.1-.1.3-.3.5-.3.2-.1.5-.1.7-.2.1 0 .3 0 .4-.1.2 0 .3 0 .5-.1.2 0 .3-.1.4-.1s.2-.1.3-.1zm-10.4-2.6h4.1v1.2c0 .9-.2 1.6-.6 2.3-.4.6-.9 1.1-1.5 1.5-.6.3-1.4.5-2.2.5-.9 0-1.8-.2-2.5-.6s-1.3-1-1.7-1.8-.6-1.7-.6-2.8c0-.8.1-1.6.3-2.2s.6-1.2 1-1.6c.4-.5.9-.8 1.5-1s1.2-.4 1.8-.4 1.1.1 1.6.2c.5.2.9.4 1.3.7s.7.7.9 1.1.4.9.5 1.4h-1.9c-.1-.3-.2-.5-.3-.7s-.3-.4-.5-.6-.4-.3-.7-.3c-.3-.1-.5-.1-.8-.1-.5 0-1 .1-1.5.4-.4.3-.8.7-1 1.2s-.4 1.2-.4 1.9c0 .8.1 1.4.4 2 .2.5.6.9 1 1.2s.9.4 1.5.4c.5 0 1-.1 1.3-.3.4-.2.7-.5.9-.8.2-.4.3-.8.3-1.2h-2.3zm17.7 3.8.3 1.4c-.1 0-.2.1-.4.1s-.4.1-.6.1c-.5 0-.9-.1-1.2-.2-.4-.2-.6-.4-.9-.7-.2-.3-.3-.7-.3-1.2v-4.2h-1.1v-1.4h1.1v-1.8h1.8v1.8h1.5v1.4h-1.5v3.9c0 .2 0 .4.1.6.1.1.2.2.3.3.1 0 .3.1.4.1s.2 0 .3 0c.1-.2.2-.2.2-.2zm7.3-2.1c.4.3.5.8.5 1.3s-.1.9-.4 1.3-.7.6-1.1.9c-.5.2-1.1.3-1.7.3-.9 0-1.7-.2-2.3-.6s-.9-.9-1-1.6l1.8-.2c.1.3.2.6.5.8s.6.3 1 .3.8-.1 1-.3c.3-.2.4-.4.4-.7 0-.2-.1-.4-.3-.5s-.4-.3-.8-.3l-1.3-.3c-.7-.2-1.3-.4-1.6-.8-.4-.4-.5-.8-.5-1.4 0-.5.1-.9.4-1.2s.6-.6 1.1-.8 1-.3 1.6-.3c.9 0 1.6.2 2.1.6s.8.9 1 1.5l-1.6.2c0-.2-.1-.3-.2-.5-.1-.1-.3-.3-.5-.4s-.4-.1-.7-.1c-.4 0-.7.1-.9.2-.3.2-.4.4-.4.6s.1.4.2.5c.2.1.4.3.8.3l1.3.3c.7.3 1.3.5 1.6.9zm-54.1-4h1.9l-3.1 8.6c-.1.4-.3.8-.6 1-.2.3-.5.5-.9.7-.3.2-.7.2-1.2.2-.2 0-.5 0-.7-.1-.2 0-.4-.1-.5-.1l.4-1.4c.3.1.5.1.7.1s.4-.1.5-.2c.2-.1.3-.3.4-.6l.2-.4-2.8-7.8h1.9l1.8 5.8h.1zm10.4 6.1.3 1.4c0 .1-.2.1-.4.1s-.4.1-.6.1c-.5 0-.9-.1-1.2-.2-.4-.2-.6-.4-.9-.7-.2-.3-.3-.7-.3-1.2v-4.2h-1.1v-1.4h1.1v-1.8h1.8v1.8h1.5v1.4h-1.5v3.9c0 .2 0 .4.1.6.1.1.2.2.3.3.1 0 .3.1.4.1s.2 0 .3 0c.1-.2.2-.2.2-.2zm51.6-5.8c-.5-.3-1-.5-1.6-.5-.4 0-.8.1-1.1.2s-.5.3-.7.5-.3.4-.4.6h-.1v-3.8h-1.8v10.3h1.8v-1.2h.1c.1.2.2.4.4.6s.4.4.7.5.7.2 1.1.2c.6 0 1.1-.2 1.6-.5s.8-.8 1.1-1.3c.3-.6.4-1.3.4-2.1s-.1-1.6-.4-2.1c-.3-.6-.6-1.1-1.1-1.4zm-.5 4.8c-.1.4-.3.7-.6.9s-.6.3-1 .3-.7-.1-1-.3-.5-.5-.6-.9-.2-.8-.2-1.3.1-.9.2-1.3.3-.6.6-.9c.3-.2.6-.3 1-.3s.7.1 1 .3.5.5.6.9.2.8.2 1.3-.1.9-.2 1.3zm-69.5-4.7c-.5-.3-1.2-.5-1.9-.5s-1.4.2-1.9.5-1 .8-1.3 1.4-.4 1.3-.4 2.1.1 1.5.4 2.1.7 1 1.3 1.4c.5.3 1.2.5 1.9.5s1.4-.2 1.9-.5 1-.8 1.3-1.4.5-1.3.5-2.1-.2-1.5-.5-2.1c-.4-.7-.8-1.1-1.3-1.4zm-.3 4.7c-.1.4-.3.7-.6.9s-.6.3-1 .3-.8-.1-1-.3c-.3-.2-.5-.5-.6-.9s-.2-.8-.2-1.3.1-.9.2-1.3.3-.7.6-.9.6-.3 1-.3.7.1 1 .3.5.5.6.9.2.8.2 1.3-.1.9-.2 1.3zm-8.8-7.7h1.8v10.2h-1.8z" fill="#fff"/>
</svg>