<svg preserveAspectRatio="none" viewBox="0 0 1440 493" fill="none" xmlns="http://www.w3.org/2000/svg">
<path fill-rule="evenodd" clip-rule="evenodd" d="M-89.5 31.0883C-89.5 31.0883 66.75 -9.16628 269.5 3.43864C472.25 16.0436 587.804 46.5395 719 46.5395C851.332 46.5395 968.25 25.8023 1170 13.1973C1371.75 0.592397 1523.5 45.7262 1523.5 45.7262L1526 469.414H1021.84C1021.84 469.414 870.508 492.995 720.5 492.995C570.492 492.995 421.809 469.414 421.809 469.414H-92L-89.5 31.0883Z" fill="url(#paint0_linear)"/>
<mask id="mask0" mask-type="alpha" maskUnits="userSpaceOnUse" x="-92" y="0" width="1618" height="493">
<path fill-rule="evenodd" clip-rule="evenodd" d="M-89.5 31.0883C-89.5 31.0883 66.75 -9.16628 269.5 3.43864C472.25 16.0436 587.804 46.5395 719 46.5395C851.332 46.5395 968.25 25.8023 1170 13.1973C1371.75 0.592397 1523.5 45.7262 1523.5 45.7262L1526 469.414H1021.84C1021.84 469.414 870.508 492.995 720.5 492.995C570.492 492.995 421.809 469.414 421.809 469.414H-92L-89.5 31.0883Z" fill="white"/>
</mask>
<g mask="url(#mask0)">
<path fill-rule="evenodd" clip-rule="evenodd" d="M-31.4701 63.913C-31.4701 63.913 105.863 -1.42034 391.197 7.91312C676.53 17.2466 829.863 81.2463 1105.86 47.9131C1381.86 14.5798 1399.33 30.5003 1586 38.5C1772.67 46.4998 1459.2 -54.7534 1459.2 -54.7534L27.1965 -52.0868L-102.137 -25.4202L-31.4701 63.913Z" fill="white" fill-opacity="0.180392"/>
<path fill-rule="evenodd" clip-rule="evenodd" d="M1548 103.5C1548 103.5 1422.46 19.3335 1137.13 28.667C851.797 38.0005 713.501 52.8333 437.5 19.5C161.499 -13.8333 96.9978 57.8337 -71.002 100.5C-239.002 143.166 69.1296 -33.9995 69.1296 -33.9995L1501.13 -31.3329L1630.46 -4.66626L1548 103.5Z" fill="white" fill-opacity="0.180392"/>
</g>
<defs>
<linearGradient id="paint0_linear" x1="2335" y1="246.995" x2="2061.11" y2="-653.721" gradientUnits="userSpaceOnUse">
<stop stop-color="#9033EA"/>
<stop offset="1" stop-color="#483EB7"/>
</linearGradient>
</defs>
</svg>
