<svg width="122" height="33" viewBox="0 0 122 33" fill="none" xmlns="http://www.w3.org/2000/svg">
<path fill-rule="evenodd" clip-rule="evenodd" d="M70.5365 3.86095L77.5159 6.60816L70.5365 9.20687V12.9193L82.4906 8.09313V5.12318L70.5365 0.296997V3.86095Z" fill="#44486C"/>
<path fill-rule="evenodd" clip-rule="evenodd" d="M6.45966 17.6712C3.11845 17.6712 0.66824 19.1562 0.445493 22.2746H4.15794V22.2004C4.23219 21.1609 5.19742 20.4184 6.23691 20.4927C7.64764 20.4927 8.31588 21.3094 8.31588 22.7201V23.3884H6.60815C2.96996 23.3884 0 24.5021 0 27.9918V28.1403C0 30.9618 2.07897 32.224 4.60343 32.224C6.16266 32.2982 7.57339 31.5557 8.46438 30.3678V32.0012H12.2511V22.6459C12.1768 19.0819 9.72661 17.6712 6.45966 17.6712ZM5.64287 29.4768C4.30639 29.4768 3.7124 28.8086 3.7124 27.8433V27.6948C3.7124 26.4326 4.67764 25.9128 6.60811 25.9128H8.16734V27.2493C8.24159 28.7343 6.97936 29.4768 5.64287 29.4768Z" fill="#44486C"/>
<path fill-rule="evenodd" clip-rule="evenodd" d="M21.161 29.3283C19.3047 29.3283 18.3395 28.0661 18.3395 25.2446V24.7991C18.3395 22.0519 19.4532 20.7154 21.161 20.7154C22.4974 20.7154 23.2399 21.6064 23.4627 22.9429H27.1751C26.8781 19.3047 24.2052 17.6712 21.0867 17.6712C17.3743 17.6712 14.4043 20.1957 14.4043 24.9476V25.0961C14.4043 29.848 17.2258 32.224 21.0867 32.224C24.8734 32.224 27.0266 29.9223 27.3236 26.8038H23.7597C23.4627 28.363 22.4974 29.3283 21.161 29.3283Z" fill="#44486C"/>
<path fill-rule="evenodd" clip-rule="evenodd" d="M35.6395 29.3283C33.7832 29.3283 32.818 28.0661 32.818 25.2446V24.7991C32.818 22.0519 33.9317 20.7154 35.6395 20.7154C36.9759 20.7154 37.7184 21.6064 37.9412 22.9429H41.6536C41.3566 19.3047 38.6837 17.6712 35.5652 17.6712C31.8528 17.6712 28.8828 20.1957 28.8828 24.9476V25.0961C28.8828 29.848 31.7043 32.224 35.5652 32.224C39.3519 32.224 41.5051 29.9223 41.7279 26.8038H38.2382C38.0154 28.363 36.9759 29.3283 35.6395 29.3283Z" fill="#44486C"/>
<path fill-rule="evenodd" clip-rule="evenodd" d="M50.2666 29.4025C48.5589 29.4025 47.5194 28.4373 47.3709 25.9128H56.4293V24.2794C56.4293 19.6759 53.5336 17.6712 50.0439 17.6712C46.2572 17.6712 43.3615 20.2699 43.3615 24.9476V25.2446C43.3615 29.9223 46.1087 32.2982 50.1181 32.2982C53.7563 32.2982 55.9838 30.2935 56.355 27.6206H52.7168C52.5683 28.7343 51.4546 29.551 50.2666 29.4025ZM50.0439 20.3441C51.6031 20.3441 52.5684 21.2351 52.6426 23.3141H47.4452C47.7422 21.0866 48.8559 20.4184 50.0439 20.3441Z" fill="#44486C"/>
<path fill-rule="evenodd" clip-rule="evenodd" d="M66.9725 17.6712C65.1906 17.597 63.5571 18.488 62.7403 20.0472V17.9682H58.8794V31.927H62.7403V23.3884C62.7403 23.2399 62.7403 23.1657 62.7403 23.0172C62.8146 21.7549 63.9283 20.7154 65.1906 20.7897C66.6013 20.7897 67.2695 21.5322 67.2695 23.1657V31.927H71.2047V22.5717C71.2047 19.1562 69.497 17.6712 66.9725 17.6712Z" fill="#44486C"/>
<path fill-rule="evenodd" clip-rule="evenodd" d="M78.4811 27.4721V20.8639H81.1541V17.9682H78.4811V13.736L74.6202 15.3695V17.9682H72.9125V20.8639H74.546V27.9176C74.546 30.739 75.9567 32.1498 79.0009 32.1498C79.7434 32.1498 80.4859 32.0755 81.2284 31.8528V28.8086C80.7829 28.9571 80.3374 29.0313 79.8919 29.0313C79.0009 29.0313 78.4811 28.5116 78.4811 27.4721Z" fill="#44486C"/>
<path fill-rule="evenodd" clip-rule="evenodd" d="M91.9202 26.6554C91.9202 26.8039 91.9202 26.8781 91.9202 27.0266C91.8459 28.2889 90.7322 29.3283 89.4699 29.2541C88.0592 29.2541 87.4652 28.5116 87.4652 26.8781V17.9683H83.53V27.3979C83.53 30.6648 85.3863 32.2241 87.9107 32.2241C89.6184 32.2983 91.1777 31.4073 91.9944 29.8481V31.9271H95.9296V17.9683H91.9944L91.9202 26.6554Z" fill="#44486C"/>
<path fill-rule="evenodd" clip-rule="evenodd" d="M102.612 20.4927V17.894H98.7511V31.8528H102.612V24.6506C102.612 22.3489 104.171 21.5321 106.844 21.5321V17.6712C104.914 17.6712 103.206 18.7849 102.612 20.4927Z" fill="#44486C"/>
<path fill-rule="evenodd" clip-rule="evenodd" d="M121.1 24.2051C121.1 19.6017 118.204 17.6712 114.715 17.6712C110.928 17.6712 108.032 20.2699 108.032 24.9476V25.2446C108.032 29.9223 110.779 32.2982 114.789 32.2982C118.427 32.2982 120.58 30.2935 121.026 27.6206H117.388C117.091 28.8085 115.977 29.551 114.789 29.4768C113.081 29.4768 112.042 28.5115 111.893 25.9871H120.952V24.2051H121.1ZM112.042 23.3141C112.339 21.0124 113.452 20.3442 114.715 20.3442C116.274 20.3442 117.239 21.2352 117.313 23.3141H112.042Z" fill="#44486C"/>
</svg>
