<svg width="93" height="53" viewBox="0 0 93 53" fill="none" xmlns="http://www.w3.org/2000/svg">
<path fill-rule="evenodd" clip-rule="evenodd" d="M4.71134 52.1005H0L7.252 38.0898H12.4567L19.388 52.1005H14.1587L13.098 49.5845H5.82133L4.71134 52.1005ZM11.84 46.5259L9.5953 41.4199L7.22729 46.5259H11.84Z" fill="#44486C"/>
<path fill-rule="evenodd" clip-rule="evenodd" d="M20.4569 38.0895H24.9709V52.1001H20.4569V38.0895Z" fill="#44486C"/>
<path fill-rule="evenodd" clip-rule="evenodd" d="M27.2649 38.0895H31.7789V40.9508H27.2649L27.2649 38.0895ZM27.2649 42.3322H31.7789V52.1002H27.2649L27.2649 42.3322Z" fill="#44486C"/>
<path fill-rule="evenodd" clip-rule="evenodd" d="M34.2434 38.0786H38.7574V43.7273C39.3 43.1846 39.892 42.7653 40.558 42.4939C41.224 42.2226 41.9394 42.0746 42.7287 42.0746C44.258 42.0746 45.4914 42.5679 46.4287 43.5546C47.366 44.5413 47.8347 45.8486 47.8347 47.4519C47.8347 48.9319 47.366 50.1159 46.4534 51.0039C45.5407 51.8919 44.3074 52.3359 42.778 52.3359C41.9394 52.3359 41.1747 52.1879 40.484 51.8673C39.7934 51.5713 39.226 51.1026 38.7327 50.5106C38.7327 50.8313 38.7327 51.1273 38.6834 51.3986C38.6587 51.6699 38.6094 51.8919 38.56 52.0893H34.046C34.0954 51.9166 34.1447 51.6699 34.1694 51.3986C34.194 51.1273 34.2187 50.8066 34.2187 50.4613V38.0786M43.296 47.2546C43.296 46.3913 43.0987 45.7253 42.6793 45.2073C42.2847 44.714 41.7173 44.4673 41.0267 44.4673C40.2867 44.4673 39.7193 44.714 39.3 45.1826C38.9053 45.6513 38.708 46.3666 38.708 47.2793C38.708 48.1426 38.9053 48.8086 39.3 49.2773C39.6947 49.7459 40.262 49.9926 40.9773 49.9926C41.6927 49.9926 42.2353 49.7459 42.6547 49.2526C43.074 48.7593 43.296 48.0933 43.296 47.2546Z" fill="#44486C"/>
<path fill-rule="evenodd" clip-rule="evenodd" d="M58.1451 50.5301C57.7258 51.0975 57.1585 51.5168 56.4678 51.7881C55.7771 52.0595 54.9631 52.2075 53.9765 52.2075C52.5951 52.2075 51.5098 51.9608 50.7698 51.4675C50.0298 50.9741 49.6598 50.2835 49.6598 49.3708C49.6598 48.1375 50.3011 47.2495 51.5838 46.7068C52.8665 46.1641 55.0371 45.8681 58.0711 45.8435C58.0711 45.8188 58.0711 45.7941 58.0711 45.7448C58.0711 45.6955 58.0711 45.6461 58.0711 45.6215C58.0711 45.1281 57.9231 44.7581 57.6271 44.5115C57.3311 44.2648 56.8871 44.1415 56.2705 44.1415C55.7278 44.1415 55.3085 44.2401 55.0125 44.4128C54.7165 44.5855 54.5438 44.8568 54.4945 45.2268H50.3258C50.3505 44.1415 50.8685 43.3275 51.8551 42.8095C52.8665 42.2915 54.3958 42.0201 56.4678 42.0201C58.4411 42.0201 59.9211 42.3161 60.9078 42.9575C61.8698 43.5741 62.3631 44.5115 62.3631 45.7695V50.7521C62.3631 51.0481 62.3878 51.3195 62.4125 51.4921C62.4371 51.6895 62.4865 51.8621 62.5605 52.0101H58.3671C58.2931 51.7881 58.2191 51.5415 58.1945 51.2948C58.1698 51.0481 58.1451 50.8015 58.1451 50.5301ZM58.0465 47.7428C56.5911 47.7428 55.5798 47.8415 55.0618 48.0388C54.5438 48.2361 54.2725 48.5568 54.2725 49.0255C54.2725 49.3461 54.3958 49.5928 54.6671 49.7901C54.9138 49.9628 55.2838 50.0615 55.7525 50.0615C56.5171 50.0615 57.0845 49.8888 57.4791 49.5188C57.8738 49.1735 58.0465 48.6308 58.0465 47.8908V47.7428H58.0465Z" fill="#44486C"/>
<path fill-rule="evenodd" clip-rule="evenodd" d="M64.4291 38.0786H68.9431V43.7273C69.4858 43.1846 70.0778 42.7653 70.7438 42.4939C71.4098 42.2226 72.1251 42.0746 72.9145 42.0746C74.4438 42.0746 75.6771 42.5679 76.6145 43.5546C77.5518 44.5413 78.0205 45.8486 78.0205 47.4519C78.0205 48.9319 77.5518 50.1159 76.6391 51.0039C75.7265 51.8919 74.4931 52.3359 72.9638 52.3359C72.1251 52.3359 71.3605 52.1879 70.6698 51.8673C69.9791 51.5713 69.4118 51.1026 68.9185 50.5106C68.9185 50.8313 68.8938 51.1273 68.8691 51.3986C68.8445 51.6699 68.7951 51.8919 68.7458 52.0893H64.2318C64.2811 51.9166 64.3305 51.6699 64.3551 51.3986C64.3798 51.1273 64.4045 50.8066 64.4045 50.4613V38.0786M73.4818 47.2546C73.4818 46.3913 73.2845 45.7253 72.8651 45.2073C72.4705 44.714 71.9031 44.4673 71.2125 44.4673C70.4725 44.4673 69.9051 44.714 69.5105 45.1826C69.1158 45.6513 68.9185 46.3666 68.9185 47.2793C68.9185 48.1426 69.1158 48.8086 69.5105 49.2773C69.9051 49.7459 70.4725 49.9926 71.1878 49.9926C71.8785 49.9926 72.4458 49.7459 72.8651 49.2526C73.2845 48.7593 73.4818 48.0933 73.4818 47.2546Z" fill="#44486C"/>
<path fill-rule="evenodd" clip-rule="evenodd" d="M88.3313 50.5301C87.9119 51.0975 87.3446 51.5168 86.6539 51.7881C85.9633 52.0595 85.1493 52.2075 84.1626 52.2075C82.7813 52.2075 81.6959 51.9608 80.9559 51.4675C80.2159 50.9741 79.8459 50.2835 79.8459 49.3708C79.8459 48.1375 80.4873 47.2495 81.7699 46.7068C83.0526 46.1641 85.2233 45.8681 88.2573 45.8435C88.2573 45.8188 88.2573 45.7941 88.2573 45.7448C88.2573 45.6955 88.2573 45.6461 88.2573 45.6215C88.2573 45.1281 88.1093 44.7581 87.8133 44.5115C87.5173 44.2648 87.0733 44.1415 86.4566 44.1415C85.9139 44.1415 85.4946 44.2401 85.1986 44.4128C84.9026 44.5855 84.7299 44.8568 84.6806 45.2268H80.5119C80.5366 44.1415 81.0546 43.3275 82.0413 42.8095C83.0526 42.2915 84.5819 42.0201 86.6539 42.0201C88.6273 42.0201 90.1073 42.3161 91.0939 42.9575C92.0559 43.5741 92.5493 44.5115 92.5493 45.7695V50.7521C92.5493 51.0481 92.5739 51.3195 92.5986 51.4921C92.6233 51.6895 92.6726 51.8621 92.7466 52.0101H88.5533C88.4793 51.7881 88.4053 51.5415 88.3806 51.2948C88.3559 51.0481 88.3313 50.8015 88.3313 50.5301ZM88.2325 47.7428C86.7772 47.7428 85.7905 47.8415 85.2478 48.0388C84.7298 48.2361 84.4585 48.5568 84.4585 49.0255C84.4585 49.3461 84.5818 49.5928 84.8532 49.7901C85.0998 49.9628 85.4698 50.0615 85.9385 50.0615C86.7032 50.0615 87.2705 49.8888 87.6652 49.5188C88.0598 49.1735 88.2325 48.6308 88.2325 47.8908V47.7428Z" fill="#44486C"/>
<path fill-rule="evenodd" clip-rule="evenodd" d="M26.7981 27.2881C26.5514 27.2634 26.1567 27.0414 25.8854 26.8194C23.2461 24.2294 26.6254 21.2447 30.5721 19.5181V14.5847C31.4847 15.1767 32.0027 15.2014 32.0274 15.2754L35.0367 12.2907L34.0254 9.72539C42.8314 6.69139 46.3587 5.53205 53.5121 4.32339L52.2294 3.11472L54.3261 1.93073C59.1361 3.50939 63.6747 3.92873 62.8854 7.97406C63.0827 5.23606 59.6787 4.20006 54.4987 2.74472L53.4874 3.36139L55.4114 4.94005C46.8521 6.42005 41.5734 8.09738 35.3081 10.2681L36.1714 12.4881L33.0141 15.6207C33.5321 15.7687 39.0327 17.5941 44.7307 13.6227C44.7307 13.6227 44.8541 13.5487 44.8541 13.4994C44.6814 13.228 44.2867 12.9074 43.8181 12.488C45.4954 12.6114 46.5807 14.0667 46.3834 15.5961H45.5941C45.6434 15.1027 45.5447 14.56 45.3721 14.2147C40.9567 17.446 35.8261 17.9147 31.4601 16.3854V20.2087C29.3387 20.9487 25.5647 23.292 25.5894 25.5614C25.7374 26.6221 26.2801 27.0167 26.7981 27.2881Z" fill="#44486C"/>
<path fill-rule="evenodd" clip-rule="evenodd" d="M44.8571 26.0243C40.1211 28.4169 35.5825 30.3409 28.6018 30.6123C19.4998 30.4149 18.0938 24.3716 22.3858 18.0569C26.4558 11.6929 32.9185 5.92093 43.1798 2.31961C46.1645 1.25894 50.5305 0.0749379 54.7485 0.000940959C60.8165 -0.0483954 66.7118 1.82627 66.3171 7.64761C66.0951 12.1123 59.6571 18.3776 56.2778 22.8916C54.8225 24.8649 54.5758 26.1476 57.0671 26.0243C66.0705 25.4323 74.2105 22.3243 81.7831 19.0929C76.6525 22.5709 50.1851 35.6689 50.0865 26.7396C50.1111 25.6049 50.6291 24.3963 51.4925 23.1136C52.3311 21.8309 53.4905 20.4989 54.6991 19.1423C56.4998 17.0949 60.9891 12.1616 62.4938 9.2016C65.0345 3.67627 59.3611 3.40494 54.4525 1.67827L52.3558 2.86227L53.6385 4.07093C46.4851 5.25493 42.9578 6.43894 34.1518 9.47293L35.1631 12.0383L32.1785 14.9983C32.1045 14.9243 31.6605 14.8996 30.7231 14.3076V19.2409C26.8011 20.9676 23.3971 23.9523 26.0365 26.5423C26.3078 26.7643 26.7025 26.9863 26.9491 27.0109C31.7838 29.7243 44.8818 26.0243 44.8571 26.0243Z" fill="#44486C"/>
<path fill-rule="evenodd" clip-rule="evenodd" d="M73.1597 29.2292H73.7763C73.8997 29.2292 73.9983 29.2046 74.0723 29.1799C74.1463 29.1552 74.1957 29.1059 74.245 29.0566C74.2943 28.9826 74.2943 28.9332 74.2943 28.8592C74.2943 28.7606 74.245 28.6619 74.171 28.6126C74.097 28.5386 73.9737 28.5139 73.8257 28.5139H73.1597V29.2292ZM72.8883 30.4626V28.2673H73.875C74.0723 28.2673 74.2203 28.2919 74.319 28.3166C74.4176 28.3659 74.4916 28.4153 74.5656 28.5386C74.6396 28.6373 74.6643 28.7359 74.6643 28.8593C74.6643 29.0073 74.615 29.1553 74.5163 29.2539C74.4176 29.3526 74.2696 29.4266 74.0476 29.4513C74.1216 29.4759 74.1956 29.5253 74.2203 29.5499C74.2943 29.6239 74.393 29.7226 74.467 29.8459L74.8616 30.4379H74.4916L74.1956 29.9939C74.1216 29.8459 74.0476 29.7473 73.9736 29.6733C73.9243 29.5993 73.875 29.5499 73.8256 29.5253C73.7763 29.5006 73.7516 29.4759 73.7023 29.4759C73.6776 29.4759 73.6283 29.4759 73.5296 29.4759H73.1596V30.4626H72.8883V30.4626Z" fill="#44486C"/>
<path fill-rule="evenodd" clip-rule="evenodd" d="M73.7649 31.4792C74.9242 31.4792 75.8615 30.5418 75.8615 29.3825C75.8615 28.2232 74.9242 27.2858 73.7649 27.2858C72.6055 27.2858 71.6682 28.2232 71.6682 29.3825C71.6682 30.5418 72.6055 31.4792 73.7649 31.4792ZM71.9889 29.3825C71.9889 28.3958 72.7782 27.6065 73.7649 27.6065C74.7516 27.6065 75.5409 28.3958 75.5409 29.3825C75.5409 30.3445 74.7516 31.1585 73.7649 31.1585C72.7782 31.1585 71.9889 30.3692 71.9889 29.3825Z" fill="#44486C"/>
</svg>
