<svg width="111" height="33" viewBox="0 0 111 33" fill="none" xmlns="http://www.w3.org/2000/svg">
<path fill-rule="evenodd" clip-rule="evenodd" d="M74.5381 32.1572H71.6063C71.0106 32.1572 70.554 31.8369 70.5094 31.2424L70.4627 30.0961C68.3544 31.793 65.8354 32.7076 63.1786 32.7076C58.0494 32.7076 55.9436 29.458 55.9436 24.5089V10.9617C55.9436 10.1826 56.4013 9.90759 57.1318 9.90759H60.3395C61.0731 9.90759 61.4858 10.1355 61.4858 10.9617V23.5463C61.4858 26.0665 62.1267 27.806 64.8759 27.806C66.6136 27.806 68.8138 26.8453 70.188 25.6086V10.9617C70.188 10.1826 70.601 9.90759 71.3315 9.90759H74.5836C75.3174 9.90759 75.7304 10.1355 75.7304 10.9617V30.8757C75.7299 31.8369 75.4531 32.1572 74.5381 32.1572Z" fill="#44486C"/>
<path fill-rule="evenodd" clip-rule="evenodd" d="M0 10.8213C0 10.2731 0.275334 9.90649 0.824058 9.90649H4.69871C5.24799 9.90649 5.56857 10.2273 5.56857 10.8213V31.0123C5.56857 31.8369 5.20053 32.1572 4.42366 32.1572H1.19126C0.369425 32.1572 0 31.8369 0 31.0123V10.8213Z" fill="#44486C"/>
<path fill-rule="evenodd" clip-rule="evenodd" d="M81.4604 10.8213C81.4604 10.2731 81.7372 9.90649 82.2853 9.90649H86.1597C86.7101 9.90649 87.0307 10.2273 87.0307 10.8213V31.0123C87.0307 31.8369 86.6637 32.1572 85.8841 32.1572H82.6517C81.8296 32.1572 81.4604 31.8369 81.4604 31.0123V10.8213Z" fill="#44486C"/>
<path fill-rule="evenodd" clip-rule="evenodd" d="M30.1201 32.1572H26.8228C25.9987 32.1572 25.7242 31.7455 25.7242 30.9659V18.5073C25.7242 15.9896 25.0384 14.2027 22.2429 14.2027C20.456 14.2027 18.2586 15.1664 16.8389 16.4012V31.012C16.8389 31.7927 16.518 32.1569 15.7409 32.1569H12.3961C11.7089 32.1569 11.2961 31.7927 11.2961 31.058V11.0569C11.2961 10.3236 11.6189 9.91203 12.4422 9.91203H15.4178C16.0587 9.91203 16.4734 10.0944 16.5178 10.7813L16.563 12.004C18.6716 10.3106 21.3281 9.34943 23.9848 9.34943C29.1146 9.34943 31.2209 12.5549 31.2209 17.5473V30.9659C31.2206 31.7455 30.9467 32.1572 30.1201 32.1572Z" fill="#44486C"/>
<path fill-rule="evenodd" clip-rule="evenodd" d="M46.4439 3.65679C46.4439 1.80134 44.941 0.296997 43.0853 0.296997C41.2306 0.296997 39.7255 1.80134 39.7255 3.65679C39.7255 5.51224 41.2309 7.01492 43.0853 7.01492C44.941 7.01492 46.4439 5.51224 46.4439 3.65679Z" fill="#44486C"/>
<path fill-rule="evenodd" clip-rule="evenodd" d="M51.2242 9.9065C51.7735 9.9065 52.0943 10.0888 52.0943 10.685V13.9105C52.0943 14.4598 51.7285 14.7806 51.1779 14.7806H45.8696V31.012C45.8696 31.8366 45.5035 32.1569 44.6784 32.1569H41.4912C40.6666 32.1569 40.3011 31.8366 40.3011 31.012V14.7806H34.9915C34.4422 14.7806 34.0758 14.4598 34.0758 13.9105V10.685C34.0758 10.0888 34.3961 9.90649 34.9462 9.90649H51.2242V9.9065Z" fill="#44486C"/>
<path fill-rule="evenodd" clip-rule="evenodd" d="M103.282 3.65679C103.282 1.80134 101.777 0.296997 99.9219 0.296997C98.0673 0.296997 96.563 1.80134 96.563 3.65679C96.563 5.51224 98.0673 7.01492 99.9219 7.01492C101.777 7.01492 103.282 5.51224 103.282 3.65679Z" fill="#44486C"/>
<path fill-rule="evenodd" clip-rule="evenodd" d="M108.062 9.9065C108.61 9.9065 108.93 10.0888 108.93 10.685V13.9105C108.93 14.4598 108.565 14.7806 108.014 14.7806H102.706V31.012C102.706 31.8366 102.341 32.1569 101.516 32.1569H98.3278C97.5029 32.1569 97.1376 31.8366 97.1376 31.012L97.1365 14.7806H91.8297C91.279 14.7806 90.9124 14.4598 90.9124 13.9105V10.685C90.9124 10.0888 91.234 9.90649 91.7819 9.90649H108.062V9.9065Z" fill="#44486C"/>
<path fill-rule="evenodd" clip-rule="evenodd" d="M109.513 29.3342C110.323 29.3342 111 29.9723 111 30.8094C111 31.6612 110.323 32.3009 109.513 32.3009C108.7 32.3009 108.018 31.6612 108.018 30.8094C108.018 29.9723 108.7 29.3342 109.513 29.3342ZM109.513 32.0833C110.2 32.0833 110.731 31.5363 110.731 30.8094C110.731 30.0999 110.2 29.5518 109.513 29.5518C108.819 29.5518 108.287 30.1002 108.287 30.8094C108.287 31.5365 108.819 32.0833 109.513 32.0833ZM108.934 29.9487H109.604C110.017 29.9487 110.211 30.1113 110.211 30.4452C110.211 30.7569 110.014 30.8899 109.755 30.9168L110.251 31.6828H109.961L109.49 30.9359H109.203V31.6828H108.934V29.9487H108.934ZM109.203 30.7181H109.486C109.724 30.7181 109.941 30.707 109.941 30.4333C109.941 30.2026 109.744 30.1677 109.561 30.1677H109.204V30.7181H109.203Z" fill="#44486C"/>
</svg>
