<svg width="80" height="56" viewBox="0 0 80 56" fill="none" xmlns="http://www.w3.org/2000/svg">
<path fill-rule="evenodd" clip-rule="evenodd" d="M38.9057 2.72716L37.5971 3.21796C35.8913 3.9657 34.3492 5.04064 33.0874 6.37252C30.26 2.6806 25.8204 0.297058 20.8199 0.297058C12.291 0.297058 5.37428 7.19031 5.37428 15.7191C5.37428 17.8923 5.81831 19.9719 6.6361 21.8412C2.66375 24.1544 0 28.5008 0 33.4545C0 40.8618 5.93514 46.867 13.2724 46.867C14.207 46.867 15.1184 46.7735 16.0064 46.5866C18.016 52.0544 23.2735 55.9332 29.419 55.9332C35.3308 55.9332 40.4014 52.3347 42.5746 47.2173C44.2337 48.0351 46.0796 48.4791 48.0657 48.4791C52.7625 48.4791 56.8517 45.8854 59.0013 42.0532C60.0996 42.2636 61.2213 42.3804 62.3661 42.3804C71.8297 42.3804 79.494 34.6461 79.494 25.0889C79.494 15.5316 71.8297 7.7973 62.3661 7.7973C59.8892 7.7973 57.5524 8.33467 55.426 9.2695C52.9959 4.92318 48.416 2.00249 43.1585 2.00249C42.1771 2.00249 41.219 2.09603 40.2844 2.3062L38.9057 2.72716Z" fill="#44486C"/>
<path fill-rule="evenodd" clip-rule="evenodd" d="M11.5199 29.2953L11.5667 29.3421L12.0107 29.6225C12.8285 30.043 13.5762 30.1833 14.394 30.1833C16.0296 30.1833 17.0345 29.3188 17.0345 27.9168V27.8936C17.0345 26.6085 15.8895 26.1412 14.8146 25.7905L14.6745 25.7437C13.8567 25.4867 13.179 25.2529 13.179 24.7155V24.6922C13.179 24.2249 13.5762 23.8977 14.2304 23.8977C14.9314 23.8977 15.7727 24.1314 16.31 24.4351C16.31 24.4351 16.4736 24.5286 16.5204 24.3883L16.8476 23.5005C16.8709 23.4069 16.8243 23.3604 16.7776 23.3136C16.1699 22.9398 15.3054 22.6827 14.4408 22.6827H14.2772C12.7817 22.6827 11.7536 23.594 11.7536 24.8791V24.9024C11.7536 26.2578 12.8985 26.7016 13.9735 27.0055L14.1371 27.0523C14.9316 27.2859 15.6093 27.4963 15.6093 28.057V28.0802C15.6093 28.5943 15.1653 28.9681 14.4643 28.9681H14.1604L13.6696 28.898C13.2958 28.828 12.8518 28.6644 12.361 28.3607L12.0805 28.1971C12.0338 28.1738 11.9169 28.127 11.8702 28.2671L11.543 29.155L11.5199 29.2953Z" fill="white"/>
<path fill-rule="evenodd" clip-rule="evenodd" d="M35.3774 29.2953L35.4242 29.3421L35.8682 29.6225C36.4759 29.9497 37.06 30.0899 37.6442 30.1599L38.2283 30.1832L38.8124 30.1364C40.0975 29.9495 40.8688 29.1317 40.8688 27.9165V27.8932C40.8688 26.6081 39.7238 26.1408 38.6488 25.7901L38.5087 25.7433C37.6909 25.4864 37.0132 25.2525 37.0132 24.7152V24.6919C37.0132 24.2246 37.4105 23.8974 38.0647 23.8974C38.7657 23.8974 39.6069 24.131 40.1443 24.4347C40.1443 24.4347 40.3079 24.5283 40.3547 24.388L40.6819 23.5001C40.7052 23.4066 40.6586 23.36 40.6118 23.3132C40.0042 22.9395 39.1396 22.6823 38.2751 22.6823H38.1115C36.616 22.6823 35.5878 23.5937 35.5878 24.8788V24.902C35.5878 26.2574 36.7328 26.7012 37.8078 27.0051L37.9714 27.0519C38.7659 27.2856 39.4436 27.4959 39.4436 28.0566V28.0799C39.4436 28.594 38.9995 28.9677 38.2986 28.9677C38.0181 28.9677 37.1536 28.9677 36.1955 28.3601L35.915 28.1965C35.8917 28.1732 35.7514 28.1264 35.7046 28.2665L35.3774 29.1544V29.2953" fill="white"/>
<path fill-rule="evenodd" clip-rule="evenodd" d="M50.3322 23.9911L50.6827 24.1079C50.8931 24.2247 51.08 24.3648 51.2201 24.5987C51.5005 25.0427 51.6641 25.6501 51.6641 26.4446C51.6641 27.2392 51.524 27.8466 51.2201 28.2906C50.9396 28.7346 50.4956 28.9448 49.8882 28.9448C49.2806 28.9448 48.86 28.7344 48.5796 28.2906C48.2992 27.8466 48.1591 27.2157 48.1591 26.4446C48.1591 25.6501 48.2992 25.0427 48.5796 24.5987C48.86 24.1781 49.3041 23.9678 49.8882 23.9678L50.3322 23.9911ZM49.9117 22.7057L49.1406 22.7757L48.463 22.9861C48.0424 23.173 47.6919 23.4534 47.4115 23.7806C47.1311 24.1078 46.9207 24.5051 46.8039 24.9724C46.6638 25.4164 46.5935 25.907 46.5935 26.4446C46.5935 26.9587 46.6636 27.4493 46.8039 27.9168C46.944 28.3608 47.1544 28.7581 47.4348 29.1086C47.7152 29.4358 48.0657 29.7162 48.4862 29.9031C48.9068 30.09 49.3976 30.1835 49.9349 30.1835C50.4723 30.1835 50.9864 30.09 51.3837 29.9031C51.8042 29.7162 52.1547 29.4591 52.4351 29.1086C52.7155 28.7814 52.9259 28.3841 53.0427 27.9168C53.1828 27.4728 53.2531 26.9822 53.2531 26.4446C53.2531 25.9305 53.1831 25.4399 53.0427 24.9724C52.9026 24.5284 52.6923 24.1311 52.4351 23.7806C52.1547 23.4534 51.8042 23.173 51.3837 22.9861L50.706 22.7757L49.9117 22.7057Z" fill="white"/>
<path fill-rule="evenodd" clip-rule="evenodd" d="M61.6651 22.776L60.9641 22.9864C60.5201 23.1733 60.1696 23.4537 59.8659 23.7809C59.5855 24.1081 59.3518 24.5054 59.2117 24.9727C59.0716 25.4167 59.0013 25.9073 59.0013 26.4449C59.0013 27.5664 59.3051 28.4777 59.9127 29.1554C60.5203 29.8331 61.4314 30.1601 62.5999 30.1601C63.3009 30.1601 64.0019 30.02 64.5159 29.8096C64.5159 29.8096 64.6095 29.7628 64.5627 29.646L64.2355 28.7114C64.1887 28.5713 64.0719 28.6178 64.0719 28.6178L63.441 28.8047L62.6933 28.8515C62.0391 28.8515 61.5015 28.6646 61.1277 28.2673C60.754 27.8701 60.5436 27.2627 60.5436 26.3981C60.5436 25.6271 60.7305 25.0427 61.0577 24.5989C61.3849 24.1549 61.899 23.9447 62.5764 23.9447C63.1373 23.9447 63.5578 24.0148 64.0251 24.1551C64.0251 24.1551 64.142 24.2019 64.1887 24.0615L64.5159 23.1269C64.5627 23.0334 64.4692 22.9868 64.4224 22.9633L64.0251 22.8465L63.5111 22.7297L62.4829 22.6596L61.6651 22.776Z" fill="white"/>
<path fill-rule="evenodd" clip-rule="evenodd" d="M71.3625 26.0707L71.3392 25.4397C71.3159 25.2061 71.2691 24.9489 71.1991 24.692C71.0822 24.248 70.8018 23.8042 70.6149 23.6171C70.3112 23.2899 70.0308 23.0797 69.7504 22.9629L69.1427 22.776L68.4418 22.7059L67.624 22.776L67.2502 22.8695L66.923 23.0096C66.5025 23.22 66.152 23.477 65.8716 23.8274C65.5911 24.1546 65.3808 24.5752 65.2406 25.0192C65.1005 25.4632 65.0303 25.9773 65.0303 26.4914C65.0303 27.0288 65.1003 27.5196 65.2406 27.9636C65.3808 28.4076 65.6144 28.8049 65.9183 29.1319C66.2223 29.4589 66.6193 29.716 67.0633 29.9029C67.5306 30.0898 68.0915 30.1833 68.7457 30.1833C70.0776 30.1833 70.7785 29.8796 71.059 29.716C71.1057 29.6927 71.1525 29.646 71.1057 29.5056L70.802 28.6644C70.7552 28.5475 70.6384 28.5943 70.6384 28.5943C70.3112 28.7111 69.8439 28.9448 68.7457 28.9448C68.0212 28.9448 67.5071 28.7344 67.1802 28.4074C66.8297 28.0802 66.6661 27.5661 66.6428 26.8652H71.2461C71.2461 26.8652 71.3629 26.8652 71.3862 26.7483L71.3625 26.0707ZM66.5956 25.6734L66.7357 25.0658C66.8057 24.8789 66.8758 24.7153 66.9693 24.575C67.2498 24.1544 67.6703 23.8973 68.2779 23.8973C68.8856 23.8973 69.2826 24.1309 69.563 24.575L69.6799 24.8086L69.7734 25.0656L69.867 25.6497H66.5956" fill="white"/>
<path fill-rule="evenodd" clip-rule="evenodd" d="M29.6991 25.6735L29.8392 25.0658C29.9093 24.8789 29.9793 24.7153 30.0729 24.575C30.3533 24.1545 30.7738 23.8973 31.3815 23.8973C31.9891 23.8973 32.3861 24.131 32.6666 24.575L32.7834 24.8087L32.8769 25.0656L32.9705 25.6498H29.6991M30.6806 22.776L30.3066 22.8695C30.1898 22.9163 30.073 22.9396 29.9794 23.0097C29.5589 23.22 29.2084 23.477 28.928 23.8274C28.6475 24.1547 28.4372 24.5752 28.297 25.0192C28.1569 25.4632 28.0867 25.9773 28.0867 26.4914C28.0867 27.0288 28.1567 27.5196 28.297 27.9636C28.4374 28.4076 28.671 28.8049 28.9747 29.1319C29.2784 29.4591 29.6757 29.716 30.143 29.9029C30.6103 30.0898 31.1712 30.1833 31.8254 30.1833C33.1572 30.1833 33.8582 29.8796 34.1386 29.716C34.1854 29.6928 34.2322 29.646 34.1854 29.5057L33.8817 28.6644C33.8349 28.5475 33.7181 28.5943 33.7181 28.5943C33.3909 28.7111 32.9236 28.9448 31.8254 28.9448C31.1009 28.9448 30.5868 28.7344 30.2598 28.4074C29.9093 28.0802 29.7457 27.5661 29.7225 26.8652H34.3257C34.3257 26.8652 34.4426 26.8652 34.4658 26.7484C34.4658 26.7016 34.6294 25.7902 34.3257 24.7621C34.2089 24.318 33.9285 23.8742 33.7416 23.6871C33.4379 23.3599 33.1575 23.1498 32.877 23.0329L32.2694 22.8461L31.5684 22.776H30.6806" fill="white"/>
<path fill-rule="evenodd" clip-rule="evenodd" d="M21.0768 26.6081L21.9414 26.6549L22.3152 26.7016V28.8047C22.3152 28.8047 21.731 28.9216 21.0766 28.9684C20.142 29.0151 19.7213 28.6879 19.7213 28.6879C19.5344 28.5478 19.5109 28.501 19.4643 28.4075C19.3708 28.2674 19.3242 28.057 19.3242 27.7999C19.3242 27.4026 19.4643 27.0989 19.7448 26.912C19.7448 26.912 19.9784 26.7251 20.4692 26.6316L21.0768 26.6081ZM20.2826 25.4866L19.7217 25.6034C19.3712 25.697 19.044 25.8603 18.7636 26.0474C18.4832 26.2578 18.2495 26.5147 18.0859 26.8185C17.9223 27.1222 17.829 27.4726 17.829 27.8699C17.829 28.2672 17.899 28.6409 18.0394 28.9214C18.1795 29.2018 18.3898 29.4587 18.647 29.6458C18.9041 29.8329 19.2078 29.973 19.5816 30.0431C19.9554 30.1366 20.3526 30.1599 20.7967 30.1599C21.264 30.1599 21.7313 30.1131 22.1986 30.0431L23.3669 29.8094L23.6941 29.7394C23.8109 29.7161 23.7876 29.5993 23.7876 29.5993V25.3932C23.7876 24.4586 23.5307 23.7809 23.0632 23.3604C22.5724 22.9399 21.8714 22.7295 20.9368 22.7295C20.5863 22.7295 20.0254 22.7763 19.6982 22.8463C19.6982 22.8463 18.6935 23.0332 18.2728 23.3604C18.2728 23.3604 18.1793 23.4072 18.226 23.5473L18.5532 24.4351C18.6 24.552 18.6933 24.5052 18.6933 24.5052L18.7634 24.4584C19.6512 23.9676 20.7729 23.9911 20.7729 23.9911C21.2638 23.9911 21.6608 24.0846 21.9179 24.2948C22.1749 24.4817 22.2919 24.7856 22.2919 25.393V25.5799L21.5442 25.4864L20.8197 25.4631L20.2826 25.4866Z" fill="white"/>
<path fill-rule="evenodd" clip-rule="evenodd" d="M56.2673 23.2198L55.9168 23.547V22.9862C55.9168 22.9161 55.87 22.8461 55.7767 22.8461H54.5849C54.5149 22.8461 54.4448 22.9161 54.4448 22.9862V29.8559C54.4448 29.926 54.5149 29.996 54.5849 29.996H55.8C55.87 29.996 55.9401 29.926 55.9401 29.8559V26.4209C55.9401 25.9536 55.9869 25.5096 56.0802 25.2059C56.1737 24.9255 56.3139 24.6918 56.4775 24.5282C56.6411 24.3646 56.8279 24.2478 57.0383 24.1777C57.2487 24.1077 57.4823 24.0842 57.6459 24.0842C57.8796 24.0842 58.16 24.1542 58.16 24.1542C58.2536 24.1542 58.3001 24.1075 58.3236 24.0374L58.6741 23.0793C58.6974 22.9857 58.6273 22.9157 58.6041 22.9157C58.534 22.8924 58.1367 22.7989 57.833 22.7756H57.4358L57.1321 22.8223L56.6413 22.9859L56.2673 23.2198Z" fill="white"/>
<path fill-rule="evenodd" clip-rule="evenodd" d="M43.4156 22.5424L43.3688 22.8461H42.3174C42.3174 22.8461 42.2006 22.8461 42.1538 22.9862L41.9902 23.9443C41.9902 24.0379 42.0135 24.0844 42.1303 24.0844H43.1585L42.1303 29.856C42.0602 30.3233 41.9667 30.6972 41.8499 31.001C41.7563 31.2814 41.6395 31.4918 41.5227 31.6551C41.4058 31.7953 41.289 31.9121 41.1021 31.9824C40.9385 32.0291 40.7516 32.0524 40.5648 32.0524L40.1908 32.0056L39.9339 31.9121C39.9339 31.9121 39.817 31.8653 39.7703 31.9821L39.4198 32.9168C39.3965 33.0103 39.443 33.0804 39.4898 33.1036L39.9104 33.2205C40.1673 33.2905 40.3777 33.2905 40.588 33.2905C41.0086 33.2905 41.4058 33.2205 41.7098 33.1036C42.037 32.9868 42.3174 32.7764 42.551 32.5195C42.8315 32.2158 42.9951 31.9119 43.1587 31.4913C43.3223 31.0708 43.4624 30.5567 43.5559 29.9491L44.5841 24.084H46.1029C46.1029 24.084 46.2197 24.084 46.2665 23.9439L46.4301 22.9858C46.4301 22.8922 46.4068 22.8457 46.29 22.8457H44.8178C44.8178 22.8224 44.8878 22.2848 45.0514 21.8175C45.1215 21.6071 45.2618 21.4435 45.3786 21.3267C45.4954 21.2099 45.6123 21.1398 45.7759 21.093L46.2667 21.023L46.6407 21.0698L46.8743 21.1165C47.0144 21.1633 47.0379 21.1165 47.0847 21.0465L47.4352 20.0884C47.4819 19.9948 47.3884 19.9483 47.3416 19.9248L46.8743 19.8079L46.2434 19.7612C45.4021 19.7612 44.7479 19.9948 44.3039 20.4621L43.9767 20.8594L43.7197 21.3502L43.5094 21.9111L43.4156 22.5424Z" fill="white"/>
<path fill-rule="evenodd" clip-rule="evenodd" d="M26.6617 19.9019H25.4466C25.3766 19.9019 25.3065 19.9719 25.3065 20.042V29.8794C25.3065 29.9495 25.3533 30.0195 25.4466 30.0195H26.6617C26.7317 30.0195 26.8018 29.9495 26.8018 29.8794V20.042C26.8018 19.9719 26.755 19.9019 26.6617 19.9019Z" fill="white"/>
</svg>
