<svg width="168" height="23" viewBox="0 0 168 23" fill="none" xmlns="http://www.w3.org/2000/svg">
<path fill-rule="evenodd" clip-rule="evenodd" d="M108.797 6.94272H103.717L105.706 9.77905H108.289L106.13 22.0557H110.617L112.776 9.77905H118.364L109.516 2.66705L108.797 6.94272ZM20.955 6.10352e-05H0.550333L0 3.2174H7.91633L4.61433 22.0981H9.10167L12.4037 3.2174H20.4047L20.955 6.10352e-05ZM26.6277 12.9117H18.796C19.2617 11.3454 20.7857 9.2287 23.5374 9.2287C26.543 9.2287 26.8817 11.5147 26.6277 12.9117ZM24.2994 6.60406C18.5844 6.60406 14.9437 10.2024 14.1817 14.3934C13.3774 19.0501 16.2137 22.4367 22.0134 22.4367C24.5957 22.4367 27.0087 21.9711 28.956 20.8704L29.5487 17.3991C27.6437 18.7537 25.1884 19.5157 23.1564 19.5157C20.2777 19.5157 17.9917 18.3304 18.3727 15.5787H30.2684C30.3954 15.2401 30.5647 14.6897 30.6917 13.9701C31.242 10.6681 30.0567 6.60406 24.2994 6.60406ZM44.1537 6.60406C41.3597 6.60406 39.243 7.74706 38.2693 8.9324H38.1847L34.2477 6.60406C34.1207 7.9164 33.909 9.6944 33.6127 11.4301L31.75 22.0557H36.2373L37.8037 13.1657C37.8883 12.7424 38.0153 12.2767 38.227 11.9381C38.9043 10.7527 40.3013 9.6944 42.0793 9.6944C44.5347 9.6944 45.212 11.3454 44.831 13.5044L43.3493 22.0557H47.8367L49.403 13.0811C50.165 8.33973 47.244 6.60406 44.1537 6.60406ZM98.044 6.60406C95.25 6.60406 93.1334 7.74706 92.1597 8.9324H92.075L88.138 6.60406C88.011 7.9164 87.7994 9.6944 87.503 11.4301L85.6404 22.0557H90.1277L91.694 13.1657C91.7787 12.7424 91.9057 12.2767 92.1174 11.9381C92.7947 10.7527 94.1917 9.6944 95.9697 9.6944C98.425 9.6944 99.1024 11.3454 98.7214 13.5044L97.2397 22.0557H101.727L103.293 13.0811C104.098 8.33973 101.177 6.60406 98.044 6.60406ZM80.5179 12.9117H72.6863C73.1519 11.3454 74.6759 9.2287 77.4276 9.2287C80.4756 9.2287 80.8143 11.5147 80.5179 12.9117ZM78.1896 6.60406C72.4746 6.60406 68.834 10.2024 68.1143 14.3934C67.31 19.0501 70.1463 22.4367 75.946 22.4367C78.5283 22.4367 80.9413 21.9711 82.8886 20.8704L83.4813 17.3991C81.5763 18.7537 79.121 19.5157 77.089 19.5157C74.2103 19.5157 71.9243 18.3304 72.3053 15.5787H84.201C84.328 15.2401 84.4973 14.6897 84.6243 13.9701C85.1746 10.6681 83.9893 6.60406 78.1896 6.60406ZM51.2233 14.3087C50.419 19.0077 53.6786 22.3944 59.2666 22.3944C61.468 22.3944 64.135 21.7594 65.1086 21.3784L65.8283 17.3144C64.262 19.0077 62.1453 19.3464 60.6636 19.3464C57.6156 19.3464 55.2873 17.5684 55.8376 14.4781C56.3033 11.6841 58.928 9.5674 62.357 9.5674C63.754 9.5674 65.659 10.0331 66.8443 11.5994L67.5217 7.49307C66.548 7.11207 65.024 6.60406 62.738 6.60406C56.4726 6.64639 52.0276 9.77907 51.2233 14.3087ZM138.853 10.2024C138.43 9.73674 137.964 8.93242 137.71 8.38208H136.779C136.271 9.01708 135.509 9.69442 134.874 10.2024H138.853ZM137.922 12.0651H132.461L134.112 12.8271L133.816 14.3087H137.456C137.414 14.3087 137.922 12.0651 137.922 12.0651ZM140.547 11.7264L139.954 14.3087H141.182C142.028 14.3087 142.621 14.4781 142.452 15.4941C142.155 17.3567 141.69 19.9391 141.266 22.0981H134.62L134.07 20.1084H138.98C139.192 19.0501 139.488 17.7801 139.615 16.7217C139.658 16.3831 139.531 16.2561 139.15 16.2561H130.852L131.614 12.2344C131.022 12.5307 130.133 12.8271 129.244 12.9964L129.752 10.5834C131.318 10.2024 132.884 9.44039 133.858 8.38206H130.133L130.556 6.47706H135.17C135.424 6.13839 135.636 5.67273 135.721 5.33406H130.768L131.149 3.3444H132.927L132.292 0.423394H134.832L135.424 3.3444H136.313C136.61 2.37073 136.779 1.05839 136.821 6.10352e-05H139.404C139.361 1.05839 139.192 2.37073 138.938 3.3444H139.954C140.335 2.45539 140.758 1.35473 141.097 0.423394H143.679C143.341 1.31239 142.875 2.41306 142.452 3.3444H144.272L143.806 5.33406H138.43C138.345 5.67273 138.134 6.13839 137.964 6.47706H144.484L144.018 8.38206H140.166C140.97 9.60972 142.96 10.5411 144.484 10.8797L143.637 13.0387C142.621 12.7847 141.436 12.2767 140.547 11.7264ZM137.71 19.1771H129.244L128.905 17.2297H138.134V17.2721L137.71 19.1771ZM127.72 2.70941H126.45C126.238 3.89475 126.069 5.16475 125.815 6.47708H127.508L128.143 3.21741C128.228 2.83641 128.101 2.70941 127.72 2.70941ZM127.212 8.46674H125.476C125.222 9.77907 124.968 11.1337 124.672 12.4884H126.492L127.212 8.46674ZM130.683 2.03209C129.455 8.76308 128.355 15.4094 127.085 22.1404H124.545C125.053 19.6004 125.603 16.9334 126.026 14.4358H124.206C123.656 17.0181 123.063 19.6428 122.513 22.1404H119.973C122.089 15.3671 123.148 8.38209 124.333 0.67742H129.074C130.429 0.635085 130.895 0.846751 130.683 2.03209ZM165.439 0.677368H153.755L154.263 2.92103H162.983C163.576 2.92103 163.83 3.0057 163.703 3.6407C163.364 5.46103 163.026 7.28137 162.687 9.05937H158.877L159.512 5.24937L156.845 3.68303L155.871 9.05937H153.035L152.654 11.303H155.448C154.855 14.9014 154.178 18.5844 153.458 22.1827H156.506C157.226 18.542 157.903 14.9437 158.496 11.303H162.264C161.629 14.9437 160.951 18.669 160.232 22.1827H165.608L166.539 19.939H163.703C164.846 14.224 165.989 8.2127 167.005 2.45536C167.217 1.14303 166.963 0.677368 165.439 0.677368ZM152.612 5.29173C152.231 3.55606 151.765 1.69339 151.342 6.10352e-05H148.505C148.886 1.73573 149.267 3.59839 149.606 5.29173H152.612ZM146.431 6.43475H151.68C151.172 9.94842 150.537 13.5044 149.86 17.0604C150.876 16.2984 151.892 15.4941 152.866 14.6898L152.315 17.9071C150.537 19.3888 148.082 21.1668 145.838 22.4368C146.812 17.9071 147.701 13.0811 148.378 8.67842H146.008L146.431 6.43475Z" fill="#44486C"/>
</svg>
