<svg width="526" height="288" viewBox="0 0 526 288" fill="none" xmlns="http://www.w3.org/2000/svg">
<path d="M15.2411 272.529H34.5144C50.7314 272.438 56.5187 263.303 56.2558 248.922V23.8149C56.1955 7.05071 65.7377 0.395541 81.8069 0.611511H238.272C254.422 0.611511 259.862 9.49718 259.862 25.4077V58.1382" stroke="#FA5A28" stroke-linecap="round" stroke-linejoin="round" stroke-dasharray="3 3"/>
<path d="M517.955 272.529H498.682C482.465 272.438 476.678 263.303 476.941 248.922V23.8149C477.001 7.05071 467.459 0.395541 451.39 0.611511H290.923C274.773 0.611511 269.333 9.49718 269.333 25.4077V58.1382" stroke="#FA5A28" stroke-linecap="round" stroke-linejoin="round" stroke-dasharray="3 3"/>
<path fill-rule="evenodd" clip-rule="evenodd" d="M15.7412 287.128C24.3047 287.128 31.2468 280.188 31.2468 271.627C31.2468 263.066 24.3047 256.126 15.7412 256.126C7.1777 256.126 0.235596 263.066 0.235596 271.627C0.235596 280.188 7.1777 287.128 15.7412 287.128Z" fill="#FA5A28"/>
<path fill-rule="evenodd" clip-rule="evenodd" d="M264.831 72.1127C273.395 72.1127 280.337 65.1726 280.337 56.6116C280.337 48.0506 273.395 41.1105 264.831 41.1105C256.268 41.1105 249.326 48.0506 249.326 56.6116C249.326 65.1726 256.268 72.1127 264.831 72.1127Z" fill="#7B39D9"/>
<path fill-rule="evenodd" clip-rule="evenodd" d="M509.92 287.128C518.484 287.128 525.426 280.188 525.426 271.627C525.426 263.066 518.484 256.126 509.92 256.126C501.357 256.126 494.415 263.066 494.415 271.627C494.415 280.188 501.357 287.128 509.92 287.128Z" fill="#00CCB0"/>
<path fill-rule="evenodd" clip-rule="evenodd" d="M15.7413 276.128C18.2274 276.128 20.2429 274.113 20.2429 271.627C20.2429 269.142 18.2274 267.127 15.7413 267.127C13.2551 267.127 11.2396 269.142 11.2396 271.627C11.2396 274.113 13.2551 276.128 15.7413 276.128Z" fill="white"/>
<path fill-rule="evenodd" clip-rule="evenodd" d="M264.831 61.1119C267.318 61.1119 269.333 59.097 269.333 56.6115C269.333 54.1261 267.318 52.1112 264.831 52.1112C262.345 52.1112 260.33 54.1261 260.33 56.6115C260.33 59.097 262.345 61.1119 264.831 61.1119Z" fill="white"/>
<path fill-rule="evenodd" clip-rule="evenodd" d="M509.92 276.128C512.406 276.128 514.422 274.113 514.422 271.627C514.422 269.142 512.406 267.127 509.92 267.127C507.434 267.127 505.419 269.142 505.419 271.627C505.419 274.113 507.434 276.128 509.92 276.128Z" fill="white"/>
</svg>
