<svg width="315" height="148" viewBox="0 0 315 148" fill="none" xmlns="http://www.w3.org/2000/svg">
<path fill-rule="evenodd" clip-rule="evenodd" d="M115.223 109.214C115.223 113.565 111.773 117.092 107.518 117.092H88.0649C83.8122 117.089 80.3666 113.562 80.3666 109.214C80.3666 104.865 83.8122 101.339 88.0649 101.335H107.562C111.817 101.335 115.267 104.863 115.267 109.214H115.223Z" fill="#F2F2F2"/>
<path fill-rule="evenodd" clip-rule="evenodd" d="M287.516 28.1819C287.513 32.5323 284.063 36.0571 279.809 36.0571H260.304C256.056 36.05 252.616 32.5262 252.616 28.1819C252.614 26.0911 253.426 24.0853 254.872 22.6069C256.317 21.1284 258.279 20.2986 260.323 20.3003H279.828C284.077 20.3109 287.516 23.8365 287.516 28.1819Z" fill="#F2F2F2"/>
<path fill-rule="evenodd" clip-rule="evenodd" d="M290.868 129.469C290.869 131.559 290.047 133.564 288.581 135.042C287.115 136.52 285.127 137.351 283.053 137.351H250.279C245.968 137.34 242.48 133.814 242.483 129.469C242.483 127.38 243.308 125.376 244.775 123.899C246.242 122.421 248.231 121.593 250.305 121.594H283.078C287.394 121.594 290.893 125.12 290.893 129.469H290.868Z" fill="#F2F2F2"/>
<path fill-rule="evenodd" clip-rule="evenodd" d="M164.802 16.9238C164.802 21.2749 161.301 24.8022 156.982 24.8022H124.213C119.894 24.8022 116.392 21.2749 116.392 16.9238C116.392 12.5752 119.89 9.04896 124.206 9.04541H156.976C161.295 9.04541 164.796 12.5727 164.796 16.9238H164.802Z" fill="#F2F2F2"/>
<path fill-rule="evenodd" clip-rule="evenodd" d="M281.968 42.8101H302.062C308.949 42.8101 314.531 48.3951 314.531 55.2845V93.3628C314.531 100.252 308.949 105.837 302.062 105.837H281.968C275.081 105.837 269.499 100.252 269.499 93.3628V55.2845C269.499 48.3951 275.081 42.8101 281.968 42.8101Z" stroke="#F94F24" stroke-width="0.861538" stroke-linecap="round" stroke-dasharray="2.58 1.72"/>
<path fill-rule="evenodd" clip-rule="evenodd" d="M189.087 37.5798C189.087 37.5798 229.85 33.8878 242.796 49.0307C255.743 64.1735 251.303 79.5288 235.377 100.207C219.45 120.884 197.953 127.5 179.844 99.7943C161.735 72.0886 154.786 42.7898 189.087 37.5798Z" fill="#F2F2F2"/>
<path fill-rule="evenodd" clip-rule="evenodd" d="M196.891 74.351C196.891 57.2585 210.748 43.4023 227.84 43.4023C244.932 43.4023 258.789 57.2585 258.789 74.351C258.789 91.4434 244.932 105.3 227.84 105.3C210.748 105.3 196.891 91.4434 196.891 74.351Z" stroke="#FA5A28" stroke-dasharray="2 2"/>
<path fill-rule="evenodd" clip-rule="evenodd" d="M13.2232 140.169C13.3281 140.163 13.4334 140.163 13.5384 140.169C13.4336 140.158 13.3279 140.158 13.2232 140.169Z" fill="url(#paint0_linear)"/>
<path fill-rule="evenodd" clip-rule="evenodd" d="M0.841136 141.456V141.853C0.814183 141.46 0.923489 141.07 1.15636 140.727C0.955221 140.934 0.844287 141.191 0.841136 141.456Z" fill="url(#paint1_linear)"/>
<path fill-rule="evenodd" clip-rule="evenodd" d="M203.644 74.351C203.644 60.9878 214.477 50.1548 227.84 50.1548C241.203 50.1548 252.036 60.9878 252.036 74.351C252.036 87.7142 241.203 98.5472 227.84 98.5472C214.477 98.5472 203.644 87.7142 203.644 74.351Z" fill="url(#paint2_linear)"/>
<path fill-rule="evenodd" clip-rule="evenodd" d="M101.125 74.7377H90.3524H101.125Z" fill="white"/>
<path d="M101.125 74.7377H90.3524" stroke="#F94F24" stroke-width="0.861538" stroke-linecap="round" stroke-dasharray="2.58 1.72"/>
<path fill-rule="evenodd" clip-rule="evenodd" d="M127.566 74.7377H107H127.566Z" fill="white"/>
<path d="M127.566 74.7377H107" stroke="#F94F24" stroke-width="0.861538" stroke-linecap="round" stroke-dasharray="2.58 1.72"/>
<path fill-rule="evenodd" clip-rule="evenodd" d="M174.572 74.7377H154.007H174.572Z" fill="white"/>
<path d="M174.572 74.7377H154.007" stroke="#F94F24" stroke-width="0.861538" stroke-linecap="round" stroke-dasharray="2.58 1.72"/>
<path fill-rule="evenodd" clip-rule="evenodd" d="M107.001 74.7379C107.001 76.0861 105.904 77.179 104.552 77.179C103.2 77.179 102.104 76.0861 102.104 74.7379C102.104 73.3898 103.2 72.2969 104.552 72.2969C105.904 72.2969 107.001 73.3898 107.001 74.7379Z" fill="white" stroke="#F94F24" stroke-width="1.72308" stroke-linecap="round"/>
<path fill-rule="evenodd" clip-rule="evenodd" d="M146.369 139.046L145.477 139.517L142.402 130.75C142.223 130.245 141.747 129.906 141.212 129.905H139.491C138.792 129.905 138.226 130.474 138.226 131.176C138.226 131.877 138.792 132.446 139.491 132.446H140.32L141.054 134.543L136.625 140.577C136.213 141.141 136.332 141.933 136.891 142.35C137.107 142.51 137.369 142.597 137.637 142.597C138.04 142.596 138.418 142.403 138.656 142.077L142.054 137.439L143.566 141.753C143.689 142.101 143.956 142.378 144.299 142.512C144.641 142.646 145.025 142.624 145.35 142.451L147.533 141.295C148.097 140.943 148.295 140.214 147.985 139.623C147.675 139.033 146.964 138.784 146.356 139.053L146.369 139.046Z" fill="#6731CF"/>
<path fill-rule="evenodd" clip-rule="evenodd" d="M141.276 124.047C136.523 124.047 132.237 126.902 130.419 131.281C128.6 135.66 129.607 140.7 132.969 144.051C136.331 147.401 141.387 148.402 145.778 146.587C150.169 144.771 153.03 140.497 153.028 135.758C153.018 129.292 147.761 124.054 141.276 124.047ZM141.276 146.516C135.317 146.516 130.486 141.699 130.486 135.758C130.486 129.816 135.317 125 141.276 125C147.235 125 152.066 129.816 152.066 135.758C152.063 141.698 147.234 146.512 141.276 146.516Z" fill="#6731CF"/>
<path fill-rule="evenodd" clip-rule="evenodd" d="M146.369 77.5323L145.477 78.0023L142.402 69.2423C142.225 68.7343 141.748 68.3933 141.212 68.3911H139.491C138.792 68.3911 138.226 68.9599 138.226 69.6616C138.226 70.3633 138.792 70.9321 139.491 70.9321H140.32L141.054 73.0284L136.625 79.0632C136.213 79.6267 136.332 80.4188 136.891 80.8355C137.107 80.9956 137.369 81.0824 137.637 81.0833C138.04 81.0823 138.418 80.8889 138.656 80.5624L142.054 75.9251L143.566 80.2384C143.689 80.5864 143.956 80.8635 144.299 80.9977C144.641 81.1318 145.025 81.1097 145.35 80.9372L147.533 79.781C148.097 79.4293 148.295 78.6993 147.985 78.1093C147.675 77.5193 146.964 77.2701 146.356 77.5386L146.369 77.5323Z" fill="#6731CF"/>
<path fill-rule="evenodd" clip-rule="evenodd" d="M141.276 63.5093C136.523 63.5093 132.238 66.364 130.419 70.7423C128.601 75.1205 129.606 80.1601 132.967 83.5111C136.328 86.8621 141.382 87.8646 145.773 86.051C150.165 84.2375 153.028 79.9651 153.028 75.2261C153.021 68.7578 147.764 63.5159 141.276 63.5093ZM141.276 85.9779C136.912 85.9779 132.977 83.3562 131.307 79.3354C129.638 75.3147 130.562 70.687 133.649 67.6107C136.736 64.5344 141.378 63.6155 145.41 65.2825C149.441 66.9496 152.069 70.8742 152.066 75.2259C152.059 81.1637 147.232 85.9746 141.276 85.9779Z" fill="#6731CF"/>
<path fill-rule="evenodd" clip-rule="evenodd" d="M234.73 76.7677L233.538 77.3958L229.43 65.6915C229.193 65.0127 228.556 64.5571 227.84 64.5542H225.541C224.607 64.5542 223.85 65.3142 223.85 66.2517C223.85 67.1892 224.607 67.9492 225.541 67.9492H226.648L227.629 70.7501L221.711 78.8132C221.161 79.5661 221.319 80.6244 222.067 81.1812C222.356 81.3951 222.705 81.511 223.064 81.5122C223.602 81.5109 224.108 81.2525 224.425 80.8162L228.965 74.6204L230.985 80.3834C231.149 80.8483 231.506 81.2186 231.964 81.3978C232.422 81.5771 232.935 81.5476 233.369 81.317L236.285 79.7723C237.039 79.3024 237.303 78.327 236.889 77.5387C236.476 76.7504 235.525 76.4174 234.713 76.7762L234.73 76.7677Z" fill="white"/>
<path fill-rule="evenodd" clip-rule="evenodd" d="M227.926 58.0327C221.575 58.0327 215.85 61.8469 213.42 67.6967C210.99 73.5465 212.333 80.2799 216.823 84.7572C221.314 89.2344 228.067 90.5738 233.934 88.1507C239.801 85.7277 243.627 80.0193 243.627 73.6876C243.618 65.0453 236.594 58.0416 227.926 58.0327ZM227.926 88.0528C222.094 88.0528 216.837 84.5499 214.606 79.1778C212.375 73.8057 213.61 67.6226 217.735 63.5124C221.859 59.4022 228.061 58.1744 233.448 60.4017C238.835 62.629 242.345 67.8727 242.342 73.6871C242.333 81.6205 235.882 88.0484 227.926 88.0528Z" fill="white"/>
<path fill-rule="evenodd" clip-rule="evenodd" d="M146.369 14.065L145.477 14.5351L142.402 5.77505C142.225 5.267 141.748 4.92597 141.212 4.92383H139.491C138.792 4.92383 138.226 5.49264 138.226 6.19432C138.226 6.89599 138.792 7.4648 139.491 7.4648H140.32L141.054 9.56111L136.625 15.5959C136.213 16.1595 136.332 16.9515 136.891 17.3682C137.107 17.5283 137.369 17.6151 137.637 17.616C138.04 17.615 138.418 17.4216 138.656 17.0951L142.054 12.4578L143.566 16.7711C143.689 17.1191 143.956 17.3962 144.299 17.5304C144.641 17.6645 145.025 17.6425 145.35 17.4699L147.533 16.3137C148.097 15.962 148.295 15.2321 147.985 14.642C147.675 14.052 146.964 13.8028 146.356 14.0713L146.369 14.065Z" fill="#6731CF"/>
<path fill-rule="evenodd" clip-rule="evenodd" d="M141.276 0.0419922C136.523 0.0419922 132.238 2.8967 130.419 7.27498C128.601 11.6533 129.606 16.6929 132.967 20.0438C136.328 23.3948 141.382 24.3973 145.773 22.5837C150.165 20.7702 153.028 16.4978 153.028 11.7588C153.021 5.29055 147.764 0.04864 141.276 0.0419922ZM141.276 22.5106C136.912 22.5106 132.977 19.8889 131.307 15.8681C129.638 11.8474 130.562 7.21972 133.649 4.14343C136.736 1.06713 141.378 0.148215 145.41 1.81525C149.441 3.48228 152.069 7.40689 152.066 11.7586C152.059 17.6964 147.232 22.5073 141.276 22.5106Z" fill="#6731CF"/>
<path fill-rule="evenodd" clip-rule="evenodd" d="M106.021 72.297L134.421 24.4526L106.021 72.297Z" fill="white"/>
<path d="M106.021 72.297L134.421 24.4526" stroke="#F94F24" stroke-width="0.861538" stroke-linecap="round" stroke-dasharray="2.58 1.72"/>
<path fill-rule="evenodd" clip-rule="evenodd" d="M176.531 72.297L148.131 24.4526L176.531 72.297Z" fill="white"/>
<path d="M176.531 72.297L148.131 24.4526" stroke="#F94F24" stroke-width="0.861538" stroke-linecap="round" stroke-dasharray="2.58 1.72"/>
<path fill-rule="evenodd" clip-rule="evenodd" d="M106.021 76.2026L134.421 124.047L106.021 76.2026Z" fill="white"/>
<path d="M106.021 76.2026L134.421 124.047" stroke="#F94F24" stroke-width="0.861538" stroke-linecap="round" stroke-dasharray="2.58 1.72"/>
<path fill-rule="evenodd" clip-rule="evenodd" d="M176.531 76.2026L148.131 124.047L176.531 76.2026Z" fill="white"/>
<path d="M176.531 76.2026L148.131 124.047" stroke="#F94F24" stroke-width="0.861538" stroke-linecap="round" stroke-dasharray="2.58 1.72"/>
<path fill-rule="evenodd" clip-rule="evenodd" d="M260.49 75.4492C260.49 76.6924 259.482 77.7002 258.238 77.7002C256.995 77.7002 255.987 76.6924 255.987 75.4492C255.987 74.206 256.995 73.1982 258.238 73.1982C259.482 73.1982 260.49 74.206 260.49 75.4492Z" fill="white" stroke="#F94F24" stroke-width="1.72308" stroke-linecap="round"/>
<path fill-rule="evenodd" clip-rule="evenodd" d="M76.3694 77.6132L75.5186 78.0719L72.5859 69.5237C72.4152 69.0303 71.9612 68.7004 71.4515 68.6992H69.8102C69.1437 68.6992 68.6033 69.2543 68.6033 69.939C68.6033 70.6237 69.1437 71.1788 69.8102 71.1788H70.6007L71.3006 73.2182L67.0767 79.1071C66.6835 79.657 66.7967 80.43 67.3301 80.8366C67.5364 80.9928 67.7858 81.0775 68.0421 81.0784C68.4252 81.0789 68.7857 80.8925 69.0137 80.5763L72.254 76.0449L73.6962 80.2539C73.8134 80.5935 74.0685 80.8639 74.3952 80.9948C74.7219 81.1257 75.0879 81.1042 75.3979 80.9358L77.4797 79.8138C78.0527 79.4867 78.2667 78.7496 77.9618 78.1535C77.6569 77.5574 76.9446 77.3203 76.3573 77.6194L76.3694 77.6132Z" fill="#6731CF"/>
<path fill-rule="evenodd" clip-rule="evenodd" d="M71.9087 64.1968C67.1276 64.1968 62.8173 67.076 60.9877 71.4919C59.158 75.9077 60.1694 80.9906 63.5501 84.3704C66.9309 87.7502 72.0152 88.7612 76.4324 86.9321C80.8495 85.103 83.7296 80.7939 83.7296 76.0142C83.7229 69.4904 78.4344 64.2035 71.9087 64.1968ZM71.9088 86.8584C67.5184 86.8584 63.5604 84.2141 61.8809 80.1589C60.2013 76.1036 61.131 71.4362 64.2363 68.3335C67.3417 65.2308 72.011 64.304 76.0665 65.9853C80.122 67.6667 82.7648 71.625 82.7623 76.0141C82.7556 82.0029 77.8993 86.8551 71.9088 86.8584Z" fill="#6731CF"/>
<path fill-rule="evenodd" clip-rule="evenodd" d="M90.4854 75.4492C90.4854 76.6924 89.4773 77.7002 88.2338 77.7002C86.9903 77.7002 85.9822 76.6924 85.9822 75.4492C85.9822 74.206 86.9903 73.1982 88.2338 73.1982C89.4773 73.1982 90.4854 74.206 90.4854 75.4492Z" fill="white" stroke="#F94F24" stroke-width="1.72308" stroke-linecap="round"/>
<path fill-rule="evenodd" clip-rule="evenodd" d="M292.015 63.7184C283.932 63.7184 277.379 61.4131 277.379 58.5669V66.9151C277.379 69.7613 283.932 72.0727 292.015 72.0727C300.097 72.0727 306.651 69.7613 306.651 66.9151V58.5669C306.651 61.4131 300.097 63.7184 292.015 63.7184Z" fill="#2E9033"/>
<path fill-rule="evenodd" clip-rule="evenodd" d="M292.015 76.1026C283.932 76.1026 277.379 73.7984 277.379 70.9473V79.2978C277.379 82.1427 283.932 84.4531 292.015 84.4531C300.097 84.4531 306.651 82.1427 306.651 79.2978V70.9473C306.651 73.7984 300.097 76.1026 292.015 76.1026Z" fill="#2E9033"/>
<path fill-rule="evenodd" clip-rule="evenodd" d="M292.015 87.3575C283.932 87.3575 277.379 85.0471 277.379 82.2021V90.5527C277.379 93.3976 283.932 95.708 292.015 95.708C300.097 95.708 306.651 93.3976 306.651 90.5527V82.2021C306.651 85.0471 300.097 87.3575 292.015 87.3575Z" fill="#2E9033"/>
<path fill-rule="evenodd" clip-rule="evenodd" d="M306.651 59.1327C306.651 61.9293 300.097 64.1943 292.015 64.1943C283.932 64.1943 277.379 61.9293 277.379 59.1327C277.379 56.336 283.932 54.0649 292.015 54.0649C300.097 54.0649 306.651 56.3421 306.651 59.1327Z" fill="#4BA54B"/>
<path fill-rule="evenodd" clip-rule="evenodd" d="M173.809 118.211C173.811 120.943 172.167 123.407 169.643 124.454C167.12 125.501 164.213 124.925 162.28 122.994C160.347 121.064 159.768 118.159 160.813 115.634C161.858 113.11 164.322 111.464 167.054 111.464C170.782 111.464 173.805 114.484 173.809 118.211Z" fill="#F2F2F2"/>
<path fill-rule="evenodd" clip-rule="evenodd" d="M194.074 74.887H179.438H194.074Z" fill="white"/>
<path d="M194.074 74.887H179.438" stroke="#F94F24" stroke-width="0.861538" stroke-linecap="round" stroke-dasharray="2.58 1.72"/>
<path fill-rule="evenodd" clip-rule="evenodd" d="M179.438 75.4492C179.438 76.6924 178.43 77.7002 177.186 77.7002C175.943 77.7002 174.935 76.6924 174.935 75.4492C174.935 74.206 175.943 73.1982 177.186 73.1982C178.43 73.1982 179.438 74.206 179.438 75.4492Z" fill="white" stroke="#F94F24" stroke-width="1.72308" stroke-linecap="round"/>
<path fill-rule="evenodd" clip-rule="evenodd" d="M198.575 75.4492C198.575 76.6924 197.567 77.7002 196.323 77.7002C195.08 77.7002 194.072 76.6924 194.072 75.4492C194.072 74.206 195.08 73.1982 196.323 73.1982C197.567 73.1982 198.575 74.206 198.575 75.4492Z" fill="white" stroke="#F94F24" stroke-width="1.72308" stroke-linecap="round"/>
<path fill-rule="evenodd" clip-rule="evenodd" d="M269.499 74.8867L261.039 74.9136L269.499 74.8867Z" fill="white"/>
<path d="M269.499 74.8867L261.039 74.9136" stroke="#F94F24" stroke-width="0.861538" stroke-linecap="round" stroke-dasharray="2.58 1.72"/>
<path fill-rule="evenodd" clip-rule="evenodd" d="M271.751 75.4492C271.751 76.6924 270.742 77.7002 269.499 77.7002C268.255 77.7002 267.247 76.6924 267.247 75.4492C267.247 74.206 268.255 73.1982 269.499 73.1982C270.742 73.1982 271.751 74.206 271.751 75.4492Z" fill="white" stroke="#F94F24" stroke-width="1.72308" stroke-linecap="round"/>
<defs>
<linearGradient id="paint0_linear" x1="13.5159" y1="140.22" x2="13.3921" y2="140.017" gradientUnits="userSpaceOnUse">
<stop stop-color="#8033EB"/>
<stop offset="0.53" stop-color="#D4648E"/>
<stop offset="1" stop-color="#EC7071"/>
</linearGradient>
<linearGradient id="paint1_linear" x1="1.61665" y1="141.257" x2="0.997687" y2="140.427" gradientUnits="userSpaceOnUse">
<stop stop-color="#8033EB"/>
<stop offset="0.53" stop-color="#D4648E"/>
<stop offset="1" stop-color="#EC7071"/>
</linearGradient>
<linearGradient id="paint2_linear" x1="234.599" y1="128.02" x2="264.1" y2="72.8664" gradientUnits="userSpaceOnUse">
<stop stop-color="#8033EB"/>
<stop offset="1" stop-color="#F94F24"/>
</linearGradient>
</defs>
</svg>
