<svg width="205" height="156" viewBox="0 0 205 156" fill="none" xmlns="http://www.w3.org/2000/svg">
<rect x="0.290649" y="58.4746" width="127.046" height="31.0023" rx="15.5011" fill="#F2F2F2"/>
<path fill-rule="evenodd" clip-rule="evenodd" d="M203.364 42.4734C203.364 47.9966 198.885 52.4741 193.361 52.4741C187.836 52.4741 183.357 47.9966 183.357 42.4734C183.357 36.9501 187.836 32.4727 193.361 32.4727C198.885 32.4727 203.364 36.9501 203.364 42.4734Z" fill="#F2F2F2"/>
<path fill-rule="evenodd" clip-rule="evenodd" d="M63.3135 145.461C63.3215 149.507 60.8893 153.16 57.1519 154.714C53.4145 156.268 49.1086 155.418 46.2435 152.559C43.3784 149.7 42.519 145.397 44.0661 141.658C45.6133 137.919 49.2622 135.48 53.31 135.48C58.8271 135.48 63.3026 139.945 63.3135 145.461Z" fill="#F2F2F2"/>
<path fill-rule="evenodd" clip-rule="evenodd" d="M107.83 132.48C140.703 132.48 167.351 105.839 167.351 72.9756C167.351 40.1122 140.703 13.4712 107.83 13.4712C74.9568 13.4712 48.3081 40.1122 48.3081 72.9756C48.3081 105.839 74.9568 132.48 107.83 132.48Z" fill="url(#paint0_linear)"/>
<path fill-rule="evenodd" clip-rule="evenodd" d="M107.067 146.481C106.169 146.461 105.256 146.422 104.358 146.367C104.002 146.345 103.731 146.037 103.753 145.679C103.774 145.321 104.08 145.048 104.436 145.07C105.318 145.125 106.216 145.16 107.099 145.184C107.454 145.184 107.743 145.474 107.743 145.832C107.743 146.191 107.454 146.481 107.099 146.481H107.067ZM111.545 146.453C111.207 146.434 110.941 146.155 110.934 145.814C110.928 145.473 111.184 145.184 111.522 145.152C112.408 145.121 113.302 145.07 114.184 145.003C114.414 144.986 114.636 145.094 114.766 145.286C114.895 145.479 114.913 145.726 114.812 145.935C114.712 146.144 114.508 146.283 114.278 146.3C113.38 146.367 112.47 146.418 111.573 146.453H111.545ZM99.9387 145.954H99.8606C98.9666 145.844 98.0609 145.714 97.1747 145.561C96.8422 145.484 96.6263 145.16 96.6809 144.821C96.7355 144.482 97.0419 144.243 97.3816 144.276C98.2522 144.421 99.1384 144.547 100.017 144.669C100.358 144.707 100.61 145.008 100.589 145.353C100.569 145.698 100.282 145.966 99.9387 145.962V145.954ZM118.701 145.828C118.354 145.841 118.06 145.574 118.036 145.225C118.012 144.877 118.266 144.572 118.611 144.535C119.49 144.413 120.372 144.276 121.243 144.122C121.471 144.078 121.705 144.162 121.855 144.34C122.006 144.519 122.049 144.765 121.968 144.985C121.887 145.204 121.695 145.363 121.465 145.4C120.579 145.557 119.681 145.699 118.787 145.824L118.701 145.828ZM92.8842 144.712C92.8362 144.718 92.7877 144.718 92.7398 144.712C91.8614 144.512 90.9752 144.291 90.1046 144.06C89.7607 143.966 89.557 143.61 89.6497 143.264C89.7425 142.917 90.0964 142.712 90.4403 142.806C91.2914 143.034 92.162 143.25 93.0247 143.446C93.345 143.519 93.5601 143.822 93.524 144.15C93.488 144.479 93.2124 144.728 92.8842 144.728V144.712ZM125.74 144.492C125.442 144.495 125.181 144.289 125.112 143.997C125.028 143.647 125.241 143.296 125.588 143.211C126.443 143.006 127.31 142.778 128.164 142.534C128.507 142.437 128.864 142.637 128.961 142.983C129.058 143.328 128.859 143.687 128.516 143.784C127.645 144.032 126.763 144.264 125.892 144.476C125.837 144.489 125.781 144.494 125.725 144.492H125.74ZM85.982 142.766C85.913 142.767 85.8444 142.757 85.7789 142.735C84.9201 142.444 84.0573 142.137 83.214 141.815C82.8809 141.688 82.7131 141.313 82.8392 140.978C82.9654 140.642 83.3377 140.473 83.6708 140.6C84.4984 140.915 85.3456 141.218 86.1889 141.501C86.4922 141.599 86.6783 141.906 86.6265 142.223C86.5747 142.54 86.3007 142.771 85.982 142.766ZM132.611 142.452C132.296 142.452 132.027 142.224 131.975 141.911C131.923 141.598 132.103 141.293 132.4 141.19C133.228 140.899 134.067 140.585 134.895 140.258C135.11 140.171 135.354 140.206 135.536 140.351C135.718 140.495 135.809 140.727 135.774 140.957C135.739 141.188 135.584 141.382 135.367 141.465C134.524 141.799 133.669 142.118 132.826 142.416C132.752 142.444 132.674 142.456 132.596 142.452H132.611ZM79.2983 140.129C79.2067 140.128 79.1162 140.108 79.0329 140.07C78.213 139.696 77.3854 139.303 76.5773 138.891C76.2538 138.73 76.121 138.336 76.2805 138.01C76.4401 137.684 76.8316 137.551 77.155 137.711C77.9358 138.104 78.7596 138.497 79.5638 138.863C79.8436 138.987 79.9983 139.292 79.9339 139.593C79.8696 139.894 79.6041 140.108 79.2983 140.105V140.129ZM139.24 139.736C138.936 139.738 138.672 139.526 138.606 139.228C138.54 138.929 138.691 138.625 138.967 138.497C139.748 138.128 140.56 137.731 141.352 137.318C141.557 137.212 141.803 137.224 141.997 137.35C142.19 137.476 142.303 137.696 142.291 137.928C142.28 138.16 142.147 138.368 141.942 138.474C141.137 138.891 140.318 139.295 139.513 139.673C139.423 139.715 139.324 139.735 139.224 139.732L139.24 139.736ZM72.9153 136.835C72.8029 136.835 72.6924 136.805 72.5952 136.748C71.8144 136.292 71.0336 135.817 70.2528 135.333C69.9509 135.142 69.8601 134.741 70.0498 134.437C70.2395 134.133 70.638 134.042 70.9399 134.233C71.6895 134.708 72.4586 135.176 73.2237 135.62C73.4747 135.769 73.5961 136.068 73.5205 136.352C73.445 136.635 73.191 136.832 72.8997 136.835H72.9153ZM145.561 136.367C145.271 136.364 145.019 136.167 144.943 135.886C144.867 135.605 144.985 135.307 145.233 135.156C145.99 134.704 146.751 134.229 147.489 133.745C147.787 133.579 148.162 133.674 148.346 133.962C148.531 134.249 148.464 134.632 148.192 134.838C147.438 135.329 146.662 135.813 145.892 136.273C145.787 136.335 145.667 136.366 145.545 136.363L145.561 136.367ZM66.8954 132.912C66.7556 132.914 66.6188 132.872 66.505 132.79C65.771 132.259 65.041 131.709 64.3344 131.155C64.0869 130.928 64.0532 130.548 64.2567 130.281C64.4602 130.013 64.8333 129.947 65.1152 130.129C65.8101 130.671 66.5284 131.214 67.2506 131.736C67.5384 131.948 67.6029 132.353 67.3951 132.645C67.2747 132.81 67.0834 132.908 66.8798 132.908L66.8954 132.912ZM151.506 132.377C151.302 132.375 151.11 132.278 150.987 132.114C150.777 131.823 150.838 131.417 151.124 131.202C151.83 130.679 152.541 130.129 153.236 129.571C153.416 129.426 153.659 129.389 153.873 129.474C154.087 129.558 154.241 129.751 154.275 129.981C154.31 130.21 154.22 130.44 154.04 130.585C153.333 131.155 152.611 131.713 151.889 132.248C151.779 132.331 151.645 132.377 151.506 132.377ZM61.2893 128.407C61.1327 128.407 60.9816 128.35 60.8637 128.246C60.1883 127.645 59.5168 127.027 58.861 126.398C58.6512 126.255 58.5445 126.001 58.5885 125.749C58.6325 125.498 58.8189 125.296 59.0648 125.233C59.3106 125.171 59.5701 125.259 59.7277 125.459C60.3718 126.072 61.0316 126.681 61.6797 127.271C61.8771 127.445 61.9502 127.722 61.8644 127.971C61.7787 128.221 61.5512 128.393 61.2893 128.407ZM157.062 127.802C156.796 127.802 156.557 127.637 156.461 127.387C156.365 127.137 156.432 126.854 156.628 126.674C157.28 126.076 157.936 125.459 158.58 124.838C158.835 124.587 159.243 124.592 159.492 124.848C159.741 125.104 159.737 125.515 159.482 125.766C158.838 126.398 158.171 127.027 157.507 127.637C157.381 127.748 157.218 127.807 157.05 127.802H157.062ZM56.1477 123.372C55.9681 123.373 55.7965 123.297 55.6753 123.163C55.0624 122.499 54.4534 121.815 53.8678 121.127C53.7066 120.953 53.6531 120.704 53.7282 120.479C53.8033 120.253 53.9951 120.087 54.2279 120.046C54.4606 120.005 54.697 120.096 54.8438 120.282C55.4216 120.954 56.015 121.626 56.6201 122.279C56.7964 122.468 56.8441 122.744 56.7413 122.982C56.6386 123.22 56.4052 123.373 56.1477 123.372ZM162.114 122.704C161.954 122.704 161.801 122.644 161.684 122.534C161.42 122.295 161.399 121.885 161.637 121.619C162.235 120.954 162.808 120.274 163.39 119.598C163.538 119.421 163.769 119.336 163.995 119.376C164.222 119.416 164.41 119.575 164.489 119.793C164.568 120.01 164.526 120.254 164.378 120.432C163.804 121.119 163.207 121.811 162.594 122.491C162.471 122.627 162.296 122.705 162.114 122.704ZM51.5293 117.833C51.3282 117.835 51.1383 117.74 51.0179 117.578C50.4713 116.854 49.9326 116.115 49.4172 115.377C49.2337 115.083 49.3107 114.696 49.5924 114.496C49.8742 114.296 50.2621 114.353 50.4752 114.626C50.9827 115.353 51.5098 116.08 52.0368 116.792C52.2515 117.078 52.1957 117.486 51.9119 117.704C51.8009 117.786 51.6672 117.831 51.5293 117.833ZM166.65 117.106C166.51 117.109 166.372 117.065 166.26 116.98C166.122 116.878 166.03 116.725 166.004 116.555C165.979 116.384 166.021 116.211 166.123 116.072C166.65 115.353 167.169 114.618 167.685 113.883C167.885 113.586 168.286 113.51 168.58 113.712C168.875 113.914 168.951 114.318 168.75 114.614C168.243 115.365 167.712 116.115 167.189 116.843C167.069 117.019 166.87 117.124 166.658 117.122L166.65 117.106ZM47.5004 111.902C47.2751 111.9 47.066 111.783 46.946 111.591C46.4775 110.805 46.0169 110.019 45.5757 109.233C45.4011 108.92 45.5112 108.524 45.8217 108.348C46.1322 108.172 46.5254 108.283 46.7001 108.596C47.1334 109.382 47.5863 110.141 48.0469 110.903C48.1376 111.049 48.1663 111.226 48.1267 111.394C48.087 111.561 47.9824 111.706 47.8361 111.796C47.7365 111.862 47.6201 111.899 47.5004 111.902ZM170.628 111.116C170.513 111.114 170.4 111.083 170.3 111.025C170.153 110.937 170.046 110.793 170.005 110.626C169.963 110.458 169.989 110.281 170.078 110.133C170.527 109.37 170.972 108.584 171.397 107.798C171.569 107.483 171.961 107.368 172.274 107.54C172.586 107.713 172.701 108.108 172.529 108.423C172.096 109.209 171.643 110.019 171.186 110.781C171.072 110.984 170.859 111.11 170.628 111.112V111.116ZM44.0688 105.577C43.821 105.579 43.5944 105.436 43.4871 105.211C43.0967 104.402 42.7063 103.572 42.3549 102.735C42.2857 102.578 42.2819 102.399 42.3442 102.239C42.4065 102.079 42.5299 101.95 42.6868 101.882C43.0134 101.739 43.3936 101.888 43.5378 102.216C43.8931 103.034 44.2679 103.851 44.6466 104.645C44.7432 104.846 44.7307 105.083 44.6134 105.272C44.496 105.461 44.2903 105.576 44.0688 105.577ZM173.986 104.728C173.893 104.728 173.801 104.708 173.716 104.669C173.561 104.596 173.44 104.464 173.381 104.302C173.323 104.14 173.331 103.961 173.404 103.804C173.794 102.994 174.146 102.165 174.485 101.347C174.543 101.093 174.747 100.897 175.002 100.851C175.258 100.804 175.516 100.916 175.659 101.135C175.801 101.354 175.8 101.637 175.656 101.855C175.309 102.688 174.938 103.529 174.552 104.355C174.449 104.577 174.23 104.722 173.986 104.728ZM41.2813 98.9654C41.0108 98.9668 40.7686 98.7969 40.6762 98.5409C40.3678 97.6918 40.0711 96.8231 39.7939 95.9583C39.7236 95.6296 39.913 95.3008 40.2314 95.1991C40.5497 95.0973 40.8928 95.2559 41.0237 95.5653C41.297 96.4182 41.5858 97.2712 41.8865 98.1006C41.9592 98.2997 41.9307 98.522 41.8101 98.696C41.6895 98.8699 41.492 98.9735 41.2813 98.9733V98.9654ZM176.695 98.0574C176.622 98.0574 176.549 98.0441 176.48 98.0181C176.147 97.8978 175.972 97.529 176.09 97.1926C176.383 96.3514 176.664 95.4945 176.925 94.6376C177.033 94.2946 177.397 94.1045 177.737 94.2131C178.078 94.3216 178.267 94.6877 178.159 95.0307C177.89 95.9033 177.605 96.7799 177.308 97.6329C177.206 97.8824 176.963 98.0433 176.695 98.0377V98.0574ZM39.1654 92.055C38.871 92.0554 38.6139 91.8547 38.5407 91.5676C38.3182 90.6871 38.1074 89.7909 37.92 88.9065C37.8713 88.5665 38.0927 88.2466 38.4264 88.1751C38.7601 88.1035 39.0918 88.3047 39.1849 88.6353C39.3684 89.5 39.5753 90.3805 39.79 91.2453C39.8763 91.5914 39.6687 91.9427 39.3254 92.0315C39.2731 92.0451 39.2194 92.053 39.1654 92.055ZM178.721 91.1038C178.67 91.105 178.618 91.0984 178.569 91.0841C178.402 91.0441 178.257 90.9386 178.168 90.7909C178.079 90.6433 178.051 90.4659 178.093 90.298C178.299 89.4371 178.483 88.5566 178.666 87.6801C178.736 87.3284 179.076 87.1005 179.426 87.171C179.775 87.2416 180.001 87.5839 179.931 87.9356C179.756 88.8318 179.541 89.728 179.35 90.6007C179.281 90.8946 179.021 91.1027 178.721 91.1038ZM37.7482 84.9835C37.4288 84.9853 37.1564 84.7511 37.108 84.4332C36.9752 83.5409 36.8581 82.629 36.7566 81.7249C36.7308 81.4946 36.829 81.2679 37.0142 81.1303C37.1994 80.9926 37.4435 80.9649 37.6545 81.0575C37.8654 81.1502 38.0113 81.3492 38.0371 81.5795C38.1386 82.4678 38.2558 83.3601 38.3846 84.2367C38.4114 84.4078 38.3692 84.5826 38.2672 84.7222C38.1653 84.8617 38.0122 84.9544 37.8419 84.9796L37.7482 84.9835ZM180.045 84.0284H179.959C179.606 83.9795 179.358 83.6529 179.404 83.2972C179.525 82.4167 179.631 81.5205 179.717 80.6321C179.752 80.275 180.069 80.0146 180.423 80.0504C180.778 80.0862 181.037 80.4047 181.001 80.7619C180.911 81.662 180.806 82.574 180.685 83.4741C180.637 83.7927 180.365 84.0282 180.045 84.0284ZM37.0338 77.8059C36.6907 77.8043 36.4082 77.5337 36.3896 77.1888C36.3467 76.2807 36.3155 75.3609 36.3038 74.4608C36.3017 74.2881 36.3681 74.1217 36.4883 73.9985C36.6085 73.8752 36.7725 73.8054 36.944 73.8043C37.2983 73.8022 37.5878 74.0884 37.5921 74.4451C37.5921 75.3295 37.6311 76.2296 37.678 77.1259C37.6864 77.2979 37.6266 77.4663 37.5116 77.5939C37.3966 77.7215 37.2359 77.7978 37.065 77.8059H37.0338ZM180.661 76.8311H180.638C180.467 76.8249 180.306 76.7506 180.189 76.6245C180.073 76.4985 180.011 76.3309 180.017 76.1589C180.048 75.2745 180.064 74.3704 180.064 73.4781V73.3208C180.09 72.9811 180.372 72.7189 180.71 72.7189C181.049 72.7189 181.33 72.9811 181.356 73.3208V73.4742C181.356 74.3861 181.356 75.3059 181.306 76.2061C181.293 76.555 181.008 76.8313 180.661 76.8311ZM37.0299 70.5929H36.9987C36.6422 70.5759 36.3664 70.2719 36.3818 69.9128C36.4248 69.0127 36.4872 68.0929 36.5614 67.1888C36.6139 66.8502 36.9174 66.6102 37.2565 66.6392C37.5956 66.6681 37.8547 66.9562 37.8497 67.2989C37.7756 68.1912 37.7131 69.0913 37.6741 69.9757C37.6555 70.3207 37.373 70.5913 37.0299 70.5929ZM180.564 69.4844C180.223 69.485 179.94 69.2179 179.92 68.8751C179.865 67.9868 179.791 67.0866 179.701 66.2022C179.678 65.9712 179.779 65.7453 179.966 65.6098C180.154 65.4742 180.398 65.4495 180.609 65.5449C180.819 65.6403 180.962 65.8414 180.985 66.0725C181.075 66.9726 181.149 67.8885 181.208 68.7926C181.23 69.1503 180.962 69.4592 180.607 69.4844H180.564ZM37.7248 63.4152H37.6311C37.462 63.391 37.3095 63.2996 37.2076 63.1616C37.1057 63.0236 37.0628 62.8502 37.0885 62.6802C37.2173 61.7839 37.3695 60.8799 37.5374 59.9836C37.6026 59.6323 37.9378 59.4002 38.287 59.4648C38.6381 59.5304 38.8703 59.8697 38.8062 60.2234C38.6422 61.1 38.4939 61.9923 38.3651 62.8688C38.3134 63.1843 38.0424 63.4156 37.7248 63.4152ZM179.756 62.2989C179.439 62.299 179.169 62.0674 179.119 61.7525C178.975 60.8759 178.815 59.9876 178.635 59.1149C178.564 58.7632 178.79 58.4201 179.139 58.3484C179.488 58.2768 179.829 58.5038 179.9 58.8555C180.08 59.7439 180.248 60.6479 180.392 61.5442C180.42 61.7137 180.38 61.8875 180.28 62.027C180.18 62.1665 180.03 62.2601 179.861 62.2871L179.756 62.2989ZM39.1302 56.3437C39.0761 56.3433 39.0222 56.3354 38.9702 56.3201C38.8047 56.2784 38.6626 56.172 38.5754 56.0244C38.4882 55.8768 38.4631 55.7003 38.5056 55.534C38.7242 54.6574 38.9624 53.773 39.2161 52.9003C39.2689 52.6631 39.4483 52.4751 39.6816 52.4125C39.9149 52.35 40.1634 52.4231 40.3265 52.6024C40.4895 52.7817 40.5401 53.0374 40.4576 53.2659C40.2077 54.1228 39.9696 54.9915 39.7549 55.8524C39.6832 56.141 39.4257 56.3436 39.1302 56.3437ZM178.241 55.247C177.949 55.2483 177.692 55.0514 177.616 54.7675C177.386 53.9066 177.136 53.0379 176.874 52.1889C176.767 51.8459 176.955 51.4798 177.296 51.3713C177.637 51.2627 178 51.4528 178.108 51.7958C178.374 52.6606 178.627 53.545 178.862 54.4216C178.912 54.6161 178.871 54.8232 178.75 54.983C178.628 55.1427 178.441 55.2372 178.241 55.2392V55.247ZM41.2306 49.4373C41.156 49.4373 41.082 49.424 41.012 49.398C40.8509 49.3402 40.7192 49.2204 40.646 49.0648C40.5728 48.9092 40.564 48.7307 40.6216 48.5686C40.93 47.7077 41.2579 46.8508 41.5976 46.0096C41.7323 45.6775 42.109 45.5182 42.4389 45.6539C42.7688 45.7896 42.9269 46.1688 42.7922 46.501C42.4603 47.3225 42.1363 48.1677 41.8357 49.0088C41.7437 49.2657 41.5018 49.437 41.2306 49.4373ZM176.031 48.376C175.764 48.377 175.524 48.2109 175.43 47.9593C175.114 47.1299 174.782 46.2966 174.438 45.479C174.306 45.2624 174.312 44.988 174.453 44.7772C174.594 44.5664 174.845 44.458 175.094 44.4999C175.343 44.5418 175.544 44.7264 175.61 44.9719C175.961 45.8052 176.301 46.6543 176.617 47.4955C176.678 47.6585 176.671 47.8395 176.597 47.9972C176.524 48.1549 176.39 48.276 176.226 48.3327C176.165 48.3607 176.099 48.378 176.031 48.3838V48.376ZM44.0141 42.7864C43.7936 42.7829 43.5898 42.6674 43.4724 42.4794C43.355 42.2914 43.34 42.0564 43.4324 41.8548C43.8228 41.0411 44.2327 40.2196 44.6583 39.4098C44.8254 39.0929 45.216 38.9723 45.5308 39.1406C45.8456 39.3088 45.9653 39.7021 45.7982 40.0191C45.3844 40.8053 44.9784 41.6189 44.5958 42.4169C44.4889 42.6427 44.2626 42.7865 44.0141 42.7864ZM173.158 41.7919C172.913 41.7936 172.689 41.6548 172.58 41.4342C172.19 40.648 171.768 39.8383 171.346 39.0757C171.175 38.7609 171.29 38.3658 171.602 38.1932C171.915 38.0207 172.307 38.1359 172.479 38.4507C172.908 39.2369 173.33 40.0505 173.736 40.8642C173.892 41.1858 173.763 41.5739 173.447 41.7369C173.356 41.7777 173.257 41.7965 173.158 41.7919ZM47.4496 36.4421C47.3307 36.4424 47.2141 36.4083 47.1139 36.3438C46.967 36.255 46.8615 36.1106 46.8211 35.9429C46.7808 35.7752 46.8089 35.5982 46.8992 35.4515C47.3716 34.6653 47.8635 33.8792 48.3593 33.1441C48.5565 32.8456 48.9568 32.7647 49.2533 32.9633C49.5497 33.1619 49.6301 33.565 49.4329 33.8635C48.9488 34.6025 48.4647 35.365 48.0001 36.1315C47.8822 36.3258 47.6718 36.4437 47.4457 36.4421H47.4496ZM169.644 35.5183C169.423 35.5189 169.216 35.4046 169.098 35.2157C168.625 34.4649 168.133 33.7102 167.638 32.979C167.436 32.6838 167.51 32.2799 167.804 32.0769C168.097 31.8739 168.498 31.9487 168.7 32.244C169.207 32.9908 169.707 33.7573 170.191 34.5199C170.318 34.7202 170.327 34.9746 170.213 35.1828C170.099 35.3911 169.881 35.5199 169.644 35.5183ZM51.4824 30.4751C51.3419 30.4751 51.205 30.4296 51.092 30.3454C50.8082 30.1278 50.7524 29.7202 50.9671 29.4334C51.5098 28.7063 52.0759 27.9869 52.6458 27.2872C52.788 27.0968 53.0224 27.0001 53.2564 27.0354C53.4904 27.0708 53.6863 27.2325 53.7667 27.4565C53.8471 27.6806 53.7989 27.931 53.6413 28.1088C53.087 28.7967 52.5287 29.5042 51.9939 30.2196C51.8715 30.3794 51.6829 30.4736 51.4824 30.4751ZM165.526 29.6261C165.326 29.6255 165.137 29.5328 165.014 29.3745C164.475 28.6787 163.909 27.9751 163.339 27.2912C163.229 27.1594 163.175 26.9888 163.189 26.8169C163.204 26.645 163.286 26.4861 163.417 26.3753C163.691 26.1477 164.096 26.1826 164.327 26.4539C164.909 27.1536 165.498 27.8651 166.033 28.5765C166.25 28.8603 166.2 29.2674 165.92 29.4885C165.807 29.5766 165.668 29.6249 165.526 29.6261ZM56.0891 24.9445C55.9268 24.9455 55.7702 24.8836 55.6519 24.7715C55.3913 24.5283 55.3755 24.1184 55.6168 23.8556C56.2297 23.1874 56.8621 22.527 57.4946 21.8902C57.7468 21.6362 58.1559 21.6362 58.4081 21.8902C58.6604 22.1442 58.6604 22.556 58.4081 22.81C57.7874 23.435 57.1666 24.0876 56.5615 24.7401C56.4391 24.8713 56.268 24.9453 56.0891 24.9445ZM160.837 24.1583C160.661 24.1585 160.493 24.086 160.372 23.9578C159.763 23.3171 159.131 22.6764 158.498 22.0514C158.333 21.8899 158.266 21.6519 158.322 21.427C158.379 21.2022 158.55 21.0246 158.771 20.9612C158.993 20.8979 159.231 20.9583 159.396 21.1198C160.044 21.7527 160.685 22.4052 161.305 23.0616C161.55 23.3212 161.539 23.7309 161.282 23.9775C161.165 24.0959 161.007 24.1636 160.841 24.1662L160.837 24.1583ZM61.2151 19.9052C61.0297 19.9058 60.8531 19.8256 60.731 19.6851C60.4943 19.4157 60.5188 19.0043 60.7856 18.7653C61.461 18.1638 62.1559 17.586 62.8469 16.9964C63.1245 16.7994 63.506 16.8516 63.7213 17.1159C63.9367 17.3802 63.9129 17.7671 63.6668 18.0027C62.9875 18.5648 62.3043 19.1505 61.6406 19.7401C61.5241 19.8465 61.3724 19.9054 61.2151 19.9052ZM155.641 19.2016C155.486 19.2022 155.336 19.1463 155.219 19.0443C154.548 18.4626 153.857 17.8651 153.166 17.3344C152.886 17.1108 152.84 16.7017 153.062 16.4205C153.284 16.1394 153.691 16.0928 153.97 16.3164C154.673 16.8785 155.375 17.4642 156.062 18.0577C156.265 18.2361 156.337 18.522 156.244 18.7761C156.15 19.0302 155.91 19.1996 155.641 19.2016ZM66.8056 15.4005C66.5237 15.404 66.272 15.2236 66.1828 14.9544C66.0937 14.6851 66.1876 14.3887 66.4152 14.2212C67.1413 13.6945 67.8909 13.1717 68.6405 12.6489C68.8322 12.5197 69.0779 12.5034 69.2849 12.606C69.4919 12.7086 69.6289 12.9146 69.6441 13.1465C69.6593 13.3783 69.5506 13.6007 69.3588 13.7299C68.6209 14.2252 67.887 14.7362 67.1726 15.255C67.068 15.3403 66.9398 15.3911 66.8056 15.4005ZM149.96 14.7755C149.829 14.7745 149.701 14.7334 149.593 14.6576C148.871 14.1466 148.126 13.6434 147.38 13.1599C147.186 13.0342 147.073 12.814 147.085 12.5821C147.096 12.3502 147.229 12.1419 147.434 12.0357C147.639 11.9295 147.885 11.9415 148.079 12.0672C148.836 12.5624 149.597 13.0735 150.331 13.5923C150.565 13.757 150.663 14.0563 150.573 14.3284C150.482 14.6005 150.226 14.7807 149.941 14.7716L149.96 14.7755ZM72.8099 11.4775C72.5186 11.4753 72.2647 11.2776 72.1891 10.9943C72.1135 10.7111 72.2349 10.4119 72.4859 10.2629C73.2667 9.81089 74.0475 9.36277 74.8556 8.94218C75.0061 8.86046 75.1828 8.84274 75.3463 8.89294C75.5098 8.94315 75.6466 9.05712 75.7262 9.20947C75.8933 9.52654 75.7747 9.91994 75.4607 10.09C74.6799 10.5066 73.8991 10.943 73.1183 11.3871C73.0248 11.443 72.9186 11.4741 72.8099 11.4775ZM143.901 10.9351C143.792 10.9366 143.684 10.908 143.589 10.8525C142.808 10.4162 142.028 9.98777 141.247 9.58683C140.923 9.42293 140.793 9.02607 140.956 8.70044C141.119 8.3748 141.513 8.24369 141.836 8.40759C142.617 8.80067 143.441 9.25664 144.229 9.70082C144.486 9.8451 144.612 10.1455 144.538 10.4313C144.464 10.7172 144.207 10.9162 143.913 10.9154L143.901 10.9351ZM79.1695 8.16388C78.8672 8.16252 78.6065 7.94969 78.5427 7.65216C78.4789 7.35464 78.6292 7.05248 78.904 6.92568C79.72 6.55225 80.5554 6.18669 81.387 5.84471C81.6004 5.75694 81.8441 5.79046 82.0262 5.93265C82.2084 6.07485 82.3014 6.3041 82.2702 6.53407C82.239 6.76403 82.0884 6.95976 81.875 7.04753C81.059 7.38558 80.2392 7.73935 79.4389 8.10885C79.3539 8.14592 79.2621 8.16466 79.1695 8.16388ZM137.475 7.71577C137.387 7.71453 137.299 7.69583 137.218 7.66074C136.406 7.30697 135.578 6.96106 134.751 6.6348C134.536 6.54984 134.382 6.35595 134.348 6.12617C134.314 5.8964 134.404 5.66564 134.584 5.52083C134.765 5.37602 135.008 5.33915 135.223 5.42411C136.062 5.7543 136.909 6.10807 137.733 6.46971C138.017 6.59025 138.176 6.89599 138.113 7.19943C138.051 7.50287 137.783 7.71921 137.475 7.71577ZM85.8297 5.53417C85.511 5.53864 85.2369 5.30769 85.1851 4.99099C85.1334 4.67429 85.3194 4.36709 85.6228 4.26846C86.4778 3.97758 87.3483 3.69849 88.2072 3.44299C88.4283 3.37698 88.6675 3.43474 88.8349 3.59451C89.0022 3.75427 89.0721 3.99177 89.0183 4.21754C88.9646 4.44331 88.7953 4.62305 88.5742 4.68905C87.7309 4.94062 86.876 5.21578 86.0366 5.4988C85.97 5.52163 85.9001 5.53357 85.8297 5.53417ZM130.757 5.1804C130.691 5.17923 130.625 5.16865 130.562 5.14896C129.726 4.87773 128.867 4.62223 128.008 4.3628C127.787 4.3003 127.615 4.12343 127.558 3.89881C127.5 3.67419 127.567 3.43594 127.731 3.27381C127.896 3.11169 128.134 3.05031 128.356 3.1128C129.23 3.35651 130.101 3.61987 130.956 3.89896C131.265 3.99222 131.457 4.30082 131.407 4.62134C131.357 4.94185 131.079 5.17565 130.757 5.16861V5.1804ZM92.7241 3.5727C92.3951 3.57451 92.1177 3.32641 92.0806 2.99727C92.0435 2.66813 92.2587 2.36374 92.5797 2.29126C93.4503 2.09079 94.3443 1.89818 95.2344 1.72916C95.5848 1.66186 95.923 1.89328 95.9898 2.24606C96.0567 2.59883 95.8268 2.93937 95.4764 3.00667C94.6019 3.17569 93.7235 3.36044 92.8686 3.55698C92.8212 3.56783 92.7727 3.5731 92.7241 3.5727ZM123.835 3.32899C123.79 3.33479 123.744 3.33479 123.698 3.32899C122.836 3.14425 121.957 2.97522 121.083 2.82192C120.853 2.78505 120.661 2.62645 120.58 2.40696C120.499 2.18746 120.542 1.94113 120.692 1.76243C120.843 1.58374 121.077 1.50041 121.305 1.54441C122.191 1.69771 123.089 1.87067 123.968 2.05935C124.296 2.12296 124.521 2.42865 124.487 2.7633C124.452 3.09795 124.169 3.35043 123.835 3.34472V3.32899ZM99.7786 2.31878C99.4433 2.30997 99.1701 2.04499 99.1488 1.70793C99.1275 1.37087 99.3651 1.07315 99.6966 1.02161C100.595 0.911552 101.5 0.813282 102.394 0.734666C102.624 0.714303 102.847 0.818731 102.979 1.00861C103.111 1.1985 103.133 1.44498 103.035 1.65523C102.938 1.86548 102.737 2.00754 102.508 2.0279C101.629 2.10652 100.739 2.20085 99.8567 2.31092L99.7786 2.31878ZM116.761 2.18513H116.691C115.812 2.08686 114.918 2.00825 114.036 1.94142C113.681 1.91419 113.414 1.60346 113.439 1.24567C113.451 1.07379 113.53 0.913873 113.66 0.801618C113.79 0.689363 113.959 0.634109 114.13 0.648188C115.028 0.711081 115.937 0.793628 116.831 0.891898C117.161 0.942115 117.4 1.23683 117.382 1.57263C117.363 1.90843 117.095 2.17531 116.761 2.18906V2.18513ZM106.923 1.79205C106.585 1.77124 106.32 1.49169 106.314 1.15061C106.309 0.809531 106.566 0.522042 106.903 0.490956C107.805 0.467371 108.715 0.459509 109.636 0.490956C109.992 0.490956 110.28 0.781336 110.28 1.13954C110.28 1.49774 109.992 1.78812 109.636 1.78812C108.75 1.78812 107.86 1.78812 106.974 1.81171L106.923 1.79205Z" fill="#F94F24"/>
<g style="mix-blend-mode:multiply">
<path fill-rule="evenodd" clip-rule="evenodd" d="M125.193 69.7539C129.69 69.7539 133.337 66.1605 133.339 61.7265V60.1708C133.337 55.7361 129.691 52.1417 125.193 52.1395H101.638V44.89C105.166 43.3474 107.118 39.5808 106.319 35.8581C105.519 32.1353 102.186 29.4722 98.3262 29.4722C94.4664 29.4722 91.1332 32.1353 90.3336 35.8581C89.5339 39.5808 91.486 43.3474 95.0144 44.89V52.1512H71.4596C66.9615 52.1533 63.3157 55.7478 63.3135 60.1825V61.7382C63.3157 66.1722 66.9622 69.7656 71.4596 69.7656H95.0144V71.7257H71.4596C66.9615 71.7279 63.3157 75.3223 63.3135 79.757V81.3127C63.3157 85.7474 66.9615 89.3418 71.4596 89.344H95.0144V92.8676H71.4596C66.9631 92.8698 63.3178 96.4619 63.3135 100.895V102.451C63.3157 106.885 66.9622 110.478 71.4596 110.478H125.193C129.69 110.478 133.337 106.885 133.339 102.451V100.895C133.337 96.4604 129.691 92.8659 125.193 92.8638H101.638V89.3401H125.193C129.691 89.338 133.337 85.7435 133.339 81.3088V79.7531C133.334 75.32 129.689 71.7279 125.193 71.7257H101.638V69.75L125.193 69.7539Z" fill="#CCCCCC"/>
</g>
<rect x="93.3243" y="60.4746" width="6.00217" height="36.0026" fill="#808080"/>
<path fill-rule="evenodd" clip-rule="evenodd" d="M99.3265 68.3641L93.3243 69.4753V66.4751H99.3265V68.3641Z" fill="#6E6E6E"/>
<rect x="93.3243" y="36.4727" width="6.00217" height="17.0012" fill="#808080"/>
<path fill-rule="evenodd" clip-rule="evenodd" d="M99.3265 46.5834L93.3243 45.4736V48.4739H99.3265V46.5834Z" fill="#6E6E6E"/>
<path fill-rule="evenodd" clip-rule="evenodd" d="M131.338 57.7269C131.336 62.0066 127.689 65.4749 123.192 65.4749H69.4589C64.9614 65.4749 61.3149 62.0066 61.3127 57.7269V56.2254C61.3127 51.9442 64.9599 48.4736 69.4589 48.4736H123.192C127.691 48.4736 131.338 51.9442 131.338 56.2254V57.7269Z" fill="url(#paint1_linear)"/>
<path fill-rule="evenodd" clip-rule="evenodd" d="M111.331 57.4743C111.331 58.6882 110.599 59.7824 109.477 60.2465C108.355 60.7106 107.064 60.4532 106.206 59.5942C105.348 58.7353 105.093 57.4441 105.559 56.3232C106.024 55.2022 107.12 54.4724 108.334 54.4741C109.13 54.4741 109.893 54.7904 110.455 55.3531C111.017 55.9159 111.332 56.679 111.331 57.4743Z" fill="white"/>
<path fill-rule="evenodd" clip-rule="evenodd" d="M123.335 57.4743C123.335 59.1313 121.992 60.4746 120.334 60.4746C118.677 60.4746 117.333 59.1313 117.333 57.4743C117.333 55.8174 118.677 54.4741 120.334 54.4741C121.13 54.473 121.894 54.7887 122.457 55.3516C123.021 55.9145 123.336 56.6783 123.335 57.4743Z" fill="white"/>
<path fill-rule="evenodd" clip-rule="evenodd" d="M95.8089 59.4725H72.6403C71.3419 59.419 70.316 58.3163 70.316 56.9743C70.316 55.6323 71.3419 54.5296 72.6403 54.4761H95.8089C96.6961 54.4396 97.5315 54.9076 97.9856 55.6955C98.4397 56.4835 98.4397 57.4651 97.9856 58.2531C97.5315 59.0411 96.6961 59.509 95.8089 59.4725Z" fill="white"/>
<path fill-rule="evenodd" clip-rule="evenodd" d="M131.338 77.7318C131.336 82.0096 127.689 85.4763 123.192 85.4763H69.4589C64.9614 85.4763 61.3149 82.0096 61.3127 77.7318V76.2309C61.3107 74.1746 62.168 72.2019 63.6959 70.7472C65.2238 69.2925 67.297 68.4751 69.4589 68.4751H123.192C127.689 68.4751 131.336 71.9418 131.338 76.2197V77.7318Z" fill="url(#paint2_linear)"/>
<path fill-rule="evenodd" clip-rule="evenodd" d="M111.331 76.4714C111.333 77.6857 110.602 78.7812 109.48 79.2467C108.359 79.7122 107.067 79.4558 106.208 78.5972C105.349 77.7386 105.092 76.4471 105.558 75.3256C106.024 74.2042 107.12 73.4738 108.334 73.4756C109.988 73.478 111.329 74.8179 111.331 76.4714Z" fill="white"/>
<path fill-rule="evenodd" clip-rule="evenodd" d="M123.335 76.4714C123.337 77.6853 122.607 78.7806 121.486 79.2463C120.364 79.7121 119.073 79.4565 118.214 78.5987C117.354 77.741 117.097 76.4503 117.561 75.3287C118.025 74.207 119.12 73.4756 120.334 73.4756C121.99 73.4756 123.333 74.8162 123.335 76.4714Z" fill="white"/>
<path fill-rule="evenodd" clip-rule="evenodd" d="M95.8089 79.474H72.6403C71.3419 79.4205 70.316 78.3178 70.316 76.9758C70.316 75.6337 71.3419 74.5311 72.6403 74.4776H95.8089C96.6961 74.441 97.5315 74.909 97.9856 75.697C98.4397 76.485 98.4397 77.4665 97.9856 78.2545C97.5315 79.0425 96.6961 79.5105 95.8089 79.474Z" fill="white"/>
<path fill-rule="evenodd" clip-rule="evenodd" d="M131.338 99.7266C131.336 104.007 127.69 107.476 123.192 107.478H69.4589C64.9608 107.476 61.3149 104.007 61.3127 99.7266V98.225C61.3149 93.9453 64.9614 90.4771 69.4589 90.4771H123.192C127.689 90.4771 131.336 93.9453 131.338 98.225V99.7266Z" fill="url(#paint3_linear)"/>
<path fill-rule="evenodd" clip-rule="evenodd" d="M111.331 98.4772C111.331 99.6911 110.599 100.785 109.477 101.249C108.355 101.714 107.064 101.456 106.206 100.597C105.348 99.7382 105.093 98.447 105.559 97.3261C106.024 96.2051 107.12 95.4753 108.334 95.4771C109.99 95.4795 111.331 96.822 111.331 98.4772Z" fill="white"/>
<path fill-rule="evenodd" clip-rule="evenodd" d="M123.335 98.4773C123.335 100.134 121.992 101.477 120.334 101.477C118.677 101.477 117.333 100.134 117.333 98.4773C117.333 96.8203 118.677 95.4771 120.334 95.4771C121.13 95.4771 121.893 95.7931 122.456 96.3558C123.019 96.9184 123.335 97.6816 123.335 98.4773Z" fill="white"/>
<path fill-rule="evenodd" clip-rule="evenodd" d="M95.9054 101.477H72.7368C71.3999 101.477 70.316 100.358 70.316 98.9772C70.316 97.5964 71.3999 96.4771 72.7368 96.4771H95.9054C97.2424 96.4771 98.3262 97.5964 98.3262 98.9772C98.3262 100.358 97.2424 101.477 95.9054 101.477Z" fill="white"/>
<path fill-rule="evenodd" clip-rule="evenodd" d="M104.328 33.9645C104.331 37.4033 102.384 40.5054 99.3934 41.8237C96.4032 43.142 92.9598 42.4168 90.6694 39.9863C88.3791 37.5559 87.693 33.899 88.9312 30.7216C90.1694 27.5441 93.088 25.4722 96.3255 25.4722C100.742 25.4722 104.324 29.273 104.328 33.9645Z" fill="#808080"/>
<g style="mix-blend-mode:multiply">
<path fill-rule="evenodd" clip-rule="evenodd" d="M186.192 96.6196C186.13 96.4898 186.076 96.3561 186.021 96.2263C185.846 95.7565 185.618 95.309 185.34 94.8929C183.143 91.7168 180.694 88.7281 178.019 85.9565C173.433 81.2365 168.79 77.9365 163.829 75.8557C158.911 73.7592 153.533 73.0289 148.246 73.7396C142.635 74.4909 137.244 76.7093 131.773 80.5285C127.431 83.5721 123.514 87.1988 120.129 91.3097C119.92 91.5653 119.707 91.8131 119.494 92.0649C118.364 93.3904 117.196 94.7592 116.464 96.5803C116.378 96.7925 116.334 97.0195 116.333 97.249V98.429C116.334 98.7972 116.447 99.1559 116.658 99.4556C116.824 99.6876 116.979 99.9275 117.138 100.164C117.528 100.773 117.955 101.357 118.415 101.914C123.407 107.704 128.418 112.054 133.735 115.212C138.901 118.28 144.005 119.972 149.333 120.381C150.173 120.448 151.02 120.479 151.852 120.479C157.657 120.479 163.415 118.886 168.929 115.759C174.201 112.71 178.896 108.73 182.794 104.006C182.961 103.806 183.131 103.613 183.301 103.412C184.361 102.17 185.561 100.761 186.246 98.9403C186.32 98.739 186.358 98.5259 186.358 98.311V97.3866C186.359 97.1216 186.302 96.8597 186.192 96.6196Z" fill="#CCCCCC"/>
</g>
<path fill-rule="evenodd" clip-rule="evenodd" d="M183.357 94.2866C182.683 96.0531 181.377 97.3994 180.184 98.7846C176.397 103.304 171.829 107.108 166.697 110.018C160.874 113.278 154.649 114.893 147.949 114.387C142.573 113.998 137.623 112.212 132.988 109.508C127.22 106.146 122.371 101.699 117.993 96.7107C117.374 96.0025 116.882 95.1815 116.333 94.415V93.2477C117.089 91.3956 118.484 89.9871 119.74 88.5007C123.047 84.5533 126.875 81.0704 131.117 78.1468C135.927 74.855 141.123 72.4893 146.951 71.7267C151.976 71.0552 157.09 71.7363 161.763 73.6994C167.052 75.8783 171.507 79.2791 175.483 83.3062C178.1 85.9807 180.496 88.8616 182.648 91.9209C182.923 92.3824 183.157 92.8667 183.349 93.3683L183.357 94.2866Z" fill="#F2F2F2"/>
<path fill-rule="evenodd" clip-rule="evenodd" d="M150.854 116.479C150.018 116.479 149.17 116.447 148.331 116.384C143.002 115.991 137.882 114.284 132.731 111.216C127.414 108.069 122.403 103.707 117.41 97.9137C116.95 97.3599 116.524 96.7766 116.137 96.1674C115.979 95.9274 115.82 95.6914 115.657 95.4594C115.445 95.1592 115.331 94.7986 115.332 94.4289V93.2489C115.332 93.0197 115.375 92.7926 115.46 92.5803C116.191 90.7592 117.36 89.3865 118.49 88.061C118.703 87.8132 118.916 87.5615 119.125 87.3097C122.512 83.1996 126.429 79.572 130.769 76.5248C136.241 72.7096 141.632 70.4873 147.247 69.74C152.533 69.0282 157.91 69.7571 162.827 71.8521C167.788 73.9368 172.432 77.2407 177.018 81.9527C179.693 84.7251 182.141 87.7137 184.34 90.889C184.615 91.306 184.844 91.7533 185.021 92.2223C185.075 92.3561 185.129 92.4898 185.191 92.6157C185.3 92.8536 185.356 93.1125 185.358 93.3748V94.303C185.354 94.52 185.312 94.7345 185.234 94.9363C184.553 96.7613 183.349 98.1654 182.289 99.4083L181.782 100.002C177.885 104.726 173.191 108.706 167.92 111.755C162.402 114.886 156.666 116.479 150.854 116.479ZM118.815 93.8743L119.02 94.1811C119.329 94.6679 119.666 95.1354 120.03 95.5813C124.771 101.088 129.5 105.198 134.488 108.168C139.19 110.956 143.803 112.494 148.594 112.86C154.6 113.324 160.525 111.912 166.225 108.663C171.139 105.816 175.514 102.1 179.143 97.6895C179.317 97.4811 179.495 97.2726 179.673 97.0681C180.551 96.0336 181.391 95.0582 181.875 93.9412V93.7563L181.805 93.5872C181.724 93.3643 181.623 93.1497 181.503 92.946C179.413 89.9238 177.083 87.0798 174.537 84.4424C170.281 80.0726 166.024 77.0243 161.488 75.1246C157.137 73.264 152.376 72.6138 147.696 73.2406C142.638 73.9171 137.747 75.9427 132.735 79.4354C128.654 82.3029 124.97 85.7147 121.783 89.5792C121.567 89.8467 121.342 90.1102 121.118 90.3658C120.208 91.4357 119.341 92.4505 118.796 93.6068L118.815 93.8743Z" fill="#6731CF"/>
<path fill-rule="evenodd" clip-rule="evenodd" d="M149.332 76.4756C146.225 76.4706 143.184 77.3763 140.585 79.0806C143.819 79.8099 146.235 82.5069 146.606 85.8C146.976 89.0931 145.219 92.2592 142.228 93.6879C139.237 95.1166 135.669 94.4943 133.339 92.1375C133.339 92.2492 133.339 92.3608 133.339 92.4765C133.339 98.9487 137.239 104.783 143.22 107.26C149.202 109.736 156.086 108.367 160.663 103.789C165.241 99.2124 166.609 92.3295 164.13 86.3505C161.652 80.3715 155.814 76.474 149.34 76.4756H149.332Z" fill="url(#paint4_linear)"/>
<g style="mix-blend-mode:multiply">
<path fill-rule="evenodd" clip-rule="evenodd" d="M181.979 92.194C181.587 91.6672 181.194 91.1593 180.801 90.659C180.577 90.9167 180.345 91.1782 180.106 91.4398L179.571 92.0424C175.886 96.2861 171.445 99.8619 166.459 102.602C161.395 105.338 156.143 106.729 150.856 106.729C150.097 106.729 149.324 106.699 148.562 106.646C143.698 106.29 139.016 104.812 134.243 102.121C129.333 99.3537 124.67 95.537 120.007 90.4771C119.345 91.1924 118.783 91.9874 118.333 92.8421V93.0961L118.542 93.3917C118.855 93.8608 119.198 94.3114 119.567 94.741C124.379 100.047 129.179 104.008 134.243 106.87C139.016 109.557 143.698 111.039 148.562 111.391C149.324 111.448 150.097 111.479 150.856 111.479C156.143 111.479 161.395 110.088 166.459 107.347C171.452 104.603 175.897 101.019 179.583 96.765L180.117 96.1662C181.013 95.1731 181.866 94.2294 182.357 93.1529V92.9748C182.333 92.9217 182.309 92.8687 182.29 92.8156C182.206 92.5999 182.102 92.3918 181.979 92.194Z" fill="#E5E5E5"/>
</g>
<path fill-rule="evenodd" clip-rule="evenodd" d="M46.2821 67.475C32.6844 67.4744 20.9152 57.8522 17.982 44.3377C15.0488 30.8232 21.7403 17.0501 34.0722 11.219C46.4042 5.38789 61.0609 9.06662 69.3156 20.0649L68.9743 20.3294C60.8412 9.49234 46.3997 5.86739 34.2488 11.613C22.098 17.3586 15.5052 30.9297 18.396 44.2456C21.2869 57.5615 32.8841 67.0415 46.2821 67.0407V67.475Z" fill="#F94F24"/>
<path fill-rule="evenodd" clip-rule="evenodd" d="M162.007 138.48C153.571 138.493 145.327 135.973 138.341 131.247L138.58 130.889C152.747 140.434 171.291 140.426 185.449 130.87C199.608 121.314 206.545 104.123 202.982 87.4218C199.419 70.7208 186.07 57.8539 169.244 54.9022L169.318 54.4741C190.957 58.2555 206.107 77.952 204.203 99.8268C202.299 121.702 183.974 138.487 162.007 138.476V138.48Z" fill="#F94F24"/>
<defs>
<linearGradient id="paint0_linear" x1="124.457" y1="204.96" x2="196.995" y2="69.3072" gradientUnits="userSpaceOnUse">
<stop stop-color="#8033EB"/>
<stop offset="1" stop-color="#F94F24"/>
</linearGradient>
<linearGradient id="paint1_linear" x1="120.289" y1="65.1971" x2="120.289" y2="53.5601" gradientUnits="userSpaceOnUse">
<stop stop-color="#B3B3B3"/>
<stop offset="1" stop-color="#D4D4D4"/>
</linearGradient>
<linearGradient id="paint2_linear" x1="120.286" y1="85.1987" x2="120.286" y2="73.5631" gradientUnits="userSpaceOnUse">
<stop stop-color="#B3B3B3"/>
<stop offset="1" stop-color="#D4D4D4"/>
</linearGradient>
<linearGradient id="paint3_linear" x1="120.289" y1="107.208" x2="120.289" y2="95.571" gradientUnits="userSpaceOnUse">
<stop stop-color="#B3B3B3"/>
<stop offset="1" stop-color="#D4D4D4"/>
</linearGradient>
<linearGradient id="paint4_linear" x1="163.343" y1="100.431" x2="174.973" y2="71.8258" gradientUnits="userSpaceOnUse">
<stop stop-color="#8033EB"/>
<stop offset="1" stop-color="#F94F24"/>
</linearGradient>
</defs>
</svg>
