<svg width="984" height="564" viewBox="0 0 984 564" fill="none" xmlns="http://www.w3.org/2000/svg">
<path fill-rule="evenodd" clip-rule="evenodd" d="M54.1697 470.597C54.1697 464.245 59.3203 459.096 65.6738 459.096C72.0274 459.096 77.178 464.245 77.178 470.597C77.178 476.949 72.0274 482.098 65.6738 482.098C59.3203 482.098 54.1697 476.949 54.1697 470.597Z" fill="#E69AD2"/>
<path fill-rule="evenodd" clip-rule="evenodd" d="M96.1848 59.0667C96.1848 26.4795 122.61 0.0623169 155.206 0.0623169C187.803 0.0623169 214.228 26.4795 214.228 59.0667C214.228 91.6538 187.803 118.071 155.206 118.071C122.61 118.071 96.1848 91.6538 96.1848 59.0667Z" fill="#7B39D9"/>
<path fill-rule="evenodd" clip-rule="evenodd" d="M0.150269 334.087C0.150269 279.959 44.0423 236.08 98.1858 236.08C152.329 236.08 196.221 279.959 196.221 334.087C196.221 388.215 152.329 432.094 98.1858 432.094C44.0423 432.094 0.150269 388.215 0.150269 334.087Z" fill="#FA5A28"/>
<path fill-rule="evenodd" clip-rule="evenodd" d="M787.435 465.096C787.435 410.969 831.327 367.089 885.471 367.089C939.614 367.089 983.506 410.969 983.506 465.096C983.506 519.224 939.614 563.104 885.471 563.104C831.327 563.104 787.435 519.224 787.435 465.096Z" fill="#00CCB0"/>
</svg>
