<svg width="258" height="153" viewBox="0 0 258 153" fill="none" xmlns="http://www.w3.org/2000/svg">
<path fill-rule="evenodd" clip-rule="evenodd" d="M40.4182 31.3633C39.8647 31.0292 39.9873 29.9821 40.7896 29.9821H66.1519C65.948 17.5041 58.0378 6.45541 46.288 2.23704C34.5383 -1.98134 21.4032 1.5117 13.3037 11.0086C5.20421 20.5056 3.832 34.0227 9.85788 44.9525C15.8838 55.8822 28.0491 61.9417 40.4071 60.1687L40.4182 31.3633Z" fill="#F2F2F2"/>
<rect x="59.1493" y="149.48" width="157.057" height="2.00015" fill="#F4F4F4"/>
<path fill-rule="evenodd" clip-rule="evenodd" d="M70.1533 58.3047V55.4944C70.1533 55.4944 70.5283 50.4761 75.7065 50.4761H219.318C219.318 50.4761 226.21 50.1992 226.21 55.4944V151.481H216.138V68.7192L70.1533 58.3047Z" fill="#F2F2F2"/>
<rect x="32.1395" y="38.4727" width="16.0058" height="113.008" fill="#EFEFEF"/>
<rect x="21.1355" y="150.481" width="225.082" height="2.00015" fill="#DEDEDE"/>
<path fill-rule="evenodd" clip-rule="evenodd" d="M215.206 74.4753V64.2599C215.206 61.0645 212.536 58.4741 209.242 58.4741H64.1132C60.8192 58.4741 58.1489 61.0645 58.1489 64.2599V74.4753H215.206Z" fill="#F94F24"/>
<rect x="214.205" y="74.4751" width="2.00073" height="77.0056" fill="#DEDEDE"/>
<rect x="58.1489" y="74.4751" width="2.00072" height="76.0056" fill="#DEDEDE"/>
<path fill-rule="evenodd" clip-rule="evenodd" d="M72.154 66.4712C72.1555 67.2805 71.6689 68.0109 70.9214 68.3216C70.1739 68.6323 69.3128 68.462 68.7399 67.8903C68.167 67.3185 67.9951 66.4579 68.3046 65.7101C68.6141 64.9623 69.3438 64.4746 70.1533 64.4746C71.2561 64.4765 72.1502 65.3688 72.154 66.4712Z" fill="white"/>
<path fill-rule="evenodd" clip-rule="evenodd" d="M86.159 66.4712C86.1605 67.2805 85.6739 68.0109 84.9264 68.3216C84.1789 68.6323 83.3178 68.462 82.7449 67.8903C82.172 67.3185 82.0001 66.4579 82.3096 65.7101C82.6191 64.9623 83.3488 64.4746 84.1583 64.4746C85.2611 64.4765 86.1552 65.3688 86.159 66.4712Z" fill="white"/>
<path fill-rule="evenodd" clip-rule="evenodd" d="M100.164 66.4712C100.166 67.2805 99.679 68.0109 98.9315 68.3216C98.184 68.6323 97.3229 68.462 96.75 67.8903C96.1771 67.3185 96.0053 66.4579 96.3147 65.7101C96.6242 64.9623 97.3539 64.4746 98.1635 64.4746C99.2663 64.4765 100.16 65.3688 100.164 66.4712Z" fill="white"/>
<path fill-rule="evenodd" clip-rule="evenodd" d="M141.179 115.478H70.1533V89.4761H141.179V115.478ZM70.5271 115.106H140.805V89.848H70.5271V115.106Z" fill="#F94F24"/>
<path fill-rule="evenodd" clip-rule="evenodd" d="M145.181 89.9764C145.181 92.4614 143.166 94.476 140.68 94.4767C138.194 94.4774 136.179 92.4639 136.177 89.979C136.176 87.494 138.189 85.4782 140.675 85.4761C141.87 85.474 143.017 85.9474 143.862 86.7917C144.707 87.636 145.182 88.7819 145.181 89.9764Z" fill="#F94F24"/>
<path fill-rule="evenodd" clip-rule="evenodd" d="M142.66 88.9674H141.742V88.0719C141.758 87.8648 141.655 87.6661 141.474 87.5575C141.293 87.4489 141.065 87.4489 140.884 87.5575C140.703 87.6661 140.6 87.8648 140.617 88.0719V88.9674H139.698C139.405 88.9901 139.178 89.2298 139.178 89.518C139.178 89.8062 139.405 90.0459 139.698 90.0686H140.617V90.9675C140.64 91.2548 140.885 91.4764 141.179 91.4764C141.473 91.4764 141.718 91.2548 141.742 90.9675V90.0686H142.66C142.953 90.0459 143.18 89.8062 143.18 89.518C143.18 89.2298 142.953 88.9901 142.66 88.9674Z" fill="white"/>
<rect x="79.1565" y="80.4756" width="11.004" height="7.00051" fill="#E8E8E8"/>
<rect x="91.1609" y="80.4756" width="11.004" height="7.00051" fill="#DEDEDE"/>
<rect x="103.165" y="80.4756" width="11.004" height="7.00051" fill="#DEDEDE"/>
<path fill-rule="evenodd" clip-rule="evenodd" d="M78.1562 80.4777H72.4685C71.2979 80.4332 70.1984 81.0901 69.601 82.1907C69.0036 83.2913 69.0036 84.6603 69.601 85.761C70.1984 86.8616 71.2979 87.5185 72.4685 87.474H78.1562V80.4777Z" fill="#DEDEDE"/>
<rect x="115.17" y="80.4756" width="11.004" height="7.00051" fill="#DEDEDE"/>
<path fill-rule="evenodd" clip-rule="evenodd" d="M132.165 80.4777H127.174V87.474H132.165C133.228 87.5185 134.227 86.8616 134.77 85.761C135.313 84.6603 135.313 83.2913 134.77 82.1907C134.227 81.0901 133.228 80.4332 132.165 80.4777Z" fill="#DEDEDE"/>
<path fill-rule="evenodd" clip-rule="evenodd" d="M40.6426 59.4741C38.1552 59.4741 36.141 60.8196 36.141 62.4743C36.141 64.1291 38.1552 65.4746 40.6426 65.4746C43.1301 65.4746 45.1443 64.1331 45.1443 62.4743C45.1443 60.8156 43.1301 59.4741 40.6426 59.4741ZM40.6426 64.9685C39.3441 64.9685 38.2915 63.8518 38.2915 62.4743C38.2915 61.0969 39.3441 59.9802 40.6426 59.9802C41.9411 59.9802 42.9938 61.0969 42.9938 62.4743C42.9948 63.1365 42.7475 63.772 42.3065 64.2406C41.8654 64.7092 41.2668 64.9725 40.6426 64.9725V64.9685Z" fill="#D3D3D3"/>
<path fill-rule="evenodd" clip-rule="evenodd" d="M42.1432 61.9742C42.1432 62.8027 41.4714 63.4743 40.6426 63.4743C39.8139 63.4743 39.1421 62.8027 39.1421 61.9742C39.1421 61.1457 39.8139 60.4741 40.6426 60.4741C41.4714 60.4741 42.1432 61.1457 42.1432 61.9742Z" fill="#D3D3D3"/>
<path fill-rule="evenodd" clip-rule="evenodd" d="M40.6426 48.4731C38.7089 48.4731 37.1414 50.0403 37.1414 51.9734C37.1414 53.9065 38.7089 55.4737 40.6426 55.4737C42.5763 55.4737 44.1439 53.9065 44.1439 51.9734C44.1439 50.0403 42.5763 48.4731 40.6426 48.4731ZM41.816 52.4456H41.115V53.1426C41.115 53.4034 40.9035 53.6148 40.6426 53.6148C40.3818 53.6148 40.1703 53.4034 40.1703 53.1426V52.4456H39.473C39.2936 52.4616 39.1204 52.3749 39.0258 52.2216C38.9311 52.0683 38.9311 51.8747 39.0258 51.7215C39.1204 51.5682 39.2936 51.4815 39.473 51.4975H40.1703V50.8004C40.1703 50.5396 40.3818 50.3282 40.6426 50.3282C40.9035 50.3282 41.115 50.5396 41.115 50.8004V51.5162H41.816C42.0616 51.538 42.2498 51.7438 42.2498 51.9903C42.2498 52.2368 42.0616 52.4425 41.816 52.4643V52.4456Z" fill="#D3D3D3"/>
<rect x="32.1395" y="25.4717" width="210.076" height="13.001" fill="#D3D3D3"/>
<path fill-rule="evenodd" clip-rule="evenodd" d="M99.8568 126.479H72.4614C71.7392 126.479 71.1537 126.031 71.1537 125.479C71.1537 124.927 71.7392 124.479 72.4614 124.479H99.8568C100.579 124.479 101.165 124.927 101.165 125.479C101.165 126.031 100.579 126.479 99.8568 126.479Z" fill="#DEDEDE"/>
<path fill-rule="evenodd" clip-rule="evenodd" d="M111.908 126.479H105.426C104.73 126.479 104.166 126.031 104.166 125.479C104.166 124.927 104.73 124.479 105.426 124.479H111.908C112.605 124.479 113.169 124.927 113.169 125.479C113.169 126.031 112.605 126.479 111.908 126.479Z" fill="#DEDEDE"/>
<path fill-rule="evenodd" clip-rule="evenodd" d="M140.899 126.479H119.451C118.744 126.479 118.171 126.031 118.171 125.479C118.171 124.927 118.744 124.479 119.451 124.479H140.899C141.606 124.479 142.179 124.927 142.179 125.479C142.179 126.031 141.606 126.479 140.899 126.479Z" fill="#DEDEDE"/>
<path fill-rule="evenodd" clip-rule="evenodd" d="M109.863 135.48H72.4587C71.7379 135.48 71.1537 135.032 71.1537 134.48C71.1537 133.927 71.7379 133.479 72.4587 133.479H109.863C110.584 133.479 111.168 133.927 111.168 134.48C111.168 135.032 110.584 135.48 109.863 135.48Z" fill="#DEDEDE"/>
<path fill-rule="evenodd" clip-rule="evenodd" d="M130.849 135.48H117.496C116.764 135.48 116.17 135.032 116.17 134.48C116.17 133.927 116.764 133.479 117.496 133.479H130.849C131.582 133.479 132.176 133.927 132.176 134.48C132.176 135.032 131.582 135.48 130.849 135.48Z" fill="#DEDEDE"/>
<path fill-rule="evenodd" clip-rule="evenodd" d="M186.906 144.48H160.475C159.763 144.48 159.186 144.032 159.186 143.48C159.186 142.928 159.763 142.48 160.475 142.48H186.906C187.619 142.48 188.196 142.928 188.196 143.48C188.196 144.032 187.619 144.48 186.906 144.48Z" fill="#DEDEDE"/>
<path fill-rule="evenodd" clip-rule="evenodd" d="M93.1617 98.4767C93.1617 99.58 92.1589 100.475 90.9205 100.477H77.4002C76.1603 100.477 75.1552 99.5814 75.1552 98.4767C75.1552 97.9462 75.3917 97.4375 75.8127 97.0624C76.2337 96.6873 76.8048 96.4766 77.4002 96.4766H90.9205C92.1589 96.4784 93.1617 97.3734 93.1617 98.4767Z" fill="#E9E9E9"/>
<path fill-rule="evenodd" clip-rule="evenodd" d="M135.177 98.4767C135.177 99.58 134.187 100.475 132.966 100.477H127.388C126.165 100.477 125.173 99.5814 125.173 98.4767C125.173 97.9462 125.407 97.4375 125.822 97.0624C126.237 96.6873 126.801 96.4766 127.388 96.4766H132.95C134.172 96.4784 135.162 97.3734 135.162 98.4767H135.177Z" fill="#E9E9E9"/>
<path fill-rule="evenodd" clip-rule="evenodd" d="M122.168 98.4767C122.168 99.5814 121.192 100.477 119.987 100.477H97.3439C96.1391 100.477 95.1624 99.5814 95.1624 98.4767C95.1624 97.9462 95.3922 97.4375 95.8013 97.0624C96.2104 96.6873 96.7653 96.4766 97.3439 96.4766H119.991C120.569 96.4766 121.124 96.6873 121.533 97.0624C121.942 97.4375 122.172 97.9462 122.172 98.4767H122.168Z" fill="#E9E9E9"/>
<path fill-rule="evenodd" clip-rule="evenodd" d="M114.169 107.478C114.169 108.582 113.179 109.478 111.956 109.478H79.3687C78.1466 109.478 77.1559 108.582 77.1559 107.478C77.1559 106.947 77.389 106.438 77.804 106.063C78.219 105.688 78.7819 105.478 79.3687 105.478H111.956C112.543 105.478 113.106 105.688 113.521 106.063C113.936 106.438 114.169 106.947 114.169 107.478Z" fill="#E9E9E9"/>
<path fill-rule="evenodd" clip-rule="evenodd" d="M126.174 36.4722C126.07 36.4722 125.987 36.3905 125.987 36.2897V29.6542C125.987 29.5534 126.07 29.4717 126.174 29.4717C126.276 29.4736 126.359 29.5542 126.361 29.6542V36.2897C126.361 36.3905 126.277 36.4722 126.174 36.4722Z" fill="white"/>
<path fill-rule="evenodd" clip-rule="evenodd" d="M151.183 36.4722C151.079 36.4722 150.996 36.3905 150.996 36.2897V29.6542C150.998 29.5542 151.08 29.4736 151.183 29.4717C151.286 29.4717 151.37 29.5534 151.37 29.6542V36.2897C151.37 36.3905 151.286 36.4722 151.183 36.4722Z" fill="white"/>
<path fill-rule="evenodd" clip-rule="evenodd" d="M175.191 36.4722C175.088 36.4722 175.004 36.3905 175.004 36.2897V29.6542C175.004 29.5534 175.088 29.4717 175.191 29.4717C175.295 29.4717 175.378 29.5534 175.378 29.6542V36.2897C175.378 36.3905 175.295 36.4722 175.191 36.4722Z" fill="white"/>
<path fill-rule="evenodd" clip-rule="evenodd" d="M206.203 36.4722C206.099 36.4722 206.016 36.3905 206.016 36.2897V29.6542C206.017 29.5542 206.1 29.4736 206.203 29.4717C206.306 29.4717 206.39 29.5534 206.39 29.6542V36.2897C206.39 36.3905 206.306 36.4722 206.203 36.4722Z" fill="white"/>
<path fill-rule="evenodd" clip-rule="evenodd" d="M114.169 32.9929C114.169 34.3622 113.05 35.4722 111.668 35.4722C110.287 35.4722 109.167 34.3622 109.167 32.9929C109.167 31.6249 111.668 28.4717 111.668 28.4717C111.668 28.4717 114.169 31.6249 114.169 32.9929Z" fill="white"/>
<path fill-rule="evenodd" clip-rule="evenodd" d="M138.18 35.4222L135.814 33.4722L135.177 33.9973L138.18 36.4724L141.179 33.9973L140.542 33.4722L138.18 35.4222Z" fill="white"/>
<path fill-rule="evenodd" clip-rule="evenodd" d="M135.184 31.3838L138.075 28.49L140.967 31.3838L138.075 34.2776L135.184 31.3838Z" fill="white"/>
<path fill-rule="evenodd" clip-rule="evenodd" d="M161.56 31.4718C161.354 31.4718 161.186 31.3057 161.186 31.1007V29.8428C161.186 29.6378 161.354 29.4717 161.56 29.4717H162.813C163.02 29.4717 163.187 29.6378 163.187 29.8428C163.187 30.0477 163.02 30.2138 162.813 30.2138H161.934V31.1007C161.934 31.3057 161.767 31.4718 161.56 31.4718Z" fill="white"/>
<path fill-rule="evenodd" clip-rule="evenodd" d="M166.8 31.4715C166.593 31.4715 166.426 31.3054 166.426 31.1005V30.2137H165.562C165.355 30.2137 165.188 30.0476 165.188 29.8427C165.188 29.6378 165.355 29.4717 165.562 29.4717H166.814C167.021 29.4717 167.188 29.6378 167.188 29.8427V31.1005C167.189 31.2015 167.147 31.2982 167.074 31.3682C167 31.4383 166.901 31.4756 166.8 31.4715Z" fill="white"/>
<path fill-rule="evenodd" clip-rule="evenodd" d="M166.8 35.472H165.562C165.355 35.472 165.188 35.3059 165.188 35.101C165.188 34.8961 165.355 34.73 165.562 34.73H166.441V33.8432C166.441 33.6383 166.608 33.4722 166.814 33.4722C167.021 33.4722 167.188 33.6383 167.188 33.8432V35.101C167.189 35.202 167.147 35.2987 167.074 35.3687C167 35.4388 166.901 35.4761 166.8 35.472Z" fill="white"/>
<path fill-rule="evenodd" clip-rule="evenodd" d="M162.798 35.4723H161.56C161.354 35.4723 161.186 35.3062 161.186 35.1012V33.8433C161.186 33.6383 161.354 33.4722 161.56 33.4722C161.767 33.4722 161.934 33.6383 161.934 33.8433V34.7301H162.813C163.02 34.7301 163.187 34.8963 163.187 35.1012C163.187 35.3062 163.02 35.4723 162.813 35.4723H162.798Z" fill="white"/>
<rect x="188.196" y="29.4717" width="5.00182" height="5.00037" fill="white"/>
<path fill-rule="evenodd" clip-rule="evenodd" d="M187.359 34.3089V30.4722H186.195V35.4725H191.197V34.3089H187.359Z" fill="white"/>
<path fill-rule="evenodd" clip-rule="evenodd" d="M213.267 31.4722H213.205V35.3577C213.205 36.2635 213.949 36.4725 214.857 36.4725H216.555C217.468 36.4725 218.207 36.2635 218.207 35.3577V31.4927L213.267 31.4722Z" fill="white"/>
<path fill-rule="evenodd" clip-rule="evenodd" d="M217.77 29.1573H217.187C217.19 29.1254 217.19 29.0931 217.187 29.0612C217.185 28.7349 216.97 28.4717 216.706 28.4717H214.864C214.6 28.4717 214.385 28.7349 214.383 29.0612C214.381 29.0932 214.381 29.1253 214.383 29.1573H213.8C213.596 29.1282 213.397 29.2462 213.287 29.461C213.178 29.6757 213.178 29.949 213.287 30.1638C213.397 30.3785 213.596 30.4966 213.8 30.4674H217.734C218.004 30.429 218.207 30.1473 218.207 29.8124C218.207 29.4775 218.004 29.1958 217.734 29.1573H217.77Z" fill="white"/>
<rect x="7.13049" y="150.481" width="8.0029" height="2.00015" fill="#DEDEDE"/>
<path fill-rule="evenodd" clip-rule="evenodd" d="M238.077 66.4765H220.208V78.4736H238.077C240.252 78.5279 242.285 77.3966 243.389 75.5183C244.492 73.64 244.492 71.3101 243.389 69.4318C242.285 67.5535 240.252 66.4222 238.077 66.4765Z" fill="#F2F2F2"/>
<path fill-rule="evenodd" clip-rule="evenodd" d="M18.1345 84.4758C18.1345 89.4467 14.1036 93.4764 9.13119 93.4764C4.15883 93.4764 0.12793 89.4467 0.12793 84.4758C0.12793 79.5048 4.15883 75.4751 9.13119 75.4751C11.519 75.4751 13.809 76.4234 15.4975 78.1113C17.1859 79.7993 18.1345 82.0886 18.1345 84.4758Z" fill="#F2F2F2"/>
<path fill-rule="evenodd" clip-rule="evenodd" d="M257.221 120.978C257.221 125.632 254.416 129.827 250.114 131.606C245.813 133.384 240.863 132.396 237.574 129.102C234.286 125.808 233.308 120.858 235.095 116.561C236.883 112.264 241.085 109.468 245.74 109.478C248.789 109.478 251.713 110.69 253.866 112.847C256.02 115.005 257.227 117.93 257.221 120.978Z" fill="#F2F2F2"/>
<path fill-rule="evenodd" clip-rule="evenodd" d="M166.35 124.479H165.233V124.108H166.35V124.479ZM163.742 124.479H162.625V124.108H163.742V124.479ZM161.135 124.479H160.017V124.108H161.135V124.479ZM158.527 124.479H157.409V124.108H158.527V124.479ZM155.919 124.479H154.802V124.108H155.919V124.479ZM153.312 124.479H152.194V124.108H153.312V124.479ZM150.704 124.479H150.182V123.512H150.555V124.108H150.704V124.479ZM150.555 122.03H150.182V120.918H150.555V122.03ZM150.555 119.436H150.182V118.324H150.555V119.436ZM150.555 116.842H150.182V115.731H150.555V116.842ZM150.555 114.249H150.182V113.137H150.555V114.249ZM150.555 111.655H150.182V110.543H150.555V111.655ZM150.555 109.061H150.182V107.95H150.555V109.061ZM150.555 106.468H150.182V105.356H150.555V106.468ZM150.555 103.874H150.182V102.762H150.555V103.874ZM150.555 101.28H150.182V100.169H150.555V101.28ZM150.555 98.6865H150.182V97.5749H150.555V98.6865ZM150.555 96.0928H150.182V94.9812H150.555V96.0928ZM150.555 93.4991H150.182V92.3876H150.555V93.4991ZM150.555 90.9055H150.182V89.7939H150.555V90.9055ZM150.555 88.3118H150.182V87.2002H150.555V88.3118ZM150.555 85.7181H150.182V84.6065H150.555V85.7181ZM150.555 83.1244H150.182V82.0128H150.555V83.1244ZM214.205 81.8461H214.09V81.4756H214.205V81.8461ZM212.6 81.8461H211.482V81.4756H212.6V81.8461ZM209.992 81.8461H208.875V81.4756H209.992V81.8461ZM207.384 81.8461H206.267V81.4756H207.384V81.8461ZM204.777 81.8461H203.659V81.4756H204.777V81.8461ZM202.169 81.8461H201.051V81.4756H202.169V81.8461ZM199.561 81.8461H198.444V81.4756H199.561V81.8461ZM196.954 81.8461H195.836V81.4756H196.954V81.8461ZM194.346 81.8461H193.228V81.4756H194.346V81.8461ZM191.738 81.8461H190.62V81.4756H191.738V81.8461ZM189.13 81.8461H188.013V81.4756H189.13V81.8461ZM186.523 81.8461H185.405V81.4756H186.523V81.8461ZM183.915 81.8461H182.797V81.4756H183.915V81.8461ZM181.307 81.8461H180.19V81.4756H181.307V81.8461ZM178.7 81.8461H177.582V81.4756H178.7V81.8461ZM176.092 81.8461H174.974V81.4756H176.092V81.8461ZM173.484 81.8461H172.366V81.4756H173.484V81.8461ZM170.876 81.8461H169.759V81.4756H170.876V81.8461ZM168.269 81.8461H167.151V81.4756H168.269V81.8461ZM165.661 81.8461H164.543V81.4756H165.661V81.8461ZM163.053 81.8461H161.936V81.4756H163.053V81.8461ZM160.445 81.8461H159.328V81.4756H160.445V81.8461ZM157.838 81.8461H156.72V81.4756H157.838V81.8461ZM155.23 81.8461H154.112V81.4756H155.23V81.8461ZM152.622 81.8461H151.505V81.4756H152.622V81.8461Z" fill="#F94F24"/>
<g style="mix-blend-mode:multiply">
<rect x="166.188" y="91.4766" width="63.0228" height="42.0031" rx="7.57" fill="#E5E5E5"/>
</g>
<rect x="163.187" y="89.4761" width="63.0228" height="42.0031" rx="7.57" fill="url(#paint0_linear)"/>
<path fill-rule="evenodd" clip-rule="evenodd" d="M205.897 100.477L183.291 123.133L173.581 113.401L163.187 123.818V128.646C163.187 130.211 164.453 131.479 166.014 131.479H223.383C224.944 131.479 226.21 130.211 226.21 128.646V120.831L205.897 100.477Z" fill="white"/>
<path fill-rule="evenodd" clip-rule="evenodd" d="M189.284 104.796C189.971 101.884 188.168 98.9656 185.257 98.2781C182.346 97.5906 179.43 99.394 178.743 102.306C178.056 105.219 179.859 108.137 182.77 108.824C185.681 109.512 188.597 107.708 189.284 104.796Z" fill="white"/>
<g style="mix-blend-mode:multiply">
<path fill-rule="evenodd" clip-rule="evenodd" d="M242.054 135.489L233.626 127.355L239.234 123.122C239.399 123 239.482 122.795 239.448 122.593C239.416 122.389 239.275 122.219 239.08 122.153L216.939 114.507C216.738 114.439 216.515 114.492 216.365 114.644C216.215 114.797 216.166 115.023 216.24 115.224L224.543 137.988C224.619 138.201 224.817 138.345 225.042 138.353C225.267 138.361 225.474 138.231 225.566 138.025L228.484 131.499L237.269 140.317C237.373 140.421 237.513 140.479 237.659 140.48C237.806 140.48 237.946 140.422 238.049 140.317L242.054 136.28C242.16 136.177 242.219 136.033 242.215 135.884C242.216 135.736 242.158 135.593 242.054 135.489Z" fill="#E5E5E5"/>
</g>
<path fill-rule="evenodd" clip-rule="evenodd" d="M241.215 133.428L237.18 137.48L227.802 128.054L224.543 135.348L216.206 112.478L238.436 120.158L232.284 124.804L241.215 133.428Z" fill="url(#paint1_linear)"/>
<path fill-rule="evenodd" clip-rule="evenodd" d="M237.747 138.48C237.647 138.48 237.552 138.441 237.482 138.371L228.414 129.236L225.341 136.105C225.28 136.243 225.141 136.331 224.991 136.326C224.837 136.322 224.703 136.224 224.651 136.079L216.229 112.982C216.18 112.846 216.212 112.694 216.312 112.591C216.413 112.488 216.563 112.452 216.699 112.498L239.162 120.256C239.292 120.301 239.387 120.415 239.408 120.552C239.428 120.689 239.373 120.826 239.262 120.908L233.398 125.335L242.103 133.738C242.175 133.809 242.216 133.905 242.216 134.006C242.216 134.107 242.175 134.204 242.103 134.274L238.019 138.371C237.947 138.443 237.848 138.482 237.747 138.48ZM228.272 128.208C228.372 128.209 228.467 128.249 228.537 128.321L237.747 137.576L241.289 134.016L232.543 125.571C232.465 125.495 232.424 125.388 232.431 125.279C232.437 125.169 232.49 125.068 232.576 125.001L238.228 120.736L217.184 113.462L225.024 134.957L227.943 128.43C227.994 128.318 228.096 128.238 228.216 128.216L228.272 128.208Z" fill="white"/>
<defs>
<linearGradient id="paint0_linear" x1="207.615" y1="134.9" x2="217.934" y2="99.3857" gradientUnits="userSpaceOnUse">
<stop stop-color="#8033EB"/>
<stop offset="0.53" stop-color="#D4648E"/>
<stop offset="1" stop-color="#EC7071"/>
</linearGradient>
<linearGradient id="paint1_linear" x1="216.206" y1="137.48" x2="241.215" y2="137.48" gradientUnits="userSpaceOnUse">
<stop stop-color="#8033EB"/>
<stop offset="1" stop-color="#6731CE"/>
</linearGradient>
</defs>
</svg>
