<svg xmlns="http://www.w3.org/2000/svg" xmlns:xlink="http://www.w3.org/1999/xlink" viewBox="0 0 800 500"><defs><linearGradient id="a" x1="373.84" y1="341.7" x2="469.84" y2="114.7" gradientTransform="translate(126.8 -124.73) rotate(20.99)" gradientUnits="userSpaceOnUse"><stop offset="0" stop-color="#8033eb"/><stop offset="0.53" stop-color="#d4648e"/><stop offset="1" stop-color="#ec7071"/></linearGradient><linearGradient id="b" x1="218.67" y1="331.27" x2="218.67" y2="343.97" gradientUnits="userSpaceOnUse"><stop offset="0" stop-color="#f04b3d"/><stop offset="1" stop-color="#e9127f"/></linearGradient></defs><title>Artboard 2 copy 17</title><g style="isolation:isolate"><path d="M388.45,385.63a30.77,30.77,0,1,1-30.77-30.77A30.77,30.77,0,0,1,388.45,385.63Z" style="fill:#f2f2f2"/><path d="M334.87,235.73s-77.56,39.86-115.12,20.65-41-52.78-26-105.92,52.24-83.32,110-43.69S398.46,198.08,334.87,235.73Z" style="fill:#f2f2f2"/><circle cx="405.04" cy="279.5" r="134.4" style="fill:none;stroke:#f94f24;stroke-linecap:round;stroke-miterlimit:10;stroke-dasharray:3.404819965362549,2.269890069961548"/><circle cx="400" cy="279.83" r="100.76" transform="translate(-73.7 161.88) rotate(-20.99)" style="fill:url(#a)"/><circle cx="266.54" cy="322.36" r="101.65" transform="translate(-108.09 136.32) rotate(-24.01)" style="fill:#e5e5e5;mix-blend-mode:multiply"/><circle cx="537.65" cy="322.36" r="101.65" transform="translate(-82.44 230.29) rotate(-22.5)" style="fill:#e5e5e5;mix-blend-mode:multiply"/><circle cx="403.51" cy="148.98" r="101.65" transform="translate(-26.07 127.09) rotate(-17.35)" style="fill:#e5e5e5;mix-blend-mode:multiply"/><circle cx="403.51" cy="134.73" r="101.65" transform="translate(-20.84 164.67) rotate(-22.5)" style="fill:#fff;stroke:#f94f24;stroke-linecap:round;stroke-miterlimit:10;stroke-dasharray:3.404819965362549,2.269890069961548"/><circle cx="255.54" cy="322.36" r="101.65" transform="translate(-109.05 131.85) rotate(-24.01)" style="fill:#fff;stroke:#f94f24;stroke-linecap:round;stroke-miterlimit:10;stroke-dasharray:3.404819965362549,2.269890069961548"/><circle cx="550.35" cy="322.36" r="101.65" transform="translate(-81.47 235.15) rotate(-22.5)" style="fill:#fff;stroke:#f94f24;stroke-linecap:round;stroke-miterlimit:10;stroke-dasharray:3.404819965362549,2.269890069961548"/><path d="M573.63,154.11A13.12,13.12,0,1,1,560.52,141,13.11,13.11,0,0,1,573.63,154.11Z" style="fill:#f2f2f2"/><path d="M275,318.19c-1.33-3.84-6.76-3.84-7.82-.66s2.52,5,8.08,6.89,9,6.76,8.34,11.13-2.51,10.06-13.51,10.06a14.27,14.27,0,0,1-12.59-7.51l6.24-3.74s2.11,4.5,6.09,4.5,5.56-1.33,5.56-4.37c0-3.71-12.85-5-14.83-11.39s.66-15.37,9.93-14.71a14.34,14.34,0,0,1,10.68,5.34Z" style="fill:#333"/><path d="M246.16,309.05v25.44c0,3-2.65,4.63-5.3,4.1s-3.84-3.71-3.84-3.71l-6.1,4.11s1.33,6.09,9.67,6.62,13.12-4.5,13.12-8.74V309.05Z" style="fill:#333"/><path d="M218.67,330.38a7.55,7.55,0,1,1-7.55,7.55A7.55,7.55,0,0,1,218.67,330.38Z" style="fill:url(#b)"/><path d="M216.29,283.48v44.18a10.4,10.4,0,0,1,2.38-.28,10.83,10.83,0,0,1,1.9.18v-39.8h69.3v69.55h-69.3v-9a10.83,10.83,0,0,1-1.9.18,10.4,10.4,0,0,1-2.38-.28v13.4h77.86V283.48Z" style="fill:#333"/><path d="M365.38,108.62l.47.09a5.28,5.28,0,0,1,3.75,2.68,10.35,10.35,0,0,1,1.23,3.51,20.5,20.5,0,0,1,.22,5.07,33.58,33.58,0,0,1-.87,5.64,1.91,1.91,0,0,1-.05.26l.34.1a32.38,32.38,0,0,1,6.43,2.62,17.18,17.18,0,0,1,4,2.86,9.07,9.07,0,0,1,1.5,1.94,5.28,5.28,0,0,1,0,5.5,10,10,0,0,1-2.34,2.77,21.24,21.24,0,0,1-5.24,3.22,33.19,33.19,0,0,1-4.2,1.58l-.34.11c.07.33.14.64.22,1a29.68,29.68,0,0,1,.74,6.71,16.33,16.33,0,0,1-.72,4.85,8.25,8.25,0,0,1-1.58,2.89,5.18,5.18,0,0,1-3.2,1.72c-.2,0-.4.08-.6.12h-.79l-.29-.07c-.37-.06-.74-.1-1.1-.17a14.33,14.33,0,0,1-4-1.5,29.53,29.53,0,0,1-6-4.36l-.73-.68-.23.21a31.22,31.22,0,0,1-4.45,3.57,19.22,19.22,0,0,1-5.18,2.5,9,9,0,0,1-3.8.38,5.25,5.25,0,0,1-3.5-2,8.35,8.35,0,0,1-1.51-3.25,18.83,18.83,0,0,1-.37-6.26,32.27,32.27,0,0,1,.87-5.17c0-.11,0-.21,0-.32l-.27-.09a32.38,32.38,0,0,1-3.58-1.27,23.59,23.59,0,0,1-5.35-3,11.87,11.87,0,0,1-2.83-3,5.5,5.5,0,0,1,0-6.22,9.64,9.64,0,0,1,1.65-1.95,18.74,18.74,0,0,1,4.39-3,35.17,35.17,0,0,1,5.78-2.22l.24-.09q0-.11,0-.18a34.87,34.87,0,0,1-.92-5.56,19.87,19.87,0,0,1,.23-5.5,9.87,9.87,0,0,1,1.16-3.19,5.22,5.22,0,0,1,3.3-2.52,7.87,7.87,0,0,1,3.58,0,15.82,15.82,0,0,1,4.25,1.7,31.05,31.05,0,0,1,6.22,4.65l.21.18c.4-.35.76-.7,1.14-1a28.58,28.58,0,0,1,5.95-4.23,14.32,14.32,0,0,1,4.27-1.47l.54-.09Zm-13.13,37.62c1.77-.08,3.52-.16,5.27-.22a.52.52,0,0,0,.47-.28,88.63,88.63,0,0,0,5.33-9.27.59.59,0,0,0,0-.6c-.53-1-1-2-1.55-2.93-1.17-2.14-2.42-4.22-3.77-6.24a.57.57,0,0,0-.49-.3c-.8,0-1.6-.09-2.4-.12a74.87,74.87,0,0,0-8.34.12.53.53,0,0,0-.44.27A78.55,78.55,0,0,0,341,136a.53.53,0,0,0,0,.52,77.65,77.65,0,0,0,5.39,9.31.5.5,0,0,0,.43.24ZM334.9,128.42s-.07,0-.08,0l-.64.19a28.49,28.49,0,0,0-5.72,2.36,14,14,0,0,0-3.21,2.37,5.77,5.77,0,0,0-1.25,1.79,2.57,2.57,0,0,0,0,2,5.29,5.29,0,0,0,.91,1.51,11.77,11.77,0,0,0,2.7,2.33,26.06,26.06,0,0,0,6.89,3.1l.38.11.1-.27a61.62,61.62,0,0,1,2.82-7.31.75.75,0,0,0,0-.7,59.6,59.6,0,0,1-2.77-7.19C335,128.59,334.93,128.5,334.9,128.42Zm15.49,26.73c-.55-.62-1.07-1.19-1.57-1.78q-1.9-2.2-3.58-4.58a.54.54,0,0,0-.43-.25l-2.25-.23c-1.68-.18-3.34-.44-5-.78l-.84-.16-.07.25a30,30,0,0,0-.87,5.8,15.24,15.24,0,0,0,.35,4.37,5.93,5.93,0,0,0,.93,2.16,2.63,2.63,0,0,0,1.89,1.12,5.71,5.71,0,0,0,1.6,0,11.08,11.08,0,0,0,3-1,24.59,24.59,0,0,0,5.77-3.92C349.69,155.81,350,155.49,350.39,155.15Zm17.28-7.91-.82.18a61,61,0,0,1-7.13,1.07.76.76,0,0,0-.66.37,60.06,60.06,0,0,1-4.75,6l-.19.23a1.49,1.49,0,0,0,.17.18,32.53,32.53,0,0,0,3.18,2.69,19.33,19.33,0,0,0,4.35,2.48,7.87,7.87,0,0,0,3,.64,2.73,2.73,0,0,0,2.4-1.3,6.68,6.68,0,0,0,.75-1.63,13.67,13.67,0,0,0,.57-4.12,27.94,27.94,0,0,0-.8-6.5Zm-17.34-29.92-.24-.18a33.8,33.8,0,0,0-3.6-3,18.71,18.71,0,0,0-4.48-2.38,7.94,7.94,0,0,0-2.6-.49,2.7,2.7,0,0,0-2.59,1.54,8.65,8.65,0,0,0-.55,1.33,13.06,13.06,0,0,0-.48,3.89,27.86,27.86,0,0,0,.78,6.3c.06.27.12.53.18.77,1.23-.23,2.4-.47,3.59-.65,1.44-.22,2.88-.39,4.33-.56a.76.76,0,0,0,.56-.32q1.86-2.62,4-5.05C349.57,118.17,349.93,117.78,350.33,117.32Zm17.22,7.88c.05-.17.09-.32.12-.46a30.25,30.25,0,0,0,.77-5.42,16,16,0,0,0-.37-4.67,6.21,6.21,0,0,0-1-2.32,2.43,2.43,0,0,0-1.54-1,5.1,5.1,0,0,0-2,.07,12.71,12.71,0,0,0-3.37,1.32,28.46,28.46,0,0,0-6,4.5s-.06.09-.1.13l.14.17c.85,1,1.73,2,2.55,3s1.59,2.09,2.37,3.14a.54.54,0,0,0,.46.26c.38,0,.76.08,1.14.12q2.87.32,5.7.91Zm2,18.79.18,0a29.19,29.19,0,0,0,6.15-2.6,13.82,13.82,0,0,0,3.18-2.41,5.72,5.72,0,0,0,1.21-1.75,2.48,2.48,0,0,0,0-2.13,5.71,5.71,0,0,0-1-1.48,12.49,12.49,0,0,0-2.83-2.23,27.62,27.62,0,0,0-6.21-2.7l-.76-.23c0,.1-.07.17-.09.24a61.21,61.21,0,0,1-2.82,7.21.61.61,0,0,0,0,.56,61,61,0,0,1,2.93,7.27C369.47,143.8,369.5,143.89,369.54,144Zm-8.29,1.67a52.38,52.38,0,0,0,5.71-1,52.42,52.42,0,0,0-2-5.38C363.69,141.41,362.48,143.51,361.25,145.66Zm-21.8-6.32a54.93,54.93,0,0,0-2,5.44,36.54,36.54,0,0,0,5.66.88C341.79,143.62,340.59,141.53,339.45,139.34Zm16.4,9.46h-7.31c1.18,1.55,2.38,3,3.7,4.43A52.84,52.84,0,0,0,355.85,148.8Zm-7.36-25.15c2.47-.1,4.87-.1,7.33,0a56.42,56.42,0,0,0-3.65-4.4C350.87,120.66,349.67,122.09,348.49,123.65ZM364.88,133a53.82,53.82,0,0,0,2-5.28c-1.87-.42-3.71-.74-5.58-1C362.47,128.88,363.67,130.94,364.88,133Zm-27.4-5.3a55.36,55.36,0,0,0,2,5.35c1.13-2.17,2.32-4.24,3.64-6.32C341.17,127,339.34,127.32,337.48,127.74Z" style="fill:#00d8ff;fill-rule:evenodd"/><path d="M404.55,138.39l7,10.54a.93.93,0,0,1-.19,0c-1.13,0-2.26,0-3.39,0-.2,0-.28-.11-.37-.25l-4.83-7.56-1.48-2.33a.36.36,0,0,0-.34-.2h-5V149H392.7V123l.26,0h10.12a9.07,9.07,0,0,1,4.22.93,7.12,7.12,0,0,1,3.88,5.35,8.41,8.41,0,0,1-.28,4.28,6.92,6.92,0,0,1-5,4.59,10.19,10.19,0,0,1-1.1.22Zm-8.61-2.59h6.64a6.42,6.42,0,0,0,1.63-.18,4.68,4.68,0,0,0,3.28-2.63,5.2,5.2,0,0,0,.39-3.11,4.52,4.52,0,0,0-2.4-3.38,5.9,5.9,0,0,0-2.85-.65h-6.44l-.25,0Z" style="fill:#00d8ff;fill-rule:evenodd"/><path d="M432.35,140.5H417.17c0,.25,0,.46.06.67a7.14,7.14,0,0,0,1.7,3.74,6,6,0,0,0,3.81,2,8.14,8.14,0,0,0,6.86-2.17l.17-.14,1.39,1.9c-.27.23-.53.48-.81.7a9.94,9.94,0,0,1-4.86,2.08,11,11,0,0,1-4.94-.32,8.7,8.7,0,0,1-5.95-5.91,10.73,10.73,0,0,1,.46-8.1,8.71,8.71,0,0,1,6.3-5.08,8.82,8.82,0,0,1,7.23,1.41,8.69,8.69,0,0,1,3,4,13,13,0,0,1,.79,5A.56.56,0,0,1,432.35,140.5Zm-15.19-2.2h12.31a6.14,6.14,0,0,0-.55-2.57,5.74,5.74,0,0,0-3.12-3.17,6.52,6.52,0,0,0-3.55-.39,5.39,5.39,0,0,0-2.79,1.28,6.65,6.65,0,0,0-2.09,3.42A4.54,4.54,0,0,0,417.16,138.3Z" style="fill:#00d8ff;fill-rule:evenodd"/><path d="M438.37,134.87l-1.38-2c.05-.06.09-.13.14-.18a9.54,9.54,0,0,1,5.7-2.86,11.58,11.58,0,0,1,4.27.19,7,7,0,0,1,2.06.83,5.34,5.34,0,0,1,2.5,3.73,9.16,9.16,0,0,1,.13,1.57c0,4.17,0,8.34,0,12.51,0,.11,0,.22,0,.34h-2.9v-2.09l-.24.21a7.87,7.87,0,0,1-4.76,2.29,7.7,7.7,0,0,1-3.44-.27,6.16,6.16,0,0,1-3.72-3.07,6.35,6.35,0,0,1-.6-3.61,5.7,5.7,0,0,1,1.35-3.22,5.8,5.8,0,0,1,2.86-1.83,8.73,8.73,0,0,1,6.8.75,6.26,6.26,0,0,1,1.5,1.17l.17.23c0-.09.07-.12.07-.15,0-1.16,0-2.32,0-3.48a3.44,3.44,0,0,0-2.12-3.11,6.15,6.15,0,0,0-3.16-.54,7.26,7.26,0,0,0-5.05,2.42A.88.88,0,0,0,438.37,134.87Zm10.51,8.32v-1.08c0-.79,0-.79-.57-1.33a6.83,6.83,0,0,0-6.55-1.33,3.93,3.93,0,0,0-2.56,4.86,3.87,3.87,0,0,0,2.7,2.75A6.52,6.52,0,0,0,446,147a5.48,5.48,0,0,0,2.67-1.77.67.67,0,0,0,.17-.47C448.87,144.22,448.88,143.71,448.88,143.19Z" style="fill:#00d8ff;fill-rule:evenodd"/><path d="M472.9,133,471,134.69l-.12-.13a5.44,5.44,0,0,0-4.17-2.25,6.11,6.11,0,0,0-5.18,1.95,6.68,6.68,0,0,0-1.64,3.28,8.94,8.94,0,0,0,.35,5.17,6,6,0,0,0,3.81,3.78,6.23,6.23,0,0,0,4.7-.21,5.83,5.83,0,0,0,2-1.61l.23-.29,1.95,1.79a8.83,8.83,0,0,1-1.29,1.37,7.51,7.51,0,0,1-3.83,1.76A10.15,10.15,0,0,1,463,149a8.76,8.76,0,0,1-5.42-4.84,11,11,0,0,1-1-5.5,10.41,10.41,0,0,1,1.17-4.17,8.74,8.74,0,0,1,6.41-4.66,9.84,9.84,0,0,1,5,.35A7.8,7.8,0,0,1,472.9,133Z" style="fill:#00d8ff;fill-rule:evenodd"/><path d="M477.62,132.71H474.5v-2.55c1,0,2.06,0,3.11,0V125h3c0,.43,0,.85,0,1.27v3.85c.43,0,.84,0,1.25,0h2.54v2.57h-3.76c0,.11,0,.19,0,.28v11.46a3.26,3.26,0,0,0,.26,1.31,1.7,1.7,0,0,0,1.76,1.06,3,3,0,0,0,1.83-.76.83.83,0,0,1,.09.16c.23.56.44,1.12.66,1.68.12.33.11.36-.17.58a4.53,4.53,0,0,1-2.32.91,6.21,6.21,0,0,1-2.35-.14,3.42,3.42,0,0,1-2.58-2.84,8.58,8.58,0,0,1-.14-1.6c0-3.88,0-7.77,0-11.66Z" style="fill:#00d8ff;fill-rule:evenodd"/><path d="M352.15,130.61a5.54,5.54,0,1,1-5.56,5.53A5.55,5.55,0,0,1,352.15,130.61Z" style="fill:#00d8ff;fill-rule:evenodd"/><path d="M621.13,329.78a2.13,2.13,0,0,1-1.07,1.1c-1.91,1.08-3.8,2.19-5.7,3.3a.77.77,0,0,1-.81.1c-.3-.17-.32-.46-.32-.76,0-1.62,0-3.24,0-4.86a.9.9,0,0,0-.51-.89q-2.82-1.54-5.63-3.12a.89.89,0,0,0-.93,0l-5.7,3.14a.85.85,0,0,0-.46.81c0,2.07,0,4.14,0,6.2a.91.91,0,0,0,.52.86q5.29,2.86,10.57,5.75l2.14,1.18a.8.8,0,0,1,.52.76.83.83,0,0,1-.52.73l-5.76,3.19a1.65,1.65,0,0,1-1.69,0l-9.35-5.18c-1.11-.61-2.21-1.23-3.32-1.83a1.68,1.68,0,0,1-1-1.62q0-6.92,0-13.83a1.76,1.76,0,0,1,1-1.69q6.23-3.42,12.45-6.89a1.91,1.91,0,0,1,2,0q6.32,3.51,12.64,7a2,2,0,0,1,.87,1.12Z" style="fill:#36464e;fill-rule:evenodd"/><path d="M494.6,324.33a2.16,2.16,0,0,1,1.22-1.31l12.36-6.83a1.75,1.75,0,0,1,1.83,0l12.64,7a1.67,1.67,0,0,1,.93,1.6q0,9.62,0,19.22c0,.86-.41,1.09-1.15.66-2-1.14-3.93-2.29-5.91-3.42a1.48,1.48,0,0,1-.8-1.42c0-3.67,0-7.35,0-11a1.09,1.09,0,0,0-.64-1.1q-2.64-1.43-5.25-2.91a1.28,1.28,0,0,0-1.43,0c-1.8,1-3.63,2-5.45,3a.86.86,0,0,0-.46.84c0,3.73,0,7.46,0,11.19a1.49,1.49,0,0,1-.81,1.42l-5.91,3.42c-.59.35-.79.3-1.18-.24Z" style="fill:#36464e;fill-rule:evenodd"/><path d="M581.6,319.31V298.24c0-.67.46-.95,1-.63,1,.53,2,1.08,2.93,1.63s2.08,1.17,3.13,1.74a1.39,1.39,0,0,1,.77,1.32v36.45a1.53,1.53,0,0,1-.86,1.44l-12.77,7.08a1.73,1.73,0,0,1-1.76,0l-8.7-4.82c-1.31-.73-2.61-1.46-3.93-2.18a1.63,1.63,0,0,1-.94-1.55q0-7,0-14a1.64,1.64,0,0,1,.92-1.56l12.64-7a1.77,1.77,0,0,1,1.83,0c1.78,1,3.57,2,5.35,3Zm0,12.4c0-1,0-2.06,0-3.09a.85.85,0,0,0-.5-.85l-5.52-3.07a1.06,1.06,0,0,0-1.15,0c-1.84,1-3.69,2.06-5.55,3.07a.89.89,0,0,0-.51.9c0,2,0,4,0,6a1,1,0,0,0,.58,1c1.88,1,3.74,2.05,5.6,3.09a.88.88,0,0,0,.9,0l5.69-3.15a.84.84,0,0,0,.47-.8C581.59,333.79,581.6,332.74,581.6,331.71Z" style="fill:#36464e;fill-rule:evenodd"/><path d="M526.26,331.87c0-2.25,0-4.5,0-6.76a1.89,1.89,0,0,1,1.08-1.88c4.22-2.3,8.42-4.65,12.62-7a1.77,1.77,0,0,1,1.83.13l10.7,5.92,1.73.95a1.62,1.62,0,0,1,1,1.71c-.06,1,0,2,0,3,0,3.48,0,7,0,10.44a5.5,5.5,0,0,1,0,.91,1.46,1.46,0,0,1-.83,1l-9.39,5.21c-1.06.59-2.14,1.15-3.18,1.77a1.86,1.86,0,0,1-2,0l-7.49-4.15c-1.62-.9-3.23-1.82-4.87-2.69a1.89,1.89,0,0,1-1.13-1.89C526.29,336.35,526.26,334.11,526.26,331.87Z" style="fill:#4bae4f;fill-rule:evenodd"/><path d="M609,331.73c.3,1-.22,1.6-1.14,1.93a1.82,1.82,0,0,0-.27.15c-1.19.64-.77.62-1.94,0a12.7,12.7,0,0,1-1.13-.65.65.65,0,0,1-.27-.45q0-1,0-2a.63.63,0,0,1,.28-.46c.6-.36,1.21-.7,1.83-1a.7.7,0,0,1,.53,0c.61.31,1.2.66,1.8,1a.5.5,0,0,1,.31.53C609,331.07,609,331.4,609,331.73Z" style="fill:#4bae4f;fill-rule:evenodd"/><path d="M555,339.7a1.22,1.22,0,0,0,.15-.39,5.5,5.5,0,0,0,0-.91c0-3.48,0-7,0-10.44,0-1,0-2,0-3a1.62,1.62,0,0,0-1-1.71l-1.73-.95-10.7-5.92a2,2,0,0,0-1.17-.32Z" style="fill:#2e7d32;fill-rule:evenodd"/><path d="M526.62,323.81a2,2,0,0,0-.37,1.3c0,2.26,0,4.51,0,6.76s0,4.48,0,6.72a1.89,1.89,0,0,0,1.13,1.89c1.64.87,3.25,1.79,4.87,2.69l7.49,4.15a1.88,1.88,0,0,0,1.33.24Z" style="fill:#2e7d32;fill-rule:evenodd"/><polyline points="526.63 338.12 531.02 331.04 526.63 323.95 526.26 324.75 526.25 338.92" style="fill:#378d3b;fill-rule:evenodd"/><polyline points="554.73 325.04 550.35 332.12 554.98 339.7 555.1 338.41 555.11 324.24" style="fill:#378d3b;fill-rule:evenodd"/></g></svg>