<svg width="10" height="13" viewBox="0 0 10 13" fill="none" xmlns="http://www.w3.org/2000/svg">
<path fill-rule="evenodd" clip-rule="evenodd" d="M0.192214 9.18034L4.27067 12.8281C4.39863 12.9427 4.56678 13 4.73456 13C4.90236 13 5.07048 12.9427 5.19862 12.8281L9.27708 9.18034C9.53233 8.95187 9.53336 8.58164 9.27879 8.35225C9.0242 8.12258 8.61474 8.12043 8.35743 8.34705L5.3994 10.9527L5.39941 0.586813C5.39941 0.262674 5.09754 0 4.7353 0C4.37291 0 4.07119 0.262674 4.07119 0.586813L4.07117 10.9964L1.11637 8.35053C0.860087 8.12134 0.44851 8.12134 0.192229 8.35053C-0.0640739 8.57963 -0.0640739 8.95124 0.192214 9.18034Z" fill="#FA5A28"/>
</svg>
