<svg width="42" height="40" viewBox="0 0 42 40" fill="none" xmlns="http://www.w3.org/2000/svg">
<path d="M40.5349 16.0258L41.0329 15.9821L41.0329 15.9819L40.5349 16.0258ZM39.4871 15.0612L39.4739 15.5611L39.4748 15.5611L39.4871 15.0612ZM35.6385 14.9543L35.6478 14.4543H35.6385V14.9543ZM34.7908 14.3601L34.313 14.5074L34.3149 14.5133L34.7908 14.3601ZM34.0441 12.7418L34.4663 12.4738L34.4613 12.4663L34.0441 12.7418ZM31.8792 9.73312L32.2779 9.43146L32.2555 9.40181L32.2289 9.37581L31.8792 9.73312ZM31.7405 9.02601L32.1993 9.22477L32.2025 9.21734L32.2055 9.20981L31.7405 9.02601ZM32.4793 6.99182L32.0068 6.82822L32.0068 6.82836L32.4793 6.99182ZM33.2498 4.68231L33.7244 4.83969L33.7372 4.80117L33.7436 4.7611L33.2498 4.68231ZM31.8415 3.19282L32.0843 2.75569L32.0777 2.75203L32.071 2.74857L31.8415 3.19282ZM27.8801 1.15071L28.1016 0.702418L28.0989 0.70112L27.8801 1.15071ZM26.6045 1.53298L26.1883 1.25598L26.1878 1.25673L26.6045 1.53298ZM24.3307 4.99526L23.9116 4.72256L23.892 4.75263L23.877 4.78517L24.3307 4.99526ZM23.7919 5.23294L23.9427 4.7562L23.9165 4.74792L23.8895 4.74256L23.7919 5.23294ZM17.1665 5.43101L17.226 5.92746L17.26 5.92338L17.2932 5.91469L17.1665 5.43101ZM16.6653 5.26464L16.2965 5.6022L16.3082 5.61497L16.3207 5.6269L16.6653 5.26464ZM13.6943 1.93308L14.0704 1.60364L14.0692 1.60232L13.6943 1.93308ZM12.2444 1.78057L12.5315 2.18996L12.5351 2.18735L12.2444 1.78057ZM7.99974 4.73975L8.2824 5.15218L8.28288 5.15185L7.99974 4.73975ZM7.6036 6.24112L8.04418 6.00468L8.0422 6.00106L7.6036 6.24112ZM9.53479 9.8064L9.09606 10.0462L9.10631 10.065L9.11812 10.0828L9.53479 9.8064ZM9.46942 10.4264L9.11956 10.0692L9.0891 10.099L9.06414 10.1335L9.46942 10.4264ZM7.91259 12.7517L7.46863 12.5217L7.46525 12.5282L7.46207 12.5348L7.91259 12.7517ZM6.66474 15.7446L6.1936 15.5772L6.18347 15.6057L6.17685 15.6352L6.66474 15.7446ZM6.15966 16.2041L6.09677 15.7081L6.08442 15.7096L6.07217 15.7118L6.15966 16.2041ZM1.96253 17.0142L2.05887 17.5048L2.06127 17.5044L1.96253 17.0142ZM1.01179 18.2601L0.512876 18.293L0.512903 18.2934L1.01179 18.2601ZM1.38021 23.4198L0.881277 23.4525L0.881313 23.4531L1.38021 23.4198ZM2.42404 24.4538L2.40295 24.9533L2.40423 24.9534L2.42404 24.4538ZM6.46865 24.6142L6.45541 25.1142H6.46865V24.6142ZM7.02919 25.046L6.55957 25.2176L6.56061 25.2204L7.02919 25.046ZM10.5786 30.5385L10.9973 30.2652L10.9681 30.2205L10.9302 30.183L10.5786 30.5385ZM10.6618 31.103L11.1401 31.249L11.1415 31.2439L10.6618 31.103ZM9.32285 35.31L8.84659 35.1578L8.84601 35.1596L9.32285 35.31ZM9.90122 36.5995L9.69454 37.0547L9.69535 37.0551L9.90122 36.5995ZM14.8411 38.8099L14.6438 39.2694L14.6622 39.2773L14.6812 39.2837L14.8411 38.8099ZM15.5958 38.705L15.8789 39.1171L15.9073 39.0976L15.9327 39.0744L15.5958 38.705ZM16.6851 37.4353L17.1015 37.7122L17.1031 37.7098L16.6851 37.4353ZM18.2816 34.8228L17.8766 34.5296L17.8675 34.5422L17.8591 34.5553L18.2816 34.8228ZM18.749 34.5772L18.821 34.0824L18.7794 34.0763L18.7374 34.0773L18.749 34.5772ZM24.81 34.2147L24.7043 33.726L24.6919 33.7287L24.6796 33.732L24.81 34.2147ZM25.3428 34.3454L25.7123 34.0085L25.6891 33.9831L25.6627 33.9612L25.3428 34.3454ZM28.1832 37.5502L27.8052 37.8775L27.8056 37.878L28.1832 37.5502ZM29.8965 37.8255L29.6126 37.4139L29.6123 37.4142L29.8965 37.8255ZM34.1708 34.8188L33.881 34.4114L33.8794 34.4125L34.1708 34.8188ZM34.4798 33.5195L34.9252 33.2921L34.9233 33.2886L34.4798 33.5195ZM32.4991 29.7799L32.0444 29.9879L32.0496 29.9992L32.0553 30.0102L32.4991 29.7799ZM32.509 29.3045L32.1208 28.9895L32.0874 29.0306L32.0634 29.0777L32.509 29.3045ZM35.3315 23.8199L35.8136 23.9528L35.8185 23.9349L35.8221 23.9168L35.3315 23.8199ZM35.8683 23.3426L35.9072 23.8411L35.9347 23.8389L35.9619 23.8338L35.8683 23.3426ZM40.0278 22.5166L40.129 23.0063L40.1305 23.006L40.0278 22.5166ZM41.0329 15.9819C40.9984 15.5897 40.904 15.1916 40.598 14.9117C40.2954 14.6348 39.8911 14.571 39.4993 14.5614L39.4748 15.5611C39.8119 15.5693 39.8998 15.6283 39.923 15.6495C39.9429 15.6676 40.008 15.743 40.0368 16.0697L41.0329 15.9819ZM39.5002 14.5614C38.2284 14.528 36.9324 14.4781 35.6478 14.4544L35.6293 15.4542C36.9117 15.4779 38.1827 15.5271 39.4739 15.5611L39.5002 14.5614ZM35.6385 14.4543C35.463 14.4543 35.402 14.4257 35.3807 14.4118C35.3681 14.4036 35.3191 14.3693 35.2668 14.2069L34.3149 14.5133C34.4111 14.8123 34.5681 15.0752 34.8332 15.2486C35.0897 15.4164 35.3784 15.4543 35.6385 15.4543V14.4543ZM35.2686 14.2127C35.0797 13.6 34.8098 13.0152 34.4662 12.4739L33.6219 13.0098C33.9179 13.476 34.1503 13.9797 34.313 14.5074L35.2686 14.2127ZM34.4613 12.4663C33.7705 11.42 33.0233 10.4167 32.2779 9.43146L31.4804 10.0348C32.2246 11.0184 32.955 11.9998 33.6268 13.0173L34.4613 12.4663ZM32.2289 9.37581C32.1887 9.33646 32.1769 9.27639 32.1993 9.22477L31.2817 8.82724C31.0947 9.25896 31.1932 9.76131 31.5294 10.0904L32.2289 9.37581ZM32.2055 9.20981C32.4754 8.52701 32.7163 7.83614 32.9518 7.15528L32.0068 6.82836C31.7709 7.51022 31.5365 8.18209 31.2755 8.84221L32.2055 9.20981ZM32.9518 7.15541C33.2186 6.38476 33.4705 5.60529 33.7244 4.83969L32.7752 4.52493C32.5181 5.30033 32.2708 6.0658 32.0068 6.82822L32.9518 7.15541ZM33.7436 4.7611C33.7871 4.48844 33.7577 4.23143 33.6522 3.99558C33.5497 3.76635 33.3895 3.58897 33.2212 3.44729C32.9084 3.18409 32.4542 2.96109 32.0843 2.75569L31.5988 3.62994C32.0529 3.88209 32.3622 4.03146 32.5773 4.21244C32.6729 4.29284 32.7177 4.3555 32.7394 4.40387C32.758 4.44564 32.772 4.50381 32.7561 4.60352L33.7436 4.7611ZM32.071 2.74857C30.7574 2.07017 29.4336 1.3605 28.1016 0.702426L27.6587 1.59898C28.9808 2.25214 30.2794 2.94878 31.6121 3.63706L32.071 2.74857ZM28.0989 0.70112C27.756 0.534247 27.3832 0.431571 27.0034 0.552823C26.6366 0.669901 26.386 0.958897 26.1883 1.25598L27.0208 1.80998C27.1856 1.56237 27.2756 1.51564 27.3075 1.50545C27.3263 1.49944 27.41 1.47798 27.6613 1.60029L28.0989 0.70112ZM26.1878 1.25673C25.4238 2.40937 24.665 3.56464 23.9116 4.72256L24.7498 5.26796C25.5017 4.11241 26.2589 2.9595 27.0213 1.80923L26.1878 1.25673ZM23.877 4.78517C23.8884 4.76037 23.9166 4.74795 23.9427 4.7562L23.6412 5.70968C24.0949 5.85312 24.5845 5.63711 24.7844 5.20535L23.877 4.78517ZM23.8895 4.74256C21.6202 4.29091 19.278 4.36094 17.0397 4.94734L17.2932 5.91469C19.3848 5.36669 21.5737 5.30126 23.6943 5.72332L23.8895 4.74256ZM17.1069 4.93457C17.0714 4.93883 17.0359 4.92702 17.01 4.90237L16.3207 5.6269C16.5626 5.85699 16.8945 5.9672 17.226 5.92746L17.1069 4.93457ZM17.0342 4.92707C16.0336 3.8337 15.048 2.71971 14.0704 1.60364L13.3182 2.26252C14.2975 3.3807 15.2887 4.50095 16.2965 5.6022L17.0342 4.92707ZM14.0692 1.60232C13.8058 1.30363 13.4899 1.03097 13.0709 0.98606C12.6548 0.94146 12.284 1.13766 11.9537 1.37379L12.5351 2.18735C12.8228 1.98177 12.9323 1.97693 12.9643 1.98037C12.9935 1.98349 13.0936 2.00793 13.3193 2.26385L14.0692 1.60232ZM11.9573 1.37119C10.5442 2.36217 9.13827 3.35086 7.7166 4.32764L8.28288 5.15185C9.70947 4.17169 11.1201 3.17967 12.5315 2.18994L11.9573 1.37119ZM7.71707 4.32731C7.36896 4.56589 7.0569 4.85951 6.9438 5.26995C6.82778 5.69093 6.95643 6.10014 7.165 6.48119L8.0422 6.00106C7.88433 5.71263 7.89314 5.58902 7.90786 5.53562C7.92548 5.47169 7.99471 5.34935 8.2824 5.15218L7.71707 4.32731ZM7.16303 6.47756C7.80143 7.66713 8.44578 8.85668 9.09606 10.0462L9.97351 9.56656C9.32446 8.37926 8.68134 7.19197 8.04416 6.00469L7.16303 6.47756ZM9.11812 10.0828C9.11527 10.0785 9.11587 10.0728 9.11956 10.0692L9.81928 10.7836C10.1583 10.4515 10.2138 9.92547 9.95145 9.53001L9.11812 10.0828ZM9.06414 10.1335C8.53384 10.8675 7.91656 11.6571 7.46863 12.5217L8.35655 12.9817C8.76031 12.2023 9.31166 11.4985 9.87471 10.7192L9.06414 10.1335ZM7.46207 12.5348C6.98517 13.5255 6.56173 14.5411 6.1936 15.5772L7.13588 15.912C7.49205 14.9096 7.90171 13.9271 8.36311 12.9686L7.46207 12.5348ZM6.17685 15.6352C6.16817 15.6739 6.13614 15.7031 6.09677 15.7081L6.22255 16.7001C6.67988 16.6421 7.05181 16.3038 7.15264 15.8539L6.17685 15.6352ZM6.07217 15.7118C4.66151 15.9625 3.25002 16.2448 1.8638 16.5241L2.06127 17.5044C3.44804 17.225 4.84916 16.9448 6.24714 16.6964L6.07217 15.7118ZM1.8662 16.5236C1.64266 16.5675 1.43256 16.6175 1.25215 16.6905C1.06588 16.7658 0.88304 16.8766 0.74336 17.058C0.603791 17.2393 0.542903 17.4449 0.517288 17.646C0.49243 17.8411 0.49752 18.0601 0.512876 18.293L1.51071 18.2272C1.49636 18.0095 1.49699 17.8687 1.50927 17.7724C1.51507 17.7269 1.52251 17.6998 1.52791 17.6849C1.53052 17.6777 1.53261 17.6734 1.53377 17.6713C1.53488 17.6692 1.53554 17.6683 1.53574 17.6681C1.53594 17.6678 1.53656 17.667 1.53816 17.6655C1.53982 17.664 1.54324 17.661 1.54931 17.6568C1.56189 17.6481 1.58547 17.6344 1.6271 17.6175C1.71557 17.5817 1.84863 17.5461 2.05887 17.5048L1.8662 16.5236ZM0.512903 18.2934C0.630486 20.0551 0.766402 21.7012 0.881277 23.4525L1.87913 23.3871C1.7682 21.6959 1.62286 19.9075 1.51068 18.2268L0.512903 18.2934ZM0.881313 23.4531C0.907896 23.8518 0.990312 24.2603 1.28482 24.5562C1.58276 24.8555 1.99333 24.936 2.40295 24.9533L2.44513 23.9542C2.10406 23.9398 2.01747 23.8747 1.99355 23.8507C1.96619 23.8232 1.90203 23.7306 1.8791 23.3866L0.881313 23.4531ZM2.40423 24.9534C3.74374 25.0065 5.10471 25.0783 6.45542 25.114L6.48188 24.1144C5.13882 24.0788 3.80207 24.008 2.44385 23.9541L2.40423 24.9534ZM6.46865 25.1142C6.51693 25.1142 6.53621 25.1196 6.53775 25.1201C6.53804 25.1201 6.53457 25.1191 6.52881 25.116C6.52294 25.1129 6.51708 25.1089 6.51196 25.1046C6.5014 25.0957 6.50246 25.0926 6.51225 25.1093C6.52308 25.1279 6.5387 25.1605 6.55958 25.2176L7.4988 24.8743C7.43883 24.7102 7.34526 24.4992 7.15671 24.3402C6.95215 24.1676 6.70862 24.1142 6.46865 24.1142V25.1142ZM6.56061 25.2204C7.35564 27.3558 8.60686 29.292 10.2271 30.894L10.9302 30.183C9.4134 28.6832 8.24204 26.8705 7.49776 24.8715L6.56061 25.2204ZM10.1599 30.8118C10.1889 30.8562 10.197 30.9112 10.1821 30.9621L11.1415 31.2439C11.239 30.9123 11.1862 30.5546 10.9973 30.2652L10.1599 30.8118ZM10.1836 30.957C9.75503 32.3612 9.29616 33.7514 8.84659 35.1578L9.79911 35.4623C10.2448 34.068 10.709 32.6613 11.14 31.2489L10.1836 30.957ZM8.84601 35.1596C8.72761 35.5349 8.69193 35.9272 8.85576 36.2924C9.01936 36.657 9.33585 36.8919 9.69454 37.0547L10.1079 36.1442C9.86445 36.0337 9.79272 35.9378 9.76815 35.883C9.74382 35.8288 9.72002 35.713 9.79969 35.4604L8.84601 35.1596ZM9.69535 37.0551C11.3345 37.7957 12.9822 38.5558 14.6438 39.2694L15.0384 38.3505C13.3882 37.6419 11.7559 36.8888 10.1071 36.1438L9.69535 37.0551ZM14.6812 39.2837C15.0844 39.4198 15.5281 39.358 15.8789 39.1171L15.3126 38.2928C15.2214 38.3555 15.1059 38.3716 15.001 38.3362L14.6812 39.2837ZM15.9327 39.0744C16.3764 38.6697 16.7689 38.2122 17.1015 37.7122L16.2688 37.1584C15.9814 37.5905 15.6422 37.9858 15.2588 38.3355L15.9327 39.0744ZM17.1031 37.7098C17.3901 37.2727 17.6575 36.8269 17.9183 36.3883C18.1808 35.9469 18.4354 35.5146 18.7041 35.0902L17.8591 34.5553C17.5811 34.9945 17.3178 35.4416 17.0588 35.8772C16.7982 36.3156 16.5407 36.7443 16.2672 37.1609L17.1031 37.7098ZM18.6866 35.116C18.7039 35.0921 18.7313 35.0777 18.7607 35.077L18.7374 34.0773C18.3955 34.0853 18.0771 34.2526 17.8766 34.5296L18.6866 35.116ZM18.6771 35.072C20.7685 35.3763 22.9002 35.2488 24.9405 34.6974L24.6796 33.732C22.7712 34.2478 20.7773 34.367 18.821 34.0824L18.6771 35.072ZM24.9157 34.7034C24.9536 34.6952 24.9932 34.7049 25.0229 34.7297L25.6627 33.9612C25.3964 33.7395 25.0429 33.6527 24.7043 33.726L24.9157 34.7034ZM24.9734 34.6823C25.9323 35.734 26.8721 36.8002 27.8052 37.8775L28.5611 37.2229C27.6244 36.1413 26.6786 35.0683 25.7123 34.0085L24.9734 34.6823ZM27.8056 37.878C28.1142 38.2334 28.455 38.5701 28.9024 38.6483C29.3698 38.7301 29.7903 38.5066 30.1807 38.2369L29.6123 37.4142C29.2401 37.6713 29.1169 37.6707 29.0747 37.6633C29.0126 37.6524 28.8781 37.588 28.5607 37.2224L27.8056 37.878ZM30.1803 38.2371C31.6169 37.2463 33.0442 36.2423 34.4623 35.2251L33.8794 34.4125C32.4664 35.4262 31.0441 36.4266 29.6126 37.4139L30.1803 38.2371ZM34.4607 35.2262C34.7629 35.0112 35.0172 34.7352 35.1065 34.361C35.1955 33.9885 35.0953 33.6253 34.9251 33.2921L34.0345 33.7469C34.1496 33.9722 34.1454 34.0804 34.1339 34.1288C34.1227 34.1755 34.0799 34.2699 33.881 34.4114L34.4607 35.2262ZM34.9233 33.2886C34.596 32.6598 34.2619 32.0353 33.9297 31.4139C33.597 30.7917 33.2661 30.1723 32.9429 29.5496L32.0553 30.0102C32.3818 30.6392 32.7155 31.2638 33.0478 31.8854C33.3806 32.5079 33.712 33.1273 34.0363 33.7503L34.9233 33.2886ZM32.9538 29.5719C32.9479 29.5589 32.9482 29.544 32.9546 29.5313L32.0634 29.0777C31.9186 29.3623 31.9116 29.6975 32.0444 29.9879L32.9538 29.5719ZM32.8973 29.6195C34.2501 27.9522 35.243 26.0228 35.8136 23.9528L34.8495 23.6871C34.3157 25.624 33.3866 27.4293 32.1208 28.9895L32.8973 29.6195ZM35.8221 23.9168C35.8303 23.8753 35.865 23.8444 35.9072 23.8411L35.8294 22.8441C35.3401 22.8823 34.936 23.2416 34.841 23.7231L35.8221 23.9168ZM35.9619 23.8338C37.3509 23.5692 38.74 23.2933 40.129 23.0063L39.9266 22.027C38.5426 22.313 37.1587 22.5878 35.7747 22.8514L35.9619 23.8338ZM40.1305 23.006C40.547 22.9185 40.9961 22.8021 41.2627 22.4479C41.5304 22.0922 41.5177 21.6264 41.4807 21.189L40.4843 21.2733C40.5245 21.7489 40.4733 21.8338 40.4637 21.8465C40.4626 21.848 40.4584 21.8534 40.4454 21.8627C40.4312 21.8728 40.4061 21.8878 40.3632 21.906C40.2725 21.9443 40.1369 21.9828 39.9251 22.0273L40.1305 23.006ZM41.481 21.1919C41.3441 19.4518 41.1853 17.7148 41.0329 15.9821L40.0368 16.0696C40.1895 17.8071 40.3476 19.5363 40.484 21.2704L41.481 21.1919Z" fill="#6A6E7C"/>
<path d="M30.6468 15.7298L31.1187 15.5645L31.1187 15.5644L30.6468 15.7298ZM29.9773 15.3684L30.0878 15.856L30.0887 15.8558L29.9773 15.3684ZM27.9708 15.82L27.8565 15.3331L27.8475 15.3354L27.9708 15.82ZM27.4536 15.624L27.0269 15.8846L27.0302 15.8898L27.4536 15.624ZM26.8539 14.8846L27.197 14.5207L27.1903 14.5147L26.8539 14.8846ZM25.3368 13.6121L25.6488 13.2214L25.6198 13.1982L25.5876 13.1796L25.3368 13.6121ZM25.1719 13.2643L25.6655 13.3438L25.6668 13.3358L25.6678 13.3277L25.1719 13.2643ZM25.2864 12.1138L24.7882 12.0718L24.7882 12.0719L25.2864 12.1138ZM25.3811 10.8167L25.8798 10.8522L25.8827 10.8117L25.879 10.7713L25.3811 10.8167ZM24.4558 10.231L24.5833 9.74756L24.576 9.74564L24.5686 9.74394L24.4558 10.231ZM22.1359 9.69562L22.24 9.20657L22.2371 9.20597L22.1359 9.69562ZM21.5259 10.0616L21.0542 9.89574L21.0539 9.8966L21.5259 10.0616ZM20.8048 12.1535L20.3314 11.9926L20.3198 12.0266L20.3132 12.0618L20.8048 12.1535ZM20.5571 12.3476L20.5857 11.8484L20.5582 11.8468L20.5308 11.8482L20.5571 12.3476ZM17.1531 13.3228L17.3332 13.7893L17.3652 13.7769L17.3952 13.7603L17.1531 13.3228ZM16.8718 13.3027L16.5976 13.7208L16.612 13.7303L16.6271 13.7387L16.8718 13.3027ZM14.8948 11.9693L15.1781 11.5572L15.1766 11.5562L14.8948 11.9693ZM14.1241 12.0813L14.5033 12.4072L14.5062 12.4038L14.1241 12.0813ZM12.3164 14.1724L12.692 14.5024L12.6924 14.502L12.3164 14.1724ZM12.309 15.0019L12.6777 14.6641L12.6749 14.6611L12.309 15.0019ZM13.7785 16.5933L13.4124 16.9339L13.427 16.9495L13.4428 16.9639L13.7785 16.5933ZM13.8263 16.9228L13.3992 16.6629L13.377 16.6993L13.3613 16.739L13.8263 16.9228ZM13.3266 18.3318L12.8396 18.2183L12.838 18.2255L12.8365 18.2327L13.3266 18.3318ZM13.0748 20.0456L12.5769 19.9995L12.5741 20.0296L12.575 20.0599L13.0748 20.0456ZM12.8738 20.35L12.6906 19.8848L12.679 19.8894L12.6677 19.8945L12.8738 20.35ZM10.8076 21.3223L11.022 21.774L11.0242 21.7729L10.8076 21.3223ZM10.4795 22.0925L10.0041 22.2474L10.0043 22.2478L10.4795 22.0925ZM11.3499 24.7152L10.8745 24.87L10.8746 24.8705L11.3499 24.7152ZM12.0265 25.113L12.1293 25.6024L12.1305 25.6021L12.0265 25.113ZM14.1416 24.6633L14.2521 25.1511L14.2649 25.1479L14.1416 24.6633ZM14.4887 24.813L14.0759 25.0952L14.0776 25.0976L14.4887 24.813ZM17.0497 27.189L17.3881 26.8209L17.3488 26.7848L17.3028 26.7578L17.0497 27.189ZM17.1672 27.4703L17.6666 27.4939L17.6668 27.4886L17.1672 27.4703ZM17.0281 29.8247L16.529 29.7946L16.5289 29.7965L17.0281 29.8247ZM17.4974 30.4161L17.4094 30.9083L17.4102 30.9085L17.4974 30.4161ZM20.346 30.9098L20.2681 31.4037L20.2879 31.4068L20.3079 31.4083L20.346 30.9098ZM20.7229 30.7561L21.0989 31.0856L21.1216 31.0597L21.1405 31.031L20.7229 30.7561ZM21.1196 29.9553L21.5914 30.121L21.5923 30.1182L21.1196 29.9553ZM21.602 28.3924L21.1372 28.2081L21.1315 28.2226L21.1266 28.2374L21.602 28.3924ZM21.8117 28.2037L21.7594 27.7064L21.7176 27.7108L21.6771 27.7221L21.8117 28.2037ZM24.9017 27.2177L24.6788 26.7701L24.6674 26.7758L24.6563 26.7821L24.9017 27.2177ZM25.1948 27.2152L25.4698 26.7976L25.4411 26.7787L25.4101 26.7639L25.1948 27.2152ZM27.0874 28.5002L26.8019 28.9106L26.8023 28.9109L27.0874 28.5002ZM28.0107 28.417L27.6341 28.0882L27.6338 28.0885L28.0107 28.417ZM29.8275 26.2974L29.4462 25.974L29.4449 25.9755L29.8275 26.2974ZM29.8164 25.584L30.1919 25.2538L30.1892 25.2509L29.8164 25.584ZM28.2983 23.9089L27.909 24.2226L27.9168 24.2323L27.925 24.2415L28.2983 23.9089ZM28.2408 23.6615L27.7869 23.4519L27.7647 23.5L27.7531 23.5516L28.2408 23.6615ZM28.9797 20.4503L29.4796 20.4602L29.4799 20.4416L29.4789 20.4231L28.9797 20.4503ZM29.1947 20.1324L29.3553 20.6059L29.3814 20.5971L29.4065 20.5854L29.1947 20.1324ZM31.2393 19.1569L31.4581 19.6065L31.4595 19.6058L31.2393 19.1569ZM25.1094 22.7371L25.5391 22.9926L25.5391 22.9926L25.1094 22.7371ZM22.2109 24.9019L22.0876 24.4174L22.3339 25.3865L22.2109 24.9019ZM31.1187 15.5644C31.0441 15.3514 30.9177 15.0866 30.6428 14.9393C30.3719 14.7942 30.0825 14.8315 29.8659 14.881L30.0887 15.8558C30.1625 15.839 30.2 15.8367 30.2144 15.837C30.2244 15.8372 30.2029 15.8381 30.1705 15.8208C30.1376 15.8032 30.1247 15.7833 30.1278 15.7879C30.1338 15.7967 30.1508 15.8263 30.175 15.8951L31.1187 15.5644ZM29.8668 14.8808C29.2084 15.03 28.5252 15.1762 27.8565 15.3332L28.0851 16.3067C28.7517 16.1502 29.4105 16.0095 30.0878 15.856L29.8668 14.8808ZM27.8475 15.3354C27.8314 15.3395 27.8195 15.3419 27.8111 15.3432C27.8028 15.3445 27.799 15.3446 27.7991 15.3446C27.8003 15.3446 27.817 15.3444 27.8414 15.3528C27.853 15.3568 27.8639 15.3619 27.8735 15.3675C27.8829 15.3731 27.8894 15.3783 27.8928 15.3814C27.8992 15.387 27.8929 15.3833 27.8771 15.3582L27.0302 15.8898C27.1372 16.0602 27.2905 16.2211 27.5172 16.2987C27.734 16.373 27.9403 16.3436 28.0941 16.3045L27.8475 15.3354ZM27.8804 15.3634C27.691 15.0534 27.4612 14.77 27.1969 14.5208L26.5108 15.2483C26.7104 15.4365 26.884 15.6505 27.0269 15.8846L27.8804 15.3634ZM27.1903 14.5147C26.6889 14.0586 26.1649 13.6336 25.6488 13.2214L25.0247 14.0028C25.5392 14.4137 26.0415 14.8216 26.5175 15.2544L27.1903 14.5147ZM25.5876 13.1796C25.6451 13.2129 25.6761 13.2782 25.6655 13.3438L24.6782 13.1848C24.6229 13.5282 24.7851 13.8701 25.0859 14.0446L25.5876 13.1796ZM25.6678 13.3277C25.7183 12.9331 25.7524 12.539 25.7846 12.1557L24.7882 12.0719C24.7558 12.4563 24.7233 12.8303 24.6759 13.2008L25.6678 13.3277ZM25.7846 12.1559C25.8214 11.7197 25.8494 11.2796 25.8798 10.8522L24.8823 10.7812C24.8512 11.2189 24.8242 11.6443 24.7882 12.0718L25.7846 12.1559ZM25.879 10.7713C25.8619 10.5838 25.798 10.4106 25.6815 10.2636C25.5696 10.1222 25.4307 10.0322 25.3049 9.97139C25.0816 9.86338 24.7801 9.79946 24.5833 9.74756L24.3283 10.7145C24.4715 10.7523 24.5596 10.7723 24.6671 10.8021C24.7649 10.8292 24.8276 10.8513 24.8696 10.8717C24.9098 10.8911 24.9086 10.8983 24.8975 10.8843C24.882 10.8647 24.882 10.849 24.8831 10.8621L25.879 10.7713ZM24.5686 9.74394C23.8041 9.56687 23.0189 9.37235 22.24 9.20658L22.0318 10.1847C22.7998 10.3481 23.5575 10.5362 24.343 10.7182L24.5686 9.74394ZM22.2371 9.20597C22.0144 9.15994 21.7354 9.14449 21.4799 9.30403C21.2361 9.4563 21.122 9.70284 21.0542 9.89574L21.9976 10.2274C22.0081 10.1975 22.0174 10.1747 22.0254 10.1574C22.0333 10.1401 22.0391 10.1303 22.042 10.1258C22.0471 10.1179 22.038 10.1345 22.0096 10.1523C21.9961 10.1607 21.9825 10.1666 21.9705 10.1704C21.9588 10.174 21.9517 10.1746 21.9513 10.1747C21.9512 10.1747 21.9575 10.1742 21.9719 10.1754C21.9863 10.1767 22.0068 10.1795 22.0347 10.1853L22.2371 9.20597ZM21.0539 9.8966C20.81 10.5946 20.5691 11.2933 20.3314 11.9926L21.2781 12.3145C21.515 11.6178 21.7549 10.9218 21.9979 10.2265L21.0539 9.8966ZM20.3132 12.0618C20.3374 11.9323 20.4541 11.8408 20.5857 11.8484L20.5286 12.8467C20.8994 12.8679 21.2281 12.6103 21.2963 12.2453L20.3132 12.0618ZM20.5308 11.8482C19.2612 11.9152 18.0235 12.2698 16.9111 12.8853L17.3952 13.7603C18.375 13.2182 19.4652 12.9058 20.5835 12.8469L20.5308 11.8482ZM16.973 12.8564C17.02 12.8383 17.0726 12.842 17.1165 12.8666L16.6271 13.7387C16.8432 13.86 17.1021 13.8785 17.3332 13.7893L16.973 12.8564ZM17.146 12.8846C16.486 12.4517 15.8306 12.0059 15.1781 11.5572L14.6115 12.3813C15.2664 12.8315 15.9287 13.282 16.5976 13.7208L17.146 12.8846ZM15.1766 11.5562C14.9899 11.4288 14.7275 11.2856 14.4143 11.3305C14.1039 11.375 13.8898 11.5836 13.742 11.7587L14.5062 12.4038C14.5576 12.3428 14.5881 12.3169 14.6009 12.3076C14.61 12.3011 14.5932 12.3151 14.5562 12.3204C14.5186 12.3258 14.4969 12.317 14.5041 12.3196C14.5162 12.324 14.5497 12.3391 14.613 12.3823L15.1766 11.5562ZM13.7449 11.7553C13.1435 12.4549 12.5468 13.1509 11.9403 13.8428L12.6924 14.502C13.3027 13.8056 13.9033 13.1051 14.5032 12.4072L13.7449 11.7553ZM11.9407 13.8424C11.7807 14.0246 11.6128 14.2703 11.6067 14.5814C11.6003 14.9034 11.7682 15.1549 11.9432 15.3427L12.6749 14.6611C12.6259 14.6085 12.6078 14.5781 12.6025 14.5674C12.5993 14.561 12.607 14.5749 12.6065 14.6011C12.606 14.6259 12.5987 14.6339 12.607 14.6176C12.6168 14.5983 12.6404 14.5612 12.692 14.5024L11.9407 13.8424ZM11.9404 15.3396C12.428 15.8718 12.9187 16.4032 13.4124 16.9339L14.1445 16.2527C13.6525 15.7239 13.1636 15.1944 12.6777 14.6641L11.9404 15.3396ZM13.4428 16.9639C13.358 16.887 13.3396 16.7607 13.3992 16.6629L14.2534 17.1828C14.4433 16.8707 14.3848 16.4679 14.1141 16.2227L13.4428 16.9639ZM13.3613 16.739C13.1882 17.1767 12.9627 17.6899 12.8396 18.2183L13.8136 18.4452C13.9149 18.0103 14.0976 17.5964 14.2913 17.1067L13.3613 16.739ZM12.8365 18.2327C12.7185 18.8166 12.6318 19.4064 12.5769 19.9995L13.5727 20.0916C13.6243 19.5341 13.7057 18.9797 13.8167 18.4309L12.8365 18.2327ZM12.575 20.0599C12.5728 19.983 12.619 19.913 12.6906 19.8848L13.0571 20.8152C13.3775 20.689 13.5844 20.3755 13.5746 20.0313L12.575 20.0599ZM12.6677 19.8945C11.9676 20.2113 11.2719 20.5445 10.5911 20.8716L11.0242 21.7729C11.7055 21.4456 12.3917 21.1171 13.08 20.8055L12.6677 19.8945ZM10.5933 20.8705C10.4805 20.9241 10.3618 20.9853 10.2594 21.0605C10.1519 21.1395 10.0383 21.251 9.96835 21.4134C9.89845 21.5756 9.89509 21.7349 9.91148 21.8681C9.92714 21.9954 9.96441 22.1255 10.0041 22.2474L10.9549 21.9376C10.9199 21.8302 10.9075 21.7745 10.904 21.746C10.9012 21.7235 10.9092 21.7569 10.8867 21.8092C10.8641 21.8616 10.8339 21.8793 10.8513 21.8665C10.8738 21.85 10.9214 21.8217 11.022 21.774L10.5933 20.8705ZM10.0043 22.2478C10.3031 23.1623 10.58 23.9651 10.8745 24.87L11.8254 24.5605C11.5495 23.7129 11.2284 22.7746 10.9548 21.9372L10.0043 22.2478ZM10.8746 24.8705C10.9449 25.0856 11.0636 25.3564 11.3308 25.516C11.6021 25.6782 11.8993 25.6506 12.1293 25.6024L11.9238 24.6237C11.8491 24.6394 11.8122 24.6402 11.7994 24.6396C11.7916 24.6391 11.8132 24.6394 11.8437 24.6576C11.8735 24.6754 11.8824 24.693 11.8761 24.6829C11.8675 24.6691 11.8493 24.6339 11.8252 24.56L10.8746 24.8705ZM12.1305 25.6021C12.8267 25.4541 13.5463 25.3108 14.252 25.151L14.0312 24.1757C13.3329 24.3338 12.637 24.472 11.9225 24.624L12.1305 25.6021ZM14.2649 25.1479C14.2741 25.1455 14.2615 25.15 14.2339 25.1488C14.2029 25.1475 14.1649 25.1395 14.127 25.1211C14.0911 25.1037 14.0702 25.0842 14.0634 25.0773C14.0581 25.0719 14.0617 25.0744 14.0759 25.0952L14.9015 24.5309C14.8431 24.4455 14.7385 24.3062 14.5633 24.2213C14.3694 24.1272 14.1758 24.1387 14.0183 24.1788L14.2649 25.1479ZM14.0776 25.0976C14.7897 26.1263 15.7177 26.9871 16.7967 27.6203L17.3028 26.7578C16.3492 26.1983 15.5291 25.4375 14.8998 24.5284L14.0776 25.0976ZM16.7114 27.5572C16.6821 27.5302 16.666 27.4918 16.6675 27.452L17.6668 27.4886C17.6761 27.236 17.5742 26.992 17.3881 26.8209L16.7114 27.5572ZM16.6677 27.4468C16.6309 28.2282 16.5767 29.0043 16.529 29.7946L17.5272 29.8548C17.5741 29.0772 17.6294 28.2838 17.6666 27.4939L16.6677 27.4468ZM16.5289 29.7965C16.5154 30.0364 16.551 30.31 16.7333 30.5396C16.9152 30.7688 17.1732 30.8661 17.4094 30.9083L17.5854 29.9239C17.5317 29.9143 17.5062 29.9036 17.4982 29.8996C17.4927 29.8969 17.5035 29.9015 17.5166 29.9179C17.5297 29.9344 17.5319 29.9464 17.5307 29.9412C17.5288 29.9332 17.5243 29.9067 17.5273 29.8529L16.5289 29.7965ZM17.4102 30.9085C18.354 31.0755 19.311 31.2527 20.2681 31.4037L20.4239 30.4159C19.4791 30.2669 18.5387 30.0927 17.5846 29.9238L17.4102 30.9085ZM20.3079 31.4083C20.6076 31.4313 20.9007 31.3117 21.0989 31.0856L20.3469 30.4265C20.3562 30.4158 20.37 30.4102 20.3842 30.4113L20.3079 31.4083ZM21.1405 31.031C21.3273 30.7472 21.4788 30.4416 21.5914 30.121L20.6479 29.7895C20.5623 30.0332 20.4472 30.2654 20.3052 30.4811L21.1405 31.031ZM21.5923 30.1182C21.6852 29.8487 21.7662 29.5782 21.8435 29.3167C21.9217 29.0522 21.9954 28.7987 22.0774 28.5474L21.1266 28.2374C21.0393 28.5053 20.9608 28.7753 20.8845 29.0334C20.8073 29.2946 20.7318 29.546 20.6469 29.7923L21.5923 30.1182ZM22.0668 28.5767C22.0458 28.6297 22.0012 28.6699 21.9462 28.6852L21.6771 27.7221C21.4311 27.7909 21.2313 27.9707 21.1372 28.2081L22.0668 28.5767ZM21.8639 28.7009C23.0184 28.5797 24.1358 28.2231 25.1472 27.6533L24.6563 26.7821C23.764 27.2848 22.7781 27.5994 21.7594 27.7064L21.8639 28.7009ZM25.1247 27.6652C25.0791 27.6879 25.0255 27.6884 24.9795 27.6664L25.4101 26.7639C25.1783 26.6533 24.9086 26.6556 24.6788 26.7701L25.1247 27.6652ZM24.9198 27.6328C25.5526 28.0495 26.178 28.4765 26.8019 28.9106L27.373 28.0898C26.7445 27.6524 26.1118 27.2204 25.4698 26.7976L24.9198 27.6328ZM26.8023 28.9109C27.0063 29.0525 27.2893 29.2315 27.6221 29.2062C27.9751 29.1793 28.2176 28.9406 28.3876 28.7456L27.6338 28.0885C27.5638 28.1688 27.5229 28.2038 27.5027 28.2178C27.4888 28.2275 27.5067 28.2121 27.5462 28.2091C27.5822 28.2063 27.5934 28.2174 27.5615 28.2036C27.5257 28.1881 27.4677 28.1555 27.3725 28.0894L26.8023 28.9109ZM28.3873 28.7459C29.0015 28.0427 29.6091 27.3338 30.2102 26.6193L29.4449 25.9755C28.8478 26.6853 28.2442 27.3895 27.6341 28.0882L28.3873 28.7459ZM30.2089 26.6208C30.3561 26.4472 30.4887 26.2176 30.4845 25.9337C30.4804 25.6515 30.3425 25.4251 30.1918 25.2538L29.4409 25.9142C29.4747 25.9527 29.4867 25.9745 29.4895 25.9806C29.4912 25.9842 29.485 25.9718 29.4846 25.9484C29.4845 25.9378 29.4857 25.9284 29.4872 25.9212C29.4888 25.9142 29.4902 25.9112 29.4896 25.9126C29.4878 25.9167 29.4777 25.9369 29.4462 25.974L30.2089 26.6208ZM30.1892 25.2509C29.9359 24.9674 29.6798 24.6871 29.4262 24.4094C29.1719 24.1309 28.9199 23.8549 28.6716 23.5763L27.925 24.2415C28.178 24.5254 28.4339 24.8058 28.6878 25.0837C28.9423 25.3624 29.1945 25.6384 29.4435 25.9171L30.1892 25.2509ZM28.6877 23.5952C28.7275 23.6446 28.7426 23.7095 28.7286 23.7714L27.7531 23.5516C27.7 23.7873 27.7574 24.0344 27.909 24.2226L28.6877 23.5952ZM28.6948 23.871C29.189 22.8004 29.4562 21.6391 29.4796 20.4602L28.4798 20.4404C28.4591 21.4813 28.2232 22.5067 27.7869 23.4519L28.6948 23.871ZM29.4789 20.4231C29.4834 20.5049 29.4328 20.5796 29.3553 20.6059L29.0341 19.6589C28.6869 19.7767 28.4605 20.1113 28.4804 20.4774L29.4789 20.4231ZM29.4065 20.5854C30.0918 20.2649 30.7757 19.9386 31.4581 19.6065L31.0205 18.7073C30.3428 19.0372 29.6636 19.3612 28.9829 19.6795L29.4065 20.5854ZM31.4595 19.6058C31.6541 19.5103 31.9548 19.3584 32.0844 19.0485C32.2147 18.7369 32.1105 18.4151 32.0367 18.202L31.0918 18.5293C31.1289 18.6364 31.1421 18.6925 31.146 18.7212C31.149 18.7438 31.141 18.7126 31.1618 18.6627C31.1826 18.6131 31.2102 18.597 31.1917 18.6111C31.1683 18.6288 31.1197 18.6587 31.0191 18.708L31.4595 19.6058ZM32.0376 18.2047C31.7371 17.3206 31.4255 16.4405 31.1187 15.5645L30.1749 15.895C30.4832 16.7754 30.7922 17.6481 31.0908 18.5266L32.0376 18.2047ZM16.9504 21.3632C16.3748 19.101 17.7421 16.8005 20.0043 16.225L19.7577 15.2558C16.9603 15.9676 15.2695 18.8123 15.9813 21.6098L16.9504 21.3632ZM20.0043 16.225C22.2665 15.6494 24.567 17.0167 25.1425 19.2789L26.1116 19.0323C25.3999 16.2349 22.5551 14.5441 19.7577 15.2558L20.0043 16.225ZM25.1425 19.2789C25.4192 20.3663 25.2526 21.518 24.6796 22.4815L25.5391 22.9926C26.2477 21.801 26.4537 20.3768 26.1116 19.0323L25.1425 19.2789ZM24.6796 22.4815C24.1067 23.445 23.1743 24.1414 22.0878 24.4173L22.3339 25.3865C23.6776 25.0453 24.8306 24.1842 25.5391 22.9926L24.6796 22.4815ZM22.3342 25.3865L22.3352 25.3862L22.0886 24.4171L22.0876 24.4174L22.3342 25.3865ZM22.0886 24.4171C19.8264 24.9927 17.526 23.6254 16.9504 21.3632L15.9813 21.6098C16.693 24.4072 19.5378 26.098 22.3352 25.3862L22.0886 24.4171Z" fill="#FA5A28"/>
</svg>
