<svg width="35" height="35" viewBox="0 0 35 35" fill="none" xmlns="http://www.w3.org/2000/svg">
<path fill-rule="evenodd" clip-rule="evenodd" d="M0.546875 15.3125C0.401835 15.3125 0.262735 15.2549 0.160176 15.1523C0.057617 15.0498 0 14.9107 0 14.7656V0.546875C0 0.401835 0.057617 0.262735 0.160176 0.160176C0.262735 0.057617 0.401835 0 0.546875 0H14.7656C14.9107 0 15.0498 0.057617 15.1523 0.160176C15.2549 0.262735 15.3125 0.401835 15.3125 0.546875V14.7656C15.3125 14.9107 15.2549 15.0498 15.1523 15.1523C15.0498 15.2549 14.9107 15.3125 14.7656 15.3125H0.546875ZM14.2188 14.2188V1.09375H1.09375V14.2188H14.2188Z" fill="#6A6E7C"/>
<path d="M6.58707 11.0524L2.34879 6.80868C2.25919 6.70406 2.21238 6.56949 2.21769 6.43186C2.22301 6.29422 2.28007 6.16366 2.37746 6.06626C2.47486 5.96887 2.60542 5.91181 2.74305 5.9065C2.88069 5.90118 3.01526 5.948 3.11988 6.03759L6.97261 9.89032L12.1925 4.6704C12.2424 4.61559 12.3028 4.57148 12.3702 4.54075C12.4376 4.51001 12.5106 4.49329 12.5846 4.4916C12.6587 4.48991 12.7323 4.50328 12.8011 4.53091C12.8698 4.55854 12.9322 4.59984 12.9845 4.65232C13.0368 4.70479 13.0779 4.76735 13.1053 4.83618C13.1327 4.90501 13.1458 4.97869 13.1438 5.05275C13.1419 5.12681 13.1249 5.19969 13.0939 5.26699C13.0629 5.33428 13.0186 5.39458 12.9636 5.44423L7.36089 11.0497C7.31002 11.1009 7.24952 11.1415 7.18288 11.1692C7.11624 11.1969 7.04478 11.2111 6.97261 11.211C6.8282 11.2111 6.6896 11.1541 6.58707 11.0524Z" fill="#FA5A28"/>
<path d="M18.5938 6.5625C18.4487 6.5625 18.3096 6.50488 18.2071 6.40232C18.1045 6.29976 18.0469 6.16067 18.0469 6.01562C18.0469 5.87058 18.1045 5.73149 18.2071 5.62893C18.3096 5.52637 18.4487 5.46875 18.5938 5.46875H34.4531C34.5982 5.46875 34.7373 5.52637 34.8398 5.62893C34.9424 5.73149 35 5.87058 35 6.01562C35 6.16067 34.9424 6.29976 34.8398 6.40232C34.7373 6.50488 34.5982 6.5625 34.4531 6.5625H18.5938Z" fill="#6A6E7C"/>
<path fill-rule="evenodd" clip-rule="evenodd" d="M0.546875 35C0.401835 35 0.262735 34.9424 0.160176 34.8398C0.057617 34.7373 0 34.5982 0 34.4531V20.2344C0 20.0893 0.057617 19.9502 0.160176 19.8477C0.262735 19.7451 0.401835 19.6875 0.546875 19.6875H14.7656C14.9107 19.6875 15.0498 19.7451 15.1523 19.8477C15.2549 19.9502 15.3125 20.0893 15.3125 20.2344V34.4531C15.3125 34.5982 15.2549 34.7373 15.1523 34.8398C15.0498 34.9424 14.9107 35 14.7656 35H0.546875ZM14.2188 33.9062V20.7812H1.09375V33.9062H14.2188Z" fill="#6A6E7C"/>
<path d="M6.58707 30.7398L2.34879 26.4961C2.25919 26.3914 2.21238 26.2569 2.21769 26.1192C2.22301 25.9816 2.28007 25.851 2.37746 25.7536C2.47486 25.6562 2.60542 25.5992 2.74305 25.5939C2.88069 25.5886 3.01526 25.6354 3.11988 25.725L6.97261 29.5777L12.1925 24.3578C12.2967 24.2637 12.4331 24.2133 12.5735 24.217C12.7138 24.2207 12.8473 24.2782 12.9464 24.3777C13.0455 24.4771 13.1026 24.6108 13.1058 24.7512C13.109 24.8915 13.0581 25.0277 12.9636 25.1316L7.36089 30.7371C7.31002 30.7883 7.24952 30.8289 7.18288 30.8565C7.11624 30.8842 7.04478 30.8985 6.97261 30.8984C6.8282 30.8985 6.6896 30.8415 6.58707 30.7398Z" fill="#FA5A28"/>
<path d="M18.5938 9.84375C18.4487 9.84375 18.3096 9.78613 18.2071 9.68357C18.1045 9.58102 18.0469 9.44192 18.0469 9.29688C18.0469 9.15183 18.1045 9.01273 18.2071 8.91018C18.3096 8.80762 18.4487 8.75 18.5938 8.75H29.2578C29.4029 8.75 29.542 8.80762 29.6445 8.91018C29.7471 9.01273 29.8047 9.15183 29.8047 9.29688C29.8047 9.44192 29.7471 9.58102 29.6445 9.68357C29.542 9.78613 29.4029 9.84375 29.2578 9.84375H18.5938Z" fill="#6A6E7C"/>
<path d="M18.5938 26.25C18.4487 26.25 18.3096 26.1924 18.2071 26.0898C18.1045 25.9873 18.0469 25.8482 18.0469 25.7031C18.0469 25.5581 18.1045 25.419 18.2071 25.3164C18.3096 25.2139 18.4487 25.1562 18.5938 25.1562H34.4531C34.5982 25.1562 34.7373 25.2139 34.8398 25.3164C34.9424 25.419 35 25.5581 35 25.7031C35 25.8482 34.9424 25.9873 34.8398 26.0898C34.7373 26.1924 34.5982 26.25 34.4531 26.25H18.5938Z" fill="#6A6E7C"/>
<path d="M18.5938 29.5312C18.4487 29.5312 18.3096 29.4736 18.2071 29.3711C18.1045 29.2685 18.0469 29.1294 18.0469 28.9844C18.0469 28.8393 18.1045 28.7002 18.2071 28.5977C18.3096 28.4951 18.4487 28.4375 18.5938 28.4375H31.7188C31.8638 28.4375 32.0029 28.4951 32.1054 28.5977C32.208 28.7002 32.2656 28.8393 32.2656 28.9844C32.2656 29.1294 32.208 29.2685 32.1054 29.3711C32.0029 29.4736 31.8638 29.5312 31.7188 29.5312H18.5938Z" fill="#6A6E7C"/>
</svg>
