<svg width="39" height="37" viewBox="0 0 39 37" fill="none" xmlns="http://www.w3.org/2000/svg">
<path fill-rule="evenodd" clip-rule="evenodd" d="M5 10C4.44772 10 4 10.4477 4 11V30C4 30.5523 4.44772 31 5 31H34C34.5523 31 35 30.5523 35 30V11C35 10.4477 34.5523 10 34 10H5ZM3 11V30C3 31.1046 3.89543 32 5 32H34C35.1046 32 36 31.1046 36 30V11C36 9.89543 35.1046 9 34 9H5C3.89543 9 3 9.89543 3 11Z" fill="#6A6E7C"/>
<path d="M4 14V14V26V26C1.79086 26 0 24.2091 0 22V18C0 15.7909 1.79086 14 4 14Z" fill="white"/>
<path fill-rule="evenodd" clip-rule="evenodd" d="M4 14C3.6547 14 3.31962 14.0438 3 14.126C1.27477 14.5701 0 16.1362 0 18V22C0 23.8638 1.27477 25.4299 3 25.874C3.31962 25.9562 3.6547 26 4 26V14ZM3 15.1707C1.83481 15.5825 1 16.6938 1 18V22C1 23.3062 1.83481 24.4175 3 24.8293V15.1707Z" fill="#6A6E7C"/>
<path d="M35 14V14V26V26C37.2091 26 39 24.2091 39 22V18C39 15.7909 37.2091 14 35 14Z" fill="white"/>
<path fill-rule="evenodd" clip-rule="evenodd" d="M35 14C35.3453 14 35.6804 14.0438 36 14.126C37.7252 14.5701 39 16.1362 39 18V22C39 23.8638 37.7252 25.4299 36 25.874C35.6804 25.9562 35.3453 26 35 26V14ZM36 15.1707C37.1652 15.5825 38 16.6938 38 18V22C38 23.3062 37.1652 24.4175 36 24.8293V15.1707Z" fill="#6A6E7C"/>
<path d="M13.7681 21.4494C11.9272 21.4494 10.4348 19.957 10.4348 18.116C10.4348 16.2751 11.9272 14.7827 13.7681 14.7827C15.6091 14.7827 17.1015 16.2751 17.1015 18.116C17.1015 19.957 15.6091 21.4494 13.7681 21.4494Z" fill="white"/>
<path fill-rule="evenodd" clip-rule="evenodd" d="M16.1015 18.116C16.1015 16.8274 15.0568 15.7827 13.7681 15.7827C12.4795 15.7827 11.4348 16.8274 11.4348 18.116C11.4348 19.4047 12.4795 20.4494 13.7681 20.4494C15.0568 20.4494 16.1015 19.4047 16.1015 18.116ZM17.1015 18.116C17.1015 16.2751 15.6091 14.7827 13.7681 14.7827C11.9272 14.7827 10.4348 16.2751 10.4348 18.116C10.4348 19.957 11.9272 21.4494 13.7681 21.4494C15.6091 21.4494 17.1015 19.957 17.1015 18.116Z" fill="#FA5A28"/>
<path d="M26.2318 21.4494C24.3908 21.4494 22.8984 19.957 22.8984 18.116C22.8984 16.2751 24.3908 14.7827 26.2318 14.7827C28.0727 14.7827 29.5651 16.2751 29.5651 18.116C29.5651 19.957 28.0727 21.4494 26.2318 21.4494Z" fill="white"/>
<path fill-rule="evenodd" clip-rule="evenodd" d="M28.5651 18.116C28.5651 16.8274 27.5204 15.7827 26.2318 15.7827C24.9431 15.7827 23.8984 16.8274 23.8984 18.116C23.8984 19.4047 24.9431 20.4494 26.2318 20.4494C27.5204 20.4494 28.5651 19.4047 28.5651 18.116ZM29.5651 18.116C29.5651 16.2751 28.0727 14.7827 26.2318 14.7827C24.3908 14.7827 22.8984 16.2751 22.8984 18.116C22.8984 19.957 24.3908 21.4494 26.2318 21.4494C28.0727 21.4494 29.5651 19.957 29.5651 18.116Z" fill="#FA5A28"/>
<path fill-rule="evenodd" clip-rule="evenodd" d="M9.92041 9.13036H8.92041V4.49268H9.92041V9.13036Z" fill="#6A6E7C"/>
<path fill-rule="evenodd" clip-rule="evenodd" d="M16.7319 36.5217H15.7319V31.884H16.7319V36.5217Z" fill="#6A6E7C"/>
<path fill-rule="evenodd" clip-rule="evenodd" d="M24.5579 36.5217H23.5579V31.884H24.5579V36.5217Z" fill="#6A6E7C"/>
<path fill-rule="evenodd" clip-rule="evenodd" d="M30.2102 9.13036H29.2102V4.49268H30.2102V9.13036Z" fill="#6A6E7C"/>
<path d="M9.42031 4.92754C8.05961 4.92754 6.95654 3.82447 6.95654 2.46377C6.95654 1.10307 8.05961 0 9.42031 0C10.781 0 11.8841 1.10307 11.8841 2.46377C11.8841 3.82447 10.781 4.92754 9.42031 4.92754Z" fill="white"/>
<path fill-rule="evenodd" clip-rule="evenodd" d="M10.8841 2.46377C10.8841 1.65535 10.2287 1 9.42031 1C8.61189 1 7.95654 1.65535 7.95654 2.46377C7.95654 3.27218 8.61189 3.92754 9.42031 3.92754C10.2287 3.92754 10.8841 3.27218 10.8841 2.46377ZM11.8841 2.46377C11.8841 1.10307 10.781 0 9.42031 0C8.05961 0 6.95654 1.10307 6.95654 2.46377C6.95654 3.82447 8.05961 4.92754 9.42031 4.92754C10.781 4.92754 11.8841 3.82447 11.8841 2.46377Z" fill="#6A6E7C"/>
<path d="M29.7101 4.92754C28.3494 4.92754 27.2463 3.82447 27.2463 2.46377C27.2463 1.10307 28.3494 0 29.7101 0C31.0708 0 32.1739 1.10307 32.1739 2.46377C32.1739 3.82447 31.0708 4.92754 29.7101 4.92754Z" fill="white"/>
<path fill-rule="evenodd" clip-rule="evenodd" d="M31.1739 2.46377C31.1739 1.65535 30.5185 1 29.7101 1C28.9017 1 28.2463 1.65535 28.2463 2.46377C28.2463 3.27218 28.9017 3.92754 29.7101 3.92754C30.5185 3.92754 31.1739 3.27218 31.1739 2.46377ZM32.1739 2.46377C32.1739 1.10307 31.0708 0 29.7101 0C28.3494 0 27.2463 1.10307 27.2463 2.46377C27.2463 3.82447 28.3494 4.92754 29.7101 4.92754C31.0708 4.92754 32.1739 3.82447 32.1739 2.46377Z" fill="#6A6E7C"/>
<path fill-rule="evenodd" clip-rule="evenodd" d="M12.3188 27.3115V26.3115H27.6812V27.3115H12.3188Z" fill="#6A6E7C"/>
</svg>
