<svg width="14" height="10" viewBox="0 0 14 10" fill="none" xmlns="http://www.w3.org/2000/svg">
<path fill-rule="evenodd" clip-rule="evenodd" d="M9.68034 9.2769L13.3281 5.19845C13.4427 5.07048 13.5 4.90234 13.5 4.73455C13.5 4.56676 13.4427 4.39864 13.3281 4.2705L9.68034 0.19204C9.45187 -0.0632172 9.08164 -0.0642414 8.85225 0.190329C8.62258 0.444913 8.62043 0.854378 8.84705 1.11168L11.4527 4.06972L1.08681 4.0697C0.762674 4.0697 0.5 4.37158 0.5 4.73382C0.5 5.0962 0.762674 5.39793 1.08681 5.39793L11.4964 5.39794L8.85053 8.35275C8.62134 8.60903 8.62134 9.02061 8.85053 9.27689C9.07963 9.53319 9.45124 9.53319 9.68034 9.2769Z" fill="#000E1A"/>
</svg>
