<svg width="86" height="26" viewBox="0 0 86 26" fill="none" xmlns="http://www.w3.org/2000/svg">
<path fill-rule="evenodd" clip-rule="evenodd" d="M62.674 18.0611V9.97062H60.8555V18.0611H62.674ZM79.0255 9.96119C79.0255 11.5583 79.0293 13.0758 79.0236 14.5932C79.0181 15.6018 78.2886 16.3115 77.2844 16.3025C76.271 16.2952 75.801 15.79 75.7937 14.6674C75.7844 13.3401 75.7937 12.0111 75.7882 10.6837C75.7863 10.4429 75.7458 10.202 75.7237 9.97212H73.9476C73.9163 10.0446 73.8848 10.0825 73.8848 10.1205C73.8793 12.0165 73.8481 13.9159 73.8848 15.8117C73.9033 16.7352 74.3455 17.4577 75.2722 17.8453C76.2212 17.2241 77.2714 17.2786 78.3235 17.4053C79.1821 17.5103 80.0223 17.4524 80.9454 17.2695C80.9381 14.825 80.9656 12.3985 80.927 9.96119H79.0255ZM70.8308 10.1733C70.0717 9.82926 69.2628 9.68069 68.452 9.86908C67.7813 10.0247 67.1421 10.3091 66.4695 10.5445C66.1784 10.2963 65.845 10.014 65.4802 9.70069C65.025 10.1027 64.6308 10.4486 64.2383 10.7943C65.0785 11.8301 65.0785 11.8301 65.0785 13.1791C65.0785 14.5697 65.0785 15.9623 65.0804 17.3529C65.0804 17.5774 65.1005 17.8038 65.1135 18.0572H66.9892V13.525C66.9892 12.54 67.5125 11.879 68.489 11.6309C69.6314 11.3412 70.2284 11.7849 70.232 12.9401C70.2374 14.4141 70.232 15.8899 70.2357 17.3656C70.2357 17.5902 70.2578 17.8147 70.2706 18.0428H72.1169C72.1169 15.9532 72.1538 13.9107 72.1003 11.8699C72.0782 11.084 71.566 10.5064 70.8308 10.1733ZM48.6981 12.8673C47.7769 13.7781 46.6326 13.3923 45.5547 13.454C45.6322 12.3295 46.5295 11.4712 47.4986 11.5364C48.4087 11.5979 48.7607 11.9601 48.6981 12.8673ZM48.8596 16.1868C48.2074 16.4421 47.5312 16.5163 46.8384 16.3787C46.1494 16.2429 45.8176 15.9187 45.6868 15.2034C46.0793 15.2034 46.4589 15.2017 46.8365 15.2034C47.7284 15.2125 48.5944 15.0895 49.3903 14.673C51.0173 13.8201 51.2181 11.6127 49.746 10.5552C48.1853 9.43256 45.8563 9.52852 44.5077 11.1058C43.498 12.2882 43.3008 13.6715 43.5421 15.1528C43.7412 16.3624 44.3768 17.2768 45.4842 17.8219C47.0576 18.5968 49.7017 18.1857 51.0763 16.9654C50.7685 16.5271 50.4571 16.0836 50.1494 15.6417C49.6832 15.8409 49.276 16.0256 48.8596 16.1868ZM81.6876 12.8621C81.5677 12.8784 81.4572 12.9527 81.3209 13.0107V14.854C81.5734 14.8142 81.7815 14.7653 81.9915 14.7527C82.5185 14.7201 83.0345 15.0007 83.2224 15.4044C83.4343 15.8572 83.3127 16.5036 82.9073 16.8532C82.7027 17.0288 82.4595 17.2063 82.2035 17.2732C81.5881 17.4343 80.9579 17.6081 80.326 17.6335C79.1706 17.6824 78.01 17.6081 76.8529 17.6426C75.9168 17.6716 75.036 18.1424 74.5497 18.9283C73.7057 20.2935 74.102 22.1876 75.3769 23.1074C76.6152 24.0001 78.4613 23.8408 79.5576 22.7326C80.348 21.9341 80.6889 20.9382 80.8676 19.7938H78.9348C78.8684 20.0002 78.8096 20.2447 78.7137 20.4746C78.6087 20.7262 78.5001 20.9834 78.3453 21.2062C77.9619 21.7566 77.2729 21.9376 76.6998 21.6716C76.2466 21.4615 75.948 20.8513 76.0476 20.3388C76.1692 19.7104 76.4972 19.4878 77.33 19.4859C78.5091 19.4824 79.6884 19.5222 80.8659 19.4841C82.045 19.4442 83.1469 19.1111 84.0883 18.3795C85.1993 17.5177 85.579 15.9567 85.0095 14.6639C84.4845 13.4724 83.0253 12.6774 81.6876 12.8621ZM55.2825 16.4419C54.9195 16.4401 54.5566 16.3839 54.0866 16.3441C54.0866 15.0784 54.0388 13.8579 54.107 12.643C54.1402 12.04 54.6744 11.705 55.229 11.5492C55.8758 11.3664 56.5114 11.4188 57.0181 11.9368C57.8804 12.8221 57.9781 14.6673 57.2208 15.647C56.729 16.2826 56.036 16.4455 55.2825 16.4419ZM55.538 9.68414C55.0754 9.7112 54.6203 9.85791 54.0842 9.96665V6.54248H52.1367V17.7674C53.0101 18.0661 54.7806 18.2834 55.667 18.2128C57.7858 18.0444 59.1272 16.9923 59.5418 15.0421C59.6892 14.3559 59.6965 13.608 59.5933 12.9127C59.2856 10.8194 57.6734 9.56095 55.538 9.68414ZM39.7817 14.4375H39.6103C39.0723 12.9418 38.5324 11.4479 37.9944 9.95582H36.3159C35.7706 11.4642 35.2307 12.958 34.6908 14.4538H34.5341C33.9871 12.9435 33.4398 11.4335 32.9109 9.97582H30.9062C31.881 12.719 32.8317 15.3936 33.7825 18.068H35.4371L37.0751 13.5428H37.2409C37.7882 15.0603 38.3335 16.5796 38.8697 18.0643H40.528C41.4824 15.379 42.4331 12.7027 43.4041 9.96842H41.3976C40.8615 11.4551 40.3216 12.9454 39.7817 14.4375Z" fill="#FA5A28"/>
<path fill-rule="evenodd" clip-rule="evenodd" d="M12.859 25.6281C12.0248 26.1142 10.9971 26.1142 10.1629 25.6281L1.34806 20.4907C0.513855 20.0044 0 19.1061 0 18.1338V7.85899C0 6.88665 0.513855 5.98816 1.34806 5.50206L10.1629 0.364684C10.9971 -0.121561 12.0248 -0.121561 12.859 0.364684L21.6737 5.50206C22.5079 5.98816 23.0218 6.88665 23.0218 7.85899V18.1338C23.0218 19.1061 22.5079 20.0044 21.6737 20.4907L12.859 25.6281ZM14.8464 14.3227H14.6351C13.9717 12.4284 13.3061 10.5362 12.6426 8.64648H10.5729C9.90032 10.5569 9.23469 12.449 8.56905 14.3435H8.37583C7.7011 12.4306 7.02636 10.518 6.3742 8.67167H3.90234C5.1043 12.1462 6.27659 15.5337 7.44887 18.9211H9.4891L11.5089 13.1897H11.7135C12.3882 15.1117 13.0607 17.036 13.7218 18.9165H15.7666C16.9435 15.5153 18.1157 12.1256 19.3132 8.66249H16.8389C16.1778 10.5454 15.512 12.433 14.8464 14.3227Z" fill="#FA5A28"/>
</svg>
