<svg width="238" height="197" viewBox="0 0 238 197" fill="none" xmlns="http://www.w3.org/2000/svg">
<path fill-rule="evenodd" clip-rule="evenodd" d="M106.417 170.874C106.417 185.302 94.7206 196.998 80.2927 196.998C65.8648 196.998 54.1687 185.302 54.1687 170.874C54.1687 156.446 65.8648 144.75 80.2927 144.75C94.7206 144.75 106.417 156.446 106.417 170.874Z" fill="#F2F2F2"/>
<path fill-rule="evenodd" clip-rule="evenodd" d="M113.601 26.6509C113.601 41.0788 101.905 52.7749 87.4768 52.7749C73.0489 52.7749 61.3528 41.0788 61.3528 26.6509C61.3528 12.223 73.0489 0.526855 87.4768 0.526855C101.905 0.526855 113.601 12.223 113.601 26.6509Z" fill="#F2F2F2"/>
<path fill-rule="evenodd" clip-rule="evenodd" d="M0.110718 115.517V114.577C0.110718 110.236 1.64558 106.53 4.71531 103.46C7.78504 100.391 11.4905 98.8557 15.8318 98.8557H122.441C126.782 98.8557 130.488 100.391 133.557 103.46C136.627 106.53 138.162 110.236 138.162 114.577V116.457C138.162 120.798 136.627 124.503 133.558 127.573C130.488 130.643 126.782 132.178 122.441 132.178H15.8318C11.4905 132.178 7.78504 130.643 4.71531 127.573C1.64558 124.503 0.110718 120.798 0.110718 116.457V115.517Z" fill="#F2F2F2"/>
<path fill-rule="evenodd" clip-rule="evenodd" d="M237.186 82.8593C237.187 87.2305 234.556 91.1713 230.519 92.8447C226.482 94.5181 221.834 93.5945 218.743 90.5046C215.652 87.4147 214.728 82.7672 216.4 78.7296C218.072 74.6919 222.012 72.0594 226.383 72.0598C232.348 72.0603 237.183 76.8945 237.186 82.8593H237.186Z" fill="#F2F2F2"/>
<path fill-rule="evenodd" clip-rule="evenodd" d="M125.515 101.309H188.026C187.586 66.9692 159.855 39.2382 125.515 38.7983L125.515 101.309Z" fill="#F94F24"/>
<path fill-rule="evenodd" clip-rule="evenodd" d="M190.079 103.32H123.509V36.7505L125.543 36.7738C160.984 37.2239 189.603 65.8458 190.051 101.286L190.079 103.32ZM127.526 99.2986H185.974C184.517 67.6424 159.182 42.3093 127.526 40.8555L127.526 99.2986Z" fill="#F94F24"/>
<path fill-rule="evenodd" clip-rule="evenodd" d="M123.911 102.919V38.7844C89.1416 39.2226 61.2273 67.6092 61.3725 102.381C61.5177 137.152 89.6682 165.304 124.44 165.452C159.211 165.6 187.6 137.688 188.04 102.919L123.911 102.919Z" fill="url(#paint0_linear)"/>
<path fill-rule="evenodd" clip-rule="evenodd" d="M124.713 38.7751C150.333 38.7733 173.431 54.2052 183.236 77.8747C193.042 101.544 187.623 128.79 169.507 146.906C151.39 165.022 124.145 170.441 100.476 160.635C76.8062 150.83 61.3742 127.732 61.3761 102.112C61.3761 67.1377 89.7293 38.7803 124.708 38.7751M124.713 31.5396C91.046 31.5458 62.0715 55.3323 55.5079 88.3532C48.9442 121.374 66.6195 154.433 97.7247 167.314C128.83 180.195 164.703 169.311 183.406 141.317C202.109 113.324 198.434 76.0166 174.628 52.2102C161.421 38.9268 143.445 31.4829 124.713 31.5396V31.5396Z" fill="#F94F24"/>
<path fill-rule="evenodd" clip-rule="evenodd" d="M124.713 38.7751C150.333 38.7733 173.431 54.2052 183.237 77.8747C193.042 101.544 187.623 128.79 169.507 146.906C151.391 165.022 124.145 170.441 100.476 160.635C76.8063 150.83 61.3743 127.732 61.3762 102.112C61.3762 67.1377 89.7294 38.7803 124.708 38.7751M124.713 31.5397C88.5773 31.5853 58.3501 58.9942 54.7792 94.9529C51.2084 130.912 75.4546 163.73 110.876 170.882C146.296 178.033 181.376 157.193 192.037 122.665C202.697 88.1381 185.472 51.1485 152.185 37.0863C143.494 33.4088 134.15 31.5223 124.713 31.5397L124.713 31.5397Z" fill="#CCCCCC"/>
<g style="mix-blend-mode:multiply">
<path fill-rule="evenodd" clip-rule="evenodd" d="M124.713 45.2036C158.446 45.2025 186.261 71.6409 187.97 105.331C188.026 104.267 188.054 103.199 188.054 102.126C188.25 79.3673 176.22 58.2536 156.543 46.8177C136.865 35.3817 112.565 35.3818 92.8875 46.8178C73.2101 58.2538 61.1807 79.3676 61.3761 102.126C61.3761 103.199 61.4026 104.267 61.4554 105.331C63.1648 71.6409 90.9795 45.2025 124.713 45.2036L124.713 45.2036Z" fill="#CCCCCC"/>
</g>
<path opacity="0.3" fill-rule="evenodd" clip-rule="evenodd" d="M124.713 159.034C90.9796 159.035 63.1648 132.597 61.4554 98.907C61.4041 99.9659 61.3761 101.039 61.3761 102.112C61.1808 124.87 73.2103 145.984 92.8877 157.42C112.565 168.856 136.865 168.856 156.543 157.42C176.22 145.984 188.25 124.87 188.054 102.112C188.054 101.039 188.026 99.9659 187.97 98.907C186.261 132.597 158.446 159.035 124.713 159.034H124.713Z" fill="#F2F2F2"/>
<g style="mix-blend-mode:multiply">
<path fill-rule="evenodd" clip-rule="evenodd" d="M157.988 106.539H125.114C123.783 106.536 122.705 105.458 122.702 104.127V52.2523C122.759 50.9602 123.823 49.9419 125.116 49.9419C126.41 49.9419 127.474 50.9602 127.53 52.2523V101.701H157.988C159.28 101.758 160.299 102.822 160.299 104.115C160.299 105.409 159.28 106.473 157.988 106.53V106.539Z" fill="#CCCCCC"/>
</g>
<path fill-rule="evenodd" clip-rule="evenodd" d="M156.78 105.331H123.91C122.578 105.331 121.499 104.251 121.499 102.919L121.499 51.0441C121.5 49.7128 122.579 48.6343 123.911 48.6343C125.242 48.6343 126.321 49.7129 126.322 51.0441V100.493H156.78C158.112 100.493 159.192 101.573 159.192 102.905C159.192 104.237 158.112 105.317 156.78 105.317V105.331Z" fill="white"/>
<g style="mix-blend-mode:multiply">
<path fill-rule="evenodd" clip-rule="evenodd" d="M65.4954 79.636C65.4954 79.636 67.2914 114.861 103.688 138.485C134.243 158.307 174.176 141.681 174.176 141.681C174.176 141.681 137.038 184.599 89.077 154.491C47.2412 128.241 65.4954 79.636 65.4954 79.636Z" fill="url(#paint1_linear)"/>
</g>
<path fill-rule="evenodd" clip-rule="evenodd" d="M123.78 187.822C76.7054 187.822 38.4104 149.522 38.4104 102.453C38.4104 55.3827 76.7054 17.083 123.78 17.083C124.295 17.083 124.713 17.5007 124.713 18.016C124.713 18.5313 124.295 18.949 123.78 18.949C77.7364 18.949 40.2764 56.409 40.2764 102.453C40.2764 148.496 77.7364 185.956 123.78 185.956C169.823 185.956 207.283 148.496 207.283 102.453C207.283 101.937 207.701 101.52 208.216 101.52C208.732 101.52 209.149 101.937 209.149 102.453C209.149 149.522 170.854 187.822 123.78 187.822Z" fill="#F94F24"/>
<path fill-rule="evenodd" clip-rule="evenodd" d="M208.216 103.386C207.701 103.386 207.283 102.968 207.283 102.453V102.229C207.283 101.713 207.701 101.296 208.216 101.296C208.732 101.296 209.149 101.713 209.149 102.229V102.439C209.149 102.954 208.732 103.372 208.216 103.372V103.386ZM208.067 98.301C207.573 98.3019 207.164 97.9173 207.134 97.424C207.078 96.4583 207.003 95.4927 206.915 94.5457C206.883 94.2123 207.032 93.8873 207.304 93.6931C207.577 93.499 207.933 93.4652 208.238 93.6044C208.542 93.7437 208.749 94.0349 208.781 94.3683C208.869 95.3387 208.949 96.3277 209.005 97.312C209.037 97.8259 208.646 98.2685 208.132 98.301L208.067 98.301ZM207.246 90.5566C206.781 90.5618 206.383 90.2235 206.313 89.7635C206.169 88.8305 206.005 87.8649 205.847 86.9179C205.764 86.4173 206.096 85.9422 206.594 85.8483C207.093 85.7544 207.575 86.0762 207.68 86.5727C207.862 87.543 208.03 88.5226 208.175 89.4836C208.253 89.9924 207.904 90.4683 207.395 90.5472C207.346 90.5551 207.296 90.5583 207.246 90.5566V90.5566ZM205.721 82.9249C205.292 82.9246 204.918 82.6321 204.816 82.2158C204.582 81.2828 204.349 80.3498 204.069 79.4168C203.958 78.9333 204.244 78.4471 204.721 78.3104C205.198 78.1738 205.699 78.4345 205.861 78.9037C206.131 79.8367 206.388 80.7977 206.626 81.754C206.69 81.9966 206.655 82.2551 206.527 82.4711C206.398 82.6871 206.189 82.8423 205.944 82.9016C205.871 82.9184 205.796 82.9262 205.721 82.9249H205.721ZM203.491 75.4609C203.094 75.4613 202.74 75.2105 202.609 74.8358C202.292 73.9354 201.956 73.0211 201.606 72.1301C201.418 71.6496 201.655 71.1076 202.136 70.9195C202.616 70.7314 203.158 70.9685 203.346 71.449C203.701 72.382 204.046 73.315 204.372 74.22C204.454 74.4538 204.44 74.7106 204.332 74.9338C204.225 75.1569 204.033 75.3281 203.799 75.4096C203.7 75.4447 203.596 75.462 203.491 75.4609L203.491 75.4609ZM200.584 68.2486C200.219 68.2487 199.887 68.0353 199.735 67.7028C199.334 66.8351 198.914 65.9581 198.49 65.1044C198.317 64.8044 198.325 64.4338 198.51 64.1413C198.695 63.8489 199.026 63.6828 199.371 63.7096C199.716 63.7364 200.018 63.9519 200.155 64.2694C200.594 65.1417 201.023 66.0374 201.429 66.9284C201.531 67.1541 201.54 67.4114 201.452 67.6433C201.364 67.8753 201.188 68.0628 200.962 68.1646C200.843 68.2178 200.715 68.2464 200.584 68.2486H200.584ZM197.02 61.34C196.686 61.3413 196.376 61.1633 196.209 60.8735C195.742 60.0478 195.238 59.2128 194.73 58.4011C194.554 58.1177 194.542 57.762 194.7 57.468C194.857 57.174 195.16 56.9864 195.493 56.9758C195.826 56.9652 196.14 57.1333 196.316 57.4167C196.834 58.2471 197.342 59.1008 197.827 59.9452C197.95 60.1598 197.983 60.4146 197.919 60.6534C197.854 60.8923 197.697 61.0956 197.482 61.2187C197.341 61.2985 197.182 61.3403 197.02 61.34H197.02ZM192.822 54.781C192.517 54.7815 192.232 54.6335 192.057 54.3844C191.506 53.6054 190.937 52.8216 190.354 52.0519C190.042 51.641 190.123 51.0551 190.534 50.7434C190.945 50.4317 191.53 50.5121 191.842 50.923C192.435 51.7067 193.022 52.5091 193.582 53.3068C193.725 53.509 193.782 53.7598 193.74 54.004C193.698 54.2482 193.561 54.4656 193.358 54.6083C193.205 54.7171 193.023 54.7772 192.836 54.781H192.822ZM188.05 48.6324C187.775 48.6338 187.514 48.5143 187.336 48.3058C186.715 47.5781 186.072 46.8504 185.428 46.1413C185.08 45.7548 185.111 45.1596 185.498 44.8117C185.884 44.4639 186.48 44.4953 186.827 44.8817C187.49 45.6048 188.148 46.3512 188.782 47.0929C188.942 47.2816 189.021 47.5262 189.001 47.7729C188.981 48.0197 188.863 48.2483 188.675 48.4085C188.504 48.554 188.288 48.6335 188.064 48.6324L188.05 48.6324ZM182.731 42.9459C182.487 42.9461 182.253 42.8506 182.078 42.68C181.392 42.0129 180.679 41.3458 179.974 40.6973C179.588 40.3495 179.556 39.7543 179.904 39.3678C180.252 38.9813 180.847 38.95 181.234 39.2978C181.957 39.9556 182.68 40.6367 183.38 41.3224C183.65 41.5871 183.734 41.9891 183.592 42.34C183.45 42.6908 183.11 42.921 182.731 42.9225L182.731 42.9459ZM176.909 37.7677C176.696 37.7693 176.489 37.6949 176.326 37.5578C175.575 36.9513 174.805 36.3542 174.045 35.7757C173.634 35.464 173.554 34.8781 173.865 34.4672C174.177 34.0562 174.763 33.9758 175.174 34.2876C175.948 34.8754 176.732 35.4912 177.506 36.1116C177.812 36.3608 177.928 36.7752 177.796 37.1468C177.664 37.5183 177.313 37.7669 176.919 37.7677L176.909 37.7677ZM170.677 33.1447C170.493 33.1442 170.312 33.089 170.159 32.9861C169.357 32.4496 168.536 31.9225 167.729 31.4187C167.429 31.2512 167.246 30.9331 167.251 30.5901C167.257 30.2472 167.45 29.9348 167.754 29.7766C168.058 29.6184 168.425 29.6399 168.708 29.8326C169.539 30.3457 170.374 30.8868 171.195 31.4326C171.54 31.6598 171.694 32.0866 171.575 32.4818C171.455 32.877 171.09 33.1467 170.677 33.1447H170.677ZM164.001 29.1138C163.847 29.1138 163.694 29.0754 163.558 29.0019C162.719 28.5354 161.856 28.0969 160.992 27.663C160.683 27.5225 160.474 27.2248 160.448 26.8858C160.421 26.5469 160.581 26.2204 160.866 26.0337C161.15 25.847 161.513 25.8296 161.814 25.9883C162.7 26.4315 163.582 26.8886 164.44 27.3551C164.82 27.56 165.01 27.9989 164.899 28.4163C164.788 28.8336 164.405 29.1202 163.973 29.1092L164.001 29.1138ZM157.004 25.7178C156.877 25.7168 156.751 25.6898 156.635 25.6385C155.754 25.2653 154.853 24.8968 153.953 24.5469C153.488 24.3516 153.262 23.8215 153.444 23.3506C153.625 22.8798 154.149 22.6388 154.625 22.8069C155.558 23.1661 156.467 23.5393 157.368 23.9265C157.775 24.1001 158.005 24.5364 157.916 24.9706C157.828 25.4047 157.447 25.717 157.004 25.7178H157.004ZM149.689 22.9844C149.592 22.9845 149.496 22.9688 149.405 22.9378C148.472 22.6439 147.539 22.364 146.643 22.1028C146.147 21.9623 145.859 21.4464 145.999 20.9505C146.14 20.4546 146.656 20.1664 147.152 20.3067C148.084 20.5726 149.017 20.8619 149.978 21.1604C150.421 21.2978 150.696 21.7397 150.624 22.1977C150.551 22.6557 150.153 22.9908 149.689 22.9844V22.9844ZM142.179 20.9455C142.11 20.9524 142.042 20.9524 141.973 20.9455C141.04 20.7402 140.107 20.5443 139.142 20.367C138.799 20.3319 138.504 20.1111 138.374 19.7927C138.243 19.4743 138.299 19.1099 138.518 18.8446C138.737 18.5793 139.084 18.4562 139.422 18.5243C140.392 18.7063 141.362 18.9022 142.319 19.1121C142.834 19.1676 143.206 19.6301 143.151 20.1453C143.096 20.6605 142.633 21.0334 142.118 20.9781L142.179 20.9455ZM134.505 19.6159H134.388C133.455 19.4947 132.475 19.3874 131.514 19.3034C130.999 19.2557 130.62 18.7994 130.668 18.2841C130.715 17.7688 131.172 17.3897 131.687 17.4374C132.662 17.526 133.651 17.6333 134.621 17.7593C135.137 17.7915 135.528 18.2353 135.496 18.7506C135.464 19.2659 135.02 19.6575 134.505 19.6253V19.6159ZM126.7 18.991H126.667C125.734 18.9584 124.741 18.9444 123.78 18.9444C123.265 18.9444 122.847 18.5267 122.847 18.0114C122.847 17.4961 123.265 17.0784 123.78 17.0784C124.764 17.0784 125.758 17.0784 126.733 17.125C127.248 17.1342 127.658 17.5591 127.649 18.0742C127.64 18.5894 127.215 18.9998 126.7 18.991L126.7 18.991Z" fill="#F94F24"/>
<path fill-rule="evenodd" clip-rule="evenodd" d="M115.812 27.8544C115.294 27.8538 114.835 27.5208 114.674 27.0287C114.513 26.5367 114.686 25.9967 115.103 25.6899L125.525 18.0299L115.07 10.342C114.613 9.93221 114.539 9.24275 114.899 8.74528C115.26 8.24781 115.938 8.10333 116.47 8.41069L128.24 17.0596C128.547 17.2855 128.728 17.644 128.728 18.0253C128.728 18.4065 128.547 18.765 128.24 18.9909L116.521 27.6165C116.317 27.7703 116.068 27.8537 115.812 27.8544Z" fill="#F94F24"/>
<g style="mix-blend-mode:multiply">
<path fill-rule="evenodd" clip-rule="evenodd" d="M219.879 49.8545C219.879 67.4385 205.624 81.6931 188.04 81.6931C170.456 81.6931 156.202 67.4385 156.202 49.8545C156.202 32.2705 170.456 18.0159 188.04 18.0159C205.624 18.0159 219.879 32.2705 219.879 49.8545Z" fill="#E5E5E5"/>
</g>
<path fill-rule="evenodd" clip-rule="evenodd" d="M212.802 49.8546C212.802 63.5249 201.717 74.6109 188.042 74.6118C174.367 74.6126 163.28 63.528 163.278 49.8531C163.277 36.1781 174.361 25.0907 188.036 25.0881C194.604 25.0869 200.905 27.6958 205.55 32.3407C210.194 36.9856 212.803 43.2858 212.802 49.8546Z" fill="url(#paint2_linear)"/>
<g style="mix-blend-mode:multiply">
<path fill-rule="evenodd" clip-rule="evenodd" d="M189.804 58.3915C189.139 58.3927 188.501 58.1292 188.031 57.6591L183.011 52.6442C182.348 52.0151 182.079 51.0757 182.308 50.1907C182.537 49.3058 183.228 48.6148 184.113 48.3859C184.998 48.1571 185.937 48.4265 186.566 49.0895L189.804 52.3317L198.775 43.3609C199.409 42.7265 200.333 42.4787 201.199 42.7108C202.066 42.9429 202.743 43.6196 202.975 44.486C203.207 45.3524 202.959 46.2767 202.325 46.9109L191.595 57.6404C191.123 58.1215 190.478 58.3923 189.804 58.3915V58.3915Z" fill="#CCCCCC"/>
</g>
<path fill-rule="evenodd" clip-rule="evenodd" d="M188.372 56.9594C187.706 56.9584 187.069 56.6932 186.599 56.2223L181.579 51.2075C180.599 50.2259 180.6 48.6354 181.582 47.6551C182.563 46.6747 184.154 46.6758 185.134 47.6574L188.372 50.8949L197.342 41.9241C198.323 40.9441 199.912 40.9443 200.892 41.9245C201.872 42.9047 201.872 44.4939 200.892 45.4742L190.163 56.2037C189.691 56.6856 189.046 56.9579 188.372 56.9594Z" fill="#F2F2F2"/>
<path fill-rule="evenodd" clip-rule="evenodd" d="M202.012 97.643L201.881 97.1765C211.757 94.2882 220.453 88.3229 226.704 80.1493C233.095 71.8019 236.541 61.5716 236.5 51.0583C236.466 29.1673 221.631 10.0716 200.429 4.62756C179.227 -0.816518 157.027 8.76941 146.451 27.935L146.046 27.71C156.627 8.49452 178.794 -1.22015 200.094 4.02311C221.395 9.26637 236.519 28.1606 236.971 50.0921C237.424 72.0236 223.092 91.5256 202.026 97.643H202.012Z" fill="#F94F24"/>
<path fill-rule="evenodd" clip-rule="evenodd" d="M39.3433 128.115C32.387 128.115 26.7478 122.475 26.7478 115.519C26.7478 108.563 32.387 102.924 39.3433 102.924C46.2996 102.924 51.9388 108.563 51.9388 115.519C51.9388 122.475 46.2996 128.115 39.3433 128.115ZM39.3432 103.39C32.6446 103.39 27.2142 108.82 27.2142 115.519C27.2142 122.218 32.6446 127.648 39.3432 127.648C46.0419 127.648 51.4722 122.218 51.4722 115.519C51.4738 112.303 50.1968 109.216 47.9223 106.94C45.6477 104.664 42.5621 103.386 39.3445 103.385L39.3432 103.39Z" fill="#F94F24"/>
<defs>
<linearGradient id="paint0_linear" x1="178.815" y1="163.737" x2="251.235" y2="28.3442" gradientUnits="userSpaceOnUse">
<stop stop-color="#8033EB"/>
<stop offset="0.53" stop-color="#D4648E"/>
<stop offset="1" stop-color="#EC7071"/>
</linearGradient>
<linearGradient id="paint1_linear" x1="109.271" y1="148.818" x2="117.54" y2="128.086" gradientUnits="userSpaceOnUse">
<stop stop-color="white"/>
<stop offset="1" stop-color="#E9E9E9"/>
</linearGradient>
<linearGradient id="paint2_linear" x1="163.278" y1="74.6118" x2="212.802" y2="74.6118" gradientUnits="userSpaceOnUse">
<stop stop-color="#8033EB"/>
<stop offset="1" stop-color="#6731CE"/>
</linearGradient>
</defs>
</svg>
