<svg width="220" height="146" viewBox="0 0 220 146" fill="none" xmlns="http://www.w3.org/2000/svg">
<path fill-rule="evenodd" clip-rule="evenodd" d="M190.435 130.798C190.435 122.832 196.893 116.375 204.859 116.375C212.825 116.375 219.283 122.832 219.283 130.798C219.283 138.764 212.825 145.222 204.859 145.222C196.893 145.222 190.435 138.764 190.435 130.798Z" fill="#F2F2F2"/>
<path fill-rule="evenodd" clip-rule="evenodd" d="M86.4224 38.1904C86.4152 43.5634 82.0548 47.9141 76.6816 47.9094C71.3083 47.9046 66.9556 43.5462 66.9579 38.173C66.9602 32.7997 71.3166 28.445 76.6899 28.4448C79.2731 28.4456 81.7501 29.4731 83.5755 31.3009C85.4009 33.1288 86.4251 35.6072 86.4224 38.1904V38.1904Z" fill="#F2F2F2"/>
<path fill-rule="evenodd" clip-rule="evenodd" d="M0.717285 88.7424V88.0724C0.717285 84.9782 1.81127 82.3371 3.99923 80.1491C6.18719 77.9612 8.82829 76.8672 11.9225 76.8672H57.485C60.5792 76.8672 63.2203 77.9612 65.4083 80.1491C67.5963 82.3371 68.6902 84.9782 68.6902 88.0724V89.4124C68.6902 92.5067 67.5963 95.1478 65.4083 97.3357C63.2203 99.5237 60.5792 100.618 57.485 100.618H11.9225C8.82829 100.618 6.18719 99.5237 3.99923 97.3357C1.81127 95.1478 0.717285 92.5067 0.717285 89.4124V88.7424Z" fill="#F2F2F2"/>
<path fill-rule="evenodd" clip-rule="evenodd" d="M118.801 44.7527V44.0827C118.801 40.9884 119.895 38.3473 122.083 36.1594C124.271 33.9714 126.912 32.8774 130.007 32.8774H205.993C209.087 32.8774 211.728 33.9714 213.916 36.1594C216.104 38.3473 217.198 40.9884 217.198 44.0827V45.4227C217.198 48.5169 216.104 51.158 213.916 53.346C211.728 55.5339 209.087 56.6279 205.993 56.6279H130.007C126.912 56.6279 124.271 55.5339 122.083 53.346C119.895 51.158 118.801 48.5169 118.801 45.4227V44.7527Z" fill="#F2F2F2"/>
<path fill-rule="evenodd" clip-rule="evenodd" d="M203.057 135.131H21.8112V15.4741H22.1437V134.798H203.057V135.131V135.131Z" fill="#B3B3B3"/>
<path fill-rule="evenodd" clip-rule="evenodd" d="M21.9774 15.6402C21.1809 15.6402 20.463 15.1603 20.1585 14.4243C19.854 13.6884 20.023 12.8415 20.5867 12.2788C21.1503 11.7161 21.9975 11.5485 22.7329 11.8542C23.4684 12.1599 23.9471 12.8787 23.9458 13.6752C23.9439 14.761 23.0632 15.6402 21.9774 15.6402H21.9774ZM21.9774 12.0393C21.3157 12.0393 20.7192 12.4379 20.466 13.0492C20.2128 13.6605 20.3528 14.3641 20.8206 14.832C21.2885 15.2998 21.9921 15.4398 22.6034 15.1866C23.2147 14.9334 23.6133 14.3369 23.6133 13.6752C23.6141 13.241 23.4421 12.8244 23.1351 12.5175C22.8281 12.2105 22.4115 12.0384 21.9773 12.0393L21.9774 12.0393Z" fill="#B3B3B3"/>
<path fill-rule="evenodd" clip-rule="evenodd" d="M204.859 136.93C204.063 136.93 203.345 136.45 203.04 135.714C202.736 134.978 202.905 134.131 203.468 133.568C204.032 133.006 204.879 132.838 205.615 133.144C206.35 133.449 206.829 134.168 206.827 134.965C206.826 136.05 205.945 136.93 204.859 136.93V136.93ZM204.859 133.329C204.197 133.329 203.601 133.727 203.348 134.339C203.094 134.95 203.234 135.654 203.702 136.122C204.17 136.589 204.874 136.729 205.485 136.476C206.096 136.223 206.495 135.626 206.495 134.965C206.493 134.062 205.762 133.331 204.859 133.329H204.859Z" fill="#B3B3B3"/>
<rect x="20.1786" y="24.0691" width="3.60097" height="0.332502" fill="#B3B3B3"/>
<rect x="20.1786" y="38.0244" width="3.60097" height="0.3325" fill="#B3B3B3"/>
<rect x="20.1786" y="51.9758" width="3.60097" height="0.3325" fill="#B3B3B3"/>
<rect x="20.1786" y="65.9309" width="3.60097" height="0.332497" fill="#B3B3B3"/>
<rect x="20.1786" y="79.886" width="3.60097" height="0.332512" fill="#B3B3B3"/>
<rect x="20.1786" y="93.8408" width="3.60097" height="0.332512" fill="#B3B3B3"/>
<rect x="20.1786" y="107.796" width="3.60097" height="0.332512" fill="#B3B3B3"/>
<rect x="20.1786" y="121.751" width="3.60097" height="0.332512" fill="#B3B3B3"/>
<rect x="26.9382" y="24.0691" width="177.924" height="0.332502" fill="#D6D6D6"/>
<rect x="26.9382" y="38.0244" width="177.924" height="0.3325" fill="#D6D6D6"/>
<rect x="26.9382" y="51.9758" width="177.924" height="0.3325" fill="#D6D6D6"/>
<rect x="26.9382" y="65.9309" width="177.924" height="0.332497" fill="#D6D6D6"/>
<rect x="26.9382" y="79.886" width="177.924" height="0.332512" fill="#D6D6D6"/>
<rect x="26.9382" y="93.8408" width="177.924" height="0.332512" fill="#D6D6D6"/>
<rect x="26.9382" y="107.796" width="177.924" height="0.332512" fill="#D6D6D6"/>
<rect x="26.9382" y="121.751" width="177.924" height="0.332512" fill="#D6D6D6"/>
<g style="mix-blend-mode:multiply">
<rect x="35.9822" y="92.0657" width="11.7472" height="38.7329" fill="#E5E5E5"/>
</g>
<rect x="34.9183" y="93.3489" width="11.7472" height="37.4495" fill="url(#paint0_linear)"/>
<g style="mix-blend-mode:multiply">
<rect x="61.0826" y="84.0322" width="11.7472" height="46.7661" fill="#E5E5E5"/>
</g>
<rect x="60.0187" y="85.3157" width="11.7472" height="45.4793" fill="url(#paint1_linear)"/>
<g style="mix-blend-mode:multiply">
<rect x="86.1831" y="76.4014" width="11.7472" height="54.397" fill="#E5E5E5"/>
</g>
<rect x="85.119" y="77.6848" width="11.7472" height="53.1102" fill="url(#paint2_linear)"/>
<g style="mix-blend-mode:multiply">
<rect x="111.287" y="68.3684" width="11.7472" height="62.4302" fill="#E5E5E5"/>
</g>
<rect x="110.223" y="69.6516" width="11.7472" height="61.1434" fill="url(#paint3_linear)"/>
<g style="mix-blend-mode:multiply">
<rect x="136.387" y="59.9326" width="11.7472" height="70.8624" fill="#E5E5E5"/>
</g>
<rect x="135.323" y="61.2195" width="11.7472" height="69.5789" fill="url(#paint4_linear)"/>
<g style="mix-blend-mode:multiply">
<rect x="161.491" y="51.8994" width="11.7472" height="78.8956" fill="#E5E5E5"/>
</g>
<rect x="160.427" y="53.186" width="11.7472" height="77.6122" fill="url(#paint5_linear)"/>
<g style="mix-blend-mode:multiply">
<rect x="186.591" y="43.4673" width="11.7472" height="87.3311" fill="#E5E5E5"/>
</g>
<rect x="185.527" y="44.7505" width="11.7472" height="86.0443" fill="url(#paint6_linear)"/>
<path fill-rule="evenodd" clip-rule="evenodd" d="M14.2401 23.9927C8.90297 19.9801 7.51459 12.5555 11.0411 6.88534C14.5675 1.21521 21.8408 -0.822389 27.7998 2.19041C33.7588 5.20321 36.4297 12.2685 33.954 18.4699L33.6448 18.3436C36.06 12.2967 33.4545 5.40674 27.6424 2.47122C21.8303 -0.464299 14.7386 1.52786 11.3053 7.06053C7.87208 12.5932 9.23551 19.8321 14.4462 23.7367L14.2401 23.9927Z" fill="#F94F24"/>
<defs>
<linearGradient id="paint0_linear" x1="45.6173" y1="113.628" x2="45.6173" y2="82.8519" gradientUnits="userSpaceOnUse">
<stop stop-color="#8033EB"/>
<stop offset="0.53" stop-color="#D4648E"/>
<stop offset="1" stop-color="#EC7071"/>
</linearGradient>
<linearGradient id="paint1_linear" x1="70.7206" y1="109.944" x2="70.7206" y2="72.571" gradientUnits="userSpaceOnUse">
<stop stop-color="#8033EB"/>
<stop offset="0.53" stop-color="#D4648E"/>
<stop offset="1" stop-color="#EC7071"/>
</linearGradient>
<linearGradient id="paint2_linear" x1="95.821" y1="106.443" x2="95.821" y2="62.7988" gradientUnits="userSpaceOnUse">
<stop stop-color="#8033EB"/>
<stop offset="0.53" stop-color="#D4648E"/>
<stop offset="1" stop-color="#EC7071"/>
</linearGradient>
<linearGradient id="paint3_linear" x1="120.925" y1="102.762" x2="120.925" y2="52.5146" gradientUnits="userSpaceOnUse">
<stop stop-color="#8033EB"/>
<stop offset="0.53" stop-color="#D4648E"/>
<stop offset="1" stop-color="#EC7071"/>
</linearGradient>
<linearGradient id="paint4_linear" x1="146.025" y1="98.895" x2="146.025" y2="41.7183" gradientUnits="userSpaceOnUse">
<stop stop-color="#8033EB"/>
<stop offset="0.53" stop-color="#D4648E"/>
<stop offset="1" stop-color="#EC7071"/>
</linearGradient>
<linearGradient id="paint5_linear" x1="171.129" y1="95.2107" x2="171.129" y2="31.4339" gradientUnits="userSpaceOnUse">
<stop stop-color="#8033EB"/>
<stop offset="0.53" stop-color="#D4648E"/>
<stop offset="1" stop-color="#EC7071"/>
</linearGradient>
<linearGradient id="paint6_linear" x1="196.229" y1="91.3437" x2="196.229" y2="20.6343" gradientUnits="userSpaceOnUse">
<stop stop-color="#8033EB"/>
<stop offset="0.53" stop-color="#D4648E"/>
<stop offset="1" stop-color="#EC7071"/>
</linearGradient>
</defs>
</svg>
