<svg width="239" height="197" viewBox="0 0 239 197" fill="none" xmlns="http://www.w3.org/2000/svg">
<path fill-rule="evenodd" clip-rule="evenodd" d="M152.5 25.2462C152.5 39.1251 141.249 50.3762 127.37 50.3762C113.491 50.3762 102.24 39.1251 102.24 25.2462C102.24 11.3673 113.491 0.116211 127.37 0.116211C141.249 0.116211 152.5 11.3673 152.5 25.2462V25.2462Z" fill="#F2F2F2"/>
<path fill-rule="evenodd" clip-rule="evenodd" d="M115.654 65.3305V64.7718C115.654 62.1843 116.568 59.9758 118.398 58.1462C120.228 56.3166 122.436 55.4019 125.023 55.4019H188.557C191.145 55.4019 193.353 56.3166 195.183 58.1462C197.013 59.9758 197.927 62.1843 197.927 64.7718V65.8891C197.927 68.4766 197.013 70.6851 195.183 72.5147C193.353 74.3443 191.145 75.259 188.557 75.259H125.023C122.436 75.259 120.228 74.3443 118.398 72.5147C116.568 70.6851 115.654 68.4766 115.654 65.8891V65.3305Z" fill="#F2F2F2"/>
<path fill-rule="evenodd" clip-rule="evenodd" d="M1.1145 78.8875V77.9832C1.1145 73.8072 2.59096 70.2427 5.54389 67.2897C8.49682 64.3368 12.0613 62.8604 16.2374 62.8604H118.79C122.966 62.8604 126.531 64.3368 129.484 67.2897C132.437 70.2427 133.913 73.8072 133.913 77.9832V79.7917C133.913 83.9678 132.437 87.5323 129.484 90.4852C126.531 93.4381 122.966 94.9146 118.79 94.9146H16.2374C12.0613 94.9146 8.49682 93.4381 5.54389 90.4852C2.59096 87.5323 1.1145 83.9678 1.1145 79.7917V78.8875Z" fill="#F2F2F2"/>
<path fill-rule="evenodd" clip-rule="evenodd" d="M107.66 180.783C68.6158 180.387 37.2842 148.41 37.6792 109.36C38.0742 70.3096 70.0462 38.9737 109.091 39.3693C148.135 39.7649 179.467 71.7421 179.072 110.792C178.677 149.843 146.705 181.179 107.66 180.783Z" fill="url(#paint0_linear)"/>
<path fill-rule="evenodd" clip-rule="evenodd" d="M108.438 196.772H108.393C107.464 196.772 106.535 196.772 105.619 196.727C105.248 196.721 104.951 196.415 104.957 196.043C104.964 195.671 105.27 195.375 105.642 195.381H105.664C106.562 195.413 107.482 195.426 108.393 195.426C108.769 195.424 109.078 195.723 109.088 196.099C109.093 196.275 109.027 196.446 108.904 196.573C108.782 196.699 108.614 196.771 108.438 196.772V196.772ZM113.096 196.646C112.724 196.656 112.415 196.363 112.405 195.991C112.395 195.62 112.688 195.31 113.06 195.3C113.957 195.251 114.9 195.183 115.824 195.103C116.196 195.07 116.523 195.346 116.555 195.717C116.588 196.089 116.312 196.417 115.941 196.449C115.003 196.53 114.056 196.597 113.132 196.646H113.096ZM100.979 196.458H100.921C99.9832 196.377 99.0408 196.283 98.1164 196.171C97.7446 196.128 97.4785 195.791 97.5218 195.419C97.5652 195.047 97.9018 194.781 98.2735 194.825C99.171 194.932 100.113 195.031 101.033 195.107C101.405 195.122 101.694 195.436 101.679 195.807C101.664 196.179 101.351 196.468 100.979 196.454L100.979 196.458ZM120.491 195.919C120.119 195.945 119.797 195.665 119.771 195.293C119.745 194.922 120.025 194.599 120.397 194.573C121.294 194.447 122.232 194.299 123.134 194.124C123.375 194.083 123.619 194.172 123.776 194.36C123.932 194.547 123.976 194.804 123.892 195.033C123.808 195.262 123.608 195.429 123.368 195.471C122.47 195.632 121.514 195.78 120.585 195.919H120.491ZM93.5884 195.498H93.4717C92.5518 195.336 91.6228 195.157 90.7074 194.968C90.3439 194.89 90.1103 194.534 90.1823 194.17C90.219 193.994 90.3238 193.841 90.4737 193.743C90.6236 193.646 90.8061 193.612 90.9811 193.649C91.8786 193.837 92.7986 194.012 93.705 194.17C94.0768 194.202 94.3521 194.529 94.3198 194.901C94.2876 195.273 93.9601 195.548 93.5884 195.516L93.5884 195.498ZM127.815 194.551C127.443 194.593 127.107 194.326 127.065 193.954C127.023 193.582 127.29 193.247 127.662 193.205C128.559 192.998 129.457 192.756 130.354 192.532C130.714 192.435 131.083 192.648 131.18 193.007C131.277 193.367 131.064 193.736 130.705 193.833C129.807 194.075 128.878 194.304 127.972 194.515C127.927 194.533 127.88 194.545 127.833 194.551H127.815ZM86.341 193.896C86.282 193.895 86.2232 193.887 86.166 193.873C85.2685 193.635 84.371 193.375 83.4735 193.101C83.1272 192.986 82.9356 192.616 83.0414 192.267C83.1473 191.918 83.512 191.717 83.8639 191.813C84.7614 192.083 85.6589 192.339 86.5294 192.572C86.9011 192.619 87.1642 192.959 87.1171 193.33C87.07 193.702 86.7305 193.965 86.3589 193.918L86.341 193.896ZM135.017 192.549C134.684 192.553 134.397 192.312 134.345 191.983C134.292 191.654 134.488 191.335 134.806 191.235C135.677 190.952 136.561 190.647 137.427 190.337C137.776 190.211 138.162 190.392 138.288 190.741C138.351 190.908 138.343 191.093 138.268 191.255C138.193 191.417 138.057 191.542 137.889 191.603C136.992 191.926 136.094 192.235 135.223 192.523C135.154 192.544 135.081 192.552 135.008 192.545L135.017 192.549ZM79.2194 191.652C79.1412 191.654 79.0634 191.64 78.9906 191.611C78.0931 191.293 77.1956 190.952 76.3519 190.606C76.0062 190.467 75.8384 190.075 75.9772 189.729C76.116 189.383 76.5088 189.215 76.8545 189.354C77.7071 189.7 78.5777 190.032 79.4528 190.346C79.6208 190.407 79.7574 190.533 79.8323 190.696C79.9073 190.859 79.9144 191.044 79.8522 191.212C79.757 191.483 79.498 191.663 79.2104 191.656L79.2194 191.652ZM141.986 189.919C141.666 189.92 141.39 189.695 141.326 189.381C141.262 189.068 141.427 188.752 141.721 188.627C142.565 188.268 143.413 187.887 144.248 187.501C144.468 187.378 144.737 187.389 144.947 187.528C145.157 187.667 145.271 187.912 145.244 188.162C145.217 188.412 145.052 188.626 144.818 188.717C143.97 189.116 143.108 189.502 142.251 189.866C142.167 189.901 142.077 189.919 141.986 189.919V189.919ZM72.3311 188.802C72.2335 188.801 72.1372 188.78 72.0484 188.74C71.2003 188.345 70.3432 187.927 69.5085 187.501C69.282 187.399 69.1299 187.181 69.1128 186.933C69.0957 186.686 69.2165 186.448 69.4269 186.317C69.6373 186.185 69.9033 186.179 70.1188 186.303C70.94 186.72 71.7836 187.129 72.6183 187.519C72.9051 187.652 73.0603 187.968 72.9913 188.276C72.9222 188.585 72.6475 188.804 72.3311 188.802L72.3311 188.802ZM148.691 186.698C148.382 186.697 148.114 186.488 148.039 186.189C147.964 185.89 148.101 185.579 148.372 185.432C149.184 184.984 149.996 184.535 150.791 184.086C151.113 183.9 151.525 184.011 151.711 184.333C151.896 184.655 151.786 185.067 151.464 185.253C150.661 185.702 149.835 186.177 149.009 186.599C148.908 186.663 148.792 186.697 148.673 186.698L148.691 186.698ZM65.7121 185.352C65.5939 185.352 65.4777 185.321 65.3755 185.262C64.5633 184.813 63.7511 184.306 62.9568 183.812C62.6408 183.615 62.5443 183.2 62.7414 182.884C62.9384 182.568 63.3543 182.471 63.6703 182.668C64.4511 183.153 65.2499 183.637 66.0531 184.095C66.3739 184.282 66.4823 184.694 66.2955 185.015C66.175 185.23 65.9448 185.36 65.6986 185.352H65.7121ZM155.09 182.901C154.79 182.906 154.523 182.711 154.438 182.424C154.352 182.136 154.468 181.827 154.722 181.667C155.485 181.165 156.256 180.644 157.015 180.115C157.32 179.901 157.739 179.976 157.953 180.28C158.166 180.585 158.092 181.005 157.787 181.218C157.019 181.757 156.234 182.287 155.458 182.794C155.343 182.869 155.208 182.907 155.072 182.901H155.09ZM59.4162 181.339C59.2779 181.341 59.1427 181.299 59.0303 181.218C58.2629 180.684 57.4956 180.123 56.7507 179.562C56.5575 179.418 56.456 179.182 56.4846 178.943C56.5132 178.704 56.6675 178.498 56.8892 178.403C57.1108 178.309 57.3661 178.34 57.5584 178.485C58.2944 179.042 59.0483 179.589 59.8022 180.114C60.0433 180.283 60.1473 180.588 60.0589 180.869C59.9706 181.149 59.7103 181.34 59.4162 181.339L59.4162 181.339ZM161.13 178.562C160.923 178.564 160.727 178.469 160.6 178.306C160.372 178.013 160.422 177.59 160.713 177.359C161.431 176.798 162.153 176.21 162.862 175.613C163.046 175.459 163.299 175.414 163.526 175.496C163.752 175.578 163.917 175.775 163.959 176.012C164.001 176.249 163.913 176.491 163.728 176.645C163.01 177.251 162.274 177.848 161.543 178.44C161.42 178.528 161.271 178.571 161.121 178.562H161.13ZM53.5061 176.798C53.3423 176.803 53.1826 176.747 53.0573 176.641C52.3438 176.044 51.6303 175.421 50.9303 174.797C50.6528 174.549 50.6287 174.123 50.8765 173.846C51.1243 173.568 51.5501 173.544 51.8277 173.792C52.5188 174.411 53.2234 175.021 53.9234 175.609C54.143 175.793 54.2223 176.095 54.1213 176.363C54.0202 176.631 53.7608 176.805 53.4747 176.798H53.5061ZM166.78 173.711C166.594 173.714 166.416 173.637 166.29 173.5C166.167 173.37 166.101 173.197 166.107 173.018C166.113 172.839 166.19 172.67 166.322 172.549C166.995 171.916 167.668 171.265 168.314 170.619C168.58 170.372 168.993 170.379 169.249 170.636C169.506 170.892 169.513 171.305 169.266 171.57C168.611 172.23 167.919 172.89 167.242 173.531C167.114 173.65 166.945 173.714 166.771 173.711L166.78 173.711ZM48 171.763C47.8213 171.764 47.6498 171.693 47.5243 171.566C46.8646 170.906 46.205 170.219 45.5678 169.546C45.3125 169.275 45.3255 168.848 45.5969 168.593C45.8683 168.337 46.2952 168.35 46.5505 168.622C47.1788 169.295 47.825 169.968 48.4756 170.614C48.6028 170.74 48.6744 170.911 48.6744 171.09C48.6744 171.269 48.6028 171.44 48.4756 171.566C48.351 171.694 48.1789 171.766 48 171.763V171.763ZM171.985 168.389C171.719 168.389 171.478 168.233 171.37 167.991C171.261 167.748 171.305 167.465 171.482 167.267C172.097 166.58 172.712 165.876 173.304 165.171C173.454 164.971 173.702 164.87 173.949 164.909C174.196 164.948 174.401 165.121 174.481 165.358C174.561 165.594 174.504 165.856 174.332 166.037C173.731 166.751 173.111 167.469 172.488 168.164C172.359 168.307 172.177 168.388 171.985 168.389V168.389ZM42.965 166.275C42.7653 166.276 42.5757 166.187 42.4489 166.032C41.8521 165.323 41.2552 164.588 40.6763 163.852C40.5141 163.664 40.4678 163.403 40.5557 163.172C40.6436 162.94 40.8515 162.776 41.097 162.743C41.3426 162.711 41.586 162.816 41.7309 163.017C42.3053 163.744 42.8932 164.471 43.481 165.166C43.72 165.452 43.684 165.877 43.4003 166.118C43.2775 166.219 43.1238 166.274 42.965 166.275H42.965ZM176.719 162.631C176.464 162.631 176.231 162.487 176.117 162.259C176.003 162.031 176.028 161.758 176.181 161.554C176.733 160.818 177.28 160.065 177.81 159.311C178.024 159.006 178.445 158.933 178.75 159.147C179.055 159.361 179.128 159.782 178.914 160.087C178.375 160.854 177.819 161.622 177.258 162.367C177.129 162.533 176.93 162.631 176.719 162.631L176.719 162.631ZM38.4283 160.388C38.2094 160.388 38.0038 160.283 37.8763 160.105C37.3423 159.338 36.8083 158.557 36.2967 157.776C36.1553 157.575 36.1349 157.312 36.2434 157.092C36.352 156.871 36.5722 156.727 36.8179 156.716C37.0636 156.706 37.2956 156.83 37.4231 157.04C37.9257 157.807 38.4507 158.579 38.9757 159.329C39.0798 159.474 39.1213 159.655 39.091 159.831C39.0606 160.008 38.9609 160.164 38.8142 160.267C38.6992 160.339 38.5641 160.374 38.4283 160.365L38.4283 160.388ZM180.937 156.497C180.811 156.498 180.687 156.464 180.578 156.398C180.266 156.199 180.171 155.786 180.363 155.469C180.857 154.684 181.337 153.885 181.795 153.091C181.915 152.882 182.137 152.754 182.378 152.754C182.618 152.754 182.841 152.882 182.961 153.09C183.082 153.299 183.082 153.556 182.961 153.764C182.513 154.572 182.006 155.384 181.507 156.183C181.38 156.372 181.166 156.484 180.937 156.479V156.497ZM34.4208 154.082C34.1802 154.083 33.9577 153.954 33.8374 153.746C33.3887 152.938 32.9085 152.112 32.4687 151.291C32.3102 150.966 32.4365 150.574 32.7548 150.403C33.0731 150.232 33.4698 150.343 33.6534 150.654C34.1022 151.466 34.5509 152.278 34.9997 153.073C35.1684 153.39 35.0601 153.784 34.7529 153.97C34.6532 154.035 34.5391 154.073 34.4208 154.082V154.082ZM184.617 149.985C184.511 149.984 184.407 149.958 184.312 149.909C183.983 149.743 183.85 149.341 184.016 149.012C184.433 148.186 184.846 147.342 185.232 146.512C185.39 146.175 185.79 146.029 186.127 146.187C186.464 146.344 186.61 146.745 186.453 147.082C186.058 147.926 185.641 148.778 185.214 149.622C185.099 149.846 184.869 149.986 184.617 149.985L184.617 149.985ZM30.9923 147.508C30.7299 147.509 30.4912 147.357 30.382 147.118C29.9871 146.274 29.6012 145.413 29.2332 144.556C29.1177 144.332 29.1369 144.062 29.2829 143.857C29.4289 143.652 29.6773 143.545 29.9266 143.581C30.176 143.616 30.3846 143.788 30.4673 144.026C30.8308 144.87 31.2122 145.718 31.5981 146.548C31.7549 146.885 31.6107 147.286 31.275 147.446C31.1819 147.487 31.0809 147.509 30.9789 147.508H30.9923ZM187.7 143.187C187.614 143.187 187.529 143.171 187.449 143.138C187.105 142.998 186.938 142.607 187.077 142.262C187.422 141.41 187.754 140.535 188.073 139.669C188.197 139.32 188.579 139.139 188.928 139.263C189.276 139.386 189.458 139.769 189.334 140.117C189.015 141.015 188.674 141.885 188.324 142.756C188.225 143.021 187.969 143.193 187.687 143.187H187.7ZM28.1383 140.642C27.8542 140.64 27.6015 140.461 27.5056 140.194C27.187 139.296 26.8728 138.421 26.5811 137.528C26.496 137.297 26.544 137.037 26.7064 136.852C26.8689 136.667 27.1196 136.585 27.3601 136.639C27.6006 136.693 27.7924 136.874 27.8601 137.111C28.1473 137.986 28.4569 138.87 28.7576 139.731C28.8838 140.081 28.7031 140.467 28.3537 140.593C28.2808 140.623 28.2034 140.639 28.1248 140.642H28.1383ZM190.177 136.155C190.112 136.156 190.047 136.145 189.985 136.124C189.813 136.073 189.669 135.955 189.585 135.798C189.5 135.64 189.483 135.455 189.536 135.284C189.801 134.387 190.056 133.489 190.294 132.619C190.391 132.26 190.76 132.047 191.12 132.143C191.479 132.24 191.692 132.609 191.596 132.969C191.353 133.866 191.093 134.764 190.824 135.661C190.732 135.947 190.464 136.139 190.164 136.133L190.177 136.155ZM25.8901 133.552C25.5867 133.552 25.3213 133.348 25.2439 133.054C24.9971 132.157 24.7683 131.228 24.5574 130.321C24.4876 129.965 24.7122 129.618 25.0652 129.536C25.4183 129.454 25.7731 129.666 25.8677 130.016C26.0786 130.914 26.3165 131.811 26.5408 132.709C26.5874 132.881 26.5635 133.065 26.4742 133.22C26.385 133.375 26.2378 133.488 26.0652 133.534C26.0027 133.543 25.9394 133.545 25.8767 133.539L25.8901 133.552ZM192.022 128.934H191.883C191.707 128.898 191.554 128.793 191.456 128.643C191.359 128.493 191.325 128.311 191.362 128.136C191.55 127.238 191.73 126.341 191.887 125.416C191.929 125.176 192.095 124.975 192.325 124.891C192.554 124.807 192.81 124.852 192.998 125.008C193.185 125.164 193.275 125.409 193.233 125.649C193.072 126.569 192.897 127.498 192.704 128.414C192.624 128.728 192.332 128.942 192.008 128.921L192.022 128.934ZM24.2655 126.26C23.9383 126.261 23.6581 126.026 23.6014 125.704C23.4398 124.775 23.2918 123.837 23.1526 122.921C23.1006 122.55 23.3597 122.206 23.7314 122.154C24.1031 122.102 24.4467 122.361 24.4989 122.733C24.6245 123.63 24.7726 124.555 24.9476 125.47C25.0102 125.837 24.7659 126.185 24.4002 126.251L24.2655 126.26ZM193.215 121.566H193.144C192.966 121.545 192.805 121.454 192.694 121.313C192.584 121.173 192.534 120.994 192.556 120.817C192.664 119.919 192.758 118.981 192.839 118.057C192.871 117.685 193.198 117.41 193.57 117.442C193.942 117.474 194.217 117.802 194.185 118.174C194.104 119.112 194.005 120.054 193.898 120.978C193.854 121.321 193.561 121.576 193.215 121.571V121.566ZM23.2962 118.874C22.9469 118.873 22.6555 118.607 22.6231 118.259C22.5423 117.326 22.475 116.379 22.4257 115.45C22.4058 115.078 22.6911 114.761 23.0629 114.741C23.4346 114.721 23.7521 115.006 23.7719 115.378C23.8213 116.275 23.8841 117.222 23.9649 118.142C23.9961 118.512 23.724 118.838 23.3546 118.874H23.2962ZM193.776 114.144V114.144C193.598 114.139 193.429 114.063 193.307 113.934C193.185 113.804 193.119 113.631 193.126 113.453C193.152 112.555 193.166 111.604 193.166 110.679V110.504C193.166 110.133 193.467 109.831 193.839 109.831C194.211 109.831 194.512 110.133 194.512 110.504V110.675C194.512 111.617 194.512 112.564 194.467 113.493C194.463 113.671 194.387 113.84 194.257 113.962C194.127 114.085 193.954 114.15 193.776 114.144V114.144ZM22.9687 111.451C22.5969 111.451 22.2955 111.15 22.2955 110.778V110.693C22.2955 109.795 22.2955 108.866 22.3359 107.965C22.3471 107.593 22.6574 107.301 23.0291 107.312C23.4008 107.323 23.6931 107.633 23.6822 108.005C23.6552 108.902 23.6418 109.8 23.6418 110.697V110.783C23.6393 111.153 23.3387 111.451 22.9687 111.451H22.9687ZM193.682 106.515C193.325 106.515 193.03 106.235 193.013 105.878C192.96 104.98 192.897 104.033 192.812 103.113C192.779 102.742 193.055 102.414 193.426 102.382C193.798 102.35 194.126 102.625 194.158 102.997C194.243 103.926 194.31 104.873 194.36 105.806C194.38 106.176 194.097 106.493 193.727 106.515L193.682 106.515ZM23.2828 103.993H23.2244C23.0465 103.978 22.8817 103.893 22.7664 103.757C22.6512 103.621 22.5947 103.444 22.6096 103.266C22.6904 102.333 22.7847 101.386 22.8924 100.462C22.937 100.09 23.2745 99.8245 23.6463 99.8692C24.018 99.9138 24.2832 100.251 24.2386 100.623C24.1309 101.521 24.0367 102.458 23.9604 103.378C23.9299 103.729 23.6346 103.997 23.2828 103.993H23.2828ZM192.946 99.1016C192.612 99.1004 192.329 98.8539 192.282 98.5227C192.152 97.6252 192.004 96.6963 191.833 95.7853C191.771 95.42 192.016 95.0729 192.381 95.009C192.556 94.9764 192.737 95.0156 192.883 95.1177C193.029 95.2198 193.128 95.3763 193.157 95.552C193.323 96.4764 193.471 97.4143 193.606 98.3342C193.657 98.7007 193.402 99.0394 193.036 99.0926C193.006 99.0991 192.976 99.1021 192.946 99.1016V99.1016ZM24.2386 96.6022H24.1219C23.9451 96.5727 23.7875 96.4733 23.6845 96.3265C23.5816 96.1797 23.5419 95.9977 23.5745 95.8213C23.7315 94.9014 23.911 93.9725 24.0995 93.057C24.1752 92.6928 24.5317 92.4589 24.8959 92.5344C25.2602 92.61 25.4942 92.9664 25.4188 93.3307C25.2303 94.2283 25.0553 95.1482 24.8983 96.0547C24.838 96.3717 24.5613 96.6014 24.2386 96.6022H24.2386ZM191.569 91.7826C191.249 91.7883 190.97 91.569 190.9 91.2576C190.689 90.3601 190.451 89.4626 190.222 88.5651C190.126 88.2058 190.339 87.8361 190.698 87.7394C191.057 87.6427 191.427 87.8555 191.524 88.2147C191.766 89.1125 191.995 90.037 192.21 90.9434C192.252 91.1178 192.222 91.3017 192.128 91.4542C192.034 91.6066 191.882 91.7152 191.708 91.7557C191.662 91.7682 191.616 91.7772 191.569 91.7826V91.7826ZM25.8317 89.3235C25.774 89.3247 25.7165 89.3171 25.6611 89.3011C25.3019 89.2067 25.0871 88.8392 25.181 88.4799C25.4233 87.5824 25.6791 86.6849 25.9528 85.7874C26.0176 85.5514 26.2054 85.3692 26.4432 85.3115C26.681 85.2538 26.9314 85.3297 27.0971 85.5097C27.2629 85.6898 27.3179 85.9455 27.2407 86.1778C26.9715 87.0753 26.7202 87.9728 26.4823 88.8434C26.3978 89.1313 26.1317 89.3276 25.8317 89.3235V89.3235ZM189.554 84.6072C189.267 84.6083 189.012 84.4283 188.916 84.1585C188.629 83.261 188.32 82.4039 188.019 81.5423C187.918 81.3113 187.954 81.0431 188.113 80.8474C188.272 80.6516 188.527 80.5612 188.774 80.613C189.02 80.6649 189.218 80.8503 189.284 81.0935C189.603 81.991 189.917 82.8616 190.209 83.7501C190.265 83.9227 190.249 84.1105 190.164 84.271C190.08 84.4315 189.934 84.5511 189.76 84.6027C189.692 84.6149 189.622 84.6164 189.554 84.6072H189.554ZM28.0709 82.2062C27.9929 82.2059 27.9155 82.1923 27.842 82.1658C27.4927 82.0393 27.3119 81.6536 27.4382 81.3042C27.7613 80.4067 28.0978 79.5316 28.4434 78.6655C28.581 78.32 28.9727 78.1514 29.3184 78.2889C29.664 78.4264 29.8328 78.818 29.6954 79.1637C29.3543 80.0208 29.0178 80.8913 28.7036 81.7619C28.6067 82.03 28.3515 82.208 28.0664 82.2062L28.0709 82.2062ZM186.928 77.6512C186.659 77.6502 186.416 77.4899 186.309 77.2429C185.95 76.3992 185.569 75.5511 185.178 74.7209C185.02 74.3839 185.164 73.9821 185.501 73.8235C185.838 73.6648 186.24 73.8093 186.399 74.1462C186.794 74.9946 187.18 75.8562 187.548 76.7089C187.624 76.8744 187.629 77.0638 187.562 77.2332C187.495 77.4026 187.362 77.5374 187.193 77.6064C187.105 77.6427 187.01 77.658 186.915 77.6512L186.928 77.6512ZM30.9205 75.3044C30.8227 75.3056 30.7259 75.2841 30.6378 75.2416C30.4749 75.1665 30.3486 75.0295 30.2871 74.861C30.2256 74.6925 30.2339 74.5064 30.3102 74.344C30.7051 73.5004 31.1179 72.6478 31.5443 71.8041C31.7128 71.472 32.1186 71.3394 32.4507 71.508C32.7828 71.6765 32.9154 72.0823 32.7469 72.4144C32.3251 73.2401 31.9167 74.0838 31.5308 74.914C31.4207 75.1518 31.1826 75.3042 30.9205 75.3044V75.3044ZM183.684 70.9515C183.436 70.9523 183.208 70.8158 183.092 70.597C182.643 69.7892 182.194 68.977 181.745 68.1827C181.574 67.8633 181.687 67.4658 182 67.2834C182.313 67.1009 182.714 67.1989 182.908 67.5051C183.379 68.3129 183.841 69.1386 184.281 69.9598C184.447 70.2837 184.326 70.6815 184.007 70.8573C183.91 70.9171 183.798 70.9496 183.684 70.9515L183.684 70.9515ZM34.367 68.6853C34.2486 68.687 34.1322 68.6559 34.0304 68.5955C33.8747 68.5072 33.7609 68.3601 33.7145 68.1872C33.6681 68.0143 33.693 67.83 33.7836 67.6756C34.2323 66.8678 34.7394 66.0556 35.233 65.2568C35.4301 64.9408 35.846 64.8444 36.1619 65.0414C36.4779 65.2384 36.5744 65.6543 36.3773 65.9703C35.8882 66.7556 35.408 67.5544 34.9503 68.3487C34.8307 68.5578 34.6078 68.6864 34.3669 68.6853H34.367ZM179.879 64.5568C179.651 64.5584 179.439 64.4453 179.313 64.2561C178.811 63.4888 178.286 62.7169 177.76 61.963C177.603 61.7675 177.567 61.5005 177.668 61.2706C177.769 61.0406 177.989 60.8859 178.24 60.8692C178.49 60.8525 178.729 60.9766 178.86 61.1912C179.398 61.954 179.928 62.7349 180.44 63.5157C180.538 63.665 180.573 63.8473 180.537 64.0224C180.5 64.1975 180.396 64.3511 180.247 64.4491C180.137 64.5211 180.009 64.5587 179.879 64.5568V64.5568ZM38.3743 62.3984C38.1232 62.3986 37.8929 62.259 37.7769 62.0364C37.6609 61.8138 37.6784 61.5451 37.8223 61.3394C38.3608 60.572 38.9172 59.8046 39.4782 59.0552C39.6962 58.7541 40.1171 58.6868 40.4182 58.9048C40.7193 59.1228 40.7867 59.5436 40.5688 59.8448C40.0167 60.581 39.4692 61.3349 38.9397 62.0888C38.8167 62.282 38.6033 62.3989 38.3742 62.3984H38.3743ZM175.53 58.4988C175.324 58.4985 175.129 58.4044 175.001 58.243C174.435 57.525 173.843 56.798 173.251 56.0935C173.037 55.8079 173.084 55.4057 173.356 55.176C173.629 54.9463 174.033 54.9689 174.278 55.2274C174.884 55.9454 175.481 56.6769 176.073 57.4083C176.233 57.611 176.263 57.8874 176.151 58.1197C176.038 58.352 175.802 58.4993 175.544 58.4988H175.53ZM42.9111 56.4659C42.6484 56.4669 42.4091 56.315 42.2983 56.0769C42.1874 55.8388 42.2252 55.5579 42.395 55.3575C43.0009 54.6395 43.6201 53.9215 44.2439 53.2304C44.3999 53.036 44.6506 52.9437 44.8955 52.9905C45.1404 53.0374 45.3393 53.2158 45.4124 53.4541C45.4856 53.6925 45.421 53.9517 45.2446 54.1279C44.6343 54.81 44.0195 55.5146 43.4496 56.2236C43.3206 56.3897 43.1214 56.486 42.9111 56.4839L42.9111 56.4659ZM170.67 52.876C170.485 52.8765 170.308 52.8001 170.181 52.6651C169.544 51.9875 168.893 51.3188 168.247 50.6771C167.983 50.4144 167.982 49.9875 168.245 49.7235C168.508 49.4596 168.934 49.4586 169.198 49.7213C169.854 50.3765 170.513 51.0675 171.159 51.7451C171.345 51.9394 171.397 52.2261 171.29 52.4728C171.183 52.7196 170.939 52.8784 170.67 52.876H170.67ZM47.9462 50.9911C47.6742 50.9909 47.429 50.8269 47.3249 50.5755C47.2208 50.3241 47.2783 50.0348 47.4706 49.8423C48.1347 49.1737 48.8168 48.4961 49.4899 47.8813C49.6649 47.7134 49.9166 47.6526 50.1489 47.7221C50.3812 47.7916 50.5582 47.9807 50.6122 48.217C50.6662 48.4534 50.5889 48.7006 50.4099 48.8641C49.7457 49.4878 49.0636 50.1385 48.4219 50.7937C48.2943 50.9171 48.1238 50.9863 47.9462 50.9866L47.9462 50.9911ZM165.321 47.6703C165.155 47.6706 164.994 47.6081 164.872 47.4953C164.19 46.885 163.486 46.2747 162.772 45.7003C162.487 45.4611 162.45 45.0362 162.689 44.7512C162.928 44.4661 163.353 44.429 163.638 44.6681C164.361 45.2695 165.079 45.8932 165.77 46.5125C165.904 46.6314 165.984 46.799 165.994 46.9778C166.003 47.1567 165.94 47.3317 165.819 47.4639C165.69 47.6 165.509 47.675 165.321 47.6703V47.6703ZM53.4343 45.9337C53.2354 45.9351 53.0463 45.848 52.9182 45.6959C52.6792 45.4104 52.7153 44.9856 52.999 44.7445C53.7125 44.1477 54.4439 43.5464 55.1799 42.9495C55.4724 42.7192 55.8962 42.7694 56.1266 43.0618C56.3571 43.3543 56.3069 43.7781 56.0145 44.0086C55.2876 44.5785 54.5651 45.1664 53.8651 45.7587C53.7477 45.8678 53.5944 45.93 53.4343 45.9337V45.9337ZM159.573 42.9272C159.427 42.9289 159.284 42.8815 159.169 42.7926C158.428 42.2406 157.674 41.6931 156.925 41.1681C156.672 41.059 156.511 40.8068 156.519 40.5315C156.527 40.2563 156.701 40.0134 156.96 39.9183C157.218 39.8233 157.508 39.8953 157.692 40.1001C158.455 40.6341 159.223 41.1905 159.976 41.7515C160.274 41.9745 160.334 42.3964 160.111 42.6939C159.98 42.856 159.781 42.9474 159.573 42.9407V42.9272ZM59.3354 41.3925C59.1151 41.3942 58.9084 41.2867 58.7834 41.1053C58.6793 40.9599 58.6378 40.7789 58.6681 40.6026C58.6985 40.4264 58.7982 40.2696 58.9449 40.1674C59.7033 39.6334 60.4886 39.1039 61.274 38.5878C61.5843 38.3997 61.9879 38.4914 62.1864 38.7953C62.3849 39.0991 62.3069 39.5056 62.0099 39.7142C61.2381 40.2213 60.4662 40.7463 59.7213 41.2714C59.6089 41.3536 59.4745 41.4005 59.3354 41.406V41.3925ZM153.416 38.6999C153.29 38.6982 153.168 38.6626 153.061 38.5966C152.28 38.112 151.477 37.6318 150.678 37.1696C150.453 37.0587 150.308 36.8313 150.302 36.5799C150.297 36.3285 150.432 36.095 150.653 35.9746C150.874 35.8541 151.143 35.8668 151.352 36.0074C152.164 36.4561 152.976 36.9632 153.77 37.4523C154.028 37.6099 154.149 37.92 154.067 38.2107C153.984 38.5015 153.718 38.7015 153.416 38.6999H153.416ZM65.6045 37.3537C65.2987 37.3561 65.0297 37.1521 64.9496 36.8569C64.8695 36.5618 64.9984 36.2498 65.2634 36.0972C66.0667 35.6485 66.8924 35.1728 67.7181 34.751C68.0429 34.5924 68.435 34.7187 68.6062 35.037C68.7774 35.3553 68.6667 35.752 68.3553 35.9357C67.5431 36.3844 66.7309 36.8332 65.9411 37.2819C65.8425 37.3539 65.7261 37.3974 65.6045 37.4076V37.3537ZM146.922 35.0786C146.816 35.0788 146.712 35.0542 146.617 35.0068C145.796 34.5894 144.952 34.1811 144.118 33.7906C143.781 33.6333 143.635 33.2325 143.792 32.8954C143.949 32.5584 144.35 32.4126 144.687 32.57C145.536 32.9649 146.388 33.3823 147.227 33.8041C147.506 33.9445 147.652 34.2584 147.58 34.5622C147.507 34.866 147.235 35.0798 146.922 35.0786V35.0786ZM72.201 33.9476C71.8855 33.947 71.6128 33.7274 71.5449 33.4192C71.477 33.1111 71.6322 32.7972 71.9183 32.6641C72.762 32.2692 73.628 31.8833 74.4807 31.5153C74.8227 31.3691 75.2185 31.5278 75.3647 31.8698C75.5109 32.2119 75.3522 32.6077 75.0102 32.7539C74.171 33.1129 73.3229 33.4943 72.4882 33.8847C72.3958 33.9287 72.2943 33.9502 72.192 33.9476H72.201ZM140.11 32.0226C140.026 32.0214 139.942 32.0047 139.864 31.9733C139.006 31.6322 138.131 31.2956 137.265 30.9815C136.942 30.8398 136.783 30.4727 136.901 30.1402C137.019 29.8077 137.374 29.6226 137.714 29.7161C138.612 30.0347 139.482 30.3757 140.353 30.7212C140.657 30.8383 140.834 31.1569 140.772 31.4772C140.71 31.7975 140.428 32.0274 140.101 32.0226H140.11ZM79.0803 31.125C78.7528 31.1268 78.4715 30.8926 78.4139 30.5702C78.3563 30.2479 78.539 29.9308 78.8469 29.8191C79.722 29.496 80.615 29.1863 81.508 28.8947C81.8612 28.7782 82.2419 28.9701 82.3584 29.3232C82.4749 29.6764 82.283 30.0571 81.9298 30.1736C81.0323 30.4608 80.1707 30.7659 79.3091 31.0711C79.2275 31.0941 79.1422 31.1018 79.0578 31.0935L79.0803 31.125ZM133.083 29.5679C133.018 29.5678 132.953 29.5587 132.89 29.5409C131.992 29.2717 131.095 29.0204 130.224 28.7825C129.984 28.729 129.792 28.5482 129.724 28.3113C129.656 28.0745 129.723 27.8194 129.898 27.6463C130.074 27.4732 130.33 27.4099 130.565 27.4812C131.463 27.7235 132.36 27.9793 133.258 28.2485C133.58 28.3425 133.784 28.6598 133.736 28.9922C133.687 29.3245 133.401 29.5701 133.065 29.5679H133.083ZM86.1571 28.8454C85.7854 28.8937 85.4449 28.6316 85.3965 28.2599C85.3481 27.8882 85.6102 27.5476 85.9819 27.4992C86.8796 27.2523 87.8085 27.0235 88.715 26.8126C88.9491 26.7571 89.195 26.8308 89.36 27.0059C89.525 27.181 89.584 27.4308 89.5149 27.6612C89.4457 27.8917 89.2588 28.0676 89.0247 28.1229C88.1271 28.3293 87.2296 28.5717 86.3321 28.796C86.2767 28.8214 86.2176 28.838 86.1571 28.8454V28.8454ZM125.831 27.7056H125.692C124.795 27.5172 123.897 27.3421 122.973 27.1851C122.732 27.1443 122.532 26.9783 122.447 26.7495C122.362 26.5207 122.405 26.2641 122.561 26.0762C122.717 25.8883 122.961 25.7978 123.201 25.8388C124.099 26.0004 125.05 26.1754 125.966 26.3684C126.338 26.4055 126.609 26.737 126.572 27.1088C126.534 27.4806 126.203 27.7518 125.831 27.7146L125.831 27.7056ZM93.4314 27.2255C93.0597 27.2577 92.7322 26.9825 92.6999 26.6107C92.6677 26.2389 92.943 25.9114 93.3147 25.8792C94.2436 25.7132 95.1815 25.5651 96.097 25.4305C96.4687 25.3784 96.8122 25.6375 96.8643 26.0092C96.9165 26.3809 96.6574 26.7245 96.2857 26.7767C95.388 26.9024 94.4635 27.0505 93.5481 27.2255C93.5093 27.2299 93.4702 27.2299 93.4314 27.2255V27.2255ZM118.485 26.5118H118.409C117.511 26.4041 116.564 26.3099 115.649 26.2336C115.408 26.2136 115.197 26.0668 115.094 25.8485C114.991 25.6302 115.012 25.3735 115.15 25.1752C115.288 24.977 115.521 24.8672 115.761 24.8874C116.69 24.9637 117.632 25.0579 118.566 25.1701C118.938 25.1925 119.221 25.5119 119.198 25.8836C119.176 26.2552 118.857 26.5385 118.485 26.5163V26.5118ZM100.818 26.2516C100.446 26.2675 100.132 25.9793 100.116 25.6076C100.1 25.2359 100.388 24.9215 100.76 24.9053C101.697 24.82 102.64 24.7527 103.569 24.7034C103.94 24.6835 104.258 24.9688 104.278 25.3406C104.298 25.7123 104.012 26.0298 103.64 26.0496C102.743 26.099 101.801 26.1663 100.876 26.2426L100.818 26.2516ZM111.058 25.9599H111.022C110.147 25.933 109.259 25.9195 108.379 25.9195H108.249C107.877 25.9195 107.576 25.6181 107.576 25.2464C107.576 24.8746 107.877 24.5732 108.249 24.5732H108.379C109.277 24.5732 110.174 24.5732 111.072 24.6181C111.443 24.6181 111.745 24.9195 111.745 25.2912C111.745 25.663 111.443 25.9644 111.072 25.9644L111.058 25.9599Z" fill="#F94F24"/>
<g style="mix-blend-mode:multiply">
<path fill-rule="evenodd" clip-rule="evenodd" d="M177.725 121.66C179.129 113.354 181.638 102.364 177.007 94.6546C176.419 93.6853 177.155 92.7788 178.016 92.6128C169.741 83.3083 157.117 79.1462 144.93 81.7037C135.15 67.5879 118.019 60.4957 101.124 63.5681C84.2281 66.6406 70.6905 79.3098 66.5064 95.965C56.4764 94.9157 46.6856 99.4847 41.047 107.846C35.4084 116.207 34.8416 126.996 39.5733 135.902C44.3049 144.808 53.5632 150.378 63.6479 150.385H152.083C159.564 150.385 165.492 148.41 171.043 142.864C174.282 136.156 176.533 129.014 177.725 121.66V121.66Z" fill="#EBEBEB"/>
</g>
<path fill-rule="evenodd" clip-rule="evenodd" d="M148.897 77.4762C146.494 77.4772 144.097 77.7253 141.744 78.2166C131.964 64.1008 114.833 57.0086 97.9375 60.0811C81.0419 63.1535 67.5043 75.8228 63.3203 92.4779C62.372 92.3809 61.4195 92.3315 60.4663 92.3298C50.6345 92.2039 41.4952 97.3769 36.5426 105.871C31.59 114.365 31.59 124.867 36.5426 133.361C41.4952 141.855 50.6346 147.028 60.4664 146.902H148.897C167.915 146.686 183.218 131.208 183.218 112.189C183.218 93.1705 167.915 77.6924 148.897 77.4762V77.4762Z" fill="url(#paint1_linear)"/>
<path fill-rule="evenodd" clip-rule="evenodd" d="M60.4617 96.5349C61.4165 96.5342 62.3707 96.5836 63.3203 96.683C67.5024 80.0275 81.0392 67.3573 97.9346 64.2847C114.83 61.2121 131.961 68.3051 141.739 82.4217C144.094 81.9306 146.492 81.6825 148.897 81.6813C167.192 81.6832 182.344 95.8869 183.527 114.144C183.572 113.394 183.608 112.636 183.608 111.873C183.608 92.7029 168.067 77.1624 148.897 77.1624C146.492 77.1636 144.094 77.4117 141.739 77.9028C131.962 63.7861 114.833 56.692 97.9378 59.7626C81.0427 62.8332 67.5048 75.501 63.3203 92.1551C55.6272 91.3375 47.9491 93.827 42.1994 99.0032C36.4498 104.179 33.1701 111.555 33.1777 119.291C33.1777 120.054 33.2181 120.808 33.281 121.557C34.455 107.417 46.2728 96.5376 60.4617 96.5349V96.5349Z" fill="#C4ECEC"/>
<path fill-rule="evenodd" clip-rule="evenodd" d="M27.0299 112.946C27.0307 114.711 25.9666 116.306 24.3337 116.983C22.7007 117.66 20.8206 117.287 19.5699 116.038C18.3192 114.788 17.9444 112.908 18.6201 111.275C19.2958 109.641 20.8891 108.576 22.6569 108.575C23.8165 108.574 24.9288 109.034 25.7489 109.854C26.5691 110.674 27.0299 111.786 27.0299 112.946V112.946Z" fill="white"/>
<path fill-rule="evenodd" clip-rule="evenodd" d="M22.6591 117.989C20.619 117.989 18.7798 116.76 17.9991 114.876C17.2184 112.991 17.6499 110.821 19.0925 109.379C20.535 107.936 22.7045 107.505 24.5893 108.285C26.4741 109.066 27.703 110.905 27.703 112.945C27.7007 115.73 25.444 117.987 22.6593 117.989H22.6591ZM22.6591 109.248C21.1635 109.248 19.8152 110.149 19.2429 111.53C18.6705 112.912 18.9869 114.503 20.0444 115.56C21.102 116.618 22.6924 116.934 24.0742 116.362C25.4559 115.789 26.3568 114.441 26.3568 112.945C26.3568 110.903 24.7013 109.248 22.6591 109.248V109.248Z" fill="#F94F24"/>
<path fill-rule="evenodd" clip-rule="evenodd" d="M46.7569 169.196C46.7569 174.936 42.1038 179.589 36.3639 179.589C30.624 179.589 25.9708 174.936 25.9708 169.196C25.9708 163.456 30.624 158.803 36.3639 158.803C42.1038 158.803 46.7569 163.456 46.7569 169.196V169.196Z" fill="#F2F2F2"/>
<path fill-rule="evenodd" clip-rule="evenodd" d="M218.722 143.46C218.725 147.663 216.194 151.455 212.31 153.065C208.426 154.676 203.955 153.788 200.982 150.815C198.008 147.843 197.118 143.371 198.728 139.487C200.337 135.603 204.128 133.071 208.332 133.072C211.088 133.071 213.73 134.166 215.679 136.114C217.628 138.062 218.722 140.705 218.722 143.46L218.722 143.46Z" fill="#F2F2F2"/>
<path fill-rule="evenodd" clip-rule="evenodd" d="M185.232 164.951C185.23 171.076 180.263 176.041 174.137 176.039C168.011 176.038 163.045 171.071 163.046 164.945C163.046 158.819 168.012 153.853 174.138 153.853C177.081 153.853 179.904 155.022 181.984 157.103C184.065 159.185 185.233 162.008 185.232 164.951V164.951Z" fill="white"/>
<path fill-rule="evenodd" clip-rule="evenodd" d="M174.139 176.717C169.377 176.719 165.084 173.852 163.261 169.453C161.438 165.054 162.444 159.99 165.811 156.623C169.178 153.256 174.242 152.249 178.641 154.072C183.04 155.896 185.907 160.189 185.905 164.951C185.898 171.446 180.634 176.71 174.139 176.717H174.139ZM174.139 154.526C169.922 154.524 166.12 157.063 164.505 160.958C162.89 164.853 163.781 169.338 166.762 172.32C169.743 175.303 174.227 176.195 178.123 174.582C182.019 172.969 184.559 169.167 184.559 164.951C184.551 159.199 179.891 154.538 174.139 154.531L174.139 154.526Z" fill="#F94F24"/>
<g style="mix-blend-mode:multiply">
<path fill-rule="evenodd" clip-rule="evenodd" d="M92.8571 127.481C92.2334 127.482 91.6353 127.233 91.1967 126.79L82.5314 118.129C81.6157 117.209 81.6157 115.723 82.5314 114.803L91.1922 106.152C92.1094 105.235 93.5955 105.236 94.5122 106.152C95.4288 107.069 95.4292 108.555 94.513 109.472L87.517 116.468L94.5175 123.469C95.188 124.141 95.3883 125.151 95.0251 126.028C94.662 126.906 93.8067 127.479 92.8571 127.481H92.8571Z" fill="#CCCCCC"/>
<path fill-rule="evenodd" clip-rule="evenodd" d="M125.436 127.481C124.487 127.479 123.631 126.906 123.268 126.028C122.905 125.151 123.105 124.141 123.776 123.469L130.767 116.473L123.767 109.472C123.173 108.879 122.941 108.014 123.158 107.204C123.375 106.393 124.009 105.76 124.819 105.543C125.63 105.326 126.495 105.558 127.088 106.151L135.753 114.812C136.669 115.732 136.669 117.218 135.753 118.138L127.092 126.79C126.655 127.232 126.058 127.481 125.436 127.481V127.481Z" fill="#CCCCCC"/>
<path fill-rule="evenodd" clip-rule="evenodd" d="M113.571 127.481C112.705 127.482 111.908 127.006 111.498 126.242L102.214 108.92C101.601 107.776 102.032 106.353 103.176 105.741C104.32 105.129 105.743 105.56 106.356 106.703L115.64 124.016C116.032 124.744 116.012 125.624 115.588 126.334C115.164 127.043 114.398 127.477 113.571 127.476L113.571 127.481Z" fill="#CCCCCC"/>
</g>
<path fill-rule="evenodd" clip-rule="evenodd" d="M91.3537 125.977C90.731 125.978 90.1335 125.731 89.6933 125.291L81.0324 116.626C80.5896 116.187 80.3405 115.589 80.3405 114.965C80.3405 114.342 80.5896 113.744 81.0324 113.305L89.6888 104.648C90.6165 103.791 92.0563 103.819 92.9491 104.713C93.8419 105.607 93.8686 107.047 93.0096 107.974L86.0135 114.965L93.014 121.966C93.6846 122.638 93.8848 123.648 93.5217 124.525C93.1586 125.403 92.3033 125.976 91.3537 125.977V125.977Z" fill="white"/>
<path fill-rule="evenodd" clip-rule="evenodd" d="M123.933 125.977C122.983 125.975 122.128 125.402 121.765 124.525C121.402 123.647 121.602 122.638 122.273 121.965L129.269 114.974L122.268 107.973C121.636 107.388 121.373 106.504 121.585 105.669C121.797 104.833 122.449 104.181 123.284 103.968C124.119 103.755 125.003 104.016 125.589 104.648L134.254 113.309C135.17 114.228 135.17 115.715 134.254 116.634L125.593 125.29C125.153 125.731 124.556 125.978 123.933 125.977H123.933Z" fill="white"/>
<path fill-rule="evenodd" clip-rule="evenodd" d="M112.068 125.977C111.201 125.978 110.405 125.502 109.995 124.739L100.701 107.412C100.088 106.27 100.517 104.846 101.659 104.233C102.802 103.619 104.225 104.048 104.839 105.191L114.123 122.508C114.515 123.236 114.495 124.116 114.071 124.826C113.647 125.535 112.881 125.969 112.055 125.968L112.068 125.977Z" fill="white"/>
<path fill-rule="evenodd" clip-rule="evenodd" d="M200.144 118.088L200.05 117.639C219.656 113.339 234.507 97.2776 237.26 77.3949C240.013 57.5121 230.085 38.0199 212.385 28.5542C194.684 19.0886 172.96 21.6547 157.953 34.984L157.656 34.6519C172.807 21.2126 194.725 18.6331 212.582 28.1879C230.438 37.7427 240.453 57.4091 237.677 77.4702C234.902 97.5312 219.924 113.74 200.144 118.088H200.144Z" fill="#F94F24"/>
<path fill-rule="evenodd" clip-rule="evenodd" d="M22.9687 135.876C10.4281 135.701 0.354024 125.485 0.354004 112.943C0.353983 100.401 10.428 90.1852 22.9686 90.0096C28.0084 89.9933 32.9104 91.6542 36.9024 94.7305L36.6331 95.0895C32.7182 92.0726 27.9111 90.4434 22.9687 90.4584C10.6747 90.6322 0.799707 100.648 0.799714 112.943C0.799721 125.238 10.6747 135.254 22.9687 135.428C26.5024 135.436 29.987 134.6 33.1329 132.991L33.3393 133.395C30.1281 135.032 26.5734 135.883 22.9687 135.876V135.876Z" fill="#F94F24"/>
<defs>
<linearGradient id="paint0_linear" x1="-8.9173" y1="258.013" x2="77.3022" y2="96.8407" gradientUnits="userSpaceOnUse">
<stop stop-color="#8033EB"/>
<stop offset="0.53" stop-color="#D4648E"/>
<stop offset="1" stop-color="#EC7071"/>
</linearGradient>
<linearGradient id="paint1_linear" x1="267.523" y1="207.142" x2="257.42" y2="41.7439" gradientUnits="userSpaceOnUse">
<stop stop-color="#8033EB"/>
<stop offset="1" stop-color="#A2E1E0"/>
</linearGradient>
</defs>
</svg>
