<svg width="223" height="165" viewBox="0 0 223 165" fill="none" xmlns="http://www.w3.org/2000/svg">
<rect x="41.7716" y="101.765" width="67.3918" height="41.9727" fill="#EEE8FA"/>
<path fill-rule="evenodd" clip-rule="evenodd" d="M217.379 143.738C217.382 151.852 212.495 159.17 204.997 162.278C197.499 165.386 188.867 163.671 183.127 157.932C177.387 152.194 175.67 143.563 178.775 136.064C181.881 128.565 189.199 123.676 197.315 123.677C202.636 123.676 207.739 125.789 211.502 129.552C215.265 133.314 217.379 138.417 217.379 143.738V143.738Z" fill="#F2F2F2"/>
<path fill-rule="evenodd" clip-rule="evenodd" d="M1.03784 51.3417V50.6197C1.03784 47.2879 2.2158 44.444 4.57173 42.0881C6.92766 39.7322 9.77151 38.5542 13.1033 38.5542H70.4439C73.7757 38.5542 76.6196 39.7322 78.9755 42.0881C81.3314 44.444 82.5094 47.2879 82.5094 50.6197V52.0637C82.5094 55.3955 81.3314 58.2394 78.9755 60.5953C76.6196 62.9512 73.7757 64.1292 70.4439 64.1292H13.1033C9.77151 64.1292 6.92766 62.9512 4.57173 60.5953C2.2158 58.2394 1.03784 55.3955 1.03784 52.0637V51.3417Z" fill="#F2F2F2"/>
<path fill-rule="evenodd" clip-rule="evenodd" d="M154.685 97.2033C154.676 101.778 150.962 105.482 146.387 105.478C141.812 105.474 138.104 101.765 138.102 97.1899C138.101 92.6145 141.806 88.9027 146.381 88.8958C148.585 88.8924 150.7 89.7667 152.258 91.3255C153.816 92.8843 154.689 94.9994 154.685 97.2033V97.2033Z" fill="#F2F2F2"/>
<path fill-rule="evenodd" clip-rule="evenodd" d="M41.7675 144.563C41.37 144.572 41.0231 144.295 40.9443 143.905C40.8656 143.515 41.0776 143.125 41.4475 142.979C41.7019 142.872 67.3589 131.902 95.9738 110.98C112.761 98.7049 127.272 85.4538 139.091 71.5956C153.86 54.2995 164.436 36.0105 170.566 17.2375C170.707 16.8058 171.172 16.5707 171.603 16.7124C172.035 16.854 172.27 17.3187 172.129 17.7503C165.934 36.7367 155.234 55.2184 140.33 72.6787C128.433 86.6272 113.812 99.9726 96.9133 112.325C68.1507 133.351 42.3501 144.382 42.0875 144.493C41.9866 144.537 41.8778 144.561 41.7675 144.563V144.563Z" fill="#F94F24"/>
<path fill-rule="evenodd" clip-rule="evenodd" d="M175.689 144.563C175.578 144.563 175.468 144.541 175.365 144.497C175.111 144.386 149.52 133.35 120.974 112.325C104.203 99.9724 89.6928 86.6352 77.8694 72.6826C63.0553 55.2183 52.4011 36.7365 46.2063 17.7542C46.0648 17.3215 46.3009 16.856 46.7336 16.7144C47.1663 16.5729 47.6319 16.8088 47.7735 17.2415C53.8985 36.0227 64.4501 54.3157 79.1248 71.616C90.8785 85.4742 105.295 98.7212 121.963 111C150.361 131.923 175.772 142.872 176.026 142.999C176.391 143.149 176.597 143.537 176.518 143.923C176.439 144.31 176.096 144.585 175.702 144.579L175.689 144.563Z" fill="#BFA9EB"/>
<path fill-rule="evenodd" clip-rule="evenodd" d="M0.935303 19.3296H3.52809C5.09114 19.3296 6.12087 20.1501 6.12087 21.5244V21.5244C6.12087 23.0177 4.89012 23.789 3.40091 23.789H1.71888V26.2505H0.935303V19.3296ZM3.42949 23.0956C4.57819 23.0956 5.32895 22.4843 5.32895 21.5735V21.553C5.32895 20.5643 4.5864 20.0515 3.47052 20.0515H1.71875V23.0956L3.42949 23.0956Z" fill="#6731CF"/>
<path fill-rule="evenodd" clip-rule="evenodd" d="M7.54443 19.3297H10.5187C11.2405 19.2894 11.9488 19.5373 12.4879 20.0189C12.8403 20.3853 13.0322 20.8769 13.0213 21.385H13.0213C13.0213 22.5337 12.2295 23.2024 11.1423 23.4035L13.2674 26.2301H12.3115L10.3013 23.5388H8.32391V26.2301H7.54443V19.3297ZM10.4491 22.8576C11.487 22.8576 12.2296 22.3243 12.2296 21.4341V21.4341C12.2296 20.5848 11.5773 20.072 10.4614 20.072H8.32397V22.8453L10.4491 22.8576Z" fill="#6731CF"/>
<path fill-rule="evenodd" clip-rule="evenodd" d="M14.7607 19.3296H15.5443V26.2505H14.7607V19.3296Z" fill="#6731CF"/>
<path fill-rule="evenodd" clip-rule="evenodd" d="M17.2633 22.8087V22.8087C17.2388 21.8661 17.5971 20.9539 18.2564 20.2799C18.9157 19.6059 19.8199 19.2276 20.7627 19.2313C21.7779 19.1993 22.7595 19.5971 23.4662 20.3266L22.9288 20.901C22.3648 20.3001 21.5786 19.9575 20.7545 19.9533C20.0184 19.9614 19.3172 20.2684 18.812 20.8038C18.3068 21.3392 18.041 22.0569 18.0755 22.7922V22.7922C18.0376 23.5316 18.3013 24.2546 18.8063 24.796C19.3113 25.3373 20.0143 25.6505 20.7545 25.664C21.6072 25.6628 22.4195 25.3006 22.9903 24.6671L23.5032 25.1717C22.8053 25.9682 21.7929 26.4182 20.734 26.4024C19.7899 26.4089 18.8845 26.0282 18.2287 25.3491C17.5729 24.67 17.2239 23.7519 17.2633 22.8087V22.8087Z" fill="#6731CF"/>
<path fill-rule="evenodd" clip-rule="evenodd" d="M24.8694 19.3296H29.8703V20.0393H25.6489V22.4024H29.4273V23.1162H25.6489V25.5408H29.9196V26.2505H24.8694V19.3296Z" fill="#6731CF"/>
<path fill-rule="evenodd" clip-rule="evenodd" d="M47.9829 163.488C46.915 164.314 45.4704 164.46 44.2582 163.866C43.046 163.272 42.2773 162.04 42.2763 160.69V160.669C42.2575 159.721 42.6231 158.805 43.2899 158.13C43.9568 157.456 44.8682 157.08 45.8168 157.088C46.7613 157.075 47.6702 157.448 48.3343 158.119C48.9983 158.791 49.3602 159.704 49.3367 160.649V160.649C49.3456 161.495 49.055 162.318 48.5163 162.971L49.4352 163.734L48.9019 164.316L47.9829 163.488ZM47.4086 162.983L46.1245 161.883L46.6496 161.301L47.9255 162.458C48.3187 161.945 48.5308 161.316 48.5286 160.669V160.649C48.5609 159.902 48.2881 159.174 47.7727 158.632C47.2574 158.09 46.5439 157.782 45.7963 157.777C45.056 157.779 44.3487 158.084 43.8377 158.62C43.3268 159.155 43.0563 159.876 43.0887 160.616V160.616C43.0564 161.362 43.3287 162.089 43.8431 162.631C44.3575 163.172 45.0699 163.482 45.8168 163.488C46.3884 163.498 46.9476 163.321 47.4086 162.983V162.983Z" fill="#6731CF"/>
<path fill-rule="evenodd" clip-rule="evenodd" d="M50.8792 161.211V157.186H51.6627V161.161C51.6627 162.655 52.4504 163.496 53.7755 163.496C55.1006 163.496 55.8637 162.724 55.8637 161.211V157.186H56.6473V161.153C56.6473 163.172 55.4904 164.218 53.7755 164.218C52.0607 164.218 50.8792 163.172 50.8792 161.211V161.211Z" fill="#6731CF"/>
<path fill-rule="evenodd" clip-rule="evenodd" d="M60.8071 157.137H61.5415L64.6963 164.111H63.8553L63.0348 162.281H59.2687L58.4482 164.111H57.6482L60.8071 157.137ZM62.7353 161.576L61.164 158.047L59.5804 161.576H62.7353Z" fill="#6731CF"/>
<path fill-rule="evenodd" clip-rule="evenodd" d="M66.0582 157.186H66.7926L71.1535 162.741V157.186H71.9125V164.111H71.3053L66.8213 158.433V164.111H66.0582L66.0582 157.186Z" fill="#6731CF"/>
<path fill-rule="evenodd" clip-rule="evenodd" d="M75.6993 157.908H73.3773V157.186H78.8172V157.908H76.4911V164.111H75.6993V157.908Z" fill="#6731CF"/>
<path fill-rule="evenodd" clip-rule="evenodd" d="M80.3311 157.186H81.1516V164.111H80.3311V157.186Z" fill="#6731CF"/>
<path fill-rule="evenodd" clip-rule="evenodd" d="M84.9874 157.908H82.6613V157.186H88.1012V157.908H85.7792V164.111H84.9874V157.908Z" fill="#6731CF"/>
<path fill-rule="evenodd" clip-rule="evenodd" d="M91.7317 161.371L88.86 157.186H89.8077L92.142 160.649L94.4968 157.186H95.4076L92.5358 161.358V164.111H91.7481L91.7317 161.371Z" fill="#6731CF"/>
<path fill-rule="evenodd" clip-rule="evenodd" d="M210.815 144.813H41.7675C41.1739 144.813 40.6926 144.332 40.6926 143.738V12.048C40.6926 11.4544 41.1739 10.9731 41.7675 10.9731C42.3611 10.9731 42.8423 11.4544 42.8423 12.048L42.8423 142.663H210.815C211.408 142.665 211.888 143.145 211.888 143.738C211.888 144.331 211.408 144.812 210.815 144.813V144.813Z" fill="#6731CF"/>
<g style="mix-blend-mode:multiply">
<path fill-rule="evenodd" clip-rule="evenodd" d="M122.894 56.6583C122.891 64.5252 116.516 70.8937 108.656 70.8899C100.796 70.8861 94.4274 64.5113 94.4313 56.6514C94.4351 48.7915 100.81 42.4229 108.67 42.4268C116.527 42.4306 122.894 48.8012 122.894 56.6583V56.6583Z" fill="#F2F2F2"/>
</g>
<path fill-rule="evenodd" clip-rule="evenodd" d="M119.715 56.6585C119.715 62.7761 114.756 67.7353 108.638 67.7353C102.521 67.7353 97.5615 62.7761 97.5615 56.6585C97.5615 50.541 102.521 45.5818 108.638 45.5818C114.756 45.5818 119.715 50.541 119.715 56.6585V56.6585Z" fill="url(#paint0_linear)"/>
<g style="mix-blend-mode:multiply">
<path fill-rule="evenodd" clip-rule="evenodd" d="M109.459 60.4778C109.161 60.477 108.875 60.3591 108.663 60.1496L106.423 57.9055C105.985 57.4682 105.984 56.7583 106.421 56.3199C106.858 55.8815 107.568 55.8805 108.007 56.3178L109.459 57.766L113.467 53.7579C113.911 53.3564 114.592 53.3736 115.016 53.797C115.439 54.2204 115.456 54.9013 115.055 55.3455L110.251 60.1496C110.041 60.3596 109.756 60.4777 109.459 60.4778V60.4778Z" fill="#CCCCCC"/>
</g>
<path fill-rule="evenodd" clip-rule="evenodd" d="M108.81 59.8337C108.513 59.835 108.228 59.7167 108.019 59.5055L105.766 57.2656C105.365 56.8213 105.382 56.1404 105.806 55.717C106.229 55.2937 106.91 55.2764 107.354 55.6779L108.802 57.1261L112.81 53.1138C113.255 52.7124 113.936 52.7296 114.359 53.153C114.782 53.5763 114.799 54.2573 114.398 54.7015L109.598 59.5055C109.389 59.715 109.106 59.833 108.81 59.8337V59.8337Z" fill="#F2F2F2"/>
<path fill-rule="evenodd" clip-rule="evenodd" d="M109.701 74.4753C109.421 74.461 109.2 74.2347 109.191 73.9551C109.183 73.6754 109.39 73.436 109.668 73.4046C110.391 73.3599 111.11 73.2694 111.822 73.1338C112.114 73.0784 112.396 73.2703 112.452 73.5625C112.507 73.8548 112.315 74.1367 112.023 74.1923C111.265 74.336 110.499 74.4306 109.73 74.4753H109.701ZM105.976 74.2992H105.89C105.129 74.1788 104.377 74.0102 103.637 73.7946C103.441 73.7518 103.285 73.6032 103.233 73.4094C103.181 73.2156 103.241 73.0089 103.389 72.8733C103.537 72.7378 103.748 72.6959 103.937 72.7649C104.633 72.9672 105.341 73.1248 106.058 73.2367C106.33 73.2846 106.522 73.5314 106.501 73.8073C106.479 74.0831 106.252 74.2978 105.976 74.3034L105.976 74.2992ZM115.489 73.1095C115.236 73.1085 115.017 72.9298 114.965 72.6811C114.914 72.4325 115.044 72.1817 115.276 72.0798C115.941 71.7945 116.587 71.4655 117.208 71.0952C117.374 70.9899 117.583 70.9829 117.755 71.0768C117.927 71.1707 118.034 71.3507 118.035 71.5466C118.035 71.7425 117.929 71.9232 117.758 72.0183C117.099 72.4129 116.413 72.7624 115.707 73.0644C115.639 73.0967 115.565 73.1122 115.489 73.1095V73.1095ZM100.343 72.3792C100.253 72.3799 100.164 72.3573 100.085 72.3136C99.4082 71.9473 98.7572 71.5361 98.1358 71.0828C97.9641 70.9767 97.8663 70.7832 97.8826 70.582C97.899 70.3807 98.0268 70.2057 98.2135 70.1287C98.4001 70.0518 98.6142 70.0859 98.7676 70.2172C99.352 70.6464 99.9646 71.0356 100.601 71.3823C100.861 71.5263 100.954 71.8531 100.811 72.1125C100.716 72.2806 100.536 72.3831 100.343 72.3792L100.343 72.3792ZM120.466 69.8562C120.247 69.8542 120.051 69.7195 119.971 69.5157C119.89 69.3119 119.942 69.0798 120.101 68.929C120.63 68.4336 121.128 67.9046 121.59 67.3455C121.787 67.154 122.097 67.1425 122.308 67.3187C122.52 67.495 122.564 67.8022 122.41 68.0306C121.92 68.6255 121.391 69.1874 120.827 69.7126C120.729 69.8049 120.6 69.8562 120.466 69.8562V69.8562ZM95.6948 68.6623C95.5384 68.6642 95.3888 68.5984 95.2846 68.4818C94.775 67.9049 94.3023 67.2965 93.8692 66.6603C93.7027 66.4144 93.7669 66.0801 94.0128 65.9136C94.2586 65.7471 94.5929 65.8114 94.7594 66.0572C95.1648 66.6571 95.6088 67.2299 96.0887 67.7721C96.1831 67.878 96.2315 68.0172 96.223 68.1589C96.2145 68.3005 96.1499 68.433 96.0435 68.5269C95.9481 68.6136 95.8238 68.6619 95.6948 68.6623V68.6623ZM124.059 65.1015C123.974 65.1006 123.889 65.0795 123.813 65.0399C123.551 64.9034 123.449 64.5808 123.584 64.3179C123.917 63.6749 124.206 63.0101 124.449 62.3282C124.549 62.0484 124.857 61.9024 125.136 62.002C125.416 62.1017 125.562 62.4094 125.463 62.6892C125.201 63.4155 124.893 64.124 124.539 64.8102C124.447 64.9898 124.262 65.1023 124.059 65.1015L124.059 65.1015ZM92.577 63.5877C92.3556 63.5891 92.1565 63.4536 92.0764 63.2472C91.7907 62.532 91.5522 61.7988 91.3626 61.0524C91.289 60.7646 91.4626 60.4717 91.7503 60.398C92.0381 60.3244 92.331 60.498 92.4047 60.7857C92.5823 61.4834 92.8057 62.1686 93.0734 62.8369C93.1828 63.1122 93.0489 63.4242 92.7739 63.5344C92.7129 63.5684 92.6461 63.5906 92.577 63.6V63.5877ZM125.832 59.4196H125.762C125.621 59.4012 125.492 59.3273 125.405 59.2142C125.318 59.1011 125.28 58.958 125.299 58.8165C125.39 58.0981 125.437 57.3747 125.438 56.6504C125.438 56.2771 125.438 55.8996 125.401 55.5304C125.377 55.3324 125.464 55.1371 125.627 55.0231C125.791 54.9091 126.005 54.8952 126.182 54.987C126.359 55.0788 126.471 55.2612 126.472 55.4607C126.496 55.8709 126.509 56.2566 126.509 56.6504C126.509 57.4271 126.459 58.1972 126.36 58.9617C126.328 59.2295 126.102 59.4313 125.832 59.4319V59.4196ZM91.3708 57.7784C91.081 57.7808 90.8423 57.5512 90.8334 57.2615C90.8334 57.0605 90.8334 56.8513 90.8334 56.6626C90.8334 56.0923 90.858 55.5139 90.9113 54.9518C90.9238 54.8093 90.9929 54.6778 91.1032 54.5868C91.2135 54.4958 91.3557 54.4529 91.498 54.4677C91.64 54.4812 91.7708 54.5506 91.8617 54.6607C91.9525 54.7707 91.9958 54.9124 91.9821 55.0544C91.9328 55.5836 91.9041 56.1251 91.9041 56.6626C91.9041 56.8513 91.9041 57.04 91.9041 57.2246C91.9111 57.5206 91.679 57.7673 91.3831 57.7784H91.3708ZM125.29 52.3839C125.044 52.3815 124.831 52.2126 124.773 51.9737C124.572 51.2745 124.326 50.5892 124.035 49.9224C123.932 49.7418 123.942 49.518 124.062 49.3477C124.181 49.1774 124.388 49.0912 124.593 49.1264C124.798 49.1616 124.964 49.3118 125.019 49.5122C125.329 50.2192 125.592 50.9455 125.807 51.6865C125.846 51.8236 125.829 51.9707 125.76 52.0953C125.691 52.2199 125.575 52.312 125.438 52.3511C125.39 52.3681 125.341 52.3791 125.29 52.3839V52.3839ZM92.1832 51.8996C92.1275 51.8994 92.0723 51.8911 92.0191 51.8749C91.737 51.7829 91.5816 51.4811 91.6704 51.198C91.9085 50.4639 92.1935 49.7459 92.5237 49.0483C92.6632 48.8046 92.9668 48.7094 93.2205 48.8298C93.4742 48.9502 93.5924 49.2456 93.4918 49.5078C93.1832 50.1627 92.9174 50.8369 92.696 51.5262C92.6189 51.7425 92.4128 51.886 92.1832 51.8831L92.1832 51.8996ZM122.673 47.0418C122.501 47.0425 122.339 46.96 122.238 46.8203C121.81 46.2364 121.347 45.6788 120.851 45.1506C120.709 45.0133 120.653 44.8088 120.707 44.6183C120.76 44.4278 120.914 44.2821 121.107 44.239C121.3 44.1959 121.501 44.2624 121.631 44.4121C122.159 44.9731 122.653 45.5664 123.108 46.1885C123.28 46.4292 123.227 46.7636 122.989 46.9393C122.895 47.0007 122.784 47.0308 122.673 47.0254L122.673 47.0418ZM94.9605 46.632C94.8412 46.6327 94.7252 46.5921 94.6323 46.5171C94.5193 46.4309 94.4453 46.3032 94.4268 46.1622C94.4083 46.0213 94.4469 45.8788 94.5339 45.7663C95.0062 45.1568 95.5159 44.5773 96.06 44.031C96.1963 43.8953 96.3947 43.8427 96.5803 43.893C96.7659 43.9432 96.9105 44.0887 96.9598 44.2746C97.0091 44.4604 96.9554 44.6585 96.819 44.794C96.3067 45.3106 95.8272 45.8587 95.3831 46.4351C95.2812 46.5646 95.1254 46.6402 94.9605 46.6402L94.9605 46.632ZM118.402 42.8945C118.294 42.8954 118.188 42.8625 118.099 42.8001C117.499 42.393 116.874 42.0244 116.228 41.6966C116.046 41.6157 115.924 41.4411 115.91 41.2427C115.897 41.0444 115.994 40.8547 116.162 40.7495C116.331 40.6444 116.544 40.641 116.716 40.7407C117.404 41.0887 118.069 41.4806 118.706 41.914C118.9 42.0472 118.985 42.2912 118.915 42.516C118.845 42.7409 118.638 42.8942 118.402 42.8945H118.402ZM99.3501 42.6154C99.112 42.6152 98.9025 42.4583 98.8352 42.2299C98.7679 42.0015 98.8589 41.756 99.0588 41.6267C99.7079 41.211 100.384 40.8382 101.081 40.5108C101.347 40.4016 101.651 40.52 101.773 40.7798C101.894 41.0397 101.791 41.3493 101.537 41.4831C100.881 41.7897 100.247 42.1392 99.6373 42.5293C99.5505 42.5805 99.4509 42.6061 99.3501 42.6031L99.3501 42.6154ZM112.979 40.4412C112.935 40.447 112.891 40.447 112.847 40.4412C112.146 40.2579 111.433 40.1209 110.714 40.031C110.42 39.9947 110.21 39.7265 110.246 39.432C110.285 39.1387 110.551 38.9304 110.845 38.9643C111.609 39.0543 112.367 39.1913 113.114 39.3745C113.378 39.4412 113.55 39.6941 113.515 39.9638C113.481 40.2334 113.25 40.4348 112.979 40.433L112.979 40.4412ZM104.835 40.3224C104.587 40.3249 104.37 40.1542 104.314 39.9121C104.283 39.7722 104.308 39.6255 104.385 39.5045C104.462 39.3835 104.584 39.2984 104.725 39.268C105.477 39.1002 106.238 38.9796 107.006 38.907C107.3 38.8855 107.558 39.1017 107.588 39.3952C107.602 39.5368 107.558 39.6779 107.467 39.7873C107.377 39.8967 107.246 39.9653 107.104 39.9777C106.382 40.0438 105.665 40.1576 104.958 40.3183C104.917 40.3201 104.876 40.3173 104.835 40.31L104.835 40.3224Z" fill="#F94F24"/>
<path fill-rule="evenodd" clip-rule="evenodd" d="M108.663 94.6927C108.366 94.6927 108.125 94.452 108.125 94.1552V91.9112C108.126 91.6147 108.367 91.3748 108.663 91.3748C108.959 91.3748 109.2 91.6147 109.2 91.9112V94.1552C109.2 94.452 108.96 94.6927 108.663 94.6927V94.6927ZM108.663 88.711C108.366 88.711 108.125 88.4703 108.125 88.1735V85.9295C108.126 85.633 108.367 85.3931 108.663 85.3931C108.959 85.3931 109.2 85.6331 109.2 85.9295V88.1735C109.2 88.4703 108.96 88.7109 108.663 88.7109L108.663 88.711ZM108.663 82.7298C108.366 82.7298 108.125 82.4892 108.125 82.1924V79.9524C108.126 79.656 108.367 79.416 108.663 79.416C108.959 79.416 109.2 79.656 109.2 79.9524V82.1924C109.204 82.337 109.148 82.4769 109.047 82.5804C108.946 82.6838 108.808 82.7422 108.663 82.7421V82.7298ZM108.663 76.7484C108.366 76.7484 108.125 76.5078 108.125 76.2109V73.971C108.126 73.6746 108.367 73.4346 108.663 73.4346C108.959 73.4346 109.2 73.6746 109.2 73.971V76.2109C109.2 76.5077 108.96 76.7484 108.663 76.7484L108.663 76.7484Z" fill="#F94F24"/>
<path fill-rule="evenodd" clip-rule="evenodd" d="M161.113 125.166H163.025C164.756 125.166 165.954 126.352 165.954 127.906V127.906C165.954 129.461 164.756 130.663 163.025 130.663H161.113V125.166ZM163.025 130.089C163.622 130.132 164.21 129.921 164.645 129.509C165.079 129.097 165.321 128.522 165.31 127.923V127.923C165.32 127.323 165.079 126.747 164.645 126.333C164.211 125.919 163.623 125.705 163.025 125.745H161.733V130.106L163.025 130.089Z" fill="#BFA9EB"/>
<path fill-rule="evenodd" clip-rule="evenodd" d="M167.271 125.166H171.255V125.732H167.895V127.615H170.902V128.181H167.895V130.11H171.296V130.676H167.271V125.166Z" fill="#BFA9EB"/>
<path fill-rule="evenodd" clip-rule="evenodd" d="M172.547 125.166H173.179L175.185 128.173L177.195 125.166H177.827V130.676H177.203V126.229L175.193 129.182H175.164L173.154 126.237V130.692H172.547L172.547 125.166Z" fill="#BFA9EB"/>
<path fill-rule="evenodd" clip-rule="evenodd" d="M181.425 125.125H182.007L184.534 130.676H183.862L183.218 129.219H180.219L179.562 130.676H178.914L181.425 125.125ZM182.959 128.661L181.729 125.851L180.432 128.661H182.959Z" fill="#BFA9EB"/>
<path fill-rule="evenodd" clip-rule="evenodd" d="M185.609 125.166H186.176L189.646 129.58V125.166H190.278V130.676H189.782L186.225 126.163V130.676H185.618L185.609 125.166Z" fill="#BFA9EB"/>
<path fill-rule="evenodd" clip-rule="evenodd" d="M191.833 125.166H193.745C195.476 125.166 196.674 126.352 196.674 127.906V127.906C196.674 129.461 195.476 130.663 193.745 130.663H191.833V125.166ZM193.745 130.089C194.342 130.132 194.93 129.921 195.364 129.509C195.799 129.097 196.04 128.522 196.03 127.923V127.923C196.04 127.323 195.799 126.747 195.365 126.333C194.931 125.919 194.343 125.705 193.745 125.745H192.452V130.106L193.745 130.089Z" fill="#BFA9EB"/>
<path fill-rule="evenodd" clip-rule="evenodd" d="M160.867 54.2134V54.2134C160.847 53.4619 161.133 52.7344 161.658 52.1971C162.184 51.6598 162.905 51.3585 163.657 51.3621C164.465 51.338 165.245 51.6552 165.807 52.236L165.396 52.6954C164.948 52.215 164.322 51.9405 163.665 51.9365C163.079 51.9425 162.52 52.1867 162.117 52.613C161.714 53.0392 161.501 53.6109 161.528 54.1969V54.1969C161.501 54.7845 161.713 55.3579 162.116 55.7867C162.518 56.2155 163.077 56.4634 163.665 56.4738C164.344 56.4734 164.99 56.1839 165.442 55.6779L165.852 56.0882C165.295 56.7179 164.489 57.0717 163.649 57.0564C162.897 57.0658 162.175 56.7672 161.65 56.2302C161.124 55.6931 160.841 54.9643 160.867 54.2134V54.2134Z" fill="#F94F24"/>
<path fill-rule="evenodd" clip-rule="evenodd" d="M166.525 54.2132V54.2132C166.524 53.2091 167.06 52.281 167.929 51.7788C168.799 51.2765 169.87 51.2765 170.74 51.7788C171.61 52.281 172.145 53.2091 172.145 54.2133L172.145 54.2132C172.145 55.2174 171.61 56.1455 170.74 56.6477C169.871 57.15 168.799 57.15 167.929 56.6477C167.06 56.1455 166.524 55.2174 166.525 54.2132V54.2132ZM171.501 54.2134V54.2134C171.523 53.6208 171.305 53.0444 170.895 52.6155C170.485 52.1866 169.92 51.9417 169.327 51.9365C168.737 51.9382 168.173 52.1803 167.766 52.6069C167.359 53.0335 167.143 53.6078 167.169 54.197V54.197C167.143 54.7939 167.362 55.3754 167.774 55.8074C168.187 56.2394 168.758 56.4845 169.355 56.4862C169.945 56.4813 170.508 56.2361 170.913 55.8071C171.317 55.3782 171.53 54.8026 171.501 54.2134V54.2134Z" fill="#F94F24"/>
<path fill-rule="evenodd" clip-rule="evenodd" d="M173.048 56.1495L173.433 55.6941C173.934 56.197 174.615 56.4778 175.324 56.4736C176.063 56.4736 176.555 56.0633 176.555 55.5341V55.5341C176.555 55.0213 176.276 54.7136 175.119 54.4839C173.852 54.209 173.269 53.7988 173.269 52.8921V52.8921C173.269 52.0224 174.032 51.3865 175.082 51.3865C175.789 51.368 176.478 51.6088 177.019 52.0634L176.654 52.5434C176.215 52.1574 175.65 51.9445 175.066 51.9444C174.348 51.9444 173.893 52.3547 173.893 52.8347V52.8347C173.893 53.3557 174.176 53.6552 175.386 53.9054C176.596 54.1557 177.183 54.6234 177.183 55.4644V55.4644C177.183 56.4079 176.395 57.0233 175.3 57.0233C174.464 57.034 173.657 56.7209 173.048 56.1495H173.048Z" fill="#F94F24"/>
<path fill-rule="evenodd" clip-rule="evenodd" d="M179.804 52.0143H177.97V51.4399H182.299V52.0143H180.432V56.9373H179.804V52.0143Z" fill="#F94F24"/>
<path fill-rule="evenodd" clip-rule="evenodd" d="M197.318 150.892H195.927C195.735 150.893 195.557 150.79 195.461 150.624C195.364 150.458 195.364 150.252 195.461 150.086C195.557 149.92 195.735 149.817 195.927 149.818H197.318C197.51 149.817 197.688 149.92 197.784 150.086C197.88 150.252 197.88 150.458 197.784 150.624C197.688 150.79 197.51 150.893 197.318 150.892V150.892ZM192.19 150.892H189.95C189.653 150.892 189.413 150.651 189.413 150.355C189.413 150.059 189.653 149.818 189.95 149.818H192.19C192.382 149.817 192.56 149.92 192.656 150.086C192.752 150.252 192.752 150.458 192.656 150.624C192.56 150.79 192.382 150.893 192.19 150.892H192.19ZM186.212 150.892H183.968C183.672 150.892 183.432 150.651 183.432 150.355C183.432 150.059 183.672 149.818 183.968 149.818H186.212C186.509 149.818 186.749 150.059 186.749 150.355C186.749 150.651 186.509 150.892 186.212 150.892V150.892ZM180.231 150.892H177.971C177.778 150.893 177.601 150.79 177.504 150.624C177.408 150.458 177.408 150.252 177.504 150.086C177.601 149.92 177.778 149.817 177.971 149.818H180.215C180.407 149.817 180.585 149.92 180.681 150.086C180.777 150.252 180.777 150.458 180.681 150.624C180.585 150.79 180.407 150.893 180.215 150.892H180.231ZM174.249 150.892H172.005C171.709 150.892 171.469 150.651 171.469 150.355C171.469 150.059 171.709 149.818 172.005 149.818H174.249C174.442 149.817 174.62 149.92 174.716 150.086C174.812 150.252 174.812 150.458 174.716 150.624C174.62 150.79 174.442 150.893 174.249 150.892V150.892ZM168.268 150.892H166.028C165.836 150.893 165.658 150.79 165.562 150.624C165.466 150.458 165.466 150.252 165.562 150.086C165.658 149.92 165.836 149.817 166.028 149.818H168.268C168.564 149.818 168.804 150.059 168.804 150.355C168.804 150.651 168.564 150.892 168.268 150.892V150.892ZM162.286 150.892H160.047C159.854 150.893 159.676 150.79 159.58 150.624C159.484 150.458 159.484 150.252 159.58 150.086C159.676 149.92 159.854 149.817 160.047 149.818H162.286C162.479 149.817 162.657 149.92 162.753 150.086C162.849 150.252 162.849 150.458 162.753 150.624C162.657 150.79 162.479 150.893 162.286 150.892V150.892ZM156.309 150.892H154.065C153.769 150.892 153.529 150.651 153.529 150.355C153.529 150.059 153.769 149.818 154.065 149.818H156.309C156.606 149.818 156.846 150.059 156.846 150.355C156.846 150.651 156.606 150.892 156.309 150.892V150.892ZM150.328 150.892H148.084C147.787 150.892 147.547 150.651 147.547 150.355C147.547 150.059 147.787 149.818 148.084 149.818H150.328C150.624 149.818 150.864 150.059 150.864 150.355C150.864 150.651 150.624 150.892 150.328 150.892V150.892ZM144.346 150.892H142.102C141.806 150.892 141.566 150.651 141.566 150.355C141.566 150.059 141.806 149.818 142.102 149.818H144.33C144.626 149.818 144.866 150.059 144.866 150.355C144.866 150.651 144.626 150.892 144.33 150.892H144.346ZM138.365 150.892H136.125C135.829 150.892 135.589 150.651 135.589 150.355C135.589 150.059 135.829 149.818 136.125 149.818H138.365C138.661 149.818 138.901 150.059 138.901 150.355C138.901 150.651 138.661 150.892 138.365 150.892H138.365ZM132.388 150.892H130.143C129.847 150.892 129.607 150.651 129.607 150.355C129.607 150.059 129.847 149.818 130.143 149.818H132.388C132.684 149.818 132.924 150.059 132.924 150.355C132.924 150.651 132.684 150.892 132.388 150.892V150.892ZM126.406 150.892H124.162C123.866 150.892 123.626 150.651 123.626 150.355C123.626 150.059 123.866 149.818 124.162 149.818H126.406C126.702 149.818 126.942 150.059 126.942 150.355C126.942 150.651 126.702 150.892 126.406 150.892V150.892ZM120.425 150.892H118.18C117.884 150.892 117.644 150.651 117.644 150.355C117.644 150.059 117.884 149.818 118.18 149.818H120.425C120.721 149.818 120.961 150.059 120.961 150.355C120.961 150.651 120.721 150.892 120.425 150.892V150.892ZM114.443 150.892H112.203C111.907 150.892 111.667 150.651 111.667 150.355C111.667 150.059 111.907 149.818 112.203 149.818H114.443C114.74 149.818 114.98 150.059 114.98 150.355C114.98 150.651 114.74 150.892 114.443 150.892V150.892ZM108.462 150.892H106.222C105.926 150.892 105.686 150.651 105.686 150.355C105.686 150.059 105.926 149.818 106.222 149.818H108.462C108.758 149.818 108.998 150.059 108.998 150.355C108.998 150.651 108.758 150.892 108.462 150.892V150.892ZM102.484 150.892H100.24C100.048 150.893 99.8703 150.79 99.7741 150.624C99.6778 150.458 99.6778 150.252 99.7741 150.086C99.8703 149.92 100.048 149.817 100.24 149.818H102.484C102.781 149.818 103.021 150.059 103.021 150.355C103.021 150.651 102.781 150.892 102.484 150.892H102.484ZM96.503 150.892H94.2794C93.983 150.892 93.743 150.651 93.743 150.355C93.743 150.059 93.983 149.818 94.2794 149.818H96.5235C96.8199 149.818 97.0599 150.059 97.0599 150.355C97.0599 150.651 96.8199 150.892 96.5235 150.892H96.503ZM90.5217 150.892H88.2776C87.9812 150.892 87.7412 150.651 87.7412 150.355C87.7412 150.059 87.9812 149.818 88.2776 149.818H90.5217C90.8181 149.818 91.0581 150.059 91.0581 150.355C91.0581 150.651 90.8181 150.892 90.5217 150.892V150.892ZM84.54 150.892H82.3001C82.0037 150.892 81.7637 150.651 81.7637 150.355C81.7637 150.059 82.0037 149.818 82.3001 149.818H84.54C84.8364 149.818 85.0764 150.059 85.0764 150.355C85.0764 150.651 84.8365 150.892 84.54 150.892H84.54ZM78.5585 150.892H76.3185C76.0221 150.892 75.7821 150.651 75.7821 150.355C75.7821 150.059 76.0221 149.818 76.3185 149.818H78.5585C78.8549 149.818 79.0949 150.059 79.0949 150.355C79.0949 150.651 78.8549 150.892 78.5585 150.892V150.892ZM72.5814 150.892H70.3373C70.0409 150.892 69.8009 150.651 69.8009 150.355C69.8009 150.059 70.0409 149.818 70.3373 149.818H72.5814C72.8778 149.818 73.1178 150.059 73.1178 150.355C73.1178 150.651 72.8778 150.892 72.5814 150.892V150.892ZM66.5999 150.892H64.3559C64.0595 150.892 63.8195 150.651 63.8195 150.355C63.8195 150.059 64.0594 149.818 64.3559 149.818H66.5999C66.8963 149.818 67.1363 150.059 67.1363 150.355C67.1363 150.651 66.8963 150.892 66.5999 150.892V150.892ZM60.6184 150.892H58.3743C58.0779 150.892 57.8379 150.651 57.8379 150.355C57.8379 150.059 58.0779 149.818 58.3743 149.818H60.6389C60.9353 149.818 61.1753 150.059 61.1753 150.355C61.1753 150.651 60.9353 150.892 60.6389 150.892H60.6184ZM54.637 150.892H52.397C52.1006 150.892 51.8606 150.651 51.8606 150.355C51.8606 150.059 52.1006 149.818 52.397 149.818H54.637C54.9334 149.818 55.1734 150.059 55.1734 150.355C55.1734 150.651 54.9334 150.892 54.637 150.892V150.892ZM48.6595 150.892H46.4154C46.119 150.892 45.879 150.651 45.879 150.355C45.879 150.059 46.119 149.818 46.4154 149.818H48.6595C48.9559 149.818 49.1959 150.059 49.1959 150.355C49.1959 150.651 48.9559 150.892 48.6595 150.892H48.6595ZM42.6782 150.892H40.4341C40.1377 150.892 39.8977 150.651 39.8977 150.355C39.8977 150.059 40.1377 149.818 40.4341 149.818H42.6782C42.9746 149.818 43.2146 150.059 43.2146 150.355C43.2146 150.651 42.9746 150.892 42.6782 150.892H42.6782ZM36.6968 150.893H35.2035V149.067C35.2041 148.77 35.4445 148.531 35.7409 148.531C36.0373 148.531 36.2778 148.771 36.2783 149.067V149.818H36.6886C36.985 149.818 37.225 150.059 37.225 150.355C37.225 150.652 36.985 150.892 36.6886 150.893L36.6968 150.893ZM35.7368 145.867C35.44 145.867 35.1993 145.627 35.1993 145.33V143.09C35.1999 142.793 35.4404 142.553 35.7368 142.553C36.0332 142.553 36.2736 142.793 36.2742 143.09V145.33C36.2753 145.473 36.219 145.61 36.118 145.711C36.017 145.812 35.8796 145.868 35.7368 145.867H35.7368ZM35.7368 139.89C35.4432 139.888 35.2057 139.65 35.2035 139.357V137.113C35.2041 136.816 35.4445 136.576 35.7409 136.576C36.0373 136.576 36.2778 136.816 36.2783 137.113V139.357C36.2773 139.499 36.2196 139.635 36.118 139.735C36.0165 139.835 35.8794 139.891 35.7368 139.89H35.7368ZM35.7368 133.908C35.44 133.908 35.1993 133.668 35.1993 133.371V131.127C35.1999 130.83 35.4404 130.59 35.7368 130.59C36.0332 130.59 36.2736 130.83 36.2742 131.127V133.371C36.2742 133.513 36.2176 133.65 36.1168 133.751C36.016 133.852 35.8793 133.908 35.7367 133.908H35.7368ZM35.7368 127.927C35.44 127.927 35.1993 127.686 35.1993 127.39V125.146C35.1999 124.849 35.4404 124.609 35.7368 124.609C36.0332 124.609 36.2736 124.849 36.2742 125.146V127.39C36.2742 127.532 36.2176 127.669 36.1168 127.77C36.016 127.87 35.8793 127.927 35.7367 127.927H35.7368ZM35.7368 121.945C35.44 121.945 35.1993 121.705 35.1993 121.408V119.168C35.1999 118.872 35.4404 118.632 35.7368 118.632C36.0332 118.632 36.2736 118.872 36.2742 119.168V121.408C36.2753 121.551 36.219 121.688 36.118 121.789C36.017 121.89 35.8796 121.946 35.7367 121.945L35.7368 121.945ZM35.7368 115.964C35.44 115.964 35.1993 115.724 35.1993 115.427V113.187C35.1999 112.89 35.4404 112.65 35.7368 112.65C36.0332 112.65 36.2736 112.89 36.2742 113.187V115.427C36.2775 115.571 36.2222 115.71 36.121 115.813C36.0197 115.916 35.8811 115.974 35.7367 115.972L35.7368 115.964ZM35.7368 109.987C35.4416 109.984 35.2035 109.744 35.2035 109.449V107.205C35.2041 106.909 35.4445 106.669 35.7409 106.669C36.0373 106.669 36.2778 106.909 36.2783 107.205V109.449C36.2783 109.592 36.2212 109.73 36.1195 109.831C36.0178 109.932 35.88 109.988 35.7368 109.987L35.7368 109.987ZM35.7368 104.005C35.44 104.005 35.1993 103.765 35.1993 103.468V101.224C35.1999 100.927 35.4404 100.688 35.7368 100.688C36.0332 100.688 36.2736 100.927 36.2742 101.224V103.468C36.274 103.765 36.0333 104.006 35.7365 104.005L35.7368 104.005ZM35.7368 98.0239C35.44 98.0239 35.1993 97.7833 35.1993 97.4865V95.2425C35.1999 94.946 35.4404 94.7061 35.7368 94.7061C36.0332 94.7061 36.2736 94.946 36.2742 95.2425V97.4865C36.274 97.7836 36.0333 98.0241 35.7365 98.0239L35.7368 98.0239ZM35.7368 92.0423C35.44 92.0423 35.1993 91.8017 35.1993 91.5049V89.2649C35.1999 88.9685 35.4404 88.7285 35.7368 88.7285C36.0332 88.7285 36.2736 88.9685 36.2742 89.2649V91.5049C36.2753 91.6478 36.219 91.7851 36.118 91.8861C36.017 91.9872 35.8796 92.0434 35.7367 92.0423L35.7368 92.0423ZM35.7368 86.0647C35.44 86.0647 35.1993 85.8241 35.1993 85.5273V83.2832C35.1999 82.9868 35.4404 82.7468 35.7368 82.7468C36.0332 82.7468 36.2736 82.9868 36.2742 83.2832V85.5273C36.274 85.8243 36.0333 86.0648 35.7365 86.0647L35.7368 86.0647ZM35.7368 80.0835C35.44 80.0835 35.1993 79.8429 35.1993 79.5461V77.302C35.1999 77.0056 35.4404 76.7656 35.7368 76.7656C36.0332 76.7656 36.2736 77.0056 36.2742 77.302V79.5461C36.274 79.8431 36.0333 80.0836 35.7365 80.0835L35.7368 80.0835ZM35.7368 74.1021C35.44 74.1021 35.1993 73.8615 35.1993 73.5647V71.3206C35.1999 71.0242 35.4404 70.7842 35.7368 70.7842C36.0332 70.7842 36.2736 71.0242 36.2742 71.3206V73.5647C36.274 73.8617 36.0333 74.1022 35.7365 74.1021L35.7368 74.1021ZM35.7368 68.121C35.44 68.121 35.1993 67.8804 35.1993 67.5836V65.3436C35.199 65.1514 35.3013 64.9736 35.4678 64.8774C35.6342 64.7811 35.8393 64.7811 36.0058 64.8773C36.1722 64.9736 36.2746 65.1514 36.2742 65.3436V67.5836C36.2753 67.7265 36.219 67.8638 36.118 67.9648C36.017 68.0658 35.8796 68.1221 35.7367 68.121L35.7368 68.121ZM35.7368 62.1392C35.44 62.1392 35.1993 61.8986 35.1993 61.6018V59.3577C35.1999 59.0613 35.4404 58.8213 35.7368 58.8213C36.0332 58.8213 36.2736 59.0613 36.2742 59.3577V61.5977C36.2764 61.7412 36.2206 61.8796 36.1195 61.9816C36.0183 62.0835 35.8803 62.1403 35.7367 62.1392L35.7368 62.1392ZM35.7368 56.1619C35.4416 56.1597 35.2035 55.9197 35.2035 55.6245V53.3804C35.2041 53.084 35.4445 52.844 35.7409 52.844C36.0373 52.844 36.2778 53.084 36.2783 53.3804V55.6245C36.2783 55.7677 36.2211 55.9051 36.1195 56.006C36.0178 56.1069 35.88 56.163 35.7368 56.1619L35.7368 56.1619ZM35.7368 50.1801C35.44 50.1801 35.1993 49.9394 35.1993 49.6426V47.3986C35.199 47.2063 35.3013 47.0285 35.4678 46.9323C35.6342 46.8361 35.8393 46.8361 36.0058 46.9323C36.1722 47.0285 36.2746 47.2063 36.2742 47.3986V49.6426C36.2742 49.9394 36.0336 50.18 35.7368 50.18L35.7368 50.1801ZM35.7368 44.199C35.44 44.199 35.1993 43.9584 35.1993 43.6616V41.4175C35.1999 41.1211 35.4404 40.8811 35.7368 40.8811C36.0332 40.8811 36.2736 41.1211 36.2742 41.4175V43.6616C36.2742 43.9584 36.0336 44.199 35.7368 44.199L35.7368 44.199ZM35.7368 38.2176C35.44 38.2176 35.1993 37.977 35.1993 37.6802V35.4402C35.1999 35.1438 35.4404 34.9038 35.7368 34.9038C36.0332 34.9038 36.2736 35.1438 36.2742 35.4402V37.6802C36.2753 37.823 36.219 37.9604 36.118 38.0614C36.017 38.1624 35.8796 38.2187 35.7368 38.2176L35.7368 38.2176ZM35.7368 32.2362C35.4415 32.2362 35.2016 31.998 35.1993 31.7028V29.4588C35.1999 29.1623 35.4404 28.9224 35.7368 28.9224C36.0332 28.9224 36.2736 29.1624 36.2742 29.4588V31.7028C36.2742 31.845 36.2174 31.9813 36.1165 32.0814C36.0156 32.1815 35.8789 32.2372 35.7367 32.2361L35.7368 32.2362ZM35.7369 26.259C35.5943 26.2579 35.458 26.2003 35.358 26.0987C35.258 25.9972 35.2024 25.86 35.2035 25.7175V23.4734C35.2041 23.177 35.4445 22.937 35.7409 22.937C36.0373 22.937 36.2778 23.177 36.2784 23.4734V25.7175C36.2795 25.8614 36.2228 25.9998 36.121 26.1016C36.0192 26.2034 35.8808 26.2601 35.7368 26.259L35.7369 26.259ZM35.7368 20.2773C35.4416 20.2751 35.2035 20.0351 35.2035 19.7399V17.5122C35.2041 17.2158 35.4445 16.9758 35.7409 16.9758C36.0373 16.9758 36.2778 17.2158 36.2783 17.5122V19.7563C36.2694 20.0483 36.0289 20.2797 35.7368 20.2773L35.7368 20.2773Z" fill="url(#paint1_linear)"/>
<path fill-rule="evenodd" clip-rule="evenodd" d="M113.688 102.069C113.69 104.038 112.505 105.815 110.685 106.57C108.866 107.326 106.771 106.91 105.377 105.518C103.983 104.126 103.566 102.031 104.319 100.211C105.073 98.3903 106.848 97.2033 108.818 97.2031C110.109 97.2019 111.348 97.714 112.262 98.6266C113.175 99.5392 113.688 100.777 113.688 102.069H113.688Z" fill="white"/>
<path fill-rule="evenodd" clip-rule="evenodd" d="M108.819 107.476C106.632 107.476 104.66 106.159 103.823 104.138C102.986 102.118 103.449 99.7919 104.995 98.2455C106.542 96.6991 108.867 96.2365 110.888 97.0734C112.908 97.9103 114.226 99.8819 114.226 102.069C114.224 105.054 111.804 107.474 108.819 107.476H108.819ZM108.819 97.7407C107.066 97.7407 105.486 98.7967 104.816 100.416C104.146 102.035 104.517 103.899 105.757 105.138C106.997 106.376 108.861 106.746 110.479 106.074C112.098 105.402 113.153 103.821 113.151 102.069C113.149 99.6777 111.21 97.7406 108.819 97.7407H108.819Z" fill="#F94F24"/>
<path fill-rule="evenodd" clip-rule="evenodd" d="M215.992 149.99C213.463 149.992 211.182 148.47 210.213 146.134C209.244 143.798 209.778 141.108 211.566 139.319C213.354 137.53 216.043 136.994 218.38 137.962C220.717 138.929 222.24 141.209 222.24 143.738C222.236 147.188 219.442 149.984 215.992 149.99H215.992ZM215.992 139.635C213.727 139.635 211.89 141.472 211.89 143.738C211.89 146.004 213.727 147.84 215.992 147.84C218.258 147.84 220.095 146.004 220.095 143.738C220.095 141.472 218.258 139.635 215.992 139.635V139.635Z" fill="#6731CF"/>
<path fill-rule="evenodd" clip-rule="evenodd" d="M41.6034 13.1062C38.1515 13.1062 35.3527 10.3087 35.3512 6.85675C35.3497 3.40482 38.146 0.60483 41.5979 0.60181C45.0499 0.598789 47.8511 3.39388 47.8556 6.84581C47.8556 10.3001 45.0577 13.1017 41.6034 13.1062L41.6034 13.1062ZM41.6034 2.75161C39.3376 2.75161 37.5009 4.58837 37.5009 6.85412C37.5009 9.11987 39.3376 10.9566 41.6034 10.9566C43.8691 10.9566 45.7059 9.11986 45.7059 6.85412C45.708 5.76445 45.2767 4.71887 44.507 3.94777C43.7374 3.17666 42.6926 2.74335 41.6032 2.74341L41.6034 2.75161Z" fill="#6731CF"/>
<defs>
<linearGradient id="paint0_linear" x1="114.739" y1="70.9373" x2="134.722" y2="50.433" gradientUnits="userSpaceOnUse">
<stop stop-color="#8033EB"/>
<stop offset="0.53" stop-color="#D4648E"/>
<stop offset="1" stop-color="#EC7071"/>
</linearGradient>
<linearGradient id="paint1_linear" x1="35.1993" y1="150.881" x2="197.855" y2="150.881" gradientUnits="userSpaceOnUse">
<stop stop-color="#8033EB"/>
<stop offset="1" stop-color="#6731CE"/>
</linearGradient>
</defs>
</svg>
