<svg width="1440" height="1939" viewBox="0 0 1440 1939" fill="none" xmlns="http://www.w3.org/2000/svg">
<path fill-rule="evenodd" clip-rule="evenodd" d="M-288 132.416C-288 132.416 -52.9823 -2.01176 155.351 0.766099C363.685 3.54396 552.573 59.0996 737.296 111.878C922.018 164.656 1006.74 197.989 1281.74 197.989C1556.74 197.989 1541.46 142.433 1574.8 134.1C1608.13 125.766 1582 1740.01 1582 1740.01C1582 1740.01 1394.54 1831.01 1128 1832.01C861.46 1833.01 798.539 1956 584 1936C369.461 1916 358.457 1800.5 118 1826C-122.457 1851.5 -259.83 1832.01 -259.83 1832.01L-288 132.416Z" fill="#F3F3F3"/>
</svg>
