<svg width="220" height="157" viewBox="0 0 220 157" fill="none" xmlns="http://www.w3.org/2000/svg">
<path fill-rule="evenodd" clip-rule="evenodd" d="M48.8793 80.5984C48.4576 80.3431 48.551 79.5432 49.1624 79.5432H68.495C68.3396 70.011 62.3118 61.5706 53.358 58.3481C44.4043 55.1256 34.3949 57.794 28.2228 65.0489C22.0506 72.3039 21.005 82.6299 25.5969 90.9794C30.1889 99.3289 39.4593 103.958 48.8765 102.603L48.8793 80.5984Z" fill="#F2F2F2"/>
<path fill-rule="evenodd" clip-rule="evenodd" d="M207.775 100.21C207.775 100.21 183.982 112.464 172.459 106.558C160.937 100.653 159.882 90.3331 164.483 73.9971C169.085 57.6612 180.509 48.3834 198.228 60.5662C215.947 72.749 227.282 88.6362 207.775 100.21Z" fill="#F2F2F2"/>
<path fill-rule="evenodd" clip-rule="evenodd" d="M201.597 143.5H187.687V152.346H201.597C204.126 152.286 206.143 150.324 206.143 147.923C206.143 145.522 204.126 143.56 201.597 143.5Z" fill="#F2F2F2"/>
<rect x="47.2616" y="78.1343" width="123.029" height="78.2331" fill="url(#paint0_linear)"/>
<rect x="47.1547" y="75.3271" width="123.576" height="7.52471" fill="#C5C5C5"/>
<rect x="36.6932" y="155.746" width="4.36884" height="1.25411" fill="#DEDEDE"/>
<rect x="176.972" y="155.746" width="4.36884" height="1.25411" fill="#DEDEDE"/>
<path fill-rule="evenodd" clip-rule="evenodd" d="M53.3959 79.0871C53.3968 79.5945 53.0932 80.0525 52.6269 80.2473C52.1605 80.4421 51.6233 80.3354 51.2658 79.9769C50.9084 79.6184 50.8012 79.0788 50.9943 78.6099C51.1873 78.141 51.6426 77.8352 52.1477 77.8352C52.8357 77.8364 53.3935 78.3958 53.3959 79.0871Z" fill="#E20000"/>
<path fill-rule="evenodd" clip-rule="evenodd" d="M57.7647 79.0871C57.7656 79.5945 57.462 80.0525 56.9956 80.2473C56.5293 80.4421 55.992 80.3354 55.6346 79.9769C55.2772 79.6184 55.17 79.0788 55.363 78.6099C55.5561 78.141 56.0114 77.8352 56.5164 77.8352C57.2045 77.8364 57.7623 78.3958 57.7647 79.0871Z" fill="#FFED47"/>
<path fill-rule="evenodd" clip-rule="evenodd" d="M62.1336 79.0871C62.1345 79.5945 61.8309 80.0525 61.3645 80.2473C60.8982 80.4421 60.3609 80.3354 60.0035 79.9769C59.646 79.6184 59.5389 79.0788 59.7319 78.6099C59.925 78.141 60.3803 77.8352 60.8853 77.8352C61.5734 77.8364 62.1312 78.3958 62.1336 79.0871Z" fill="#00C7AB"/>
<path fill-rule="evenodd" clip-rule="evenodd" d="M23.7562 115.249C23.7562 118.802 20.8821 121.682 17.3367 121.682C13.7913 121.682 10.9172 118.802 10.9172 115.249C10.9172 111.696 13.7913 108.815 17.3367 108.815C20.8821 108.815 23.7562 111.696 23.7562 115.249Z" fill="#F2F2F2"/>
<path fill-rule="evenodd" clip-rule="evenodd" d="M190.155 118.815C190.155 120.592 188.718 122.032 186.946 122.032C185.173 122.032 183.736 120.592 183.736 118.815C183.736 117.039 185.173 115.599 186.946 115.599C188.718 115.599 190.155 117.039 190.155 118.815Z" fill="#F2F2F2"/>
<path d="M202 44.5C201.953 57.9187 195.016 61.3313 184.762 60.6685C145.873 60.6685 183.659 61.002 144.769 61.002C133.281 61.7417 129.388 66.5298 129.5 75" stroke="#FA5A28" stroke-linecap="round" stroke-linejoin="round" stroke-dasharray="3 3"/>
<path fill-rule="evenodd" clip-rule="evenodd" d="M201.193 53.3105H201.194C204.63 53.3105 207.442 50.4988 207.442 47.0618V43.6477H194.945V47.0618C194.945 50.4988 197.757 53.3105 201.193 53.3105Z" fill="url(#paint1_linear)"/>
<path d="M199.188 43.6478V38.1865H197.188V43.6478H199.188ZM205.198 43.6478V38.1865H203.198V43.6478H205.198Z" fill="#FA5A28"/>
<path d="M111 47V76" stroke="#FA5A28" stroke-linecap="round" stroke-linejoin="round" stroke-dasharray="3 3"/>
<path fill-rule="evenodd" clip-rule="evenodd" d="M110.696 53.124H110.696C114.133 53.124 116.945 50.3123 116.945 46.8753V43.4612H104.447V46.8753C104.447 50.3123 107.259 53.124 110.696 53.124Z" fill="url(#paint2_linear)"/>
<path d="M108.691 43.4612V38H106.691V43.4612H108.691ZM114.701 43.4612V38H112.701V43.4612H114.701Z" fill="#FA5A28"/>
<path d="M18.4421 45.3135C18.489 58.7322 25.4265 62.1448 35.6799 61.482C74.5692 61.482 36.7835 61.8155 75.6727 61.8155C87.161 62.5552 91.0541 67.3432 90.9422 75.8134" stroke="#FA5A28" stroke-linecap="round" stroke-linejoin="round" stroke-dasharray="3 3"/>
<path fill-rule="evenodd" clip-rule="evenodd" d="M19.2489 54.124H19.2484C15.8119 54.124 13.0001 51.3123 13.0001 47.8753V44.4612H25.4973V47.8753C25.4973 51.3123 22.6854 54.124 19.2489 54.124Z" fill="url(#paint3_linear)"/>
<path d="M21.2537 44.4612V39H23.2537V44.4612H21.2537ZM15.2436 44.4612V39H17.2436V44.4612H15.2436Z" fill="#FA5A28"/>
<path fill-rule="evenodd" clip-rule="evenodd" d="M199.46 34.4829C190.896 33.0928 185.08 25.0252 186.47 16.4635C187.86 7.90176 195.929 2.08807 204.493 3.47822C213.057 4.86838 218.873 12.936 217.484 21.4977C216.094 30.0594 208.025 35.8731 199.46 34.4829Z" fill="#F1ECFA"/>
<path fill-rule="evenodd" clip-rule="evenodd" d="M191.306 23.3939C188.867 17.5046 191.664 10.7525 197.555 8.31261C203.445 5.8727 210.198 8.66892 212.637 14.5581C215.077 20.4474 212.279 27.1995 206.389 29.6394C200.498 32.0793 193.745 29.2831 191.306 23.3939Z" fill="url(#paint4_linear)" stroke="#F94F24" stroke-linecap="round"/>
<path fill-rule="evenodd" clip-rule="evenodd" d="M204.536 16.8358C204.536 18.2774 203.367 19.446 201.925 19.446V19.446C200.483 19.446 199.314 18.2774 199.314 16.8358V14.8455C199.314 13.404 200.483 12.2354 201.925 12.2354V12.2354C203.367 12.2354 204.536 13.404 204.536 14.8455V16.8358Z" stroke="white" stroke-linecap="round"/>
<path d="M200.495 18.9727V20.7704L197.829 21.7036C197.829 21.7036 196.337 22.3268 196.337 23.7558V25.1327" stroke="white" stroke-linecap="round" stroke-linejoin="round"/>
<path d="M203.377 18.9727V20.7704L206.043 21.7036C206.043 21.7036 207.538 22.3268 207.538 23.7558V25.1327" stroke="white" stroke-linecap="round" stroke-linejoin="round"/>
<path d="M198.798 15.5139C198.798 15.5139 202.388 15.1648 204.108 13.4355" stroke="white" stroke-linecap="round"/>
<path d="M200.495 20.7705L201.938 22.5748L203.377 20.7705" stroke="white" stroke-linecap="round"/>
<path fill-rule="evenodd" clip-rule="evenodd" d="M107.46 36.521C98.8961 35.1308 93.0801 27.0633 94.4699 18.5016C95.8596 9.93984 103.929 4.12615 112.493 5.51631C121.057 6.90647 126.873 14.974 125.483 23.5358C124.094 32.0975 116.024 37.9112 107.46 36.521Z" fill="#F1ECFA"/>
<path fill-rule="evenodd" clip-rule="evenodd" d="M99.306 25.4319C96.8665 19.5427 99.6642 12.7906 105.555 10.3507C111.445 7.91079 118.198 10.707 120.637 16.5962C123.077 22.4855 120.279 29.2376 114.389 31.6775C108.498 34.1174 101.745 31.3212 99.306 25.4319Z" fill="url(#paint5_linear)" stroke="#F94F24" stroke-linecap="round"/>
<path fill-rule="evenodd" clip-rule="evenodd" d="M112.535 18.8739C112.535 20.3155 111.367 21.4841 109.925 21.4841V21.4841C108.483 21.4841 107.314 20.3155 107.314 18.8739V16.8836C107.314 15.4421 108.483 14.2734 109.925 14.2734V14.2734C111.367 14.2734 112.535 15.4421 112.535 16.8836V18.8739Z" stroke="white" stroke-linecap="round"/>
<path d="M108.495 21.0112V22.809L105.829 23.7421C105.829 23.7421 104.337 24.3653 104.337 25.7944V27.1713" stroke="white" stroke-linecap="round" stroke-linejoin="round"/>
<path d="M111.377 21.0112V22.809L114.043 23.7421C114.043 23.7421 115.538 24.3653 115.538 25.7944V27.1713" stroke="white" stroke-linecap="round" stroke-linejoin="round"/>
<path d="M106.798 17.553C106.798 17.553 110.388 17.2039 112.108 15.4746" stroke="white" stroke-linecap="round"/>
<path d="M108.495 22.8086L109.938 24.6129L111.377 22.8086" stroke="white" stroke-linecap="round"/>
<path fill-rule="evenodd" clip-rule="evenodd" d="M16.4606 36.522C7.89647 35.1318 2.08049 27.0642 3.47024 18.5025C4.86001 9.94082 12.9293 4.12713 21.4934 5.51729C30.0576 6.90744 35.8735 14.975 34.4838 23.5367C33.094 32.0985 25.0248 37.9121 16.4606 36.522Z" fill="#F1ECFA"/>
<path fill-rule="evenodd" clip-rule="evenodd" d="M8.30632 25.4329C5.86691 19.5437 8.66458 12.7916 14.555 10.3517C20.4455 7.91177 27.1982 10.708 29.6376 16.5972C32.077 22.4864 29.2794 29.2385 23.3889 31.6784C17.4984 34.1184 10.7457 31.3221 8.30632 25.4329Z" fill="url(#paint6_linear)" stroke="#F94F24" stroke-linecap="round"/>
<path fill-rule="evenodd" clip-rule="evenodd" d="M21.5359 18.8749C21.5359 20.3164 20.3669 21.4851 18.9249 21.4851V21.4851C17.4829 21.4851 16.314 20.3164 16.314 18.8749V16.8846C16.314 15.443 17.4829 14.2744 18.9249 14.2744V14.2744C20.3669 14.2744 21.5359 15.443 21.5359 16.8846V18.8749Z" stroke="white" stroke-linecap="round"/>
<path d="M17.4956 21.0117V22.8095L14.8292 23.7426C14.8292 23.7426 13.3376 24.3658 13.3376 25.7949V27.1718" stroke="white" stroke-linecap="round" stroke-linejoin="round"/>
<path d="M20.3772 21.0117V22.8095L23.0436 23.7426C23.0436 23.7426 24.5384 24.3658 24.5384 25.7949V27.1718" stroke="white" stroke-linecap="round" stroke-linejoin="round"/>
<path d="M15.7981 17.553C15.7981 17.553 19.3881 17.2039 21.1081 15.4746" stroke="white" stroke-linecap="round"/>
<path d="M17.4954 22.8096L18.9379 24.6139L20.3772 22.8096" stroke="white" stroke-linecap="round"/>
<path fill-rule="evenodd" clip-rule="evenodd" d="M53.5189 91.407C53.8066 90.8044 54.5662 90.604 55.1136 90.9863L61.8218 95.6701C62.0634 95.8388 62.2172 96.0911 62.2667 96.364C62.3033 96.4151 62.336 96.4703 62.3642 96.5293C62.5921 97.0066 62.4411 97.5788 62.0074 97.8816L55.2993 102.565C54.7519 102.948 53.9922 102.747 53.7046 102.145C53.4767 101.667 53.6276 101.095 54.0613 100.792L59.721 96.8407L53.8757 92.7593C53.442 92.4565 53.291 91.8843 53.5189 91.407ZM63.2145 101.141C62.684 101.141 62.254 101.571 62.254 102.102C62.254 102.632 62.684 103.062 63.2145 103.062H69.5992C70.1296 103.062 70.5596 102.632 70.5596 102.102C70.5596 101.571 70.1296 101.141 69.5992 101.141H63.2145Z" fill="white"/>
<defs>
<linearGradient id="paint0_linear" x1="231.805" y1="117.251" x2="160.957" y2="5.83612" gradientUnits="userSpaceOnUse">
<stop stop-color="#EE7170"/>
<stop offset="1" stop-color="#8F3DDC"/>
</linearGradient>
<linearGradient id="paint1_linear" x1="194.861" y1="54.7" x2="208.166" y2="54.1027" gradientUnits="userSpaceOnUse">
<stop stop-color="#9839C3"/>
<stop offset="1" stop-color="#F94F24"/>
</linearGradient>
<linearGradient id="paint2_linear" x1="104.364" y1="54.5135" x2="117.668" y2="53.9162" gradientUnits="userSpaceOnUse">
<stop stop-color="#9839C3"/>
<stop offset="1" stop-color="#F94F24"/>
</linearGradient>
<linearGradient id="paint3_linear" x1="25.5807" y1="55.5135" x2="12.2765" y2="54.9162" gradientUnits="userSpaceOnUse">
<stop stop-color="#9839C3"/>
<stop offset="1" stop-color="#F94F24"/>
</linearGradient>
<linearGradient id="paint4_linear" x1="196.851" y1="37.1829" x2="219.251" y2="26.98" gradientUnits="userSpaceOnUse">
<stop stop-color="#9839C3"/>
<stop offset="1" stop-color="#F94F24"/>
</linearGradient>
<linearGradient id="paint5_linear" x1="104.851" y1="39.221" x2="127.251" y2="29.0181" gradientUnits="userSpaceOnUse">
<stop stop-color="#9839C3"/>
<stop offset="1" stop-color="#F94F24"/>
</linearGradient>
<linearGradient id="paint6_linear" x1="13.8512" y1="39.222" x2="36.2514" y2="29.019" gradientUnits="userSpaceOnUse">
<stop stop-color="#9839C3"/>
<stop offset="1" stop-color="#F94F24"/>
</linearGradient>
</defs>
</svg>
