<?xml version="1.0" encoding="UTF-8"?>
<svg width="254px" height="164px" viewBox="0 0 254 164" version="1.1" xmlns="http://www.w3.org/2000/svg" xmlns:xlink="http://www.w3.org/1999/xlink">
    <!-- Generator: Sketch 58 (84663) - https://sketch.com -->
    <title>icon</title>
    <desc>Created with Sketch.</desc>
    <defs>
        <rect id="path-1" x="0" y="0" width="31.0857124" height="38.1754456"></rect>
        <filter x="-48.3%" y="-39.3%" width="196.5%" height="178.6%" filterUnits="objectBoundingBox" id="filter-2">
            <feOffset dx="0" dy="0" in="SourceAlpha" result="shadowOffsetOuter1"></feOffset>
            <feGaussianBlur stdDeviation="5" in="shadowOffsetOuter1" result="shadowBlurOuter1"></feGaussianBlur>
            <feComposite in="shadowBlurOuter1" in2="SourceAlpha" operator="out" result="shadowBlurOuter1"></feComposite>
            <feColorMatrix values="0 0 0 0 0.392156863   0 0 0 0 0.392156863   0 0 0 0 0.392156863  0 0 0 0.298039216 0" type="matrix" in="shadowBlurOuter1"></feColorMatrix>
        </filter>
        <rect id="path-3" x="0" y="0" width="31.0857086" height="38.1754456"></rect>
        <filter x="-48.3%" y="-39.3%" width="196.5%" height="178.6%" filterUnits="objectBoundingBox" id="filter-4">
            <feOffset dx="0" dy="0" in="SourceAlpha" result="shadowOffsetOuter1"></feOffset>
            <feGaussianBlur stdDeviation="5" in="shadowOffsetOuter1" result="shadowBlurOuter1"></feGaussianBlur>
            <feComposite in="shadowBlurOuter1" in2="SourceAlpha" operator="out" result="shadowBlurOuter1"></feComposite>
            <feColorMatrix values="0 0 0 0 0.392156863   0 0 0 0 0.392156863   0 0 0 0 0.392156863  0 0 0 0.298039216 0" type="matrix" in="shadowBlurOuter1"></feColorMatrix>
        </filter>
        <linearGradient x1="11.8842565%" y1="37.660953%" x2="86.4124954%" y2="61.7880715%" id="linearGradient-5">
            <stop stop-color="#8033EB" offset="0%"></stop>
            <stop stop-color="#D4648E" offset="52.9999971%"></stop>
            <stop stop-color="#EC7071" offset="100%"></stop>
        </linearGradient>
        <rect id="path-6" x="0" y="0" width="39.228569" height="48.175457"></rect>
        <filter x="-38.2%" y="-31.1%" width="176.5%" height="162.3%" filterUnits="objectBoundingBox" id="filter-7">
            <feOffset dx="0" dy="0" in="SourceAlpha" result="shadowOffsetOuter1"></feOffset>
            <feGaussianBlur stdDeviation="5" in="shadowOffsetOuter1" result="shadowBlurOuter1"></feGaussianBlur>
            <feComposite in="shadowBlurOuter1" in2="SourceAlpha" operator="out" result="shadowBlurOuter1"></feComposite>
            <feColorMatrix values="0 0 0 0 0.392156863   0 0 0 0 0.392156863   0 0 0 0 0.392156863  0 0 0 0.298039216 0" type="matrix" in="shadowBlurOuter1"></feColorMatrix>
        </filter>
        <rect id="path-8" x="0" y="0" width="39.2285652" height="48.175457"></rect>
        <filter x="-38.2%" y="-31.1%" width="176.5%" height="162.3%" filterUnits="objectBoundingBox" id="filter-9">
            <feOffset dx="0" dy="0" in="SourceAlpha" result="shadowOffsetOuter1"></feOffset>
            <feGaussianBlur stdDeviation="5" in="shadowOffsetOuter1" result="shadowBlurOuter1"></feGaussianBlur>
            <feComposite in="shadowBlurOuter1" in2="SourceAlpha" operator="out" result="shadowBlurOuter1"></feComposite>
            <feColorMatrix values="0 0 0 0 0.392156863   0 0 0 0 0.392156863   0 0 0 0 0.392156863  0 0 0 0.298039216 0" type="matrix" in="shadowBlurOuter1"></feColorMatrix>
        </filter>
        <rect id="path-10" x="0" y="0" width="56.9999924" height="70.0000153"></rect>
        <filter x="-26.3%" y="-21.4%" width="152.6%" height="142.9%" filterUnits="objectBoundingBox" id="filter-11">
            <feOffset dx="0" dy="0" in="SourceAlpha" result="shadowOffsetOuter1"></feOffset>
            <feGaussianBlur stdDeviation="5" in="shadowOffsetOuter1" result="shadowBlurOuter1"></feGaussianBlur>
            <feComposite in="shadowBlurOuter1" in2="SourceAlpha" operator="out" result="shadowBlurOuter1"></feComposite>
            <feColorMatrix values="0 0 0 0 0.392156863   0 0 0 0 0.392156863   0 0 0 0 0.392156863  0 0 0 0.298039216 0" type="matrix" in="shadowBlurOuter1"></feColorMatrix>
        </filter>
    </defs>
    <g id="Landing-page-Webiny" stroke="none" stroke-width="1" fill="none" fill-rule="evenodd">
        <g id="Desktop-HD" transform="translate(-601.000000, -3176.000000)">
            <g id="Video-sections" transform="translate(-185.000000, -22.000000)">
                <g id="2" transform="translate(140.054321, 1993.146118)">
                    <g id="features" transform="translate(167.060547, 1184.961792)">
                        <g id="2" transform="translate(427.154785, 0.000000)">
                            <g id="icon" transform="translate(59.730343, 29.892342)">
                                <path d="M213.999969,44.000248 C213.999969,59.4642289 201.463945,72.0002594 185.999985,72.0002594 C170.536008,72.0002594 157.999985,59.4642289 157.999985,44.000248 C157.999985,28.5362776 170.536008,16.000248 185.999985,16.000248 C193.426036,16.000248 200.547943,18.9502401 205.798963,24.2012601 C211.04998,29.4522792 213.999969,36.574191 213.999969,44.000248 Z" id="Path" fill="#F2F2F2"></path>
                                <path d="M198.999985,128.496803 C199.001282,135.575082 194.738432,141.957111 188.199329,144.666751 C181.660225,147.376391 174.132746,145.879982 169.127189,140.875342 C164.121631,135.870701 162.623838,128.343496 165.332278,121.803894 C168.040717,115.264292 174.421963,111.000267 181.500241,111.000267 C191.163828,111.000267 198.998209,118.833213 198.999985,128.496803 L198.999985,128.496803 Z" id="Path" fill="#F2F2F2"></path>
                                <path d="M245.999969,67.0002556 C245.999969,74.1799599 240.179671,80.0002556 232.999969,80.0002556 C225.820268,80.0002556 219.999969,74.1799599 219.999969,67.0002556 C219.999969,59.8205551 225.820268,54.0002556 232.999969,54.0002556 C236.448047,53.9993979 239.755147,55.3687615 242.193305,57.8069209 C244.631464,60.2450799 246.000828,63.5521802 245.999969,67.0002556 Z" id="Path" fill="#F2F2F2"></path>
                                <rect id="Rectangle" fill="#F2F2F2" x="64.9999924" y="132.000275" width="58.9999924" height="14"></rect>
                                <rect id="Rectangle" fill="#F2F2F2" x="0" y="94.000267" width="58.9999924" height="14.0000076"></rect>
                                <g id="New-group-Copy-2" transform="translate(36.999996, 0.000000)">
                                    <g id="Rectangle-2">
                                        <use fill="black" fill-opacity="1" filter="url(#filter-2)" xlink:href="#path-1"></use>
                                        <use fill="#FFFFFF" fill-rule="evenodd" xlink:href="#path-1"></use>
                                    </g>
                                    <g id="Group" transform="translate(6.544311, 15.815434)" stroke="#FA5A28" stroke-linecap="round" stroke-linejoin="round" stroke-width="2">
                                        <polyline id="Path" points="3.54102564 0 0 3.54294407 3.54486203 7.08972645"></polyline>
                                        <polyline id="Path-2" points="14.1794415 7.08972645 17.7243042 3.54678259 14.1794415 0"></polyline>
                                        <path d="M7.08972168,0 L10.6345835,7.08972645" id="Path-3"></path>
                                    </g>
                                </g>
                                <g id="New-group-Copy-3" transform="translate(153.914291, 0.000000)">
                                    <g id="Rectangle-2">
                                        <use fill="black" fill-opacity="1" filter="url(#filter-4)" xlink:href="#path-3"></use>
                                        <use fill="#FFFFFF" fill-rule="evenodd" xlink:href="#path-3"></use>
                                    </g>
                                    <g id="Group" transform="translate(6.544311, 15.815434)" stroke="#FA5A28" stroke-linecap="round" stroke-linejoin="round" stroke-width="2">
                                        <polyline id="Path" points="3.54102516 0 0 3.54294407 3.54486156 7.08972645"></polyline>
                                        <polyline id="Path-2" points="14.1794395 7.08972645 17.7243004 3.54678259 14.1794395 0"></polyline>
                                        <path d="M7.08971977,0 L10.6345806,7.08972645" id="Path-3"></path>
                                    </g>
                                </g>
                                <g id="Group" transform="translate(33.999996, 35.000252)">
                                    <path d="M91.3821123,88.0000229 L64.6178631,88.0000229 C64.6178631,88.0000229 67.5298352,110.502761 48.9999924,115.000023 L106.999992,115.000023 C88.4701436,110.496205 91.3821123,88.0000229 91.3821123,88.0000229 Z" id="Path" fill="#999999"></path>
                                    <rect id="Rectangle" fill="#E5E5E5" x="48.9999924" y="115.000031" width="57.9999924" height="4"></rect>
                                    <path d="M150.999985,87.0579096 C151.015177,88.6185515 150.406784,90.1213886 149.308378,91.2357669 C148.209973,92.3501453 146.71154,92.9847735 145.142751,93.0000229 L5.85720653,93.0000229 C2.5911145,92.966503 -0.0301873747,90.3070813 0,87.0579096 L0,5.93890378 C-0.0283954316,2.69097977 2.59238579,0.0335242436 5.85720653,0 L145.142751,0 C146.71154,0.0152502293 148.209973,0.649878498 149.308378,1.76425752 C150.406784,2.87863658 151.015177,4.38147036 150.999985,5.94211401 L150.999985,87.0579096 Z" id="Path" fill="#B3B3B3"></path>
                                    <rect id="Rectangle" fill="url(#linearGradient-5)" x="0" y="8.00000191" width="150.999985" height="74.0000153"></rect>
                                    <rect id="Rectangle" fill="#E5E5E5" style="mix-blend-mode: multiply;" x="0" y="8.00000191" width="150.999985" height="1"></rect>
                                    <path d="M64.5820126,93.0000229 L91.4848935,93.0000229 C91.4848935,93.0000229 91.8129776,96.5358532 91.9999924,97.4506274 L61.9999924,104.000023 C61.9999924,104.000023 64.5820126,99.9094892 64.5820126,93.0000229 Z" id="Path" fill="#828282"></path>
                                    <path d="M150.999985,82.0000114 L150.999985,51.5031353 C150.999985,51.5031353 129.501849,78.7668221 75.5,54.697492 C21.4981379,30.6281619 0,54.697492 0,54.697492 L0,82.0000114 L150.999985,82.0000114 Z" id="Path" fill="#E5E5E5" opacity="0.100000001" style="mix-blend-mode: screen;"></path>
                                    <rect id="Rectangle" fill="#E5E5E5" style="mix-blend-mode: multiply;" x="0" y="81.0000229" width="150.999985" height="1"></rect>
                                </g>
                                <g id="New-group" transform="translate(177.771469, 30.824471)">
                                    <g id="Rectangle-2">
                                        <use fill="black" fill-opacity="1" filter="url(#filter-7)" xlink:href="#path-6"></use>
                                        <use fill="#FFFFFF" fill-rule="evenodd" xlink:href="#path-6"></use>
                                    </g>
                                    <g id="Group" transform="translate(8.258667, 19.958260)" stroke="#FA5A28" stroke-linecap="round" stroke-linejoin="round" stroke-width="3">
                                        <polyline id="Path" points="4.46859264 0 0 4.47101449 4.47343397 8.94687271"></polyline>
                                        <polyline id="Path-2" points="17.8936958 8.94687271 22.3671303 4.47585849 17.8936958 0"></polyline>
                                        <path d="M8.94684792,0 L13.4202805,8.94687271" id="Path-3"></path>
                                    </g>
                                </g>
                                <g id="New-group-Copy-4" transform="translate(2.000000, 30.824471)">
                                    <g id="Rectangle-2">
                                        <use fill="black" fill-opacity="1" filter="url(#filter-9)" xlink:href="#path-8"></use>
                                        <use fill="#FFFFFF" fill-rule="evenodd" xlink:href="#path-8"></use>
                                    </g>
                                    <g id="Group" transform="translate(8.258666, 19.958260)" stroke="#FA5A28" stroke-linecap="round" stroke-linejoin="round" stroke-width="3">
                                        <polyline id="Path" points="4.46859216 0 0 4.47101449 4.47343349 8.94687271"></polyline>
                                        <polyline id="Path-2" points="17.8936939 8.94687271 22.3671284 4.47585849 17.8936939 0"></polyline>
                                        <path d="M8.94684792,0 L13.4202795,8.94687271" id="Path-3"></path>
                                    </g>
                                </g>
                                <g id="New-group" transform="translate(82.999992, 16.000004)">
                                    <g id="Rectangle-2">
                                        <use fill="black" fill-opacity="1" filter="url(#filter-11)" xlink:href="#path-10"></use>
                                        <use fill="#FFFFFF" fill-rule="evenodd" xlink:href="#path-10"></use>
                                    </g>
                                    <path d="M6.24087793,12.108 C7.38387793,12.108 8.07687793,11.037 8.07687793,9.111 C8.07687793,7.185 7.38387793,6.15 6.24087793,6.15 C5.08887793,6.15 4.39587793,7.185 4.39587793,9.111 C4.39587793,11.037 5.08887793,12.108 6.24087793,12.108 Z M6.24087793,11.514 C5.56587793,11.514 5.11587793,10.794 5.11587793,9.111 C5.11587793,7.428 5.56587793,6.744 6.24087793,6.744 C6.90687793,6.744 7.35687793,7.428 7.35687793,9.111 C7.35687793,10.794 6.90687793,11.514 6.24087793,11.514 Z M10.1838779,12 L13.4238779,12 L13.4238779,11.388 L12.2358779,11.388 L12.2358779,6.258 L11.6688779,6.258 C11.3538779,6.447 10.9758779,6.591 10.4538779,6.681 L10.4538779,7.158 L11.4978779,7.158 L11.4978779,11.388 L10.1838779,11.388 L10.1838779,12 Z M17.1868779,12.108 C18.3298779,12.108 19.0228779,11.037 19.0228779,9.111 C19.0228779,7.185 18.3298779,6.15 17.1868779,6.15 C16.0348779,6.15 15.3418779,7.185 15.3418779,9.111 C15.3418779,11.037 16.0348779,12.108 17.1868779,12.108 Z M17.1868779,11.514 C16.5118779,11.514 16.0618779,10.794 16.0618779,9.111 C16.0618779,7.428 16.5118779,6.744 17.1868779,6.744 C17.8528779,6.744 18.3028779,7.428 18.3028779,9.111 C18.3028779,10.794 17.8528779,11.514 17.1868779,11.514 Z M21.1298779,12 L24.3698779,12 L24.3698779,11.388 L23.1818779,11.388 L23.1818779,6.258 L22.6148779,6.258 C22.2998779,6.447 21.9218779,6.591 21.3998779,6.681 L21.3998779,7.158 L22.4438779,7.158 L22.4438779,11.388 L21.1298779,11.388 L21.1298779,12 Z M28.1328779,12.108 C29.2758779,12.108 29.9688779,11.037 29.9688779,9.111 C29.9688779,7.185 29.2758779,6.15 28.1328779,6.15 C26.9808779,6.15 26.2878779,7.185 26.2878779,9.111 C26.2878779,11.037 26.9808779,12.108 28.1328779,12.108 Z M28.1328779,11.514 C27.4578779,11.514 27.0078779,10.794 27.0078779,9.111 C27.0078779,7.428 27.4578779,6.744 28.1328779,6.744 C28.7988779,6.744 29.2488779,7.428 29.2488779,9.111 C29.2488779,10.794 28.7988779,11.514 28.1328779,11.514 Z M32.0758779,12 L35.3158779,12 L35.3158779,11.388 L34.1278779,11.388 L34.1278779,6.258 L33.5608779,6.258 C33.2458779,6.447 32.8678779,6.591 32.3458779,6.681 L32.3458779,7.158 L33.3898779,7.158 L33.3898779,11.388 L32.0758779,11.388 L32.0758779,12 Z M37.5488779,12 L40.7888779,12 L40.7888779,11.388 L39.6008779,11.388 L39.6008779,6.258 L39.0338779,6.258 C38.7188779,6.447 38.3408779,6.591 37.8188779,6.681 L37.8188779,7.158 L38.8628779,7.158 L38.8628779,11.388 L37.5488779,11.388 L37.5488779,12 Z M43.0218779,12 L46.2618779,12 L46.2618779,11.388 L45.0738779,11.388 L45.0738779,6.258 L44.5068779,6.258 C44.1918779,6.447 43.8138779,6.591 43.2918779,6.681 L43.2918779,7.158 L44.3358779,7.158 L44.3358779,11.388 L43.0218779,11.388 L43.0218779,12 Z M50.0248779,12.108 C51.1678779,12.108 51.8608779,11.037 51.8608779,9.111 C51.8608779,7.185 51.1678779,6.15 50.0248779,6.15 C48.8728779,6.15 48.1798779,7.185 48.1798779,9.111 C48.1798779,11.037 48.8728779,12.108 50.0248779,12.108 Z M50.0248779,11.514 C49.3498779,11.514 48.8998779,10.794 48.8998779,9.111 C48.8998779,7.428 49.3498779,6.744 50.0248779,6.744 C50.6908779,6.744 51.1408779,7.428 51.1408779,9.111 C51.1408779,10.794 50.6908779,11.514 50.0248779,11.514 Z M4.71087793,24 L7.95087793,24 L7.95087793,23.388 L6.76287793,23.388 L6.76287793,18.258 L6.19587793,18.258 C5.88087793,18.447 5.50287793,18.591 4.98087793,18.681 L4.98087793,19.158 L6.02487793,19.158 L6.02487793,23.388 L4.71087793,23.388 L4.71087793,24 Z M10.1838779,24 L13.4238779,24 L13.4238779,23.388 L12.2358779,23.388 L12.2358779,18.258 L11.6688779,18.258 C11.3538779,18.447 10.9758779,18.591 10.4538779,18.681 L10.4538779,19.158 L11.4978779,19.158 L11.4978779,23.388 L10.1838779,23.388 L10.1838779,24 Z M17.1868779,24.108 C18.3298779,24.108 19.0228779,23.037 19.0228779,21.111 C19.0228779,19.185 18.3298779,18.15 17.1868779,18.15 C16.0348779,18.15 15.3418779,19.185 15.3418779,21.111 C15.3418779,23.037 16.0348779,24.108 17.1868779,24.108 Z M17.1868779,23.514 C16.5118779,23.514 16.0618779,22.794 16.0618779,21.111 C16.0618779,19.428 16.5118779,18.744 17.1868779,18.744 C17.8528779,18.744 18.3028779,19.428 18.3028779,21.111 C18.3028779,22.794 17.8528779,23.514 17.1868779,23.514 Z M22.6598779,24.108 C23.8028779,24.108 24.4958779,23.037 24.4958779,21.111 C24.4958779,19.185 23.8028779,18.15 22.6598779,18.15 C21.5078779,18.15 20.8148779,19.185 20.8148779,21.111 C20.8148779,23.037 21.5078779,24.108 22.6598779,24.108 Z M22.6598779,23.514 C21.9848779,23.514 21.5348779,22.794 21.5348779,21.111 C21.5348779,19.428 21.9848779,18.744 22.6598779,18.744 C23.3258779,18.744 23.7758779,19.428 23.7758779,21.111 C23.7758779,22.794 23.3258779,23.514 22.6598779,23.514 Z M26.6028779,24 L29.8428779,24 L29.8428779,23.388 L28.6548779,23.388 L28.6548779,18.258 L28.0878779,18.258 C27.7728779,18.447 27.3948779,18.591 26.8728779,18.681 L26.8728779,19.158 L27.9168779,19.158 L27.9168779,23.388 L26.6028779,23.388 L26.6028779,24 Z M33.6058779,24.108 C34.7488779,24.108 35.4418779,23.037 35.4418779,21.111 C35.4418779,19.185 34.7488779,18.15 33.6058779,18.15 C32.4538779,18.15 31.7608779,19.185 31.7608779,21.111 C31.7608779,23.037 32.4538779,24.108 33.6058779,24.108 Z M33.6058779,23.514 C32.9308779,23.514 32.4808779,22.794 32.4808779,21.111 C32.4808779,19.428 32.9308779,18.744 33.6058779,18.744 C34.2718779,18.744 34.7218779,19.428 34.7218779,21.111 C34.7218779,22.794 34.2718779,23.514 33.6058779,23.514 Z M37.5488779,24 L40.7888779,24 L40.7888779,23.388 L39.6008779,23.388 L39.6008779,18.258 L39.0338779,18.258 C38.7188779,18.447 38.3408779,18.591 37.8188779,18.681 L37.8188779,19.158 L38.8628779,19.158 L38.8628779,23.388 L37.5488779,23.388 L37.5488779,24 Z M44.5518779,24.108 C45.6948779,24.108 46.3878779,23.037 46.3878779,21.111 C46.3878779,19.185 45.6948779,18.15 44.5518779,18.15 C43.3998779,18.15 42.7068779,19.185 42.7068779,21.111 C42.7068779,23.037 43.3998779,24.108 44.5518779,24.108 Z M44.5518779,23.514 C43.8768779,23.514 43.4268779,22.794 43.4268779,21.111 C43.4268779,19.428 43.8768779,18.744 44.5518779,18.744 C45.2178779,18.744 45.6678779,19.428 45.6678779,21.111 C45.6678779,22.794 45.2178779,23.514 44.5518779,23.514 Z M48.4948779,24 L51.7348779,24 L51.7348779,23.388 L50.5468779,23.388 L50.5468779,18.258 L49.9798779,18.258 C49.6648779,18.447 49.2868779,18.591 48.7648779,18.681 L48.7648779,19.158 L49.8088779,19.158 L49.8088779,23.388 L48.4948779,23.388 L48.4948779,24 Z M4.71087793,36 L7.95087793,36 L7.95087793,35.388 L6.76287793,35.388 L6.76287793,30.258 L6.19587793,30.258 C5.88087793,30.447 5.50287793,30.591 4.98087793,30.681 L4.98087793,31.158 L6.02487793,31.158 L6.02487793,35.388 L4.71087793,35.388 L4.71087793,36 Z M11.7138779,36.108 C12.8568779,36.108 13.5498779,35.037 13.5498779,33.111 C13.5498779,31.185 12.8568779,30.15 11.7138779,30.15 C10.5618779,30.15 9.86887793,31.185 9.86887793,33.111 C9.86887793,35.037 10.5618779,36.108 11.7138779,36.108 Z M11.7138779,35.514 C11.0388779,35.514 10.5888779,34.794 10.5888779,33.111 C10.5888779,31.428 11.0388779,30.744 11.7138779,30.744 C12.3798779,30.744 12.8298779,31.428 12.8298779,33.111 C12.8298779,34.794 12.3798779,35.514 11.7138779,35.514 Z M17.1868779,36.108 C18.3298779,36.108 19.0228779,35.037 19.0228779,33.111 C19.0228779,31.185 18.3298779,30.15 17.1868779,30.15 C16.0348779,30.15 15.3418779,31.185 15.3418779,33.111 C15.3418779,35.037 16.0348779,36.108 17.1868779,36.108 Z M17.1868779,35.514 C16.5118779,35.514 16.0618779,34.794 16.0618779,33.111 C16.0618779,31.428 16.5118779,30.744 17.1868779,30.744 C17.8528779,30.744 18.3028779,31.428 18.3028779,33.111 C18.3028779,34.794 17.8528779,35.514 17.1868779,35.514 Z M22.6598779,36.108 C23.8028779,36.108 24.4958779,35.037 24.4958779,33.111 C24.4958779,31.185 23.8028779,30.15 22.6598779,30.15 C21.5078779,30.15 20.8148779,31.185 20.8148779,33.111 C20.8148779,35.037 21.5078779,36.108 22.6598779,36.108 Z M22.6598779,35.514 C21.9848779,35.514 21.5348779,34.794 21.5348779,33.111 C21.5348779,31.428 21.9848779,30.744 22.6598779,30.744 C23.3258779,30.744 23.7758779,31.428 23.7758779,33.111 C23.7758779,34.794 23.3258779,35.514 22.6598779,35.514 Z M26.6028779,36 L29.8428779,36 L29.8428779,35.388 L28.6548779,35.388 L28.6548779,30.258 L28.0878779,30.258 C27.7728779,30.447 27.3948779,30.591 26.8728779,30.681 L26.8728779,31.158 L27.9168779,31.158 L27.9168779,35.388 L26.6028779,35.388 L26.6028779,36 Z M33.6058779,36.108 C34.7488779,36.108 35.4418779,35.037 35.4418779,33.111 C35.4418779,31.185 34.7488779,30.15 33.6058779,30.15 C32.4538779,30.15 31.7608779,31.185 31.7608779,33.111 C31.7608779,35.037 32.4538779,36.108 33.6058779,36.108 Z M33.6058779,35.514 C32.9308779,35.514 32.4808779,34.794 32.4808779,33.111 C32.4808779,31.428 32.9308779,30.744 33.6058779,30.744 C34.2718779,30.744 34.7218779,31.428 34.7218779,33.111 C34.7218779,34.794 34.2718779,35.514 33.6058779,35.514 Z M39.0788779,36.108 C40.2218779,36.108 40.9148779,35.037 40.9148779,33.111 C40.9148779,31.185 40.2218779,30.15 39.0788779,30.15 C37.9268779,30.15 37.2338779,31.185 37.2338779,33.111 C37.2338779,35.037 37.9268779,36.108 39.0788779,36.108 Z M39.0788779,35.514 C38.4038779,35.514 37.9538779,34.794 37.9538779,33.111 C37.9538779,31.428 38.4038779,30.744 39.0788779,30.744 C39.7448779,30.744 40.1948779,31.428 40.1948779,33.111 C40.1948779,34.794 39.7448779,35.514 39.0788779,35.514 Z M43.0218779,36 L46.2618779,36 L46.2618779,35.388 L45.0738779,35.388 L45.0738779,30.258 L44.5068779,30.258 C44.1918779,30.447 43.8138779,30.591 43.2918779,30.681 L43.2918779,31.158 L44.3358779,31.158 L44.3358779,35.388 L43.0218779,35.388 L43.0218779,36 Z M48.4948779,36 L51.7348779,36 L51.7348779,35.388 L50.5468779,35.388 L50.5468779,30.258 L49.9798779,30.258 C49.6648779,30.447 49.2868779,30.591 48.7648779,30.681 L48.7648779,31.158 L49.8088779,31.158 L49.8088779,35.388 L48.4948779,35.388 L48.4948779,36 Z M6.24087793,48.108 C7.38387793,48.108 8.07687793,47.037 8.07687793,45.111 C8.07687793,43.185 7.38387793,42.15 6.24087793,42.15 C5.08887793,42.15 4.39587793,43.185 4.39587793,45.111 C4.39587793,47.037 5.08887793,48.108 6.24087793,48.108 Z M6.24087793,47.514 C5.56587793,47.514 5.11587793,46.794 5.11587793,45.111 C5.11587793,43.428 5.56587793,42.744 6.24087793,42.744 C6.90687793,42.744 7.35687793,43.428 7.35687793,45.111 C7.35687793,46.794 6.90687793,47.514 6.24087793,47.514 Z M11.7138779,48.108 C12.8568779,48.108 13.5498779,47.037 13.5498779,45.111 C13.5498779,43.185 12.8568779,42.15 11.7138779,42.15 C10.5618779,42.15 9.86887793,43.185 9.86887793,45.111 C9.86887793,47.037 10.5618779,48.108 11.7138779,48.108 Z M11.7138779,47.514 C11.0388779,47.514 10.5888779,46.794 10.5888779,45.111 C10.5888779,43.428 11.0388779,42.744 11.7138779,42.744 C12.3798779,42.744 12.8298779,43.428 12.8298779,45.111 C12.8298779,46.794 12.3798779,47.514 11.7138779,47.514 Z M15.6568779,48 L18.8968779,48 L18.8968779,47.388 L17.7088779,47.388 L17.7088779,42.258 L17.1418779,42.258 C16.8268779,42.447 16.4488779,42.591 15.9268779,42.681 L15.9268779,43.158 L16.9708779,43.158 L16.9708779,47.388 L15.6568779,47.388 L15.6568779,48 Z M22.6598779,48.108 C23.8028779,48.108 24.4958779,47.037 24.4958779,45.111 C24.4958779,43.185 23.8028779,42.15 22.6598779,42.15 C21.5078779,42.15 20.8148779,43.185 20.8148779,45.111 C20.8148779,47.037 21.5078779,48.108 22.6598779,48.108 Z M22.6598779,47.514 C21.9848779,47.514 21.5348779,46.794 21.5348779,45.111 C21.5348779,43.428 21.9848779,42.744 22.6598779,42.744 C23.3258779,42.744 23.7758779,43.428 23.7758779,45.111 C23.7758779,46.794 23.3258779,47.514 22.6598779,47.514 Z M26.6028779,48 L29.8428779,48 L29.8428779,47.388 L28.6548779,47.388 L28.6548779,42.258 L28.0878779,42.258 C27.7728779,42.447 27.3948779,42.591 26.8728779,42.681 L26.8728779,43.158 L27.9168779,43.158 L27.9168779,47.388 L26.6028779,47.388 L26.6028779,48 Z M33.6058779,48.108 C34.7488779,48.108 35.4418779,47.037 35.4418779,45.111 C35.4418779,43.185 34.7488779,42.15 33.6058779,42.15 C32.4538779,42.15 31.7608779,43.185 31.7608779,45.111 C31.7608779,47.037 32.4538779,48.108 33.6058779,48.108 Z M33.6058779,47.514 C32.9308779,47.514 32.4808779,46.794 32.4808779,45.111 C32.4808779,43.428 32.9308779,42.744 33.6058779,42.744 C34.2718779,42.744 34.7218779,43.428 34.7218779,45.111 C34.7218779,46.794 34.2718779,47.514 33.6058779,47.514 Z M37.5488779,48 L40.7888779,48 L40.7888779,47.388 L39.6008779,47.388 L39.6008779,42.258 L39.0338779,42.258 C38.7188779,42.447 38.3408779,42.591 37.8188779,42.681 L37.8188779,43.158 L38.8628779,43.158 L38.8628779,47.388 L37.5488779,47.388 L37.5488779,48 Z M43.0218779,48 L46.2618779,48 L46.2618779,47.388 L45.0738779,47.388 L45.0738779,42.258 L44.5068779,42.258 C44.1918779,42.447 43.8138779,42.591 43.2918779,42.681 L43.2918779,43.158 L44.3358779,43.158 L44.3358779,47.388 L43.0218779,47.388 L43.0218779,48 Z M48.4948779,48 L51.7348779,48 L51.7348779,47.388 L50.5468779,47.388 L50.5468779,42.258 L49.9798779,42.258 C49.6648779,42.447 49.2868779,42.591 48.7648779,42.681 L48.7648779,43.158 L49.8088779,43.158 L49.8088779,47.388 L48.4948779,47.388 L48.4948779,48 Z M6.24087793,60.108 C7.38387793,60.108 8.07687793,59.037 8.07687793,57.111 C8.07687793,55.185 7.38387793,54.15 6.24087793,54.15 C5.08887793,54.15 4.39587793,55.185 4.39587793,57.111 C4.39587793,59.037 5.08887793,60.108 6.24087793,60.108 Z M6.24087793,59.514 C5.56587793,59.514 5.11587793,58.794 5.11587793,57.111 C5.11587793,55.428 5.56587793,54.744 6.24087793,54.744 C6.90687793,54.744 7.35687793,55.428 7.35687793,57.111 C7.35687793,58.794 6.90687793,59.514 6.24087793,59.514 Z M11.7138779,60.108 C12.8568779,60.108 13.5498779,59.037 13.5498779,57.111 C13.5498779,55.185 12.8568779,54.15 11.7138779,54.15 C10.5618779,54.15 9.86887793,55.185 9.86887793,57.111 C9.86887793,59.037 10.5618779,60.108 11.7138779,60.108 Z M11.7138779,59.514 C11.0388779,59.514 10.5888779,58.794 10.5888779,57.111 C10.5888779,55.428 11.0388779,54.744 11.7138779,54.744 C12.3798779,54.744 12.8298779,55.428 12.8298779,57.111 C12.8298779,58.794 12.3798779,59.514 11.7138779,59.514 Z M15.6568779,60 L18.8968779,60 L18.8968779,59.388 L17.7088779,59.388 L17.7088779,54.258 L17.1418779,54.258 C16.8268779,54.447 16.4488779,54.591 15.9268779,54.681 L15.9268779,55.158 L16.9708779,55.158 L16.9708779,59.388 L15.6568779,59.388 L15.6568779,60 Z M21.1298779,60 L24.3698779,60 L24.3698779,59.388 L23.1818779,59.388 L23.1818779,54.258 L22.6148779,54.258 C22.2998779,54.447 21.9218779,54.591 21.3998779,54.681 L21.3998779,55.158 L22.4438779,55.158 L22.4438779,59.388 L21.1298779,59.388 L21.1298779,60 Z M28.1328779,60.108 C29.2758779,60.108 29.9688779,59.037 29.9688779,57.111 C29.9688779,55.185 29.2758779,54.15 28.1328779,54.15 C26.9808779,54.15 26.2878779,55.185 26.2878779,57.111 C26.2878779,59.037 26.9808779,60.108 28.1328779,60.108 Z M28.1328779,59.514 C27.4578779,59.514 27.0078779,58.794 27.0078779,57.111 C27.0078779,55.428 27.4578779,54.744 28.1328779,54.744 C28.7988779,54.744 29.2488779,55.428 29.2488779,57.111 C29.2488779,58.794 28.7988779,59.514 28.1328779,59.514 Z M32.0758779,60 L35.3158779,60 L35.3158779,59.388 L34.1278779,59.388 L34.1278779,54.258 L33.5608779,54.258 C33.2458779,54.447 32.8678779,54.591 32.3458779,54.681 L32.3458779,55.158 L33.3898779,55.158 L33.3898779,59.388 L32.0758779,59.388 L32.0758779,60 Z M37.5488779,60 L40.7888779,60 L40.7888779,59.388 L39.6008779,59.388 L39.6008779,54.258 L39.0338779,54.258 C38.7188779,54.447 38.3408779,54.591 37.8188779,54.681 L37.8188779,55.158 L38.8628779,55.158 L38.8628779,59.388 L37.5488779,59.388 L37.5488779,60 Z M43.0218779,60 L46.2618779,60 L46.2618779,59.388 L45.0738779,59.388 L45.0738779,54.258 L44.5068779,54.258 C44.1918779,54.447 43.8138779,54.591 43.2918779,54.681 L43.2918779,55.158 L44.3358779,55.158 L44.3358779,59.388 L43.0218779,59.388 L43.0218779,60 Z M50.0248779,60.108 C51.1678779,60.108 51.8608779,59.037 51.8608779,57.111 C51.8608779,55.185 51.1678779,54.15 50.0248779,54.15 C48.8728779,54.15 48.1798779,55.185 48.1798779,57.111 C48.1798779,59.037 48.8728779,60.108 50.0248779,60.108 Z M50.0248779,59.514 C49.3498779,59.514 48.8998779,58.794 48.8998779,57.111 C48.8998779,55.428 49.3498779,54.744 50.0248779,54.744 C50.6908779,54.744 51.1408779,55.428 51.1408779,57.111 C51.1408779,58.794 50.6908779,59.514 50.0248779,59.514 Z" id="010101110110010101100010011001010111001101110" fill="#D2D2D2" fill-rule="nonzero"></path>
                                    <g id="Group" transform="translate(8.999999, 26.000006)">
                                        <rect id="Rectangle-3" fill="#FFFFFF" x="0" y="0" width="37.9999962" height="20.0000019"></rect>
                                        <polyline id="Path" stroke="#FA5A28" stroke-width="4" stroke-linecap="round" stroke-linejoin="round" points="9.492964 3 3 9.49648192 9.49999857 16.0000019"></polyline>
                                        <polyline id="Path-2" stroke="#FA5A28" stroke-width="4" stroke-linecap="round" stroke-linejoin="round" points="28.9999962 16.0000024 35.4999962 9.50352085 28.9999962 3.00000048"></polyline>
                                        <path d="M15.9999981,3.00000048 L22.4999981,16.0000005" id="Path-3" stroke="#FA5A28" stroke-width="4" stroke-linecap="round" stroke-linejoin="round"></path>
                                    </g>
                                </g>
                            </g>
                        </g>
                    </g>
                </g>
            </g>
        </g>
    </g>
</svg>