<svg width="229" height="119" viewBox="0 0 229 119" fill="none" xmlns="http://www.w3.org/2000/svg">
<path fill-rule="evenodd" clip-rule="evenodd" d="M39.0976 25.8445C38.6759 25.5892 38.7693 24.7893 39.3807 24.7893H58.7133C58.5579 15.2571 52.53 6.81674 43.5763 3.59423C34.6226 0.37172 24.6132 3.04013 18.441 10.295C12.2689 17.55 11.2232 27.876 15.8152 36.2255C20.4071 44.575 29.6776 49.2039 39.0948 47.8495L39.0976 25.8445Z" fill="#F2F2F2"/>
<path fill-rule="evenodd" clip-rule="evenodd" d="M217.993 45.4567C217.993 45.4567 194.2 57.7102 182.677 51.8048C171.155 45.8994 170.1 35.5795 174.701 19.2435C179.303 2.90751 190.727 -6.37025 208.446 5.81257C226.165 17.9954 237.5 33.8825 217.993 45.4567Z" fill="#F2F2F2"/>
<path fill-rule="evenodd" clip-rule="evenodd" d="M201.815 98.7463H187.905V107.592H201.815C204.344 107.533 206.361 105.57 206.361 103.169C206.361 100.769 204.344 98.8061 201.815 98.7463Z" fill="#F2F2F2"/>
<rect x="32.6729" y="16.6025" width="159.179" height="101.332" fill="url(#paint0_linear)" stroke="#EFEFEF"/>
<rect x="33.0354" y="13.5027" width="158.882" height="9.65025" fill="#C5C5C5"/>
<rect x="19.5851" y="116.638" width="5.61705" height="1.60837" fill="#DEDEDE"/>
<rect x="199.942" y="116.638" width="5.61703" height="1.60837" fill="#DEDEDE"/>
<path fill-rule="evenodd" clip-rule="evenodd" d="M12.9745 50.4955C12.9745 54.0486 10.1004 56.929 6.55498 56.929C3.0096 56.929 0.135498 54.0486 0.135498 50.4955C0.135498 46.9424 3.0096 44.062 6.55498 44.062C10.1004 44.062 12.9745 46.9424 12.9745 50.4955Z" fill="#F2F2F2"/>
<path fill-rule="evenodd" clip-rule="evenodd" d="M210.373 44.0617C210.373 45.8383 208.936 47.2785 207.164 47.2785C205.391 47.2785 203.954 45.8383 203.954 44.0617C203.954 42.2852 205.391 40.845 207.164 40.845C208.936 40.845 210.373 42.2852 210.373 44.0617Z" fill="#F2F2F2"/>
<path fill-rule="evenodd" clip-rule="evenodd" d="M41.0597 18.3248C41.0609 18.9755 40.6706 19.5629 40.071 19.8127C39.4714 20.0625 38.7806 19.9256 38.3211 19.4659C37.8615 19.0061 37.7237 18.3141 37.9719 17.7128C38.2201 17.1114 38.8055 16.7192 39.4549 16.7192C40.3395 16.7208 41.0566 17.4382 41.0597 18.3248Z" fill="#E20000"/>
<path fill-rule="evenodd" clip-rule="evenodd" d="M46.6767 18.3248C46.6778 18.9755 46.2875 19.5629 45.6879 19.8127C45.0883 20.0625 44.3976 19.9256 43.938 19.4659C43.4784 19.0061 43.3406 18.3141 43.5889 17.7128C43.8371 17.1114 44.4225 16.7192 45.0718 16.7192C45.9564 16.7208 46.6736 17.4382 46.6767 18.3248Z" fill="#FFED47"/>
<path fill-rule="evenodd" clip-rule="evenodd" d="M52.2938 18.3248C52.295 18.9755 51.9047 19.5629 51.3051 19.8127C50.7055 20.0625 50.0148 19.9256 49.5552 19.4659C49.0956 19.0061 48.9578 18.3141 49.206 17.7128C49.4543 17.1114 50.0396 16.7192 50.689 16.7192C51.5736 16.7208 52.2908 17.4382 52.2938 18.3248Z" fill="#00C7AB"/>
<rect x="46.1875" y="37.1687" width="44.0499" height="5.0166" rx="2.5083" fill="#00CCB0"/>
<rect x="46.1876" y="77.3015" width="44.0499" height="5.0166" rx="2.5083" fill="white"/>
<rect x="46.1876" y="57.2351" width="31.0351" height="5.0166" rx="2.5083" fill="white"/>
<rect x="46.1876" y="97.3679" width="31.0351" height="5.0166" rx="2.5083" fill="#FA5A28"/>
<rect x="110.26" y="87.3347" width="31.0351" height="5.0166" rx="2.5083" fill="#FFF49A"/>
<rect x="98.2466" y="37.1687" width="30.034" height="5.0166" rx="2.5083" fill="white"/>
<rect x="46.1876" y="67.2683" width="17.0193" height="5.0166" rx="2.5083" fill="#7B39D9"/>
<rect x="83.2295" y="57.2351" width="40.0453" height="5.0166" rx="2.5083" fill="white"/>
<rect x="128.281" y="57.2351" width="13.0147" height="5.0166" rx="2.5083" fill="#7B39D9"/>
<rect x="64.2081" y="87.3347" width="40.0453" height="5.0166" rx="2.5083" fill="white"/>
<rect x="98.2466" y="77.3015" width="30.034" height="5.0166" rx="2.5083" fill="white"/>
<rect x="46.1877" y="87.3347" width="13.0147" height="5.0166" rx="2.5083" fill="white"/>
<rect x="69.2139" y="67.2683" width="44.0499" height="5.0166" rx="2.5083" fill="white"/>
<rect x="46.1876" y="47.2019" width="63.0714" height="5.0166" rx="2.5083" fill="white"/>
<rect x="119.27" y="67.2683" width="13.0147" height="5.0166" rx="2.5083" fill="white"/>
<path fill-rule="evenodd" clip-rule="evenodd" d="M193.354 101.381C211.047 101.381 225.391 87.0067 225.391 69.2749C225.391 51.5431 211.047 37.1687 193.354 37.1687C175.661 37.1687 161.318 51.5431 161.318 69.2749C161.318 87.0067 175.661 101.381 193.354 101.381Z" fill="white" stroke="#F94F24" stroke-width="0.5" stroke-linecap="round" stroke-linejoin="round" stroke-dasharray="2 2"/>
<path fill-rule="evenodd" clip-rule="evenodd" d="M193.354 96.3648C208.283 96.3648 220.385 84.2364 220.385 69.2752C220.385 54.314 208.283 42.1855 193.354 42.1855C178.426 42.1855 166.324 54.314 166.324 69.2752C166.324 84.2364 178.426 96.3648 193.354 96.3648Z" fill="#7B39D9"/>
<path fill-rule="evenodd" clip-rule="evenodd" d="M180.765 61.0448C181.216 60.1006 182.406 59.7866 183.264 60.3856L193.776 67.725C194.154 67.9893 194.395 68.3846 194.473 68.8122C194.53 68.8924 194.581 68.9788 194.626 69.0713C194.983 69.8193 194.746 70.7159 194.067 71.1904L183.555 78.5299C182.697 79.1288 181.507 78.8148 181.056 77.8706C180.699 77.1226 180.935 76.2261 181.615 75.7515L190.484 69.5593L181.324 63.1639C180.645 62.6893 180.408 61.7928 180.765 61.0448ZM195.958 76.2982C195.127 76.2982 194.453 76.972 194.453 77.8032C194.453 78.6343 195.127 79.3081 195.958 79.3081H205.963C206.794 79.3081 207.468 78.6343 207.468 77.8032C207.468 76.972 206.794 76.2982 205.963 76.2982H195.958Z" fill="white"/>
<defs>
<linearGradient id="paint0_linear" x1="270.441" y1="67.2685" x2="179.678" y2="-75.8249" gradientUnits="userSpaceOnUse">
<stop stop-color="#EE7170"/>
<stop offset="1" stop-color="#8F3DDC"/>
</linearGradient>
</defs>
</svg>
