<svg width="162" height="146" viewBox="0 0 162 146" fill="none" xmlns="http://www.w3.org/2000/svg">
<path fill-rule="evenodd" clip-rule="evenodd" d="M94.2356 37.0349C84.0087 37.0349 75.7182 28.7443 75.7182 18.5174C75.7182 8.29054 84.0087 0 94.2356 0C104.463 0 112.753 8.29054 112.753 18.5174C112.753 28.7443 104.463 37.0349 94.2356 37.0349Z" fill="#F2F2F2"/>
<path fill-rule="evenodd" clip-rule="evenodd" d="M85.6019 47.6424C85.6019 45.7358 86.276 44.1084 87.6241 42.7603C88.9723 41.4121 90.5997 40.738 92.5063 40.738H139.322C141.229 40.738 142.856 41.4121 144.204 42.7603C145.553 44.1084 146.227 45.7358 146.227 47.6424V48.4658C146.227 50.3723 145.553 51.9997 144.204 53.3479C142.856 54.696 141.229 55.3701 139.322 55.3701H92.5063C90.5997 55.3701 88.9723 54.696 87.6241 53.3479C86.276 51.9997 85.6019 50.3723 85.6019 48.4658V48.0541V47.6424Z" fill="#F2F2F2"/>
<path fill-rule="evenodd" clip-rule="evenodd" d="M1.202 57.3777C1.202 54.3005 2.28996 51.6739 4.46587 49.498C6.64178 47.3221 9.26833 46.2341 12.3455 46.2341H87.9132C90.9904 46.2341 93.6169 47.3221 95.7928 49.498C97.9688 51.6739 99.0567 54.3005 99.0567 57.3777V58.7103C99.0567 61.7875 97.9688 64.414 95.7929 66.5899C93.6169 68.7658 90.9904 69.8538 87.9132 69.8538H12.3455C9.26833 69.8538 6.64178 68.7658 4.46587 66.5899C2.28996 64.414 1.202 61.7875 1.202 58.7103V58.044V57.3777Z" fill="#F2F2F2"/>
<ellipse cx="80.239" cy="81.0257" rx="63.3714" ry="63.362" transform="rotate(-89.42 80.239 81.0257)" stroke="#FA5A28" stroke-dasharray="4 4"/>
<ellipse cx="80.239" cy="81.0257" rx="52.1041" ry="52.0964" transform="rotate(-89.42 80.239 81.0257)" fill="url(#paint0_linear)"/>
<path fill-rule="evenodd" clip-rule="evenodd" d="M18.3114 86.1151C17.1081 86.6142 15.7227 86.3393 14.8012 85.4187C13.8796 84.498 13.6034 83.1128 14.1013 81.9091C14.5992 80.7053 15.7732 79.9201 17.0759 79.9194C17.9303 79.919 18.7499 80.2582 19.3543 80.8622C19.9586 81.4662 20.2981 82.2857 20.2981 83.1401C20.2988 84.4412 19.5146 85.616 18.3114 86.1151Z" fill="white"/>
<path fill-rule="evenodd" clip-rule="evenodd" d="M13.6437 84.5622C13.0684 83.1734 13.3864 81.5748 14.4494 80.5118C15.5123 79.4488 17.111 79.1308 18.4998 79.7061C19.8886 80.2814 20.7942 81.6367 20.7942 83.1399C20.7924 85.1917 19.1296 86.8547 17.0776 86.8566H17.0775C15.5742 86.8566 14.219 85.9511 13.6437 84.5622ZM14.5602 82.0973C14.1385 83.1154 14.3716 84.2874 15.1508 85.0666C15.9301 85.8459 17.102 86.079 18.1202 85.6573C19.1383 85.2356 19.8022 84.242 19.8022 83.14C19.8022 81.6352 18.5823 80.4153 17.0775 80.4153C15.9754 80.4153 14.9819 81.0791 14.5602 82.0973Z" fill="#F94F24"/>
<path fill-rule="evenodd" clip-rule="evenodd" d="M27.1761 132.247C22.9465 132.247 19.5178 128.819 19.5178 124.589C19.5178 120.36 22.9465 116.931 27.1761 116.931C31.4056 116.931 34.8344 120.36 34.8343 124.589C34.8343 128.819 31.4056 132.247 27.1761 132.247Z" fill="#F2F2F2"/>
<path fill-rule="evenodd" clip-rule="evenodd" d="M156.825 112.703C153.963 113.889 150.668 113.235 148.477 111.045C146.286 108.854 145.631 105.56 146.816 102.697C148.002 99.8353 150.795 97.9694 153.893 97.9702C155.924 97.9699 157.871 98.7762 159.307 100.212C160.743 101.647 161.55 103.595 161.55 105.625L161.55 105.625C161.552 108.722 159.687 111.516 156.825 112.703Z" fill="#F2F2F2"/>
<path fill-rule="evenodd" clip-rule="evenodd" d="M128.696 129.632C124.182 129.631 120.523 125.971 120.524 121.457C120.524 116.943 124.183 113.284 128.697 113.283C130.866 113.283 132.946 114.145 134.479 115.679C136.012 117.212 136.873 119.292 136.872 121.461C136.87 125.974 133.21 129.633 128.696 129.632Z" fill="white"/>
<path fill-rule="evenodd" clip-rule="evenodd" d="M120.682 124.779C119.339 121.537 120.081 117.806 122.562 115.325C125.043 112.844 128.774 112.102 132.015 113.445C135.257 114.789 137.369 117.952 137.368 121.461C137.363 126.247 133.484 130.126 128.698 130.131H128.698C125.189 130.133 122.025 128.02 120.682 124.779ZM121.599 118.519C120.409 121.389 121.065 124.694 123.262 126.891C125.458 129.089 128.763 129.746 131.633 128.558C134.504 127.369 136.376 124.568 136.376 121.461C136.37 117.222 132.936 113.788 128.698 113.783L128.698 113.779C125.591 113.778 122.789 115.649 121.599 118.519Z" fill="#F94F24"/>
<path fill-rule="evenodd" clip-rule="evenodd" d="M0.641617 83.1382C0.641602 73.8965 8.06481 66.3687 17.3055 66.2393C21.0192 66.2273 24.6313 67.4511 27.5729 69.718L27.3745 69.9825C24.4897 67.7595 20.9475 66.559 17.3056 66.57C8.24661 66.6981 0.97004 74.0783 0.970045 83.1382C0.97005 92.1981 8.24661 99.5782 17.3056 99.7063C19.9095 99.7123 22.4771 99.0967 24.7952 97.9108L24.9474 98.2084C22.5811 99.4151 19.9618 100.042 17.3056 100.037C8.06487 99.9077 0.641632 92.3798 0.641617 83.1382Z" fill="#F94F24"/>
<path fill-rule="evenodd" clip-rule="evenodd" d="M58.7376 69L61.363 68.7669C61.7773 68.7301 62.1699 68.5651 62.486 68.2947L64 67L66.9891 64.5076C67.3208 64.231 67.7331 64.0692 68.1643 64.0464L77.9912 63.5269C78.3251 63.5092 78.658 63.5756 78.9597 63.7198L89.7775 68.8936C89.9253 68.9643 90.0638 69.0528 90.19 69.1573L104.301 80.8398C104.76 81.2197 105.026 81.7845 105.026 82.3803V93.9721C105.026 94.7899 104.528 95.5253 103.769 95.829L102.49 96.3403C102.254 96.4348 102.002 96.4833 101.748 96.4833H100.965C100.012 96.4833 99.2398 97.2557 99.2398 98.2084C99.2398 98.9138 98.8104 99.5481 98.1554 99.8101L96.7044 100.391C96.4682 100.485 96.2161 100.534 95.9617 100.534H94.2202C93.4774 100.534 92.8752 101.136 92.8752 101.879C92.8752 102.457 92.5047 102.971 91.9555 103.155L90.6986 103.574C89.9175 103.834 89.0567 103.589 88.5297 102.957L86.8493 100.94C86.6273 100.674 86.3398 100.47 86.0151 100.348L59.0772 90.246C58.8526 90.1618 58.6147 90.1187 58.3749 90.1187H51.4799C50.3754 90.1187 49.4799 89.2233 49.4799 88.1187V71C49.4799 69.8954 50.3753 69 51.4799 69H58.7376Z" fill="#FADCCF"/>
<path fill-rule="evenodd" clip-rule="evenodd" d="M60.3449 94.5861C59.2332 93.4744 59.2332 91.6719 60.3449 90.5602L67.1366 83.7686C68.2483 82.6568 70.0507 82.6568 71.1624 83.7686L71.3916 83.9977C72.5033 85.1094 72.5033 86.9118 71.3916 88.0235L64.5999 94.8152C63.4882 95.9269 61.6858 95.9269 60.574 94.8152L60.3449 94.5861Z" fill="#FBCAB5"/>
<path fill-rule="evenodd" clip-rule="evenodd" d="M65.6275 98.0011C64.5157 96.8894 64.5157 95.0869 65.6275 93.9752L76.6986 82.904C77.8104 81.7923 79.6128 81.7923 80.7245 82.904L80.9536 83.1332C82.0654 84.2449 82.0654 86.0473 80.9536 87.159L69.8825 98.2302C68.7707 99.3419 66.9683 99.3419 65.8566 98.2302L65.6275 98.0011Z" fill="#FBCAB5"/>
<path fill-rule="evenodd" clip-rule="evenodd" d="M79.1974 102.127C78.0856 101.015 78.0856 99.2129 79.1974 98.1012L83.8615 93.4371C84.9732 92.3253 86.7757 92.3253 87.8874 93.4371L88.1165 93.6662C89.2282 94.7779 89.2282 96.5803 88.1165 97.6921L83.4524 102.356C82.3406 103.468 80.5382 103.468 79.4265 102.356L79.1974 102.127Z" fill="#FBCAB5"/>
<path d="M112.582 69.2312L104 69.2312L93.5 59.5L88.5 59.5L84 59.5L82.8538 60.7026L71.409 71.5341C71.409 71.5341 70.7031 75.9315 71.409 75.8968C72.1149 75.862 74.9732 78.7435 77.195 76.5216C79.4169 74.2998 84 69.2312 84 69.2312L90 69.2312L105.5 81.0579L105.5 91.9819L112.582 91.9819L112.582 80.6066L112.582 69.2312Z" fill="#FBCAB5"/>
<path fill-rule="evenodd" clip-rule="evenodd" d="M72.277 100.02C71.1653 98.9079 71.1653 97.1055 72.277 95.9938L83.3482 84.9226C84.4599 83.8109 86.2624 83.8109 87.3741 84.9226L87.6032 85.1517C88.7149 86.2634 88.7149 88.0659 87.6032 89.1776L76.532 100.249C75.4203 101.36 73.6178 101.36 72.5061 100.249L72.277 100.02Z" fill="#FBCAB5"/>
<path fill-rule="evenodd" clip-rule="evenodd" d="M60.3449 94.5861C59.2332 93.4744 59.2332 91.6719 60.3449 90.5602L67.1366 83.7686C68.2483 82.6568 70.0507 82.6568 71.1624 83.7686L71.3916 83.9977C72.5033 85.1094 72.5033 86.9118 71.3916 88.0235L64.5999 94.8152C63.4882 95.9269 61.6858 95.9269 60.574 94.8152L60.3449 94.5861Z" stroke="#B954AD" stroke-linecap="round" stroke-linejoin="round"/>
<path fill-rule="evenodd" clip-rule="evenodd" d="M79.1974 102.127C78.0856 101.015 78.0856 99.2129 79.1974 98.1012L83.8615 93.4371C84.9732 92.3253 86.7757 92.3253 87.8874 93.4371L88.1165 93.6662C89.2282 94.7779 89.2282 96.5803 88.1165 97.6921L83.4524 102.356C82.3406 103.468 80.5382 103.468 79.4265 102.356L79.1974 102.127Z" stroke="#B954AD" stroke-linecap="round" stroke-linejoin="round"/>
<path d="M93.0603 88.7878L93.0603 100.753C93.0603 101.506 92.762 102.229 92.2306 102.762C91.6993 103.296 90.9782 103.597 90.2252 103.6L89.8896 103.6C89.1366 103.597 88.4155 103.296 87.8841 102.762C87.3527 102.229 87.0544 101.506 87.0544 100.753L87.0544 98.7167" stroke="#B954AD" stroke-linecap="round" stroke-linejoin="round"/>
<path d="M99.0662 90.9171L99.0662 97.8603C99.0662 98.6133 98.7679 99.3356 98.2365 99.8692C97.7052 100.403 96.984 100.704 96.2311 100.707L95.8955 100.707C95.1425 100.704 94.4214 100.403 93.89 99.8692C93.3586 99.3356 93.0603 98.6133 93.0603 97.8603L93.0603 91.9354" stroke="#B954AD" stroke-linecap="round" stroke-linejoin="round"/>
<path d="M99.0662 86.4735L99.0662 94.0185C99.0662 94.7715 99.3646 95.4938 99.8959 96.0274C100.427 96.5609 101.148 96.8622 101.901 96.8652L102.237 96.8652C102.982 96.8501 103.691 96.5435 104.213 96.0113C104.734 95.479 105.026 94.7636 105.026 94.0185L105.026 81.0578L96.9948 74.3113" stroke="#B954AD" stroke-linecap="round" stroke-linejoin="round"/>
<path fill-rule="evenodd" clip-rule="evenodd" d="M65.6275 98.0011C64.5157 96.8894 64.5157 95.0869 65.6275 93.9752L76.6986 82.904C77.8104 81.7923 79.6128 81.7923 80.7245 82.904L80.9536 83.1332C82.0654 84.2449 82.0654 86.0473 80.9536 87.159L69.8825 98.2302C68.7707 99.3419 66.9683 99.3419 65.8566 98.2302L65.6275 98.0011Z" stroke="#B954AD" stroke-linecap="round" stroke-linejoin="round"/>
<path fill-rule="evenodd" clip-rule="evenodd" d="M72.277 100.02C71.1653 98.9079 71.1653 97.1055 72.277 95.9938L83.3482 84.9226C84.4599 83.8109 86.2624 83.8109 87.3741 84.9226L87.6032 85.1517C88.7149 86.2634 88.7149 88.0659 87.6032 89.1776L76.532 100.249C75.4203 101.36 73.6178 101.36 72.5061 100.249L72.277 100.02Z" stroke="#B954AD" stroke-linecap="round" stroke-linejoin="round"/>
<path d="M112.582 69.2312L104.089 69.2312L95.6178 61.2117C94.3054 59.9668 92.5664 59.2712 90.7575 59.2676L85.2492 59.2676C84.1597 59.2568 83.1091 59.6721 82.3214 60.4248L72.1264 70.4462C71.7724 70.798 71.4914 71.2162 71.2996 71.677C71.1078 72.1378 71.0091 72.6319 71.0091 73.131C71.0091 73.63 71.1078 74.1242 71.2996 74.5849C71.4914 75.0457 71.7724 75.464 72.1264 75.8157V75.8157C72.4748 76.1652 72.8887 76.4426 73.3444 76.6318C73.8002 76.821 74.2888 76.9185 74.7822 76.9185C75.2757 76.9185 75.7643 76.821 76.2201 76.6318C76.6758 76.4426 77.0897 76.1652 77.438 75.8157L83.0389 70.238C83.8483 69.5721 84.8412 69.1685 85.8856 69.0807C87.2601 68.8942 88.6587 69.0127 89.9822 69.4279" stroke="#B954AD" stroke-linecap="round" stroke-linejoin="round"/>
<path d="M48.8666 69.2312L59.536 69.2312C60.5403 69.224 61.526 68.9597 62.3991 68.4634C63.2723 67.967 64.0037 67.2553 64.5236 66.396V66.396C65.0462 65.5279 65.7843 64.8097 66.6663 64.3109C67.5482 63.8121 68.5442 63.5498 69.5574 63.5493L78.6299 63.5493" stroke="#B954AD" stroke-linecap="round" stroke-linejoin="round"/>
<path d="M48.8666 90.5583L60.1956 90.5584" stroke="#B954AD" stroke-linecap="round" stroke-linejoin="round"/>
<path d="M99.0663 86.2417L89.4846 77.4469" stroke="#B954AD" stroke-linecap="round" stroke-linejoin="round"/>
<path d="M112.582 91.9819L105.5 91.9819" stroke="#B954AD" stroke-linecap="round" stroke-linejoin="round"/>
<defs>
<linearGradient id="paint0_linear" x1="27.948" y1="106.996" x2="105.61" y2="132.141" gradientUnits="userSpaceOnUse">
<stop stop-color="#8033EB"/>
<stop offset="0.53" stop-color="#D4648E"/>
<stop offset="1" stop-color="#EC7071"/>
</linearGradient>
</defs>
</svg>
