<svg width="178" height="135" viewBox="0 0 178 135" fill="none" xmlns="http://www.w3.org/2000/svg">
<path fill-rule="evenodd" clip-rule="evenodd" d="M104.256 50.8931C93.256 50.8931 84.339 41.976 84.339 30.9763C84.339 19.9766 93.256 11.0596 104.256 11.0596C115.255 11.0596 124.173 19.9766 124.173 30.9763C124.173 41.976 115.255 50.8931 104.256 50.8931Z" fill="#F2F2F2"/>
<path fill-rule="evenodd" clip-rule="evenodd" d="M112.794 62.3021C112.794 60.2514 113.519 58.5011 114.969 57.051C116.419 55.601 118.169 54.876 120.22 54.876H170.574C172.625 54.876 174.375 55.601 175.825 57.051C177.275 58.5011 178 60.2514 178 62.3021V63.1877C178 65.2383 177.275 66.9887 175.825 68.4387C174.375 69.8887 172.625 70.6138 170.574 70.6138H120.22C118.169 70.6138 116.419 69.8887 114.969 68.4387C113.519 66.9887 112.794 65.2383 112.794 63.1877V62.7449V62.3021Z" fill="#F2F2F2"/>
<path fill-rule="evenodd" clip-rule="evenodd" d="M4.19189 72.773C4.19189 69.4632 5.36206 66.6382 7.7024 64.2979C10.0427 61.9575 12.8678 60.7874 16.1775 60.7874H97.4556C100.765 60.7874 103.59 61.9575 105.931 64.2979C108.271 66.6382 109.441 69.4632 109.441 72.773V74.2063C109.441 77.516 108.271 80.341 105.931 82.6814C103.59 85.0217 100.765 86.1919 97.4556 86.1919H16.1775C12.8678 86.1919 10.0427 85.0217 7.7024 82.6814C5.36206 80.341 4.19189 77.516 4.19189 74.2063V73.4896V72.773Z" fill="#F2F2F2"/>
<path fill-rule="evenodd" clip-rule="evenodd" d="M47.475 49.8141C42.9258 49.8141 39.238 46.1263 39.238 41.5771C39.238 37.0279 42.9258 33.3401 47.475 33.3401C52.0242 33.3401 55.712 37.0279 55.712 41.5771C55.712 46.1263 52.0242 49.8141 47.475 49.8141Z" fill="#F2F2F2"/>
<path fill-rule="evenodd" clip-rule="evenodd" d="M162.924 120.483C159.846 121.76 156.302 121.056 153.946 118.7C151.589 116.344 150.884 112.801 152.159 109.722C153.435 106.644 156.439 104.637 159.771 104.638C161.955 104.637 164.05 105.505 165.594 107.049C167.138 108.593 168.006 110.687 168.006 112.871L168.006 112.871C168.008 116.202 166.002 119.207 162.924 120.483Z" fill="#F2F2F2"/>
<path fill-rule="evenodd" clip-rule="evenodd" d="M126.861 57.6056C125.266 57.8122 123.663 57.177 122.668 55.9142C112.889 43.5064 96.9977 37.4202 81.3132 40.2721C65.6798 43.1148 52.98 54.3414 48.1588 69.3239C47.6651 70.8579 46.1952 71.8792 44.5836 71.8784C29.8173 71.8842 17.8496 83.8558 17.8487 98.6222C17.8478 113.389 29.8139 125.362 44.5803 125.369H131.227C150.018 125.369 165.251 110.136 165.251 91.3457C165.251 72.5549 150.018 57.322 131.227 57.322C131.227 57.322 131.227 57.322 131.227 57.322C131.227 57.322 131.227 57.322 131.227 57.322C129.766 57.3234 128.308 57.4182 126.861 57.6056Z" fill="url(#paint0_linear)"/>
<path d="M52.5053 100.332C51.844 100.332 51.22 100.22 50.6333 99.9956C50.0467 99.761 49.5293 99.4196 49.0813 98.9716C48.644 98.5236 48.2973 97.969 48.0413 97.3076C47.7853 96.6356 47.6573 95.8623 47.6573 94.9876C47.6573 94.1236 47.7907 93.3556 48.0573 92.6836C48.324 92.001 48.6813 91.425 49.1293 90.9556C49.5773 90.4863 50.1 90.129 50.6973 89.8836C51.2947 89.6383 51.924 89.5156 52.5853 89.5156C53.2573 89.5156 53.86 89.6543 54.3933 89.9316C54.9267 90.1983 55.3693 90.513 55.7213 90.8756L54.4733 92.3796C54.2067 92.1343 53.924 91.937 53.6253 91.7876C53.3373 91.6276 53.0067 91.5476 52.6333 91.5476C52.2813 91.5476 51.9453 91.6276 51.6253 91.7876C51.316 91.937 51.044 92.1556 50.8093 92.4436C50.5853 92.7316 50.404 93.0836 50.2653 93.4996C50.1373 93.9156 50.0733 94.385 50.0733 94.9076C50.0733 95.985 50.3027 96.8223 50.7613 97.4196C51.22 98.0063 51.8333 98.2996 52.6013 98.2996C53.028 98.2996 53.4067 98.209 53.7373 98.0276C54.0787 97.8356 54.3773 97.601 54.6333 97.3236L55.8813 98.7956C55.0067 99.8196 53.8813 100.332 52.5053 100.332ZM60.7818 100.332C60.2805 100.332 59.7952 100.241 59.3258 100.06C58.8565 99.8676 58.4405 99.5956 58.0778 99.2436C57.7258 98.8916 57.4432 98.4596 57.2298 97.9476C57.0165 97.425 56.9098 96.833 56.9098 96.1716C56.9098 95.5103 57.0165 94.9236 57.2298 94.4116C57.4432 93.889 57.7258 93.4516 58.0778 93.0996C58.4405 92.7476 58.8565 92.481 59.3258 92.2996C59.7952 92.1076 60.2805 92.0116 60.7818 92.0116C61.2832 92.0116 61.7632 92.1076 62.2218 92.2996C62.6912 92.481 63.1018 92.7476 63.4538 93.0996C63.8165 93.4516 64.1045 93.889 64.3178 94.4116C64.5312 94.9236 64.6378 95.5103 64.6378 96.1716C64.6378 96.833 64.5312 97.425 64.3178 97.9476C64.1045 98.4596 63.8165 98.8916 63.4538 99.2436C63.1018 99.5956 62.6912 99.8676 62.2218 100.06C61.7632 100.241 61.2832 100.332 60.7818 100.332ZM60.7818 98.4276C61.2618 98.4276 61.6245 98.225 61.8698 97.8196C62.1152 97.4143 62.2378 96.865 62.2378 96.1716C62.2378 95.4783 62.1152 94.929 61.8698 94.5236C61.6245 94.1183 61.2618 93.9156 60.7818 93.9156C60.2912 93.9156 59.9232 94.1183 59.6778 94.5236C59.4432 94.929 59.3258 95.4783 59.3258 96.1716C59.3258 96.865 59.4432 97.4143 59.6778 97.8196C59.9232 98.225 60.2912 98.4276 60.7818 98.4276ZM66.3488 100.14V92.2036H68.2688L68.4288 93.2276H68.4928C68.8235 92.897 69.1755 92.6143 69.5488 92.3796C69.9222 92.1343 70.3702 92.0116 70.8928 92.0116C71.4582 92.0116 71.9115 92.129 72.2528 92.3636C72.6048 92.5876 72.8822 92.913 73.0848 93.3396C73.4368 92.977 73.8048 92.6676 74.1888 92.4116C74.5835 92.145 75.0475 92.0116 75.5808 92.0116C76.4342 92.0116 77.0582 92.2996 77.4528 92.8756C77.8582 93.441 78.0608 94.2196 78.0608 95.2116V100.14H75.7088V95.5156C75.7088 94.9396 75.6288 94.545 75.4688 94.3316C75.3195 94.1183 75.0742 94.0116 74.7328 94.0116C74.3382 94.0116 73.8848 94.2676 73.3728 94.7796V100.14H71.0208V95.5156C71.0208 94.9396 70.9408 94.545 70.7808 94.3316C70.6315 94.1183 70.3862 94.0116 70.0448 94.0116C69.6395 94.0116 69.1915 94.2676 68.7008 94.7796V100.14H66.3488ZM80.1676 100.14V92.2036H82.0876L82.2476 93.2276H82.3116C82.6423 92.897 82.9943 92.6143 83.3676 92.3796C83.7409 92.1343 84.1889 92.0116 84.7116 92.0116C85.2769 92.0116 85.7303 92.129 86.0716 92.3636C86.4236 92.5876 86.7009 92.913 86.9036 93.3396C87.2556 92.977 87.6236 92.6676 88.0076 92.4116C88.4023 92.145 88.8663 92.0116 89.3996 92.0116C90.2529 92.0116 90.8769 92.2996 91.2716 92.8756C91.6769 93.441 91.8796 94.2196 91.8796 95.2116V100.14H89.5276V95.5156C89.5276 94.9396 89.4476 94.545 89.2876 94.3316C89.1383 94.1183 88.8929 94.0116 88.5516 94.0116C88.1569 94.0116 87.7036 94.2676 87.1916 94.7796V100.14H84.8396V95.5156C84.8396 94.9396 84.7596 94.545 84.5996 94.3316C84.4503 94.1183 84.2049 94.0116 83.8636 94.0116C83.4583 94.0116 83.0103 94.2676 82.5196 94.7796V100.14H80.1676ZM93.9863 100.14V92.2036H96.3383V100.14H93.9863ZM95.1543 91.0356C94.7597 91.0356 94.4343 90.9236 94.1783 90.6996C93.9223 90.465 93.7943 90.1663 93.7943 89.8036C93.7943 89.441 93.9223 89.1476 94.1783 88.9236C94.4343 88.6996 94.7597 88.5876 95.1543 88.5876C95.5597 88.5876 95.885 88.6996 96.1303 88.9236C96.3863 89.1476 96.5143 89.441 96.5143 89.8036C96.5143 90.1663 96.3863 90.465 96.1303 90.6996C95.885 90.9236 95.5597 91.0356 95.1543 91.0356ZM100.844 100.332C100.322 100.332 99.7829 100.23 99.2282 100.028C98.6842 99.825 98.2095 99.5583 97.8042 99.2276L98.8602 97.7556C99.2229 98.033 99.5695 98.241 99.9002 98.3796C100.231 98.5183 100.567 98.5876 100.908 98.5876C101.26 98.5876 101.516 98.529 101.676 98.4116C101.836 98.2943 101.916 98.129 101.916 97.9156C101.916 97.7876 101.868 97.6756 101.772 97.5796C101.687 97.473 101.564 97.377 101.404 97.2916C101.255 97.2063 101.084 97.1316 100.892 97.0676C100.7 96.993 100.503 96.913 100.3 96.8276C100.055 96.7316 99.8095 96.6196 99.5642 96.4916C99.3189 96.3636 99.0949 96.209 98.8922 96.0276C98.6895 95.8356 98.5242 95.617 98.3962 95.3716C98.2682 95.1156 98.2042 94.8223 98.2042 94.4916C98.2042 94.129 98.2735 93.793 98.4122 93.4836C98.5615 93.1743 98.7695 92.913 99.0362 92.6996C99.3029 92.4863 99.6229 92.321 99.9962 92.2036C100.37 92.0756 100.786 92.0116 101.244 92.0116C101.852 92.0116 102.386 92.1183 102.844 92.3316C103.303 92.5343 103.703 92.7636 104.044 93.0196L102.988 94.4276C102.7 94.2143 102.418 94.049 102.14 93.9316C101.863 93.8143 101.586 93.7556 101.308 93.7556C100.711 93.7556 100.412 93.9636 100.412 94.3796C100.412 94.5076 100.455 94.6196 100.54 94.7156C100.626 94.801 100.738 94.881 100.876 94.9556C101.026 95.0303 101.191 95.105 101.372 95.1796C101.564 95.2436 101.762 95.313 101.964 95.3876C102.22 95.4836 102.471 95.5956 102.716 95.7236C102.972 95.841 103.202 95.9903 103.404 96.1716C103.618 96.353 103.788 96.577 103.916 96.8436C104.044 97.0996 104.108 97.409 104.108 97.7716C104.108 98.1343 104.039 98.4703 103.9 98.7796C103.762 99.089 103.554 99.361 103.276 99.5956C102.999 99.8196 102.658 100.001 102.252 100.14C101.847 100.268 101.378 100.332 100.844 100.332ZM108.038 100.332C107.515 100.332 106.977 100.23 106.422 100.028C105.878 99.825 105.403 99.5583 104.998 99.2276L106.054 97.7556C106.417 98.033 106.763 98.241 107.094 98.3796C107.425 98.5183 107.761 98.5876 108.102 98.5876C108.454 98.5876 108.71 98.529 108.87 98.4116C109.03 98.2943 109.11 98.129 109.11 97.9156C109.11 97.7876 109.062 97.6756 108.966 97.5796C108.881 97.473 108.758 97.377 108.598 97.2916C108.449 97.2063 108.278 97.1316 108.086 97.0676C107.894 96.993 107.697 96.913 107.494 96.8276C107.249 96.7316 107.003 96.6196 106.758 96.4916C106.513 96.3636 106.289 96.209 106.086 96.0276C105.883 95.8356 105.718 95.617 105.59 95.3716C105.462 95.1156 105.398 94.8223 105.398 94.4916C105.398 94.129 105.467 93.793 105.606 93.4836C105.755 93.1743 105.963 92.913 106.23 92.6996C106.497 92.4863 106.817 92.321 107.19 92.2036C107.563 92.0756 107.979 92.0116 108.438 92.0116C109.046 92.0116 109.579 92.1183 110.038 92.3316C110.497 92.5343 110.897 92.7636 111.238 93.0196L110.182 94.4276C109.894 94.2143 109.611 94.049 109.334 93.9316C109.057 93.8143 108.779 93.7556 108.502 93.7556C107.905 93.7556 107.606 93.9636 107.606 94.3796C107.606 94.5076 107.649 94.6196 107.734 94.7156C107.819 94.801 107.931 94.881 108.07 94.9556C108.219 95.0303 108.385 95.105 108.566 95.1796C108.758 95.2436 108.955 95.313 109.158 95.3876C109.414 95.4836 109.665 95.5956 109.91 95.7236C110.166 95.841 110.395 95.9903 110.598 96.1716C110.811 96.353 110.982 96.577 111.11 96.8436C111.238 97.0996 111.302 97.409 111.302 97.7716C111.302 98.1343 111.233 98.4703 111.094 98.7796C110.955 99.089 110.747 99.361 110.47 99.5956C110.193 99.8196 109.851 100.001 109.446 100.14C109.041 100.268 108.571 100.332 108.038 100.332ZM112.896 100.14V92.2036H115.248V100.14H112.896ZM114.064 91.0356C113.669 91.0356 113.344 90.9236 113.088 90.6996C112.832 90.465 112.704 90.1663 112.704 89.8036C112.704 89.441 112.832 89.1476 113.088 88.9236C113.344 88.6996 113.669 88.5876 114.064 88.5876C114.469 88.5876 114.794 88.6996 115.04 88.9236C115.296 89.1476 115.424 89.441 115.424 89.8036C115.424 90.1663 115.296 90.465 115.04 90.6996C114.794 90.9236 114.469 91.0356 114.064 91.0356ZM120.826 100.332C120.324 100.332 119.839 100.241 119.37 100.06C118.9 99.8676 118.484 99.5956 118.122 99.2436C117.77 98.8916 117.487 98.4596 117.274 97.9476C117.06 97.425 116.954 96.833 116.954 96.1716C116.954 95.5103 117.06 94.9236 117.274 94.4116C117.487 93.889 117.77 93.4516 118.122 93.0996C118.484 92.7476 118.9 92.481 119.37 92.2996C119.839 92.1076 120.324 92.0116 120.826 92.0116C121.327 92.0116 121.807 92.1076 122.266 92.2996C122.735 92.481 123.146 92.7476 123.498 93.0996C123.86 93.4516 124.148 93.889 124.362 94.4116C124.575 94.9236 124.682 95.5103 124.682 96.1716C124.682 96.833 124.575 97.425 124.362 97.9476C124.148 98.4596 123.86 98.8916 123.498 99.2436C123.146 99.5956 122.735 99.8676 122.266 100.06C121.807 100.241 121.327 100.332 120.826 100.332ZM120.826 98.4276C121.306 98.4276 121.668 98.225 121.914 97.8196C122.159 97.4143 122.282 96.865 122.282 96.1716C122.282 95.4783 122.159 94.929 121.914 94.5236C121.668 94.1183 121.306 93.9156 120.826 93.9156C120.335 93.9156 119.967 94.1183 119.722 94.5236C119.487 94.929 119.37 95.4783 119.37 96.1716C119.37 96.865 119.487 97.4143 119.722 97.8196C119.967 98.225 120.335 98.4276 120.826 98.4276ZM126.393 100.14V92.2036H128.313L128.473 93.2116H128.537C128.878 92.8916 129.251 92.6143 129.657 92.3796C130.062 92.1343 130.537 92.0116 131.081 92.0116C131.945 92.0116 132.569 92.2943 132.953 92.8596C133.347 93.425 133.545 94.209 133.545 95.2116V100.14H131.193V95.5156C131.193 94.9396 131.113 94.545 130.953 94.3316C130.803 94.1183 130.558 94.0116 130.217 94.0116C129.918 94.0116 129.662 94.081 129.449 94.2196C129.235 94.3476 129.001 94.5343 128.745 94.7796V100.14H126.393Z" fill="white"/>
<path fill-rule="evenodd" clip-rule="evenodd" d="M47.2648 75.7586C51.3602 59.4215 64.6378 46.9932 81.2096 43.9852C97.7814 40.9773 114.58 47.9463 124.156 61.8019C126.453 61.3311 128.792 61.0942 131.137 61.095C149.063 61.0968 163.911 75.009 165.079 92.8967C165.129 92.1581 165.161 91.4196 165.161 90.6684C165.161 80.4103 160.536 70.7039 152.573 64.2448C144.61 57.7856 134.158 55.2627 124.126 57.378C114.541 43.5458 97.7534 36.5963 81.1965 39.6068C64.6397 42.6174 51.3729 55.0318 47.2711 71.3525C46.3399 71.2563 45.4045 71.2079 44.4684 71.2074C29.6973 71.2073 17.7229 83.1817 17.7229 97.9529C17.7229 98.6977 17.7607 99.4426 17.8239 100.175C18.9575 86.3025 30.5435 75.6197 44.4621 75.6134L44.462 75.6134C45.3982 75.6139 46.3336 75.6623 47.2648 75.7586Z" fill="#F5D9D8"/>
<path d="M70.4307 58.2941C84.9755 53.4344 92.9655 53.6487 106.971 58.2941" stroke="#9C1D2C" stroke-width="5"/>
<path d="M12.5014 55.3584C17.3071 27.6457 64.9515 14.8208 85.1359 32.6323" stroke="#FA5A28" stroke-dasharray="4 4"/>
<path d="M90.0376 47.3374C94.8434 19.6247 142.488 6.7998 162.672 24.6113" stroke="#FA5A28" stroke-dasharray="4 4"/>
<path opacity="0.5" d="M68.9759 83.1409L67.9367 81.4321C67.4008 81.68 66.7879 81.8654 66.0981 81.9885C65.4127 82.0932 64.7598 82.0845 64.1394 81.9624L64.2042 79.6056C64.838 79.6727 65.4006 79.6739 65.8918 79.6092C66.3875 79.5263 66.8405 79.3601 67.2506 79.1107C67.729 78.8197 68.0176 78.5115 68.1163 78.1862C68.2264 77.854 68.1602 77.4885 67.9177 77.0898C67.7376 76.7936 67.4712 76.6123 67.1187 76.5458C66.7775 76.4723 66.3806 76.4484 65.928 76.474C65.4799 76.4812 65.0067 76.5115 64.5085 76.5648C64.0034 76.6066 63.5003 76.6005 62.9992 76.5463C62.5095 76.4852 62.0433 76.3474 61.6007 76.1328C61.1695 75.9112 60.798 75.5441 60.4863 75.0315C59.9736 74.1885 59.7788 73.355 59.902 72.5311C60.0296 71.6888 60.4493 70.942 61.1612 70.2906L60.0908 68.5305L61.7483 67.5225L62.7979 69.2484C63.3932 68.9956 63.9722 68.8698 64.5347 68.871C65.0972 68.8723 65.6511 68.949 66.1962 69.1012L65.8046 71.3057C65.3238 71.2079 64.8995 71.1773 64.5315 71.2138C64.1566 71.2389 63.7869 71.3623 63.4224 71.584C63.0123 71.8334 62.751 72.1093 62.6384 72.4118C62.5259 72.7144 62.5874 73.0593 62.8229 73.4466C62.9892 73.72 63.2395 73.8878 63.5737 73.9498C63.9124 73.9935 64.2989 74.0003 64.7332 73.9703C65.1789 73.9334 65.6508 73.8882 66.149 73.835C66.6471 73.7817 67.1411 73.7856 67.6308 73.8467C68.1319 73.9009 68.605 74.0501 69.0501 74.2945C69.4996 74.5204 69.8907 74.9068 70.2232 75.4537C70.722 76.2739 70.9294 77.1153 70.8454 77.9779C70.7544 78.8291 70.3235 79.6217 69.5527 80.3558L70.6335 82.1329L68.9759 83.1409Z" fill="#9D1F2E"/>
<path opacity="0.5" d="M139.8 122.473L139.528 120.492C138.937 120.506 138.301 120.432 137.62 120.269C136.949 120.092 136.354 119.824 135.834 119.465L136.832 117.329C137.387 117.643 137.902 117.869 138.379 118.005C138.866 118.127 139.348 118.155 139.824 118.089C140.378 118.013 140.766 117.846 140.986 117.587C141.219 117.326 141.304 116.964 141.241 116.502C141.194 116.159 141.022 115.886 140.725 115.685C140.441 115.481 140.087 115.301 139.662 115.144C139.248 114.972 138.802 114.811 138.324 114.662C137.844 114.499 137.385 114.293 136.947 114.043C136.522 113.792 136.149 113.48 135.829 113.106C135.522 112.731 135.327 112.247 135.246 111.652C135.112 110.675 135.265 109.833 135.707 109.126C136.159 108.404 136.842 107.887 137.754 107.573L137.474 105.532L139.396 105.268L139.671 107.27C140.318 107.275 140.899 107.391 141.414 107.616C141.93 107.841 142.407 108.132 142.846 108.489L141.608 110.355C141.207 110.074 140.83 109.876 140.478 109.763C140.124 109.637 139.735 109.603 139.313 109.661C138.837 109.726 138.488 109.875 138.264 110.107C138.04 110.34 137.959 110.681 138.021 111.13C138.064 111.447 138.227 111.701 138.509 111.891C138.802 112.066 139.153 112.226 139.564 112.372C139.987 112.515 140.438 112.662 140.916 112.812C141.394 112.962 141.846 113.162 142.271 113.413C142.709 113.663 143.083 113.988 143.394 114.39C143.716 114.776 143.921 115.286 144.008 115.92C144.138 116.871 143.993 117.726 143.572 118.483C143.149 119.228 142.438 119.783 141.439 120.149L141.722 122.21L139.8 122.473Z" fill="#9D1F2E"/>
<path opacity="0.5" d="M38.9288 120.386L39.6863 118.535C39.1686 118.251 38.6554 117.869 38.1467 117.387C37.6553 116.897 37.2745 116.367 37.0042 115.795L38.9388 114.448C39.2613 114.997 39.5944 115.451 39.9382 115.808C40.2994 116.157 40.7021 116.423 41.1464 116.604C41.6646 116.817 42.0839 116.866 42.4043 116.752C42.7369 116.643 42.9916 116.373 43.1683 115.941C43.2996 115.62 43.2873 115.298 43.1314 114.975C42.9879 114.657 42.7714 114.323 42.482 113.974C42.21 113.618 41.9046 113.256 41.5658 112.886C41.2321 112.505 40.9382 112.096 40.6842 111.661C40.4425 111.231 40.2765 110.774 40.1862 110.29C40.1083 109.812 40.183 109.295 40.4102 108.74C40.7839 107.827 41.3388 107.175 42.0748 106.785C42.8282 106.387 43.6783 106.281 44.6251 106.467L45.4053 104.56L47.2008 105.295L46.4357 107.165C46.9927 107.493 47.4378 107.884 47.7709 108.338C48.1041 108.791 48.3713 109.282 48.5726 109.811L46.5666 110.805C46.3596 110.36 46.1322 110.001 45.8843 109.727C45.6415 109.44 45.3226 109.216 44.9277 109.054C44.4835 108.872 44.1063 108.826 43.796 108.915C43.4858 109.004 43.2449 109.259 43.0732 109.678C42.952 109.974 42.9657 110.275 43.1143 110.581C43.2803 110.88 43.5044 111.195 43.7865 111.526C44.0809 111.863 44.3975 112.216 44.7363 112.585C45.0751 112.954 45.3653 113.354 45.607 113.784C45.8611 114.219 46.022 114.688 46.0898 115.192C46.175 115.687 46.0964 116.232 45.854 116.824C45.4904 117.712 44.9367 118.379 44.1928 118.824C43.454 119.256 42.5604 119.38 41.5121 119.196L40.7243 121.121L38.9288 120.386Z" fill="#9D1F2E"/>
<path opacity="0.5" d="M74.4547 115.782L75.0105 114.719C74.7171 114.52 74.4319 114.263 74.1549 113.946C73.8887 113.627 73.6908 113.289 73.5612 112.932L74.7922 112.235C74.9541 112.581 75.1278 112.871 75.3133 113.103C75.5096 113.332 75.7353 113.513 75.9906 113.647C76.2883 113.802 76.5361 113.855 76.7338 113.805C76.9386 113.759 77.1058 113.611 77.2355 113.363C77.3319 113.179 77.3425 112.986 77.2674 112.784C77.1994 112.586 77.0887 112.375 76.9353 112.15C76.7927 111.922 76.6305 111.688 76.4487 111.449C76.2707 111.202 76.1179 110.942 75.9904 110.668C75.87 110.397 75.7964 110.115 75.7695 109.821C75.7496 109.531 75.8231 109.226 75.9899 108.907C76.2641 108.383 76.6319 108.024 77.0934 107.832C77.5657 107.637 78.0794 107.621 78.6347 107.785L79.2072 106.689L80.2388 107.228L79.6774 108.303C79.9918 108.53 80.2358 108.788 80.4096 109.078C80.5833 109.367 80.7155 109.676 80.8062 110.003L79.5523 110.485C79.4535 110.208 79.3377 109.98 79.205 109.802C79.0759 109.617 78.8979 109.466 78.671 109.347C78.4158 109.214 78.193 109.165 78.0027 109.201C77.8124 109.237 77.6543 109.375 77.5283 109.617C77.4394 109.787 77.4308 109.967 77.5025 110.158C77.585 110.346 77.7012 110.546 77.8513 110.76C78.0084 110.978 78.1778 111.206 78.3596 111.446C78.5414 111.685 78.6924 111.94 78.8128 112.211C78.9403 112.485 79.0102 112.774 79.0226 113.079C79.0459 113.38 78.9685 113.7 78.7907 114.04C78.5238 114.551 78.1558 114.918 77.6866 115.142C77.2211 115.36 76.6804 115.384 76.0644 115.215L75.4863 116.321L74.4547 115.782Z" fill="#9D1F2E"/>
<path opacity="0.5" d="M120.49 79.1293L120.737 77.9549C120.401 77.8434 120.056 77.673 119.704 77.4436C119.361 77.208 119.079 76.9362 118.858 76.6281L119.854 75.6234C120.103 75.913 120.349 76.1445 120.59 76.3178C120.841 76.485 121.108 76.5982 121.39 76.6575C121.719 76.7266 121.971 76.7102 122.148 76.6084C122.333 76.5082 122.454 76.3211 122.511 76.047C122.554 75.8435 122.512 75.6548 122.385 75.481C122.266 75.3088 122.102 75.1354 121.893 74.9608C121.694 74.78 121.475 74.599 121.235 74.4178C120.997 74.2287 120.779 74.0195 120.582 73.7901C120.393 73.5623 120.246 73.3106 120.14 73.035C120.042 72.7611 120.03 72.4479 120.104 72.0956C120.226 71.5163 120.483 71.0716 120.875 70.7616C121.277 70.4455 121.767 70.291 122.346 70.2982L122.6 69.0886L123.739 69.328L123.49 70.5141C123.854 70.6478 124.159 70.8305 124.405 71.0619C124.651 71.2934 124.861 71.5543 125.037 71.8447L123.961 72.6486C123.791 72.4084 123.618 72.2208 123.442 72.0857C123.267 71.9428 123.055 71.8451 122.804 71.7924C122.523 71.7332 122.295 71.7467 122.122 71.8328C121.948 71.919 121.833 72.0952 121.778 72.3614C121.738 72.5493 121.779 72.7254 121.899 72.8897C122.03 73.0479 122.196 73.2096 122.398 73.3747C122.609 73.5415 122.834 73.7155 123.073 73.8967C123.313 74.0779 123.528 74.2824 123.717 74.5102C123.914 74.7396 124.06 74.9991 124.154 75.2887C124.258 75.5722 124.271 75.9018 124.192 76.2776C124.073 76.8413 123.819 77.2946 123.428 77.6375C123.039 77.9726 122.525 78.1426 121.886 78.1473L121.629 79.3687L120.49 79.1293Z" fill="#9D1F2E"/>
<path d="M81.5655 39.7788C79.6751 46.2637 83.3187 53.0776 89.7041 54.998C96.0894 56.9183 102.798 53.2174 104.69 46.7328C106.579 40.2469 102.936 33.4335 96.5505 31.5135C90.166 29.5932 83.4567 33.2938 81.5655 39.7788Z" fill="#E8AF2E"/>
<path d="M83.6548 40.4071C82.1055 45.7212 85.0916 51.3034 90.3228 52.876C95.5536 54.4497 101.05 51.4175 102.599 46.1039C104.149 40.7905 101.163 35.2082 95.9323 33.6339C90.7009 32.0613 85.2047 35.0939 83.6548 40.4071Z" fill="#F9CA35"/>
<path d="M91.2664 37.5372C90.3342 37.9057 89.7395 38.5217 89.4846 39.385C89.2472 40.189 89.3427 40.9502 89.7715 41.6705C90.2006 42.3898 91.0411 43.0822 92.2866 43.7488C93.534 44.4146 94.3071 44.9131 94.5989 45.2436C94.8941 45.5734 94.9732 45.9638 94.8411 46.4149C94.5401 47.434 93.6514 47.7175 92.1712 47.2679C90.5928 46.7864 89.891 45.9108 90.0679 44.6396L87.5442 44.0919C87.2756 46.5354 88.6314 48.2095 91.6077 49.117C92.8399 49.4918 94.0217 49.5297 95.1496 49.2299C96.279 48.9303 97.0042 48.2375 97.3238 47.1521C97.599 46.2233 97.5233 45.3769 97.0977 44.6164C96.6738 43.8532 95.8631 43.1567 94.6646 42.5215C93.4656 41.888 92.6844 41.4091 92.3217 41.0846C91.9574 40.7621 91.8424 40.384 91.9689 39.9508C92.1778 39.2451 92.9361 39.0889 94.2418 39.4873C95.5439 39.883 96.1142 40.4648 95.9575 41.2335L98.478 41.9026C98.9083 39.9361 97.6922 38.5173 94.8324 37.6463C93.3882 37.2062 92.2004 37.1695 91.2664 37.5372Z" fill="#C38728"/>
<path d="M96.0402 38.2712L96.6818 36.1024L94.3332 35.3875L93.6938 37.5558L96.0402 38.2712Z" fill="#C38728"/>
<path fill-rule="evenodd" clip-rule="evenodd" d="M90.511 48.3409L92.8654 49.0367L92.2244 51.2053L89.8701 50.5095L90.511 48.3409Z" fill="#C38728"/>
<path d="M83.9628 35.0089C83.5382 35.4419 82.2342 35.7041 81.3111 35.7041C82.2578 35.7041 83.6548 36.0856 84.0105 36.4464C84.3713 36.8126 84.7417 38.2271 84.7417 39.1889C84.7417 38.2271 85.1599 36.764 85.4722 36.4464C85.778 36.1362 87.2249 35.7041 88.1723 35.7041C87.2249 35.7041 85.8316 35.3279 85.4722 34.9622C85.0953 34.5792 84.7417 33.1827 84.7417 32.22C84.7417 33.2069 84.3763 34.5904 83.9628 35.0089Z" fill="white"/>
<path d="M86.7547 38.2409C86.6034 38.3944 86.1392 38.4883 85.8098 38.4883C86.147 38.4883 86.6451 38.6241 86.7711 38.7526C86.9 38.8827 87.0321 39.386 87.0321 39.7291C87.0321 39.386 87.1811 38.8654 87.2916 38.7526C87.4005 38.6422 87.9158 38.4891 88.2527 38.4883C87.9158 38.4889 87.4199 38.3542 87.2916 38.2243C87.1576 38.0878 87.0322 37.5903 87.0322 37.2478C87.0322 37.5988 86.9015 38.0917 86.7547 38.2409Z" fill="white"/>
<path d="M82.1779 40.2877C81.9678 40.5008 81.3244 40.6313 80.8676 40.6313C81.3357 40.6313 82.0253 40.8194 82.2016 40.9983C82.3795 41.179 82.5628 41.8771 82.5628 42.3526C82.5628 41.8771 82.7685 41.1545 82.9229 40.9983C83.0742 40.8446 83.7889 40.6313 84.2567 40.6313C83.7889 40.6313 83.1009 40.445 82.9229 40.2649C82.7359 40.0754 82.5628 39.385 82.5628 38.9102C82.5628 39.3969 82.3816 40.0811 82.1779 40.2877Z" fill="white"/>
<path d="M3.24822 55.149C4.0644 59.5053 8.24444 62.3879 12.5848 61.5874C16.9251 60.7868 19.7818 56.606 18.9664 52.2495C18.1493 47.8929 13.9698 45.0103 9.62947 45.8112C5.28962 46.6116 2.43253 50.7924 3.24822 55.149Z" fill="#E8AF2E"/>
<path d="M4.6684 54.8869C5.33715 58.4568 8.76222 60.818 12.3179 60.1618C15.8737 59.5063 18.2144 56.0808 17.5455 52.5113C16.8772 48.9418 13.4523 46.5804 9.89634 47.2356C6.34059 47.8918 4.00038 51.3174 4.6684 54.8869Z" fill="#F9CA35"/>
<path d="M8.30545 50.9193C7.86508 51.4151 7.69759 51.9539 7.80435 52.5348C7.90379 53.0758 8.18691 53.4916 8.65448 53.7833C9.12197 54.0741 9.82428 54.2255 10.7579 54.2399C11.6924 54.2533 12.2971 54.3117 12.5678 54.4168C12.8403 54.5206 13.0032 54.7247 13.0596 55.028C13.1855 55.7138 12.7455 56.1469 11.7381 56.3299C10.6631 56.5237 9.98818 56.2237 9.71388 55.428L8.06136 55.8678C8.63075 57.3757 9.92955 57.9453 11.9563 57.5794C12.7952 57.4274 13.5039 57.0937 14.0803 56.5791C14.6575 56.0642 14.8791 55.4413 14.7444 54.7112C14.6301 54.0859 14.3333 53.6144 13.8556 53.2983C13.3781 52.9803 12.6922 52.8175 11.7957 52.8073C10.8994 52.7983 10.2957 52.7537 9.98496 52.6734C9.67391 52.5947 9.49344 52.4085 9.43903 52.1174C9.35209 51.6424 9.75304 51.323 10.6423 51.1626C11.5286 51.0017 12.0385 51.1698 12.175 51.6659L13.8618 51.298C13.5299 50.02 12.3896 49.5574 10.4424 49.9096C9.45902 50.0873 8.74711 50.4235 8.30545 50.9193Z" fill="#C38728"/>
<path d="M11.3414 49.9114L11.0739 48.4517L9.47492 48.7411L9.7435 50.2L11.3414 49.9114Z" fill="#C38728"/>
<path fill-rule="evenodd" clip-rule="evenodd" d="M11.0772 57.4519L12.6755 57.1587L12.9432 58.6181L11.3449 58.9114L11.0772 57.4519Z" fill="#C38728"/>
<path d="M3.2421 51.6416C3.12048 52.0223 2.42909 52.568 1.88432 52.8458C2.44299 52.5609 3.38106 52.3631 3.69848 52.4667C4.02047 52.5721 4.66045 53.2866 4.94697 53.8483C4.66045 53.2866 4.47143 52.3062 4.56107 52.0268C4.64914 51.7535 5.37434 51.0657 5.93346 50.7805C5.37434 51.0657 4.44001 51.2653 4.11897 51.16C3.78246 51.0498 3.1578 50.3406 2.871 49.7784C3.165 50.3548 3.36144 51.2727 3.2421 51.6416Z" fill="white"/>
<path d="M5.85254 52.6888C5.80899 52.8241 5.56302 53.0186 5.36864 53.1178C5.56763 53.0163 5.90205 52.9457 6.01465 52.9828C6.1295 53.02 6.35738 53.2741 6.45959 53.4745C6.35738 53.2741 6.29025 52.9253 6.32183 52.8261C6.35323 52.7288 6.61168 52.4843 6.81029 52.3824C6.61165 52.4842 6.27885 52.5548 6.16447 52.5176C6.0447 52.4782 5.82252 52.2254 5.72051 52.0253C5.82508 52.2304 5.89477 52.5576 5.85254 52.6888Z" fill="white"/>
<path d="M3.76121 55.2616C3.70072 55.4493 3.35991 55.7192 3.09028 55.8567C3.36656 55.7158 3.82957 55.6181 3.98689 55.6695C4.14573 55.7215 4.46185 56.074 4.60349 56.3517C4.46185 56.074 4.368 55.59 4.41259 55.4524C4.45611 55.3171 4.81433 54.9773 5.09038 54.8365C4.81433 54.9773 4.35277 55.0757 4.19412 55.0241C4.02727 54.9696 3.71948 54.6186 3.57804 54.3413C3.72304 54.6255 3.81987 55.0797 3.76121 55.2616Z" fill="white"/>
<path d="M158.174 26.9233C157.926 31.3485 161.296 35.1461 165.702 35.4056C170.108 35.665 173.881 32.2877 174.129 27.8625C174.377 23.4369 171.007 19.6394 166.601 19.3802C162.195 19.1207 158.422 22.4979 158.174 26.9233Z" fill="#E8AF2E"/>
<path d="M159.615 27.0081C159.412 30.6343 162.174 33.7454 165.783 33.9576C169.393 34.1705 172.484 31.4033 172.687 27.7774C172.891 24.1515 170.129 21.0403 166.52 20.8271C162.91 20.615 159.819 23.3823 159.615 27.0081Z" fill="#F9CA35"/>
<path d="M164.095 24.0249C163.549 24.4011 163.257 24.8843 163.222 25.4739C163.19 26.023 163.365 26.4944 163.75 26.8893C164.134 27.2834 164.78 27.5982 165.683 27.8352C166.587 28.0714 167.16 28.2726 167.398 28.4393C167.638 28.6052 167.747 28.8423 167.73 29.1503C167.688 29.8463 167.158 30.1617 166.136 30.0988C165.045 30.0303 164.462 29.5776 164.385 28.7394L162.676 28.7718C162.868 30.3721 163.993 31.2354 166.049 31.3643C166.9 31.417 167.668 31.2623 168.35 30.9003C169.034 30.5382 169.398 29.9862 169.441 29.2451C169.48 28.6106 169.304 28.0819 168.916 27.6609C168.528 27.2379 167.901 26.9161 167.033 26.692C166.165 26.4691 165.589 26.2816 165.307 26.1293C165.023 25.9787 164.893 25.7548 164.909 25.4591C164.938 24.9771 165.404 24.7627 166.306 24.8193C167.205 24.8748 167.66 25.1599 167.674 25.6743L169.4 25.7199C169.383 24.3996 168.386 23.678 166.411 23.5549C165.414 23.4925 164.642 23.6489 164.095 24.0249Z" fill="#C38728"/>
<path d="M167.284 23.7712L167.373 22.2898L165.751 22.1889L165.663 23.6697L167.284 23.7712Z" fill="#C38728"/>
<path fill-rule="evenodd" clip-rule="evenodd" d="M165.226 31.0303L166.848 31.1274L166.759 32.6085L165.137 32.5115L165.226 31.0303Z" fill="#C38728"/>
<path d="M159.005 23.5163C158.796 23.8569 157.995 24.2216 157.399 24.3613C158.01 24.218 158.968 24.2501 159.252 24.4265C159.539 24.6057 159.99 25.4524 160.134 26.0664C159.99 25.4524 160.04 24.4553 160.194 24.2053C160.345 23.9611 161.214 23.4664 161.825 23.323C161.214 23.4664 160.259 23.437 159.972 23.2581C159.672 23.0706 159.234 22.2328 159.09 21.6183C159.238 22.2482 159.209 23.1866 159.005 23.5163Z" fill="white"/>
<path d="M161.29 25.1566C161.216 25.2775 160.93 25.4077 160.718 25.4575C160.935 25.4065 161.277 25.4178 161.377 25.4808C161.48 25.5443 161.641 25.8456 161.692 26.0646C161.641 25.8456 161.659 25.4908 161.713 25.402C161.767 25.3151 162.076 25.1393 162.293 25.0879C162.076 25.1393 161.736 25.1283 161.634 25.0648C161.527 24.998 161.372 24.6994 161.321 24.4808C161.373 24.7049 161.363 25.0392 161.29 25.1566Z" fill="white"/>
<path d="M158.645 27.1555C158.541 27.3233 158.146 27.504 157.851 27.5732C158.153 27.5023 158.626 27.518 158.766 27.6055C158.908 27.694 159.131 28.1118 159.202 28.4152C159.131 28.1118 159.156 27.6194 159.232 27.4964C159.306 27.3754 159.735 27.1311 160.037 27.0603C159.735 27.1311 159.264 27.1163 159.122 27.0283C158.973 26.9356 158.758 26.5211 158.687 26.2181C158.76 26.5288 158.745 26.9929 158.645 27.1555Z" fill="white"/>
<path d="M87.3453 9.53976C87.0972 13.9649 90.4676 17.7626 94.8736 18.0221C99.2795 18.2815 103.052 14.9042 103.301 10.479C103.548 6.05333 100.178 2.25581 95.7725 1.99667C91.3671 1.73713 87.594 5.1144 87.3453 9.53976Z" fill="#E8AF2E"/>
<path d="M88.787 9.62454C88.5836 13.2508 91.3454 16.3619 94.9549 16.574C98.5643 16.7869 101.656 14.0197 101.859 10.3939C102.063 6.76798 99.3008 3.65678 95.6913 3.44357C92.0817 3.23143 88.991 5.99875 88.787 9.62454Z" fill="#F9CA35"/>
<path d="M93.2664 6.64136C92.7204 7.0176 92.429 7.50078 92.3939 8.09036C92.3612 8.63945 92.5368 9.11088 92.9212 9.50573C93.3057 9.89987 93.9515 10.2147 94.8547 10.4516C95.7589 10.6878 96.3321 10.889 96.5699 11.0558C96.8096 11.2217 96.9191 11.4588 96.9015 11.7667C96.8599 12.4627 96.3292 12.7782 95.3072 12.7152C94.217 12.6467 93.6333 12.1941 93.557 11.3559L91.8473 11.3883C92.04 12.9885 93.1651 13.8519 95.2206 13.9807C96.0715 14.0335 96.8394 13.8788 97.522 13.5168C98.2055 13.1547 98.5695 12.6027 98.6131 11.8616C98.6515 11.2271 98.4759 10.6983 98.0876 10.2773C97.6998 9.85438 97.0727 9.53251 96.2046 9.30841C95.3364 9.08554 94.7608 8.89805 94.4783 8.7458C94.195 8.59513 94.0643 8.37121 94.081 8.07557C94.11 7.59352 94.5757 7.37911 95.4775 7.43579C96.3766 7.49126 96.8315 7.77632 96.8456 8.29071L98.5714 8.33635C98.5545 7.01608 97.5577 6.2945 95.5827 6.17135C94.5853 6.109 93.8137 6.26534 93.2664 6.64136Z" fill="#C38728"/>
<path d="M96.4554 6.38761L96.5444 4.90626L94.9225 4.80534L94.8348 6.28611L96.4554 6.38761Z" fill="#C38728"/>
<path fill-rule="evenodd" clip-rule="evenodd" d="M94.3975 13.6465L96.0195 13.7436L95.9309 15.2247L94.3088 15.1277L94.3975 13.6465Z" fill="#C38728"/>
<path d="M88.1773 6.13274C87.9682 6.47333 87.1665 6.83803 86.5711 6.97772C87.1817 6.83447 88.1399 6.86654 88.4233 7.04299C88.7108 7.22217 89.1616 8.06889 89.3056 8.68281C89.1616 8.06889 89.2122 7.07178 89.366 6.8218C89.5168 6.57753 90.3854 6.08281 90.9964 5.93944C90.3854 6.08281 89.4304 6.0535 89.1438 5.87454C88.8434 5.6871 88.4062 4.84927 88.262 4.23477C88.4098 4.8647 88.3813 5.80304 88.1773 6.13274Z" fill="white"/>
<path d="M90.462 7.77308C90.3874 7.89398 90.1021 8.02414 89.8896 8.07398C90.1071 8.02295 90.4487 8.0343 90.5492 8.09722C90.6518 8.16078 90.8124 8.46203 90.8638 8.68102C90.8124 8.46203 90.8305 8.10721 90.8849 8.01846C90.9386 7.93152 91.248 7.7558 91.4652 7.70431C91.248 7.75571 90.908 7.74479 90.8058 7.6813C90.6989 7.61444 90.5435 7.31583 90.4923 7.09725C90.5448 7.32131 90.5343 7.65568 90.462 7.77308Z" fill="white"/>
<path d="M87.8166 9.77224C87.713 9.94004 87.3176 10.1207 87.0229 10.1899C87.3249 10.119 87.7978 10.1347 87.9383 10.2222C88.0801 10.3107 88.3029 10.7285 88.3741 11.0319C88.3029 10.7285 88.3273 10.2361 88.4035 10.1131C88.4781 9.9921 88.9071 9.74778 89.2088 9.67699C88.9071 9.74778 88.4354 9.73298 88.2937 9.64498C88.1447 9.55229 87.9297 9.13783 87.8586 8.83477C87.9315 9.14546 87.917 9.60956 87.8166 9.77224Z" fill="white"/>
<path d="M71.8491 28.6091C72.2292 31.9302 75.7337 33.8359 79.6769 32.8656C83.6199 31.8952 86.5081 28.4161 86.1287 25.0948C85.7478 21.7735 82.2437 19.8677 78.3006 20.8383C74.358 21.8085 71.4694 25.2877 71.8491 28.6091Z" fill="#E8AF2E"/>
<path d="M73.1393 28.2917C73.4507 31.0132 76.3223 32.5742 79.5526 31.779C82.7829 30.9843 85.1494 28.1336 84.8379 25.4124C84.5268 22.6911 81.6553 21.13 78.4249 21.9244C75.1945 22.7197 72.8285 25.5703 73.1393 28.2917Z" fill="#F9CA35"/>
<path d="M76.7078 24.9161C76.2745 25.3368 76.0816 25.7691 76.1304 26.2121C76.1759 26.6247 76.3956 26.9253 76.7901 27.1145C77.1845 27.3031 77.8 27.3645 78.6333 27.3008C79.4673 27.2363 80.003 27.2332 80.2365 27.2933C80.4717 27.3521 80.601 27.4977 80.6271 27.7289C80.6846 28.2519 80.2567 28.6239 79.3416 28.847C78.3654 29.0839 77.7863 28.9047 77.605 28.3081L76.0928 28.7826C76.4808 29.9092 77.5959 30.2478 79.4365 29.8008C80.1984 29.6154 80.8585 29.2992 81.4148 28.8529C81.972 28.4064 82.22 27.9043 82.1581 27.3476C82.1062 26.8706 81.8787 26.5279 81.4771 26.3205C81.0759 26.1115 80.4759 26.04 79.6755 26.1039C78.8753 26.1688 78.3393 26.1826 78.0681 26.145C77.7964 26.1088 77.6501 25.9785 77.6248 25.7566C77.5852 25.3943 77.9691 25.1138 78.7767 24.9178C79.5817 24.7217 80.0238 24.8115 80.1061 25.1862L81.643 24.7649C81.4489 23.798 80.4669 23.5299 78.6985 23.9598C77.8054 24.1768 77.1422 24.4952 76.7078 24.9161Z" fill="#C38728"/>
<path d="M79.5018 23.8886L79.3799 22.7752L77.9277 23.1285L78.0507 24.241L79.5018 23.8886Z" fill="#C38728"/>
<path fill-rule="evenodd" clip-rule="evenodd" d="M78.6442 29.6755L80.1298 29.5123L80.2521 30.6254L78.7665 30.7886L78.6442 29.6755Z" fill="#C38728"/>
<path d="M72.1248 25.8833C71.9856 26.189 71.324 26.6686 70.8148 26.9283C71.337 26.662 72.1912 26.433 72.4665 26.4881C72.7458 26.5442 73.2605 27.0483 73.4715 27.4621C73.2605 27.0483 73.1702 26.3014 73.2727 26.0769C73.3733 25.8575 74.0766 25.2646 74.5991 24.9981C74.0766 25.2646 73.2256 25.4947 72.9471 25.4386C72.6552 25.3799 72.1538 24.8787 71.9426 24.4646C72.1591 24.8891 72.2611 25.587 72.1248 25.8833Z" fill="white"/>
<path d="M74.3738 26.488C74.324 26.5966 74.0886 26.7676 73.9069 26.8602C74.0929 26.7654 74.3974 26.6837 74.4951 26.7035C74.5948 26.7232 74.778 26.9025 74.8533 27.0501C74.778 26.9025 74.746 26.6367 74.7822 26.557C74.8181 26.4789 75.0686 26.2681 75.2543 26.173C75.0686 26.268 74.7655 26.3496 74.6663 26.3298C74.5624 26.3088 74.3841 26.1301 74.309 25.9828C74.386 26.1338 74.4221 26.3825 74.3738 26.488Z" fill="white"/>
<path d="M72.2985 28.6557C72.2293 28.8065 71.9031 29.0437 71.6511 29.1722C71.9093 29.0405 72.331 28.9274 72.4674 28.9548C72.6052 28.9824 72.8595 29.2311 72.9638 29.4356C72.8595 29.2311 72.8144 28.8624 72.8653 28.7518C72.915 28.6432 73.2624 28.3503 73.5204 28.2187C73.2624 28.3503 72.842 28.4638 72.7044 28.4364C72.5596 28.4074 72.3127 28.1592 72.2085 27.955C72.3153 28.1643 72.3655 28.5096 72.2985 28.6557Z" fill="white"/>
<path d="M107.678 24.0491C108.697 27.6417 111.691 30.4349 114.366 30.2879C117.042 30.1408 118.385 27.1089 117.368 23.5163C116.349 19.9233 113.355 17.1302 110.679 17.2775C108.004 17.4245 106.66 20.4563 107.678 24.0491Z" fill="#E8AF2E"/>
<path d="M108.554 24.0009C109.388 26.9449 111.842 29.233 114.033 29.1122C116.225 28.992 117.326 26.5079 116.492 23.5642C115.658 20.6205 113.205 18.3322 111.012 18.4522C108.821 18.573 107.72 21.0572 108.554 24.0009Z" fill="#F9CA35"/>
<path d="M110.419 21.2297C110.195 21.5776 110.15 21.9913 110.284 22.4701C110.41 22.916 110.638 23.2824 110.969 23.5701C111.3 23.8572 111.765 24.059 112.362 24.1773C112.959 24.2948 113.352 24.4108 113.536 24.5262C113.722 24.6407 113.849 24.8233 113.92 25.0734C114.078 25.6386 113.847 25.9362 113.226 25.9681C112.563 26.001 112.098 25.6828 111.832 25.0123L110.829 25.1768C111.364 26.4531 112.257 27.0591 113.508 26.9968C114.025 26.9705 114.439 26.7835 114.748 26.436C115.057 26.0883 115.127 25.6133 114.957 25.0114C114.813 24.4961 114.57 24.0834 114.229 23.775C113.889 23.4649 113.433 23.2558 112.86 23.1451C112.288 23.0354 111.898 22.9306 111.69 22.8306C111.483 22.7319 111.347 22.5617 111.279 22.3217C111.169 21.9301 111.388 21.7194 111.937 21.6921C112.483 21.6642 112.828 21.8575 112.971 22.2716L114.005 22.1688C113.647 21.1043 112.867 20.6024 111.666 20.6628C111.06 20.6932 110.644 20.8819 110.419 21.2297Z" fill="#C38728"/>
<path d="M112.239 20.7672L111.902 19.5641L110.916 19.6139L111.254 20.8164L112.239 20.7672Z" fill="#C38728"/>
<path fill-rule="evenodd" clip-rule="evenodd" d="M112.95 26.9008L113.901 26.634L114.238 27.837L113.287 28.1038L112.95 26.9008Z" fill="#C38728"/>
<path d="M107.274 21.2312C107.24 21.5231 106.861 21.8824 106.546 22.0434C106.869 21.8783 107.445 21.8267 107.659 21.9462C107.876 22.0676 108.366 22.7147 108.613 23.1987C108.366 22.7147 108.133 21.9056 108.159 21.6913C108.183 21.4819 108.567 21.0123 108.891 20.8471C108.567 21.0123 107.994 21.0659 107.778 20.9446C107.551 20.8176 107.071 20.1766 106.824 19.6921C107.077 20.1887 107.308 20.9486 107.274 21.2312Z" fill="white"/>
<path d="M109.058 22.3708C109.045 22.4745 108.911 22.6026 108.798 22.6601C108.913 22.6013 109.118 22.5828 109.195 22.6254C109.272 22.6685 109.446 22.8987 109.534 23.0713C109.446 22.8987 109.364 22.6107 109.372 22.5347C109.381 22.4602 109.518 22.2933 109.633 22.2341C109.518 22.2932 109.314 22.3119 109.237 22.2689C109.156 22.2236 108.985 21.9951 108.898 21.8228C108.988 21.9994 109.07 22.2702 109.058 22.3708Z" fill="white"/>
<path d="M108.018 24.1985C108.001 24.3424 107.815 24.5202 107.659 24.5999C107.819 24.5183 108.103 24.4927 108.209 24.552C108.316 24.6119 108.558 24.9312 108.68 25.1704C108.558 24.9312 108.443 24.5317 108.455 24.4262C108.468 24.3225 108.657 24.0905 108.817 24.009C108.657 24.0905 108.374 24.1168 108.267 24.0572C108.155 23.9944 107.918 23.6772 107.796 23.4383C107.921 23.6832 108.035 24.0591 108.018 24.1985Z" fill="white"/>
<path fill-rule="evenodd" clip-rule="evenodd" d="M151.54 127.329V121.814C151.54 121.658 151.671 121.53 151.833 121.53H174.058C174.22 121.53 174.352 121.658 174.352 121.814V127.329C174.352 127.486 174.22 127.613 174.058 127.613H151.833C151.671 127.613 151.54 127.486 151.54 127.329Z" fill="#FFD618"/>
<path fill-rule="evenodd" clip-rule="evenodd" d="M151.908 121.53C151.705 121.53 151.54 121.687 151.54 121.88V127.263C151.54 127.456 151.705 127.613 151.908 127.613H173.985C174.187 127.613 174.352 127.456 174.352 127.263V121.88C174.352 121.687 174.187 121.53 173.985 121.53H151.908ZM174.2 121.88V127.263C174.2 127.377 174.104 127.468 173.984 127.468H151.908C151.788 127.468 151.692 127.377 151.692 127.263V121.88C151.692 121.766 151.788 121.675 151.908 121.675H173.984C174.104 121.675 174.2 121.766 174.2 121.88Z" fill="#E2A129"/>
<path fill-rule="evenodd" clip-rule="evenodd" d="M151.225 127.613V121.53H151.854V127.613H151.225Z" fill="#FAC20D"/>
<path fill-rule="evenodd" clip-rule="evenodd" d="M152.746 127.613V121.53H153.375V127.613H152.746Z" fill="#FAC20D"/>
<path fill-rule="evenodd" clip-rule="evenodd" d="M154.267 127.613V121.53H154.895V127.613H154.267Z" fill="#FAC20D"/>
<path fill-rule="evenodd" clip-rule="evenodd" d="M155.788 127.613V121.53H156.416V127.613H155.788Z" fill="#FAC20D"/>
<path fill-rule="evenodd" clip-rule="evenodd" d="M157.309 127.613V121.53H157.937V127.613H157.309Z" fill="#FAC20D"/>
<path fill-rule="evenodd" clip-rule="evenodd" d="M158.83 127.613V121.53H159.458V127.613H158.83Z" fill="#FAC20D"/>
<path fill-rule="evenodd" clip-rule="evenodd" d="M158.83 127.613V121.53H159.458V127.613H158.83Z" fill="#FAC20D"/>
<path fill-rule="evenodd" clip-rule="evenodd" d="M160.35 127.616V121.533H160.978V127.616H160.35Z" fill="#FAC20D"/>
<path fill-rule="evenodd" clip-rule="evenodd" d="M161.871 127.616V121.533H162.5V127.616H161.871Z" fill="#FAC20D"/>
<path fill-rule="evenodd" clip-rule="evenodd" d="M163.392 127.616V121.533H164.02V127.616H163.392Z" fill="#FAC20D"/>
<path fill-rule="evenodd" clip-rule="evenodd" d="M164.913 127.616V121.533H165.541V127.616H164.913Z" fill="#FAC20D"/>
<path fill-rule="evenodd" clip-rule="evenodd" d="M166.434 127.616V121.533H167.062V127.616H166.434Z" fill="#FAC20D"/>
<path fill-rule="evenodd" clip-rule="evenodd" d="M166.434 127.616V121.533H167.062V127.616H166.434Z" fill="#FAC20D"/>
<path fill-rule="evenodd" clip-rule="evenodd" d="M170.996 127.616V121.533H171.624V127.616H170.996Z" fill="#FAC20D"/>
<path fill-rule="evenodd" clip-rule="evenodd" d="M172.517 127.616V121.533H173.145V127.616H172.517Z" fill="#FAC20D"/>
<path fill-rule="evenodd" clip-rule="evenodd" d="M172.517 127.616V121.533H173.145V127.616H172.517Z" fill="#FAC20D"/>
<path fill-rule="evenodd" clip-rule="evenodd" d="M125.686 127.329V121.814C125.686 121.658 125.817 121.53 125.98 121.53H148.205C148.367 121.53 148.498 121.658 148.498 121.814V127.329C148.498 127.486 148.367 127.613 148.205 127.613H125.98C125.817 127.613 125.686 127.486 125.686 127.329Z" fill="#FFD618"/>
<path fill-rule="evenodd" clip-rule="evenodd" d="M126.054 121.53C125.852 121.53 125.686 121.687 125.686 121.88V127.263C125.686 127.456 125.852 127.613 126.054 127.613H148.131C148.334 127.613 148.498 127.456 148.498 127.263V121.88C148.498 121.687 148.334 121.53 148.131 121.53H126.054ZM148.346 121.88V127.263C148.346 127.377 148.25 127.468 148.131 127.468H126.054C125.935 127.468 125.838 127.377 125.838 127.263V121.88C125.838 121.766 125.935 121.675 126.054 121.675H148.131C148.25 121.675 148.346 121.766 148.346 121.88Z" fill="#E2A129"/>
<path fill-rule="evenodd" clip-rule="evenodd" d="M126.893 127.613V121.53H127.521V127.613H126.893Z" fill="#FAC20D"/>
<path fill-rule="evenodd" clip-rule="evenodd" d="M128.414 127.613V121.53H129.042V127.613H128.414Z" fill="#FAC20D"/>
<path fill-rule="evenodd" clip-rule="evenodd" d="M129.934 127.613V121.53H130.563V127.613H129.934Z" fill="#FAC20D"/>
<path fill-rule="evenodd" clip-rule="evenodd" d="M129.934 127.613V121.53H130.563V127.613H129.934Z" fill="#FAC20D"/>
<path fill-rule="evenodd" clip-rule="evenodd" d="M131.456 127.613V121.53H132.084V127.613H131.456Z" fill="#FAC20D"/>
<path fill-rule="evenodd" clip-rule="evenodd" d="M132.976 127.613V121.53H133.605V127.613H132.976Z" fill="#FAC20D"/>
<path fill-rule="evenodd" clip-rule="evenodd" d="M134.497 127.613V121.53H135.125V127.613H134.497Z" fill="#FAC20D"/>
<path fill-rule="evenodd" clip-rule="evenodd" d="M136.018 127.613V121.53H136.646V127.613H136.018Z" fill="#FAC20D"/>
<path fill-rule="evenodd" clip-rule="evenodd" d="M137.539 127.613V121.53H138.167V127.613H137.539Z" fill="#FAC20D"/>
<path fill-rule="evenodd" clip-rule="evenodd" d="M137.539 127.613V121.53H138.167V127.613H137.539Z" fill="#FAC20D"/>
<path fill-rule="evenodd" clip-rule="evenodd" d="M139.059 127.613V121.53H139.688V127.613H139.059Z" fill="#FAC20D"/>
<path fill-rule="evenodd" clip-rule="evenodd" d="M140.58 127.613V121.53H141.208V127.613H140.58Z" fill="#FAC20D"/>
<path fill-rule="evenodd" clip-rule="evenodd" d="M142.101 127.613V121.53H142.729V127.613H142.101Z" fill="#FAC20D"/>
<path fill-rule="evenodd" clip-rule="evenodd" d="M145.142 127.613V121.53H145.771V127.613H145.142Z" fill="#FAC20D"/>
<path fill-rule="evenodd" clip-rule="evenodd" d="M146.663 127.613V121.53H147.291V127.613H146.663Z" fill="#FAC20D"/>
<path fill-rule="evenodd" clip-rule="evenodd" d="M148.184 127.613V121.53H148.812V127.613H148.184Z" fill="#FAC20D"/>
<path fill-rule="evenodd" clip-rule="evenodd" d="M145.457 121.246V115.731C145.457 115.574 145.588 115.447 145.75 115.447H167.975C168.137 115.447 168.269 115.574 168.269 115.731V121.246C168.269 121.402 168.137 121.53 167.975 121.53H145.75C145.588 121.53 145.457 121.402 145.457 121.246Z" fill="#FFD618"/>
<path fill-rule="evenodd" clip-rule="evenodd" d="M145.825 115.447C145.622 115.447 145.457 115.604 145.457 115.797V121.18C145.457 121.373 145.622 121.53 145.825 121.53H167.902C168.104 121.53 168.269 121.373 168.269 121.18V115.797C168.269 115.604 168.104 115.447 167.902 115.447H145.825ZM168.117 115.796V121.18C168.117 121.293 168.021 121.385 167.902 121.385H145.825C145.706 121.385 145.609 121.293 145.609 121.18V115.796C145.609 115.683 145.706 115.591 145.825 115.591H167.902C168.021 115.591 168.117 115.683 168.117 115.796Z" fill="#E2A129"/>
<path fill-rule="evenodd" clip-rule="evenodd" d="M145.143 121.53V115.447H145.771V121.53H145.143Z" fill="#FAC20D"/>
<path fill-rule="evenodd" clip-rule="evenodd" d="M146.663 121.53V115.447H147.292V121.53H146.663Z" fill="#FAC20D"/>
<path fill-rule="evenodd" clip-rule="evenodd" d="M148.184 121.53V115.447H148.812V121.53H148.184Z" fill="#FAC20D"/>
<path fill-rule="evenodd" clip-rule="evenodd" d="M149.705 121.53V115.447H150.333V121.53H149.705Z" fill="#FAC20D"/>
<path fill-rule="evenodd" clip-rule="evenodd" d="M151.226 121.53V115.447H151.854V121.53H151.226Z" fill="#FAC20D"/>
<path fill-rule="evenodd" clip-rule="evenodd" d="M151.226 121.53V115.447H151.854V121.53H151.226Z" fill="#FAC20D"/>
<path fill-rule="evenodd" clip-rule="evenodd" d="M152.747 121.53V115.447H153.375V121.53H152.747Z" fill="#FAC20D"/>
<path fill-rule="evenodd" clip-rule="evenodd" d="M154.267 121.53V115.447H154.895V121.53H154.267Z" fill="#FAC20D"/>
<path fill-rule="evenodd" clip-rule="evenodd" d="M155.788 121.53V115.447H156.416V121.53H155.788Z" fill="#FAC20D"/>
<path fill-rule="evenodd" clip-rule="evenodd" d="M157.309 121.53V115.447H157.937V121.53H157.309Z" fill="#FAC20D"/>
<path fill-rule="evenodd" clip-rule="evenodd" d="M158.83 121.53V115.447H159.458V121.53H158.83Z" fill="#FAC20D"/>
<path fill-rule="evenodd" clip-rule="evenodd" d="M158.83 121.53V115.447H159.458V121.53H158.83Z" fill="#FAC20D"/>
<path fill-rule="evenodd" clip-rule="evenodd" d="M160.35 121.533V115.45H160.978V121.533H160.35Z" fill="#FAC20D"/>
<path fill-rule="evenodd" clip-rule="evenodd" d="M164.913 121.533V115.45H165.541V121.533H164.913Z" fill="#FAC20D"/>
<path fill-rule="evenodd" clip-rule="evenodd" d="M166.434 121.533V115.45H167.062V121.533H166.434Z" fill="#FAC20D"/>
<path fill-rule="evenodd" clip-rule="evenodd" d="M166.434 121.533V115.45H167.062V121.533H166.434Z" fill="#FAC20D"/>
<path fill-rule="evenodd" clip-rule="evenodd" d="M142.415 115.162V109.648C142.415 109.491 142.546 109.363 142.708 109.363H164.933C165.095 109.363 165.227 109.491 165.227 109.648V115.162C165.227 115.319 165.095 115.447 164.933 115.447H142.708C142.546 115.447 142.415 115.319 142.415 115.162Z" fill="#FFD618"/>
<path fill-rule="evenodd" clip-rule="evenodd" d="M142.783 109.363C142.581 109.363 142.415 109.52 142.415 109.713V115.097C142.415 115.289 142.581 115.446 142.783 115.446H164.86C165.062 115.446 165.227 115.289 165.227 115.097V109.713C165.227 109.52 165.062 109.363 164.86 109.363H142.783ZM165.075 109.713V115.096C165.075 115.21 164.979 115.301 164.86 115.301H142.783C142.664 115.301 142.567 115.21 142.567 115.096V109.713C142.567 109.599 142.664 109.508 142.783 109.508H164.86C164.979 109.508 165.075 109.599 165.075 109.713Z" fill="#E2A129"/>
<path fill-rule="evenodd" clip-rule="evenodd" d="M143.622 115.447V109.363H144.25V115.447H143.622Z" fill="#FAC20D"/>
<path fill-rule="evenodd" clip-rule="evenodd" d="M143.622 115.447V109.363H144.25V115.447H143.622Z" fill="#FAC20D"/>
<path fill-rule="evenodd" clip-rule="evenodd" d="M145.143 115.447V109.363H145.771V115.447H145.143Z" fill="#FAC20D"/>
<path fill-rule="evenodd" clip-rule="evenodd" d="M146.663 115.447V109.363H147.292V115.447H146.663Z" fill="#FAC20D"/>
<path fill-rule="evenodd" clip-rule="evenodd" d="M148.184 115.447V109.363H148.813V115.447H148.184Z" fill="#FAC20D"/>
<path fill-rule="evenodd" clip-rule="evenodd" d="M149.705 115.447V109.363H150.333V115.447H149.705Z" fill="#FAC20D"/>
<path fill-rule="evenodd" clip-rule="evenodd" d="M151.226 115.447V109.363H151.854V115.447H151.226Z" fill="#FAC20D"/>
<path fill-rule="evenodd" clip-rule="evenodd" d="M151.226 115.447V109.363H151.854V115.447H151.226Z" fill="#FAC20D"/>
<path fill-rule="evenodd" clip-rule="evenodd" d="M152.747 115.447V109.363H153.375V115.447H152.747Z" fill="#FAC20D"/>
<path fill-rule="evenodd" clip-rule="evenodd" d="M154.267 115.447V109.363H154.896V115.447H154.267Z" fill="#FAC20D"/>
<path fill-rule="evenodd" clip-rule="evenodd" d="M155.788 115.447V109.363H156.416V115.447H155.788Z" fill="#FAC20D"/>
<path fill-rule="evenodd" clip-rule="evenodd" d="M157.309 115.447V109.363H157.937V115.447H157.309Z" fill="#FAC20D"/>
<path fill-rule="evenodd" clip-rule="evenodd" d="M158.83 115.447V109.363H159.458V115.447H158.83Z" fill="#FAC20D"/>
<path fill-rule="evenodd" clip-rule="evenodd" d="M161.872 115.45V109.367H162.5V115.45H161.872Z" fill="#FAC20D"/>
<path fill-rule="evenodd" clip-rule="evenodd" d="M163.392 115.45V109.367H164.02V115.45H163.392Z" fill="#FAC20D"/>
<path fill-rule="evenodd" clip-rule="evenodd" d="M164.913 115.45V109.367H165.541V115.45H164.913Z" fill="#FAC20D"/>
<path fill-rule="evenodd" clip-rule="evenodd" d="M148.499 96.4368C148.499 90.1478 153.616 85.0307 159.905 85.0307C166.194 85.0307 171.311 90.1478 171.311 96.4368C171.311 102.726 166.194 107.843 159.905 107.843C153.616 107.843 148.499 102.726 148.499 96.4368Z" fill="#FDC00D"/>
<path fill-rule="evenodd" clip-rule="evenodd" d="M148.499 96.4368C148.499 102.736 153.605 107.843 159.905 107.843C166.204 107.843 171.311 102.736 171.311 96.4368C171.311 90.1376 166.204 85.0308 159.905 85.0308C153.605 85.0308 148.499 90.1376 148.499 96.4368ZM170.077 96.4367C170.077 102.046 165.514 106.61 159.905 106.61C154.295 106.61 149.732 102.046 149.732 96.4367C149.732 90.8274 154.295 86.2638 159.905 86.2638C165.514 86.2638 170.077 90.8274 170.077 96.4367Z" fill="#FFD618"/>
<path fill-rule="evenodd" clip-rule="evenodd" d="M151.54 102.044L163.748 88.0725L165.227 89.3091L153.019 103.281L151.54 102.044Z" fill="#FFD618"/>
<path fill-rule="evenodd" clip-rule="evenodd" d="M153.061 104.055L165.583 89.5932L168.269 91.8597L155.746 106.322L153.061 104.055Z" fill="#FFD618"/>
<path fill-rule="evenodd" clip-rule="evenodd" d="M16.3804 127.795V122.28C16.3804 122.124 16.5115 121.996 16.6738 121.996H38.8985C39.0608 121.996 39.1925 122.124 39.1925 122.28V127.795C39.1925 127.952 39.0608 128.079 38.8985 128.079H16.6738C16.5115 128.079 16.3804 127.952 16.3804 127.795Z" fill="#FFD618"/>
<path fill-rule="evenodd" clip-rule="evenodd" d="M16.7485 121.996C16.5459 121.996 16.3804 122.153 16.3804 122.346V127.729C16.3804 127.922 16.5459 128.079 16.7485 128.079H38.825C39.0276 128.079 39.1925 127.922 39.1925 127.729V122.346C39.1925 122.153 39.0276 121.996 38.825 121.996H16.7485ZM39.0404 122.345V127.729C39.0404 127.842 38.9443 127.934 38.8251 127.934H16.7485C16.6293 127.934 16.5325 127.842 16.5325 127.729V122.345C16.5325 122.232 16.6293 122.14 16.7485 122.14H38.8251C38.9443 122.14 39.0404 122.232 39.0404 122.345Z" fill="#E2A129"/>
<path fill-rule="evenodd" clip-rule="evenodd" d="M16.0663 128.079V121.996H16.6945V128.079H16.0663Z" fill="#FAC20D"/>
<path fill-rule="evenodd" clip-rule="evenodd" d="M17.587 128.079V121.996H18.2152V128.079H17.587Z" fill="#FAC20D"/>
<path fill-rule="evenodd" clip-rule="evenodd" d="M19.1078 128.079V121.996H19.7361V128.079H19.1078Z" fill="#FAC20D"/>
<path fill-rule="evenodd" clip-rule="evenodd" d="M20.6288 128.079V121.996H21.257V128.079H20.6288Z" fill="#FAC20D"/>
<path fill-rule="evenodd" clip-rule="evenodd" d="M22.1494 128.079V121.996H22.7776V128.079H22.1494Z" fill="#FAC20D"/>
<path fill-rule="evenodd" clip-rule="evenodd" d="M22.1494 128.079V121.996H22.7776V128.079H22.1494Z" fill="#FAC20D"/>
<path fill-rule="evenodd" clip-rule="evenodd" d="M23.6702 128.079V121.996H24.2984V128.079H23.6702Z" fill="#FAC20D"/>
<path fill-rule="evenodd" clip-rule="evenodd" d="M25.191 128.079V121.996H25.8192V128.079H25.191Z" fill="#FAC20D"/>
<path fill-rule="evenodd" clip-rule="evenodd" d="M26.7118 128.079V121.996H27.34V128.079H26.7118Z" fill="#FAC20D"/>
<path fill-rule="evenodd" clip-rule="evenodd" d="M28.2327 128.079V121.996H28.8609V128.079H28.2327Z" fill="#FAC20D"/>
<path fill-rule="evenodd" clip-rule="evenodd" d="M29.7534 128.079V121.996H30.3816V128.079H29.7534Z" fill="#FAC20D"/>
<path fill-rule="evenodd" clip-rule="evenodd" d="M29.7534 128.079V121.996H30.3816V128.079H29.7534Z" fill="#FAC20D"/>
<path fill-rule="evenodd" clip-rule="evenodd" d="M31.2742 128.079V121.996H31.9024V128.079H31.2742Z" fill="#FAC20D"/>
<path fill-rule="evenodd" clip-rule="evenodd" d="M35.8367 128.079V121.996H36.4649V128.079H35.8367Z" fill="#FAC20D"/>
<path fill-rule="evenodd" clip-rule="evenodd" d="M35.8367 128.079V121.996H36.4649V128.079H35.8367Z" fill="#FAC20D"/>
<path fill-rule="evenodd" clip-rule="evenodd" d="M37.3574 128.079V121.996H37.9856V128.079H37.3574Z" fill="#FAC20D"/>
<path fill-rule="evenodd" clip-rule="evenodd" d="M17.9012 121.712V116.197C17.9012 116.04 18.0323 115.913 18.1946 115.913H40.4193C40.5816 115.913 40.7133 116.04 40.7133 116.197V121.712C40.7133 121.868 40.5816 121.996 40.4193 121.996H18.1946C18.0323 121.996 17.9012 121.868 17.9012 121.712Z" fill="#FFD618"/>
<path fill-rule="evenodd" clip-rule="evenodd" d="M18.2693 115.913C18.0667 115.913 17.9012 116.07 17.9012 116.263V121.646C17.9012 121.839 18.0667 121.996 18.2693 121.996H40.3458C40.5484 121.996 40.7133 121.839 40.7133 121.646V116.263C40.7133 116.07 40.5484 115.913 40.3458 115.913H18.2693ZM40.5612 116.262V121.646C40.5612 121.759 40.4651 121.851 40.3458 121.851H18.2693C18.15 121.851 18.0533 121.759 18.0533 121.646V116.262C18.0533 116.149 18.15 116.057 18.2693 116.057H40.3458C40.4651 116.057 40.5612 116.149 40.5612 116.262Z" fill="#E2A129"/>
<path fill-rule="evenodd" clip-rule="evenodd" d="M17.587 121.996V115.913H18.2152V121.996H17.587Z" fill="#FAC20D"/>
<path fill-rule="evenodd" clip-rule="evenodd" d="M19.1078 121.996V115.913H19.7361V121.996H19.1078Z" fill="#FAC20D"/>
<path fill-rule="evenodd" clip-rule="evenodd" d="M20.6288 121.996V115.913H21.257V121.996H20.6288Z" fill="#FAC20D"/>
<path fill-rule="evenodd" clip-rule="evenodd" d="M22.1494 121.996V115.913H22.7776V121.996H22.1494Z" fill="#FAC20D"/>
<path fill-rule="evenodd" clip-rule="evenodd" d="M23.6702 121.996V115.913H24.2984V121.996H23.6702Z" fill="#FAC20D"/>
<path fill-rule="evenodd" clip-rule="evenodd" d="M25.191 121.996V115.913H25.8192V121.996H25.191Z" fill="#FAC20D"/>
<path fill-rule="evenodd" clip-rule="evenodd" d="M25.191 121.996V115.913H25.8192V121.996H25.191Z" fill="#FAC20D"/>
<path fill-rule="evenodd" clip-rule="evenodd" d="M26.7118 121.996V115.913H27.34V121.996H26.7118Z" fill="#FAC20D"/>
<path fill-rule="evenodd" clip-rule="evenodd" d="M28.2327 121.996V115.913H28.8609V121.996H28.2327Z" fill="#FAC20D"/>
<path fill-rule="evenodd" clip-rule="evenodd" d="M29.7534 121.996V115.913H30.3816V121.996H29.7534Z" fill="#FAC20D"/>
<path fill-rule="evenodd" clip-rule="evenodd" d="M31.2742 121.996V115.913H31.9024V121.996H31.2742Z" fill="#FAC20D"/>
<path fill-rule="evenodd" clip-rule="evenodd" d="M32.7951 121.996V115.913H33.4233V121.996H32.7951Z" fill="#FAC20D"/>
<path fill-rule="evenodd" clip-rule="evenodd" d="M32.7951 121.996V115.913H33.4233V121.996H32.7951Z" fill="#FAC20D"/>
<path fill-rule="evenodd" clip-rule="evenodd" d="M37.3574 121.996V115.913H37.9856V121.996H37.3574Z" fill="#FAC20D"/>
<path fill-rule="evenodd" clip-rule="evenodd" d="M38.8783 121.996V115.913H39.5065V121.996H38.8783Z" fill="#FAC20D"/>
<path fill-rule="evenodd" clip-rule="evenodd" d="M40.3991 121.996V115.913H41.0273V121.996H40.3991Z" fill="#FAC20D"/>
<path fill-rule="evenodd" clip-rule="evenodd" d="M19.4219 115.628V110.114C19.4219 109.957 19.553 109.829 19.7153 109.829H41.94C42.1023 109.829 42.234 109.957 42.234 110.114V115.628C42.234 115.785 42.1023 115.913 41.94 115.913H19.7153C19.553 115.913 19.4219 115.785 19.4219 115.628Z" fill="#FFD618"/>
<path fill-rule="evenodd" clip-rule="evenodd" d="M19.79 109.829C19.5874 109.829 19.4219 109.986 19.4219 110.179V115.563C19.4219 115.756 19.5874 115.913 19.79 115.913H41.8665C42.0691 115.913 42.234 115.756 42.234 115.563V110.179C42.234 109.986 42.0691 109.829 41.8665 109.829H19.79ZM42.0819 110.18V115.563C42.0819 115.676 41.9858 115.768 41.8665 115.768H19.79C19.6707 115.768 19.574 115.676 19.574 115.563V110.18C19.574 110.066 19.6707 109.974 19.79 109.974H41.8665C41.9858 109.974 42.0819 110.066 42.0819 110.18Z" fill="#E2A129"/>
<path fill-rule="evenodd" clip-rule="evenodd" d="M19.1078 115.913V109.829H19.7361V115.913H19.1078Z" fill="#FAC20D"/>
<path fill-rule="evenodd" clip-rule="evenodd" d="M20.6288 115.913V109.829H21.257V115.913H20.6288Z" fill="#FAC20D"/>
<path fill-rule="evenodd" clip-rule="evenodd" d="M22.1494 115.913V109.829H22.7776V115.913H22.1494Z" fill="#FAC20D"/>
<path fill-rule="evenodd" clip-rule="evenodd" d="M23.6702 115.913V109.829H24.2984V115.913H23.6702Z" fill="#FAC20D"/>
<path fill-rule="evenodd" clip-rule="evenodd" d="M25.191 115.913V109.829H25.8192V115.913H25.191Z" fill="#FAC20D"/>
<path fill-rule="evenodd" clip-rule="evenodd" d="M25.191 115.913V109.829H25.8192V115.913H25.191Z" fill="#FAC20D"/>
<path fill-rule="evenodd" clip-rule="evenodd" d="M26.7118 115.913V109.829H27.34V115.913H26.7118Z" fill="#FAC20D"/>
<path fill-rule="evenodd" clip-rule="evenodd" d="M28.2327 115.913V109.829H28.8609V115.913H28.2327Z" fill="#FAC20D"/>
<path fill-rule="evenodd" clip-rule="evenodd" d="M29.7534 115.913V109.829H30.3816V115.913H29.7534Z" fill="#FAC20D"/>
<path fill-rule="evenodd" clip-rule="evenodd" d="M31.2742 115.913V109.829H31.9024V115.913H31.2742Z" fill="#FAC20D"/>
<path fill-rule="evenodd" clip-rule="evenodd" d="M32.7951 115.913V109.829H33.4233V115.913H32.7951Z" fill="#FAC20D"/>
<path fill-rule="evenodd" clip-rule="evenodd" d="M32.7951 115.913V109.829H33.4233V115.913H32.7951Z" fill="#FAC20D"/>
<path fill-rule="evenodd" clip-rule="evenodd" d="M34.3158 115.913V109.829H34.944V115.913H34.3158Z" fill="#FAC20D"/>
<path fill-rule="evenodd" clip-rule="evenodd" d="M38.8783 115.913V109.829H39.5065V115.913H38.8783Z" fill="#FAC20D"/>
<path fill-rule="evenodd" clip-rule="evenodd" d="M40.3991 115.913V109.829H41.0273V115.913H40.3991Z" fill="#FAC20D"/>
<path fill-rule="evenodd" clip-rule="evenodd" d="M40.3991 115.913V109.829H41.0273V115.913H40.3991Z" fill="#FAC20D"/>
<path fill-rule="evenodd" clip-rule="evenodd" d="M17.9012 109.546V104.031C17.9012 103.874 18.0323 103.747 18.1946 103.747H40.4193C40.5816 103.747 40.7133 103.874 40.7133 104.031V109.546C40.7133 109.702 40.5816 109.83 40.4193 109.83H18.1946C18.0323 109.83 17.9012 109.702 17.9012 109.546Z" fill="#FFD618"/>
<path fill-rule="evenodd" clip-rule="evenodd" d="M18.2693 103.747C18.0667 103.747 17.9012 103.904 17.9012 104.097V109.48C17.9012 109.673 18.0667 109.83 18.2693 109.83H40.3459C40.5484 109.83 40.7133 109.673 40.7133 109.48V104.097C40.7133 103.904 40.5484 103.747 40.3459 103.747H18.2693ZM40.5612 104.096V109.479C40.5612 109.593 40.4651 109.684 40.3458 109.684H18.2693C18.15 109.684 18.0533 109.593 18.0533 109.479V104.096C18.0533 103.982 18.15 103.891 18.2693 103.891H40.3458C40.4651 103.891 40.5612 103.982 40.5612 104.096Z" fill="#E2A129"/>
<path fill-rule="evenodd" clip-rule="evenodd" d="M17.587 109.83V103.747H18.2152V109.83H17.587Z" fill="#FAC20D"/>
<path fill-rule="evenodd" clip-rule="evenodd" d="M19.1078 109.83V103.747H19.7361V109.83H19.1078Z" fill="#FAC20D"/>
<path fill-rule="evenodd" clip-rule="evenodd" d="M20.6288 109.83V103.747H21.257V109.83H20.6288Z" fill="#FAC20D"/>
<path fill-rule="evenodd" clip-rule="evenodd" d="M22.1494 109.83V103.747H22.7776V109.83H22.1494Z" fill="#FAC20D"/>
<path fill-rule="evenodd" clip-rule="evenodd" d="M22.1494 109.83V103.747H22.7776V109.83H22.1494Z" fill="#FAC20D"/>
<path fill-rule="evenodd" clip-rule="evenodd" d="M23.6702 109.83V103.747H24.2984V109.83H23.6702Z" fill="#FAC20D"/>
<path fill-rule="evenodd" clip-rule="evenodd" d="M25.191 109.83V103.747H25.8192V109.83H25.191Z" fill="#FAC20D"/>
<path fill-rule="evenodd" clip-rule="evenodd" d="M26.7118 109.83V103.747H27.34V109.83H26.7118Z" fill="#FAC20D"/>
<path fill-rule="evenodd" clip-rule="evenodd" d="M28.2327 109.83V103.747H28.8609V109.83H28.2327Z" fill="#FAC20D"/>
<path fill-rule="evenodd" clip-rule="evenodd" d="M29.7534 109.83V103.747H30.3816V109.83H29.7534Z" fill="#FAC20D"/>
<path fill-rule="evenodd" clip-rule="evenodd" d="M29.7534 109.83V103.747H30.3816V109.83H29.7534Z" fill="#FAC20D"/>
<path fill-rule="evenodd" clip-rule="evenodd" d="M31.2742 109.83V103.747H31.9024V109.83H31.2742Z" fill="#FAC20D"/>
<path fill-rule="evenodd" clip-rule="evenodd" d="M32.7951 109.83V103.747H33.4233V109.83H32.7951Z" fill="#FAC20D"/>
<path fill-rule="evenodd" clip-rule="evenodd" d="M35.8367 109.83V103.747H36.4649V109.83H35.8367Z" fill="#FAC20D"/>
<path fill-rule="evenodd" clip-rule="evenodd" d="M37.3574 109.83V103.746H37.9856V109.83H37.3574Z" fill="#FAC20D"/>
<path fill-rule="evenodd" clip-rule="evenodd" d="M38.8783 109.83V103.746H39.5065V109.83H38.8783Z" fill="#FAC20D"/>
<defs>
<linearGradient id="paint0_linear" x1="17.5844" y1="103.857" x2="110.276" y2="155.415" gradientUnits="userSpaceOnUse">
<stop stop-color="#8033EB"/>
<stop offset="0.53" stop-color="#D4648E"/>
<stop offset="1" stop-color="#EC7071"/>
</linearGradient>
</defs>
</svg>
