<svg width="210" height="141" viewBox="0 0 210 141" fill="none" xmlns="http://www.w3.org/2000/svg">
<path fill-rule="evenodd" clip-rule="evenodd" d="M178.965 61.6034C161.953 61.6034 148.163 47.813 148.163 30.8017C148.163 13.7904 161.953 0 178.965 0C187.134 0 194.968 3.24517 200.745 9.02161C206.521 14.798 209.766 22.6326 209.766 30.8017C209.766 47.813 195.976 61.6034 178.965 61.6034Z" fill="#F2F2F2"/>
<path fill-rule="evenodd" clip-rule="evenodd" d="M194.041 127.784C186.848 130.765 178.567 129.119 173.061 123.613C167.554 118.108 165.907 109.827 168.886 102.633C171.866 95.4395 178.885 90.7488 186.672 90.7488C197.302 90.7488 205.921 99.3655 205.923 109.996C205.924 117.783 201.235 124.803 194.041 127.784Z" fill="#F2F2F2"/>
<path fill-rule="evenodd" clip-rule="evenodd" d="M44.5475 41.376C36.6494 41.376 30.2467 34.9733 30.2467 27.0752C30.2467 19.1771 36.6494 12.7744 44.5475 12.7744C48.3406 12.7735 51.9786 14.2799 54.6607 16.962C57.3428 19.6441 58.8492 23.2821 58.8483 27.0752C58.8483 34.9733 52.4456 41.376 44.5475 41.376Z" fill="#F2F2F2"/>
<path fill-rule="evenodd" clip-rule="evenodd" d="M115.718 113.85C119.97 113.85 123.418 117.298 123.418 121.551C123.418 125.803 119.97 129.251 115.718 129.251H66.215C61.9621 129.251 58.5146 125.803 58.5146 121.551C58.5146 117.298 61.9622 113.85 66.215 113.85H115.718Z" fill="#F2F2F2"/>
<path fill-rule="evenodd" clip-rule="evenodd" d="M57.9707 71.7327C62.2235 71.7327 65.6711 75.1803 65.6711 79.4331C65.6711 83.6859 62.2235 87.1335 57.9707 87.1335H8.468C4.21517 87.1335 0.767578 83.6859 0.767578 79.4331C0.767578 75.1803 4.21518 71.7327 8.468 71.7327H57.9707Z" fill="#F2F2F2"/>
<path fill-rule="evenodd" clip-rule="evenodd" d="M185.3 30.0317C187.509 30.0317 189.3 31.8226 189.3 34.0317V124.36C189.3 126.569 187.509 128.36 185.3 128.36H27.2913C25.0822 128.36 23.2913 126.569 23.2913 124.36V34.0317C23.2913 31.8226 25.0822 30.0317 27.2913 30.0317H185.3Z" fill="url(#paint0_linear)"/>
<g style="mix-blend-mode:multiply">
<path fill-rule="evenodd" clip-rule="evenodd" d="M189.3 38.1506V39.1506H23.2913V38.1506H189.3Z" fill="#E5E5E5"/>
</g>
<g style="mix-blend-mode:screen" opacity="0.1">
<path fill-rule="evenodd" clip-rule="evenodd" d="M189.422 91.5278C189.422 91.5278 165.773 123.96 106.367 95.3277C46.9622 66.6955 23.3129 95.3277 23.3129 95.3277V127.806H189.422V91.5278Z" fill="#E5E5E5"/>
</g>
<g style="mix-blend-mode:multiply">
<path fill-rule="evenodd" clip-rule="evenodd" d="M189.422 126.617V127.806H23.3129V126.617H189.422Z" fill="#E5E5E5"/>
</g>
<path fill-rule="evenodd" clip-rule="evenodd" d="M87.3223 60.9003C83.32 64.8966 72.0857 73.4935 81.5178 84.0146C90.9484 94.5368 132.913 84.8626 132.913 84.8626C132.913 84.8626 139.197 78.9434 130.734 71.6232C122.27 64.3042 125.285 53.9037 126.32 51.6106C127.356 49.3162 97.9043 35.2025 88.5334 52.8276C88.5334 52.8276 91.3258 56.9051 87.3223 60.9003Z" fill="#FFD000"/>
<path fill-rule="evenodd" clip-rule="evenodd" d="M107.995 14.6099C135.213 14.6099 128.318 46.7662 128.318 46.7662C128.318 46.7662 115.133 57.2944 106.912 57.2944C98.6913 57.2944 87.6865 51.4683 86.5961 46.7662C86.5961 46.7662 80.7772 14.6099 107.995 14.6099Z" fill="#FFD000"/>
<path fill-rule="evenodd" clip-rule="evenodd" d="M150.996 102.548C151.568 84.8491 139.701 79.084 139.701 79.084L120.253 69.0669L106.523 72.9617V72.8745L96.6741 70.493L87.7403 73.7285C87.7403 73.7285 66.5695 81.4786 65.9505 96.7962L63.3336 127.747H103.232V128.076H153.613L150.996 102.548Z" fill="#F94F24"/>
<path d="M110.275 122.817C109.87 123.048 109.412 123.169 108.946 123.169C108.48 123.169 108.022 123.048 107.617 122.817L98.9285 117.86C98.1062 117.391 97.5997 116.524 97.5997 115.585V105.671C97.5997 104.732 98.1062 103.865 98.9285 103.396L107.617 98.4393C108.022 98.2087 108.48 98.0874 108.946 98.0874C109.412 98.0874 109.87 98.2087 110.275 98.4393L118.964 103.397C119.367 103.625 119.702 103.956 119.935 104.356C120.169 104.755 120.292 105.209 120.292 105.671V115.586C120.292 116.524 119.786 117.391 118.964 117.86L110.275 122.817Z" fill="white"/>
<path d="M111.707 112.261H111.527C110.962 110.72 110.394 109.18 109.829 107.642H108.064C107.491 109.197 106.923 110.736 106.356 112.278H106.191C105.616 110.721 105.041 109.165 104.485 107.663H102.377C103.402 110.49 104.401 113.246 105.401 116.003H107.14L108.862 111.339H109.036C109.611 112.903 110.185 114.469 110.748 115.999H112.492C113.495 113.231 114.494 110.473 115.515 107.655H113.406C112.842 109.187 112.275 110.723 111.707 112.261Z" fill="#FA5723"/>
<path d="M81.0086 126.757C81.4198 115.326 80.6843 109.85 82.1738 100.49" stroke="#EF3000" stroke-width="0.5" stroke-linecap="round"/>
<path d="M135.433 100.499C136.293 111.906 135.773 117.407 137.629 126.701" stroke="#EF3000" stroke-width="0.5" stroke-linecap="round"/>
<path fill-rule="evenodd" clip-rule="evenodd" d="M94.756 77.3953C94.756 77.3953 94.8981 88.9256 108.008 88.9256C121.228 88.9256 121.228 76.7623 121.228 76.7623L118.934 60.9072H97.2056L94.756 77.3953Z" fill="#FFA881"/>
<path fill-rule="evenodd" clip-rule="evenodd" d="M107.995 70.4322C97.6223 70.4322 89.2069 56.9241 89.2069 42.1786C89.2069 27.4319 97.6152 23.0725 107.995 23.0725C118.375 23.0725 126.785 27.4391 126.785 42.1786C126.785 56.9778 118.368 70.4322 107.995 70.4322Z" fill="#FFC1A6"/>
<path fill-rule="evenodd" clip-rule="evenodd" d="M85.809 45.6027C82.6535 47.6618 85.6275 55.1552 92.3947 56.0844C99.1631 57.0124 90.1684 47.5806 90.1684 47.5806C90.1684 47.5806 88.9645 43.5448 85.809 45.6027Z" fill="#FFC1A6"/>
<path fill-rule="evenodd" clip-rule="evenodd" d="M130.243 45.6027C133.397 47.6618 130.424 55.1552 123.657 56.0844C116.889 57.0124 125.883 47.5806 125.883 47.5806C125.883 47.5806 127.087 43.5448 130.243 45.6027Z" fill="#FFC1A6"/>
<path fill-rule="evenodd" clip-rule="evenodd" d="M108.332 70.4524C112.812 70.4894 117.003 68.2464 119.459 64.4985L120.77 73.5804C120.77 73.5804 103.939 80.5841 96.6729 64.4985C99.4115 68.2022 103.727 70.4058 108.332 70.4524Z" fill="#FF9B6E"/>
<path fill-rule="evenodd" clip-rule="evenodd" d="M124.188 30.595C124.188 30.595 122.722 21.0222 106.058 21.0222C89.3944 21.0222 85.5271 35.29 89.2069 45.024C89.2069 45.024 115.073 46.9349 124.188 30.595Z" fill="#FFD000"/>
<path fill-rule="evenodd" clip-rule="evenodd" d="M124.188 30.5935C124.174 30.5935 117.818 55.2426 89.2069 45.0237C89.2069 45.0237 115.073 47.4124 124.188 30.5935Z" fill="#FFA881"/>
<path d="M126.861 57.1929C125.667 62.5675 118.381 65.5533 108.349 65.5533" stroke="#434343"/>
<rect x="107.155" y="64.3589" width="4.77742" height="2.38871" rx="1" fill="black"/>
<path d="M88.2141 52.4153C85.1099 40.095 87.227 31.0419 95.3775 24.1634C103.454 17.3471 113.281 17.1405 121.217 24.1634C129.145 31.179 129.888 41.9657 127.357 52.4153" stroke="#434343" stroke-width="2"/>
<ellipse cx="87.0682" cy="52.8339" rx="2.69791" ry="6.5337" transform="rotate(-10.0886 87.0682 52.8339)" fill="black"/>
<ellipse rx="2.69791" ry="6.5337" transform="matrix(-0.984538 -0.175171 -0.175171 0.984538 129.038 52.8339)" fill="black"/>
<ellipse cx="88.4011" cy="52.3167" rx="2.69791" ry="6.69877" transform="rotate(-10.0886 88.4011 52.3167)" fill="#434343"/>
<ellipse rx="2.69791" ry="6.69877" transform="matrix(-0.984538 -0.175171 -0.175171 0.984538 127.705 52.3167)" fill="#434343"/>
<defs>
<linearGradient id="paint0_linear" x1="22.9937" y1="103.704" x2="128.243" y2="161.229" gradientUnits="userSpaceOnUse">
<stop stop-color="#8033EB"/>
<stop offset="0.53" stop-color="#D4648E"/>
<stop offset="1" stop-color="#EC7071"/>
</linearGradient>
</defs>
</svg>
