<svg width="171" height="139" viewBox="0 0 171 139" fill="none" xmlns="http://www.w3.org/2000/svg">
<rect x="0.926834" y="55.0027" width="40.8045" height="12.0885" rx="6.04424" fill="#F2F2F2"/>
<rect x="130.195" y="76.8643" width="40.8045" height="12.0885" rx="6.04424" fill="#F2F2F2"/>
<path fill-rule="evenodd" clip-rule="evenodd" d="M21.1568 128.868C15.9982 131.121 10.0601 129.876 6.11173 125.714C2.16337 121.552 0.982455 115.293 3.11971 109.856C5.25696 104.418 10.2914 100.874 15.8753 100.875C23.4975 100.876 29.6763 107.389 29.6776 115.423C29.6785 121.309 26.3154 126.615 21.1568 128.868Z" fill="#F2F2F2"/>
<path fill-rule="evenodd" clip-rule="evenodd" d="M38.7956 25.0853C36.599 26.2221 34.0702 25.5949 32.3885 23.496C30.7068 21.3972 30.2034 18.2402 31.1132 15.4974C32.0229 12.7545 34.1666 10.9661 36.5444 10.9661C39.7902 10.9661 42.4218 14.2504 42.423 18.3027C42.4239 21.2714 40.9921 23.9484 38.7956 25.0853Z" fill="#F2F2F2"/>
<path fill-rule="evenodd" clip-rule="evenodd" d="M129.219 124.08C125.972 124.08 123.34 120.794 123.34 116.74C123.34 112.687 125.972 109.401 129.219 109.401C132.466 109.401 135.098 112.687 135.098 116.74C135.098 120.794 132.466 124.08 129.219 124.08Z" fill="#F2F2F2"/>
<path fill-rule="evenodd" clip-rule="evenodd" d="M126.267 47.4552C115.346 47.4552 106.493 38.6019 106.493 27.6809C106.493 16.7598 115.346 7.90649 126.267 7.90649C131.511 7.90649 136.541 9.98986 140.25 13.6983C143.958 17.4067 146.041 22.4364 146.041 27.6809C146.041 38.6019 137.188 47.4552 126.267 47.4552Z" fill="#F2F2F2"/>
<path fill-rule="evenodd" clip-rule="evenodd" d="M47.2532 20.3358C49.4648 16.5448 53.6343 14.2073 58.2081 14.2318L109.564 14.5039C114.14 14.5276 118.397 16.9132 120.735 20.7462L147.062 63.9156C149.397 67.7442 149.462 72.4321 147.252 76.2206L122.223 119.118C120.011 122.908 115.841 125.246 111.268 125.222L59.9116 124.95C55.3355 124.926 51.0785 122.541 48.7409 118.708L22.4137 75.5384C20.0786 71.7095 20.0131 67.0213 22.2237 63.2337L47.2532 20.3358ZM58.2081 14.2318L58.2127 13.3954L58.2081 14.2318ZM22.4137 75.5384L21.6996 75.9739L22.4137 75.5384Z" fill="url(#paint0_linear)"/>
<path d="M103.091 41.708L100.295 44.3682C98.523 46.0549 95.7904 46.2113 93.8372 44.7377L93.3497 44.37C91.3347 42.8497 88.5026 43.0698 86.7466 44.8831L82.5808 49.1848C80.7476 51.0777 77.7601 51.2231 75.7519 49.5172L69.9519 44.5902C68.0177 42.9472 65.1594 43.0137 63.3039 44.745L44.0615 62.6979C41.9359 64.6811 41.9438 68.0527 44.0788 70.0258L47.3863 73.0825C49.2681 74.8217 52.16 74.8567 54.0834 73.1638L60.6878 67.3508C62.5437 65.7173 65.3147 65.6854 67.2077 67.2758L71.3969 70.7955C73.6327 72.6739 73.7897 76.0604 71.7375 78.1377L58.2044 91.836C56.1535 93.9119 56.3088 97.2956 58.541 99.175L65.1632 104.75C66.0646 105.509 67.2051 105.925 68.3835 105.925H83.4793C84.8298 105.925 86.123 105.379 87.0644 104.411L93.4321 97.8606C95.4722 95.762 95.2816 92.3676 93.0194 90.5106L92.179 89.8207C89.9548 87.9951 89.7268 84.6735 91.6806 82.561L96.2359 77.6357C97.9925 75.7366 100.908 75.4909 102.957 77.0692L115.294 86.569C117.353 88.1548 120.284 87.8983 122.037 85.9788L133.034 73.9344C134.913 71.8759 134.747 68.6779 132.663 66.826L125.191 60.1845" stroke="white" stroke-width="2"/>
<g filter="url(#filter0_d)">
<circle cx="125.608" cy="61.4356" r="2.91897" fill="white"/>
</g>
<g filter="url(#filter1_d)">
<circle cx="125.609" cy="61.4355" r="1.25099" transform="rotate(180 125.609 61.4355)" fill="#8F3DDC"/>
</g>
<path d="M101.87 32.8967C101.666 32.8967 101.48 32.8547 101.312 32.7707C101.144 32.6827 101 32.5547 100.88 32.3867C100.764 32.2187 100.672 32.0107 100.604 31.7627C100.54 31.5147 100.508 31.2287 100.508 30.9047C100.508 30.5807 100.54 30.2967 100.604 30.0527C100.672 29.8087 100.764 29.6047 100.88 29.4407C101 29.2727 101.144 29.1487 101.312 29.0687C101.48 28.9847 101.666 28.9427 101.87 28.9427C102.074 28.9427 102.26 28.9847 102.428 29.0687C102.596 29.1487 102.738 29.2727 102.854 29.4407C102.974 29.6047 103.066 29.8087 103.13 30.0527C103.198 30.2967 103.232 30.5807 103.232 30.9047C103.232 31.2287 103.198 31.5147 103.13 31.7627C103.066 32.0107 102.974 32.2187 102.854 32.3867C102.738 32.5547 102.596 32.6827 102.428 32.7707C102.26 32.8547 102.074 32.8967 101.87 32.8967ZM101.87 32.2127C101.946 32.2127 102.016 32.1947 102.08 32.1587C102.144 32.1187 102.2 32.0487 102.248 31.9487C102.296 31.8487 102.332 31.7147 102.356 31.5467C102.384 31.3787 102.398 31.1647 102.398 30.9047C102.398 30.6447 102.384 30.4327 102.356 30.2687C102.332 30.1007 102.296 29.9707 102.248 29.8787C102.2 29.7827 102.144 29.7167 102.08 29.6807C102.016 29.6447 101.946 29.6267 101.87 29.6267C101.798 29.6267 101.73 29.6447 101.666 29.6807C101.602 29.7167 101.546 29.7827 101.498 29.8787C101.45 29.9707 101.412 30.1007 101.384 30.2687C101.356 30.4327 101.342 30.6447 101.342 30.9047C101.342 31.1647 101.356 31.3787 101.384 31.5467C101.412 31.7147 101.45 31.8487 101.498 31.9487C101.546 32.0487 101.602 32.1187 101.666 32.1587C101.73 32.1947 101.798 32.2127 101.87 32.2127ZM103.976 32.8247V32.1107H104.804V29.9087H104.09V29.3627C104.298 29.3227 104.474 29.2747 104.618 29.2187C104.762 29.1627 104.902 29.0947 105.038 29.0147H105.686V32.1107H106.4V32.8247H103.976Z" fill="white"/>
<path d="M42.6565 47.78C42.4525 47.78 42.2665 47.738 42.0985 47.654C41.9305 47.566 41.7865 47.438 41.6665 47.27C41.5505 47.102 41.4585 46.894 41.3905 46.646C41.3265 46.398 41.2945 46.112 41.2945 45.788C41.2945 45.464 41.3265 45.18 41.3905 44.936C41.4585 44.692 41.5505 44.488 41.6665 44.324C41.7865 44.156 41.9305 44.032 42.0985 43.952C42.2665 43.868 42.4525 43.826 42.6565 43.826C42.8605 43.826 43.0465 43.868 43.2145 43.952C43.3825 44.032 43.5245 44.156 43.6405 44.324C43.7605 44.488 43.8525 44.692 43.9165 44.936C43.9845 45.18 44.0185 45.464 44.0185 45.788C44.0185 46.112 43.9845 46.398 43.9165 46.646C43.8525 46.894 43.7605 47.102 43.6405 47.27C43.5245 47.438 43.3825 47.566 43.2145 47.654C43.0465 47.738 42.8605 47.78 42.6565 47.78ZM42.6565 47.096C42.7325 47.096 42.8025 47.078 42.8665 47.042C42.9305 47.002 42.9865 46.932 43.0345 46.832C43.0825 46.732 43.1185 46.598 43.1425 46.43C43.1705 46.262 43.1845 46.048 43.1845 45.788C43.1845 45.528 43.1705 45.316 43.1425 45.152C43.1185 44.984 43.0825 44.854 43.0345 44.762C42.9865 44.666 42.9305 44.6 42.8665 44.564C42.8025 44.528 42.7325 44.51 42.6565 44.51C42.5845 44.51 42.5165 44.528 42.4525 44.564C42.3885 44.6 42.3325 44.666 42.2845 44.762C42.2365 44.854 42.1985 44.984 42.1705 45.152C42.1425 45.316 42.1285 45.528 42.1285 45.788C42.1285 46.048 42.1425 46.262 42.1705 46.43C42.1985 46.598 42.2365 46.732 42.2845 46.832C42.3325 46.932 42.3885 47.002 42.4525 47.042C42.5165 47.078 42.5845 47.096 42.6565 47.096ZM44.5644 47.708V47.204C44.8084 46.976 45.0304 46.764 45.2304 46.568C45.4344 46.368 45.6084 46.182 45.7524 46.01C45.9004 45.834 46.0144 45.672 46.0944 45.524C46.1784 45.372 46.2204 45.228 46.2204 45.092C46.2204 44.904 46.1724 44.762 46.0764 44.666C45.9804 44.566 45.8484 44.516 45.6804 44.516C45.5404 44.516 45.4164 44.556 45.3084 44.636C45.2004 44.712 45.0984 44.802 45.0024 44.906L44.5224 44.432C44.7104 44.232 44.9024 44.082 45.0984 43.982C45.2944 43.878 45.5284 43.826 45.8004 43.826C45.9884 43.826 46.1584 43.856 46.3104 43.916C46.4664 43.972 46.6004 44.054 46.7124 44.162C46.8244 44.266 46.9104 44.392 46.9704 44.54C47.0304 44.688 47.0604 44.854 47.0604 45.038C47.0604 45.198 47.0264 45.362 46.9584 45.53C46.8904 45.694 46.7984 45.86 46.6824 46.028C46.5704 46.192 46.4404 46.358 46.2924 46.526C46.1484 46.69 45.9984 46.852 45.8424 47.012C45.9384 47 46.0444 46.99 46.1604 46.982C46.2804 46.97 46.3864 46.964 46.4784 46.964H47.2464V47.708H44.5644Z" fill="white"/>
<path d="M71.0122 66.9619C70.8082 66.9619 70.6222 66.9199 70.4542 66.8359C70.2862 66.7479 70.1422 66.6199 70.0222 66.4519C69.9062 66.2839 69.8142 66.0759 69.7462 65.8279C69.6822 65.5799 69.6502 65.2939 69.6502 64.9699C69.6502 64.6459 69.6822 64.3619 69.7462 64.1179C69.8142 63.8739 69.9062 63.6699 70.0222 63.5059C70.1422 63.3379 70.2862 63.2139 70.4542 63.1339C70.6222 63.0499 70.8082 63.0079 71.0122 63.0079C71.2162 63.0079 71.4022 63.0499 71.5702 63.1339C71.7382 63.2139 71.8802 63.3379 71.9962 63.5059C72.1162 63.6699 72.2082 63.8739 72.2722 64.1179C72.3402 64.3619 72.3742 64.6459 72.3742 64.9699C72.3742 65.2939 72.3402 65.5799 72.2722 65.8279C72.2082 66.0759 72.1162 66.2839 71.9962 66.4519C71.8802 66.6199 71.7382 66.7479 71.5702 66.8359C71.4022 66.9199 71.2162 66.9619 71.0122 66.9619ZM71.0122 66.2779C71.0882 66.2779 71.1582 66.2599 71.2222 66.2239C71.2862 66.1839 71.3422 66.1139 71.3902 66.0139C71.4382 65.9139 71.4742 65.7799 71.4982 65.6119C71.5262 65.4439 71.5402 65.2299 71.5402 64.9699C71.5402 64.7099 71.5262 64.4979 71.4982 64.3339C71.4742 64.1659 71.4382 64.0359 71.3902 63.9439C71.3422 63.8479 71.2862 63.7819 71.2222 63.7459C71.1582 63.7099 71.0882 63.6919 71.0122 63.6919C70.9402 63.6919 70.8722 63.7099 70.8082 63.7459C70.7442 63.7819 70.6882 63.8479 70.6402 63.9439C70.5922 64.0359 70.5542 64.1659 70.5262 64.3339C70.4982 64.4979 70.4842 64.7099 70.4842 64.9699C70.4842 65.2299 70.4982 65.4439 70.5262 65.6119C70.5542 65.7799 70.5922 65.9139 70.6402 66.0139C70.6882 66.1139 70.7442 66.1839 70.8082 66.2239C70.8722 66.2599 70.9402 66.2779 71.0122 66.2779ZM74.1561 66.9619C73.8441 66.9619 73.5801 66.9139 73.3641 66.8179C73.1481 66.7179 72.9701 66.5859 72.8301 66.4219L73.2381 65.8639C73.3541 65.9759 73.4801 66.0679 73.6161 66.1399C73.7561 66.2119 73.9081 66.2479 74.0721 66.2479C74.2601 66.2479 74.4101 66.2099 74.5221 66.1339C74.6341 66.0539 74.6901 65.9419 74.6901 65.7979C74.6901 65.7139 74.6741 65.6379 74.6421 65.5699C74.6141 65.5019 74.5621 65.4459 74.4861 65.4019C74.4101 65.3539 74.3061 65.3179 74.1741 65.2939C74.0421 65.2659 73.8721 65.2519 73.6641 65.2519V64.6279C73.8361 64.6279 73.9781 64.6159 74.0901 64.5919C74.2061 64.5679 74.2981 64.5339 74.3661 64.4899C74.4381 64.4419 74.4881 64.3879 74.5161 64.3279C74.5481 64.2639 74.5641 64.1939 74.5641 64.1179C74.5641 63.9859 74.5241 63.8839 74.4441 63.8119C74.3641 63.7359 74.2481 63.6979 74.0961 63.6979C73.9601 63.6979 73.8361 63.7279 73.7241 63.7879C73.6161 63.8479 73.5021 63.9299 73.3821 64.0339L72.9381 63.4939C73.1141 63.3419 73.2981 63.2239 73.4901 63.1399C73.6861 63.0519 73.9021 63.0079 74.1381 63.0079C74.3341 63.0079 74.5121 63.0319 74.6721 63.0799C74.8361 63.1239 74.9741 63.1919 75.0861 63.2839C75.2021 63.3719 75.2921 63.4799 75.3561 63.6079C75.4201 63.7359 75.4521 63.8839 75.4521 64.0519C75.4521 64.2519 75.3961 64.4219 75.2841 64.5619C75.1761 64.6979 75.0201 64.8099 74.8161 64.8979V64.9219C75.0361 64.9859 75.2161 65.0959 75.3561 65.2519C75.5001 65.4039 75.5721 65.6039 75.5721 65.8519C75.5721 66.0279 75.5341 66.1859 75.4581 66.3259C75.3821 66.4619 75.2801 66.5779 75.1521 66.6739C75.0241 66.7659 74.8741 66.8379 74.7021 66.8899C74.5301 66.9379 74.3481 66.9619 74.1561 66.9619Z" fill="white"/>
<path d="M82.3254 96.6363C82.0534 96.6363 81.8054 96.5803 81.5814 96.4683C81.3574 96.3509 81.1654 96.1803 81.0054 95.9563C80.8507 95.7323 80.7281 95.4549 80.6374 95.1243C80.5521 94.7936 80.5094 94.4123 80.5094 93.9803C80.5094 93.5483 80.5521 93.1696 80.6374 92.8443C80.7281 92.5189 80.8507 92.2469 81.0054 92.0283C81.1654 91.8043 81.3574 91.6389 81.5814 91.5323C81.8054 91.4203 82.0534 91.3643 82.3254 91.3643C82.5974 91.3643 82.8454 91.4203 83.0694 91.5323C83.2934 91.6389 83.4827 91.8043 83.6374 92.0283C83.7974 92.2469 83.9201 92.5189 84.0054 92.8443C84.0961 93.1696 84.1414 93.5483 84.1414 93.9803C84.1414 94.4123 84.0961 94.7936 84.0054 95.1243C83.9201 95.4549 83.7974 95.7323 83.6374 95.9563C83.4827 96.1803 83.2934 96.3509 83.0694 96.4683C82.8454 96.5803 82.5974 96.6363 82.3254 96.6363ZM82.3254 95.7243C82.4267 95.7243 82.5201 95.7003 82.6054 95.6523C82.6907 95.5989 82.7654 95.5056 82.8294 95.3723C82.8934 95.2389 82.9414 95.0603 82.9734 94.8363C83.0107 94.6123 83.0294 94.3269 83.0294 93.9803C83.0294 93.6336 83.0107 93.3509 82.9734 93.1323C82.9414 92.9083 82.8934 92.7349 82.8294 92.6123C82.7654 92.4843 82.6907 92.3963 82.6054 92.3483C82.5201 92.3003 82.4267 92.2763 82.3254 92.2763C82.2294 92.2763 82.1387 92.3003 82.0534 92.3483C81.9681 92.3963 81.8934 92.4843 81.8294 92.6123C81.7654 92.7349 81.7147 92.9083 81.6774 93.1323C81.6401 93.3509 81.6214 93.6336 81.6214 93.9803C81.6214 94.3269 81.6401 94.6123 81.6774 94.8363C81.7147 95.0603 81.7654 95.2389 81.8294 95.3723C81.8934 95.5056 81.9681 95.5989 82.0534 95.6523C82.1387 95.7003 82.2294 95.7243 82.3254 95.7243ZM86.892 96.5403V95.3243H84.692V94.5163L86.548 91.4603H87.988V94.4283H88.572V95.3243H87.988V96.5403H86.892ZM85.82 94.4283H86.892V93.6043C86.892 93.4389 86.8973 93.2496 86.908 93.0363C86.9186 92.8176 86.9293 92.6283 86.94 92.4683H86.908C86.844 92.6069 86.7773 92.7483 86.708 92.8923C86.6386 93.0363 86.5666 93.1803 86.492 93.3243L85.82 94.4283Z" fill="white"/>
<path d="M97.6999 67.0906C97.4959 67.0906 97.3099 67.0486 97.1419 66.9646C96.9739 66.8766 96.8299 66.7486 96.7099 66.5806C96.5939 66.4126 96.5019 66.2046 96.4339 65.9566C96.3699 65.7086 96.3379 65.4226 96.3379 65.0986C96.3379 64.7746 96.3699 64.4906 96.4339 64.2466C96.5019 64.0026 96.5939 63.7986 96.7099 63.6346C96.8299 63.4666 96.9739 63.3426 97.1419 63.2626C97.3099 63.1786 97.4959 63.1366 97.6999 63.1366C97.9039 63.1366 98.0899 63.1786 98.2579 63.2626C98.4259 63.3426 98.5679 63.4666 98.6839 63.6346C98.8039 63.7986 98.8959 64.0026 98.9599 64.2466C99.0279 64.4906 99.0619 64.7746 99.0619 65.0986C99.0619 65.4226 99.0279 65.7086 98.9599 65.9566C98.8959 66.2046 98.8039 66.4126 98.6839 66.5806C98.5679 66.7486 98.4259 66.8766 98.2579 66.9646C98.0899 67.0486 97.9039 67.0906 97.6999 67.0906ZM97.6999 66.4066C97.7759 66.4066 97.8459 66.3886 97.9099 66.3526C97.9739 66.3126 98.0299 66.2426 98.0779 66.1426C98.1259 66.0426 98.1619 65.9086 98.1859 65.7406C98.2139 65.5726 98.2279 65.3586 98.2279 65.0986C98.2279 64.8386 98.2139 64.6266 98.1859 64.4626C98.1619 64.2946 98.1259 64.1646 98.0779 64.0726C98.0299 63.9766 97.9739 63.9106 97.9099 63.8746C97.8459 63.8386 97.7759 63.8206 97.6999 63.8206C97.6279 63.8206 97.5599 63.8386 97.4959 63.8746C97.4319 63.9106 97.3759 63.9766 97.3279 64.0726C97.2799 64.1646 97.2419 64.2946 97.2139 64.4626C97.1859 64.6266 97.1719 64.8386 97.1719 65.0986C97.1719 65.3586 97.1859 65.5726 97.2139 65.7406C97.2419 65.9086 97.2799 66.0426 97.3279 66.1426C97.3759 66.2426 97.4319 66.3126 97.4959 66.3526C97.5599 66.3886 97.6279 66.4066 97.6999 66.4066ZM100.868 67.0906C100.556 67.0906 100.292 67.0406 100.076 66.9406C99.8598 66.8366 99.6758 66.7086 99.5238 66.5566L99.9198 65.9986C100.036 66.1026 100.16 66.1926 100.292 66.2686C100.428 66.3406 100.578 66.3766 100.742 66.3766C100.938 66.3766 101.094 66.3266 101.21 66.2266C101.326 66.1266 101.384 65.9786 101.384 65.7826C101.384 65.5906 101.328 65.4446 101.216 65.3446C101.108 65.2446 100.964 65.1946 100.784 65.1946C100.728 65.1946 100.678 65.1986 100.634 65.2066C100.59 65.2106 100.546 65.2206 100.502 65.2366C100.462 65.2526 100.418 65.2726 100.37 65.2966C100.326 65.3206 100.276 65.3506 100.22 65.3866L99.8238 65.1346L99.9318 63.2086H102.092V63.9526H100.694L100.628 64.6666C100.7 64.6346 100.768 64.6126 100.832 64.6006C100.9 64.5846 100.974 64.5766 101.054 64.5766C101.218 64.5766 101.372 64.6006 101.516 64.6486C101.664 64.6966 101.794 64.7686 101.906 64.8646C102.018 64.9606 102.106 65.0826 102.17 65.2306C102.234 65.3786 102.266 65.5546 102.266 65.7586C102.266 65.9706 102.228 66.1586 102.152 66.3226C102.076 66.4866 101.974 66.6266 101.846 66.7426C101.718 66.8546 101.568 66.9406 101.396 67.0006C101.228 67.0606 101.052 67.0906 100.868 67.0906Z" fill="white"/>
<path d="M123.554 53.7466C123.35 53.7466 123.164 53.7046 122.996 53.6206C122.828 53.5326 122.684 53.4046 122.564 53.2366C122.448 53.0686 122.356 52.8606 122.288 52.6126C122.224 52.3646 122.192 52.0786 122.192 51.7546C122.192 51.4306 122.224 51.1466 122.288 50.9026C122.356 50.6586 122.448 50.4546 122.564 50.2906C122.684 50.1226 122.828 49.9986 122.996 49.9186C123.164 49.8346 123.35 49.7926 123.554 49.7926C123.758 49.7926 123.944 49.8346 124.112 49.9186C124.28 49.9986 124.422 50.1226 124.538 50.2906C124.658 50.4546 124.75 50.6586 124.814 50.9026C124.882 51.1466 124.916 51.4306 124.916 51.7546C124.916 52.0786 124.882 52.3646 124.814 52.6126C124.75 52.8606 124.658 53.0686 124.538 53.2366C124.422 53.4046 124.28 53.5326 124.112 53.6206C123.944 53.7046 123.758 53.7466 123.554 53.7466ZM123.554 53.0626C123.63 53.0626 123.7 53.0446 123.764 53.0086C123.828 52.9686 123.884 52.8986 123.932 52.7986C123.98 52.6986 124.016 52.5646 124.04 52.3966C124.068 52.2286 124.082 52.0146 124.082 51.7546C124.082 51.4946 124.068 51.2826 124.04 51.1186C124.016 50.9506 123.98 50.8206 123.932 50.7286C123.884 50.6326 123.828 50.5666 123.764 50.5306C123.7 50.4946 123.63 50.4766 123.554 50.4766C123.482 50.4766 123.414 50.4946 123.35 50.5306C123.286 50.5666 123.23 50.6326 123.182 50.7286C123.134 50.8206 123.096 50.9506 123.068 51.1186C123.04 51.2826 123.026 51.4946 123.026 51.7546C123.026 52.0146 123.04 52.2286 123.068 52.3966C123.096 52.5646 123.134 52.6986 123.182 52.7986C123.23 52.8986 123.286 52.9686 123.35 53.0086C123.414 53.0446 123.482 53.0626 123.554 53.0626ZM126.926 53.7466C126.742 53.7466 126.562 53.7106 126.386 53.6386C126.214 53.5666 126.06 53.4546 125.924 53.3026C125.792 53.1506 125.686 52.9566 125.606 52.7206C125.526 52.4806 125.486 52.1926 125.486 51.8566C125.486 51.5006 125.528 51.1926 125.612 50.9326C125.7 50.6726 125.814 50.4586 125.954 50.2906C126.098 50.1226 126.262 49.9986 126.446 49.9186C126.634 49.8346 126.828 49.7926 127.028 49.7926C127.28 49.7926 127.498 49.8386 127.682 49.9306C127.866 50.0186 128.018 50.1246 128.138 50.2486L127.676 50.7766C127.608 50.7046 127.52 50.6426 127.412 50.5906C127.304 50.5346 127.194 50.5066 127.082 50.5066C126.978 50.5066 126.88 50.5266 126.788 50.5666C126.696 50.6066 126.614 50.6746 126.542 50.7706C126.474 50.8626 126.418 50.9846 126.374 51.1366C126.33 51.2886 126.304 51.4746 126.296 51.6946C126.344 51.6306 126.4 51.5746 126.464 51.5266C126.528 51.4746 126.594 51.4326 126.662 51.4006C126.73 51.3646 126.798 51.3386 126.866 51.3226C126.934 51.3026 126.998 51.2926 127.058 51.2926C127.222 51.2926 127.372 51.3166 127.508 51.3646C127.648 51.4126 127.768 51.4846 127.868 51.5806C127.972 51.6766 128.052 51.7986 128.108 51.9466C128.164 52.0946 128.192 52.2686 128.192 52.4686C128.192 52.6686 128.158 52.8466 128.09 53.0026C128.022 53.1586 127.93 53.2926 127.814 53.4046C127.702 53.5166 127.568 53.6026 127.412 53.6626C127.26 53.7186 127.098 53.7466 126.926 53.7466ZM126.908 53.0866C127.04 53.0866 127.152 53.0386 127.244 52.9426C127.34 52.8426 127.388 52.6846 127.388 52.4686C127.388 52.2646 127.34 52.1226 127.244 52.0426C127.152 51.9586 127.034 51.9166 126.89 51.9166C126.79 51.9166 126.688 51.9466 126.584 52.0066C126.484 52.0626 126.394 52.1586 126.314 52.2946C126.334 52.4466 126.364 52.5726 126.404 52.6726C126.444 52.7726 126.49 52.8546 126.542 52.9186C126.594 52.9786 126.65 53.0226 126.71 53.0506C126.774 53.0746 126.84 53.0866 126.908 53.0866Z" fill="white"/>
<g filter="url(#filter2_d)">
<circle cx="99.7548" cy="74.7793" r="2.91897" fill="white"/>
</g>
<g filter="url(#filter3_d)">
<circle cx="99.7548" cy="74.7793" r="1.25099" transform="rotate(180 99.7548 74.7793)" fill="#8F3DDC"/>
</g>
<g filter="url(#filter4_d)">
<circle cx="84.7429" cy="105.637" r="4.58695" fill="white"/>
</g>
<g filter="url(#filter5_d)">
<circle cx="84.7429" cy="105.637" r="2.08498" transform="rotate(180 84.7429 105.637)" fill="#8F3DDC"/>
</g>
<g filter="url(#filter6_d)">
<circle cx="73.0671" cy="73.8167" r="2.91897" fill="white"/>
</g>
<g filter="url(#filter7_d)">
<circle cx="73.0671" cy="73.8166" r="1.25099" transform="rotate(180 73.0671 73.8166)" fill="#8F3DDC"/>
</g>
<g filter="url(#filter8_d)">
<circle cx="53.8853" cy="52.9668" r="2.91897" fill="white"/>
</g>
<g filter="url(#filter9_d)">
<circle cx="53.8853" cy="52.9668" r="1.25099" transform="rotate(180 53.8853 52.9668)" fill="#8F3DDC"/>
</g>
<g filter="url(#filter10_d)">
<circle cx="103.925" cy="40.5857" r="2.91897" fill="white"/>
</g>
<g filter="url(#filter11_d)">
<circle cx="103.925" cy="40.5857" r="1.25099" transform="rotate(180 103.925 40.5857)" fill="#8F3DDC"/>
</g>
<rect x="98.5038" y="33.4968" width="10.8419" height="2.50197" rx="1.25099" fill="#8F3DDC"/>
<path d="M100.195 35.1648H107.654" stroke="white" stroke-linecap="round"/>
<rect x="39.2904" y="48.3799" width="10.8419" height="2.50197" rx="1.25099" fill="#8F3DDC"/>
<path d="M40.982 50.0479H48.4407" stroke="white" stroke-linecap="round"/>
<rect x="67.6461" y="67.5618" width="10.8419" height="2.50197" rx="1.25099" fill="#8F3DDC"/>
<rect x="79.322" y="96.8801" width="10.8419" height="2.50197" rx="1.25099" fill="#8F3DDC"/>
<path d="M81.0136 98.5481H88.4723" stroke="white" stroke-linecap="round"/>
<rect x="94.3338" y="67.6904" width="10.8419" height="2.50197" rx="1.25099" fill="#8F3DDC"/>
<path d="M96.0254 69.3584H103.484" stroke="white" stroke-linecap="round"/>
<rect x="120.188" y="54.3464" width="10.8419" height="2.50197" rx="1.25099" fill="#8F3DDC"/>
<path d="M121.879 56.0144H129.338" stroke="white" stroke-linecap="round"/>
<path d="M69.3377 69.2297H76.7964" stroke="white" stroke-linecap="round"/>
<path opacity="0.1" fill-rule="evenodd" clip-rule="evenodd" d="M63.075 113.797C64.8577 112.261 67.5243 112.363 69.1848 114.03C70.939 115.792 73.791 115.792 75.5451 114.03L76.5194 113.052C78.1628 111.402 80.8348 111.402 82.4782 113.052C84.1216 114.702 86.7936 114.702 88.437 113.052L92.7173 108.753C94.3144 107.149 96.9111 107.149 98.5082 108.753C100.105 110.357 102.702 110.357 104.299 108.753L107.852 105.185C109.665 103.364 112.613 103.364 114.426 105.185C116.229 106.995 116.229 109.922 114.426 111.731L106.943 119.247C105.458 120.738 105.458 123.15 106.943 124.641C108.428 126.133 108.428 128.544 106.943 130.036L103.418 133.576H40.1244L63.075 113.797Z" fill="#FFE5EE"/>
<path opacity="0.1" fill-rule="evenodd" clip-rule="evenodd" d="M111.002 25.9793C109.162 27.8115 106.186 27.81 104.348 25.9759C102.509 24.1405 99.5305 24.1405 97.6909 25.9759L96.5078 27.1564C94.7195 28.9406 91.8246 28.9406 90.0364 27.1564C88.2482 25.3723 85.3532 25.3723 83.565 27.1564L78.9165 31.7944C77.1786 33.5283 74.3652 33.5283 72.6273 31.7944C70.8895 30.0605 68.076 30.0605 66.3382 31.7944L62.5952 35.5289C60.5584 37.5611 57.261 37.5611 55.2243 35.5289C53.2927 33.6017 53.1721 30.5118 54.9475 28.4399L68.4801 12.647L116.435 20.5699L111.002 25.9793Z" fill="#FFE5EE"/>
<path fill-rule="evenodd" clip-rule="evenodd" d="M68.9801 109.42C71.6908 115.965 78.0768 120.232 85.1603 120.232C92.2437 120.232 98.6297 115.965 101.34 109.42C104.051 102.875 102.553 95.3421 97.544 90.333C90.7042 83.4945 79.6163 83.4945 72.7765 90.333C67.7677 95.3421 66.2694 102.875 68.9801 109.42Z" stroke="#C3C3C3" stroke-width="4"/>
<path d="M73.4842 114.394L68.4803 119.398" stroke="#C3C3C3" stroke-width="13.6782"/>
<path fill-rule="evenodd" clip-rule="evenodd" d="M58.4886 133.654C57.4299 134.662 55.7139 134.662 54.6552 133.654L54.2621 133.281C53.2039 132.273 53.2039 130.638 54.2621 129.63L66.7557 117.73L70.9822 121.755L58.4886 133.654Z" fill="#F94F24"/>
<path fill-rule="evenodd" clip-rule="evenodd" d="M55.8909 129.63C54.8264 130.638 54.8264 132.273 55.8909 133.281L56.2862 133.654C56.5976 133.95 56.9808 134.169 57.4023 134.292C56.4347 134.578 55.3791 134.333 54.6622 133.654L54.2668 133.281C53.2023 132.273 53.2023 130.638 54.2668 129.63L66.8342 117.73L67.6463 118.499L55.8909 129.63Z" fill="#E54619"/>
<path fill-rule="evenodd" clip-rule="evenodd" d="M70.9623 115.228L70.1483 116.042C70.5556 116.74 71.1364 117.322 71.8344 117.73L72.6502 116.916C72.6502 116.916 71.4582 115.989 70.9623 115.228Z" fill="#A3A3A3"/>
<defs>
<filter id="filter0_d" x="118.69" y="54.5166" width="13.8379" height="13.8379" filterUnits="userSpaceOnUse" color-interpolation-filters="sRGB">
<feFlood flood-opacity="0" result="BackgroundImageFix"/>
<feColorMatrix in="SourceAlpha" type="matrix" values="0 0 0 0 0 0 0 0 0 0 0 0 0 0 0 0 0 0 127 0"/>
<feOffset/>
<feGaussianBlur stdDeviation="2"/>
<feColorMatrix type="matrix" values="0 0 0 0 0 0 0 0 0 0 0 0 0 0 0 0 0 0 0.25 0"/>
<feBlend mode="normal" in2="BackgroundImageFix" result="effect1_dropShadow"/>
<feBlend mode="normal" in="SourceGraphic" in2="effect1_dropShadow" result="shape"/>
</filter>
<filter id="filter1_d" x="120.358" y="56.1846" width="10.502" height="10.502" filterUnits="userSpaceOnUse" color-interpolation-filters="sRGB">
<feFlood flood-opacity="0" result="BackgroundImageFix"/>
<feColorMatrix in="SourceAlpha" type="matrix" values="0 0 0 0 0 0 0 0 0 0 0 0 0 0 0 0 0 0 127 0"/>
<feOffset/>
<feGaussianBlur stdDeviation="2"/>
<feColorMatrix type="matrix" values="0 0 0 0 0 0 0 0 0 0 0 0 0 0 0 0 0 0 0.25 0"/>
<feBlend mode="normal" in2="BackgroundImageFix" result="effect1_dropShadow"/>
<feBlend mode="normal" in="SourceGraphic" in2="effect1_dropShadow" result="shape"/>
</filter>
<filter id="filter2_d" x="92.8358" y="67.8604" width="13.8379" height="13.8379" filterUnits="userSpaceOnUse" color-interpolation-filters="sRGB">
<feFlood flood-opacity="0" result="BackgroundImageFix"/>
<feColorMatrix in="SourceAlpha" type="matrix" values="0 0 0 0 0 0 0 0 0 0 0 0 0 0 0 0 0 0 127 0"/>
<feOffset/>
<feGaussianBlur stdDeviation="2"/>
<feColorMatrix type="matrix" values="0 0 0 0 0 0 0 0 0 0 0 0 0 0 0 0 0 0 0.25 0"/>
<feBlend mode="normal" in2="BackgroundImageFix" result="effect1_dropShadow"/>
<feBlend mode="normal" in="SourceGraphic" in2="effect1_dropShadow" result="shape"/>
</filter>
<filter id="filter3_d" x="94.5038" y="69.5283" width="10.502" height="10.502" filterUnits="userSpaceOnUse" color-interpolation-filters="sRGB">
<feFlood flood-opacity="0" result="BackgroundImageFix"/>
<feColorMatrix in="SourceAlpha" type="matrix" values="0 0 0 0 0 0 0 0 0 0 0 0 0 0 0 0 0 0 127 0"/>
<feOffset/>
<feGaussianBlur stdDeviation="2"/>
<feColorMatrix type="matrix" values="0 0 0 0 0 0 0 0 0 0 0 0 0 0 0 0 0 0 0.25 0"/>
<feBlend mode="normal" in2="BackgroundImageFix" result="effect1_dropShadow"/>
<feBlend mode="normal" in="SourceGraphic" in2="effect1_dropShadow" result="shape"/>
</filter>
<filter id="filter4_d" x="76.156" y="97.05" width="17.1739" height="17.1739" filterUnits="userSpaceOnUse" color-interpolation-filters="sRGB">
<feFlood flood-opacity="0" result="BackgroundImageFix"/>
<feColorMatrix in="SourceAlpha" type="matrix" values="0 0 0 0 0 0 0 0 0 0 0 0 0 0 0 0 0 0 127 0"/>
<feOffset/>
<feGaussianBlur stdDeviation="2"/>
<feColorMatrix type="matrix" values="0 0 0 0 0 0 0 0 0 0 0 0 0 0 0 0 0 0 0.25 0"/>
<feBlend mode="normal" in2="BackgroundImageFix" result="effect1_dropShadow"/>
<feBlend mode="normal" in="SourceGraphic" in2="effect1_dropShadow" result="shape"/>
</filter>
<filter id="filter5_d" x="78.658" y="99.552" width="12.17" height="12.17" filterUnits="userSpaceOnUse" color-interpolation-filters="sRGB">
<feFlood flood-opacity="0" result="BackgroundImageFix"/>
<feColorMatrix in="SourceAlpha" type="matrix" values="0 0 0 0 0 0 0 0 0 0 0 0 0 0 0 0 0 0 127 0"/>
<feOffset/>
<feGaussianBlur stdDeviation="2"/>
<feColorMatrix type="matrix" values="0 0 0 0 0 0 0 0 0 0 0 0 0 0 0 0 0 0 0.25 0"/>
<feBlend mode="normal" in2="BackgroundImageFix" result="effect1_dropShadow"/>
<feBlend mode="normal" in="SourceGraphic" in2="effect1_dropShadow" result="shape"/>
</filter>
<filter id="filter6_d" x="66.1481" y="66.8977" width="13.8379" height="13.8379" filterUnits="userSpaceOnUse" color-interpolation-filters="sRGB">
<feFlood flood-opacity="0" result="BackgroundImageFix"/>
<feColorMatrix in="SourceAlpha" type="matrix" values="0 0 0 0 0 0 0 0 0 0 0 0 0 0 0 0 0 0 127 0"/>
<feOffset/>
<feGaussianBlur stdDeviation="2"/>
<feColorMatrix type="matrix" values="0 0 0 0 0 0 0 0 0 0 0 0 0 0 0 0 0 0 0.25 0"/>
<feBlend mode="normal" in2="BackgroundImageFix" result="effect1_dropShadow"/>
<feBlend mode="normal" in="SourceGraphic" in2="effect1_dropShadow" result="shape"/>
</filter>
<filter id="filter7_d" x="67.8161" y="68.5657" width="10.502" height="10.502" filterUnits="userSpaceOnUse" color-interpolation-filters="sRGB">
<feFlood flood-opacity="0" result="BackgroundImageFix"/>
<feColorMatrix in="SourceAlpha" type="matrix" values="0 0 0 0 0 0 0 0 0 0 0 0 0 0 0 0 0 0 127 0"/>
<feOffset/>
<feGaussianBlur stdDeviation="2"/>
<feColorMatrix type="matrix" values="0 0 0 0 0 0 0 0 0 0 0 0 0 0 0 0 0 0 0.25 0"/>
<feBlend mode="normal" in2="BackgroundImageFix" result="effect1_dropShadow"/>
<feBlend mode="normal" in="SourceGraphic" in2="effect1_dropShadow" result="shape"/>
</filter>
<filter id="filter8_d" x="46.9663" y="46.0479" width="13.8379" height="13.8379" filterUnits="userSpaceOnUse" color-interpolation-filters="sRGB">
<feFlood flood-opacity="0" result="BackgroundImageFix"/>
<feColorMatrix in="SourceAlpha" type="matrix" values="0 0 0 0 0 0 0 0 0 0 0 0 0 0 0 0 0 0 127 0"/>
<feOffset/>
<feGaussianBlur stdDeviation="2"/>
<feColorMatrix type="matrix" values="0 0 0 0 0 0 0 0 0 0 0 0 0 0 0 0 0 0 0.25 0"/>
<feBlend mode="normal" in2="BackgroundImageFix" result="effect1_dropShadow"/>
<feBlend mode="normal" in="SourceGraphic" in2="effect1_dropShadow" result="shape"/>
</filter>
<filter id="filter9_d" x="48.6343" y="47.7158" width="10.502" height="10.502" filterUnits="userSpaceOnUse" color-interpolation-filters="sRGB">
<feFlood flood-opacity="0" result="BackgroundImageFix"/>
<feColorMatrix in="SourceAlpha" type="matrix" values="0 0 0 0 0 0 0 0 0 0 0 0 0 0 0 0 0 0 127 0"/>
<feOffset/>
<feGaussianBlur stdDeviation="2"/>
<feColorMatrix type="matrix" values="0 0 0 0 0 0 0 0 0 0 0 0 0 0 0 0 0 0 0.25 0"/>
<feBlend mode="normal" in2="BackgroundImageFix" result="effect1_dropShadow"/>
<feBlend mode="normal" in="SourceGraphic" in2="effect1_dropShadow" result="shape"/>
</filter>
<filter id="filter10_d" x="97.0058" y="33.6667" width="13.8379" height="13.8379" filterUnits="userSpaceOnUse" color-interpolation-filters="sRGB">
<feFlood flood-opacity="0" result="BackgroundImageFix"/>
<feColorMatrix in="SourceAlpha" type="matrix" values="0 0 0 0 0 0 0 0 0 0 0 0 0 0 0 0 0 0 127 0"/>
<feOffset/>
<feGaussianBlur stdDeviation="2"/>
<feColorMatrix type="matrix" values="0 0 0 0 0 0 0 0 0 0 0 0 0 0 0 0 0 0 0.25 0"/>
<feBlend mode="normal" in2="BackgroundImageFix" result="effect1_dropShadow"/>
<feBlend mode="normal" in="SourceGraphic" in2="effect1_dropShadow" result="shape"/>
</filter>
<filter id="filter11_d" x="98.6738" y="35.3347" width="10.502" height="10.502" filterUnits="userSpaceOnUse" color-interpolation-filters="sRGB">
<feFlood flood-opacity="0" result="BackgroundImageFix"/>
<feColorMatrix in="SourceAlpha" type="matrix" values="0 0 0 0 0 0 0 0 0 0 0 0 0 0 0 0 0 0 127 0"/>
<feOffset/>
<feGaussianBlur stdDeviation="2"/>
<feColorMatrix type="matrix" values="0 0 0 0 0 0 0 0 0 0 0 0 0 0 0 0 0 0 0.25 0"/>
<feBlend mode="normal" in2="BackgroundImageFix" result="effect1_dropShadow"/>
<feBlend mode="normal" in="SourceGraphic" in2="effect1_dropShadow" result="shape"/>
</filter>
<linearGradient id="paint0_linear" x1="21.1003" y1="99.0941" x2="114.371" y2="131.222" gradientUnits="userSpaceOnUse">
<stop stop-color="#8033EB"/>
<stop offset="0.53" stop-color="#D4648E"/>
<stop offset="1" stop-color="#EC7071"/>
</linearGradient>
</defs>
</svg>
