<svg width="47" height="45" viewBox="0 0 47 45" fill="none" xmlns="http://www.w3.org/2000/svg">
<path fill-rule="evenodd" clip-rule="evenodd" d="M21.7428 1.23267C22.5001 -0.160465 24.4999 -0.160464 25.2572 1.23267L31.2849 12.3217C31.5727 12.8512 32.0841 13.2227 32.6766 13.3329L45.0856 15.6388C46.6445 15.9285 47.2625 17.8305 46.1716 18.9812L37.4879 28.1405C37.0733 28.5779 36.8779 29.179 36.9563 29.7766L38.5978 42.2908C38.804 43.863 37.1861 45.0385 35.7546 44.3565L24.3602 38.9283C23.816 38.6691 23.184 38.6691 22.6399 38.9283L11.2454 44.3565C9.81392 45.0385 8.19602 43.863 8.40225 42.2908L10.0437 29.7766C10.1221 29.179 9.92681 28.5779 9.51212 28.1405L0.828483 18.9812C-0.262456 17.8305 0.355527 15.9285 1.91448 15.6388L14.3234 13.3329C14.916 13.2227 15.4273 12.8512 15.7152 12.3217L21.7428 1.23267Z" fill="white"/>
</svg>
