<svg width="50" height="51" viewBox="0 0 50 51" fill="none" xmlns="http://www.w3.org/2000/svg">
<path d="M25.0005 31V37.5M25.0005 37.5H10.5005M25.0005 37.5V44M10.5005 37.5H39.5005V41.5M10.5005 37.5V41.5" stroke="#00CCB0"/>
<rect x="4.50049" y="41" width="11" height="6" fill="#1A0A31" stroke="#00CCB0"/>
<rect x="19.5005" y="44" width="11" height="6" fill="#1A0A31" stroke="#00CCB0"/>
<rect x="34.5005" y="41" width="11" height="6" fill="#1A0A31" stroke="#00CCB0"/>
<path d="M12.6434 10.0449L25.0719 2.86934L37.5004 10.0449V24.3961L25.0719 31.5717L12.6434 24.3961V10.0449Z" stroke="white"/>
<path d="M13.0094 24.1848L25.0719 3.29199L37.1343 24.1848H13.0094Z" stroke="white"/>
<circle cx="13.129" cy="24.3856" r="2.48571" fill="#1A0A31" stroke="white"/>
<circle cx="13.129" cy="10.6512" r="2.48571" fill="#1A0A31" stroke="white"/>
<circle cx="37.0148" cy="24.3856" r="2.48571" fill="#1A0A31" stroke="white"/>
<circle cx="25.0719" cy="30.9545" r="2.48571" fill="#1A0A31" stroke="white"/>
<circle cx="25.0719" cy="3.48571" r="2.48571" fill="#1A0A31" stroke="white"/>
<circle cx="37.0148" cy="10.6512" r="2.48571" fill="#1A0A31" stroke="white"/>
</svg>
