<svg width="50" height="51" viewBox="0 0 50 51" fill="none" xmlns="http://www.w3.org/2000/svg">
<path d="M14.996 37.5H5.00049C2.79135 37.5 1.00049 35.7091 1.00049 33.5V5.5C1.00049 3.29086 2.79135 1.5 5.00049 1.5H45.0005C47.2096 1.5 49.0005 3.29086 49.0005 5.5V33.5C49.0005 35.7091 47.2096 37.5 45.0005 37.5H35.8727" stroke="white"/>
<path d="M19.9578 32.5V37.1635L14.1521 42.9692" stroke="#00CCB0"/>
<path d="M30.6357 32.5V37.1635L36.4414 42.9692" stroke="#00CCB0"/>
<path d="M25.0005 30.5L25.0005 47.5" stroke="#00CCB0"/>
<line x1="1.00049" y1="10" x2="49.0005" y2="10" stroke="white"/>
<path d="M20.3955 24.78L14.8005 20.985V20.055L20.3955 16.26V17.445L15.8805 20.49V20.55L20.3955 23.595V24.78ZM21.9796 27.9L26.8996 14.85H28.0096L23.0896 27.9H21.9796ZM29.5938 24.78V23.595L34.1088 20.55V20.49L29.5938 17.445V16.26L35.1888 20.055V20.985L29.5938 24.78Z" fill="white"/>
<circle cx="13.7967" cy="43.6802" r="1.86967" fill="#1F0E3A" stroke="#00CCB0"/>
<circle cx="36.4412" cy="43.6802" r="1.86967" fill="#1F0E3A" stroke="#00CCB0"/>
<circle cx="24.8819" cy="47.4717" r="1.86967" fill="#1F0E3A" stroke="#00CCB0"/>
<circle cx="4.91055" cy="5.8837" r="1.77725" fill="#00CCB0"/>
<circle cx="10.3607" cy="5.8837" r="1.77725" fill="#00CCB0"/>
<circle cx="15.8109" cy="5.8837" r="1.77725" fill="#00CCB0"/>
</svg>
