<svg width="50" height="51" viewBox="0 0 50 51" fill="none" xmlns="http://www.w3.org/2000/svg">
<path fill-rule="evenodd" clip-rule="evenodd" d="M13.6697 0.95049C13.6697 0.701691 13.8714 0.5 14.1202 0.5H31.4622C32.2086 0.5 32.8136 1.10507 32.8136 1.85147V38.0533C32.8136 38.7997 32.2086 39.4048 31.4622 39.4048H3.85196C3.10556 39.4048 2.50049 38.7997 2.50049 38.0533V9.33348L9.65704 2.17153C10.5083 1.31966 11.9645 1.92253 11.9645 3.12681V8.61899C11.9645 9.36539 11.3594 9.97046 10.613 9.97046H3.40147V38.0533C3.40147 38.3021 3.60316 38.5038 3.85196 38.5038H31.4622C31.711 38.5038 31.9127 38.3021 31.9127 38.0533V1.85147C31.9127 1.60267 31.711 1.40098 31.4622 1.40098H14.1202C13.8714 1.40098 13.6697 1.19929 13.6697 0.95049ZM4.03798 9.06948H10.613C10.8618 9.06948 11.0635 8.86779 11.0635 8.61899V3.12681C11.0635 2.72538 10.5781 2.52442 10.2944 2.80838L4.03798 9.06948ZM34.9693 3.1081C35.2181 3.1081 35.4198 3.3098 35.4198 3.55859V40.6614C35.4198 41.4078 34.8147 42.0129 34.0683 42.0129H5.18481C4.93602 42.0129 4.73432 41.8112 4.73432 41.5624C4.73432 41.3136 4.93602 41.1119 5.18481 41.1119H34.0683C34.3171 41.1119 34.5188 40.9102 34.5188 40.6614V3.55859C34.5188 3.3098 34.7205 3.1081 34.9693 3.1081Z" fill="white"/>
<path d="M48.0004 37.8364C48.0004 44.8327 42.333 50.5043 35.342 50.5043C28.351 50.5043 22.6836 44.8327 22.6836 37.8364C22.6836 30.8401 28.351 25.1685 35.342 25.1685C42.333 25.1685 48.0004 30.8401 48.0004 37.8364Z" fill="#1A0A31"/>
<path d="M30.4368 31.7153C30.2881 31.5307 30.3166 31.2596 30.5084 31.1204C32.0198 30.0236 33.8543 29.4526 35.729 29.5031C37.7471 29.5574 39.6799 30.3281 41.1815 31.6774C42.6832 33.0266 43.6556 34.8663 43.9246 36.867C44.1937 38.8678 43.7419 40.899 42.6501 42.597C41.5583 44.2951 39.8978 45.5491 37.9658 46.1346C36.0339 46.7201 33.9565 46.5989 32.1058 45.7927C30.255 44.9864 28.7516 43.5478 27.8647 41.7343C27.0408 40.0496 26.7989 38.1436 27.1695 36.3133C27.2166 36.081 27.4514 35.9425 27.6811 36.0012C27.9107 36.0599 28.048 36.2936 28.0023 36.5261C27.6814 38.1586 27.9015 39.8557 28.6358 41.3572C29.4331 42.9876 30.7847 44.2809 32.4486 45.0058C34.1125 45.7306 35.98 45.8396 37.7169 45.3132C39.4538 44.7868 40.9466 43.6594 41.9281 42.1328C42.9097 40.6062 43.3159 38.7801 43.074 36.9814C42.832 35.1827 41.9578 33.5288 40.6079 32.3158C39.2579 31.1028 37.5202 30.4099 35.706 30.3611C34.0351 30.3162 32.3997 30.8203 31.0477 31.7897C30.8551 31.9278 30.5855 31.8999 30.4368 31.7153Z" fill="#00CCB0"/>
<path d="M34.6564 37.2775C34.7336 37.3149 34.7494 37.4418 34.6917 37.5609C34.6341 37.68 34.5247 37.7462 34.4475 37.7088L31.7821 36.4184C31.7049 36.381 31.6891 36.2542 31.7468 36.1351C31.8044 36.016 31.9138 35.9497 31.991 35.9871L34.6564 37.2775Z" fill="white"/>
<path d="M35.6216 45.2339C35.6216 45.3005 35.5676 45.3545 35.501 45.3545C35.4344 45.3545 35.3804 45.3005 35.3804 45.2339L35.3804 44.2694C35.3804 44.2028 35.4344 44.1488 35.501 44.1488C35.5676 44.1488 35.6216 44.2028 35.6216 44.2694L35.6216 45.2339Z" fill="white"/>
<path d="M31.9577 44.3165C31.9245 44.3742 31.8507 44.3939 31.793 44.3606C31.7354 44.3273 31.7156 44.2536 31.7489 44.1959L32.2312 43.3606C32.2645 43.3029 32.3382 43.2832 32.3959 43.3165C32.4535 43.3498 32.4733 43.4235 32.44 43.4812L31.9577 44.3165Z" fill="white"/>
<path d="M29.2441 41.6912C29.1864 41.7245 29.1127 41.7047 29.0794 41.6471C29.0461 41.5894 29.0658 41.5156 29.1235 41.4824L29.9588 41.0001C30.0165 40.9668 30.0902 40.9865 30.1235 41.0442C30.1568 41.1019 30.137 41.1756 30.0794 41.2089L29.2441 41.6912Z" fill="white"/>
<path d="M28.2065 38.0601C28.1399 38.0601 28.0859 38.0061 28.0859 37.9395C28.0859 37.8729 28.1399 37.8189 28.2065 37.8189L29.171 37.8189C29.2376 37.8189 29.2916 37.8729 29.2916 37.9395C29.2916 38.0061 29.2376 38.0601 29.171 38.0601L28.2065 38.0601Z" fill="white"/>
<path d="M35.6216 31.6094C35.6216 31.676 35.5676 31.73 35.501 31.73C35.4344 31.73 35.3804 31.676 35.3804 31.6094L35.3804 30.6449C35.3804 30.5783 35.4344 30.5243 35.501 30.5243C35.5676 30.5243 35.6216 30.5783 35.6216 30.6449L35.6216 31.6094Z" fill="white"/>
<path d="M38.77 32.5181C38.7367 32.5758 38.663 32.5956 38.6053 32.5623C38.5476 32.529 38.5279 32.4552 38.5612 32.3976L39.0434 31.5623C39.0767 31.5046 39.1505 31.4848 39.2081 31.5181C39.2658 31.5514 39.2856 31.6252 39.2523 31.6828L38.77 32.5181Z" fill="white"/>
<path d="M41.0426 34.8792C40.985 34.9125 40.9112 34.8927 40.8779 34.835C40.8447 34.7774 40.8644 34.7036 40.9221 34.6703L41.7574 34.1881C41.8151 34.1548 41.8888 34.1745 41.9221 34.2322C41.9554 34.2899 41.9356 34.3636 41.878 34.3969L41.0426 34.8792Z" fill="white"/>
<path d="M41.8303 38.0601C41.7637 38.0601 41.7097 38.0061 41.7097 37.9395C41.7097 37.8729 41.7637 37.8189 41.8303 37.8189L42.7948 37.8189C42.8614 37.8189 42.9154 37.8729 42.9154 37.9395C42.9154 38.0061 42.8614 38.0601 42.7948 38.0601L41.8303 38.0601Z" fill="white"/>
<path d="M40.9223 41.2087C40.8646 41.1754 40.8449 41.1017 40.8782 41.044C40.9114 40.9864 40.9852 40.9666 41.0429 40.9999L41.8782 41.4822C41.9358 41.5155 41.9556 41.5892 41.9223 41.6469C41.889 41.7045 41.8153 41.7243 41.7576 41.691L40.9223 41.2087Z" fill="white"/>
<path d="M38.5613 43.4814C38.528 43.4237 38.5477 43.35 38.6054 43.3167C38.6631 43.2834 38.7368 43.3031 38.7701 43.3608L39.2524 44.1961C39.2857 44.2538 39.2659 44.3275 39.2082 44.3608C39.1506 44.3941 39.0768 44.3743 39.0435 44.3167L38.5613 43.4814Z" fill="white"/>
<path d="M36.2239 36.9915C36.182 37.0973 36.0309 37.1367 35.8866 37.0795C35.7422 37.0223 35.6592 36.8901 35.7012 36.7843L37.0221 33.4514C37.0641 33.3456 37.2151 33.3061 37.3595 33.3634C37.5038 33.4206 37.5868 33.5527 37.5449 33.6586L36.2239 36.9915Z" fill="white"/>
<path fill-rule="evenodd" clip-rule="evenodd" d="M35.5004 38.724C35.8999 38.724 36.2238 38.4002 36.2238 38.0006C36.2238 37.6011 35.8999 37.2772 35.5004 37.2772C35.1009 37.2772 34.777 37.6011 34.777 38.0006C34.777 38.4002 35.1009 38.724 35.5004 38.724ZM35.5004 39.0857C36.0997 39.0857 36.5855 38.5999 36.5855 38.0006C36.5855 37.4013 36.0997 36.9155 35.5004 36.9155C34.9011 36.9155 34.4153 37.4013 34.4153 38.0006C34.4153 38.5999 34.9011 39.0857 35.5004 39.0857Z" fill="white"/>
<path d="M32.0005 32.9L29.6005 30.5L29.0005 33.5L32.0005 32.9Z" fill="#00CCB0"/>
<path fill-rule="evenodd" clip-rule="evenodd" d="M35.342 49.6033C41.8348 49.6033 47.0994 44.3357 47.0994 37.8364C47.0994 31.337 41.8348 26.0694 35.342 26.0694C28.8492 26.0694 23.5846 31.337 23.5846 37.8364C23.5846 44.3357 28.8492 49.6033 35.342 49.6033ZM35.342 50.5043C42.333 50.5043 48.0004 44.8327 48.0004 37.8364C48.0004 30.8401 42.333 25.1685 35.342 25.1685C28.351 25.1685 22.6836 30.8401 22.6836 37.8364C22.6836 44.8327 28.351 50.5043 35.342 50.5043Z" fill="white"/>
<path d="M18.3297 19.7862C13.7528 19.7862 10.1675 18.1861 10.1675 16.1431C10.1675 14.1001 13.7528 12.5 18.3297 12.5C22.9067 12.5 26.492 14.1001 26.492 16.1431C26.492 18.1861 22.9067 19.7862 18.3297 19.7862ZM18.3297 13.3096C14.8551 13.3096 10.9837 14.4733 10.9837 16.1431C10.9837 17.8128 14.8551 18.9766 18.3297 18.9766C21.8044 18.9766 25.6758 17.8128 25.6758 16.1431C25.6758 14.4733 21.8044 13.3096 18.3297 13.3096Z" fill="#00CCB0"/>
<path d="M18.3297 23.0235C13.7528 23.0235 10.1675 21.4234 10.1675 19.3804V16.1421C10.1675 15.9182 10.3499 15.7373 10.5756 15.7373C10.8013 15.7373 10.9837 15.9182 10.9837 16.1421V19.3804C10.9837 21.0501 14.8551 22.2139 18.3297 22.2139C21.8044 22.2139 25.6758 21.0501 25.6758 19.3804V16.1421C25.6758 15.9182 25.8582 15.7373 26.0839 15.7373C26.3096 15.7373 26.492 15.9182 26.492 16.1421V19.3804C26.492 21.4234 22.9067 23.0235 18.3297 23.0235Z" fill="#00CCB0"/>
<path d="M18.3297 26.6661C13.7528 26.6661 10.1675 25.0659 10.1675 23.023V19.3799C10.1675 19.156 10.3499 18.9751 10.5756 18.9751C10.8013 18.9751 10.9837 19.156 10.9837 19.3799V23.023C10.9837 24.6927 14.8551 25.8565 18.3297 25.8565C21.8044 25.8565 25.6758 24.6927 25.6758 23.023V19.3799C25.6758 19.156 25.8582 18.9751 26.0839 18.9751C26.3096 18.9751 26.492 19.156 26.492 19.3799V23.023C26.492 25.0659 22.9067 26.6661 18.3297 26.6661Z" fill="#00CCB0"/>
<path d="M15.3984 16.5496C15.3984 16.2782 15.6185 16.0581 15.89 16.0581H20.7715C21.0429 16.0581 21.263 16.2782 21.263 16.5496C21.263 16.8211 21.0429 17.0412 20.7715 17.0412H15.89C15.6185 17.0412 15.3984 16.8211 15.3984 16.5496Z" fill="white"/>
<path d="M18.3297 30.3106C13.7528 30.3106 10.1675 28.7105 10.1675 26.6675V23.0244C10.1675 22.8006 10.3499 22.6196 10.5756 22.6196C10.8013 22.6196 10.9837 22.8006 10.9837 23.0244V26.6675C10.9837 28.3373 14.8551 29.501 18.3297 29.501C21.8044 29.501 25.6758 28.3373 25.6758 26.6675V23.0244C25.6758 22.8006 25.8582 22.6196 26.0839 22.6196C26.3096 22.6196 26.492 22.8006 26.492 23.0244V26.6675C26.492 28.7105 22.9067 30.3106 18.3297 30.3106Z" fill="#00CCB0"/>
</svg>
