<svg xmlns="http://www.w3.org/2000/svg" xmlns:xlink="http://www.w3.org/1999/xlink" viewBox="0 0 800 500"><defs><linearGradient id="a" x1="396" y1="261.24" x2="759.53" y2="261.24" gradientUnits="userSpaceOnUse"><stop offset="0" stop-color="#8033eb"/><stop offset="1" stop-color="#6731ce"/></linearGradient><linearGradient id="b" x1="328.81" y1="631.71" x2="527.61" y2="260.03" gradientTransform="translate(-50.6 211.25) rotate(-45)" gradientUnits="userSpaceOnUse"><stop offset="0" stop-color="#8033eb"/><stop offset="0.53" stop-color="#d4648e"/><stop offset="1" stop-color="#ec7071"/></linearGradient><linearGradient id="c" x1="34.68" y1="287.42" x2="281.3" y2="287.42" gradientTransform="matrix(-1, 0, 0, 1, 361.65, 0)" xlink:href="#a"/></defs><title>Artboard 2 copy 10</title><g style="isolation:isolate"><rect x="103.21" y="131.32" width="181.66" height="43.85" rx="20.69" ry="20.69" style="fill:#f2f2f2"/><rect x="406.8" y="376.22" width="181.66" height="43.85" rx="20.69" ry="20.69" style="fill:#f2f2f2"/><path d="M535.58,112.63A55.68,55.68,0,1,1,479.91,57,55.67,55.67,0,0,1,535.58,112.63Z" style="fill:#f2f2f2"/><circle cx="695.53" cy="100.58" r="27.65" style="fill:#f2f2f2"/><path d="M79.09,271.86a20.25,20.25,0,1,1-20.25-20.25A20.24,20.24,0,0,1,79.09,271.86Z" style="fill:#f2f2f2"/><path d="M402.31,312.77a55.68,55.68,0,1,1-55.68-55.67A55.68,55.68,0,0,1,402.31,312.77Z" style="fill:#f2f2f2"/><path d="M361.32,297.73h0c-1.14,0-2.28,0-3.42-.06a.56.56,0,0,1-.55-.58.58.58,0,0,1,.58-.55c1.13,0,2.26,0,3.39,0a.57.57,0,1,1,0,1.14Zm2.27,0a.56.56,0,0,1-.56-.56.55.55,0,0,1,.55-.57c1.14,0,2.26-.05,3.39-.09a.57.57,0,1,1,0,1.13c-1.13.05-2.27.08-3.41.09Zm-7.94-.12h0c-1.14,0-2.28-.11-3.42-.19a.57.57,0,0,1-.52-.61.56.56,0,0,1,.6-.53c1.13.08,2.26.15,3.39.2a.57.57,0,0,1,0,1.13Zm13.61-.08a.57.57,0,0,1,0-1.13c1.13-.06,2.26-.14,3.38-.23a.58.58,0,0,1,.61.52.57.57,0,0,1-.52.61c-1.13.09-2.27.17-3.41.23ZM350,297.22h-.05c-1.14-.1-2.27-.21-3.4-.34a.57.57,0,1,1,.13-1.13c1.12.13,2.24.24,3.37.34a.57.57,0,0,1-.05,1.13Zm24.92-.14a.57.57,0,0,1-.05-1.13c1.13-.11,2.25-.24,3.37-.38a.57.57,0,0,1,.14,1.13c-1.13.14-2.26.26-3.4.38Zm-30.56-.47h-.07c-1.14-.15-2.26-.31-3.39-.49a.55.55,0,0,1-.47-.64.57.57,0,0,1,.65-.48c1.11.18,2.23.33,3.35.48a.57.57,0,0,1,.49.64A.56.56,0,0,1,344.35,296.61Zm36.2-.21a.57.57,0,0,1-.08-1.13c1.12-.15,2.24-.33,3.35-.51a.56.56,0,0,1,.65.46.58.58,0,0,1-.47.66c-1.12.18-2.24.36-3.37.52Zm-41.81-.64h-.09c-1.13-.19-2.25-.4-3.37-.62a.57.57,0,0,1-.44-.67.58.58,0,0,1,.67-.45c1.1.22,2.21.43,3.33.62a.57.57,0,0,1,.46.66A.57.57,0,0,1,338.74,295.76Zm47.41-.27a.57.57,0,0,1-.11-1.13c1.12-.2,2.22-.42,3.33-.66a.57.57,0,0,1,.23,1.11c-1.11.24-2.23.46-3.35.67Zm-53-.82h-.13c-1.11-.24-2.22-.5-3.33-.77a.56.56,0,0,1-.41-.69.56.56,0,0,1,.68-.41c1.1.27,2.2.52,3.31.76a.57.57,0,0,1,.43.68A.57.57,0,0,1,333.18,294.67Zm58.52-.34a.56.56,0,0,1-.55-.44.58.58,0,0,1,.42-.68c1.11-.25,2.21-.52,3.3-.8a.58.58,0,0,1,.69.41.57.57,0,0,1-.41.69c-1.1.28-2.21.55-3.32.81Zm-64-1-.15,0c-1.1-.29-2.2-.59-3.29-.91a.57.57,0,1,1,.32-1.09c1.08.31,2.17.61,3.26.9a.57.57,0,0,1,.41.7A.58.58,0,0,1,327.66,293.35Zm69.54-.4a.57.57,0,0,1-.15-1.12c1.09-.3,2.18-.61,3.26-.94a.57.57,0,0,1,.33,1.09c-1.09.33-2.19.64-3.29.95Zm-75-1.16-.17,0c-1.09-.34-2.18-.69-3.26-1.05a.57.57,0,0,1,.36-1.08l3.24,1.05a.56.56,0,0,1,.37.71A.57.57,0,0,1,322.2,291.79Zm80.44-.47a.56.56,0,0,1-.54-.39.57.57,0,0,1,.36-.72c1.08-.34,2.15-.7,3.22-1.08a.57.57,0,0,1,.72.35.56.56,0,0,1-.35.72c-1.07.38-2.15.75-3.24,1.09ZM316.8,290a.63.63,0,0,1-.19,0q-1.62-.58-3.21-1.2a.56.56,0,0,1-.33-.73.57.57,0,0,1,.74-.33c1.05.41,2.11.81,3.18,1.19a.55.55,0,0,1,.34.72A.57.57,0,0,1,316.8,290Zm91.2-.52a.57.57,0,0,1-.53-.37.57.57,0,0,1,.33-.73c1.06-.4,2.12-.8,3.16-1.22a.57.57,0,0,1,.43,1.05c-1.06.42-2.12.83-3.19,1.23A.51.51,0,0,1,408,289.47ZM311.48,288a.52.52,0,0,1-.21,0c-1.06-.43-2.11-.88-3.16-1.34a.55.55,0,0,1-.29-.74.56.56,0,0,1,.75-.29c1,.45,2.08.89,3.13,1.32a.57.57,0,0,1-.22,1.09Zm101.79-.57a.59.59,0,0,1-.53-.35.57.57,0,0,1,.31-.74c1-.44,2.07-.89,3.1-1.35a.57.57,0,0,1,.75.28.56.56,0,0,1-.29.75c-1,.47-2.07.92-3.12,1.36A.59.59,0,0,1,413.27,287.39Zm-107-1.68a.53.53,0,0,1-.24-.06c-1-.47-2.07-1-3.09-1.46a.57.57,0,1,1,.49-1c1,.5,2,1,3.08,1.45a.57.57,0,0,1,.28.75A.59.59,0,0,1,306.26,285.71Zm112.17-.62a.57.57,0,0,1-.24-1.08c1-.48,2-1,3-1.48a.57.57,0,0,1,.51,1c-1,.51-2,1-3.07,1.5A.64.64,0,0,1,418.43,285.09Zm-117.29-1.86a.62.62,0,0,1-.26-.06c-1-.52-2-1.05-3-1.6a.57.57,0,0,1-.23-.77.58.58,0,0,1,.77-.23c1,.54,2,1.07,3,1.59a.57.57,0,0,1-.26,1.07Zm122.36-.66a.56.56,0,0,1-.5-.3.57.57,0,0,1,.23-.77c1-.52,2-1.06,3-1.61a.57.57,0,0,1,.77.22.56.56,0,0,1-.22.77c-1,.56-2,1.1-3,1.63A.58.58,0,0,1,423.5,282.57Zm-127.37-2a.58.58,0,0,1-.28-.07c-1-.57-2-1.14-3-1.73a.57.57,0,0,1,.59-1c1,.58,1.95,1.15,2.93,1.71a.56.56,0,0,1,.22.77A.57.57,0,0,1,296.13,280.54Zm132.32-.7a.57.57,0,0,1-.28-1.06c1-.57,1.94-1.14,2.91-1.73a.56.56,0,1,1,.59,1c-1,.6-1.95,1.18-2.93,1.75A.6.6,0,0,1,428.45,279.84Zm-137.2-2.2a.53.53,0,0,1-.3-.09c-1-.6-1.93-1.22-2.89-1.85a.57.57,0,1,1,.63-.94c.94.62,1.9,1.23,2.86,1.83a.57.57,0,0,1-.3,1.05Zm142-.74a.59.59,0,0,1-.48-.27.56.56,0,0,1,.18-.78c.95-.61,1.89-1.23,2.83-1.86a.57.57,0,1,1,.63.95c-.94.63-1.89,1.25-2.85,1.87A.59.59,0,0,1,433.29,276.9Zm-146.8-2.37a.55.55,0,0,1-.32-.1c-.94-.64-1.88-1.3-2.8-2a.58.58,0,0,1-.13-.8.56.56,0,0,1,.79-.12c.92.66,1.85,1.31,2.78,1.95a.56.56,0,0,1-.32,1ZM438,273.75a.55.55,0,0,1-.46-.24.56.56,0,0,1,.14-.79c.92-.65,1.84-1.31,2.75-2a.57.57,0,0,1,.67.92c-.91.67-1.84,1.34-2.77,2A.56.56,0,0,1,438,273.75Zm-156.13-2.52a.6.6,0,0,1-.34-.11c-.91-.69-1.82-1.38-2.71-2.09a.57.57,0,0,1-.1-.8.58.58,0,0,1,.8-.09c.89.7,1.78,1.39,2.69,2.07a.57.57,0,0,1,.12.79A.59.59,0,0,1,281.87,271.23Zm160.71-.82a.58.58,0,0,1-.45-.22.57.57,0,0,1,.1-.8c.9-.69,1.79-1.38,2.67-2.09a.57.57,0,1,1,.71.88c-.89.72-1.78,1.42-2.69,2.11A.54.54,0,0,1,442.58,270.41ZM277.4,267.73a.6.6,0,0,1-.36-.12c-.88-.73-1.76-1.46-2.62-2.2a.56.56,0,0,1-.06-.8.57.57,0,0,1,.8-.06c.85.74,1.72,1.46,2.6,2.18a.56.56,0,0,1-.36,1ZM447,266.87a.57.57,0,0,1-.37-1c.87-.72,1.73-1.46,2.58-2.2a.57.57,0,1,1,.75.85c-.86.75-1.72,1.49-2.6,2.22A.57.57,0,0,1,447,266.87Zm-173.93-2.82a.54.54,0,0,1-.38-.14c-.85-.76-1.69-1.53-2.53-2.31a.57.57,0,0,1,0-.8.56.56,0,0,1,.8,0c.83.77,1.66,1.53,2.5,2.28a.56.56,0,0,1,.05.8A.55.55,0,0,1,273.08,264.05Zm178.21-.9a.56.56,0,0,1-.38-1c.83-.76,1.66-1.53,2.48-2.31a.56.56,0,0,1,.8,0,.57.57,0,0,1,0,.8c-.82.79-1.66,1.56-2.5,2.33A.56.56,0,0,1,451.29,263.15Zm-182.37-3a.6.6,0,0,1-.4-.15c-.82-.8-1.62-1.6-2.42-2.41a.57.57,0,0,1,0-.81.58.58,0,0,1,.8,0c.79.81,1.59,1.6,2.4,2.39a.57.57,0,0,1,0,.8A.54.54,0,0,1,268.92,260.19Zm186.49-.94a.56.56,0,0,1-.4-1c.8-.79,1.59-1.59,2.38-2.41a.56.56,0,0,1,.8,0,.57.57,0,0,1,0,.8c-.8.82-1.59,1.63-2.41,2.43A.54.54,0,0,1,455.41,259.25Zm-190.48-3.09a.58.58,0,0,1-.41-.17c-.79-.83-1.56-1.66-2.33-2.51a.56.56,0,0,1,.05-.8.57.57,0,0,1,.8,0c.75.84,1.52,1.67,2.3,2.49a.56.56,0,0,1-.41,1Zm194.43-1A.58.58,0,0,1,459,255a.57.57,0,0,1,0-.8c.77-.83,1.53-1.66,2.28-2.51a.57.57,0,0,1,.85.75c-.76.86-1.52,1.7-2.3,2.53A.55.55,0,0,1,459.36,255.18ZM261.11,252a.56.56,0,0,1-.43-.19c-.75-.86-1.48-1.73-2.21-2.61a.56.56,0,0,1,.87-.72c.72.87,1.46,1.73,2.2,2.58a.57.57,0,0,1-.43.94Zm202-1a.59.59,0,0,1-.37-.14.58.58,0,0,1-.06-.8c.74-.86,1.46-1.72,2.17-2.6a.57.57,0,0,1,.88.71c-.71.89-1.44,1.76-2.18,2.63A.6.6,0,0,1,463.13,251Zm-205.65-3.33a.57.57,0,0,1-.45-.21q-1.06-1.33-2.1-2.7a.56.56,0,0,1,.11-.79.57.57,0,0,1,.8.11c.68.9,1.37,1.79,2.08,2.67a.56.56,0,0,1-.44.92Zm209.25-1.06a.57.57,0,0,1-.45-.92c.7-.89,1.39-1.79,2.06-2.7a.57.57,0,0,1,.8-.11.56.56,0,0,1,.11.79c-.68.92-1.37,1.82-2.07,2.72A.58.58,0,0,1,466.73,246.56ZM254,243.12a.56.56,0,0,1-.46-.23c-.67-.92-1.33-1.84-2-2.78a.56.56,0,0,1,.14-.79.57.57,0,0,1,.79.14c.64.93,1.3,1.85,2,2.76a.56.56,0,0,1-.13.79A.52.52,0,0,1,254,243.12ZM470.14,242a.57.57,0,0,1-.33-.11.55.55,0,0,1-.13-.79c.66-.92,1.3-1.85,1.94-2.78a.57.57,0,0,1,.94.63c-.64.95-1.3,1.88-2,2.81A.59.59,0,0,1,470.14,242Zm-219.36-3.54a.56.56,0,0,1-.48-.25c-.63-.94-1.25-1.9-1.86-2.86a.56.56,0,0,1,.18-.78.57.57,0,0,1,.78.17c.6,1,1.22,1.9,1.85,2.84a.58.58,0,0,1-.16.79A.56.56,0,0,1,250.78,238.48Zm222.57-1.15a.56.56,0,0,1-.47-.88c.62-.94,1.22-1.9,1.82-2.86a.56.56,0,0,1,.78-.18.56.56,0,0,1,.18.78c-.6,1-1.21,1.93-1.84,2.89A.57.57,0,0,1,473.35,237.33Zm-225.63-3.62a.55.55,0,0,1-.48-.27c-.59-1-1.17-1.95-1.74-2.93a.57.57,0,1,1,1-.57c.57,1,1.14,1.95,1.73,2.91a.57.57,0,0,1-.19.78A.52.52,0,0,1,247.72,233.71Zm228.64-1.2a.51.51,0,0,1-.29-.08.55.55,0,0,1-.19-.77c.57-1,1.14-2,1.7-2.94a.56.56,0,0,1,.77-.22.57.57,0,0,1,.22.77c-.56,1-1.14,2-1.72,3A.57.57,0,0,1,476.36,232.51Zm-231.48-3.69a.59.59,0,0,1-.5-.29c-.55-1-1.09-2-1.61-3a.55.55,0,0,1,.24-.76.57.57,0,0,1,.77.24c.52,1,1.05,2,1.6,3a.57.57,0,0,1-.23.77A.52.52,0,0,1,244.88,228.82Zm234.28-1.25a.48.48,0,0,1-.26-.07.56.56,0,0,1-.23-.77c.53-1,1.06-2,1.57-3a.57.57,0,0,1,.76-.25.58.58,0,0,1,.25.77c-.51,1-1,2-1.58,3A.58.58,0,0,1,479.16,227.57Zm-236.91-3.76a.56.56,0,0,1-.51-.31c-.51-1-1-2-1.49-3.07a.57.57,0,0,1,1-.48c.48,1,1,2,1.47,3a.56.56,0,0,1-.25.76A.57.57,0,0,1,242.25,223.81Zm239.51-1.3a.54.54,0,0,1-.25-.06.55.55,0,0,1-.26-.75c.49-1,1-2,1.44-3.08a.57.57,0,0,1,1,.47c-.48,1-1,2.07-1.46,3.1A.57.57,0,0,1,481.76,222.51ZM239.83,218.7a.58.58,0,0,1-.52-.34c-.46-1-.91-2.07-1.35-3.13a.57.57,0,0,1,1-.43c.43,1,.88,2.07,1.34,3.1a.57.57,0,0,1-.29.75A.59.59,0,0,1,239.83,218.7Zm244.3-1.36a.44.44,0,0,1-.22-.05.56.56,0,0,1-.3-.74c.45-1,.89-2.08,1.31-3.14a.57.57,0,0,1,.74-.31.58.58,0,0,1,.32.74c-.43,1.06-.87,2.11-1.33,3.16A.57.57,0,0,1,484.13,217.34Zm-246.5-3.85a.56.56,0,0,1-.52-.36c-.42-1.06-.83-2.12-1.22-3.19a.56.56,0,1,1,1.06-.39c.39,1.06.79,2.11,1.21,3.16a.57.57,0,0,1-.32.74A.52.52,0,0,1,237.63,213.49Zm248.65-1.41a.71.71,0,0,1-.2,0,.58.58,0,0,1-.33-.74c.41-1.05.8-2.12,1.18-3.19a.57.57,0,0,1,1.07.38c-.38,1.08-.78,2.15-1.19,3.22A.56.56,0,0,1,486.28,212.08Zm-250.63-3.91a.55.55,0,0,1-.53-.38c-.38-1.07-.74-2.16-1.08-3.24a.57.57,0,1,1,1.08-.35c.34,1.08.7,2.15,1.07,3.22a.57.57,0,0,1-.35.72A.58.58,0,0,1,235.65,208.17Zm252.56-1.45a.57.57,0,0,1-.54-.75c.36-1.07.7-2.15,1-3.24a.56.56,0,0,1,.7-.38.57.57,0,0,1,.38.71q-.5,1.65-1.05,3.27A.56.56,0,0,1,488.21,206.72Zm-254.3-3.94a.58.58,0,0,1-.55-.41c-.33-1.09-.64-2.18-.94-3.29a.56.56,0,0,1,.4-.69.55.55,0,0,1,.69.4c.3,1.09.61,2.17.94,3.25a.57.57,0,0,1-.38.71Zm256-1.49a.41.41,0,0,1-.16,0,.56.56,0,0,1-.39-.7q.47-1.62.9-3.27a.56.56,0,0,1,1.09.29q-.42,1.65-.9,3.3A.58.58,0,0,1,489.9,201.29Zm-257.51-4a.57.57,0,0,1-.55-.43c-.28-1.1-.55-2.21-.8-3.32a.56.56,0,0,1,.43-.68.58.58,0,0,1,.68.43c.25,1.1.51,2.2.79,3.29a.57.57,0,0,1-.41.69Zm259-1.51h-.14a.58.58,0,0,1-.42-.69c.27-1.1.52-2.2.76-3.3a.57.57,0,1,1,1.11.24c-.24,1.11-.49,2.22-.76,3.33A.57.57,0,0,1,491.35,195.8Zm-260.24-4a.58.58,0,0,1-.56-.45c-.23-1.11-.45-2.23-.65-3.35a.56.56,0,1,1,1.11-.21c.21,1.12.42,2.22.65,3.33a.56.56,0,0,1-.43.67Zm261.45-1.52h-.11a.57.57,0,0,1-.44-.67c.21-1.1.42-2.21.61-3.33a.57.57,0,0,1,1.12.19c-.2,1.13-.4,2.25-.62,3.36A.57.57,0,0,1,492.56,190.26Zm-262.49-4a.56.56,0,0,1-.56-.48c-.19-1.12-.36-2.25-.52-3.38a.57.57,0,1,1,1.13-.15c.15,1.12.32,2.23.51,3.34a.58.58,0,0,1-.47.66Zm263.47-1.54h-.09A.57.57,0,0,1,493,184c.17-1.11.33-2.23.47-3.36a.56.56,0,0,1,.63-.49.57.57,0,0,1,.49.64c-.14,1.13-.3,2.26-.47,3.38A.56.56,0,0,1,493.54,184.67Zm-264.28-4.08a.56.56,0,0,1-.56-.5c-.14-1.13-.26-2.26-.37-3.4a.57.57,0,0,1,.51-.62.58.58,0,0,1,.62.51c.11,1.13.23,2.25.37,3.37a.59.59,0,0,1-.5.64Zm265-1.54h-.06a.56.56,0,0,1-.51-.62c.13-1.12.24-2.25.33-3.38a.58.58,0,0,1,.62-.51.56.56,0,0,1,.51.61c-.09,1.14-.2,2.27-.33,3.4A.57.57,0,0,1,494.28,179.05ZM228.7,174.94a.57.57,0,0,1-.57-.52c-.09-1.13-.16-2.27-.22-3.41A.57.57,0,1,1,229,171c.06,1.13.13,2.26.22,3.38a.56.56,0,0,1-.52.61Zm266.08-1.54h0a.58.58,0,0,1-.53-.61c.08-1.12.14-2.25.19-3.38a.58.58,0,0,1,.59-.55.57.57,0,0,1,.54.59c0,1.14-.11,2.28-.19,3.42A.56.56,0,0,1,494.78,173.4Zm-266.41-4.12a.58.58,0,0,1-.57-.55c0-1.13-.06-2.27-.08-3.41a.57.57,0,0,1,.56-.57.62.62,0,0,1,.58.56c0,1.13,0,2.26.08,3.38a.57.57,0,0,1-.55.59ZM495,167.73h0a.57.57,0,0,1-.55-.58c0-1.13,0-2.26,0-3.39a.56.56,0,0,1,.18-.41.58.58,0,0,1-.18-.42c0-1.13,0-2.26-.06-3.38A.57.57,0,0,1,495,159a.54.54,0,0,1,.58.55c0,1.14.06,2.28.07,3.42a.56.56,0,0,1-.18.41.58.58,0,0,1,.18.42c0,1.14,0,2.28,0,3.42A.57.57,0,0,1,495,167.73Zm-266.76-4.12h0a.56.56,0,0,1-.56-.57q0-1.71.06-3.42a.58.58,0,0,1,.58-.55.57.57,0,0,1,.55.59q0,1.68-.06,3.39A.56.56,0,0,1,228.28,163.61Zm.15-5.67h0a.56.56,0,0,1-.54-.59c0-1.14.12-2.28.2-3.42a.58.58,0,0,1,.61-.52.56.56,0,0,1,.52.61c-.08,1.12-.15,2.25-.2,3.38A.58.58,0,0,1,228.43,157.94Zm266.5-.11a.57.57,0,0,1-.57-.54q-.08-1.69-.21-3.39a.57.57,0,1,1,1.14-.08c.08,1.13.15,2.27.2,3.41a.56.56,0,0,1-.54.6Zm-266.11-5.55h0a.57.57,0,0,1-.52-.62c.1-1.13.22-2.27.35-3.4a.57.57,0,0,1,1.13.13c-.13,1.12-.25,2.25-.35,3.37A.56.56,0,0,1,228.82,152.28Zm265.72-.11a.57.57,0,0,1-.57-.52c-.1-1.13-.22-2.25-.35-3.37a.58.58,0,0,1,.5-.63.57.57,0,0,1,.63.5c.13,1.13.25,2.26.35,3.4a.57.57,0,0,1-.51.62Zm-265.1-5.53h-.07a.57.57,0,0,1-.49-.64c.15-1.13.31-2.26.49-3.38a.57.57,0,0,1,1.12.18c-.17,1.11-.34,2.23-.48,3.35A.57.57,0,0,1,229.44,146.64Zm264.47-.11a.57.57,0,0,1-.57-.49c-.15-1.12-.31-2.24-.49-3.36a.57.57,0,1,1,1.12-.18c.18,1.13.35,2.25.5,3.39a.56.56,0,0,1-.49.63ZM230.31,141h-.1a.57.57,0,0,1-.46-.66c.2-1.13.41-2.25.64-3.36a.56.56,0,0,1,.66-.44.57.57,0,0,1,.45.67q-.34,1.65-.63,3.33A.58.58,0,0,1,230.31,141ZM493,140.92a.57.57,0,0,1-.56-.46c-.2-1.12-.41-2.23-.64-3.34a.57.57,0,0,1,.45-.66.55.55,0,0,1,.66.44c.23,1.11.44,2.23.64,3.36a.56.56,0,0,1-.45.65Zm-261.63-5.45h-.12a.56.56,0,0,1-.43-.68c.24-1.11.5-2.22.77-3.33a.57.57,0,0,1,.69-.41.56.56,0,0,1,.42.68c-.27,1.1-.53,2.2-.78,3.31A.56.56,0,0,1,231.41,135.47Zm260.52-.11a.56.56,0,0,1-.55-.45q-.37-1.65-.78-3.3a.56.56,0,0,1,.41-.68.56.56,0,0,1,.69.41c.28,1.11.54,2.21.78,3.33a.56.56,0,0,1-.43.68ZM232.75,130l-.15,0a.57.57,0,0,1-.4-.69c.3-1.11.6-2.21.92-3.3a.57.57,0,0,1,.71-.38.56.56,0,0,1,.38.7c-.32,1.08-.62,2.17-.91,3.27A.58.58,0,0,1,232.75,130Zm257.83-.11a.56.56,0,0,1-.54-.42c-.3-1.1-.6-2.18-.92-3.27a.57.57,0,0,1,1.09-.32c.32,1.09.63,2.19.92,3.29a.57.57,0,0,1-.4.7Zm-256.25-5.34a.47.47,0,0,1-.17,0,.57.57,0,0,1-.38-.71c.34-1.09.7-2.18,1.07-3.26a.55.55,0,0,1,.72-.35.56.56,0,0,1,.35.72c-.36,1.07-.72,2.15-1,3.23A.58.58,0,0,1,234.33,124.51ZM489,124.4a.58.58,0,0,1-.54-.4c-.34-1.08-.69-2.15-1-3.22a.56.56,0,0,1,.35-.72.57.57,0,0,1,.72.35c.37,1.08.72,2.16,1.07,3.25a.57.57,0,0,1-.38.71A.47.47,0,0,1,489,124.4Zm-252.86-5.29a.63.63,0,0,1-.19,0,.58.58,0,0,1-.35-.73c.39-1.08.79-2.15,1.21-3.21a.57.57,0,0,1,1.06.41c-.42,1.06-.81,2.12-1.2,3.19A.56.56,0,0,1,236.14,119.11ZM487.19,119a.56.56,0,0,1-.53-.37c-.39-1.07-.78-2.12-1.19-3.18a.56.56,0,0,1,.32-.73.57.57,0,0,1,.73.32c.42,1.06.82,2.13,1.21,3.2a.58.58,0,0,1-.35.73A.58.58,0,0,1,487.19,119Zm-249-5.22a.52.52,0,0,1-.21,0,.57.57,0,0,1-.31-.74c.43-1.06.88-2.11,1.34-3.16a.56.56,0,0,1,.75-.29.58.58,0,0,1,.29.75c-.46,1-.9,2.08-1.33,3.13A.56.56,0,0,1,238.18,113.8Zm247-.07a.56.56,0,0,1-.52-.35c-.43-1-.87-2.08-1.33-3.11a.58.58,0,0,1,.3-.75.56.56,0,0,1,.74.29c.46,1,.91,2.08,1.34,3.14a.57.57,0,0,1-.31.74A.85.85,0,0,1,485.15,113.73Zm-244.7-5.15a.69.69,0,0,1-.24,0,.56.56,0,0,1-.27-.75c.47-1,1-2.07,1.47-3.1a.58.58,0,0,1,.76-.26.57.57,0,0,1,.26.76c-.5,1-1,2-1.46,3.07A.58.58,0,0,1,240.45,108.58Zm242.45,0a.58.58,0,0,1-.52-.32c-.47-1-1-2-1.45-3a.57.57,0,1,1,1-.51c.51,1,1,2,1.47,3.08a.56.56,0,0,1-.28.75A.46.46,0,0,1,482.9,108.54Zm-240-5.07a.58.58,0,0,1-.26-.06.57.57,0,0,1-.24-.77c.52-1,1.05-2,1.6-3a.57.57,0,0,1,1,.55q-.82,1.49-1.59,3A.57.57,0,0,1,242.94,103.47Zm237.48,0a.56.56,0,0,1-.51-.31c-.51-1-1-2-1.58-3a.57.57,0,0,1,1-.54c.54,1,1.07,2,1.59,3a.57.57,0,0,1-.24.77A.62.62,0,0,1,480.42,103.46Zm-2.69-5a.58.58,0,0,1-.5-.28c-.56-1-1.12-2-1.71-2.92a.57.57,0,0,1,1-.59c.58,1,1.16,2,1.72,2.94a.57.57,0,0,1-.21.78A.58.58,0,0,1,477.73,98.48Zm-232.09,0a.5.5,0,0,1-.28-.08.57.57,0,0,1-.21-.77c.57-1,1.14-2,1.73-3a.57.57,0,0,1,.78-.2.56.56,0,0,1,.19.78c-.58,1-1.15,2-1.71,2.93A.57.57,0,0,1,245.64,98.47Zm229.19-4.85a.58.58,0,0,1-.49-.26q-.9-1.44-1.83-2.85a.57.57,0,1,1,.95-.63c.62,1,1.24,1.91,1.85,2.87a.58.58,0,0,1-.19.79A.6.6,0,0,1,474.83,93.62Zm-226.27,0a.53.53,0,0,1-.3-.09.56.56,0,0,1-.18-.78c.6-1,1.22-1.92,1.85-2.88a.57.57,0,0,1,.95.63c-.63,1-1.24,1.9-1.84,2.86A.56.56,0,0,1,248.56,93.59Zm223.16-4.7a.57.57,0,0,1-.47-.25q-1-1.4-1.95-2.76a.57.57,0,0,1,.12-.8.58.58,0,0,1,.8.13c.66.92,1.32,1.85,2,2.79a.56.56,0,0,1-.14.79A.63.63,0,0,1,471.72,88.89Zm-220,0a.53.53,0,0,1-.32-.1.57.57,0,0,1-.15-.79c.65-.94,1.3-1.87,2-2.79a.57.57,0,1,1,.92.67c-.66.91-1.31,1.83-2,2.77A.55.55,0,0,1,251.68,88.84Zm216.73-4.55a.56.56,0,0,1-.45-.23c-.68-.9-1.37-1.8-2.07-2.68a.57.57,0,0,1,.09-.8.58.58,0,0,1,.8.09c.71.9,1.4,1.8,2.09,2.71a.57.57,0,0,1-.12.79A.54.54,0,0,1,468.41,84.29ZM255,84.23a.6.6,0,0,1-.34-.11.57.57,0,0,1-.11-.8c.68-.91,1.38-1.81,2.09-2.7a.57.57,0,0,1,.8-.1.58.58,0,0,1,.09.8c-.7.89-1.39,1.78-2.07,2.68A.59.59,0,0,1,255,84.23Zm209.92-4.4a.58.58,0,0,1-.44-.21c-.71-.87-1.44-1.74-2.18-2.59a.58.58,0,0,1,.06-.8.56.56,0,0,1,.8.06c.75.86,1.48,1.73,2.2,2.61a.56.56,0,0,1-.08.8A.53.53,0,0,1,464.91,79.83ZM258.5,79.77a.55.55,0,0,1-.36-.13.57.57,0,0,1-.08-.8c.72-.88,1.46-1.75,2.2-2.62a.57.57,0,0,1,.8,0,.56.56,0,0,1,.06.8c-.74.85-1.46,1.72-2.18,2.59A.56.56,0,0,1,258.5,79.77Zm202.73-4.25a.57.57,0,0,1-.43-.19c-.75-.84-1.51-1.68-2.28-2.5a.56.56,0,0,1,0-.8.57.57,0,0,1,.8,0q1.17,1.24,2.31,2.52a.57.57,0,0,1-.42,1Zm-199-.06a.57.57,0,0,1-.42-.95q1.14-1.28,2.31-2.52a.56.56,0,0,1,.8,0,.57.57,0,0,1,0,.8c-.78.82-1.54,1.65-2.3,2.5A.57.57,0,0,1,262.19,75.46Zm195.17-4.09a.6.6,0,0,1-.41-.17c-.78-.81-1.58-1.61-2.39-2.4a.57.57,0,1,1,.8-.81c.81.79,1.61,1.6,2.41,2.42a.57.57,0,0,1-.41,1Zm-191.3-.06a.59.59,0,0,1-.39-.16.58.58,0,0,1,0-.81c.8-.81,1.6-1.62,2.42-2.42a.58.58,0,0,1,.8,0,.57.57,0,0,1,0,.81c-.81.79-1.6,1.59-2.39,2.4A.58.58,0,0,1,266.06,71.31Zm187.26-3.92a.59.59,0,0,1-.39-.16c-.82-.78-1.65-1.54-2.49-2.3a.57.57,0,0,1,.76-.84c.85.76,1.68,1.53,2.51,2.32a.57.57,0,0,1,0,.8A.59.59,0,0,1,453.32,67.39ZM270.1,67.33a.57.57,0,0,1-.39-1c.83-.78,1.67-1.56,2.52-2.32a.57.57,0,1,1,.75.85c-.84.75-1.67,1.52-2.49,2.29A.54.54,0,0,1,270.1,67.33Zm179-3.75a.59.59,0,0,1-.37-.14c-.86-.74-1.72-1.48-2.59-2.19a.57.57,0,0,1-.08-.8.56.56,0,0,1,.8-.08c.88.73,1.75,1.46,2.61,2.21a.57.57,0,0,1-.37,1ZM274.3,63.52a.55.55,0,0,1-.42-.19.57.57,0,0,1,.05-.8c.86-.75,1.73-1.49,2.61-2.21a.57.57,0,1,1,.72.88c-.87.71-1.73,1.44-2.58,2.18A.54.54,0,0,1,274.3,63.52ZM444.76,60a.55.55,0,0,1-.36-.13c-.88-.7-1.78-1.4-2.68-2.08a.57.57,0,1,1,.69-.9c.91.68,1.81,1.38,2.7,2.09a.58.58,0,0,1,.09.8A.57.57,0,0,1,444.76,60Zm-166.1-.05a.56.56,0,0,1-.44-.21.58.58,0,0,1,.09-.8q1.33-1.06,2.7-2.1a.57.57,0,0,1,.79.12.56.56,0,0,1-.11.79c-.9.68-1.79,1.37-2.67,2.08A.6.6,0,0,1,278.66,59.9Zm161.58-3.4a.52.52,0,0,1-.33-.11c-.92-.66-1.84-1.32-2.77-2a.57.57,0,0,1,.65-.94c.94.65,1.87,1.31,2.79,2a.57.57,0,0,1-.34,1Zm-157.07,0a.58.58,0,0,1-.46-.23.56.56,0,0,1,.13-.79c.92-.67,1.84-1.33,2.78-2a.57.57,0,0,1,.79.15.57.57,0,0,1-.14.79c-.93.64-1.85,1.29-2.76,2A.59.59,0,0,1,283.17,56.46Zm152.41-3.21a.61.61,0,0,1-.31-.09c-.94-.63-1.89-1.25-2.85-1.85a.58.58,0,0,1-.18-.78.57.57,0,0,1,.79-.18c1,.61,1.92,1.23,2.87,1.86a.57.57,0,0,1-.32,1Zm-147.76,0a.55.55,0,0,1-.47-.25.57.57,0,0,1,.15-.79c.95-.63,1.91-1.24,2.87-1.85a.57.57,0,0,1,.6,1c-1,.6-1.9,1.21-2.84,1.84A.56.56,0,0,1,287.82,53.22Zm143-3a.6.6,0,0,1-.29-.08c-1-.59-1.94-1.16-2.93-1.73a.57.57,0,1,1,.57-1c1,.57,2,1.15,2.95,1.74a.58.58,0,0,1,.19.78A.59.59,0,0,1,430.79,50.2Zm-138.19,0a.57.57,0,0,1-.49-.27.58.58,0,0,1,.19-.78c1-.59,1.95-1.17,2.94-1.73a.57.57,0,1,1,.57,1l-2.92,1.72A.51.51,0,0,1,292.6,50.18Zm133.27-2.82a.68.68,0,0,1-.27-.07c-1-.55-2-1.08-3-1.6a.57.57,0,0,1,.52-1c1,.52,2,1.06,3,1.61a.57.57,0,0,1-.28,1.07Zm-128.37,0a.56.56,0,0,1-.5-.29.57.57,0,0,1,.22-.77c1-.55,2-1.08,3-1.61a.57.57,0,0,1,.51,1c-1,.52-2,1.05-3,1.59A.54.54,0,0,1,297.5,47.35Zm5-2.62a.56.56,0,0,1-.51-.31.58.58,0,0,1,.26-.76c1-.51,2-1,3.07-1.48a.57.57,0,0,1,.76.28.56.56,0,0,1-.28.75c-1,.48-2,1-3.05,1.46A.54.54,0,0,1,302.51,44.73Zm118.32,0a.56.56,0,0,1-.25,0c-1-.51-2-1-3.06-1.47a.57.57,0,0,1-.28-.76.57.57,0,0,1,.76-.27c1,.48,2.06,1,3.08,1.48a.56.56,0,0,1-.25,1.07Zm-113.2-2.39a.58.58,0,0,1-.52-.34.58.58,0,0,1,.29-.75c1-.46,2.08-.9,3.13-1.34A.57.57,0,0,1,311,41c-1.05.43-2.08.87-3.11,1.33A.59.59,0,0,1,307.63,42.33Zm108.05,0a.68.68,0,0,1-.23-.05c-1-.46-2.07-.9-3.12-1.34a.57.57,0,1,1,.43-1.05q1.59.66,3.15,1.35a.57.57,0,0,1-.23,1.09ZM312.86,40.14a.55.55,0,0,1-.53-.35.56.56,0,0,1,.32-.74c1.06-.42,2.12-.82,3.19-1.21a.56.56,0,0,1,.73.34.55.55,0,0,1-.34.72c-1.06.39-2.12.79-3.17,1.21A.69.69,0,0,1,312.86,40.14Zm97.57,0a.65.65,0,0,1-.2,0c-1.06-.42-2.12-.82-3.19-1.21a.56.56,0,0,1,.39-1.06c1.08.39,2.15.79,3.21,1.21a.57.57,0,0,1,.32.74A.57.57,0,0,1,410.43,40.12Zm-92.25-1.94a.57.57,0,0,1-.19-1.1c1.08-.37,2.16-.73,3.25-1.08a.57.57,0,0,1,.71.37.56.56,0,0,1-.37.71c-1.08.35-2.15.7-3.22,1.07A.57.57,0,0,1,318.18,38.18Zm86.91,0a.57.57,0,0,1-.18,0c-1.07-.37-2.15-.73-3.23-1.07a.56.56,0,0,1-.37-.71A.57.57,0,0,1,402,36c1.09.34,2.18.7,3.26,1.08a.57.57,0,0,1-.19,1.1Zm-81.51-1.7A.56.56,0,0,1,323,36a.57.57,0,0,1,.38-.71c1.09-.32,2.19-.63,3.29-.93a.57.57,0,0,1,.29,1.1c-1.09.29-2.18.6-3.26.92A.45.45,0,0,1,323.58,36.45Zm76.1,0a.41.41,0,0,1-.16,0c-1.09-.32-2.17-.63-3.27-.92a.57.57,0,1,1,.3-1.1c1.1.3,2.2.61,3.29.93a.57.57,0,0,1,.38.71A.56.56,0,0,1,399.68,36.42ZM329.05,35a.59.59,0,0,1-.55-.43.56.56,0,0,1,.41-.69c1.11-.28,2.21-.54,3.33-.79a.57.57,0,0,1,.68.43.56.56,0,0,1-.43.67c-1.11.25-2.21.51-3.3.79Zm65.15,0-.13,0q-1.65-.4-3.3-.78a.56.56,0,0,1-.43-.68A.57.57,0,0,1,391,33c1.11.25,2.22.51,3.32.79a.57.57,0,0,1-.14,1.12Zm-59.62-1.24a.57.57,0,0,1-.11-1.12c1.11-.23,2.23-.45,3.35-.65a.56.56,0,0,1,.66.46A.57.57,0,0,1,338,33c-1.11.2-2.22.41-3.32.64Zm54.09,0h-.11c-1.11-.23-2.22-.44-3.33-.64a.57.57,0,1,1,.2-1.12c1.12.2,2.24.42,3.36.65a.57.57,0,0,1,.44.67A.58.58,0,0,1,388.67,33.66Zm-48.51-1a.56.56,0,0,1-.09-1.12c1.12-.19,2.25-.35,3.38-.51a.59.59,0,0,1,.64.49.58.58,0,0,1-.49.64c-1.12.15-2.24.31-3.35.5Zm42.93,0H383c-1.11-.18-2.23-.35-3.35-.5a.57.57,0,0,1-.49-.64.55.55,0,0,1,.64-.48c1.13.15,2.26.32,3.38.5a.57.57,0,0,1,.47.65A.55.55,0,0,1,383.09,32.63Zm-37.31-.77a.57.57,0,0,1-.57-.5.58.58,0,0,1,.5-.63c1.13-.13,2.26-.25,3.4-.36a.58.58,0,0,1,.62.51.56.56,0,0,1-.51.62c-1.13.11-2.26.23-3.37.36Zm31.69,0h-.06c-1.12-.14-2.25-.25-3.37-.36a.57.57,0,0,1-.52-.61.58.58,0,0,1,.62-.52c1.14.11,2.27.23,3.4.36a.58.58,0,0,1,.5.63A.57.57,0,0,1,377.47,31.85Zm-26.05-.54a.57.57,0,0,1,0-1.13c1.14-.09,2.27-.16,3.41-.22a.56.56,0,0,1,.6.54.58.58,0,0,1-.54.6c-1.13.06-2.26.13-3.38.21Zm20.41,0h0q-1.69-.12-3.39-.21a.57.57,0,0,1-.54-.59.54.54,0,0,1,.6-.54c1.14.06,2.28.13,3.41.21a.57.57,0,0,1,0,1.14ZM357.09,31a.57.57,0,0,1,0-1.13c1.13,0,2.27-.06,3.42-.07h0a.57.57,0,0,1,.57.56.57.57,0,0,1-.56.57c-1.14,0-2.27,0-3.39.07Zm9.07,0h0c-1.12,0-2.25-.06-3.39-.07a.57.57,0,0,1-.56-.57.58.58,0,0,1,.57-.57h0c1.15,0,2.29,0,3.42.08a.57.57,0,0,1,0,1.13Z" style="fill:#ccc"/><path d="M203.05,434.17a.57.57,0,0,1,0-1.14c1.13,0,2.27,0,3.39,0h0a.57.57,0,0,1,0,1.13c-1.13,0-2.27.05-3.41.06Zm-2.27,0h0c-1.15,0-2.29,0-3.42-.08a.57.57,0,0,1,0-1.14h0c1.13,0,2.26.07,3.4.08a.57.57,0,0,1,0,1.14Zm7.94-.12a.58.58,0,0,1-.57-.55.57.57,0,0,1,.55-.59c1.13,0,2.26-.11,3.38-.18a.57.57,0,1,1,.08,1.13c-1.14.08-2.28.14-3.42.19ZM195.11,434h0q-1.71-.09-3.42-.21a.56.56,0,0,1-.52-.61.58.58,0,0,1,.61-.52c1.12.08,2.25.15,3.38.21a.57.57,0,0,1,0,1.13Zm19.27-.29a.57.57,0,0,1,0-1.13c1.13-.09,2.25-.2,3.37-.31a.58.58,0,0,1,.63.5.59.59,0,0,1-.51.63c-1.13.11-2.26.22-3.4.31Zm-24.94-.1h-.05c-1.14-.1-2.27-.22-3.4-.34a.57.57,0,0,1-.5-.63.55.55,0,0,1,.63-.5c1.12.12,2.24.24,3.37.34a.56.56,0,0,1,.52.61A.57.57,0,0,1,189.44,433.59Zm30.59-.46A.57.57,0,0,1,220,432c1.12-.14,2.24-.28,3.36-.44a.57.57,0,0,1,.64.48.56.56,0,0,1-.48.64c-1.12.16-2.25.31-3.39.44ZM183.8,433h-.07c-1.14-.14-2.26-.3-3.39-.47a.57.57,0,0,1-.48-.64.58.58,0,0,1,.65-.48c1.12.17,2.24.33,3.36.47a.56.56,0,0,1,.49.63A.57.57,0,0,1,183.8,433Zm41.84-.63a.57.57,0,0,1-.08-1.13c1.12-.18,2.23-.37,3.34-.57a.56.56,0,1,1,.2,1.11c-1.11.21-2.24.4-3.37.58Zm-47.46-.2h-.09c-1.13-.18-2.25-.39-3.37-.6a.57.57,0,0,1-.45-.66.58.58,0,0,1,.67-.46c1.1.22,2.22.42,3.33.6a.58.58,0,0,1,.47.66A.57.57,0,0,1,178.18,432.15Zm53-.8a.57.57,0,0,1-.11-1.13c1.11-.22,2.22-.45,3.32-.7a.57.57,0,0,1,.68.43.58.58,0,0,1-.43.68c-1.11.25-2.23.48-3.35.71Zm-58.63-.24-.11,0c-1.12-.23-2.23-.47-3.34-.73a.57.57,0,0,1,.25-1.11c1.1.26,2.21.5,3.32.73a.57.57,0,0,1-.12,1.13Zm64.17-1a.57.57,0,0,1-.55-.43.57.57,0,0,1,.42-.69c1.1-.26,2.2-.54,3.29-.83a.57.57,0,0,1,.29,1.1c-1.1.29-2.21.57-3.31.84Zm-69.7-.29h-.14c-1.11-.28-2.21-.57-3.31-.87a.57.57,0,1,1,.3-1.09c1.09.3,2.19.58,3.28.85a.57.57,0,0,1-.13,1.12Zm75.19-1.14a.57.57,0,0,1-.15-1.11c1.09-.31,2.17-.63,3.25-1a.57.57,0,1,1,.34,1.08c-1.09.34-2.19.66-3.28,1Zm-80.67-.33a.45.45,0,0,1-.16,0q-1.65-.48-3.27-1a.57.57,0,0,1,.34-1.08c1.08.34,2.16.67,3.25,1a.57.57,0,0,1-.16,1.12Zm86.1-1.31a.57.57,0,0,1-.17-1.11q1.6-.52,3.21-1.08a.56.56,0,0,1,.72.34.57.57,0,0,1-.34.73c-1.08.37-2.16.74-3.24,1.09A.57.57,0,0,1,247.69,427.06Zm-91.52-.39a.55.55,0,0,1-.18,0c-1.08-.36-2.16-.74-3.23-1.12a.57.57,0,0,1-.34-.73.55.55,0,0,1,.72-.34l3.21,1.11a.56.56,0,0,1-.18,1.1Zm96.88-1.47a.57.57,0,0,1-.19-1.1c1.06-.39,2.12-.79,3.17-1.21a.57.57,0,0,1,.73.32.57.57,0,0,1-.32.74c-1.06.42-2.12.82-3.19,1.22A.64.64,0,0,1,253.05,425.2Zm-102.23-.43a.69.69,0,0,1-.2,0c-1.07-.41-2.13-.82-3.18-1.25a.58.58,0,0,1-.32-.74.57.57,0,0,1,.74-.31c1,.42,2.1.84,3.16,1.23a.57.57,0,0,1,.33.74A.56.56,0,0,1,150.82,424.77Zm107.52-1.63a.59.59,0,0,1-.53-.35.58.58,0,0,1,.31-.75c1-.42,2.08-.87,3.11-1.32a.56.56,0,0,1,.75.29.58.58,0,0,1-.29.75c-1,.45-2.08.9-3.13,1.33A.63.63,0,0,1,258.34,423.14Zm-112.79-.48a.57.57,0,0,1-.22,0l-2.17-.94a.56.56,0,0,1-.29-.75.55.55,0,0,1,.74-.29l2.16.93a.58.58,0,0,1,.31.75A.59.59,0,0,1,145.55,422.66Zm118-1.78a.58.58,0,0,1-.52-.33.57.57,0,0,1,.28-.75c1-.47,2.05-1,3.06-1.45a.57.57,0,1,1,.5,1c-1,.5-2,1-3.08,1.46A.69.69,0,0,1,263.52,420.88Zm5.09-2.46a.57.57,0,0,1-.25-1.08c1-.51,2-1,3-1.56a.57.57,0,0,1,.77.23.56.56,0,0,1-.23.77c-1,.54-2,1.06-3,1.58A.58.58,0,0,1,268.61,418.42Zm5-2.66a.57.57,0,0,1-.28-1.06q1.49-.82,2.94-1.68a.57.57,0,1,1,.57,1c-1,.57-2,1.13-2.95,1.69A.58.58,0,0,1,273.61,415.76Zm4.89-2.85a.57.57,0,0,1-.3-1.05c1-.59,1.92-1.19,2.87-1.79a.57.57,0,1,1,.62.95c-1,.61-1.92,1.22-2.9,1.81A.6.6,0,0,1,278.5,412.91Zm4.78-3a.58.58,0,0,1-.32-1.05c1-.62,1.88-1.25,2.81-1.9a.56.56,0,1,1,.64.93q-1.4,1-2.82,1.92A.57.57,0,0,1,283.28,409.88Zm4.66-3.23a.56.56,0,0,1-.46-.23.55.55,0,0,1,.13-.79c.91-.67,1.82-1.34,2.72-2a.57.57,0,0,1,.69.91c-.91.69-1.83,1.36-2.75,2A.58.58,0,0,1,287.94,406.65Zm4.53-3.4A.56.56,0,0,1,292,403a.57.57,0,0,1,.1-.79c.89-.7,1.77-1.4,2.65-2.12a.58.58,0,0,1,.8.08.57.57,0,0,1-.08.8q-1.32,1.08-2.67,2.13A.57.57,0,0,1,292.47,403.25Zm4.4-3.57a.57.57,0,0,1-.43-.2.58.58,0,0,1,.06-.8c.87-.73,1.72-1.47,2.57-2.22a.57.57,0,1,1,.75.85c-.85.76-1.71,1.5-2.58,2.24A.58.58,0,0,1,296.87,399.68Zm4.26-3.74a.55.55,0,0,1-.42-.19.57.57,0,0,1,0-.8c.83-.76,1.66-1.53,2.48-2.31a.57.57,0,1,1,.78.82c-.82.79-1.65,1.56-2.5,2.33A.54.54,0,0,1,301.13,395.94Zm4.12-3.91a.56.56,0,0,1-.4-1c.8-.79,1.6-1.59,2.38-2.41a.58.58,0,0,1,.81,0,.57.57,0,0,1,0,.8c-.79.82-1.6,1.63-2.41,2.43A.54.54,0,0,1,305.25,392Zm4-4.06a.58.58,0,0,1-.39-.15.57.57,0,0,1,0-.8c.78-.83,1.54-1.66,2.3-2.5a.57.57,0,1,1,.84.76c-.76.84-1.53,1.68-2.31,2.51A.55.55,0,0,1,309.21,388Zm3.8-4.21a.54.54,0,0,1-.37-.14.57.57,0,0,1-.06-.8c.74-.85,1.48-1.71,2.2-2.58a.56.56,0,1,1,.87.72c-.73.88-1.46,1.75-2.21,2.61A.56.56,0,0,1,313,383.76Zm3.64-4.35a.55.55,0,0,1-.36-.13.56.56,0,0,1-.08-.79l2.09-2.67a.57.57,0,0,1,.8-.11.56.56,0,0,1,.1.79c-.69.91-1.39,1.81-2.11,2.7A.55.55,0,0,1,316.65,379.41Zm3.47-4.5a.53.53,0,0,1-.34-.11.57.57,0,0,1-.12-.79c.68-.91,1.34-1.83,2-2.75a.57.57,0,0,1,.93.65c-.66.93-1.33,1.86-2,2.77A.59.59,0,0,1,320.12,374.91Zm3.29-4.62a.63.63,0,0,1-.32-.1.56.56,0,0,1-.14-.79c.63-.94,1.26-1.88,1.88-2.83a.57.57,0,0,1,.95.62c-.62,1-1.25,1.91-1.9,2.85A.57.57,0,0,1,323.41,370.29Zm3.12-4.75a.53.53,0,0,1-.3-.09.56.56,0,0,1-.18-.78c.6-1,1.19-1.93,1.77-2.9a.57.57,0,1,1,1,.58c-.58,1-1.18,1.95-1.78,2.92A.57.57,0,0,1,326.53,365.54ZM77.61,364.11a.57.57,0,0,1-.48-.27c-.6-1-1.18-1.95-1.75-2.94a.55.55,0,0,1,.21-.77.57.57,0,0,1,.77.2c.57,1,1.15,1.95,1.74,2.92a.57.57,0,0,1-.19.78A.64.64,0,0,1,77.61,364.11Zm251.84-3.45a.56.56,0,0,1-.49-.85c.57-1,1.12-2,1.66-3a.57.57,0,0,1,.77-.23.57.57,0,0,1,.23.77c-.55,1-1.1,2-1.67,3A.58.58,0,0,1,329.45,360.66Zm-254.7-1.44a.58.58,0,0,1-.5-.29c-.55-1-1.1-2-1.63-3a.56.56,0,0,1,.23-.76.57.57,0,0,1,.77.23c.53,1,1.07,2,1.62,3a.56.56,0,0,1-.22.77A.53.53,0,0,1,74.75,359.22Zm257.44-3.54a.58.58,0,0,1-.26-.06.57.57,0,0,1-.24-.77c.52-1,1-2,1.54-3a.57.57,0,0,1,1,.51c-.51,1-1,2-1.56,3.05A.56.56,0,0,1,332.19,355.68ZM72.07,354.21a.56.56,0,0,1-.5-.31c-.52-1-1-2-1.52-3.06a.57.57,0,1,1,1-.49c.49,1,1,2,1.51,3a.56.56,0,0,1-.25.76A.58.58,0,0,1,72.07,354.21Zm262.66-3.61a.53.53,0,0,1-.24-.06.56.56,0,0,1-.27-.75c.48-1,1-2.06,1.42-3.09a.57.57,0,1,1,1,.46c-.47,1-.95,2.08-1.43,3.11A.58.58,0,0,1,334.73,350.6ZM69.59,349.11a.56.56,0,0,1-.51-.33c-.48-1-.94-2.07-1.4-3.12a.57.57,0,0,1,1-.45c.45,1,.92,2.07,1.39,3.1a.56.56,0,0,1-.28.75A.49.49,0,0,1,69.59,349.11Zm267.48-3.7a.44.44,0,0,1-.22-.05.56.56,0,0,1-.3-.74c.45-1,.88-2.09,1.31-3.14a.56.56,0,0,1,.73-.32.57.57,0,0,1,.32.74c-.43,1.06-.86,2.12-1.31,3.17A.59.59,0,0,1,337.07,345.41ZM67.32,343.92a.57.57,0,0,1-.53-.35c-.43-1.05-.86-2.11-1.27-3.17a.57.57,0,1,1,1.06-.41c.41,1.05.83,2.1,1.26,3.14a.58.58,0,0,1-.3.75A.93.93,0,0,1,67.32,343.92Zm271.89-3.78a.79.79,0,0,1-.2,0,.57.57,0,0,1-.33-.73c.41-1.06.8-2.12,1.18-3.2a.58.58,0,0,1,.73-.34.57.57,0,0,1,.34.73c-.38,1.07-.78,2.15-1.19,3.21A.56.56,0,0,1,339.21,340.14Zm-274-1.5a.58.58,0,0,1-.54-.37c-.39-1.07-.77-2.14-1.14-3.22a.55.55,0,0,1,.35-.72.57.57,0,0,1,.72.35c.37,1.07.75,2.14,1.14,3.2a.55.55,0,0,1-.34.72A.43.43,0,0,1,65.25,338.64Zm275.89-3.86-.18,0a.55.55,0,0,1-.35-.72c.36-1.07.71-2.15,1.05-3.23a.56.56,0,1,1,1.08.33c-.34,1.1-.69,2.18-1.06,3.27A.57.57,0,0,1,341.14,334.78ZM63.38,333.29a.58.58,0,0,1-.54-.4c-.35-1.08-.69-2.16-1-3.26a.56.56,0,0,1,.38-.7.57.57,0,0,1,.71.38c.32,1.08.66,2.16,1,3.23a.57.57,0,0,1-.36.72Zm279.48-3.93-.16,0a.57.57,0,0,1-.38-.71c.32-1.08.62-2.17.92-3.26a.57.57,0,1,1,1.09.3c-.29,1.1-.6,2.19-.93,3.28A.56.56,0,0,1,342.86,329.36Zm-281.13-1.5a.57.57,0,0,1-.55-.41c-.31-1.1-.61-2.19-.89-3.3a.56.56,0,0,1,.41-.69.57.57,0,0,1,.69.41c.28,1.09.58,2.18.88,3.27a.57.57,0,0,1-.39.7Zm282.63-4-.14,0a.57.57,0,0,1-.41-.69c.28-1.09.54-2.19.79-3.29a.58.58,0,0,1,.68-.43.56.56,0,0,1,.43.68c-.25,1.11-.52,2.22-.8,3.32A.57.57,0,0,1,344.36,323.89ZM60.29,322.38a.56.56,0,0,1-.55-.43c-.27-1.11-.53-2.22-.77-3.33a.57.57,0,1,1,1.11-.24c.24,1.1.49,2.2.76,3.3a.56.56,0,0,1-.42.68A.3.3,0,0,1,60.29,322.38Zm285.36-4h-.12a.57.57,0,0,1-.44-.67c.24-1.11.46-2.21.67-3.33a.57.57,0,0,1,.66-.45.56.56,0,0,1,.45.66c-.21,1.12-.43,2.24-.67,3.35A.56.56,0,0,1,345.65,318.36ZM59.06,316.85a.57.57,0,0,1-.55-.46c-.23-1.11-.44-2.23-.64-3.36a.56.56,0,0,1,.46-.65.57.57,0,0,1,.66.46q.3,1.67.63,3.33a.57.57,0,0,1-.45.66Zm287.66-4.06h-.1a.55.55,0,0,1-.46-.65c.19-1.11.37-2.23.53-3.35a.57.57,0,1,1,1.12.17c-.16,1.13-.34,2.25-.54,3.37A.55.55,0,0,1,346.72,312.79ZM58.05,311.27a.58.58,0,0,1-.56-.48c-.18-1.12-.34-2.25-.5-3.38a.58.58,0,0,1,.49-.64.59.59,0,0,1,.64.49c.15,1.12.32,2.24.5,3.35a.58.58,0,0,1-.48.65Zm289.52-4.09h-.08a.57.57,0,0,1-.49-.64c.15-1.12.29-2.24.41-3.37a.57.57,0,1,1,1.13.13c-.13,1.13-.26,2.26-.41,3.39A.56.56,0,0,1,347.57,307.18ZM57.26,305.66a.56.56,0,0,1-.56-.5c-.14-1.13-.26-2.26-.37-3.4a.56.56,0,1,1,1.12-.11c.12,1.13.24,2.25.38,3.37a.57.57,0,0,1-.5.63Zm290.94-4.12h-.05a.57.57,0,0,1-.52-.62c.11-1.12.2-2.24.28-3.37a.57.57,0,1,1,1.13.07c-.08,1.14-.17,2.28-.27,3.41A.57.57,0,0,1,348.2,301.54ZM56.69,300a.57.57,0,0,1-.57-.52c-.09-1.13-.17-2.27-.24-3.41a.55.55,0,0,1,.53-.59.57.57,0,0,1,.6.53c.07,1.13.15,2.25.24,3.38a.56.56,0,0,1-.52.61Zm291.93-4.13h0a.57.57,0,0,1-.53-.6c.06-1.13.11-2.26.14-3.39a.56.56,0,0,1,.59-.55.57.57,0,0,1,.55.59c0,1.14-.09,2.28-.15,3.41A.56.56,0,0,1,348.62,295.89ZM56.33,294.37a.58.58,0,0,1-.57-.55c0-1.13-.08-2.27-.11-3.41a.58.58,0,0,1,.56-.58.59.59,0,0,1,.58.56c0,1.13.06,2.26.11,3.38a.58.58,0,0,1-.54.6Zm292.49-4.15h0a.57.57,0,0,1-.56-.58c0-.79,0-1.58,0-2.37v-1a.56.56,0,0,1,.57-.57h0a.57.57,0,0,1,.57.56v1c0,.8,0,1.6,0,2.39A.57.57,0,0,1,348.82,290.22ZM56.19,288.7a.57.57,0,0,1-.57-.56v-.87c0-.85,0-1.7,0-2.55a.54.54,0,0,1,.58-.56.58.58,0,0,1,.56.58c0,.84,0,1.69,0,2.53v.86a.57.57,0,0,1-.57.57Zm292.61-4.16a.57.57,0,0,1-.57-.55c0-1.13-.06-2.26-.11-3.39a.56.56,0,0,1,.54-.59h0a.56.56,0,0,1,.57.54c.05,1.13.09,2.27.12,3.41a.57.57,0,0,1-.56.58ZM56.27,283h0a.57.57,0,0,1-.55-.59c0-1.14.09-2.28.15-3.41a.57.57,0,1,1,1.13.06q-.09,1.7-.15,3.39A.56.56,0,0,1,56.27,283Zm292.29-4.15a.58.58,0,0,1-.56-.54c-.07-1.13-.15-2.26-.25-3.38a.57.57,0,1,1,1.13-.09c.1,1.13.18,2.26.25,3.4a.57.57,0,0,1-.53.61Zm-292-1.52h0a.57.57,0,0,1-.53-.61c.08-1.14.18-2.27.28-3.4a.57.57,0,0,1,1.13.1c-.1,1.13-.2,2.25-.28,3.38A.57.57,0,0,1,56.56,277.36Zm291.55-4.14a.56.56,0,0,1-.56-.51c-.11-1.13-.24-2.25-.38-3.37a.57.57,0,0,1,1.13-.14c.14,1.13.26,2.26.38,3.4a.57.57,0,0,1-.51.62Zm-291-1.51H57a.58.58,0,0,1-.51-.63c.13-1.13.26-2.26.42-3.39a.57.57,0,1,1,1.12.15c-.15,1.12-.29,2.24-.41,3.37A.56.56,0,0,1,57.07,271.71Zm290.37-4.12a.57.57,0,0,1-.56-.49c-.15-1.12-.32-2.24-.5-3.36a.57.57,0,0,1,.47-.65.58.58,0,0,1,.65.47c.18,1.12.35,2.25.51,3.38a.57.57,0,0,1-.49.64ZM57.8,266.08h-.09a.58.58,0,0,1-.48-.65c.17-1.13.35-2.25.55-3.37a.56.56,0,0,1,.65-.46.57.57,0,0,1,.47.65c-.2,1.11-.38,2.23-.54,3.35A.58.58,0,0,1,57.8,266.08ZM346.56,262a.57.57,0,0,1-.56-.46c-.2-1.12-.41-2.23-.64-3.34a.57.57,0,0,1,.45-.66.57.57,0,0,1,.67.44c.22,1.11.43,2.23.64,3.36a.57.57,0,0,1-.46.65ZM58.74,260.49h-.11a.57.57,0,0,1-.45-.66c.21-1.12.44-2.24.68-3.35a.57.57,0,0,1,.67-.44.58.58,0,0,1,.44.68c-.24,1.1-.46,2.21-.67,3.32A.57.57,0,0,1,58.74,260.49Zm286.71-4.07a.56.56,0,0,1-.55-.45c-.25-1.1-.5-2.2-.77-3.3a.57.57,0,1,1,1.11-.27c.26,1.11.52,2.22.77,3.33a.58.58,0,0,1-.44.68ZM59.9,254.94l-.12,0a.56.56,0,0,1-.43-.68c.26-1.11.53-2.22.81-3.32a.56.56,0,1,1,1.09.28c-.27,1.1-.54,2.19-.79,3.3A.58.58,0,0,1,59.9,254.94Zm284.23-4a.58.58,0,0,1-.55-.42c-.28-1.1-.58-2.19-.89-3.27a.58.58,0,0,1,.39-.71.56.56,0,0,1,.7.4c.31,1.09.61,2.19.9,3.29a.55.55,0,0,1-.41.69A.32.32,0,0,1,344.13,250.9ZM61.28,249.43a.39.39,0,0,1-.15,0,.57.57,0,0,1-.4-.69c.3-1.1.61-2.2.94-3.29a.56.56,0,0,1,1.08.32c-.32,1.08-.62,2.17-.92,3.26A.56.56,0,0,1,61.28,249.43Zm281.32-4a.58.58,0,0,1-.55-.4c-.33-1.09-.67-2.16-1-3.24a.57.57,0,0,1,1.08-.35c.36,1.08.7,2.17,1,3.26a.57.57,0,0,1-.38.71ZM62.87,244l-.17,0a.57.57,0,0,1-.37-.71c.35-1.09.7-2.18,1.07-3.26a.55.55,0,0,1,.72-.35.57.57,0,0,1,.35.72c-.36,1.07-.71,2.15-1.06,3.23A.56.56,0,0,1,62.87,244Zm278-4a.57.57,0,0,1-.54-.38c-.37-1.07-.75-2.13-1.14-3.19a.57.57,0,0,1,1.06-.4c.4,1.07.78,2.14,1.15,3.22a.56.56,0,0,1-.35.72A.57.57,0,0,1,340.85,240ZM64.68,238.59l-.19,0a.57.57,0,0,1-.34-.73c.39-1.08.78-2.15,1.19-3.21a.57.57,0,0,1,.73-.33.56.56,0,0,1,.33.73c-.4,1.06-.8,2.12-1.18,3.19A.56.56,0,0,1,64.68,238.59Zm274.21-3.87a.57.57,0,0,1-.53-.36c-.41-1.06-.83-2.1-1.26-3.14a.57.57,0,0,1,.3-.74.58.58,0,0,1,.75.31c.43,1,.86,2.09,1.27,3.15a.58.58,0,0,1-.32.74A.78.78,0,0,1,338.89,234.72ZM66.7,233.27a.78.78,0,0,1-.21,0,.57.57,0,0,1-.31-.74c.43-1.06.86-2.12,1.32-3.17a.57.57,0,0,1,1,.45c-.45,1-.89,2.09-1.31,3.14A.57.57,0,0,1,66.7,233.27Zm270-3.78a.55.55,0,0,1-.52-.34c-.45-1-.92-2.06-1.39-3.08a.57.57,0,0,1,1-.48c.48,1,.94,2.07,1.4,3.11a.58.58,0,0,1-.3.75A.57.57,0,0,1,336.74,229.49ZM68.93,228a.46.46,0,0,1-.23-.05.57.57,0,0,1-.29-.75c.47-1,1-2.08,1.44-3.11a.57.57,0,0,1,1,.49c-.49,1-1,2-1.43,3.09A.56.56,0,0,1,68.93,228Zm265.45-3.68a.57.57,0,0,1-.51-.32c-.49-1-1-2-1.51-3a.57.57,0,1,1,1-.51c.52,1,1,2,1.52,3a.56.56,0,0,1-.27.76A.64.64,0,0,1,334.38,224.35Zm-263-1.46a.54.54,0,0,1-.25-.06.57.57,0,0,1-.26-.76c.51-1,1-2,1.56-3a.56.56,0,0,1,.76-.24.57.57,0,0,1,.24.77c-.52,1-1,2-1.54,3A.57.57,0,0,1,71.36,222.89Zm260.47-3.58a.56.56,0,0,1-.51-.31c-.53-1-1.07-2-1.62-3a.58.58,0,0,1,.22-.78.57.57,0,0,1,.77.22c.56,1,1.1,2,1.64,3a.58.58,0,0,1-.24.77A.63.63,0,0,1,331.83,219.31ZM74,217.85a.68.68,0,0,1-.27-.07.57.57,0,0,1-.22-.77c.54-1,1.1-2,1.67-3a.57.57,0,0,1,1,.57c-.57,1-1.12,2-1.67,3A.56.56,0,0,1,74,217.85Zm255.09-3.49a.58.58,0,0,1-.49-.28c-.57-1-1.14-2-1.73-2.91a.56.56,0,1,1,1-.59c.6,1,1.18,1.94,1.75,2.93a.56.56,0,0,1-.2.77A.51.51,0,0,1,329.07,214.36ZM76.8,212.91a.51.51,0,0,1-.29-.08.57.57,0,0,1-.19-.78c.58-1,1.18-2,1.79-2.92a.56.56,0,0,1,.78-.17.57.57,0,0,1,.18.78c-.61,1-1.2,1.92-1.78,2.89A.57.57,0,0,1,76.8,212.91Zm249.33-3.39a.56.56,0,0,1-.48-.26c-.6-.95-1.22-1.9-1.85-2.84a.57.57,0,0,1,.95-.63c.63,1,1.25,1.9,1.86,2.86a.56.56,0,0,1-.18.78A.53.53,0,0,1,326.13,209.52ZM79.81,208.09a.59.59,0,0,1-.31-.09.56.56,0,0,1-.16-.79c.62-1,1.25-1.9,1.9-2.84a.56.56,0,0,1,.79-.15.57.57,0,0,1,.14.79c-.64.93-1.27,1.87-1.88,2.82A.56.56,0,0,1,79.81,208.09ZM323,204.8a.55.55,0,0,1-.46-.24c-.65-.93-1.3-1.85-2-2.77a.57.57,0,0,1,.92-.66c.67.92,1.32,1.84,2,2.78a.57.57,0,0,1-.14.79A.56.56,0,0,1,323,204.8ZM83,203.39a.55.55,0,0,1-.32-.1.57.57,0,0,1-.14-.79c.66-.93,1.33-1.86,2-2.77a.56.56,0,0,1,.79-.12.57.57,0,0,1,.12.8c-.67.9-1.34,1.82-2,2.74A.57.57,0,0,1,83,203.39Zm236.7-3.19a.56.56,0,0,1-.46-.23c-.67-.9-1.36-1.8-2.06-2.68a.57.57,0,0,1,.1-.8.56.56,0,0,1,.79.1c.71.89,1.4,1.79,2.08,2.7a.57.57,0,0,1-.11.8A.55.55,0,0,1,319.7,200.2ZM86.37,198.82a.6.6,0,0,1-.34-.11.57.57,0,0,1-.11-.8c.7-.91,1.4-1.8,2.12-2.69a.57.57,0,1,1,.88.71q-1.07,1.32-2.1,2.67A.55.55,0,0,1,86.37,198.82Zm229.84-3.09a.56.56,0,0,1-.44-.21c-.71-.87-1.43-1.74-2.16-2.6a.57.57,0,0,1,.86-.74c.74.87,1.47,1.74,2.18,2.63a.57.57,0,0,1-.08.8A.6.6,0,0,1,316.21,195.73ZM89.92,194.39a.64.64,0,0,1-.37-.13.57.57,0,0,1-.07-.8q1.09-1.32,2.22-2.61a.57.57,0,0,1,.85.75c-.74.85-1.47,1.71-2.2,2.58A.54.54,0,0,1,89.92,194.39Zm222.64-3a.59.59,0,0,1-.43-.19c-.75-.85-1.5-1.69-2.27-2.53a.57.57,0,1,1,.84-.76c.77.83,1.53,1.68,2.28,2.54a.57.57,0,0,1-.05.8A.59.59,0,0,1,312.56,191.4ZM93.63,190.09a.59.59,0,0,1-.38-.14.57.57,0,0,1,0-.8c.77-.85,1.54-1.69,2.32-2.52a.57.57,0,0,1,.82.78c-.77.82-1.54,1.65-2.29,2.49A.55.55,0,0,1,93.63,190.09Zm215.1-2.88a.55.55,0,0,1-.41-.18c-.78-.82-1.56-1.63-2.36-2.43a.56.56,0,0,1,0-.8.55.55,0,0,1,.8,0c.8.81,1.59,1.62,2.38,2.45a.57.57,0,0,1,0,.8A.53.53,0,0,1,308.73,187.21ZM97.5,186a.61.61,0,0,1-.4-.16.58.58,0,0,1,0-.81c.8-.81,1.6-1.62,2.41-2.42a.57.57,0,0,1,.8,0,.58.58,0,0,1,0,.81c-.81.79-1.61,1.59-2.39,2.4A.55.55,0,0,1,97.5,186Zm207.25-2.78a.59.59,0,0,1-.39-.16c-.81-.79-1.63-1.57-2.45-2.34a.57.57,0,0,1,.77-.84c.83.78,1.66,1.57,2.47,2.37a.56.56,0,0,1,0,.8A.58.58,0,0,1,304.75,183.17ZM101.53,182a.58.58,0,0,1-.41-.17.57.57,0,0,1,0-.81c.82-.78,1.65-1.56,2.49-2.33a.58.58,0,0,1,.81,0,.57.57,0,0,1,0,.8c-.84.76-1.66,1.53-2.48,2.31A.54.54,0,0,1,101.53,182Zm199.09-2.67a.54.54,0,0,1-.38-.14c-.84-.76-1.69-1.51-2.54-2.25a.56.56,0,0,1-.06-.8.57.57,0,0,1,.8-.06c.86.75,1.72,1.5,2.56,2.26a.57.57,0,0,1-.38,1ZM105.7,178.12a.59.59,0,0,1-.42-.19.57.57,0,0,1,0-.81c.85-.75,1.71-1.49,2.59-2.22a.55.55,0,0,1,.79.06.56.56,0,0,1-.06.8c-.87.73-1.72,1.47-2.57,2.22A.59.59,0,0,1,105.7,178.12Zm190.64-2.56a.64.64,0,0,1-.37-.13c-.86-.73-1.74-1.45-2.62-2.15a.56.56,0,0,1-.09-.8.57.57,0,0,1,.79-.09c.9.71,1.78,1.43,2.65,2.16a.57.57,0,0,1,.07.8A.54.54,0,0,1,296.34,175.56ZM110,174.45a.55.55,0,0,1-.44-.21.56.56,0,0,1,.08-.8q1.32-1.08,2.67-2.13a.57.57,0,0,1,.79.1.56.56,0,0,1-.1.8c-.89.69-1.77,1.4-2.65,2.11A.53.53,0,0,1,110,174.45ZM291.91,172a.54.54,0,0,1-.34-.12c-.9-.69-1.8-1.37-2.71-2a.57.57,0,0,1,.67-.92c.92.68,1.83,1.37,2.73,2.06a.56.56,0,0,1,.1.8A.55.55,0,0,1,291.91,172ZM114.48,171a.57.57,0,0,1-.34-1c.91-.69,1.83-1.36,2.75-2a.57.57,0,0,1,.66.93c-.91.65-1.82,1.32-2.72,2A.59.59,0,0,1,114.48,171Zm172.88-2.33a.57.57,0,0,1-.33-.11c-.92-.66-1.85-1.3-2.79-1.94a.56.56,0,0,1-.15-.79.57.57,0,0,1,.79-.15c.94.64,1.88,1.29,2.81,2a.57.57,0,0,1,.13.79A.59.59,0,0,1,287.36,168.62Zm-168.29-1a.55.55,0,0,1-.46-.24.56.56,0,0,1,.14-.79c.93-.65,1.87-1.29,2.82-1.91a.56.56,0,0,1,.79.15.57.57,0,0,1-.16.79c-.94.63-1.88,1.26-2.8,1.9A.56.56,0,0,1,119.07,167.62Zm163.6-2.21a.56.56,0,0,1-.31-.09c-.95-.63-1.9-1.24-2.86-1.83a.58.58,0,0,1-.19-.79.59.59,0,0,1,.79-.18c1,.61,1.93,1.22,2.88,1.85a.57.57,0,0,1-.31,1Zm-158.88-.93a.56.56,0,0,1-.31-1c1-.62,1.92-1.22,2.89-1.81a.57.57,0,0,1,.78.19.56.56,0,0,1-.19.78c-1,.59-1.92,1.18-2.87,1.79A.55.55,0,0,1,123.79,164.48Zm154.07-2.1a.51.51,0,0,1-.29-.08q-1.45-.87-2.94-1.71a.58.58,0,0,1-.21-.78.57.57,0,0,1,.78-.21c1,.57,2,1.14,2.95,1.73a.56.56,0,0,1,.19.78A.54.54,0,0,1,277.86,162.38Zm-149.25-.85a.6.6,0,0,1-.49-.28.57.57,0,0,1,.2-.78c1-.58,2-1.14,3-1.69a.56.56,0,0,1,.77.22.57.57,0,0,1-.22.77q-1.49.82-2.94,1.68A.6.6,0,0,1,128.61,161.53Zm144.32-2a.54.54,0,0,1-.27-.07c-1-.55-2-1.08-3-1.6a.58.58,0,0,1-.24-.77.57.57,0,0,1,.77-.24c1,.53,2,1.06,3,1.61a.57.57,0,0,1-.28,1.07Zm-139.38-.79a.57.57,0,0,1-.27-1.07c1-.54,2-1.06,3-1.57a.57.57,0,1,1,.52,1q-1.51.76-3,1.56A.54.54,0,0,1,133.55,158.76Zm134.35-1.85a.58.58,0,0,1-.26-.06c-1-.51-2-1-3.05-1.49a.56.56,0,0,1-.28-.75.58.58,0,0,1,.76-.28c1,.49,2.06,1,3.08,1.5a.57.57,0,0,1-.25,1.08Zm-129.31-.73a.55.55,0,0,1-.51-.31.56.56,0,0,1,.26-.76c1-.5,2-1,3.08-1.46a.57.57,0,0,1,.75.28.56.56,0,0,1-.28.75c-1,.47-2,1-3.06,1.45A.52.52,0,0,1,138.59,156.18Zm124.17-1.72a.5.5,0,0,1-.23-.05c-1-.47-2.07-.92-3.11-1.36a.57.57,0,0,1-.3-.75.56.56,0,0,1,.74-.3c1.05.45,2.1.91,3.14,1.38a.56.56,0,0,1,.28.75A.56.56,0,0,1,262.76,154.46Zm-119-.65a.57.57,0,0,1-.23-1.09c1-.45,2.08-.9,3.13-1.33a.58.58,0,0,1,.75.31.57.57,0,0,1-.31.74c-1,.43-2.08.87-3.11,1.32A.64.64,0,0,1,143.72,153.81Zm113.81-1.59a.78.78,0,0,1-.21,0c-1.05-.43-2.1-.84-3.17-1.25a.56.56,0,0,1-.32-.73.57.57,0,0,1,.73-.33l3.19,1.25a.57.57,0,0,1,.31.74A.57.57,0,0,1,257.53,152.22ZM149,151.63a.56.56,0,0,1-.21-1.09c1.06-.42,2.12-.82,3.19-1.21a.56.56,0,1,1,.39,1.06c-1.06.39-2.12.79-3.17,1.21A.64.64,0,0,1,149,151.63Zm103.27-1.45a.63.63,0,0,1-.19,0c-1.07-.39-2.14-.76-3.22-1.12a.57.57,0,0,1-.35-.72.55.55,0,0,1,.71-.36c1.09.36,2.17.74,3.24,1.13a.57.57,0,0,1-.19,1.1Zm-98-.52a.57.57,0,0,1-.53-.38.56.56,0,0,1,.35-.72c1.07-.38,2.15-.74,3.24-1.09a.56.56,0,0,1,.71.36.58.58,0,0,1-.36.72c-1.08.35-2.15.71-3.22,1.08A.58.58,0,0,1,154.26,149.66Zm92.57-1.31-.17,0c-1.08-.35-2.16-.68-3.25-1a.57.57,0,0,1-.38-.71.56.56,0,0,1,.7-.38q1.64.48,3.27,1a.58.58,0,0,1,.37.72A.57.57,0,0,1,246.83,148.35Zm-87.17-.45a.58.58,0,0,1-.55-.41.56.56,0,0,1,.38-.7c1.09-.34,2.18-.66,3.28-1a.57.57,0,0,1,.31,1.1c-1.09.3-2.18.62-3.26,1A.45.45,0,0,1,159.66,147.9Zm81.73-1.16-.15,0c-1.09-.3-2.18-.59-3.28-.86a.57.57,0,1,1,.27-1.1c1.11.28,2.21.56,3.31.87a.55.55,0,0,1,.39.69A.54.54,0,0,1,241.39,146.74Zm-76.28-.4a.56.56,0,0,1-.54-.42.57.57,0,0,1,.4-.69c1.1-.29,2.2-.57,3.31-.84a.57.57,0,1,1,.27,1.11c-1.1.26-2.2.54-3.29.82A.39.39,0,0,1,165.11,146.34Zm70.78-1h-.13c-1.1-.26-2.2-.5-3.31-.73a.57.57,0,0,1-.44-.67.56.56,0,0,1,.67-.44c1.12.23,2.23.48,3.34.73a.58.58,0,0,1,.42.69A.56.56,0,0,1,235.89,145.34ZM170.63,145a.57.57,0,0,1-.13-1.12c1.11-.25,2.23-.48,3.35-.7a.57.57,0,0,1,.22,1.11c-1.11.22-2.22.45-3.32.7Zm59.71-.84h-.11c-1.11-.21-2.22-.41-3.34-.6a.56.56,0,0,1-.46-.65.57.57,0,0,1,.65-.47c1.13.19,2.25.39,3.37.61a.56.56,0,0,1-.11,1.12Zm-54.15-.28a.57.57,0,0,1-.56-.46.58.58,0,0,1,.46-.67c1.11-.2,2.24-.39,3.36-.57a.57.57,0,0,1,.65.48.56.56,0,0,1-.47.64c-1.12.18-2.23.37-3.34.57Zm48.56-.68h-.09c-1.11-.17-2.23-.32-3.35-.47a.57.57,0,0,1,.14-1.13c1.13.15,2.26.31,3.38.48a.57.57,0,0,1,.48.65A.56.56,0,0,1,224.75,143.2Zm-43-.22a.57.57,0,0,1-.56-.49.56.56,0,0,1,.48-.64c1.12-.16,2.25-.31,3.39-.44a.56.56,0,0,1,.63.49.57.57,0,0,1-.5.63c-1.13.14-2.25.28-3.36.44Zm37.33-.53h-.06c-1.12-.13-2.25-.24-3.37-.34a.57.57,0,0,1-.52-.62.59.59,0,0,1,.62-.51c1.13.1,2.27.21,3.4.34a.58.58,0,0,1,.5.63A.57.57,0,0,1,219.12,142.45Zm-31.7-.16a.56.56,0,0,1-.56-.51.56.56,0,0,1,.5-.62c1.13-.12,2.27-.22,3.41-.31a.57.57,0,0,1,.61.52.58.58,0,0,1-.52.61c-1.14.09-2.26.19-3.38.31Zm26.06-.37h0c-1.12-.08-2.25-.15-3.38-.21a.57.57,0,1,1,.06-1.13c1.14.06,2.27.13,3.41.21a.57.57,0,0,1,.52.61A.56.56,0,0,1,213.48,141.92Zm-20.41-.1a.57.57,0,0,1,0-1.14c1.13-.07,2.27-.13,3.41-.17a.57.57,0,1,1,.05,1.13c-1.14.05-2.26.11-3.39.18Zm14.74-.21h0c-1.14,0-2.27-.06-3.4-.08a.57.57,0,1,1,0-1.13h0c1.15,0,2.29,0,3.42.08a.57.57,0,0,1,.55.59A.56.56,0,0,1,207.81,141.61Zm-9.07,0a.57.57,0,0,1-.57-.56.57.57,0,0,1,.55-.58c1.14,0,2.28,0,3.42-.05h0a.58.58,0,0,1,.57.57.58.58,0,0,1-.57.57c-1.13,0-2.26,0-3.39,0Z" style="fill:#f94f24"/><path d="M578.71,443a.57.57,0,1,1,0-1.13l3.4-.05h0a.57.57,0,0,1,.57.55.58.58,0,0,1-.56.58c-1.13,0-2.27,0-3.41.05Zm-2.27,0h0c-1.14,0-2.27,0-3.41-.06a.57.57,0,1,1,0-1.13c1.13,0,2.26,0,3.39.05a.57.57,0,0,1,0,1.14Zm7.93-.12a.57.57,0,0,1,0-1.13l3.39-.15a.57.57,0,0,1,.06,1.13c-1.13.06-2.27.11-3.41.15Zm-13.6,0h0c-1.14,0-2.27-.1-3.41-.16a.57.57,0,0,1-.53-.6.58.58,0,0,1,.6-.54c1.12.07,2.26.12,3.39.16a.57.57,0,0,1,.54.59A.56.56,0,0,1,570.77,442.87Zm19.26-.28a.57.57,0,0,1,0-1.13c1.13-.08,2.26-.16,3.38-.26a.58.58,0,0,1,.61.52.56.56,0,0,1-.51.61c-1.14.1-2.27.19-3.4.26Zm-24.93,0h0c-1.14-.08-2.27-.17-3.4-.27a.57.57,0,0,1-.52-.62.58.58,0,0,1,.62-.51c1.12.1,2.25.19,3.38.26a.58.58,0,0,1,.53.61A.57.57,0,0,1,565.1,442.57Zm30.57-.44a.57.57,0,0,1,0-1.13c1.12-.11,2.25-.23,3.36-.37a.57.57,0,0,1,.63.5.56.56,0,0,1-.49.63c-1.13.13-2.26.26-3.39.37Zm-36.22,0h-.06c-1.14-.11-2.27-.23-3.4-.37a.56.56,0,0,1-.49-.63.58.58,0,0,1,.63-.5c1.12.14,2.25.26,3.37.38a.57.57,0,0,1,0,1.13Zm41.85-.6a.57.57,0,0,1-.07-1.13c1.12-.15,2.24-.3,3.35-.47a.58.58,0,0,1,.65.48.57.57,0,0,1-.48.64c-1.12.17-2.25.33-3.38.47Zm-47.49-.06h-.07c-1.13-.15-2.26-.31-3.38-.48a.57.57,0,0,1-.48-.65.57.57,0,0,1,.65-.47c1.11.17,2.23.32,3.35.47a.57.57,0,0,1-.07,1.13Zm53.09-.76a.57.57,0,0,1-.09-1.13c1.12-.18,2.24-.37,3.35-.57a.57.57,0,0,1,.2,1.12l-3.36.58Zm-58.7-.07h-.09c-1.13-.18-2.25-.38-3.37-.58a.57.57,0,0,1,.21-1.12c1.11.21,2.22.4,3.34.58a.57.57,0,0,1-.09,1.13Zm64.28-.92a.56.56,0,0,1-.1-1.12l3.32-.68a.57.57,0,0,1,.23,1.11c-1.11.24-2.22.46-3.34.68Zm-69.86-.08-.11,0c-1.12-.21-2.24-.44-3.35-.68a.57.57,0,0,1-.43-.68.55.55,0,0,1,.67-.43l3.33.68a.57.57,0,0,1-.11,1.13ZM618,438.51a.57.57,0,0,1-.13-1.12l3.3-.78a.57.57,0,0,1,.69.42.56.56,0,0,1-.42.68c-1.1.28-2.21.54-3.32.79Zm-81-.1h-.13c-1.11-.26-2.22-.52-3.32-.8a.57.57,0,1,1,.27-1.1c1.1.28,2.2.54,3.3.79a.57.57,0,0,1,.43.68A.56.56,0,0,1,537.07,438.41Zm86.46-1.24a.56.56,0,0,1-.14-1.11c1.1-.29,2.19-.58,3.27-.89a.57.57,0,0,1,.7.39.56.56,0,0,1-.39.7c-1.09.31-2.19.61-3.29.89A.39.39,0,0,1,623.53,437.17Zm-92-.11-.15,0c-1.1-.29-2.2-.59-3.29-.9a.57.57,0,0,1-.39-.7.56.56,0,0,1,.7-.39l3.27.89a.57.57,0,0,1-.14,1.12Zm97.44-1.4a.57.57,0,0,1-.16-1.11l3.24-1a.57.57,0,0,1,.34,1.08l-3.26,1Zm-102.91-.13-.16,0c-1.09-.32-2.18-.65-3.27-1a.57.57,0,0,1-.36-.71.56.56,0,0,1,.71-.37l3.24,1a.56.56,0,0,1,.39.7A.58.58,0,0,1,526.09,435.53ZM634.41,434a.57.57,0,0,1-.54-.39.56.56,0,0,1,.36-.71c1.07-.36,2.15-.72,3.21-1.09a.55.55,0,0,1,.72.35.56.56,0,0,1-.34.72c-1.08.37-2.15.74-3.24,1.1Zm-113.74-.15-.18,0-3.24-1.11a.56.56,0,0,1-.35-.72.58.58,0,0,1,.73-.35c1.07.38,2.14.75,3.22,1.11a.56.56,0,0,1,.36.71A.57.57,0,0,1,520.67,433.82Zm119.09-1.7a.58.58,0,0,1-.53-.38.56.56,0,0,1,.34-.72l3.18-1.19a.57.57,0,0,1,.73.32.58.58,0,0,1-.33.74L640,432.08A.48.48,0,0,1,639.76,432.12Zm-124.47-.18a.63.63,0,0,1-.19,0c-1.07-.39-2.14-.8-3.21-1.21a.58.58,0,0,1-.32-.74.57.57,0,0,1,.74-.32q1.58.62,3.18,1.2a.58.58,0,0,1,.34.73A.57.57,0,0,1,515.29,431.94Zm129.77-1.84a.57.57,0,0,1-.53-.36.58.58,0,0,1,.32-.74c1-.42,2.09-.85,3.14-1.29a.57.57,0,0,1,.74.3.57.57,0,0,1-.3.75c-1,.44-2.1.87-3.16,1.29A.54.54,0,0,1,645.06,430.1ZM510,429.9a.78.78,0,0,1-.21,0c-1.06-.43-2.11-.87-3.16-1.32a.55.55,0,0,1-.3-.74.56.56,0,0,1,.74-.3c1,.44,2.09.88,3.15,1.3a.57.57,0,0,1,.31.74A.57.57,0,0,1,510,429.9Zm140.31-2a.57.57,0,0,1-.52-.34.58.58,0,0,1,.29-.75l3.1-1.39a.57.57,0,1,1,.47,1c-1,.48-2.07.94-3.11,1.4A.64.64,0,0,1,650.29,427.91Zm-145.55-.23a.62.62,0,0,1-.23,0l-3.12-1.41a.57.57,0,0,1-.27-.76.56.56,0,0,1,.75-.27l3.1,1.4a.56.56,0,0,1-.23,1.08Zm150.71-2.13a.56.56,0,0,1-.51-.32.57.57,0,0,1,.26-.76c1-.48,2-1,3.06-1.48a.56.56,0,1,1,.5,1c-1,.51-2,1-3.07,1.5A.52.52,0,0,1,655.45,425.55Zm-155.88-.24a.53.53,0,0,1-.24-.06c-1-.49-2.06-1-3.08-1.51a.57.57,0,0,1,.51-1c1,.51,2,1,3.06,1.5a.57.57,0,0,1-.25,1.08Zm161-2.27a.57.57,0,0,1-.26-1.07c1-.52,2-1.05,3-1.58a.55.55,0,0,1,.76.23.57.57,0,0,1-.23.77l-3,1.59A.58.58,0,0,1,660.53,423Zm-166-.27a.58.58,0,0,1-.26-.06c-1-.53-2-1.06-3-1.61a.56.56,0,0,1-.23-.77.57.57,0,0,1,.77-.23c1,.55,2,1.08,3,1.6a.57.57,0,0,1,.25.76A.57.57,0,0,1,494.48,422.77Zm171.06-2.4a.57.57,0,0,1-.28-1.07c1-.55,2-1.11,3-1.67a.57.57,0,0,1,.78.2.58.58,0,0,1-.21.78l-3,1.68A.56.56,0,0,1,665.54,420.37Zm-176.06-.3a.55.55,0,0,1-.28-.07c-1-.55-2-1.12-3-1.7a.56.56,0,0,1-.2-.77.57.57,0,0,1,.77-.21c1,.58,2,1.14,2.95,1.69a.56.56,0,0,1,.22.77A.56.56,0,0,1,489.48,420.07Zm181-2.53a.58.58,0,0,1-.49-.28.57.57,0,0,1,.2-.78l2.9-1.76a.56.56,0,0,1,.78.18.58.58,0,0,1-.18.78l-2.92,1.78A.6.6,0,0,1,670.45,417.54Zm-185.89-.32a.51.51,0,0,1-.29-.08c-1-.59-1.95-1.18-2.92-1.79a.57.57,0,1,1,.6-1c1,.6,1.93,1.19,2.9,1.78a.57.57,0,0,1-.29,1.05Zm-4.83-3a.55.55,0,0,1-.3-.09c-1-.62-1.91-1.25-2.86-1.88a.56.56,0,0,1-.15-.79.55.55,0,0,1,.78-.15c.94.63,1.89,1.25,2.84,1.87a.56.56,0,0,1,.17.78A.56.56,0,0,1,479.73,414.22ZM475,411.07a.55.55,0,0,1-.32-.1c-.94-.65-1.87-1.31-2.8-2a.57.57,0,0,1-.13-.79.56.56,0,0,1,.79-.13c.92.66,1.85,1.31,2.78,1.95a.57.57,0,0,1-.32,1Zm-4.63-3.3a.59.59,0,0,1-.33-.11c-.92-.68-1.83-1.36-2.73-2.05a.57.57,0,0,1-.11-.8.56.56,0,0,1,.79-.1l2.72,2a.57.57,0,0,1-.34,1Zm-4.51-3.44a.55.55,0,0,1-.35-.12c-.9-.7-1.79-1.42-2.67-2.14a.56.56,0,0,1-.08-.79.57.57,0,0,1,.8-.09c.87.72,1.76,1.43,2.65,2.13a.56.56,0,0,1,.09.79A.54.54,0,0,1,465.87,404.33Zm-4.41-3.58a.53.53,0,0,1-.36-.13c-.88-.73-1.74-1.47-2.6-2.22a.56.56,0,1,1,.74-.85l2.58,2.2a.57.57,0,0,1-.36,1ZM457.17,397a.59.59,0,0,1-.38-.14c-.85-.76-1.69-1.53-2.53-2.3a.57.57,0,0,1,0-.8.56.56,0,0,1,.8,0c.83.77,1.67,1.53,2.51,2.28a.56.56,0,0,1,0,.8A.55.55,0,0,1,457.17,397ZM453,393.2a.54.54,0,0,1-.39-.16c-.82-.78-1.64-1.57-2.45-2.37a.57.57,0,0,1,0-.81.58.58,0,0,1,.81,0c.8.79,1.61,1.58,2.43,2.36a.57.57,0,0,1-.39,1Zm-4.05-4a.56.56,0,0,1-.4-.17c-.8-.81-1.6-1.63-2.38-2.45a.57.57,0,0,1,.82-.78c.78.82,1.57,1.63,2.36,2.43a.57.57,0,0,1,0,.8A.58.58,0,0,1,448.94,389.23Zm-3.92-4.1a.56.56,0,0,1-.42-.18c-.77-.83-1.54-1.67-2.3-2.52a.57.57,0,0,1,0-.8.58.58,0,0,1,.81,0c.75.85,1.51,1.68,2.28,2.51a.56.56,0,0,1-.41.95Zm-3.8-4.21a.59.59,0,0,1-.43-.19c-.75-.86-1.49-1.73-2.22-2.6a.57.57,0,0,1,.87-.73c.73.87,1.46,1.73,2.21,2.58a.57.57,0,0,1-.43.94Zm-3.66-4.33a.55.55,0,0,1-.44-.21c-.72-.87-1.43-1.76-2.14-2.65a.57.57,0,0,1,.89-.71c.7.89,1.41,1.77,2.13,2.65a.56.56,0,0,1-.08.79A.57.57,0,0,1,437.56,376.59ZM434,372.15a.58.58,0,0,1-.46-.22c-.69-.9-1.37-1.81-2.05-2.72a.56.56,0,0,1,.12-.79.55.55,0,0,1,.79.12c.68.9,1.36,1.81,2.05,2.7a.57.57,0,0,1-.11.8A.53.53,0,0,1,434,372.15Zm-3.39-4.54a.56.56,0,0,1-.46-.24c-.66-.92-1.32-1.85-2-2.78a.57.57,0,0,1,.15-.79.57.57,0,0,1,.79.14c.64.93,1.29,1.85,1.95,2.77a.56.56,0,0,1-.13.79A.51.51,0,0,1,430.65,367.61ZM427.41,363a.55.55,0,0,1-.47-.25c-.63-.94-1.26-1.89-1.88-2.84a.57.57,0,1,1,1-.62c.61.95,1.23,1.89,1.86,2.83a.57.57,0,0,1-.15.79A.62.62,0,0,1,427.41,363Zm303.16-3.73a.55.55,0,0,1-.3-.09.58.58,0,0,1-.18-.79c.39-.6.78-1.21,1.16-1.83a.57.57,0,0,1,1,.6c-.38.62-.77,1.23-1.16,1.84A.57.57,0,0,1,730.57,359.23Zm-306.25-1a.57.57,0,0,1-.48-.27c-.61-1-1.2-1.93-1.79-2.9a.57.57,0,1,1,1-.58c.59,1,1.18,1.92,1.78,2.88a.56.56,0,0,1-.18.78A.55.55,0,0,1,424.32,358.22Zm308.59-2.76a.6.6,0,0,1-.29-.08.57.57,0,0,1-.19-.78c.59-1,1.16-2,1.73-2.93a.57.57,0,0,1,.78-.2.56.56,0,0,1,.2.77q-.85,1.49-1.74,2.94A.57.57,0,0,1,732.91,355.46Zm-311.53-2.08a.58.58,0,0,1-.49-.28c-.57-1-1.14-2-1.7-3a.58.58,0,0,1,.22-.78.57.57,0,0,1,.77.22c.56,1,1.12,2,1.69,2.94a.56.56,0,0,1-.2.77A.51.51,0,0,1,421.38,353.38Zm314.4-2.83a.55.55,0,0,1-.28-.07.57.57,0,0,1-.22-.77c.56-1,1.1-2,1.64-3a.58.58,0,0,1,.77-.23.57.57,0,0,1,.23.77c-.54,1-1.09,2-1.65,3A.55.55,0,0,1,735.78,350.55Zm-317.19-2.09a.58.58,0,0,1-.5-.3c-.54-1-1.07-2-1.6-3a.58.58,0,0,1,.24-.77.57.57,0,0,1,.77.24c.52,1,1.05,2,1.59,3a.57.57,0,0,1-.23.77A.64.64,0,0,1,418.59,348.46Zm319.9-2.9a.66.66,0,0,1-.27-.06.58.58,0,0,1-.24-.77c.52-1,1-2,1.55-3a.56.56,0,1,1,1,.5c-.51,1-1,2-1.55,3.05A.57.57,0,0,1,738.49,345.56ZM416,343.45a.58.58,0,0,1-.51-.31c-.51-1-1-2-1.5-3.06a.55.55,0,0,1,.26-.75.57.57,0,0,1,.76.26q.73,1.53,1.5,3a.58.58,0,0,1-.25.77A.62.62,0,0,1,416,343.45Zm325.07-3a.53.53,0,0,1-.24-.06.56.56,0,0,1-.27-.75c.49-1,1-2.05,1.45-3.08a.57.57,0,0,1,1,.48c-.48,1-1,2.06-1.46,3.09A.56.56,0,0,1,741,340.49Zm-327.54-2.13A.58.58,0,0,1,413,338c-.47-1-1-2.07-1.41-3.1a.58.58,0,0,1,.29-.75.56.56,0,0,1,.75.29c.46,1,.93,2,1.4,3.07a.58.58,0,0,1-.27.76A.52.52,0,0,1,413.49,338.36Zm329.93-3a.64.64,0,0,1-.23,0,.58.58,0,0,1-.29-.75q.69-1.55,1.35-3.12a.59.59,0,0,1,.75-.3.57.57,0,0,1,.3.75c-.44,1.05-.9,2.09-1.36,3.13A.57.57,0,0,1,743.42,335.34ZM411.18,333.2a.57.57,0,0,1-.52-.34c-.45-1-.89-2.09-1.31-3.14a.57.57,0,1,1,1-.43c.42,1,.86,2.09,1.3,3.12a.58.58,0,0,1-.3.75A.57.57,0,0,1,411.18,333.2Zm334.47-3.09a.54.54,0,0,1-.22,0,.57.57,0,0,1-.31-.74c.43-1.05.84-2.1,1.25-3.16a.58.58,0,0,1,.74-.32.57.57,0,0,1,.32.73q-.61,1.6-1.26,3.18A.56.56,0,0,1,745.65,330.11ZM409,328a.57.57,0,0,1-.53-.36c-.42-1.06-.82-2.13-1.22-3.19a.56.56,0,0,1,.34-.73.57.57,0,0,1,.73.33c.39,1.06.79,2.12,1.21,3.17a.57.57,0,0,1-.33.74A.45.45,0,0,1,409,328Zm338.67-3.15a.63.63,0,0,1-.19,0,.57.57,0,0,1-.34-.73c.4-1.07.78-2.13,1.15-3.2a.57.57,0,0,1,1.08.37c-.38,1.08-.77,2.15-1.16,3.22A.57.57,0,0,1,747.7,324.82ZM407,322.65a.58.58,0,0,1-.54-.37c-.38-1.07-.75-2.15-1.11-3.23a.57.57,0,0,1,.36-.72.56.56,0,0,1,.71.36q.54,1.6,1.11,3.21a.56.56,0,0,1-.34.72A.63.63,0,0,1,407,322.65Zm342.56-3.19-.18,0a.56.56,0,0,1-.36-.71c.36-1.08.71-2.15,1.05-3.23a.57.57,0,1,1,1.08.34c-.34,1.09-.69,2.17-1.06,3.25A.57.57,0,0,1,749.6,319.46Zm-344.38-2.18a.56.56,0,0,1-.54-.39c-.35-1.09-.69-2.17-1-3.27a.56.56,0,0,1,.38-.7.57.57,0,0,1,.71.38c.33,1.08.66,2.16,1,3.24a.57.57,0,0,1-.37.71A.51.51,0,0,1,405.22,317.28Zm346.1-3.23-.17,0a.57.57,0,0,1-.38-.71c.33-1.08.64-2.17,1-3.26a.57.57,0,0,1,.7-.39.56.56,0,0,1,.39.7c-.3,1.09-.62,2.19-.95,3.28A.57.57,0,0,1,751.32,314.05Zm-347.75-2.2a.57.57,0,0,1-.55-.41c-.31-1.09-.62-2.19-.91-3.29a.57.57,0,1,1,1.1-.29q.44,1.63.9,3.27a.56.56,0,0,1-.39.7Zm349.3-3.26-.15,0a.57.57,0,0,1-.4-.7c.29-1.09.57-2.19.84-3.29a.57.57,0,0,1,.69-.41.56.56,0,0,1,.41.68c-.27,1.11-.55,2.21-.85,3.32A.56.56,0,0,1,752.87,308.59Zm-350.78-2.22a.58.58,0,0,1-.55-.42c-.28-1.11-.55-2.21-.8-3.32a.57.57,0,1,1,1.1-.26c.26,1.1.52,2.2.8,3.3a.56.56,0,0,1-.41.69Zm352.15-3.3h-.13a.57.57,0,0,1-.42-.68c.26-1.1.5-2.21.74-3.32a.57.57,0,1,1,1.11.24c-.24,1.11-.49,2.23-.74,3.33A.57.57,0,0,1,754.24,303.07Zm-353.45-2.22a.57.57,0,0,1-.56-.44c-.24-1.11-.48-2.23-.7-3.35a.57.57,0,0,1,.45-.66.55.55,0,0,1,.66.44c.23,1.11.46,2.22.7,3.32a.57.57,0,0,1-.43.68Zm354.66-3.33h-.12a.57.57,0,0,1-.44-.67c.22-1.11.43-2.22.63-3.34a.58.58,0,0,1,.66-.46.57.57,0,0,1,.46.66c-.2,1.13-.42,2.25-.64,3.36A.57.57,0,0,1,755.45,297.52Zm-355.79-2.23a.57.57,0,0,1-.56-.46q-.32-1.68-.6-3.36a.58.58,0,0,1,.47-.66.56.56,0,0,1,.65.47c.19,1.12.39,2.23.59,3.34a.56.56,0,0,1-.45.66Zm356.81-3.36h-.09a.57.57,0,0,1-.47-.65c.19-1.11.36-2.23.53-3.36a.58.58,0,0,1,.64-.48.57.57,0,0,1,.48.65c-.16,1.13-.34,2.25-.53,3.38A.57.57,0,0,1,756.47,291.93ZM398.7,289.7a.58.58,0,0,1-.56-.48c-.17-1.13-.33-2.25-.49-3.38a.57.57,0,0,1,.49-.64.59.59,0,0,1,.64.49c.15,1.12.31,2.24.48,3.35a.56.56,0,0,1-.47.65Zm358.62-3.39h-.08a.57.57,0,0,1-.48-.64c.15-1.12.29-2.25.42-3.37a.56.56,0,0,1,.63-.5.57.57,0,0,1,.5.63c-.13,1.13-.27,2.26-.43,3.39A.56.56,0,0,1,757.32,286.31Zm-359.4-2.23a.57.57,0,0,1-.56-.5c-.14-1.13-.27-2.26-.38-3.39a.58.58,0,0,1,.5-.63.59.59,0,0,1,.63.51c.11,1.13.24,2.25.38,3.37a.58.58,0,0,1-.5.64ZM758,280.67h-.06a.58.58,0,0,1-.5-.63c.12-1.12.22-2.25.32-3.38a.57.57,0,0,1,1.13.09c-.1,1.14-.21,2.28-.32,3.41A.57.57,0,0,1,758,280.67Zm-360.67-2.23a.56.56,0,0,1-.56-.52c-.11-1.13-.2-2.26-.28-3.4a.57.57,0,1,1,1.13-.08c.08,1.13.17,2.25.28,3.38a.59.59,0,0,1-.52.62ZM758.49,275h0a.57.57,0,0,1-.53-.6c.08-1.13.16-2.26.22-3.4a.54.54,0,0,1,.59-.53.56.56,0,0,1,.54.59q-.09,1.71-.21,3.42A.56.56,0,0,1,758.49,275Zm-361.6-2.22a.57.57,0,0,1-.56-.53c-.07-1.14-.13-2.28-.17-3.42a.57.57,0,0,1,.54-.59.58.58,0,0,1,.59.55c0,1.13.1,2.26.17,3.39a.57.57,0,0,1-.53.6Zm361.92-3.45h0a.58.58,0,0,1-.56-.59c0-1.13.09-2.27.11-3.4a.56.56,0,0,1,.58-.56.58.58,0,0,1,.56.58c0,1.14-.07,2.29-.11,3.42A.57.57,0,0,1,758.81,269.33Zm-362.17-2.21a.56.56,0,0,1-.56-.55c0-1.14-.06-2.27-.07-3.41a.58.58,0,0,1,.56-.58.61.61,0,0,1,.58.57q0,1.69.06,3.39a.57.57,0,0,1-.55.58ZM759,263.64h0a.56.56,0,0,1-.56-.57c0-.61,0-1.22,0-1.83s0-1.05,0-1.57a.57.57,0,0,1,.56-.57h0a.56.56,0,0,1,.56.56c0,.52,0,1,0,1.58s0,1.23,0,1.84A.56.56,0,0,1,759,263.64Zm-362.38-2.19h0a.57.57,0,0,1-.57-.57c0-1.14,0-2.28,0-3.41a.55.55,0,0,1,.58-.56.57.57,0,0,1,.55.58q0,1.69,0,3.39A.57.57,0,0,1,396.57,261.45ZM758.92,258a.57.57,0,0,1-.56-.56c0-1.13-.06-2.26-.11-3.38a.57.57,0,0,1,.55-.59h0a.56.56,0,0,1,.57.54c0,1.13.08,2.27.1,3.41a.57.57,0,0,1-.55.58Zm-362.25-2.19h0a.57.57,0,0,1-.55-.59c0-1.14.08-2.28.14-3.41a.56.56,0,0,1,.6-.54.58.58,0,0,1,.54.6c-.06,1.12-.11,2.26-.15,3.39A.56.56,0,0,1,396.67,255.78Zm362.05-3.48a.57.57,0,0,1-.57-.54c-.06-1.13-.13-2.26-.2-3.38a.56.56,0,0,1,.52-.61.57.57,0,0,1,.61.53c.08,1.13.15,2.27.21,3.41a.57.57,0,0,1-.54.59Zm-361.78-2.19h0a.57.57,0,0,1-.53-.6c.08-1.14.16-2.28.25-3.41a.57.57,0,1,1,1.13.09q-.13,1.69-.24,3.39A.57.57,0,0,1,396.94,250.11Zm361.4-3.47a.57.57,0,0,1-.57-.52c-.09-1.13-.19-2.25-.31-3.38a.57.57,0,0,1,1.13-.11c.11,1.13.22,2.26.31,3.4a.56.56,0,0,1-.52.61Zm-361-2.19h-.06a.56.56,0,0,1-.51-.62q.17-1.7.36-3.39a.56.56,0,0,1,.63-.5.55.55,0,0,1,.49.63c-.12,1.12-.24,2.24-.35,3.37A.56.56,0,0,1,397.39,244.45ZM757.78,241a.57.57,0,0,1-.56-.51c-.13-1.12-.27-2.25-.42-3.37a.56.56,0,0,1,.49-.63.58.58,0,0,1,.64.48c.15,1.13.29,2.26.41,3.39a.55.55,0,0,1-.49.63ZM398,238.81h-.07a.57.57,0,0,1-.49-.64c.14-1.13.3-2.25.46-3.38a.58.58,0,0,1,.64-.48.57.57,0,0,1,.48.65q-.24,1.66-.45,3.36A.58.58,0,0,1,398,238.81Zm359-3.44a.56.56,0,0,1-.56-.48c-.17-1.13-.34-2.24-.52-3.36a.55.55,0,0,1,.46-.65.57.57,0,0,1,.65.47c.19,1.12.37,2.24.53,3.37a.57.57,0,0,1-.48.65ZM398.81,233.2h-.09a.57.57,0,0,1-.47-.65c.18-1.12.37-2.25.57-3.37a.57.57,0,0,1,1.12.2c-.2,1.12-.39,2.23-.57,3.35A.56.56,0,0,1,398.81,233.2Zm357.33-3.43a.57.57,0,0,1-.56-.47c-.2-1.11-.41-2.23-.63-3.33a.57.57,0,0,1,1.12-.22c.22,1.11.43,2.23.63,3.35a.56.56,0,0,1-.46.66Zm-356.35-2.16h-.11a.58.58,0,0,1-.45-.67c.22-1.11.44-2.23.68-3.34a.56.56,0,0,1,.67-.44.57.57,0,0,1,.44.67c-.24,1.11-.46,2.21-.67,3.33A.57.57,0,0,1,399.79,227.61Zm355.27-3.41a.57.57,0,0,1-.56-.45c-.23-1.11-.48-2.21-.73-3.31a.57.57,0,0,1,.42-.68.59.59,0,0,1,.69.42c.25,1.11.5,2.22.73,3.34a.57.57,0,0,1-.44.67Zm-354.12-2.15h-.12a.56.56,0,0,1-.43-.68c.25-1.11.51-2.22.77-3.32a.58.58,0,0,1,.69-.42.57.57,0,0,1,.42.69c-.27,1.09-.53,2.19-.77,3.3A.58.58,0,0,1,400.94,222.05Zm352.86-3.38a.57.57,0,0,1-.55-.43c-.27-1.1-.55-2.2-.84-3.29a.57.57,0,1,1,1.1-.29c.29,1.1.57,2.2.84,3.31a.56.56,0,0,1-.42.68Zm-351.53-2.13-.14,0a.56.56,0,0,1-.41-.69c.28-1.11.58-2.21.88-3.3a.57.57,0,1,1,1.09.3c-.3,1.09-.59,2.18-.87,3.28A.57.57,0,0,1,402.27,216.54Zm350.1-3.36a.58.58,0,0,1-.55-.42c-.3-1.09-.62-2.18-.94-3.26a.56.56,0,0,1,.38-.7.57.57,0,0,1,.71.38c.32,1.09.64,2.18.94,3.28a.57.57,0,0,1-.39.7Zm-348.6-2.12a.44.44,0,0,1-.16,0,.57.57,0,0,1-.39-.7q.48-1.65,1-3.27a.57.57,0,1,1,1.08.34c-.33,1.08-.66,2.16-1,3.25A.57.57,0,0,1,403.77,211.06Zm347-3.32a.57.57,0,0,1-.54-.4c-.34-1.08-.69-2.16-1-3.23a.56.56,0,1,1,1.07-.36c.36,1.08.71,2.16,1,3.25a.57.57,0,0,1-.37.71A.51.51,0,0,1,750.76,207.74Zm-345.32-2.11-.17,0a.58.58,0,0,1-.37-.72c.36-1.09.72-2.17,1.1-3.25a.57.57,0,1,1,1.07.37c-.37,1.07-.74,2.15-1.09,3.23A.57.57,0,0,1,405.44,205.63ZM749,202.35a.57.57,0,0,1-.53-.38c-.37-1.07-.76-2.14-1.15-3.2a.58.58,0,0,1,.34-.73.57.57,0,0,1,.73.34c.39,1.07.78,2.14,1.15,3.21a.58.58,0,0,1-.35.73A.63.63,0,0,1,749,202.35Zm-341.69-2.1a.43.43,0,0,1-.19,0,.56.56,0,0,1-.34-.72c.39-1.08.78-2.15,1.19-3.22a.57.57,0,0,1,.74-.32.57.57,0,0,1,.32.73c-.4,1.06-.8,2.12-1.18,3.19A.58.58,0,0,1,407.29,200.25ZM747,197a.56.56,0,0,1-.53-.37c-.41-1.05-.82-2.11-1.25-3.15a.58.58,0,0,1,.32-.74.57.57,0,0,1,.74.31c.42,1.05.84,2.11,1.25,3.18a.57.57,0,0,1-.33.73A.48.48,0,0,1,747,197Zm-337.73-2.1a.52.52,0,0,1-.21,0,.57.57,0,0,1-.32-.73c.43-1.07.86-2.12,1.3-3.18a.57.57,0,0,1,1.05.44c-.44,1.05-.87,2.1-1.29,3.16A.56.56,0,0,1,409.31,194.92Zm335.62-3.16a.56.56,0,0,1-.52-.35c-.44-1-.88-2.07-1.34-3.1a.57.57,0,0,1,1-.46c.46,1,.9,2.08,1.34,3.12a.56.56,0,0,1-.52.79ZM411.5,189.67a.59.59,0,0,1-.23,0,.57.57,0,0,1-.3-.74c.46-1,.92-2.09,1.4-3.13a.57.57,0,0,1,1,.47c-.47,1-.93,2.07-1.38,3.11A.59.59,0,0,1,411.5,189.67Zm331.16-3.09a.55.55,0,0,1-.51-.33q-.71-1.53-1.44-3.06a.57.57,0,0,1,.27-.76.57.57,0,0,1,.75.27c.49,1,1,2.05,1.45,3.08a.57.57,0,0,1-.28.75A.52.52,0,0,1,742.66,186.58Zm-328.82-2.09a.53.53,0,0,1-.24-.06.57.57,0,0,1-.27-.75c.49-1,1-2.06,1.49-3.08a.56.56,0,0,1,.76-.26.57.57,0,0,1,.26.76c-.5,1-1,2-1.48,3.06A.57.57,0,0,1,413.84,184.49Zm326.39-3a.57.57,0,0,1-.51-.32c-.5-1-1-2-1.53-3a.57.57,0,0,1,.24-.76.57.57,0,0,1,.77.24c.52,1,1,2,1.54,3a.57.57,0,0,1-.26.76A.54.54,0,0,1,740.23,181.48Zm-323.87-2.1a.58.58,0,0,1-.26-.06.56.56,0,0,1-.25-.76q.78-1.53,1.59-3a.56.56,0,0,1,.76-.24.57.57,0,0,1,.24.77c-.54,1-1.06,2-1.58,3A.56.56,0,0,1,416.36,179.38Zm321.28-2.93a.57.57,0,0,1-.5-.3c-.53-1-1.07-2-1.62-3a.56.56,0,0,1,.21-.77.57.57,0,0,1,.78.22c.55,1,1.1,2,1.63,3a.56.56,0,0,1-.23.76A.54.54,0,0,1,737.64,176.45ZM419,174.36a.54.54,0,0,1-.27-.07.57.57,0,0,1-.22-.77c.55-1,1.11-2,1.68-3a.58.58,0,0,1,.78-.21.57.57,0,0,1,.2.78c-.56,1-1.12,2-1.67,3A.56.56,0,0,1,419,174.36Zm315.87-2.86a.58.58,0,0,1-.49-.28c-.56-1-1.13-1.95-1.72-2.92a.57.57,0,0,1,1-.58c.58,1,1.16,1.95,1.72,2.93a.57.57,0,0,1-.2.78A.59.59,0,0,1,734.89,171.5Zm-313-2.07a.51.51,0,0,1-.29-.08.57.57,0,0,1-.2-.78c.58-1,1.18-1.95,1.77-2.92a.58.58,0,0,1,.79-.19.59.59,0,0,1,.18.79c-.6,1-1.18,1.93-1.76,2.9A.58.58,0,0,1,421.85,169.43ZM732,166.64a.55.55,0,0,1-.48-.27c-.59-1-1.2-1.91-1.81-2.86a.57.57,0,0,1,1-.62c.61,1,1.22,1.92,1.82,2.89a.57.57,0,0,1-.19.78A.52.52,0,0,1,732,166.64Zm-307.16-2a.59.59,0,0,1-.31-.09.57.57,0,0,1-.17-.78c.61-1,1.23-1.92,1.86-2.87a.57.57,0,0,1,1,.63c-.63.94-1.25,1.89-1.85,2.85A.58.58,0,0,1,424.83,164.59Zm304.11-2.72a.57.57,0,0,1-.47-.25c-.63-.94-1.26-1.88-1.9-2.81a.57.57,0,0,1,.14-.79.56.56,0,0,1,.79.15c.65.93,1.28,1.87,1.91,2.82a.56.56,0,0,1-.47.88Zm-301-2a.63.63,0,0,1-.32-.1.57.57,0,0,1-.14-.79c.64-.94,1.29-1.88,1.95-2.81a.57.57,0,1,1,.92.66c-.65.92-1.3,1.85-1.94,2.79A.57.57,0,0,1,428,159.85Zm297.79-2.65a.55.55,0,0,1-.46-.24c-.66-.92-1.32-1.84-2-2.75a.57.57,0,1,1,.91-.67c.68.92,1.34,1.84,2,2.76a.56.56,0,0,1-.46.9Zm-294.51-2a.6.6,0,0,1-.34-.11.57.57,0,0,1-.12-.8c.67-.92,1.35-1.83,2-2.74a.56.56,0,0,1,.79-.11.57.57,0,0,1,.11.8c-.68.9-1.36,1.81-2,2.72A.6.6,0,0,1,431.23,155.21Zm291.16-2.58a.56.56,0,0,1-.45-.23c-.68-.9-1.37-1.79-2.07-2.68a.57.57,0,0,1,.1-.8.56.56,0,0,1,.79.1c.71.89,1.4,1.79,2.09,2.7a.56.56,0,0,1-.11.79A.59.59,0,0,1,722.39,152.63Zm-287.75-2a.59.59,0,0,1-.35-.12.58.58,0,0,1-.1-.8q1.05-1.35,2.13-2.67a.55.55,0,0,1,.79-.09.56.56,0,0,1,.09.8c-.71.88-1.42,1.77-2.11,2.66A.58.58,0,0,1,434.64,150.67Zm284.26-2.51a.56.56,0,0,1-.44-.21c-.71-.88-1.42-1.75-2.15-2.62a.57.57,0,1,1,.87-.73c.73.87,1.45,1.75,2.17,2.64a.56.56,0,0,1-.45.92Zm-280.7-1.92a.58.58,0,0,1-.37-.13.57.57,0,0,1-.07-.8l2.2-2.61a.57.57,0,0,1,.8-.06.56.56,0,0,1,.06.8c-.74.86-1.47,1.73-2.19,2.6A.57.57,0,0,1,438.2,146.24Zm277.08-2.43a.57.57,0,0,1-.43-.2c-.74-.86-1.48-1.71-2.23-2.55a.57.57,0,1,1,.84-.76c.76.85,1.51,1.71,2.25,2.57a.57.57,0,0,1-.06.8A.59.59,0,0,1,715.28,143.81Zm-273.39-1.88a.59.59,0,0,1-.38-.14.57.57,0,0,1-.05-.8c.75-.86,1.51-1.7,2.29-2.54a.56.56,0,1,1,.83.76c-.76.84-1.52,1.68-2.27,2.53A.55.55,0,0,1,441.89,141.93Zm269.63-2.37a.58.58,0,0,1-.42-.18c-.76-.84-1.53-1.66-2.31-2.48a.57.57,0,0,1,0-.81.58.58,0,0,1,.8,0c.78.83,1.56,1.66,2.33,2.5a.57.57,0,0,1,0,.8A.55.55,0,0,1,711.52,139.56Zm-265.81-1.83a.58.58,0,0,1-.39-.15.57.57,0,0,1,0-.8c.78-.83,1.57-1.65,2.37-2.47a.57.57,0,1,1,.81.79c-.79.81-1.57,1.63-2.35,2.46A.58.58,0,0,1,445.71,137.73Zm261.92-2.29a.55.55,0,0,1-.41-.18c-.79-.81-1.59-1.61-2.39-2.4a.58.58,0,0,1,0-.81.57.57,0,0,1,.8,0c.81.8,1.61,1.61,2.4,2.42a.57.57,0,0,1,0,.81A.59.59,0,0,1,707.63,135.44Zm-258-1.78a.57.57,0,0,1-.41-.16.58.58,0,0,1,0-.81c.81-.8,1.62-1.6,2.44-2.39a.57.57,0,0,1,.79.82c-.82.78-1.62,1.58-2.42,2.38A.57.57,0,0,1,449.66,133.66Zm254-2.23a.57.57,0,0,1-.4-.16c-.81-.78-1.63-1.56-2.46-2.33a.57.57,0,0,1,0-.8.56.56,0,0,1,.8,0c.84.77,1.66,1.56,2.48,2.35a.57.57,0,0,1,0,.8A.54.54,0,0,1,703.61,131.43Zm-249.88-1.72a.54.54,0,0,1-.41-.17.57.57,0,0,1,0-.81c.83-.77,1.66-1.55,2.51-2.31a.57.57,0,0,1,.76.84c-.84.76-1.67,1.53-2.49,2.3A.58.58,0,0,1,453.73,129.71Zm245.73-2.15a.57.57,0,0,1-.38-.15l-2.53-2.26a.57.57,0,0,1-.06-.8.56.56,0,0,1,.8,0c.86.75,1.71,1.5,2.55,2.27a.56.56,0,0,1,0,.8A.57.57,0,0,1,699.46,127.56ZM457.92,125.9a.57.57,0,0,1-.37-1c.85-.75,1.71-1.49,2.58-2.23a.57.57,0,1,1,.73.87c-.86.73-1.71,1.47-2.56,2.22A.59.59,0,0,1,457.92,125.9Zm237.28-2.09a.54.54,0,0,1-.37-.14c-.86-.73-1.72-1.46-2.6-2.17a.57.57,0,0,1,.72-.88c.88.72,1.75,1.45,2.62,2.19a.56.56,0,0,1,.06.8A.57.57,0,0,1,695.2,123.81Zm-233-1.6a.6.6,0,0,1-.44-.2.57.57,0,0,1,.08-.8c.87-.73,1.76-1.45,2.64-2.15a.57.57,0,0,1,.8.08.56.56,0,0,1-.09.8c-.88.71-1.76,1.42-2.63,2.14A.53.53,0,0,1,462.23,122.21Zm228.59-2a.54.54,0,0,1-.35-.13c-.88-.7-1.77-1.4-2.67-2.09a.57.57,0,1,1,.69-.9c.9.69,1.8,1.39,2.69,2.1a.57.57,0,0,1-.36,1Zm-224.17-1.53a.58.58,0,0,1-.45-.22.57.57,0,0,1,.1-.8c.9-.7,1.8-1.39,2.71-2.07a.56.56,0,0,1,.8.12.55.55,0,0,1-.12.79c-.9.68-1.8,1.36-2.69,2.06A.57.57,0,0,1,466.65,118.67Zm219.68-2a.62.62,0,0,1-.34-.11q-1.35-1-2.73-2a.57.57,0,0,1,.66-.93c.93.67,1.84,1.35,2.75,2a.57.57,0,0,1-.34,1Zm-215.15-1.46a.55.55,0,0,1-.46-.24.56.56,0,0,1,.12-.79c.92-.67,1.85-1.33,2.78-2a.57.57,0,0,1,.65.93c-.93.65-1.85,1.3-2.76,2A.59.59,0,0,1,471.18,115.26Zm210.56-1.87a.59.59,0,0,1-.33-.11c-.92-.65-1.86-1.29-2.8-1.92a.57.57,0,0,1-.15-.79.57.57,0,0,1,.79-.15c.94.63,1.88,1.28,2.82,1.93a.57.57,0,0,1,.13.79A.56.56,0,0,1,681.74,113.39ZM475.81,112a.56.56,0,0,1-.32-1l2.83-1.9a.57.57,0,0,1,.79.17.56.56,0,0,1-.17.78l-2.81,1.88A.55.55,0,0,1,475.81,112ZM677,110.2a.5.5,0,0,1-.31-.1c-1-.62-1.9-1.23-2.86-1.83a.57.57,0,0,1-.18-.79.58.58,0,0,1,.78-.18c1,.61,1.93,1.23,2.88,1.85a.58.58,0,0,1,.16.79A.56.56,0,0,1,677,110.2Zm-196.5-1.32a.57.57,0,0,1-.31-1c1-.61,1.92-1.21,2.89-1.8a.56.56,0,0,1,.78.18.56.56,0,0,1-.19.78c-1,.59-1.92,1.19-2.87,1.8A.55.55,0,0,1,480.54,108.88Zm191.7-1.72a.58.58,0,0,1-.3-.09c-1-.59-1.94-1.17-2.91-1.75a.56.56,0,0,1-.2-.77.57.57,0,0,1,.77-.21l2.94,1.76a.57.57,0,0,1,.18.78A.55.55,0,0,1,672.24,107.16Zm-186.88-1.25a.56.56,0,0,1-.29-1c1-.58,1.95-1.16,2.94-1.72a.57.57,0,1,1,.56,1c-1,.56-1.95,1.12-2.92,1.7A.67.67,0,0,1,485.36,105.91Zm182-1.65a.58.58,0,0,1-.28-.07c-1-.56-2-1.11-3-1.66a.57.57,0,1,1,.55-1c1,.54,2,1.1,3,1.66a.57.57,0,0,1-.29,1.06ZM490.27,103.1A.57.57,0,0,1,490,102q1.49-.82,3-1.62a.56.56,0,0,1,.76.24.57.57,0,0,1-.23.77c-1,.52-2,1.06-3,1.61A.68.68,0,0,1,490.27,103.1Zm172.09-1.57a.59.59,0,0,1-.26-.07c-1-.53-2-1-3-1.56a.56.56,0,0,1-.25-.76.58.58,0,0,1,.76-.26c1,.52,2,1,3,1.58a.57.57,0,0,1-.27,1.07Zm-167.1-1.09a.57.57,0,0,1-.26-1.08l3.05-1.52a.57.57,0,1,1,.49,1c-1,.49-2,1-3,1.51A.48.48,0,0,1,495.26,100.44Zm162-1.49a.53.53,0,0,1-.24-.06c-1-.5-2-1-3.07-1.47a.57.57,0,0,1,.47-1c1,.49,2.07,1,3.09,1.48a.57.57,0,0,1-.25,1.08Zm-157-1a.57.57,0,0,1-.24-1.08c1-.49,2.05-1,3.09-1.43a.57.57,0,0,1,.47,1c-1,.47-2.06.94-3.07,1.42A.57.57,0,0,1,500.33,97.94Zm151.82-1.41a.69.69,0,0,1-.24,0c-1-.47-2.07-.93-3.11-1.37a.57.57,0,0,1,.44-1c1,.45,2.1.91,3.14,1.38a.57.57,0,0,1,.28.75A.56.56,0,0,1,652.15,96.53ZM505.48,95.6a.57.57,0,0,1-.23-1.09l3.13-1.33a.58.58,0,0,1,.75.31.57.57,0,0,1-.31.74c-1,.43-2.08.87-3.11,1.32A.64.64,0,0,1,505.48,95.6Zm141.44-1.33a.6.6,0,0,1-.22,0c-1-.44-2.1-.86-3.15-1.27A.57.57,0,0,1,644,91.9c1.06.42,2.12.84,3.18,1.28a.57.57,0,0,1,.31.74A.57.57,0,0,1,646.92,94.27ZM510.7,93.42a.56.56,0,0,1-.52-.36.55.55,0,0,1,.32-.73c1.05-.42,2.11-.84,3.18-1.24a.57.57,0,1,1,.4,1.06c-1.06.4-2.11.81-3.17,1.23A.46.46,0,0,1,510.7,93.42Zm130.93-1.24a.48.48,0,0,1-.2,0c-1.06-.39-2.13-.79-3.2-1.17a.57.57,0,0,1-.35-.72.59.59,0,0,1,.73-.35l3.22,1.18a.57.57,0,0,1-.2,1.1ZM516,91.4a.57.57,0,0,1-.19-1.1c1.06-.39,2.14-.76,3.22-1.13a.57.57,0,0,1,.72.35.57.57,0,0,1-.36.72c-1.07.37-2.14.74-3.2,1.13A.63.63,0,0,1,516,91.4Zm120.26-1.14-.19,0c-1.07-.37-2.15-.73-3.23-1.07a.57.57,0,1,1,.35-1.08l3.25,1.07a.56.56,0,0,1,.35.72A.56.56,0,0,1,636.27,90.26Zm-114.9-.71a.56.56,0,0,1-.17-1.1c1.08-.36,2.16-.7,3.25-1a.57.57,0,0,1,.34,1.09q-1.63.5-3.24,1A.57.57,0,0,1,521.37,89.55Zm109.48-1a.51.51,0,0,1-.17,0c-1.08-.33-2.16-.65-3.25-1a.57.57,0,1,1,.31-1.09c1.09.31,2.19.63,3.27,1a.57.57,0,0,1-.16,1.11Zm-104.06-.63a.57.57,0,0,1-.16-1.12c1.09-.32,2.19-.63,3.29-.93a.58.58,0,0,1,.7.4.57.57,0,0,1-.4.7l-3.27.92A.45.45,0,0,1,526.79,87.88Zm98.61-.95a.39.39,0,0,1-.15,0L622,86.05a.57.57,0,1,1,.28-1.1q1.66.42,3.3.87a.56.56,0,0,1-.14,1.11Zm-93.14-.56a.57.57,0,0,1-.14-1.12c1.1-.28,2.21-.56,3.31-.82a.57.57,0,1,1,.27,1.1c-1.1.26-2.2.54-3.3.82Zm87.64-.84a.27.27,0,0,1-.13,0c-1.1-.26-2.2-.51-3.31-.75a.58.58,0,0,1-.44-.68.57.57,0,0,1,.68-.43c1.11.24,2.22.5,3.33.76a.57.57,0,0,1-.13,1.12ZM537.78,85a.58.58,0,0,1-.56-.44.59.59,0,0,1,.43-.68c1.11-.25,2.23-.49,3.34-.72a.58.58,0,0,1,.67.44.56.56,0,0,1-.44.67c-1.11.23-2.22.47-3.32.72Zm76.58-.73h-.11c-1.11-.23-2.22-.44-3.34-.65a.57.57,0,0,1-.45-.66.55.55,0,0,1,.66-.45c1.12.2,2.24.42,3.35.65a.57.57,0,0,1-.11,1.12Zm-71-.43a.57.57,0,0,1-.56-.46.57.57,0,0,1,.45-.66l3.36-.62a.58.58,0,0,1,.66.47.56.56,0,0,1-.46.65l-3.34.61Zm65.45-.62h-.09c-1.12-.19-2.23-.37-3.35-.54a.57.57,0,0,1-.48-.65.56.56,0,0,1,.65-.47c1.13.17,2.25.35,3.37.54a.57.57,0,0,1-.1,1.13Zm-59.86-.36a.57.57,0,0,1-.09-1.13c1.12-.18,2.25-.35,3.38-.51a.57.57,0,1,1,.15,1.13c-1.12.16-2.24.32-3.35.5Zm54.26-.51h-.08c-1.12-.16-2.24-.3-3.37-.44a.56.56,0,0,1-.49-.63.58.58,0,0,1,.63-.5q1.7.21,3.39.45a.57.57,0,0,1-.08,1.13Zm-48.65-.3a.57.57,0,0,1-.07-1.13c1.13-.14,2.26-.28,3.39-.4a.58.58,0,0,1,.63.5.57.57,0,0,1-.5.63c-1.13.12-2.25.26-3.37.4Zm43-.41h-.06c-1.13-.12-2.25-.23-3.38-.33a.57.57,0,1,1,.1-1.13c1.14.1,2.27.21,3.4.33a.57.57,0,0,1,.5.63A.56.56,0,0,1,597.55,81.67Zm-37.38-.22a.56.56,0,0,1-.56-.51.56.56,0,0,1,.51-.62c1.13-.11,2.26-.21,3.4-.3a.56.56,0,0,1,.61.52.56.56,0,0,1-.52.61c-1.13.09-2.26.19-3.38.3Zm31.73-.3h0c-1.12-.09-2.25-.17-3.38-.23a.57.57,0,0,1-.53-.6.56.56,0,0,1,.6-.53c1.13.06,2.27.14,3.4.23a.56.56,0,0,1,.52.61A.57.57,0,0,1,591.9,81.15ZM565.83,81a.57.57,0,0,1,0-1.13c1.13-.07,2.27-.14,3.41-.19a.57.57,0,0,1,.59.54.56.56,0,0,1-.54.59l-3.39.19Zm20.41-.19h0q-1.69-.08-3.39-.12a.56.56,0,0,1-.55-.59.58.58,0,0,1,.58-.55c1.14,0,2.28.07,3.41.13a.56.56,0,0,1,.54.59A.56.56,0,0,1,586.24,80.8Zm-14.75-.09a.57.57,0,0,1,0-1.13c1.14,0,2.27-.07,3.41-.09h0a.57.57,0,0,1,0,1.14c-1.13,0-2.26,0-3.39.08Zm9.07-.08h0c-.93,0-1.86,0-2.79,0h-.61a.56.56,0,0,1-.57-.57.57.57,0,0,1,.57-.57h.61l2.8,0a.57.57,0,0,1,0,1.14Z" style="fill:url(#a)"/><path d="M684.77,153.19a150.53,150.53,0,1,0-24,232.41l58.37,14.86L704.3,342.09A150.58,150.58,0,0,0,684.77,153.19Z" style="fill:url(#b)"/><path d="M582.47,169.73a94.72,94.72,0,1,0,94.72,94.72A94.82,94.82,0,0,0,582.47,169.73Zm-2.56,182.08a114.72,114.72,0,0,1-28.42-39,119.17,119.17,0,0,1,28.42-3.91Zm0-48A125.11,125.11,0,0,0,549.48,308a115,115,0,0,1-7.83-41h38.26Zm-38.18-41.89a114.63,114.63,0,0,1,8.94-40.53,125.22,125.22,0,0,0,29.24,3.91v36.62Zm38.18-41.76a119.43,119.43,0,0,1-27.07-3.58,114.59,114.59,0,0,1,27.07-36Zm5.13,5.14a134.31,134.31,0,0,0,30.14-3.86,114.56,114.56,0,0,1,8.92,40.48H585Zm0-5.14V179.75a114.67,114.67,0,0,1,28,36.83A128.34,128.34,0,0,1,585,220.12Zm-37.22-5c-14.94-4.56-24.64-11-28.64-14A89.32,89.32,0,0,1,578.46,175,120,120,0,0,0,547.82,215.14Zm-2.14,4.8a120.09,120.09,0,0,0-9.1,41.94H493a89.2,89.2,0,0,1,22.67-57C519.69,208.09,529.8,215,545.68,219.94ZM536.51,267a120,120,0,0,0,8,42.43c-15.13,4.85-24.83,11.49-28.84,14.62A89.14,89.14,0,0,1,493,267Zm10,47.26a119.92,119.92,0,0,0,27.79,39.36,89.31,89.31,0,0,1-55-25.8A92.73,92.73,0,0,1,546.51,314.28ZM585,308.91a128.13,128.13,0,0,1,29.31,3.88A114.73,114.73,0,0,1,585,352.59Zm0-5.14V267h39.14a114.78,114.78,0,0,1-7.82,40.92A134.24,134.24,0,0,0,585,303.77ZM629.32,267H672a89.14,89.14,0,0,1-21.76,55.92c-4.06-2.88-13.86-9-28.89-13.61A120.19,120.19,0,0,0,629.32,267Zm-.07-5.14A120.18,120.18,0,0,0,620.19,220c15.78-4.63,26-11.07,30.11-14A89.07,89.07,0,0,1,672,261.88Zm17.54-59.69a101.56,101.56,0,0,1-28.74,13A119.89,119.89,0,0,0,587.42,175,89.3,89.3,0,0,1,646.79,202.19ZM591.61,353.57a120,120,0,0,0,27.75-39.39,101.18,101.18,0,0,1,27.36,12.61A89.42,89.42,0,0,1,591.61,353.57Z" style="fill:#ccc;mix-blend-mode:multiply"/><path d="M578.25,354.94A94.72,94.72,0,1,1,673,260.22,94.83,94.83,0,0,1,578.25,354.94Zm0-184.3a89.58,89.58,0,1,0,89.58,89.58A89.68,89.68,0,0,0,578.25,170.64Z" style="fill:#fff"/><path d="M576.21,354.83A120.13,120.13,0,0,1,578,167.62l3.18,4a115,115,0,0,0-1.72,179.2Z" style="fill:#fff"/><path d="M581.16,354.83l-3.26-4a115,115,0,0,0-1.73-179.2l3.19-4a120.14,120.14,0,0,1,1.8,187.21Z" style="fill:#fff"/><rect x="575.68" y="168.08" width="5.14" height="184.28" style="fill:#fff"/><rect x="486.15" y="257.65" width="184.2" height="5.14" style="fill:#fff"/><path d="M578.25,221.07c-44.32,0-67.89-21.17-68.87-22.07l3.47-3.79c.23.21,23.19,20.72,65.4,20.72,42.41,0,66.35-19.42,66.59-19.62l3.28,4C647.09,201.12,622.49,221.07,578.25,221.07Z" style="fill:#fff"/><path d="M512.85,325.37l-3.47-3.79c1-.9,24.55-22.08,68.87-22.08s68.84,20,69.87,20.81l-3.28,4c-.23-.2-24.31-19.63-66.59-19.63-22,0-38.65,5.63-48.69,10.36C518.66,320.12,512.91,325.32,512.85,325.37Z" style="fill:#fff"/><path d="M446.16,90.7A115.24,115.24,0,1,0,427.8,268.62L472.49,280l-11.38-44.69A115.29,115.29,0,0,0,446.16,90.7Z" style="fill:#ccc;mix-blend-mode:multiply"/><path d="M442.16,82.63A115.24,115.24,0,1,0,423.8,260.54l44.68,11.38-11.37-44.68A115.29,115.29,0,0,0,442.16,82.63Z" style="fill:#f94f24"/><path d="M394.54,171.84c11.84-17.07,14.63-32.61,14.74-33.26a4,4,0,0,0-3.94-4.68H368.68v-7.32a4,4,0,1,0-8,0v7.32H324a4,4,0,0,0,0,8h76.2A89.87,89.87,0,0,1,366.3,189a140,140,0,0,1-30.57-35.06,4,4,0,0,0-7,3.9,143.29,143.29,0,0,0,30.39,35.71,104.34,104.34,0,0,1-35.76,12.19,4,4,0,0,0,.63,8,4.58,4.58,0,0,0,.63-.05c16.92-2.69,30.46-8.15,41.25-14.76a115.06,115.06,0,0,0,25.75,14.52,3.9,3.9,0,0,0,1.48.29,4,4,0,0,0,1.49-7.71A105,105,0,0,1,373,194,95.2,95.2,0,0,0,394.54,171.84Z" style="fill:#ccc;mix-blend-mode:multiply"/><path d="M320,209.65a4,4,0,0,1-.62-8c55.86-8.87,72.68-49.83,76.83-63.8H320a4,4,0,0,1,0-8h81.33a4,4,0,0,1,3.94,4.68c-.11.65-2.9,16.19-14.74,33.25-10.91,15.72-31.9,35.73-69.91,41.77A4.46,4.46,0,0,1,320,209.65Z" style="fill:#fff"/><path d="M360.67,137.9a4,4,0,0,1-4-4V122.57a4,4,0,0,1,8,0V133.9A4,4,0,0,1,360.67,137.9Z" style="fill:#fff"/><path d="M389.12,209.65a4.06,4.06,0,0,1-1.48-.29c-40.57-16.23-62-54-62.9-55.56a4,4,0,0,1,7-3.9h0c.2.36,21,36.88,58.88,52a4,4,0,0,1-1.49,7.72Z" style="fill:#fff"/><path d="M126.81,200.23a123.31,123.31,0,1,1,19.65,190.38L98.64,402.79,110.81,355A123.35,123.35,0,0,1,126.81,200.23Z" style="fill:#ccc;mix-blend-mode:multiply"/><path d="M116.47,200.23a123.31,123.31,0,1,1,19.64,190.38L88.3,402.79,100.47,355A123.35,123.35,0,0,1,116.47,200.23Z" style="fill:url(#c)"/><path d="M232.8,320a4,4,0,0,1-3.7-2.49l-25.44-62.41-25.43,62.41a4,4,0,1,1-7.4-3l28.88-70.89a4,4,0,0,1,3.71-2.49h.49a4,4,0,0,1,3.7,2.49l28.89,70.89a4,4,0,0,1-2.19,5.21A4,4,0,0,1,232.8,320Z" style="fill:#fff"/><path d="M221.07,294.09h-36a4,4,0,0,1,0-8h36a4,4,0,0,1,0,8Z" style="fill:#fff"/></g></svg>