<?xml version="1.0" encoding="UTF-8"?>
<svg width="50px" height="50px" viewBox="0 0 50 50" version="1.1" xmlns="http://www.w3.org/2000/svg" xmlns:xlink="http://www.w3.org/1999/xlink">
    <!-- Generator: Sketch 55.2 (78181) - https://sketchapp.com -->
    <title>site-apps-icon</title>
    <desc>Created with Sketch.</desc>
    <g id="Homepage" stroke="none" stroke-width="1" fill="none" fill-rule="evenodd">
        <g id="Desktop-HD" transform="translate(-246.000000, -2511.000000)" fill-rule="nonzero">
            <g id="More-than-CMS" transform="translate(-472.000000, 1975.000000)">
                <g id="Build-sites-and-apps" transform="translate(718.000000, 536.000000)">
                    <g id="site-apps-icon">
                        <circle id="Oval-2" fill="#F7F7F7" cx="25" cy="25" r="25"></circle>
                        <g id="cogs-solid" transform="translate(9.000000, 12.000000)" fill="#00CCB0">
                            <path d="M25.6075854,9.57664153 L25.1975515,10.2940583 C25.0475391,10.559954 24.7275127,10.6703258 24.4424891,10.5649709 C23.8524404,10.3442273 23.3123957,10.0281626 22.8373565,9.63182743 C22.6073375,9.44118522 22.5473325,9.1050529 22.6973449,8.84417408 L23.1073788,8.12675733 C22.7623503,7.7254053 22.492328,7.25883357 22.3123131,6.75212663 L21.4872449,6.75212663 C21.1872201,6.75212663 20.9271987,6.53639992 20.8771945,6.2353859 C20.7771863,5.63335786 20.7721858,5.00122841 20.8771945,4.37411587 C20.9271987,4.07310185 21.1872201,3.85235823 21.4872449,3.85235823 L22.3123131,3.85235823 C22.492328,3.3456513 22.7623503,2.87907957 23.1073788,2.47772754 L22.6973449,1.76031079 C22.5473325,1.49943197 22.6023371,1.16329965 22.8373565,0.972657436 C23.3123957,0.576322308 23.8574408,0.260257586 24.4424891,0.0395139712 C24.7275127,-0.065840936 25.0475391,0.0445308716 25.1975515,0.31042659 L25.6075854,1.02784334 C26.1326288,0.932522233 26.667673,0.932522233 27.1927164,1.02784334 L27.6027502,0.31042659 C27.7527626,0.0445308716 28.0727891,-0.065840936 28.3578126,0.0395139712 C28.9478614,0.260257586 29.487906,0.576322308 29.9629453,0.972657436 C30.1929643,1.16329965 30.2529692,1.49943197 30.1029568,1.76031079 L29.6929229,2.47772754 C30.0379515,2.87907957 30.3079738,3.3456513 30.4879886,3.85235823 L31.3130568,3.85235823 C31.6130816,3.85235823 31.8731031,4.06808495 31.9231072,4.36909897 C32.0231155,4.97112701 32.0281159,5.60325645 31.9231072,6.230369 C31.8731031,6.53138302 31.6130816,6.75212663 31.3130568,6.75212663 L30.4879886,6.75212663 C30.3079738,7.25883357 30.0379515,7.7254053 29.6929229,8.12675733 L30.1029568,8.84417408 C30.2529692,9.1050529 30.1979647,9.44118522 29.9629453,9.63182743 C29.487906,10.0281626 28.942861,10.3442273 28.3578126,10.5649709 C28.0727891,10.6703258 27.7527626,10.559954 27.6027502,10.2940583 L27.1927164,9.57664153 C26.6726734,9.67196263 26.1326288,9.67196263 25.6075854,9.57664153 L25.6075854,9.57664153 Z M25.082542,6.62670412 C27.0077011,8.11170663 29.2028825,5.90928738 27.7227602,3.97778074 C25.7976011,2.48776134 23.6024197,4.69519749 25.082542,6.62670412 L25.082542,6.62670412 Z M19.3170656,14.3477138 L21.0022049,15.190553 C21.5072466,15.4815332 21.7272648,16.098612 21.5272482,16.650471 C21.0822115,17.8645609 20.2071392,18.9783128 19.3970722,19.9515914 C19.0270416,20.3980956 18.3869888,20.5084674 17.881947,20.2174872 L16.4268268,19.3746479 C15.6267607,20.0619633 14.6966838,20.6088054 13.6816,20.9650053 L13.6816,22.6506838 C13.6816,23.2326443 13.2665657,23.7343343 12.6965186,23.8346723 C11.4664169,24.0453821 10.1763103,24.0554159 8.90120498,23.8346723 C8.32615746,23.7343343 7.90112234,23.2376612 7.90112234,22.6506838 L7.90112234,20.9650053 C6.88603847,20.6037885 5.95596162,20.0619633 5.15589551,19.3746479 L3.70077528,20.2124703 C3.20073396,20.5034505 2.55568067,20.3930787 2.18565009,19.9465745 C1.37558316,18.9732959 0.520512505,17.859544 0.0754757327,16.650471 C-0.124540794,16.1036289 0.0954773854,15.4865501 0.600519116,15.190553 L2.2656567,14.3477138 C2.07064059,13.2991816 2.07064059,12.220548 2.2656567,11.1669989 L0.600519116,10.3191428 C0.0954773854,10.0281626 -0.129541207,9.41108382 0.0754757327,8.86424168 C0.520512505,7.6501518 1.37558316,6.53639992 2.18565009,5.56312125 C2.55568067,5.11661712 3.19573355,5.00624531 3.70077528,5.29722553 L5.15589551,6.14006479 C5.95596162,5.45274944 6.88603847,4.90590731 7.90112234,4.54970738 L7.90112234,2.85901197 C7.90112234,2.28206843 8.31115622,1.78037839 8.88120333,1.68004038 C10.111305,1.46933057 11.406412,1.45929677 12.6815173,1.67502348 C13.2565649,1.77536149 13.6816,2.27203462 13.6816,2.85901197 L13.6816,4.54469048 C14.6966838,4.90590731 15.6267607,5.44773254 16.4268268,6.13504789 L17.881947,5.29220863 C18.3819884,5.00122841 19.0270416,5.11160022 19.3970722,5.55810435 C20.2071392,6.53138302 21.0572094,7.6451349 21.5022462,8.85922478 C21.7022627,9.40606692 21.5072466,10.0231457 21.0022049,10.3191428 L19.3170656,11.161982 C19.5120817,12.2155311 19.5120817,13.2941647 19.3170656,14.3477138 Z M13.4365797,15.4062797 C16.3968243,11.5432665 12.0014611,7.13341106 8.151143,10.1034161 C5.19089841,13.9664293 9.58626158,18.3762847 13.4365797,15.4062797 Z M25.6075854,24.5721567 L25.1975515,25.2895734 C25.0475391,25.5554691 24.7275127,25.6658409 24.4424891,25.560486 C23.8524404,25.3397424 23.3123957,25.0236777 22.8373565,24.6273426 C22.6073375,24.4367004 22.5473325,24.100568 22.6973449,23.8396892 L23.1073788,23.1222725 C22.7623503,22.7209204 22.492328,22.2543487 22.3123131,21.7476418 L21.4872449,21.7476418 C21.1872201,21.7476418 20.9271987,21.5319151 20.8771945,21.230901 C20.7771863,20.628873 20.7721858,19.9967435 20.8771945,19.369631 C20.9271987,19.068617 21.1872201,18.8478734 21.4872449,18.8478734 L22.3123131,18.8478734 C22.492328,18.3411664 22.7623503,17.8745947 23.1073788,17.4732427 L22.6973449,16.7558259 C22.5473325,16.4949471 22.6023371,16.1588148 22.8373565,15.9681726 C23.3123957,15.5718374 23.8574408,15.2557727 24.4424891,15.0350291 C24.7275127,14.9296742 25.0475391,15.040046 25.1975515,15.3059417 L25.6075854,16.0233585 C26.1326288,15.9280374 26.667673,15.9280374 27.1927164,16.0233585 L27.6027502,15.3059417 C27.7527626,15.040046 28.0727891,14.9296742 28.3578126,15.0350291 C28.9478614,15.2557727 29.487906,15.5718374 29.9629453,15.9681726 C30.1929643,16.1588148 30.2529692,16.4949471 30.1029568,16.7558259 L29.6929229,17.4732427 C30.0379515,17.8745947 30.3079738,18.3411664 30.4879886,18.8478734 L31.3130568,18.8478734 C31.6130816,18.8478734 31.8731031,19.0636001 31.9231072,19.3646141 C32.0231155,19.9666421 32.0281159,20.5987716 31.9231072,21.2258841 C31.8731031,21.5268982 31.6130816,21.7476418 31.3130568,21.7476418 L30.4879886,21.7476418 C30.3079738,22.2543487 30.0379515,22.7209204 29.6929229,23.1222725 L30.1029568,23.8396892 C30.2529692,24.100568 30.1979647,24.4367004 29.9629453,24.6273426 C29.487906,25.0236777 28.942861,25.3397424 28.3578126,25.560486 C28.0727891,25.6658409 27.7527626,25.5554691 27.6027502,25.2895734 L27.1927164,24.5721567 C26.6726734,24.6674778 26.1326288,24.6674778 25.6075854,24.5721567 Z M25.082542,21.6172024 C27.0077011,23.1022049 29.2028825,20.8997856 27.7227602,18.968279 C25.7976011,17.4832765 23.6024197,19.6856957 25.082542,21.6172024 L25.082542,21.6172024 Z" id="Shape"></path>
                        </g>
                    </g>
                </g>
            </g>
        </g>
    </g>
</svg>