<?xml version="1.0" encoding="UTF-8"?>
<svg width="50px" height="50px" viewBox="0 0 50 50" version="1.1" xmlns="http://www.w3.org/2000/svg" xmlns:xlink="http://www.w3.org/1999/xlink">
    <!-- Generator: Sketch 55.2 (78181) - https://sketchapp.com -->
    <title>lambda-icon</title>
    <desc>Created with Sketch.</desc>
    <g id="Homepage" stroke="none" stroke-width="1" fill="none" fill-rule="evenodd">
        <g id="Desktop-HD" transform="translate(-246.000000, -2581.000000)" fill-rule="nonzero">
            <g id="More-than-CMS" transform="translate(-472.000000, 1975.000000)">
                <g id="Lambda-optimized" transform="translate(718.000000, 606.000000)">
                    <g id="lambda-icon">
                        <circle id="Oval-2" fill="#F7F7F7" cx="25" cy="25" r="25"></circle>
                        <g id="aws-lambda-1" transform="translate(9.000000, 8.000000)" fill="#00CCB0">
                            <path d="M15.9617133,17.8708282 C15.8399617,18.0438839 15.7373534,18.1863103 15.6385738,18.3302682 C14.0632049,20.648909 12.4883465,22.9672946 10.9139986,25.285425 C9.44940576,27.4417303 7.98328149,29.5967594 6.51562575,31.7505123 C6.46636946,31.8189122 6.39037814,31.8631708 6.30658052,31.8722639 C4.23450586,31.8543968 2.16294169,31.8319353 0.0918880115,31.8048794 C0.0689160086,31.8048794 0.0451782723,31.7979878 -1.13242749e-14,31.7910962 C0.0167275772,31.7478011 0.0361646107,31.7056023 0.0581957406,31.6647502 C1.50338997,29.4242141 2.94858419,27.1841886 4.39377842,24.9446736 C5.67561618,22.9598925 6.95821967,20.975622 8.2415889,18.9918619 C9.66381112,16.7875706 11.0852676,14.5817478 12.5059584,12.3743936 C12.7157693,12.0489569 12.9340034,11.7296461 13.133094,11.3980835 C13.1841449,11.3093288 13.1994777,11.2044631 13.1759751,11.1048076 C12.7931084,9.8842285 12.4025844,8.66671235 12.012826,7.44919619 C11.8458961,6.92773173 11.6713089,6.4093302 11.5150993,5.8848028 C11.4645609,5.71634144 11.381096,5.6650373 11.2088059,5.66580304 C9.90705911,5.67116317 8.61296961,5.6696317 7.31505145,5.6696317 C7.06848528,5.6696317 7.06771955,5.6696317 7.06771955,5.42612847 C7.06771955,3.83034001 7.06771955,2.23455154 7.06312515,0.638763076 C7.06312515,0.46111292 7.12132089,0.421294782 7.28825078,0.421294782 C9.90144373,0.425889182 12.5151472,0.425889182 15.1293611,0.421294782 C15.2549521,0.405234768 15.3729512,0.484884184 15.4050251,0.607368005 C16.7833453,4.07409848 18.1616655,7.53955274 19.5399856,11.0037308 C21.1480258,15.0437403 22.756066,19.0842604 24.3641062,23.125291 C24.8633644,24.3795623 25.3664513,25.6330679 25.8603494,26.8904022 C25.9193108,27.0435489 25.9805695,27.0726468 26.1352477,27.0251713 C27.5051448,26.6017207 28.8781048,26.1897561 30.2472362,25.7655398 C30.4195262,25.7119385 30.4823163,25.7479279 30.5359177,25.9186865 C31.0030151,27.3865975 31.4793013,28.8514455 31.9525245,30.3178251 C31.9686049,30.3683635 31.9808567,30.4196676 32,30.4901151 C31.9019861,30.5261045 31.8100981,30.5666884 31.7159129,30.5927234 C28.6019303,31.5794985 25.4897344,32.5667841 22.3793252,33.5545803 C22.2307729,33.60129 22.1863604,33.5507516 22.1365877,33.425937 C21.1865678,31.0184711 20.2342506,28.6120262 19.2796363,26.2066023 C18.345952,23.8512062 17.4117572,21.4958102 16.4770519,19.1404142 C16.3369227,18.7866453 16.1990907,18.431345 16.0589615,18.0775762 C16.0367552,18.0170832 16.0061259,17.9642476 15.9617133,17.8708282 L15.9617133,17.8708282 Z" id="Path"></path>
                        </g>
                    </g>
                </g>
            </g>
        </g>
    </g>
</svg>