<svg width="73" height="30" viewBox="0 0 73 30" fill="none" xmlns="http://www.w3.org/2000/svg">
<path fill-rule="evenodd" clip-rule="evenodd" d="M50.1105 3.7927L50.074 3.25889L49.5028 3.33252L49.5393 3.86633L50.1105 3.7927ZM51.4601 7.63084L51.4739 7.75544L51.9296 7.73208C51.9158 7.6542 51.9711 7.5296 52.0677 7.37384L52.0263 7.148C51.833 7.15579 51.6396 7.31933 51.4601 7.63084ZM44.8633 12.5971C44.8526 12.4527 44.4032 11.8912 43.5151 10.9018C43.499 10.72 43.804 10.4472 44.4299 10.0889L46.2168 8.53269C46.6181 8.02464 46.8535 7.20106 46.923 6.0566L46.9016 5.79455C46.8321 5.00306 46.2596 4.36666 45.1736 3.88C44.5316 3.44682 43.376 3.20616 41.7068 3.16338C40.3265 3.28103 38.5236 3.77304 36.3033 4.64475C35.6934 5.08328 34.9979 5.52181 34.2168 5.96034L34.2275 6.09404C34.2757 6.08869 34.3505 6.06195 34.4361 6.00312C34.5271 5.99243 34.5806 6.03521 34.5859 6.12078L34.7197 6.05125L34.7839 6.04591L34.7892 6.10473C34.7946 6.17426 34.3131 6.55396 33.3394 7.23314L33.4143 7.37219L33.3501 7.37754L33.1896 7.31871C33.195 7.36684 33.1254 7.39893 32.9916 7.40963L32.997 7.46845L33.1521 7.66098C33.104 7.66633 33.0291 7.64493 32.9275 7.6075C32.7028 7.62889 32.4834 7.74655 32.2641 7.97116L32.355 7.57541C32.6813 6.16891 32.9061 4.92284 33.0237 3.84257L33.0077 3.77304C32.783 3.62865 32.5637 3.42543 32.3604 3.16873C32.3657 3.00294 32.3657 2.90668 32.3604 2.88529L32.3443 2.82646L32.2801 2.8425C31.5739 3.90139 30.215 5.70899 28.1981 8.26529C26.6626 10.0836 25.8708 11.0943 25.8227 11.2976C25.1967 11.9447 24.8971 12.3351 24.9292 12.4688C24.7634 12.5757 24.6938 12.6827 24.7206 12.8003C24.6724 12.811 24.6403 12.795 24.6296 12.7468C24.3621 13.18 23.9662 13.4581 23.4366 13.5811L22.8802 13.7095C22.8053 13.7255 22.7678 13.779 22.7732 13.8699L22.7892 13.9394L22.9979 13.8913L23.0139 13.9501L22.5431 14.132L21.7085 14.3245L21.2698 14.3512C21.2056 14.4154 21.6176 14.3459 21.4571 14.3833L20.9114 14.5117C20.5797 14.5865 20.3978 14.5598 20.3657 14.4261L20.3015 14.4421C20.3122 14.501 20.3175 14.5437 20.3068 14.5812L20.2747 14.4475L19.836 14.5491C19.8039 14.3459 19.2101 13.6079 18.0598 12.3351C18.0384 12.0891 18.445 11.7307 19.2743 11.2655L21.6176 9.20653C22.1419 8.53269 22.4522 7.45241 22.5538 5.96569L22.5217 5.61807C22.4308 4.56988 21.6711 3.72491 20.2426 3.07246C19.3973 2.50024 17.8779 2.19541 15.6844 2.14727C13.8654 2.30236 11.49 2.94946 8.56891 4.07787C7.76641 4.66079 6.85156 5.23837 5.82436 5.8106L5.84041 5.99243C5.90996 5.98708 6.00091 5.94964 6.11326 5.88547C6.23096 5.87477 6.29516 5.92825 6.30586 6.03521L6.48776 5.9336L6.57871 5.92825L6.58406 6.01382C6.58941 6.09939 5.95276 6.59674 4.66341 7.50589L4.76506 7.66632L4.67411 7.67167L4.47616 7.60215C4.48151 7.65563 4.39056 7.69306 4.20331 7.70911L4.21401 7.80537L4.42801 8.04068C4.35846 8.04603 4.26216 8.02464 4.13911 7.98185C3.72181 8.01929 3.31521 8.31877 2.91396 8.88565L3.01561 9.04609C3.36336 8.72521 3.56666 8.56477 3.62551 8.55943L3.64691 8.82148C3.58806 8.82682 3.49711 8.86426 3.37406 8.92843L3.59341 9.26C4.01606 8.80543 4.48151 8.41503 4.98976 8.08881C5.24121 8.15299 5.37496 8.2332 5.38031 8.31877L5.57291 8.30273C6.95321 7.28127 8.31746 6.54326 9.67101 6.08869L9.68706 6.27052C9.43561 6.64487 9.26441 6.8374 9.17346 6.84809C9.18416 6.97644 9.22696 7.08875 9.30721 7.18501C9.32861 7.41497 8.71336 8.96587 7.46681 11.8324C4.63666 18.4959 2.26126 23.4266 0.329915 26.614C0.335266 26.6782 0.372715 26.7637 0.442265 26.8707C0.918415 26.7584 1.21802 26.6407 1.34641 26.5284L1.44806 26.5177L1.46411 26.6996L1.64066 26.6835L1.82256 26.5819C1.82791 26.6354 1.88676 26.6621 2.00981 26.6514L2.02586 26.8333C2.04191 27.0097 1.94026 27.2771 1.72626 27.6461C1.53366 27.8654 1.32501 28.3253 1.10566 29.0259L1.11101 29.1115L1.28756 29.0954C2.05796 28.2344 2.64111 27.3894 3.04236 26.5659C5.28936 25.9081 7.00136 25.261 8.18906 24.6246C9.38211 24.523 10.2916 24.2074 10.9122 23.6887L10.9015 23.5924L10.4521 23.7261L10.3505 23.7368L10.3398 23.6406C11.2172 23.5069 11.8217 23.3143 12.1588 23.0469C13.8654 21.7314 15.1548 20.8008 16.0268 20.25C17.8191 18.9344 18.9854 17.6509 19.515 16.4048C19.6113 16.3834 19.7076 16.362 19.8146 16.3353C20.0661 16.3246 20.2052 16.3193 20.2426 16.3086C20.2319 16.2604 20.2533 16.2337 20.3015 16.223C20.7027 16.1802 20.5101 16.2497 20.7669 16.1909L21.441 16.0358C21.3982 16.0465 21.3822 16.0679 21.3929 16.1107L21.4945 16.0465C21.4731 16.0465 21.4571 16.0412 21.441 16.0358L21.5534 16.0091L21.4999 16.0412C21.5748 16.0519 21.655 16.0465 21.746 16.0251L21.7941 16.223L18.7286 21.095L18.0491 21.9453L17.7174 23.0576L17.7816 23.0416L18.1133 22.9025L18.0063 23.3357L18.0384 23.4641L18.1294 23.5764C18.0866 23.5871 18.0705 23.6138 18.0812 23.662L18.0973 23.7315L18.2364 23.6994C18.4397 23.5229 18.5253 23.3625 18.4932 23.2181C18.7125 23.2555 18.857 23.2716 18.9319 23.2502L18.9479 23.3197C18.8142 23.3518 18.7446 23.4587 18.7339 23.6406L18.75 23.7101L18.8249 23.694C19.9377 22.4801 22.6662 18.3247 24.8543 15.5064C24.7848 15.2015 25.9243 14.7791 28.2783 14.2336L28.3532 14.2175C28.4388 14.5865 28.2569 15.4796 27.8075 16.8968C27.5186 17.7525 27.3795 18.2231 27.4009 18.298C27.0264 19.4371 26.8499 20.0521 26.8713 20.1484L26.0367 22.8812C25.4963 24.2823 25.0844 25.753 24.7955 27.3039C24.8436 27.2932 24.9185 27.2985 25.0255 27.3253L25.1432 27.2237C25.1539 27.2718 25.186 27.2878 25.2342 27.2771L25.186 27.0793L25.5498 27.0686C25.6568 27.0418 25.7478 26.9081 25.8227 26.6621C25.8066 26.2931 25.8815 26.0953 26.0474 26.0525C26.2721 25.1754 26.4112 24.7369 26.4593 24.7208C26.668 23.8491 26.8231 23.3518 26.9248 23.2288C27.2404 22.095 27.4705 21.5121 27.6203 21.4747L27.6524 21.6137L27.4223 22.2073C27.0211 23.9882 26.6145 25.3947 26.2025 26.4268L26.3202 26.9402L26.3951 26.9242C27.3902 24.785 28.824 20.5495 30.6912 14.2175C30.7447 13.6613 31.0122 13.2282 31.4883 12.9233L31.3813 12.811L31.3653 12.7522C31.5793 12.7041 31.7291 12.6185 31.8147 12.5008C31.804 12.4527 31.6167 12.3832 31.2529 12.2869L32.1838 8.29738C32.3871 8.11555 32.5048 8.01929 32.5423 8.01929L32.5583 8.22251C32.5102 8.22786 32.4353 8.2546 32.3497 8.31342L32.5262 8.56478C32.8472 8.21716 33.195 7.91768 33.5748 7.66632C33.7674 7.7198 33.8637 7.78398 33.8744 7.84815L34.0135 7.83746C35.0728 7.06201 36.1107 6.50583 37.1325 6.16891L37.1432 6.30261C36.956 6.58605 36.8276 6.73044 36.758 6.73579C36.7687 6.83205 36.7955 6.91762 36.8436 6.99249C36.8597 7.16897 36.3996 8.34551 35.458 10.5275C33.3073 15.5812 31.5043 19.3194 30.0385 21.7474C30.0438 21.7955 30.0759 21.8597 30.1348 21.9453C30.4932 21.8597 30.7233 21.7688 30.8142 21.6832L30.8784 21.6779L30.8891 21.8116L31.0389 21.8009L31.1727 21.7313C31.178 21.7688 31.2262 21.7848 31.3171 21.7795L31.3278 21.9239C31.3385 22.0522 31.2636 22.2554 31.0977 22.5335C30.9426 22.6993 30.7821 23.0469 30.6109 23.5764L30.6163 23.6459L30.7554 23.6352C31.3385 22.9828 31.7826 22.341 32.0875 21.71C33.7942 21.2073 35.0942 20.7206 35.993 20.2393C36.9078 20.1591 37.598 19.9238 38.0688 19.528L38.0634 19.4585L37.7157 19.5601L37.6408 19.5654L37.6354 19.4959C38.2989 19.3997 38.7643 19.2499 39.0157 19.052C40.3105 18.0573 41.2895 17.3461 41.9529 16.9289C44.018 15.4262 44.981 13.9822 44.8633 12.5971ZM44.7834 12.6885L44.8885 13.2286C44.7483 13.3623 44.5964 13.4319 44.4562 13.4372L44.2809 12.5174C44.6081 12.5708 44.7717 12.6243 44.7834 12.6885ZM4.06681 8.73252L3.91924 8.74894L3.89319 8.24L4.49219 8.1415L4.50087 8.40418C4.40538 8.42059 4.2578 8.5191 4.06681 8.73252ZM2.19811 26.3644C1.98411 26.2681 1.79151 26.2307 1.62566 26.2467L1.60426 25.9846C1.59356 25.883 1.65241 25.8135 1.78081 25.7868C1.89851 25.7761 1.96806 25.8616 1.97876 26.0328C2.28906 25.6531 2.46026 25.4606 2.49236 25.4552L2.69031 25.5354C2.62611 26.0702 2.46026 26.343 2.19811 26.3644L2.19811 26.3644ZM21.5199 6.21769C21.4196 6.22838 21.219 5.94494 20.9299 5.38341L20.9122 5.21763C21.101 5.20158 21.2957 5.47967 21.5022 6.0519L21.5199 6.21769ZM21.2069 4.22342L21.132 4.3999L18.5158 3.30893C20.2599 3.36776 21.1587 3.67259 21.2069 4.22342V4.22342ZM10.3818 14.0472L9.79941 14.1457L9.77409 13.6367L10.3565 13.5382L10.3818 14.0472ZM10.0331 8.00972L10.1896 8.00437L10.2265 8.26642C10.0791 8.27177 9.88578 8.40012 9.64639 8.64612L9.61877 8.4643C9.9042 8.26642 10.0515 8.11668 10.0331 8.00972H10.0331ZM9.44153 9.83735L9.60005 10.4356L9.1509 10.4448L8.99237 9.84656L9.44153 9.83735ZM8.80545 10.4949L9.12889 10.4737C9.09949 10.8552 8.95247 11.06 8.68783 11.0741L8.52121 11.0812C8.72704 10.8269 8.82505 10.6291 8.80545 10.4949L8.80545 10.4949ZM8.5519 11.4068L8.72953 11.3897L8.73888 11.5266L8.44907 11.9714L8.14055 11.9971L8.1312 11.8602C8.43972 11.8346 8.57995 11.6891 8.5519 11.4068ZM8.4977 12.2191L8.31897 12.8192L8.01513 12.8265L7.89002 12.2337L8.49769 12.2191H8.4977ZM5.28787 20.7486C5.10448 21.3475 4.90443 21.6523 4.69603 21.663L4.6877 21.5775C4.63768 21.2833 4.83774 21.0053 5.28787 20.7486H5.28787ZM4.94174 21.9394L4.96103 22.1264C4.99962 22.3833 4.8067 22.5352 4.38229 22.5469L4.363 22.36C4.32442 22.138 4.51733 21.9979 4.94174 21.9394ZM4.41568 24.4632L4.79083 24.3892L4.80526 24.6558C4.71147 24.6707 4.58883 24.7744 4.43733 24.9522L4.19925 24.9966C4.18482 24.7447 4.26418 24.5521 4.41568 24.4632H4.41568ZM12.2775 21.9729C10.7153 22.743 9.79512 23.2671 9.52227 23.5398C7.83167 24.1281 6.99172 24.4917 7.00777 24.6361C5.50442 25.2297 4.51467 25.6683 4.03852 25.941C3.92617 25.9517 3.76567 25.9089 3.55167 25.8127C3.52492 25.5078 3.66402 25.2618 3.95827 25.064C4.22042 25.0426 4.47187 25.08 4.71262 25.1816C4.99082 25.0372 5.47767 24.8768 6.16782 24.7057L6.15177 24.5238L5.59537 24.572C5.66492 24.4757 6.19992 24.2243 7.20572 23.8179L7.48392 23.7912L7.48927 23.8767C7.01312 23.9195 6.75098 24.0586 6.69212 24.3099C6.70283 24.4222 6.76702 24.4703 6.88472 24.4596C7.24318 24.235 7.41972 24.1013 7.41437 24.0639C8.09382 23.9355 9.97167 22.9515 13.0479 21.1172L13.064 21.283C13.0693 21.3632 12.8072 21.5878 12.2775 21.9729V21.9729ZM7.55858 23.5234C8.00798 23.4859 8.39318 23.3041 8.71418 22.9886C8.84258 22.9779 8.91213 23.026 8.91748 23.1383C8.69813 23.1597 8.27548 23.3415 7.66023 23.6945L7.56928 23.6999L7.55858 23.5234H7.55858ZM15.1715 17.6783L12.8122 19.5447C11.0574 20.6945 10.1158 21.2721 9.98203 21.2828C7.18933 22.8177 5.45058 23.6145 4.77648 23.6733L4.67483 23.684C4.76043 23.3685 6.00163 20.8282 8.40913 16.0472C9.46843 15.9563 11.1376 15.4643 13.4114 14.5658L13.9678 14.5177C15.118 14.4161 15.9794 14.6407 16.5465 15.1755L16.5786 15.5231C16.1506 16.7531 15.6798 17.4697 15.1715 17.6783L15.1715 17.6783ZM10.5598 15.2176L11.159 15.052L11.1675 15.4937L10.5682 15.6594L10.5598 15.2176ZM15.8949 14.1935L16.1731 14.1542C16.4299 14.3347 16.5636 14.4916 16.5743 14.6328L16.5797 14.7583C16.3336 14.7897 16.1035 14.6014 15.8949 14.1935H15.8949ZM16.6483 9.88548C16.4022 10.1796 15.7281 10.6823 14.626 11.3883C14.2622 11.4203 12.9086 11.9444 10.5653 12.9712C10.4476 12.9178 10.3246 12.8964 10.1908 12.9071L10.1748 12.7413C10.148 12.4044 10.2978 11.9819 10.6295 11.4685C10.8114 10.5058 11.0094 9.95501 11.2287 9.82131L13.1815 5.43067C13.1601 5.15792 13.5774 4.94936 14.4334 4.80496L14.7116 4.77822L14.733 5.02957C15.5729 4.90122 16.0972 4.82635 16.3005 4.81031C17.852 4.67661 18.6599 4.99214 18.7241 5.74619L18.9006 5.73015L18.8632 5.28627L19.0558 5.27023C19.5105 5.52158 19.7566 5.82641 19.7887 6.18472C19.8101 6.43073 19.6764 6.73556 19.3928 7.09922C19.2751 7.10991 19.2056 7.02435 19.1949 6.85321L19.0023 6.86926L18.9595 7.40405C18.173 8.58059 17.6006 9.18491 17.2475 9.21699C16.9265 9.66087 16.7285 9.88014 16.6483 9.88548ZM17.8738 13.1399C17.7026 12.9881 17.5657 12.9197 17.463 12.9273L17.4402 12.5553L17.6285 12.5325L18.0449 12.859C18.062 13.0336 18.005 13.1247 17.8738 13.1399L17.8738 13.1399ZM19.0886 14.433C19.4422 14.5527 19.6521 14.6815 19.6963 14.8012L19.5195 14.838L19.5306 14.8472C19.4974 14.8472 19.4532 14.8564 19.4201 14.8656L19.1549 15.0405L19.0886 14.433ZM19.2299 15.6551L19.1894 15.3118L19.7566 15.0477L19.7971 15.391L19.2299 15.6551ZM19.7455 15.9793C19.9756 15.8908 20.0879 15.8528 20.5159 15.625L20.532 15.7895L19.7188 16.2324C19.7295 16.1439 19.7402 16.0553 19.7455 15.9793H19.7455ZM20.5379 16.2795C20.1955 16.3331 20.2704 16.2617 19.7247 16.4671L19.7086 16.351L20.3881 15.9847L20.7144 15.8597L20.7465 16.0741C20.6021 16.1277 20.7091 16.1277 20.5379 16.2795H20.5379ZM21.3687 16.3647C21.2404 16.4426 21.1376 16.3063 21.0777 15.9752L21.4115 15.8C21.557 15.7221 21.6512 15.8584 21.6854 16.1894L21.3687 16.3647ZM23.2283 14.29L23.2019 14.008L23.7567 13.6826L23.8095 14.2033L23.2283 14.29ZM25.3105 27.0276C25.3582 26.7803 25.3701 26.6016 25.3463 26.4779L25.5131 26.4367C25.7157 26.3817 25.8348 26.4642 25.8825 26.6841L25.9182 26.8627L25.3105 27.0276ZM26.7757 14.4541L26.6259 14.4201C26.3851 14.5427 26.1818 14.6312 26.016 14.6789L25.8769 14.7197C25.7966 14.747 25.7324 14.7061 25.7003 14.5971L26.6794 14.3111L27.0004 14.1205L27.1074 14.2771C26.9522 14.3179 26.8399 14.3792 26.7757 14.4541ZM27.5306 14.4022L27.5145 14.2807C27.5627 14.262 27.6269 14.1966 27.6964 14.0751L28.3919 13.7948L28.408 13.9163C28.0388 14.0751 27.7446 14.234 27.5306 14.4022ZM27.6368 12.7386C27.5886 12.7494 27.5244 12.7924 27.4442 12.8569C27.4335 12.8085 27.3372 12.8085 27.1553 12.8515C27.1232 12.7171 27.6368 12.529 28.7014 12.2817L28.8512 12.2495L28.8833 12.3785C28.1343 12.5989 27.717 12.7225 27.6368 12.7386ZM29.5099 10.715C29.435 11.5653 29.1354 12.0466 28.6058 12.1696L28.5897 12.1001L28.1189 12.2819L27.9103 12.33C27.8033 12.3568 27.707 12.3514 27.6214 12.3247L27.5786 12.1375C27.5625 12.068 28.242 11.1268 29.6223 9.31916L29.7828 9.3459C29.8416 9.5919 29.7507 10.0465 29.5099 10.715ZM32.9076 8.31334L32.77 8.33359L32.7471 7.82739L33.3433 7.72615L33.3548 7.98937C33.2516 8.02987 33.1025 8.13111 32.9076 8.31334L32.9076 8.31334ZM31.457 21.5764C31.2965 21.5016 31.152 21.4695 31.029 21.4802L31.0129 21.277C31.0076 21.2074 31.0504 21.1593 31.1413 21.1326C31.2323 21.1219 31.2858 21.186 31.2965 21.3251C31.5265 21.0309 31.6549 20.8812 31.6817 20.8812L31.8261 20.94C31.7726 21.3465 31.6496 21.5604 31.457 21.5764L31.457 21.5764ZM46.2697 6.28014C46.1697 6.28548 45.9774 6.07157 45.6774 5.63839L45.662 5.50469C45.8543 5.49399 46.0543 5.70256 46.2543 6.13039L46.2697 6.28014ZM45.89 4.75234L45.8258 4.89139L43.8463 4.06246C45.1678 4.10525 45.8526 4.33521 45.89 4.75234ZM37.8159 12.3306L37.2308 12.4353L37.2083 11.9116L37.7934 11.8278L37.8159 12.3306ZM37.4915 7.63015L37.6616 7.62355L37.6981 7.87445C37.5401 7.88105 37.3456 7.9999 37.1147 8.23099L37.0904 8.06592C37.3699 7.87445 37.5036 7.72919 37.4915 7.63015V7.63015ZM37.0814 9.01867L37.2164 9.61396L36.7438 9.62611L36.6087 9.03082L37.0814 9.01867ZM36.5282 9.52348L36.8644 9.50535C36.8256 9.88613 36.6833 10.0856 36.4377 10.1037L36.2567 10.1128C36.4506 9.85893 36.5411 9.65948 36.5282 9.52348H36.5282ZM36.3945 10.2063L36.5403 10.1953L36.5525 10.3388L36.273 10.7806L35.957 10.8027L35.9448 10.6591C36.273 10.637 36.4188 10.4824 36.3945 10.2063H36.3945ZM36.3874 10.8227L36.1771 11.4208L35.8966 11.4302L35.7797 10.8414L36.3874 10.8227H36.3874ZM33.9466 17.309C33.7598 17.7582 33.5621 17.9882 33.3534 17.9989L33.3424 17.94C33.3095 17.7154 33.5072 17.5015 33.9466 17.309ZM33.6598 18.2121L33.6837 18.3791C33.7316 18.6525 33.5401 18.8043 33.1092 18.8195L33.0852 18.6221C33.0613 18.4247 33.2528 18.288 33.6598 18.2121ZM33.1896 20.1402L33.5631 20.0794L33.5724 20.3426C33.4884 20.3629 33.3577 20.4641 33.2083 20.6464L32.9655 20.6869C32.9562 20.4034 33.0309 20.2212 33.1896 20.1402ZM39.1014 18.2384C37.9244 18.8214 37.2235 19.2171 37.0042 19.4203C35.7202 19.8695 35.0835 20.1476 35.0942 20.2599C33.9547 20.7145 33.2057 21.0407 32.8526 21.2493C32.767 21.2547 32.6439 21.2226 32.4834 21.1477C32.462 20.9177 32.569 20.7306 32.7937 20.5915C32.997 20.5755 33.1896 20.6022 33.3662 20.6771C33.5802 20.5701 33.9493 20.4525 34.4736 20.3188L34.4629 20.1851L34.0242 20.2172C34.0777 20.1423 34.4897 19.9498 35.2547 19.6396L35.4687 19.6235L35.474 19.6824C35.1103 19.7145 34.907 19.8214 34.8642 20.0139C34.8695 20.0995 34.923 20.1423 35.014 20.1316C35.2814 19.9551 35.4099 19.8535 35.4099 19.8214C35.9234 19.7305 37.3465 18.9818 39.6845 17.5806L39.6952 17.7143C39.7005 17.7732 39.5026 17.9443 39.1013 18.2384L39.1014 18.2384ZM35.5178 19.4742C35.8656 19.4375 36.1598 19.2846 36.4059 19.0155C36.4969 19.0032 36.5504 19.0522 36.5557 19.15C36.3952 19.1684 36.0796 19.3213 35.6034 19.6149L35.5285 19.6211L35.5178 19.4743L35.5178 19.4742ZM41.3069 14.9719L39.5253 16.4052C38.1932 17.2769 37.4709 17.7154 37.3586 17.7261C35.24 18.892 33.9239 19.4963 33.4049 19.5391L33.33 19.5444C33.3942 19.3038 34.3412 17.3732 36.1709 13.7473C36.968 13.6777 38.2306 13.298 39.964 12.6135L40.3974 12.5761C41.2694 12.5012 41.9221 12.6723 42.3501 13.0841L42.3715 13.3462C42.0452 14.266 41.6921 14.8061 41.3069 14.9719L41.3069 14.9719ZM37.8076 13.1452L38.4038 12.9764L38.4153 13.4151L37.8191 13.5839L37.8076 13.1452ZM41.8575 12.3293L42.1055 12.298C42.3349 12.4855 42.4528 12.6522 42.459 12.7876L42.4652 12.9021C42.2481 12.9334 42.0435 12.7459 41.8575 12.3293V12.3293ZM42.4188 9.05846C42.2316 9.28307 41.7233 9.66812 40.8941 10.2029C40.6159 10.2296 39.5887 10.6254 37.8125 11.3955C37.7269 11.3634 37.6306 11.3527 37.5289 11.3581L37.5182 11.2244C37.4968 10.9677 37.6092 10.6468 37.8553 10.2564C37.9944 9.51838 38.1495 9.10659 38.31 9.01032L39.8027 5.67322C39.7866 5.47535 40.1023 5.31491 40.7443 5.19191L40.9583 5.17586L40.9743 5.37909C41.6056 5.27748 42.0015 5.21865 42.162 5.2026C43.339 5.10099 43.9543 5.3363 44.0024 5.91388L44.1415 5.90318L44.1148 5.58231L44.2539 5.57161C44.5963 5.75879 44.7782 5.9834 44.7996 6.2508C44.8156 6.44332 44.7193 6.67863 44.516 6.95138C44.4251 6.96207 44.3716 6.8979 44.3609 6.75885L44.2218 6.76955L44.179 7.17064C43.5851 8.07444 43.1518 8.53971 42.8789 8.5611C42.6382 8.88732 42.4884 9.05311 42.4188 9.05845V9.05846ZM43.0509 11.4678L43.0287 11.0894L43.2212 11.0694L43.6358 11.408C43.6432 11.5673 43.584 11.657 43.4581 11.6769C43.2804 11.5275 43.1472 11.4578 43.0509 11.4678H43.0509ZM18.444 24.2719L18.1407 24.3544L17.8841 24.6155C17.9307 24.8354 18.0474 24.9179 18.2457 24.8629C18.444 24.8079 18.5256 24.6705 18.479 24.4506L18.444 24.2719ZM17.6246 23.4831L17.6982 23.6667C18.1151 23.6102 18.2868 23.4689 18.1887 23.2429L18.1151 23.0593C17.7227 23.1158 17.551 23.257 17.6246 23.4831ZM21.4481 14.6916L21.9545 14.5627L21.8532 14.0841L21.3468 14.213L21.4481 14.6916ZM69.9232 18.3352C68.2968 18.8155 68.0935 18.7308 67.7511 18.7661L67.7618 18.9427L67.9116 18.9285L67.9919 18.9215L67.9705 18.9003L68.147 18.8085C69.7574 18.5754 69.9446 18.6601 69.9286 18.42L69.9232 18.3352ZM61.1653 19.4972L61.3678 20.1047H61.7729L61.5704 19.4972H61.1653ZM60.4512 15.9722L60.1734 15.9241C59.947 16.2396 59.8338 16.4268 59.8441 16.4803L59.8544 16.5391C60.0705 16.5338 60.266 16.3412 60.4512 15.9722H60.4512ZM70.2552 18.3101L70.2817 18.7703L70.8629 18.9176L70.8365 18.4574L70.2552 18.3101ZM59.1866 19.8004L58.8228 19.7181L58.7586 19.9858L58.7639 20.1196L60.9307 19.7695L60.92 19.5122L59.1866 19.8004ZM58.5905 15.0418L58.5754 14.8492L58.3642 14.864L57.9869 15.1011L58.1982 15.4566C58.4849 15.427 58.6207 15.2937 58.5905 15.0418V15.0418ZM71.2819 17.3238L71.3835 17.3131C71.4424 17.3078 71.4691 17.2597 71.4638 17.1741L71.4049 17.0457C71.0358 17.0778 70.8646 17.0939 70.565 17.2597L70.5596 17.1901L70.1156 17.2329C70.1049 17.0992 70.0674 17.0297 70.0086 17.035L69.7785 17.0564C69.511 17.0778 69.3826 17.0671 69.2489 17.1687C69.2435 17.1206 69.2275 17.0992 69.2007 17.0992L68.9439 17.1206L68.7941 17.2062C68.7888 17.1581 68.7727 17.1367 68.746 17.1367L68.655 17.2169L68.6497 17.1474L68.2912 17.1206L68.2056 17.126L68.2163 17.2597L68.3982 17.3078L68.5694 17.2971C68.6283 17.3345 68.6925 17.3452 68.7674 17.3399L68.9172 17.265L68.9225 17.3238C68.0826 17.5324 68.0879 17.495 67.5101 17.5912C67.4459 17.5485 67.3978 17.5271 67.3657 17.5324L67.355 17.5431C67.2908 17.5378 67.2533 17.495 67.248 17.4254L67.5476 17.388C67.569 17.388 67.585 17.4094 67.7509 17.4415C67.9916 17.3238 68.0023 17.2757 68.1307 17.265L68.12 17.1313C67.2961 17.2918 67.6278 17.1848 66.5953 17.2757L66.5471 17.2811L66.5364 17.1474C67.8633 16.9869 67.4192 17.0778 67.8739 16.9495C67.8793 16.9976 67.8953 17.019 67.9221 17.019C67.9756 16.9655 68.0344 16.9388 68.104 16.9281L68.1949 16.9227C68.6604 16.8853 68.8155 16.9762 69.7357 16.7195L69.7411 16.7783L69.8909 16.7035L70.03 16.6928C70.0193 16.5591 70.2226 16.5377 70.2921 16.5323L70.2814 16.388C68.6658 16.7142 68.2431 16.6233 67.7937 16.7516L67.7884 16.6928C67.3657 16.7677 67.3497 16.7356 67.2427 16.7409C67.2106 16.7463 67.1624 16.773 67.1089 16.8265C67.1036 16.7783 67.0875 16.757 67.0554 16.757C67.0394 16.757 67.034 16.7623 67.0287 16.7623L65.6591 16.9869C65.6537 16.9495 65.6377 16.9281 65.6056 16.9334C64.894 17.0832 65.0866 17.1099 64.1343 17.1955C64.0915 17.2008 64.0327 17.2222 63.9578 17.2704C63.9524 17.2329 63.931 17.2115 63.8829 17.2169L63.2997 17.265L62.9091 17.3613C62.9038 17.3238 62.8824 17.3024 62.8343 17.3078C62.6149 17.3666 62.4223 17.4041 62.2672 17.4147H62.2565C62.1601 17.4254 62.3046 17.388 62.2297 17.3559L62.112 17.4254C61.9408 17.4415 62.0318 17.4147 61.4433 17.4201C60.4107 17.5484 60.5231 17.5645 60.4107 17.5698L60.0255 17.5431C60.0309 17.5805 60.0095 17.6073 59.9667 17.6073C59.528 17.5484 59.3033 17.4789 59.2979 17.3987C59.3568 16.9816 59.4584 16.7677 59.6029 16.757L59.6778 16.7516L59.6136 16.8907L59.6885 16.8853C59.8276 16.8104 59.8918 16.7409 59.8864 16.6767L59.8757 16.5323L59.7366 16.543L59.7259 16.4093C59.7152 16.3077 59.7313 16.2168 59.7687 16.1419L60.0844 15.6339L60.0951 15.7676L60.2449 15.7569L60.2342 15.6232L60.1486 15.5002C60.2609 15.4039 60.3465 15.3505 60.4161 15.3451L60.4107 15.2756L60.2074 15.2916L60.1914 15.0884C60.598 14.2434 60.7906 13.7514 60.7799 13.6124L60.9243 13.6712C61.0153 13.6659 61.0581 13.6124 61.0527 13.5161L60.9136 13.5268L60.9083 13.468C60.8976 13.3664 60.919 13.2701 60.9618 13.1845C61.1811 12.9546 61.2828 12.7246 61.2614 12.484C61.3042 12.4786 61.3256 12.5 61.3309 12.5481C61.5182 12.4412 61.6626 12.1577 61.7696 11.6871C62.1013 11.0882 62.5721 9.89023 63.1874 8.09868C64.3644 4.93271 64.3162 4.59579 64.4821 3.84708L64.343 3.85778C64.3537 3.95404 64.3323 4.04495 64.2895 4.13052C64.1932 4.09309 64.1183 4.07169 64.0648 4.07704L64.0594 4.01821C64.038 3.74547 64.1504 3.41925 64.4072 3.0342L64.4714 3.02885L64.5891 3.48877L64.7282 3.47808C64.7228 3.44599 64.7603 3.26416 64.8352 2.92724C64.8298 2.85772 64.7763 2.81493 64.6693 2.80959L64.5356 2.89515C64.5249 2.79889 64.5302 2.54754 64.5463 2.14644L64.4767 2.15179C64.359 2.03414 64.3002 1.93788 64.2948 1.85766L63.5298 1.93253C63.5244 1.87905 63.4977 1.79883 63.4442 1.69722C63.4388 1.6277 63.61 1.55817 63.9631 1.48865L64.1183 1.54748L64.2627 1.46191C64.2681 1.51004 64.2948 1.53143 64.3483 1.52609L64.4928 1.44052C64.4981 1.48865 64.5248 1.51004 64.5783 1.50469L64.6479 1.49935L64.6372 1.34426C64.5302 1.35495 64.2467 1.35495 63.7973 1.33891L63.6528 1.43517L63.6475 1.3496C60.0576 1.64374 58.0193 1.80953 57.5324 1.85766C57.4682 1.863 57.2168 1.85766 56.7727 1.84696C56.7781 1.90579 56.7246 1.93788 56.6176 1.94857L56.4624 1.87905L55.9381 2.01275C55.8151 2.02344 55.6064 2.01809 55.3175 1.98601C55.2373 2.05018 55.141 2.08762 55.0233 2.09831C54.9591 2.10366 55.7883 2.05553 56.5587 2.00205C56.4785 2.06622 56.3554 2.10366 56.1842 2.1197C56.0665 2.1304 55.9649 2.11436 55.8793 2.06622C55.7616 2.1197 55.3817 2.20527 54.7451 2.33362L54.5899 2.27479L52.0861 2.65984C51.9898 2.61171 51.8775 2.59567 51.7491 2.60636C51.6153 2.61706 51.3906 2.66519 51.0803 2.75076L49.8712 3.25346L49.9622 3.4032C50.021 3.39786 50.1066 3.36577 50.2082 3.30694L50.6362 3.34438L50.5827 3.74547C50.1868 3.92195 49.9568 4.184 49.8926 4.51557C49.2987 4.77762 49.0045 4.9648 49.0045 5.0771L49.0098 5.14662L49.1008 5.14128L49.2613 5.05571L49.4485 5.28032L49.4753 5.5905C49.486 5.68676 48.4855 7.7885 46.4846 11.8957C44.7512 15.8532 43.8417 18.0191 43.7561 18.4095C43.1623 18.5752 42.8199 18.8159 42.7182 19.1368C42.7289 19.2384 42.9055 19.3079 43.2479 19.3347L43.2639 19.4897L43.1088 19.7464L43.1355 20.0566C43.1516 20.2171 43.5849 20.3401 44.4356 20.4256C44.4302 20.3721 44.457 20.3401 44.5158 20.3347C44.5319 20.5272 44.4784 20.9016 44.3553 21.4578L44.4463 21.4524C44.7994 20.9711 44.9652 20.6395 44.9492 20.4577L45.0241 20.4524C45.1097 20.447 45.2006 20.5433 45.3076 20.7518C45.2006 20.7946 44.8261 21.645 44.1841 23.3082L44.2751 23.4579L44.366 23.4525C45.1525 21.4631 45.6447 20.3615 45.848 20.1529C46.8805 20.062 48.6674 19.8801 51.2033 19.6074L51.3638 19.5111C51.3692 19.5646 51.4013 19.5914 51.4602 19.586L51.626 19.57L51.7865 19.4737C51.7918 19.5272 51.8239 19.5539 51.8828 19.5486L53.8035 19.3828C54.3117 19.34 54.5525 19.1849 54.5311 18.9229C54.5257 18.8533 54.8253 18.7731 55.4299 18.6876C55.4887 18.6822 55.5743 18.6982 55.692 18.7357C55.6867 18.6876 55.9916 18.6394 56.6015 18.5859C56.6176 18.2651 56.7192 18.0939 56.9011 18.0779L56.8851 17.9228C56.7139 17.9388 56.5212 17.9816 56.2966 18.0565C55.8953 18.0351 55.6385 18.003 55.5315 17.9656C55.4245 18.0244 55.3442 18.0565 55.2854 18.0618L53.9479 18.1046L53.7874 18.1902C53.7821 18.1421 53.75 18.1207 53.6911 18.126L53.6162 18.1314L53.445 18.2169C53.4397 18.1688 53.3006 18.1314 53.0223 18.0939L52.8512 18.1955L52.5195 18.2223L52.5141 18.1367C54.2368 17.9495 55.0875 17.7142 55.0661 17.4361C55.1784 17.4254 55.2372 17.4789 55.248 17.5912L55.7509 17.4629L55.7348 17.3078L51.61 17.4201C51.6153 17.4736 51.5886 17.5057 51.5297 17.511L51.0268 17.4682C50.8984 17.4789 50.7914 17.5164 50.7058 17.5805L50.5186 17.511C49.9996 17.5538 49.6144 17.618 49.3576 17.6982C49.0045 17.6714 48.614 17.6768 48.1806 17.7142L47.2551 17.7945L46.8271 17.7463C46.8057 17.4736 47.3353 16.1312 48.4267 13.7247C48.7424 12.9118 49.0313 12.4037 49.3095 12.2112C49.3683 12.2059 49.4539 12.2273 49.5716 12.2754L50.2297 12.0508L50.5667 12.1043C51.1338 12.0561 51.7919 11.8957 52.5462 11.6176C52.7335 11.6016 52.8726 11.6123 52.9742 11.655L53.4771 11.5374L54.9751 11.409C55.6118 11.3556 56.3019 11.2165 57.0509 10.9866L57.0349 10.8315C56.7567 10.8582 56.6122 10.8101 56.6015 10.6978C56.5855 10.4892 56.3822 10.4036 55.9916 10.4357L55.9756 10.2806L56.3875 10.163L57.4682 10.0721L57.4521 9.91697C57.4093 9.92232 57.19 9.91697 56.7834 9.90093L56.7673 9.73514L57.1847 9.6977C57.297 9.68701 57.3451 9.63353 57.3345 9.52657C56.7727 9.54261 56.4892 9.51587 56.4838 9.441C52.5676 9.63353 50.6041 9.67096 50.5935 9.54796C50.5346 9.55331 50.4544 9.59074 50.3474 9.65492L50.2457 9.49448C51.2836 7.29114 51.8935 6.17877 52.0701 6.16273C52.0754 6.2483 52.0326 6.38734 51.9363 6.57452L51.9417 6.64404L52.1075 6.628C52.5194 5.64398 52.8672 5.13593 53.1561 5.11454C54.3866 5.00758 52.9849 4.92736 55.6171 4.51557C55.7241 4.5637 55.799 4.58509 55.8525 4.57974C56.8851 4.37118 58.3242 4.15191 60.1699 3.9273L60.1592 3.77221L59.1749 3.86312L59.1642 3.70803C59.2818 3.69734 59.3782 3.6599 59.4584 3.59573L59.4637 3.68129C59.5173 3.67595 59.5922 3.63851 59.6884 3.57434C59.8596 3.55829 59.988 3.57434 60.079 3.62247C60.4214 3.53155 60.6996 3.47807 60.9029 3.45668L61.5182 3.39785C61.668 3.30159 61.7375 3.21602 61.7321 3.13581L61.7268 3.06628C61.5716 3.08233 61.3951 3.07163 61.1865 3.0342C61.1811 2.94863 61.2239 2.8898 61.3256 2.86306L62.4705 2.7561L62.9948 2.62241C63.0001 2.68123 63.0269 2.70262 63.0697 2.70262C63.1232 2.69728 63.1981 2.65984 63.2944 2.59567C63.3211 2.60101 63.3532 2.60101 63.38 2.60636C63.3104 2.75076 63.2301 2.95932 63.1499 3.23207L63.0001 3.24276C62.9894 3.14115 62.9627 3.05024 62.9145 2.97002L62.8396 2.97537C61.4486 6.84726 60.828 8.64951 59.544 11.623C59.3086 12.3824 59.1106 12.8048 58.9394 12.8958C58.9448 12.9813 58.9983 13.0241 59.0892 13.0134C59.1213 13.3878 59.0357 13.7568 58.8271 14.1204C58.2332 15.8318 57.8373 16.7676 57.634 16.9388L57.7678 17.7463C57.7731 17.8319 57.7303 17.88 57.6394 17.8907L57.5003 17.9014C57.4789 17.6768 57.3986 17.5698 57.2542 17.5859L57.1793 17.5912C56.9974 17.8747 56.8583 18.2009 56.7673 18.5806L56.9064 18.5699C57.0937 18.4469 57.1793 18.3025 57.1632 18.1367L57.4414 18.11L57.6019 18.1688C57.4735 18.372 57.4147 18.5325 57.4254 18.6555L57.5003 18.7838L57.3184 19.2117L57.3237 19.2812C57.4842 19.2651 57.6608 19.3186 57.848 19.4309C57.9764 19.4202 58.1155 19.3614 58.2707 19.2598C58.4312 19.2437 59.0304 19.2384 60.0629 19.2384L60.5819 19.0619C61.2132 19.0566 61.3148 19.0726 61.8605 19.0245L62.0852 19.0031L62.2029 18.9229L62.2083 18.9924C62.7807 18.9443 62.8182 18.9817 63.2676 19.0352L63.2729 19.1047L62.9573 19.1314L62.968 19.2651C63.0643 19.2544 63.1499 19.2277 63.2194 19.1689C63.2997 19.1635 63.3478 19.2063 63.3532 19.3026C63.2248 19.3133 63.0803 19.3453 62.9198 19.3988L62.7807 19.3507C62.5614 19.4095 62.6095 19.4256 62.4597 19.4363L62.2404 19.3935C62.2457 19.4309 62.2243 19.4577 62.1869 19.4577C62.1922 19.5432 62.2404 19.586 62.3206 19.5807L62.5453 19.5593L63.717 19.4577L64.161 19.3614C64.1664 19.3988 64.1824 19.4202 64.2199 19.4149L64.4339 19.3347L64.8351 19.3026C65.1454 19.2758 65.1401 19.2544 65.8142 19.1475C65.8088 19.1047 65.8249 19.0886 65.857 19.0833L65.8623 19.1421C66.9591 18.955 67.0286 18.9443 67.2052 18.8854L67.2212 18.9175C67.4941 18.8533 67.3389 18.8694 67.4138 18.8159C67.4192 18.864 67.4352 18.8854 67.462 18.8854L67.6546 18.8694L67.6439 18.725L67.2533 18.7196L67.248 18.7089C67.2319 18.7143 67.2212 18.7143 67.2052 18.7196H67.1517V18.7303C66.8895 18.7838 66.8842 18.7464 66.713 18.7624L65.7339 18.8159L65.7286 18.7464L66.2743 18.6715L66.4722 18.6555L66.5846 18.5753L66.5899 18.6448C67.3603 18.5806 67.6332 18.7731 71.1963 18.0137C71.3889 17.9977 71.3728 17.8372 71.4959 17.5057C71.4317 17.511 71.3675 17.495 71.3086 17.4629C71.0144 17.5752 70.8592 17.5217 70.2921 17.6126C70.244 17.618 70.2065 17.5752 70.1905 17.4896L70.1851 17.4308L70.7308 17.4468C70.8325 17.4361 71.0304 17.4201 71.3247 17.2543C71.3247 17.3024 71.2177 17.3292 71.2819 17.3238L71.2819 17.3238ZM44.9559 17.7476L44.6869 17.769C44.6754 17.6674 44.8185 17.2823 45.1162 16.6245L45.2937 16.6085C45.2994 16.7636 45.1907 17.1433 44.9559 17.7476H44.9559ZM45.2587 16.8943L45.2398 16.7189C45.2209 16.5029 45.41 16.3544 45.826 16.2869L45.8449 16.4624C45.8638 16.7189 45.6747 16.8673 45.2587 16.8943ZM48.7703 19.1121L48.778 19.5069L48.178 19.7195L48.1703 19.3247L48.7703 19.1121ZM48.0853 19.0683C48.0907 19.2552 47.9623 19.4655 47.6841 19.6757L47.1705 19.594L47.0046 19.629L46.9886 19.2902L48.0853 19.0683H48.0853ZM51.5886 3.82966L51.2184 3.87925L51.2105 3.6809C51.2027 3.48255 51.2735 3.34619 51.4311 3.2842L51.565 3.27181L51.817 3.43296C51.8249 3.6685 51.754 3.80487 51.5886 3.82966V3.82966ZM55.5195 2.7747L55.7311 2.75629L55.7593 3.2901L55.1528 3.36373C55.1387 3.06921 55.2515 2.86673 55.5195 2.7747L55.5195 2.7747ZM54.3282 3.41434L53.9484 3.32599L53.943 3.18241C54.4406 3.09405 54.6064 2.98361 54.9114 2.8069C54.9167 2.92839 54.9702 2.97257 55.0665 2.95048L55.0772 3.27076L54.9274 3.3039C54.8097 3.32599 54.708 3.29285 54.6224 3.19345C54.5315 3.31494 54.4352 3.39225 54.3282 3.41434ZM54.8046 4.9643L54.7992 4.63527L55.4145 4.35686L55.4198 4.68589L54.8046 4.9643ZM55.4672 4.44529L55.4566 3.98248L56.0536 3.83785L56.0642 4.30066L55.4672 4.44529ZM55.532 3.27008L55.4518 3.2842L55.5213 2.84628L56.2061 2.67676L56.2115 2.90279C56.0349 2.94517 55.8049 3.0723 55.532 3.27008L55.532 3.27008ZM55.8838 4.80134L55.8696 4.28735L56.2653 4.19873C56.3996 4.16329 56.4703 4.3228 56.4773 4.67728L55.8838 4.80134ZM57.6924 1.90828L57.3072 2.44377L57.2376 2.47054C57.0557 2.55087 56.8203 2.52409 56.5421 2.39022C57.0397 2.22957 57.5158 2.04215 57.6924 1.90828V1.90828ZM57.3526 3.61722L57.3587 3.97616L56.7571 4.22466L56.751 3.86571L57.3526 3.61722ZM58.1479 4.31031C58.1425 4.17277 58.0409 4.08109 57.8322 4.03524L57.3026 4.35615L56.896 4.39054C56.805 4.253 56.7569 4.16131 56.7515 4.09255L57.2223 4.14985L58.2816 3.7831L58.822 3.82894L58.8273 4.01232C58.5598 4.06963 58.3351 4.17277 58.1479 4.31031L58.1479 4.31031ZM63.599 2.62329C63.6632 2.62864 63.706 2.62864 63.722 2.62864C63.9093 2.44681 64.1179 2.30242 64.3587 2.20081C64.1661 3.04578 63.8665 3.67149 63.4545 4.07793L63.1549 3.8961C63.4064 3.2597 63.5562 2.83721 63.599 2.62329L63.599 2.62329ZM62.9174 4.20759L63.0779 4.19674C62.86 4.58724 62.6651 4.79334 62.5046 4.80418L62.4702 4.39199C62.5734 4.39199 62.7224 4.32691 62.9174 4.20759ZM62.0855 5.61803C62.23 5.04046 62.3691 4.71424 62.4975 4.62867L62.5028 4.69819C62.4279 5.23298 62.3102 5.51642 62.1551 5.53781L62.1818 5.87473C62.0534 6.05656 61.9946 6.19561 61.9999 6.30257L61.925 6.30791L61.8822 5.84265C61.9678 5.83195 62.0374 5.75708 62.0855 5.61803L62.0855 5.61803ZM62.2166 6.38862C62.2298 6.47539 62.0979 6.67787 61.8341 6.99027L61.6494 6.99606L61.6099 6.77622C61.8605 6.52168 62.0715 6.3944 62.2166 6.38862H62.2166ZM57.5536 19.0508L57.5326 18.8753L58.0774 18.8434L58.1403 19.4495C57.8469 19.4655 57.6374 19.3379 57.5536 19.0508V19.0508ZM63.7079 19.5101C63.7025 19.3393 63.6811 19.2633 63.633 19.2823L63.2852 19.3962L63.2799 19.1494H63.312L64.1359 18.9027L64.1412 19.1494C63.9005 19.1874 63.756 19.3203 63.7079 19.5101ZM63.595 18.9029C64.0908 19.1307 63.843 19.3585 63.595 19.5103C63.3471 19.4344 63.0166 19.2066 63.595 18.9029ZM63.3372 18.2382L62.8771 18.3267L62.8717 18.1624L63.2891 18.074L63.6529 17.8592C63.6582 17.9603 63.6796 17.9982 63.7278 17.9856C64.1611 17.8087 64.1183 17.7582 64.327 17.7203C64.3965 17.7077 64.4393 17.8087 64.4447 18.0108L63.3372 18.2382L63.3372 18.2382ZM65.0721 18.2796C64.7459 18.153 64.7255 18.0518 64.4944 18.1277L64.4876 17.8493L65.011 17.6721L65.0178 17.9505C64.9634 17.9758 65.1605 18.0264 65.0721 18.2795V18.2796ZM64.9889 18.2527L64.9748 17.8073L65.5683 17.6453L65.5824 18.0908L64.9889 18.2527ZM65.4821 18.1236L65.4726 17.8866C65.5391 17.8651 65.6341 17.7573 65.7575 17.5419C65.9569 17.4988 66.0613 17.8004 66.0803 18.1452L65.4821 18.1236V18.1236ZM66.1206 18.1197L66.109 17.6552L66.705 17.5122L66.7166 17.9768L66.1206 18.1197ZM66.4947 17.8963C66.4838 17.6283 66.5488 17.4675 66.6896 17.4317L66.8737 17.8248C66.8629 17.6997 66.8954 17.6283 66.9604 17.6104L67.1012 18.0392L66.4947 17.8963H66.4947ZM63.0096 19.7659L62.8881 19.1818L62.402 19.2051L62.5235 19.7892L63.0096 19.7659ZM72.1355 16.9628C72.239 16.9044 72.2907 16.846 72.045 16.8109C71.9286 16.9278 72.1743 16.9628 71.9157 16.9745L71.9286 17.0796C71.9545 17.0563 72.0191 17.0212 72.0709 16.9862L71.9286 17.0913V17.103L71.6571 17.4184L72.2002 17.2432H72.2648L72.239 16.9511L72.1355 16.9628V16.9628ZM72.2822 17.1867L72.2025 17.21L72.2225 17.7941L72.8102 17.6773C72.8003 17.3035 72.4117 17.1867 72.2822 17.1867H72.2822ZM71.7587 17.5477L72.3663 17.244V16.9403C72.3663 16.9403 71.7587 17.244 71.7587 17.5477Z" fill="black"/>
<path fill-rule="evenodd" clip-rule="evenodd" d="M51.2198 7.20196L51.2336 7.32657L51.6894 7.3032C51.6756 7.22533 51.7308 7.10072 51.8275 6.94497L51.7861 6.71913C51.5927 6.72692 51.3994 6.89046 51.2198 7.20196ZM49.8689 3.36521L49.8324 2.8314L49.2612 2.90503L49.2976 3.43884L49.8689 3.36521ZM44.6225 12.1689C44.6118 12.0245 44.1624 11.463 43.2743 10.4736C43.2582 10.2918 43.5632 10.019 44.1891 9.66071L45.976 8.10447C46.3773 7.59641 46.6127 6.77283 46.6822 5.62838L46.6608 5.36633C46.5913 4.57484 46.0188 3.93844 44.9328 3.45178C44.2908 3.01859 43.1352 2.77794 41.466 2.73516C40.0857 2.85281 38.2827 3.34482 36.0625 4.21653C35.4526 4.65506 34.7571 5.09359 33.976 5.53212L33.9867 5.66581C34.0348 5.66047 34.1097 5.63373 34.1954 5.5749C34.2863 5.56421 34.3398 5.60699 34.3451 5.69255L34.4789 5.62303L34.5431 5.61768L34.5484 5.67651C34.5538 5.74603 34.0723 6.12574 33.0986 6.80492L33.1735 6.94397L33.1093 6.94932L32.9488 6.89049C32.9541 6.93862 32.8846 6.97071 32.7508 6.9814L32.7562 7.04023L32.9114 7.23276C32.8632 7.2381 32.7883 7.21671 32.6866 7.17928C32.4619 7.20067 32.2426 7.31832 32.0232 7.54294L32.1142 7.14719C32.4405 5.74069 32.6652 4.49462 32.783 3.41434L32.7669 3.34482C32.5422 3.20043 32.3229 2.99721 32.1196 2.7405C32.1249 2.57472 32.1249 2.47846 32.1196 2.45707L32.1035 2.39824L32.0393 2.41428C31.3331 3.47317 29.9742 5.28076 27.9573 7.83707C26.4218 9.65536 25.63 10.6661 25.5819 10.8693C24.9559 11.5164 24.6563 11.9068 24.6884 12.0405C24.5226 12.1475 24.453 12.2545 24.4798 12.3721C24.4316 12.3828 24.3995 12.3668 24.3888 12.3186C24.1213 12.7518 23.7254 13.0299 23.1958 13.1529L22.6394 13.2813C22.5644 13.2973 22.527 13.3508 22.5324 13.4417L22.5484 13.5112L22.7571 13.4631L22.7731 13.5219L22.3023 13.7037L21.4677 13.8963L21.029 13.923C20.9648 13.9872 21.3768 13.9177 21.2163 13.9551L20.6706 14.0834C20.3389 14.1583 20.157 14.1316 20.1249 13.9979L20.0607 14.0139C20.0714 14.0727 20.0767 14.1155 20.066 14.153L20.0339 14.0193L19.5952 14.1209C19.5631 13.9177 18.9693 13.1796 17.819 11.9068C17.7976 11.6608 18.2042 11.3025 19.0335 10.8373L21.3767 8.7783C21.901 8.10447 22.2113 7.02419 22.313 5.53747L22.2809 5.18985C22.19 4.14166 21.4303 3.29669 20.0018 2.64424C19.1565 2.07202 17.6371 1.76718 15.4436 1.71905C13.6246 1.87414 11.2492 2.52124 8.32811 3.64965C7.52561 4.23257 6.61076 4.81015 5.58356 5.38238L5.59961 5.5642C5.66916 5.55886 5.76011 5.52142 5.87246 5.45725C5.99016 5.44655 6.05436 5.50003 6.06506 5.60699L6.24696 5.50538L6.33791 5.50003L6.34326 5.5856C6.34861 5.67116 5.71196 6.16852 4.42261 7.07766L4.52426 7.2381L4.43331 7.24345L4.23536 7.17393C4.24071 7.22741 4.14976 7.26484 3.96251 7.28089L3.97321 7.37715L4.18721 7.61246C4.11766 7.61781 4.02136 7.59641 3.89831 7.55363C3.48101 7.59106 3.07441 7.89055 2.67316 8.45743L2.77481 8.61786C3.12256 8.29699 3.32586 8.13655 3.38471 8.1312L3.40611 8.39325C3.34726 8.3986 3.25631 8.43603 3.13326 8.50021L3.35261 8.83178C3.77526 8.37721 4.24071 7.98681 4.74896 7.66059C5.00041 7.72476 5.13416 7.80498 5.13951 7.89055L5.33211 7.8745C6.71241 6.85305 8.07666 6.11504 9.43021 5.66047L9.44626 5.84229C9.19481 6.21665 9.02361 6.40917 8.93266 6.41987C8.94336 6.54822 8.98616 6.66053 9.06641 6.75679C9.08781 6.98675 8.47256 8.53765 7.22601 11.4041C4.39586 18.0676 2.02046 22.9984 0.0891113 26.1858C0.0944617 26.25 0.131911 26.3355 0.201462 26.4425C0.677611 26.3302 0.977211 26.2125 1.10561 26.1002L1.20726 26.0895L1.22331 26.2713L1.39986 26.2553L1.58176 26.1537C1.58711 26.2072 1.64596 26.2339 1.76901 26.2232L1.78506 26.405C1.80111 26.5815 1.69946 26.8489 1.48546 27.2179C1.29286 27.4372 1.08421 27.8971 0.86486 28.5977L0.87021 28.6833L1.04676 28.6672C1.81716 27.8062 2.40031 26.9612 2.80156 26.1376C5.04856 25.4799 6.76056 24.8328 7.94826 24.1964C9.14131 24.0947 10.0508 23.7792 10.6714 23.2605L10.6607 23.1642L10.2113 23.2979L10.1097 23.3086L10.099 23.2123C10.9764 23.0786 11.5809 22.8861 11.918 22.6187C13.6246 21.3031 14.914 20.3726 15.786 19.8218C17.5783 18.5062 18.7446 17.2227 19.2742 15.9766C19.3705 15.9552 19.4668 15.9338 19.5738 15.9071C19.8253 15.8964 19.9644 15.891 20.0018 15.8803C19.9911 15.8322 20.0125 15.8055 20.0607 15.7948C20.4619 15.752 20.2693 15.8215 20.5261 15.7627L21.2002 15.6076L21.3125 15.5809L21.259 15.6129C21.334 15.6236 21.4142 15.6183 21.5051 15.5969L21.5533 15.7948L18.4878 20.6667L17.8083 21.517L17.4766 22.6294L17.5408 22.6134L17.8725 22.4743L17.7655 22.9075L17.7976 23.0359L17.8886 23.1482C17.8458 23.1589 17.8297 23.1856 17.8404 23.2337L17.8565 23.3032L17.9956 23.2712C18.1989 23.0947 18.2845 22.9342 18.2524 22.7899C18.4717 22.8273 18.6162 22.8433 18.6911 22.8219L18.7071 22.8915C18.5734 22.9235 18.5038 23.0305 18.4931 23.2123L18.5092 23.2819L18.584 23.2658C19.6968 22.0518 22.4253 17.8965 24.6135 15.0782C24.5439 14.7733 25.6835 14.3508 28.0375 13.8053L28.1124 13.7893C28.198 14.1583 28.0161 15.0514 27.5667 16.4686C27.2778 17.3243 27.1387 17.7949 27.1601 17.8698C26.7856 19.0089 26.609 19.6239 26.6304 19.7201L25.7959 22.4529C25.2555 23.8541 24.8436 25.3248 24.5547 26.8757C24.6028 26.865 24.6777 26.8703 24.7847 26.8971L24.9024 26.7954C24.9131 26.8436 24.9452 26.8596 24.9933 26.8489L24.9452 26.6511L25.309 26.6404C25.416 26.6136 25.5069 26.4799 25.5818 26.2339C25.5658 25.8649 25.6407 25.667 25.8065 25.6242C26.0312 24.7472 26.1703 24.3087 26.2185 24.2926C26.4271 23.4209 26.5823 22.9235 26.6839 22.8005C26.9996 21.6668 27.2296 21.0839 27.3794 21.0464L27.4115 21.1855L27.1815 21.7791C26.7802 23.5599 26.3736 24.9665 25.9617 25.9986L26.0794 26.512L26.1543 26.496C27.1494 24.3568 28.5832 20.1212 30.4503 13.7893C30.5038 13.2331 30.7713 12.7999 31.2475 12.4951L31.1405 12.3828L31.1245 12.324C31.3384 12.2758 31.4882 12.1903 31.5739 12.0726C31.5631 12.0245 31.3759 11.955 31.0121 11.8587L31.943 7.86916C32.1463 7.68733 32.264 7.59107 32.3015 7.59107L32.3175 7.79429C32.2693 7.79963 32.1945 7.82637 32.1089 7.8852L32.2854 8.13655C32.6064 7.78894 32.9542 7.48945 33.334 7.2381C33.5266 7.29158 33.6229 7.35576 33.6336 7.41993L33.7727 7.40924C34.832 6.63379 35.8699 6.0776 36.8917 5.74069L36.9024 5.87438C36.7152 6.15782 36.5868 6.30222 36.5172 6.30757C36.5279 6.40383 36.5547 6.48939 36.6028 6.56427C36.6189 6.74075 36.1588 7.91729 35.2172 10.0992C33.0665 15.153 31.2635 18.8912 29.7976 21.3192C29.803 21.3673 29.8351 21.4315 29.8939 21.517C30.2524 21.4315 30.4824 21.3406 30.5734 21.255L30.6376 21.2496L30.6483 21.3833L30.7981 21.3727L30.9318 21.3031C30.9372 21.3406 30.9853 21.3566 31.0763 21.3513L31.087 21.4957C31.0977 21.624 31.0228 21.8272 30.8569 22.1053C30.7018 22.2711 30.5413 22.6187 30.3701 23.1482L30.3754 23.2177L30.5145 23.207C31.0977 22.5545 31.5417 21.9128 31.8467 21.2817C33.5533 20.779 34.8534 20.2924 35.7522 19.8111C36.667 19.7308 37.3572 19.4955 37.828 19.0998L37.8226 19.0303L37.4749 19.1319L37.4 19.1372L37.3946 19.0677C38.058 18.9714 38.5235 18.8217 38.7749 18.6238C40.0696 17.6291 41.0487 16.9178 41.7121 16.5007C43.7772 14.9979 44.7402 13.554 44.6225 12.1689ZM44.5431 12.2603L44.6483 12.8004C44.5081 12.9341 44.3562 13.0036 44.2159 13.009L44.0406 12.0891C44.3678 12.1426 44.5315 12.1961 44.5431 12.2603ZM3.82666 8.3043L3.67908 8.32072L3.65304 7.81178L4.25203 7.71328L4.26072 7.97595C4.16522 7.99237 4.01764 8.09087 3.82666 8.3043ZM1.95698 25.9337C1.74298 25.8374 1.55038 25.8 1.38453 25.816L1.36313 25.554C1.35243 25.4524 1.41128 25.3829 1.53968 25.3561C1.65738 25.3454 1.72693 25.431 1.73763 25.6021C2.04793 25.2224 2.21913 25.0299 2.25123 25.0245L2.44918 25.1048C2.38498 25.6396 2.21913 25.9123 1.95698 25.9337L1.95698 25.9337ZM21.2783 5.7893C21.178 5.8 20.9774 5.51656 20.6883 4.95503L20.6706 4.78924C20.8594 4.7732 21.0541 5.05129 21.2606 5.62352L21.2783 5.7893ZM20.9656 3.79431L20.8907 3.97079L18.2745 2.87981C20.0186 2.93864 20.9174 3.24347 20.9656 3.79431V3.79431ZM10.1408 13.6178L9.55845 13.7163L9.53313 13.2074L10.1155 13.1089L10.1408 13.6178ZM9.79075 7.58199L9.94728 7.57664L9.9841 7.83869C9.83679 7.84404 9.64343 7.97239 9.40405 8.21839L9.37643 8.03656C9.66185 7.83869 9.80917 7.68895 9.79075 7.58199H9.79075ZM9.20023 9.40816L9.35876 10.0064L8.90961 10.0156L8.75108 9.41736L9.20023 9.40816ZM8.56578 10.0667L8.88922 10.0455C8.85982 10.4269 8.7128 10.6318 8.44817 10.6459L8.28155 10.653C8.48737 10.3987 8.58538 10.2009 8.56578 10.0667L8.56578 10.0667ZM8.31077 10.9778L8.4884 10.9607L8.49775 11.0976L8.20794 11.5425L7.89942 11.5682L7.89008 11.4313C8.19859 11.4056 8.33882 11.2602 8.31077 10.9778ZM8.25673 11.7889L8.078 12.389L7.77416 12.3963L7.64905 11.8035L8.25672 11.7889H8.25673ZM5.04707 20.319C4.86368 20.918 4.66362 21.2228 4.45523 21.2335L4.44689 21.148C4.39688 20.8538 4.59694 20.5757 5.04707 20.319H5.04707ZM4.70069 21.5116L4.71999 21.6985C4.75857 21.9555 4.56566 22.1074 4.14125 22.1191L4.12195 21.9322C4.08337 21.7102 4.27628 21.57 4.70069 21.5116ZM4.17545 24.0349L4.55059 23.9608L4.56502 24.2275C4.47123 24.2423 4.34859 24.346 4.19709 24.5238L3.95902 24.5682C3.94459 24.3163 4.02395 24.1237 4.17545 24.0349H4.17545ZM12.0361 21.5446C10.4739 22.3147 9.55375 22.8388 9.2809 23.1116C7.5903 23.6999 6.75035 24.0635 6.7664 24.2079C5.26305 24.8015 4.2733 25.24 3.79715 25.5128C3.6848 25.5235 3.5243 25.4807 3.3103 25.3844C3.28355 25.0796 3.42265 24.8336 3.7169 24.6357C3.97905 24.6143 4.2305 24.6518 4.47125 24.7534C4.74945 24.609 5.2363 24.4486 5.92645 24.2774L5.9104 24.0956L5.354 24.1437C5.42355 24.0475 5.95855 23.7961 6.96435 23.3897L7.24255 23.3629L7.2479 23.4485C6.77175 23.4913 6.5096 23.6303 6.45075 23.8817C6.46145 23.994 6.52565 24.0421 6.64335 24.0314C7.0018 23.8068 7.17835 23.6731 7.173 23.6357C7.85245 23.5073 9.7303 22.5233 12.8065 20.689L12.8226 20.8548C12.8279 20.935 12.5658 21.1596 12.0361 21.5446V21.5446ZM7.31623 23.0952C7.76563 23.0577 8.15083 22.8759 8.47183 22.5604C8.60023 22.5497 8.66978 22.5978 8.67513 22.7101C8.45578 22.7315 8.03313 22.9133 7.41788 23.2663L7.32693 23.2716L7.31623 23.0952H7.31623ZM14.9305 17.2506L12.5712 19.1223C10.8164 20.2722 9.8748 20.8497 9.7357 20.8604C6.943 22.3953 5.20425 23.1921 4.53015 23.2509L4.4285 23.2616C4.5141 22.9461 5.7553 20.4059 8.1628 15.6248C9.2221 15.5339 10.8913 15.0419 13.165 14.1434L13.7214 14.0953C14.8717 13.9937 15.733 14.2183 16.3001 14.7531L16.3322 15.1007C15.9096 16.3254 15.4388 17.042 14.9305 17.2506V17.2506ZM10.3195 14.7893L10.9187 14.6236L10.9272 15.0654L10.3279 15.231L10.3195 14.7893ZM15.653 13.7646L15.9312 13.7254C16.188 13.9058 16.3218 14.0627 16.3325 14.2039L16.3378 14.3295C16.0917 14.3608 15.8617 14.1725 15.653 13.7646H15.653ZM16.4065 9.45677C16.1604 9.75091 15.4863 10.2536 14.3842 10.9595C14.0204 10.9916 12.6668 11.5157 10.3235 12.5425C10.2058 12.489 10.0828 12.4677 9.94905 12.4783L9.933 12.3126C9.90625 11.9756 10.056 11.5532 10.3877 11.0398C10.5696 10.0771 10.7676 9.5263 10.9869 9.3926L12.9397 5.00196C12.9183 4.72921 13.3356 4.52065 14.1916 4.37625L14.4698 4.34951L14.4912 4.60086C15.3311 4.47251 15.8554 4.39764 16.0587 4.3816C17.6102 4.2479 18.4181 4.56343 18.4823 5.31748L18.6588 5.30144L18.6214 4.85756L18.814 4.84152C19.2687 5.09287 19.5148 5.3977 19.5469 5.75601C19.5683 6.00202 19.4346 6.30685 19.151 6.67051C19.0333 6.6812 18.9638 6.59564 18.9531 6.4245L18.7605 6.44055L18.7177 6.97534C17.9312 8.15188 17.3588 8.7562 17.0057 8.78828C16.6847 9.23216 16.4867 9.45142 16.4065 9.45677ZM17.6335 12.7116C17.4624 12.5598 17.3255 12.4914 17.2228 12.499L17.2 12.127L17.3882 12.1042L17.8047 12.4307C17.8218 12.6053 17.7648 12.6964 17.6335 12.7116L17.6335 12.7116ZM18.8474 14.0033C19.201 14.1229 19.4109 14.2518 19.4551 14.3714L19.2783 14.4082L19.2894 14.4174C19.2562 14.4174 19.212 14.4266 19.1789 14.4358L18.9137 14.6107L18.8474 14.0033ZM18.9888 15.226L18.9483 14.8827L19.5155 14.6185L19.556 14.9619L18.9888 15.226ZM19.5045 15.5505C19.7345 15.462 19.8469 15.424 20.2749 15.1962L20.2909 15.3607L19.4777 15.8036C19.4884 15.7151 19.4991 15.6265 19.5045 15.5505H19.5045ZM20.2966 15.8521C19.9542 15.9057 20.0291 15.8343 19.4834 16.0397L19.4674 15.9236L20.1522 15.5573L20.4785 15.4323L20.5106 15.6467C20.3608 15.7003 20.4678 15.7003 20.2966 15.8521H20.2966ZM21.1276 15.9351C20.9992 16.013 20.8965 15.8767 20.8366 15.5456L21.1704 15.3704C21.3159 15.2925 21.41 15.4288 21.4443 15.7598L21.1276 15.9351ZM22.9869 13.8613L22.9605 13.5793L23.5153 13.2539L23.5682 13.7746L22.9869 13.8613ZM25.0681 26.599C25.1158 26.3516 25.1277 26.173 25.1039 26.0493L25.2707 26.0081C25.4732 25.9531 25.5924 26.0355 25.6401 26.2554L25.6758 26.4341L25.0681 26.599ZM26.5353 14.0271L26.3855 13.9931C26.1448 14.1157 25.9415 14.2042 25.7756 14.2519L25.6365 14.2927C25.5563 14.32 25.4921 14.2791 25.46 14.1701L26.439 13.8841L26.76 13.6934L26.867 13.8501C26.7119 13.8909 26.5995 13.9522 26.5353 14.0271ZM27.2882 13.975L27.2722 13.8535C27.3203 13.8348 27.3845 13.7694 27.4541 13.6479L28.1496 13.3675L28.1656 13.489C27.7965 13.6479 27.5022 13.8068 27.2882 13.975ZM27.3962 12.3098C27.348 12.3206 27.2839 12.3636 27.2036 12.4281C27.1929 12.3797 27.0966 12.3797 26.9147 12.4227C26.8826 12.2883 27.3962 12.1002 28.4608 11.8529L28.6106 11.8207L28.6427 11.9497C27.8937 12.1701 27.4764 12.2937 27.3962 12.3098ZM29.2691 10.2869C29.1942 11.1372 28.8946 11.6185 28.365 11.7415L28.3489 11.672L27.8781 11.8538L27.6695 11.902C27.5625 11.9287 27.4662 11.9234 27.3806 11.8966L27.3378 11.7095C27.3217 11.6399 28.0012 10.6987 29.3815 8.8911L29.542 8.91784C29.6008 9.16384 29.5099 9.61841 29.2691 10.2869ZM32.6665 7.88422L32.5289 7.90447L32.506 7.39827L33.1022 7.29703L33.1136 7.56026C33.0104 7.60075 32.8614 7.70199 32.6665 7.88423L32.6665 7.88422ZM31.2162 21.1468C31.0557 21.072 30.9112 21.0399 30.7882 21.0506L30.7721 20.8473C30.7668 20.7778 30.8096 20.7297 30.9005 20.703C30.9915 20.6923 31.045 20.7564 31.0557 20.8955C31.2857 20.6013 31.4141 20.4516 31.4409 20.4516L31.5853 20.5104C31.5318 20.9169 31.4088 21.1308 31.2162 21.1468L31.2162 21.1468ZM46.0283 5.8524C45.9283 5.85775 45.736 5.64383 45.436 5.21065L45.4207 5.07695C45.613 5.06626 45.813 5.27483 46.0129 5.70266L46.0283 5.8524ZM45.6497 4.32372L45.5854 4.46276L43.606 3.63383C44.9274 3.67662 45.6122 3.90658 45.6497 4.32372ZM37.5746 11.8996L36.9895 12.0008L36.967 11.4946L37.5521 11.3934L37.5746 11.8996ZM37.251 7.20233L37.4211 7.19573L37.4576 7.44663C37.2996 7.45323 37.1051 7.57208 36.8742 7.80317L36.8499 7.63811C37.1294 7.44663 37.2631 7.30137 37.251 7.20233V7.20233ZM36.8413 8.59272L36.9764 9.18801L36.5037 9.20016L36.3687 8.60487L36.8413 8.59272ZM36.2862 9.09599L36.6223 9.07786C36.5835 9.45864 36.4413 9.6581 36.1957 9.67623L36.0147 9.6853C36.2086 9.43144 36.2991 9.23199 36.2862 9.09599H36.2862ZM36.155 9.7781L36.3008 9.76705L36.313 9.91063L36.0335 10.3524L35.7175 10.3745L35.7053 10.2309C36.0335 10.2088 36.1793 10.0542 36.155 9.7781H36.155ZM36.1465 10.394L35.9362 10.9921L35.6557 11.0015L35.5389 10.4127L36.1465 10.394H36.1465ZM33.7062 16.8809C33.5195 17.3302 33.3218 17.5601 33.1131 17.5708L33.1021 17.512C33.0691 17.2874 33.2669 17.0735 33.7062 16.8809ZM33.4185 17.7851L33.4424 17.9521C33.4903 18.2255 33.2988 18.3773 32.8679 18.3925L32.8439 18.1951C32.82 17.9977 33.0115 17.861 33.4185 17.7851ZM32.9497 19.7115L33.3232 19.6508L33.3325 19.914C33.2485 19.9343 33.1177 20.0355 32.9683 20.2177L32.7256 20.2582C32.7163 19.9748 32.7909 19.7925 32.9497 19.7115ZM38.8614 17.8118C37.6844 18.3947 36.9836 18.7904 36.7642 18.9937C35.4802 19.4429 34.8436 19.721 34.8543 19.8333C33.7147 20.2879 32.9657 20.6141 32.6126 20.8226C32.527 20.828 32.404 20.7959 32.2435 20.721C32.2221 20.4911 32.3291 20.3039 32.5538 20.1648C32.7571 20.1488 32.9497 20.1755 33.1262 20.2504C33.3402 20.1435 33.7094 20.0258 34.2337 19.8921L34.223 19.7584L33.7896 19.7958C33.8431 19.721 34.2551 19.5284 35.0201 19.2183L35.2341 19.2022L35.2395 19.2611C34.8757 19.2931 34.6724 19.4001 34.6296 19.5926C34.6349 19.6782 34.6884 19.721 34.7794 19.7103C35.0469 19.5338 35.1753 19.4322 35.1753 19.4001C35.6889 19.3092 37.112 18.5605 39.4499 17.1593L39.4606 17.293C39.4606 17.3465 39.2627 17.5176 38.8614 17.8118L38.8614 17.8118ZM35.2764 19.0463C35.6241 19.0095 35.9184 18.8563 36.1645 18.5865C36.2554 18.5804 36.3089 18.6233 36.3143 18.7214C36.1538 18.7398 35.8381 18.893 35.362 19.1873L35.2871 19.1934L35.2764 19.0463L35.2764 19.0463ZM41.066 14.5434L39.2845 15.9766C37.9523 16.8483 37.23 17.2869 37.1177 17.2976C34.9991 18.4634 33.683 19.0677 33.1641 19.1105L33.0891 19.1159C33.1534 18.8752 34.1003 16.9446 35.93 13.3187C36.7271 13.2492 37.9897 12.8695 39.7231 12.185L40.1565 12.1475C41.0285 12.0726 41.6812 12.2438 42.1092 12.6556L42.1306 12.9176C41.8043 13.8375 41.4512 14.3776 41.066 14.5434L41.066 14.5434ZM37.5664 12.7182L38.1626 12.5495L38.1741 12.9882L37.5779 13.1569L37.5664 12.7182ZM41.6163 11.9007L41.8643 11.8694C42.0937 12.0569 42.2115 12.2235 42.2178 12.3589L42.2239 12.4735C42.0069 12.5047 41.8023 12.3173 41.6163 11.9007V11.9007ZM42.1774 8.62885C41.9902 8.85347 41.4819 9.23852 40.6527 9.77331C40.3745 9.80005 39.3473 10.1958 37.5711 10.9659C37.4855 10.9338 37.3892 10.9231 37.2875 10.9285L37.2768 10.7948C37.2554 10.5381 37.3678 10.2172 37.6139 9.82679C37.753 9.08877 37.9081 8.67698 38.0686 8.58072L39.5613 5.24362C39.5452 5.04575 39.8609 4.88531 40.5029 4.76231L40.7169 4.74626L40.7329 4.94948C41.3642 4.84787 41.7601 4.78905 41.9206 4.773C43.0976 4.67139 43.7129 4.9067 43.761 5.48427L43.9001 5.47358L43.8734 5.1527L44.0125 5.14201C44.3549 5.32919 44.5368 5.5538 44.5582 5.82119C44.5742 6.01372 44.4779 6.24903 44.2746 6.52177C44.1837 6.53247 44.1302 6.46829 44.1195 6.32925L43.9804 6.33994L43.9376 6.74104C43.3437 7.64483 42.9104 8.1101 42.6375 8.13149C42.3968 8.45772 42.247 8.6235 42.1774 8.62885L42.1774 8.62885ZM42.8105 11.039L42.7882 10.6606L42.9807 10.6406L43.3953 10.9792C43.4027 11.1386 43.3435 11.2282 43.2176 11.2481C43.0399 11.0987 42.9067 11.029 42.8104 11.039H42.8105ZM18.2027 23.8419L17.8994 23.9243L17.6428 24.1854C17.6894 24.4053 17.8061 24.4878 18.0044 24.4328C18.2027 24.3778 18.2843 24.2404 18.2377 24.0205L18.2027 23.8419ZM17.3837 23.0539L17.4573 23.2375C17.8743 23.181 18.046 23.0397 17.9478 22.8137L17.8743 22.6301C17.4818 22.6866 17.3101 22.8278 17.3837 23.0539ZM21.1642 16.2097L21.766 15.689C21.6393 15.689 21.5443 15.6456 21.4493 15.6022C21.2276 15.689 21.1326 15.9059 21.1642 16.2096V16.2097ZM21.2052 14.264L21.7116 14.1352L21.6103 13.6566L21.104 13.7854L21.2052 14.264ZM58.9464 19.372L58.5826 19.2896L58.5184 19.5573L58.5238 19.6911L60.6905 19.3411L60.6798 19.0837L58.9464 19.372ZM60.9238 19.069L61.1263 19.6764H61.5315L61.329 19.069H60.9238ZM70.0136 17.8817L70.04 18.3419L70.6213 18.4892L70.5949 18.029L70.0136 17.8817ZM69.683 17.9068C68.0566 18.3871 67.8533 18.3024 67.5109 18.3377L67.5216 18.5143L67.6714 18.5002L67.7516 18.4931L67.7302 18.4719L67.9068 18.3801C69.5171 18.147 69.7044 18.2318 69.6883 17.9916L69.683 17.9068H69.683ZM60.2106 15.5438L59.9328 15.4956C59.7065 15.8112 59.5933 15.9983 59.6036 16.0518L59.6138 16.1107C59.8299 16.1053 60.0254 15.9128 60.2106 15.5438H60.2106ZM58.3499 14.6116L58.3348 14.419L58.1235 14.4339L57.7463 14.6709L57.9576 15.0265C58.2442 14.9968 58.38 14.8635 58.3499 14.6116V14.6116ZM62.7685 19.3354L62.647 18.7513L62.1608 18.7746L62.2823 19.3587L62.7685 19.3354ZM71.0417 16.8962L71.1433 16.8855C71.2022 16.8801 71.2289 16.832 71.2236 16.7464L71.1647 16.6181C70.7956 16.6502 70.6244 16.6662 70.3248 16.832L70.3194 16.7625L69.8754 16.8053C69.8647 16.6716 69.8272 16.602 69.7684 16.6074L69.5383 16.6288C69.2708 16.6502 69.1424 16.6395 69.0087 16.7411C69.0033 16.693 68.9873 16.6716 68.9605 16.6716L68.7037 16.693L68.5539 16.7785C68.5486 16.7304 68.5325 16.709 68.5058 16.709L68.4148 16.7892L68.4095 16.7197L68.051 16.693L67.9654 16.6983L67.9761 16.832L68.158 16.8801L68.3292 16.8694C68.3881 16.9069 68.4523 16.9176 68.5272 16.9122L68.677 16.8374L68.6823 16.8962C67.8424 17.1048 67.8477 17.0673 67.2699 17.1636C67.2057 17.1208 67.1576 17.0994 67.1255 17.1048L67.1148 17.1154C67.0506 17.1101 67.0131 17.0673 67.0078 16.9978L67.3074 16.9604C67.3288 16.9604 67.3448 16.9817 67.5107 17.0138C67.7514 16.8962 67.7621 16.8481 67.8905 16.8374L67.8798 16.7037C67.0559 16.8641 67.3876 16.7571 66.3551 16.8481L66.3069 16.8534L66.2962 16.7197C67.623 16.5593 67.179 16.6502 67.6337 16.5218C67.6391 16.57 67.6551 16.5914 67.6819 16.5914C67.7354 16.5379 67.7942 16.5111 67.8638 16.5004L67.9547 16.4951C68.4202 16.4577 68.5753 16.5486 69.4955 16.2919L69.5009 16.3507L69.6507 16.2758L69.7898 16.2651C69.7791 16.1314 69.9824 16.11 70.0519 16.1047L70.0412 15.9603C68.4255 16.2865 68.0029 16.1956 67.5535 16.324L67.5481 16.2651C67.1255 16.34 67.1094 16.3079 67.0024 16.3133C66.9703 16.3186 66.9222 16.3453 66.8687 16.3988C66.8633 16.3507 66.8473 16.3293 66.8152 16.3293C66.7991 16.3293 66.7938 16.3347 66.7884 16.3347L65.4188 16.5593C65.4135 16.5218 65.3974 16.5004 65.3653 16.5058C64.6538 16.6555 64.8464 16.6823 63.8941 16.7678C63.8513 16.7732 63.7924 16.7946 63.7175 16.8427C63.7122 16.8053 63.6908 16.7839 63.6426 16.7892L63.0595 16.8374L62.6689 16.9336C62.6636 16.8962 62.6422 16.8748 62.594 16.8801C62.3747 16.939 62.1821 16.9764 62.0269 16.9871H62.0162C61.9199 16.9978 62.0644 16.9604 61.9895 16.9283L61.8718 16.9978C61.7006 17.0138 61.7915 16.9871 61.203 16.9924C60.1705 17.1208 60.2828 17.1368 60.1705 17.1422L59.7853 17.1154C59.7906 17.1529 59.7692 17.1796 59.7264 17.1796C59.2877 17.1208 59.063 17.0513 59.0577 16.9711C59.1165 16.5539 59.2182 16.34 59.3626 16.3293L59.4375 16.324L59.3733 16.463L59.4482 16.4577C59.5873 16.3828 59.6515 16.3133 59.6462 16.2491L59.6355 16.1047L59.4964 16.1154L59.4857 15.9817C59.475 15.8801 59.491 15.7892 59.5285 15.7143L59.8441 15.2062L59.8548 15.3399L60.0046 15.3292L59.9939 15.1955L59.9083 15.0725C60.0207 14.9763 60.1063 14.9228 60.1758 14.9175L60.1705 14.8479L59.9672 14.864L59.9511 14.6608C60.3577 13.8158 60.5503 13.3238 60.5396 13.1847L60.6841 13.2436C60.775 13.2382 60.8178 13.1847 60.8125 13.0885L60.6734 13.0992L60.668 13.0403C60.6573 12.9387 60.6787 12.8425 60.7215 12.7569C60.9409 12.5269 61.0425 12.297 61.0211 12.0563C61.0639 12.051 61.0853 12.0724 61.0907 12.1205C61.2779 12.0135 61.4224 11.7301 61.5294 11.2595C61.8611 10.6605 62.3319 9.46258 62.9471 7.67102C64.1241 4.50506 64.076 4.16814 64.2418 3.41943L64.1027 3.43012C64.1134 3.52639 64.092 3.6173 64.0492 3.70287C63.9529 3.66543 63.878 3.64404 63.8245 3.64939L63.8192 3.59056C63.7978 3.31782 63.9101 2.99159 64.1669 2.60654L64.2311 2.6012L64.3488 3.06112L64.4879 3.05042C64.4826 3.01833 64.52 2.83651 64.5949 2.49959C64.5896 2.43006 64.5361 2.38728 64.4291 2.38193L64.2953 2.4675C64.2846 2.37124 64.29 2.11988 64.306 1.71879L64.2365 1.72414C64.1188 1.60648 64.0599 1.51022 64.0546 1.43L63.2895 1.50487C63.2842 1.45139 63.2574 1.37118 63.2039 1.26957C63.1986 1.20004 63.3698 1.13052 63.7229 1.061L63.878 1.11982L64.0225 1.03426C64.0278 1.08239 64.0546 1.10378 64.1081 1.09843L64.2525 1.01287C64.2579 1.061 64.2846 1.08239 64.3381 1.07704L64.4077 1.07169L64.397 0.916603C64.29 0.927298 64.0064 0.927298 63.557 0.911255L63.4126 1.00752L63.4072 0.921951C59.8174 1.21609 57.779 1.38187 57.2922 1.43C57.228 1.43535 56.9765 1.43 56.5325 1.41931C56.5378 1.47813 56.4843 1.51022 56.3773 1.52092L56.2222 1.45139L55.6979 1.58509C55.5748 1.59579 55.3662 1.59044 55.0773 1.55835C54.997 1.62253 54.9007 1.65996 54.783 1.67066C54.7188 1.67601 55.5481 1.62788 56.3185 1.5744C56.2382 1.63857 56.1152 1.67601 55.944 1.69205C55.8263 1.70275 55.7246 1.6867 55.639 1.63857C55.5213 1.69205 55.1415 1.77762 54.5048 1.90597L54.3497 1.84714L51.8459 2.23219C51.7496 2.18406 51.6372 2.16802 51.5088 2.17871C51.3751 2.18941 51.1504 2.23754 50.8401 2.3231L49.631 2.82581L49.7219 2.97555C49.7808 2.9702 49.8664 2.93812 49.968 2.87929L50.396 2.91672L50.3425 3.31782C49.9466 3.4943 49.7166 3.75635 49.6524 4.08792C49.0585 4.34997 48.7643 4.53714 48.7643 4.64945L48.7696 4.71897L48.8606 4.71362L49.0211 4.62806L49.2083 4.85267L49.2351 5.16285C49.2458 5.25911 48.2453 7.36084 46.2444 11.468C44.511 15.4255 43.6015 17.5914 43.5159 17.9818C42.9221 18.1476 42.5797 18.3883 42.478 18.7091C42.4887 18.8107 42.6653 18.8803 43.0077 18.907L43.0237 19.0621L42.8686 19.3188L42.8953 19.629C42.9114 19.7894 43.3447 19.9124 44.1954 19.998C44.19 19.9445 44.2168 19.9124 44.2756 19.9071C44.2917 20.0996 44.2382 20.4739 44.1151 21.0301L44.2061 21.0248C44.5592 20.5435 44.725 20.2119 44.709 20.0301L44.7839 20.0247C44.8695 20.0194 44.9604 20.1156 45.0674 20.3242C44.9604 20.367 44.5859 21.2173 43.9439 22.8805L44.0349 23.0302L44.1258 23.0249C44.9123 21.0355 45.4045 19.9338 45.6078 19.7252C46.6403 19.6343 48.4272 19.4525 50.9631 19.1797L51.1236 19.0835C51.129 19.137 51.1611 19.1637 51.2199 19.1583L51.3858 19.1423L51.5463 19.046C51.5516 19.0995 51.5837 19.1263 51.6426 19.1209L53.5632 18.9551C54.0715 18.9123 54.3122 18.7573 54.2908 18.4952C54.2855 18.4257 54.5851 18.3455 55.1896 18.2599C55.2485 18.2546 55.3341 18.2706 55.4518 18.308C55.4464 18.2599 55.7514 18.2118 56.3613 18.1583C56.3773 17.8374 56.479 17.6663 56.6609 17.6502L56.6448 17.4951C56.4736 17.5112 56.281 17.554 56.0563 17.6288C55.6551 17.6075 55.3983 17.5754 55.2913 17.5379C55.1843 17.5968 55.104 17.6288 55.0452 17.6342L53.7077 17.677L53.5472 17.7625C53.5418 17.7144 53.5097 17.693 53.4509 17.6984L53.376 17.7037L53.2048 17.7893C53.1994 17.7412 53.0603 17.7037 52.7821 17.6663L52.6109 17.7679L52.2792 17.7946L52.2739 17.7091C53.9966 17.5219 54.8472 17.2866 54.8258 17.0085C54.9382 16.9978 54.997 17.0513 55.0077 17.1636L55.5106 17.0352L55.4946 16.8801L51.3697 16.9924C51.3751 17.0459 51.3483 17.078 51.2895 17.0834L50.7866 17.0406C50.6582 17.0513 50.5512 17.0887 50.4656 17.1529L50.2783 17.0834C49.7594 17.1261 49.3742 17.1903 49.1174 17.2705C48.7643 17.2438 48.3737 17.2491 47.9404 17.2866L47.0148 17.3668L46.5868 17.3187C46.5654 17.0459 47.0951 15.7036 48.1865 13.297C48.5021 12.4841 48.791 11.9761 49.0692 11.7836C49.1281 11.7782 49.2137 11.7996 49.3314 11.8477L49.9894 11.6231L50.3265 11.6766C50.8936 11.6285 51.5516 11.468 52.306 11.19C52.4932 11.1739 52.6323 11.1846 52.734 11.2274L53.2369 11.1097L54.7349 10.9814C55.3715 10.9279 56.0617 10.7889 56.8107 10.5589L56.7946 10.4038C56.5164 10.4306 56.372 10.3824 56.3613 10.2701C56.3452 10.0615 56.1419 9.97598 55.7514 10.0081L55.7353 9.85298L56.1473 9.73532L57.228 9.64441L57.2119 9.48932C57.1691 9.49466 56.9498 9.48932 56.5432 9.47327L56.5271 9.30749L56.9444 9.27005C57.0568 9.25935 57.1049 9.20588 57.0942 9.09892C56.5325 9.11496 56.2489 9.08822 56.2436 9.01335C52.3274 9.20588 50.3639 9.24331 50.3532 9.12031C50.2944 9.12566 50.2141 9.16309 50.1071 9.22727L50.0055 9.06683C51.0434 6.86349 51.6533 5.75112 51.8298 5.73508C51.8352 5.82064 51.7924 5.95969 51.7014 6.14687L51.7068 6.21639L51.8726 6.20034C52.2846 5.21633 52.6323 4.70828 52.9212 4.68688C54.1517 4.57993 52.75 4.49971 55.3822 4.08792C55.4892 4.13605 55.5641 4.15744 55.6176 4.15209C56.6502 3.94352 58.0893 3.72426 59.9351 3.49965L59.9244 3.34456L58.94 3.43547L58.9293 3.28038C59.047 3.26969 59.1433 3.23225 59.2235 3.16807L59.2289 3.25364C59.2824 3.24829 59.3573 3.21086 59.4536 3.14668C59.6248 3.13064 59.7532 3.14668 59.8441 3.19481C60.1865 3.1039 60.4647 3.05042 60.668 3.02903L61.2833 2.9702C61.4331 2.87394 61.5026 2.78837 61.4973 2.70815L61.4919 2.63863C61.3368 2.65467 61.1602 2.64398 60.9516 2.60654C60.9462 2.52098 60.989 2.46215 61.0907 2.43541L62.2356 2.32845L62.7599 2.19475C62.7652 2.25358 62.792 2.27497 62.8348 2.27497C62.8883 2.26962 62.9632 2.23219 63.0595 2.16801C63.0862 2.17336 63.1183 2.17336 63.1451 2.17871C63.0755 2.3231 62.9953 2.53167 62.915 2.80442L62.7652 2.81511C62.7545 2.7135 62.7278 2.62259 62.6796 2.54237L62.6047 2.54772C61.2137 6.41961 60.5931 8.22186 59.3091 11.1953C59.0737 11.9547 58.8758 12.3772 58.7046 12.4681C58.7099 12.5537 58.7634 12.5965 58.8544 12.5858C58.8865 12.9601 58.8009 13.3291 58.5922 13.6928C57.9984 15.4041 57.6025 16.34 57.3992 16.5111L57.5329 17.3187C57.5383 17.4042 57.4955 17.4524 57.4045 17.4631L57.2654 17.4738C57.244 17.2491 57.1638 17.1422 57.0193 17.1582L56.9444 17.1636C56.7625 17.447 56.6234 17.7732 56.5325 18.1529L56.6716 18.1422C56.8588 18.0192 56.9444 17.8749 56.9284 17.7091L57.2066 17.6823L57.3671 17.7412C57.2387 17.9444 57.1798 18.1048 57.1905 18.2278L57.2654 18.3562L57.0835 18.784L57.0889 18.8535C57.2494 18.8375 57.4259 18.891 57.6132 19.0033C57.7416 18.9926 57.8807 18.9337 58.0358 18.8321C58.1963 18.8161 58.7955 18.8107 59.8281 18.8107L60.347 18.6343C60.9783 18.6289 61.08 18.645 61.6257 18.5968L61.8504 18.5754L61.9681 18.4952L61.9734 18.5647C62.5459 18.5166 62.5833 18.554 63.0327 18.6075L63.0381 18.677L62.7224 18.7038L62.7331 18.8375C62.8294 18.8268 62.915 18.8 62.9846 18.7412C63.0648 18.7359 63.113 18.7786 63.1183 18.8749C62.9899 18.8856 62.8455 18.9177 62.685 18.9712L62.5459 18.923C62.3265 18.9819 62.3747 18.9979 62.2249 19.0086L62.0055 18.9658C62.0109 19.0033 61.9895 19.03 61.952 19.03C61.9574 19.1156 62.0055 19.1584 62.0858 19.153L62.3105 19.1316L63.4821 19.03L63.9262 18.9337C63.9315 18.9712 63.9476 18.9926 63.985 18.9872L64.199 18.907L64.6003 18.8749C64.9106 18.8482 64.9052 18.8268 65.5793 18.7198C65.574 18.677 65.59 18.661 65.6221 18.6556L65.6275 18.7145C66.7242 18.5273 66.7938 18.5166 66.9703 18.4578L66.9864 18.4899C67.2592 18.4257 67.1041 18.4417 67.179 18.3883C67.1843 18.4364 67.2004 18.4578 67.2271 18.4578L67.4197 18.4417L67.409 18.2973L67.0185 18.292L67.0131 18.2813C66.9971 18.2866 66.9864 18.2866 66.9703 18.292H66.9168V18.3027C66.6547 18.3562 66.6493 18.3187 66.4781 18.3348L65.4991 18.3883L65.4937 18.3187L66.0394 18.2439L66.2374 18.2278L66.3497 18.1476L66.3551 18.2171C67.1255 18.1529 67.3983 18.3455 70.9614 17.5861C71.154 17.57 71.138 17.4096 71.261 17.078C71.1968 17.0834 71.1326 17.0673 71.0738 17.0352C70.7795 17.1475 70.6244 17.0941 70.0573 17.185C70.0091 17.1903 69.9716 17.1475 69.9556 17.062L69.9502 17.0031L70.4959 17.0192C70.5976 17.0085 70.7955 16.9924 71.0898 16.8267C71.0898 16.8748 70.9774 16.9015 71.0416 16.8962L71.0417 16.8962ZM44.7159 17.3193L44.4468 17.3407C44.4353 17.2391 44.5785 16.854 44.8762 16.1962L45.0536 16.1802C45.0593 16.3353 44.9506 16.715 44.7159 17.3193H44.7159ZM45.0173 16.466L44.9984 16.2905C44.9795 16.0745 45.1686 15.926 45.5846 15.8585L45.6035 16.034C45.6224 16.2905 45.4333 16.439 45.0173 16.466ZM48.5288 18.6817L48.5365 19.0765L47.9365 19.2891L47.9289 18.8943L48.5288 18.6817ZM47.8436 18.6401C47.849 18.827 47.7206 19.0372 47.4424 19.2475L46.9288 19.1657L46.7629 19.2008L46.7469 18.862L47.8436 18.6401H47.8436ZM51.3463 3.39998L50.9761 3.44956L50.9683 3.25121C50.9604 3.05287 51.0313 2.9165 51.1888 2.85452L51.3227 2.84212L51.5748 3.00328C51.5826 3.23882 51.5118 3.37518 51.3463 3.39997V3.39998ZM55.2789 2.34607L55.4904 2.32766L55.5187 2.86147L54.9121 2.9351C54.898 2.64058 55.0109 2.4381 55.2789 2.34607L55.2789 2.34607ZM54.088 2.98506L53.7081 2.89671L53.7028 2.75313C54.2003 2.66477 54.3662 2.55433 54.6711 2.37762C54.6765 2.49911 54.73 2.54329 54.8263 2.5212L54.837 2.84149L54.6872 2.87462C54.5695 2.89671 54.4678 2.86357 54.3822 2.76418C54.2913 2.88566 54.195 2.96297 54.088 2.98506ZM54.563 4.53575L54.5577 4.20672L55.1729 3.92831L55.1783 4.25734L54.563 4.53575ZM55.2272 4.01666L55.2165 3.55385L55.8135 3.40922L55.8242 3.87203L55.2272 4.01666ZM55.2903 2.84177L55.2101 2.8559L55.2796 2.41798L55.9644 2.24846L55.9698 2.47448C55.7932 2.51686 55.5632 2.644 55.2903 2.84177L55.2903 2.84177ZM55.6418 4.37279L55.6276 3.85881L56.0233 3.77019C56.1576 3.73474 56.2282 3.89425 56.2353 4.24873L55.6418 4.37279ZM57.4513 1.47949L57.0661 2.01498L56.9966 2.04175C56.8147 2.12208 56.5793 2.0953 56.3011 1.96143C56.7986 1.80078 57.2748 1.61336 57.4513 1.47949V1.47949ZM57.1118 3.19078L57.1178 3.54972L56.5162 3.79822L56.5102 3.43928L57.1118 3.19078ZM57.9062 3.88371C57.9008 3.74618 57.7992 3.65449 57.5905 3.60864L57.0609 3.92956L56.6543 3.96394C56.5633 3.82641 56.5152 3.73472 56.5098 3.66595L56.9806 3.72326L58.0399 3.3565L58.5803 3.40234L58.5856 3.58572C58.3181 3.64303 58.0934 3.74618 57.9062 3.88371L57.9062 3.88371ZM63.3588 2.19458C63.423 2.19993 63.4658 2.19993 63.4819 2.19993C63.6691 2.0181 63.8778 1.87371 64.1185 1.7721C63.9259 2.61707 63.6263 3.24278 63.2144 3.64922L62.9148 3.46739C63.1662 2.83099 63.316 2.4085 63.3588 2.19458L63.3588 2.19458ZM62.6772 3.77831L62.8377 3.76747C62.6199 4.15796 62.425 4.36406 62.2645 4.37491L62.2301 3.96271C62.3332 3.96271 62.4823 3.89763 62.6772 3.77831ZM61.8438 5.18924C61.9883 4.61167 62.1274 4.28544 62.2558 4.19988L62.2611 4.2694C62.1862 4.80419 62.0685 5.08763 61.9134 5.10902L61.9401 5.44594C61.8117 5.62777 61.7529 5.76682 61.7582 5.87378L61.6833 5.87912L61.6405 5.41386C61.7261 5.40316 61.7957 5.32829 61.8438 5.18924L61.8438 5.18924ZM61.9753 5.9595C61.9885 6.04628 61.8566 6.24876 61.5928 6.56116L61.4081 6.56694L61.3686 6.34711C61.6192 6.09256 61.8302 5.96529 61.9753 5.9595H61.9753ZM57.3132 18.6231L57.2922 18.4477L57.837 18.4158L57.8999 19.0219C57.6065 19.0378 57.397 18.9102 57.3132 18.6231V18.6231ZM63.4651 19.0813C63.4598 18.9105 63.4384 18.8345 63.3902 18.8535L63.0425 18.9674L63.0371 18.7206H63.0692L63.8931 18.4739L63.8985 18.7206C63.6577 18.7586 63.5133 18.8915 63.4651 19.0813ZM63.3548 18.473C63.8506 18.7008 63.6027 18.9286 63.3548 19.0804C63.1068 19.0045 62.7764 18.7767 63.3548 18.473ZM63.097 17.8103L62.6369 17.8987L62.6316 17.7345L63.0489 17.646L63.4127 17.4313C63.418 17.5323 63.4395 17.5702 63.4876 17.5576C63.921 17.3807 63.8782 17.3302 64.0868 17.2923C64.1564 17.2797 64.1992 17.3807 64.2045 17.5829L63.097 17.8103L63.097 17.8103ZM64.8313 17.8523C64.5051 17.7258 64.4847 17.6245 64.2536 17.7004L64.2468 17.422L64.7702 17.2449L64.777 17.5233C64.7226 17.5486 64.9197 17.5992 64.8313 17.8523V17.8523ZM64.7482 17.8253L64.7341 17.3799L65.3277 17.2179L65.3418 17.6634L64.7482 17.8253ZM65.2414 17.6945L65.2319 17.4574C65.2984 17.4359 65.3933 17.3281 65.5168 17.1127C65.7162 17.0696 65.8206 17.3712 65.8396 17.716L65.2414 17.6944V17.6945ZM65.8796 17.6907L65.8679 17.2262L66.4639 17.0833L66.4756 17.5478L65.8796 17.6907ZM66.2538 17.4674C66.243 17.1994 66.3079 17.0386 66.4488 17.0029L66.6329 17.3959C66.622 17.2709 66.6545 17.1994 66.7195 17.1815L66.8603 17.6103L66.2538 17.4674H66.2538ZM71.5174 17.1181L72.1251 16.8144V16.5107C72.1251 16.5107 71.5174 16.8144 71.5174 17.1181ZM71.8943 16.5359C71.9977 16.4775 72.0495 16.4191 71.8038 16.384C71.6874 16.5008 71.9331 16.5359 71.6745 16.5476L71.6874 16.6527C71.7133 16.6293 71.7779 16.5943 71.8297 16.5592L71.6874 16.6644V16.6761L71.4159 16.9915L71.9589 16.8162H72.0236L71.9977 16.5242L71.8943 16.5359V16.5359ZM72.0412 16.757L71.9615 16.7803L71.9814 17.3644L72.5692 17.2476C72.5592 16.8738 72.1707 16.757 72.0412 16.757H72.0412Z" fill="#F9DC3E"/>
</svg>
