<svg width="1165" height="385" viewBox="0 0 1165 385" fill="none" xmlns="http://www.w3.org/2000/svg">
<path fill-rule="evenodd" clip-rule="evenodd" d="M61.9329 383.563C61.9329 383.563 13.9366 373.758 4.23565 352.138C-5.46534 330.517 4.84847 314.608 30.0968 296.604C55.345 278.599 82.2786 278.464 93.6342 316.122C104.99 353.78 103.029 389.422 61.9329 383.563Z" fill="#F2F2F2"/>
<path fill-rule="evenodd" clip-rule="evenodd" d="M435.368 14.8179C435.365 21.9033 429.623 27.6393 422.544 27.6359H368.818C361.739 27.6359 356 21.897 356 14.8179H356C356 7.7387 361.739 1.99988 368.818 1.99988H422.55C429.63 1.99988 435.368 7.7387 435.368 14.8179Z" fill="#F2F2F2"/>
<path fill-rule="evenodd" clip-rule="evenodd" d="M1132.51 202.664C1132.51 202.664 1092.2 194.43 1084.06 176.275C1075.91 158.119 1084.57 144.759 1105.78 129.64C1126.98 114.52 1149.6 114.407 1159.13 146.03C1168.67 177.654 1167.02 207.584 1132.51 202.664Z" fill="#F2F2F2"/>
<path fill-rule="evenodd" clip-rule="evenodd" d="M1111.34 42.9008C1111.34 54.0892 1102.27 63.1591 1091.09 63.1591C1079.9 63.1591 1070.83 54.0892 1070.83 42.9008C1070.83 31.7124 1079.9 22.6425 1091.09 22.6425C1102.27 22.6425 1111.34 31.7124 1111.34 42.9008Z" fill="#F2F2F2"/>
<path fill-rule="evenodd" clip-rule="evenodd" d="M710.595 60.5956C710.595 60.5956 678.714 76.9822 663.276 69.0861C647.838 61.1901 646.428 47.3911 652.606 25.5474C658.783 3.70375 674.084 -8.7043 697.806 7.58699C721.528 23.8783 736.737 45.1198 710.595 60.5956Z" fill="#F2F2F2"/>
<path fill-rule="evenodd" clip-rule="evenodd" d="M675.322 348.28C675.322 348.28 663.794 326.783 668.983 316.186C674.172 305.589 683.544 304.466 698.479 308.409C713.414 312.353 722.037 322.615 711.235 338.949C700.433 355.282 686.161 365.882 675.322 348.28Z" fill="#F2F2F2"/>
<path fill-rule="evenodd" clip-rule="evenodd" d="M1089.59 346.113C1089.59 360.051 1081.2 372.617 1068.32 377.951C1055.44 383.285 1040.62 380.337 1030.76 370.481C1020.91 360.625 1017.96 345.802 1023.29 332.925C1028.63 320.048 1041.19 311.652 1055.13 311.652C1064.27 311.65 1073.04 315.28 1079.5 321.743C1085.96 328.206 1089.59 336.973 1089.59 346.113V346.113Z" fill="#F2F2F2"/>
<path fill-rule="evenodd" clip-rule="evenodd" d="M99.9225 95.4611C99.9225 114.494 84.4937 129.922 65.4613 129.922C46.4288 129.922 31 114.494 31 95.4611C31 76.4287 46.4288 60.9999 65.4613 60.9999C74.6016 60.9979 83.368 64.628 89.8312 71.0912C96.2944 77.5544 99.9245 86.3208 99.9225 95.4611Z" fill="#F2F2F2"/>
<path fill-rule="evenodd" clip-rule="evenodd" d="M584.923 106.461C584.923 114.448 578.448 120.922 570.461 120.922C562.475 120.922 556 114.448 556 106.461C556 98.4744 562.475 91.9999 570.461 91.9999C574.297 91.9991 577.976 93.5224 580.688 96.2346C583.4 98.9468 584.923 102.626 584.923 106.461Z" fill="#F2F2F2"/>
<path fill-rule="evenodd" clip-rule="evenodd" d="M304.923 336.461C304.923 344.448 298.448 350.922 290.461 350.922C282.475 350.922 276 344.448 276 336.461C276 328.474 282.475 322 290.461 322C294.297 321.999 297.976 323.522 300.688 326.235C303.4 328.947 304.923 332.626 304.923 336.461Z" fill="#F2F2F2"/>
</svg>
