<svg width="567" height="54" viewBox="0 0 567 54" fill="none" xmlns="http://www.w3.org/2000/svg">
<path fill-rule="evenodd" clip-rule="evenodd" d="M7.71863 40.6274L7.42323 40.2481L27.2995 2.26768L27.595 2.64697L7.71863 40.6274Z" fill="#E535AB"/>
<rect x="5.34656" y="36.5479" width="43.0261" height="2.22902" fill="#E535AB"/>
<path fill-rule="evenodd" clip-rule="evenodd" d="M27.7184 50.1997L6.69917 37.1017L7.31262 35.8493L28.3318 48.9473L27.7184 50.1997Z" fill="#E535AB"/>
<path fill-rule="evenodd" clip-rule="evenodd" d="M46.4116 17.8353L25.3924 4.73736L26.0059 3.48491L47.0251 16.5829L46.4116 17.8353Z" fill="#E535AB"/>
<path fill-rule="evenodd" clip-rule="evenodd" d="M7.31702 17.8235L6.70357 16.571L27.7228 3.47308L28.3362 4.72553L7.31702 17.8235Z" fill="#E535AB"/>
<path fill-rule="evenodd" clip-rule="evenodd" d="M46.0143 40.6216L26.138 2.64111L26.4334 2.26182L46.3097 40.2423L46.0143 40.6216Z" fill="#E535AB"/>
<rect x="7.05164" y="14.4351" width="2.22989" height="24.8415" fill="#E535AB"/>
<rect x="44.4492" y="14.4318" width="2.22988" height="24.8415" fill="#E535AB"/>
<path fill-rule="evenodd" clip-rule="evenodd" d="M27.3361 49.2615L26.7991 48.1655L45.0794 36.7732L45.6163 37.8692L27.3361 49.2615Z" fill="#E535AB"/>
<path fill-rule="evenodd" clip-rule="evenodd" d="M49.6356 40.0015C48.346 42.244 45.4713 43.0094 43.228 41.7203C40.9847 40.4312 40.219 37.5577 41.5086 35.3152C42.7981 33.0728 45.6728 32.3074 47.9161 33.5964C50.1729 34.899 50.9386 37.7591 49.6356 40.0015Z" fill="#E535AB"/>
<path fill-rule="evenodd" clip-rule="evenodd" d="M12.2127 18.3951C10.9231 20.6375 8.04846 21.4029 5.80514 20.1138C3.56182 18.8248 2.79613 15.9512 4.08571 13.7088C5.37528 11.4663 8.24995 10.7009 10.4933 11.99C12.7366 13.2925 13.5023 16.1526 12.2127 18.3951Z" fill="#E535AB"/>
<path fill-rule="evenodd" clip-rule="evenodd" d="M4.09449 40.002C2.80492 37.7596 3.57061 34.8994 5.81393 33.5969C8.05724 32.3079 10.9185 33.0733 12.2215 35.3157C13.5111 37.5581 12.7454 40.4183 10.5021 41.7208C8.24531 43.0098 5.38407 42.2445 4.09449 40.002Z" fill="#E535AB"/>
<path fill-rule="evenodd" clip-rule="evenodd" d="M41.52 18.3942C40.2305 16.1518 40.9961 13.2916 43.2395 11.9891C45.4828 10.7001 48.344 11.4655 49.647 13.7079C50.9366 15.9504 50.1709 18.8105 47.9276 20.113C45.6843 21.402 42.8096 20.6367 41.52 18.3942Z" fill="#E535AB"/>
<path fill-rule="evenodd" clip-rule="evenodd" d="M26.8655 53.1476C24.2729 53.1476 22.1774 51.0529 22.1774 48.4613C22.1774 45.8698 24.2729 43.775 26.8655 43.775C29.4581 43.775 31.5536 45.8698 31.5536 48.4613C31.5536 51.0395 29.4581 53.1476 26.8655 53.1476Z" fill="#E535AB"/>
<path fill-rule="evenodd" clip-rule="evenodd" d="M26.8661 9.93622C24.2735 9.93622 22.178 7.84148 22.178 5.24991C22.178 2.65834 24.2735 0.563599 26.8661 0.563599C29.4587 0.563599 31.5542 2.65834 31.5542 5.24991C31.5542 7.84148 29.4587 9.93622 26.8661 9.93622Z" fill="#E535AB"/>
<path fill-rule="evenodd" clip-rule="evenodd" d="M552.154 25.3787C552.154 22.7199 548.823 20.2002 543.716 18.6376C544.894 13.4346 544.37 9.29504 542.063 7.96973C541.531 7.65885 540.909 7.5116 540.229 7.5116V9.33594C540.606 9.33594 540.909 9.40957 541.162 9.54865C542.275 10.1868 542.758 12.6165 542.382 15.7416C542.292 16.5106 542.144 17.3205 541.964 18.1468C540.36 17.7541 538.609 17.4514 536.767 17.2551C535.663 15.7416 534.517 14.3672 533.363 13.1646C536.031 10.6858 538.535 9.32776 540.237 9.32776V7.50342C537.987 7.50342 535.041 9.10688 532.062 11.8884C529.083 9.12324 526.136 7.53614 523.886 7.53614V9.36049C525.58 9.36049 528.092 10.7103 530.76 13.1728C529.615 14.3754 528.469 15.7416 527.38 17.2551C525.531 17.4514 523.779 17.7541 522.175 18.155C521.987 17.3369 521.848 16.5433 521.75 15.7825C521.365 12.6574 521.84 10.2277 522.944 9.58137C523.19 9.43411 523.509 9.36867 523.886 9.36867V7.54432C523.198 7.54432 522.576 7.69158 522.036 8.00245C519.736 9.32776 519.221 13.4591 520.407 18.6458C515.317 20.2166 512.002 22.7281 512.002 25.3787C512.002 28.0375 515.333 30.5572 520.44 32.1198C519.262 37.3228 519.785 41.4624 522.093 42.7877C522.625 43.0986 523.247 43.2458 523.935 43.2458C526.185 43.2458 529.132 41.6424 532.111 38.8609C535.09 41.626 538.036 43.2131 540.287 43.2131C540.974 43.2131 541.596 43.0658 542.136 42.755C544.436 41.4297 544.952 37.2983 543.765 32.1116C548.839 30.5491 552.154 28.0293 552.154 25.3787ZM541.497 19.9233C541.194 20.9786 540.817 22.0667 540.392 23.1548C540.056 22.5003 539.704 21.8458 539.32 21.1913C538.943 20.5369 538.542 19.8988 538.141 19.277C539.303 19.4488 540.424 19.6615 541.497 19.9233ZM537.748 28.635C537.11 29.7395 536.455 30.7866 535.776 31.7602C534.557 31.8665 533.321 31.9238 532.077 31.9238C530.841 31.9238 529.605 31.8665 528.394 31.7683C527.715 30.7948 527.052 29.7558 526.413 28.6596C525.791 27.5879 525.227 26.4998 524.711 25.4036C525.219 24.3074 525.791 23.2111 526.405 22.1394C527.044 21.035 527.698 19.9878 528.378 19.0143C529.597 18.9079 530.833 18.8507 532.077 18.8507C533.313 18.8507 534.548 18.9079 535.76 19.0061C536.439 19.9796 537.102 21.0186 537.74 22.1149C538.362 23.1866 538.927 24.2746 539.443 25.3709C538.927 26.4671 538.362 27.5634 537.748 28.635ZM540.393 27.5712C540.835 28.6675 541.211 29.7637 541.522 30.8272C540.45 31.089 539.321 31.3099 538.15 31.4817C538.551 30.8518 538.952 30.2055 539.329 29.5428C539.705 28.8884 540.057 28.2257 540.393 27.5712ZM532.094 36.301C531.333 35.5156 530.572 34.6402 529.819 33.6831C530.555 33.7158 531.308 33.7403 532.069 33.7403C532.839 33.7403 533.6 33.724 534.345 33.6831C533.608 34.6402 532.847 35.5156 532.094 36.301ZM526.005 31.4852C524.842 31.3134 523.721 31.1007 522.649 30.8389C522.952 29.7836 523.328 28.6955 523.754 27.6075C524.09 28.2619 524.441 28.9164 524.826 29.5709C525.211 30.2253 525.604 30.8635 526.005 31.4852ZM532.055 14.4596C532.816 15.245 533.577 16.1203 534.33 17.0775C533.594 17.0448 532.841 17.0202 532.08 17.0202C531.31 17.0202 530.549 17.0366 529.805 17.0775C530.541 16.1203 531.302 15.245 532.055 14.4596ZM525.996 19.2765C525.595 19.9064 525.194 20.5527 524.818 21.2154C524.441 21.8699 524.089 22.5243 523.754 23.1788C523.312 22.0826 522.935 20.9863 522.624 19.9228C523.696 19.6692 524.826 19.4483 525.996 19.2765ZM518.589 29.5192C515.692 28.2839 513.818 26.6641 513.818 25.3797C513.818 24.0953 515.692 22.4673 518.589 21.2402C519.293 20.9375 520.063 20.6675 520.856 20.4139C521.323 22.0173 521.937 23.6862 522.698 25.3961C521.945 27.0977 521.339 28.7584 520.881 30.3537C520.071 30.1001 519.301 29.8219 518.589 29.5192ZM522.991 41.2095C521.878 40.5714 521.395 38.1416 521.772 35.0165C521.862 34.2475 522.009 33.4376 522.189 32.6113C523.793 33.004 525.545 33.3067 527.386 33.5031C528.491 35.0165 529.637 36.3909 530.791 37.5935C528.123 40.0723 525.618 41.4304 523.916 41.4304C523.548 41.4222 523.237 41.3486 522.991 41.2095ZM542.404 34.9767C542.789 38.1018 542.314 40.5316 541.209 41.1779C540.963 41.3251 540.644 41.3906 540.268 41.3906C538.574 41.3906 536.061 40.0407 533.393 37.5782C534.539 36.3757 535.685 35.0094 536.773 33.496C538.623 33.2996 540.374 32.9969 541.978 32.5961C542.167 33.4223 542.314 34.2159 542.404 34.9767ZM545.557 29.5203C544.854 29.823 544.084 30.093 543.29 30.3466C542.824 28.7432 542.21 27.0743 541.449 25.3644C542.202 23.6628 542.807 22.0021 543.266 20.4068C544.076 20.6604 544.845 20.9386 545.566 21.2413C548.463 22.4766 550.337 24.0964 550.337 25.3808C550.329 26.6652 548.455 28.2932 545.557 29.5203Z" fill="#61DAFB"/>
<path fill-rule="evenodd" clip-rule="evenodd" d="M528.325 25.3789C528.325 23.3141 530 21.6403 532.066 21.6403C534.131 21.6403 535.806 23.3141 535.806 25.3789C535.806 27.4438 534.131 29.1176 532.066 29.1176C530 29.1176 528.325 27.4438 528.325 25.3789Z" fill="#61DAFB"/>
<path fill-rule="evenodd" clip-rule="evenodd" d="M459.11 16.7927L459.074 16.2589L458.503 16.3325L458.539 16.8663L459.11 16.7927ZM460.46 20.6308L460.474 20.7554L460.93 20.7321C460.916 20.6542 460.971 20.5296 461.068 20.3738L461.026 20.148C460.833 20.1558 460.64 20.3193 460.46 20.6308ZM453.863 25.5971C453.853 25.4527 453.403 24.8912 452.515 23.9018C452.499 23.72 452.804 23.4472 453.43 23.0889L455.217 21.5327C455.618 21.0246 455.853 20.2011 455.923 19.0566L455.902 18.7946C455.832 18.0031 455.26 17.3667 454.174 16.88C453.532 16.4468 452.376 16.2062 450.707 16.1634C449.326 16.281 447.524 16.773 445.303 17.6448C444.693 18.0833 443.998 18.5218 443.217 18.9603L443.227 19.094C443.276 19.0887 443.351 19.0619 443.436 19.0031C443.527 18.9924 443.581 19.0352 443.586 19.1208L443.72 19.0513L443.784 19.0459L443.789 19.1047C443.795 19.1743 443.313 19.554 442.339 20.2331L442.414 20.3722L442.35 20.3775L442.19 20.3187C442.195 20.3668 442.125 20.3989 441.992 20.4096L441.997 20.4685L442.152 20.661C442.104 20.6663 442.029 20.6449 441.927 20.6075C441.703 20.6289 441.483 20.7465 441.264 20.9712L441.355 20.5754C441.681 19.1689 441.906 17.9228 442.024 16.8426L442.008 16.773C441.783 16.6286 441.564 16.4254 441.36 16.1687C441.366 16.0029 441.366 15.9067 441.36 15.8853L441.344 15.8265L441.28 15.8425C440.574 16.9014 439.215 18.709 437.198 21.2653C435.663 23.0836 434.871 24.0943 434.823 24.2976C434.197 24.9447 433.897 25.3351 433.929 25.4688C433.763 25.5757 433.694 25.6827 433.721 25.8003C433.672 25.811 433.64 25.795 433.63 25.7468C433.362 26.18 432.966 26.4581 432.437 26.5811L431.88 26.7095C431.805 26.7255 431.768 26.779 431.773 26.8699L431.789 26.9394L431.998 26.8913L432.014 26.9501L431.543 27.132L430.709 27.3245L430.27 27.3512C430.206 27.4154 430.618 27.3459 430.457 27.3833L429.911 27.5117C429.58 27.5865 429.398 27.5598 429.366 27.4261L429.301 27.4421C429.312 27.501 429.318 27.5437 429.307 27.5812L429.275 27.4475L428.836 27.5491C428.804 27.3459 428.21 26.6079 427.06 25.3351C427.038 25.0891 427.445 24.7307 428.274 24.2655L430.618 22.2065C431.142 21.5327 431.452 20.4524 431.554 18.9657L431.522 18.6181C431.431 17.5699 430.671 16.7249 429.243 16.0725C428.397 15.5002 426.878 15.1954 424.684 15.1473C422.865 15.3024 420.49 15.9495 417.569 17.0779C416.766 17.6608 415.852 18.2384 414.824 18.8106L414.84 18.9924C414.91 18.9871 415.001 18.9496 415.113 18.8855C415.231 18.8748 415.295 18.9283 415.306 19.0352L415.488 18.9336L415.579 18.9283L415.584 19.0138C415.589 19.0994 414.953 19.5967 413.663 20.5059L413.765 20.6663L413.674 20.6717L413.476 20.6021C413.482 20.6556 413.391 20.6931 413.203 20.7091L413.214 20.8054L413.428 21.0407C413.358 21.046 413.262 21.0246 413.139 20.9819C412.722 21.0193 412.315 21.3188 411.914 21.8856L412.016 22.0461C412.363 21.7252 412.567 21.5648 412.626 21.5594L412.647 21.8215C412.588 21.8268 412.497 21.8643 412.374 21.9284L412.593 22.26C413.016 21.8054 413.482 21.415 413.99 21.0888C414.241 21.153 414.375 21.2332 414.38 21.3188L414.573 21.3027C415.953 20.2813 417.317 19.5433 418.671 19.0887L418.687 19.2705C418.436 19.6449 418.264 19.8374 418.173 19.8481C418.184 19.9764 418.227 20.0888 418.307 20.185C418.329 20.415 417.713 21.9659 416.467 24.8324C413.637 31.4959 411.261 36.4266 409.33 39.614C409.335 39.6782 409.373 39.7637 409.442 39.8707C409.918 39.7584 410.218 39.6407 410.346 39.5284L410.448 39.5177L410.464 39.6996L410.641 39.6835L410.823 39.5819C410.828 39.6354 410.887 39.6621 411.01 39.6514L411.026 39.8333C411.042 40.0097 410.94 40.2771 410.726 40.6461C410.534 40.8654 410.325 41.3253 410.106 42.0259L410.111 42.1115L410.288 42.0954C411.058 41.2344 411.641 40.3894 412.042 39.5659C414.289 38.9081 416.001 38.261 417.189 37.6246C418.382 37.523 419.292 37.2074 419.912 36.6887L419.902 36.5924L419.452 36.7261L419.35 36.7368L419.34 36.6406C420.217 36.5069 420.822 36.3143 421.159 36.0469C422.865 34.7314 424.155 33.8008 425.027 33.25C426.819 31.9344 427.985 30.6509 428.515 29.4048C428.611 29.3834 428.708 29.362 428.815 29.3353C429.066 29.3246 429.205 29.3193 429.243 29.3086C429.232 29.2604 429.253 29.2337 429.301 29.223C429.703 29.1802 429.51 29.2497 429.767 29.1909L430.441 29.0358C430.398 29.0465 430.382 29.0679 430.393 29.1107L430.495 29.0465C430.473 29.0465 430.457 29.0412 430.441 29.0358L430.553 29.0091L430.5 29.0412C430.575 29.0519 430.655 29.0465 430.746 29.0251L430.794 29.223L427.729 34.095L427.049 34.9453L426.717 36.0576L426.782 36.0416L427.113 35.9025L427.006 36.3357L427.038 36.4641L427.129 36.5764C427.087 36.5871 427.071 36.6138 427.081 36.662L427.097 36.7315L427.236 36.6994C427.44 36.5229 427.525 36.3625 427.493 36.2181C427.713 36.2555 427.857 36.2716 427.932 36.2502L427.948 36.3197C427.814 36.3518 427.745 36.4587 427.734 36.6406L427.75 36.7101L427.825 36.694C428.938 35.4801 431.666 31.3247 433.854 28.5064C433.785 28.2015 434.924 27.7791 437.278 27.2336L437.353 27.2175C437.439 27.5865 437.257 28.4796 436.808 29.8968C436.519 30.7525 436.38 31.2231 436.401 31.298C436.026 32.4371 435.85 33.0521 435.871 33.1484L435.037 35.8812C434.496 37.2823 434.084 38.753 433.795 40.3039C433.844 40.2932 433.919 40.2985 434.026 40.3253L434.143 40.2237C434.154 40.2718 434.186 40.2878 434.234 40.2771L434.186 40.0793L434.55 40.0686C434.657 40.0418 434.748 39.9081 434.823 39.6621C434.807 39.2931 434.882 39.0953 435.047 39.0525C435.272 38.1754 435.411 37.7369 435.459 37.7208C435.668 36.8491 435.823 36.3518 435.925 36.2288C436.24 35.095 436.47 34.5121 436.62 34.4747L436.652 34.6137L436.422 35.2073C436.021 36.9882 435.614 38.3947 435.203 39.4268L435.32 39.9402L435.395 39.9242C436.39 37.785 437.824 33.5495 439.691 27.2175C439.745 26.6613 440.012 26.2282 440.488 25.9233L440.381 25.811L440.365 25.7522C440.579 25.7041 440.729 25.6185 440.815 25.5008C440.804 25.4527 440.617 25.3832 440.253 25.2869L441.184 21.2974C441.387 21.1156 441.505 21.0193 441.542 21.0193L441.558 21.2225C441.51 21.2279 441.435 21.2546 441.35 21.3134L441.526 21.5648C441.847 21.2172 442.195 20.9177 442.575 20.6663C442.767 20.7198 442.864 20.784 442.874 20.8482L443.014 20.8375C444.073 20.062 445.111 19.5058 446.133 19.1689L446.143 19.3026C445.956 19.586 445.828 19.7304 445.758 19.7358C445.769 19.8321 445.795 19.9176 445.844 19.9925C445.86 20.169 445.4 21.3455 444.458 23.5275C442.307 28.5812 440.504 32.3194 439.038 34.7474C439.044 34.7955 439.076 34.8597 439.135 34.9453C439.493 34.8597 439.723 34.7688 439.814 34.6832L439.878 34.6779L439.889 34.8116L440.039 34.8009L440.173 34.7313C440.178 34.7688 440.226 34.7848 440.317 34.7795L440.328 34.9239C440.338 35.0522 440.264 35.2554 440.098 35.5335C439.943 35.6993 439.782 36.0469 439.611 36.5764L439.616 36.6459L439.755 36.6352C440.338 35.9828 440.783 35.341 441.087 34.71C442.794 34.2073 444.094 33.7206 444.993 33.2393C445.908 33.1591 446.598 32.9238 447.069 32.528L447.063 32.4585L446.716 32.5601L446.641 32.5654L446.635 32.4959C447.299 32.3997 447.764 32.2499 448.016 32.052C449.31 31.0573 450.289 30.3461 450.953 29.9289C453.018 28.4262 453.981 26.9822 453.863 25.5971ZM453.783 25.6885L453.889 26.2286C453.748 26.3623 453.596 26.4319 453.456 26.4372L453.281 25.5174C453.608 25.5708 453.772 25.6243 453.783 25.6885ZM413.067 21.7325L412.919 21.7489L412.893 21.24L413.492 21.1415L413.501 21.4042C413.405 21.4206 413.258 21.5191 413.067 21.7325ZM411.198 39.3644C410.984 39.2681 410.792 39.2307 410.626 39.2467L410.604 38.9846C410.594 38.883 410.652 38.8135 410.781 38.7868C410.899 38.7761 410.968 38.8616 410.979 39.0328C411.289 38.6531 411.46 38.4606 411.492 38.4552L411.69 38.5354C411.626 39.0702 411.46 39.343 411.198 39.3644L411.198 39.3644ZM430.52 19.2177C430.42 19.2284 430.219 18.9449 429.93 18.3834L429.912 18.2176C430.101 18.2016 430.296 18.4797 430.502 19.0519L430.52 19.2177ZM430.207 17.2234L430.132 17.3999L427.516 16.3089C429.26 16.3678 430.159 16.6726 430.207 17.2234V17.2234ZM419.382 27.0472L418.799 27.1457L418.774 26.6367L419.356 26.5382L419.382 27.0472ZM419.033 21.0097L419.19 21.0044L419.226 21.2664C419.079 21.2718 418.886 21.4001 418.646 21.6461L418.619 21.4643C418.904 21.2664 419.052 21.1167 419.033 21.0097H419.033ZM418.442 22.8374L418.6 23.4356L418.151 23.4448L417.992 22.8466L418.442 22.8374ZM417.805 23.4949L418.129 23.4737C418.099 23.8552 417.952 24.06 417.688 24.0741L417.521 24.0812C417.727 23.8269 417.825 23.6291 417.805 23.4949L417.805 23.4949ZM417.552 24.4068L417.73 24.3897L417.739 24.5266L417.449 24.9714L417.141 24.9971L417.131 24.8602C417.44 24.8346 417.58 24.6891 417.552 24.4068ZM417.498 25.2191L417.319 25.8192L417.015 25.8265L416.89 25.2337L417.498 25.2191H417.498ZM414.288 33.7486C414.104 34.3475 413.904 34.6523 413.696 34.663L413.688 34.5775C413.638 34.2833 413.838 34.0053 414.288 33.7486H414.288ZM413.942 34.9394L413.961 35.1264C414 35.3833 413.807 35.5352 413.382 35.5469L413.363 35.36C413.324 35.138 413.517 34.9979 413.942 34.9394ZM413.416 37.4632L413.791 37.3892L413.805 37.6558C413.711 37.6707 413.589 37.7744 413.437 37.9522L413.199 37.9966C413.185 37.7447 413.264 37.5521 413.416 37.4632H413.416ZM421.278 34.9729C419.715 35.743 418.795 36.2671 418.522 36.5398C416.832 37.1281 415.992 37.4917 416.008 37.6361C414.504 38.2297 413.515 38.6683 413.039 38.941C412.926 38.9517 412.766 38.9089 412.552 38.8127C412.525 38.5078 412.664 38.2618 412.958 38.064C413.22 38.0426 413.472 38.08 413.713 38.1816C413.991 38.0372 414.478 37.8768 415.168 37.7057L415.152 37.5238L414.595 37.572C414.665 37.4757 415.2 37.2243 416.206 36.8179L416.484 36.7912L416.489 36.8767C416.013 36.9195 415.751 37.0586 415.692 37.3099C415.703 37.4222 415.767 37.4703 415.885 37.4596C416.243 37.235 416.42 37.1013 416.414 37.0639C417.094 36.9355 418.972 35.9515 422.048 34.1172L422.064 34.283C422.069 34.3632 421.807 34.5878 421.278 34.9729V34.9729ZM416.559 36.5234C417.008 36.4859 417.393 36.3041 417.714 35.9886C417.843 35.9779 417.912 36.026 417.917 36.1383C417.698 36.1597 417.275 36.3415 416.66 36.6945L416.569 36.6999L416.559 36.5234H416.559ZM424.172 30.6783L421.812 32.5447C420.057 33.6945 419.116 34.2721 418.982 34.2828C416.189 35.8177 414.451 36.6145 413.776 36.6733L413.675 36.684C413.76 36.3685 415.002 33.8282 417.409 29.0472C418.468 28.9563 420.138 28.4643 422.411 27.5658L422.968 27.5177C424.118 27.4161 424.979 27.6407 425.546 28.1755L425.579 28.5231C425.151 29.7531 424.68 30.4697 424.172 30.6783L424.172 30.6783ZM419.56 28.2176L420.159 28.052L420.167 28.4937L419.568 28.6594L419.56 28.2176ZM424.895 27.1935L425.173 27.1542C425.43 27.3347 425.564 27.4916 425.574 27.6328L425.58 27.7583C425.334 27.7897 425.104 27.6014 424.895 27.1935H424.895ZM425.648 22.8855C425.402 23.1796 424.728 23.6823 423.626 24.3883C423.262 24.4203 421.909 24.9444 419.565 25.9712C419.448 25.9178 419.325 25.8964 419.191 25.9071L419.175 25.7413C419.148 25.4044 419.298 24.9819 419.63 24.4685C419.811 23.5058 420.009 22.955 420.229 22.8213L422.181 18.4307C422.16 18.1579 422.577 17.9494 423.433 17.805L423.712 17.7782L423.733 18.0296C424.573 17.9012 425.097 17.8264 425.301 17.8103C426.852 17.6766 427.66 17.9921 427.724 18.7462L427.901 18.7302L427.863 18.2863L428.056 18.2702C428.511 18.5216 428.757 18.8264 428.789 19.1847C428.81 19.4307 428.676 19.7356 428.393 20.0992C428.275 20.1099 428.206 20.0243 428.195 19.8532L428.002 19.8693L427.959 20.404C427.173 21.5806 426.601 22.1849 426.247 22.217C425.926 22.6609 425.729 22.8801 425.648 22.8855ZM426.874 26.1399C426.703 25.9881 426.566 25.9197 426.463 25.9273L426.44 25.5553L426.628 25.5325L427.045 25.859C427.062 26.0336 427.005 26.1247 426.874 26.1399L426.874 26.1399ZM428.089 27.433C428.442 27.5527 428.652 27.6815 428.696 27.8012L428.52 27.838L428.531 27.8472C428.497 27.8472 428.453 27.8564 428.42 27.8656L428.155 28.0405L428.089 27.433ZM428.23 28.6551L428.189 28.3118L428.757 28.0477L428.797 28.391L428.23 28.6551ZM428.746 28.9793C428.976 28.8908 429.088 28.8528 429.516 28.625L429.532 28.7895L428.719 29.2324C428.729 29.1439 428.74 29.0553 428.746 28.9793H428.746ZM429.538 29.2795C429.195 29.3331 429.27 29.2617 428.725 29.4671L428.709 29.351L429.388 28.9847L429.714 28.8597L429.747 29.0741C429.602 29.1277 429.709 29.1277 429.538 29.2795H429.538ZM430.369 29.3647C430.24 29.4426 430.138 29.3063 430.078 28.9752L430.412 28.8C430.557 28.7221 430.651 28.8584 430.685 29.1894L430.369 29.3647ZM432.228 27.29L432.202 27.008L432.757 26.6826L432.81 27.2033L432.228 27.29ZM434.311 40.0276C434.358 39.7803 434.37 39.6016 434.346 39.4779L434.513 39.4367C434.716 39.3817 434.835 39.4642 434.882 39.6841L434.918 39.8627L434.311 40.0276ZM435.776 27.4541L435.626 27.4201C435.385 27.5427 435.182 27.6312 435.016 27.6789L434.877 27.7197C434.797 27.747 434.732 27.7061 434.7 27.5971L435.679 27.3111L436 27.1205L436.107 27.2771C435.952 27.3179 435.84 27.3792 435.776 27.4541ZM436.531 27.4022L436.515 27.2807C436.563 27.262 436.627 27.1966 436.696 27.0751L437.392 26.7948L437.408 26.9163C437.039 27.0751 436.745 27.234 436.531 27.4022ZM436.637 25.7386C436.589 25.7494 436.524 25.7924 436.444 25.8569C436.433 25.8085 436.337 25.8085 436.155 25.8515C436.123 25.7171 436.637 25.529 437.701 25.2817L437.851 25.2495L437.883 25.3785C437.134 25.5989 436.717 25.7225 436.637 25.7386ZM438.51 23.715C438.435 24.5653 438.135 25.0466 437.606 25.1696L437.59 25.1001L437.119 25.2819L436.91 25.33C436.803 25.3568 436.707 25.3514 436.621 25.3247L436.579 25.1375C436.563 25.068 437.242 24.1268 438.622 22.3192L438.783 22.3459C438.842 22.5919 438.751 23.0465 438.51 23.715ZM441.908 21.3133L441.77 21.3336L441.747 20.8274L442.343 20.7261L442.355 20.9894C442.252 21.0299 442.103 21.1311 441.908 21.3133L441.908 21.3133ZM440.457 34.5764C440.296 34.5016 440.152 34.4695 440.029 34.4802L440.013 34.277C440.008 34.2074 440.05 34.1593 440.141 34.1326C440.232 34.1219 440.286 34.186 440.296 34.3251C440.527 34.0309 440.655 33.8812 440.682 33.8812L440.826 33.94C440.773 34.3465 440.65 34.5604 440.457 34.5764L440.457 34.5764ZM455.27 19.2801C455.17 19.2855 454.977 19.0716 454.677 18.6384L454.662 18.5047C454.854 18.494 455.054 18.7026 455.254 19.1304L455.27 19.2801ZM454.89 17.7523L454.826 17.8914L452.846 17.0625C454.168 17.1052 454.853 17.3352 454.89 17.7523ZM446.816 25.3306L446.231 25.4353L446.208 24.9116L446.793 24.8278L446.816 25.3306ZM446.491 20.6301L446.662 20.6235L446.698 20.8744C446.54 20.881 446.346 20.9999 446.115 21.231L446.09 21.0659C446.37 20.8744 446.504 20.7292 446.491 20.6301V20.6301ZM446.081 22.0187L446.216 22.614L445.744 22.6261L445.609 22.0308L446.081 22.0187ZM445.528 22.5235L445.864 22.5053C445.826 22.8861 445.683 23.0856 445.438 23.1037L445.257 23.1128C445.451 22.8589 445.541 22.6595 445.528 22.5235H445.528ZM445.394 23.2063L445.54 23.1953L445.552 23.3388L445.273 23.7806L444.957 23.8027L444.945 23.6591C445.273 23.637 445.419 23.4824 445.395 23.2063H445.394ZM445.387 23.8227L445.177 24.4208L444.897 24.4302L444.78 23.8414L445.387 23.8227H445.387ZM442.947 30.309C442.76 30.7582 442.562 30.9882 442.353 30.9989L442.342 30.94C442.309 30.7154 442.507 30.5015 442.947 30.309ZM442.66 31.2121L442.684 31.3791C442.732 31.6525 442.54 31.8043 442.109 31.8195L442.085 31.6221C442.061 31.4247 442.253 31.288 442.66 31.2121ZM442.19 33.1402L442.563 33.0794L442.572 33.3426C442.488 33.3629 442.358 33.4641 442.208 33.6464L441.965 33.6869C441.956 33.4034 442.031 33.2212 442.19 33.1402ZM448.101 31.2384C446.924 31.8214 446.224 32.2171 446.004 32.4203C444.72 32.8695 444.084 33.1476 444.094 33.2599C442.955 33.7145 442.206 34.0407 441.853 34.2493C441.767 34.2547 441.644 34.2226 441.483 34.1477C441.462 33.9177 441.569 33.7306 441.794 33.5915C441.997 33.5755 442.19 33.6022 442.366 33.6771C442.58 33.5701 442.949 33.4525 443.474 33.3188L443.463 33.1851L443.024 33.2172C443.078 33.1423 443.49 32.9498 444.255 32.6396L444.469 32.6235L444.474 32.6824C444.11 32.7145 443.907 32.8214 443.864 33.0139C443.869 33.0995 443.923 33.1423 444.014 33.1316C444.281 32.9551 444.41 32.8535 444.41 32.8214C444.923 32.7305 446.347 31.9818 448.684 30.5806L448.695 30.7143C448.701 30.7732 448.503 30.9443 448.101 31.2384L448.101 31.2384ZM444.518 32.4742C444.866 32.4375 445.16 32.2846 445.406 32.0155C445.497 32.0032 445.55 32.0522 445.556 32.15C445.395 32.1684 445.08 32.3213 444.603 32.6149L444.529 32.6211L444.518 32.4743L444.518 32.4742ZM450.307 27.9719L448.525 29.4052C447.193 30.2769 446.471 30.7154 446.359 30.7261C444.24 31.892 442.924 32.4963 442.405 32.5391L442.33 32.5444C442.394 32.3038 443.341 30.3732 445.171 26.7473C445.968 26.6777 447.231 26.298 448.964 25.6135L449.397 25.5761C450.269 25.5012 450.922 25.6723 451.35 26.0841L451.372 26.3462C451.045 27.266 450.692 27.8061 450.307 27.9719L450.307 27.9719ZM446.808 26.1452L447.404 25.9764L447.415 26.4151L446.819 26.5839L446.808 26.1452ZM450.857 25.3293L451.106 25.298C451.335 25.4855 451.453 25.6522 451.459 25.7876L451.465 25.9021C451.248 25.9334 451.044 25.7459 450.857 25.3293V25.3293ZM451.419 22.0585C451.232 22.2831 450.723 22.6681 449.894 23.2029C449.616 23.2296 448.589 23.6254 446.812 24.3955C446.727 24.3634 446.631 24.3527 446.529 24.3581L446.518 24.2244C446.497 23.9677 446.609 23.6468 446.855 23.2564C446.994 22.5184 447.15 22.1066 447.31 22.0103L448.803 18.6732C448.787 18.4753 449.102 18.3149 449.744 18.1919L449.958 18.1759L449.974 18.3791C450.606 18.2775 451.002 18.2186 451.162 18.2026C452.339 18.101 452.954 18.3363 453.002 18.9139L453.142 18.9032L453.115 18.5823L453.254 18.5716C453.596 18.7588 453.778 18.9834 453.8 19.2508C453.816 19.4433 453.719 19.6786 453.516 19.9514C453.425 19.9621 453.372 19.8979 453.361 19.7588L453.222 19.7695L453.179 20.1706C452.585 21.0744 452.152 21.5397 451.879 21.5611C451.638 21.8873 451.488 22.0531 451.419 22.0585V22.0585ZM452.051 24.4678L452.029 24.0894L452.221 24.0694L452.636 24.408C452.643 24.5673 452.584 24.657 452.458 24.6769C452.28 24.5275 452.147 24.4578 452.051 24.4678H452.051ZM427.444 37.2719L427.141 37.3544L426.884 37.6155C426.931 37.8354 427.047 37.9179 427.246 37.8629C427.444 37.8079 427.526 37.6705 427.479 37.4506L427.444 37.2719ZM426.625 36.4831L426.698 36.6667C427.115 36.6102 427.287 36.4689 427.189 36.2429L427.115 36.0593C426.723 36.1158 426.551 36.257 426.625 36.4831ZM430.448 27.6916L430.954 27.5627L430.853 27.0841L430.347 27.213L430.448 27.6916ZM478.923 31.3352C477.297 31.8155 477.094 31.7308 476.751 31.7661L476.762 31.9427L476.912 31.9285L476.992 31.9215L476.97 31.9003L477.147 31.8085C478.757 31.5754 478.945 31.6601 478.929 31.42L478.923 31.3352ZM470.165 32.4972L470.368 33.1047H470.773L470.57 32.4972H470.165ZM469.451 28.9722L469.173 28.9241C468.947 29.2396 468.834 29.4268 468.844 29.4803L468.854 29.5391C469.07 29.5338 469.266 29.3412 469.451 28.9722H469.451ZM479.255 31.3101L479.282 31.7703L479.863 31.9176L479.837 31.4574L479.255 31.3101ZM468.187 32.8004L467.823 32.7181L467.759 32.9858L467.764 33.1196L469.931 32.7695L469.92 32.5122L468.187 32.8004ZM467.59 28.0418L467.575 27.8492L467.364 27.864L466.987 28.1011L467.198 28.4566C467.485 28.427 467.621 28.2937 467.59 28.0418V28.0418ZM480.282 30.3238L480.384 30.3131C480.442 30.3078 480.469 30.2597 480.464 30.1741L480.405 30.0457C480.036 30.0778 479.865 30.0939 479.565 30.2597L479.56 30.1901L479.116 30.2329C479.105 30.0992 479.067 30.0297 479.009 30.035L478.779 30.0564C478.511 30.0778 478.383 30.0671 478.249 30.1687C478.244 30.1206 478.227 30.0992 478.201 30.0992L477.944 30.1206L477.794 30.2062C477.789 30.1581 477.773 30.1367 477.746 30.1367L477.655 30.2169L477.65 30.1474L477.291 30.1206L477.206 30.126L477.216 30.2597L477.398 30.3078L477.569 30.2971C477.628 30.3345 477.692 30.3452 477.767 30.3399L477.917 30.265L477.923 30.3238C477.083 30.5324 477.088 30.495 476.51 30.5912C476.446 30.5485 476.398 30.5271 476.366 30.5324L476.355 30.5431C476.291 30.5378 476.253 30.495 476.248 30.4254L476.548 30.388C476.569 30.388 476.585 30.4094 476.751 30.4415C476.992 30.3238 477.002 30.2757 477.131 30.265L477.12 30.1313C476.296 30.2918 476.628 30.1848 475.595 30.2757L475.547 30.2811L475.536 30.1474C476.863 29.9869 476.419 30.0778 476.874 29.9495C476.879 29.9976 476.895 30.019 476.922 30.019C476.976 29.9655 477.034 29.9388 477.104 29.9281L477.195 29.9227C477.66 29.8853 477.816 29.9762 478.736 29.7195L478.741 29.7783L478.891 29.7035L479.03 29.6928C479.019 29.5591 479.223 29.5377 479.292 29.5323L479.281 29.388C477.666 29.7142 477.243 29.6233 476.794 29.7516L476.788 29.6928C476.366 29.7677 476.35 29.7356 476.243 29.7409C476.211 29.7463 476.162 29.773 476.109 29.8265C476.104 29.7783 476.088 29.757 476.055 29.757C476.039 29.757 476.034 29.7623 476.029 29.7623L474.659 29.9869C474.654 29.9495 474.638 29.9281 474.606 29.9334C473.894 30.0832 474.087 30.1099 473.134 30.1955C473.092 30.2008 473.033 30.2222 472.958 30.2704C472.952 30.2329 472.931 30.2115 472.883 30.2169L472.3 30.265L471.909 30.3613C471.904 30.3238 471.882 30.3024 471.834 30.3078C471.615 30.3666 471.422 30.4041 471.267 30.4147H471.256C471.16 30.4254 471.305 30.388 471.23 30.3559L471.112 30.4254C470.941 30.4415 471.032 30.4147 470.443 30.4201C469.411 30.5484 469.523 30.5645 469.411 30.5698L469.026 30.5431C469.031 30.5805 469.009 30.6073 468.967 30.6073C468.528 30.5484 468.303 30.4789 468.298 30.3987C468.357 29.9816 468.458 29.7677 468.603 29.757L468.678 29.7516L468.614 29.8907L468.688 29.8853C468.828 29.8104 468.892 29.7409 468.886 29.6767L468.876 29.5323L468.737 29.543L468.726 29.4093C468.715 29.3077 468.731 29.2168 468.769 29.1419L469.084 28.6339L469.095 28.7676L469.245 28.7569L469.234 28.6232L469.149 28.5002C469.261 28.4039 469.347 28.3505 469.416 28.3451L469.411 28.2756L469.207 28.2916L469.191 28.0884C469.598 27.2434 469.791 26.7514 469.78 26.6124L469.924 26.6712C470.015 26.6659 470.058 26.6124 470.053 26.5161L469.914 26.5268L469.908 26.468C469.898 26.3664 469.919 26.2701 469.962 26.1845C470.181 25.9546 470.283 25.7246 470.261 25.484C470.304 25.4786 470.326 25.5 470.331 25.5481C470.518 25.4412 470.663 25.1577 470.77 24.6871C471.101 24.0882 471.572 22.8902 472.187 21.0987C473.364 17.9327 473.316 17.5958 473.482 16.8471L473.343 16.8578C473.354 16.954 473.332 17.045 473.289 17.1305C473.193 17.0931 473.118 17.0717 473.065 17.077L473.059 17.0182C473.038 16.7455 473.15 16.4192 473.407 16.0342L473.471 16.0288L473.589 16.4888L473.728 16.4781C473.723 16.446 473.76 16.2642 473.835 15.9272C473.83 15.8577 473.776 15.8149 473.669 15.8096L473.536 15.8952C473.525 15.7989 473.53 15.5475 473.546 15.1464L473.477 15.1518C473.359 15.0341 473.3 14.9379 473.295 14.8577L472.53 14.9325C472.524 14.879 472.498 14.7988 472.444 14.6972C472.439 14.6277 472.61 14.5582 472.963 14.4886L473.118 14.5475L473.263 14.4619C473.268 14.51 473.295 14.5314 473.348 14.5261L473.493 14.4405C473.498 14.4886 473.525 14.51 473.578 14.5047L473.648 14.4993L473.637 14.3443C473.53 14.355 473.247 14.355 472.797 14.3389L472.653 14.4352L472.647 14.3496C469.058 14.6437 467.019 14.8095 466.532 14.8577C466.468 14.863 466.217 14.8577 465.773 14.847C465.778 14.9058 465.725 14.9379 465.618 14.9486L465.462 14.879L464.938 15.0127C464.815 15.0234 464.606 15.0181 464.318 14.986C464.237 15.0502 464.141 15.0876 464.023 15.0983C463.959 15.1037 464.788 15.0555 465.559 15.0021C465.478 15.0662 465.355 15.1037 465.184 15.1197C465.067 15.1304 464.965 15.1144 464.879 15.0662C464.762 15.1197 464.382 15.2053 463.745 15.3336L463.59 15.2748L461.086 15.6598C460.99 15.6117 460.877 15.5957 460.749 15.6064C460.615 15.6171 460.391 15.6652 460.08 15.7508L458.871 16.2535L458.962 16.4032C459.021 16.3979 459.107 16.3658 459.208 16.3069L459.636 16.3444L459.583 16.7455C459.187 16.922 458.957 17.184 458.893 17.5156C458.299 17.7776 458.004 17.9648 458.004 18.0771L458.01 18.1466L458.101 18.1413L458.261 18.0557L458.449 18.2803L458.475 18.5905C458.486 18.6868 457.486 20.7885 455.485 24.8957C453.751 28.8532 452.842 31.0191 452.756 31.4095C452.162 31.5752 451.82 31.8159 451.718 32.1368C451.729 32.2384 451.905 32.3079 452.248 32.3347L452.264 32.4897L452.109 32.7464L452.136 33.0566C452.152 33.2171 452.585 33.3401 453.436 33.4256C453.43 33.3721 453.457 33.3401 453.516 33.3347C453.532 33.5272 453.478 33.9016 453.355 34.4578L453.446 34.4524C453.799 33.9711 453.965 33.6395 453.949 33.4577L454.024 33.4524C454.11 33.447 454.201 33.5433 454.308 33.7518C454.201 33.7946 453.826 34.645 453.184 36.3082L453.275 36.4579L453.366 36.4525C454.152 34.4631 454.645 33.3615 454.848 33.1529C455.881 33.062 457.667 32.8801 460.203 32.6074L460.364 32.5111C460.369 32.5646 460.401 32.5914 460.46 32.586L460.626 32.57L460.786 32.4737C460.792 32.5272 460.824 32.5539 460.883 32.5486L462.803 32.3828C463.312 32.34 463.552 32.1849 463.531 31.9229C463.526 31.8533 463.825 31.7731 464.43 31.6876C464.489 31.6822 464.574 31.6982 464.692 31.7357C464.687 31.6876 464.992 31.6394 465.602 31.5859C465.618 31.2651 465.719 31.0939 465.901 31.0779L465.885 30.9228C465.714 30.9388 465.521 30.9816 465.297 31.0565C464.895 31.0351 464.639 31.003 464.531 30.9656C464.424 31.0244 464.344 31.0565 464.285 31.0618L462.948 31.1046L462.787 31.1902C462.782 31.1421 462.75 31.1207 462.691 31.126L462.616 31.1314L462.445 31.2169C462.44 31.1688 462.301 31.1314 462.022 31.0939L461.851 31.1955L461.519 31.2223L461.514 31.1367C463.237 30.9495 464.087 30.7142 464.066 30.4361C464.178 30.4254 464.237 30.4789 464.248 30.5912L464.751 30.4629L464.735 30.3078L460.61 30.4201C460.615 30.4736 460.589 30.5057 460.53 30.511L460.027 30.4682C459.898 30.4789 459.791 30.5164 459.706 30.5805L459.519 30.511C459 30.5538 458.614 30.618 458.358 30.6982C458.005 30.6714 457.614 30.6768 457.181 30.7142L456.255 30.7945L455.827 30.7463C455.806 30.4736 456.335 29.1312 457.427 26.7247C457.742 25.9118 458.031 25.4037 458.309 25.2112C458.368 25.2059 458.454 25.2273 458.572 25.2754L459.23 25.0508L459.567 25.1043C460.134 25.0561 460.792 24.8957 461.546 24.6176C461.733 24.6016 461.873 24.6123 461.974 24.655L462.477 24.5374L463.975 24.409C464.612 24.3556 465.302 24.2165 466.051 23.9866L466.035 23.8315C465.757 23.8582 465.612 23.8101 465.602 23.6978C465.585 23.4892 465.382 23.4036 464.992 23.4357L464.976 23.2806L465.388 23.163L466.468 23.0721L466.452 22.917C466.409 22.9223 466.19 22.917 465.783 22.9009L465.767 22.7351L466.185 22.6977C466.297 22.687 466.345 22.6335 466.334 22.5266C465.773 22.5426 465.489 22.5159 465.484 22.441C461.568 22.6335 459.604 22.671 459.593 22.548C459.535 22.5533 459.454 22.5907 459.347 22.6549L459.246 22.4945C460.284 20.2911 460.894 19.1788 461.07 19.1627C461.075 19.2483 461.033 19.3873 460.936 19.5745L460.942 19.644L461.107 19.628C461.519 18.644 461.867 18.1359 462.156 18.1145C463.387 18.0076 461.985 17.9274 464.617 17.5156C464.724 17.5637 464.799 17.5851 464.853 17.5797C465.885 17.3712 467.324 17.1519 469.17 16.9273L469.159 16.7722L468.175 16.8631L468.164 16.708C468.282 16.6973 468.378 16.6599 468.458 16.5957L468.464 16.6813C468.517 16.6759 468.592 16.6385 468.688 16.5743C468.86 16.5583 468.988 16.5743 469.079 16.6225C469.421 16.5316 469.7 16.4781 469.903 16.4567L470.518 16.3979C470.668 16.3016 470.737 16.216 470.732 16.1358L470.727 16.0663C470.572 16.0823 470.395 16.0716 470.186 16.0342C470.181 15.9486 470.224 15.8898 470.326 15.8631L471.47 15.7561L471.995 15.6224C472 15.6812 472.027 15.7026 472.07 15.7026C472.123 15.6973 472.198 15.6598 472.294 15.5957C472.321 15.601 472.353 15.601 472.38 15.6064C472.31 15.7508 472.23 15.9593 472.15 16.2321L472 16.2428C471.989 16.1412 471.963 16.0502 471.914 15.97L471.84 15.9754C470.449 19.8473 469.828 21.6495 468.544 24.623C468.309 25.3824 468.111 25.8048 467.939 25.8958C467.945 25.9813 467.998 26.0241 468.089 26.0134C468.121 26.3878 468.036 26.7568 467.827 27.1204C467.233 28.8318 466.837 29.7676 466.634 29.9388L466.768 30.7463C466.773 30.8319 466.73 30.88 466.639 30.8907L466.5 30.9014C466.479 30.6768 466.399 30.5698 466.254 30.5859L466.179 30.5912C465.997 30.8747 465.858 31.2009 465.767 31.5806L465.906 31.5699C466.094 31.4469 466.179 31.3025 466.163 31.1367L466.441 31.11L466.602 31.1688C466.474 31.372 466.415 31.5325 466.425 31.6555L466.5 31.7838L466.318 32.2117L466.324 32.2812C466.484 32.2651 466.661 32.3186 466.848 32.4309C466.976 32.4202 467.116 32.3614 467.271 32.2598C467.431 32.2437 468.03 32.2384 469.063 32.2384L469.582 32.0619C470.213 32.0566 470.315 32.0726 470.861 32.0245L471.085 32.0031L471.203 31.9229L471.208 31.9924C471.781 31.9443 471.818 31.9817 472.268 32.0352L472.273 32.1047L471.957 32.1314L471.968 32.2651C472.064 32.2544 472.15 32.2277 472.219 32.1689C472.3 32.1635 472.348 32.2063 472.353 32.3026C472.225 32.3133 472.08 32.3453 471.92 32.3988L471.781 32.3507C471.561 32.4095 471.61 32.4256 471.46 32.4363L471.24 32.3935C471.246 32.4309 471.224 32.4577 471.187 32.4577C471.192 32.5432 471.24 32.586 471.321 32.5807L471.545 32.5593L472.717 32.4577L473.161 32.3614C473.166 32.3988 473.182 32.4202 473.22 32.4149L473.434 32.3347L473.835 32.3026C474.145 32.2758 474.14 32.2544 474.814 32.1475C474.809 32.1047 474.825 32.0886 474.857 32.0833L474.862 32.1421C475.959 31.955 476.029 31.9443 476.205 31.8854L476.221 31.9175C476.494 31.8533 476.339 31.8694 476.414 31.8159C476.419 31.864 476.435 31.8854 476.462 31.8854L476.655 31.8694L476.644 31.725L476.253 31.7196L476.248 31.7089C476.232 31.7143 476.221 31.7143 476.205 31.7196H476.152V31.7303C475.89 31.7838 475.884 31.7464 475.713 31.7624L474.734 31.8159L474.729 31.7464L475.274 31.6715L475.472 31.6555L475.585 31.5753L475.59 31.6448C476.36 31.5806 476.633 31.7731 480.196 31.0137C480.389 30.9977 480.373 30.8372 480.496 30.5057C480.432 30.511 480.367 30.495 480.309 30.4629C480.014 30.5752 479.859 30.5217 479.292 30.6126C479.244 30.618 479.207 30.5752 479.19 30.4896L479.185 30.4308L479.731 30.4468C479.832 30.4361 480.03 30.4201 480.325 30.2543C480.325 30.3024 480.218 30.3292 480.282 30.3238L480.282 30.3238ZM453.956 30.7476L453.687 30.769C453.675 30.6674 453.819 30.2823 454.116 29.6245L454.294 29.6085C454.299 29.7636 454.191 30.1433 453.956 30.7476H453.956ZM454.259 29.8943L454.24 29.7189C454.221 29.5029 454.41 29.3544 454.826 29.2869L454.845 29.4624C454.864 29.7189 454.675 29.8673 454.259 29.8943ZM457.77 32.1121L457.778 32.5069L457.178 32.7195L457.17 32.3247L457.77 32.1121ZM457.085 32.0683C457.091 32.2552 456.962 32.4655 456.684 32.6757L456.17 32.594L456.005 32.629L455.989 32.2902L457.085 32.0683H457.085ZM460.589 16.8297L460.218 16.8792L460.211 16.6809C460.203 16.4825 460.274 16.3462 460.431 16.2842L460.565 16.2718L460.817 16.433C460.825 16.6685 460.754 16.8049 460.589 16.8297V16.8297ZM464.52 15.7747L464.731 15.7563L464.759 16.2901L464.153 16.3637C464.139 16.0692 464.252 15.8667 464.52 15.7747L464.52 15.7747ZM463.328 16.4143L462.948 16.326L462.943 16.1824C463.441 16.0941 463.606 15.9836 463.911 15.8069C463.917 15.9284 463.97 15.9726 464.067 15.9505L464.077 16.2708L463.927 16.3039C463.81 16.326 463.708 16.2929 463.622 16.1935C463.532 16.3149 463.435 16.3923 463.328 16.4143ZM463.805 17.9643L463.799 17.6353L464.414 17.3569L464.42 17.6859L463.805 17.9643ZM464.467 17.4453L464.457 16.9825L465.054 16.8378L465.064 17.3007L464.467 17.4453ZM464.532 16.2701L464.452 16.2842L464.521 15.8463L465.206 15.6768L465.211 15.9028C465.035 15.9452 464.805 16.0723 464.532 16.2701L464.532 16.2701ZM464.884 17.8013L464.87 17.2874L465.265 17.1987C465.4 17.1633 465.47 17.3228 465.477 17.6773L464.884 17.8013ZM466.692 14.9083L466.307 15.4438L466.238 15.4705C466.056 15.5509 465.82 15.5241 465.542 15.3902C466.04 15.2296 466.516 15.0422 466.692 14.9083V14.9083ZM466.353 16.6172L466.359 16.9762L465.757 17.2247L465.751 16.8657L466.353 16.6172ZM467.148 17.3103C467.143 17.1728 467.041 17.0811 466.832 17.0352L466.303 17.3562L465.896 17.3905C465.805 17.253 465.757 17.1613 465.752 17.0925L466.222 17.1499L467.282 16.7831L467.822 16.8289L467.827 17.0123C467.56 17.0696 467.335 17.1728 467.148 17.3103L467.148 17.3103ZM472.599 15.6233C472.663 15.6286 472.706 15.6286 472.722 15.6286C472.909 15.4468 473.118 15.3024 473.359 15.2008C473.166 16.0458 472.866 16.6715 472.455 17.0779L472.155 16.8961C472.406 16.2597 472.556 15.8372 472.599 15.6233L472.599 15.6233ZM471.917 17.2076L472.078 17.1967C471.86 17.5872 471.665 17.7933 471.505 17.8042L471.47 17.392C471.573 17.392 471.722 17.3269 471.917 17.2076ZM471.086 18.618C471.23 18.0405 471.369 17.7142 471.497 17.6287L471.503 17.6982C471.428 18.233 471.31 18.5164 471.155 18.5378L471.182 18.8747C471.053 19.0566 470.995 19.1956 471 19.3026L470.925 19.3079L470.882 18.8426C470.968 18.832 471.037 18.7571 471.086 18.618L471.086 18.618ZM471.217 19.3886C471.23 19.4754 471.098 19.6779 470.834 19.9903L470.649 19.9961L470.61 19.7762C470.86 19.5217 471.072 19.3944 471.217 19.3886H471.217ZM466.554 32.0508L466.533 31.8753L467.077 31.8434L467.14 32.4495C466.847 32.4655 466.637 32.3379 466.554 32.0508V32.0508ZM472.708 32.5101C472.703 32.3393 472.681 32.2633 472.633 32.2823L472.285 32.3962L472.28 32.1494H472.312L473.136 31.9027L473.141 32.1494C472.9 32.1874 472.756 32.3203 472.708 32.5101ZM472.595 31.9029C473.091 32.1307 472.843 32.3585 472.595 32.5103C472.347 32.4344 472.017 32.2066 472.595 31.9029ZM472.337 31.2382L471.877 31.3267L471.872 31.1624L472.289 31.074L472.653 30.8592C472.658 30.9603 472.68 30.9982 472.728 30.9856C473.161 30.8087 473.118 30.7582 473.327 30.7203C473.397 30.7077 473.439 30.8087 473.445 31.0108L472.337 31.2382L472.337 31.2382ZM474.072 31.2796C473.746 31.153 473.725 31.0518 473.494 31.1277L473.488 30.8493L474.011 30.6721L474.018 30.9505C473.963 30.9758 474.16 31.0264 474.072 31.2795V31.2796ZM473.989 31.2527L473.975 30.8073L474.568 30.6453L474.582 31.0908L473.989 31.2527ZM474.482 31.1236L474.473 30.8866C474.539 30.8651 474.634 30.7573 474.757 30.5419C474.957 30.4988 475.061 30.8004 475.08 31.1452L474.482 31.1236V31.1236ZM475.121 31.1197L475.109 30.6552L475.705 30.5122L475.717 30.9768L475.121 31.1197ZM475.495 30.8963C475.484 30.6283 475.549 30.4675 475.69 30.4317L475.874 30.8248C475.863 30.6997 475.895 30.6283 475.96 30.6104L476.101 31.0392L475.495 30.8963H475.495ZM472.01 32.7659L471.888 32.1818L471.402 32.2051L471.523 32.7892L472.01 32.7659ZM481.136 29.9628C481.239 29.9044 481.291 29.846 481.045 29.8109C480.929 29.9278 481.174 29.9628 480.916 29.9745L480.929 30.0796C480.954 30.0563 481.019 30.0212 481.071 29.9862L480.929 30.0913V30.103L480.657 30.4184L481.2 30.2432H481.265L481.239 29.9511L481.136 29.9628V29.9628ZM481.282 30.1867L481.203 30.21L481.222 30.7941L481.81 30.6773C481.8 30.3035 481.412 30.1867 481.282 30.1867H481.282ZM480.759 30.5477L481.366 30.244V29.9403C481.366 29.9403 480.759 30.244 480.759 30.5477Z" fill="black"/>
<path fill-rule="evenodd" clip-rule="evenodd" d="M460.22 20.202L460.234 20.3266L460.689 20.3032C460.676 20.2253 460.731 20.1007 460.828 19.945L460.786 19.7191C460.593 19.7269 460.399 19.8905 460.22 20.202ZM458.869 16.3652L458.832 15.8314L458.261 15.905L458.298 16.4388L458.869 16.3652ZM453.622 25.1689C453.612 25.0245 453.162 24.463 452.274 23.4736C452.258 23.2918 452.563 23.019 453.189 22.6607L454.976 21.1045C455.377 20.5964 455.613 19.7728 455.682 18.6284L455.661 18.3663C455.591 17.5748 455.019 16.9384 453.933 16.4518C453.291 16.0186 452.135 15.7779 450.466 15.7352C449.086 15.8528 447.283 16.3448 445.062 17.2165C444.453 17.6551 443.757 18.0936 442.976 18.5321L442.987 18.6658C443.035 18.6605 443.11 18.6337 443.195 18.5749C443.286 18.5642 443.34 18.607 443.345 18.6926L443.479 18.623L443.543 18.6177L443.548 18.6765C443.554 18.746 443.072 19.1257 442.099 19.8049L442.174 19.944L442.109 19.9493L441.949 19.8905C441.954 19.9386 441.885 19.9707 441.751 19.9814L441.756 20.0402L441.911 20.2328C441.863 20.2381 441.788 20.2167 441.687 20.1793C441.462 20.2007 441.243 20.3183 441.023 20.5429L441.114 20.1472C441.441 18.7407 441.665 17.4946 441.783 16.4143L441.767 16.3448C441.542 16.2004 441.323 15.9972 441.12 15.7405C441.125 15.5747 441.125 15.4785 441.12 15.4571L441.104 15.3982L441.039 15.4143C440.333 16.4732 438.974 18.2808 436.957 20.8371C435.422 22.6554 434.63 23.6661 434.582 23.8693C433.956 24.5164 433.656 24.9068 433.688 25.0405C433.523 25.1475 433.453 25.2545 433.48 25.3721C433.432 25.3828 433.4 25.3668 433.389 25.3186C433.121 25.7518 432.725 26.0299 432.196 26.1529L431.639 26.2813C431.564 26.2973 431.527 26.3508 431.532 26.4417L431.548 26.5112L431.757 26.4631L431.773 26.5219L431.302 26.7037L430.468 26.8963L430.029 26.923C429.965 26.9872 430.377 26.9177 430.216 26.9551L429.671 27.0834C429.339 27.1583 429.157 27.1316 429.125 26.9979L429.061 27.0139C429.071 27.0727 429.077 27.1155 429.066 27.153L429.034 27.0193L428.595 27.1209C428.563 26.9177 427.969 26.1796 426.819 24.9068C426.798 24.6608 427.204 24.3025 428.033 23.8373L430.377 21.7783C430.901 21.1045 431.211 20.0242 431.313 18.5375L431.281 18.1899C431.19 17.1417 430.43 16.2967 429.002 15.6442C428.157 15.072 426.637 14.7672 424.444 14.7191C422.625 14.8741 420.249 15.5212 417.328 16.6497C416.526 17.2326 415.611 17.8101 414.584 18.3824L414.6 18.5642C414.669 18.5589 414.76 18.5214 414.872 18.4572C414.99 18.4466 415.054 18.5 415.065 18.607L415.247 18.5054L415.338 18.5L415.343 18.5856C415.349 18.6712 414.712 19.1685 413.423 20.0777L413.524 20.2381L413.433 20.2435L413.235 20.1739C413.241 20.2274 413.15 20.2648 412.963 20.2809L412.973 20.3771L413.187 20.6125C413.118 20.6178 413.021 20.5964 412.898 20.5536C412.481 20.5911 412.074 20.8905 411.673 21.4574L411.775 21.6179C412.123 21.297 412.326 21.1366 412.385 21.1312L412.406 21.3933C412.347 21.3986 412.256 21.436 412.133 21.5002L412.353 21.8318C412.775 21.3772 413.241 20.9868 413.749 20.6606C414 20.7248 414.134 20.805 414.14 20.8905L414.332 20.8745C415.712 19.8531 417.077 19.115 418.43 18.6605L418.446 18.8423C418.195 19.2166 418.024 19.4092 417.933 19.4199C417.943 19.5482 417.986 19.6605 418.066 19.7568C418.088 19.9867 417.473 21.5376 416.226 24.4041C413.396 31.0676 411.02 35.9984 409.089 39.1858C409.094 39.25 409.132 39.3355 409.201 39.4425C409.678 39.3302 409.977 39.2125 410.106 39.1002L410.207 39.0895L410.223 39.2713L410.4 39.2553L410.582 39.1537C410.587 39.2072 410.646 39.2339 410.769 39.2232L410.785 39.405C410.801 39.5815 410.699 39.8489 410.485 40.2179C410.293 40.4372 410.084 40.8971 409.865 41.5977L409.87 41.6833L410.047 41.6672C410.817 40.8062 411.4 39.9612 411.802 39.1376C414.049 38.4799 415.761 37.8328 416.948 37.1964C418.141 37.0947 419.051 36.7792 419.671 36.2605L419.661 36.1642L419.211 36.2979L419.11 36.3086L419.099 36.2123C419.976 36.0786 420.581 35.8861 420.918 35.6187C422.625 34.3031 423.914 33.3726 424.786 32.8218C426.578 31.5062 427.745 30.2227 428.274 28.9766C428.371 28.9552 428.467 28.9338 428.574 28.9071C428.825 28.8964 428.964 28.891 429.002 28.8803C428.991 28.8322 429.013 28.8055 429.061 28.7948C429.462 28.752 429.269 28.8215 429.526 28.7627L430.2 28.6076L430.313 28.5809L430.259 28.6129C430.334 28.6236 430.414 28.6183 430.505 28.5969L430.553 28.7948L427.488 33.6667L426.808 34.517L426.477 35.6294L426.541 35.6134L426.873 35.4743L426.766 35.9075L426.798 36.0359L426.889 36.1482C426.846 36.1589 426.83 36.1856 426.84 36.2337L426.856 36.3032L426.996 36.2712C427.199 36.0947 427.284 35.9342 427.252 35.7899C427.472 35.8273 427.616 35.8433 427.691 35.8219L427.707 35.8915C427.573 35.9235 427.504 36.0305 427.493 36.2123L427.509 36.2819L427.584 36.2658C428.697 35.0518 431.425 30.8965 433.613 28.0782C433.544 27.7733 434.683 27.3508 437.037 26.8053L437.112 26.7893C437.198 27.1583 437.016 28.0514 436.567 29.4686C436.278 30.3243 436.139 30.7949 436.16 30.8698C435.786 32.0089 435.609 32.6239 435.63 32.7201L434.796 35.4529C434.256 36.8541 433.844 38.3248 433.555 39.8757C433.603 39.865 433.678 39.8703 433.785 39.8971L433.902 39.7954C433.913 39.8436 433.945 39.8596 433.993 39.8489L433.945 39.6511L434.309 39.6404C434.416 39.6136 434.507 39.4799 434.582 39.2339C434.566 38.8649 434.641 38.667 434.807 38.6242C435.031 37.7472 435.17 37.3087 435.218 37.2926C435.427 36.4209 435.582 35.9235 435.684 35.8005C436 34.6668 436.23 34.0839 436.379 34.0464L436.412 34.1855L436.181 34.7791C435.78 36.5599 435.374 37.9665 434.962 38.9986L435.079 39.512L435.154 39.496C436.149 37.3568 437.583 33.1212 439.45 26.7893C439.504 26.2331 439.771 25.7999 440.247 25.4951L440.14 25.3828L440.124 25.324C440.338 25.2758 440.488 25.1903 440.574 25.0726C440.563 25.0245 440.376 24.955 440.012 24.8587L440.943 20.8692C441.146 20.6873 441.264 20.5911 441.301 20.5911L441.318 20.7943C441.269 20.7996 441.194 20.8264 441.109 20.8852L441.285 21.1366C441.606 20.7889 441.954 20.4895 442.334 20.2381C442.527 20.2916 442.623 20.3558 442.634 20.4199L442.773 20.4092C443.832 19.6338 444.87 19.0776 445.892 18.7407L445.902 18.8744C445.715 19.1578 445.587 19.3022 445.517 19.3076C445.528 19.4038 445.555 19.4894 445.603 19.5643C445.619 19.7407 445.159 20.9173 444.217 23.0992C442.066 28.153 440.264 31.8912 438.798 34.3192C438.803 34.3673 438.835 34.4315 438.894 34.517C439.252 34.4315 439.482 34.3406 439.573 34.255L439.638 34.2496L439.648 34.3833L439.798 34.3727L439.932 34.3031C439.937 34.3406 439.985 34.3566 440.076 34.3513L440.087 34.4957C440.098 34.624 440.023 34.8272 439.857 35.1053C439.702 35.2711 439.541 35.6187 439.37 36.1482L439.375 36.2177L439.515 36.207C440.098 35.5545 440.542 34.9128 440.847 34.2817C442.553 33.779 443.853 33.2924 444.752 32.8111C445.667 32.7308 446.357 32.4955 446.828 32.0998L446.823 32.0303L446.475 32.1319L446.4 32.1372L446.395 32.0677C447.058 31.9714 447.523 31.8217 447.775 31.6238C449.07 30.6291 450.049 29.9178 450.712 29.5007C452.777 27.9979 453.74 26.554 453.622 25.1689ZM453.543 25.2603L453.648 25.8004C453.508 25.9341 453.356 26.0036 453.216 26.009L453.041 25.0891C453.368 25.1426 453.531 25.1961 453.543 25.2603ZM412.827 21.3043L412.679 21.3207L412.653 20.8118L413.252 20.7133L413.261 20.976C413.165 20.9924 413.018 21.0909 412.827 21.3043ZM410.957 38.9337C410.743 38.8374 410.55 38.8 410.385 38.816L410.363 38.554C410.352 38.4524 410.411 38.3829 410.54 38.3561C410.657 38.3454 410.727 38.431 410.738 38.6021C411.048 38.2224 411.219 38.0299 411.251 38.0245L411.449 38.1048C411.385 38.6396 411.219 38.9123 410.957 38.9337L410.957 38.9337ZM430.278 18.7893C430.178 18.8 429.977 18.5166 429.688 17.955L429.671 17.7892C429.859 17.7732 430.054 18.0513 430.261 18.6235L430.278 18.7893ZM429.966 16.7943L429.891 16.9708L427.275 15.8798C429.019 15.9386 429.917 16.2435 429.966 16.7943V16.7943ZM419.141 26.6178L418.558 26.7163L418.533 26.2074L419.115 26.1089L419.141 26.6178ZM418.791 20.582L418.947 20.5766L418.984 20.8387C418.837 20.844 418.643 20.9724 418.404 21.2184L418.376 21.0366C418.662 20.8387 418.809 20.6889 418.791 20.582H418.791ZM418.2 22.4082L418.359 23.0064L417.91 23.0156L417.751 22.4174L418.2 22.4082ZM417.566 23.0667L417.889 23.0455C417.86 23.4269 417.713 23.6318 417.448 23.6459L417.282 23.653C417.487 23.3987 417.585 23.2009 417.566 23.0667L417.566 23.0667ZM417.311 23.9778L417.488 23.9607L417.498 24.0976L417.208 24.5425L416.899 24.5682L416.89 24.4313C417.199 24.4056 417.339 24.2602 417.311 23.9778ZM417.257 24.7889L417.078 25.389L416.774 25.3963L416.649 24.8035L417.257 24.7889H417.257ZM414.047 33.319C413.864 33.918 413.664 34.2228 413.455 34.2335L413.447 34.148C413.397 33.8538 413.597 33.5757 414.047 33.319H414.047ZM413.701 34.5116L413.72 34.6985C413.759 34.9555 413.566 35.1074 413.141 35.1191L413.122 34.9322C413.083 34.7102 413.276 34.57 413.701 34.5116ZM413.175 37.0349L413.551 36.9608L413.565 37.2275C413.471 37.2423 413.349 37.346 413.197 37.5238L412.959 37.5682C412.945 37.3163 413.024 37.1237 413.175 37.0349H413.175ZM421.036 34.5446C419.474 35.3147 418.554 35.8388 418.281 36.1116C416.59 36.6999 415.75 37.0635 415.766 37.2079C414.263 37.8015 413.273 38.24 412.797 38.5128C412.685 38.5235 412.524 38.4807 412.31 38.3844C412.284 38.0796 412.423 37.8336 412.717 37.6357C412.979 37.6143 413.231 37.6518 413.471 37.7534C413.749 37.609 414.236 37.4486 414.926 37.2774L414.91 37.0956L414.354 37.1437C414.424 37.0475 414.959 36.7961 415.964 36.3897L416.243 36.3629L416.248 36.4485C415.772 36.4913 415.51 36.6303 415.451 36.8817C415.461 36.994 415.526 37.0421 415.643 37.0314C416.002 36.8068 416.178 36.6731 416.173 36.6357C416.852 36.5073 418.73 35.5233 421.807 33.689L421.823 33.8548C421.828 33.935 421.566 34.1596 421.036 34.5446V34.5446ZM416.316 36.0952C416.766 36.0577 417.151 35.8759 417.472 35.5604C417.6 35.5497 417.67 35.5978 417.675 35.7101C417.456 35.7315 417.033 35.9133 416.418 36.2663L416.327 36.2716L416.316 36.0952H416.316ZM423.931 30.2506L421.571 32.1223C419.816 33.2722 418.875 33.8497 418.736 33.8604C415.943 35.3953 414.204 36.1921 413.53 36.2509L413.429 36.2616C413.514 35.9461 414.755 33.4059 417.163 28.6248C418.222 28.5339 419.891 28.0419 422.165 27.1434L422.721 27.0953C423.872 26.9937 424.733 27.2183 425.3 27.7531L425.332 28.1007C424.91 29.3254 424.439 30.042 423.931 30.2506V30.2506ZM419.319 27.7893L419.919 27.6236L419.927 28.0654L419.328 28.231L419.319 27.7893ZM424.653 26.7646L424.931 26.7254C425.188 26.9058 425.322 27.0627 425.332 27.2039L425.338 27.3295C425.092 27.3608 424.862 27.1725 424.653 26.7646H424.653ZM425.406 22.4568C425.16 22.7509 424.486 23.2536 423.384 23.9595C423.02 23.9916 421.667 24.5157 419.324 25.5425C419.206 25.489 419.083 25.4677 418.949 25.4783L418.933 25.3126C418.906 24.9756 419.056 24.5532 419.388 24.0398C419.57 23.0771 419.768 22.5263 419.987 22.3926L421.94 18.002C421.918 17.7292 422.336 17.5206 423.192 17.3763L423.47 17.3495L423.491 17.6009C424.331 17.4725 424.855 17.3976 425.059 17.3816C426.61 17.2479 427.418 17.5634 427.482 18.3175L427.659 18.3014L427.621 17.8576L427.814 17.8415C428.269 18.0929 428.515 18.3977 428.547 18.756C428.568 19.002 428.435 19.3068 428.151 19.6705C428.033 19.6812 427.964 19.5956 427.953 19.4245L427.76 19.4405L427.718 19.9753C426.931 21.1519 426.359 21.7562 426.006 21.7883C425.685 22.2322 425.487 22.4514 425.406 22.4568ZM426.634 25.7116C426.462 25.5598 426.325 25.4914 426.223 25.499L426.2 25.127L426.388 25.1042L426.805 25.4307C426.822 25.6053 426.765 25.6964 426.634 25.7116L426.634 25.7116ZM427.847 27.0033C428.201 27.1229 428.411 27.2518 428.455 27.3714L428.278 27.4082L428.289 27.4174C428.256 27.4174 428.212 27.4266 428.179 27.4358L427.914 27.6107L427.847 27.0033ZM427.989 28.226L427.948 27.8827L428.515 27.6185L428.556 27.9619L427.989 28.226ZM428.504 28.5505C428.735 28.462 428.847 28.424 429.275 28.1962L429.291 28.3607L428.478 28.8036C428.488 28.7151 428.499 28.6265 428.504 28.5505H428.504ZM429.297 28.8521C428.954 28.9057 429.029 28.8343 428.483 29.0397L428.467 28.9236L429.152 28.5573L429.479 28.4323L429.511 28.6467C429.361 28.7003 429.468 28.7003 429.297 28.8521H429.297ZM430.128 28.9351C429.999 29.013 429.897 28.8767 429.837 28.5456L430.17 28.3704C430.316 28.2925 430.41 28.4288 430.444 28.7598L430.128 28.9351ZM431.987 26.8613L431.96 26.5793L432.515 26.2539L432.568 26.7746L431.987 26.8613ZM434.068 39.599C434.116 39.3516 434.128 39.173 434.104 39.0493L434.271 39.0081C434.473 38.9531 434.592 39.0355 434.64 39.2554L434.676 39.4341L434.068 39.599ZM435.535 27.0271L435.386 26.9931C435.145 27.1157 434.941 27.2042 434.776 27.2519L434.637 27.2927C434.556 27.32 434.492 27.2791 434.46 27.1701L435.439 26.8841L435.76 26.6934L435.867 26.8501C435.712 26.8909 435.6 26.9522 435.535 27.0271ZM436.288 26.975L436.272 26.8535C436.32 26.8348 436.385 26.7694 436.454 26.6479L437.15 26.3675L437.166 26.489C436.796 26.6479 436.502 26.8068 436.288 26.975ZM436.396 25.3098C436.348 25.3206 436.284 25.3636 436.204 25.4281C436.193 25.3797 436.097 25.3797 435.915 25.4227C435.883 25.2883 436.396 25.1002 437.461 24.8529L437.611 24.8207L437.643 24.9497C436.894 25.1701 436.476 25.2937 436.396 25.3098ZM438.269 23.2869C438.194 24.1372 437.895 24.6185 437.365 24.7415L437.349 24.672L436.878 24.8538L436.669 24.902C436.562 24.9287 436.466 24.9234 436.381 24.8966L436.338 24.7095C436.322 24.6399 437.001 23.6987 438.381 21.8911L438.542 21.9178C438.601 22.1638 438.51 22.6184 438.269 23.2869ZM441.666 20.8842L441.529 20.9045L441.506 20.3983L442.102 20.297L442.114 20.5603C442.01 20.6008 441.861 20.702 441.666 20.8842L441.666 20.8842ZM440.216 34.1468C440.056 34.072 439.911 34.0399 439.788 34.0506L439.772 33.8473C439.767 33.7778 439.81 33.7297 439.901 33.703C439.991 33.6923 440.045 33.7564 440.056 33.8955C440.286 33.6013 440.414 33.4516 440.441 33.4516L440.585 33.5104C440.532 33.9169 440.409 34.1308 440.216 34.1468L440.216 34.1468ZM455.028 18.8524C454.928 18.8578 454.736 18.6438 454.436 18.2107L454.421 18.077C454.613 18.0663 454.813 18.2748 455.013 18.7027L455.028 18.8524ZM454.65 17.3237L454.585 17.4628L452.606 16.6338C453.927 16.6766 454.612 16.9066 454.65 17.3237ZM446.575 24.8996L445.989 25.0008L445.967 24.4946L446.552 24.3934L446.575 24.8996ZM446.251 20.2023L446.421 20.1957L446.458 20.4466C446.3 20.4532 446.105 20.5721 445.874 20.8032L445.85 20.6381C446.129 20.4466 446.263 20.3014 446.251 20.2023V20.2023ZM445.841 21.5927L445.976 22.188L445.504 22.2002L445.369 21.6049L445.841 21.5927ZM445.286 22.096L445.622 22.0779C445.584 22.4586 445.441 22.6581 445.196 22.6762L445.015 22.6853C445.209 22.4314 445.299 22.232 445.286 22.096H445.286ZM445.155 22.7781L445.301 22.7671L445.313 22.9106L445.033 23.3524L444.717 23.3745L444.705 23.2309C445.033 23.2088 445.179 23.0542 445.155 22.7781H445.155ZM445.147 23.394L444.936 23.9921L444.656 24.0015L444.539 23.4127L445.147 23.394H445.147ZM442.706 29.8809C442.52 30.3302 442.322 30.5601 442.113 30.5708L442.102 30.512C442.069 30.2874 442.267 30.0735 442.706 29.8809ZM442.419 30.7851L442.442 30.9521C442.49 31.2255 442.299 31.3773 441.868 31.3925L441.844 31.1951C441.82 30.9977 442.012 30.861 442.419 30.7851ZM441.95 32.7115L442.323 32.6508L442.332 32.914C442.248 32.9343 442.118 33.0355 441.968 33.2177L441.726 33.2582C441.716 32.9748 441.791 32.7925 441.95 32.7115ZM447.861 30.8118C446.684 31.3947 445.984 31.7904 445.764 31.9937C444.48 32.4429 443.844 32.721 443.854 32.8333C442.715 33.2879 441.966 33.6141 441.613 33.8226C441.527 33.828 441.404 33.7959 441.243 33.721C441.222 33.4911 441.329 33.3039 441.554 33.1648C441.757 33.1488 441.95 33.1755 442.126 33.2504C442.34 33.1435 442.709 33.0258 443.234 32.8921L443.223 32.7584L442.79 32.7958C442.843 32.721 443.255 32.5284 444.02 32.2183L444.234 32.2022L444.239 32.2611C443.876 32.2931 443.672 32.4001 443.63 32.5926C443.635 32.6782 443.688 32.721 443.779 32.7103C444.047 32.5338 444.175 32.4322 444.175 32.4001C444.689 32.3092 446.112 31.5605 448.45 30.1593L448.461 30.293C448.461 30.3465 448.263 30.5176 447.861 30.8118L447.861 30.8118ZM444.276 32.0463C444.624 32.0095 444.918 31.8563 445.164 31.5865C445.255 31.5804 445.309 31.6233 445.314 31.7214C445.154 31.7398 444.838 31.893 444.362 32.1873L444.287 32.1934L444.276 32.0463L444.276 32.0463ZM450.066 27.5434L448.284 28.9766C446.952 29.8483 446.23 30.2869 446.118 30.2976C443.999 31.4634 442.683 32.0677 442.164 32.1105L442.089 32.1159C442.153 31.8752 443.1 29.9446 444.93 26.3187C445.727 26.2492 446.99 25.8695 448.723 25.185L449.156 25.1475C450.029 25.0726 450.681 25.2438 451.109 25.6556L451.131 25.9176C450.804 26.8375 450.451 27.3776 450.066 27.5434L450.066 27.5434ZM446.566 25.7182L447.163 25.5495L447.174 25.9882L446.578 26.1569L446.566 25.7182ZM450.616 24.9007L450.864 24.8694C451.094 25.0569 451.212 25.2235 451.218 25.3589L451.224 25.4735C451.007 25.5047 450.802 25.3173 450.616 24.9007V24.9007ZM451.177 21.6289C450.99 21.8535 450.482 22.2385 449.653 22.7733C449.374 22.8 448.347 23.1958 446.571 23.9659C446.485 23.9338 446.389 23.9231 446.288 23.9285L446.277 23.7948C446.255 23.5381 446.368 23.2172 446.614 22.8268C446.753 22.0888 446.908 21.677 447.069 21.5807L448.561 18.2436C448.545 18.0457 448.861 17.8853 449.503 17.7623L449.717 17.7463L449.733 17.9495C450.364 17.8479 450.76 17.789 450.921 17.773C452.098 17.6714 452.713 17.9067 452.761 18.4843L452.9 18.4736L452.873 18.1527L453.012 18.142C453.355 18.3292 453.537 18.5538 453.558 18.8212C453.574 19.0137 453.478 19.249 453.275 19.5218C453.184 19.5325 453.13 19.4683 453.119 19.3292L452.98 19.3399L452.938 19.741C452.344 20.6448 451.91 21.1101 451.638 21.1315C451.397 21.4577 451.247 21.6235 451.177 21.6289L451.177 21.6289ZM451.81 24.039L451.788 23.6606L451.981 23.6406L452.395 23.9792C452.403 24.1386 452.343 24.2282 452.218 24.2481C452.04 24.0987 451.907 24.029 451.81 24.039H451.81ZM427.203 36.8419L426.899 36.9243L426.643 37.1854C426.689 37.4053 426.806 37.4878 427.004 37.4328C427.203 37.3778 427.284 37.2404 427.238 37.0205L427.203 36.8419ZM426.384 36.0539L426.457 36.2375C426.874 36.181 427.046 36.0397 426.948 35.8137L426.874 35.6301C426.482 35.6866 426.31 35.8278 426.384 36.0539ZM430.164 29.2097L430.766 28.689C430.639 28.689 430.544 28.6456 430.449 28.6022C430.228 28.689 430.133 28.9059 430.164 29.2096V29.2097ZM430.205 27.264L430.712 27.1352L430.61 26.6566L430.104 26.7854L430.205 27.264ZM467.946 32.372L467.583 32.2896L467.518 32.5573L467.524 32.6911L469.691 32.3411L469.68 32.0837L467.946 32.372ZM469.924 32.069L470.126 32.6764H470.531L470.329 32.069H469.924ZM479.014 30.8817L479.04 31.3419L479.621 31.4892L479.595 31.029L479.014 30.8817ZM478.683 30.9068C477.057 31.3871 476.853 31.3024 476.511 31.3377L476.522 31.5143L476.671 31.5002L476.752 31.4931L476.73 31.4719L476.907 31.3801C478.517 31.147 478.704 31.2318 478.688 30.9916L478.683 30.9068H478.683ZM469.211 28.5438L468.933 28.4956C468.706 28.8112 468.593 28.9983 468.604 29.0518L468.614 29.1107C468.83 29.1053 469.025 28.9128 469.211 28.5438H469.211ZM467.35 27.6116L467.335 27.419L467.124 27.4339L466.746 27.6709L466.958 28.0265C467.244 27.9968 467.38 27.8635 467.35 27.6116V27.6116ZM471.769 32.3354L471.647 31.7513L471.161 31.7746L471.282 32.3587L471.769 32.3354ZM480.042 29.8962L480.143 29.8855C480.202 29.8801 480.229 29.832 480.224 29.7464L480.165 29.6181C479.796 29.6502 479.624 29.6662 479.325 29.832L479.319 29.7625L478.875 29.8053C478.865 29.6716 478.827 29.602 478.768 29.6074L478.538 29.6288C478.271 29.6502 478.142 29.6395 478.009 29.7411C478.003 29.693 477.987 29.6716 477.961 29.6716L477.704 29.693L477.554 29.7785C477.549 29.7304 477.533 29.709 477.506 29.709L477.415 29.7892L477.409 29.7197L477.051 29.693L476.965 29.6983L476.976 29.832L477.158 29.8801L477.329 29.8694C477.388 29.9069 477.452 29.9176 477.527 29.9122L477.677 29.8374L477.682 29.8962C476.842 30.1048 476.848 30.0673 476.27 30.1636C476.206 30.1208 476.158 30.0994 476.125 30.1048L476.115 30.1154C476.051 30.1101 476.013 30.0673 476.008 29.9978L476.307 29.9604C476.329 29.9604 476.345 29.9817 476.511 30.0138C476.751 29.8962 476.762 29.8481 476.891 29.8374L476.88 29.7037C476.056 29.8641 476.388 29.7571 475.355 29.8481L475.307 29.8534L475.296 29.7197C476.623 29.5593 476.179 29.6502 476.634 29.5218C476.639 29.57 476.655 29.5914 476.682 29.5914C476.735 29.5379 476.794 29.5111 476.864 29.5004L476.955 29.4951C477.42 29.4577 477.575 29.5486 478.496 29.2919L478.501 29.3507L478.651 29.2758L478.79 29.2651C478.779 29.1314 478.982 29.11 479.052 29.1047L479.041 28.9603C477.426 29.2865 477.003 29.1956 476.553 29.324L476.548 29.2651C476.125 29.34 476.109 29.3079 476.002 29.3133C475.97 29.3186 475.922 29.3453 475.869 29.3988C475.863 29.3507 475.847 29.3293 475.815 29.3293C475.799 29.3293 475.794 29.3347 475.788 29.3347L474.419 29.5593C474.413 29.5218 474.397 29.5004 474.365 29.5058C473.654 29.6555 473.846 29.6823 472.894 29.7678C472.851 29.7732 472.792 29.7946 472.718 29.8427C472.712 29.8053 472.691 29.7839 472.643 29.7892L472.059 29.8374L471.669 29.9336C471.664 29.8962 471.642 29.8748 471.594 29.8801C471.375 29.939 471.182 29.9764 471.027 29.9871H471.016C470.92 29.9978 471.064 29.9604 470.989 29.9283L470.872 29.9978C470.701 30.0138 470.792 29.9871 470.203 29.9924C469.17 30.1208 469.283 30.1368 469.17 30.1422L468.785 30.1154C468.791 30.1529 468.769 30.1796 468.726 30.1796C468.288 30.1208 468.063 30.0513 468.058 29.9711C468.117 29.5539 468.218 29.34 468.363 29.3293L468.438 29.324L468.373 29.463L468.448 29.4577C468.587 29.3828 468.652 29.3133 468.646 29.2491L468.635 29.1047L468.496 29.1154L468.486 28.9817C468.475 28.8801 468.491 28.7892 468.528 28.7143L468.844 28.2062L468.855 28.3399L469.005 28.3292L468.994 28.1955L468.908 28.0725C469.021 27.9763 469.106 27.9228 469.176 27.9175L469.17 27.8479L468.967 27.864L468.951 27.6608C469.358 26.8158 469.55 26.3238 469.54 26.1847L469.684 26.2436C469.775 26.2382 469.818 26.1847 469.812 26.0885L469.673 26.0992L469.668 26.0403C469.657 25.9387 469.679 25.8425 469.722 25.7569C469.941 25.5269 470.043 25.297 470.021 25.0563C470.064 25.051 470.085 25.0724 470.091 25.1205C470.278 25.0135 470.422 24.7301 470.529 24.2595C470.861 23.6605 471.332 22.4626 471.947 20.671C473.124 17.5051 473.076 17.1681 473.242 16.4194L473.103 16.4301C473.113 16.5264 473.092 16.6173 473.049 16.7029C472.953 16.6654 472.878 16.644 472.825 16.6494L472.819 16.5906C472.798 16.3178 472.91 15.9916 473.167 15.6065L473.231 15.6012L473.349 16.0611L473.488 16.0504C473.483 16.0183 473.52 15.8365 473.595 15.4996C473.59 15.4301 473.536 15.3873 473.429 15.3819L473.295 15.4675C473.285 15.3712 473.29 15.1199 473.306 14.7188L473.236 14.7241C473.119 14.6065 473.06 14.5102 473.055 14.43L472.29 14.5049C472.284 14.4514 472.257 14.3712 472.204 14.2696C472.199 14.2 472.37 14.1305 472.723 14.061L472.878 14.1198L473.022 14.0343C473.028 14.0824 473.055 14.1038 473.108 14.0984L473.253 14.0129C473.258 14.061 473.285 14.0824 473.338 14.077L473.408 14.0717L473.397 13.9166C473.29 13.9273 473.006 13.9273 472.557 13.9113L472.413 14.0075L472.407 13.922C468.817 14.2161 466.779 14.3819 466.292 14.43C466.228 14.4354 465.977 14.43 465.532 14.4193C465.538 14.4781 465.484 14.5102 465.377 14.5209L465.222 14.4514L464.698 14.5851C464.575 14.5958 464.366 14.5904 464.077 14.5584C463.997 14.6225 463.901 14.66 463.783 14.6707C463.719 14.676 464.548 14.6279 465.318 14.5744C465.238 14.6386 465.115 14.676 464.944 14.6921C464.826 14.7027 464.725 14.6867 464.639 14.6386C464.521 14.6921 464.141 14.7776 463.505 14.906L463.35 14.8471L460.846 15.2322C460.75 15.1841 460.637 15.168 460.509 15.1787C460.375 15.1894 460.15 15.2375 459.84 15.3231L458.631 15.8258L458.722 15.9756C458.781 15.9702 458.866 15.9381 458.968 15.8793L459.396 15.9167L459.343 16.3178C458.947 16.4943 458.717 16.7563 458.652 17.0879C458.059 17.35 457.764 17.5371 457.764 17.6494L457.77 17.719L457.861 17.7136L458.021 17.6281L458.208 17.8527L458.235 18.1628C458.246 18.2591 457.245 20.3608 455.244 24.468C453.511 28.4255 452.602 30.5914 452.516 30.9818C451.922 31.1476 451.58 31.3883 451.478 31.7091C451.489 31.8107 451.665 31.8803 452.008 31.907L452.024 32.0621L451.869 32.3188L451.895 32.629C451.911 32.7894 452.345 32.9124 453.195 32.998C453.19 32.9445 453.217 32.9124 453.276 32.9071C453.292 33.0996 453.238 33.4739 453.115 34.0301L453.206 34.0248C453.559 33.5435 453.725 33.2119 453.709 33.0301L453.784 33.0247C453.869 33.0194 453.96 33.1156 454.067 33.3242C453.96 33.367 453.586 34.2173 452.944 35.8805L453.035 36.0302L453.126 36.0249C453.912 34.0355 454.404 32.9338 454.608 32.7252C455.64 32.6343 457.427 32.4525 459.963 32.1797L460.124 32.0835C460.129 32.137 460.161 32.1637 460.22 32.1583L460.386 32.1423L460.546 32.046C460.552 32.0995 460.584 32.1263 460.643 32.1209L462.563 31.9551C463.071 31.9123 463.312 31.7573 463.291 31.4952C463.285 31.4257 463.585 31.3455 464.19 31.2599C464.248 31.2546 464.334 31.2706 464.452 31.308C464.446 31.2599 464.751 31.2118 465.361 31.1583C465.377 30.8374 465.479 30.6663 465.661 30.6502L465.645 30.4951C465.474 30.5112 465.281 30.554 465.056 30.6288C464.655 30.6075 464.398 30.5754 464.291 30.5379C464.184 30.5968 464.104 30.6288 464.045 30.6342L462.708 30.677L462.547 30.7625C462.542 30.7144 462.51 30.693 462.451 30.6984L462.376 30.7037L462.205 30.7893C462.199 30.7412 462.06 30.7037 461.782 30.6663L461.611 30.7679L461.279 30.7946L461.274 30.7091C462.997 30.5219 463.847 30.2866 463.826 30.0085C463.938 29.9978 463.997 30.0513 464.008 30.1636L464.511 30.0352L464.495 29.8801L460.37 29.9924C460.375 30.0459 460.348 30.078 460.289 30.0834L459.787 30.0406C459.658 30.0513 459.551 30.0887 459.466 30.1529L459.278 30.0834C458.759 30.1261 458.374 30.1903 458.117 30.2705C457.764 30.2438 457.374 30.2491 456.94 30.2866L456.015 30.3668L455.587 30.3187C455.565 30.0459 456.095 28.7036 457.186 26.297C457.502 25.4841 457.791 24.9761 458.069 24.7836C458.128 24.7782 458.214 24.7996 458.331 24.8477L458.989 24.6231L459.326 24.6766C459.894 24.6285 460.552 24.468 461.306 24.19C461.493 24.1739 461.632 24.1846 461.734 24.2274L462.237 24.1097L463.735 23.9814C464.372 23.9279 465.062 23.7889 465.811 23.5589L465.795 23.4038C465.516 23.4306 465.372 23.3824 465.361 23.2701C465.345 23.0615 465.142 22.976 464.751 23.0081L464.735 22.853L465.147 22.7353L466.228 22.6444L466.212 22.4893C466.169 22.4947 465.95 22.4893 465.543 22.4733L465.527 22.3075L465.944 22.2701C466.057 22.2594 466.105 22.2059 466.094 22.0989C465.532 22.115 465.249 22.0882 465.244 22.0134C461.327 22.2059 459.364 22.2433 459.353 22.1203C459.294 22.1257 459.214 22.1631 459.107 22.2273L459.005 22.0668C460.043 19.8635 460.653 18.7511 460.83 18.7351C460.835 18.8206 460.792 18.9597 460.701 19.1469L460.707 19.2164L460.873 19.2003C461.285 18.2163 461.632 17.7083 461.921 17.6869C463.152 17.5799 461.75 17.4997 464.382 17.0879C464.489 17.136 464.564 17.1574 464.618 17.1521C465.65 16.9435 467.089 16.7243 468.935 16.4996L468.924 16.3446L467.94 16.4355L467.929 16.2804C468.047 16.2697 468.143 16.2323 468.224 16.1681L468.229 16.2536C468.282 16.2483 468.357 16.2109 468.454 16.1467C468.625 16.1306 468.753 16.1467 468.844 16.1948C469.187 16.1039 469.465 16.0504 469.668 16.029L470.283 15.9702C470.433 15.8739 470.503 15.7884 470.497 15.7082L470.492 15.6386C470.337 15.6547 470.16 15.644 469.952 15.6065C469.946 15.521 469.989 15.4621 470.091 15.4354L471.236 15.3285L471.76 15.1948C471.765 15.2536 471.792 15.275 471.835 15.275C471.888 15.2696 471.963 15.2322 472.059 15.168C472.086 15.1734 472.118 15.1734 472.145 15.1787C472.076 15.3231 471.995 15.5317 471.915 15.8044L471.765 15.8151C471.755 15.7135 471.728 15.6226 471.68 15.5424L471.605 15.5477C470.214 19.4196 469.593 21.2219 468.309 24.1953C468.074 24.9547 467.876 25.3772 467.705 25.4681C467.71 25.5537 467.763 25.5965 467.854 25.5858C467.886 25.9601 467.801 26.3291 467.592 26.6928C466.998 28.4041 466.602 29.34 466.399 29.5111L466.533 30.3187C466.538 30.4042 466.495 30.4524 466.405 30.4631L466.265 30.4738C466.244 30.2491 466.164 30.1422 466.019 30.1582L465.944 30.1636C465.763 30.447 465.623 30.7732 465.532 31.1529L465.672 31.1422C465.859 31.0192 465.944 30.8749 465.928 30.7091L466.207 30.6823L466.367 30.7412C466.239 30.9444 466.18 31.1048 466.191 31.2278L466.265 31.3562L466.084 31.784L466.089 31.8535C466.249 31.8375 466.426 31.891 466.613 32.0033C466.742 31.9926 466.881 31.9337 467.036 31.8321C467.196 31.8161 467.796 31.8107 468.828 31.8107L469.347 31.6343C469.978 31.6289 470.08 31.645 470.626 31.5968L470.85 31.5754L470.968 31.4952L470.973 31.5647C471.546 31.5166 471.583 31.554 472.033 31.6075L472.038 31.677L471.722 31.7038L471.733 31.8375C471.829 31.8268 471.915 31.8 471.985 31.7412C472.065 31.7359 472.113 31.7786 472.118 31.8749C471.99 31.8856 471.845 31.9177 471.685 31.9712L471.546 31.923C471.327 31.9819 471.375 31.9979 471.225 32.0086L471.006 31.9658C471.011 32.0033 470.989 32.03 470.952 32.03C470.957 32.1156 471.006 32.1584 471.086 32.153L471.31 32.1316L472.482 32.03L472.926 31.9337C472.932 31.9712 472.948 31.9926 472.985 31.9872L473.199 31.907L473.6 31.8749C473.911 31.8482 473.905 31.8268 474.579 31.7198C474.574 31.677 474.59 31.661 474.622 31.6556L474.627 31.7145C475.724 31.5273 475.794 31.5166 475.97 31.4578L475.986 31.4899C476.259 31.4257 476.104 31.4417 476.179 31.3883C476.184 31.4364 476.2 31.4578 476.227 31.4578L476.42 31.4417L476.409 31.2973L476.018 31.292L476.013 31.2813C475.997 31.2866 475.986 31.2866 475.97 31.292H475.917V31.3027C475.655 31.3562 475.649 31.3187 475.478 31.3348L474.499 31.3883L474.494 31.3187L475.039 31.2439L475.237 31.2278L475.35 31.1476L475.355 31.2171C476.125 31.1529 476.398 31.3455 479.961 30.5861C480.154 30.57 480.138 30.4096 480.261 30.078C480.197 30.0834 480.133 30.0673 480.074 30.0352C479.78 30.1475 479.624 30.0941 479.057 30.185C479.009 30.1903 478.972 30.1475 478.956 30.062L478.95 30.0031L479.496 30.0192C479.598 30.0085 479.796 29.9924 480.09 29.8267C480.09 29.8748 479.977 29.9015 480.042 29.8962L480.042 29.8962ZM453.716 30.3193L453.447 30.3407C453.435 30.2391 453.578 29.854 453.876 29.1962L454.054 29.1802C454.059 29.3353 453.951 29.715 453.716 30.3193H453.716ZM454.017 29.466L453.998 29.2905C453.979 29.0745 454.169 28.926 454.585 28.8585L454.603 29.034C454.622 29.2905 454.433 29.439 454.017 29.466ZM457.529 31.6817L457.537 32.0765L456.937 32.2891L456.929 31.8943L457.529 31.6817ZM456.844 31.6401C456.849 31.827 456.721 32.0372 456.442 32.2475L455.929 32.1657L455.763 32.2008L455.747 31.862L456.844 31.6401H456.844ZM460.346 16.4L459.976 16.4496L459.968 16.2512C459.96 16.0529 460.031 15.9165 460.189 15.8545L460.323 15.8421L460.575 16.0033C460.583 16.2388 460.512 16.3752 460.346 16.4V16.4ZM464.279 15.3461L464.49 15.3277L464.519 15.8615L463.912 15.9351C463.898 15.6406 464.011 15.4381 464.279 15.3461L464.279 15.3461ZM463.088 15.9851L462.708 15.8967L462.703 15.7531C463.2 15.6648 463.366 15.5543 463.671 15.3776C463.676 15.4991 463.73 15.5433 463.826 15.5212L463.837 15.8415L463.687 15.8746C463.569 15.8967 463.468 15.8636 463.382 15.7642C463.291 15.8857 463.195 15.963 463.088 15.9851ZM463.563 17.5358L463.558 17.2067L464.173 16.9283L464.178 17.2573L463.563 17.5358ZM464.227 17.0167L464.216 16.5538L464.814 16.4092L464.824 16.872L464.227 17.0167ZM464.29 15.8418L464.21 15.8559L464.28 15.418L464.964 15.2485L464.97 15.4745C464.793 15.5169 464.563 15.644 464.29 15.8418L464.29 15.8418ZM464.642 17.3728L464.628 16.8588L465.023 16.7702C465.158 16.7347 465.228 16.8943 465.235 17.2487L464.642 17.3728ZM466.451 14.4795L466.066 15.015L465.997 15.0418C465.815 15.1221 465.579 15.0953 465.301 14.9614C465.799 14.8008 466.275 14.6134 466.451 14.4795V14.4795ZM466.112 16.1908L466.118 16.5497L465.516 16.7982L465.51 16.4393L466.112 16.1908ZM466.906 16.8837C466.901 16.7462 466.799 16.6545 466.591 16.6086L466.061 16.9296L465.654 16.9639C465.563 16.8264 465.515 16.7347 465.51 16.666L465.981 16.7233L467.04 16.3565L467.58 16.4023L467.586 16.5857C467.318 16.643 467.093 16.7462 466.906 16.8837L466.906 16.8837ZM472.359 15.1946C472.423 15.1999 472.466 15.1999 472.482 15.1999C472.669 15.0181 472.878 14.8737 473.119 14.7721C472.926 15.6171 472.626 16.2428 472.214 16.6492L471.915 16.4674C472.166 15.831 472.316 15.4085 472.359 15.1946L472.359 15.1946ZM471.677 16.7783L471.838 16.7675C471.62 17.158 471.425 17.3641 471.264 17.3749L471.23 16.9627C471.333 16.9627 471.482 16.8976 471.677 16.7783ZM470.844 18.1892C470.988 17.6117 471.127 17.2854 471.256 17.1999L471.261 17.2694C471.186 17.8042 471.069 18.0876 470.913 18.109L470.94 18.4459C470.812 18.6278 470.753 18.7668 470.758 18.8738L470.683 18.8791L470.641 18.4139C470.726 18.4032 470.796 18.3283 470.844 18.1892L470.844 18.1892ZM470.975 18.9595C470.989 19.0463 470.857 19.2488 470.593 19.5612L470.408 19.5669L470.369 19.3471C470.619 19.0926 470.83 18.9653 470.975 18.9595H470.975ZM466.313 31.6231L466.292 31.4477L466.837 31.4158L466.9 32.0219C466.607 32.0378 466.397 31.9102 466.313 31.6231V31.6231ZM472.465 32.0813C472.46 31.9105 472.438 31.8345 472.39 31.8535L472.042 31.9674L472.037 31.7206H472.069L472.893 31.4739L472.898 31.7206C472.658 31.7586 472.513 31.8915 472.465 32.0813ZM472.355 31.473C472.851 31.7008 472.603 31.9286 472.355 32.0804C472.107 32.0045 471.776 31.7767 472.355 31.473ZM472.097 30.8103L471.637 30.8987L471.632 30.7345L472.049 30.646L472.413 30.4313C472.418 30.5323 472.439 30.5702 472.488 30.5576C472.921 30.3807 472.878 30.3302 473.087 30.2923C473.156 30.2797 473.199 30.3807 473.204 30.5829L472.097 30.8103L472.097 30.8103ZM473.831 30.8523C473.505 30.7258 473.485 30.6245 473.254 30.7004L473.247 30.422L473.77 30.2449L473.777 30.5233C473.723 30.5486 473.92 30.5992 473.831 30.8523V30.8523ZM473.748 30.8253L473.734 30.3799L474.328 30.2179L474.342 30.6634L473.748 30.8253ZM474.241 30.6945L474.232 30.4574C474.298 30.4359 474.393 30.3281 474.517 30.1127C474.716 30.0696 474.821 30.3712 474.84 30.716L474.241 30.6944V30.6945ZM474.88 30.6907L474.868 30.2262L475.464 30.0833L475.476 30.5478L474.88 30.6907ZM475.254 30.4674C475.243 30.1994 475.308 30.0386 475.449 30.0029L475.633 30.3959C475.622 30.2709 475.655 30.1994 475.72 30.1815L475.86 30.6103L475.254 30.4674H475.254ZM480.517 30.1181L481.125 29.8144V29.5107C481.125 29.5107 480.517 29.8144 480.517 30.1181ZM480.894 29.5359C480.998 29.4775 481.049 29.4191 480.804 29.384C480.687 29.5008 480.933 29.5359 480.674 29.5476L480.687 29.6527C480.713 29.6293 480.778 29.5943 480.83 29.5592L480.687 29.6644V29.6761L480.416 29.9915L480.959 29.8162H481.024L480.998 29.5242L480.894 29.5359V29.5359ZM481.041 29.757L480.961 29.7803L480.981 30.3644L481.569 30.2476C481.559 29.8738 481.171 29.757 481.041 29.757H481.041Z" fill="#F9DC3E"/>
<path fill-rule="evenodd" clip-rule="evenodd" d="M372.201 33.6001L356.427 42.5265V35.5738L366.24 30.1716L372.201 33.6001ZM373.282 32.6221V13.9694L367.51 17.3052V29.2924L373.279 32.619L373.282 32.6221ZM339.268 33.5996L355.027 42.5198V35.5733L345.21 30.1712L339.268 33.5996ZM338.186 32.6232V13.9705L343.958 17.3063V29.2936L338.186 32.6232ZM338.863 12.7635L355.042 3.60856V10.3296L344.675 16.0282L344.592 16.0746L338.863 12.7635ZM372.599 12.7618L356.426 3.60693V10.328L366.793 16.0235L366.876 16.0699L372.605 12.7619L372.599 12.7618ZM355.042 33.9917L345.343 28.6575V18.1003L355.042 23.6847V33.9917ZM356.426 33.9912L366.125 28.6632V18.0998L356.426 23.6842V33.9912ZM346.001 16.8899L355.734 11.5341L365.467 16.8899L355.734 22.499L346.001 16.8899Z" fill="#1C78C0"/>
<path fill-rule="evenodd" clip-rule="evenodd" d="M275.587 46.7774C275.372 46.7774 275.158 46.7209 274.969 46.6124L273.004 45.4491C272.71 45.285 272.854 45.227 272.95 45.1935C273.342 45.0565 273.421 45.0256 273.839 44.7884C273.883 44.7634 273.941 44.7722 273.985 44.7987L275.495 45.6944C275.55 45.7239 275.627 45.7239 275.678 45.6944L281.566 42.2973C281.62 42.2664 281.655 42.203 281.655 42.1382V35.3469C281.655 35.2791 281.62 35.2187 281.564 35.1848L275.679 31.7906C275.625 31.7582 275.552 31.7582 275.498 31.7906L269.614 35.1848C269.557 35.2172 269.52 35.2806 269.52 35.3454V42.1367C269.52 42.2015 269.556 42.2634 269.612 42.2943L271.224 43.2254C272.1 43.6629 272.634 43.1473 272.634 42.6288V35.9258C272.634 35.8301 272.71 35.7564 272.805 35.7564H273.551C273.644 35.7564 273.721 35.8301 273.721 35.9258V42.6317C273.721 43.7985 273.084 44.4688 271.977 44.4688C271.637 44.4688 271.369 44.4688 270.62 44.1005L269.075 43.2107C268.694 42.9897 268.458 42.5772 268.458 42.1367V35.3454C268.458 34.9034 268.694 34.4909 269.075 34.2729L274.969 30.8743C275.342 30.6636 275.837 30.6636 276.207 30.8743L282.093 34.2744C282.473 34.4939 282.71 34.9049 282.71 35.3469V42.1382C282.71 42.5787 282.473 42.9897 282.093 43.2107L276.207 46.6093C276.018 46.7183 275.805 46.7743 275.586 46.7743" fill="#689F63"/>
<path fill-rule="evenodd" clip-rule="evenodd" d="M277.668 41.8152C275.092 41.8152 274.552 40.6332 274.552 39.6417C274.552 39.5474 274.628 39.4723 274.722 39.4723H275.483C275.567 39.4723 275.637 39.5334 275.651 39.6164C275.766 40.391 276.107 40.7817 277.665 40.7817C278.906 40.7817 279.434 40.5015 279.434 39.8437C279.434 39.4651 279.283 39.1837 277.356 38.9952C275.743 38.836 274.747 38.481 274.747 37.192C274.747 36.0046 275.749 35.2975 277.428 35.2975C279.313 35.2975 280.247 35.9516 280.365 37.357C280.37 37.4056 280.352 37.4527 280.319 37.4881C280.287 37.522 280.241 37.5426 280.194 37.5426H279.429C279.35 37.5426 279.28 37.4866 279.264 37.41C279.08 36.5954 278.635 36.3346 277.425 36.3346C276.071 36.3346 275.913 36.806 275.913 37.1596C275.913 37.5883 276.099 37.7135 277.926 37.9551C279.736 38.1952 280.595 38.534 280.595 39.8054C280.595 41.0871 279.525 41.8222 277.659 41.8222" fill="#689F63"/>
<path fill-rule="evenodd" clip-rule="evenodd" d="M257.355 20.2029C257.355 19.9318 257.212 19.6828 256.978 19.548L250.736 15.9579C250.63 15.896 250.512 15.8636 250.392 15.8592H250.328C250.208 15.8636 250.09 15.896 249.983 15.9579L243.741 19.548C243.509 19.6836 243.364 19.9325 243.364 20.2036L243.377 29.8735C243.377 30.0076 243.447 30.1328 243.564 30.1991C243.679 30.2698 243.824 30.2698 243.939 30.1991L247.65 28.0748C247.884 27.9354 248.027 27.6891 248.027 27.4207V22.9032C248.027 22.6336 248.17 22.3846 248.403 22.2506L249.983 21.341C250.101 21.2733 250.229 21.2397 250.361 21.2397C250.49 21.2397 250.621 21.273 250.736 21.3409L252.315 22.2501C252.548 22.3842 252.692 22.6332 252.692 22.9027V27.4199C252.692 27.6881 252.837 27.9355 253.07 28.074L256.778 30.1969C256.895 30.2661 257.04 30.2661 257.156 30.1969C257.27 30.1306 257.343 30.0054 257.343 29.8713L257.355 20.2029ZM286.81 25.2378C286.81 25.3052 286.775 25.3675 286.716 25.4008L284.572 26.6362C284.514 26.6696 284.442 26.6696 284.384 26.6362L282.24 25.4008C282.181 25.3673 282.145 25.305 282.145 25.2378V22.7635C282.145 22.696 282.181 22.6339 282.238 22.6L284.381 21.3625C284.44 21.3286 284.512 21.3286 284.571 21.3625L286.715 22.6C286.774 22.6339 286.81 22.696 286.81 22.7635L286.81 25.2378ZM287.389 6.91147C287.272 6.84635 287.13 6.84812 287.014 6.91545C286.899 6.98321 286.828 7.10696 286.828 7.24102V16.8166C286.828 16.9109 286.778 16.9978 286.696 17.045C286.615 17.0921 286.514 17.0921 286.433 17.045L284.869 16.1447C284.636 16.0101 284.349 16.0101 284.116 16.1447L277.871 19.7471C277.638 19.8811 277.494 20.1301 277.494 20.3982V27.605C277.494 27.8746 277.638 28.1221 277.871 28.2576L284.116 31.8625C284.349 31.9965 284.636 31.9965 284.87 31.8625L291.114 28.2561C291.347 28.1206 291.491 27.8731 291.491 27.6035V9.64258C291.491 9.36916 291.342 9.11769 291.104 8.98408L287.389 6.91147ZM308.183 22.6984C308.414 22.5637 308.557 22.3151 308.557 22.0469V20.3003C308.557 20.0316 308.414 19.7837 308.182 19.6485L301.977 16.048C301.743 15.9125 301.456 15.9125 301.221 16.048L294.979 19.6499C294.744 19.7855 294.601 20.033 294.601 20.3025V27.5064C294.601 27.7774 294.747 28.0279 294.982 28.1619L301.185 31.6961C301.413 31.8272 301.693 31.8287 301.924 31.7005L305.677 29.616C305.794 29.5497 305.87 29.4244 305.87 29.2889C305.87 29.1534 305.797 29.0267 305.679 28.9604L299.398 25.357C299.28 25.2907 299.208 25.1655 299.208 25.0314V22.7716C299.208 22.6366 299.279 22.5123 299.397 22.4451L301.351 21.3182C301.468 21.2504 301.61 21.2504 301.727 21.3182L303.683 22.4451C303.799 22.5114 303.871 22.6366 303.871 22.7707V24.5474C303.871 24.6814 303.943 24.8066 304.06 24.8744C304.176 24.9407 304.321 24.9407 304.437 24.8729L308.183 22.6984Z" fill="#333333"/>
<path fill-rule="evenodd" clip-rule="evenodd" d="M301.508 22.3625C301.552 22.3364 301.607 22.3364 301.652 22.3625L302.85 23.0534C302.895 23.0793 302.922 23.127 302.922 23.1786V24.5619C302.922 24.6135 302.895 24.6612 302.85 24.6871L301.652 25.378C301.607 25.4041 301.552 25.4041 301.508 25.378L300.31 24.6871C300.265 24.6612 300.237 24.6135 300.237 24.5619V23.1786C300.237 23.127 300.263 23.0793 300.309 23.0534L301.508 22.3625Z" fill="#689F63"/>
<mask id="mask0" mask-type="alpha" maskUnits="userSpaceOnUse" x="260" y="15" width="15" height="17">
<path fill-rule="evenodd" clip-rule="evenodd" d="M267.049 16.0839L260.841 19.6663C260.608 19.8003 260.465 20.0478 260.465 20.3153V27.485C260.465 27.7527 260.608 28 260.841 28.1341L267.05 31.7192C267.282 31.8528 267.568 31.8528 267.8 31.7192L274.008 28.1341C274.24 28 274.383 27.7525 274.383 27.485V20.3153C274.383 20.0478 274.24 19.8003 274.007 19.6663L267.799 16.0839C267.683 16.0172 267.553 15.9838 267.424 15.9838C267.294 15.9838 267.164 16.0172 267.048 16.0839" fill="white"/>
</mask>
<g mask="url(#mask0)">
<path fill-rule="evenodd" clip-rule="evenodd" d="M280.657 19.0588L263.162 10.4865L254.191 28.7794L271.686 37.3523L280.657 19.0588Z" fill="url(#paint0_linear)"/>
</g>
<mask id="mask1" mask-type="alpha" maskUnits="userSpaceOnUse" x="260" y="16" width="15" height="16">
<path fill-rule="evenodd" clip-rule="evenodd" d="M260.619 27.9418C260.679 28.0188 260.753 28.0856 260.84 28.1357L266.166 31.2109L267.054 31.7206C267.186 31.7972 267.337 31.8297 267.486 31.8186C267.536 31.8146 267.585 31.8053 267.633 31.7916L274.182 19.8059C274.132 19.7514 274.073 19.7057 274.007 19.6674L269.942 17.3207L267.793 16.0847C267.732 16.0493 267.666 16.0243 267.598 16.0066L260.619 27.9418Z" fill="white"/>
</mask>
<g mask="url(#mask1)">
<path fill-rule="evenodd" clip-rule="evenodd" d="M253.055 21.5945L265.409 38.3081L281.747 26.242L269.393 9.52881L253.055 21.5945Z" fill="url(#paint1_linear)"/>
</g>
<mask id="mask2" mask-type="alpha" maskUnits="userSpaceOnUse" x="260" y="15" width="15" height="17">
<path fill-rule="evenodd" clip-rule="evenodd" d="M267.348 15.9878C267.244 15.9981 267.142 16.0305 267.048 16.0838L260.857 19.6558L267.533 31.811C267.626 31.7977 267.717 31.7668 267.8 31.7191L274.009 28.134C274.2 28.0229 274.332 27.8349 274.371 27.6219L267.566 16C267.516 15.9901 267.465 15.985 267.414 15.985C267.393 15.985 267.373 15.986 267.352 15.9879" fill="white"/>
</mask>
<g mask="url(#mask2)">
<path fill-rule="evenodd" clip-rule="evenodd" d="M260.858 15.9849V31.8112H274.369V15.9849L260.858 15.9849Z" fill="url(#paint2_linear)"/>
</g>
<path fill-rule="evenodd" clip-rule="evenodd" d="M181.546 24.25V38.8957H210.849V9.60343H181.546V24.25ZM205.16 23.082C205.904 23.2678 206.472 23.5983 206.993 24.1374C207.263 24.4258 207.662 24.9512 207.695 25.0766C207.704 25.1132 206.43 25.969 205.657 26.4482C205.63 26.4665 205.518 26.3462 205.392 26.1599C205.015 25.6107 204.62 25.3741 204.015 25.3324C203.127 25.272 202.55 25.737 202.559 26.5132C202.559 26.7411 202.591 26.8757 202.685 27.0624C202.88 27.467 203.243 27.7087 204.382 28.2021C206.48 29.1037 207.378 29.6987 207.935 30.5454C208.558 31.4891 208.698 32.9958 208.275 34.1162C207.81 35.3345 206.656 36.162 205.033 36.4366C204.531 36.5249 203.34 36.5112 202.801 36.4137C201.624 36.2045 200.508 35.6233 199.819 34.8608C199.549 34.5633 199.024 33.7866 199.057 33.7303C199.07 33.712 199.192 33.6374 199.327 33.5583L200.415 32.9312L201.257 32.4429L201.434 32.7038C201.681 33.0804 202.22 33.5962 202.546 33.7683C203.481 34.2612 204.765 34.1912 205.397 33.6242C205.667 33.3779 205.778 33.1221 205.778 32.7454C205.778 32.4058 205.737 32.2571 205.56 32.0017C205.332 31.6767 204.867 31.4021 203.545 30.83C202.034 30.1792 201.382 29.7746 200.787 29.133C200.443 28.7609 200.117 28.1659 199.982 27.6684C199.871 27.2547 199.843 26.2176 199.931 25.7992C200.242 24.3347 201.345 23.3209 202.936 23.0189C203.452 22.9214 204.653 22.9584 205.159 23.0838L205.16 23.082ZM198.283 24.3043L198.292 25.5034H194.479V36.3367H191.781V25.5034H187.967V24.3272L187.999 23.1189C188.013 23.1006 190.334 23.0915 193.148 23.0961L198.269 23.1098L198.283 24.3043Z" fill="#007ACC"/>
<path fill-rule="evenodd" clip-rule="evenodd" d="M116.411 47.0185C115.438 47.0185 114.694 47.0185 113.945 47.0185C112.567 46.9969 111.192 46.8762 109.832 46.6572C108.028 46.413 106.243 46.0473 104.489 45.5627C103.515 45.2945 102.547 45.0153 101.59 44.6651C100.633 44.3148 99.6325 43.9372 98.6755 43.5267C97.3689 42.9693 96.0912 42.3464 94.8472 41.6603C94.0816 41.2389 93.3269 40.7901 92.5776 40.3359C91.8284 39.8816 91.0081 39.2413 90.2315 38.7268C89.1049 37.9496 88.0767 37.0575 87.0213 36.1928C86.6776 35.9072 86.3491 35.6039 86.0369 35.2842C85.6814 34.923 85.6978 34.4961 86.0369 34.2772C86.2061 34.1794 86.4145 34.1794 86.5837 34.2772C87.3439 34.6275 88.0385 35.1036 88.7713 35.4867C89.5041 35.8698 90.1002 36.1927 90.7729 36.5211C91.3198 36.7893 91.8667 37.0411 92.4136 37.2928C93.4745 37.7745 94.541 38.2397 95.6457 38.6283C96.291 38.8527 96.9473 39.0771 97.5871 39.3179C98.2477 39.5756 98.9213 39.7985 99.6052 39.9856C100.378 40.265 101.169 40.4918 101.973 40.6643C102.624 40.7463 103.253 40.927 103.893 41.0528C104.44 41.1678 104.987 41.2936 105.572 41.425C107.272 41.7716 108.99 42.0237 110.718 42.1803C113.025 42.4473 115.347 42.5589 117.669 42.5141C118.899 42.5141 120.141 42.5141 121.366 42.3828C122.744 42.2241 124.1 42.1036 125.489 41.8847C126.654 41.6932 127.814 41.4797 128.968 41.2553C129.668 41.1185 130.351 40.9051 131.051 40.7463C132.32 40.4618 133.556 40.0622 134.797 39.6517C136.039 39.2413 137.384 38.7268 138.675 38.2561C139.123 38.0919 139.561 37.9004 139.987 37.7088C140.4 37.5277 140.878 37.5865 141.234 37.8621C141.399 38.0364 141.487 38.2693 141.478 38.5088C141.47 38.7484 141.367 38.9746 141.191 39.1373C138.968 40.7099 140.228 39.9134 139.698 40.2319C139.698 40.2319 138.239 41.1678 137.51 41.6056C136.963 41.9176 136.416 42.1858 135.869 42.4649C134.962 42.9356 134.032 43.3515 133.097 43.7456C132.419 44.0302 131.718 44.2601 131.035 44.5173C129.979 44.9114 128.897 45.2124 127.814 45.5079C126.731 45.8035 125.746 46.0169 124.702 46.2249C123.351 46.4985 121.967 46.6682 120.622 46.8488C119.222 46.9783 117.817 47.035 116.411 47.0185H116.411Z" fill="#FB9A02"/>
<path fill-rule="evenodd" clip-rule="evenodd" d="M117.226 15.1262C116.455 17.6383 117.005 15.3399 116.99 15.4929C116.99 15.4929 115.939 19.7838 115.443 21.9292C114.987 23.8448 114.529 25.7622 114.07 27.6814C114.038 27.8223 113.998 27.9612 113.95 28.0974C113.863 28.6155 113.374 28.9657 112.856 28.88C112.276 28.88 111.697 28.88 111.111 28.88C110.264 28.88 109.903 28.6063 109.766 27.7854C108.7 24.0856 109.47 26.5998 109.268 26.0231C109.268 26.0231 108.116 22.15 107.518 20.2162C107.337 19.4959 107.109 18.7884 106.835 18.0981C106.782 17.9562 106.744 17.8096 106.72 17.6602C106.617 17.1177 106.451 16.5888 106.228 16.084C106.07 15.5967 105.936 15.1016 105.828 14.6008C105.533 13.6868 105.282 12.7564 105.008 11.8314C104.965 11.6926 104.938 11.5494 104.926 11.4045C104.905 11.2728 104.943 11.1384 105.031 11.0379C105.119 10.9375 105.247 10.8813 105.38 10.8846C106.157 10.8846 106.933 10.8846 107.71 10.8846C108.078 10.9018 108.393 11.1534 108.492 11.5085C109.343 14.6628 108.85 12.7004 108.979 13.3091C108.979 13.3091 109.697 16.0165 110.04 17.3702C110.636 19.7236 111.221 22.077 111.811 24.4304C111.811 24.5344 111.861 24.6329 111.888 24.7314C111.915 24.8299 111.932 24.8792 112.019 24.8846C112.107 24.8901 112.15 24.8025 112.172 24.7204L112.615 22.8432C112.936 21.4786 113.257 20.114 113.578 18.7494C113.819 17.7204 114.048 16.6915 114.3 15.6625C114.633 14.3052 114.907 12.926 115.29 11.5851C115.365 11.167 115.735 10.8669 116.159 10.8791C116.865 10.8791 117.576 10.8791 118.281 10.8791C118.717 10.8618 119.099 11.1709 119.173 11.6015C119.468 12.5703 119.659 13.5718 119.9 14.557C120.266 16.0894 120.616 17.6274 120.994 19.1598L122.044 23.6477C122.148 24.091 122.257 24.5344 122.366 24.9777C122.366 25.0488 122.366 25.1692 122.476 25.1747C122.857 24.0126 122.585 25.0598 122.602 24.9831C122.602 24.9831 123.11 23.0402 123.362 22.066L124.543 17.4851C124.773 16.593 124.986 15.6954 125.238 14.8087C125.538 13.7415 125.752 12.6524 126.107 11.6015C126.191 11.1355 126.622 10.8145 127.092 10.8682C127.704 10.8682 128.317 10.8682 128.929 10.8682C129.542 10.8682 129.689 11.109 129.564 11.6563C129.465 12.0941 129.328 12.5155 129.197 12.9424L127.77 17.4796L125.899 23.4507C125.424 24.9722 124.948 26.4992 124.461 28.0152C124.242 28.7103 123.996 28.8745 123.28 28.8799C122.7 28.8799 122.115 28.8799 121.535 28.8799C121.256 28.9235 120.972 28.8484 120.75 28.6727C120.529 28.497 120.391 28.2368 120.37 27.955C120.146 27.052 119.927 26.1434 119.703 25.2185C119.348 23.7408 118.987 22.2576 118.609 20.7744C118.205 19.1325 117.805 17.4522 117.406 15.7884C117.351 15.5914 117.28 15.3616 117.226 15.1262Z" fill="#24303F"/>
<path fill-rule="evenodd" clip-rule="evenodd" d="M102.992 20.3199C102.992 21.2668 103.025 22.2136 102.992 23.155C102.926 24.4371 103.227 25.7115 103.862 26.8274C104.157 27.3747 104.07 27.6483 103.572 27.9876C103.173 28.2613 102.763 28.5349 102.352 28.7812C102.02 29.0472 101.538 29.0038 101.259 28.6827C100.753 28.1883 100.345 27.6036 100.055 26.9587C99.8969 26.6358 99.8148 26.6194 99.5742 26.8821C98.4495 28.1756 96.8958 29.0191 95.1991 29.2574C93.4709 29.4927 91.7646 29.4216 90.2771 28.3106C89.1172 27.4484 88.4063 26.1099 88.3411 24.6655C88.2325 23.7115 88.3525 22.7453 88.6911 21.8469C89.1275 20.7807 89.8943 19.8829 90.8787 19.2855C91.3247 18.9997 91.809 18.7786 92.317 18.6288C93.4697 18.2903 94.6738 18.1624 95.8718 18.2511C96.9753 18.3328 98.0718 18.4919 99.1531 18.7273C99.5742 18.8203 99.6234 18.7875 99.618 18.3496C99.6535 17.5414 99.6151 16.7317 99.5031 15.9305C99.4029 15.3393 99.1711 14.7782 98.825 14.2886C98.5482 13.9555 98.1848 13.7054 97.7749 13.5662C96.6232 13.1499 95.3831 13.0405 94.1764 13.2488C93.1775 13.4002 92.1993 13.6664 91.2614 14.0424C90.8936 14.2061 90.5083 14.3273 90.113 14.4036C89.7302 14.4419 89.5661 14.3379 89.5661 13.9603C89.5415 13.4844 89.5415 13.0076 89.5661 12.5318C89.6065 12.2014 89.8128 11.9145 90.113 11.771C90.785 11.38 91.5111 11.0904 92.2677 10.9118C93.6368 10.4872 95.0687 10.3021 96.5006 10.3645C97.8023 10.3596 99.0871 10.6595 100.252 11.2402C101.296 11.7998 102.093 12.7287 102.489 13.8454C102.844 14.8444 103.014 15.8996 102.992 16.9595V20.3254L102.992 20.3199ZM94.7235 26.7019C95.6696 26.7382 96.6096 26.5369 97.458 26.1163C98.3121 25.7414 98.9909 25.0542 99.3556 24.1953C99.668 23.3495 99.7822 22.4432 99.6892 21.5463C99.651 21.0482 99.6236 21.0647 99.1095 20.9716C98.3658 20.8348 97.622 20.7199 96.8673 20.6542C95.7611 20.5266 94.6404 20.6462 93.586 21.0045C93.0028 21.2039 92.5165 21.6164 92.2242 22.1593C91.8106 22.9324 91.7014 23.8326 91.918 24.6824C92.0151 25.3673 92.4174 25.9711 93.0118 26.3243C93.5364 26.6064 94.129 26.7371 94.7235 26.7019H94.7235Z" fill="#24303F"/>
<path fill-rule="evenodd" clip-rule="evenodd" d="M137.084 29.4494C135.32 29.4201 133.576 29.06 131.944 28.3876C131.266 28.1637 130.849 27.4845 130.954 26.7785C130.954 26.4994 130.954 26.2312 130.954 25.9412C131.003 25.5362 131.2 25.3939 131.599 25.4869C131.85 25.5485 132.096 25.6328 132.332 25.7387C134.193 26.5601 136.244 26.8536 138.26 26.587C139.199 26.5388 140.067 26.0706 140.623 25.3118C141.274 24.3564 141.03 23.0534 140.076 22.4001C139.353 21.9706 138.575 21.6428 137.763 21.4259C136.379 20.9607 134.941 20.6542 133.655 19.9153C131.523 18.7254 130.602 16.139 131.501 13.8676C132.027 12.6041 133.032 11.6005 134.295 11.0764C135.795 10.4116 137.452 10.1858 139.075 10.4251C140.268 10.5751 141.433 10.8939 142.537 11.3719C143.015 11.536 143.328 11.9943 143.308 12.4993C143.308 12.8606 143.308 13.2218 143.308 13.594C143.299 13.7726 143.203 13.9355 143.052 14.0304C142.9 14.1252 142.712 14.1401 142.548 14.0701C141.307 13.4817 139.96 13.1521 138.588 13.1014C137.661 13.0265 136.729 13.1515 135.854 13.4681C135.283 13.6726 134.829 14.1167 134.613 14.6838C134.396 15.2509 134.438 15.8844 134.727 16.4181C134.956 16.8284 135.308 17.156 135.734 17.3539C136.589 17.7775 137.482 18.1184 138.402 18.3719C139.649 18.6883 140.856 19.1436 142.001 19.7292C143.308 20.4504 144.165 21.7811 144.281 23.2703C144.533 26.0068 142.865 28.0373 140.546 28.8747C139.431 29.2515 138.262 29.4455 137.084 29.4494H137.084Z" fill="#24303F"/>
<path fill-rule="evenodd" clip-rule="evenodd" d="M143.045 33.3464C143.931 33.306 144.819 33.402 145.676 33.631C145.98 33.6938 146.275 33.7931 146.556 33.9265C146.844 34.1069 147.018 34.4239 147.016 34.7639C147.062 35.7274 146.974 36.6927 146.753 37.6317C146.479 38.8499 146.053 40.0286 145.484 41.1399C144.954 42.2372 144.21 43.2177 143.297 44.0242C143.184 44.1151 143.076 44.2119 142.974 44.3143C142.812 44.5229 142.517 44.5728 142.296 44.4292C142.066 44.2815 142.137 44.0023 142.225 43.8053C142.862 42.3556 143.397 40.8633 143.827 39.3393C144.07 38.6109 144.188 37.8467 144.177 37.0789C144.237 36.5 143.833 35.9759 143.258 35.8858C142.248 35.6527 141.207 35.577 140.174 35.6614C139.222 35.7161 138.271 35.8037 137.325 35.8803C136.904 35.9131 136.482 35.9733 136.056 36.0116C135.864 36.0116 135.662 36.0116 135.586 35.7982C135.509 35.5847 135.635 35.437 135.793 35.2946C136.507 34.7152 137.329 34.2835 138.211 34.0249C138.924 33.7834 139.655 33.6004 140.398 33.4776C141.274 33.3474 142.161 33.3034 143.045 33.3464Z" fill="#FB9A02"/>
<defs>
<linearGradient id="paint0_linear" x1="262.894" y1="10.2064" x2="253.707" y2="28.3884" gradientUnits="userSpaceOnUse">
<stop offset="0.3" stop-color="#3E863D"/>
<stop offset="0.5" stop-color="#55934F"/>
<stop offset="0.8" stop-color="#5AAD45"/>
</linearGradient>
<linearGradient id="paint1_linear" x1="265.322" y1="38.2414" x2="281.695" y2="26.2215" gradientUnits="userSpaceOnUse">
<stop offset="0.57" stop-color="#3E863D"/>
<stop offset="0.72" stop-color="#619857"/>
<stop offset="1" stop-color="#76AC64"/>
</linearGradient>
<linearGradient id="paint2_linear" x1="260.862" y1="31.8104" x2="274.372" y2="31.8104" gradientUnits="userSpaceOnUse">
<stop offset="0.16" stop-color="#6BBF47"/>
<stop offset="0.38" stop-color="#79B461"/>
<stop offset="0.47" stop-color="#75AC64"/>
<stop offset="0.7" stop-color="#659E5A"/>
<stop offset="0.9" stop-color="#3E863D"/>
</linearGradient>
</defs>
</svg>
