<svg width="561" height="365" viewBox="0 0 561 365" fill="none" xmlns="http://www.w3.org/2000/svg">
<path fill-rule="evenodd" clip-rule="evenodd" d="M307.546 50.3817H315.364V14.9936H307.546V50.3817ZM385.656 14.954C385.656 21.9397 385.672 28.5769 385.648 35.2142C385.625 39.6257 382.488 42.7306 378.172 42.6909C373.816 42.6593 371.796 40.4495 371.764 35.5389C371.725 29.7333 371.764 23.9197 371.74 18.1142C371.733 17.0608 371.558 16.0074 371.463 15.0015H363.828C363.693 15.3183 363.559 15.4846 363.559 15.651C363.535 23.9436 363.4 32.252 363.559 40.5446C363.638 44.5839 365.539 47.7441 369.523 49.4391C373.602 46.7224 378.116 46.96 382.639 47.5144C386.33 47.9739 389.941 47.7204 393.909 46.9204C393.878 36.2279 393.996 25.6147 393.83 14.954H385.656ZM350.435 15.8807C347.172 14.3758 343.695 13.7264 340.21 14.55C337.327 15.2313 334.578 16.4747 331.687 17.5043C330.436 16.4192 329.002 15.1837 327.434 13.8135C325.478 15.5718 323.783 17.0846 322.096 18.5973C325.707 23.1278 325.707 23.1278 325.707 29.0285C325.707 35.1112 325.707 41.2019 325.715 47.2848C325.715 48.2668 325.802 49.257 325.858 50.3658H333.921V30.5412C333.921 26.2325 336.17 23.3416 340.368 22.2565C345.279 20.9893 347.845 22.9297 347.861 27.9829C347.884 34.43 347.861 40.8851 347.876 47.3402C347.876 48.3224 347.972 49.3044 348.027 50.3024H355.963C355.963 41.1623 356.121 32.2282 355.892 23.302C355.797 19.8646 353.595 17.338 350.435 15.8807ZM255.297 27.6653C251.336 31.6492 246.418 29.9622 241.784 30.2315C242.117 25.313 245.974 21.5587 250.14 21.8439C254.053 22.1131 255.566 23.6973 255.297 27.6653ZM255.985 42.1832C253.181 43.3 250.274 43.6246 247.296 43.0228C244.334 42.4287 242.909 41.011 242.346 37.8825C244.033 37.8825 245.665 37.8745 247.288 37.8825C251.122 37.922 254.844 37.3835 258.266 35.5618C265.26 31.8313 266.123 22.1765 259.795 17.551C253.086 12.6404 243.075 13.0601 237.277 19.9588C232.937 25.1307 232.089 31.1819 233.127 37.6607C233.982 42.9515 236.715 46.9513 241.475 49.3352C248.239 52.7251 259.605 50.9272 265.513 45.5889C264.19 43.6722 262.852 41.7317 261.529 39.7992C259.525 40.6704 257.775 41.4782 255.985 42.1832ZM397.102 27.6422C396.587 27.7136 396.112 28.0382 395.526 28.2917V36.3546C396.611 36.1804 397.506 35.9665 398.408 35.9111C400.674 35.7685 402.891 36.9962 403.699 38.7624C404.61 40.7425 404.087 43.57 402.345 45.0987C401.466 45.8669 400.42 46.6431 399.319 46.9362C396.674 47.641 393.965 48.4014 391.249 48.5123C386.283 48.7261 381.293 48.4014 376.319 48.5519C372.295 48.6786 368.509 50.7379 366.418 54.1754C362.791 60.1473 364.494 68.4319 369.975 72.4554C375.297 76.3602 383.233 75.6632 387.946 70.816C391.344 67.3231 392.809 62.9668 393.577 57.9612H385.269C384.984 58.8641 384.73 59.9334 384.318 60.9392C383.867 62.0402 383.399 63.1649 382.734 64.1391C381.087 66.5469 378.125 67.3389 375.661 66.1746C373.713 65.2559 372.43 62.5867 372.858 60.3453C373.38 57.5969 374.79 56.6227 378.37 56.6148C383.439 56.599 388.508 56.7732 393.569 56.6068C398.638 56.4326 403.375 54.9753 407.422 51.7755C412.198 48.0054 413.829 41.1781 411.382 35.523C409.125 30.3114 402.852 26.8344 397.102 27.6422ZM283.595 43.3009C282.035 43.2929 280.475 43.0474 278.455 42.8731C278.455 37.3368 278.249 31.9985 278.542 26.684C278.685 24.0465 280.982 22.5812 283.366 21.9001C286.146 21.1002 288.878 21.3299 291.056 23.5951C294.763 27.4681 295.183 35.5389 291.928 39.8238C289.813 42.6038 286.835 43.3167 283.595 43.3009ZM284.688 13.7423C282.7 13.8611 280.744 14.5027 278.439 14.9779V0.000511169H270.067V49.0986C273.822 50.4055 281.433 51.3559 285.243 51.047C294.351 50.3104 300.117 45.7087 301.899 37.1785C302.533 34.1767 302.564 30.9056 302.121 27.8642C300.798 18.7084 293.868 13.2038 284.688 13.7423ZM223.908 14.984C221.603 21.4865 219.282 28.005 216.962 34.5313H216.225C213.912 27.9892 211.592 21.4548 209.279 14.9285H202.064C199.719 21.5261 197.398 28.0604 195.078 34.6025H194.405C192.052 27.997 189.7 21.3915 187.427 15.0156H178.809C182.999 27.0149 187.086 38.7132 191.173 50.4115H198.286L205.327 30.6186H206.039C208.392 37.2559 210.736 43.901 213.041 50.3957H220.169C224.272 38.6499 228.359 26.9436 232.533 14.984H223.908Z" fill="#FA5A28"/>
<g filter="url(#filter0_d)">
<rect x="13" y="146" width="212" height="70" rx="35" fill="white"/>
</g>
<path d="M56.694 189V174.656H60.236L62.546 181.036C62.6927 181.461 62.832 181.901 62.964 182.356C63.096 182.796 63.2353 183.236 63.382 183.676H63.47C63.6167 183.236 63.7487 182.796 63.866 182.356C63.998 181.901 64.1373 181.461 64.284 181.036L66.55 174.656H70.07V189H67.122V183.742C67.122 183.39 67.1367 183.001 67.166 182.576C67.1953 182.151 67.232 181.725 67.276 181.3C67.32 180.86 67.364 180.435 67.408 180.024C67.452 179.599 67.496 179.21 67.54 178.858H67.452L66.286 182.268L64.24 187.746H62.458L60.412 182.268L59.268 178.858H59.18C59.224 179.21 59.268 179.599 59.312 180.024C59.356 180.435 59.4 180.86 59.444 181.3C59.488 181.725 59.5247 182.151 59.554 182.576C59.5833 183.001 59.598 183.39 59.598 183.742V189H56.694ZM73.1878 189V178.088H76.4218V189H73.1878ZM74.7938 176.482C74.2511 176.482 73.8038 176.328 73.4518 176.02C73.0998 175.697 72.9238 175.287 72.9238 174.788C72.9238 174.289 73.0998 173.886 73.4518 173.578C73.8038 173.27 74.2511 173.116 74.7938 173.116C75.3511 173.116 75.7985 173.27 76.1358 173.578C76.4878 173.886 76.6638 174.289 76.6638 174.788C76.6638 175.287 76.4878 175.697 76.1358 176.02C75.7985 176.328 75.3511 176.482 74.7938 176.482ZM84.0199 189.264C83.2572 189.264 82.5459 189.139 81.8859 188.89C81.2406 188.626 80.6759 188.252 80.1919 187.768C79.7079 187.284 79.3266 186.69 79.0479 185.986C78.7692 185.267 78.6299 184.453 78.6299 183.544C78.6299 182.635 78.7839 181.828 79.0919 181.124C79.3999 180.405 79.8106 179.804 80.3239 179.32C80.8519 178.836 81.4606 178.469 82.1499 178.22C82.8392 177.956 83.5579 177.824 84.3059 177.824C84.9806 177.824 85.5746 177.934 86.0879 178.154C86.6159 178.374 87.0852 178.653 87.4959 178.99L85.9779 181.08C85.4646 180.655 84.9732 180.442 84.5039 180.442C83.7119 180.442 83.0886 180.721 82.6339 181.278C82.1792 181.835 81.9519 182.591 81.9519 183.544C81.9519 184.497 82.1792 185.253 82.6339 185.81C83.1032 186.367 83.6899 186.646 84.3939 186.646C84.7459 186.646 85.0832 186.573 85.4059 186.426C85.7432 186.265 86.0586 186.074 86.3519 185.854L87.6279 187.966C87.0852 188.435 86.4986 188.773 85.8679 188.978C85.2372 189.169 84.6212 189.264 84.0199 189.264ZM89.5374 189V178.088H92.1774L92.3974 180.002H92.4854C92.8814 179.254 93.3581 178.704 93.9154 178.352C94.4728 178 95.0301 177.824 95.5874 177.824C95.8954 177.824 96.1448 177.846 96.3354 177.89C96.5408 177.919 96.7241 177.971 96.8854 178.044L96.3574 180.838C96.1521 180.779 95.9614 180.735 95.7854 180.706C95.6094 180.677 95.4041 180.662 95.1694 180.662C94.7588 180.662 94.3261 180.809 93.8714 181.102C93.4314 181.395 93.0648 181.916 92.7714 182.664V189H89.5374ZM102.774 189.264C102.085 189.264 101.418 189.139 100.772 188.89C100.127 188.626 99.5549 188.252 99.0562 187.768C98.5722 187.284 98.1835 186.69 97.8902 185.986C97.5969 185.267 97.4502 184.453 97.4502 183.544C97.4502 182.635 97.5969 181.828 97.8902 181.124C98.1835 180.405 98.5722 179.804 99.0562 179.32C99.5549 178.836 100.127 178.469 100.772 178.22C101.418 177.956 102.085 177.824 102.774 177.824C103.464 177.824 104.124 177.956 104.754 178.22C105.4 178.469 105.964 178.836 106.448 179.32C106.947 179.804 107.343 180.405 107.636 181.124C107.93 181.828 108.076 182.635 108.076 183.544C108.076 184.453 107.93 185.267 107.636 185.986C107.343 186.69 106.947 187.284 106.448 187.768C105.964 188.252 105.4 188.626 104.754 188.89C104.124 189.139 103.464 189.264 102.774 189.264ZM102.774 186.646C103.434 186.646 103.933 186.367 104.27 185.81C104.608 185.253 104.776 184.497 104.776 183.544C104.776 182.591 104.608 181.835 104.27 181.278C103.933 180.721 103.434 180.442 102.774 180.442C102.1 180.442 101.594 180.721 101.256 181.278C100.934 181.835 100.772 182.591 100.772 183.544C100.772 184.497 100.934 185.253 101.256 185.81C101.594 186.367 102.1 186.646 102.774 186.646ZM113.396 189.264C112.677 189.264 111.937 189.125 111.174 188.846C110.426 188.567 109.773 188.201 109.216 187.746L110.668 185.722C111.167 186.103 111.643 186.389 112.098 186.58C112.553 186.771 113.015 186.866 113.484 186.866C113.968 186.866 114.32 186.785 114.54 186.624C114.76 186.463 114.87 186.235 114.87 185.942C114.87 185.766 114.804 185.612 114.672 185.48C114.555 185.333 114.386 185.201 114.166 185.084C113.961 184.967 113.726 184.864 113.462 184.776C113.198 184.673 112.927 184.563 112.648 184.446C112.311 184.314 111.973 184.16 111.636 183.984C111.299 183.808 110.991 183.595 110.712 183.346C110.433 183.082 110.206 182.781 110.03 182.444C109.854 182.092 109.766 181.689 109.766 181.234C109.766 180.735 109.861 180.273 110.052 179.848C110.257 179.423 110.543 179.063 110.91 178.77C111.277 178.477 111.717 178.249 112.23 178.088C112.743 177.912 113.315 177.824 113.946 177.824C114.782 177.824 115.515 177.971 116.146 178.264C116.777 178.543 117.327 178.858 117.796 179.21L116.344 181.146C115.948 180.853 115.559 180.625 115.178 180.464C114.797 180.303 114.415 180.222 114.034 180.222C113.213 180.222 112.802 180.508 112.802 181.08C112.802 181.256 112.861 181.41 112.978 181.542C113.095 181.659 113.249 181.769 113.44 181.872C113.645 181.975 113.873 182.077 114.122 182.18C114.386 182.268 114.657 182.363 114.936 182.466C115.288 182.598 115.633 182.752 115.97 182.928C116.322 183.089 116.637 183.295 116.916 183.544C117.209 183.793 117.444 184.101 117.62 184.468C117.796 184.82 117.884 185.245 117.884 185.744C117.884 186.243 117.789 186.705 117.598 187.13C117.407 187.555 117.121 187.929 116.74 188.252C116.359 188.56 115.889 188.809 115.332 189C114.775 189.176 114.129 189.264 113.396 189.264ZM124.822 189.264C124.044 189.264 123.318 189.139 122.644 188.89C121.969 188.626 121.382 188.252 120.884 187.768C120.385 187.269 119.996 186.668 119.718 185.964C119.439 185.26 119.3 184.453 119.3 183.544C119.3 182.664 119.446 181.872 119.74 181.168C120.033 180.449 120.414 179.848 120.884 179.364C121.368 178.865 121.918 178.484 122.534 178.22C123.15 177.956 123.788 177.824 124.448 177.824C125.225 177.824 125.9 177.956 126.472 178.22C127.058 178.484 127.542 178.851 127.924 179.32C128.32 179.789 128.613 180.347 128.804 180.992C128.994 181.623 129.09 182.312 129.09 183.06C129.09 183.353 129.075 183.632 129.046 183.896C129.016 184.16 128.987 184.358 128.958 184.49H122.424C122.57 185.282 122.893 185.869 123.392 186.25C123.905 186.617 124.528 186.8 125.262 186.8C126.039 186.8 126.824 186.558 127.616 186.074L128.694 188.032C128.136 188.413 127.513 188.714 126.824 188.934C126.149 189.154 125.482 189.264 124.822 189.264ZM122.402 182.356H126.34C126.34 181.74 126.2 181.241 125.922 180.86C125.643 180.479 125.174 180.288 124.514 180.288C124 180.288 123.546 180.457 123.15 180.794C122.768 181.131 122.519 181.652 122.402 182.356ZM131.325 189V178.088H133.965L134.185 180.002H134.273C134.669 179.254 135.145 178.704 135.703 178.352C136.26 178 136.817 177.824 137.375 177.824C137.683 177.824 137.932 177.846 138.123 177.89C138.328 177.919 138.511 177.971 138.673 178.044L138.145 180.838C137.939 180.779 137.749 180.735 137.573 180.706C137.397 180.677 137.191 180.662 136.957 180.662C136.546 180.662 136.113 180.809 135.659 181.102C135.219 181.395 134.852 181.916 134.559 182.664V189H131.325ZM142.749 189L139.075 178.088H142.331L143.739 183.236C143.885 183.779 144.025 184.336 144.157 184.908C144.303 185.465 144.45 186.03 144.597 186.602H144.685C144.817 186.03 144.949 185.465 145.081 184.908C145.227 184.336 145.374 183.779 145.521 183.236L146.951 178.088H150.053L146.489 189H142.749ZM151.756 189V178.088H154.99V189H151.756ZM153.362 176.482C152.82 176.482 152.372 176.328 152.02 176.02C151.668 175.697 151.492 175.287 151.492 174.788C151.492 174.289 151.668 173.886 152.02 173.578C152.372 173.27 152.82 173.116 153.362 173.116C153.92 173.116 154.367 173.27 154.704 173.578C155.056 173.886 155.232 174.289 155.232 174.788C155.232 175.287 155.056 175.697 154.704 176.02C154.367 176.328 153.92 176.482 153.362 176.482ZM162.588 189.264C161.826 189.264 161.114 189.139 160.454 188.89C159.809 188.626 159.244 188.252 158.76 187.768C158.276 187.284 157.895 186.69 157.616 185.986C157.338 185.267 157.198 184.453 157.198 183.544C157.198 182.635 157.352 181.828 157.66 181.124C157.968 180.405 158.379 179.804 158.892 179.32C159.42 178.836 160.029 178.469 160.718 178.22C161.408 177.956 162.126 177.824 162.874 177.824C163.549 177.824 164.143 177.934 164.656 178.154C165.184 178.374 165.654 178.653 166.064 178.99L164.546 181.08C164.033 180.655 163.542 180.442 163.072 180.442C162.28 180.442 161.657 180.721 161.202 181.278C160.748 181.835 160.52 182.591 160.52 183.544C160.52 184.497 160.748 185.253 161.202 185.81C161.672 186.367 162.258 186.646 162.962 186.646C163.314 186.646 163.652 186.573 163.974 186.426C164.312 186.265 164.627 186.074 164.92 185.854L166.196 187.966C165.654 188.435 165.067 188.773 164.436 188.978C163.806 189.169 163.19 189.264 162.588 189.264ZM172.367 189.264C171.589 189.264 170.863 189.139 170.189 188.89C169.514 188.626 168.927 188.252 168.429 187.768C167.93 187.269 167.541 186.668 167.263 185.964C166.984 185.26 166.845 184.453 166.845 183.544C166.845 182.664 166.991 181.872 167.285 181.168C167.578 180.449 167.959 179.848 168.429 179.364C168.913 178.865 169.463 178.484 170.079 178.22C170.695 177.956 171.333 177.824 171.993 177.824C172.77 177.824 173.445 177.956 174.017 178.22C174.603 178.484 175.087 178.851 175.469 179.32C175.865 179.789 176.158 180.347 176.349 180.992C176.539 181.623 176.635 182.312 176.635 183.06C176.635 183.353 176.62 183.632 176.591 183.896C176.561 184.16 176.532 184.358 176.503 184.49H169.969C170.115 185.282 170.438 185.869 170.937 186.25C171.45 186.617 172.073 186.8 172.807 186.8C173.584 186.8 174.369 186.558 175.161 186.074L176.239 188.032C175.681 188.413 175.058 188.714 174.369 188.934C173.694 189.154 173.027 189.264 172.367 189.264ZM169.947 182.356H173.885C173.885 181.74 173.745 181.241 173.467 180.86C173.188 180.479 172.719 180.288 172.059 180.288C171.545 180.288 171.091 180.457 170.695 180.794C170.313 181.131 170.064 181.652 169.947 182.356ZM182.081 189.264C181.363 189.264 180.622 189.125 179.859 188.846C179.111 188.567 178.459 188.201 177.901 187.746L179.353 185.722C179.852 186.103 180.329 186.389 180.783 186.58C181.238 186.771 181.7 186.866 182.169 186.866C182.653 186.866 183.005 186.785 183.225 186.624C183.445 186.463 183.555 186.235 183.555 185.942C183.555 185.766 183.489 185.612 183.357 185.48C183.24 185.333 183.071 185.201 182.851 185.084C182.646 184.967 182.411 184.864 182.147 184.776C181.883 184.673 181.612 184.563 181.333 184.446C180.996 184.314 180.659 184.16 180.321 183.984C179.984 183.808 179.676 183.595 179.397 183.346C179.119 183.082 178.891 182.781 178.715 182.444C178.539 182.092 178.451 181.689 178.451 181.234C178.451 180.735 178.547 180.273 178.737 179.848C178.943 179.423 179.229 179.063 179.595 178.77C179.962 178.477 180.402 178.249 180.915 178.088C181.429 177.912 182.001 177.824 182.631 177.824C183.467 177.824 184.201 177.971 184.831 178.264C185.462 178.543 186.012 178.858 186.481 179.21L185.029 181.146C184.633 180.853 184.245 180.625 183.863 180.464C183.482 180.303 183.101 180.222 182.719 180.222C181.898 180.222 181.487 180.508 181.487 181.08C181.487 181.256 181.546 181.41 181.663 181.542C181.781 181.659 181.935 181.769 182.125 181.872C182.331 181.975 182.558 182.077 182.807 182.18C183.071 182.268 183.343 182.363 183.621 182.466C183.973 182.598 184.318 182.752 184.655 182.928C185.007 183.089 185.323 183.295 185.601 183.544C185.895 183.793 186.129 184.101 186.305 184.468C186.481 184.82 186.569 185.245 186.569 185.744C186.569 186.243 186.474 186.705 186.283 187.13C186.093 187.555 185.807 187.929 185.425 188.252C185.044 188.56 184.575 188.809 184.017 189C183.46 189.176 182.815 189.264 182.081 189.264Z" fill="#000E1A"/>
<g filter="url(#filter1_d)">
<rect x="332" y="277" width="212" height="70" rx="35" fill="white"/>
</g>
<path d="M370.97 320L368.308 305.656H371.63L372.62 312.366C372.708 313.114 372.803 313.869 372.906 314.632C373.009 315.38 373.104 316.135 373.192 316.898H373.28C373.427 316.135 373.566 315.38 373.698 314.632C373.845 313.869 373.991 313.114 374.138 312.366L375.678 305.656H378.428L379.968 312.366C380.115 313.099 380.254 313.847 380.386 314.61C380.533 315.358 380.679 316.121 380.826 316.898H380.914C381.017 316.121 381.112 315.358 381.2 314.61C381.303 313.862 381.405 313.114 381.508 312.366L382.498 305.656H385.6L383.048 320H378.978L377.57 313.488C377.453 312.931 377.343 312.373 377.24 311.816C377.152 311.244 377.071 310.694 376.998 310.166H376.91C376.822 310.694 376.727 311.244 376.624 311.816C376.536 312.373 376.433 312.931 376.316 313.488L374.974 320H370.97ZM392.21 320.264C391.433 320.264 390.707 320.139 390.032 319.89C389.358 319.626 388.771 319.252 388.272 318.768C387.774 318.269 387.385 317.668 387.106 316.964C386.828 316.26 386.688 315.453 386.688 314.544C386.688 313.664 386.835 312.872 387.128 312.168C387.422 311.449 387.803 310.848 388.272 310.364C388.756 309.865 389.306 309.484 389.922 309.22C390.538 308.956 391.176 308.824 391.836 308.824C392.614 308.824 393.288 308.956 393.86 309.22C394.447 309.484 394.931 309.851 395.312 310.32C395.708 310.789 396.002 311.347 396.192 311.992C396.383 312.623 396.478 313.312 396.478 314.06C396.478 314.353 396.464 314.632 396.434 314.896C396.405 315.16 396.376 315.358 396.346 315.49H389.812C389.959 316.282 390.282 316.869 390.78 317.25C391.294 317.617 391.917 317.8 392.65 317.8C393.428 317.8 394.212 317.558 395.004 317.074L396.082 319.032C395.525 319.413 394.902 319.714 394.212 319.934C393.538 320.154 392.87 320.264 392.21 320.264ZM389.79 313.356H393.728C393.728 312.74 393.589 312.241 393.31 311.86C393.032 311.479 392.562 311.288 391.902 311.288C391.389 311.288 390.934 311.457 390.538 311.794C390.157 312.131 389.908 312.652 389.79 313.356ZM404.433 320.264C403.949 320.264 403.458 320.147 402.959 319.912C402.475 319.663 402.021 319.303 401.595 318.834H401.507L401.243 320H398.713V304.578H401.947V308.362L401.859 310.034C402.285 309.653 402.739 309.359 403.223 309.154C403.722 308.934 404.228 308.824 404.741 308.824C405.401 308.824 405.995 308.956 406.523 309.22C407.051 309.484 407.499 309.858 407.865 310.342C408.247 310.811 408.533 311.391 408.723 312.08C408.929 312.755 409.031 313.51 409.031 314.346C409.031 315.285 408.899 316.121 408.635 316.854C408.386 317.587 408.041 318.211 407.601 318.724C407.176 319.223 406.685 319.604 406.127 319.868C405.585 320.132 405.02 320.264 404.433 320.264ZM403.685 317.624C404.243 317.624 404.719 317.375 405.115 316.876C405.511 316.363 405.709 315.541 405.709 314.412C405.709 312.447 405.079 311.464 403.817 311.464C403.172 311.464 402.549 311.794 401.947 312.454V316.92C402.241 317.184 402.534 317.367 402.827 317.47C403.121 317.573 403.407 317.624 403.685 317.624ZM418.479 320.264C417.98 320.264 417.525 320.176 417.115 320C416.719 319.839 416.381 319.611 416.103 319.318C415.824 319.01 415.604 318.658 415.443 318.262C415.296 317.866 415.223 317.433 415.223 316.964C415.223 315.82 415.707 314.925 416.675 314.28C417.643 313.635 419.205 313.202 421.361 312.982C421.331 312.498 421.185 312.117 420.921 311.838C420.671 311.545 420.246 311.398 419.645 311.398C419.175 311.398 418.706 311.486 418.237 311.662C417.782 311.838 417.291 312.08 416.763 312.388L415.597 310.254C416.301 309.829 417.034 309.484 417.797 309.22C418.574 308.956 419.395 308.824 420.261 308.824C421.669 308.824 422.739 309.227 423.473 310.034C424.221 310.826 424.595 312.065 424.595 313.752V320H421.955L421.735 318.878H421.647C421.177 319.289 420.686 319.626 420.173 319.89C419.659 320.139 419.095 320.264 418.479 320.264ZM419.579 317.756C419.945 317.756 420.261 317.675 420.525 317.514C420.789 317.353 421.067 317.125 421.361 316.832V314.918C420.217 315.079 419.425 315.314 418.985 315.622C418.545 315.93 418.325 316.297 418.325 316.722C418.325 317.074 418.435 317.338 418.655 317.514C418.889 317.675 419.197 317.756 419.579 317.756ZM427.33 324.048V309.088H429.97L430.19 310.166H430.278C430.704 309.785 431.18 309.469 431.708 309.22C432.251 308.956 432.808 308.824 433.38 308.824C434.04 308.824 434.634 308.956 435.162 309.22C435.69 309.484 436.138 309.858 436.504 310.342C436.871 310.826 437.15 311.413 437.34 312.102C437.546 312.777 437.648 313.532 437.648 314.368C437.648 315.307 437.516 316.143 437.252 316.876C437.003 317.595 436.658 318.211 436.218 318.724C435.793 319.223 435.302 319.604 434.744 319.868C434.202 320.132 433.637 320.264 433.05 320.264C432.581 320.264 432.126 320.169 431.686 319.978C431.246 319.773 430.836 319.487 430.454 319.12L430.564 320.858V324.048H427.33ZM432.302 317.624C432.86 317.624 433.336 317.375 433.732 316.876C434.128 316.363 434.326 315.541 434.326 314.412C434.326 312.447 433.696 311.464 432.434 311.464C431.804 311.464 431.18 311.794 430.564 312.454V316.92C430.858 317.184 431.151 317.367 431.444 317.47C431.738 317.573 432.024 317.624 432.302 317.624ZM442.912 320.264C442.354 320.264 441.885 320.176 441.504 320C441.122 319.824 440.814 319.582 440.58 319.274C440.36 318.951 440.198 318.57 440.096 318.13C439.993 317.675 439.942 317.169 439.942 316.612V304.578H443.176V316.744C443.176 317.081 443.234 317.316 443.352 317.448C443.484 317.58 443.616 317.646 443.748 317.646C443.821 317.646 443.88 317.646 443.924 317.646C443.982 317.646 444.056 317.631 444.144 317.602L444.54 320C444.364 320.073 444.136 320.132 443.858 320.176C443.594 320.235 443.278 320.264 442.912 320.264ZM446.237 320V309.088H449.471V320H446.237ZM447.843 307.482C447.3 307.482 446.853 307.328 446.501 307.02C446.149 306.697 445.973 306.287 445.973 305.788C445.973 305.289 446.149 304.886 446.501 304.578C446.853 304.27 447.3 304.116 447.843 304.116C448.4 304.116 448.847 304.27 449.185 304.578C449.537 304.886 449.713 305.289 449.713 305.788C449.713 306.287 449.537 306.697 449.185 307.02C448.847 307.328 448.4 307.482 447.843 307.482ZM457.069 320.264C456.306 320.264 455.595 320.139 454.935 319.89C454.289 319.626 453.725 319.252 453.241 318.768C452.757 318.284 452.375 317.69 452.097 316.986C451.818 316.267 451.679 315.453 451.679 314.544C451.679 313.635 451.833 312.828 452.141 312.124C452.449 311.405 452.859 310.804 453.373 310.32C453.901 309.836 454.509 309.469 455.199 309.22C455.888 308.956 456.607 308.824 457.355 308.824C458.029 308.824 458.623 308.934 459.137 309.154C459.665 309.374 460.134 309.653 460.545 309.99L459.027 312.08C458.513 311.655 458.022 311.442 457.553 311.442C456.761 311.442 456.137 311.721 455.683 312.278C455.228 312.835 455.001 313.591 455.001 314.544C455.001 315.497 455.228 316.253 455.683 316.81C456.152 317.367 456.739 317.646 457.443 317.646C457.795 317.646 458.132 317.573 458.455 317.426C458.792 317.265 459.107 317.074 459.401 316.854L460.677 318.966C460.134 319.435 459.547 319.773 458.917 319.978C458.286 320.169 457.67 320.264 457.069 320.264ZM465.121 320.264C464.623 320.264 464.168 320.176 463.757 320C463.361 319.839 463.024 319.611 462.745 319.318C462.467 319.01 462.247 318.658 462.085 318.262C461.939 317.866 461.865 317.433 461.865 316.964C461.865 315.82 462.349 314.925 463.317 314.28C464.285 313.635 465.847 313.202 468.003 312.982C467.974 312.498 467.827 312.117 467.563 311.838C467.314 311.545 466.889 311.398 466.287 311.398C465.818 311.398 465.349 311.486 464.879 311.662C464.425 311.838 463.933 312.08 463.405 312.388L462.239 310.254C462.943 309.829 463.677 309.484 464.439 309.22C465.217 308.956 466.038 308.824 466.903 308.824C468.311 308.824 469.382 309.227 470.115 310.034C470.863 310.826 471.237 312.065 471.237 313.752V320H468.597L468.377 318.878H468.289C467.82 319.289 467.329 319.626 466.815 319.89C466.302 320.139 465.737 320.264 465.121 320.264ZM466.221 317.756C466.588 317.756 466.903 317.675 467.167 317.514C467.431 317.353 467.71 317.125 468.003 316.832V314.918C466.859 315.079 466.067 315.314 465.627 315.622C465.187 315.93 464.967 316.297 464.967 316.722C464.967 317.074 465.077 317.338 465.297 317.514C465.532 317.675 465.84 317.756 466.221 317.756ZM477.788 320.264C477.114 320.264 476.534 320.161 476.05 319.956C475.581 319.751 475.192 319.465 474.884 319.098C474.591 318.731 474.371 318.291 474.224 317.778C474.092 317.25 474.026 316.671 474.026 316.04V311.618H472.53V309.22L474.202 309.088L474.576 306.184H477.26V309.088H479.878V311.618H477.26V315.996C477.26 316.612 477.385 317.059 477.634 317.338C477.898 317.602 478.243 317.734 478.668 317.734C478.844 317.734 479.02 317.712 479.196 317.668C479.387 317.624 479.556 317.573 479.702 317.514L480.208 319.868C479.915 319.956 479.57 320.044 479.174 320.132C478.778 320.22 478.316 320.264 477.788 320.264ZM482.008 320V309.088H485.242V320H482.008ZM483.614 307.482C483.071 307.482 482.624 307.328 482.272 307.02C481.92 306.697 481.744 306.287 481.744 305.788C481.744 305.289 481.92 304.886 482.272 304.578C482.624 304.27 483.071 304.116 483.614 304.116C484.171 304.116 484.619 304.27 484.956 304.578C485.308 304.886 485.484 305.289 485.484 305.788C485.484 306.287 485.308 306.697 484.956 307.02C484.619 307.328 484.171 307.482 483.614 307.482ZM492.774 320.264C492.085 320.264 491.418 320.139 490.772 319.89C490.127 319.626 489.555 319.252 489.056 318.768C488.572 318.284 488.184 317.69 487.89 316.986C487.597 316.267 487.45 315.453 487.45 314.544C487.45 313.635 487.597 312.828 487.89 312.124C488.184 311.405 488.572 310.804 489.056 310.32C489.555 309.836 490.127 309.469 490.772 309.22C491.418 308.956 492.085 308.824 492.774 308.824C493.464 308.824 494.124 308.956 494.754 309.22C495.4 309.469 495.964 309.836 496.448 310.32C496.947 310.804 497.343 311.405 497.636 312.124C497.93 312.828 498.076 313.635 498.076 314.544C498.076 315.453 497.93 316.267 497.636 316.986C497.343 317.69 496.947 318.284 496.448 318.768C495.964 319.252 495.4 319.626 494.754 319.89C494.124 320.139 493.464 320.264 492.774 320.264ZM492.774 317.646C493.434 317.646 493.933 317.367 494.27 316.81C494.608 316.253 494.776 315.497 494.776 314.544C494.776 313.591 494.608 312.835 494.27 312.278C493.933 311.721 493.434 311.442 492.774 311.442C492.1 311.442 491.594 311.721 491.256 312.278C490.934 312.835 490.772 313.591 490.772 314.544C490.772 315.497 490.934 316.253 491.256 316.81C491.594 317.367 492.1 317.646 492.774 317.646ZM500.291 320V309.088H502.931L503.151 310.474H503.239C503.709 310.034 504.222 309.653 504.779 309.33C505.337 308.993 505.989 308.824 506.737 308.824C507.925 308.824 508.783 309.213 509.311 309.99C509.854 310.767 510.125 311.845 510.125 313.224V320H506.891V313.642C506.891 312.85 506.781 312.307 506.561 312.014C506.356 311.721 506.019 311.574 505.549 311.574C505.139 311.574 504.787 311.669 504.493 311.86C504.2 312.036 503.877 312.293 503.525 312.63V320H500.291Z" fill="#000E1A"/>
<g filter="url(#filter2_d)">
<rect x="357" y="173" width="146" height="70" rx="35" fill="white"/>
</g>
<path d="M418.06 209.74L417.708 211.06H420.766L420.436 209.74C420.231 209.021 420.033 208.259 419.842 207.452C419.651 206.645 419.461 205.868 419.27 205.12H419.182C419.006 205.883 418.823 206.667 418.632 207.474C418.456 208.266 418.265 209.021 418.06 209.74ZM412.868 217L417.356 202.656H421.25L425.738 217H422.306L421.426 213.59H417.048L416.168 217H412.868ZM427.305 217V202.656H432.233C433.025 202.656 433.766 202.737 434.455 202.898C435.145 203.045 435.746 203.301 436.259 203.668C436.773 204.02 437.176 204.497 437.469 205.098C437.777 205.685 437.931 206.411 437.931 207.276C437.931 208.112 437.777 208.838 437.469 209.454C437.176 210.07 436.773 210.576 436.259 210.972C435.746 211.368 435.152 211.661 434.477 211.852C433.803 212.043 433.084 212.138 432.321 212.138H430.539V217H427.305ZM430.539 209.564H432.123C433.883 209.564 434.763 208.801 434.763 207.276C434.763 206.528 434.529 206 434.059 205.692C433.59 205.384 432.915 205.23 432.035 205.23H430.539V209.564ZM440.411 217V202.656H443.645V217H440.411ZM449.976 217.264C449.257 217.264 448.517 217.125 447.754 216.846C447.006 216.567 446.353 216.201 445.796 215.746L447.248 213.722C447.747 214.103 448.223 214.389 448.678 214.58C449.133 214.771 449.595 214.866 450.064 214.866C450.548 214.866 450.9 214.785 451.12 214.624C451.34 214.463 451.45 214.235 451.45 213.942C451.45 213.766 451.384 213.612 451.252 213.48C451.135 213.333 450.966 213.201 450.746 213.084C450.541 212.967 450.306 212.864 450.042 212.776C449.778 212.673 449.507 212.563 449.228 212.446C448.891 212.314 448.553 212.16 448.216 211.984C447.879 211.808 447.571 211.595 447.292 211.346C447.013 211.082 446.786 210.781 446.61 210.444C446.434 210.092 446.346 209.689 446.346 209.234C446.346 208.735 446.441 208.273 446.632 207.848C446.837 207.423 447.123 207.063 447.49 206.77C447.857 206.477 448.297 206.249 448.81 206.088C449.323 205.912 449.895 205.824 450.526 205.824C451.362 205.824 452.095 205.971 452.726 206.264C453.357 206.543 453.907 206.858 454.376 207.21L452.924 209.146C452.528 208.853 452.139 208.625 451.758 208.464C451.377 208.303 450.995 208.222 450.614 208.222C449.793 208.222 449.382 208.508 449.382 209.08C449.382 209.256 449.441 209.41 449.558 209.542C449.675 209.659 449.829 209.769 450.02 209.872C450.225 209.975 450.453 210.077 450.702 210.18C450.966 210.268 451.237 210.363 451.516 210.466C451.868 210.598 452.213 210.752 452.55 210.928C452.902 211.089 453.217 211.295 453.496 211.544C453.789 211.793 454.024 212.101 454.2 212.468C454.376 212.82 454.464 213.245 454.464 213.744C454.464 214.243 454.369 214.705 454.178 215.13C453.987 215.555 453.701 215.929 453.32 216.252C452.939 216.56 452.469 216.809 451.912 217C451.355 217.176 450.709 217.264 449.976 217.264Z" fill="#000E1A"/>
<g filter="url(#filter3_d)">
<rect x="81" y="263" width="165" height="70" rx="35" fill="white"/>
</g>
<path d="M123.97 306L121.308 291.656H124.63L125.62 298.366C125.708 299.114 125.803 299.869 125.906 300.632C126.009 301.38 126.104 302.135 126.192 302.898H126.28C126.427 302.135 126.566 301.38 126.698 300.632C126.845 299.869 126.991 299.114 127.138 298.366L128.678 291.656H131.428L132.968 298.366C133.115 299.099 133.254 299.847 133.386 300.61C133.533 301.358 133.679 302.121 133.826 302.898H133.914C134.017 302.121 134.112 301.358 134.2 300.61C134.303 299.862 134.405 299.114 134.508 298.366L135.498 291.656H138.6L136.048 306H131.978L130.57 299.488C130.453 298.931 130.343 298.373 130.24 297.816C130.152 297.244 130.071 296.694 129.998 296.166H129.91C129.822 296.694 129.727 297.244 129.624 297.816C129.536 298.373 129.433 298.931 129.316 299.488L127.974 306H123.97ZM145.21 306.264C144.433 306.264 143.707 306.139 143.032 305.89C142.358 305.626 141.771 305.252 141.272 304.768C140.774 304.269 140.385 303.668 140.106 302.964C139.828 302.26 139.688 301.453 139.688 300.544C139.688 299.664 139.835 298.872 140.128 298.168C140.422 297.449 140.803 296.848 141.272 296.364C141.756 295.865 142.306 295.484 142.922 295.22C143.538 294.956 144.176 294.824 144.836 294.824C145.614 294.824 146.288 294.956 146.86 295.22C147.447 295.484 147.931 295.851 148.312 296.32C148.708 296.789 149.002 297.347 149.192 297.992C149.383 298.623 149.478 299.312 149.478 300.06C149.478 300.353 149.464 300.632 149.434 300.896C149.405 301.16 149.376 301.358 149.346 301.49H142.812C142.959 302.282 143.282 302.869 143.78 303.25C144.294 303.617 144.917 303.8 145.65 303.8C146.428 303.8 147.212 303.558 148.004 303.074L149.082 305.032C148.525 305.413 147.902 305.714 147.212 305.934C146.538 306.154 145.87 306.264 145.21 306.264ZM142.79 299.356H146.728C146.728 298.74 146.589 298.241 146.31 297.86C146.032 297.479 145.562 297.288 144.902 297.288C144.389 297.288 143.934 297.457 143.538 297.794C143.157 298.131 142.908 298.652 142.79 299.356ZM157.433 306.264C156.949 306.264 156.458 306.147 155.959 305.912C155.475 305.663 155.021 305.303 154.595 304.834H154.507L154.243 306H151.713V290.578H154.947V294.362L154.859 296.034C155.285 295.653 155.739 295.359 156.223 295.154C156.722 294.934 157.228 294.824 157.741 294.824C158.401 294.824 158.995 294.956 159.523 295.22C160.051 295.484 160.499 295.858 160.865 296.342C161.247 296.811 161.533 297.391 161.723 298.08C161.929 298.755 162.031 299.51 162.031 300.346C162.031 301.285 161.899 302.121 161.635 302.854C161.386 303.587 161.041 304.211 160.601 304.724C160.176 305.223 159.685 305.604 159.127 305.868C158.585 306.132 158.02 306.264 157.433 306.264ZM156.685 303.624C157.243 303.624 157.719 303.375 158.115 302.876C158.511 302.363 158.709 301.541 158.709 300.412C158.709 298.447 158.079 297.464 156.817 297.464C156.172 297.464 155.549 297.794 154.947 298.454V302.92C155.241 303.184 155.534 303.367 155.827 303.47C156.121 303.573 156.407 303.624 156.685 303.624ZM167.429 306.264C166.71 306.264 165.97 306.125 165.207 305.846C164.459 305.567 163.806 305.201 163.249 304.746L164.701 302.722C165.2 303.103 165.676 303.389 166.131 303.58C166.586 303.771 167.048 303.866 167.517 303.866C168.001 303.866 168.353 303.785 168.573 303.624C168.793 303.463 168.903 303.235 168.903 302.942C168.903 302.766 168.837 302.612 168.705 302.48C168.588 302.333 168.419 302.201 168.199 302.084C167.994 301.967 167.759 301.864 167.495 301.776C167.231 301.673 166.96 301.563 166.681 301.446C166.344 301.314 166.006 301.16 165.669 300.984C165.332 300.808 165.024 300.595 164.745 300.346C164.466 300.082 164.239 299.781 164.063 299.444C163.887 299.092 163.799 298.689 163.799 298.234C163.799 297.735 163.894 297.273 164.085 296.848C164.29 296.423 164.576 296.063 164.943 295.77C165.31 295.477 165.75 295.249 166.263 295.088C166.776 294.912 167.348 294.824 167.979 294.824C168.815 294.824 169.548 294.971 170.179 295.264C170.81 295.543 171.36 295.858 171.829 296.21L170.377 298.146C169.981 297.853 169.592 297.625 169.211 297.464C168.83 297.303 168.448 297.222 168.067 297.222C167.246 297.222 166.835 297.508 166.835 298.08C166.835 298.256 166.894 298.41 167.011 298.542C167.128 298.659 167.282 298.769 167.473 298.872C167.678 298.975 167.906 299.077 168.155 299.18C168.419 299.268 168.69 299.363 168.969 299.466C169.321 299.598 169.666 299.752 170.003 299.928C170.355 300.089 170.67 300.295 170.949 300.544C171.242 300.793 171.477 301.101 171.653 301.468C171.829 301.82 171.917 302.245 171.917 302.744C171.917 303.243 171.822 303.705 171.631 304.13C171.44 304.555 171.154 304.929 170.773 305.252C170.392 305.56 169.922 305.809 169.365 306C168.808 306.176 168.162 306.264 167.429 306.264ZM173.971 306V295.088H177.205V306H173.971ZM175.577 293.482C175.034 293.482 174.587 293.328 174.235 293.02C173.883 292.697 173.707 292.287 173.707 291.788C173.707 291.289 173.883 290.886 174.235 290.578C174.587 290.27 175.034 290.116 175.577 290.116C176.134 290.116 176.582 290.27 176.919 290.578C177.271 290.886 177.447 291.289 177.447 291.788C177.447 292.287 177.271 292.697 176.919 293.02C176.582 293.328 176.134 293.482 175.577 293.482ZM184.253 306.264C183.578 306.264 182.999 306.161 182.515 305.956C182.046 305.751 181.657 305.465 181.349 305.098C181.056 304.731 180.836 304.291 180.689 303.778C180.557 303.25 180.491 302.671 180.491 302.04V297.618H178.995V295.22L180.667 295.088L181.041 292.184H183.725V295.088H186.343V297.618H183.725V301.996C183.725 302.612 183.85 303.059 184.099 303.338C184.363 303.602 184.708 303.734 185.133 303.734C185.309 303.734 185.485 303.712 185.661 303.668C185.852 303.624 186.02 303.573 186.167 303.514L186.673 305.868C186.38 305.956 186.035 306.044 185.639 306.132C185.243 306.22 184.781 306.264 184.253 306.264ZM192.97 306.264C192.193 306.264 191.467 306.139 190.792 305.89C190.118 305.626 189.531 305.252 189.032 304.768C188.534 304.269 188.145 303.668 187.866 302.964C187.588 302.26 187.448 301.453 187.448 300.544C187.448 299.664 187.595 298.872 187.888 298.168C188.182 297.449 188.563 296.848 189.032 296.364C189.516 295.865 190.066 295.484 190.682 295.22C191.298 294.956 191.936 294.824 192.596 294.824C193.374 294.824 194.048 294.956 194.62 295.22C195.207 295.484 195.691 295.851 196.072 296.32C196.468 296.789 196.762 297.347 196.952 297.992C197.143 298.623 197.238 299.312 197.238 300.06C197.238 300.353 197.224 300.632 197.194 300.896C197.165 301.16 197.136 301.358 197.106 301.49H190.572C190.719 302.282 191.042 302.869 191.54 303.25C192.054 303.617 192.677 303.8 193.41 303.8C194.188 303.8 194.972 303.558 195.764 303.074L196.842 305.032C196.285 305.413 195.662 305.714 194.972 305.934C194.298 306.154 193.63 306.264 192.97 306.264ZM190.55 299.356H194.488C194.488 298.74 194.349 298.241 194.07 297.86C193.792 297.479 193.322 297.288 192.662 297.288C192.149 297.288 191.694 297.457 191.298 297.794C190.917 298.131 190.668 298.652 190.55 299.356ZM202.685 306.264C201.966 306.264 201.226 306.125 200.463 305.846C199.715 305.567 199.062 305.201 198.505 304.746L199.957 302.722C200.456 303.103 200.932 303.389 201.387 303.58C201.842 303.771 202.304 303.866 202.773 303.866C203.257 303.866 203.609 303.785 203.829 303.624C204.049 303.463 204.159 303.235 204.159 302.942C204.159 302.766 204.093 302.612 203.961 302.48C203.844 302.333 203.675 302.201 203.455 302.084C203.25 301.967 203.015 301.864 202.751 301.776C202.487 301.673 202.216 301.563 201.937 301.446C201.6 301.314 201.262 301.16 200.925 300.984C200.588 300.808 200.28 300.595 200.001 300.346C199.722 300.082 199.495 299.781 199.319 299.444C199.143 299.092 199.055 298.689 199.055 298.234C199.055 297.735 199.15 297.273 199.341 296.848C199.546 296.423 199.832 296.063 200.199 295.77C200.566 295.477 201.006 295.249 201.519 295.088C202.032 294.912 202.604 294.824 203.235 294.824C204.071 294.824 204.804 294.971 205.435 295.264C206.066 295.543 206.616 295.858 207.085 296.21L205.633 298.146C205.237 297.853 204.848 297.625 204.467 297.464C204.086 297.303 203.704 297.222 203.323 297.222C202.502 297.222 202.091 297.508 202.091 298.08C202.091 298.256 202.15 298.41 202.267 298.542C202.384 298.659 202.538 298.769 202.729 298.872C202.934 298.975 203.162 299.077 203.411 299.18C203.675 299.268 203.946 299.363 204.225 299.466C204.577 299.598 204.922 299.752 205.259 299.928C205.611 300.089 205.926 300.295 206.205 300.544C206.498 300.793 206.733 301.101 206.909 301.468C207.085 301.82 207.173 302.245 207.173 302.744C207.173 303.243 207.078 303.705 206.887 304.13C206.696 304.555 206.41 304.929 206.029 305.252C205.648 305.56 205.178 305.809 204.621 306C204.064 306.176 203.418 306.264 202.685 306.264Z" fill="#000E1A"/>
<path d="M302.016 75.2797C302.138 74.4603 302.901 73.8945 303.72 74.0161C304.54 74.1377 305.105 74.9005 304.984 75.72L302.016 75.2797ZM316.981 300.74C316.848 301.558 316.078 302.113 315.26 301.981L301.934 299.821C301.116 299.689 300.561 298.918 300.693 298.101C300.826 297.283 301.596 296.727 302.414 296.86L314.259 298.779L316.179 286.934C316.311 286.116 317.082 285.561 317.899 285.693C318.717 285.826 319.273 286.596 319.14 287.414L316.981 300.74ZM312.261 298.368C311.821 297.666 312.033 296.74 312.735 296.3C313.437 295.86 314.362 296.072 314.802 296.774L312.261 298.368ZM311.424 290.653C311.787 291.398 311.478 292.296 310.733 292.659C309.988 293.022 309.09 292.712 308.727 291.968L311.424 290.653ZM305.821 285.299C305.52 284.528 305.902 283.658 306.674 283.357C307.446 283.056 308.315 283.438 308.616 284.209L305.821 285.299ZM306.275 277.558C306.526 278.347 306.089 279.19 305.299 279.441C304.51 279.692 303.666 279.255 303.416 278.466L306.275 277.558ZM301.413 271.524C301.203 270.723 301.683 269.903 302.485 269.694C303.286 269.484 304.106 269.964 304.315 270.765L301.413 271.524ZM302.673 263.873C302.848 264.682 302.334 265.481 301.524 265.656C300.715 265.832 299.916 265.317 299.741 264.508L302.673 263.873ZM298.343 257.436C298.197 256.621 298.739 255.841 299.555 255.695C300.37 255.548 301.15 256.09 301.296 256.906L298.343 257.436ZM300.147 249.883C300.269 250.702 299.703 251.465 298.884 251.587C298.064 251.708 297.302 251.142 297.18 250.323L300.147 249.883ZM296.218 243.18C296.118 242.358 296.704 241.61 297.526 241.51C298.348 241.41 299.096 241.995 299.196 242.818L296.218 243.18ZM298.421 235.757C298.503 236.581 297.9 237.316 297.076 237.397C296.251 237.478 295.517 236.875 295.436 236.051L298.421 235.757ZM294.807 228.905C294.743 228.079 295.36 227.357 296.186 227.293C297.012 227.228 297.734 227.846 297.798 228.672L294.807 228.905ZM297.31 221.561C297.36 222.388 296.729 223.099 295.902 223.148C295.075 223.198 294.365 222.567 294.316 221.74L297.31 221.561ZM293.947 214.566C293.911 213.738 294.553 213.038 295.381 213.003C296.209 212.967 296.909 213.609 296.944 214.436L293.947 214.566ZM296.69 207.313C296.713 208.141 296.061 208.831 295.233 208.855C294.405 208.878 293.715 208.226 293.691 207.398L296.69 207.313ZM293.537 200.23C293.524 199.402 294.186 198.72 295.014 198.708C295.843 198.696 296.524 199.357 296.536 200.186L293.537 200.23ZM296.476 193.05C296.478 193.879 295.808 194.552 294.979 194.554C294.151 194.556 293.478 193.886 293.476 193.057L296.476 193.05ZM293.501 185.889C293.508 185.061 294.186 184.396 295.014 184.403C295.843 184.411 296.508 185.089 296.5 185.917L293.501 185.889ZM296.605 178.786C296.588 179.614 295.903 180.272 295.075 180.256C294.247 180.239 293.589 179.554 293.605 178.726L296.605 178.786ZM293.785 171.554C293.81 170.726 294.501 170.075 295.329 170.099C296.157 170.124 296.808 170.816 296.784 171.644L293.785 171.554ZM297.032 164.506C296.999 165.334 296.302 165.979 295.474 165.946C294.646 165.913 294.002 165.216 294.034 164.388L297.032 164.506ZM294.349 157.236C294.389 156.408 295.092 155.77 295.92 155.81C296.747 155.85 297.385 156.553 297.345 157.381L294.349 157.236ZM297.72 150.273C297.673 151.1 296.964 151.732 296.137 151.685C295.31 151.638 294.678 150.929 294.725 150.102L297.72 150.273ZM295.163 142.933C295.216 142.106 295.93 141.479 296.757 141.533C297.584 141.587 298.21 142.301 298.156 143.128L295.163 142.933ZM298.649 135.991C298.589 136.817 297.87 137.438 297.044 137.378C296.218 137.318 295.597 136.599 295.657 135.773L298.649 135.991ZM296.206 128.624C296.272 127.798 296.996 127.182 297.821 127.249C298.647 127.315 299.263 128.039 299.196 128.864L296.206 128.624ZM299.796 121.747C299.723 122.572 298.995 123.182 298.17 123.11C297.345 123.037 296.735 122.309 296.807 121.484L299.796 121.747ZM297.461 114.351C297.539 113.526 298.272 112.921 299.096 113C299.921 113.078 300.526 113.81 300.447 114.635L297.461 114.351ZM301.15 107.524C301.066 108.348 300.329 108.948 299.505 108.863C298.681 108.779 298.082 108.042 298.166 107.218L301.15 107.524ZM298.923 100.088C299.014 99.2643 299.755 98.6701 300.578 98.7606C301.402 98.8511 301.996 99.592 301.905 100.415L298.923 100.088ZM302.71 93.3349C302.613 94.1577 301.868 94.7463 301.045 94.6496C300.222 94.5529 299.634 93.8075 299.731 92.9847L302.71 93.3349ZM300.596 85.8734C300.699 85.0515 301.449 84.4691 302.271 84.5726C303.093 84.6761 303.676 85.4263 303.572 86.2482L300.596 85.8734ZM304.502 79.146C304.39 79.9668 303.633 80.5414 302.813 80.4293C301.992 80.3172 301.417 79.5609 301.529 78.7401L304.502 79.146ZM314.284 301.377C313.587 300.412 312.913 299.408 312.261 298.368L314.802 296.774C315.422 297.762 316.06 298.712 316.717 299.623L314.284 301.377ZM308.727 291.968C307.695 289.849 306.727 287.623 305.821 285.299L308.616 284.209C309.496 286.464 310.431 288.615 311.424 290.653L308.727 291.968ZM303.416 278.466C302.703 276.221 302.036 273.905 301.413 271.524L304.315 270.765C304.926 273.1 305.579 275.366 306.275 277.558L303.416 278.466ZM299.741 264.508C299.24 262.198 298.775 259.839 298.343 257.436L301.296 256.906C301.722 259.276 302.18 261.6 302.673 263.873L299.741 264.508ZM297.18 250.323C296.832 247.975 296.511 245.592 296.218 243.18L299.196 242.818C299.487 245.206 299.803 247.562 300.147 249.883L297.18 250.323ZM295.436 236.051C295.204 233.69 294.995 231.307 294.807 228.905L297.798 228.672C297.984 231.055 298.191 233.418 298.421 235.757L295.436 236.051ZM294.316 221.74C294.174 219.362 294.051 216.969 293.947 214.566L296.944 214.436C297.048 216.824 297.169 219.2 297.31 221.561L294.316 221.74ZM293.691 207.398C293.623 205.013 293.572 202.623 293.537 200.23L296.536 200.186C296.572 202.565 296.623 204.942 296.69 207.313L293.691 207.398ZM293.476 193.057C293.47 190.665 293.479 188.275 293.501 185.889L296.5 185.917C296.479 188.291 296.47 190.67 296.476 193.05L293.476 193.057ZM293.605 178.726C293.653 176.325 293.713 173.933 293.785 171.554L296.784 171.644C296.712 174.013 296.652 176.395 296.605 178.786L293.605 178.726ZM294.034 164.388C294.129 161.984 294.234 159.599 294.349 157.236L297.345 157.381C297.231 159.736 297.126 162.112 297.032 164.506L294.034 164.388ZM294.725 150.102C294.863 147.682 295.009 145.29 295.163 142.933L298.156 143.128C298.003 145.477 297.857 147.861 297.72 150.273L294.725 150.102ZM295.657 135.773C295.834 133.344 296.018 130.959 296.206 128.624L299.196 128.864C299.009 131.193 298.826 133.57 298.649 135.991L295.657 135.773ZM296.807 121.484C297.023 119.037 297.241 116.656 297.461 114.351L300.447 114.635C300.228 116.934 300.01 119.307 299.796 121.747L296.807 121.484ZM298.166 107.218C298.422 104.724 298.675 102.344 298.923 100.088L301.905 100.415C301.658 102.664 301.405 105.038 301.15 107.524L298.166 107.218ZM299.731 92.9847C300.04 90.3541 300.331 87.9738 300.596 85.8734L303.572 86.2482C303.309 88.3408 303.018 90.7129 302.71 93.3349L299.731 92.9847ZM301.529 78.7401C301.683 77.6178 301.804 76.754 301.888 76.1701C301.929 75.8782 301.961 75.6563 301.983 75.507C301.994 75.4323 302.002 75.3758 302.008 75.3379C302.01 75.3189 302.013 75.3045 302.014 75.2948C302.015 75.2899 302.015 75.2863 302.016 75.2837C302.016 75.2825 302.016 75.2815 302.016 75.2808C302.016 75.2805 302.016 75.2802 302.016 75.2801C302.016 75.28 302.016 75.2799 302.016 75.2798C302.016 75.2798 302.016 75.2798 302.016 75.2798C302.016 75.2797 302.016 75.2797 303.5 75.4998C304.984 75.72 304.984 75.72 304.984 75.7199C304.984 75.72 304.984 75.7199 304.984 75.72C304.984 75.72 304.984 75.72 304.984 75.7201C304.984 75.7202 304.984 75.7203 304.984 75.7206C304.984 75.7211 304.984 75.7219 304.983 75.723C304.983 75.7252 304.983 75.7285 304.982 75.733C304.981 75.7421 304.979 75.7558 304.976 75.7741C304.97 75.8107 304.962 75.8658 304.952 75.9391C304.93 76.0857 304.899 76.3048 304.857 76.5939C304.775 77.172 304.654 78.0298 304.502 79.146L301.529 78.7401Z" fill="#FA5A28"/>
<path d="M286.743 78.9302C286.705 78.1027 286.002 77.4631 285.175 77.5018C284.347 77.5404 283.708 78.2425 283.746 79.07L286.743 78.9302ZM245 266.005C245.003 266.834 245.677 267.503 246.505 267.5L260.005 267.452C260.834 267.449 261.503 266.775 261.5 265.947C261.497 265.118 260.823 264.449 259.995 264.452L247.995 264.495L247.952 252.495C247.949 251.666 247.275 250.997 246.447 251C245.618 251.003 244.949 251.677 244.952 252.505L245 266.005ZM249.986 264.476C250.536 263.857 250.48 262.909 249.861 262.359C249.242 261.808 248.294 261.865 247.743 262.484L249.986 264.476ZM252.006 257.17C251.519 257.839 251.667 258.778 252.337 259.265C253.007 259.752 253.945 259.604 254.432 258.934L252.006 257.17ZM258.357 253.038C258.788 252.331 258.565 251.408 257.858 250.976C257.151 250.545 256.228 250.768 255.796 251.475L258.357 253.038ZM259.165 245.499C258.782 246.234 259.067 247.14 259.802 247.523C260.536 247.906 261.442 247.621 261.825 246.886L259.165 245.499ZM264.9 240.548C265.241 239.793 264.905 238.904 264.15 238.563C263.395 238.222 262.507 238.558 262.166 239.313L264.9 240.548ZM264.844 232.968C264.54 233.739 264.918 234.61 265.688 234.914C266.459 235.219 267.33 234.841 267.634 234.07L264.844 232.968ZM270.074 227.486C270.346 226.704 269.932 225.849 269.15 225.577C268.367 225.305 267.512 225.719 267.24 226.501L270.074 227.486ZM269.388 219.937C269.145 220.729 269.589 221.569 270.38 221.812C271.172 222.056 272.012 221.612 272.255 220.82L269.388 219.937ZM274.21 214.089C274.429 213.29 273.959 212.465 273.16 212.247C272.361 212.028 271.536 212.498 271.317 213.297L274.21 214.089ZM273.049 206.596C272.853 207.401 273.346 208.212 274.151 208.409C274.956 208.605 275.767 208.112 275.964 207.307L273.049 206.596ZM277.537 200.484C277.713 199.675 277.199 198.876 276.39 198.699C275.58 198.523 274.781 199.037 274.605 199.846L277.537 200.484ZM276.001 193.058C275.843 193.871 276.375 194.659 277.188 194.816C278.001 194.974 278.788 194.443 278.946 193.63L276.001 193.058ZM280.208 186.753C280.349 185.936 279.802 185.16 278.986 185.019C278.169 184.877 277.393 185.425 277.252 186.241L280.208 186.753ZM278.369 179.4C278.243 180.219 278.805 180.985 279.624 181.111C280.442 181.237 281.208 180.675 281.334 179.856L278.369 179.4ZM282.337 172.94C282.449 172.119 281.875 171.363 281.054 171.251C280.233 171.139 279.477 171.714 279.365 172.534L282.337 172.94ZM280.247 165.65C280.148 166.472 280.735 167.219 281.558 167.318C282.38 167.417 283.127 166.83 283.226 166.008L280.247 165.65ZM284.008 159.064C284.094 158.241 283.497 157.502 282.673 157.416C281.849 157.329 281.111 157.927 281.024 158.751L284.008 159.064ZM281.702 151.841C281.627 152.666 282.235 153.395 283.06 153.471C283.885 153.546 284.614 152.938 284.69 152.113L281.702 151.841ZM285.277 145.156C285.342 144.33 284.724 143.608 283.899 143.544C283.073 143.479 282.351 144.097 282.286 144.923L285.277 145.156ZM282.783 137.997C282.729 138.824 283.355 139.538 284.182 139.592C285.008 139.646 285.722 139.02 285.776 138.193L282.783 137.997ZM286.19 131.226C286.235 130.399 285.6 129.692 284.773 129.648C283.946 129.604 283.239 130.238 283.195 131.066L286.19 131.226ZM283.526 124.127C283.491 124.954 284.134 125.653 284.962 125.688C285.789 125.723 286.489 125.08 286.523 124.253L283.526 124.127ZM286.778 117.272C286.803 116.444 286.153 115.752 285.325 115.727C284.497 115.701 283.805 116.352 283.779 117.18L286.778 117.272ZM283.955 110.23C283.939 111.058 284.597 111.743 285.425 111.759C286.254 111.776 286.938 111.118 286.955 110.289L283.955 110.23ZM287.055 103.319C287.062 102.491 286.397 101.813 285.568 101.806C284.74 101.799 284.063 102.464 284.055 103.293L287.055 103.319ZM284.078 96.3748C284.08 97.2032 284.753 97.8732 285.581 97.8712C286.41 97.8692 287.08 97.196 287.078 96.3676L284.078 96.3748ZM287.019 89.3569C287.007 88.5286 286.325 87.8669 285.497 87.8791C284.669 87.8913 284.007 88.5726 284.019 89.401L287.019 89.3569ZM283.869 82.5124C283.894 83.3404 284.585 83.9917 285.413 83.9671C286.241 83.9425 286.893 83.2513 286.868 82.4232L283.869 82.5124ZM247.564 267.057C248.389 266.226 249.196 265.365 249.986 264.476L247.743 262.484C246.989 263.333 246.22 264.153 245.436 264.943L247.564 267.057ZM254.432 258.934C255.798 257.058 257.105 255.089 258.357 253.038L255.796 251.475C254.583 253.462 253.321 255.363 252.006 257.17L254.432 258.934ZM261.825 246.886C262.895 244.835 263.919 242.72 264.9 240.548L262.166 239.313C261.207 241.437 260.207 243.502 259.165 245.499L261.825 246.886ZM267.634 234.07C268.484 231.919 269.296 229.722 270.074 227.486L267.24 226.501C266.475 228.7 265.677 230.858 264.844 232.968L267.634 234.07ZM272.255 220.82C272.938 218.606 273.589 216.36 274.21 214.089L271.317 213.297C270.703 215.539 270.061 217.754 269.388 219.937L272.255 220.82ZM275.964 207.307C276.514 205.05 277.038 202.774 277.537 200.484L274.605 199.846C274.112 202.113 273.594 204.365 273.049 206.596L275.964 207.307ZM278.946 193.63C279.39 191.345 279.81 189.051 280.208 186.753L277.252 186.241C276.857 188.52 276.441 190.794 276.001 193.058L278.946 193.63ZM281.334 179.856C281.69 177.549 282.023 175.242 282.337 172.94L279.365 172.534C279.053 174.82 278.722 177.11 278.369 179.4L281.334 179.856ZM283.226 166.008C283.505 163.681 283.766 161.365 284.008 159.064L281.024 158.751C280.784 161.037 280.525 163.339 280.247 165.65L283.226 166.008ZM284.69 152.113C284.903 149.77 285.099 147.449 285.277 145.156L282.286 144.923C282.109 147.204 281.914 149.512 281.702 151.841L284.69 152.113ZM285.776 138.193C285.931 135.832 286.068 133.507 286.19 131.226L283.195 131.066C283.073 133.335 282.936 135.648 282.783 137.997L285.776 138.193ZM286.523 124.253C286.624 121.862 286.708 119.533 286.778 117.272L283.779 117.18C283.71 119.43 283.626 121.748 283.526 124.127L286.523 124.253ZM286.955 110.289C287.003 107.856 287.035 105.529 287.055 103.319L284.055 103.293C284.036 105.491 284.004 107.808 283.955 110.23L286.955 110.289ZM287.078 96.3676C287.072 93.7786 287.049 91.4308 287.019 89.3569L284.019 89.401C284.049 91.4632 284.072 93.7987 284.078 96.3748L287.078 96.3676ZM286.868 82.4232C286.834 81.2944 286.803 80.4231 286.781 79.833C286.769 79.538 286.76 79.3132 286.753 79.1618C286.75 79.0861 286.748 79.0287 286.746 78.9899C286.745 78.9706 286.744 78.9559 286.744 78.9459C286.744 78.9409 286.744 78.9371 286.743 78.9345C286.743 78.9332 286.743 78.9322 286.743 78.9315C286.743 78.9311 286.743 78.9308 286.743 78.9306C286.743 78.9305 286.743 78.9304 286.743 78.9304C286.743 78.9303 286.743 78.9303 286.743 78.9303C286.743 78.9302 286.743 78.9302 285.245 79.0001C283.746 79.07 283.746 79.07 283.746 79.07C283.746 79.07 283.746 79.07 283.746 79.07C283.746 79.07 283.746 79.07 283.746 79.0701C283.746 79.0702 283.746 79.0703 283.746 79.0706C283.747 79.071 283.747 79.0718 283.747 79.0729C283.747 79.075 283.747 79.0783 283.747 79.0828C283.747 79.0918 283.748 79.1055 283.749 79.1239C283.751 79.1606 283.753 79.216 283.756 79.2897C283.762 79.4371 283.772 79.6577 283.783 79.9485C283.805 80.5302 283.836 81.3927 283.869 82.5124L286.868 82.4232Z" fill="#FA5A28"/>
<path d="M315.112 83.7278C315.263 82.9131 316.045 82.3746 316.86 82.5249C317.674 82.6753 318.213 83.4576 318.062 84.2722L315.112 83.7278ZM340.918 201.512C341.188 202.295 340.772 203.149 339.988 203.418L327.224 207.813C326.44 208.082 325.587 207.666 325.317 206.883C325.047 206.099 325.464 205.246 326.247 204.976L337.593 201.07L333.687 189.724C333.418 188.94 333.834 188.087 334.617 187.817C335.401 187.547 336.254 187.964 336.524 188.747L340.918 201.512ZM335.616 201.551C334.915 201.109 334.706 200.183 335.147 199.482C335.589 198.781 336.515 198.572 337.216 199.013L335.616 201.551ZM331.938 194.851C332.533 195.427 332.549 196.377 331.973 196.972C331.396 197.567 330.447 197.583 329.851 197.006L331.938 194.851ZM325.088 191.466C324.604 190.794 324.756 189.856 325.429 189.372C326.101 188.888 327.038 189.04 327.522 189.713L325.088 191.466ZM323.952 183.892C324.336 184.626 324.052 185.532 323.318 185.916C322.584 186.3 321.678 186.016 321.294 185.282L323.952 183.892ZM318.328 178.708C318.028 177.936 318.412 177.067 319.184 176.767C319.956 176.467 320.825 176.851 321.125 177.623L318.328 178.708ZM318.921 171.064C319.152 171.86 318.693 172.692 317.897 172.922C317.102 173.152 316.27 172.694 316.039 171.898L318.921 171.064ZM314.304 164.956C314.13 164.146 314.647 163.348 315.457 163.175C316.267 163.002 317.064 163.518 317.237 164.328L314.304 164.956ZM315.985 157.479C316.111 158.298 315.549 159.064 314.731 159.19C313.912 159.316 313.146 158.755 313.02 157.936L315.985 157.479ZM312.11 150.867C312.024 150.043 312.622 149.305 313.446 149.219C314.27 149.132 315.007 149.73 315.094 150.554L312.11 150.867ZM314.512 143.589C314.564 144.416 313.937 145.129 313.11 145.181C312.283 145.234 311.57 144.606 311.518 143.779L314.512 143.589ZM311.198 136.682C311.175 135.854 311.828 135.164 312.656 135.141C313.484 135.118 314.174 135.771 314.197 136.599L311.198 136.682ZM314.115 129.594C314.112 130.423 313.438 131.092 312.609 131.089C311.781 131.086 311.112 130.412 311.115 129.583L314.115 129.594ZM311.243 122.485C311.269 121.657 311.962 121.007 312.79 121.033C313.618 121.06 314.268 121.752 314.242 122.58L311.243 122.485ZM314.556 115.583C314.508 116.41 313.799 117.042 312.972 116.994C312.145 116.946 311.513 116.237 311.561 115.41L314.556 115.583ZM312.055 108.33C312.123 107.504 312.847 106.89 313.673 106.957C314.498 107.025 315.113 107.749 315.045 108.575L312.055 108.33ZM315.7 101.577C315.613 102.401 314.875 102.998 314.051 102.912C313.227 102.825 312.629 102.087 312.716 101.263L315.7 101.577ZM313.539 94.2201C313.645 93.3985 314.396 92.8182 315.218 92.924C316.04 93.0298 316.62 93.7816 316.514 94.6033L313.539 94.2201ZM317.5 87.6522C317.372 88.4707 316.605 89.0305 315.787 88.9026C314.968 88.7747 314.408 88.0075 314.536 87.189L317.5 87.6522ZM338.842 203.348C337.725 202.803 336.65 202.203 335.616 201.551L337.216 199.013C338.159 199.608 339.139 200.155 340.158 200.652L338.842 203.348ZM329.851 197.006C328.114 195.324 326.53 193.468 325.088 191.466L327.522 189.713C328.87 191.583 330.339 193.302 331.938 194.851L329.851 197.006ZM321.294 185.282C320.198 183.187 319.213 180.989 318.328 178.708L321.125 177.623C321.973 179.811 322.913 181.906 323.952 183.892L321.294 185.282ZM316.039 171.898C315.385 169.636 314.809 167.316 314.304 164.956L317.237 164.328C317.729 166.625 318.288 168.876 318.921 171.064L316.039 171.898ZM313.02 157.936C312.66 155.599 312.359 153.238 312.11 150.867L315.094 150.554C315.338 152.881 315.633 155.194 315.985 157.479L313.02 157.936ZM311.518 143.779C311.367 141.405 311.263 139.035 311.198 136.682L314.197 136.599C314.261 138.919 314.364 141.253 314.512 143.589L311.518 143.779ZM311.115 129.583C311.124 127.177 311.169 124.806 311.243 122.485L314.242 122.58C314.168 124.875 314.124 127.218 314.115 129.594L311.115 129.583ZM311.561 115.41C311.702 112.959 311.87 110.592 312.055 108.33L315.045 108.575C314.862 110.814 314.696 113.157 314.556 115.583L311.561 115.41ZM312.716 101.263C312.987 98.6834 313.268 96.3197 313.539 94.2201L316.514 94.6033C316.247 96.6815 315.968 99.0219 315.7 101.577L312.716 101.263ZM314.536 87.189C314.709 86.0821 314.853 85.2198 314.953 84.6327C315.003 84.3392 315.043 84.1145 315.07 83.9624C315.083 83.8863 315.094 83.8284 315.101 83.7892C315.105 83.7695 315.107 83.7545 315.109 83.7443C315.11 83.7392 315.111 83.7352 315.111 83.7325C315.112 83.7311 315.112 83.73 315.112 83.7292C315.112 83.7288 315.112 83.7285 315.112 83.7283C315.112 83.7281 315.112 83.728 315.112 83.7279C315.112 83.7279 315.112 83.7279 315.112 83.7278C315.112 83.7278 315.112 83.7278 316.587 84C318.062 84.2722 318.062 84.2722 318.062 84.2722C318.062 84.2722 318.062 84.2722 318.062 84.2722C318.062 84.2722 318.062 84.2722 318.062 84.2722C318.062 84.2722 318.062 84.2724 318.062 84.2726C318.062 84.273 318.062 84.2737 318.062 84.2747C318.062 84.2767 318.061 84.2799 318.06 84.2842C318.059 84.2929 318.056 84.3064 318.053 84.3244C318.046 84.3606 318.036 84.4153 318.023 84.4882C317.998 84.6339 317.959 84.8521 317.91 85.1388C317.812 85.7124 317.671 86.5604 317.5 87.6522L314.536 87.189Z" fill="#FA5A28"/>
<path d="M271.637 90.7443C271.496 89.928 270.72 89.3807 269.904 89.5218C269.087 89.663 268.54 90.4392 268.681 91.2555L271.637 90.7443ZM239.582 178.986C239.312 179.769 239.728 180.623 240.512 180.892L253.276 185.287C254.06 185.556 254.913 185.14 255.183 184.357C255.453 183.573 255.036 182.72 254.253 182.45L242.907 178.544L246.813 167.197C247.082 166.414 246.666 165.56 245.883 165.291C245.099 165.021 244.246 165.438 243.976 166.221L239.582 178.986ZM244.894 179.086C245.608 178.667 245.847 177.747 245.428 177.033C245.008 176.319 244.089 176.08 243.374 176.499L244.894 179.086ZM248.992 172.573C248.353 173.1 248.261 174.045 248.788 174.685C249.315 175.324 250.26 175.416 250.9 174.889L248.992 172.573ZM256.169 169.815C256.72 169.197 256.666 168.249 256.048 167.697C255.43 167.146 254.481 167.2 253.93 167.818L256.169 169.815ZM258.128 162.371C257.669 163.06 257.855 163.992 258.545 164.451C259.234 164.91 260.165 164.724 260.625 164.034L258.128 162.371ZM264.269 157.736C264.64 156.995 264.34 156.094 263.599 155.723C262.859 155.352 261.957 155.652 261.586 156.392L264.269 157.736ZM264.352 150.033C264.061 150.808 264.454 151.673 265.23 151.964C266.005 152.255 266.87 151.863 267.161 151.087L264.352 150.033ZM269.388 144.21C269.609 143.411 269.141 142.585 268.342 142.364C267.544 142.144 266.717 142.612 266.497 143.41L269.388 144.21ZM268.093 136.612C267.934 137.425 268.463 138.214 269.276 138.373C270.089 138.532 270.878 138.003 271.037 137.19L268.093 136.612ZM272.184 130.086C272.29 129.264 271.71 128.512 270.888 128.407C270.067 128.301 269.315 128.881 269.209 129.702L272.184 130.086ZM269.902 122.725C269.843 123.551 270.465 124.269 271.292 124.327C272.118 124.386 272.836 123.764 272.894 122.937L269.902 122.725ZM273.217 115.768C273.234 114.94 272.575 114.255 271.747 114.239C270.919 114.223 270.234 114.881 270.218 115.709L273.217 115.768ZM270.19 108.68C270.213 109.508 270.902 110.161 271.73 110.139C272.559 110.116 273.212 109.427 273.189 108.598L270.19 108.68ZM272.832 101.448C272.772 100.622 272.054 100 271.228 100.061C270.401 100.121 269.78 100.839 269.84 101.665L272.832 101.448ZM269.162 94.6621C269.263 95.4843 270.011 96.0688 270.834 95.9675C271.656 95.8662 272.24 95.1175 272.139 94.2953L269.162 94.6621ZM241.658 180.822C242.773 180.278 243.852 179.698 244.894 179.086L243.374 176.499C242.399 177.073 241.389 177.615 240.342 178.126L241.658 180.822ZM250.9 174.889C252.809 173.316 254.562 171.618 256.169 169.815L253.93 167.818C252.421 169.511 250.778 171.102 248.992 172.573L250.9 174.889ZM260.625 164.034C261.973 162.01 263.183 159.903 264.269 157.736L261.586 156.392C260.552 158.457 259.403 160.457 258.128 162.371L260.625 164.034ZM267.161 151.087C268.01 148.825 268.748 146.525 269.388 144.21L266.497 143.41C265.878 145.647 265.167 147.861 264.352 150.033L267.161 151.087ZM271.037 137.19C271.504 134.808 271.882 132.432 272.184 130.086L269.209 129.702C268.914 131.989 268.546 134.3 268.093 136.612L271.037 137.19ZM272.894 122.937C273.069 120.475 273.171 118.075 273.217 115.768L270.218 115.709C270.173 117.969 270.073 120.317 269.902 122.725L272.894 122.937ZM273.189 108.598C273.118 105.996 272.988 103.593 272.832 101.448L269.84 101.665C269.993 103.769 270.121 106.127 270.19 108.68L273.189 108.598ZM272.139 94.2953C272 93.1705 271.876 92.2879 271.786 91.684C271.74 91.3821 271.704 91.1498 271.678 90.9916C271.665 90.9126 271.655 90.852 271.648 90.8106C271.645 90.7899 271.642 90.774 271.64 90.7629C271.639 90.7574 271.639 90.753 271.638 90.7499C271.638 90.7484 271.638 90.7471 271.638 90.7462C271.637 90.7457 271.637 90.7453 271.637 90.745C271.637 90.7448 271.637 90.7447 271.637 90.7446C271.637 90.7445 271.637 90.7445 271.637 90.7444C271.637 90.7444 271.637 90.7443 270.159 90.9999C268.681 91.2555 268.681 91.2554 268.681 91.2554C268.681 91.2554 268.681 91.2553 268.681 91.2553C268.681 91.2552 268.681 91.2552 268.681 91.2552C268.681 91.2552 268.681 91.2553 268.681 91.2554C268.681 91.2557 268.681 91.2563 268.681 91.2572C268.682 91.2589 268.682 91.2619 268.683 91.2661C268.684 91.2746 268.687 91.2878 268.69 91.3058C268.696 91.3418 268.705 91.3968 268.717 91.4702C268.74 91.6172 268.775 91.8379 268.819 92.1278C268.905 92.7078 269.026 93.5647 269.162 94.6621L272.139 94.2953Z" fill="#FA5A28"/>
<defs>
<filter id="filter0_d" x="0" y="134" width="242" height="100" filterUnits="userSpaceOnUse" color-interpolation-filters="sRGB">
<feFlood flood-opacity="0" result="BackgroundImageFix"/>
<feColorMatrix in="SourceAlpha" type="matrix" values="0 0 0 0 0 0 0 0 0 0 0 0 0 0 0 0 0 0 127 0"/>
<feOffset dx="2" dy="3"/>
<feGaussianBlur stdDeviation="7.5"/>
<feColorMatrix type="matrix" values="0 0 0 0 0.392157 0 0 0 0 0.392157 0 0 0 0 0.392157 0 0 0 0.239216 0"/>
<feBlend mode="normal" in2="BackgroundImageFix" result="effect1_dropShadow"/>
<feBlend mode="normal" in="SourceGraphic" in2="effect1_dropShadow" result="shape"/>
</filter>
<filter id="filter1_d" x="319" y="265" width="242" height="100" filterUnits="userSpaceOnUse" color-interpolation-filters="sRGB">
<feFlood flood-opacity="0" result="BackgroundImageFix"/>
<feColorMatrix in="SourceAlpha" type="matrix" values="0 0 0 0 0 0 0 0 0 0 0 0 0 0 0 0 0 0 127 0"/>
<feOffset dx="2" dy="3"/>
<feGaussianBlur stdDeviation="7.5"/>
<feColorMatrix type="matrix" values="0 0 0 0 0.392157 0 0 0 0 0.392157 0 0 0 0 0.392157 0 0 0 0.239216 0"/>
<feBlend mode="normal" in2="BackgroundImageFix" result="effect1_dropShadow"/>
<feBlend mode="normal" in="SourceGraphic" in2="effect1_dropShadow" result="shape"/>
</filter>
<filter id="filter2_d" x="344" y="161" width="176" height="100" filterUnits="userSpaceOnUse" color-interpolation-filters="sRGB">
<feFlood flood-opacity="0" result="BackgroundImageFix"/>
<feColorMatrix in="SourceAlpha" type="matrix" values="0 0 0 0 0 0 0 0 0 0 0 0 0 0 0 0 0 0 127 0"/>
<feOffset dx="2" dy="3"/>
<feGaussianBlur stdDeviation="7.5"/>
<feColorMatrix type="matrix" values="0 0 0 0 0.392157 0 0 0 0 0.392157 0 0 0 0 0.392157 0 0 0 0.239216 0"/>
<feBlend mode="normal" in2="BackgroundImageFix" result="effect1_dropShadow"/>
<feBlend mode="normal" in="SourceGraphic" in2="effect1_dropShadow" result="shape"/>
</filter>
<filter id="filter3_d" x="68" y="251" width="195" height="100" filterUnits="userSpaceOnUse" color-interpolation-filters="sRGB">
<feFlood flood-opacity="0" result="BackgroundImageFix"/>
<feColorMatrix in="SourceAlpha" type="matrix" values="0 0 0 0 0 0 0 0 0 0 0 0 0 0 0 0 0 0 127 0"/>
<feOffset dx="2" dy="3"/>
<feGaussianBlur stdDeviation="7.5"/>
<feColorMatrix type="matrix" values="0 0 0 0 0.392157 0 0 0 0 0.392157 0 0 0 0 0.392157 0 0 0 0.239216 0"/>
<feBlend mode="normal" in2="BackgroundImageFix" result="effect1_dropShadow"/>
<feBlend mode="normal" in="SourceGraphic" in2="effect1_dropShadow" result="shape"/>
</filter>
</defs>
</svg>
