<svg width="29" height="29" viewBox="0 0 29 29" fill="none" xmlns="http://www.w3.org/2000/svg">
<path d="M22.2559 13.4883H20.4046C20.249 12.6825 19.9325 11.9164 19.4739 11.2358L20.7823 9.93078L19.0692 8.21775L17.7642 9.52613C17.0836 9.06752 16.3175 8.75097 15.5117 8.59543V6.74414H13.4884V8.59543C12.6826 8.75097 11.9164 9.06752 11.2358 9.52613L9.93084 8.21775L8.21781 9.93078L9.52619 11.2358C9.06759 11.9164 8.75103 12.6825 8.59549 13.4883H6.7442V15.5116H8.59549C8.75103 16.3174 9.06759 17.0836 9.52619 17.7642L8.21781 19.0692L9.93084 20.7822L11.2358 19.4738C11.9164 19.9324 12.6826 20.249 13.4884 20.4045V22.2558H15.5117V20.4045C16.3175 20.249 17.0836 19.9324 17.7642 19.4738L19.0692 20.7822L20.7823 19.0692L19.4739 17.7642C19.9325 17.0836 20.249 16.3174 20.4046 15.5116H22.2559V13.4883Z" stroke="#7B39D9" stroke-linecap="round" stroke-linejoin="round"/>
<path fill-rule="evenodd" clip-rule="evenodd" d="M14.5 17.535C12.8239 17.535 11.4651 16.1762 11.4651 14.5001C11.4651 12.824 12.8239 11.4652 14.5 11.4652C16.1762 11.4652 17.5349 12.824 17.5349 14.5001C17.5349 16.1762 16.1762 17.535 14.5 17.535Z" stroke="#7B39D9" stroke-linecap="round" stroke-linejoin="round"/>
<path d="M14.345 25.6204L14.5001 25.5308L14.6552 25.6204L15.7523 26.2538V27.6997L14.5001 28.4227L13.2479 27.6997V26.2538L14.345 25.6204Z" stroke="#7B39D9"/>
<path d="M6.55395 22.1127L6.72694 22.1591L6.7733 22.332L7.10117 23.5557L6.07876 24.5781L4.68212 24.2039L4.30789 22.8072L5.3303 21.7848L6.55395 22.1127Z" stroke="#7B39D9"/>
<path d="M6.21673 6.43613L6.38972 6.38977L6.43608 6.21678L6.76395 4.99313L5.74154 3.97072L4.3449 4.34494L3.97067 5.74159L4.99308 6.764L6.21673 6.43613Z" stroke="#7B39D9"/>
<path d="M3.37961 14.7214L3.46916 14.5663L3.37961 14.4112L2.74621 13.3141L1.30029 13.3141L0.577338 14.5663L1.30029 15.8185L2.74621 15.8185L3.37961 14.7214Z" stroke="#7B39D9"/>
<path d="M25.6204 14.7214L25.5308 14.5663L25.6204 14.4112L26.2538 13.3141L27.6997 13.3141L28.4227 14.5663L27.6997 15.8185L26.2538 15.8185L25.6204 14.7214Z" stroke="#7B39D9"/>
<path d="M22.6694 22.1127L22.4964 22.1591L22.45 22.332L22.1222 23.5557L23.1446 24.5781L24.5412 24.2039L24.9154 22.8072L23.893 21.7848L22.6694 22.1127Z" stroke="#7B39D9"/>
<path d="M22.6694 6.77341L22.4964 6.72705L22.45 6.55406L22.1222 5.33041L23.1446 4.308L24.5412 4.68223L24.9154 6.07887L23.893 7.10128L22.6694 6.77341Z" stroke="#7B39D9"/>
<path d="M14.345 3.37961L14.5001 3.46916L14.6552 3.37961L15.7523 2.74621V1.30029L14.5001 0.577338L13.2479 1.30029V2.74621L14.345 3.37961Z" stroke="#7B39D9"/>
</svg>
