<svg width="27" height="30" viewBox="0 0 27 30" fill="none" xmlns="http://www.w3.org/2000/svg">
<path d="M2.30866 8.59343L13.5 2.18339L24.6913 8.59343V21.4066L13.5 27.8167L2.30866 21.4066V8.59343Z" stroke="#7B39D9"/>
<path d="M2.67815 21.1965L13.5 2.60123L24.3218 21.1965H2.67815Z" stroke="#7B39D9"/>
<path d="M4.9 21.4286C4.9 22.628 3.91879 23.6071 2.7 23.6071C1.48121 23.6071 0.5 22.628 0.5 21.4286C0.5 20.2291 1.48121 19.25 2.7 19.25C3.91879 19.25 4.9 20.2291 4.9 21.4286Z" fill="white" stroke="#7B39D9"/>
<path d="M4.9 9.10716C4.9 10.3066 3.91879 11.2857 2.7 11.2857C1.48121 11.2857 0.5 10.3066 0.5 9.10716C0.5 7.90772 1.48121 6.92859 2.7 6.92859C3.91879 6.92859 4.9 7.90772 4.9 9.10716Z" fill="white" stroke="#7B39D9"/>
<path d="M26.5 21.4286C26.5 22.628 25.5188 23.6071 24.3 23.6071C23.0812 23.6071 22.1 22.628 22.1 21.4286C22.1 20.2291 23.0812 19.25 24.3 19.25C25.5188 19.25 26.5 20.2291 26.5 21.4286Z" fill="white" stroke="#7B39D9"/>
<path d="M15.7 27.3214C15.7 28.5208 14.7188 29.5 13.5 29.5C12.2813 29.5 11.3 28.5208 11.3 27.3214C11.3 26.122 12.2813 25.1428 13.5 25.1428C14.7188 25.1428 15.7 26.122 15.7 27.3214Z" fill="white" stroke="#7B39D9"/>
<path d="M15.7 2.67857C15.7 3.87801 14.7188 4.85714 13.5 4.85714C12.2813 4.85714 11.3 3.87801 11.3 2.67857C11.3 1.47913 12.2813 0.5 13.5 0.5C14.7188 0.5 15.7 1.47913 15.7 2.67857Z" fill="white" stroke="#7B39D9"/>
<path d="M26.5 9.10716C26.5 10.3066 25.5188 11.2857 24.3 11.2857C23.0812 11.2857 22.1 10.3066 22.1 9.10716C22.1 7.90772 23.0812 6.92859 24.3 6.92859C25.5188 6.92859 26.5 7.90772 26.5 9.10716Z" fill="white" stroke="#7B39D9"/>
</svg>
