<svg width="40" height="40" viewBox="0 0 40 40" fill="none" xmlns="http://www.w3.org/2000/svg">
<path fill-rule="evenodd" clip-rule="evenodd" d="M8.07984 33.311C5.08932 31.3116 2.75881 28.4703 1.38296 25.1465C0.00711489 21.8227 -0.352283 18.1656 0.350218 14.6375C1.05272 11.1094 2.78557 7.86888 5.32966 5.32559C7.87376 2.7823 11.1149 1.05048 14.6431 0.349096C18.1714 -0.352288 21.8285 0.00826263 25.1518 1.38516C28.4752 2.76206 31.3157 5.09347 33.3142 8.08462C35.3126 11.0758 36.3793 14.5923 36.3793 18.1896C36.3737 23.0131 34.4547 27.6373 31.0434 31.0475C27.6322 34.4577 23.0074 36.3752 18.1839 36.3793C14.5866 36.3781 11.0703 35.3104 8.07984 33.311ZM8.62664 3.88623C5.79769 5.77647 3.5928 8.46315 2.29078 11.6065C0.988756 14.7499 0.648092 18.2087 1.31186 21.5457C1.97562 24.8827 3.614 27.9479 6.01982 30.3537C8.42564 32.7595 11.4909 34.3979 14.8278 35.0617C18.1648 35.7254 21.6237 35.3848 24.767 34.0827C27.9104 32.7807 30.597 30.5758 32.4873 27.7469C34.3775 24.9179 35.3865 21.592 35.3865 18.1896C35.3814 13.6288 33.5673 9.25621 30.3423 6.0312C27.1173 2.80619 22.7447 0.992155 18.1839 0.987072V0.987072C14.7815 0.987072 11.4556 1.99599 8.62664 3.88623Z" fill="#6A6E7C"/>
<path d="M11.5219 28.2877C10.0615 25.1625 9.32049 21.7497 9.35347 18.3003C9.38645 14.8509 10.1926 11.4529 11.7125 8.35626C13.2324 5.25963 15.4274 2.54327 18.1359 0.407135L18.7466 1.17528C16.1542 3.22013 14.0533 5.82026 12.5985 8.78432C11.1437 11.7484 10.3721 15.0009 10.3404 18.3026C10.3087 21.6043 11.0178 24.871 12.4154 27.8624C13.813 30.8539 15.8636 33.4939 18.4163 35.5881L17.7922 36.3582C15.125 34.1706 12.9823 31.4128 11.5219 28.2877Z" fill="#6A6E7C"/>
<path d="M18.1168 35.5902C20.6693 33.4958 22.7198 30.8558 24.1173 27.8642C25.5147 24.8727 26.2236 21.6059 26.1917 18.3043C26.1598 15.0026 25.388 11.7501 23.9331 8.78611C22.4781 5.82213 20.3771 3.22212 17.7845 1.17741L18.3971 0.409271C21.1055 2.54547 23.3004 5.26178 24.8202 8.35831C26.3401 11.4548 27.1463 14.8528 27.1794 18.302C27.2126 21.7513 26.4719 25.164 25.0118 28.2892C23.5518 31.4144 21.4096 34.1724 18.7428 36.3603V36.3584L18.1168 35.5902Z" fill="#6A6E7C"/>
<path fill-rule="evenodd" clip-rule="evenodd" d="M18.6774 0.495422V35.8838H17.6903V0.495422H18.6774Z" fill="#6A6E7C"/>
<path fill-rule="evenodd" clip-rule="evenodd" d="M35.8704 17.6963V18.6833H0.497437V17.6963H35.8704Z" fill="#6A6E7C"/>
<path d="M4.77161 7.43448L5.44902 6.58386C5.49392 6.63099 9.97621 11.2342 18.2165 11.2342C26.4958 11.2342 31.1694 6.87563 31.2163 6.83074L31.8566 7.72849C31.6555 7.91028 26.8531 12.3878 18.2165 12.3878C9.56429 12.3878 4.96292 7.63647 4.77161 7.43448Z" fill="#6A6E7C"/>
<path d="M4.95837 29.9733C5.15041 29.8005 9.67285 25.7332 18.1839 25.7332C26.6949 25.7332 31.4036 29.5739 31.6014 29.7294L30.9715 30.4976C30.9274 30.4592 26.3031 26.7279 18.1839 26.7279C13.9591 26.7279 10.7617 27.8091 8.83365 28.7174C6.74046 29.693 5.63625 30.6915 5.62473 30.7011L4.95837 29.9733Z" fill="#6A6E7C"/>
<rect x="18.5366" y="18.5366" width="21.4634" height="20.4878" fill="white"/>
<path d="M24.6529 34.1463L23.4147 34.8279L29.2683 38.0488L35.122 34.8279L33.8837 34.1463" fill="white"/>
<path d="M24.6529 34.1463L23.4147 34.8279L29.2683 38.0488L35.122 34.8279L33.8837 34.1463" stroke="#6A6E7C"/>
<path d="M35.4221 29.2683L37.0731 30.2903L29.2683 35.1219L21.4634 30.2903L23.1144 29.2683" fill="white"/>
<path d="M35.4221 29.2683L37.0731 30.2903L29.2683 35.1219L21.4634 30.2903L23.1144 29.2683" stroke="#FA5A28"/>
<path d="M38.242 26.4848L29.6778 21.0597L21.1136 26.4848L29.6778 31.9102L38.242 26.4848Z" fill="white" stroke="#6A6E7C"/>
</svg>
