<svg width="32" height="35" viewBox="0 0 32 35" fill="none" xmlns="http://www.w3.org/2000/svg">
<path d="M30.8606 6.00443C30.6829 17.4544 26.6245 27.6614 15.8873 34.2705C15.7373 34.3628 15.5471 34.3639 15.3986 34.2752C6.05055 28.6965 0.383854 19.152 0.501805 5.95406C0.503714 5.74052 0.647941 5.54913 0.85956 5.48766C2.22552 5.09087 5.29968 4.18269 7.47413 3.42502C8.66106 3.01144 9.75196 2.50259 10.7569 2.03382C11.15 1.85046 11.53 1.67323 11.8974 1.51023C13.2293 0.919351 14.4204 0.502043 15.6479 0.500007C16.8875 0.497952 18.1942 0.93556 19.5809 1.53714C20.0875 1.75693 20.6139 2.00343 21.1484 2.25371C22.0306 2.66677 22.9347 3.09009 23.8075 3.42048C26.6237 4.48645 29.2166 5.19166 30.4671 5.50743C30.7053 5.56757 30.8641 5.77786 30.8606 6.00443Z" fill="white" stroke="#6A6E7C"/>
<path d="M20.5 13.5C20.5 16.3073 18.4415 18.5 16 18.5C13.5585 18.5 11.5 16.3073 11.5 13.5C11.5 10.6927 13.5585 8.5 16 8.5C18.4415 8.5 20.5 10.6927 20.5 13.5Z" stroke="#FA5A28"/>
<rect x="9.5" y="14.5" width="13" height="7" fill="white" stroke="#FA5A28"/>
</svg>
