<svg width="40" height="40" viewBox="0 0 40 40" fill="none" xmlns="http://www.w3.org/2000/svg">
<rect width="40" height="40" rx="4" fill="#3F444F"/>
<path fill-rule="evenodd" clip-rule="evenodd" d="M19.9602 7C12.8043 7 7 12.9661 7 20.3216C7 26.206 10.737 31.1914 15.8257 32.9894C16.4618 33.0712 16.7003 32.6625 16.7003 32.3356C16.7003 32.0087 16.7003 31.1914 16.7003 30.0472C13.1223 30.8645 12.3272 28.2492 12.3272 28.2492C11.7706 26.6964 10.896 26.2878 10.896 26.2878C9.70336 25.4705 10.9755 25.4705 10.9755 25.4705C12.2477 25.5522 12.9633 26.8598 12.9633 26.8598C14.156 28.903 15.9847 28.3309 16.7003 28.004C16.7798 27.105 17.1774 26.5329 17.4954 26.206C14.633 25.8791 11.6116 24.7349 11.6116 19.5861C11.6116 18.115 12.0887 16.9708 12.9633 15.9901C12.8043 15.6631 12.4067 14.2738 13.1223 12.4758C13.1223 12.4758 14.2355 12.1488 16.7003 13.8651C17.7339 13.5382 18.8471 13.4565 19.9602 13.4565C21.0734 13.4565 22.1865 13.6199 23.2202 13.8651C25.685 12.1488 26.7982 12.4758 26.7982 12.4758C27.5138 14.2738 27.0367 15.6631 26.9572 15.9901C27.7523 16.8891 28.3089 18.115 28.3089 19.5861C28.3089 24.7349 25.2875 25.7974 22.4251 26.1243C22.9021 26.5329 23.2997 27.3502 23.2997 28.5761C23.2997 30.3741 23.2997 31.7635 23.2997 32.2539C23.2997 32.5808 23.5382 32.9894 24.1743 32.9077C29.3425 31.1097 33 26.1243 33 20.2399C32.9205 12.9661 27.1162 7 19.9602 7Z" fill="white"/>
</svg>
