<svg width="40" height="40" viewBox="0 0 40 40" fill="none" xmlns="http://www.w3.org/2000/svg">
<rect width="40" height="40" rx="4" fill="#3F444F"/>
<path d="M20 32C26.6274 32 32 26.6274 32 20C32 13.3726 26.6274 8 20 8C13.3726 8 8 13.3726 8 20C8 26.6274 13.3726 32 20 32Z" fill="white"/>
<path d="M26.4 15.7004C25.95 15.9504 25.4 16.1004 24.9 16.1504C25.45 15.8004 25.85 15.2504 26.05 14.6004C25.55 14.9004 25 15.1504 24.35 15.3004C23.85 14.7504 23.2 14.4004 22.45 14.4004C21 14.4004 19.8 15.6504 19.8 17.2504C19.8 17.4504 19.8 17.7004 19.85 17.9004C17.65 17.8004 15.7 16.6504 14.4 14.9504C14.15 15.3504 14.05 15.8504 14.05 16.4004C14.05 17.4004 14.5 18.2504 15.2 18.7504C14.75 18.7504 14.35 18.6004 14 18.4004V18.4504C14 19.8004 14.9 20.9504 16.1 21.2504C15.9 21.3004 15.65 21.3504 15.4 21.3504C15.25 21.3504 15.05 21.3504 14.9 21.3004C15.25 22.4504 16.2 23.2504 17.35 23.2504C16.45 24.0004 15.3 24.4504 14.1 24.4504C13.9 24.4504 13.7 24.4504 13.45 24.4004C14.6 25.2004 16 25.7004 17.5 25.7004C22.35 25.7004 25 21.4004 25 17.6504C25 17.5504 25 17.4004 25 17.3004C25.6 16.8004 26.05 16.3004 26.4 15.7004Z" fill="#3F444F"/>
</svg>
