<svg width="40" height="40" viewBox="0 0 40 40" fill="none" xmlns="http://www.w3.org/2000/svg">
<rect width="40" height="40" rx="4" fill="#3F444F"/>
<path d="M20 8C13.35 8 8 13.35 8 20C8 26.65 13.35 32 20 32C26.65 32 32 26.65 32 20C32 13.35 26.65 8 20 8Z" fill="white"/>
<path d="M27.35 17C27.35 17 27.2 15.95 26.75 15.5C26.2 14.9 25.55 14.9 25.25 14.85C23.15 14.75 20 14.75 20 14.75C20 14.75 16.85 14.75 14.75 14.9C14.45 14.95 13.8 14.95 13.25 15.55C12.8 16 12.65 17.05 12.65 17.05C12.65 17.05 12.5 18.05 12.5 19.25V20.75C12.5 21.95 12.65 23 12.65 23C12.65 23 12.8 24.05 13.25 24.5C13.8 25.1 14.55 25.1 14.9 25.15C16.1 25.25 20 25.25 20 25.25C20 25.25 23.15 25.3 25.25 25.15C25.55 25.1 26.2 25.1 26.75 24.5C27.2 24.05 27.35 23 27.35 23C27.35 23 27.5 21.95 27.5 20.75V19.25C27.5 18.05 27.35 17 27.35 17ZM18 22V18L22 20L18 22Z" fill="#3F444F"/>
</svg>
