<svg width="301" height="254" viewBox="0 0 301 254" fill="none" xmlns="http://www.w3.org/2000/svg">
<path fill-rule="evenodd" clip-rule="evenodd" d="M131.211 30.274C131.211 35.6101 127.005 39.9359 121.816 39.9359C116.628 39.9359 112.422 35.6101 112.422 30.274C112.422 24.9378 116.628 20.6121 121.816 20.6121C127.005 20.6121 131.211 24.9378 131.211 30.274Z" fill="#F2F2F2"/>
<path fill-rule="evenodd" clip-rule="evenodd" d="M146.242 52.8185V52.3473C146.242 50.1651 146.994 48.3024 148.499 46.7594C150.003 45.2163 151.818 44.4448 153.946 44.4448H206.18C208.307 44.4448 210.123 45.2163 211.627 46.7594C213.131 48.3024 213.883 50.1651 213.883 52.3473V53.2897C213.883 55.4719 213.131 57.3345 211.627 58.8775C210.123 60.4206 208.307 61.1921 206.18 61.1921H153.946C151.818 61.1921 150.003 60.4206 148.499 58.8775C146.994 57.3345 146.242 55.4719 146.242 53.2897V52.8185Z" fill="#F2F2F2"/>
<path fill-rule="evenodd" clip-rule="evenodd" d="M263.988 175.518C263.991 181.379 260.636 186.666 255.487 188.912C250.338 191.157 244.41 189.919 240.468 185.774C236.526 181.629 235.346 175.394 237.48 169.978C239.613 164.561 244.639 161.03 250.213 161.032C253.866 161.031 257.37 162.557 259.953 165.274C262.536 167.991 263.988 171.676 263.988 175.518L263.988 175.518Z" fill="#F2F2F2"/>
<path fill-rule="evenodd" clip-rule="evenodd" d="M300.94 200.328C300.937 207.086 295.609 212.563 289.037 212.562C282.466 212.56 277.14 207.081 277.14 200.322C277.141 193.564 282.468 188.085 289.039 188.085C292.196 188.085 295.224 189.375 297.456 191.671C299.688 193.967 300.941 197.082 300.94 200.328Z" fill="#F2F2F2"/>
<path fill-rule="evenodd" clip-rule="evenodd" d="M232.881 146.861L232.754 146.238C259.151 140.271 279.144 117.984 282.85 90.3935C286.557 62.8035 273.191 35.7554 249.361 22.6205C225.53 9.48568 196.283 13.0465 176.077 31.5427L175.679 31.0819C196.076 12.433 225.585 8.85354 249.626 22.1121C273.666 35.3707 287.149 62.6606 283.413 90.498C279.676 118.335 259.511 140.827 232.881 146.861H232.881Z" fill="#F94F24"/>
<path fill-rule="evenodd" clip-rule="evenodd" d="M31.5547 203.544C14.5776 203.303 0.939603 189.243 0.939575 171.982C0.939547 154.721 14.5775 140.661 31.5546 140.42C38.3773 140.397 45.0134 142.683 50.4177 146.917L50.0532 147.411C44.7533 143.259 38.2456 141.017 31.5547 141.037C14.9115 141.277 1.54295 155.061 1.54296 171.982C1.54297 188.903 14.9115 202.687 31.5547 202.926C36.3385 202.938 41.0558 201.788 45.3146 199.573L45.5941 200.129C41.2468 202.383 36.4346 203.553 31.5547 203.544Z" fill="#F94F24"/>
<path fill-rule="evenodd" clip-rule="evenodd" d="M166.902 0L8.10681 235.677L292.171 251.854L166.902 0Z" fill="#F3F3F3"/>
<path fill-rule="evenodd" clip-rule="evenodd" d="M51.7857 220.671L54.0476 223.512H64.3262L66.5866 220.671C74.7081 198.694 43.6633 198.694 51.7857 220.671Z" fill="#AABD46"/>
<path fill-rule="evenodd" clip-rule="evenodd" d="M68.0474 218.775H50.6816C50.0799 218.775 49.5885 219.27 49.5885 219.877V224.886C49.5885 225.495 50.0799 225.99 50.6816 225.99H68.0474C68.6498 225.99 69.1405 225.495 69.1405 224.886V219.877C69.1405 219.27 68.6498 218.775 68.0474 218.775Z" fill="#A36E4E"/>
<path fill-rule="evenodd" clip-rule="evenodd" d="M65.1569 222.849H53.572L50.5476 225.99L53.0178 236.943H59.3645H65.7103L68.1821 225.99L65.1569 222.849Z" fill="#A36E4E"/>
<path fill-rule="evenodd" clip-rule="evenodd" d="M50.5476 225.99L51.0551 228.151H67.6738L68.1821 225.99H50.5476Z" fill="#794C34"/>
<path fill-rule="evenodd" clip-rule="evenodd" d="M193.923 160.909L191.18 140.367C191.18 133.8 181.234 129.692 181.234 129.692L158.931 122.451L144.526 123.041V122.993L134.186 122.262L111.89 129.503C111.89 129.503 101.938 133.612 101.938 140.161L99.1943 160.703L109.604 241.547L179.123 241.547L193.923 160.909Z" fill="url(#paint0_linear)"/>
<mask id="mask0" mask-type="alpha" maskUnits="userSpaceOnUse" x="99" y="122" width="95" height="120">
<path fill-rule="evenodd" clip-rule="evenodd" d="M193.923 160.909L191.18 140.367C191.18 133.8 181.234 129.692 181.234 129.692L158.931 122.451L144.526 123.041V122.993L134.186 122.262L111.89 129.503C111.89 129.503 101.938 133.612 101.938 140.161L99.1943 160.703L109.604 241.547L179.123 241.547L193.923 160.909Z" fill="white"/>
</mask>
<g mask="url(#mask0)">
<rect x="78.6014" y="211.917" width="129.019" height="51.5301" fill="#7B39D9"/>
</g>
<path fill-rule="evenodd" clip-rule="evenodd" d="M134.756 110.693L132.188 128.484C132.188 128.484 136.309 133.824 146.092 133.824C155.875 133.824 159.958 127.795 159.958 127.795L157.547 110.693L134.756 110.693Z" fill="#FFA881"/>
<path fill-rule="evenodd" clip-rule="evenodd" d="M162.182 76.9409C162.47 77.2372 173.073 82.7381 165.376 100.181C165.376 100.181 166.366 91.7429 157.804 85.044C149.242 78.3451 162.182 76.9409 162.182 76.9409Z" fill="#7A4E0D"/>
<path fill-rule="evenodd" clip-rule="evenodd" d="M134.198 117.785C137.066 121.785 141.592 124.17 146.424 124.226C151.127 124.268 155.527 121.839 158.092 117.785L159.476 127.589C159.476 127.589 141.821 135.163 134.198 117.785Z" fill="#FF9B6E"/>
<path fill-rule="evenodd" clip-rule="evenodd" d="M165.783 98.2163C165.783 114.158 156.958 128.722 146.073 128.722C135.188 128.722 126.37 114.158 126.37 98.2163C126.37 82.2742 135.188 77.6042 146.073 77.6042C156.958 77.6042 165.783 82.2806 165.783 98.2163Z" fill="#FFC1A6"/>
<path fill-rule="evenodd" clip-rule="evenodd" d="M126.771 104.046C126.771 104.046 119.311 92.1101 127.842 85.0247C127.842 85.0247 125.8 76.6188 135.821 72.9216C145.842 69.2243 152.65 75.6205 156.927 75.6205C161.205 75.6205 163.347 73.3209 163.347 73.3209C163.347 73.3209 165.295 72.5158 165.295 74.4224C165.295 76.329 163.516 94.5256 148.56 94.5256C134.556 94.5256 131.65 87.9168 131.65 87.9168C131.65 87.9168 127.159 92.7091 126.771 104.046Z" fill="#7A4E0D"/>
<path fill-rule="evenodd" clip-rule="evenodd" d="M131.637 87.8975C131.637 87.8975 135.915 94.0424 146.618 94.0424C157.322 94.0424 162.614 85.0247 162.614 85.0247C162.614 85.0247 160.817 97.5336 146.518 97.5336C133.973 97.5078 131.637 87.8975 131.637 87.8975Z" fill="#FFA881"/>
<path fill-rule="evenodd" clip-rule="evenodd" d="M127.353 104.046C127.353 104.046 126.1 99.7109 122.781 101.914C119.462 104.117 122.587 112.22 129.67 113.218C136.754 114.217 127.353 104.046 127.353 104.046Z" fill="#FFC1A6"/>
<path fill-rule="evenodd" clip-rule="evenodd" d="M164.837 104.046C164.837 104.046 166.09 99.7109 169.409 101.914C172.729 104.117 169.603 112.22 162.52 113.218C155.436 114.217 164.837 104.046 164.837 104.046Z" fill="#FFC1A6"/>
<path fill-rule="evenodd" clip-rule="evenodd" d="M131.637 84.6063C131.637 84.6063 135.764 92.426 147.126 92.426C158.487 92.426 164.123 80.5998 164.123 76.0007C164.123 76.0007 158.387 93.9075 138.833 84.2133C138.833 84.2133 134.449 81.5016 133.096 81.5016C130.585 81.5016 131.637 84.6063 131.637 84.6063Z" fill="#6D4400"/>
<path fill-rule="evenodd" clip-rule="evenodd" d="M47.9462 244.125H241.406C243.837 244.125 245.825 246.299 245.825 248.954C245.825 251.614 243.836 253.786 241.406 253.786H47.9462C45.5171 253.786 43.5284 251.613 43.5284 248.954C43.5284 246.299 45.5171 244.125 47.9462 244.125Z" fill="#DDB331"/>
<path fill-rule="evenodd" clip-rule="evenodd" d="M38.5174 237.039H250.834C253.935 237.039 256.472 239.791 256.472 243.159C256.472 246.523 253.935 249.277 250.834 249.277H38.5174C35.418 249.277 32.8812 246.526 32.8812 243.159C32.8812 239.791 35.4172 237.039 38.5174 237.039Z" fill="#EFC542"/>
<path fill-rule="evenodd" clip-rule="evenodd" d="M237.478 205.551C237.965 206.15 242.837 208.836 242.837 208.836L240.999 234.29C240.999 234.29 240.946 236.983 237.875 236.987C234.804 236.991 232.902 236.994 232.902 236.994C232.902 236.994 231.001 236.996 227.93 237C224.858 237.004 224.812 234.311 224.812 234.311L223.042 208.862C223.042 208.862 227.921 206.164 228.409 205.563L237.478 205.551Z" fill="white"/>
<path fill-rule="evenodd" clip-rule="evenodd" d="M242.398 214.263L223.465 214.288C223.276 214.288 223.114 214.359 222.986 214.496C222.857 214.634 222.797 214.801 222.81 214.988L223.924 230.981C223.948 231.325 224.231 231.589 224.576 231.588L241.241 231.566C241.586 231.566 241.872 231.302 241.896 230.957L243.051 214.961C243.064 214.774 243.006 214.607 242.878 214.469C242.75 214.333 242.588 214.263 242.398 214.263Z" fill="#00CCB0"/>
<path fill-rule="evenodd" clip-rule="evenodd" d="M239.812 203.825L226.079 203.843C224.41 203.845 223.044 205.207 223.042 206.872C223.04 208.537 224.402 209.897 226.071 209.895L239.804 209.877C241.472 209.875 242.838 208.511 242.841 206.846C242.843 205.18 241.48 203.823 239.812 203.825Z" fill="white"/>
<path fill-rule="evenodd" clip-rule="evenodd" d="M243.239 206.837L222.645 206.865C221.708 206.866 220.941 207.632 220.94 208.566C220.938 209.501 221.704 210.264 222.641 210.263L243.234 210.235C244.171 210.234 244.938 209.47 244.94 208.534C244.941 207.6 244.176 206.836 243.239 206.837Z" fill="#00CCB0"/>
<path fill-rule="evenodd" clip-rule="evenodd" d="M135.392 103.205C135.392 103.205 132.863 105.232 130.302 108.025C127.74 110.817 124.477 113.654 124.217 118.064C123.957 122.474 125.191 125.023 124.915 126.972C124.64 128.921 123.66 133.264 123.66 133.264L132.098 134.913C132.098 134.913 132.519 132.804 133.432 131.479C134.345 130.154 135.514 127.452 136.1 124.95C136.686 122.448 138.14 119.222 139.091 117.446C140.043 115.671 143.143 111.21 143.286 110.379C143.428 109.548 143.389 109.198 142.677 108.726C141.964 108.254 141.499 108.619 141.273 108.814C141.047 109.01 140.112 109.804 140.208 109.821C140.304 109.838 142 106.889 142.185 105.808C142.371 104.727 141.932 104.391 141.466 104.221C140.999 104.05 140.394 104.112 140.394 104.112C140.394 104.112 141.074 103.035 140.265 102.546C139.457 102.056 139.029 102.236 138.698 102.433C138.367 102.63 137.052 103.934 137.052 103.934C137.052 103.934 136.863 103.3 136.19 103.178C135.517 103.056 135.392 103.205 135.392 103.205Z" fill="#FFA881"/>
<path fill-rule="evenodd" clip-rule="evenodd" d="M134.583 130.581L123.658 128.486C123.658 128.486 123.032 128.091 122.632 130.423C122.232 132.756 120.838 139.031 120.215 140.808C119.593 142.584 118.599 146.527 118.599 146.527L135.298 147.191C135.298 147.191 134.006 135.034 134.128 133.782C134.25 132.53 134.583 130.581 134.583 130.581Z" fill="#6020BB"/>
<path fill-rule="evenodd" clip-rule="evenodd" d="M156.691 103.503C156.691 103.503 159.32 105.391 162.02 108.042C164.72 110.693 168.123 113.35 168.608 117.74C169.092 122.13 167.99 124.741 168.364 126.673C168.738 128.604 169.937 132.889 169.937 132.889L161.594 134.99C161.594 134.99 161.067 132.907 160.088 131.633C159.109 130.358 157.804 127.723 157.091 125.256C156.379 122.789 154.762 119.646 153.722 117.924C152.682 116.202 149.359 111.914 149.174 111.092C148.989 110.269 149.011 109.918 149.698 109.408C150.385 108.898 150.869 109.238 151.104 109.421C151.339 109.604 152.314 110.346 152.219 110.369C152.124 110.391 150.28 107.537 150.04 106.468C149.8 105.399 150.221 105.039 150.678 104.844C151.135 104.649 151.743 104.678 151.743 104.678C151.743 104.678 151.009 103.639 151.791 103.107C152.574 102.574 153.01 102.731 153.351 102.91C153.692 103.089 155.071 104.321 155.071 104.321C155.071 104.321 155.227 103.677 155.893 103.519C156.559 103.361 156.691 103.503 156.691 103.503Z" fill="#FFA881"/>
<path fill-rule="evenodd" clip-rule="evenodd" d="M159.595 130.674L170.398 127.993C170.398 127.993 171.003 127.565 171.521 129.873C172.039 132.181 173.751 138.372 174.463 140.113C175.175 141.854 176.369 145.737 176.369 145.737L160.472 147.514C160.472 147.514 160.397 135.089 160.212 133.845C160.027 132.602 159.595 130.674 159.595 130.674Z" fill="#6020BB"/>
<path fill-rule="evenodd" clip-rule="evenodd" d="M180.557 237.039H107.544C105.049 237.039 103.027 235.02 103.027 232.53C103.027 230.039 105.049 228.021 107.544 228.021H180.557C183.051 228.021 185.073 230.039 185.073 232.53C185.073 235.02 183.051 237.039 180.557 237.039Z" fill="#B3B3B3"/>
<rect x="123.069" y="228.021" width="44.4676" height="2.57649" fill="#A6A6A6"/>
<path fill-rule="evenodd" clip-rule="evenodd" d="M199.707 219.903H92.7773C88.6156 219.903 85.241 216.422 85.241 212.128V153.091C85.241 148.798 88.6149 145.316 92.7773 145.316H199.708C203.87 145.316 207.244 148.797 207.244 153.091V212.128C207.244 216.422 203.87 219.903 199.707 219.903Z" fill="#A6A6A6"/>
<mask id="mask1" mask-type="alpha" maskUnits="userSpaceOnUse" x="85" y="145" width="123" height="75">
<path fill-rule="evenodd" clip-rule="evenodd" d="M199.707 219.903H92.7773C88.6156 219.903 85.241 216.422 85.241 212.128V153.091C85.241 148.798 88.6149 145.316 92.7773 145.316H199.708C203.87 145.316 207.244 148.797 207.244 153.091V212.128C207.244 216.422 203.87 219.903 199.707 219.903Z" fill="white"/>
</mask>
<g mask="url(#mask1)">
<path fill-rule="evenodd" clip-rule="evenodd" d="M215.904 128.613C215.904 128.613 166.953 217.184 72.8147 216.407V225.73H206.867L215.904 128.613Z" fill="#999999"/>
</g>
<path fill-rule="evenodd" clip-rule="evenodd" d="M185.073 208.536H103.654L143.861 206.121L185.073 208.536Z" fill="#8A8A8A"/>
<path fill-rule="evenodd" clip-rule="evenodd" d="M152.516 236.652H136.211C132.412 236.652 129.333 233.485 129.333 229.578L133.091 194.258C133.091 190.351 136.171 187.184 139.969 187.184H148.007C151.806 187.184 154.885 190.352 154.885 194.258L159.395 229.578C159.395 233.485 156.315 236.652 152.516 236.652Z" fill="#EEEEEE"/>
<path fill-rule="evenodd" clip-rule="evenodd" d="M139.353 172.948C139.353 169.924 141.736 167.473 144.676 167.473C147.617 167.473 150 169.924 150 172.948C150 175.972 147.617 178.423 144.676 178.423C141.736 178.423 139.353 175.972 139.353 172.948Z" fill="#999999"/>
<path fill-rule="evenodd" clip-rule="evenodd" d="M234.819 206.577L233.879 205.29C234.022 205.18 237.413 202.352 233.672 195.615C231.902 192.431 231.325 189.73 231.962 187.591C232.274 186.449 233.008 185.479 234.006 184.886L234.696 186.329L234.349 185.607L234.704 186.325C234.076 186.731 233.624 187.371 233.444 188.111C232.97 189.779 233.516 192.099 235.038 194.816C239.489 202.844 235.01 206.429 234.819 206.577Z" fill="white"/>
<path fill-rule="evenodd" clip-rule="evenodd" d="M227.894 206.577L226.957 205.29C227.097 205.18 230.492 202.352 226.746 195.615C224.977 192.431 224.403 189.73 225.041 187.591C225.349 186.449 226.082 185.477 227.081 184.886L227.77 186.329L227.424 185.607L227.778 186.325C227.151 186.732 226.701 187.372 226.519 188.111C226.045 189.779 226.595 192.099 228.113 194.816C232.564 202.844 228.085 206.429 227.894 206.577Z" fill="white"/>
<path fill-rule="evenodd" clip-rule="evenodd" d="M122.378 21.5634C120.873 21.5641 119.372 21.7239 117.898 22.0403C111.773 12.948 101.044 8.37968 90.462 10.3587C79.8803 12.3378 71.4016 20.4984 68.7811 31.2264C68.1872 31.1639 67.5906 31.1321 66.9936 31.131C60.8359 31.0499 55.1119 34.3819 52.0101 39.8533C48.9082 45.3246 48.9083 52.0891 52.0101 57.5604C55.112 63.0318 60.836 66.3638 66.9937 66.2826H122.378C134.289 66.1434 143.873 56.1735 143.873 43.923C143.873 31.6725 134.289 21.7027 122.378 21.5634V21.5634Z" fill="url(#paint1_linear)"/>
<path d="M108.286 47.4526L110.321 36.2918L110.848 33.5209L113.284 34.0386L112.639 36.7845L109.959 47.8081L108.286 47.4526ZM107.827 53.7958C107.338 53.6918 106.953 53.4362 106.671 53.0287C106.414 52.6059 106.341 52.1304 106.453 51.6022C106.574 51.0349 106.836 50.6203 107.239 50.3584C107.666 50.0811 108.124 49.9944 108.613 50.0984C109.082 50.1982 109.446 50.4595 109.704 50.8823C109.985 51.2898 110.066 51.7771 109.945 52.3445C109.833 52.8727 109.563 53.2754 109.136 53.5527C108.733 53.8146 108.297 53.8956 107.827 53.7958Z" fill="white"/>
<path d="M93.4224 43.0124C93.3024 42.2324 93.3224 41.5324 93.4824 40.9124C93.6624 40.2724 93.9024 39.6924 94.2024 39.1724C94.5024 38.6324 94.8424 38.1324 95.2224 37.6724C95.6224 37.2124 95.9924 36.7624 96.3324 36.3224C96.6724 35.8624 96.9524 35.4024 97.1724 34.9424C97.4124 34.4824 97.5324 33.9824 97.5324 33.4424C97.5324 32.6424 97.2824 31.9624 96.7824 31.4024C96.3024 30.8224 95.5824 30.5324 94.6224 30.5324C93.9624 30.5324 93.3324 30.6924 92.7324 31.0124C92.1524 31.3124 91.6324 31.7324 91.1724 32.2724L89.7624 30.9824C90.4024 30.2624 91.1424 29.6724 91.9824 29.2124C92.8424 28.7324 93.8224 28.4924 94.9224 28.4924C96.4424 28.4924 97.6524 28.9224 98.5524 29.7824C99.4724 30.6224 99.9324 31.7924 99.9324 33.2924C99.9324 33.9524 99.8124 34.5524 99.5724 35.0924C99.3324 35.6324 99.0324 36.1424 98.6724 36.6224C98.3324 37.1024 97.9624 37.5824 97.5624 38.0624C97.1824 38.5224 96.8224 39.0024 96.4824 39.5024C96.1624 40.0024 95.9124 40.5424 95.7324 41.1224C95.5524 41.6824 95.5024 42.3124 95.5824 43.0124H93.4224ZM94.5624 49.3124C94.0624 49.3124 93.6424 49.1424 93.3024 48.8024C92.9624 48.4424 92.7924 47.9924 92.7924 47.4524C92.7924 46.8724 92.9624 46.4124 93.3024 46.0724C93.6424 45.7124 94.0624 45.5324 94.5624 45.5324C95.0624 45.5324 95.4824 45.7124 95.8224 46.0724C96.1824 46.4124 96.3624 46.8724 96.3624 47.4524C96.3624 47.9924 96.1824 48.4424 95.8224 48.8024C95.4824 49.1424 95.0624 49.3124 94.5624 49.3124Z" fill="white"/>
<path d="M81.4648 48.6359L78.7843 37.6123L78.1393 34.8664L80.5749 34.3487L81.1025 37.1196L83.1374 48.2804L81.4648 48.6359ZM83.6256 54.6173C83.1365 54.7213 82.6806 54.6444 82.2578 54.3867C81.8503 54.1052 81.5905 53.7004 81.4782 53.1722C81.3576 52.6049 81.4283 52.1196 81.6902 51.7163C81.9675 51.2894 82.3506 51.0239 82.8397 50.9199C83.3092 50.8201 83.7477 50.911 84.1551 51.1924C84.5779 51.4501 84.8496 51.8627 84.9702 52.43C85.0825 52.9582 85 53.4358 84.7227 53.8628C84.4608 54.266 84.0951 54.5175 83.6256 54.6173Z" fill="white"/>
<path fill-rule="evenodd" clip-rule="evenodd" d="M99.2694 83.7361C99.2694 81.6017 100.952 79.8713 103.027 79.8713C105.103 79.8713 106.785 81.6017 106.785 83.7361C106.785 85.8705 105.103 87.6009 103.027 87.6009C100.952 87.6009 99.2694 85.8705 99.2694 83.7361Z" fill="url(#paint2_linear)"/>
<path fill-rule="evenodd" clip-rule="evenodd" d="M87.9961 74.0747C87.9961 70.8731 90.5198 68.2776 93.6328 68.2776C96.7459 68.2776 99.2696 70.8731 99.2696 74.0747C99.2696 77.2764 96.7459 79.8719 93.6328 79.8719C90.5198 79.8719 87.9961 77.2764 87.9961 74.0747Z" fill="url(#paint3_linear)"/>
<path fill-rule="evenodd" clip-rule="evenodd" d="M108.038 89.534C108.038 88.1111 109.16 86.9575 110.543 86.9575C111.927 86.9575 113.048 88.1111 113.048 89.534C113.048 90.957 111.927 92.1105 110.543 92.1105C109.16 92.1105 108.038 90.957 108.038 89.534Z" fill="url(#paint4_linear)"/>
<defs>
<linearGradient id="paint0_linear" x1="132.266" y1="165.384" x2="130.628" y2="206.143" gradientUnits="userSpaceOnUse">
<stop stop-color="#8033EB"/>
<stop offset="1" stop-color="#6731CE"/>
</linearGradient>
<linearGradient id="paint1_linear" x1="190.968" y1="38.0935" x2="141.275" y2="-44.9231" gradientUnits="userSpaceOnUse">
<stop stop-color="#9033EA"/>
<stop offset="1" stop-color="#483EB7"/>
</linearGradient>
<linearGradient id="paint2_linear" x1="110.543" y1="83.7361" x2="102.816" y2="76.2234" gradientUnits="userSpaceOnUse">
<stop stop-color="#9033EA"/>
<stop offset="1" stop-color="#483EB7"/>
</linearGradient>
<linearGradient id="paint3_linear" x1="104.906" y1="74.0747" x2="93.3166" y2="62.8057" gradientUnits="userSpaceOnUse">
<stop stop-color="#9033EA"/>
<stop offset="1" stop-color="#483EB7"/>
</linearGradient>
<linearGradient id="paint4_linear" x1="115.554" y1="89.534" x2="110.403" y2="84.5256" gradientUnits="userSpaceOnUse">
<stop stop-color="#9033EA"/>
<stop offset="1" stop-color="#483EB7"/>
</linearGradient>
</defs>
</svg>
