<svg width="312" height="254" viewBox="0 0 312 254" fill="none" xmlns="http://www.w3.org/2000/svg">
<g clip-path="url(#clip0)">
<path fill-rule="evenodd" clip-rule="evenodd" d="M135.23 30.5321C135.23 35.9137 130.868 40.2763 125.486 40.2763C120.104 40.2763 115.742 35.9137 115.742 30.5321C115.742 25.1505 120.104 20.7878 125.486 20.7878C130.868 20.7878 135.23 25.1505 135.23 30.5321Z" fill="#F2F2F2"/>
<path fill-rule="evenodd" clip-rule="evenodd" d="M150.821 53.2685V52.7933C150.821 50.5925 151.601 48.714 153.161 47.1578C154.721 45.6016 156.605 44.8235 158.811 44.8235H212.989C215.196 44.8235 217.079 45.6016 218.639 47.1578C220.2 48.714 220.98 50.5925 220.98 52.7933V53.7437C220.98 55.9445 220.2 57.823 218.639 59.3792C217.079 60.9354 215.196 61.7135 212.989 61.7135H158.811C156.605 61.7135 154.721 60.9354 153.161 59.3792C151.601 57.823 150.821 55.9445 150.821 53.7437V53.2685Z" fill="#F2F2F2"/>
<path fill-rule="evenodd" clip-rule="evenodd" d="M266.453 183.51C266.456 189.42 262.976 194.753 257.636 197.018C252.295 199.283 246.146 198.034 242.058 193.853C237.969 189.673 236.745 183.385 238.958 177.922C241.171 172.46 246.384 168.899 252.165 168.9C255.954 168.9 259.588 170.438 262.268 173.178C264.947 175.918 266.453 179.635 266.453 183.51L266.453 183.51Z" fill="#F2F2F2"/>
<path fill-rule="evenodd" clip-rule="evenodd" d="M311.276 202.036C311.274 208.851 305.747 214.375 298.931 214.373C292.115 214.372 286.59 208.846 286.591 202.03C286.591 195.214 292.117 189.688 298.933 189.688C302.207 189.688 305.348 190.989 307.663 193.305C309.978 195.62 311.278 198.761 311.276 202.036Z" fill="#F2F2F2"/>
<path fill-rule="evenodd" clip-rule="evenodd" d="M240.684 148.112L240.553 147.484C267.932 141.467 288.669 118.989 292.514 91.164C296.358 63.3388 282.495 36.0602 257.777 22.8134C233.06 9.5666 202.724 13.1578 181.767 31.8116L181.353 31.3469C202.509 12.539 233.117 8.92907 258.052 22.3007C282.988 35.6722 296.972 63.1947 293.097 91.2694C289.221 119.344 268.305 142.028 240.684 148.112H240.684Z" fill="#F94F24"/>
<path fill-rule="evenodd" clip-rule="evenodd" d="M31.8646 205.279C14.2556 205.035 0.110014 190.856 0.109985 173.448C0.109957 156.04 14.2555 141.86 31.8645 141.617C38.9411 141.594 45.8243 143.899 51.4297 148.169L51.0516 148.667C45.5545 144.48 38.8046 142.219 31.8646 142.239C14.6019 142.481 0.735823 156.382 0.735832 173.448C0.735842 190.513 14.6019 204.415 31.8646 204.656C36.8265 204.667 41.7194 203.508 46.1367 201.274L46.4266 201.834C41.9175 204.108 36.9262 205.288 31.8646 205.279Z" fill="#F94F24"/>
<path fill-rule="evenodd" clip-rule="evenodd" d="M172.25 0L7.54407 237.686L302.182 254L172.25 0Z" fill="#F3F3F3"/>
<g clip-path="url(#clip1)">
<path fill-rule="evenodd" clip-rule="evenodd" d="M19.11 6H132.11V76.7249C132.11 76.7249 114.562 83.8356 103.251 93.1237C91.9401 102.412 84.2818 116 84.2818 116H19.11V6Z" fill="url(#paint0_linear)"/>
<path d="M28.2 98.12C27.8533 98.12 27.5233 98.0567 27.21 97.93C26.8967 97.8033 26.6233 97.6433 26.39 97.45L26.8 96.9C27.0133 97.0733 27.23 97.2133 27.45 97.32C27.6767 97.4267 27.9367 97.48 28.23 97.48C28.55 97.48 28.79 97.4067 28.95 97.26C29.11 97.1133 29.19 96.9333 29.19 96.72C29.19 96.5933 29.1567 96.4833 29.09 96.39C29.0233 96.2967 28.9367 96.2167 28.83 96.15C28.73 96.0767 28.6133 96.0133 28.48 95.96C28.3467 95.9067 28.2133 95.8533 28.08 95.8C27.9067 95.74 27.7333 95.6733 27.56 95.6C27.3867 95.52 27.23 95.4267 27.09 95.32C26.9567 95.2067 26.8467 95.0767 26.76 94.93C26.6733 94.7833 26.63 94.6067 26.63 94.4C26.63 94.2067 26.6667 94.0267 26.74 93.86C26.82 93.6867 26.93 93.54 27.07 93.42C27.2167 93.2933 27.3933 93.1967 27.6 93.13C27.8067 93.0567 28.04 93.02 28.3 93.02C28.6067 93.02 28.8867 93.0733 29.14 93.18C29.4 93.2867 29.6233 93.4167 29.81 93.57L29.42 94.09C29.2533 93.9633 29.08 93.86 28.9 93.78C28.72 93.7 28.5233 93.66 28.31 93.66C28.0033 93.66 27.7767 93.73 27.63 93.87C27.49 94.01 27.42 94.1733 27.42 94.36C27.42 94.4733 27.45 94.5733 27.51 94.66C27.57 94.74 27.65 94.8133 27.75 94.88C27.85 94.94 27.9633 94.9967 28.09 95.05C28.2233 95.0967 28.36 95.1467 28.5 95.2C28.6733 95.2667 28.8467 95.3367 29.02 95.41C29.2 95.4833 29.36 95.5767 29.5 95.69C29.64 95.7967 29.7533 95.93 29.84 96.09C29.9333 96.25 29.98 96.4433 29.98 96.67C29.98 96.87 29.94 97.0567 29.86 97.23C29.7867 97.4033 29.6733 97.5567 29.52 97.69C29.3733 97.8233 29.1867 97.9267 28.96 98C28.74 98.08 28.4867 98.12 28.2 98.12ZM33.0894 98.12C32.7628 98.12 32.4561 98.0633 32.1694 97.95C31.8894 97.83 31.6428 97.6633 31.4294 97.45C31.2228 97.23 31.0594 96.9633 30.9394 96.65C30.8194 96.3367 30.7594 95.98 30.7594 95.58C30.7594 95.18 30.8194 94.8233 30.9394 94.51C31.0661 94.19 31.2294 93.92 31.4294 93.7C31.6361 93.48 31.8694 93.3133 32.1294 93.2C32.3894 93.08 32.6594 93.02 32.9394 93.02C33.2461 93.02 33.5194 93.0733 33.7594 93.18C34.0061 93.2867 34.2094 93.44 34.3694 93.64C34.5361 93.84 34.6628 94.08 34.7494 94.36C34.8361 94.64 34.8794 94.9533 34.8794 95.3C34.8794 95.3867 34.8761 95.4733 34.8694 95.56C34.8694 95.64 34.8628 95.71 34.8494 95.77H31.5694C31.6028 96.29 31.7628 96.7033 32.0494 97.01C32.3428 97.31 32.7228 97.46 33.1894 97.46C33.4228 97.46 33.6361 97.4267 33.8294 97.36C34.0294 97.2867 34.2194 97.1933 34.3994 97.08L34.6894 97.62C34.4761 97.7533 34.2394 97.87 33.9794 97.97C33.7194 98.07 33.4228 98.12 33.0894 98.12ZM31.5594 95.18H34.1594C34.1594 94.6867 34.0528 94.3133 33.8394 94.06C33.6328 93.8 33.3394 93.67 32.9594 93.67C32.7861 93.67 32.6194 93.7033 32.4594 93.77C32.3061 93.8367 32.1661 93.9367 32.0394 94.07C31.9128 94.1967 31.8061 94.3533 31.7194 94.54C31.6394 94.7267 31.5861 94.94 31.5594 95.18ZM36.0804 98V93.14H36.7604L36.8304 94.02H36.8604C37.027 93.7133 37.227 93.47 37.4604 93.29C37.7004 93.11 37.9604 93.02 38.2404 93.02C38.4337 93.02 38.607 93.0533 38.7604 93.12L38.6004 93.84C38.5204 93.8133 38.447 93.7933 38.3804 93.78C38.3137 93.7667 38.2304 93.76 38.1304 93.76C37.9237 93.76 37.707 93.8433 37.4804 94.01C37.2604 94.1767 37.067 94.4667 36.9004 94.88V98H36.0804ZM40.8511 98L39.1011 93.14H39.9511L40.8711 95.9C40.9444 96.14 41.0177 96.38 41.0911 96.62C41.1711 96.86 41.2477 97.0967 41.3211 97.33H41.3611C41.4344 97.0967 41.5077 96.86 41.5811 96.62C41.6544 96.38 41.7277 96.14 41.8011 95.9L42.7211 93.14H43.5311L41.8111 98H40.8511ZM46.4 98.12C46.0733 98.12 45.7667 98.0633 45.48 97.95C45.2 97.83 44.9533 97.6633 44.74 97.45C44.5333 97.23 44.37 96.9633 44.25 96.65C44.13 96.3367 44.07 95.98 44.07 95.58C44.07 95.18 44.13 94.8233 44.25 94.51C44.3767 94.19 44.54 93.92 44.74 93.7C44.9467 93.48 45.18 93.3133 45.44 93.2C45.7 93.08 45.97 93.02 46.25 93.02C46.5567 93.02 46.83 93.0733 47.07 93.18C47.3167 93.2867 47.52 93.44 47.68 93.64C47.8467 93.84 47.9733 94.08 48.06 94.36C48.1467 94.64 48.19 94.9533 48.19 95.3C48.19 95.3867 48.1867 95.4733 48.18 95.56C48.18 95.64 48.1733 95.71 48.16 95.77H44.88C44.9133 96.29 45.0733 96.7033 45.36 97.01C45.6533 97.31 46.0333 97.46 46.5 97.46C46.7333 97.46 46.9467 97.4267 47.14 97.36C47.34 97.2867 47.53 97.1933 47.71 97.08L48 97.62C47.7867 97.7533 47.55 97.87 47.29 97.97C47.03 98.07 46.7333 98.12 46.4 98.12ZM44.87 95.18H47.47C47.47 94.6867 47.3633 94.3133 47.15 94.06C46.9433 93.8 46.65 93.67 46.27 93.67C46.0967 93.67 45.93 93.7033 45.77 93.77C45.6167 93.8367 45.4767 93.9367 45.35 94.07C45.2233 94.1967 45.1167 94.3533 45.03 94.54C44.95 94.7267 44.8967 94.94 44.87 95.18ZM49.3909 98V93.14H50.0709L50.1409 94.02H50.1709C50.3376 93.7133 50.5376 93.47 50.7709 93.29C51.0109 93.11 51.2709 93.02 51.5509 93.02C51.7443 93.02 51.9176 93.0533 52.0709 93.12L51.9109 93.84C51.8309 93.8133 51.7576 93.7933 51.6909 93.78C51.6243 93.7667 51.5409 93.76 51.4409 93.76C51.2343 93.76 51.0176 93.8433 50.7909 94.01C50.5709 94.1767 50.3776 94.4667 50.2109 94.88V98H49.3909ZM53.7277 98.12C53.4144 98.12 53.1911 98.0267 53.0577 97.84C52.9244 97.6533 52.8577 97.38 52.8577 97.02V90.88H53.6777V97.08C53.6777 97.2133 53.7011 97.3067 53.7477 97.36C53.7944 97.4133 53.8477 97.44 53.9077 97.44C53.9344 97.44 53.9577 97.44 53.9777 97.44C54.0044 97.44 54.0411 97.4333 54.0877 97.42L54.1977 98.04C54.1444 98.0667 54.0811 98.0867 54.0077 98.1C53.9344 98.1133 53.8411 98.12 53.7277 98.12ZM57.3765 98.12C57.0499 98.12 56.7432 98.0633 56.4565 97.95C56.1765 97.83 55.9299 97.6633 55.7165 97.45C55.5099 97.23 55.3465 96.9633 55.2265 96.65C55.1065 96.3367 55.0465 95.98 55.0465 95.58C55.0465 95.18 55.1065 94.8233 55.2265 94.51C55.3532 94.19 55.5165 93.92 55.7165 93.7C55.9232 93.48 56.1565 93.3133 56.4165 93.2C56.6765 93.08 56.9465 93.02 57.2265 93.02C57.5332 93.02 57.8065 93.0733 58.0465 93.18C58.2932 93.2867 58.4965 93.44 58.6565 93.64C58.8232 93.84 58.9499 94.08 59.0365 94.36C59.1232 94.64 59.1665 94.9533 59.1665 95.3C59.1665 95.3867 59.1632 95.4733 59.1565 95.56C59.1565 95.64 59.1499 95.71 59.1365 95.77H55.8565C55.8899 96.29 56.0499 96.7033 56.3365 97.01C56.6299 97.31 57.0099 97.46 57.4765 97.46C57.7099 97.46 57.9232 97.4267 58.1165 97.36C58.3165 97.2867 58.5065 97.1933 58.6865 97.08L58.9765 97.62C58.7632 97.7533 58.5265 97.87 58.2665 97.97C58.0065 98.07 57.7099 98.12 57.3765 98.12ZM55.8465 95.18H58.4465C58.4465 94.6867 58.3399 94.3133 58.1265 94.06C57.9199 93.8 57.6265 93.67 57.2465 93.67C57.0732 93.67 56.9065 93.7033 56.7465 93.77C56.5932 93.8367 56.4532 93.9367 56.3265 94.07C56.1999 94.1967 56.0932 94.3533 56.0065 94.54C55.9265 94.7267 55.8732 94.94 55.8465 95.18ZM61.6375 98.12C61.2908 98.12 60.9608 98.0567 60.6475 97.93C60.3342 97.8033 60.0608 97.6433 59.8275 97.45L60.2375 96.9C60.4508 97.0733 60.6675 97.2133 60.8875 97.32C61.1142 97.4267 61.3742 97.48 61.6675 97.48C61.9875 97.48 62.2275 97.4067 62.3875 97.26C62.5475 97.1133 62.6275 96.9333 62.6275 96.72C62.6275 96.5933 62.5942 96.4833 62.5275 96.39C62.4608 96.2967 62.3742 96.2167 62.2675 96.15C62.1675 96.0767 62.0508 96.0133 61.9175 95.96C61.7842 95.9067 61.6508 95.8533 61.5175 95.8C61.3442 95.74 61.1708 95.6733 60.9975 95.6C60.8242 95.52 60.6675 95.4267 60.5275 95.32C60.3942 95.2067 60.2842 95.0767 60.1975 94.93C60.1108 94.7833 60.0675 94.6067 60.0675 94.4C60.0675 94.2067 60.1042 94.0267 60.1775 93.86C60.2575 93.6867 60.3675 93.54 60.5075 93.42C60.6542 93.2933 60.8308 93.1967 61.0375 93.13C61.2442 93.0567 61.4775 93.02 61.7375 93.02C62.0442 93.02 62.3242 93.0733 62.5775 93.18C62.8375 93.2867 63.0608 93.4167 63.2475 93.57L62.8575 94.09C62.6908 93.9633 62.5175 93.86 62.3375 93.78C62.1575 93.7 61.9608 93.66 61.7475 93.66C61.4408 93.66 61.2142 93.73 61.0675 93.87C60.9275 94.01 60.8575 94.1733 60.8575 94.36C60.8575 94.4733 60.8875 94.5733 60.9475 94.66C61.0075 94.74 61.0875 94.8133 61.1875 94.88C61.2875 94.94 61.4008 94.9967 61.5275 95.05C61.6608 95.0967 61.7975 95.1467 61.9375 95.2C62.1108 95.2667 62.2842 95.3367 62.4575 95.41C62.6375 95.4833 62.7975 95.5767 62.9375 95.69C63.0775 95.7967 63.1908 95.93 63.2775 96.09C63.3708 96.25 63.4175 96.4433 63.4175 96.67C63.4175 96.87 63.3775 97.0567 63.2975 97.23C63.2242 97.4033 63.1108 97.5567 62.9575 97.69C62.8108 97.8233 62.6242 97.9267 62.3975 98C62.1775 98.08 61.9242 98.12 61.6375 98.12ZM65.8269 98.12C65.4803 98.12 65.1503 98.0567 64.8369 97.93C64.5236 97.8033 64.2503 97.6433 64.0169 97.45L64.4269 96.9C64.6403 97.0733 64.8569 97.2133 65.0769 97.32C65.3036 97.4267 65.5636 97.48 65.8569 97.48C66.1769 97.48 66.4169 97.4067 66.5769 97.26C66.7369 97.1133 66.8169 96.9333 66.8169 96.72C66.8169 96.5933 66.7836 96.4833 66.7169 96.39C66.6503 96.2967 66.5636 96.2167 66.4569 96.15C66.3569 96.0767 66.2403 96.0133 66.1069 95.96C65.9736 95.9067 65.8403 95.8533 65.7069 95.8C65.5336 95.74 65.3603 95.6733 65.1869 95.6C65.0136 95.52 64.8569 95.4267 64.7169 95.32C64.5836 95.2067 64.4736 95.0767 64.3869 94.93C64.3003 94.7833 64.2569 94.6067 64.2569 94.4C64.2569 94.2067 64.2936 94.0267 64.3669 93.86C64.4469 93.6867 64.5569 93.54 64.6969 93.42C64.8436 93.2933 65.0203 93.1967 65.2269 93.13C65.4336 93.0567 65.6669 93.02 65.9269 93.02C66.2336 93.02 66.5136 93.0733 66.7669 93.18C67.0269 93.2867 67.2503 93.4167 67.4369 93.57L67.0469 94.09C66.8803 93.9633 66.7069 93.86 66.5269 93.78C66.3469 93.7 66.1503 93.66 65.9369 93.66C65.6303 93.66 65.4036 93.73 65.2569 93.87C65.1169 94.01 65.0469 94.1733 65.0469 94.36C65.0469 94.4733 65.0769 94.5733 65.1369 94.66C65.1969 94.74 65.2769 94.8133 65.3769 94.88C65.4769 94.94 65.5903 94.9967 65.7169 95.05C65.8503 95.0967 65.9869 95.1467 66.1269 95.2C66.3003 95.2667 66.4736 95.3367 66.6469 95.41C66.8269 95.4833 66.9869 95.5767 67.1269 95.69C67.2669 95.7967 67.3803 95.93 67.4669 96.09C67.5603 96.25 67.6069 96.4433 67.6069 96.67C67.6069 96.87 67.5669 97.0567 67.4869 97.23C67.4136 97.4033 67.3003 97.5567 67.1469 97.69C67.0003 97.8233 66.8136 97.9267 66.5869 98C66.3669 98.08 66.1136 98.12 65.8269 98.12ZM26.93 108V103.14H27.75V108H26.93ZM27.35 102.14C27.19 102.14 27.0533 102.09 26.94 101.99C26.8333 101.89 26.78 101.763 26.78 101.61C26.78 101.45 26.8333 101.323 26.94 101.23C27.0533 101.13 27.19 101.08 27.35 101.08C27.51 101.08 27.6433 101.13 27.75 101.23C27.8633 101.323 27.92 101.45 27.92 101.61C27.92 101.763 27.8633 101.89 27.75 101.99C27.6433 102.09 27.51 102.14 27.35 102.14ZM29.3909 108V103.14H30.0709L30.1409 103.84H30.1709C30.4043 103.607 30.6476 103.413 30.9009 103.26C31.1609 103.1 31.4609 103.02 31.8009 103.02C32.3143 103.02 32.6876 103.18 32.9209 103.5C33.1609 103.82 33.2809 104.293 33.2809 104.92V108H32.4609V105.03C32.4609 104.57 32.3876 104.24 32.2409 104.04C32.0943 103.833 31.8609 103.73 31.5409 103.73C31.2876 103.73 31.0643 103.793 30.8709 103.92C30.6776 104.047 30.4576 104.233 30.2109 104.48V108H29.3909ZM34.9997 108V103.81H34.3397V103.19L34.9997 103.14V102.37C34.9997 101.87 35.113 101.477 35.3397 101.19C35.573 100.903 35.933 100.76 36.4197 100.76C36.573 100.76 36.7163 100.777 36.8497 100.81C36.9897 100.837 37.1163 100.873 37.2297 100.92L37.0497 101.55C36.8697 101.47 36.6863 101.43 36.4997 101.43C36.0463 101.43 35.8197 101.743 35.8197 102.37V103.14H36.8497V103.81H35.8197V108H34.9997ZM37.7796 108V103.14H38.4596L38.5296 104.02H38.5596C38.7263 103.713 38.9263 103.47 39.1596 103.29C39.3996 103.11 39.6596 103.02 39.9396 103.02C40.1329 103.02 40.3063 103.053 40.4596 103.12L40.2996 103.84C40.2196 103.813 40.1463 103.793 40.0796 103.78C40.0129 103.767 39.9296 103.76 39.8296 103.76C39.6229 103.76 39.4063 103.843 39.1796 104.01C38.9596 104.177 38.7663 104.467 38.5996 104.88V108H37.7796ZM42.1223 108.12C41.7156 108.12 41.3756 108 41.1023 107.76C40.8356 107.52 40.7023 107.18 40.7023 106.74C40.7023 106.207 40.9389 105.8 41.4123 105.52C41.8856 105.233 42.6423 105.033 43.6823 104.92C43.6823 104.767 43.6656 104.617 43.6323 104.47C43.6056 104.323 43.5556 104.193 43.4823 104.08C43.4089 103.967 43.3056 103.877 43.1723 103.81C43.0456 103.737 42.8823 103.7 42.6823 103.7C42.4023 103.7 42.1389 103.753 41.8923 103.86C41.6456 103.967 41.4256 104.087 41.2323 104.22L40.9123 103.65C41.1389 103.503 41.4156 103.363 41.7423 103.23C42.0689 103.09 42.4289 103.02 42.8223 103.02C43.4156 103.02 43.8456 103.203 44.1123 103.57C44.3789 103.93 44.5123 104.413 44.5123 105.02V108H43.8323L43.7623 107.42H43.7323C43.4989 107.613 43.2489 107.78 42.9823 107.92C42.7156 108.053 42.4289 108.12 42.1223 108.12ZM42.3623 107.46C42.5956 107.46 42.8156 107.407 43.0223 107.3C43.2289 107.187 43.4489 107.023 43.6823 106.81V105.46C43.2756 105.513 42.9323 105.577 42.6523 105.65C42.3789 105.723 42.1556 105.81 41.9823 105.91C41.8156 106.01 41.6923 106.127 41.6123 106.26C41.5389 106.387 41.5023 106.527 41.5023 106.68C41.5023 106.96 41.5856 107.16 41.7523 107.28C41.9189 107.4 42.1223 107.46 42.3623 107.46ZM47.3113 108.12C46.9646 108.12 46.6346 108.057 46.3213 107.93C46.008 107.803 45.7346 107.643 45.5013 107.45L45.9113 106.9C46.1246 107.073 46.3413 107.213 46.5613 107.32C46.788 107.427 47.048 107.48 47.3413 107.48C47.6613 107.48 47.9013 107.407 48.0613 107.26C48.2213 107.113 48.3013 106.933 48.3013 106.72C48.3013 106.593 48.268 106.483 48.2013 106.39C48.1346 106.297 48.048 106.217 47.9413 106.15C47.8413 106.077 47.7246 106.013 47.5913 105.96C47.458 105.907 47.3246 105.853 47.1913 105.8C47.018 105.74 46.8446 105.673 46.6713 105.6C46.498 105.52 46.3413 105.427 46.2013 105.32C46.068 105.207 45.958 105.077 45.8713 104.93C45.7846 104.783 45.7413 104.607 45.7413 104.4C45.7413 104.207 45.778 104.027 45.8513 103.86C45.9313 103.687 46.0413 103.54 46.1813 103.42C46.328 103.293 46.5046 103.197 46.7113 103.13C46.918 103.057 47.1513 103.02 47.4113 103.02C47.718 103.02 47.998 103.073 48.2513 103.18C48.5113 103.287 48.7346 103.417 48.9213 103.57L48.5313 104.09C48.3646 103.963 48.1913 103.86 48.0113 103.78C47.8313 103.7 47.6346 103.66 47.4213 103.66C47.1146 103.66 46.888 103.73 46.7413 103.87C46.6013 104.01 46.5313 104.173 46.5313 104.36C46.5313 104.473 46.5613 104.573 46.6213 104.66C46.6813 104.74 46.7613 104.813 46.8613 104.88C46.9613 104.94 47.0746 104.997 47.2013 105.05C47.3346 105.097 47.4713 105.147 47.6113 105.2C47.7846 105.267 47.958 105.337 48.1313 105.41C48.3113 105.483 48.4713 105.577 48.6113 105.69C48.7513 105.797 48.8646 105.93 48.9513 106.09C49.0446 106.25 49.0913 106.443 49.0913 106.67C49.0913 106.87 49.0513 107.057 48.9713 107.23C48.898 107.403 48.7846 107.557 48.6313 107.69C48.4846 107.823 48.298 107.927 48.0713 108C47.8513 108.08 47.598 108.12 47.3113 108.12ZM51.5655 108.12C51.3055 108.12 51.0855 108.08 50.9055 108C50.7321 107.92 50.5888 107.81 50.4755 107.67C50.3688 107.53 50.2921 107.36 50.2455 107.16C50.1988 106.96 50.1755 106.74 50.1755 106.5V103.81H49.4555V103.19L50.2155 103.14L50.3155 101.78H51.0055V103.14H52.3155V103.81H51.0055V106.51C51.0055 106.81 51.0588 107.043 51.1655 107.21C51.2788 107.37 51.4755 107.45 51.7555 107.45C51.8421 107.45 51.9355 107.437 52.0355 107.41C52.1355 107.383 52.2255 107.353 52.3055 107.32L52.4655 107.94C52.3321 107.987 52.1855 108.027 52.0255 108.06C51.8721 108.1 51.7188 108.12 51.5655 108.12ZM53.4144 108V103.14H54.0944L54.1644 104.02H54.1944C54.361 103.713 54.561 103.47 54.7944 103.29C55.0344 103.11 55.2944 103.02 55.5744 103.02C55.7677 103.02 55.941 103.053 56.0944 103.12L55.9344 103.84C55.8544 103.813 55.781 103.793 55.7144 103.78C55.6477 103.767 55.5644 103.76 55.4644 103.76C55.2577 103.76 55.041 103.843 54.8144 104.01C54.5944 104.177 54.401 104.467 54.2344 104.88V108H53.4144ZM58.3012 108.12C57.7812 108.12 57.4012 107.96 57.1612 107.64C56.9278 107.32 56.8112 106.847 56.8112 106.22V103.14H57.6412V106.11C57.6412 106.57 57.7112 106.903 57.8512 107.11C57.9978 107.31 58.2312 107.41 58.5512 107.41C58.8045 107.41 59.0278 107.347 59.2212 107.22C59.4145 107.087 59.6278 106.877 59.8612 106.59V103.14H60.6812V108H60.0012L59.9312 107.24H59.9012C59.6745 107.507 59.4345 107.72 59.1812 107.88C58.9345 108.04 58.6412 108.12 58.3012 108.12ZM64.2406 108.12C63.9206 108.12 63.6206 108.063 63.3406 107.95C63.0606 107.837 62.8173 107.673 62.6106 107.46C62.4106 107.24 62.2506 106.973 62.1306 106.66C62.0173 106.34 61.9606 105.98 61.9606 105.58C61.9606 105.173 62.0239 104.813 62.1506 104.5C62.2773 104.18 62.4473 103.91 62.6606 103.69C62.8739 103.47 63.1206 103.303 63.4006 103.19C63.6873 103.077 63.9873 103.02 64.3006 103.02C64.6206 103.02 64.8939 103.077 65.1206 103.19C65.3473 103.303 65.5473 103.437 65.7206 103.59L65.3006 104.13C65.1606 104.003 65.0106 103.9 64.8506 103.82C64.6973 103.74 64.5239 103.7 64.3306 103.7C64.1106 103.7 63.9073 103.747 63.7206 103.84C63.5339 103.927 63.3739 104.053 63.2406 104.22C63.1073 104.387 63.0006 104.587 62.9206 104.82C62.8473 105.047 62.8106 105.3 62.8106 105.58C62.8106 105.86 62.8473 106.113 62.9206 106.34C62.9939 106.567 63.0939 106.763 63.2206 106.93C63.3539 107.09 63.5139 107.217 63.7006 107.31C63.8873 107.397 64.0906 107.44 64.3106 107.44C64.5373 107.44 64.7439 107.393 64.9306 107.3C65.1239 107.2 65.2973 107.083 65.4506 106.95L65.8106 107.5C65.5906 107.693 65.3473 107.847 65.0806 107.96C64.8139 108.067 64.5339 108.12 64.2406 108.12ZM68.3135 108.12C68.0535 108.12 67.8335 108.08 67.6535 108C67.4802 107.92 67.3368 107.81 67.2235 107.67C67.1168 107.53 67.0402 107.36 66.9935 107.16C66.9468 106.96 66.9235 106.74 66.9235 106.5V103.81H66.2035V103.19L66.9635 103.14L67.0635 101.78H67.7535V103.14H69.0635V103.81H67.7535V106.51C67.7535 106.81 67.8068 107.043 67.9135 107.21C68.0268 107.37 68.2235 107.45 68.5035 107.45C68.5902 107.45 68.6835 107.437 68.7835 107.41C68.8835 107.383 68.9735 107.353 69.0535 107.32L69.2135 107.94C69.0802 107.987 68.9335 108.027 68.7735 108.06C68.6202 108.1 68.4668 108.12 68.3135 108.12ZM71.5824 108.12C71.0624 108.12 70.6824 107.96 70.4424 107.64C70.2091 107.32 70.0924 106.847 70.0924 106.22V103.14H70.9224V106.11C70.9224 106.57 70.9924 106.903 71.1324 107.11C71.2791 107.31 71.5124 107.41 71.8324 107.41C72.0857 107.41 72.3091 107.347 72.5024 107.22C72.6957 107.087 72.9091 106.877 73.1424 106.59V103.14H73.9624V108H73.2824L73.2124 107.24H73.1824C72.9557 107.507 72.7157 107.72 72.4624 107.88C72.2157 108.04 71.9224 108.12 71.5824 108.12ZM75.6019 108V103.14H76.2819L76.3519 104.02H76.3819C76.5485 103.713 76.7485 103.47 76.9819 103.29C77.2219 103.11 77.4819 103.02 77.7619 103.02C77.9552 103.02 78.1285 103.053 78.2819 103.12L78.1219 103.84C78.0419 103.813 77.9685 103.793 77.9019 103.78C77.8352 103.767 77.7519 103.76 77.6519 103.76C77.4452 103.76 77.2285 103.843 77.0019 104.01C76.7819 104.177 76.5885 104.467 76.4219 104.88V108H75.6019ZM80.941 108.12C80.6143 108.12 80.3077 108.063 80.021 107.95C79.741 107.83 79.4943 107.663 79.281 107.45C79.0743 107.23 78.911 106.963 78.791 106.65C78.671 106.337 78.611 105.98 78.611 105.58C78.611 105.18 78.671 104.823 78.791 104.51C78.9177 104.19 79.081 103.92 79.281 103.7C79.4877 103.48 79.721 103.313 79.981 103.2C80.241 103.08 80.511 103.02 80.791 103.02C81.0977 103.02 81.371 103.073 81.611 103.18C81.8577 103.287 82.061 103.44 82.221 103.64C82.3877 103.84 82.5143 104.08 82.601 104.36C82.6877 104.64 82.731 104.953 82.731 105.3C82.731 105.387 82.7277 105.473 82.721 105.56C82.721 105.64 82.7143 105.71 82.701 105.77H79.421C79.4543 106.29 79.6143 106.703 79.901 107.01C80.1943 107.31 80.5743 107.46 81.041 107.46C81.2743 107.46 81.4877 107.427 81.681 107.36C81.881 107.287 82.071 107.193 82.251 107.08L82.541 107.62C82.3277 107.753 82.091 107.87 81.831 107.97C81.571 108.07 81.2743 108.12 80.941 108.12ZM79.411 105.18H82.011C82.011 104.687 81.9043 104.313 81.691 104.06C81.4843 103.8 81.191 103.67 80.811 103.67C80.6377 103.67 80.471 103.703 80.311 103.77C80.1577 103.837 80.0177 103.937 79.891 104.07C79.7643 104.197 79.6577 104.353 79.571 104.54C79.491 104.727 79.4377 104.94 79.411 105.18Z" fill="#CAD6FF"/>
<path fill-rule="evenodd" clip-rule="evenodd" d="M67.7357 39H49.4843C48.1738 38.9982 47.1119 38.0011 47.11 36.7707V35.2293C47.1119 33.9989 48.1738 33.0018 49.4843 33H67.7357C69.0462 33.0018 70.108 33.9989 70.11 35.2293V36.7806C70.1022 38.0072 69.042 38.9982 67.7357 39ZM49.4843 33.6152C48.5357 33.617 47.7672 34.3386 47.7652 35.2293V36.7806C47.7672 37.6713 48.5357 38.3929 49.4843 38.3947H67.7357C68.6843 38.3929 69.4528 37.6713 69.4548 36.7806V35.2393C69.4528 34.3486 68.6843 33.627 67.7357 33.6251L49.4843 33.6152Z" fill="#E5E5E5"/>
<path fill-rule="evenodd" clip-rule="evenodd" d="M43.7952 57.125L39.9159 53.5291C35.8609 49.7705 39.8559 45.4222 39.896 45.3794L47.5086 37.2648L47.9499 37.6738L40.3421 45.7834C40.1933 45.942 36.7509 49.7107 40.3598 53.0559L44.2391 56.6518L43.7952 57.125Z" fill="#E5E5E5"/>
<path fill-rule="evenodd" clip-rule="evenodd" d="M66.11 53C63.9008 53 62.11 51.2091 62.11 49C62.11 46.7909 63.9008 45 66.11 45C68.3191 45 70.11 46.7909 70.11 49C70.1083 51.2085 68.3184 52.9984 66.11 53ZM66.11 45.5565C64.2082 45.5565 62.6665 47.0982 62.6665 49C62.6665 50.9018 64.2082 52.4435 66.11 52.4435C68.0118 52.4435 69.5535 50.9018 69.5535 49C69.5519 47.0989 68.0111 45.5581 66.11 45.5565Z" fill="#E5E5E5"/>
<path fill-rule="evenodd" clip-rule="evenodd" d="M64.113 81C62.4947 81.0012 61.035 80.0271 60.4152 78.5321C59.7953 77.0372 60.1373 75.316 61.2817 74.1717C62.426 73.0273 64.1472 72.6853 65.6421 73.3052C67.1371 73.925 68.1112 75.3847 68.11 77.003C68.1067 79.2091 66.3191 80.9967 64.113 81ZM64.113 73.5596C62.72 73.5584 61.4635 74.3966 60.9295 75.6832C60.3956 76.9699 60.6895 78.4514 61.6741 79.4369C62.6587 80.4223 64.14 80.7175 65.4271 80.1847C66.7142 79.6519 67.5535 78.3961 67.5535 77.003C67.5519 75.1031 66.013 73.5629 64.113 73.5596Z" fill="#E5E5E5"/>
<path fill-rule="evenodd" clip-rule="evenodd" d="M54.8527 52.8017L55.6018 52.5882L60.1128 68.2256L59.3636 68.4392L54.8527 52.8017Z" fill="#E5E5E5"/>
<path fill-rule="evenodd" clip-rule="evenodd" d="M93.11 64C92.8054 63.9972 92.5147 63.8647 92.303 63.632L85.445 56.3462C85.2305 56.119 85.11 55.8105 85.11 55.4888C85.11 55.1671 85.2305 54.8586 85.445 54.6314L92.303 47.3456C92.7536 46.8848 93.4664 46.8848 93.917 47.3456L100.775 54.6277C100.989 54.8549 101.11 55.1634 101.11 55.4851C101.11 55.8068 100.989 56.1153 100.775 56.3425L93.917 63.6431C93.7036 63.8716 93.413 64.0001 93.11 64ZM93.11 47.6841C92.9798 47.6849 92.8553 47.7405 92.7636 47.8387L85.9022 55.1282C85.712 55.3319 85.712 55.6604 85.9022 55.8641L92.7636 63.1537C92.9583 63.3481 93.2617 63.3481 93.4563 63.1537L100.318 55.8641C100.504 55.6588 100.504 55.3335 100.318 55.1282L93.4563 47.8387C93.3647 47.7405 93.2401 47.6849 93.11 47.6841Z" fill="#E5E5E5"/>
<rect x="69.11" y="49" width="8" height="1" fill="#E5E5E5"/>
<path fill-rule="evenodd" clip-rule="evenodd" d="M86.066 65.0897L86.712 64.6565L91.9414 72.363L91.2954 72.7962L86.066 65.0897Z" fill="#E5E5E5"/>
<rect x="103.438" y="44.9644" width="1" height="9" transform="rotate(45 103.438 44.9644)" fill="#E5E5E5"/>
<path fill-rule="evenodd" clip-rule="evenodd" d="M94.11 39C92.4531 39 91.11 37.6569 91.11 36C91.11 34.3431 92.4531 33 94.11 33C95.7668 33 97.11 34.3431 97.11 36C97.1082 37.6561 95.7661 38.9982 94.11 39ZM94.11 33.6158C93.1437 33.6145 92.272 34.1957 91.9016 35.0881C91.5312 35.9806 91.7352 37.0083 92.4185 37.6915C93.1017 38.3747 94.1294 38.5788 95.0219 38.2084C95.9143 37.838 96.4955 36.9662 96.4942 36C96.4924 34.684 95.426 33.6176 94.11 33.6158Z" fill="#E5E5E5"/>
<rect x="102.11" y="55" width="9" height="1" fill="#E5E5E5"/>
<path fill-rule="evenodd" clip-rule="evenodd" d="M114.11 59C112.453 59 111.11 57.6569 111.11 56C111.11 54.3431 112.453 53 114.11 53C115.767 53 117.11 54.3431 117.11 56C117.108 57.6561 115.766 58.9982 114.11 59ZM114.11 53.6158C112.794 53.6176 111.728 54.6859 111.729 56.0022C111.73 57.3185 112.798 58.3848 114.114 58.3842C115.431 58.3836 116.497 57.3163 116.497 56C116.496 54.6827 115.427 53.6158 114.11 53.6158Z" fill="#E5E5E5"/>
<path fill-rule="evenodd" clip-rule="evenodd" d="M88.8071 94.0798C87.7616 94.785 86.3967 94.7946 85.3492 94.104C84.3017 93.4135 83.7779 92.1589 84.0222 90.9255C84.2665 89.6921 85.2307 88.723 86.4651 88.4702C87.6995 88.2174 88.9607 88.7307 89.6606 89.7707C90.6152 91.1894 90.2332 93.1179 88.8071 94.0798ZM85.6974 89.4695C84.5615 90.2357 84.2581 91.772 85.0197 92.9011C85.7812 94.0301 87.3194 94.3243 88.4552 93.5582C89.5911 92.792 89.8945 91.2557 89.1329 90.1266C88.3714 88.9976 86.8332 88.7034 85.6974 89.4695Z" fill="#E5E5E5"/>
<path fill-rule="evenodd" clip-rule="evenodd" d="M112.715 78.0503C111.67 78.7568 110.305 78.7677 109.256 78.0778C108.208 77.388 107.683 76.1334 107.927 74.8996C108.17 73.6658 109.135 72.696 110.369 72.4428C111.604 72.1896 112.865 72.7029 113.565 73.7431C114.519 75.1607 114.139 77.0876 112.715 78.0503ZM109.605 73.44C108.772 74.0001 108.357 75.0039 108.553 75.983C108.749 76.9622 109.518 77.7237 110.5 77.9124C111.483 78.1011 112.486 77.6797 113.042 76.8448C113.597 76.01 113.596 74.9261 113.038 74.099C112.276 72.9728 110.741 72.6782 109.605 73.44Z" fill="#E5E5E5"/>
<path fill-rule="evenodd" clip-rule="evenodd" d="M94.7713 77.9339C93.344 78.8966 91.4112 78.5269 90.4543 77.1082C89.4973 75.6894 89.8786 73.7589 91.3059 72.7962C92.7331 71.8335 94.6659 72.2031 95.6229 73.6219C96.5778 75.041 96.1969 76.97 94.7713 77.9339ZM91.6615 73.3235C90.8284 73.8838 90.4131 74.888 90.6095 75.8674C90.8059 76.8468 91.5752 77.6082 92.5584 77.7963C93.5416 77.9843 94.5448 77.5619 95.0996 76.7262C95.6545 75.8905 95.6516 74.8063 95.0924 73.9797C94.3308 72.8539 92.7962 72.5604 91.6615 73.3235Z" fill="#E5E5E5"/>
<path fill-rule="evenodd" clip-rule="evenodd" d="M85.8618 88.5865L85.3313 88.9421L83.6264 86.4297C83.5753 86.3544 82.2957 84.4991 82.6607 82.6094C82.8476 81.6698 83.4209 80.8439 84.2429 80.3301L90.6656 76.0239L91.0179 76.5431L84.5952 80.8494C83.9186 81.2649 83.4429 81.9369 83.2816 82.7049C82.9578 84.3314 84.1304 86.035 84.1418 86.0517L85.8618 88.5865Z" fill="#E5E5E5"/>
<path fill-rule="evenodd" clip-rule="evenodd" d="M109.881 72.482L109.362 72.8299L107.653 70.3115C107.636 70.2863 106.53 68.5646 104.908 68.2352C104.108 68.0896 103.279 68.2823 102.622 68.7666L96.1883 73.0801L95.8351 72.5596L102.257 68.2538C103.055 67.667 104.062 67.4353 105.031 67.6153C106.918 67.9991 108.12 69.8804 108.17 69.9607L109.881 72.482Z" fill="#E5E5E5"/>
<path fill-rule="evenodd" clip-rule="evenodd" d="M53.6727 25.3603L40.5772 32.3232C38.1884 33.5934 35.2105 32.6644 33.9258 30.2483C32.6411 27.8322 33.5362 24.8439 35.9251 23.5737L36.1363 23.4614C35.5259 20.5805 36.59 17.6161 38.8812 15.8137C41.1725 14.0114 44.2939 13.6837 46.9338 14.9681C47.2124 14.7487 47.5099 14.5546 47.823 14.3881C50.807 12.8923 54.4544 14.0778 56.0393 17.0587C57.6243 20.0396 56.5675 23.7263 53.6588 25.3637L53.6727 25.3603ZM36.2312 24.1496C34.8434 24.8369 33.9434 26.2326 33.8818 27.7932C33.8202 29.3539 34.6066 30.8329 35.9349 31.6546C37.2632 32.4762 38.9235 32.5106 40.2694 31.7443L53.3648 24.7813C56.0461 23.3557 57.0508 20.0015 55.6088 17.2895C54.1669 14.5776 50.8243 13.5349 48.143 14.9606C47.8072 15.1402 47.4905 15.3538 47.198 15.5981L47.0358 15.736L46.8416 15.6367C44.3827 14.3535 41.4189 14.6284 39.2621 16.3398C37.1053 18.0512 36.1537 20.883 36.8285 23.5818L36.8957 23.8559L36.6377 23.9613C36.4985 24.0159 36.3628 24.0788 36.2312 24.1496Z" fill="#E5E5E5"/>
<rect x="58.11" y="25" width="1" height="8" fill="#E5E5E5"/>
<path fill-rule="evenodd" clip-rule="evenodd" d="M93.7512 45C93.4064 44.9868 93.0626 44.9532 92.7218 44.8995C92.6601 44.8989 92.6045 44.8624 92.5793 44.8062C92.5542 44.7499 92.5642 44.6842 92.605 44.6379C92.6457 44.5917 92.7097 44.5734 92.7687 44.5912C93.1019 44.6427 93.4378 44.6751 93.7747 44.6884C93.852 44.6997 93.9094 44.7661 93.9094 44.8442C93.9094 44.9223 93.852 44.9886 93.7747 45H93.7512ZM94.7572 44.9799C94.6751 44.9802 94.6066 44.9175 94.5996 44.8358C94.5956 44.7506 94.6588 44.6771 94.7438 44.6683C95.0815 44.6457 95.4175 44.6021 95.7497 44.5376C95.834 44.5219 95.915 44.5774 95.9308 44.6616C95.9465 44.7458 95.891 44.8268 95.8067 44.8425C95.4677 44.9087 95.1251 44.9546 94.7806 44.9799H94.7572ZM91.7393 44.6884H91.6991C91.3661 44.5933 91.0382 44.4815 90.7166 44.3533C90.6375 44.3195 90.6002 44.2285 90.6327 44.1489C90.6477 44.1106 90.6774 44.0798 90.7151 44.0634C90.7529 44.0471 90.7957 44.0465 90.8339 44.0618C91.1434 44.192 91.4602 44.3039 91.7829 44.3969C91.8226 44.4078 91.8562 44.4341 91.8764 44.47C91.8965 44.5059 91.9015 44.5483 91.8902 44.5879C91.8674 44.6493 91.8082 44.6896 91.7426 44.6884H91.7393ZM96.7691 44.5979C96.6944 44.5942 96.6326 44.5384 96.6212 44.4646C96.6099 44.3907 96.652 44.319 96.7221 44.293C97.0407 44.193 97.3531 44.0744 97.6577 43.9378C97.7332 43.9159 97.8134 43.953 97.8455 44.0248C97.8776 44.0966 97.8518 44.181 97.7851 44.2226C97.4693 44.3637 97.1458 44.4868 96.816 44.5912L96.7691 44.5979ZM89.8716 43.9278C89.8456 43.9278 89.8201 43.9209 89.7978 43.9077C89.494 43.7439 89.2006 43.5615 88.9193 43.3615C88.85 43.3112 88.8323 43.2154 88.879 43.1437C88.9294 43.074 89.0264 43.0576 89.097 43.1069C89.37 43.2986 89.6532 43.4753 89.9453 43.6363C89.9822 43.6555 90.0097 43.6887 90.0217 43.7284C90.0337 43.7681 90.0291 43.811 90.009 43.8474C89.9762 43.9037 89.913 43.9353 89.8481 43.9278H89.8716ZM98.6234 43.7703C98.5681 43.7705 98.5169 43.7411 98.4893 43.6932C98.4455 43.6191 98.4694 43.5236 98.5429 43.4788C98.829 43.3074 99.1055 43.1206 99.3712 42.9192C99.44 42.8685 99.5367 42.8819 99.5891 42.9494C99.6153 42.9818 99.6269 43.0235 99.6212 43.0648C99.6155 43.106 99.593 43.1431 99.5589 43.1672C99.2849 43.376 98.9994 43.5695 98.7039 43.7468C98.677 43.7643 98.6453 43.7725 98.6133 43.7703H98.6234ZM88.2117 42.7651C88.1733 42.7648 88.1364 42.7505 88.1078 42.7249C87.8509 42.4938 87.6068 42.2489 87.3768 41.9911C87.3167 41.9309 87.3167 41.8334 87.3768 41.7733C87.4381 41.7128 87.5367 41.7128 87.5981 41.7733C87.8183 42.0229 88.0535 42.259 88.3023 42.4803C88.3628 42.5416 88.3628 42.6401 88.3023 42.7014C88.277 42.7322 88.2411 42.7525 88.2017 42.7584L88.2117 42.7651ZM100.236 42.5439C100.194 42.5451 100.154 42.528 100.126 42.497C100.065 42.4357 100.065 42.3372 100.126 42.2759C100.364 42.0461 100.588 41.8021 100.796 41.5454C100.822 41.5129 100.86 41.4924 100.901 41.4886C100.942 41.4848 100.983 41.4981 101.014 41.5253C101.046 41.551 101.067 41.5884 101.071 41.6293C101.076 41.6702 101.064 41.7112 101.038 41.7431C100.816 42.0086 100.581 42.2625 100.334 42.5037C100.307 42.5235 100.276 42.5352 100.243 42.5372L100.236 42.5439ZM86.8637 41.2472C86.8128 41.2473 86.7651 41.2222 86.7363 41.1802C86.5369 40.8986 86.3544 40.6055 86.1898 40.3023C86.1499 40.2263 86.1783 40.1325 86.2535 40.0912C86.2898 40.0712 86.3327 40.0666 86.3725 40.0786C86.4123 40.0906 86.4455 40.1181 86.4647 40.1549C86.6234 40.4475 86.7992 40.7306 86.9912 41.0026C87.0404 41.0731 87.024 41.17 86.9543 41.2204C86.9235 41.2368 86.8885 41.2438 86.8537 41.2405L86.8637 41.2472ZM101.531 40.9825C101.474 40.9815 101.422 40.95 101.395 40.9C101.368 40.8501 101.37 40.7894 101.4 40.7413C101.582 40.4619 101.748 40.1721 101.896 39.8734C101.914 39.8364 101.946 39.8081 101.985 39.7948C102.024 39.7816 102.067 39.7846 102.104 39.8031C102.141 39.8211 102.169 39.8532 102.183 39.8922C102.196 39.9313 102.193 39.974 102.174 40.0108C102.021 40.3207 101.849 40.6216 101.661 40.9121C101.628 40.956 101.575 40.98 101.521 40.9758L101.531 40.9825ZM85.8947 39.4646C85.8312 39.465 85.774 39.4264 85.7505 39.3675C85.6207 39.0478 85.5087 38.7211 85.4152 38.3891C85.3933 38.306 85.4405 38.2205 85.5225 38.1947C85.6065 38.1732 85.6926 38.2221 85.717 38.3053C85.8023 38.6265 85.9076 38.9421 86.0322 39.2502C86.0647 39.3298 86.0274 39.4207 85.9483 39.4546L85.8947 39.4646ZM102.433 39.1631C102.416 39.1662 102.399 39.1662 102.382 39.1631C102.344 39.1494 102.312 39.1209 102.294 39.0838C102.277 39.0466 102.274 39.004 102.288 38.9654C102.4 38.6512 102.494 38.3313 102.57 38.0071C102.577 37.9469 102.618 37.896 102.675 37.8761C102.732 37.8562 102.796 37.8709 102.838 37.9138C102.881 37.9567 102.896 38.0204 102.875 38.0774C102.796 38.4179 102.698 38.7535 102.58 39.0827C102.546 39.1342 102.483 39.1595 102.423 39.1463L102.433 39.1631ZM85.3615 37.5078C85.2842 37.5102 85.2175 37.4538 85.2073 37.3771C85.1563 37.0351 85.1238 36.6906 85.11 36.3451C85.1081 36.2594 85.1752 36.1879 85.2609 36.1843C85.3027 36.1815 85.3437 36.1961 85.3742 36.2247C85.4047 36.2533 85.422 36.2933 85.4219 36.3351C85.4343 36.6716 85.4657 37.0072 85.5158 37.3403C85.5278 37.4252 85.4697 37.5041 85.385 37.5179L85.3615 37.5078ZM102.895 37.1727H102.879C102.838 37.1685 102.8 37.1481 102.774 37.116C102.748 37.0839 102.736 37.0428 102.741 37.0019C102.779 36.6681 102.798 36.3325 102.798 35.9966C102.798 35.7856 102.798 35.5711 102.775 35.3634C102.771 35.3219 102.784 35.2807 102.811 35.2492C102.839 35.2176 102.877 35.1984 102.919 35.1958C103.004 35.1918 103.078 35.2551 103.087 35.3399C103.087 35.5577 103.11 35.7789 103.11 36.0101C103.11 36.3549 103.09 36.6995 103.05 37.0421C103.041 37.1246 102.968 37.1853 102.885 37.1794L102.895 37.1727ZM85.2777 35.4605C85.1932 35.4517 85.131 35.3776 85.1369 35.293C85.1622 34.9488 85.2081 34.6064 85.2743 34.2677C85.2912 34.1827 85.3736 34.1273 85.4588 34.1437C85.5424 34.1621 85.5961 34.244 85.5795 34.328C85.5173 34.6605 85.4725 34.996 85.4453 35.3332C85.4317 35.4131 85.3584 35.4687 85.2777 35.4605ZM102.788 34.4989C102.713 34.4974 102.649 34.4447 102.634 34.3716C102.573 34.0442 102.493 33.7208 102.392 33.4032C102.378 33.325 102.424 33.2482 102.5 33.2244C102.576 33.2005 102.658 33.237 102.691 33.3094C102.795 33.6391 102.879 33.9748 102.942 34.3146C102.95 34.3551 102.941 34.397 102.918 34.431C102.895 34.465 102.859 34.4882 102.818 34.4955L102.788 34.4989ZM85.6667 33.4702C85.6512 33.4737 85.6352 33.4737 85.6197 33.4702C85.5379 33.4445 85.4917 33.3581 85.5158 33.2759C85.6223 32.9477 85.7466 32.6256 85.888 32.3109C85.9051 32.2518 85.9551 32.2082 86.0159 32.199C86.0767 32.1899 86.1373 32.217 86.1711 32.2684C86.2048 32.3197 86.2056 32.3861 86.173 32.4382C86.0352 32.7414 85.9154 33.0524 85.8142 33.3697C85.7962 33.4364 85.7358 33.483 85.6667 33.4836V33.4702ZM102.185 32.5622C102.123 32.5628 102.067 32.5274 102.04 32.4717C101.906 32.1671 101.754 31.8706 101.584 31.5838C101.562 31.5484 101.556 31.5056 101.566 31.4652C101.576 31.4248 101.602 31.3902 101.638 31.3693C101.713 31.3262 101.809 31.3516 101.853 31.4263C102.027 31.7231 102.185 32.0297 102.325 32.3444C102.342 32.3821 102.343 32.425 102.328 32.4634C102.313 32.5018 102.283 32.5326 102.245 32.5488C102.227 32.5627 102.207 32.572 102.185 32.5756V32.5622ZM86.4949 31.634C86.4666 31.6325 86.4391 31.6245 86.4144 31.6106C86.3409 31.5657 86.317 31.4703 86.3608 31.3961C86.5381 31.1 86.733 30.8147 86.9442 30.5417C86.9778 30.498 87.0321 30.4755 87.0867 30.4827C87.1414 30.4899 87.188 30.5256 87.2091 30.5765C87.2302 30.6274 87.2226 30.6856 87.189 30.7293C86.9875 30.9949 86.8005 31.2711 86.629 31.557C86.6004 31.6038 86.5498 31.6329 86.4949 31.634ZM101.142 30.8299C101.093 30.8304 101.047 30.808 101.018 30.7695C100.818 30.5031 100.601 30.249 100.37 30.0089C100.341 29.9799 100.324 29.94 100.324 29.8984C100.324 29.8567 100.341 29.8168 100.37 29.7878C100.399 29.7581 100.438 29.7413 100.479 29.7413C100.521 29.7413 100.56 29.7581 100.588 29.7878C100.826 30.0366 101.05 30.2984 101.259 30.5719C101.31 30.6417 101.297 30.7394 101.229 30.793C101.206 30.812 101.178 30.8247 101.148 30.8299H101.142ZM87.7289 30.0223C87.6887 30.0227 87.6501 30.007 87.6216 29.9788C87.5611 29.9175 87.5611 29.819 87.6216 29.7576C87.8614 29.5096 88.1156 29.2757 88.3827 29.0573C88.4143 29.031 88.455 29.0183 88.4959 29.0221C88.5368 29.0258 88.5745 29.0458 88.6007 29.0774C88.656 29.1441 88.647 29.2429 88.5806 29.2986C88.3233 29.5079 88.0782 29.7317 87.8462 29.9687C87.8179 30.0005 87.7781 30.0198 87.7356 30.0223H87.7289ZM99.74 29.3522C99.7033 29.3518 99.6678 29.3387 99.6394 29.3153C99.3833 29.1032 99.1157 28.9053 98.838 28.7223C98.7658 28.676 98.7448 28.58 98.7911 28.5078C98.8374 28.4356 98.9334 28.4146 99.0057 28.4609C99.2951 28.6498 99.5738 28.8545 99.8406 29.0741C99.8913 29.1166 99.91 29.1861 99.8875 29.2482C99.865 29.3104 99.8061 29.3519 99.74 29.3522ZM89.2982 28.7223C89.2449 28.7214 89.1957 28.6936 89.1674 28.6485C89.1449 28.614 89.1371 28.5718 89.146 28.5315C89.1548 28.4912 89.1794 28.4561 89.2143 28.4341C89.5032 28.2462 89.8034 28.0761 90.113 27.9248C90.1909 27.8879 90.284 27.919 90.3242 27.9952C90.3427 28.032 90.3457 28.0747 90.3325 28.1137C90.3192 28.1528 90.2909 28.1849 90.2538 28.2029C89.9556 28.3512 89.6657 28.5157 89.3854 28.6955C89.3627 28.7159 89.3349 28.7298 89.3049 28.7357L89.2982 28.7223ZM98.04 28.2398C98.0154 28.2406 97.9911 28.2348 97.9695 28.223C97.6709 28.0752 97.3641 27.9444 97.0508 27.831C96.9767 27.7965 96.9414 27.7112 96.9693 27.6344C96.9972 27.5577 97.0791 27.5151 97.1581 27.5361C97.4832 27.6537 97.8012 27.7902 98.1104 27.9449C98.1784 27.975 98.2152 28.0493 98.198 28.1216C98.1807 28.1939 98.1142 28.2436 98.04 28.2398ZM91.119 27.8243C91.0437 27.8219 90.9806 27.7667 90.9684 27.6925C90.9561 27.6182 90.9981 27.5457 91.0687 27.5194C91.3983 27.4046 91.7342 27.3084 92.0746 27.2312C92.1588 27.2124 92.2425 27.2646 92.2624 27.3485C92.2794 27.4322 92.2278 27.5147 92.145 27.5361C91.8203 27.6104 91.5001 27.7033 91.186 27.8142C91.1678 27.8263 91.1472 27.8343 91.1257 27.8377L91.119 27.8243ZM96.1286 27.5495H96.0951C95.7701 27.4728 95.4409 27.4146 95.1093 27.3753C95.0252 27.3648 94.9653 27.2885 94.9751 27.2044C94.9784 27.163 94.9986 27.1249 95.031 27.0989C95.0634 27.0729 95.105 27.0614 95.1461 27.067C95.4845 27.1076 95.8203 27.1669 96.1521 27.2446C96.236 27.2645 96.2883 27.3481 96.2695 27.4322C96.2594 27.501 96.2044 27.5546 96.1353 27.5629L96.1286 27.5495ZM93.1108 27.3686C93.0334 27.3572 92.9761 27.2909 92.9761 27.2128C92.9761 27.1346 93.0334 27.0683 93.1108 27.057C93.4448 27.0196 93.7806 27.0005 94.1167 27C94.2055 26.9998 94.279 27.0689 94.2844 27.1575C94.2871 27.1977 94.2733 27.2373 94.246 27.2671C94.2188 27.2968 94.1805 27.3141 94.1402 27.315C93.8041 27.3134 93.4682 27.3313 93.1342 27.3686H93.1108Z" fill="#E5E5E5"/>
<path fill-rule="evenodd" clip-rule="evenodd" d="M112.753 64.9933C112.408 64.9802 112.063 64.9466 111.721 64.8927C111.656 64.8966 111.596 64.8599 111.569 64.8005C111.542 64.7411 111.554 64.6712 111.6 64.6248C111.646 64.5783 111.715 64.5648 111.775 64.5909C112.108 64.6423 112.443 64.6747 112.78 64.6882C112.857 64.6995 112.915 64.7659 112.915 64.8441C112.915 64.9223 112.857 64.9886 112.78 65L112.753 64.9933ZM113.758 64.9732C113.676 64.9751 113.608 64.911 113.604 64.829C113.6 64.788 113.613 64.7473 113.64 64.7158C113.666 64.6844 113.704 64.6647 113.745 64.6613C114.082 64.6388 114.418 64.5951 114.75 64.5306C114.804 64.5204 114.86 64.54 114.896 64.5822C114.932 64.6243 114.943 64.6824 114.925 64.7347C114.906 64.787 114.861 64.8255 114.807 64.8357C114.469 64.9017 114.128 64.9476 113.785 64.9732H113.758ZM110.743 64.6814H110.703C110.371 64.5868 110.045 64.4749 109.725 64.3461C109.644 64.3136 109.605 64.2221 109.638 64.1416C109.672 64.0625 109.762 64.0241 109.842 64.0544C110.149 64.1867 110.465 64.2987 110.787 64.3897C110.826 64.4007 110.86 64.427 110.88 64.4629C110.9 64.4988 110.905 64.5413 110.894 64.5808C110.872 64.643 110.812 64.6837 110.747 64.6814H110.743ZM115.768 64.5909C115.7 64.5901 115.639 64.5456 115.618 64.4803C115.594 64.3979 115.64 64.3115 115.721 64.2858C116.039 64.1857 116.35 64.067 116.653 63.9303C116.732 63.8971 116.824 63.9326 116.86 64.0108C116.877 64.0486 116.878 64.0915 116.863 64.1299C116.848 64.1684 116.818 64.1992 116.78 64.2154C116.459 64.3601 116.131 64.4855 115.795 64.5909H115.768ZM108.874 63.9203C108.848 63.9203 108.822 63.9134 108.8 63.9001C108.497 63.7362 108.203 63.5537 107.922 63.3536C107.853 63.3032 107.836 63.2062 107.886 63.1356C107.935 63.0663 108.031 63.0498 108.1 63.0987C108.373 63.2906 108.656 63.4674 108.948 63.6285C108.984 63.6477 109.012 63.681 109.024 63.7208C109.036 63.7605 109.031 63.8034 109.011 63.8398C108.981 63.8906 108.926 63.9213 108.867 63.9203H108.874ZM117.618 63.7593C117.547 63.7613 117.484 63.7148 117.465 63.6466C117.446 63.5783 117.476 63.5059 117.537 63.4709C117.823 63.2994 118.099 63.1125 118.365 62.911C118.397 62.8857 118.439 62.8747 118.48 62.8803C118.521 62.886 118.558 62.9079 118.582 62.9411C118.609 62.9736 118.62 63.0154 118.614 63.0566C118.609 63.0979 118.586 63.135 118.552 63.1591C118.279 63.3692 117.994 63.5629 117.698 63.7392C117.671 63.7532 117.641 63.7602 117.611 63.7593H117.618ZM107.216 62.7534C107.177 62.7531 107.14 62.7387 107.112 62.7131C106.855 62.4819 106.611 62.2367 106.381 61.9788C106.321 61.9185 106.321 61.821 106.381 61.7608C106.443 61.7003 106.541 61.7003 106.602 61.7608C106.824 62.0101 107.059 62.2474 107.306 62.4717C107.336 62.5001 107.352 62.5395 107.352 62.5807C107.352 62.6218 107.336 62.6612 107.306 62.6896C107.282 62.721 107.248 62.7425 107.209 62.75L107.216 62.7534ZM119.232 62.532C119.189 62.5338 119.148 62.5166 119.118 62.4851C119.058 62.4237 119.058 62.3251 119.118 62.2638C119.355 62.033 119.579 61.789 119.788 61.5328C119.814 61.5003 119.852 61.4797 119.893 61.4759C119.934 61.4721 119.975 61.4854 120.006 61.5127C120.038 61.5383 120.059 61.5758 120.063 61.6168C120.068 61.6577 120.056 61.6987 120.03 61.7306C119.809 61.9959 119.574 62.2489 119.326 62.4885C119.299 62.5139 119.263 62.5282 119.226 62.5287L119.232 62.532ZM105.862 61.2377C105.811 61.2378 105.764 61.2127 105.735 61.1706C105.536 60.8891 105.355 60.5957 105.192 60.2921C105.166 60.2436 105.167 60.1847 105.196 60.1376C105.225 60.0905 105.277 60.0624 105.332 60.0638C105.387 60.0653 105.437 60.096 105.463 60.1446C105.624 60.4365 105.799 60.7197 105.989 60.9929C106.039 61.0635 106.022 61.1605 105.953 61.2109C105.925 61.2278 105.894 61.2371 105.862 61.2377ZM120.515 60.9728C120.486 60.9716 120.457 60.9624 120.432 60.946C120.397 60.9239 120.372 60.8888 120.363 60.8485C120.354 60.8082 120.362 60.766 120.385 60.7314C120.567 60.4518 120.732 60.1618 120.881 59.8629C120.905 59.8132 120.954 59.7803 121.009 59.7767C121.065 59.7732 121.118 59.7994 121.149 59.8455C121.179 59.8916 121.183 59.9507 121.159 60.0004C121.007 60.3105 120.836 60.6106 120.646 60.899C120.616 60.9416 120.567 60.9667 120.515 60.9661V60.9728ZM104.894 59.4538C104.831 59.4542 104.773 59.4156 104.75 59.3566C104.62 59.0366 104.508 58.7098 104.415 58.3774C104.402 58.2982 104.451 58.2221 104.528 58.2007C104.605 58.1792 104.686 58.2192 104.716 58.2936C104.802 58.615 104.907 58.9308 105.031 59.2392C105.064 59.3188 105.027 59.4099 104.948 59.4437L104.894 59.4538ZM121.42 59.152C121.402 59.1555 121.384 59.1555 121.366 59.152C121.328 59.1384 121.296 59.1098 121.278 59.0726C121.261 59.0355 121.259 58.9929 121.272 58.9542C121.384 58.64 121.478 58.3198 121.554 57.9952C121.581 57.9196 121.66 57.8762 121.738 57.8942C121.816 57.9123 121.868 57.986 121.859 58.0656C121.78 58.4063 121.681 58.7421 121.564 59.0715C121.534 59.122 121.478 59.1508 121.42 59.1453V59.152ZM104.361 57.4955C104.285 57.4964 104.219 57.4407 104.207 57.3648C104.156 57.0225 104.124 56.6777 104.11 56.332C104.108 56.2462 104.175 56.1746 104.261 56.171C104.302 56.1692 104.343 56.1842 104.373 56.2126C104.403 56.241 104.421 56.2804 104.422 56.3219C104.434 56.6587 104.465 56.9946 104.515 57.3279C104.527 57.4128 104.469 57.4918 104.385 57.5056L104.361 57.4955ZM121.879 57.1602C121.837 57.156 121.799 57.1351 121.773 57.1022C121.747 57.0693 121.736 57.0273 121.741 56.9858C121.779 56.6519 121.798 56.316 121.798 55.9799C121.798 55.7686 121.798 55.554 121.775 55.3428C121.78 55.2639 121.843 55.2011 121.922 55.196C122.001 55.1909 122.071 55.2451 122.087 55.3227C122.087 55.5406 122.11 55.7619 122.11 55.9933C122.11 56.3384 122.09 56.6833 122.05 57.0261C122.047 57.0681 122.027 57.1071 121.995 57.1339C121.963 57.1606 121.92 57.1726 121.879 57.1669V57.1602ZM104.288 55.4534C104.247 55.45 104.209 55.4304 104.182 55.3989C104.156 55.3674 104.143 55.3267 104.147 55.2858C104.174 54.9415 104.22 54.599 104.284 54.2597C104.301 54.1746 104.383 54.1192 104.468 54.1356C104.552 54.1541 104.606 54.236 104.589 54.32C104.527 54.6528 104.482 54.9886 104.455 55.326C104.451 55.3661 104.431 55.4029 104.399 55.4281C104.368 55.4533 104.328 55.4648 104.288 55.4601V55.4534ZM121.782 54.4911C121.707 54.4896 121.643 54.4368 121.628 54.3636C121.568 54.0358 121.487 53.7121 121.386 53.3946C121.372 53.3163 121.418 53.2395 121.494 53.2156C121.57 53.1917 121.652 53.2282 121.685 53.3007C121.788 53.6307 121.872 53.9666 121.936 54.3066C121.944 54.3471 121.935 54.3891 121.912 54.4231C121.888 54.4571 121.852 54.4804 121.812 54.4877L121.782 54.4911ZM104.676 53.4616C104.661 53.4648 104.645 53.4648 104.629 53.4616C104.59 53.4501 104.556 53.4228 104.537 53.386C104.518 53.3492 104.515 53.3062 104.529 53.2671C104.633 52.9383 104.756 52.6158 104.897 52.3014C104.939 52.2347 105.023 52.2089 105.095 52.241C105.167 52.2731 105.204 52.3533 105.182 52.4288C105.044 52.7323 104.925 53.0435 104.824 53.361C104.803 53.4252 104.743 53.4686 104.676 53.4683V53.4616ZM121.179 52.5529C121.116 52.5529 121.06 52.5161 121.035 52.459C120.9 52.1556 120.747 51.86 120.579 51.5738C120.557 51.5383 120.55 51.4956 120.561 51.4551C120.571 51.4147 120.597 51.3801 120.633 51.3592C120.707 51.3154 120.802 51.3393 120.847 51.4128C121.022 51.7099 121.179 52.0167 121.319 52.3316C121.336 52.3698 121.337 52.4132 121.322 52.4522C121.307 52.4912 121.277 52.5226 121.239 52.5395C121.221 52.5511 121.2 52.558 121.179 52.5596V52.5529ZM105.51 51.6107C105.482 51.6108 105.454 51.6026 105.43 51.5872C105.357 51.5423 105.333 51.4468 105.376 51.3726C105.554 51.0763 105.748 50.7907 105.959 50.5175C105.984 50.4843 106.021 50.4624 106.062 50.4567C106.103 50.451 106.144 50.4621 106.177 50.4873C106.245 50.541 106.258 50.6388 106.207 50.7086C106.003 50.9718 105.815 51.2473 105.644 51.5335C105.618 51.584 105.567 51.6162 105.51 51.6174V51.6107ZM120.147 50.8059C120.097 50.8064 120.05 50.7842 120.02 50.7455C119.82 50.4788 119.604 50.2246 119.373 49.9844C119.343 49.9553 119.326 49.9154 119.326 49.8737C119.326 49.832 119.343 49.7921 119.373 49.763C119.401 49.7333 119.441 49.7165 119.482 49.7165C119.523 49.7165 119.562 49.7333 119.591 49.763C119.829 50.0112 120.053 50.2732 120.261 50.5477C120.312 50.6176 120.298 50.7154 120.231 50.769C120.208 50.7906 120.18 50.8056 120.15 50.8126L120.147 50.8059ZM106.747 49.9978C106.706 49.9969 106.666 49.9815 106.636 49.9542C106.576 49.8928 106.576 49.7942 106.636 49.7329C106.876 49.4846 107.13 49.2506 107.396 49.032C107.428 49.0048 107.468 48.9915 107.51 48.9953C107.551 48.9991 107.589 49.0197 107.614 49.0522C107.642 49.0839 107.655 49.1253 107.651 49.1671C107.647 49.2088 107.627 49.2472 107.594 49.2735C107.338 49.4838 107.093 49.7077 106.86 49.9441C106.834 49.9787 106.794 50.0006 106.75 50.0045L106.747 49.9978ZM118.743 49.3271C118.707 49.3279 118.671 49.3161 118.643 49.2936C118.387 49.0795 118.119 48.8813 117.839 48.7001C117.779 48.6491 117.765 48.5628 117.805 48.4955C117.828 48.4612 117.863 48.4372 117.903 48.429C117.944 48.4209 117.985 48.4291 118.02 48.4519C118.309 48.6398 118.588 48.8447 118.854 49.0656C118.918 49.1221 118.927 49.2196 118.874 49.2869C118.842 49.3261 118.793 49.3474 118.743 49.3439V49.3271ZM108.311 48.7001C108.258 48.6992 108.209 48.6714 108.18 48.6263C108.158 48.5917 108.15 48.5495 108.159 48.5092C108.168 48.4688 108.192 48.4337 108.227 48.4117C108.517 48.2251 108.817 48.0549 109.125 47.902C109.203 47.8651 109.296 47.8962 109.336 47.9724C109.355 48.0093 109.358 48.052 109.344 48.0911C109.331 48.1302 109.303 48.1623 109.266 48.1803C108.967 48.3275 108.677 48.4921 108.398 48.6732C108.374 48.6961 108.344 48.7113 108.311 48.7168V48.7001ZM117.045 48.2172C117.02 48.218 116.996 48.2122 116.974 48.2004C116.676 48.0518 116.37 47.9208 116.056 47.8081C115.999 47.7927 115.955 47.7462 115.943 47.6878C115.931 47.6294 115.953 47.5692 115.999 47.5322C116.046 47.4953 116.11 47.4878 116.164 47.513C116.488 47.6313 116.806 47.7679 117.115 47.9221C117.152 47.9401 117.18 47.9724 117.193 48.0117C117.206 48.051 117.202 48.0938 117.182 48.13C117.162 48.19 117.108 48.2315 117.045 48.234V48.2172ZM110.13 47.8249C110.055 47.8225 109.992 47.7673 109.98 47.693C109.967 47.6187 110.009 47.5461 110.08 47.5197C110.409 47.4044 110.745 47.3081 111.085 47.2314C111.169 47.2125 111.253 47.2648 111.272 47.3487C111.281 47.3888 111.274 47.4307 111.252 47.4653C111.23 47.4999 111.195 47.5243 111.155 47.5332C110.831 47.6097 110.511 47.7038 110.197 47.8148C110.176 47.8232 110.153 47.8267 110.13 47.8249ZM115.155 47.5499H115.118C114.794 47.4731 114.465 47.4149 114.133 47.3756C114.092 47.3706 114.055 47.3493 114.03 47.3165C114.005 47.2837 113.994 47.2422 113.999 47.2012C114.004 47.1604 114.024 47.1231 114.056 47.0978C114.089 47.0725 114.13 47.0614 114.17 47.0671C114.509 47.1061 114.844 47.1655 115.175 47.2448C115.249 47.2662 115.296 47.3371 115.288 47.4131C115.279 47.489 115.218 47.5481 115.142 47.5533L115.155 47.5499ZM112.123 47.3689C112.044 47.3676 111.978 47.3072 111.969 47.228C111.961 47.1432 112.022 47.0675 112.107 47.057C112.44 47.0197 112.776 47.0006 113.112 47C113.2 46.9998 113.274 47.069 113.279 47.1576C113.282 47.1976 113.268 47.2369 113.241 47.2661C113.213 47.2954 113.175 47.3119 113.135 47.3118C112.799 47.3114 112.464 47.3305 112.13 47.3689H112.123Z" fill="#E5E5E5"/>
<path fill-rule="evenodd" clip-rule="evenodd" d="M63.7595 85.9966C63.4146 85.986 63.0707 85.9535 62.7299 85.8994C62.6687 85.8974 62.6142 85.8602 62.5901 85.8039C62.566 85.7477 62.5766 85.6825 62.6174 85.6368C62.6581 85.5912 62.7216 85.5732 62.7802 85.5908C63.1133 85.6429 63.4494 85.6742 63.7864 85.6847C63.8734 85.6847 63.944 85.7553 63.944 85.8423C63.944 85.9294 63.8734 86 63.7864 86L63.7595 85.9966ZM64.7657 85.9765C64.6883 85.9651 64.631 85.8988 64.631 85.8205C64.631 85.7423 64.6883 85.6759 64.7657 85.6646C65.0979 85.6415 65.4283 85.5978 65.7551 85.5337C65.8402 85.5173 65.9226 85.5728 65.9395 85.6578C65.9473 85.6984 65.9386 85.7403 65.9153 85.7743C65.892 85.8084 65.856 85.8317 65.8154 85.839C65.4764 85.9052 65.1337 85.9512 64.7892 85.9765H64.7657ZM61.7472 85.6847H61.707C61.3737 85.5906 61.0456 85.4786 60.7243 85.3492C60.6498 85.3131 60.6159 85.2254 60.6469 85.1485C60.6778 85.0717 60.7629 85.0318 60.8417 85.0574C61.1508 85.1858 61.4665 85.2977 61.7875 85.3928C61.8278 85.4031 61.8623 85.4291 61.8831 85.4651C61.904 85.5011 61.9094 85.544 61.8982 85.584C61.875 85.6438 61.818 85.6836 61.7539 85.6847H61.7472ZM66.778 85.5941C66.7097 85.5939 66.6497 85.5489 66.6304 85.4834C66.6178 85.4443 66.6213 85.4017 66.6402 85.3652C66.6591 85.3287 66.6918 85.3012 66.731 85.2889C67.048 85.1873 67.3593 85.0686 67.6634 84.9333C67.7156 84.9007 67.7819 84.9014 67.8334 84.9352C67.8848 84.969 67.9119 85.0296 67.9028 85.0904C67.8936 85.1513 67.8499 85.2013 67.7908 85.2184C67.4764 85.3602 67.1538 85.4834 66.8249 85.5874L66.778 85.5941ZM59.8758 84.9232C59.8499 84.9228 59.8245 84.9159 59.802 84.9031C59.499 84.7376 59.2057 84.555 58.9233 84.3563C58.8694 84.3275 58.8369 84.2702 58.84 84.2091C58.8432 84.148 58.8814 84.0942 58.938 84.0712C58.9946 84.0481 59.0595 84.0599 59.1044 84.1014C59.377 84.294 59.6603 84.471 59.9529 84.6314C60.018 84.6642 60.0511 84.7381 60.0325 84.8085C60.0139 84.879 59.9486 84.9268 59.8758 84.9232ZM68.6293 84.7656C68.5754 84.7639 68.526 84.7348 68.4985 84.6884C68.4765 84.653 68.4699 84.6102 68.48 84.5697C68.4901 84.5293 68.5161 84.4947 68.5521 84.4737C68.8376 84.3029 69.1131 84.1159 69.3772 83.9135C69.4471 83.8624 69.5449 83.8758 69.5985 83.9437C69.6493 84.0126 69.6359 84.1093 69.5683 84.1618C69.2936 84.3716 69.0069 84.5654 68.7098 84.7421C68.6835 84.7581 68.6533 84.7662 68.6226 84.7656H68.6293ZM58.2324 83.7592C58.194 83.7589 58.1571 83.7446 58.1285 83.719C57.8707 83.4885 57.6265 83.2432 57.3973 82.9843C57.3399 82.9204 57.3452 82.8221 57.4091 82.7646C57.473 82.7072 57.5713 82.7125 57.6287 82.7764C57.851 83.0255 58.0873 83.2618 58.3364 83.4842C58.3849 83.5276 58.4017 83.5964 58.3786 83.6573C58.3556 83.7182 58.2975 83.7587 58.2324 83.7592ZM70.2592 83.5378C70.1949 83.5393 70.1364 83.5006 70.1125 83.4409C70.0886 83.3811 70.1043 83.3128 70.1519 83.2695C70.3892 83.0386 70.6131 82.7945 70.8227 82.5382C70.8805 82.4849 70.9686 82.4824 71.0294 82.5322C71.0902 82.582 71.105 82.669 71.0642 82.7361C70.8444 83.0023 70.6092 83.2555 70.3599 83.4942C70.3241 83.5282 70.2738 83.542 70.2257 83.5311L70.2592 83.5378ZM56.8641 82.243C56.8123 82.2425 56.7639 82.2176 56.7333 82.1759C56.5361 81.8932 56.3548 81.5998 56.19 81.2971C56.1534 81.2474 56.1492 81.1809 56.1792 81.127C56.2092 81.0731 56.2678 81.0416 56.3293 81.0465C56.3908 81.0513 56.4438 81.0915 56.465 81.1495C56.6237 81.4424 56.7995 81.7258 56.9915 81.9981C57.0382 82.07 57.0206 82.1658 56.9513 82.2162C56.9252 82.233 56.8951 82.2423 56.8641 82.243ZM71.5337 81.978C71.5027 81.9773 71.4725 81.968 71.4465 81.9512C71.3765 81.903 71.3572 81.8081 71.4029 81.7365C71.5841 81.4568 71.7487 81.1667 71.8959 80.8677C71.9349 80.7899 72.0294 80.7584 72.1072 80.7972C72.1443 80.8153 72.1726 80.8474 72.1859 80.8865C72.1991 80.9256 72.1961 80.9683 72.1776 81.0052C72.0244 81.3147 71.8531 81.6149 71.6645 81.9042C71.6339 81.9455 71.5851 81.9693 71.5337 81.9679V81.978ZM55.8948 80.4584C55.8313 80.4588 55.7741 80.4202 55.7506 80.3612C55.6193 80.0405 55.5073 79.7123 55.4152 79.3783C55.3957 79.2953 55.4442 79.2115 55.5259 79.1871C55.5659 79.1759 55.6088 79.1813 55.6448 79.2021C55.6808 79.223 55.7069 79.2575 55.7171 79.2978C55.8051 79.6189 55.9115 79.9348 56.0357 80.2438C56.066 80.3243 56.0275 80.4144 55.9485 80.4484C55.9307 80.4512 55.9126 80.4512 55.8948 80.4484V80.4584ZM72.4359 80.1565H72.3822C72.3027 80.1266 72.2612 80.0391 72.2883 79.9586C72.4016 79.6445 72.4968 79.3242 72.5734 78.9993C72.5813 78.9587 72.6056 78.9232 72.6404 78.901C72.6753 78.8788 72.7177 78.8719 72.7578 78.8818C72.8418 78.9018 72.8941 78.9855 72.8752 79.0697C72.7989 79.4109 72.7015 79.747 72.5834 80.076C72.5512 80.1252 72.4943 80.1523 72.4359 80.1465V80.1565ZM55.3582 78.4994C55.2813 78.4973 55.2167 78.4411 55.2039 78.3653C55.1541 78.0239 55.1227 77.6802 55.11 77.3354C55.1081 77.2496 55.1752 77.1781 55.2609 77.1744C55.3024 77.1726 55.3429 77.1876 55.3732 77.216C55.4035 77.2444 55.4211 77.2839 55.4219 77.3254C55.4333 77.6623 55.4635 77.9982 55.5125 78.3317C55.5192 78.3723 55.509 78.4139 55.4843 78.4469C55.4596 78.4798 55.4225 78.5012 55.3817 78.5061L55.3582 78.4994ZM72.8987 78.164H72.8786C72.7926 78.1535 72.7312 78.0756 72.7411 77.9896C72.7806 77.6556 72.7997 77.3195 72.7981 76.9832C72.7981 76.7719 72.7981 76.5572 72.7746 76.3459C72.7799 76.267 72.8428 76.2041 72.9217 76.1991C73.0007 76.194 73.0711 76.2482 73.0865 76.3258C73.1033 76.5438 73.11 76.7652 73.11 76.9966C73.1094 77.3418 73.0904 77.6867 73.053 78.0298C73.0449 78.1047 72.984 78.1629 72.9088 78.1674L72.8987 78.164ZM55.2878 76.4566C55.202 76.4494 55.1378 76.3748 55.1436 76.2889C55.17 75.9442 55.2171 75.6014 55.2844 75.2624C55.3029 75.1799 55.3819 75.1257 55.4655 75.1383C55.5506 75.1552 55.606 75.2376 55.5896 75.3228C55.5264 75.6498 55.4816 75.9802 55.4555 76.3123C55.4529 76.3542 55.4337 76.3933 55.4023 76.421C55.3708 76.4487 55.3296 76.4627 55.2878 76.4599V76.4566ZM72.8014 75.4939C72.7262 75.4936 72.6616 75.4403 72.6472 75.3664C72.5853 75.0389 72.5046 74.7152 72.4057 74.3969C72.3931 74.3578 72.3966 74.3152 72.4155 74.2787C72.4344 74.2422 72.4671 74.2147 72.5063 74.2024C72.5887 74.1759 72.677 74.2208 72.7042 74.303C72.8054 74.6336 72.8883 74.9696 72.9524 75.3094C72.9602 75.3499 72.9515 75.3918 72.9282 75.4259C72.9048 75.4599 72.8689 75.4832 72.8283 75.4905L72.8014 75.4939ZM55.6735 74.4607C55.658 74.4638 55.642 74.4638 55.6265 74.4607C55.5873 74.4484 55.5546 74.4209 55.5357 74.3844C55.5168 74.3478 55.5133 74.3053 55.5259 74.2661C55.6295 73.9366 55.7539 73.6139 55.8982 73.3C55.9334 73.2222 56.025 73.1877 56.1028 73.2229C56.1806 73.2581 56.2151 73.3497 56.1799 73.4275C56.0446 73.7317 55.9259 74.043 55.8244 74.36C55.8023 74.4241 55.7411 74.4662 55.6735 74.464V74.4607ZM72.1944 73.555C72.1324 73.5564 72.0761 73.5189 72.0535 73.4611C71.9171 73.1575 71.7637 72.8618 71.5941 72.5755C71.5618 72.5027 71.5888 72.4173 71.657 72.3763C71.7253 72.3353 71.8134 72.3517 71.8624 72.4145C72.0383 72.7116 72.1973 73.0185 72.3386 73.3336C72.3719 73.4133 72.3364 73.505 72.2581 73.5416C72.2385 73.552 72.2166 73.5577 72.1944 73.5583V73.555ZM56.5119 72.609C56.4838 72.6095 56.456 72.6025 56.4314 72.5889C56.3954 72.568 56.3694 72.5333 56.3593 72.4929C56.3491 72.4525 56.3558 72.4096 56.3778 72.3742C56.5541 72.0779 56.7478 71.7922 56.958 71.5188C56.9827 71.4856 57.0197 71.4637 57.0607 71.458C57.1016 71.4523 57.1432 71.4634 57.176 71.4886C57.2092 71.5133 57.2311 71.5503 57.2368 71.5913C57.2425 71.6323 57.2314 71.6739 57.2062 71.7067C57.0027 71.9719 56.8146 72.2485 56.6427 72.5352C56.6157 72.5821 56.566 72.6114 56.5119 72.6124V72.609ZM71.1614 71.8073C71.1129 71.8078 71.0669 71.7855 71.0373 71.7469C70.8353 71.4817 70.6192 71.2276 70.39 70.9855C70.3295 70.9241 70.3295 70.8255 70.39 70.7641C70.4191 70.7341 70.459 70.7173 70.5007 70.7173C70.5424 70.7173 70.5823 70.7341 70.6114 70.7641C70.8493 71.0131 71.0733 71.2752 71.2822 71.549C71.3202 71.5958 71.3275 71.6605 71.3008 71.7146C71.2741 71.7687 71.2184 71.8023 71.1581 71.8006L71.1614 71.8073ZM57.7461 70.9989C57.7062 70.9982 57.6679 70.9826 57.6388 70.9553C57.6089 70.9262 57.592 70.8863 57.592 70.8446C57.592 70.8029 57.6089 70.7629 57.6388 70.7339C57.8775 70.4856 58.1306 70.2515 58.3968 70.0328C58.4285 70.0053 58.47 69.992 58.5117 69.9958C58.5535 69.9996 58.5919 70.0202 58.6181 70.0529C58.6726 70.1206 58.6621 70.2196 58.5946 70.2743C58.3365 70.4829 58.0912 70.7069 57.8602 70.9452C57.8319 70.9794 57.7905 71.0001 57.7461 71.0022V70.9989ZM69.7595 70.328C69.7227 70.3275 69.6872 70.3145 69.6589 70.2911C69.4022 70.0779 69.1334 69.8797 68.854 69.6974C68.7836 69.648 68.7644 69.552 68.8104 69.4793C68.833 69.4449 68.8683 69.421 68.9086 69.4128C68.9489 69.4046 68.9908 69.4129 69.025 69.4357C69.3134 69.6248 69.5911 69.8297 69.8568 70.0496C69.8895 70.0758 69.9101 70.1142 69.9139 70.156C69.9177 70.1978 69.9043 70.2393 69.8769 70.271C69.8517 70.3128 69.8081 70.3401 69.7595 70.3448V70.328ZM59.3157 69.6974C59.2625 69.6964 59.2132 69.6687 59.1849 69.6236C59.1624 69.5889 59.1547 69.5467 59.1635 69.5064C59.1723 69.466 59.1969 69.4309 59.2319 69.4089C59.5208 69.2208 59.821 69.0505 60.1307 68.899C60.1676 68.8805 60.2103 68.8775 60.2494 68.8908C60.2885 68.904 60.3206 68.9323 60.3386 68.9694C60.3571 69.0063 60.3601 69.0491 60.3469 69.0881C60.3336 69.1272 60.3053 69.1594 60.2682 69.1774C59.9693 69.3246 59.6792 69.4893 59.3996 69.6705C59.3769 69.6935 59.3475 69.7087 59.3157 69.7141V69.6974ZM68.0591 69.2143C68.0362 69.2213 68.0117 69.2213 67.9887 69.2143C67.6897 69.067 67.3829 68.936 67.0698 68.8218C66.9885 68.7919 66.9466 68.7021 66.9758 68.6206C67.0071 68.5406 67.0957 68.4993 67.1771 68.5266C67.5012 68.6443 67.8181 68.781 68.1262 68.9359C68.1633 68.9539 68.1916 68.9861 68.2049 69.0252C68.2181 69.0642 68.2151 69.107 68.1966 69.1439C68.1711 69.1967 68.1178 69.2305 68.0591 69.2311V69.2143ZM61.1368 68.8252C61.061 68.8244 60.9965 68.7696 60.9833 68.6948C60.9702 68.6201 61.0121 68.5466 61.0832 68.5199C61.413 68.4055 61.7489 68.3092 62.0893 68.2315C62.1298 68.2215 62.1727 68.2283 62.2081 68.2504C62.2435 68.2725 62.2684 68.3081 62.2771 68.3489C62.2871 68.389 62.2802 68.4314 62.258 68.4663C62.2358 68.5011 62.2003 68.5254 62.1598 68.5334C61.8354 68.6109 61.5153 68.7049 61.2006 68.8151L61.1368 68.8252ZM66.1475 68.5501H66.1106C65.7867 68.473 65.4585 68.4148 65.1279 68.3757C65.0427 68.3655 64.9819 68.2882 64.9921 68.2029C65.0022 68.1177 65.0796 68.0569 65.1648 68.0671C65.5031 68.1083 65.839 68.1677 66.1709 68.2449C66.2446 68.2667 66.2917 68.3385 66.2826 68.4147C66.2735 68.491 66.2107 68.5496 66.134 68.5535L66.1475 68.5501ZM63.129 68.369C63.0505 68.3625 62.9888 68.299 62.9845 68.2203C62.9803 68.1416 63.0348 68.0719 63.1122 68.057C63.4463 68.0196 63.7822 68.0005 64.1184 68C64.2072 67.9998 64.2808 68.069 64.2861 68.1577C64.2889 68.1976 64.2749 68.237 64.2476 68.2662C64.2202 68.2955 64.1819 68.3121 64.1419 68.312C63.8057 68.3116 63.4697 68.3306 63.1357 68.369H63.129Z" fill="#E5E5E5"/>
<path fill-rule="evenodd" clip-rule="evenodd" d="M84.9907 36.97H84.2293C84.1634 36.97 84.11 36.7596 84.11 36.5C84.11 36.2405 84.1634 36.03 84.2293 36.03H84.9907C85.0566 36.03 85.11 36.2405 85.11 36.5C85.11 36.7596 85.0566 36.97 84.9907 36.97ZM82.9907 36.97H82.2293C82.1634 36.97 82.11 36.7596 82.11 36.5C82.11 36.2405 82.1634 36.03 82.2293 36.03H82.9907C83.0566 36.03 83.11 36.2405 83.11 36.5C83.11 36.7596 83.0566 36.97 82.9907 36.97ZM80.9907 36.97H80.2293C80.1634 36.97 80.11 36.7596 80.11 36.5C80.11 36.2405 80.1634 36.03 80.2293 36.03H80.9907C81.0566 36.03 81.11 36.2405 81.11 36.5C81.11 36.7596 81.0566 36.97 80.9907 36.97ZM78.9907 36.97H78.2293C78.1634 36.97 78.11 36.7596 78.11 36.5C78.11 36.2405 78.1634 36.03 78.2293 36.03H78.9907C79.0566 36.03 79.11 36.2405 79.11 36.5C79.11 36.7596 79.0566 36.97 78.9907 36.97ZM76.9907 36.97H76.2293C76.1634 36.97 76.11 36.7596 76.11 36.5C76.11 36.2405 76.1634 36.03 76.2293 36.03H76.9907C77.0566 36.03 77.11 36.2405 77.11 36.5C77.11 36.7596 77.0566 36.97 76.9907 36.97ZM74.9907 36.97H74.2293C74.1634 36.97 74.11 36.7596 74.11 36.5C74.11 36.2405 74.1634 36.03 74.2293 36.03H74.9907C75.0566 36.03 75.11 36.2405 75.11 36.5C75.11 36.7596 75.0566 36.97 74.9907 36.97ZM72.9907 36.97H72.2293C72.1634 36.97 72.11 36.7596 72.11 36.5C72.11 36.2405 72.1634 36.03 72.2293 36.03H72.9907C73.0566 36.03 73.11 36.2405 73.11 36.5C73.11 36.7596 73.0566 36.97 72.9907 36.97ZM70.9907 36.97H70.2293C70.1634 36.97 70.11 36.7596 70.11 36.5C70.11 36.2405 70.1634 36.03 70.2293 36.03H70.9907C71.0566 36.03 71.11 36.2405 71.11 36.5C71.11 36.7596 71.0566 36.97 70.9907 36.97Z" fill="#E5E5E5"/>
<path fill-rule="evenodd" clip-rule="evenodd" d="M108.076 78.4917L107.236 79.058C107.203 79.0836 107.143 79.067 107.07 79.0119C106.997 78.9569 106.916 78.868 106.847 78.7654C106.778 78.6621 106.725 78.5536 106.7 78.4639C106.675 78.3742 106.681 78.3106 106.716 78.287L107.556 77.7207C107.628 77.6717 107.805 77.8065 107.95 78.0217C108.019 78.1242 108.071 78.2319 108.095 78.3204C108.119 78.4088 108.112 78.4706 108.076 78.4917ZM106.377 79.6376L105.537 80.2039C105.504 80.2294 105.444 80.2128 105.371 80.1578C105.298 80.1027 105.218 80.0138 105.149 79.9112C105.079 79.8079 105.026 79.6994 105.001 79.6097C104.977 79.52 104.982 79.4564 105.017 79.4329L105.857 78.8666C105.929 78.8176 106.106 78.9523 106.251 79.1675C106.32 79.2701 106.373 79.3778 106.396 79.4662C106.42 79.5547 106.413 79.6164 106.377 79.6376ZM104.678 80.7834L103.839 81.3497C103.805 81.3753 103.746 81.3587 103.672 81.3036C103.599 81.2485 103.519 81.1597 103.45 81.057C103.38 80.9537 103.327 80.8453 103.302 80.7555C103.278 80.6658 103.284 80.6022 103.318 80.5787L104.158 80.0124C104.231 79.9634 104.407 80.0981 104.552 80.3133C104.622 80.4159 104.674 80.5236 104.698 80.612C104.721 80.7005 104.714 80.7623 104.678 80.7834ZM102.979 81.9292L102.14 82.4955C102.107 82.5211 102.047 82.5045 101.974 82.4494C101.9 82.3943 101.82 82.3055 101.751 82.2029C101.681 82.0995 101.628 81.9911 101.604 81.9014C101.579 81.8117 101.585 81.748 101.62 81.7245L102.459 81.1582C102.532 81.1092 102.709 81.2439 102.854 81.4591C102.923 81.5617 102.975 81.6694 102.999 81.7579C103.023 81.8463 103.015 81.9081 102.979 81.9292ZM101.281 83.075L100.441 83.6413C100.408 83.6669 100.348 83.6503 100.275 83.5952C100.202 83.5402 100.121 83.4513 100.052 83.3487C99.9826 83.2454 99.9296 83.1369 99.9049 83.0472C99.8803 82.9575 99.8861 82.8939 99.921 82.8703L100.761 82.304C100.795 82.2805 100.857 82.299 100.931 82.3554C101.004 82.4118 101.085 82.5016 101.155 82.6049C101.224 82.7075 101.276 82.8152 101.3 82.9037C101.324 82.9921 101.317 83.0539 101.281 83.075ZM99.5818 84.2208L98.7423 84.7872C98.7091 84.8127 98.6492 84.7961 98.5761 84.7411C98.5029 84.686 98.4227 84.5971 98.3535 84.4945C98.2838 84.3912 98.2308 84.2827 98.2062 84.193C98.1816 84.1033 98.1873 84.0397 98.2222 84.0161L99.0618 83.4498C99.0967 83.4263 99.1578 83.4448 99.2318 83.5012C99.3057 83.5577 99.3865 83.6474 99.4562 83.7508C99.5254 83.8534 99.5777 83.961 99.6014 84.0495C99.625 84.138 99.618 84.1997 99.5818 84.2208ZM97.8831 85.3667L97.0435 85.933C97.0104 85.9586 96.9505 85.9419 96.8773 85.8869C96.8042 85.8318 96.7239 85.7429 96.6548 85.6403C96.585 85.537 96.5321 85.4285 96.5074 85.3388C96.4828 85.2491 96.4886 85.1855 96.5235 85.162L97.363 84.5957C97.4357 84.5467 97.6123 84.6814 97.7574 84.8966C97.8266 84.9992 97.879 85.1069 97.9026 85.1953C97.9263 85.2838 97.9192 85.3455 97.8831 85.3667ZM96.1843 86.5125L95.3448 87.0788C95.3116 87.1044 95.2517 87.0878 95.1786 87.0327C95.1054 86.9776 95.0252 86.8888 94.956 86.7862C94.8863 86.6828 94.8333 86.5744 94.8087 86.4847C94.7841 86.3949 94.7898 86.3313 94.8247 86.3078L95.6643 85.7415C95.7369 85.6925 95.9135 85.8272 96.0587 86.0424C96.1279 86.145 96.1802 86.2527 96.2039 86.3411C96.2275 86.4296 96.2205 86.4914 96.1843 86.5125ZM94.4856 87.6583L93.646 88.2246C93.6129 88.2502 93.553 88.2336 93.4798 88.1785C93.4067 88.1235 93.3264 88.0346 93.2572 87.932C93.1875 87.8286 93.1346 87.7202 93.1099 87.6305C93.0853 87.5408 93.0911 87.4771 93.126 87.4536L93.9655 86.8873C94.0382 86.8383 94.2147 86.973 94.3599 87.1882C94.4291 87.2908 94.4815 87.3985 94.5051 87.487C94.5288 87.5754 94.5217 87.6372 94.4856 87.6583ZM92.7868 88.8041L91.9473 89.3704C91.9141 89.396 91.8542 89.3794 91.7811 89.3243C91.7079 89.2693 91.6277 89.1804 91.5585 89.0778C91.4888 88.9745 91.4358 88.866 91.4112 88.7763C91.3866 88.6866 91.3923 88.623 91.4272 88.5994L92.2668 88.0331C92.3394 87.9841 92.516 88.1189 92.6611 88.3341C92.7304 88.4367 92.7827 88.5443 92.8064 88.6328C92.83 88.7213 92.823 88.783 92.7868 88.8041ZM91.0881 89.95L90.2485 90.5163C90.2154 90.5419 90.1555 90.5252 90.0823 90.4702C90.0092 90.4151 89.9289 90.3262 89.8597 90.2236C89.79 90.1203 89.737 90.0118 89.7124 89.9221C89.6878 89.8324 89.6936 89.7688 89.7285 89.7453L90.568 89.179C90.6407 89.13 90.8172 89.2647 90.9624 89.4799C91.0316 89.5825 91.0839 89.6902 91.1076 89.7786C91.1313 89.8671 91.1242 89.9288 91.0881 89.95Z" fill="#E5E5E5"/>
<path fill-rule="evenodd" clip-rule="evenodd" d="M88.825 17.6548L88.4416 17.7504C88.3543 17.7721 88.2327 17.5856 88.1699 17.3338C88.1071 17.0819 88.1269 16.8601 88.2142 16.8383L88.5976 16.7427C88.6849 16.721 88.8065 16.9075 88.8693 17.1594C88.9321 17.4112 88.9123 17.633 88.825 17.6548ZM87.4227 18.0044L86.4139 18.256C86.3266 18.2777 86.2049 18.0912 86.1421 17.8393C86.0793 17.5875 86.0992 17.3656 86.1865 17.3439L87.1953 17.0924C87.2826 17.0706 87.4042 17.2571 87.467 17.509C87.5298 17.7608 87.51 17.9827 87.4227 18.0044ZM85.3815 18.5134L84.3726 18.7649C84.2854 18.7867 84.1637 18.6001 84.1009 18.3483C84.0381 18.0964 84.0579 17.8746 84.1452 17.8528L85.1541 17.6013C85.2414 17.5795 85.363 17.7661 85.4258 18.0179C85.4886 18.2698 85.4688 18.4916 85.3815 18.5134ZM83.3403 19.0223L82.3314 19.2738C82.2441 19.2956 82.1225 19.1091 82.0597 18.8572C81.9969 18.6053 82.0167 18.3835 82.104 18.3617L83.1129 18.1102C83.2001 18.0885 83.3218 18.275 83.3846 18.5269C83.4474 18.7787 83.4276 19.0005 83.3403 19.0223ZM81.2991 19.5312L80.2902 19.7828C80.2029 19.8045 80.0813 19.618 80.0185 19.3661C79.9557 19.1143 79.9755 18.8924 80.0628 18.8707L81.0716 18.6192C81.1589 18.5974 81.2806 18.7839 81.3434 19.0358C81.4062 19.2876 81.3863 19.5095 81.2991 19.5312ZM79.2578 20.0402L78.249 20.2917C78.1617 20.3135 78.04 20.1269 77.9772 19.8751C77.9144 19.6232 77.9343 19.4014 78.0216 19.3796L79.0304 19.1281C79.1177 19.1063 79.2394 19.2929 79.3022 19.5447C79.365 19.7966 79.3451 20.0184 79.2578 20.0402ZM77.2166 20.5491L76.2078 20.8006C76.1205 20.8224 75.9988 20.6359 75.936 20.384C75.8732 20.1321 75.8931 19.9103 75.9804 19.8885L76.9892 19.637C77.0765 19.6153 77.1982 19.8018 77.261 20.0536C77.3238 20.3055 77.3039 20.5273 77.2166 20.5491ZM75.1754 21.058L74.1666 21.3096C74.0793 21.3313 73.9576 21.1448 73.8948 20.8929C73.832 20.6411 73.8519 20.4192 73.9392 20.3975L74.948 20.1459C75.0353 20.1242 75.157 20.3107 75.2198 20.5626C75.2825 20.8144 75.2627 21.0363 75.1754 21.058ZM73.1342 21.567L72.1253 21.8185C72.0381 21.8403 71.9164 21.6537 71.8536 21.4019C71.7908 21.15 71.8107 20.9282 71.8979 20.9064L72.9068 20.6549C72.9941 20.6331 73.1157 20.8196 73.1785 21.0715C73.2413 21.3234 73.2215 21.5452 73.1342 21.567ZM71.093 22.0759L70.0841 22.3274C69.9968 22.3492 69.8752 22.1627 69.8124 21.9108C69.7496 21.6589 69.7694 21.4371 69.8567 21.4153L70.8656 21.1638C70.9529 21.142 71.0745 21.3286 71.1373 21.5804C71.2001 21.8323 71.1803 22.0541 71.093 22.0759ZM69.0518 22.5848L68.0429 22.8364C67.9556 22.8581 67.834 22.6716 67.7712 22.4197C67.7084 22.1679 67.7282 21.946 67.8155 21.9243L68.8243 21.6727C68.9116 21.651 69.0333 21.8375 69.0961 22.0894C69.1589 22.3412 69.139 22.5631 69.0518 22.5848ZM67.0105 23.0938L66.0017 23.3453C65.9144 23.367 65.7927 23.1805 65.7299 22.9287C65.6672 22.6768 65.687 22.455 65.7743 22.4332L66.7831 22.1817C66.8704 22.1599 66.9921 22.3464 67.0549 22.5983C67.1177 22.8502 67.0978 23.072 67.0105 23.0938ZM64.9693 23.6027L63.9605 23.8542C63.8732 23.876 63.7515 23.6894 63.6887 23.4376C63.6259 23.1857 63.6458 22.9639 63.7331 22.9421L64.7419 22.6906C64.8292 22.6688 64.9509 22.8554 65.0137 23.1072C65.0765 23.3591 65.0566 23.5809 64.9693 23.6027ZM62.9281 24.1116L61.9193 24.3631C61.832 24.3849 61.7103 24.1984 61.6475 23.9465C61.5847 23.6947 61.6046 23.4728 61.6919 23.4511L62.7007 23.1995C62.788 23.1778 62.9097 23.3643 62.9725 23.6162C63.0353 23.868 63.0154 24.0899 62.9281 24.1116Z" fill="#E5E5E5"/>
<path fill-rule="evenodd" clip-rule="evenodd" d="M48.9391 69.6867L48.096 70.2136C48.023 70.2591 47.8524 70.1176 47.7148 69.8975C47.5773 69.6774 47.5249 69.462 47.5979 69.4164L48.441 68.8896C48.5139 68.844 48.6846 68.9855 48.8221 69.2056C48.9597 69.4258 49.012 69.6412 48.9391 69.6867ZM47.2332 70.7527L46.3901 71.2795C46.3172 71.3251 46.1465 71.1836 46.009 70.9635C45.8714 70.7433 45.8191 70.5279 45.892 70.4823L46.7351 69.9555C46.808 69.9099 46.9787 70.0514 47.1162 70.2716C47.2538 70.4917 47.3062 70.7071 47.2332 70.7527ZM45.5274 71.8186L44.6843 72.3454C44.6113 72.391 44.4407 72.2495 44.3031 72.0294C44.1656 71.8093 44.1132 71.5939 44.1861 71.5483L45.0292 71.0215C45.1022 70.9759 45.2728 71.1174 45.4104 71.3375C45.5479 71.5576 45.6003 71.773 45.5274 71.8186ZM43.8215 72.8846L42.9784 73.4114C42.9055 73.457 42.7348 73.3155 42.5973 73.0953C42.4597 72.8752 42.4073 72.6598 42.4803 72.6142L43.3234 72.0874C43.3963 72.0418 43.567 72.1833 43.7045 72.4034C43.8421 72.6236 43.8944 72.839 43.8215 72.8846ZM42.1156 73.9505L41.2725 74.4773C41.1996 74.5229 41.0289 74.3814 40.8914 74.1613C40.7538 73.9411 40.7015 73.7257 40.7744 73.6802L41.6175 73.1533C41.6905 73.1078 41.8611 73.2493 41.9987 73.4694C42.1362 73.6895 42.1886 73.9049 42.1156 73.9505Z" fill="#E5E5E5"/>
<path fill-rule="evenodd" clip-rule="evenodd" d="M36.8145 75C36.7378 74.9887 36.6809 74.9224 36.6809 74.8444C36.6809 74.7664 36.7378 74.7002 36.8145 74.6888C37.1344 74.6707 37.4496 74.603 37.7489 74.4881C37.8025 74.4583 37.8684 74.4627 37.9175 74.4993C37.9667 74.5359 37.9901 74.598 37.9775 74.6582C37.9648 74.7185 37.9184 74.7657 37.8587 74.7792C37.5292 74.9044 37.1827 74.9788 36.8311 75H36.8145ZM35.8169 74.913H35.7803C35.438 74.8288 35.1105 74.6922 34.8093 74.5081C34.7368 74.4647 34.713 74.3703 34.7561 74.2973C34.7762 74.2606 34.8105 74.234 34.8509 74.2238C34.8913 74.2137 34.934 74.2209 34.9689 74.2438C35.2437 74.4098 35.5419 74.5328 35.8535 74.6085C35.9367 74.6284 35.9885 74.7119 35.9699 74.7959C35.9502 74.8661 35.886 74.9142 35.8136 74.913H35.8169ZM38.6767 74.2873C38.6294 74.2876 38.5843 74.2668 38.5537 74.2304C38.5281 74.1976 38.5165 74.1559 38.5215 74.1144C38.5265 74.073 38.5477 74.0353 38.5803 74.0096C38.8359 73.8104 39.0602 73.5735 39.2454 73.3069C39.2769 73.2615 39.33 73.2364 39.3849 73.2411C39.4397 73.2458 39.4879 73.2796 39.5112 73.3298C39.5346 73.3799 39.5296 73.4388 39.4981 73.4842C39.2986 73.7757 39.0564 74.0352 38.7798 74.2538C38.7498 74.2781 38.7118 74.29 38.6734 74.2873H38.6767ZM34.1143 73.8824C34.0703 73.8822 34.0284 73.8641 33.9979 73.8322C33.7639 73.5666 33.5701 73.2679 33.4226 72.9455C33.3924 72.8938 33.3941 72.8293 33.4269 72.7792C33.4597 72.7291 33.518 72.7022 33.5772 72.7098C33.6363 72.7174 33.686 72.7582 33.7053 72.815C33.838 73.1105 34.0153 73.3836 34.2307 73.6248C34.2903 73.6849 34.2903 73.7822 34.2307 73.8423C34.1981 73.872 34.1547 73.8866 34.111 73.8824H34.1143ZM39.804 72.641C39.7887 72.6441 39.7729 72.6441 39.7575 72.641C39.7186 72.6287 39.6862 72.6013 39.6674 72.5649C39.6487 72.5284 39.6452 72.486 39.6577 72.4469C39.7519 72.1379 39.8001 71.8165 39.8007 71.4933C39.8011 71.2247 39.7676 70.9571 39.701 70.6969C39.6797 70.6139 39.7286 70.5291 39.8107 70.5062C39.8942 70.4851 39.979 70.536 40.0002 70.62C40.0737 70.9052 40.1106 71.1987 40.11 71.4933C40.1098 71.8483 40.0571 72.2013 39.9537 72.5406C39.9294 72.6037 39.8679 72.6441 39.8007 72.641H39.804ZM33.2896 72.0621C33.2123 72.0628 33.1467 72.0054 33.1366 71.9283C33.1195 71.7817 33.1106 71.6342 33.11 71.4866C33.1093 71.2802 33.1271 71.0741 33.1632 70.8709C33.1697 70.8298 33.1924 70.7931 33.2263 70.7691C33.2601 70.7452 33.3021 70.736 33.3428 70.7438C33.4269 70.7591 33.4832 70.8396 33.4692 70.9245C33.4358 71.11 33.4191 71.2981 33.4193 71.4866C33.4187 71.6208 33.4265 71.7549 33.4425 71.8881C33.4492 71.9292 33.4386 71.9712 33.4135 72.0041C33.3883 72.0371 33.3506 72.0581 33.3095 72.0621H33.2896ZM33.6387 70.0947C33.6145 70.0943 33.5907 70.0885 33.5689 70.0779C33.4931 70.0379 33.4634 69.9439 33.5024 69.8671C33.6637 69.5514 33.8723 69.2625 34.1209 69.0105C34.1582 68.9629 34.2194 68.941 34.2782 68.9544C34.337 68.9677 34.3829 69.0139 34.3962 69.0731C34.4095 69.1323 34.3878 69.1939 34.3404 69.2314C34.1146 69.4616 33.9241 69.7244 33.7751 70.011C33.749 70.0641 33.6943 70.0969 33.6354 70.0947H33.6387ZM39.4582 69.8772C39.4034 69.8774 39.3526 69.848 39.3252 69.8002C39.1569 69.525 38.9471 69.2778 38.7033 69.0674C38.6433 69.0062 38.6433 68.9078 38.7033 68.8466C38.7604 68.783 38.8569 68.7757 38.9228 68.8298C39.1836 69.0647 39.4078 69.3376 39.5879 69.6396C39.6099 69.6745 39.6171 69.7169 39.6077 69.7572C39.5983 69.7975 39.5732 69.8323 39.538 69.8537C39.5126 69.8681 39.484 69.8761 39.4549 69.8772H39.4582ZM35.0354 68.6726C34.9777 68.6735 34.9247 68.6409 34.8991 68.5889C34.8792 68.5526 34.8747 68.5098 34.8866 68.4701C34.8985 68.4305 34.9257 68.3973 34.9623 68.3781C35.2747 68.2097 35.6112 68.0911 35.9599 68.0268C36.0443 68.0104 36.126 68.0657 36.1428 68.1506C36.1505 68.191 36.1419 68.2328 36.1188 68.2668C36.0957 68.3007 36.06 68.324 36.0197 68.3313C35.7028 68.395 35.3977 68.5079 35.1152 68.6659C35.0903 68.6816 35.0615 68.6897 35.0321 68.6893L35.0354 68.6726ZM37.9584 68.5622C37.9376 68.5669 37.9161 68.5669 37.8953 68.5622C37.602 68.4304 37.2901 68.3457 36.9708 68.3112C36.8922 68.2946 36.8389 68.2208 36.8474 68.1405C36.856 68.0601 36.9237 67.9994 37.0041 68C37.3553 68.0399 37.6985 68.1336 38.0216 68.2777C38.0988 68.3128 38.1342 68.4033 38.1014 68.4818C38.0715 68.5341 38.015 68.5652 37.9551 68.5622H37.9584Z" fill="#E5E5E5"/>
<path fill-rule="evenodd" clip-rule="evenodd" d="M114.818 19C114.741 18.9887 114.684 18.9224 114.684 18.8444C114.684 18.7664 114.741 18.7002 114.818 18.6889C115.139 18.67 115.455 18.6012 115.756 18.4848C115.809 18.455 115.875 18.4594 115.924 18.496C115.973 18.5326 115.997 18.5947 115.984 18.6549C115.971 18.7152 115.925 18.7624 115.865 18.7758C115.536 18.9021 115.19 18.9776 114.838 19H114.818ZM113.82 18.913H113.784C113.44 18.83 113.112 18.6946 112.809 18.5115C112.747 18.4627 112.731 18.3748 112.771 18.3067C112.812 18.2386 112.897 18.2117 112.969 18.2439C113.245 18.411 113.544 18.535 113.857 18.6119C113.897 18.6214 113.931 18.6466 113.952 18.6818C113.974 18.717 113.98 18.7593 113.97 18.7993C113.95 18.8676 113.888 18.9143 113.817 18.913H113.82ZM116.677 18.2874C116.61 18.2884 116.551 18.2461 116.53 18.1827C116.508 18.1193 116.53 18.0494 116.584 18.0097C116.839 17.8108 117.064 17.5739 117.249 17.3071C117.301 17.2461 117.39 17.2343 117.456 17.2799C117.522 17.3255 117.543 17.4138 117.505 17.4844C117.303 17.7752 117.06 18.0345 116.783 18.2539C116.752 18.2793 116.713 18.2913 116.673 18.2874H116.677ZM112.114 17.8826C112.071 17.8826 112.029 17.863 112.001 17.829C111.766 17.5656 111.572 17.2678 111.426 16.9458C111.408 16.9082 111.406 16.8649 111.42 16.8258C111.435 16.7867 111.464 16.7551 111.502 16.7384C111.581 16.7047 111.671 16.7386 111.709 16.8153C111.842 17.1095 112.018 17.3823 112.231 17.625C112.26 17.6534 112.277 17.6926 112.277 17.7337C112.277 17.7748 112.26 17.814 112.231 17.8424C112.199 17.8738 112.155 17.8886 112.111 17.8826H112.114ZM117.807 16.6414H117.761C117.68 16.6157 117.634 16.5294 117.658 16.4473C117.753 16.1387 117.802 15.8171 117.801 15.4938C117.801 15.2241 117.767 14.9555 117.701 14.6942C117.685 14.6123 117.736 14.532 117.816 14.5116C117.897 14.4911 117.979 14.5375 118.004 14.6173C118.074 14.9041 118.11 15.1984 118.11 15.4938C118.11 15.8477 118.057 16.1995 117.954 16.5376C117.931 16.6008 117.871 16.6425 117.804 16.6414H117.807ZM111.293 16.0626C111.214 16.063 111.148 16.0038 111.14 15.9254C111.12 15.7802 111.11 15.6337 111.11 15.4871C111.111 15.2795 111.129 15.0724 111.167 14.8682C111.174 14.8277 111.197 14.7918 111.231 14.7686C111.264 14.7453 111.306 14.7366 111.346 14.7444C111.387 14.7508 111.423 14.7739 111.446 14.808C111.47 14.8422 111.478 14.8846 111.469 14.9251C111.437 15.1106 111.421 15.2988 111.423 15.4871C111.42 15.6214 111.428 15.7556 111.446 15.8886C111.456 15.9744 111.395 16.0521 111.31 16.0626H111.293ZM111.625 14.0954C111.601 14.0946 111.578 14.0889 111.556 14.0786C111.48 14.0386 111.45 13.9446 111.489 13.8679C111.653 13.5536 111.861 13.2651 112.108 13.0114C112.168 12.951 112.266 12.951 112.327 13.0114C112.357 13.0404 112.373 13.0802 112.373 13.1218C112.373 13.1634 112.357 13.2032 112.327 13.2322C112.101 13.461 111.911 13.724 111.765 14.0117C111.739 14.0601 111.69 14.0917 111.635 14.0954H111.625ZM117.445 13.8746C117.391 13.8736 117.341 13.846 117.312 13.801C117.144 13.5255 116.935 13.2773 116.693 13.0649C116.631 13.0087 116.623 12.9127 116.677 12.8475C116.706 12.8176 116.745 12.8008 116.786 12.8008C116.828 12.8008 116.867 12.8176 116.896 12.8475C117.162 13.0809 117.391 13.3526 117.578 13.6538C117.62 13.7272 117.598 13.8209 117.528 13.8679C117.505 13.8762 117.479 13.8785 117.455 13.8746H117.445ZM113.052 12.6702C112.995 12.6709 112.943 12.64 112.916 12.5899C112.895 12.5538 112.89 12.5106 112.902 12.4707C112.914 12.4307 112.942 12.3975 112.979 12.3791C113.291 12.2102 113.628 12.0916 113.976 12.0278C114.06 12.0121 114.14 12.0675 114.156 12.1516C114.172 12.2357 114.117 12.3165 114.033 12.3322C113.716 12.3965 113.411 12.5094 113.129 12.6668C113.104 12.6752 113.077 12.6764 113.052 12.6702ZM115.972 12.5631C115.952 12.5662 115.932 12.5662 115.912 12.5631C115.618 12.4303 115.305 12.3445 114.984 12.3088C114.901 12.2968 114.842 12.2223 114.848 12.1382C114.858 12.0525 114.935 11.9912 115.021 12.001C115.371 12.0403 115.713 12.1328 116.035 12.2754C116.073 12.2922 116.103 12.3235 116.118 12.3625C116.133 12.4014 116.132 12.4446 116.115 12.4828C116.083 12.5398 116.02 12.5715 115.955 12.5631H115.972Z" fill="#E5E5E5"/>
<path fill-rule="evenodd" clip-rule="evenodd" d="M108.944 36C108.857 35.9983 108.786 35.9307 108.782 35.8457C108.782 35.5029 108.74 35.1601 108.698 34.8173C108.695 34.7338 108.758 34.6621 108.844 34.6523C108.929 34.6425 109.008 34.6978 109.025 34.7796C109.068 35.1224 109.096 35.4824 109.11 35.8286C109.112 35.8713 109.096 35.9131 109.066 35.9446C109.037 35.9761 108.995 35.9948 108.951 35.9966L108.944 36ZM108.701 33.9432C108.623 33.9417 108.555 33.8877 108.539 33.8129C108.476 33.4701 108.395 33.1273 108.307 32.8085C108.283 32.7243 108.335 32.6376 108.421 32.6148C108.508 32.5921 108.597 32.642 108.62 32.7262C108.715 33.0691 108.796 33.4119 108.863 33.7547C108.88 33.8417 108.822 33.9259 108.733 33.9432H108.701ZM108.152 31.9344C108.081 31.9358 108.017 31.8909 107.997 31.8247C107.88 31.5059 107.754 31.1836 107.613 30.8683C107.578 30.7878 107.615 30.6951 107.697 30.6592C107.781 30.6251 107.877 30.6614 107.916 30.7414C108.057 31.0637 108.187 31.3928 108.307 31.7218C108.335 31.8051 108.289 31.8949 108.204 31.9241L108.152 31.9344ZM107.306 30.0284C107.244 30.0268 107.187 29.9928 107.158 29.9393C107 29.641 106.824 29.3394 106.637 29.048C106.591 28.9722 106.616 28.8745 106.693 28.8286C106.73 28.8059 106.775 28.7985 106.817 28.8082C106.859 28.8179 106.896 28.8438 106.919 28.88C107.105 29.1783 107.271 29.4868 107.451 29.7919C107.492 29.8705 107.46 29.9668 107.38 30.0078C107.357 30.0185 107.332 30.0233 107.306 30.0215V30.0284ZM106.182 28.2595C106.131 28.2587 106.083 28.2347 106.052 28.1944C105.848 27.9167 105.629 27.6459 105.4 27.382C105.35 27.3134 105.363 27.2188 105.429 27.1649C105.496 27.111 105.594 27.1159 105.654 27.1763C105.887 27.4471 106.108 27.7248 106.316 28.0059C106.369 28.0771 106.353 28.1761 106.281 28.2287C106.251 28.2462 106.217 28.2545 106.182 28.2527V28.2595ZM104.812 26.6655C104.767 26.6669 104.723 26.6494 104.692 26.6175C104.449 26.3741 104.192 26.1342 103.931 25.9079C103.874 25.8471 103.873 25.7539 103.929 25.692C103.986 25.6302 104.081 25.6198 104.15 25.668C104.418 25.9011 104.678 26.1445 104.928 26.3947C104.96 26.4244 104.977 26.4652 104.977 26.5078C104.977 26.5505 104.96 26.5913 104.928 26.621C104.896 26.6482 104.854 26.6618 104.812 26.6587V26.6655ZM103.216 25.2943C103.18 25.295 103.145 25.2828 103.118 25.26C102.836 25.0509 102.547 24.8521 102.255 24.6636C102.186 24.6117 102.17 24.5173 102.219 24.4471C102.267 24.3769 102.362 24.3547 102.438 24.3962C102.734 24.5881 103.03 24.7938 103.315 25.0064C103.35 25.0322 103.373 25.0706 103.379 25.1131C103.385 25.1555 103.373 25.1986 103.347 25.2326C103.31 25.262 103.263 25.2745 103.216 25.2669V25.2943ZM101.43 24.1322C101.402 24.1324 101.374 24.1253 101.349 24.1117C101.043 23.9471 100.729 23.7894 100.409 23.642C100.328 23.6035 100.292 23.51 100.328 23.4295C100.367 23.3507 100.464 23.3172 100.546 23.3541C100.874 23.5015 101.198 23.6626 101.508 23.834C101.546 23.8542 101.574 23.8885 101.586 23.9291C101.598 23.9697 101.592 24.0132 101.571 24.05C101.544 24.1013 101.49 24.1333 101.43 24.1322ZM99.4927 23.2512C99.4729 23.2545 99.4527 23.2545 99.4329 23.2512C99.1088 23.1312 98.7706 23.0181 98.4324 22.9084C98.3477 22.8806 98.2999 22.7935 98.3232 22.7096C98.3345 22.6683 98.3629 22.6334 98.4016 22.6133C98.4404 22.5932 98.4859 22.5895 98.5275 22.6033C98.8798 22.7027 99.2321 22.8159 99.5526 22.9461C99.6232 22.9763 99.6631 23.0499 99.6488 23.1236C99.6345 23.1973 99.5698 23.2516 99.4927 23.2547V23.2512ZM97.446 22.6582H97.4108C97.0585 22.5862 96.7062 22.5245 96.354 22.4765C96.265 22.4624 96.2039 22.3817 96.2166 22.2948C96.2218 22.2528 96.2442 22.2147 96.2786 22.1889C96.3131 22.1631 96.3567 22.1519 96.3998 22.1577C96.752 22.2091 97.1043 22.2742 97.4566 22.3497C97.5445 22.3685 97.6008 22.4523 97.5834 22.5382C97.5666 22.6001 97.5144 22.647 97.4495 22.6582H97.446ZM95.3324 22.3565C94.9801 22.3325 94.6278 22.3222 94.2756 22.3222C94.1841 22.3222 94.11 22.2501 94.11 22.1611C94.11 22.0721 94.1841 22 94.2756 22C94.6278 22 95.0012 22 95.357 22.0377C95.4463 22.0467 95.5127 22.1219 95.5085 22.2091C95.501 22.2954 95.4248 22.3605 95.3359 22.3565H95.3324Z" fill="#E5E5E5"/>
<path fill-rule="evenodd" clip-rule="evenodd" d="M100.278 30C100.21 29.9993 100.149 29.9579 100.123 29.8949C100.097 29.8318 100.111 29.7594 100.159 29.7108L100.936 28.9372C100.977 28.8857 101.043 28.8621 101.107 28.8765C101.171 28.8909 101.221 28.9409 101.235 29.0048C101.25 29.0687 101.226 29.1352 101.175 29.1758L100.383 29.9494C100.355 29.9781 100.318 29.996 100.278 30ZM101.829 28.4491C101.784 28.4479 101.741 28.4299 101.71 28.3985C101.644 28.3324 101.644 28.2261 101.71 28.1599L102.487 27.3827C102.554 27.3295 102.651 27.3352 102.712 27.3961C102.773 27.4569 102.778 27.5537 102.725 27.6213L101.948 28.3985C101.917 28.4305 101.874 28.4487 101.829 28.4491ZM103.383 26.8947C103.339 26.8956 103.296 26.8786 103.264 26.8477C103.199 26.7815 103.199 26.6752 103.264 26.6091L104.037 25.8318C104.105 25.7786 104.202 25.7844 104.262 25.8452C104.323 25.9061 104.329 26.0028 104.276 26.0704L103.499 26.8477C103.468 26.8781 103.426 26.895 103.383 26.8947ZM104.934 25.3438C104.889 25.3447 104.846 25.3278 104.814 25.2968C104.749 25.2306 104.749 25.1244 104.814 25.0582L105.592 24.281C105.656 24.2162 105.762 24.2162 105.826 24.281C105.86 24.3118 105.879 24.355 105.879 24.4003C105.879 24.4455 105.86 24.4888 105.826 24.5196L105.053 25.2968C105.022 25.3304 104.979 25.35 104.934 25.351V25.3438ZM106.484 23.7929C106.439 23.7925 106.397 23.7743 106.365 23.7423C106.3 23.6774 106.3 23.5723 106.365 23.5073L107.142 22.7301C107.21 22.6769 107.307 22.6826 107.367 22.7435C107.428 22.8043 107.434 22.9011 107.381 22.9687L106.604 23.7423C106.572 23.7743 106.529 23.7925 106.484 23.7929ZM108.035 22.2421C107.967 22.2414 107.906 22.2 107.88 22.137C107.854 22.0739 107.868 22.0014 107.916 21.9529L108.693 21.1792C108.76 21.126 108.857 21.1318 108.918 21.1926C108.979 21.2535 108.985 21.3502 108.931 21.4178L108.154 22.1915C108.123 22.2234 108.08 22.2416 108.035 22.2421ZM109.586 20.6912C109.542 20.6898 109.501 20.6717 109.47 20.6406C109.437 20.6098 109.418 20.5666 109.418 20.5213C109.418 20.476 109.437 20.4328 109.47 20.402L110.243 19.6284C110.274 19.5952 110.317 19.5763 110.363 19.5763C110.408 19.5763 110.451 19.5952 110.482 19.6284C110.547 19.6933 110.547 19.7984 110.482 19.8634L109.705 20.6514C109.672 20.6795 109.629 20.6937 109.586 20.6912ZM111.14 19.1367C111.095 19.1376 111.052 19.1207 111.021 19.0897C110.955 19.0236 110.955 18.9173 111.021 18.8511L111.794 18.0739C111.862 18.0207 111.958 18.0264 112.019 18.0873C112.08 18.1481 112.086 18.2449 112.033 18.3125L111.259 19.0897C111.227 19.1207 111.184 19.1376 111.14 19.1367ZM112.69 17.5859C112.645 17.5872 112.602 17.5687 112.571 17.5353C112.506 17.4703 112.506 17.3652 112.571 17.3003L112.835 17.0364C112.903 16.9832 112.999 16.9889 113.06 17.0498C113.121 17.1106 113.127 17.2073 113.074 17.275L112.81 17.5353C112.779 17.5687 112.736 17.5872 112.69 17.5859Z" fill="#E5E5E5"/>
</g>
<path fill-rule="evenodd" clip-rule="evenodd" d="M249.11 162.017C249.11 209.789 210.383 248.517 162.61 248.517C114.837 248.517 76.11 209.789 76.11 162.017C76.11 114.244 114.837 75.5168 162.61 75.5168C210.383 75.5168 249.11 114.244 249.11 162.017V162.017Z" stroke="#FA5A28" stroke-linecap="round" stroke-dasharray="2 2"/>
<path fill-rule="evenodd" clip-rule="evenodd" d="M208.645 112.787C208.645 111.175 208.964 109.641 209.525 108.227C196.302 99.8245 179.284 96.5168 163.61 96.5168C147.935 96.5168 130.917 99.8245 117.695 108.227C118.256 109.641 118.575 111.175 118.575 112.787C118.575 119.64 112.998 125.197 106.11 125.225C106.421 145.312 108.398 169.252 118.102 187.614C128.578 207.437 149.534 221.191 163.61 227.517C177.686 221.191 198.642 207.437 209.117 187.614C218.822 169.252 220.799 145.312 221.11 125.225C214.221 125.197 208.645 119.64 208.645 112.787Z" fill="url(#paint1_linear)"/>
<path fill-rule="evenodd" clip-rule="evenodd" d="M163.61 217.517C150.355 210.696 134.713 198.728 126.743 183.418C118.84 168.239 116.709 148.127 116.11 132.166C123.193 128.645 128.119 121.341 128.276 112.903C137.982 108.113 150.288 105.517 163.61 105.517C176.932 105.517 189.238 108.113 198.943 112.903C199.101 121.341 204.027 128.645 211.11 132.166C210.51 148.127 208.38 168.239 200.477 183.418C192.507 198.728 176.865 210.696 163.61 217.517Z" fill="url(#paint2_linear)"/>
<path fill-rule="evenodd" clip-rule="evenodd" d="M151.897 142.666C151.897 132.071 157.506 129.702 163.065 129.702C168.624 129.702 174.235 132.071 174.235 142.666H151.897ZM167.361 172.147H158.77L160.42 160.073C158.731 159.119 157.59 157.077 157.59 154.991C157.59 151.919 160.065 149.314 163.12 149.314C166.174 149.314 168.65 151.749 168.65 154.821C168.65 156.948 167.463 159.22 165.719 160.157L167.361 172.147ZM181.966 142.665H179.39C179.39 131.149 172.525 124.517 163.066 124.517C153.607 124.517 146.743 131.149 146.743 142.665H144.165C140.369 142.665 139.11 144.086 139.11 147.904V172.102C139.11 175.92 140.369 179.517 144.165 179.517H181.966C185.762 179.517 188.11 175.92 188.11 172.102V147.904C188.11 144.086 185.762 142.665 181.966 142.665Z" fill="white"/>
<path fill-rule="evenodd" clip-rule="evenodd" d="M163.61 65C177.693 65 189.11 76.4167 189.11 90.5C189.11 104.583 177.693 116 163.61 116C149.527 116 138.11 104.583 138.11 90.5C138.11 76.4167 149.527 65 163.61 65Z" fill="#FFC372"/>
<path d="M160.654 94.684C160.534 93.868 160.558 93.124 160.726 92.452C160.918 91.78 161.182 91.156 161.518 90.58C161.854 90.004 162.226 89.476 162.634 88.996C163.066 88.516 163.474 88.06 163.858 87.628C164.242 87.172 164.554 86.74 164.794 86.332C165.058 85.9 165.19 85.456 165.19 85C165.19 84.256 164.962 83.692 164.506 83.308C164.074 82.924 163.498 82.732 162.778 82.732C162.106 82.732 161.506 82.888 160.978 83.2C160.474 83.512 159.982 83.908 159.502 84.388L156.586 81.724C157.426 80.74 158.422 79.948 159.574 79.348C160.75 78.748 162.046 78.448 163.462 78.448C164.422 78.448 165.31 78.568 166.126 78.808C166.966 79.048 167.686 79.42 168.286 79.924C168.91 80.428 169.39 81.076 169.726 81.868C170.086 82.636 170.266 83.548 170.266 84.604C170.266 85.348 170.134 86.02 169.87 86.62C169.606 87.196 169.27 87.736 168.862 88.24C168.478 88.744 168.058 89.236 167.602 89.716C167.17 90.172 166.762 90.652 166.378 91.156C166.018 91.66 165.73 92.2 165.514 92.776C165.298 93.328 165.226 93.964 165.298 94.684H160.654ZM162.958 103.432C162.046 103.432 161.29 103.12 160.69 102.496C160.09 101.848 159.79 101.056 159.79 100.12C159.79 99.16 160.09 98.368 160.69 97.744C161.29 97.096 162.046 96.772 162.958 96.772C163.87 96.772 164.626 97.096 165.226 97.744C165.85 98.368 166.162 99.16 166.162 100.12C166.162 101.056 165.85 101.848 165.226 102.496C164.626 103.12 163.87 103.432 162.958 103.432Z" fill="white"/>
</g>
<defs>
<linearGradient id="paint0_linear" x1="118.164" y1="85.3691" x2="147.32" y2="-4.28313" gradientUnits="userSpaceOnUse">
<stop stop-color="#002298"/>
<stop offset="1" stop-color="#6731CE"/>
</linearGradient>
<linearGradient id="paint1_linear" x1="278.61" y1="162.017" x2="148.714" y2="276.048" gradientUnits="userSpaceOnUse">
<stop stop-color="#B23760"/>
<stop offset="1" stop-color="#933671"/>
</linearGradient>
<linearGradient id="paint2_linear" x1="204.896" y1="154.387" x2="142.864" y2="237.488" gradientUnits="userSpaceOnUse">
<stop stop-color="#C6426E"/>
<stop offset="1" stop-color="#933671"/>
</linearGradient>
<clipPath id="clip0">
<rect width="311.166" height="254" fill="white" transform="translate(0.109985)"/>
</clipPath>
<clipPath id="clip1">
<rect width="113" height="110" fill="white" transform="translate(19.11 6)"/>
</clipPath>
</defs>
</svg>
