<svg width="338" height="277" viewBox="0 0 338 277" fill="none" xmlns="http://www.w3.org/2000/svg">
<path fill-rule="evenodd" clip-rule="evenodd" d="M149.23 30.5321C149.23 35.9137 144.868 40.2763 139.486 40.2763C134.104 40.2763 129.742 35.9137 129.742 30.5321C129.742 25.1505 134.104 20.7878 139.486 20.7878C144.868 20.7878 149.23 25.1505 149.23 30.5321Z" fill="#F2F2F2"/>
<path fill-rule="evenodd" clip-rule="evenodd" d="M164.821 53.2685V52.7933C164.821 50.5925 165.601 48.714 167.161 47.1578C168.721 45.6016 170.605 44.8235 172.811 44.8235H226.989C229.196 44.8235 231.079 45.6016 232.639 47.1578C234.199 48.714 234.979 50.5925 234.979 52.7933V53.7437C234.979 55.9445 234.199 57.823 232.639 59.3792C231.079 60.9354 229.196 61.7135 226.989 61.7135H172.811C170.605 61.7135 168.721 60.9354 167.161 59.3792C165.601 57.823 164.821 55.9445 164.821 53.7437V53.2685Z" fill="#F2F2F2"/>
<path fill-rule="evenodd" clip-rule="evenodd" d="M280.453 183.51C280.456 189.42 276.976 194.753 271.635 197.018C266.295 199.283 260.146 198.034 256.057 193.853C251.969 189.673 250.745 183.385 252.958 177.922C255.171 172.46 260.384 168.899 266.165 168.9C269.954 168.9 273.588 170.438 276.268 173.178C278.947 175.918 280.453 179.635 280.453 183.51L280.453 183.51Z" fill="#F2F2F2"/>
<path fill-rule="evenodd" clip-rule="evenodd" d="M325.276 202.036C325.274 208.851 319.747 214.375 312.931 214.373C306.115 214.372 300.59 208.846 300.591 202.03C300.591 195.214 306.117 189.688 312.933 189.688C316.207 189.688 319.348 190.989 321.663 193.305C323.978 195.62 325.278 198.761 325.276 202.036Z" fill="#F2F2F2"/>
<path fill-rule="evenodd" clip-rule="evenodd" d="M254.684 148.112L254.553 147.484C281.932 141.467 302.669 118.989 306.514 91.164C310.358 63.3388 296.495 36.0602 271.777 22.8134C247.06 9.5666 216.724 13.1578 195.767 31.8116L195.353 31.3469C216.509 12.539 247.117 8.92907 272.052 22.3007C296.987 35.6722 310.972 63.1947 307.097 91.2694C303.221 119.344 282.305 142.028 254.684 148.112H254.684Z" fill="#F94F24"/>
<path fill-rule="evenodd" clip-rule="evenodd" d="M27.5447 203.463C12.9092 193.668 8.76853 174.072 18.2495 159.472C27.7304 144.873 47.3167 140.685 62.2175 150.071C68.1648 153.906 72.682 159.589 75.0576 166.223L74.4691 166.435C72.1394 159.929 67.7101 154.356 61.8784 150.594C47.2693 141.394 28.0689 145.501 18.7744 159.813C9.47985 174.126 13.5376 193.336 27.884 202.941C32.0392 205.652 36.7742 207.345 41.6956 207.877L41.6334 208.505C36.6137 207.956 31.7847 206.227 27.5447 203.463Z" fill="#F94F24"/>
<path fill-rule="evenodd" clip-rule="evenodd" d="M186.25 0L21.5441 237.686L316.182 254L186.25 0Z" fill="#F3F3F3"/>
<path fill-rule="evenodd" clip-rule="evenodd" d="M302.579 82.1482C302.931 47.341 275 18.8387 240.193 18.4863C205.386 18.1339 176.884 46.065 176.531 80.8721C176.179 115.679 204.11 144.182 238.917 144.534C273.724 144.886 302.227 116.955 302.579 82.1482Z" fill="url(#paint0_linear)"/>
<g style="mix-blend-mode:multiply">
<path fill-rule="evenodd" clip-rule="evenodd" d="M301.389 91.8568C302.641 84.4514 304.877 74.6535 300.748 67.7801C300.224 66.9159 300.88 66.1078 301.649 65.9598C294.27 57.6645 283.016 53.9537 272.151 56.2339C263.432 43.6491 248.159 37.3261 233.096 40.0653C218.033 42.8045 205.963 54.0997 202.233 68.9483C193.291 68.0129 184.562 72.0863 179.535 79.5405C174.508 86.9947 174.003 96.614 178.221 104.554C182.44 112.494 190.694 117.459 199.685 117.466H278.528C285.197 117.466 290.482 115.705 295.431 110.76C298.319 104.78 300.326 98.4126 301.389 91.8568Z" fill="#EBEBEB"/>
</g>
<path fill-rule="evenodd" clip-rule="evenodd" d="M265.688 52.4651C263.545 52.466 261.408 52.6872 259.31 53.1252C250.591 40.5404 235.318 34.2175 220.255 36.9567C205.192 39.6959 193.123 50.991 189.393 65.8397C188.547 65.7532 187.698 65.7091 186.848 65.7077C178.083 65.5953 169.935 70.2072 165.519 77.7801C161.104 85.353 161.104 94.7158 165.519 102.289C169.935 109.862 178.083 114.474 186.848 114.361H265.688C282.642 114.168 296.286 100.369 296.286 83.4131C296.286 66.4571 282.642 52.6579 265.688 52.4651Z" fill="url(#paint1_linear)"/>
<path fill-rule="evenodd" clip-rule="evenodd" d="M186.844 69.4562C187.695 69.4555 188.546 69.4996 189.393 69.5882C193.121 54.7392 205.19 43.4432 220.253 40.7039C235.316 37.9646 250.589 44.2882 259.306 56.8737C261.405 56.4359 263.543 56.2147 265.688 56.2136C281.998 56.2153 295.507 68.8784 296.561 85.1552C296.602 84.4871 296.634 83.811 296.634 83.1308C296.634 66.0398 282.779 52.1848 265.688 52.1848C263.543 52.1859 261.405 52.4071 259.306 52.8449C250.59 40.2594 235.318 33.9347 220.255 36.6722C205.193 39.4098 193.123 50.7036 189.393 65.5514C182.534 64.8225 175.689 67.042 170.563 71.6567C165.437 76.2715 162.513 82.8468 162.519 89.7441C162.519 90.4242 162.555 91.0964 162.611 91.7645C163.658 79.1579 174.194 69.4586 186.844 69.4562Z" fill="#C4ECEC"/>
<path fill-rule="evenodd" clip-rule="evenodd" d="M207.164 131.178C207.164 133.33 205.42 135.075 203.268 135.075C201.115 135.075 199.371 133.33 199.371 131.178C199.371 129.026 201.115 127.281 203.268 127.281C204.301 127.281 205.292 127.692 206.023 128.423C206.754 129.153 207.164 130.145 207.164 131.178Z" fill="white"/>
<path fill-rule="evenodd" clip-rule="evenodd" d="M337.94 111.293C337.941 115.041 335.684 118.421 332.222 119.856C328.759 121.291 324.772 120.499 322.122 117.848C319.471 115.198 318.679 111.212 320.114 107.749C321.549 104.286 324.929 102.029 328.678 102.031C333.793 102.031 337.94 106.177 337.94 111.293Z" fill="#F2F2F2"/>
<path fill-rule="evenodd" clip-rule="evenodd" d="M264.082 143.452C264.08 148.914 259.651 153.34 254.189 153.338C248.728 153.337 244.301 148.908 244.302 143.447C244.303 137.985 248.73 133.558 254.192 133.558C256.816 133.558 259.332 134.601 261.187 136.456C263.041 138.312 264.083 140.829 264.082 143.452Z" fill="white"/>
<path fill-rule="evenodd" clip-rule="evenodd" d="M254.192 153.942C249.947 153.944 246.119 151.388 244.493 147.466C242.868 143.544 243.766 139.03 246.768 136.028C249.769 133.026 254.284 132.128 258.206 133.754C262.127 135.379 264.684 139.207 264.682 143.452C264.675 149.243 259.983 153.936 254.192 153.942ZM254.192 134.158C250.433 134.157 247.043 136.42 245.603 139.893C244.163 143.366 244.957 147.364 247.615 150.023C250.273 152.681 254.27 153.477 257.744 152.039C261.217 150.601 263.482 147.212 263.482 143.452C263.475 138.324 259.32 134.169 254.192 134.162V134.158Z" fill="#F94F24"/>
<path fill-rule="evenodd" clip-rule="evenodd" d="M218.288 72.0571C218.288 63.6247 222.752 61.7394 227.177 61.7394C231.601 61.7394 236.067 63.6247 236.067 72.0571H218.288ZM230.596 95.522H223.758L225.071 85.9119C223.727 85.1532 222.819 83.5279 222.819 81.8677C222.819 79.4222 224.788 77.3493 227.22 77.3493C229.651 77.3493 231.621 79.2869 231.621 81.7324C231.621 83.4251 230.677 85.2333 229.288 85.9789L230.596 95.522ZM242.22 72.0572H240.169C240.169 62.8914 234.705 57.6122 227.177 57.6122C219.648 57.6122 214.185 62.8914 214.185 72.0572H212.133C209.112 72.0572 208.11 73.1881 208.11 76.227V95.4864C208.11 98.5253 209.112 101.388 212.133 101.388H242.22C245.241 101.388 247.11 98.5253 247.11 95.4864V76.227C247.11 73.1881 245.241 72.0572 242.22 72.0572Z" fill="white"/>
<path fill-rule="evenodd" clip-rule="evenodd" d="M171.11 105.5C171.11 103.567 172.677 102 174.61 102C176.543 102 178.11 103.567 178.11 105.5C178.11 107.433 176.543 109 174.61 109C172.677 109 171.11 107.433 171.11 105.5Z" fill="white"/>
<path fill-rule="evenodd" clip-rule="evenodd" d="M79.1268 236.158C86.0153 258.69 109.904 271.36 132.485 264.457C155.064 257.553 167.784 233.691 160.895 211.159C154.007 188.629 130.118 175.958 107.538 182.861C84.9579 189.764 72.2386 213.628 79.1268 236.158Z" fill="url(#paint2_linear)"/>
<path fill-rule="evenodd" clip-rule="evenodd" d="M149.075 197.048C149.495 196.92 149.877 196.657 150.15 196.272L152.465 193.018C153.757 191.202 154.264 188.991 153.893 186.794C153.52 184.597 152.313 182.677 150.494 181.388L149.366 180.589C145.61 177.93 140.382 178.818 137.712 182.572L135.398 185.826C134.741 186.75 134.958 188.033 135.883 188.688C136.81 189.344 138.095 189.128 138.753 188.2L141.068 184.947C141.725 184.026 142.705 183.407 143.817 183.221C144.935 183.032 146.059 183.287 146.982 183.941L148.11 184.739C149.034 185.393 149.647 186.368 149.835 187.483C150.025 188.598 149.767 189.721 149.111 190.645L146.797 193.897C146.139 194.822 146.355 196.104 147.281 196.761C147.822 197.143 148.486 197.228 149.075 197.048Z" fill="#6F576D"/>
<path fill-rule="evenodd" clip-rule="evenodd" d="M150.773 181.416C151.474 182.279 151.353 183.548 150.5 184.244L149.766 184.845C148.914 185.543 147.649 185.408 146.947 184.546C146.243 183.684 146.364 182.415 147.217 181.717L147.952 181.115C148.805 180.417 150.071 180.553 150.773 181.416ZM147.745 183.892C148.084 184.308 148.695 184.373 149.106 184.036L149.841 183.434C150.253 183.098 150.312 182.486 149.973 182.069C149.633 181.653 149.023 181.588 148.61 181.924L147.876 182.525C147.464 182.862 147.406 183.475 147.745 183.892Z" fill="#3B0E19"/>
<path fill-rule="evenodd" clip-rule="evenodd" d="M147.004 185.174L148.517 183.934C148.738 183.754 148.769 183.426 148.587 183.202C148.404 182.979 148.078 182.944 147.857 183.124L146.345 184.364L147.004 185.174Z" fill="#3B0E19"/>
<path fill-rule="evenodd" clip-rule="evenodd" d="M150.716 180.788L149.201 182.026C148.98 182.206 148.949 182.534 149.13 182.757C149.312 182.98 149.639 183.016 149.86 182.835L151.374 181.598L150.716 180.788Z" fill="#3B0E19"/>
<path fill-rule="evenodd" clip-rule="evenodd" d="M155.148 177.849C155.849 178.713 155.724 179.982 154.87 180.675L154.136 181.275C153.283 181.972 152.019 181.836 151.317 180.973C150.615 180.11 150.738 178.84 151.591 178.143L152.327 177.542C153.183 176.846 154.449 176.984 155.148 177.849ZM152.116 180.319C152.455 180.735 153.065 180.801 153.477 180.465L154.212 179.865C154.625 179.53 154.685 178.917 154.347 178.5C154.009 178.083 153.398 178.016 152.985 178.352L152.248 178.953C151.837 179.289 151.778 179.902 152.116 180.319Z" fill="#3B0E19"/>
<path fill-rule="evenodd" clip-rule="evenodd" d="M151.373 181.6L152.887 180.363C153.108 180.183 153.14 179.855 152.958 179.631C152.777 179.408 152.449 179.373 152.229 179.553L150.715 180.79L151.373 181.6Z" fill="#3B0E19"/>
<path fill-rule="evenodd" clip-rule="evenodd" d="M155.093 177.221L153.576 178.455C153.354 178.635 153.322 178.963 153.503 179.186C153.686 179.41 154.012 179.446 154.234 179.266L155.75 178.033L155.093 177.221Z" fill="#3B0E19"/>
<path fill-rule="evenodd" clip-rule="evenodd" d="M159.537 174.293C160.231 175.162 160.102 176.43 159.248 177.119L158.511 177.714C157.658 178.408 156.394 178.268 155.694 177.403C154.994 176.538 155.12 175.269 155.976 174.573L156.717 173.975C157.576 173.281 158.841 173.424 159.537 174.293ZM156.495 176.752C156.832 177.169 157.442 177.237 157.855 176.902L158.593 176.306C159.006 175.973 159.068 175.361 158.733 174.942C158.396 174.523 157.786 174.454 157.371 174.789L156.631 175.386C156.218 175.722 156.157 176.334 156.495 176.752Z" fill="#3B0E19"/>
<path fill-rule="evenodd" clip-rule="evenodd" d="M155.749 178.032L157.266 176.798C157.487 176.618 157.519 176.29 157.338 176.066C157.158 175.842 156.831 175.805 156.61 175.986L155.093 177.22L155.749 178.032Z" fill="#3B0E19"/>
<path fill-rule="evenodd" clip-rule="evenodd" d="M159.484 173.664L157.961 174.893C157.738 175.072 157.706 175.399 157.886 175.624C158.067 175.848 158.393 175.886 158.615 175.707L160.137 174.479L159.484 173.664Z" fill="#3B0E19"/>
<path fill-rule="evenodd" clip-rule="evenodd" d="M164.104 171.002C164.345 171.51 164.36 172.041 164.27 172.516C164.224 172.755 164.145 172.974 164.031 173.157C163.921 173.348 163.787 173.526 163.604 173.651C163.635 173.608 162.891 174.203 162.891 174.203C162.041 174.878 160.78 174.72 160.085 173.856C159.386 172.986 159.531 171.717 160.405 171.023C160.405 171.023 161.145 170.432 161.194 170.413C161.463 170.224 161.746 170.081 162.039 170.017C162.337 169.959 162.629 169.959 162.896 170.015C163.431 170.13 163.87 170.504 164.104 171.002ZM160.893 173.212C161.227 173.634 161.835 173.709 162.248 173.381C162.248 173.381 162.991 172.787 162.98 172.813C163.176 172.674 163.291 172.458 163.328 172.214C163.371 171.982 163.337 171.722 163.198 171.493C163.058 171.263 162.835 171.109 162.581 171.059C162.333 171.018 162.055 171.081 161.818 171.25C161.789 171.254 161.048 171.846 161.048 171.846C160.629 172.179 160.559 172.792 160.893 173.212Z" fill="#3B0E19"/>
<path fill-rule="evenodd" clip-rule="evenodd" d="M160.138 174.484L161.663 173.268C161.885 173.092 161.922 172.764 161.745 172.537C161.568 172.309 161.242 172.27 161.018 172.448L159.485 173.669L160.138 174.484Z" fill="#3B0E19"/>
<path fill-rule="evenodd" clip-rule="evenodd" d="M164.214 170.372C164.214 170.372 164.098 170.426 163.924 170.509C163.752 170.596 163.512 170.691 163.295 170.83C163.073 170.96 162.852 171.09 162.686 171.188C162.529 171.299 162.424 171.374 162.424 171.374C162.178 171.548 162.122 171.875 162.299 172.103C162.475 172.33 162.797 172.389 163.016 172.234C163.016 172.234 163.11 172.166 163.251 172.065C163.402 171.977 163.601 171.86 163.801 171.743C163.996 171.616 164.215 171.533 164.369 171.453C164.526 171.379 164.631 171.329 164.631 171.329L164.214 170.372Z" fill="#3B0E19"/>
<path fill-rule="evenodd" clip-rule="evenodd" d="M169.588 169.885C169.574 171.001 168.761 171.898 167.847 172.009C167.847 172.009 167.048 172.122 167.055 172.138C166.602 172.219 166.165 172.126 165.744 171.863C165.339 171.628 164.953 171.232 164.746 170.716C164.54 170.2 164.573 169.647 164.845 169.155C165.12 168.696 165.633 168.294 166.264 168.178C166.264 168.178 166.537 168.111 166.806 168.08C167.076 168.042 167.345 168.003 167.345 168.003C168.618 167.853 169.604 168.778 169.588 169.885ZM165.724 170.385C165.88 170.899 166.376 171.201 166.851 171.114C166.851 171.114 167.061 171.058 167.282 171.034C167.499 171.004 167.718 170.973 167.718 170.973C168.202 170.912 168.584 170.458 168.556 169.917C168.53 169.386 168.046 168.969 167.475 169.039C167.475 169.039 167.223 169.076 166.971 169.111C166.72 169.14 166.469 169.203 166.469 169.203C165.897 169.309 165.567 169.871 165.724 170.385Z" fill="#3B0E19"/>
<path fill-rule="evenodd" clip-rule="evenodd" d="M164.629 171.326C164.629 171.326 164.732 171.275 164.897 171.217C165.06 171.157 165.278 171.075 165.495 170.994C165.72 170.929 165.943 170.865 166.111 170.817C166.277 170.763 166.394 170.748 166.394 170.748C166.659 170.692 166.831 170.416 166.78 170.133C166.728 169.849 166.45 169.669 166.156 169.731C166.156 169.731 166.03 169.749 165.847 169.806C165.662 169.859 165.417 169.93 165.171 170.002C164.931 170.091 164.69 170.18 164.51 170.247C164.328 170.312 164.213 170.368 164.213 170.368L164.629 171.326Z" fill="#3B0E19"/>
<path fill-rule="evenodd" clip-rule="evenodd" d="M169.947 169.369C169.947 169.369 169.446 169.356 168.943 169.379C168.692 169.382 168.44 169.4 168.251 169.418C168.062 169.433 167.937 169.444 167.937 169.444C167.641 169.461 167.435 169.744 167.474 170.023C167.516 170.314 167.764 170.498 168.038 170.482C168.038 170.482 168.156 170.473 168.332 170.459C168.509 170.443 168.744 170.424 168.982 170.422C169.456 170.4 169.933 170.414 169.933 170.414L169.947 169.369Z" fill="#3B0E19"/>
<path fill-rule="evenodd" clip-rule="evenodd" d="M175.206 170.407C175.042 171.509 174.034 172.269 172.987 172.138L172.087 172.038C171.064 171.938 170.277 171.004 170.292 169.894C170.306 168.779 171.311 167.907 172.481 168.022L173.468 168.132C174.607 168.275 175.37 169.309 175.206 170.407ZM171.323 169.946C171.289 170.483 171.677 170.953 172.189 170.999L173.111 171.102C173.629 171.169 174.11 170.79 174.183 170.26C174.258 169.727 173.881 169.238 173.344 169.168L172.379 169.06C171.832 169.011 171.357 169.411 171.323 169.946Z" fill="#3B0E19"/>
<path fill-rule="evenodd" clip-rule="evenodd" d="M169.933 170.412C169.933 170.412 170.411 170.412 170.89 170.446C171.367 170.465 171.847 170.515 171.847 170.515C172.126 170.536 172.377 170.328 172.407 170.043C172.436 169.756 172.227 169.498 171.937 169.475C171.937 169.475 171.444 169.423 170.946 169.403C170.448 169.369 169.948 169.368 169.948 169.368L169.933 170.412Z" fill="#3B0E19"/>
<path fill-rule="evenodd" clip-rule="evenodd" d="M175.63 169.944L173.683 169.668C173.397 169.631 173.138 169.833 173.105 170.12C173.072 170.405 173.272 170.667 173.552 170.703L175.478 170.976L175.63 169.944Z" fill="#3B0E19"/>
<path fill-rule="evenodd" clip-rule="evenodd" d="M180.796 171.205C180.685 172.312 179.658 173.111 178.537 172.952L177.581 172.813C176.478 172.647 175.737 171.614 175.901 170.515C176.064 169.414 177.094 168.659 178.169 168.82L179.092 168.955C180.153 169.105 180.908 170.098 180.796 171.205ZM176.922 170.672C176.841 171.203 177.205 171.7 177.733 171.78L178.681 171.918C179.214 171.994 179.705 171.614 179.77 171.082C179.836 170.548 179.468 170.063 178.949 169.989L178.017 169.853C177.494 169.774 177.002 170.142 176.922 170.672Z" fill="#3B0E19"/>
<path fill-rule="evenodd" clip-rule="evenodd" d="M175.477 170.978L177.409 171.273C177.692 171.316 177.956 171.12 177.997 170.835C178.039 170.55 177.844 170.284 177.563 170.241L175.629 169.946L175.477 170.978Z" fill="#3B0E19"/>
<path fill-rule="evenodd" clip-rule="evenodd" d="M181.198 170.724C181.198 170.724 180.717 170.669 180.237 170.615C179.756 170.552 179.274 170.489 179.274 170.489C178.993 170.454 178.733 170.649 178.693 170.935C178.653 171.22 178.85 171.487 179.135 171.524C179.135 171.524 179.624 171.588 180.113 171.651C180.603 171.707 181.093 171.762 181.093 171.762L181.198 170.724Z" fill="#3B0E19"/>
<path fill-rule="evenodd" clip-rule="evenodd" d="M186.433 171.392C186.471 171.948 186.276 172.471 185.909 172.846C185.543 173.23 185.008 173.469 184.419 173.46C184.419 173.46 184.163 173.465 183.912 173.451C183.66 173.442 183.407 173.432 183.407 173.432C182.228 173.384 181.384 172.383 181.497 171.277C181.609 170.17 182.548 169.359 183.569 169.399C183.569 169.399 183.792 169.408 184.014 169.416C184.237 169.429 184.457 169.424 184.457 169.424C184.969 169.432 185.432 169.648 185.789 169.996C186.144 170.353 186.396 170.838 186.433 171.392ZM182.527 171.362C182.488 171.892 182.899 172.374 183.45 172.389C183.45 172.389 183.694 172.398 183.938 172.407C184.182 172.421 184.428 172.415 184.428 172.415C184.981 172.421 185.419 171.979 185.402 171.437C185.385 170.905 184.958 170.472 184.447 170.468C184.447 170.468 184.219 170.472 183.988 170.46C183.758 170.451 183.528 170.442 183.528 170.442C183.016 170.429 182.564 170.821 182.527 171.362Z" fill="#3B0E19"/>
<path fill-rule="evenodd" clip-rule="evenodd" d="M181.095 171.763C181.095 171.763 181.587 171.809 182.08 171.854C182.574 171.888 183.069 171.922 183.069 171.922C183.36 171.934 183.603 171.709 183.613 171.421C183.622 171.133 183.403 170.891 183.124 170.879C183.124 170.879 182.643 170.847 182.163 170.814C181.681 170.77 181.2 170.725 181.2 170.725L181.095 171.763Z" fill="#3B0E19"/>
<path fill-rule="evenodd" clip-rule="evenodd" d="M186.742 170.844C186.742 170.844 186.267 170.893 185.788 170.901C185.309 170.925 184.829 170.922 184.829 170.922C184.55 170.92 184.32 171.154 184.315 171.442C184.31 171.729 184.543 171.965 184.834 171.965C184.834 171.965 185.331 171.969 185.83 171.944C186.328 171.936 186.827 171.885 186.827 171.885L186.742 170.844Z" fill="#3B0E19"/>
<path fill-rule="evenodd" clip-rule="evenodd" d="M191.951 170.29C192.342 171.336 191.71 172.533 190.508 172.819C190.508 172.819 190.254 172.879 190 172.938C189.746 173.001 189.488 173.039 189.488 173.039C188.893 173.156 188.316 173.01 187.889 172.688C187.463 172.378 187.187 171.894 187.134 171.338C187.082 170.786 187.253 170.267 187.541 169.857C187.836 169.458 188.246 169.169 188.731 169.073C188.731 169.073 188.944 169.043 189.15 168.991C189.358 168.943 189.565 168.893 189.565 168.893C190.508 168.672 191.562 169.251 191.951 170.29ZM188.16 171.216C188.232 171.754 188.741 172.117 189.292 172.013C189.292 172.013 189.539 171.977 189.78 171.917C190.022 171.86 190.265 171.803 190.265 171.803C190.814 171.684 191.123 171.118 190.968 170.607C190.811 170.089 190.299 169.804 189.809 169.908C189.809 169.908 189.59 169.96 189.37 170.012C189.15 170.067 188.926 170.099 188.926 170.099C188.433 170.192 188.089 170.69 188.16 171.216Z" fill="#3B0E19"/>
<path fill-rule="evenodd" clip-rule="evenodd" d="M186.826 171.886C186.826 171.886 187.325 171.858 187.82 171.785C188.069 171.753 188.317 171.72 188.503 171.695C188.687 171.662 188.811 171.64 188.811 171.64C189.1 171.588 189.288 171.317 189.231 171.034C189.174 170.751 188.907 170.561 188.635 170.61C188.635 170.61 188.517 170.632 188.342 170.663C188.165 170.687 187.928 170.717 187.692 170.748C187.219 170.819 186.741 170.845 186.741 170.845L186.826 171.886Z" fill="#3B0E19"/>
<path fill-rule="evenodd" clip-rule="evenodd" d="M192.098 169.681C192.098 169.681 191.986 169.721 191.819 169.782C191.651 169.841 191.43 169.931 191.2 169.992C190.972 170.061 190.745 170.129 190.574 170.179C190.403 170.233 190.287 170.259 190.287 170.259C190.018 170.323 189.853 170.602 189.917 170.883C189.982 171.164 190.265 171.338 190.552 171.27C190.552 171.27 190.674 171.242 190.854 171.186C191.034 171.132 191.274 171.061 191.515 170.989C191.758 170.923 191.991 170.83 192.168 170.767C192.345 170.703 192.464 170.659 192.464 170.659L192.098 169.681Z" fill="#3B0E19"/>
<path fill-rule="evenodd" clip-rule="evenodd" d="M196.742 167.395C197.127 167.791 197.316 168.325 197.256 168.87C197.179 169.389 196.892 169.975 196.35 170.32C196.35 170.32 196.121 170.475 195.892 170.63C195.78 170.71 195.662 170.782 195.571 170.83C195.481 170.881 195.421 170.914 195.421 170.914C195.143 171.072 194.848 171.17 194.563 171.212C194.271 171.238 193.984 171.201 193.727 171.117C193.211 170.947 192.816 170.573 192.611 170.05C192.412 169.537 192.424 168.975 192.567 168.51C192.639 168.276 192.748 168.069 192.887 167.891C193.018 167.699 193.181 167.541 193.384 167.43C193.384 167.43 193.427 167.405 193.493 167.369C193.56 167.336 193.645 167.284 193.725 167.225C193.889 167.112 194.053 167 194.053 167C194.445 166.76 194.879 166.641 195.377 166.725C195.854 166.786 196.354 166.993 196.742 167.395ZM193.555 169.63C193.788 170.126 194.39 170.3 194.894 170.013C194.894 170.013 194.949 169.982 195.033 169.935C195.119 169.891 195.228 169.824 195.332 169.749C195.543 169.605 195.755 169.461 195.755 169.461C196.245 169.148 196.309 168.483 195.97 168.08C195.62 167.66 195.056 167.603 194.647 167.859C194.647 167.859 194.466 167.982 194.285 168.106C194.197 168.17 194.104 168.227 194.03 168.265C193.958 168.305 193.911 168.331 193.911 168.331C193.491 168.57 193.332 169.154 193.555 169.63Z" fill="#3B0E19"/>
<path fill-rule="evenodd" clip-rule="evenodd" d="M192.464 170.658C192.471 170.699 194.331 169.867 194.308 169.823C194.57 169.677 194.659 169.358 194.51 169.112C194.36 168.865 194.047 168.772 193.81 168.905C193.831 168.946 192.119 169.713 192.098 169.68L192.464 170.658Z" fill="#3B0E19"/>
<path fill-rule="evenodd" clip-rule="evenodd" d="M196.623 166.783C196.623 166.783 196.292 167.117 195.943 167.429C195.578 167.723 195.215 168.019 195.215 168.019C194.992 168.171 194.939 168.49 195.099 168.729C195.26 168.969 195.59 169.027 195.837 168.858C195.837 168.858 196.234 168.538 196.628 168.216C197.008 167.878 197.366 167.515 197.366 167.515L196.623 166.783Z" fill="#3B0E19"/>
<path fill-rule="evenodd" clip-rule="evenodd" d="M199.914 162.76C200.931 163.192 201.365 164.48 200.726 165.575L200.144 166.481C199.768 166.988 199.262 167.324 198.709 167.379C198.165 167.445 197.643 167.274 197.238 166.894C196.832 166.514 196.605 166.007 196.54 165.529C196.487 165.059 196.541 164.564 196.825 164.189L197.27 163.497C197.744 162.687 198.888 162.321 199.914 162.76ZM197.911 166.11C198.324 166.448 198.951 166.356 199.286 165.888L199.833 165.037C200.112 164.54 199.944 163.934 199.466 163.691C198.987 163.447 198.405 163.603 198.164 164.034L197.684 164.782C197.398 165.178 197.493 165.769 197.911 166.11Z" fill="#3B0E19"/>
<path fill-rule="evenodd" clip-rule="evenodd" d="M197.366 167.514C197.366 167.514 197.465 167.432 197.587 167.286C197.713 167.143 197.881 166.951 198.049 166.761C198.223 166.575 198.368 166.366 198.484 166.215C198.597 166.063 198.674 165.961 198.674 165.961C198.857 165.726 198.791 165.392 198.551 165.232C198.313 165.072 198.001 165.13 197.832 165.345C197.832 165.345 197.761 165.439 197.655 165.58C197.549 165.721 197.414 165.915 197.252 166.086C197.098 166.262 196.943 166.439 196.826 166.571C196.713 166.706 196.623 166.781 196.623 166.781L197.366 167.514Z" fill="#3B0E19"/>
<path fill-rule="evenodd" clip-rule="evenodd" d="M199.574 162.231C199.574 162.231 199.534 162.344 199.458 162.505C199.381 162.666 199.28 162.881 199.178 163.096C199.082 163.313 198.966 163.52 198.879 163.675C198.794 163.831 198.737 163.934 198.737 163.934C198.608 164.177 198.691 164.49 198.931 164.64C199.18 164.793 199.505 164.712 199.644 164.449C199.644 164.449 199.704 164.339 199.796 164.173C199.888 164.008 200.011 163.787 200.114 163.556C200.222 163.329 200.329 163.101 200.41 162.93C200.49 162.759 200.532 162.641 200.532 162.641L199.574 162.231Z" fill="#3B0E19"/>
<path fill-rule="evenodd" clip-rule="evenodd" d="M201.511 157.347C202.06 157.445 202.515 157.757 202.796 158.203C203.086 158.648 203.191 159.224 203.043 159.804C203.043 159.804 202.989 160.054 202.913 160.301C202.841 160.55 202.769 160.798 202.769 160.798C202.428 161.967 201.208 162.547 200.183 162.108C199.165 161.673 198.634 160.592 198.909 159.642C198.909 159.642 198.969 159.434 199.03 159.225C199.094 159.019 199.14 158.803 199.14 158.803C199.391 157.836 200.412 157.163 201.511 157.347ZM200.545 161.14C201.043 161.319 201.624 161.038 201.77 160.499C201.77 160.499 201.84 160.261 201.909 160.023C201.983 159.787 202.034 159.545 202.034 159.545C202.167 159.004 201.843 158.474 201.313 158.364C200.794 158.255 200.272 158.569 200.15 159.062C200.15 159.062 200.104 159.286 200.035 159.504C199.971 159.723 199.907 159.942 199.907 159.942C199.776 160.431 200.035 160.957 200.545 161.14Z" fill="#3B0E19"/>
<path fill-rule="evenodd" clip-rule="evenodd" d="M200.531 162.639C200.531 162.639 200.725 162.176 200.901 161.705C201.063 161.23 201.225 160.756 201.225 160.756C201.308 160.474 201.149 160.181 200.873 160.102C200.597 160.021 200.31 160.173 200.233 160.441C200.233 160.441 200.078 160.892 199.924 161.344C199.757 161.791 199.573 162.23 199.573 162.23L200.531 162.639Z" fill="#3B0E19"/>
<path fill-rule="evenodd" clip-rule="evenodd" d="M201.054 156.914C201.054 156.914 200.983 157.39 200.881 157.86C200.794 158.333 200.678 158.798 200.678 158.798C200.612 159.07 200.784 159.349 201.062 159.423C201.341 159.497 201.622 159.326 201.691 159.041C201.691 159.041 201.813 158.557 201.903 158.066C202.008 157.578 202.081 157.084 202.081 157.084L201.054 156.914Z" fill="#3B0E19"/>
<path fill-rule="evenodd" clip-rule="evenodd" d="M202.016 151.717C203.125 151.726 204.024 152.68 203.946 153.851C203.946 153.851 203.93 154.101 203.914 154.351C203.891 154.602 203.868 154.852 203.868 154.852C203.764 156.026 202.72 156.835 201.623 156.651C200.529 156.469 199.769 155.504 199.858 154.478C199.858 154.478 199.879 154.254 199.899 154.031C199.914 153.806 199.928 153.581 199.928 153.581C199.998 152.55 200.907 151.706 202.016 151.717ZM201.762 155.626C202.295 155.693 202.784 155.303 202.83 154.755C202.83 154.755 202.852 154.512 202.876 154.268C202.891 154.025 202.907 153.781 202.907 153.781C202.946 153.233 202.524 152.772 201.987 152.752C201.453 152.731 201.005 153.136 200.967 153.652C200.967 153.652 200.952 153.883 200.938 154.114C200.916 154.344 200.894 154.574 200.894 154.574C200.852 155.089 201.232 155.559 201.762 155.626Z" fill="#3B0E19"/>
<path fill-rule="evenodd" clip-rule="evenodd" d="M202.082 157.084C202.082 157.084 202.102 156.961 202.131 156.777C202.163 156.593 202.199 156.347 202.228 156.1C202.292 155.606 202.344 155.112 202.344 155.112C202.371 154.822 202.16 154.567 201.874 154.542C201.588 154.517 201.334 154.724 201.308 155.004C201.308 155.004 201.258 155.483 201.195 155.961C201.168 156.201 201.132 156.439 201.101 156.617C201.073 156.795 201.054 156.914 201.054 156.914L202.082 157.084Z" fill="#3B0E19"/>
<path fill-rule="evenodd" clip-rule="evenodd" d="M201.5 151.36C201.5 151.36 201.502 151.844 201.482 152.327C201.467 152.811 201.442 153.293 201.442 153.293C201.424 153.574 201.642 153.819 201.929 153.84C202.216 153.86 202.464 153.643 202.482 153.353C202.482 153.353 202.508 152.857 202.523 152.361C202.544 151.865 202.541 151.369 202.541 151.369L201.5 151.36Z" fill="#3B0E19"/>
<path fill-rule="evenodd" clip-rule="evenodd" d="M201.757 146.068C202.858 145.944 203.859 146.78 203.936 147.935L203.99 148.926C204.042 150.084 203.133 151.024 202.026 151.014C200.914 151.005 200.014 150.148 199.967 149.101L199.917 148.191C199.848 147.143 200.652 146.192 201.757 146.068ZM202.013 149.979C202.551 149.969 202.969 149.516 202.949 148.971L202.896 148.002C202.861 147.457 202.387 147.053 201.854 147.099C201.32 147.146 200.922 147.605 200.957 148.124L201.008 149.055C201.026 149.575 201.479 149.989 202.013 149.979Z" fill="#3B0E19"/>
<path fill-rule="evenodd" clip-rule="evenodd" d="M202.543 151.372C202.543 151.372 202.55 150.875 202.539 150.38C202.537 149.884 202.513 149.389 202.513 149.389C202.503 149.1 202.262 148.876 201.974 148.89C201.689 148.904 201.462 149.144 201.473 149.426C201.473 149.426 201.495 149.91 201.498 150.394C201.508 150.879 201.502 151.363 201.502 151.363L202.543 151.372Z" fill="#3B0E19"/>
<path fill-rule="evenodd" clip-rule="evenodd" d="M201.2 145.776C201.2 145.776 201.255 146.257 201.299 146.741C201.339 147.224 201.379 147.707 201.379 147.707C201.403 147.988 201.645 148.203 201.933 148.186C202.219 148.169 202.442 147.921 202.418 147.632C202.418 147.632 202.377 147.139 202.336 146.646C202.291 146.152 202.235 145.661 202.235 145.661L201.2 145.776Z" fill="#3B0E19"/>
<path fill-rule="evenodd" clip-rule="evenodd" d="M200.873 140.479C201.424 140.41 201.959 140.557 202.368 140.804C202.756 141.009 203.11 141.511 203.21 142.079L203.384 143.062C203.569 144.21 202.778 145.245 201.676 145.368C200.574 145.491 199.577 144.741 199.41 143.708L199.253 142.817C199.162 142.298 199.274 141.826 199.569 141.311C199.86 140.842 200.323 140.548 200.873 140.479ZM201.543 144.341C202.074 144.268 202.441 143.769 202.355 143.229L202.187 142.27C202.089 141.73 201.562 141.384 201.042 141.5C200.517 141.617 200.185 142.117 200.277 142.626L200.438 143.542C200.519 144.054 201.013 144.413 201.543 144.341Z" fill="#3B0E19"/>
<path fill-rule="evenodd" clip-rule="evenodd" d="M202.234 145.66C202.234 145.66 202.183 145.168 202.113 144.677C202.043 144.186 201.973 143.695 201.973 143.695C201.931 143.409 201.659 143.216 201.377 143.263C201.093 143.311 200.903 143.575 200.944 143.854C200.944 143.854 201.012 144.333 201.081 144.813C201.149 145.293 201.199 145.775 201.199 145.775L202.234 145.66Z" fill="#3B0E19"/>
<path fill-rule="evenodd" clip-rule="evenodd" d="M200.312 140.18C200.312 140.18 200.313 140.308 200.349 140.497C200.38 140.687 200.422 140.94 200.463 141.192C200.502 141.451 200.548 141.694 200.587 141.866C200.624 142.043 200.647 142.161 200.647 142.161C200.7 142.438 200.972 142.621 201.254 142.569C201.537 142.519 201.724 142.245 201.67 141.96C201.67 141.96 201.645 141.838 201.606 141.655C201.564 141.468 201.52 141.23 201.486 141.003C201.449 140.773 201.411 140.542 201.382 140.368C201.347 140.196 201.348 140.078 201.348 140.078L200.312 140.18Z" fill="#3B0E19"/>
<path fill-rule="evenodd" clip-rule="evenodd" d="M201.393 134.885C202.457 135.235 203.079 136.253 202.927 137.159C202.927 137.159 202.899 137.36 202.877 137.561C202.853 137.762 202.83 137.962 202.83 137.962C202.788 138.425 202.563 138.832 202.193 139.162C201.85 139.485 201.36 139.734 200.807 139.774C200.254 139.815 199.736 139.616 199.348 139.216C198.987 138.823 198.761 138.225 198.82 137.59C198.82 137.59 198.851 137.318 198.882 137.047C198.913 136.774 198.953 136.505 198.953 136.505C199.168 135.233 200.35 134.538 201.393 134.885ZM200.777 138.74C201.321 138.742 201.744 138.349 201.792 137.866C201.792 137.866 201.818 137.647 201.844 137.428C201.867 137.208 201.899 136.99 201.899 136.99C201.994 136.509 201.645 136.012 201.125 135.883C200.605 135.754 200.09 136.109 199.981 136.674C199.981 136.674 199.943 136.926 199.916 137.179C199.886 137.432 199.857 137.686 199.857 137.686C199.801 138.263 200.25 138.74 200.777 138.74Z" fill="#3B0E19"/>
<path fill-rule="evenodd" clip-rule="evenodd" d="M201.347 140.075C201.347 140.075 201.319 139.608 201.289 139.14C201.302 138.671 201.315 138.202 201.315 138.202C201.316 137.929 201.131 137.686 200.839 137.654C200.56 137.623 200.278 137.837 200.274 138.137C200.274 138.137 200.261 138.647 200.248 139.157C200.279 139.668 200.311 140.178 200.311 140.178L201.347 140.075Z" fill="#3B0E19"/>
<path fill-rule="evenodd" clip-rule="evenodd" d="M201.01 134.387C201.01 134.387 200.97 134.507 200.91 134.686C200.86 134.869 200.794 135.113 200.726 135.357C200.658 135.601 200.597 135.847 200.565 136.035C200.529 136.222 200.505 136.346 200.505 136.346C200.449 136.639 200.631 136.91 200.921 136.954C201.2 136.995 201.476 136.813 201.528 136.544C201.528 136.544 201.55 136.429 201.584 136.254C201.612 136.079 201.669 135.851 201.735 135.622C201.796 135.394 201.859 135.166 201.906 134.995C201.962 134.827 202.001 134.714 202.001 134.714L201.01 134.387Z" fill="#3B0E19"/>
<path fill-rule="evenodd" clip-rule="evenodd" d="M203.88 129.835C204.766 130.508 205.047 131.659 204.585 132.506C204.585 132.506 204.482 132.69 204.388 132.88C204.292 133.069 204.196 133.257 204.196 133.257C203.987 133.7 203.604 134.012 203.148 134.19C202.679 134.362 202.144 134.403 201.619 134.219C201.096 134.036 200.685 133.644 200.498 133.147C200.295 132.647 200.31 132.042 200.573 131.488C200.573 131.488 200.692 131.253 200.812 131.018C200.931 130.783 201.058 130.552 201.058 130.552C201.654 129.463 202.996 129.161 203.88 129.835ZM201.989 133.252C202.478 133.454 203.05 133.252 203.259 132.8C203.259 132.8 203.36 132.599 203.462 132.398C203.564 132.197 203.673 132 203.673 132C203.913 131.563 203.761 130.985 203.309 130.696C202.857 130.406 202.243 130.562 201.971 131.058C201.971 131.058 201.849 131.276 201.737 131.5C201.623 131.723 201.51 131.945 201.51 131.945C201.272 132.459 201.487 133.046 201.989 133.252Z" fill="#3B0E19"/>
<path fill-rule="evenodd" clip-rule="evenodd" d="M202.001 134.716C202.001 134.716 202.039 134.604 202.095 134.435C202.148 134.265 202.229 134.043 202.322 133.823C202.49 133.379 202.693 132.949 202.693 132.949C202.807 132.698 202.693 132.39 202.439 132.262C202.179 132.132 201.869 132.243 201.746 132.512C201.746 132.512 201.531 132.967 201.352 133.439C201.255 133.672 201.169 133.908 201.112 134.09C201.051 134.27 201.011 134.389 201.011 134.389L202.001 134.716Z" fill="#3B0E19"/>
<path fill-rule="evenodd" clip-rule="evenodd" d="M203.925 129.419C203.862 129.368 203.782 129.345 203.701 129.354C203.621 129.364 203.549 129.406 203.5 129.47C203.495 129.477 203.49 129.483 203.486 129.489C203.375 129.645 203.229 129.853 203.092 130.064C202.815 130.487 202.564 130.923 202.564 130.923C202.419 131.18 202.507 131.499 202.761 131.635C203.014 131.772 203.33 131.688 203.466 131.448C203.466 131.448 203.703 131.035 203.962 130.639C204.092 130.44 204.227 130.248 204.328 130.104C204.422 129.979 204.4 129.802 204.278 129.703L203.925 129.419Z" fill="#3B0E19"/>
<path fill-rule="evenodd" clip-rule="evenodd" d="M228.827 158.212C228.442 159.256 227.424 159.861 226.479 159.667C226.479 159.667 226.272 159.622 226.064 159.588C225.854 159.551 225.646 159.514 225.646 159.514C225.162 159.444 224.752 159.169 224.448 158.785C224.146 158.387 223.951 157.887 223.974 157.331C223.996 156.778 224.25 156.27 224.67 155.945C225.089 155.605 225.672 155.443 226.279 155.533C226.279 155.533 226.539 155.578 226.799 155.623C227.058 155.668 227.316 155.723 227.316 155.723C228.532 155.974 229.213 157.169 228.827 158.212ZM225.007 157.403C224.956 157.93 225.317 158.418 225.811 158.485C225.811 158.485 226.032 158.524 226.254 158.563C226.476 158.601 226.696 158.647 226.696 158.647C227.185 158.749 227.693 158.435 227.837 157.918C227.982 157.401 227.653 156.86 227.1 156.744C227.1 156.744 226.856 156.692 226.609 156.65C226.362 156.606 226.116 156.563 226.116 156.563C225.556 156.486 225.057 156.862 225.007 157.403Z" fill="#3B0E19"/>
<path fill-rule="evenodd" clip-rule="evenodd" d="M223.609 157.841C223.609 157.841 223.727 157.845 223.905 157.849C224.083 157.85 224.32 157.862 224.556 157.887C225.03 157.918 225.501 157.986 225.501 157.986C225.775 158.022 226.036 157.823 226.084 157.543C226.132 157.256 225.935 156.991 225.642 156.953C225.642 156.953 225.144 156.881 224.64 156.847C224.389 156.822 224.138 156.809 223.948 156.808C223.758 156.802 223.632 156.798 223.632 156.798L223.609 157.841Z" fill="#3B0E19"/>
<path fill-rule="evenodd" clip-rule="evenodd" d="M229.238 158.132C229.268 158.057 229.266 157.973 229.234 157.9C229.201 157.826 229.14 157.769 229.064 157.741C229.057 157.738 229.049 157.735 229.042 157.733C228.86 157.672 228.619 157.593 228.377 157.524C227.891 157.383 227.401 157.271 227.401 157.271C227.113 157.207 226.833 157.385 226.777 157.667C226.721 157.949 226.894 158.227 227.163 158.287C227.163 158.287 227.627 158.393 228.081 158.525C228.31 158.59 228.533 158.663 228.7 158.718C228.847 158.772 229.01 158.698 229.069 158.553L229.238 158.132Z" fill="#3B0E19"/>
<path fill-rule="evenodd" clip-rule="evenodd" d="M223.273 157.308C223.248 158.428 222.457 159.32 221.546 159.44C221.546 159.44 221.346 159.471 221.147 159.509C220.948 159.545 220.75 159.581 220.75 159.581C220.294 159.677 219.84 159.581 219.416 159.323C219.006 159.09 218.625 158.694 218.425 158.177C218.225 157.66 218.263 157.107 218.532 156.619C218.803 156.158 219.308 155.768 219.933 155.638C219.933 155.638 220.202 155.588 220.471 155.538C220.741 155.489 221.01 155.448 221.01 155.448C222.289 155.282 223.299 156.208 223.273 157.308ZM219.405 157.846C219.563 158.366 220.062 158.656 220.538 158.56C220.538 158.56 220.755 158.521 220.972 158.482C221.189 158.44 221.408 158.407 221.408 158.407C221.895 158.357 222.268 157.878 222.239 157.343C222.21 156.808 221.721 156.419 221.148 156.48C221.148 156.48 220.897 156.518 220.647 156.565C220.396 156.611 220.144 156.658 220.144 156.658C219.577 156.772 219.251 157.341 219.405 157.846Z" fill="#3B0E19"/>
<path fill-rule="evenodd" clip-rule="evenodd" d="M218.295 158.782C218.295 158.782 218.734 158.618 219.173 158.453C219.625 158.328 220.078 158.203 220.078 158.203C220.338 158.124 220.517 157.877 220.462 157.588C220.41 157.312 220.123 157.105 219.835 157.189C219.835 157.189 219.344 157.326 218.852 157.462C218.373 157.641 217.894 157.821 217.894 157.821L218.295 158.782Z" fill="#3B0E19"/>
<path fill-rule="evenodd" clip-rule="evenodd" d="M223.636 156.795C223.636 156.795 223.51 156.792 223.321 156.787C223.131 156.793 222.878 156.8 222.625 156.807C222.373 156.813 222.119 156.827 221.93 156.851C221.741 156.872 221.615 156.885 221.615 156.885C221.318 156.917 221.113 157.17 221.155 157.46C221.198 157.739 221.452 157.95 221.725 157.921C221.725 157.921 221.842 157.908 222.018 157.89C222.194 157.866 222.429 157.853 222.667 157.849C222.903 157.841 223.139 157.835 223.317 157.829C223.494 157.834 223.613 157.838 223.613 157.838L223.636 156.795Z" fill="#3B0E19"/>
<path fill-rule="evenodd" clip-rule="evenodd" d="M217.769 158.447C217.996 158.954 218.011 159.508 217.894 159.972C217.812 160.402 217.436 160.888 216.922 161.15L216.032 161.603C214.989 162.116 213.768 161.663 213.328 160.644C212.888 159.626 213.314 158.453 214.252 157.992L215.059 157.581C215.529 157.342 216.013 157.312 216.591 157.443C217.125 157.585 217.542 157.941 217.769 158.447ZM214.271 160.216C214.496 160.703 215.08 160.909 215.571 160.669L216.44 160.227C216.928 159.975 217.104 159.371 216.841 158.907C216.576 158.439 216.001 158.268 215.541 158.504L214.712 158.926C214.246 159.153 214.047 159.731 214.271 160.216Z" fill="#3B0E19"/>
<path fill-rule="evenodd" clip-rule="evenodd" d="M213.211 161.264C213.211 161.264 213.666 161.071 214.116 160.861C214.564 160.65 215.013 160.44 215.013 160.44C215.275 160.316 215.38 160 215.252 159.743C215.123 159.485 214.816 159.381 214.561 159.502C214.561 159.502 214.122 159.708 213.684 159.913C213.244 160.119 212.798 160.308 212.798 160.308L213.211 161.264Z" fill="#3B0E19"/>
<path fill-rule="evenodd" clip-rule="evenodd" d="M217.889 157.823C217.889 157.823 217.767 157.861 217.597 157.951C217.425 158.036 217.195 158.15 216.966 158.262C216.73 158.376 216.511 158.491 216.358 158.578C216.199 158.665 216.093 158.722 216.093 158.722C215.844 158.853 215.748 159.167 215.88 159.422C216.011 159.678 216.327 159.777 216.584 159.642C216.584 159.642 216.694 159.582 216.857 159.492C217.024 159.396 217.239 159.284 217.445 159.186C217.655 159.083 217.865 158.979 218.023 158.901C218.177 158.817 218.29 158.784 218.29 158.784L217.889 157.823Z" fill="#3B0E19"/>
<path fill-rule="evenodd" clip-rule="evenodd" d="M212.681 160.929C213.121 161.945 212.614 163.147 211.532 163.558L210.601 163.9C209.508 164.288 208.343 163.694 208.03 162.633C207.713 161.566 208.27 160.455 209.257 160.104L210.113 159.79C211.095 159.417 212.239 159.908 212.681 160.929ZM209.015 162.317C209.182 162.828 209.737 163.096 210.253 162.918L211.164 162.583C211.675 162.391 211.923 161.819 211.723 161.323C211.522 160.826 210.967 160.58 210.48 160.765L209.605 161.086C209.114 161.256 208.85 161.81 209.015 162.317Z" fill="#3B0E19"/>
<path fill-rule="evenodd" clip-rule="evenodd" d="M207.838 163.231C207.838 163.231 208.315 163.093 208.785 162.938C209.259 162.79 209.725 162.623 209.725 162.623C209.999 162.529 210.142 162.233 210.045 161.962C209.948 161.693 209.653 161.546 209.386 161.639C209.386 161.639 208.93 161.802 208.467 161.946C208.007 162.098 207.543 162.233 207.543 162.233L207.838 163.231Z" fill="#3B0E19"/>
<path fill-rule="evenodd" clip-rule="evenodd" d="M212.796 160.31C212.796 160.31 212.352 160.503 211.902 160.687C211.452 160.866 211.002 161.045 211.002 161.045C210.74 161.151 210.605 161.445 210.706 161.716C210.806 161.984 211.108 162.125 211.377 162.018C211.377 162.018 211.837 161.834 212.296 161.65C212.755 161.464 213.209 161.266 213.209 161.266L212.796 160.31Z" fill="#3B0E19"/>
<path fill-rule="evenodd" clip-rule="evenodd" d="M207.352 162.824C207.668 163.888 207.018 165.026 205.876 165.294C205.876 165.294 205.631 165.351 205.388 165.409C205.142 165.46 204.895 165.512 204.895 165.512C203.743 165.756 202.664 164.994 202.518 163.891C202.373 162.792 203.073 161.782 204.081 161.567C204.081 161.567 204.301 161.522 204.52 161.477C204.739 161.425 204.959 161.372 204.959 161.372C205.965 161.137 207.038 161.76 207.352 162.824ZM203.54 163.724C203.632 164.254 204.147 164.607 204.685 164.491C204.685 164.491 204.924 164.441 205.164 164.392C205.4 164.335 205.638 164.28 205.638 164.28C206.174 164.157 206.492 163.618 206.354 163.099C206.218 162.583 205.699 162.272 205.195 162.386C205.195 162.386 204.97 162.44 204.745 162.494C204.518 162.54 204.291 162.587 204.291 162.587C203.787 162.697 203.449 163.198 203.54 163.724Z" fill="#3B0E19"/>
<path fill-rule="evenodd" clip-rule="evenodd" d="M202.238 164.456C202.238 164.456 202.361 164.439 202.546 164.414C202.731 164.39 202.977 164.353 203.222 164.308C203.713 164.225 204.201 164.131 204.201 164.131C204.485 164.072 204.668 163.796 204.608 163.515C204.548 163.233 204.276 163.051 204.001 163.108C204.001 163.108 203.528 163.2 203.052 163.28C202.815 163.324 202.577 163.36 202.398 163.382C202.219 163.407 202.1 163.424 202.1 163.424L202.238 164.456Z" fill="#3B0E19"/>
<path fill-rule="evenodd" clip-rule="evenodd" d="M207.542 162.226C207.542 162.226 207.079 162.37 206.611 162.492C206.144 162.618 205.676 162.736 205.676 162.736C205.402 162.801 205.232 163.081 205.296 163.362C205.36 163.642 205.64 163.815 205.923 163.748C205.923 163.748 206.405 163.627 206.883 163.498C207.364 163.372 207.837 163.225 207.837 163.225L207.542 162.226Z" fill="#3B0E19"/>
<path fill-rule="evenodd" clip-rule="evenodd" d="M201.822 163.992C201.889 164.546 201.724 165.072 201.379 165.471C201.039 165.878 200.518 166.147 199.921 166.175C199.921 166.175 199.666 166.197 199.407 166.196C199.148 166.2 198.89 166.204 198.89 166.204C197.672 166.219 196.761 165.222 196.881 164.114C197 163.013 197.878 162.189 198.866 162.174C198.866 162.174 199.083 162.171 199.301 162.168C199.517 162.17 199.737 162.15 199.737 162.15C200.735 162.108 201.677 162.887 201.822 163.992ZM197.913 164.176C197.887 164.705 198.325 165.179 198.884 165.161C198.884 165.161 199.131 165.158 199.379 165.154C199.627 165.156 199.873 165.134 199.873 165.134C200.429 165.104 200.841 164.638 200.792 164.099C200.744 163.571 200.291 163.164 199.784 163.192C199.784 163.192 199.556 163.212 199.328 163.21C199.099 163.213 198.872 163.216 198.872 163.216C198.365 163.234 197.938 163.635 197.913 164.176Z" fill="#3B0E19"/>
<path fill-rule="evenodd" clip-rule="evenodd" d="M196.474 164.602C196.474 164.602 196.974 164.653 197.476 164.683C197.977 164.699 198.478 164.716 198.478 164.716C198.771 164.712 199.005 164.475 199 164.187C198.996 163.9 198.767 163.67 198.489 163.674C198.489 163.674 198.012 163.658 197.535 163.643C197.059 163.614 196.585 163.566 196.585 163.566L196.474 164.602Z" fill="#3B0E19"/>
<path fill-rule="evenodd" clip-rule="evenodd" d="M202.102 163.428C202.102 163.428 201.626 163.5 201.147 163.54C200.669 163.595 200.19 163.619 200.19 163.619C199.911 163.636 199.694 163.882 199.705 164.17C199.716 164.458 199.961 164.677 200.254 164.659C200.254 164.659 200.753 164.634 201.249 164.577C201.746 164.535 202.239 164.461 202.239 164.461L202.102 163.428Z" fill="#3B0E19"/>
<path fill-rule="evenodd" clip-rule="evenodd" d="M196.178 164.045C196.061 165.144 194.957 165.935 193.723 165.644L192.686 165.352C192.091 165.142 191.622 164.755 191.408 164.242C191.186 163.742 191.197 163.193 191.441 162.694C191.686 162.195 192.105 161.83 192.543 161.627C192.976 161.439 193.466 161.346 193.908 161.509L194.699 161.732C195.613 161.948 196.297 162.935 196.178 164.045ZM192.388 163.108C192.185 163.602 192.457 164.174 193.002 164.359L193.976 164.632C194.533 164.754 195.064 164.416 195.156 163.888C195.249 163.359 194.931 162.848 194.447 162.744L193.592 162.503C193.129 162.345 192.592 162.609 192.388 163.108Z" fill="#3B0E19"/>
<path fill-rule="evenodd" clip-rule="evenodd" d="M190.885 162.996C190.885 162.996 190.993 163.066 191.168 163.141C191.341 163.22 191.574 163.325 191.805 163.429C192.034 163.541 192.275 163.619 192.454 163.685C192.633 163.75 192.753 163.793 192.753 163.793C193.031 163.9 193.331 163.738 193.414 163.462C193.497 163.188 193.35 162.906 193.096 162.807C193.096 162.807 192.985 162.767 192.819 162.707C192.653 162.646 192.429 162.575 192.218 162.47C192.004 162.374 191.79 162.277 191.629 162.204C191.467 162.136 191.368 162.071 191.368 162.071L190.885 162.996Z" fill="#3B0E19"/>
<path fill-rule="evenodd" clip-rule="evenodd" d="M196.582 163.563C196.582 163.563 196.463 163.558 196.286 163.531C196.11 163.505 195.875 163.471 195.64 163.437C195.404 163.409 195.172 163.358 194.999 163.32C194.824 163.284 194.709 163.26 194.709 163.26C194.438 163.208 194.164 163.378 194.091 163.652C194.017 163.935 194.19 164.222 194.481 164.278C194.481 164.278 194.604 164.303 194.79 164.342C194.975 164.382 195.222 164.435 195.473 164.466C195.722 164.503 195.971 164.539 196.158 164.566C196.345 164.593 196.471 164.599 196.471 164.599L196.582 163.563Z" fill="#3B0E19"/>
<path fill-rule="evenodd" clip-rule="evenodd" d="M190.822 162.365C190.555 162.849 190.1 163.186 189.561 163.288C189.043 163.366 188.398 163.263 187.91 162.845C187.91 162.845 187.695 162.672 187.479 162.498C187.37 162.415 187.267 162.323 187.194 162.249C187.119 162.179 187.07 162.131 187.07 162.131C186.838 161.911 186.658 161.658 186.535 161.397C186.424 161.125 186.375 160.841 186.381 160.57C186.392 160.027 186.634 159.54 187.075 159.191C187.508 158.851 188.048 158.698 188.534 158.698C188.779 158.699 189.009 158.743 189.22 158.823C189.442 158.893 189.641 159.003 189.807 159.164C189.807 159.164 189.843 159.198 189.897 159.25C189.948 159.305 190.023 159.371 190.102 159.43C190.258 159.554 190.413 159.678 190.413 159.678C190.758 159.983 190.998 160.363 191.064 160.864C191.144 161.338 191.093 161.876 190.822 162.365ZM187.753 159.971C187.346 160.339 187.356 160.965 187.778 161.364C187.778 161.364 187.823 161.407 187.893 161.473C187.96 161.542 188.056 161.628 188.158 161.704C188.358 161.865 188.557 162.025 188.557 162.025C189 162.402 189.654 162.269 189.94 161.827C190.239 161.369 190.129 160.813 189.765 160.497C189.765 160.497 189.594 160.36 189.423 160.223C189.336 160.158 189.254 160.086 189.197 160.026C189.138 159.969 189.099 159.931 189.099 159.931C188.748 159.599 188.142 159.619 187.753 159.971Z" fill="#3B0E19"/>
<path fill-rule="evenodd" clip-rule="evenodd" d="M186.45 159.229C186.414 159.248 187.752 160.783 187.788 160.749C188.005 160.956 188.336 160.948 188.528 160.733C188.719 160.518 188.717 160.191 188.52 160.004C188.487 160.036 187.254 158.623 187.279 158.593L186.45 159.229Z" fill="#3B0E19"/>
<path fill-rule="evenodd" clip-rule="evenodd" d="M191.372 162.073C191.372 162.073 190.956 161.855 190.556 161.612C190.168 161.349 189.779 161.088 189.779 161.088C189.568 160.919 189.248 160.962 189.066 161.185C188.883 161.409 188.924 161.741 189.158 161.928C189.158 161.928 189.58 162.214 190.004 162.497C190.438 162.762 190.889 162.998 190.889 162.998L191.372 162.073Z" fill="#3B0E19"/>
<path fill-rule="evenodd" clip-rule="evenodd" d="M186.652 158.633C185.767 159.313 184.437 159.058 183.813 157.993C183.813 157.993 183.681 157.767 183.55 157.542C183.416 157.317 183.304 157.082 183.304 157.082C183.018 156.547 182.989 155.952 183.172 155.45C183.344 154.951 183.726 154.546 184.242 154.333C184.755 154.122 185.302 154.134 185.778 154.29C186.246 154.454 186.641 154.762 186.875 155.198C186.875 155.198 186.966 155.393 187.076 155.575C187.183 155.76 187.291 155.943 187.291 155.943C187.778 156.78 187.533 157.958 186.652 158.633ZM184.659 155.278C184.165 155.505 183.967 156.097 184.227 156.594C184.227 156.594 184.335 156.819 184.462 157.033C184.587 157.248 184.713 157.463 184.713 157.463C184.987 157.954 185.619 158.083 186.062 157.786C186.512 157.485 186.635 156.911 186.392 156.473C186.392 156.473 186.278 156.279 186.164 156.084C186.048 155.89 185.951 155.685 185.951 155.685C185.718 155.241 185.142 155.056 184.659 155.278Z" fill="#3B0E19"/>
<path fill-rule="evenodd" clip-rule="evenodd" d="M183.626 154.198C183.626 154.198 183.798 154.666 184.013 155.119C184.117 155.347 184.221 155.574 184.299 155.745C184.384 155.912 184.442 156.024 184.442 156.024C184.576 156.285 184.89 156.385 185.144 156.248C185.398 156.112 185.501 155.8 185.375 155.554C185.375 155.554 185.32 155.448 185.238 155.289C185.164 155.127 185.066 154.909 184.967 154.693C184.762 154.262 184.596 153.812 184.596 153.812L183.626 154.198Z" fill="#3B0E19"/>
<path fill-rule="evenodd" clip-rule="evenodd" d="M187.276 158.593C187.276 158.593 187.205 158.498 187.097 158.356C186.992 158.213 186.842 158.028 186.716 157.826C186.583 157.628 186.452 157.43 186.354 157.281C186.252 157.134 186.194 157.031 186.194 157.031C186.054 156.792 185.739 156.716 185.489 156.859C185.239 157.003 185.155 157.325 185.304 157.579C185.304 157.579 185.367 157.688 185.473 157.844C185.577 158 185.715 158.209 185.855 158.418C185.989 158.631 186.146 158.827 186.258 158.978C186.371 159.129 186.447 159.229 186.447 159.229L187.276 158.593Z" fill="#3B0E19"/>
<path fill-rule="evenodd" clip-rule="evenodd" d="M183.979 153.679C183.458 153.877 182.901 153.844 182.435 153.603C181.961 153.366 181.576 152.923 181.412 152.357C181.412 152.357 181.333 152.114 181.272 151.87C181.208 151.626 181.143 151.382 181.143 151.382C180.845 150.24 181.555 149.14 182.646 148.925C183.737 148.708 184.788 149.369 185.047 150.357C185.047 150.357 185.104 150.574 185.161 150.788C185.214 151.005 185.283 151.213 185.283 151.213C185.425 151.706 185.354 152.212 185.126 152.654C184.888 153.099 184.497 153.481 183.979 153.679ZM182.866 149.934C182.347 150.052 182.006 150.586 182.154 151.118C182.154 151.118 182.216 151.354 182.279 151.59C182.338 151.827 182.414 152.061 182.414 152.061C182.571 152.592 183.122 152.88 183.634 152.706C184.138 152.534 184.428 151.999 184.283 151.51C184.283 151.51 184.211 151.293 184.155 151.068C184.097 150.846 184.038 150.623 184.038 150.623C183.901 150.13 183.394 149.812 182.866 149.934Z" fill="#3B0E19"/>
<path fill-rule="evenodd" clip-rule="evenodd" d="M182.062 148.681C182.062 148.681 182.163 149.165 182.263 149.65C182.375 150.132 182.487 150.615 182.487 150.615C182.561 150.897 182.848 151.064 183.126 150.989C183.404 150.914 183.571 150.634 183.501 150.363C183.501 150.363 183.391 149.894 183.282 149.425C183.184 148.951 183.086 148.478 183.086 148.478L182.062 148.681Z" fill="#3B0E19"/>
<path fill-rule="evenodd" clip-rule="evenodd" d="M184.592 153.813C184.592 153.813 184.406 153.373 184.259 152.917C184.096 152.467 183.959 152.007 183.959 152.007C183.879 151.739 183.588 151.588 183.311 151.668C183.035 151.747 182.878 152.038 182.962 152.317C182.962 152.317 183.104 152.793 183.274 153.263C183.427 153.737 183.622 154.199 183.622 154.199L184.592 153.813Z" fill="#3B0E19"/>
<path fill-rule="evenodd" clip-rule="evenodd" d="M182.508 148.23C181.417 148.448 180.352 147.7 180.177 146.58L180.03 145.626C179.866 144.522 180.638 143.512 181.737 143.347C182.837 143.181 183.86 143.946 184.02 145.021L184.161 145.943C184.327 147.001 183.599 148.014 182.508 148.23ZM181.884 144.37C181.353 144.448 180.984 144.942 181.063 145.47L181.207 146.417C181.291 146.948 181.797 147.307 182.325 147.214C182.855 147.121 183.212 146.627 183.13 146.109L182.988 145.178C182.911 144.655 182.415 144.292 181.884 144.37Z" fill="#3B0E19"/>
<path fill-rule="evenodd" clip-rule="evenodd" d="M181.168 143.078L181.451 145.012C181.493 145.295 181.758 145.49 182.042 145.447C182.327 145.403 182.524 145.139 182.483 144.858L182.2 142.922L181.168 143.078Z" fill="#3B0E19"/>
<path fill-rule="evenodd" clip-rule="evenodd" d="M183.084 148.473C183.084 148.473 182.995 147.997 182.907 147.522C182.826 147.044 182.746 146.565 182.746 146.565C182.698 146.286 182.435 146.095 182.15 146.14C181.866 146.184 181.667 146.451 181.715 146.735C181.715 146.735 181.798 147.221 181.88 147.707C181.97 148.192 182.06 148.677 182.06 148.677L183.084 148.473Z" fill="#3B0E19"/>
<path fill-rule="evenodd" clip-rule="evenodd" d="M181.639 142.654C180.538 142.819 179.516 142.077 179.335 141.038L179.168 140.148C178.964 139.141 179.627 138.115 180.693 137.804C181.764 137.492 182.892 138.198 183.124 139.35L183.307 140.327C183.504 141.458 182.738 142.489 181.639 142.654ZM180.946 138.806C180.423 138.931 180.087 139.439 180.193 139.942L180.363 140.854C180.45 141.369 180.953 141.718 181.482 141.633C182.014 141.549 182.371 141.045 182.281 140.511L182.102 139.557C181.989 139.019 181.468 138.682 180.946 138.806Z" fill="#3B0E19"/>
<path fill-rule="evenodd" clip-rule="evenodd" d="M180.093 137.612C180.093 137.612 180.233 138.068 180.341 138.537C180.462 138.999 180.554 139.472 180.554 139.472C180.615 139.746 180.888 139.925 181.169 139.87C181.452 139.814 181.638 139.539 181.575 139.255C181.575 139.255 181.48 138.768 181.354 138.285C181.242 137.8 181.096 137.321 181.096 137.321L180.093 137.612Z" fill="#3B0E19"/>
<path fill-rule="evenodd" clip-rule="evenodd" d="M182.206 142.923L181.901 140.98C181.853 140.696 181.584 140.507 181.299 140.559C181.017 140.61 180.825 140.878 180.872 141.157L181.174 143.079L182.206 142.923Z" fill="#3B0E19"/>
<path fill-rule="evenodd" clip-rule="evenodd" d="M180.502 137.129C179.431 137.442 178.336 136.927 177.962 136.086C177.962 136.086 177.621 135.354 177.608 135.366C177.398 134.956 177.358 134.511 177.487 134.031C177.594 133.575 177.859 133.09 178.293 132.742C178.726 132.394 179.264 132.263 179.814 132.38C180.334 132.508 180.868 132.882 181.163 133.451C181.163 133.451 181.307 133.692 181.416 133.941C181.53 134.187 181.646 134.434 181.646 134.434C182.162 135.608 181.565 136.82 180.502 137.129ZM178.894 133.579C178.449 133.878 178.305 134.441 178.527 134.87C178.527 134.87 178.642 135.055 178.729 135.259C178.822 135.458 178.915 135.658 178.915 135.658C179.115 136.103 179.66 136.336 180.17 136.151C180.671 135.97 180.927 135.385 180.693 134.86C180.693 134.86 180.585 134.63 180.477 134.4C180.376 134.167 180.243 133.946 180.243 133.946C179.974 133.43 179.34 133.279 178.894 133.579Z" fill="#3B0E19"/>
<path fill-rule="evenodd" clip-rule="evenodd" d="M177.674 132.807C177.674 132.807 177.753 132.891 177.856 133.031C177.962 133.17 178.104 133.354 178.244 133.538C178.372 133.734 178.499 133.929 178.594 134.075C178.694 134.218 178.743 134.325 178.743 134.325C178.874 134.563 179.188 134.647 179.444 134.515C179.7 134.383 179.791 134.063 179.646 133.8C179.646 133.8 179.592 133.685 179.483 133.527C179.379 133.366 179.239 133.152 179.099 132.938C178.943 132.734 178.788 132.53 178.67 132.377C178.556 132.222 178.468 132.128 178.468 132.128L177.674 132.807Z" fill="#3B0E19"/>
<path fill-rule="evenodd" clip-rule="evenodd" d="M181.1 137.319C181.1 137.319 180.966 136.837 180.797 136.362C180.721 136.123 180.63 135.887 180.557 135.712C180.488 135.536 180.441 135.419 180.441 135.419C180.338 135.141 180.007 135.027 179.751 135.146C179.486 135.271 179.382 135.562 179.478 135.82C179.478 135.82 179.52 135.93 179.586 136.094C179.653 136.258 179.739 136.478 179.811 136.705C179.97 137.151 180.097 137.611 180.097 137.611L181.1 137.319Z" fill="#3B0E19"/>
<path fill-rule="evenodd" clip-rule="evenodd" d="M259.376 151.312C259.164 151.011 258.946 150.722 258.719 150.451C258.442 150.1 258.146 149.777 257.831 149.471C255.967 147.583 253.578 146.282 250.869 145.852C249.463 145.633 248.073 145.657 246.736 145.905C245.47 146.142 244.246 146.576 243.103 147.186C242.926 147.274 242.755 147.372 242.588 147.469C242.204 147.697 241.829 147.94 241.469 148.207C240.397 148.986 239.423 149.932 238.586 151.014C238.432 151.21 238.282 151.415 238.139 151.616C238.03 151.77 237.925 151.926 237.829 152.086C237.844 152.09 237.864 152.104 237.881 152.108C237.925 152.13 237.962 152.148 237.998 152.174C238.02 152.133 238.052 152.161 238.058 152.211C238.321 152.396 238.539 152.641 238.672 152.939C238.72 152.984 238.746 153.021 238.775 153.092L238.778 153.097L238.78 153.101C238.819 153.193 238.833 153.295 238.81 153.435L238.807 153.455C238.83 153.595 238.836 153.75 238.811 153.903L238.568 155.549C238.534 155.931 238.518 156.375 238.524 156.862C238.521 157.265 238.529 157.705 238.56 158.167C238.57 158.379 238.583 158.596 238.604 158.81C238.7 160.015 238.902 161.336 239.255 162.658C239.319 162.906 239.39 163.154 239.465 163.396C239.544 163.667 239.631 163.946 239.731 164.22C239.765 164.313 239.803 164.411 239.839 164.507L239.837 164.515C239.852 164.554 239.866 164.591 239.886 164.625C239.887 164.613 239.88 164.602 239.88 164.59L239.874 164.58L239.869 164.57L239.863 164.56C239.824 164.436 239.785 164.313 239.747 164.191C239.6 163.676 239.479 163.148 239.409 162.611C239.253 161.628 239.22 160.611 239.331 159.571C239.336 159.436 239.356 159.298 239.38 159.159L239.384 159.098C239.4 159.023 239.407 158.945 239.423 158.872C239.425 158.842 239.426 158.822 239.436 158.79C239.449 158.691 239.471 158.593 239.489 158.49C239.503 158.41 239.528 158.329 239.546 158.249C239.554 158.242 239.547 158.239 239.551 158.223C239.552 158.181 239.56 158.151 239.572 158.111C239.599 157.989 239.632 157.865 239.663 157.753C239.791 157.226 239.957 156.721 240.149 156.239C240.673 154.933 241.405 153.772 242.294 152.803C242.63 152.438 242.989 152.097 243.366 151.789C243.528 151.654 243.696 151.524 243.868 151.405C244.949 150.622 246.166 150.084 247.448 149.84C248.371 149.665 249.325 149.643 250.293 149.794C251.498 149.983 252.607 150.433 253.599 151.09C253.999 151.354 254.383 151.645 254.742 151.975C255 152.207 255.239 152.46 255.47 152.716C256.314 153.68 257 154.824 257.457 156.091C257.716 156.799 257.911 157.532 258.026 158.305L258.028 158.309C258.067 158.534 258.092 158.749 258.117 158.971C258.118 159.031 258.125 159.085 258.13 159.142L258.128 159.15C258.133 159.169 258.136 159.184 258.139 159.21C258.171 159.192 258.199 159.183 258.233 159.164C258.869 158.849 259.604 158.713 260.366 158.835C260.873 158.919 261.337 159.1 261.747 159.358C261.816 159.403 261.881 159.446 261.943 159.496C262.009 159.543 262.07 159.593 262.129 159.647C262.132 159.597 262.124 159.562 262.124 159.516L262.129 159.513C262.105 159.006 262.055 158.515 261.99 158.016C261.832 156.887 261.563 155.788 261.172 154.744C260.717 153.51 260.11 152.354 259.376 151.312Z" fill="#B8B3BA"/>
<path fill-rule="evenodd" clip-rule="evenodd" d="M259.97 163.409C259.893 163.939 259.401 164.304 258.872 164.22C258.343 164.136 257.978 163.636 258.055 163.106C258.133 162.573 258.624 162.21 259.154 162.295C259.684 162.376 260.049 162.876 259.97 163.409ZM232.124 153.438C232.172 153.113 232.472 152.891 232.795 152.942C233.118 152.992 233.342 153.298 233.294 153.623C233.247 153.948 232.946 154.168 232.624 154.117C232.3 154.066 232.077 153.762 232.124 153.438ZM234.822 158.995C234.78 159.268 234.558 159.459 234.32 159.422L233.196 159.243C232.957 159.599 232.53 159.803 232.078 159.732C231.448 159.633 231.014 159.04 231.107 158.409C231.2 157.778 231.784 157.344 232.413 157.444C232.866 157.517 233.214 157.845 233.343 158.259L234.465 158.437C234.702 158.473 234.861 158.724 234.822 158.995M235.685 164.531C235.638 164.854 235.337 165.076 235.014 165.025C234.691 164.974 234.468 164.669 234.515 164.345C234.564 164.02 234.864 163.799 235.187 163.85C235.509 163.902 235.733 164.206 235.685 164.531ZM231.785 163.911C231.737 164.235 231.436 164.456 231.114 164.405C230.792 164.354 230.567 164.05 230.615 163.727C230.663 163.401 230.963 163.18 231.286 163.231C231.609 163.283 231.832 163.588 231.785 163.911M236.025 154.055C236.072 153.731 236.374 153.508 236.695 153.561C237.018 153.611 237.242 153.915 237.194 154.24C237.147 154.564 236.846 154.786 236.524 154.734C236.2 154.682 235.977 154.38 236.025 154.055M261.056 160.235C260.647 159.977 260.182 159.796 259.675 159.709C258.915 159.589 258.178 159.725 257.542 160.04C257.508 160.059 257.481 160.068 257.447 160.088C256.488 160.596 255.777 161.545 255.603 162.716C255.586 162.843 255.569 162.981 255.568 163.107C255.561 163.174 255.559 163.236 255.563 163.302C255.562 163.335 255.567 163.365 255.566 163.398C255.566 163.431 255.571 163.461 255.575 163.491C255.576 163.525 255.574 163.557 255.583 163.594C255.58 163.601 255.578 163.609 255.579 163.62C255.584 163.639 255.584 163.652 255.584 163.664L255.59 163.674C255.593 163.679 255.59 163.688 255.593 163.693C255.618 163.917 255.669 164.138 255.739 164.349C255.761 164.421 255.786 164.492 255.815 164.562C255.845 164.65 255.891 164.735 255.931 164.819C255.946 164.869 255.975 164.918 256 164.962C256.006 164.972 256.018 164.979 256.024 164.989C256.115 165.174 256.233 165.351 256.363 165.512C256.383 165.547 256.415 165.581 256.451 165.615C256.453 165.619 256.459 165.629 256.463 165.626C256.493 165.668 256.524 165.71 256.559 165.729C256.6 165.784 256.636 165.823 256.677 165.861C256.65 165.916 256.63 165.964 256.6 166.023C256.595 166.037 256.595 166.037 256.589 166.049C256.577 166.084 256.563 166.116 256.548 166.146C255.334 168.927 253.15 170.999 250.593 171.881C249.392 172.298 248.104 172.44 246.802 172.267C246.73 172.255 246.653 172.247 246.582 172.235L246.444 172.21C246.356 172.194 246.273 172.184 246.187 172.161C246.167 172.16 246.146 172.157 246.122 172.152C245.68 172.052 245.257 171.931 244.862 171.777C243.257 171.165 241.99 170.114 241.005 168.826C241.002 168.821 240.994 168.807 240.981 168.794C240.239 167.815 239.658 166.707 239.211 165.538C239.204 165.526 239.202 165.51 239.197 165.501C239.176 165.465 239.161 165.427 239.145 165.39L239.149 165.382C239.11 165.285 239.074 165.188 239.042 165.095C238.941 164.823 238.852 164.543 238.774 164.272C238.7 164.031 238.626 163.781 238.563 163.534C238.211 162.212 238.01 160.89 237.913 159.684C237.894 159.47 237.88 159.255 237.87 159.043C237.836 158.58 237.83 158.14 237.832 157.736C237.827 157.251 237.844 156.805 237.877 156.424L238.12 154.778C238.145 154.627 238.138 154.469 238.117 154.33L238.119 154.309C238.143 154.171 238.128 154.067 238.09 153.977L238.088 153.973L238.084 153.967C238.056 153.896 238.029 153.86 237.981 153.814C237.85 153.515 237.631 153.271 237.366 153.086C237.364 153.037 237.329 153.009 237.306 153.049C237.271 153.024 237.234 153.005 237.19 152.984C237.174 152.981 237.153 152.965 237.137 152.96C237.079 152.929 237.019 152.904 236.954 152.883C236.867 152.855 236.776 152.833 236.689 152.817L236.547 152.795L232.892 152.217C232.182 152.105 230.444 154.284 229.51 156.374C229.475 156.349 229.436 156.326 229.393 156.31C229.312 156.258 229.233 156.232 229.138 156.214C229.125 156.216 229.11 156.211 229.099 156.217C229.087 156.216 229.077 156.211 229.063 156.21C228.625 156.174 228.236 156.484 228.173 156.929L228.155 157.032L228.152 157.04L228.074 157.572L228.368 157.621C228.638 157.663 228.823 157.922 228.784 158.194C228.768 158.293 228.727 158.386 228.66 158.457C228.551 158.571 228.393 158.632 228.225 158.605L227.934 158.559L227.93 158.568L227.881 158.9L227.884 158.905L227.852 159.107C227.779 159.572 228.105 160.01 228.574 160.086C228.701 160.104 228.826 160.097 228.942 160.057C228.983 160.392 229.038 160.734 229.109 161.069C229.191 161.484 229.292 161.895 229.404 162.293C229.45 162.43 229.489 162.568 229.532 162.708C229.97 164.045 230.539 165.097 230.99 165.167L234.786 165.775C234.842 165.782 234.896 165.783 234.959 165.788C234.997 165.787 235.036 165.788 235.081 165.784L235.095 165.789C235.118 165.782 235.143 165.781 235.158 165.784C235.184 165.784 235.201 165.78 235.226 165.779C235.289 166.012 235.353 166.248 235.429 166.48C235.439 166.519 235.454 166.559 235.468 166.602C235.53 166.812 235.597 167.018 235.675 167.223L235.683 167.237C236.123 168.45 236.712 169.583 237.418 170.614C237.499 170.733 237.589 170.852 237.677 170.974C237.804 171.136 237.933 171.302 238.061 171.457C238.125 171.533 238.19 171.614 238.258 171.686L238.261 171.691C238.364 171.811 238.471 171.94 238.572 172.061C238.748 172.25 238.914 172.436 239.099 172.61C239.254 172.777 239.414 172.929 239.574 173.082L239.579 173.083L239.585 173.093L239.588 173.097L239.593 173.094C239.701 173.192 239.806 173.282 239.912 173.375C240.036 173.48 240.166 173.578 240.293 173.675C240.406 173.767 240.524 173.858 240.649 173.938C240.681 173.959 240.71 173.988 240.742 174.009C240.822 174.07 240.899 174.124 240.981 174.176C240.993 174.182 241 174.184 241.011 174.193C241.035 174.212 241.067 174.232 241.095 174.248C241.147 174.283 241.204 174.323 241.263 174.355C241.284 174.372 241.297 174.382 241.319 174.399C241.406 174.459 241.494 174.512 241.59 174.565C241.598 174.567 241.6 174.57 241.61 174.574C241.664 174.614 241.725 174.651 241.791 174.686C241.868 174.727 241.936 174.766 242.01 174.803C242.086 174.845 242.163 174.888 242.238 174.93C242.313 174.971 242.391 175.013 242.469 175.046C242.882 175.25 243.308 175.434 243.744 175.592C243.794 175.61 243.842 175.627 243.891 175.644L243.894 175.649L243.941 175.662C243.959 175.671 243.983 175.679 244.006 175.684C244.216 175.753 244.423 175.821 244.634 175.882C244.76 175.916 244.891 175.952 245.018 175.979C245.095 176 245.176 176.018 245.256 176.032C245.28 176.038 245.307 176.049 245.326 176.051C245.35 176.058 245.374 176.063 245.401 176.067C245.439 176.079 245.485 176.085 245.522 176.096C245.561 176.106 245.603 176.111 245.646 176.119C245.717 176.127 245.792 176.146 245.864 176.157L245.908 176.165C245.984 176.174 246.065 176.186 246.147 176.191L246.173 176.195C246.24 176.209 246.305 176.211 246.374 176.226L246.54 176.243C246.618 176.243 246.695 176.252 246.777 176.258L246.814 176.268L246.849 176.269L246.868 176.27L246.874 176.266C246.894 176.268 246.91 176.272 246.929 176.274C246.943 176.274 246.955 176.272 246.971 176.277C247.004 176.277 247.044 176.279 247.078 176.281C247.12 176.285 247.154 176.288 247.199 176.29L247.203 176.296C247.22 176.293 247.241 176.291 247.261 176.293C247.273 176.292 247.277 176.29 247.288 176.293C247.373 176.296 247.455 176.301 247.532 176.302C247.613 176.303 247.691 176.304 247.769 176.304C247.81 176.308 247.843 176.308 247.887 176.302C247.927 176.306 247.977 176.302 248.025 176.305L248.029 176.302L248.037 176.303L248.045 176.305C249.161 176.295 250.254 176.132 251.311 175.824C253.043 175.334 254.664 174.457 256.072 173.28C256.241 173.143 256.406 173.002 256.57 172.855C256.591 172.836 256.607 172.819 256.631 172.8C256.635 172.798 256.642 172.786 256.647 172.783C256.652 172.78 256.652 172.78 256.653 172.772C256.707 172.73 256.757 172.68 256.812 172.629C256.865 172.586 256.921 172.534 256.973 172.477C256.99 172.461 256.999 172.447 257.018 172.431C257.025 172.419 257.037 172.412 257.045 172.401C257.161 172.296 257.268 172.174 257.381 172.057C257.487 171.934 257.602 171.815 257.713 171.692L257.723 171.686C257.728 171.684 257.729 171.676 257.734 171.673C257.848 171.541 257.959 171.405 258.073 171.275C258.077 171.273 258.073 171.265 258.078 171.263C258.178 171.14 258.271 171.022 258.366 170.892C258.379 170.881 258.385 170.868 258.398 170.854C258.445 170.788 258.495 170.718 258.547 170.649C258.565 170.625 258.58 170.605 258.598 170.58C258.601 170.572 258.61 170.567 258.613 170.559C258.649 170.511 258.685 170.463 258.722 170.412C258.815 170.277 258.909 170.146 259 169.997C259.08 169.879 259.154 169.758 259.231 169.641C259.341 169.458 259.445 169.281 259.549 169.094C259.562 169.073 259.577 169.043 259.59 169.018C259.59 169.018 259.593 169.016 259.591 169.011C259.609 168.986 259.619 168.96 259.64 168.928C259.643 168.92 259.65 168.911 259.651 168.902C259.664 168.876 259.677 168.854 259.686 168.837C259.688 168.829 259.694 168.819 259.697 168.811C259.739 168.727 259.784 168.642 259.83 168.557C259.907 168.406 259.983 168.257 260.053 168.103C260.141 167.92 260.227 167.728 260.308 167.527C260.36 167.405 260.416 167.286 260.462 167.161C260.536 166.964 260.61 166.765 260.676 166.561C261.73 166.072 262.522 165.079 262.701 163.841C262.875 162.672 262.468 161.539 261.688 160.767L261.683 160.757L261.68 160.752C261.63 160.689 261.577 160.64 261.524 160.593C261.509 160.579 261.5 160.574 261.485 160.562C261.475 160.554 261.473 160.55 261.464 160.547C261.453 160.539 261.451 160.534 261.441 160.529L261.437 160.522C261.38 160.47 261.317 160.42 261.252 160.372C261.19 160.321 261.128 160.28 261.056 160.235Z" fill="#B8B3BA"/>
<path fill-rule="evenodd" clip-rule="evenodd" d="M172.357 103.335C172.797 103.414 173.221 103.525 173.639 103.659C176.182 104.419 178.452 105.918 180.104 108.107C180.957 109.246 181.589 110.484 181.996 111.781C182.382 113.01 182.573 114.294 182.572 115.59C182.577 115.788 182.57 115.985 182.564 116.177C182.543 116.624 182.504 117.069 182.437 117.513C182.252 118.825 181.874 120.129 181.312 121.375C181.211 121.604 181.1 121.832 180.991 122.053C180.906 122.221 180.818 122.388 180.721 122.547C180.71 122.536 180.688 122.525 180.678 122.512C180.637 122.483 180.604 122.458 180.564 122.44C180.59 122.401 180.55 122.385 180.503 122.404C180.216 122.258 179.898 122.181 179.572 122.203C179.51 122.182 179.465 122.176 179.388 122.184L179.383 122.184L179.378 122.184C179.279 122.193 179.182 122.228 179.07 122.315L179.053 122.326C178.919 122.372 178.779 122.44 178.656 122.533L177.317 123.52C176.995 123.73 176.61 123.953 176.178 124.176C175.823 124.368 175.432 124.567 175.008 124.757C174.817 124.847 174.619 124.937 174.421 125.02C173.312 125.501 172.05 125.942 170.717 126.252C170.468 126.312 170.215 126.365 169.967 126.413C169.691 126.47 169.403 126.524 169.114 126.564C169.016 126.578 168.913 126.591 168.81 126.604L168.804 126.61C168.763 126.614 168.723 126.62 168.684 126.618C168.694 126.612 168.707 126.612 168.718 126.607L168.73 126.607L168.741 126.607L168.752 126.608C168.88 126.584 169.007 126.56 169.132 126.537C169.656 126.425 170.179 126.284 170.687 126.093C171.627 125.769 172.541 125.321 173.407 124.735C173.524 124.667 173.636 124.585 173.748 124.499L173.8 124.466C173.858 124.417 173.924 124.374 173.981 124.325C174.007 124.31 174.024 124.299 174.047 124.276C174.128 124.218 174.205 124.152 174.288 124.088C174.351 124.038 174.412 123.978 174.473 123.924C174.476 123.914 174.482 123.919 174.494 123.908C174.53 123.887 174.554 123.866 174.583 123.836C174.678 123.756 174.772 123.669 174.856 123.588C175.262 123.228 175.63 122.844 175.965 122.448C176.872 121.373 177.553 120.181 177.992 118.941C178.156 118.473 178.289 117.996 178.384 117.519C178.427 117.313 178.463 117.103 178.487 116.895C178.671 115.573 178.575 114.246 178.189 113C177.909 112.102 177.481 111.25 176.893 110.466C176.16 109.491 175.243 108.724 174.197 108.155C173.776 107.926 173.339 107.724 172.879 107.562C172.553 107.443 172.073 107.513 171.739 107.428C171.365 106.856 171.08 106.312 170.998 105.329C170.948 104.257 171.475 103.152 171.515 103.157" fill="#B8B3BA"/>
<path fill-rule="evenodd" clip-rule="evenodd" d="M160.322 108.316C159.889 108.633 159.798 109.238 160.121 109.666C160.443 110.094 161.056 110.182 161.489 109.865C161.923 109.546 162.012 108.942 161.689 108.513C161.368 108.084 160.755 107.996 160.322 108.316ZM182.198 128.22C182.462 128.025 182.518 127.656 182.321 127.395C182.125 127.133 181.75 127.079 181.486 127.274C181.221 127.468 181.168 127.837 181.364 128.098C181.561 128.359 181.934 128.414 182.198 128.22ZM176.023 128.449C175.802 128.613 175.737 128.899 175.882 129.092L176.568 130C176.365 130.379 176.386 130.852 176.661 131.217C177.045 131.726 177.772 131.831 178.285 131.454C178.798 131.075 178.908 130.356 178.524 129.847C178.247 129.482 177.794 129.328 177.368 129.409L176.684 128.501C176.541 128.309 176.244 128.287 176.023 128.449M170.733 130.284C170.469 130.477 170.415 130.847 170.612 131.108C170.808 131.369 171.183 131.423 171.446 131.229C171.711 131.034 171.765 130.665 171.568 130.404C171.371 130.144 170.997 130.089 170.733 130.284ZM173.11 133.437C172.847 133.631 172.793 134.001 172.99 134.262C173.186 134.522 173.56 134.578 173.823 134.384C174.087 134.189 174.142 133.82 173.945 133.558C173.747 133.297 173.373 133.244 173.11 133.437M179.823 125.067C180.087 124.873 180.141 124.502 179.944 124.243C179.748 123.981 179.374 123.927 179.111 124.122C178.846 124.315 178.792 124.685 178.989 124.945C179.187 125.207 179.558 125.262 179.823 125.067M162.612 105.868C163.033 106.108 163.411 106.433 163.725 106.84C164.188 107.455 164.414 108.17 164.435 108.879C164.433 108.919 164.438 108.946 164.437 108.986C164.439 110.071 163.934 111.145 162.982 111.848C162.877 111.922 162.764 112.002 162.654 112.062C162.597 112.1 162.544 112.131 162.483 112.158C162.454 112.174 162.426 112.184 162.397 112.2C162.368 112.215 162.339 112.225 162.311 112.236C162.28 112.252 162.253 112.268 162.216 112.277C162.211 112.283 162.205 112.289 162.195 112.294C162.176 112.298 162.164 112.304 162.154 112.309L162.142 112.309C162.137 112.308 162.13 112.316 162.124 112.316C161.914 112.398 161.696 112.457 161.477 112.494C161.402 112.508 161.328 112.52 161.253 112.527C161.161 112.542 161.064 112.542 160.971 112.545C160.92 112.555 160.863 112.553 160.812 112.551C160.801 112.551 160.789 112.544 160.777 112.543C160.571 112.549 160.36 112.529 160.156 112.489C160.116 112.488 160.071 112.476 160.024 112.46C160.02 112.46 160.009 112.459 160.009 112.455C159.958 112.447 159.906 112.44 159.873 112.418C159.805 112.408 159.754 112.394 159.701 112.376C159.665 112.425 159.632 112.466 159.593 112.52C159.584 112.531 159.584 112.531 159.576 112.542C159.551 112.569 159.529 112.596 159.51 112.624C157.625 115.001 156.82 117.902 157.242 120.574C157.437 121.83 157.917 123.034 158.681 124.102C158.725 124.16 158.768 124.224 158.813 124.281L158.899 124.392C158.955 124.462 159.003 124.531 159.063 124.595C159.074 124.613 159.086 124.63 159.102 124.649C159.397 124.992 159.703 125.309 160.024 125.585C161.318 126.715 162.84 127.34 164.44 127.606C164.446 127.606 164.463 127.606 164.48 127.612C165.693 127.807 166.944 127.8 168.186 127.646C168.199 127.646 168.215 127.64 168.225 127.641C168.267 127.642 168.307 127.638 168.348 127.635L168.353 127.628C168.456 127.616 168.56 127.602 168.657 127.587C168.944 127.548 169.233 127.496 169.508 127.437C169.756 127.39 170.011 127.337 170.26 127.277C171.592 126.967 172.853 126.524 173.964 126.044C174.161 125.96 174.359 125.871 174.551 125.781C174.975 125.593 175.366 125.392 175.722 125.201C176.152 124.977 176.538 124.753 176.86 124.545L178.199 123.558C178.32 123.465 178.463 123.396 178.596 123.35L178.613 123.339C178.724 123.252 178.823 123.217 178.92 123.208L178.925 123.208L178.932 123.208C179.007 123.2 179.052 123.206 179.115 123.227C179.44 123.203 179.759 123.282 180.046 123.429C180.091 123.408 180.132 123.426 180.107 123.465C180.146 123.483 180.18 123.507 180.219 123.536C180.229 123.549 180.253 123.56 180.265 123.572C180.32 123.609 180.37 123.65 180.419 123.697C180.485 123.761 180.546 123.831 180.602 123.901L180.688 124.016L182.914 126.971C183.346 127.546 182.238 130.103 180.831 131.909C180.87 131.927 180.908 131.951 180.943 131.982C181.027 132.029 181.087 132.087 181.147 132.162C181.152 132.174 181.163 132.186 181.163 132.198C181.169 132.209 181.179 132.215 181.186 132.227C181.424 132.597 181.333 133.086 180.969 133.35L180.887 133.415L180.881 133.42L180.447 133.739L180.267 133.502C180.103 133.284 179.787 133.242 179.566 133.404C179.485 133.465 179.423 133.545 179.391 133.638C179.342 133.788 179.362 133.956 179.465 134.09L179.642 134.327L179.636 134.333L179.366 134.533L179.36 134.533L179.197 134.656C178.821 134.938 178.28 134.857 177.994 134.478C177.918 134.375 177.866 134.26 177.846 134.14C177.532 134.26 177.203 134.372 176.874 134.468C176.47 134.589 176.059 134.694 175.655 134.781C175.512 134.805 175.372 134.835 175.229 134.863C173.842 135.104 172.646 135.096 172.373 134.73L170.054 131.664C170.022 131.617 169.995 131.57 169.962 131.517C169.945 131.483 169.925 131.449 169.908 131.408L169.897 131.398C169.892 131.374 169.881 131.352 169.872 131.34C169.86 131.317 169.854 131.3 169.844 131.277C169.609 131.331 169.37 131.385 169.13 131.427C169.091 131.436 169.048 131.442 169.004 131.45C168.789 131.494 168.576 131.532 168.358 131.559L168.343 131.558C167.065 131.739 165.787 131.752 164.546 131.612C164.403 131.596 164.255 131.573 164.106 131.552C163.904 131.516 163.697 131.48 163.499 131.44C163.403 131.419 163.3 131.4 163.205 131.373L163.199 131.373C163.045 131.339 162.88 131.304 162.726 131.272C162.476 131.205 162.235 131.146 161.995 131.065C161.774 131.006 161.565 130.936 161.355 130.867L161.352 130.862L161.34 130.862L161.335 130.862L161.335 130.856C161.198 130.806 161.069 130.756 160.937 130.706C160.786 130.645 160.639 130.577 160.494 130.511C160.359 130.454 160.223 130.393 160.094 130.319C160.061 130.301 160.022 130.289 159.988 130.271C159.896 130.228 159.812 130.186 159.728 130.138C159.717 130.131 159.712 130.125 159.699 130.12C159.671 130.107 159.638 130.089 159.611 130.071C159.556 130.042 159.493 130.01 159.438 129.974C159.413 129.963 159.398 129.956 159.373 129.945C159.278 129.896 159.191 129.843 159.099 129.783C159.093 129.777 159.09 129.777 159.082 129.769C159.021 129.741 158.959 129.704 158.897 129.662C158.825 129.613 158.759 129.572 158.691 129.525C158.619 129.477 158.545 129.429 158.472 129.382C158.4 129.335 158.327 129.286 158.261 129.232C157.887 128.964 157.525 128.675 157.181 128.363C157.141 128.328 157.103 128.293 157.065 128.258L157.059 128.258L157.026 128.223C157.01 128.211 156.991 128.194 156.976 128.176C156.817 128.022 156.66 127.871 156.507 127.714C156.418 127.618 156.325 127.52 156.241 127.42C156.186 127.362 156.132 127.299 156.082 127.235C156.066 127.216 156.043 127.198 156.033 127.182C156.015 127.164 156 127.145 155.984 127.123C155.955 127.095 155.928 127.058 155.901 127.03C155.874 127 155.85 126.966 155.822 126.931C155.782 126.872 155.73 126.815 155.687 126.757L155.658 126.721C155.615 126.659 155.566 126.593 155.524 126.523L155.508 126.502C155.464 126.449 155.432 126.392 155.386 126.339L155.293 126.2C155.256 126.131 155.212 126.067 155.168 125.998L155.142 125.97L155.125 125.939L155.116 125.923L155.116 125.917C155.105 125.899 155.094 125.887 155.083 125.871C155.077 125.859 155.073 125.848 155.061 125.836C155.045 125.807 155.025 125.773 155.007 125.742C154.983 125.708 154.965 125.679 154.943 125.64L154.935 125.64C154.93 125.623 154.921 125.604 154.911 125.587C154.905 125.576 154.906 125.572 154.898 125.564C154.855 125.49 154.812 125.42 154.775 125.352C154.736 125.282 154.699 125.212 154.662 125.144C154.64 125.109 154.624 125.08 154.609 125.038C154.586 125.005 154.566 124.959 154.542 124.918L154.542 124.914L154.537 124.907L154.532 124.901C154.017 123.911 153.648 122.869 153.423 121.792C153.043 120.031 153.056 118.189 153.435 116.393C153.476 116.18 153.523 115.967 153.576 115.754C153.583 115.726 153.59 115.704 153.596 115.675C153.596 115.669 153.603 115.658 153.603 115.652C153.604 115.646 153.604 115.646 153.61 115.641C153.622 115.574 153.643 115.507 153.662 115.434C153.675 115.367 153.694 115.293 153.721 115.22C153.727 115.198 153.734 115.183 153.74 115.159C153.747 115.148 153.748 115.133 153.754 115.121C153.792 114.969 153.849 114.818 153.9 114.663C153.959 114.511 154.009 114.355 154.066 114.199L154.066 114.187C154.067 114.182 154.073 114.177 154.073 114.171C154.136 114.009 154.204 113.847 154.265 113.685C154.265 113.68 154.273 113.68 154.274 113.674C154.336 113.529 154.396 113.391 154.466 113.246C154.47 113.23 154.478 113.218 154.484 113.2C154.521 113.128 154.559 113.051 154.596 112.972C154.608 112.945 154.619 112.922 154.632 112.895C154.638 112.889 154.638 112.878 154.644 112.872C154.669 112.818 154.695 112.763 154.723 112.707C154.798 112.562 154.87 112.417 154.958 112.267C155.025 112.14 155.097 112.018 155.164 111.896C155.274 111.713 155.382 111.537 155.498 111.358C155.51 111.336 155.53 111.309 155.546 111.286C155.546 111.286 155.546 111.282 155.552 111.282C155.565 111.254 155.584 111.233 155.602 111.2C155.608 111.193 155.612 111.183 155.619 111.177C155.637 111.154 155.649 111.132 155.661 111.116C155.667 111.111 155.673 111.101 155.678 111.094C155.733 111.018 155.787 110.938 155.84 110.858C155.937 110.719 156.034 110.582 156.136 110.448C156.256 110.284 156.386 110.118 156.525 109.953C156.608 109.849 156.687 109.743 156.776 109.644C156.915 109.486 157.056 109.327 157.205 109.173C157.142 108.013 157.647 106.848 158.657 106.109C159.607 105.406 160.798 105.234 161.846 105.56L161.858 105.56L161.863 105.56C161.942 105.575 162.01 105.599 162.077 105.623C162.096 105.63 162.105 105.635 162.122 105.643C162.134 105.648 162.139 105.648 162.145 105.654C162.158 105.66 162.164 105.66 162.172 105.666L162.18 105.666C162.253 105.693 162.327 105.725 162.4 105.76C162.473 105.79 162.539 105.826 162.612 105.868Z" fill="#B8B3BA"/>
<path d="M244.61 145.5C244.61 145.5 244.67 148.326 248.11 151.163" stroke="#F94F24" stroke-width="1.2"/>
<path fill-rule="evenodd" clip-rule="evenodd" d="M169.11 107C169.11 107 168.11 107.001 165.11 109C164.999 108.481 165.838 106.259 163.11 105C165.764 103.765 166.11 103.5 166.11 103.5C166.11 103.5 166.485 104 167.11 105C167.735 106 169.11 107 169.11 107Z" fill="#B8B3BA"/>
<defs>
<linearGradient id="paint0_linear" x1="260.385" y1="215.29" x2="337.23" y2="71.6223" gradientUnits="userSpaceOnUse">
<stop stop-color="#8033EB"/>
<stop offset="0.53" stop-color="#D4648E"/>
<stop offset="1" stop-color="#EC7071"/>
</linearGradient>
<linearGradient id="paint1_linear" x1="371.447" y1="168.067" x2="362.44" y2="20.6084" gradientUnits="userSpaceOnUse">
<stop stop-color="#8033EB"/>
<stop offset="1" stop-color="#A2E1E0"/>
</linearGradient>
<linearGradient id="paint2_linear" x1="94.6415" y1="288.856" x2="180.833" y2="259.191" gradientUnits="userSpaceOnUse">
<stop stop-color="#9839C3"/>
<stop offset="1" stop-color="#F94F24"/>
</linearGradient>
</defs>
</svg>
