<svg xmlns="http://www.w3.org/2000/svg" xmlns:xlink="http://www.w3.org/1999/xlink" viewBox="0 0 800 500"><defs><linearGradient id="a" x1="409.89" y1="177.79" x2="408.65" y2="206.44" gradientUnits="userSpaceOnUse"><stop offset="0" stop-color="#8033eb"/><stop offset="1" stop-color="#6731ce"/></linearGradient></defs><title>Artboard 2 copy 17</title><g style="isolation:isolate"><path d="M219.49,216.11a42.26,42.26,0,1,1-42.26-42.26A42.26,42.26,0,0,1,219.49,216.11Z" style="fill:none;stroke:#f2f2f2;stroke-miterlimit:10;stroke-width:18.194200000000002px"/><path d="M449.66,384.74a36.6,36.6,0,1,1-36.6-36.61A36.6,36.6,0,0,1,449.66,384.74Z" style="fill:none;stroke:#f2f2f2;stroke-miterlimit:10;stroke-width:15.758600000000001px"/><path d="M295.2,307.79a76.95,76.95,0,1,1-76.95-76.94A76.95,76.95,0,0,1,295.2,307.79Z" style="fill:none;stroke:#f2f2f2;stroke-miterlimit:10;stroke-width:18.194200000000002px"/><circle cx="404.04" cy="137.97" r="76.94" style="fill:none;stroke:#f2f2f2;stroke-miterlimit:10;stroke-width:18.194200000000002px"/><circle cx="589.9" cy="306.09" r="76.94" style="fill:none;stroke:#f2f2f2;stroke-miterlimit:10;stroke-width:18.194200000000002px"/><path d="M195.42,272.7v55.54h49.64V273.53s.56-8.25-1.6-10.42S195.42,272.7,195.42,272.7Z" style="fill:#ffcd00"/><path d="M464.94,230.85l-3.32-44.55c0-14.24-12.05-23.15-12.05-23.15l-27-15.71-17.45,1.28v-.1L392.61,147l-27,15.7s-12,8.92-12,23.15l-3.32,44.55h50.66v.42Z" style="fill:url(#a)"/><path d="M502.5,138a98,98,0,1,1-98-98A98,98,0,0,1,502.5,138Z" style="fill:none;stroke:#f94f24;stroke-linecap:round;stroke-miterlimit:10;stroke-width:0.860633px;stroke-dasharray:2.5830399990081787,1.7220300436019897"/><path d="M393.3,133.41l-3.1,21s5,6.29,16.83,6.29,16.78-7.1,16.78-7.1l-2.91-20.14Z" style="fill:#ffa881"/><path d="M426.51,89.13c.35.35,13.19,6.83,3.87,27.36,0,0,1.19-9.93-9.18-17.82S426.51,89.13,426.51,89.13Z" style="fill:#7a4e0d"/><path d="M430.86,109.63c0,18.76-10.68,35.91-23.85,35.91s-23.86-17.15-23.86-35.91S393.83,85.37,407,85.37,430.86,90.87,430.86,109.63Z" style="fill:#ffc1a6"/><path d="M383.63,116.49s-9.06-14.06,1.3-22.42c0,0-2.47-9.89,9.66-14.25S415,83,420.15,83s7.77-2.71,7.77-2.71,2.36-.94,2.36,1.3-2.16,23.67-20.26,23.67c-17,0-20.5-7.78-20.5-7.78S384.11,103.14,383.63,116.49Z" style="fill:#7a4e0d"/><path d="M389.52,97.48s5.19,7.19,18.14,7.19S427,94.07,427,94.07s-2.17,14.73-19.49,14.73C392.35,108.8,389.52,97.48,389.52,97.48Z" style="fill:#ffa881"/><path d="M384.34,116.49s-1.53-5.11-5.53-2.51-.24,12.13,8.36,13.31S384.34,116.49,384.34,116.49Z" style="fill:#ffc1a6"/><path d="M429.72,116.49s1.53-5.11,5.54-2.51.23,12.13-8.37,13.31S429.72,116.49,429.72,116.49Z" style="fill:#ffc1a6"/><path d="M392.63,138a18.64,18.64,0,0,0,14.8,7.56A16.73,16.73,0,0,0,421.56,138l1.67,11.54S401.85,158.43,392.63,138Z" style="fill:#ff9b6e"/><path d="M389.52,93.6s5,9.21,18.76,9.21,20.58-13.92,20.58-19.34c0,0-6.95,21.08-30.62,9.67,0,0-5.3-3.19-6.95-3.19C388.23,90,389.52,93.6,389.52,93.6Z" style="fill:#6d4400"/><path d="M469.88,240V177.38a5.12,5.12,0,0,0-5.07-5.17H344.25a5.12,5.12,0,0,0-5.07,5.17V240Z" style="fill:#b3b3b3"/><path d="M336.06,242.69v6a5.8,5.8,0,0,0,5.74,5.85H467.25a5.8,5.8,0,0,0,5.74-5.85v-6Z" style="fill:#b3b3b3"/><rect x="339.18" y="178.99" width="130.71" height="64.29" style="fill:#999"/><path d="M397.91,179H339.18v58.67Q368.54,208.32,397.91,179Z" style="fill:#a6a6a6"/><rect x="339.18" y="242.01" width="130.71" height="1.28" style="fill:#e5e5e5;mix-blend-mode:multiply"/><rect x="339.18" y="178.99" width="130.71" height="1.28" style="fill:#e5e5e5;mix-blend-mode:multiply"/><path d="M361,248.6a1.3,1.3,0,0,1-1.3,1.3h-6a1.3,1.3,0,0,1-1.29-1.3h0a1.3,1.3,0,0,1,1.29-1.3h6a1.3,1.3,0,0,1,1.3,1.3Z" style="fill:gray"/><path d="M465.47,248.6a1.3,1.3,0,0,1-1.3,1.3h-6a1.31,1.31,0,0,1-1.31-1.3h0a1.31,1.31,0,0,1,1.31-1.3h6a1.3,1.3,0,0,1,1.3,1.3Z" style="fill:gray"/><path d="M370.08,248.6a1.3,1.3,0,0,1-1.29,1.3h0a1.31,1.31,0,0,1-1.31-1.3h0a1.31,1.31,0,0,1,1.31-1.3h0a1.3,1.3,0,0,1,1.29,1.3Z" style="fill:gray"/><path d="M377.91,248.6a1.3,1.3,0,0,1-1.29,1.3h0a1.31,1.31,0,0,1-1.31-1.3h0a1.31,1.31,0,0,1,1.31-1.3h0a1.3,1.3,0,0,1,1.29,1.3Z" style="fill:gray"/><g style="mix-blend-mode:multiply"><polyline points="391.7 202.71 382.47 211.94 391.71 221.17" style="fill:none;stroke:#ccc;stroke-linecap:round;stroke-linejoin:round;stroke-width:5.011290000000001px;fill-rule:evenodd"/><polyline points="426.45 221.17 435.69 211.94 426.45 202.71" style="fill:none;stroke:#ccc;stroke-linecap:round;stroke-linejoin:round;stroke-width:5.011290000000001px;fill-rule:evenodd"/><line x1="403.9" y1="202.71" x2="413.8" y2="221.17" style="fill:none;stroke:#ccc;stroke-linecap:round;stroke-linejoin:round;stroke-width:5.011290000000001px"/></g><polyline points="390.1 201.1 380.87 210.33 390.11 219.57" style="fill:none;stroke:#fff;stroke-linecap:round;stroke-linejoin:round;stroke-width:5.011290000000001px;fill-rule:evenodd"/><polyline points="424.85 219.57 434.08 210.34 424.84 201.1" style="fill:none;stroke:#fff;stroke-linecap:round;stroke-linejoin:round;stroke-width:5.011290000000001px;fill-rule:evenodd"/><line x1="402.29" y1="201.1" x2="412.19" y2="219.57" style="fill:none;stroke:#fff;stroke-linecap:round;stroke-linejoin:round;stroke-width:5.011290000000001px"/><path d="M278.94,399.18l-11-45.49c0-14.23-12-23.15-12-23.15l-19.28-10.35-17.44.44v.73l-12.52-1.58L185.91,329s-12,8.92-12,23.15l-9.62,46.65h50.66v.42Z" style="fill:#f94f24"/><path d="M316.5,306.3a98,98,0,1,1-98-98A98,98,0,0,1,316.5,306.3Z" style="fill:none;stroke:#f94f24;stroke-linecap:round;stroke-miterlimit:10;stroke-width:0.860633px;stroke-dasharray:2.583050012588501,1.722040057182312"/><path d="M207.3,301.74l-.68,20.95s2.56,15.46,14.4,15.46,14.48-15.53,14.48-15.53l-.6-20.88Z" style="fill:#ffa881"/><path d="M244.86,278c0,18.76-10.68,35.91-23.86,35.91S197.14,296.72,197.14,278,207.83,253.7,221,253.7,244.86,259.2,244.86,278Z" style="fill:#ffc1a6"/><path d="M198.34,284.82s-1.53-5.1-5.53-2.51-.24,12.13,8.36,13.31S198.34,284.82,198.34,284.82Z" style="fill:#ffc1a6"/><path d="M243.72,284.82s1.53-5.1,5.54-2.51.23,12.13-8.37,13.31S243.72,284.82,243.72,284.82Z" style="fill:#ffc1a6"/><path d="M206.62,306.3a18.7,18.7,0,0,0,14.81,7.57c7.95,0,13.26-6.7,13.26-6.7l.69,11.3S215.85,326.76,206.62,306.3Z" style="fill:#ff9b6e"/><path d="M283.88,408.28V345.71a5.12,5.12,0,0,0-5.07-5.17H158.24a5.12,5.12,0,0,0-5.07,5.17v62.57Z" style="fill:#b3b3b3"/><path d="M150.06,411v6a5.8,5.8,0,0,0,5.74,5.85H281.25A5.8,5.8,0,0,0,287,417v-6Z" style="fill:#b3b3b3"/><rect x="153.17" y="347.32" width="130.71" height="64.29" style="fill:#999"/><path d="M211.9,347.32H153.17V406Q182.54,376.65,211.9,347.32Z" style="fill:#a6a6a6"/><rect x="153.17" y="410.34" width="130.71" height="1.28" style="fill:#e5e5e5;mix-blend-mode:multiply"/><rect x="153.17" y="347.32" width="130.71" height="1.28" style="fill:#e5e5e5;mix-blend-mode:multiply"/><path d="M175,416.93a1.3,1.3,0,0,1-1.3,1.3h-6a1.3,1.3,0,0,1-1.3-1.3h0a1.3,1.3,0,0,1,1.3-1.3h6a1.3,1.3,0,0,1,1.3,1.3Z" style="fill:gray"/><path d="M279.47,416.93a1.3,1.3,0,0,1-1.3,1.3h-6a1.3,1.3,0,0,1-1.3-1.3h0a1.3,1.3,0,0,1,1.3-1.3h6a1.3,1.3,0,0,1,1.3,1.3Z" style="fill:gray"/><path d="M184.08,416.93a1.3,1.3,0,0,1-1.29,1.3h0a1.31,1.31,0,0,1-1.31-1.3h0a1.31,1.31,0,0,1,1.31-1.3h0a1.3,1.3,0,0,1,1.29,1.3Z" style="fill:gray"/><path d="M191.91,416.93a1.3,1.3,0,0,1-1.3,1.3h0a1.3,1.3,0,0,1-1.3-1.3h0a1.3,1.3,0,0,1,1.3-1.3h0a1.3,1.3,0,0,1,1.3,1.3Z" style="fill:gray"/><g style="mix-blend-mode:multiply"><polyline points="205.7 371.04 196.47 380.27 205.71 389.5" style="fill:none;stroke:#ccc;stroke-linecap:round;stroke-linejoin:round;stroke-width:5.011290000000001px;fill-rule:evenodd"/><polyline points="240.45 389.5 249.68 380.27 240.44 371.04" style="fill:none;stroke:#ccc;stroke-linecap:round;stroke-linejoin:round;stroke-width:5.011290000000001px;fill-rule:evenodd"/><line x1="217.89" y1="371.04" x2="227.79" y2="389.5" style="fill:none;stroke:#ccc;stroke-linecap:round;stroke-linejoin:round;stroke-width:5.011290000000001px"/></g><polyline points="204.1 369.43 194.87 378.66 204.11 387.9" style="fill:none;stroke:#fff;stroke-linecap:round;stroke-linejoin:round;stroke-width:5.011290000000001px;fill-rule:evenodd"/><polyline points="238.85 387.9 248.08 378.67 238.84 369.43" style="fill:none;stroke:#fff;stroke-linecap:round;stroke-linejoin:round;stroke-width:5.011290000000001px;fill-rule:evenodd"/><line x1="216.29" y1="369.43" x2="226.19" y2="387.9" style="fill:none;stroke:#fff;stroke-linecap:round;stroke-linejoin:round;stroke-width:5.011290000000001px"/><path d="M650.94,399.18l-3.32-44.55c0-14.24-12-23.15-12-23.15l-27-15.71-17.44,1.28V317l-12.53-1.59-27,15.71s-12,8.91-12,23.14l-3.32,44.55h50.67v.42Z" style="fill:#00568b"/><path d="M688.51,306.3a98,98,0,1,1-98-98A98,98,0,0,1,688.51,306.3Z" style="fill:none;stroke:#f94f24;stroke-linecap:round;stroke-miterlimit:10;stroke-width:0.860633px;stroke-dasharray:2.583050012588501,1.722040057182312"/><path d="M579.31,301.74l-3.11,20.95s5,6.29,16.83,6.29,16.79-7.1,16.79-7.1l-2.92-20.14Z" style="fill:#ffa881"/><path d="M616.87,278c0,18.76-10.69,35.91-23.86,35.91S569.15,296.72,569.15,278,579.83,253.7,593,253.7,616.87,259.2,616.87,278Z" style="fill:#ffc1a6"/><path d="M570.34,284.82s-1.53-5.1-5.53-2.51-.24,12.13,8.36,13.31S570.34,284.82,570.34,284.82Z" style="fill:#ffc1a6"/><path d="M615.72,284.82s1.53-5.1,5.54-2.51.23,12.13-8.36,13.31S615.72,284.82,615.72,284.82Z" style="fill:#ffc1a6"/><path d="M578.63,306.3a18.64,18.64,0,0,0,14.8,7.57,16.71,16.71,0,0,0,14.13-7.57l1.67,11.54S587.86,326.76,578.63,306.3Z" style="fill:#ff9b6e"/><path d="M655.88,408.28V345.71a5.12,5.12,0,0,0-5.07-5.17H530.25a5.12,5.12,0,0,0-5.07,5.17v62.57Z" style="fill:#b3b3b3"/><path d="M522.07,411v6a5.79,5.79,0,0,0,5.73,5.85H653.26A5.79,5.79,0,0,0,659,417v-6Z" style="fill:#b3b3b3"/><rect x="525.18" y="347.32" width="130.7" height="64.29" style="fill:#999"/><path d="M583.91,347.32H525.18V406Q554.54,376.65,583.91,347.32Z" style="fill:#a6a6a6"/><rect x="525.18" y="410.34" width="130.7" height="1.28" style="fill:#e5e5e5;mix-blend-mode:multiply"/><rect x="525.18" y="347.32" width="130.7" height="1.28" style="fill:#e5e5e5;mix-blend-mode:multiply"/><path d="M547,416.93a1.3,1.3,0,0,1-1.3,1.3h-6a1.3,1.3,0,0,1-1.3-1.3h0a1.3,1.3,0,0,1,1.3-1.3h6a1.3,1.3,0,0,1,1.3,1.3Z" style="fill:gray"/><path d="M651.47,416.93a1.3,1.3,0,0,1-1.3,1.3h-6a1.3,1.3,0,0,1-1.3-1.3h0a1.3,1.3,0,0,1,1.3-1.3h6a1.3,1.3,0,0,1,1.3,1.3Z" style="fill:gray"/><path d="M556.09,416.93a1.3,1.3,0,0,1-1.3,1.3h0a1.3,1.3,0,0,1-1.3-1.3h0a1.3,1.3,0,0,1,1.3-1.3h0a1.3,1.3,0,0,1,1.3,1.3Z" style="fill:gray"/><path d="M563.92,416.93a1.3,1.3,0,0,1-1.3,1.3h0a1.3,1.3,0,0,1-1.3-1.3h0a1.3,1.3,0,0,1,1.3-1.3h0a1.3,1.3,0,0,1,1.3,1.3Z" style="fill:gray"/><g style="mix-blend-mode:multiply"><polyline points="577.71 371.04 568.48 380.27 577.71 389.5" style="fill:none;stroke:#ccc;stroke-linecap:round;stroke-linejoin:round;stroke-width:5.011290000000001px;fill-rule:evenodd"/><polyline points="612.45 389.5 621.69 380.27 612.45 371.04" style="fill:none;stroke:#ccc;stroke-linecap:round;stroke-linejoin:round;stroke-width:5.011290000000001px;fill-rule:evenodd"/><line x1="589.9" y1="371.04" x2="599.8" y2="389.5" style="fill:none;stroke:#ccc;stroke-linecap:round;stroke-linejoin:round;stroke-width:5.011290000000001px"/></g><polyline points="576.1 369.43 566.87 378.66 576.11 387.9" style="fill:none;stroke:#fff;stroke-linecap:round;stroke-linejoin:round;stroke-width:5.011290000000001px;fill-rule:evenodd"/><polyline points="610.85 387.9 620.08 378.67 610.85 369.43" style="fill:none;stroke:#fff;stroke-linecap:round;stroke-linejoin:round;stroke-width:5.011290000000001px;fill-rule:evenodd"/><line x1="588.3" y1="369.43" x2="598.2" y2="387.9" style="fill:none;stroke:#fff;stroke-linecap:round;stroke-linejoin:round;stroke-width:5.011290000000001px"/><path d="M257.63,212.17a148.52,148.52,0,0,1,46-85.55" style="fill:none;stroke:#f94f24;stroke-linecap:round;stroke-miterlimit:10;stroke-width:0.860633px;stroke-dasharray:2.581899881362915,1.721269965171814"/><path d="M496.09,353.24a148.82,148.82,0,0,1-184.1-.77" style="fill:none;stroke:#f94f24;stroke-linecap:round;stroke-miterlimit:10;stroke-width:0.860633px;stroke-dasharray:2.581899881362915,1.721269965171814"/><path d="M505.94,127.07A148.53,148.53,0,0,1,551,209.9" style="fill:none;stroke:#f94f24;stroke-linecap:round;stroke-miterlimit:10;stroke-width:0.860633px;stroke-dasharray:2.581899881362915,1.721269965171814"/><path d="M196.5,282.08s40.36,4,47.77-16.65c0,0-.81-15-23.84-15C199.63,250.39,190.3,267.5,196.5,282.08Z" style="fill:#ffd900"/><path d="M196.5,282.08s38,4.5,47.77-16.65C244.27,265.43,234,297.58,196.5,282.08Z" style="fill:#ffa881"/><path d="M569.4,283S562,249.9,593,249.9,616.28,283,616.28,283l-2.71,4.3s1.81-10.76-2.72-17.44-5.57,0-18,0-15.74-4-18.13,1.7S569.4,283,569.4,283Z" style="fill:#7a4e0d"/><path d="M605.65,303.34c-1.85.19-3.66,0-3.66-3.35s-6.62-3.2-6.62-3.2l-2.34.33,0,.08v-.08l-2.48-.33s-6.62-.15-6.62,3.2-1.81,3.54-3.66,3.35c-4.14-.43-7.81-7.64-7.81-7.64s1.12,20.79,20.44,20.79h0c19.46,0,20.57-20.79,20.57-20.79S609.79,302.91,605.65,303.34ZM597,307c-3,0-1.11-1.81-1.11-3.09h-5.78c0,1.28,1.91,3.09-1.11,3.09s-3-2.68-3-5.47c0-2.3,14-2.31,14,0C600,304.3,600,307,597,307Z" style="fill:#7a4e0d"/><path d="M204.4,216.11a27.17,27.17,0,1,1-27.17-27.17A27.16,27.16,0,0,1,204.4,216.11Z" style="fill:none;stroke:#f94f24;stroke-linecap:round;stroke-miterlimit:10;stroke-width:0.860633px;stroke-dasharray:2.581899881362915,1.721269965171814"/><path d="M553.53,173.21a15.73,15.73,0,1,1-15.73-15.74A15.74,15.74,0,0,1,553.53,173.21Z" style="fill:none;stroke:#f94f24;stroke-linecap:round;stroke-miterlimit:10;stroke-width:0.860633px;stroke-dasharray:2.581899881362915,1.721269965171814"/><path d="M466,384.37a52.51,52.51,0,1,1-52.51-52.5A52.51,52.51,0,0,1,466,384.37Z" style="fill:none;stroke:#f94f24;stroke-linecap:round;stroke-miterlimit:10;stroke-width:0.860633px;stroke-dasharray:2.581899881362915,1.721269965171814"/></g></svg>