<svg xmlns="http://www.w3.org/2000/svg" xmlns:xlink="http://www.w3.org/1999/xlink" viewBox="0 0 800 500"><defs><linearGradient id="a" x1="572.89" y1="191.77" x2="688.05" y2="73.61" gradientUnits="userSpaceOnUse"><stop offset="0" stop-color="#8033eb"/><stop offset="0.53" stop-color="#d4648e"/><stop offset="1" stop-color="#ec7071"/></linearGradient><linearGradient id="b" x1="454.1" y1="397.35" x2="432.46" y2="241.6" xlink:href="#a"/></defs><title>Artboard 2 copy 16</title><g style="isolation:isolate"><circle cx="330.61" cy="362.02" r="82.07" transform="translate(-159.15 339.81) rotate(-45)" style="fill:#f2f2f2"/><path d="M465.81,204.22S380.34,248.15,338.94,227s-45.16-58.17-28.61-116.73S367.91,18.42,431.52,62.1,535.89,162.72,465.81,204.22Z" style="fill:#f2f2f2"/><circle cx="672.93" cy="267.85" r="25.06" style="fill:#f2f2f2"/><circle cx="672.93" cy="267.85" r="14.52" transform="translate(7.7 554.28) rotate(-45)" style="fill:none;stroke:#f94f24;stroke-linecap:round;stroke-miterlimit:10;stroke-width:1.10206px;stroke-dasharray:3.752310037612915,2.5015499591827393"/><path d="M547.78,406.83a180.86,180.86,0,0,1-226-40.65" style="fill:none;stroke:#f94f24;stroke-linecap:round;stroke-miterlimit:10;stroke-width:1.3069600000000001px;stroke-dasharray:3.920880079269409,7.576700210571289"/><path d="M351.28,104.27a180.8,180.8,0,0,1,269,227.46" style="fill:none;stroke:#f94f24;stroke-linecap:round;stroke-miterlimit:10;stroke-width:1.3069600000000001px;stroke-dasharray:3.920880079269409,7.576700210571289"/><path d="M679,167.07a82,82,0,1,1-82-82A82,82,0,0,1,679,167.07Z" style="fill:#f2f2f2;mix-blend-mode:multiply"/><path d="M660.74,167.07A63.78,63.78,0,1,1,597,103.29,63.79,63.79,0,0,1,660.74,167.07Z" style="fill:url(#a)"/><polyline points="588.59 169.69 601.51 182.6 629.19 154.93" style="fill:none;stroke:#ccc;stroke-linecap:round;stroke-linejoin:round;stroke-width:12.9372px;mix-blend-mode:multiply"/><polyline points="584.89 165.99 597.81 178.91 625.49 151.23" style="fill:none;stroke:#f2f2f2;stroke-linecap:round;stroke-linejoin:round;stroke-width:12.9372px"/><path d="M277.84,137.43s7.86-20.36,31.62-20.36H432.37s23.05-2.8,23.05,25.85v168.2s1.34,31.27-29.88,31.27H307.2s-4.4,21.2-29.36,21.2h1.75c-25,0-29.35-21.2-29.35-21.2H131.89c-31.22,0-29.87-31.27-29.87-31.27V142.92c0-28.65,23-25.85,23-25.85H248c23.77,0,31.62,20.36,31.62,20.36" style="fill:#6731cf"/><path d="M120.12,320.91H244.58c31.68,0,35,25.83,35,25.83V163.27s-3.33-25.84-35-25.84H120.12Z" style="fill:#fff"/><path d="M244.58,137.43h-16c31.68,0,35,25.84,35,25.84V325a30.74,30.74,0,0,1,16,21.71V163.27S276.26,137.43,244.58,137.43Z" style="fill:#e5e5e5"/><path d="M439.06,320.91H314.6c-31.68,0-35,25.83-35,25.83V163.27s3.33-25.84,35-25.84H439.06Z" style="fill:#fff"/><path d="M314.6,137.43h16c-31.68,0-35,25.84-35,25.84V325a30.73,30.73,0,0,0-16,21.71V163.27S282.92,137.43,314.6,137.43Z" style="fill:#e5e5e5"/><line x1="279.59" y1="143.26" x2="279.59" y2="354.89" style="fill:none;stroke:#6731cf;stroke-linecap:round;stroke-miterlimit:10;stroke-width:3.7260700000000004px"/><path d="M474.08,401a2.17,2.17,0,0,1-1.54-.63l-40-40-17.16,27a2.28,2.28,0,0,1-2.2,1,2.19,2.19,0,0,1-1.76-1.64l-23.71-97.25a2.19,2.19,0,0,1-.51-3.48l.61-.6a2.17,2.17,0,0,1,1.53-.63,2.06,2.06,0,0,1,.6.08,2.19,2.19,0,0,1,1.33,1.07l97.25,23.7a2.18,2.18,0,0,1,.65,4l-26.95,17.15,40,40a2.19,2.19,0,0,1,0,3.09l-26.6,26.6A2.17,2.17,0,0,1,474.08,401Z" style="fill:url(#b)"/><path d="M389.38,286.94l.2.8-.8-.2.6-.6m.2.8,98.46,24-29.25,18.61,41.88,41.89-26.59,26.59-41.89-41.89L413.58,386.2l-24-98.46m-.2-5.17a4.38,4.38,0,0,0-3.07,1.27l-.61.6a4.39,4.39,0,0,0-1.13,4.27,4.31,4.31,0,0,0,1.25,2l23.52,96.49a4.36,4.36,0,0,0,3.53,3.27,4.25,4.25,0,0,0,.71.06,4.36,4.36,0,0,0,3.68-2L433,363.88l38,38a4.37,4.37,0,0,0,6.18,0l26.59-26.59a4.36,4.36,0,0,0,0-6.18l-38-38,24.66-15.69a4.37,4.37,0,0,0-1.31-7.93L392.59,284a4.34,4.34,0,0,0-2-1.23,4.39,4.39,0,0,0-1.19-.17Z" style="fill:#fff"/><line x1="146.53" y1="169.84" x2="243.35" y2="169.84" style="fill:none;stroke:#ccc;stroke-linecap:round;stroke-linejoin:round;stroke-width:6.549px"/><line x1="146.53" y1="200.26" x2="243.35" y2="200.26" style="fill:none;stroke:#ccc;stroke-linecap:round;stroke-linejoin:round;stroke-width:6.549px"/><line x1="146.53" y1="230.69" x2="243.35" y2="230.69" style="fill:none;stroke:#ccc;stroke-linecap:round;stroke-linejoin:round;stroke-width:6.549px"/><line x1="146.53" y1="261.12" x2="243.35" y2="261.12" style="fill:none;stroke:#ccc;stroke-linecap:round;stroke-linejoin:round;stroke-width:6.549px"/><line x1="146.53" y1="291.55" x2="206.01" y2="291.55" style="fill:none;stroke:#ccc;stroke-linecap:round;stroke-linejoin:round;stroke-width:6.549px"/><line x1="321.27" y1="169.84" x2="418.08" y2="169.84" style="fill:none;stroke:#ccc;stroke-linecap:round;stroke-linejoin:round;stroke-width:6.549px"/><line x1="321.27" y1="200.26" x2="418.08" y2="200.26" style="fill:none;stroke:#ccc;stroke-linecap:round;stroke-linejoin:round;stroke-width:6.549px"/><line x1="321.27" y1="230.69" x2="418.08" y2="230.69" style="fill:none;stroke:#ccc;stroke-linecap:round;stroke-linejoin:round;stroke-width:6.549px"/><line x1="321.27" y1="261.12" x2="418.08" y2="261.12" style="fill:none;stroke:#ccc;stroke-linecap:round;stroke-linejoin:round;stroke-width:6.549px"/><line x1="321.27" y1="291.55" x2="380.74" y2="291.55" style="fill:none;stroke:#ccc;stroke-linecap:round;stroke-linejoin:round;stroke-width:6.549px"/><line x1="481" y1="267.85" x2="660.74" y2="267.85" style="fill:none;stroke:#f94f24;stroke-linecap:round;stroke-miterlimit:10;stroke-width:1.3069600000000001px;stroke-dasharray:3.920880079269409,7.576700210571289"/><path d="M243.35,396.84a42,42,0,1,1-41.95-41.95A41.95,41.95,0,0,1,243.35,396.84Z" style="fill:none;stroke:#f94f24;stroke-linecap:round;stroke-miterlimit:10;stroke-width:1.3069600000000001px;stroke-dasharray:3.920880079269409,7.576700210571289"/><circle cx="281.32" cy="67.39" r="17.67" style="fill:none;stroke:#f94f24;stroke-linecap:round;stroke-miterlimit:10;stroke-width:1.3069600000000001px;stroke-dasharray:3.920880079269409,7.576700210571289"/><circle cx="589.7" cy="373.08" r="43.12" style="fill:none;stroke:#f94f24;stroke-linecap:round;stroke-miterlimit:10;stroke-width:1.3069600000000001px;stroke-dasharray:3.920880079269409,7.576700210571289"/></g></svg>