<svg width="20" height="12" viewBox="0 0 20 12" fill="none" xmlns="http://www.w3.org/2000/svg">
<path fill-rule="evenodd" clip-rule="evenodd" d="M14.2883 11.0733L18.9501 6.4115C19.0966 6.26523 19.1698 6.07303 19.1698 5.88125C19.1698 5.68946 19.0966 5.49729 18.9501 5.35083L14.2883 0.689051C13.9963 0.397285 13.5232 0.396115 13.2301 0.687095C12.9365 0.97809 12.9338 1.44612 13.2234 1.74022L16.5534 5.12133L0.74994 5.12131C0.335694 5.12131 0 5.46636 0 5.88041C0 6.29463 0.335694 6.63951 0.74994 6.63951L16.6093 6.63952L13.2279 10.0169C12.9349 10.3099 12.9349 10.7803 13.2279 11.0732C13.5206 11.3662 13.9956 11.3662 14.2883 11.0733Z" fill="#fff"/>
</svg>
