<svg width="60" height="60" viewBox="0 0 60 60" fill="none" xmlns="http://www.w3.org/2000/svg">
<path d="M30.1669 38.4824L53.8333 31.0714L53.8328 51.9086L30.1664 59.3195L30.1669 38.4824ZM29.1669 38.4824L29.1664 59.3196L5.50001 51.9086L5.50051 31.0714L29.1669 38.4824ZM29.6669 37.5911L6.67369 30.3909L29.6669 23.1907L52.6601 30.3909L29.6669 37.5911Z" fill="white" stroke="#6A6E7C"/>
<path d="M38.2767 34.6667L38.2767 16.9885L46.0566 9.20858" stroke="#FA5A28"/>
<path d="M21.2858 34.6667L21.2858 16.9885L13.5059 9.20858" stroke="#FA5A28"/>
<path d="M30.1758 37.3115L30.1758 3.01649" stroke="#FA5A28"/>
<path d="M43.8561 8.25593C43.8561 6.77831 45.0539 5.58047 46.5316 5.58047C48.0092 5.58047 49.207 6.77831 49.207 8.25593C49.207 9.73355 48.0092 10.9314 46.5316 10.9314C45.0539 10.9314 43.8561 9.73355 43.8561 8.25593Z" fill="white" stroke="#FA5A28"/>
<path d="M10.8327 8.25593C10.8327 6.77831 12.0305 5.58047 13.5081 5.58047C14.9857 5.58047 16.1836 6.77831 16.1836 8.25593C16.1836 9.73355 14.9857 10.9314 13.5081 10.9314C12.0305 10.9314 10.8327 9.73355 10.8327 8.25593Z" fill="white" stroke="#FA5A28"/>
<circle cx="30.3363" cy="3.17537" r="2.67546" transform="rotate(-180 30.3363 3.17537)" fill="white" stroke="#FA5A28"/>
</svg>
