<svg width="60" height="62" viewBox="0 0 60 62" fill="none" xmlns="http://www.w3.org/2000/svg">
<path d="M47.4537 41.2273V17.0227C47.4537 8.17362 40.28 1 31.4309 1V1C22.5818 1 15.4082 8.17363 15.4082 17.0227V20.7727" stroke="#FA5A28"/>
<circle cx="15.4091" cy="20.0909" r="2.90909" transform="rotate(-90 15.4091 20.0909)" fill="white" stroke="#FA5A28"/>
<mask id="path-3-outside-1_1175_7835" maskUnits="userSpaceOnUse" x="12.4551" y="21.8181" width="36" height="41" fill="black">
<rect fill="white" x="12.4551" y="21.8181" width="36" height="41"/>
<path fill-rule="evenodd" clip-rule="evenodd" d="M28.7941 60.4644C30.0047 61.1784 31.4962 61.1784 32.7067 60.4644L45.4988 52.9179C46.7094 52.2036 47.4551 50.884 47.4551 49.4556V34.3626C47.4551 32.9342 46.7094 31.6144 45.4988 30.9004L32.7067 23.3538C31.4962 22.6395 30.0047 22.6395 28.7941 23.3538L16.0023 30.9004C14.7917 31.6144 14.046 32.9342 14.046 34.3626V49.4556C14.046 50.884 14.7917 52.2036 16.0023 52.9179V52.9179L28.7941 60.4644Z"/>
</mask>
<path fill-rule="evenodd" clip-rule="evenodd" d="M28.7941 60.4644C30.0047 61.1784 31.4962 61.1784 32.7067 60.4644L45.4988 52.9179C46.7094 52.2036 47.4551 50.884 47.4551 49.4556V34.3626C47.4551 32.9342 46.7094 31.6144 45.4988 30.9004L32.7067 23.3538C31.4962 22.6395 30.0047 22.6395 28.7941 23.3538L16.0023 30.9004C14.7917 31.6144 14.046 32.9342 14.046 34.3626V49.4556C14.046 50.884 14.7917 52.2036 16.0023 52.9179V52.9179L28.7941 60.4644Z" fill="white"/>
<path fill-rule="evenodd" clip-rule="evenodd" d="M28.7941 60.4644C30.0047 61.1784 31.4962 61.1784 32.7067 60.4644L45.4988 52.9179C46.7094 52.2036 47.4551 50.884 47.4551 49.4556V34.3626C47.4551 32.9342 46.7094 31.6144 45.4988 30.9004L32.7067 23.3538C31.4962 22.6395 30.0047 22.6395 28.7941 23.3538L16.0023 30.9004C14.7917 31.6144 14.046 32.9342 14.046 34.3626V49.4556C14.046 50.884 14.7917 52.2036 16.0023 52.9179V52.9179L28.7941 60.4644Z" stroke="#6A6E7C" stroke-width="2" mask="url(#path-3-outside-1_1175_7835)"/>
<path d="M31.0918 34.9092C34.9578 34.9092 38.0918 38.0432 38.0918 41.9092C38.0918 45.7752 34.9578 48.9092 31.0918 48.9092C27.2258 48.9092 24.0918 45.7752 24.0918 41.9092C24.0918 38.0432 27.2258 34.9092 31.0918 34.9092Z" stroke="#FA5A28"/>
</svg>
