<svg width="51" height="61" viewBox="0 0 51 61" fill="none" xmlns="http://www.w3.org/2000/svg">
<path d="M25.6669 22.6667L50.3333 30.3909L25.6669 38.115L1.00052 30.3909L25.6669 22.6667Z" fill="white"/>
<path d="M25.6664 60.0001L1 52.2759L1.00052 30.3909L25.6669 38.115L25.6664 60.0001Z" fill="white"/>
<path d="M25.6664 60.0001L50.3328 52.2759L50.3333 30.3909L25.6669 38.115L25.6664 60.0001Z" fill="white"/>
<path d="M50.3333 30.3909L25.6669 22.6667L1.00052 30.3909M50.3333 30.3909L25.6669 38.115M50.3333 30.3909L50.3328 52.2759L25.6664 60.0001M25.6669 38.115L1.00052 30.3909M25.6669 38.115L25.6664 60.0001M1.00052 30.3909L1 52.2759L25.6664 60.0001" stroke="#6A6E7C"/>
<path d="M34.2767 34.6667L34.2767 16.9885L42.0566 9.20858" stroke="#FA5A28"/>
<path d="M17.2858 34.6667L17.2858 16.9885L9.50586 9.20858" stroke="#FA5A28"/>
<path d="M26.1758 37.3115L26.1758 3.01649" stroke="#FA5A28"/>
<path d="M39.8561 8.25593C39.8561 6.77831 41.0539 5.58047 42.5316 5.58047C44.0092 5.58047 45.207 6.77831 45.207 8.25593C45.207 9.73355 44.0092 10.9314 42.5316 10.9314C41.0539 10.9314 39.8561 9.73355 39.8561 8.25593Z" fill="white" stroke="#FA5A28"/>
<path d="M6.83266 8.25593C6.83266 6.77831 8.03051 5.58047 9.50813 5.58047C10.9857 5.58047 12.1836 6.77831 12.1836 8.25593C12.1836 9.73355 10.9857 10.9314 9.50813 10.9314C8.03051 10.9314 6.83266 9.73355 6.83266 8.25593Z" fill="white" stroke="#FA5A28"/>
<circle cx="26.3363" cy="3.17537" r="2.67546" transform="rotate(-180 26.3363 3.17537)" fill="white" stroke="#FA5A28"/>
</svg>
