<?xml version="1.0" encoding="UTF-8"?>
<svg width="199px" height="200px" viewBox="0 0 199 200" version="1.1" xmlns="http://www.w3.org/2000/svg" xmlns:xlink="http://www.w3.org/1999/xlink">
    <!-- Generator: Sketch 50.2 (55047) - http://www.bohemiancoding.com/sketch -->
    <title>salary, talk, female, woman, business, money</title>
    <desc>Created with Sketch.</desc>
    <defs>
        <linearGradient x1="50.6005167%" y1="204.784219%" x2="50.6005167%" y2="-58.6652642%" id="linearGradient-1">
            <stop stop-color="#F3C57A" offset="0%"></stop>
            <stop stop-color="#F39369" offset="49%"></stop>
            <stop stop-color="#E94867" offset="100%"></stop>
        </linearGradient>
        <linearGradient x1="49.8816773%" y1="125.208743%" x2="49.8816773%" y2="-371.857973%" id="linearGradient-2">
            <stop stop-color="#FFFFFF" offset="0%"></stop>
            <stop stop-color="#CCE2E6" offset="41%"></stop>
            <stop stop-color="#8FA1BB" offset="100%"></stop>
        </linearGradient>
        <linearGradient x1="50.0332668%" y1="2466.66667%" x2="50.0332668%" y2="-2098.66667%" id="linearGradient-3">
            <stop stop-color="#FFFFFF" offset="0%"></stop>
            <stop stop-color="#CCE2E6" offset="52%"></stop>
            <stop stop-color="#8FA1BB" offset="100%"></stop>
        </linearGradient>
        <linearGradient x1="50.0332668%" y1="2166.66667%" x2="50.0332668%" y2="-2398.66667%" id="linearGradient-4">
            <stop stop-color="#FFFFFF" offset="0%"></stop>
            <stop stop-color="#CCE2E6" offset="52%"></stop>
            <stop stop-color="#8FA1BB" offset="100%"></stop>
        </linearGradient>
        <linearGradient x1="50.2666667%" y1="1866.66667%" x2="50.2666667%" y2="-2698.66667%" id="linearGradient-5">
            <stop stop-color="#FFFFFF" offset="0%"></stop>
            <stop stop-color="#CCE2E6" offset="52%"></stop>
            <stop stop-color="#8FA1BB" offset="100%"></stop>
        </linearGradient>
        <linearGradient x1="50%" y1="1866.66667%" x2="50%" y2="-2698.66667%" id="linearGradient-6">
            <stop stop-color="#FFFFFF" offset="0%"></stop>
            <stop stop-color="#CCE2E6" offset="52%"></stop>
            <stop stop-color="#8FA1BB" offset="100%"></stop>
        </linearGradient>
        <linearGradient x1="52.6666667%" y1="1866.66667%" x2="52.6666667%" y2="-2698.66667%" id="linearGradient-7">
            <stop stop-color="#FFFFFF" offset="0%"></stop>
            <stop stop-color="#CCE2E6" offset="52%"></stop>
            <stop stop-color="#8FA1BB" offset="100%"></stop>
        </linearGradient>
        <linearGradient x1="50.0492043%" y1="677.73239%" x2="50.0492043%" y2="-435.999393%" id="linearGradient-8">
            <stop stop-color="#273A9B" offset="0%"></stop>
            <stop stop-color="#202F65" offset="56%"></stop>
            <stop stop-color="#021E2F" offset="100%"></stop>
        </linearGradient>
        <linearGradient x1="50.0052227%" y1="199.08862%" x2="50.0052227%" y2="-198.264833%" id="linearGradient-9">
            <stop stop-color="#273A9B" offset="0%"></stop>
            <stop stop-color="#202F65" offset="56%"></stop>
            <stop stop-color="#021E2F" offset="100%"></stop>
        </linearGradient>
        <linearGradient x1="50%" y1="599.09402%" x2="50%" y2="-312.081831%" id="linearGradient-10">
            <stop stop-color="#273A9B" offset="0%"></stop>
            <stop stop-color="#202F65" offset="56%"></stop>
            <stop stop-color="#021E2F" offset="100%"></stop>
        </linearGradient>
        <linearGradient x1="50%" y1="1294.33333%" x2="50%" y2="-1490%" id="linearGradient-11">
            <stop stop-color="#273A9B" offset="0%"></stop>
            <stop stop-color="#202F65" offset="56%"></stop>
            <stop stop-color="#021E2F" offset="100%"></stop>
        </linearGradient>
    </defs>
    <g id="Home-v1" stroke="none" stroke-width="1" fill="none" fill-rule="evenodd">
        <g id="Main-page" transform="translate(-675.000000, -1073.000000)" fill-rule="nonzero">
            <g id="Serverless" transform="translate(274.000000, 840.000000)">
                <g id="Cost-Control" transform="translate(351.000000, 233.000000)">
                    <g id="salary,-talk,-female,-woman,-business,-money" transform="translate(50.000000, 0.000000)">
                        <path d="M135.809524,0.476190476 C109.107103,3.92741316 88.4364506,25.5502642 86.1904762,52.3809524 C85.2711619,63.7132037 87.7761695,75.0603908 93.3809524,84.952381 C96.1655476,89.932916 96.3433148,95.9592232 93.8571429,101.095238 L91.6190476,105.857143 C91.2537768,106.62196 91.4102523,107.533966 92.0095719,108.133285 C92.6088916,108.732605 93.5208971,108.88908 94.2857143,108.52381 L99.047619,106.285714 C104.183634,103.799542 110.209941,103.97731 115.190476,106.761905 C125.005096,112.454522 136.300506,115.07519 147.619048,114.285714 C167.949161,112.176146 185.60952,99.3808387 193.947637,80.7196598 C202.285754,62.0584808 200.034872,40.3665078 188.042875,23.8148972 C176.050878,7.26328653 156.139637,-1.63337823 135.809524,0.476190476 Z" id="Shape" fill="url(#linearGradient-1)"></path>
                        <path d="M161.095238,60.7619048 C160.388241,59.0930444 159.370133,57.5739622 158.095238,56.2857143 C156.875874,55.0667365 155.479118,54.0392383 153.952381,53.2380952 C152.501253,52.4833476 151.006555,51.8155038 149.47619,51.2380952 L145.190476,49.6190476 C143.992408,49.1870156 142.830107,48.6615918 141.714286,48.047619 C140.908179,47.6221782 140.195689,47.0392315 139.619048,46.3333333 C139.186697,45.7406286 138.968432,45.0186735 139,44.2857143 C138.992242,43.7791972 139.089526,43.2765674 139.285714,42.8095238 C139.464947,42.3988515 139.743062,42.038939 140.095238,41.7619048 C140.62409,41.3796811 141.222645,41.1046697 141.857143,40.952381 C144.096574,40.4269242 146.427236,40.4269242 148.666667,40.952381 C149.734986,41.2361128 150.78463,41.5859942 151.809524,42 L154.142857,43.047619 C155.904762,43.952381 157.047619,43.952381 157.952381,43.3333333 C158.446508,42.9825791 158.813989,42.481468 159,41.9047619 C159.192186,41.3521243 159.304431,40.7748635 159.333333,40.1904762 C159.333333,39.6190476 159.333333,38.8888889 159.333333,38 C159.333333,37.3333333 159.333333,36.7619048 159.333333,36.2857143 C159.365545,35.8100686 159.365545,35.3327886 159.333333,34.8571429 C159.252506,34.4103304 159.108187,33.9773752 158.904762,33.5714286 C158.678141,33.1495425 158.389176,32.7642555 158.047619,32.4285714 C157.541578,31.9700392 156.96208,31.5998046 156.333333,31.3333333 L154.190476,30.4761905 C153.363796,30.1892721 152.521097,29.9507725 151.666667,29.7619048 L150.857143,29.7619048 L151.285714,23.8095238 C151.360364,23.3522328 151.360364,22.8858624 151.285714,22.4285714 C151.053906,21.7145572 150.536737,21.1284325 149.857143,20.8095238 C149.161843,20.4508908 148.399814,20.2401168 147.619048,20.1904762 C146.210597,20.0355521 144.789403,20.0355521 143.380952,20.1904762 C142.837852,20.2497426 142.307514,20.3943803 141.809524,20.6190476 C141.307121,20.8458295 140.878239,21.2087299 140.571429,21.6666667 C140.335348,22.0583167 140.188982,22.4974124 140.142857,22.952381 L140.142857,23.5238095 C139.81823,26.7800242 137.733794,29.5958407 134.714286,30.8571429 L134.285714,30.8571429 C132.375389,31.6317436 130.630022,32.7629995 129.142857,34.1904762 C127.734303,35.5370669 126.616139,37.1575952 125.857143,38.952381 C125.087003,40.8915072 124.698933,42.9612131 124.714286,45.047619 C124.660062,47.2101589 125.032221,49.3622103 125.809524,51.3809524 C126.483863,53.1514829 127.503651,54.7701928 128.809524,56.1428571 C130.021606,57.3496114 131.400774,58.3759691 132.904762,59.1904762 C134.336089,59.9661328 135.81526,60.6500505 137.333333,61.2380952 L141.571429,62.8095238 C142.756285,63.2171428 143.903461,63.7269988 145,64.3333333 C145.799376,64.7688489 146.510054,65.3503133 147.095238,66.047619 C147.531071,66.6385843 147.749717,67.3617975 147.714286,68.0952381 C147.757996,69.3548203 147.168043,70.5526034 146.142857,71.2857143 C144.382152,72.3453072 142.334311,72.8281313 140.285714,72.6666667 C138.682407,72.6994584 137.081653,72.5233754 135.52381,72.1428571 C134.333605,71.8245196 133.171088,71.4104723 132.047619,70.9047619 C131.233405,70.5328727 130.438719,70.1196359 129.666667,69.6666667 C128.527895,68.719321 126.930959,68.5502337 125.619048,69.2380952 C125.057578,69.5833292 124.623163,70.1012854 124.380952,70.7142857 C124.14795,71.3090146 124.003552,71.9347384 123.952381,72.5714286 C123.952381,73.1904762 123.952381,74 123.952381,74.952381 C123.925024,75.9737831 124.004826,76.995239 124.190476,78 C124.3499,78.8398565 124.746483,79.6164992 125.333333,80.2380952 C125.858231,80.7331403 126.451609,81.1501084 127.095238,81.4761905 C127.849341,81.8759002 128.628783,82.2258537 129.428571,82.5238095 C130.395245,82.8796585 131.38088,83.1817081 132.380952,83.4285714 L134.095238,83.8095238 L133.333333,90.4761905 C133.167953,91.0518496 133.167953,91.6624361 133.333333,92.2380952 C133.600138,92.9081269 134.110461,93.4524723 134.761905,93.7619048 C135.317978,94.0281492 135.9126,94.2049287 136.52381,94.2857143 C137.300519,94.343363 138.080433,94.343363 138.857143,94.2857143 C139.491164,94.3335203 140.127884,94.3335203 140.761905,94.2857143 C141.267693,94.2195626 141.763458,94.0916233 142.238095,93.9047619 C142.812671,93.6879359 143.298593,93.285794 143.619048,92.7619048 C143.8497,92.3677724 143.995661,91.9298876 144.047619,91.4761905 L144.047619,91.1904762 C144.493426,87.4031033 147.064214,84.2034891 150.666667,82.952381 C153.049273,82.1536066 155.250273,80.8912683 157.142857,79.2380952 C158.810024,77.7592445 160.141421,75.9407506 161.047619,73.9047619 C161.984781,71.7247762 162.455188,69.3727416 162.428571,67 C162.417999,64.8510519 161.96409,62.7274039 161.095238,60.7619048 Z" id="Shape" fill="url(#linearGradient-2)"></path>
                        <path d="M175.333333,135.714286 L110.904762,135.714286 C108.932316,135.714286 107.333333,134.115303 107.333333,132.142857 C107.333333,130.170412 108.932316,128.571429 110.904762,128.571429 L175.333333,128.571429 C177.305779,128.571429 178.904762,130.170412 178.904762,132.142857 C178.904762,134.115303 177.305779,135.714286 175.333333,135.714286 Z" id="Shape" fill="url(#linearGradient-3)"></path>
                        <path d="M175.333333,157.142857 L110.904762,157.142857 C108.932316,157.142857 107.333333,155.543874 107.333333,153.571429 C107.333333,151.598983 108.932316,150 110.904762,150 L175.333333,150 C177.305779,150 178.904762,151.598983 178.904762,153.571429 C178.904762,155.543874 177.305779,157.142857 175.333333,157.142857 Z" id="Shape" fill="url(#linearGradient-4)"></path>
                        <path d="M139.333333,178.571429 L110.761905,178.571429 C108.789459,178.571429 107.190476,176.972446 107.190476,175 C107.190476,173.027554 108.789459,171.428571 110.761905,171.428571 L139.333333,171.428571 C141.305779,171.428571 142.904762,173.027554 142.904762,175 C142.904762,176.972446 141.305779,178.571429 139.333333,178.571429 Z" id="Shape" fill="url(#linearGradient-5)"></path>
                        <path d="M175.190476,178.571429 C173.218031,178.571429 171.619048,176.972446 171.619048,175 C171.619048,173.027554 173.218031,171.428571 175.190476,171.428571 C177.162922,171.428571 178.761905,173.027554 178.761905,175 C178.761905,176.972446 177.162922,178.571429 175.190476,178.571429 Z" id="Shape" fill="url(#linearGradient-6)"></path>
                        <path d="M157.142857,178.571429 C155.170412,178.571429 153.571429,176.972446 153.571429,175 C153.571429,173.027554 155.170412,171.428571 157.142857,171.428571 C159.115303,171.428571 160.714286,173.027554 160.714286,175 C160.714286,176.972446 159.115303,178.571429 157.142857,178.571429 Z" id="Shape" fill="url(#linearGradient-7)"></path>
                        <path d="M42.8571429,57.1428571 C31.3333333,57.1428571 21.6190476,68.3809524 18.7619048,83.6666667 C18.3520475,85.9478702 18.9766336,88.2932711 20.466732,90.0685117 C21.9568303,91.8437523 24.1584752,92.8654044 26.4761905,92.8571429 L59.1904762,92.8571429 C61.5081915,92.8654044 63.7098364,91.8437523 65.1999347,90.0685117 C66.690033,88.2932711 67.3146191,85.9478702 66.9047619,83.6666667 C64.0952381,68.3809524 54.3809524,57.1428571 42.8571429,57.1428571 Z" id="Shape" fill="url(#linearGradient-8)"></path>
                        <path d="M40.7619048,100 C29.5459051,101.388967 21.1964372,111.034042 21.4285714,122.333333 L21.4285714,192.857143 C21.4285714,196.802034 24.6265375,200 28.5714286,200 C32.5163196,200 35.7142857,196.802034 35.7142857,192.857143 L35.7142857,171.428571 C35.7142857,167.48368 38.9122518,164.285714 42.8571429,164.285714 C46.8020339,164.285714 50,167.48368 50,171.428571 L50,192.857143 C50,196.802034 53.1979661,200 57.1428571,200 C61.0877482,200 64.2857143,196.802034 64.2857143,192.857143 L64.2857143,121.428571 C64.3147861,115.362991 61.7718678,109.569241 57.2877599,105.484527 C52.8036519,101.399813 46.798483,99.4068446 40.7619048,100 Z" id="Shape" fill="url(#linearGradient-9)"></path>
                        <path d="M28,106.333333 C31.2897419,111.363274 36.8945451,114.394667 42.9047619,114.394667 C48.9149787,114.394667 54.5197819,111.363274 57.8095238,106.333333 C53.3564765,101.784547 47.1047449,99.461976 40.7619048,100 C35.8881639,100.519531 31.3612584,102.766093 28,106.333333 Z" id="Shape" fill="url(#linearGradient-10)"></path>
                        <circle id="Oval" fill="url(#linearGradient-11)" cx="7.14285714" cy="121.428571" r="7.14285714"></circle>
                        <circle id="Oval" fill="url(#linearGradient-11)" cx="78.5714286" cy="121.428571" r="7.14285714"></circle>
                    </g>
                </g>
            </g>
        </g>
    </g>
</svg>