<?xml version="1.0" encoding="UTF-8"?>
<svg width="50px" height="50px" viewBox="0 0 50 50" version="1.1" xmlns="http://www.w3.org/2000/svg" xmlns:xlink="http://www.w3.org/1999/xlink">
    <!-- Generator: Sketch 50.2 (55047) - http://www.bohemiancoding.com/sketch -->
    <title>Twitter Icon</title>
    <desc>Created with Sketch.</desc>
    <defs></defs>
    <g id="Home-v1" stroke="none" stroke-width="1" fill="none" fill-rule="evenodd">
        <g id="Main-page" transform="translate(-1058.000000, -7196.000000)">
            <g id="FAQ-/-Patreon" transform="translate(252.000000, 6718.000000)">
                <g id="Right-Boxes-v1" transform="translate(784.000000, 6.000000)">
                    <g id="Twitter" transform="translate(22.000000, 463.000000)">
                        <g id="Twitter-Icon" transform="translate(0.000000, 9.000000)">
                            <circle id="Oval-2" fill="#55A9DC" cx="25" cy="25" r="25"></circle>
                            <g id="twitter-(1)" transform="translate(8.000000, 11.000000)" fill="#FFFFFF" fill-rule="nonzero">
                                <path d="M23.3859333,0.00621531632 L23.3859333,0 L25.0270514,0 L25.6266907,0.11809101 C26.0264608,0.194756937 26.3894004,0.295227525 26.7155095,0.419533851 C27.0416501,0.543840178 27.3572498,0.688874584 27.6623084,0.854605993 C27.9673986,1.0203374 28.2440848,1.18920755 28.492367,1.36115427 C28.7385347,1.53104994 28.9594545,1.71129412 29.1551262,1.90188679 C29.3486519,2.0945616 29.6505861,2.14428413 30.0608656,2.05105438 C30.4711452,1.95782464 30.9129847,1.82832852 31.3863841,1.66259711 C31.8597836,1.4968657 32.3279441,1.31040622 32.7908025,1.10321865 C33.2536925,0.896031077 33.5356492,0.764483907 33.6366411,0.70854606 C33.7355185,0.650557159 33.7881289,0.619480577 33.7944409,0.615316315 L33.8007214,0.605993341 L33.8322813,0.59045505 L33.8638413,0.574916759 L33.8954013,0.559378468 L33.9269612,0.543840178 L33.9332732,0.534517203 L33.9427412,0.528301887 L33.9522408,0.52208657 L33.9585212,0.512763596 L33.9900812,0.503440622 L34.0216411,0.497225305 L34.0153607,0.543840178 L34.0058611,0.59045505 L33.9900812,0.637069922 L33.9743012,0.683684795 L33.9585212,0.714761376 L33.9427412,0.745837958 L33.9269612,0.79245283 C33.9164518,0.823529412 33.9059423,0.864954495 33.8954013,0.916759156 C33.8848918,0.968563818 33.7849414,1.17572031 33.5955816,1.53829079 C33.4062218,1.90086127 33.1695221,2.26859046 32.8854824,2.64150943 C32.6014427,3.01442841 32.3468801,3.2961687 32.1217628,3.48679245 C31.8945311,3.67946726 31.7440848,3.81412209 31.6704238,3.89078801 C31.5967944,3.96950499 31.507385,4.04200666 31.4021641,4.10832408 L31.2443643,4.2108768 L31.2128043,4.22641509 L31.1812444,4.24195339 L31.1749639,4.25127636 L31.1654644,4.25749168 L31.1559964,4.26370699 L31.1496844,4.27302997 L31.1181244,4.28856826 L31.0865645,4.30410655 L31.080284,4.31342952 L31.0707845,4.31964484 L31.0613165,4.32586016 L31.0550045,4.33518313 L31.0487241,4.3445061 L31.0392245,4.35072142 L31.0297565,4.35693674 L31.0234445,4.36625971 L31.1812444,4.36625971 L32.0649234,4.17980022 C32.6540532,4.0554939 33.216862,3.90530078 33.7533814,3.72918979 L34.6055005,3.44950055 L34.7001803,3.41842397 L34.7475203,3.40288568 L34.7790803,3.38734739 L34.8106402,3.3718091 L34.8422002,3.35627081 L34.8737601,3.34073252 L34.9368801,3.33140954 L35,3.32519423 L35,3.38734739 L34.98422,3.39356271 L34.96844,3.40288568 L34.9621596,3.41220866 L34.9526601,3.41842397 L34.9431921,3.42463929 L34.9368801,3.43396226 L34.9305996,3.44328524 L34.9211001,3.44950055 L34.9116321,3.45571587 L34.9053201,3.46503885 L34.8990397,3.47436182 L34.8895401,3.48057714 L34.8737601,3.51165372 L34.8579802,3.5427303 L34.8485122,3.54894562 C34.8443147,3.55516093 34.7107214,3.73124084 34.4477006,4.0772475 C34.1847115,4.42530522 34.0426916,4.60138513 34.0216411,4.60554939 C34.0006222,4.61176471 33.9711452,4.64284129 33.9332732,4.69877913 C33.8975158,4.75676804 33.6744815,4.98779134 33.264202,5.3917869 C32.8539225,5.79578246 32.452101,6.15521421 32.0586429,6.47014428 C31.6631019,6.78712542 31.4632011,7.17660821 31.4590036,7.63862375 C31.4526916,8.09855716 31.4284851,8.61859267 31.3863841,9.19866815 C31.3443147,9.77877469 31.2654148,10.405465 31.1496844,11.0788013 C31.0339856,11.7521376 30.8551353,12.5135139 30.613165,13.3629301 C30.3712263,14.2123463 30.0766456,15.0410655 29.729486,15.8490566 C29.3823264,16.6570477 29.0193868,17.3821576 28.6406673,18.0244173 C28.2619477,18.666677 27.9147881,19.2105172 27.5991885,19.6559378 C27.2835888,20.1013585 26.9627502,20.5208923 26.6366096,20.9145394 C26.3105005,21.3081865 25.898138,21.751556 25.3994905,22.2446171 C24.8987286,22.7356271 24.6252299,23.0049678 24.5789315,23.0526082 C24.53055,23.0981976 24.3243688,23.2680932 23.9603246,23.5622642 C23.5984581,23.8585172 23.2091975,24.1547703 22.792606,24.4510544 C22.3781289,24.7452564 21.9972949,24.9907614 21.6501353,25.1875694 C21.3029757,25.3843774 20.8843012,25.6091543 20.3940487,25.8619312 C19.9059423,26.1167592 19.3778179,26.3529412 18.8097385,26.5704772 C18.2416592,26.7880133 17.6420198,26.9900111 17.0108206,27.1764706 C16.3796213,27.3629301 15.7694725,27.5079645 15.1803427,27.6115427 C14.5912444,27.715121 13.9232146,27.803192 13.1762849,27.8756937 L12.0559062,27.9844617 L12.0559062,28 L10.0045086,28 L10.0045086,27.9844617 L9.73624887,27.9689234 C9.55743012,27.9585749 9.41013977,27.9481953 9.29440938,27.9378468 C9.17871055,27.9274983 8.74211001,27.8705039 7.98467087,27.7669256 C7.22723174,27.6633474 6.63286294,27.5597381 6.20153291,27.4561598 C5.77023445,27.3525816 5.12849414,27.1557425 4.27637511,26.8657048 C3.42425609,26.575667 2.69522092,26.2824906 2.08926961,25.9862375 C1.48543282,25.6920355 1.10671326,25.505576 0.953110911,25.426859 C0.801623084,25.3501931 0.631199279,25.2549123 0.441839495,25.1409545 L0.15779982,24.9700333 L0.151519387,24.9607103 L0.142019838,24.954495 L0.132551849,24.9482797 L0.126239856,24.9389567 L0.0946798918,24.9234184 L0.0631199279,24.9078801 L0.056839495,24.8985572 L0.0473399459,24.8923418 L0.0378719567,24.8861265 L0.0315599639,24.8768036 L0.0252795311,24.8674806 L0.015779982,24.8612653 L0,24.8612653 L0,24.7991121 L0.0315599639,24.8053274 L0.0631199279,24.8146504 L0.205139766,24.8301887 C0.299819657,24.8405372 0.557569883,24.8560755 0.978358882,24.8768036 C1.39917944,24.8975316 1.84625789,24.8975316 2.31965735,24.8768036 C2.79305681,24.8560755 3.27699729,24.8094606 3.77141569,24.7369589 C4.26586564,24.6644573 4.84972498,24.5401509 5.52299369,24.36404 C6.19629396,24.187929 6.81486925,23.9786903 7.37875113,23.736293 C7.94051849,23.4918446 8.34025699,23.3095183 8.57802976,23.1893452 C8.81365645,23.0712542 9.17344004,22.851636 9.65734896,22.5305216 L10.3832281,22.0488346 L10.3895401,22.0395117 L10.3990081,22.0332963 L10.4085077,22.027081 L10.4147881,22.017758 L10.4211001,22.0084351 L10.4305681,22.0022198 L10.4400676,21.9960044 L10.4463481,21.9866815 L10.477908,21.9773585 L10.509468,21.9711432 L10.51578,21.9400666 L10.525248,21.90899 L10.5347475,21.9027747 L10.541028,21.8934517 L10.2885482,21.8779134 C10.120239,21.8675649 9.95716862,21.8571853 9.7993688,21.8468368 C9.64156898,21.8364883 9.39435978,21.7898735 9.05770965,21.7069922 C8.72109107,21.624111 8.35815149,21.4998047 7.96889089,21.3340733 C7.57966186,21.1683418 7.20094229,20.9715028 6.83273219,20.7436182 C6.46455365,20.5157336 6.19837692,20.3261354 6.0342651,20.1749168 C5.87226781,20.0257181 5.66185753,19.8144284 5.40306583,19.5409545 C5.14638864,19.2654295 4.92335437,18.9826016 4.73399459,18.6925638 C4.54463481,18.4025261 4.36370153,18.0678935 4.19119477,17.6887902 L3.92921551,17.1231964 L3.91343553,17.0765816 L3.89765555,17.0299667 L3.88818756,16.9988901 L3.88187556,16.9678135 L3.92921551,16.9740289 L3.97655546,16.9833518 L4.32371506,17.0299667 C4.55517583,17.0610433 4.91811542,17.0713918 5.41253381,17.0610433 C5.90698377,17.0506948 6.24887286,17.0299667 6.43823264,16.9988901 C6.62759243,16.9678135 6.74332281,16.9470855 6.78539225,16.936737 L6.84851217,16.9211987 L6.92741208,16.9056604 L7.00631199,16.8901221 L7.01262399,16.8807991 L7.02209197,16.8745838 L7.03159152,16.8683685 L7.03787196,16.8590455 L6.97475203,16.8435072 L6.9116321,16.8279689 L6.84851217,16.8124306 L6.78539225,16.7968923 L6.72227232,16.7813541 C6.68020289,16.7710055 6.60657349,16.7502775 6.50135257,16.7192009 C6.39616321,16.6881243 6.11212353,16.5741665 5.64923354,16.3773585 C5.18637511,16.1805505 4.81816501,15.9889012 4.54463481,15.8024417 C4.27042655,15.6154418 4.00896965,15.4109332 3.7619477,15.1902331 C3.51577998,14.9664817 3.24543733,14.678495 2.95085663,14.3263041 C2.65630748,13.9741132 2.3933183,13.5649279 2.16185753,13.0987791 C1.93042831,12.6326304 1.75684851,12.1872098 1.64111812,11.7624861 C1.52585311,11.3402608 1.44980679,10.9085918 1.41391794,10.472808 L1.35707845,9.82019978 L1.38863841,9.82641509 L1.42019838,9.83573807 L1.45175834,9.85127636 L1.4833183,9.86681465 L1.51487827,9.88235294 L1.54643823,9.89789123 L2.03561767,10.1154273 C2.36175834,10.2604617 2.76676736,10.384768 3.25067628,10.4883463 C3.73461677,10.5919245 4.0238954,10.648919 4.11857529,10.6592675 L4.26059513,10.6748058 L4.54463481,10.6748058 L4.53835437,10.6654828 L4.52885482,10.6592675 L4.51938683,10.6530522 L4.51307484,10.6437292 L4.50679441,10.6344062 L4.49729486,10.6281909 L4.48782687,10.6219756 L4.48151488,10.6126526 L4.44995491,10.5971143 L4.41839495,10.581576 L4.41211452,10.5722531 L4.40261497,10.5660377 L4.39314698,10.5598224 L4.38683499,10.5504994 L4.35527502,10.5349612 L4.32371506,10.5194229 L4.31743463,10.5100999 C4.31112263,10.5059356 4.22064022,10.4396493 4.04598738,10.3112098 C3.87344905,10.1806881 3.69251578,10.0118491 3.503156,9.80466149 C3.31379621,9.59747392 3.12443643,9.37993785 2.93507665,9.15205327 C2.74536822,8.92364656 2.5763992,8.67927441 2.43011722,8.42175361 C2.28285843,8.16279245 2.12714157,7.83334961 1.96302976,7.43351831 C1.80103246,7.03573807 1.6779486,6.63485017 1.59377818,6.23085461 C1.50963931,5.82685905 1.46229937,5.42805327 1.45175834,5.03440622 C1.44124887,4.64075916 1.45175834,4.30410655 1.4833183,4.02441731 C1.51487827,3.74472808 1.5779982,3.42877248 1.67267809,3.07658158 C1.76735798,2.72439068 1.90413886,2.3514717 2.08295762,1.95782464 L2.35121731,1.36736959 L2.36699729,1.32075472 L2.38277728,1.27413984 L2.39227683,1.26792453 L2.39855726,1.25860155 L2.40486925,1.24927858 L2.41433724,1.24306326 L2.42383679,1.24927858 L2.43011722,1.25860155 L2.43642922,1.26792453 L2.4458972,1.27413984 L2.45539675,1.28035516 L2.46167719,1.28967814 L2.46798918,1.29900111 L2.47745717,1.30521643 L2.49323715,1.33629301 L2.50901713,1.36736959 L2.51851668,1.37358491 L2.52479711,1.38290788 L2.95085663,1.8490566 C3.2348963,2.15982242 3.57154644,2.50685461 3.96077547,2.89012209 C4.35003607,3.27338957 4.5656853,3.47227969 4.60775473,3.48679245 C4.64985573,3.50335627 4.70243463,3.55099667 4.76555455,3.62974473 C4.82867448,3.70641065 5.03908476,3.88976249 5.39675383,4.17980022 C5.75445446,4.46983796 6.22258341,4.80652164 6.80117223,5.18978912 C7.37979261,5.5730566 8.02150135,5.95116537 8.72633003,6.32408435 C9.43119026,6.69700333 10.1886294,7.03365594 10.9986474,7.33407325 C11.808697,7.63449057 12.3767764,7.83129856 12.7028855,7.9245283 C13.0290261,8.01775805 13.5865645,8.13687458 14.3755636,8.28190899 C15.1645627,8.4269434 15.758963,8.52017314 16.1587015,8.56159822 C16.5584716,8.60302331 16.8320018,8.62685905 16.9792606,8.63307436 L17.2001803,8.63928968 L17.1938999,8.59267481 L17.1844004,8.54605993 L17.1212804,8.15760266 C17.079211,7.89864151 17.0581605,7.53607103 17.0581605,7.06992231 C17.0581605,6.60377358 17.094991,6.17389123 17.1686204,5.78024417 C17.2422813,5.38659711 17.3527412,4.98779134 17.5,4.58379578 C17.6472904,4.17980022 17.7914247,3.85554717 17.9323715,3.61109878 C18.0754644,3.36870144 18.2627096,3.09211987 18.4941389,2.78135405 C18.7255996,2.47058824 19.0254193,2.14947392 19.3935978,1.81798002 C19.7618079,1.48648613 20.1825969,1.1912586 20.6559964,0.932297447 C21.1293959,0.673336293 21.5659964,0.476497225 21.9657349,0.341842397 C22.365505,0.207187569 22.7021551,0.119116537 22.9756537,0.0776914539 C23.2491839,0.0362663707 23.3859333,0.0124306326 23.3859333,0.00621531632 Z" id="Shape"></path>
                            </g>
                        </g>
                    </g>
                </g>
            </g>
        </g>
    </g>
</svg>