<svg xmlns="http://www.w3.org/2000/svg" xmlns:xlink="http://www.w3.org/1999/xlink" viewBox="0 0 800 500"><defs><linearGradient id="a" x1="118.12" y1="219.99" x2="225.41" y2="291.12" gradientUnits="userSpaceOnUse"><stop offset="0" stop-color="#8033eb"/><stop offset="0.53" stop-color="#d4648e"/><stop offset="1" stop-color="#ec7071"/></linearGradient><linearGradient id="b" x1="161.88" y1="140.22" x2="123.09" y2="57.41" xlink:href="#a"/><linearGradient id="c" x1="160.45" y1="438.5" x2="130.47" y2="390.07" xlink:href="#a"/><linearGradient id="d" x1="163.83" y1="405.14" x2="163.68" y2="404.9" xlink:href="#a"/><linearGradient id="e" x1="136.14" y1="406.85" x2="135.41" y2="405.67" xlink:href="#a"/><linearGradient id="f" x1="533.51" y1="420.65" x2="663.89" y2="176.91" gradientTransform="translate(359.04 -369.47) rotate(45)" xlink:href="#a"/><linearGradient id="g" x1="580.01" y1="422.85" x2="628.19" y2="248.55" gradientUnits="userSpaceOnUse"><stop offset="0" stop-color="#8033eb"/><stop offset="1" stop-color="#a2e1e0"/></linearGradient></defs><title>Artboard 2 copy 9</title><g style="isolation:isolate"><path d="M294.3,87.66a16.14,16.14,0,0,1-16.13,16.14h-40.8a16.14,16.14,0,0,1-16.13-16.14h0a16.13,16.13,0,0,1,16.13-16.13h40.8A16.13,16.13,0,0,1,294.3,87.66Z" style="fill:#f2f2f2"/><path d="M377.64,165.56a16.13,16.13,0,0,1-16.13,16.13H293.89a16.13,16.13,0,0,1-16.13-16.13h0a16.13,16.13,0,0,1,16.13-16.13h67.62a16.13,16.13,0,0,1,16.13,16.13Z" style="fill:#f2f2f2"/><path d="M194.12,331.1S116.57,371,79,351.75,38,299,53.05,245.83s52.24-83.32,110-43.68S257.72,293.45,194.12,331.1Z" style="fill:#f2f2f2"/><path d="M187.92,297.78H162.47s2.77,21.12-14.85,25.34h55.15C185.15,318.9,187.92,297.78,187.92,297.78Z" style="fill:#999"/><rect x="147.62" y="323.12" width="54.14" height="3.84" style="fill:#e5e5e5"/><path d="M245,296.92a5.64,5.64,0,0,1-5.59,5.7H106.59a5.64,5.64,0,0,1-5.58-5.7V219.18a5.64,5.64,0,0,1,5.58-5.69H239.38a5.64,5.64,0,0,1,5.59,5.69Z" style="fill:#b3b3b3"/><rect x="101.01" y="220.96" width="143.96" height="70.8" style="fill:url(#a)"/><rect x="101.01" y="290.36" width="143.96" height="1.4" style="fill:#e5e5e5;mix-blend-mode:multiply"/><rect x="101.01" y="220.96" width="143.96" height="1.41" style="fill:#e5e5e5;mix-blend-mode:multiply"/><path d="M245,291.77v-29s-20.5,25.91-72,3-72,0-72,0v25.95Z" style="fill:#e5e5e5;opacity:0.1;mix-blend-mode:screen"/><path d="M162.59,302.62h25.22s.31,3.35.48,4.22l-28.13,6.21A21,21,0,0,0,162.59,302.62Z" style="fill:#828282"/><path d="M175.42,160.09a6.43,6.43,0,0,1-6.43,6.43H129a6.43,6.43,0,0,1-6.44-6.43V70.33A6.43,6.43,0,0,1,129,63.9h40a6.43,6.43,0,0,1,6.43,6.43Z" style="fill:gray"/><rect x="122.6" y="70.33" width="52.82" height="84.84" style="fill:url(#b)"/><path d="M122.6,70.33h52.82V86.16S168.15,97.41,149,90.49s-26.41,0-26.41,0Z" style="fill:#e5e5e5;opacity:0.1;mix-blend-mode:screen"/><rect x="122.6" y="70.33" width="52.82" height="1.2" style="fill:#ccc;mix-blend-mode:multiply"/><rect x="122.6" y="153.98" width="52.82" height="1.19" style="fill:#ccc;mix-blend-mode:multiply"/><path d="M154.76,159.91a2.39,2.39,0,0,1-2.39,2.39h-6.71a2.39,2.39,0,0,1-2.39-2.39h0a2.39,2.39,0,0,1,2.39-2.38h6.71a2.39,2.39,0,0,1,2.39,2.38Z" style="fill:#747474"/><path d="M152.37,161.4h-6.71a2.39,2.39,0,0,1-2.34-1.94,2.3,2.3,0,0,0,0,.45,2.39,2.39,0,0,0,2.39,2.39h6.71a2.39,2.39,0,0,0,2.39-2.39,2.3,2.3,0,0,0,0-.45A2.39,2.39,0,0,1,152.37,161.4Z" style="fill:#8e8e8e"/><path d="M132.42,68a1.23,1.23,0,1,1-1.23-1.23A1.22,1.22,0,0,1,132.42,68Z" style="fill:#4d4d4d"/><path d="M136.41,68.31a.9.9,0,1,1-.9-.9A.9.9,0,0,1,136.41,68.31Z" style="fill:#4d4d4d"/><path d="M162.78,400.26c-3.8-2.69-2.53-8-1.88-10a3.64,3.64,0,0,0-1.12-4.85c-2.34-1.73-5.82-1.73-9.3-1.73h0c-3.48,0-6.95,0-9.29,1.73a3.57,3.57,0,0,0-1.44,4.07h0a4.15,4.15,0,0,0,.2.53c.61,1.77,2.22,7.59-2,10.36a6.23,6.23,0,0,1-1.43.62h5.14a9.29,9.29,0,0,0,17.57,0h5.13A6.19,6.19,0,0,1,162.78,400.26Z" style="fill:#6731cf"/><path d="M138.17,444.35c3.81,2.69,2.54,8,1.89,10a3.64,3.64,0,0,0,1.12,4.85c2.34,1.72,5.82,1.73,9.3,1.73h0c3.48,0,7,0,9.29-1.73a3.58,3.58,0,0,0,1.44-4.08h0a4.81,4.81,0,0,0-.2-.53c-.61-1.77-2.22-7.59,2-10.35a5.83,5.83,0,0,1,1.43-.62h-5.14a9.29,9.29,0,0,0-17.57,0h-5.13A6,6,0,0,1,138.17,444.35Z" style="fill:#6731cf"/><path d="M133.68,423.38a2.48,2.48,0,0,1-2.48,2.48h0a2.48,2.48,0,0,1-2.48-2.48v-5a2.48,2.48,0,0,1,2.48-2.48h0a2.48,2.48,0,0,1,2.48,2.48Z" style="fill:#999"/><path d="M137.37,403H163.6a3.69,3.69,0,0,1,3.69,3.69v31.41a3.68,3.68,0,0,1-3.68,3.68H137.37a3.68,3.68,0,0,1-3.68-3.68V406.7A3.69,3.69,0,0,1,137.37,403Z" style="fill:url(#c)"/><path d="M163.6,443.82H137.37a5.72,5.72,0,0,1-5.71-5.72V406.7a5.72,5.72,0,0,1,5.71-5.72H163.6a5.72,5.72,0,0,1,5.71,5.72v31.4A5.72,5.72,0,0,1,163.6,443.82ZM137.37,405a1.66,1.66,0,0,0-1.66,1.66v31.4a1.66,1.66,0,0,0,1.66,1.66H163.6a1.66,1.66,0,0,0,1.66-1.66V406.7A1.66,1.66,0,0,0,163.6,405Z" style="fill:#ccc"/><path d="M163.6,405a2.1,2.1,0,0,1,.37,0A1.55,1.55,0,0,0,163.6,405Z" style="fill:url(#d)"/><path d="M150.48,422.4c-10.87-5.42-14.77,0-14.77,0v15.7a1.66,1.66,0,0,0,1.66,1.66H163.6a1.66,1.66,0,0,0,1.66-1.66V422.4S161.36,427.82,150.48,422.4Z" style="fill:#e5e5e5;opacity:0.2;mix-blend-mode:screen"/><path d="M135.71,406.7v.56a2.86,2.86,0,0,1,.38-1.6A1.64,1.64,0,0,0,135.71,406.7Z" style="fill:url(#e)"/><path d="M307,252.32h-3.41a.57.57,0,0,1,0-1.14H307a.57.57,0,1,1,0,1.14Zm-5.68,0h-3.4a.57.57,0,0,1,0-1.14h3.4a.57.57,0,0,1,0,1.14Zm-5.67,0h-3.41a.57.57,0,0,1,0-1.14h3.41a.57.57,0,0,1,0,1.14Zm-5.68,0h-3.4a.57.57,0,0,1,0-1.14h3.4a.57.57,0,1,1,0,1.14Zm-5.67,0h-3.41a.57.57,0,0,1,0-1.14h3.41a.57.57,0,0,1,0,1.14Zm-5.67,0h-3.41a.57.57,0,1,1,0-1.14h3.41a.57.57,0,0,1,0,1.14Zm-5.68,0h-3.4a.57.57,0,0,1,0-1.14h3.4a.57.57,0,0,1,0,1.14Zm-5.67,0h-3.41a.57.57,0,1,1,0-1.14h3.41a.57.57,0,0,1,0,1.14Zm-5.68,0h-3.4a.57.57,0,0,1,0-1.14h3.4a.57.57,0,1,1,0,1.14Zm-5.67,0h-3.41a.57.57,0,0,1,0-1.14h3.41a.57.57,0,0,1,0,1.14Z" style="fill:#f94f24"/><path d="M485.26,252.32h-3.4a.57.57,0,0,1,0-1.14h3.4a.57.57,0,0,1,0,1.14Zm-5.67,0h-3.41a.57.57,0,0,1,0-1.14h3.41a.57.57,0,0,1,0,1.14Zm-5.68,0h-3.4a.57.57,0,0,1,0-1.14h3.4a.57.57,0,1,1,0,1.14Zm-5.67,0h-3.41a.57.57,0,0,1,0-1.14h3.41a.57.57,0,0,1,0,1.14Zm-5.68,0h-3.4a.57.57,0,1,1,0-1.14h3.4a.57.57,0,1,1,0,1.14Zm-5.67,0h-3.4a.57.57,0,0,1,0-1.14h3.4a.57.57,0,0,1,0,1.14Zm-5.67,0h-3.41a.57.57,0,1,1,0-1.14h3.41a.57.57,0,0,1,0,1.14Zm-5.68,0h-3.4a.57.57,0,0,1,0-1.14h3.4a.57.57,0,1,1,0,1.14Zm-5.67,0h-3.41a.57.57,0,1,1,0-1.14h3.41a.57.57,0,0,1,0,1.14Zm-5.68,0h-3.4a.57.57,0,1,1,0-1.14h3.4a.57.57,0,1,1,0,1.14Zm-5.67,0h-2.68a.57.57,0,1,1,0-1.14h2.68a.57.57,0,0,1,0,1.14Z" style="fill:#f94f24"/><path d="M180.72,118.05a5.3,5.3,0,1,1-5.3-5.3A5.29,5.29,0,0,1,180.72,118.05Z" style="fill:#fff"/><path d="M175.42,124.47a6.43,6.43,0,1,1,6.43-6.42A6.43,6.43,0,0,1,175.42,124.47Zm0-10.58a4.16,4.16,0,1,0,4.16,4.16A4.16,4.16,0,0,0,175.42,113.89Z" style="fill:#f94f24"/><path d="M250.26,251.75a5.3,5.3,0,1,1-5.29-5.29A5.29,5.29,0,0,1,250.26,251.75Z" style="fill:#fff"/><path d="M245,258.18a6.43,6.43,0,1,1,6.43-6.43A6.43,6.43,0,0,1,245,258.18Zm0-10.59a4.16,4.16,0,1,0,4.16,4.16A4.16,4.16,0,0,0,245,247.59Z" style="fill:#f94f24"/><path d="M174.7,422.68a5.29,5.29,0,1,1-5.29-5.3A5.29,5.29,0,0,1,174.7,422.68Z" style="fill:#fff"/><path d="M169.41,429.11a6.43,6.43,0,1,1,6.43-6.43A6.43,6.43,0,0,1,169.41,429.11Zm0-10.59a4.16,4.16,0,1,0,4.16,4.16A4.17,4.17,0,0,0,169.41,418.52Z" style="fill:#f94f24"/><path d="M367.57,198.16a.57.57,0,0,1-.57-.56v-2.08a.57.57,0,0,1,1.14,0v2.08A.57.57,0,0,1,367.57,198.16Zm0-4.34a.57.57,0,0,1-.57-.57v-3.4a.57.57,0,0,1,1.14,0v3.4A.57.57,0,0,1,367.57,193.82Zm0-5.67a.58.58,0,0,1-.57-.57v-3.41a.57.57,0,0,1,1.14,0v3.41A.58.58,0,0,1,367.57,188.15Zm0-5.68a.57.57,0,0,1-.57-.57v-3.4a.57.57,0,0,1,1.14,0v3.4A.57.57,0,0,1,367.57,182.47Zm0-5.67a.58.58,0,0,1-.57-.57v-3.41a.57.57,0,0,1,1.14,0v3.41A.58.58,0,0,1,367.57,176.8Zm0-5.68a.57.57,0,0,1-.57-.57v-3.4a.57.57,0,0,1,1.14,0v3.4A.57.57,0,0,1,367.57,171.12Zm0-5.67a.58.58,0,0,1-.57-.57v-3.41a.57.57,0,0,1,1.14,0v3.41A.58.58,0,0,1,367.57,165.45Zm0-5.68a.57.57,0,0,1-.57-.56V155.8a.57.57,0,1,1,1.14,0v3.41A.57.57,0,0,1,367.57,159.77Zm0-5.67a.58.58,0,0,1-.57-.57v-1.36c0-.68,0-1.36,0-2a.56.56,0,0,1,.54-.59.55.55,0,0,1,.59.54c0,.68.05,1.37.05,2.07v1.36A.58.58,0,0,1,367.57,154.1Zm-.21-5.67a.57.57,0,0,1-.57-.51c-.12-1.13-.28-2.24-.49-3.3a.57.57,0,0,1,1.12-.22c.21,1.09.38,2.24.5,3.41a.56.56,0,0,1-.51.62Zm-1-5.56a.57.57,0,0,1-.55-.43,30.82,30.82,0,0,0-1-3.17.57.57,0,1,1,1.06-.4,32.19,32.19,0,0,1,1.06,3.28.57.57,0,0,1-.4.7Zm-1.93-5.32a.56.56,0,0,1-.52-.32,26.64,26.64,0,0,0-1.6-2.92.58.58,0,0,1,.18-.78.56.56,0,0,1,.78.18,30.69,30.69,0,0,1,1.67,3,.58.58,0,0,1-.27.76A.52.52,0,0,1,364.42,137.55Zm-2.92-4.84a.56.56,0,0,1-.45-.23,28.72,28.72,0,0,0-2.15-2.55.57.57,0,0,1,0-.8.56.56,0,0,1,.8,0A30.67,30.67,0,0,1,362,131.8a.58.58,0,0,1-.12.8A.6.6,0,0,1,361.5,132.71Zm-3.8-4.19a.54.54,0,0,1-.38-.15,29.74,29.74,0,0,0-2.59-2.11.57.57,0,0,1,.67-.92,34,34,0,0,1,2.68,2.19.57.57,0,0,1,0,.8A.55.55,0,0,1,357.7,128.52Zm-4.51-3.44a.58.58,0,0,1-.31-.08c-.92-.59-1.9-1.16-2.9-1.67a.57.57,0,1,1,.52-1c1,.53,2,1.11,3,1.72a.56.56,0,0,1-.3,1Zm-5-2.67a.69.69,0,0,1-.24,0c-1-.45-2.05-.87-3.12-1.25a.57.57,0,0,1-.34-.73.56.56,0,0,1,.72-.34c1.1.39,2.18.82,3.21,1.28a.57.57,0,0,1-.23,1.09Zm-5.33-2-.16,0c-1.07-.32-2.16-.61-3.26-.86a.57.57,0,0,1,.25-1.11c1.12.26,2.25.55,3.34.88a.57.57,0,0,1-.17,1.11Zm-5.53-1.32h-.1c-1.58-.28-2.77-.4-3.34-.45a.57.57,0,0,1,.1-1.13c.59,0,1.82.18,3.44.47a.55.55,0,0,1,.46.65A.57.57,0,0,1,337.33,119.11Zm-5.67-.5h-3.4a.57.57,0,1,1,0-1.13h3.4a.57.57,0,1,1,0,1.13Zm-5.67,0h-3.41a.57.57,0,0,1,0-1.13H326a.57.57,0,1,1,0,1.13Zm-5.67,0h-3.41a.57.57,0,1,1,0-1.13h3.41a.57.57,0,0,1,0,1.13Zm-5.68,0h-3.4a.57.57,0,1,1,0-1.13h3.4a.57.57,0,1,1,0,1.13Zm-5.67,0h-3.41a.57.57,0,1,1,0-1.13H309a.57.57,0,0,1,0,1.13Zm-5.68,0h-3.4a.57.57,0,1,1,0-1.13h3.4a.57.57,0,1,1,0,1.13Zm-5.67,0h-3.41a.57.57,0,1,1,0-1.13h3.41a.57.57,0,0,1,0,1.13Zm-5.68,0h-3.4a.57.57,0,1,1,0-1.13h3.4a.57.57,0,1,1,0,1.13Zm-5.67,0h-3.41a.57.57,0,1,1,0-1.13h3.41a.57.57,0,0,1,0,1.13Zm-5.68,0h-3.4a.57.57,0,1,1,0-1.13h3.4a.57.57,0,1,1,0,1.13Zm-5.67,0h-3.41a.57.57,0,0,1,0-1.13h3.41a.57.57,0,1,1,0,1.13Zm-5.68,0h-3.4a.57.57,0,1,1,0-1.13h3.4a.57.57,0,1,1,0,1.13Zm-5.67,0h-3.41a.57.57,0,0,1,0-1.13h3.41a.57.57,0,1,1,0,1.13Zm-5.68,0h-3.4a.57.57,0,1,1,0-1.13h3.4a.57.57,0,1,1,0,1.13Zm-5.67,0h-3.41a.57.57,0,0,1,0-1.13h3.41a.57.57,0,1,1,0,1.13Zm-5.68,0h-3.4a.57.57,0,1,1,0-1.13h3.4a.57.57,0,1,1,0,1.13Zm-5.67,0h-3.41a.57.57,0,0,1,0-1.13h3.41a.57.57,0,1,1,0,1.13Zm-5.67,0h-3.41a.57.57,0,1,1,0-1.13h3.41a.57.57,0,0,1,0,1.13Zm-5.68,0h-3.4a.57.57,0,1,1,0-1.13h3.4a.57.57,0,1,1,0,1.13Zm-5.67,0h-3.41a.57.57,0,1,1,0-1.13h3.41a.57.57,0,0,1,0,1.13Zm-5.68,0h-3.4a.57.57,0,1,1,0-1.13h3.4a.57.57,0,1,1,0,1.13Zm-5.67,0h-3.41a.57.57,0,1,1,0-1.13h3.41a.57.57,0,0,1,0,1.13Zm-5.68,0h-3.4a.57.57,0,1,1,0-1.13h3.4a.57.57,0,1,1,0,1.13Zm-5.67,0h-3.41a.57.57,0,1,1,0-1.13h3.41a.57.57,0,0,1,0,1.13Zm-5.68,0h-3.4a.57.57,0,1,1,0-1.13h3.4a.57.57,0,1,1,0,1.13Zm-5.67,0h-3.41a.57.57,0,0,1,0-1.13h3.41a.57.57,0,0,1,0,1.13Zm-5.68,0h-3.4a.57.57,0,1,1,0-1.13h3.4a.57.57,0,1,1,0,1.13Z" style="fill:#f94f24"/><path d="M331.33,424.09h-3.41a.57.57,0,1,1,0-1.13h3.41a.57.57,0,0,1,0,1.13Zm-5.68,0h-3.4a.57.57,0,1,1,0-1.13h3.4a.57.57,0,1,1,0,1.13Zm-5.67,0h-3.41a.57.57,0,1,1,0-1.13H320a.57.57,0,0,1,0,1.13Zm-5.68,0h-3.4a.57.57,0,1,1,0-1.13h3.4a.57.57,0,1,1,0,1.13Zm-5.67,0h-3.41a.57.57,0,1,1,0-1.13h3.41a.57.57,0,0,1,0,1.13Zm-5.68,0h-3.4a.57.57,0,1,1,0-1.13H303a.57.57,0,1,1,0,1.13Zm-5.67,0h-3.41a.57.57,0,1,1,0-1.13h3.41a.57.57,0,0,1,0,1.13Zm-5.68,0h-3.4a.57.57,0,1,1,0-1.13h3.4a.57.57,0,1,1,0,1.13Zm-5.67,0h-3.41a.57.57,0,1,1,0-1.13h3.41a.57.57,0,1,1,0,1.13Zm-5.68,0h-3.4a.57.57,0,1,1,0-1.13h3.4a.57.57,0,1,1,0,1.13Zm-5.67,0h-3.41a.57.57,0,0,1,0-1.13h3.41a.57.57,0,1,1,0,1.13Zm-5.68,0h-3.4a.57.57,0,1,1,0-1.13h3.4a.57.57,0,1,1,0,1.13Zm-5.67,0h-3.41a.57.57,0,0,1,0-1.13h3.41a.57.57,0,1,1,0,1.13Zm-5.68,0h-3.4a.57.57,0,1,1,0-1.13h3.4a.57.57,0,1,1,0,1.13Zm-5.67,0h-3.41a.57.57,0,0,1,0-1.13h3.41a.57.57,0,1,1,0,1.13Zm-5.68,0h-3.4a.57.57,0,1,1,0-1.13h3.4a.57.57,0,1,1,0,1.13Zm-5.67,0h-3.41a.57.57,0,0,1,0-1.13h3.41a.57.57,0,1,1,0,1.13Zm-5.67,0h-3.41a.57.57,0,1,1,0-1.13h3.41a.57.57,0,0,1,0,1.13Zm-5.68,0h-3.4a.57.57,0,1,1,0-1.13h3.4a.57.57,0,1,1,0,1.13Zm-5.67,0H220.1a.57.57,0,1,1,0-1.13h3.41a.57.57,0,0,1,0,1.13Zm-5.68,0h-3.4a.57.57,0,1,1,0-1.13h3.4a.57.57,0,1,1,0,1.13Zm-5.67,0h-3.41a.57.57,0,1,1,0-1.13h3.41a.57.57,0,0,1,0,1.13Zm-5.68,0h-3.4a.57.57,0,1,1,0-1.13h3.4a.57.57,0,1,1,0,1.13Zm-5.67,0H197.4a.57.57,0,1,1,0-1.13h3.41a.57.57,0,0,1,0,1.13Zm-5.68,0h-3.4a.57.57,0,1,1,0-1.13h3.4a.57.57,0,1,1,0,1.13Zm-5.67,0h-3.41a.57.57,0,0,1,0-1.13h3.41a.57.57,0,0,1,0,1.13Zm-5.68,0h-3.4a.57.57,0,1,1,0-1.13h3.4a.57.57,0,1,1,0,1.13Zm-5.67,0H174.7a.57.57,0,0,1,0-1.13h3.41a.57.57,0,1,1,0,1.13Zm155.49,0a.57.57,0,0,1,0-1.13c.33,0,1.58-.11,3.37-.32a.57.57,0,0,1,.63.5.56.56,0,0,1-.49.63c-1.83.21-3.1.3-3.45.32Zm5.67-.62a.56.56,0,0,1-.56-.48.57.57,0,0,1,.48-.65c1.12-.16,2.25-.35,3.34-.56a.57.57,0,0,1,.66.45.56.56,0,0,1-.45.66c-1.1.21-2.24.41-3.39.58Zm5.59-1a.57.57,0,0,1-.12-1.12c1.13-.25,2.23-.52,3.28-.81a.57.57,0,0,1,.31,1.09c-1.08.3-2.2.58-3.34.83Zm5.49-1.47a.56.56,0,0,1-.17-1.1c1.11-.36,2.18-.74,3.18-1.13a.57.57,0,0,1,.42,1c-1,.41-2.12.8-3.25,1.16A.55.55,0,0,1,350.35,421Zm5.31-2a.57.57,0,0,1-.23-1.08c1.05-.49,2.05-1,3-1.55a.56.56,0,0,1,.77.2.57.57,0,0,1-.2.78,33.89,33.89,0,0,1-3.07,1.6A.69.69,0,0,1,355.66,418.93Zm4.93-2.81a.55.55,0,0,1-.46-.24.57.57,0,0,1,.13-.79A19.27,19.27,0,0,0,362.8,413a.58.58,0,0,1,.81,0,.57.57,0,0,1,0,.8,21.47,21.47,0,0,1-2.68,2.24A.58.58,0,0,1,360.59,416.12Zm4.12-3.87a.55.55,0,0,1-.35-.12.56.56,0,0,1-.1-.79,14.11,14.11,0,0,0,1.67-2.79.55.55,0,0,1,.74-.29.56.56,0,0,1,.29.75,14.87,14.87,0,0,1-1.8,3A.59.59,0,0,1,364.71,412.25Zm2.46-5a.3.3,0,0,1-.13,0,.56.56,0,0,1-.42-.68,13.4,13.4,0,0,0,.38-3.19.59.59,0,0,1,.57-.58h0a.55.55,0,0,1,.57.55,14.14,14.14,0,0,1-.42,3.49A.56.56,0,0,1,367.17,407.21Zm.4-5.63A.57.57,0,0,1,367,401v-3.41a.57.57,0,0,1,1.14,0V401A.57.57,0,0,1,367.57,401.58Zm0-5.67a.57.57,0,0,1-.57-.57v-3.4a.57.57,0,0,1,1.14,0v3.4A.57.57,0,0,1,367.57,395.91Zm0-5.68a.57.57,0,0,1-.57-.56v-3.41a.57.57,0,0,1,1.14,0v3.41A.57.57,0,0,1,367.57,390.23Zm0-5.67A.57.57,0,0,1,367,384v-3.4a.57.57,0,0,1,1.14,0V384A.57.57,0,0,1,367.57,384.56Zm0-5.67a.58.58,0,0,1-.57-.57v-3.41a.57.57,0,0,1,1.14,0v3.41A.58.58,0,0,1,367.57,378.89Zm0-5.68a.57.57,0,0,1-.57-.57v-3.4a.57.57,0,0,1,1.14,0v3.4A.57.57,0,0,1,367.57,373.21Zm0-5.67A.58.58,0,0,1,367,367v-3.41a.57.57,0,0,1,1.14,0V367A.58.58,0,0,1,367.57,367.54Zm0-5.68a.57.57,0,0,1-.57-.57v-3.4a.57.57,0,0,1,1.14,0v3.4A.57.57,0,0,1,367.57,361.86Zm0-5.67a.58.58,0,0,1-.57-.57v-3.41a.57.57,0,0,1,1.14,0v3.41A.58.58,0,0,1,367.57,356.19Zm0-5.68a.57.57,0,0,1-.57-.57v-3.4a.57.57,0,0,1,1.14,0v3.4A.57.57,0,0,1,367.57,350.51Zm0-5.67a.58.58,0,0,1-.57-.57v-3.4a.57.57,0,0,1,1.14,0v3.4A.58.58,0,0,1,367.57,344.84Zm0-5.68a.57.57,0,0,1-.57-.57v-3.4a.57.57,0,0,1,1.14,0v3.4A.57.57,0,0,1,367.57,339.16Zm0-5.67a.58.58,0,0,1-.57-.57v-3.4a.57.57,0,0,1,1.14,0v3.4A.58.58,0,0,1,367.57,333.49Zm0-5.68a.57.57,0,0,1-.57-.56v-3.41a.57.57,0,0,1,1.14,0v3.41A.57.57,0,0,1,367.57,327.81Zm0-5.67a.58.58,0,0,1-.57-.57v-3.4a.57.57,0,0,1,1.14,0v3.4A.58.58,0,0,1,367.57,322.14Zm0-5.68a.57.57,0,0,1-.57-.56v-3.41a.57.57,0,0,1,1.14,0v3.41A.57.57,0,0,1,367.57,316.46Zm0-5.67a.57.57,0,0,1-.57-.57v-3.4a.57.57,0,0,1,1.14,0v3.4A.57.57,0,0,1,367.57,310.79Zm0-5.68a.57.57,0,0,1-.57-.56v-.17a.57.57,0,0,1,1.14,0v.17A.57.57,0,0,1,367.57,305.11Z" style="fill:#f94f24"/><path d="M384.08,266.46a4.43,4.43,0,0,1-3.3-1.37c-.08-.09-.14-.09-.24,0l-8.9,5.14-1,.56a.14.14,0,0,0-.07.19,4.08,4.08,0,0,1,.18,1.55,4.31,4.31,0,0,1-1.65,3.15,4.21,4.21,0,0,1-2.27.94A4.39,4.39,0,0,1,362,272a8.36,8.36,0,0,1,.14-.85c0-.1,0-.15-.08-.2l-5.7-3.29-4.18-2.41c-.18-.11-.18-.11-.32,0a4.39,4.39,0,0,1-7.35-2.31,4.38,4.38,0,0,1,2.9-5,1.09,1.09,0,0,1,.24-.07c.12,0,.15-.08.14-.19v-4.58c0-2.28,0-4.57,0-6.85,0-.14,0-.19-.18-.23a4.26,4.26,0,0,1-3.14-3.53,4.33,4.33,0,0,1,3.42-5,4.24,4.24,0,0,1,4,1.18c.09.08.14.09.24,0L362,233c.21-.12.21-.12.15-.36a4.38,4.38,0,1,1,8.55-1.9,4.23,4.23,0,0,1-.06,2,.17.17,0,0,0,.1.23l8.87,5.12,1.06.61c.09,0,.14,0,.21,0a4.22,4.22,0,0,1,2.49-1.25,4.29,4.29,0,0,1,3.28.86,4.14,4.14,0,0,1,1.66,2.78,4.29,4.29,0,0,1-1.92,4.36,3.65,3.65,0,0,1-1.24.56c-.13,0-.16.1-.16.23v11.41c0,.12,0,.18.15.21a4.26,4.26,0,0,1,3.14,3.41,4.35,4.35,0,0,1-3.41,5.1A5.92,5.92,0,0,1,384.08,266.46Zm-17.68-5.41h13.14c.12,0,.17,0,.2-.15a4.25,4.25,0,0,1,1.11-1.91c.08-.07.08-.13,0-.23-.55-.94-1.1-1.89-1.64-2.84l-5.12-8.85L367.73,236c-.07-.12-.12-.15-.26-.12a4.35,4.35,0,0,1-2.12,0c-.19,0-.19,0-.29.12l-7,12.05q-3.09,5.35-6.19,10.72c-.05.09,0,.14,0,.22a4.12,4.12,0,0,1,1.09,1.88.2.2,0,0,0,.23.17Zm0,2.07H353.23c-.07,0-.14,0-.17.09s0,.13.1.17l2.33,1.34,7.57,4.38c.17.09.17.09.31,0a4.29,4.29,0,0,1,3.68-1.17,4.18,4.18,0,0,1,2.49,1.28.17.17,0,0,0,.25,0l8-4.65,1.83-1.06s.11-.06.11-.11a.23.23,0,0,0-.24-.27Zm-16.54-11.2v5.76c0,.08,0,.14.1.17s.14,0,.18-.1l6-10.45,4.06-7c1-1.78,2-3.55,3.08-5.33,0-.07.08-.13,0-.2s-.13-.05-.2,0l-4.27,2.47-5.69,3.29c-.09,0-.12.09-.09.2a4,4,0,0,1,.07,1.85,4.31,4.31,0,0,1-3.05,3.44c-.24.07-.22,0-.22.29Zm33.07,0v-5.66c0-.29,0-.23-.22-.31a4.38,4.38,0,0,1-3-5.21c.05-.2.05-.2-.12-.3l-8.07-4.66-1.85-1.07c-.08,0-.13,0-.2,0s0,.13,0,.19q1.11,1.91,2.2,3.81l4.8,8.31,4.34,7.52,1.83,3.17c0,.1.11.12.2.08s.07-.11.07-.18Z" style="fill:#db34a7;fill-rule:evenodd"/><path d="M366.39,280.65a28.72,28.72,0,1,1,28.72-28.72A28.76,28.76,0,0,1,366.39,280.65Zm0-54.92a26.2,26.2,0,1,0,26.2,26.2A26.23,26.23,0,0,0,366.39,225.73Z" style="fill:#db34a7"/><path d="M366.37,306.47c-1.14,0-2.29,0-3.44-.11a.57.57,0,0,1-.53-.6.59.59,0,0,1,.6-.53c1.12.07,2.25.1,3.37.1a.57.57,0,0,1,0,1.14Zm2.27-.05a.57.57,0,0,1-.57-.54.56.56,0,0,1,.55-.59c1.11-.05,2.24-.13,3.35-.24a.56.56,0,1,1,.12,1.12c-1.14.12-2.29.21-3.43.25Zm-7.93-.25h-.06c-1.14-.12-2.29-.28-3.41-.46a.57.57,0,0,1-.46-.66.56.56,0,0,1,.65-.46c1.1.18,2.22.33,3.34.45a.56.56,0,0,1,.5.62A.56.56,0,0,1,360.71,306.17Zm13.57-.27a.58.58,0,0,1-.56-.49.57.57,0,0,1,.48-.64c1.12-.16,2.23-.36,3.32-.59a.57.57,0,0,1,.23,1.11c-1.11.23-2.25.44-3.38.6Zm-19.17-.61H355c-1.12-.24-2.24-.52-3.34-.82a.57.57,0,0,1,.3-1.1c1.08.3,2.18.57,3.27.81a.57.57,0,0,1-.11,1.12Zm24.73-.51a.58.58,0,0,1-.55-.42.57.57,0,0,1,.41-.69c1.08-.28,2.17-.59,3.24-.94a.57.57,0,0,1,.35,1.08c-1.1.36-2.21.68-3.31,1Zm-30.21-1-.18,0c-1.08-.35-2.17-.74-3.24-1.16a.57.57,0,0,1,.42-1.06c1,.41,2.11.8,3.18,1.14a.58.58,0,0,1,.36.72A.57.57,0,0,1,349.63,303.82Zm35.63-.73a.57.57,0,0,1-.2-1.1c1-.38,2.09-.81,3.11-1.27a.57.57,0,0,1,.46,1c-1,.47-2.11.9-3.18,1.3A.63.63,0,0,1,385.26,303.09Zm-40.93-1.31a.46.46,0,0,1-.23,0c-1.05-.47-2.1-1-3.1-1.5a.57.57,0,0,1,.52-1c1,.52,2,1,3,1.48a.56.56,0,0,1-.23,1.08Zm46.12-.94a.56.56,0,0,1-.25-1.07c1-.5,2-1,3-1.59a.57.57,0,1,1,.57,1c-1,.57-2,1.12-3,1.63A.53.53,0,0,1,390.45,300.84Zm-51.18-1.64a.57.57,0,0,1-.28-.08c-1-.57-2-1.18-2.92-1.82a.57.57,0,1,1,.63-.94c.93.62,1.9,1.22,2.86,1.78a.56.56,0,0,1,.2.77A.56.56,0,0,1,339.27,299.2Zm56.11-1.14a.55.55,0,0,1-.47-.26.56.56,0,0,1,.17-.78c.95-.61,1.89-1.24,2.78-1.9a.58.58,0,0,1,.8.13.57.57,0,0,1-.13.79c-.92.67-1.87,1.32-2.84,1.93A.51.51,0,0,1,395.38,298.06Zm-60.86-2a.57.57,0,0,1-.33-.11c-.93-.68-1.85-1.39-2.72-2.12a.56.56,0,0,1-.07-.79.55.55,0,0,1,.79-.08c.86.71,1.75,1.41,2.66,2.07a.57.57,0,0,1-.33,1ZM400,294.78a.54.54,0,0,1-.44-.22.56.56,0,0,1,.09-.79c.88-.7,1.74-1.43,2.57-2.18a.56.56,0,0,1,.8.05.57.57,0,0,1,0,.8c-.84.76-1.73,1.51-2.62,2.22A.6.6,0,0,1,400,294.78Zm-69.88-2.26a.54.54,0,0,1-.38-.15c-.85-.76-1.68-1.56-2.48-2.38a.57.57,0,0,1,.81-.79c.78.8,1.6,1.58,2.43,2.33a.57.57,0,0,1,0,.8A.55.55,0,0,1,330.12,292.52ZM404.26,291a.58.58,0,0,1-.41-.17.57.57,0,0,1,0-.8c.8-.79,1.59-1.6,2.33-2.43a.58.58,0,0,1,.81,0,.57.57,0,0,1,0,.8c-.76.84-1.57,1.68-2.39,2.48A.54.54,0,0,1,404.26,291Zm-78.15-2.52a.59.59,0,0,1-.42-.19c-.77-.85-1.51-1.74-2.22-2.63a.58.58,0,0,1,.09-.8.57.57,0,0,1,.8.1c.69.87,1.42,1.74,2.17,2.57a.57.57,0,0,1,0,.8A.55.55,0,0,1,326.11,288.51Zm82-1.65a.53.53,0,0,1-.36-.13.57.57,0,0,1-.08-.8c.72-.86,1.41-1.76,2.07-2.66a.57.57,0,0,1,.92.67c-.67.92-1.39,1.84-2.11,2.72A.6.6,0,0,1,408.1,286.86Zm-85.56-2.76a.54.54,0,0,1-.45-.24c-.68-.92-1.33-1.88-1.94-2.84a.57.57,0,0,1,1-.61c.6.95,1.24,1.88,1.89,2.79a.56.56,0,0,1-.12.79A.6.6,0,0,1,322.54,284.1Zm88.95-1.79a.57.57,0,0,1-.47-.88c.61-.93,1.21-1.89,1.78-2.87a.57.57,0,0,1,1,.57c-.58,1-1.19,2-1.82,2.93A.57.57,0,0,1,411.49,282.31Zm-92-3a.56.56,0,0,1-.49-.29c-.58-1-1.12-2-1.62-3a.57.57,0,1,1,1-.51c.5,1,1,2,1.59,3a.56.56,0,0,1-.2.77A.6.6,0,0,1,319.46,279.35Zm94.92-1.92a.51.51,0,0,1-.26-.07.56.56,0,0,1-.24-.76c.52-1,1-2,1.47-3a.58.58,0,0,1,.75-.29.57.57,0,0,1,.29.75c-.46,1-1,2.09-1.5,3.1A.56.56,0,0,1,414.38,277.43Zm-97.49-3.13a.56.56,0,0,1-.52-.34c-.46-1-.9-2.11-1.29-3.18a.56.56,0,1,1,1.06-.39c.39,1,.82,2.09,1.27,3.11a.56.56,0,0,1-.29.75A.46.46,0,0,1,316.89,274.3Zm99.86-2a.52.52,0,0,1-.21,0,.55.55,0,0,1-.31-.73c.41-1.05.8-2.12,1.14-3.18a.57.57,0,0,1,1.08.36c-.35,1.08-.75,2.17-1.17,3.24A.56.56,0,0,1,416.75,272.26ZM314.87,269a.56.56,0,0,1-.54-.39c-.36-1.09-.68-2.2-1-3.31a.57.57,0,1,1,1.1-.27c.28,1.08.59,2.17.94,3.23a.57.57,0,0,1-.37.71Zm103.69-2.13a.39.39,0,0,1-.15,0,.55.55,0,0,1-.39-.69c.3-1.09.57-2.19.8-3.28a.57.57,0,0,1,.67-.43.56.56,0,0,1,.44.67c-.24,1.11-.51,2.23-.82,3.34A.57.57,0,0,1,418.56,266.88Zm-105.15-3.35a.57.57,0,0,1-.56-.45c-.23-1.11-.44-2.25-.6-3.38a.57.57,0,0,1,.48-.65.57.57,0,0,1,.64.48c.16,1.11.36,2.23.59,3.32a.56.56,0,0,1-.44.67Zm106.39-2.18h-.1a.55.55,0,0,1-.46-.65c.18-1.11.33-2.23.45-3.34a.56.56,0,0,1,.62-.5.57.57,0,0,1,.51.62c-.12,1.13-.28,2.28-.46,3.41A.58.58,0,0,1,419.8,261.35Zm-107.27-3.42a.56.56,0,0,1-.56-.51c-.12-1.13-.2-2.28-.25-3.43a.57.57,0,0,1,.54-.59.59.59,0,0,1,.59.55c0,1.12.13,2.25.24,3.35a.57.57,0,0,1-.5.63Zm107.91-2.21h0a.57.57,0,0,1-.54-.61c.07-1.1.11-2.24.11-3.36a.57.57,0,1,1,1.13,0c0,1.15,0,2.3-.1,3.43A.57.57,0,0,1,420.44,255.72Zm-108.2-3.45h0a.58.58,0,0,1-.57-.57c0-1.15,0-2.31.11-3.44a.58.58,0,0,1,.61-.53.57.57,0,0,1,.53.6c-.07,1.11-.11,2.24-.11,3.37A.57.57,0,0,1,312.24,252.27Zm108.26-2.13a.55.55,0,0,1-.56-.54c-.05-1.12-.13-2.25-.24-3.36a.57.57,0,0,1,1.13-.12c.11,1.13.19,2.29.24,3.43a.56.56,0,0,1-.54.59Zm-108-3.54h-.06a.56.56,0,0,1-.5-.62c.11-1.13.27-2.28.46-3.41a.56.56,0,0,1,.66-.46.57.57,0,0,1,.46.65c-.19,1.11-.34,2.23-.46,3.34A.56.56,0,0,1,312.54,246.6ZM420,244.5a.59.59,0,0,1-.57-.49c-.16-1.11-.35-2.22-.58-3.31a.57.57,0,0,1,.44-.68.58.58,0,0,1,.67.44c.23,1.12.43,2.26.6,3.39a.57.57,0,0,1-.48.64ZM313.43,241h-.12a.56.56,0,0,1-.44-.67c.24-1.11.51-2.24.82-3.34a.57.57,0,0,1,1.09.31c-.3,1.08-.57,2.18-.8,3.27A.57.57,0,0,1,313.43,241Zm105.45-2.06a.56.56,0,0,1-.55-.43c-.28-1.08-.59-2.17-.93-3.24a.56.56,0,0,1,.36-.71.57.57,0,0,1,.72.37c.35,1.08.67,2.2.95,3.3a.57.57,0,0,1-.41.69Zm-104-3.41-.17,0a.57.57,0,0,1-.36-.72c.35-1.08.74-2.17,1.17-3.24a.57.57,0,0,1,1.05.42c-.42,1-.8,2.12-1.15,3.18A.56.56,0,0,1,314.89,235.53Zm102.31-2a.58.58,0,0,1-.54-.37c-.38-1.05-.81-2.09-1.26-3.11a.57.57,0,1,1,1-.46c.46,1,.89,2.11,1.29,3.18a.57.57,0,0,1-.34.73A.63.63,0,0,1,417.2,233.52Zm-100.26-3.29a.59.59,0,0,1-.23,0,.57.57,0,0,1-.29-.75c.47-1,1-2.09,1.5-3.1a.58.58,0,0,1,.77-.24.57.57,0,0,1,.24.77c-.52,1-1,2-1.48,3A.56.56,0,0,1,316.94,230.23Zm98-1.9a.57.57,0,0,1-.5-.32c-.5-1-1-2-1.59-3a.56.56,0,1,1,1-.56c.57,1,1.12,2,1.62,3a.56.56,0,0,1-.25.76A.58.58,0,0,1,415,228.33Zm-95.42-3.16a.59.59,0,0,1-.29-.07.57.57,0,0,1-.2-.78c.57-1,1.18-2,1.82-2.92a.56.56,0,0,1,.78-.16.58.58,0,0,1,.16.79c-.62.93-1.22,1.89-1.78,2.86A.58.58,0,0,1,319.53,225.17Zm92.65-1.78a.57.57,0,0,1-.48-.27c-.59-.94-1.23-1.87-1.89-2.78a.57.57,0,0,1,.13-.79.56.56,0,0,1,.79.12c.68.93,1.32,1.89,1.93,2.85a.56.56,0,0,1-.18.78A.53.53,0,0,1,412.18,223.39Zm-89.55-3a.53.53,0,0,1-.34-.11.56.56,0,0,1-.12-.79c.67-.92,1.38-1.83,2.11-2.72a.57.57,0,0,1,.88.73c-.72.87-1.42,1.76-2.07,2.66A.58.58,0,0,1,322.63,220.42Zm86.27-1.66a.56.56,0,0,1-.44-.21c-.7-.88-1.42-1.74-2.17-2.58a.57.57,0,0,1,0-.8.56.56,0,0,1,.8.05c.77.85,1.51,1.73,2.22,2.63a.56.56,0,0,1-.1.79A.55.55,0,0,1,408.9,218.76ZM326.21,216a.57.57,0,0,1-.42-1c.76-.85,1.57-1.68,2.38-2.48a.57.57,0,0,1,.79.82c-.79.77-1.58,1.59-2.33,2.42A.55.55,0,0,1,326.21,216Zm79-1.51a.53.53,0,0,1-.4-.18c-.79-.8-1.6-1.58-2.43-2.33a.57.57,0,0,1,0-.8.56.56,0,0,1,.8,0c.85.76,1.68,1.56,2.48,2.38a.57.57,0,0,1,0,.8A.58.58,0,0,1,405.16,214.51ZM330.22,212a.59.59,0,0,1-.42-.19.57.57,0,0,1,0-.8c.85-.77,1.74-1.51,2.63-2.22a.57.57,0,0,1,.8.09.58.58,0,0,1-.09.8c-.88.69-1.75,1.42-2.58,2.17A.55.55,0,0,1,330.22,212ZM401,210.66a.64.64,0,0,1-.37-.13c-.86-.72-1.75-1.42-2.65-2.08a.56.56,0,0,1-.13-.79.57.57,0,0,1,.8-.12c.92.67,1.83,1.38,2.71,2.11a.57.57,0,0,1,.07.8A.54.54,0,0,1,401,210.66Zm-66.37-2.21a.58.58,0,0,1-.46-.23.56.56,0,0,1,.13-.79c.92-.67,1.88-1.32,2.84-1.93a.58.58,0,0,1,.79.17.59.59,0,0,1-.18.79c-.95.59-1.88,1.23-2.79,1.88A.51.51,0,0,1,334.63,208.45Zm61.82-1.19a.62.62,0,0,1-.32-.09c-.93-.63-1.89-1.23-2.86-1.79a.57.57,0,0,1,.57-1c1,.57,2,1.18,2.92,1.82a.57.57,0,0,1,.16.79A.57.57,0,0,1,396.45,207.26Zm-57.06-1.89a.57.57,0,0,1-.29-1.06c1-.57,2-1.12,3-1.62a.57.57,0,1,1,.5,1c-1,.49-2,1-3,1.58A.5.5,0,0,1,339.39,205.37Zm52.18-1a.48.48,0,0,1-.26-.07c-1-.52-2-1-3-1.47a.57.57,0,0,1,.47-1c1,.47,2.09,1,3.1,1.51a.57.57,0,0,1-.27,1.07Zm-47.14-1.56a.56.56,0,0,1-.23-1.08c1-.47,2.11-.9,3.18-1.3a.56.56,0,0,1,.73.34.57.57,0,0,1-.33.73c-1,.38-2.1.81-3.12,1.26A.46.46,0,0,1,344.43,202.8Zm42-.82a.52.52,0,0,1-.21,0c-1-.41-2.1-.8-3.17-1.14a.57.57,0,0,1-.36-.72.55.55,0,0,1,.71-.36c1.09.35,2.18.75,3.24,1.17a.57.57,0,0,1,.32.74A.56.56,0,0,1,386.41,202Zm-36.69-1.2a.57.57,0,0,1-.17-1.11c1.09-.35,2.2-.67,3.3-.95a.56.56,0,0,1,.69.41.57.57,0,0,1-.41.69c-1.07.27-2.16.58-3.23.93A.57.57,0,0,1,349.72,200.78Zm31.31-.61-.15,0c-1.08-.31-2.18-.58-3.27-.81a.57.57,0,1,1,.24-1.11c1.11.24,2.24.51,3.34.82a.57.57,0,0,1-.16,1.12Zm-25.83-.85a.57.57,0,0,1-.12-1.12c1.12-.23,2.25-.44,3.39-.6a.57.57,0,0,1,.16,1.12c-1.11.16-2.22.36-3.31.59Zm20.3-.39h-.09c-1.1-.19-2.22-.34-3.34-.46a.56.56,0,0,1-.5-.62.58.58,0,0,1,.62-.51c1.14.12,2.29.28,3.41.47a.57.57,0,0,1,.46.66A.58.58,0,0,1,375.5,198.93Zm-14.7-.48a.57.57,0,0,1-.56-.51.56.56,0,0,1,.51-.62c1.14-.12,2.29-.2,3.43-.25h0a.58.58,0,0,1,.57.55.57.57,0,0,1-.55.59c-1.11,0-2.24.12-3.36.24Zm9.07-.18h0c-1.11-.07-2.24-.1-3.36-.11a.56.56,0,0,1-.57-.56.57.57,0,0,1,.57-.57h0c1.14,0,2.3,0,3.44.11a.58.58,0,0,1,.53.6A.57.57,0,0,1,369.87,198.27Z" style="fill:#f94f24"/><path d="M317.54,251.75a5.3,5.3,0,1,1-5.3-5.29A5.3,5.3,0,0,1,317.54,251.75Z" style="fill:#fff"/><path d="M312.24,258.18a6.43,6.43,0,1,1,6.43-6.43A6.44,6.44,0,0,1,312.24,258.18Zm0-10.59a4.16,4.16,0,1,0,4.16,4.16A4.17,4.17,0,0,0,312.24,247.59Z" style="fill:#f94f24"/><path d="M425.84,251.75a5.3,5.3,0,1,1-5.29-5.29A5.29,5.29,0,0,1,425.84,251.75Z" style="fill:#fff"/><path d="M420.55,258.18a6.43,6.43,0,1,1,6.42-6.43A6.43,6.43,0,0,1,420.55,258.18Zm0-10.59a4.16,4.16,0,1,0,4.15,4.16A4.16,4.16,0,0,0,420.55,247.59Z" style="fill:#f94f24"/><path d="M436.45,65.9a26.84,26.84,0,1,1-26.84-26.84A26.84,26.84,0,0,1,436.45,65.9Z" style="fill:#f2f2f2"/><path d="M566.5,370.77A45.73,45.73,0,1,1,520.77,325,45.72,45.72,0,0,1,566.5,370.77Z" style="fill:#f2f2f2"/><rect x="475.04" y="115.21" width="141.74" height="34.21" rx="16.14" ry="16.14" style="fill:#f2f2f2"/><circle cx="625.51" cy="248.66" r="106.93" transform="translate(7.38 515.13) rotate(-45)" style="fill:url(#f)"/><path d="M626.41,379.34a.57.57,0,1,1,0-1.13c1.13,0,2.26,0,3.38-.07a.58.58,0,0,1,.59.55.57.57,0,0,1-.55.58c-1.13,0-2.27.06-3.42.07Zm-2.27,0h0c-1.14,0-2.28,0-3.41-.08a.57.57,0,0,1,0-1.14c1.12,0,2.25.07,3.39.08a.57.57,0,0,1,0,1.14Zm7.94-.16a.56.56,0,0,1-.56-.54.57.57,0,0,1,.53-.6c1.14-.05,2.26-.12,3.39-.21a.57.57,0,1,1,.08,1.13c-1.13.09-2.27.16-3.41.22Zm-13.61,0h0c-1.15-.06-2.28-.13-3.42-.22a.58.58,0,0,1-.52-.61.56.56,0,0,1,.61-.52c1.13.08,2.26.16,3.39.22a.57.57,0,0,1,0,1.14Zm19.27-.39a.56.56,0,0,1-.56-.51.57.57,0,0,1,.51-.62c1.13-.11,2.25-.23,3.37-.36a.56.56,0,0,1,.63.49.57.57,0,0,1-.49.64c-1.13.13-2.27.25-3.41.36Zm-24.93,0h-.06c-1.13-.11-2.27-.23-3.4-.37a.57.57,0,0,1-.49-.64.56.56,0,0,1,.63-.49c1.12.14,2.25.27,3.37.38a.55.55,0,0,1,.51.61A.56.56,0,0,1,612.81,378.73Zm30.57-.61a.57.57,0,0,1-.08-1.13c1.13-.16,2.24-.33,3.36-.51a.57.57,0,1,1,.18,1.12c-1.12.18-2.25.36-3.38.51Zm-36.21-.07h-.08c-1.13-.16-2.26-.34-3.38-.53a.56.56,0,0,1-.46-.65.58.58,0,0,1,.65-.47c1.11.19,2.23.36,3.35.52a.57.57,0,0,1,.48.65A.56.56,0,0,1,607.17,378.05Zm41.81-.83a.57.57,0,0,1-.55-.47.56.56,0,0,1,.45-.66c1.12-.2,2.22-.42,3.33-.66a.57.57,0,0,1,.67.44.56.56,0,0,1-.44.67c-1.11.24-2.23.46-3.35.67Zm-47.41-.09h-.1c-1.13-.21-2.24-.43-3.36-.67a.57.57,0,0,1,.24-1.11c1.1.24,2.21.46,3.33.67a.56.56,0,0,1-.11,1.12Zm53-1.06a.57.57,0,0,1-.13-1.12c1.11-.26,2.21-.52,3.3-.81a.57.57,0,0,1,.69.41.55.55,0,0,1-.41.69c-1.1.29-2.21.56-3.32.81ZM596,376h-.13c-1.11-.26-2.22-.54-3.32-.82a.57.57,0,1,1,.29-1.1c1.09.28,2.18.55,3.29.81a.57.57,0,0,1,.42.68A.56.56,0,0,1,596,376Zm64-1.28a.57.57,0,0,1-.15-1.12c1.09-.3,2.18-.62,3.26-.95a.57.57,0,1,1,.33,1.09c-1.09.33-2.18.65-3.28,1Zm-69.52-.13-.15,0c-1.1-.31-2.2-.63-3.28-1a.57.57,0,0,1-.38-.71.56.56,0,0,1,.71-.37c1.08.33,2.16.65,3.25,1a.56.56,0,0,1-.15,1.11Zm75-1.51a.57.57,0,0,1-.54-.39.58.58,0,0,1,.36-.72c1.08-.35,2.15-.71,3.21-1.09a.58.58,0,0,1,.73.35.57.57,0,0,1-.35.72c-1.07.38-2.15.75-3.23,1.1Zm-80.4-.15a.47.47,0,0,1-.17,0c-1.09-.36-2.18-.73-3.25-1.12a.57.57,0,0,1,.38-1.07c1.07.38,2.14.75,3.22,1.11a.56.56,0,0,1,.36.71A.57.57,0,0,1,585.08,372.89Zm85.76-1.72a.57.57,0,0,1-.2-1.1c1.06-.4,2.11-.81,3.16-1.23a.57.57,0,0,1,.74.31.58.58,0,0,1-.32.74c-1.05.43-2.11.84-3.18,1.24A.51.51,0,0,1,670.84,371.17ZM579.71,371l-.2,0c-1.07-.41-2.13-.83-3.19-1.26A.57.57,0,0,1,576,369a.58.58,0,0,1,.74-.31c1,.43,2.1.84,3.16,1.25a.55.55,0,0,1,.33.73A.56.56,0,0,1,579.71,371Zm96.39-1.93a.57.57,0,0,1-.22-1.09c1-.44,2.06-.89,3.09-1.36a.57.57,0,1,1,.47,1q-1.55.71-3.12,1.38A.57.57,0,0,1,676.1,369.06Zm-101.66-.2a.64.64,0,0,1-.23-.05c-1.05-.45-2.09-.92-3.13-1.4a.56.56,0,0,1-.27-.75.57.57,0,0,1,.75-.28c1,.48,2.06.94,3.1,1.39a.57.57,0,0,1,.3.75A.57.57,0,0,1,574.44,368.86Zm106.81-2.13a.57.57,0,0,1-.51-.32.58.58,0,0,1,.27-.76c1-.48,2-1,3-1.5a.57.57,0,0,1,.76.25.56.56,0,0,1-.24.76c-1,.52-2,1-3.06,1.52A.74.74,0,0,1,681.25,366.73Zm-112-.24a.64.64,0,0,1-.24-.05c-1-.5-2.06-1-3.07-1.54a.56.56,0,0,1-.24-.76.57.57,0,0,1,.76-.25c1,.52,2,1,3,1.52a.57.57,0,0,1,.26.76A.55.55,0,0,1,569.26,366.49Zm117-2.32a.55.55,0,0,1-.5-.3.56.56,0,0,1,.24-.76c1-.54,2-1.08,3-1.64a.57.57,0,0,1,.56,1c-1,.56-2,1.11-3,1.65A.63.63,0,0,1,686.3,364.17Zm-122.1-.27a.54.54,0,0,1-.27-.07c-1-.54-2-1.1-3-1.66a.57.57,0,0,1,.56-1q1.47.84,3,1.65a.57.57,0,0,1-.27,1.07Zm127-2.5a.55.55,0,0,1-.49-.28.57.57,0,0,1,.2-.78c1-.57,1.93-1.16,2.89-1.76a.57.57,0,0,1,.6,1c-1,.61-1.93,1.2-2.91,1.78A.6.6,0,0,1,691.24,361.4Zm-132-.31A.6.6,0,0,1,559,361c-1-.59-2-1.19-2.92-1.8a.57.57,0,0,1-.17-.78.56.56,0,0,1,.78-.18c1,.61,1.92,1.2,2.89,1.78a.57.57,0,0,1-.29,1.06Zm136.79-2.68a.59.59,0,0,1-.48-.26.58.58,0,0,1,.17-.79c.94-.61,1.88-1.24,2.81-1.89a.57.57,0,0,1,.79.15.57.57,0,0,1-.15.79c-.93.65-1.88,1.28-2.83,1.9A.52.52,0,0,1,696.05,358.41Zm-141.61-.35a.61.61,0,0,1-.31-.09c-1-.63-1.89-1.27-2.83-1.92a.57.57,0,0,1,.65-.93c.93.64,1.86,1.28,2.81,1.9a.57.57,0,0,1-.32,1Zm146.28-2.86a.58.58,0,0,1-.46-.23.57.57,0,0,1,.13-.79q1.38-1,2.73-2a.55.55,0,0,1,.79.11.56.56,0,0,1-.1.79c-.91.69-1.83,1.36-2.75,2A.61.61,0,0,1,700.72,355.2Zm-151-.37a.52.52,0,0,1-.33-.11c-.92-.67-1.84-1.35-2.75-2a.58.58,0,0,1-.1-.8.56.56,0,0,1,.79-.1c.9.68,1.81,1.36,2.73,2a.57.57,0,0,1,.12.8A.56.56,0,0,1,549.77,354.83Zm155.49-3a.58.58,0,0,1-.45-.22.56.56,0,0,1,.1-.79c.88-.7,1.76-1.41,2.63-2.13a.57.57,0,0,1,.73.87c-.88.73-1.77,1.44-2.66,2.15A.59.59,0,0,1,705.26,351.8Zm-160-.4a.6.6,0,0,1-.36-.12c-.89-.71-1.77-1.43-2.65-2.17a.57.57,0,0,1,.73-.87c.87.73,1.74,1.44,2.63,2.15a.55.55,0,0,1,.09.79A.54.54,0,0,1,545.25,351.4Zm164.39-3.2a.57.57,0,0,1-.37-1c.86-.73,1.7-1.48,2.54-2.24a.57.57,0,0,1,.8,0,.56.56,0,0,1,0,.8c-.84.77-1.7,1.52-2.56,2.26A.54.54,0,0,1,709.64,348.2Zm-168.76-.43a.52.52,0,0,1-.37-.14c-.87-.74-1.72-1.5-2.56-2.27a.57.57,0,0,1,0-.8.58.58,0,0,1,.81,0c.83.76,1.68,1.51,2.53,2.26a.56.56,0,0,1-.37,1Zm173-3.36a.57.57,0,0,1-.39-1c.83-.77,1.64-1.56,2.45-2.35a.57.57,0,1,1,.79.81q-1.22,1.2-2.46,2.37A.58.58,0,0,1,713.86,344.41ZM536.67,344a.54.54,0,0,1-.39-.16c-.83-.78-1.64-1.58-2.45-2.38a.57.57,0,0,1,0-.8.55.55,0,0,1,.8,0c.8.79,1.61,1.58,2.43,2.36a.57.57,0,0,1-.39,1Zm181.24-3.52a.54.54,0,0,1-.39-.16.56.56,0,0,1,0-.8q1.18-1.22,2.34-2.46a.57.57,0,0,1,.83.77c-.78.84-1.56,1.66-2.36,2.48A.58.58,0,0,1,717.91,340.44ZM532.64,340a.55.55,0,0,1-.41-.18c-.79-.82-1.57-1.64-2.35-2.48a.58.58,0,0,1,0-.81.57.57,0,0,1,.8,0c.77.83,1.54,1.65,2.33,2.46a.58.58,0,0,1,0,.81A.59.59,0,0,1,532.64,340Zm189.15-3.67a.57.57,0,0,1-.42-.95c.75-.84,1.5-1.69,2.23-2.56a.57.57,0,0,1,.8-.06.56.56,0,0,1,.06.8c-.73.87-1.48,1.73-2.24,2.58A.61.61,0,0,1,721.79,336.3Zm-193-.5a.55.55,0,0,1-.42-.19c-.76-.85-1.5-1.71-2.24-2.58a.57.57,0,0,1,.07-.8.56.56,0,0,1,.8.06c.73.87,1.47,1.73,2.22,2.57a.57.57,0,0,1-.05.8A.54.54,0,0,1,528.78,335.8ZM725.49,332a.53.53,0,0,1-.36-.13.55.55,0,0,1-.08-.79c.71-.88,1.42-1.76,2.11-2.66a.58.58,0,0,1,.8-.1.57.57,0,0,1,.1.8c-.7.9-1.41,1.79-2.14,2.68A.57.57,0,0,1,725.49,332Zm-200.37-.5a.58.58,0,0,1-.45-.21c-.71-.89-1.42-1.78-2.11-2.68a.57.57,0,1,1,.9-.69c.69.89,1.39,1.78,2.1,2.65a.57.57,0,0,1-.09.8A.53.53,0,0,1,525.12,331.48Zm203.87-4a.53.53,0,0,1-.34-.11.57.57,0,0,1-.11-.8c.67-.9,1.34-1.81,2-2.74a.58.58,0,0,1,.8-.13.57.57,0,0,1,.13.79c-.66.93-1.33,1.85-2,2.77A.58.58,0,0,1,729,327.51ZM521.64,327a.58.58,0,0,1-.46-.23c-.67-.91-1.34-1.84-2-2.77a.57.57,0,1,1,.93-.65c.64.92,1.3,1.84,2,2.74a.58.58,0,0,1-.12.8A.6.6,0,0,1,521.64,327Zm210.65-4.11a.55.55,0,0,1-.32-.1.57.57,0,0,1-.14-.79c.63-.93,1.26-1.87,1.87-2.82a.57.57,0,0,1,1,.61c-.62,1-1.25,1.91-1.9,2.85A.54.54,0,0,1,732.29,322.89Zm-213.92-.52a.56.56,0,0,1-.48-.25c-.63-.94-1.26-1.89-1.87-2.85a.58.58,0,0,1,.17-.79.59.59,0,0,1,.79.18c.6.95,1.22,1.89,1.86,2.83a.58.58,0,0,1-.16.79A.59.59,0,0,1,518.37,322.37Zm217-4.24a.52.52,0,0,1-.29-.09.57.57,0,0,1-.19-.78c.6-1,1.18-1.93,1.75-2.91a.57.57,0,0,1,.78-.2.58.58,0,0,1,.21.78c-.58,1-1.17,2-1.77,2.93A.57.57,0,0,1,735.39,318.13Zm-220.09-.52a.59.59,0,0,1-.49-.27c-.59-1-1.17-1.95-1.74-2.93a.57.57,0,1,1,1-.57c.57,1,1.14,2,1.73,2.91a.56.56,0,0,1-.19.78A.6.6,0,0,1,515.3,317.61Zm223-4.38a.52.52,0,0,1-.27-.07.55.55,0,0,1-.22-.77c.55-1,1.09-2,1.62-3a.57.57,0,0,1,.77-.23.56.56,0,0,1,.23.76c-.53,1-1.07,2-1.63,3A.57.57,0,0,1,738.28,313.23Zm-225.84-.51a.56.56,0,0,1-.49-.29c-.56-1-1.09-2-1.62-3a.57.57,0,0,1,1-.52c.52,1,1.05,2,1.6,3a.57.57,0,0,1-.22.77A.55.55,0,0,1,512.44,312.72ZM741,308.21a.57.57,0,0,1-.25-.06.56.56,0,0,1-.25-.76c.51-1,1-2,1.49-3.06a.57.57,0,1,1,1,.49c-.48,1-1,2.06-1.5,3.08A.56.56,0,0,1,741,308.21Zm-231.14-.5a.58.58,0,0,1-.51-.31c-.51-1-1-2-1.48-3.08a.56.56,0,0,1,.27-.75.57.57,0,0,1,.76.27c.47,1,1,2,1.46,3.05a.56.56,0,0,1-.25.76A.57.57,0,0,1,509.81,307.71Zm233.59-4.63a.68.68,0,0,1-.23-.05.56.56,0,0,1-.28-.75q.69-1.56,1.35-3.12a.57.57,0,0,1,1,.43c-.45,1.06-.9,2.11-1.37,3.15A.57.57,0,0,1,743.4,303.08Zm-236-.49a.55.55,0,0,1-.51-.34c-.47-1-.91-2.08-1.35-3.13a.57.57,0,1,1,1.05-.43c.43,1,.87,2.07,1.33,3.1a.56.56,0,0,1-.29.75A.46.46,0,0,1,507.39,302.59Zm238.23-4.76a.52.52,0,0,1-.21,0,.57.57,0,0,1-.32-.73c.42-1.06.83-2.11,1.22-3.18a.58.58,0,0,1,.73-.34.57.57,0,0,1,.33.73c-.39,1.08-.8,2.14-1.22,3.21A.56.56,0,0,1,745.62,297.83Zm-240.41-.46a.57.57,0,0,1-.53-.36c-.42-1.06-.82-2.13-1.21-3.2a.57.57,0,1,1,1.07-.39c.38,1.06.78,2.12,1.19,3.17a.57.57,0,0,1-.32.74A.65.65,0,0,1,505.21,297.37Zm242.4-4.87a.58.58,0,0,1-.19,0,.58.58,0,0,1-.35-.73c.37-1.07.73-2.14,1.07-3.23a.59.59,0,0,1,.72-.37.58.58,0,0,1,.36.72c-.34,1.09-.7,2.18-1.08,3.26A.57.57,0,0,1,747.61,292.5ZM503.25,292a.57.57,0,0,1-.54-.38c-.37-1.08-.72-2.16-1.06-3.25a.57.57,0,1,1,1.08-.34c.34,1.08.69,2.15,1.06,3.22a.57.57,0,0,1-.36.72Zm246.1-5a.44.44,0,0,1-.16,0,.57.57,0,0,1-.38-.71c.32-1.08.63-2.17.92-3.26a.57.57,0,0,1,1.1.3c-.3,1.1-.61,2.2-.94,3.29A.56.56,0,0,1,749.35,287.08Zm-247.82-.45a.58.58,0,0,1-.55-.41c-.32-1.09-.62-2.19-.92-3.29a.57.57,0,1,1,1.1-.29c.29,1.09.59,2.18.91,3.26a.57.57,0,0,1-.38.71Zm249.32-5-.14,0a.56.56,0,0,1-.41-.69q.41-1.63.78-3.3a.57.57,0,1,1,1.11.25c-.25,1.12-.51,2.23-.79,3.33A.56.56,0,0,1,750.85,281.61Zm-250.8-.46a.56.56,0,0,1-.55-.43q-.4-1.67-.78-3.33a.58.58,0,0,1,.44-.68.57.57,0,0,1,.67.43c.25,1.11.5,2.21.77,3.31a.56.56,0,0,1-.41.68A.36.36,0,0,1,500.05,281.15Zm252.06-5.08H752a.57.57,0,0,1-.44-.67q.35-1.65.63-3.33a.58.58,0,0,1,.66-.46.57.57,0,0,1,.46.66c-.2,1.12-.41,2.24-.64,3.36A.56.56,0,0,1,752.11,276.07Zm-253.3-.46a.57.57,0,0,1-.55-.46c-.23-1.11-.43-2.23-.63-3.36a.57.57,0,1,1,1.12-.19c.19,1.11.4,2.23.62,3.33a.57.57,0,0,1-.45.67Zm254.31-5.12H753a.57.57,0,0,1-.47-.65c.17-1.11.33-2.23.48-3.35a.57.57,0,0,1,.64-.49.56.56,0,0,1,.49.63c-.15,1.14-.32,2.27-.49,3.39A.58.58,0,0,1,753.12,270.49ZM497.82,270a.58.58,0,0,1-.56-.48c-.17-1.12-.33-2.25-.47-3.39a.56.56,0,0,1,1.12-.14c.14,1.12.3,2.24.47,3.36a.57.57,0,0,1-.47.65Zm256.06-5.15h-.06a.56.56,0,0,1-.5-.63c.12-1.12.24-2.24.33-3.37a.57.57,0,0,1,1.14.1c-.1,1.14-.22,2.27-.35,3.4A.57.57,0,0,1,753.88,264.87Zm-256.8-.47a.56.56,0,0,1-.56-.51c-.13-1.13-.24-2.27-.33-3.4a.56.56,0,0,1,.51-.62.59.59,0,0,1,.62.52c.09,1.13.2,2.25.32,3.38a.56.56,0,0,1-.5.62Zm257.32-5.19h0a.56.56,0,0,1-.53-.6c.08-1.13.14-2.26.19-3.39a.56.56,0,0,1,.59-.54.57.57,0,0,1,.55.59c0,1.14-.12,2.28-.2,3.42A.57.57,0,0,1,754.4,259.21Zm-257.82-.47a.57.57,0,0,1-.56-.53c-.08-1.13-.14-2.27-.18-3.41a.56.56,0,0,1,.54-.59h0a.56.56,0,0,1,.57.54q.07,1.69.18,3.39a.57.57,0,0,1-.53.6Zm258.09-5.2h0a.56.56,0,0,1-.55-.58c0-1.13,0-2.25,0-3.39v-.2a.57.57,0,0,1,1.14,0v.2c0,1.14,0,2.28,0,3.42A.56.56,0,0,1,754.67,253.54Zm-258.33-.46a.57.57,0,0,1-.57-.56c0-1,0-2,0-3v-.47a.56.56,0,0,1,.56-.56h0a.56.56,0,0,1,.56.57v.46c0,1,0,2,0,2.93a.57.57,0,0,1-.55.58Zm258.35-5.41a.57.57,0,0,1-.57-.56c0-1.13-.06-2.26-.11-3.39a.57.57,0,0,1,1.14-.05c.05,1.13.08,2.27.1,3.42a.57.57,0,0,1-.55.58Zm-258.36-.27h0a.58.58,0,0,1-.56-.58q0-1.71.12-3.42a.53.53,0,0,1,.59-.54.56.56,0,0,1,.54.6c-.05,1.12-.09,2.25-.11,3.38A.57.57,0,0,1,496.33,247.4ZM754.46,242a.58.58,0,0,1-.57-.54c-.07-1.13-.15-2.25-.25-3.38a.56.56,0,0,1,.51-.61.57.57,0,0,1,.62.51c.1,1.14.18,2.27.25,3.41a.57.57,0,0,1-.53.61Zm-257.89-.27h0a.56.56,0,0,1-.53-.6c.07-1.14.16-2.28.26-3.41a.59.59,0,0,1,.62-.52.57.57,0,0,1,.51.62c-.1,1.12-.19,2.25-.26,3.38A.57.57,0,0,1,496.57,241.73ZM754,236.34a.57.57,0,0,1-.56-.51c-.12-1.12-.26-2.25-.4-3.36a.56.56,0,0,1,.48-.64.57.57,0,0,1,.64.49c.15,1.12.29,2.26.41,3.39a.59.59,0,0,1-.51.63Zm-256.92-.26H497a.56.56,0,0,1-.5-.62c.12-1.14.25-2.27.41-3.4a.58.58,0,0,1,.64-.49.56.56,0,0,1,.48.64c-.15,1.12-.28,2.24-.41,3.37A.56.56,0,0,1,497.06,236.08Zm256.2-5.37a.56.56,0,0,1-.56-.48c-.17-1.12-.35-2.24-.55-3.35a.57.57,0,0,1,.46-.66.58.58,0,0,1,.66.46c.19,1.12.38,2.25.55,3.38a.57.57,0,0,1-.48.65Zm-255.47-.26h-.08a.58.58,0,0,1-.48-.65c.18-1.13.36-2.25.56-3.37a.58.58,0,0,1,.66-.46.57.57,0,0,1,.46.66c-.2,1.11-.38,2.23-.56,3.35A.56.56,0,0,1,497.79,230.45Zm254.5-5.33a.57.57,0,0,1-.56-.46c-.22-1.11-.45-2.22-.69-3.32a.56.56,0,1,1,1.1-.25c.25,1.11.48,2.23.7,3.35a.56.56,0,0,1-.44.67Zm-253.51-.26h-.12a.57.57,0,0,1-.44-.67c.22-1.12.46-2.24.71-3.35a.57.57,0,0,1,1.11.25c-.25,1.1-.49,2.21-.71,3.32A.57.57,0,0,1,498.78,224.86Zm252.29-5.28a.57.57,0,0,1-.55-.44c-.27-1.1-.55-2.19-.84-3.28a.57.57,0,0,1,.4-.7.57.57,0,0,1,.69.4c.3,1.1.58,2.2.85,3.31a.56.56,0,0,1-.41.69ZM500,219.32l-.13,0a.57.57,0,0,1-.42-.69c.27-1.11.56-2.21.86-3.31a.57.57,0,0,1,1.09.3c-.29,1.09-.58,2.18-.85,3.28A.57.57,0,0,1,500,219.32Zm249.61-5.23a.56.56,0,0,1-.54-.41q-.48-1.63-1-3.24a.58.58,0,0,1,.37-.72.57.57,0,0,1,.71.37c.35,1.09.68,2.18,1,3.27a.57.57,0,0,1-.39.71Zm-248.14-.26a.47.47,0,0,1-.16,0,.56.56,0,0,1-.38-.7c.32-1.1.65-2.19,1-3.27a.58.58,0,0,1,.72-.37.56.56,0,0,1,.36.71c-.34,1.08-.67,2.16-1,3.25A.57.57,0,0,1,501.47,213.83Zm246.44-5.16a.55.55,0,0,1-.53-.38c-.37-1.07-.75-2.14-1.13-3.2a.56.56,0,1,1,1.06-.39c.39,1.07.77,2.14,1.14,3.23a.56.56,0,0,1-.36.71A.38.38,0,0,1,747.91,208.67Zm-244.72-.26-.19,0a.57.57,0,0,1-.35-.72c.37-1.08.76-2.16,1.15-3.23a.57.57,0,0,1,1.07.4c-.4,1.06-.78,2.13-1.14,3.2A.57.57,0,0,1,503.19,208.41ZM746,203.34a.58.58,0,0,1-.53-.36c-.4-1-.83-2.1-1.26-3.13a.57.57,0,0,1,.3-.75.58.58,0,0,1,.75.31c.43,1,.86,2.1,1.27,3.16a.56.56,0,0,1-.32.73A.52.52,0,0,1,746,203.34Zm-240.82-.27a.78.78,0,0,1-.21,0,.57.57,0,0,1-.32-.74c.41-1.06.84-2.12,1.29-3.17a.56.56,0,1,1,1,.44c-.44,1-.86,2.09-1.28,3.15A.56.56,0,0,1,505.15,203.07Zm238.66-4.95a.57.57,0,0,1-.52-.34c-.46-1-.92-2.06-1.4-3.08a.56.56,0,0,1,.27-.75.57.57,0,0,1,.75.27c.49,1,1,2.06,1.42,3.1a.57.57,0,0,1-.29.75A.64.64,0,0,1,743.81,198.12Zm-236.47-.31a.46.46,0,0,1-.23-.05.55.55,0,0,1-.29-.74c.46-1.05.94-2.09,1.43-3.12a.57.57,0,0,1,1,.49c-.49,1-1,2.05-1.42,3.09A.58.58,0,0,1,507.34,197.81ZM741.42,193a.57.57,0,0,1-.51-.32c-.5-1-1-2-1.54-3a.57.57,0,1,1,1-.53c.53,1,1,2,1.56,3a.57.57,0,0,1-.51.82Zm-231.66-.33a.5.5,0,0,1-.26-.06.56.56,0,0,1-.25-.76c.51-1,1-2,1.57-3.05a.56.56,0,0,1,.76-.23.57.57,0,0,1,.24.77c-.53,1-1.05,2-1.55,3A.56.56,0,0,1,509.76,192.66Zm229-4.69a.56.56,0,0,1-.5-.29c-.54-1-1.1-2-1.67-3a.56.56,0,0,1,.2-.77.57.57,0,0,1,.78.2c.57,1,1.14,2,1.68,3a.55.55,0,0,1-.22.77A.54.54,0,0,1,738.8,188Zm-226.4-.34a.54.54,0,0,1-.27-.07.55.55,0,0,1-.22-.77c.55-1,1.12-2,1.7-3a.56.56,0,0,1,.77-.2.57.57,0,0,1,.2.78c-.57,1-1.13,2-1.68,3A.58.58,0,0,1,512.4,187.63ZM736,183.07a.56.56,0,0,1-.48-.27c-.59-1-1.19-1.92-1.8-2.87a.57.57,0,1,1,1-.62c.62,1,1.22,1.92,1.81,2.9a.56.56,0,0,1-.19.78A.6.6,0,0,1,736,183.07Zm-220.69-.35a.53.53,0,0,1-.3-.09.57.57,0,0,1-.19-.78c.6-1,1.21-1.93,1.83-2.89a.57.57,0,1,1,.95.62c-.61.95-1.22,1.9-1.81,2.87A.57.57,0,0,1,515.27,182.72Zm217.64-4.42a.56.56,0,0,1-.47-.26c-.63-.93-1.27-1.86-1.92-2.78a.57.57,0,1,1,.92-.66c.66.93,1.31,1.87,1.94,2.81a.57.57,0,0,1-.15.79A.63.63,0,0,1,732.91,178.3Zm-214.57-.36a.55.55,0,0,1-.32-.1.57.57,0,0,1-.15-.79c.64-.94,1.29-1.88,2-2.81a.58.58,0,0,1,.8-.13.57.57,0,0,1,.13.79c-.66.92-1.3,1.85-1.94,2.79A.57.57,0,0,1,518.34,177.94Zm211.31-4.28a.56.56,0,0,1-.45-.23c-.67-.91-1.36-1.81-2.05-2.71a.56.56,0,0,1,.1-.79.57.57,0,0,1,.8.1c.7.9,1.38,1.81,2.06,2.72a.58.58,0,0,1-.12.8A.6.6,0,0,1,729.65,173.66Zm-208-.36a.59.59,0,0,1-.33-.11.55.55,0,0,1-.12-.79q1-1.38,2.07-2.73a.57.57,0,1,1,.9.7c-.7.89-1.39,1.79-2.06,2.7A.56.56,0,0,1,521.62,173.3Zm204.57-4.14a.56.56,0,0,1-.44-.21q-1.07-1.32-2.16-2.61a.57.57,0,0,1,.87-.73c.73.87,1.46,1.74,2.18,2.63a.58.58,0,0,1-.09.8A.6.6,0,0,1,726.19,169.16Zm-201.09-.35a.56.56,0,0,1-.44-.92c.72-.89,1.45-1.77,2.19-2.63a.56.56,0,0,1,.8-.06.57.57,0,0,1,.07.8c-.74.86-1.46,1.72-2.18,2.6A.55.55,0,0,1,525.1,168.81Zm197.44-4a.55.55,0,0,1-.42-.2c-.75-.84-1.51-1.68-2.28-2.51a.57.57,0,0,1,.84-.77c.77.83,1.53,1.68,2.29,2.53a.58.58,0,0,1-.05.8A.55.55,0,0,1,722.54,164.83Zm-193.76-.35a.59.59,0,0,1-.38-.14.56.56,0,0,1,0-.8c.76-.86,1.53-1.7,2.3-2.53a.58.58,0,0,1,.81,0,.56.56,0,0,1,0,.8c-.77.83-1.53,1.66-2.28,2.51A.55.55,0,0,1,528.78,164.48Zm189.92-3.83a.58.58,0,0,1-.41-.17c-.78-.82-1.57-1.62-2.38-2.42a.57.57,0,0,1,.8-.81c.81.8,1.61,1.62,2.4,2.44a.57.57,0,0,1-.41,1Zm-186.07-.33a.59.59,0,0,1-.39-.16.57.57,0,0,1,0-.8c.8-.82,1.6-1.63,2.42-2.43a.56.56,0,0,1,.8,0,.57.57,0,0,1,0,.8c-.81.79-1.6,1.59-2.39,2.4A.55.55,0,0,1,532.63,160.32Zm182-3.68a.58.58,0,0,1-.39-.15c-.82-.78-1.65-1.55-2.48-2.31a.57.57,0,0,1,.76-.84c.84.76,1.68,1.54,2.5,2.33a.56.56,0,0,1,0,.8A.54.54,0,0,1,714.68,156.64Zm-178-.31a.59.59,0,0,1-.42-.18.57.57,0,0,1,0-.8c.82-.79,1.66-1.56,2.51-2.32a.57.57,0,1,1,.76.84c-.84.76-1.67,1.52-2.49,2.3A.59.59,0,0,1,536.67,156.33Zm173.82-3.51a.57.57,0,0,1-.37-.14c-.86-.75-1.72-1.48-2.59-2.2a.57.57,0,0,1,.73-.88c.88.73,1.74,1.47,2.6,2.22a.57.57,0,0,1,.06.8A.58.58,0,0,1,710.49,152.82Zm-169.62-.31a.56.56,0,0,1-.43-.19.57.57,0,0,1,.06-.8c.86-.75,1.73-1.48,2.61-2.21a.57.57,0,0,1,.72.88c-.87.72-1.74,1.45-2.59,2.19A.58.58,0,0,1,540.87,152.51Zm165.26-3.34a.57.57,0,0,1-.35-.12c-.88-.71-1.78-1.4-2.68-2.09a.56.56,0,0,1-.11-.79.57.57,0,0,1,.8-.11q1.37,1,2.7,2.1a.57.57,0,0,1-.36,1Zm-160.9-.28a.57.57,0,0,1-.35-1c.89-.71,1.79-1.4,2.7-2.09a.57.57,0,0,1,.69.91c-.91.68-1.8,1.37-2.69,2.07A.55.55,0,0,1,545.23,148.89Zm156.39-3.17a.56.56,0,0,1-.33-.1c-.92-.67-1.84-1.33-2.77-2a.57.57,0,0,1-.15-.79.57.57,0,0,1,.79-.14c.94.65,1.87,1.31,2.8,2a.57.57,0,0,1,.12.79A.56.56,0,0,1,701.62,145.72Zm-151.87-.26a.57.57,0,0,1-.34-1c.93-.67,1.86-1.33,2.8-2a.57.57,0,0,1,.79.15.57.57,0,0,1-.15.79c-.93.63-1.86,1.28-2.77,2A.58.58,0,0,1,549.75,145.46Zm147.21-3a.56.56,0,0,1-.31-.09c-.95-.63-1.9-1.24-2.86-1.84a.58.58,0,0,1-.17-.79.56.56,0,0,1,.78-.17c1,.6,1.92,1.22,2.87,1.85a.56.56,0,0,1,.16.79A.55.55,0,0,1,697,142.47Zm-142.55-.23a.58.58,0,0,1-.48-.25.57.57,0,0,1,.17-.79c.94-.63,1.9-1.24,2.87-1.84a.57.57,0,1,1,.6,1q-1.44.9-2.85,1.83A.59.59,0,0,1,554.41,142.24Zm137.75-2.81a.51.51,0,0,1-.29-.08c-1-.59-2-1.16-2.94-1.72a.57.57,0,1,1,.57-1c1,.56,2,1.14,3,1.73a.57.57,0,0,1-.29,1.05Zm-133-.21a.57.57,0,0,1-.29-1.05c1-.59,2-1.16,3-1.72a.57.57,0,0,1,.77.22.56.56,0,0,1-.21.77c-1,.56-2,1.12-2.92,1.7A.56.56,0,0,1,559.2,139.22Zm128-2.62a.55.55,0,0,1-.28-.07c-1-.54-2-1.07-3-1.58a.57.57,0,0,1-.25-.76.58.58,0,0,1,.77-.25c1,.52,2,1.05,3,1.6a.56.56,0,0,1,.22.77A.54.54,0,0,1,687.23,136.6Zm-123.11-.18a.58.58,0,0,1-.5-.3.57.57,0,0,1,.23-.77c1-.54,2-1.06,3-1.58a.57.57,0,1,1,.51,1c-1,.51-2,1-3,1.57A.52.52,0,0,1,564.12,136.42Zm118-2.43a.74.74,0,0,1-.25-.05c-1-.5-2-1-3.07-1.46a.57.57,0,0,1,.47-1c1,.48,2.08,1,3.1,1.47a.56.56,0,0,1-.25,1.07Zm-113-.15a.57.57,0,0,1-.25-1.08c1-.5,2.05-1,3.09-1.45a.57.57,0,1,1,.47,1q-1.54.71-3.06,1.44A.57.57,0,0,1,569.16,133.84ZM677,131.61a.64.64,0,0,1-.23-.05c-1-.45-2.08-.89-3.13-1.31a.57.57,0,0,1,.42-1.06c1.06.43,2.12.87,3.16,1.33a.58.58,0,0,1,.3.75A.57.57,0,0,1,677,131.61Zm-102.71-.13a.57.57,0,0,1-.52-.34.57.57,0,0,1,.3-.75c1-.45,2.09-.89,3.15-1.31a.57.57,0,0,1,.42,1c-1,.42-2.09.86-3.12,1.3A.64.64,0,0,1,574.3,131.48Zm97.44-2a.64.64,0,0,1-.2,0c-1.06-.41-2.13-.8-3.2-1.18a.56.56,0,0,1-.34-.72.55.55,0,0,1,.72-.35c1.08.38,2.15.78,3.22,1.18a.58.58,0,0,1,.33.74A.57.57,0,0,1,671.74,129.45Zm-92.19-.1a.57.57,0,0,1-.2-1.1q1.59-.61,3.21-1.17a.58.58,0,0,1,.73.34.58.58,0,0,1-.35.73c-1.07.37-2.13.76-3.19,1.16A.45.45,0,0,1,579.55,129.35Zm86.83-1.82a.57.57,0,0,1-.18,0c-1.08-.35-2.16-.7-3.25-1a.57.57,0,0,1-.37-.71.55.55,0,0,1,.7-.37c1.1.33,2.19.68,3.28,1a.57.57,0,0,1-.18,1.1Zm-81.48-.08a.58.58,0,0,1-.54-.39.57.57,0,0,1,.36-.72c1.08-.36,2.17-.7,3.26-1a.56.56,0,1,1,.33,1.08c-1.08.33-2.16.67-3.23,1A.57.57,0,0,1,584.9,127.45Zm76-1.59a.4.4,0,0,1-.15,0c-1.09-.31-2.18-.6-3.28-.88a.58.58,0,0,1-.41-.69.57.57,0,0,1,.69-.41c1.11.28,2.21.58,3.31.89a.57.57,0,0,1-.16,1.12Zm-70.61-.08a.57.57,0,0,1-.16-1.11c1.1-.31,2.2-.61,3.31-.89a.56.56,0,0,1,.68.41.55.55,0,0,1-.41.69c-1.09.28-2.18.58-3.27.88A.39.39,0,0,1,590.33,125.78Zm65.12-1.36h-.13c-1.1-.26-2.2-.51-3.31-.74a.57.57,0,0,1,.23-1.11c1.12.23,2.23.48,3.34.74a.57.57,0,0,1,.42.69A.56.56,0,0,1,655.45,124.42Zm-59.63-.06a.56.56,0,0,1-.55-.44.56.56,0,0,1,.42-.68c1.11-.26,2.22-.5,3.34-.74a.57.57,0,1,1,.23,1.11c-1.11.23-2.21.48-3.31.74Zm54.08-1.13h-.11c-1.1-.21-2.22-.4-3.34-.59A.57.57,0,0,1,646,122a.56.56,0,0,1,.65-.47c1.13.19,2.25.39,3.37.6a.57.57,0,0,1,.45.66A.57.57,0,0,1,649.9,123.23Zm-48.53,0a.56.56,0,0,1-.55-.47.57.57,0,0,1,.45-.66c1.12-.21,2.24-.41,3.37-.59a.57.57,0,0,1,.18,1.12c-1.12.18-2.23.38-3.34.59Zm42.93-.9h-.08c-1.12-.17-2.24-.31-3.36-.45a.57.57,0,0,1,.13-1.13q1.71.21,3.39.45a.57.57,0,0,1,.48.65A.56.56,0,0,1,644.3,122.29Zm-37.33,0a.56.56,0,0,1-.08-1.12c1.13-.17,2.26-.31,3.39-.45a.57.57,0,1,1,.13,1.13c-1.12.13-2.24.28-3.36.44Zm31.7-.65h-.06c-1.12-.12-2.24-.22-3.37-.3a.57.57,0,1,1,.08-1.13c1.14.08,2.28.18,3.41.3a.56.56,0,0,1,.5.62A.56.56,0,0,1,638.67,121.6Zm-26.07,0a.57.57,0,0,1-.05-1.13c1.13-.11,2.27-.21,3.41-.29a.57.57,0,0,1,.08,1.13c-1.13.08-2.26.18-3.38.29Zm20.41-.42h0c-1.13-.07-2.25-.11-3.39-.15a.57.57,0,1,1,0-1.13q1.71,0,3.42.15a.56.56,0,0,1,.53.6A.57.57,0,0,1,633,121.15Zm-14.75,0a.55.55,0,0,1-.56-.53.57.57,0,0,1,.53-.6c1.14-.06,2.28-.11,3.42-.14h0a.57.57,0,0,1,0,1.13c-1.13,0-2.26.08-3.39.14Zm9.08-.18h0q-1.7,0-3.39,0h0a.56.56,0,0,1-.56-.57.56.56,0,0,1,.56-.57q1.71,0,3.42,0a.58.58,0,0,1,.56.58A.57.57,0,0,1,627.34,121Z" style="fill:#f94f24"/><path d="M730.37,266.19c2.12-12.56,5.92-29.19-1.09-40.84a2.06,2.06,0,0,1,1.53-3.1,52.54,52.54,0,0,0-50-16.49,66.18,66.18,0,0,0-118.61,21.57,41.27,41.27,0,1,0-4.33,82.31H691.58c11.32,0,20.29-3,28.68-11.38A116.5,116.5,0,0,0,730.37,266.19Z" style="fill:#ebebeb;mix-blend-mode:multiply"/><path d="M686.77,199.36A52.12,52.12,0,0,0,676,200.49a66.19,66.19,0,0,0-118.61,21.56c-1.42-.14-2.86-.22-4.33-.22a41.27,41.27,0,0,0,0,82.54H686.77a52.51,52.51,0,0,0,0-105Z" style="fill:url(#g)"/><path d="M553,228.19c1.47,0,2.91.08,4.33.22A66.19,66.19,0,0,1,676,206.84a52.52,52.52,0,0,1,63.19,47.95c.08-1.14.13-2.28.13-3.44A52.49,52.49,0,0,0,676,200a66.19,66.19,0,0,0-118.61,21.57,41.24,41.24,0,0,0-45.59,41c0,1.16.05,2.3.15,3.43A41.26,41.26,0,0,1,553,228.19Z" style="fill:#c4ecec"/><path d="M502.45,253a6.61,6.61,0,1,1-6.61-6.62A6.61,6.61,0,0,1,502.45,253Z" style="fill:#fff"/><path d="M495.84,261a8,8,0,1,1,8-8A8,8,0,0,1,495.84,261Zm0-13.22A5.2,5.2,0,1,0,501,253,5.2,5.2,0,0,0,495.84,247.81Z" style="fill:#f94f24"/><path d="M447.54,323.12A11.09,11.09,0,1,1,436.45,312,11.1,11.1,0,0,1,447.54,323.12Z" style="fill:#f2f2f2"/><path d="M605,237.05h3l13.11,29h-3.5l-3.37-7.6H598.62l-3.41,7.6h-3.33Zm8,18.45-6.53-14.67-6.58,14.67Z" style="fill:#6731cf"/><path d="M626.81,237.26h10.77c6.49,0,10.76,3.45,10.76,9.12v.08c0,6.21-5.18,9.41-11.3,9.41h-7V266h-3.25Zm10.35,15.65c4.77,0,7.89-2.55,7.89-6.33v-.08c0-4.11-3.08-6.24-7.72-6.24h-7.27v12.65Z" style="fill:#6731cf"/><path d="M654.55,237.26h3.25V266h-3.25Z" style="fill:#6731cf"/></g></svg>