<?xml version="1.0" encoding="UTF-8"?>
<svg width="588px" height="397px" viewBox="0 0 588 397" version="1.1" xmlns="http://www.w3.org/2000/svg" xmlns:xlink="http://www.w3.org/1999/xlink">
    <!-- Generator: Sketch 55.2 (78181) - https://sketchapp.com -->
    <title>Artboard</title>
    <desc>Created with Sketch.</desc>
    <defs>
        <rect id="path-1" x="0" y="0" width="223" height="102" rx="8"></rect>
        <mask id="mask-2" maskContentUnits="userSpaceOnUse" maskUnits="objectBoundingBox" x="0" y="0" width="223" height="102" fill="white">
            <use xlink:href="#path-1"></use>
        </mask>
        <rect id="path-3" x="0" y="0" width="223" height="102" rx="8"></rect>
        <mask id="mask-4" maskContentUnits="userSpaceOnUse" maskUnits="objectBoundingBox" x="0" y="0" width="223" height="102" fill="white">
            <use xlink:href="#path-3"></use>
        </mask>
    </defs>
    <g id="Artboard" stroke="none" stroke-width="1" fill="none" fill-rule="evenodd">
        <g id="BG" opacity="0.481468564" transform="translate(65.000000, 47.000000)" fill="#F2F2F2" fill-rule="nonzero">
            <path d="M200.217509,38.9860846 C200.217509,46.133511 194.425726,51.9288868 187.2783,51.9333151 L154.549242,51.9333151 C147.401817,51.9288868 141.610033,46.133511 141.610033,38.9860846 L141.610033,38.9860846 C141.610033,31.8399569 147.403114,26.0468759 154.549242,26.0468759 L187.2783,26.0468759 C194.424428,26.0468759 200.217509,31.8399569 200.217509,38.9860846 Z" id="Path"></path>
            <path d="M267.071425,101.476126 C267.071425,108.622253 261.278344,114.415334 254.132216,114.415334 L199.888614,114.415334 C192.742487,114.415334 186.949406,108.622253 186.949406,101.476126 L186.949406,101.476126 C186.949406,94.3299979 192.742487,88.5369168 199.888614,88.5369168 L254.132216,88.5369168 C261.278344,88.5369168 267.071425,94.3299979 267.071425,101.476126 L267.071425,101.476126 Z" id="Path"></path>
            <path d="M119.854835,234.269468 C119.854835,234.269468 57.6455583,266.276562 27.5075502,250.834543 C-2.63045803,235.392524 -5.38194507,208.5194 6.69090623,165.86734 C18.7637575,123.21528 48.5969362,99.0294679 94.9310154,130.827995 C141.265094,162.626521 170.873662,204.067285 119.854835,234.269468 Z" id="Path"></path>
            <path d="M314.247796,21.5305866 C314.247796,33.4216013 304.608224,43.0611733 292.717209,43.0611733 C280.826194,43.0611733 271.186622,33.4216013 271.186622,21.5305866 C271.186622,9.63957198 280.826194,1.0658141e-14 292.717209,1.0658141e-14 C304.608224,1.0658141e-14 314.247796,9.63957198 314.247796,21.5305866 Z" id="Path"></path>
            <path d="M418.571692,266.09206 C418.553953,286.347788 402.12221,302.755596 381.866477,302.743793 C361.610745,302.731977 345.198145,286.305021 345.204044,266.049286 C345.209947,245.793552 361.632115,229.376152 381.88785,229.376152 C391.62322,229.374018 400.959998,233.242629 407.840934,240.129584 C414.72187,247.016539 418.582317,256.356696 418.571692,266.09206 L418.571692,266.09206 Z" id="Path"></path>
            <rect id="Rectangle" x="345.20403" y="61.086221" width="113.701392" height="27.4426739" rx="13.721337"></rect>
            <path d="M322.144018,226.868049 C322.130721,231.778134 318.14189,235.749026 313.231795,235.740191 C308.3217,235.731328 304.347209,231.746085 304.351621,226.835983 C304.35604,221.925882 308.337693,217.947776 313.247796,217.947776 C315.610736,217.949901 317.875935,218.891164 319.544528,220.564271 C321.213122,222.237379 322.148262,224.505112 322.144018,226.868049 L322.144018,226.868049 Z" id="Path"></path>
        </g>
        <g id="LOGOS" transform="translate(21.000000, 30.000000)">
            <g id="soundcloud" transform="translate(12.000000, 0.000000)">
                <path d="M15,63.8186791 C15,64.7135765 15.3239173,65.3902162 15.9716147,65.8488735 C16.6193807,66.3074619 17.3117729,66.4696079 18.0488599,66.335449 C18.7412521,66.2012213 19.2270595,65.9551142 19.5063507,65.5971965 C19.7855045,65.2392788 19.9251501,64.6463938 19.9251501,63.8186791 L19.9251501,54.0871689 C19.9251501,53.3936132 19.6850613,52.8063669 19.2048151,52.32543 C18.7246375,51.8444244 18.1383182,51.603956 17.4458574,51.603956 C16.7757783,51.603956 16.2006499,51.8444244 15.7204037,52.32543 C15.2401574,52.8063669 15,53.3936132 15,54.0871689 L15,63.8186791 Z M22.7059097,67.9797386 C22.7059097,68.6285977 22.9348763,69.1151044 23.3927408,69.4395339 C23.850674,69.7639634 24.4369932,69.9261094 25.1516985,69.9261094 C25.8887855,69.9261094 26.4862269,69.7638947 26.9441601,69.4395339 C27.4020246,69.1151732 27.6309912,68.6285977 27.6309912,67.9797386 L27.6309912,45.2952529 C27.6309912,44.6241142 27.3908337,44.0480077 26.9106561,43.5670709 C26.4304099,43.086134 25.8440907,42.8455969 25.1516985,42.8455969 C24.4816194,42.8455969 23.9064223,43.086134 23.4262448,43.5670709 C22.9459985,44.0480765 22.7059097,44.6241142 22.7059097,45.2952529 L22.7059097,67.9797386 Z M30.3783155,69.0535604 C30.3783155,69.7023507 30.6128432,70.1889262 31.0818986,70.5133557 C31.5509539,70.8377165 32.1540251,70.9999312 32.8911808,70.9999312 C33.6058861,70.9999312 34.1922053,70.8377165 34.6500698,70.5133557 C35.108003,70.1889262 35.3369695,69.7023507 35.3369695,69.0535604 L35.3369695,48.3489336 C35.3369695,47.6554466 35.0968121,47.0625617 34.6166345,46.5704163 C34.1363883,46.0782709 33.5612599,45.8322325 32.8911808,45.8322325 C32.19872,45.8322325 31.6068396,46.0782709 31.1154712,46.5704163 C30.6241027,47.0625617 30.3783842,47.6554466 30.3783842,48.3489336 L30.3783842,69.0535604 L30.3783155,69.0535604 Z M38.0842252,69.1542312 C38.0842252,70.3846979 38.9106332,70.9999312 40.5635179,70.9999312 C42.2163339,70.9999312 43.042742,70.3846979 43.042742,69.1542312 L43.042742,35.5972996 C43.042742,33.7181115 42.4731747,32.6554982 41.3340402,32.4093911 C40.5969532,32.2303979 39.8709884,32.4429481 39.1562831,33.0469728 C38.4415092,33.6509976 38.0841566,34.5010607 38.0841566,35.5972996 L38.0841566,69.1542312 L38.0842252,69.1542312 Z M45.9242194,70.1273822 L45.9242194,33.6174407 C45.9242194,32.4541566 46.2703812,31.7606696 46.962842,31.5369109 C48.4593292,31.1789932 49.9446941,31 51.4188681,31 C54.8362029,31 58.0191473,31.8053664 60.9674267,33.4160991 C63.9157748,35.0268318 66.3001854,37.2248108 68.1205212,40.0100361 C69.9409256,42.7953302 70.9963002,45.8657207 71.286645,49.2214826 C72.6491162,48.6398062 74.1009085,48.3490024 75.6420905,48.3490024 C78.7691492,48.3490024 81.4439045,49.4563811 83.6662878,51.6711386 C85.8887397,53.8859649 87,56.5481023 87,59.6577571 C87,62.7897603 85.8887397,65.4631063 83.6662878,67.6778638 C81.4439045,69.8926213 78.7803401,71 75.6755944,71 L46.5271533,70.9664431 C46.3260609,70.8993292 46.1752931,70.7762413 46.0747813,70.5973168 C45.9742694,70.4183924 45.9242194,70.26161 45.9242194,70.1273822 Z" id="Shape" fill="#CCCCCC" fill-rule="nonzero"></path>
                <path d="M51,102 C79.1665222,102 102,79.1665222 102,51 C102,22.8334778 79.1665222,0 51,0 C22.8334778,0 0,22.8334778 0,51 C0,79.1665222 22.8334778,102 51,102 Z" id="Oval" stroke="#F65030" stroke-dasharray="2,2"></path>
            </g>
            <g id="facebook" transform="translate(439.000000, 0.000000)">
                <path d="M67.8477105,70 C69.0362992,70 70,69.0361603 70,67.8475805 L70,33.1524195 C70,31.9634013 69.0361531,31 67.8477105,31 L33.1524356,31 C31.9634086,31 31,31.9635475 31,33.1524195 L31,67.8474344 C31,69.0361603 31.9634086,70 33.1524356,70 L67.8477105,70 L67.8477105,70 Z" id="Shape" fill="#CCCCCC" fill-rule="nonzero"></path>
                <path d="M58.0346568,70 L58.0346568,54.9471589 L63.0467587,54.9471589 L63.7971581,49.0807512 L58.0345124,49.0807512 L58.0345124,45.335309 C58.0345124,43.6368471 58.5023201,42.4794404 60.918508,42.4794404 L64,42.477984 L64,37.2311318 C63.4670344,37.1597679 61.637701,37 59.5097393,37 C55.0667216,37 52.0249601,39.7338217 52.0249601,44.7544939 L52.0249601,49.0807512 L47,49.0807512 L47,54.9471589 L52.0249601,54.9471589 L52.0249601,70 L58.0346568,70 L58.0346568,70 Z" id="Shape" fill="#FFFFFF" fill-rule="nonzero"></path>
                <path d="M51,102 C79.1665222,102 102,79.1665222 102,51 C102,22.8334778 79.1665222,0 51,0 C22.8334778,0 0,22.8334778 0,51 C0,79.1665222 22.8334778,102 51,102 Z" id="Oval-Copy-2" stroke="#8943DD" stroke-dasharray="2,2"></path>
            </g>
            <g id="instagram" transform="translate(439.000000, 232.000000)">
                <path d="M44.3349489,51 C44.3349489,47.3182553 47.3189143,44.3327948 51.0008078,44.3327948 C54.6827012,44.3327948 57.6682822,47.3182553 57.6682822,51 C57.6682822,54.6817447 54.6827012,57.6672052 51.0008078,57.6672052 C47.3189143,57.6672052 44.3349489,54.6817447 44.3349489,51 M40.730603,51 C40.730603,56.6720517 45.328527,61.26979 51.0008078,61.26979 C56.6730886,61.26979 61.2710126,56.6720517 61.2710126,51 C61.2710126,45.3279483 56.6730886,40.73021 51.0008078,40.73021 C45.328527,40.73021 40.730603,45.3279483 40.730603,51 M59.2773941,40.3231018 C59.2773941,41.6478191 60.3517509,42.723748 61.6781372,42.723748 C63.002908,42.723748 64.0788804,41.6478191 64.0788804,40.3231018 C64.0788804,38.9983845 63.0045236,37.9240711 61.6781372,37.9240711 C60.3517509,37.9240711 59.2773941,38.9983845 59.2773941,40.3231018 M42.919706,67.279483 C40.969708,67.19063 39.9098914,66.8659128 39.205501,66.5912763 C38.2716992,66.2277868 37.6060826,65.7948304 36.9049235,65.095315 C36.2053799,64.3957997 35.7707904,63.73021 35.4089018,62.7964459 C35.1342542,62.092084 34.8095238,61.0323102 34.7206672,59.082391 C34.6237328,56.9741519 34.6043459,56.3408724 34.6043459,51 C34.6043459,45.6591276 34.6253484,45.0274637 34.7206672,42.917609 C34.8095238,40.9676898 35.1358698,39.9095315 35.4089018,39.2035541 C35.772406,38.26979 36.2053799,37.6042003 36.9049235,36.9030695 C37.6044671,36.2035541 38.2700836,35.7689822 39.205501,35.4071082 C39.9098914,35.1324717 40.969708,34.8077544 42.919706,34.7189014 C45.0280302,34.6219709 45.6613353,34.6025848 51.0008078,34.6025848 C56.3418959,34.6025848 56.9735854,34.6235864 59.0835252,34.7189014 C61.0335232,34.8077544 62.0917242,35.1340872 62.7977301,35.4071082 C63.731532,35.7689822 64.3971485,36.2035541 65.0983077,36.9030695 C65.7978513,37.6025848 66.2308252,38.26979 66.5943293,39.2035541 C66.8689769,39.907916 67.1937073,40.9676898 67.2825639,42.917609 C67.3794984,45.0274637 67.3988853,45.6591276 67.3988853,51 C67.3988853,56.3392569 67.3794984,56.9725363 67.2825639,59.082391 C67.1937073,61.0323102 66.8673614,62.092084 66.5943293,62.7964459 C66.2308252,63.73021 65.7978513,64.3957997 65.0983077,65.095315 C64.3987641,65.7948304 63.731532,66.2277868 62.7977301,66.5912763 C62.0933398,66.8659128 61.0335232,67.19063 59.0835252,67.279483 C56.9752009,67.3764136 56.3418959,67.3957997 51.0008078,67.3957997 C45.6613353,67.3957997 45.0280302,67.3764136 42.919706,67.279483 M42.7549174,31.1211632 C40.6255907,31.2180937 39.171574,31.5557351 37.9001171,32.0500808 C36.5850398,32.5605816 35.4702936,33.2455573 34.357163,34.3570275 C33.245648,35.4684976 32.5606446,36.5831987 32.0501232,37.8998384 C31.5557575,39.1712439 31.2181025,40.6252019 31.1211681,42.7544426 C31.022618,44.8869144 31,45.5686591 31,51 C31,56.4313409 31.022618,57.1130856 31.1211681,59.2455574 C31.2181025,61.3747981 31.5557575,62.8287561 32.0501232,64.1001616 C32.5606446,65.4151858 33.2440325,66.5315024 34.357163,67.6429725 C35.4686781,68.7544426 36.5834242,69.4378029 37.9001171,69.9499192 C39.1731896,70.4442649 40.6255907,70.7819063 42.7549174,70.8788368 C44.8890908,70.9757674 45.5692475,71 51.0008078,71 C56.4339836,71 57.1141403,70.9773829 59.2466982,70.8788368 C61.3760249,70.7819063 62.8300416,70.4442649 64.1014984,69.9499192 C65.4165758,69.4378029 66.5313219,68.7544426 67.6444525,67.6429725 C68.7559675,66.5315024 69.4393554,65.4151858 69.9514924,64.1001616 C70.4458581,62.8287561 70.7851286,61.3747981 70.8804475,59.2455574 C70.977382,57.1114701 71,56.4313409 71,51 C71,45.5686591 70.977382,44.8869144 70.8804475,42.7544426 C70.7835131,40.6252019 70.4458581,39.1712439 69.9514924,37.8998384 C69.4393554,36.5848142 68.7559675,35.4701131 67.6444525,34.3570275 C66.5329375,33.2455573 65.4165758,32.5605816 64.103114,32.0500808 C62.8300416,31.5557351 61.3760249,31.2164782 59.2483137,31.1211632 C57.1157559,31.0242326 56.4339836,31 51.0024234,31 C45.5692475,31 44.8890908,31.0226171 42.7549174,31.1211632" id="Shape" fill="#CCCCCC" fill-rule="nonzero"></path>
                <path d="M51,102 C79.1665222,102 102,79.1665222 102,51 C102,22.8334778 79.1665222,0 51,0 C22.8334778,0 0,22.8334778 0,51 C0,79.1665222 22.8334778,102 51,102 Z" id="Oval-Copy" stroke="#F65030" stroke-dasharray="2,2"></path>
            </g>
            <g id="mailchimp" transform="translate(68.000000, 146.000000)" fill="#CCCCCC" fill-rule="nonzero">
                <path d="M147.582386,27.89998 L147.635118,27.90074 C150.769843,27.90074 152.975872,25.72524 153,22.6119 C153.011533,21.07024 152.566913,19.65892 151.747856,18.63938 C150.881757,17.56018 149.669294,16.98486 148.24097,16.97346 L148.212518,16.97346 C146.284945,16.97346 144.495083,18.43836 142.740502,21.45252 L142.600894,21.69306 L142.511363,21.43086 C142.068261,20.13924 141.673717,19.06308 141.43775,18.41898 C141.272345,17.96982 141.199506,17.76804 141.182055,17.70268 C141.097835,17.37664 140.819758,17.1741 140.454805,17.1741 C140.230598,17.1741 139.992355,17.25048 139.76701,17.39412 C139.543561,17.53662 139.418749,17.71066 139.373983,17.94322 L139.362602,17.97818 C137.606504,23.46424 136.158833,26.12766 134.931954,26.12766 C134.753651,26.12614 134.614043,26.068 134.510096,25.95172 C134.188771,25.59604 134.267679,24.75016 134.376938,23.579 C134.456984,22.71868 134.548412,21.74474 134.510475,20.71114 C134.438395,18.72412 133.352642,17.53092 131.607925,17.518 C129.390135,17.51724 127.953086,19.88312 127.291087,21.2933 L127.093436,21.71358 L127.049809,21.24998 C126.884404,19.50502 126.299797,17.42072 124.453788,17.40704 C122.300491,17.40704 120.6601,19.93784 119.659325,22.06204 L119.391111,22.63128 L119.417667,22.00276 C119.53641,19.16986 119.633907,17.4971 119.707884,17.03312 C119.780723,16.56762 119.742407,16.25526 119.59028,16.07628 C119.44612,15.9087 119.174492,15.84676 118.776155,15.87184 C118.086841,15.91554 117.734408,16.33582 117.203671,17.74448 C116.331881,20.05792 114.114471,25.44024 112.343957,25.44024 C111.992661,25.43758 111.714584,25.31788 111.510863,25.08342 C110.768438,24.23108 111.065484,21.926 111.47634,18.73666 L111.507448,18.49536 C111.702065,16.98524 111.370496,16.663 110.551439,16.51214 C110.469366,16.4966676 110.386084,16.4885289 110.302573,16.48782 C109.648541,16.48782 109.34277,17.1152 108.731986,18.85864 C107.645095,21.96096 106.247121,25.22364 104.6128,25.22364 C104.55286,25.22364 104.494057,25.21908 104.433738,25.20958 C103.567639,25.06176 103.586607,23.77508 103.610508,22.1445 C103.622647,21.2629 103.637443,20.26312 103.502008,19.36062 C103.257695,17.74106 102.305479,16.72988 101.015246,16.71962 C98.4416077,16.71962 96.7059954,20.02106 95.8986986,21.98946 L95.7158429,22.43482 L95.6547645,21.95678 C95.4962096,20.6932898 95.3920396,19.4235472 95.342544,18.15108 L95.3402678,18.10358 L95.3694792,18.06634 C100.186325,11.9928 102.347968,7.60988 102.3768,3.85472 C102.395389,1.45578 101.290288,0.01482 99.4211379,0 C98.0542721,0 94.804599,1.14038 93.6752181,11.70286 C93.464184,13.685763 93.3502369,15.6778296 93.3337862,17.6719 L93.3330275,17.71142 L93.3106447,17.74334 C91.1068914,20.93838 86.403477,26.43432 81.7986986,26.43432 C77.638161,26.43432 74.318684,23.06258 74.318684,17.11102 C74.318684,9.13254 79.9564837,4.23396 84.1993443,4.23396 L84.2346256,4.23396 C85.1564918,4.2408 85.9470963,4.49882 86.520702,4.9799 C87.116311,5.47922 87.4285315,6.17918 87.4220822,7.00378 C87.4137361,8.1054 87.0552326,8.6716 86.7088689,9.21842 C86.620476,9.3594 86.5313243,9.49924 86.4501394,9.64744 C86.3681957,9.79716 86.2934601,10.01414 86.4023389,10.19996 C86.5138733,10.39034 86.7987793,10.51004 87.1459017,10.5127 C88.1557815,10.5127 89.6831203,9.04818 89.6998125,6.8419 C89.7172635,4.53264 87.7752746,2.15308 84.3104994,2.15308 C79.0672432,2.15308 72.005293,7.923 72.005293,17.27404 C72.005293,23.8887 76.1457241,28.46048 81.7543124,28.46048 C85.7342705,28.46048 89.6713598,25.60592 93.1581384,20.83806 L93.3717231,20.54926 L93.3868978,20.90798 C93.4608747,22.65332 93.5872046,24.02816 93.6793912,25.0325 C93.7389521,25.67812 93.7822001,26.14438 93.7806826,26.40164 C93.7761302,26.96518 93.8675581,27.35734 94.0621743,27.5975 C94.2560317,27.83804 94.5640792,27.95166 95.0314616,27.9547 C95.8144788,27.9547 95.9715374,27.42004 96.2814818,26.10068 L96.3706334,25.7241 C96.7560721,24.12544 98.1794638,18.90728 100.320242,18.90728 C100.67002,18.9107 100.939751,19.01406 101.131332,19.21736 C101.604026,19.71972 101.552432,20.75066 101.492492,21.945 C101.454555,22.69018 101.416618,23.45968 101.490974,24.20942 C101.692419,26.2333 102.564967,27.2232 104.157937,27.2346 C105.793775,27.23536 107.500935,25.47026 108.401935,23.83018 L108.571893,23.52124 L108.638282,23.86856 C108.804446,24.74636 109.548009,27.62752 111.876195,27.62752 C113.986244,27.62752 115.796592,25.40186 117.780691,20.82096 L118.040558,20.22284 L118.024625,20.8753 C117.982515,22.61114 117.888811,24.73078 117.888052,26.36972 C117.887294,27.6374 118.015141,28.12114 118.600127,28.12114 L118.732907,28.12722 C119.293993,28.12722 119.674879,27.79168 119.864943,27.1282 C121.358139,21.91574 122.648372,19.4883 123.926845,19.4883 C125.178762,19.4978 125.295987,21.79072 125.396519,25.84228 L125.403348,26.12652 C125.433698,27.54354 125.484912,28.17054 126.363531,28.177 C127.030461,28.177 127.196245,27.65222 127.541091,26.36022 C127.607101,26.11398 127.678423,25.8438 127.763022,25.55196 C128.968656,21.36246 129.967913,19.65322 131.212243,19.65322 C132.277511,19.6612 132.336692,20.7613 132.356419,21.12268 C132.397391,21.89674 132.317724,22.70728 132.241091,23.4897 C132.169391,24.21702 132.095793,24.96942 132.123487,25.66824 C132.188738,27.3068 133.084049,28.21614 134.645531,28.22792 C136.672119,28.22792 138.501435,25.85368 140.10351,21.17284 L140.214665,20.8468 L140.341753,21.1679 C140.632729,21.90358 141.011339,22.89956 141.361497,24.08782 L141.374774,24.13304 L141.355427,24.17598 C139.803808,27.62638 138.709329,31.4697 138.693775,33.52322 C138.67291,36.22768 139.894477,37.98518 141.806117,38 L141.839122,38 C142.878972,38 145.302759,37.58162 145.349801,33.7117 C145.369149,32.12558 144.994712,29.88282 144.23863,27.0446 L144.151754,26.7197 L144.43059,26.9059 C145.399119,27.54772 146.487528,27.89086 147.582386,27.89998 Z M95.3482345,14.77516 C95.3914826,13.8054 95.4730468,12.8611 95.5887543,11.9681 C96.3391458,6.21414 97.9044215,2.19602 99.3972377,2.19602 L99.4040663,2.19602 C100.115762,2.20134 100.47161,2.74056 100.464402,3.79772 C100.443916,6.39578 98.8004906,10.11522 95.5804082,14.85268 L95.3285073,15.22356 L95.3482345,14.77516 Z M142.948776,35.46122 C142.711291,35.77814 142.380481,35.93888 141.96621,35.93888 C141.490482,35.9347 141.133117,35.76902 140.889941,35.44336 C140.208595,34.53174 140.400555,32.38854 141.512106,28.49848 C141.645264,28.03336 141.789045,27.56634 141.941551,27.1092 L142.070537,26.72122 L142.183968,27.11376 C143.478754,31.60422 143.735966,34.41242 142.948776,35.46122 Z M143.351665,23.95672 L143.328144,23.91378 L143.281103,23.76444 L143.303106,23.71998 C144.779609,20.67238 146.471594,18.92552 147.943545,18.92552 L147.95872,18.92552 C149.621114,18.93806 150.770601,20.43678 150.754668,22.5682 C150.743666,23.99092 150.117328,24.8102 149.594558,25.24682 C148.997811,25.74538 148.203033,26.03038 147.413946,26.03038 C145.468543,26.01556 144.133165,24.89418 143.351665,23.95672 Z M49.1790519,27.3961 C51.4582996,27.2137 53.2663713,24.10872 53.9378541,22.78176 L54.1108462,22.43976 L54.1764771,22.81748 C54.4989405,24.68328 55.5122346,27.81828 58.6818609,27.84336 L58.7084167,27.84336 C60.0794555,27.84336 61.6348676,27.00318 63.2069719,25.4144 L63.3223,25.29774 L63.4061405,25.43796 C64.4645795,27.21104 65.8841775,28.15306 67.3955828,28.07554 C69.6205808,27.95964 70.9711337,26.38036 71.0898761,25.2833 C71.1202256,25.00362 71.0466281,24.74028 70.8869138,24.56282 C70.6869865,24.33938 70.39639,24.31354 70.1831847,24.51836 L70.0811345,24.61488 C69.5632961,25.11306 68.5981819,26.0414 67.5465716,26.09612 C66.2589939,26.1592 65.3067782,25.38818 64.691442,23.79674 L64.6660243,23.72986 L64.7092723,23.67362 C68.2499213,19.03496 70.7344076,11.95708 70.488956,7.20974 C70.3759041,5.01258 69.7381851,2.39324 67.3424712,2.39324 L67.1637885,2.3978 C66.2460953,2.4453 65.411484,2.88344 64.6834753,3.6993 C62.4607535,6.1902 61.2976087,12.32112 61.7198462,19.31882 C61.807101,20.7727 62.0593813,22.13158 62.4687202,23.35632 L62.4918617,23.4251 L62.4451994,23.48058 C61.1314452,25.01844 59.835142,25.86546 58.7949128,25.86546 C56.2922168,25.86546 56.3764367,21.6619 56.5740878,18.17654 C56.6169565,17.4249 56.6803111,16.9461 56.4583804,16.67402 C56.2998042,16.47908 56.0342461,16.38294 55.6472899,16.3799 L55.602145,16.37952 C54.7113871,16.37952 54.525117,16.56306 54.0694951,17.88698 C53.1214524,20.63742 51.2500261,25.25328 49.3675982,25.25328 C48.8459661,25.24834 48.4476288,25.07012 48.1748627,24.72204 C47.261722,23.55468 47.9552081,20.64312 48.5121215,18.3027 C48.6122749,17.88204 48.7082552,17.4781 48.7905782,17.10418 C48.9123556,16.54938 48.8751775,16.14468 48.6794232,15.89958 C48.4829101,15.65524 48.0910222,15.55644 47.5739425,15.59748 C46.7677838,15.66208 46.2522216,16.00028 46.0029763,17.53586 L45.9528996,17.85506 L45.7654914,17.62782 C45.4134372,17.10722 44.727159,16.48706 43.4528593,16.48706 C43.3413248,16.48706 43.2256173,16.49162 43.1061162,16.50112 C41.7464584,16.61284 40.1982543,17.5617 39.0650797,18.97796 C37.7422208,20.63134 37.1101923,22.724 37.2862195,24.87138 C37.2953243,24.985 37.3116372,25.09406 37.32795,25.20236 L37.3370549,25.26202 L37.296083,25.30724 C36.5047197,26.1706 35.6981817,26.60912 34.899231,26.60912 C33.665903,26.6 32.9583802,25.68192 32.9583802,24.15242 C32.9583802,21.5783 34.7000624,13.81756 34.7000624,11.00822 C34.7000624,8.01838 33.3699954,6.39084 31.0603981,6.37298 L31.0254962,6.37298 C27.6529076,6.37298 25.0246406,10.20604 22.5094254,18.09256 C22.2705044,18.8496368 22.0385737,19.6089092 21.8136631,20.37028 L21.4604707,21.55626 L21.5647971,20.32354 C21.7923108,17.679896 21.9513198,15.0307849 22.0416637,12.37888 C22.1668554,8.56748 21.6528107,6.11458 20.4688007,4.88034 C19.830323,4.21458 18.985848,3.88664 17.8856785,3.87828 L17.8576052,3.87828 C13.7308315,3.87828 11.7539407,10.84976 10.3142361,15.76886 C9.8798588,17.2539 9.02362343,20.6036 8.45191465,22.89348 L8.79069099,22.3421 C9.04448871,19.45866 9.78008481,12.236 9.73190497,8.31744 C9.67955208,4.11388 8.28271617,2.22946 5.20034469,2.2059 L5.16240781,2.2059 C3.51594723,2.2059 2.37366778,3.02556 1.70559933,3.71298 C0.632744369,4.8165 -0.0357034517,6.42922 0.00147469045,7.82192 C0.0242368183,8.66856 0.542833964,9.4221 0.935860038,9.4221 C1.19193398,9.4221 1.33381791,9.07972 1.39527565,8.87566 C2.34900881,5.71824 3.58309551,4.18304 5.16658087,4.18304 C5.82326825,4.18798 6.31227463,4.38178 6.67798615,4.77584 C7.91548717,6.10546 7.69014211,9.6957 7.28232065,16.21384 C7.15030031,18.31448 7.00158774,20.69442 6.87601667,23.40192 C6.85410951,23.8486528 6.82805839,24.2951721 6.79786669,24.74142 C6.67760679,26.62128 6.58200585,28.10708 7.29408108,28.21766 C8.22049968,28.36244 8.8233167,27.98548 9.1321229,27.0674 C9.58964167,25.70472 10.6158343,21.98034 12.6014506,15.17492 C14.5066407,8.64424 15.9459659,6.2681 17.787422,6.2681 C19.9149222,6.2681 20.0734984,9.92712 19.6835073,17.64872 C19.6004255,19.28576 19.4892704,21.13978 19.4039125,23.1572 C19.392152,23.44068 19.3788741,23.7158 19.3652168,23.98028 C19.2832732,25.65114 19.2187805,26.9686 19.6952677,27.474 C19.8439803,27.63132 20.0458045,27.70922 20.3132595,27.71074 C21.235505,27.71074 21.5128236,26.90096 21.9722392,25.55842 C22.0534241,25.32168 22.1395409,25.0686 22.2355212,24.80412 C25.3956632,16.0721 27.7321957,8.49604 30.8684375,8.49604 C31.8088928,8.49604 32.5410745,9.26136 32.5410745,10.754 C32.5410745,14.19946 30.8589533,20.85668 30.8589533,24.2326 C30.8589533,25.44214 31.2064551,26.52742 31.8627631,27.29046 C32.5365221,28.07402 33.4792536,28.49126 34.5889073,28.50076 L34.6131869,28.50076 C35.662521,28.50076 36.7554825,27.99004 37.8632394,26.98304 L37.9671864,26.8888 L38.0506476,27.00166 C38.7801738,27.98358 39.9569758,28.5114 41.2278613,28.41336 C43.1770581,28.26136 44.812517,26.52286 45.4210246,24.88354 L45.5401464,24.56282 L45.6588888,24.88354 C46.1110964,26.09992 47.0891092,27.56596 49.1790519,27.3961 Z M67.1398882,4.58014 L67.1732727,4.57938 C67.3959622,4.57938 67.5917165,4.6911 67.7540863,4.91226 C68.5279987,5.9603 68.5397591,9.78576 67.208554,14.13828 C66.4479195,16.62576 65.4247619,18.97568 64.2509948,20.93306 L64.0635866,21.24466 L64.0157862,20.88404 C63.8776959,19.83144 63.8094096,18.73552 63.7616091,17.803 C63.422074,11.22406 65.4088284,4.6702 67.1398882,4.58014 Z M45.5128318,19.95608 C44.8307267,22.70538 43.5226631,26.0243 41.1641273,26.2143 L40.9721667,26.22228 C39.9937746,26.22228 39.4452073,25.58084 39.3416396,24.31468 C39.2118955,22.73084 39.8936212,20.87606 41.0780106,19.58824 C41.8318164,18.7682 42.6823612,18.31676 43.4725864,18.31676 L43.4885199,18.31676 C44.4858805,18.32436 45.1850572,19.12654 45.5063826,19.87476 L45.5234542,19.91352 L45.5128318,19.95608 Z M56.4519311,9.87658 C55.5812797,9.87658 54.8783093,10.56362 54.8714807,11.40836 C54.864652,12.25918 55.5634494,12.95686 56.4284102,12.96332 L56.4409294,13.08986 L56.4409294,12.96332 C57.2990616,12.96332 58.0016526,12.27666 58.0084813,11.4323 C58.0153099,10.5811 57.316892,9.88342 56.4519311,9.87658 Z M111.192193,9.87658 C110.321542,9.87658 109.618951,10.56362 109.611743,11.40836 C109.604914,12.25918 110.303332,12.95686 111.168672,12.96332 L111.180812,13.08986 L111.180812,12.96332 C112.039703,12.96332 112.742294,12.27666 112.749123,11.4323 C112.755192,10.5811 112.057154,9.88342 111.192193,9.87658 Z" id="Shape"></path>
                <path d="M153.999823,26 C153.447764,26.0009778 153.000586,26.4486325 153,27.0008873 C153.001173,27.5526109 153.448294,27.9994145 153.999823,28 C154.551409,27.9994151 154.998632,27.5526683 155,27.0008873 C154.999609,26.4484132 154.552101,26.0005872 153.999823,26 Z M153.999823,27.8555457 C153.526521,27.8555457 153.145113,27.4747116 153.145113,27.0012422 C153.145113,26.5277728 153.526521,26.145874 153.999823,26.145874 C154.472769,26.145874 154.854887,26.5277728 154.854887,27.0012422 C154.854887,27.4747116 154.472769,27.8555457 153.999823,27.8555457 Z M154.442966,26.7396628 C154.442966,26.5330967 154.341494,26.4202307 154.080362,26.4202307 L153.636864,26.4202307 L153.636864,27.5730257 L153.781976,27.5730257 L153.781976,27.068323 L153.989179,27.068323 L154.333333,27.5730257 L154.49725,27.5730257 L154.153096,27.068323 C154.309207,27.0409938 154.442966,26.9522626 154.442966,26.7396628 Z M153.967891,26.9384206 L153.782686,26.9384206 L153.782686,26.5483585 L154.040624,26.5483585 C154.164449,26.5483585 154.299273,26.5913043 154.299273,26.738953 C154.298208,26.9309672 154.126486,26.9384206 153.967891,26.9384206 Z" id="Shape"></path>
            </g>
            <g id="twitter" transform="translate(0.000000, 233.000000)">
                <path d="M58.4039675,32.0084351 L58.4039675,32 L60.6077547,32 L61.4129847,32.1602664 C61.9498188,32.264313 62.4371948,32.4006659 62.8751127,32.5693674 C63.313073,32.7380688 63.7368783,32.9349012 64.1465284,33.1598224 C64.5562209,33.3847436 64.927771,33.6139245 65.2611785,33.8472808 C65.5917466,34.0778535 65.8884103,34.3224706 66.1511695,34.5811321 C66.4110469,34.8426193 66.8165014,34.9100999 67.3674482,34.7835738 C67.918395,34.6570477 68.5117223,34.481303 69.1474301,34.2563818 C69.783138,34.0314606 70.4118106,33.7784084 71.0333634,33.4972253 C71.6549585,33.2160422 72.0335861,33.0375139 72.1692038,32.9615982 C72.301982,32.882899 72.3726303,32.8407236 72.3811064,32.8350721 L72.3895401,32.8224195 L72.4319206,32.8013319 L72.4743012,32.7802442 L72.5166817,32.7591565 L72.5590622,32.7380688 L72.5675383,32.7254162 L72.5802525,32.7169811 L72.593009,32.7085461 L72.6014427,32.6958935 L72.6438233,32.6832408 L72.6862038,32.6748058 L72.6777701,32.7380688 L72.6650135,32.8013319 L72.6438233,32.8645949 L72.622633,32.9278579 L72.6014427,32.9700333 L72.5802525,33.0122087 L72.5590622,33.0754717 C72.5449495,33.1176471 72.5308368,33.1738668 72.5166817,33.2441731 C72.502569,33.3144795 72.3683499,33.5956204 72.1140667,34.0876804 C71.8597836,34.5797403 71.5419297,35.0788013 71.160505,35.5849057 C70.7790803,36.09101 70.437239,36.4733718 70.1349387,36.7320755 C69.8297989,36.9935627 69.627771,37.1763086 69.5288548,37.2803552 C69.4299811,37.3871853 69.309917,37.4855805 69.1686204,37.5755827 L68.9567178,37.7147614 L68.9143372,37.7358491 L68.8719567,37.7569367 L68.863523,37.7695894 L68.8507665,37.7780244 L68.8380523,37.7864595 L68.8295762,37.7991121 L68.7871957,37.8201998 L68.7448151,37.8412875 L68.7363814,37.8539401 L68.7236249,37.8623751 L68.7109107,37.8708102 L68.7024346,37.8834628 L68.6940009,37.8961154 L68.6812444,37.9045505 L68.6685302,37.9129856 L68.6600541,37.9256382 L68.8719567,37.9256382 L70.0586114,37.672586 C70.8497286,37.5038846 71.6055005,37.3000511 72.3259693,37.0610433 L73.4702435,36.681465 L73.597385,36.6392897 L73.6609558,36.618202 L73.7033363,36.5971143 L73.7457169,36.5760266 L73.7880974,36.554939 L73.8304779,36.5338513 L73.915239,36.5211987 L74,36.5127636 L74,36.5971143 L73.9788097,36.6055494 L73.9576195,36.618202 L73.9491858,36.6308546 L73.9364292,36.6392897 L73.9237151,36.6477248 L73.915239,36.6603774 L73.9068052,36.67303 L73.8940487,36.681465 L73.8813345,36.6899001 L73.8728584,36.7025527 L73.8644247,36.7152053 L73.8516682,36.7236404 L73.8304779,36.7658158 L73.8092876,36.8079911 L73.7965735,36.8164262 C73.7909369,36.8248613 73.6115401,37.0638269 73.2583408,37.5334073 C72.9051839,38.0057714 72.7144716,38.244737 72.6862038,38.2503885 C72.6579784,38.2588235 72.618395,38.3009989 72.5675383,38.3769145 C72.5195212,38.4556138 72.220018,38.7691454 71.6690712,39.3174251 C71.1181244,39.8657048 70.5785356,40.353505 70.0501776,40.7809101 C69.5190225,41.2110988 69.2505843,41.7396826 69.2449477,42.3667037 C69.2364716,42.990899 69.2039657,43.6966615 69.1474301,44.4839068 C69.0909369,45.2711942 68.9849856,46.1217026 68.8295762,47.0355161 C68.6742092,47.9493296 68.4340388,48.982626 68.1091073,50.1354051 C67.7842182,51.2881842 67.3886384,52.4128746 66.9224527,53.509434 C66.4562669,54.6059933 65.9688909,55.590071 65.4603246,56.4617092 C64.9517583,57.3333474 64.4855726,58.0714162 64.0617674,58.6759156 C63.6379621,59.2804151 63.2071217,59.8497825 62.7691614,60.3840178 C62.3312435,60.9182531 61.7774995,61.5199689 61.1078873,62.1891232 C60.4354355,62.8554939 60.0681659,63.2210277 60.0059937,63.2856826 C59.9410243,63.3475538 59.6641524,63.5781265 59.1752931,63.9773585 C58.689358,64.3794162 58.1666366,64.7814739 57.6072137,65.1835738 C57.0506303,65.5828479 56.5392245,65.9160333 56.0730388,66.1831299 C55.606853,66.4502264 55.044633,66.7552808 54.386294,67.0983352 C53.7308368,67.4441731 53.0216411,67.7647059 52.2587917,68.0599334 C51.4959423,68.3551609 50.6907124,68.6293008 49.8431019,68.8823529 C48.9954914,69.1354051 48.1761488,69.3322375 47.3850316,69.472808 C46.5939567,69.6133785 45.6968882,69.7329034 44.6938683,69.8312986 L43.1893598,69.9789123 L43.1893598,70 L40.4346258,70 L40.4346258,69.9789123 L40.0743913,69.9578246 C39.8342633,69.9437802 39.6364734,69.9296937 39.481064,69.9156493 C39.325697,69.9016049 38.7394049,69.8242553 37.7222723,69.6836848 C36.7051398,69.5431143 35.9069874,69.4025017 35.3277728,69.2619312 C34.7486005,69.1213607 33.886835,68.854222 32.7425609,68.4605993 C31.5982867,68.0669767 30.6192967,67.6690943 29.8055906,67.2670366 C28.9947241,66.8677625 28.4861578,66.6147103 28.2798918,66.5078801 C28.0764653,66.4038335 27.8476105,66.2745239 27.5933273,66.1198668 L27.2119026,65.8879023 L27.2034689,65.8752497 L27.1907124,65.8668147 L27.1779982,65.8583796 L27.1695221,65.845727 L27.1271416,65.8246393 L27.084761,65.8035516 L27.0763273,65.790899 L27.0635708,65.7824639 L27.0508566,65.7740289 L27.0423805,65.7613762 L27.0339468,65.7487236 L27.0211903,65.7402886 L27,65.7402886 L27,65.6559378 L27.0423805,65.6643729 L27.084761,65.6770255 L27.2754734,65.6981132 C27.402615,65.7121576 27.7487367,65.7332453 28.3137962,65.7613762 C28.8788981,65.7895072 29.4792606,65.7895072 30.1149684,65.7613762 C30.7506763,65.7332453 31.4005392,65.6699822 32.0644725,65.5715871 C32.7284481,65.473192 33.5124878,65.3044906 34.4165915,65.0654828 C35.3207376,64.826475 36.1513959,64.5425083 36.9086087,64.2135405 C37.662982,63.8817891 38.1997737,63.6343463 38.5190685,63.4712542 C38.8354815,63.3109878 39.3186195,63.0129345 39.96844,62.5771365 L40.9431921,61.9234184 L40.9516682,61.9107658 L40.9643823,61.9023307 L40.9771389,61.8938957 L40.9855726,61.8812431 L40.9940487,61.8685905 L41.0067628,61.8601554 L41.0195194,61.8517203 L41.0279531,61.8390677 L41.0703336,61.8264151 L41.1127142,61.81798 L41.1211903,61.7758047 L41.1339044,61.7336293 L41.146661,61.7251942 L41.1550947,61.7125416 L40.8160505,61.6914539 C40.5900352,61.6774095 40.371055,61.663323 40.1591524,61.6492786 C39.9472498,61.6352342 39.6152831,61.5719711 39.1632101,61.4594895 C38.7111794,61.3470078 38.2238034,61.1783063 37.7010821,60.9533851 C37.1784031,60.7284639 36.6698368,60.4613252 36.1753832,60.1520533 C35.6809721,59.8427814 35.3235347,59.5854695 35.103156,59.3802442 C34.8856168,59.1777603 34.6030658,58.89101 34.2555455,58.5198668 C33.9108647,58.1459401 33.6113616,57.7621021 33.3570785,57.3684795 C33.1027953,56.9748568 32.8598278,56.5207125 32.6281758,56.0062153 L32.2763751,55.2386238 L32.2551848,55.1753607 L32.2339946,55.1120977 L32.2212804,55.0699223 L32.2128043,55.0277469 L32.2763751,55.036182 L32.3399459,55.0488346 L32.8061316,55.1120977 C33.1169504,55.154273 33.6043264,55.1683174 34.2682597,55.154273 C34.9322353,55.1402286 35.3913436,55.1120977 35.6456267,55.0699223 C35.8999098,55.0277469 36.0553192,54.999616 36.1118124,54.9855716 L36.1965735,54.9644839 L36.3025248,54.9433962 L36.4084761,54.9223085 L36.4169522,54.9096559 L36.4296664,54.9012209 L36.4424229,54.8927858 L36.4508566,54.8801332 L36.3660956,54.8590455 L36.2813345,54.8379578 L36.1965735,54.8168701 L36.1118124,54.7957825 L36.0270514,54.7746948 C35.9705582,54.7606504 35.8716844,54.7325194 35.7303877,54.6903441 C35.5891334,54.6481687 35.2077088,54.4935117 34.5861136,54.2264151 C33.9645609,53.9593185 33.4701073,53.6992231 33.1027953,53.4461709 C32.7345728,53.1923852 32.3834735,52.914838 32.0517583,52.6153163 C31.7211903,52.3116537 31.3581587,51.9208147 30.9625789,51.4428413 C30.5670415,50.9648679 30.2138846,50.409545 29.9030658,49.7769145 C29.5922894,49.1442841 29.3591966,48.5397847 29.2037872,47.963374 C29.0490027,47.390354 28.9468834,46.8045174 28.8986898,46.2130966 L28.8223625,45.327414 L28.864743,45.3358491 L28.9071235,45.3485017 L28.9495041,45.3695893 L28.9918846,45.390677 L29.0342651,45.4117647 L29.0766456,45.4328524 L29.7335437,45.7280799 C30.1715041,45.9249123 30.7153733,46.0936138 31.3651939,46.2341842 C32.0150568,46.3747547 32.4035167,46.4521043 32.5306583,46.4661487 L32.7213706,46.4872364 L33.1027953,46.4872364 L33.0943616,46.4745838 L33.0816051,46.4661487 L33.0688909,46.4577137 L33.0604148,46.445061 L33.0519811,46.4324084 L33.0392245,46.4239734 L33.0265104,46.4155383 L33.0180343,46.4028857 L32.9756537,46.381798 L32.9332732,46.3607103 L32.9248395,46.3480577 L32.912083,46.3396226 L32.8993688,46.3311876 L32.8908927,46.318535 L32.8485122,46.2974473 L32.8061316,46.2763596 L32.7976979,46.263707 C32.7892218,46.2580555 32.6677169,46.1680954 32.433183,45.9937847 C32.2014887,45.8166482 31.9585212,45.5875094 31.7042381,45.3063263 C31.4499549,45.0251432 31.1956718,44.7299156 30.9413886,44.4206437 C30.6866373,44.1106632 30.4597361,43.7790153 30.2633003,43.4295228 C30.0655528,43.0780755 29.8564472,42.6309745 29.6360685,42.0883463 C29.4185293,41.5485017 29.2532453,41.0044395 29.1402164,40.4561598 C29.0272299,39.9078801 28.9636592,39.3666437 28.9495041,38.8324084 C28.9353913,38.2981731 28.9495041,37.8412875 28.9918846,37.4617092 C29.0342651,37.082131 29.1190261,36.6533341 29.2461677,36.1753607 C29.3733093,35.6973873 29.5569865,35.191283 29.7971145,34.6570477 L30.157349,33.8557159 L30.1785392,33.7924528 L30.1997295,33.7291898 L30.212486,33.7207547 L30.2209198,33.7081021 L30.2293958,33.6954495 L30.24211,33.6870144 L30.2548665,33.6954495 L30.2633003,33.7081021 L30.2717764,33.7207547 L30.2844905,33.7291898 L30.2972471,33.7376249 L30.3056808,33.7502775 L30.3141569,33.7629301 L30.3268711,33.7713652 L30.3480613,33.8135405 L30.3692516,33.8557159 L30.3820081,33.8641509 L30.3904418,33.8768035 L30.9625789,34.509434 C31.3440036,34.9311876 31.7960766,35.4021598 32.3187556,35.9223085 C32.841477,36.4424573 33.1310631,36.7123796 33.1875564,36.7320755 C33.244092,36.7545549 33.3146979,36.8192098 33.399459,36.9260821 C33.48422,37.0301288 33.766771,37.2789634 34.2470694,37.672586 C34.7274103,38.0662087 35.3560406,38.5231365 36.1330027,39.0432852 C36.9100072,39.563434 37.7717304,40.0765816 38.7182146,40.5826859 C39.6647412,41.0887902 40.6818738,41.5456759 41.7696123,41.9533851 C42.8573931,42.3610943 43.6202426,42.6281909 44.0581605,42.754717 C44.4961208,42.8812431 45.2448151,43.0429012 46.3043282,43.2397336 C47.3638413,43.436566 48.1620361,43.5630921 48.6988278,43.6193119 C49.2356619,43.6755316 49.6029739,43.7078801 49.8007214,43.7163152 L50.097385,43.7247503 L50.0889513,43.6614872 L50.0761948,43.5982242 L49.9914337,43.0710322 C49.9349405,42.7195849 49.9066727,42.227525 49.9066727,41.5948946 C49.9066727,40.9622641 49.9561307,40.3788524 50.0550045,39.8446171 C50.1539206,39.3103818 50.3022525,38.7691454 50.5,38.2208657 C50.6977899,37.672586 50.8913417,37.2325283 51.0806132,36.9007769 C51.2727665,36.5718091 51.5242101,36.1964484 51.8349865,35.7746948 C52.1458052,35.3529412 52.5484202,34.9171432 53.0428314,34.4672586 C53.5372849,34.017374 54.1023445,33.6167081 54.7380523,33.2652608 C55.3737601,32.9138135 55.9600523,32.6466748 56.496844,32.463929 C57.0336781,32.2811831 57.4857511,32.1616582 57.8530207,32.1054384 C58.2203327,32.0492186 58.4039675,32.0168701 58.4039675,32.0084351 Z" id="Shape" fill="#CCCCCC" fill-rule="nonzero"></path>
                <path d="M51,102 C79.1665222,102 102,79.1665222 102,51 C102,22.8334778 79.1665222,0 51,0 C22.8334778,0 0,22.8334778 0,51 C0,79.1665222 22.8334778,102 51,102 Z" id="Oval-Copy-3" stroke="#8943DD" stroke-dasharray="2,2"></path>
            </g>
            <g id="typeform" transform="translate(166.000000, 0.000000)">
                <polyline id="Shape" fill="#CCCCCC" fill-rule="nonzero" points="34 41.2525206 34 37 53 37 53 41.2525206 46.0494397 41.2525206 46.0494397 60 40.9505603 60 40.9505603 41.2525206 34 41.2525206"></polyline>
                <path d="M58.1158429,64.8740734 C57.2280895,65.4522191 55.9944846,65.7408871 54.4150284,65.7408871 C53.938613,65.7408871 53.4679276,65.7250974 53.0029724,65.6927083 C52.5371986,65.6603191 52.0665132,65.6230717 51.5909164,65.5805609 L51.5909164,61.8234235 C52.0235376,61.8659342 52.4672097,61.9088498 52.9219327,61.9513605 C53.3762463,61.9938712 53.83056,62.0048025 54.2852829,61.9837496 C54.8906252,61.9197811 55.3404367,61.6837454 55.6326709,61.277262 C55.9197856,60.8851674 56.0731807,60.4128014 56.0706129,59.9286602 C56.0706129,59.5650924 56.0055355,59.2217677 55.8757901,58.9007106 L50,43.3264041 L54.9020854,43.3264041 L58.7003113,54.6937693 L58.7649794,54.6937693 L62.4334599,43.3264041 L67.2053906,43.3264041 L60.1934071,61.9837496 C59.6952992,63.3319466 59.0027778,64.2955228 58.1158429,64.8740734 Z M73.2252513,43.3264041 L73.2252513,45.4458669 L73.2903286,45.4458669 C73.8526953,44.5466641 74.5669091,43.8936185 75.4325608,43.4871351 C76.2982125,43.0806517 77.2506341,42.8770051 78.2898254,42.8770051 C79.6093815,42.8770051 80.745575,43.1231624 81.6984058,43.615477 C82.650418,44.1081964 83.4403508,44.761242 84.0682041,45.5742088 C84.6956481,46.3879853 85.1606033,47.335367 85.4638884,48.4163537 C85.7667642,49.4977453 85.9186114,50.6269109 85.9186114,51.8046601 C85.9186114,52.918036 85.7667642,53.9880914 85.4638884,55.0152313 C85.1606033,56.0431808 84.7009689,56.953315 84.0841665,57.744824 C83.467364,58.5371428 82.6991237,59.1691354 81.7794455,59.6395873 C80.859358,60.1100392 79.7829211,60.3464798 78.5493163,60.3464798 C77.5105342,60.3464798 76.5527919,60.13757 75.6760893,59.7201552 C74.7993867,59.3027405 74.0798521,58.6873473 73.5174855,57.8735708 L73.4524081,57.8735708 L73.4524081,66 L68.8425569,66 L68.8425569,43.3264041 L73.2252513,43.3264041 Z M79.2168709,56.477195 C79.7151799,56.187265 80.1377179,55.7856616 80.4504757,55.304709 C80.7639931,54.8229209 80.9862384,54.2613746 81.1159838,53.6188555 C81.2461386,52.9763364 81.3112192,52.3236957 81.3112192,51.6597188 C81.3117727,51.0012192 81.2409701,50.3445576 81.1000215,49.700987 C80.9588159,49.0588728 80.7267475,48.4859903 80.40177,47.9827444 C80.0843699,47.4872351 79.6568627,47.0698912 79.1517935,46.7624845 C78.6434533,46.4527635 78.0209208,46.2968909 77.2854239,46.2968909 C76.5274158,46.2968909 75.894651,46.4527635 75.3863109,46.7624845 C74.8867002,47.0644864 74.4644914,47.4767237 74.152706,47.9669547 C73.8387794,48.4596742 73.6173526,49.0264837 73.4871979,49.6685979 C73.3560765,50.3243315 73.2908181,50.9912825 73.2923479,51.6597188 C73.2923479,52.3236957 73.362364,52.9763364 73.5035696,53.6188555 C73.6439566,54.2613746 73.8711134,54.8229209 74.1850401,55.304709 C74.4985574,55.7864971 74.9156255,56.1771908 75.4350166,56.477195 C75.9544076,56.7767943 76.5818516,56.9261891 77.3177579,56.9261891 C78.0753566,56.9261891 78.7081214,56.7767943 79.2168709,56.477195 Z M93.3014131,55.9464184 C93.9935251,56.6108001 94.9897409,56.9419788 96.2880138,56.9419788 C97.2187429,56.9419788 98.0193172,56.7128258 98.6905554,56.2516858 C99.3609751,55.7913555 99.7723131,55.3043041 99.923751,54.7905318 L103.981877,54.7905318 C103.332331,56.7816527 102.336525,58.2059641 100.995276,59.0614416 C99.6532092,59.9177289 98.0303681,60.3464798 96.1259343,60.3464798 C94.8055597,60.3464798 93.6149304,60.13757 92.5552745,59.7201552 C91.4943907,59.3027405 90.5959957,58.7088051 89.860908,57.9379441 C89.1250017,57.1678929 88.556905,56.2464225 88.1562085,55.176772 C87.755512,54.1059068 87.5557777,52.9285625 87.5557777,51.6439291 C87.5557777,50.4026163 87.7612421,49.2467297 88.1725801,48.1762694 C88.5835089,47.1054042 89.1679773,46.1798852 89.925576,45.398093 C90.6827655,44.6171104 91.586072,44.0013123 92.6363142,43.5519133 C93.6853286,43.1017046 94.8485353,42.87741 96.1259343,42.87741 C97.554362,42.87741 98.7986084,43.1502883 99.8586736,43.6960449 C100.919148,44.2422064 101.79053,44.9758198 102.472,45.8956707 C103.15388,46.8163314 103.645849,47.8657387 103.949134,49.0426782 C104.25201,50.2208323 104.360062,51.4516188 104.273702,52.7358472 L92.1652196,52.7358472 C92.230297,54.212386 92.6088917,55.2828463 93.3014131,55.9464184 Z M98.5121043,47.2122883 C97.9599699,46.6126848 97.1213315,46.3126806 95.9965982,46.3126806 C95.2602826,46.3126806 94.6492103,46.4361641 94.1621533,46.6819165 C93.6755056,46.9288836 93.28586,47.2337461 92.9940351,47.5973139 C92.7018009,47.9612866 92.4959272,48.3475268 92.3776419,48.7536054 C92.2581288,49.1600888 92.1877306,49.5240615 92.1660382,49.8451186 L99.6650787,49.8451186 C99.4477449,48.6888272 99.0634201,47.8118918 98.5121043,47.2122883 Z M104.331003,46.377054 L104.331003,43.3264041 L107.090037,43.3264041 L107.090037,42.0417708 C107.090037,40.5648271 107.554993,39.3554985 108.486131,38.4129752 C109.416451,37.4712616 110.823595,37 112.706337,37 C113.117265,37 113.529013,37.0165994 113.939941,37.0481788 C114.35087,37.0805679 114.751567,37.1076938 115.141622,37.1287467 L115.141622,40.532438 C114.581396,40.4674144 114.017771,40.435239 113.453703,40.4360804 C112.82585,40.4360804 112.376448,40.5810216 112.106315,40.8700945 C111.835364,41.1587625 111.700707,41.6462187 111.700707,42.3312485 L111.700707,43.3264041 L114.881721,43.3264041 L114.881721,46.377054 L111.700707,46.377054 L111.700707,59.9286602 L107.090856,59.9286602 L107.090856,46.377054 L104.331003,46.377054 Z M115.491157,48.0309232 C115.902085,46.9499365 116.486554,46.0292759 117.244152,45.2689414 C118.001342,44.5098214 118.909969,43.9207444 119.970853,43.5033297 C121.030918,43.0855101 122.221138,42.8770051 123.541922,42.8770051 C124.861069,42.8770051 126.057838,43.0855101 127.129772,43.5033297 C128.200888,43.9207444 129.116474,44.5098214 129.872435,45.2689414 C130.631262,46.0292759 131.215321,46.9499365 131.62625,48.0309232 C132.03636,49.11191 132.242643,50.3163802 132.242643,51.6435243 C132.242643,52.9706683 132.03636,54.1694705 131.62625,55.2403356 C131.215321,56.3112008 130.630853,57.2257884 129.872435,57.9857181 C129.116064,58.7456477 128.200888,59.3290567 127.129772,59.7355401 C126.058247,60.1420235 124.861069,60.3460749 123.541922,60.3460749 C122.221138,60.3460749 121.030918,60.1420235 119.970853,59.7355401 C118.909969,59.3290567 118.001342,58.7456477 117.244152,57.9857181 C116.486144,57.2257884 115.902085,56.3107959 115.491157,55.2403356 C115.079409,54.1694705 114.873945,52.9710732 114.873945,51.6435243 C114.873945,50.3159754 115.079409,49.11191 115.491157,48.0309232 Z M119.678619,53.5860615 C119.808364,54.2180541 120.029791,54.7856734 120.344536,55.2881096 C120.65298,55.7866556 121.082705,56.2008754 121.594513,56.4929847 C122.113495,56.792584 122.762631,56.9419788 123.541922,56.9419788 C124.321213,56.9419788 124.975261,56.792584 125.505294,56.4929847 C126.035327,56.1933854 126.458125,55.7917603 126.772051,55.2881096 C127.085978,54.7856734 127.308223,54.2176493 127.438787,53.5860615 C127.567714,52.9548786 127.63361,52.3075012 127.63361,51.6435243 C127.63361,50.9803571 127.568124,50.3265018 127.438787,49.6843876 C127.308223,49.0422734 127.085978,48.4754638 126.772051,47.9827444 C126.458125,47.4908347 126.035327,47.0892097 125.505294,46.7782742 C124.975261,46.4685532 124.321213,46.3126806 123.541922,46.3126806 C122.762631,46.3126806 122.113495,46.4685532 121.594513,46.7782742 C121.087634,47.0766053 120.659308,47.4893382 120.344536,47.9827444 C120.029791,48.4754638 119.808364,49.0422734 119.678619,49.6843876 C119.548549,50.3294838 119.48329,50.9857227 119.483793,51.6435243 C119.483793,52.3075012 119.548873,52.9548786 119.678619,53.5860615 Z M138.289107,43.3264041 L138.289107,46.4090382 L138.353776,46.4090382 C138.569472,45.8952659 138.862116,45.4191459 139.230069,44.9802734 C139.598022,44.5414008 140.020002,44.1664968 140.496417,43.8567759 C140.96928,43.5478307 141.482838,43.3046599 142.022665,43.1340937 C142.568198,42.9619761 143.137568,42.8752337 143.710175,42.8769785 C144.013869,42.8769785 144.349079,42.930852 144.717441,43.0373312 L144.717441,47.2762568 C144.459457,47.2276406 144.199444,47.1902223 143.93815,47.1641095 C143.646853,47.1325886 143.354071,47.1163712 143.061038,47.1155258 C142.217079,47.1155258 141.502865,47.2552039 140.918806,47.5333454 C140.334338,47.8118918 139.863652,48.1916542 139.507159,48.6730375 C139.149848,49.1548256 138.894859,49.7167767 138.74383,50.358891 C138.592802,51.0010052 138.516674,51.6969663 138.516674,52.4467744 L138.516674,59.9286602 L133.907232,59.9286602 L133.907232,43.3264041 L138.289107,43.3264041 Z M150.704559,43.3264041 L150.704559,45.5742088 L150.768817,45.5742088 C151.37416,44.7187312 152.105973,44.0543495 152.960165,43.5830879 C153.814765,43.1130408 154.7942,42.8770051 155.89806,42.8770051 C156.958534,42.8770051 157.926918,43.0806517 158.80403,43.4871351 C159.680323,43.8936185 160.345422,44.6110374 160.800964,45.6385821 C161.298253,44.9106368 161.973993,44.2685225 162.829822,43.7118346 C163.684423,43.1551467 164.695782,42.8770051 165.865128,42.8770051 C166.752473,42.8770051 167.57433,42.9842941 168.331519,43.1980622 C169.089937,43.4122353 169.738664,43.755155 170.279747,44.2256069 C170.819603,44.6968686 171.241992,45.3122618 171.546505,46.0717866 C171.848153,46.8321211 172,47.7475185 172,48.8179788 L172,59.9286602 L167.38933,59.9286602 L167.38933,50.5196219 C167.38933,49.962934 167.368456,49.4386352 167.324662,48.9459158 C167.282096,48.4540061 167.162992,48.0260649 166.96776,47.6616873 C166.772937,47.2981195 166.486024,47.0090466 166.107838,46.7944687 C165.728834,46.5807006 165.215583,46.4734116 164.566037,46.4734116 C163.916082,46.4734116 163.392189,46.5968951 162.990674,46.8426475 C162.599287,47.0794623 162.275427,47.4111064 162.049712,47.8062237 C161.822555,48.2025855 161.670708,48.6519845 161.595398,49.1548256 C161.519358,49.659703 161.481598,50.169499 161.482434,50.6799481 L161.482434,59.9286602 L156.871764,59.9286602 L156.871764,50.6159796 C156.871764,50.1232601 156.861123,49.6366137 156.839021,49.1548256 C156.816919,48.6730375 156.726056,48.2289017 156.562749,47.8224183 C156.401079,47.4159349 156.130128,47.0892097 155.752352,46.8426475 C155.372938,46.5968951 154.815483,46.4734116 154.079986,46.4734116 C153.862652,46.4734116 153.576558,46.5215904 153.218837,46.617948 C152.861116,46.7143057 152.516083,46.8960896 152.180464,47.1641095 C151.845664,47.4317246 151.558341,47.8171551 151.320133,48.3195912 C151.081925,48.823242 150.96364,49.4811459 150.96364,50.2949224 L150.96364,59.9286602 L146.35297,59.9286602 L146.35297,43.3264041 L150.704559,43.3264041 Z" id="Shape" fill="#CCCCCC" fill-rule="nonzero"></path>
                <polygon id="Shape" fill="#CCCCCC" fill-rule="nonzero" points="177 32 181 32 181 71 177 71"></polygon>
                <use id="Rectangle" stroke="#50E3C2" mask="url(#mask-2)" stroke-width="2" stroke-dasharray="2,2" xlink:href="#path-1"></use>
            </g>
            <g id="vimeo" transform="translate(365.000000, 146.000000)" fill="#CCCCCC" fill-rule="nonzero">
                <path d="M119.570261,38.9910008 C116.877864,38.8136781 114.78387,37.9789229 113.13303,36.423585 C112.461395,35.7912454 111.752099,34.8356263 111.342004,34.008399 C111.272957,33.8678791 111.20684,33.7537066 111.195123,33.7537066 C111.184243,33.7537066 111.012673,33.854078 110.814321,33.9774511 C110.377026,34.2492902 109.057609,35.0066758 108.497286,35.3073717 C104.821917,37.2830148 101.039002,38.4506683 97.2192633,38.7885853 C95.9973486,38.8973209 94.5628541,38.9161405 93.6844982,38.835007 C91.7302715,38.6543385 90.1426192,38.096441 88.8583532,37.1374763 C88.5369729,36.8974214 87.7736946,36.1538369 87.5284747,35.8410128 C87.2821991,35.5223157 87.0551293,35.1892462 86.8484708,34.8435724 L86.7112146,34.6051904 L86.2969353,34.9615087 C84.0271867,36.9149864 81.671653,38.1361714 79.3387164,38.5686047 C78.2138852,38.7777117 77.0091275,38.8007135 76.1667595,38.6292457 C74.9942234,38.3917001 74.1430677,37.7827805 73.6589049,36.835944 C73.1023478,35.7485875 72.9684394,34.2706192 73.2345825,32.1477648 C73.3935988,30.878067 73.5304365,30.1988874 74.0924336,27.8777996 C74.3924723,26.6432318 74.6548492,25.2104306 74.7506774,24.2865958 C74.808007,23.7387354 74.808007,22.9357645 74.7519328,22.5622994 C74.6272305,21.7354903 74.320078,21.2578899 73.7727271,21.0379093 C73.5785598,20.959285 73.083517,20.9433929 72.8378786,21.0069614 C71.8205927,21.2708545 70.6409428,22.5070951 69.3123197,24.7014641 C67.4794475,27.7284972 66.4738786,30.5702615 66.2010401,33.49065 C66.144129,34.1012425 66.1524982,35.8234478 66.2148494,36.3817636 C66.2855698,37.0132667 66.4178044,37.6435153 66.5726361,38.0901678 C66.6450303,38.2984384 66.712403,38.4945808 66.7220277,38.5251104 C66.7396032,38.5794782 66.7144953,38.5803147 65.8076839,38.5631679 C64.7983488,38.5447665 64.1618651,38.494999 63.4667965,38.3799902 C60.9509911,37.9642854 59.5265397,36.9559714 58.9055392,35.1501233 C58.531014,34.0619304 58.4276534,32.886749 58.5523556,31.1402872 C58.6381407,29.9370855 58.8084556,28.9438272 59.1787962,27.489697 C59.5210997,26.1451389 59.686393,25.2999284 59.7956121,24.3363633 C59.8567078,23.7943579 59.8654956,22.7831164 59.8106768,22.5129501 C59.6328296,21.6305185 59.2198056,21.1596096 58.4870752,21.0040339 C58.3385205,20.9726679 58.1744826,20.9626308 57.9514414,20.9714132 C57.6811136,20.9818686 57.5940731,20.9977607 57.4049274,21.0722028 C56.4545957,21.4465044 55.4398206,22.6852543 54.3735744,24.7750698 C53.1872291,27.0990851 52.4511509,29.5761668 52.1954695,32.1034341 C52.0569579,33.4714122 52.0582133,35.4198713 52.1979802,36.7029519 C52.2728853,37.390914 52.427717,38.1340803 52.5779455,38.5251104 C52.5988687,38.5794782 52.5779455,38.5798965 51.7837009,38.5619133 C50.5952632,38.5355658 49.819431,38.4418858 48.9519552,38.221487 C47.6668524,37.8952801 46.631154,37.3156355 45.9180914,36.5247927 C45.4335102,35.9873877 45.0154647,35.1890172 44.7727556,34.3375334 C44.7469907,34.240125 44.7171136,34.1438497 44.6832043,34.0489657 C44.6773458,34.0426925 44.5509697,34.1480825 44.4019965,34.284002 C42.2665748,36.2295336 40.3295051,37.4507186 38.2731732,38.1474632 C37.136625,38.5326383 35.8933686,38.7467638 34.7936453,38.7467638 C33.1725159,38.7467638 32.0100229,38.1855206 31.2534401,37.0387778 C30.952146,36.5820881 30.7847604,36.1956583 30.632858,35.6059765 C30.3399332,34.4705255 30.3930782,33.084146 30.8123791,30.9357805 C31.0877284,29.5255629 31.3689361,28.3876025 32.0213215,26.0451858 C32.4900011,24.3610379 32.8113814,23.1783286 33.007641,22.4096513 C33.1620543,21.8044956 33.1716789,21.7480367 33.1691681,21.4314487 C33.1607989,20.3959508 32.7419164,19.794559 32.0213215,19.7845219 C31.8192034,19.7820126 31.7840524,19.7912133 31.5664511,19.9028764 C31.2442339,20.068071 30.9889709,20.2332655 30.3642042,20.6794999 L29.831918,21.0600746 L29.7536652,21.2967838 C29.3192996,22.6087211 28.3660387,24.5174499 27.2658969,26.2777128 C26.0540253,28.2169712 24.2027407,30.7546939 22.6134145,32.6588223 C19.5017164,36.3842728 16.8314978,38.4067558 14.4763826,38.8207877 C14.036577,38.8985755 13.3820993,38.8939752 13.0515128,38.8111688 C11.5919105,38.4473226 10.3800388,36.9718635 9.32927579,34.2794017 C9.24056143,34.051475 8.79782655,32.4576614 7.95671397,29.3294205 C7.50815469,27.6543123 7.05537524,25.9803356 6.59837992,24.3075065 C6.17489438,22.8333021 5.6183373,21.4812161 5.13250064,20.7485052 C4.75923077,20.1847527 4.29138806,19.817979 3.89510268,19.7782486 C3.73441251,19.7619383 3.70846775,19.7698844 3.45906322,19.8940939 C3.19836017,20.0254131 2.44638041,20.5088685 1.8019459,20.959285 C1.62200639,21.0851675 1.45880545,21.1968306 1.43997457,21.2081224 C1.41737751,21.2206688 1.16127756,20.910354 0.726911963,20.3445104 C0.489151248,20.0329657 0.249786683,19.7226468 0.00882779056,19.413566 C-0.0267416469,19.3721628 0.0284955971,19.3131946 0.487969036,18.9025085 C1.52726678,17.9699423 2.5618623,17.0321551 3.5917163,16.0891827 C5.00193988,14.7939739 5.81961847,14.1290136 6.76325473,13.5100569 C7.77175289,12.8480241 8.41032891,12.595841 9.15896095,12.5632203 C11.0428857,12.4799957 12.294093,13.6091736 12.9720046,16.0038671 C13.1339502,16.5759839 13.2071814,16.9578133 13.4544936,18.5131512 C14.0989281,22.5706637 14.3717666,24.0335763 14.796926,25.723161 C15.302849,27.7330976 15.8652645,28.9057697 16.4640865,29.2006106 C16.6251951,29.2800712 16.6745738,29.2905266 16.8197808,29.2800712 C17.4750954,29.2298856 18.4116178,28.2077705 19.6963022,26.1405386 C20.755016,24.4358982 21.3965213,23.063738 21.6241657,22.0131844 C21.6810768,21.7509642 21.6907015,21.6200632 21.6919568,21.0805671 C21.6927938,20.558636 21.6835876,20.4206254 21.6400673,20.2629587 C21.4902572,19.7288994 21.2103048,19.3721628 20.77301,19.1572008 C20.4194079,18.9832238 20.1817204,18.9384749 19.6188863,18.9384749 C18.9598056,18.9384749 18.3814884,19.0472105 17.7228261,19.2956297 C17.537865,19.3654714 17.4244613,19.3947464 17.4194397,19.3742539 C17.4148366,19.3566889 17.4834647,19.1295987 17.5713421,18.870306 C18.1002806,17.3132952 18.7208627,16.1105117 19.5335197,15.0662312 C19.8281183,14.6877476 20.4106202,14.0888651 20.755016,13.8103345 C21.3299855,13.3452805 22.096193,12.9074105 22.7690831,12.6585731 C24.2437501,12.1140585 26.2465187,12.0207967 27.5219969,12.4373379 C29.2561116,13.0035997 30.1721292,14.456057 30.3717365,16.9561404 L30.3909858,17.1970317 L30.528242,17.0732403 C30.6035655,17.0046532 31.1182762,16.5324896 31.6719041,16.0235231 C33.9504404,13.9282709 35.2761342,12.9818526 36.3888299,12.6560638 C36.6039204,12.5933317 36.7348996,12.5766032 37.1073326,12.5623839 C38.4995622,12.5113618 39.4645401,12.9563415 40.1307347,13.9562912 C40.7375075,14.8679978 41.0124383,16.0519617 40.9308379,17.4090662 C40.9078223,17.7980052 40.8634652,18.0614801 40.6123868,19.3165404 C40.1466364,21.6459925 39.6704244,24.333854 39.1477629,27.5771037 C38.9745188,28.6565141 38.9699157,28.6979173 38.9866542,29.0843471 C39.0285006,30.0546036 39.233548,30.6551589 39.674609,31.0984658 C39.8403207,31.264915 39.9491214,31.3460485 40.1139962,31.4246727 C40.5048415,31.6103598 41.0647463,31.6743465 41.4447116,31.5752298 C41.6644052,31.5179345 42.1209494,31.3017178 42.4808284,31.0825737 C43.1323768,30.686525 44.5434373,29.6033507 44.5672897,29.480814 C44.5744036,29.4448476 44.6212716,29.093966 44.6719057,28.7008448 C44.7221214,28.3077236 44.8932732,27.21033 45.0514526,26.2626571 C45.3560943,24.43548 45.5125999,23.3518875 45.6050804,22.4226159 C45.6799854,21.6702489 45.7348042,20.738468 45.7168103,20.5147235 C45.6758008,20.0032478 45.3443773,19.7314087 44.9275872,19.86691 C44.6375917,19.9614264 44.0295635,20.3332186 43.1859402,20.9333558 C42.8373597,21.1813567 42.7599439,21.2252692 42.7289775,21.191812 C42.5561519,21.0086343 41.1371406,19.3746721 41.1388144,19.3604528 C41.1404883,19.3504157 41.2162303,19.2776465 41.307037,19.198604 C41.5602077,18.9790416 42.8419628,17.7850406 44.3798179,16.3350926 C46.2599765,14.5627016 46.8211367,14.0650269 47.6019905,13.4778544 C48.194117,13.0332929 48.6531719,12.7643813 49.0427619,12.6355713 C49.2134952,12.5791125 49.3030465,12.5690753 49.6244268,12.5711664 C49.8533266,12.572421 50.0855741,12.5912407 50.2086025,12.6188428 C51.0191672,12.799093 51.654814,13.2591285 52.1808232,14.045789 C52.7231525,14.8571242 53.054576,15.7165541 53.2085707,16.7119034 C53.2922635,17.2534906 53.3002143,18.3119903 53.2236354,18.7502786 C53.1964353,18.9066906 53.1734197,19.0505562 53.1734197,19.0697941 C53.1734197,19.0890319 53.2625526,18.9744413 53.3709347,18.8146835 C54.1229145,17.7072528 55.1782806,16.6086046 56.3541644,15.7102808 C56.6834955,15.458516 57.4404968,14.9558227 57.775268,14.7659536 C59.4436839,13.8207899 61.29455,13.2917491 63.1366284,13.2336174 C64.8523307,13.1796678 66.1411997,13.592445 67.0224848,14.4786405 C67.3542291,14.8127391 67.6262586,15.201161 67.8267726,15.6270563 C68.223058,16.4530289 68.4096929,17.3459159 68.4498654,18.6047401 L68.4686963,19.2094776 L68.9804777,18.7598975 C69.308972,18.4713298 69.6064998,18.1769071 69.813221,17.9364341 C70.2107618,17.4734712 70.9836648,16.6784463 71.4489967,16.2535409 C73.3203676,14.5438819 75.2980283,13.5702797 77.4535362,13.2976041 C77.9724315,13.2319445 78.8528797,13.2101974 79.2939407,13.2520188 C80.5677451,13.3733009 81.5473692,13.7940242 82.2311393,14.5150252 C83.2844132,15.6237105 83.7221265,17.105861 83.6175105,19.2073865 C83.542187,20.7146298 83.3111948,22.1202472 82.6793143,24.9055526 C81.8859066,28.4051675 81.7695736,29.1420606 81.862891,30.096425 C81.9365407,30.852556 82.0943016,31.180854 82.4830546,31.3887063 C82.769284,31.5400998 83.0182701,31.5948858 83.5154053,31.6128691 C83.9355431,31.6279248 83.9631617,31.6254155 84.1874584,31.5501369 C84.4623892,31.4581299 84.8410991,31.2640786 85.2185536,31.0215144 C85.4374103,30.8809945 85.4863706,30.8375003 85.475909,30.7894056 C85.4298779,30.5957725 85.39389,29.5682207 85.4097917,28.9350447 C85.4600073,26.8887235 85.9014868,25.1188417 86.8317322,23.2264233 C87.4661236,21.9358148 88.2235434,20.7827987 89.2303677,19.5762513 C92.1734248,16.0507071 95.6830821,13.8726484 99.6283604,13.1248818 C101.240284,12.8195855 103.137181,12.7409613 104.536943,12.9207933 C107.193352,13.2624742 108.854654,14.4104717 109.594498,16.4162261 C109.835952,17.0703128 109.969442,17.7971688 109.992039,18.585084 C110.01631,19.4131478 109.939313,19.9434432 109.680283,20.7292673 C109.102803,22.4815841 107.792174,24.2247001 105.66554,26.0686058 C103.168566,28.2336997 100.089926,29.744707 96.5898935,30.5209122 C96.1107523,30.6271386 95.2236087,30.8036249 95.1666976,30.8036249 C95.1315466,30.8036249 95.4629701,31.1854543 95.6688543,31.3832696 C96.3300274,32.0189549 97.147706,32.3836375 98.1679212,32.499901 C98.5587665,32.5433953 99.981544,32.5183024 100.651505,32.4555703 C103.456887,32.1900044 106.206196,31.4384738 109.437156,30.0541854 L110.094981,29.7723091 L110.077824,29.6092057 C109.987854,28.7593948 109.985762,27.5495016 110.07364,26.7009454 C110.303376,24.4643368 111.072095,22.3615567 112.389001,20.3650029 C112.92045,19.5582681 113.395825,18.9480938 114.151571,18.1016286 C115.767679,16.2911801 117.301768,15.0821234 119.189459,14.1285954 C121.340363,13.0429118 123.610112,12.4992336 126.216306,12.4461204 C127.325235,12.4231186 128.078052,12.4820868 128.961429,12.6606642 C130.208452,12.9128472 131.356299,13.4176316 132.317092,14.1361233 C132.895828,14.5698112 133.615167,15.3355611 134.147872,16.0870917 C135.432556,17.8979584 136.068621,20.2767598 135.994135,22.9926416 C135.925925,25.4701415 135.430045,27.681239 134.470926,29.7836009 C133.613075,31.665564 132.204107,33.6085864 130.633611,35.0756812 C128.208194,37.3424012 125.437544,38.5949522 122.095272,38.936633 C121.664255,38.9818001 119.974916,39.0173483 119.570261,38.9910008 Z M121.644587,33.1376774 C123.404228,32.9243882 124.957985,31.7048761 126.285352,29.4950332 C127.644523,27.2324954 128.316995,24.8194005 128.253388,22.4389263 C128.227443,21.4728519 128.107763,20.7535237 127.839946,19.9526439 C127.5964,19.2228604 127.347832,18.7816446 127.014316,18.483458 C126.660296,18.1677064 126.338497,18.0836454 125.663933,18.1321582 C124.898981,18.1865261 124.226091,18.364267 123.573287,18.6842008 C122.332542,19.2910293 121.306049,20.3164901 120.344838,21.9065398 C119.099907,23.9670803 118.444174,26.0372397 118.297712,28.3666918 C118.219459,29.6129696 118.410279,30.6484675 118.897371,31.622488 C119.238,32.3029222 119.679898,32.7863776 120.158621,32.9996667 C120.518082,33.1602609 121.048694,33.209192 121.644168,33.1376774 L121.644587,33.1376774 Z M94.4841828,28.0120463 C97.1916447,26.9305449 99.638822,25.0159611 101.084615,22.8483578 C101.534882,22.1729421 101.819438,21.5326565 101.908989,20.9927422 C101.952091,20.7367952 101.930749,20.2525033 101.86505,19.9781549 C101.813161,19.759429 101.679671,19.485917 101.557479,19.34707 C101.435706,19.2090594 101.21392,19.0714669 100.995482,18.9999523 C100.777044,18.9276013 100.161902,18.9129638 99.8777649,18.9731866 C98.6696595,19.2287154 97.4799664,20.1525502 96.2831594,21.7668563 C94.9829919,23.5195913 94.2724401,25.1732095 94.1084022,26.8289188 C94.0657189,27.2554971 94.0682297,28.1467133 94.1121684,28.1467133 C94.1305808,28.1471294 94.2979664,28.0860702 94.4841828,28.0120463 Z M36.5085106,8.52452751 C35.8377129,8.46430469 35.156872,8.27401731 34.7174848,8.02434353 C34.4747757,7.88633291 34.0994135,7.5521799 33.9349572,7.32927183 C33.699362,7.00766525 33.5265364,6.56812231 33.4390774,6.06124691 C33.3704493,5.6672893 33.3779817,4.91784977 33.4545606,4.54396644 C33.6102292,3.78072585 34.0245085,3.06223416 34.7304572,2.33161426 C36.0473633,0.968236546 37.6069785,0.181994183 39.3067792,0.0255821387 C40.3516837,-0.0706070865 41.1070112,0.102115305 41.7464241,0.583479645 C42.3511046,1.0384965 42.9001293,1.82139315 43.1122905,2.53026592 C43.2164881,2.87780177 43.2411774,3.47626604 43.1696201,3.89991684 C43.0030714,4.88188337 42.4553021,5.813246 41.4945088,6.74879077 C40.4747121,7.74163086 39.3854504,8.29241872 38.0693812,8.48145146 C37.6843944,8.53665571 36.8893128,8.55840284 36.5085106,8.52452751 Z" id="Shape"></path>
            </g>
            <g id="youtube" transform="translate(162.000000, 231.000000)">
                <path d="M160,60.3355022 C160,65.6727211 155.640812,70 150.264236,70 L111.735763,70 C106.359188,70 102,65.6727211 102,60.3355022 L102,41.6644978 C102,36.3272789 106.359188,32 111.735763,32 L150.263425,32 C155.640001,32 159.999189,36.3272789 159.999189,41.6644978 L159.999189,60.3355022 L160,60.3355022 Z" id="Shape" fill="#CCCCCC" fill-rule="nonzero"></path>
                <g id="Group" transform="translate(107.000000, 38.000000)" fill="#FFFFFF" fill-rule="nonzero">
                    <path d="M4.67959322,24.8885 L4.67959322,4.5345625 L0.64840678,4.5345625 L0.64840678,0.508625 L12.2033898,0.508625 L12.2033898,4.5345625 L8.17383051,4.5345625 L8.17383051,24.8885 L4.67959322,24.8885 Z M23.1294915,6.579625 L23.1294915,24.8885 L19.927322,24.8885 L19.927322,23.0693125 C19.2520678,24.607375 18.2652203,25.376 16.9627119,25.376 C14.8653559,25.376 13.8158644,23.90375 13.8158644,20.960875 L13.8158644,6.579625 L16.9692203,6.579625 L16.9692203,18.542875 C16.9692203,19.524375 17.0253559,20.2255625 17.1384407,20.6480625 C17.3410169,21.3760625 17.7461695,21.740875 18.3522712,21.740875 C19.008,21.740875 19.4448814,21.346 19.6637288,20.5538125 C19.783322,20.0988125 19.8451525,19.34075 19.8451525,18.27475 L19.8451525,6.579625 L23.1294915,6.579625 Z M25.9460339,24.8885 L25.9460339,0.508625 L29.2124746,0.508625 L29.2124746,8.1290625 C29.7591864,6.7705625 30.6833898,6.092125 31.9826441,6.092125 C33.6423051,6.092125 34.7292203,7.2735 35.2409492,9.6354375 C35.5029153,10.827375 35.6322712,12.8886875 35.6322712,15.821 C35.6322712,18.668 35.4898983,20.7033125 35.2059661,21.9269375 C34.6698305,24.2255 33.572339,25.3751875 31.9151186,25.3751875 C30.5328814,25.3751875 29.5785763,24.574875 29.0505763,22.972625 L29.0505763,24.886875 L25.9460339,24.8885 Z M30.8225085,9.6484375 C29.9300339,9.6484375 29.3816949,10.5876875 29.1774915,12.465375 C29.136,12.845625 29.1164746,14.1903125 29.1164746,16.501875 C29.1164746,18.2845 29.1530847,19.3968125 29.2271186,19.8404375 C29.4394576,21.2005625 29.9715254,21.88225 30.8241356,21.88225 C31.6189831,21.88225 32.1006102,21.048625 32.2722712,19.381375 C32.3137627,19.0328125 32.3341017,17.8368125 32.3341017,15.7893125 C32.3341017,13.6695 32.3170169,12.4596875 32.2844746,12.1655625 C32.112,10.4869375 31.6254915,9.6484375 30.8225085,9.6484375 Z M44.2999322,18.60625 L47.3703051,18.60625 C47.3703051,18.69075 47.3743729,18.809375 47.3825085,18.962125 C47.3922712,19.114875 47.3955254,19.2343125 47.3955254,19.318 C47.3955254,21.4280625 47.0058305,22.9636875 46.2256271,23.92975 C45.4454237,24.893375 44.235661,25.376 42.5930847,25.376 C40.8943729,25.376 39.6707797,24.7901875 38.9239322,23.6201875 C38.3300339,22.6906875 37.9525424,21.33625 37.7882034,19.55525 C37.7149831,18.7744375 37.6783729,17.303 37.6783729,15.140125 C37.6783729,13.39975 37.7149831,12.1615 37.7882034,11.42375 C37.9354576,9.9255 38.2551864,8.7871875 38.7522712,8.0071875 C39.5658305,6.7315625 40.8724068,6.0929375 42.6776949,6.0929375 C44.4170847,6.0929375 45.6870508,6.7835625 46.491661,8.1631875 C47.1425085,9.280375 47.4663051,11.53425 47.4663051,14.9280625 L47.4663051,16.31825 L41.0546441,16.31825 C41.0310508,16.51975 41.0180339,16.9105625 41.0180339,17.489875 C41.0180339,18.8524375 41.0741695,19.8241875 41.1888814,20.4043125 C41.4248136,21.597875 41.9129492,22.19425 42.651661,22.19425 C43.7507797,22.19425 44.2999322,20.99825 44.2999322,18.60625 Z M41.0277966,13.41275 L44.1901017,13.41275 L44.1901017,12.63925 C44.1901017,11.58625 44.1168814,10.83875 43.9696271,10.39675 C43.7426441,9.6915 43.2829831,9.338875 42.5930847,9.338875 C42.0162712,9.338875 41.6046102,9.581 41.3613559,10.06525 C41.0692881,10.6656875 40.9464407,11.5236875 40.9960678,12.63925 L41.0131525,12.8919375 C41.0229153,13.0706875 41.0277966,13.2445625 41.0277966,13.41275 Z" id="Shape"></path>
                </g>
                <path d="M66.9064529,62.5094217 L66.9064529,52.1179337 L62,38 L65.8626125,38 L68.6926694,47.2202729 L71.4856477,38 L75.2386369,38 L70.4200439,52.1171215 L70.4200439,62.5094217 L66.9064529,62.5094217 Z M76.44127,53.3151397 C76.44127,50.1450617 76.6798621,47.8976608 77.1578523,46.5705003 C77.8695983,44.5992528 79.2777753,43.6124107 81.3823832,43.6124107 C83.4853791,43.6124107 84.8991984,44.5984405 85.619005,46.5705003 C86.0969952,47.8854776 86.3355873,50.1336907 86.3355873,53.3151397 C86.3355873,56.4949643 86.0969952,58.7431774 85.619005,60.0573424 C84.8991984,62.0188434 83.4861851,63 81.3823832,63 C79.2777753,63 77.8695983,62.0139701 77.1578523,60.0419103 C76.6798621,58.7277453 76.44127,56.4844055 76.44127,53.3151397 Z M79.777529,53.5531189 C79.777529,55.8321962 79.7896198,57.0708252 79.8138014,57.2722547 C79.9822668,58.9145549 80.4973355,59.735705 81.3582016,59.735705 C82.2198737,59.735705 82.7462272,59.031514 82.9388742,57.6223197 C82.9791769,57.3144899 82.9993283,56.1652047 82.9993283,54.1728395 L82.9993283,52.3770305 C82.9993283,50.511371 82.9751467,49.3880767 82.9275894,49.0071475 C82.7252698,47.608512 82.2102011,46.9091943 81.3823832,46.9091943 C80.5771349,46.9091943 80.074157,47.5248538 79.8726434,48.7537362 C79.8089651,49.1452242 79.7767229,50.1783626 79.7767229,51.8523392 L79.777529,53.5531189 Z M98,44.1038012 L98,62.5094217 L94.8096368,62.5094217 L94.8096368,60.6803119 C94.1365814,62.2267706 93.151583,62.9991878 91.8562536,62.9991878 C89.7653486,62.9991878 88.7198961,61.5201429 88.7198961,58.5620533 L88.7198961,44.1038012 L91.861896,44.1038012 L91.861896,56.1302794 C91.861896,57.1179337 91.9183198,57.8221248 92.0303614,58.2452891 C92.231875,58.9779077 92.6357082,59.3450292 93.2394429,59.3450292 C93.892347,59.3450292 94.3284224,58.9470435 94.5460571,58.1518843 C94.6653531,57.6946069 94.7274193,56.9319363 94.7274193,55.861436 L94.7274193,44.1038012 L98,44.1038012 Z" id="Shape" fill="#CCCCCC" fill-rule="nonzero"></path>
                <use id="Rectangle-Copy" stroke="#50E3C2" mask="url(#mask-4)" stroke-width="2" stroke-dasharray="2,2" xlink:href="#path-3"></use>
            </g>
        </g>
    </g>
</svg>