<svg xmlns="http://www.w3.org/2000/svg" xmlns:xlink="http://www.w3.org/1999/xlink" viewBox="0 0 800 500"><defs><linearGradient id="a" x1="362.62" y1="333.76" x2="418.88" y2="130.23" gradientUnits="userSpaceOnUse"><stop offset="0" stop-color="#8033eb"/><stop offset="1" stop-color="#a2e1e0"/></linearGradient><linearGradient id="b" x1="552.94" y1="161.23" x2="495.94" y2="203.23" gradientUnits="userSpaceOnUse"><stop offset="0" stop-color="#8033eb"/><stop offset="0.53" stop-color="#d4648e"/><stop offset="1" stop-color="#ec7071"/></linearGradient></defs><title>Artboard 2 copy 12</title><g style="isolation:isolate"><path d="M377.73,202s-77.56,39.87-115.12,20.65-41-52.78-26-105.92,52.24-83.32,110-43.68S441.32,164.35,377.73,202Z" style="fill:#f2f2f2"/><path d="M206.85,231.69A26.84,26.84,0,1,1,180,204.85,26.84,26.84,0,0,1,206.85,231.69Z" style="fill:#f2f2f2"/><path d="M671.07,385.63a26.84,26.84,0,1,1-26.84-26.84A26.84,26.84,0,0,1,671.07,385.63Z" style="fill:#f2f2f2"/><path d="M628.15,227.89A13.12,13.12,0,1,1,615,214.77,13.11,13.11,0,0,1,628.15,227.89Z" style="fill:#f2f2f2"/><path d="M261.57,442.73a13.12,13.12,0,1,1-13.11-13.12A13.12,13.12,0,0,1,261.57,442.73Z" style="fill:#f2f2f2"/><path d="M529.87,181c2.48-14.67,6.91-34.09-1.27-47.69a2.39,2.39,0,0,1,1.78-3.61A61.32,61.32,0,0,0,472,110.39a77.29,77.29,0,0,0-138.5,25.19,46.91,46.91,0,0,0-5.05-.27,48.19,48.19,0,0,0,0,96.38H484.58c13.22,0,23.68-3.49,33.48-13.29A136.07,136.07,0,0,0,529.87,181Z" style="fill:#ebebeb;mix-blend-mode:multiply"/><path d="M479,102.92a61.84,61.84,0,0,0-12.63,1.31,77.29,77.29,0,0,0-138.5,25.19,49.49,49.49,0,0,0-5.05-.26,48.19,48.19,0,1,0,0,96.37H479a61.31,61.31,0,1,0,0-122.61Z" style="fill:url(#a)"/><path d="M322.77,136.58a49.49,49.49,0,0,1,5.05.26,77.29,77.29,0,0,1,138.5-25.19,61.36,61.36,0,0,1,73.79,56c.09-1.32.14-2.66.14-4a61.32,61.32,0,0,0-73.93-60,77.29,77.29,0,0,0-138.5,25.19,46.77,46.77,0,0,0-5.05-.27,48.2,48.2,0,0,0-48.19,48.19c0,1.35.07,2.69.18,4A48.18,48.18,0,0,1,322.77,136.58Z" style="fill:#c4ecec"/><g style="mix-blend-mode:multiply"><path d="M376.09,168.49h-4.38l-3.63,10.4-.72,2.07L363,168.49h-4.56L354.09,181l-.72-2.07-3.63-10.4h-5.57l.4,1.14,1.4,4,3.39,9.75,2.45,7.09h4.57L360.73,178l4.34,12.46h4.57l2.45-7.09,3.4-9.75,1.39-4,.4-1.14Zm18.56,15.12L394,184a28.1,28.1,0,0,1-3.06,1.37,9.7,9.7,0,0,1-3.24.57,5.68,5.68,0,0,1-3.4-.9,4.15,4.15,0,0,1-1.41-2.08h2.9a14.87,14.87,0,0,0,6.81-1.4,6.5,6.5,0,0,0,3.7-6,6.43,6.43,0,0,0-3-5.57,10.45,10.45,0,0,0-5.88-1.73,9.88,9.88,0,0,0-7.67,3.5,12.45,12.45,0,0,0-2.76,8.35,11,11,0,0,0,2.71,7.8,10,10,0,0,0,7.68,3.07,17.28,17.28,0,0,0,9.22-2.81l.73-.46Zm-9.2-10.06a3.57,3.57,0,0,1,1.81-.45,7.82,7.82,0,0,1,1.45.15,3.12,3.12,0,0,1,1.17.47,1.83,1.83,0,0,1,.67.66,2,2,0,0,1,.29,1.12,1.57,1.57,0,0,1-.36,1.19,4.58,4.58,0,0,1-1.41.9,9,9,0,0,1-3.31.35h-3.22a7,7,0,0,1,1.4-3A5.9,5.9,0,0,1,385.45,173.55Zm31.63-2.27a10.13,10.13,0,0,0-12.15-2.42v-9.51h-5.35v30.39l.61.17a31.18,31.18,0,0,0,7.63,1c3.89,0,6.89-1.13,8.91-3.36a12.47,12.47,0,0,0,2.94-8.33A12.73,12.73,0,0,0,417.08,171.28Zm-6,14.09a6.21,6.21,0,0,1-2.78.49c-.86,0-2.07-.07-3.33-.2v-9.35a2.83,2.83,0,0,1,.87-1.9,4.62,4.62,0,0,1,3.6-1.56,4,4,0,0,1,3.63,2,8.24,8.24,0,0,1,1.21,4.54,6.88,6.88,0,0,1-1.43,4.61A4.81,4.81,0,0,1,411,185.37Zm11.1-16.85h5.35v22h-5.35Zm30,22V175.26a8,8,0,0,0-.66-3.3c-1.19-2.43-3.87-3.76-7.54-3.76a9.35,9.35,0,0,0-6.58,2.32,9,9,0,0,0-2.31-2.24l-.55-.4-3.5,3.18.67.63a5.54,5.54,0,0,1,1.3,1.73,6,6,0,0,1,.38,2.21v14.89h5.35V176a9.18,9.18,0,0,1,2.13-2,5.16,5.16,0,0,1,2.91-.88,3.52,3.52,0,0,1,2.39.75c.33.31.66.83.66,2.38v14.24Zm7.91-.54c3-2.17,6.14-1.27,9.3-1.15H470a46.2,46.2,0,0,0,5.18-.31v-20h-5.35v13.54s-.84,3.42-4.06,3.47c0,0-3.62.28-4-2.76V168.54h-5.35v15.25a7.89,7.89,0,0,0,.66,3.29A6.17,6.17,0,0,0,460.08,190Z" style="fill:#e5e5e5"/><path d="M482.5,177.6a9.06,9.06,0,0,0-6.86-1h0v6.07a2.35,2.35,0,0,1,.23-.32,2,2,0,0,1,.4-.3,3.53,3.53,0,0,1,3.47.14,2.76,2.76,0,0,1,1.3,2.74,3.17,3.17,0,0,1-1.16,2.3,9.21,9.21,0,0,1-4.31,1.73h-.08l-.17,0v0c-.75.07-3.14.27-5.32.24h0l-.43,0h-.15l-.44,0h-.17c-1.06-.06-2-.13-2.88-.2-.29,0-.57,0-.86,0s-.5,0-.74,0-.44,0-.65.06l-.2,0a8,8,0,0,0-3,1.14l-.08.06a7.3,7.3,0,0,0-2.2,2.26,8.87,8.87,0,0,0,0,9,8,8,0,0,0,7.57,4,8.48,8.48,0,0,0,6-2.88,13.58,13.58,0,0,0,2.82-5.85c.17-.68.3-1.36.4-2l-5.41-.13c-.12.58-.27,1.15-.44,1.72a7.48,7.48,0,0,1-1.35,2.71,3.24,3.24,0,0,1-2.33,1.11,2.75,2.75,0,0,1-2.7-1.37,3.5,3.5,0,0,1-.08-3.47,2.24,2.24,0,0,1,.31-.38,3.4,3.4,0,0,1,2.51-.68c1,0,2,0,3-.06h0c.37,0,.75,0,1.12,0h0l5.48.12c2.7-.34,5.93-1.16,8.2-3.1a8.51,8.51,0,0,0,3-6,8.05,8.05,0,0,0-3.83-7.66" style="fill:#e5e5e5"/></g><path d="M372.79,165.18H368.4l-3.63,10.4-.72,2.07-4.35-12.47h-4.56l-4.35,12.47-.72-2.07-3.63-10.4h-5.58l.4,1.14,1.4,4,3.39,9.75,2.45,7.09h4.58l4.34-12.46,4.34,12.46h4.57l2.46-7.09,3.39-9.75,1.4-4,.39-1.14Zm18.55,15.12-.68.36A28.1,28.1,0,0,1,387.6,182a9.69,9.69,0,0,1-3.24.56,5.75,5.75,0,0,1-3.4-.89,4.21,4.21,0,0,1-1.4-2.09h2.89a14.87,14.87,0,0,0,6.81-1.4,6.74,6.74,0,0,0,.74-11.6,10.5,10.5,0,0,0-5.88-1.73,9.83,9.83,0,0,0-7.67,3.51,12.43,12.43,0,0,0-2.76,8.34,11,11,0,0,0,2.7,7.8,10,10,0,0,0,7.69,3.08,17.33,17.33,0,0,0,9.22-2.81l.73-.47Zm-9.2-10.06a3.71,3.71,0,0,1,1.81-.45,7.74,7.74,0,0,1,1.45.15,3.12,3.12,0,0,1,1.17.47,1.81,1.81,0,0,1,.67.67,1.93,1.93,0,0,1,.29,1.11,1.51,1.51,0,0,1-.36,1.19,4.6,4.6,0,0,1-1.4.91,9.28,9.28,0,0,1-3.32.35h-3.21a7.16,7.16,0,0,1,1.39-3A6.28,6.28,0,0,1,382.14,170.24ZM413.77,168a10.13,10.13,0,0,0-12.15-2.42V156h-5.34v30.39l.6.18a31.18,31.18,0,0,0,7.63,1c3.9,0,6.89-1.14,8.91-3.36a12.49,12.49,0,0,0,2.94-8.33A12.73,12.73,0,0,0,413.77,168Zm-6,14.09a6.19,6.19,0,0,1-2.78.49c-.86,0-2.07-.07-3.33-.2V173a2.85,2.85,0,0,1,.88-1.9,4.61,4.61,0,0,1,3.59-1.55,4.05,4.05,0,0,1,3.64,2,8.35,8.35,0,0,1,1.2,4.54,6.9,6.9,0,0,1-1.43,4.62A4.71,4.71,0,0,1,407.73,182.06Zm11.11-16.84h5.34v22h-5.34Zm30,22V172a8,8,0,0,0-.66-3.3c-1.19-2.43-3.87-3.76-7.54-3.76a9.36,9.36,0,0,0-6.58,2.32,9.34,9.34,0,0,0-2.31-2.24l-.56-.4-3.49,3.19.66.63a5.37,5.37,0,0,1,1.31,1.73,6.1,6.1,0,0,1,.37,2.2v14.89h5.35V172.73a8.94,8.94,0,0,1,2.13-2,5.1,5.1,0,0,1,2.91-.89,3.58,3.58,0,0,1,2.39.75c.33.31.66.83.66,2.39V187.2Zm7.9-.54c3-2.17,6.15-1.26,9.3-1.14h.58a45.67,45.67,0,0,0,5.18-.32v-20h-5.35v13.54s-.84,3.41-4.06,3.47c0,0-3.62.27-4-2.77V165.23H453v15.25a8.13,8.13,0,0,0,.65,3.3A6.19,6.19,0,0,0,456.77,186.66Z" style="fill:#fff"/><path d="M479.19,174.3a9,9,0,0,0-6.86-1.05h0v6.06a1.39,1.39,0,0,1,.23-.31,1.62,1.62,0,0,1,.39-.3,3.51,3.51,0,0,1,3.47.14,2.74,2.74,0,0,1,1.3,2.73,3.17,3.17,0,0,1-1.16,2.31,9.16,9.16,0,0,1-4.31,1.72h-.08l-.17,0v0c-.75.07-3.14.27-5.32.24h0l-.42,0h-.16l-.43,0h-.18l-2.88-.19a8.14,8.14,0,0,0-.85,0c-.25,0-.5,0-.75,0s-.44,0-.65.06l-.2,0a8.26,8.26,0,0,0-3,1.14l-.08.07a7.16,7.16,0,0,0-2.2,2.25,8.87,8.87,0,0,0,0,9,8,8,0,0,0,7.57,4,8.48,8.48,0,0,0,6-2.88,13.58,13.58,0,0,0,2.82-5.85c.17-.67.3-1.35.4-2l-5.41-.12c-.12.58-.26,1.14-.43,1.71a7.41,7.41,0,0,1-1.36,2.71,3.2,3.2,0,0,1-2.33,1.11,2.76,2.76,0,0,1-2.7-1.36,3.53,3.53,0,0,1-.08-3.47,3,3,0,0,1,.31-.39,3.4,3.4,0,0,1,2.51-.67c1,0,2-.05,3-.07h0c.37,0,.75,0,1.12,0h0l5.49.13c2.69-.35,5.92-1.16,8.19-3.11a8.49,8.49,0,0,0,3-6,8,8,0,0,0-3.83-7.65" style="fill:#fff"/><rect x="111.75" y="291.39" width="174.54" height="87.97" style="fill:#f2f2f2"/><path d="M200.79,379.35H286.3V293.6Q243.61,336.55,200.79,379.35Z" style="fill:#e9e9e9"/><path d="M286.3,295v-8.84a7.29,7.29,0,0,0-7.29-7.29H119a7.29,7.29,0,0,0-7.29,7.29V295Z" style="fill:#f94f24"/><path d="M125.09,285.11a1.72,1.72,0,1,1-1.72-1.72A1.72,1.72,0,0,1,125.09,285.11Z" style="fill:#fff"/><circle cx="135.7" cy="285.11" r="1.72" style="fill:#fff"/><circle cx="148.03" cy="285.11" r="1.72" style="fill:#fff"/><rect x="198.66" y="311.63" width="75.01" height="53.22" style="fill:#fff"/><path d="M201.06,364.85,225.79,330s5.76-9.8,12.11,0l23.5,34.85Z" style="fill:#d7d7d7"/><path d="M261.4,328.83a6.48,6.48,0,1,1-6.48-6.47A6.48,6.48,0,0,1,261.4,328.83Z" style="fill:#d7d7d7"/><line x1="128.06" y1="306.07" x2="184.53" y2="306.07" style="fill:none;stroke:#d7d7d7;stroke-linecap:round;stroke-miterlimit:10;stroke-width:3.6436400000000004px"/><line x1="128.06" y1="317.27" x2="160.11" y2="317.27" style="fill:none;stroke:#d7d7d7;stroke-linecap:round;stroke-miterlimit:10;stroke-width:3.6436400000000004px"/><line x1="128.06" y1="332.37" x2="184.53" y2="332.37" style="fill:none;stroke:#d7d7d7;stroke-linecap:round;stroke-miterlimit:10;stroke-width:1.8218200000000002px"/><line x1="128.06" y1="342.7" x2="184.53" y2="342.7" style="fill:none;stroke:#d7d7d7;stroke-linecap:round;stroke-miterlimit:10;stroke-width:1.8218200000000002px"/><line x1="128.06" y1="353.03" x2="184.53" y2="353.03" style="fill:none;stroke:#d7d7d7;stroke-linecap:round;stroke-miterlimit:10;stroke-width:1.8218200000000002px"/><line x1="128.06" y1="363.36" x2="154.44" y2="363.36" style="fill:none;stroke:#d7d7d7;stroke-linecap:round;stroke-miterlimit:10;stroke-width:1.8218200000000002px"/><rect x="524.75" y="291.39" width="174.54" height="87.97" style="fill:#f2f2f2"/><path d="M613.79,379.35H699.3V293.6Q656.61,336.55,613.79,379.35Z" style="fill:#e9e9e9"/><path d="M699.3,295v-8.84a7.29,7.29,0,0,0-7.29-7.29H532a7.29,7.29,0,0,0-7.29,7.29V295Z" style="fill:#f94f24"/><path d="M538.09,285.11a1.72,1.72,0,1,1-1.72-1.72A1.72,1.72,0,0,1,538.09,285.11Z" style="fill:#fff"/><circle cx="548.7" cy="285.11" r="1.72" style="fill:#fff"/><circle cx="561.03" cy="285.11" r="1.72" style="fill:#fff"/><rect x="611.66" y="311.63" width="75.01" height="53.22" style="fill:#fff"/><path d="M614.06,364.85,638.79,330s5.76-9.8,12.11,0l23.5,34.85Z" style="fill:#d7d7d7"/><path d="M674.4,328.83a6.48,6.48,0,1,1-6.48-6.47A6.48,6.48,0,0,1,674.4,328.83Z" style="fill:#d7d7d7"/><line x1="541.06" y1="306.07" x2="597.53" y2="306.07" style="fill:none;stroke:#d7d7d7;stroke-linecap:round;stroke-miterlimit:10;stroke-width:3.6436400000000004px"/><line x1="541.06" y1="317.27" x2="573.11" y2="317.27" style="fill:none;stroke:#d7d7d7;stroke-linecap:round;stroke-miterlimit:10;stroke-width:3.6436400000000004px"/><line x1="541.06" y1="332.37" x2="597.53" y2="332.37" style="fill:none;stroke:#d7d7d7;stroke-linecap:round;stroke-miterlimit:10;stroke-width:1.8218200000000002px"/><line x1="541.06" y1="342.7" x2="597.53" y2="342.7" style="fill:none;stroke:#d7d7d7;stroke-linecap:round;stroke-miterlimit:10;stroke-width:1.8218200000000002px"/><line x1="541.06" y1="353.03" x2="597.53" y2="353.03" style="fill:none;stroke:#d7d7d7;stroke-linecap:round;stroke-miterlimit:10;stroke-width:1.8218200000000002px"/><line x1="541.06" y1="363.36" x2="567.44" y2="363.36" style="fill:none;stroke:#d7d7d7;stroke-linecap:round;stroke-miterlimit:10;stroke-width:1.8218200000000002px"/><rect x="319.69" y="341.65" width="174.54" height="87.97" style="fill:#f2f2f2"/><path d="M408.72,429.61h85.51V343.86Q451.55,386.81,408.72,429.61Z" style="fill:#e9e9e9"/><path d="M494.23,345.23v-8.85a7.28,7.28,0,0,0-7.29-7.28H327a7.28,7.28,0,0,0-7.29,7.28v8.85Z" style="fill:#f94f24"/><path d="M333,335.37a1.73,1.73,0,1,1-1.72-1.72A1.72,1.72,0,0,1,333,335.37Z" style="fill:#fff"/><path d="M345.36,335.37a1.72,1.72,0,1,1-1.72-1.72A1.72,1.72,0,0,1,345.36,335.37Z" style="fill:#fff"/><path d="M357.69,335.37a1.72,1.72,0,1,1-1.72-1.72A1.72,1.72,0,0,1,357.69,335.37Z" style="fill:#fff"/><rect x="406.59" y="361.89" width="75.01" height="53.22" style="fill:#fff"/><path d="M409,415.11l24.73-34.85s5.76-9.81,12.12,0l23.49,34.85Z" style="fill:#d7d7d7"/><path d="M469.33,379.09a6.47,6.47,0,1,1-6.47-6.47A6.47,6.47,0,0,1,469.33,379.09Z" style="fill:#d7d7d7"/><line x1="335.99" y1="356.33" x2="392.46" y2="356.33" style="fill:none;stroke:#d7d7d7;stroke-linecap:round;stroke-miterlimit:10;stroke-width:3.6436400000000004px"/><line x1="335.99" y1="367.53" x2="368.05" y2="367.53" style="fill:none;stroke:#d7d7d7;stroke-linecap:round;stroke-miterlimit:10;stroke-width:3.6436400000000004px"/><line x1="335.99" y1="382.63" x2="392.46" y2="382.63" style="fill:none;stroke:#d7d7d7;stroke-linecap:round;stroke-miterlimit:10;stroke-width:1.8218200000000002px"/><line x1="335.99" y1="392.96" x2="392.46" y2="392.96" style="fill:none;stroke:#d7d7d7;stroke-linecap:round;stroke-miterlimit:10;stroke-width:1.8218200000000002px"/><line x1="335.99" y1="403.29" x2="392.46" y2="403.29" style="fill:none;stroke:#d7d7d7;stroke-linecap:round;stroke-miterlimit:10;stroke-width:1.8218200000000002px"/><line x1="335.99" y1="413.62" x2="362.38" y2="413.62" style="fill:none;stroke:#d7d7d7;stroke-linecap:round;stroke-miterlimit:10;stroke-width:1.8218200000000002px"/><path d="M532,192.6c3.85-7.32,8-14.49,11.9-21.77a176.51,176.51,0,0,0,10.39-22.46,34.89,34.89,0,1,0-33.47,60.48C529.15,202.17,529,198.18,532,192.6Z" style="fill:#ebebeb;mix-blend-mode:multiply"/><path d="M572.41,172.6a34.89,34.89,0,1,1-34.89-34.89A34.89,34.89,0,0,1,572.41,172.6Z" style="fill:url(#b)"/><path d="M553.81,173.66c-.11-1.41-.24-2.83-.36-4.24-.05-.59-.26-.77-.85-.79l-3.14-.08a.62.62,0,0,1-.69-.49,5.66,5.66,0,0,0-.61-1.32c-.55-.84-1.16-1.65-1.77-2.45a.53.53,0,0,1-.11-.58c.22-.55.41-1.1.6-1.66s.42-1.25.63-1.88-.47-.84-1.15-1.21c-1.07-.56-2.14-1.13-3.23-1.67-.48-.24-.75-.13-1,.31-.62.94-1.24,1.88-1.85,2.82a.38.38,0,0,1-.44.2,12,12,0,0,0-5.4.17.49.49,0,0,1-.41-.14c-.82-.89-1.63-1.8-2.43-2.71a.73.73,0,0,0-1.18-.13c-1.15.81-2.3,1.62-3.46,2.41-.52.36-.62.68-.33,1.23l1.57,2.9a.38.38,0,0,1,0,.5,15.72,15.72,0,0,0-1.27,1.9,22.69,22.69,0,0,0-1,2.44c-.09.21-.17.33-.42.37-1.14.21-2.28.44-3.42.67-.71.14-.83.28-.78,1,.1,1.4.21,2.81.3,4.21,0,.6.24.81.85.84,1.1,0,2.2.1,3.3.13a.45.45,0,0,1,.46.35,12.26,12.26,0,0,0,2.89,4.48.55.55,0,0,1,.07.46c-.35,1.15-.73,2.29-1.09,3.43a.75.75,0,0,0,.47,1.05c1.34.61,2.67,1.22,4,1.8a.71.71,0,0,0,.62-.08,5.51,5.51,0,0,0,.89-1c.45-.69.85-1.42,1.3-2.13a.5.5,0,0,1,.38-.2,12.29,12.29,0,0,0,4.94-.29.5.5,0,0,1,.43.1c.79.86,1.56,1.74,2.32,2.61.51.59.78.66,1.4.23,1.17-.81,2.33-1.63,3.48-2.45a.71.71,0,0,0,.25-1.06c-.53-1-1.08-2-1.61-3.05a.41.41,0,0,1,0-.39,12.36,12.36,0,0,0,2.3-4.47.5.5,0,0,1,.43-.39c1.13-.21,2.26-.44,3.39-.67C553.75,174.56,553.87,174.41,553.81,173.66Zm-16.29,6.15a7.21,7.21,0,1,1,7.21-7.21A7.21,7.21,0,0,1,537.52,179.81Z" style="fill:none;stroke:#ccc;stroke-miterlimit:10;stroke-width:1.8221900000000002px;fill-rule:evenodd;mix-blend-mode:multiply"/><path d="M553.81,173.66c-.11-1.41-.23-2.83-.36-4.24-.05-.59-.26-.77-.85-.79l-3.14-.08a.63.63,0,0,1-.69-.49,5.66,5.66,0,0,0-.61-1.32c-.55-.84-1.16-1.65-1.77-2.45a.54.54,0,0,1-.11-.58c.22-.55.41-1.1.61-1.66s.41-1.25.62-1.88-.47-.84-1.15-1.21c-1.07-.56-2.14-1.13-3.23-1.67-.48-.24-.75-.13-1,.31-.62.94-1.24,1.88-1.85,2.82a.38.38,0,0,1-.44.2,12,12,0,0,0-5.4.17.49.49,0,0,1-.41-.14c-.82-.89-1.63-1.8-2.43-2.71-.4-.46-.67-.49-1.18-.13-1.15.81-2.3,1.62-3.46,2.41-.52.36-.62.68-.33,1.23.52,1,1,1.93,1.58,2.9a.4.4,0,0,1-.06.5,17,17,0,0,0-1.27,1.9,22.69,22.69,0,0,0-1,2.44c-.09.21-.17.33-.41.37-1.15.21-2.29.44-3.43.67-.71.14-.83.28-.78,1,.1,1.4.21,2.81.3,4.21,0,.6.24.81.85.84,1.1,0,2.2.1,3.3.13a.45.45,0,0,1,.46.35,12.26,12.26,0,0,0,2.89,4.48.55.55,0,0,1,.07.46c-.35,1.15-.73,2.29-1.09,3.43a.75.75,0,0,0,.47,1.05c1.34.61,2.68,1.22,4,1.8a.69.69,0,0,0,.61-.08,5.51,5.51,0,0,0,.89-1c.45-.69.86-1.42,1.3-2.13a.5.5,0,0,1,.38-.2,12.28,12.28,0,0,0,4.94-.29.53.53,0,0,1,.44.1c.78.86,1.55,1.74,2.31,2.61.51.59.78.66,1.4.23,1.17-.81,2.33-1.63,3.48-2.45a.71.71,0,0,0,.25-1.06c-.53-1-1.08-2-1.61-3.05a.41.41,0,0,1,0-.39,12.36,12.36,0,0,0,2.3-4.47.5.5,0,0,1,.43-.39c1.13-.21,2.26-.44,3.39-.67C553.75,174.56,553.87,174.41,553.81,173.66Zm-16.29,6.15a7.21,7.21,0,1,1,7.21-7.21A7.21,7.21,0,0,1,537.52,179.81Z" style="fill:none;stroke:#fff;stroke-miterlimit:10;stroke-width:1.8221900000000002px;fill-rule:evenodd"/><line x1="409.65" y1="231.08" x2="409.65" y2="327.1" style="fill:none;stroke:#f94f24;stroke-linecap:round;stroke-miterlimit:10;stroke-dasharray:3.404819965362549,2.269890069961548"/><path d="M409.66,334.39a5.3,5.3,0,1,0-5.3-5.29A5.29,5.29,0,0,0,409.66,334.39Z" style="fill:#fff;stroke:#f94f24;stroke-linecap:round;stroke-miterlimit:10;stroke-width:2.26989px"/><path d="M248.46,284.13a5.29,5.29,0,1,0-5.3-5.29A5.29,5.29,0,0,0,248.46,284.13Z" style="fill:#fff;stroke:#f94f24;stroke-linecap:round;stroke-miterlimit:10;stroke-width:2.26989px"/><path d="M573.34,284.13a5.29,5.29,0,1,0-5.3-5.29A5.29,5.29,0,0,0,573.34,284.13Z" style="fill:#fff;stroke:#f94f24;stroke-linecap:round;stroke-miterlimit:10;stroke-width:2.26989px"/><path d="M409.66,231.08a5.3,5.3,0,1,0-5.3-5.3A5.29,5.29,0,0,0,409.66,231.08Z" style="fill:#fff;stroke:#f94f24;stroke-linecap:round;stroke-miterlimit:10;stroke-width:2.26989px"/><path d="M573.7,273.55v-8.82s-.54-11.33-14.59-11.33H263c-14,0-14.58,11.33-14.58,11.33v8.82" style="fill:none;stroke:#f94f24;stroke-linecap:round;stroke-miterlimit:10;stroke-dasharray:3.404819965362549,2.269890069961548"/></g></svg>