<svg xmlns="http://www.w3.org/2000/svg" xmlns:xlink="http://www.w3.org/1999/xlink" viewBox="0 0 800 500"><defs><linearGradient id="a" x1="178.26" y1="119.12" x2="527" y2="350.33" gradientUnits="userSpaceOnUse"><stop offset="0" stop-color="#8033eb"/><stop offset="0.53" stop-color="#d4648e"/><stop offset="1" stop-color="#ec7071"/></linearGradient><linearGradient id="b" x1="538.56" y1="356.2" x2="604.55" y2="200.21" xlink:href="#a"/></defs><title>Artboard 2 copy 12</title><g style="isolation:isolate"><path d="M679.6,126.86a87.08,87.08,0,1,1-87.08-87.08A87.08,87.08,0,0,1,679.6,126.86Z" style="fill:#f2f2f2"/><path d="M631.4,387.7a54.47,54.47,0,1,1-54.47-54.46A54.47,54.47,0,0,1,631.4,387.7Z" style="fill:#f2f2f2"/><path d="M777.73,197.88a40.2,40.2,0,1,1-40.2-40.2A40.19,40.19,0,0,1,777.73,197.88Z" style="fill:#f2f2f2"/><path d="M590.69,380.7a1.56,1.56,0,0,1-.05-3.12c2.42-.07,4.87-.21,7.29-.42a1.56,1.56,0,1,1,.26,3.11c-2.47.21-5,.36-7.45.43Zm-12.3-.17h-.09c-2.48-.15-5-.37-7.44-.65a1.56,1.56,0,0,1,.36-3.1c2.4.28,4.84.49,7.26.64a1.56,1.56,0,0,1-.09,3.12Zm31.86-1.88a1.56,1.56,0,0,1-.27-3.1c2.38-.43,4.78-.93,7.13-1.49a1.56,1.56,0,1,1,.73,3c-2.41.58-4.87,1.1-7.31,1.53A1.33,1.33,0,0,1,610.25,378.65Zm-51.35-.75a1.86,1.86,0,0,1-.33,0c-2.42-.51-4.86-1.1-7.26-1.75a1.56,1.56,0,1,1,.82-3c2.34.63,4.72,1.21,7.09,1.71a1.56,1.56,0,0,1-.32,3.09Zm70.39-4.18a1.56,1.56,0,0,1-.5-3c2.3-.78,4.6-1.63,6.84-2.54A1.56,1.56,0,0,1,636.8,371c-2.3.93-4.65,1.81-7,2.61A1.81,1.81,0,0,1,629.29,373.72ZM540,372.4a1.52,1.52,0,0,1-.55-.1c-2.32-.87-4.65-1.82-6.93-2.82a1.55,1.55,0,0,1-.8-2.05,1.57,1.57,0,0,1,2.06-.81c2.22,1,4.5,1.91,6.77,2.76a1.56,1.56,0,0,1-.55,3ZM647.39,366a1.56,1.56,0,0,1-.72-2.95c2.15-1.11,4.29-2.29,6.38-3.52a1.56,1.56,0,1,1,1.59,2.68c-2.14,1.27-4.34,2.48-6.53,3.61A1.57,1.57,0,0,1,647.39,366Zm-125.25-1.86a1.6,1.6,0,0,1-.76-.2c-2.17-1.2-4.33-2.49-6.43-3.81a1.56,1.56,0,0,1,1.66-2.64c2.06,1.29,4.17,2.55,6.29,3.72a1.56,1.56,0,0,1,.6,2.12A1.54,1.54,0,0,1,522.14,364.15Zm142-8.44a1.56,1.56,0,0,1-.92-2.83c2-1.42,3.91-2.91,5.79-4.43a1.56,1.56,0,1,1,2,2.42c-1.93,1.56-3.92,3.09-5.93,4.54A1.57,1.57,0,0,1,664.14,355.71Zm-158.45-2.37a1.55,1.55,0,0,1-.95-.33c-2-1.51-3.91-3.09-5.79-4.71a1.56,1.56,0,0,1,2-2.37c1.84,1.58,3.74,3.13,5.66,4.61a1.56,1.56,0,0,1-.95,2.8ZM679.19,343a1.56,1.56,0,0,1-1.09-2.68c1.73-1.69,3.44-3.45,5.08-5.24a1.56,1.56,0,0,1,2.3,2.11c-1.68,1.83-3.43,3.64-5.2,5.37A1.6,1.6,0,0,1,679.19,343ZM491,340.23a1.57,1.57,0,0,1-1.13-.48c-1.72-1.79-3.41-3.64-5-5.52a1.56,1.56,0,1,1,2.36-2c1.58,1.82,3.24,3.64,4.92,5.38a1.57,1.57,0,0,1-1.12,2.65ZM692.21,328.3a1.53,1.53,0,0,1-.94-.32,1.56,1.56,0,0,1-.3-2.18c1.47-1.93,2.9-3.93,4.26-5.94a1.56,1.56,0,1,1,2.58,1.75c-1.39,2.06-2.85,4.1-4.35,6.08A1.57,1.57,0,0,1,692.21,328.3Zm-213.77-3.19a1.54,1.54,0,0,1-1.27-.66c-1.44-2-2.84-4.09-4.17-6.19a1.56,1.56,0,0,1,2.63-1.67c1.3,2.05,2.67,4.08,4.07,6.05a1.56,1.56,0,0,1-.36,2.18A1.58,1.58,0,0,1,478.44,325.11ZM702.93,311.8a1.48,1.48,0,0,1-.75-.2,1.56,1.56,0,0,1-.62-2.11c1.17-2.13,2.29-4.32,3.34-6.5a1.56,1.56,0,1,1,2.81,1.34c-1.07,2.24-2.21,4.48-3.41,6.66A1.57,1.57,0,0,1,702.93,311.8Zm-234.71-3.5a1.57,1.57,0,0,1-1.39-.85c-1.12-2.2-2.2-4.47-3.2-6.74a1.56,1.56,0,0,1,2.85-1.26c1,2.22,2,4.43,3.13,6.58a1.56,1.56,0,0,1-.68,2.1A1.51,1.51,0,0,1,468.22,308.3Zm242.87-14.42a1.7,1.7,0,0,1-.54-.09,1.58,1.58,0,0,1-.93-2c.84-2.28,1.63-4.61,2.33-6.93a1.56,1.56,0,0,1,3,.92c-.73,2.36-1.53,4.75-2.39,7.09A1.56,1.56,0,0,1,711.09,293.88Zm-250.47-3.7a1.55,1.55,0,0,1-1.48-1.07c-.79-2.34-1.52-4.75-2.17-7.15a1.56,1.56,0,0,1,3-.82c.64,2.34,1.35,4.69,2.12,7a1.56,1.56,0,0,1-1,2A1.41,1.41,0,0,1,460.62,290.18ZM716.49,275a1.73,1.73,0,0,1-.32,0,1.56,1.56,0,0,1-1.21-1.85c.48-2.36.91-4.77,1.27-7.18a1.56,1.56,0,1,1,3.08.46c-.36,2.46-.8,4.93-1.3,7.35A1.56,1.56,0,0,1,716.49,275Zm-260.7-3.84a1.56,1.56,0,0,1-1.54-1.29c-.43-2.44-.79-4.93-1.08-7.39a1.56,1.56,0,1,1,3.1-.37c.28,2.41.64,4.83,1.06,7.22a1.56,1.56,0,0,1-1.27,1.8A1.24,1.24,0,0,1,455.79,271.11ZM719,255.44h-.09a1.56,1.56,0,0,1-1.47-1.64c.13-2.41.2-4.87.2-7.3,0-2.28-.06-4.59-.18-6.88A1.56,1.56,0,0,1,719,238H719a1.56,1.56,0,0,1,1.56,1.48c.12,2.34.18,4.71.18,7,0,2.49-.07,5-.2,7.47A1.57,1.57,0,0,1,719,255.44Zm-265.17-3.9a1.57,1.57,0,0,1-1.56-1.53c0-1.16,0-2.33,0-3.51s0-2.64.06-3.95A1.59,1.59,0,0,1,453.9,241a1.56,1.56,0,0,1,1.51,1.61c0,1.28-.05,2.57-.05,3.86s0,2.29,0,3.43a1.56,1.56,0,0,1-1.52,1.6Zm.93-19.65h-.19a1.58,1.58,0,0,1-1.36-1.74c.3-2.46.67-4.95,1.11-7.39a1.56,1.56,0,0,1,3.07.55c-.42,2.38-.79,4.81-1.08,7.21A1.56,1.56,0,0,1,454.77,231.89Zm263.06-3a1.56,1.56,0,0,1-1.54-1.33c-.35-2.41-.77-4.82-1.25-7.19a1.56,1.56,0,1,1,3.06-.62c.49,2.42.92,4.9,1.28,7.36a1.57,1.57,0,0,1-1.33,1.77ZM458.59,212.59a2,2,0,0,1-.42-.05,1.57,1.57,0,0,1-1.09-1.92c.66-2.39,1.4-4.79,2.2-7.15a1.56,1.56,0,0,1,3,1c-.78,2.31-1.5,4.65-2.15,7A1.56,1.56,0,0,1,458.59,212.59Zm255-2.93a1.57,1.57,0,0,1-1.5-1.11c-.69-2.32-1.47-4.65-2.3-6.92a1.56,1.56,0,1,1,2.93-1.07c.85,2.33,1.65,4.71,2.36,7.09a1.56,1.56,0,0,1-1,1.94A1.41,1.41,0,0,1,713.57,209.66ZM465.24,194.08a1.61,1.61,0,0,1-.64-.14,1.56,1.56,0,0,1-.79-2.06c1-2.28,2.11-4.55,3.24-6.75a1.56,1.56,0,1,1,2.77,1.43c-1.1,2.15-2.17,4.37-3.16,6.59A1.57,1.57,0,0,1,465.24,194.08Zm241.26-2.77a1.55,1.55,0,0,1-1.41-.89c-1-2.19-2.15-4.38-3.3-6.5a1.56,1.56,0,0,1,2.74-1.49c1.18,2.17,2.31,4.41,3.38,6.65a1.57,1.57,0,0,1-.74,2.08A1.63,1.63,0,0,1,706.5,191.31ZM474.57,176.74a1.6,1.6,0,0,1-.84-.24,1.57,1.57,0,0,1-.48-2.16c1.34-2.09,2.75-4.18,4.2-6.18A1.56,1.56,0,1,1,480,170c-1.41,2-2.79,4-4.1,6A1.54,1.54,0,0,1,474.57,176.74Zm222.21-2.53a1.54,1.54,0,0,1-1.29-.69c-1.35-2-2.78-4-4.23-5.94a1.56,1.56,0,1,1,2.49-1.87c1.49,2,3,4,4.33,6.07a1.56,1.56,0,0,1-1.3,2.43ZM486.36,161a1.57,1.57,0,0,1-1.18-2.59c1.63-1.88,3.33-3.73,5.06-5.5a1.56,1.56,0,1,1,2.23,2.18c-1.68,1.73-3.34,3.54-4.94,5.37A1.57,1.57,0,0,1,486.36,161Zm198.29-2.25a1.56,1.56,0,0,1-1.16-.51c-1.63-1.79-3.33-3.56-5.06-5.26a1.56,1.56,0,1,1,2.19-2.22c1.77,1.73,3.51,3.54,5.18,5.38a1.56,1.56,0,0,1-.1,2.2A1.58,1.58,0,0,1,684.65,158.74ZM500.33,147.13a1.55,1.55,0,0,1-1-2.74c1.89-1.62,3.84-3.2,5.81-4.69a1.54,1.54,0,0,1,2.18.29,1.56,1.56,0,0,1-.29,2.19c-1.92,1.46-3.83,3-5.68,4.58A1.54,1.54,0,0,1,500.33,147.13Zm170-1.92a1.54,1.54,0,0,1-1-.36c-1.88-1.53-3.82-3-5.78-4.45a1.56,1.56,0,0,1,1.83-2.53c2,1.46,4,3,5.92,4.57a1.56,1.56,0,0,1-1,2.77ZM516.19,135.5a1.56,1.56,0,0,1-.83-2.89c2.1-1.31,4.26-2.59,6.43-3.78a1.56,1.56,0,1,1,1.51,2.73c-2.12,1.17-4.23,2.41-6.29,3.7A1.53,1.53,0,0,1,516.19,135.5Zm138-1.58a1.52,1.52,0,0,1-.79-.22c-2.08-1.23-4.23-2.43-6.38-3.55a1.56,1.56,0,1,1,1.44-2.77c2.2,1.15,4.4,2.37,6.53,3.64a1.56,1.56,0,0,1-.8,2.9Zm-120.66-7.59a1.56,1.56,0,0,1-.62-3c2.27-1,4.59-1.93,6.91-2.79a1.56,1.56,0,0,1,1.09,2.93c-2.27.84-4.54,1.75-6.76,2.72A1.5,1.5,0,0,1,533.58,126.33Zm103-1.18A1.51,1.51,0,0,1,636,125c-2.25-.92-4.55-1.78-6.85-2.57a1.56,1.56,0,0,1,1-2.95c2.35.81,4.7,1.69,7,2.63a1.56,1.56,0,0,1-.6,3Zm-84.48-5.3a1.56,1.56,0,0,1-.41-3.07c2.4-.64,4.84-1.22,7.27-1.73a1.56,1.56,0,1,1,.64,3.06c-2.37.49-4.76,1.06-7.1,1.69A1.83,1.83,0,0,1,552.14,119.85Zm65.76-.76a1.55,1.55,0,0,1-.37,0c-2.36-.58-4.76-1.09-7.14-1.52a1.56,1.56,0,0,1,.57-3.07c2.43.44,4.89,1,7.3,1.55a1.56,1.56,0,0,1-.36,3.08Zm-46.44-2.89a1.56,1.56,0,0,1-.17-3.11c2.47-.28,5-.49,7.44-.63a1.54,1.54,0,0,1,1.65,1.46,1.56,1.56,0,0,1-1.47,1.65c-2.41.14-4.86.35-7.27.62Zm27-.31h-.14c-2.41-.21-4.86-.36-7.28-.45a1.56,1.56,0,0,1-1.51-1.61,1.55,1.55,0,0,1,1.62-1.51c2.48.09,5,.24,7.45.47a1.56,1.56,0,0,1-.14,3.11Z" style="fill:#f94f24"/><rect x="217.85" y="399.47" width="183.44" height="44.28" rx="20.89" ry="20.89" style="fill:#f2f2f2"/><rect x="195.04" y="33.15" width="183.44" height="44.28" rx="20.89" ry="20.89" style="fill:#f2f2f2"/><path d="M405.15,372H322.43s9,68.65-48.27,82.37H453.42C396.15,440.63,405.15,372,405.15,372Z" style="fill:#999"/><rect x="274.16" y="454.35" width="179.25" height="12.49" style="fill:#e5e5e5"/><path d="M590.58,369.19a18.33,18.33,0,0,1-18.15,18.51H140.8a18.34,18.34,0,0,1-18.15-18.51V116.5A18.34,18.34,0,0,1,140.8,98H572.43a18.33,18.33,0,0,1,18.15,18.51Z" style="fill:#b3b3b3"/><rect x="122.65" y="122.29" width="467.93" height="230.15" style="fill:url(#a)"/><rect x="122.65" y="122.29" width="467.93" height="4.57" style="fill:#e5e5e5;mix-blend-mode:multiply"/><path d="M322.8,387.7h82s1,10.9,1.57,13.72l-91.44,20.19S322.8,409,322.8,387.7Z" style="fill:#828282"/><rect x="153.79" y="176.79" width="389.8" height="176.24" style="fill:#fff"/><path d="M543.59,176.79V166.25a14.6,14.6,0,0,0-14.6-14.6H168.39a14.6,14.6,0,0,0-14.6,14.6v10.54Z" style="fill:#f94f24"/><path d="M180.52,164.22a3.45,3.45,0,1,1-3.45-3.45A3.46,3.46,0,0,1,180.52,164.22Z" style="fill:#fff"/><path d="M205.22,164.22a3.45,3.45,0,1,1-3.45-3.45A3.45,3.45,0,0,1,205.22,164.22Z" style="fill:#fff"/><path d="M229.92,164.22a3.45,3.45,0,1,1-3.44-3.45A3.45,3.45,0,0,1,229.92,164.22Z" style="fill:#fff"/><rect x="327.9" y="200.57" width="178.36" height="106.62" style="fill:#e5e5e5"/><path d="M342.74,307.18l49.55-69.81s11.53-19.65,24.26,0l47.07,69.81Z" style="fill:#d7d7d7"/><path d="M463.62,235a13,13,0,1,1-13-13A13,13,0,0,1,463.62,235Z" style="fill:#d7d7d7"/><path d="M299.59,209.86H186.46a3.65,3.65,0,0,1,0-7.3H299.59a3.65,3.65,0,1,1,0,7.3Z" style="fill:#d7d7d7"/><path d="M250.67,232.29H186.46a3.66,3.66,0,0,1,0-7.31h64.21a3.66,3.66,0,1,1,0,7.31Z" style="fill:#d7d7d7"/><path d="M299.59,260.72H186.46a1.83,1.83,0,1,1,0-3.65H299.59a1.83,1.83,0,1,1,0,3.65Z" style="fill:#d7d7d7"/><path d="M299.59,281.41H186.46a1.83,1.83,0,1,1,0-3.65H299.59a1.83,1.83,0,1,1,0,3.65Z" style="fill:#d7d7d7"/><path d="M299.59,302.11H186.46a1.83,1.83,0,1,1,0-3.65H299.59a1.83,1.83,0,1,1,0,3.65Z" style="fill:#d7d7d7"/><path d="M239.32,322.81H186.46a1.83,1.83,0,1,1,0-3.65h52.86a1.83,1.83,0,0,1,0,3.65Z" style="fill:#d7d7d7"/><path d="M590.58,352.44V258.21s-66.63,84.24-234,9.87-234,0-234,0v84.36Z" style="fill:#e5e5e5;opacity:0.1;mix-blend-mode:screen"/><rect x="122.65" y="347.88" width="467.93" height="4.57" style="fill:#e5e5e5;mix-blend-mode:multiply"/><path d="M590.57,145.29a101.55,101.55,0,1,0,0,199.13Z" style="fill:#e5e5e5;mix-blend-mode:multiply"/><path d="M681.43,245.39a96,96,0,1,1-96-96A96,96,0,0,1,681.43,245.39Z" style="fill:url(#b)"/><path d="M585.44,149.4a96,96,0,1,1-96,96,96,96,0,0,1,96-96m0-4a100,100,0,1,0,100,100,100.1,100.1,0,0,0-100-100Z" style="fill:#fff"/><g style="mix-blend-mode:multiply"><path d="M576.28,258.57l6.83-6.83a2.74,2.74,0,1,0-3.88-3.87l-8.76,8.76a2.76,2.76,0,0,0-.8,1.94,2.72,2.72,0,0,0,.8,1.93l9.06,9.06a2.72,2.72,0,0,0,3.87,0,2.73,2.73,0,0,0,0-3.87Z" style="fill:#ccc"/><path d="M609.4,247.87a2.74,2.74,0,1,0-3.87,3.87l6.82,6.83-7.12,7.12a2.73,2.73,0,0,0,0,3.87,2.7,2.7,0,0,0,1.93.81,2.73,2.73,0,0,0,1.94-.81l9.06-9.06a2.73,2.73,0,0,0,0-3.87Z" style="fill:#ccc"/><path d="M599.73,243.09a2.75,2.75,0,0,0-3.48,1.71l-9,26.21a2.74,2.74,0,0,0,1.7,3.48,2.82,2.82,0,0,0,.89.15,2.75,2.75,0,0,0,2.59-1.85l9-26.22A2.74,2.74,0,0,0,599.73,243.09Z" style="fill:#ccc"/><path d="M634.51,223l-24.3-24.3a2.72,2.72,0,0,0-.42-.34l-.09-.05a2,2,0,0,0-.38-.2l-.16-.05-.35-.11a2.47,2.47,0,0,0-.54-.05h-52a2.74,2.74,0,0,0-2.74,2.73v94a2.74,2.74,0,0,0,2.74,2.74h76.29a2.74,2.74,0,0,0,2.74-2.74V224.91A2.74,2.74,0,0,0,634.51,223ZM611,207.22l15.54,15.55H611Zm-52,84.62V203.35h46.52V225.5a2.74,2.74,0,0,0,2.74,2.74h21.56v63.6Z" style="fill:#ccc"/></g><path d="M579.64,267.62a2.72,2.72,0,0,1-1.94-.8l-9.06-9.06a2.74,2.74,0,0,1,0-3.87l8.77-8.76a2.74,2.74,0,1,1,3.87,3.87l-6.83,6.83,7.12,7.12a2.73,2.73,0,0,1,0,3.87A2.68,2.68,0,0,1,579.64,267.62Z" style="fill:#fff"/><path d="M605.34,267.62A2.74,2.74,0,0,1,603.4,263l7.13-7.12L603.7,249a2.74,2.74,0,1,1,3.87-3.87l8.76,8.76a2.74,2.74,0,0,1,0,3.87l-9.06,9.06A2.68,2.68,0,0,1,605.34,267.62Z" style="fill:#fff"/><path d="M588,271.9a2.71,2.71,0,0,1-.88-.15,2.75,2.75,0,0,1-1.71-3.48l9-26.22a2.74,2.74,0,0,1,5.18,1.78l-9,26.22A2.75,2.75,0,0,1,588,271.9Z" style="fill:#fff"/><path d="M630.75,294.58h-76.3a2.74,2.74,0,0,1-2.74-2.74v-94a2.74,2.74,0,0,1,2.74-2.73h52a2.72,2.72,0,0,1,1.94.8l24.3,24.3a2.74,2.74,0,0,1,.8,1.93v69.67A2.74,2.74,0,0,1,630.75,294.58Zm-73.56-5.48H628V223.31l-22.7-22.7H557.19Z" style="fill:#fff"/><path d="M630.75,225.5H606.44a2.74,2.74,0,0,1-2.74-2.74V197.87a2.74,2.74,0,0,1,5.48,0V220h21.57a2.74,2.74,0,0,1,0,5.47Z" style="fill:#fff"/></g></svg>