<svg width="22" height="21" viewBox="0 0 22 21" fill="none" xmlns="http://www.w3.org/2000/svg">
<path fill-rule="evenodd" clip-rule="evenodd" d="M11.2372 0.869629C5.54599 0.869629 0.92981 5.48581 0.92981 11.177C0.92981 15.7299 3.90187 19.5873 7.94893 20.9785C8.45481 21.0417 8.64452 20.7255 8.64452 20.4726C8.64452 20.2196 8.64452 19.5873 8.64452 18.702C5.79893 19.3343 5.16657 17.3108 5.16657 17.3108C4.72393 16.1093 4.02834 15.7932 4.02834 15.7932C3.07981 15.1608 4.09157 15.1608 4.09157 15.1608C5.10334 15.224 5.67246 16.2358 5.67246 16.2358C6.62099 17.8167 8.0754 17.374 8.64452 17.1211C8.70775 16.4255 9.02393 15.9829 9.27687 15.7299C7.0004 15.477 4.59746 14.5917 4.59746 10.6079C4.59746 9.46963 4.97687 8.58433 5.67246 7.82551C5.54599 7.57257 5.22981 6.49757 5.79893 5.10639C5.79893 5.10639 6.68422 4.85345 8.64452 6.18139C9.46657 5.92845 10.3519 5.86522 11.2372 5.86522C12.1225 5.86522 13.0078 5.99169 13.8298 6.18139C15.7901 4.85345 16.6754 5.10639 16.6754 5.10639C17.2445 6.49757 16.8651 7.57257 16.8019 7.82551C17.4342 8.5211 17.8769 9.46963 17.8769 10.6079C17.8769 14.5917 15.4739 15.4137 13.1975 15.6667C13.5769 15.9829 13.893 16.6152 13.893 17.5637C13.893 18.9549 13.893 20.0299 13.893 20.4093C13.893 20.6623 14.0828 20.9785 14.5886 20.9152C18.6989 19.524 21.6078 15.6667 21.6078 11.1137C21.5445 5.48581 16.9283 0.869629 11.2372 0.869629Z" fill="white"/>
</svg>
