<svg width="240" height="187" viewBox="0 0 240 187" fill="none" xmlns="http://www.w3.org/2000/svg">
<path opacity="0.7" d="M74.9192 14.7347L74.9192 14.7347L148.487 6.4121L148.431 5.91527L148.487 6.4121C155.264 5.64504 162.033 8.6669 166.237 14.3578L211.728 75.9413L212.13 75.6442L211.728 75.9413C215.933 81.6319 216.921 89.1149 214.33 95.5663L186.255 165.473C183.665 171.921 177.894 176.359 171.118 177.125L97.5518 185.449C90.7746 186.215 84.0058 183.193 79.8019 177.503L34.3095 115.919C30.1054 110.227 29.1166 102.745 31.7076 96.2937L59.7828 26.3874C62.3727 19.9386 68.1439 15.5005 74.9192 14.7347Z" stroke="#7B39D9" stroke-opacity="0.6"/>
<path opacity="0.7" d="M60.1032 74.3617L60.1033 74.3617L99.7782 34.2487L99.7782 34.2487C103.411 30.5752 108.652 29.1001 113.523 30.3658L113.649 29.882L113.523 30.3658L166.872 44.2247L166.997 43.7407L166.872 44.2247C171.742 45.4893 175.513 49.3036 176.763 54.2365L190.437 108.208C191.687 113.143 190.223 118.448 186.589 122.122L146.915 162.235C143.282 165.907 138.041 167.382 133.17 166.117L79.821 152.259C74.9509 150.993 71.1799 147.18 69.9301 142.247L56.256 88.2753C55.0057 83.3404 56.4697 78.0348 60.1032 74.3617Z" stroke="#7B39D9" stroke-opacity="0.45098"/>
<path opacity="0.7" d="M95.1186 59.7599L94.6798 59.52L95.1186 59.7598C96.8295 56.6296 100.026 54.7335 103.5 54.7715L103.5 54.7715L142.217 55.1924L142.223 54.6924L142.217 55.1924C145.694 55.23 148.941 57.1991 150.725 60.3789L170.453 95.5407L170.453 95.5408C172.238 98.7212 172.276 102.613 170.563 105.746L151.574 140.488C149.863 143.618 146.667 145.514 143.193 145.476L104.475 145.056C100.999 145.017 97.7516 143.048 95.9676 139.869L76.2393 104.707C74.4548 101.526 74.4163 97.6343 76.1289 94.5012L95.1186 59.7599Z" stroke="#7B39D9" stroke-opacity="0.298039"/>
<path opacity="0.7" d="M111.123 97.0966L110.69 96.8467L111.123 97.0966L116.238 88.2419L116.238 88.2418C116.631 87.5602 117.363 87.1403 118.159 87.1431L118.159 87.1431L128.45 87.1784C128.45 87.1784 128.45 87.1784 128.45 87.1784C129.247 87.1812 129.984 87.607 130.385 88.2951L130.385 88.2951L135.561 97.1852C135.961 97.8729 135.963 98.7158 135.569 99.3974L130.455 108.252C130.061 108.934 129.33 109.354 128.533 109.351L118.243 109.316C117.446 109.313 116.708 108.887 116.308 108.199L111.132 99.3089C110.731 98.6211 110.729 97.778 111.123 97.0966Z" stroke="#7B39D9" stroke-opacity="0.14902"/>
<path opacity="0.7" d="M145.872 114.311L126.119 125.62C124.403 126.602 122.289 126.602 120.574 125.62C120.574 125.62 120.574 125.62 120.574 125.62L100.82 114.311C99.1051 113.329 98.0508 111.516 98.0508 109.557V86.9387C98.0508 84.9789 99.1051 83.166 100.82 82.1843L100.82 82.1843L120.574 70.8754L120.574 70.8754C122.289 69.8931 124.403 69.8931 126.119 70.8754L126.119 70.8754L145.872 82.1843L145.872 82.1843C147.587 83.166 148.642 84.9789 148.642 86.9387V109.557C148.642 111.516 147.587 113.329 145.872 114.311Z" stroke="#7B39D9" stroke-opacity="0.14902"/>
<path fill-rule="evenodd" clip-rule="evenodd" d="M9.37566 67.2706L5.10754 74.3064L1.17563 66.5885L9.37566 67.2706Z" stroke="url(#paint0_linear)" stroke-linecap="round" stroke-linejoin="round" stroke-dasharray="2 2"/>
<path fill-rule="evenodd" clip-rule="evenodd" d="M47.4648 31.4512L36.2524 36.626L37.8442 23.7324L47.4648 31.4512Z" stroke="url(#paint1_linear)" stroke-linecap="round" stroke-linejoin="round" stroke-dasharray="2 2"/>
<path fill-rule="evenodd" clip-rule="evenodd" d="M138.635 3.79618L139.02 16.1344L127.768 9.63196L138.635 3.79618Z" stroke="url(#paint2_linear)" stroke-linecap="round" stroke-linejoin="round" stroke-dasharray="2 2"/>
<path fill-rule="evenodd" clip-rule="evenodd" d="M174.369 33.6442C173.684 31.2568 175.065 28.7664 177.453 28.0819C179.842 27.3973 182.333 28.7777 183.018 31.1651C183.703 33.5525 182.322 36.0429 179.934 36.7275C177.545 37.4121 175.054 36.0316 174.369 33.6442Z" stroke="url(#paint3_linear)" stroke-linecap="round" stroke-linejoin="round" stroke-dasharray="2 2"/>
<path fill-rule="evenodd" clip-rule="evenodd" d="M183.517 174.048L176.444 178.257L176.597 169.598L183.517 174.048Z" stroke="url(#paint4_linear)" stroke-linecap="round" stroke-linejoin="round" stroke-dasharray="2 2"/>
<path fill-rule="evenodd" clip-rule="evenodd" d="M235.409 128.738L223.078 128.046L230.54 117.408L235.409 128.738Z" stroke="url(#paint5_linear)" stroke-linecap="round" stroke-linejoin="round" stroke-dasharray="2 2"/>
<path fill-rule="evenodd" clip-rule="evenodd" d="M224.66 60.6969C227.099 60.2231 229.461 61.8153 229.935 64.2532C230.409 66.6913 228.816 69.0518 226.377 69.5257C223.938 69.9996 221.576 68.4074 221.102 65.9694C220.628 63.5314 222.221 61.1708 224.66 60.6969Z" stroke="url(#paint6_linear)" stroke-linecap="round" stroke-linejoin="round" stroke-dasharray="2 2"/>
<path fill-rule="evenodd" clip-rule="evenodd" d="M183.927 121.67C185.96 121.275 187.928 122.602 188.323 124.634C188.718 126.665 187.39 128.632 185.358 129.027C183.325 129.422 181.357 128.095 180.962 126.064C180.567 124.032 181.894 122.065 183.927 121.67Z" stroke="url(#paint7_linear)" stroke-linecap="round" stroke-linejoin="round" stroke-dasharray="2 2"/>
<path fill-rule="evenodd" clip-rule="evenodd" d="M53.5944 169.221L46.5212 173.431L46.6745 164.771L53.5944 169.221Z" stroke="url(#paint8_linear)" stroke-linecap="round" stroke-linejoin="round" stroke-dasharray="2 2"/>
<path fill-rule="evenodd" clip-rule="evenodd" d="M57.9273 93.1931L45.5967 92.5007L53.0581 81.8633L57.9273 93.1931Z" stroke="url(#paint9_linear)" stroke-linecap="round" stroke-linejoin="round" stroke-dasharray="2 2"/>
<path fill-rule="evenodd" clip-rule="evenodd" d="M9.7716 124.201C12.2107 123.727 14.5724 125.32 15.0465 127.758C15.5206 130.196 13.9277 132.556 11.4885 133.03C9.0494 133.504 6.68773 131.912 6.21361 129.474C5.7395 127.036 7.33245 124.675 9.7716 124.201Z" stroke="url(#paint10_linear)" stroke-linecap="round" stroke-linejoin="round" stroke-dasharray="2 2"/>
<path fill-rule="evenodd" clip-rule="evenodd" d="M60.2771 120.175C62.3097 119.78 64.2778 121.107 64.6729 123.139C65.068 125.171 63.7405 127.138 61.7079 127.533C59.6753 127.928 57.7073 126.601 57.3122 124.569C56.9171 122.537 58.2445 120.57 60.2771 120.175Z" stroke="url(#paint11_linear)" stroke-linecap="round" stroke-linejoin="round" stroke-dasharray="2 2"/>
<path fill-rule="evenodd" clip-rule="evenodd" d="M109.698 111.569C107.769 111.248 105.84 110.946 103.91 110.565C98.8857 109.6 94.0622 108.113 89.6608 105.42C85.9628 103.148 82.9683 100.194 80.8379 96.4157C80.5565 95.8932 80.2551 95.7324 79.6722 95.7525C68.94 96.2148 58.3284 97.4407 47.9378 100.275C47.7167 100.335 47.3148 100.656 47.1741 100.174C47.0535 99.7118 47.5358 99.7922 47.7569 99.7319C54.2284 97.9633 60.8004 96.8177 67.4528 96.0741C71.3517 95.652 75.2507 95.3104 79.1698 95.23C80.0742 95.2099 79.9335 94.9285 79.7526 94.2452C79.3306 92.7579 78.4663 92.3761 76.9389 92.356C67.2317 92.1751 57.6048 92.6574 48.0383 94.426C47.6765 94.4863 47.0334 94.9084 46.9128 94.3658C46.7922 93.7829 47.5157 93.9638 47.8775 93.8834C57.4039 92.0947 67.0106 91.5521 76.6776 91.8133C77.3208 91.8334 77.9438 91.8133 78.6673 91.8133C78.1247 89.9643 77.5619 88.1555 77.2806 86.2864C76.3159 80.036 75.8335 73.7856 77.7629 67.5955C78.8683 64.0382 80.6771 60.8628 83.1491 58.0692C83.6315 57.5265 83.732 57.1246 83.5109 56.4211C81.6418 50.5325 82.2648 44.7443 84.3751 39.0366C84.5962 38.4336 85.0383 38.4537 85.5006 38.4336C87.9123 38.3331 90.2236 38.916 92.4544 39.7199C96.3132 41.1066 99.8504 43.1164 103.247 45.4076C103.749 45.7492 104.192 45.8497 104.815 45.6889C115.446 43.0159 126.118 42.8752 136.83 45.287C137.534 45.4478 138.016 45.3272 138.579 44.9453C142.538 42.3728 146.658 40.1017 151.281 38.916C152.748 38.5341 154.235 38.3331 155.762 38.4135C156.345 38.4336 156.647 38.6547 156.848 39.2174C158.757 44.5032 159.4 49.8693 157.953 55.3761C157.812 55.8986 157.933 56.2202 158.295 56.602C163.601 62.1892 166.073 68.8818 166.012 76.5591C165.992 81.6841 165.711 86.7889 164.405 91.8334C165.249 91.8334 166.032 91.8535 166.836 91.8334C176.644 91.5521 186.371 92.0947 196.038 93.8834C196.139 93.9035 196.26 93.8834 196.34 93.9236C196.581 94.0844 197.164 93.8432 197.063 94.3457C196.963 94.8682 196.501 94.5265 196.219 94.4663C186.03 92.5972 175.76 92.0545 165.409 92.4163C164.445 92.4565 164.023 92.7378 163.781 93.6422C163.359 95.1697 163.299 95.1496 164.907 95.2099C175.438 95.6118 185.849 96.9182 196.038 99.6716C196.239 99.7319 196.42 99.7721 196.621 99.8324C196.742 99.8726 196.883 99.9329 196.822 100.094C196.762 100.234 196.722 100.415 196.481 100.355C196.059 100.234 195.636 100.154 195.214 100.033C188.441 98.2245 181.548 97.1192 174.594 96.4358C171.017 96.0741 167.459 95.8932 163.882 95.7123C163.46 95.6922 163.058 95.5917 162.817 96.1545C159.903 102.546 154.697 106.244 148.266 108.535C143.945 110.062 139.483 110.866 134.961 111.348C134.74 111.368 134.479 111.308 134.298 111.509C133.936 111.911 133.454 111.851 132.992 111.851C125.937 111.851 118.903 111.871 111.849 111.851C111.125 111.891 110.382 111.911 109.698 111.569Z" fill="#201F1F"/>
<path fill-rule="evenodd" clip-rule="evenodd" d="M104.312 120.031C104.935 118.061 105.578 116.091 106.824 114.403C106.925 114.263 107.025 114.142 107.146 114.021C108.955 113.017 110.985 112.956 112.974 112.715C115.507 112.414 118.059 112.635 120.571 112.474C123.385 112.293 126.179 112.434 128.952 112.735C132.148 113.077 135.062 114.162 137.333 116.574C138.237 117.518 138.78 118.704 139.523 119.769C139.986 121.357 139.986 122.985 140.006 124.613C140.046 128.894 140.006 133.155 140.026 137.435C140.026 137.797 140.066 138.159 140.086 138.521C140.408 138.842 140.368 139.244 140.368 139.646C140.388 140.551 140.327 141.455 140.388 142.339C140.508 144.691 141.553 146.54 143.603 147.766C144.086 148.067 144.628 148.248 145.05 148.65C145.834 149.353 145.915 150.057 145.372 150.921C144.287 151.765 143 151.484 141.815 151.403C140.388 151.303 138.981 151.042 137.654 150.419C134.258 149.032 132.69 146.419 132.61 142.822C132.57 141.073 132.59 139.345 132.61 137.596C132.57 134.561 132.61 131.527 132.59 128.472C132.57 126.924 132.369 125.417 131.826 123.95C131.665 123.528 131.525 123.065 131.022 122.603C130.962 127.668 131.042 132.552 130.982 137.435C131.002 140.912 130.982 144.389 130.982 147.866C130.982 150.137 131.545 152.167 133.514 153.574C134.499 155.121 134.198 156.046 132.509 156.749C132.248 156.83 131.967 156.85 131.685 156.85C129.314 156.568 127.224 155.604 125.334 154.177C123.526 152.529 122.702 150.519 122.702 148.027C122.742 139.445 122.782 130.843 122.762 122.262C122.762 121.759 122.802 121.257 122.722 120.774C122.239 119.89 121.998 119.87 121.375 120.634C121.275 121.096 121.315 121.578 121.315 122.04C121.295 130.703 121.355 139.345 121.355 148.007C121.355 150.439 120.491 152.509 118.742 154.197C116.592 155.825 114.261 156.97 111.467 156.85C111.346 156.85 111.246 156.81 111.125 156.79C109.678 155.885 109.578 155.061 110.703 153.534C112.673 152.328 113.155 150.459 113.115 148.288C113.055 144.691 113.095 141.093 113.115 137.496C113.075 132.531 113.135 127.547 113.075 122.503C112.512 122.744 112.412 123.186 112.271 123.568C111.728 125.015 111.507 126.542 111.507 128.09C111.487 131.265 111.527 134.441 111.487 137.596C111.467 139.405 111.527 141.214 111.467 143.023C111.366 146.54 109.718 149.052 106.442 150.459C104.171 151.363 101.82 151.624 99.4082 151.423C98.7651 151.243 98.2024 150.941 98.122 150.197C98.0416 149.414 98.4837 148.871 99.1269 148.489C99.6695 148.168 100.272 147.946 100.815 147.605C102.704 146.499 103.669 144.851 103.669 142.661C103.669 141.716 103.669 140.792 103.669 139.847C103.669 139.445 103.629 139.043 103.95 138.722C104.031 135.245 104.071 131.748 103.93 128.271C103.79 125.678 103.689 123.065 104.111 120.473C104.111 120.312 104.212 120.171 104.312 120.031Z" fill="#201F1F"/>
<path fill-rule="evenodd" clip-rule="evenodd" d="M145.291 150.72C145.673 149.776 145.412 149.012 144.387 148.55C141.212 147.083 139.925 144.53 140.026 141.134C140.046 140.269 140.066 139.405 140.086 138.541C146.437 139.606 152.667 141.053 158.375 144.168C160.284 145.213 162.073 146.439 163.4 148.228C165.409 150.941 165.249 153.916 162.917 156.428C160.666 158.84 157.832 160.327 154.858 161.553C150.236 163.462 145.392 164.588 140.488 165.432C140.368 165.452 140.227 165.432 140.086 165.432C139.805 165.13 139.825 164.769 139.825 164.387C139.825 162.156 139.785 159.925 139.825 157.694C139.885 154.981 141.794 152.388 144.347 151.424C144.729 151.263 145.03 151.022 145.291 150.72Z" fill="#9BD9EF"/>
<path fill-rule="evenodd" clip-rule="evenodd" d="M103.93 138.722C104.031 140.289 104.071 141.857 103.91 143.404C103.669 145.696 102.323 147.223 100.313 148.188C99.951 148.369 99.5691 148.489 99.2274 148.69C98.6647 148.992 98.2828 149.434 98.2828 150.097C98.2828 150.78 98.8255 150.941 99.3078 151.182C102.343 152.187 104.192 154.74 104.212 157.955C104.212 159.965 104.212 161.955 104.212 163.964C104.212 164.386 104.292 164.849 103.93 165.19C97.2579 164.025 90.7261 162.417 84.958 158.639C83.6918 157.815 82.5664 156.81 81.7022 155.564C79.7929 152.81 80.0341 149.997 82.3051 147.524C84.4154 145.233 87.1085 143.806 89.9021 142.601C94.3839 140.711 99.1069 139.546 103.93 138.722Z" fill="#9BD9EF"/>
<path fill-rule="evenodd" clip-rule="evenodd" d="M103.508 128.271C95.4691 130.12 87.4903 128.673 82.9281 120.473C82.3453 119.428 81.7423 118.382 81.1193 117.357C79.7526 115.107 77.9438 113.338 75.5321 112.192C74.688 111.79 73.864 111.328 73.241 110.605C72.5174 109.801 72.6782 109.137 73.6831 108.756C75.2909 108.133 76.9189 108.374 78.4865 108.916C81.5413 109.941 83.7923 111.951 85.5006 114.624C86.4452 116.091 87.3898 117.538 88.7163 118.704C92.6956 122.241 97.2176 122.503 102.041 120.915C102.664 120.714 103.287 120.453 103.91 120.211C104.252 120.633 104.031 121.015 103.85 121.397C102.523 122.101 102.523 122.101 103.649 123.126C103.689 123.166 103.709 123.246 103.729 123.306C103.91 124.713 103.79 126.14 103.81 127.547C103.79 127.828 103.689 128.07 103.508 128.271Z" fill="#201F1F"/>
<path fill-rule="evenodd" clip-rule="evenodd" d="M145.291 150.72C145.111 151.283 144.628 151.524 144.146 151.745C141.513 152.951 140.247 155.102 140.106 157.895C139.986 160.387 140.086 162.899 140.066 165.412C137.815 165.814 135.544 166.135 133.273 166.276C132.449 166.376 132.57 165.713 132.549 165.291C132.489 163.764 132.529 162.216 132.529 160.689C132.509 159.322 132.59 157.955 132.409 156.589C133.936 155.885 134.157 155.323 133.414 153.835C134.318 152.006 135.946 151.062 137.674 150.218C139.503 150.881 141.372 151.243 143.302 151.243C144.025 151.223 144.689 151.142 145.291 150.72Z" fill="#7CB9E5"/>
<path fill-rule="evenodd" clip-rule="evenodd" d="M103.91 165.23C103.91 162.799 103.93 160.367 103.89 157.935C103.85 154.94 102.403 152.85 99.7096 151.584C99.5287 151.504 99.3679 151.403 99.2675 151.202C101.679 151.303 104.031 151.061 106.302 150.197C108.151 150.901 109.698 151.986 110.663 153.775C109.839 155.242 109.919 155.784 111.125 156.608C111.447 156.97 111.447 157.392 111.447 157.834C111.447 160.226 111.467 162.618 111.447 165.009C111.447 165.431 111.467 165.874 111.105 166.215C108.713 166.054 106.282 165.793 103.91 165.23Z" fill="#7CB9E5"/>
<path fill-rule="evenodd" clip-rule="evenodd" d="M122.842 120.432C123.104 120.794 122.983 121.216 122.983 121.598C122.963 130.18 122.983 138.762 122.903 147.343C122.883 150.036 123.606 152.328 125.656 154.136C125.777 154.619 125.495 154.96 125.274 155.322C124.068 157.191 123.566 159.281 123.506 161.472C123.465 162.839 123.506 164.205 123.485 165.572C123.485 165.994 123.546 166.456 123.204 166.798C121.456 166.718 119.687 167.039 117.938 166.657C118.481 166.155 119.144 166.376 119.747 166.356C120.35 166.336 120.752 166.155 120.672 165.492C120.431 163.2 120.672 160.889 120.169 158.618C119.888 157.392 119.426 156.267 118.762 155.222C118.562 154.9 118.24 154.599 118.34 154.136C120.33 152.247 121.054 149.896 121.034 147.183C120.973 138.581 120.993 129.999 121.013 121.397C121.013 121.015 120.873 120.593 121.174 120.231C121.636 120.694 121.516 121.297 121.516 121.839C121.536 126.361 121.516 130.863 121.536 135.385C121.536 135.827 121.295 136.611 121.958 136.631C122.722 136.651 122.481 135.827 122.481 135.365C122.501 130.923 122.481 126.482 122.501 122.02C122.501 121.498 122.36 120.895 122.842 120.432Z" fill="#9BD9EF"/>
<path fill-rule="evenodd" clip-rule="evenodd" d="M123.224 166.838C123.305 164.085 122.943 161.312 123.586 158.558C123.968 156.93 124.792 155.543 125.656 154.157C127.465 155.443 129.434 156.327 131.665 156.649C131.846 156.89 131.806 157.171 131.726 157.413C130.902 159.865 130.922 162.397 130.962 164.949C130.962 165.472 131.042 166.035 130.68 166.497C128.188 166.758 125.696 166.919 123.224 166.838Z" fill="#7CB9E5"/>
<path fill-rule="evenodd" clip-rule="evenodd" d="M118.36 154.157C120.049 156.307 120.812 158.759 120.812 161.492C120.812 162.919 120.913 164.346 120.993 165.793C121.033 166.436 120.832 166.718 120.149 166.678C119.426 166.637 118.682 166.678 117.938 166.698C116.411 166.698 114.884 166.678 113.356 166.436C112.974 166.035 113.075 165.512 113.055 165.01C112.994 163.362 113.175 161.693 112.934 160.025C112.753 158.739 112.592 157.413 111.346 156.629C113.999 156.689 116.27 155.684 118.36 154.157Z" fill="#7CB9E5"/>
<path fill-rule="evenodd" clip-rule="evenodd" d="M139.523 119.769C139.302 120.452 139.202 119.829 139.121 119.709C138.197 118.081 137.172 116.533 135.604 115.408C133.595 113.981 131.303 113.378 128.912 112.976C127.123 112.675 125.294 112.634 123.546 112.695C120.451 112.795 117.335 112.655 114.24 112.956C112.492 113.137 110.743 113.298 108.995 113.599C108.372 113.7 107.829 114.222 107.146 114.041C107.849 113.056 108.713 112.253 109.698 111.589C110.321 111.228 110.924 111.609 111.547 111.609C119.124 111.589 126.721 111.589 134.298 111.589C137.071 113.639 138.88 116.332 139.523 119.769Z" fill="black"/>
<path fill-rule="evenodd" clip-rule="evenodd" d="M130.66 166.477C130.701 163.884 130.399 161.291 131.042 158.739C131.223 158.035 131.444 157.332 131.645 156.649C131.906 156.629 132.148 156.608 132.409 156.588C132.992 156.709 132.851 157.171 132.851 157.533C132.851 160.126 132.851 162.718 132.871 165.311C132.871 165.673 132.69 166.155 133.273 166.276C132.429 166.617 131.525 166.376 130.66 166.477Z" fill="#9BD9EF"/>
<path fill-rule="evenodd" clip-rule="evenodd" d="M111.346 156.629C112.492 156.689 112.733 157.513 112.974 158.458C113.537 160.729 113.276 163.04 113.356 165.311C113.376 165.673 113.356 166.055 113.376 166.417C112.633 166.356 111.889 166.276 111.145 166.216C111.145 163.02 111.165 159.804 111.165 156.609C111.206 156.629 111.286 156.629 111.346 156.629Z" fill="#9BD9EF"/>
<path fill-rule="evenodd" clip-rule="evenodd" d="M74.5071 112.172C74.8688 113.499 75.2306 114.825 75.5924 116.172C75.7732 116.815 75.6527 117.378 75.1502 117.8C74.7683 118.121 74.286 118.121 73.8438 117.88C73.2007 117.559 73.0198 116.956 73.1605 116.353C73.4821 114.946 73.9242 113.559 74.3061 112.152C74.3865 112.152 74.4468 112.152 74.5071 112.172Z" fill="#9CD9EF"/>
<path fill-rule="evenodd" clip-rule="evenodd" d="M103.689 121.478C103.749 121.056 103.83 120.634 103.89 120.212C103.95 119.97 104.151 120.051 104.312 120.031C104.051 122.523 104.131 125.015 104.091 127.507C104.091 127.768 103.97 128.01 103.91 128.271C103.769 128.271 103.649 128.271 103.508 128.271C103.508 126.522 103.508 124.774 103.508 123.025C103.106 122.463 103.287 121.94 103.689 121.478Z" fill="#030303"/>
<path fill-rule="evenodd" clip-rule="evenodd" d="M155.139 86.8693C155.32 90.6879 154.878 94.4261 153.29 97.9432C150.899 103.229 146.357 105.701 140.991 106.947C136.79 107.932 132.529 108.153 128.249 108.253C121.114 108.414 113.999 108.474 106.925 107.349C103.408 106.786 100.011 105.862 96.8558 104.153C91.7711 101.38 89.0579 97.0187 88.254 91.3511C88.053 89.9242 87.9324 88.4973 88.053 87.0502C88.4951 82.5483 90.8667 79.1317 94.2833 76.3582C96.5946 74.469 99.368 73.8661 102.262 73.7254C106 73.5445 109.739 73.9063 113.477 74.2278C118.24 74.6499 123.003 74.8308 127.786 74.3685C132.168 73.9465 136.569 73.4842 140.991 73.6852C144.528 73.846 147.723 74.8911 150.256 77.4435C152.848 80.0763 154.778 83.0709 155.139 86.8693Z" fill="#F3C9B0"/>
<path fill-rule="evenodd" clip-rule="evenodd" d="M155.139 86.8692C154.617 84.6987 153.893 82.5884 152.587 80.7394C150.336 77.5237 147.583 75.0115 143.543 74.3282C140.629 73.8257 137.695 73.9262 134.76 74.1473C132.992 74.2679 131.243 74.5091 129.495 74.5895C126.46 74.7302 123.445 75.1522 120.41 74.9914C117.114 74.8105 113.838 74.5694 110.542 74.288C106.764 73.9664 102.945 73.665 99.167 74.4287C95.7303 75.1321 93.2382 77.2022 91.2083 79.9154C89.6005 82.0458 88.5554 84.4374 88.053 87.0702C88.0128 83.7541 89.4196 81.0208 91.3289 78.4482C94.3838 74.3282 98.5641 72.64 103.568 72.5797C107.849 72.5194 112.11 72.9213 116.391 73.1424C120.069 73.3233 123.747 73.3233 127.425 73.0821C131.967 72.7807 136.489 72.3586 141.051 72.5998C147.623 72.9615 153.733 78.3679 154.979 84.8795C155.099 85.5428 155.22 86.206 155.139 86.8692Z" fill="#C39A85"/>
<path fill-rule="evenodd" clip-rule="evenodd" d="M110.683 153.795C109.799 153.172 109.316 152.127 108.392 151.524C107.709 151.082 106.885 150.841 106.322 150.198C109.859 148.61 111.286 145.776 111.145 142.018C111.085 140.591 111.165 139.164 111.165 137.717C111.849 137.355 112.572 137.134 113.316 137.516C113.316 141.475 113.336 145.455 113.336 149.414C113.336 151.404 112.452 152.871 110.683 153.795Z" fill="#9BD9EF"/>
<path fill-rule="evenodd" clip-rule="evenodd" d="M137.674 150.197C137.353 150.921 136.549 150.961 135.986 151.343C134.981 152.026 134.278 153.011 133.414 153.815C131.303 152.71 130.741 150.72 130.68 148.59C130.58 144.892 130.66 141.194 130.68 137.496C131.444 137.074 132.168 137.074 132.831 137.677C132.851 139.445 132.851 141.214 132.891 142.982C132.931 146.419 134.579 148.791 137.674 150.197Z" fill="#9BD9EF"/>
<path fill-rule="evenodd" clip-rule="evenodd" d="M113.336 137.516C112.612 137.576 111.889 137.656 111.185 137.717C111.206 133.697 110.944 129.698 111.366 125.678C111.467 124.673 111.748 123.709 112.231 122.824C112.472 122.362 112.733 121.9 113.356 121.578C113.336 126.984 113.336 132.25 113.336 137.516Z" fill="#FEFEFE"/>
<path fill-rule="evenodd" clip-rule="evenodd" d="M132.811 137.697C132.107 137.476 131.384 137.536 130.66 137.516C130.66 132.331 130.66 127.145 130.66 121.9C131.243 122.061 131.404 122.543 131.645 122.945C132.449 124.372 132.771 125.98 132.791 127.567C132.871 130.924 132.831 134.32 132.811 137.697Z" fill="#FEFEFE"/>
<path fill-rule="evenodd" clip-rule="evenodd" d="M122.842 120.433C122.822 125.678 122.802 130.924 122.802 136.169C122.802 136.672 122.882 137.094 122.079 137.174C121.275 137.255 121.154 137.013 121.154 136.29C121.174 130.944 121.154 125.598 121.154 120.252C121.837 119.528 122.34 119.589 122.842 120.433Z" fill="#FCFCFC"/>
<path fill-rule="evenodd" clip-rule="evenodd" d="M86.6059 117.92C87.2089 117.9 87.9927 118.664 87.9927 119.287C87.9927 119.749 87.7515 120.071 87.249 120.031C86.4853 119.95 86.0633 119.448 85.9427 118.724C85.8623 118.262 86.1035 117.961 86.6059 117.92Z" fill="#99D5EB"/>
<path fill-rule="evenodd" clip-rule="evenodd" d="M90.6657 122.844C89.8216 122.804 89.0378 122.161 89.0981 121.638C89.1584 121.076 89.5604 120.955 90.0427 120.995C90.7461 121.056 91.2888 121.417 91.3691 122.141C91.4294 122.664 90.9873 122.844 90.6657 122.844Z" fill="#98D4E9"/>
<path fill-rule="evenodd" clip-rule="evenodd" d="M94.4641 124.071C93.9014 123.99 93.2783 123.849 93.2582 123.086C93.2381 122.463 93.7808 122.382 94.2832 122.382C94.9264 122.382 95.5695 122.583 95.6097 123.307C95.6499 123.95 95.067 124.05 94.4641 124.071Z" fill="#99D6EB"/>
<path fill-rule="evenodd" clip-rule="evenodd" d="M99.0063 124.13C98.4838 124.07 97.8808 124.01 97.8607 123.306C97.8607 122.623 98.4436 122.462 99.0063 122.462C99.6093 122.442 100.252 122.643 100.232 123.347C100.212 123.99 99.5892 124.09 99.0063 124.13Z" fill="#99D6EB"/>
<path fill-rule="evenodd" clip-rule="evenodd" d="M84.4555 116.654C83.7923 116.554 83.4305 116.092 83.3501 115.408C83.2898 114.966 83.4305 114.625 83.9731 114.604C84.5359 114.584 85.2192 115.328 85.1991 115.951C85.1589 116.333 84.9981 116.634 84.4555 116.654Z" fill="#98D4EA"/>
<path fill-rule="evenodd" clip-rule="evenodd" d="M81.481 111.831C82.0839 111.971 82.5261 112.273 82.5864 112.936C82.6266 113.298 82.3452 113.479 82.0036 113.479C81.3805 113.458 80.9987 113.097 80.8982 112.514C80.8178 112.112 81.0791 111.891 81.481 111.831Z" fill="#97D3E8"/>
<path fill-rule="evenodd" clip-rule="evenodd" d="M103.689 121.478C103.629 122 103.569 122.523 103.508 123.045C102.905 123.085 102.242 123.005 102.282 122.261C102.343 121.458 102.986 121.317 103.689 121.478Z" fill="#97D3E8"/>
<path fill-rule="evenodd" clip-rule="evenodd" d="M79.3104 111.368C78.8884 111.268 78.4663 111.087 78.4261 110.585C78.406 110.203 78.7477 110.122 79.0693 110.142C79.5516 110.183 79.9335 110.384 79.9737 110.906C79.9938 111.268 79.6722 111.368 79.3104 111.368Z" fill="#95CFE4"/>
<path fill-rule="evenodd" clip-rule="evenodd" d="M147.924 89.5624C147.804 91.7731 147.14 94.6069 144.889 96.8579C142.237 99.4907 138.579 99.1691 136.308 96.1746C133.152 92.0143 133.152 84.6384 136.589 80.6591C139.222 77.6243 143.04 77.6444 145.693 81.1816C147.261 83.2919 147.924 85.7639 147.924 89.5624Z" fill="#FEFEFE"/>
<path fill-rule="evenodd" clip-rule="evenodd" d="M110.361 88.3163C110.422 91.2908 109.839 93.7829 108.191 95.9534C105.397 99.6112 101.458 99.6313 98.6645 95.9735C95.4288 91.7329 95.7303 83.7139 99.6292 80.1566C102.383 77.6444 105.679 78.1468 107.849 80.7997C109.738 83.0708 110.361 85.3016 110.361 88.3163Z" fill="#FEFEFE"/>
<path fill-rule="evenodd" clip-rule="evenodd" d="M121.677 104.796C119.948 104.796 118.421 103.812 117.757 102.304C117.577 101.882 117.496 101.5 117.958 101.279C118.421 101.058 118.622 101.44 118.782 101.782C120.029 104.414 123.465 104.334 124.611 101.741C124.772 101.4 124.973 101.038 125.435 101.299C125.837 101.52 125.797 101.862 125.636 102.244C125.033 103.771 123.445 104.796 121.677 104.796Z" fill="#AC5C51"/>
<path fill-rule="evenodd" clip-rule="evenodd" d="M123.425 97.5415C123.425 98.4459 122.641 99.2699 121.757 99.3101C120.833 99.3302 119.988 98.4861 119.988 97.5415C120.009 96.5969 120.752 95.793 121.657 95.7729C122.601 95.7327 123.405 96.5567 123.425 97.5415Z" fill="#AC5C51"/>
<path fill-rule="evenodd" clip-rule="evenodd" d="M135.584 88.6985C135.604 86.6686 136.067 84.7794 137.514 83.2721C139.162 81.5437 141.453 81.5838 143.061 83.3525C145.472 86.0054 145.533 91.2308 143.181 93.944C141.392 95.994 138.86 95.9337 137.172 93.7832C136.006 92.296 135.584 90.5676 135.584 88.6985Z" fill="#AB5C51"/>
<path fill-rule="evenodd" clip-rule="evenodd" d="M99.4283 88.6985C99.4283 86.6888 99.9107 84.8398 101.297 83.3324C102.966 81.5236 105.257 81.5437 106.905 83.3525C109.316 85.9853 109.357 91.2711 107.005 93.9441C105.216 95.9739 102.765 95.9337 101.076 93.8235C99.8504 92.3362 99.4283 90.5877 99.4283 88.6985Z" fill="#AB5C51"/>
<path fill-rule="evenodd" clip-rule="evenodd" d="M139.965 85.7239C139.885 86.4474 139.483 86.8896 138.739 86.8695C137.996 86.8293 137.614 86.3671 137.654 85.6234C137.694 84.8999 138.157 84.5181 138.82 84.5181C139.523 84.5181 139.925 84.9803 139.965 85.7239Z" fill="#FDFCFC"/>
<path fill-rule="evenodd" clip-rule="evenodd" d="M102.101 87.0504C101.398 87.0504 100.775 86.4273 100.755 85.7038C100.755 84.9602 101.338 84.3975 102.101 84.3975C102.865 84.3975 103.448 84.9602 103.448 85.7038C103.448 86.4072 102.805 87.0504 102.101 87.0504Z" fill="#FDFBFB"/>
<defs>
<linearGradient id="paint0_linear" x1="10.191" y1="76.5769" x2="14.6305" y2="66.6373" gradientUnits="userSpaceOnUse">
<stop stop-color="#EE7170"/>
<stop offset="1" stop-color="#8F3DDC"/>
</linearGradient>
<linearGradient id="paint1_linear" x1="40.6707" y1="43.713" x2="54.529" y2="35.0732" gradientUnits="userSpaceOnUse">
<stop stop-color="#9033EA"/>
<stop offset="1" stop-color="#483EB7"/>
</linearGradient>
<linearGradient id="paint2_linear" x1="147.271" y1="14.8399" x2="144.74" y2="-1.29089" gradientUnits="userSpaceOnUse">
<stop stop-color="#9033EA"/>
<stop offset="1" stop-color="#483EB7"/>
</linearGradient>
<linearGradient id="paint3_linear" x1="187.343" y1="29.9245" x2="176.217" y2="23.7544" gradientUnits="userSpaceOnUse">
<stop stop-color="#7D6DF2"/>
<stop offset="1" stop-color="#C499FB"/>
</linearGradient>
<linearGradient id="paint4_linear" x1="179.867" y1="182.648" x2="188.453" y2="175.954" gradientUnits="userSpaceOnUse">
<stop stop-color="#EE7170"/>
<stop offset="1" stop-color="#8F3DDC"/>
</linearGradient>
<linearGradient id="paint5_linear" x1="223.651" y1="136.378" x2="239.944" y2="135.257" gradientUnits="userSpaceOnUse">
<stop stop-color="#9033EA"/>
<stop offset="1" stop-color="#483EB7"/>
</linearGradient>
<linearGradient id="paint6_linear" x1="227.235" y1="73.9403" x2="234.347" y2="63.3913" gradientUnits="userSpaceOnUse">
<stop stop-color="#7D6DF2"/>
<stop offset="1" stop-color="#C499FB"/>
</linearGradient>
<linearGradient id="paint7_linear" x1="186.073" y1="132.706" x2="191.999" y2="123.915" gradientUnits="userSpaceOnUse">
<stop stop-color="#C6426E"/>
<stop offset="1" stop-color="#933671"/>
</linearGradient>
<linearGradient id="paint8_linear" x1="49.9444" y1="177.821" x2="58.5305" y2="171.128" gradientUnits="userSpaceOnUse">
<stop stop-color="#EE7170"/>
<stop offset="1" stop-color="#8F3DDC"/>
</linearGradient>
<linearGradient id="paint9_linear" x1="46.17" y1="100.833" x2="62.4629" y2="99.7122" gradientUnits="userSpaceOnUse">
<stop stop-color="#9033EA"/>
<stop offset="1" stop-color="#483EB7"/>
</linearGradient>
<linearGradient id="paint10_linear" x1="12.3462" y1="137.445" x2="19.4583" y2="126.896" gradientUnits="userSpaceOnUse">
<stop stop-color="#7D6DF2"/>
<stop offset="1" stop-color="#C499FB"/>
</linearGradient>
<linearGradient id="paint11_linear" x1="62.4227" y1="131.212" x2="68.3494" y2="122.421" gradientUnits="userSpaceOnUse">
<stop stop-color="#C6426E"/>
<stop offset="1" stop-color="#933671"/>
</linearGradient>
</defs>
</svg>
