<svg width="253" height="203" viewBox="0 0 253 203" fill="none" xmlns="http://www.w3.org/2000/svg">
<path fill-rule="evenodd" clip-rule="evenodd" d="M114.868 98.0122C115.457 97.914 115.883 97.0957 115.785 96.1793C115.686 95.2629 115.13 94.641 114.541 94.7392C113.952 94.8374 113.526 95.6556 113.592 96.5393C113.69 97.4558 114.246 98.1104 114.868 98.0122V98.0122Z" fill="#FFEEB8"/>
<path fill-rule="evenodd" clip-rule="evenodd" d="M153.817 102.399C155.126 102.399 156.468 101.188 156.828 99.7148C157.188 98.2419 156.435 97.0636 155.159 97.0964C153.882 97.0964 152.54 98.3074 152.148 99.7802C151.788 101.22 152.508 102.399 153.817 102.399V102.399Z" fill="#FFEEB8"/>
<path fill-rule="evenodd" clip-rule="evenodd" d="M161.967 104.46C162.457 104.689 163.243 104.198 163.734 103.38C164.192 102.561 164.159 101.743 163.668 101.514C163.178 101.285 162.392 101.776 161.934 102.561C161.41 103.412 161.443 104.231 161.967 104.46V104.46Z" fill="#FFEEB8"/>
<path fill-rule="evenodd" clip-rule="evenodd" d="M159.676 111.235C160.232 111.464 161.116 110.908 161.639 109.959C162.163 109.01 162.163 108.06 161.607 107.831C161.05 107.602 160.166 108.159 159.643 109.075C159.152 110.024 159.152 110.973 159.676 111.235V111.235Z" fill="#FFEEB8"/>
<path fill-rule="evenodd" clip-rule="evenodd" d="M176.826 125.866C177.742 125.113 178.102 124.033 177.611 123.444C177.12 122.855 175.942 122.986 175.026 123.739C174.077 124.491 173.749 125.571 174.24 126.161C174.731 126.75 175.909 126.619 176.826 125.866V125.866Z" fill="#FFEEB8"/>
<path fill-rule="evenodd" clip-rule="evenodd" d="M237.049 198.199C231.812 198.002 235.904 191.129 235.249 188.282C234.562 185.401 227.754 181.605 223.663 183.896C223.663 183.896 216.593 178.528 209.818 178.823C209.392 176.433 208.083 172.768 205.465 172.048C205.432 170.935 205.628 169.756 205.236 168.709C204.777 167.433 203.174 167.204 202.094 166.287C200.752 165.142 201.897 162.916 201.832 161.41C201.766 159.676 201.701 157.777 200.752 156.272C199.442 154.275 193.715 153.228 189.1 154.668C188.085 154.995 187.103 155.519 186.187 156.141C185.925 155.912 185.63 155.683 185.369 155.453C187.856 154.21 191.194 152.279 189.362 149.758C188.38 148.384 184.55 148.187 186.71 146.256C183.896 145.864 186.58 145.111 187.529 144.522C189.591 143.212 188.969 143.736 189.623 142.001C190.049 140.856 190.213 137.583 193.093 138.041C191.685 136.896 189.525 137.583 189.296 138.728C188.642 133.884 180.164 133.786 179.87 136.928C178.659 136.699 177.415 136.732 176.237 136.961C176.499 135.325 176.401 133.786 175.975 132.379C176.433 131.528 176.499 130.677 176.008 130.121C175.713 129.76 175.222 129.597 174.666 129.597C173.389 127.698 171.491 126.324 169.298 125.8C170.215 125.047 171.066 123.902 171.655 122.527C172.866 119.68 172.506 116.93 170.869 116.407C169.233 115.85 166.909 117.683 165.665 120.531C165.665 120.531 165.665 120.531 165.665 120.563C165.436 120.465 165.174 120.432 164.912 120.432C165.763 118.109 165.534 116.767 164.716 116.079C165.043 115.196 164.814 114.377 164.16 114.083C163.538 113.821 162.719 114.116 162.13 114.77C161.803 114.181 161.377 113.788 161.083 113.69C160.363 113.428 159.61 113.756 158.792 114.279C159.381 112.446 159.152 110.843 158.072 110.253C157.548 109.959 156.926 109.959 156.239 110.155C156.828 109.697 157.515 108.879 158.072 107.93C159.086 106.162 159.381 104.526 158.694 104.231C158.137 103.969 157.057 104.788 156.108 106.129C156.108 103.969 154.471 103.707 152.573 104.395C151.591 103.413 150.151 103.02 148.449 103.413C148.285 103.315 147.991 103.184 147.533 103.02C146.976 102.824 146.682 102.595 146.551 102.3C147.795 99.9762 147.86 98.1433 146.649 97.1614C147.009 96.605 147.271 96.0486 147.467 95.5249C148.384 92.6774 146.093 81.2874 144.292 81.1565C139.383 81.1892 137.255 85.215 136.077 88.5535C135.226 86.8515 134.244 85.9678 133.328 87.5716C132.346 89.339 132.902 90.6482 130.775 90.7464C128.68 90.8446 129.728 90.8773 128.942 93.2011C128.451 92.8738 127.731 92.6447 127.109 92.7429C127.175 92.8738 127.207 93.0375 127.24 93.1684C125.833 90.2882 122.56 87.9316 120.825 91.4664C119.909 93.3648 118.861 97.1942 119.778 99.3544C119.974 99.8126 120.465 100.402 120.989 100.664C120.629 100.794 120.269 100.925 119.909 101.089C119.614 99.4853 118.894 98.3725 118.207 98.4706C117.487 98.6016 116.996 100.009 117.094 101.744C114.901 101.416 114.443 97.0305 112.119 97.2269C110.777 97.3251 105.998 100.664 108.388 107.242C108.028 106.588 107.046 107.635 107.046 108.715C106.784 108.781 106.522 108.879 106.293 109.01C105.573 108.813 104.722 108.65 104.231 109.304C103.969 109.664 103.904 110.188 103.969 110.777C99.2887 103.053 86.0331 107.962 83.5783 117.552C82.7928 120.596 82.4328 125.08 83.0219 129.04C82.2037 128.288 81.1563 127.96 79.8471 128.648C78.2761 129.433 77.4906 133.001 75.7886 130.808C74.9704 133.394 74.5776 130.841 74.0867 129.891C73.0066 127.829 73.4975 128.451 71.7628 127.666C70.6173 127.142 67.2134 126.684 68.0971 124C66.6897 125.244 67.1479 127.338 68.2934 127.666C63.1549 127.797 61.9438 135.685 65.1514 136.274C63.5476 140.66 66.2969 146.125 70.7155 143.834C70.1263 145.405 70.5191 146.976 72.1229 146.976C71.8937 147.729 71.8937 148.547 72.1883 149.169C72.0901 149.235 71.9919 149.3 71.8937 149.366C71.9265 146.813 67.737 147.238 69.2754 150.151C67.0497 147.304 61.3547 145.798 58.0162 148.515C56.5761 149.693 55.2015 153.228 56.4452 154.177C54.7105 154.733 52.6813 156.959 54.8742 158.006C54.0886 158.432 49.3755 159.807 50.2592 161.116C49.9647 161.181 49.7028 161.279 49.4083 161.345C44.8915 161.214 37.9855 164.651 40.5384 170.837C40.9967 171.982 41.8149 172.899 42.7968 173.553C41.8476 174.535 41.3567 175.812 41.5531 177.546C41.7167 178.986 42.1422 180.394 42.7313 181.703C40.6366 180.688 38.1491 180.59 35.498 182.816C28.232 188.936 33.2397 194.664 33.2397 194.664C33.2397 194.664 30.294 191.424 26.2027 192.569C24.1735 193.158 22.5697 198.493 18.2493 194.304C14.5181 190.671 6.89204 190.475 1.45886 193.911C1.45886 193.911 10.296 189.525 15.7619 197.937C19.1003 203.108 22.1115 201.57 32.7814 201.57C40.833 201.57 231.19 201.57 231.19 201.57C231.19 201.57 244.348 203.108 245.264 192.013C245.232 191.882 242.286 198.362 237.049 198.199V198.199ZM162.413 125.44C162.538 125.607 162.538 125.607 162.663 125.773C162.538 125.773 162.413 125.773 162.163 125.94C162.288 125.773 162.413 125.607 162.413 125.44V125.44Z" fill="#FFEEB8"/>
<path fill-rule="evenodd" clip-rule="evenodd" d="M82.9892 135.488C80.8618 139.547 78.7671 146.682 90.2553 143.9C101.744 141.085 99.9434 152.803 99.9434 152.803C105.377 155.617 101.449 184.387 112.348 187.922C123.247 191.489 138.663 188.478 149.267 176.466C157.123 167.564 164.094 166.549 166.811 168.578C169.527 170.608 174.371 169.331 178.921 163.243C182.03 159.054 185.303 156.403 188.609 154.832C187.758 155.159 186.94 155.617 186.187 156.108C185.925 155.879 185.63 155.65 185.369 155.421C187.856 154.177 191.195 152.246 189.362 149.726C188.38 148.351 184.55 148.155 186.711 146.224C183.896 145.831 186.58 145.078 187.529 144.489C189.591 143.18 188.969 143.704 189.623 141.969C190.049 140.823 190.213 137.55 193.093 138.009C191.685 136.863 189.525 137.55 189.296 138.696C188.642 133.852 180.165 133.754 179.87 136.896C178.659 136.667 177.415 136.699 176.237 136.929C176.499 135.292 176.401 133.754 175.975 132.346C176.433 131.495 176.499 130.644 176.008 130.088C175.713 129.728 175.222 129.564 174.666 129.564C173.389 127.666 171.491 126.291 169.298 125.768C170.215 125.015 171.066 123.869 171.655 122.495C172.866 119.647 172.506 116.898 170.869 116.374C169.233 115.818 166.909 117.651 165.665 120.498C165.665 120.498 165.665 120.498 165.665 120.531C165.436 120.433 165.174 120.4 164.912 120.4C165.763 118.076 165.534 116.734 164.716 116.047C165.043 115.163 164.814 114.345 164.16 114.05C163.538 113.789 162.719 114.083 162.13 114.738C161.803 114.149 161.378 113.756 161.083 113.658C160.363 113.396 159.61 113.723 158.792 114.247C159.381 112.414 159.152 110.81 158.072 110.221C157.548 109.926 156.926 109.926 156.239 110.123C156.828 109.665 157.515 108.846 158.072 107.897C159.086 106.13 159.381 104.493 158.694 104.199C158.137 103.937 157.057 104.755 156.108 106.097C156.108 103.937 154.472 103.675 152.573 104.362C151.591 103.38 150.151 102.988 148.449 103.38C148.286 103.282 147.991 103.151 147.533 102.988C146.976 102.791 146.682 102.562 146.551 102.268C147.795 99.9438 147.86 98.1109 146.649 97.129C147.009 96.5726 147.271 96.0162 147.467 95.4925C148.384 92.645 146.093 81.2549 144.292 81.124C139.383 81.1568 137.256 85.1825 136.077 88.521C135.226 86.819 134.244 85.9353 133.328 87.5391C132.346 89.3065 132.902 90.6157 130.775 90.7139C128.68 90.8121 129.728 90.8448 128.942 93.1687C128.451 92.8414 127.731 92.6122 127.109 92.7104C127.175 92.8414 127.207 93.005 127.24 93.1359C125.833 90.2557 122.56 87.8991 120.825 91.434C119.909 93.3323 118.861 97.1617 119.778 99.3219C119.974 99.7801 120.465 100.369 120.989 100.631C120.629 100.762 120.269 100.893 119.909 101.057C119.614 99.4528 118.894 98.34 118.207 98.4382C117.487 98.5691 116.996 99.9765 117.094 101.711C114.901 101.384 114.443 96.9981 112.119 97.1944C110.777 97.2926 105.998 100.631 108.388 107.21C108.028 106.555 107.046 107.603 107.046 108.683C106.784 108.748 106.522 108.846 106.293 108.977C105.573 108.781 104.722 108.617 104.231 109.272C103.969 109.632 103.904 110.156 103.969 110.745C99.2888 103.02 86.0331 107.93 83.5784 117.52C82.8256 120.433 82.4656 124.72 82.9565 128.582C84.7566 130.743 84.233 133.066 82.9892 135.488V135.488ZM162.413 125.441C162.538 125.607 162.538 125.607 162.663 125.774C162.538 125.774 162.413 125.774 162.163 125.941C162.288 125.774 162.413 125.607 162.413 125.441V125.441Z" fill="#FFE5AB"/>
<path fill-rule="evenodd" clip-rule="evenodd" d="M149.169 73.3347C148.22 74.5457 147.271 81.2226 149.726 89.3069C149.758 89.3069 150.969 71.109 149.169 73.3347V73.3347Z" fill="#FFF4DC"/>
<path fill-rule="evenodd" clip-rule="evenodd" d="M147.696 69.0146C148.253 68.5237 149.136 69.6037 150.347 71.7312C150.315 71.7312 147.074 69.5383 147.696 69.0146V69.0146Z" fill="#FFF4DC"/>
<path fill-rule="evenodd" clip-rule="evenodd" d="M184.419 45.3181C183.077 45.809 180.688 47.9365 179.412 48.7547L180.066 49.5402C181.834 48.722 184.354 47.9365 184.779 47.4128C184.943 47.2819 184.845 45.1544 184.419 45.3181V45.3181Z" fill="#FFC197"/>
<path fill-rule="evenodd" clip-rule="evenodd" d="M171.196 33.1427C171.196 33.1427 178.953 36.6775 183.601 46.1037L184.125 45.7437C184.125 45.7437 181.114 35.9902 173.226 32.4553L171.196 33.1427V33.1427Z" fill="#F4C85B"/>
<path fill-rule="evenodd" clip-rule="evenodd" d="M180.492 47.5763L182.03 46.2671L183.503 49.1801L181.768 50.9475L180.492 47.5763Z" fill="#E5DCC1"/>
<path fill-rule="evenodd" clip-rule="evenodd" d="M143.474 127.437C140.856 126.946 140.496 136.733 141.805 138.696C143.31 136.634 145.929 127.928 143.474 127.437V127.437Z" fill="#728387"/>
<path fill-rule="evenodd" clip-rule="evenodd" d="M133.164 127.044C130.349 126.619 129.007 135.325 130.709 137.813C132.182 136.438 135.553 127.404 133.164 127.044V127.044Z" fill="#728387"/>
<path fill-rule="evenodd" clip-rule="evenodd" d="M132.444 127.536L134.539 123.444L136.044 123.903L133.851 128.027C133.851 128.027 132.771 129.041 132.444 127.536V127.536Z" fill="#ACBABC"/>
<path fill-rule="evenodd" clip-rule="evenodd" d="M143.049 127.863L145.143 123.805L146.649 124.263L144.456 128.387C144.423 128.354 143.376 129.402 143.049 127.863V127.863Z" fill="#ACBABC"/>
<path fill-rule="evenodd" clip-rule="evenodd" d="M147.467 71.6662C147.369 68.7205 141.608 67.1822 140.005 69.6042C136.012 75.5938 133.786 89.0131 135.357 99.6503C135.357 99.6503 147.86 83.6127 147.467 71.6662V71.6662Z" fill="#FFF4DC"/>
<path fill-rule="evenodd" clip-rule="evenodd" d="M139.579 70.7167C141.183 68.2947 146.943 69.6694 147.042 72.6151C147.14 75.7899 146.551 79.3902 145.078 82.6632C146.747 79.0301 147.86 75.0371 147.762 71.4695C147.663 68.5238 141.543 66.8219 139.939 69.2439C139.088 70.5204 138.335 72.2878 137.812 74.2188C138.368 72.8769 138.925 71.6986 139.579 70.7167V70.7167Z" fill="#FFEBC2"/>
<path fill-rule="evenodd" clip-rule="evenodd" d="M140.692 71.3062C141.707 69.997 145.634 71.0117 145.798 72.7136C146.092 75.9539 144.489 79.6197 142.689 82.5654C144.652 79.5215 146.551 75.5939 146.158 72.1245C145.962 70.4225 141.772 69.3097 140.725 70.6189C139.056 72.7136 138.074 76.5758 137.975 80.7325C138.205 76.9031 139.186 73.3028 140.692 71.3062V71.3062Z" fill="#FFEBC2"/>
<path fill-rule="evenodd" clip-rule="evenodd" d="M146.485 70.9128C146.322 69.0472 142.132 67.9344 141.052 69.4072C138.335 73.073 137.124 81.4846 138.532 88.227C138.532 88.2597 147.074 78.4407 146.485 70.9128V70.9128Z" fill="#FFCA6C"/>
<path fill-rule="evenodd" clip-rule="evenodd" d="M145.732 69.8987C145.503 69.375 142.852 68.7204 142.361 68.9822C141.15 69.6695 140.856 74.8082 141.314 78.0484C142.95 76.1501 146.42 71.4697 145.732 69.8987V69.8987Z" fill="#FFA65C"/>
<path fill-rule="evenodd" clip-rule="evenodd" d="M154.373 50.5875C156.108 44.7943 147.565 43.2233 146.06 48.2637C144.554 53.3041 142.23 66.5925 142.23 66.5925L147.598 68.098C147.598 68.098 152.638 56.4134 154.373 50.5875V50.5875Z" fill="#B7AC92"/>
<path fill-rule="evenodd" clip-rule="evenodd" d="M146.06 48.2638C144.718 52.7478 142.721 63.8106 142.296 66.1344C142.918 66.0035 143.572 66.0035 144.26 66.1017C145.7 66.3308 146.911 67.0181 147.631 67.9673C148.187 66.6581 152.737 56.0536 154.341 50.6204C156.075 44.7945 147.565 43.2234 146.06 48.2638V48.2638Z" fill="#96886E"/>
<path fill-rule="evenodd" clip-rule="evenodd" d="M162.065 38.9353C164.781 29.7382 152.802 27.7089 150.446 35.695C148.089 43.6811 144.129 64.6283 144.129 64.6283L151.624 66.723C151.624 66.723 159.348 48.1324 162.065 38.9353V38.9353Z" fill="#EAA04E"/>
<path fill-rule="evenodd" clip-rule="evenodd" d="M158.235 37.8882C160.952 28.691 148.973 26.6618 146.616 34.6479C144.26 42.634 140.299 63.5812 140.299 63.5812L147.794 65.6759C147.827 65.6759 155.551 47.0853 158.235 37.8882V37.8882Z" fill="#F4C85B"/>
<path fill-rule="evenodd" clip-rule="evenodd" d="M157.712 32.0948C156.762 34.255 154.635 35.9897 151.918 36.5134C149.889 36.9062 147.925 36.5461 146.354 35.6624C143.965 44.2704 140.332 63.6138 140.332 63.6138L147.827 65.7085C147.827 65.7085 155.551 47.1179 158.268 37.9208C158.988 35.4006 158.628 33.4695 157.712 32.0948V32.0948Z" fill="#EFB054"/>
<path fill-rule="evenodd" clip-rule="evenodd" d="M143.834 64.6612L154.013 29.7711L153.457 29.6401L143.278 64.5303L143.834 64.6612Z" fill="#EAA04E"/>
<path fill-rule="evenodd" clip-rule="evenodd" d="M152.606 52.3875L143.049 49.54L142.819 51.1765L152.115 53.9913L152.606 52.3875Z" fill="#EAA04E"/>
<path fill-rule="evenodd" clip-rule="evenodd" d="M156.795 41.3907L145.536 38.2487L145.274 39.8852L156.304 42.9945L156.795 41.3907Z" fill="#EAA04E"/>
<path fill-rule="evenodd" clip-rule="evenodd" d="M152.507 64.1373L140.79 60.8315L140.528 62.468L151.918 65.6428L152.507 64.1373Z" fill="#EAA04E"/>
<path fill-rule="evenodd" clip-rule="evenodd" d="M161.639 42.0777L145.994 37.7246C145.634 37.6264 145.242 37.8228 145.111 38.2156C145.045 38.4774 145.078 38.7392 145.176 38.9356C145.307 39.1647 145.503 39.3284 145.765 39.3938L161.148 43.6815L161.639 42.0777V42.0777Z" fill="#F4E5C9"/>
<path fill-rule="evenodd" clip-rule="evenodd" d="M157.81 53.0095L143.343 48.9838C142.918 48.8528 142.492 49.1147 142.361 49.5074V49.5074C142.296 49.7366 142.329 49.9657 142.427 50.162C142.525 50.3584 142.721 50.5221 142.95 50.5875L157.319 54.5806L157.81 53.0095V53.0095Z" fill="#F4E5C9"/>
<path fill-rule="evenodd" clip-rule="evenodd" d="M153.26 63.5158L144.292 60.9302L143.409 62.3048L152.802 65.1196L153.26 63.5158Z" fill="#E2C9A1"/>
<path fill-rule="evenodd" clip-rule="evenodd" d="M143.409 64.5632L153.784 29.4439C153.817 29.3785 153.784 29.313 153.751 29.2475C153.719 29.1821 153.653 29.1494 153.588 29.1166C153.424 29.0839 153.228 29.1821 153.195 29.3457L142.852 64.3995L143.409 64.5632V64.5632Z" fill="#F4E5C9"/>
<path fill-rule="evenodd" clip-rule="evenodd" d="M148.711 62.1739L141.347 60.1774C140.987 60.0792 140.594 60.2756 140.496 60.6683V60.6683C140.43 60.9302 140.463 61.192 140.594 61.4211C140.725 61.6502 140.921 61.8139 141.183 61.8793L148.253 63.7777L148.711 62.1739V62.1739Z" fill="#F4E5C9"/>
<path fill-rule="evenodd" clip-rule="evenodd" d="M152.769 51.6016C152.639 52.158 152.442 52.6817 152.213 53.1726L157.319 54.58L157.777 52.9762L152.769 51.6016V51.6016Z" fill="#E2C9A1"/>
<path fill-rule="evenodd" clip-rule="evenodd" d="M164.945 3.39078C158.89 4.56906 154.308 9.74039 154.962 16.6791C155.65 23.6506 161.901 28.0037 167.956 26.9891C185.532 23.9779 178.986 0.641464 164.945 3.39078V3.39078Z" fill="#E25969"/>
<path fill-rule="evenodd" clip-rule="evenodd" d="M164.978 3.78326C163.832 4.01237 162.719 4.3724 161.672 4.89608C162.588 4.47059 163.57 4.14329 164.618 3.94691C177.317 1.45943 183.896 20.3119 172.047 26.1706C184.387 20.5083 177.808 1.26305 164.978 3.78326V3.78326Z" fill="#F7697D"/>
<path fill-rule="evenodd" clip-rule="evenodd" d="M174.829 8.46423C179.313 14.5193 179.084 20.4434 176.139 23.0618C173.749 25.1892 168.283 10.0025 168.283 10.0025L174.829 8.46423V8.46423Z" fill="#D6475C"/>
<path fill-rule="evenodd" clip-rule="evenodd" d="M173.684 8.95483C178.168 15.0099 178.823 20.6394 175.844 23.2578C173.455 25.3853 167.989 10.1986 167.989 10.1986L173.684 8.95483V8.95483Z" fill="#B53951"/>
<path fill-rule="evenodd" clip-rule="evenodd" d="M166.189 31.6692L165.6 22.9957L171.589 24.2722L173.586 33.2402L166.189 31.6692Z" fill="#FFC197"/>
<path fill-rule="evenodd" clip-rule="evenodd" d="M174.928 34.9098L173.815 31.1786C173.422 32.3241 169.004 31.0804 165.305 29.8367L165.436 31.2441L172.8 35.2371L174.928 34.9098V34.9098Z" fill="#E5DCC1"/>
<path fill-rule="evenodd" clip-rule="evenodd" d="M167.105 59.8177C168.971 62.8944 183.47 50.8825 183.47 50.8825L180.786 46.3657C180.786 46.3657 170.967 51.0461 167.727 56.1193C166.745 57.723 166.385 58.6395 167.105 59.8177V59.8177Z" fill="#66545A"/>
<path fill-rule="evenodd" clip-rule="evenodd" d="M143.114 126.259C143.9 122.757 149.889 112.513 153.588 100.893C157.614 88.1614 159.381 74.0548 159.905 73.0402C160.919 71.1091 170.051 64.3013 170.051 64.3013L169.2 74.0548C169.2 74.0548 164.912 88.7506 159.086 102.726C154.144 114.607 146.78 125.506 145.405 127.241C144.718 127.339 143.311 127.405 143.114 126.259V126.259Z" fill="#494042"/>
<path fill-rule="evenodd" clip-rule="evenodd" d="M154.504 102.039C158.53 89.307 160.297 75.2003 160.821 74.1857C161.607 72.6801 167.433 68.1307 169.887 66.2651L170.051 64.3013C170.051 64.3013 160.919 71.1418 159.905 73.0402C159.381 74.0548 157.614 88.1287 153.588 100.893C149.889 112.513 143.9 122.757 143.114 126.259C143.212 126.816 143.605 127.11 144.063 127.208C145.012 123.543 150.871 113.462 154.504 102.039V102.039Z" fill="#3D3235"/>
<path fill-rule="evenodd" clip-rule="evenodd" d="M132.411 126.39C133.197 123.281 139.318 111.76 143.769 99.6169C147.991 88.1287 150.478 75.9858 151.755 73.6948C152.802 71.7964 166.451 67.5088 166.451 67.5088C162.556 75.4949 155.781 89.3397 149.267 102.072C142.558 115.196 135.521 126.521 135.161 127.11C134.146 127.601 132.804 127.306 132.411 126.39V126.39Z" fill="#494042"/>
<path fill-rule="evenodd" clip-rule="evenodd" d="M145.078 100.631C149.3 89.1433 151.788 77.0005 153.064 74.7094C153.85 73.302 161.77 70.5199 165.632 69.2107C165.927 68.6216 166.189 68.0652 166.451 67.5415C166.451 67.5415 152.802 71.8291 151.755 73.7275C150.478 76.0186 147.958 88.1614 143.769 99.6496C139.318 111.792 133.197 123.313 132.411 126.423C132.641 126.946 133.132 127.241 133.721 127.339C134.572 124.132 140.659 112.676 145.078 100.631V100.631Z" fill="#3D3235"/>
<path fill-rule="evenodd" clip-rule="evenodd" d="M151.82 74.0877C150.904 76.0842 168.578 74.5786 169.56 70.3892C174.208 50.7512 181.31 40.5395 176.204 35.499C168.054 27.4475 161.05 31.4733 158.366 38.052C156.337 43.0597 156.926 62.7631 151.82 74.0877V74.0877Z" fill="#E5DCC1"/>
<path fill-rule="evenodd" clip-rule="evenodd" d="M165.861 70.5199L165.174 68.7197L167.923 64.4321L167.694 68.8834L165.861 70.5199Z" fill="#563E35"/>
<path fill-rule="evenodd" clip-rule="evenodd" d="M171.753 48.0998C172.571 44.3686 173.749 37.0698 173.455 34.8769L174.011 34.6478C174.011 34.6478 174.633 43.1903 173.487 47.7071L172.309 49.6054L171.753 48.0998V48.0998Z" fill="#563E35"/>
<path opacity="0.4" fill-rule="evenodd" clip-rule="evenodd" d="M165.894 69.7016C165.894 69.7016 165.665 78.6696 167.072 80.7971C168.414 76.7058 169.167 74.0547 169.167 74.0547L169.462 70.6508C169.494 70.5526 169.527 70.4544 169.56 70.3562C170.051 68.2942 170.575 66.3304 171.098 64.4648L167.138 62.4028L154.144 66.985C153.62 69.2107 152.966 71.3708 152.18 73.2692C151.984 73.4328 151.853 73.5637 151.755 73.6947C151.198 74.7093 150.38 77.6877 149.267 81.6808C152.868 82.0408 159.774 79.7824 165.894 69.7016V69.7016Z" fill="#AF5652"/>
<path fill-rule="evenodd" clip-rule="evenodd" d="M148.907 80.4043C154.242 83.9064 164.978 71.2399 168.84 64.1375C173.029 56.4132 175.124 36.317 168.611 31.8657C165.338 29.6074 157.548 30.1965 155.355 35.5315C152.966 41.292 156.632 43.714 154.602 55.9223C152.475 69.0142 147.696 79.6187 148.907 80.4043V80.4043Z" fill="#726065"/>
<path fill-rule="evenodd" clip-rule="evenodd" d="M162.818 55.5626C166.352 45.22 163.243 32.2589 155.355 35.5319C152.966 41.2924 156.632 43.7144 154.602 55.9227C152.442 69.0146 147.696 79.5864 148.875 80.4374C149.627 80.9611 150.577 81.1247 151.624 81.0265C152.049 78.5063 158.988 66.789 162.818 55.5626V55.5626Z" fill="#634E55"/>
<path fill-rule="evenodd" clip-rule="evenodd" d="M169.691 61.061L184.747 47.4453L183.896 47.4126C183.896 47.4126 169.363 58.5735 169.462 58.7372C169.527 58.8681 169.691 61.061 169.691 61.061V61.061Z" fill="#E5B548"/>
<path fill-rule="evenodd" clip-rule="evenodd" d="M167.662 80.2409C166.811 77.4916 166.254 67.4107 168.316 59.8501C169.953 53.926 178.528 37.4956 174.633 34.1571C174.633 34.1571 179.313 34.9754 177.939 42.7978C175.582 56.0862 167.662 80.2409 167.662 80.2409V80.2409Z" fill="#726065"/>
<path fill-rule="evenodd" clip-rule="evenodd" d="M164.127 37.0043C164.127 37.0043 164.421 40.7028 161.803 43.7139L160.919 42.8629L164.127 37.0043V37.0043Z" fill="#634E55"/>
<path fill-rule="evenodd" clip-rule="evenodd" d="M146.518 52.9113C148.973 45.6452 156.043 31.1458 160.756 31.1131C163.505 31.0804 166.483 33.5679 163.014 40.1793C160.461 45.0233 154.111 49.7692 153.097 54.7769C152.573 57.4607 145.209 56.8716 146.518 52.9113V52.9113Z" fill="#726065"/>
<path fill-rule="evenodd" clip-rule="evenodd" d="M160.33 31.1784C160.33 31.1784 166.352 36.0552 168.545 49.769L169.2 49.6381C169.2 49.6381 168.643 36.3498 162.097 30.7529L160.33 31.1784V31.1784Z" fill="#634E55"/>
<path fill-rule="evenodd" clip-rule="evenodd" d="M172.702 34.5171C172.702 34.4189 173.226 32.1605 173.226 32.1605L174.306 34.5498L173.684 35.4663L172.702 34.5171V34.5171Z" fill="#70584D"/>
<path fill-rule="evenodd" clip-rule="evenodd" d="M169.331 62.4028C169.462 61.8464 169.331 61.3227 169.004 61.2573C168.676 61.1591 168.284 61.5518 168.153 62.1082C168.022 62.6646 168.153 63.1883 168.48 63.2538C168.807 63.3192 169.167 62.9592 169.331 62.4028V62.4028Z" fill="#9B838A"/>
<path fill-rule="evenodd" clip-rule="evenodd" d="M171.327 55.6611C171.458 55.1047 171.327 54.581 171 54.5156C170.673 54.4174 170.28 54.8101 170.149 55.3665C170.018 55.9229 170.149 56.4466 170.476 56.5121C170.804 56.5775 171.196 56.2175 171.327 55.6611V55.6611Z" fill="#9B838A"/>
<path fill-rule="evenodd" clip-rule="evenodd" d="M172.277 50.0312C172.506 45.2199 170.575 33.4699 163.505 30.4587C163.505 30.4587 166.32 29.7387 168.774 31.8988C175.32 37.6593 172.277 50.0312 172.277 50.0312V50.0312Z" fill="#A5848E"/>
<path fill-rule="evenodd" clip-rule="evenodd" d="M174.502 33.6332L174.469 33.895C176.76 37.659 172.276 50.0636 172.276 50.0636C176.793 41.2265 178.364 35.9243 174.502 33.6332V33.6332Z" fill="#A5848E"/>
<path fill-rule="evenodd" clip-rule="evenodd" d="M170.574 49.0488C170.574 48.6233 171.916 48.9834 171.72 48.6233C171.131 47.576 169.396 48.2306 168.84 48.8852C168.283 49.5398 170.574 49.0488 170.574 49.0488V49.0488Z" fill="#FFDEB3"/>
<path fill-rule="evenodd" clip-rule="evenodd" d="M160.952 30.9493C160.952 30.9493 167.302 35.6624 170.64 48.7544L171.295 48.6235C171.295 48.6235 169.625 35.957 162.687 30.5238L160.952 30.9493V30.9493Z" fill="#F4C85B"/>
<path fill-rule="evenodd" clip-rule="evenodd" d="M153.228 60.3082L171.065 50.9147L170.411 50.4893C170.411 50.4893 153.457 57.788 153.489 57.9517C153.555 58.1153 153.228 60.3082 153.228 60.3082V60.3082Z" fill="#E5B548"/>
<path fill-rule="evenodd" clip-rule="evenodd" d="M171.458 48.7552C170.051 48.5261 166.909 49.2134 165.436 49.3116L165.632 50.3263C167.563 50.4572 170.182 51.1118 170.804 50.8827C171 50.8172 171.949 48.8207 171.458 48.7552V48.7552Z" fill="#FFDEB3"/>
<path fill-rule="evenodd" clip-rule="evenodd" d="M170.476 50.8828C171.131 50.9483 171.393 50.981 171.491 50.7192C171.655 50.2937 171.295 50.3919 171 50.2937C169.985 50.0319 170.476 50.8828 170.476 50.8828V50.8828Z" fill="#FFDEB3"/>
<path fill-rule="evenodd" clip-rule="evenodd" d="M171.033 49.3443C171.687 49.3443 171.949 49.377 172.047 49.1152C172.211 48.6242 171.753 48.657 171.066 48.6897C170.051 48.7552 171.033 49.3443 171.033 49.3443V49.3443Z" fill="#FFDEB3"/>
<path fill-rule="evenodd" clip-rule="evenodd" d="M170.902 50.1628C171.556 50.261 171.687 50.2282 171.818 49.9664C172.015 49.5409 171.884 49.6391 171.229 49.5082C170.182 49.3118 170.902 50.1628 170.902 50.1628V50.1628Z" fill="#FFDEB3"/>
<path fill-rule="evenodd" clip-rule="evenodd" d="M166.221 48.4268L167.891 48.2305L167.629 51.4707L165.534 51.9944L166.221 48.4268Z" fill="#E5DCC1"/>
<path fill-rule="evenodd" clip-rule="evenodd" d="M145.929 55.5943C146.322 58.6054 166.025 53.3032 166.025 53.3032L166.712 47.0518C166.712 47.0518 153.489 48.1646 148.089 51.6012C146.551 52.5831 145.765 54.3833 145.929 55.5943V55.5943Z" fill="#726065"/>
<path fill-rule="evenodd" clip-rule="evenodd" d="M146.354 54.8423C146.289 54.2532 146.42 53.5659 146.747 52.8785C146.125 53.7622 145.831 54.7769 145.929 55.5624C146.322 58.5736 166.025 53.2713 166.025 53.2713L166.091 52.6167C163.407 53.3695 146.714 57.6244 146.354 54.8423V54.8423Z" fill="#634E55"/>
<path fill-rule="evenodd" clip-rule="evenodd" d="M147.074 53.828C148.711 48.0675 153.097 37.6594 157.155 33.2408C152.9 37.5612 148.122 47.4784 146.256 53.0425C145.732 54.5808 146.354 55.5627 147.369 56.0864C146.943 55.5627 146.78 54.8099 147.074 53.828V53.828Z" fill="#634E55"/>
<path fill-rule="evenodd" clip-rule="evenodd" d="M164.552 51.3075C164.519 50.9147 164.127 50.6201 163.636 50.6529C163.145 50.6856 162.785 51.0456 162.817 51.4384C162.85 51.8312 163.243 52.1257 163.734 52.093C164.225 52.0603 164.585 51.7002 164.552 51.3075V51.3075Z" fill="#9B838A"/>
<path fill-rule="evenodd" clip-rule="evenodd" d="M165.076 35.7612C165.469 35.3357 165.862 34.9757 166.32 34.6811C165.305 33.1101 164.094 31.6699 162.654 30.5571L160.952 30.9826C160.952 30.9499 162.818 32.3573 165.076 35.7612V35.7612Z" fill="#E5B548"/>
<path fill-rule="evenodd" clip-rule="evenodd" d="M156.861 48.3288L158.104 46.7578L154.504 49.3435L158.53 48.1979L156.861 48.3288Z" fill="#59424B"/>
<path fill-rule="evenodd" clip-rule="evenodd" d="M163.963 74.5132L161.672 74.8405L161.508 76.0188L163.8 75.6915L163.963 74.5132Z" fill="#706165"/>
<path fill-rule="evenodd" clip-rule="evenodd" d="M157.417 81.9759C159.021 82.7287 161.181 82.0741 162.261 81.2559C162.261 81.2559 161.181 83.2851 159.021 83.3178C157.646 83.3178 157.417 81.9759 157.417 81.9759V81.9759Z" fill="#3D3235"/>
<path fill-rule="evenodd" clip-rule="evenodd" d="M183.536 47.1183C183.732 46.8564 183.568 46.1364 183.732 45.8091C184.027 45.2526 184.354 46.0054 184.452 45.7436C184.648 45.3181 184.158 44.8272 183.503 44.9581C183.045 45.0563 182.881 45.94 182.423 46.4309C182.226 46.7255 183.077 47.7074 183.536 47.1183V47.1183Z" fill="#FFDEB3"/>
<path fill-rule="evenodd" clip-rule="evenodd" d="M184.387 46.0051C184.943 45.776 185.172 45.7105 185.139 45.4487C185.074 44.9905 184.747 45.1869 184.19 45.4487C183.339 45.8742 183.83 46.2342 184.387 46.0051V46.0051Z" fill="#FFDEB3"/>
<path fill-rule="evenodd" clip-rule="evenodd" d="M184.583 46.6268C185.107 46.4304 185.238 46.365 185.238 46.1031C185.205 45.7104 185.107 45.8413 184.55 46.005C183.699 46.2995 184.059 46.8559 184.583 46.6268V46.6268Z" fill="#FFDEB3"/>
<path fill-rule="evenodd" clip-rule="evenodd" d="M184.387 47.4454C185.008 47.1836 185.238 47.0854 185.205 46.8235C185.139 46.3653 184.878 46.5944 184.583 46.6926C183.732 46.9544 183.797 47.74 184.387 47.4454V47.4454Z" fill="#FFDEB3"/>
<path opacity="0.4" fill-rule="evenodd" clip-rule="evenodd" d="M174.371 33.0111L173.815 31.1782C173.749 31.3746 173.52 31.5055 173.226 31.571L171.589 24.2722L165.6 22.9957L166.091 30.0981C165.829 29.9999 165.567 29.9345 165.305 29.8363L165.371 30.3927C164.29 30.2618 163.505 30.4582 163.505 30.4582C163.636 30.5236 163.767 30.5891 163.898 30.6545C163.538 30.6545 163.21 30.6873 162.85 30.72C162.785 30.6873 162.752 30.6218 162.687 30.5891L161.345 30.9164C167.04 33.2729 168.283 41.6845 173.455 41.5209C177.055 41.39 178.757 36.6768 176.204 34.2548C175.648 33.6984 174.993 33.3711 174.371 33.0111V33.0111Z" fill="#AF5652"/>
<path fill-rule="evenodd" clip-rule="evenodd" d="M175.648 22.5377C169.593 23.585 171.949 12.1623 166.025 9.28205C163.079 7.84193 161.377 4.89624 164.781 3.84888C158.824 5.09262 154.34 10.2312 155.028 17.1045C155.715 24.076 161.737 27.9054 167.825 26.858C172.08 26.138 175.124 24.7306 176.793 22.2758C176.4 22.374 176.04 22.4722 175.648 22.5377V22.5377Z" fill="#D6475C"/>
<path fill-rule="evenodd" clip-rule="evenodd" d="M165.698 24.6656C165.698 24.6656 169.756 28.4296 174.666 28.135C174.666 28.135 170.673 30.2952 165.207 25.7457L165.698 24.6656V24.6656Z" fill="#7F414A"/>
<path fill-rule="evenodd" clip-rule="evenodd" d="M163.374 16.4499C165.141 19.6902 165.567 25.4834 167.989 26.8908C170.411 28.2982 174.96 28.3309 177.513 28.0036C177.513 28.0036 177.742 19.7884 175.32 13.7661C175.353 6.89278 168.12 6.00907 165.076 8.62746C162.065 11.2131 161.148 12.3587 163.374 16.4499V16.4499Z" fill="#FFDEB3"/>
<path opacity="0.4" fill-rule="evenodd" clip-rule="evenodd" d="M166.32 14.2244L174.96 11.3114C174.6 10.1004 174.109 9.54397 173.52 8.95483L165.665 11.2459L166.32 14.2244V14.2244Z" fill="#C95D5D"/>
<path fill-rule="evenodd" clip-rule="evenodd" d="M175.582 15.9591C175.451 15.4027 175.091 15.0427 174.764 15.1081C174.437 15.1736 174.24 15.6645 174.371 16.2209C174.502 16.7774 174.862 17.1374 175.189 17.0719C175.517 17.0065 175.68 16.4828 175.582 15.9591V15.9591Z" fill="#684A41"/>
<path fill-rule="evenodd" clip-rule="evenodd" d="M171.589 5.45312L164.127 8.07152L164.356 11.41L174.404 8.88977L171.589 5.45312Z" fill="#E25969"/>
<path fill-rule="evenodd" clip-rule="evenodd" d="M167.956 16.0568C165.501 7.12153 163.538 7.12153 161.05 7.61248C154.995 8.79076 153.948 15.1404 155.584 20.1808C157.09 24.763 163.276 27.9705 165.992 27.0541C167.858 26.5631 169.363 21.1627 167.956 16.0568V16.0568Z" fill="#D6475C"/>
<path fill-rule="evenodd" clip-rule="evenodd" d="M167.956 16.0576C167.105 12.9155 166.287 10.8535 165.501 9.57703C166.058 10.6898 166.614 12.2609 167.203 14.3883C168.611 19.4942 167.007 26.1711 165.076 26.6293C164.061 26.9894 162.556 26.7603 160.985 26.1057C162.85 27.0548 164.716 27.4476 165.927 27.0221C167.858 26.5639 169.363 21.1634 167.956 16.0576V16.0576Z" fill="#E25969"/>
<path fill-rule="evenodd" clip-rule="evenodd" d="M162.163 18.9371C159.937 16.0896 157.188 13.8312 155.781 14.9768C154.373 16.1223 154.897 20.2136 157.122 23.0938C159.348 25.9413 162.752 27.3815 164.159 26.2359C165.534 25.0576 164.356 21.7846 162.163 18.9371V18.9371Z" fill="#E25969"/>
<path fill-rule="evenodd" clip-rule="evenodd" d="M157.908 12.2934C158.17 11.1152 157.875 10.0678 157.286 9.96962C156.697 9.87143 156.01 10.7224 155.781 11.9007C155.519 13.079 155.813 14.1263 156.402 14.2245C156.992 14.3227 157.646 13.4717 157.908 12.2934V12.2934Z" fill="#E25969"/>
<path fill-rule="evenodd" clip-rule="evenodd" d="M169.233 9.54426L172.866 8.20233C172.866 8.20233 170.64 5.25663 167.76 3.58741C166.876 3.55468 165.96 3.62014 164.978 3.78379C164.258 3.91471 163.57 4.11109 162.883 4.37293C165.174 5.02753 167.891 6.66402 169.233 9.54426V9.54426Z" fill="#FFB6C1"/>
<path fill-rule="evenodd" clip-rule="evenodd" d="M164.618 11.8351L178.921 8.2348L174.928 7.05652L164.356 10.4932L164.618 11.8351Z" fill="#FF8092"/>
<path fill-rule="evenodd" clip-rule="evenodd" d="M173.16 14.4539C173.782 15.5339 177.251 21.3272 177.219 21.4253C177.186 21.5235 173.717 22.0799 173.717 22.0799L173.16 14.4539V14.4539Z" fill="#FFDEB3"/>
<path fill-rule="evenodd" clip-rule="evenodd" d="M173.422 14.7479L173.357 15.1407C174.6 17.3009 176.891 21.163 176.891 21.2612C176.859 21.3594 174.928 21.7521 173.848 21.8831L173.749 22.1122C173.749 22.1122 177.546 21.6867 177.579 21.5558C177.546 21.4576 174.011 15.8607 173.422 14.7479V14.7479Z" fill="#F9AD8F"/>
<path fill-rule="evenodd" clip-rule="evenodd" d="M174.928 26.0393C173.357 26.2029 172.08 24.4682 171.917 23.0609L176.171 22.9299C176.171 22.9299 176.662 25.8429 174.928 26.0393V26.0393Z" fill="#603333"/>
<path fill-rule="evenodd" clip-rule="evenodd" d="M175.844 24.1414C175.877 23.5849 175.811 23.094 175.811 23.094L172.146 23.2249C172.178 23.5522 172.309 23.9122 172.473 24.2723L175.844 24.1414V24.1414Z" fill="#FFF6E1"/>
<path fill-rule="evenodd" clip-rule="evenodd" d="M172.08 14.4534C172.44 13.9952 172.342 12.8169 171.982 12.686C171.622 12.555 168.84 13.6679 168.742 13.9297C168.643 14.1915 168.414 15.1407 168.774 15.2389C169.102 15.3371 171.786 14.8461 172.08 14.4534V14.4534Z" fill="#824631"/>
<path fill-rule="evenodd" clip-rule="evenodd" d="M173.586 14.159C173.291 13.7662 173.226 12.5225 173.455 12.2934C173.684 12.0643 175.779 12.5552 175.844 12.8171C175.942 13.0462 176.204 13.9626 175.975 14.159C175.779 14.3554 173.848 14.4863 173.586 14.159V14.159Z" fill="#824631"/>
<path fill-rule="evenodd" clip-rule="evenodd" d="M172.473 16.5155C172.342 15.9591 171.982 15.5991 171.655 15.6645C171.327 15.73 171.131 16.2209 171.262 16.7773C171.393 17.3338 171.753 17.6938 172.08 17.6283C172.408 17.5629 172.571 17.0719 172.473 16.5155V16.5155Z" fill="#684A41"/>
<path fill-rule="evenodd" clip-rule="evenodd" d="M140.299 67.1814C140.398 68.0324 138.826 68.1961 136.012 67.9342C136.012 67.9342 140.168 66.2323 140.299 67.1814V67.1814Z" fill="#FFF4DC"/>
<path fill-rule="evenodd" clip-rule="evenodd" d="M133.066 116.309C133.23 114.116 135.946 102.039 139.677 96.5399C143.867 90.3867 146.42 85.1172 146.42 85.1172C146.42 85.1172 145.831 90.8777 141.347 97.62C137.55 103.413 133.066 116.309 133.066 116.309V116.309Z" fill="#FFF4DC"/>
<path fill-rule="evenodd" clip-rule="evenodd" d="M124.033 134.573C125.571 131.267 132.15 111.04 132.641 99.3228C133.197 86.1981 134.735 76.019 134.735 76.019C134.735 76.019 130.906 84.9216 130.153 99.1919C129.498 111.4 124.033 134.573 124.033 134.573V134.573Z" fill="#FFF4DC"/>
<path fill-rule="evenodd" clip-rule="evenodd" d="M137.55 70.6835C137.288 72.1891 132.837 77.2949 125.08 80.7316C125.08 80.7316 138.041 67.8687 137.55 70.6835V70.6835Z" fill="#FFF4DC"/>
<path fill-rule="evenodd" clip-rule="evenodd" d="M169.004 163.244C170.345 161.214 170.215 158.989 168.84 157.974C167.432 156.96 165.043 157.451 163.276 159.251C161.247 161.313 160.886 164.258 162.752 165.502C164.552 166.746 167.432 165.568 169.004 163.244V163.244Z" fill="#FFEEB8"/>
<path fill-rule="evenodd" clip-rule="evenodd" d="M178.168 136.209C177.186 135.227 175.942 135.063 175.222 135.718C174.502 136.373 174.502 137.78 175.32 138.958C176.237 140.3 177.841 140.857 178.724 139.94C179.608 139.056 179.281 137.322 178.168 136.209V136.209Z" fill="#FFEEB8"/>
<path fill-rule="evenodd" clip-rule="evenodd" d="M106.751 110.974C105.802 108.65 103.805 107.472 102.136 108.061C100.467 108.683 99.4851 111.007 99.976 113.56C100.565 116.505 102.889 118.535 105.016 117.651C107.177 116.8 107.864 113.625 106.751 110.974V110.974Z" fill="#FFEEB8"/>
<path fill-rule="evenodd" clip-rule="evenodd" d="M102.824 128.975C102.725 127.437 101.809 126.357 100.729 126.389C99.6488 126.422 98.6015 127.568 98.4051 129.171C98.176 131.004 99.1251 132.608 100.533 132.543C101.907 132.444 102.922 130.742 102.824 128.975V128.975Z" fill="#FFEEB8"/>
<path fill-rule="evenodd" clip-rule="evenodd" d="M98.5687 141.576C100.86 139.776 101.58 137.19 100.369 135.521C99.1578 133.852 96.2448 133.459 93.561 134.834C90.4516 136.438 88.9133 139.645 90.5498 141.773C92.1863 143.867 95.9175 143.638 98.5687 141.576V141.576Z" fill="#FFEEB8"/>
<path fill-rule="evenodd" clip-rule="evenodd" d="M102.889 190.246C102.725 184.06 94.9356 178.987 85.7057 184.519C76.4759 190.05 56.3142 189.919 56.5433 181.835C56.5433 181.835 51.6338 177.973 47.7717 184.649C45.7097 188.184 45.8734 194.076 51.012 201.276H122.985C108.289 201.244 103.02 195.581 102.889 190.246V190.246Z" fill="#FFE5AB"/>
<path fill-rule="evenodd" clip-rule="evenodd" d="M174.699 192.373C174.699 189.689 171.229 187.497 166.974 187.497C162.719 187.497 159.25 189.689 159.25 192.373C159.25 195.057 162.719 197.25 166.974 197.25C171.229 197.217 174.699 195.057 174.699 192.373V192.373Z" fill="#FFEEB8"/>
<path fill-rule="evenodd" clip-rule="evenodd" d="M103.642 191.327C105.18 188.97 103.674 185.206 100.238 182.948C96.8012 180.689 92.7426 180.787 91.2043 183.144C89.666 185.501 91.1716 189.265 94.6082 191.523C98.0449 193.781 102.103 193.683 103.642 191.327V191.327Z" fill="#FFEEB8"/>
<path fill-rule="evenodd" clip-rule="evenodd" d="M77.8178 183.373C73.1375 183.832 68.9808 182.817 67.0824 181.017C66.4933 181.933 66.2642 182.882 66.4933 183.733C67.2461 186.548 72.5156 187.628 78.2433 186.123C82.9892 184.879 86.5895 182.228 87.2441 179.74C85.4112 181.54 81.9091 182.948 77.8178 183.373V183.373Z" fill="#FFE5AB"/>
<path fill-rule="evenodd" clip-rule="evenodd" d="M175.451 146.257C175.451 142.362 172.964 139.188 169.92 139.188C166.876 139.188 164.389 142.362 164.389 146.257C164.389 150.152 166.876 153.327 169.92 153.327C172.964 153.327 175.451 150.152 175.451 146.257V146.257Z" fill="#FFEEB8"/>
<path fill-rule="evenodd" clip-rule="evenodd" d="M200.784 160.626C200.522 158.433 198.624 156.796 196.595 156.993C194.566 157.189 193.125 159.087 193.387 161.28C193.649 163.473 195.547 165.11 197.577 164.913C199.639 164.75 201.079 162.818 200.784 160.626V160.626Z" fill="#FFF6D2"/>
<path fill-rule="evenodd" clip-rule="evenodd" d="M215.807 191.915C216.822 189.166 215.906 186.286 213.745 185.5C211.585 184.715 209.032 186.286 207.985 189.035C206.97 191.784 207.887 194.664 210.047 195.45C212.207 196.235 214.793 194.664 215.807 191.915V191.915Z" fill="#FFF6D2"/>
<path fill-rule="evenodd" clip-rule="evenodd" d="M196.562 186.417C199.999 186.744 202.912 185.598 203.075 183.831C203.239 182.096 200.588 180.394 197.184 180.067C193.747 179.74 190.834 180.885 190.671 182.653C190.474 184.42 193.125 186.089 196.562 186.417V186.417Z" fill="#FFF6D2"/>
<path fill-rule="evenodd" clip-rule="evenodd" d="M193.584 176.434C194.402 175.943 194.598 174.765 194.009 173.75C193.42 172.736 192.274 172.31 191.456 172.801C190.638 173.292 190.442 174.47 191.031 175.485C191.62 176.467 192.765 176.892 193.584 176.434V176.434Z" fill="#FFF6D2"/>
<path fill-rule="evenodd" clip-rule="evenodd" d="M165.829 136.864C166.778 136.896 167.563 135.98 167.596 134.802C167.629 133.623 166.909 132.674 165.96 132.641C165.01 132.609 164.225 133.525 164.192 134.703C164.159 135.882 164.88 136.831 165.829 136.864V136.864Z" fill="#FFEEB8"/>
<path fill-rule="evenodd" clip-rule="evenodd" d="M194.075 170.641C185.303 173.194 178.332 171.165 175.451 165.666L171.229 168.481C171.229 168.448 179.379 180.82 194.075 170.641V170.641Z" fill="#FFE5AB"/>
<path fill-rule="evenodd" clip-rule="evenodd" d="M100.729 164.258C88.6514 167.564 84.5602 154.832 84.5602 154.832C84.5602 165.404 95.2629 167.302 101.612 167.302C107.962 167.302 111.301 173.783 111.53 179.641L114.574 170.346C114.606 170.379 112.806 160.953 100.729 164.258V164.258Z" fill="#FFE5AB"/>
<path fill-rule="evenodd" clip-rule="evenodd" d="M118.927 161.967C117.061 159.251 111.89 155.192 109.37 155.847C106.849 156.534 107.962 161.705 109.828 164.422C111.693 167.139 115.228 168.808 117.748 168.12C120.269 167.466 120.792 164.684 118.927 161.967V161.967Z" fill="#FFEEB8"/>
<path fill-rule="evenodd" clip-rule="evenodd" d="M201.144 196.268C201.144 196.268 199.999 199.377 197.151 199.279C194.304 199.181 196.038 195.908 195.449 194.533C194.86 193.159 190.9 191.359 188.805 192.439C188.805 192.439 184.55 189.886 180.884 190.017C180.492 188.871 179.51 187.136 178.037 186.776C177.939 186.253 177.972 185.696 177.677 185.173C177.317 184.551 176.433 184.453 175.779 184.027C174.96 183.471 175.451 182.423 175.288 181.703C175.124 180.885 174.96 179.969 174.338 179.249C173.488 178.299 170.28 177.808 167.858 178.496C167.662 178.561 167.465 178.627 167.302 178.692C167.302 178.692 167.302 178.692 167.269 178.692C167.171 178.725 167.072 178.79 166.974 178.823C166.942 178.823 166.909 178.856 166.909 178.856C166.843 178.888 166.745 178.921 166.68 178.987C166.581 179.052 166.483 179.118 166.385 179.183C166.221 179.085 166.058 178.954 165.894 178.856C167.171 178.267 168.84 177.35 167.662 176.139C167.04 175.485 164.912 175.386 165.96 174.47C164.389 174.274 165.796 173.914 166.287 173.652C167.302 173.03 167.007 173.292 167.236 172.441C167.4 171.884 167.236 170.346 168.84 170.542C167.989 169.986 166.843 170.313 166.811 170.87C166.123 168.579 161.476 168.513 161.541 170.019C160.854 169.92 160.166 169.92 159.577 170.051C159.61 169.266 159.446 168.546 159.119 167.858C159.315 167.466 159.283 167.04 158.988 166.778C158.792 166.615 158.53 166.517 158.235 166.517C157.384 165.6 156.272 164.946 155.028 164.716C155.453 164.356 155.846 163.8 156.075 163.145C156.533 161.803 156.141 160.494 155.191 160.232C154.242 159.971 153.129 160.854 152.639 162.196V162.196C152.508 162.163 152.377 162.131 152.213 162.131C152.508 161.018 152.278 160.363 151.788 160.069C151.886 159.709 151.755 159.381 151.493 159.185C152.148 162.491 152.475 165.927 152.475 169.462C152.475 181.311 148.613 192.21 142.132 200.818C168.447 200.818 194.075 200.818 194.075 200.818C194.075 200.818 201.439 201.57 201.144 196.268V196.268Z" fill="#FFE5AB"/>
<path fill-rule="evenodd" clip-rule="evenodd" d="M180.23 195.123C176.204 190.934 169.724 183.079 161.705 187.301C153.686 191.49 142.23 188.086 140.692 181.966C140.692 181.966 127.895 183.111 129.433 201.244H201.406C186.71 201.244 184.223 199.345 180.23 195.123V195.123Z" fill="#FFE5AB"/>
<path fill-rule="evenodd" clip-rule="evenodd" d="M142.001 197.119C142.918 195.515 141.608 193.06 139.088 191.588C136.568 190.115 133.753 190.246 132.837 191.849C131.92 193.453 133.23 195.908 135.75 197.381C138.27 198.821 141.085 198.723 142.001 197.119V197.119Z" fill="#FFEEB8"/>
<path fill-rule="evenodd" clip-rule="evenodd" d="M127.96 183.897C129.728 184.42 131.299 181.704 132.477 177.842C133.622 173.979 133.917 170.445 132.15 169.921C130.382 169.397 125.833 171.328 124.687 175.19C123.509 179.053 126.193 183.373 127.96 183.897V183.897Z" fill="#FFEEB8"/>
<path fill-rule="evenodd" clip-rule="evenodd" d="M157.875 177.678C159.217 171.918 156.992 166.91 152.999 165.83C148.94 164.75 143.867 167.859 141.379 173.489C138.532 179.936 140.201 187.006 145.503 188.25C150.707 189.461 156.304 184.289 157.875 177.678V177.678Z" fill="#FFEEB8"/>
<path fill-rule="evenodd" clip-rule="evenodd" d="M179.608 162.557C186.285 153.851 193.289 153.883 200.457 154.931C207.625 155.978 217.182 156.273 221.502 153.523C226.379 150.447 233.874 149.236 240.551 152.28C231.223 147.73 226.936 149.236 220.553 153C219.244 153.752 209.752 155.978 200.359 154.112C184.747 151.036 179.608 162.557 179.608 162.557V162.557Z" fill="#FFE5AB"/>
</svg>
