<?xml version="1.0" encoding="utf-8"?>
<svg width="163px" height="228px" viewBox="0 0 163 228" version="1.1" xmlns:xlink="http://www.w3.org/1999/xlink" xmlns="http://www.w3.org/2000/svg">
  <desc>Created with Lunacy</desc>
  <defs>
    <linearGradient x1="1" y1="1" x2="0" y2="0" id="gradient_1">
      <stop offset="0" stop-color="#EE7170" />
      <stop offset="1" stop-color="#8F3DDC" />
    </linearGradient>
    <linearGradient x1="0.3927356" y1="0.7005875" x2="0.964460731" y2="-0.368284434" id="gradient_2">
      <stop offset="0" stop-color="#8033EB" />
      <stop offset="0.53" stop-color="#D4648E" />
      <stop offset="1" stop-color="#EC7071" />
    </linearGradient>
    <linearGradient x1="0.313737273" y1="0.750722766" x2="0.429322362" y2="0.5305762" id="gradient_3">
      <stop offset="0" stop-color="#EEEEEE" />
      <stop offset="1" stop-color="#E9E9E9" />
    </linearGradient>
    <linearGradient x1="0" y1="0.499999821" x2="1" y2="0.499999821" id="gradient_4">
      <stop offset="0" stop-color="#8033EB" />
      <stop offset="1" stop-color="#6731CE" />
    </linearGradient>
    <path d="M101.378 96.1311L62.4227 117.383C58.7359 119.394 54.0617 119.137 50.1603 116.708L8.93542 91.0421C5.03401 88.6129 2.49858 84.3819 2.28385 79.9419L0.0147722 33.0234C-0.199959 28.5834 1.93867 24.6092 5.62534 22.5983L44.5812 1.3461C48.2678 -0.665416 52.942 -0.408099 56.8435 2.02115L98.0677 27.6873C101.969 30.1158 104.505 34.3474 104.719 38.7874L106.988 85.7059C107.203 90.1459 105.064 94.1195 101.378 96.1311L101.378 96.1311Z" transform="matrix(0.9702957 0.2419219 0.2419219 -0.9702957 0 123.3158)" id="path_1" />
  </defs>
  <g id="Group-4" transform="translate(1 1)">
    <g id="Much-faster-time-to-market" transform="translate(12.54321 150.2021)">
      <g id="Much-faster" fill="#000E1A">
        <path d="M52.28 19.1L52.28 11.1L50.96 11.1L50.96 9.38L52.28 9.28L52.28 8.26Q52.28 7.5 52.46 6.85Q52.64 6.2 53.04 5.73Q53.44 5.26 54.05 5Q54.66 4.74 55.54 4.74Q56.06 4.74 56.53 4.84Q57 4.94 57.34 5.08L56.9 6.8Q56.36 6.56 55.82 6.56Q54.58 6.56 54.58 8.22L54.58 9.28L56.5 9.28L56.5 11.1L54.58 11.1L54.58 19.1L52.28 19.1ZM36.72 4.98L36.72 19.1L39.02 19.1L39.02 12.24Q39.64 11.64 40.13 11.33Q40.62 11.02 41.26 11.02Q42.08 11.02 42.44 11.52Q42.8 12.02 42.8 13.24L42.8 19.1L45.1 19.1L45.1 12.94Q45.1 11.06 44.38 10.05Q43.66 9.04 42.08 9.04Q41.06 9.04 40.31 9.49Q39.56 9.94 38.94 10.52L39.02 8.62L39.02 4.98L36.72 4.98ZM1.66 6.02L1.66 19.1L3.76 19.1L3.76 13.12Q3.76 12.66 3.73 12.12Q3.7 11.58 3.65 11.03Q3.6 10.48 3.55 9.95Q3.5 9.42 3.46 8.96L3.54 8.96L4.58 12L6.74 17.88L8.12 17.88L10.26 12L11.32 8.96L11.4 8.96Q11.36 9.42 11.3 9.95Q11.24 10.48 11.2 11.03Q11.16 11.58 11.13 12.12Q11.1 12.66 11.1 13.12L11.1 19.1L13.24 19.1L13.24 6.02L10.6 6.02L8.34 12.42Q8.12 13.04 7.93 13.69Q7.74 14.34 7.52 14.98L7.44 14.98Q7.22 14.34 7.02 13.69Q6.82 13.04 6.6 12.42L4.28 6.02L1.66 6.02ZM79.17 19.08Q79.76 19.34 80.62 19.34Q81.2 19.34 81.71 19.23Q82.22 19.12 82.62 18.98L82.22 17.28Q82 17.38 81.73 17.44Q81.46 17.5 81.2 17.5Q79.82 17.5 79.82 15.78L79.82 11.1L82.32 11.1L82.32 9.28L79.82 9.28L79.82 6.6L77.9 6.6L77.62 9.28L76.1 9.38L76.1 11.1L77.5 11.1L77.5 15.78Q77.5 16.58 77.67 17.23Q77.84 17.88 78.21 18.35Q78.58 18.82 79.17 19.08ZM31.58 19.34Q30.58 19.34 29.71 19Q28.84 18.66 28.2 18Q27.56 17.34 27.2 16.38Q26.84 15.42 26.84 14.2Q26.84 12.98 27.24 12.02Q27.64 11.06 28.32 10.4Q29 9.74 29.89 9.39Q30.78 9.04 31.76 9.04Q32.72 9.04 33.41 9.36Q34.1 9.68 34.64 10.14L33.52 11.64Q33.12 11.3 32.73 11.11Q32.34 10.92 31.88 10.92Q30.68 10.92 29.94 11.81Q29.2 12.7 29.2 14.2Q29.2 15.68 29.93 16.57Q30.66 17.46 31.82 17.46Q32.4 17.46 32.91 17.21Q33.42 16.96 33.84 16.62L34.78 18.14Q34.08 18.74 33.25 19.04Q32.42 19.34 31.58 19.34ZM58.5 18.55Q59.3 19.34 60.6 19.34Q61.48 19.34 62.23 18.96Q62.98 18.58 63.64 18.02L63.72 18.02L63.88 19.1L65.78 19.1L65.78 13.28Q65.78 11.22 64.87 10.13Q63.96 9.04 62.12 9.04Q60.94 9.04 59.92 9.42Q58.9 9.8 58.08 10.32L58.92 11.86Q59.58 11.46 60.27 11.18Q60.96 10.9 61.68 10.9Q62.18 10.9 62.52 11.05Q62.86 11.2 63.07 11.47Q63.28 11.74 63.37 12.09Q63.46 12.44 63.48 12.82Q61.96 12.98 60.87 13.28Q59.78 13.58 59.07 14.02Q58.36 14.46 58.03 15.07Q57.7 15.68 57.7 16.46Q57.7 17.76 58.5 18.55ZM71.28 19.34Q70.26 19.34 69.27 18.95Q68.28 18.56 67.56 17.98L68.64 16.5Q69.3 17.02 69.95 17.31Q70.6 17.6 71.36 17.6Q72.16 17.6 72.54 17.27Q72.92 16.94 72.92 16.42Q72.92 16.12 72.74 15.89Q72.56 15.66 72.26 15.48Q71.96 15.3 71.58 15.15Q71.2 15 70.82 14.84Q70.34 14.66 69.84 14.42Q69.34 14.18 68.95 13.84Q68.56 13.5 68.31 13.05Q68.06 12.6 68.06 11.98Q68.06 10.68 69.02 9.86Q69.98 9.04 71.64 9.04Q72.66 9.04 73.48 9.4Q74.3 9.76 74.9 10.22L73.84 11.62Q73.32 11.24 72.79 11.01Q72.26 10.78 71.68 10.78Q70.94 10.78 70.59 11.09Q70.24 11.4 70.24 11.86Q70.24 12.16 70.41 12.37Q70.58 12.58 70.86 12.74Q71.14 12.9 71.51 13.04Q71.88 13.18 72.28 13.32Q72.78 13.5 73.28 13.73Q73.78 13.96 74.19 14.3Q74.6 14.64 74.85 15.13Q75.1 15.62 75.1 16.3Q75.1 16.94 74.85 17.49Q74.6 18.04 74.12 18.45Q73.64 18.86 72.92 19.1Q72.2 19.34 71.28 19.34ZM88.58 19.34Q87.56 19.34 86.68 18.99Q85.8 18.64 85.14 17.98Q84.48 17.32 84.11 16.37Q83.74 15.42 83.74 14.2Q83.74 13 84.12 12.04Q84.5 11.08 85.13 10.42Q85.76 9.76 86.58 9.4Q87.4 9.04 88.26 9.04Q89.26 9.04 90.02 9.38Q90.78 9.72 91.29 10.34Q91.8 10.96 92.06 11.82Q92.32 12.68 92.32 13.7Q92.32 14.04 92.29 14.34Q92.26 14.64 92.22 14.82L85.98 14.82Q86.14 16.14 86.91 16.85Q87.68 17.56 88.88 17.56Q89.52 17.56 90.07 17.37Q90.62 17.18 91.16 16.84L91.94 18.28Q91.24 18.74 90.38 19.04Q89.52 19.34 88.58 19.34ZM94.52 9.28L94.52 19.1L96.82 19.1L96.82 13.1Q97.28 11.98 97.92 11.53Q98.56 11.08 99.14 11.08Q99.46 11.08 99.68 11.12Q99.9 11.16 100.16 11.24L100.56 9.24Q100.14 9.04 99.44 9.04Q98.66 9.04 97.92 9.55Q97.18 10.06 96.66 11.02L96.58 11.02L96.42 9.28L94.52 9.28ZM16.98 18.33Q17.7 19.34 19.28 19.34Q20.3 19.34 21.05 18.88Q21.8 18.42 22.44 17.66L22.5 17.66L22.68 19.1L24.56 19.1L24.56 9.28L22.26 9.28L22.26 16Q21.7 16.72 21.21 17.04Q20.72 17.36 20.08 17.36Q19.28 17.36 18.92 16.86Q18.56 16.36 18.56 15.14L18.56 9.28L16.26 9.28L16.26 15.44Q16.26 17.32 16.98 18.33ZM85.96 13.26L90.32 13.26Q90.32 12.12 89.83 11.47Q89.34 10.82 88.32 10.82Q87.44 10.82 86.78 11.44Q86.12 12.06 85.96 13.26ZM62.43 17.26Q61.94 17.54 61.34 17.54Q60.72 17.54 60.32 17.24Q59.92 16.94 59.92 16.28Q59.92 15.92 60.1 15.6Q60.28 15.28 60.7 15.03Q61.12 14.78 61.8 14.58Q62.48 14.38 63.48 14.26L63.48 16.46Q62.92 16.98 62.43 17.26Z" />
      </g>
      <g id="time" fill="#000E1A">
        <path d="M8.82 32.2Q9.22 32.56 9.84 32.56Q10.46 32.56 10.86 32.2Q11.26 31.84 11.26 31.26Q11.26 30.68 10.86 30.31Q10.46 29.94 9.84 29.94Q9.22 29.94 8.82 30.31Q8.42 30.68 8.42 31.26Q8.42 31.84 8.82 32.2ZM3.47 44.08Q4.06 44.34 4.92 44.34Q5.5 44.34 6.01 44.23Q6.52 44.12 6.92 43.98L6.52 42.28Q6.3 42.38 6.03 42.44Q5.76 42.5 5.5 42.5Q4.95956 42.5 4.63076 42.2362Q4.12 41.8264 4.12 40.78L4.12 36.1L6.62 36.1L6.62 34.28L4.12 34.28L4.12 31.6L2.2 31.6L1.92 34.28L0.4 34.38L0.4 36.1L1.8 36.1L1.8 40.78Q1.8 41.58 1.97 42.23Q2.14 42.88 2.51 43.35Q2.88 43.82 3.47 44.08ZM13.92 44.1L13.92 34.28L15.82 34.28L15.98 35.62L16.06 35.62Q16.68 34.96 17.41 34.5Q18.14 34.04 19.06 34.04Q20.14 34.04 20.79 34.5Q21.44 34.96 21.78 35.8Q22.48 35.04 23.24 34.54Q24 34.04 24.94 34.04Q26.5 34.04 27.24 35.05Q27.98 36.06 27.98 37.94L27.98 44.1L25.66 44.1L25.66 38.24Q25.66 37.02 25.29 36.52Q24.92 36.02 24.16 36.02Q23.24 36.02 22.1 37.24L22.1 44.1L19.8 44.1L19.8 38.24Q19.8 37.02 19.43 36.52Q19.06 36.02 18.28 36.02Q17.36 36.02 16.22 37.24L16.22 44.1L13.92 44.1ZM33.08 43.99Q33.96 44.34 34.98 44.34Q35.92 44.34 36.78 44.04Q37.64 43.74 38.34 43.28L37.56 41.84Q37.02 42.18 36.47 42.37Q35.92 42.56 35.28 42.56Q34.08 42.56 33.31 41.85Q32.54 41.14 32.38 39.82L38.62 39.82Q38.66 39.64 38.69 39.34Q38.72 39.04 38.72 38.7Q38.72 37.68 38.46 36.82Q38.2 35.96 37.69 35.34Q37.18 34.72 36.42 34.38Q35.66 34.04 34.66 34.04Q33.8 34.04 32.98 34.4Q32.16 34.76 31.53 35.42Q30.9 36.08 30.52 37.04Q30.14 38 30.14 39.2Q30.14 40.42 30.51 41.37Q30.88 42.32 31.54 42.98Q32.2 43.64 33.08 43.99ZM8.68 34.28L8.68 44.1L10.98 44.1L10.98 34.28L8.68 34.28ZM36.72 38.26L32.36 38.26Q32.52 37.06 33.18 36.44Q33.84 35.82 34.72 35.82Q35.74 35.82 36.23 36.47Q36.72 37.12 36.72 38.26Z" />
      </g>
      <g id="to-market" fill="#000E1A">
        <path d="M58.3 55.382L58.3 69.502L60.56 69.502L60.56 67.002L62.1 65.242L64.62 69.502L67.12 69.502L63.42 63.682L66.78 59.682L64.26 59.682L60.62 64.202L60.56 64.202L60.56 55.382L58.3 55.382ZM3.47 69.482Q4.06 69.742 4.92 69.742Q5.5 69.742 6.01 69.632Q6.52 69.5219 6.92 69.382L6.52 67.682Q6.3 67.782 6.03 67.8419Q5.76 67.902 5.5 67.902Q4.95956 67.902 4.63076 67.6382Q4.12 67.2284 4.12 66.182L4.12 61.502L6.62 61.502L6.62 59.682L4.12 59.682L4.12 57.002L2.2 57.002L1.92 59.682L0.4 59.782L0.4 61.502L1.8 61.502L1.8 66.182Q1.8 66.982 1.97 67.632Q2.14 68.282 2.51 68.752Q2.88 69.222 3.47 69.482ZM80.89 69.482Q81.48 69.742 82.34 69.742Q82.92 69.742 83.43 69.632Q83.94 69.5219 84.34 69.382L83.94 67.682Q83.72 67.782 83.45 67.8419Q83.18 67.902 82.92 67.902Q81.54 67.902 81.54 66.182L81.54 61.502L84.04 61.502L84.04 59.682L81.54 59.682L81.54 57.002L79.62 57.002L79.34 59.682L77.82 59.782L77.82 61.502L79.22 61.502L79.22 66.182Q79.22 66.982 79.39 67.632Q79.56 68.282 79.93 68.752Q80.3 69.222 80.89 69.482ZM10.94 69.402Q11.78 69.742 12.7 69.742Q13.62 69.742 14.47 69.402Q15.32 69.062 15.96 68.402Q16.6 67.742 16.99 66.782Q17.38 65.822 17.38 64.602Q17.38 63.382 16.99 62.422Q16.6 61.462 15.96 60.802Q15.32 60.142 14.47 59.792Q13.62 59.442 12.7 59.442Q11.78 59.442 10.94 59.792Q10.1 60.142 9.45 60.802Q8.8 61.462 8.42 62.422Q8.04 63.382 8.04 64.602Q8.04 65.822 8.42 66.782Q8.8 67.742 9.45 68.402Q10.1 69.062 10.94 69.402ZM23.66 69.502L23.66 59.682L25.56 59.682L25.72 61.022L25.8 61.022Q26.42 60.362 27.15 59.902Q27.88 59.442 28.8 59.442Q29.88 59.442 30.53 59.902Q31.18 60.362 31.52 61.202Q32.22 60.442 32.98 59.942Q33.74 59.442 34.68 59.442Q36.24 59.442 36.98 60.452Q37.72 61.462 37.72 63.342L37.72 69.502L35.4 69.502L35.4 63.642Q35.4 62.422 35.03 61.922Q34.66 61.422 33.9 61.422Q32.98 61.422 31.84 62.642L31.84 69.502L29.54 69.502L29.54 63.642Q29.54 62.422 29.17 61.922Q28.8 61.422 28.02 61.422Q27.1 61.422 25.96 62.642L25.96 69.502L23.66 69.502ZM40.8 68.952Q41.6 69.742 42.9 69.742Q43.78 69.742 44.53 69.362Q45.28 68.982 45.94 68.422L46.02 68.422L46.18 69.502L48.08 69.502L48.08 63.682Q48.08 61.622 47.17 60.532Q46.26 59.442 44.42 59.442Q43.24 59.442 42.22 59.822Q41.2 60.202 40.38 60.722L41.22 62.262Q41.88 61.862 42.57 61.582Q43.26 61.302 43.98 61.302Q44.48 61.302 44.82 61.452Q45.16 61.602 45.37 61.872Q45.58 62.142 45.67 62.492Q45.76 62.842 45.78 63.222Q44.26 63.382 43.17 63.682Q42.08 63.982 41.37 64.422Q40.66 64.862 40.33 65.472Q40 66.082 40 66.862Q40 68.162 40.8 68.952ZM50.84 69.502L50.84 59.682L52.74 59.682L52.9 61.422L52.98 61.422Q53.5 60.462 54.24 59.952Q54.98 59.442 55.76 59.442Q56.46 59.442 56.88 59.642L56.48 61.642Q56.22 61.562 56 61.522Q55.78 61.482 55.46 61.482Q54.88 61.482 54.24 61.932Q53.6 62.382 53.14 63.502L53.14 69.502L50.84 69.502ZM72.94 69.742Q71.92 69.742 71.04 69.392Q70.16 69.042 69.5 68.382Q68.84 67.722 68.47 66.7719Q68.1 65.822 68.1 64.602Q68.1 63.402 68.48 62.442Q68.86 61.482 69.49 60.822Q70.12 60.162 70.94 59.802Q71.76 59.442 72.62 59.442Q73.62 59.442 74.38 59.782Q75.14 60.122 75.65 60.742Q76.16 61.362 76.42 62.222Q76.68 63.082 76.68 64.102Q76.68 64.442 76.65 64.742Q76.62 65.042 76.58 65.222L70.34 65.222Q70.5 66.542 71.27 67.252Q72.04 67.962 73.24 67.962Q73.88 67.962 74.43 67.7719Q74.98 67.582 75.52 67.242L76.3 68.682Q75.6 69.142 74.74 69.442Q73.88 69.742 72.94 69.742ZM70.32 63.662L74.68 63.662Q74.68 62.522 74.19 61.872Q73.7 61.222 72.68 61.222Q71.8 61.222 71.14 61.842Q70.48 62.462 70.32 63.662ZM14.4 66.972Q13.78 67.862 12.7 67.862Q11.62 67.862 11.01 66.972Q10.4 66.082 10.4 64.602Q10.4 63.102 11.01 62.212Q11.62 61.322 12.7 61.322Q13.78 61.322 14.4 62.212Q15.02 63.102 15.02 64.602Q15.02 66.082 14.4 66.972ZM44.73 67.662Q44.24 67.942 43.64 67.942Q43.02 67.942 42.62 67.642Q42.22 67.3419 42.22 66.682Q42.22 66.322 42.4 66.002Q42.58 65.682 43 65.432Q43.42 65.182 44.1 64.9819Q44.78 64.782 45.78 64.662L45.78 66.862Q45.22 67.382 44.73 67.662Z" />
      </g>
    </g>
    <g id="path-1-path-Copy-4">
      <use xlink:href="#path_1" fill="none" stroke="url(#gradient_1)" stroke-width="2" stroke-dasharray="8 6" />
      <use stroke="none" fill="#FFFFFF" xlink:href="#path_1" />
    </g>
    <path d="M0 16.5C0 7.3873 7.3873 0 16.5 0C25.6127 0 33 7.3873 33 16.5C33 25.6127 25.6127 33 16.5 33C7.3873 33 0 25.6127 0 16.5Z" transform="translate(64 0)" id="Ellipse" fill="#FFFFFF" stroke="#FA5A28" stroke-width="1" stroke-dasharray="5 3" />
    <g id="3." transform="translate(74.99988 4)">
      <path d="M2.934 17.8738Q3.492 18.0178 4.176 18.0178Q4.914 18.0178 5.553 17.7928Q6.192 17.5678 6.669 17.1448Q7.146 16.7218 7.416 16.1188Q7.686 15.5158 7.686 14.7598Q7.686 14.1478 7.479 13.6528Q7.272 13.1578 6.912 12.7798Q6.552 12.4018 6.084 12.1408Q5.616 11.8798 5.076 11.7718L5.076 11.6998Q6.03 11.3758 6.651 10.6828Q7.272 9.98976 7.272 8.85576Q7.272 8.18976 7.029 7.67676Q6.786 7.16376 6.363 6.81276Q5.94 6.46176 5.364 6.27276Q4.788 6.08376 4.122 6.08376Q3.114 6.08376 2.358 6.49776Q1.602 6.91176 1.008 7.48776L1.476 8.02776Q1.98 7.50576 2.646 7.13676Q3.312 6.76776 4.122 6.76776Q5.184 6.76776 5.814 7.35276Q6.444 7.93776 6.444 8.90976Q6.444 9.43176 6.255 9.89076Q6.066 10.3498 5.643 10.6828Q5.22 11.0158 4.527 11.2138Q3.834 11.4118 2.844 11.4118L2.844 12.1138Q3.924 12.1138 4.689 12.3118Q5.454 12.5098 5.931 12.8608Q6.408 13.2118 6.633 13.6978Q6.858 14.1838 6.858 14.7778Q6.858 15.3538 6.66 15.8218Q6.462 16.2898 6.102 16.6228Q5.742 16.9558 5.247 17.1358Q4.752 17.3158 4.176 17.3158Q3.582 17.3158 3.105 17.1898Q2.628 17.0638 2.241 16.8568Q1.854 16.6498 1.548 16.3888Q1.242 16.1278 0.99 15.8398L0.522 16.3978Q0.792 16.6858 1.143 16.9738Q1.494 17.2618 1.935 17.4958Q2.376 17.7298 2.934 17.8738ZM10.062 17.8018Q10.296 18.0178 10.602 18.0178Q10.908 18.0178 11.133 17.8018Q11.358 17.5858 11.358 17.2078Q11.358 16.8118 11.133 16.5958Q10.908 16.3798 10.602 16.3798Q10.296 16.3798 10.062 16.5958Q9.828 16.8118 9.828 17.2078Q9.828 17.5858 10.062 17.8018Z" />
    </g>
    <g id="build-faster" transform="translate(11.72314 38.02295)">
      <g id="Group">
        <path d="M21.3877 10.6939C21.3877 16.5999 16.5999 21.3877 10.6939 21.3877C4.78781 21.3877 0 16.5999 0 10.6939C0 4.78781 4.78781 0 10.6939 0C16.5999 0 21.3877 4.78781 21.3877 10.6939L21.3877 10.6939Z" transform="translate(22.12866 59.03784)" id="Shape" fill="#F2F2F2" stroke="none" />
        <path d="M21.3877 10.6939C21.3877 16.5999 16.5999 21.3877 10.6939 21.3877C4.78781 21.3877 0 16.5999 0 10.6939C0 4.78781 4.78781 0 10.6939 0C16.5999 0 21.3877 4.78781 21.3877 10.6939L21.3877 10.6939Z" transform="translate(25.06958 0)" id="Shape" fill="#F2F2F2" stroke="none" />
        <path d="M6.8192 0L49.6921 0Q49.8595 0 50.0267 0.00821403Q50.1939 0.0164281 50.3605 0.0328363Q50.5271 0.0492446 50.6927 0.0738076Q50.8583 0.0983706 51.0225 0.131029Q51.1867 0.163688 51.3491 0.204363Q51.5114 0.245038 51.6716 0.293633Q51.8318 0.342227 51.9895 0.398623Q52.1471 0.455019 52.3017 0.519081Q52.4564 0.583143 52.6077 0.654717Q52.759 0.72629 52.9067 0.805203Q53.0543 0.884116 53.1979 0.970178Q53.3415 1.05624 53.4807 1.14924Q53.6199 1.24225 53.7543 1.34197Q53.8888 1.44169 54.0182 1.54789Q54.1476 1.65409 54.2716 1.76651Q54.3957 1.87893 54.514 1.9973Q54.6324 2.11567 54.7448 2.23971Q54.8573 2.36374 54.9635 2.49315Q55.0697 2.62255 55.1694 2.75701Q55.2691 2.89147 55.3621 3.03066Q55.4551 3.16985 55.5412 3.31343Q55.6272 3.45702 55.7061 3.60465Q55.785 3.75229 55.8566 3.90362Q55.9282 4.05495 55.9923 4.20961Q56.0563 4.36427 56.1127 4.52188Q56.1691 4.6795 56.2177 4.83969Q56.2663 4.99989 56.307 5.16227Q56.3477 5.32466 56.3803 5.48884Q56.413 5.65303 56.4375 5.81862Q56.4621 5.98421 56.4785 6.15081Q56.4949 6.3174 56.5031 6.4846Q56.5113 6.6518 56.5113 6.8192L56.5113 6.8212Q56.5113 6.98861 56.5031 7.15581Q56.4949 7.32301 56.4785 7.4896Q56.4621 7.6562 56.4375 7.82179Q56.413 7.98738 56.3803 8.15156Q56.3477 8.31575 56.307 8.47813Q56.2663 8.64052 56.2177 8.80071Q56.1691 8.96091 56.1127 9.11852Q56.0563 9.27614 55.9923 9.4308Q55.9282 9.58546 55.8566 9.73679Q55.785 9.88812 55.7061 10.0358Q55.6272 10.1834 55.5412 10.327Q55.4551 10.4706 55.3621 10.6097Q55.2691 10.7489 55.1694 10.8834Q55.0696 11.0179 54.9635 11.1473Q54.8573 11.2767 54.7448 11.4007Q54.6324 11.5247 54.514 11.6431Q54.3957 11.7615 54.2716 11.8739Q54.1476 11.9863 54.0182 12.0925Q53.8888 12.1987 53.7543 12.2984Q53.6199 12.3982 53.4807 12.4912Q53.3415 12.5842 53.1979 12.6702Q53.0543 12.7563 52.9067 12.8352Q52.759 12.9141 52.6077 12.9857Q52.4564 13.0573 52.3017 13.1213Q52.1471 13.1854 51.9895 13.2418Q51.8318 13.2982 51.6716 13.3468Q51.5114 13.3954 51.3491 13.436Q51.1867 13.4767 51.0225 13.5094Q50.8583 13.542 50.6927 13.5666Q50.5271 13.5912 50.3605 13.6076Q50.1939 13.624 50.0267 13.6322Q49.8595 13.6404 49.6921 13.6404L6.8192 13.6404Q6.6518 13.6404 6.4846 13.6322Q6.3174 13.624 6.15081 13.6076Q5.98421 13.5912 5.81862 13.5666Q5.65303 13.542 5.48884 13.5094Q5.32466 13.4767 5.16227 13.436Q4.99989 13.3954 4.83969 13.3468Q4.6795 13.2982 4.52188 13.2418Q4.36427 13.1854 4.20961 13.1213Q4.05495 13.0573 3.90362 12.9857Q3.75229 12.9141 3.60465 12.8352Q3.45702 12.7563 3.31343 12.6702Q3.16985 12.5842 3.03066 12.4912Q2.89147 12.3982 2.75701 12.2984Q2.62255 12.1987 2.49315 12.0925Q2.36374 11.9863 2.23971 11.8739Q2.11567 11.7615 1.9973 11.6431Q1.87893 11.5247 1.76651 11.4007Q1.65409 11.2767 1.54789 11.1473Q1.44169 11.0179 1.34197 10.8834Q1.24225 10.7489 1.14924 10.6097Q1.05624 10.4706 0.970178 10.327Q0.884116 10.1834 0.805203 10.0358Q0.72629 9.88812 0.654716 9.73679Q0.583143 9.58546 0.519081 9.4308Q0.455019 9.27614 0.398623 9.11852Q0.342227 8.96091 0.293633 8.80071Q0.245038 8.64052 0.204363 8.47813Q0.163688 8.31575 0.131029 8.15156Q0.0983706 7.98738 0.0738076 7.82179Q0.0492446 7.6562 0.0328363 7.4896Q0.0164281 7.32301 0.00821403 7.15581Q0 6.98861 0 6.8212L0 6.8192Q0 6.6518 0.00821403 6.4846Q0.0164281 6.3174 0.0328363 6.15081Q0.0492446 5.98421 0.0738076 5.81862Q0.0983706 5.65303 0.131029 5.48884Q0.163688 5.32466 0.204363 5.16227Q0.245038 4.99989 0.293633 4.83969Q0.342227 4.6795 0.398623 4.52188Q0.455019 4.36427 0.519081 4.20961Q0.583143 4.05495 0.654717 3.90362Q0.72629 3.75229 0.805203 3.60465Q0.884116 3.45702 0.970178 3.31343Q1.05624 3.16985 1.14924 3.03066Q1.24225 2.89147 1.34197 2.75701Q1.44169 2.62255 1.54789 2.49315Q1.65409 2.36374 1.76651 2.23971Q1.87893 2.11567 1.9973 1.9973Q2.11567 1.87893 2.23971 1.76651Q2.36374 1.65409 2.49315 1.54789Q2.62255 1.44169 2.75701 1.34197Q2.89147 1.24225 3.03066 1.14924Q3.16985 1.05624 3.31343 0.970178Q3.45702 0.884116 3.60465 0.805203Q3.75229 0.72629 3.90362 0.654716Q4.05495 0.583143 4.20961 0.519081Q4.36427 0.455019 4.52188 0.398623Q4.6795 0.342227 4.83969 0.293633Q4.99989 0.245038 5.16227 0.204363Q5.32466 0.163688 5.48884 0.131029Q5.65303 0.0983706 5.81862 0.0738076Q5.98421 0.0492446 6.15081 0.0328363Q6.3174 0.0164281 6.4846 0.00821403Q6.6518 0 6.8192 0L6.8192 0Z" transform="translate(0 40.25098)" id="Rectangle" fill="#F2F2F2" stroke="none" />
        <path d="M6.8192 0L49.6921 0Q49.8596 0 50.0268 0.00821403Q50.194 0.0164281 50.3605 0.0328363Q50.5271 0.0492446 50.6927 0.0738076Q50.8583 0.0983705 51.0225 0.131029Q51.1867 0.163688 51.3491 0.204363Q51.5115 0.245038 51.6717 0.293633Q51.8319 0.342227 51.9895 0.398623Q52.1471 0.455019 52.3017 0.519081Q52.4564 0.583143 52.6077 0.654716Q52.7591 0.72629 52.9067 0.805203Q53.0543 0.884115 53.1979 0.970177Q53.3415 1.05624 53.4807 1.14924Q53.6199 1.24225 53.7543 1.34197Q53.8888 1.44169 54.0182 1.54789Q54.1476 1.65409 54.2716 1.76651Q54.3957 1.87893 54.514 1.9973Q54.6324 2.11567 54.7448 2.23971Q54.8573 2.36374 54.9635 2.49315Q55.0697 2.62255 55.1694 2.75701Q55.2691 2.89147 55.3621 3.03066Q55.4551 3.16985 55.5412 3.31343Q55.6272 3.45702 55.7061 3.60465Q55.7851 3.75229 55.8566 3.90362Q55.9282 4.05495 55.9923 4.20961Q56.0563 4.36426 56.1127 4.52188Q56.1691 4.6795 56.2177 4.83969Q56.2663 4.99989 56.307 5.16227Q56.3477 5.32466 56.3803 5.48884Q56.413 5.65303 56.4375 5.81862Q56.4621 5.98421 56.4785 6.1508Q56.4949 6.3174 56.5031 6.4846Q56.5114 6.6518 56.5113 6.8192L56.5113 6.8212Q56.5114 6.9886 56.5031 7.1558Q56.4949 7.323 56.4785 7.4896Q56.4621 7.6562 56.4375 7.82179Q56.413 7.98738 56.3803 8.15156Q56.3477 8.31575 56.307 8.47813Q56.2663 8.64052 56.2177 8.80071Q56.1691 8.9609 56.1127 9.11852Q56.0563 9.27614 55.9923 9.43079Q55.9282 9.58545 55.8566 9.73678Q55.7851 9.88811 55.7061 10.0357Q55.6272 10.1834 55.5412 10.327Q55.4551 10.4706 55.3621 10.6097Q55.2691 10.7489 55.1694 10.8834Q55.0697 11.0179 54.9635 11.1473Q54.8573 11.2767 54.7448 11.4007Q54.6324 11.5247 54.514 11.6431Q54.3957 11.7615 54.2716 11.8739Q54.1476 11.9863 54.0182 12.0925Q53.8888 12.1987 53.7543 12.2984Q53.6199 12.3982 53.4807 12.4912Q53.3415 12.5842 53.1979 12.6702Q53.0543 12.7563 52.9067 12.8352Q52.7591 12.9141 52.6077 12.9857Q52.4564 13.0573 52.3017 13.1213Q52.1471 13.1854 51.9895 13.2418Q51.8319 13.2982 51.6717 13.3468Q51.5115 13.3954 51.3491 13.436Q51.1867 13.4767 51.0225 13.5094Q50.8583 13.542 50.6927 13.5666Q50.5271 13.5912 50.3605 13.6076Q50.194 13.624 50.0267 13.6322Q49.8596 13.6404 49.6921 13.6404L6.8192 13.6404Q6.6518 13.6404 6.4846 13.6322Q6.3174 13.624 6.1508 13.6076Q5.98421 13.5912 5.81862 13.5666Q5.65303 13.542 5.48884 13.5094Q5.32466 13.4767 5.16227 13.436Q4.99989 13.3954 4.83969 13.3468Q4.6795 13.2982 4.52188 13.2418Q4.36426 13.1854 4.20961 13.1213Q4.05495 13.0573 3.90362 12.9857Q3.75229 12.9141 3.60465 12.8352Q3.45702 12.7563 3.31343 12.6702Q3.16985 12.5842 3.03066 12.4912Q2.89147 12.3982 2.75701 12.2984Q2.62255 12.1987 2.49315 12.0925Q2.36374 11.9863 2.23971 11.8739Q2.11567 11.7615 1.9973 11.6431Q1.87893 11.5247 1.76651 11.4007Q1.65409 11.2767 1.54789 11.1473Q1.44169 11.0179 1.34197 10.8834Q1.24225 10.7489 1.14924 10.6097Q1.05624 10.4706 0.970177 10.327Q0.884115 10.1834 0.805203 10.0358Q0.72629 9.88811 0.654716 9.73678Q0.583143 9.58545 0.519081 9.4308Q0.455019 9.27614 0.398623 9.11852Q0.342227 8.9609 0.293632 8.80071Q0.245038 8.64052 0.204363 8.47813Q0.163688 8.31575 0.131029 8.15156Q0.0983705 7.98738 0.0738076 7.82179Q0.0492446 7.6562 0.0328363 7.4896Q0.0164281 7.323 0.00821403 7.1558Q0 6.9886 0 6.8212L0 6.8192Q0 6.6518 0.00821403 6.4846Q0.0164281 6.3174 0.0328363 6.1508Q0.0492446 5.98421 0.0738076 5.81862Q0.0983705 5.65303 0.131029 5.48884Q0.163688 5.32466 0.204363 5.16227Q0.245038 4.99989 0.293633 4.83969Q0.342227 4.6795 0.398623 4.52188Q0.455019 4.36426 0.519081 4.20961Q0.583143 4.05495 0.654716 3.90362Q0.72629 3.75229 0.805203 3.60465Q0.884115 3.45702 0.970177 3.31343Q1.05624 3.16985 1.14924 3.03066Q1.24225 2.89147 1.34197 2.75701Q1.44169 2.62255 1.54789 2.49315Q1.65409 2.36374 1.76651 2.23971Q1.87893 2.11567 1.9973 1.9973Q2.11567 1.87893 2.23971 1.76651Q2.36374 1.65409 2.49315 1.54789Q2.62255 1.44169 2.75701 1.34197Q2.89147 1.24225 3.03066 1.14924Q3.16985 1.05624 3.31343 0.970177Q3.45702 0.884115 3.60465 0.805203Q3.75229 0.72629 3.90362 0.654716Q4.05495 0.583143 4.20961 0.519081Q4.36426 0.455019 4.52188 0.398623Q4.6795 0.342227 4.83969 0.293632Q4.99989 0.245038 5.16227 0.204363Q5.32466 0.163688 5.48884 0.131029Q5.65303 0.0983705 5.81862 0.0738076Q5.98421 0.0492446 6.1508 0.0328363Q6.3174 0.0164281 6.4846 0.00821403Q6.6518 0 6.8192 0Z" transform="translate(52.1936 53.89136)" id="Rectangle" fill="#F2F2F2" stroke="none" />
        <path d="M8.84549 4.42077C8.8461 6.21013 7.7689 7.82329 6.11626 8.5083C4.46362 9.1933 2.56106 8.81522 1.29589 7.55038C0.0307353 6.28555 -0.347832 4.38309 0.336748 2.73027C1.02133 1.07746 2.63421 -0.000157348 4.42319 0C6.86487 0.000209797 8.84443 1.97908 8.84548 4.42077L8.84549 4.42077Z" transform="translate(88.20129 29.2821)" id="Shape" fill="#F2F2F2" stroke="none" />
        <path d="M6.99323e-05 25.5889L25.589 25.5889C25.4088 11.5317 14.0571 0.180038 0 0L6.99323e-05 25.5889Z" transform="translate(51.33435 16.04846)" id="Shape" fill="#F94F24" stroke="none" />
        <path d="M0 26.2954L26.2955 26.2954L26.2844 25.492C26.1076 11.4929 14.8026 0.187011 0.803418 0.00921411L0 0L0 26.2954ZM24.6738 24.707L1.58655 24.707L1.58655 1.62158C14.091 2.19587 24.0986 12.2026 24.6738 24.707Z" transform="translate(50.5133 15.59204)" id="Shape" fill="#F94F24" fill-rule="evenodd" stroke="none" />
        <path d="M25.6002 26.2534L25.6002 0C11.3675 0.17936 -0.0592094 11.7994 0.000230194 26.0331C0.0596698 40.2668 11.5831 51.791 25.8167 51.8515C40.0504 51.912 51.6713 40.4861 51.8517 26.2535L25.6002 26.2534Z" transform="translate(25.07739 15.66064)" id="Shape" fill="url(#gradient_2)" stroke="none" />
        <path d="M6.35918e+37 0C0 0 0 0 0 0C0 0 0 0 0 0C0 0 1.82777e+38 0 7.83331e+37 0C-2.61114e+37 0 -2.6111e+37 0 1.52506e+38 7.8334e+37C1.19548e+35 0 -8.25502e+35 0 1.19548e+35 0C1.19548e+35 0 2.47395e+35 0 5.03055e+35 0C8.76947e+36 0 1.27184e+38 0 6.35918e+37 0C1.06718e+08 -4.87942e+06 6.35918e+37 0 6.35918e+37 0Z" transform="translate(25.08533 15.29016)" id="Shape" fill="#BBBBBB" style="mix-blend-mode: multiply;" stroke="none" />
        <path d="M25.9279 24.6131C12.1191 24.6135 0.733162 13.791 0.0334218 1.16554e-05C0.0124159 0.433496 0.000958655 0.872709 0.000958655 1.31192C-0.0790119 10.6282 4.84526 19.2711 12.9002 23.9524C20.9552 28.6337 30.9025 28.6337 38.9574 23.9523C47.0124 19.271 51.9366 10.6281 51.8566 1.31191C51.8566 0.872694 51.8452 0.433481 51.8223 0C51.1225 13.791 39.7366 24.6135 25.9279 24.6131L25.9279 24.6131Z" transform="translate(25.078 40.27197)" id="Shape" fill="#F2F2F2" fill-opacity="0.3" stroke="none" />
        <path d="M14.4444 23.168L0.987276 23.168C0.442456 23.1669 0.00104899 22.7255 0 22.1807L0 0.945744C0.0232467 0.416837 0.458809 -2.91385e-06 0.988226 0C1.51764 0 1.9532 0.416837 1.97646 0.945744L1.97646 21.1877L14.4444 21.1877C14.9733 21.2109 15.3901 21.6465 15.3901 22.1759C15.3901 22.7053 14.9733 23.1409 14.4444 23.1642L14.4444 23.168Z" transform="translate(50.18274 20.22815)" id="Shape" fill="#BBBBBB" style="mix-blend-mode: multiply;" stroke="none" />
        <path d="M14.4425 23.2087L0.987281 23.2087C0.442019 23.2087 0 22.7667 0 22.2214L0 0.986457C0.000460388 0.4415 0.442351 -8.74154e-06 0.987287 0C1.53222 8.74154e-06 1.9741 0.441535 1.97454 0.986474L1.97454 21.2284L14.4424 21.2284C14.9877 21.2284 15.4297 21.6705 15.4297 22.2157C15.4297 22.761 14.9877 23.203 14.4424 23.203L14.4425 23.2087Z" transform="translate(49.69006 19.69275)" id="Shape" fill="#EEEEEE" stroke="none" />
        <path d="M1.62266 0C1.62266 0 2.35786 14.4195 17.2567 24.0898C29.7647 32.2038 46.111 25.3979 46.111 25.3979C46.111 25.3979 30.9086 42.9664 11.2758 30.6417C-5.84968 19.8963 1.62266 0 1.62266 0L1.62266 0Z" transform="translate(25.14258 32.3833)" id="Shape" fill="url(#gradient_3)" style="mix-blend-mode: multiply;" stroke="none" />
        <path d="M34.946 69.8921C15.6761 69.8921 0 54.2141 0 34.946C0 15.678 15.6761 0 34.946 0C35.157 0 35.3279 0.170993 35.3279 0.381924C35.3279 0.592854 35.157 0.763848 34.946 0.763848C16.0981 0.763848 0.763847 16.0981 0.763847 34.946C0.763847 53.794 16.0981 69.1282 34.946 69.1282C53.7939 69.1282 69.1282 53.794 69.1282 34.946C69.1282 34.7351 69.2992 34.5641 69.5101 34.5641C69.721 34.5641 69.892 34.7351 69.892 34.946C69.892 54.2141 54.216 69.8921 34.946 69.8921L34.946 69.8921Z" transform="translate(15.67786 6.7771)" id="Shape" fill="#F94F24" stroke="none" />
        <path d="M1.56398 0.782943L1.57735 0.782943L1.57742 0.782945C1.7883 0.786532 1.96218 0.618535 1.96584 0.407663C1.96952 0.19679 1.80158 0.022846 1.59071 0.0190959C1.1916 0 0.78485 0 0.381924 0C0.17099 0 0 0.170993 0 0.381924C0 0.592854 0.17099 0.763848 0.381924 0.763848C0.775305 0.763848 1.18205 0.769576 1.56398 0.782943ZM4.77215 1.03883L4.72441 1.03883C4.34248 0.989182 3.94146 0.945261 3.54808 0.910888C3.33715 0.891377 3.18197 0.704568 3.20148 0.493637C3.22099 0.282707 3.4078 0.12753 3.61874 0.147041C4.01784 0.183324 4.42268 0.227244 4.81989 0.278805C5.03082 0.291989 5.19112 0.473668 5.17794 0.684599C5.16476 0.895529 4.98308 1.05584 4.77215 1.04265L4.77215 1.03883ZM7.82945 1.58313C7.85739 1.58596 7.88554 1.58596 7.91347 1.58313L7.88871 1.5965C8.09961 1.6191 8.28892 1.46649 8.31158 1.25559C8.33423 1.04469 8.18166 0.855353 7.97077 0.832646C7.5793 0.746713 7.18209 0.666509 6.78489 0.592034C6.64681 0.564162 6.50461 0.614555 6.41488 0.723153C6.32517 0.831749 6.30251 0.980915 6.35593 1.11126C6.40936 1.2416 6.53019 1.33195 6.67031 1.34633C7.0656 1.4189 7.44753 1.4991 7.82945 1.58313ZM10.988 2.41754C10.9484 2.41757 10.909 2.41112 10.8715 2.39844C10.4896 2.27813 10.1077 2.16356 9.74102 2.05662C9.53803 1.99911 9.42008 1.78796 9.47756 1.58496C9.53502 1.38196 9.74616 1.26398 9.94917 1.32141C10.3311 1.43026 10.713 1.54866 11.1064 1.67087C11.2877 1.72712 11.4002 1.90798 11.3704 2.09546C11.3407 2.28294 11.1778 2.42014 10.988 2.41754ZM13.8312 3.50426C13.8788 3.52524 13.9301 3.53628 13.9821 3.53673C14.1635 3.53638 14.3196 3.40855 14.3557 3.23083C14.3918 3.05311 14.2979 2.87451 14.1311 2.80343C13.7625 2.64493 13.3901 2.49216 13.0082 2.34512C12.8134 2.27634 12.5992 2.37496 12.5247 2.56771C12.4503 2.76046 12.5427 2.97744 12.7332 3.05741C13.1018 3.20063 13.4703 3.35149 13.8312 3.50426ZM16.8467 4.92689C16.7834 4.92689 16.721 4.91114 16.6653 4.88106C16.3216 4.6901 15.9683 4.51059 15.615 4.333C15.4883 4.2755 15.4028 4.15361 15.392 4.01486C15.3812 3.87611 15.4467 3.74246 15.563 3.66603C15.6793 3.58959 15.828 3.58247 15.9511 3.64744C16.3139 3.82886 16.6748 4.016 17.0262 4.20696C17.1818 4.29082 17.2596 4.47051 17.2141 4.64134C17.1687 4.81218 17.012 4.92951 16.8352 4.92498L16.8467 4.92689ZM19.3674 6.51178C19.4301 6.55391 19.5038 6.5765 19.5793 6.57671C19.7484 6.57752 19.8978 6.46714 19.9467 6.30536C19.9957 6.14358 19.9324 5.96888 19.7913 5.87588C19.4552 5.65246 19.1134 5.43094 18.7735 5.22088C18.6574 5.14201 18.5073 5.13321 18.3827 5.19798C18.2582 5.26274 18.1792 5.39062 18.177 5.531C18.1749 5.67138 18.2499 5.80162 18.3725 5.87015C18.7028 6.07639 19.0389 6.29218 19.3674 6.51178ZM22.1305 8.46912C22.0433 8.46979 21.9586 8.43933 21.8918 8.38319C21.5844 8.13494 21.2693 7.89051 20.958 7.65371C20.7898 7.5261 20.7569 7.28628 20.8845 7.11806C21.0121 6.94985 21.2519 6.91693 21.4202 7.04455C21.7372 7.28516 22.058 7.53723 22.375 7.79121C22.5001 7.89321 22.5475 8.06284 22.4935 8.21495C22.4395 8.36706 22.2958 8.46881 22.1344 8.46912L22.1305 8.46912ZM24.2464 10.48C24.3178 10.5498 24.4138 10.5889 24.5137 10.5888L24.5137 10.5793C24.6687 10.5786 24.8079 10.4844 24.8661 10.3408C24.9243 10.1972 24.89 10.0326 24.7792 9.92429C24.4927 9.64357 24.1967 9.36477 23.9007 9.09551C23.7425 8.95313 23.4989 8.96596 23.3565 9.12416C23.2141 9.28235 23.2269 9.52602 23.3851 9.6684C23.6735 9.93384 23.9657 10.2069 24.2464 10.48ZM26.6908 12.9167C26.5785 12.9173 26.4716 12.8684 26.3986 12.783C26.1447 12.4851 25.8811 12.1872 25.6176 11.897C25.4752 11.7388 25.4881 11.4951 25.6463 11.3527C25.8045 11.2103 26.0481 11.2232 26.1905 11.3814C26.4617 11.6774 26.7309 11.9829 26.9906 12.2865C27.0562 12.3637 27.0885 12.4639 27.0802 12.5649C27.072 12.6659 27.024 12.7595 26.9467 12.825C26.877 12.8846 26.7882 12.9172 26.6966 12.9167L26.6908 12.9167ZM28.331 15.2713C28.4027 15.3733 28.5196 15.4339 28.6442 15.4336L28.65 15.4336C28.7267 15.4321 28.8013 15.4075 28.8638 15.363C28.9467 15.3046 29.0029 15.2156 29.0201 15.1156C29.0373 15.0157 29.0141 14.913 28.9555 14.8302C28.7263 14.5037 28.4857 14.1752 28.2432 13.8544C28.1156 13.6862 27.8758 13.6533 27.7075 13.7809C27.5393 13.9085 27.5064 14.1483 27.634 14.3165C27.8727 14.6316 28.1057 14.9524 28.331 15.2713ZM30.3629 18.1185C30.2259 18.119 30.0991 18.0461 30.0306 17.9275C29.8397 17.5895 29.6334 17.2477 29.4253 16.9154C29.3533 16.7994 29.3486 16.6538 29.4131 16.5335C29.4775 16.4131 29.6013 16.3363 29.7377 16.332C29.8742 16.3276 30.0026 16.3965 30.0746 16.5125C30.2865 16.8524 30.4947 17.2018 30.6933 17.5475C30.7437 17.6354 30.7571 17.7396 30.7306 17.8374C30.7041 17.9352 30.6398 18.0184 30.552 18.0688C30.4943 18.1015 30.4292 18.1186 30.3629 18.1185ZM31.4743 20.7233C31.5364 20.8594 31.6722 20.9467 31.8218 20.9467C31.8752 20.9458 31.9278 20.9341 31.9765 20.9123C32.069 20.8707 32.1412 20.7939 32.177 20.6989C32.2128 20.604 32.2094 20.4987 32.1675 20.4063C32.0013 20.0416 31.8256 19.6749 31.6461 19.3178C31.5899 19.1879 31.4664 19.0997 31.3252 19.0887C31.1841 19.0777 31.0484 19.1457 30.9728 19.2654C30.8971 19.3851 30.8939 19.5368 30.9644 19.6596C31.1382 20.0091 31.31 20.3681 31.4743 20.7233ZM33.0115 23.899C32.849 23.8991 32.7042 23.7965 32.6506 23.6431C32.5208 23.2745 32.3833 22.9002 32.24 22.5355C32.163 22.3388 32.2601 22.117 32.4568 22.04C32.6535 21.963 32.8753 22.06 32.9523 22.2567C33.0974 22.6386 33.2388 23.0206 33.3724 23.391C33.406 23.4867 33.4 23.5919 33.356 23.6832C33.3119 23.7746 33.2333 23.8446 33.1376 23.878C33.0971 23.8923 33.0545 23.8994 33.0115 23.899ZM33.5539 26.6641C33.596 26.8344 33.7488 26.9542 33.9243 26.9543C33.9552 26.9548 33.986 26.9516 34.016 26.9448C34.1159 26.9205 34.2018 26.857 34.2543 26.7686C34.3068 26.6802 34.3214 26.5743 34.2948 26.475C34.1974 26.0835 34.0924 25.6901 33.9816 25.3082C33.9155 25.1162 33.7106 25.0094 33.5153 25.0654C33.3201 25.1213 33.2027 25.3203 33.2483 25.5183C33.3629 25.9002 33.4584 26.2821 33.5539 26.6641ZM34.5487 30.0785C34.3582 30.0807 34.1953 29.9422 34.1667 29.7539C34.1075 29.372 34.0407 28.9767 33.9758 28.589C33.9418 28.3841 34.0778 28.1896 34.2819 28.1512C34.486 28.1128 34.6834 28.2445 34.7263 28.4477C34.8007 28.8449 34.8695 29.2459 34.9287 29.6393C34.9607 29.8476 34.818 30.0424 34.6098 30.0747C34.5896 30.0779 34.5691 30.0792 34.5487 30.0785ZM34.503 32.8894C34.5151 33.0914 34.6826 33.2488 34.8849 33.2484L34.9116 33.2484C35.122 33.2351 35.2818 33.0539 35.2687 32.8436C35.2458 32.4406 35.2134 32.0358 35.1771 31.6386C35.1641 31.5021 35.0794 31.3829 34.9547 31.3259C34.83 31.2689 34.6844 31.2827 34.5727 31.3622C34.461 31.4417 34.4002 31.5747 34.4132 31.7112C34.4495 32.0989 34.4801 32.4941 34.503 32.8894ZM34.946 35.3299C34.7351 35.3299 34.5641 35.1589 34.5641 34.948L34.5641 34.8563C34.5641 34.6454 34.7351 34.4744 34.946 34.4744C35.1569 34.4744 35.3279 34.6454 35.3279 34.8563L35.3279 34.9422C35.3279 35.1532 35.1569 35.3242 34.946 35.3242L34.946 35.3299Z" transform="translate(50.24206 6.775391)" id="Shape" fill="#F94F24" fill-rule="evenodd" stroke="none" />
        <path d="M0.490202 8.02517C0.278243 8.02491 0.0903992 7.8886 0.024418 7.68718C-0.041569 7.48575 0.0292201 7.26472 0.199937 7.13911L4.46603 4.00351L0.186568 0.85646C-0.000798394 0.688715 -0.0310441 0.406482 0.116519 0.202842C0.264082 -0.000797666 0.541702 -0.0599386 0.759454 0.0658777L5.57743 3.60631C5.70312 3.6988 5.77733 3.84555 5.77733 4.0016C5.77733 4.15765 5.70312 4.30441 5.57743 4.39689L0.780462 7.92778C0.696759 7.99073 0.594932 8.02489 0.490202 8.02517L0.490202 8.02517Z" transform="translate(46.87219 3.161377)" id="Shape" fill="#F94F24" stroke="none" />
        <path d="M26.0663 13.0331C26.0663 20.2312 20.2311 26.0663 13.0331 26.0663C5.83513 26.0663 0 20.2312 0 13.0331C0 5.83514 5.83514 0 13.0331 0C20.2311 0 26.0663 5.83514 26.0663 13.0331L26.0663 13.0331Z" transform="translate(63.89575 7.15918)" id="Shape" fill="#E5E5E5" style="mix-blend-mode: multiply;" stroke="none" />
        <path d="M20.2725 10.1382C20.2725 15.7341 15.7347 20.2722 10.1369 20.2725C4.53904 20.2729 0.000705151 15.7354 0 10.1375C-0.000699323 4.53968 4.5365 0.00105481 10.1343 0C12.8233 -0.000504096 15.4023 1.06746 17.3037 2.96884C19.205 4.87023 20.273 7.4492 20.2725 10.1382L20.2725 10.1382Z" transform="translate(66.79259 10.0542)" id="Shape" fill="url(#gradient_4)" stroke="none" />
        <path d="M3.10122 6.45393C2.82909 6.45442 2.56798 6.34654 2.37556 6.15411L0.320809 4.10127C0.0494013 3.84372 -0.0608702 3.45918 0.0328099 3.09694C0.12649 2.7347 0.409366 2.45182 0.771604 2.35814C1.13385 2.26446 1.51839 2.37473 1.77594 2.64614L3.10121 3.97333L6.7734 0.301132C7.03298 0.0414611 7.41137 -0.0599845 7.76603 0.0350157C8.1207 0.130019 8.39771 0.407032 8.49272 0.761686C8.58774 1.11634 8.48631 1.49474 8.22664 1.75433L3.83452 6.14645C3.6414 6.34339 3.37707 6.45423 3.10124 6.45393L3.10122 6.45393Z" transform="translate(74.54955 17.23303)" id="Shape" fill="#BBBBBB" style="mix-blend-mode: multiply;" stroke="none" />
        <path d="M3.08108 6.45553C2.80878 6.4551 2.54778 6.34657 2.35544 6.15381L0.300691 4.10097C-0.100603 3.69914 -0.100178 3.04809 0.301647 2.64679C0.703466 2.2455 1.35452 2.24592 1.75582 2.64775L3.08109 3.97303L6.75328 0.30083C7.1546 -0.100337 7.80513 -0.100268 8.20637 0.300984C8.60761 0.702239 8.60765 1.35277 8.20648 1.75408L3.81436 6.1462C3.6213 6.34345 3.3571 6.4549 3.08108 6.45552L3.08108 6.45553Z" transform="translate(73.98351 16.64514)" id="Shape" fill="#F2F2F2" stroke="none" />
        <path d="M22.9099 38.8998L22.8565 38.7088C26.8992 37.5265 30.459 35.0846 33.0176 31.7387C35.634 28.3217 37.0443 24.134 37.0278 19.8303C37.0139 10.8692 30.941 3.05242 22.2619 0.823889C13.5829 -1.40464 4.49527 2.51936 0.166136 10.3648L0 10.2731C4.33141 2.40728 13.4054 -1.56941 22.1247 0.576914C30.844 2.72324 37.0351 10.4576 37.2204 19.4352C37.4056 28.4129 31.5388 36.3961 22.9154 38.9002L22.9099 38.8998Z" transform="translate(59.73828 0.8546143)" id="Shape" fill="#F94F24" stroke="none" />
        <path d="M0 5.15597C0 8.00353 2.3084 10.3119 5.15597 10.3119C8.00353 10.3119 10.3119 8.00353 10.3119 5.15597C10.3119 2.30841 8.00353 0 5.15597 0C2.30841 0 0 2.30841 0 5.15597ZM0.19104 5.15601C0.19104 2.41391 2.41395 0.190998 5.15605 0.190998L5.15656 0.189087C6.47369 0.189221 7.7368 0.712711 8.66788 1.64434C9.59896 2.57597 10.1217 3.83939 10.1211 5.15601C10.1211 7.89811 7.89815 10.121 5.15605 10.121C2.41395 10.121 0.19104 7.89811 0.19104 5.15601Z" transform="translate(10.90381 41.91614)" id="Shape" fill="#F94F24" fill-rule="evenodd" stroke="none" />
      </g>
    </g>
  </g>
</svg>