<svg width="188" height="201" viewBox="0 0 188 201" fill="none" xmlns="http://www.w3.org/2000/svg">
<path d="M14.6601 171V157.92H17.0401L21.1201 165.28L22.4601 168.06H22.5401C22.4868 167.38 22.4201 166.653 22.3401 165.88C22.2735 165.093 22.2401 164.333 22.2401 163.6V157.92H24.4601V171H22.0801L18.0001 163.64L16.6601 160.86H16.5801C16.6335 161.553 16.6935 162.28 16.7601 163.04C16.8401 163.8 16.8801 164.547 16.8801 165.28V171H14.6601ZM31.6051 171.24C30.9918 171.24 30.4051 171.127 29.8451 170.9C29.2851 170.673 28.7851 170.34 28.3451 169.9C27.9185 169.46 27.5785 168.92 27.3251 168.28C27.0718 167.64 26.9451 166.913 26.9451 166.1C26.9451 165.287 27.0718 164.56 27.3251 163.92C27.5785 163.28 27.9185 162.74 28.3451 162.3C28.7851 161.86 29.2851 161.527 29.8451 161.3C30.4051 161.06 30.9918 160.94 31.6051 160.94C32.2185 160.94 32.8051 161.06 33.3651 161.3C33.9385 161.527 34.4385 161.86 34.8651 162.3C35.2918 162.74 35.6318 163.28 35.8851 163.92C36.1518 164.56 36.2851 165.287 36.2851 166.1C36.2851 166.913 36.1518 167.64 35.8851 168.28C35.6318 168.92 35.2918 169.46 34.8651 169.9C34.4385 170.34 33.9385 170.673 33.3651 170.9C32.8051 171.127 32.2185 171.24 31.6051 171.24ZM31.6051 169.36C32.3251 169.36 32.8918 169.067 33.3051 168.48C33.7185 167.88 33.9251 167.087 33.9251 166.1C33.9251 165.1 33.7185 164.307 33.3051 163.72C32.8918 163.12 32.3251 162.82 31.6051 162.82C30.8851 162.82 30.3185 163.12 29.9051 163.72C29.5051 164.307 29.3051 165.1 29.3051 166.1C29.3051 167.087 29.5051 167.88 29.9051 168.48C30.3185 169.067 30.8851 169.36 31.6051 169.36ZM42.5656 171V161.18H44.8656V171H42.5656ZM43.7256 159.46C43.3123 159.46 42.9723 159.34 42.7056 159.1C42.4389 158.86 42.3056 158.547 42.3056 158.16C42.3056 157.773 42.4389 157.46 42.7056 157.22C42.9723 156.967 43.3123 156.84 43.7256 156.84C44.1389 156.84 44.4789 156.967 44.7456 157.22C45.0123 157.46 45.1456 157.773 45.1456 158.16C45.1456 158.547 45.0123 158.86 44.7456 159.1C44.4789 159.34 44.1389 159.46 43.7256 159.46ZM47.8 171V161.18H49.7L49.86 162.5H49.94C50.38 162.073 50.8533 161.707 51.36 161.4C51.88 161.093 52.48 160.94 53.16 160.94C54.2133 160.94 54.98 161.28 55.46 161.96C55.94 162.627 56.18 163.587 56.18 164.84V171H53.88V165.14C53.88 164.327 53.76 163.753 53.52 163.42C53.28 163.087 52.8866 162.92 52.34 162.92C51.9133 162.92 51.5333 163.027 51.2 163.24C50.88 163.44 50.5133 163.74 50.1 164.14V171H47.8ZM59.3914 171V163H58.0714V161.28L59.3914 161.18V160.16C59.3914 159.653 59.4514 159.187 59.5714 158.76C59.6914 158.32 59.8847 157.947 60.1514 157.64C60.418 157.32 60.7514 157.073 61.1514 156.9C61.5647 156.727 62.0647 156.64 62.6514 156.64C62.998 156.64 63.3247 156.673 63.6314 156.74C63.9514 156.807 64.2247 156.887 64.4514 156.98L64.0114 158.7C63.6514 158.54 63.2914 158.46 62.9314 158.46C62.1047 158.46 61.6914 159.013 61.6914 160.12V161.18H63.6114V163H61.6914V171H59.3914ZM65.339 171V161.18H67.239L67.399 162.92H67.479C67.8257 162.28 68.2457 161.793 68.739 161.46C69.2324 161.113 69.739 160.94 70.259 160.94C70.7257 160.94 71.099 161.007 71.379 161.14L70.979 163.14C70.8057 163.087 70.6457 163.047 70.499 163.02C70.3524 162.993 70.1724 162.98 69.959 162.98C69.5724 162.98 69.1657 163.133 68.739 163.44C68.3124 163.733 67.9457 164.253 67.639 165V171H65.339ZM74.6526 171.24C73.786 171.24 73.086 170.98 72.5526 170.46C72.0193 169.927 71.7526 169.227 71.7526 168.36C71.7526 167.84 71.8593 167.38 72.0726 166.98C72.2993 166.567 72.646 166.213 73.1126 165.92C73.5926 165.627 74.1926 165.38 74.9126 165.18C75.646 164.98 76.5193 164.827 77.5326 164.72C77.5193 164.467 77.4793 164.227 77.4126 164C77.3593 163.76 77.2593 163.553 77.1126 163.38C76.9793 163.193 76.7993 163.053 76.5726 162.96C76.346 162.853 76.066 162.8 75.7326 162.8C75.2526 162.8 74.7793 162.893 74.3126 163.08C73.8593 163.267 73.4126 163.493 72.9726 163.76L72.1326 162.22C72.6793 161.873 73.2926 161.573 73.9726 161.32C74.6526 161.067 75.386 160.94 76.1726 160.94C77.3993 160.94 78.3126 161.307 78.9126 162.04C79.526 162.76 79.8326 163.807 79.8326 165.18V171H77.9326L77.7726 169.92H77.6926C77.2526 170.293 76.7793 170.607 76.2726 170.86C75.7793 171.113 75.2393 171.24 74.6526 171.24ZM75.3926 169.44C75.7926 169.44 76.1526 169.347 76.4726 169.16C76.806 168.973 77.1593 168.707 77.5326 168.36V166.16C76.866 166.24 76.306 166.347 75.8526 166.48C75.3993 166.613 75.0326 166.767 74.7526 166.94C74.4726 167.1 74.2726 167.287 74.1526 167.5C74.0326 167.713 73.9726 167.94 73.9726 168.18C73.9726 168.62 74.106 168.94 74.3726 169.14C74.6393 169.34 74.9793 169.44 75.3926 169.44ZM85.3251 171.24C84.6451 171.24 83.9718 171.113 83.3051 170.86C82.6518 170.593 82.0851 170.267 81.6051 169.88L82.6851 168.4C83.1251 168.747 83.5585 169.02 83.9851 169.22C84.4251 169.407 84.8985 169.5 85.4051 169.5C85.9385 169.5 86.3318 169.393 86.5851 169.18C86.8385 168.953 86.9651 168.667 86.9651 168.32C86.9651 168.12 86.9051 167.947 86.7851 167.8C86.6651 167.64 86.5051 167.5 86.3051 167.38C86.1051 167.26 85.8785 167.153 85.6251 167.06C85.3718 166.953 85.1185 166.847 84.8651 166.74C84.5451 166.62 84.2185 166.48 83.8851 166.32C83.5518 166.16 83.2518 165.967 82.9851 165.74C82.7318 165.513 82.5185 165.253 82.3451 164.96C82.1851 164.653 82.1051 164.293 82.1051 163.88C82.1051 163.013 82.4251 162.307 83.0651 161.76C83.7051 161.213 84.5785 160.94 85.6851 160.94C86.3651 160.94 86.9785 161.06 87.5251 161.3C88.0718 161.54 88.5451 161.813 88.9451 162.12L87.8851 163.52C87.5385 163.267 87.1851 163.067 86.8251 162.92C86.4785 162.76 86.1118 162.68 85.7251 162.68C85.2318 162.68 84.8651 162.787 84.6251 163C84.3985 163.2 84.2851 163.453 84.2851 163.76C84.2851 163.96 84.3385 164.133 84.4451 164.28C84.5651 164.413 84.7185 164.533 84.9051 164.64C85.0918 164.747 85.3051 164.847 85.5451 164.94C85.7985 165.033 86.0585 165.127 86.3251 165.22C86.6585 165.34 86.9918 165.48 87.3251 165.64C87.6585 165.787 87.9585 165.973 88.2251 166.2C88.5051 166.427 88.7251 166.707 88.8851 167.04C89.0585 167.36 89.1451 167.747 89.1451 168.2C89.1451 168.627 89.0585 169.027 88.8851 169.4C88.7251 169.76 88.4851 170.08 88.1651 170.36C87.8451 170.627 87.4451 170.84 86.9651 171C86.4851 171.16 85.9385 171.24 85.3251 171.24ZM94.2678 171.24C93.6944 171.24 93.2078 171.153 92.8078 170.98C92.4211 170.807 92.1011 170.567 91.8478 170.26C91.6078 169.94 91.4278 169.567 91.3078 169.14C91.2011 168.7 91.1478 168.213 91.1478 167.68V163H89.7478V161.28L91.2678 161.18L91.5478 158.5H93.4678V161.18H95.9678V163H93.4678V167.68C93.4678 168.827 93.9278 169.4 94.8478 169.4C95.0211 169.4 95.1944 169.38 95.3678 169.34C95.5544 169.3 95.7211 169.247 95.8678 169.18L96.2678 170.88C96.0011 170.973 95.6944 171.053 95.3478 171.12C95.0144 171.2 94.6544 171.24 94.2678 171.24ZM98.0343 171V161.18H99.9343L100.094 162.92H100.174C100.521 162.28 100.941 161.793 101.434 161.46C101.928 161.113 102.434 160.94 102.954 160.94C103.421 160.94 103.794 161.007 104.074 161.14L103.674 163.14C103.501 163.087 103.341 163.047 103.194 163.02C103.048 162.993 102.868 162.98 102.654 162.98C102.268 162.98 101.861 163.133 101.434 163.44C101.008 163.733 100.641 164.253 100.334 165V171H98.0343ZM108.415 171.24C107.362 171.24 106.595 170.907 106.115 170.24C105.635 169.56 105.395 168.593 105.395 167.34V161.18H107.695V167.04C107.695 167.853 107.815 168.427 108.055 168.76C108.295 169.093 108.682 169.26 109.215 169.26C109.642 169.26 110.015 169.153 110.335 168.94C110.669 168.727 111.022 168.38 111.395 167.9V161.18H113.695V171H111.815L111.635 169.56H111.575C111.149 170.067 110.682 170.473 110.175 170.78C109.682 171.087 109.095 171.24 108.415 171.24ZM120.709 171.24C120.042 171.24 119.415 171.127 118.829 170.9C118.255 170.673 117.755 170.34 117.329 169.9C116.902 169.46 116.569 168.92 116.329 168.28C116.089 167.64 115.969 166.913 115.969 166.1C115.969 165.287 116.102 164.56 116.369 163.92C116.635 163.28 116.995 162.74 117.449 162.3C117.902 161.86 118.422 161.527 119.009 161.3C119.609 161.06 120.235 160.94 120.889 160.94C121.529 160.94 122.075 161.047 122.529 161.26C122.995 161.473 123.409 161.733 123.769 162.04L122.649 163.54C122.382 163.313 122.115 163.14 121.849 163.02C121.595 162.887 121.315 162.82 121.009 162.82C120.209 162.82 119.562 163.12 119.069 163.72C118.575 164.307 118.329 165.1 118.329 166.1C118.329 167.087 118.569 167.88 119.049 168.48C119.542 169.067 120.175 169.36 120.949 169.36C121.335 169.36 121.695 169.28 122.029 169.12C122.375 168.947 122.689 168.747 122.969 168.52L123.909 170.04C123.442 170.44 122.929 170.74 122.369 170.94C121.822 171.14 121.269 171.24 120.709 171.24ZM129.112 171.24C128.538 171.24 128.052 171.153 127.652 170.98C127.265 170.807 126.945 170.567 126.692 170.26C126.452 169.94 126.272 169.567 126.152 169.14C126.045 168.7 125.992 168.213 125.992 167.68V163H124.592V161.28L126.112 161.18L126.392 158.5H128.312V161.18H130.812V163H128.312V167.68C128.312 168.827 128.772 169.4 129.692 169.4C129.865 169.4 130.038 169.38 130.212 169.34C130.398 169.3 130.565 169.247 130.712 169.18L131.112 170.88C130.845 170.973 130.538 171.053 130.192 171.12C129.858 171.2 129.498 171.24 129.112 171.24ZM135.798 171.24C134.745 171.24 133.978 170.907 133.498 170.24C133.018 169.56 132.778 168.593 132.778 167.34V161.18H135.078V167.04C135.078 167.853 135.198 168.427 135.438 168.76C135.678 169.093 136.065 169.26 136.598 169.26C137.025 169.26 137.398 169.153 137.718 168.94C138.051 168.727 138.405 168.38 138.778 167.9V161.18H141.078V171H139.198L139.018 169.56H138.958C138.531 170.067 138.065 170.473 137.558 170.78C137.065 171.087 136.478 171.24 135.798 171.24ZM143.991 171V161.18H145.891L146.051 162.92H146.131C146.478 162.28 146.898 161.793 147.391 161.46C147.885 161.113 148.391 160.94 148.911 160.94C149.378 160.94 149.751 161.007 150.031 161.14L149.631 163.14C149.458 163.087 149.298 163.047 149.151 163.02C149.005 162.993 148.825 162.98 148.611 162.98C148.225 162.98 147.818 163.133 147.391 163.44C146.965 163.733 146.598 164.253 146.291 165V171H143.991ZM155.457 171.24C154.777 171.24 154.144 171.127 153.557 170.9C152.97 170.66 152.457 170.32 152.017 169.88C151.577 169.44 151.23 168.907 150.977 168.28C150.737 167.64 150.617 166.913 150.617 166.1C150.617 165.3 150.744 164.58 150.997 163.94C151.25 163.3 151.584 162.76 151.997 162.32C152.424 161.88 152.91 161.54 153.457 161.3C154.004 161.06 154.564 160.94 155.137 160.94C155.804 160.94 156.39 161.053 156.897 161.28C157.404 161.507 157.824 161.827 158.157 162.24C158.504 162.653 158.764 163.147 158.937 163.72C159.11 164.293 159.197 164.92 159.197 165.6C159.197 165.827 159.184 166.04 159.157 166.24C159.144 166.44 159.124 166.6 159.097 166.72H152.857C152.964 167.6 153.27 168.28 153.777 168.76C154.297 169.227 154.957 169.46 155.757 169.46C156.184 169.46 156.577 169.4 156.937 169.28C157.31 169.147 157.677 168.967 158.037 168.74L158.817 170.18C158.35 170.487 157.83 170.74 157.257 170.94C156.684 171.14 156.084 171.24 155.457 171.24ZM152.837 165.16H157.197C157.197 164.4 157.03 163.807 156.697 163.38C156.377 162.94 155.877 162.72 155.197 162.72C154.61 162.72 154.097 162.927 153.657 163.34C153.217 163.753 152.944 164.36 152.837 165.16ZM168.858 171.24C168.284 171.24 167.798 171.153 167.398 170.98C167.011 170.807 166.691 170.567 166.438 170.26C166.198 169.94 166.018 169.567 165.898 169.14C165.791 168.7 165.738 168.213 165.738 167.68V163H164.338V161.28L165.858 161.18L166.138 158.5H168.058V161.18H170.558V163H168.058V167.68C168.058 168.827 168.518 169.4 169.438 169.4C169.611 169.4 169.784 169.38 169.958 169.34C170.144 169.3 170.311 169.247 170.458 169.18L170.858 170.88C170.591 170.973 170.284 171.053 169.938 171.12C169.604 171.2 169.244 171.24 168.858 171.24ZM176.332 171.24C175.718 171.24 175.132 171.127 174.572 170.9C174.012 170.673 173.512 170.34 173.072 169.9C172.645 169.46 172.305 168.92 172.052 168.28C171.798 167.64 171.672 166.913 171.672 166.1C171.672 165.287 171.798 164.56 172.052 163.92C172.305 163.28 172.645 162.74 173.072 162.3C173.512 161.86 174.012 161.527 174.572 161.3C175.132 161.06 175.718 160.94 176.332 160.94C176.945 160.94 177.532 161.06 178.092 161.3C178.665 161.527 179.165 161.86 179.592 162.3C180.018 162.74 180.358 163.28 180.612 163.92C180.878 164.56 181.012 165.287 181.012 166.1C181.012 166.913 180.878 167.64 180.612 168.28C180.358 168.92 180.018 169.46 179.592 169.9C179.165 170.34 178.665 170.673 178.092 170.9C177.532 171.127 176.945 171.24 176.332 171.24ZM176.332 169.36C177.052 169.36 177.618 169.067 178.032 168.48C178.445 167.88 178.652 167.087 178.652 166.1C178.652 165.1 178.445 164.307 178.032 163.72C177.618 163.12 177.052 162.82 176.332 162.82C175.612 162.82 175.045 163.12 174.632 163.72C174.232 164.307 174.032 165.1 174.032 166.1C174.032 167.087 174.232 167.88 174.632 168.48C175.045 169.067 175.612 169.36 176.332 169.36ZM14.4601 196V186.18H16.3601L16.5201 187.52H16.6001C17.0135 187.08 17.4601 186.707 17.9401 186.4C18.4335 186.093 18.9868 185.94 19.6001 185.94C20.3201 185.94 20.8935 186.093 21.3201 186.4C21.7601 186.707 22.0935 187.14 22.3201 187.7C22.7868 187.193 23.2735 186.773 23.7801 186.44C24.2868 186.107 24.8535 185.94 25.4801 185.94C26.5201 185.94 27.2868 186.28 27.7801 186.96C28.2735 187.627 28.5201 188.587 28.5201 189.84V196H26.2001V190.14C26.2001 189.327 26.0735 188.753 25.8201 188.42C25.5801 188.087 25.2068 187.92 24.7001 187.92C24.0868 187.92 23.4001 188.327 22.6401 189.14V196H20.3401V190.14C20.3401 189.327 20.2135 188.753 19.9601 188.42C19.7201 188.087 19.3401 187.92 18.8201 187.92C18.2068 187.92 17.5201 188.327 16.7601 189.14V196H14.4601ZM33.6956 196.24C32.8289 196.24 32.1289 195.98 31.5956 195.46C31.0623 194.927 30.7956 194.227 30.7956 193.36C30.7956 192.84 30.9023 192.38 31.1156 191.98C31.3423 191.567 31.6889 191.213 32.1556 190.92C32.6356 190.627 33.2356 190.38 33.9556 190.18C34.6889 189.98 35.5623 189.827 36.5756 189.72C36.5623 189.467 36.5223 189.227 36.4556 189C36.4023 188.76 36.3023 188.553 36.1556 188.38C36.0223 188.193 35.8423 188.053 35.6156 187.96C35.3889 187.853 35.1089 187.8 34.7756 187.8C34.2956 187.8 33.8223 187.893 33.3556 188.08C32.9023 188.267 32.4556 188.493 32.0156 188.76L31.1756 187.22C31.7223 186.873 32.3356 186.573 33.0156 186.32C33.6956 186.067 34.4289 185.94 35.2156 185.94C36.4423 185.94 37.3556 186.307 37.9556 187.04C38.5689 187.76 38.8756 188.807 38.8756 190.18V196H36.9756L36.8156 194.92H36.7356C36.2956 195.293 35.8223 195.607 35.3156 195.86C34.8223 196.113 34.2823 196.24 33.6956 196.24ZM34.4356 194.44C34.8356 194.44 35.1956 194.347 35.5156 194.16C35.8489 193.973 36.2023 193.707 36.5756 193.36V191.16C35.9089 191.24 35.3489 191.347 34.8956 191.48C34.4423 191.613 34.0756 191.767 33.7956 191.94C33.5156 192.1 33.3156 192.287 33.1956 192.5C33.0756 192.713 33.0156 192.94 33.0156 193.18C33.0156 193.62 33.1489 193.94 33.4156 194.14C33.6823 194.34 34.0223 194.44 34.4356 194.44ZM41.6281 196V186.18H43.9281V196H41.6281ZM42.7881 184.46C42.3748 184.46 42.0348 184.34 41.7681 184.1C41.5014 183.86 41.3681 183.547 41.3681 183.16C41.3681 182.773 41.5014 182.46 41.7681 182.22C42.0348 181.967 42.3748 181.84 42.7881 181.84C43.2014 181.84 43.5414 181.967 43.8081 182.22C44.0748 182.46 44.2081 182.773 44.2081 183.16C44.2081 183.547 44.0748 183.86 43.8081 184.1C43.5414 184.34 43.2014 184.46 42.7881 184.46ZM46.8625 196V186.18H48.7625L48.9225 187.5H49.0025C49.4425 187.073 49.9158 186.707 50.4225 186.4C50.9425 186.093 51.5425 185.94 52.2225 185.94C53.2758 185.94 54.0425 186.28 54.5225 186.96C55.0025 187.627 55.2425 188.587 55.2425 189.84V196H52.9425V190.14C52.9425 189.327 52.8225 188.753 52.5825 188.42C52.3425 188.087 51.9491 187.92 51.4025 187.92C50.9758 187.92 50.5958 188.027 50.2625 188.24C49.9425 188.44 49.5758 188.74 49.1625 189.14V196H46.8625ZM61.5139 196.24C60.9405 196.24 60.4539 196.153 60.0539 195.98C59.6672 195.807 59.3472 195.567 59.0939 195.26C58.8539 194.94 58.6739 194.567 58.5539 194.14C58.4472 193.7 58.3939 193.213 58.3939 192.68V188H56.9939V186.28L58.5139 186.18L58.7939 183.5H60.7139V186.18H63.2139V188H60.7139V192.68C60.7139 193.827 61.1739 194.4 62.0939 194.4C62.2672 194.4 62.4405 194.38 62.6139 194.34C62.8005 194.3 62.9672 194.247 63.1139 194.18L63.5139 195.88C63.2472 195.973 62.9405 196.053 62.5939 196.12C62.2605 196.2 61.9005 196.24 61.5139 196.24ZM67.2307 196.24C66.3641 196.24 65.6641 195.98 65.1307 195.46C64.5974 194.927 64.3307 194.227 64.3307 193.36C64.3307 192.84 64.4374 192.38 64.6507 191.98C64.8774 191.567 65.2241 191.213 65.6907 190.92C66.1707 190.627 66.7707 190.38 67.4907 190.18C68.2241 189.98 69.0974 189.827 70.1107 189.72C70.0974 189.467 70.0574 189.227 69.9907 189C69.9374 188.76 69.8374 188.553 69.6907 188.38C69.5574 188.193 69.3774 188.053 69.1507 187.96C68.9241 187.853 68.6441 187.8 68.3107 187.8C67.8307 187.8 67.3574 187.893 66.8907 188.08C66.4374 188.267 65.9907 188.493 65.5507 188.76L64.7107 187.22C65.2574 186.873 65.8707 186.573 66.5507 186.32C67.2307 186.067 67.9641 185.94 68.7507 185.94C69.9774 185.94 70.8907 186.307 71.4907 187.04C72.1041 187.76 72.4107 188.807 72.4107 190.18V196H70.5107L70.3507 194.92H70.2707C69.8307 195.293 69.3574 195.607 68.8507 195.86C68.3574 196.113 67.8174 196.24 67.2307 196.24ZM67.9707 194.44C68.3707 194.44 68.7307 194.347 69.0507 194.16C69.3841 193.973 69.7374 193.707 70.1107 193.36V191.16C69.4441 191.24 68.8841 191.347 68.4307 191.48C67.9774 191.613 67.6107 191.767 67.3307 191.94C67.0507 192.1 66.8507 192.287 66.7307 192.5C66.6107 192.713 66.5507 192.94 66.5507 193.18C66.5507 193.62 66.6841 193.94 66.9507 194.14C67.2174 194.34 67.5574 194.44 67.9707 194.44ZM75.1632 196V186.18H77.4632V196H75.1632ZM76.3232 184.46C75.9099 184.46 75.5699 184.34 75.3032 184.1C75.0366 183.86 74.9032 183.547 74.9032 183.16C74.9032 182.773 75.0366 182.46 75.3032 182.22C75.5699 181.967 75.9099 181.84 76.3232 181.84C76.7366 181.84 77.0766 181.967 77.3432 182.22C77.6099 182.46 77.7432 182.773 77.7432 183.16C77.7432 183.547 77.6099 183.86 77.3432 184.1C77.0766 184.34 76.7366 184.46 76.3232 184.46ZM80.3976 196V186.18H82.2976L82.4576 187.5H82.5376C82.9776 187.073 83.451 186.707 83.9576 186.4C84.4776 186.093 85.0776 185.94 85.7576 185.94C86.811 185.94 87.5776 186.28 88.0576 186.96C88.5376 187.627 88.7776 188.587 88.7776 189.84V196H86.4776V190.14C86.4776 189.327 86.3576 188.753 86.1176 188.42C85.8776 188.087 85.4843 187.92 84.9376 187.92C84.511 187.92 84.131 188.027 83.7976 188.24C83.4776 188.44 83.111 188.74 82.6976 189.14V196H80.3976ZM99.6129 196.24C98.9996 196.24 98.4129 196.127 97.8529 195.9C97.2929 195.673 96.7929 195.34 96.3529 194.9C95.9263 194.46 95.5863 193.92 95.3329 193.28C95.0796 192.64 94.9529 191.913 94.9529 191.1C94.9529 190.287 95.0796 189.56 95.3329 188.92C95.5863 188.28 95.9263 187.74 96.3529 187.3C96.7929 186.86 97.2929 186.527 97.8529 186.3C98.4129 186.06 98.9996 185.94 99.6129 185.94C100.226 185.94 100.813 186.06 101.373 186.3C101.946 186.527 102.446 186.86 102.873 187.3C103.3 187.74 103.64 188.28 103.893 188.92C104.16 189.56 104.293 190.287 104.293 191.1C104.293 191.913 104.16 192.64 103.893 193.28C103.64 193.92 103.3 194.46 102.873 194.9C102.446 195.34 101.946 195.673 101.373 195.9C100.813 196.127 100.226 196.24 99.6129 196.24ZM99.6129 194.36C100.333 194.36 100.9 194.067 101.313 193.48C101.726 192.88 101.933 192.087 101.933 191.1C101.933 190.1 101.726 189.307 101.313 188.72C100.9 188.12 100.333 187.82 99.6129 187.82C98.8929 187.82 98.3263 188.12 97.9129 188.72C97.5129 189.307 97.3129 190.1 97.3129 191.1C97.3129 192.087 97.5129 192.88 97.9129 193.48C98.3263 194.067 98.8929 194.36 99.6129 194.36ZM106.569 196V186.18H108.469L108.629 187.92H108.709C109.056 187.28 109.476 186.793 109.969 186.46C110.463 186.113 110.969 185.94 111.489 185.94C111.956 185.94 112.329 186.007 112.609 186.14L112.209 188.14C112.036 188.087 111.876 188.047 111.729 188.02C111.583 187.993 111.403 187.98 111.189 187.98C110.803 187.98 110.396 188.133 109.969 188.44C109.543 188.733 109.176 189.253 108.869 190V196H106.569ZM118.034 196V186.18H119.934L120.094 187.52H120.174C120.588 187.08 121.034 186.707 121.514 186.4C122.008 186.093 122.561 185.94 123.174 185.94C123.894 185.94 124.468 186.093 124.894 186.4C125.334 186.707 125.668 187.14 125.894 187.7C126.361 187.193 126.848 186.773 127.354 186.44C127.861 186.107 128.428 185.94 129.054 185.94C130.094 185.94 130.861 186.28 131.354 186.96C131.848 187.627 132.094 188.587 132.094 189.84V196H129.774V190.14C129.774 189.327 129.648 188.753 129.394 188.42C129.154 188.087 128.781 187.92 128.274 187.92C127.661 187.92 126.974 188.327 126.214 189.14V196H123.914V190.14C123.914 189.327 123.788 188.753 123.534 188.42C123.294 188.087 122.914 187.92 122.394 187.92C121.781 187.92 121.094 188.327 120.334 189.14V196H118.034ZM137.27 196.24C136.403 196.24 135.703 195.98 135.17 195.46C134.636 194.927 134.37 194.227 134.37 193.36C134.37 192.84 134.476 192.38 134.69 191.98C134.916 191.567 135.263 191.213 135.73 190.92C136.21 190.627 136.81 190.38 137.53 190.18C138.263 189.98 139.136 189.827 140.15 189.72C140.136 189.467 140.096 189.227 140.03 189C139.976 188.76 139.876 188.553 139.73 188.38C139.596 188.193 139.416 188.053 139.19 187.96C138.963 187.853 138.683 187.8 138.35 187.8C137.87 187.8 137.396 187.893 136.93 188.08C136.476 188.267 136.03 188.493 135.59 188.76L134.75 187.22C135.296 186.873 135.91 186.573 136.59 186.32C137.27 186.067 138.003 185.94 138.79 185.94C140.016 185.94 140.93 186.307 141.53 187.04C142.143 187.76 142.45 188.807 142.45 190.18V196H140.55L140.39 194.92H140.31C139.87 195.293 139.396 195.607 138.89 195.86C138.396 196.113 137.856 196.24 137.27 196.24ZM138.01 194.44C138.41 194.44 138.77 194.347 139.09 194.16C139.423 193.973 139.776 193.707 140.15 193.36V191.16C139.483 191.24 138.923 191.347 138.47 191.48C138.016 191.613 137.65 191.767 137.37 191.94C137.09 192.1 136.89 192.287 136.77 192.5C136.65 192.713 136.59 192.94 136.59 193.18C136.59 193.62 136.723 193.94 136.99 194.14C137.256 194.34 137.596 194.44 138.01 194.44ZM145.202 196V186.18H147.102L147.262 187.5H147.342C147.782 187.073 148.256 186.707 148.762 186.4C149.282 186.093 149.882 185.94 150.562 185.94C151.616 185.94 152.382 186.28 152.862 186.96C153.342 187.627 153.582 188.587 153.582 189.84V196H151.282V190.14C151.282 189.327 151.162 188.753 150.922 188.42C150.682 188.087 150.289 187.92 149.742 187.92C149.316 187.92 148.936 188.027 148.602 188.24C148.282 188.44 147.916 188.74 147.502 189.14V196H145.202ZM158.774 196.24C157.907 196.24 157.207 195.98 156.674 195.46C156.14 194.927 155.874 194.227 155.874 193.36C155.874 192.84 155.98 192.38 156.194 191.98C156.42 191.567 156.767 191.213 157.234 190.92C157.714 190.627 158.314 190.38 159.034 190.18C159.767 189.98 160.64 189.827 161.654 189.72C161.64 189.467 161.6 189.227 161.534 189C161.48 188.76 161.38 188.553 161.234 188.38C161.1 188.193 160.92 188.053 160.694 187.96C160.467 187.853 160.187 187.8 159.854 187.8C159.374 187.8 158.9 187.893 158.434 188.08C157.98 188.267 157.534 188.493 157.094 188.76L156.254 187.22C156.8 186.873 157.414 186.573 158.094 186.32C158.774 186.067 159.507 185.94 160.294 185.94C161.52 185.94 162.434 186.307 163.034 187.04C163.647 187.76 163.954 188.807 163.954 190.18V196H162.054L161.894 194.92H161.814C161.374 195.293 160.9 195.607 160.394 195.86C159.9 196.113 159.36 196.24 158.774 196.24ZM159.514 194.44C159.914 194.44 160.274 194.347 160.594 194.16C160.927 193.973 161.28 193.707 161.654 193.36V191.16C160.987 191.24 160.427 191.347 159.974 191.48C159.52 191.613 159.154 191.767 158.874 191.94C158.594 192.1 158.394 192.287 158.274 192.5C158.154 192.713 158.094 192.94 158.094 193.18C158.094 193.62 158.227 193.94 158.494 194.14C158.76 194.34 159.1 194.44 159.514 194.44ZM170.126 200.34C169.54 200.34 168.993 200.287 168.486 200.18C167.993 200.073 167.566 199.913 167.206 199.7C166.846 199.487 166.56 199.22 166.346 198.9C166.146 198.58 166.046 198.207 166.046 197.78C166.046 197.367 166.166 196.98 166.406 196.62C166.646 196.273 166.993 195.96 167.446 195.68V195.6C167.193 195.44 166.98 195.227 166.806 194.96C166.646 194.693 166.566 194.36 166.566 193.96C166.566 193.573 166.673 193.227 166.886 192.92C167.113 192.6 167.366 192.34 167.646 192.14V192.06C167.313 191.807 167.013 191.46 166.746 191.02C166.493 190.567 166.366 190.047 166.366 189.46C166.366 188.9 166.473 188.4 166.686 187.96C166.9 187.52 167.18 187.153 167.526 186.86C167.886 186.553 168.3 186.327 168.766 186.18C169.233 186.02 169.726 185.94 170.246 185.94C170.513 185.94 170.766 185.967 171.006 186.02C171.26 186.06 171.486 186.113 171.686 186.18H175.206V187.88H173.406C173.566 188.067 173.7 188.307 173.806 188.6C173.913 188.88 173.966 189.193 173.966 189.54C173.966 190.087 173.866 190.567 173.666 190.98C173.48 191.393 173.22 191.74 172.886 192.02C172.553 192.3 172.16 192.513 171.706 192.66C171.253 192.807 170.766 192.88 170.246 192.88C170.033 192.88 169.813 192.86 169.586 192.82C169.36 192.78 169.133 192.713 168.906 192.62C168.76 192.753 168.64 192.887 168.546 193.02C168.466 193.153 168.426 193.333 168.426 193.56C168.426 193.84 168.54 194.06 168.766 194.22C169.006 194.38 169.426 194.46 170.026 194.46H171.766C172.953 194.46 173.846 194.653 174.446 195.04C175.06 195.413 175.366 196.027 175.366 196.88C175.366 197.36 175.24 197.813 174.986 198.24C174.746 198.667 174.4 199.033 173.946 199.34C173.493 199.647 172.94 199.887 172.286 200.06C171.646 200.247 170.926 200.34 170.126 200.34ZM170.246 191.44C170.713 191.44 171.113 191.273 171.446 190.94C171.78 190.593 171.946 190.1 171.946 189.46C171.946 188.847 171.78 188.373 171.446 188.04C171.126 187.693 170.726 187.52 170.246 187.52C169.766 187.52 169.36 187.687 169.026 188.02C168.693 188.353 168.526 188.833 168.526 189.46C168.526 190.1 168.693 190.593 169.026 190.94C169.36 191.273 169.766 191.44 170.246 191.44ZM170.486 198.84C171.286 198.84 171.926 198.68 172.406 198.36C172.9 198.053 173.146 197.687 173.146 197.26C173.146 196.873 172.993 196.613 172.686 196.48C172.393 196.347 171.966 196.28 171.406 196.28H170.066C169.533 196.28 169.086 196.233 168.726 196.14C168.22 196.527 167.966 196.96 167.966 197.44C167.966 197.88 168.186 198.22 168.626 198.46C169.08 198.713 169.7 198.84 170.486 198.84ZM180.984 196.24C180.304 196.24 179.671 196.127 179.084 195.9C178.498 195.66 177.984 195.32 177.544 194.88C177.104 194.44 176.758 193.907 176.504 193.28C176.264 192.64 176.144 191.913 176.144 191.1C176.144 190.3 176.271 189.58 176.524 188.94C176.778 188.3 177.111 187.76 177.524 187.32C177.951 186.88 178.438 186.54 178.984 186.3C179.531 186.06 180.091 185.94 180.664 185.94C181.331 185.94 181.918 186.053 182.424 186.28C182.931 186.507 183.351 186.827 183.684 187.24C184.031 187.653 184.291 188.147 184.464 188.72C184.638 189.293 184.724 189.92 184.724 190.6C184.724 190.827 184.711 191.04 184.684 191.24C184.671 191.44 184.651 191.6 184.624 191.72H178.384C178.491 192.6 178.798 193.28 179.304 193.76C179.824 194.227 180.484 194.46 181.284 194.46C181.711 194.46 182.104 194.4 182.464 194.28C182.838 194.147 183.204 193.967 183.564 193.74L184.344 195.18C183.878 195.487 183.358 195.74 182.784 195.94C182.211 196.14 181.611 196.24 180.984 196.24ZM178.364 190.16H182.724C182.724 189.4 182.558 188.807 182.224 188.38C181.904 187.94 181.404 187.72 180.724 187.72C180.138 187.72 179.624 187.927 179.184 188.34C178.744 188.753 178.471 189.36 178.364 190.16Z" fill="#000E1A"/>
<path d="M46.1064 135.573L46.4142 135.179L46.1064 135.573C47.1314 136.373 48.2703 136.99 49.4774 137.418L49.6446 136.947C51.3669 137.558 53.2366 137.77 55.1113 137.565L55.1656 138.062C56.4134 137.925 57.6621 137.612 58.873 137.116L58.6836 136.653L58.873 137.116L63.1155 135.38L62.9261 134.917L69.2898 132.312L69.4792 132.775L77.9642 129.302L77.7748 128.839L84.1385 126.235L84.3279 126.698L92.8129 123.225L92.6235 122.762L98.9872 120.157L99.1766 120.62L103.419 118.884C104.652 118.379 105.793 117.708 106.816 116.903L106.507 116.51C108.014 115.323 109.256 113.836 110.139 112.159L110.581 112.392C111.193 111.23 111.638 109.98 111.889 108.676L112.734 104.285L112.243 104.191L113.509 97.604L114 97.6984L115.689 88.9162L115.198 88.8218L116.465 82.2351L116.956 82.3295L118.645 73.5473L118.154 73.4528L119.42 66.8662L119.911 66.9606L120.756 62.5695C120.999 61.3045 121.048 60.0419 120.916 58.8185L120.419 58.8723C120.222 57.045 119.602 55.3126 118.609 53.808L119.027 53.5326C118.341 52.4932 117.484 51.5579 116.472 50.7673L113.074 48.1126L112.766 48.5066L107.669 44.5245L107.976 44.1305L101.18 38.8211L100.873 39.2151L95.7755 35.233L96.0833 34.839L89.2872 29.5296L88.9794 29.9236L83.8823 25.9416L84.1901 25.5475L80.7921 22.8929C79.7672 22.0921 78.6283 21.475 77.4212 21.0467L77.254 21.5179C75.5317 20.9067 73.6619 20.6951 71.7872 20.9002L71.7328 20.4032C70.485 20.5397 69.2363 20.8538 68.0255 21.3495L63.7829 23.0859L63.9723 23.5486L57.6085 26.1532L57.4191 25.6905L48.934 29.1633L49.1234 29.626L42.7595 32.2306L42.5702 31.7679L34.0851 35.2407L34.2744 35.7034L27.9106 38.308L27.7212 37.8453L23.4787 39.5817C22.2461 40.0861 21.1046 40.7574 20.0815 41.5626L20.3907 41.9555C18.8834 43.1417 17.6416 44.6297 16.7591 46.3065L16.3166 46.0736C15.7052 47.2351 15.2593 48.4852 15.0086 49.7891L14.1642 54.1803L14.6552 54.2747L13.3885 60.8613L12.8975 60.7669L11.2087 69.5492L11.6997 69.6436L10.4331 76.2303L9.94205 76.1358L8.25321 84.9181L8.74421 85.0125L7.47758 91.5992L6.98658 91.5048L6.14216 95.8959C5.8989 97.1609 5.84952 98.4234 5.98171 99.6468L6.47882 99.5931C6.67627 101.42 7.29559 103.153 8.28859 104.657L7.87128 104.933C8.55728 105.972 9.41387 106.907 10.426 107.698L13.8242 110.353L14.132 109.959L19.2292 113.941L18.9214 114.335L25.7176 119.644L26.0255 119.25L31.1226 123.232L30.8148 123.626L37.6111 128.936L37.9189 128.542L43.0161 132.524L42.7083 132.918L46.1064 135.573Z" fill="white" stroke="url(#paint0_linear)" stroke-dasharray="8 6"/>
<path fill-rule="evenodd" clip-rule="evenodd" d="M58.8927 17.7294C58.8927 8.61667 66.28 1.22937 75.3927 1.22937C84.5054 1.22937 91.8927 8.61667 91.8927 17.7294C91.8927 26.8421 84.5054 34.2294 75.3927 34.2294C66.28 34.2294 58.8927 26.8421 58.8927 17.7294Z" fill="white" stroke="#FA5A28" stroke-dasharray="5 3"/>
<path d="M70.6306 23.2294V22.7254C71.5786 21.7654 72.4066 20.9074 73.1146 20.1514C73.8226 19.3834 74.4106 18.6874 74.8786 18.0634C75.3586 17.4274 75.7126 16.8454 75.9406 16.3174C76.1806 15.7774 76.3006 15.2554 76.3006 14.7514C76.3006 14.0314 76.0966 13.4254 75.6886 12.9334C75.2926 12.4414 74.6626 12.1954 73.7986 12.1954C73.2706 12.1954 72.7786 12.3394 72.3226 12.6274C71.8666 12.9154 71.4646 13.2754 71.1166 13.7074L70.5946 13.2034C71.0266 12.7234 71.5006 12.3214 72.0166 11.9974C72.5446 11.6734 73.1626 11.5114 73.8706 11.5114C74.9026 11.5114 75.7006 11.8054 76.2646 12.3934C76.8286 12.9814 77.1106 13.7614 77.1106 14.7334C77.1106 15.3094 76.9846 15.8854 76.7326 16.4614C76.4806 17.0254 76.1266 17.6254 75.6706 18.2614C75.2146 18.8854 74.6566 19.5574 73.9966 20.2774C73.3486 20.9854 72.6286 21.7594 71.8366 22.5994C72.1486 22.5754 72.4666 22.5574 72.7906 22.5454C73.1266 22.5214 73.4506 22.5094 73.7626 22.5094H77.6866V23.2294H70.6306ZM80.4859 23.4454C80.2819 23.4454 80.1019 23.3734 79.9459 23.2294C79.7899 23.0854 79.7119 22.8874 79.7119 22.6354C79.7119 22.3714 79.7899 22.1674 79.9459 22.0234C80.1019 21.8794 80.2819 21.8074 80.4859 21.8074C80.6899 21.8074 80.8639 21.8794 81.0079 22.0234C81.1639 22.1674 81.2419 22.3714 81.2419 22.6354C81.2419 22.8874 81.1639 23.0854 81.0079 23.2294C80.8639 23.3734 80.6899 23.4454 80.4859 23.4454Z" fill="black"/>
<path fill-rule="evenodd" clip-rule="evenodd" d="M82.9573 45.5637C82.9573 51.3979 78.2278 56.1275 72.3935 56.1275C66.5593 56.1275 61.8297 51.3979 61.8297 45.5637C61.8297 39.7295 66.5593 34.9999 72.3935 34.9999C78.2278 34.9999 82.9573 39.7295 82.9573 45.5637Z" fill="#F2F2F2"/>
<rect x="67.4683" y="58.2402" width="34.5852" height="8.3473" rx="4.17365" fill="#F2F2F2"/>
<rect x="19.3198" y="61.3755" width="55.8241" height="13.4745" rx="6.73726" fill="#F2F2F2"/>
<path fill-rule="evenodd" clip-rule="evenodd" d="M64.1102 110.939C47.6963 110.773 34.525 97.3321 34.6911 80.9183C34.8573 64.5044 48.2981 51.333 64.712 51.4991C81.1259 51.6653 94.2972 65.1061 94.131 81.5199C93.9649 97.9338 80.5241 111.105 64.1102 110.939Z" fill="url(#paint1_linear)"/>
<path fill-rule="evenodd" clip-rule="evenodd" d="M64.4349 117.667H64.416C64.0255 117.667 63.635 117.667 63.2502 117.648C63.0939 117.646 62.9694 117.517 62.972 117.361C62.9746 117.205 63.1034 117.08 63.2596 117.083H63.2691C63.6463 117.096 64.0331 117.101 64.416 117.101C64.5743 117.1 64.7043 117.226 64.7084 117.384C64.7104 117.458 64.6826 117.53 64.6311 117.583C64.5796 117.637 64.5089 117.667 64.4349 117.667ZM66.393 117.615C66.2367 117.619 66.1067 117.495 66.1025 117.339C66.0983 117.183 66.2216 117.053 66.3778 117.049C66.7551 117.028 67.1513 117 67.5399 116.966C67.6961 116.952 67.8338 117.068 67.8474 117.224C67.8609 117.38 67.7452 117.518 67.5889 117.532C67.1947 117.566 66.7966 117.594 66.408 117.615H66.393ZM61.2998 117.535H61.2752C60.881 117.501 60.4848 117.462 60.0962 117.415C59.94 117.396 59.8281 117.255 59.8463 117.099C59.8645 116.942 60.006 116.831 60.1623 116.849C60.5396 116.894 60.9357 116.936 61.3224 116.968C61.4787 116.974 61.6002 117.106 61.594 117.262C61.5877 117.418 61.456 117.54 61.2998 117.534L61.2998 117.535ZM69.5017 117.309C69.3454 117.32 69.2099 117.202 69.1989 117.046C69.188 116.89 69.3058 116.754 69.4621 116.743C69.8394 116.69 70.2336 116.628 70.6128 116.554C70.7139 116.537 70.8167 116.575 70.8825 116.653C70.9482 116.732 70.9669 116.84 70.9315 116.936C70.8961 117.033 70.812 117.103 70.7109 117.12C70.3336 117.188 69.9318 117.25 69.5414 117.309L69.5017 117.309ZM58.1928 117.132H58.1437C57.757 117.064 57.3665 116.988 56.9817 116.909C56.8289 116.876 56.7307 116.727 56.761 116.573C56.7764 116.5 56.8204 116.435 56.8834 116.394C56.9464 116.353 57.0232 116.339 57.0967 116.354C57.474 116.434 57.8607 116.507 58.2418 116.573C58.3981 116.587 58.5138 116.724 58.5002 116.881C58.4867 117.037 58.349 117.153 58.1927 117.139L58.1928 117.132ZM72.5803 116.734C72.424 116.751 72.283 116.639 72.2653 116.483C72.2476 116.326 72.3599 116.185 72.5161 116.168C72.8934 116.081 73.2707 115.979 73.648 115.885C73.799 115.844 73.9544 115.934 73.995 116.085C74.0357 116.236 73.9462 116.391 73.7952 116.432C73.4179 116.534 73.0274 116.63 72.6464 116.719C72.6275 116.726 72.6079 116.731 72.5878 116.734H72.5803ZM55.1463 116.458C55.1215 116.458 55.0968 116.455 55.0727 116.449C54.6955 116.349 54.3182 116.239 53.9409 116.124C53.7954 116.076 53.7148 115.92 53.7593 115.774C53.8038 115.627 53.9571 115.542 54.105 115.583C54.4823 115.696 54.8596 115.804 55.2255 115.902C55.3818 115.922 55.4924 116.064 55.4726 116.221C55.4528 116.377 55.3101 116.487 55.1538 116.468L55.1463 116.458ZM75.6079 115.892C75.4677 115.894 75.3475 115.793 75.3252 115.654C75.303 115.516 75.3856 115.382 75.5193 115.34C75.8852 115.221 76.2568 115.093 76.6209 114.962C76.7678 114.909 76.9299 114.985 76.9831 115.132C77.0092 115.202 77.0062 115.28 76.9746 115.348C76.9431 115.416 76.8857 115.469 76.8152 115.494C76.4379 115.63 76.0607 115.76 75.6947 115.881C75.6654 115.89 75.6347 115.893 75.6042 115.89L75.6079 115.892ZM52.1526 115.515C52.1197 115.516 52.087 115.51 52.0564 115.498C51.6791 115.364 51.3018 115.221 50.9472 115.075C50.8018 115.017 50.7313 114.852 50.7897 114.707C50.848 114.561 51.0131 114.491 51.1584 114.549C51.5169 114.694 51.8828 114.834 52.2507 114.966C52.3213 114.992 52.3787 115.045 52.4102 115.113C52.4417 115.182 52.4447 115.26 52.4186 115.33C52.3786 115.444 52.2697 115.52 52.1488 115.517L52.1526 115.515ZM78.5375 114.787C78.403 114.787 78.2869 114.693 78.2599 114.561C78.2329 114.429 78.3025 114.296 78.4262 114.244C78.7809 114.093 79.1374 113.932 79.4883 113.77C79.5807 113.719 79.6941 113.723 79.7823 113.782C79.8704 113.84 79.9185 113.943 79.9071 114.048C79.8956 114.153 79.8265 114.243 79.7279 114.281C79.3713 114.449 79.0091 114.611 78.6488 114.764C78.6136 114.779 78.5758 114.787 78.5375 114.787ZM49.257 114.317C49.216 114.317 49.1755 114.308 49.1381 114.291C48.7816 114.125 48.4213 113.949 48.0704 113.77C47.9752 113.727 47.9113 113.636 47.9041 113.531C47.8969 113.427 47.9477 113.328 48.0361 113.272C48.1246 113.217 48.2364 113.215 48.327 113.266C48.6722 113.442 49.0268 113.613 49.3777 113.778C49.4983 113.834 49.5635 113.966 49.5345 114.096C49.5054 114.226 49.39 114.318 49.257 114.317L49.257 114.317ZM81.3558 113.432C81.2263 113.432 81.1134 113.344 81.0818 113.218C81.0502 113.093 81.1079 112.962 81.2218 112.9C81.5633 112.712 81.9047 112.523 82.2386 112.334C82.374 112.256 82.5472 112.303 82.6253 112.438C82.7034 112.574 82.657 112.747 82.5216 112.825C82.1839 113.014 81.8368 113.214 81.4897 113.391C81.4473 113.418 81.3983 113.432 81.3482 113.432L81.3558 113.432ZM46.4745 112.867C46.4248 112.867 46.376 112.854 46.333 112.829C45.9916 112.64 45.6501 112.427 45.3162 112.22C45.1834 112.137 45.1429 111.962 45.2257 111.829C45.3085 111.696 45.4834 111.656 45.6162 111.739C45.9444 111.942 46.2802 112.146 46.6179 112.338C46.7527 112.417 46.7983 112.59 46.7197 112.725C46.6691 112.815 46.5723 112.87 46.4688 112.867H46.4745ZM84.0458 111.837C83.9198 111.839 83.8078 111.757 83.7718 111.636C83.7357 111.515 83.7845 111.385 83.8911 111.318C84.2118 111.107 84.5363 110.888 84.8551 110.665C84.9832 110.576 85.1597 110.607 85.2494 110.735C85.339 110.863 85.3077 111.04 85.1796 111.129C84.857 111.356 84.5269 111.578 84.2006 111.791C84.1526 111.823 84.0958 111.839 84.0383 111.837L84.0458 111.837ZM43.8279 111.18C43.7697 111.181 43.7129 111.163 43.6656 111.129C43.3431 110.905 43.0205 110.669 42.7073 110.433C42.6261 110.372 42.5835 110.273 42.5955 110.173C42.6075 110.072 42.6724 109.986 42.7656 109.946C42.8587 109.906 42.966 109.919 43.0469 109.98C43.3563 110.214 43.6732 110.444 43.9901 110.665C44.0915 110.736 44.1352 110.864 44.098 110.982C44.0609 111.1 43.9515 111.18 43.8279 111.18L43.8279 111.18ZM86.5849 110.012C86.4979 110.013 86.4155 109.974 86.3623 109.905C86.2662 109.782 86.2872 109.604 86.4094 109.507C86.7112 109.271 87.015 109.024 87.313 108.773C87.3905 108.708 87.4968 108.689 87.5919 108.724C87.687 108.758 87.7564 108.841 87.774 108.941C87.7916 109.04 87.7546 109.142 87.6771 109.207C87.3753 109.462 87.0659 109.712 86.7584 109.961C86.707 109.998 86.6443 110.016 86.5811 110.012H86.5849ZM41.3435 109.271C41.2746 109.273 41.2075 109.249 41.1548 109.205C40.8549 108.954 40.555 108.692 40.2607 108.43C40.144 108.325 40.1339 108.146 40.2381 108.03C40.3423 107.913 40.5213 107.903 40.638 108.007C40.9285 108.267 41.2246 108.524 41.5189 108.771C41.6112 108.848 41.6446 108.975 41.6021 109.088C41.5596 109.201 41.4506 109.274 41.3303 109.271H41.3435ZM88.9599 107.973C88.8819 107.974 88.807 107.942 88.7543 107.885C88.7025 107.83 88.6748 107.757 88.6773 107.682C88.6798 107.607 88.7122 107.536 88.7675 107.485C89.0504 107.219 89.3334 106.945 89.605 106.673C89.7165 106.57 89.8903 106.573 89.998 106.68C90.1058 106.788 90.1088 106.962 90.005 107.073C89.7295 107.351 89.439 107.628 89.1542 107.898C89.1004 107.948 89.0294 107.975 88.9561 107.973H88.9599ZM39.0289 107.155C38.9538 107.155 38.8817 107.125 38.8289 107.072C38.5516 106.794 38.2743 106.506 38.0065 106.223C37.8992 106.109 37.9046 105.929 38.0187 105.822C38.1328 105.714 38.3123 105.72 38.4196 105.834C38.6837 106.117 38.9553 106.4 39.2288 106.672C39.2823 106.724 39.3124 106.796 39.3124 106.872C39.3124 106.947 39.2823 107.019 39.2288 107.072C39.1764 107.126 39.1041 107.156 39.0289 107.155ZM91.1481 105.736C91.0364 105.736 90.9351 105.671 90.8895 105.569C90.8438 105.467 90.8624 105.348 90.9368 105.264C91.1952 104.976 91.4537 104.68 91.7027 104.383C91.7655 104.299 91.8699 104.257 91.9737 104.273C92.0774 104.29 92.1636 104.362 92.1973 104.462C92.2311 104.561 92.207 104.671 92.1347 104.747C91.8819 105.047 91.6216 105.349 91.3593 105.642C91.3054 105.702 91.2287 105.736 91.1481 105.736L91.1481 105.736ZM36.9123 104.847C36.8284 104.848 36.7487 104.81 36.6954 104.746C36.4445 104.448 36.1936 104.138 35.9503 103.829C35.8821 103.75 35.8626 103.64 35.8995 103.543C35.9365 103.446 36.0239 103.377 36.1271 103.363C36.2303 103.349 36.3327 103.393 36.3936 103.478C36.635 103.784 36.8821 104.089 37.1293 104.381C37.2297 104.501 37.2146 104.68 37.0953 104.781C37.0437 104.824 36.9791 104.847 36.9123 104.847H36.9123ZM93.1383 103.316C93.0311 103.316 92.9332 103.255 92.8852 103.159C92.8373 103.063 92.8476 102.949 92.9119 102.863C93.144 102.554 93.3741 102.237 93.5967 101.92C93.6868 101.792 93.8637 101.761 93.9918 101.851C94.12 101.941 94.1508 102.118 94.0608 102.246C93.8344 102.569 93.6005 102.891 93.3647 103.204C93.3105 103.274 93.2269 103.316 93.1383 103.316L93.1383 103.316ZM35.0052 102.372C34.9132 102.373 34.8268 102.328 34.7732 102.254C34.5487 101.931 34.3242 101.603 34.1092 101.275C34.0498 101.19 34.0412 101.08 34.0868 100.987C34.1324 100.894 34.225 100.834 34.3283 100.829C34.4316 100.825 34.5291 100.877 34.5827 100.965C34.7939 101.288 35.0147 101.612 35.2354 101.927C35.2791 101.988 35.2966 102.064 35.2838 102.139C35.271 102.213 35.2291 102.278 35.1675 102.321C35.1191 102.352 35.0623 102.367 35.0052 102.363L35.0052 102.372ZM94.9114 100.737C94.8582 100.737 94.806 100.723 94.7605 100.696C94.6292 100.612 94.589 100.438 94.6699 100.305C94.8774 99.9749 95.0793 99.6392 95.2717 99.3053C95.3222 99.2176 95.4157 99.1636 95.5168 99.1636C95.618 99.1635 95.7115 99.2175 95.7621 99.3051C95.8127 99.3927 95.8127 99.5006 95.7621 99.5882C95.5735 99.9277 95.3603 100.269 95.151 100.605C95.0976 100.685 95.0072 100.732 94.9114 100.729L94.9114 100.737ZM33.3206 99.7221C33.2195 99.7221 33.126 99.6682 33.0754 99.5806C32.8868 99.241 32.6849 98.8939 32.5 98.5487C32.4334 98.4122 32.4865 98.2474 32.6203 98.1754C32.7541 98.1034 32.9209 98.15 32.998 98.2809C33.1867 98.6223 33.3753 98.9637 33.564 99.2976C33.6349 99.431 33.5894 99.5965 33.4602 99.6749C33.4183 99.702 33.3703 99.7182 33.3206 99.7221H33.3206ZM96.4582 97.9998C96.4136 97.9993 96.3696 97.9883 96.33 97.9678C96.1915 97.8979 96.1357 97.7291 96.2055 97.5905C96.3809 97.2434 96.5544 96.8887 96.7167 96.5398C96.7828 96.3981 96.9513 96.3368 97.093 96.403C97.2347 96.4692 97.2959 96.6376 97.2298 96.7793C97.0638 97.134 96.8883 97.4924 96.7091 97.847C96.6609 97.9411 96.5639 98.0001 96.4582 97.9998V97.9998ZM31.8795 96.9585C31.7692 96.9589 31.6688 96.8947 31.6229 96.7944C31.4569 96.4397 31.2947 96.0775 31.14 95.7172C31.0915 95.6231 31.0995 95.5098 31.1609 95.4235C31.2223 95.3372 31.3267 95.2924 31.4315 95.3074C31.5363 95.3224 31.624 95.3946 31.6588 95.4946C31.8116 95.8493 31.9719 96.2058 32.1341 96.5548C32.2 96.6965 32.1394 96.8649 31.9983 96.9321C31.9592 96.9496 31.9167 96.9586 31.8738 96.9585H31.8795ZM97.7542 95.142C97.718 95.1422 97.6821 95.1352 97.6486 95.1212C97.5039 95.0628 97.4338 94.8982 97.492 94.7534C97.6373 94.395 97.7769 94.0271 97.9108 93.663C97.9629 93.5167 98.1238 93.4402 98.2701 93.4923C98.4165 93.5444 98.493 93.7053 98.4409 93.8517C98.3069 94.229 98.1636 94.5949 98.0164 94.9609C97.9747 95.072 97.8673 95.1447 97.7486 95.142H97.7542ZM30.6797 94.0723C30.5603 94.0715 30.4541 93.9961 30.4137 93.8837C30.2798 93.5064 30.1477 93.1386 30.0251 92.7632C29.9893 92.666 30.0095 92.5569 30.0778 92.479C30.1461 92.401 30.2515 92.3666 30.3526 92.3893C30.4537 92.412 30.5343 92.4881 30.5627 92.5878C30.6835 92.9556 30.8136 93.3272 30.94 93.6894C30.9931 93.8363 30.9171 93.9984 30.7703 94.0516C30.7396 94.064 30.7071 94.071 30.674 94.0723H30.6797ZM98.7955 92.186C98.768 92.1862 98.7405 92.1817 98.7144 92.1728C98.6424 92.1514 98.5818 92.1021 98.5464 92.0358C98.5109 91.9695 98.5035 91.8918 98.5258 91.82C98.6371 91.4427 98.7446 91.0655 98.8446 90.6995C98.8852 90.5485 99.0406 90.4589 99.1916 90.4995C99.3427 90.5401 99.4322 90.6954 99.3917 90.8465C99.2898 91.2238 99.1804 91.6011 99.0672 91.9783C99.0289 92.0985 98.916 92.1792 98.7899 92.1765L98.7955 92.186ZM29.7347 91.0919C29.6071 91.0918 29.4955 91.0058 29.463 90.8825C29.3593 90.5052 29.2631 90.1147 29.1744 89.7337C29.1451 89.5841 29.2395 89.4382 29.3879 89.4037C29.5363 89.3691 29.6854 89.4583 29.7252 89.6054C29.8139 89.9827 29.9139 90.36 30.0082 90.7372C30.0278 90.8098 30.0177 90.8871 29.9802 90.9523C29.9427 91.0174 29.8808 91.0649 29.8082 91.0843C29.782 91.0882 29.7554 91.0888 29.729 91.0862L29.7347 91.0919ZM99.5708 89.1508H99.5123C99.4387 89.1354 99.3743 89.0913 99.3332 89.0283C99.2922 88.9653 99.2779 88.8886 99.2935 88.815C99.3728 88.4377 99.4482 88.0604 99.5142 87.6719C99.5317 87.5707 99.6018 87.4866 99.6982 87.4512C99.7945 87.4158 99.9024 87.4345 99.9812 87.5003C100.06 87.566 100.098 87.6688 100.08 87.7699C100.012 88.1566 99.9387 88.5471 99.8576 88.9319C99.8242 89.0642 99.7013 89.1538 99.5651 89.1451L99.5708 89.1508ZM29.0518 88.0265C28.9143 88.0267 28.7965 87.928 28.7726 87.7926C28.7047 87.4021 28.6424 87.0078 28.584 86.623C28.5621 86.4667 28.671 86.3223 28.8273 86.3004C28.9835 86.2785 29.1279 86.3874 29.1499 86.5437C29.2027 86.9209 29.2649 87.3095 29.3385 87.6944C29.3648 87.8484 29.2621 87.9948 29.1084 88.0226L29.0518 88.0265ZM100.073 86.0533H100.042C99.9678 86.0443 99.8999 86.0061 99.8535 85.947C99.8072 85.8879 99.7862 85.8128 99.7953 85.7382C99.8405 85.361 99.8802 84.9667 99.9141 84.5781C99.9277 84.4218 100.065 84.3061 100.222 84.3197C100.378 84.3332 100.494 84.4709 100.48 84.6272C100.446 85.0214 100.405 85.4176 100.359 85.8062C100.341 85.9501 100.218 86.0573 100.073 86.0552L100.073 86.0533ZM28.6443 84.9215C28.4975 84.9212 28.375 84.8092 28.3614 84.6631C28.3274 84.2707 28.2991 83.8727 28.2784 83.4822C28.27 83.3259 28.39 83.1925 28.5462 83.1841C28.7025 83.1758 28.8359 83.2957 28.8443 83.452C28.865 83.8293 28.8914 84.2273 28.9254 84.614C28.9385 84.7695 28.8241 84.9066 28.6688 84.9215L28.6443 84.9215ZM100.308 82.9332C100.233 82.9312 100.162 82.8994 100.111 82.8449C100.06 82.7904 100.032 82.7176 100.035 82.6427C100.046 82.2654 100.052 81.8655 100.052 81.4769V81.4033C100.052 81.247 100.178 81.1204 100.335 81.1204C100.491 81.1204 100.618 81.247 100.618 81.4033V81.475C100.618 81.8711 100.618 82.2692 100.599 82.6597C100.597 82.7346 100.565 82.8056 100.511 82.8569C100.456 82.9083 100.383 82.9357 100.308 82.9332V82.9332ZM28.5066 81.8014C28.3503 81.8014 28.2236 81.6747 28.2236 81.5184V81.4826C28.2236 81.1053 28.2236 80.7148 28.2406 80.3356C28.2453 80.1794 28.3757 80.0565 28.532 80.0612C28.6882 80.0658 28.8111 80.1962 28.8065 80.3525C28.7952 80.7298 28.7896 81.107 28.7896 81.4843V81.5202C28.7886 81.6757 28.6622 81.8014 28.5066 81.8014H28.5066ZM100.269 79.7264C100.119 79.7265 99.9948 79.6086 99.9877 79.4585C99.9651 79.0812 99.9387 78.6832 99.9028 78.2965C99.8893 78.1402 100.005 78.0025 100.161 77.989C100.318 77.9754 100.455 78.0912 100.469 78.2474C100.505 78.6379 100.533 79.0359 100.554 79.4283C100.562 79.584 100.443 79.7172 100.288 79.7264L100.269 79.7264ZM28.6387 78.6662H28.6142C28.5394 78.66 28.4701 78.6242 28.4216 78.5669C28.3732 78.5096 28.3495 78.4354 28.3557 78.3606C28.3897 77.9682 28.4293 77.5702 28.4746 77.1816C28.4933 77.0253 28.6352 76.9138 28.7915 76.9326C28.9478 76.9514 29.0592 77.0932 29.0405 77.2495C28.9952 77.6268 28.9556 78.021 28.9235 78.4078C28.9107 78.5551 28.7866 78.6677 28.6387 78.6662H28.6387ZM99.9595 76.61C99.8189 76.6095 99.7 76.5058 99.6803 76.3666C99.6256 75.9894 99.5633 75.5989 99.4916 75.2159C99.4654 75.0623 99.5683 74.9165 99.7218 74.8896C99.7954 74.8759 99.8714 74.8924 99.9328 74.9353C99.9942 74.9782 100.036 75.044 100.048 75.1178C100.118 75.5064 100.18 75.9007 100.237 76.2874C100.258 76.4415 100.151 76.5838 99.9972 76.6062C99.9848 76.6089 99.9721 76.6102 99.9595 76.61V76.61ZM29.0404 75.5593H28.9914C28.917 75.5469 28.8508 75.5051 28.8075 75.4434C28.7643 75.3817 28.7476 75.3052 28.7613 75.231C28.8273 74.8443 28.9027 74.4539 28.982 74.069C29.0138 73.9159 29.1637 73.8176 29.3168 73.8493C29.4699 73.8811 29.5683 74.0309 29.5366 74.1841C29.4573 74.5613 29.3838 74.948 29.3178 75.3291C29.2924 75.4624 29.1761 75.5589 29.0404 75.5593H29.0404ZM99.3804 73.5334C99.2462 73.5358 99.1288 73.4436 99.0993 73.3127C99.0107 72.9354 98.9107 72.5581 98.8145 72.1809C98.7738 72.0298 98.8633 71.8744 99.0144 71.8338C99.1654 71.7931 99.3208 71.8826 99.3615 72.0336C99.4633 72.4109 99.5596 72.7995 99.6501 73.1805C99.6676 73.2538 99.6552 73.3311 99.6155 73.3952C99.5759 73.4593 99.5123 73.5049 99.4388 73.522C99.4197 73.5272 99.4001 73.5311 99.3804 73.5334V73.5334ZM29.7102 72.4996C29.6859 72.5 29.6618 72.4969 29.6385 72.4901C29.4875 72.4505 29.3972 72.296 29.4366 72.1449C29.5385 71.7676 29.646 71.3904 29.7611 71.0131C29.7883 70.9139 29.8673 70.8373 29.9672 70.813C30.0672 70.7888 30.1725 70.8207 30.2421 70.8964C30.3118 70.9721 30.3349 71.0796 30.3025 71.1772C30.1893 71.5545 30.0837 71.9318 29.9837 72.2977C29.9481 72.4188 29.8363 72.5013 29.7102 72.4996ZM98.5334 70.517C98.4131 70.5175 98.3056 70.4418 98.2655 70.3284C98.1448 69.9511 98.0146 69.5908 97.8882 69.2286C97.8456 69.1315 97.8609 69.0188 97.9277 68.9365C97.9945 68.8542 98.1018 68.8162 98.2055 68.838C98.3093 68.8598 98.3921 68.9377 98.4202 69.0399C98.5541 69.4172 98.6862 69.7832 98.8088 70.1567C98.8323 70.2292 98.8255 70.3082 98.79 70.3756C98.7545 70.4431 98.6932 70.4934 98.6201 70.5151C98.5915 70.5202 98.5622 70.5209 98.5334 70.517H98.5334ZM30.6514 69.5077C30.6186 69.5075 30.5861 69.5018 30.5552 69.4907C30.4084 69.4375 30.3324 69.2754 30.3854 69.1285C30.5213 68.7512 30.6627 68.3834 30.808 68.0193C30.8659 67.874 31.0305 67.8032 31.1758 67.861C31.3211 67.9188 31.392 68.0834 31.3343 68.2287C31.1909 68.589 31.0494 68.955 30.9174 69.3209C30.8766 69.4336 30.7694 69.5084 30.6495 69.5077L30.6514 69.5077ZM97.4297 67.5931C97.3166 67.5926 97.2144 67.5252 97.1694 67.4214C97.0185 67.0667 96.8582 66.7102 96.694 66.3612C96.6274 66.2196 96.6881 66.0507 96.8298 65.984C96.9714 65.9173 97.1403 65.978 97.2071 66.1197C97.3731 66.4762 97.5353 66.8384 97.69 67.1968C97.7219 67.2664 97.724 67.346 97.6959 67.4172C97.6678 67.4884 97.6118 67.5451 97.541 67.5741C97.504 67.5894 97.464 67.5959 97.4241 67.5931H97.4297ZM31.8492 66.6065C31.8081 66.607 31.7674 66.598 31.7303 66.5801C31.6619 66.5485 31.6088 66.4909 31.5829 66.4201C31.5571 66.3493 31.5606 66.2711 31.5926 66.2028C31.7586 65.8482 31.9322 65.4897 32.1114 65.1351C32.1822 64.9955 32.3528 64.9398 32.4924 65.0106C32.6321 65.0814 32.6878 65.2521 32.6169 65.3917C32.4396 65.7387 32.268 66.0934 32.1057 66.4424C32.0595 66.5424 31.9594 66.6064 31.8492 66.6065V66.6065ZM96.0659 64.7766C95.9617 64.7769 95.8659 64.7195 95.8169 64.6275C95.6283 64.288 95.4396 63.9466 95.251 63.6127C95.1791 63.4784 95.2263 63.3113 95.3579 63.2346C95.4895 63.1579 95.6582 63.1991 95.7396 63.3278C95.9376 63.6674 96.1319 64.0145 96.3168 64.3597C96.3869 64.4958 96.3359 64.663 96.2017 64.7369C96.1608 64.7621 96.1139 64.7758 96.0659 64.7766L96.0659 64.7766ZM33.298 63.8241C33.2483 63.8248 33.1993 63.8118 33.1566 63.7864C33.0911 63.7492 33.0433 63.6874 33.0238 63.6147C33.0043 63.542 33.0147 63.4646 33.0528 63.3997C33.2414 63.0601 33.4546 62.7187 33.6621 62.3829C33.7449 62.2501 33.9198 62.2095 34.0526 62.2924C34.1854 62.3752 34.226 62.55 34.1431 62.6828C33.9375 63.013 33.7357 63.3487 33.5433 63.6826C33.493 63.7705 33.3993 63.8246 33.298 63.8241V63.8241ZM94.4663 62.0885C94.3708 62.0892 94.2814 62.0416 94.2286 61.9621C94.0173 61.6395 93.7966 61.3151 93.5759 60.9982C93.5097 60.916 93.4947 60.8037 93.5371 60.7071C93.5795 60.6104 93.6721 60.5454 93.7774 60.5383C93.8828 60.5313 93.9832 60.5835 94.038 60.6737C94.2644 60.9944 94.487 61.3226 94.7021 61.6509C94.7434 61.7136 94.7581 61.7903 94.7429 61.8639C94.7277 61.9375 94.6838 62.002 94.6209 62.0432C94.5751 62.0735 94.5212 62.0893 94.4663 62.0885V62.0885ZM34.9826 61.1812C34.8771 61.1813 34.7803 61.1226 34.7315 61.029C34.6827 60.9354 34.6901 60.8225 34.7506 60.736C34.977 60.4134 35.2109 60.0909 35.4467 59.7758C35.5383 59.6493 35.7152 59.621 35.8418 59.7126C35.9684 59.8043 35.9967 59.9812 35.9051 60.1077C35.6731 60.4171 35.4429 60.734 35.2203 61.0509C35.1687 61.1322 35.0789 61.1814 34.9826 61.1812H34.9826ZM92.6383 59.5419C92.5516 59.5418 92.4697 59.5022 92.4157 59.4343C92.1781 59.1325 91.929 58.8269 91.68 58.5308C91.5904 58.4107 91.6098 58.2416 91.7244 58.1451C91.8389 58.0485 92.0089 58.058 92.112 58.1667C92.3667 58.4685 92.6176 58.776 92.8666 59.0835C92.9339 59.1687 92.9465 59.2848 92.8991 59.3825C92.8516 59.4802 92.7525 59.5421 92.644 59.5419H92.6383ZM36.8898 58.6874C36.7794 58.6878 36.6788 58.624 36.6322 58.5239C36.5855 58.4238 36.6014 58.3057 36.6728 58.2215C36.9275 57.9197 37.1878 57.6178 37.45 57.3273C37.5156 57.2456 37.621 57.2068 37.7239 57.2265C37.8269 57.2462 37.9105 57.3212 37.9412 57.4214C37.972 57.5216 37.9449 57.6305 37.8707 57.7046C37.6142 57.9913 37.3557 58.2875 37.1161 58.5856C37.0619 58.6554 36.9782 58.6959 36.8898 58.695L36.8898 58.6874ZM90.5953 57.1782C90.5174 57.1784 90.443 57.1463 90.3897 57.0896C90.1218 56.8047 89.8483 56.5236 89.5767 56.2539C89.4657 56.1435 89.4653 55.964 89.5757 55.853C89.6861 55.7421 89.8656 55.7416 89.9766 55.8521C90.252 56.1275 90.5293 56.418 90.8009 56.7028C90.879 56.7845 90.9007 56.905 90.8558 57.0087C90.8109 57.1125 90.7083 57.1792 90.5953 57.1782H90.5953ZM39.0062 56.3859C38.8919 56.3858 38.7888 56.3169 38.745 56.2112C38.7013 56.1056 38.7254 55.9839 38.8063 55.903C39.0855 55.622 39.3722 55.3371 39.6551 55.0787C39.7287 55.0081 39.8345 54.9825 39.9322 55.0118C40.0298 55.041 40.1042 55.1204 40.1269 55.2198C40.1496 55.3192 40.1171 55.4231 40.0419 55.4918C39.7627 55.754 39.4759 56.0275 39.2062 56.3029C39.1525 56.3548 39.0809 56.3839 39.0062 56.3841L39.0062 56.3859ZM88.3468 54.99C88.2769 54.9901 88.2095 54.9639 88.1582 54.9164C87.8715 54.6599 87.5753 54.4033 87.2754 54.1619C87.1555 54.0613 87.1399 53.8827 87.2405 53.7629C87.341 53.6431 87.5196 53.6275 87.6394 53.728C87.9431 53.9808 88.245 54.243 88.5355 54.5033C88.5918 54.5533 88.6256 54.6238 88.6295 54.6989C88.6334 54.7741 88.607 54.8477 88.5562 54.9032C88.5018 54.9605 88.4257 54.992 88.3468 54.99ZM41.3134 54.2599C41.2298 54.2605 41.1503 54.2239 41.0965 54.16C40.996 54.04 41.0112 53.8614 41.1304 53.76C41.4304 53.5092 41.7378 53.2564 42.0472 53.0055C42.1702 52.9086 42.3483 52.9298 42.4452 53.0527C42.5421 53.1756 42.521 53.3538 42.3981 53.4507C42.0925 53.6903 41.7888 53.9374 41.4945 54.1864C41.4452 54.2322 41.3807 54.2584 41.3134 54.2599V54.2599ZM85.9304 52.9961C85.869 52.9968 85.8093 52.9769 85.7606 52.9395C85.4494 52.7075 85.1324 52.4773 84.8174 52.2566C84.7111 52.2107 84.6435 52.1048 84.6467 51.989C84.6499 51.8733 84.7233 51.7712 84.8319 51.7313C84.9406 51.6913 85.0626 51.7216 85.14 51.8077C85.4607 52.0321 85.7832 52.2661 86.1002 52.5019C86.2252 52.5956 86.2505 52.773 86.1567 52.898C86.1017 52.9662 86.0179 53.0046 85.9304 53.0017L85.9304 52.9961ZM43.794 52.351C43.7014 52.3517 43.6145 52.3065 43.5619 52.2303C43.5182 52.1692 43.5007 52.093 43.5135 52.019C43.5262 51.9449 43.5681 51.879 43.6298 51.836C43.9486 51.6115 44.2788 51.3889 44.6089 51.172C44.7393 51.0929 44.909 51.1315 44.9924 51.2592C45.0759 51.3869 45.0431 51.5578 44.9182 51.6455C44.5938 51.8587 44.2693 52.0794 43.9562 52.3001C43.9089 52.3347 43.8525 52.3544 43.794 52.3567V52.351ZM83.3422 51.2191C83.2895 51.2184 83.238 51.2035 83.1932 51.1757C82.865 50.972 82.5273 50.7702 82.1915 50.5759C82.0966 50.5293 82.0357 50.4336 82.0334 50.328C82.0311 50.2223 82.088 50.1241 82.1808 50.0735C82.2735 50.0229 82.3868 50.0282 82.4745 50.0873C82.8159 50.2759 83.1573 50.4891 83.4912 50.6947C83.5996 50.7609 83.6506 50.8913 83.6159 51.0135C83.5812 51.1357 83.4692 51.2198 83.3422 51.2191L83.3422 51.2191ZM46.4292 50.6532C46.3007 50.6542 46.1876 50.5685 46.1539 50.4444C46.1203 50.3203 46.1745 50.1892 46.2859 50.125C46.6235 49.9364 46.9706 49.7364 47.3177 49.5591C47.4543 49.4925 47.6191 49.5456 47.6911 49.6794C47.763 49.8132 47.7165 49.9799 47.5856 50.0571C47.2442 50.2458 46.9027 50.4344 46.5707 50.6231C46.5293 50.6533 46.4804 50.6716 46.4293 50.6759L46.4292 50.6532ZM80.6126 49.6968C80.5681 49.6969 80.5241 49.6865 80.4843 49.6666C80.1391 49.4912 79.7845 49.3195 79.4336 49.1554C79.2919 49.0892 79.2306 48.9208 79.2968 48.7791C79.3629 48.6374 79.5314 48.5761 79.6731 48.6422C80.0296 48.8082 80.388 48.9837 80.7408 49.161C80.8581 49.22 80.9194 49.352 80.8888 49.4797C80.8582 49.6074 80.7438 49.6972 80.6125 49.6967L80.6126 49.6968ZM49.2023 49.2214C49.0696 49.2212 48.955 49.1289 48.9265 48.9994C48.8979 48.8698 48.9632 48.7379 49.0834 48.6819C49.4381 48.5159 49.8021 48.3537 50.1606 48.199C50.3043 48.1375 50.4707 48.2043 50.5322 48.348C50.5936 48.4918 50.5269 48.6582 50.3831 48.7197C50.0304 48.8706 49.6739 49.0309 49.323 49.195C49.2841 49.2135 49.2415 49.2225 49.1985 49.2214H49.2023ZM77.7491 48.4121C77.7135 48.4116 77.6783 48.4046 77.6453 48.3914C77.285 48.248 76.9172 48.1065 76.5531 47.9745C76.4173 47.9149 76.3506 47.7606 76.4001 47.6208C76.4497 47.4811 76.5987 47.4033 76.7417 47.4425C77.119 47.5765 77.485 47.7198 77.8509 47.8651C77.9789 47.9143 78.0532 48.0482 78.0272 48.1829C78.0012 48.3175 77.8824 48.4141 77.7453 48.4121H77.7491ZM52.0941 48.0349C51.9565 48.0356 51.8382 47.9372 51.814 47.8017C51.7898 47.6662 51.8666 47.5329 51.996 47.4859C52.3639 47.3501 52.7393 47.2199 53.1147 47.0973C53.2631 47.0484 53.4232 47.129 53.4721 47.2775C53.5211 47.4259 53.4404 47.586 53.292 47.635C52.9147 47.7557 52.5525 47.884 52.1903 48.0122C52.156 48.0219 52.1202 48.0251 52.0847 48.0217L52.0941 48.0349ZM74.7949 47.3804C74.7675 47.3803 74.7402 47.3765 74.7138 47.369C74.3365 47.2559 73.9592 47.1502 73.5933 47.0502C73.4921 47.0277 73.4114 46.9517 73.3828 46.8522C73.3542 46.7526 73.3823 46.6453 73.4561 46.5726C73.5298 46.4999 73.6375 46.4732 73.7366 46.5032C74.1139 46.6051 74.4912 46.7126 74.8685 46.8258C75.004 46.8653 75.0897 46.9987 75.0692 47.1384C75.0488 47.2781 74.9285 47.3813 74.7873 47.3804L74.7949 47.3804ZM55.069 47.0766C54.9127 47.0969 54.7696 46.9867 54.7492 46.8305C54.7289 46.6742 54.8391 46.5311 54.9953 46.5107C55.3726 46.407 55.7631 46.3108 56.1441 46.2221C56.2425 46.1988 56.3459 46.2298 56.4153 46.3034C56.4846 46.377 56.5095 46.482 56.4804 46.5788C56.4513 46.6757 56.3727 46.7497 56.2743 46.7729C55.897 46.8597 55.5198 46.9616 55.1425 47.0559C55.1192 47.0665 55.0944 47.0735 55.069 47.0766ZM71.7466 46.5975H71.6881C71.3108 46.5183 70.9336 46.4447 70.545 46.3787C70.4438 46.3616 70.3595 46.2918 70.3238 46.1956C70.2882 46.0995 70.3065 45.9916 70.3719 45.9126C70.4374 45.8336 70.54 45.7956 70.6411 45.8128C71.0184 45.8807 71.4183 45.9543 71.8031 46.0354C71.9594 46.051 72.0734 46.1904 72.0578 46.3466C72.0422 46.5029 71.9028 46.6169 71.7466 46.6013L71.7466 46.5975ZM58.1268 46.3957C57.9705 46.4092 57.8329 46.2935 57.8193 46.1372C57.8058 45.9809 57.9215 45.8433 58.0777 45.8297C58.4682 45.7599 58.8625 45.6977 59.2473 45.6411C59.4036 45.6192 59.548 45.7281 59.5699 45.8844C59.5918 46.0406 59.4829 46.1851 59.3266 46.207C58.9494 46.2598 58.5608 46.3221 58.1759 46.3956C58.1596 46.3975 58.1431 46.3975 58.1268 46.3957H58.1268ZM68.6585 46.0956H68.6264C68.2491 46.0503 67.8511 46.0107 67.4663 45.9787C67.3651 45.9703 67.2762 45.9085 67.2329 45.8168C67.1897 45.725 67.1986 45.6171 67.2565 45.5338C67.3144 45.4504 67.4123 45.4043 67.5134 45.4127C67.9039 45.4448 68.3001 45.4844 68.6924 45.5316C68.8487 45.541 68.9677 45.6753 68.9583 45.8315C68.9489 45.9877 68.8147 46.1068 68.6585 46.0975L68.6585 46.0956ZM61.2318 45.9863C61.0756 45.993 60.9434 45.8718 60.9367 45.7156C60.9299 45.5594 61.051 45.4272 61.2073 45.4204C61.6015 45.3845 61.9977 45.3562 62.3882 45.3355C62.5444 45.3272 62.6779 45.4471 62.6862 45.6034C62.6946 45.7596 62.5746 45.8931 62.4183 45.9014C62.0411 45.9222 61.6449 45.9505 61.2563 45.9825L61.2318 45.9863ZM65.5366 45.8637H65.5215C65.1537 45.8523 64.7802 45.8467 64.4104 45.8467H64.3557C64.1994 45.8467 64.0728 45.72 64.0728 45.5637C64.0728 45.4074 64.1994 45.2808 64.3557 45.2808H64.4104C64.7877 45.2808 65.165 45.2808 65.5423 45.2996C65.6985 45.2996 65.8252 45.4263 65.8252 45.5826C65.8252 45.7389 65.6985 45.8655 65.5423 45.8655L65.5366 45.8637Z" fill="#F94F24"/>
<path fill-rule="evenodd" clip-rule="evenodd" d="M93.5608 86.0929C94.1512 82.6012 95.2057 77.9814 93.2589 74.7406C93.0118 74.3331 93.3212 73.9521 93.6834 73.8823C90.2045 69.971 84.898 68.2214 79.775 69.2965C75.6639 63.3627 68.4626 60.3813 61.3602 61.6729C54.2579 62.9644 48.5672 68.2902 46.8084 75.2914C42.5921 74.8504 38.4763 76.771 36.1061 80.2857C33.7358 83.8004 33.4975 88.336 35.4865 92.0797C37.4756 95.8234 41.3674 98.1647 45.6067 98.1677H82.7819C85.9265 98.1677 88.4184 97.3377 90.7519 95.0061C92.1136 92.1862 93.0597 89.184 93.5608 86.0929V86.0929Z" fill="#EBEBEB" style="mix-blend-mode:multiply"/>
<path fill-rule="evenodd" clip-rule="evenodd" d="M81.4427 67.5194C80.4324 67.5198 79.4248 67.6241 78.4358 67.8307C74.3247 61.8968 67.1233 58.9155 60.021 60.2071C52.9187 61.4986 47.228 66.8244 45.4691 73.8256C45.0705 73.7848 44.6701 73.7641 44.2694 73.7634C40.1364 73.7104 36.2946 75.885 34.2127 79.4556C32.1308 83.0263 32.1308 87.4409 34.2127 91.0116C36.2946 94.5823 40.1365 96.7568 44.2694 96.7038H81.4427C89.437 96.6129 95.8699 90.1065 95.8699 82.1116C95.8699 74.1167 89.437 67.6103 81.4427 67.5194V67.5194Z" fill="url(#paint2_linear)"/>
<path fill-rule="evenodd" clip-rule="evenodd" d="M44.2675 75.531C44.6689 75.5307 45.0699 75.5515 45.4691 75.5933C47.2271 68.5919 52.9176 63.2657 60.0198 61.9741C67.1221 60.6825 74.3234 63.6641 78.4339 69.5983C79.4235 69.3919 80.4317 69.2876 81.4427 69.287C89.1334 69.2879 95.5028 75.2586 96 82.9332C96.0189 82.6182 96.0339 82.2994 96.0339 81.9787C96.0339 73.9202 89.5012 67.3874 81.4427 67.3874C80.4317 67.388 79.4235 67.4923 78.4339 67.6987C74.324 61.7645 67.1233 58.7824 60.0212 60.0732C52.9191 61.3639 47.2282 66.689 45.4691 73.6899C42.2352 73.3462 39.0076 74.3927 36.5906 76.5686C34.1737 78.7445 32.795 81.8448 32.7982 85.0969C32.7982 85.4176 32.8152 85.7345 32.8416 86.0495C33.3352 80.1054 38.303 75.5321 44.2675 75.531L44.2675 75.531Z" fill="#C4ECEC"/>
<path fill-rule="evenodd" clip-rule="evenodd" d="M30.2138 82.4295C30.2142 83.1717 29.7668 83.8419 29.0804 84.1267C28.394 84.4114 27.6036 84.2546 27.0779 83.7293C26.5522 83.2041 26.3946 82.4139 26.6786 81.7272C26.9627 81.0405 27.6324 80.5925 28.3756 80.5922C28.863 80.5919 29.3306 80.7854 29.6753 81.13C30.0201 81.4746 30.2138 81.9421 30.2138 82.4295Z" fill="#EEEEEE"/>
<path fill-rule="evenodd" clip-rule="evenodd" d="M28.3765 84.5498C27.5189 84.5498 26.7457 84.0332 26.4176 83.2409C26.0894 82.4486 26.2708 81.5366 26.8772 80.9302C27.4836 80.3238 28.3956 80.1424 29.1879 80.4705C29.9802 80.7987 30.4968 81.5719 30.4968 82.4295C30.4958 83.5999 29.5471 84.5487 28.3766 84.5498H28.3765ZM28.3765 80.8751C27.7478 80.8751 27.181 81.2538 26.9404 81.8347C26.6998 82.4155 26.8328 83.0841 27.2773 83.5286C27.7219 83.9732 28.3905 84.1062 28.9713 83.8656C29.5521 83.625 29.9308 83.0582 29.9308 82.4295C29.9308 81.571 29.2349 80.8751 28.3765 80.8751Z" fill="#F94F24"/>
<path fill-rule="evenodd" clip-rule="evenodd" d="M38.5063 106.075C38.5063 108.488 36.5503 110.444 34.1374 110.444C31.7246 110.444 29.7686 108.488 29.7686 106.075C29.7686 103.663 31.7246 101.707 34.1374 101.707C36.5503 101.707 38.5063 103.663 38.5063 106.075Z" fill="#F2F2F2"/>
<path fill-rule="evenodd" clip-rule="evenodd" d="M110.795 95.257C110.796 97.0237 109.732 98.6176 108.099 99.2946C106.467 99.9716 104.587 99.5982 103.337 98.3487C102.087 97.0992 101.713 95.2196 102.39 93.5868C103.066 91.954 104.66 90.8895 106.427 90.89C107.586 90.8898 108.696 91.3498 109.516 92.1688C110.335 92.9878 110.795 94.0987 110.795 95.257L110.795 95.257Z" fill="#F2F2F2"/>
<path fill-rule="evenodd" clip-rule="evenodd" d="M96.7167 104.291C96.7158 106.866 94.6277 108.953 92.0526 108.952C89.4774 108.952 87.3902 106.864 87.3904 104.289C87.3906 101.714 89.4781 99.626 92.0533 99.6259C93.2904 99.6258 94.4769 100.117 95.3515 100.992C96.2261 101.867 96.7172 103.054 96.7167 104.291Z" fill="#EEEEEE"/>
<path fill-rule="evenodd" clip-rule="evenodd" d="M92.0536 109.237C90.0519 109.238 88.247 108.033 87.4807 106.184C86.7143 104.334 87.1375 102.206 88.5529 100.79C89.9683 99.375 92.0969 98.9518 93.9461 99.7181C95.7952 100.484 97.0004 102.289 96.9997 104.291C96.9966 107.021 94.7839 109.234 92.0535 109.237H92.0536ZM92.0535 99.9089C90.281 99.9082 88.6825 100.975 88.0037 102.613C87.3248 104.25 87.6993 106.135 88.9524 107.389C90.2055 108.643 92.0905 109.018 93.7282 108.34C95.3659 107.662 96.4338 106.064 96.4338 104.291C96.4306 101.873 94.4714 99.9139 92.0535 99.9108L92.0535 99.9089Z" fill="#F94F24"/>
<path fill-rule="evenodd" clip-rule="evenodd" d="M57.8853 88.5395C57.6231 88.54 57.3717 88.4353 57.1873 88.249L53.5447 84.6082C53.1598 84.2218 53.1598 83.5968 53.5447 83.2104L57.1854 79.5734C57.5709 79.1883 58.1957 79.1884 58.581 79.5738C58.9663 79.9591 58.9665 80.5838 58.5813 80.9694L55.6404 83.9103L58.5832 86.853C58.8651 87.1357 58.9493 87.5602 58.7966 87.929C58.644 88.2979 58.2844 88.5387 57.8853 88.5395L57.8853 88.5395Z" fill="#BBBBBB" style="mix-blend-mode:multiply"/>
<path fill-rule="evenodd" clip-rule="evenodd" d="M71.5806 88.5396C71.1814 88.5388 70.8219 88.2979 70.6692 87.9291C70.5165 87.5603 70.6007 87.1358 70.8826 86.8531L73.8216 83.9122L70.8788 80.9695C70.6293 80.7201 70.5317 80.3566 70.623 80.0158C70.7142 79.6751 70.9804 79.4089 71.3211 79.3177C71.6619 79.2264 72.0254 79.324 72.2748 79.5735L75.9174 83.2143C76.3023 83.6007 76.3023 84.2256 75.9174 84.6121L72.2766 88.2491C72.0927 88.435 71.8421 88.5396 71.5806 88.5396Z" fill="#BBBBBB" style="mix-blend-mode:multiply"/>
<path fill-rule="evenodd" clip-rule="evenodd" d="M66.5928 88.5395C66.2284 88.5402 65.8934 88.34 65.7213 88.0189L61.8183 80.7374C61.561 80.2566 61.7422 79.6582 62.223 79.4008C62.7038 79.1435 63.3021 79.3247 63.5595 79.8055L67.4624 87.0832C67.6272 87.3891 67.6189 87.7591 67.4406 88.0573C67.2623 88.3555 66.9403 88.538 66.5928 88.5376L66.5928 88.5395Z" fill="#BBBBBB" style="mix-blend-mode:multiply"/>
<path fill-rule="evenodd" clip-rule="evenodd" d="M57.2534 87.9076C56.9916 87.908 56.7404 87.8041 56.5554 87.619L52.9147 83.9763C52.7285 83.7918 52.6238 83.5405 52.6238 83.2784C52.6238 83.0162 52.7285 82.765 52.9147 82.5804L56.5535 78.9415C56.9435 78.581 57.5487 78.593 57.924 78.9688C58.2993 79.3446 58.3106 79.9499 57.9494 80.3394L55.0086 83.2784L57.9513 86.2211C58.2332 86.5038 58.3174 86.9283 58.1647 87.2971C58.0121 87.666 57.6526 87.9068 57.2534 87.9076Z" fill="#EEEEEE"/>
<path fill-rule="evenodd" clip-rule="evenodd" d="M70.9486 87.9076C70.5494 87.9068 70.1898 87.666 70.0372 87.2971C69.8845 86.9283 69.9687 86.5038 70.2506 86.2212L73.1915 83.2822L70.2487 80.3394C69.9827 80.0935 69.8726 79.7218 69.9616 79.3707C70.0506 79.0196 70.3246 78.7453 70.6756 78.6558C71.0265 78.5663 71.3984 78.6759 71.6446 78.9416L75.2873 82.5823C75.6722 82.9687 75.6722 83.5937 75.2873 83.9801L71.6465 87.619C71.4615 87.8041 71.2103 87.908 70.9486 87.9076Z" fill="#EEEEEE"/>
<path fill-rule="evenodd" clip-rule="evenodd" d="M65.961 87.9075C65.5968 87.9078 65.2619 87.7078 65.0895 87.3869L61.1828 80.1035C60.9249 79.6232 61.1052 79.0249 61.5855 78.767C62.0658 78.5092 62.6642 78.6895 62.922 79.1698L66.825 86.4494C66.9897 86.7553 66.9815 87.1253 66.8031 87.4235C66.6248 87.7217 66.3028 87.9041 65.9554 87.9038L65.961 87.9075Z" fill="#EEEEEE"/>
<path fill-rule="evenodd" clip-rule="evenodd" d="M102.985 84.5913L102.946 84.4027C111.188 82.595 117.43 75.8433 118.587 67.4853C119.745 59.1272 115.571 50.9333 108.131 46.9543C100.69 42.9753 91.5582 44.054 85.2494 49.6572L85.1249 49.5176C91.4936 43.8681 100.707 42.7838 108.214 46.8003C115.72 50.8168 119.93 59.084 118.763 67.5169C117.596 75.9499 111.3 82.7636 102.985 84.5913H102.985Z" fill="#F94F24"/>
<path fill-rule="evenodd" clip-rule="evenodd" d="M28.5066 92.069C23.2349 91.9952 19.0001 87.7007 19.0001 82.4286C19.0001 77.1564 23.2349 72.8619 28.5065 72.7881C30.6251 72.7813 32.6857 73.4794 34.3638 74.7726L34.2506 74.9235C32.6049 73.6554 30.5842 72.9705 28.5066 72.9768C23.3386 73.0498 19.1875 77.2601 19.1875 82.4286C19.1875 87.597 23.3386 91.8073 28.5066 91.8803C29.992 91.8838 31.4568 91.5326 32.7793 90.856L32.866 91.0258C31.5161 91.7142 30.0219 92.0718 28.5066 92.069Z" fill="#F94F24"/>
<defs>
<linearGradient id="paint0_linear" x1="169.135" y1="95.9714" x2="69.1476" y2="-27.6189" gradientUnits="userSpaceOnUse">
<stop stop-color="#EE7170"/>
<stop offset="1" stop-color="#8F3DDC"/>
</linearGradient>
<linearGradient id="paint1_linear" x1="48.8981" y1="17.1104" x2="-20.4811" y2="108.178" gradientUnits="userSpaceOnUse">
<stop stop-color="#EE7170"/>
<stop offset="1" stop-color="#8F3DDC"/>
</linearGradient>
<linearGradient id="paint2_linear" x1="131.309" y1="122.027" x2="127.062" y2="52.4988" gradientUnits="userSpaceOnUse">
<stop stop-color="#8033EB"/>
<stop offset="1" stop-color="#A2E1E0"/>
</linearGradient>
</defs>
</svg>
