<svg width="144" height="207" viewBox="0 0 144 207" fill="none" xmlns="http://www.w3.org/2000/svg">
<path d="M48.2192 133.2L47.8985 133.584L44.4443 130.697L44.7649 130.313L39.5836 125.982L39.2629 126.366L32.3544 120.591L32.6751 120.208L27.4937 115.877L27.1731 116.261L20.2646 110.486L20.5853 110.103L15.4039 105.772L15.0832 106.155L11.629 103.268L11.9497 102.885L11.629 103.268C10.6193 102.424 9.75812 101.447 9.0603 100.377L9.47912 100.104C8.4537 98.5317 7.79525 96.7503 7.55387 94.8956L7.05805 94.9602C6.89277 93.6903 6.91543 92.3873 7.14091 91.0917L7.90729 86.6881L8.39988 86.7738L9.54945 80.1684L9.05685 80.0827L10.5896 71.2754L11.0822 71.3611L12.2318 64.7557L11.7392 64.67L13.2719 55.8627L13.7645 55.9485L14.9141 49.343L14.4215 49.2573L15.1878 44.8537C15.4129 43.5606 15.8303 42.3303 16.4127 41.1957L16.8575 41.424C17.71 39.7634 18.9301 38.316 20.4249 37.1926L20.1245 36.7929C21.1429 36.0275 22.2836 35.4068 23.5193 34.9629L48.2192 133.2ZM48.2192 133.2L47.8985 133.584C48.91 134.429 50.0273 135.105 51.2084 135.604L51.4029 135.143C53.1351 135.875 55.01 136.21 56.8847 136.125L56.9075 136.624C58.1899 136.566 59.4724 136.317 60.7125 135.872L60.5434 135.401L60.7125 135.872L64.9331 134.355L64.764 133.885L71.0948 131.61L71.2639 132.081L79.7049 129.048L79.5359 128.577L85.8667 126.303L86.0357 126.773L94.4768 123.74L94.3077 123.27L100.639 120.995L100.808 121.466L105.028 119.949C106.264 119.505 107.405 118.884 108.423 118.119L108.123 117.719C109.617 116.596 110.838 115.149 111.69 113.488L112.135 113.716C112.717 112.582 113.135 111.351 113.36 110.058L114.126 105.655L113.634 105.569L114.783 98.9635L115.276 99.0492L116.808 90.242L116.316 90.1563L117.465 83.5508L117.958 83.6366L119.491 74.8293L118.998 74.7436L120.148 68.1382L120.64 68.2239L121.407 63.8203C121.632 62.5247 121.655 61.2217 121.49 59.9518L120.994 60.0163C120.752 58.1617 120.094 56.3801 119.069 54.8078L119.487 54.5347C118.79 53.4645 117.928 52.4877 116.918 51.6438L113.464 48.7566L113.144 49.1403L107.962 44.8095L108.283 44.4259L101.375 38.6515L101.054 39.0351L95.8728 34.7044L96.1935 34.3207L89.2852 28.5464L88.9645 28.93L83.7833 24.5993L84.1039 24.2156L80.6498 21.3285C79.6383 20.483 78.5211 19.807 77.34 19.3081L77.1455 19.7687C75.4133 19.037 73.5383 18.7013 71.6636 18.7871L71.6407 18.2876C70.3583 18.3463 69.0758 18.5947 67.8357 19.0404L63.6151 20.5568L63.7842 21.0273L57.4533 23.302L57.2842 22.8314L48.843 25.8643L49.0121 26.3349L42.6811 28.6095L42.5121 28.139L34.0708 31.1718L34.2399 31.6424L27.909 33.917L27.7399 33.4465L23.5194 34.9629L48.2192 133.2Z" fill="white" stroke="url(#paint0_linear)" stroke-dasharray="8 6"/>
<path fill-rule="evenodd" clip-rule="evenodd" d="M57.8936 17.2028C57.8936 8.09006 65.2809 0.702759 74.3936 0.702759C83.5062 0.702759 90.8936 8.09006 90.8936 17.2028C90.8936 26.3155 83.5062 33.7028 74.3936 33.7028C65.2809 33.7028 57.8936 26.3155 57.8936 17.2028Z" fill="white" stroke="#FA5A28" stroke-dasharray="5 3"/>
<path d="M74.4734 22.7028V19.2648H69.1814V18.7968L74.5274 11.2008H75.2474V18.5808H76.9574V19.2648H75.2474V22.7028H74.4734ZM70.1534 18.5808H74.4734V14.3688C74.4734 14.1048 74.4794 13.7748 74.4914 13.3788C74.5034 12.9828 74.5214 12.6528 74.5454 12.3888H74.4734C74.3294 12.6288 74.1794 12.8628 74.0234 13.0908C73.8674 13.3188 73.7054 13.5648 73.5374 13.8288L70.1534 18.5808ZM79.4867 22.9188C79.2827 22.9188 79.1027 22.8468 78.9467 22.7028C78.7907 22.5588 78.7127 22.3608 78.7127 22.1088C78.7127 21.8448 78.7907 21.6408 78.9467 21.4968C79.1027 21.3528 79.2827 21.2808 79.4867 21.2808C79.6907 21.2808 79.8647 21.3528 80.0087 21.4968C80.1647 21.6408 80.2427 21.8448 80.2427 22.1088C80.2427 22.3608 80.1647 22.5588 80.0087 22.7028C79.8647 22.8468 79.6907 22.9188 79.4867 22.9188Z" fill="black"/>
<path d="M6.75998 177V163.92H10.88C11.6 163.92 12.2666 163.987 12.88 164.12C13.5066 164.253 14.0466 164.48 14.5 164.8C14.9533 165.12 15.3066 165.54 15.56 166.06C15.8133 166.567 15.94 167.2 15.94 167.96C15.94 168.68 15.8133 169.307 15.56 169.84C15.3066 170.373 14.9533 170.82 14.5 171.18C14.06 171.527 13.5333 171.787 12.92 171.96C12.32 172.12 11.6666 172.2 10.96 172.2H9.07998V177H6.75998ZM9.07998 170.34H10.78C12.7 170.34 13.66 169.547 13.66 167.96C13.66 167.133 13.4066 166.567 12.9 166.26C12.4066 165.94 11.6733 165.78 10.7 165.78H9.07998V170.34ZM19.8189 177.24C18.9522 177.24 18.2522 176.98 17.7189 176.46C17.1855 175.927 16.9189 175.227 16.9189 174.36C16.9189 173.84 17.0255 173.38 17.2389 172.98C17.4655 172.567 17.8122 172.213 18.2789 171.92C18.7589 171.627 19.3589 171.38 20.0789 171.18C20.8122 170.98 21.6855 170.827 22.6989 170.72C22.6855 170.467 22.6455 170.227 22.5789 170C22.5255 169.76 22.4255 169.553 22.2789 169.38C22.1455 169.193 21.9655 169.053 21.7389 168.96C21.5122 168.853 21.2322 168.8 20.8989 168.8C20.4189 168.8 19.9455 168.893 19.4789 169.08C19.0255 169.267 18.5789 169.493 18.1389 169.76L17.2989 168.22C17.8455 167.873 18.4589 167.573 19.1389 167.32C19.8189 167.067 20.5522 166.94 21.3389 166.94C22.5655 166.94 23.4789 167.307 24.0789 168.04C24.6922 168.76 24.9989 169.807 24.9989 171.18V177H23.0989L22.9389 175.92H22.8589C22.4189 176.293 21.9455 176.607 21.4389 176.86C20.9455 177.113 20.4055 177.24 19.8189 177.24ZM20.5589 175.44C20.9589 175.44 21.3189 175.347 21.6389 175.16C21.9722 174.973 22.3255 174.707 22.6989 174.36V172.16C22.0322 172.24 21.4722 172.347 21.0189 172.48C20.5655 172.613 20.1989 172.767 19.9189 172.94C19.6389 173.1 19.4389 173.287 19.3189 173.5C19.1989 173.713 19.1389 173.94 19.1389 174.18C19.1389 174.62 19.2722 174.94 19.5389 175.14C19.8055 175.34 20.1455 175.44 20.5589 175.44ZM28.4114 181.04C28.1447 181.04 27.9114 181.02 27.7114 180.98C27.5114 180.953 27.318 180.907 27.1314 180.84L27.5514 179.04C27.6447 179.067 27.7514 179.093 27.8714 179.12C28.0047 179.16 28.1314 179.18 28.2514 179.18C28.7714 179.18 29.1847 179.02 29.4914 178.7C29.8114 178.393 30.0514 177.993 30.2114 177.5L30.3914 176.88L26.5314 167.18H28.8714L30.5714 172C30.718 172.427 30.858 172.88 30.9914 173.36C31.138 173.827 31.2847 174.293 31.4314 174.76H31.5114C31.6314 174.307 31.7514 173.847 31.8714 173.38C32.0047 172.9 32.1314 172.44 32.2514 172L33.7314 167.18H35.9514L32.3914 177.44C32.1914 178 31.9714 178.5 31.7314 178.94C31.4914 179.38 31.2114 179.753 30.8914 180.06C30.5847 180.38 30.2247 180.62 29.8114 180.78C29.4114 180.953 28.9447 181.04 28.4114 181.04ZM46.4176 177.24C45.9643 177.24 45.5043 177.133 45.0376 176.92C44.5843 176.693 44.151 176.373 43.7376 175.96H43.6776L43.4776 177H41.6576V162.88H43.9576V166.52L43.8976 168.16C44.311 167.8 44.7576 167.507 45.2376 167.28C45.731 167.053 46.231 166.94 46.7376 166.94C47.351 166.94 47.8976 167.06 48.3776 167.3C48.8576 167.527 49.2643 167.86 49.5976 168.3C49.931 168.727 50.1843 169.247 50.3576 169.86C50.531 170.473 50.6176 171.16 50.6176 171.92C50.6176 172.76 50.4976 173.513 50.2576 174.18C50.031 174.833 49.7243 175.387 49.3376 175.84C48.951 176.293 48.5043 176.64 47.9976 176.88C47.491 177.12 46.9643 177.24 46.4176 177.24ZM45.9376 175.34C46.591 175.34 47.1376 175.06 47.5776 174.5C48.0176 173.927 48.2376 173.08 48.2376 171.96C48.2376 170.973 48.071 170.207 47.7376 169.66C47.4043 169.113 46.8643 168.84 46.1176 168.84C45.4243 168.84 44.7043 169.207 43.9576 169.94V174.52C44.3043 174.827 44.6443 175.04 44.9776 175.16C45.3243 175.28 45.6443 175.34 45.9376 175.34ZM55.0728 177.24C54.2061 177.24 53.5061 176.98 52.9728 176.46C52.4395 175.927 52.1728 175.227 52.1728 174.36C52.1728 173.84 52.2795 173.38 52.4928 172.98C52.7195 172.567 53.0661 172.213 53.5328 171.92C54.0128 171.627 54.6128 171.38 55.3328 171.18C56.0661 170.98 56.9395 170.827 57.9528 170.72C57.9395 170.467 57.8995 170.227 57.8328 170C57.7795 169.76 57.6795 169.553 57.5328 169.38C57.3995 169.193 57.2195 169.053 56.9928 168.96C56.7661 168.853 56.4861 168.8 56.1528 168.8C55.6728 168.8 55.1995 168.893 54.7328 169.08C54.2795 169.267 53.8328 169.493 53.3928 169.76L52.5528 168.22C53.0995 167.873 53.7128 167.573 54.3928 167.32C55.0728 167.067 55.8061 166.94 56.5928 166.94C57.8195 166.94 58.7328 167.307 59.3328 168.04C59.9461 168.76 60.2528 169.807 60.2528 171.18V177H58.3528L58.1928 175.92H58.1128C57.6728 176.293 57.1995 176.607 56.6928 176.86C56.1995 177.113 55.6595 177.24 55.0728 177.24ZM55.8128 175.44C56.2128 175.44 56.5728 175.347 56.8928 175.16C57.2261 174.973 57.5795 174.707 57.9528 174.36V172.16C57.2861 172.24 56.7261 172.347 56.2728 172.48C55.8195 172.613 55.4528 172.767 55.1728 172.94C54.8928 173.1 54.6928 173.287 54.5728 173.5C54.4528 173.713 54.3928 173.94 54.3928 174.18C54.3928 174.62 54.5261 174.94 54.7928 175.14C55.0595 175.34 55.3995 175.44 55.8128 175.44ZM65.7453 177.24C65.0653 177.24 64.392 177.113 63.7253 176.86C63.072 176.593 62.5053 176.267 62.0253 175.88L63.1053 174.4C63.5453 174.747 63.9786 175.02 64.4053 175.22C64.8453 175.407 65.3186 175.5 65.8253 175.5C66.3586 175.5 66.752 175.393 67.0053 175.18C67.2586 174.953 67.3853 174.667 67.3853 174.32C67.3853 174.12 67.3253 173.947 67.2053 173.8C67.0853 173.64 66.9253 173.5 66.7253 173.38C66.5253 173.26 66.2986 173.153 66.0453 173.06C65.792 172.953 65.5386 172.847 65.2853 172.74C64.9653 172.62 64.6386 172.48 64.3053 172.32C63.972 172.16 63.672 171.967 63.4053 171.74C63.152 171.513 62.9386 171.253 62.7653 170.96C62.6053 170.653 62.5253 170.293 62.5253 169.88C62.5253 169.013 62.8453 168.307 63.4853 167.76C64.1253 167.213 64.9986 166.94 66.1053 166.94C66.7853 166.94 67.3986 167.06 67.9453 167.3C68.492 167.54 68.9653 167.813 69.3653 168.12L68.3053 169.52C67.9586 169.267 67.6053 169.067 67.2453 168.92C66.8986 168.76 66.532 168.68 66.1453 168.68C65.652 168.68 65.2853 168.787 65.0453 169C64.8186 169.2 64.7053 169.453 64.7053 169.76C64.7053 169.96 64.7586 170.133 64.8653 170.28C64.9853 170.413 65.1386 170.533 65.3253 170.64C65.512 170.747 65.7253 170.847 65.9653 170.94C66.2186 171.033 66.4786 171.127 66.7453 171.22C67.0786 171.34 67.412 171.48 67.7453 171.64C68.0786 171.787 68.3786 171.973 68.6453 172.2C68.9253 172.427 69.1453 172.707 69.3053 173.04C69.4786 173.36 69.5653 173.747 69.5653 174.2C69.5653 174.627 69.4786 175.027 69.3053 175.4C69.1453 175.76 68.9053 176.08 68.5853 176.36C68.2653 176.627 67.8653 176.84 67.3853 177C66.9053 177.16 66.3586 177.24 65.7453 177.24ZM75.8186 177.24C75.1386 177.24 74.5052 177.127 73.9186 176.9C73.3319 176.66 72.8186 176.32 72.3786 175.88C71.9386 175.44 71.5919 174.907 71.3386 174.28C71.0986 173.64 70.9786 172.913 70.9786 172.1C70.9786 171.3 71.1052 170.58 71.3586 169.94C71.6119 169.3 71.9452 168.76 72.3586 168.32C72.7852 167.88 73.2719 167.54 73.8186 167.3C74.3652 167.06 74.9252 166.94 75.4986 166.94C76.1652 166.94 76.7519 167.053 77.2586 167.28C77.7652 167.507 78.1852 167.827 78.5186 168.24C78.8652 168.653 79.1252 169.147 79.2986 169.72C79.4719 170.293 79.5586 170.92 79.5586 171.6C79.5586 171.827 79.5452 172.04 79.5186 172.24C79.5052 172.44 79.4852 172.6 79.4586 172.72H73.2186C73.3252 173.6 73.6319 174.28 74.1386 174.76C74.6586 175.227 75.3186 175.46 76.1186 175.46C76.5452 175.46 76.9386 175.4 77.2986 175.28C77.6719 175.147 78.0386 174.967 78.3986 174.74L79.1786 176.18C78.7119 176.487 78.1919 176.74 77.6186 176.94C77.0452 177.14 76.4452 177.24 75.8186 177.24ZM73.1986 171.16H77.5586C77.5586 170.4 77.3919 169.807 77.0586 169.38C76.7386 168.94 76.2386 168.72 75.5586 168.72C74.9719 168.72 74.4586 168.927 74.0186 169.34C73.5786 169.753 73.3052 170.36 73.1986 171.16ZM89.7792 177.24C89.1659 177.24 88.5792 177.127 88.0192 176.9C87.4592 176.673 86.9592 176.34 86.5192 175.9C86.0925 175.46 85.7525 174.92 85.4992 174.28C85.2459 173.64 85.1192 172.913 85.1192 172.1C85.1192 171.287 85.2459 170.56 85.4992 169.92C85.7525 169.28 86.0925 168.74 86.5192 168.3C86.9592 167.86 87.4592 167.527 88.0192 167.3C88.5792 167.06 89.1659 166.94 89.7792 166.94C90.3925 166.94 90.9792 167.06 91.5392 167.3C92.1125 167.527 92.6125 167.86 93.0392 168.3C93.4659 168.74 93.8059 169.28 94.0592 169.92C94.3259 170.56 94.4592 171.287 94.4592 172.1C94.4592 172.913 94.3259 173.64 94.0592 174.28C93.8059 174.92 93.4659 175.46 93.0392 175.9C92.6125 176.34 92.1125 176.673 91.5392 176.9C90.9792 177.127 90.3925 177.24 89.7792 177.24ZM89.7792 175.36C90.4992 175.36 91.0659 175.067 91.4792 174.48C91.8925 173.88 92.0992 173.087 92.0992 172.1C92.0992 171.1 91.8925 170.307 91.4792 169.72C91.0659 169.12 90.4992 168.82 89.7792 168.82C89.0592 168.82 88.4925 169.12 88.0792 169.72C87.6792 170.307 87.4792 171.1 87.4792 172.1C87.4792 173.087 87.6792 173.88 88.0792 174.48C88.4925 175.067 89.0592 175.36 89.7792 175.36ZM96.7358 177V167.18H98.6358L98.7958 168.5H98.8758C99.3158 168.073 99.7891 167.707 100.296 167.4C100.816 167.093 101.416 166.94 102.096 166.94C103.149 166.94 103.916 167.28 104.396 167.96C104.876 168.627 105.116 169.587 105.116 170.84V177H102.816V171.14C102.816 170.327 102.696 169.753 102.456 169.42C102.216 169.087 101.822 168.92 101.276 168.92C100.849 168.92 100.469 169.027 100.136 169.24C99.8158 169.44 99.4491 169.74 99.0358 170.14V177H96.7358ZM115.391 177.24C114.818 177.24 114.331 177.153 113.931 176.98C113.544 176.807 113.224 176.567 112.971 176.26C112.731 175.94 112.551 175.567 112.431 175.14C112.324 174.7 112.271 174.213 112.271 173.68V169H110.871V167.28L112.391 167.18L112.671 164.5H114.591V167.18H117.091V169H114.591V173.68C114.591 174.827 115.051 175.4 115.971 175.4C116.144 175.4 116.318 175.38 116.491 175.34C116.678 175.3 116.844 175.247 116.991 175.18L117.391 176.88C117.124 176.973 116.818 177.053 116.471 177.12C116.138 177.2 115.778 177.24 115.391 177.24ZM119.158 177V162.88H121.458V166.52L121.378 168.42C121.791 168.033 122.244 167.693 122.738 167.4C123.244 167.093 123.838 166.94 124.518 166.94C125.571 166.94 126.338 167.28 126.818 167.96C127.298 168.627 127.538 169.587 127.538 170.84V177H125.238V171.14C125.238 170.327 125.118 169.753 124.878 169.42C124.638 169.087 124.244 168.92 123.698 168.92C123.271 168.92 122.891 169.027 122.558 169.24C122.238 169.44 121.871 169.74 121.458 170.14V177H119.158ZM134.51 177.24C133.83 177.24 133.197 177.127 132.61 176.9C132.023 176.66 131.51 176.32 131.07 175.88C130.63 175.44 130.283 174.907 130.03 174.28C129.79 173.64 129.67 172.913 129.67 172.1C129.67 171.3 129.797 170.58 130.05 169.94C130.303 169.3 130.637 168.76 131.05 168.32C131.477 167.88 131.963 167.54 132.51 167.3C133.057 167.06 133.617 166.94 134.19 166.94C134.857 166.94 135.443 167.053 135.95 167.28C136.457 167.507 136.877 167.827 137.21 168.24C137.557 168.653 137.817 169.147 137.99 169.72C138.163 170.293 138.25 170.92 138.25 171.6C138.25 171.827 138.237 172.04 138.21 172.24C138.197 172.44 138.177 172.6 138.15 172.72H131.91C132.017 173.6 132.323 174.28 132.83 174.76C133.35 175.227 134.01 175.46 134.81 175.46C135.237 175.46 135.63 175.4 135.99 175.28C136.363 175.147 136.73 174.967 137.09 174.74L137.87 176.18C137.403 176.487 136.883 176.74 136.31 176.94C135.737 177.14 135.137 177.24 134.51 177.24ZM131.89 171.16H136.25C136.25 170.4 136.083 169.807 135.75 169.38C135.43 168.94 134.93 168.72 134.25 168.72C133.663 168.72 133.15 168.927 132.71 169.34C132.27 169.753 131.997 170.36 131.89 171.16ZM9.47998 202.24C8.42664 202.24 7.65998 201.907 7.17998 201.24C6.69998 200.56 6.45998 199.593 6.45998 198.34V192.18H8.75998V198.04C8.75998 198.853 8.87998 199.427 9.11998 199.76C9.35998 200.093 9.74664 200.26 10.28 200.26C10.7066 200.26 11.08 200.153 11.4 199.94C11.7333 199.727 12.0866 199.38 12.46 198.9V192.18H14.76V202H12.88L12.7 200.56H12.64C12.2133 201.067 11.7466 201.473 11.24 201.78C10.7466 202.087 10.16 202.24 9.47998 202.24ZM20.4133 202.24C19.7333 202.24 19.0599 202.113 18.3933 201.86C17.7399 201.593 17.1733 201.267 16.6933 200.88L17.7733 199.4C18.2133 199.747 18.6466 200.02 19.0733 200.22C19.5133 200.407 19.9866 200.5 20.4933 200.5C21.0266 200.5 21.4199 200.393 21.6733 200.18C21.9266 199.953 22.0533 199.667 22.0533 199.32C22.0533 199.12 21.9933 198.947 21.8733 198.8C21.7533 198.64 21.5933 198.5 21.3933 198.38C21.1933 198.26 20.9666 198.153 20.7133 198.06C20.4599 197.953 20.2066 197.847 19.9533 197.74C19.6333 197.62 19.3066 197.48 18.9733 197.32C18.6399 197.16 18.3399 196.967 18.0733 196.74C17.8199 196.513 17.6066 196.253 17.4333 195.96C17.2733 195.653 17.1933 195.293 17.1933 194.88C17.1933 194.013 17.5133 193.307 18.1533 192.76C18.7933 192.213 19.6666 191.94 20.7733 191.94C21.4533 191.94 22.0666 192.06 22.6133 192.3C23.1599 192.54 23.6333 192.813 24.0333 193.12L22.9733 194.52C22.6266 194.267 22.2733 194.067 21.9133 193.92C21.5666 193.76 21.1999 193.68 20.8133 193.68C20.3199 193.68 19.9533 193.787 19.7133 194C19.4866 194.2 19.3733 194.453 19.3733 194.76C19.3733 194.96 19.4266 195.133 19.5333 195.28C19.6533 195.413 19.8066 195.533 19.9933 195.64C20.1799 195.747 20.3933 195.847 20.6333 195.94C20.8866 196.033 21.1466 196.127 21.4133 196.22C21.7466 196.34 22.0799 196.48 22.4133 196.64C22.7466 196.787 23.0466 196.973 23.3133 197.2C23.5933 197.427 23.8133 197.707 23.9733 198.04C24.1466 198.36 24.2333 198.747 24.2333 199.2C24.2333 199.627 24.1466 200.027 23.9733 200.4C23.8133 200.76 23.5733 201.08 23.2533 201.36C22.9333 201.627 22.5333 201.84 22.0533 202C21.5733 202.16 21.0266 202.24 20.4133 202.24ZM28.6665 202.24C27.7999 202.24 27.0999 201.98 26.5665 201.46C26.0332 200.927 25.7665 200.227 25.7665 199.36C25.7665 198.84 25.8732 198.38 26.0865 197.98C26.3132 197.567 26.6599 197.213 27.1265 196.92C27.6065 196.627 28.2065 196.38 28.9265 196.18C29.6599 195.98 30.5332 195.827 31.5465 195.72C31.5332 195.467 31.4932 195.227 31.4265 195C31.3732 194.76 31.2732 194.553 31.1265 194.38C30.9932 194.193 30.8132 194.053 30.5865 193.96C30.3599 193.853 30.0799 193.8 29.7465 193.8C29.2665 193.8 28.7932 193.893 28.3265 194.08C27.8732 194.267 27.4265 194.493 26.9865 194.76L26.1465 193.22C26.6932 192.873 27.3065 192.573 27.9865 192.32C28.6665 192.067 29.3999 191.94 30.1865 191.94C31.4132 191.94 32.3265 192.307 32.9265 193.04C33.5399 193.76 33.8465 194.807 33.8465 196.18V202H31.9465L31.7865 200.92H31.7065C31.2665 201.293 30.7932 201.607 30.2865 201.86C29.7932 202.113 29.2532 202.24 28.6665 202.24ZM29.4065 200.44C29.8065 200.44 30.1665 200.347 30.4865 200.16C30.8199 199.973 31.1732 199.707 31.5465 199.36V197.16C30.8799 197.24 30.3199 197.347 29.8665 197.48C29.4132 197.613 29.0465 197.767 28.7665 197.94C28.4865 198.1 28.2865 198.287 28.1665 198.5C28.0465 198.713 27.9865 198.94 27.9865 199.18C27.9865 199.62 28.1199 199.94 28.3865 200.14C28.6532 200.34 28.9932 200.44 29.4065 200.44ZM40.019 206.34C39.4324 206.34 38.8857 206.287 38.379 206.18C37.8857 206.073 37.459 205.913 37.099 205.7C36.739 205.487 36.4524 205.22 36.239 204.9C36.039 204.58 35.939 204.207 35.939 203.78C35.939 203.367 36.059 202.98 36.299 202.62C36.539 202.273 36.8857 201.96 37.339 201.68V201.6C37.0857 201.44 36.8724 201.227 36.699 200.96C36.539 200.693 36.459 200.36 36.459 199.96C36.459 199.573 36.5657 199.227 36.779 198.92C37.0057 198.6 37.259 198.34 37.539 198.14V198.06C37.2057 197.807 36.9057 197.46 36.639 197.02C36.3857 196.567 36.259 196.047 36.259 195.46C36.259 194.9 36.3657 194.4 36.579 193.96C36.7924 193.52 37.0724 193.153 37.419 192.86C37.779 192.553 38.1924 192.327 38.659 192.18C39.1257 192.02 39.619 191.94 40.139 191.94C40.4057 191.94 40.659 191.967 40.899 192.02C41.1524 192.06 41.379 192.113 41.579 192.18H45.099V193.88H43.299C43.459 194.067 43.5924 194.307 43.699 194.6C43.8057 194.88 43.859 195.193 43.859 195.54C43.859 196.087 43.759 196.567 43.559 196.98C43.3724 197.393 43.1124 197.74 42.779 198.02C42.4457 198.3 42.0524 198.513 41.599 198.66C41.1457 198.807 40.659 198.88 40.139 198.88C39.9257 198.88 39.7057 198.86 39.479 198.82C39.2524 198.78 39.0257 198.713 38.799 198.62C38.6524 198.753 38.5324 198.887 38.439 199.02C38.359 199.153 38.319 199.333 38.319 199.56C38.319 199.84 38.4324 200.06 38.659 200.22C38.899 200.38 39.319 200.46 39.919 200.46H41.659C42.8457 200.46 43.739 200.653 44.339 201.04C44.9524 201.413 45.259 202.027 45.259 202.88C45.259 203.36 45.1324 203.813 44.879 204.24C44.639 204.667 44.2924 205.033 43.839 205.34C43.3857 205.647 42.8324 205.887 42.179 206.06C41.539 206.247 40.819 206.34 40.019 206.34ZM40.139 197.44C40.6057 197.44 41.0057 197.273 41.339 196.94C41.6724 196.593 41.839 196.1 41.839 195.46C41.839 194.847 41.6724 194.373 41.339 194.04C41.019 193.693 40.619 193.52 40.139 193.52C39.659 193.52 39.2524 193.687 38.919 194.02C38.5857 194.353 38.419 194.833 38.419 195.46C38.419 196.1 38.5857 196.593 38.919 196.94C39.2524 197.273 39.659 197.44 40.139 197.44ZM40.379 204.84C41.179 204.84 41.819 204.68 42.299 204.36C42.7924 204.053 43.039 203.687 43.039 203.26C43.039 202.873 42.8857 202.613 42.579 202.48C42.2857 202.347 41.859 202.28 41.299 202.28H39.959C39.4257 202.28 38.979 202.233 38.619 202.14C38.1124 202.527 37.859 202.96 37.859 203.44C37.859 203.88 38.079 204.22 38.519 204.46C38.9724 204.713 39.5924 204.84 40.379 204.84ZM50.8772 202.24C50.1972 202.24 49.5638 202.127 48.9772 201.9C48.3905 201.66 47.8772 201.32 47.4372 200.88C46.9972 200.44 46.6505 199.907 46.3972 199.28C46.1572 198.64 46.0372 197.913 46.0372 197.1C46.0372 196.3 46.1638 195.58 46.4172 194.94C46.6705 194.3 47.0038 193.76 47.4172 193.32C47.8438 192.88 48.3305 192.54 48.8772 192.3C49.4238 192.06 49.9838 191.94 50.5572 191.94C51.2238 191.94 51.8105 192.053 52.3172 192.28C52.8238 192.507 53.2438 192.827 53.5772 193.24C53.9238 193.653 54.1838 194.147 54.3572 194.72C54.5305 195.293 54.6172 195.92 54.6172 196.6C54.6172 196.827 54.6038 197.04 54.5772 197.24C54.5638 197.44 54.5438 197.6 54.5172 197.72H48.2772C48.3838 198.6 48.6905 199.28 49.1972 199.76C49.7172 200.227 50.3772 200.46 51.1772 200.46C51.6038 200.46 51.9972 200.4 52.3572 200.28C52.7305 200.147 53.0972 199.967 53.4572 199.74L54.2372 201.18C53.7705 201.487 53.2505 201.74 52.6772 201.94C52.1038 202.14 51.5038 202.24 50.8772 202.24ZM48.2572 196.16H52.6172C52.6172 195.4 52.4505 194.807 52.1172 194.38C51.7972 193.94 51.2972 193.72 50.6172 193.72C50.0305 193.72 49.5172 193.927 49.0772 194.34C48.6372 194.753 48.3638 195.36 48.2572 196.16Z" fill="#000E1A"/>
<rect x="25.8942" y="84.8887" width="30.287" height="18.8632" fill="#EEE8FA"/>
<path fill-rule="evenodd" clip-rule="evenodd" d="M104.815 103.752C104.816 107.398 102.62 110.687 99.2503 112.084C95.8807 113.481 92.0014 112.71 89.4218 110.131C86.8422 107.552 86.0702 103.673 87.466 100.303C88.8618 96.933 92.1503 94.7357 95.7979 94.736C98.1893 94.7356 100.483 95.6854 102.174 97.3762C103.865 99.067 104.815 101.36 104.815 103.752Z" fill="#F2F2F2"/>
<rect x="7.58777" y="56.4805" width="36.6147" height="11.4938" rx="5.74691" fill="#F2F2F2"/>
<path fill-rule="evenodd" clip-rule="evenodd" d="M76.6392 82.8384C76.6352 84.8946 74.9663 86.5589 72.9101 86.5572C70.8539 86.5556 69.1876 84.8886 69.1869 82.8324C69.1862 80.7761 70.8512 79.108 72.9074 79.1049C73.8979 79.1034 74.8483 79.4963 75.5485 80.1968C76.2487 80.8974 76.6412 81.8479 76.6392 82.8384Z" fill="#F2F2F2"/>
<path fill-rule="evenodd" clip-rule="evenodd" d="M25.8923 104.122C25.7137 104.127 25.5578 104.002 25.5224 103.827C25.487 103.652 25.5823 103.476 25.7485 103.411C25.8628 103.363 37.3935 98.4327 50.2535 89.0297C57.7981 83.5132 64.3194 77.558 69.6312 71.3298C76.2686 63.5567 81.0217 55.3373 83.7763 46.9004C83.8399 46.7064 84.0487 46.6008 84.2427 46.6644C84.4367 46.728 84.5424 46.9369 84.4787 47.1309C81.6947 55.6636 76.8862 63.9697 70.188 71.8166C64.8411 78.0853 58.2701 84.0829 50.6757 89.6344C37.7493 99.0835 26.1541 104.041 26.0361 104.091C25.9908 104.111 25.9419 104.122 25.8923 104.122Z" fill="#F94F24"/>
<path fill-rule="evenodd" clip-rule="evenodd" d="M86.0791 104.122C86.029 104.123 85.9795 104.113 85.9334 104.093C85.8191 104.043 74.3179 99.0836 61.4892 89.6344C53.9521 84.083 47.4308 78.089 42.1171 71.8185C35.4594 63.9697 30.6713 55.6637 27.8872 47.1327C27.8236 46.9383 27.9297 46.7291 28.1242 46.6654C28.3187 46.6018 28.5279 46.7079 28.5915 46.9023C31.3442 55.3429 36.0863 63.5641 42.6813 71.3391C47.9636 77.5673 54.4425 83.5207 61.9336 89.039C74.6959 98.442 86.116 103.363 86.2303 103.42C86.3942 103.487 86.4871 103.662 86.4515 103.835C86.4159 104.009 86.2618 104.133 86.0846 104.13L86.0791 104.122Z" fill="#BFA9EB"/>
<path fill-rule="evenodd" clip-rule="evenodd" d="M7.54163 47.8407H8.70687C9.40933 47.8407 9.87211 48.2094 9.87211 48.8271C9.87211 49.4982 9.31899 49.8448 8.64971 49.8448H7.89378V50.9511H7.54163V47.8407ZM8.66263 49.5332C9.17888 49.5332 9.51628 49.2585 9.51628 48.8492V48.84C9.51628 48.3956 9.18257 48.1652 8.68107 48.1652H7.8938V49.5332L8.66263 49.5332Z" fill="#6731CF"/>
<path fill-rule="evenodd" clip-rule="evenodd" d="M10.5118 47.8406H11.8485C12.1729 47.8226 12.4912 47.934 12.7335 48.1504C12.8919 48.315 12.9781 48.536 12.9732 48.7644C12.9732 49.2806 12.6174 49.5811 12.1288 49.6715L13.0838 50.9418H12.6543L11.7508 49.7323H10.8621V50.9418H10.5118V47.8406ZM11.8172 49.4262C12.2837 49.4262 12.6174 49.1865 12.6174 48.7864C12.6174 48.4048 12.3243 48.1743 11.8228 48.1743H10.8622V49.4207L11.8172 49.4262Z" fill="#6731CF"/>
<path fill-rule="evenodd" clip-rule="evenodd" d="M13.755 47.8407H14.255V50.9511H13.755V47.8407Z" fill="#6731CF"/>
<path fill-rule="evenodd" clip-rule="evenodd" d="M14.8796 49.4042C14.8687 48.9806 15.0297 48.5706 15.326 48.2677C15.6223 47.9648 16.0286 47.7948 16.4523 47.7965C16.9086 47.7821 17.3498 47.9608 17.6674 48.2887L17.4258 48.5469C17.1723 48.2768 16.819 48.1228 16.4487 48.121C16.1179 48.1246 15.8027 48.2626 15.5757 48.5032C15.3486 48.7438 15.2292 49.0664 15.2447 49.3968C15.2277 49.7291 15.3462 50.054 15.5731 50.2973C15.8001 50.5406 16.116 50.6814 16.4487 50.6874C16.8319 50.6869 17.197 50.5241 17.4535 50.2394L17.684 50.4662C17.3703 50.8242 16.9153 51.0264 16.4394 51.0193C16.0152 51.0222 15.6083 50.8511 15.3135 50.5459C15.0188 50.2407 14.862 49.8281 14.8796 49.4042Z" fill="#6731CF"/>
<path fill-rule="evenodd" clip-rule="evenodd" d="M18.298 47.8407H20.5455V48.1597H18.6483V49.2217H20.3464V49.5425H18.6483V50.6321H20.5676V50.9511H18.298V47.8407Z" fill="#6731CF"/>
<path fill-rule="evenodd" clip-rule="evenodd" d="M28.6855 112.628C28.2056 112.999 27.5564 113.065 27.0116 112.798C26.4668 112.531 26.1214 111.977 26.1209 111.37V111.361C26.1124 110.935 26.2767 110.523 26.5765 110.22C26.8762 109.917 27.2858 109.748 27.7121 109.751C28.1365 109.746 28.545 109.913 28.8435 110.215C29.1419 110.517 29.3045 110.927 29.294 111.352C29.298 111.732 29.1674 112.102 28.9252 112.395L29.3382 112.738L29.0986 113L28.6855 112.628ZM28.4275 112.401L27.8504 111.907L28.0864 111.645L28.6598 112.165C28.8365 111.934 28.9318 111.652 28.9308 111.361V111.352C28.9454 111.016 28.8227 110.689 28.5911 110.446C28.3595 110.202 28.0389 110.063 27.7029 110.061C27.3702 110.062 27.0523 110.199 26.8227 110.44C26.593 110.681 26.4715 111.005 26.486 111.337C26.4715 111.672 26.5939 111.999 26.8251 112.243C27.0563 112.486 27.3764 112.625 27.7121 112.628C27.969 112.632 28.2203 112.553 28.4275 112.401H28.4275Z" fill="#6731CF"/>
<path fill-rule="evenodd" clip-rule="evenodd" d="M29.9872 111.604V109.796H30.3393V111.582C30.3393 112.253 30.6933 112.631 31.2889 112.631C31.8844 112.631 32.2273 112.285 32.2273 111.604V109.796H32.5795V111.579C32.5795 112.486 32.0595 112.956 31.2889 112.956C30.5182 112.956 29.9872 112.486 29.9872 111.604Z" fill="#6731CF"/>
<path fill-rule="evenodd" clip-rule="evenodd" d="M34.449 109.773H34.779L36.1968 112.908H35.8189L35.4501 112.085H33.7576L33.3888 112.908H33.0293L34.449 109.773ZM35.3155 111.768L34.6094 110.183L33.8977 111.768H35.3155Z" fill="#6731CF"/>
<path fill-rule="evenodd" clip-rule="evenodd" d="M36.8091 109.796H37.1391L39.099 112.292V109.796H39.4401V112.908H39.1672L37.152 110.356V112.908H36.8091L36.8091 109.796Z" fill="#6731CF"/>
<path fill-rule="evenodd" clip-rule="evenodd" d="M41.1418 110.12H40.0983V109.796H42.5431V110.12H41.4977V112.908H41.1418V110.12Z" fill="#6731CF"/>
<path fill-rule="evenodd" clip-rule="evenodd" d="M43.2234 109.796H43.7234V112.908H43.2234V109.796Z" fill="#6731CF"/>
<path fill-rule="evenodd" clip-rule="evenodd" d="M45.316 110.12H44.2706V109.796H46.7154V110.12H45.6719V112.908H45.316V110.12Z" fill="#6731CF"/>
<path fill-rule="evenodd" clip-rule="evenodd" d="M48.3471 111.676L47.0565 109.796H47.4824L48.5315 111.352L49.5898 109.796H49.9991L48.7085 111.671V112.908H48.3545L48.3471 111.676Z" fill="#6731CF"/>
<path fill-rule="evenodd" clip-rule="evenodd" d="M101.865 104.235H25.8922C25.6255 104.235 25.4092 104.019 25.4092 103.752V44.5681C25.4092 44.3014 25.6255 44.0851 25.8922 44.0851C26.159 44.0851 26.3753 44.3014 26.3753 44.5681V103.269H101.865C102.131 103.269 102.347 103.485 102.347 103.752C102.347 104.018 102.131 104.234 101.865 104.235Z" fill="#6731CF"/>
<path fill-rule="evenodd" clip-rule="evenodd" d="M62.3521 64.6168C62.3504 68.1523 59.4854 71.0145 55.9531 71.0128C52.4207 71.011 49.5586 68.1461 49.5603 64.6137C49.562 61.0814 52.427 58.2192 55.9593 58.2209C59.4905 58.2227 62.3521 61.0857 62.3521 64.6169V64.6168Z" fill="#F2F2F2" style="mix-blend-mode:multiply"/>
<path fill-rule="evenodd" clip-rule="evenodd" d="M60.9232 64.6169C60.9232 67.3662 58.6944 69.5949 55.9451 69.5949C53.1958 69.5949 50.967 67.3662 50.967 64.6169C50.967 61.8676 53.1958 59.6388 55.9451 59.6388C58.6944 59.6388 60.9232 61.8676 60.9232 64.6169Z" fill="url(#paint1_linear)"/>
<path fill-rule="evenodd" clip-rule="evenodd" d="M56.3139 66.3334C56.18 66.333 56.0515 66.2801 55.9562 66.1859L54.9496 65.1774C54.7525 64.9808 54.7521 64.6618 54.9486 64.4648C55.1452 64.2677 55.4642 64.2673 55.6612 64.4638L56.3139 65.1147L58.1152 63.3134C58.3149 63.1329 58.6209 63.1407 58.8112 63.3309C59.0014 63.5212 59.0092 63.8272 58.8288 64.0269L56.6698 66.1859C56.5754 66.2803 56.4474 66.3334 56.3139 66.3334Z" fill="#BBBBBB" style="mix-blend-mode:multiply"/>
<path fill-rule="evenodd" clip-rule="evenodd" d="M56.0225 66.0438C55.8889 66.0444 55.7606 65.9913 55.6666 65.8963L54.6544 64.8897C54.474 64.69 54.4817 64.384 54.672 64.1937C54.8623 64.0035 55.1683 63.9957 55.3679 64.1761L56.0188 64.827L57.8201 63.0238C58.0197 62.8434 58.3258 62.8511 58.516 63.0414C58.7063 63.2317 58.714 63.5377 58.5336 63.7373L56.3765 65.8963C56.2827 65.9905 56.1553 66.0435 56.0225 66.0438Z" fill="#F2F2F2"/>
<path fill-rule="evenodd" clip-rule="evenodd" d="M56.4228 72.6242C56.2972 72.6177 56.1976 72.516 56.1937 72.3904C56.1899 72.2647 56.2831 72.1571 56.408 72.143C56.7329 72.1229 57.0562 72.0822 57.376 72.0213C57.5073 71.9963 57.634 72.0826 57.659 72.2139C57.6839 72.3453 57.5977 72.472 57.4663 72.4969C57.1259 72.5615 56.7816 72.604 56.4357 72.6242H56.4228ZM54.7485 72.5448H54.7098C54.368 72.4907 54.0299 72.4149 53.6976 72.3181C53.6095 72.2988 53.5395 72.232 53.516 72.1449C53.4926 72.0578 53.5196 71.9649 53.5861 71.904C53.6526 71.8431 53.7475 71.8243 53.8322 71.8553C54.1451 71.9462 54.4635 72.017 54.7854 72.0673C54.9079 72.0888 54.994 72.1998 54.9845 72.3237C54.975 72.4477 54.8729 72.5442 54.7486 72.5467L54.7485 72.5448ZM59.0242 72.0101C58.9101 72.0097 58.8119 71.9294 58.7887 71.8176C58.7656 71.7059 58.8238 71.5931 58.9284 71.5474C59.2272 71.4191 59.5173 71.2713 59.7968 71.1049C59.871 71.0576 59.9651 71.0544 60.0424 71.0966C60.1196 71.1388 60.1678 71.2197 60.1681 71.3077C60.1684 71.3957 60.1208 71.477 60.0438 71.5197C59.7475 71.697 59.4395 71.8541 59.1219 71.9899C59.0915 72.0044 59.058 72.0113 59.0242 72.0101V72.0101ZM52.2171 71.682C52.1765 71.6823 52.1365 71.6721 52.101 71.6525C51.797 71.4879 51.5044 71.3031 51.2252 71.0994C51.148 71.0517 51.104 70.9647 51.1114 70.8743C51.1188 70.7838 51.1762 70.7052 51.2601 70.6706C51.344 70.636 51.4402 70.6513 51.5091 70.7103C51.7717 70.9032 52.0471 71.0782 52.3333 71.2339C52.4498 71.2986 52.4919 71.4455 52.4273 71.5621C52.3846 71.6377 52.3039 71.6837 52.2171 71.682L52.2171 71.682ZM61.2606 70.5481C61.1622 70.5472 61.0741 70.4866 61.038 70.395C61.002 70.3035 61.0251 70.1991 61.0965 70.1314C61.3346 69.9087 61.5581 69.671 61.7658 69.4197C61.8545 69.3337 61.9938 69.3285 62.0887 69.4077C62.1836 69.4869 62.2033 69.6249 62.1345 69.7276C61.9141 69.9949 61.6764 70.2475 61.4228 70.4835C61.379 70.525 61.3209 70.5481 61.2606 70.548L61.2606 70.5481ZM50.1282 70.0115C50.0579 70.0124 49.9907 69.9828 49.9438 69.9304C49.7148 69.6711 49.5024 69.3977 49.3077 69.1118C49.2329 69.0013 49.2618 68.8511 49.3722 68.7762C49.4827 68.7014 49.633 68.7303 49.7078 68.8408C49.89 69.1104 50.0895 69.3678 50.3052 69.6114C50.3476 69.659 50.3694 69.7216 50.3656 69.7853C50.3618 69.8489 50.3327 69.9085 50.2849 69.9507C50.242 69.9897 50.1862 70.0113 50.1282 70.0115V70.0115ZM62.8758 68.4112C62.8373 68.4108 62.7994 68.4014 62.7652 68.3836C62.6474 68.3222 62.6013 68.1772 62.662 68.0591C62.8116 67.7701 62.9415 67.4713 63.051 67.1649C63.0958 67.0391 63.2341 66.9736 63.3598 67.0184C63.4855 67.0632 63.5511 67.2014 63.5064 67.3271C63.389 67.6536 63.2504 67.972 63.0915 68.2803C63.05 68.361 62.9666 68.4116 62.8758 68.4112H62.8758ZM48.7269 67.7308C48.6274 67.7314 48.5379 67.6705 48.502 67.5778C48.3735 67.2563 48.2664 66.9268 48.1812 66.5914C48.1481 66.4621 48.2262 66.3305 48.3554 66.2974C48.4847 66.2643 48.6163 66.3423 48.6495 66.4715C48.7293 66.7851 48.8297 67.093 48.95 67.3934C48.9992 67.5171 48.939 67.6573 48.8154 67.7068C48.788 67.7221 48.758 67.7321 48.7269 67.7363V67.7308ZM63.6723 65.8577H63.6409C63.5774 65.8494 63.5197 65.8162 63.4806 65.7653C63.4415 65.7145 63.4242 65.6502 63.4326 65.5866C63.4739 65.2638 63.4948 64.9386 63.4953 64.6131C63.4953 64.4454 63.4953 64.2757 63.4787 64.1098C63.4676 64.0208 63.5068 63.933 63.5804 63.8818C63.654 63.8306 63.7499 63.8243 63.8295 63.8656C63.9091 63.9068 63.9593 63.9888 63.9599 64.0785C63.971 64.2628 63.9765 64.4361 63.9765 64.6131C63.9765 64.9622 63.9542 65.3083 63.9098 65.6519C63.8954 65.7722 63.7935 65.8629 63.6723 65.8632V65.8577ZM48.1849 65.1202C48.0546 65.1212 47.9474 65.0181 47.9434 64.8879C47.9434 64.7975 47.9434 64.7035 47.9434 64.6187C47.9434 64.3624 47.9544 64.1024 47.9784 63.8498C47.984 63.7858 48.015 63.7267 48.0646 63.6858C48.1142 63.6449 48.1781 63.6256 48.242 63.6323C48.3059 63.6383 48.3647 63.6695 48.4055 63.719C48.4463 63.7685 48.4658 63.8321 48.4596 63.8959C48.4375 64.1338 48.4246 64.3771 48.4246 64.6187C48.4246 64.7035 48.4246 64.7883 48.4246 64.8713C48.4277 65.0043 48.3234 65.1152 48.1904 65.1202H48.1849ZM63.4289 62.6956C63.3184 62.6945 63.2227 62.6186 63.1966 62.5112C63.1063 62.197 62.9955 61.889 62.8647 61.5894C62.8184 61.5082 62.8231 61.4076 62.8767 61.3311C62.9304 61.2546 63.0233 61.2158 63.1154 61.2316C63.2075 61.2475 63.2822 61.315 63.3072 61.405C63.4462 61.7227 63.5645 62.0491 63.6612 62.3822C63.6789 62.4438 63.6713 62.5099 63.6402 62.5659C63.609 62.6219 63.5569 62.6633 63.4953 62.6809C63.4739 62.6885 63.4516 62.6935 63.4289 62.6956ZM48.5499 62.478C48.5249 62.478 48.5001 62.4742 48.4762 62.467C48.3494 62.4256 48.2795 62.29 48.3194 62.1628C48.4265 61.8328 48.5546 61.5101 48.7029 61.1966C48.7656 61.0871 48.9021 61.0443 49.0161 61.0984C49.1301 61.1525 49.1833 61.2853 49.1381 61.4031C48.9994 61.6975 48.8799 62.0005 48.7804 62.3102C48.7457 62.4075 48.6531 62.4719 48.5499 62.4707L48.5499 62.478ZM62.2526 60.2951C62.1752 60.2954 62.1024 60.2584 62.0572 60.1956C61.8647 59.9331 61.6566 59.6826 61.434 59.4452C61.3699 59.3835 61.3449 59.2916 61.369 59.206C61.393 59.1203 61.4621 59.0548 61.5489 59.0355C61.6357 59.0161 61.7261 59.046 61.7843 59.1133C62.0218 59.3654 62.2435 59.632 62.448 59.9116C62.5254 60.0198 62.5016 60.1701 62.3946 60.249C62.3525 60.2766 62.3028 60.2902 62.2526 60.2877L62.2526 60.2951ZM49.7982 60.1106C49.7445 60.111 49.6924 60.0927 49.6507 60.059C49.5999 60.0203 49.5666 59.9629 49.5583 59.8995C49.55 59.8362 49.5673 59.7721 49.6065 59.7216C49.8187 59.4477 50.0478 59.1872 50.2923 58.9417C50.387 58.8475 50.5401 58.8479 50.6343 58.9426C50.7285 59.0373 50.7281 59.1904 50.6335 59.2846C50.4032 59.5168 50.1877 59.7631 49.9882 60.0221C49.9424 60.0804 49.8723 60.1144 49.7982 60.1143V60.1106ZM60.3332 58.4311C60.2844 58.4315 60.2367 58.4167 60.1968 58.3887C59.9273 58.2057 59.6465 58.04 59.356 57.8927C59.2744 57.8563 59.2195 57.7779 59.2133 57.6888C59.2072 57.5996 59.2507 57.5143 59.3266 57.4671C59.4024 57.4198 59.4981 57.4183 59.5754 57.4631C59.8845 57.6195 60.1832 57.7956 60.4697 57.9904C60.5569 58.0503 60.595 58.1599 60.5637 58.261C60.5324 58.362 60.439 58.431 60.3332 58.4311L60.3332 58.4311ZM51.7709 58.3057C51.6639 58.3056 51.5698 58.2351 51.5395 58.1325C51.5093 58.0298 51.5502 57.9195 51.64 57.8614C51.9317 57.6746 52.2354 57.507 52.549 57.3599C52.6682 57.3108 52.805 57.364 52.8597 57.4808C52.9144 57.5976 52.8677 57.7367 52.7537 57.7969C52.4591 57.9347 52.1739 58.0917 51.9 58.267C51.861 58.2901 51.8162 58.3016 51.7709 58.3002L51.7709 58.3057ZM57.8959 57.3286C57.8763 57.3312 57.8565 57.3312 57.8369 57.3286C57.5217 57.2462 57.2014 57.1846 56.8782 57.1442C56.7458 57.1279 56.6517 57.0074 56.668 56.875C56.6852 56.7432 56.8051 56.6496 56.9371 56.6648C57.2805 56.7053 57.621 56.7669 57.9567 56.8492C58.0752 56.8792 58.1526 56.9928 58.1371 57.114C58.1216 57.2352 58.0181 57.3257 57.8959 57.3249L57.8959 57.3286ZM54.236 57.2751C54.1243 57.2762 54.0269 57.1995 54.0018 57.0907C53.9876 57.0278 53.999 56.9619 54.0337 56.9075C54.0683 56.8531 54.1232 56.8149 54.1862 56.8012C54.5242 56.7258 54.8666 56.6716 55.2113 56.639C55.3435 56.6293 55.4595 56.7265 55.4731 56.8584C55.4793 56.922 55.4598 56.9854 55.4189 57.0346C55.378 57.0838 55.3192 57.1146 55.2556 57.1202C54.9311 57.1499 54.609 57.201 54.2913 57.2732C54.2728 57.274 54.2542 57.2728 54.236 57.2695L54.236 57.2751Z" fill="#F94F24"/>
<path fill-rule="evenodd" clip-rule="evenodd" d="M56.2147 81.71C55.9386 81.71 55.7147 81.6019 55.7147 81.4685V80.4599C55.7153 80.3267 55.939 80.2189 56.2147 80.2189C56.4905 80.2189 56.7142 80.3267 56.7147 80.4599V81.4685C56.7147 81.6019 56.4909 81.71 56.2147 81.71ZM56.2147 79.0219C55.9386 79.0219 55.7147 78.9137 55.7147 78.7803V77.7718C55.7153 77.6386 55.939 77.5308 56.2147 77.5308C56.4905 77.5308 56.7142 77.6386 56.7147 77.7718V78.7803C56.7147 78.9137 56.4909 79.0219 56.2147 79.0219L56.2147 79.0219ZM56.2147 76.3336C55.9386 76.3336 55.7147 76.2255 55.7147 76.0921V75.0854C55.7153 74.9522 55.9389 74.8444 56.2147 74.8444C56.4904 74.8444 56.7141 74.9522 56.7146 75.0854V76.0921C56.7177 76.1571 56.6664 76.22 56.5723 76.2665C56.4782 76.313 56.3493 76.3392 56.2147 76.3392V76.3336ZM56.2147 73.6455C55.9386 73.6455 55.7147 73.5374 55.7147 73.404V72.3973C55.7153 72.2641 55.939 72.1562 56.2147 72.1562C56.4905 72.1562 56.7142 72.2641 56.7147 72.3973V73.404C56.7147 73.5374 56.4909 73.6455 56.2147 73.6455L56.2147 73.6455Z" fill="#F94F24"/>
<path fill-rule="evenodd" clip-rule="evenodd" d="M79.5282 95.4053H80.3874C81.1654 95.4053 81.7038 95.9381 81.7038 96.6369C81.7038 97.3357 81.1654 97.8759 80.3874 97.8759H79.5282V95.4053ZM80.3874 97.6178C80.6559 97.637 80.92 97.5424 81.1154 97.3573C81.3107 97.1721 81.4192 96.9134 81.4144 96.6443C81.4191 96.3748 81.3107 96.1156 81.1156 95.9295C80.9205 95.7435 80.6564 95.6477 80.3874 95.6653H79.8066V97.6252L80.3874 97.6178Z" fill="#BFA9EB"/>
<path fill-rule="evenodd" clip-rule="evenodd" d="M82.2958 95.4053H84.086V95.6597H82.576V96.506H83.9275V96.7604H82.576V97.627H84.1045V97.8814H82.2958V95.4053Z" fill="#BFA9EB"/>
<path fill-rule="evenodd" clip-rule="evenodd" d="M84.6668 95.4053H84.9507L85.8523 96.7567L86.7557 95.4053H87.0396V97.8814H86.7594V95.8828L85.856 97.2103H85.8431L84.9396 95.8865V97.8888H84.6667L84.6668 95.4053Z" fill="#BFA9EB"/>
<path fill-rule="evenodd" clip-rule="evenodd" d="M88.6567 95.3868H88.9185L90.0542 97.8814H89.7519L89.4624 97.2269H88.1146L87.8196 97.8814H87.5283L88.6567 95.3868ZM89.3463 96.9762L88.7932 95.7133L88.2106 96.9762H89.3463Z" fill="#BFA9EB"/>
<path fill-rule="evenodd" clip-rule="evenodd" d="M90.5371 95.4053H90.7915L92.3513 97.3891V95.4053H92.6353V97.8814H92.4122L90.8137 95.8533V97.8814H90.5408L90.5371 95.4053Z" fill="#BFA9EB"/>
<path fill-rule="evenodd" clip-rule="evenodd" d="M93.3341 95.4053H94.1933C94.9713 95.4053 95.5097 95.9381 95.5097 96.6369C95.5097 97.3357 94.9713 97.8759 94.1933 97.8759H93.3341V95.4053ZM94.1933 97.6178C94.4618 97.637 94.7259 97.5424 94.9213 97.3573C95.1166 97.1721 95.2251 96.9134 95.2203 96.6443C95.225 96.3748 95.1166 96.1156 94.9215 95.9295C94.7264 95.7435 94.4623 95.6477 94.1933 95.6653H93.6125V97.6252L94.1933 97.6178Z" fill="#BFA9EB"/>
<path fill-rule="evenodd" clip-rule="evenodd" d="M79.4176 63.5179C79.4086 63.1802 79.5369 62.8533 79.7732 62.6118C80.0094 62.3703 80.3335 62.2349 80.6713 62.2365C81.0343 62.2257 81.385 62.3683 81.6374 62.6293L81.4531 62.8357C81.2517 62.6199 80.9703 62.4965 80.675 62.4947C80.4114 62.4974 80.1602 62.6071 79.9791 62.7987C79.7979 62.9902 79.7024 63.2472 79.7144 63.5106C79.7025 63.7746 79.7978 64.0323 79.9787 64.225C80.1596 64.4177 80.4107 64.5291 80.675 64.5338C80.9799 64.5336 81.2703 64.4035 81.4734 64.1761L81.6577 64.3605C81.4073 64.6435 81.0455 64.8025 80.6677 64.7956C80.33 64.7999 80.0053 64.6657 79.7692 64.4243C79.533 64.1829 79.406 63.8554 79.4176 63.5179Z" fill="#F94F24"/>
<path fill-rule="evenodd" clip-rule="evenodd" d="M81.9602 63.5179C81.96 63.0666 82.2007 62.6495 82.5916 62.4238C82.9824 62.1981 83.4639 62.1981 83.8548 62.4238C84.2456 62.6495 84.4863 63.0666 84.4861 63.5179C84.4863 63.9692 84.2456 64.3863 83.8548 64.612C83.4639 64.8377 82.9824 64.8377 82.5916 64.612C82.2007 64.3863 81.96 63.9692 81.9602 63.5179ZM84.1967 63.5179C84.2067 63.2516 84.1084 62.9925 83.9243 62.7998C83.7403 62.607 83.486 62.4969 83.2195 62.4946C82.9544 62.4954 82.7011 62.6042 82.5181 62.7959C82.3351 62.9876 82.2381 63.2457 82.2497 63.5105C82.2382 63.7788 82.3365 64.0401 82.5219 64.2343C82.7074 64.4284 82.9639 64.5386 83.2324 64.5393C83.4975 64.5371 83.7503 64.4269 83.9323 64.2341C84.1143 64.0414 84.2098 63.7827 84.1967 63.5179Z" fill="#F94F24"/>
<path fill-rule="evenodd" clip-rule="evenodd" d="M84.8917 64.3882L85.065 64.1836C85.2899 64.4095 85.5962 64.5358 85.915 64.5339C86.2469 64.5339 86.4681 64.3495 86.4681 64.1117C86.4681 63.8812 86.3427 63.7429 85.8228 63.6397C85.2531 63.5161 84.9913 63.3318 84.9913 62.9243C84.9913 62.5334 85.3342 62.2476 85.8062 62.2476C86.1237 62.2393 86.4333 62.3475 86.6764 62.5519L86.5123 62.7676C86.3151 62.5941 86.0615 62.4984 85.7988 62.4984C85.4762 62.4984 85.2715 62.6828 85.2715 62.8985C85.2715 63.1326 85.3987 63.2672 85.9426 63.3797C86.4865 63.4922 86.7502 63.7023 86.7502 64.0803C86.7502 64.5044 86.3962 64.7809 85.9039 64.7809C85.5285 64.7857 85.1657 64.645 84.8917 64.3882H84.8917Z" fill="#F94F24"/>
<path fill-rule="evenodd" clip-rule="evenodd" d="M87.9283 62.5297H87.1041V62.2716H89.0493V62.5297H88.2104V64.7422H87.9283V62.5297Z" fill="#F94F24"/>
<path fill-rule="evenodd" clip-rule="evenodd" d="M95.7991 106.984H95.1741C95.0877 106.984 95.0078 106.937 94.9646 106.859C94.9213 106.782 94.9213 106.687 94.9646 106.609C95.0078 106.532 95.0877 106.484 95.1741 106.484H95.7991C95.8855 106.484 95.9654 106.532 96.0087 106.609C96.0519 106.687 96.0519 106.782 96.0087 106.859C95.9654 106.937 95.8855 106.984 95.7991 106.984ZM93.4944 106.984H92.4878C92.3545 106.984 92.2467 106.872 92.2467 106.734C92.2467 106.596 92.3545 106.485 92.4878 106.484H93.4944C93.5808 106.484 93.6608 106.532 93.704 106.609C93.7472 106.687 93.7472 106.782 93.704 106.859C93.6607 106.937 93.5808 106.984 93.4944 106.984H93.4944ZM90.8082 106.984H89.7997C89.6664 106.984 89.5586 106.872 89.5586 106.734C89.5586 106.596 89.6664 106.485 89.7997 106.484H90.8082C90.9414 106.485 91.0492 106.596 91.0492 106.734C91.0492 106.872 90.9414 106.984 90.8082 106.984ZM88.1201 106.984H87.1042C87.0178 106.984 86.9379 106.937 86.8946 106.859C86.8514 106.782 86.8514 106.687 86.8946 106.609C86.9379 106.532 87.0178 106.484 87.1042 106.484H88.1127C88.1991 106.484 88.279 106.532 88.3222 106.609C88.3655 106.687 88.3655 106.782 88.3222 106.859C88.279 106.937 88.1991 106.984 88.1127 106.984H88.1201ZM85.4317 106.984H84.4232C84.29 106.984 84.1821 106.872 84.1821 106.734C84.1821 106.596 84.29 106.485 84.4232 106.484H85.4317C85.5181 106.484 85.598 106.532 85.6413 106.609C85.6845 106.687 85.6845 106.782 85.6413 106.859C85.598 106.937 85.5181 106.984 85.4317 106.984ZM82.7437 106.984H81.737C81.6506 106.984 81.5707 106.937 81.5274 106.859C81.4842 106.782 81.4842 106.687 81.5274 106.609C81.5707 106.532 81.6506 106.484 81.737 106.484H82.7437C82.8769 106.485 82.9847 106.596 82.9847 106.734C82.9847 106.872 82.8769 106.984 82.7437 106.984ZM80.0556 106.984H79.0489C78.9625 106.984 78.8826 106.937 78.8393 106.859C78.7961 106.782 78.7961 106.687 78.8393 106.609C78.8826 106.532 78.9625 106.484 79.0489 106.484H80.0556C80.142 106.484 80.2219 106.532 80.2651 106.609C80.3084 106.687 80.3084 106.782 80.2651 106.859C80.2219 106.937 80.142 106.984 80.0556 106.984ZM77.3692 106.984H76.3607C76.2275 106.984 76.1196 106.872 76.1196 106.734C76.1196 106.596 76.2275 106.485 76.3607 106.484H77.3692C77.5024 106.485 77.6103 106.596 77.6103 106.734C77.6103 106.872 77.5024 106.984 77.3692 106.984ZM74.681 106.984H73.6725C73.5392 106.984 73.4314 106.872 73.4314 106.734C73.4314 106.596 73.5392 106.485 73.6725 106.484H74.681C74.8142 106.485 74.922 106.596 74.922 106.734C74.922 106.872 74.8142 106.984 74.681 106.984ZM71.9929 106.984H70.9843C70.8511 106.984 70.7433 106.872 70.7433 106.734C70.7433 106.596 70.8511 106.485 70.9843 106.484H71.9855C72.1187 106.485 72.2266 106.596 72.2266 106.734C72.2266 106.872 72.1187 106.984 71.9855 106.984H71.9929ZM69.3047 106.984H68.2981C68.1649 106.984 68.057 106.872 68.057 106.734C68.057 106.596 68.1649 106.485 68.2981 106.484H69.3047C69.438 106.485 69.5458 106.596 69.5458 106.734C69.5458 106.872 69.438 106.984 69.3047 106.984H69.3047ZM66.6184 106.984H65.6098C65.4766 106.984 65.3688 106.872 65.3688 106.734C65.3688 106.596 65.4766 106.485 65.6098 106.484H66.6184C66.7516 106.485 66.8594 106.596 66.8594 106.734C66.8594 106.872 66.7516 106.984 66.6184 106.984ZM63.9302 106.984H62.9217C62.7885 106.984 62.6807 106.872 62.6807 106.734C62.6807 106.596 62.7885 106.485 62.9217 106.484H63.9302C64.0635 106.485 64.1713 106.596 64.1713 106.734C64.1713 106.872 64.0635 106.984 63.9302 106.984ZM61.2421 106.984H60.2336C60.1004 106.984 59.9925 106.872 59.9925 106.734C59.9925 106.596 60.1004 106.485 60.2336 106.484H61.2421C61.3753 106.485 61.4832 106.596 61.4832 106.734C61.4832 106.872 61.3754 106.984 61.2421 106.984ZM58.5539 106.984H57.5472C57.414 106.984 57.3061 106.872 57.3061 106.734C57.3061 106.596 57.414 106.485 57.5472 106.484H58.5539C58.6871 106.485 58.795 106.596 58.795 106.734C58.795 106.872 58.6871 106.984 58.5539 106.984ZM55.8658 106.984H54.8591C54.7259 106.984 54.618 106.872 54.618 106.734C54.618 106.596 54.7259 106.485 54.8591 106.484H55.8658C55.999 106.485 56.1068 106.596 56.1068 106.734C56.1068 106.872 55.999 106.984 55.8658 106.984ZM53.1795 106.984H52.1709C52.0845 106.984 52.0046 106.937 51.9614 106.859C51.9181 106.782 51.9181 106.687 51.9614 106.609C52.0046 106.532 52.0845 106.484 52.1709 106.484H53.1795C53.3127 106.485 53.4205 106.596 53.4205 106.734C53.4205 106.872 53.3127 106.984 53.1795 106.984H53.1795ZM50.4913 106.984H49.492C49.3588 106.984 49.251 106.872 49.251 106.734C49.251 106.596 49.3588 106.485 49.492 106.484H50.5006C50.6338 106.485 50.7416 106.596 50.7416 106.734C50.7416 106.872 50.6338 106.984 50.5006 106.984H50.4913ZM47.8032 106.984H46.7947C46.6614 106.984 46.5536 106.872 46.5536 106.734C46.5536 106.596 46.6614 106.485 46.7947 106.484H47.8032C47.9364 106.485 48.0442 106.596 48.0442 106.734C48.0442 106.872 47.9364 106.984 47.8032 106.984ZM45.1149 106.984H44.1083C43.975 106.984 43.8672 106.872 43.8672 106.734C43.8672 106.596 43.975 106.485 44.1083 106.484H45.1149C45.2481 106.485 45.356 106.596 45.356 106.734C45.356 106.872 45.2481 106.984 45.1149 106.984H45.1149ZM42.4268 106.984H41.4201C41.2869 106.984 41.1791 106.872 41.1791 106.734C41.1791 106.596 41.2869 106.485 41.4201 106.484H42.4268C42.56 106.485 42.6679 106.596 42.6679 106.734C42.6679 106.872 42.56 106.984 42.4268 106.984ZM39.7406 106.984H38.732C38.5988 106.984 38.491 106.872 38.491 106.734C38.491 106.596 38.5988 106.485 38.732 106.484H39.7406C39.8738 106.485 39.9816 106.596 39.9816 106.734C39.9816 106.872 39.8738 106.984 39.7406 106.984ZM37.0523 106.984H36.0438C35.9106 106.984 35.8027 106.872 35.8027 106.734C35.8027 106.596 35.9106 106.485 36.0438 106.484H37.0523C37.1855 106.485 37.2934 106.596 37.2934 106.734C37.2934 106.872 37.1855 106.984 37.0523 106.984ZM34.3642 106.984H33.3557C33.2225 106.984 33.1146 106.872 33.1146 106.734C33.1146 106.596 33.2225 106.485 33.3557 106.484H34.3734C34.5066 106.485 34.6145 106.596 34.6145 106.734C34.6145 106.872 34.5066 106.984 34.3734 106.984H34.3642ZM31.676 106.984H30.6693C30.5361 106.984 30.4282 106.872 30.4282 106.734C30.4282 106.596 30.5361 106.485 30.6693 106.484H31.676C31.8092 106.485 31.917 106.596 31.917 106.734C31.917 106.872 31.8092 106.984 31.676 106.984ZM28.9897 106.984H27.9812C27.848 106.984 27.7401 106.872 27.7401 106.734C27.7401 106.596 27.848 106.485 27.9812 106.484H28.9897C29.1229 106.485 29.2308 106.596 29.2308 106.734C29.2308 106.872 29.1229 106.984 28.9897 106.984ZM26.3016 106.984H25.2931C25.1599 106.984 25.052 106.872 25.052 106.734C25.052 106.596 25.1599 106.485 25.2931 106.484H26.3016C26.4348 106.485 26.5427 106.596 26.5427 106.734C26.5427 106.872 26.4348 106.984 26.3016 106.984ZM23.6134 106.967H22.9423V106.147C22.9425 106.014 23.0506 105.906 23.1838 105.906C23.317 105.906 23.4251 106.014 23.4253 106.147V106.484H23.6097C23.7429 106.484 23.8508 106.593 23.8508 106.726C23.8508 106.859 23.7429 106.967 23.6097 106.967L23.6134 106.967ZM23.1904 104.709C23.0524 104.709 22.9404 104.601 22.9404 104.467V103.461C22.9407 103.327 23.0525 103.219 23.1904 103.219C23.3283 103.219 23.4402 103.327 23.4404 103.461V104.467C23.4409 104.531 23.4148 104.593 23.3678 104.639C23.3208 104.684 23.2569 104.709 23.1904 104.709H23.1904ZM23.1904 102.022C23.0538 102.021 22.9433 101.915 22.9423 101.783V100.774C22.9425 100.641 23.0544 100.533 23.1923 100.533C23.3301 100.533 23.442 100.641 23.4423 100.774V101.783C23.4418 101.847 23.4149 101.908 23.3677 101.953C23.3204 101.998 23.2567 102.023 23.1904 102.022H23.1904ZM23.1904 99.3343C23.0524 99.3343 22.9404 99.2261 22.9404 99.0927V98.0842C22.9407 97.951 23.0525 97.8431 23.1904 97.8431C23.3283 97.8431 23.4402 97.951 23.4404 98.0842V99.0927C23.4404 99.1568 23.4141 99.2182 23.3672 99.2635C23.3203 99.3088 23.2567 99.3343 23.1904 99.3343H23.1904ZM23.1904 96.6461C23.0524 96.6461 22.9404 96.538 22.9404 96.4046V95.3961C22.9407 95.2629 23.0525 95.155 23.1904 95.155C23.3283 95.155 23.4402 95.2629 23.4404 95.3961V96.4046C23.4404 96.4687 23.4141 96.5301 23.3672 96.5754C23.3203 96.6207 23.2567 96.6461 23.1904 96.6461H23.1904ZM23.1904 93.9579C23.0524 93.9579 22.9404 93.8498 22.9404 93.7164V92.7097C22.9407 92.5765 23.0525 92.4686 23.1904 92.4686C23.3283 92.4686 23.4402 92.5765 23.4404 92.7097V93.7164C23.4409 93.7806 23.4148 93.8423 23.3678 93.8877C23.3208 93.9331 23.2569 93.9584 23.1904 93.9579L23.1904 93.9579ZM23.1904 91.2698C23.0523 91.2698 22.9404 91.1616 22.9404 91.0283V90.0216C22.9407 89.8884 23.0525 89.7805 23.1904 89.7805C23.3283 89.7805 23.4401 89.8884 23.4404 90.0216V91.0283C23.4419 91.0931 23.4162 91.1558 23.3691 91.202C23.322 91.2482 23.2575 91.274 23.1904 91.2735L23.1904 91.2698ZM23.1904 88.5835C23.053 88.5825 22.9423 88.4747 22.9423 88.342V87.3335C22.9425 87.2003 23.0544 87.0924 23.1923 87.0924C23.3301 87.0924 23.442 87.2003 23.4423 87.3335V88.342C23.4423 88.4064 23.4157 88.4681 23.3684 88.5134C23.3211 88.5588 23.257 88.584 23.1903 88.5835L23.1904 88.5835ZM23.1904 85.8953C23.0524 85.8953 22.9404 85.7872 22.9404 85.6538V84.6452C22.9407 84.512 23.0525 84.4042 23.1904 84.4042C23.3283 84.4042 23.4402 84.512 23.4404 84.6452V85.6538C23.4404 85.7873 23.3284 85.8953 23.1903 85.8953L23.1904 85.8953ZM23.1904 83.2072C23.0524 83.2072 22.9404 83.099 22.9404 82.9657V81.9571C22.9407 81.8239 23.0525 81.7161 23.1904 81.7161C23.3283 81.7161 23.4402 81.8239 23.4404 81.9571V82.9657C23.4404 83.0991 23.3284 83.2072 23.1903 83.2072L23.1904 83.2072ZM23.1904 80.519C23.0524 80.519 22.9404 80.4108 22.9404 80.2774V79.2707C22.9407 79.1375 23.0525 79.0297 23.1904 79.0297C23.3283 79.0297 23.4402 79.1375 23.4404 79.2707V80.2774C23.4409 80.3416 23.4148 80.4033 23.3678 80.4487C23.3208 80.4941 23.2569 80.5194 23.1904 80.5189L23.1904 80.519ZM23.1904 77.8327C23.0524 77.8327 22.9404 77.7245 22.9404 77.5911V76.5826C22.9407 76.4494 23.0525 76.3416 23.1904 76.3416C23.3283 76.3416 23.4402 76.4494 23.4404 76.5826V77.5911C23.4404 77.7246 23.3284 77.8327 23.1903 77.8327L23.1904 77.8327ZM23.1904 75.1446C23.0524 75.1446 22.9404 75.0364 22.9404 74.903V73.8945C22.9407 73.7613 23.0525 73.6534 23.1904 73.6534C23.3283 73.6534 23.4402 73.7613 23.4404 73.8945V74.903C23.4404 75.0365 23.3284 75.1446 23.1903 75.1445L23.1904 75.1446ZM23.1904 72.4563C23.0524 72.4563 22.9404 72.3482 22.9404 72.2148V71.2063C22.9407 71.0731 23.0525 70.9652 23.1904 70.9652C23.3283 70.9652 23.4402 71.0731 23.4404 71.2063V72.2148C23.4404 72.3483 23.3284 72.4564 23.1903 72.4563L23.1904 72.4563ZM23.1904 69.7682C23.0524 69.7682 22.9404 69.66 22.9404 69.5266V68.5199C22.9403 68.4335 22.9879 68.3536 23.0653 68.3104C23.1427 68.2671 23.2381 68.2671 23.3156 68.3104C23.393 68.3536 23.4406 68.4335 23.4404 68.5199V69.5266C23.4409 69.5908 23.4148 69.6525 23.3678 69.698C23.3208 69.7434 23.2569 69.7686 23.1904 69.7681L23.1904 69.7682ZM23.1904 67.08C23.0524 67.08 22.9404 66.9719 22.9404 66.8385V65.8299C22.9407 65.6967 23.0525 65.5889 23.1904 65.5889C23.3283 65.5889 23.4401 65.6967 23.4404 65.8299V66.8366C23.4414 66.9011 23.4155 66.9633 23.3684 67.0091C23.3214 67.055 23.2572 67.0805 23.1904 67.08L23.1904 67.08ZM23.1904 64.3937C23.053 64.3927 22.9422 64.2849 22.9423 64.1522V63.1437C22.9425 63.0104 23.0544 62.9026 23.1923 62.9026C23.3301 62.9026 23.442 63.0104 23.4423 63.1437V64.1522C23.4423 64.2166 23.4157 64.2783 23.3684 64.3236C23.3211 64.369 23.257 64.3942 23.1903 64.3937L23.1904 64.3937ZM23.1904 61.7055C23.0524 61.7055 22.9404 61.5974 22.9404 61.464V60.4555C22.9403 60.3691 22.9879 60.2892 23.0653 60.2459C23.1427 60.2027 23.2381 60.2027 23.3156 60.2459C23.393 60.2892 23.4406 60.3691 23.4404 60.4555V61.464C23.4404 61.5974 23.3285 61.7055 23.1904 61.7055L23.1904 61.7055ZM23.1904 59.0174C23.0524 59.0174 22.9404 58.9092 22.9404 58.7758V57.7673C22.9407 57.6341 23.0525 57.5262 23.1904 57.5262C23.3283 57.5262 23.4402 57.6341 23.4404 57.7673V58.7758C23.4404 58.9092 23.3285 59.0174 23.1904 59.0174L23.1904 59.0174ZM23.1904 56.3292C23.0524 56.3292 22.9404 56.2211 22.9404 56.0877V55.081C22.9407 54.9478 23.0525 54.84 23.1904 54.84C23.3283 54.84 23.4402 54.9478 23.4404 55.081V56.0877C23.4409 56.1519 23.4148 56.2136 23.3678 56.259C23.3208 56.3044 23.2569 56.3297 23.1904 56.3292L23.1904 56.3292ZM23.1904 53.641C23.0531 53.641 22.9415 53.534 22.9404 53.4013V52.3928C22.9407 52.2596 23.0525 52.1517 23.1904 52.1517C23.3283 52.1517 23.4402 52.2596 23.4404 52.3928V53.4013C23.4404 53.4652 23.414 53.5265 23.3671 53.5715C23.3201 53.6165 23.2565 53.6415 23.1904 53.641L23.1904 53.641ZM23.1904 50.9548C23.1241 50.9543 23.0607 50.9284 23.0141 50.8827C22.9676 50.8371 22.9418 50.7754 22.9423 50.7114V49.7029C22.9425 49.5696 23.0544 49.4618 23.1923 49.4618C23.3301 49.4618 23.442 49.5696 23.4423 49.7029V50.7114C23.4428 50.7761 23.4164 50.8383 23.369 50.884C23.3217 50.9298 23.2573 50.9553 23.1904 50.9548L23.1904 50.9548ZM23.1904 48.2666C23.053 48.2656 22.9423 48.1577 22.9423 48.025V47.0239C22.9425 46.8907 23.0544 46.7828 23.1923 46.7828C23.3301 46.7828 23.442 46.8907 23.4423 47.0239V48.0324C23.4381 48.1636 23.3262 48.2676 23.1904 48.2666L23.1904 48.2666Z" fill="url(#paint2_linear)"/>
<path fill-rule="evenodd" clip-rule="evenodd" d="M58.2147 85.025C58.2155 85.9102 57.6829 86.7088 56.8651 87.0482C56.0474 87.3876 55.1058 87.2009 54.4795 86.5752C53.8531 85.9494 53.6655 85.008 54.0041 84.1899C54.3426 83.3719 55.1407 82.8384 56.0261 82.8384C56.6063 82.8379 57.163 83.068 57.5736 83.4781C57.9841 83.8883 58.2147 84.4448 58.2147 85.025H58.2147Z" fill="#EEEEEE"/>
<path fill-rule="evenodd" clip-rule="evenodd" d="M56.0262 87.4551C55.0433 87.4551 54.1572 86.8631 53.7811 85.955C53.405 85.047 53.6129 84.0018 54.3079 83.3068C55.0029 82.6118 56.0481 82.4039 56.9561 82.78C57.8642 83.1561 58.4562 84.0422 58.4562 85.0251C58.4553 86.3666 57.368 87.454 56.0263 87.4551H56.0262ZM56.0261 83.08C55.2385 83.08 54.5284 83.5545 54.2272 84.2823C53.9259 85.0101 54.0929 85.8476 54.6501 86.4043C55.2073 86.961 56.045 87.1271 56.7725 86.8252C57.5 86.5232 57.9739 85.8127 57.9731 85.0251C57.9721 83.9505 57.1006 83.0799 56.0261 83.08H56.0261Z" fill="#F94F24"/>
<path fill-rule="evenodd" clip-rule="evenodd" d="M104.192 106.562C103.055 106.562 102.03 105.878 101.595 104.828C101.159 103.778 101.399 102.57 102.203 101.766C103.006 100.962 104.215 100.721 105.265 101.156C106.315 101.59 107 102.615 107 103.752C106.998 105.302 105.742 106.559 104.192 106.562H104.192ZM104.192 101.908C103.174 101.908 102.348 102.734 102.348 103.752C102.348 104.77 103.174 105.596 104.192 105.596C105.21 105.596 106.036 104.77 106.036 103.752C106.036 102.734 105.21 101.908 104.192 101.908V101.908Z" fill="#6731CF"/>
<path fill-rule="evenodd" clip-rule="evenodd" d="M25.8185 45.0438C24.2672 45.0438 23.0093 43.7865 23.0087 42.2351C23.008 40.6838 24.2647 39.4254 25.8161 39.4241C27.3674 39.4227 28.6263 40.6789 28.6284 42.2302C28.6284 43.7827 27.3709 45.0417 25.8185 45.0438L25.8185 45.0438ZM25.8185 40.3902C24.8002 40.3902 23.9747 41.2156 23.9747 42.2339C23.9747 43.2522 24.8002 44.0776 25.8185 44.0776C26.8367 44.0776 27.6622 43.2522 27.6622 42.2339C27.6632 41.7442 27.4693 41.2743 27.1234 40.9277C26.7775 40.5812 26.308 40.3865 25.8184 40.3865L25.8185 40.3902Z" fill="#6731CF"/>
<defs>
<linearGradient id="paint0_linear" x1="169.651" y1="96.0367" x2="71.8365" y2="-29.2798" gradientUnits="userSpaceOnUse">
<stop stop-color="#EE7170"/>
<stop offset="1" stop-color="#8F3DDC"/>
</linearGradient>
<linearGradient id="paint1_linear" x1="58.6867" y1="71.034" x2="67.6676" y2="61.819" gradientUnits="userSpaceOnUse">
<stop stop-color="#8033EB"/>
<stop offset="0.53" stop-color="#D4648E"/>
<stop offset="1" stop-color="#EC7071"/>
</linearGradient>
<linearGradient id="paint2_linear" x1="22.9404" y1="106.979" x2="96.0407" y2="106.979" gradientUnits="userSpaceOnUse">
<stop stop-color="#8033EB"/>
<stop offset="1" stop-color="#6731CE"/>
</linearGradient>
</defs>
</svg>
