<svg width="196" height="199" viewBox="0 0 196 199" fill="none" xmlns="http://www.w3.org/2000/svg">
<path d="M13.66 169V155.92H17.78C18.5 155.92 19.1667 155.987 19.78 156.12C20.4067 156.253 20.9467 156.48 21.4 156.8C21.8533 157.12 22.2067 157.54 22.46 158.06C22.7133 158.567 22.84 159.2 22.84 159.96C22.84 160.68 22.7133 161.307 22.46 161.84C22.2067 162.373 21.8533 162.82 21.4 163.18C20.96 163.527 20.4333 163.787 19.82 163.96C19.22 164.12 18.5667 164.2 17.86 164.2H15.98V169H13.66ZM15.98 162.34H17.68C19.6 162.34 20.56 161.547 20.56 159.96C20.56 159.133 20.3067 158.567 19.8 158.26C19.3067 157.94 18.5733 157.78 17.6 157.78H15.98V162.34ZM25.1006 169V159.18H27.0006L27.1606 160.92H27.2406C27.5873 160.28 28.0073 159.793 28.5006 159.46C28.994 159.113 29.5006 158.94 30.0206 158.94C30.4873 158.94 30.8606 159.007 31.1406 159.14L30.7406 161.14C30.5673 161.087 30.4073 161.047 30.2606 161.02C30.114 160.993 29.934 160.98 29.7206 160.98C29.334 160.98 28.9273 161.133 28.5006 161.44C28.074 161.733 27.7073 162.253 27.4006 163V169H25.1006ZM34.4142 169.24C33.5476 169.24 32.8476 168.98 32.3142 168.46C31.7809 167.927 31.5142 167.227 31.5142 166.36C31.5142 165.84 31.6209 165.38 31.8342 164.98C32.0609 164.567 32.4076 164.213 32.8742 163.92C33.3542 163.627 33.9542 163.38 34.6742 163.18C35.4076 162.98 36.2809 162.827 37.2942 162.72C37.2809 162.467 37.2409 162.227 37.1742 162C37.1209 161.76 37.0209 161.553 36.8742 161.38C36.7409 161.193 36.5609 161.053 36.3342 160.96C36.1076 160.853 35.8276 160.8 35.4942 160.8C35.0142 160.8 34.5409 160.893 34.0742 161.08C33.6209 161.267 33.1742 161.493 32.7342 161.76L31.8942 160.22C32.4409 159.873 33.0542 159.573 33.7342 159.32C34.4142 159.067 35.1476 158.94 35.9342 158.94C37.1609 158.94 38.0742 159.307 38.6742 160.04C39.2876 160.76 39.5942 161.807 39.5942 163.18V169H37.6942L37.5342 167.92H37.4542C37.0142 168.293 36.5409 168.607 36.0342 168.86C35.5409 169.113 35.0009 169.24 34.4142 169.24ZM35.1542 167.44C35.5542 167.44 35.9142 167.347 36.2342 167.16C36.5676 166.973 36.9209 166.707 37.2942 166.36V164.16C36.6276 164.24 36.0676 164.347 35.6142 164.48C35.1609 164.613 34.7942 164.767 34.5142 164.94C34.2342 165.1 34.0342 165.287 33.9142 165.5C33.7942 165.713 33.7342 165.94 33.7342 166.18C33.7342 166.62 33.8676 166.94 34.1342 167.14C34.4009 167.34 34.7409 167.44 35.1542 167.44ZM46.4467 169.24C45.7801 169.24 45.1534 169.127 44.5667 168.9C43.9934 168.673 43.4934 168.34 43.0667 167.9C42.6401 167.46 42.3067 166.92 42.0667 166.28C41.8267 165.64 41.7067 164.913 41.7067 164.1C41.7067 163.287 41.8401 162.56 42.1067 161.92C42.3734 161.28 42.7334 160.74 43.1867 160.3C43.6401 159.86 44.1601 159.527 44.7467 159.3C45.3467 159.06 45.9734 158.94 46.6267 158.94C47.2667 158.94 47.8134 159.047 48.2667 159.26C48.7334 159.473 49.1467 159.733 49.5067 160.04L48.3867 161.54C48.1201 161.313 47.8534 161.14 47.5867 161.02C47.3334 160.887 47.0534 160.82 46.7467 160.82C45.9467 160.82 45.3001 161.12 44.8067 161.72C44.3134 162.307 44.0667 163.1 44.0667 164.1C44.0667 165.087 44.3067 165.88 44.7867 166.48C45.2801 167.067 45.9134 167.36 46.6867 167.36C47.0734 167.36 47.4334 167.28 47.7667 167.12C48.1134 166.947 48.4267 166.747 48.7067 166.52L49.6467 168.04C49.1801 168.44 48.6667 168.74 48.1067 168.94C47.5601 169.14 47.0067 169.24 46.4467 169.24ZM54.8497 169.24C54.2764 169.24 53.7897 169.153 53.3897 168.98C53.003 168.807 52.683 168.567 52.4297 168.26C52.1897 167.94 52.0097 167.567 51.8897 167.14C51.783 166.7 51.7297 166.213 51.7297 165.68V161H50.3297V159.28L51.8497 159.18L52.1297 156.5H54.0497V159.18H56.5497V161H54.0497V165.68C54.0497 166.827 54.5097 167.4 55.4297 167.4C55.603 167.4 55.7764 167.38 55.9497 167.34C56.1364 167.3 56.303 167.247 56.4497 167.18L56.8497 168.88C56.583 168.973 56.2764 169.053 55.9297 169.12C55.5964 169.2 55.2364 169.24 54.8497 169.24ZM58.6163 169V159.18H60.9163V169H58.6163ZM59.7763 157.46C59.3629 157.46 59.0229 157.34 58.7563 157.1C58.4896 156.86 58.3563 156.547 58.3563 156.16C58.3563 155.773 58.4896 155.46 58.7563 155.22C59.0229 154.967 59.3629 154.84 59.7763 154.84C60.1896 154.84 60.5296 154.967 60.7963 155.22C61.0629 155.46 61.1963 155.773 61.1963 156.16C61.1963 156.547 61.0629 156.86 60.7963 157.1C60.5296 157.34 60.1896 157.46 59.7763 157.46ZM67.9506 169.24C67.284 169.24 66.6573 169.127 66.0706 168.9C65.4973 168.673 64.9973 168.34 64.5706 167.9C64.144 167.46 63.8106 166.92 63.5706 166.28C63.3306 165.64 63.2106 164.913 63.2106 164.1C63.2106 163.287 63.344 162.56 63.6106 161.92C63.8773 161.28 64.2373 160.74 64.6906 160.3C65.144 159.86 65.664 159.527 66.2506 159.3C66.8506 159.06 67.4773 158.94 68.1306 158.94C68.7706 158.94 69.3173 159.047 69.7706 159.26C70.2373 159.473 70.6506 159.733 71.0106 160.04L69.8906 161.54C69.624 161.313 69.3573 161.14 69.0906 161.02C68.8373 160.887 68.5573 160.82 68.2506 160.82C67.4506 160.82 66.804 161.12 66.3106 161.72C65.8173 162.307 65.5706 163.1 65.5706 164.1C65.5706 165.087 65.8106 165.88 66.2906 166.48C66.784 167.067 67.4173 167.36 68.1906 167.36C68.5773 167.36 68.9373 167.28 69.2706 167.12C69.6173 166.947 69.9306 166.747 70.2106 166.52L71.1506 168.04C70.684 168.44 70.1706 168.74 69.6106 168.94C69.064 169.14 68.5106 169.24 67.9506 169.24ZM75.2736 169.24C74.4069 169.24 73.7069 168.98 73.1736 168.46C72.6403 167.927 72.3736 167.227 72.3736 166.36C72.3736 165.84 72.4803 165.38 72.6936 164.98C72.9203 164.567 73.2669 164.213 73.7336 163.92C74.2136 163.627 74.8136 163.38 75.5336 163.18C76.2669 162.98 77.1403 162.827 78.1536 162.72C78.1403 162.467 78.1003 162.227 78.0336 162C77.9803 161.76 77.8803 161.553 77.7336 161.38C77.6003 161.193 77.4203 161.053 77.1936 160.96C76.9669 160.853 76.6869 160.8 76.3536 160.8C75.8736 160.8 75.4003 160.893 74.9336 161.08C74.4803 161.267 74.0336 161.493 73.5936 161.76L72.7536 160.22C73.3003 159.873 73.9136 159.573 74.5936 159.32C75.2736 159.067 76.0069 158.94 76.7936 158.94C78.0203 158.94 78.9336 159.307 79.5336 160.04C80.1469 160.76 80.4536 161.807 80.4536 163.18V169H78.5536L78.3936 167.92H78.3136C77.8736 168.293 77.4003 168.607 76.8936 168.86C76.4003 169.113 75.8603 169.24 75.2736 169.24ZM76.0136 167.44C76.4136 167.44 76.7736 167.347 77.0936 167.16C77.4269 166.973 77.7803 166.707 78.1536 166.36V164.16C77.4869 164.24 76.9269 164.347 76.4736 164.48C76.0203 164.613 75.6536 164.767 75.3736 164.94C75.0936 165.1 74.8936 165.287 74.7736 165.5C74.6536 165.713 74.5936 165.94 74.5936 166.18C74.5936 166.62 74.7269 166.94 74.9936 167.14C75.2603 167.34 75.6003 167.44 76.0136 167.44ZM85.4461 169.24C84.6194 169.24 84.0394 168.993 83.7061 168.5C83.3728 168.007 83.2061 167.333 83.2061 166.48V154.88H85.5061V166.6C85.5061 166.88 85.5594 167.08 85.6661 167.2C85.7728 167.307 85.8861 167.36 86.0061 167.36C86.0594 167.36 86.1061 167.36 86.1461 167.36C86.1994 167.36 86.2728 167.347 86.3661 167.32L86.6661 169.04C86.3594 169.173 85.9528 169.24 85.4461 169.24ZM90.8758 169.24C90.0491 169.24 89.4691 168.993 89.1358 168.5C88.8024 168.007 88.6358 167.333 88.6358 166.48V154.88H90.9358V166.6C90.9358 166.88 90.9891 167.08 91.0958 167.2C91.2024 167.307 91.3158 167.36 91.4358 167.36C91.4891 167.36 91.5358 167.36 91.5758 167.36C91.6291 167.36 91.7024 167.347 91.7958 167.32L92.0958 169.04C91.7891 169.173 91.3824 169.24 90.8758 169.24ZM94.7255 173.04C94.4588 173.04 94.2255 173.02 94.0255 172.98C93.8255 172.953 93.6321 172.907 93.4455 172.84L93.8655 171.04C93.9588 171.067 94.0655 171.093 94.1855 171.12C94.3188 171.16 94.4455 171.18 94.5655 171.18C95.0855 171.18 95.4988 171.02 95.8055 170.7C96.1255 170.393 96.3655 169.993 96.5255 169.5L96.7055 168.88L92.8455 159.18H95.1855L96.8855 164C97.0321 164.427 97.1721 164.88 97.3055 165.36C97.4521 165.827 97.5988 166.293 97.7455 166.76H97.8255C97.9455 166.307 98.0655 165.847 98.1855 165.38C98.3188 164.9 98.4455 164.44 98.5655 164L100.045 159.18H102.265L98.7055 169.44C98.5055 170 98.2855 170.5 98.0455 170.94C97.8055 171.38 97.5255 171.753 97.2055 172.06C96.8988 172.38 96.5388 172.62 96.1255 172.78C95.7255 172.953 95.2588 173.04 94.7255 173.04ZM110.892 169.24C109.838 169.24 109.072 168.907 108.592 168.24C108.112 167.56 107.872 166.593 107.872 165.34V159.18H110.172V165.04C110.172 165.853 110.292 166.427 110.532 166.76C110.772 167.093 111.158 167.26 111.692 167.26C112.118 167.26 112.492 167.153 112.812 166.94C113.145 166.727 113.498 166.38 113.872 165.9V159.18H116.172V169H114.292L114.112 167.56H114.052C113.625 168.067 113.158 168.473 112.652 168.78C112.158 169.087 111.572 169.24 110.892 169.24ZM119.085 169V159.18H120.985L121.145 160.5H121.225C121.665 160.073 122.138 159.707 122.645 159.4C123.165 159.093 123.765 158.94 124.445 158.94C125.498 158.94 126.265 159.28 126.745 159.96C127.225 160.627 127.465 161.587 127.465 162.84V169H125.165V163.14C125.165 162.327 125.045 161.753 124.805 161.42C124.565 161.087 124.172 160.92 123.625 160.92C123.198 160.92 122.818 161.027 122.485 161.24C122.165 161.44 121.798 161.74 121.385 162.14V169H119.085ZM132.516 169.24C131.69 169.24 131.11 168.993 130.776 168.5C130.443 168.007 130.276 167.333 130.276 166.48V154.88H132.576V166.6C132.576 166.88 132.63 167.08 132.736 167.2C132.843 167.307 132.956 167.36 133.076 167.36C133.13 167.36 133.176 167.36 133.216 167.36C133.27 167.36 133.343 167.347 133.436 167.32L133.736 169.04C133.43 169.173 133.023 169.24 132.516 169.24ZM135.706 169V159.18H138.006V169H135.706ZM136.866 157.46C136.453 157.46 136.113 157.34 135.846 157.1C135.579 156.86 135.446 156.547 135.446 156.16C135.446 155.773 135.579 155.46 135.846 155.22C136.113 154.967 136.453 154.84 136.866 154.84C137.279 154.84 137.619 154.967 137.886 155.22C138.153 155.46 138.286 155.773 138.286 156.16C138.286 156.547 138.153 156.86 137.886 157.1C137.619 157.34 137.279 157.46 136.866 157.46ZM140.94 169V159.18H142.84L143 160.52H143.08C143.494 160.08 143.94 159.707 144.42 159.4C144.914 159.093 145.467 158.94 146.08 158.94C146.8 158.94 147.374 159.093 147.8 159.4C148.24 159.707 148.574 160.14 148.8 160.7C149.267 160.193 149.754 159.773 150.26 159.44C150.767 159.107 151.334 158.94 151.96 158.94C153 158.94 153.767 159.28 154.26 159.96C154.754 160.627 155 161.587 155 162.84V169H152.68V163.14C152.68 162.327 152.554 161.753 152.3 161.42C152.06 161.087 151.687 160.92 151.18 160.92C150.567 160.92 149.88 161.327 149.12 162.14V169H146.82V163.14C146.82 162.327 146.694 161.753 146.44 161.42C146.2 161.087 145.82 160.92 145.3 160.92C144.687 160.92 144 161.327 143.24 162.14V169H140.94ZM157.796 169V159.18H160.096V169H157.796ZM158.956 157.46C158.543 157.46 158.203 157.34 157.936 157.1C157.669 156.86 157.536 156.547 157.536 156.16C157.536 155.773 157.669 155.46 157.936 155.22C158.203 154.967 158.543 154.84 158.956 154.84C159.369 154.84 159.709 154.967 159.976 155.22C160.243 155.46 160.376 155.773 160.376 156.16C160.376 156.547 160.243 156.86 159.976 157.1C159.709 157.34 159.369 157.46 158.956 157.46ZM166.49 169.24C165.917 169.24 165.43 169.153 165.03 168.98C164.644 168.807 164.324 168.567 164.07 168.26C163.83 167.94 163.65 167.567 163.53 167.14C163.424 166.7 163.37 166.213 163.37 165.68V161H161.97V159.28L163.49 159.18L163.77 156.5H165.69V159.18H168.19V161H165.69V165.68C165.69 166.827 166.15 167.4 167.07 167.4C167.244 167.4 167.417 167.38 167.59 167.34C167.777 167.3 167.944 167.247 168.09 167.18L168.49 168.88C168.224 168.973 167.917 169.053 167.57 169.12C167.237 169.2 166.877 169.24 166.49 169.24ZM174.144 169.24C173.464 169.24 172.831 169.127 172.244 168.9C171.658 168.66 171.144 168.32 170.704 167.88C170.264 167.44 169.918 166.907 169.664 166.28C169.424 165.64 169.304 164.913 169.304 164.1C169.304 163.3 169.431 162.58 169.684 161.94C169.938 161.3 170.271 160.76 170.684 160.32C171.111 159.88 171.598 159.54 172.144 159.3C172.691 159.06 173.251 158.94 173.824 158.94C174.491 158.94 175.078 159.053 175.584 159.28C176.091 159.507 176.511 159.827 176.844 160.24C177.191 160.653 177.451 161.147 177.624 161.72C177.798 162.293 177.884 162.92 177.884 163.6C177.884 163.827 177.871 164.04 177.844 164.24C177.831 164.44 177.811 164.6 177.784 164.72H171.544C171.651 165.6 171.958 166.28 172.464 166.76C172.984 167.227 173.644 167.46 174.444 167.46C174.871 167.46 175.264 167.4 175.624 167.28C175.998 167.147 176.364 166.967 176.724 166.74L177.504 168.18C177.038 168.487 176.518 168.74 175.944 168.94C175.371 169.14 174.771 169.24 174.144 169.24ZM171.524 163.16H175.884C175.884 162.4 175.718 161.807 175.384 161.38C175.064 160.94 174.564 160.72 173.884 160.72C173.298 160.72 172.784 160.927 172.344 161.34C171.904 161.753 171.631 162.36 171.524 163.16ZM183.521 169.24C182.281 169.24 181.294 168.793 180.561 167.9C179.841 166.993 179.481 165.727 179.481 164.1C179.481 163.3 179.594 162.58 179.821 161.94C180.061 161.3 180.374 160.76 180.761 160.32C181.148 159.88 181.588 159.54 182.081 159.3C182.588 159.06 183.108 158.94 183.641 158.94C184.201 158.94 184.674 159.04 185.061 159.24C185.448 159.427 185.834 159.687 186.221 160.02L186.141 158.44V154.88H188.441V169H186.541L186.381 167.94H186.301C185.941 168.3 185.521 168.607 185.041 168.86C184.561 169.113 184.054 169.24 183.521 169.24ZM184.081 167.34C184.814 167.34 185.501 166.973 186.141 166.24V161.66C185.794 161.353 185.454 161.14 185.121 161.02C184.801 160.9 184.474 160.84 184.141 160.84C183.501 160.84 182.961 161.12 182.521 161.68C182.081 162.24 181.861 163.04 181.861 164.08C181.861 165.147 182.048 165.96 182.421 166.52C182.808 167.067 183.361 167.34 184.081 167.34ZM16.2 194.24C15.52 194.24 14.8467 194.113 14.18 193.86C13.5267 193.593 12.96 193.267 12.48 192.88L13.56 191.4C14 191.747 14.4333 192.02 14.86 192.22C15.3 192.407 15.7733 192.5 16.28 192.5C16.8133 192.5 17.2067 192.393 17.46 192.18C17.7133 191.953 17.84 191.667 17.84 191.32C17.84 191.12 17.78 190.947 17.66 190.8C17.54 190.64 17.38 190.5 17.18 190.38C16.98 190.26 16.7533 190.153 16.5 190.06C16.2467 189.953 15.9933 189.847 15.74 189.74C15.42 189.62 15.0933 189.48 14.76 189.32C14.4267 189.16 14.1267 188.967 13.86 188.74C13.6067 188.513 13.3933 188.253 13.22 187.96C13.06 187.653 12.98 187.293 12.98 186.88C12.98 186.013 13.3 185.307 13.94 184.76C14.58 184.213 15.4533 183.94 16.56 183.94C17.24 183.94 17.8533 184.06 18.4 184.3C18.9467 184.54 19.42 184.813 19.82 185.12L18.76 186.52C18.4133 186.267 18.06 186.067 17.7 185.92C17.3533 185.76 16.9867 185.68 16.6 185.68C16.1067 185.68 15.74 185.787 15.5 186C15.2733 186.2 15.16 186.453 15.16 186.76C15.16 186.96 15.2133 187.133 15.32 187.28C15.44 187.413 15.5933 187.533 15.78 187.64C15.9667 187.747 16.18 187.847 16.42 187.94C16.6733 188.033 16.9333 188.127 17.2 188.22C17.5333 188.34 17.8667 188.48 18.2 188.64C18.5333 188.787 18.8333 188.973 19.1 189.2C19.38 189.427 19.6 189.707 19.76 190.04C19.9333 190.36 20.02 190.747 20.02 191.2C20.02 191.627 19.9333 192.027 19.76 192.4C19.6 192.76 19.36 193.08 19.04 193.36C18.72 193.627 18.32 193.84 17.84 194C17.36 194.16 16.8133 194.24 16.2 194.24ZM26.1733 194.24C25.5066 194.24 24.8799 194.127 24.2933 193.9C23.7199 193.673 23.2199 193.34 22.7933 192.9C22.3666 192.46 22.0333 191.92 21.7933 191.28C21.5533 190.64 21.4333 189.913 21.4333 189.1C21.4333 188.287 21.5666 187.56 21.8333 186.92C22.0999 186.28 22.4599 185.74 22.9133 185.3C23.3666 184.86 23.8866 184.527 24.4733 184.3C25.0733 184.06 25.6999 183.94 26.3533 183.94C26.9933 183.94 27.5399 184.047 27.9933 184.26C28.4599 184.473 28.8733 184.733 29.2333 185.04L28.1133 186.54C27.8466 186.313 27.5799 186.14 27.3133 186.02C27.0599 185.887 26.7799 185.82 26.4733 185.82C25.6733 185.82 25.0266 186.12 24.5333 186.72C24.0399 187.307 23.7933 188.1 23.7933 189.1C23.7933 190.087 24.0333 190.88 24.5133 191.48C25.0066 192.067 25.6399 192.36 26.4133 192.36C26.7999 192.36 27.1599 192.28 27.4933 192.12C27.8399 191.947 28.1533 191.747 28.4333 191.52L29.3733 193.04C28.9066 193.44 28.3933 193.74 27.8333 193.94C27.2866 194.14 26.7333 194.24 26.1733 194.24ZM33.4963 194.24C32.6296 194.24 31.9296 193.98 31.3963 193.46C30.8629 192.927 30.5963 192.227 30.5963 191.36C30.5963 190.84 30.7029 190.38 30.9163 189.98C31.1429 189.567 31.4896 189.213 31.9563 188.92C32.4363 188.627 33.0363 188.38 33.7563 188.18C34.4896 187.98 35.3629 187.827 36.3763 187.72C36.3629 187.467 36.3229 187.227 36.2563 187C36.2029 186.76 36.1029 186.553 35.9563 186.38C35.8229 186.193 35.6429 186.053 35.4163 185.96C35.1896 185.853 34.9096 185.8 34.5763 185.8C34.0963 185.8 33.6229 185.893 33.1563 186.08C32.7029 186.267 32.2563 186.493 31.8163 186.76L30.9762 185.22C31.5229 184.873 32.1363 184.573 32.8163 184.32C33.4963 184.067 34.2296 183.94 35.0163 183.94C36.2429 183.94 37.1563 184.307 37.7563 185.04C38.3696 185.76 38.6763 186.807 38.6763 188.18V194H36.7763L36.6163 192.92H36.5363C36.0963 193.293 35.6229 193.607 35.1163 193.86C34.6229 194.113 34.0829 194.24 33.4963 194.24ZM34.2363 192.44C34.6363 192.44 34.9963 192.347 35.3163 192.16C35.6496 191.973 36.0029 191.707 36.3763 191.36V189.16C35.7096 189.24 35.1496 189.347 34.6963 189.48C34.2429 189.613 33.8763 189.767 33.5963 189.94C33.3163 190.1 33.1163 190.287 32.9963 190.5C32.8763 190.713 32.8163 190.94 32.8163 191.18C32.8163 191.62 32.9496 191.94 33.2163 192.14C33.4829 192.34 33.8229 192.44 34.2363 192.44ZM43.6688 194.24C42.8421 194.24 42.2621 193.993 41.9288 193.5C41.5954 193.007 41.4288 192.333 41.4288 191.48V179.88H43.7288V191.6C43.7288 191.88 43.7821 192.08 43.8888 192.2C43.9954 192.307 44.1088 192.36 44.2288 192.36C44.2821 192.36 44.3288 192.36 44.3688 192.36C44.4221 192.36 44.4954 192.347 44.5888 192.32L44.8888 194.04C44.5821 194.173 44.1754 194.24 43.6688 194.24ZM51.0584 194.24C50.3784 194.24 49.7451 194.127 49.1584 193.9C48.5718 193.66 48.0584 193.32 47.6184 192.88C47.1784 192.44 46.8318 191.907 46.5784 191.28C46.3384 190.64 46.2184 189.913 46.2184 189.1C46.2184 188.3 46.3451 187.58 46.5984 186.94C46.8518 186.3 47.1851 185.76 47.5984 185.32C48.0251 184.88 48.5118 184.54 49.0584 184.3C49.6051 184.06 50.1651 183.94 50.7384 183.94C51.4051 183.94 51.9918 184.053 52.4984 184.28C53.0051 184.507 53.4251 184.827 53.7584 185.24C54.1051 185.653 54.3651 186.147 54.5384 186.72C54.7118 187.293 54.7984 187.92 54.7984 188.6C54.7984 188.827 54.7851 189.04 54.7584 189.24C54.7451 189.44 54.7251 189.6 54.6984 189.72H48.4584C48.5651 190.6 48.8718 191.28 49.3784 191.76C49.8984 192.227 50.5584 192.46 51.3584 192.46C51.7851 192.46 52.1784 192.4 52.5384 192.28C52.9118 192.147 53.2784 191.967 53.6384 191.74L54.4184 193.18C53.9518 193.487 53.4318 193.74 52.8584 193.94C52.2851 194.14 51.6851 194.24 51.0584 194.24ZM48.4384 188.16H52.7984C52.7984 187.4 52.6318 186.807 52.2984 186.38C51.9784 185.94 51.4784 185.72 50.7984 185.72C50.2118 185.72 49.6984 185.927 49.2584 186.34C48.8184 186.753 48.5451 187.36 48.4384 188.16ZM65.0191 194.24C64.4057 194.24 63.8191 194.127 63.2591 193.9C62.6991 193.673 62.1991 193.34 61.7591 192.9C61.3324 192.46 60.9924 191.92 60.7391 191.28C60.4857 190.64 60.3591 189.913 60.3591 189.1C60.3591 188.287 60.4857 187.56 60.7391 186.92C60.9924 186.28 61.3324 185.74 61.7591 185.3C62.1991 184.86 62.6991 184.527 63.2591 184.3C63.8191 184.06 64.4057 183.94 65.0191 183.94C65.6324 183.94 66.2191 184.06 66.7791 184.3C67.3524 184.527 67.8524 184.86 68.2791 185.3C68.7057 185.74 69.0457 186.28 69.2991 186.92C69.5657 187.56 69.6991 188.287 69.6991 189.1C69.6991 189.913 69.5657 190.64 69.2991 191.28C69.0457 191.92 68.7057 192.46 68.2791 192.9C67.8524 193.34 67.3524 193.673 66.7791 193.9C66.2191 194.127 65.6324 194.24 65.0191 194.24ZM65.0191 192.36C65.7391 192.36 66.3057 192.067 66.7191 191.48C67.1324 190.88 67.3391 190.087 67.3391 189.1C67.3391 188.1 67.1324 187.307 66.7191 186.72C66.3057 186.12 65.7391 185.82 65.0191 185.82C64.2991 185.82 63.7324 186.12 63.3191 186.72C62.9191 187.307 62.7191 188.1 62.7191 189.1C62.7191 190.087 62.9191 190.88 63.3191 191.48C63.7324 192.067 64.2991 192.36 65.0191 192.36ZM74.8956 194.24C73.8423 194.24 73.0756 193.907 72.5956 193.24C72.1156 192.56 71.8756 191.593 71.8756 190.34V184.18H74.1756V190.04C74.1756 190.853 74.2956 191.427 74.5356 191.76C74.7756 192.093 75.1623 192.26 75.6956 192.26C76.1223 192.26 76.4956 192.153 76.8156 191.94C77.149 191.727 77.5023 191.38 77.8756 190.9V184.18H80.1756V194H78.2956L78.1156 192.56H78.0556C77.629 193.067 77.1623 193.473 76.6556 193.78C76.1623 194.087 75.5756 194.24 74.8956 194.24ZM86.5489 194.24C85.9756 194.24 85.4889 194.153 85.0889 193.98C84.7022 193.807 84.3822 193.567 84.1289 193.26C83.8889 192.94 83.7089 192.567 83.5889 192.14C83.4822 191.7 83.4289 191.213 83.4289 190.68V186H82.0289V184.28L83.5489 184.18L83.8289 181.5H85.7489V184.18H88.2489V186H85.7489V190.68C85.7489 191.827 86.2089 192.4 87.1289 192.4C87.3022 192.4 87.4756 192.38 87.6489 192.34C87.8356 192.3 88.0022 192.247 88.1489 192.18L88.5489 193.88C88.2822 193.973 87.9756 194.053 87.6289 194.12C87.2956 194.2 86.9356 194.24 86.5489 194.24ZM89.0705 189.8V188.12H93.8305V189.8H89.0705ZM100.156 194.24C99.5424 194.24 98.9558 194.127 98.3958 193.9C97.8358 193.673 97.3358 193.34 96.8958 192.9C96.4691 192.46 96.1291 191.92 95.8758 191.28C95.6224 190.64 95.4958 189.913 95.4958 189.1C95.4958 188.287 95.6224 187.56 95.8758 186.92C96.1291 186.28 96.4691 185.74 96.8958 185.3C97.3358 184.86 97.8358 184.527 98.3958 184.3C98.9558 184.06 99.5424 183.94 100.156 183.94C100.769 183.94 101.356 184.06 101.916 184.3C102.489 184.527 102.989 184.86 103.416 185.3C103.842 185.74 104.182 186.28 104.436 186.92C104.702 187.56 104.836 188.287 104.836 189.1C104.836 189.913 104.702 190.64 104.436 191.28C104.182 191.92 103.842 192.46 103.416 192.9C102.989 193.34 102.489 193.673 101.916 193.9C101.356 194.127 100.769 194.24 100.156 194.24ZM100.156 192.36C100.876 192.36 101.442 192.067 101.856 191.48C102.269 190.88 102.476 190.087 102.476 189.1C102.476 188.1 102.269 187.307 101.856 186.72C101.442 186.12 100.876 185.82 100.156 185.82C99.4358 185.82 98.8691 186.12 98.4558 186.72C98.0558 187.307 97.8558 188.1 97.8558 189.1C97.8558 190.087 98.0558 190.88 98.4558 191.48C98.8691 192.067 99.4358 192.36 100.156 192.36ZM107.434 194V186H106.114V184.28L107.434 184.18V183.16C107.434 182.653 107.494 182.187 107.614 181.76C107.734 181.32 107.928 180.947 108.194 180.64C108.461 180.32 108.794 180.073 109.194 179.9C109.608 179.727 110.108 179.64 110.694 179.64C111.041 179.64 111.368 179.673 111.674 179.74C111.994 179.807 112.268 179.887 112.494 179.98L112.054 181.7C111.694 181.54 111.334 181.46 110.974 181.46C110.148 181.46 109.734 182.013 109.734 183.12V184.18H111.654V186H109.734V194H107.434ZM112.449 189.8V188.12H117.209V189.8H112.449ZM122.486 194.24C121.913 194.24 121.426 194.153 121.026 193.98C120.64 193.807 120.32 193.567 120.066 193.26C119.826 192.94 119.646 192.567 119.526 192.14C119.42 191.7 119.366 191.213 119.366 190.68V186H117.966V184.28L119.486 184.18L119.766 181.5H121.686V184.18H124.186V186H121.686V190.68C121.686 191.827 122.146 192.4 123.066 192.4C123.24 192.4 123.413 192.38 123.586 192.34C123.773 192.3 123.94 192.247 124.086 192.18L124.486 193.88C124.22 193.973 123.913 194.053 123.566 194.12C123.233 194.2 122.873 194.24 122.486 194.24ZM126.253 194V179.88H128.553V183.52L128.473 185.42C128.886 185.033 129.34 184.693 129.833 184.4C130.34 184.093 130.933 183.94 131.613 183.94C132.666 183.94 133.433 184.28 133.913 184.96C134.393 185.627 134.633 186.587 134.633 187.84V194H132.333V188.14C132.333 187.327 132.213 186.753 131.973 186.42C131.733 186.087 131.34 185.92 130.793 185.92C130.366 185.92 129.986 186.027 129.653 186.24C129.333 186.44 128.966 186.74 128.553 187.14V194H126.253ZM141.605 194.24C140.925 194.24 140.292 194.127 139.705 193.9C139.119 193.66 138.605 193.32 138.165 192.88C137.725 192.44 137.379 191.907 137.125 191.28C136.885 190.64 136.765 189.913 136.765 189.1C136.765 188.3 136.892 187.58 137.145 186.94C137.399 186.3 137.732 185.76 138.145 185.32C138.572 184.88 139.059 184.54 139.605 184.3C140.152 184.06 140.712 183.94 141.285 183.94C141.952 183.94 142.539 184.053 143.045 184.28C143.552 184.507 143.972 184.827 144.305 185.24C144.652 185.653 144.912 186.147 145.085 186.72C145.259 187.293 145.345 187.92 145.345 188.6C145.345 188.827 145.332 189.04 145.305 189.24C145.292 189.44 145.272 189.6 145.245 189.72H139.005C139.112 190.6 139.419 191.28 139.925 191.76C140.445 192.227 141.105 192.46 141.905 192.46C142.332 192.46 142.725 192.4 143.085 192.28C143.459 192.147 143.825 191.967 144.185 191.74L144.965 193.18C144.499 193.487 143.979 193.74 143.405 193.94C142.832 194.14 142.232 194.24 141.605 194.24ZM138.985 188.16H143.345C143.345 187.4 143.179 186.807 142.845 186.38C142.525 185.94 142.025 185.72 141.345 185.72C140.759 185.72 140.245 185.927 139.805 186.34C139.365 186.753 139.092 187.36 138.985 188.16ZM147.117 189.8V188.12H151.877V189.8H147.117ZM158.943 194.24C158.489 194.24 158.029 194.133 157.563 193.92C157.109 193.693 156.676 193.373 156.263 192.96H156.203L156.003 194H154.183V179.88H156.483V183.52L156.423 185.16C156.836 184.8 157.283 184.507 157.763 184.28C158.256 184.053 158.756 183.94 159.263 183.94C159.876 183.94 160.423 184.06 160.903 184.3C161.383 184.527 161.789 184.86 162.123 185.3C162.456 185.727 162.709 186.247 162.883 186.86C163.056 187.473 163.143 188.16 163.143 188.92C163.143 189.76 163.023 190.513 162.783 191.18C162.556 191.833 162.249 192.387 161.863 192.84C161.476 193.293 161.029 193.64 160.523 193.88C160.016 194.12 159.489 194.24 158.943 194.24ZM158.463 192.34C159.116 192.34 159.663 192.06 160.103 191.5C160.543 190.927 160.763 190.08 160.763 188.96C160.763 187.973 160.596 187.207 160.263 186.66C159.929 186.113 159.389 185.84 158.643 185.84C157.949 185.84 157.229 186.207 156.483 186.94V191.52C156.829 191.827 157.169 192.04 157.503 192.16C157.849 192.28 158.169 192.34 158.463 192.34ZM169.472 194.24C168.859 194.24 168.272 194.127 167.712 193.9C167.152 193.673 166.652 193.34 166.212 192.9C165.786 192.46 165.446 191.92 165.192 191.28C164.939 190.64 164.812 189.913 164.812 189.1C164.812 188.287 164.939 187.56 165.192 186.92C165.446 186.28 165.786 185.74 166.212 185.3C166.652 184.86 167.152 184.527 167.712 184.3C168.272 184.06 168.859 183.94 169.472 183.94C170.086 183.94 170.672 184.06 171.232 184.3C171.806 184.527 172.306 184.86 172.732 185.3C173.159 185.74 173.499 186.28 173.752 186.92C174.019 187.56 174.152 188.287 174.152 189.1C174.152 189.913 174.019 190.64 173.752 191.28C173.499 191.92 173.159 192.46 172.732 192.9C172.306 193.34 171.806 193.673 171.232 193.9C170.672 194.127 170.086 194.24 169.472 194.24ZM169.472 192.36C170.192 192.36 170.759 192.067 171.172 191.48C171.586 190.88 171.792 190.087 171.792 189.1C171.792 188.1 171.586 187.307 171.172 186.72C170.759 186.12 170.192 185.82 169.472 185.82C168.752 185.82 168.186 186.12 167.772 186.72C167.372 187.307 167.172 188.1 167.172 189.1C167.172 190.087 167.372 190.88 167.772 191.48C168.186 192.067 168.752 192.36 169.472 192.36ZM174.8 194L177.92 188.88L175 184.18H177.48L178.58 186.04C178.726 186.307 178.873 186.587 179.02 186.88C179.18 187.16 179.333 187.433 179.48 187.7H179.56C179.68 187.433 179.806 187.16 179.94 186.88C180.073 186.587 180.2 186.307 180.32 186.04L181.26 184.18H183.64L180.74 189.14L183.86 194H181.38L180.18 192.06C180.02 191.767 179.853 191.473 179.68 191.18C179.52 190.887 179.353 190.6 179.18 190.32H179.1C178.953 190.6 178.806 190.887 178.66 191.18C178.526 191.46 178.386 191.753 178.24 192.06L177.2 194H174.8Z" fill="#000E1A"/>
<path d="M74.7668 134.092L74.6324 134.573L70.3619 133.381L70.4963 132.899L64.0906 131.111L63.9562 131.592L55.4152 129.207L55.5497 128.726L49.1439 126.937L49.0095 127.419L40.4685 125.034L40.603 124.552L34.1973 122.764L34.0628 123.245L29.7923 122.053L29.9268 121.571L29.7923 122.053C28.5359 121.702 27.3632 121.165 26.3037 120.473L26.5772 120.054C25.0283 119.042 23.7319 117.684 22.7874 116.084L22.3568 116.338C21.7152 115.252 21.2297 114.058 20.9289 112.787L19.899 108.438L20.3855 108.322L18.8406 101.798L18.354 101.913L16.2941 93.2134L16.7806 93.0982L15.2356 86.5735L14.7491 86.6887L12.6892 77.9892L13.1757 77.874L11.6307 71.3493L11.1442 71.4645L10.1142 67.1148C9.81038 65.8316 9.70799 64.5256 9.79449 63.2388L10.2934 63.2724C10.4193 61.3994 10.9613 59.5676 11.8784 57.9165L11.4413 57.6737C12.065 56.5508 12.8558 55.5083 13.8015 54.5869L74.7668 134.092ZM74.7668 134.092L74.6324 134.573C75.8964 134.926 77.1904 135.075 78.472 135.032L78.4552 134.533C80.316 134.47 82.1504 133.986 83.8186 133.116L84.0497 133.56C85.1792 132.971 86.2349 132.212 87.1768 131.295L86.828 130.936L87.1769 131.294L90.4173 128.137L90.0684 127.779L94.929 123.043L95.278 123.401L101.759 117.086L101.41 116.728L106.271 111.992L106.619 112.35L113.1 106.036L112.751 105.678L117.612 100.941L117.961 101.3L121.201 98.1423C122.147 97.2208 122.938 96.1783 123.562 95.0554L123.124 94.8126C124.042 93.1614 124.584 91.3297 124.71 89.4567L125.209 89.4903C125.295 88.2035 125.193 86.8976 124.889 85.6144L123.859 81.2646L123.372 81.3798L121.827 74.8551L122.314 74.7399L120.254 66.0404L119.767 66.1556L118.222 59.6309L118.709 59.5157L116.649 50.8161L116.163 50.9314L114.618 44.4067L115.104 44.2915L114.074 39.9417C113.773 38.6714 113.288 37.4776 112.646 36.3906L112.216 36.6448C111.271 35.0446 109.975 33.6866 108.426 32.6745L108.699 32.2559C107.64 31.5636 106.467 31.0269 105.211 30.6762L100.94 29.4838L100.806 29.9653L94.4002 28.1767L94.5346 27.6951L85.9938 25.3103L85.8594 25.7919L79.4538 24.0032L79.5882 23.5216L71.0474 21.1368L70.9129 21.6184L64.5073 19.8297L64.6418 19.3482L60.3714 18.1557C59.1073 17.8027 57.8133 17.6533 56.5318 17.6962L56.5485 18.1959C54.6876 18.2582 52.8531 18.7425 51.185 19.6124L50.9538 19.169C49.8244 19.758 48.7687 20.5168 47.8269 21.4345L44.5864 24.5919L44.9353 24.95L40.0745 29.6861L39.7256 29.328L33.2446 35.6427L33.5935 36.0008L28.7328 40.7369L28.3838 40.3788L21.9028 46.6935L22.2517 47.0516L17.391 51.7877L17.042 51.4296L13.8016 54.5869L74.7668 134.092Z" fill="white" stroke="url(#paint0_linear)" stroke-dasharray="8 6"/>
<path fill-rule="evenodd" clip-rule="evenodd" d="M43 17.5C43 8.3873 50.3873 1 59.5 1C68.6127 1 76 8.3873 76 17.5C76 26.6127 68.6127 34 59.5 34C50.3873 34 43 26.6127 43 17.5Z" fill="white" stroke="#FA5A28" stroke-dasharray="5 3"/>
<path d="M55.5119 23V22.298H58.2119V12.758H56.1599V12.218C56.6279 12.134 57.0419 12.032 57.4019 11.912C57.7739 11.792 58.0979 11.654 58.3739 11.498H59.0219V22.298H61.5239V23H55.5119ZM64.5932 23.216C64.3892 23.216 64.2092 23.144 64.0532 23C63.8972 22.856 63.8192 22.658 63.8192 22.406C63.8192 22.142 63.8972 21.938 64.0532 21.794C64.2092 21.65 64.3892 21.578 64.5932 21.578C64.7972 21.578 64.9712 21.65 65.1152 21.794C65.2712 21.938 65.3492 22.142 65.3492 22.406C65.3492 22.658 65.2712 22.856 65.1152 23C64.9712 23.144 64.7972 23.216 64.5932 23.216Z" fill="black"/>
<path fill-rule="evenodd" clip-rule="evenodd" d="M101.739 101.009C101.739 97.5764 104.522 94.7941 107.954 94.7941C111.386 94.7941 114.168 97.5764 114.168 101.009C114.168 104.441 111.386 107.223 107.954 107.223C104.522 107.223 101.739 104.441 101.739 101.009Z" fill="#F2F2F2"/>
<path fill-rule="evenodd" clip-rule="evenodd" d="M56.9258 61.1088C56.9227 63.4237 55.044 65.2982 52.729 65.2961C50.4139 65.2941 48.5386 63.4163 48.5396 61.1012C48.5405 58.7862 50.4175 56.91 52.7325 56.9099C53.8455 56.9103 54.9127 57.3529 55.6992 58.1405C56.4857 58.928 56.9269 59.9958 56.9258 61.1088Z" fill="#F2F2F2"/>
<rect x="20" y="77.7723" width="29.2859" height="10.2328" rx="5.11641" fill="#F2F2F2"/>
<rect x="70.8761" y="58.8195" width="42.3939" height="10.2328" rx="5.11641" fill="#F2F2F2"/>
<path fill-rule="evenodd" clip-rule="evenodd" d="M107.177 102.875H29.0881V51.3214H29.2314V102.732H107.177V102.875Z" fill="#B3B3B3"/>
<path fill-rule="evenodd" clip-rule="evenodd" d="M29.1599 51.3931C28.8167 51.3931 28.5074 51.1863 28.3762 50.8692C28.245 50.5521 28.3179 50.1872 28.5607 49.9448C28.8035 49.7024 29.1686 49.6302 29.4854 49.7619C29.8023 49.8936 30.0085 50.2033 30.008 50.5464C30.0072 51.0143 29.6277 51.3931 29.1599 51.3931H29.1599ZM29.1599 49.8416C28.8748 49.8416 28.6178 50.0133 28.5087 50.2767C28.3997 50.54 28.46 50.8432 28.6615 51.0448C28.8631 51.2463 29.1663 51.3066 29.4296 51.1975C29.693 51.0885 29.8647 50.8314 29.8647 50.5464C29.8651 50.3593 29.791 50.1798 29.6587 50.0476C29.5264 49.9153 29.3469 49.8412 29.1599 49.8416L29.1599 49.8416Z" fill="#B3B3B3"/>
<path fill-rule="evenodd" clip-rule="evenodd" d="M107.954 103.65C107.611 103.65 107.301 103.443 107.17 103.126C107.039 102.809 107.112 102.444 107.355 102.202C107.597 101.959 107.962 101.887 108.279 102.019C108.596 102.151 108.802 102.46 108.802 102.804C108.801 103.271 108.422 103.65 107.954 103.65ZM107.954 102.099C107.669 102.099 107.412 102.27 107.303 102.534C107.194 102.797 107.254 103.1 107.455 103.302C107.657 103.503 107.96 103.564 108.224 103.455C108.487 103.346 108.659 103.089 108.659 102.803C108.658 102.415 108.343 102.099 107.954 102.099H107.954Z" fill="#B3B3B3"/>
<rect x="28.3848" y="55.0247" width="1.55147" height="0.5" fill="#B3B3B3"/>
<rect x="28.3848" y="61.0371" width="1.55147" height="0.5" fill="#B3B3B3"/>
<rect x="28.3848" y="67.0482" width="1.55147" height="0.5" fill="#B3B3B3"/>
<rect x="28.3848" y="73.0607" width="1.55147" height="0.5" fill="#B3B3B3"/>
<rect x="28.3848" y="79.0731" width="1.55147" height="0.5" fill="#B3B3B3"/>
<rect x="28.3848" y="85.0856" width="1.55147" height="0.5" fill="#B3B3B3"/>
<rect x="28.3848" y="91.0981" width="1.55147" height="0.5" fill="#B3B3B3"/>
<rect x="28.3848" y="97.1106" width="1.55147" height="0.5" fill="#B3B3B3"/>
<rect x="31.2972" y="55.0247" width="76.658" height="0.5" fill="#D6D6D6"/>
<rect x="31.2972" y="61.0371" width="76.658" height="0.5" fill="#D6D6D6"/>
<rect x="31.2972" y="67.0482" width="76.658" height="0.5" fill="#D6D6D6"/>
<rect x="31.2972" y="73.0607" width="76.658" height="0.5" fill="#D6D6D6"/>
<rect x="31.2972" y="79.0731" width="76.658" height="0.5" fill="#D6D6D6"/>
<rect x="31.2972" y="85.0856" width="76.658" height="0.5" fill="#D6D6D6"/>
<rect x="31.2972" y="91.0981" width="76.658" height="0.5" fill="#D6D6D6"/>
<rect x="31.2972" y="97.1106" width="76.658" height="0.5" fill="#D6D6D6"/>
<rect x="35.1938" y="84.3206" width="5.06125" height="16.688" fill="#E5E5E5" style="mix-blend-mode:multiply"/>
<rect x="34.7354" y="84.8735" width="5.06126" height="16.135" fill="url(#paint1_linear)"/>
<rect x="46.0082" y="80.8595" width="5.06125" height="20.149" fill="#E5E5E5" style="mix-blend-mode:multiply"/>
<rect x="45.5498" y="81.4125" width="5.06125" height="19.5946" fill="url(#paint2_linear)"/>
<rect x="56.8226" y="77.5718" width="5.06126" height="23.4368" fill="#E5E5E5" style="mix-blend-mode:multiply"/>
<rect x="56.3643" y="78.1248" width="5.06126" height="22.8824" fill="url(#paint3_linear)"/>
<rect x="67.6385" y="74.1107" width="5.06126" height="26.8979" fill="#E5E5E5" style="mix-blend-mode:multiply"/>
<rect x="67.1802" y="74.6637" width="5.06126" height="26.3435" fill="url(#paint4_linear)"/>
<rect x="78.453" y="70.4763" width="5.06126" height="30.5308" fill="#E5E5E5" style="mix-blend-mode:multiply"/>
<rect x="77.9946" y="71.0306" width="5.06126" height="29.9779" fill="url(#paint5_linear)"/>
<rect x="89.2688" y="67.0151" width="5.06126" height="33.9919" fill="#E5E5E5" style="mix-blend-mode:multiply"/>
<rect x="88.8104" y="67.5696" width="5.06126" height="33.4389" fill="url(#paint6_linear)"/>
<rect x="100.083" y="63.3822" width="5.06126" height="37.6263" fill="#E5E5E5" style="mix-blend-mode:multiply"/>
<rect x="99.6249" y="63.9352" width="5.06126" height="37.0719" fill="url(#paint7_linear)"/>
<path fill-rule="evenodd" clip-rule="evenodd" d="M25.8262 54.9917C23.5267 53.2628 22.9286 50.064 24.4479 47.621C25.9673 45.178 29.101 44.3002 31.6684 45.5982C34.2358 46.8963 35.3865 49.9403 34.3199 52.6122L34.1867 52.5577C35.2273 49.9525 34.1047 46.984 31.6005 45.7192C29.0964 44.4544 26.041 45.3128 24.5618 47.6965C23.0826 50.0802 23.67 53.1991 25.915 54.8814L25.8262 54.9917Z" fill="#F94F24"/>
<defs>
<linearGradient id="paint0_linear" x1="171.328" y1="50.4775" x2="30.998" y2="-24.2216" gradientUnits="userSpaceOnUse">
<stop stop-color="#EE7170"/>
<stop offset="1" stop-color="#8F3DDC"/>
</linearGradient>
<linearGradient id="paint1_linear" x1="39.3449" y1="93.6108" x2="39.3449" y2="80.3509" gradientUnits="userSpaceOnUse">
<stop stop-color="#8033EB"/>
<stop offset="0.53" stop-color="#D4648E"/>
<stop offset="1" stop-color="#EC7071"/>
</linearGradient>
<linearGradient id="paint2_linear" x1="50.1594" y1="92.0231" x2="50.1594" y2="75.9201" gradientUnits="userSpaceOnUse">
<stop stop-color="#8033EB"/>
<stop offset="0.53" stop-color="#D4648E"/>
<stop offset="1" stop-color="#EC7071"/>
</linearGradient>
<linearGradient id="paint3_linear" x1="60.9739" y1="90.5157" x2="60.9739" y2="71.7109" gradientUnits="userSpaceOnUse">
<stop stop-color="#8033EB"/>
<stop offset="0.53" stop-color="#D4648E"/>
<stop offset="1" stop-color="#EC7071"/>
</linearGradient>
<linearGradient id="paint4_linear" x1="71.7898" y1="88.9289" x2="71.7898" y2="67.2797" gradientUnits="userSpaceOnUse">
<stop stop-color="#8033EB"/>
<stop offset="0.53" stop-color="#D4648E"/>
<stop offset="1" stop-color="#EC7071"/>
</linearGradient>
<linearGradient id="paint5_linear" x1="82.6042" y1="87.2639" x2="82.6042" y2="62.6279" gradientUnits="userSpaceOnUse">
<stop stop-color="#8033EB"/>
<stop offset="0.53" stop-color="#D4648E"/>
<stop offset="1" stop-color="#EC7071"/>
</linearGradient>
<linearGradient id="paint6_linear" x1="93.42" y1="85.677" x2="93.42" y2="58.1967" gradientUnits="userSpaceOnUse">
<stop stop-color="#8033EB"/>
<stop offset="0.53" stop-color="#D4648E"/>
<stop offset="1" stop-color="#EC7071"/>
</linearGradient>
<linearGradient id="paint7_linear" x1="104.234" y1="84.0099" x2="104.234" y2="53.544" gradientUnits="userSpaceOnUse">
<stop stop-color="#8033EB"/>
<stop offset="0.53" stop-color="#D4648E"/>
<stop offset="1" stop-color="#EC7071"/>
</linearGradient>
</defs>
</svg>
