<?xml version="1.0" encoding="UTF-8"?>
<svg width="50px" height="50px" viewBox="0 0 50 50" version="1.1" xmlns="http://www.w3.org/2000/svg" xmlns:xlink="http://www.w3.org/1999/xlink">
    <!-- Generator: Sketch 50.2 (55047) - http://www.bohemiancoding.com/sketch -->
    <title>Icon</title>
    <desc>Created with Sketch.</desc>
    <defs></defs>
    <g id="Home-v1" stroke="none" stroke-width="1" fill="none" fill-rule="evenodd">
        <g id="Main-page" transform="translate(-1003.000000, -3239.000000)">
            <g id="Made-for-devs" transform="translate(72.000000, 2829.000000)">
                <g id="Features" transform="translate(205.000000, 383.000000)">
                    <g id="GraphQL" transform="translate(705.000000, 0.000000)">
                        <g id="Icon" transform="translate(21.000000, 27.000000)">
                            <circle id="Oval-2" fill="#DECFE0" cx="25" cy="25" r="25"></circle>
                            <g id="graphql" transform="translate(7.000000, 5.000000)" fill="#7A4183">
                                <path d="M21.1911111,4.57819444 L29.4058333,9.32125 C29.6429959,9.07031138 29.9151571,8.85494015 30.2138889,8.68180556 C31.9175,7.70236111 34.0905556,8.28388889 35.0801389,9.98763889 C36.0595833,11.6913889 35.4780556,13.8643056 33.7743056,14.8538889 C33.4777982,15.0246399 33.1582786,15.1518677 32.8255556,15.2316667 L32.8255556,24.72125 C33.1546443,24.801183 33.470683,24.9275424 33.7641667,25.0965278 C35.4780556,26.0861111 36.0595833,28.2591667 35.07,29.9629167 C34.0905556,31.6665278 31.9073611,32.2480556 30.2036111,31.26875 C29.8735462,31.0793864 29.576205,30.8379959 29.3230556,30.5538889 L21.1583333,35.2677778 C21.2779065,35.6298283 21.3386316,36.0087151 21.3381944,36.39 C21.3381944,38.34875 19.7468056,39.9505556 17.7777778,39.9505556 C15.80875,39.9505556 14.2173611,38.3588889 14.2173611,36.39 C14.2173611,36.04 14.2676389,35.7019444 14.3613889,35.3826389 L6.14888889,30.6409722 C5.91432708,30.8869342 5.64599531,31.0983075 5.35194444,31.26875 C3.63805556,32.2480556 1.465,31.6665278 0.485555556,29.9629167 C-0.49375,28.2591667 0.0877777778,26.0861111 1.79138889,25.0965278 C2.08487308,24.9275111 2.40090966,24.8011058 2.73,24.7211111 L2.73,15.2316667 C2.39727698,15.1518677 2.07775731,15.0246399 1.78125,14.8538889 C0.0775,13.8745833 -0.504027778,11.6913889 0.475416667,9.98763889 C1.45486111,8.28388889 3.63791667,7.70236111 5.34166667,8.68180556 C5.6387627,8.85401599 5.90958346,9.06800648 6.14583333,9.31722222 L14.3629167,4.57291667 C14.2660529,4.24415223 14.2170314,3.9031535 14.2173611,3.56041667 C14.2173611,1.59166667 15.80875,0 17.7777778,0 C19.7468056,0 21.3381944,1.59152778 21.3381944,3.56041667 C21.3381944,3.91430556 21.2868056,4.25583333 21.1911111,4.57819444 Z M20.3352778,6.03958333 L28.5695833,10.79375 C28.3046663,11.7197976 28.4268058,12.7137032 28.9080556,13.5480556 C29.4093056,14.42 30.2258333,14.9980556 31.1320833,15.2233333 L31.1320833,24.7247222 C31.0858333,24.7359722 31.0398611,24.7483333 30.9941667,24.7613889 L20.2395833,6.13472222 C20.2720833,6.10361111 20.3040278,6.07194444 20.3352778,6.03972222 L20.3352778,6.03958333 Z M15.3181944,6.13680556 L4.56375,24.7631944 C4.51724858,24.7497491 4.47047974,24.7372466 4.42347222,24.7256944 L4.42347222,15.2233333 C5.32972222,14.9980556 6.14625,14.42 6.6475,13.5480556 C7.12972881,12.7120648 7.25140317,11.7159593 6.98458333,10.7884722 L15.2165278,6.03569444 C15.2497222,6.07 15.2836111,6.10375 15.3181944,6.13666667 L15.3181944,6.13680556 Z M18.7726389,6.98055556 L29.5245833,25.6027778 C29.278295,25.8377861 29.0671868,26.1070859 28.8977778,26.4023611 C28.7287924,26.6958447 28.602433,27.0118835 28.5225,27.3409722 L7.03333333,27.3409722 C6.95329491,27.0118745 6.82684273,26.6958376 6.65777778,26.4023611 C6.48777832,26.1091217 6.27707139,25.8414593 6.03194444,25.6073611 L16.7859722,6.98138889 C17.1083833,7.07422493 17.4422673,7.12116788 17.7777778,7.12083333 C18.1231944,7.12083333 18.4569444,7.07194444 18.7726389,6.98055556 Z M20.4108333,33.9913889 L28.5916667,29.2680556 C28.5671439,29.1909473 28.5452332,29.1130324 28.5259722,29.0344444 L7.02875,29.0344444 C7.01736111,29.0806944 7.005,29.1265278 6.99180556,29.1722222 L15.2126389,33.91875 C15.8834647,33.2212035 16.8100096,32.8277894 17.7777778,32.8295833 C18.7801083,32.8278317 19.7364839,33.2498214 20.4108333,33.9913889 Z" id="Shape"></path>
                            </g>
                        </g>
                    </g>
                </g>
            </g>
        </g>
    </g>
</svg>