<?xml version="1.0" encoding="UTF-8"?>
<svg width="40px" height="40px" viewBox="0 0 40 40" version="1.1" xmlns="http://www.w3.org/2000/svg" xmlns:xlink="http://www.w3.org/1999/xlink">
    <!-- Generator: Sketch 50.2 (55047) - http://www.bohemiancoding.com/sketch -->
    <title>instagram-glyph-1</title>
    <desc>Created with Sketch.</desc>
    <defs></defs>
    <g id="Home-v1" stroke="none" stroke-width="1" fill="none" fill-rule="evenodd">
        <g id="Main-page" transform="translate(-700.000000, -2704.000000)" fill="#CCCCCC" fill-rule="nonzero">
            <g id="CMS" transform="translate(0.000000, 525.000000)">
                <g id="Plugins" transform="translate(194.000000, 2105.000000)">
                    <g id="Logos" transform="translate(56.000000, 74.000000)">
                        <g id="instagram-glyph-1" transform="translate(450.000000, 0.000000)">
                            <path d="M13.3349489,20 C13.3349489,16.3182553 16.3189143,13.3327948 20.0008078,13.3327948 C23.6827012,13.3327948 26.6682822,16.3182553 26.6682822,20 C26.6682822,23.6817447 23.6827012,26.6672052 20.0008078,26.6672052 C16.3189143,26.6672052 13.3349489,23.6817447 13.3349489,20 M9.73060301,20 C9.73060301,25.6720517 14.328527,30.26979 20.0008078,30.26979 C25.6730886,30.26979 30.2710126,25.6720517 30.2710126,20 C30.2710126,14.3279483 25.6730886,9.73021002 20.0008078,9.73021002 C14.328527,9.73021002 9.73060301,14.3279483 9.73060301,20 M28.2773941,9.32310178 C28.2773941,10.6478191 29.3517509,11.723748 30.6781372,11.723748 C32.002908,11.723748 33.0788804,10.6478191 33.0788804,9.32310178 C33.0788804,7.99838449 32.0045236,6.92407108 30.6781372,6.92407108 C29.3517509,6.92407108 28.2773941,7.99838449 28.2773941,9.32310178 M11.919706,36.279483 C9.96970798,36.19063 8.90989135,35.8659128 8.20550103,35.5912763 C7.27169918,35.2277868 6.60608264,34.7948304 5.90492346,34.095315 C5.20537986,33.3957997 4.77079042,32.73021 4.40890181,31.7964459 C4.13425421,31.092084 3.80952381,30.0323102 3.72066723,28.082391 C3.62373278,25.9741519 3.60434589,25.3408724 3.60434589,20 C3.60434589,14.6591276 3.62534836,14.0274637 3.72066723,11.917609 C3.80952381,9.96768982 4.13586978,8.9095315 4.40890181,8.20355412 C4.77240599,7.26978998 5.20537986,6.60420032 5.90492346,5.90306947 C6.60446706,5.20355412 7.27008361,4.76898223 8.20550103,4.40710824 C8.90989135,4.13247173 9.96970798,3.80775444 11.919706,3.71890145 C14.0280302,3.62197092 14.6613353,3.60258481 20.0008078,3.60258481 C25.3418959,3.60258481 25.9735854,3.62358643 28.0835252,3.71890145 C30.0335232,3.80775444 31.0917242,4.13408724 31.7977301,4.40710824 C32.731532,4.76898223 33.3971485,5.20355412 34.0983077,5.90306947 C34.7978513,6.60258481 35.2308252,7.26978998 35.5943293,8.20355412 C35.8689769,8.90791599 36.1937073,9.96768982 36.2825639,11.917609 C36.3794984,14.0274637 36.3988853,14.6591276 36.3988853,20 C36.3988853,25.3392569 36.3794984,25.9725363 36.2825639,28.082391 C36.1937073,30.0323102 35.8673614,31.092084 35.5943293,31.7964459 C35.2308252,32.73021 34.7978513,33.3957997 34.0983077,34.095315 C33.3987641,34.7948304 32.731532,35.2277868 31.7977301,35.5912763 C31.0933398,35.8659128 30.0335232,36.19063 28.0835252,36.279483 C25.9752009,36.3764136 25.3418959,36.3957997 20.0008078,36.3957997 C14.6613353,36.3957997 14.0280302,36.3764136 11.919706,36.279483 M11.7549174,0.121163166 C9.62559069,0.2180937 8.17157397,0.555735057 6.90011713,1.05008078 C5.58503978,1.56058158 4.47029363,2.24555735 3.35716305,3.35702746 C2.24564805,4.46849758 1.56064461,5.58319871 1.05012319,6.89983845 C0.555757502,8.17124394 0.218102508,9.62520194 0.12116806,11.7544426 C0.0226180379,13.8869144 0,14.5686591 0,20 C0,25.4313409 0.0226180379,26.1130856 0.12116806,28.2455574 C0.218102508,30.3747981 0.555757502,31.8287561 1.05012319,33.1001616 C1.56064461,34.4151858 2.24403247,35.5315024 3.35716305,36.6429725 C4.46867806,37.7544426 5.58342421,38.4378029 6.90011713,38.9499192 C8.17318955,39.4442649 9.62559069,39.7819063 11.7549174,39.8788368 C13.8890908,39.9757674 14.5692475,40 20.0008078,40 C25.4339836,40 26.1141403,39.9773829 28.2466982,39.8788368 C30.3760249,39.7819063 31.8300416,39.4442649 33.1014984,38.9499192 C34.4165758,38.4378029 35.5313219,37.7544426 36.6444525,36.6429725 C37.7559675,35.5315024 38.4393554,34.4151858 38.9514924,33.1001616 C39.4458581,31.8287561 39.7851286,30.3747981 39.8804475,28.2455574 C39.977382,26.1114701 40,25.4313409 40,20 C40,14.5686591 39.977382,13.8869144 39.8804475,11.7544426 C39.7835131,9.62520194 39.4458581,8.17124394 38.9514924,6.89983845 C38.4393554,5.58481422 37.7559675,4.47011309 36.6444525,3.35702746 C35.5329375,2.24555735 34.4165758,1.56058158 33.103114,1.05008078 C31.8300416,0.555735057 30.3760249,0.216478191 28.2483137,0.121163166 C26.1157559,0.0242326333 25.4339836,0 20.0024234,0 C14.5692475,0 13.8890908,0.0226171244 11.7549174,0.121163166" id="Shape"></path>
                        </g>
                    </g>
                </g>
            </g>
        </g>
    </g>
</svg>