<?xml version="1.0" encoding="UTF-8"?>
<svg width="147px" height="39px" viewBox="0 0 147 39" version="1.1" xmlns="http://www.w3.org/2000/svg" xmlns:xlink="http://www.w3.org/1999/xlink">
    <!-- Generator: Sketch 50.2 (55047) - http://www.bohemiancoding.com/sketch -->
    <title>typeform</title>
    <desc>Created with Sketch.</desc>
    <defs></defs>
    <g id="Home-v1" stroke="none" stroke-width="1" fill="none" fill-rule="evenodd">
        <g id="Main-page" transform="translate(-790.000000, -2704.000000)" fill="#CCCCCC" fill-rule="nonzero">
            <g id="CMS" transform="translate(0.000000, 525.000000)">
                <g id="Plugins" transform="translate(194.000000, 2105.000000)">
                    <g id="Logos" transform="translate(56.000000, 74.000000)">
                        <g id="typeform" transform="translate(540.000000, 0.000000)">
                            <polyline id="Shape" points="0 9.25252062 0 5 19 5 19 9.25252062 12.0494397 9.25252062 12.0494397 28 6.95056034 28 6.95056034 9.25252062 0 9.25252062"></polyline>
                            <path d="M24.1158429,32.8740734 C23.2280895,33.4522191 21.9944846,33.7408871 20.4150284,33.7408871 C19.938613,33.7408871 19.4679276,33.7250974 19.0029724,33.6927083 C18.5371986,33.6603191 18.0665132,33.6230717 17.5909164,33.5805609 L17.5909164,29.8234235 C18.0235376,29.8659342 18.4672097,29.9088498 18.9219327,29.9513605 C19.3762463,29.9938712 19.83056,30.0048025 20.2852829,29.9837496 C20.8906252,29.9197811 21.3404367,29.6837454 21.6326709,29.277262 C21.9197856,28.8851674 22.0731807,28.4128014 22.0706129,27.9286602 C22.0706129,27.5650924 22.0055355,27.2217677 21.8757901,26.9007106 L16,11.3264041 L20.9020854,11.3264041 L24.7003113,22.6937693 L24.7649794,22.6937693 L28.4334599,11.3264041 L33.2053906,11.3264041 L26.1934071,29.9837496 C25.6952992,31.3319466 25.0027778,32.2955228 24.1158429,32.8740734 Z M39.2252513,11.3264041 L39.2252513,13.4458669 L39.2903286,13.4458669 C39.8526953,12.5466641 40.5669091,11.8936185 41.4325608,11.4871351 C42.2982125,11.0806517 43.2506341,10.8770051 44.2898254,10.8770051 C45.6093815,10.8770051 46.745575,11.1231624 47.6984058,11.615477 C48.650418,12.1081964 49.4403508,12.761242 50.0682041,13.5742088 C50.6956481,14.3879853 51.1606033,15.335367 51.4638884,16.4163537 C51.7667642,17.4977453 51.9186114,18.6269109 51.9186114,19.8046601 C51.9186114,20.918036 51.7667642,21.9880914 51.4638884,23.0152313 C51.1606033,24.0431808 50.7009689,24.953315 50.0841665,25.744824 C49.467364,26.5371428 48.6991237,27.1691354 47.7794455,27.6395873 C46.859358,28.1100392 45.7829211,28.3464798 44.5493163,28.3464798 C43.5105342,28.3464798 42.5527919,28.13757 41.6760893,27.7201552 C40.7993867,27.3027405 40.0798521,26.6873473 39.5174855,25.8735708 L39.4524081,25.8735708 L39.4524081,34 L34.8425569,34 L34.8425569,11.3264041 L39.2252513,11.3264041 Z M45.2168709,24.477195 C45.7151799,24.187265 46.1377179,23.7856616 46.4504757,23.304709 C46.7639931,22.8229209 46.9862384,22.2613746 47.1159838,21.6188555 C47.2461386,20.9763364 47.3112159,20.3236957 47.3112159,19.6597188 C47.3117727,19.0012192 47.2409701,18.3445576 47.1000215,17.700987 C46.9588159,17.0588728 46.7267475,16.4859903 46.40177,15.9827444 C46.0843699,15.4872351 45.6568627,15.0698912 45.1517935,14.7624845 C44.6434533,14.4527635 44.0209208,14.2968909 43.2854239,14.2968909 C42.5274158,14.2968909 41.894651,14.4527635 41.3863109,14.7624845 C40.8867002,15.0644864 40.4644914,15.4767237 40.152706,15.9669547 C39.8387794,16.4596742 39.6173526,17.0264837 39.4871979,17.6685979 C39.3560765,18.3243315 39.2908181,18.9912825 39.2923751,19.6597188 C39.2923751,20.3236957 39.362364,20.9763364 39.5035696,21.6188555 C39.6439566,22.2613746 39.8711134,22.8229209 40.1850401,23.304709 C40.4985574,23.7864971 40.9156255,24.1771908 41.4350166,24.477195 C41.9544076,24.7767943 42.5818516,24.9261891 43.3177579,24.9261891 C44.0753566,24.9261891 44.7081214,24.7767943 45.2168709,24.477195 Z M59.3014131,23.9464184 C59.9935251,24.6108001 60.9897409,24.9419788 62.2880138,24.9419788 C63.2187429,24.9419788 64.0193172,24.7128258 64.6905554,24.2516858 C65.3609751,23.7913555 65.7723131,23.3043041 65.923751,22.7905318 L69.9818771,22.7905318 C69.3323314,24.7816527 68.3365249,26.2059641 66.9952764,27.0614416 C65.6532092,27.9177289 64.0303681,28.3464798 62.1259343,28.3464798 C60.8055597,28.3464798 59.6149304,28.13757 58.5552745,27.7201552 C57.4943907,27.3027405 56.5959957,26.7088051 55.860908,25.9379441 C55.1250017,25.1678929 54.556905,24.2464225 54.1562085,23.176772 C53.755512,22.1059068 53.5557777,20.9285625 53.5557777,19.6439291 C53.5557777,18.4026163 53.7612421,17.2467297 54.1725801,16.1762694 C54.5835089,15.1054042 55.1679773,14.1798852 55.925576,13.398093 C56.6827655,12.6171104 57.586072,12.0013123 58.6363142,11.5519133 C59.6853286,11.1017046 60.8485353,10.87741 62.1259343,10.87741 C63.554362,10.87741 64.7986084,11.1502883 65.8586736,11.6960449 C66.9191481,12.2422064 67.7905299,12.9758198 68.4720004,13.8956707 C69.1538802,14.8163314 69.6458487,15.8657387 69.9491338,17.0426782 C70.2520096,18.2208323 70.3600625,19.4516188 70.273702,20.7358472 L58.1652196,20.7358472 C58.230297,22.212386 58.6088917,23.2828463 59.3014131,23.9464184 Z M64.5121043,15.2122883 C63.9599699,14.6126848 63.1213315,14.3126806 61.9965982,14.3126806 C61.2602826,14.3126806 60.6492103,14.4361641 60.1621533,14.6819165 C59.6755056,14.9288836 59.28586,15.2337461 58.9940351,15.5973139 C58.7018009,15.9612866 58.4959272,16.3475268 58.3776419,16.7536054 C58.2581288,17.1600888 58.1877306,17.5240615 58.1660382,17.8451186 L65.6650787,17.8451186 C65.4477449,16.6888272 65.0634201,15.8118918 64.5121043,15.2122883 Z M70.3310028,14.377054 L70.3310028,11.3264041 L73.0900374,11.3264041 L73.0900374,10.0417708 C73.0900374,8.5648271 73.5549927,7.35549847 74.4861311,6.41297519 C75.4164508,5.47126164 76.8235953,5 78.7063366,5 C79.1172654,5 79.5290127,5.01659942 79.9399415,5.04817881 C80.3508702,5.08056793 80.7515667,5.10769381 81.1416216,5.12874674 L81.1416216,8.53243798 C80.5813959,8.46741444 80.0177714,8.435239 79.4537031,8.43608036 C78.8258498,8.43608036 78.3764476,8.58102165 78.1063152,8.87009451 C77.8353641,9.15876251 77.7007072,9.64621871 77.7007072,10.3312485 L77.7007072,11.3264041 L80.8817214,11.3264041 L80.8817214,14.377054 L77.7007072,14.377054 L77.7007072,27.9286602 L73.090856,27.9286602 L73.090856,14.377054 L70.3310028,14.377054 Z M81.4911566,16.0309232 C81.9020854,14.9499365 82.4865538,14.0292759 83.2441525,13.2689414 C84.0013419,12.5098214 84.9099693,11.9207444 85.9708531,11.5033297 C87.0309183,11.0855101 88.2211382,10.8770051 89.5419222,10.8770051 C90.861069,10.8770051 92.0578376,11.0855101 93.1297723,11.5033297 C94.2008884,11.9207444 95.1164737,12.5098214 95.8724352,13.2689414 C96.6312618,14.0292759 97.2153209,14.9499365 97.6262497,16.0309232 C98.0363599,17.11191 98.2426428,18.3163802 98.2426428,19.6435243 C98.2426428,20.9706683 98.0363599,22.1694705 97.6262497,23.2403356 C97.2153209,24.3112008 96.6308525,25.2257884 95.8724352,25.9857181 C95.1160644,26.7456477 94.2008884,27.3290567 93.1297723,27.7355401 C92.0582469,28.1420235 90.861069,28.3460749 89.5419222,28.3460749 C88.2211382,28.3460749 87.0309183,28.1420235 85.9708531,27.7355401 C84.9099693,27.3290567 84.0013419,26.7456477 83.2441525,25.9857181 C82.4861445,25.2257884 81.9020854,24.3107959 81.4911566,23.2403356 C81.0794093,22.1694705 80.8739449,20.9710732 80.8739449,19.6435243 C80.8739449,18.3159754 81.0794093,17.11191 81.4911566,16.0309232 Z M85.6786189,21.5860615 C85.8083643,22.2180541 86.0297911,22.7856734 86.3445363,23.2881096 C86.6529799,23.7866556 87.082705,24.2008754 87.5945128,24.4929847 C88.1134945,24.792584 88.762631,24.9419788 89.5419222,24.9419788 C90.3212134,24.9419788 90.9752613,24.792584 91.505294,24.4929847 C92.0353266,24.1933854 92.4581248,23.7917603 92.7720514,23.2881096 C93.0859781,22.7856734 93.3082234,22.2176493 93.4387874,21.5860615 C93.5677143,20.9548786 93.6336102,20.3075012 93.6336102,19.6435243 C93.6336102,18.9803571 93.5681236,18.3265018 93.4387874,17.6843876 C93.3082234,17.0422734 93.0859781,16.4754638 92.7720514,15.9827444 C92.4581248,15.4908347 92.0353266,15.0892097 91.505294,14.7782742 C90.9752613,14.4685532 90.3212134,14.3126806 89.5419222,14.3126806 C88.762631,14.3126806 88.1134945,14.4685532 87.5945128,14.7782742 C87.0876342,15.0766053 86.6593077,15.4893382 86.3445363,15.9827444 C86.0297911,16.4754638 85.8083643,17.0422734 85.6786189,17.6843876 C85.5485487,18.3294838 85.4832903,18.9857227 85.4837961,19.6435243 C85.4837961,20.3075012 85.5488734,20.9548786 85.6786189,21.5860615 Z M104.289107,11.3264041 L104.289107,14.4090382 L104.353776,14.4090382 C104.569472,13.8952659 104.862116,13.4191459 105.230069,12.9802734 C105.598022,12.5414008 106.020002,12.1664968 106.496417,11.8567759 C106.96928,11.5478307 107.482838,11.3046599 108.022665,11.1340937 C108.568198,10.9619761 109.137568,10.8752337 109.710175,10.8770051 C110.013869,10.8770051 110.349079,10.930852 110.717441,11.0373312 L110.717441,15.2762568 C110.459457,15.2276406 110.199444,15.1902223 109.93815,15.1641095 C109.646853,15.1325886 109.354071,15.1163712 109.061038,15.1155258 C108.217079,15.1155258 107.502865,15.2552039 106.918806,15.5333454 C106.334338,15.8118918 105.863652,16.1916542 105.507159,16.6730375 C105.149848,17.1548256 104.894859,17.7167767 104.74383,18.358891 C104.592802,19.0010052 104.516674,19.6969663 104.516674,20.4467744 L104.516674,27.9286602 L99.9072317,27.9286602 L99.9072317,11.3264041 L104.289107,11.3264041 Z M116.704559,11.3264041 L116.704559,13.5742088 L116.768817,13.5742088 C117.37416,12.7187312 118.105973,12.0543495 118.960165,11.5830879 C119.814765,11.1130408 120.7942,10.8770051 121.89806,10.8770051 C122.958534,10.8770051 123.926918,11.0806517 124.80403,11.4871351 C125.680323,11.8936185 126.345422,12.6110374 126.800964,13.6385821 C127.298253,12.9106368 127.973993,12.2685225 128.829822,11.7118346 C129.684423,11.1551467 130.695782,10.8770051 131.865128,10.8770051 C132.752473,10.8770051 133.57433,10.9842941 134.331519,11.1980622 C135.089937,11.4122353 135.738664,11.755155 136.279747,12.2256069 C136.819603,12.6968686 137.241992,13.3122618 137.546505,14.0717866 C137.848153,14.8321211 138,15.7475185 138,16.8179788 L138,27.9286602 L133.38933,27.9286602 L133.38933,18.5196219 C133.38933,17.962934 133.368456,17.4386352 133.324662,16.9459158 C133.282096,16.4540061 133.162992,16.0260649 132.96776,15.6616873 C132.772937,15.2981195 132.486024,15.0090466 132.107838,14.7944687 C131.728834,14.5807006 131.215583,14.4734116 130.566037,14.4734116 C129.916082,14.4734116 129.392189,14.5968951 128.990674,14.8426475 C128.599287,15.0794623 128.275427,15.4111064 128.049712,15.8062237 C127.822555,16.2025855 127.670708,16.6519845 127.595398,17.1548256 C127.519358,17.659703 127.481598,18.169499 127.482434,18.6799481 L127.482434,27.9286602 L122.871764,27.9286602 L122.871764,18.6159796 C122.871764,18.1232601 122.861123,17.6366137 122.839021,17.1548256 C122.816919,16.6730375 122.726056,16.2289017 122.562749,15.8224183 C122.401079,15.4159349 122.130128,15.0892097 121.752352,14.8426475 C121.372938,14.5968951 120.815483,14.4734116 120.079986,14.4734116 C119.862652,14.4734116 119.576558,14.5215904 119.218837,14.617948 C118.861116,14.7143057 118.516083,14.8960896 118.180464,15.1641095 C117.845664,15.4317246 117.558341,15.8171551 117.320133,16.3195912 C117.081925,16.823242 116.96364,17.4811459 116.96364,18.2949224 L116.96364,27.9286602 L112.35297,27.9286602 L112.35297,11.3264041 L116.704559,11.3264041 Z" id="Shape"></path>
                            <polygon id="Shape" points="143 0 147 0 147 39 143 39"></polygon>
                        </g>
                    </g>
                </g>
            </g>
        </g>
    </g>
</svg>