<svg width="52" height="50" viewBox="0 0 52 50" fill="none" xmlns="http://www.w3.org/2000/svg">
<path d="M15.4549 37.019H5.23694C3.0278 37.019 1.23694 35.2281 1.23694 33.019V5C1.23694 2.79086 3.0278 1 5.23694 1H47C49.2091 1 51 2.79086 51 5V33.019C51 35.2281 49.2091 37.019 47 37.019H36.6635" stroke="#7B39D9"/>
<path d="M19.9574 26V36.6635L14.1517 42.4692" stroke="#7B39D9"/>
<path d="M32.635 26V36.6635L38.4407 42.4692" stroke="#7B39D9"/>
<path d="M26 21.4976V47.09" stroke="#7B39D9"/>
<path d="M1.15723 10.2417H50.8428" stroke="#7B39D9"/>
<circle cx="13.7962" cy="43.1802" r="1.86967" fill="white" stroke="#7B39D9"/>
<circle cx="38.4408" cy="43.1802" r="1.86967" fill="white" stroke="#7B39D9"/>
<circle cx="25.8815" cy="46.9715" r="1.86967" fill="white" stroke="#7B39D9"/>
<circle cx="4.90994" cy="5.38394" r="1.77725" fill="#7B39D9"/>
<circle cx="10.3602" cy="5.38394" r="1.77725" fill="#7B39D9"/>
<circle cx="15.8105" cy="5.38394" r="1.77725" fill="#7B39D9"/>
</svg>
