<svg width="50" height="50" viewBox="0 0 50 50" fill="none" xmlns="http://www.w3.org/2000/svg">
<path fill-rule="evenodd" clip-rule="evenodd" d="M44.1036 27.6674V19.3434C44.1036 19.1561 44.0292 18.9764 43.8967 18.844C43.7643 18.7116 43.5847 18.6372 43.3974 18.6372H25.6795V10.4273H35.3675C35.5548 10.4273 35.7344 10.3529 35.8668 10.2205C35.9993 10.0881 36.0737 9.90844 36.0737 9.72115V1.45421C36.0737 1.36153 36.0554 1.26976 36.0199 1.18415C35.9844 1.09855 35.9324 1.02078 35.8668 0.955302C35.8012 0.889826 35.7233 0.837926 35.6376 0.802573C35.552 0.767219 35.4602 0.749106 35.3675 0.749269H14.5816C14.4889 0.749106 14.3971 0.767219 14.3115 0.802573C14.2258 0.837926 14.1479 0.889826 14.0824 0.955302C14.0168 1.02078 13.9647 1.09855 13.9292 1.18415C13.8937 1.26976 13.8754 1.36153 13.8754 1.45421V9.72115C13.8754 9.90844 13.9498 10.0881 14.0823 10.2205C14.2147 10.3529 14.3943 10.4273 14.5816 10.4273H24.2622V18.6372H6.55174C6.36445 18.6372 6.18483 18.7116 6.05239 18.844C5.91996 18.9764 5.84556 19.1561 5.84556 19.3434V27.6761H0.706183C0.613504 27.6759 0.521703 27.694 0.436032 27.7294C0.350361 27.7647 0.272503 27.8166 0.206911 27.8821C0.14132 27.9476 0.0892833 28.0254 0.053779 28.111C0.0182748 28.1966 -1.43632e-07 28.2883 0 28.381V48.9758C-1.43632e-07 49.0684 0.0182748 49.1602 0.053779 49.2458C0.0892833 49.3314 0.14132 49.4092 0.206911 49.4747C0.272503 49.5401 0.350361 49.592 0.436032 49.6274C0.521703 49.6628 0.613504 49.6809 0.706183 49.6807H12.3985C12.4912 49.6809 12.583 49.6628 12.6687 49.6274C12.7544 49.592 12.8322 49.5401 12.8978 49.4747C12.9634 49.4092 13.0154 49.3314 13.0509 49.2458C13.0864 49.1602 13.1047 49.0684 13.1047 48.9758V28.381C13.1047 28.2883 13.0864 28.1966 13.0509 28.111C13.0154 28.0254 12.9634 27.9476 12.8978 27.8821C12.8322 27.8166 12.7544 27.7647 12.6687 27.7294C12.583 27.694 12.4912 27.6759 12.3985 27.6761H7.25296V20.0483H24.2684V27.6761H19.1278C19.0351 27.6759 18.9433 27.694 18.8576 27.7294C18.7719 27.7647 18.6941 27.8166 18.6285 27.8821C18.5629 27.9476 18.5109 28.0254 18.4754 28.111C18.4399 28.1966 18.4216 28.2883 18.4216 28.381V48.9758C18.4216 49.0684 18.4399 49.1602 18.4754 49.2458C18.5109 49.3314 18.5629 49.4092 18.6285 49.4747C18.6941 49.5401 18.7719 49.592 18.8576 49.6274C18.9433 49.6628 19.0351 49.6809 19.1278 49.6807H30.8214C30.9139 49.6807 31.0056 49.6625 31.0911 49.627C31.1767 49.5916 31.2544 49.5397 31.3198 49.4742C31.3853 49.4088 31.4372 49.3311 31.4726 49.2455C31.5081 49.16 31.5263 49.0683 31.5263 48.9758V28.381C31.5263 28.2884 31.5081 28.1968 31.4726 28.1112C31.4372 28.0257 31.3853 27.948 31.3198 27.8825C31.2544 27.8171 31.1767 27.7652 31.0911 27.7297C31.0056 27.6943 30.9139 27.6761 30.8214 27.6761H25.6795V20.0483H42.6912V27.6674H37.6027C37.4154 27.6674 37.2358 27.7418 37.1034 27.8742C36.9709 28.0067 36.8965 28.1863 36.8965 28.3736V48.9671C36.8965 49.1544 36.9709 49.334 37.1034 49.4664C37.2358 49.5989 37.4154 49.6733 37.6027 49.6733H49.2938C49.4811 49.6733 49.6607 49.5989 49.7932 49.4664C49.9256 49.334 50 49.1544 50 48.9671V28.3736C50 28.1865 49.9258 28.0071 49.7936 27.8747C49.6614 27.7423 49.4821 27.6677 49.2951 27.6674H44.1036ZM23.5523 9.01497V2.16039H34.6613V9.01497H23.5523ZM15.2866 2.16039H22.1461V9.01497H15.2866V2.16039ZM1.41237 48.2696V33.7376H11.6924L11.6874 48.2696H1.41237ZM1.41237 32.3252V29.0872H11.6924L11.6874 32.3252H1.41237ZM19.8339 48.2696V33.7376H30.1152V48.2696H19.8339ZM19.8339 32.3252V29.0872H30.1152V32.3252H19.8339ZM43.3564 29.0798C43.3701 29.0798 43.3825 29.0872 43.3974 29.0872C43.4123 29.0872 43.4234 29.0798 43.4383 29.0798H48.5889V32.3178H38.3101L38.3064 29.0798H43.3564ZM38.3101 48.2609V33.7289H48.5889L48.5852 48.2609H38.3101Z" fill="#7B39D9"/>
</svg>
