<svg width="50" height="50" viewBox="0 0 50 50" fill="none" xmlns="http://www.w3.org/2000/svg">
<path d="M38.3722 23.2559H35.1803C34.9121 21.8665 34.3664 20.5456 33.5757 19.3721L35.8315 17.1221L32.878 14.1686L30.628 16.4245C29.4545 15.6338 28.1336 15.088 26.7443 14.8198V11.6279H23.2559V14.8198C21.8665 15.088 20.5456 15.6338 19.3722 16.4245L17.1221 14.1686L14.1686 17.1221L16.4245 19.3721C15.6338 20.5456 15.088 21.8665 14.8198 23.2559H11.6279V26.7443H14.8198C15.088 28.1336 15.6338 29.4545 16.4245 30.628L14.1686 32.878L17.1221 35.8315L19.3722 33.5757C20.5456 34.3664 21.8665 34.9121 23.2559 35.1803V38.3722H26.7443V35.1803C28.1336 34.9121 29.4545 34.3664 30.628 33.5757L32.878 35.8315L35.8315 32.878L33.5757 30.628C34.3664 29.4545 34.9121 28.1336 35.1803 26.7443H38.3722V23.2559Z" stroke="#7B39D9" stroke-linecap="round" stroke-linejoin="round"/>
<path fill-rule="evenodd" clip-rule="evenodd" d="M25.0001 30.2327C22.1102 30.2327 19.7675 27.89 19.7675 25.0002C19.7675 22.1103 22.1102 19.7676 25.0001 19.7676C27.8899 19.7676 30.2326 22.1103 30.2326 25.0002C30.2326 27.89 27.8899 30.2327 25.0001 30.2327Z" stroke="#7B39D9" stroke-linecap="round" stroke-linejoin="round"/>
<path d="M24.8016 43.4264V41.1978H25.1985V43.4264V43.7151L25.4485 43.8595L27.5211 45.0561V47.9671L25.0001 49.4226L22.479 47.9671V45.0561L24.5516 43.8595L24.8016 43.7151V43.4264Z" stroke="#7B39D9"/>
<path d="M11.8766 37.6463L13.4525 36.0704L13.7332 36.351L12.1573 37.9269L11.9531 38.1311L12.0279 38.4099L12.6473 40.7216L10.5888 42.78L7.77701 42.0265L7.02358 39.2147L9.08199 37.1563L11.3936 37.7757L11.6725 37.8504L11.8766 37.6463Z" stroke="#7B39D9"/>
<path d="M11.2952 11.5759L12.8711 13.1518L13.1518 12.8712L11.5759 11.2952L11.3717 11.0911L11.4465 10.8123L12.0659 8.50061L10.0075 6.4422L7.19561 7.19563L6.44218 10.0075L8.50059 12.0659L10.8123 11.4465L11.0911 11.3718L11.2952 11.5759Z" stroke="#7B39D9"/>
<path d="M6.57352 25.3127L8.8022 25.3127L8.8022 24.9158L6.57352 24.9158L6.28484 24.9158L6.1405 24.6658L4.9439 22.5932L2.03287 22.5932L0.577351 25.1142L2.03287 27.6353L4.9439 27.6353L6.1405 25.5627L6.28484 25.3127L6.57352 25.3127Z" stroke="#7B39D9"/>
<path d="M43.4265 25.3127L41.1978 25.3127L41.1978 24.9158L43.4265 24.9158L43.7152 24.9158L43.8595 24.6658L45.0561 22.5932L47.9671 22.5932L49.4226 25.1142L47.9671 27.6353L45.0561 27.6353L43.8595 25.5627L43.7152 25.3127L43.4265 25.3127Z" stroke="#7B39D9"/>
<path d="M38.5084 37.6463L36.9325 36.0704L36.6518 36.351L38.2278 37.9269L38.4319 38.1311L38.3572 38.4099L37.7378 40.7216L39.7962 42.78L42.608 42.0265L43.3614 39.2147L41.303 37.1563L38.9914 37.7757L38.7125 37.8504L38.5084 37.6463Z" stroke="#7B39D9"/>
<path d="M38.5084 12.1574L36.9325 13.7333L36.6518 13.4527L38.2278 11.8768L38.4319 11.6727L38.3572 11.3938L37.7378 9.08215L39.7962 7.02374L42.608 7.77717L43.3614 10.589L41.303 12.6474L38.9914 12.028L38.7125 11.9533L38.5084 12.1574Z" stroke="#7B39D9"/>
<path d="M24.8016 6.57356V8.80225H25.1985V6.57356V6.28489L25.4485 6.14055L27.5211 4.94394V2.03291L25.0001 0.577396L22.479 2.03291V4.94394L24.5516 6.14055L24.8016 6.28489V6.57356Z" stroke="#7B39D9"/>
</svg>
