<svg width="50" height="51" viewBox="0 0 50 51" fill="none" xmlns="http://www.w3.org/2000/svg">
<path fill-rule="evenodd" clip-rule="evenodd" d="M29.4643 50.1249C28.9714 50.1249 28.5714 49.7249 28.5714 49.232V34.9463C28.5714 34.4535 28.9714 34.0535 29.4643 34.0535H43.75C44.2428 34.0535 44.6428 34.4535 44.6428 34.9463V49.232C44.6428 49.7249 44.2428 50.1249 43.75 50.1249H29.4643ZM42.8571 48.3392V35.8392H30.3571V48.3392H42.8571Z" fill="#7B39D9"/>
<path fill-rule="evenodd" clip-rule="evenodd" d="M0.892857 50.1249C0.4 50.1249 0 49.7249 0 49.232V34.9463C0 34.4535 0.4 34.0535 0.892857 34.0535H15.1786C15.6714 34.0535 16.0714 34.4535 16.0714 34.9463V49.232C16.0714 49.7249 15.6714 50.1249 15.1786 50.1249H0.892857ZM14.2857 48.3392V35.8392H1.78571V48.3392H14.2857Z" fill="#7B39D9"/>
<path fill-rule="evenodd" clip-rule="evenodd" d="M29.4643 21.5536C28.9714 21.5536 28.5714 21.1536 28.5714 20.6607V6.375C28.5714 6.1375 28.6661 5.91071 28.8321 5.74286L34.1893 0.385714C34.3571 0.219643 34.5839 0.125 34.8214 0.125H49.1071C49.6 0.125 50 0.525 50 1.01786V15.3036C50 15.5411 49.9053 15.7679 49.7393 15.9357L44.3821 21.2929C44.2143 21.4589 43.9875 21.5536 43.75 21.5536H29.4643ZM43.3803 19.7679L48.2143 14.9339V1.91071H35.1911L30.3571 6.74464V19.7679H43.3803Z" fill="#7B39D9"/>
<path fill-rule="evenodd" clip-rule="evenodd" d="M29.4643 21.5536C28.9714 21.5536 28.5714 21.1536 28.5714 20.6607V6.37503C28.5714 5.88218 28.9714 5.48218 29.4643 5.48218H43.75C44.2428 5.48218 44.6428 5.88218 44.6428 6.37503V20.6607C44.6428 21.1536 44.2428 21.5536 43.75 21.5536H29.4643ZM42.8571 19.7679V7.26789H30.3571V19.7679H42.8571Z" fill="#7B39D9"/>
<path fill-rule="evenodd" clip-rule="evenodd" d="M0.892857 21.5536C0.4 21.5536 0 21.1536 0 20.6607V6.37503C0 5.88218 0.4 5.48218 0.892857 5.48218H15.1786C15.6714 5.48218 16.0714 5.88218 16.0714 6.37503V20.6607C16.0714 21.1536 15.6714 21.5536 15.1786 21.5536H0.892857ZM14.2857 19.7679V7.26789H1.78571V19.7679H14.2857Z" fill="#7B39D9"/>
<path d="M43.1179 35.5785C42.7697 35.2303 42.7697 34.6642 43.1179 34.316L47.5822 29.8517C47.9304 29.5035 48.4965 29.5035 48.8447 29.8517C49.1929 30.2 49.1929 30.766 48.8447 31.1142L44.3804 35.5785C44.2072 35.7517 43.9786 35.8392 43.7501 35.8392C43.5215 35.8392 43.2929 35.7517 43.1179 35.5785Z" fill="#7B39D9"/>
<path d="M14.5464 35.5785C14.1982 35.2303 14.1982 34.6642 14.5464 34.316L19.0107 29.8517C19.3589 29.5035 19.925 29.5035 20.2732 29.8517C20.6214 30.2 20.6214 30.766 20.2732 31.1142L15.8089 35.5785C15.6357 35.7517 15.4072 35.8392 15.1786 35.8392C14.95 35.8392 14.7214 35.7517 14.5464 35.5785Z" fill="#7B39D9"/>
<path d="M43.1179 7.00723C42.7697 6.65902 42.7697 6.09295 43.1179 5.74473L47.5822 1.28045C47.9304 0.932234 48.4965 0.932234 48.8447 1.28045C49.1929 1.62866 49.1929 2.19473 48.8447 2.54295L44.3804 7.00723C44.2072 7.18045 43.9786 7.26795 43.7501 7.26795C43.5215 7.26795 43.2929 7.18045 43.1179 7.00723Z" fill="#7B39D9"/>
<path d="M14.5464 7.00723C14.1982 6.65902 14.1982 6.09295 14.5464 5.74473L19.0107 1.28045C19.3589 0.932234 19.925 0.932234 20.2732 1.28045C20.6214 1.62866 20.6214 2.19473 20.2732 2.54295L15.8089 7.00723C15.6357 7.18045 15.4072 7.26795 15.1786 7.26795C14.95 7.26795 14.7214 7.18045 14.5464 7.00723Z" fill="#7B39D9"/>
<path d="M18.75 41.1964C18.2571 41.1964 17.8571 40.7964 17.8571 40.3035C17.8571 39.8106 18.2571 39.4106 18.75 39.4106H28.5714C29.0643 39.4106 29.4643 39.8106 29.4643 40.3035C29.4643 40.7964 29.0643 41.1964 28.5714 41.1964H18.75Z" fill="#7B39D9"/>
<path d="M18.75 12.6251C18.2571 12.6251 17.8571 12.2251 17.8571 11.7322C17.8571 11.2394 18.2571 10.8394 18.75 10.8394H28.5714C29.0643 10.8394 29.4643 11.2394 29.4643 11.7322C29.4643 12.2251 29.0643 12.6251 28.5714 12.6251H18.75Z" fill="#7B39D9"/>
<path d="M28.5714 49.2322V34.9465C28.5714 34.709 28.6661 34.4822 28.8321 34.3143L34.1893 28.9572C34.5375 28.609 35.1036 28.609 35.4518 28.9572C35.8 29.3054 35.8 29.8715 35.4518 30.2197L30.3571 35.3161V48.3393H43.3803L48.2143 43.5054V30.4822H41.9643C41.4714 30.4822 41.0714 30.0822 41.0714 29.5893C41.0714 29.0965 41.4714 28.6965 41.9643 28.6965H49.1071C49.6 28.6965 50 29.0965 50 29.5893V43.8751C50 44.1126 49.9053 44.3393 49.7393 44.5072L44.3821 49.8643C44.2143 50.0304 43.9875 50.1251 43.75 50.1251H29.4643C28.9714 50.1251 28.5714 49.7251 28.5714 49.2322Z" fill="#7B39D9"/>
<path d="M37.5 31.3749V21.5535C37.5 21.0606 37.9 20.6606 38.3929 20.6606C38.8857 20.6606 39.2857 21.0606 39.2857 21.5535V31.3749C39.2857 31.8678 38.8857 32.2678 38.3929 32.2678C37.9 32.2678 37.5 31.8678 37.5 31.3749Z" fill="#7B39D9"/>
<path d="M8.92859 31.3749V21.5535C8.92859 21.0606 9.32859 20.6606 9.82145 20.6606C10.3143 20.6606 10.7143 21.0606 10.7143 21.5535V31.3749C10.7143 31.8678 10.3143 32.2678 9.82145 32.2678C9.32859 32.2678 8.92859 31.8678 8.92859 31.3749Z" fill="#7B39D9"/>
<path d="M0 20.6607V6.375C0 6.1375 0.0946427 5.91071 0.260714 5.74286L5.61786 0.385714C5.78571 0.219643 6.0125 0.125 6.25 0.125H20.5357C21.0286 0.125 21.4286 0.525 21.4286 1.01786V8.16071C21.4286 8.65357 21.0286 9.05357 20.5357 9.05357C20.0429 9.05357 19.6429 8.65357 19.6429 8.16071V1.91071H6.61964L1.78571 6.74464V19.7679H14.8089L19.9054 14.6714C20.2536 14.3232 20.8196 14.3232 21.1679 14.6714C21.5161 15.0196 21.5161 15.5857 21.1679 15.9339L15.8107 21.2911C15.6429 21.4589 15.4161 21.5536 15.1786 21.5536H0.892857C0.4 21.5536 0 21.1536 0 20.6607Z" fill="#7B39D9"/>
<path d="M0.892857 50.1251C0.4 50.1251 0 49.7251 0 49.2322V34.9465C0 34.709 0.0946427 34.4822 0.260714 34.3143L5.61786 28.9572C5.96607 28.609 6.53214 28.609 6.88036 28.9572C7.22857 29.3054 7.22857 29.8715 6.88036 30.2197L1.78571 35.3161V48.3393H14.8089L19.9054 43.2429C20.2536 42.8947 20.8196 42.8947 21.1679 43.2429C21.5161 43.5911 21.5161 44.1572 21.1679 44.5054L15.8107 49.8626C15.6429 50.0304 15.4161 50.1251 15.1786 50.1251H0.892857Z" fill="#7B39D9"/>
<path d="M19.6429 30.4822H13.3929C12.9 30.4822 12.5 30.0822 12.5 29.5894C12.5 29.0965 12.9 28.6965 13.3929 28.6965H20.5357C21.0286 28.6965 21.4286 29.0965 21.4286 29.5894V36.7322C21.4286 37.2251 21.0286 37.6251 20.5357 37.6251C20.0429 37.6251 19.6429 37.2251 19.6429 36.7322V30.4822Z" fill="#7B39D9"/>
</svg>
