<?xml version="1.0" encoding="UTF-8"?>
<svg width="654px" height="61px" viewBox="0 0 654 61" version="1.1" xmlns="http://www.w3.org/2000/svg" xmlns:xlink="http://www.w3.org/1999/xlink">
    <!-- Generator: Sketch 55.2 (78181) - https://sketchapp.com -->
    <title>Group 14</title>
    <desc>Created with Sketch.</desc>
    <defs>
        <path d="M39.5478516,38.0073242 L39.5478516,32.1889648 C39.5478516,31.2104443 39.1845739,30.7211914 38.4580078,30.7211914 C38.0947247,30.7211914 37.7475602,30.8676743 37.4165039,31.1606445 C37.0854476,31.4536147 36.7353534,31.8520483 36.3662109,32.355957 L36.3662109,38.0073242 L34.2216797,38.0073242 L34.2216797,29.0776367 L36.0761719,29.0776367 L36.1289062,30.3959961 C36.3105478,30.1674793 36.4995107,29.9594736 36.6958008,29.7719727 C36.8920908,29.5844717 37.104491,29.4248053 37.3330078,29.2929688 C37.5615246,29.1611322 37.8076159,29.0600589 38.0712891,28.9897461 C38.3349623,28.9194332 38.6308577,28.8842773 38.9589844,28.8842773 C39.4160179,28.8842773 39.8144514,28.9589836 40.1542969,29.1083984 C40.4941423,29.2578132 40.7783192,29.4687486 41.0068359,29.7412109 C41.2353527,30.0136732 41.4067377,30.341795 41.5209961,30.7255859 C41.6352545,31.1093769 41.6923828,31.5385718 41.6923828,32.0131836 L41.6923828,38.0073242 L39.5478516,38.0073242 Z M52.1513672,33.3842773 C52.1513672,34.2045939 52.0356457,34.9135712 51.8041992,35.5112305 C51.5727527,36.1088897 51.2504903,36.6054668 50.8374023,37.0009766 C50.4243143,37.3964864 49.9365263,37.6894522 49.3740234,37.8798828 C48.8115206,38.0703135 48.1992221,38.1655273 47.5371094,38.1655273 C47.314452,38.1655273 47.091798,38.1508791 46.8691406,38.121582 C46.6464833,38.092285 46.4443368,38.0541995 46.2626953,38.0073242 L46.2626953,41.496582 L44.1181641,41.496582 L44.1181641,29.0776367 L45.9726562,29.0776367 L46.0253906,30.3959961 C46.2070322,30.1674793 46.3959951,29.9594736 46.5922852,29.7719727 C46.7885752,29.5844717 47.0009754,29.4248053 47.2294922,29.2929688 C47.458009,29.1611322 47.7041002,29.0600589 47.9677734,28.9897461 C48.2314466,28.9194332 48.5273421,28.8842773 48.8554688,28.8842773 C49.3828151,28.8842773 49.8515604,28.989745 50.2617188,29.2006836 C50.6718771,29.4116221 51.0161119,29.7119121 51.2944336,30.1015625 C51.5727553,30.4912129 51.7851555,30.9628879 51.9316406,31.5166016 C52.0781257,32.0703153 52.1513672,32.6928676 52.1513672,33.3842773 Z M49.9013672,33.472168 C49.9013672,32.979978 49.8662113,32.5610369 49.7958984,32.215332 C49.7255856,31.8696272 49.6245124,31.5854503 49.4926758,31.362793 C49.3608392,31.1401356 49.199708,30.9775396 49.0092773,30.875 C48.8188467,30.7724604 48.6005872,30.7211914 48.3544922,30.7211914 C47.9912091,30.7211914 47.6440446,30.8676743 47.3129883,31.1606445 C46.9819319,31.4536147 46.6318378,31.8520483 46.2626953,32.355957 L46.2626953,36.2583008 C46.432618,36.3227542 46.6420886,36.3754881 46.8911133,36.4165039 C47.140138,36.4575197 47.3935534,36.4780273 47.6513672,36.4780273 C47.9912126,36.4780273 48.3002916,36.4077155 48.5786133,36.2670898 C48.856935,36.1264641 49.0942373,35.9272474 49.2905273,35.6694336 C49.4868174,35.4116198 49.6376948,35.0966815 49.7431641,34.7246094 C49.8486333,34.3525372 49.9013672,33.9350609 49.9013672,33.472168 Z M59.7626953,38.0073242 L57.7236328,35.0014648 L55.6757812,38.0073242 L53.0830078,38.0073242 L56.4316406,33.5073242 L53.2587891,29.0776367 L55.8691406,29.0776367 L57.8730469,32.0131836 L59.8505859,29.0776367 L62.2587891,29.0776367 L59.1826172,33.4897461 L62.4257812,38.0073242 L59.7626953,38.0073242 Z M81.0322266,37.6645508 C80.6103495,37.8344735 80.1738304,37.9604488 79.7226562,38.0424805 C79.2714821,38.1245121 78.7998071,38.1655273 78.3076172,38.1655273 C77.5986293,38.1655273 76.9628934,38.0688486 76.4003906,37.8754883 C75.8378878,37.6821279 75.3603535,37.3950214 74.9677734,37.0141602 C74.5751933,36.6332989 74.2749034,36.1616239 74.0668945,35.5991211 C73.8588857,35.0366183 73.7548828,34.3862342 73.7548828,33.6479492 C73.7548828,32.9331019 73.8676747,32.2856474 74.0932617,31.7055664 C74.3188488,31.1254854 74.6367167,30.6303731 75.046875,30.2202148 C75.4570333,29.8100565 75.9506807,29.4936535 76.527832,29.2709961 C77.1049834,29.0483387 77.7480433,28.9370117 78.4570312,28.9370117 C79.0371123,28.9370117 79.5249004,28.9677731 79.9204102,29.0292969 C80.3159199,29.0908206 80.6718734,29.1684566 80.9882812,29.262207 L80.9882812,31.3452148 C80.6249982,31.1635733 80.2309592,31.0229497 79.8061523,30.9233398 C79.3813455,30.82373 78.9785175,30.7739258 78.5976562,30.7739258 C78.1992168,30.7739258 77.8417985,30.8413079 77.5253906,30.9760742 C77.2089828,31.1108405 76.9423839,31.2983386 76.7255859,31.5385742 C76.508788,31.7788098 76.3432623,32.0703108 76.2290039,32.4130859 C76.1147455,32.7558611 76.0576172,33.1323222 76.0576172,33.5424805 C76.0576172,33.970217 76.11914,34.3540022 76.2421875,34.6938477 C76.365235,35.0336931 76.5395497,35.3222644 76.7651367,35.5595703 C76.9907238,35.7968762 77.2617172,35.978515 77.578125,36.1044922 C77.8945328,36.2304694 78.2460918,36.293457 78.6328125,36.293457 C78.8203134,36.293457 79.0180654,36.2802736 79.2260742,36.2539062 C79.4340831,36.2275389 79.6420888,36.1894534 79.8500977,36.1396484 C80.0581065,36.0898435 80.2631826,36.0327152 80.465332,35.9682617 C80.6674815,35.9038083 80.8564444,35.8334965 81.0322266,35.7573242 L81.0322266,37.6645508 Z M89.4521484,32.5493164 C89.4638672,32.2153304 89.4477541,31.9311535 89.4038086,31.6967773 C89.3598631,31.4624012 89.2895513,31.2690437 89.1928711,31.1166992 C89.0961909,30.9643547 88.9775398,30.8530277 88.8369141,30.7827148 C88.6962884,30.712402 88.5351572,30.6772461 88.3535156,30.6772461 C88.0371078,30.6772461 87.7104509,30.8076159 87.3735352,31.0683594 C87.0366194,31.3291029 86.6660176,31.7582978 86.2617188,32.355957 L86.2617188,38.0073242 L84.0644531,38.0073242 L84.0644531,29.0776367 L86.0068359,29.0776367 L86.0859375,30.378418 C86.2324226,30.1499012 86.3979483,29.9448251 86.5825195,29.7631836 C86.7670908,29.5815421 86.9721668,29.4248053 87.1977539,29.2929688 C87.423341,29.1611322 87.6738267,29.0600589 87.9492188,28.9897461 C88.2246108,28.9194332 88.5263655,28.8842773 88.8544922,28.8842773 C89.3056663,28.8842773 89.7055647,28.9619133 90.0541992,29.1171875 C90.4028338,29.2724617 90.6957996,29.5024399 90.9331055,29.8071289 C91.1704113,30.1118179 91.3461908,30.4941383 91.4604492,30.9541016 C91.5747076,31.4140648 91.623047,31.9457978 91.6054688,32.5493164 L89.4521484,32.5493164 Z M101.378906,32.8569336 C101.378906,33.0034187 101.374512,33.1938465 101.365723,33.4282227 C101.356934,33.6625988 101.34375,33.8823232 101.326172,34.0874023 L95.4550781,34.0874023 C95.4550781,34.4799824 95.5151361,34.8256821 95.6352539,35.1245117 C95.7553717,35.4233413 95.9252919,35.6738271 96.1450195,35.8759766 C96.3647472,36.078126 96.6284164,36.2319331 96.9360352,36.3374023 C97.2436539,36.4428716 97.5849591,36.4956055 97.9599609,36.4956055 C98.3935569,36.4956055 98.8579077,36.4619144 99.3530273,36.3945312 C99.848147,36.3271481 100.362302,36.2172859 100.895508,36.0649414 L100.895508,37.7700195 C100.666991,37.834473 100.41797,37.8930661 100.148438,37.9458008 C99.8789049,37.9985354 99.603517,38.04541 99.3222656,38.0864258 C99.0410142,38.1274416 98.7568374,38.158203 98.4697266,38.1787109 C98.1826158,38.1992189 97.9042982,38.2094727 97.6347656,38.2094727 C96.9550747,38.2094727 96.3457058,38.1127939 95.8066406,37.9194336 C95.2675754,37.7260733 94.8105488,37.4404316 94.4355469,37.0625 C94.060545,36.6845684 93.7734385,36.2172879 93.5742188,35.6606445 C93.374999,35.1040011 93.2753906,34.4594763 93.2753906,33.7270508 C93.2753906,33.0004846 93.374999,32.3398467 93.5742188,31.7451172 C93.7734385,31.1503877 94.0546857,30.6406271 94.4179688,30.2158203 C94.7812518,29.7910135 95.2221654,29.4628918 95.7407227,29.2314453 C96.2592799,28.9999988 96.8378874,28.8842773 97.4765625,28.8842773 C98.1093782,28.8842773 98.6689429,28.9824209 99.1552734,29.1787109 C99.641604,29.375001 100.048826,29.648924 100.376953,30.0004883 C100.70508,30.3520525 100.954101,30.7709937 101.124023,31.2573242 C101.293946,31.7436548 101.378906,32.2768526 101.378906,32.8569336 Z M99.1992188,32.5493164 C99.2050782,32.1977521 99.1611333,31.8916029 99.0673828,31.6308594 C98.9736323,31.3701159 98.8461922,31.154786 98.6850586,30.9848633 C98.523925,30.8149406 98.3364269,30.6889653 98.1225586,30.6069336 C97.9086903,30.5249019 97.6787122,30.4838867 97.4326172,30.4838867 C96.893552,30.4838867 96.4511736,30.6640607 96.1054688,31.0244141 C95.7597639,31.3847674 95.5546878,31.8930631 95.4902344,32.5493164 L99.1992188,32.5493164 Z M109.095703,38.0073242 L109.042969,36.8383789 C108.855468,37.0375987 108.659181,37.2207023 108.454102,37.3876953 C108.249022,37.5546883 108.023439,37.6997064 107.777344,37.8227539 C107.531249,37.9458014 107.263185,38.0410153 106.973145,38.1083984 C106.683104,38.1757816 106.365236,38.2094727 106.019531,38.2094727 C105.562498,38.2094727 105.161135,38.1420905 104.81543,38.0073242 C104.469725,37.8725579 104.179689,37.6850598 103.945312,37.4448242 C103.710936,37.2045886 103.533692,36.9145525 103.413574,36.574707 C103.293456,36.2348616 103.233398,35.8598653 103.233398,35.449707 C103.233398,35.0278299 103.322753,34.6381854 103.501465,34.2807617 C103.680177,33.9233381 103.952635,33.6157239 104.318848,33.3579102 C104.68506,33.1000964 105.142087,32.89795 105.689941,32.7514648 C106.237796,32.6049797 106.880856,32.5317383 107.619141,32.5317383 L108.788086,32.5317383 L108.788086,31.9956055 C108.788086,31.7670887 108.75586,31.5605478 108.691406,31.3759766 C108.626953,31.1914053 108.52295,31.0346686 108.379395,30.9057617 C108.235839,30.7768548 108.049806,30.6772464 107.821289,30.6069336 C107.592772,30.5366207 107.311525,30.5014648 106.977539,30.5014648 C106.450193,30.5014648 105.930178,30.5615228 105.41748,30.6816406 C104.904783,30.8017584 104.408206,30.9702138 103.927734,31.1870117 L103.927734,29.4731445 C104.355471,29.3032218 104.849118,29.1625982 105.408691,29.0512695 C105.968265,28.9399408 106.549802,28.8842773 107.15332,28.8842773 C107.815433,28.8842773 108.383787,28.947265 108.858398,29.0732422 C109.33301,29.1992194 109.72412,29.3881823 110.031738,29.6401367 C110.339357,29.8920911 110.566406,30.2070294 110.712891,30.5849609 C110.859376,30.9628925 110.932617,31.4038061 110.932617,31.9077148 L110.932617,38.0073242 L109.095703,38.0073242 Z M108.788086,34.0610352 L107.478516,34.0610352 C107.115233,34.0610352 106.807618,34.0961911 106.555664,34.1665039 C106.30371,34.2368168 106.098634,34.3334955 105.94043,34.456543 C105.782226,34.5795905 105.666504,34.7216789 105.593262,34.8828125 C105.520019,35.0439461 105.483398,35.2153311 105.483398,35.3969727 C105.483398,35.7602557 105.600585,36.0371084 105.834961,36.2275391 C106.069337,36.4179697 106.38867,36.5131836 106.792969,36.5131836 C107.091798,36.5131836 107.402342,36.4047862 107.724609,36.1879883 C108.046877,35.9711903 108.401365,35.6606466 108.788086,35.2563477 L108.788086,34.0610352 Z M120.758789,37.9194336 C120.372068,38.0073247 119.982424,38.0776365 119.589844,38.1303711 C119.197264,38.1831057 118.825197,38.2094727 118.473633,38.2094727 C117.887692,38.2094727 117.382326,38.1479498 116.95752,38.0249023 C116.532713,37.9018549 116.181154,37.7143567 115.902832,37.4624023 C115.62451,37.210448 115.419434,36.8896504 115.287598,36.5 C115.155761,36.1103496 115.089844,35.6459988 115.089844,35.1069336 L115.089844,30.7475586 L112.69043,30.7475586 L112.69043,29.0776367 L115.089844,29.0776367 L115.089844,26.7924805 L117.287109,26.2211914 L117.287109,29.0776367 L120.758789,29.0776367 L120.758789,30.7475586 L117.287109,30.7475586 L117.287109,34.9487305 C117.287109,35.4584986 117.404296,35.8437487 117.638672,36.1044922 C117.873048,36.3652357 118.265622,36.4956055 118.816406,36.4956055 C119.167971,36.4956055 119.510741,36.4663089 119.844727,36.4077148 C120.178713,36.3491208 120.483397,36.2817387 120.758789,36.2055664 L120.758789,37.9194336 Z M131.068359,32.8569336 C131.068359,33.0034187 131.063965,33.1938465 131.055176,33.4282227 C131.046387,33.6625988 131.033203,33.8823232 131.015625,34.0874023 L125.144531,34.0874023 C125.144531,34.4799824 125.204589,34.8256821 125.324707,35.1245117 C125.444825,35.4233413 125.614745,35.6738271 125.834473,35.8759766 C126.0542,36.078126 126.31787,36.2319331 126.625488,36.3374023 C126.933107,36.4428716 127.274412,36.4956055 127.649414,36.4956055 C128.08301,36.4956055 128.547361,36.4619144 129.04248,36.3945312 C129.5376,36.3271481 130.051755,36.2172859 130.584961,36.0649414 L130.584961,37.7700195 C130.356444,37.834473 130.107423,37.8930661 129.837891,37.9458008 C129.568358,37.9985354 129.29297,38.04541 129.011719,38.0864258 C128.730467,38.1274416 128.44629,38.158203 128.15918,38.1787109 C127.872069,38.1992189 127.593751,38.2094727 127.324219,38.2094727 C126.644528,38.2094727 126.035159,38.1127939 125.496094,37.9194336 C124.957029,37.7260733 124.500002,37.4404316 124.125,37.0625 C123.749998,36.6845684 123.462892,36.2172879 123.263672,35.6606445 C123.064452,35.1040011 122.964844,34.4594763 122.964844,33.7270508 C122.964844,33.0004846 123.064452,32.3398467 123.263672,31.7451172 C123.462892,31.1503877 123.744139,30.6406271 124.107422,30.2158203 C124.470705,29.7910135 124.911619,29.4628918 125.430176,29.2314453 C125.948733,28.9999988 126.527341,28.8842773 127.166016,28.8842773 C127.798831,28.8842773 128.358396,28.9824209 128.844727,29.1787109 C129.331057,29.375001 129.73828,29.648924 130.066406,30.0004883 C130.394533,30.3520525 130.643554,30.7709937 130.813477,31.2573242 C130.983399,31.7436548 131.068359,32.2768526 131.068359,32.8569336 Z M128.888672,32.5493164 C128.894531,32.1977521 128.850586,31.8916029 128.756836,31.6308594 C128.663085,31.3701159 128.535645,31.154786 128.374512,30.9848633 C128.213378,30.8149406 128.02588,30.6889653 127.812012,30.6069336 C127.598143,30.5249019 127.368165,30.4838867 127.12207,30.4838867 C126.583005,30.4838867 126.140627,30.6640607 125.794922,31.0244141 C125.449217,31.3847674 125.244141,31.8930631 125.179688,32.5493164 L128.888672,32.5493164 Z M134.179688,34.175293 L134.179688,32.2680664 L139.646484,32.2680664 L139.646484,34.175293 L134.179688,34.175293 Z M150.413086,38.0073242 L148.03125,38.0073242 L147.082031,35.1772461 L146.791992,34.1928711 L146.501953,35.2036133 L145.587891,38.0073242 L143.197266,38.0073242 L141.931641,29.0776367 L143.970703,29.0776367 L144.612305,34.1225586 L144.761719,35.5024414 L145.12207,34.2631836 L146.018555,31.5473633 L147.65332,31.5473633 L148.611328,34.2456055 L149.024414,35.5200195 L149.191406,34.1049805 L149.727539,29.0776367 L151.669922,29.0776367 L150.413086,38.0073242 Z M160.757812,32.8569336 C160.757812,33.0034187 160.753418,33.1938465 160.744629,33.4282227 C160.73584,33.6625988 160.722656,33.8823232 160.705078,34.0874023 L154.833984,34.0874023 C154.833984,34.4799824 154.894042,34.8256821 155.01416,35.1245117 C155.134278,35.4233413 155.304198,35.6738271 155.523926,35.8759766 C155.743653,36.078126 156.007323,36.2319331 156.314941,36.3374023 C156.62256,36.4428716 156.963865,36.4956055 157.338867,36.4956055 C157.772463,36.4956055 158.236814,36.4619144 158.731934,36.3945312 C159.227053,36.3271481 159.741208,36.2172859 160.274414,36.0649414 L160.274414,37.7700195 C160.045897,37.834473 159.796876,37.8930661 159.527344,37.9458008 C159.257811,37.9985354 158.982423,38.04541 158.701172,38.0864258 C158.41992,38.1274416 158.135744,38.158203 157.848633,38.1787109 C157.561522,38.1992189 157.283204,38.2094727 157.013672,38.2094727 C156.333981,38.2094727 155.724612,38.1127939 155.185547,37.9194336 C154.646482,37.7260733 154.189455,37.4404316 153.814453,37.0625 C153.439451,36.6845684 153.152345,36.2172879 152.953125,35.6606445 C152.753905,35.1040011 152.654297,34.4594763 152.654297,33.7270508 C152.654297,33.0004846 152.753905,32.3398467 152.953125,31.7451172 C153.152345,31.1503877 153.433592,30.6406271 153.796875,30.2158203 C154.160158,29.7910135 154.601072,29.4628918 155.119629,29.2314453 C155.638186,28.9999988 156.216794,28.8842773 156.855469,28.8842773 C157.488284,28.8842773 158.047849,28.9824209 158.53418,29.1787109 C159.02051,29.375001 159.427733,29.648924 159.755859,30.0004883 C160.083986,30.3520525 160.333007,30.7709937 160.50293,31.2573242 C160.672852,31.7436548 160.757812,32.2768526 160.757812,32.8569336 Z M158.578125,32.5493164 C158.583984,32.1977521 158.54004,31.8916029 158.446289,31.6308594 C158.352539,31.3701159 158.225098,31.154786 158.063965,30.9848633 C157.902831,30.8149406 157.715333,30.6889653 157.501465,30.6069336 C157.287597,30.5249019 157.057618,30.4838867 156.811523,30.4838867 C156.272458,30.4838867 155.83008,30.6640607 155.484375,31.0244141 C155.13867,31.3847674 154.933594,31.8930631 154.869141,32.5493164 L158.578125,32.5493164 Z M170.90918,33.3842773 C170.90918,34.2045939 170.793458,34.9135712 170.562012,35.5112305 C170.330565,36.1088897 170.008303,36.6054668 169.595215,37.0009766 C169.182127,37.3964864 168.694339,37.6894522 168.131836,37.8798828 C167.569333,38.0703135 166.957035,38.1655273 166.294922,38.1655273 C165.644528,38.1655273 165.039554,38.117188 164.47998,38.0205078 C163.920407,37.9238276 163.385745,37.7934579 162.875977,37.6293945 L162.875977,25.5883789 L165.020508,25.5883789 L165.020508,28.5063477 L164.932617,30.2641602 C165.254884,29.8481425 165.631346,29.5141614 166.062012,29.262207 C166.492678,29.0102526 167.009763,28.8842773 167.613281,28.8842773 C168.140628,28.8842773 168.609373,28.989745 169.019531,29.2006836 C169.42969,29.4116221 169.773924,29.7119121 170.052246,30.1015625 C170.330568,30.4912129 170.542968,30.9628879 170.689453,31.5166016 C170.835938,32.0703153 170.90918,32.6928676 170.90918,33.3842773 Z M168.65918,33.472168 C168.65918,32.979978 168.624024,32.5610369 168.553711,32.215332 C168.483398,31.8696272 168.382325,31.5854503 168.250488,31.362793 C168.118652,31.1401356 167.95752,30.9775396 167.76709,30.875 C167.576659,30.7724604 167.3584,30.7211914 167.112305,30.7211914 C166.749022,30.7211914 166.401857,30.8676743 166.070801,31.1606445 C165.739744,31.4536147 165.38965,31.8520483 165.020508,32.355957 L165.020508,36.2583008 C165.190431,36.3227542 165.399901,36.3754881 165.648926,36.4165039 C165.89795,36.4575197 166.151366,36.4780273 166.40918,36.4780273 C166.749025,36.4780273 167.058104,36.4077155 167.336426,36.2670898 C167.614747,36.1264641 167.85205,35.9272474 168.04834,35.6694336 C168.24463,35.4116198 168.395507,35.0966815 168.500977,34.7246094 C168.606446,34.3525372 168.65918,33.9350609 168.65918,33.472168 Z M178.02832,26.6342773 C178.02832,26.8276377 177.993164,27.0092765 177.922852,27.1791992 C177.852539,27.3491219 177.754395,27.4970697 177.628418,27.6230469 C177.502441,27.7490241 177.354493,27.8486324 177.18457,27.921875 C177.014648,27.9951176 176.830079,28.0317383 176.630859,28.0317383 C176.43164,28.0317383 176.245606,27.9951176 176.072754,27.921875 C175.899901,27.8486324 175.750489,27.7490241 175.624512,27.6230469 C175.498535,27.4970697 175.400391,27.3491219 175.330078,27.1791992 C175.259765,27.0092765 175.224609,26.8276377 175.224609,26.6342773 C175.224609,26.440917 175.259765,26.2592782 175.330078,26.0893555 C175.400391,25.9194327 175.498535,25.7700202 175.624512,25.6411133 C175.750489,25.5122064 175.899901,25.4111332 176.072754,25.3378906 C176.245606,25.2646481 176.43164,25.2280273 176.630859,25.2280273 C176.830079,25.2280273 177.014648,25.2646481 177.18457,25.3378906 C177.354493,25.4111332 177.502441,25.5122064 177.628418,25.6411133 C177.754395,25.7700202 177.852539,25.9194327 177.922852,26.0893555 C177.993164,26.2592782 178.02832,26.440917 178.02832,26.6342773 Z M175.655273,30.7475586 L173.132812,30.7475586 L173.132812,29.0776367 L177.852539,29.0776367 L177.852539,36.3374023 L180.427734,36.3374023 L180.427734,38.0073242 L172.825195,38.0073242 L172.825195,36.3374023 L175.655273,36.3374023 L175.655273,30.7475586 Z M187.995117,38.0073242 L187.995117,32.1889648 C187.995117,31.2104443 187.63184,30.7211914 186.905273,30.7211914 C186.54199,30.7211914 186.194826,30.8676743 185.86377,31.1606445 C185.532713,31.4536147 185.182619,31.8520483 184.813477,32.355957 L184.813477,38.0073242 L182.668945,38.0073242 L182.668945,29.0776367 L184.523438,29.0776367 L184.576172,30.3959961 C184.757813,30.1674793 184.946776,29.9594736 185.143066,29.7719727 C185.339356,29.5844717 185.551757,29.4248053 185.780273,29.2929688 C186.00879,29.1611322 186.254881,29.0600589 186.518555,28.9897461 C186.782228,28.9194332 187.078123,28.8842773 187.40625,28.8842773 C187.863284,28.8842773 188.261717,28.9589836 188.601562,29.1083984 C188.941408,29.2578132 189.225585,29.4687486 189.454102,29.7412109 C189.682618,30.0136732 189.854003,30.341795 189.968262,30.7255859 C190.08252,31.1093769 190.139648,31.5385718 190.139648,32.0131836 L190.139648,38.0073242 L187.995117,38.0073242 Z M197.935547,37.0317383 C197.624998,37.8051796 197.301271,38.4833955 196.964355,39.0664062 C196.62744,39.649417 196.256838,40.1357402 195.852539,40.5253906 C195.44824,40.915041 194.998538,41.2080068 194.503418,41.4042969 C194.008298,41.6005869 193.453128,41.6987305 192.837891,41.6987305 C192.691406,41.6987305 192.531739,41.6914063 192.358887,41.6767578 C192.186034,41.6621093 192.00879,41.6401369 191.827148,41.6108398 L191.827148,39.7915039 C191.897461,39.8032227 191.978027,39.8164062 192.068848,39.8310547 C192.159668,39.8457032 192.254882,39.8574218 192.354492,39.8662109 C192.454102,39.875 192.555175,39.8823242 192.657715,39.8881836 C192.760254,39.894043 192.855468,39.8969727 192.943359,39.8969727 C193.189454,39.8969727 193.417968,39.8500981 193.628906,39.7563477 C193.839845,39.6625972 194.034667,39.5322274 194.213379,39.3652344 C194.392091,39.1982414 194.554687,38.9990246 194.701172,38.7675781 C194.847657,38.5361317 194.976562,38.2827162 195.087891,38.0073242 L191.545898,29.0776367 L193.936523,29.0776367 L195.791016,34.1401367 L196.344727,35.7749023 L196.889648,34.2104492 L198.761719,29.0776367 L201.064453,29.0776367 L197.935547,37.0317383 Z M203.455078,34.175293 L203.455078,32.2680664 L208.921875,32.2680664 L208.921875,34.175293 L203.455078,34.175293 Z M220.391602,33.3842773 C220.391602,34.2045939 220.27588,34.9135712 220.044434,35.5112305 C219.812987,36.1088897 219.490725,36.6054668 219.077637,37.0009766 C218.664549,37.3964864 218.176761,37.6894522 217.614258,37.8798828 C217.051755,38.0703135 216.439456,38.1655273 215.777344,38.1655273 C215.554686,38.1655273 215.332032,38.1508791 215.109375,38.121582 C214.886718,38.092285 214.684571,38.0541995 214.50293,38.0073242 L214.50293,41.496582 L212.358398,41.496582 L212.358398,29.0776367 L214.212891,29.0776367 L214.265625,30.3959961 C214.447267,30.1674793 214.636229,29.9594736 214.83252,29.7719727 C215.02881,29.5844717 215.24121,29.4248053 215.469727,29.2929688 C215.698243,29.1611322 215.944335,29.0600589 216.208008,28.9897461 C216.471681,28.9194332 216.767576,28.8842773 217.095703,28.8842773 C217.62305,28.8842773 218.091795,28.989745 218.501953,29.2006836 C218.912111,29.4116221 219.256346,29.7119121 219.534668,30.1015625 C219.81299,30.4912129 220.02539,30.9628879 220.171875,31.5166016 C220.31836,32.0703153 220.391602,32.6928676 220.391602,33.3842773 Z M218.141602,33.472168 C218.141602,32.979978 218.106446,32.5610369 218.036133,32.215332 C217.96582,31.8696272 217.864747,31.5854503 217.73291,31.362793 C217.601074,31.1401356 217.439942,30.9775396 217.249512,30.875 C217.059081,30.7724604 216.840822,30.7211914 216.594727,30.7211914 C216.231443,30.7211914 215.884279,30.8676743 215.553223,31.1606445 C215.222166,31.4536147 214.872072,31.8520483 214.50293,32.355957 L214.50293,36.2583008 C214.672852,36.3227542 214.882323,36.3754881 215.131348,36.4165039 C215.380372,36.4575197 215.633788,36.4780273 215.891602,36.4780273 C216.231447,36.4780273 216.540526,36.4077155 216.818848,36.2670898 C217.097169,36.1264641 217.334472,35.9272474 217.530762,35.6694336 C217.727052,35.4116198 217.877929,35.0966815 217.983398,34.7246094 C218.088868,34.3525372 218.141602,33.9350609 218.141602,33.472168 Z M228.00293,32.5493164 C228.014648,32.2153304 227.998535,31.9311535 227.95459,31.6967773 C227.910644,31.4624012 227.840333,31.2690437 227.743652,31.1166992 C227.646972,30.9643547 227.528321,30.8530277 227.387695,30.7827148 C227.24707,30.712402 227.085938,30.6772461 226.904297,30.6772461 C226.587889,30.6772461 226.261232,30.8076159 225.924316,31.0683594 C225.587401,31.3291029 225.216799,31.7582978 224.8125,32.355957 L224.8125,38.0073242 L222.615234,38.0073242 L222.615234,29.0776367 L224.557617,29.0776367 L224.636719,30.378418 C224.783204,30.1499012 224.94873,29.9448251 225.133301,29.7631836 C225.317872,29.5815421 225.522948,29.4248053 225.748535,29.2929688 C225.974122,29.1611322 226.224608,29.0600589 226.5,28.9897461 C226.775392,28.9194332 227.077147,28.8842773 227.405273,28.8842773 C227.856448,28.8842773 228.256346,28.9619133 228.60498,29.1171875 C228.953615,29.2724617 229.246581,29.5024399 229.483887,29.8071289 C229.721193,30.1118179 229.896972,30.4941383 230.01123,30.9541016 C230.125489,31.4140648 230.173828,31.9457978 230.15625,32.5493164 L228.00293,32.5493164 Z M240.193359,33.472168 C240.193359,34.1752965 240.093751,34.8183565 239.894531,35.4013672 C239.695312,35.9843779 239.408205,36.4838846 239.033203,36.8999023 C238.658201,37.31592 238.198245,37.6381825 237.65332,37.8666992 C237.108396,38.095216 236.487308,38.2094727 235.790039,38.2094727 C235.127926,38.2094727 234.536135,38.1127939 234.014648,37.9194336 C233.493161,37.7260733 233.050783,37.4375019 232.6875,37.0537109 C232.324217,36.66992 232.045899,36.189456 231.852539,35.6123047 C231.659179,35.0351534 231.5625,34.3627968 231.5625,33.5952148 C231.5625,32.8862269 231.663573,32.2417021 231.865723,31.6616211 C232.067872,31.0815401 232.357908,30.5864278 232.73584,30.1762695 C233.113771,29.7661112 233.575193,29.4482433 234.120117,29.2226562 C234.665042,28.9970692 235.28027,28.8842773 235.96582,28.8842773 C236.633792,28.8842773 237.228513,28.9824209 237.75,29.1787109 C238.271487,29.375001 238.713865,29.666502 239.077148,30.0532227 C239.440432,30.4399433 239.717284,30.9189425 239.907715,31.4902344 C240.098145,32.0615263 240.193359,32.7221642 240.193359,33.472168 Z M237.960938,33.5249023 C237.960938,32.5991165 237.786623,31.9033226 237.437988,31.4375 C237.089354,30.9716774 236.575199,30.7387695 235.895508,30.7387695 C235.520506,30.7387695 235.201173,30.812011 234.9375,30.9584961 C234.673827,31.1049812 234.457032,31.3056628 234.287109,31.5605469 C234.117187,31.815431 233.992676,32.1127913 233.913574,32.4526367 C233.834472,32.7924822 233.794922,33.1557598 233.794922,33.5424805 C233.794922,34.4741258 233.98242,35.1757789 234.357422,35.6474609 C234.732424,36.119143 235.245114,36.3549805 235.895508,36.3549805 C236.252931,36.3549805 236.563475,36.2832038 236.827148,36.1396484 C237.090822,35.996093 237.304687,35.7968763 237.46875,35.5419922 C237.632813,35.2871081 237.755859,34.9868181 237.837891,34.6411133 C237.919922,34.2954084 237.960938,33.9233418 237.960938,33.5249023 Z M248.586914,37.7524414 C248.586914,38.4204135 248.488771,39.0019506 248.29248,39.4970703 C248.09619,39.99219 247.814943,40.4023421 247.44873,40.7275391 C247.082518,41.052736 246.643069,41.2958976 246.130371,41.4570312 C245.617673,41.6181649 245.044925,41.6987305 244.412109,41.6987305 C243.896482,41.6987305 243.416018,41.6547856 242.970703,41.5668945 C242.525388,41.4790035 242.159181,41.3735358 241.87207,41.2504883 L241.87207,39.2817383 C242.036134,39.3696293 242.222167,39.4560543 242.430176,39.5410156 C242.638185,39.625977 242.854979,39.7021481 243.080566,39.7695312 C243.306153,39.8369144 243.536132,39.8896482 243.770508,39.9277344 C244.004884,39.9658205 244.236327,39.9848633 244.464844,39.9848633 C245.115238,39.9848633 245.601561,39.7973652 245.923828,39.4223633 C246.246095,39.0473614 246.407227,38.4965857 246.407227,37.7700195 L246.407227,30.7475586 L242.162109,30.7475586 L242.162109,29.0776367 L248.586914,29.0776367 L248.586914,37.7524414 Z M248.762695,26.6342773 C248.762695,26.8276377 248.727539,27.0092765 248.657227,27.1791992 C248.586914,27.3491219 248.48877,27.4970697 248.362793,27.6230469 C248.236816,27.7490241 248.087403,27.8486324 247.914551,27.921875 C247.741698,27.9951176 247.555665,28.0317383 247.356445,28.0317383 C247.157226,28.0317383 246.972657,27.9951176 246.802734,27.921875 C246.632812,27.8486324 246.484864,27.7490241 246.358887,27.6230469 C246.23291,27.4970697 246.134766,27.3491219 246.064453,27.1791992 C245.99414,27.0092765 245.958984,26.8276377 245.958984,26.6342773 C245.958984,26.440917 245.99414,26.2592782 246.064453,26.0893555 C246.134766,25.9194327 246.23291,25.7700202 246.358887,25.6411133 C246.484864,25.5122064 246.632812,25.4111332 246.802734,25.3378906 C246.972657,25.2646481 247.157226,25.2280273 247.356445,25.2280273 C247.555665,25.2280273 247.741698,25.2646481 247.914551,25.3378906 C248.087403,25.4111332 248.236816,25.5122064 248.362793,25.6411133 C248.48877,25.7700202 248.586914,25.9194327 248.657227,26.0893555 C248.727539,26.2592782 248.762695,26.440917 248.762695,26.6342773 Z M259.722656,32.8569336 C259.722656,33.0034187 259.718262,33.1938465 259.709473,33.4282227 C259.700684,33.6625988 259.6875,33.8823232 259.669922,34.0874023 L253.798828,34.0874023 C253.798828,34.4799824 253.858886,34.8256821 253.979004,35.1245117 C254.099122,35.4233413 254.269042,35.6738271 254.48877,35.8759766 C254.708497,36.078126 254.972166,36.2319331 255.279785,36.3374023 C255.587404,36.4428716 255.928709,36.4956055 256.303711,36.4956055 C256.737307,36.4956055 257.201658,36.4619144 257.696777,36.3945312 C258.191897,36.3271481 258.706052,36.2172859 259.239258,36.0649414 L259.239258,37.7700195 C259.010741,37.834473 258.76172,37.8930661 258.492188,37.9458008 C258.222655,37.9985354 257.947267,38.04541 257.666016,38.0864258 C257.384764,38.1274416 257.100587,38.158203 256.813477,38.1787109 C256.526366,38.1992189 256.248048,38.2094727 255.978516,38.2094727 C255.298825,38.2094727 254.689456,38.1127939 254.150391,37.9194336 C253.611325,37.7260733 253.154299,37.4404316 252.779297,37.0625 C252.404295,36.6845684 252.117188,36.2172879 251.917969,35.6606445 C251.718749,35.1040011 251.619141,34.4594763 251.619141,33.7270508 C251.619141,33.0004846 251.718749,32.3398467 251.917969,31.7451172 C252.117188,31.1503877 252.398436,30.6406271 252.761719,30.2158203 C253.125002,29.7910135 253.565915,29.4628918 254.084473,29.2314453 C254.60303,28.9999988 255.181637,28.8842773 255.820312,28.8842773 C256.453128,28.8842773 257.012693,28.9824209 257.499023,29.1787109 C257.985354,29.375001 258.392576,29.648924 258.720703,30.0004883 C259.04883,30.3520525 259.297851,30.7709937 259.467773,31.2573242 C259.637696,31.7436548 259.722656,32.2768526 259.722656,32.8569336 Z M257.542969,32.5493164 C257.548828,32.1977521 257.504883,31.8916029 257.411133,31.6308594 C257.317382,31.3701159 257.189942,31.154786 257.028809,30.9848633 C256.867675,30.8149406 256.680177,30.6889653 256.466309,30.6069336 C256.25244,30.5249019 256.022462,30.4838867 255.776367,30.4838867 C255.237302,30.4838867 254.794924,30.6640607 254.449219,31.0244141 C254.103514,31.3847674 253.898438,31.8930631 253.833984,32.5493164 L257.542969,32.5493164 Z M269.06543,37.6645508 C268.643553,37.8344735 268.207034,37.9604488 267.755859,38.0424805 C267.304685,38.1245121 266.83301,38.1655273 266.34082,38.1655273 C265.631832,38.1655273 264.996097,38.0688486 264.433594,37.8754883 C263.871091,37.6821279 263.393557,37.3950214 263.000977,37.0141602 C262.608396,36.6332989 262.308107,36.1616239 262.100098,35.5991211 C261.892089,35.0366183 261.788086,34.3862342 261.788086,33.6479492 C261.788086,32.9331019 261.900878,32.2856474 262.126465,31.7055664 C262.352052,31.1254854 262.66992,30.6303731 263.080078,30.2202148 C263.490236,29.8100565 263.983884,29.4936535 264.561035,29.2709961 C265.138186,29.0483387 265.781246,28.9370117 266.490234,28.9370117 C267.070315,28.9370117 267.558103,28.9677731 267.953613,29.0292969 C268.349123,29.0908206 268.705077,29.1684566 269.021484,29.262207 L269.021484,31.3452148 C268.658201,31.1635733 268.264162,31.0229497 267.839355,30.9233398 C267.414549,30.82373 267.011721,30.7739258 266.630859,30.7739258 C266.23242,30.7739258 265.875002,30.8413079 265.558594,30.9760742 C265.242186,31.1108405 264.975587,31.2983386 264.758789,31.5385742 C264.541991,31.7788098 264.376465,32.0703108 264.262207,32.4130859 C264.147949,32.7558611 264.09082,33.1323222 264.09082,33.5424805 C264.09082,33.970217 264.152343,34.3540022 264.275391,34.6938477 C264.398438,35.0336931 264.572753,35.3222644 264.79834,35.5595703 C265.023927,35.7968762 265.29492,35.978515 265.611328,36.1044922 C265.927736,36.2304694 266.279295,36.293457 266.666016,36.293457 C266.853517,36.293457 267.051268,36.2802736 267.259277,36.2539062 C267.467286,36.2275389 267.675292,36.1894534 267.883301,36.1396484 C268.09131,36.0898435 268.296386,36.0327152 268.498535,35.9682617 C268.700685,35.9038083 268.889648,35.8334965 269.06543,35.7573242 L269.06543,37.6645508 Z M279.102539,37.9194336 C278.715818,38.0073247 278.326174,38.0776365 277.933594,38.1303711 C277.541014,38.1831057 277.168947,38.2094727 276.817383,38.2094727 C276.231442,38.2094727 275.726076,38.1479498 275.30127,38.0249023 C274.876463,37.9018549 274.524904,37.7143567 274.246582,37.4624023 C273.96826,37.210448 273.763184,36.8896504 273.631348,36.5 C273.499511,36.1103496 273.433594,35.6459988 273.433594,35.1069336 L273.433594,30.7475586 L271.03418,30.7475586 L271.03418,29.0776367 L273.433594,29.0776367 L273.433594,26.7924805 L275.630859,26.2211914 L275.630859,29.0776367 L279.102539,29.0776367 L279.102539,30.7475586 L275.630859,30.7475586 L275.630859,34.9487305 C275.630859,35.4584986 275.748046,35.8437487 275.982422,36.1044922 C276.216798,36.3652357 276.609372,36.4956055 277.160156,36.4956055 C277.511721,36.4956055 277.854491,36.4663089 278.188477,36.4077148 C278.522463,36.3491208 278.827147,36.2817387 279.102539,36.2055664 L279.102539,37.9194336 Z" id="path-1"></path>
        <path d="M615.134766,21.7128906 C614.521481,21.9667981 613.87891,22.09375 613.207031,22.09375 C612.124995,22.09375 611.293948,21.770511 610.713867,21.1240234 C610.133786,20.4775358 609.84375,19.5214907 609.84375,18.2558594 C609.84375,17.6425751 609.923827,17.0878931 610.083984,16.5917969 C610.244141,16.0957006 610.472655,15.6748064 610.769531,15.3291016 C611.066408,14.9833967 611.425779,14.7167978 611.847656,14.5292969 C612.269533,14.3417959 612.742185,14.2480469 613.265625,14.2480469 C613.621096,14.2480469 613.95117,14.27832 614.255859,14.3388672 C614.560548,14.3994144 614.853514,14.4921869 615.134766,14.6171875 L615.134766,15.6425781 C614.85742,15.4902336 614.570314,15.3740238 614.273438,15.2939453 C613.976561,15.2138668 613.652346,15.1738281 613.300781,15.1738281 C612.941404,15.1738281 612.616212,15.2412103 612.325195,15.3759766 C612.034178,15.5107429 611.78711,15.7060534 611.583984,15.9619141 C611.380858,16.2177747 611.22461,16.5302716 611.115234,16.8994141 C611.005859,17.2685565 610.951172,17.6894508 610.951172,18.1621094 C610.951172,19.1543018 611.152342,19.9023412 611.554688,20.40625 C611.957033,20.9101588 612.546871,21.1621094 613.324219,21.1621094 C613.652345,21.1621094 613.966795,21.1240238 614.267578,21.0478516 C614.568361,20.9716793 614.85742,20.8652351 615.134766,20.7285156 L615.134766,21.7128906 Z M621.960938,19.0117188 C621.960938,19.4687523 621.896485,19.8876934 621.767578,20.2685547 C621.638671,20.649416 621.453126,20.9755846 621.210938,21.2470703 C620.968749,21.518556 620.67383,21.7294914 620.326172,21.8798828 C619.978514,22.0302742 619.583987,22.1054688 619.142578,22.1054688 C618.720701,22.1054688 618.342775,22.0400397 618.008789,21.9091797 C617.674803,21.7783197 617.391603,21.5859388 617.15918,21.3320312 C616.926757,21.0781237 616.749024,20.7636737 616.625977,20.3886719 C616.502929,20.01367 616.441406,19.5820337 616.441406,19.09375 C616.441406,18.6367165 616.505859,18.2197284 616.634766,17.8427734 C616.763673,17.4658184 616.949218,17.1416029 617.191406,16.8701172 C617.433595,16.5986315 617.728514,16.3876961 618.076172,16.2373047 C618.42383,16.0869133 618.818357,16.0117188 619.259766,16.0117188 C619.681643,16.0117188 620.059569,16.0771478 620.393555,16.2080078 C620.727541,16.3388678 621.010741,16.5302722 621.243164,16.7822266 C621.475587,17.0341809 621.65332,17.3476544 621.776367,17.7226562 C621.899415,18.0976581 621.960938,18.5273413 621.960938,19.0117188 Z M620.917969,19.0585938 C620.917969,18.6953107 620.87793,18.377931 620.797852,18.1064453 C620.717773,17.8349596 620.603516,17.6083993 620.455078,17.4267578 C620.30664,17.2451163 620.125978,17.1083989 619.913086,17.0166016 C619.700194,16.9248042 619.462892,16.8789062 619.201172,16.8789062 C618.896483,16.8789062 618.635743,16.938476 618.418945,17.0576172 C618.202147,17.1767584 618.024415,17.3359365 617.885742,17.5351562 C617.74707,17.734376 617.645508,17.965819 617.581055,18.2294922 C617.516601,18.4931654 617.484375,18.7695298 617.484375,19.0585938 C617.484375,19.4218768 617.524414,19.740233 617.604492,20.0136719 C617.684571,20.2871107 617.798827,20.5146475 617.947266,20.6962891 C618.095704,20.8779306 618.27539,21.014648 618.486328,21.1064453 C618.697267,21.1982426 618.935546,21.2441406 619.201172,21.2441406 C619.505861,21.2441406 619.7666,21.1845709 619.983398,21.0654297 C620.200196,20.9462885 620.377929,20.7871104 620.516602,20.5878906 C620.655274,20.3886709 620.756836,20.1572279 620.821289,19.8935547 C620.885743,19.6298815 620.917969,19.351564 620.917969,19.0585938 Z M628.464844,18.953125 C628.464844,19.4765651 628.391602,19.9335918 628.245117,20.3242188 C628.098632,20.7148457 627.896486,21.0390612 627.638672,21.296875 C627.380858,21.5546888 627.076174,21.7480462 626.724609,21.8769531 C626.373045,22.00586 625.99219,22.0703125 625.582031,22.0703125 C625.39453,22.0703125 625.208009,22.060547 625.022461,22.0410156 C624.836913,22.0214843 624.648438,21.9882815 624.457031,21.9414062 L624.457031,24.4023438 L623.4375,24.4023438 L623.4375,16.1171875 L624.345703,16.1171875 L624.410156,17.1015625 C624.703126,16.6992167 625.015623,16.416993 625.347656,16.2548828 C625.679689,16.0927726 626.039061,16.0117188 626.425781,16.0117188 C626.76172,16.0117188 627.056639,16.0820305 627.310547,16.2226562 C627.564454,16.363282 627.777343,16.5615222 627.949219,16.8173828 C628.121095,17.0732435 628.25,17.3818341 628.335938,17.7431641 C628.421875,18.104494 628.464844,18.5078103 628.464844,18.953125 Z M627.421875,19 C627.421875,18.6914047 627.399414,18.4082044 627.354492,18.1503906 C627.30957,17.8925768 627.238282,17.6718759 627.140625,17.4882812 C627.042968,17.3046866 626.91797,17.1611333 626.765625,17.0576172 C626.61328,16.954101 626.431642,16.9023438 626.220703,16.9023438 C626.091796,16.9023438 625.960938,16.9228514 625.828125,16.9638672 C625.695312,17.004883 625.557618,17.0732417 625.415039,17.1689453 C625.27246,17.2646489 625.122071,17.3916008 624.963867,17.5498047 C624.805663,17.7080086 624.63672,17.9042957 624.457031,18.1386719 L624.457031,20.9921875 C624.644532,21.0703129 624.841796,21.1318357 625.048828,21.1767578 C625.25586,21.2216799 625.458983,21.2441406 625.658203,21.2441406 C626.208987,21.2441406 626.640623,21.0576191 626.953125,20.6845703 C627.265627,20.3115216 627.421875,19.7500038 627.421875,19 Z M635.267578,16.1171875 L633.263672,21.3789062 C633.05664,21.9140652 632.842775,22.3749981 632.62207,22.7617188 C632.401366,23.1484394 632.160158,23.4658191 631.898438,23.7138672 C631.636717,23.9619153 631.349611,24.1445307 631.037109,24.2617188 C630.724608,24.3789068 630.375002,24.4375 629.988281,24.4375 C629.886718,24.4375 629.794922,24.4355469 629.712891,24.4316406 C629.630859,24.4277344 629.541016,24.421875 629.443359,24.4140625 L629.443359,23.4882812 C629.529297,23.5000001 629.623046,23.5107421 629.724609,23.5205078 C629.826172,23.5302735 629.933593,23.5351562 630.046875,23.5351562 C630.234376,23.5351562 630.409179,23.5078128 630.571289,23.453125 C630.733399,23.3984372 630.886718,23.3095709 631.03125,23.1865234 C631.175782,23.0634759 631.314452,22.9042979 631.447266,22.7089844 C631.580079,22.5136709 631.708984,22.2773451 631.833984,22 L629.484375,16.1171875 L630.644531,16.1171875 L632.132812,20.0078125 L632.431641,20.921875 L632.771484,19.984375 L634.148438,16.1171875 L635.267578,16.1171875 Z" id="path-2"></path>
    </defs>
    <g id="Page-1" stroke="none" stroke-width="1" fill="none" fill-rule="evenodd">
        <g id="page" transform="translate(-393.000000, -2476.000000)">
            <g id="It's-easy-to-get-started" transform="translate(-188.254761, 2252.000000)">
                <g id="Group-135" transform="translate(581.254761, 224.000000)">
                    <g id="command">
                        <g id="Group-14">
                            <path d="M4,0 L650,0 C652.209139,-4.05812251e-16 654,1.790861 654,4 L654,57 C654,59.209139 652.209139,61 650,61 L4,61 C1.790861,61 2.705415e-16,59.209139 0,57 L0,4 C-2.705415e-16,1.790861 1.790861,4.05812251e-16 4,0 Z" id="Rectangle" fill="#000E1A"></path>
                            <path d="M291,21 L299,21 L299,39 L291,39 L291,21 Z" id="Rectangle-2" fill="#DCD207"></path>
                            <g id="npxcreate-webiny-project" fill-rule="nonzero" fill="#FFFFFF">
                                <use xlink:href="#path-1"></use>
                                <use xlink:href="#path-1"></use>
                            </g>
                            <path d="M600,7 L644,7 C645.104569,7 646,7.8954305 646,9 L646,28 C646,29.1045695 645.104569,30 644,30 L600,30 C598.895431,30 598,29.1045695 598,28 L598,9 C598,7.8954305 598.895431,7 600,7 Z" id="Rectangle-44" fill="#FFFFFF"></path>
                            <g id="Copy" fill-rule="nonzero" fill="#000000">
                                <use xlink:href="#path-2"></use>
                                <use xlink:href="#path-2"></use>
                            </g>
                        </g>
                    </g>
                </g>
            </g>
        </g>
    </g>
</svg>