<svg width="40" height="40" viewBox="0 0 40 40" fill="none" xmlns="http://www.w3.org/2000/svg">
<mask id="mask0" mask-type="alpha" maskUnits="userSpaceOnUse" x="0" y="0" width="40" height="40">
<rect width="40" height="40" fill="white"/>
</mask>
<g mask="url(#mask0)">
<path d="M27.6797 31.109C27.3672 30.7809 27.375 30.2575 27.7031 29.945L38.6094 19.4059C38.9375 19.0934 39.4609 19.1012 39.7734 19.4293C40.0859 19.7575 40.0781 20.2809 39.75 20.5934L28.8438 31.1325C28.6797 31.2809 28.4766 31.359 28.2734 31.359C28.0547 31.359 27.8438 31.2731 27.6797 31.109Z" fill="#7B39D9"/>
<path d="M38.6094 20.5856L27.6953 10.0543C27.3672 9.74184 27.3594 9.21841 27.6719 8.89028C27.9844 8.56215 28.5078 8.55434 28.8359 8.86684L39.7422 19.4059C40.0703 19.7184 40.0781 20.2419 39.7656 20.57C39.6094 20.7419 39.3906 20.82 39.1797 20.82C38.9766 20.82 38.7656 20.7419 38.6094 20.5856Z" fill="#7B39D9"/>
<path d="M11.1563 31.1247L0.250006 20.5934C-0.0781194 20.2809 -0.0859319 19.7575 0.226568 19.4293C0.539068 19.1012 1.06251 19.0934 1.39063 19.4059L12.2969 29.945C12.625 30.2575 12.6328 30.7809 12.3203 31.109C12.1563 31.2809 11.9453 31.359 11.7266 31.359C11.5234 31.359 11.3125 31.2809 11.1563 31.1247Z" fill="#7B39D9"/>
<path d="M0.226568 20.57C-0.0859319 20.2419 -0.0781194 19.7184 0.250006 19.4059L11.1563 8.86684C11.4844 8.55434 12.0078 8.56215 12.3203 8.89028C12.6328 9.21841 12.625 9.74184 12.2969 10.0543L1.39844 20.5934C1.23438 20.7497 1.03126 20.82 0.820318 20.82C0.601568 20.82 0.39063 20.734 0.226568 20.57Z" fill="#7B39D9"/>
<path d="M15.8594 34.8201C15.4219 34.6951 15.1641 34.242 15.2891 33.8045L23.125 5.74982C23.25 5.31232 23.7031 5.05451 24.1406 5.17951C24.5781 5.30451 24.8359 5.75763 24.7109 6.19513L16.875 34.2498C16.7734 34.617 16.4375 34.8514 16.0781 34.8514C16.0078 34.8514 15.9297 34.8436 15.8594 34.8201Z" fill="#6A6E7C"/>
</g>
</svg>
