<?xml version="1.0" encoding="UTF-8"?>
<svg width="654px" height="61px" viewBox="0 0 654 61" version="1.1" xmlns="http://www.w3.org/2000/svg" xmlns:xlink="http://www.w3.org/1999/xlink">
    <!-- Generator: Sketch 55.2 (78181) - https://sketchapp.com -->
    <title>Group 13</title>
    <desc>Created with Sketch.</desc>
    <defs>
        <path d="M615.134766,24.7128906 C614.521481,24.9667981 613.87891,25.09375 613.207031,25.09375 C612.124995,25.09375 611.293948,24.770511 610.713867,24.1240234 C610.133786,23.4775358 609.84375,22.5214907 609.84375,21.2558594 C609.84375,20.6425751 609.923827,20.0878931 610.083984,19.5917969 C610.244141,19.0957006 610.472655,18.6748064 610.769531,18.3291016 C611.066408,17.9833967 611.425779,17.7167978 611.847656,17.5292969 C612.269533,17.3417959 612.742185,17.2480469 613.265625,17.2480469 C613.621096,17.2480469 613.95117,17.27832 614.255859,17.3388672 C614.560548,17.3994144 614.853514,17.4921869 615.134766,17.6171875 L615.134766,18.6425781 C614.85742,18.4902336 614.570314,18.3740238 614.273438,18.2939453 C613.976561,18.2138668 613.652346,18.1738281 613.300781,18.1738281 C612.941404,18.1738281 612.616212,18.2412103 612.325195,18.3759766 C612.034178,18.5107429 611.78711,18.7060534 611.583984,18.9619141 C611.380858,19.2177747 611.22461,19.5302716 611.115234,19.8994141 C611.005859,20.2685565 610.951172,20.6894508 610.951172,21.1621094 C610.951172,22.1543018 611.152342,22.9023412 611.554688,23.40625 C611.957033,23.9101588 612.546871,24.1621094 613.324219,24.1621094 C613.652345,24.1621094 613.966795,24.1240238 614.267578,24.0478516 C614.568361,23.9716793 614.85742,23.8652351 615.134766,23.7285156 L615.134766,24.7128906 Z M621.960938,22.0117188 C621.960938,22.4687523 621.896485,22.8876934 621.767578,23.2685547 C621.638671,23.649416 621.453126,23.9755846 621.210938,24.2470703 C620.968749,24.518556 620.67383,24.7294914 620.326172,24.8798828 C619.978514,25.0302742 619.583987,25.1054688 619.142578,25.1054688 C618.720701,25.1054688 618.342775,25.0400397 618.008789,24.9091797 C617.674803,24.7783197 617.391603,24.5859388 617.15918,24.3320312 C616.926757,24.0781237 616.749024,23.7636737 616.625977,23.3886719 C616.502929,23.01367 616.441406,22.5820337 616.441406,22.09375 C616.441406,21.6367165 616.505859,21.2197284 616.634766,20.8427734 C616.763673,20.4658184 616.949218,20.1416029 617.191406,19.8701172 C617.433595,19.5986315 617.728514,19.3876961 618.076172,19.2373047 C618.42383,19.0869133 618.818357,19.0117188 619.259766,19.0117188 C619.681643,19.0117188 620.059569,19.0771478 620.393555,19.2080078 C620.727541,19.3388678 621.010741,19.5302722 621.243164,19.7822266 C621.475587,20.0341809 621.65332,20.3476544 621.776367,20.7226562 C621.899415,21.0976581 621.960938,21.5273413 621.960938,22.0117188 Z M620.917969,22.0585938 C620.917969,21.6953107 620.87793,21.377931 620.797852,21.1064453 C620.717773,20.8349596 620.603516,20.6083993 620.455078,20.4267578 C620.30664,20.2451163 620.125978,20.1083989 619.913086,20.0166016 C619.700194,19.9248042 619.462892,19.8789062 619.201172,19.8789062 C618.896483,19.8789062 618.635743,19.938476 618.418945,20.0576172 C618.202147,20.1767584 618.024415,20.3359365 617.885742,20.5351562 C617.74707,20.734376 617.645508,20.965819 617.581055,21.2294922 C617.516601,21.4931654 617.484375,21.7695298 617.484375,22.0585938 C617.484375,22.4218768 617.524414,22.740233 617.604492,23.0136719 C617.684571,23.2871107 617.798827,23.5146475 617.947266,23.6962891 C618.095704,23.8779306 618.27539,24.014648 618.486328,24.1064453 C618.697267,24.1982426 618.935546,24.2441406 619.201172,24.2441406 C619.505861,24.2441406 619.7666,24.1845709 619.983398,24.0654297 C620.200196,23.9462885 620.377929,23.7871104 620.516602,23.5878906 C620.655274,23.3886709 620.756836,23.1572279 620.821289,22.8935547 C620.885743,22.6298815 620.917969,22.351564 620.917969,22.0585938 Z M628.464844,21.953125 C628.464844,22.4765651 628.391602,22.9335918 628.245117,23.3242188 C628.098632,23.7148457 627.896486,24.0390612 627.638672,24.296875 C627.380858,24.5546888 627.076174,24.7480462 626.724609,24.8769531 C626.373045,25.00586 625.99219,25.0703125 625.582031,25.0703125 C625.39453,25.0703125 625.208009,25.060547 625.022461,25.0410156 C624.836913,25.0214843 624.648438,24.9882815 624.457031,24.9414062 L624.457031,27.4023438 L623.4375,27.4023438 L623.4375,19.1171875 L624.345703,19.1171875 L624.410156,20.1015625 C624.703126,19.6992167 625.015623,19.416993 625.347656,19.2548828 C625.679689,19.0927726 626.039061,19.0117188 626.425781,19.0117188 C626.76172,19.0117188 627.056639,19.0820305 627.310547,19.2226562 C627.564454,19.363282 627.777343,19.5615222 627.949219,19.8173828 C628.121095,20.0732435 628.25,20.3818341 628.335938,20.7431641 C628.421875,21.104494 628.464844,21.5078103 628.464844,21.953125 Z M627.421875,22 C627.421875,21.6914047 627.399414,21.4082044 627.354492,21.1503906 C627.30957,20.8925768 627.238282,20.6718759 627.140625,20.4882812 C627.042968,20.3046866 626.91797,20.1611333 626.765625,20.0576172 C626.61328,19.954101 626.431642,19.9023438 626.220703,19.9023438 C626.091796,19.9023438 625.960938,19.9228514 625.828125,19.9638672 C625.695312,20.004883 625.557618,20.0732417 625.415039,20.1689453 C625.27246,20.2646489 625.122071,20.3916008 624.963867,20.5498047 C624.805663,20.7080086 624.63672,20.9042957 624.457031,21.1386719 L624.457031,23.9921875 C624.644532,24.0703129 624.841796,24.1318357 625.048828,24.1767578 C625.25586,24.2216799 625.458983,24.2441406 625.658203,24.2441406 C626.208987,24.2441406 626.640623,24.0576191 626.953125,23.6845703 C627.265627,23.3115216 627.421875,22.7500038 627.421875,22 Z M635.267578,19.1171875 L633.263672,24.3789062 C633.05664,24.9140652 632.842775,25.3749981 632.62207,25.7617188 C632.401366,26.1484394 632.160158,26.4658191 631.898438,26.7138672 C631.636717,26.9619153 631.349611,27.1445307 631.037109,27.2617188 C630.724608,27.3789068 630.375002,27.4375 629.988281,27.4375 C629.886718,27.4375 629.794922,27.4355469 629.712891,27.4316406 C629.630859,27.4277344 629.541016,27.421875 629.443359,27.4140625 L629.443359,26.4882812 C629.529297,26.5000001 629.623046,26.5107421 629.724609,26.5205078 C629.826172,26.5302735 629.933593,26.5351562 630.046875,26.5351562 C630.234376,26.5351562 630.409179,26.5078128 630.571289,26.453125 C630.733399,26.3984372 630.886718,26.3095709 631.03125,26.1865234 C631.175782,26.0634759 631.314452,25.9042979 631.447266,25.7089844 C631.580079,25.5136709 631.708984,25.2773451 631.833984,25 L629.484375,19.1171875 L630.644531,19.1171875 L632.132812,23.0078125 L632.431641,23.921875 L632.771484,22.984375 L634.148438,19.1171875 L635.267578,19.1171875 Z" id="path-1"></path>
        <path d="M39.5917969,35.0317383 C39.2812484,35.8051796 38.9575212,36.4833955 38.6206055,37.0664062 C38.2836897,37.649417 37.913088,38.1357402 37.5087891,38.5253906 C37.1044902,38.915041 36.6547876,39.2080068 36.159668,39.4042969 C35.6645483,39.6005869 35.1093781,39.6987305 34.4941406,39.6987305 C34.3476555,39.6987305 34.1879891,39.6914063 34.0151367,39.6767578 C33.8422843,39.6621093 33.66504,39.6401369 33.4833984,39.6108398 L33.4833984,37.7915039 C33.5537113,37.8032227 33.6342769,37.8164062 33.7250977,37.8310547 C33.8159184,37.8457032 33.9111323,37.8574218 34.0107422,37.8662109 C34.1103521,37.875 34.2114253,37.8823242 34.3139648,37.8881836 C34.4165044,37.894043 34.5117183,37.8969727 34.5996094,37.8969727 C34.8457044,37.8969727 35.0742177,37.8500981 35.2851562,37.7563477 C35.4960948,37.6625972 35.6909171,37.5322274 35.8696289,37.3652344 C36.0483407,37.1982414 36.2109368,36.9990246 36.3574219,36.7675781 C36.503907,36.5361317 36.6328119,36.2827162 36.7441406,36.0073242 L33.2021484,27.0776367 L35.5927734,27.0776367 L37.4472656,32.1401367 L38.0009766,33.7749023 L38.5458984,32.2104492 L40.4179688,27.0776367 L42.7207031,27.0776367 L39.5917969,35.0317383 Z M49.7167969,36.0073242 L49.6640625,34.8383789 C49.4765616,35.0375987 49.2802745,35.2207023 49.0751953,35.3876953 C48.8701162,35.5546883 48.6445325,35.6997064 48.3984375,35.8227539 C48.1523425,35.9458014 47.8842788,36.0410153 47.5942383,36.1083984 C47.3041978,36.1757816 46.9863299,36.2094727 46.640625,36.2094727 C46.1835915,36.2094727 45.7822283,36.1420905 45.4365234,36.0073242 C45.0908186,35.8725579 44.8007824,35.6850598 44.5664062,35.4448242 C44.3320301,35.2045886 44.1547858,34.9145525 44.034668,34.574707 C43.9145502,34.2348616 43.8544922,33.8598653 43.8544922,33.449707 C43.8544922,33.0278299 43.9438468,32.6381854 44.1225586,32.2807617 C44.3012704,31.9233381 44.5737286,31.6157239 44.9399414,31.3579102 C45.3061542,31.1000964 45.7631809,30.89795 46.3110352,30.7514648 C46.8588895,30.6049797 47.5019494,30.5317383 48.2402344,30.5317383 L49.4091797,30.5317383 L49.4091797,29.9956055 C49.4091797,29.7670887 49.3769534,29.5605478 49.3125,29.3759766 C49.2480466,29.1914053 49.1440437,29.0346686 49.0004883,28.9057617 C48.8569329,28.7768548 48.6708996,28.6772464 48.4423828,28.6069336 C48.213866,28.5366207 47.9326189,28.5014648 47.5986328,28.5014648 C47.0712864,28.5014648 46.5512721,28.5615228 46.0385742,28.6816406 C45.5258763,28.8017584 45.0292993,28.9702138 44.5488281,29.1870117 L44.5488281,27.4731445 C44.9765646,27.3032218 45.470212,27.1625982 46.0297852,27.0512695 C46.5893583,26.9399408 47.1708954,26.8842773 47.7744141,26.8842773 C48.4365267,26.8842773 49.0048804,26.947265 49.4794922,27.0732422 C49.9541039,27.1992194 50.3452133,27.3881823 50.652832,27.6401367 C50.9604508,27.8920911 51.1874993,28.2070294 51.3339844,28.5849609 C51.4804695,28.9628925 51.5537109,29.4038061 51.5537109,29.9077148 L51.5537109,36.0073242 L49.7167969,36.0073242 Z M49.4091797,32.0610352 L48.0996094,32.0610352 C47.7363263,32.0610352 47.4287122,32.0961911 47.1767578,32.1665039 C46.9248034,32.2368168 46.7197274,32.3334955 46.5615234,32.456543 C46.4033195,32.5795905 46.287598,32.7216789 46.2143555,32.8828125 C46.1411129,33.0439461 46.1044922,33.2153311 46.1044922,33.3969727 C46.1044922,33.7602557 46.2216785,34.0371084 46.4560547,34.2275391 C46.6904309,34.4179697 47.0097636,34.5131836 47.4140625,34.5131836 C47.7128921,34.5131836 48.0234359,34.4047862 48.3457031,34.1879883 C48.6679704,33.9711903 49.022459,33.6606466 49.4091797,33.2563477 L49.4091797,32.0610352 Z M59.7626953,30.5493164 C59.7744141,30.2153304 59.758301,29.9311535 59.7143555,29.6967773 C59.6704099,29.4624012 59.6000981,29.2690437 59.503418,29.1166992 C59.4067378,28.9643547 59.2880866,28.8530277 59.1474609,28.7827148 C59.0068352,28.712402 58.845704,28.6772461 58.6640625,28.6772461 C58.3476547,28.6772461 58.0209978,28.8076159 57.684082,29.0683594 C57.3471663,29.3291029 56.9765645,29.7582978 56.5722656,30.355957 L56.5722656,36.0073242 L54.375,36.0073242 L54.375,27.0776367 L56.3173828,27.0776367 L56.3964844,28.378418 C56.5429695,28.1499012 56.7084952,27.9448251 56.8930664,27.7631836 C57.0776376,27.5815421 57.2827137,27.4248053 57.5083008,27.2929688 C57.7338878,27.1611322 57.9843736,27.0600589 58.2597656,26.9897461 C58.5351576,26.9194332 58.8369124,26.8842773 59.1650391,26.8842773 C59.6162132,26.8842773 60.0161115,26.9619133 60.3647461,27.1171875 C60.7133806,27.2724617 61.0063465,27.5024399 61.2436523,27.8071289 C61.4809582,28.1118179 61.6567377,28.4941383 61.7709961,28.9541016 C61.8852545,29.4140648 61.9335938,29.9457978 61.9160156,30.5493164 L59.7626953,30.5493164 Z M69.2373047,36.0073242 L69.2373047,30.1889648 C69.2373047,29.2104443 68.8740271,28.7211914 68.1474609,28.7211914 C67.7841779,28.7211914 67.4370134,28.8676743 67.105957,29.1606445 C66.7749007,29.4536147 66.4248065,29.8520483 66.0556641,30.355957 L66.0556641,36.0073242 L63.9111328,36.0073242 L63.9111328,27.0776367 L65.765625,27.0776367 L65.8183594,28.3959961 C66.0000009,28.1674793 66.1889639,27.9594736 66.3852539,27.7719727 C66.581544,27.5844717 66.7939442,27.4248053 67.0224609,27.2929688 C67.2509777,27.1611322 67.497069,27.0600589 67.7607422,26.9897461 C68.0244154,26.9194332 68.3203109,26.8842773 68.6484375,26.8842773 C69.105471,26.8842773 69.5039046,26.9589836 69.84375,27.1083984 C70.1835954,27.2578132 70.4677723,27.4687486 70.6962891,27.7412109 C70.9248058,28.0136732 71.0961908,28.341795 71.2104492,28.7255859 C71.3247076,29.1093769 71.3818359,29.5385718 71.3818359,30.0131836 L71.3818359,36.0073242 L69.2373047,36.0073242 Z M91.0341797,36.0073242 L88.6523438,36.0073242 L87.703125,33.1772461 L87.4130859,32.1928711 L87.1230469,33.2036133 L86.2089844,36.0073242 L83.8183594,36.0073242 L82.5527344,27.0776367 L84.5917969,27.0776367 L85.2333984,32.1225586 L85.3828125,33.5024414 L85.7431641,32.2631836 L86.6396484,29.5473633 L88.2744141,29.5473633 L89.2324219,32.2456055 L89.6455078,33.5200195 L89.8125,32.1049805 L90.3486328,27.0776367 L92.2910156,27.0776367 L91.0341797,36.0073242 Z M101.378906,30.8569336 C101.378906,31.0034187 101.374512,31.1938465 101.365723,31.4282227 C101.356934,31.6625988 101.34375,31.8823232 101.326172,32.0874023 L95.4550781,32.0874023 C95.4550781,32.4799824 95.5151361,32.8256821 95.6352539,33.1245117 C95.7553717,33.4233413 95.9252919,33.6738271 96.1450195,33.8759766 C96.3647472,34.078126 96.6284164,34.2319331 96.9360352,34.3374023 C97.2436539,34.4428716 97.5849591,34.4956055 97.9599609,34.4956055 C98.3935569,34.4956055 98.8579077,34.4619144 99.3530273,34.3945312 C99.848147,34.3271481 100.362302,34.2172859 100.895508,34.0649414 L100.895508,35.7700195 C100.666991,35.834473 100.41797,35.8930661 100.148438,35.9458008 C99.8789049,35.9985354 99.603517,36.04541 99.3222656,36.0864258 C99.0410142,36.1274416 98.7568374,36.158203 98.4697266,36.1787109 C98.1826158,36.1992189 97.9042982,36.2094727 97.6347656,36.2094727 C96.9550747,36.2094727 96.3457058,36.1127939 95.8066406,35.9194336 C95.2675754,35.7260733 94.8105488,35.4404316 94.4355469,35.0625 C94.060545,34.6845684 93.7734385,34.2172879 93.5742188,33.6606445 C93.374999,33.1040011 93.2753906,32.4594763 93.2753906,31.7270508 C93.2753906,31.0004846 93.374999,30.3398467 93.5742188,29.7451172 C93.7734385,29.1503877 94.0546857,28.6406271 94.4179688,28.2158203 C94.7812518,27.7910135 95.2221654,27.4628918 95.7407227,27.2314453 C96.2592799,26.9999988 96.8378874,26.8842773 97.4765625,26.8842773 C98.1093782,26.8842773 98.6689429,26.9824209 99.1552734,27.1787109 C99.641604,27.375001 100.048826,27.648924 100.376953,28.0004883 C100.70508,28.3520525 100.954101,28.7709937 101.124023,29.2573242 C101.293946,29.7436548 101.378906,30.2768526 101.378906,30.8569336 Z M99.1992188,30.5493164 C99.2050782,30.1977521 99.1611333,29.8916029 99.0673828,29.6308594 C98.9736323,29.3701159 98.8461922,29.154786 98.6850586,28.9848633 C98.523925,28.8149406 98.3364269,28.6889653 98.1225586,28.6069336 C97.9086903,28.5249019 97.6787122,28.4838867 97.4326172,28.4838867 C96.893552,28.4838867 96.4511736,28.6640607 96.1054688,29.0244141 C95.7597639,29.3847674 95.5546878,29.8930631 95.4902344,30.5493164 L99.1992188,30.5493164 Z M111.530273,31.3842773 C111.530273,32.2045939 111.414552,32.9135712 111.183105,33.5112305 C110.951659,34.1088897 110.629397,34.6054668 110.216309,35.0009766 C109.803221,35.3964864 109.315433,35.6894522 108.75293,35.8798828 C108.190427,36.0703135 107.578128,36.1655273 106.916016,36.1655273 C106.265622,36.1655273 105.660647,36.117188 105.101074,36.0205078 C104.541501,35.9238276 104.006838,35.7934579 103.49707,35.6293945 L103.49707,23.5883789 L105.641602,23.5883789 L105.641602,26.5063477 L105.553711,28.2641602 C105.875978,27.8481425 106.252439,27.5141614 106.683105,27.262207 C107.113772,27.0102526 107.630856,26.8842773 108.234375,26.8842773 C108.761721,26.8842773 109.230467,26.989745 109.640625,27.2006836 C110.050783,27.4116221 110.395018,27.7119121 110.67334,28.1015625 C110.951662,28.4912129 111.164062,28.9628879 111.310547,29.5166016 C111.457032,30.0703153 111.530273,30.6928676 111.530273,31.3842773 Z M109.280273,31.472168 C109.280273,30.979978 109.245118,30.5610369 109.174805,30.215332 C109.104492,29.8696272 109.003419,29.5854503 108.871582,29.362793 C108.739745,29.1401356 108.578614,28.9775396 108.388184,28.875 C108.197753,28.7724604 107.979493,28.7211914 107.733398,28.7211914 C107.370115,28.7211914 107.022951,28.8676743 106.691895,29.1606445 C106.360838,29.4536147 106.010744,29.8520483 105.641602,30.355957 L105.641602,34.2583008 C105.811524,34.3227542 106.020995,34.3754881 106.27002,34.4165039 C106.519044,34.4575197 106.77246,34.4780273 107.030273,34.4780273 C107.370119,34.4780273 107.679198,34.4077155 107.95752,34.2670898 C108.235841,34.1264641 108.473144,33.9272474 108.669434,33.6694336 C108.865724,33.4116198 109.016601,33.0966815 109.12207,32.7246094 C109.22754,32.3525372 109.280273,31.9350609 109.280273,31.472168 Z M118.649414,24.6342773 C118.649414,24.8276377 118.614258,25.0092765 118.543945,25.1791992 C118.473632,25.3491219 118.375489,25.4970697 118.249512,25.6230469 C118.123535,25.7490241 117.975587,25.8486324 117.805664,25.921875 C117.635741,25.9951176 117.451173,26.0317383 117.251953,26.0317383 C117.052733,26.0317383 116.8667,25.9951176 116.693848,25.921875 C116.520995,25.8486324 116.371583,25.7490241 116.245605,25.6230469 C116.119628,25.4970697 116.021485,25.3491219 115.951172,25.1791992 C115.880859,25.0092765 115.845703,24.8276377 115.845703,24.6342773 C115.845703,24.440917 115.880859,24.2592782 115.951172,24.0893555 C116.021485,23.9194327 116.119628,23.7700202 116.245605,23.6411133 C116.371583,23.5122064 116.520995,23.4111332 116.693848,23.3378906 C116.8667,23.2646481 117.052733,23.2280273 117.251953,23.2280273 C117.451173,23.2280273 117.635741,23.2646481 117.805664,23.3378906 C117.975587,23.4111332 118.123535,23.5122064 118.249512,23.6411133 C118.375489,23.7700202 118.473632,23.9194327 118.543945,24.0893555 C118.614258,24.2592782 118.649414,24.440917 118.649414,24.6342773 Z M116.276367,28.7475586 L113.753906,28.7475586 L113.753906,27.0776367 L118.473633,27.0776367 L118.473633,34.3374023 L121.048828,34.3374023 L121.048828,36.0073242 L113.446289,36.0073242 L113.446289,34.3374023 L116.276367,34.3374023 L116.276367,28.7475586 Z M128.616211,36.0073242 L128.616211,30.1889648 C128.616211,29.2104443 128.252933,28.7211914 127.526367,28.7211914 C127.163084,28.7211914 126.81592,28.8676743 126.484863,29.1606445 C126.153807,29.4536147 125.803713,29.8520483 125.43457,30.355957 L125.43457,36.0073242 L123.290039,36.0073242 L123.290039,27.0776367 L125.144531,27.0776367 L125.197266,28.3959961 C125.378907,28.1674793 125.56787,27.9594736 125.76416,27.7719727 C125.96045,27.5844717 126.17285,27.4248053 126.401367,27.2929688 C126.629884,27.1611322 126.875975,27.0600589 127.139648,26.9897461 C127.403322,26.9194332 127.699217,26.8842773 128.027344,26.8842773 C128.484377,26.8842773 128.882811,26.9589836 129.222656,27.1083984 C129.562502,27.2578132 129.846679,27.4687486 130.075195,27.7412109 C130.303712,28.0136732 130.475097,28.341795 130.589355,28.7255859 C130.703614,29.1093769 130.760742,29.5385718 130.760742,30.0131836 L130.760742,36.0073242 L128.616211,36.0073242 Z M138.556641,35.0317383 C138.246092,35.8051796 137.922365,36.4833955 137.585449,37.0664062 C137.248533,37.649417 136.877932,38.1357402 136.473633,38.5253906 C136.069334,38.915041 135.619631,39.2080068 135.124512,39.4042969 C134.629392,39.6005869 134.074222,39.6987305 133.458984,39.6987305 C133.312499,39.6987305 133.152833,39.6914063 132.97998,39.6767578 C132.807128,39.6621093 132.629884,39.6401369 132.448242,39.6108398 L132.448242,37.7915039 C132.518555,37.8032227 132.599121,37.8164062 132.689941,37.8310547 C132.780762,37.8457032 132.875976,37.8574218 132.975586,37.8662109 C133.075196,37.875 133.176269,37.8823242 133.278809,37.8881836 C133.381348,37.894043 133.476562,37.8969727 133.564453,37.8969727 C133.810548,37.8969727 134.039061,37.8500981 134.25,37.7563477 C134.460939,37.6625972 134.655761,37.5322274 134.834473,37.3652344 C135.013184,37.1982414 135.175781,36.9990246 135.322266,36.7675781 C135.468751,36.5361317 135.597656,36.2827162 135.708984,36.0073242 L132.166992,27.0776367 L134.557617,27.0776367 L136.412109,32.1401367 L136.96582,33.7749023 L137.510742,32.2104492 L139.382812,27.0776367 L141.685547,27.0776367 L138.556641,35.0317383 Z M158.595703,36.0073242 L158.542969,34.6889648 C158.355468,34.9174816 158.16211,35.1254873 157.962891,35.3129883 C157.763671,35.5004892 157.549806,35.6601556 157.321289,35.7919922 C157.092772,35.9238288 156.848146,36.0263668 156.587402,36.0996094 C156.326659,36.1728519 156.038088,36.2094727 155.72168,36.2094727 C155.194333,36.2094727 154.725588,36.104005 154.31543,35.8930664 C153.905271,35.6821279 153.561037,35.3818379 153.282715,34.9921875 C153.004393,34.6025371 152.791993,34.1293973 152.645508,33.5727539 C152.499023,33.0161105 152.425781,32.395023 152.425781,31.7094727 C152.425781,30.8891561 152.541503,30.1787139 152.772949,29.578125 C153.004396,28.9775361 153.325193,28.4794942 153.735352,28.0839844 C154.14551,27.6884746 154.631833,27.3955088 155.194336,27.2050781 C155.756839,27.0146475 156.369137,26.9194336 157.03125,26.9194336 C157.253907,26.9194336 157.478026,26.9340819 157.703613,26.9633789 C157.9292,26.9926759 158.129882,27.0307615 158.305664,27.0776367 L158.305664,23.5883789 L160.450195,23.5883789 L160.450195,36.0073242 L158.595703,36.0073242 Z M154.675781,31.612793 C154.675781,32.1049829 154.709472,32.5253889 154.776855,32.8740234 C154.844239,33.222658 154.943847,33.5082997 155.075684,33.730957 C155.20752,33.9536144 155.370116,34.1162104 155.563477,34.21875 C155.756837,34.3212896 155.976561,34.3725586 156.222656,34.3725586 C156.585939,34.3725586 156.931639,34.2260757 157.259766,33.9331055 C157.587892,33.6401353 157.936522,33.2387721 158.305664,32.7290039 L158.305664,28.8266602 C158.135741,28.7622067 157.926271,28.7094729 157.677246,28.668457 C157.428221,28.6274412 157.177736,28.6069336 156.925781,28.6069336 C156.580076,28.6069336 156.269533,28.6772454 155.994141,28.8178711 C155.718749,28.9584968 155.482911,29.1577136 155.286621,29.4155273 C155.090331,29.6733411 154.939454,29.9882794 154.833984,30.3603516 C154.728515,30.7324237 154.675781,31.1499 154.675781,31.612793 Z M170.654297,30.8569336 C170.654297,31.0034187 170.649902,31.1938465 170.641113,31.4282227 C170.632324,31.6625988 170.619141,31.8823232 170.601562,32.0874023 L164.730469,32.0874023 C164.730469,32.4799824 164.790527,32.8256821 164.910645,33.1245117 C165.030762,33.4233413 165.200682,33.6738271 165.42041,33.8759766 C165.640138,34.078126 165.903807,34.2319331 166.211426,34.3374023 C166.519045,34.4428716 166.86035,34.4956055 167.235352,34.4956055 C167.668947,34.4956055 168.133298,34.4619144 168.628418,34.3945312 C169.123538,34.3271481 169.637693,34.2172859 170.170898,34.0649414 L170.170898,35.7700195 C169.942382,35.834473 169.693361,35.8930661 169.423828,35.9458008 C169.154296,35.9985354 168.878908,36.04541 168.597656,36.0864258 C168.316405,36.1274416 168.032228,36.158203 167.745117,36.1787109 C167.458006,36.1992189 167.179689,36.2094727 166.910156,36.2094727 C166.230465,36.2094727 165.621096,36.1127939 165.082031,35.9194336 C164.542966,35.7260733 164.085939,35.4404316 163.710938,35.0625 C163.335936,34.6845684 163.048829,34.2172879 162.849609,33.6606445 C162.65039,33.1040011 162.550781,32.4594763 162.550781,31.7270508 C162.550781,31.0004846 162.65039,30.3398467 162.849609,29.7451172 C163.048829,29.1503877 163.330076,28.6406271 163.693359,28.2158203 C164.056642,27.7910135 164.497556,27.4628918 165.016113,27.2314453 C165.534671,26.9999988 166.113278,26.8842773 166.751953,26.8842773 C167.384769,26.8842773 167.944334,26.9824209 168.430664,27.1787109 C168.916995,27.375001 169.324217,27.648924 169.652344,28.0004883 C169.98047,28.3520525 170.229491,28.7709937 170.399414,29.2573242 C170.569337,29.7436548 170.654297,30.2768526 170.654297,30.8569336 Z M168.474609,30.5493164 C168.480469,30.1977521 168.436524,29.8916029 168.342773,29.6308594 C168.249023,29.3701159 168.121583,29.154786 167.960449,28.9848633 C167.799316,28.8149406 167.611817,28.6889653 167.397949,28.6069336 C167.184081,28.5249019 166.954103,28.4838867 166.708008,28.4838867 C166.168943,28.4838867 165.726564,28.6640607 165.380859,29.0244141 C165.035155,29.3847674 164.830078,29.8930631 164.765625,30.5493164 L168.474609,30.5493164 Z M180.805664,31.3842773 C180.805664,32.2045939 180.689943,32.9135712 180.458496,33.5112305 C180.22705,34.1088897 179.904787,34.6054668 179.491699,35.0009766 C179.078611,35.3964864 178.590823,35.6894522 178.02832,35.8798828 C177.465817,36.0703135 176.853519,36.1655273 176.191406,36.1655273 C175.968749,36.1655273 175.746095,36.1508791 175.523438,36.121582 C175.30078,36.092285 175.098634,36.0541995 174.916992,36.0073242 L174.916992,39.496582 L172.772461,39.496582 L172.772461,27.0776367 L174.626953,27.0776367 L174.679688,28.3959961 C174.861329,28.1674793 175.050292,27.9594736 175.246582,27.7719727 C175.442872,27.5844717 175.655272,27.4248053 175.883789,27.2929688 C176.112306,27.1611322 176.358397,27.0600589 176.62207,26.9897461 C176.885744,26.9194332 177.181639,26.8842773 177.509766,26.8842773 C178.037112,26.8842773 178.505857,26.989745 178.916016,27.2006836 C179.326174,27.4116221 179.670409,27.7119121 179.94873,28.1015625 C180.227052,28.4912129 180.439452,28.9628879 180.585938,29.5166016 C180.732423,30.0703153 180.805664,30.6928676 180.805664,31.3842773 Z M178.555664,31.472168 C178.555664,30.979978 178.520508,30.5610369 178.450195,30.215332 C178.379882,29.8696272 178.278809,29.5854503 178.146973,29.362793 C178.015136,29.1401356 177.854005,28.9775396 177.663574,28.875 C177.473144,28.7724604 177.254884,28.7211914 177.008789,28.7211914 C176.645506,28.7211914 176.298341,28.8676743 175.967285,29.1606445 C175.636229,29.4536147 175.286135,29.8520483 174.916992,30.355957 L174.916992,34.2583008 C175.086915,34.3227542 175.296385,34.3754881 175.54541,34.4165039 C175.794435,34.4575197 176.04785,34.4780273 176.305664,34.4780273 C176.64551,34.4780273 176.954588,34.4077155 177.23291,34.2670898 C177.511232,34.1264641 177.748534,33.9272474 177.944824,33.6694336 C178.141114,33.4116198 178.291992,33.0966815 178.397461,32.7246094 C178.50293,32.3525372 178.555664,31.9350609 178.555664,31.472168 Z M185.551758,25.2583008 L183.029297,25.2583008 L183.029297,23.5883789 L187.749023,23.5883789 L187.749023,34.3374023 L190.324219,34.3374023 L190.324219,36.0073242 L182.72168,36.0073242 L182.72168,34.3374023 L185.551758,34.3374023 L185.551758,25.2583008 Z M200.607422,31.472168 C200.607422,32.1752965 200.507813,32.8183565 200.308594,33.4013672 C200.109374,33.9843779 199.822268,34.4838846 199.447266,34.8999023 C199.072264,35.31592 198.612307,35.6381825 198.067383,35.8666992 C197.522458,36.095216 196.901371,36.2094727 196.204102,36.2094727 C195.541989,36.2094727 194.950198,36.1127939 194.428711,35.9194336 C193.907224,35.7260733 193.464846,35.4375019 193.101562,35.0537109 C192.738279,34.66992 192.459962,34.189456 192.266602,33.6123047 C192.073241,33.0351534 191.976562,32.3627968 191.976562,31.5952148 C191.976562,30.8862269 192.077636,30.2417021 192.279785,29.6616211 C192.481935,29.0815401 192.771971,28.5864278 193.149902,28.1762695 C193.527834,27.7661112 193.989255,27.4482433 194.53418,27.2226562 C195.079104,26.9970692 195.694333,26.8842773 196.379883,26.8842773 C197.047855,26.8842773 197.642576,26.9824209 198.164062,27.1787109 C198.685549,27.375001 199.127928,27.666502 199.491211,28.0532227 C199.854494,28.4399433 200.131347,28.9189425 200.321777,29.4902344 C200.512208,30.0615263 200.607422,30.7221642 200.607422,31.472168 Z M198.375,31.5249023 C198.375,30.5991165 198.200685,29.9033226 197.852051,29.4375 C197.503416,28.9716774 196.989261,28.7387695 196.30957,28.7387695 C195.934568,28.7387695 195.615236,28.812011 195.351562,28.9584961 C195.087889,29.1049812 194.871095,29.3056628 194.701172,29.5605469 C194.531249,29.815431 194.406739,30.1127913 194.327637,30.4526367 C194.248535,30.7924822 194.208984,31.1557598 194.208984,31.5424805 C194.208984,32.4741258 194.396482,33.1757789 194.771484,33.6474609 C195.146486,34.119143 195.659176,34.3549805 196.30957,34.3549805 C196.666994,34.3549805 196.977538,34.2832038 197.241211,34.1396484 C197.504884,33.996093 197.718749,33.7968763 197.882812,33.5419922 C198.046876,33.2871081 198.169921,32.9868181 198.251953,32.6411133 C198.333985,32.2954084 198.375,31.9233418 198.375,31.5249023 Z M207.832031,35.0317383 C207.521483,35.8051796 207.197756,36.4833955 206.86084,37.0664062 C206.523924,37.649417 206.153322,38.1357402 205.749023,38.5253906 C205.344725,38.915041 204.895022,39.2080068 204.399902,39.4042969 C203.904783,39.6005869 203.349612,39.6987305 202.734375,39.6987305 C202.58789,39.6987305 202.428224,39.6914063 202.255371,39.6767578 C202.082519,39.6621093 201.905274,39.6401369 201.723633,39.6108398 L201.723633,37.7915039 C201.793946,37.8032227 201.874511,37.8164062 201.965332,37.8310547 C202.056153,37.8457032 202.151367,37.8574218 202.250977,37.8662109 C202.350586,37.875 202.45166,37.8823242 202.554199,37.8881836 C202.656739,37.894043 202.751953,37.8969727 202.839844,37.8969727 C203.085939,37.8969727 203.314452,37.8500981 203.525391,37.7563477 C203.736329,37.6625972 203.931151,37.5322274 204.109863,37.3652344 C204.288575,37.1982414 204.451171,36.9990246 204.597656,36.7675781 C204.744141,36.5361317 204.873046,36.2827162 204.984375,36.0073242 L201.442383,27.0776367 L203.833008,27.0776367 L205.6875,32.1401367 L206.241211,33.7749023 L206.786133,32.2104492 L208.658203,27.0776367 L210.960938,27.0776367 L207.832031,35.0317383 Z" id="path-2"></path>
    </defs>
    <g id="Page-1" stroke="none" stroke-width="1" fill="none" fill-rule="evenodd">
        <g id="page" transform="translate(-393.000000, -2557.000000)">
            <g id="It's-easy-to-get-started" transform="translate(-188.254761, 2252.000000)">
                <g id="Group-135" transform="translate(581.254761, 224.000000)">
                    <g id="command">
                        <g id="Group-13" transform="translate(0.000000, 81.000000)">
                            <path d="M4,0 L650,0 C652.209139,-4.05812251e-16 654,1.790861 654,4 L654,57 C654,59.209139 652.209139,61 650,61 L4,61 C1.790861,61 2.705415e-16,59.209139 0,57 L0,4 C-2.705415e-16,1.790861 1.790861,4.05812251e-16 4,0 Z" id="Rectangle" fill="#000E1A"></path>
                            <path d="M600,10 L644,10 C645.104569,10 646,10.8954305 646,12 L646,31 C646,32.1045695 645.104569,33 644,33 L600,33 C598.895431,33 598,32.1045695 598,31 L598,12 C598,10.8954305 598.895431,10 600,10 Z" id="Rectangle-45" fill="#FFFFFF"></path>
                            <g id="Copy" fill-rule="nonzero" fill="#000000">
                                <use xlink:href="#path-1"></use>
                                <use xlink:href="#path-1"></use>
                            </g>
                            <path d="M227,20 L235,20 L235,38 L227,38 L227,20 Z" id="Rectangle-2" fill="#DCD207"></path>
                            <g id="yarnwebinydeploy" fill-rule="nonzero" fill="#FFFFFF">
                                <use xlink:href="#path-2"></use>
                                <use xlink:href="#path-2"></use>
                            </g>
                        </g>
                    </g>
                </g>
            </g>
        </g>
    </g>
</svg>