<svg width="256" height="140" viewBox="0 0 256 140" fill="none" xmlns="http://www.w3.org/2000/svg">
<path fill-rule="evenodd" clip-rule="evenodd" d="M32.4499 25.0837H54C53.8268 14.4782 47.1055 5.08746 37.1219 1.50211C27.1382 -2.08325 15.9774 0.885615 9.09535 8.95741C2.21326 17.0292 1.0473 28.518 6.16744 37.8076C11.2876 47.0972 21.6244 52.2473 32.1248 50.7404L32.1343 26.2577C31.664 25.9736 31.7682 25.0837 32.4499 25.0837Z" fill="#F2F2F2"/>
<path fill-rule="evenodd" clip-rule="evenodd" d="M243.901 116.128C239.6 117.907 234.65 116.919 231.362 113.625C228.073 110.331 227.095 105.38 228.883 101.084C230.67 96.7869 234.872 93.9907 239.527 94C242.576 94 245.5 95.2124 247.654 97.3699C249.807 99.5273 251.014 102.453 251.008 105.501C251.008 110.154 248.203 114.349 243.901 116.128Z" fill="#F2F2F2"/>
<path fill-rule="evenodd" clip-rule="evenodd" d="M220 51.0019V62.999H237.87C240.045 63.0533 242.078 61.9219 243.181 60.0437C244.285 58.1654 244.285 55.8355 243.181 53.9572C242.078 52.0789 240.045 50.9476 237.87 51.0019H220Z" fill="#F2F2F2"/>
<rect x="23" y="25" width="208" height="112" fill="white"/>
<rect x="32.5" y="31.5" width="191" height="105" fill="white" stroke="#D8D8D8"/>
<rect x="23.0116" y="25.0029" width="2" height="113.008" fill="#EFEFEF"/>
<rect x="231.012" y="25.0029" width="2" height="113.008" fill="#EFEFEF"/>
<rect x="16.0076" y="137.011" width="225.082" height="2.00015" fill="#DEDEDE"/>
<rect x="23.0116" y="23.002" width="210.076" height="2" fill="#D3D3D3"/>
<rect x="3.00256" y="137.011" width="8.0029" height="2.00015" fill="#DEDEDE"/>
<rect x="247.003" y="137.011" width="8.0029" height="2.00015" fill="#DEDEDE"/>
<path fill-rule="evenodd" clip-rule="evenodd" d="M9.00326 97.0013C4.0309 97.0013 0 92.9716 0 88.0007C0 83.0297 4.0309 79 9.00326 79C11.3911 79 13.6811 79.9483 15.3695 81.6362C17.058 83.3242 18.0065 85.6135 18.0065 88.0007C18.0065 92.9716 13.9756 97.0013 9.00326 97.0013Z" fill="#F2F2F2"/>
<rect x="32" y="31" width="192" height="13" fill="#D8D8D8"/>
<rect x="33" y="32" width="190" height="11" fill="white"/>
<path fill-rule="evenodd" clip-rule="evenodd" d="M173.889 39.0002C173.398 39.0002 173 38.5524 173 38.0001C173 37.4477 173.398 37 173.889 37H192.111C192.602 37 193 37.4477 193 38.0001C193 38.5524 192.602 39.0002 192.111 39.0002H173.889Z" fill="#DEDEDE"/>
<rect x="200" y="35" width="19" height="6" rx="1" fill="#FA5A28"/>
<path fill-rule="evenodd" clip-rule="evenodd" d="M206.311 39.0002C206.139 39.0002 206 38.5524 206 38.0001C206 37.4477 206.139 37 206.311 37H212.689C212.861 37 213 37.4477 213 38.0001C213 38.5524 212.861 39.0002 212.689 39.0002H206.311Z" fill="white"/>
<rect x="40" y="52" width="2" height="2" rx="1" fill="#FA5A28"/>
<rect x="40" y="59" width="2" height="2" rx="1" fill="#FA5A28"/>
<rect x="40" y="66" width="2" height="2" rx="1" fill="#FA5A28"/>
<rect x="40" y="73" width="2" height="2" rx="1" fill="#FA5A28"/>
<rect x="40" y="80" width="2" height="2" rx="1" fill="#FA5A28"/>
<path fill-rule="evenodd" clip-rule="evenodd" d="M45.8002 54.0001C45.3583 54.0001 45 53.5524 45 53.0001C45 52.4478 45.3583 52.0001 45.8002 52.0001H62.1998C62.6417 52.0001 63 52.4478 63 53.0001C63 53.5524 62.6417 54.0001 62.1998 54.0001H45.8002Z" fill="#6B6B6B"/>
<path fill-rule="evenodd" clip-rule="evenodd" d="M45.8002 61.0001C45.3583 61.0001 45 60.5524 45 60.0001C45 59.4478 45.3583 59.0001 45.8002 59.0001H62.1998C62.6417 59.0001 63 59.4478 63 60.0001C63 60.5524 62.6417 61.0001 62.1998 61.0001H45.8002Z" fill="#6B6B6B"/>
<path fill-rule="evenodd" clip-rule="evenodd" d="M45.8002 68.0001C45.3583 68.0001 45 67.5524 45 67.0001C45 66.4478 45.3583 66.0001 45.8002 66.0001H62.1998C62.6417 66.0001 63 66.4478 63 67.0001C63 67.5524 62.6417 68.0001 62.1998 68.0001H45.8002Z" fill="#6B6B6B"/>
<path fill-rule="evenodd" clip-rule="evenodd" d="M45.8002 75.0001C45.3583 75.0001 45 74.5524 45 74.0001C45 73.4478 45.3583 73.0001 45.8002 73.0001H62.1998C62.6417 73.0001 63 73.4478 63 74.0001C63 74.5524 62.6417 75.0001 62.1998 75.0001H45.8002Z" fill="#6B6B6B"/>
<path fill-rule="evenodd" clip-rule="evenodd" d="M45.8002 82.0001C45.3583 82.0001 45 81.5524 45 81.0001C45 80.4478 45.3583 80.0001 45.8002 80.0001H62.1998C62.6417 80.0001 63 80.4478 63 81.0001C63 81.5524 62.6417 82.0001 62.1998 82.0001H45.8002Z" fill="#6B6B6B"/>
<rect x="75" y="44" width="148" height="92" fill="#F4F4F4"/>
<rect x="92" y="48" width="24" height="16" rx="1.57" fill="#E6E6E6"/>
<path fill-rule="evenodd" clip-rule="evenodd" d="M99.6558 60.7693L95.958 57.0025L92 61.0344V62.9033C92 63.509 92.482 64 93.0766 64H114.923C115.518 64 116 63.509 116 62.9033V59.8783L108.265 52L99.6558 60.7693Z" fill="white"/>
<ellipse cx="100" cy="53.5" rx="2" ry="2.5" fill="white"/>
<rect x="92" y="92" width="24" height="16" rx="1.57" fill="#E6E6E6"/>
<path fill-rule="evenodd" clip-rule="evenodd" d="M99.6558 104.769L95.958 101.003L92 105.034V106.903C92 107.509 92.482 108 93.0766 108H114.923C115.518 108 116 107.509 116 106.903V103.878L108.265 96L99.6558 104.769Z" fill="white"/>
<ellipse cx="100" cy="97.5" rx="2" ry="2.5" fill="white"/>
<rect x="92" y="70" width="24" height="16" rx="1.57" fill="#E6E6E6"/>
<path fill-rule="evenodd" clip-rule="evenodd" d="M99.6558 82.7693L95.958 79.0025L92 83.0344V84.9033C92 85.509 92.482 86 93.0766 86H114.923C115.518 86 116 85.509 116 84.9033V81.8783L108.265 74L99.6558 82.7693Z" fill="white"/>
<ellipse cx="100" cy="75.5" rx="2" ry="2.5" fill="white"/>
<rect x="92" y="114" width="24" height="16" rx="1.57" fill="#E6E6E6"/>
<path fill-rule="evenodd" clip-rule="evenodd" d="M99.6558 126.769L95.958 123.003L92 127.034V128.903C92 129.509 92.482 130 93.0766 130H114.923C115.518 130 116 129.509 116 128.903V125.878L108.265 118L99.6558 126.769Z" fill="white"/>
<ellipse cx="100" cy="119.5" rx="2" ry="2.5" fill="white"/>
<rect x="122" y="48" width="24" height="16" rx="1.57" fill="#E6E6E6"/>
<path fill-rule="evenodd" clip-rule="evenodd" d="M129.656 60.7693L125.958 57.0025L122 61.0344V62.9033C122 63.509 122.482 64 123.077 64H144.923C145.518 64 146 63.509 146 62.9033V59.8783L138.265 52L129.656 60.7693Z" fill="white"/>
<ellipse cx="130" cy="53.5" rx="2" ry="2.5" fill="white"/>
<rect x="122" y="92" width="24" height="16" rx="1.57" fill="#E6E6E6"/>
<path fill-rule="evenodd" clip-rule="evenodd" d="M129.656 104.769L125.958 101.003L122 105.034V106.903C122 107.509 122.482 108 123.077 108H144.923C145.518 108 146 107.509 146 106.903V103.878L138.265 96L129.656 104.769Z" fill="white"/>
<ellipse cx="130" cy="97.5" rx="2" ry="2.5" fill="white"/>
<rect x="122" y="70" width="24" height="16" rx="1.57" fill="#E6E6E6"/>
<path fill-rule="evenodd" clip-rule="evenodd" d="M129.656 82.7693L125.958 79.0025L122 83.0344V84.9033C122 85.509 122.482 86 123.077 86H144.923C145.518 86 146 85.509 146 84.9033V81.8783L138.265 74L129.656 82.7693Z" fill="white"/>
<ellipse cx="130" cy="75.5" rx="2" ry="2.5" fill="white"/>
<rect x="122" y="114" width="24" height="16" rx="1.57" fill="#E6E6E6"/>
<path fill-rule="evenodd" clip-rule="evenodd" d="M129.656 126.769L125.958 123.003L122 127.034V128.903C122 129.509 122.482 130 123.077 130H144.923C145.518 130 146 129.509 146 128.903V125.878L138.265 118L129.656 126.769Z" fill="white"/>
<ellipse cx="130" cy="119.5" rx="2" ry="2.5" fill="white"/>
<rect x="152" y="48" width="24" height="16" rx="1.57" fill="#E6E6E6"/>
<path fill-rule="evenodd" clip-rule="evenodd" d="M159.656 60.7693L155.958 57.0025L152 61.0344V62.9033C152 63.509 152.482 64 153.077 64H174.923C175.518 64 176 63.509 176 62.9033V59.8783L168.265 52L159.656 60.7693Z" fill="white"/>
<ellipse cx="160" cy="53.5" rx="2" ry="2.5" fill="white"/>
<rect x="152" y="92" width="24" height="16" rx="1.57" fill="#E6E6E6"/>
<path fill-rule="evenodd" clip-rule="evenodd" d="M159.656 104.769L155.958 101.003L152 105.034V106.903C152 107.509 152.482 108 153.077 108H174.923C175.518 108 176 107.509 176 106.903V103.878L168.265 96L159.656 104.769Z" fill="white"/>
<ellipse cx="160" cy="97.5" rx="2" ry="2.5" fill="white"/>
<rect x="152" y="70" width="24" height="16" rx="1.57" fill="#E6E6E6"/>
<path fill-rule="evenodd" clip-rule="evenodd" d="M159.656 82.7693L155.958 79.0025L152 83.0344V84.9033C152 85.509 152.482 86 153.077 86H174.923C175.518 86 176 85.509 176 84.9033V81.8783L168.265 74L159.656 82.7693Z" fill="white"/>
<ellipse cx="160" cy="75.5" rx="2" ry="2.5" fill="white"/>
<rect x="152" y="114" width="24" height="16" rx="1.57" fill="#E6E6E6"/>
<path fill-rule="evenodd" clip-rule="evenodd" d="M159.656 126.769L155.958 123.003L152 127.034V128.903C152 129.509 152.482 130 153.077 130H174.923C175.518 130 176 129.509 176 128.903V125.878L168.265 118L159.656 126.769Z" fill="white"/>
<ellipse cx="160" cy="119.5" rx="2" ry="2.5" fill="white"/>
<rect x="182" y="48" width="24" height="16" rx="1.57" fill="#E6E6E6"/>
<path fill-rule="evenodd" clip-rule="evenodd" d="M189.656 60.7693L185.958 57.0025L182 61.0344V62.9033C182 63.509 182.482 64 183.077 64H204.923C205.518 64 206 63.509 206 62.9033V59.8783L198.265 52L189.656 60.7693Z" fill="white"/>
<ellipse cx="190" cy="53.5" rx="2" ry="2.5" fill="white"/>
<rect x="182" y="92" width="24" height="16" rx="1.57" fill="#E6E6E6"/>
<path fill-rule="evenodd" clip-rule="evenodd" d="M189.656 104.769L185.958 101.003L182 105.034V106.903C182 107.509 182.482 108 183.077 108H204.923C205.518 108 206 107.509 206 106.903V103.878L198.265 96L189.656 104.769Z" fill="white"/>
<ellipse cx="190" cy="97.5" rx="2" ry="2.5" fill="white"/>
<rect x="182" y="70" width="24" height="16" rx="1.57" fill="#E6E6E6"/>
<path fill-rule="evenodd" clip-rule="evenodd" d="M189.656 82.7693L185.958 79.0025L182 83.0344V84.9033C182 85.509 182.482 86 183.077 86H204.923C205.518 86 206 85.509 206 84.9033V81.8783L198.265 74L189.656 82.7693Z" fill="white"/>
<ellipse cx="190" cy="75.5" rx="2" ry="2.5" fill="white"/>
<rect x="182" y="114" width="24" height="16" rx="1.57" fill="#E6E6E6"/>
<path fill-rule="evenodd" clip-rule="evenodd" d="M189.656 126.769L185.958 123.003L182 127.034V128.903C182 129.509 182.482 130 183.077 130H204.923C205.518 130 206 129.509 206 128.903V125.878L198.265 118L189.656 126.769Z" fill="white"/>
<ellipse cx="190" cy="119.5" rx="2" ry="2.5" fill="white"/>
<rect x="36" y="34" width="54" height="7" rx="2" fill="#D8D8D8"/>
<rect x="44" y="37" width="35" height="1" rx="0.5" fill="white"/>
<circle cx="39.5" cy="37.5" r="1.35" stroke="#979797" stroke-width="0.3"/>
</svg>
