<svg width="80" height="90" viewBox="0 0 80 90" fill="none" xmlns="http://www.w3.org/2000/svg">
<path opacity="0.5" fill-rule="evenodd" clip-rule="evenodd" d="M44.6848 88.4972C41.7859 90.1757 38.2146 90.1757 35.3157 88.4972L4.68447 70.7571C1.78563 69.0781 0 65.9759 0 62.6183L0 27.1381C0 23.7805 1.78563 20.6779 4.68447 18.9994L35.3157 1.2593C38.2146 -0.419768 41.7859 -0.419768 44.6848 1.2593L75.3155 18.9994C78.2144 20.6779 80 23.7805 80 27.1381V62.6183C80 65.9759 78.2144 69.0781 75.3155 70.7571L44.6848 88.4972Z" fill="white"/>
<path fill-rule="evenodd" clip-rule="evenodd" d="M44.8234 84.8157C42.1687 86.3503 38.8982 86.3503 36.2435 84.8157L8.19237 68.5959C5.5377 67.0607 3.90248 64.2244 3.90248 61.1545L3.90248 28.715C3.90248 25.6452 5.5377 22.8084 8.19237 21.2737L36.2435 5.05397C38.8982 3.51879 42.1687 3.51879 44.8234 5.05397L72.874 21.2737C75.5287 22.8084 77.164 25.6452 77.164 28.715V61.1545C77.164 64.2244 75.5287 67.0607 72.874 68.5959L44.8234 84.8157Z" fill="url(#paint0_linear)"/>
<path d="M60.0369 60.8467L40.5987 72.3834L20.6113 60.8437L40.2536 49.4209L60.0369 60.8467Z" fill="white" fill-opacity="0.7"/>
<path d="M64.8129 47.7061L40.6652 62.038L15.8353 47.7025L40.2365 33.5121L64.8129 47.7061Z" fill="white" fill-opacity="0.9"/>
<path d="M69.5935 34.5642L40.3252 51.2924L11.0569 34.5642L40.3252 17.1221L69.5935 34.5642Z" fill="#8033EB" fill-opacity="0.7"/>
<defs>
<linearGradient id="paint0_linear" x1="82.0504" y1="143.638" x2="116.274" y2="69.1533" gradientUnits="userSpaceOnUse">
<stop stop-color="#8033EB"/>
<stop offset="1" stop-color="#F94F24"/>
</linearGradient>
</defs>
</svg>
