<svg width="174" height="120" viewBox="0 0 174 120" fill="none" xmlns="http://www.w3.org/2000/svg">
<path fill-rule="evenodd" clip-rule="evenodd" d="M141.857 61.4285C130.811 61.4285 121.857 52.4742 121.857 41.4286C121.857 30.3829 130.811 21.4286 141.857 21.4286C147.161 21.4286 152.248 23.5357 155.999 27.2864C159.75 31.0372 161.857 36.1242 161.857 41.4286C161.857 52.4742 152.903 61.4285 141.857 61.4285Z" fill="#F2F2F2"/>
<path fill-rule="evenodd" clip-rule="evenodd" d="M143.428 113.333C138.757 115.269 133.38 114.2 129.805 110.625C126.23 107.05 125.16 101.674 127.094 97.0025C129.029 92.3314 133.587 89.2856 138.643 89.2856C145.545 89.2856 151.141 94.8806 151.143 101.783C151.144 106.839 148.099 111.398 143.428 113.333Z" fill="#F2F2F2"/>
<rect x="55.4285" y="104.286" width="42.1428" height="9.99998" rx="4.99999" fill="#F2F2F2"/>
<rect x="9" y="77.1429" width="42.1428" height="9.99999" rx="4.99999" fill="#F2F2F2"/>
<g filter="url(#filter0_d)">
<rect x="35.4285" y="10" width="22.204" height="27.2681" fill="white"/>
</g>
<path d="M42.6323 21.2968L40.103 23.8274L42.6351 26.3608" stroke="#FA5A28" stroke-linecap="round" stroke-linejoin="round"/>
<path d="M50.2312 26.3608L52.7632 23.8302L50.2312 21.2968" stroke="#FA5A28" stroke-linecap="round" stroke-linejoin="round"/>
<path d="M45.1671 21.2968L47.6991 26.3608" stroke="#FA5A28" stroke-linecap="round" stroke-linejoin="round"/>
<g filter="url(#filter1_d)">
<rect x="118.939" y="10" width="22.204" height="27.2681" fill="white"/>
</g>
<path d="M126.142 21.2968L123.613 23.8274L126.145 26.3608" stroke="#FA5A28" stroke-linecap="round" stroke-linejoin="round"/>
<path d="M133.741 26.3608L136.273 23.8302L133.741 21.2968" stroke="#FA5A28" stroke-linecap="round" stroke-linejoin="round"/>
<path d="M128.677 21.2968L131.209 26.3608" stroke="#FA5A28" stroke-linecap="round" stroke-linejoin="round"/>
<path fill-rule="evenodd" clip-rule="evenodd" d="M79.4412 97.8573C79.4412 97.8573 81.5212 113.931 68.2856 117.143H109.714C96.4785 113.926 98.5585 97.8573 98.5585 97.8573H79.4412Z" fill="#999999"/>
<rect x="68.2856" y="117.143" width="41.4285" height="2.85714" fill="#E5E5E5"/>
<path fill-rule="evenodd" clip-rule="evenodd" d="M139.934 100.168C139.15 100.964 138.079 101.418 136.959 101.428H37.4694C35.1365 101.405 33.2641 99.5049 33.2859 97.1841V39.2421C33.2654 36.9221 35.1374 35.0239 37.4694 35H136.959C138.079 35.0109 139.15 35.4642 139.934 36.2602C140.719 37.0562 141.153 38.1296 141.142 39.2444V97.1841C141.153 98.2988 140.719 99.3723 139.934 100.168Z" fill="#B3B3B3"/>
<rect x="33.2857" y="40.7144" width="107.857" height="52.8571" fill="url(#paint0_linear)"/>
<g style="mix-blend-mode:multiply">
<rect x="33.2857" y="40.7144" width="107.857" height="0.714284" fill="#E5E5E5"/>
</g>
<path fill-rule="evenodd" clip-rule="evenodd" d="M98.6319 101.428C98.6319 101.428 98.8663 103.954 98.9998 104.607L77.5713 109.286C77.5713 109.286 79.4156 106.364 79.4156 101.428H98.6319Z" fill="#828282"/>
<g style="mix-blend-mode:screen" opacity="0.1">
<path fill-rule="evenodd" clip-rule="evenodd" d="M141.143 71.788C141.143 71.788 125.787 91.262 87.2141 74.0696C48.6414 56.8773 33.2857 74.0696 33.2857 74.0696V93.5714H141.143V71.788Z" fill="#E5E5E5"/>
</g>
<g style="mix-blend-mode:multiply">
<rect x="33.2857" y="92.8572" width="107.857" height="0.714284" fill="#E5E5E5"/>
</g>
<g filter="url(#filter2_d)">
<rect x="135.979" y="32.0175" width="28.0204" height="34.411" fill="white"/>
</g>
<path d="M145.07 46.2734L141.878 49.467L145.074 52.664" stroke="#FA5A28" stroke-linecap="round" stroke-linejoin="round"/>
<path d="M154.66 52.664L157.855 49.4705L154.66 46.2734" stroke="#FA5A28" stroke-linecap="round" stroke-linejoin="round"/>
<path d="M148.269 46.2734L151.464 52.664" stroke="#FA5A28" stroke-linecap="round" stroke-linejoin="round"/>
<g filter="url(#filter3_d)">
<rect x="10.4286" y="32.0175" width="28.0204" height="34.411" fill="white"/>
</g>
<path d="M19.5194 46.2734L16.3276 49.467L19.5229 52.664" stroke="#FA5A28" stroke-linecap="round" stroke-linejoin="round"/>
<path d="M29.1088 52.664L32.3041 49.4705L29.1088 46.2734" stroke="#FA5A28" stroke-linecap="round" stroke-linejoin="round"/>
<path d="M22.7182 46.2734L25.9135 52.664" stroke="#FA5A28" stroke-linecap="round" stroke-linejoin="round"/>
<g filter="url(#filter4_d)">
<rect x="68.2856" y="21.4286" width="40.7142" height="49.9999" fill="white"/>
</g>
<path fill-rule="evenodd" clip-rule="evenodd" d="M71.7727 29.5244C71.5412 29.1558 71.4255 28.6265 71.4255 27.9365C71.4255 27.2465 71.5412 26.7215 71.7727 26.3615C72.0041 26.0015 72.3277 25.8215 72.7434 25.8215C73.1548 25.8215 73.4762 26.0015 73.7077 26.3615C73.9391 26.7215 74.0548 27.2465 74.0548 27.9365C74.0548 28.6265 73.9391 29.1558 73.7077 29.5244C73.4762 29.893 73.1548 30.0772 72.7434 30.0772C72.3277 30.0772 72.0041 29.893 71.7727 29.5244ZM73.0648 29.5565C73.1634 29.488 73.2469 29.3851 73.3155 29.248C73.3884 29.1065 73.4441 28.9287 73.4827 28.7144C73.5212 28.4958 73.5405 28.2365 73.5405 27.9365C73.5405 27.6365 73.5212 27.3794 73.4827 27.1651C73.4441 26.9508 73.3884 26.7772 73.3155 26.6444C73.2469 26.5072 73.1634 26.4065 73.0648 26.3422C72.9705 26.278 72.8634 26.2458 72.7434 26.2458C72.6234 26.2458 72.5141 26.278 72.4155 26.3422C72.3169 26.4065 72.2312 26.5072 72.1584 26.6444C72.0898 26.7772 72.0362 26.9508 71.9977 27.1651C71.9591 27.3794 71.9398 27.6365 71.9398 27.9365C71.9398 28.5365 72.0127 28.9737 72.1584 29.248C72.3084 29.518 72.5034 29.653 72.7434 29.653C72.8634 29.653 72.9705 29.6208 73.0648 29.5565ZM75.5603 29.563H76.4988V26.5415H75.7531V26.2008C75.9417 26.1665 76.1045 26.1258 76.2417 26.0787C76.3831 26.0272 76.5095 25.9672 76.621 25.8987H77.026V29.563H77.8745V30.0001H75.5603V29.563ZM79.5921 29.5244C79.3607 29.1558 79.245 28.6265 79.245 27.9365C79.245 27.2465 79.3607 26.7215 79.5921 26.3615C79.8236 26.0015 80.1471 25.8215 80.5628 25.8215C80.9743 25.8215 81.2957 26.0015 81.5271 26.3615C81.7586 26.7215 81.8743 27.2465 81.8743 27.9365C81.8743 28.6265 81.7586 29.1558 81.5271 29.5244C81.2957 29.893 80.9743 30.0772 80.5628 30.0772C80.1471 30.0772 79.8236 29.893 79.5921 29.5244ZM80.8843 29.5565C80.9828 29.488 81.0664 29.3851 81.135 29.248C81.2078 29.1065 81.2636 28.9287 81.3021 28.7144C81.3407 28.4958 81.36 28.2365 81.36 27.9365C81.36 27.6365 81.3407 27.3794 81.3021 27.1651C81.2636 26.9508 81.2078 26.7772 81.135 26.6444C81.0664 26.5072 80.9828 26.4065 80.8843 26.3422C80.79 26.278 80.6828 26.2458 80.5628 26.2458C80.4428 26.2458 80.3336 26.278 80.235 26.3422C80.1364 26.4065 80.0507 26.5072 79.9778 26.6444C79.9093 26.7772 79.8557 26.9508 79.8171 27.1651C79.7786 27.3794 79.7593 27.6365 79.7593 27.9365C79.7593 28.5365 79.8321 28.9737 79.9778 29.248C80.1278 29.518 80.3228 29.653 80.5628 29.653C80.6828 29.653 80.79 29.6208 80.8843 29.5565ZM83.3797 29.563H84.3183V26.5415H83.5726V26.2008C83.7611 26.1665 83.924 26.1258 84.0611 26.0787C84.2026 26.0272 84.329 25.9672 84.4404 25.8987H84.8454V29.563H85.694V30.0001H83.3797V29.563ZM87.4116 29.5244C87.1802 29.1558 87.0644 28.6265 87.0644 27.9365C87.0644 27.2465 87.1802 26.7215 87.4116 26.3615C87.643 26.0015 87.9666 25.8215 88.3823 25.8215C88.7937 25.8215 89.1152 26.0015 89.3466 26.3615C89.578 26.7215 89.6937 27.2465 89.6937 27.9365C89.6937 28.6265 89.578 29.1558 89.3466 29.5244C89.1152 29.893 88.7937 30.0772 88.3823 30.0772C87.9666 30.0772 87.643 29.893 87.4116 29.5244ZM88.7037 29.5565C88.8023 29.488 88.8859 29.3851 88.9544 29.248C89.0273 29.1065 89.083 28.9287 89.1216 28.7144C89.1602 28.4958 89.1794 28.2365 89.1794 27.9365C89.1794 27.6365 89.1602 27.3794 89.1216 27.1651C89.083 26.9508 89.0273 26.7772 88.9544 26.6444C88.8859 26.5072 88.8023 26.4065 88.7037 26.3422C88.6094 26.278 88.5023 26.2458 88.3823 26.2458C88.2623 26.2458 88.153 26.278 88.0544 26.3422C87.9559 26.4065 87.8702 26.5072 87.7973 26.6444C87.7287 26.7772 87.6752 26.9508 87.6366 27.1651C87.598 27.3794 87.5787 27.6365 87.5787 27.9365C87.5787 28.5365 87.6516 28.9737 87.7973 29.248C87.9473 29.518 88.1423 29.653 88.3823 29.653C88.5023 29.653 88.6094 29.6208 88.7037 29.5565ZM91.1992 29.563H92.1377V26.5415H91.392V26.2008C91.5806 26.1665 91.7435 26.1258 91.8806 26.0787C92.022 26.0272 92.1485 25.9672 92.2599 25.8987H92.6649V29.563H93.5135V30.0001H91.1992V29.563ZM95.1089 29.563H96.0475V26.5415H95.3018V26.2008C95.4903 26.1665 95.6532 26.1258 95.7903 26.0787C95.9318 26.0272 96.0582 25.9672 96.1696 25.8987H96.5746V29.563H97.4232V30.0001H95.1089V29.563ZM99.0186 29.563H99.9572V26.5415H99.2115V26.2008C99.4001 26.1665 99.5629 26.1258 99.7001 26.0787C99.8415 26.0272 99.9679 25.9672 100.079 25.8987H100.484V29.563H101.333V30.0001H99.0186V29.563ZM103.051 29.5244C102.819 29.1558 102.703 28.6265 102.703 27.9365C102.703 27.2465 102.819 26.7215 103.051 26.3615C103.282 26.0015 103.606 25.8215 104.021 25.8215C104.433 25.8215 104.754 26.0015 104.986 26.3615C105.217 26.7215 105.333 27.2465 105.333 27.9365C105.333 28.6265 105.217 29.1558 104.986 29.5244C104.754 29.893 104.433 30.0772 104.021 30.0772C103.606 30.0772 103.282 29.893 103.051 29.5244ZM104.343 29.5565C104.441 29.488 104.525 29.3851 104.593 29.248C104.666 29.1065 104.722 28.9287 104.761 28.7144C104.799 28.4958 104.818 28.2365 104.818 27.9365C104.818 27.6365 104.799 27.3794 104.761 27.1651C104.722 26.9508 104.666 26.7772 104.593 26.6444C104.525 26.5072 104.441 26.4065 104.343 26.3422C104.248 26.278 104.141 26.2458 104.021 26.2458C103.901 26.2458 103.792 26.278 103.693 26.3422C103.595 26.4065 103.509 26.5072 103.436 26.6444C103.368 26.7772 103.314 26.9508 103.276 27.1651C103.237 27.3794 103.218 27.6365 103.218 27.9365C103.218 28.5365 103.291 28.9737 103.436 29.248C103.586 29.518 103.781 29.653 104.021 29.653C104.141 29.653 104.248 29.6208 104.343 29.5565ZM71.6505 37.4201H72.5891V34.3987H71.8434V34.0579C72.0319 34.0237 72.1948 33.9829 72.3319 33.9358C72.4734 33.8844 72.5998 33.8244 72.7112 33.7558H73.1162V37.4201H73.9648V37.8572H71.6505V37.4201ZM75.5603 37.4201H76.4988V34.3987H75.7531V34.0579C75.9417 34.0237 76.1045 33.9829 76.2417 33.9358C76.3831 33.8844 76.5095 33.8244 76.621 33.7558H77.026V37.4201H77.8745V37.8572H75.5603V37.4201ZM79.5921 37.3815C79.3607 37.0129 79.245 36.4837 79.245 35.7937C79.245 35.1037 79.3607 34.5787 79.5921 34.2187C79.8236 33.8587 80.1471 33.6787 80.5628 33.6787C80.9743 33.6787 81.2957 33.8587 81.5271 34.2187C81.7586 34.5787 81.8743 35.1037 81.8743 35.7937C81.8743 36.4837 81.7586 37.0129 81.5271 37.3815C81.2957 37.7501 80.9743 37.9344 80.5628 37.9344C80.1471 37.9344 79.8236 37.7501 79.5921 37.3815ZM80.8843 37.4137C80.9828 37.3451 81.0664 37.2422 81.135 37.1051C81.2078 36.9637 81.2636 36.7858 81.3021 36.5715C81.3407 36.3529 81.36 36.0937 81.36 35.7937C81.36 35.4937 81.3407 35.2365 81.3021 35.0222C81.2636 34.8079 81.2078 34.6344 81.135 34.5015C81.0664 34.3644 80.9828 34.2637 80.8843 34.1994C80.79 34.1351 80.6828 34.1029 80.5628 34.1029C80.4428 34.1029 80.3336 34.1351 80.235 34.1994C80.1364 34.2637 80.0507 34.3644 79.9778 34.5015C79.9093 34.6344 79.8557 34.8079 79.8171 35.0222C79.7786 35.2365 79.7593 35.4937 79.7593 35.7937C79.7593 36.3937 79.8321 36.8308 79.9778 37.1051C80.1278 37.3751 80.3228 37.5101 80.5628 37.5101C80.6828 37.5101 80.79 37.4779 80.8843 37.4137ZM83.5019 37.3815C83.2704 37.0129 83.1547 36.4837 83.1547 35.7937C83.1547 35.1037 83.2704 34.5787 83.5019 34.2187C83.7333 33.8587 84.0569 33.6787 84.4726 33.6787C84.884 33.6787 85.2054 33.8587 85.4369 34.2187C85.6683 34.5787 85.784 35.1037 85.784 35.7937C85.784 36.4837 85.6683 37.0129 85.4369 37.3815C85.2054 37.7501 84.884 37.9344 84.4726 37.9344C84.0569 37.9344 83.7333 37.7501 83.5019 37.3815ZM84.794 37.4137C84.8926 37.3451 84.9761 37.2422 85.0447 37.1051C85.1176 36.9637 85.1733 36.7858 85.2119 36.5715C85.2504 36.3529 85.2697 36.0937 85.2697 35.7937C85.2697 35.4937 85.2504 35.2365 85.2119 35.0222C85.1733 34.8079 85.1176 34.6344 85.0447 34.5015C84.9761 34.3644 84.8926 34.2637 84.794 34.1994C84.6997 34.1351 84.5926 34.1029 84.4726 34.1029C84.3526 34.1029 84.2433 34.1351 84.1447 34.1994C84.0461 34.2637 83.9604 34.3644 83.8876 34.5015C83.819 34.6344 83.7654 34.8079 83.7269 35.0222C83.6883 35.2365 83.669 35.4937 83.669 35.7937C83.669 36.3937 83.7419 36.8308 83.8876 37.1051C84.0376 37.3751 84.2326 37.5101 84.4726 37.5101C84.5926 37.5101 84.6997 37.4779 84.794 37.4137ZM87.2894 37.4201H88.228V34.3987H87.4823V34.0579C87.6709 34.0237 87.8337 33.9829 87.9709 33.9358C88.1123 33.8844 88.2387 33.8244 88.3502 33.7558H88.7552V37.4201H89.6037V37.8572H87.2894V37.4201ZM91.3213 37.3815C91.0899 37.0129 90.9742 36.4837 90.9742 35.7937C90.9742 35.1037 91.0899 34.5787 91.3213 34.2187C91.5527 33.8587 91.8763 33.6787 92.292 33.6787C92.7035 33.6787 93.0249 33.8587 93.2563 34.2187C93.4877 34.5787 93.6035 35.1037 93.6035 35.7937C93.6035 36.4837 93.4877 37.0129 93.2563 37.3815C93.0249 37.7501 92.7035 37.9344 92.292 37.9344C91.8763 37.9344 91.5527 37.7501 91.3213 37.3815ZM92.6135 37.4137C92.712 37.3451 92.7956 37.2422 92.8642 37.1051C92.937 36.9637 92.9927 36.7858 93.0313 36.5715C93.0699 36.3529 93.0892 36.0937 93.0892 35.7937C93.0892 35.4937 93.0699 35.2365 93.0313 35.0222C92.9927 34.8079 92.937 34.6344 92.8642 34.5015C92.7956 34.3644 92.712 34.2637 92.6135 34.1994C92.5192 34.1351 92.412 34.1029 92.292 34.1029C92.172 34.1029 92.0627 34.1351 91.9642 34.1994C91.8656 34.2637 91.7799 34.3644 91.707 34.5015C91.6385 34.6344 91.5849 34.8079 91.5463 35.0222C91.5077 35.2365 91.4885 35.4937 91.4885 35.7937C91.4885 36.3937 91.5613 36.8308 91.707 37.1051C91.857 37.3751 92.052 37.5101 92.292 37.5101C92.412 37.5101 92.5192 37.4779 92.6135 37.4137ZM95.1089 37.4201H96.0475V34.3987H95.3018V34.0579C95.4903 34.0237 95.6532 33.9829 95.7903 33.9358C95.9318 33.8844 96.0582 33.8244 96.1696 33.7558H96.5746V37.4201H97.4232V37.8572H95.1089V37.4201ZM99.1408 37.3815C98.9094 37.0129 98.7936 36.4837 98.7936 35.7937C98.7936 35.1037 98.9094 34.5787 99.1408 34.2187C99.3722 33.8587 99.6958 33.6787 100.111 33.6787C100.523 33.6787 100.844 33.8587 101.076 34.2187C101.307 34.5787 101.423 35.1037 101.423 35.7937C101.423 36.4837 101.307 37.0129 101.076 37.3815C100.844 37.7501 100.523 37.9344 100.111 37.9344C99.6958 37.9344 99.3722 37.7501 99.1408 37.3815ZM100.433 37.4137C100.531 37.3451 100.615 37.2422 100.684 37.1051C100.756 36.9637 100.812 36.7858 100.851 36.5715C100.889 36.3529 100.909 36.0937 100.909 35.7937C100.909 35.4937 100.889 35.2365 100.851 35.0222C100.812 34.8079 100.756 34.6344 100.684 34.5015C100.615 34.3644 100.531 34.2637 100.433 34.1994C100.339 34.1351 100.231 34.1029 100.111 34.1029C99.9915 34.1029 99.8822 34.1351 99.7836 34.1994C99.6851 34.2637 99.5994 34.3644 99.5265 34.5015C99.4579 34.6344 99.4044 34.8079 99.3658 35.0222C99.3272 35.2365 99.3079 35.4937 99.3079 35.7937C99.3079 36.3937 99.3808 36.8308 99.5265 37.1051C99.6765 37.3751 99.8715 37.5101 100.111 37.5101C100.231 37.5101 100.339 37.4779 100.433 37.4137ZM102.928 37.4201H103.867V34.3987H103.121V34.0579C103.31 34.0237 103.473 33.9829 103.61 33.9358C103.751 33.8844 103.878 33.8244 103.989 33.7558H104.394V37.4201H105.243V37.8572H102.928V37.4201ZM71.6505 45.2772H72.5891V42.2558H71.8434V41.9151C72.0319 41.8808 72.1948 41.8401 72.3319 41.7929C72.4734 41.7415 72.5998 41.6815 72.7112 41.6129H73.1162V45.2772H73.9648V45.7144H71.6505V45.2772ZM75.6824 45.2386C75.451 44.8701 75.3353 44.3408 75.3353 43.6508C75.3353 42.9608 75.451 42.4358 75.6824 42.0758C75.9138 41.7158 76.2374 41.5358 76.6531 41.5358C77.0645 41.5358 77.386 41.7158 77.6174 42.0758C77.8488 42.4358 77.9645 42.9608 77.9645 43.6508C77.9645 44.3408 77.8488 44.8701 77.6174 45.2386C77.386 45.6072 77.0645 45.7915 76.6531 45.7915C76.2374 45.7915 75.9138 45.6072 75.6824 45.2386ZM76.9745 45.2708C77.0731 45.2022 77.1567 45.0994 77.2252 44.9622C77.2981 44.8208 77.3538 44.6429 77.3924 44.4286C77.431 44.2101 77.4502 43.9508 77.4502 43.6508C77.4502 43.3508 77.431 43.0936 77.3924 42.8794C77.3538 42.6651 77.2981 42.4915 77.2252 42.3586C77.1567 42.2215 77.0731 42.1208 76.9745 42.0565C76.8802 41.9922 76.7731 41.9601 76.6531 41.9601C76.5331 41.9601 76.4238 41.9922 76.3253 42.0565C76.2267 42.1208 76.141 42.2215 76.0681 42.3586C75.9995 42.4915 75.946 42.6651 75.9074 42.8794C75.8688 43.0936 75.8495 43.3508 75.8495 43.6508C75.8495 44.2508 75.9224 44.6879 76.0681 44.9622C76.2181 45.2322 76.4131 45.3672 76.6531 45.3672C76.7731 45.3672 76.8802 45.3351 76.9745 45.2708ZM79.5921 45.2386C79.3607 44.8701 79.245 44.3408 79.245 43.6508C79.245 42.9608 79.3607 42.4358 79.5921 42.0758C79.8236 41.7158 80.1471 41.5358 80.5628 41.5358C80.9743 41.5358 81.2957 41.7158 81.5271 42.0758C81.7586 42.4358 81.8743 42.9608 81.8743 43.6508C81.8743 44.3408 81.7586 44.8701 81.5271 45.2386C81.2957 45.6072 80.9743 45.7915 80.5628 45.7915C80.1471 45.7915 79.8236 45.6072 79.5921 45.2386ZM80.8843 45.2708C80.9828 45.2022 81.0664 45.0994 81.135 44.9622C81.2078 44.8208 81.2636 44.6429 81.3021 44.4286C81.3407 44.2101 81.36 43.9508 81.36 43.6508C81.36 43.3508 81.3407 43.0936 81.3021 42.8794C81.2636 42.6651 81.2078 42.4915 81.135 42.3586C81.0664 42.2215 80.9828 42.1208 80.8843 42.0565C80.79 41.9922 80.6828 41.9601 80.5628 41.9601C80.4428 41.9601 80.3336 41.9922 80.235 42.0565C80.1364 42.1208 80.0507 42.2215 79.9778 42.3586C79.9093 42.4915 79.8557 42.6651 79.8171 42.8794C79.7786 43.0936 79.7593 43.3508 79.7593 43.6508C79.7593 44.2508 79.8321 44.6879 79.9778 44.9622C80.1278 45.2322 80.3228 45.3672 80.5628 45.3672C80.6828 45.3672 80.79 45.3351 80.8843 45.2708ZM83.5019 45.2386C83.2704 44.8701 83.1547 44.3408 83.1547 43.6508C83.1547 42.9608 83.2704 42.4358 83.5019 42.0758C83.7333 41.7158 84.0569 41.5358 84.4726 41.5358C84.884 41.5358 85.2054 41.7158 85.4369 42.0758C85.6683 42.4358 85.784 42.9608 85.784 43.6508C85.784 44.3408 85.6683 44.8701 85.4369 45.2386C85.2054 45.6072 84.884 45.7915 84.4726 45.7915C84.0569 45.7915 83.7333 45.6072 83.5019 45.2386ZM84.794 45.2708C84.8926 45.2022 84.9761 45.0994 85.0447 44.9622C85.1176 44.8208 85.1733 44.6429 85.2119 44.4286C85.2504 44.2101 85.2697 43.9508 85.2697 43.6508C85.2697 43.3508 85.2504 43.0936 85.2119 42.8794C85.1733 42.6651 85.1176 42.4915 85.0447 42.3586C84.9761 42.2215 84.8926 42.1208 84.794 42.0565C84.6997 41.9922 84.5926 41.9601 84.4726 41.9601C84.3526 41.9601 84.2433 41.9922 84.1447 42.0565C84.0461 42.1208 83.9604 42.2215 83.8876 42.3586C83.819 42.4915 83.7654 42.6651 83.7269 42.8794C83.6883 43.0936 83.669 43.3508 83.669 43.6508C83.669 44.2508 83.7419 44.6879 83.8876 44.9622C84.0376 45.2322 84.2326 45.3672 84.4726 45.3672C84.5926 45.3672 84.6997 45.3351 84.794 45.2708ZM87.2894 45.2772H88.228V42.2558H87.4823V41.9151C87.6709 41.8808 87.8337 41.8401 87.9709 41.7929C88.1123 41.7415 88.2387 41.6815 88.3502 41.6129H88.7552V45.2772H89.6037V45.7144H87.2894V45.2772ZM91.3213 45.2386C91.0899 44.8701 90.9742 44.3408 90.9742 43.6508C90.9742 42.9608 91.0899 42.4358 91.3213 42.0758C91.5527 41.7158 91.8763 41.5358 92.292 41.5358C92.7035 41.5358 93.0249 41.7158 93.2563 42.0758C93.4877 42.4358 93.6035 42.9608 93.6035 43.6508C93.6035 44.3408 93.4877 44.8701 93.2563 45.2386C93.0249 45.6072 92.7035 45.7915 92.292 45.7915C91.8763 45.7915 91.5527 45.6072 91.3213 45.2386ZM92.6135 45.2708C92.712 45.2022 92.7956 45.0994 92.8642 44.9622C92.937 44.8208 92.9927 44.6429 93.0313 44.4286C93.0699 44.2101 93.0892 43.9508 93.0892 43.6508C93.0892 43.3508 93.0699 43.0936 93.0313 42.8794C92.9927 42.6651 92.937 42.4915 92.8642 42.3586C92.7956 42.2215 92.712 42.1208 92.6135 42.0565C92.5192 41.9922 92.412 41.9601 92.292 41.9601C92.172 41.9601 92.0627 41.9922 91.9642 42.0565C91.8656 42.1208 91.7799 42.2215 91.707 42.3586C91.6385 42.4915 91.5849 42.6651 91.5463 42.8794C91.5077 43.0936 91.4885 43.3508 91.4885 43.6508C91.4885 44.2508 91.5613 44.6879 91.707 44.9622C91.857 45.2322 92.052 45.3672 92.292 45.3672C92.412 45.3672 92.5192 45.3351 92.6135 45.2708ZM95.231 45.2386C94.9996 44.8701 94.8839 44.3408 94.8839 43.6508C94.8839 42.9608 94.9996 42.4358 95.231 42.0758C95.4625 41.7158 95.786 41.5358 96.2018 41.5358C96.6132 41.5358 96.9346 41.7158 97.166 42.0758C97.3975 42.4358 97.5132 42.9608 97.5132 43.6508C97.5132 44.3408 97.3975 44.8701 97.166 45.2386C96.9346 45.6072 96.6132 45.7915 96.2018 45.7915C95.786 45.7915 95.4625 45.6072 95.231 45.2386ZM96.5232 45.2708C96.6218 45.2022 96.7053 45.0994 96.7739 44.9622C96.8468 44.8208 96.9025 44.6429 96.941 44.4286C96.9796 44.2101 96.9989 43.9508 96.9989 43.6508C96.9989 43.3508 96.9796 43.0936 96.941 42.8794C96.9025 42.6651 96.8468 42.4915 96.7739 42.3586C96.7053 42.2215 96.6218 42.1208 96.5232 42.0565C96.4289 41.9922 96.3218 41.9601 96.2018 41.9601C96.0818 41.9601 95.9725 41.9922 95.8739 42.0565C95.7753 42.1208 95.6896 42.2215 95.6168 42.3586C95.5482 42.4915 95.4946 42.6651 95.456 42.8794C95.4175 43.0936 95.3982 43.3508 95.3982 43.6508C95.3982 44.2508 95.4711 44.6879 95.6168 44.9622C95.7668 45.2322 95.9618 45.3672 96.2018 45.3672C96.3218 45.3672 96.4289 45.3351 96.5232 45.2708ZM99.0186 45.2772H99.9572V42.2558H99.2115V41.9151C99.4001 41.8808 99.5629 41.8401 99.7001 41.7929C99.8415 41.7415 99.9679 41.6815 100.079 41.6129H100.484V45.2772H101.333V45.7144H99.0186V45.2772ZM102.928 45.2772H103.867V42.2558H103.121V41.9151C103.31 41.8808 103.473 41.8401 103.61 41.7929C103.751 41.7415 103.878 41.6815 103.989 41.6129H104.394V45.2772H105.243V45.7144H102.928V45.2772ZM71.7727 53.0958C71.5412 52.7272 71.4255 52.1979 71.4255 51.5079C71.4255 50.8179 71.5412 50.2929 71.7727 49.9329C72.0041 49.5729 72.3277 49.3929 72.7434 49.3929C73.1548 49.3929 73.4762 49.5729 73.7077 49.9329C73.9391 50.2929 74.0548 50.8179 74.0548 51.5079C74.0548 52.1979 73.9391 52.7272 73.7077 53.0958C73.4762 53.4643 73.1548 53.6486 72.7434 53.6486C72.3277 53.6486 72.0041 53.4643 71.7727 53.0958ZM73.0648 53.1279C73.1634 53.0593 73.2469 52.9565 73.3155 52.8193C73.3884 52.6779 73.4441 52.5001 73.4827 52.2858C73.5212 52.0672 73.5405 51.8079 73.5405 51.5079C73.5405 51.2079 73.5212 50.9508 73.4827 50.7365C73.4441 50.5222 73.3884 50.3486 73.3155 50.2158C73.2469 50.0786 73.1634 49.9779 73.0648 49.9136C72.9705 49.8493 72.8634 49.8172 72.7434 49.8172C72.6234 49.8172 72.5141 49.8493 72.4155 49.9136C72.3169 49.9779 72.2312 50.0786 72.1584 50.2158C72.0898 50.3486 72.0362 50.5222 71.9977 50.7365C71.9591 50.9508 71.9398 51.2079 71.9398 51.5079C71.9398 52.1079 72.0127 52.5451 72.1584 52.8193C72.3084 53.0893 72.5034 53.2243 72.7434 53.2243C72.8634 53.2243 72.9705 53.1922 73.0648 53.1279ZM75.6824 53.0958C75.451 52.7272 75.3353 52.1979 75.3353 51.5079C75.3353 50.8179 75.451 50.2929 75.6824 49.9329C75.9138 49.5729 76.2374 49.3929 76.6531 49.3929C77.0645 49.3929 77.386 49.5729 77.6174 49.9329C77.8488 50.2929 77.9645 50.8179 77.9645 51.5079C77.9645 52.1979 77.8488 52.7272 77.6174 53.0958C77.386 53.4643 77.0645 53.6486 76.6531 53.6486C76.2374 53.6486 75.9138 53.4643 75.6824 53.0958ZM76.9745 53.1279C77.0731 53.0593 77.1567 52.9565 77.2252 52.8193C77.2981 52.6779 77.3538 52.5001 77.3924 52.2858C77.431 52.0672 77.4502 51.8079 77.4502 51.5079C77.4502 51.2079 77.431 50.9508 77.3924 50.7365C77.3538 50.5222 77.2981 50.3486 77.2252 50.2158C77.1567 50.0786 77.0731 49.9779 76.9745 49.9136C76.8802 49.8493 76.7731 49.8172 76.6531 49.8172C76.5331 49.8172 76.4238 49.8493 76.3253 49.9136C76.2267 49.9779 76.141 50.0786 76.0681 50.2158C75.9995 50.3486 75.946 50.5222 75.9074 50.7365C75.8688 50.9508 75.8495 51.2079 75.8495 51.5079C75.8495 52.1079 75.9224 52.5451 76.0681 52.8193C76.2181 53.0893 76.4131 53.2243 76.6531 53.2243C76.7731 53.2243 76.8802 53.1922 76.9745 53.1279ZM79.47 53.1343H80.4086V50.1129H79.6628V49.7722C79.8514 49.7379 80.0143 49.6972 80.1514 49.6501C80.2928 49.5986 80.4193 49.5386 80.5307 49.4701H80.9357V53.1343H81.7843V53.5715H79.47V53.1343ZM83.5019 53.0958C83.2704 52.7272 83.1547 52.1979 83.1547 51.5079C83.1547 50.8179 83.2704 50.2929 83.5019 49.9329C83.7333 49.5729 84.0569 49.3929 84.4726 49.3929C84.884 49.3929 85.2054 49.5729 85.4369 49.9329C85.6683 50.2929 85.784 50.8179 85.784 51.5079C85.784 52.1979 85.6683 52.7272 85.4369 53.0958C85.2054 53.4643 84.884 53.6486 84.4726 53.6486C84.0569 53.6486 83.7333 53.4643 83.5019 53.0958ZM84.794 53.1279C84.8926 53.0593 84.9761 52.9565 85.0447 52.8193C85.1176 52.6779 85.1733 52.5001 85.2119 52.2858C85.2504 52.0672 85.2697 51.8079 85.2697 51.5079C85.2697 51.2079 85.2504 50.9508 85.2119 50.7365C85.1733 50.5222 85.1176 50.3486 85.0447 50.2158C84.9761 50.0786 84.8926 49.9779 84.794 49.9136C84.6997 49.8493 84.5926 49.8172 84.4726 49.8172C84.3526 49.8172 84.2433 49.8493 84.1447 49.9136C84.0461 49.9779 83.9604 50.0786 83.8876 50.2158C83.819 50.3486 83.7654 50.5222 83.7269 50.7365C83.6883 50.9508 83.669 51.2079 83.669 51.5079C83.669 52.1079 83.7419 52.5451 83.8876 52.8193C84.0376 53.0893 84.2326 53.2243 84.4726 53.2243C84.5926 53.2243 84.6997 53.1922 84.794 53.1279ZM87.2894 53.1343H88.228V50.1129H87.4823V49.7722C87.6709 49.7379 87.8337 49.6972 87.9709 49.6501C88.1123 49.5986 88.2387 49.5386 88.3502 49.4701H88.7552V53.1343H89.6037V53.5715H87.2894V53.1343ZM91.3213 53.0958C91.0899 52.7272 90.9742 52.1979 90.9742 51.5079C90.9742 50.8179 91.0899 50.2929 91.3213 49.9329C91.5527 49.5729 91.8763 49.3929 92.292 49.3929C92.7035 49.3929 93.0249 49.5729 93.2563 49.9329C93.4877 50.2929 93.6035 50.8179 93.6035 51.5079C93.6035 52.1979 93.4877 52.7272 93.2563 53.0958C93.0249 53.4643 92.7035 53.6486 92.292 53.6486C91.8763 53.6486 91.5527 53.4643 91.3213 53.0958ZM92.6135 53.1279C92.712 53.0593 92.7956 52.9565 92.8642 52.8193C92.937 52.6779 92.9927 52.5001 93.0313 52.2858C93.0699 52.0672 93.0892 51.8079 93.0892 51.5079C93.0892 51.2079 93.0699 50.9508 93.0313 50.7365C92.9927 50.5222 92.937 50.3486 92.8642 50.2158C92.7956 50.0786 92.712 49.9779 92.6135 49.9136C92.5192 49.8493 92.412 49.8172 92.292 49.8172C92.172 49.8172 92.0627 49.8493 91.9642 49.9136C91.8656 49.9779 91.7799 50.0786 91.707 50.2158C91.6385 50.3486 91.5849 50.5222 91.5463 50.7365C91.5077 50.9508 91.4885 51.2079 91.4885 51.5079C91.4885 52.1079 91.5613 52.5451 91.707 52.8193C91.857 53.0893 92.052 53.2243 92.292 53.2243C92.412 53.2243 92.5192 53.1922 92.6135 53.1279ZM95.1089 53.1343H96.0475V50.1129H95.3018V49.7722C95.4903 49.7379 95.6532 49.6972 95.7903 49.6501C95.9318 49.5986 96.0582 49.5386 96.1696 49.4701H96.5746V53.1343H97.4232V53.5715H95.1089V53.1343ZM99.0186 53.1343H99.9572V50.1129H99.2115V49.7722C99.4001 49.7379 99.5629 49.6972 99.7001 49.6501C99.8415 49.5986 99.9679 49.5386 100.079 49.4701H100.484V53.1343H101.333V53.5715H99.0186V53.1343ZM102.928 53.1343H103.867V50.1129H103.121V49.7722C103.31 49.7379 103.473 49.6972 103.61 49.6501C103.751 49.5986 103.878 49.5386 103.989 49.4701H104.394V53.1343H105.243V53.5715H102.928V53.1343ZM71.7727 60.9529C71.5412 60.5843 71.4255 60.055 71.4255 59.365C71.4255 58.675 71.5412 58.15 71.7727 57.79C72.0041 57.43 72.3277 57.25 72.7434 57.25C73.1548 57.25 73.4762 57.43 73.7077 57.79C73.9391 58.15 74.0548 58.675 74.0548 59.365C74.0548 60.055 73.9391 60.5843 73.7077 60.9529C73.4762 61.3215 73.1548 61.5058 72.7434 61.5058C72.3277 61.5058 72.0041 61.3215 71.7727 60.9529ZM73.0648 60.985C73.1634 60.9165 73.2469 60.8136 73.3155 60.6765C73.3884 60.535 73.4441 60.3572 73.4827 60.1429C73.5212 59.9243 73.5405 59.665 73.5405 59.365C73.5405 59.065 73.5212 58.8079 73.4827 58.5936C73.4441 58.3793 73.3884 58.2058 73.3155 58.0729C73.2469 57.9358 73.1634 57.8351 73.0648 57.7708C72.9705 57.7065 72.8634 57.6743 72.7434 57.6743C72.6234 57.6743 72.5141 57.7065 72.4155 57.7708C72.3169 57.8351 72.2312 57.9358 72.1584 58.0729C72.0898 58.2058 72.0362 58.3793 71.9977 58.5936C71.9591 58.8079 71.9398 59.065 71.9398 59.365C71.9398 59.965 72.0127 60.4022 72.1584 60.6765C72.3084 60.9465 72.5034 61.0815 72.7434 61.0815C72.8634 61.0815 72.9705 61.0493 73.0648 60.985ZM75.6824 60.9529C75.451 60.5843 75.3353 60.055 75.3353 59.365C75.3353 58.675 75.451 58.15 75.6824 57.79C75.9138 57.43 76.2374 57.25 76.6531 57.25C77.0645 57.25 77.386 57.43 77.6174 57.79C77.8488 58.15 77.9645 58.675 77.9645 59.365C77.9645 60.055 77.8488 60.5843 77.6174 60.9529C77.386 61.3215 77.0645 61.5058 76.6531 61.5058C76.2374 61.5058 75.9138 61.3215 75.6824 60.9529ZM76.9745 60.985C77.0731 60.9165 77.1567 60.8136 77.2252 60.6765C77.2981 60.535 77.3538 60.3572 77.3924 60.1429C77.431 59.9243 77.4502 59.665 77.4502 59.365C77.4502 59.065 77.431 58.8079 77.3924 58.5936C77.3538 58.3793 77.2981 58.2058 77.2252 58.0729C77.1567 57.9358 77.0731 57.8351 76.9745 57.7708C76.8802 57.7065 76.7731 57.6743 76.6531 57.6743C76.5331 57.6743 76.4238 57.7065 76.3253 57.7708C76.2267 57.8351 76.141 57.9358 76.0681 58.0729C75.9995 58.2058 75.946 58.3793 75.9074 58.5936C75.8688 58.8079 75.8495 59.065 75.8495 59.365C75.8495 59.965 75.9224 60.4022 76.0681 60.6765C76.2181 60.9465 76.4131 61.0815 76.6531 61.0815C76.7731 61.0815 76.8802 61.0493 76.9745 60.985ZM79.47 60.9915H80.4086V57.9701H79.6628V57.6293C79.8514 57.595 80.0143 57.5543 80.1514 57.5072C80.2928 57.4558 80.4193 57.3958 80.5307 57.3272H80.9357V60.9915H81.7843V61.4286H79.47V60.9915ZM83.3797 60.9915H84.3183V57.9701H83.5726V57.6293C83.7611 57.595 83.924 57.5543 84.0611 57.5072C84.2026 57.4558 84.329 57.3958 84.4404 57.3272H84.8454V60.9915H85.694V61.4286H83.3797V60.9915ZM87.4116 60.9529C87.1802 60.5843 87.0644 60.055 87.0644 59.365C87.0644 58.675 87.1802 58.15 87.4116 57.79C87.643 57.43 87.9666 57.25 88.3823 57.25C88.7937 57.25 89.1152 57.43 89.3466 57.79C89.578 58.15 89.6937 58.675 89.6937 59.365C89.6937 60.055 89.578 60.5843 89.3466 60.9529C89.1152 61.3215 88.7937 61.5058 88.3823 61.5058C87.9666 61.5058 87.643 61.3215 87.4116 60.9529ZM88.7037 60.985C88.8023 60.9165 88.8859 60.8136 88.9544 60.6765C89.0273 60.535 89.083 60.3572 89.1216 60.1429C89.1602 59.9243 89.1794 59.665 89.1794 59.365C89.1794 59.065 89.1602 58.8079 89.1216 58.5936C89.083 58.3793 89.0273 58.2058 88.9544 58.0729C88.8859 57.9358 88.8023 57.8351 88.7037 57.7708C88.6094 57.7065 88.5023 57.6743 88.3823 57.6743C88.2623 57.6743 88.153 57.7065 88.0544 57.7708C87.9559 57.8351 87.8702 57.9358 87.7973 58.0729C87.7287 58.2058 87.6752 58.3793 87.6366 58.5936C87.598 58.8079 87.5787 59.065 87.5787 59.365C87.5787 59.965 87.6516 60.4022 87.7973 60.6765C87.9473 60.9465 88.1423 61.0815 88.3823 61.0815C88.5023 61.0815 88.6094 61.0493 88.7037 60.985ZM91.1992 60.9915H92.1377V57.9701H91.392V57.6293C91.5806 57.595 91.7435 57.5543 91.8806 57.5072C92.022 57.4558 92.1485 57.3958 92.2599 57.3272H92.6649V60.9915H93.5135V61.4286H91.1992V60.9915ZM95.1089 60.9915H96.0475V57.9701H95.3018V57.6293C95.4903 57.595 95.6532 57.5543 95.7903 57.5072C95.9318 57.4558 96.0582 57.3958 96.1696 57.3272H96.5746V60.9915H97.4232V61.4286H95.1089V60.9915ZM99.0186 60.9915H99.9572V57.9701H99.2115V57.6293C99.4001 57.595 99.5629 57.5543 99.7001 57.5072C99.8415 57.4558 99.9679 57.3958 100.079 57.3272H100.484V60.9915H101.333V61.4286H99.0186V60.9915ZM103.051 60.9529C102.819 60.5843 102.703 60.055 102.703 59.365C102.703 58.675 102.819 58.15 103.051 57.79C103.282 57.43 103.606 57.25 104.021 57.25C104.433 57.25 104.754 57.43 104.986 57.79C105.217 58.15 105.333 58.675 105.333 59.365C105.333 60.055 105.217 60.5843 104.986 60.9529C104.754 61.3215 104.433 61.5058 104.021 61.5058C103.606 61.5058 103.282 61.3215 103.051 60.9529ZM104.343 60.985C104.441 60.9165 104.525 60.8136 104.593 60.6765C104.666 60.535 104.722 60.3572 104.761 60.1429C104.799 59.9243 104.818 59.665 104.818 59.365C104.818 59.065 104.799 58.8079 104.761 58.5936C104.722 58.3793 104.666 58.2058 104.593 58.0729C104.525 57.9358 104.441 57.8351 104.343 57.7708C104.248 57.7065 104.141 57.6743 104.021 57.6743C103.901 57.6743 103.792 57.7065 103.693 57.7708C103.595 57.8351 103.509 57.9358 103.436 58.0729C103.368 58.2058 103.314 58.3793 103.276 58.5936C103.237 58.8079 103.218 59.065 103.218 59.365C103.218 59.965 103.291 60.4022 103.436 60.6765C103.586 60.9465 103.781 61.0815 104.021 61.0815C104.141 61.0815 104.248 61.0493 104.343 60.985ZM71.6505 68.8486H72.5891V65.8272H71.8434V65.4865C72.0319 65.4522 72.1948 65.4115 72.3319 65.3643C72.4734 65.3129 72.5998 65.2529 72.7112 65.1843H73.1162V68.8486H73.9648V69.2857H71.6505V68.8486ZM75.6824 68.81C75.451 68.4415 75.3353 67.9122 75.3353 67.2222C75.3353 66.5322 75.451 66.0072 75.6824 65.6472C75.9138 65.2872 76.2374 65.1072 76.6531 65.1072C77.0645 65.1072 77.386 65.2872 77.6174 65.6472C77.8488 66.0072 77.9645 66.5322 77.9645 67.2222C77.9645 67.9122 77.8488 68.4415 77.6174 68.81C77.386 69.1786 77.0645 69.3629 76.6531 69.3629C76.2374 69.3629 75.9138 69.1786 75.6824 68.81ZM76.9745 68.8422C77.0731 68.7736 77.1567 68.6707 77.2252 68.5336C77.2981 68.3922 77.3538 68.2143 77.3924 68C77.431 67.7815 77.4502 67.5222 77.4502 67.2222C77.4502 66.9222 77.431 66.665 77.3924 66.4507C77.3538 66.2365 77.2981 66.0629 77.2252 65.93C77.1567 65.7929 77.0731 65.6922 76.9745 65.6279C76.8802 65.5636 76.7731 65.5315 76.6531 65.5315C76.5331 65.5315 76.4238 65.5636 76.3253 65.6279C76.2267 65.6922 76.141 65.7929 76.0681 65.93C75.9995 66.0629 75.946 66.2365 75.9074 66.4507C75.8688 66.665 75.8495 66.9222 75.8495 67.2222C75.8495 67.8222 75.9224 68.2593 76.0681 68.5336C76.2181 68.8036 76.4131 68.9386 76.6531 68.9386C76.7731 68.9386 76.8802 68.9065 76.9745 68.8422ZM79.5921 68.81C79.3607 68.4415 79.245 67.9122 79.245 67.2222C79.245 66.5322 79.3607 66.0072 79.5921 65.6472C79.8236 65.2872 80.1471 65.1072 80.5628 65.1072C80.9743 65.1072 81.2957 65.2872 81.5271 65.6472C81.7586 66.0072 81.8743 66.5322 81.8743 67.2222C81.8743 67.9122 81.7586 68.4415 81.5271 68.81C81.2957 69.1786 80.9743 69.3629 80.5628 69.3629C80.1471 69.3629 79.8236 69.1786 79.5921 68.81ZM80.8843 68.8422C80.9828 68.7736 81.0664 68.6707 81.135 68.5336C81.2078 68.3922 81.2636 68.2143 81.3021 68C81.3407 67.7815 81.36 67.5222 81.36 67.2222C81.36 66.9222 81.3407 66.665 81.3021 66.4507C81.2636 66.2365 81.2078 66.0629 81.135 65.93C81.0664 65.7929 80.9828 65.6922 80.8843 65.6279C80.79 65.5636 80.6828 65.5315 80.5628 65.5315C80.4428 65.5315 80.3336 65.5636 80.235 65.6279C80.1364 65.6922 80.0507 65.7929 79.9778 65.93C79.9093 66.0629 79.8557 66.2365 79.8171 66.4507C79.7786 66.665 79.7593 66.9222 79.7593 67.2222C79.7593 67.8222 79.8321 68.2593 79.9778 68.5336C80.1278 68.8036 80.3228 68.9386 80.5628 68.9386C80.6828 68.9386 80.79 68.9065 80.8843 68.8422ZM83.5019 68.81C83.2704 68.4415 83.1547 67.9122 83.1547 67.2222C83.1547 66.5322 83.2704 66.0072 83.5019 65.6472C83.7333 65.2872 84.0569 65.1072 84.4726 65.1072C84.884 65.1072 85.2054 65.2872 85.4369 65.6472C85.6683 66.0072 85.784 66.5322 85.784 67.2222C85.784 67.9122 85.6683 68.4415 85.4369 68.81C85.2054 69.1786 84.884 69.3629 84.4726 69.3629C84.0569 69.3629 83.7333 69.1786 83.5019 68.81ZM84.794 68.8422C84.8926 68.7736 84.9761 68.6707 85.0447 68.5336C85.1176 68.3922 85.1733 68.2143 85.2119 68C85.2504 67.7815 85.2697 67.5222 85.2697 67.2222C85.2697 66.9222 85.2504 66.665 85.2119 66.4507C85.1733 66.2365 85.1176 66.0629 85.0447 65.93C84.9761 65.7929 84.8926 65.6922 84.794 65.6279C84.6997 65.5636 84.5926 65.5315 84.4726 65.5315C84.3526 65.5315 84.2433 65.5636 84.1447 65.6279C84.0461 65.6922 83.9604 65.7929 83.8876 65.93C83.819 66.0629 83.7654 66.2365 83.7269 66.4507C83.6883 66.665 83.669 66.9222 83.669 67.2222C83.669 67.8222 83.7419 68.2593 83.8876 68.5336C84.0376 68.8036 84.2326 68.9386 84.4726 68.9386C84.5926 68.9386 84.6997 68.9065 84.794 68.8422ZM87.2894 68.8486H88.228V65.8272H87.4823V65.4865C87.6709 65.4522 87.8337 65.4115 87.9709 65.3643C88.1123 65.3129 88.2387 65.2529 88.3502 65.1843H88.7552V68.8486H89.6037V69.2857H87.2894V68.8486ZM91.1992 68.8486H92.1377V65.8272H91.392V65.4865C91.5806 65.4522 91.7435 65.4115 91.8806 65.3643C92.022 65.3129 92.1485 65.2529 92.2599 65.1843H92.6649V68.8486H93.5135V69.2857H91.1992V68.8486ZM95.231 68.81C94.9996 68.4415 94.8839 67.9122 94.8839 67.2222C94.8839 66.5322 94.9996 66.0072 95.231 65.6472C95.4625 65.2872 95.786 65.1072 96.2018 65.1072C96.6132 65.1072 96.9346 65.2872 97.166 65.6472C97.3975 66.0072 97.5132 66.5322 97.5132 67.2222C97.5132 67.9122 97.3975 68.4415 97.166 68.81C96.9346 69.1786 96.6132 69.3629 96.2018 69.3629C95.786 69.3629 95.4625 69.1786 95.231 68.81ZM96.5232 68.8422C96.6218 68.7736 96.7053 68.6707 96.7739 68.5336C96.8468 68.3922 96.9025 68.2143 96.941 68C96.9796 67.7815 96.9989 67.5222 96.9989 67.2222C96.9989 66.9222 96.9796 66.665 96.941 66.4507C96.9025 66.2365 96.8468 66.0629 96.7739 65.93C96.7053 65.7929 96.6218 65.6922 96.5232 65.6279C96.4289 65.5636 96.3218 65.5315 96.2018 65.5315C96.0818 65.5315 95.9725 65.5636 95.8739 65.6279C95.7753 65.6922 95.6896 65.7929 95.6168 65.93C95.5482 66.0629 95.4946 66.2365 95.456 66.4507C95.4175 66.665 95.3982 66.9222 95.3982 67.2222C95.3982 67.8222 95.4711 68.2593 95.6168 68.5336C95.7668 68.8036 95.9618 68.9386 96.2018 68.9386C96.3218 68.9386 96.4289 68.9065 96.5232 68.8422ZM99.0186 68.8486H99.9572V65.8272H99.2115V65.4865C99.4001 65.4522 99.5629 65.4115 99.7001 65.3643C99.8415 65.3129 99.9679 65.2529 100.079 65.1843H100.484V68.8486H101.333V69.2857H99.0186V68.8486ZM102.928 68.8486H103.867V65.8272H103.121V65.4865C103.31 65.4522 103.473 65.4115 103.61 65.3643C103.751 65.3129 103.878 65.2529 103.989 65.1843H104.394V68.8486H105.243V69.2857H102.928V68.8486Z" fill="#D2D2D2"/>
<rect x="74.7142" y="40" width="27.1428" height="14.2857" fill="white"/>
<path d="M81.4948 42.1428L76.857 46.7832L81.4999 51.4285" stroke="#FA5A28" stroke-width="2" stroke-linecap="round" stroke-linejoin="round"/>
<path d="M95.4284 51.4285L100.071 46.7882L95.4284 42.1428" stroke="#FA5A28" stroke-width="2" stroke-linecap="round" stroke-linejoin="round"/>
<path d="M86.1427 42.1428L90.7856 51.4285" stroke="#FA5A28" stroke-width="2" stroke-linecap="round" stroke-linejoin="round"/>
<defs>
<filter id="filter0_d" x="25.4285" y="0" width="42.204" height="47.2681" filterUnits="userSpaceOnUse" color-interpolation-filters="sRGB">
<feFlood flood-opacity="0" result="BackgroundImageFix"/>
<feColorMatrix in="SourceAlpha" type="matrix" values="0 0 0 0 0 0 0 0 0 0 0 0 0 0 0 0 0 0 127 0"/>
<feOffset/>
<feGaussianBlur stdDeviation="5"/>
<feColorMatrix type="matrix" values="0 0 0 0 0.392157 0 0 0 0 0.392157 0 0 0 0 0.392157 0 0 0 0.298039 0"/>
<feBlend mode="normal" in2="BackgroundImageFix" result="effect1_dropShadow"/>
<feBlend mode="normal" in="SourceGraphic" in2="effect1_dropShadow" result="shape"/>
</filter>
<filter id="filter1_d" x="108.939" y="0" width="42.204" height="47.2681" filterUnits="userSpaceOnUse" color-interpolation-filters="sRGB">
<feFlood flood-opacity="0" result="BackgroundImageFix"/>
<feColorMatrix in="SourceAlpha" type="matrix" values="0 0 0 0 0 0 0 0 0 0 0 0 0 0 0 0 0 0 127 0"/>
<feOffset/>
<feGaussianBlur stdDeviation="5"/>
<feColorMatrix type="matrix" values="0 0 0 0 0.392157 0 0 0 0 0.392157 0 0 0 0 0.392157 0 0 0 0.298039 0"/>
<feBlend mode="normal" in2="BackgroundImageFix" result="effect1_dropShadow"/>
<feBlend mode="normal" in="SourceGraphic" in2="effect1_dropShadow" result="shape"/>
</filter>
<filter id="filter2_d" x="125.979" y="22.0175" width="48.0204" height="54.411" filterUnits="userSpaceOnUse" color-interpolation-filters="sRGB">
<feFlood flood-opacity="0" result="BackgroundImageFix"/>
<feColorMatrix in="SourceAlpha" type="matrix" values="0 0 0 0 0 0 0 0 0 0 0 0 0 0 0 0 0 0 127 0"/>
<feOffset/>
<feGaussianBlur stdDeviation="5"/>
<feColorMatrix type="matrix" values="0 0 0 0 0.392157 0 0 0 0 0.392157 0 0 0 0 0.392157 0 0 0 0.298039 0"/>
<feBlend mode="normal" in2="BackgroundImageFix" result="effect1_dropShadow"/>
<feBlend mode="normal" in="SourceGraphic" in2="effect1_dropShadow" result="shape"/>
</filter>
<filter id="filter3_d" x="0.428574" y="22.0175" width="48.0204" height="54.411" filterUnits="userSpaceOnUse" color-interpolation-filters="sRGB">
<feFlood flood-opacity="0" result="BackgroundImageFix"/>
<feColorMatrix in="SourceAlpha" type="matrix" values="0 0 0 0 0 0 0 0 0 0 0 0 0 0 0 0 0 0 127 0"/>
<feOffset/>
<feGaussianBlur stdDeviation="5"/>
<feColorMatrix type="matrix" values="0 0 0 0 0.392157 0 0 0 0 0.392157 0 0 0 0 0.392157 0 0 0 0.298039 0"/>
<feBlend mode="normal" in2="BackgroundImageFix" result="effect1_dropShadow"/>
<feBlend mode="normal" in="SourceGraphic" in2="effect1_dropShadow" result="shape"/>
</filter>
<filter id="filter4_d" x="58.2856" y="11.4286" width="60.7142" height="69.9999" filterUnits="userSpaceOnUse" color-interpolation-filters="sRGB">
<feFlood flood-opacity="0" result="BackgroundImageFix"/>
<feColorMatrix in="SourceAlpha" type="matrix" values="0 0 0 0 0 0 0 0 0 0 0 0 0 0 0 0 0 0 127 0"/>
<feOffset/>
<feGaussianBlur stdDeviation="5"/>
<feColorMatrix type="matrix" values="0 0 0 0 0.392157 0 0 0 0 0.392157 0 0 0 0 0.392157 0 0 0 0.298039 0"/>
<feBlend mode="normal" in2="BackgroundImageFix" result="effect1_dropShadow"/>
<feBlend mode="normal" in="SourceGraphic" in2="effect1_dropShadow" result="shape"/>
</filter>
<linearGradient id="paint0_linear" x1="20.4677" y1="59.1112" x2="19.907" y2="112.23" gradientUnits="userSpaceOnUse">
<stop stop-color="#8033EB"/>
<stop offset="0.53" stop-color="#D4648E"/>
<stop offset="1" stop-color="#EC7071"/>
</linearGradient>
</defs>
</svg>
