<svg width="145" height="110" viewBox="0 0 145 110" fill="none" xmlns="http://www.w3.org/2000/svg">
<rect y="41.1611" width="90.1551" height="22" rx="11" fill="#F2F2F2"/>
<path fill-rule="evenodd" clip-rule="evenodd" d="M137.007 36.9034C133.087 36.9034 129.909 33.7261 129.909 29.8066C129.909 25.8872 133.087 22.7098 137.007 22.7098C140.928 22.7098 144.106 25.8872 144.106 29.8066C144.106 33.7261 140.928 36.9034 137.007 36.9034Z" fill="#F2F2F2"/>
<path fill-rule="evenodd" clip-rule="evenodd" d="M40.3501 109.456C37.698 110.559 34.6424 109.955 32.6093 107.926C30.5761 105.898 29.9662 102.844 31.0642 100.191C32.1621 97.5372 34.7514 95.8066 37.6238 95.8066C41.5389 95.8066 44.7148 98.9754 44.7226 102.889C44.7282 105.761 43.0023 108.353 40.3501 109.456Z" fill="#F2F2F2"/>
<ellipse cx="76.3124" cy="51.4518" rx="42.238" ry="42.2258" fill="url(#paint0_linear)"/>
<path fill-rule="evenodd" clip-rule="evenodd" d="M75.7714 103.613C75.1343 103.599 74.486 103.571 73.8488 103.532C73.5964 103.517 73.4041 103.298 73.4194 103.044C73.4347 102.79 73.6518 102.596 73.9042 102.612C74.5303 102.651 75.1675 102.676 75.7936 102.692C76.0461 102.692 76.2507 102.899 76.2507 103.153C76.2507 103.407 76.0461 103.613 75.7936 103.613H75.7714ZM78.5156 103.139C78.5113 102.897 78.693 102.693 78.9325 102.67C79.5613 102.648 80.1957 102.612 80.8218 102.564C80.9852 102.552 81.1424 102.629 81.2343 102.765C81.3263 102.902 81.3389 103.077 81.2676 103.225C81.1962 103.374 81.0516 103.473 80.8883 103.485C80.2511 103.532 79.6057 103.568 78.9685 103.593H78.9491C78.7089 103.579 78.52 103.382 78.5156 103.139ZM70.6573 103.239C70.0229 103.161 69.3802 103.069 68.7513 102.96C68.5154 102.905 68.3622 102.676 68.4009 102.435C68.4397 102.194 68.6571 102.025 68.8982 102.048C69.516 102.151 70.1448 102.24 70.7682 102.327C71.0105 102.354 71.1893 102.567 71.1745 102.812C71.1597 103.057 70.9565 103.248 70.7128 103.245V103.239H70.6573ZM83.555 102.722C83.5378 102.475 83.7184 102.258 83.9634 102.232C84.5867 102.146 85.2128 102.048 85.8306 101.939C85.9927 101.908 86.1589 101.967 86.2655 102.094C86.3721 102.221 86.4025 102.396 86.3451 102.551C86.2878 102.707 86.1515 102.82 85.9885 102.846C85.3597 102.957 84.7225 103.058 84.0881 103.147L84.0271 103.15C83.781 103.159 83.5722 102.969 83.555 102.722ZM65.6042 102.358C64.9809 102.215 64.352 102.059 63.7342 101.895C63.4902 101.828 63.3457 101.576 63.4115 101.33C63.4773 101.084 63.7285 100.939 63.9725 101.005C64.5764 101.167 65.1942 101.32 65.8065 101.46C66.0337 101.511 66.1863 101.726 66.1608 101.959C66.1352 102.192 65.9397 102.369 65.7067 102.369V102.358C65.6727 102.362 65.6383 102.362 65.6042 102.358ZM88.5761 101.85C88.517 101.602 88.6681 101.353 88.9141 101.292C89.5208 101.147 90.1358 100.985 90.7425 100.812C90.9858 100.743 91.2388 100.885 91.3077 101.13C91.3765 101.375 91.2351 101.63 90.9919 101.699C90.3741 101.875 89.748 102.04 89.1302 102.19C89.0911 102.199 89.0511 102.203 89.011 102.201H89.0221C88.8102 102.203 88.6252 102.058 88.5761 101.85ZM60.6646 100.954C60.0552 100.748 59.4429 100.53 58.8445 100.302C58.6081 100.212 58.489 99.9456 58.5785 99.7076C58.6681 99.4695 58.9322 99.3497 59.1686 99.4398C59.756 99.6629 60.3571 99.8777 60.9555 100.079C61.1708 100.149 61.3028 100.367 61.2661 100.591C61.2294 100.816 61.0349 100.98 60.8087 100.977C60.7598 100.978 60.7111 100.97 60.6646 100.954ZM93.4465 100.37C93.4094 100.148 93.5371 99.9316 93.7484 99.8584C94.3357 99.6519 94.9313 99.4288 95.5186 99.1973C95.671 99.1351 95.8447 99.1601 95.9737 99.2627C96.1026 99.3652 96.167 99.5296 96.1422 99.6932C96.1174 99.8568 96.0073 99.9944 95.8539 100.054C95.2555 100.291 94.6487 100.517 94.0503 100.729C93.9981 100.748 93.9425 100.756 93.8869 100.754H93.898C93.6745 100.754 93.4836 100.592 93.4465 100.37ZM55.8775 99.0633C55.2957 98.7983 54.7084 98.5194 54.1349 98.2265C53.9054 98.1125 53.8111 97.8328 53.9244 97.6017C54.0376 97.3706 54.3154 97.2757 54.5449 97.3897C55.099 97.6686 55.6835 97.9476 56.2542 98.207C56.4528 98.295 56.5625 98.5115 56.5169 98.725C56.4712 98.9386 56.2828 99.0904 56.0658 99.0884V99.1052C56.0008 99.1047 55.9366 99.0904 55.8775 99.0633ZM98.1523 98.4659C98.1055 98.2541 98.2121 98.0381 98.4081 97.9477C98.9622 97.6855 99.5384 97.4037 100.101 97.1109C100.246 97.0356 100.421 97.0443 100.558 97.1335C100.696 97.2227 100.775 97.3791 100.767 97.5435C100.759 97.708 100.665 97.8557 100.519 97.9309C99.9484 98.2266 99.3667 98.5139 98.796 98.7817C98.7319 98.8118 98.6616 98.8262 98.591 98.8236L98.602 98.8263C98.3865 98.828 98.1991 98.6778 98.1523 98.4659ZM51.3092 96.7064C50.7551 96.3828 50.201 96.0453 49.6469 95.7022C49.4327 95.5666 49.3682 95.2819 49.5029 95.0662C49.6375 94.8505 49.9203 94.7856 50.1345 94.9211C50.6664 95.2587 51.2122 95.5906 51.7552 95.9058C51.9333 96.0115 52.0194 96.2238 51.9658 96.4248C51.9122 96.6258 51.7319 96.7661 51.5252 96.7677H51.5363C51.4565 96.7678 51.3782 96.7467 51.3092 96.7064ZM102.649 96.0947C102.595 95.8952 102.679 95.6838 102.855 95.5767C103.392 95.2559 103.932 94.9184 104.456 94.5753C104.667 94.4578 104.933 94.5249 105.064 94.729C105.195 94.9331 105.148 95.2047 104.955 95.3508C104.42 95.6995 103.869 96.0426 103.323 96.3689C103.248 96.4132 103.163 96.4355 103.076 96.4331L103.087 96.4359C102.882 96.4334 102.703 96.2942 102.649 96.0947ZM46.9874 93.8975C46.4666 93.521 45.9485 93.1304 45.4471 92.7371C45.2715 92.5762 45.2475 92.3066 45.392 92.1169C45.5364 91.9271 45.8011 91.8803 46.0011 92.0091C46.4943 92.3941 47.004 92.779 47.5165 93.15C47.7207 93.2999 47.7665 93.5877 47.619 93.7943C47.5336 93.9116 47.3978 93.981 47.2533 93.9812L47.2644 93.984C47.1653 93.9858 47.0681 93.9555 46.9874 93.8975ZM106.938 93.4176C106.789 93.2115 106.832 92.9231 107.035 92.7704C107.536 92.3995 108.041 92.0089 108.534 91.6128C108.661 91.5102 108.834 91.4839 108.986 91.5439C109.138 91.604 109.247 91.7411 109.271 91.9038C109.296 92.0664 109.232 92.2299 109.104 92.3325C108.603 92.737 108.091 93.1331 107.578 93.5124C107.5 93.572 107.405 93.6043 107.307 93.6045C107.162 93.603 107.026 93.5339 106.938 93.4176ZM42.9842 90.673C42.5049 90.2462 42.0284 89.8083 41.563 89.362C41.4141 89.2602 41.3384 89.0799 41.3696 88.9015C41.4008 88.723 41.5331 88.5796 41.7076 88.5351C41.8821 88.4906 42.0662 88.5533 42.178 88.6953C42.6351 89.1305 43.1033 89.5629 43.5632 89.9813C43.7033 90.1046 43.7552 90.3012 43.6943 90.4783C43.6334 90.6554 43.472 90.7776 43.2861 90.7874C43.1751 90.7872 43.0678 90.7466 42.9842 90.673ZM110.823 90.0635C110.755 89.8862 110.802 89.6851 110.941 89.5571C111.404 89.1331 111.869 88.6952 112.326 88.2545C112.507 88.0765 112.797 88.0797 112.973 88.2615C113.15 88.4432 113.147 88.7348 112.966 88.9128C112.509 89.3619 112.036 89.8082 111.565 90.2405C111.475 90.3196 111.359 90.3615 111.24 90.3577H111.249C111.06 90.3576 110.891 90.2407 110.823 90.0635ZM39.3023 87.0662C38.8674 86.5948 38.4352 86.1094 38.0197 85.6213C37.9053 85.4978 37.8673 85.3212 37.9206 85.1611C37.9739 85.001 38.11 84.8832 38.2752 84.8541C38.4403 84.825 38.6081 84.8892 38.7122 85.0216C39.1223 85.4985 39.5434 85.9755 39.9728 86.4386C40.0979 86.5726 40.1317 86.7688 40.0588 86.9375C39.9859 87.1061 39.8202 87.2149 39.6375 87.214C39.5101 87.2146 39.3883 87.1609 39.3023 87.0662ZM114.529 86.62C114.341 86.4497 114.327 86.1588 114.496 85.97C114.92 85.4986 115.327 85.0161 115.74 84.5363C115.844 84.4102 116.008 84.3501 116.169 84.3785C116.33 84.407 116.464 84.5197 116.52 84.6742C116.576 84.8287 116.545 85.0016 116.44 85.1276C116.033 85.6158 115.609 86.1067 115.174 86.5893C115.087 86.6859 114.963 86.7406 114.834 86.7399C114.721 86.7402 114.612 86.6974 114.529 86.62ZM35.9973 83.1024C35.6095 82.5891 35.2272 82.0647 34.8615 81.5403C34.7312 81.3318 34.7858 81.0572 34.9858 80.9153C35.1857 80.7734 35.461 80.8139 35.6122 81.0076C35.9724 81.5236 36.3464 82.0396 36.7204 82.5445C36.8728 82.748 36.8331 83.0373 36.6317 83.1917C36.553 83.2501 36.4581 83.2823 36.3602 83.2837C36.2175 83.2848 36.0828 83.2175 35.9973 83.1024ZM117.776 82.6785C117.678 82.606 117.613 82.4974 117.595 82.3765C117.576 82.2556 117.607 82.1324 117.679 82.0341C118.053 81.5236 118.421 81.002 118.787 80.4804C118.929 80.2701 119.214 80.2158 119.423 80.3591C119.632 80.5023 119.686 80.789 119.543 80.9992C119.183 81.532 118.806 82.0648 118.435 82.5808C118.35 82.7059 118.209 82.7802 118.058 82.7789L118.053 82.7677C117.953 82.7698 117.856 82.7383 117.776 82.6785ZM33.1078 78.8543C32.7754 78.2964 32.4485 77.7385 32.1354 77.1807C32.0115 76.9588 32.0896 76.6778 32.31 76.553C32.5303 76.4283 32.8094 76.5069 32.9333 76.7288C33.2408 77.2867 33.5622 77.825 33.8891 78.3661C33.9534 78.4699 33.9737 78.5952 33.9456 78.7142C33.9175 78.8332 33.8433 78.9359 33.7395 78.9993C33.6688 79.0468 33.5861 79.0729 33.5012 79.0747C33.3413 79.0737 33.193 78.9906 33.1078 78.8543ZM120.643 78.4525C120.538 78.3899 120.463 78.2879 120.433 78.169C120.404 78.0502 120.422 77.9243 120.485 77.8193C120.804 77.2782 121.12 76.7203 121.422 76.1624C121.543 75.9391 121.822 75.8573 122.044 75.9797C122.265 76.1022 122.347 76.3826 122.225 76.606C121.917 77.1638 121.596 77.7384 121.272 78.2796C121.191 78.4233 121.04 78.5126 120.876 78.5139V78.5167C120.794 78.5159 120.714 78.4938 120.643 78.4525ZM30.6533 74.3271C30.3763 73.7525 30.0992 73.1639 29.8499 72.5698C29.8008 72.4581 29.798 72.3313 29.8423 72.2177C29.8865 72.104 29.974 72.0128 30.0854 71.9645C30.3172 71.8629 30.5869 71.9688 30.6893 72.2016C30.9414 72.7817 31.2074 73.3619 31.4761 73.9254C31.5447 74.0678 31.5358 74.2358 31.4525 74.37C31.3693 74.5043 31.2233 74.586 31.0661 74.5865C30.8902 74.5877 30.7294 74.4867 30.6533 74.3271ZM123.067 73.9421C122.957 73.8906 122.871 73.7969 122.83 73.6817C122.788 73.5665 122.794 73.4393 122.846 73.3284C123.123 72.7538 123.372 72.1653 123.613 71.5851C123.654 71.4041 123.798 71.2654 123.98 71.2326C124.161 71.1997 124.345 71.2791 124.446 71.4343C124.547 71.5894 124.546 71.7904 124.444 71.9449C124.197 72.5362 123.934 73.1332 123.66 73.7189C123.587 73.8771 123.431 73.9799 123.258 73.9839C123.192 73.9838 123.127 73.9695 123.067 73.9421ZM28.6586 69.5934C28.4397 68.9909 28.2292 68.3744 28.0325 67.7608C27.9826 67.5275 28.117 67.2942 28.3429 67.222C28.5688 67.1498 28.8123 67.2623 28.9052 67.4818C29.0991 68.0871 29.3041 68.6924 29.5174 69.281C29.5691 69.4223 29.5488 69.58 29.4632 69.7035C29.3776 69.8269 29.2375 69.9004 29.088 69.9002V69.8947C28.896 69.8957 28.7241 69.7751 28.6586 69.5934ZM125.029 69.2224C124.792 69.137 124.668 68.8754 124.752 68.6366C124.959 68.0397 125.159 67.4316 125.344 66.8235C125.421 66.5801 125.679 66.4453 125.921 66.5223C126.162 66.5993 126.296 66.8591 126.22 67.1025C126.029 67.7217 125.826 68.3438 125.616 68.9491C125.544 69.1261 125.371 69.2403 125.181 69.2364V69.2503C125.129 69.2503 125.077 69.2409 125.029 69.2224ZM27.1432 64.645C26.9853 64.0201 26.8357 63.3842 26.7027 62.7565C26.6682 62.5153 26.8253 62.2883 27.0621 62.2375C27.2989 62.1867 27.5343 62.3295 27.6003 62.5641C27.7305 63.1777 27.8774 63.8026 28.0297 64.4162C28.091 64.6618 27.9437 64.9111 27.7001 64.9741C27.6629 64.9838 27.6248 64.9894 27.5865 64.9908C27.3776 64.9911 27.1951 64.8487 27.1432 64.645ZM126.511 64.3019C126.392 64.2735 126.29 64.1986 126.226 64.0939C126.163 63.9891 126.144 63.8632 126.173 63.744C126.32 63.1332 126.45 62.5083 126.58 61.8863C126.63 61.6367 126.871 61.475 127.119 61.5251C127.367 61.5752 127.527 61.8181 127.478 62.0676C127.353 62.7036 127.201 63.3396 127.065 63.9588C127.016 64.1674 126.832 64.3151 126.619 64.3159C126.582 64.3167 126.546 64.312 126.511 64.3019ZM26.1265 59.5823C26.0323 58.9491 25.9492 58.302 25.8772 57.6604C25.8589 57.497 25.9286 57.3361 26.06 57.2384C26.1914 57.1407 26.3646 57.1211 26.5143 57.1868C26.664 57.2526 26.7676 57.3938 26.7859 57.5572C26.8579 58.1876 26.941 58.8208 27.0324 59.4428C27.0515 59.5643 27.0215 59.6883 26.9492 59.7873C26.8768 59.8864 26.7681 59.9522 26.6473 59.97L26.5809 59.9728C26.3542 59.9741 26.1609 59.8079 26.1265 59.5823ZM127.497 59.2951C127.246 59.2604 127.071 59.0286 127.104 58.7762C127.189 58.1514 127.264 57.5154 127.325 56.885C127.35 56.6316 127.575 56.4468 127.827 56.4722C128.078 56.4976 128.262 56.7236 128.237 56.9771C128.173 57.6158 128.098 58.263 128.012 58.9017C127.978 59.1278 127.785 59.2949 127.558 59.2951H127.497ZM25.6168 54.4413C25.5863 53.797 25.5641 53.1443 25.5558 52.5055C25.5543 52.383 25.6015 52.2649 25.6868 52.1774C25.772 52.09 25.8884 52.0404 26.0102 52.0397C26.2615 52.0381 26.467 52.2413 26.47 52.4944C26.47 53.122 26.4977 53.7607 26.531 54.3967C26.537 54.5188 26.4945 54.6383 26.4129 54.7289C26.3313 54.8194 26.2173 54.8735 26.096 54.8793H26.0739C25.8304 54.8782 25.63 54.6861 25.6168 54.4413ZM127.979 54.1876C127.858 54.1832 127.743 54.1305 127.661 54.041C127.578 53.9516 127.534 53.8327 127.539 53.7106C127.561 53.083 127.572 52.4414 127.572 51.8082V51.6967C127.59 51.4556 127.79 51.2695 128.03 51.2695C128.27 51.2695 128.47 51.4556 128.489 51.6967V51.8054C128.489 52.4526 128.489 53.1053 128.453 53.7441C128.444 53.9917 128.242 54.1878 127.996 54.1876H127.979ZM26.0489 49.7606C25.7959 49.7485 25.6003 49.5328 25.6112 49.278C25.6417 48.6392 25.686 47.9865 25.7387 47.345C25.7759 47.1047 25.9913 46.9344 26.2319 46.9549C26.4726 46.9755 26.6564 47.1799 26.6529 47.4231C26.6002 48.0563 26.5559 48.695 26.5282 49.3226C26.515 49.5674 26.3146 49.7595 26.0711 49.7606H26.0489ZM127.469 48.5419C127.43 47.9115 127.378 47.2727 127.314 46.6451C127.298 46.4812 127.37 46.3209 127.502 46.2247C127.635 46.1285 127.809 46.111 127.958 46.1787C128.107 46.2464 128.209 46.3891 128.226 46.5531C128.289 47.1918 128.342 47.8418 128.383 48.4833C128.399 48.7372 128.209 48.9564 127.957 48.9743H127.926C127.684 48.9747 127.484 48.7851 127.469 48.5419ZM26.4977 44.6674C26.3777 44.6502 26.2695 44.5854 26.1972 44.4875C26.1249 44.3895 26.0944 44.2665 26.1126 44.1458C26.2041 43.5098 26.3121 42.8683 26.4312 42.2323C26.4775 41.983 26.7154 41.8183 26.9631 41.8641C27.2123 41.9107 27.3771 42.1514 27.3316 42.4025C27.2152 43.0245 27.11 43.6577 27.0186 44.2797C26.9819 44.5036 26.7895 44.6677 26.5642 44.6674H26.4977ZM126.901 43.4875C126.799 42.8655 126.685 42.2351 126.558 41.6158C126.507 41.3662 126.667 41.1227 126.915 41.0719C127.163 41.021 127.405 41.1821 127.455 41.4317C127.583 42.0621 127.702 42.7037 127.804 43.3396C127.824 43.4599 127.796 43.5833 127.725 43.6823C127.654 43.7812 127.547 43.8477 127.428 43.8668L127.353 43.8752C127.128 43.8753 126.937 43.7109 126.901 43.4875ZM27.448 39.6327C27.3306 39.6031 27.2297 39.5275 27.1678 39.4228C27.1059 39.3181 27.0881 39.1928 27.1183 39.0748C27.2734 38.4528 27.4424 37.8251 27.6225 37.2059C27.66 37.0376 27.7873 36.9042 27.9528 36.8597C28.1184 36.8153 28.2948 36.8673 28.4104 36.9945C28.5261 37.1217 28.562 37.3032 28.5035 37.4653C28.3262 38.0734 28.1572 38.6898 28.0048 39.3007C27.954 39.5056 27.7713 39.6493 27.5616 39.6494C27.5231 39.6491 27.4849 39.6435 27.448 39.6327ZM125.835 38.5308C125.671 37.9199 125.494 37.3035 125.308 36.701C125.232 36.4576 125.366 36.1978 125.608 36.1208C125.849 36.0438 126.107 36.1786 126.184 36.422C126.372 37.0357 126.552 37.6633 126.718 38.2854C126.754 38.4234 126.725 38.5704 126.639 38.6837C126.553 38.7971 126.42 38.8642 126.278 38.8656V38.8711C126.071 38.872 125.889 38.7323 125.835 38.5308ZM28.8969 34.7204C28.7826 34.6794 28.6891 34.5944 28.6372 34.484C28.5852 34.3736 28.579 34.2469 28.6198 34.1319C28.8387 33.521 29.0714 32.9129 29.3124 32.316C29.4081 32.0803 29.6753 31.9672 29.9094 32.0635C30.1435 32.1598 30.2558 32.4289 30.1602 32.6646C29.9247 33.2476 29.6947 33.8474 29.4814 34.4443C29.4161 34.6265 29.2444 34.7481 29.052 34.7483C28.9991 34.7483 28.9466 34.7389 28.8969 34.7204ZM124.283 33.6995C124.059 33.1109 123.823 32.5196 123.58 31.9394C123.486 31.7856 123.49 31.591 123.59 31.4414C123.69 31.2918 123.868 31.2148 124.045 31.2446C124.221 31.2743 124.364 31.4053 124.411 31.5795C124.66 32.1709 124.901 32.7734 125.126 33.3703C125.169 33.486 125.164 33.6144 125.112 33.7264C125.06 33.8383 124.965 33.9242 124.848 33.9645C124.805 33.9843 124.758 33.9966 124.71 34.0007V33.9951C124.52 33.9958 124.35 33.878 124.283 33.6995ZM30.6428 29.8109C30.5595 29.6775 30.5489 29.5108 30.6145 29.3677C30.8915 28.7903 31.1824 28.2073 31.4844 27.6327C31.603 27.4078 31.8802 27.3222 32.1036 27.4416C32.327 27.561 32.4119 27.8401 32.2933 28.065C31.9997 28.6229 31.7116 29.2003 31.4401 29.7666C31.3642 29.9268 31.2036 30.0288 31.0273 30.0288C30.8708 30.0263 30.7261 29.9443 30.6428 29.8109ZM122.261 29.069C121.984 28.5111 121.685 27.9365 121.386 27.3954C121.264 27.172 121.345 26.8916 121.567 26.7692C121.789 26.6467 122.067 26.7285 122.189 26.9519C122.494 27.5098 122.793 28.0872 123.081 28.6646C123.192 28.8927 123.101 29.1682 122.876 29.2838C122.812 29.3128 122.741 29.3261 122.671 29.3229C122.497 29.3241 122.338 29.2256 122.261 29.069ZM33.227 25.4568C33.1227 25.3938 33.0479 25.2913 33.0192 25.1723C32.9906 25.0533 33.0105 24.9277 33.0746 24.8236C33.4098 24.2657 33.7589 23.7079 34.1107 23.1862C34.2507 22.9744 34.5347 22.917 34.7451 23.0579C34.9555 23.1989 35.0125 23.4849 34.8725 23.6967C34.529 24.2211 34.1855 24.7622 33.8558 25.3062C33.7722 25.4441 33.6229 25.5277 33.4624 25.5265H33.4652C33.3808 25.5268 33.2981 25.5026 33.227 25.4568ZM119.79 24.6562C119.455 24.1234 119.105 23.5878 118.754 23.069C118.611 22.8595 118.663 22.5729 118.871 22.4288C119.079 22.2848 119.364 22.3379 119.507 22.5474C119.867 23.0774 120.222 23.6213 120.565 24.1624C120.656 24.3045 120.662 24.4851 120.581 24.6329C120.5 24.7807 120.345 24.872 120.178 24.8709C120.02 24.8713 119.874 24.7902 119.79 24.6562ZM36.0499 21.2003C35.8486 21.0459 35.8089 20.7566 35.9613 20.5531C36.3464 20.0371 36.7481 19.5266 37.1526 19.0301C37.2534 18.8949 37.4198 18.8263 37.5858 18.8514C37.7519 18.8765 37.8909 18.9912 37.9479 19.1503C38.005 19.3093 37.9708 19.487 37.859 19.6131C37.4656 20.1012 37.0694 20.6033 36.6899 21.111C36.603 21.2244 36.4692 21.2912 36.327 21.2923C36.2272 21.2923 36.1301 21.26 36.0499 21.2003ZM116.892 20.5111C116.51 20.0174 116.108 19.5181 115.703 19.0327C115.625 18.9393 115.587 18.8182 115.597 18.6962C115.608 18.5742 115.666 18.4615 115.759 18.3828C115.953 18.2213 116.24 18.2461 116.404 18.4386C116.817 18.9351 117.236 19.44 117.615 19.9449C117.769 20.1462 117.733 20.4351 117.535 20.592C117.455 20.6546 117.356 20.6889 117.255 20.6896C117.113 20.6893 116.979 20.6235 116.892 20.5111ZM39.2857 17.2449C39.1008 17.0722 39.0896 16.7814 39.2608 16.5949C39.6957 16.1207 40.1445 15.6521 40.5933 15.2002C40.7724 15.02 41.0626 15.02 41.2416 15.2002C41.4206 15.3805 41.4206 15.6727 41.2416 15.853C40.8011 16.2965 40.3606 16.7595 39.9312 17.2226C39.8443 17.3157 39.7229 17.3682 39.596 17.3676C39.4808 17.3683 39.3697 17.3244 39.2857 17.2449ZM113.598 16.6675C113.166 16.2128 112.717 15.7581 112.268 15.3146C112.151 15.2 112.103 15.0311 112.143 14.8715C112.183 14.712 112.305 14.5859 112.462 14.541C112.619 14.496 112.788 14.5389 112.905 14.6535C113.365 15.1026 113.82 15.5656 114.26 16.0315C114.434 16.2157 114.426 16.5064 114.244 16.6814C114.16 16.7654 114.048 16.8134 113.93 16.8153L113.928 16.8097C113.803 16.8098 113.684 16.7584 113.598 16.6675ZM42.89 13.6355C42.7221 13.4443 42.7394 13.1524 42.9288 12.9827C43.4081 12.556 43.9012 12.1459 44.3916 11.7275C44.5885 11.5878 44.8592 11.6248 45.012 11.8123C45.1648 11.9999 45.148 12.2744 44.9733 12.4416C44.4913 12.8405 44.0065 13.2561 43.5355 13.6745C43.4528 13.75 43.3452 13.7918 43.2335 13.7917C43.102 13.7921 42.9767 13.7352 42.89 13.6355ZM109.941 13.1807C109.465 12.7679 108.974 12.3439 108.484 11.9673C108.286 11.8087 108.253 11.5183 108.411 11.3188C108.568 11.1193 108.856 11.0862 109.055 11.2449C109.553 11.6438 110.052 12.0594 110.54 12.4806C110.683 12.6071 110.735 12.8101 110.668 12.9904C110.602 13.1707 110.431 13.2909 110.24 13.2923C110.13 13.2927 110.024 13.2531 109.941 13.1807ZM46.7588 10.2784C46.6955 10.0873 46.7622 9.877 46.9237 9.75815C47.4389 9.38437 47.9709 9.01338 48.5028 8.64239C48.6389 8.55071 48.8132 8.53909 48.9601 8.61192C49.107 8.68474 49.2042 8.83095 49.215 8.99546C49.2258 9.15997 49.1486 9.31779 49.0125 9.40947C48.4889 9.76094 47.9681 10.1236 47.4611 10.4918C47.3869 10.5522 47.296 10.5883 47.2007 10.595C47.0007 10.5974 46.822 10.4695 46.7588 10.2784ZM105.949 10.0676C105.437 9.70502 104.907 9.34798 104.378 9.00488C104.241 8.91569 104.161 8.75937 104.169 8.59481C104.177 8.43025 104.271 8.28245 104.417 8.20709C104.562 8.13172 104.737 8.14024 104.874 8.22943C105.412 8.58089 105.952 8.94351 106.473 9.31171C106.638 9.42858 106.708 9.64099 106.644 9.83406C106.58 10.0271 106.398 10.155 106.196 10.1485L106.209 10.1513C106.116 10.1506 106.025 10.1215 105.949 10.0676ZM51.0209 7.46812C50.9673 7.26711 51.0535 7.05479 51.2316 6.9491C51.7856 6.62832 52.3397 6.31033 52.9132 6.01186C53.0199 5.95388 53.1453 5.94129 53.2614 5.97692C53.3774 6.01255 53.4745 6.09343 53.531 6.20154C53.6495 6.42654 53.5654 6.70571 53.3426 6.82637C52.7885 7.12204 52.2344 7.43166 51.6804 7.74687C51.6139 7.78652 51.5387 7.80859 51.4615 7.81102C51.2548 7.8094 51.0746 7.66912 51.0209 7.46812ZM101.688 7.36752C101.134 7.05789 100.58 6.75385 100.026 6.46933C99.7965 6.35302 99.7041 6.0714 99.8196 5.84032C99.9351 5.60924 100.215 5.5162 100.444 5.63251C100.998 5.91145 101.583 6.23502 102.143 6.55022C102.324 6.6526 102.414 6.86575 102.362 7.0686C102.309 7.27145 102.126 7.41271 101.918 7.41215L101.91 7.42609C101.832 7.42714 101.755 7.40689 101.688 7.36752ZM55.5297 5.09652C55.4844 4.88539 55.591 4.67096 55.7861 4.58099C56.3651 4.31599 56.9579 4.05658 57.548 3.8139C57.6994 3.75162 57.8724 3.77541 58.0017 3.87631C58.1309 3.97721 58.1969 4.1399 58.1748 4.30309C58.1527 4.46628 58.0457 4.60517 57.8943 4.66746C57.3153 4.90735 56.7335 5.15839 56.1656 5.42059C56.1053 5.4469 56.0402 5.4602 55.9744 5.45965C55.7599 5.45868 55.5749 5.30765 55.5297 5.09652ZM97.167 5.10253C96.5908 4.85148 96.0035 4.60602 95.4161 4.3745C95.2637 4.31421 95.1548 4.17662 95.1305 4.01357C95.1061 3.85051 95.17 3.68676 95.2981 3.584C95.4261 3.48124 95.5989 3.45507 95.7514 3.51536C96.347 3.74967 96.9482 4.00072 97.5327 4.25734C97.734 4.34288 97.847 4.55984 97.8024 4.77517C97.7579 4.9905 97.5683 5.14402 97.3499 5.14158C97.287 5.1407 97.2249 5.12743 97.167 5.10253ZM60.2433 3.20824C60.2065 2.9835 60.3386 2.7655 60.5538 2.69551C61.1605 2.48909 61.7783 2.29105 62.3878 2.10974C62.5447 2.0629 62.7145 2.10389 62.8332 2.21726C62.9519 2.33063 63.0016 2.49917 62.9634 2.65938C62.9253 2.81959 62.8051 2.94714 62.6482 2.99397C62.0498 3.1725 61.4431 3.36775 60.8475 3.56859C60.8002 3.58479 60.7506 3.59327 60.7007 3.5937C60.4745 3.59686 60.28 3.43298 60.2433 3.20824ZM92.4435 3.32011C91.8507 3.12765 91.2412 2.94634 90.6317 2.76224C90.4743 2.71789 90.3524 2.59238 90.3119 2.43298C90.2713 2.27358 90.3183 2.10452 90.4351 1.98947C90.552 1.87442 90.7209 1.83086 90.8783 1.87521C91.4988 2.04815 92.1166 2.23504 92.7233 2.43309C92.9424 2.49926 93.0791 2.71825 93.0435 2.9457C93.0078 3.17315 92.8107 3.33906 92.582 3.33406V3.34243C92.535 3.3416 92.4884 3.33409 92.4435 3.32011ZM65.1365 1.79328C65.1101 1.55971 65.2628 1.3437 65.4906 1.29227C66.1084 1.15002 66.7429 1.01333 67.3745 0.893391C67.6231 0.845634 67.8631 1.00986 67.9106 1.2602C67.958 1.51053 67.7949 1.75219 67.5463 1.79994C66.9257 1.91989 66.3024 2.05099 65.6957 2.19046C65.662 2.19816 65.6276 2.2019 65.5931 2.20162C65.3597 2.2029 65.1628 2.02684 65.1365 1.79328ZM87.5732 2.02875C86.961 1.89765 86.3377 1.7777 85.7171 1.66892C85.5542 1.64275 85.4179 1.53021 85.3605 1.37445C85.3031 1.21869 85.3336 1.04388 85.4402 0.917078C85.5468 0.790271 85.7129 0.731141 85.875 0.762364C86.5039 0.87115 87.1411 0.993883 87.7644 1.12777C87.9972 1.17292 88.1571 1.38984 88.1326 1.62732C88.1081 1.8648 87.9073 2.04396 87.6702 2.03991V2.02875C87.638 2.03286 87.6054 2.03286 87.5732 2.02875ZM70.1522 0.878226C70.1371 0.63904 70.3058 0.427769 70.541 0.391201C71.1782 0.313098 71.8209 0.243363 72.4553 0.187575C72.6181 0.173125 72.7762 0.24723 72.8701 0.381975C72.9639 0.516721 72.9792 0.691635 72.9103 0.840831C72.8413 0.990026 72.6985 1.09084 72.5357 1.10529C71.9123 1.16107 71.2807 1.22802 70.6546 1.30612L70.5992 1.3117C70.3612 1.30545 70.1673 1.11741 70.1522 0.878226ZM82.6004 1.21682C81.9771 1.14708 81.3427 1.0913 80.7165 1.04388C80.4645 1.02455 80.2752 0.804047 80.2927 0.550153C80.3012 0.42818 80.3578 0.314702 80.4499 0.235043C80.542 0.155383 80.662 0.116174 80.783 0.126165C81.4202 0.170795 82.0657 0.229372 82.7001 0.299107C82.9345 0.334743 83.1036 0.543883 83.0907 0.782175C83.0778 1.02047 82.8871 1.20985 82.6503 1.21961V1.21682H82.6004ZM75.2372 0.482825C75.2336 0.240788 75.4157 0.0367782 75.6551 0.0147183C76.2951 -0.00201808 76.9406 -0.00759687 77.5944 0.0147183C77.8468 0.0147183 78.0515 0.220779 78.0515 0.474969C78.0515 0.729158 77.8468 0.935219 77.5944 0.935219C76.9655 0.935219 76.3339 0.935219 75.705 0.951956L75.669 0.938009C75.429 0.92324 75.2408 0.724863 75.2372 0.482825Z" fill="#F94F24"/>
<g style="mix-blend-mode:multiply">
<path fill-rule="evenodd" clip-rule="evenodd" d="M94.4144 43.4692V42.3652C94.4128 39.2183 91.8256 36.6675 88.6337 36.666H71.9186V31.5216C74.4224 30.4269 75.8077 27.7541 75.2402 25.1123C74.6728 22.4705 72.3075 20.5807 69.5685 20.5807C66.8295 20.5807 64.4642 22.4705 63.8968 25.1123C63.3293 27.7541 64.7145 30.4269 67.2184 31.5216V36.6743H50.5033C47.3114 36.6758 44.7241 39.2265 44.7226 42.3735V43.4775C44.7241 46.624 47.3118 49.1739 50.5033 49.1739H67.2184V50.5649H50.5033C47.3114 50.5664 44.7241 53.1171 44.7226 56.2641V57.368C44.7241 60.515 47.3114 63.0657 50.5033 63.0672H67.2184V65.5677H50.5033C47.3124 65.5692 44.7257 68.1183 44.7226 71.2642V72.3681C44.7241 75.5146 47.3118 78.0646 50.5033 78.0646H88.6337C91.8252 78.0646 94.4128 75.5146 94.4144 72.3681V71.2642C94.4128 68.1172 91.8256 65.5665 88.6337 65.565H71.9186V63.0645H88.6337C91.8256 63.063 94.4128 60.5122 94.4144 57.3653V56.2613C94.4113 53.1155 91.8245 50.5664 88.6337 50.5649H71.9186V49.1629L88.6337 49.1656C91.8252 49.1656 94.4128 46.6157 94.4144 43.4692Z" fill="#CCCCCC"/>
</g>
<rect x="66.0191" y="42.5807" width="4.25929" height="25.5484" fill="#808080"/>
<path fill-rule="evenodd" clip-rule="evenodd" d="M66.0191 48.9677V46.8386H70.2784V48.1791L66.0191 48.9677Z" fill="#6E6E6E"/>
<rect x="66.0191" y="25.5485" width="4.25929" height="12.0645" fill="#808080"/>
<path fill-rule="evenodd" clip-rule="evenodd" d="M66.0191 31.9354V34.0645H70.2784V32.7229L66.0191 31.9354Z" fill="#6E6E6E"/>
<path fill-rule="evenodd" clip-rule="evenodd" d="M87.2139 46.1291H49.0835C45.892 46.1291 43.3044 43.6679 43.3028 40.6309V39.5654C43.3028 36.5274 45.8909 34.0646 49.0835 34.0646H87.2139C90.4065 34.0646 92.9946 36.5274 92.9946 39.5654V40.6309C92.9931 43.6679 90.4054 46.1291 87.2139 46.1291Z" fill="url(#paint1_linear)"/>
<path fill-rule="evenodd" clip-rule="evenodd" d="M77.4816 42.4187C76.6854 42.7481 75.7692 42.5654 75.1604 41.9558C74.5516 41.3463 74.3701 40.4301 74.7007 39.6346C75.0313 38.8392 75.8088 38.3213 76.6704 38.3225C77.235 38.3225 77.7763 38.5469 78.1752 38.9463C78.5741 39.3456 78.7978 39.8872 78.797 40.4515C78.797 41.3129 78.2778 42.0894 77.4816 42.4187Z" fill="white"/>
<path fill-rule="evenodd" clip-rule="evenodd" d="M85.1859 42.5806C84.0097 42.5806 83.0562 41.6274 83.0562 40.4515C83.0562 39.2757 84.0097 38.3225 85.1859 38.3225C85.751 38.3217 86.2931 38.5457 86.6927 38.9452C87.0922 39.3446 87.3164 39.8866 87.3155 40.4515C87.3155 41.6274 86.3621 42.5806 85.1859 42.5806Z" fill="white"/>
<path fill-rule="evenodd" clip-rule="evenodd" d="M51.3411 41.8695C50.4198 41.8315 49.6918 41.049 49.6918 40.0967C49.6918 39.1444 50.4198 38.3619 51.3411 38.3239H67.7822C68.4117 38.298 69.0045 38.6301 69.3268 39.1893C69.649 39.7484 69.649 40.445 69.3268 41.0041C69.0045 41.5633 68.4117 41.8954 67.7822 41.8695H51.3411Z" fill="white"/>
<path fill-rule="evenodd" clip-rule="evenodd" d="M87.2139 60.3225H49.0835C45.892 60.3225 43.3044 57.8624 43.3028 54.8267V53.7617C43.3013 52.3025 43.9097 50.9026 44.994 49.8703C46.0782 48.838 47.5494 48.2579 49.0835 48.2579H87.2139C90.4054 48.2579 92.9931 50.718 92.9946 53.7537V54.8267C92.9931 57.8624 90.4054 60.3225 87.2139 60.3225Z" fill="url(#paint2_linear)"/>
<path fill-rule="evenodd" clip-rule="evenodd" d="M77.4837 55.9017C76.6877 56.2321 75.7709 56.0501 75.1615 55.4408C74.552 54.8315 74.37 53.9151 74.7004 53.1192C75.0308 52.3234 75.8085 51.8051 76.6704 51.8064C77.8442 51.8081 78.7952 52.7589 78.797 53.9323C78.7982 54.794 78.2798 55.5714 77.4837 55.9017Z" fill="white"/>
<path fill-rule="evenodd" clip-rule="evenodd" d="M86.003 55.9015C85.2073 56.232 84.2909 56.0506 83.6812 55.4419C83.0714 54.8333 82.8887 53.9173 83.2181 53.1214C83.5476 52.3254 84.3243 51.8064 85.1859 51.8064C86.3609 51.8064 87.3138 52.7577 87.3155 53.9323C87.3168 54.7937 86.7987 55.5709 86.003 55.9015Z" fill="white"/>
<path fill-rule="evenodd" clip-rule="evenodd" d="M51.3411 56.0631C50.4198 56.0251 49.6918 55.2426 49.6918 54.2903C49.6918 53.338 50.4198 52.5555 51.3411 52.5175H67.7822C68.4117 52.4916 69.0045 52.8237 69.3268 53.3829C69.649 53.942 69.649 54.6386 69.3268 55.1977C69.0045 55.7569 68.4117 56.089 67.7822 56.0631H51.3411Z" fill="white"/>
<path fill-rule="evenodd" clip-rule="evenodd" d="M87.2139 75.9354H49.0835C45.8916 75.9339 43.3044 73.472 43.3028 70.4345V69.369C43.3044 66.332 45.892 63.8708 49.0835 63.8708H87.2139C90.4054 63.8708 92.9931 66.332 92.9946 69.369V70.4345C92.9931 73.472 90.4058 75.9339 87.2139 75.9354Z" fill="url(#paint3_linear)"/>
<path fill-rule="evenodd" clip-rule="evenodd" d="M77.4816 71.5156C76.6854 71.8449 75.7692 71.6622 75.1604 71.0527C74.5516 70.4431 74.3701 69.5269 74.7007 68.7314C75.0313 67.936 75.8088 67.4181 76.6704 67.4193C77.8454 67.421 78.797 68.3737 78.797 69.5483C78.797 70.4097 78.2778 71.1862 77.4816 71.5156Z" fill="white"/>
<path fill-rule="evenodd" clip-rule="evenodd" d="M85.1859 71.6774C84.0097 71.6774 83.0562 70.7242 83.0562 69.5483C83.0562 68.3725 84.0097 67.4193 85.1859 67.4193C85.7507 67.4193 86.2924 67.6436 86.6918 68.0429C87.0912 68.4422 87.3155 68.9837 87.3155 69.5483C87.3155 70.7242 86.3621 71.6774 85.1859 71.6774Z" fill="white"/>
<path fill-rule="evenodd" clip-rule="evenodd" d="M51.4096 71.6775C50.4609 71.6775 49.6918 70.8832 49.6918 69.9033C49.6918 68.9235 50.4609 68.1292 51.4096 68.1292H67.8506C68.7994 68.1292 69.5685 68.9235 69.5685 69.9033C69.5685 70.8832 68.7994 71.6775 67.8506 71.6775H51.4096Z" fill="white"/>
<path fill-rule="evenodd" clip-rule="evenodd" d="M70.3258 29.3456C68.2039 30.2811 65.7604 29.7664 64.1351 28.0417C62.5098 26.317 62.0229 23.722 62.9016 21.4672C63.7802 19.2124 65.8513 17.7421 68.1488 17.7421C71.283 17.7421 73.8247 20.4392 73.8278 23.7684C73.83 26.2087 72.4477 28.4101 70.3258 29.3456Z" fill="#808080"/>
<g style="mix-blend-mode:multiply">
<path fill-rule="evenodd" clip-rule="evenodd" d="M131.799 67.9509C131.675 67.6175 131.513 67.3 131.316 67.0047C129.757 64.7508 128.019 62.63 126.12 60.6631C122.866 57.3137 119.571 54.9719 116.051 53.4954C112.561 52.0076 108.745 51.4894 104.993 51.9938C101.011 52.5269 97.1858 54.1011 93.3029 56.8113C90.2219 58.9712 87.4425 61.5447 85.0402 64.4619C84.8919 64.6434 84.7409 64.8192 84.5899 64.9978C83.788 65.9385 82.9587 66.9098 82.4397 68.2021C82.3788 68.3527 82.3471 68.5138 82.3464 68.6766V69.5139C82.347 69.7752 82.4276 70.0298 82.577 70.2424C82.6951 70.4071 82.805 70.5774 82.9175 70.7448C83.1947 71.177 83.4974 71.5918 83.8237 71.9869C87.3661 76.0955 90.9222 79.1826 94.6952 81.4239C98.3611 83.601 101.983 84.8012 105.764 85.0915C106.36 85.1389 106.962 85.1612 107.552 85.1612C111.671 85.1612 115.757 84.0308 119.67 81.8118C123.411 79.6482 126.743 76.824 129.509 73.4718C129.627 73.3295 129.748 73.1927 129.869 73.0504C130.621 72.1683 131.472 71.1691 131.959 69.8768C132.011 69.734 132.038 69.5827 132.038 69.4302V68.7743C132.039 68.5862 131.998 68.4004 131.92 68.23C131.876 68.1379 131.838 68.043 131.799 67.9509Z" fill="#CCCCCC"/>
</g>
<path fill-rule="evenodd" clip-rule="evenodd" d="M127.657 69.7662C124.97 72.973 121.728 75.6729 118.086 77.7377C113.954 80.0515 109.537 81.1974 104.782 80.8384C100.967 80.5623 97.4545 79.2949 94.1657 77.3759C90.0719 74.9903 86.631 71.8343 83.5247 68.2945C83.0849 67.792 82.7364 67.2094 82.3464 66.6655V65.8371C82.883 64.5228 83.8732 63.5233 84.7639 62.4685C87.1112 59.6673 89.8272 57.1958 92.838 55.1211C96.2513 52.7852 99.9384 51.1064 104.074 50.5653C107.64 50.0888 111.268 50.5721 114.585 51.9652C118.338 53.5114 121.5 55.9246 124.321 58.7824C126.178 60.6803 127.878 62.7246 129.405 64.8956C129.6 65.2231 129.767 65.5667 129.903 65.9227L129.909 66.5744C129.43 67.8279 128.503 68.7833 127.657 69.7662Z" fill="#F2F2F2"/>
<path fill-rule="evenodd" clip-rule="evenodd" d="M105.053 82.2556C101.272 81.9765 97.6384 80.7652 93.9832 78.5881C90.21 76.3552 86.6537 73.2598 83.1112 69.1485C82.7842 68.7556 82.4824 68.3416 82.2077 67.9093C82.0951 67.739 81.9825 67.5716 81.8672 67.4069C81.7166 67.1938 81.6358 66.938 81.6365 66.6756V65.8383C81.6361 65.6756 81.6669 65.5144 81.7271 65.3638C82.2462 64.0715 83.0755 63.0974 83.8774 62.1568C84.0284 61.9809 84.1795 61.8023 84.3277 61.6237C86.7315 58.707 89.5109 56.1328 92.5909 53.9704C96.474 51.2631 100.299 49.6861 104.284 49.1558C108.035 48.6506 111.851 49.1679 115.34 50.6546C118.861 52.1339 122.156 54.4784 125.41 57.8222C127.308 59.7896 129.046 61.9103 130.606 64.1636C130.802 64.4595 130.964 64.7769 131.089 65.1098C131.128 65.2047 131.166 65.2996 131.21 65.3889C131.287 65.5578 131.327 65.7415 131.328 65.9276V66.5863C131.326 66.7402 131.296 66.8925 131.24 67.0357C130.757 68.3307 129.903 69.3272 129.151 70.2092L128.791 70.6306C126.026 73.9828 122.695 76.8069 118.954 78.9705C115.038 81.1922 110.968 82.3226 106.844 82.3226C106.25 82.3226 105.649 82.3003 105.053 82.2556ZM84.2536 66.4998C84.4728 66.8453 84.7121 67.1771 84.9703 67.4935C88.3344 71.401 91.6902 74.3177 95.23 76.425C98.5666 78.4039 101.84 79.4953 105.24 79.7548C109.502 80.0842 113.706 79.0822 117.751 76.7767C121.239 74.7565 124.343 72.1193 126.918 68.9895C127.041 68.8416 127.168 68.6936 127.294 68.5485C127.918 67.8144 128.513 67.1222 128.857 66.3296V66.1984L128.807 66.0784C128.75 65.9202 128.678 65.7679 128.593 65.6234C127.11 63.4787 125.456 61.4606 123.65 59.589C120.629 56.4881 117.608 54.325 114.39 52.9769C111.302 51.6565 107.924 51.1951 104.603 51.6399C101.013 52.12 97.5422 53.5574 93.986 56.0359C91.0899 58.0708 88.476 60.4918 86.2143 63.2342C86.0605 63.424 85.9013 63.611 85.742 63.7924C85.0966 64.5516 84.4815 65.2717 84.0943 66.0923L84.108 66.2821L84.2536 66.4998Z" fill="#6731CF"/>
<path fill-rule="evenodd" clip-rule="evenodd" d="M99.5567 55.784C101.851 56.3015 103.566 58.2154 103.829 60.5523C104.092 62.8891 102.845 65.1359 100.722 66.1497C98.5998 67.1636 96.0679 66.7219 94.4144 65.0495C94.4144 65.1287 94.4144 65.208 94.4144 65.2901C94.4144 69.8829 97.182 74.0234 101.426 75.7807C105.671 77.538 110.556 76.5661 113.805 73.3181C117.053 70.0701 118.024 65.1858 116.265 60.9429C114.506 56.7 110.364 53.9343 105.769 53.9354H105.764C103.559 53.9319 101.401 54.5746 99.5567 55.784Z" fill="url(#paint4_linear)"/>
<g style="mix-blend-mode:multiply">
<path fill-rule="evenodd" clip-rule="evenodd" d="M128.095 64C127.936 64.1828 127.771 64.3684 127.601 64.554L127.222 64.9817C124.607 67.9931 121.456 70.5306 117.917 72.475C114.324 74.4169 110.597 75.404 106.845 75.404C106.307 75.404 105.758 75.3825 105.217 75.3448C101.766 75.092 98.4429 74.043 95.056 72.1334C91.5715 70.17 88.2626 67.4615 84.9537 63.8708C84.4844 64.3785 84.0852 64.9426 83.7662 65.5492V65.7294L83.9139 65.9392C84.1364 66.2721 84.3794 66.5918 84.6415 66.8967C88.0563 70.6622 91.4628 73.4728 95.056 75.5035C98.4429 77.4104 101.766 78.4621 105.217 78.7122C105.758 78.7526 106.307 78.7741 106.845 78.7741C110.597 78.7741 114.324 77.787 117.917 75.8424C121.461 73.8948 124.615 71.3517 127.231 68.3329L127.61 67.908C128.245 67.2033 128.85 66.5336 129.199 65.7697V65.6433C129.182 65.6057 129.165 65.568 129.151 65.5303C129.092 65.3772 129.018 65.2296 128.931 65.0893C128.652 64.7154 128.374 64.355 128.095 64Z" fill="#E5E5E5"/>
</g>
<path fill-rule="evenodd" clip-rule="evenodd" d="M12.5542 31.1294C10.4728 21.5392 15.2212 11.7654 23.9723 7.62751C32.7233 3.4896 43.1241 6.10012 48.9819 13.9048L48.7396 14.0925C42.9682 6.40223 32.7201 3.82987 24.0976 7.90709C15.475 11.9843 10.7966 21.6147 12.848 31.064C14.8995 40.5133 23.1291 47.2405 32.6367 47.24V47.5482C22.9874 47.5477 14.6357 40.7196 12.5542 31.1294Z" fill="#F94F24"/>
<path fill-rule="evenodd" clip-rule="evenodd" d="M97.9638 92.8023L98.1339 92.5487C108.187 99.3215 121.346 99.316 131.393 92.5348C141.441 85.7535 146.363 73.5545 143.835 61.703C141.307 49.8516 131.834 40.7209 119.893 38.6263L119.946 38.3225C135.301 41.0059 146.053 54.983 144.702 70.5059C143.351 86.0289 130.346 97.9401 114.758 97.9326V97.9354C108.772 97.9441 102.921 96.1559 97.9638 92.8023Z" fill="#F94F24"/>
<defs>
<linearGradient id="paint0_linear" x1="136.25" y1="170.853" x2="187.726" y2="74.5903" gradientUnits="userSpaceOnUse">
<stop stop-color="#8033EB"/>
<stop offset="1" stop-color="#F94F24"/>
</linearGradient>
<linearGradient id="paint1_linear" x1="102.16" y1="45.932" x2="102.16" y2="37.6741" gradientUnits="userSpaceOnUse">
<stop stop-color="#B3B3B3"/>
<stop offset="1" stop-color="#D4D4D4"/>
</linearGradient>
<linearGradient id="paint2_linear" x1="102.156" y1="60.1254" x2="102.156" y2="51.8685" gradientUnits="userSpaceOnUse">
<stop stop-color="#B3B3B3"/>
<stop offset="1" stop-color="#D4D4D4"/>
</linearGradient>
<linearGradient id="paint3_linear" x1="102.16" y1="75.7436" x2="102.16" y2="67.4857" gradientUnits="userSpaceOnUse">
<stop stop-color="#B3B3B3"/>
<stop offset="1" stop-color="#D4D4D4"/>
</linearGradient>
<linearGradient id="paint4_linear" x1="122.559" y1="75.0623" x2="130.812" y2="61.3587" gradientUnits="userSpaceOnUse">
<stop stop-color="#8033EB"/>
<stop offset="1" stop-color="#F94F24"/>
</linearGradient>
</defs>
</svg>
