<svg width="152" height="121" viewBox="0 0 152 121" fill="none" xmlns="http://www.w3.org/2000/svg">
<path fill-rule="evenodd" clip-rule="evenodd" d="M41.5955 78.1168C31.6862 73.0502 30.7786 64.1961 34.736 50.1803C38.6934 36.1646 48.521 28.2019 63.757 38.657C78.993 49.1121 88.7415 62.7375 71.9647 72.6704C71.9647 72.6704 51.5049 83.1835 41.5955 78.1168Z" fill="#F2F2F2"/>
<path fill-rule="evenodd" clip-rule="evenodd" d="M104.315 48.9801C109.79 45.19 114.726 47.2288 120.994 53.2924C127.263 59.3561 128.68 66.7886 118.847 71.8552C109.014 76.9219 99.0598 78.1958 98.577 66.538C98.577 66.538 98.8408 52.7702 104.315 48.9801Z" fill="#F2F2F2"/>
<path d="M74.3789 27.8324V38.6831" stroke="#F94F24" stroke-linecap="round" stroke-dasharray="3.4 2.27"/>
<path d="M74.3789 83.8109V94.659" stroke="#F94F24" stroke-linecap="round" stroke-dasharray="3.4 2.27"/>
<path d="M27.8448 82.4133L42.2366 73.2532" stroke="#F94F24" stroke-linecap="round" stroke-dasharray="3.4 2.27"/>
<path d="M27.8448 41.2285L44.7825 56.6843" stroke="#F94F24" stroke-linecap="round" stroke-dasharray="3.4 2.27"/>
<path d="M121.736 82.4133L107.344 73.2532" stroke="#F94F24" stroke-linecap="round" stroke-dasharray="3.4 2.27"/>
<path d="M121.736 41.2285L107.413 54.0706" stroke="#F94F24" stroke-linecap="round" stroke-dasharray="3.4 2.27"/>
<path fill-rule="evenodd" clip-rule="evenodd" d="M104.138 37.7772C101.492 38.8737 98.4455 38.2686 96.4199 36.2441C94.3942 34.2197 93.788 31.1746 94.8839 28.529C95.9798 25.8835 98.5621 24.1585 101.426 24.1586C103.304 24.1579 105.105 24.9032 106.433 26.2303C107.761 27.5575 108.507 29.3578 108.507 31.235C108.508 34.0987 106.784 36.6807 104.138 37.7772Z" fill="#F2F2F2"/>
<path fill-rule="evenodd" clip-rule="evenodd" d="M102.751 96.1102C101.457 96.6458 99.9686 96.3497 98.9787 95.3601C97.9887 94.3704 97.6926 92.882 98.2283 91.5889C98.7641 90.2959 100.026 89.4528 101.426 89.4528C102.345 89.4521 103.225 89.8164 103.875 90.4655C104.524 91.1146 104.888 91.9952 104.888 92.9132C104.888 94.3128 104.044 95.5746 102.751 96.1102Z" fill="#F2F2F2"/>
<path fill-rule="evenodd" clip-rule="evenodd" d="M52.2938 105.128C49.4918 105.128 47.2204 102.857 47.2204 100.056C47.2204 97.2544 49.4918 94.9837 52.2938 94.9836C55.0952 94.9851 57.3658 97.255 57.3672 100.056C57.3672 102.857 55.0958 105.128 52.2938 105.128Z" fill="#F2F2F2"/>
<g style="mix-blend-mode:multiply">
<path fill-rule="evenodd" clip-rule="evenodd" d="M103.703 57.0746C103.606 56.9128 103.598 56.7125 103.681 56.5432C103.765 56.374 103.93 56.2591 104.117 56.2385C100.727 52.4268 95.5554 50.7211 90.5619 51.7679C86.5559 45.9871 79.5382 43.0829 72.6172 44.3415C65.6963 45.6002 60.1512 50.7892 58.4383 57.61C58.0493 57.5676 57.6582 57.5465 57.2669 57.5467C51.0933 57.5467 46.0885 62.55 46.0885 68.7218C46.0885 74.8937 51.0933 79.897 57.2669 79.897H93.4904C96.5561 79.897 98.9833 79.0873 101.258 76.8137C102.585 74.0675 103.508 71.144 103.999 68.1337V68.1337C104.571 64.7313 105.6 60.2211 103.703 57.0746Z" fill="#EBEBEB"/>
</g>
<path fill-rule="evenodd" clip-rule="evenodd" d="M89.2692 50.3437C85.2636 44.5629 78.2463 41.6583 71.3254 42.9164C64.4045 44.1744 58.8592 49.3627 57.1456 56.1831C56.7564 56.1429 56.3654 56.1227 55.9742 56.1225C49.8025 56.1249 44.8006 61.127 44.8002 67.2969C44.7998 73.4668 49.8011 78.4695 55.9728 78.4727H92.1871C100.041 78.4727 106.407 72.1079 106.407 64.2566C106.407 56.4052 100.041 50.0404 92.1871 50.0404V50.0404C91.2066 50.0413 90.2289 50.1429 89.2692 50.3437Z" fill="url(#paint0_linear)"/>
<path fill-rule="evenodd" clip-rule="evenodd" d="M60.9631 43.3912C58.0125 45.733 55.7109 48.7912 54.2778 52.2744C46.298 53.1601 40.4022 60.1263 40.8498 68.1403C41.2974 76.1542 47.9322 82.421 55.961 82.4132H92.1871C98.7284 82.492 104.807 79.0484 108.1 73.398C111.394 67.7475 111.394 60.763 108.1 55.1125C104.807 49.462 98.7283 46.0185 92.1871 46.0973C91.7808 46.0973 91.3745 46.1105 90.9682 46.1395C86.8146 41.4053 80.8229 38.6885 74.5239 38.6832V38.6833C69.5996 38.6651 64.8163 40.3258 60.9631 43.3912Z" stroke="#F94F24" stroke-linecap="round" stroke-dasharray="3.4 2.27"/>
<path fill-rule="evenodd" clip-rule="evenodd" d="M57.1322 57.8948C58.8439 51.0686 64.3934 45.8757 71.3196 44.6188C78.2458 43.362 85.2668 46.2739 89.269 52.0632C90.2292 51.8665 91.2068 51.7675 92.187 51.7678C99.6791 51.7686 105.885 57.5816 106.373 65.0556C106.394 64.747 106.407 64.4384 106.407 64.1246C106.407 59.8384 104.474 55.7828 101.146 53.0839C97.818 50.3851 93.4497 49.3309 89.2565 50.2148C85.2506 44.4352 78.2341 41.5315 71.3141 42.7894C64.3941 44.0473 58.8492 49.2344 57.1349 56.0538C56.7457 56.0136 56.3547 55.9933 55.9635 55.9931C49.7898 55.9931 44.7851 60.9964 44.7851 67.1683C44.7851 67.4795 44.8009 67.7907 44.8273 68.0967C45.3011 62.3004 50.1435 57.8368 55.9608 57.8341L55.9608 57.8341C56.3521 57.8343 56.7431 57.8546 57.1322 57.8948Z" fill="#C4ECEC"/>
<g style="mix-blend-mode:multiply">
<path fill-rule="evenodd" clip-rule="evenodd" d="M76.417 56.2239C73.8907 57.7702 72.7551 60.8471 73.6714 63.6632L66.4557 70.8768C66.3453 70.9851 66.2835 71.1336 66.2842 71.2882V74.5825C66.2842 74.9044 66.5453 75.1654 66.8673 75.1654L70.1625 75.1654C70.3169 75.1644 70.4647 75.1029 70.5741 74.9939L71.3972 74.171C71.5235 74.0451 71.5848 73.8681 71.5634 73.691L71.4605 72.8074L72.6873 72.6914C72.968 72.6669 73.1904 72.4444 73.215 72.1639L73.3311 70.9374L74.2175 71.0403C74.3824 71.062 74.5484 71.0099 74.6713 70.8979C74.7955 70.7873 74.8665 70.629 74.8665 70.4627L74.8665 69.3787H75.9219C76.077 69.3779 76.2257 69.3163 76.3361 69.2072L77.8293 67.7329C80.0952 68.4926 82.5959 67.9064 84.2878 66.219C86.7856 63.717 86.788 59.6666 84.2931 57.1617L84.2931 57.1617C82.2008 55.0654 78.9433 54.6775 76.417 56.2239ZM80.7408 61.6577C80.088 61.3875 79.6624 60.7508 79.6624 60.0445C79.6624 59.3383 80.088 58.7016 80.7408 58.4313C81.3935 58.1611 82.1448 58.3107 82.6442 58.8102C83.3245 59.4926 83.3245 60.5965 82.6442 61.2789C82.1448 61.7784 81.3935 61.9279 80.7408 61.6577Z" fill="#CCCCCC"/>
</g>
<path fill-rule="evenodd" clip-rule="evenodd" d="M75.7866 55.2981C73.2603 56.8444 72.1248 59.9213 73.0411 62.7374L65.8254 69.951C65.7169 70.0607 65.6554 70.2082 65.6539 70.3625L65.6539 73.6594C65.6539 73.9813 65.9149 74.2422 66.2369 74.2422L69.5322 74.2422C69.6869 74.243 69.8354 74.1812 69.9437 74.0708L70.7669 73.2479C70.8935 73.1221 70.9548 72.945 70.9331 72.7679L70.8328 71.8843L72.057 71.7683C72.3381 71.7448 72.5612 71.5218 72.5846 71.2408L72.7007 70.0143L73.5872 70.1172C73.752 70.1388 73.9181 70.0867 74.041 69.9747C74.1652 69.8642 74.2362 69.7058 74.2362 69.5396V68.4555H75.2915C75.4461 68.4555 75.5942 68.3938 75.7031 68.2841L77.1963 66.8124C79.4628 67.5702 81.9629 66.9831 83.6549 65.2958C86.1551 62.7943 86.1586 58.7418 83.6628 56.2359H83.6628C81.5704 54.1396 78.3129 53.7517 75.7866 55.2981ZM80.1104 60.732C79.4577 60.4618 79.0321 59.825 79.0321 59.1188C79.0321 58.4125 79.4577 57.7758 80.1104 57.5056C80.7632 57.2354 81.5144 57.3849 82.0139 57.8844C82.3419 58.2115 82.5262 58.6556 82.5262 59.1188C82.5262 59.5819 82.3419 60.026 82.0139 60.3531C81.5144 60.8526 80.7632 61.0022 80.1104 60.732Z" fill="#FFC300"/>
<path fill-rule="evenodd" clip-rule="evenodd" d="M82.552 58.441C82.4619 58.3508 82.3619 58.2712 82.2539 58.2036C82.6938 58.8941 82.5948 59.7974 82.0157 60.3763C81.4367 60.9551 80.5331 61.0541 79.8425 60.6143C79.9118 60.7218 79.9923 60.8217 80.0826 60.9123C80.7652 61.5924 81.8694 61.5924 82.552 60.9123V60.9123C83.2325 60.229 83.2325 59.1243 82.552 58.441Z" fill="#FFD344"/>
<path fill-rule="evenodd" clip-rule="evenodd" d="M66.1921 70.9216C66.1915 70.7675 66.2523 70.6195 66.361 70.5102L73.5793 63.2939C72.6872 60.5458 73.7472 57.5409 76.1663 55.96C78.5854 54.3792 81.764 54.6144 83.9239 56.534C83.8395 56.4391 83.7516 56.3511 83.6601 56.2703C81.5678 54.1739 78.3103 53.786 75.784 55.3324C73.2577 56.8787 72.1221 59.9556 73.0384 62.7717L65.8254 69.9669C65.7164 70.0762 65.6549 70.224 65.6539 70.3783V73.6726C65.6546 73.9772 65.8908 74.2294 66.1948 74.2502C66.1947 74.2423 66.1921 74.2291 66.1921 74.2159V70.9216Z" fill="#FFD344"/>
<path fill-rule="evenodd" clip-rule="evenodd" d="M73.7324 64.4411L67.0232 71.1483C66.863 71.3106 66.863 71.5715 67.0232 71.7338C67.1006 71.8121 67.206 71.8562 67.3161 71.8562C67.4261 71.8562 67.5316 71.8121 67.6089 71.7338L74.3181 65.0293C74.4801 64.8666 74.4801 64.6037 74.3181 64.4411V64.4411C74.1557 64.2809 73.8947 64.2809 73.7324 64.4411Z" fill="#FFA200"/>
<ellipse cx="74.8008" cy="15.1444" rx="12.6957" ry="12.6993" transform="rotate(-80.78 74.8008 15.1444)" fill="#F1ECFA"/>
<ellipse cx="74.7967" cy="15.1406" rx="9.33219" ry="9.33022" transform="rotate(-22.5 74.7967 15.1406)" fill="url(#paint1_linear)" stroke="#F94F24" stroke-linecap="round"/>
<path fill-rule="evenodd" clip-rule="evenodd" d="M74.7587 15.5207V15.5207C73.593 15.5207 72.648 14.576 72.648 13.4107V11.8018C72.648 10.6365 73.593 9.69177 74.7587 9.69177V9.69177C75.9243 9.69177 76.8693 10.6365 76.8693 11.8018V13.4107C76.8693 14.576 75.9243 15.5207 74.7587 15.5207Z" stroke="white" stroke-linecap="round"/>
<path d="M73.6031 15.1382V16.5915L71.4476 17.3458C71.4476 17.3458 70.2419 17.8495 70.2419 19.0048V20.1178" stroke="white" stroke-linecap="round" stroke-linejoin="round"/>
<path d="M75.9326 15.1382V16.5915L78.0881 17.3458C78.0881 17.3458 79.2964 17.8495 79.2964 19.0048V20.1178" stroke="white" stroke-linecap="round" stroke-linejoin="round"/>
<path d="M72.231 12.3423C72.231 12.3423 75.1331 12.0601 76.5235 10.6622" stroke="white" stroke-linecap="round"/>
<path d="M73.6031 16.5913L74.7692 18.0499L75.9327 16.5913" stroke="white" stroke-linecap="round"/>
<ellipse cx="16.5903" cy="35.7074" rx="12.6928" ry="12.6992" transform="rotate(-80.78 16.5903 35.7074)" fill="#F1ECFA"/>
<ellipse cx="16.5878" cy="35.7053" rx="9.33188" ry="9.32836" transform="rotate(-22.5 16.5878 35.7053)" fill="url(#paint2_linear)" stroke="#F94F24" stroke-linecap="round"/>
<path fill-rule="evenodd" clip-rule="evenodd" d="M16.5637 36.0931V36.0931C15.398 36.0931 14.4531 35.1484 14.4531 33.9831V32.3742C14.4531 31.2088 15.398 30.2642 16.5637 30.2642V30.2642C17.7293 30.2642 18.6743 31.2088 18.6743 32.3742V33.9831C18.6743 35.1484 17.7293 36.0931 16.5637 36.0931Z" stroke="white" stroke-linecap="round"/>
<path d="M15.3975 35.7108V37.1641L13.242 37.9184C13.242 37.9184 12.0363 38.4222 12.0363 39.5774V40.6904" stroke="white" stroke-linecap="round" stroke-linejoin="round"/>
<path d="M17.7297 35.7108V37.1641L19.8851 37.9184C19.8851 37.9184 21.0935 38.4222 21.0935 39.5774V40.6904" stroke="white" stroke-linecap="round" stroke-linejoin="round"/>
<path d="M14.0309 32.9148C14.0309 32.9148 16.933 32.6326 18.3207 31.2347" stroke="white" stroke-linecap="round"/>
<path d="M15.4001 37.1639L16.5663 38.6225L17.7297 37.1639" stroke="white" stroke-linecap="round"/>
<ellipse cx="16.5895" cy="89.7317" rx="12.6984" ry="12.6936" transform="rotate(-22.5 16.5895 89.7317)" fill="#F1ECFA"/>
<ellipse cx="16.5912" cy="89.7335" rx="9.32776" ry="9.33248" transform="rotate(-80.78 16.5912 89.7335)" fill="url(#paint3_linear)" stroke="#F94F24" stroke-linecap="round"/>
<path fill-rule="evenodd" clip-rule="evenodd" d="M16.5637 90.1226V90.1226C15.398 90.1226 14.4531 89.178 14.4531 88.0126V86.4064C14.4531 85.2411 15.398 84.2964 16.5637 84.2964V84.2964C17.7293 84.2964 18.6743 85.2411 18.6743 86.4064V88.0126C18.6743 89.178 17.7293 90.1226 16.5637 90.1226Z" stroke="white" stroke-linecap="round"/>
<path d="M15.3975 89.7479V91.2012L13.242 91.9555C13.242 91.9555 12.0363 92.4566 12.0363 93.6145V94.7196" stroke="white" stroke-linecap="round" stroke-linejoin="round"/>
<path d="M17.7297 89.7479V91.2012L19.8851 91.9555C19.8851 91.9555 21.0935 92.4566 21.0935 93.6145V94.7196" stroke="white" stroke-linecap="round" stroke-linejoin="round"/>
<path d="M14.0309 86.9444C14.0309 86.9444 16.933 86.6648 18.3207 85.267" stroke="white" stroke-linecap="round"/>
<path d="M15.4001 91.1962L16.5663 92.6547L17.7297 91.1962" stroke="white" stroke-linecap="round"/>
<ellipse cx="133.014" cy="35.7044" rx="12.6928" ry="12.6963" transform="rotate(-76.72 133.014 35.7044)" fill="#F1ECFA"/>
<ellipse cx="133.021" cy="35.7154" rx="9.33033" ry="9.3299" transform="rotate(-22.5 133.021 35.7154)" fill="url(#paint4_linear)" stroke="#F94F24" stroke-linecap="round"/>
<path fill-rule="evenodd" clip-rule="evenodd" d="M133.017 36.0931V36.0931C131.852 36.0931 130.907 35.1484 130.907 33.9831V32.3742C130.907 31.2088 131.852 30.2642 133.017 30.2642V30.2642C134.183 30.2642 135.128 31.2088 135.128 32.3742V33.9831C135.128 35.1484 134.183 36.0931 133.017 36.0931Z" stroke="white" stroke-linecap="round"/>
<path d="M131.853 35.7108V37.1641L129.698 37.9184C129.698 37.9184 128.49 38.4222 128.49 39.5774V40.6904" stroke="white" stroke-linecap="round" stroke-linejoin="round"/>
<path d="M134.183 35.7108V37.1641L136.339 37.9184C136.339 37.9184 137.544 38.4222 137.544 39.5774V40.6904" stroke="white" stroke-linecap="round" stroke-linejoin="round"/>
<path d="M130.482 32.9148C130.482 32.9148 133.384 32.6326 134.771 31.2347" stroke="white" stroke-linecap="round"/>
<path d="M131.853 37.1639L133.017 38.6225L134.183 37.1639" stroke="white" stroke-linecap="round"/>
<circle cx="133.052" cy="89.752" r="12.6975" transform="rotate(-45 133.052 89.752)" fill="#F1ECFA"/>
<ellipse cx="133.061" cy="89.7367" rx="9.32777" ry="9.33248" transform="rotate(-80.78 133.061 89.7367)" fill="url(#paint5_linear)" stroke="#F94F24" stroke-linecap="round"/>
<path fill-rule="evenodd" clip-rule="evenodd" d="M133.017 90.1226V90.1226C131.852 90.1226 130.907 89.178 130.907 88.0126V86.4064C130.907 85.2411 131.852 84.2964 133.017 84.2964V84.2964C134.183 84.2964 135.128 85.2411 135.128 86.4064V88.0126C135.128 89.178 134.183 90.1226 133.017 90.1226Z" stroke="white" stroke-linecap="round"/>
<path d="M131.853 89.7479V91.2012L129.698 91.9555C129.698 91.9555 128.49 92.4566 128.49 93.6145V94.7196" stroke="white" stroke-linecap="round" stroke-linejoin="round"/>
<path d="M134.183 89.7479V91.2012L136.339 91.9555C136.339 91.9555 137.544 92.4566 137.544 93.6145V94.7196" stroke="white" stroke-linecap="round" stroke-linejoin="round"/>
<path d="M130.482 86.9444C130.482 86.9444 133.384 86.6648 134.771 85.267" stroke="white" stroke-linecap="round"/>
<path d="M131.853 91.1962L133.017 92.6547L134.183 91.1962" stroke="white" stroke-linecap="round"/>
<ellipse cx="74.7878" cy="107.884" rx="12.698" ry="12.6943" fill="#F1ECFA"/>
<ellipse cx="74.7874" cy="107.884" rx="9.33158" ry="9.32887" fill="url(#paint6_linear)" stroke="#F94F24" stroke-linecap="round"/>
<path fill-rule="evenodd" clip-rule="evenodd" d="M74.7587 108.263V108.263C73.593 108.263 72.648 107.319 72.648 106.153V104.547C72.648 103.382 73.593 102.437 74.7587 102.437V102.437C75.9243 102.437 76.8693 103.382 76.8693 104.547V106.153C76.8693 107.319 75.9243 108.263 74.7587 108.263Z" stroke="white" stroke-linecap="round"/>
<path d="M73.6031 107.881V109.334L71.4476 110.089C71.4476 110.089 70.2419 110.592 70.2419 111.75V112.855" stroke="white" stroke-linecap="round" stroke-linejoin="round"/>
<path d="M75.9326 107.881V109.334L78.0881 110.089C78.0881 110.089 79.2964 110.592 79.2964 111.75V112.855" stroke="white" stroke-linecap="round" stroke-linejoin="round"/>
<path d="M72.231 105.085C72.231 105.085 75.1331 104.803 76.5235 103.408" stroke="white" stroke-linecap="round"/>
<path d="M73.6031 109.334L74.7692 110.793L75.9327 109.334" stroke="white" stroke-linecap="round"/>
<path fill-rule="evenodd" clip-rule="evenodd" d="M75.6706 28.3677C75.887 27.8453 75.7674 27.2441 75.3675 26.8443C74.9676 26.4445 74.3662 26.3249 73.8436 26.5413C73.3211 26.7576 72.9805 27.2673 72.9805 27.8327C72.9798 28.2037 73.1269 28.5597 73.3892 28.822C73.6516 29.0843 74.0077 29.2313 74.3787 29.2306C74.9443 29.2306 75.4542 28.89 75.6706 28.3677Z" fill="white" stroke="#F94F24" stroke-linecap="round"/>
<path fill-rule="evenodd" clip-rule="evenodd" d="M75.6708 39.2147C75.8871 38.6921 75.767 38.0906 75.3666 37.691C74.9661 37.2914 74.3642 37.1725 73.8418 37.3897C73.3194 37.6069 72.9794 38.1174 72.9805 38.683C72.9805 39.0535 73.1279 39.4088 73.3902 39.6705C73.6525 39.9323 74.0081 40.079 74.3787 40.0783C74.9445 40.0783 75.4546 39.7374 75.6708 39.2147Z" fill="white" stroke="#F94F24" stroke-linecap="round"/>
<path fill-rule="evenodd" clip-rule="evenodd" d="M29.2432 41.2283C29.2432 40.4563 28.6172 39.8304 27.8449 39.8304C27.0727 39.8304 26.4466 40.4563 26.4466 41.2283C26.4459 41.5993 26.593 41.9552 26.8554 42.2175C27.1178 42.4799 27.4739 42.6269 27.8449 42.6262C28.6172 42.6262 29.2432 42.0004 29.2432 41.2283Z" fill="white" stroke="#F94F24" stroke-linecap="round"/>
<path fill-rule="evenodd" clip-rule="evenodd" d="M46.1782 56.6825C46.1772 55.9123 45.5521 55.2886 44.7817 55.2891C44.0112 55.2895 43.3869 55.9141 43.3869 56.6843C43.3869 57.0548 43.5343 57.4101 43.7966 57.6718C44.0589 57.9335 44.4146 58.0802 44.7852 58.0795C45.5556 58.0781 46.1792 57.4528 46.1782 56.6825Z" fill="white" stroke="#F94F24" stroke-linecap="round"/>
<path fill-rule="evenodd" clip-rule="evenodd" d="M108.852 54.9181C109.069 54.3955 108.949 53.7936 108.549 53.3935C108.149 52.9933 107.547 52.8739 107.024 53.091C106.501 53.308 106.161 53.8187 106.162 54.3846C106.162 55.1551 106.787 55.7798 107.558 55.7798C108.124 55.7809 108.635 55.4407 108.852 54.9181Z" fill="white" stroke="#F94F24" stroke-linecap="round"/>
<path fill-rule="evenodd" clip-rule="evenodd" d="M43.5305 73.7868C43.7476 73.2642 43.6282 72.6623 43.2279 72.2621C42.8277 71.862 42.2256 71.7426 41.7029 71.9596C41.1801 72.1767 40.8398 72.6874 40.8409 73.2532C40.8409 74.0238 41.4658 74.6485 42.2366 74.6485H42.2366C42.8026 74.6495 43.3134 74.3093 43.5305 73.7868Z" fill="white" stroke="#F94F24" stroke-linecap="round"/>
<path fill-rule="evenodd" clip-rule="evenodd" d="M109.098 73.7849C109.314 73.2622 109.194 72.6608 108.793 72.2612C108.393 71.8616 107.791 71.7427 107.269 71.9599C106.746 72.1771 106.406 72.6876 106.407 73.2532C106.407 73.6237 106.555 73.979 106.817 74.2407C107.079 74.5025 107.435 74.6492 107.806 74.6485C108.371 74.6485 108.881 74.3076 109.098 73.7849Z" fill="white" stroke="#F94F24" stroke-linecap="round"/>
<path fill-rule="evenodd" clip-rule="evenodd" d="M29.1368 82.9481C29.3532 82.4258 29.2336 81.8245 28.8336 81.4247C28.4337 81.0249 27.8323 80.9053 27.3098 81.1217C26.7873 81.3381 26.4466 81.8478 26.4466 82.4132C26.4466 83.1852 27.0727 83.8111 27.8449 83.8111H27.8449C28.4105 83.8111 28.9203 83.4705 29.1368 82.9481Z" fill="white" stroke="#F94F24" stroke-linecap="round"/>
<path fill-rule="evenodd" clip-rule="evenodd" d="M123.03 41.7633C123.247 41.241 123.127 40.6397 122.727 40.2399C122.327 39.8401 121.726 39.7205 121.203 39.9369C120.681 40.1533 120.34 40.663 120.34 41.2284C120.34 41.5993 120.487 41.9553 120.749 42.2176C121.011 42.4799 121.367 42.6269 121.739 42.6262C122.304 42.6262 122.814 42.2857 123.03 41.7633Z" fill="white" stroke="#F94F24" stroke-linecap="round"/>
<path fill-rule="evenodd" clip-rule="evenodd" d="M123.03 82.9481C123.247 82.4258 123.127 81.8245 122.727 81.4247C122.327 81.0249 121.726 80.9053 121.203 81.1217C120.681 81.3381 120.34 81.8478 120.34 82.4132C120.34 83.1852 120.966 83.811 121.739 83.8111C122.304 83.8111 122.814 83.4705 123.03 82.9481Z" fill="white" stroke="#F94F24" stroke-linecap="round"/>
<path fill-rule="evenodd" clip-rule="evenodd" d="M75.6706 95.7214C75.887 95.1991 75.7674 94.5978 75.3675 94.198C74.9676 93.7982 74.3661 93.6787 73.8436 93.895C73.3211 94.1114 72.9805 94.6211 72.9805 95.1865C72.9798 95.5574 73.1269 95.9134 73.3892 96.1757C73.6516 96.438 74.0077 96.5851 74.3787 96.5844H74.3787C74.9443 96.5844 75.4542 96.2438 75.6706 95.7214Z" fill="white" stroke="#F94F24" stroke-linecap="round"/>
<path fill-rule="evenodd" clip-rule="evenodd" d="M75.6706 82.9481C75.887 82.4258 75.7674 81.8245 75.3675 81.4247C74.9676 81.0249 74.3661 80.9053 73.8436 81.1217C73.3211 81.3381 72.9805 81.8478 72.9805 82.4132C72.9805 83.1852 73.6065 83.8111 74.3787 83.8111H74.3787C74.9443 83.8111 75.4542 83.4705 75.6706 82.9481Z" fill="white" stroke="#F94F24" stroke-linecap="round"/>
<defs>
<linearGradient id="paint0_linear" x1="146.32" y1="111.163" x2="150.814" y2="63.1633" gradientUnits="userSpaceOnUse">
<stop stop-color="#8033EB"/>
<stop offset="1" stop-color="#A2E1E0"/>
</linearGradient>
<linearGradient id="paint1_linear" x1="61.8965" y1="24.5274" x2="79.1366" y2="31.67" gradientUnits="userSpaceOnUse">
<stop stop-color="#8033EB"/>
<stop offset="1" stop-color="#6731CE"/>
</linearGradient>
<linearGradient id="paint2_linear" x1="3.68856" y1="45.0918" x2="20.9273" y2="52.235" gradientUnits="userSpaceOnUse">
<stop stop-color="#8033EB"/>
<stop offset="1" stop-color="#6731CE"/>
</linearGradient>
<linearGradient id="paint3_linear" x1="13.4841" y1="97.3289" x2="16.4757" y2="84.8852" gradientUnits="userSpaceOnUse">
<stop stop-color="#8033EB"/>
<stop offset="1" stop-color="#6731CE"/>
</linearGradient>
<linearGradient id="paint4_linear" x1="120.123" y1="45.102" x2="137.363" y2="52.2434" gradientUnits="userSpaceOnUse">
<stop stop-color="#8033EB"/>
<stop offset="1" stop-color="#6731CE"/>
</linearGradient>
<linearGradient id="paint5_linear" x1="129.955" y1="97.336" x2="132.947" y2="84.8875" gradientUnits="userSpaceOnUse">
<stop stop-color="#8033EB"/>
<stop offset="1" stop-color="#6731CE"/>
</linearGradient>
<linearGradient id="paint6_linear" x1="65.4585" y1="126.539" x2="84.119" y2="126.539" gradientUnits="userSpaceOnUse">
<stop stop-color="#8033EB"/>
<stop offset="1" stop-color="#6731CE"/>
</linearGradient>
</defs>
</svg>
