<svg width="130" height="100" viewBox="0 0 130 100" fill="none" xmlns="http://www.w3.org/2000/svg">
<path fill-rule="evenodd" clip-rule="evenodd" d="M108.571 41.4286C97.5257 41.4286 88.5714 32.4743 88.5714 21.4286C88.5714 10.3829 97.5257 1.42862 108.571 1.42862C113.876 1.42862 118.963 3.53576 122.714 7.28648C126.464 11.0372 128.571 16.1243 128.571 21.4286C128.571 32.4743 119.617 41.4286 108.571 41.4286Z" fill="#F2F2F2"/>
<path fill-rule="evenodd" clip-rule="evenodd" d="M110.142 93.3332C105.472 95.2686 100.095 94.1998 96.5194 90.625C92.944 87.0503 91.8742 81.6737 93.8088 77.0026C95.7434 72.3314 100.301 69.2857 105.357 69.2857C112.26 69.2857 117.856 74.8807 117.857 81.7832C117.858 86.8391 114.813 91.3977 110.142 93.3332Z" fill="#F2F2F2"/>
<rect x="22.1429" y="84.2858" width="42.1429" height="10" rx="5" fill="#F2F2F2"/>
<rect x="17.1429" width="42.1429" height="10" rx="5" fill="#F2F2F2"/>
<path fill-rule="evenodd" clip-rule="evenodd" d="M46.1556 77.8571C46.1556 77.8571 48.2356 93.9305 35 97.1429H76.4286C63.193 93.9258 65.2729 77.8571 65.2729 77.8571H46.1556Z" fill="#999999"/>
<rect x="35" y="97.1429" width="41.4286" height="2.85714" fill="#E5E5E5"/>
<path fill-rule="evenodd" clip-rule="evenodd" d="M106.649 80.1684C105.864 80.9643 104.794 81.4176 103.673 81.4285H4.18372C1.8508 81.4046 -0.0215624 79.505 0.000187588 77.1842V19.242C-0.0202825 16.9221 1.8517 15.0239 4.18372 15H103.673C104.794 15.0109 105.864 15.4642 106.649 16.2602C107.433 17.0561 107.868 18.1296 107.857 19.2443V77.1842C107.868 78.2989 107.433 79.3724 106.649 80.1684Z" fill="#B3B3B3"/>
<rect y="20.7143" width="107.857" height="52.8571" fill="url(#paint0_linear)"/>
<g style="mix-blend-mode:multiply">
<rect y="20.7143" width="107.857" height="0.714286" fill="#E5E5E5"/>
</g>
<path fill-rule="evenodd" clip-rule="evenodd" d="M65.3464 81.4285C65.3464 81.4285 65.5807 83.9541 65.7143 84.6075L44.2857 89.2857C44.2857 89.2857 46.13 86.3639 46.13 81.4285H65.3464Z" fill="#828282"/>
<rect x="7.14285" y="32.8571" width="90" height="40.7143" fill="white"/>
<path fill-rule="evenodd" clip-rule="evenodd" d="M97.1429 30.4614C97.1429 29.5812 96.7877 28.7372 96.1555 28.1148C95.5234 27.4925 94.6659 27.1428 93.7719 27.1428H10.5138C8.65208 27.1428 7.14285 28.6286 7.14285 30.4614V32.8571H97.1429V30.4614Z" fill="#F94F24"/>
<path fill-rule="evenodd" clip-rule="evenodd" d="M12.8571 30.7142C12.4626 30.7142 12.1429 30.3944 12.1429 30C12.1429 29.6055 12.4626 29.2857 12.8571 29.2857C13.2512 29.2868 13.5703 29.6059 13.5714 30C13.5714 30.3944 13.2516 30.7142 12.8571 30.7142Z" fill="white"/>
<path fill-rule="evenodd" clip-rule="evenodd" d="M18.8448 30.6599C18.5779 30.7704 18.2707 30.7093 18.0664 30.505C17.8621 30.3007 17.801 29.9935 17.9115 29.7266C18.0221 29.4597 18.2825 29.2857 18.5714 29.2857C18.9659 29.2857 19.2857 29.6055 19.2857 30C19.2857 30.2888 19.1117 30.5493 18.8448 30.6599Z" fill="white"/>
<path fill-rule="evenodd" clip-rule="evenodd" d="M24.5586 30.6601C24.2914 30.7705 23.984 30.709 23.7799 30.5043C23.5758 30.2996 23.5152 29.992 23.6264 29.7252C23.7376 29.4583 23.9987 29.2848 24.2878 29.2857C24.6815 29.2868 25 29.6063 25 30C25 30.289 24.8257 30.5496 24.5586 30.6601Z" fill="white"/>
<path fill-rule="evenodd" clip-rule="evenodd" d="M15.13 40.7143C14.6637 40.7143 14.2857 40.3945 14.2857 40C14.2857 39.6055 14.6637 39.2858 15.13 39.2858H41.2986C41.7648 39.2858 42.1428 39.6055 42.1428 40C42.1428 40.3945 41.7648 40.7143 41.2986 40.7143H15.13Z" fill="#D7D7D7"/>
<path d="M50.5634 45.2389C50.0461 45.2389 49.6434 45.0095 49.3554 44.5509C49.0674 44.0922 48.9234 43.4335 48.9234 42.5749C48.9234 41.7162 49.0674 41.0629 49.3554 40.6149C49.6434 40.1669 50.0461 39.9429 50.5634 39.9429C51.0754 39.9429 51.4754 40.1669 51.7634 40.6149C52.0514 41.0629 52.1954 41.7162 52.1954 42.5749C52.1954 43.4335 52.0514 44.0922 51.7634 44.5509C51.4754 45.0095 51.0754 45.2389 50.5634 45.2389ZM50.5634 44.7109C50.7128 44.7109 50.8461 44.6709 50.9634 44.5909C51.0861 44.5055 51.1901 44.3775 51.2754 44.2069C51.3661 44.0309 51.4354 43.8095 51.4834 43.5429C51.5314 43.2709 51.5554 42.9482 51.5554 42.5749C51.5554 42.2015 51.5314 41.8815 51.4834 41.6149C51.4354 41.3482 51.3661 41.1322 51.2754 40.9669C51.1901 40.7962 51.0861 40.6709 50.9634 40.5909C50.8461 40.5109 50.7128 40.4709 50.5634 40.4709C50.4141 40.4709 50.2781 40.5109 50.1554 40.5909C50.0328 40.6709 49.9261 40.7962 49.8354 40.9669C49.7501 41.1322 49.6834 41.3482 49.6354 41.6149C49.5874 41.8815 49.5634 42.2015 49.5634 42.5749C49.5634 43.3215 49.6541 43.8655 49.8354 44.2069C50.0221 44.5429 50.2648 44.7109 50.5634 44.7109ZM54.0689 45.1429V44.5989H55.2369V40.8389H54.3089V40.4149C54.5435 40.3722 54.7462 40.3215 54.9169 40.2629C55.0929 40.1989 55.2502 40.1242 55.3889 40.0389H55.8929V44.5989H56.9489V45.1429H54.0689ZM60.2943 45.2389C59.777 45.2389 59.3743 45.0095 59.0863 44.5509C58.7983 44.0922 58.6543 43.4335 58.6543 42.5749C58.6543 41.7162 58.7983 41.0629 59.0863 40.6149C59.3743 40.1669 59.777 39.9429 60.2943 39.9429C60.8063 39.9429 61.2063 40.1669 61.4943 40.6149C61.7823 41.0629 61.9263 41.7162 61.9263 42.5749C61.9263 43.4335 61.7823 44.0922 61.4943 44.5509C61.2063 45.0095 60.8063 45.2389 60.2943 45.2389ZM60.2943 44.7109C60.4437 44.7109 60.577 44.6709 60.6943 44.5909C60.817 44.5055 60.921 44.3775 61.0063 44.2069C61.097 44.0309 61.1663 43.8095 61.2143 43.5429C61.2623 43.2709 61.2863 42.9482 61.2863 42.5749C61.2863 42.2015 61.2623 41.8815 61.2143 41.6149C61.1663 41.3482 61.097 41.1322 61.0063 40.9669C60.921 40.7962 60.817 40.6709 60.6943 40.5909C60.577 40.5109 60.4437 40.4709 60.2943 40.4709C60.145 40.4709 60.009 40.5109 59.8863 40.5909C59.7637 40.6709 59.657 40.7962 59.5663 40.9669C59.481 41.1322 59.4143 41.3482 59.3663 41.6149C59.3183 41.8815 59.2943 42.2015 59.2943 42.5749C59.2943 43.3215 59.385 43.8655 59.5663 44.2069C59.753 44.5429 59.9957 44.7109 60.2943 44.7109ZM63.7998 45.1429V44.5989H64.9678V40.8389H64.0398V40.4149C64.2744 40.3722 64.4771 40.3215 64.6478 40.2629C64.8238 40.1989 64.9811 40.1242 65.1198 40.0389H65.6238V44.5989H66.6798V45.1429H63.7998ZM70.0252 45.2389C69.5079 45.2389 69.1052 45.0095 68.8172 44.5509C68.5292 44.0922 68.3852 43.4335 68.3852 42.5749C68.3852 41.7162 68.5292 41.0629 68.8172 40.6149C69.1052 40.1669 69.5079 39.9429 70.0252 39.9429C70.5372 39.9429 70.9372 40.1669 71.2252 40.6149C71.5132 41.0629 71.6572 41.7162 71.6572 42.5749C71.6572 43.4335 71.5132 44.0922 71.2252 44.5509C70.9372 45.0095 70.5372 45.2389 70.0252 45.2389ZM70.0252 44.7109C70.1746 44.7109 70.3079 44.6709 70.4252 44.5909C70.5479 44.5055 70.6519 44.3775 70.7372 44.2069C70.8279 44.0309 70.8972 43.8095 70.9452 43.5429C70.9932 43.2709 71.0172 42.9482 71.0172 42.5749C71.0172 42.2015 70.9932 41.8815 70.9452 41.6149C70.8972 41.3482 70.8279 41.1322 70.7372 40.9669C70.6519 40.7962 70.5479 40.6709 70.4252 40.5909C70.3079 40.5109 70.1746 40.4709 70.0252 40.4709C69.8759 40.4709 69.7399 40.5109 69.6172 40.5909C69.4946 40.6709 69.3879 40.7962 69.2972 40.9669C69.2119 41.1322 69.1452 41.3482 69.0972 41.6149C69.0492 41.8815 69.0252 42.2015 69.0252 42.5749C69.0252 43.3215 69.1159 43.8655 69.2972 44.2069C69.4839 44.5429 69.7266 44.7109 70.0252 44.7109ZM73.5307 45.1429V44.5989H74.6987V40.8389H73.7707V40.4149C74.0054 40.3722 74.208 40.3215 74.3787 40.2629C74.5547 40.1989 74.712 40.1242 74.8507 40.0389H75.3547V44.5989H76.4107V45.1429H73.5307ZM78.3961 45.1429V44.5989H79.5641V40.8389H78.6361V40.4149C78.8708 40.3722 79.0735 40.3215 79.2441 40.2629C79.4201 40.1989 79.5775 40.1242 79.7161 40.0389H80.2201V44.5989H81.2761V45.1429H78.3961ZM83.2616 45.1429V44.5989H84.4296V40.8389H83.5016V40.4149C83.7363 40.3722 83.9389 40.3215 84.1096 40.2629C84.2856 40.1989 84.4429 40.1242 84.5816 40.0389H85.0856V44.5989H86.1416V45.1429H83.2616ZM50.5634 55.2389C50.0461 55.2389 49.6434 55.0095 49.3554 54.5509C49.0674 54.0922 48.9234 53.4335 48.9234 52.5749C48.9234 51.7162 49.0674 51.0629 49.3554 50.6149C49.6434 50.1669 50.0461 49.9429 50.5634 49.9429C51.0754 49.9429 51.4754 50.1669 51.7634 50.6149C52.0514 51.0629 52.1954 51.7162 52.1954 52.5749C52.1954 53.4335 52.0514 54.0922 51.7634 54.5509C51.4754 55.0095 51.0754 55.2389 50.5634 55.2389ZM50.5634 54.7109C50.7128 54.7109 50.8461 54.6709 50.9634 54.5909C51.0861 54.5055 51.1901 54.3775 51.2754 54.2069C51.3661 54.0309 51.4354 53.8095 51.4834 53.5429C51.5314 53.2709 51.5554 52.9482 51.5554 52.5749C51.5554 52.2015 51.5314 51.8815 51.4834 51.6149C51.4354 51.3482 51.3661 51.1322 51.2754 50.9669C51.1901 50.7962 51.0861 50.6709 50.9634 50.5909C50.8461 50.5109 50.7128 50.4709 50.5634 50.4709C50.4141 50.4709 50.2781 50.5109 50.1554 50.5909C50.0328 50.6709 49.9261 50.7962 49.8354 50.9669C49.7501 51.1322 49.6834 51.3482 49.6354 51.6149C49.5874 51.8815 49.5634 52.2015 49.5634 52.5749C49.5634 53.3215 49.6541 53.8655 49.8354 54.2069C50.0221 54.5429 50.2648 54.7109 50.5634 54.7109ZM54.0689 55.1429V54.5989H55.2369V50.8389H54.3089V50.4149C54.5435 50.3722 54.7462 50.3215 54.9169 50.2629C55.0929 50.1989 55.2502 50.1242 55.3889 50.0389H55.8929V54.5989H56.9489V55.1429H54.0689ZM58.9343 55.1429V54.5989H60.1023V50.8389H59.1743V50.4149C59.409 50.3722 59.6117 50.3215 59.7823 50.2629C59.9583 50.1989 60.1157 50.1242 60.2543 50.0389H60.7583V54.5989H61.8143V55.1429H58.9343ZM65.1598 55.2389C64.6424 55.2389 64.2398 55.0095 63.9518 54.5509C63.6638 54.0922 63.5198 53.4335 63.5198 52.5749C63.5198 51.7162 63.6638 51.0629 63.9518 50.6149C64.2398 50.1669 64.6424 49.9429 65.1598 49.9429C65.6718 49.9429 66.0718 50.1669 66.3598 50.6149C66.6478 51.0629 66.7918 51.7162 66.7918 52.5749C66.7918 53.4335 66.6478 54.0922 66.3598 54.5509C66.0718 55.0095 65.6718 55.2389 65.1598 55.2389ZM65.1598 54.7109C65.3091 54.7109 65.4424 54.6709 65.5598 54.5909C65.6824 54.5055 65.7864 54.3775 65.8718 54.2069C65.9624 54.0309 66.0318 53.8095 66.0798 53.5429C66.1278 53.2709 66.1518 52.9482 66.1518 52.5749C66.1518 52.2015 66.1278 51.8815 66.0798 51.6149C66.0318 51.3482 65.9624 51.1322 65.8718 50.9669C65.7864 50.7962 65.6824 50.6709 65.5598 50.5909C65.4424 50.5109 65.3091 50.4709 65.1598 50.4709C65.0104 50.4709 64.8744 50.5109 64.7518 50.5909C64.6291 50.6709 64.5224 50.7962 64.4318 50.9669C64.3464 51.1322 64.2798 51.3482 64.2318 51.6149C64.1838 51.8815 64.1598 52.2015 64.1598 52.5749C64.1598 53.3215 64.2504 53.8655 64.4318 54.2069C64.6184 54.5429 64.8611 54.7109 65.1598 54.7109ZM70.0252 55.2389C69.5079 55.2389 69.1052 55.0095 68.8172 54.5509C68.5292 54.0922 68.3852 53.4335 68.3852 52.5749C68.3852 51.7162 68.5292 51.0629 68.8172 50.6149C69.1052 50.1669 69.5079 49.9429 70.0252 49.9429C70.5372 49.9429 70.9372 50.1669 71.2252 50.6149C71.5132 51.0629 71.6572 51.7162 71.6572 52.5749C71.6572 53.4335 71.5132 54.0922 71.2252 54.5509C70.9372 55.0095 70.5372 55.2389 70.0252 55.2389ZM70.0252 54.7109C70.1746 54.7109 70.3079 54.6709 70.4252 54.5909C70.5479 54.5055 70.6519 54.3775 70.7372 54.2069C70.8279 54.0309 70.8972 53.8095 70.9452 53.5429C70.9932 53.2709 71.0172 52.9482 71.0172 52.5749C71.0172 52.2015 70.9932 51.8815 70.9452 51.6149C70.8972 51.3482 70.8279 51.1322 70.7372 50.9669C70.6519 50.7962 70.5479 50.6709 70.4252 50.5909C70.3079 50.5109 70.1746 50.4709 70.0252 50.4709C69.8759 50.4709 69.7399 50.5109 69.6172 50.5909C69.4946 50.6709 69.3879 50.7962 69.2972 50.9669C69.2119 51.1322 69.1452 51.3482 69.0972 51.6149C69.0492 51.8815 69.0252 52.2015 69.0252 52.5749C69.0252 53.3215 69.1159 53.8655 69.2972 54.2069C69.4839 54.5429 69.7266 54.7109 70.0252 54.7109ZM73.5307 55.1429V54.5989H74.6987V50.8389H73.7707V50.4149C74.0054 50.3722 74.208 50.3215 74.3787 50.2629C74.5547 50.1989 74.712 50.1242 74.8507 50.0389H75.3547V54.5989H76.4107V55.1429H73.5307ZM79.7561 55.2389C79.2388 55.2389 78.8361 55.0095 78.5481 54.5509C78.2601 54.0922 78.1161 53.4335 78.1161 52.5749C78.1161 51.7162 78.2601 51.0629 78.5481 50.6149C78.8361 50.1669 79.2388 49.9429 79.7561 49.9429C80.2681 49.9429 80.6681 50.1669 80.9561 50.6149C81.2441 51.0629 81.3881 51.7162 81.3881 52.5749C81.3881 53.4335 81.2441 54.0922 80.9561 54.5509C80.6681 55.0095 80.2681 55.2389 79.7561 55.2389ZM79.7561 54.7109C79.9055 54.7109 80.0388 54.6709 80.1561 54.5909C80.2788 54.5055 80.3828 54.3775 80.4681 54.2069C80.5588 54.0309 80.6281 53.8095 80.6761 53.5429C80.7241 53.2709 80.7481 52.9482 80.7481 52.5749C80.7481 52.2015 80.7241 51.8815 80.6761 51.6149C80.6281 51.3482 80.5588 51.1322 80.4681 50.9669C80.3828 50.7962 80.2788 50.6709 80.1561 50.5909C80.0388 50.5109 79.9055 50.4709 79.7561 50.4709C79.6068 50.4709 79.4708 50.5109 79.3481 50.5909C79.2255 50.6709 79.1188 50.7962 79.0281 50.9669C78.9428 51.1322 78.8761 51.3482 78.8281 51.6149C78.7801 51.8815 78.7561 52.2015 78.7561 52.5749C78.7561 53.3215 78.8468 53.8655 79.0281 54.2069C79.2148 54.5429 79.4575 54.7109 79.7561 54.7109ZM83.2616 55.1429V54.5989H84.4296V50.8389H83.5016V50.4149C83.7363 50.3722 83.9389 50.3215 84.1096 50.2629C84.2856 50.1989 84.4429 50.1242 84.5816 50.0389H85.0856V54.5989H86.1416V55.1429H83.2616ZM50.5634 65.2389C50.0461 65.2389 49.6434 65.0095 49.3554 64.5509C49.0674 64.0922 48.9234 63.4335 48.9234 62.5749C48.9234 61.7162 49.0674 61.0629 49.3554 60.6149C49.6434 60.1669 50.0461 59.9429 50.5634 59.9429C51.0754 59.9429 51.4754 60.1669 51.7634 60.6149C52.0514 61.0629 52.1954 61.7162 52.1954 62.5749C52.1954 63.4335 52.0514 64.0922 51.7634 64.5509C51.4754 65.0095 51.0754 65.2389 50.5634 65.2389ZM50.5634 64.7109C50.7128 64.7109 50.8461 64.6709 50.9634 64.5909C51.0861 64.5055 51.1901 64.3775 51.2754 64.2069C51.3661 64.0309 51.4354 63.8095 51.4834 63.5429C51.5314 63.2709 51.5554 62.9482 51.5554 62.5749C51.5554 62.2015 51.5314 61.8815 51.4834 61.6149C51.4354 61.3482 51.3661 61.1322 51.2754 60.9669C51.1901 60.7962 51.0861 60.6709 50.9634 60.5909C50.8461 60.5109 50.7128 60.4709 50.5634 60.4709C50.4141 60.4709 50.2781 60.5109 50.1554 60.5909C50.0328 60.6709 49.9261 60.7962 49.8354 60.9669C49.7501 61.1322 49.6834 61.3482 49.6354 61.6149C49.5874 61.8815 49.5634 62.2015 49.5634 62.5749C49.5634 63.3215 49.6541 63.8655 49.8354 64.2069C50.0221 64.5429 50.2648 64.7109 50.5634 64.7109ZM54.0689 65.1429V64.5989H55.2369V60.8389H54.3089V60.4149C54.5435 60.3722 54.7462 60.3215 54.9169 60.2629C55.0929 60.1989 55.2502 60.1242 55.3889 60.0389H55.8929V64.5989H56.9489V65.1429H54.0689ZM58.9343 65.1429V64.5989H60.1023V60.8389H59.1743V60.4149C59.409 60.3722 59.6117 60.3215 59.7823 60.2629C59.9583 60.1989 60.1157 60.1242 60.2543 60.0389H60.7583V64.5989H61.8143V65.1429H58.9343ZM65.1598 65.2389C64.6424 65.2389 64.2398 65.0095 63.9518 64.5509C63.6638 64.0922 63.5198 63.4335 63.5198 62.5749C63.5198 61.7162 63.6638 61.0629 63.9518 60.6149C64.2398 60.1669 64.6424 59.9429 65.1598 59.9429C65.6718 59.9429 66.0718 60.1669 66.3598 60.6149C66.6478 61.0629 66.7918 61.7162 66.7918 62.5749C66.7918 63.4335 66.6478 64.0922 66.3598 64.5509C66.0718 65.0095 65.6718 65.2389 65.1598 65.2389ZM65.1598 64.7109C65.3091 64.7109 65.4424 64.6709 65.5598 64.5909C65.6824 64.5055 65.7864 64.3775 65.8718 64.2069C65.9624 64.0309 66.0318 63.8095 66.0798 63.5429C66.1278 63.2709 66.1518 62.9482 66.1518 62.5749C66.1518 62.2015 66.1278 61.8815 66.0798 61.6149C66.0318 61.3482 65.9624 61.1322 65.8718 60.9669C65.7864 60.7962 65.6824 60.6709 65.5598 60.5909C65.4424 60.5109 65.3091 60.4709 65.1598 60.4709C65.0104 60.4709 64.8744 60.5109 64.7518 60.5909C64.6291 60.6709 64.5224 60.7962 64.4318 60.9669C64.3464 61.1322 64.2798 61.3482 64.2318 61.6149C64.1838 61.8815 64.1598 62.2015 64.1598 62.5749C64.1598 63.3215 64.2504 63.8655 64.4318 64.2069C64.6184 64.5429 64.8611 64.7109 65.1598 64.7109ZM70.0252 65.2389C69.5079 65.2389 69.1052 65.0095 68.8172 64.5509C68.5292 64.0922 68.3852 63.4335 68.3852 62.5749C68.3852 61.7162 68.5292 61.0629 68.8172 60.6149C69.1052 60.1669 69.5079 59.9429 70.0252 59.9429C70.5372 59.9429 70.9372 60.1669 71.2252 60.6149C71.5132 61.0629 71.6572 61.7162 71.6572 62.5749C71.6572 63.4335 71.5132 64.0922 71.2252 64.5509C70.9372 65.0095 70.5372 65.2389 70.0252 65.2389ZM70.0252 64.7109C70.1746 64.7109 70.3079 64.6709 70.4252 64.5909C70.5479 64.5055 70.6519 64.3775 70.7372 64.2069C70.8279 64.0309 70.8972 63.8095 70.9452 63.5429C70.9932 63.2709 71.0172 62.9482 71.0172 62.5749C71.0172 62.2015 70.9932 61.8815 70.9452 61.6149C70.8972 61.3482 70.8279 61.1322 70.7372 60.9669C70.6519 60.7962 70.5479 60.6709 70.4252 60.5909C70.3079 60.5109 70.1746 60.4709 70.0252 60.4709C69.8759 60.4709 69.7399 60.5109 69.6172 60.5909C69.4946 60.6709 69.3879 60.7962 69.2972 60.9669C69.2119 61.1322 69.1452 61.3482 69.0972 61.6149C69.0492 61.8815 69.0252 62.2015 69.0252 62.5749C69.0252 63.3215 69.1159 63.8655 69.2972 64.2069C69.4839 64.5429 69.7266 64.7109 70.0252 64.7109ZM74.8907 65.2389C74.3734 65.2389 73.9707 65.0095 73.6827 64.5509C73.3947 64.0922 73.2507 63.4335 73.2507 62.5749C73.2507 61.7162 73.3947 61.0629 73.6827 60.6149C73.9707 60.1669 74.3734 59.9429 74.8907 59.9429C75.4027 59.9429 75.8027 60.1669 76.0907 60.6149C76.3787 61.0629 76.5227 61.7162 76.5227 62.5749C76.5227 63.4335 76.3787 64.0922 76.0907 64.5509C75.8027 65.0095 75.4027 65.2389 74.8907 65.2389ZM74.8907 64.7109C75.04 64.7109 75.1734 64.6709 75.2907 64.5909C75.4134 64.5055 75.5174 64.3775 75.6027 64.2069C75.6934 64.0309 75.7627 63.8095 75.8107 63.5429C75.8587 63.2709 75.8827 62.9482 75.8827 62.5749C75.8827 62.2015 75.8587 61.8815 75.8107 61.6149C75.7627 61.3482 75.6934 61.1322 75.6027 60.9669C75.5174 60.7962 75.4134 60.6709 75.2907 60.5909C75.1734 60.5109 75.04 60.4709 74.8907 60.4709C74.7414 60.4709 74.6054 60.5109 74.4827 60.5909C74.36 60.6709 74.2534 60.7962 74.1627 60.9669C74.0774 61.1322 74.0107 61.3482 73.9627 61.6149C73.9147 61.8815 73.8907 62.2015 73.8907 62.5749C73.8907 63.3215 73.9814 63.8655 74.1627 64.2069C74.3494 64.5429 74.592 64.7109 74.8907 64.7109ZM78.3961 65.1429V64.5989H79.5641V60.8389H78.6361V60.4149C78.8708 60.3722 79.0735 60.3215 79.2441 60.2629C79.4201 60.1989 79.5775 60.1242 79.7161 60.0389H80.2201V64.5989H81.2761V65.1429H78.3961ZM84.6216 65.2389C84.1043 65.2389 83.7016 65.0095 83.4136 64.5509C83.1256 64.0922 82.9816 63.4335 82.9816 62.5749C82.9816 61.7162 83.1256 61.0629 83.4136 60.6149C83.7016 60.1669 84.1043 59.9429 84.6216 59.9429C85.1336 59.9429 85.5336 60.1669 85.8216 60.6149C86.1096 61.0629 86.2536 61.7162 86.2536 62.5749C86.2536 63.4335 86.1096 64.0922 85.8216 64.5509C85.5336 65.0095 85.1336 65.2389 84.6216 65.2389ZM84.6216 64.7109C84.7709 64.7109 84.9043 64.6709 85.0216 64.5909C85.1443 64.5055 85.2483 64.3775 85.3336 64.2069C85.4243 64.0309 85.4936 63.8095 85.5416 63.5429C85.5896 63.2709 85.6136 62.9482 85.6136 62.5749C85.6136 62.2015 85.5896 61.8815 85.5416 61.6149C85.4936 61.3482 85.4243 61.1322 85.3336 60.9669C85.2483 60.7962 85.1443 60.6709 85.0216 60.5909C84.9043 60.5109 84.7709 60.4709 84.6216 60.4709C84.4723 60.4709 84.3363 60.5109 84.2136 60.5909C84.0909 60.6709 83.9843 60.7962 83.8936 60.9669C83.8083 61.1322 83.7416 61.3482 83.6936 61.6149C83.6456 61.8815 83.6216 62.2015 83.6216 62.5749C83.6216 63.3215 83.7123 63.8655 83.8936 64.2069C84.0803 64.5429 84.3229 64.7109 84.6216 64.7109Z" fill="#D7D7D7"/>
<path fill-rule="evenodd" clip-rule="evenodd" d="M15.0824 45.7133C14.6358 45.6935 14.2857 45.38 14.2857 45C14.2857 44.62 14.6358 44.3066 15.0824 44.2867H29.8297C30.1401 44.2729 30.4342 44.4058 30.5942 44.6322C30.7543 44.8585 30.7543 45.1415 30.5942 45.3679C30.4342 45.5943 30.1401 45.7271 29.8297 45.7133H15.0824Z" fill="#D7D7D7"/>
<path fill-rule="evenodd" clip-rule="evenodd" d="M14.7414 52.1419C14.5827 52.1518 14.4308 52.0861 14.3479 51.9719C14.265 51.8576 14.265 51.7139 14.3479 51.5996C14.4308 51.4853 14.5827 51.4197 14.7414 51.4296H40.9729C41.1316 51.4197 41.2835 51.4853 41.3664 51.5996C41.4493 51.7139 41.4493 51.8576 41.3664 51.9719C41.2835 52.0861 41.1316 52.1518 40.9729 52.1419H14.7414Z" fill="#D7D7D7"/>
<path fill-rule="evenodd" clip-rule="evenodd" d="M14.7414 57.1419C14.5827 57.1518 14.4308 57.0861 14.3479 56.9719C14.265 56.8576 14.265 56.7139 14.3479 56.5996C14.4308 56.4853 14.5827 56.4197 14.7414 56.4296H40.9729C41.1316 56.4197 41.2835 56.4853 41.3664 56.5996C41.4493 56.7139 41.4493 56.8576 41.3664 56.9719C41.2835 57.0861 41.1316 57.1518 40.9729 57.1419H14.7414Z" fill="#D7D7D7"/>
<path fill-rule="evenodd" clip-rule="evenodd" d="M14.7414 62.1419C14.5827 62.1518 14.4308 62.0861 14.3479 61.9719C14.265 61.8576 14.265 61.7139 14.3479 61.5996C14.4308 61.4853 14.5827 61.4197 14.7414 61.4296H40.9729C41.1316 61.4197 41.2835 61.4853 41.3664 61.5996C41.4493 61.7139 41.4493 61.8576 41.3664 61.9719C41.2835 62.0861 41.1316 62.1518 40.9729 62.1419H14.7414Z" fill="#D7D7D7"/>
<path fill-rule="evenodd" clip-rule="evenodd" d="M14.7327 66.4276C14.5771 66.4375 14.4281 66.3719 14.3467 66.2576C14.2654 66.1433 14.2654 65.9996 14.3467 65.8853C14.4281 65.771 14.5771 65.7054 14.7327 65.7153H26.7573C26.9747 65.7291 27.1428 65.8844 27.1428 66.0715C27.1428 66.2585 26.9747 66.4138 26.7573 66.4276H14.7327Z" fill="#D7D7D7"/>
<g style="mix-blend-mode:screen" opacity="0.1">
<path fill-rule="evenodd" clip-rule="evenodd" d="M107.857 51.788C107.857 51.788 92.5013 71.262 53.9286 54.0697C15.3558 36.8773 0 54.0697 0 54.0697V73.5715H107.857V51.788Z" fill="#E5E5E5"/>
</g>
<g style="mix-blend-mode:multiply">
<rect y="72.8572" width="107.857" height="0.714286" fill="#E5E5E5"/>
</g>
<g style="mix-blend-mode:multiply">
<path fill-rule="evenodd" clip-rule="evenodd" d="M83.9302 35.4654C78.6899 43.3971 78.6899 53.7458 83.9302 61.6776C89.1706 69.6093 98.617 73.5587 107.857 71.6811V25.4618C98.617 23.5842 89.1706 27.5337 83.9302 35.4654Z" fill="#E5E5E5"/>
</g>
<path fill-rule="evenodd" clip-rule="evenodd" d="M106.786 26.6428C119.094 26.6428 129.071 36.6205 129.071 48.9285C129.071 61.2366 119.094 71.2143 106.786 71.2143C94.4777 71.2143 84.5 61.2366 84.5 48.9285C84.5 36.6205 94.4777 26.6428 106.786 26.6428ZM83.5714 48.9286C83.5714 61.7495 93.9648 72.1429 106.786 72.1429C119.607 72.1429 130 61.7495 130 48.9286C129.987 36.113 119.601 25.7271 106.786 25.7143C93.9648 25.7143 83.5714 36.1077 83.5714 48.9286Z" fill="white"/>
<g clip-path="url(#clip0)">
<mask id="mask0" mask-type="alpha" maskUnits="userSpaceOnUse" x="52" y="27" width="78" height="45">
<rect x="52.95" y="27.1428" width="76.3357" height="44.2857" fill="white"/>
</mask>
<g mask="url(#mask0)">
<path fill-rule="evenodd" clip-rule="evenodd" d="M64.228 33.3206L70.0757 31.5102L73.0825 32.1457L70.5682 34.9799L67.4082 34.448L70.422 35.743L70.1934 36.9294L71.7561 37.2598L71.11 40.6148L69.5466 40.2845L69.318 41.4709L66.0605 41.4395L69.1696 42.2332L70.4374 45.8671L67.4304 45.231L62.7118 41.1863C54.5415 39.2769 53.1617 35.0742 53.1617 35.0742C53.1617 35.0742 55.9907 31.7611 64.228 33.3206Z" fill="#713EB5"/>
<path d="M59.3319 34.3735C58.9779 34.2591 58.6633 34.0912 58.388 33.8698C58.1146 33.6427 57.8968 33.3705 57.7345 33.0532C57.5779 32.7378 57.4883 32.3809 57.4657 31.9827C57.4449 31.5787 57.5102 31.1427 57.6615 30.6745C57.811 30.2121 58.0152 29.8241 58.2742 29.5105C58.535 29.1913 58.8259 28.9448 59.1469 28.7711C59.4679 28.5974 59.8095 28.4965 60.1716 28.4686C60.5338 28.4406 60.8919 28.4838 61.2458 28.5982C61.6055 28.7145 61.9041 28.893 62.1416 29.1337C62.3809 29.3687 62.5634 29.6137 62.689 29.8687L61.7609 30.4578C61.6606 30.2803 61.5434 30.1258 61.4094 29.9942C61.283 29.8587 61.1198 29.7587 60.92 29.6941C60.7316 29.6332 60.5379 29.6179 60.3389 29.6482C60.1475 29.6746 59.9641 29.7446 59.7887 29.8582C59.619 29.9736 59.461 30.1306 59.3149 30.3293C59.1744 30.5298 59.0589 30.7699 58.9685 31.0497C58.7821 31.6263 58.76 32.1141 58.9022 32.5132C59.0462 32.9065 59.3237 33.1696 59.7348 33.3025C59.9631 33.3763 60.1815 33.3933 60.3899 33.3535C60.6058 33.3097 60.8062 33.2358 60.9912 33.1316L61.4046 34.1354C60.7592 34.5322 60.0684 34.6115 59.3319 34.3735ZM62.0201 35.1289L63.8248 29.5453L65.0837 29.9522L63.6222 34.4739L65.8317 35.188L65.4885 36.2499L62.0201 35.1289ZM66.4526 36.5615L68.2573 30.9779L69.5161 31.3848L67.7114 36.9684L66.4526 36.5615Z" fill="white"/>
<path fill-rule="evenodd" clip-rule="evenodd" d="M107.143 71.4285C94.9137 71.4285 85 61.5148 85 49.2857C85 37.0565 94.9137 27.1428 107.143 27.1428C119.372 27.1428 129.286 37.0565 129.286 49.2857C129.286 61.5148 119.372 71.4285 107.143 71.4285Z" fill="url(#paint1_linear)"/>
<path fill-rule="evenodd" clip-rule="evenodd" d="M107.143 71.4285C94.9137 71.4285 85 61.5148 85 49.2857C85 37.0565 94.9137 27.1428 107.143 27.1428C119.372 27.1428 129.286 37.0565 129.286 49.2857C129.286 61.5148 119.372 71.4285 107.143 71.4285Z" fill="url(#paint2_linear)"/>
<mask id="mask1" mask-type="alpha" maskUnits="userSpaceOnUse" x="85" y="27" width="45" height="45">
<path fill-rule="evenodd" clip-rule="evenodd" d="M107.143 71.4285C94.9137 71.4285 85 61.5148 85 49.2857C85 37.0565 94.9137 27.1428 107.143 27.1428C119.372 27.1428 129.286 37.0565 129.286 49.2857C129.286 61.5148 119.372 71.4285 107.143 71.4285Z" fill="white"/>
</mask>
<g mask="url(#mask1)">
<path fill-rule="evenodd" clip-rule="evenodd" d="M99.7836 36.4285C99.5086 36.4285 99.2857 36.2686 99.2857 36.0714C99.2857 35.8741 99.5086 35.7142 99.7836 35.7142H115.216C115.491 35.7142 115.714 35.8741 115.714 36.0714C115.714 36.2686 115.491 36.4285 115.216 36.4285H99.7836Z" fill="white"/>
<path fill-rule="evenodd" clip-rule="evenodd" d="M99.736 39.2852C99.4836 39.2752 99.2857 39.1185 99.2857 38.9285C99.2857 38.7385 99.4836 38.5818 99.736 38.5719H108.071C108.247 38.565 108.413 38.6314 108.504 38.7446C108.594 38.8578 108.594 38.9993 108.504 39.1125C108.413 39.2256 108.247 39.2921 108.071 39.2852H99.736Z" fill="white"/>
<path fill-rule="evenodd" clip-rule="evenodd" d="M99.5495 43.2138C99.4577 43.2187 99.3697 43.1859 99.3217 43.1287C99.2737 43.0716 99.2737 42.9997 99.3217 42.9426C99.3697 42.8855 99.4577 42.8526 99.5495 42.8576H114.736C114.828 42.8526 114.916 42.8855 114.964 42.9426C115.012 42.9997 115.012 43.0716 114.964 43.1287C114.916 43.1859 114.828 43.2187 114.736 43.2138H99.5495Z" fill="white"/>
<path fill-rule="evenodd" clip-rule="evenodd" d="M99.5495 46.0709C99.4577 46.0758 99.3697 46.043 99.3217 45.9859C99.2737 45.9287 99.2737 45.8569 99.3217 45.7998C99.3697 45.7426 99.4577 45.7098 99.5495 45.7147H114.736C114.828 45.7098 114.916 45.7426 114.964 45.7998C115.012 45.8569 115.012 45.9287 114.964 45.9859C114.916 46.043 114.828 46.0758 114.736 46.0709H99.5495Z" fill="white"/>
<path fill-rule="evenodd" clip-rule="evenodd" d="M99.5495 49.2847C99.4577 49.2946 99.3697 49.229 99.3217 49.1147C99.2737 49.0004 99.2737 48.8567 99.3217 48.7424C99.3697 48.6281 99.4577 48.5625 99.5495 48.5724H114.736C114.828 48.5625 114.916 48.6281 114.964 48.7424C115.012 48.8567 115.012 49.0004 114.964 49.1147C114.916 49.229 114.828 49.2946 114.736 49.2847H99.5495Z" fill="white"/>
<path fill-rule="evenodd" clip-rule="evenodd" d="M99.5341 51.4276C99.4476 51.4374 99.3648 51.3718 99.3196 51.2575C99.2744 51.1432 99.2744 50.9995 99.3196 50.8853C99.3648 50.771 99.4476 50.7053 99.5341 50.7152H106.214C106.335 50.729 106.429 50.8844 106.429 51.0714C106.429 51.2584 106.335 51.4137 106.214 51.4276H99.5341Z" fill="white"/>
<path fill-rule="evenodd" clip-rule="evenodd" d="M103.155 56.7214C84.7116 48.379 71.4834 39.2857 71.4834 39.2857L71.4686 39.7067C71.4686 39.7067 107.925 65.2855 111.695 74.1611C116.019 70.9787 131.429 57.7261 131.429 57.7261C131.429 57.7261 121.599 65.0637 103.155 56.7214Z" fill="#9D6FDF"/>
<path fill-rule="evenodd" clip-rule="evenodd" d="M103.155 56.7214C84.7116 48.379 71.4834 39.2857 71.4834 39.2857L71.4686 39.7067C71.4686 39.7067 107.925 65.2855 111.695 74.1611C116.019 70.9787 131.429 57.7261 131.429 57.7261C131.429 57.7261 121.599 65.0637 103.155 56.7214Z" fill="#9D6FDF"/>
<mask id="mask2" mask-type="alpha" maskUnits="userSpaceOnUse" x="71" y="39" width="61" height="36">
<path fill-rule="evenodd" clip-rule="evenodd" d="M103.155 56.7214C84.7116 48.379 71.4834 39.2857 71.4834 39.2857L71.4686 39.7067C71.4686 39.7067 107.925 65.2855 111.695 74.1611C116.019 70.9787 131.429 57.7261 131.429 57.7261C131.429 57.7261 121.599 65.0637 103.155 56.7214Z" fill="white"/>
</mask>
<g mask="url(#mask2)">
<path fill-rule="evenodd" clip-rule="evenodd" d="M119.634 70.1682L110.346 78.257L71.4686 39.7067L119.634 70.1682Z" fill="#F3F0FF"/>
</g>
<path fill-rule="evenodd" clip-rule="evenodd" d="M127.036 49.3452C125.545 49.6806 123.771 51.4792 123.771 51.4792C123.771 51.4792 120.975 49.3093 118.845 50.4498C116.715 51.5899 115.901 54.3383 115.901 54.3383C115.901 54.3383 114.843 54.8045 114.202 55.8823C113.562 56.9597 113.522 58.6335 113.522 58.6335C113.522 58.6335 112.227 57.5401 109.898 58.2841C107.57 59.0281 106.943 62.326 106.943 62.326C106.943 62.326 105.598 62.1647 104.632 62.7445C103.667 63.324 102.82 64.46 102.82 64.46C102.82 64.46 100.823 62.3887 98.007 63.3736C95.1914 64.3581 95 67.5027 95 67.5027V76.4285H130V50.2028C130 50.2028 128.527 49.0095 127.036 49.3452Z" fill="url(#paint3_linear)"/>
<path fill-rule="evenodd" clip-rule="evenodd" d="M121.37 55.0493C120.072 55.3653 119.604 56.7252 119.604 56.7252C119.604 56.7252 118.076 54.9208 116.112 55.6226C114.148 56.3241 113.654 58.6623 113.654 58.6623C113.654 58.6623 112.718 59.2494 112.34 59.9241C111.962 60.5988 111.94 61.8743 111.94 61.8743C111.94 61.8743 110.129 61.0772 108.739 61.8168C107.35 62.5563 106.992 63.9964 106.992 63.9964C106.992 63.9964 106.071 64.1134 105.398 65.0329C104.726 65.9521 104.77 66.3126 104.77 66.3126C104.77 66.3126 103.06 64.5915 100.355 65.4318C97.6496 66.2717 97.8808 68.2979 97.8808 68.2979C97.8808 68.2979 96.9241 69.0317 96.4518 69.7892C95.9798 70.5463 95.9948 71.3376 95.9948 71.3376C95.9948 71.3376 94.3069 71.0203 93.8712 71.3824C93.4355 71.7448 93.6031 77.8571 93.6031 77.8571H124.286V56.0435C124.286 56.0435 122.667 54.7329 121.37 55.0493Z" fill="url(#paint4_linear)"/>
<path fill-rule="evenodd" clip-rule="evenodd" d="M125.655 55.7635C124.357 56.0796 123.889 57.4395 123.889 57.4395C123.889 57.4395 122.362 55.6351 120.398 56.3369C118.434 57.0384 117.94 59.3766 117.94 59.3766C117.94 59.3766 117.004 59.9637 116.626 60.6384C116.247 61.313 116.226 62.5886 116.226 62.5886C116.226 62.5886 114.415 61.7915 113.025 62.531C111.636 63.2706 111.278 64.7107 111.278 64.7107C111.278 64.7107 110.356 64.8277 109.684 65.7472C109.012 66.6663 109.056 67.0268 109.056 67.0268C109.056 67.0268 107.346 65.3058 104.641 66.146C101.935 66.9859 102.166 69.0122 102.166 69.0122C102.166 69.0122 101.21 69.746 100.738 70.5034C100.266 71.2606 100.28 72.0519 100.28 72.0519C100.28 72.0519 98.5926 71.7345 98.1569 72.0966C97.7212 72.4591 97.8888 78.5714 97.8888 78.5714H128.571V56.7578C128.571 56.7578 126.953 55.4471 125.655 55.7635Z" fill="url(#paint5_linear)"/>
</g>
<path fill-rule="evenodd" clip-rule="evenodd" d="M71.0954 39.2857L71.0805 39.7067C71.0805 39.7067 91.6172 54.2006 98.5815 60.5001C102.906 57.3177 107.143 58.2422 102.767 56.7214C98.3916 55.2005 71.0954 39.2857 71.0954 39.2857Z" fill="#9D6FDF"/>
</g>
<path fill-rule="evenodd" clip-rule="evenodd" d="M71.0954 39.2857L71.0805 39.7067C71.0805 39.7067 91.6172 54.2006 98.5815 60.5001C102.906 57.3177 107.143 58.2422 102.767 56.7214C98.3916 55.2005 71.0954 39.2857 71.0954 39.2857Z" fill="#9D6FDF"/>
<mask id="mask3" mask-type="alpha" maskUnits="userSpaceOnUse" x="71" y="39" width="34" height="22">
<path fill-rule="evenodd" clip-rule="evenodd" d="M71.0954 39.2857L71.0805 39.7067C71.0805 39.7067 91.6172 54.2006 98.5815 60.5001C102.906 57.3177 107.143 58.2422 102.767 56.7214C98.3916 55.2005 71.0954 39.2857 71.0954 39.2857Z" fill="white"/>
</mask>
<g mask="url(#mask3)">
<path fill-rule="evenodd" clip-rule="evenodd" d="M112.066 65.2552L107.857 69.2857L70 39.2857L112.066 65.2552Z" fill="#F3F0FF"/>
</g>
</g>
<defs>
<linearGradient id="paint0_linear" x1="-12.818" y1="39.1112" x2="-13.3787" y2="92.2305" gradientUnits="userSpaceOnUse">
<stop stop-color="#8033EB"/>
<stop offset="0.53" stop-color="#D4648E"/>
<stop offset="1" stop-color="#EC7071"/>
</linearGradient>
<linearGradient id="paint1_linear" x1="132.312" y1="90.0654" x2="147.533" y2="54.0856" gradientUnits="userSpaceOnUse">
<stop stop-color="#8033EB"/>
<stop offset="0.53" stop-color="#D4648E"/>
<stop offset="1" stop-color="#EC7071"/>
</linearGradient>
<linearGradient id="paint2_linear" x1="132.312" y1="90.0654" x2="147.533" y2="54.0856" gradientUnits="userSpaceOnUse">
<stop stop-color="#8033EB"/>
<stop offset="0.53" stop-color="#D4648E"/>
<stop offset="1" stop-color="#EC7071"/>
</linearGradient>
<linearGradient id="paint3_linear" x1="118.22" y1="54.014" x2="121.053" y2="61.7456" gradientUnits="userSpaceOnUse">
<stop stop-color="#F6E0FF"/>
<stop offset="1" stop-color="#9E45CA"/>
</linearGradient>
<linearGradient id="paint4_linear" x1="125.894" y1="57.5738" x2="125.001" y2="71.9386" gradientUnits="userSpaceOnUse">
<stop stop-color="#F6E0FF"/>
<stop offset="1" stop-color="#9E45CA"/>
</linearGradient>
<linearGradient id="paint5_linear" x1="121.353" y1="57.2827" x2="125.039" y2="67.1508" gradientUnits="userSpaceOnUse">
<stop stop-color="#F6E0FF"/>
<stop offset="1" stop-color="#9E45CA"/>
</linearGradient>
<clipPath id="clip0">
<rect width="77" height="45" fill="white" transform="translate(52.95 27.1428)"/>
</clipPath>
</defs>
</svg>
