<svg width="141" height="100" viewBox="0 0 141 100" fill="none" xmlns="http://www.w3.org/2000/svg">
<path fill-rule="evenodd" clip-rule="evenodd" d="M55.7173 67.4209C55.7173 64.7601 56.658 62.489 58.5395 60.6075C60.4209 58.726 62.6921 57.7853 65.3529 57.7853H130.7C133.361 57.7853 135.632 58.726 137.514 60.6075C139.395 62.489 140.336 64.7601 140.336 67.4209L140.336 67.9968L140.336 68.5728C140.336 71.2336 139.395 73.5047 137.514 75.3862C135.632 77.2676 133.361 78.2083 130.7 78.2083H65.3529C62.6921 78.2083 60.4209 77.2676 58.5395 75.3862C56.658 73.5047 55.7173 71.2336 55.7173 68.5728V67.9968V67.4209Z" fill="#F2F2F2"/>
<path fill-rule="evenodd" clip-rule="evenodd" d="M65.6876 91.06C65.4634 91.0425 65.2904 90.8555 65.2904 90.6306C65.2904 90.4057 65.4634 90.2187 65.6876 90.2012H67.4778C67.6391 90.1887 67.7939 90.2677 67.8784 90.4057C67.963 90.5437 67.963 90.7175 67.8784 90.8555C67.7939 90.9935 67.6391 91.0725 67.4778 91.06H65.6876ZM60.9114 91.06C60.6871 91.0425 60.5141 90.8555 60.5141 90.6306C60.5141 90.4057 60.6871 90.2187 60.9114 90.2012H62.7015C62.8629 90.1887 63.0176 90.2677 63.1022 90.4057C63.1867 90.5437 63.1867 90.7175 63.1022 90.8555C63.0176 90.9935 62.8629 91.0725 62.7015 91.06H60.9114ZM56.1351 91.06C55.9108 91.0425 55.7378 90.8555 55.7378 90.6306C55.7378 90.4057 55.9108 90.2187 56.1351 90.2012H57.9252C58.0866 90.1887 58.2413 90.2677 58.3259 90.4057C58.4104 90.5437 58.4104 90.7175 58.3259 90.8555C58.2413 90.9935 58.0866 91.0725 57.9252 91.06H56.1351ZM51.3588 91.06C51.1346 91.0425 50.9615 90.8555 50.9615 90.6306C50.9615 90.4057 51.1346 90.2187 51.3588 90.2012H53.1464C53.3077 90.1887 53.4625 90.2677 53.547 90.4057C53.6316 90.5437 53.6316 90.7175 53.547 90.8555C53.4625 90.9935 53.3077 91.0725 53.1464 91.06H53.1489H51.3588ZM46.5826 91.0598C46.3583 91.0423 46.1853 90.8553 46.1853 90.6304C46.1853 90.4055 46.3583 90.2185 46.5826 90.201H48.3753C48.5995 90.2185 48.7726 90.4055 48.7726 90.6304C48.7726 90.8553 48.5995 91.0423 48.3753 91.0598H48.3753H46.5826ZM41.8063 91.0598C41.582 91.0423 41.409 90.8553 41.409 90.6304C41.409 90.4055 41.582 90.2185 41.8063 90.201H43.599C43.8232 90.2185 43.9962 90.4055 43.9962 90.6304C43.9962 90.8553 43.8232 91.0423 43.599 91.0598H41.8063ZM37.03 91.0598C36.8058 91.0423 36.6327 90.8553 36.6327 90.6304C36.6327 90.4055 36.8058 90.2185 37.03 90.201H38.8227C39.0469 90.2185 39.22 90.4055 39.22 90.6304C39.22 90.8553 39.0469 91.0423 38.8227 91.0598H37.03ZM32.2537 91.0598C32.0295 91.0423 31.8564 90.8553 31.8564 90.6304C31.8564 90.4055 32.0295 90.2185 32.2537 90.201H34.0464C34.2706 90.2185 34.4437 90.4055 34.4437 90.6304C34.4437 90.8553 34.2706 91.0423 34.0464 91.0598H32.2537ZM27.4774 91.0598C27.2532 91.0423 27.0802 90.8553 27.0802 90.6304C27.0802 90.4055 27.2532 90.2185 27.4774 90.201H29.278C29.5022 90.2185 29.6752 90.4055 29.6752 90.6304C29.6752 90.8553 29.5022 91.0423 29.278 91.0598H29.2702H27.4774ZM22.7038 91.06C22.5424 91.0725 22.3876 90.9935 22.3031 90.8555C22.2186 90.7175 22.2186 90.5437 22.3031 90.4057C22.3876 90.2677 22.5424 90.1887 22.7038 90.2012H24.4939C24.7181 90.2187 24.8912 90.4057 24.8912 90.6306C24.8912 90.8555 24.7181 91.0425 24.4939 91.06H22.7038ZM17.9275 91.06C17.7662 91.0725 17.6114 90.9935 17.5269 90.8555C17.4423 90.7175 17.4423 90.5437 17.5269 90.4057C17.6114 90.2677 17.7662 90.1887 17.9275 90.2012H19.7177C19.9419 90.2187 20.1149 90.4057 20.1149 90.6306C20.1149 90.8555 19.9419 91.0425 19.7177 91.06H17.9275ZM13.1512 91.0599C12.9898 91.0724 12.8351 90.9934 12.7505 90.8554C12.666 90.7174 12.666 90.5436 12.7505 90.4056C12.8351 90.2675 12.9898 90.1886 13.1512 90.2011H14.9413C15.1656 90.2186 15.3386 90.4056 15.3386 90.6305C15.3386 90.8554 15.1656 91.0424 14.9413 91.0599H13.1512Z" fill="#F94F24"/>
<path fill-rule="evenodd" clip-rule="evenodd" d="M0.00276184 34.0077C0.00276184 31.347 0.943492 29.0758 2.82495 27.1944C4.70642 25.3129 6.97754 24.3722 9.63833 24.3722H74.9859C77.6466 24.3722 79.9178 25.3129 81.7992 27.1944C83.6807 29.0758 84.6214 31.347 84.6214 34.0077L84.6214 34.5837L84.6214 35.1597C84.6214 37.8204 83.6807 40.0916 81.7992 41.973C79.9178 43.8545 77.6466 44.7952 74.9859 44.7952H9.63833C6.97754 44.7952 4.70642 43.8545 2.82495 41.973C0.943492 40.0916 0.00276184 37.8204 0.00276184 35.1597V34.5837V34.0077Z" fill="#F2F2F2"/>
<g style="mix-blend-mode:multiply">
<rect x="28.4659" y="19.7957" width="85.7291" height="77.4124" fill="#E5E5E5"/>
</g>
<rect x="25.4719" y="16.6562" width="85.729" height="77.9944" fill="url(#paint0_linear)"/>
<path fill-rule="evenodd" clip-rule="evenodd" d="M45.9832 47.1483C45.018 47.1469 44.236 46.3648 44.2346 45.3997V44.1907C44.236 43.2255 45.0181 42.4435 45.9832 42.4421H59.4247C60.3898 42.4435 61.1719 43.2255 61.1733 44.1907V45.4075C61.1676 46.3696 60.3868 47.1469 59.4247 47.1483L59.4247 47.1483H45.9832ZM44.7171 44.1906V45.4074C44.7185 46.106 45.2845 46.672 45.9832 46.6735H59.4247C60.1234 46.6721 60.6894 46.1061 60.6908 45.4074V44.1984C60.6894 43.4998 60.1234 42.9338 59.4248 42.9324L45.9832 42.9246C45.2846 42.926 44.7186 43.492 44.7171 44.1906Z" fill="#E5E5E5"/>
<path fill-rule="evenodd" clip-rule="evenodd" d="M57.0664 59.7546C52.6326 59.7546 52.5833 55.3156 52.5833 55.2715V46.9072H53.0659V55.2663C53.0659 55.4297 53.1204 59.2668 57.0664 59.2668H61.3083V59.7546H57.0664Z" fill="#E5E5E5"/>
<path fill-rule="evenodd" clip-rule="evenodd" d="M61.3284 60.8406C60.7915 59.5444 61.0883 58.0525 62.0803 57.0604C63.0724 56.0684 64.5643 55.7716 65.8605 56.3085C67.1567 56.8454 68.0018 58.1102 68.0018 59.5132C68.0003 61.4284 66.4481 62.9805 64.533 62.9819H64.5331C63.1301 62.9819 61.8653 62.1367 61.3284 60.8406ZM61.5469 59.513C61.5469 61.1622 62.8839 62.4992 64.5331 62.4992C66.1823 62.4992 67.5192 61.1622 67.5192 59.513C67.5177 57.8643 66.1816 56.5282 64.5329 56.5269H64.5331C62.8839 56.5269 61.5469 57.8638 61.5469 59.513Z" fill="#E5E5E5"/>
<path fill-rule="evenodd" clip-rule="evenodd" d="M49.6179 72.5503C49.0803 71.2539 49.3769 69.7614 50.3693 68.769C51.3616 67.7766 52.8542 67.48 54.1506 68.0176C55.447 68.5551 56.2918 69.8209 56.2907 71.2243C56.2878 73.1374 54.7377 74.6876 52.8246 74.6904H52.8246C51.4212 74.6915 50.1554 73.8467 49.6179 72.5503Z" stroke="#E5E5E5"/>
<rect x="52.5833" y="55.2711" width="0.482554" height="12.7255" fill="#E5E5E5"/>
<path fill-rule="evenodd" clip-rule="evenodd" d="M79.1784 65.2468L74.0415 60.1099C73.8809 59.9497 73.7906 59.7322 73.7906 59.5054C73.7906 59.2785 73.8809 59.061 74.0415 58.9009L79.1784 53.764C79.5159 53.4391 80.0499 53.4391 80.3874 53.764L85.5243 58.8983C85.6849 59.0584 85.7752 59.2759 85.7752 59.5028C85.7752 59.7296 85.6849 59.9471 85.5243 60.1073L80.3874 65.2545C80.2275 65.4157 80.0099 65.5063 79.7829 65.5062V65.5062C79.5547 65.5042 79.337 65.4108 79.1784 65.2468ZM79.5234 54.1116L74.384 59.2511C74.2415 59.3948 74.2415 59.6264 74.384 59.77L79.5234 64.9095C79.6693 65.0466 79.8965 65.0466 80.0423 64.9095L85.1818 59.77C85.3215 59.6253 85.3215 59.3959 85.1818 59.2511L80.0423 54.1116C79.9737 54.0424 79.8804 54.0032 79.7829 54.0027C79.6854 54.0032 79.5921 54.0424 79.5234 54.1116Z" fill="#E5E5E5"/>
<rect x="67.7605" y="59.2719" width="6.45225" height="0.482554" fill="#E5E5E5"/>
<rect x="79.5416" y="65.0834" width="0.482559" height="7.15273" fill="#E5E5E5"/>
<rect x="79.5416" y="46.7878" width="0.482559" height="7.15273" fill="#E5E5E5"/>
<path fill-rule="evenodd" clip-rule="evenodd" d="M77.5993 45.6997C77.2335 44.8165 77.4357 43.7999 78.1117 43.124C78.7876 42.448 79.8042 42.2458 80.6874 42.6116C81.5705 42.9775 82.1464 43.8393 82.1464 44.7952C82.1448 46.1002 81.0874 47.1574 79.7827 47.1587H79.7829C78.827 47.1587 77.9651 46.5829 77.5993 45.6997ZM78.0431 44.0767C77.7513 44.7798 77.912 45.5894 78.4503 46.1277C78.9886 46.666 79.7983 46.8268 80.5013 46.535C81.2044 46.2432 81.6623 45.5564 81.6613 44.7951C81.6599 43.7584 80.8198 42.9183 79.783 42.9168H79.7829C79.0217 42.9157 78.3349 43.3736 78.0431 44.0767Z" fill="#E5E5E5"/>
<rect x="85.7552" y="59.2719" width="7.15273" height="0.482554" fill="#E5E5E5"/>
<path fill-rule="evenodd" clip-rule="evenodd" d="M92.7324 60.4177C92.3666 59.5345 92.5688 58.5179 93.2448 57.842C93.9207 57.166 94.9373 56.9638 95.8205 57.3296C96.7037 57.6955 97.2795 58.5573 97.2795 59.5132C97.278 60.8181 96.2206 61.8753 94.9159 61.8767L94.916 61.8767C93.9601 61.8767 93.0983 61.3009 92.7324 60.4177ZM93.0403 59.5148C93.0412 60.5519 93.8824 61.3919 94.9195 61.3914C95.9565 61.391 96.797 60.5501 96.797 59.5131C96.7956 58.4754 95.9539 57.6348 94.9161 57.6348H94.916C93.879 57.6362 93.0393 58.4778 93.0403 59.5148Z" fill="#E5E5E5"/>
<path fill-rule="evenodd" clip-rule="evenodd" d="M66.7519 83.1802C66.3862 82.2967 66.5889 81.28 67.2654 80.6042C67.9419 79.9285 68.9589 79.7269 69.842 80.0935C70.7251 80.4602 71.3003 81.3228 71.2992 82.279C71.2977 83.5834 70.2399 84.6399 68.9356 84.6399L68.9357 84.6399C67.9796 84.6399 67.1176 84.0637 66.7519 83.1802ZM67.0548 82.2788C67.0548 83.3176 67.8969 84.1598 68.9358 84.1598C69.9746 84.1598 70.8167 83.3176 70.8167 82.2788C70.8167 81.24 69.9746 80.3979 68.9358 80.3979C67.8969 80.3979 67.0548 81.24 67.0548 82.2788Z" fill="#E5E5E5"/>
<path fill-rule="evenodd" clip-rule="evenodd" d="M88.2939 83.182C87.9274 82.2986 88.1294 81.2814 88.8057 80.6051C89.482 79.9288 90.4992 79.7268 91.3826 80.0933C92.266 80.4598 92.8415 81.3225 92.8404 82.279C92.839 83.5824 91.7827 84.6385 90.4794 84.6399H90.4795C89.5231 84.6409 88.6604 84.0654 88.2939 83.182ZM88.74 81.5572C88.448 82.26 88.6083 83.0694 89.146 83.6079C89.6838 84.1464 90.493 84.3078 91.1962 84.0168C91.8993 83.7258 92.3579 83.0398 92.3579 82.2788C92.3565 81.2417 91.5168 80.4008 90.4796 80.3979H90.4796C89.7186 80.3968 89.0319 80.8544 88.74 81.5572Z" fill="#E5E5E5"/>
<path fill-rule="evenodd" clip-rule="evenodd" d="M77.5993 75.2626C77.2335 74.3794 77.4357 73.3628 78.1117 72.6869C78.7876 72.0109 79.8042 71.8087 80.6874 72.1745C81.5705 72.5403 82.1464 73.4022 82.1464 74.3581C82.1449 75.6629 81.0875 76.7202 79.7828 76.7216H79.7829C78.827 76.7216 77.9651 76.1457 77.5993 75.2626ZM78.0431 73.6395C77.7513 74.3426 77.912 75.1522 78.4503 75.6905C78.9886 76.2288 79.7983 76.3895 80.5013 76.0977C81.2044 75.8059 81.6623 75.1191 81.6613 74.3579C81.6599 73.3212 80.8198 72.481 79.783 72.4796H79.7829C79.0217 72.4785 78.3349 72.9364 78.0431 73.6395Z" fill="#E5E5E5"/>
<path fill-rule="evenodd" clip-rule="evenodd" d="M68.6945 80.1566V77.8216C68.6945 77.7516 68.6815 76.0185 69.7115 74.9678C70.227 74.4477 70.9358 74.1656 71.6677 74.1895H77.5102V74.672H71.6677C71.0684 74.6477 70.4858 74.8732 70.0591 75.2947C69.1667 76.195 69.177 77.7853 69.177 77.8009V80.1566H68.6945Z" fill="#E5E5E5"/>
<path fill-rule="evenodd" clip-rule="evenodd" d="M90.2461 80.1567V77.8218C90.2461 77.7984 90.285 76.2288 89.4107 75.326C88.9723 74.8915 88.3722 74.6601 87.7555 74.6878H81.9026V74.2052H87.7451C88.4931 74.1722 89.2207 74.4546 89.7506 74.9835C90.7676 76.0342 90.7209 77.7465 90.7183 77.8192V80.1567H90.2461Z" fill="#E5E5E5"/>
<path fill-rule="evenodd" clip-rule="evenodd" d="M46.8081 36.6617C44.7844 36.6604 43.1446 35.0195 43.1446 32.9958C43.1446 30.9721 44.7845 29.3312 46.8082 29.3299H46.9872C47.596 27.2359 49.3405 25.6689 51.4876 25.2874C53.6347 24.9058 55.8123 25.7759 57.1053 27.532C57.3665 27.4854 57.6313 27.462 57.8966 27.462C60.3938 27.5212 62.3873 29.5626 62.3873 32.0605C62.3873 34.5584 60.3938 36.5998 57.8966 36.6591L57.9069 36.6617H46.8081ZM43.9757 31.3767C43.3867 32.3748 43.3867 33.6142 43.9757 34.6124C44.5647 35.6105 45.6496 36.2096 46.8081 36.1766H57.9069C60.1788 36.1758 62.0202 34.3338 62.0202 32.0618C62.0202 29.7899 60.1788 27.9479 57.9069 27.9471C57.6218 27.9478 57.3376 27.9774 57.0586 28.0354L56.9029 28.0691L56.8095 27.9368C55.6356 26.2444 53.5808 25.3945 51.5544 25.7634C49.5281 26.1322 47.9045 27.6516 47.4022 29.6491L47.3503 29.8514L47.1428 29.8307C47.0317 29.818 46.9199 29.8119 46.8081 29.8125C45.6496 29.7794 44.5647 30.3786 43.9757 31.3767Z" fill="#E5E5E5"/>
<rect x="52.5833" y="36.4207" width="0.482554" height="6.25508" fill="#E5E5E5"/>
<path fill-rule="evenodd" clip-rule="evenodd" d="M79.5156 51.756C79.2488 51.7457 78.9829 51.7197 78.7192 51.6781C78.6715 51.6777 78.6284 51.6495 78.6089 51.6059C78.5895 51.5623 78.5972 51.5114 78.6288 51.4756C78.6603 51.4398 78.7098 51.4257 78.7555 51.4395C79.0133 51.4793 79.2731 51.5044 79.5338 51.5147C79.5936 51.5235 79.638 51.5748 79.638 51.6353C79.638 51.6958 79.5936 51.7472 79.5338 51.756L79.5156 51.756ZM80.1721 51.6287C80.169 51.5627 80.2179 51.5058 80.2836 51.499C80.5449 51.4815 80.8049 51.4477 81.0619 51.3978C81.1271 51.3856 81.1899 51.4286 81.202 51.4938C81.2142 51.559 81.1712 51.6217 81.106 51.6339C80.8438 51.6851 80.5787 51.7207 80.3122 51.7403L80.294 51.7403C80.2305 51.7405 80.1775 51.692 80.1721 51.6287ZM77.9279 51.5147C77.6703 51.4411 77.4166 51.3545 77.1678 51.2553C77.1066 51.2291 77.0777 51.1586 77.1029 51.097C77.1145 51.0673 77.1374 51.0435 77.1667 51.0308C77.1959 51.0181 77.229 51.0177 77.2586 51.0296C77.498 51.1304 77.7432 51.217 77.9928 51.289C78.0235 51.2975 78.0495 51.3178 78.0651 51.3456C78.0807 51.3734 78.0846 51.4063 78.0758 51.4369C78.0582 51.4844 78.0124 51.5157 77.9616 51.5147L77.9591 51.5147H77.9279ZM81.7363 51.3413C81.7275 51.2841 81.7601 51.2286 81.8143 51.2085C82.0608 51.1311 82.3025 51.0393 82.5382 50.9335C82.5966 50.9165 82.6586 50.9453 82.6835 51.0008C82.7083 51.0564 82.6884 51.1218 82.6368 51.154C82.3924 51.2633 82.1421 51.3585 81.887 51.4394L81.8506 51.4446C81.7929 51.4417 81.7451 51.3985 81.7363 51.3413ZM76.4569 50.9101C76.2218 50.7832 75.9948 50.642 75.7771 50.4872C75.7235 50.4482 75.7099 50.3741 75.746 50.3186C75.785 50.2646 75.8601 50.2519 75.9146 50.29C76.1258 50.4384 76.345 50.5753 76.571 50.6999C76.5995 50.7148 76.6208 50.7405 76.6301 50.7713C76.6394 50.802 76.6358 50.8352 76.6203 50.8634C76.5949 50.907 76.546 50.9315 76.4958 50.9256H76.5139C76.4939 50.9257 76.4742 50.9203 76.4569 50.9101ZM83.1816 50.7442C83.1477 50.6868 83.1662 50.6129 83.2231 50.5782C83.4444 50.4455 83.6583 50.3008 83.8639 50.1449C83.9171 50.1057 83.9919 50.116 84.0325 50.1683C84.0528 50.1933 84.0618 50.2257 84.0573 50.2576C84.0529 50.2896 84.0355 50.3183 84.0092 50.3369C83.7971 50.4986 83.5762 50.6484 83.3476 50.7857C83.3268 50.7992 83.3023 50.8056 83.2776 50.8039H83.2853C83.2425 50.804 83.203 50.7813 83.1816 50.7442ZM75.1494 49.9945C74.9506 49.8156 74.7618 49.6259 74.5838 49.4263C74.5373 49.3797 74.5373 49.3043 74.5838 49.2577C74.6313 49.2109 74.7075 49.2109 74.755 49.2577C74.9254 49.451 75.1073 49.6338 75.2998 49.8051C75.3466 49.8526 75.3466 49.9288 75.2998 49.9763C75.2802 50.0001 75.2525 50.0159 75.222 50.0204L75.2298 50.0256C75.2001 50.0254 75.1715 50.0143 75.1494 49.9945ZM84.4476 49.818C84.4008 49.7705 84.4008 49.6942 84.4476 49.6467C84.6318 49.4688 84.805 49.2799 84.9665 49.0811C84.9863 49.056 85.0156 49.0401 85.0475 49.0371C85.0794 49.0342 85.111 49.0445 85.1351 49.0656C85.16 49.0854 85.176 49.1144 85.1794 49.1461C85.1828 49.1778 85.1734 49.2095 85.1533 49.2342C84.9819 49.4398 84.8001 49.6363 84.6085 49.8231C84.5882 49.8385 84.5638 49.8475 84.5384 49.8491L84.5332 49.8543C84.5008 49.8552 84.4695 49.842 84.4476 49.818ZM74.0882 48.7982C73.9339 48.5802 73.7927 48.3532 73.6653 48.1185C73.6345 48.0597 73.6564 47.987 73.7146 47.955C73.7427 47.9395 73.776 47.936 73.8067 47.9453C73.8375 47.9545 73.8632 47.9758 73.8781 48.0043C74.0009 48.2309 74.1369 48.4501 74.2854 48.6607C74.3235 48.7153 74.3108 48.7903 74.2569 48.8293C74.233 48.8421 74.2059 48.8475 74.179 48.8449L74.1868 48.8501C74.1474 48.8501 74.1105 48.8307 74.0882 48.7982ZM85.4295 48.5815C85.4085 48.5428 85.41 48.4958 85.4334 48.4585C85.5745 48.2422 85.7027 48.0179 85.8174 47.7866C85.8314 47.7579 85.8562 47.736 85.8865 47.7257C85.9167 47.7155 85.9498 47.7178 85.9783 47.7321C86.007 47.746 86.0289 47.7709 86.0391 47.8011C86.0494 47.8314 86.0471 47.8644 86.0327 47.8929C85.9137 48.1329 85.7812 48.3659 85.6358 48.5908C85.6103 48.6248 85.5692 48.6434 85.5268 48.6401L85.5346 48.6453C85.4906 48.6446 85.4504 48.6202 85.4295 48.5815ZM73.3254 47.3948C73.225 47.1473 73.1384 46.8944 73.066 46.6372C73.0491 46.573 73.0856 46.5067 73.149 46.4867C73.2141 46.4701 73.2806 46.5079 73.2995 46.5724C73.3655 46.8211 73.447 47.0654 73.5434 47.304C73.5686 47.3656 73.5397 47.436 73.4785 47.4622L73.437 47.47C73.3879 47.4703 73.3436 47.4404 73.3254 47.3948ZM86.1936 47.2366C86.1636 47.226 86.1391 47.2039 86.1254 47.1752C86.1118 47.1464 86.1102 47.1134 86.121 47.0835C86.2069 46.8403 86.2797 46.5926 86.3389 46.3415C86.3442 46.2949 86.3757 46.2555 86.42 46.2401C86.4643 46.2247 86.5135 46.236 86.5465 46.2693C86.5796 46.3025 86.5906 46.3518 86.575 46.396C86.5139 46.6596 86.4376 46.9195 86.3467 47.1743C86.32 47.2143 86.2716 47.2338 86.2247 47.2236L86.2325 47.2366C86.2197 47.239 86.2065 47.239 86.1936 47.2366ZM72.9052 45.8538C72.8657 45.589 72.8406 45.3223 72.8299 45.0548C72.8285 44.9884 72.8803 44.933 72.9467 44.9302C72.979 44.9281 73.0107 44.9394 73.0343 44.9615C73.0579 44.9837 73.0713 45.0146 73.0712 45.047C73.0809 45.3076 73.1051 45.5674 73.1439 45.8253C73.1532 45.891 73.1082 45.9521 73.0427 45.9628L73.0245 45.955C72.9647 45.9569 72.9131 45.9132 72.9052 45.8538ZM86.5776 45.6954C86.5458 45.6922 86.5167 45.6763 86.4968 45.6515C86.4768 45.6266 86.4676 45.5948 86.4712 45.5631C86.5003 45.3047 86.515 45.0448 86.5153 44.7848C86.5153 44.6213 86.5153 44.4553 86.4971 44.2944C86.4943 44.2623 86.5045 44.2305 86.5255 44.206C86.5465 44.1816 86.5765 44.1667 86.6087 44.1647C86.6747 44.1616 86.7316 44.2106 86.7384 44.2763C86.7384 44.4449 86.7566 44.6161 86.7566 44.7952C86.7566 45.0631 86.741 45.33 86.7098 45.5952C86.7025 45.6586 86.6465 45.7051 86.5828 45.7006L86.5905 45.6954H86.5776ZM72.9596 44.3699C72.8943 44.3631 72.8461 44.3057 72.8507 44.2402C72.8703 43.9737 72.9058 43.7086 72.957 43.4463C72.9701 43.3805 73.0339 43.3376 73.0997 43.3503C73.1645 43.3646 73.206 43.428 73.1931 43.493C73.145 43.7504 73.1104 44.0102 73.0893 44.2713C73.0787 44.3332 73.0221 44.3762 72.9596 44.3699ZM86.3882 43.5266C86.3413 43.2731 86.2789 43.0227 86.2014 42.7768C86.1902 42.7162 86.226 42.6568 86.2847 42.6384C86.3435 42.6199 86.4068 42.6481 86.4323 42.7042C86.5127 42.9595 86.5777 43.2194 86.6269 43.4825C86.6329 43.5138 86.6262 43.5463 86.6082 43.5726C86.5901 43.5989 86.5623 43.6169 86.5309 43.6226L86.5075 43.6252C86.4497 43.624 86.4002 43.5832 86.3882 43.5266ZM73.2242 42.8288C73.161 42.8089 73.1252 42.742 73.1438 42.6783C73.2263 42.4243 73.3224 42.1748 73.4318 41.9311C73.4451 41.8854 73.4837 41.8516 73.5308 41.8446C73.5778 41.8375 73.6247 41.8584 73.6508 41.8982C73.6769 41.938 73.6775 41.9893 73.6523 42.0297C73.5457 42.2645 73.453 42.5053 73.3747 42.751C73.3607 42.8026 73.3141 42.8387 73.2606 42.8392V42.8288C73.2486 42.8315 73.2362 42.8315 73.2242 42.8288ZM85.929 42.0556C85.8249 41.8197 85.7071 41.5901 85.5762 41.3681C85.5592 41.3406 85.554 41.3075 85.5618 41.2763C85.5697 41.245 85.5898 41.2182 85.6177 41.202C85.6757 41.1686 85.7499 41.1883 85.7837 41.2461C85.919 41.476 86.0411 41.7133 86.1495 41.957C86.1625 41.9862 86.1632 42.0194 86.1515 42.0492C86.1398 42.0789 86.1167 42.1027 86.0873 42.1152C86.0737 42.126 86.0576 42.1332 86.0405 42.136V42.1256C85.9929 42.1261 85.9493 42.0987 85.929 42.0556ZM73.8391 41.3889C73.7823 41.3542 73.7638 41.2803 73.7976 41.2229C73.9349 40.9936 74.0856 40.7727 74.249 40.5613C74.2892 40.509 74.3641 40.4991 74.4164 40.5392C74.4687 40.5794 74.4786 40.6543 74.4384 40.7066C74.2825 40.9122 74.1379 41.1261 74.0052 41.3474C73.983 41.3837 73.9439 41.4062 73.9014 41.4071C73.8795 41.4059 73.8582 41.3997 73.8391 41.3889ZM85.1377 40.7374C84.983 40.5311 84.8158 40.3344 84.637 40.1485C84.6139 40.126 84.6008 40.0951 84.6008 40.0629C84.6008 40.0306 84.6139 39.9997 84.637 39.9773C84.659 39.9543 84.6895 39.9413 84.7213 39.9413C84.7532 39.9413 84.7836 39.9543 84.8056 39.9773C84.9896 40.1699 85.1629 40.3726 85.3245 40.5843C85.364 40.6384 85.3537 40.7141 85.3012 40.7556C85.2832 40.7703 85.2618 40.7801 85.2389 40.7841L85.2337 40.7841C85.1961 40.7845 85.1606 40.7672 85.1377 40.7374ZM74.7732 40.1253C74.7263 40.0778 74.7263 40.0016 74.7732 39.9541C74.9587 39.762 75.1554 39.581 75.3621 39.4119C75.3865 39.3915 75.418 39.3816 75.4496 39.3845C75.4813 39.3875 75.5105 39.4029 75.5307 39.4274C75.5735 39.4791 75.5665 39.5556 75.5151 39.5987C75.3161 39.7607 75.1264 39.934 74.947 40.1175C74.9251 40.1421 74.8943 40.1571 74.8614 40.159H74.8562C74.8251 40.1593 74.7952 40.1472 74.7732 40.1253ZM84.0714 39.6116C83.8732 39.4473 83.6662 39.294 83.4513 39.1523C83.3954 39.1165 83.3792 39.0422 83.415 38.9863C83.4508 38.9304 83.5251 38.9142 83.581 38.95C83.8049 39.0962 84.0206 39.2547 84.227 39.4248C84.2662 39.4576 84.2807 39.5115 84.2633 39.5596C84.2459 39.6077 84.2004 39.6399 84.1492 39.6401V39.6401C84.1208 39.6398 84.0933 39.6297 84.0714 39.6116ZM75.9691 39.0953C75.9517 39.0685 75.9457 39.0358 75.9526 39.0046C75.9594 38.9734 75.9784 38.9463 76.0055 38.9292C76.229 38.7838 76.4612 38.6521 76.7007 38.5349C76.761 38.5063 76.8331 38.5304 76.8642 38.5894C76.8785 38.6179 76.8808 38.6509 76.8706 38.6812C76.8603 38.7114 76.8384 38.7363 76.8097 38.7502C76.579 38.8651 76.3547 38.9924 76.1378 39.1316C76.1202 39.1474 76.0987 39.1582 76.0755 39.1627L76.0703 39.1523C76.0291 39.1516 75.991 39.1302 75.9691 39.0953ZM82.7794 38.7658C82.5483 38.6514 82.311 38.5501 82.0685 38.4623C82.0113 38.4355 81.9839 38.3695 82.0055 38.3101C82.0271 38.2507 82.0905 38.2177 82.1515 38.234C82.4031 38.325 82.6492 38.4307 82.8884 38.5505C82.941 38.5738 82.9695 38.6313 82.9561 38.6873C82.9428 38.7433 82.8914 38.7818 82.8339 38.7788H82.8339C82.8149 38.7794 82.7961 38.7749 82.7794 38.7658ZM77.3625 38.3553C77.353 38.2978 77.3855 38.2416 77.4401 38.2212C77.6952 38.1324 77.955 38.0579 78.2184 37.9981C78.2835 37.9835 78.3483 38.024 78.3637 38.0889C78.3769 38.1538 78.337 38.2176 78.2729 38.2342C78.0217 38.2918 77.7739 38.3637 77.5309 38.4496C77.5168 38.4589 77.5009 38.4651 77.4842 38.4677L77.479 38.4573C77.4208 38.4555 77.372 38.4128 77.3625 38.3553ZM81.3292 38.2444C81.0777 38.1849 80.823 38.1399 80.5664 38.1095C80.5013 38.1014 80.455 38.0423 80.4626 37.9772C80.4652 37.9451 80.4808 37.9156 80.5059 37.8955C80.5309 37.8753 80.5631 37.8664 80.5949 37.8708C80.8567 37.9022 81.1166 37.9482 81.3733 38.0083C81.4382 38.0237 81.4787 38.0885 81.4641 38.1536C81.4563 38.2069 81.4138 38.2483 81.3603 38.2548L81.3551 38.2444H81.3292ZM78.916 37.9836C78.916 37.9231 78.9603 37.8718 79.0201 37.863C79.2786 37.834 79.5384 37.8193 79.7985 37.8189C79.8672 37.8188 79.9241 37.8722 79.9282 37.9408C79.9303 37.972 79.9196 38.0026 79.8985 38.0257C79.8774 38.0487 79.8478 38.0621 79.8166 38.0628C79.5566 38.0616 79.2967 38.0754 79.0383 38.1043L79.0201 38.1043C78.9603 38.0955 78.916 38.0441 78.916 37.9836Z" fill="#E5E5E5"/>
<path fill-rule="evenodd" clip-rule="evenodd" d="M94.6358 66.4738C94.3682 66.4637 94.1013 66.4377 93.8368 66.396C93.7864 66.399 93.7394 66.3706 93.7185 66.3247C93.6976 66.2787 93.7073 66.2246 93.7427 66.1887C93.7781 66.1527 93.832 66.1423 93.8783 66.1625C94.1361 66.2022 94.3959 66.2273 94.6566 66.2377C94.7164 66.2465 94.7607 66.2979 94.7607 66.3584C94.7607 66.4188 94.7164 66.4702 94.6566 66.479L94.6358 66.4738ZM95.2948 66.3466C95.2919 66.3149 95.3018 66.2834 95.3223 66.2591C95.3427 66.2347 95.3721 66.2195 95.4038 66.2169C95.665 66.1994 95.925 66.1656 96.1821 66.1157C96.2242 66.1078 96.2674 66.123 96.2954 66.1556C96.3233 66.1882 96.3317 66.2332 96.3174 66.2737C96.3031 66.3142 96.2684 66.3439 96.2262 66.3518C95.9647 66.4028 95.7005 66.4384 95.4349 66.4582L95.4141 66.4582C95.3506 66.4596 95.2976 66.4101 95.2948 66.3466ZM93.0481 66.2326C92.7912 66.1595 92.5383 66.0729 92.2905 65.9732C92.2283 65.948 92.1982 65.8773 92.2231 65.8149C92.2493 65.7538 92.319 65.7241 92.3813 65.7475C92.6193 65.8499 92.8637 65.9365 93.1129 66.0069C93.1437 66.0154 93.1697 66.0358 93.1853 66.0636C93.2009 66.0913 93.2047 66.1242 93.196 66.1548C93.179 66.2029 93.1328 66.2344 93.0818 66.2326L93.0792 66.2326H93.0481ZM96.854 66.0768C96.8354 66.0131 96.8712 65.9462 96.9344 65.9263C97.18 65.8489 97.4209 65.7571 97.6557 65.6513C97.7173 65.6256 97.7883 65.653 97.8165 65.7136C97.8295 65.7428 97.8302 65.776 97.8185 65.8057C97.8068 65.8355 97.7837 65.8593 97.7543 65.8718C97.506 65.9838 97.2513 66.0808 96.9915 66.1624L96.9708 66.1624C96.9176 66.1617 96.8706 66.1273 96.854 66.0768ZM91.5745 65.6281C91.3394 65.5013 91.1124 65.36 90.8948 65.2052C90.8408 65.1662 90.8281 65.0911 90.8662 65.0366C90.9043 64.9829 90.9785 64.9702 91.0323 65.008C91.2435 65.1565 91.4626 65.2933 91.6886 65.4179C91.7171 65.4328 91.7384 65.4585 91.7477 65.4893C91.757 65.5201 91.7535 65.5533 91.7379 65.5814C91.7146 65.6207 91.6721 65.6445 91.6264 65.6437L91.6316 65.6437C91.6115 65.6437 91.5918 65.6383 91.5745 65.6281ZM98.2845 65.4319C98.2697 65.3791 98.2929 65.323 98.3406 65.296C98.5619 65.1633 98.7758 65.0187 98.9814 64.8627C99.0068 64.8432 99.0389 64.8347 99.0706 64.839C99.1023 64.8434 99.1309 64.8604 99.15 64.8861C99.1703 64.9112 99.1793 64.9435 99.1748 64.9754C99.1704 65.0074 99.153 65.0361 99.1267 65.0547C98.9152 65.2173 98.6943 65.3671 98.4651 65.5035C98.4443 65.5144 98.4211 65.5197 98.3976 65.5191L98.4028 65.5191C98.348 65.5207 98.2992 65.4847 98.2845 65.4319ZM90.2669 64.7099C90.0681 64.531 89.8793 64.3413 89.7013 64.1417C89.6548 64.0951 89.6548 64.0196 89.7013 63.973C89.7488 63.9262 89.8251 63.9262 89.8726 63.973C90.0443 64.1659 90.2261 64.3495 90.4174 64.5231C90.4404 64.5451 90.4534 64.5755 90.4534 64.6074C90.4534 64.6392 90.4404 64.6697 90.4174 64.6917C90.3989 64.716 90.3721 64.7326 90.3421 64.7384L90.3473 64.741C90.3176 64.7408 90.289 64.7297 90.2669 64.7099ZM99.5652 64.5334C99.5184 64.4859 99.5184 64.4096 99.5652 64.3621C99.7487 64.1836 99.922 63.9947 100.084 63.7965C100.104 63.7714 100.133 63.7555 100.165 63.7525C100.197 63.7496 100.229 63.7599 100.253 63.781C100.278 63.8008 100.294 63.8298 100.297 63.8615C100.3 63.8932 100.291 63.9249 100.271 63.9496C100.1 64.1549 99.9183 64.3506 99.726 64.536C99.7048 64.5556 99.6771 64.5667 99.6482 64.5671L99.6534 64.5697C99.6201 64.571 99.5879 64.5578 99.5652 64.5334ZM89.2006 63.5162C89.0468 63.2984 88.9064 63.0714 88.7803 62.8365C88.7488 62.7785 88.7702 62.7059 88.8282 62.6744C88.8863 62.6428 88.9589 62.6643 88.9904 62.7223C89.1144 62.9482 89.2504 63.1673 89.3977 63.3787C89.4359 63.4333 89.4232 63.5084 89.3692 63.5474C89.3482 63.5605 89.324 63.5677 89.2992 63.5681C89.2597 63.5682 89.2228 63.5488 89.2006 63.5162ZM100.582 63.3425C100.555 63.3255 100.536 63.2983 100.529 63.2671C100.522 63.2359 100.528 63.2033 100.546 63.1765C100.687 62.9602 100.815 62.7359 100.93 62.5046C100.959 62.4451 101.031 62.4207 101.091 62.4501C101.15 62.4795 101.175 62.5515 101.145 62.6109C101.028 62.8508 100.895 63.0831 100.748 63.3062C100.725 63.3392 100.687 63.3586 100.647 63.3581L100.647 63.3633C100.624 63.3624 100.601 63.3552 100.582 63.3425ZM88.4378 62.1129C88.3374 61.8654 88.2508 61.6125 88.1784 61.3554C88.1686 61.2941 88.2064 61.2352 88.2662 61.2186C88.326 61.202 88.3887 61.2329 88.4119 61.2905C88.4779 61.5392 88.5594 61.7835 88.6558 62.0221C88.681 62.0837 88.6521 62.1542 88.5909 62.1804L88.5494 62.1882C88.5003 62.1884 88.456 62.1586 88.4378 62.1129ZM101.306 61.9544C101.276 61.9439 101.251 61.9218 101.238 61.893C101.224 61.8643 101.223 61.8313 101.233 61.8014C101.32 61.5583 101.393 61.3106 101.451 61.0594C101.472 61.001 101.533 60.9674 101.594 60.9813C101.654 60.9953 101.694 61.0523 101.687 61.1139C101.626 61.3775 101.55 61.6373 101.459 61.8922C101.436 61.9312 101.393 61.9535 101.347 61.9493V61.9544C101.334 61.9572 101.32 61.9572 101.306 61.9544ZM88.0175 60.5719C87.978 60.3071 87.9528 60.0404 87.9423 59.7728C87.9408 59.7065 87.9927 59.6511 88.059 59.6483C88.0911 59.6469 88.1224 59.6585 88.1459 59.6805C88.1693 59.7024 88.1829 59.7329 88.1836 59.765C88.1931 60.0257 88.2173 60.2855 88.2562 60.5434C88.2656 60.6091 88.2206 60.6702 88.155 60.6809L88.1369 60.6731C88.0774 60.6738 88.0266 60.6306 88.0175 60.5719ZM101.703 60.4135C101.671 60.4103 101.641 60.3941 101.621 60.3686C101.601 60.3432 101.592 60.3107 101.597 60.2786C101.626 60.0202 101.641 59.7603 101.641 59.5003C101.641 59.3368 101.641 59.1708 101.623 59.0073C101.627 58.9463 101.675 58.8977 101.736 58.8938C101.797 58.8899 101.852 58.9318 101.864 58.9918C101.864 59.1604 101.882 59.3316 101.882 59.5107C101.882 59.779 101.866 60.0458 101.835 60.3111C101.833 60.3433 101.817 60.3731 101.792 60.3935C101.767 60.4139 101.735 60.423 101.703 60.4187V60.4135ZM88.0798 59.0929C88.0481 59.0902 88.0188 59.075 87.9983 59.0507C87.9778 59.0263 87.9679 58.9948 87.9708 58.9631C87.9919 58.6968 88.0274 58.4317 88.0772 58.1692C88.0903 58.1034 88.154 58.0606 88.2199 58.0733C88.2846 58.0875 88.3261 58.1509 88.3133 58.2159C88.2652 58.4734 88.2305 58.7332 88.2095 58.9943C88.2062 59.0253 88.1907 59.0537 88.1663 59.0732C88.142 59.0927 88.1108 59.1017 88.0798 59.098L88.0798 59.0929ZM101.508 58.2496C101.462 57.996 101.4 57.7455 101.322 57.4998C101.31 57.4392 101.346 57.3798 101.405 57.3613C101.464 57.3428 101.527 57.3711 101.552 57.4272C101.633 57.6825 101.698 57.9424 101.747 58.2055C101.753 58.2368 101.746 58.2693 101.728 58.2956C101.71 58.3219 101.682 58.3399 101.651 58.3456L101.628 58.3482C101.57 58.347 101.52 58.3062 101.508 58.2496ZM88.3444 57.552C88.3136 57.5431 88.2878 57.5219 88.2731 57.4935C88.2584 57.465 88.256 57.4318 88.2665 57.4015C88.347 57.1471 88.4423 56.8976 88.5519 56.6543C88.5842 56.6027 88.6496 56.5827 88.7051 56.6076C88.7607 56.6324 88.7895 56.6945 88.7725 56.7529C88.6658 56.9877 88.5731 57.2285 88.4948 57.4742C88.479 57.5238 88.4328 57.5574 88.3807 57.5572L88.3807 57.552C88.3687 57.5544 88.3564 57.5544 88.3444 57.552ZM101.049 56.7761C100.945 56.5414 100.827 56.3127 100.696 56.0912C100.679 56.0638 100.674 56.0307 100.682 55.9994C100.69 55.9682 100.71 55.9414 100.738 55.9252C100.795 55.8913 100.869 55.9098 100.904 55.9667C101.039 56.1966 101.161 56.4339 101.27 56.6776C101.283 56.7071 101.284 56.7407 101.272 56.7709C101.26 56.801 101.237 56.8253 101.207 56.8384C101.193 56.8474 101.177 56.8527 101.161 56.854V56.8488C101.112 56.8488 101.069 56.8203 101.049 56.7761ZM88.9645 56.1013C88.9076 56.0666 88.8891 55.9927 88.923 55.9353C89.0602 55.706 89.211 55.4851 89.3744 55.2737C89.3935 55.248 89.4221 55.2311 89.4538 55.2267C89.4855 55.2223 89.5177 55.2308 89.543 55.2504C89.5956 55.2919 89.6059 55.3675 89.5664 55.4216C89.4082 55.6252 89.2626 55.8384 89.1305 56.0598C89.1105 56.0989 89.0706 56.1238 89.0268 56.1247L89.0268 56.1195C89.0047 56.1196 88.9831 56.1133 88.9645 56.1013ZM100.263 55.4503C100.108 55.244 99.9411 55.0473 99.7624 54.8614C99.7392 54.8389 99.7262 54.808 99.7262 54.7757C99.7262 54.7435 99.7392 54.7126 99.7624 54.6901C99.7844 54.6671 99.8148 54.6541 99.8467 54.6541C99.8785 54.6541 99.909 54.6671 99.931 54.6901C100.116 54.8821 100.289 55.0848 100.45 55.2972C100.489 55.3513 100.479 55.4269 100.427 55.4684C100.409 55.4851 100.388 55.4968 100.364 55.5022L100.362 55.497C100.323 55.4974 100.287 55.4802 100.263 55.4503ZM89.8984 54.838C89.8516 54.7905 89.8516 54.7143 89.8984 54.6668C90.084 54.4747 90.2806 54.2937 90.4874 54.1246C90.5115 54.1035 90.5431 54.0932 90.575 54.0961C90.6069 54.0991 90.6362 54.115 90.656 54.1401C90.6772 54.1647 90.6876 54.1968 90.6846 54.2291C90.6817 54.2614 90.6657 54.2911 90.6404 54.3114C90.442 54.4741 90.2523 54.6473 90.0722 54.8302C90.0514 54.857 90.0204 54.874 89.9866 54.8769L89.9841 54.8718C89.9524 54.8711 89.922 54.8591 89.8984 54.838ZM99.1967 54.327C98.9988 54.1613 98.7908 54.0079 98.5741 53.8678C98.5281 53.8283 98.5171 53.7615 98.5481 53.7095C98.5656 53.6829 98.5929 53.6644 98.6241 53.6581C98.6553 53.6517 98.6877 53.6581 98.7142 53.6758C98.9387 53.8211 99.1544 53.9797 99.3602 54.1505C99.4102 54.1943 99.4171 54.2697 99.3757 54.3218C99.3512 54.3521 99.3135 54.3686 99.2745 54.3659L99.2746 54.3529C99.2464 54.3535 99.2189 54.3443 99.1967 54.327ZM91.0945 53.8107C91.0771 53.7839 91.0711 53.7512 91.0779 53.72C91.0847 53.6888 91.1038 53.6617 91.1308 53.6446C91.355 53.5002 91.5872 53.3686 91.8261 53.2502C91.8864 53.2217 91.9585 53.2457 91.9896 53.3047C92.0039 53.3333 92.0062 53.3663 91.9959 53.3966C91.9857 53.4268 91.9638 53.4516 91.9351 53.4656C91.7038 53.5795 91.4794 53.7068 91.2631 53.847C91.2445 53.8646 91.221 53.8764 91.1957 53.8807L91.1957 53.8677C91.1545 53.867 91.1164 53.8456 91.0945 53.8107ZM97.9048 53.4811C97.674 53.366 97.4366 53.2647 97.1939 53.1775C97.1494 53.1656 97.1153 53.1296 97.106 53.0844C97.0967 53.0393 97.1136 52.9927 97.1498 52.9641C97.1859 52.9355 97.2352 52.9297 97.277 52.9492C97.5284 53.0407 97.7744 53.1464 98.0138 53.2657C98.0425 53.2796 98.0644 53.3047 98.0742 53.335C98.084 53.3654 98.0809 53.3985 98.0657 53.4266C98.0505 53.473 98.0081 53.5051 97.9593 53.507V53.494C97.9403 53.4947 97.9215 53.4902 97.9048 53.4811ZM92.4879 53.0888C92.4784 53.0313 92.5109 52.9752 92.5655 52.9548C92.8204 52.8655 93.0803 52.791 93.3438 52.7317C93.4089 52.7171 93.4737 52.7575 93.4891 52.8225C93.496 52.8534 93.4904 52.8859 93.4733 52.9127C93.4563 52.9395 93.4293 52.9583 93.3983 52.9652C93.1472 53.0244 92.8995 53.0972 92.6563 53.1831C92.6398 53.1896 92.6221 53.1923 92.6044 53.1909L92.6044 53.1909C92.5462 53.1891 92.4973 53.1463 92.4879 53.0888ZM96.4675 52.978C96.216 52.9185 95.9613 52.8735 95.7047 52.843C95.673 52.8392 95.6441 52.8227 95.6246 52.7973C95.6051 52.772 95.5966 52.7398 95.601 52.7081C95.6042 52.6766 95.6201 52.6477 95.645 52.6281C95.67 52.6085 95.7019 52.6 95.7333 52.6044C95.9952 52.6346 96.2551 52.6805 96.5116 52.7419C96.5683 52.7585 96.6049 52.8133 96.5986 52.8721C96.5922 52.9308 96.5446 52.9765 96.4856 52.9805L96.496 52.978H96.4675ZM94.0287 52.7288C94.0226 52.6632 94.0697 52.6046 94.1351 52.5965C94.3935 52.5676 94.6534 52.5529 94.9134 52.5524C94.9821 52.5523 95.039 52.6058 95.0431 52.6744C95.0453 52.7053 95.0345 52.7357 95.0133 52.7583C94.9922 52.781 94.9626 52.7938 94.9316 52.7937C94.6715 52.7934 94.4116 52.8081 94.1533 52.8378L94.1481 52.8378C94.0865 52.8368 94.0353 52.7901 94.0287 52.7288Z" fill="#E5E5E5"/>
<path fill-rule="evenodd" clip-rule="evenodd" d="M52.5547 78.665C52.2879 78.6568 52.0219 78.6317 51.7583 78.5898C51.711 78.5883 51.6688 78.5595 51.6501 78.516C51.6315 78.4725 51.6397 78.4221 51.6712 78.3868C51.7027 78.3514 51.7518 78.3375 51.7972 78.3511C52.0549 78.3914 52.3148 78.4157 52.5755 78.4237C52.6428 78.4237 52.6974 78.4783 52.6974 78.5457C52.6974 78.613 52.6428 78.6676 52.5755 78.6676L52.5547 78.665ZM53.2289 78.5284C53.2289 78.4679 53.2733 78.4165 53.3331 78.4077C53.5901 78.3899 53.8457 78.3561 54.0985 78.3066C54.1644 78.2938 54.2281 78.3367 54.2412 78.4025C54.2472 78.4339 54.2405 78.4663 54.2225 78.4927C54.2044 78.519 54.1766 78.537 54.1452 78.5427C53.8829 78.5939 53.6178 78.6294 53.3513 78.649H53.3331C53.2733 78.6402 53.2289 78.5889 53.2289 78.5284ZM50.967 78.4233C50.7092 78.3505 50.4554 78.2639 50.2068 78.1639C50.1492 78.1359 50.123 78.0681 50.1469 78.0086C50.1708 77.9492 50.2367 77.9184 50.2977 77.9382C50.5368 78.0375 50.781 78.1241 51.0293 78.1976C51.0605 78.2055 51.0871 78.2257 51.1033 78.2535C51.1194 78.2814 51.1236 78.3145 51.1149 78.3455C51.097 78.3917 51.0529 78.4225 51.0033 78.4233H50.9981H50.967ZM54.7756 78.2679C54.7658 78.2377 54.7685 78.2047 54.7831 78.1765C54.7978 78.1482 54.823 78.127 54.8534 78.1175C55.0986 78.0389 55.3394 77.9471 55.5746 77.8425C55.615 77.8172 55.6663 77.8178 55.7061 77.8439C55.7459 77.8701 55.7669 77.9169 55.7598 77.964C55.7527 78.0111 55.7189 78.0497 55.6732 78.063C55.4299 78.1726 55.1805 78.2679 54.926 78.3484L54.8897 78.3535C54.8369 78.3534 54.7905 78.3186 54.7756 78.2679ZM49.4934 77.8192C49.259 77.6912 49.0321 77.5501 48.8137 77.3964C48.7719 77.3741 48.7468 77.3297 48.7493 77.2825C48.7517 77.2352 48.7812 77.1937 48.825 77.1758C48.8689 77.158 48.919 77.1671 48.9538 77.1992C49.1646 77.3482 49.3837 77.4851 49.6102 77.6091C49.6604 77.6345 49.6861 77.6916 49.6717 77.7461C49.6573 77.8006 49.6068 77.8376 49.5505 77.8348V77.8348C49.5304 77.8345 49.5108 77.8291 49.4934 77.8192ZM56.2206 77.6532C56.2036 77.6258 56.1985 77.5927 56.2063 77.5614C56.2141 77.5301 56.2342 77.5033 56.2621 77.4871C56.483 77.355 56.6961 77.2104 56.9003 77.0539C56.9544 77.0143 57.0301 77.0246 57.0716 77.0772C57.1108 77.1304 57.1004 77.2053 57.0482 77.2458C56.8357 77.4081 56.6139 77.558 56.384 77.6947C56.3638 77.707 56.3404 77.7133 56.3166 77.7128L56.3218 77.7128C56.2801 77.7116 56.2419 77.6891 56.2206 77.6532ZM48.1988 76.903C47.9994 76.7248 47.8105 76.5351 47.6332 76.3349C47.5888 76.2854 47.5929 76.2094 47.6423 76.1649C47.6917 76.1205 47.7678 76.1246 47.8122 76.174C47.9842 76.3667 48.1669 76.5495 48.3596 76.7214C48.3971 76.7551 48.4101 76.8083 48.3923 76.8554C48.3745 76.9025 48.3296 76.9338 48.2792 76.9342H48.2792C48.2495 76.9339 48.2209 76.9229 48.1988 76.903ZM57.4692 76.6881C57.4507 76.6419 57.4629 76.5891 57.4997 76.5556C57.6832 76.377 57.8565 76.1882 58.0186 75.99C58.0633 75.9488 58.1315 75.9468 58.1785 75.9853C58.2255 76.0238 58.237 76.0911 58.2054 76.1431C58.0353 76.349 57.8534 76.5447 57.6605 76.7294C57.6329 76.7556 57.5939 76.7663 57.5567 76.7579L57.5827 76.7631C57.5329 76.7642 57.4877 76.7343 57.4692 76.6881ZM47.1195 75.7099C46.967 75.4912 46.8267 75.2643 46.6993 75.0301C46.671 74.9917 46.6677 74.9403 46.6909 74.8986C46.7141 74.8569 46.7595 74.8326 46.807 74.8363C46.8546 74.8401 46.8956 74.8712 46.912 74.916C47.0348 75.1426 47.1708 75.3617 47.3193 75.5724C47.3555 75.6279 47.3418 75.702 47.2882 75.741C47.2681 75.754 47.2447 75.7612 47.2207 75.7618C47.1807 75.7614 47.1432 75.7421 47.1195 75.7099ZM58.5011 75.5361C58.4469 75.4989 58.432 75.4255 58.4673 75.3701C58.6075 75.1538 58.7348 74.9294 58.8487 74.6982C58.8788 74.638 58.952 74.6136 59.0122 74.6437C59.0408 74.6576 59.0628 74.6825 59.073 74.7127C59.0832 74.7429 59.0809 74.776 59.0666 74.8045C58.9481 75.0439 58.8156 75.2761 58.6697 75.4998C58.646 75.5318 58.6083 75.5502 58.5685 75.5491V75.5569C58.5446 75.5563 58.5212 75.5492 58.5011 75.5361ZM46.3593 74.3064C46.2578 74.0584 46.1711 73.8045 46.0999 73.5462C46.0848 73.482 46.1223 73.4172 46.1855 73.3983C46.2165 73.3897 46.2497 73.3939 46.2775 73.41C46.3053 73.4261 46.3255 73.4528 46.3334 73.484C46.4015 73.7323 46.4838 73.9766 46.5799 74.2156C46.6033 74.2779 46.5736 74.3476 46.5124 74.3738C46.4987 74.376 46.4846 74.376 46.4709 74.3738V74.3816C46.4218 74.3819 46.3775 74.352 46.3593 74.3064ZM59.2249 74.1477C59.1634 74.1246 59.1313 74.0569 59.1523 73.9947C59.2399 73.7518 59.3135 73.504 59.3728 73.2527C59.379 73.2213 59.3977 73.1939 59.4247 73.1767C59.4517 73.1595 59.4845 73.1542 59.5155 73.1619C59.5804 73.1773 59.6209 73.242 59.6063 73.3072C59.5473 73.571 59.4719 73.831 59.3806 74.0855C59.3557 74.1235 59.3117 74.1445 59.2664 74.14V74.1477H59.2249ZM45.9365 72.7628C45.8979 72.4988 45.8736 72.2329 45.8638 71.9663C45.8623 71.8999 45.9142 71.8446 45.9806 71.8418C46.0127 71.8404 46.044 71.852 46.0674 71.874C46.0908 71.8959 46.1044 71.9264 46.1051 71.9585C46.1139 72.2191 46.1373 72.4789 46.1751 72.7369C46.1803 72.7683 46.1725 72.8004 46.1533 72.8259C46.1342 72.8514 46.1056 72.8679 46.074 72.8718L46.0558 72.8666C45.9963 72.8649 45.9464 72.8215 45.9365 72.7628ZM59.6089 72.607C59.5424 72.5989 59.4949 72.5386 59.5025 72.4721C59.5331 72.2138 59.5479 71.9539 59.5466 71.6938C59.5466 71.5303 59.5466 71.3643 59.5285 71.2008C59.5326 71.1398 59.5812 71.0912 59.6423 71.0873C59.7034 71.0834 59.7579 71.1253 59.7698 71.1853C59.7827 71.3539 59.7879 71.5251 59.7879 71.7042C59.7874 71.9714 59.7727 72.2382 59.7438 72.5036C59.7374 72.5614 59.6903 72.6061 59.6323 72.6096L59.6245 72.607H59.6089ZM46.0013 71.2865C45.9349 71.2809 45.8852 71.2232 45.8897 71.1567C45.9102 70.8902 45.9466 70.6251 45.9987 70.3629C46.0129 70.299 46.0741 70.2571 46.1388 70.2669C46.2046 70.2799 46.2475 70.3437 46.2348 70.4096C46.1858 70.6625 46.1512 70.918 46.131 71.1749C46.129 71.2073 46.1142 71.2375 46.0898 71.2589C46.0655 71.2803 46.0336 71.2912 46.0013 71.2891L46.0013 71.2865ZM59.4299 70.4431C59.382 70.1899 59.3196 69.9395 59.2431 69.6934C59.2333 69.6631 59.236 69.6302 59.2507 69.6019C59.2653 69.5737 59.2905 69.5524 59.3209 69.5429C59.3846 69.5224 59.453 69.5572 59.474 69.6207C59.5523 69.8764 59.6164 70.1363 59.6659 70.399C59.672 70.4304 59.6653 70.4628 59.6472 70.4891C59.6292 70.5155 59.6014 70.5335 59.57 70.5391L59.5492 70.5417C59.491 70.5416 59.441 70.5003 59.4299 70.4431ZM46.2633 69.7428C46.233 69.7333 46.2077 69.712 46.1931 69.6838C46.1785 69.6555 46.1757 69.6226 46.1855 69.5923C46.2656 69.3374 46.3618 69.0879 46.4735 68.8451C46.5007 68.785 46.5715 68.7582 46.6317 68.7854C46.6919 68.8127 46.7186 68.8835 46.6914 68.9437C46.5867 69.1789 46.4949 69.4197 46.4164 69.665C46.3993 69.7145 46.352 69.7471 46.2997 69.7454L46.2996 69.7428C46.2876 69.7452 46.2753 69.7452 46.2633 69.7428ZM58.9706 68.9696C58.8651 68.7348 58.7464 68.5061 58.6152 68.2847C58.5902 68.2284 58.6111 68.1623 58.6639 68.1307C58.7167 68.099 58.7848 68.1116 58.8227 68.1602C58.9588 68.39 59.0818 68.6273 59.1911 68.871C59.2169 68.9327 59.1894 69.0036 59.1289 69.0319C59.1137 69.0399 59.0968 69.0444 59.0796 69.0449V69.0423C59.0316 69.0434 58.9881 69.0143 58.9706 68.9696ZM46.886 68.295C46.8581 68.2788 46.838 68.252 46.8301 68.2207C46.8223 68.1894 46.8275 68.1563 46.8445 68.1289C46.9809 67.8997 47.1307 67.6788 47.2933 67.4674C47.3124 67.4417 47.341 67.4247 47.3727 67.4203C47.4044 67.4159 47.4366 67.4245 47.4619 67.444C47.4876 67.4631 47.5046 67.4917 47.509 67.5234C47.5134 67.5552 47.5048 67.5873 47.4853 67.6127C47.3279 67.8178 47.1824 68.0317 47.0494 68.2535C47.0285 68.2897 46.9901 68.3124 46.9483 68.3131L46.9482 68.3105C46.9265 68.3109 46.905 68.3055 46.886 68.295ZM58.1846 67.644C58.0283 67.4389 57.8611 67.2423 57.6838 67.0551C57.637 67.0076 57.637 66.9313 57.6838 66.8838C57.7063 66.8607 57.7372 66.8476 57.7695 66.8476C57.8017 66.8476 57.8326 66.8607 57.8551 66.8838C58.0391 67.0764 58.2124 67.2791 58.374 67.4909C58.4034 67.5271 58.409 67.5772 58.3884 67.619C58.3677 67.6608 58.3246 67.6868 58.278 67.6855L58.2806 67.6907C58.243 67.6911 58.2074 67.6738 58.1846 67.644ZM47.82 67.0316C47.7968 67.0091 47.7838 66.9782 47.7838 66.9459C47.7838 66.9137 47.7968 66.8828 47.82 66.8603C48.0047 66.6683 48.2004 66.4872 48.4063 66.3181C48.4308 66.2969 48.4629 66.2865 48.4952 66.2895C48.5275 66.2924 48.5573 66.3084 48.5775 66.3337C48.6197 66.386 48.6116 66.4626 48.5594 66.5049C48.3597 66.6662 48.1699 66.8395 47.9912 67.0238C47.9693 67.0502 47.9373 67.0663 47.903 67.0679L47.903 67.0653C47.8721 67.0647 47.8425 67.0527 47.82 67.0316ZM57.1182 66.5177C56.9196 66.3529 56.7118 66.1995 56.4956 66.0585C56.4411 66.0204 56.4263 65.9461 56.4619 65.8899C56.4793 65.8633 56.5067 65.8448 56.5379 65.8385C56.569 65.8321 56.6014 65.8385 56.6279 65.8562C56.851 66.0024 57.0658 66.1609 57.2713 66.3309C57.2966 66.3512 57.3126 66.3809 57.3155 66.4132C57.3185 66.4455 57.3081 66.4776 57.2869 66.5022C57.2673 66.5345 57.2337 66.5556 57.1961 66.5592L57.1961 66.5463C57.1676 66.5459 57.1402 66.5359 57.1182 66.5177ZM49.016 66.0017C48.9985 65.9749 48.9926 65.9422 48.9994 65.911C49.0062 65.8798 49.0253 65.8527 49.0523 65.8356C49.2758 65.6902 49.508 65.5585 49.7476 65.4413C49.7761 65.427 49.8092 65.4247 49.8394 65.4349C49.8696 65.4451 49.8945 65.467 49.9084 65.4957C49.9228 65.5243 49.9251 65.5573 49.9148 65.5875C49.9046 65.6178 49.8827 65.6426 49.854 65.6566C49.6227 65.7705 49.3983 65.8978 49.182 66.038C49.1645 66.0557 49.1418 66.0675 49.1172 66.0717L49.1172 66.0587C49.076 66.058 49.0379 66.0366 49.016 66.0017ZM55.8263 65.6851C55.595 65.5712 55.3577 65.4698 55.1154 65.3816C55.0526 65.3584 55.0201 65.2889 55.0428 65.2259C55.067 65.1641 55.1355 65.1321 55.1984 65.1533C55.4492 65.2443 55.6943 65.35 55.9326 65.4698C55.9613 65.4837 55.9832 65.5086 55.9935 65.5388C56.0037 65.569 56.0014 65.6021 55.9871 65.6306C55.9674 65.6715 55.9261 65.6977 55.8807 65.6981L55.8807 65.6851C55.863 65.6905 55.844 65.6905 55.8263 65.6851ZM50.4072 65.2832C50.397 65.2254 50.4295 65.1686 50.4844 65.148C50.7396 65.0594 50.9994 64.985 51.2627 64.9249C51.2941 64.9171 51.3272 64.9224 51.3546 64.9395C51.382 64.9566 51.4012 64.9841 51.408 65.0157C51.4157 65.0467 51.4104 65.0795 51.3932 65.1065C51.376 65.1334 51.3486 65.1522 51.3172 65.1584C51.0663 65.2183 50.8187 65.291 50.5752 65.3763L50.5259 65.3841C50.4672 65.3834 50.4173 65.3411 50.4072 65.2832ZM54.3734 65.1715C54.1229 65.1118 53.869 65.0668 53.6133 65.0366C53.5473 65.0287 53.5003 64.9689 53.5082 64.903C53.5161 64.8371 53.5759 64.79 53.6418 64.7979C53.9035 64.8298 54.1633 64.8757 54.4201 64.9354C54.4771 64.9523 54.5136 65.0078 54.5065 65.0668C54.4995 65.1258 54.4509 65.1711 54.3916 65.1741L54.4019 65.1715H54.3734ZM51.9553 64.9163C51.952 64.8554 51.9942 64.8015 52.0541 64.79C52.3125 64.761 52.5723 64.7463 52.8324 64.7459C52.9011 64.7458 52.958 64.7993 52.9621 64.8678C52.9643 64.8987 52.9535 64.9292 52.9323 64.9518C52.9111 64.9744 52.8815 64.9873 52.8505 64.9872C52.5905 64.9869 52.3306 65.0016 52.0722 65.0313L52.067 65.0313C52.0063 65.0263 51.9585 64.9772 51.9553 64.9163Z" fill="#E5E5E5"/>
<path fill-rule="evenodd" clip-rule="evenodd" d="M72.1606 44.9327C72.0932 44.9327 72.0386 44.8746 72.0386 44.803C72.0386 44.7314 72.0932 44.6733 72.1606 44.6733H72.9389C73.0062 44.6733 73.0608 44.7314 73.0608 44.803C73.0608 44.8746 73.0062 44.9327 72.9389 44.9327H72.1606ZM70.5857 44.9327C70.5184 44.9327 70.4638 44.8746 70.4638 44.803C70.4638 44.7314 70.5184 44.6733 70.5857 44.6733H71.3641C71.4314 44.6733 71.486 44.7314 71.486 44.803C71.486 44.8746 71.4314 44.9327 71.3641 44.9327H70.5857ZM69.011 44.9327C68.9436 44.9327 68.889 44.8746 68.889 44.803C68.889 44.7314 68.9436 44.6733 69.011 44.6733H69.7893C69.8566 44.6733 69.9112 44.7314 69.9112 44.803C69.9112 44.8746 69.8566 44.9327 69.7893 44.9327H69.011ZM67.4362 44.9327C67.3689 44.9327 67.3143 44.8746 67.3143 44.803C67.3143 44.7314 67.3689 44.6733 67.4362 44.6733H68.2145C68.2819 44.6733 68.3365 44.7314 68.3365 44.803C68.3365 44.8746 68.2819 44.9327 68.2145 44.9327H67.4362ZM65.8614 44.9327C65.794 44.9327 65.7394 44.8746 65.7394 44.803C65.7394 44.7314 65.794 44.6733 65.8614 44.6733H66.6397C66.707 44.6733 66.7616 44.7314 66.7616 44.803C66.7616 44.8746 66.707 44.9327 66.6397 44.9327H65.8614ZM64.2866 44.9327C64.2192 44.9327 64.1647 44.8746 64.1647 44.803C64.1647 44.7314 64.2192 44.6733 64.2866 44.6733H65.0649C65.1323 44.6733 65.1868 44.7314 65.1868 44.803C65.1868 44.8746 65.1323 44.9327 65.0649 44.9327H64.2866ZM62.7117 44.9327C62.6444 44.9327 62.5898 44.8746 62.5898 44.803C62.5898 44.7314 62.6444 44.6733 62.7117 44.6733H63.4901C63.5574 44.6733 63.612 44.7314 63.612 44.803C63.612 44.8746 63.5574 44.9327 63.4901 44.9327H62.7117ZM61.137 44.9326C61.0696 44.9326 61.015 44.8745 61.015 44.8029C61.015 44.7313 61.0696 44.6732 61.137 44.6732H61.9153C61.9826 44.6732 62.0372 44.7313 62.0372 44.8029C62.0372 44.8745 61.9826 44.9326 61.9153 44.9326H61.137Z" fill="#E5E5E5"/>
<path fill-rule="evenodd" clip-rule="evenodd" d="M86.8137 82.4166C86.7816 82.4173 86.7506 82.4041 86.7276 82.38C86.7047 82.3558 86.6917 82.3228 86.6917 82.2882C86.6917 82.2159 86.7463 82.1572 86.8136 82.1572H87.592C87.6593 82.1572 87.7139 82.2158 87.7139 82.2882C87.714 82.3227 87.701 82.3558 87.6781 82.38C87.6551 82.4041 87.6241 82.4173 87.592 82.4166H87.592H86.8137ZM85.2388 82.4166C85.2067 82.4173 85.1757 82.4041 85.1528 82.38C85.1298 82.3558 85.1169 82.3228 85.1169 82.2882C85.1169 82.2159 85.1714 82.1572 85.2388 82.1572H86.0172C86.0845 82.1572 86.1391 82.2158 86.1391 82.2882C86.1391 82.3227 86.1262 82.3558 86.1032 82.38C86.0803 82.4041 86.0493 82.4173 86.0172 82.4166H86.0172H85.2388ZM83.6641 82.4166C83.632 82.4173 83.6009 82.4041 83.578 82.38C83.5551 82.3558 83.5421 82.3228 83.5421 82.2882C83.5421 82.2159 83.5967 82.1572 83.664 82.1572H84.4424C84.5097 82.1572 84.5643 82.2158 84.5643 82.2882C84.5643 82.3227 84.5514 82.3558 84.5285 82.38C84.5055 82.4041 84.4745 82.4173 84.4424 82.4166H84.4424H83.6641ZM82.0893 82.4166C82.0572 82.4173 82.0262 82.4041 82.0032 82.38C81.9803 82.3558 81.9674 82.3228 81.9674 82.2882C81.9673 82.2159 82.0219 82.1572 82.0893 82.1572H82.8676C82.935 82.1572 82.9896 82.2158 82.9896 82.2882C82.9896 82.3227 82.9766 82.3558 82.9537 82.38C82.9308 82.4041 82.8997 82.4173 82.8676 82.4166H82.8676H82.0893ZM80.5145 82.4166C80.4824 82.4173 80.4513 82.4041 80.4284 82.38C80.4054 82.3558 80.3925 82.3228 80.3925 82.2882C80.3925 82.2159 80.4471 82.1572 80.5144 82.1572H81.2928C81.3601 82.1572 81.4147 82.2158 81.4147 82.2882C81.4147 82.3227 81.4018 82.3558 81.3788 82.38C81.3559 82.4041 81.3249 82.4173 81.2928 82.4166H81.2928H80.5145ZM78.9397 82.4166C78.9076 82.4173 78.8766 82.4041 78.8536 82.38C78.8307 82.3558 78.8177 82.3228 78.8177 82.2882C78.8177 82.2159 78.8723 82.1572 78.9396 82.1572H79.718C79.7854 82.1572 79.8399 82.2158 79.8399 82.2882C79.8399 82.3228 79.827 82.3559 79.8041 82.38C79.7811 82.4041 79.7501 82.4173 79.718 82.4166H79.718H78.9397ZM77.3649 82.4166C77.3328 82.4173 77.3018 82.4041 77.2788 82.38C77.2559 82.3558 77.243 82.3228 77.243 82.2882C77.2429 82.2159 77.2975 82.1572 77.3649 82.1572H78.1432C78.2106 82.1572 78.2652 82.2158 78.2652 82.2882C78.2652 82.3228 78.2523 82.3559 78.2293 82.38C78.2064 82.4041 78.1753 82.4173 78.1432 82.4166H78.1432H77.3649ZM75.7901 82.4166C75.758 82.4173 75.7269 82.4041 75.704 82.38C75.6811 82.3558 75.6681 82.3228 75.6681 82.2882C75.6681 82.2159 75.7227 82.1572 75.79 82.1572H76.5684C76.6357 82.1572 76.6903 82.2158 76.6903 82.2882C76.6903 82.3228 76.6774 82.3559 76.6545 82.38C76.6315 82.4041 76.6005 82.4173 76.5684 82.4166H76.5684H75.7901ZM74.2153 82.4166C74.1832 82.4173 74.1522 82.4041 74.1292 82.38C74.1063 82.3558 74.0934 82.3228 74.0934 82.2882C74.0933 82.2159 74.1479 82.1572 74.2153 82.1572H74.9936C75.061 82.1572 75.1156 82.2158 75.1156 82.2882C75.1156 82.3228 75.1026 82.3559 75.0797 82.38C75.0567 82.4041 75.0257 82.4173 74.9936 82.4166H74.9936H74.2153ZM72.6405 82.4166C72.6084 82.4173 72.5773 82.4041 72.5544 82.38C72.5314 82.3558 72.5185 82.3228 72.5185 82.2882C72.5185 82.2159 72.5731 82.1572 72.6404 82.1572H73.4188C73.4861 82.1572 73.5407 82.2158 73.5407 82.2882C73.5407 82.3227 73.5278 82.3558 73.5049 82.38C73.4819 82.4041 73.4509 82.4173 73.4188 82.4166H73.4188H72.6405ZM71.0657 82.4166C71.0336 82.4173 71.0026 82.4042 70.9796 82.38C70.9567 82.3559 70.9437 82.3228 70.9438 82.2883C70.9437 82.2159 70.9983 82.1572 71.0656 82.1572H71.844C71.9114 82.1572 71.966 82.2159 71.966 82.2883C71.966 82.3228 71.953 82.3559 71.9301 82.38C71.9072 82.4041 71.8761 82.4173 71.844 82.4166H71.844H71.0657Z" fill="#E5E5E5"/>
<path fill-rule="evenodd" clip-rule="evenodd" d="M69.4546 38.0887C69.3873 38.0887 69.3327 38.0306 69.3327 37.9589C69.3327 37.8873 69.3873 37.8292 69.4546 37.8292H69.7504C69.8177 37.8292 69.8723 37.8873 69.8723 37.9589C69.8723 38.0306 69.8177 38.0887 69.7504 38.0887H69.4546ZM67.8902 38.0887C67.8229 38.0887 67.7683 38.0306 67.7683 37.9589C67.7683 37.8873 67.8229 37.8292 67.8902 37.8292H68.6685C68.7359 37.8292 68.7905 37.8873 68.7905 37.9589C68.7905 38.0306 68.7359 38.0887 68.6685 38.0887H67.8902ZM66.3154 38.0887C66.2481 38.0887 66.1935 38.0306 66.1935 37.9589C66.1935 37.8873 66.2481 37.8292 66.3154 37.8292H67.0938C67.1611 37.8292 67.2157 37.8873 67.2157 37.9589C67.2157 38.0306 67.1611 38.0887 67.0938 38.0887H66.3154ZM64.7406 38.0887C64.6733 38.0887 64.6187 38.0306 64.6187 37.9589C64.6187 37.8873 64.6733 37.8292 64.7406 37.8292H65.5189C65.5863 37.8292 65.6409 37.8873 65.6409 37.9589C65.6409 38.0306 65.5863 38.0887 65.5189 38.0887H64.7406ZM63.1658 38.0887C63.0984 38.0887 63.0438 38.0306 63.0438 37.9589C63.0438 37.8873 63.0984 37.8292 63.1658 37.8292H63.9441C64.0114 37.8292 64.066 37.8873 64.066 37.9589C64.066 38.0306 64.0114 38.0887 63.9441 38.0887H63.1658ZM61.591 38.0887C61.5237 38.0887 61.4691 38.0306 61.4691 37.9589C61.4691 37.8873 61.5237 37.8292 61.591 37.8292H62.3693C62.4367 37.8292 62.4913 37.8873 62.4913 37.9589C62.4913 38.0306 62.4367 38.0887 62.3693 38.0887H61.591ZM60.0162 38.0887C59.9489 38.0887 59.8943 38.0306 59.8943 37.9589C59.8943 37.8873 59.9489 37.8292 60.0162 37.8292H60.7946C60.8619 37.8292 60.9165 37.8873 60.9165 37.9589C60.9165 38.0306 60.8619 38.0887 60.7946 38.0887H60.0162ZM58.4414 38.0887C58.374 38.0887 58.3195 38.0306 58.3195 37.9589C58.3195 37.8873 58.374 37.8292 58.4414 37.8292H59.2197C59.2871 37.8292 59.3416 37.8873 59.3416 37.9589C59.3416 38.0306 59.2871 38.0887 59.2197 38.0887H58.4414ZM56.8666 38.0887C56.7993 38.0887 56.7447 38.0306 56.7447 37.9589C56.7447 37.8873 56.7993 37.8292 56.8666 37.8292H57.6449C57.7123 37.8292 57.7669 37.8873 57.7669 37.9589C57.7669 38.0306 57.7123 38.0887 57.6449 38.0887H56.8666ZM55.2919 38.0887C55.2245 38.0887 55.1699 38.0306 55.1699 37.9589C55.1699 37.8873 55.2245 37.8292 55.2919 37.8292H56.0702C56.1375 37.8292 56.1921 37.8873 56.1921 37.9589C56.1921 38.0306 56.1375 38.0887 56.0702 38.0887H55.2919ZM53.717 38.0887C53.6497 38.0887 53.5951 38.0306 53.5951 37.9589C53.5951 37.8873 53.6497 37.8292 53.717 37.8292H54.4953C54.5627 37.8292 54.6173 37.8873 54.6173 37.9589C54.6173 38.0306 54.5627 38.0887 54.4953 38.0887H53.717ZM52.1422 38.0887C52.0749 38.0887 52.0203 38.0306 52.0203 37.9589C52.0203 37.8873 52.0749 37.8292 52.1422 37.8292H52.9206C52.9879 37.8292 53.0425 37.8873 53.0425 37.9589C53.0425 38.0306 52.9879 38.0887 52.9206 38.0887H52.1422ZM50.5674 38.0887C50.5001 38.0887 50.4455 38.0306 50.4455 37.9589C50.4455 37.8873 50.5001 37.8292 50.5674 37.8292H51.3457C51.4131 37.8292 51.4677 37.8873 51.4677 37.9589C51.4677 38.0306 51.4131 38.0887 51.3457 38.0887H50.5674ZM48.9926 38.0887C48.9253 38.0887 48.8707 38.0306 48.8707 37.959C48.8707 37.8874 48.9253 37.8293 48.9926 37.8293H49.771C49.8383 37.8293 49.8929 37.8874 49.8929 37.959C49.8929 38.0306 49.8383 38.0887 49.771 38.0887H48.9926Z" fill="#E5E5E5"/>
<path fill-rule="evenodd" clip-rule="evenodd" d="M45.2023 71.8418C45.1349 71.8418 45.0803 71.7838 45.0803 71.7121C45.0803 71.6405 45.1349 71.5824 45.2023 71.5824H45.9806C46.0479 71.5824 46.1025 71.6405 46.1025 71.7121C46.1025 71.7838 46.0479 71.8418 45.9806 71.8418H45.2023ZM43.6274 71.8418C43.5601 71.8418 43.5055 71.7838 43.5055 71.7121C43.5055 71.6405 43.5601 71.5824 43.6274 71.5824H44.4057C44.4731 71.5824 44.5277 71.6405 44.5277 71.7121C44.5277 71.7838 44.4731 71.8418 44.4057 71.8418H43.6274ZM42.0527 71.8418C41.9853 71.8418 41.9307 71.7838 41.9307 71.7121C41.9307 71.6405 41.9853 71.5824 42.0527 71.5824H42.831C42.8983 71.5824 42.9529 71.6405 42.9529 71.7121C42.9529 71.7838 42.8983 71.8418 42.831 71.8418H42.0527ZM40.4778 71.8418C40.4105 71.8418 40.3559 71.7838 40.3559 71.7121C40.3559 71.6405 40.4105 71.5824 40.4778 71.5824H41.2561C41.3235 71.5824 41.3781 71.6405 41.3781 71.7121C41.3781 71.7838 41.3235 71.8418 41.2561 71.8418H40.4778ZM38.903 71.8418C38.8357 71.8418 38.7811 71.7837 38.7811 71.7121C38.7811 71.6404 38.8357 71.5823 38.903 71.5823H39.6814C39.7487 71.5823 39.8033 71.6404 39.8033 71.7121C39.8033 71.7837 39.7487 71.8418 39.6814 71.8418H38.903Z" fill="#E5E5E5"/>
<path fill-rule="evenodd" clip-rule="evenodd" d="M36.093 74.3077C36.093 74.2472 36.1373 74.1958 36.1972 74.187C36.4467 74.173 36.6927 74.1205 36.9262 74.0314C36.968 74.0083 37.0194 74.0117 37.0577 74.04C37.0961 74.0684 37.1144 74.1166 37.1045 74.1633C37.0946 74.21 37.0584 74.2467 37.0118 74.2571C36.7547 74.3541 36.4844 74.4119 36.2101 74.4283H36.1972C36.1373 74.4195 36.093 74.3681 36.093 74.3077ZM35.3903 74.3606C35.1232 74.2953 34.8677 74.1895 34.6327 74.0467C34.5762 74.013 34.5576 73.9399 34.5912 73.8833C34.6069 73.8548 34.6337 73.8342 34.6652 73.8263C34.6967 73.8184 34.7301 73.824 34.7573 73.8418C34.9716 73.9705 35.2043 74.0658 35.4474 74.1245C35.5123 74.14 35.5528 74.2047 35.5382 74.2698C35.5229 74.3243 35.4728 74.3616 35.4162 74.3606L35.4188 74.3606H35.3903ZM37.554 73.8316C37.5341 73.8061 37.525 73.7738 37.5289 73.7417C37.5328 73.7096 37.5493 73.6803 37.5748 73.6604C37.7742 73.506 37.9492 73.3223 38.0937 73.1155C38.1182 73.0803 38.1597 73.0608 38.2025 73.0645C38.2453 73.0681 38.2829 73.0944 38.3011 73.1333C38.3193 73.1722 38.3154 73.2178 38.2908 73.253C38.1352 73.4791 37.9463 73.6802 37.7305 73.8497C37.707 73.8685 37.6774 73.8778 37.6474 73.8757L37.65 73.8757C37.6131 73.876 37.5779 73.8598 37.554 73.8316ZM33.9997 73.5229C33.8172 73.317 33.666 73.0854 33.5509 72.8354C33.5273 72.7953 33.5286 72.7453 33.5542 72.7065C33.5799 72.6677 33.6253 72.6468 33.6715 72.6527C33.7176 72.6586 33.7564 72.6902 33.7714 72.7342C33.875 72.9633 34.0133 73.1751 34.1813 73.3621C34.2278 73.4087 34.2278 73.4841 34.1813 73.5307C34.1559 73.5538 34.122 73.5651 34.0879 73.5619H34.0905C34.0562 73.5617 34.0235 73.5476 33.9997 73.5229ZM38.4932 72.599C38.4628 72.5895 38.4375 72.5682 38.4229 72.54C38.4083 72.5117 38.4056 72.4788 38.4153 72.4486C38.4888 72.2089 38.5264 71.9598 38.5269 71.7091C38.5272 71.5007 38.501 71.2932 38.449 71.0915C38.4326 71.0272 38.4707 70.9615 38.5347 70.9438C38.5999 70.9274 38.666 70.9669 38.6826 71.032C38.7399 71.2531 38.7686 71.4807 38.7682 71.7091C38.7681 71.9841 38.727 72.2577 38.6463 72.5209C38.6275 72.57 38.5794 72.6014 38.5269 72.599L38.5295 72.599C38.5175 72.6014 38.5052 72.6014 38.4932 72.599ZM33.3278 72.0465C33.3144 71.9328 33.3075 71.8185 33.307 71.704C33.3064 71.544 33.3203 71.3842 33.3485 71.2266C33.3536 71.1948 33.3713 71.1663 33.3977 71.1477C33.4241 71.1292 33.4569 71.1221 33.4886 71.1281C33.5543 71.1399 33.5982 71.2024 33.5872 71.2682C33.5612 71.412 33.5481 71.5579 33.5483 71.704C33.5479 71.8081 33.5539 71.9121 33.5665 72.0154C33.5716 72.0472 33.5634 72.0798 33.5437 72.1053C33.5241 72.1308 33.4947 72.1471 33.4627 72.1503H33.4471C33.3868 72.1508 33.3356 72.1063 33.3278 72.0465ZM33.6651 70.6119C33.6059 70.5808 33.5828 70.5079 33.6132 70.4484C33.739 70.2036 33.9018 69.9796 34.0957 69.7843C34.1248 69.7473 34.1726 69.7304 34.2184 69.7407C34.2643 69.7511 34.3002 69.7869 34.3105 69.8328C34.3209 69.8787 34.3039 69.9264 34.267 69.9555C34.0908 70.134 33.9422 70.3377 33.8259 70.56C33.8055 70.6012 33.7629 70.6266 33.7169 70.6249L33.7196 70.6249C33.7007 70.6246 33.6821 70.6201 33.6651 70.6119ZM38.156 70.3966C38.0247 70.1832 37.861 69.9915 37.6708 69.8284C37.624 69.7809 37.624 69.7046 37.6708 69.6571C37.7153 69.6079 37.7906 69.6022 37.842 69.6442C38.0455 69.8263 38.2204 70.0379 38.3609 70.272C38.3781 70.2991 38.3837 70.332 38.3764 70.3632C38.3691 70.3945 38.3495 70.4214 38.322 70.4381C38.3021 70.4492 38.2799 70.4554 38.2571 70.4562L38.2597 70.4562C38.2169 70.4564 38.1774 70.4336 38.156 70.3966ZM34.7028 69.4573C34.6873 69.4292 34.6838 69.396 34.693 69.3652C34.7023 69.3345 34.7236 69.3087 34.7521 69.2939C34.9958 69.1633 35.2584 69.0714 35.5304 69.0215C35.5963 69.0088 35.66 69.0516 35.6731 69.1175C35.6791 69.1488 35.6724 69.1812 35.6544 69.2076C35.6363 69.2339 35.6085 69.2519 35.5771 69.2575C35.3298 69.3069 35.0918 69.3945 34.8714 69.517C34.852 69.5291 34.8295 69.5355 34.8065 69.5352L34.8092 69.5222C34.7642 69.5229 34.7228 69.4976 34.7028 69.4573ZM37.0404 69.4366C36.8116 69.3345 36.5683 69.2688 36.3191 69.242C36.2578 69.2292 36.2162 69.172 36.2229 69.1097C36.2296 69.0474 36.2824 69.0003 36.3451 69.0008C36.6191 69.0317 36.8868 69.1043 37.139 69.2161C37.1992 69.2433 37.2268 69.3134 37.2012 69.3743C37.1779 69.4149 37.1338 69.439 37.0871 69.4366L37.0897 69.4366C37.0735 69.4403 37.0566 69.4403 37.0404 69.4366Z" fill="#E5E5E5"/>
<path fill-rule="evenodd" clip-rule="evenodd" d="M95.9299 31.8993C95.9299 31.8388 95.9743 31.7874 96.0341 31.7786C96.2847 31.764 96.5315 31.7106 96.7657 31.6204C96.8075 31.5973 96.8589 31.6007 96.8973 31.6291C96.9356 31.6575 96.9539 31.7056 96.944 31.7523C96.9342 31.799 96.8979 31.8357 96.8514 31.8461C96.5944 31.944 96.3241 32.0026 96.0497 32.0199H96.0341C95.9743 32.0111 95.9299 31.9598 95.9299 31.8993ZM95.2273 31.9527C94.9595 31.8884 94.7032 31.7834 94.4672 31.6414C94.4186 31.6035 94.4059 31.5354 94.4376 31.4826C94.4693 31.4298 94.5354 31.4089 94.5917 31.4339C94.8069 31.5634 95.0404 31.6596 95.2844 31.7192C95.3155 31.7266 95.3423 31.7461 95.3589 31.7734C95.3755 31.8007 95.3804 31.8336 95.3726 31.8645C95.3574 31.9176 95.3084 31.9537 95.2533 31.9527H95.2558H95.2273ZM97.3696 31.3864C97.353 31.3372 97.3701 31.283 97.4118 31.2522C97.6114 31.098 97.7863 30.9143 97.9306 30.7074C97.9712 30.66 98.041 30.6509 98.0924 30.6863C98.1438 30.7216 98.1602 30.7901 98.1304 30.8449C97.9731 31.0704 97.7834 31.2714 97.5674 31.4416C97.5435 31.4613 97.5127 31.4706 97.4818 31.4675H97.4844C97.4326 31.4683 97.3862 31.4355 97.3696 31.3864ZM93.8367 31.1119C93.6533 30.9076 93.502 30.6766 93.3879 30.427C93.3739 30.3978 93.3723 30.3642 93.3836 30.3339C93.3948 30.3036 93.4179 30.2791 93.4475 30.2661C93.5085 30.24 93.5792 30.2662 93.6084 30.3258C93.7127 30.5539 93.8499 30.7655 94.0157 30.9536C94.0387 30.9757 94.0517 31.0061 94.0517 31.038C94.0517 31.0698 94.0387 31.1003 94.0157 31.1223C93.9911 31.1466 93.9566 31.1581 93.9223 31.1534H93.9249C93.8908 31.1535 93.8584 31.1382 93.8367 31.1119ZM98.3302 30.1911C98.2669 30.1712 98.2312 30.1043 98.2498 30.0406C98.3245 29.8013 98.3621 29.5519 98.3613 29.3012C98.3615 29.0921 98.3354 28.8837 98.2835 28.6811C98.271 28.6176 98.3105 28.5554 98.3733 28.5395C98.4361 28.5236 98.5003 28.5596 98.5196 28.6215C98.5746 28.8439 98.6025 29.0721 98.6026 29.3012C98.6025 29.5754 98.5614 29.8482 98.4807 30.1105C98.463 30.1596 98.4161 30.192 98.3639 30.1911L98.3665 30.1911H98.3302ZM93.1647 29.636C93.1492 29.5234 93.1414 29.4098 93.1414 29.2961C93.1418 29.1351 93.1566 28.9745 93.1855 28.8162C93.1912 28.7848 93.2092 28.7569 93.2355 28.7389C93.2618 28.7209 93.2943 28.7141 93.3256 28.7202C93.3574 28.7252 93.3856 28.743 93.4038 28.7695C93.422 28.796 93.4284 28.8289 93.4216 28.8603C93.3964 29.0042 93.3843 29.1501 93.3853 29.2961C93.3836 29.4002 93.3896 29.5043 93.4034 29.6075C93.4111 29.674 93.3636 29.7343 93.2971 29.7424L93.2841 29.7424C93.2229 29.7427 93.1714 29.6968 93.1647 29.636ZM93.489 28.2037C93.4299 28.1726 93.4067 28.0997 93.4371 28.0402C93.5648 27.7965 93.7274 27.5728 93.9197 27.3761C93.9672 27.3293 94.0435 27.3293 94.0909 27.3761C94.1141 27.3985 94.1271 27.4294 94.1271 27.4617C94.1271 27.494 94.1141 27.5248 94.0909 27.5473C93.9142 27.7247 93.7662 27.9287 93.6525 28.1518C93.6321 28.1893 93.5939 28.2138 93.5513 28.2167L93.5435 28.2167C93.5247 28.216 93.5061 28.2116 93.489 28.2037ZM97.9799 27.9884C97.8489 27.7748 97.6862 27.5824 97.4974 27.4177C97.4484 27.3741 97.4427 27.2996 97.4844 27.249C97.5069 27.2259 97.5378 27.2128 97.57 27.2128C97.6023 27.2128 97.6332 27.2259 97.6556 27.249C97.8628 27.43 98.042 27.6408 98.1875 27.8743C98.2204 27.9312 98.2033 28.0039 98.1486 28.0403C98.1303 28.0468 98.1106 28.0486 98.0915 28.0455L98.0837 28.0455C98.0418 28.0447 98.003 28.0234 97.9799 27.9884ZM94.5501 27.0493C94.5338 27.0214 94.5299 26.9879 94.5392 26.9569C94.5486 26.9259 94.5704 26.9002 94.5994 26.8859C94.843 26.7549 95.1056 26.663 95.3777 26.6135C95.4199 26.6056 95.4631 26.6208 95.491 26.6534C95.5189 26.686 95.5273 26.731 95.5131 26.7714C95.4988 26.8119 95.464 26.8417 95.4218 26.8496C95.1747 26.8994 94.9367 26.9869 94.7162 27.109C94.6969 27.1155 94.6762 27.1164 94.6565 27.1116H94.6565C94.6122 27.1122 94.5713 27.0882 94.5501 27.0493ZM96.8877 27.0285C96.6582 26.9255 96.414 26.859 96.1639 26.8313C96.0992 26.822 96.0527 26.7642 96.0575 26.699C96.0656 26.6325 96.1259 26.585 96.1924 26.5926C96.4654 26.6231 96.7322 26.6948 96.9837 26.8054C97.0133 26.8185 97.0365 26.8428 97.0482 26.8729C97.0598 26.9031 97.059 26.9367 97.046 26.9662C97.021 27.0104 96.9718 27.0351 96.9215 27.0285L96.9344 27.0285C96.919 27.0309 96.9032 27.0309 96.8877 27.0285Z" fill="#E5E5E5"/>
<path fill-rule="evenodd" clip-rule="evenodd" d="M90.4718 44.3335C90.4718 44.0741 90.4406 43.8146 90.4095 43.5552C90.4076 43.4919 90.4543 43.4377 90.5171 43.4303C90.5799 43.4229 90.638 43.4647 90.6508 43.5266C90.6819 43.7861 90.7027 44.0585 90.7131 44.3205C90.7145 44.3529 90.7029 44.3844 90.681 44.4083C90.6591 44.4321 90.6287 44.4463 90.5963 44.4476L90.5911 44.4502C90.5268 44.4489 90.4745 44.3978 90.4718 44.3335ZM90.2927 42.7949C90.246 42.5354 90.1864 42.276 90.1215 42.0347C90.1043 41.971 90.1421 41.9053 90.2058 41.8881C90.2696 41.871 90.3352 41.9087 90.3524 41.9725C90.4225 42.2319 90.4821 42.4913 90.5314 42.7508C90.5441 42.8167 90.5012 42.8804 90.4354 42.8935L90.4121 42.8935C90.3542 42.8923 90.3048 42.8515 90.2927 42.7949ZM89.8933 41.2901C89.8077 41.0488 89.7143 40.805 89.6105 40.5663C89.585 40.5054 89.6126 40.4352 89.6727 40.408C89.7344 40.3823 89.8053 40.4097 89.8336 40.4703C89.9374 40.7142 90.0334 40.9632 90.1216 41.2123C90.1423 41.2753 90.1088 41.3433 90.0463 41.3653L90.0074 41.3731C89.9551 41.3742 89.9084 41.3403 89.8933 41.2901ZM89.2758 39.8633C89.159 39.6376 89.0293 39.4093 88.8918 39.1888C88.858 39.1314 88.8765 39.0574 88.9333 39.0227C88.9604 39.0055 88.9933 38.9999 89.0246 39.0073C89.0558 39.0146 89.0828 39.0342 89.0994 39.0616C89.2369 39.2873 89.3588 39.5208 89.4911 39.7517C89.5215 39.8112 89.4984 39.8841 89.4392 39.9152C89.4223 39.9233 89.4035 39.9269 89.3848 39.9256V39.9307C89.3389 39.9296 89.2973 39.9038 89.2758 39.8633ZM88.4612 38.5426C88.3107 38.3325 88.1498 38.1275 87.9812 37.9278C87.9443 37.8758 87.9536 37.8042 88.0025 37.7634C88.0515 37.7226 88.1236 37.7264 88.168 37.7721C88.3392 37.977 88.5027 38.1872 88.6557 38.3999C88.6944 38.4538 88.6829 38.5288 88.6298 38.5686C88.608 38.5818 88.5826 38.5881 88.5571 38.5867V38.5919C88.5192 38.5913 88.4837 38.5731 88.4612 38.5426ZM87.4597 37.3493C87.2806 37.1651 87.0913 36.9835 86.8993 36.8123C86.8569 36.7662 86.8563 36.6957 86.8977 36.6489C86.9392 36.6021 87.0093 36.5942 87.0601 36.6307C87.2573 36.8071 87.4493 36.9913 87.6335 37.1807C87.6566 37.2031 87.6697 37.234 87.6697 37.2663C87.6697 37.2985 87.6566 37.3294 87.6335 37.3519C87.6099 37.3725 87.5791 37.3828 87.5479 37.3804L87.5479 37.3856C87.5146 37.3866 87.4826 37.3734 87.4597 37.3493ZM86.3 36.3218C86.0924 36.1635 85.8797 36.0131 85.6644 35.8704C85.614 35.8311 85.6024 35.7597 85.6379 35.7065C85.6733 35.6534 85.7437 35.6366 85.7993 35.668C86.0172 35.8133 86.2351 35.969 86.4453 36.1298C86.4711 36.1494 86.4881 36.1784 86.4925 36.2106C86.4969 36.2427 86.4883 36.2753 86.4686 36.301C86.4419 36.3232 86.4069 36.3327 86.3726 36.327L86.3726 36.3477C86.3461 36.3482 86.3202 36.339 86.3 36.3218ZM84.9976 35.4528C84.7719 35.3282 84.541 35.2089 84.3049 35.0973C84.2454 35.0682 84.2191 34.9974 84.2452 34.9365C84.2744 34.8769 84.3459 34.8515 84.4061 34.8794C84.6473 34.991 84.886 35.1129 85.1143 35.2426C85.1424 35.2579 85.1631 35.2839 85.1719 35.3146C85.1807 35.3453 85.1768 35.3783 85.161 35.4061C85.1412 35.445 85.1009 35.4691 85.0573 35.4683C85.0364 35.4685 85.0158 35.4631 84.9976 35.4528ZM83.5862 34.8016C83.3476 34.7108 83.0985 34.6252 82.8494 34.5422C82.7871 34.5211 82.7519 34.4552 82.769 34.3917C82.7773 34.3604 82.7983 34.334 82.8268 34.3188C82.8553 34.3035 82.8889 34.3008 82.9195 34.3113C83.1789 34.3865 83.4384 34.4721 83.6745 34.5707C83.7264 34.5935 83.7558 34.6492 83.7453 34.705C83.7347 34.7608 83.6871 34.8019 83.6303 34.8042L83.6304 34.8016C83.6158 34.8041 83.6008 34.8041 83.5862 34.8016ZM82.0971 34.3527C81.8376 34.2983 81.5782 34.2516 81.3188 34.2152C81.2532 34.2046 81.2082 34.1435 81.2176 34.0777C81.2214 34.046 81.2379 34.0171 81.2633 33.9976C81.2886 33.9781 81.3208 33.9695 81.3525 33.974C81.6119 34.0129 81.8713 34.0622 82.1308 34.1192C82.1955 34.1335 82.237 34.1969 82.2242 34.2619C82.2118 34.3088 82.1733 34.3442 82.1256 34.3527L82.123 34.3527H82.0971ZM80.5664 34.1245C80.307 34.1063 80.0475 34.0985 79.7881 34.0985C79.7207 34.0985 79.6662 34.044 79.6662 33.9766C79.6662 33.9093 79.7207 33.8547 79.7881 33.8547C80.0475 33.8547 80.3225 33.8547 80.5846 33.8832C80.6503 33.89 80.6992 33.9469 80.6961 34.0129C80.6906 34.0782 80.6345 34.1275 80.569 34.1245L80.5664 34.1245Z" fill="#E5E5E5"/>
<path fill-rule="evenodd" clip-rule="evenodd" d="M84.611 40.1072C84.5924 40.0619 84.6026 40.0099 84.6369 39.9751L85.1947 39.4199C85.2238 39.3829 85.2716 39.366 85.3174 39.3763C85.3633 39.3867 85.3991 39.4225 85.4095 39.4684C85.4199 39.5143 85.4029 39.562 85.366 39.5911L84.7978 40.1463C84.7778 40.1669 84.7511 40.1797 84.7226 40.1826V40.1826C84.6736 40.1821 84.6297 40.1524 84.611 40.1072ZM85.7499 39.0331C85.7031 38.9856 85.7031 38.9094 85.7499 38.8619L86.3077 38.3041C86.3563 38.2659 86.4257 38.27 86.4694 38.3137C86.513 38.3574 86.5172 38.4268 86.479 38.4753L85.9212 39.0331C85.8986 39.056 85.8678 39.0691 85.8356 39.0694V39.0694C85.8035 39.0686 85.7729 39.0556 85.7499 39.0331ZM86.8655 37.9201C86.8187 37.8726 86.8187 37.7963 86.8655 37.7488L87.4207 37.191C87.4692 37.1529 87.5387 37.157 87.5823 37.2006C87.626 37.2443 87.6301 37.3137 87.5919 37.3623L87.0342 37.9201C87.0121 37.9419 86.9822 37.954 86.9511 37.9538H86.9511C86.9192 37.9544 86.8884 37.9423 86.8655 37.9201ZM87.9785 36.8071C87.9317 36.7596 87.9317 36.6834 87.9785 36.6359L88.5363 36.0781C88.5829 36.0316 88.6584 36.0316 88.7049 36.0781C88.7288 36.1002 88.7423 36.1312 88.7423 36.1637C88.7423 36.1962 88.7288 36.2272 88.705 36.2493L88.1497 36.8071C88.1277 36.8313 88.0968 36.8453 88.0641 36.846V36.8409C88.0322 36.8415 88.0014 36.8294 87.9785 36.8071ZM89.0915 35.6917C89.045 35.6451 89.045 35.5697 89.0915 35.5231L89.6493 34.9653C89.6978 34.9271 89.7672 34.9312 89.8109 34.9749C89.8546 35.0186 89.8587 35.088 89.8205 35.1365L89.2627 35.6917C89.2401 35.7147 89.2093 35.7277 89.1771 35.728V35.728C89.1449 35.7277 89.1141 35.7147 89.0915 35.6917ZM90.1786 34.5393C90.1599 34.494 90.1701 34.442 90.2045 34.4071L90.7623 33.8519C90.8108 33.8137 90.8802 33.8179 90.9239 33.8615C90.9676 33.9052 90.9717 33.9746 90.9335 34.0232L90.3757 34.5784C90.3531 34.6013 90.3223 34.6144 90.2901 34.6147V34.6147C90.2411 34.6142 90.1972 34.5845 90.1786 34.5393ZM91.3201 33.4657C91.2963 33.4436 91.2827 33.4126 91.2827 33.3801C91.2827 33.3476 91.2963 33.3166 91.3201 33.2945L91.8753 32.7393C91.8974 32.7154 91.9284 32.7019 91.9609 32.7019C91.9934 32.7019 92.0245 32.7154 92.0466 32.7393C92.0931 32.7859 92.0931 32.8613 92.0466 32.9079L91.4887 33.4735C91.4649 33.4936 91.4343 33.5038 91.4031 33.502L91.4031 33.502C91.3718 33.501 91.3421 33.488 91.3201 33.4657ZM92.4331 32.3525C92.3863 32.3051 92.3863 32.2288 92.4331 32.1813L92.9883 31.6235C93.0369 31.5853 93.1063 31.5894 93.1499 31.6331C93.1936 31.6768 93.1977 31.7462 93.1596 31.7947L92.6044 32.3525C92.5815 32.3748 92.5506 32.3869 92.5187 32.3863V32.3863C92.4868 32.3869 92.456 32.3748 92.4331 32.3525ZM93.5461 31.237C93.4996 31.1904 93.4996 31.1149 93.5461 31.0683L93.7355 30.879C93.784 30.8408 93.8535 30.8449 93.8971 30.8886C93.9408 30.9322 93.9449 31.0017 93.9067 31.0502L93.7173 31.237C93.6955 31.261 93.6642 31.2742 93.6317 31.2733V31.2733C93.5993 31.2742 93.568 31.261 93.5461 31.237Z" fill="#E5E5E5"/>
<path fill-rule="evenodd" clip-rule="evenodd" d="M9.09111 65.8589C6.63422 66.877 3.80594 66.3146 1.92549 64.434C0.0450503 62.5533 -0.517103 59.725 0.501242 57.2682C1.51959 54.8114 3.91781 53.2102 6.5773 53.2113C10.2066 53.2115 13.1486 56.1537 13.1486 59.7829C13.1495 62.4427 11.548 64.8408 9.09111 65.8589Z" fill="#F2F2F2"/>
<path fill-rule="evenodd" clip-rule="evenodd" d="M126.473 42.5503C125.858 42.8048 125.15 42.6636 124.68 42.1926C124.21 41.7217 124.069 41.0138 124.325 40.3992C124.58 39.7847 125.181 39.3846 125.846 39.3856C126.282 39.3856 126.7 39.559 127.008 39.8675C127.317 40.1761 127.489 40.5945 127.489 41.0305C127.489 41.696 127.088 42.2959 126.473 42.5503Z" fill="#F2F2F2"/>
<path fill-rule="evenodd" clip-rule="evenodd" d="M7.78952 20.1424C8.842 9.95016 16.6628 1.76433 26.7965 0.248379C36.9301 -1.26757 46.8041 4.27118 50.7932 13.7092L50.5337 13.8207C46.5946 4.50621 36.8487 -0.959454 26.8468 0.536713C16.8449 2.03288 9.125 10.1112 8.08402 20.1707C7.04304 30.2302 12.9451 39.7182 22.4287 43.2308L22.3301 43.5006C12.7201 39.9458 6.73704 30.3346 7.78952 20.1424Z" fill="#F94F24"/>
<path fill-rule="evenodd" clip-rule="evenodd" d="M3.7854 90.6187C3.7897 85.4428 7.98826 81.2501 13.1641 81.2529C18.34 81.2558 22.5339 85.4532 22.5325 90.6291C22.5271 95.8065 18.3273 100.001 13.1492 100H13.1485C7.97271 99.9943 3.7811 95.7945 3.7854 90.6187ZM4.06818 90.6211C4.06818 95.6361 8.13359 99.7015 13.1485 99.7015C18.1635 99.7015 22.2289 95.6361 22.2289 90.6211C22.2193 85.6114 18.1596 81.5523 13.1492 81.5434L13.1485 81.5408C8.13359 81.5408 4.06818 85.6062 4.06818 90.6211Z" fill="#F94F24"/>
<path fill-rule="evenodd" clip-rule="evenodd" d="M95.5049 12.599C95.2807 12.5816 95.1077 12.3945 95.1077 12.1696C95.1077 11.9447 95.2807 11.7577 95.5049 11.7403H97.2951C97.4564 11.7277 97.6112 11.8067 97.6957 11.9447C97.7803 12.0827 97.7803 12.2565 97.6957 12.3945C97.6112 12.5326 97.4564 12.6116 97.2951 12.599H95.5049ZM90.7287 12.599C90.5045 12.5816 90.3314 12.3945 90.3314 12.1696C90.3314 11.9447 90.5045 11.7577 90.7287 11.7403H92.5188C92.6802 11.7277 92.835 11.8067 92.9195 11.9447C93.004 12.0827 93.004 12.2565 92.9195 12.3945C92.835 12.5326 92.6802 12.6116 92.5188 12.599H90.7287ZM85.9524 12.599C85.7282 12.5816 85.5552 12.3945 85.5552 12.1696C85.5552 11.9447 85.7282 11.7577 85.9524 11.7403H87.7426C87.9039 11.7277 88.0587 11.8067 88.1432 11.9447C88.2278 12.0827 88.2278 12.2565 88.1432 12.3945C88.0587 12.5326 87.9039 12.6116 87.7426 12.599H85.9524ZM81.1658 12.5988C80.9415 12.5814 80.7685 12.3943 80.7685 12.1694C80.7685 11.9445 80.9415 11.7575 81.1658 11.7401H82.9818C83.2061 11.7575 83.3791 11.9445 83.3791 12.1694C83.3791 12.3943 83.2061 12.5814 82.9818 12.5988H82.9689H81.1658ZM76.3999 12.5988C76.1757 12.5814 76.0026 12.3943 76.0026 12.1694C76.0026 11.9445 76.1757 11.7575 76.3999 11.7401H78.1926C78.4168 11.7575 78.5899 11.9445 78.5899 12.1694C78.5899 12.3943 78.4168 12.5814 78.1926 12.5988H76.3999ZM71.6236 12.5988C71.3994 12.5814 71.2264 12.3943 71.2264 12.1694C71.2264 11.9445 71.3994 11.7575 71.6236 11.7401H73.4164C73.6406 11.7575 73.8136 11.9445 73.8136 12.1694C73.8136 12.3943 73.6406 12.5814 73.4164 12.5988H71.6236ZM66.8473 12.5988C66.6231 12.5814 66.4501 12.3943 66.4501 12.1694C66.4501 11.9445 66.6231 11.7575 66.8473 11.7401H68.64C68.8643 11.7575 69.0373 11.9445 69.0373 12.1694C69.0373 12.3943 68.8643 12.5814 68.64 12.5988H66.8473ZM62.0736 12.599C61.9123 12.6116 61.7575 12.5326 61.673 12.3945C61.5884 12.2565 61.5884 12.0827 61.673 11.9447C61.7575 11.8067 61.9123 11.7277 62.0736 11.7403H63.8638C64.088 11.7577 64.261 11.9447 64.261 12.1696C64.261 12.3945 64.088 12.5816 63.8638 12.599H62.0736ZM57.2974 12.599C57.136 12.6116 56.9813 12.5326 56.8967 12.3945C56.8122 12.2565 56.8122 12.0827 56.8967 11.9447C56.9813 11.8067 57.136 11.7277 57.2974 11.7403H59.0875C59.3118 11.7577 59.4848 11.9447 59.4848 12.1696C59.4848 12.3945 59.3118 12.5816 59.0875 12.599H57.2974ZM52.5211 12.599C52.3597 12.6116 52.2049 12.5326 52.1204 12.3945C52.0359 12.2565 52.0359 12.0827 52.1204 11.9447C52.2049 11.8067 52.3597 11.7277 52.5211 11.7403H54.3112C54.5354 11.7577 54.7085 11.9447 54.7085 12.1696C54.7085 12.3945 54.5354 12.5816 54.3112 12.599H52.5211ZM47.7448 12.599C47.5835 12.6116 47.4287 12.5326 47.3442 12.3945C47.2596 12.2565 47.2596 12.0827 47.3442 11.9447C47.4287 11.8067 47.5835 11.7277 47.7448 11.7403H49.535C49.7592 11.7577 49.9322 11.9447 49.9322 12.1696C49.9322 12.3945 49.7592 12.5816 49.535 12.599H47.7448ZM42.9686 12.599C42.8072 12.6116 42.6524 12.5326 42.5679 12.3945C42.4834 12.2565 42.4834 12.0827 42.5679 11.9447C42.6524 11.8067 42.8072 11.7277 42.9686 11.7403H44.7587C44.9829 11.7577 45.156 11.9447 45.156 12.1696C45.156 12.3945 44.9829 12.5816 44.7587 12.599H42.9686ZM38.1923 12.5989C38.0309 12.6115 37.8761 12.5325 37.7916 12.3944C37.7071 12.2564 37.7071 12.0827 37.7916 11.9446C37.8761 11.8066 38.0309 11.7276 38.1923 11.7402H39.9824C40.2066 11.7576 40.3797 11.9446 40.3797 12.1695C40.3797 12.3944 40.2066 12.5815 39.9824 12.5989H38.1923Z" fill="#F94F24"/>
<path fill-rule="evenodd" clip-rule="evenodd" d="M115.24 67.9788C122.822 68.0629 129.864 64.0664 133.679 57.5142C137.494 50.9621 137.494 42.8651 133.679 36.313C129.864 29.7608 122.822 25.7643 115.24 25.8484L115.24 25.5631C122.924 25.4783 130.061 29.5291 133.928 36.1698C137.794 42.8105 137.794 51.0167 133.928 57.6574C130.061 64.2981 122.924 68.3489 115.24 68.2641L115.24 68.2667V67.9788Z" fill="#F94F24"/>
<defs>
<linearGradient id="paint0_linear" x1="162.915" y1="7.35883" x2="59.1641" y2="28.5959" gradientUnits="userSpaceOnUse">
<stop stop-color="#EE7170"/>
<stop offset="1" stop-color="#8F3DDC"/>
</linearGradient>
</defs>
</svg>
