<svg width="149" height="100" viewBox="0 0 149 100" fill="none" xmlns="http://www.w3.org/2000/svg">
<path fill-rule="evenodd" clip-rule="evenodd" d="M129.245 44.0987C118.703 44.0987 110.157 35.5526 110.157 25.0104C110.157 14.4682 118.703 5.92212 129.245 5.92212C134.308 5.92212 139.163 7.9332 142.743 11.5129C146.323 15.0927 148.334 19.9479 148.334 25.0104C148.334 35.5526 139.787 44.0987 129.245 44.0987Z" fill="#F2F2F2"/>
<path fill-rule="evenodd" clip-rule="evenodd" d="M130.745 93.6371C126.287 95.4843 121.155 94.4642 117.743 91.0524C114.33 87.6406 113.309 82.5092 115.156 78.0509C117.002 73.5927 121.352 70.6859 126.178 70.6859C132.766 70.6859 138.107 76.0258 138.108 82.6137C138.109 87.4391 135.203 91.7899 130.745 93.6371Z" fill="#F2F2F2"/>
<path fill-rule="evenodd" clip-rule="evenodd" d="M19.157 71.7394C14.2625 71.7394 10.2946 67.7716 10.2946 62.877C10.2946 57.9824 14.2625 54.0146 19.157 54.0146C21.5077 54.014 23.7622 54.9475 25.4244 56.6097C27.0865 58.2718 28.02 60.5264 28.0194 62.877C28.0194 67.7716 24.0516 71.7394 19.157 71.7394Z" fill="#F2F2F2"/>
<rect x="46.7567" y="85.0019" width="40.2217" height="9.54414" rx="4.77207" fill="#F2F2F2"/>
<rect y="27.0073" width="40.2217" height="9.54414" rx="4.77207" fill="#F2F2F2"/>
<path fill-rule="evenodd" clip-rule="evenodd" d="M69.6749 78.8665C69.6749 78.8665 71.66 94.2072 59.0278 97.2731H98.5678C85.9355 94.2027 87.9207 78.8665 87.9207 78.8665H69.6749Z" fill="#999999"/>
<rect x="59.0278" y="97.2731" width="39.54" height="2.7269" fill="#E5E5E5"/>
<path fill-rule="evenodd" clip-rule="evenodd" d="M127.41 81.0724C126.662 81.8321 125.64 82.2647 124.571 82.2751H29.6163C27.3897 82.2523 25.6027 80.4393 25.6234 78.2242V22.9234C25.6039 20.7093 27.3906 18.8976 29.6163 18.8748H124.571C125.64 18.8852 126.662 19.3178 127.41 20.0775C128.159 20.8372 128.574 21.8617 128.563 22.9256V78.2242C128.574 79.2882 128.159 80.3127 127.41 81.0724Z" fill="#B3B3B3"/>
<rect x="25.6233" y="24.3285" width="102.94" height="50.4476" fill="url(#paint0_linear)"/>
<g style="mix-blend-mode:multiply">
<rect x="25.6233" y="24.3285" width="102.94" height="0.681723" fill="#E5E5E5"/>
</g>
<path fill-rule="evenodd" clip-rule="evenodd" d="M87.9907 82.275C87.9907 82.275 88.2144 84.6855 88.3419 85.3091L67.8901 89.774C67.8901 89.774 69.6504 86.9854 69.6504 82.275H87.9907Z" fill="#828282"/>
<rect x="32.4405" y="35.9179" width="85.8972" height="38.8583" fill="white"/>
<path fill-rule="evenodd" clip-rule="evenodd" d="M118.338 33.6314C118.338 32.7914 117.999 31.9858 117.395 31.3918C116.792 30.7978 115.974 30.4641 115.12 30.4641H35.6578C33.8809 30.4641 32.4405 31.8822 32.4405 33.6314V35.9179H118.338V33.6314Z" fill="#F94F24"/>
<path fill-rule="evenodd" clip-rule="evenodd" d="M37.8943 33.8727C37.5178 33.8727 37.2126 33.5674 37.2126 33.1909C37.2126 32.8144 37.5178 32.5092 37.8943 32.5092C38.2703 32.5103 38.5749 32.8149 38.576 33.1909C38.576 33.5674 38.2708 33.8727 37.8943 33.8727Z" fill="white"/>
<path fill-rule="evenodd" clip-rule="evenodd" d="M43.6089 33.8208C43.3542 33.9263 43.061 33.8679 42.866 33.673C42.671 33.478 42.6127 33.1848 42.7182 32.93C42.8237 32.6753 43.0723 32.5092 43.3481 32.5092C43.7246 32.5092 44.0298 32.8144 44.0298 33.1909C44.0298 33.4667 43.8637 33.7152 43.6089 33.8208Z" fill="white"/>
<path fill-rule="evenodd" clip-rule="evenodd" d="M49.0624 33.8209C48.8074 33.9263 48.514 33.8677 48.3192 33.6723C48.1244 33.4769 48.0666 33.1834 48.1727 32.9287C48.2788 32.674 48.528 32.5084 48.8039 32.5092C49.1796 32.5103 49.4837 32.8152 49.4837 33.1909C49.4837 33.4668 49.3173 33.7155 49.0624 33.8209Z" fill="white"/>
<path fill-rule="evenodd" clip-rule="evenodd" d="M40.0635 43.4169C39.6185 43.4169 39.2577 43.1117 39.2577 42.7352C39.2577 42.3587 39.6185 42.0535 40.0635 42.0535H65.0392C65.4842 42.0535 65.845 42.3587 65.845 42.7352C65.845 43.1117 65.4842 43.4169 65.0392 43.4169H40.0635Z" fill="#D7D7D7"/>
<path fill-rule="evenodd" clip-rule="evenodd" d="M40.0181 48.1879C39.5919 48.169 39.2577 47.8698 39.2577 47.5072C39.2577 47.1445 39.5919 46.8453 40.0181 46.8264H54.0932C54.3894 46.8132 54.67 46.94 54.8228 47.1561C54.9756 47.3721 54.9756 47.6422 54.8228 47.8583C54.67 48.0743 54.3894 48.2011 54.0932 48.1879H40.0181Z" fill="#D7D7D7"/>
<path fill-rule="evenodd" clip-rule="evenodd" d="M39.6926 54.3235C39.5412 54.3329 39.3962 54.2703 39.3171 54.1612C39.2379 54.0521 39.2379 53.915 39.3171 53.8059C39.3962 53.6968 39.5412 53.6342 39.6926 53.6436H64.7283C64.8798 53.6342 65.0248 53.6968 65.1039 53.8059C65.183 53.915 65.183 54.0521 65.1039 54.1612C65.0248 54.2703 64.8798 54.3329 64.7283 54.3235H39.6926Z" fill="#D7D7D7"/>
<path fill-rule="evenodd" clip-rule="evenodd" d="M39.6926 59.0956C39.5412 59.105 39.3962 59.0424 39.3171 58.9333C39.2379 58.8242 39.2379 58.6871 39.3171 58.578C39.3962 58.4689 39.5412 58.4063 39.6926 58.4157H64.7283C64.8798 58.4063 65.0248 58.4689 65.1039 58.578C65.183 58.6871 65.183 58.8242 65.1039 58.9333C65.0248 59.0424 64.8798 59.105 64.7283 59.0956H39.6926Z" fill="#D7D7D7"/>
<path fill-rule="evenodd" clip-rule="evenodd" d="M39.6926 63.8676C39.5412 63.877 39.3962 63.8144 39.3171 63.7053C39.2379 63.5962 39.2379 63.459 39.3171 63.35C39.3962 63.2409 39.5412 63.1783 39.6926 63.1877H64.7283C64.8798 63.1783 65.0248 63.2409 65.1039 63.35C65.183 63.459 65.183 63.5962 65.1039 63.7053C65.0248 63.8144 64.8798 63.877 64.7283 63.8676H39.6926Z" fill="#D7D7D7"/>
<path fill-rule="evenodd" clip-rule="evenodd" d="M39.6844 67.9581C39.5358 67.9675 39.3936 67.9049 39.316 67.7958C39.2383 67.6867 39.2383 67.5496 39.316 67.4405C39.3936 67.3314 39.5358 67.2688 39.6844 67.2782H51.1608C51.3683 67.2914 51.5288 67.4397 51.5288 67.6181C51.5288 67.7966 51.3683 67.9449 51.1608 67.9581H39.6844Z" fill="#D7D7D7"/>
<g style="mix-blend-mode:screen" opacity="0.1">
<path fill-rule="evenodd" clip-rule="evenodd" d="M128.564 53.9856C128.564 53.9856 113.908 72.5719 77.0934 56.1633C40.2791 39.7546 25.6233 56.1633 25.6233 56.1633V74.7761H128.564V53.9856Z" fill="#E5E5E5"/>
</g>
<g style="mix-blend-mode:multiply">
<rect x="25.6233" y="74.0944" width="102.94" height="0.681723" fill="#E5E5E5"/>
</g>
<path fill-rule="evenodd" clip-rule="evenodd" d="M103.947 44.3047C101.824 41.2397 98.104 39.6996 94.4356 40.3667C90.7671 41.0337 87.8277 43.7846 86.9194 47.4009C86.7131 47.3796 86.5058 47.3689 86.2984 47.3687C83.0271 47.37 80.3758 50.0222 80.3755 53.2936C80.3753 56.565 83.0263 59.2175 86.2977 59.2192H105.494C109.657 59.2192 113.031 55.8445 113.031 51.6816C113.031 47.5186 109.657 44.1439 105.494 44.1439V44.1439C104.974 44.1444 104.456 44.1983 103.947 44.3047Z" fill="url(#paint1_linear)"/>
<path fill-rule="evenodd" clip-rule="evenodd" d="M86.9125 48.3087C87.8198 44.6894 90.7613 41.936 94.4327 41.2696C98.104 40.6032 101.826 42.1472 103.947 45.2168C104.456 45.1125 104.974 45.06 105.494 45.0601C109.465 45.0606 112.754 48.1427 113.013 52.1055C113.024 51.9419 113.031 51.7783 113.031 51.6119C113.031 49.3393 112.007 47.1889 110.243 45.758C108.478 44.327 106.163 43.7681 103.94 44.2367C101.817 41.1723 98.0978 39.6327 94.4298 40.2996C90.7617 40.9666 87.8226 43.7169 86.9139 47.3326C86.7076 47.3113 86.5003 47.3006 86.2929 47.3005C83.0205 47.3005 80.3677 49.9533 80.3677 53.2257C80.3677 53.3907 80.3761 53.5557 80.3901 53.718C80.6412 50.6447 83.208 48.278 86.2915 48.2766L86.2915 48.2766C86.4989 48.2767 86.7062 48.2874 86.9125 48.3087Z" fill="#8E4DEC"/>
<path fill-rule="evenodd" clip-rule="evenodd" d="M106.931 77.4621L98.2198 68.7508L95.1925 75.4919L87.449 54.3554L108.098 61.4535L102.383 65.7474L110.679 73.7174L106.931 77.4621Z" fill="url(#paint2_linear)"/>
<g style="mix-blend-mode:multiply">
<path fill-rule="evenodd" clip-rule="evenodd" d="M103.183 67.2027L108.414 63.2726C108.568 63.1598 108.645 62.9698 108.613 62.7818C108.584 62.5923 108.451 62.4349 108.27 62.3733L87.6208 55.2752C87.4326 55.2123 87.2251 55.2615 87.0853 55.4022C86.9454 55.5441 86.8999 55.754 86.9686 55.9411L94.712 77.0742C94.7836 77.2715 94.9678 77.4057 95.1775 77.4132C95.3873 77.4208 95.5807 77.3002 95.6662 77.1085L98.3881 71.0504L106.581 79.2365C106.678 79.3328 106.809 79.3871 106.945 79.3876C107.082 79.3878 107.213 79.3334 107.309 79.2365L111.043 75.4884C111.143 75.3925 111.197 75.2593 111.194 75.1211C111.195 74.9834 111.141 74.8512 111.043 74.7539L103.183 67.2027Z" fill="#E5E5E5"/>
</g>
<path fill-rule="evenodd" clip-rule="evenodd" d="M106.681 77.7057L98.3435 69.3479L95.5187 75.6326C95.4619 75.759 95.3346 75.8389 95.196 75.8351C95.0553 75.8307 94.9315 75.741 94.8837 75.6085L87.1403 54.4754C87.095 54.3514 87.1249 54.2124 87.2172 54.1179C87.3094 54.0235 87.4477 53.9903 87.5728 54.0327L108.225 61.1308C108.345 61.1724 108.432 61.2767 108.452 61.402C108.471 61.527 108.419 61.6523 108.318 61.728L102.926 65.7782L110.93 73.4667C110.996 73.5313 111.033 73.6198 111.033 73.7121C111.033 73.8045 110.996 73.893 110.93 73.9576L107.175 77.7057C107.109 77.7717 107.018 77.8076 106.924 77.8053V77.8053C106.833 77.8058 106.746 77.77 106.681 77.7057ZM98.4568 68.5103L106.924 76.978L110.182 73.7207L102.14 65.9944C102.068 65.9245 102.03 65.8267 102.037 65.7267C102.042 65.6265 102.091 65.5337 102.171 65.4727L107.367 61.5701L88.019 54.9147L95.2269 74.5822L97.911 68.6099C97.9575 68.5076 98.0511 68.4345 98.1616 68.4142L98.2131 68.4074C98.3048 68.4078 98.3926 68.4448 98.4568 68.5103Z" fill="white"/>
<path fill-rule="evenodd" clip-rule="evenodd" d="M93.5064 26.2408C92.6845 26.3248 91.6343 26.2623 91.3166 26.073C91.3166 26.073 91.3166 17.5352 91.3166 16.8834C91.3166 16.5334 91.3717 16.2691 91.4873 16.0584L91.5371 16.0709C92.506 16.0709 93.5037 16.1084 93.5037 16.6852C93.5037 17.262 93.5037 26.2337 93.5037 26.2337L93.5064 26.2408Z" fill="#FFD54F"/>
<path fill-rule="evenodd" clip-rule="evenodd" d="M92.7764 10.9489L108.105 8.01491L92.7764 5.10944C92.7764 6.69698 92.7764 9.10676 92.7764 10.9489Z" fill="#7B39D9"/>
<path fill-rule="evenodd" clip-rule="evenodd" d="M59.1253 11.6788H59.1401V10.646H59.1106C57.4941 10.0838 57.9802 8.75619 59.2671 8.06948C60.5541 7.38093 64.3615 4.64874 74.7859 4.64874C85.2104 4.64874 91.0191 8.52362 91.4868 8.99058C91.9563 9.45755 92.0281 10.6771 90.2256 10.928H90.2146V11.6697L92.0465 11.2814V4.38139L74.6773 0.729919L40.9516 7.81494L59.1253 11.6788Z" fill="#7B39D9"/>
<path fill-rule="evenodd" clip-rule="evenodd" d="M58.8125 9.4814V10.6539H58.7825C57.1361 10.0657 57.6312 8.67676 58.9419 7.95833C60.2527 7.23798 64.1306 4.37958 74.7479 4.37958C85.3652 4.37958 91.2814 8.43345 91.7577 8.92198C92.2358 9.41052 92.309 10.6865 90.4732 10.9489H90.4619V9.4814C85.3089 5.71107 74.5116 4.5999 66.4802 6.25516C65.5557 6.44483 64.6687 6.6709 63.8324 6.93336C61.811 7.56942 60.0783 8.41812 58.8125 9.4814Z" fill="#360083"/>
<path fill-rule="evenodd" clip-rule="evenodd" d="M90.5866 22.7399C86.6031 21.3406 77.6699 21.7594 74.6921 24.0876C72.9028 22.7101 69.797 22.0035 66.4991 21.8944V21.1679C69.7951 21.2771 72.9028 21.9837 74.6921 23.3631C77.6699 21.0349 86.6031 20.6161 90.5866 22.0135V22.7399Z" fill="#FEB64D"/>
<path fill-rule="evenodd" clip-rule="evenodd" d="M74.6591 0L39.4976 7.56081L39.4918 8.75912L74.6591 1.24492L92.7707 5.11758V3.9251L92.7765 3.89596L91.6591 3.65514L74.6591 0Z" fill="#360083"/>
<path fill-rule="evenodd" clip-rule="evenodd" d="M66.4991 21.8607C65.5313 21.8329 64.5512 21.8459 63.5793 21.8978V21.2185C64.5512 21.1665 65.5334 21.1554 66.4991 21.1814V21.8607Z" fill="#FEB64D"/>
<path fill-rule="evenodd" clip-rule="evenodd" d="M66.2507 21.9134C65.3602 21.8831 64.4582 21.8972 63.5639 21.9536C61.7751 22.0644 60.0207 22.3403 58.4698 22.7713V24.91C60.0207 24.479 61.7751 24.2031 63.5639 24.0924C64.4582 24.036 65.3602 24.0219 66.2507 24.0521C69.5827 24.1628 72.7205 24.8798 74.5282 26.2774C77.5367 23.9151 86.562 23.4902 90.5866 24.91V22.7713C86.562 21.3515 77.5367 21.7764 74.5282 24.1387C72.7205 22.7411 69.5827 22.0241 66.2507 21.9134Z" fill="#FFD54F"/>
<path fill-rule="evenodd" clip-rule="evenodd" d="M63.5793 21.86C61.7852 21.964 60.0254 22.2231 58.4698 22.6278V21.9357C60.0254 21.531 61.7871 21.2719 63.5793 21.1679V21.86Z" fill="#FEB64D"/>
<path fill-rule="evenodd" clip-rule="evenodd" d="M63.5639 6.51609C61.5126 7.14441 59.7543 7.9828 58.4698 9.03315V10.1914V11.2588V22.0708C60.0207 21.6658 61.7771 21.4065 63.5639 21.3024C64.4582 21.2494 65.3621 21.238 66.2507 21.2645C69.5808 21.3686 72.7205 22.0424 74.5282 23.3577C77.5367 21.1377 86.562 20.7384 90.5866 22.0708V11.2493V10.4828V9.03315C85.3575 5.30866 74.4007 4.21099 66.2507 5.84614C65.3126 6.0335 64.4125 6.25681 63.5639 6.51609Z" fill="url(#paint3_linear)"/>
<path fill-rule="evenodd" clip-rule="evenodd" d="M108.084 8.75914L92.7764 5.54487C92.7764 5.08542 92.7764 4.68711 92.7764 4.37958L108.105 7.61608L108.084 8.75914Z" fill="#360083"/>
<path fill-rule="evenodd" clip-rule="evenodd" d="M93.4987 26.1175C93.3636 26.1947 93.1629 26.248 92.9366 26.2789L92.9348 26.272C92.9348 26.272 92.9348 17.6477 92.9348 17.0933C92.9348 16.5388 92.2414 16.5028 91.568 16.5028L91.5333 16.4907C91.599 16.3157 91.6976 16.18 91.8253 16.0599H93.0881C93.3636 16.3191 93.4987 16.6573 93.4987 17.2838C93.4987 17.9104 93.4987 26.1175 93.4987 26.1175Z" fill="#FEC007"/>
<path fill-rule="evenodd" clip-rule="evenodd" d="M93.3216 15.8141L93.0972 16.0599H93.0881H91.8253L91.5625 15.8005C91.3928 15.6341 91.3855 15.3515 91.5443 15.1735L91.807 14.8793H93.0151L93.3143 15.1909C93.4767 15.3593 93.4804 15.638 93.3216 15.8141Z" fill="#C52827"/>
<path fill-rule="evenodd" clip-rule="evenodd" d="M93.0151 14.8793H91.807V12.1175L93.0151 11.8446C93.0151 13.5787 93.0151 14.8793 93.0151 14.8793Z" fill="#FA5A28"/>
<path fill-rule="evenodd" clip-rule="evenodd" d="M93.0151 11.8445L91.807 12.1174V4.82477L93.0151 5.09573C93.0151 6.9305 93.0151 9.71555 93.0151 11.8445Z" fill="#FA5A28"/>
<path fill-rule="evenodd" clip-rule="evenodd" d="M93.0151 5.09581L91.807 4.82486V3.63651L91.8125 3.60748L93.0151 3.87844C93.0151 4.19972 93.0151 4.61583 93.0151 5.09581Z" fill="#FA5A28"/>
<path fill-rule="evenodd" clip-rule="evenodd" d="M93.0151 3.87854L91.8125 3.60758L90.7505 3.36759V3.36372C90.7505 1.9199 93.0151 1.80378 93.0151 3.82628C93.0151 3.8437 93.0151 3.86112 93.0151 3.87854Z" fill="#FA5A28"/>
<defs>
<linearGradient id="paint0_linear" x1="13.3896" y1="41.8867" x2="12.8544" y2="92.5845" gradientUnits="userSpaceOnUse">
<stop stop-color="#8033EB"/>
<stop offset="0.53" stop-color="#D4648E"/>
<stop offset="1" stop-color="#EC7071"/>
</linearGradient>
<linearGradient id="paint1_linear" x1="129.359" y1="40.213" x2="96.7034" y2="40.213" gradientUnits="userSpaceOnUse">
<stop stop-color="#7D6DF2"/>
<stop offset="1" stop-color="#C499FB"/>
</linearGradient>
<linearGradient id="paint2_linear" x1="87.449" y1="89.0155" x2="110.679" y2="89.0155" gradientUnits="userSpaceOnUse">
<stop stop-color="#8033EB"/>
<stop offset="1" stop-color="#6731CE"/>
</linearGradient>
<linearGradient id="paint3_linear" x1="99.0714" y1="-1.54836" x2="85.7471" y2="18.3379" gradientUnits="userSpaceOnUse">
<stop stop-color="#9033EA"/>
<stop offset="1" stop-color="#483EB7"/>
</linearGradient>
</defs>
</svg>
