<svg width="200" height="114" viewBox="0 0 200 114" fill="none" xmlns="http://www.w3.org/2000/svg">
<rect y="47.1545" width="47.9675" height="11.3821" rx="5.69106" fill="#F2F2F2"/>
<rect x="150.407" y="59.3496" width="47.9675" height="11.3821" rx="5.69106" fill="#F2F2F2"/>
<path fill-rule="evenodd" clip-rule="evenodd" d="M27.3621 112.582C21.2859 115.1 14.2916 113.709 9.64095 109.058C4.9903 104.408 3.59934 97.4132 6.11674 91.3371C8.63415 85.2609 14.5641 81.2997 21.1411 81.3008C30.1191 81.3022 37.3969 88.58 37.3984 97.5581C37.3994 104.135 33.4382 110.065 27.3621 112.582Z" fill="#F2F2F2"/>
<path fill-rule="evenodd" clip-rule="evenodd" d="M44.5163 18.9852C41.9341 20.0556 38.9614 19.465 36.9845 17.4888C35.0076 15.5127 34.4159 12.5401 35.4853 9.95757C36.5548 7.375 39.0748 5.69104 41.87 5.69104C45.6856 5.69104 48.7791 8.78342 48.7805 12.599C48.7815 15.3942 47.0985 17.9148 44.5163 18.9852Z" fill="#F2F2F2"/>
<path fill-rule="evenodd" clip-rule="evenodd" d="M150.813 112.195C146.996 112.195 143.902 109.101 143.902 105.285C143.902 101.468 146.996 98.374 150.813 98.374C154.63 98.374 157.724 101.468 157.724 105.285C157.724 109.101 154.63 112.195 150.813 112.195Z" fill="#F2F2F2"/>
<path fill-rule="evenodd" clip-rule="evenodd" d="M176.829 46.3415C164.032 46.3415 153.659 35.9676 153.659 23.1707C153.659 10.3739 164.032 0 176.829 0C182.975 0 188.868 2.4412 193.213 6.78655C197.559 11.1319 200 17.0255 200 23.1707C200 35.9676 189.626 46.3415 176.829 46.3415Z" fill="#F2F2F2"/>
<path fill-rule="evenodd" clip-rule="evenodd" d="M185.366 17.207C185.366 15.786 184.177 14.6342 182.71 14.6342H18.9162C17.4493 14.6342 16.2602 15.786 16.2602 17.207V24.3903H185.366V17.207Z" fill="#F94F24"/>
<path fill-rule="evenodd" clip-rule="evenodd" d="M16.2602 103.049C16.2602 104.508 17.4493 105.691 18.9162 105.691H182.71C184.177 105.691 185.366 104.508 185.366 103.049V25.2032H16.2602V103.049Z" fill="#E5E5E5"/>
<rect x="19.5122" y="28.4553" width="161.789" height="73.9837" fill="url(#paint0_linear)"/>
<path fill-rule="evenodd" clip-rule="evenodd" d="M21.7616 21.0139C21.1538 21.2662 20.4538 21.1272 19.9885 20.6619C19.5231 20.1966 19.3842 19.4966 19.6365 18.8888C19.8887 18.281 20.4825 17.8852 21.1406 17.8862C22.0373 17.8862 22.7642 18.6131 22.7642 19.5098C22.7652 20.1679 22.3694 20.7617 21.7616 21.0139Z" fill="white"/>
<path fill-rule="evenodd" clip-rule="evenodd" d="M28.2656 21.0139C27.6578 21.2662 26.9579 21.1272 26.4926 20.6619C26.0272 20.1966 25.8883 19.4966 26.1405 18.8888C26.3928 18.281 26.9866 17.8852 27.6447 17.8862C28.5414 17.8862 29.2683 18.6131 29.2683 19.5098C29.2693 20.1679 28.8734 20.7617 28.2656 21.0139Z" fill="white"/>
<path fill-rule="evenodd" clip-rule="evenodd" d="M35.5827 21.0139C34.9749 21.2662 34.275 21.1272 33.8096 20.6619C33.3443 20.1966 33.2053 19.4966 33.4576 18.8888C33.7099 18.281 34.3036 17.8852 34.9617 17.8862C35.8584 17.8862 36.5854 18.6131 36.5854 19.5098C36.5863 20.1679 36.1905 20.7617 35.5827 21.0139Z" fill="white"/>
<rect x="75.6098" y="37.3984" width="46.3415" height="17.8862" fill="white"/>
<rect x="82.1138" y="41.4634" width="33.3333" height="3.25203" rx="1.62602" fill="#D8D8D8"/>
<rect x="86.9919" y="47.1545" width="23.5772" height="3.25203" rx="1.62602" fill="#D8D8D8"/>
<rect x="58.5366" y="73.1707" width="34.9594" height="17.8862" fill="white"/>
<rect x="104.878" y="73.1707" width="34.9594" height="17.8862" fill="white"/>
<rect x="64.2276" y="80.4878" width="23.5772" height="3.25203" rx="1.62602" fill="#D8D8D8"/>
<rect x="110.569" y="80.4878" width="23.5772" height="3.25203" rx="1.62602" fill="#D8D8D8"/>
<path d="M98.7805 55.691V61.3821" stroke="#FA5A28" stroke-dasharray="4 4"/>
<path d="M81.7073 61.3821H115.041" stroke="#FA5A28" stroke-dasharray="4 4"/>
<path d="M81.7073 61.3821V72.7642" stroke="#FA5A28" stroke-dasharray="4 4"/>
<path d="M115.447 61.3821V72.7642" stroke="#FA5A28" stroke-dasharray="4 4"/>
<defs>
<linearGradient id="paint0_linear" x1="262.195" y1="28.4553" x2="100.407" y2="28.4553" gradientUnits="userSpaceOnUse">
<stop stop-color="#9033EA"/>
<stop offset="1" stop-color="#483EB7"/>
</linearGradient>
</defs>
</svg>
