<svg width="154" height="109" viewBox="0 0 154 109" fill="none" xmlns="http://www.w3.org/2000/svg">
<path fill-rule="evenodd" clip-rule="evenodd" d="M27.7241 15.9515H41.4325C41.3223 9.20711 37.048 3.23527 30.6991 0.955235C24.3502 -1.3248 17.2528 0.56319 12.8762 5.69629C8.49969 10.8294 7.75822 18.1354 11.0143 24.043C14.2703 29.9505 20.8438 33.2257 27.5214 32.2674L27.5234 16.698C27.2243 16.5174 27.2906 15.9515 27.7241 15.9515Z" fill="#F2F2F2"/>
<path fill-rule="evenodd" clip-rule="evenodd" d="M34.7988 27.6186C34.2294 25.4243 35.8436 23.1191 38.4366 22.4229L105.31 4.48067C106.63 4.12664 108.024 4.24644 109.163 4.81174C110.302 5.37665 111.083 6.33732 111.323 7.46562L126.861 80.5646C127.098 81.6807 126.784 82.8626 125.992 83.8366C125.2 84.8107 123.998 85.492 122.667 85.722L57.4996 97.0134C54.9614 97.4532 52.5878 96.1718 52.0417 94.0671V94.0671L34.7988 27.6186Z" stroke="#FA5A28"/>
<path fill-rule="evenodd" clip-rule="evenodd" d="M51.3204 12.2897C51.6203 10.0277 53.7217 8.44423 56.056 8.7213L116.257 15.8628C117.445 16.0035 118.53 16.6155 119.253 17.5535C119.977 18.492 120.276 19.6729 120.078 20.8169L107.315 94.9435C107.121 96.0751 106.458 97.071 105.481 97.7009C104.505 98.3301 103.299 98.5387 102.144 98.2776L45.6229 85.5093C43.4215 85.0127 41.9487 82.9602 42.2365 80.7903V80.7903L51.3204 12.2897Z" stroke="#FA5A28"/>
<path fill-rule="evenodd" clip-rule="evenodd" d="M25.8919 33.1082C25.8919 33.8535 26.9516 34.4595 28.2578 34.4595C29.564 34.4595 30.6217 33.8553 30.6217 33.1082C30.6217 32.3611 29.568 31.7568 28.2578 31.7568C26.9516 31.7568 25.8919 32.3629 25.8919 33.1082ZM27.0232 33.1082C27.0232 32.4877 27.5759 31.9847 28.2578 31.9847C28.9396 31.9847 29.4924 32.4877 29.4924 33.1082C29.4929 33.4064 29.3631 33.6926 29.1315 33.9037C28.8999 34.1148 28.5856 34.2334 28.2578 34.2334V34.2316C27.5759 34.2316 27.0232 33.7286 27.0232 33.1082Z" fill="#D3D3D3"/>
<path fill-rule="evenodd" clip-rule="evenodd" d="M28.2568 34.4595C27.6971 34.4595 27.2433 34.0058 27.2433 33.446C27.2433 32.8863 27.6971 32.4325 28.2568 32.4325C28.8165 32.4325 29.2703 32.8863 29.2703 33.446C29.2703 34.0058 28.8165 34.4595 28.2568 34.4595Z" fill="#D3D3D3"/>
<path fill-rule="evenodd" clip-rule="evenodd" d="M26.5676 28.0405C26.5676 28.9734 27.3239 29.7297 28.2568 29.7297C29.1897 29.7297 29.946 28.9734 29.946 28.0405C29.946 27.1076 29.1897 26.3513 28.2568 26.3513C27.3239 26.3513 26.5676 27.1076 26.5676 28.0405ZM28.4847 28.2683V28.6047C28.4847 28.7305 28.3827 28.8326 28.2568 28.8326C28.131 28.8326 28.0289 28.7305 28.0289 28.6047V28.2683H27.6907C27.5722 28.2577 27.4814 28.1585 27.4814 28.0395C27.4814 27.9205 27.5722 27.8213 27.6907 27.8107H28.0289V27.4743C28.0289 27.3485 28.131 27.2465 28.2568 27.2465C28.3827 27.2465 28.4847 27.3485 28.4847 27.4743V27.8198H28.8211C28.9077 27.8121 28.9912 27.8539 29.0369 27.9279C29.0826 28.0018 29.0826 28.0953 29.0369 28.1692C28.9912 28.2432 28.9077 28.285 28.8211 28.2773V28.2683H28.4847Z" fill="#D3D3D3"/>
<g filter="url(#filter0_d)">
<rect x="10.3514" y="17.2245" width="31.413" height="34.8027" fill="white"/>
</g>
<path fill-rule="evenodd" clip-rule="evenodd" d="M41.7644 19.584C40.455 19.584 39.3936 18.5276 39.3936 17.2245C39.3936 15.9214 40.455 14.865 41.7644 14.865C43.0737 14.865 44.1352 15.9214 44.1352 17.2245C44.1352 18.5276 43.0737 19.584 41.7644 19.584Z" fill="#F94F24"/>
<path fill-rule="evenodd" clip-rule="evenodd" d="M42.0639 16.8981V16.369C42.0639 16.1899 41.9183 16.0447 41.7386 16.0447C41.5589 16.0447 41.4133 16.1899 41.4133 16.369V16.8981H40.8806C40.7103 16.9115 40.579 17.0531 40.579 17.2234C40.579 17.3937 40.7103 17.5354 40.8806 17.5488H41.4133V18.0799C41.4133 18.259 41.5589 18.4042 41.7386 18.4042C41.9183 18.4042 42.0639 18.259 42.0639 18.0799V17.5488H42.5967C42.7194 17.5584 42.8372 17.4986 42.9015 17.394C42.9659 17.2893 42.9659 17.1575 42.9015 17.0529C42.8372 16.9482 42.7194 16.8884 42.5967 16.8981H42.0639Z" fill="white"/>
<path fill-rule="evenodd" clip-rule="evenodd" d="M13.9076 47.8978V21.3534H37.6155V47.8978H13.9076ZM37.2126 47.4961V21.7549H14.3104V47.4961H37.2126Z" fill="#DEDEDE"/>
<path fill-rule="evenodd" clip-rule="evenodd" d="M13.9076 42.8945L25.9357 30.9954C26.8972 30.0442 27.9214 29.5776 28.9963 29.6136C30.6906 29.6677 31.8485 30.9513 31.8971 31.0054L37.6155 36.6626L37.3301 36.9449L31.6015 31.2797C31.5833 31.2577 30.4963 30.0602 28.97 30.0141C28.0166 29.9821 27.0915 30.4146 26.213 31.2797L14.2011 43.1788L13.9076 42.8945Z" fill="#DEDEDE"/>
<path fill-rule="evenodd" clip-rule="evenodd" d="M17.0746 28.5642C16.6612 27.5721 16.8893 26.4299 17.6523 25.6705C18.4154 24.9111 19.5631 24.6841 20.5599 25.0955C21.5567 25.5069 22.2062 26.4755 22.2054 27.5495C22.2031 29.0134 21.0112 30.1995 19.5404 30.2018C18.4612 30.2027 17.4879 29.5563 17.0746 28.5642ZM17.4628 26.6922C17.1143 27.5278 17.3061 28.4901 17.9486 29.1301C18.5911 29.7702 19.5577 29.9619 20.3977 29.6158C21.2376 29.2698 21.7853 28.4542 21.7853 27.5495C21.7842 26.3157 20.7801 25.3154 19.5403 25.3131C18.6313 25.3123 17.8113 25.8566 17.4628 26.6922Z" fill="#DEDEDE"/>
<path fill-rule="evenodd" clip-rule="evenodd" d="M126.568 100C123.955 100 121.838 97.8824 121.838 95.2703C121.838 92.6581 123.955 90.5405 126.568 90.5405C129.18 90.5405 131.297 92.6581 131.297 95.2703C131.297 97.8824 129.18 100 126.568 100Z" fill="#F2F2F2"/>
<path fill-rule="evenodd" clip-rule="evenodd" d="M138.054 66.2163C136.935 66.2163 136.027 65.3088 136.027 64.1893C136.027 63.0698 136.935 62.1622 138.054 62.1622C139.174 62.1622 140.081 63.0698 140.081 64.1893C140.081 65.3088 139.174 66.2163 138.054 66.2163Z" fill="#F2F2F2"/>
<g filter="url(#filter1_d)">
<rect x="112.378" y="15.1974" width="31.413" height="34.8027" fill="white"/>
</g>
<path fill-rule="evenodd" clip-rule="evenodd" d="M115.858 43.5114C115.573 43.5114 115.342 43.2473 115.342 42.9215C115.342 42.5958 115.573 42.3317 115.858 42.3317H126.679C126.965 42.3317 127.196 42.5958 127.196 42.9215C127.196 43.2473 126.965 43.5114 126.679 43.5114H126.675H115.858Z" fill="#DEDEDE"/>
<rect x="115.342" y="21.6859" width="24.8933" height="11.2076" fill="#F2F2F2"/>
<path fill-rule="evenodd" clip-rule="evenodd" d="M128.962 43.5114C128.641 43.5114 128.381 43.2473 128.381 42.9215C128.381 42.5958 128.641 42.3317 128.962 42.3317H131.949C132.27 42.3317 132.53 42.5958 132.53 42.9215C132.53 43.2473 132.27 43.5114 131.949 43.5114H128.962Z" fill="#DEDEDE"/>
<path fill-rule="evenodd" clip-rule="evenodd" d="M115.864 38.7923C115.576 38.7923 115.342 38.5282 115.342 38.2024C115.342 37.8766 115.576 37.6125 115.864 37.6125H130.823C131.111 37.6125 131.345 37.8766 131.345 38.2024C131.345 38.5282 131.111 38.7923 130.823 38.7923H115.864Z" fill="#DEDEDE"/>
<path fill-rule="evenodd" clip-rule="evenodd" d="M133.663 38.7923C133.365 38.7923 133.123 38.5282 133.123 38.2024C133.123 37.8766 133.365 37.6125 133.663 37.6125H139.102C139.4 37.6125 139.642 37.8766 139.642 38.2024C139.642 38.5282 139.4 38.7923 139.102 38.7923H133.663Z" fill="#DEDEDE"/>
<path fill-rule="evenodd" clip-rule="evenodd" d="M143.791 17.5568C142.482 17.5568 141.421 16.5004 141.421 15.1973C141.421 13.8942 142.482 12.8378 143.791 12.8378C145.101 12.8378 146.162 13.8942 146.162 15.1973C146.162 16.5004 145.101 17.5568 143.791 17.5568Z" fill="#F94F24"/>
<path fill-rule="evenodd" clip-rule="evenodd" d="M144.091 14.8711V14.342C144.091 14.1629 143.945 14.0177 143.766 14.0177C143.586 14.0177 143.44 14.1629 143.44 14.342V14.8711H142.908C142.737 14.8845 142.606 15.0262 142.606 15.1964C142.606 15.3667 142.737 15.5084 142.908 15.5218H143.44V16.0529C143.44 16.232 143.586 16.3772 143.766 16.3772C143.945 16.3772 144.091 16.232 144.091 16.0529V15.5218H144.624C144.746 15.5314 144.864 15.4716 144.929 15.367C144.993 15.2623 144.993 15.1305 144.929 15.0259C144.864 14.9212 144.746 14.8614 144.624 14.8711H144.091Z" fill="white"/>
<g filter="url(#filter2_d)">
<rect x="17.7838" y="82.1708" width="40.8738" height="16.4778" fill="white"/>
</g>
<path fill-rule="evenodd" clip-rule="evenodd" d="M58.6576 85.1132C57.3489 85.1132 56.2881 84.0593 56.2881 82.7592C56.2881 81.4592 57.3489 80.4053 58.6576 80.4053C59.9662 80.4053 61.0271 81.4592 61.0271 82.7592C61.0271 84.0593 59.9662 85.1132 58.6576 85.1132Z" fill="#F94F24"/>
<path fill-rule="evenodd" clip-rule="evenodd" d="M58.957 82.4335V81.9057C58.957 81.727 58.8114 81.5822 58.6318 81.5822C58.4522 81.5822 58.3067 81.727 58.3067 81.9057V82.4335H57.7742C57.6041 82.4469 57.4728 82.5883 57.4728 82.7581C57.4728 82.928 57.6041 83.0693 57.7742 83.0827H58.3067V83.6126C58.3067 83.7913 58.4522 83.9361 58.6318 83.9361C58.8114 83.9361 58.957 83.7913 58.957 83.6126V83.0827H59.4894C59.6121 83.0924 59.7298 83.0327 59.7941 82.9283C59.8584 82.8239 59.8584 82.6924 59.7941 82.588C59.7298 82.4836 59.6121 82.4239 59.4894 82.4335H58.957Z" fill="white"/>
<path fill-rule="evenodd" clip-rule="evenodd" d="M21.9059 86.2903C21.5922 86.2903 21.338 86.0268 21.338 85.7018C21.338 85.3768 21.5922 85.1133 21.9059 85.1133H33.8023C34.116 85.1133 34.3702 85.3768 34.3702 85.7018C34.3702 86.0268 34.116 86.2903 33.8023 86.2903H33.7975H21.9059Z" fill="#DEDEDE"/>
<path fill-rule="evenodd" clip-rule="evenodd" d="M36.7279 86.2903C36.4073 86.2903 36.1474 86.0268 36.1474 85.7018C36.1474 85.3768 36.4073 85.1133 36.7279 85.1133H39.7135C40.0341 85.1133 40.294 85.3768 40.294 85.7018C40.294 86.0268 40.0341 86.2903 39.7135 86.2903H36.7279Z" fill="#DEDEDE"/>
<path fill-rule="evenodd" clip-rule="evenodd" d="M21.9059 95.7062C21.5922 95.7062 21.338 95.4427 21.338 95.1177C21.338 94.7927 21.5922 94.5292 21.9059 94.5292H33.8023C34.116 94.5292 34.3702 94.7927 34.3702 95.1177C34.3702 95.4427 34.116 95.7062 33.8023 95.7062H33.7975H21.9059Z" fill="#DEDEDE"/>
<path fill-rule="evenodd" clip-rule="evenodd" d="M36.7279 95.7062C36.4073 95.7062 36.1474 95.4427 36.1474 95.1177C36.1474 94.7927 36.4073 94.5292 36.7279 94.5292H39.7135C40.0341 94.5292 40.294 94.7927 40.294 95.1177C40.294 95.4427 40.0341 95.7062 39.7135 95.7062H36.7279Z" fill="#DEDEDE"/>
<path fill-rule="evenodd" clip-rule="evenodd" d="M42.6466 86.2903C42.3287 86.2903 42.0711 86.0268 42.0711 85.7018C42.0711 85.3768 42.3287 85.1133 42.6466 85.1133H55.1202C55.438 85.1133 55.6957 85.3768 55.6957 85.7018C55.6957 86.0268 55.438 86.2903 55.1202 86.2903H42.6466Z" fill="#DEDEDE"/>
<path fill-rule="evenodd" clip-rule="evenodd" d="M21.9177 90.9982C21.5975 90.9982 21.338 90.7347 21.338 90.4097C21.338 90.0846 21.5975 89.8212 21.9177 89.8212H38.5295C38.8497 89.8212 39.1092 90.0846 39.1092 90.4097C39.1092 90.7347 38.8497 90.9982 38.5295 90.9982H21.9177Z" fill="#DEDEDE"/>
<path fill-rule="evenodd" clip-rule="evenodd" d="M42.068 90.9982C41.7425 90.9982 41.4787 90.7347 41.4787 90.4097C41.4787 90.0846 41.7425 89.8212 42.068 89.8212H47.9979C48.3234 89.8212 48.5872 90.0846 48.5872 90.4097C48.5872 90.7347 48.3234 90.9982 47.9979 90.9982H42.068Z" fill="#DEDEDE"/>
<path fill-rule="evenodd" clip-rule="evenodd" d="M59.002 31.6946C58.9502 30.3135 60.0091 29.143 61.3885 29.0567L96.9623 26.833C97.6643 26.789 98.3532 27.0372 98.8658 27.5188C99.3784 28.0004 99.6691 28.6725 99.6689 29.3759V74.9499C99.6689 75.6455 99.3845 76.3108 98.8817 76.7914C98.379 77.272 97.7015 77.5261 97.0067 77.4947L63.0031 75.9672C61.6787 75.9079 60.6212 74.8426 60.5716 73.5179H60.5716L59.002 31.6946Z" fill="#FF4785"/>
<path fill-rule="evenodd" clip-rule="evenodd" d="M89.274 27.212L94.1593 26.828L94.3696 32.8549C94.3746 33.0026 94.2935 33.1398 94.1617 33.2067C94.0299 33.2735 93.8712 33.2579 93.755 33.1666L91.8708 31.6821L89.6401 33.3744C89.5229 33.4632 89.3651 33.4763 89.2348 33.4083C89.1045 33.3402 89.0251 33.2031 89.031 33.0562L89.031 33.0562L89.274 27.212ZM90.3555 45.7457C90.3555 38.9964 86.7335 35.4496 80.102 35.4496C73.4705 35.4496 69.7549 39.0518 69.7549 44.4542C69.7549 53.8641 82.4538 54.0443 82.4538 59.177C82.4538 60.6179 81.7482 61.4729 80.196 61.4729C78.1737 61.4729 77.3741 60.4402 77.4681 56.9285C77.4681 56.1665 69.7549 55.929 69.5198 56.9285C68.9211 65.4389 74.2231 67.8937 80.2905 67.8937C86.1694 67.8937 90.7786 64.76 90.7786 59.0869C90.7786 49.0016 77.8916 49.2718 77.8916 44.2741C77.8916 42.2484 79.3969 41.9782 80.2905 41.9782C81.2306 41.9782 82.9239 42.1439 82.7829 45.9258C82.7829 46.9169 89.4589 46.4419 90.3555 45.7457Z" fill="white"/>
<defs>
<filter id="filter0_d" x="0.351395" y="7.22449" width="51.413" height="54.8027" filterUnits="userSpaceOnUse" color-interpolation-filters="sRGB">
<feFlood flood-opacity="0" result="BackgroundImageFix"/>
<feColorMatrix in="SourceAlpha" type="matrix" values="0 0 0 0 0 0 0 0 0 0 0 0 0 0 0 0 0 0 127 0"/>
<feOffset/>
<feGaussianBlur stdDeviation="5"/>
<feColorMatrix type="matrix" values="0 0 0 0 0 0 0 0 0 0 0 0 0 0 0 0 0 0 0.176471 0"/>
<feBlend mode="normal" in2="BackgroundImageFix" result="effect1_dropShadow"/>
<feBlend mode="normal" in="SourceGraphic" in2="effect1_dropShadow" result="shape"/>
</filter>
<filter id="filter1_d" x="102.378" y="5.19739" width="51.413" height="54.8027" filterUnits="userSpaceOnUse" color-interpolation-filters="sRGB">
<feFlood flood-opacity="0" result="BackgroundImageFix"/>
<feColorMatrix in="SourceAlpha" type="matrix" values="0 0 0 0 0 0 0 0 0 0 0 0 0 0 0 0 0 0 127 0"/>
<feOffset/>
<feGaussianBlur stdDeviation="5"/>
<feColorMatrix type="matrix" values="0 0 0 0 0 0 0 0 0 0 0 0 0 0 0 0 0 0 0.176471 0"/>
<feBlend mode="normal" in2="BackgroundImageFix" result="effect1_dropShadow"/>
<feBlend mode="normal" in="SourceGraphic" in2="effect1_dropShadow" result="shape"/>
</filter>
<filter id="filter2_d" x="7.78378" y="72.1708" width="60.8738" height="36.4778" filterUnits="userSpaceOnUse" color-interpolation-filters="sRGB">
<feFlood flood-opacity="0" result="BackgroundImageFix"/>
<feColorMatrix in="SourceAlpha" type="matrix" values="0 0 0 0 0 0 0 0 0 0 0 0 0 0 0 0 0 0 127 0"/>
<feOffset/>
<feGaussianBlur stdDeviation="5"/>
<feColorMatrix type="matrix" values="0 0 0 0 0 0 0 0 0 0 0 0 0 0 0 0 0 0 0.176471 0"/>
<feBlend mode="normal" in2="BackgroundImageFix" result="effect1_dropShadow"/>
<feBlend mode="normal" in="SourceGraphic" in2="effect1_dropShadow" result="shape"/>
</filter>
</defs>
</svg>
