<svg width="156" height="100" viewBox="0 0 156 100" fill="none" xmlns="http://www.w3.org/2000/svg">
<path fill-rule="evenodd" clip-rule="evenodd" d="M28.9442 16.5914H43.2025C43.0879 9.57644 38.6422 3.36505 32.0386 0.993553C25.435 -1.37794 18.0528 0.585781 13.5007 5.92479C8.94864 11.2638 8.17743 18.8629 11.5641 25.0074C14.9508 31.152 21.7879 34.5585 28.7334 33.5617L28.7354 17.3679C28.4244 17.18 28.4933 16.5914 28.9442 16.5914Z" fill="#F2F2F2"/>
<path fill-rule="evenodd" clip-rule="evenodd" d="M138.485 71.0178V77.5277H148.743C150.608 77.4838 152.096 76.0394 152.096 74.2727C152.096 72.5061 150.608 71.0617 148.743 71.0178H138.485Z" fill="#F2F2F2"/>
<rect x="25.448" y="28.4071" width="114.812" height="55.0388" fill="white"/>
<path fill-rule="evenodd" clip-rule="evenodd" d="M36.8486 46.7534C36.4355 46.7534 36.1007 46.3559 36.1007 45.8656C36.1007 45.3754 36.4355 44.9779 36.8486 44.9779H52.5155C52.9285 44.9779 53.2633 45.3754 53.2633 45.8656C53.2633 46.3559 52.9285 46.7534 52.5155 46.7534H52.5091H36.8486Z" fill="#DEDEDE"/>
<path fill-rule="evenodd" clip-rule="evenodd" d="M56.3641 75.1605C55.959 75.1605 55.6306 74.763 55.6306 74.2727C55.6306 73.7825 55.959 73.385 56.3641 73.385H77.386C77.7911 73.385 78.1195 73.7825 78.1195 74.2727C78.1195 74.763 77.7911 75.1605 77.386 75.1605H56.3641Z" fill="#DEDEDE"/>
<path fill-rule="evenodd" clip-rule="evenodd" d="M41.0813 34.5704C40.8598 34.7924 40.5596 34.9171 40.2464 34.9171H33.1386C32.4866 34.9171 31.958 34.3871 31.958 33.7334C31.958 33.4195 32.0824 33.1185 32.3038 32.8965C32.5252 32.6745 32.8255 32.5498 33.1386 32.5498H40.2464C40.5596 32.5498 40.8598 32.6745 41.0813 32.8965C41.3027 33.1185 41.427 33.4195 41.427 33.7334C41.427 34.0474 41.3027 34.3484 41.0813 34.5704Z" fill="#E9E9E9"/>
<path fill-rule="evenodd" clip-rule="evenodd" d="M49.1093 38.468H36.7039C36.0439 38.468 35.5089 37.938 35.5089 37.2843C35.5089 36.9704 35.6348 36.6693 35.8589 36.4474C36.083 36.2254 36.3869 36.1007 36.7039 36.1007H49.1093C49.4262 36.1007 49.7301 36.2254 49.9542 36.4474C50.1783 36.6693 50.3042 36.9704 50.3042 37.2843C50.3042 37.938 49.7692 38.468 49.1093 38.468Z" fill="#E9E9E9"/>
<path fill-rule="evenodd" clip-rule="evenodd" d="M55.5778 43.2025H37.3371C37.0088 43.2025 36.694 43.0777 36.4621 42.8557C36.2302 42.6336 36.1001 42.3326 36.1007 42.0188C36.1001 41.7051 36.2302 41.4041 36.4621 41.182C36.694 40.96 37.0088 40.8352 37.3371 40.8352H55.5778C56.261 40.8363 56.8142 41.3659 56.8142 42.0188C56.8142 42.6718 56.261 43.2014 55.5778 43.2025Z" fill="#E9E9E9"/>
<path fill-rule="evenodd" clip-rule="evenodd" d="M35.0731 56.2224C34.6601 56.2224 34.3253 55.825 34.3253 55.3347C34.3253 54.8444 34.6601 54.447 35.0731 54.447H50.74C51.153 54.447 51.4879 54.8444 51.4879 55.3347C51.4879 55.825 51.153 56.2224 50.74 56.2224H50.7336H35.0731Z" fill="#DEDEDE"/>
<path fill-rule="evenodd" clip-rule="evenodd" d="M53.8024 52.6715H35.5616C35.2334 52.6715 34.9186 52.5467 34.6866 52.3247C34.4547 52.1027 34.3247 51.8016 34.3253 51.4879C34.3247 51.1742 34.4547 50.8731 34.6866 50.6511C34.9186 50.429 35.2334 50.3043 35.5616 50.3043H53.8024C54.4856 50.3054 55.0388 50.835 55.0388 51.4879C55.0388 52.1408 54.4856 52.6704 53.8024 52.6715Z" fill="#E9E9E9"/>
<path fill-rule="evenodd" clip-rule="evenodd" d="M36.8486 65.0996C36.4355 65.0996 36.1007 64.7022 36.1007 64.2119C36.1007 63.7216 36.4355 63.3242 36.8486 63.3242H52.5155C52.9285 63.3242 53.2633 63.7216 53.2633 64.2119C53.2633 64.7022 52.9285 65.0996 52.5155 65.0996H52.5091H36.8486Z" fill="#DEDEDE"/>
<path fill-rule="evenodd" clip-rule="evenodd" d="M55.5778 61.5487H37.3371C37.0088 61.5487 36.694 61.424 36.4621 61.2019C36.2302 60.9799 36.1001 60.6788 36.1007 60.3651C36.1001 60.0514 36.2302 59.7503 36.4621 59.5283C36.694 59.3062 37.0088 59.1815 37.3371 59.1815H55.5778C56.261 59.1826 56.8142 59.7122 56.8142 60.3651C56.8142 61.018 56.261 61.5476 55.5778 61.5487Z" fill="#E9E9E9"/>
<path fill-rule="evenodd" clip-rule="evenodd" d="M35.0731 74.5687C34.6601 74.5687 34.3253 74.1712 34.3253 73.6809C34.3253 73.1907 34.6601 72.7932 35.0731 72.7932H50.74C51.153 72.7932 51.4879 73.1907 51.4879 73.6809C51.4879 74.1712 51.153 74.5687 50.74 74.5687H50.7336H35.0731Z" fill="#DEDEDE"/>
<path fill-rule="evenodd" clip-rule="evenodd" d="M53.8024 71.0178H35.5616C35.2334 71.0178 34.9186 70.893 34.6866 70.671C34.4547 70.4489 34.3247 70.1479 34.3253 69.8341C34.3247 69.5204 34.4547 69.2193 34.6866 68.9973C34.9186 68.7753 35.2334 68.6505 35.5616 68.6505H53.8024C54.4856 68.6516 55.0388 69.1812 55.0388 69.8341C55.0388 70.4871 54.4856 71.0167 53.8024 71.0178Z" fill="#E9E9E9"/>
<path fill-rule="evenodd" clip-rule="evenodd" d="M121.758 46.7534C122.171 46.7534 122.506 46.3559 122.506 45.8656C122.506 45.3754 122.171 44.9779 121.758 44.9779H106.091C105.678 44.9779 105.343 45.3754 105.343 45.8656C105.343 46.3559 105.678 46.7534 106.091 46.7534H106.097H121.758Z" fill="#DEDEDE"/>
<path fill-rule="evenodd" clip-rule="evenodd" d="M106.579 43.2025H124.82C125.148 43.2025 125.463 43.0777 125.695 42.8557C125.927 42.6336 126.057 42.3326 126.057 42.0188C126.057 41.7051 125.927 41.4041 125.695 41.182C125.463 40.96 125.148 40.8352 124.82 40.8352H106.579C105.896 40.8363 105.343 41.3659 105.343 42.0188C105.343 42.6718 105.896 43.2014 106.579 43.2025Z" fill="#E9E9E9"/>
<path fill-rule="evenodd" clip-rule="evenodd" d="M125.309 56.2224C125.722 56.2224 126.057 55.825 126.057 55.3347C126.057 54.8444 125.722 54.447 125.309 54.447H109.642C109.229 54.447 108.894 54.8444 108.894 55.3347C108.894 55.825 109.229 56.2224 109.642 56.2224H109.648H125.309Z" fill="#DEDEDE"/>
<path fill-rule="evenodd" clip-rule="evenodd" d="M104.804 52.6715H123.045C123.373 52.6715 123.688 52.5467 123.92 52.3247C124.152 52.1027 124.282 51.8016 124.281 51.4879C124.282 51.1742 124.152 50.8731 123.92 50.6511C123.688 50.429 123.373 50.3043 123.045 50.3043H104.804C104.121 50.3054 103.568 50.835 103.568 51.4879C103.568 52.1408 104.121 52.6704 104.804 52.6715Z" fill="#E9E9E9"/>
<path fill-rule="evenodd" clip-rule="evenodd" d="M121.758 65.0996C122.171 65.0996 122.506 64.7022 122.506 64.2119C122.506 63.7216 122.171 63.3242 121.758 63.3242H106.091C105.678 63.3242 105.343 63.7216 105.343 64.2119C105.343 64.7022 105.678 65.0996 106.091 65.0996H106.097H121.758Z" fill="#DEDEDE"/>
<path fill-rule="evenodd" clip-rule="evenodd" d="M106.579 61.5487H124.82C125.148 61.5487 125.463 61.424 125.695 61.2019C125.927 60.9799 126.057 60.6788 126.057 60.3651C126.057 60.0514 125.927 59.7503 125.695 59.5283C125.463 59.3062 125.148 59.1815 124.82 59.1815H106.579C105.896 59.1826 105.343 59.7122 105.343 60.3651C105.343 61.018 105.896 61.5476 106.579 61.5487Z" fill="#E9E9E9"/>
<path fill-rule="evenodd" clip-rule="evenodd" d="M130.635 74.5687C131.048 74.5687 131.383 74.1712 131.383 73.6809C131.383 73.1907 131.048 72.7932 130.635 72.7932H114.968C114.555 72.7932 114.22 73.1907 114.22 73.6809C114.22 74.1712 114.555 74.5687 114.968 74.5687H114.975H130.635Z" fill="#DEDEDE"/>
<path fill-rule="evenodd" clip-rule="evenodd" d="M104.804 71.0178H123.045C123.373 71.0178 123.688 70.893 123.92 70.671C124.152 70.4489 124.282 70.1479 124.281 69.8341C124.282 69.5204 124.152 69.2193 123.92 68.9973C123.688 68.7753 123.373 68.6505 123.045 68.6505H104.804C104.121 68.6516 103.568 69.1812 103.568 69.8341C103.568 70.4871 104.121 71.0167 104.804 71.0178Z" fill="#E9E9E9"/>
<rect x="49.1206" y="82.2622" width="86.9968" height="1.77544" fill="#F4F4F4"/>
<rect x="24.2644" y="21.3053" width="1.18363" height="62.7324" fill="#EFEFEF"/>
<rect x="81.6704" y="21.3053" width="1.18363" height="31.3662" fill="#EFEFEF"/>
<rect x="140.852" y="21.3053" width="1.18363" height="62.7324" fill="#EFEFEF"/>
<rect x="18.3463" y="83.4459" width="125.465" height="1.18363" fill="#DEDEDE"/>
<rect x="101.2" y="33.7334" width="5.91815" height="2.95907" fill="#E8E8E8"/>
<rect x="108.302" y="33.7334" width="5.91815" height="2.95907" fill="#DEDEDE"/>
<rect x="114.22" y="33.7334" width="5.91815" height="2.95907" fill="#DEDEDE"/>
<path fill-rule="evenodd" clip-rule="evenodd" d="M97.6175 33.7343C97.002 33.7155 96.4237 33.9932 96.1096 34.4584C95.7955 34.9236 95.7955 35.5023 96.1096 35.9676C96.4237 36.4328 97.002 36.7104 97.6175 36.6916H100.609V33.7343H97.6175Z" fill="#DEDEDE"/>
<rect x="120.138" y="33.7334" width="5.91815" height="2.95907" fill="#DEDEDE"/>
<path fill-rule="evenodd" clip-rule="evenodd" d="M127.24 33.7343V36.6916H130.193C130.822 36.7104 131.413 36.4328 131.734 35.9676C132.055 35.5023 132.055 34.9236 131.734 34.4584C131.413 33.9932 130.822 33.7155 130.193 33.7343H127.24Z" fill="#DEDEDE"/>
<rect x="24.2644" y="8.28541" width="117.179" height="7.10178" fill="#C5C5C5"/>
<path fill-rule="evenodd" clip-rule="evenodd" d="M70.8605 10.0609C72.6503 10.0609 74.265 11.1358 74.9555 12.787C76.1784 15.7114 74.0302 18.9381 70.8605 18.9381H43.7333C40.4682 18.9381 38.3206 15.5315 39.7285 12.5855C40.4658 11.0429 42.0235 10.0609 43.7333 10.0609H70.8605Z" fill="#E6E6E6"/>
<rect x="24.2644" y="15.3872" width="117.179" height="7.10178" fill="#E6E6E6"/>
<circle cx="28.703" cy="52.9674" r="19.234" fill="white" stroke="#F94F24" stroke-width="0.5" stroke-linecap="round" stroke-linejoin="round" stroke-dasharray="2 2"/>
<circle cx="28.9989" cy="53.2633" r="15.979" fill="#E535AB"/>
<circle cx="135.821" cy="56.5183" r="19.234" fill="white" stroke="#F94F24" stroke-width="0.5" stroke-linecap="round" stroke-linejoin="round" stroke-dasharray="2 2"/>
<circle cx="136.117" cy="56.2224" r="15.979" fill="#F94F24"/>
<path fill-rule="evenodd" clip-rule="evenodd" d="M136.827 64.834C136.205 65.1882 135.438 65.1882 134.817 64.834L128.245 61.0909C127.623 60.7367 127.24 60.0821 127.24 59.3737V51.8876C127.24 51.1791 127.623 50.5245 128.245 50.1703L134.817 46.4273C135.438 46.073 136.205 46.073 136.827 46.4273L143.398 50.1703C144.02 50.5245 144.403 51.1791 144.403 51.8876V59.3737C144.403 60.0821 144.02 60.7367 143.398 61.0909L136.827 64.834ZM138.301 56.5429H138.139C137.631 55.1851 137.122 53.8287 136.614 52.4742H135.029C134.514 53.8436 134.005 55.1998 133.495 56.5578H133.347C132.83 55.1867 132.314 53.8157 131.814 52.4923H129.922C130.842 54.9828 131.74 57.4109 132.637 59.839H134.199L135.746 55.7308H135.902C136.419 57.1085 136.934 58.4878 137.44 59.8357H139.006C139.907 57.3977 140.804 54.9681 141.721 52.4857H139.827C139.321 53.8353 138.811 55.1884 138.301 56.5429Z" fill="white"/>
<rect x="136.117" y="17.7544" width="3.55089" height="0.591815" rx="0.295907" fill="#C5C5C5"/>
<rect x="136.117" y="18.9381" width="3.55089" height="0.591815" rx="0.295907" fill="#C5C5C5"/>
<rect x="136.117" y="20.1217" width="3.55089" height="0.591815" rx="0.295907" fill="#C5C5C5"/>
<path fill-rule="evenodd" clip-rule="evenodd" d="M74.7225 70.426C74.3107 70.426 73.9768 70.0285 73.9768 69.5382C73.9768 69.048 74.3107 68.6505 74.7225 68.6505H78.5575C78.9693 68.6505 79.3032 69.048 79.3032 69.5382C79.3032 70.0285 78.9693 70.426 78.5575 70.426H74.7225Z" fill="#DEDEDE"/>
<path fill-rule="evenodd" clip-rule="evenodd" d="M82.9872 70.426C82.5868 70.426 82.2622 70.0285 82.2622 69.5382C82.2622 69.048 82.5868 68.6505 82.9872 68.6505H98.6999C99.1003 68.6505 99.4249 69.048 99.4249 69.5382C99.4249 70.0285 99.1003 70.426 98.6999 70.426H82.9872Z" fill="#DEDEDE"/>
<path fill-rule="evenodd" clip-rule="evenodd" d="M81.8145 75.1605C81.4081 75.1605 81.0786 74.763 81.0786 74.2727C81.0786 73.7825 81.4081 73.385 81.8145 73.385H89.2199C89.6264 73.385 89.9558 73.7825 89.9558 74.2727C89.9558 74.763 89.6264 75.1605 89.2199 75.1605H81.8145Z" fill="#DEDEDE"/>
<rect x="10.6527" y="83.4459" width="4.1427" height="1.18363" fill="#DEDEDE"/>
<rect x="147.362" y="83.4459" width="4.1427" height="1.18363" fill="#DEDEDE"/>
<path fill-rule="evenodd" clip-rule="evenodd" d="M4.73452 40.2434C2.11972 40.2434 0 38.1237 0 35.5089C0 32.8941 2.11972 30.7744 4.73452 30.7744C7.34932 30.7744 9.46904 32.8941 9.46904 35.5089C9.46904 38.1237 7.34932 40.2434 4.73452 40.2434Z" fill="#F2F2F2"/>
<path fill-rule="evenodd" clip-rule="evenodd" d="M152.688 33.1416C151.381 33.1416 150.321 32.0818 150.321 30.7744C150.321 29.467 151.381 28.4071 152.688 28.4071C153.996 28.4071 155.055 29.467 155.055 30.7744C155.055 32.0818 153.996 33.1416 152.688 33.1416Z" fill="#F2F2F2"/>
<path fill-rule="evenodd" clip-rule="evenodd" d="M29.4533 12.9292C29.0111 13.113 28.5017 13.0123 28.1627 12.674C27.8238 12.3356 27.7222 11.8263 27.9052 11.3838C28.0883 10.9413 28.52 10.6527 28.999 10.6527C29.6514 10.6538 30.1803 11.1818 30.1826 11.8342C30.1834 12.3131 29.8956 12.7453 29.4533 12.9292Z" fill="#E20000"/>
<path fill-rule="evenodd" clip-rule="evenodd" d="M33.596 12.9292C33.1538 13.113 32.6444 13.0123 32.3054 12.674C31.9665 12.3356 31.8649 11.8263 32.0479 11.3838C32.231 10.9413 32.6627 10.6527 33.1417 10.6527C33.7941 10.6538 34.323 11.1818 34.3253 11.8342C34.3261 12.3131 34.0383 12.7453 33.596 12.9292Z" fill="#FFED47"/>
<path fill-rule="evenodd" clip-rule="evenodd" d="M37.7387 12.9292C37.2965 13.113 36.7871 13.0123 36.4481 12.674C36.1092 12.3356 36.0076 11.8263 36.1906 11.3838C36.3737 10.9413 36.8054 10.6527 37.2844 10.6527C37.9368 10.6538 38.4657 11.1818 38.468 11.8342C38.4688 12.3131 38.181 12.7453 37.7387 12.9292Z" fill="#00C7AB"/>
<path fill-rule="evenodd" clip-rule="evenodd" d="M30.1826 17.1626V19.5299L27.8153 18.3463L30.1826 17.1626Z" fill="#C5C5C5"/>
<rect x="36.1007" y="17.1626" width="97.6494" height="3.55089" rx="1.77544" fill="white"/>
<path fill-rule="evenodd" clip-rule="evenodd" d="M31.3662 17.1626V19.5299L33.7334 18.3463L31.3662 17.1626Z" fill="#C5C5C5"/>
<path fill-rule="evenodd" clip-rule="evenodd" d="M21.8669 59.0821L29.709 44.0971L29.8256 44.2468L21.9835 59.2317L21.8669 59.0821Z" fill="white"/>
<rect x="21.0475" y="57.622" width="16.9756" height="0.879444" fill="white"/>
<path fill-rule="evenodd" clip-rule="evenodd" d="M21.5812 57.841L21.8233 57.3469L30.1162 62.5146L29.8742 63.0087L21.5812 57.841Z" fill="white"/>
<path fill-rule="evenodd" clip-rule="evenodd" d="M28.9565 45.0719L29.1986 44.5777L37.4915 49.7454L37.2495 50.2396L28.9565 45.0719Z" fill="white"/>
<path fill-rule="evenodd" clip-rule="evenodd" d="M21.583 49.7402L29.8759 44.5725L30.118 45.0666L21.825 50.2343L21.583 49.7402Z" fill="white"/>
<path fill-rule="evenodd" clip-rule="evenodd" d="M29.2508 44.2453L29.3673 44.0957L37.2093 59.0805L37.0927 59.2301L29.2508 44.2453Z" fill="white"/>
<rect x="21.7203" y="48.8976" width="0.879786" height="9.80104" fill="white"/>
<rect x="36.4752" y="48.8964" width="0.879785" height="9.80103" fill="white"/>
<path fill-rule="evenodd" clip-rule="evenodd" d="M29.5115 62.2059L36.7238 57.7111L36.9356 58.1435L29.7233 62.6383L29.5115 62.2059Z" fill="white"/>
<path fill-rule="evenodd" clip-rule="evenodd" d="M35.9934 59.6629C35.1083 59.1543 34.8062 58.0206 35.315 57.1359C35.8238 56.2511 36.958 55.9491 37.8431 56.4577C38.7335 56.9716 39.0356 58.1001 38.5215 58.9848C38.0127 59.8696 36.8785 60.1715 35.9934 59.6629Z" fill="white"/>
<path fill-rule="evenodd" clip-rule="evenodd" d="M21.2285 51.1383C20.3434 50.6297 20.0413 49.4959 20.5501 48.6112C21.0589 47.7264 22.1931 47.4245 23.0781 47.9331C23.9632 48.447 24.2653 49.5754 23.7565 50.4601C23.2477 51.3449 22.1136 51.6469 21.2285 51.1383Z" fill="white"/>
<path fill-rule="evenodd" clip-rule="evenodd" d="M21.2319 56.4577C22.117 55.9491 23.2459 56.2511 23.76 57.1359C24.2688 58.0206 23.9667 59.149 23.0816 59.6629C22.1912 60.1715 21.0624 59.8696 20.5536 58.9848C20.0448 58.1001 20.3469 56.9716 21.2319 56.4577Z" fill="white"/>
<path fill-rule="evenodd" clip-rule="evenodd" d="M35.9979 47.9331C36.883 47.4245 38.0119 47.7264 38.526 48.6112C39.0348 49.4959 38.7327 50.6244 37.8476 51.1383C36.9625 51.6469 35.8283 51.3449 35.3195 50.4601C34.8107 49.5754 35.1128 48.447 35.9979 47.9331Z" fill="white"/>
<path fill-rule="evenodd" clip-rule="evenodd" d="M27.688 62.3227C27.688 61.3002 28.5148 60.4738 29.5377 60.4738C30.5605 60.4738 31.3873 61.3002 31.3873 62.3227C31.3873 63.3399 30.5605 64.1717 29.5377 64.1717C28.5148 64.1717 27.688 63.3452 27.688 62.3227Z" fill="white"/>
<path fill-rule="evenodd" clip-rule="evenodd" d="M27.6883 45.2739C27.6883 44.2515 28.5151 43.425 29.538 43.425C30.5608 43.425 31.3876 44.2515 31.3876 45.2739C31.3876 46.2964 30.5608 47.1229 29.538 47.1229C28.5151 47.1229 27.6883 46.2964 27.6883 45.2739Z" fill="white"/>
<path fill-rule="evenodd" clip-rule="evenodd" d="M81.1376 95.091C81.1376 95.0174 81.193 94.9556 81.2662 94.9476C81.5943 94.9476 81.9276 94.9339 82.2558 94.915C82.294 94.9122 82.3317 94.9251 82.3602 94.9506C82.3888 94.9762 82.4056 95.0123 82.4069 95.0506C82.4093 95.0884 82.3965 95.1256 82.3713 95.154C82.3462 95.1823 82.3108 95.1995 82.2729 95.2017C81.9396 95.2206 81.6012 95.2309 81.2696 95.2343H81.2662C81.193 95.2263 81.1376 95.1645 81.1376 95.091ZM80.2629 95.2205C79.9296 95.2068 79.5912 95.1879 79.2613 95.1587C79.2234 95.1556 79.1883 95.1376 79.1638 95.1086C79.1393 95.0796 79.1274 95.042 79.1307 95.0042C79.1333 94.9662 79.1513 94.9308 79.1804 94.9062C79.2095 94.8816 79.2474 94.8699 79.2854 94.8737C79.6118 94.9012 79.9433 94.9218 80.2749 94.9338C80.3127 94.9351 80.3485 94.9515 80.3743 94.9792C80.4 95.0068 80.4137 95.0436 80.4124 95.0814C80.4086 95.1607 80.3423 95.2224 80.2629 95.2205ZM83.1113 94.9871C83.1075 94.9084 83.1683 94.8416 83.247 94.8378C83.5752 94.8034 83.9067 94.7605 84.2297 94.7124C84.2674 94.7061 84.3061 94.7152 84.3369 94.7379C84.3676 94.7606 84.3879 94.7948 84.3929 94.8326C84.4042 94.9107 84.3507 94.9834 84.2727 94.9957C83.9445 95.0455 83.6095 95.0867 83.2762 95.121L83.2608 95.1227C83.182 95.1265 83.1151 95.0658 83.1113 94.9871ZM78.2597 95.0523C77.9282 95.0093 77.5931 94.9561 77.2684 94.8978C77.2298 94.8911 77.1956 94.8691 77.1735 94.8367C77.1515 94.8043 77.1436 94.7644 77.1516 94.7261C77.1582 94.6876 77.1803 94.6535 77.2128 94.6317C77.2453 94.61 77.2853 94.6025 77.3234 94.6111C77.6464 94.6694 77.9745 94.7192 78.3027 94.7639C78.3403 94.7686 78.3745 94.7881 78.3977 94.818C78.4209 94.848 78.4312 94.8859 78.4264 94.9235C78.4174 95.0007 78.3494 95.0574 78.2717 95.0523H78.2786H78.2597ZM85.0968 94.6954C85.0895 94.62 85.1425 94.552 85.2176 94.5408C85.5405 94.4755 85.8652 94.4017 86.1831 94.3227C86.2594 94.3044 86.3362 94.3512 86.3549 94.4275C86.3723 94.5031 86.3268 94.5789 86.2518 94.5991C85.9288 94.6798 85.6007 94.7536 85.2725 94.8189L85.245 94.824C85.1693 94.8274 85.1041 94.7709 85.0968 94.6954ZM76.2789 94.697C75.9559 94.6214 75.6278 94.539 75.3065 94.448C75.2329 94.4264 75.1891 94.351 75.2068 94.2764C75.2285 94.2029 75.3044 94.1597 75.3786 94.1785C75.6965 94.2661 76.0195 94.3502 76.339 94.4223C76.4154 94.441 76.4627 94.5173 76.4455 94.594C76.4275 94.6564 76.3696 94.6987 76.3046 94.697H76.3115H76.2789ZM87.0402 94.2164C87.0297 94.1452 87.074 94.0774 87.1434 94.0583C87.4595 93.9622 87.7756 93.8592 88.0849 93.7493C88.1572 93.7313 88.2314 93.7714 88.256 93.8418C88.2805 93.9122 88.2473 93.9897 88.1793 94.0205C87.8667 94.1304 87.5454 94.2351 87.2259 94.333L87.1846 94.3381C87.1126 94.3398 87.0507 94.2876 87.0402 94.2164ZM74.3324 94.1561C74.0146 94.0497 73.6967 93.9347 73.3858 93.8128C73.3382 93.7944 73.3041 93.752 73.2963 93.7017C73.2884 93.6513 73.3081 93.6006 73.3478 93.5686C73.3875 93.5367 73.4413 93.5283 73.4889 93.5467C73.7964 93.6652 74.1091 93.7785 74.4235 93.8901C74.4904 93.9116 74.5317 93.9788 74.5205 94.0483C74.5094 94.1177 74.4492 94.1686 74.3788 94.1682V94.1561C74.3634 94.1586 74.3478 94.1586 74.3324 94.1561ZM88.9191 93.5558C88.9056 93.4885 88.942 93.4212 89.0057 93.3957C89.3115 93.2703 89.6156 93.1381 89.9111 92.9991C89.9815 92.974 90.0594 93.0067 90.0907 93.0746C90.122 93.1424 90.0962 93.2229 90.0313 93.26C89.7324 93.3991 89.4232 93.533 89.1139 93.66C89.0975 93.6665 89.0801 93.67 89.0624 93.6703H89.0607C88.992 93.6712 88.9325 93.6231 88.9191 93.5558ZM72.4529 93.43C72.1506 93.2961 71.8448 93.1519 71.5441 93.0008C71.4734 92.9653 71.445 92.8792 71.4805 92.8085C71.5161 92.7379 71.6023 92.7095 71.673 92.745C71.9702 92.8927 72.2708 93.0351 72.5697 93.1673C72.6304 93.1958 72.6634 93.2623 72.6495 93.3278C72.6356 93.3933 72.5783 93.4406 72.5113 93.442C72.4912 93.4422 72.4713 93.4381 72.4529 93.43ZM90.7321 92.7202C90.7166 92.656 90.7472 92.5895 90.8062 92.5596C91.0948 92.4068 91.3868 92.2455 91.6651 92.0789C91.7093 92.0532 91.7639 92.0529 91.8083 92.0783C91.8528 92.1037 91.8803 92.1508 91.8805 92.2019C91.8807 92.253 91.8536 92.3004 91.8095 92.3261C91.5225 92.4978 91.2271 92.6592 90.9333 92.812C90.9144 92.8226 90.8931 92.8285 90.8714 92.8291C90.8053 92.8295 90.7477 92.7844 90.7321 92.7202ZM70.6525 92.5184C70.3604 92.3467 70.0701 92.1751 69.7935 92.0034C69.7609 91.9835 69.7377 91.9515 69.729 91.9144C69.7203 91.8773 69.7268 91.8382 69.7471 91.806C69.7891 91.739 69.8772 91.7184 69.9447 91.7596C70.223 91.9313 70.5099 92.103 70.8037 92.2746C70.8615 92.3059 70.8905 92.3726 70.8737 92.4362C70.857 92.4997 70.799 92.5436 70.7332 92.5424L70.7229 92.5356C70.6984 92.5358 70.6742 92.5299 70.6525 92.5184ZM92.4504 91.7183C92.432 91.6572 92.4565 91.5914 92.5104 91.5571C92.787 91.3854 93.0601 91.1897 93.3264 90.9975C93.3679 90.9668 93.4225 90.9606 93.4698 90.9811C93.5171 91.0016 93.5498 91.0458 93.5557 91.097C93.5616 91.1481 93.5397 91.1986 93.4982 91.2292C93.2285 91.4232 92.9502 91.6138 92.6702 91.7957C92.6466 91.8123 92.6182 91.8208 92.5894 91.8198C92.5256 91.8209 92.4688 91.7794 92.4504 91.7183ZM68.9414 91.4506C68.6648 91.2601 68.3933 91.0609 68.1288 90.8584C68.0723 90.8091 68.0636 90.7247 68.1089 90.665C68.1541 90.6053 68.2378 90.5908 68.3006 90.6318C68.56 90.8309 68.8297 91.0266 69.1011 91.2154C69.1539 91.2506 69.177 91.3164 69.1579 91.3768C69.1388 91.4373 69.0821 91.4778 69.0187 91.4764H69.0221C68.9932 91.4763 68.965 91.4673 68.9414 91.4506ZM94.0719 90.5587C94.0516 90.5004 94.0711 90.4357 94.1201 90.3984C94.3761 90.1941 94.6355 89.9812 94.8795 89.7649C94.9394 89.7131 95.0299 89.7192 95.0822 89.7786C95.1339 89.8379 95.1277 89.9278 95.0685 89.9795C94.8176 90.1992 94.5531 90.4155 94.2988 90.6233C94.2739 90.6417 94.2439 90.652 94.2129 90.6524L94.2095 90.6542C94.1478 90.6554 94.0923 90.6169 94.0719 90.5587ZM67.3436 90.2267C67.0877 90.0104 66.8282 89.7873 66.5912 89.5607C66.5537 89.526 66.5376 89.474 66.5489 89.4243C66.5602 89.3746 66.5972 89.3347 66.646 89.3196C66.6948 89.3045 66.7479 89.3166 66.7853 89.3512C67.0258 89.5744 67.2766 89.7941 67.5275 90.007C67.5741 90.0455 67.5914 90.1092 67.5705 90.166C67.5497 90.2228 67.4952 90.2602 67.4347 90.2594C67.4014 90.2599 67.369 90.2483 67.3436 90.2267ZM95.6096 89.2945C95.5542 89.2383 95.5542 89.148 95.6096 89.0919C95.8467 88.8653 96.0804 88.6284 96.3071 88.388C96.3637 88.3335 96.4533 88.3335 96.5099 88.388C96.5653 88.4442 96.5653 88.5345 96.5099 88.5906C96.2814 88.8327 96.0426 89.073 95.8038 89.303C95.7791 89.3236 95.7482 89.3351 95.7162 89.3357L95.7127 89.3374C95.6739 89.3379 95.6366 89.3223 95.6096 89.2945ZM65.8679 88.8568C65.6342 88.6199 65.404 88.3727 65.1807 88.1238C65.155 88.0959 65.1417 88.059 65.1436 88.0212C65.1456 87.9834 65.1626 87.948 65.191 87.9229C65.25 87.8703 65.3404 87.8749 65.3937 87.9332C65.6136 88.1787 65.8404 88.4225 66.0706 88.6559C66.1261 88.7121 66.1261 88.8024 66.0706 88.8585C66.0443 88.8839 66.0092 88.898 65.9727 88.898L65.9693 88.8997C65.931 88.8999 65.8943 88.8844 65.8679 88.8568ZM96.9926 87.8525C96.9327 87.8006 96.9258 87.7102 96.9772 87.6499C97.1919 87.401 97.4032 87.1435 97.6059 86.8842C97.6572 86.8362 97.7358 86.8321 97.7918 86.8745C97.8479 86.9169 97.8651 86.9936 97.8327 87.0559C97.6266 87.3186 97.4118 87.5795 97.1954 87.8319C97.1694 87.8635 97.1314 87.8828 97.0906 87.8851L97.0871 87.8868C97.0526 87.8866 97.0192 87.8745 96.9926 87.8525ZM64.5279 87.3563C64.3183 87.0971 64.1121 86.831 63.9146 86.5632C63.8671 86.4992 63.8806 86.4089 63.9446 86.3615C64.0087 86.3141 64.099 86.3276 64.1465 86.3916C64.3406 86.6559 64.5433 86.9186 64.7512 87.1744C64.8002 87.2358 64.7911 87.3251 64.7306 87.3752C64.706 87.3957 64.6751 87.4072 64.643 87.4078L64.6395 87.4096C64.5963 87.409 64.5555 87.3895 64.5279 87.3563ZM98.2279 86.2851C98.1971 86.2631 98.1763 86.2297 98.1702 86.1923C98.1641 86.155 98.1731 86.1167 98.1952 86.086C98.3842 85.8165 98.5715 85.5401 98.7484 85.2637C98.7911 85.1973 98.8796 85.1781 98.946 85.2208C99.0124 85.2635 99.0316 85.3518 98.9889 85.4182C98.8171 85.698 98.6213 85.9779 98.4289 86.2508C98.4037 86.285 98.3647 86.3063 98.3223 86.3092L98.312 86.3109C98.2819 86.3116 98.2524 86.3026 98.2279 86.2851ZM63.3304 85.7324C63.1466 85.4577 62.9662 85.171 62.7944 84.8843C62.7541 84.8165 62.7764 84.7289 62.8442 84.6886C62.9121 84.6483 62.9998 84.6706 63.0401 84.7384C63.2119 85.0199 63.3837 85.3015 63.5692 85.5744C63.59 85.6061 63.5973 85.6447 63.5896 85.6817C63.5818 85.7187 63.5597 85.7512 63.528 85.7719C63.5081 85.7873 63.4843 85.7968 63.4593 85.7993L63.449 85.7959C63.4012 85.7961 63.3566 85.7722 63.3304 85.7324ZM99.3188 84.6027C99.2504 84.5631 99.2266 84.4758 99.2655 84.407C99.4373 84.1238 99.5885 83.8302 99.7397 83.5367C99.7757 83.4665 99.8619 83.4388 99.9321 83.4749C100.002 83.5109 100.03 83.597 99.9939 83.6671C99.841 83.9658 99.6796 84.2628 99.5129 84.5495C99.4906 84.5925 99.4478 84.621 99.3995 84.625L99.3892 84.6216C99.3644 84.622 99.34 84.6155 99.3188 84.6027ZM62.2979 84.0088C62.1399 83.7169 61.987 83.4165 61.8444 83.1161C61.8223 83.0701 61.8264 83.0158 61.8552 82.9737C61.884 82.9315 61.9332 82.908 61.9841 82.9119C62.035 82.9157 62.08 82.9465 62.1021 82.9925C62.2447 83.2895 62.3941 83.5847 62.5487 83.8731C62.5669 83.9066 62.571 83.9459 62.56 83.9823C62.5491 84.0187 62.524 84.0493 62.4903 84.0671C62.4732 84.0782 62.4539 84.0852 62.4336 84.0877L62.4233 84.0843C62.3707 84.0845 62.3223 84.0554 62.2979 84.0088ZM100.262 82.8329C100.189 82.8001 100.157 82.7148 100.19 82.6423C100.326 82.3453 100.456 82.0398 100.58 81.7307C100.594 81.6954 100.621 81.667 100.656 81.6518C100.691 81.6367 100.73 81.636 100.765 81.6501C100.839 81.6795 100.875 81.7632 100.846 81.8372C100.721 82.1496 100.588 82.4603 100.451 82.7625C100.427 82.8129 100.376 82.845 100.32 82.8449C100.3 82.8452 100.28 82.8411 100.262 82.8329ZM61.4424 82.1959C61.3135 81.8904 61.1915 81.5779 61.0764 81.2638C61.0499 81.1894 61.0882 81.1075 61.1623 81.0801C61.2368 81.0546 61.318 81.0925 61.3462 81.1659C61.4578 81.4749 61.5798 81.7839 61.7069 82.0844C61.7222 82.1194 61.7226 82.159 61.708 82.1943C61.6934 82.2296 61.6651 82.2574 61.6296 82.2715C61.6125 82.2797 61.5937 82.2838 61.5747 82.2835C61.5167 82.2843 61.4643 82.2495 61.4424 82.1959ZM101.008 80.972C100.971 80.96 100.942 80.9338 100.925 80.8995C100.909 80.8653 100.907 80.8258 100.92 80.7901C101.025 80.4828 101.126 80.1652 101.219 79.8476C101.233 79.7985 101.272 79.7607 101.322 79.7484C101.371 79.7361 101.424 79.7511 101.459 79.7879C101.495 79.8246 101.508 79.8775 101.494 79.9266C101.399 80.2493 101.298 80.5703 101.19 80.8845C101.171 80.944 101.116 80.9849 101.054 80.9858V80.9806C101.038 80.9802 101.022 80.9774 101.008 80.972ZM60.7535 80.3093C60.6538 79.9917 60.561 79.6673 60.4769 79.3445C60.464 79.2952 60.4784 79.2427 60.5148 79.2068C60.5511 79.171 60.6038 79.1572 60.6531 79.1708C60.7023 79.1843 60.7406 79.223 60.7535 79.2724C60.8376 79.5917 60.9253 79.911 61.0266 80.2235C61.0467 80.2968 61.0048 80.3728 60.9321 80.3951C60.9192 80.4042 60.9046 80.4107 60.8892 80.414V80.4089C60.8271 80.4088 60.7722 80.3685 60.7535 80.3093ZM101.571 79.063C101.495 79.0444 101.448 78.9677 101.466 78.8914C101.542 78.5721 101.612 78.2459 101.674 77.9232C101.689 77.8454 101.764 77.7943 101.842 77.809C101.919 77.8237 101.971 77.8986 101.956 77.9764C101.892 78.3043 101.822 78.6339 101.745 78.9583C101.73 79.0195 101.677 79.064 101.614 79.0682L101.605 79.063C101.594 79.0647 101.582 79.0647 101.571 79.063ZM60.2346 78.3626C60.1659 78.0382 60.1041 77.7069 60.0508 77.3755C60.0449 77.3382 60.054 77.3 60.0763 77.2695C60.0985 77.2389 60.132 77.2184 60.1693 77.2125C60.2081 77.2034 60.2488 77.2111 60.2815 77.2336C60.3142 77.2562 60.3359 77.2915 60.3411 77.3309C60.3927 77.6571 60.4545 77.9833 60.5215 78.3043C60.5302 78.3416 60.5234 78.3809 60.5027 78.4132C60.482 78.4455 60.4492 78.4682 60.4116 78.4759C60.4033 78.4789 60.3946 78.4806 60.3858 78.4811L60.3738 78.4759C60.3064 78.4757 60.2484 78.4285 60.2346 78.3626ZM101.954 77.1026C101.915 77.0968 101.88 77.0751 101.857 77.0426C101.834 77.0102 101.826 76.9698 101.834 76.9309C101.879 76.6048 101.918 76.2752 101.949 75.949C101.956 75.8703 102.026 75.8123 102.104 75.8194C102.183 75.8265 102.241 75.896 102.234 75.9747C102.203 76.3061 102.164 76.6408 102.117 76.9721C102.112 77.0421 102.057 77.0979 101.987 77.1043L101.975 77.1026H101.954ZM59.9151 76.3799C59.8773 76.0485 59.8481 75.7138 59.8257 75.3807C59.821 75.3021 59.881 75.2344 59.9597 75.2297C60.0385 75.2249 60.1062 75.2849 60.1109 75.3636C60.1333 75.6898 60.1625 76.0211 60.2003 76.349C60.2046 76.3868 60.1936 76.4248 60.1697 76.4545C60.1458 76.4841 60.111 76.503 60.0731 76.5069L60.0559 76.5086C59.9832 76.5073 59.9228 76.4521 59.9151 76.3799ZM102.162 75.1145C102.083 75.1108 102.022 75.0442 102.025 74.9652C102.04 74.639 102.049 74.306 102.049 73.9747C102.049 73.7154 102.049 73.4511 102.033 73.1901C102.031 73.1111 102.093 73.0453 102.172 73.0425C102.25 73.0414 102.315 73.1019 102.32 73.1798C102.33 73.4442 102.334 73.712 102.334 73.9747C102.334 74.3094 102.334 74.6476 102.311 74.9772C102.309 75.0522 102.249 75.1127 102.174 75.1163L102.162 75.1145ZM59.8464 74.4749C59.8193 74.4485 59.8039 74.4125 59.8034 74.3747C59.8034 74.2425 59.8034 74.1103 59.8034 73.9764C59.8034 73.7755 59.8034 73.573 59.812 73.3721C59.8166 73.2939 59.8814 73.2329 59.9597 73.2331C60.0388 73.2359 60.1008 73.3017 60.0989 73.3807C60.0989 73.5781 60.0903 73.7773 60.0903 73.9764C60.0903 74.1086 60.0903 74.239 60.0903 74.3695C60.0913 74.4485 60.0285 74.5136 59.9494 74.5154H59.9477C59.9099 74.5159 59.8734 74.5013 59.8464 74.4749ZM59.9924 72.519C59.9137 72.5117 59.8551 72.4433 59.8601 72.3645C59.8859 72.0332 59.9185 71.6984 59.9597 71.3671C59.9692 71.2889 60.0404 71.2332 60.1187 71.2427C60.1969 71.2521 60.2527 71.3232 60.2432 71.4015C60.2037 71.7293 60.1711 72.0607 60.147 72.3868C60.1415 72.4649 60.074 72.5239 59.9958 72.519H60.0044H59.9924ZM101.987 72.1997C101.959 71.8701 101.925 71.5405 101.882 71.216C101.872 71.1378 101.927 71.0659 102.005 71.0555C102.083 71.0451 102.155 71.1 102.165 71.1782C102.208 71.5061 102.245 71.8426 102.274 72.1756C102.28 72.2541 102.222 72.3229 102.143 72.3301H102.129C102.055 72.3296 101.994 72.2732 101.987 72.1997ZM60.214 70.5362C60.1752 70.53 60.1406 70.5081 60.1185 70.4756C60.0963 70.4431 60.0886 70.4029 60.0972 70.3645C60.1539 70.0349 60.2192 69.7036 60.2896 69.3792C60.3006 69.3292 60.3375 69.2889 60.3864 69.2734C60.4352 69.258 60.4886 69.2698 60.5264 69.3043C60.5642 69.3389 60.5807 69.391 60.5696 69.441C60.4992 69.7603 60.4356 70.0864 60.3789 70.4126C60.3695 70.4832 60.3093 70.536 60.2381 70.5362H60.214ZM101.726 70.2323C101.667 69.9095 101.6 69.5834 101.526 69.2623C101.518 69.2252 101.524 69.1861 101.545 69.1539C101.565 69.1216 101.597 69.0988 101.635 69.0907C101.672 69.0814 101.711 69.0875 101.743 69.1076C101.775 69.1276 101.798 69.1599 101.806 69.1971C101.882 69.5216 101.949 69.8529 102.009 70.1791C102.018 70.2172 102.01 70.2571 101.988 70.2896C101.967 70.322 101.933 70.3441 101.894 70.3507H101.867C101.797 70.3502 101.738 70.3004 101.726 70.2323ZM60.6315 68.586C60.5566 68.5659 60.5116 68.4896 60.5301 68.4144C60.6177 68.0916 60.7139 67.7689 60.8153 67.4513C60.8449 67.3829 60.9217 67.3483 60.9926 67.3715C61.0635 67.3946 61.105 67.4679 61.0885 67.5406C60.9871 67.853 60.8926 68.1723 60.8067 68.4882C60.7867 68.547 60.7314 68.5864 60.6693 68.586C60.6567 68.5878 60.644 68.5878 60.6315 68.586ZM101.276 68.2993C101.186 67.9834 101.088 67.6658 100.985 67.3534C100.96 67.2785 101 67.1974 101.075 67.1723C101.15 67.1471 101.231 67.1875 101.257 67.2624C101.363 67.58 101.461 67.9027 101.55 68.222C101.563 68.2651 101.554 68.3115 101.527 68.3473C101.5 68.3831 101.458 68.4041 101.413 68.404C101.349 68.404 101.293 68.3611 101.276 68.2993ZM61.2328 66.6788C61.1962 66.6654 61.1667 66.6377 61.1512 66.602C61.1356 66.5664 61.1353 66.5259 61.1503 66.49C61.2671 66.1793 61.3943 65.8651 61.5266 65.5578C61.5416 65.5228 61.5701 65.4953 61.6056 65.4815C61.6411 65.4676 61.6807 65.4685 61.7155 65.484C61.7878 65.5161 61.8207 65.6003 61.7894 65.6729C61.6588 65.975 61.5334 66.284 61.4183 66.5913C61.3965 66.6462 61.3434 66.6822 61.2843 66.6823V66.6874C61.2668 66.6872 61.2494 66.6843 61.2328 66.6788ZM100.648 66.423C100.53 66.1192 100.403 65.8119 100.271 65.5115C100.25 65.4649 100.255 65.4107 100.285 65.3693C100.315 65.3279 100.365 65.3057 100.416 65.3109C100.467 65.3162 100.511 65.3481 100.532 65.3947C100.667 65.7003 100.796 66.011 100.915 66.32C100.929 66.3553 100.928 66.3947 100.913 66.4295C100.898 66.4643 100.869 66.4917 100.834 66.5054C100.817 66.5098 100.8 66.511 100.782 66.5089V66.5157C100.723 66.5154 100.67 66.4786 100.648 66.423ZM61.9572 64.7776C61.9311 64.7359 61.9281 64.6837 61.9492 64.6393C62.0969 64.3389 62.2515 64.0385 62.413 63.7466C62.4379 63.7019 62.4848 63.6737 62.536 63.6729C62.5872 63.672 62.635 63.6985 62.6614 63.7424C62.6878 63.7863 62.6887 63.8409 62.6639 63.8857C62.5058 64.1724 62.3512 64.4694 62.2069 64.7646C62.183 64.8141 62.1329 64.8455 62.078 64.8453C62.0288 64.8448 61.9833 64.8193 61.9572 64.7776ZM99.8479 64.6067C99.7019 64.3131 99.5456 64.0196 99.3858 63.7329C99.3668 63.7 99.362 63.6608 99.3723 63.6243C99.3827 63.5878 99.4074 63.557 99.4408 63.5389C99.4737 63.52 99.5129 63.5151 99.5494 63.5255C99.586 63.5358 99.6168 63.5605 99.6349 63.5938C99.8067 63.8839 99.9562 64.1809 100.106 64.4779C100.139 64.5491 100.11 64.6342 100.04 64.6702C100.021 64.6803 99.9989 64.6856 99.9768 64.6856C99.9224 64.6857 99.8725 64.6552 99.8479 64.6067ZM62.9662 63.0703C62.9339 63.0507 62.9106 63.0191 62.9016 62.9824C62.8926 62.9457 62.8985 62.9069 62.9181 62.8746C63.0899 62.5896 63.2772 62.3064 63.4644 62.03C63.4933 61.9877 63.5425 61.9639 63.5936 61.9677C63.6447 61.9715 63.6899 62.0023 63.7122 62.0484C63.7344 62.0945 63.7304 62.149 63.7015 62.1913C63.5177 62.4626 63.3356 62.7424 63.1638 63.0239C63.1372 63.0666 63.0904 63.0925 63.0401 63.0926C63.0138 63.0924 62.9882 63.0846 62.9662 63.0703ZM98.8755 62.878C98.7037 62.5999 98.5182 62.3218 98.3309 62.0523C98.3002 62.0102 98.2943 61.9551 98.3154 61.9075C98.3364 61.8599 98.3813 61.8272 98.4331 61.8217C98.4848 61.8161 98.5356 61.8386 98.5663 61.8806C98.757 62.1553 98.9425 62.4368 99.1178 62.7183C99.1594 62.7853 99.1395 62.8732 99.0731 62.9158C99.0509 62.9319 99.0248 62.9419 98.9975 62.9449H98.9958C98.9466 62.9457 98.9007 62.9202 98.8755 62.878ZM64.0829 61.4102C64.0199 61.3632 64.0068 61.2741 64.0537 61.211C64.2547 60.9449 64.4643 60.6806 64.6773 60.4231C64.7012 60.3935 64.736 60.3748 64.7738 60.3712C64.8117 60.3677 64.8494 60.3796 64.8783 60.4042C64.9075 60.4283 64.9259 60.463 64.9295 60.5007C64.933 60.5384 64.9214 60.5759 64.8972 60.605C64.6876 60.8591 64.4798 61.1201 64.2839 61.3827C64.2565 61.4185 64.2139 61.4395 64.1688 61.4394C64.1376 61.4399 64.1073 61.4296 64.0829 61.4102ZM97.7468 61.2488C97.5475 60.9879 97.3379 60.7338 97.1266 60.478C97.0766 60.417 97.0842 60.3272 97.1438 60.2754C97.2046 60.2245 97.2952 60.2322 97.3465 60.2926C97.5613 60.5467 97.7726 60.8076 97.9753 61.0754C98.0077 61.1191 98.0127 61.1772 97.9884 61.2258C97.9641 61.2743 97.9145 61.3051 97.8602 61.3055C97.8157 61.3048 97.774 61.284 97.7468 61.2488ZM65.3491 59.8635C65.2907 59.8103 65.2861 59.7199 65.3388 59.661C65.5638 59.4155 65.7975 59.1717 66.026 58.9365C66.0527 58.9095 66.0892 58.8943 66.1273 58.8943C66.1654 58.8943 66.2019 58.9095 66.2287 58.9365C66.2832 58.9931 66.2832 59.0826 66.2287 59.1391C65.995 59.3709 65.7648 59.6112 65.5415 59.855C65.5167 59.8824 65.4822 59.8991 65.4453 59.9013C65.4095 59.9015 65.3751 59.888 65.3491 59.8635ZM96.4686 59.7314C96.2453 59.491 96.0134 59.2524 95.7814 59.0224C95.7269 58.9658 95.7269 58.8763 95.7814 58.8198C95.8082 58.7927 95.8447 58.7775 95.8828 58.7775C95.9209 58.7775 95.9574 58.7927 95.9842 58.8198C96.223 59.0533 96.4583 59.2953 96.6834 59.5391C96.7226 59.5806 96.7333 59.6415 96.7105 59.6939C96.6876 59.7462 96.6357 59.7799 96.5786 59.7794L96.5734 59.7777C96.5335 59.7778 96.4954 59.7609 96.4686 59.7314ZM66.7187 58.3975C66.6975 58.3422 66.7123 58.2795 66.7561 58.2395C67.0035 58.0146 67.2595 57.7948 67.5154 57.5837C67.5446 57.5595 67.5822 57.5479 67.6199 57.5515C67.6576 57.555 67.6923 57.5734 67.7164 57.6026C67.7659 57.6635 67.7575 57.7527 67.6975 57.8034C67.445 58.0129 67.1942 58.2309 66.9485 58.4523C66.9238 58.4746 66.8924 58.4879 66.8592 58.4901H66.8523C66.793 58.4896 66.74 58.4529 66.7187 58.3975ZM95.0444 58.3408C94.7987 58.121 94.5445 57.9047 94.2919 57.6987C94.2485 57.6469 94.247 57.5719 94.2882 57.5183C94.3295 57.4647 94.4024 57.4469 94.4637 57.4756C94.7214 57.685 94.9791 57.9047 95.2282 58.1279C95.2566 58.153 95.2737 58.1884 95.2756 58.2262C95.2776 58.264 95.2642 58.3009 95.2385 58.3288C95.2156 58.356 95.1829 58.3732 95.1475 58.3768H95.1406C95.1052 58.3769 95.0711 58.364 95.0444 58.3408ZM68.2851 57.1614C68.2382 57.0984 68.2513 57.0093 68.3143 56.9623C68.5806 56.7615 68.8555 56.5658 69.1304 56.3786C69.1727 56.3498 69.2272 56.3458 69.2734 56.368C69.3195 56.3902 69.3503 56.4354 69.3541 56.4864C69.3579 56.5375 69.3342 56.5867 69.2918 56.6155C69.0204 56.7992 68.749 56.9932 68.4861 57.1906C68.4612 57.2091 68.4312 57.2193 68.4002 57.2198C68.3549 57.2193 68.3123 57.1977 68.2851 57.1614ZM93.5103 57.091C93.2474 56.8953 92.9743 56.7047 92.6994 56.521C92.6675 56.5001 92.6453 56.4672 92.6379 56.4297C92.6305 56.3923 92.6384 56.3535 92.6599 56.3219C92.7042 56.2563 92.7931 56.2387 92.8592 56.2824C93.1358 56.4678 93.4123 56.6618 93.6804 56.8592C93.7294 56.8963 93.7496 56.9603 93.7306 57.0188C93.7116 57.0772 93.6577 57.1172 93.5962 57.1184C93.5654 57.1186 93.5353 57.109 93.5103 57.091ZM69.9378 56.0301C69.8965 55.9627 69.9172 55.8747 69.9842 55.8327C70.2677 55.661 70.5597 55.4893 70.8432 55.3297C70.9118 55.2998 70.9918 55.3273 71.0276 55.393C71.0634 55.4586 71.043 55.5407 70.9806 55.582C70.6937 55.74 70.4051 55.9065 70.1216 56.0765C70.1011 56.0897 70.0773 56.0968 70.0529 56.0971L70.0598 56.0988C70.0098 56.0991 69.9634 56.073 69.9378 56.0301ZM91.8644 55.9889C91.5827 55.8173 91.2941 55.6542 91.0055 55.498C90.9357 55.4605 90.9096 55.3737 90.947 55.304C90.9845 55.2343 91.0714 55.2082 91.1412 55.2456C91.4367 55.4053 91.7304 55.5718 92.0156 55.7434C92.048 55.763 92.0712 55.7946 92.0802 55.8313C92.0893 55.868 92.0833 55.9068 92.0637 55.9391C92.0359 55.9847 91.9847 56.0107 91.9314 56.0061L91.9383 56.0078C91.9124 56.0085 91.8868 56.002 91.8644 55.9889ZM71.6604 55.0274C71.6451 54.9621 71.6775 54.8949 71.7383 54.8662C72.0372 54.7203 72.343 54.5795 72.6488 54.4473C72.7214 54.416 72.8056 54.4495 72.8369 54.522C72.8682 54.5945 72.8348 54.6787 72.7622 54.71C72.4615 54.8404 72.1592 54.9795 71.8637 55.1237C71.8442 55.1323 71.8231 55.137 71.8018 55.1374C71.7347 55.1386 71.6758 55.0928 71.6604 55.0274ZM90.1052 55.0447C89.8063 54.9022 89.5022 54.7666 89.1998 54.6395C89.1526 54.6199 89.1194 54.5766 89.1127 54.5259C89.1061 54.4752 89.1271 54.4248 89.1677 54.3937C89.2084 54.3626 89.2625 54.3555 89.3098 54.3752C89.6173 54.5039 89.9265 54.643 90.2272 54.7872C90.2617 54.8032 90.2884 54.8323 90.3013 54.8681C90.3142 54.9039 90.3123 54.9434 90.2959 54.9777C90.2719 55.0273 90.2221 55.0591 90.167 55.0601H90.1653C90.1443 55.0601 90.1236 55.0548 90.1052 55.0447ZM73.4901 54.2315C73.4773 54.1629 73.5161 54.0952 73.5816 54.0714C73.8943 53.9547 74.2121 53.8431 74.53 53.7401C74.6054 53.7159 74.6862 53.7574 74.7104 53.8328C74.7346 53.9082 74.693 53.9889 74.6176 54.0131C74.3049 54.1143 73.9905 54.2242 73.683 54.3392C73.6676 54.3451 73.6513 54.348 73.6349 54.3478H73.6332C73.5634 54.3492 73.5029 54.3 73.4901 54.2315ZM88.2704 54.2825C87.9612 54.171 87.6451 54.0628 87.3307 53.9649C87.2549 53.9411 87.2127 53.8605 87.2362 53.7847C87.2593 53.7127 87.3351 53.6718 87.408 53.692C87.7275 53.7916 88.0488 53.8997 88.3615 54.0147C88.3974 54.0275 88.4267 54.0541 88.4428 54.0886C88.459 54.1232 88.4606 54.1627 88.4474 54.1984C88.4254 54.2484 88.3765 54.2812 88.322 54.2825H88.3202C88.3038 54.286 88.2868 54.286 88.2704 54.2825ZM75.3956 53.6114C75.386 53.5408 75.4302 53.474 75.4989 53.4551C75.8219 53.3675 76.15 53.2834 76.4747 53.2147C76.5247 53.2037 76.5769 53.2201 76.6114 53.2579C76.646 53.2957 76.6578 53.349 76.6424 53.3978C76.6269 53.4466 76.5866 53.4835 76.5366 53.4945C76.2153 53.5649 75.8923 53.6456 75.5745 53.7297C75.5624 53.7339 75.5495 53.7357 75.5367 53.7349C75.4654 53.7348 75.4051 53.6821 75.3956 53.6114ZM86.3737 53.6869C86.0576 53.6045 85.7329 53.5289 85.41 53.4603C85.3599 53.4495 85.3194 53.4129 85.3037 53.3643C85.288 53.3156 85.2995 53.2623 85.3338 53.2244C85.3681 53.1865 85.4201 53.1697 85.4701 53.1804C85.7965 53.2491 86.1264 53.3264 86.4476 53.4105C86.5197 53.4263 86.5678 53.4946 86.5584 53.5677C86.549 53.6409 86.4853 53.6948 86.4115 53.692V53.6869H86.3737ZM77.3528 53.1755C77.3467 53.1033 77.3952 53.0378 77.466 53.0224C77.7941 52.9658 78.1274 52.9177 78.459 52.8765C78.5374 52.8684 78.6081 52.9238 78.6188 53.0018C78.6279 53.0804 78.5719 53.1516 78.4933 53.1615C78.1669 53.2009 77.8371 53.249 77.5141 53.304L77.49 53.3074C77.4176 53.3041 77.3589 53.2476 77.3528 53.1755ZM84.4324 53.2714C84.1094 53.2199 83.7796 53.1753 83.4515 53.1375C83.4005 53.132 83.3564 53.0997 83.3357 53.0529C83.315 53.0061 83.3209 52.9517 83.3512 52.9104C83.3814 52.8691 83.4314 52.847 83.4824 52.8526C83.8157 52.8903 84.1507 52.9367 84.4771 52.9899C84.5507 53.0014 84.603 53.0676 84.5972 53.1418C84.5913 53.2161 84.5293 53.2733 84.4548 53.2731V53.2714H84.4324ZM79.3283 52.928C79.3255 52.8902 79.3378 52.8528 79.3627 52.8241C79.3875 52.7954 79.4227 52.7778 79.4606 52.7752C79.7904 52.7512 80.1272 52.734 80.4639 52.7237C80.5375 52.7292 80.5951 52.7894 80.5973 52.8632C80.5995 52.9369 80.5457 53.0005 80.4725 53.0104C80.1409 53.0104 79.8076 53.0361 79.4829 53.0602H79.4726C79.3974 53.0604 79.3346 53.0029 79.3283 52.928ZM82.4533 53.0482C82.1269 53.0259 81.7936 53.0122 81.4638 53.0053C81.4259 53.0044 81.39 52.9885 81.3639 52.9611C81.3378 52.9338 81.3237 52.8972 81.3246 52.8594C81.325 52.8214 81.3408 52.7853 81.3683 52.7591C81.3958 52.7329 81.4327 52.7189 81.4706 52.7203C81.8039 52.7203 82.1406 52.7409 82.4722 52.7615C82.5454 52.7695 82.6008 52.8313 82.6008 52.9049C82.6008 52.9784 82.5454 53.0402 82.4722 53.0482H82.4671H82.4533Z" fill="#F94F24"/>
<ellipse cx="81.0664" cy="73.9839" rx="18.3962" ry="18.3962" transform="rotate(-45 81.0664 73.9839)" fill="url(#paint0_linear)"/>
<g style="mix-blend-mode:multiply">
<path fill-rule="evenodd" clip-rule="evenodd" d="M98.9841 70.0517C98.9238 69.9483 98.9192 69.8212 98.972 69.7137C99.0248 69.6062 99.1279 69.5328 99.246 69.5185C97.543 67.5822 95.0979 66.4752 92.5308 66.4781C91.9085 66.4782 91.2878 66.5429 90.6786 66.6714C88.1463 62.9867 83.7096 61.1362 79.335 61.9401C74.9603 62.744 71.4568 66.0536 70.3771 70.402C70.1341 70.3779 69.8858 70.364 69.6359 70.364C67.0861 70.324 64.7129 71.6724 63.4264 73.8919C62.1399 76.1114 62.1399 78.8576 63.4264 81.0771C64.7129 83.2967 67.0861 84.645 69.6359 84.605H92.5308C94.4685 84.605 96.0039 84.0873 97.4401 82.6413C98.2797 80.8879 98.8626 79.021 99.1707 77.0989C99.5336 74.9316 100.184 72.062 98.9841 70.0517Z" fill="#EBEBEB"/>
</g>
<path fill-rule="evenodd" clip-rule="evenodd" d="M89.7929 65.6114C87.2359 61.9257 82.756 60.0737 78.3377 60.8759C73.9194 61.6781 70.3794 64.9861 69.2858 69.3346C66.6599 69.0567 64.0949 70.2494 62.6182 72.435C61.1416 74.6206 60.9946 77.4417 62.2363 79.7684C63.478 82.0951 65.9052 83.5469 68.5458 83.5424H91.6619C96.675 83.5424 100.739 79.4852 100.739 74.4802C100.739 69.4753 96.675 65.418 91.6619 65.418C91.0339 65.4181 90.4076 65.4829 89.7929 65.6114Z" fill="url(#paint1_linear)"/>
<path fill-rule="evenodd" clip-rule="evenodd" d="M69.2816 70.6167C70.374 66.2246 73.9146 62.8829 78.3342 62.0728C82.7538 61.2626 87.2349 63.1338 89.7914 66.857C92.3664 66.3124 95.0492 66.9203 97.1452 68.5233C99.2413 70.1263 100.545 72.5668 100.718 75.2131C100.732 75.0162 100.739 74.8157 100.739 74.6153C100.738 71.858 99.504 69.2481 97.3801 67.5106C95.2561 65.7731 92.4684 65.0931 89.7914 65.6595C87.2341 61.9378 82.7536 60.0677 78.3347 60.8777C73.9158 61.6878 70.3753 65.0282 69.2816 69.4193C67.272 69.2094 65.2682 69.8666 63.766 71.2284C62.2638 72.5902 61.4036 74.5292 61.3983 76.5657C61.3983 76.7679 61.4069 76.9666 61.4242 77.1653C61.7351 73.4407 64.8248 70.5771 68.5329 70.5767C68.783 70.5768 69.0329 70.5902 69.2816 70.6167Z" fill="#C4ECEC"/>
<path fill-rule="evenodd" clip-rule="evenodd" d="M77.8586 72.383L80.0053 77.1658H79.4322L78.8804 75.9124H76.3243L75.7659 77.1658H75.2206L77.3674 72.383H77.8586ZM77.6081 73.0047L76.5306 75.4242H78.6773L77.6081 73.0047Z" fill="#6731CF"/>
<path fill-rule="evenodd" clip-rule="evenodd" d="M83.4635 72.383C84.5843 72.383 85.3216 72.9567 85.3216 73.8996V73.9146C85.3216 74.9457 84.4271 75.4795 83.3703 75.4795H82.1615V77.1658H81.6002L81.6037 72.383H83.4635ZM84.7535 73.9346V73.9213C84.7535 73.2378 84.2216 72.8819 83.4203 72.8819H82.1649V74.9873H83.391C84.2147 74.9873 84.7535 74.5632 84.7535 73.9346Z" fill="#6731CF"/>
<path fill-rule="evenodd" clip-rule="evenodd" d="M86.9165 72.383V77.1658H86.3849V72.383H86.9165Z" fill="#6731CF"/>
<g style="mix-blend-mode:multiply">
<path fill-rule="evenodd" clip-rule="evenodd" d="M105.346 83.3917C105.322 83.1187 105.223 83.0328 104.942 83.0261C104.448 83.0126 103.954 82.994 103.459 82.9856C103.307 83.0047 103.165 82.9057 103.133 82.7581C103.065 82.5421 102.968 82.3359 102.845 82.1448C102.583 81.7538 102.299 81.3781 102.011 81.0057C101.939 80.9355 101.918 80.8293 101.958 80.7377C102.059 80.4833 102.151 80.2322 102.242 79.966C102.345 79.6761 102.441 79.3829 102.539 79.0914C102.585 78.81 102.314 78.7005 101.995 78.5269C101.481 78.2691 100.981 78.0028 100.466 77.7535C100.24 77.6439 100.124 77.6928 99.9745 77.8984C99.682 78.3342 99.3901 78.7718 99.0987 79.211C99.0623 79.2879 98.9735 79.3261 98.8913 79.3004C98.0455 79.136 97.1728 79.1631 96.3392 79.3796C96.2681 79.3881 96.1969 79.3646 96.1455 79.3155C95.7582 78.8993 95.3777 78.473 94.9989 78.0534C94.8104 77.8444 94.6784 77.8293 94.4401 77.9961C93.8968 78.3719 93.3518 78.7476 92.805 79.1167C92.5599 79.2852 92.5102 79.4318 92.6491 79.6862C92.8936 80.1356 93.1415 80.5849 93.3929 81.0343C93.4427 81.1089 93.4319 81.2077 93.3672 81.2702C93.1448 81.5486 92.9443 81.8432 92.7673 82.1515C92.5881 82.5204 92.4291 82.8984 92.2908 83.2839C92.2668 83.3733 92.1904 83.4398 92.0972 83.4524C91.5555 83.5484 91.0174 83.6563 90.4775 83.7608C90.1432 83.8265 90.0884 83.8922 90.1107 84.2326C90.1552 84.8847 90.2084 85.5351 90.2529 86.1873C90.2718 86.4687 90.366 86.5681 90.654 86.5799C91.1682 86.6001 91.6944 86.6271 92.2137 86.6406C92.3423 86.6406 92.3851 86.6962 92.4297 86.8091C92.7279 87.5923 93.1957 88.3024 93.8008 88.8901C93.8431 88.9533 93.855 89.0316 93.8334 89.1041C93.662 89.6366 93.4906 90.1674 93.3192 90.6982C93.2737 90.791 93.2723 90.8988 93.3153 90.9927C93.3582 91.0867 93.4412 91.1571 93.542 91.1852C94.1762 91.4666 94.8069 91.7531 95.4445 92.0278C95.5426 92.0609 95.651 92.0459 95.7359 91.9873C95.8952 91.8446 96.0362 91.6833 96.1558 91.5071C96.3718 91.1852 96.5603 90.8448 96.7711 90.5179C96.8112 90.4633 96.8741 90.4292 96.9425 90.4252C97.7227 90.5364 98.5177 90.4894 99.2787 90.2871C99.351 90.2722 99.4262 90.2908 99.4826 90.3376C99.8546 90.737 100.218 91.1431 100.578 91.5509C100.82 91.8239 100.945 91.8542 101.238 91.6554C101.791 91.2813 102.338 90.8988 102.885 90.5162C102.972 90.471 103.035 90.3911 103.058 90.2969C103.081 90.2027 103.062 90.1034 103.005 90.0242C102.753 89.549 102.491 89.0806 102.24 88.607C102.212 88.5502 102.212 88.4836 102.24 88.4267C102.745 87.8154 103.116 87.108 103.329 86.349C103.349 86.2501 103.434 86.1765 103.536 86.1687C104.07 86.0676 104.603 85.9632 105.135 85.8553C105.49 85.7812 105.545 85.7087 105.518 85.3633C105.464 84.7061 105.404 84.0489 105.346 83.3917ZM94.6637 86.1589C94.136 84.9065 94.4277 83.4649 95.4026 82.5063C96.3776 81.5478 97.8439 81.261 99.1178 81.7798C100.392 82.2985 101.222 83.5207 101.222 84.8763C101.218 86.724 99.6927 88.2195 97.8132 88.2195V88.2279C96.4344 88.2279 95.1913 87.4113 94.6637 86.1589Z" fill="#EBEBEB"/>
</g>
<path fill-rule="evenodd" clip-rule="evenodd" d="M98.3466 87.2625C95.8509 87.2625 93.8277 85.2401 93.8277 82.7454C93.8277 80.2507 95.8509 78.2283 98.3466 78.2283C99.545 78.2283 100.694 78.7042 101.542 79.5513C102.389 80.3984 102.865 81.5474 102.865 82.7454C102.865 85.2401 100.842 87.2625 98.3466 87.2625Z" fill="white"/>
<path fill-rule="evenodd" clip-rule="evenodd" d="M105.878 82.3297C105.854 82.0567 105.756 81.9708 105.475 81.964C104.98 81.9505 104.486 81.932 103.993 81.9236C103.84 81.9427 103.698 81.8439 103.665 81.6961C103.598 81.4799 103.501 81.2736 103.377 81.0827C103.115 80.6917 102.831 80.3159 102.543 79.9418C102.47 79.8725 102.449 79.7666 102.489 79.6756C102.592 79.4211 102.685 79.17 102.776 78.9038C102.877 78.6139 102.973 78.3207 103.071 78.0292C103.117 77.7461 102.846 77.6382 102.527 77.4647C102.013 77.2052 101.513 76.9406 100.998 76.6912C100.774 76.5817 100.656 76.6305 100.508 76.8361C100.213 77.272 99.9214 77.7096 99.6323 78.1488C99.5958 78.2265 99.5059 78.2649 99.4232 78.2382C98.5776 78.0732 97.7048 78.0997 96.8712 78.3157C96.8003 78.325 96.729 78.302 96.6775 78.2533C96.2901 77.8371 95.9096 77.4108 95.5308 76.9912C95.3423 76.7822 95.2103 76.767 94.9721 76.9322C94.4288 77.3096 93.8855 77.6854 93.337 78.0545C93.0919 78.223 93.0422 78.3696 93.181 78.6224C93.4278 79.0717 93.6758 79.5211 93.9249 79.9705C93.9751 80.0447 93.965 80.1434 93.9009 80.2064C93.6778 80.4837 93.4772 80.7778 93.301 81.0861C93.1211 81.4552 92.962 81.8338 92.8245 82.2202C92.8002 82.3101 92.723 82.3767 92.6291 82.3887C92.0875 82.4864 91.5493 82.5943 91.0094 82.6987C90.6667 82.7645 90.6204 82.8285 90.6427 83.1706C90.6872 83.8227 90.7421 84.4732 90.7849 85.1253C90.8038 85.4068 90.898 85.5045 91.1877 85.5163C91.7019 85.5382 92.2263 85.5652 92.7457 85.577C92.851 85.5704 92.9443 85.6432 92.9616 85.7455C93.2594 86.5294 93.7273 87.2402 94.3328 87.8283C94.3757 87.8912 94.3877 87.9698 94.3654 88.0423C94.194 88.5748 94.0226 89.104 93.8512 89.6365C93.8057 89.7293 93.8043 89.8371 93.8472 89.931C93.8902 90.0249 93.9732 90.0954 94.074 90.1235C94.7081 90.4049 95.3389 90.6914 95.9765 90.9661C96.0747 90.9984 96.1826 90.9834 96.2678 90.9256C96.4271 90.7829 96.5681 90.6216 96.6878 90.4453C96.9037 90.1218 97.0923 89.7831 97.3031 89.4562C97.3448 89.399 97.4115 89.3647 97.483 89.3635C98.2632 89.4746 99.0582 89.4276 99.8191 89.2253C99.892 89.2106 99.9676 89.2292 100.025 89.2759C100.395 89.6747 100.76 90.0791 101.118 90.4892C101.36 90.7621 101.485 90.7925 101.778 90.5936C102.332 90.2173 102.882 89.8376 103.427 89.4545C103.514 89.4089 103.577 89.3288 103.599 89.2347C103.622 89.1405 103.602 89.0414 103.545 88.9624C103.295 88.4872 103.031 88.0187 102.781 87.5452C102.752 87.4886 102.752 87.4215 102.781 87.3649C103.285 86.7533 103.655 86.0459 103.868 85.2871C103.887 85.1879 103.972 85.114 104.075 85.1068C104.608 85.0057 105.143 84.9012 105.676 84.7934C106.017 84.7192 106.077 84.6468 106.049 84.3013C105.996 83.6424 105.936 82.9869 105.878 82.3297ZM95.1871 85.0884C94.6594 83.8359 94.9511 82.3943 95.926 81.4357C96.901 80.4771 98.3673 80.1904 99.6412 80.7091C100.915 81.2279 101.746 82.4501 101.746 83.8058C101.746 85.6536 100.225 87.1529 98.3452 87.1575H98.3366C96.9578 87.1575 95.7147 86.3409 95.1871 85.0884Z" fill="url(#paint2_linear)"/>
<path fill-rule="evenodd" clip-rule="evenodd" d="M44.6509 66.8076C44.6905 66.7395 44.7782 66.7143 44.8479 66.7512L44.9984 66.8348C45.0319 66.8526 45.0566 66.8829 45.067 66.919C45.0773 66.9551 45.0724 66.9939 45.0534 67.0268C45.0139 67.095 44.9261 67.1202 44.8564 67.0833L44.706 66.9996C44.6726 66.9824 44.6478 66.9527 44.6372 66.9172C44.6261 66.8806 44.6311 66.841 44.6509 66.8076ZM45.7155 67.3399C45.7616 67.3046 45.8243 67.2988 45.8754 67.3252L46.7373 67.8106C46.8006 67.8517 46.82 67.9342 46.7816 67.9995C46.7433 68.0648 46.6602 68.0905 46.5915 68.0584L45.7213 67.5754C45.6911 67.5548 45.67 67.5238 45.6621 67.4885C45.6485 67.4334 45.6694 67.3751 45.7155 67.3399ZM47.4226 68.3468C47.4621 68.2786 47.5499 68.2534 47.6196 68.2903L48.4898 68.7733C48.5532 68.8144 48.5725 68.8969 48.5342 68.9622C48.4958 69.0274 48.4127 69.0532 48.344 69.0211L47.4693 68.5412C47.4389 68.5214 47.4174 68.4911 47.4088 68.4564C47.3978 68.4197 47.4028 68.3801 47.4226 68.3468ZM49.2039 69.2699C49.2506 69.234 49.3145 69.2293 49.3653 69.2581L50.2355 69.7411C50.28 69.7658 50.3073 69.812 50.3072 69.8623C50.3071 69.9127 50.2796 69.9595 50.235 69.9852C50.1903 70.0109 50.1354 70.0115 50.0909 69.9868L49.2207 69.5038C49.1879 69.4861 49.1637 69.4563 49.1536 69.4209C49.1373 69.3657 49.1572 69.3058 49.2039 69.2699ZM50.9137 70.2792C50.9321 70.2462 50.9632 70.2218 50.9999 70.2112C51.0366 70.2007 51.076 70.205 51.109 70.2232L51.9809 70.7057C52.0498 70.7443 52.073 70.8307 52.0326 70.8987C51.9923 70.9666 51.9036 70.9905 51.8347 70.9519L50.9645 70.4689C50.9305 70.4536 50.9043 70.4256 50.8916 70.3912L50.8983 70.3892C50.8884 70.3522 50.894 70.3126 50.9137 70.2792ZM52.6588 71.2501C52.6983 71.1819 52.7861 71.1567 52.8557 71.1936L53.726 71.6766C53.7893 71.7177 53.8087 71.8002 53.7703 71.8655C53.7319 71.9307 53.6489 71.9565 53.5802 71.9244L52.7184 71.439C52.6842 71.4221 52.6578 71.3932 52.6445 71.358C52.6339 71.3219 52.6391 71.2828 52.6588 71.2501ZM54.404 72.222C54.4435 72.1539 54.5313 72.1287 54.601 72.1655L55.4712 72.6486C55.54 72.6867 55.5634 72.7726 55.5235 72.8405C55.4836 72.9083 55.3954 72.9324 55.3266 72.8943L54.4564 72.4113C54.4246 72.3942 54.4009 72.3656 54.3902 72.3316C54.3792 72.295 54.3842 72.2554 54.404 72.222ZM56.1482 73.1907C56.1878 73.1226 56.2755 73.0974 56.3452 73.1343L57.2071 73.6197C57.2516 73.6443 57.2789 73.6905 57.2788 73.7409C57.2787 73.7912 57.2512 73.8381 57.2066 73.8637C57.162 73.8894 57.1071 73.89 57.0625 73.8654L56.2007 73.38C56.1689 73.3629 56.1452 73.3343 56.1345 73.3003C56.1244 73.2636 56.1294 73.2244 56.1482 73.1907ZM57.8945 74.1594C57.934 74.0913 58.0218 74.0661 58.0915 74.1029L58.9617 74.586C59.025 74.6271 59.0444 74.7096 59.006 74.7748C58.9677 74.8401 58.8846 74.8659 58.8159 74.8338L57.9541 74.3484C57.9214 74.3338 57.8954 74.3081 57.8809 74.276L57.8786 74.2679C57.8686 74.2313 57.8743 74.1921 57.8945 74.1594Z" fill="#F94F24"/>
<circle cx="59.7733" cy="75.1605" r="0.933629" fill="white" stroke="#F94F24" stroke-width="0.5"/>
<circle cx="43.2025" cy="65.6914" r="0.933629" fill="white" stroke="#F94F24" stroke-width="0.5"/>
<path fill-rule="evenodd" clip-rule="evenodd" d="M117.485 66.2299C117.445 66.1616 117.358 66.1364 117.288 66.1734L117.137 66.2573C117.104 66.2751 117.079 66.3055 117.068 66.3417C117.058 66.3778 117.063 66.4167 117.082 66.4497C117.122 66.518 117.209 66.5432 117.279 66.5063L117.43 66.4224C117.463 66.4051 117.488 66.3754 117.499 66.3398C117.51 66.3031 117.505 66.2633 117.485 66.2299ZM116.419 66.7612C116.373 66.7259 116.31 66.7202 116.259 66.7466L115.396 67.2333C115.333 67.2745 115.313 67.3572 115.352 67.4226C115.39 67.488 115.473 67.5138 115.542 67.4817L116.413 66.9973C116.444 66.9767 116.465 66.9456 116.473 66.9102C116.486 66.8549 116.465 66.7966 116.419 66.7612ZM114.71 67.773C114.671 67.7047 114.583 67.6795 114.513 67.7164L113.642 68.2008C113.578 68.242 113.559 68.3247 113.597 68.3901C113.635 68.4555 113.719 68.4813 113.787 68.4491L114.663 67.9678C114.694 67.948 114.715 67.9177 114.724 67.8828C114.735 67.8461 114.73 67.8064 114.71 67.773ZM112.926 68.7059C112.879 68.6699 112.815 68.6653 112.764 68.6941L111.893 69.1784C111.848 69.2032 111.821 69.2495 111.821 69.3C111.821 69.3504 111.848 69.3973 111.893 69.4231C111.938 69.4488 111.993 69.4494 112.037 69.4247L112.909 68.9403C112.942 68.9226 112.966 68.8927 112.976 68.8572C112.992 68.8019 112.972 68.7419 112.926 68.7059ZM111.213 69.7162C111.195 69.6832 111.164 69.6587 111.127 69.6482C111.09 69.6376 111.051 69.642 111.018 69.6602L110.145 70.144C110.076 70.1827 110.052 70.2693 110.093 70.3374C110.133 70.4055 110.222 70.4294 110.291 70.3907L111.162 69.9064C111.196 69.891 111.223 69.863 111.235 69.8285L111.229 69.8265C111.238 69.7894 111.233 69.7498 111.213 69.7162ZM109.467 70.6903C109.427 70.622 109.339 70.5968 109.269 70.6338L108.398 71.1181C108.335 71.1593 108.315 71.242 108.353 71.3074C108.392 71.3728 108.475 71.3986 108.544 71.3664L109.407 70.8797C109.441 70.8627 109.467 70.8338 109.481 70.7985C109.491 70.7623 109.486 70.7231 109.467 70.6903ZM107.719 71.6562C107.679 71.5879 107.592 71.5627 107.522 71.5997L106.65 72.084C106.581 72.1223 106.558 72.2084 106.598 72.2764C106.638 72.3443 106.726 72.3685 106.795 72.3302L107.666 71.8459C107.698 71.8287 107.722 71.8001 107.733 71.7661C107.744 71.7294 107.739 71.6896 107.719 71.6562ZM105.972 72.6326C105.933 72.5643 105.845 72.5391 105.775 72.576L104.912 73.0628C104.867 73.0875 104.84 73.1338 104.84 73.1843C104.84 73.2347 104.868 73.2817 104.912 73.3074C104.957 73.3331 105.012 73.3337 105.057 73.309L105.92 72.8222C105.952 72.8051 105.975 72.7765 105.986 72.7424C105.996 72.7056 105.991 72.6663 105.972 72.6326ZM104.222 73.6014C104.183 73.5331 104.095 73.5079 104.025 73.5449L103.154 74.0292C103.09 74.0704 103.071 74.1531 103.109 74.2185C103.148 74.2839 103.231 74.3097 103.3 74.2775L104.163 73.7908C104.195 73.7762 104.221 73.7504 104.236 73.7183L104.238 73.7101C104.248 73.6735 104.243 73.6342 104.222 73.6014Z" fill="#F94F24"/>
<circle r="0.933629" transform="matrix(-1 0 0 1 118.955 65.6914)" fill="white" stroke="#F94F24" stroke-width="0.5"/>
<circle r="0.933629" transform="matrix(-1 0 0 1 102.384 75.1605)" fill="white" stroke="#F94F24" stroke-width="0.5"/>
<path d="M47.3452 48.5275C47.3452 48.5275 61.8849 38.468 81.1205 38.468C100.356 38.468 118.955 48.5288 118.955 48.5288" stroke="#F94F24" stroke-width="0.5" stroke-linecap="round" stroke-linejoin="round" stroke-dasharray="2 2"/>
<circle r="0.933629" transform="matrix(-1 0 0 1 118.955 48.5288)" fill="white" stroke="#F94F24" stroke-width="0.5"/>
<circle r="0.933629" transform="matrix(-1 0 0 1 47.3452 48.5288)" fill="white" stroke="#F94F24" stroke-width="0.5"/>
<defs>
<linearGradient id="paint0_linear" x1="76.3886" y1="122.405" x2="108.256" y2="108.612" gradientUnits="userSpaceOnUse">
<stop stop-color="#8033EB"/>
<stop offset="0.53" stop-color="#D4648E"/>
<stop offset="1" stop-color="#EC7071"/>
</linearGradient>
<linearGradient id="paint1_linear" x1="125.005" y1="108.832" x2="127.863" y2="78.2329" gradientUnits="userSpaceOnUse">
<stop stop-color="#8033EB"/>
<stop offset="1" stop-color="#A2E1E0"/>
</linearGradient>
<linearGradient id="paint2_linear" x1="90.6384" y1="98.1537" x2="106.055" y2="98.1537" gradientUnits="userSpaceOnUse">
<stop stop-color="#8033EB"/>
<stop offset="1" stop-color="#6731CE"/>
</linearGradient>
</defs>
</svg>
