<svg width="191" height="120" viewBox="0 0 191 120" fill="none" xmlns="http://www.w3.org/2000/svg">
<path fill-rule="evenodd" clip-rule="evenodd" d="M33.6809 19.5255H50.4655C50.3306 11.27 45.0972 3.96016 37.3235 1.16926C29.5499 -1.62163 20.8596 0.689376 15.501 6.97258C10.1423 13.2558 9.23443 22.1988 13.2212 29.43C17.2079 36.6612 25.2566 40.6701 33.4327 39.4971L33.4351 20.4394C33.0689 20.2183 33.15 19.5255 33.6809 19.5255Z" fill="#F2F2F2"/>
<rect x="57.9114" y="98.421" width="103.413" height="1.65413" fill="#F4F4F4"/>
<path fill-rule="evenodd" clip-rule="evenodd" d="M66.1845 36.4127C66.1845 36.4127 66.431 33.0844 69.835 33.0844H164.24C164.24 33.0844 168.77 32.9007 168.77 36.4127V100.075H162.155V45.184L66.1845 38.2767V36.4127Z" fill="#F2F2F2"/>
<rect x="28.9557" y="25.6392" width="9.92766" height="74.4359" fill="#EFEFEF"/>
<rect x="21.5099" y="99.2479" width="148.915" height="0.827069" fill="#DEDEDE"/>
<path fill-rule="evenodd" clip-rule="evenodd" d="M161.325 41.9327C161.325 39.7856 159.552 38.045 157.366 38.045H61.0425C58.8563 38.045 57.0841 39.7856 57.0841 41.9327V48.7969H161.325V41.9327Z" fill="#F94F24"/>
<rect x="160.497" y="50.4509" width="0.827308" height="49.624" fill="#DEDEDE"/>
<rect x="57.9114" y="50.4509" width="0.827302" height="49.624" fill="#DEDEDE"/>
<path fill-rule="evenodd" clip-rule="evenodd" d="M65.9924 45.362C65.3742 45.619 64.662 45.4782 64.1882 45.0053C63.7144 44.5325 63.5723 43.8208 63.8283 43.2023C64.0842 42.5839 64.6877 42.1805 65.3572 42.1805C66.2692 42.1821 67.0086 42.92 67.0118 43.8317C67.0129 44.501 66.6106 45.1051 65.9924 45.362Z" fill="white"/>
<path fill-rule="evenodd" clip-rule="evenodd" d="M79.2292 45.362C78.611 45.619 77.8989 45.4782 77.4251 45.0053C76.9513 44.5325 76.8092 43.8208 77.0651 43.2023C77.321 42.5839 77.9245 42.1805 78.594 42.1805C79.506 42.1821 80.2454 42.92 80.2486 43.8317C80.2498 44.501 79.8474 45.1051 79.2292 45.362Z" fill="white"/>
<path fill-rule="evenodd" clip-rule="evenodd" d="M92.4662 45.362C91.848 45.619 91.1358 45.4782 90.662 45.0053C90.1882 44.5325 90.0461 43.8208 90.302 43.2023C90.558 42.5839 91.1615 42.1805 91.831 42.1805C92.743 42.1821 93.4824 42.92 93.4855 43.8317C93.4867 44.501 93.0843 45.1051 92.4662 45.362Z" fill="white"/>
<path fill-rule="evenodd" clip-rule="evenodd" d="M69.0117 77.744C67.9071 77.744 67.0117 76.8486 67.0117 75.744V64.0298C67.0117 62.9252 67.9071 62.0298 69.0117 62.0298H117.959C119.064 62.0298 119.959 62.9252 119.959 64.0298V75.744C119.959 76.8486 119.064 77.744 117.959 77.744H69.0117Z" fill="#F1F1F1"/>
<path fill-rule="evenodd" clip-rule="evenodd" d="M67.3571 76.09C66.2525 76.09 65.3571 75.1945 65.3571 74.09V63.2028C65.3571 62.0982 66.2525 61.2028 67.3571 61.2028H116.305C117.409 61.2028 118.305 62.0982 118.305 63.2028V74.09C118.305 75.1945 117.409 76.09 116.305 76.09H67.3571Z" fill="#F94F24"/>
<rect x="76.1121" y="67.8193" width="32.2649" height="2.4812" rx="1.2406" fill="white" fill-opacity="0.329412"/>
<rect x="71.1482" y="52.9324" width="7.44574" height="4.13533" fill="#E8E8E8"/>
<rect x="79.4213" y="52.9324" width="7.44575" height="4.13533" fill="#DEDEDE"/>
<rect x="86.8671" y="52.9324" width="7.44575" height="4.13533" fill="#DEDEDE"/>
<path fill-rule="evenodd" clip-rule="evenodd" d="M67.4897 52.9336C66.7368 52.9073 66.0295 53.2954 65.6452 53.9455C65.261 54.5957 65.261 55.4044 65.6452 56.0546C66.0295 56.7047 66.7368 57.0927 67.4897 57.0664H71.1482V52.9336H67.4897Z" fill="#DEDEDE"/>
<rect x="94.3128" y="52.9324" width="7.44574" height="4.13533" fill="#DEDEDE"/>
<path fill-rule="evenodd" clip-rule="evenodd" d="M102.586 52.9336V57.0664H106.197C106.967 57.0927 107.69 56.7047 108.082 56.0546C108.475 55.4044 108.475 54.5957 108.082 53.9455C107.69 53.2954 106.967 52.9073 106.197 52.9336H102.586Z" fill="#DEDEDE"/>
<path fill-rule="evenodd" clip-rule="evenodd" d="M31.4376 40.5262C31.4376 41.4385 32.7351 42.1803 34.3344 42.1803C35.9337 42.1803 37.2288 41.4407 37.2288 40.5262C37.2288 39.6117 35.9386 38.8721 34.3344 38.8721C32.7351 38.8721 31.4376 39.6139 31.4376 40.5262ZM32.8227 40.5262C32.8227 39.7668 33.4995 39.1511 34.3344 39.1511C35.1693 39.1511 35.8461 39.7668 35.8461 40.5262C35.8467 40.8913 35.6877 41.2417 35.4042 41.5C35.1206 41.7584 34.7357 41.9036 34.3344 41.9036V41.9014C33.4995 41.9014 32.8227 41.2857 32.8227 40.5262Z" fill="#D3D3D3"/>
<path fill-rule="evenodd" clip-rule="evenodd" d="M34.3332 42.1803C33.6478 42.1803 33.0922 41.6249 33.0922 40.9397C33.0922 40.2545 33.6478 39.6991 34.3332 39.6991C35.0185 39.6991 35.5741 40.2545 35.5741 40.9397C35.5741 41.6249 35.0185 42.1803 34.3332 42.1803Z" fill="#D3D3D3"/>
<path fill-rule="evenodd" clip-rule="evenodd" d="M32.2649 34.3234C32.2649 35.4653 33.1909 36.3911 34.3332 36.3911C35.4755 36.3911 36.4014 35.4653 36.4014 34.3234C36.4014 33.1815 35.4755 32.2557 34.3332 32.2557C33.1909 32.2557 32.2649 33.1815 32.2649 34.3234ZM34.6122 34.6023V35.0141C34.6122 35.1682 34.4873 35.293 34.3332 35.293C34.1791 35.293 34.0542 35.1682 34.0542 35.0141V34.6023H33.6401C33.495 34.5894 33.3838 34.4679 33.3838 34.3223C33.3838 34.1767 33.495 34.0552 33.6401 34.0423H34.0542V33.6305C34.0542 33.4764 34.1791 33.3516 34.3332 33.3516C34.4873 33.3516 34.6122 33.4764 34.6122 33.6305V34.0533H35.0241C35.1301 34.0439 35.2324 34.0951 35.2883 34.1857C35.3442 34.2762 35.3442 34.3905 35.2883 34.4811C35.2324 34.5716 35.1301 34.6228 35.0241 34.6134V34.6023H34.6122Z" fill="#D3D3D3"/>
<rect x="28.9557" y="16.5414" width="138.987" height="9.09773" fill="#D3D3D3"/>
<path fill-rule="evenodd" clip-rule="evenodd" d="M124.923 90.9775V58.7219H153.879V90.9775H124.923ZM153.387 90.4892V59.2096H125.415V90.4892H153.387Z" fill="#DEDEDE"/>
<path fill-rule="evenodd" clip-rule="evenodd" d="M124.923 84.841L139.614 70.3334C140.788 69.1737 142.039 68.6048 143.352 68.6487C145.421 68.7146 146.835 70.2797 146.895 70.3456L153.879 77.2429L153.53 77.5872L146.534 70.6801C146.511 70.6532 145.184 69.1932 143.32 69.137C142.155 69.098 141.025 69.6253 139.952 70.6801L125.282 85.1877L124.923 84.841Z" fill="#DEDEDE"/>
<path fill-rule="evenodd" clip-rule="evenodd" d="M129.312 67.4323C128.799 66.1959 129.082 64.7723 130.029 63.8259C130.976 62.8794 132.4 62.5965 133.636 63.1092C134.873 63.6219 135.679 64.8292 135.678 66.1677C135.675 67.9922 134.196 69.4705 132.372 69.4733C131.033 69.4744 129.825 68.6688 129.312 67.4323ZM129.794 65.0994C129.361 66.1409 129.599 67.3401 130.397 68.1378C131.194 68.9355 132.393 69.1744 133.435 68.7432C134.477 68.3119 135.157 67.2954 135.157 66.1679C135.155 64.6301 133.91 63.3835 132.371 63.3806C131.244 63.3796 130.226 64.058 129.794 65.0994Z" fill="#DEDEDE"/>
<path fill-rule="evenodd" clip-rule="evenodd" d="M66.2223 83.5338C65.7444 83.5338 65.3571 83.1635 65.3571 82.7067C65.3571 82.2499 65.7444 81.8796 66.2223 81.8796H84.3472C84.825 81.8796 85.2124 82.2499 85.2124 82.7067C85.2124 83.1635 84.825 83.5338 84.3472 83.5338H84.3398H66.2223Z" fill="#DEDEDE"/>
<path fill-rule="evenodd" clip-rule="evenodd" d="M88.621 83.5338C88.1092 83.5338 87.6944 83.1635 87.6944 82.7067C87.6944 82.2499 88.1092 81.8796 88.621 81.8796H93.3863C93.898 81.8796 94.3128 82.2499 94.3128 82.7067C94.3128 83.1635 93.898 83.5338 93.3863 83.5338H88.621Z" fill="#DEDEDE"/>
<path fill-rule="evenodd" clip-rule="evenodd" d="M97.6334 83.5338C97.1702 83.5338 96.7947 83.1635 96.7947 82.7067C96.7947 82.2499 97.1702 81.8796 97.6334 81.8796H115.811C116.275 81.8796 116.65 82.2499 116.65 82.7067C116.65 83.1635 116.275 83.5338 115.811 83.5338H97.6334Z" fill="#DEDEDE"/>
<path fill-rule="evenodd" clip-rule="evenodd" d="M67.048 89.3231C66.5711 89.3231 66.1845 88.9528 66.1845 88.496C66.1845 88.0392 66.5711 87.6689 67.048 87.6689H91.7947C92.2716 87.6689 92.6582 88.0392 92.6582 88.496C92.6582 88.9528 92.2716 89.3231 91.7947 89.3231H67.048Z" fill="#DEDEDE"/>
<path fill-rule="evenodd" clip-rule="evenodd" d="M96.7904 89.3231C96.3358 89.3231 95.9674 88.9528 95.9674 88.496C95.9674 88.0392 96.3358 87.6689 96.7904 87.6689H105.072C105.527 87.6689 105.895 88.0392 105.895 88.496C105.895 88.9528 105.527 89.3231 105.072 89.3231H96.7904Z" fill="#DEDEDE"/>
<path fill-rule="evenodd" clip-rule="evenodd" d="M124.979 95.9397C124.491 95.9397 124.096 95.5694 124.096 95.1126C124.096 94.6558 124.491 94.2855 124.979 94.2855H143.068C143.556 94.2855 143.951 94.6558 143.951 95.1126C143.951 95.5694 143.556 95.9397 143.068 95.9397H124.979Z" fill="#DEDEDE"/>
<path fill-rule="evenodd" clip-rule="evenodd" d="M90.0527 23.8555V19.1518C90.054 19.081 90.1086 19.0238 90.1763 19.0225C90.2446 19.0225 90.2999 19.0804 90.2999 19.1518V23.8555C90.2999 23.9269 90.2446 23.9849 90.1763 23.9849C90.108 23.9849 90.0527 23.9269 90.0527 23.8555Z" fill="white"/>
<path fill-rule="evenodd" clip-rule="evenodd" d="M106.599 23.8555V19.1518C106.599 19.0804 106.654 19.0225 106.722 19.0225C106.791 19.0225 106.846 19.0804 106.846 19.1518V23.8555C106.846 23.9269 106.791 23.9849 106.722 23.9849C106.654 23.9849 106.599 23.9269 106.599 23.8555Z" fill="white"/>
<path fill-rule="evenodd" clip-rule="evenodd" d="M123.145 23.8555V19.1518C123.145 19.0804 123.2 19.0225 123.269 19.0225C123.336 19.0238 123.391 19.081 123.392 19.1518V23.8555C123.392 23.9269 123.337 23.9849 123.269 23.9849C123.2 23.9849 123.145 23.9269 123.145 23.8555Z" fill="white"/>
<path fill-rule="evenodd" clip-rule="evenodd" d="M143 23.8555V19.1518C143.001 19.081 143.056 19.0238 143.124 19.0225C143.192 19.0225 143.247 19.0804 143.247 19.1518V23.8555C143.247 23.9269 143.192 23.9849 143.124 23.9849C143.056 23.9849 143 23.9269 143 23.8555Z" fill="white"/>
<path fill-rule="evenodd" clip-rule="evenodd" d="M81.4896 23.1578C80.8042 23.1578 80.2486 22.5021 80.2486 21.6932C80.2486 20.8851 81.4896 19.0225 81.4896 19.0225C81.4896 19.0225 82.7305 20.8851 82.7305 21.6932C82.7305 22.5021 82.1749 23.1578 81.4896 23.1578Z" fill="white"/>
<path fill-rule="evenodd" clip-rule="evenodd" d="M97.1459 21.5037L96.7947 21.9379L98.4482 23.9849L100.104 21.9379L99.7526 21.5037L98.4482 23.1163L97.1459 21.5037Z" fill="white"/>
<path fill-rule="evenodd" clip-rule="evenodd" d="M98.5373 18.5417L100.448 20.4567L98.5373 22.3716L96.6269 20.4567L98.5373 18.5417Z" fill="white"/>
<path fill-rule="evenodd" clip-rule="evenodd" d="M113.341 20.3697V19.3294C113.341 19.1599 113.479 19.0225 113.65 19.0225H114.686C114.857 19.0225 114.995 19.1599 114.995 19.3294C114.995 19.4988 114.857 19.6362 114.686 19.6362H113.959V20.3697C113.959 20.5392 113.821 20.6766 113.65 20.6766C113.479 20.6766 113.341 20.5392 113.341 20.3697Z" fill="white"/>
<path fill-rule="evenodd" clip-rule="evenodd" d="M117.685 20.3697V19.6362H116.96C116.789 19.6362 116.65 19.4988 116.65 19.3294C116.65 19.1599 116.789 19.0225 116.96 19.0225H117.995C118.166 19.0225 118.305 19.1599 118.305 19.3294V20.3697C118.305 20.5392 118.166 20.6766 117.995 20.6766C117.824 20.6766 117.685 20.5392 117.685 20.3697Z" fill="white"/>
<path fill-rule="evenodd" clip-rule="evenodd" d="M116.96 23.1578C116.789 23.1578 116.65 23.0204 116.65 22.8509C116.65 22.6814 116.789 22.544 116.96 22.544H117.685V21.8106C117.685 21.6411 117.824 21.5037 117.995 21.5037C118.166 21.5037 118.305 21.6411 118.305 21.8106V22.8509C118.305 23.0204 118.166 23.1578 117.995 23.1578H116.96Z" fill="white"/>
<path fill-rule="evenodd" clip-rule="evenodd" d="M113.65 23.1578C113.479 23.1578 113.341 23.0204 113.341 22.8509V21.8106C113.341 21.6411 113.479 21.5037 113.65 21.5037C113.821 21.5037 113.959 21.6411 113.959 21.8106V22.544H114.686C114.857 22.544 114.995 22.6814 114.995 22.8509C114.995 23.0204 114.857 23.1578 114.686 23.1578H113.65Z" fill="white"/>
<rect x="131.542" y="19.0225" width="2.48191" height="3.30826" fill="white"/>
<path fill-rule="evenodd" clip-rule="evenodd" d="M131.292 19.8497H130.714V23.158H133.196V22.3881H131.292V19.8497Z" fill="white"/>
<path fill-rule="evenodd" clip-rule="evenodd" d="M148.088 19.8497V22.4204C148.088 23.0197 148.457 23.158 148.907 23.158H149.75C150.203 23.158 150.57 23.0197 150.57 22.4204V19.8633L148.118 19.8497H148.088Z" fill="white"/>
<path fill-rule="evenodd" clip-rule="evenodd" d="M150.697 19.5895C150.698 19.563 150.698 19.5365 150.697 19.51C150.697 19.2408 150.555 19.0225 150.381 19.0225H149.157C148.983 19.0244 148.842 19.2416 148.841 19.51C148.838 19.5364 148.838 19.5631 148.841 19.5895H148.482C148.347 19.5654 148.215 19.663 148.142 19.8406C148.069 20.0182 148.069 20.2442 148.142 20.4218C148.215 20.5994 148.347 20.6971 148.482 20.673H151.084C151.262 20.6412 151.397 20.4082 151.397 20.1312C151.397 19.8543 151.262 19.6213 151.084 19.5895H150.697Z" fill="white"/>
<rect x="12.4095" y="99.2479" width="4.96383" height="0.827069" fill="#DEDEDE"/>
<path fill-rule="evenodd" clip-rule="evenodd" d="M164.634 84.3607V92.6314H176.48C178.634 92.5755 180.353 90.7405 180.353 88.496C180.353 86.2516 178.634 84.4166 176.48 84.3607H164.634Z" fill="#F2F2F2"/>
<path fill-rule="evenodd" clip-rule="evenodd" d="M5.79114 47.9699C2.59278 47.9699 0 45.3779 0 42.1805C0 38.983 2.59278 36.391 5.79114 36.391C8.98949 36.391 11.5823 38.983 11.5823 42.1805C11.5823 45.3779 8.98949 47.9699 5.79114 47.9699Z" fill="#F2F2F2"/>
<path fill-rule="evenodd" clip-rule="evenodd" d="M178.698 56.2404C177.327 56.2404 176.216 55.1295 176.216 53.7592C176.216 52.3888 177.327 51.278 178.698 51.278C180.069 51.278 181.18 52.3888 181.18 53.7592C181.18 55.1295 180.069 56.2404 178.698 56.2404Z" fill="#F2F2F2"/>
<g filter="url(#filter0_d)">
<rect x="12.4095" y="21.0834" width="38.4624" height="42.6005" fill="white"/>
</g>
<path fill-rule="evenodd" clip-rule="evenodd" d="M50.872 23.9718C49.2688 23.9718 47.9692 22.6787 47.9692 21.0836C47.9692 19.4885 49.2688 18.1954 50.872 18.1954C52.4752 18.1954 53.7748 19.4885 53.7748 21.0836C53.7748 22.6787 52.4752 23.9718 50.872 23.9718Z" fill="#F94F24"/>
<path fill-rule="evenodd" clip-rule="evenodd" d="M51.2387 20.684V20.0364C51.2387 19.8171 51.0604 19.6394 50.8404 19.6394C50.6204 19.6394 50.4421 19.8171 50.4421 20.0364V20.684H49.7898C49.5813 20.7004 49.4206 20.8738 49.4206 21.0822C49.4206 21.2907 49.5813 21.4641 49.7898 21.4805H50.4421V22.1306C50.4421 22.3498 50.6204 22.5276 50.8404 22.5276C51.0604 22.5276 51.2387 22.3498 51.2387 22.1306V21.4805H51.891C52.0413 21.4923 52.1855 21.4191 52.2643 21.291C52.3431 21.1629 52.3431 21.0016 52.2643 20.8735C52.1855 20.7454 52.0413 20.6722 51.891 20.684H51.2387Z" fill="white"/>
<path fill-rule="evenodd" clip-rule="evenodd" d="M16.7637 58.6298V26.1379H45.792V58.6298H16.7637ZM45.2987 58.1382V26.6294H17.257V58.1382H45.2987Z" fill="#DEDEDE"/>
<path fill-rule="evenodd" clip-rule="evenodd" d="M16.7637 52.5055L31.491 37.9403C32.6683 36.776 33.9224 36.2048 35.2385 36.249C37.313 36.3151 38.7307 37.8864 38.7902 37.9526L45.792 44.8773L45.4425 45.2229L38.4284 38.2884C38.406 38.2614 37.0751 36.7956 35.2063 36.7392C34.0389 36.7 32.9062 37.2294 31.8306 38.2884L17.1231 52.8535L16.7637 52.5055Z" fill="#DEDEDE"/>
<path fill-rule="evenodd" clip-rule="evenodd" d="M20.6414 34.9638C20.1353 33.7494 20.4146 32.3513 21.3488 31.4217C22.2831 30.4921 23.6884 30.2143 24.9089 30.7179C26.1294 31.2214 26.9247 32.4071 26.9236 33.7218C26.9208 35.5136 25.4615 36.9655 23.6606 36.9683C22.3393 36.9694 21.1476 36.1781 20.6414 34.9638ZM21.1168 32.6726C20.6901 33.6954 20.9249 34.8733 21.7116 35.6567C22.4983 36.4402 23.6819 36.6748 24.7103 36.2513C25.7387 35.8277 26.4094 34.8294 26.4094 33.722C26.4079 32.2117 25.1785 30.9873 23.6606 30.9845C22.5475 30.9835 21.5435 31.6498 21.1168 32.6726Z" fill="#DEDEDE"/>
<g filter="url(#filter1_d)">
<rect x="142.297" y="35.1438" width="38.4624" height="42.6005" fill="white"/>
</g>
<path fill-rule="evenodd" clip-rule="evenodd" d="M146.558 69.8018C146.208 69.8018 145.925 69.4785 145.925 69.0797C145.925 68.6809 146.208 68.3577 146.558 68.3577H159.807C160.156 68.3577 160.439 68.6809 160.439 69.0797C160.439 69.4785 160.156 69.8018 159.807 69.8018H159.801H146.558Z" fill="#DEDEDE"/>
<rect x="145.925" y="43.0862" width="30.4797" height="13.7188" fill="#F2F2F2"/>
<path fill-rule="evenodd" clip-rule="evenodd" d="M162.602 69.8018C162.209 69.8018 161.891 69.4785 161.891 69.0797C161.891 68.6809 162.209 68.3577 162.602 68.3577H166.259C166.652 68.3577 166.971 68.6809 166.971 69.0797C166.971 69.4785 166.652 69.8018 166.259 69.8018H162.602Z" fill="#DEDEDE"/>
<path fill-rule="evenodd" clip-rule="evenodd" d="M146.564 64.0255C146.211 64.0255 145.925 63.7022 145.925 63.3035C145.925 62.9047 146.211 62.5814 146.564 62.5814H164.88C165.233 62.5814 165.519 62.9047 165.519 63.3035C165.519 63.7022 165.233 64.0255 164.88 64.0255H146.564Z" fill="#DEDEDE"/>
<path fill-rule="evenodd" clip-rule="evenodd" d="M168.358 64.0255C167.993 64.0255 167.696 63.7022 167.696 63.3035C167.696 62.9047 167.993 62.5814 168.358 62.5814H175.017C175.383 62.5814 175.679 62.9047 175.679 63.3035C175.679 63.7022 175.383 64.0255 175.017 64.0255H168.358Z" fill="#DEDEDE"/>
<path fill-rule="evenodd" clip-rule="evenodd" d="M180.759 38.0321C179.156 38.0321 177.856 36.739 177.856 35.1439C177.856 33.5488 179.156 32.2557 180.759 32.2557C182.362 32.2557 183.662 33.5488 183.662 35.1439C183.662 36.739 182.362 38.0321 180.759 38.0321Z" fill="#F94F24"/>
<path fill-rule="evenodd" clip-rule="evenodd" d="M181.126 34.7443V34.0967C181.126 33.8774 180.947 33.6997 180.727 33.6997C180.507 33.6997 180.329 33.8774 180.329 34.0967V34.7443H179.677C179.468 34.7607 179.308 34.9341 179.308 35.1426C179.308 35.351 179.468 35.5244 179.677 35.5408H180.329V36.1909C180.329 36.4101 180.507 36.5879 180.727 36.5879C180.947 36.5879 181.126 36.4101 181.126 36.1909V35.5408H181.778C181.928 35.5526 182.073 35.4794 182.151 35.3513C182.23 35.2232 182.23 35.0619 182.151 34.9338C182.073 34.8057 181.928 34.7325 181.778 34.7443H181.126Z" fill="white"/>
<g filter="url(#filter2_d)">
<rect x="21.5099" y="89.8302" width="50.0463" height="20.1697" fill="white"/>
</g>
<path fill-rule="evenodd" clip-rule="evenodd" d="M71.5563 93.4317C69.954 93.4317 68.655 92.1417 68.655 90.5503C68.655 88.959 69.954 87.6689 71.5563 87.6689C73.1586 87.6689 74.4575 88.959 74.4575 90.5503C74.4575 92.1417 73.1586 93.4317 71.5563 93.4317Z" fill="#F94F24"/>
<path fill-rule="evenodd" clip-rule="evenodd" d="M71.9228 90.152V89.5059C71.9228 89.2872 71.7446 89.1099 71.5247 89.1099C71.3048 89.1099 71.1266 89.2872 71.1266 89.5059V90.152H70.4747C70.2663 90.1684 70.1056 90.3414 70.1056 90.5493C70.1056 90.7573 70.2663 90.9303 70.4747 90.9466H71.1266V91.5952C71.1266 91.8139 71.3048 91.9913 71.5247 91.9913C71.7446 91.9913 71.9228 91.8139 71.9228 91.5952V90.9466H72.5747C72.7249 90.9584 72.8691 90.8854 72.9478 90.7576C73.0265 90.6298 73.0265 90.4688 72.9478 90.3411C72.8691 90.2133 72.7249 90.1402 72.5747 90.152H71.9228Z" fill="white"/>
<path fill-rule="evenodd" clip-rule="evenodd" d="M26.5571 94.8725C26.1731 94.8725 25.8618 94.5499 25.8618 94.1521C25.8618 93.7543 26.1731 93.4318 26.5571 93.4318H41.1233C41.5073 93.4318 41.8186 93.7543 41.8186 94.1521C41.8186 94.5499 41.5073 94.8725 41.1233 94.8725H41.1173H26.5571Z" fill="#DEDEDE"/>
<path fill-rule="evenodd" clip-rule="evenodd" d="M44.7054 94.8725C44.3128 94.8725 43.9946 94.5499 43.9946 94.1521C43.9946 93.7543 44.3128 93.4318 44.7054 93.4318H48.3609C48.7535 93.4318 49.0717 93.7543 49.0717 94.1521C49.0717 94.5499 48.7535 94.8725 48.3609 94.8725H44.7054Z" fill="#DEDEDE"/>
<path fill-rule="evenodd" clip-rule="evenodd" d="M26.5571 106.398C26.1731 106.398 25.8618 106.076 25.8618 105.678C25.8618 105.28 26.1731 104.958 26.5571 104.958H41.1233C41.5073 104.958 41.8186 105.28 41.8186 105.678C41.8186 106.076 41.5073 106.398 41.1233 106.398H41.1173H26.5571Z" fill="#DEDEDE"/>
<path fill-rule="evenodd" clip-rule="evenodd" d="M44.7054 106.398C44.3128 106.398 43.9946 106.076 43.9946 105.678C43.9946 105.28 44.3128 104.958 44.7054 104.958H48.3609C48.7535 104.958 49.0717 105.28 49.0717 105.678C49.0717 106.076 48.7535 106.398 48.3609 106.398H44.7054Z" fill="#DEDEDE"/>
<path fill-rule="evenodd" clip-rule="evenodd" d="M51.9523 94.8725C51.5631 94.8725 51.2476 94.5499 51.2476 94.1521C51.2476 93.7543 51.5631 93.4318 51.9523 93.4318H67.2251C67.6142 93.4318 67.9297 93.7543 67.9297 94.1521C67.9297 94.5499 67.6142 94.8725 67.2251 94.8725H51.9523Z" fill="#DEDEDE"/>
<path fill-rule="evenodd" clip-rule="evenodd" d="M26.5716 100.635C26.1796 100.635 25.8618 100.313 25.8618 99.9151C25.8618 99.5172 26.1796 99.1947 26.5716 99.1947H46.9113C47.3033 99.1947 47.6211 99.5172 47.6211 99.9151C47.6211 100.313 47.3033 100.635 46.9113 100.635H26.5716Z" fill="#DEDEDE"/>
<path fill-rule="evenodd" clip-rule="evenodd" d="M51.2438 100.635C50.8453 100.635 50.5223 100.313 50.5223 99.9151C50.5223 99.5172 50.8453 99.1947 51.2438 99.1947H58.5045C58.9029 99.1947 59.226 99.5172 59.226 99.9151C59.226 100.313 58.9029 100.635 58.5045 100.635H51.2438Z" fill="#DEDEDE"/>
<path fill-rule="evenodd" clip-rule="evenodd" d="M140.765 102.706L127.493 89.4375L122.88 99.7051L111.083 67.5116L142.543 78.3229L133.836 84.8631L146.476 97.0023L140.765 102.706Z" fill="url(#paint0_linear)"/>
<g style="mix-blend-mode:multiply">
<path fill-rule="evenodd" clip-rule="evenodd" d="M135.055 87.0798L143.024 81.0938C143.259 80.922 143.376 80.6327 143.328 80.3462C143.283 80.0577 143.081 79.818 142.805 79.7241L111.344 68.9127C111.058 68.8169 110.742 68.8919 110.529 69.1062C110.315 69.3223 110.246 69.642 110.351 69.927L122.148 102.115C122.257 102.416 122.538 102.62 122.858 102.632C123.177 102.643 123.472 102.46 123.602 102.168L127.749 92.9403L140.232 105.409C140.379 105.556 140.578 105.638 140.786 105.639C140.994 105.639 141.194 105.556 141.34 105.409L147.03 99.7C147.182 99.5539 147.265 99.351 147.26 99.1406C147.261 98.9309 147.178 98.7294 147.03 98.5812L135.055 87.0798Z" fill="#E5E5E5"/>
</g>
<path fill-rule="evenodd" clip-rule="evenodd" d="M140.383 103.077L127.681 90.3469L123.377 99.9193C123.291 100.112 123.097 100.234 122.886 100.228C122.671 100.221 122.483 100.084 122.41 99.8827L110.612 67.6943C110.543 67.5054 110.589 67.2937 110.729 67.1498C110.87 67.006 111.081 66.9554 111.271 67.0199L142.737 77.8313C142.919 77.8946 143.052 78.0534 143.082 78.2443C143.111 78.4347 143.032 78.6256 142.878 78.7409L134.662 84.9099L146.857 96.6204C146.958 96.7188 147.015 96.8535 147.015 96.9942C147.015 97.1349 146.958 97.2697 146.857 97.368L141.136 103.077C141.035 103.177 140.897 103.232 140.755 103.229V103.229C140.616 103.229 140.482 103.175 140.383 103.077ZM127.854 89.0714L140.755 101.969L145.717 97.0075L133.465 85.2394C133.356 85.1329 133.298 84.9839 133.308 84.8316C133.316 84.6791 133.391 84.5377 133.512 84.4447L141.429 78.5006L111.951 68.3636L122.933 98.3197L127.022 89.2231C127.093 89.0673 127.236 88.956 127.404 88.9251L127.482 88.9146C127.622 88.9152 127.756 88.9717 127.854 89.0714Z" fill="white"/>
<defs>
<filter id="filter0_d" x="2.40955" y="11.0834" width="58.4624" height="62.6005" filterUnits="userSpaceOnUse" color-interpolation-filters="sRGB">
<feFlood flood-opacity="0" result="BackgroundImageFix"/>
<feColorMatrix in="SourceAlpha" type="matrix" values="0 0 0 0 0 0 0 0 0 0 0 0 0 0 0 0 0 0 127 0"/>
<feOffset/>
<feGaussianBlur stdDeviation="5"/>
<feColorMatrix type="matrix" values="0 0 0 0 0 0 0 0 0 0 0 0 0 0 0 0 0 0 0.176471 0"/>
<feBlend mode="normal" in2="BackgroundImageFix" result="effect1_dropShadow"/>
<feBlend mode="normal" in="SourceGraphic" in2="effect1_dropShadow" result="shape"/>
</filter>
<filter id="filter1_d" x="132.297" y="25.1438" width="58.4624" height="62.6005" filterUnits="userSpaceOnUse" color-interpolation-filters="sRGB">
<feFlood flood-opacity="0" result="BackgroundImageFix"/>
<feColorMatrix in="SourceAlpha" type="matrix" values="0 0 0 0 0 0 0 0 0 0 0 0 0 0 0 0 0 0 127 0"/>
<feOffset/>
<feGaussianBlur stdDeviation="5"/>
<feColorMatrix type="matrix" values="0 0 0 0 0 0 0 0 0 0 0 0 0 0 0 0 0 0 0.176471 0"/>
<feBlend mode="normal" in2="BackgroundImageFix" result="effect1_dropShadow"/>
<feBlend mode="normal" in="SourceGraphic" in2="effect1_dropShadow" result="shape"/>
</filter>
<filter id="filter2_d" x="11.5099" y="79.8302" width="70.0463" height="40.1697" filterUnits="userSpaceOnUse" color-interpolation-filters="sRGB">
<feFlood flood-opacity="0" result="BackgroundImageFix"/>
<feColorMatrix in="SourceAlpha" type="matrix" values="0 0 0 0 0 0 0 0 0 0 0 0 0 0 0 0 0 0 127 0"/>
<feOffset/>
<feGaussianBlur stdDeviation="5"/>
<feColorMatrix type="matrix" values="0 0 0 0 0 0 0 0 0 0 0 0 0 0 0 0 0 0 0.176471 0"/>
<feBlend mode="normal" in2="BackgroundImageFix" result="effect1_dropShadow"/>
<feBlend mode="normal" in="SourceGraphic" in2="effect1_dropShadow" result="shape"/>
</filter>
<linearGradient id="paint0_linear" x1="111.083" y1="120.303" x2="146.476" y2="120.303" gradientUnits="userSpaceOnUse">
<stop stop-color="#8033EB"/>
<stop offset="1" stop-color="#6731CE"/>
</linearGradient>
</defs>
</svg>
