<svg width="163" height="111" viewBox="0 0 163 111" fill="none" xmlns="http://www.w3.org/2000/svg">
<path fill-rule="evenodd" clip-rule="evenodd" d="M28.4696 24.5022H42.6573C42.5433 17.522 38.1196 11.3414 31.5487 8.98164C24.9778 6.62188 17.6322 8.57589 13.1026 13.8885C8.57308 19.201 7.80568 26.7625 11.1756 32.8766C14.5455 38.9907 21.3488 42.3804 28.2598 41.3886L28.2619 25.2749C27.9524 25.0879 28.021 24.5022 28.4696 24.5022Z" fill="#F2F2F2"/>
<rect x="48.951" y="91.2098" width="87.4126" height="1.3986" fill="#F4F4F4"/>
<path fill-rule="evenodd" clip-rule="evenodd" d="M55.9441 38.7806C55.9441 38.7806 56.1524 35.9664 59.0297 35.9664H138.828C138.828 35.9664 142.657 35.8111 142.657 38.7806V92.6084H137.065V46.1969L55.9441 40.3566V38.7806Z" fill="#F2F2F2"/>
<rect x="24.4755" y="29.6713" width="8.39161" height="62.9371" fill="#EFEFEF"/>
<rect x="18.1818" y="91.9091" width="125.874" height="0.699301" fill="#DEDEDE"/>
<path fill-rule="evenodd" clip-rule="evenodd" d="M136.364 43.448C136.364 41.6325 134.866 40.1608 133.018 40.1608H51.5977C49.7498 40.1608 48.2517 41.6325 48.2517 43.448V49.2518H136.364V43.448Z" fill="#F94F24"/>
<rect x="135.664" y="50.6503" width="0.699301" height="41.958" fill="#DEDEDE"/>
<rect x="48.951" y="50.6503" width="0.699301" height="41.958" fill="#DEDEDE"/>
<path fill-rule="evenodd" clip-rule="evenodd" d="M55.2978 46.3473C54.9059 46.5646 54.4544 46.4455 54.1541 46.0457C53.8537 45.6459 53.7636 45.0442 53.9259 44.5213C54.0881 43.9984 54.4707 43.6573 54.8951 43.6573C55.4733 43.6587 55.942 44.2826 55.9441 45.0535C55.9448 45.6194 55.6897 46.1301 55.2978 46.3473Z" fill="white"/>
<path fill-rule="evenodd" clip-rule="evenodd" d="M63.6894 46.3473C63.2975 46.5646 62.846 46.4455 62.5457 46.0457C62.2453 45.6459 62.1552 45.0442 62.3175 44.5213C62.4797 43.9984 62.8623 43.6573 63.2867 43.6573C63.8649 43.6587 64.3336 44.2826 64.3357 45.0535C64.3364 45.6194 64.0813 46.1301 63.6894 46.3473Z" fill="white"/>
<path fill-rule="evenodd" clip-rule="evenodd" d="M72.081 46.3473C71.6891 46.5646 71.2376 46.4455 70.9373 46.0457C70.6369 45.6459 70.5468 45.0442 70.7091 44.5213C70.8713 43.9984 71.2539 43.6573 71.6783 43.6573C72.2565 43.6587 72.7252 44.2826 72.7273 45.0535C72.728 45.6194 72.4729 46.1301 72.081 46.3473Z" fill="white"/>
<path fill-rule="evenodd" clip-rule="evenodd" d="M55.2448 72.3287V57.6434H100V72.3287H55.2448ZM99.7899 72.1187V57.8534H55.4548V72.1187H99.7899Z" fill="#F94F24"/>
<path fill-rule="evenodd" clip-rule="evenodd" d="M99.6503 60.4406C98.2986 60.4406 97.2028 59.3448 97.2028 57.993C97.2028 56.6413 98.2986 55.5455 99.6503 55.5455C101.002 55.5455 102.098 56.6413 102.098 57.993C102.098 59.3448 101.002 60.4406 99.6503 60.4406Z" fill="#F94F24"/>
<path fill-rule="evenodd" clip-rule="evenodd" d="M99.9154 57.9558V57.3286C99.9154 57.1162 99.7865 56.9441 99.6275 56.9441C99.4686 56.9441 99.3397 57.1162 99.3397 57.3286V57.9558H98.8683C98.7176 57.9717 98.6014 58.1396 98.6014 58.3415C98.6014 58.5433 98.7176 58.7113 98.8683 58.7272H99.3397V59.3568C99.3397 59.5691 99.4686 59.7413 99.6275 59.7413C99.7865 59.7413 99.9154 59.5691 99.9154 59.3568V58.7272H100.387C100.495 58.7386 100.6 58.6677 100.657 58.5436C100.714 58.4196 100.714 58.2633 100.657 58.1393C100.6 58.0152 100.495 57.9443 100.387 57.9558H99.9154Z" fill="white"/>
<rect x="60.1399" y="52.7483" width="6.29371" height="3.4965" fill="#E8E8E8"/>
<rect x="67.1329" y="52.7483" width="6.29371" height="3.4965" fill="#DEDEDE"/>
<rect x="73.4266" y="52.7483" width="6.29371" height="3.4965" fill="#DEDEDE"/>
<path fill-rule="evenodd" clip-rule="evenodd" d="M57.0474 52.7493C56.411 52.7271 55.8131 53.0552 55.4883 53.6049C55.1636 54.1546 55.1636 54.8384 55.4883 55.3881C55.8131 55.9378 56.411 56.2659 57.0474 56.2437H60.1399V52.7493H57.0474Z" fill="#DEDEDE"/>
<rect x="79.7203" y="52.7483" width="6.29371" height="3.4965" fill="#DEDEDE"/>
<path fill-rule="evenodd" clip-rule="evenodd" d="M86.7133 52.7493V56.2437H89.7661C90.4165 56.2659 91.0275 55.9378 91.3594 55.3881C91.6914 54.8384 91.6914 54.1546 91.3594 53.6049C91.0275 53.0552 90.4165 52.7271 89.7661 52.7493H86.7133Z" fill="#DEDEDE"/>
<path fill-rule="evenodd" clip-rule="evenodd" d="M26.5734 42.2587C26.5734 43.0301 27.6701 43.6573 29.022 43.6573C30.3739 43.6573 31.4685 43.032 31.4685 42.2587C31.4685 41.4855 30.378 40.8601 29.022 40.8601C27.6701 40.8601 26.5734 41.4874 26.5734 42.2587ZM27.7442 42.2588C27.7442 41.6167 28.3163 41.0961 29.022 41.0961C29.7277 41.0961 30.2998 41.6167 30.2998 42.2588C30.3004 42.5675 30.166 42.8637 29.9263 43.0822C29.6866 43.3006 29.3613 43.4234 29.022 43.4234V43.4215C28.3163 43.4215 27.7442 42.9009 27.7442 42.2588Z" fill="#D3D3D3"/>
<path fill-rule="evenodd" clip-rule="evenodd" d="M29.021 43.6573C28.4416 43.6573 27.972 43.1877 27.972 42.6084C27.972 42.0291 28.4416 41.5594 29.021 41.5594C29.6003 41.5594 30.0699 42.0291 30.0699 42.6084C30.0699 43.1877 29.6003 43.6573 29.021 43.6573Z" fill="#D3D3D3"/>
<path fill-rule="evenodd" clip-rule="evenodd" d="M27.2727 37.014C27.2727 37.9795 28.0555 38.7622 29.021 38.7622C29.9865 38.7622 30.7692 37.9795 30.7692 37.014C30.7692 36.0485 29.9865 35.2657 29.021 35.2657C28.0555 35.2657 27.2727 36.0485 27.2727 37.014ZM29.2569 37.2499V37.5981C29.2569 37.7284 29.1513 37.8339 29.021 37.8339C28.8908 37.8339 28.7852 37.7284 28.7852 37.5981V37.2499H28.4351C28.3125 37.239 28.2185 37.1363 28.2185 37.0132C28.2185 36.89 28.3125 36.7873 28.4351 36.7764H28.7852V36.4282C28.7852 36.298 28.8908 36.1924 29.021 36.1924C29.1513 36.1924 29.2569 36.298 29.2569 36.4282V36.7857H29.605C29.6946 36.7778 29.7811 36.8211 29.8284 36.8976C29.8756 36.9742 29.8756 37.0709 29.8284 37.1474C29.7811 37.224 29.6946 37.2673 29.605 37.2593V37.2499H29.2569Z" fill="#D3D3D3"/>
<rect x="24.4755" y="21.979" width="117.483" height="7.69231" fill="#D3D3D3"/>
<path fill-rule="evenodd" clip-rule="evenodd" d="M105.594 84.9161V57.6434H130.07V84.9161H105.594ZM129.654 84.5036V58.0561H106.01V84.5036H129.654Z" fill="#DEDEDE"/>
<path fill-rule="evenodd" clip-rule="evenodd" d="M105.594 79.7278L118.012 67.4614C119.005 66.4808 120.062 65.9998 121.172 66.037C122.921 66.0927 124.116 67.416 124.166 67.4717L130.07 73.3035L129.775 73.5946L123.861 67.7545C123.842 67.7318 122.72 66.4973 121.144 66.4498C120.16 66.4168 119.205 66.8627 118.298 67.7545L105.897 80.021L105.594 79.7278Z" fill="#DEDEDE"/>
<path fill-rule="evenodd" clip-rule="evenodd" d="M109.304 65.0085C108.871 63.9631 109.11 62.7595 109.91 61.9592C110.711 61.1589 111.914 60.9198 112.96 61.3533C114.005 61.7868 114.686 62.8076 114.685 63.9393C114.683 65.4819 113.433 66.7318 111.89 66.7343C110.759 66.7352 109.738 66.054 109.304 65.0085ZM109.712 63.0358C109.346 63.9164 109.547 64.9304 110.221 65.6048C110.895 66.2793 111.909 66.4813 112.79 66.1167C113.67 65.752 114.245 64.8926 114.245 63.9392C114.244 62.639 113.191 61.585 111.89 61.5825C110.937 61.5816 110.077 62.1553 109.712 63.0358Z" fill="#DEDEDE"/>
<path fill-rule="evenodd" clip-rule="evenodd" d="M55.9761 78.6224C55.5722 78.6224 55.2448 78.3093 55.2448 77.9231C55.2448 77.5369 55.5722 77.2238 55.9761 77.2238H71.2966C71.7005 77.2238 72.028 77.5369 72.028 77.9231C72.028 78.3093 71.7005 78.6224 71.2966 78.6224H71.2904H55.9761Z" fill="#DEDEDE"/>
<path fill-rule="evenodd" clip-rule="evenodd" d="M74.9091 78.6224C74.4765 78.6224 74.1259 78.3093 74.1259 77.9231C74.1259 77.5369 74.4765 77.2238 74.9091 77.2238H78.9371C79.3696 77.2238 79.7203 77.5369 79.7203 77.9231C79.7203 78.3093 79.3696 78.6224 78.9371 78.6224H74.9091Z" fill="#DEDEDE"/>
<path fill-rule="evenodd" clip-rule="evenodd" d="M82.5271 78.6224C82.1356 78.6224 81.8182 78.3093 81.8182 77.9231C81.8182 77.5369 82.1356 77.2238 82.5271 77.2238H97.8925C98.284 77.2238 98.6014 77.5369 98.6014 77.9231C98.6014 78.3093 98.284 78.6224 97.8925 78.6224H82.5271Z" fill="#DEDEDE"/>
<path fill-rule="evenodd" clip-rule="evenodd" d="M56.674 83.5175C56.2709 83.5175 55.9441 83.2044 55.9441 82.8182C55.9441 82.432 56.2709 82.1189 56.674 82.1189H77.5918C77.9949 82.1189 78.3217 82.432 78.3217 82.8182C78.3217 83.2044 77.9949 83.5175 77.5918 83.5175H56.674Z" fill="#DEDEDE"/>
<path fill-rule="evenodd" clip-rule="evenodd" d="M81.8146 83.5175C81.4304 83.5175 81.1189 83.2044 81.1189 82.8182C81.1189 82.432 81.4304 82.1189 81.8146 82.1189H88.8148C89.199 82.1189 89.5105 82.432 89.5105 82.8182C89.5105 83.2044 89.199 83.5175 88.8148 83.5175H81.8146Z" fill="#DEDEDE"/>
<path fill-rule="evenodd" clip-rule="evenodd" d="M105.641 89.1119C105.229 89.1119 104.895 88.7988 104.895 88.4126C104.895 88.0264 105.229 87.7133 105.641 87.7133H120.932C121.344 87.7133 121.678 88.0264 121.678 88.4126C121.678 88.7988 121.344 89.1119 120.932 89.1119H105.641Z" fill="#DEDEDE"/>
<path fill-rule="evenodd" clip-rule="evenodd" d="M68.174 64.2267C67.945 64.489 67.6346 64.6364 67.3108 64.6364H59.9619C59.2878 64.6364 58.7413 64.0102 58.7413 63.2378C58.7413 62.8668 58.8699 62.5111 59.0988 62.2488C59.3277 61.9865 59.6382 61.8392 59.9619 61.8392H67.3108C67.6346 61.8392 67.945 61.9865 68.174 62.2488C68.4029 62.5111 68.5315 62.8668 68.5315 63.2378C68.5315 63.6087 68.4029 63.9644 68.174 64.2267Z" fill="#E9E9E9"/>
<path fill-rule="evenodd" clip-rule="evenodd" d="M91.7669 64.6364H88.6527C87.9678 64.6364 87.4126 64.0102 87.4126 63.2378C87.4126 62.8668 87.5433 62.5111 87.7758 62.2488C88.0084 61.9865 88.3238 61.8392 88.6527 61.8392H91.7605C92.0894 61.8392 92.4048 61.9865 92.6374 62.2488C92.87 62.5111 93.0006 62.8668 93.0006 63.2378H93.007C93.007 64.0102 92.4518 64.6364 91.7669 64.6364Z" fill="#E9E9E9"/>
<path fill-rule="evenodd" clip-rule="evenodd" d="M84.0721 64.6364H71.1726C70.4864 64.6364 69.9301 64.0102 69.9301 63.2378C69.9301 62.8668 70.061 62.5111 70.294 62.2488C70.527 61.9865 70.8431 61.8392 71.1726 61.8392H84.0721C84.4016 61.8392 84.7177 61.9865 84.9507 62.2488C85.1838 62.5111 85.3147 62.8668 85.3147 63.2378C85.3147 64.0102 84.7583 64.6364 84.0721 64.6364Z" fill="#E9E9E9"/>
<path fill-rule="evenodd" clip-rule="evenodd" d="M78.5098 69.5315H60.651C60.3296 69.5315 60.0214 69.384 59.7944 69.1217C59.5673 68.8593 59.44 68.5036 59.4406 68.1329C59.44 67.7622 59.5673 67.4064 59.7944 67.1441C60.0214 66.8817 60.3296 66.7343 60.651 66.7343H78.5098C79.1787 66.7356 79.7203 67.3614 79.7203 68.1329C79.7203 68.9044 79.1787 69.5302 78.5098 69.5315Z" fill="#E9E9E9"/>
<path fill-rule="evenodd" clip-rule="evenodd" d="M76.1193 28.1633V24.1863C76.1204 24.1264 76.1665 24.0781 76.2238 24.0769C76.2815 24.0769 76.3283 24.1259 76.3283 24.1863V28.1633C76.3283 28.2238 76.2815 28.2727 76.2238 28.2727C76.1661 28.2727 76.1193 28.2238 76.1193 28.1633Z" fill="white"/>
<path fill-rule="evenodd" clip-rule="evenodd" d="M90.1053 28.1633V24.1863C90.1053 24.1259 90.1521 24.0769 90.2098 24.0769C90.2675 24.0769 90.3143 24.1259 90.3143 24.1863V28.1633C90.3143 28.2238 90.2675 28.2727 90.2098 28.2727C90.1521 28.2727 90.1053 28.2238 90.1053 28.1633Z" fill="white"/>
<path fill-rule="evenodd" clip-rule="evenodd" d="M104.091 28.1633V24.1863C104.091 24.1259 104.138 24.0769 104.196 24.0769C104.253 24.0781 104.299 24.1264 104.3 24.1863V28.1633C104.3 28.2238 104.254 28.2727 104.196 28.2727C104.138 28.2727 104.091 28.2238 104.091 28.1633Z" fill="white"/>
<path fill-rule="evenodd" clip-rule="evenodd" d="M120.875 28.1633V24.1863C120.876 24.1264 120.922 24.0781 120.979 24.0769C121.037 24.0769 121.084 24.1259 121.084 24.1863V28.1633C121.084 28.2238 121.037 28.2727 120.979 28.2727C120.921 28.2727 120.875 28.2238 120.875 28.1633Z" fill="white"/>
<path fill-rule="evenodd" clip-rule="evenodd" d="M68.8811 27.5734C68.3018 27.5734 67.8322 27.019 67.8322 26.3351C67.8322 25.6518 68.8811 24.0769 68.8811 24.0769C68.8811 24.0769 69.9301 25.6518 69.9301 26.3351C69.9301 27.019 69.4604 27.5734 68.8811 27.5734Z" fill="white"/>
<path fill-rule="evenodd" clip-rule="evenodd" d="M82.1151 26.1748L81.8182 26.542L83.2159 28.2727L84.6154 26.542L84.3185 26.1748L83.2159 27.5384L82.1151 26.1748Z" fill="white"/>
<path fill-rule="evenodd" clip-rule="evenodd" d="M83.288 23.67L84.9032 25.2891L83.288 26.9082L81.6729 25.2891L83.288 23.67Z" fill="white"/>
<path fill-rule="evenodd" clip-rule="evenodd" d="M95.8042 25.216V24.3364C95.8042 24.1931 95.9212 24.0769 96.0656 24.0769H96.9414C97.0858 24.0769 97.2028 24.1931 97.2028 24.3364C97.2028 24.4797 97.0858 24.5959 96.9414 24.5959H96.327V25.216C96.327 25.3593 96.21 25.4755 96.0656 25.4755C95.9212 25.4755 95.8042 25.3593 95.8042 25.216Z" fill="white"/>
<path fill-rule="evenodd" clip-rule="evenodd" d="M99.4762 25.216V24.5959H98.8633C98.7187 24.5959 98.6014 24.4797 98.6014 24.3364C98.6014 24.1931 98.7187 24.0769 98.8633 24.0769H99.7381C99.8828 24.0769 100 24.1931 100 24.3364V25.216C100 25.3593 99.8828 25.4755 99.7381 25.4755C99.5935 25.4755 99.4762 25.3593 99.4762 25.216Z" fill="white"/>
<path fill-rule="evenodd" clip-rule="evenodd" d="M98.8633 27.5734C98.7187 27.5734 98.6014 27.4573 98.6014 27.3139C98.6014 27.1706 98.7187 27.0545 98.8633 27.0545H99.4762V26.4343C99.4762 26.291 99.5935 26.1748 99.7381 26.1748C99.8828 26.1748 100 26.291 100 26.4343V27.3139C100 27.4573 99.8828 27.5734 99.7381 27.5734H98.8633Z" fill="white"/>
<path fill-rule="evenodd" clip-rule="evenodd" d="M96.0656 27.5734C95.9212 27.5734 95.8042 27.4573 95.8042 27.3139V26.4343C95.8042 26.291 95.9212 26.1748 96.0656 26.1748C96.21 26.1748 96.327 26.291 96.327 26.4343V27.0545H96.9414C97.0858 27.0545 97.2028 27.1706 97.2028 27.3139C97.2028 27.4573 97.0858 27.5734 96.9414 27.5734H96.0656Z" fill="white"/>
<rect x="111.189" y="24.0769" width="2.0979" height="2.7972" fill="white"/>
<path fill-rule="evenodd" clip-rule="evenodd" d="M110.978 24.7762H110.49V27.5734H112.587V26.9225H110.978V24.7762Z" fill="white"/>
<path fill-rule="evenodd" clip-rule="evenodd" d="M125.175 24.7762V26.9498C125.175 27.4565 125.487 27.5734 125.868 27.5734H126.58C126.963 27.5734 127.273 27.4565 127.273 26.9498V24.7877L125.201 24.7762H125.175Z" fill="white"/>
<path fill-rule="evenodd" clip-rule="evenodd" d="M127.38 24.5563C127.382 24.534 127.382 24.5115 127.38 24.4892C127.38 24.2615 127.261 24.0769 127.113 24.0769H126.079C125.932 24.0786 125.813 24.2622 125.811 24.4892C125.809 24.5115 125.809 24.5341 125.811 24.5563H125.508C125.394 24.536 125.282 24.6185 125.221 24.7687C125.159 24.9189 125.159 25.11 125.221 25.2601C125.282 25.4103 125.394 25.4928 125.508 25.4725H127.707C127.858 25.4456 127.972 25.2486 127.972 25.0144C127.972 24.7802 127.858 24.5833 127.707 24.5563H127.38Z" fill="white"/>
<rect x="10.4895" y="91.9091" width="4.1958" height="0.699301" fill="#DEDEDE"/>
<path fill-rule="evenodd" clip-rule="evenodd" d="M139.161 79.3217V86.3147H149.174C150.995 86.2675 152.448 84.7159 152.448 82.8182C152.448 80.9204 150.995 79.3689 149.174 79.3217H139.161Z" fill="#F2F2F2"/>
<path fill-rule="evenodd" clip-rule="evenodd" d="M4.8951 48.5524C2.19161 48.5524 0 46.3608 0 43.6573C0 40.9539 2.19161 38.7622 4.8951 38.7622C7.5986 38.7622 9.79021 40.9539 9.79021 43.6573C9.79021 46.3608 7.5986 48.5524 4.8951 48.5524Z" fill="#F2F2F2"/>
<path fill-rule="evenodd" clip-rule="evenodd" d="M151.049 55.5455C149.89 55.5455 148.951 54.6062 148.951 53.4476C148.951 52.2889 149.89 51.3497 151.049 51.3497C152.208 51.3497 153.147 52.2889 153.147 53.4476C153.147 54.6062 152.208 55.5455 151.049 55.5455Z" fill="#F2F2F2"/>
<ellipse cx="83.5664" cy="19.1818" rx="17.8322" ry="18.1818" fill="white" stroke="#00D8FF" stroke-linecap="round" stroke-dasharray="3.4 2.27"/>
<path fill-rule="evenodd" clip-rule="evenodd" d="M86.7833 8.07193C87.1558 8.13642 87.4786 8.36788 87.6601 8.70062C87.8055 8.95666 87.9031 9.23718 87.9482 9.5284C88.0153 9.92209 88.0335 10.3226 88.0025 10.7208C87.9697 11.168 87.8998 11.6118 87.7937 12.0474C87.7937 12.0641 87.7937 12.083 87.7812 12.1081L87.8605 12.1333C88.3835 12.2829 88.8888 12.4888 89.3677 12.7473C89.7065 12.9268 90.0179 13.1541 90.2925 13.4221C90.4309 13.5576 90.5502 13.7113 90.6474 13.8789C90.8887 14.2767 90.8887 14.7763 90.6474 15.174C90.5058 15.4226 90.3205 15.6434 90.1005 15.8258C89.7284 16.1347 89.3153 16.39 88.873 16.5844C88.5533 16.7279 88.2249 16.8511 87.8898 16.9532L87.8125 16.9784C87.8292 17.0566 87.8459 17.1321 87.8626 17.2047C87.9798 17.7231 88.0379 18.2532 88.0359 18.7848C88.0383 19.1713 87.9812 19.5558 87.8668 19.9249C87.7919 20.1751 87.6661 20.4071 87.4973 20.6059C87.3046 20.8275 87.0382 20.9712 86.7479 21.0104C86.6998 21.0104 86.6539 21.0293 86.6059 21.0376H86.4285L86.3617 21.023C86.2761 21.0083 86.1884 20.9999 86.1049 20.9811C85.7799 20.9105 85.4669 20.7926 85.1759 20.6311C84.6673 20.3501 84.1966 20.005 83.7752 19.6042L83.604 19.4471L83.5497 19.4952C83.2275 19.8055 82.8782 20.086 82.5059 20.3335C82.1328 20.5896 81.7232 20.7875 81.291 20.9203C81.0044 21.014 80.7011 21.0447 80.4017 21.0104C80.0766 20.9702 79.7808 20.8021 79.5792 20.5431C79.4084 20.3161 79.2875 20.0554 79.2243 19.7782C79.1152 19.2973 79.0863 18.8016 79.1387 18.3112C79.1756 17.9004 79.2455 17.4932 79.3474 17.0936C79.3474 17.0685 79.3474 17.0455 79.3474 17.0203L79.2827 16.9972C78.9984 16.9151 78.7195 16.815 78.4477 16.6976C78.0003 16.5156 77.5791 16.2746 77.1952 15.9809C76.933 15.7845 76.7081 15.5425 76.5313 15.2663C76.2289 14.8244 76.2289 14.2412 76.5313 13.7993C76.6396 13.6301 76.7694 13.4758 76.9175 13.3404C77.2265 13.0607 77.5729 12.8258 77.9467 12.6425C78.3817 12.428 78.8352 12.2534 79.3015 12.1207L79.3579 12.0997C79.3579 12.0809 79.3579 12.0683 79.3579 12.0557C79.2529 11.6263 79.1831 11.1889 79.1491 10.7481C79.1076 10.3166 79.1259 9.88147 79.2034 9.45505C79.2498 9.19009 79.3424 8.93541 79.4769 8.70272C79.642 8.40672 79.9214 8.19217 80.2493 8.10965C80.5249 8.04951 80.8106 8.05381 81.0843 8.12223C81.4333 8.2071 81.7685 8.34115 82.0801 8.5204C82.6104 8.82366 83.1013 9.19182 83.5414 9.61642L83.5935 9.66042L83.842 9.40895C84.2623 9.01804 84.7318 8.68409 85.2385 8.41562C85.5502 8.24661 85.8873 8.12981 86.2364 8.06984L86.3637 8.04678L86.6706 8.05097L86.7833 8.07193ZM84.8294 16.8505C84.8751 16.8522 84.9179 16.8279 84.94 16.7876C85.4005 16.0862 85.8188 15.3577 86.1925 14.6061C86.2188 14.5622 86.2188 14.5074 86.1925 14.4635C86.0694 14.233 85.9525 14.0025 85.8293 13.7741C85.551 13.2711 85.2566 12.7821 84.9463 12.3071C84.9242 12.2631 84.8785 12.236 84.8294 12.238C84.6415 12.238 84.4557 12.2149 84.2678 12.2065C83.6164 12.1793 82.964 12.1898 82.3139 12.238C82.2708 12.2382 82.231 12.2613 82.2095 12.2988C81.7434 12.9982 81.325 13.7285 80.9569 14.4845C80.9361 14.5231 80.9361 14.5696 80.9569 14.6081C81.3231 15.3666 81.7416 16.0983 82.2095 16.7981C82.2304 16.8336 82.2686 16.8552 82.3097 16.8547L83.5935 16.9029L84.8294 16.8505ZM79.5061 12.7117L79.36 12.7536C78.894 12.8899 78.444 13.0761 78.0177 13.3089C77.7417 13.4583 77.4886 13.6467 77.2661 13.8684C77.1428 13.9885 77.0429 14.1306 76.9718 14.2876C76.9103 14.4365 76.9103 14.6039 76.9718 14.7528C77.0218 14.8821 77.0923 15.0024 77.1805 15.1091C77.3607 15.3225 77.5718 15.5076 77.8068 15.6581C78.3066 15.9786 78.8502 16.2243 79.4205 16.3874L79.5124 16.4125C79.5124 16.3874 79.5291 16.3685 79.5353 16.3497C79.7186 15.7627 79.939 15.188 80.195 14.6292C80.2221 14.5773 80.2221 14.5154 80.195 14.4636C79.9418 13.9146 79.7242 13.3497 79.5437 12.7724C79.5395 12.762 79.5395 12.7305 79.527 12.7117C79.527 12.7117 79.5103 12.7117 79.5061 12.7117ZM82.7898 18.5794C82.4934 18.2336 82.2137 17.8731 81.9548 17.5022C81.9327 17.4676 81.8955 17.4458 81.8546 17.4435C81.6772 17.4268 81.5018 17.41 81.3264 17.389C80.934 17.3471 80.5436 17.2863 80.1553 17.2067L79.957 17.1627C79.957 17.1879 79.9424 17.2046 79.9382 17.2214C79.8258 17.6685 79.7559 18.1253 79.7295 18.5856C79.7091 18.9309 79.7372 19.2772 79.813 19.6146C79.8522 19.7964 79.9267 19.9687 80.0322 20.1217C80.1352 20.2694 80.2963 20.3655 80.4747 20.3858C80.5991 20.4002 80.725 20.3966 80.8484 20.3753C81.0941 20.3319 81.3324 20.2535 81.5561 20.1427C82.0479 19.9018 82.5028 19.5913 82.9067 19.2206C82.9923 19.1557 83.0737 19.0802 83.1572 19.0006V18.9985C83.0299 18.8539 82.9088 18.7177 82.7898 18.5794ZM87.0172 17.1795C86.4659 17.2965 85.9083 17.3805 85.3471 17.4309C85.284 17.4317 85.2256 17.4649 85.1926 17.519C84.8518 18.0161 84.4794 18.4907 84.0779 18.9398L84.034 18.9943L84.0737 19.0362C84.3091 19.2608 84.558 19.4707 84.819 19.6649C85.1323 19.9025 85.4747 20.099 85.8377 20.2496C86.0628 20.3464 86.3047 20.3977 86.5495 20.4005C86.7762 20.4045 86.9884 20.2892 87.109 20.0966C87.1865 19.9774 87.2463 19.8475 87.2865 19.711C87.3799 19.397 87.4249 19.0705 87.4201 18.7428C87.4174 18.2271 87.3537 17.7136 87.2301 17.213C87.2244 17.1889 87.2174 17.1651 87.2092 17.1417V17.1396L87.0172 17.1795ZM83.0884 10.0564C82.8262 9.8062 82.5472 9.57443 82.2533 9.36274C81.9325 9.12918 81.5813 8.94091 81.2096 8.8032C81.0143 8.73034 80.8082 8.69136 80.6 8.68794C80.3437 8.67212 80.1037 8.815 79.9946 9.04839C79.9424 9.14847 79.8991 9.25295 79.8652 9.36064C79.7812 9.65909 79.7425 9.96852 79.7503 10.2785C79.7571 10.7777 79.8187 11.2746 79.934 11.7601L79.9779 11.9425C80.2639 11.888 80.5415 11.8293 80.8129 11.7874C81.149 11.7371 81.4893 11.6973 81.8275 11.6554C81.8804 11.6532 81.9292 11.626 81.959 11.582C82.2448 11.1699 82.5521 10.7733 82.8796 10.3938L83.1426 10.0983C83.1218 10.0815 83.103 10.0711 83.0884 10.0564ZM87.2092 11.844C87.3065 11.4248 87.3666 10.9977 87.3887 10.5678C87.4139 10.2001 87.3844 9.83072 87.301 9.47179C87.2574 9.27437 87.1735 9.08815 87.0547 8.92483C86.9693 8.80239 86.8398 8.71819 86.6936 8.69012C86.5367 8.66389 86.3761 8.67031 86.2218 8.70898C85.9437 8.77294 85.6764 8.87743 85.4285 9.01913C84.9186 9.30852 84.4496 9.66516 84.034 10.0795C84.0246 10.0878 84.0169 10.0978 84.011 10.1089C84.0236 10.1235 84.0319 10.1361 84.0424 10.1466C84.2511 10.3813 84.4599 10.6118 84.6415 10.8528C84.8231 11.0938 85.0131 11.3453 85.1947 11.5947C85.2187 11.6316 85.2593 11.6543 85.3032 11.6554C85.393 11.6554 85.4807 11.6722 85.5705 11.6827C86.0186 11.733 86.4639 11.8028 86.9065 11.8922L87.18 11.953C87.1904 11.9132 87.2008 11.8776 87.2092 11.844ZM87.6893 16.3748C88.1918 16.2276 88.6758 16.023 89.1318 15.7649C89.4061 15.6125 89.6571 15.4212 89.8771 15.197C89.9971 15.0768 90.0928 14.9345 90.1589 14.7779C90.2341 14.6195 90.2341 14.4355 90.1589 14.277C90.0993 14.1481 90.0189 14.0298 89.9209 13.9271C89.7263 13.7217 89.5035 13.5453 89.2592 13.4032C88.7995 13.1344 88.3088 12.9233 87.7979 12.7745L87.6204 12.7221C87.6118 12.7402 87.6048 12.7592 87.5996 12.7787C87.4149 13.3573 87.1939 13.9235 86.9378 14.474C86.9159 14.5153 86.9159 14.5648 86.9378 14.6061C87.2023 15.1607 87.431 15.7319 87.6225 16.3161C87.6288 16.3245 87.6392 16.3517 87.6476 16.3748H87.6893ZM87.0422 16.5361C86.9035 16.1091 86.7432 15.6894 86.5621 15.2787C86.2761 15.767 85.9922 16.2637 85.7041 16.7666C86.1541 16.715 86.6008 16.638 87.0422 16.5361ZM80.1157 16.5592C80.5524 16.6623 80.9962 16.7323 81.4434 16.7688C81.1427 16.2868 80.8609 15.7964 80.5833 15.2767C80.406 15.696 80.2499 16.1241 80.1157 16.5592ZM82.723 17.5043C83.0007 17.869 83.2825 18.2127 83.5914 18.5521C83.8926 18.2198 84.1749 17.8707 84.4369 17.5064L84.4286 17.5043H82.723ZM84.4307 11.5884C84.1638 11.2283 83.8781 10.8827 83.5747 10.5531C83.27 10.8759 82.9902 11.2217 82.7126 11.5884C83.2908 11.5632 83.8545 11.5653 84.4307 11.5884ZM87.013 12.5522C86.5816 12.4529 86.1454 12.376 85.7061 12.3217C85.9901 12.8205 86.2698 13.3046 86.5558 13.8096C86.7302 13.3989 86.8828 12.9792 87.013 12.5522ZM80.5916 13.8097C80.8567 13.2984 81.1344 12.8122 81.4454 12.3239C81.0035 12.3778 80.5645 12.454 80.1302 12.5524C80.2639 12.982 80.4162 13.3906 80.5916 13.8097Z" fill="#00D8FF"/>
<path fill-rule="evenodd" clip-rule="evenodd" d="M84.7768 14.8553C84.7746 15.5386 84.231 16.0908 83.5625 16.0886C82.8941 16.0864 82.354 15.5307 82.3561 14.8474C82.3593 14.1645 82.9023 13.613 83.5703 13.6141C84.2388 13.6163 84.7789 14.172 84.7768 14.8553Z" fill="#00D8FF"/>
<path fill-rule="evenodd" clip-rule="evenodd" d="M76.9096 27.8415C76.8949 27.8428 76.8802 27.8428 76.8655 27.8415C76.6109 27.8415 76.3563 27.8415 76.1037 27.8415C76.0556 27.8415 76.0395 27.8161 76.0175 27.7822L74.9329 25.9834C74.8206 25.799 74.7103 25.6168 74.6001 25.4304C74.5862 25.3998 74.5559 25.3813 74.5239 25.3838H73.4373H73.3972C73.3972 25.655 73.3972 25.924 73.3972 26.1931V27.8309H72.6735V21.6569H72.7316H75.0091C75.3384 21.6489 75.6646 21.726 75.9593 21.8815C76.4323 22.126 76.7603 22.6019 76.8354 23.1527C76.8957 23.4927 76.8736 23.8433 76.7713 24.1718C76.604 24.7173 76.1802 25.1314 75.6526 25.2651C75.5721 25.2873 75.4905 25.3043 75.408 25.316L75.3398 25.3329C75.8631 26.1804 76.3844 27.0025 76.9096 27.8415ZM74.8968 24.6974C75.0197 24.7002 75.1423 24.6859 75.2617 24.655C75.5904 24.5807 75.8655 24.3443 76.0014 24.0194C76.1027 23.7885 76.1328 23.5299 76.0877 23.2799C76.0417 22.9357 75.8407 22.6364 75.5484 22.4769C75.3502 22.3691 75.1296 22.3159 74.9068 22.3223H73.4573H73.4012V24.6974H74.8968Z" fill="#00D8FF"/>
<path fill-rule="evenodd" clip-rule="evenodd" d="M78.2404 25.6065C78.2404 25.6688 78.2404 25.7222 78.2568 25.7734C78.2984 26.1204 78.435 26.446 78.6489 26.7081C78.8743 26.9869 79.1861 27.1666 79.5253 27.2132C80.102 27.3089 80.6869 27.1082 81.1079 26.6702L81.1448 26.6369L81.4671 27.1109C81.4034 27.1687 81.3439 27.231 81.2803 27.2867C80.9567 27.566 80.5695 27.7452 80.1596 27.8052C79.7792 27.8746 79.3892 27.8472 79.0204 27.7251C78.3608 27.5197 77.8436 26.9632 77.6493 26.2496C77.4383 25.5863 77.4767 24.8597 77.756 24.2267C78.0179 23.5696 78.5614 23.0944 79.2092 22.956C79.7848 22.8043 80.3929 22.9327 80.8739 23.3076C81.1909 23.5617 81.4315 23.9116 81.5656 24.3135C81.7029 24.7146 81.765 25.1413 81.7483 25.5687C81.7468 25.5816 81.7441 25.5942 81.74 25.6065H78.2404ZM81.0771 25.0568C81.0779 24.835 81.0345 24.6156 80.9498 24.4137C80.8189 24.0558 80.5597 23.7707 80.2314 23.6237C79.9718 23.5074 79.6871 23.4735 79.4104 23.5258C79.1714 23.5631 78.9471 23.6734 78.7638 23.844C78.5271 24.07 78.3596 24.3689 78.2835 24.7008C78.2518 24.8163 78.2366 24.9363 78.2384 25.0568H81.0771Z" fill="#00D8FF"/>
<path fill-rule="evenodd" clip-rule="evenodd" d="M82.5681 23.6831C82.5772 23.6674 82.5875 23.6525 82.5989 23.6386C82.9494 23.2437 83.4145 22.9911 83.9163 22.9232C84.2455 22.8718 84.5806 22.8877 84.9044 22.97C85.0719 23.0118 85.2323 23.0817 85.3799 23.1772C85.6905 23.3805 85.9016 23.7226 85.9562 24.111C85.9768 24.2406 85.9871 24.3718 85.9871 24.5033C85.9871 25.5433 85.9871 26.587 85.9871 27.6345C85.9871 27.6612 85.9871 27.688 85.9871 27.7192H85.3161V27.1954C85.2973 27.213 85.2794 27.2316 85.2625 27.2512C84.967 27.5728 84.578 27.7743 84.1613 27.8217C83.8952 27.8644 83.6236 27.8415 83.3667 27.7548C82.9952 27.6361 82.6844 27.3584 82.5063 26.986C82.3791 26.7056 82.3311 26.3909 82.3684 26.0811C82.4175 25.4817 82.8059 24.9785 83.342 24.8197C83.8672 24.6478 84.4345 24.7154 84.9126 25.0069C85.0412 25.0842 85.1579 25.1827 85.2584 25.2989C85.2708 25.3145 85.2811 25.3323 85.2975 25.3568C85.2975 25.3345 85.314 25.3279 85.314 25.3212C85.314 25.0292 85.314 24.7395 85.314 24.4498C85.3076 24.1077 85.1155 23.802 84.8241 23.6698C84.597 23.5535 84.3458 23.5036 84.0954 23.5249C83.6475 23.5515 83.2277 23.7695 82.9283 24.1311C82.912 24.1503 82.8975 24.1712 82.8851 24.1935L82.5681 23.6831ZM85.314 26.0055C85.314 25.8072 85.314 25.8072 85.1822 25.6734C84.7661 25.2844 84.193 25.1577 83.6693 25.3391C83.2002 25.5044 82.9376 26.0435 83.0765 26.556C83.1556 26.8875 83.3903 27.1492 83.694 27.2446C84.0061 27.3495 84.341 27.3424 84.6491 27.2246C84.8911 27.1452 85.106 26.9902 85.2666 26.7788C85.2935 26.7466 85.3076 26.7041 85.3057 26.6607C85.3119 26.5337 85.314 26.4044 85.314 26.2774V26.0055Z" fill="#00D8FF"/>
<path fill-rule="evenodd" clip-rule="evenodd" d="M90.398 24.1447L90.3702 24.1113C90.1537 23.7742 89.8118 23.5667 89.442 23.548C89.0098 23.4958 88.5812 23.6777 88.2877 24.0378C88.1006 24.2675 87.9742 24.5513 87.9228 24.8572C87.8356 25.2878 87.8632 25.7376 88.0021 26.1508C88.1369 26.5971 88.4505 26.9466 88.849 27.0948C89.1909 27.2313 89.5668 27.2121 89.8962 27.0414C90.0703 26.9458 90.2233 26.8081 90.3445 26.6384C90.3583 26.6161 90.3742 26.5961 90.396 26.5671L90.8284 27.0124C90.7447 27.1389 90.649 27.2546 90.5428 27.3575C90.3019 27.5938 90.0061 27.7483 89.69 27.8029C89.3354 27.8748 88.9705 27.8488 88.6269 27.7271C88.0871 27.5399 87.6464 27.0987 87.419 26.5181C87.2429 26.088 87.1698 25.6137 87.2068 25.1421C87.2259 24.7779 87.3145 24.4226 87.4666 24.1001C87.7499 23.4788 88.2805 23.0469 88.8946 22.9379C89.2651 22.8578 89.6478 22.8869 90.0053 23.0225C90.3342 23.1497 90.6212 23.3856 90.8284 23.6994L90.398 24.1447Z" fill="#00D8FF"/>
<path fill-rule="evenodd" clip-rule="evenodd" d="M91.4336 24.0324V23.4473H92.1311V22.275H92.7947C92.7947 22.3725 92.7947 22.468 92.7947 22.5635V23.4432C92.8907 23.4432 92.9826 23.4432 93.0745 23.4432H93.6462V24.0283H92.8007C92.8007 24.0547 92.8007 24.073 92.8007 24.0913V26.7081C92.7988 26.8107 92.8186 26.9126 92.8587 27.0068C92.9222 27.1703 93.0869 27.269 93.2584 27.2465C93.4106 27.2391 93.5555 27.178 93.6682 27.0738C93.6762 27.0856 93.6836 27.0978 93.6902 27.1104C93.7401 27.2384 93.7881 27.3664 93.8361 27.4944C93.866 27.5696 93.8621 27.5777 93.8001 27.6264C93.6487 27.7432 93.4678 27.8137 93.2784 27.8296C93.1022 27.854 92.9231 27.8437 92.7507 27.7991C92.4458 27.7231 92.2166 27.4668 92.1711 27.151C92.1501 27.0303 92.1401 26.9079 92.1411 26.7853C92.1411 25.8995 92.1411 25.013 92.1411 24.1259L92.1311 24.0324H91.4336Z" fill="#00D8FF"/>
<g filter="url(#filter0_d)">
<rect x="10.4895" y="25.8195" width="32.5113" height="36.0195" fill="white"/>
</g>
<path fill-rule="evenodd" clip-rule="evenodd" d="M43.0009 28.2616C41.6457 28.2616 40.5472 27.1682 40.5472 25.8196C40.5472 24.4709 41.6457 23.3776 43.0009 23.3776C44.356 23.3776 45.4546 24.4709 45.4546 25.8196C45.4546 27.1682 44.356 28.2616 43.0009 28.2616Z" fill="#F94F24"/>
<path fill-rule="evenodd" clip-rule="evenodd" d="M43.3109 25.4818V24.9343C43.3109 24.7489 43.1601 24.5986 42.9742 24.5986C42.7882 24.5986 42.6375 24.7489 42.6375 24.9343V25.4818H42.0861C41.9099 25.4957 41.774 25.6423 41.774 25.8186C41.774 25.9948 41.9099 26.1414 42.0861 26.1553H42.6375V26.7049C42.6375 26.8903 42.7882 27.0406 42.9742 27.0406C43.1601 27.0406 43.3109 26.8903 43.3109 26.7049V26.1553H43.8622C43.9893 26.1653 44.1112 26.1034 44.1778 25.9951C44.2444 25.8868 44.2444 25.7504 44.1778 25.642C44.1112 25.5337 43.9893 25.4718 43.8622 25.4818H43.3109Z" fill="white"/>
<path fill-rule="evenodd" clip-rule="evenodd" d="M14.17 57.5657V30.0931H38.7069V57.5657H14.17ZM38.29 57.1499V30.5086H14.587V57.1499H38.29Z" fill="#DEDEDE"/>
<path fill-rule="evenodd" clip-rule="evenodd" d="M14.17 52.3873L26.6186 40.0722C27.6138 39.0877 28.6739 38.6048 29.7863 38.6421C31.5398 38.6981 32.7382 40.0266 32.7885 40.0825L38.7069 45.9375L38.4115 46.2297L32.4826 40.3665C32.4638 40.3437 31.3387 39.1043 29.7591 39.0566C28.7723 39.0235 27.8149 39.4711 26.9057 40.3665L14.4738 52.6816L14.17 52.3873Z" fill="#DEDEDE"/>
<path fill-rule="evenodd" clip-rule="evenodd" d="M17.4478 37.5557C17.02 36.5289 17.256 35.3468 18.0457 34.5608C18.8355 33.7748 20.0233 33.5399 21.0549 33.9657C22.0866 34.3915 22.7588 35.394 22.7579 36.5056C22.7556 38.0206 21.5221 39.2482 19.9998 39.2506C18.8829 39.2515 17.8756 38.5825 17.4478 37.5557ZM17.8496 35.6183C17.4889 36.4832 17.6874 37.4791 18.3523 38.1415C19.0173 38.8039 20.0178 39.0023 20.8871 38.6442C21.7564 38.286 22.3233 37.4419 22.3233 36.5056C22.3221 35.2286 21.2828 34.1934 19.9998 34.191C19.0589 34.1901 18.2102 34.7535 17.8496 35.6183Z" fill="#DEDEDE"/>
<g filter="url(#filter1_d)">
<rect x="120.28" y="37.7078" width="32.5113" height="36.0195" fill="white"/>
</g>
<path fill-rule="evenodd" clip-rule="evenodd" d="M123.881 67.0119C123.586 67.0119 123.347 66.7386 123.347 66.4014C123.347 66.0643 123.586 65.7909 123.881 65.7909H135.081C135.376 65.7909 135.615 66.0643 135.615 66.4014C135.615 66.7386 135.376 67.0119 135.081 67.0119H135.076H123.881Z" fill="#DEDEDE"/>
<rect x="123.347" y="44.4233" width="25.7637" height="11.5995" fill="#F2F2F2"/>
<path fill-rule="evenodd" clip-rule="evenodd" d="M137.443 67.0119C137.111 67.0119 136.842 66.7386 136.842 66.4014C136.842 66.0643 137.111 65.7909 137.443 65.7909H140.535C140.867 65.7909 141.136 66.0643 141.136 66.4014C141.136 66.7386 140.867 67.0119 140.535 67.0119H137.443Z" fill="#DEDEDE"/>
<path fill-rule="evenodd" clip-rule="evenodd" d="M123.887 62.1279C123.589 62.1279 123.347 61.8546 123.347 61.5174C123.347 61.1803 123.589 60.9069 123.887 60.9069H139.369C139.667 60.9069 139.909 61.1803 139.909 61.5174C139.909 61.8546 139.667 62.1279 139.369 62.1279H123.887Z" fill="#DEDEDE"/>
<path fill-rule="evenodd" clip-rule="evenodd" d="M142.309 62.1279C142 62.1279 141.749 61.8546 141.749 61.5174C141.749 61.1803 142 60.9069 142.309 60.9069H147.938C148.247 60.9069 148.497 61.1803 148.497 61.5174C148.497 61.8546 148.247 62.1279 147.938 62.1279H142.309Z" fill="#DEDEDE"/>
<path fill-rule="evenodd" clip-rule="evenodd" d="M152.791 40.1499C151.436 40.1499 150.337 39.0565 150.337 37.7078C150.337 36.3592 151.436 35.2658 152.791 35.2658C154.146 35.2658 155.245 36.3592 155.245 37.7078C155.245 39.0565 154.146 40.1499 152.791 40.1499Z" fill="#F94F24"/>
<path fill-rule="evenodd" clip-rule="evenodd" d="M153.101 37.3701V36.8226C153.101 36.6372 152.95 36.4869 152.764 36.4869C152.578 36.4869 152.428 36.6372 152.428 36.8226V37.3701H151.876C151.7 37.384 151.564 37.5306 151.564 37.7068C151.564 37.8831 151.7 38.0297 151.876 38.0436H152.428V38.5932C152.428 38.7786 152.578 38.9289 152.764 38.9289C152.95 38.9289 153.101 38.7786 153.101 38.5932V38.0436H153.652C153.779 38.0536 153.901 37.9917 153.968 37.8834C154.035 37.775 154.035 37.6386 153.968 37.5303C153.901 37.422 153.779 37.3601 153.652 37.3701H153.101Z" fill="white"/>
<g filter="url(#filter2_d)">
<rect x="18.1818" y="83.946" width="42.3029" height="17.0539" fill="white"/>
</g>
<path fill-rule="evenodd" clip-rule="evenodd" d="M60.4847 86.9914C59.1303 86.9914 58.0324 85.9007 58.0324 84.5551C58.0324 83.2096 59.1303 82.1189 60.4847 82.1189C61.8391 82.1189 62.9371 83.2096 62.9371 84.5551C62.9371 85.9007 61.8391 86.9914 60.4847 86.9914Z" fill="#F94F24"/>
<path fill-rule="evenodd" clip-rule="evenodd" d="M60.7946 84.2182V83.6719C60.7946 83.4869 60.6439 83.337 60.458 83.337C60.2722 83.337 60.1215 83.4869 60.1215 83.6719V84.2182H59.5705C59.3944 84.232 59.2585 84.3783 59.2585 84.5541C59.2585 84.7299 59.3944 84.8762 59.5705 84.89H60.1215V85.4384C60.1215 85.6233 60.2722 85.7733 60.458 85.7733C60.6439 85.7733 60.7946 85.6233 60.7946 85.4384V84.89H61.3456C61.4726 84.9 61.5944 84.8383 61.661 84.7302C61.7275 84.6221 61.7275 84.4861 61.661 84.378C61.5944 84.2699 61.4726 84.2082 61.3456 84.2182H60.7946Z" fill="white"/>
<path fill-rule="evenodd" clip-rule="evenodd" d="M22.4481 88.2096C22.1235 88.2096 21.8603 87.9369 21.8603 87.6005C21.8603 87.2641 22.1235 86.9914 22.4481 86.9914H34.7605C35.0851 86.9914 35.3482 87.2641 35.3482 87.6005C35.3482 87.9369 35.0851 88.2096 34.7605 88.2096H34.7554H22.4481Z" fill="#DEDEDE"/>
<path fill-rule="evenodd" clip-rule="evenodd" d="M37.7883 88.2096C37.4565 88.2096 37.1875 87.9369 37.1875 87.6005C37.1875 87.2641 37.4565 86.9914 37.7883 86.9914H40.8782C41.2101 86.9914 41.4791 87.2641 41.4791 87.6005C41.4791 87.9369 41.2101 88.2096 40.8782 88.2096H37.7883Z" fill="#DEDEDE"/>
<path fill-rule="evenodd" clip-rule="evenodd" d="M22.4481 97.9547C22.1235 97.9547 21.8603 97.682 21.8603 97.3456C21.8603 97.0093 22.1235 96.7366 22.4481 96.7366H34.7605C35.0851 96.7366 35.3482 97.0093 35.3482 97.3456C35.3482 97.682 35.0851 97.9547 34.7605 97.9547H34.7554H22.4481Z" fill="#DEDEDE"/>
<path fill-rule="evenodd" clip-rule="evenodd" d="M37.7883 97.9547C37.4565 97.9547 37.1875 97.682 37.1875 97.3456C37.1875 97.0093 37.4565 96.7366 37.7883 96.7366H40.8782C41.2101 96.7366 41.4791 97.0093 41.4791 97.3456C41.4791 97.682 41.2101 97.9547 40.8782 97.9547H37.7883Z" fill="#DEDEDE"/>
<path fill-rule="evenodd" clip-rule="evenodd" d="M43.914 88.2096C43.585 88.2096 43.3183 87.9369 43.3183 87.6005C43.3183 87.2641 43.585 86.9914 43.914 86.9914H56.8237C57.1526 86.9914 57.4193 87.2641 57.4193 87.6005C57.4193 87.9369 57.1526 88.2096 56.8237 88.2096H43.914Z" fill="#DEDEDE"/>
<path fill-rule="evenodd" clip-rule="evenodd" d="M22.4603 93.0821C22.1289 93.0821 21.8603 92.8094 21.8603 92.4731C21.8603 92.1367 22.1289 91.864 22.4603 91.864H39.6529C39.9843 91.864 40.2529 92.1367 40.2529 92.4731C40.2529 92.8094 39.9843 93.0821 39.6529 93.0821H22.4603Z" fill="#DEDEDE"/>
<path fill-rule="evenodd" clip-rule="evenodd" d="M43.3151 93.0821C42.9783 93.0821 42.7052 92.8094 42.7052 92.4731C42.7052 92.1367 42.9783 91.864 43.3151 91.864H49.4524C49.7892 91.864 50.0623 92.1367 50.0623 92.4731C50.0623 92.8094 49.7892 93.0821 49.4524 93.0821H43.3151Z" fill="#DEDEDE"/>
<defs>
<filter id="filter0_d" x="0.489502" y="15.8195" width="52.5113" height="56.0195" filterUnits="userSpaceOnUse" color-interpolation-filters="sRGB">
<feFlood flood-opacity="0" result="BackgroundImageFix"/>
<feColorMatrix in="SourceAlpha" type="matrix" values="0 0 0 0 0 0 0 0 0 0 0 0 0 0 0 0 0 0 127 0"/>
<feOffset/>
<feGaussianBlur stdDeviation="5"/>
<feColorMatrix type="matrix" values="0 0 0 0 0 0 0 0 0 0 0 0 0 0 0 0 0 0 0.176471 0"/>
<feBlend mode="normal" in2="BackgroundImageFix" result="effect1_dropShadow"/>
<feBlend mode="normal" in="SourceGraphic" in2="effect1_dropShadow" result="shape"/>
</filter>
<filter id="filter1_d" x="110.28" y="27.7078" width="52.5113" height="56.0195" filterUnits="userSpaceOnUse" color-interpolation-filters="sRGB">
<feFlood flood-opacity="0" result="BackgroundImageFix"/>
<feColorMatrix in="SourceAlpha" type="matrix" values="0 0 0 0 0 0 0 0 0 0 0 0 0 0 0 0 0 0 127 0"/>
<feOffset/>
<feGaussianBlur stdDeviation="5"/>
<feColorMatrix type="matrix" values="0 0 0 0 0 0 0 0 0 0 0 0 0 0 0 0 0 0 0.176471 0"/>
<feBlend mode="normal" in2="BackgroundImageFix" result="effect1_dropShadow"/>
<feBlend mode="normal" in="SourceGraphic" in2="effect1_dropShadow" result="shape"/>
</filter>
<filter id="filter2_d" x="8.18182" y="73.946" width="62.3029" height="37.0539" filterUnits="userSpaceOnUse" color-interpolation-filters="sRGB">
<feFlood flood-opacity="0" result="BackgroundImageFix"/>
<feColorMatrix in="SourceAlpha" type="matrix" values="0 0 0 0 0 0 0 0 0 0 0 0 0 0 0 0 0 0 127 0"/>
<feOffset/>
<feGaussianBlur stdDeviation="5"/>
<feColorMatrix type="matrix" values="0 0 0 0 0 0 0 0 0 0 0 0 0 0 0 0 0 0 0.176471 0"/>
<feBlend mode="normal" in2="BackgroundImageFix" result="effect1_dropShadow"/>
<feBlend mode="normal" in="SourceGraphic" in2="effect1_dropShadow" result="shape"/>
</filter>
</defs>
</svg>
