<svg width="92" height="100" viewBox="0 0 92 100" fill="none" xmlns="http://www.w3.org/2000/svg">
<mask id="mask0" mask-type="alpha" maskUnits="userSpaceOnUse" x="0" y="0" width="92" height="100">
<rect width="91.0891" height="100" fill="white"/>
</mask>
<g mask="url(#mask0)">
<path d="M42.9596 35.1852C43.0827 35.8025 43.3289 36.4198 43.452 36.9136C44.3136 39.8766 44.806 42.963 45.0522 46.1729C45.1753 47.4075 45.1753 48.7655 45.1753 50.0001C45.1753 51.2346 45.1753 52.5927 45.0522 53.8272C44.806 57.0371 44.3136 60.1235 43.452 63.0865C43.3289 63.7038 43.0827 64.321 42.9596 64.8149H68.6861C76.8103 64.8149 83.3342 58.1482 83.3342 50.0001C83.3342 41.8519 76.8103 35.1852 68.6861 35.1852H42.9596Z" fill="#00A9E5"/>
<path d="M45.1753 50.0001C45.1753 48.7655 45.1753 47.4075 45.0522 46.1729C44.806 42.963 44.3136 39.8766 43.452 36.9136C43.3289 36.2964 43.0827 35.6791 42.9596 35.1852H3.20042C1.7233 39.8766 0.984741 44.8149 0.984741 50.0001C0.984741 55.1852 1.7233 60.1235 3.20042 64.8149H42.9596C43.0827 64.1976 43.3289 63.5803 43.452 63.0865C44.3136 60.1235 44.806 57.0371 45.0522 53.8272C45.1753 52.5927 45.1753 51.2346 45.1753 50.0001Z" fill="#353535"/>
<path d="M41.1132 69.7531C40.1285 71.9753 39.0206 74.0741 37.7897 76.0494C35.9433 79.1358 33.7276 81.8519 31.2657 84.4445C30.4041 85.3087 29.5424 86.0494 28.6808 86.9136C26.9575 88.5185 24.988 89.8766 23.0185 91.2346C30.7733 96.4198 40.1284 99.3827 50.099 99.3827C67.209 99.3827 82.2264 90.6173 91.0891 77.4074C86.5347 72.7161 80.1338 69.7531 73.1175 69.7531H41.1132Z" fill="#00BFB3"/>
<path d="M41.1132 69.7531H5.04681C8.86271 78.5185 15.1405 86.0494 23.1416 91.2346C25.111 89.8766 26.9574 88.5185 28.8038 86.9136C29.6655 86.1729 30.5272 85.3087 31.3888 84.4445C33.7276 81.9753 35.9433 79.1358 37.7897 76.0494C39.0206 74.0741 40.1284 71.9753 41.1132 69.7531Z" fill="#019B8F"/>
<path d="M28.6808 13.0864C26.9575 11.4815 24.988 10.1235 23.0185 8.76544C15.1405 13.9506 8.86273 21.4815 4.92374 30.2469H40.9901C40.0054 28.0247 38.8975 25.9259 37.6666 23.9506C35.9433 20.8642 33.7276 18.0247 31.2657 15.5556C30.4041 14.6914 29.5424 13.9506 28.6808 13.0864Z" fill="#F9B110"/>
<path d="M23.0185 8.76546C24.988 10.1235 26.8344 11.4815 28.6808 13.0864C29.5424 13.8272 30.4041 14.6914 31.2657 15.5556C33.7276 18.1482 35.9433 20.8642 37.7897 23.9506C39.0206 25.926 40.1285 28.0247 41.1132 30.2469H73.1175C80.1338 30.2469 86.5347 27.284 91.0891 22.5926C82.2264 9.38274 67.209 0.61731 50.099 0.61731C40.1284 0.61731 30.7733 3.58027 23.0185 8.76546Z" fill="#FED10A"/>
</g>
</svg>
