<svg width="65" height="45" viewBox="0 0 65 45" fill="none" xmlns="http://www.w3.org/2000/svg">
<path d="M26 26.5V42C26 43.1046 26.8954 44 28 44H62C63.1046 44 64 43.1046 64 42V20C64 18.8954 63.1046 18 62 18H38.5" stroke="white" stroke-dasharray="2 2"/>
<path d="M26 27H3C1.89543 27 1 26.1046 1 25V3C1 1.89543 1.89543 1 3 1H37C38.1046 1 39 1.89543 39 3V25" stroke="white"/>
<path d="M20 10.5L46 30" stroke="white"/>
<path d="M47.024 25.6181L49.8568 33.2314L41.8471 31.8781L47.024 25.6181Z" fill="white" stroke="white"/>
</svg>
