<svg width="51" height="48" viewBox="0 0 51 48" fill="none" xmlns="http://www.w3.org/2000/svg">
<mask id="mask0" mask-type="alpha" maskUnits="userSpaceOnUse" x="3" y="0" width="48" height="48">
<path fill-rule="evenodd" clip-rule="evenodd" d="M3.8302 23.5849C3.8302 18.1103 5.73474 12.8062 9.2173 8.58206C12.6998 4.3579 17.5434 1.47684 22.9175 0.432845C28.2917 -0.611147 33.8617 0.246967 38.6724 2.86006C43.4832 5.47315 47.235 9.67843 49.2847 14.7548C51.3343 19.8313 51.5541 25.4627 49.9064 30.6835C48.2587 35.9042 44.846 40.3892 40.2536 43.3693C35.6612 46.3494 30.175 47.6391 24.7358 47.0171C19.2967 46.3952 14.2432 43.9005 10.4421 39.9606L13.8367 36.6855C16.8776 39.8373 20.9203 41.8332 25.2717 42.3307C29.623 42.8282 34.0119 41.7965 37.6859 39.4124C41.3598 37.0283 44.0899 33.4404 45.4081 29.2637C46.7263 25.0871 46.5505 20.582 44.9108 16.5209C43.271 12.4597 40.2695 9.09551 36.4209 7.00503C32.5723 4.91456 28.1164 4.22807 23.8171 5.06327C19.5177 5.89846 15.6429 8.20331 12.8568 11.5826C10.0708 14.9619 8.54718 19.2052 8.54718 23.5849H3.8302Z" fill="white"/>
</mask>
<g mask="url(#mask0)">
<path d="M3.8302 23.5849C3.8302 18.1103 5.73474 12.8062 9.2173 8.58206C12.6998 4.3579 17.5434 1.47684 22.9175 0.432845C28.2917 -0.611147 33.8617 0.246967 38.6724 2.86006C43.4832 5.47315 47.235 9.67843 49.2847 14.7548C51.3343 19.8313 51.5541 25.4627 49.9064 30.6835C48.2587 35.9042 44.846 40.3892 40.2536 43.3693C35.6612 46.3494 30.175 47.6391 24.7358 47.0171C19.2967 46.3952 14.2432 43.9005 10.4421 39.9606L13.8367 36.6855C16.8776 39.8373 20.9203 41.8332 25.2717 42.3307C29.623 42.8282 34.0119 41.7965 37.6859 39.4124C41.3598 37.0283 44.0899 33.4404 45.4081 29.2637C46.7263 25.0871 46.5505 20.582 44.9108 16.5209C43.271 12.4597 40.2695 9.09551 36.4209 7.00503C32.5723 4.91456 28.1164 4.22807 23.8171 5.06327C19.5177 5.89846 15.6429 8.20331 12.8568 11.5826C10.0708 14.9619 8.54718 19.2052 8.54718 23.5849H3.8302Z" fill="white" stroke="white" stroke-width="2"/>
</g>
<rect x="27.4151" y="11.3208" width="0.943396" height="10.3774" fill="white"/>
<rect x="29.3019" y="23.585" width="5.66038" height="0.943396" fill="white"/>
<circle cx="27.4151" cy="23.5848" r="2.33019" fill="white" stroke="white"/>
<rect x="26.4717" y="6.60376" width="1.88679" height="1.88679" rx="0.943395" fill="white"/>
<rect x="26.4717" y="38.6792" width="1.88679" height="1.88679" rx="0.943395" fill="white"/>
<rect x="42.5095" y="22.6416" width="1.88679" height="1.88679" rx="0.943395" fill="white"/>
<path d="M4.45912 23.1133H1L6.18868 29.7171L11.3774 23.1133H7.91824" stroke="white"/>
</svg>
