<svg width="52" height="45" viewBox="0 0 52 45" fill="none" xmlns="http://www.w3.org/2000/svg">
<path d="M1 27L14 14.8667L24 22.1778L36.5 9L51 27" stroke="white" stroke-linecap="round" stroke-linejoin="round"/>
<path d="M38 36H49C50.1046 36 51 35.1046 51 34V3C51 1.89543 50.1046 1 49 1H3C1.89543 1 1 1.89543 1 3V34C1 35.1046 1.89543 36 3 36H13" stroke="white"/>
<path d="M34.9455 33.3252L35.4436 33.2814L35.4435 33.2813L34.9455 33.3252ZM34.4371 32.8571L34.4239 33.357L34.4248 33.357L34.4371 32.8571ZM32.5696 32.8052L32.5789 32.3052H32.5696V32.8052ZM32.1583 32.5169L31.6804 32.6643L31.6823 32.6701L32.1583 32.5169ZM31.7959 31.7317L32.2182 31.4637L32.2132 31.4562L31.7959 31.7317ZM30.7455 30.2718L31.1442 29.9701L31.1218 29.9405L31.0952 29.9145L30.7455 30.2718ZM30.6782 29.9287L31.137 30.1274L31.1402 30.12L31.1432 30.1125L30.6782 29.9287ZM31.0367 28.9416L30.5642 28.778L30.5641 28.7781L31.0367 28.9416ZM31.4105 27.821L31.8851 27.9783L31.8979 27.9398L31.9043 27.8997L31.4105 27.821ZM30.7272 27.0982L30.9699 26.6611L30.9633 26.6574L30.9566 26.654L30.7272 27.0982ZM28.805 26.1073L29.0265 25.659L29.0238 25.6577L28.805 26.1073ZM28.186 26.2928L27.7698 26.0158L27.7693 26.0166L28.186 26.2928ZM27.0827 27.9728L26.6636 27.7001L26.644 27.7302L26.629 27.7627L27.0827 27.9728ZM26.8213 28.0881L26.972 27.6114L26.9458 27.6031L26.9189 27.5978L26.8213 28.0881ZM23.6064 28.1842L23.6659 28.6807L23.6999 28.6766L23.7331 28.6679L23.6064 28.1842ZM23.3632 28.1035L22.9944 28.4411L23.0061 28.4538L23.0186 28.4658L23.3632 28.1035ZM21.9216 26.4869L22.2977 26.1575L22.2965 26.1562L21.9216 26.4869ZM21.218 26.4129L21.5051 26.8223L21.5088 26.8197L21.218 26.4129ZM19.1584 27.8488L19.4411 28.2613L19.4415 28.2609L19.1584 27.8488ZM18.9662 28.5773L19.4068 28.3409L19.4048 28.3373L18.9662 28.5773ZM19.9033 30.3073L19.4645 30.5472L19.4748 30.5659L19.4866 30.5837L19.9033 30.3073ZM19.8715 30.6082L19.5217 30.2509L19.4912 30.2808L19.4662 30.3153L19.8715 30.6082ZM19.1161 31.7365L18.6722 31.5065L18.6688 31.513L18.6656 31.5196L19.1161 31.7365ZM18.5106 33.1887L18.0395 33.0213L18.0293 33.0498L18.0227 33.0794L18.5106 33.1887ZM18.2655 33.4117L18.2026 32.9157L18.1903 32.9172L18.178 32.9194L18.2655 33.4117ZM16.229 33.8048L16.3253 34.2954L16.3277 34.2949L16.229 33.8048ZM15.7676 34.4093L15.2687 34.4422L15.2687 34.4426L15.7676 34.4093ZM15.9464 36.913L15.4475 36.9457L15.4475 36.9463L15.9464 36.913ZM16.4529 37.4147L16.4318 37.9142L16.4331 37.9143L16.4529 37.4147ZM18.4155 37.4925L18.4022 37.9925H18.4155V37.4925ZM18.6875 37.7021L18.2178 37.8737L18.2189 37.8765L18.6875 37.7021ZM20.4098 40.3672L20.8284 40.0939L20.7993 40.0492L20.7613 40.0117L20.4098 40.3672ZM20.4501 40.6411L20.9284 40.7871L20.9298 40.782L20.4501 40.6411ZM19.8004 42.6825L19.3242 42.5303L19.3236 42.5321L19.8004 42.6825ZM20.0811 43.3082L19.8744 43.7635L19.8752 43.7638L20.0811 43.3082ZM22.478 44.3808L22.2808 44.8402L22.2992 44.8481L22.3182 44.8545L22.478 44.3808ZM22.8442 44.3298L23.1274 44.7419L23.1557 44.7224L23.1812 44.6992L22.8442 44.3298ZM23.3728 43.7138L23.7892 43.9907L23.7908 43.9882L23.3728 43.7138ZM24.1475 42.4461L23.7425 42.1529L23.7333 42.1655L23.725 42.1786L24.1475 42.4461ZM24.3743 42.3269L24.4463 41.8321L24.4047 41.826L24.3626 41.827L24.3743 42.3269ZM27.3153 42.151L27.2096 41.6623L27.1971 41.665L27.1848 41.6683L27.3153 42.151ZM27.5738 42.2144L27.9433 41.8776L27.9201 41.8522L27.8937 41.8302L27.5738 42.2144ZM28.952 43.7695L28.5741 44.0968L28.5745 44.0973L28.952 43.7695ZM29.7834 43.9031L29.4995 43.4915L29.4992 43.4917L29.7834 43.9031ZM31.8575 42.4441L31.5676 42.0367L31.566 42.0379L31.8575 42.4441ZM32.0074 41.8137L32.4527 41.5863L32.4509 41.5828L32.0074 41.8137ZM31.0463 39.9991L30.5916 40.2071L30.5968 40.2184L30.6025 40.2294L31.0463 39.9991ZM31.0511 39.7684L30.6628 39.4534L30.6295 39.4945L30.6055 39.5417L31.0511 39.7684ZM32.4207 37.1071L32.9027 37.24L32.9076 37.2221L32.9112 37.204L32.4207 37.1071ZM32.6811 36.8755L32.72 37.374L32.7475 37.3719L32.7747 37.3667L32.6811 36.8755ZM34.6994 36.4747L34.8006 36.9644L34.8022 36.9641L34.6994 36.4747ZM28.5015 38.2528L28.8549 38.6065L28.8549 38.6065L28.5015 38.2528ZM25.4651 39.5093V39.0093L25.4649 40.0093L25.4651 39.5093ZM35.4435 33.2813C35.4253 33.0741 35.372 32.7979 35.1499 32.5947C34.9311 32.3945 34.6535 32.3623 34.4493 32.3573L34.4248 33.357C34.4568 33.3578 34.4809 33.3596 34.4989 33.3618C34.5169 33.364 34.526 33.3662 34.5286 33.3669C34.531 33.3676 34.5253 33.3662 34.5147 33.3607C34.5035 33.3549 34.4893 33.3457 34.4749 33.3325C34.4603 33.3192 34.4494 33.3054 34.4419 33.2935C34.4347 33.2822 34.4322 33.2751 34.4324 33.2757C34.4327 33.2765 34.4352 33.2838 34.4384 33.2999C34.4415 33.3161 34.4447 33.3386 34.4474 33.3691L35.4435 33.2813ZM34.4502 32.3573C33.8381 32.3412 33.2027 32.3169 32.5789 32.3053L32.5604 33.3052C33.1821 33.3167 33.7924 33.3404 34.4239 33.357L34.4502 32.3573ZM32.5696 32.3052C32.5405 32.3052 32.5315 32.3028 32.5349 32.3036C32.5404 32.3048 32.5605 32.3103 32.5854 32.3266C32.6113 32.3436 32.6283 32.363 32.6372 32.376C32.6445 32.3868 32.6415 32.3864 32.6342 32.3637L31.6823 32.6701C31.7403 32.8504 31.8443 33.0368 32.038 33.1635C32.223 33.2845 32.4216 33.3052 32.5696 33.3052V32.3052ZM32.6361 32.3696C32.5377 32.0504 32.3971 31.7458 32.2181 31.4637L31.3738 31.9996C31.5051 32.2065 31.6083 32.43 31.6805 32.6642L32.6361 32.3696ZM32.2132 31.4562C31.8731 30.941 31.5062 30.4486 31.1442 29.9701L30.3467 30.5734C30.7075 31.0503 31.0576 31.5209 31.3787 32.0072L32.2132 31.4562ZM31.0952 29.9145C31.1519 29.9699 31.1685 30.0546 31.137 30.1274L30.2194 29.7299C30.0862 30.0372 30.1564 30.3948 30.3957 30.6291L31.0952 29.9145ZM31.1432 30.1125C31.2764 29.7753 31.395 29.4352 31.5092 29.1051L30.5641 28.7781C30.4496 29.1093 30.3375 29.4304 30.2132 29.7449L31.1432 30.1125ZM31.5092 29.1052C31.6394 28.7291 31.7628 28.3473 31.8851 27.9783L30.936 27.6636C30.8103 28.0423 30.6916 28.4102 30.5642 28.778L31.5092 29.1052ZM31.9043 27.8997C31.9325 27.7229 31.9143 27.547 31.8407 27.3826C31.7702 27.2249 31.6628 27.1093 31.5624 27.0247C31.3854 26.8759 31.1277 26.7487 30.9699 26.6611L30.4845 27.5353C30.6038 27.6016 30.6745 27.6377 30.7625 27.688C30.8419 27.7334 30.8892 27.7653 30.9185 27.7899C30.9461 27.8131 30.9382 27.814 30.9279 27.7909C30.9146 27.7612 30.9174 27.7383 30.9168 27.7422L31.9043 27.8997ZM30.9566 26.654C30.3242 26.3273 29.6754 25.9796 29.0265 25.659L28.5835 26.5556C29.2225 26.8713 29.8462 27.2059 30.4978 27.5425L30.9566 26.654ZM29.0238 25.6577C28.8338 25.5653 28.5785 25.4835 28.3013 25.572C28.0372 25.6563 27.8742 25.8589 27.7698 26.0158L28.6023 26.5698C28.6176 26.5468 28.63 26.53 28.6399 26.5179C28.6497 26.5057 28.6555 26.5 28.6572 26.4985C28.6587 26.497 28.6551 26.5007 28.646 26.5063C28.6366 26.5121 28.6229 26.5191 28.6054 26.5246C28.5878 26.5302 28.5707 26.5331 28.5554 26.5339C28.5406 26.5347 28.5308 26.5334 28.5275 26.5328C28.5245 26.5323 28.5276 26.5326 28.538 26.5362C28.5484 26.5398 28.5642 26.5462 28.5862 26.5569L29.0238 25.6577ZM27.7693 26.0166C27.3982 26.5765 27.0296 27.1376 26.6636 27.7001L27.5018 28.2455C27.8662 27.6854 28.2332 27.1266 28.6028 26.569L27.7693 26.0166ZM26.629 27.7627C26.689 27.6332 26.8359 27.5684 26.972 27.6114L26.6706 28.5649C27.0142 28.6735 27.385 28.5099 27.5364 28.1829L26.629 27.7627ZM26.9189 27.5978C25.7795 27.371 24.6035 27.4061 23.4797 27.7006L23.7331 28.6679C24.7103 28.4119 25.7329 28.3813 26.7237 28.5785L26.9189 27.5978ZM23.5469 27.6878C23.6058 27.6807 23.6648 27.7003 23.7078 27.7413L23.0186 28.4658C23.1915 28.6303 23.4289 28.7091 23.6659 28.6807L23.5469 27.6878ZM23.7321 27.766C23.2484 27.2374 22.7716 26.6985 22.2977 26.1575L21.5454 26.8164C22.0212 27.3595 22.5035 27.9047 22.9944 28.4411L23.7321 27.766ZM22.2965 26.1562C22.159 26.0002 21.9502 25.804 21.6465 25.7715C21.3457 25.7393 21.0986 25.8837 20.9273 26.0062L21.5088 26.8197C21.5363 26.8001 21.5579 26.7862 21.5746 26.7766C21.5914 26.7669 21.6008 26.7629 21.6038 26.7616C21.6066 26.7605 21.6014 26.7629 21.5895 26.7648C21.5769 26.7669 21.5598 26.7679 21.5399 26.7658C21.5201 26.7637 21.503 26.7589 21.4902 26.7538C21.4779 26.749 21.4722 26.745 21.4735 26.7459C21.475 26.7469 21.4822 26.752 21.4953 26.7641C21.5083 26.7762 21.5252 26.7935 21.5466 26.8177L22.2965 26.1562ZM20.931 26.0036C20.2448 26.4847 19.5638 26.9636 18.8753 27.4367L19.4415 28.2609C20.135 27.7845 20.8207 27.3022 21.5051 26.8223L20.931 26.0036ZM18.8757 27.4364C18.6913 27.5628 18.4773 27.7494 18.3979 28.0377C18.3155 28.3366 18.4133 28.6087 18.5276 28.8174L19.4048 28.3373C19.3748 28.2825 19.3677 28.2559 19.3666 28.251C19.3663 28.2497 19.3676 28.255 19.3675 28.2654C19.3674 28.2763 19.3658 28.2895 19.3619 28.3034C19.3538 28.3331 19.3416 28.3444 19.349 28.336C19.3586 28.3251 19.3843 28.3002 19.4411 28.2613L18.8757 27.4364ZM18.5256 28.8138C18.8357 29.3916 19.1487 29.9694 19.4645 30.5472L20.342 30.0675C20.0274 29.492 19.7156 28.9164 19.4067 28.3409L18.5256 28.8138ZM19.4866 30.5837C19.417 30.4787 19.4317 30.3391 19.5217 30.2509L20.2214 30.9654C20.4741 30.7178 20.5155 30.3257 20.3199 30.0309L19.4866 30.5837ZM19.4662 30.3153C19.2174 30.6598 18.9009 31.065 18.6722 31.5065L19.5601 31.9665C19.7446 31.6103 19.9952 31.2908 20.2768 30.901L19.4662 30.3153ZM18.6656 31.5196C18.4302 32.0086 18.2212 32.5099 18.0395 33.0213L18.9818 33.3561C19.1515 32.8784 19.3467 32.4102 19.5666 31.9534L18.6656 31.5196ZM18.0227 33.0794C18.0422 32.9923 18.1142 32.9269 18.2026 32.9157L18.3284 33.9077C18.6579 33.8659 18.9259 33.6222 18.9985 33.2981L18.0227 33.0794ZM18.178 32.9194C17.4903 33.0416 16.8027 33.1792 16.1302 33.3146L16.3277 34.2949C17.0007 34.1594 17.6779 34.024 18.353 33.904L18.178 32.9194ZM16.1326 33.3142C16.0207 33.3361 15.899 33.3641 15.7877 33.4091C15.6707 33.4564 15.5379 33.5333 15.4334 33.669C15.329 33.8046 15.2884 33.9528 15.2724 34.0788C15.2571 34.1989 15.261 34.3253 15.2687 34.4422L16.2665 34.3764C16.2634 34.3281 16.2619 34.2905 16.2619 34.2607C16.2619 34.2306 16.2633 34.2134 16.2643 34.2052C16.2663 34.1898 16.2639 34.2296 16.2258 34.2791C16.1876 34.3287 16.1493 34.3416 16.1627 34.3361C16.17 34.3332 16.1857 34.3276 16.2142 34.3201C16.2426 34.3127 16.2786 34.3046 16.3253 34.2954L16.1326 33.3142ZM15.2687 34.4426C15.3272 35.3183 15.3907 36.0804 15.4475 36.9457L16.4453 36.8803C16.3925 36.0751 16.3196 35.1707 16.2665 34.376L15.2687 34.4426ZM15.4475 36.9463C15.4613 37.1538 15.506 37.4333 15.7177 37.646C15.9328 37.8621 16.2154 37.9051 16.4318 37.9142L16.474 36.9151C16.4418 36.9138 16.4179 36.9114 16.4004 36.9088C16.3829 36.9063 16.3745 36.9038 16.3727 36.9033C16.3711 36.9028 16.3774 36.9046 16.3883 36.9108C16.3996 36.9174 16.4132 36.9272 16.4264 36.9405C16.4396 36.9538 16.4489 36.9668 16.4547 36.977C16.4603 36.9867 16.4615 36.9915 16.4605 36.9883C16.4594 36.9849 16.4566 36.975 16.4535 36.9563C16.4504 36.9375 16.4475 36.9126 16.4453 36.8797L15.4475 36.9463ZM16.4331 37.9143C17.0782 37.9399 17.7449 37.975 18.4022 37.9924L18.4287 36.9927C17.779 36.9755 17.1366 36.9414 16.4727 36.9151L16.4331 37.9143ZM18.4155 37.9925C18.4209 37.9925 18.4041 37.9933 18.3748 37.9845C18.3422 37.9746 18.3049 37.9562 18.2705 37.9272C18.238 37.8998 18.2207 37.8735 18.2143 37.8625C18.2089 37.8533 18.2105 37.8536 18.2178 37.8737L19.1571 37.5304C19.1241 37.4402 19.0599 37.2848 18.9153 37.1628C18.7547 37.0274 18.5698 36.9925 18.4155 36.9925V37.9925ZM18.2189 37.8765C18.6177 38.9477 19.2454 39.919 20.0582 40.7227L20.7613 40.0117C20.0519 39.3102 19.5041 38.4625 19.156 37.5276L18.2189 37.8765ZM19.9911 40.6405C19.964 40.599 19.9564 40.5477 19.9704 40.5002L20.9298 40.782C20.9983 40.5489 20.9613 40.2974 20.8284 40.0939L19.9911 40.6405ZM19.9719 40.4952C19.7646 41.1744 19.5433 41.8447 19.3242 42.5303L20.2767 42.8347C20.4919 42.1613 20.7185 41.4745 20.9283 40.7871L19.9719 40.4952ZM19.3236 42.5321C19.2562 42.7458 19.2235 43.0073 19.3389 43.2645C19.4541 43.5212 19.6707 43.671 19.8744 43.7635L20.2877 42.8529C20.2672 42.8435 20.2525 42.8356 20.2424 42.8294C20.2324 42.8233 20.228 42.8196 20.2274 42.819C20.2269 42.8186 20.2303 42.8214 20.2353 42.828C20.2405 42.8348 20.2463 42.844 20.2513 42.8552C20.2563 42.8664 20.2594 42.8769 20.261 42.8855C20.2627 42.8939 20.2626 42.8986 20.2626 42.8983C20.2626 42.8978 20.2627 42.8924 20.2648 42.8813C20.2668 42.87 20.2706 42.8541 20.2773 42.8329L19.3236 42.5321ZM19.8752 43.7638C20.6681 44.1221 21.4716 44.4927 22.2808 44.8402L22.6753 43.9213C21.8776 43.5788 21.0895 43.2151 20.2869 42.8525L19.8752 43.7638ZM22.3182 44.8545C22.5906 44.9464 22.8904 44.9047 23.1274 44.7419L22.5611 43.9177C22.5836 43.9022 22.6121 43.8983 22.6379 43.907L22.3182 44.8545ZM23.1812 44.6992C23.412 44.4887 23.6161 44.2508 23.7892 43.9907L22.9565 43.4368C22.8287 43.629 22.6778 43.8049 22.5073 43.9604L23.1812 44.6992ZM23.7908 43.9882C23.9335 43.7708 24.0659 43.5502 24.1925 43.3372C24.3207 43.1216 24.442 42.9156 24.57 42.7135L23.725 42.1786C23.5877 42.3955 23.4577 42.6163 23.3329 42.8262C23.2065 43.0388 23.0842 43.2424 22.9549 43.4393L23.7908 43.9882ZM24.5525 42.7393C24.5137 42.7928 24.4521 42.8252 24.386 42.8268L24.3626 41.827C24.1163 41.8328 23.8869 41.9533 23.7425 42.1529L24.5525 42.7393ZM24.3023 42.8217C25.352 42.9744 26.4218 42.9104 27.4457 42.6337L27.1848 41.6683C26.2928 41.9094 25.3607 41.9651 24.4463 41.8321L24.3023 42.8217ZM27.421 42.6397C27.362 42.6525 27.3003 42.6374 27.2539 42.5987L27.8937 41.8302C27.7036 41.6719 27.4513 41.61 27.2096 41.6623L27.421 42.6397ZM27.2043 42.5513C27.6677 43.0595 28.1223 43.5752 28.5741 44.0968L29.33 43.4422C28.8745 42.9162 28.4141 42.3939 27.9433 41.8776L27.2043 42.5513ZM28.5745 44.0973C28.7219 44.2672 28.9404 44.5006 29.2567 44.5559C29.5929 44.6147 29.8734 44.4486 30.0676 44.3145L29.4992 43.4917C29.4209 43.5458 29.3805 43.5651 29.3648 43.571C29.3561 43.5743 29.3837 43.5629 29.429 43.5708C29.4708 43.5782 29.485 43.5947 29.4638 43.5783C29.4393 43.5594 29.3979 43.5204 29.3296 43.4417L28.5745 44.0973ZM30.0673 44.3147C30.7656 43.833 31.4595 43.3449 32.1489 42.8504L31.566 42.0379C30.8816 42.5288 30.1928 43.0133 29.4995 43.4915L30.0673 44.3147ZM32.1473 42.8516C32.3205 42.7283 32.4983 42.5476 32.5618 42.2818C32.6249 42.0176 32.5494 41.7757 32.4527 41.5863L31.5621 42.041C31.5717 42.0599 31.5777 42.0741 31.5814 42.084C31.585 42.0939 31.5859 42.0985 31.5859 42.0984C31.5858 42.0981 31.5848 42.0929 31.5849 42.0836C31.5849 42.0742 31.5861 42.0625 31.5892 42.0495C31.5923 42.0366 31.5966 42.0253 31.6012 42.0162C31.6056 42.0074 31.6093 42.0024 31.6101 42.0014C31.6109 42.0005 31.6087 42.0033 31.6018 42.0097C31.5948 42.0161 31.5839 42.0252 31.5676 42.0367L32.1473 42.8516ZM32.4509 41.5828C32.2913 41.2762 32.1285 40.9719 31.9674 40.6706C31.8059 40.3685 31.6461 40.0694 31.4901 39.7688L30.6025 40.2294C30.7617 40.5363 30.9244 40.8406 31.0855 41.1421C31.2472 41.4444 31.4073 41.7437 31.5639 42.0445L32.4509 41.5828ZM31.501 39.7911C31.5307 39.8562 31.5292 39.9314 31.4967 39.9952L30.6055 39.5417C30.4996 39.7497 30.4945 39.9948 30.5916 40.2071L31.501 39.7911ZM31.4394 40.0835C32.1182 39.2468 32.6164 38.2787 32.9027 37.24L31.9386 36.9743C31.689 37.8799 31.2546 38.724 30.6628 39.4534L31.4394 40.0835ZM32.9112 37.204C32.8928 37.2971 32.8146 37.3666 32.72 37.374L32.6422 36.377C32.2897 36.4045 31.9986 36.6634 31.9301 37.0103L32.9112 37.204ZM32.7747 37.3667C33.45 37.2381 34.1253 37.1039 34.8006 36.9644L34.5982 35.9851C33.928 36.1236 33.2578 36.2567 32.5876 36.3843L32.7747 37.3667ZM34.8022 36.9641C34.9928 36.924 35.3091 36.8555 35.5043 36.5962C35.7006 36.3353 35.678 36.0113 35.6609 35.8088L34.6645 35.8931C34.6686 35.9415 34.6706 35.9792 34.6711 36.0091C34.6715 36.0393 34.6703 36.0566 34.6693 36.065C34.6676 36.0803 34.6694 36.0425 34.7053 35.9948C34.741 35.9473 34.7766 35.9351 34.7619 35.9414C34.754 35.9447 34.7377 35.9508 34.7088 35.9588C34.6801 35.9668 34.6437 35.9755 34.5967 35.9854L34.8022 36.9641ZM35.6611 35.8118C35.5946 34.9658 35.5174 34.121 35.4436 33.2814L34.4474 33.369C34.5216 34.2132 34.5982 35.0503 34.6642 35.8902L35.6611 35.8118ZM21.6728 35.2161C21.6728 33.1211 23.3711 31.4229 25.4661 31.4229V30.4229C22.8188 30.4229 20.6728 32.5689 20.6728 35.2161H21.6728ZM25.4661 31.4229C27.561 31.4229 29.2593 33.1211 29.2593 35.2161H30.2593C30.2593 32.5689 28.1133 30.4229 25.4661 30.4229V31.4229ZM29.2593 35.2161C29.2593 36.2232 28.8595 37.188 28.148 37.8992L28.8549 38.6065C29.7542 37.7076 30.2593 36.4884 30.2593 35.2161H29.2593ZM28.148 37.8992C27.4364 38.6105 26.4714 39.0098 25.4653 39.0093L25.4649 40.0093C26.7363 40.0099 27.9557 39.5053 28.8549 38.6065L28.148 37.8992ZM25.4651 40.0093H25.4661V39.0093H25.4651V40.0093ZM25.4661 39.0093C23.3711 39.0093 21.6728 37.3111 21.6728 35.2161H20.6728C20.6728 37.8633 22.8188 40.0093 25.4661 40.0093L25.4661 39.0093Z" fill="white"/>
<path d="M26.6591 9.57955C26.6591 11.2803 25.2803 12.6591 23.5795 12.6591C21.8788 12.6591 20.5 11.2803 20.5 9.57955C20.5 7.87876 21.8788 6.5 23.5795 6.5C25.2803 6.5 26.6591 7.87876 26.6591 9.57955Z" stroke="white"/>
</svg>
