<svg width="50" height="50" viewBox="0 0 50 50" fill="none" xmlns="http://www.w3.org/2000/svg">
<path fill-rule="evenodd" clip-rule="evenodd" d="M10.3523 43.1348C6.5207 40.573 3.53472 36.9327 1.77192 32.6741C0.00911605 28.4154 -0.451363 23.7297 0.448717 19.2094C1.3488 14.689 3.56901 10.5371 6.82863 7.27849C10.0883 4.0199 14.2409 1.80101 18.7615 0.902357C23.2821 0.00370869 27.9677 0.465665 32.2258 2.22982C36.4839 3.99397 40.1233 6.98109 42.6838 10.8135C45.2443 14.6459 46.6109 19.1515 46.6109 23.7606C46.6038 29.9406 44.1451 35.8654 39.7744 40.2347C35.4037 44.604 29.4782 47.0608 23.2981 47.066C18.689 47.0646 14.1839 45.6965 10.3523 43.1348ZM11.0529 5.43431C7.42829 7.85618 4.60327 11.2985 2.93506 15.3259C1.26684 19.3533 0.830368 23.785 1.68082 28.0605C2.53127 32.336 4.63044 36.2633 7.7129 39.3457C10.7954 42.4282 14.7227 44.5274 18.9981 45.3778C23.2736 46.2283 27.7053 45.7918 31.7327 44.1236C35.7602 42.4554 39.2025 39.6303 41.6243 36.0058C44.0462 32.3812 45.3389 28.1198 45.3389 23.7606C45.3324 17.917 43.0081 12.3146 38.8761 8.18255C34.7441 4.05051 29.1417 1.72628 23.2981 1.71976V1.71976C18.9388 1.71976 14.6775 3.01243 11.0529 5.43431Z" fill="white"/>
<path d="M14.7624 36.6985C12.8913 32.6944 11.9419 28.3217 11.9841 23.9022C12.0264 19.4827 13.0592 15.1289 15.0066 11.1614C16.954 7.19382 19.7663 3.71349 23.2366 0.976562L24.019 1.96075C20.6975 4.58071 18.0057 7.91213 16.1418 11.7098C14.2779 15.5075 13.2892 19.6748 13.2486 23.9051C13.208 28.1354 14.1165 32.3209 15.9072 36.1537C17.6979 39.9865 20.3252 43.3689 23.5959 46.0522L22.7962 47.0388C19.3789 44.236 16.6336 40.7026 14.7624 36.6985Z" fill="white"/>
<path d="M23.212 46.0551C26.4825 43.3717 29.1096 39.9891 30.9001 36.1562C32.6906 32.3233 33.5988 28.1377 33.558 23.9074C33.5171 19.6772 32.5283 15.5099 30.6641 11.7123C28.8 7.91472 26.108 4.58346 22.7863 1.96368L23.5712 0.979492C27.0413 3.7165 29.8534 7.19677 31.8008 11.1642C33.7481 15.1316 34.781 19.4852 34.8235 23.9046C34.866 28.3239 33.917 32.6965 32.0463 36.7007C30.1756 40.7048 27.4309 44.2385 24.0141 47.0417V47.0393L23.212 46.0551Z" fill="white"/>
<path fill-rule="evenodd" clip-rule="evenodd" d="M23.9305 1.08984V46.4312H22.6658V1.08984H23.9305Z" fill="white"/>
<path fill-rule="evenodd" clip-rule="evenodd" d="M45.9589 23.1284V24.3931H0.637299V23.1284H45.9589Z" fill="white"/>
<path d="M6.11362 9.98047L6.98155 8.89062C7.03908 8.95101 12.782 14.8489 23.3399 14.8489C33.9478 14.8489 39.9359 9.26445 39.9959 9.20694L40.8163 10.3572C40.5587 10.5901 34.4055 16.3269 23.3399 16.3269C12.2542 16.3269 6.35874 10.2393 6.11362 9.98047Z" fill="white"/>
<path d="M6.35294 38.8585C6.59898 38.637 12.3934 33.4258 23.2981 33.4258C34.2029 33.4258 40.2359 38.3467 40.4893 38.546L39.6823 39.5302C39.6257 39.481 33.7009 34.7003 23.2981 34.7003C17.8851 34.7003 13.7884 36.0855 11.3181 37.2493C8.63624 38.4992 7.22147 39.7787 7.20671 39.791L6.35294 38.8585Z" fill="white"/>
<circle cx="37.7778" cy="37.7271" r="11.7222" fill="white" stroke="white"/>
<path fill-rule="evenodd" clip-rule="evenodd" d="M33.4065 30.3386L33.3802 31.8506ZM33.1608 44.4726L33.2534 39.1477ZM33.2534 39.1477C33.2534 39.1477 34.5685 38.4856 35.4787 38.402C37.8563 38.1837 38.2813 41.6041 40.6667 41.6198C41.4893 41.6252 42.745 41.2549 42.745 41.2549L42.9623 33.8556C42.9623 33.8556 41.9156 34.3513 41.1965 34.457C38.6783 34.827 38.1667 30.8132 35.6368 31.0823C34.7136 31.1805 33.3802 31.8506 33.3802 31.8506M33.2534 39.1477L33.3802 31.8506Z" fill="white"/>
<path d="M33.9064 30.3472C33.9112 30.0711 33.6913 29.8434 33.4152 29.8386C33.1391 29.8338 32.9114 30.0538 32.9066 30.3299L33.9064 30.3472ZM32.8803 31.8419C32.8755 32.118 33.0955 32.3457 33.3716 32.3505C33.6477 32.3553 33.8754 32.1354 33.8802 31.8593L32.8803 31.8419ZM32.6609 44.4639C32.6561 44.74 32.8761 44.9678 33.1522 44.9726C33.4283 44.9774 33.656 44.7574 33.6608 44.4813L32.6609 44.4639ZM33.7533 39.1564C33.7581 38.8803 33.5382 38.6526 33.2621 38.6478C32.986 38.643 32.7583 38.8629 32.7535 39.139L33.7533 39.1564ZM33.0286 38.7011C32.7819 38.8253 32.6826 39.1259 32.8068 39.3725C32.931 39.6192 33.2316 39.7185 33.4783 39.5943L33.0286 38.7011ZM35.4787 38.402L35.5244 38.8999L35.5244 38.8999L35.4787 38.402ZM40.6667 41.6198L40.6634 42.1198L40.6634 42.1198L40.6667 41.6198ZM42.745 41.2549L42.8864 41.7344L43.2341 41.6319L43.2447 41.2695L42.745 41.2549ZM42.9623 33.8556L43.462 33.8703L43.486 33.0544L42.7483 33.4038L42.9623 33.8556ZM41.1965 34.457L41.2692 34.9517L41.2692 34.9517L41.1965 34.457ZM35.6368 31.0823L35.6897 31.5795L35.6368 31.0823ZM33.1557 31.4038C32.909 31.5278 32.8095 31.8284 32.9335 32.0751C33.0575 32.3218 33.358 32.4213 33.6048 32.2973L33.1557 31.4038ZM32.7535 39.139C32.7487 39.4151 32.9686 39.6428 33.2447 39.6476C33.5208 39.6524 33.7485 39.4325 33.7533 39.1564L32.7535 39.139ZM33.8802 31.8593C33.885 31.5832 33.665 31.3554 33.3889 31.3506C33.1128 31.3459 32.8851 31.5658 32.8803 31.8419L33.8802 31.8593ZM32.9066 30.3299L32.8803 31.8419L33.8802 31.8593L33.9064 30.3472L32.9066 30.3299ZM33.6608 44.4813L33.7533 39.1564L32.7535 39.139L32.6609 44.4639L33.6608 44.4813ZM33.2534 39.1477C33.4783 39.5943 33.4782 39.5943 33.4782 39.5943C33.4782 39.5943 33.4781 39.5944 33.4781 39.5944C33.4781 39.5944 33.4781 39.5944 33.4781 39.5944C33.4781 39.5944 33.4782 39.5943 33.4784 39.5942C33.4788 39.594 33.4794 39.5937 33.4804 39.5932C33.4824 39.5922 33.4856 39.5906 33.4899 39.5885C33.4986 39.5842 33.512 39.5776 33.5295 39.5691C33.5647 39.5521 33.6168 39.5273 33.6824 39.497C33.8139 39.4364 33.9983 39.3548 34.2095 39.2708C34.6448 39.0977 35.145 38.9348 35.5244 38.8999L35.4329 37.9041C34.9021 37.9529 34.2897 38.1628 33.84 38.3416C33.6086 38.4336 33.4074 38.5227 33.2638 38.5889C33.1919 38.622 33.1341 38.6495 33.0938 38.669C33.0737 38.6788 33.0579 38.6866 33.0469 38.692C33.0414 38.6947 33.0371 38.6969 33.034 38.6984C33.0324 38.6992 33.0312 38.6998 33.0303 38.7002C33.0299 38.7005 33.0295 38.7006 33.0292 38.7008C33.029 38.7009 33.0289 38.7009 33.0288 38.701C33.0288 38.701 33.0287 38.701 33.0287 38.7011C33.0286 38.7011 33.0286 38.7011 33.2534 39.1477ZM35.5244 38.8999C36.4196 38.8177 36.9595 39.3845 37.6879 40.246C38.3547 41.0345 39.2025 42.1102 40.6634 42.1198L40.67 41.1198C39.7454 41.1137 39.188 40.4713 38.4515 39.6003C37.7767 38.8022 36.9153 37.768 35.4329 37.9041L35.5244 38.8999ZM40.6634 42.1198C41.1337 42.1228 41.699 42.0209 42.122 41.9276C42.3387 41.8798 42.5284 41.8319 42.6641 41.7959C42.732 41.7779 42.7867 41.7628 42.8249 41.7521C42.8439 41.7467 42.8588 41.7424 42.8692 41.7394C42.8744 41.7379 42.8785 41.7367 42.8814 41.7359C42.8828 41.7355 42.884 41.7351 42.8848 41.7349C42.8852 41.7348 42.8856 41.7347 42.8858 41.7346C42.886 41.7346 42.8861 41.7345 42.8862 41.7345C42.8862 41.7345 42.8863 41.7345 42.8863 41.7345C42.8863 41.7344 42.8864 41.7344 42.745 41.2549C42.6035 40.7753 42.6036 40.7753 42.6036 40.7753C42.6036 40.7752 42.6036 40.7752 42.6036 40.7752C42.6037 40.7752 42.6037 40.7752 42.6036 40.7752C42.6036 40.7752 42.6035 40.7753 42.6033 40.7753C42.6029 40.7754 42.6023 40.7756 42.6013 40.7759C42.5994 40.7765 42.5963 40.7774 42.5921 40.7786C42.5837 40.781 42.5708 40.7847 42.5539 40.7894C42.5202 40.799 42.4703 40.8127 42.4077 40.8293C42.2823 40.8626 42.1066 40.907 41.9066 40.9511C41.4961 41.0416 41.0222 41.1221 40.67 41.1198L40.6634 42.1198ZM43.2447 41.2695L43.462 33.8703L42.4625 33.841L42.2452 41.2402L43.2447 41.2695ZM42.9623 33.8556C42.7483 33.4038 42.7483 33.4037 42.7483 33.4037C42.7483 33.4037 42.7484 33.4037 42.7484 33.4037C42.7484 33.4037 42.7484 33.4037 42.7484 33.4037C42.7484 33.4037 42.7483 33.4037 42.7482 33.4038C42.7479 33.4039 42.7473 33.4042 42.7466 33.4046C42.745 33.4053 42.7425 33.4065 42.739 33.4081C42.7321 33.4113 42.7215 33.4162 42.7076 33.4226C42.6796 33.4354 42.6382 33.4542 42.5861 33.4771C42.4816 33.5231 42.335 33.5855 42.1673 33.6509C41.8218 33.7857 41.4243 33.9181 41.1238 33.9623L41.2692 34.9517C41.6878 34.8902 42.1732 34.722 42.5307 34.5825C42.7146 34.5108 42.8746 34.4427 42.9889 34.3924C43.0461 34.3672 43.0921 34.3464 43.1242 34.3317C43.1403 34.3243 43.1528 34.3185 43.1616 34.3144C43.166 34.3124 43.1695 34.3107 43.1719 34.3096C43.1731 34.309 43.1741 34.3085 43.1749 34.3082C43.1752 34.308 43.1755 34.3079 43.1758 34.3078C43.1759 34.3077 43.176 34.3077 43.1761 34.3076C43.1761 34.3076 43.1762 34.3076 43.1762 34.3076C43.1762 34.3076 43.1763 34.3075 42.9623 33.8556ZM41.1238 33.9623C40.6479 34.0322 40.2725 33.9025 39.9146 33.6431C39.5345 33.3676 39.1957 32.9626 38.8074 32.4901C38.0921 31.6196 37.1612 30.4173 35.584 30.5851L35.6897 31.5795C36.6423 31.4782 37.2321 32.1482 38.0347 33.1249C38.4054 33.576 38.8247 34.0882 39.3278 34.4528C39.8531 34.8335 40.486 35.0668 41.2692 34.9517L41.1238 33.9623ZM35.584 30.5851C35.0499 30.6419 34.4321 30.8565 33.9764 31.0391C33.7423 31.1329 33.5387 31.2233 33.3935 31.2904C33.3207 31.3239 33.2623 31.3518 33.2216 31.3715C33.2012 31.3814 33.1852 31.3892 33.1741 31.3947C33.1686 31.3974 33.1642 31.3996 33.1611 31.4011C33.1596 31.4019 33.1584 31.4025 33.1575 31.4029C33.157 31.4032 33.1566 31.4034 33.1564 31.4035C33.1562 31.4036 33.1561 31.4036 33.156 31.4037C33.1559 31.4037 33.1559 31.4037 33.1558 31.4038C33.1558 31.4038 33.1557 31.4038 33.3802 31.8506C33.6048 32.2973 33.6047 32.2974 33.6047 32.2974C33.6047 32.2974 33.6046 32.2974 33.6046 32.2974C33.6046 32.2974 33.6046 32.2974 33.6046 32.2974C33.6047 32.2974 33.6048 32.2973 33.605 32.2972C33.6053 32.297 33.606 32.2967 33.6071 32.2962C33.6091 32.2952 33.6123 32.2936 33.6168 32.2914C33.6256 32.287 33.6392 32.2803 33.6571 32.2717C33.6929 32.2543 33.7459 32.2291 33.8125 32.1983C33.9462 32.1366 34.1336 32.0534 34.3483 31.9674C34.7901 31.7904 35.3006 31.6209 35.6897 31.5795L35.584 30.5851ZM33.7533 39.1564L33.8802 31.8593L32.8803 31.8419L32.7535 39.139L33.7533 39.1564Z" fill="#FA5A28"/>
</svg>
