<svg width="50" height="52" viewBox="0 0 50 52" fill="none" xmlns="http://www.w3.org/2000/svg">
<path d="M23.8356 19.3076C23.8931 19.5964 24.0081 19.8853 24.0656 20.1163C24.468 21.5027 24.698 22.9469 24.813 24.4488C24.8704 25.0264 24.8704 25.6618 24.8704 26.2395C24.8704 26.8171 24.8704 27.4526 24.813 28.0302C24.698 29.5321 24.468 30.9763 24.0656 32.3627C24.0081 32.6515 23.8931 32.9403 23.8356 33.1714H35.8511C39.6455 33.1714 42.6925 30.052 42.6925 26.2395C42.6925 22.427 39.6455 19.3076 35.8511 19.3076H23.8356Z" fill="white"/>
<path d="M20.6391 26.2395C20.6391 25.6618 20.6391 25.0264 20.5816 24.4488C20.4666 22.9469 20.2367 21.5027 19.8342 20.1163C19.7768 19.8275 19.6618 19.5387 19.6043 19.3076H1.03483C0.344941 21.5027 0 23.8133 0 26.2395C0 28.6656 0.344941 30.9763 1.03483 33.1714H19.6043C19.6618 32.8825 19.7768 32.5937 19.8342 32.3627C20.2367 30.9763 20.4666 29.5321 20.5816 28.0302C20.6391 27.4526 20.6391 26.8171 20.6391 26.2395Z" fill="white"/>
<path d="M23.2716 36.248C22.7632 37.4294 22.1912 38.5452 21.5556 39.5953C20.6023 41.2362 19.4583 42.6801 18.1872 44.0584C17.7423 44.5178 17.2974 44.9116 16.8525 45.3711C15.9627 46.2243 14.9459 46.9463 13.929 47.6682C17.933 50.4248 22.7632 52 27.9112 52C36.7454 52 44.4991 47.3401 49.0751 40.3173C46.7236 37.8232 43.4187 36.248 39.796 36.248H23.2716Z" fill="white"/>
<path d="M18.7419 36.4636H1.89719C3.6794 40.565 6.61142 44.0887 10.3483 46.5148C11.2682 45.8794 12.1305 45.244 12.9929 44.493C13.3953 44.1464 13.7977 43.7421 14.2002 43.3377C15.2925 42.1824 16.3273 40.8538 17.1897 39.4097C17.7646 38.4854 18.282 37.5034 18.7419 36.4636Z" fill="white"/>
<path d="M12.9354 7.98566C12.1305 7.23471 11.2107 6.59929 10.2908 5.96387C6.61141 8.39002 3.6794 11.9137 1.8397 16.0151H18.6844C18.2245 14.9753 17.7071 13.9933 17.1322 13.069C16.3273 11.6249 15.2925 10.2963 14.1427 9.14098C13.7402 8.73662 13.3378 8.39002 12.9354 7.98566Z" fill="white"/>
<path d="M13.929 4.3318C14.9726 5.05376 15.951 5.77573 16.9295 6.62896C17.3861 7.02276 17.8426 7.48219 18.2992 7.94163C19.6038 9.31993 20.7779 10.7639 21.7563 12.4047C22.4086 13.4548 22.9957 14.5706 23.5175 15.752H40.4767C44.1947 15.752 47.5866 14.1768 50 11.6827C45.3036 4.65997 37.3458 0 28.2791 0C22.9956 0 18.0383 1.5752 13.929 4.3318Z" fill="white"/>
</svg>
