<?xml version="1.0" encoding="UTF-8"?>
<svg width="50px" height="50px" viewBox="0 0 50 50" version="1.1" xmlns="http://www.w3.org/2000/svg" xmlns:xlink="http://www.w3.org/1999/xlink">
    <!-- Generator: Sketch 55.2 (78181) - https://sketchapp.com -->
    <title>Group 193</title>
    <desc>Created with Sketch.</desc>
    <defs>
        <circle id="path-1" cx="37.7777796" cy="37.272027" r="12.2222223"></circle>
        <mask id="mask-2" maskContentUnits="userSpaceOnUse" maskUnits="objectBoundingBox" x="0" y="0" width="24.4444447" height="24.4444447" fill="white">
            <use xlink:href="#path-1"></use>
        </mask>
    </defs>
    <g id="Page-1" stroke="none" stroke-width="1" fill="none" fill-rule="evenodd">
        <g id="page" transform="translate(-139.000000, -4737.000000)">
            <g id="The-API-that-powers-Webiny-Serverless-CMS" transform="translate(-56.000000, 3482.000000)">
                <g id="Group-144" transform="translate(195.000000, 961.000000)">
                    <g id="Group-139" transform="translate(0.000000, 294.455078)">
                        <g id="Group-193">
                            <path d="M10.3522894,42.6796752 C6.52069654,40.1179504 3.53472351,36.4776238 1.77191978,32.2189785 C0.00911606057,27.9603333 -0.451362586,23.2746129 0.448717345,18.7542816 C1.34879728,14.2339503 3.56901092,10.0820028 6.82863237,6.82341334 C10.0882538,3.56482387 14.2409038,1.34592736 18.76152,0.447278955 C23.2821362,-0.451369449 27.9677172,0.0105865973 32.225804,1.77473884 C36.4838907,3.53889108 40.1232636,6.5260153 42.6837749,10.3584194 C45.2442863,14.1908234 46.6109428,18.6964057 46.6109428,23.3054771 C46.6037763,29.4855495 44.1450656,35.4103436 39.7743996,39.7796256 C35.4037335,44.1489077 29.4781703,46.6057334 23.298096,46.6109428 C18.6890251,46.609483 14.1838823,45.2413999 10.3522894,42.6796752 Z M11.0528834,4.97922936 C7.42829411,7.40110244 4.60327387,10.8434046 2.93505872,14.8708323 C1.26684357,18.89826 0.830367703,23.3299287 1.68081643,27.6054231 C2.53126516,31.8809175 4.63043762,35.8082081 7.71289729,38.8906678 C10.795357,41.9731274 14.7226556,44.0723076 18.9981499,44.9227564 C23.2736443,45.7732051 27.7053084,45.3367292 31.7327361,43.6685141 C35.7601638,42.0002989 39.2024659,39.1752714 41.624339,35.5506821 C44.0462121,31.9260928 45.3388899,27.6647336 45.3388899,23.3054771 C45.3323774,17.461895 43.0081401,11.8595142 38.8761008,7.72747501 C34.7440616,3.59543577 29.1416781,1.27119863 23.298096,1.26468622 L23.298096,1.26468622 C18.9388395,1.26468622 14.6774728,2.55735628 11.0528834,4.97922936 Z" id="Vector" fill="#FFFFFF"></path>
                            <path d="M14.7624114,36.2434125 C12.8912511,32.239347 11.9418519,27.8666224 11.9841087,23.4471203 C12.0263656,19.0276182 13.0591996,14.6738536 15.0065801,10.7062987 C16.9539605,6.73874392 19.7663159,3.25840932 23.2366218,0.521484375 L24.0190458,1.50566784 C20.6975177,4.12563244 18.0057418,7.45704793 16.1418089,11.2547472 C14.2778761,15.0524465 13.2892258,19.2197716 13.2486228,23.4500337 C13.2080199,27.6802957 14.1164974,31.8658248 15.9071913,35.698602 C17.6978853,39.5313792 20.3252272,42.9138524 23.5958542,45.59709 L22.7962052,46.5837288 C19.3788669,43.7809481 16.6335716,40.247478 14.7624114,36.2434125 Z" id="Vector" fill="#FFFFFF" fill-rule="nonzero"></path>
                            <path d="M23.2119855,45.6000122 C26.4824675,42.9165923 29.1096105,39.5339755 30.9000934,35.7010962 C32.6905764,31.8682169 33.5988257,27.6826332 33.5579867,23.4523702 C33.5171476,19.2221071 32.528257,15.0548388 30.6641092,11.2572414 C28.7999615,7.45964395 26.107995,4.12837676 22.7863159,1.50859753 L23.5712029,0.524414062 C27.0412602,3.26142066 29.8534402,6.7416952 31.8007649,10.7091158 C33.7480896,14.6765364 34.7810006,19.0301246 34.8234921,23.4494793 C34.8659836,27.868834 33.9169645,32.2414686 32.0462852,36.2455988 C30.1756059,40.2497291 27.4308712,43.783436 24.0140825,46.5866585 L24.0140825,46.5841956 L23.2119855,45.6000122 Z" id="Vector" fill="#FFFFFF" fill-rule="nonzero"></path>
                            <path d="M23.9304508,0.634765625 L23.9304508,45.9760895 L22.6657715,45.9760895 L22.6657715,0.634765625 L23.9304508,0.634765625 Z" id="Vector" fill="#FFFFFF"></path>
                            <path d="M45.9589462,22.6733398 L45.9589462,23.9380192 L0.637298584,23.9380192 L0.637298584,22.6733398 L45.9589462,22.6733398 Z" id="Vector" fill="#FFFFFF"></path>
                            <path d="M6.11361694,9.52539545 L6.98155183,8.43554688 C7.03908115,8.49593437 12.7820135,14.3937757 23.3398926,14.3937757 C33.9477973,14.3937757 39.935855,8.80937159 39.9958856,8.75185969 L40.8162956,9.90209769 C40.5586644,10.1350209 34.405531,15.8718357 23.3398926,15.8718357 C12.2542445,15.8718357 6.35874184,9.78419899 6.11361694,9.52539545 Z" id="Vector" fill="#FFFFFF" fill-rule="nonzero"></path>
                            <path d="M6.35293579,38.4033925 C6.59898164,38.1819512 12.3933602,32.9707031 23.298112,32.9707031 C34.2028639,32.9707031 40.2359069,37.8916198 40.4893341,38.0909169 L39.6823115,39.0751004 C39.625721,39.0258912 33.7009301,34.2452189 23.298112,34.2452189 C17.8851034,34.2452189 13.7884395,35.630461 11.3181392,36.7942579 C8.63623954,38.0441709 7.22147042,39.3236061 7.20670767,39.3359084 L6.35293579,38.4033925 Z" id="Vector" fill="#FFFFFF" fill-rule="nonzero"></path>
                            <use id="Ellipse-52" stroke="#FFFFFF" mask="url(#mask-2)" stroke-width="2" fill="#FFFFFF" stroke-dasharray="0,0" xlink:href="#path-1"></use>
                            <path d="M30.9880432,31.4895339 L31.4414205,32.9322175" id="Vector-11" stroke="#533CBF" stroke-linecap="round" stroke-dasharray="0,0" transform="translate(37.144104, 38.135423) rotate(18.441644) translate(-37.144104, -38.135423) "></path>
                            <path d="M35.2261353,44.9754891 L33.6294588,39.8947338" id="Vector-11" stroke="#533CBF" stroke-linecap="round" stroke-dasharray="0,0" transform="translate(37.144104, 38.135423) rotate(18.441644) translate(-37.144104, -38.135423) "></path>
                            <path d="M33.6294588,39.8947338 C33.6294588,39.8947338 34.6675477,38.8506192 35.5045501,38.4834133 C37.6909963,37.5241854 39.1761758,40.6344903 41.4440659,39.8947338 C41.9654122,39.7246774 42.5841117,39.3901422 43.3001646,38.8911282 L41.1656511,31.8031607 C40.6082466,32.3373712 40.113287,32.7137234 39.6807721,32.9322175 C37.4090139,34.0798444 35.653883,30.4339649 33.3391016,31.4895339 C32.7759136,31.7463546 32.1433532,32.2272491 31.4414205,32.9322175" id="Vector-11" stroke="#533CBF" stroke-linecap="round" stroke-dasharray="0,0" transform="translate(37.144104, 38.135423) rotate(18.441644) translate(-37.144104, -38.135423) "></path>
                            <path d="M33.6294588,39.8947338 L31.4414205,32.9322175" id="Vector-11" stroke="#533CBF" stroke-linecap="round" stroke-dasharray="0,0" transform="translate(37.144104, 38.135423) rotate(18.441644) translate(-37.144104, -38.135423) "></path>
                        </g>
                    </g>
                </g>
            </g>
        </g>
    </g>
</svg>