<svg width="881" height="406" viewBox="0 0 881 406" fill="none" xmlns="http://www.w3.org/2000/svg">
<path opacity="0.04" fill-rule="evenodd" clip-rule="evenodd" d="M440.037 384.38C683.063 384.38 880.074 389.19 880.074 395.121C880.074 401.053 683.063 405.861 440.037 405.861C197.012 405.861 0 401.053 0 395.121C0 389.19 197.012 384.38 440.037 384.38Z" fill="black"/>
<path fill-rule="evenodd" clip-rule="evenodd" d="M440.037 377.469H122.233V21.0614C122.233 10.3497 131.962 1.66504 143.962 1.66504H440.037H736.112C748.112 1.66504 757.841 10.3497 757.841 21.0614V377.469H440.037Z" fill="#D4D7DB" stroke="white" stroke-width="2"/>
<path fill-rule="evenodd" clip-rule="evenodd" d="M798.586 395.121H440.037H81.4894C59.9 395.121 42.2444 388.007 40.8448 379.011H440.037H839.229C837.829 388.007 820.174 395.121 798.586 395.121Z" fill="#C1C3C8" stroke="white" stroke-width="2"/>
<path fill-rule="evenodd" clip-rule="evenodd" d="M496.188 379.011C494.091 383.75 489.319 387.066 483.752 387.066H440.292H440.037H396.576C391.01 387.066 386.237 383.75 384.141 379.011H496.188Z" fill="#979AA1" stroke="white" stroke-width="2"/>
<path fill-rule="evenodd" clip-rule="evenodd" d="M435.03 14.33C435.03 11.2031 437.593 8.66821 440.754 8.66821C443.915 8.66821 446.478 11.2031 446.478 14.33C446.478 17.4569 443.915 19.9918 440.754 19.9918C437.593 19.9918 435.03 17.4569 435.03 14.33Z" fill="#A5ADBD" stroke="white" stroke-width="2"/>
</svg>
