<svg width="20" height="11" viewBox="0 0 20 11" fill="none" xmlns="http://www.w3.org/2000/svg">
<path fill-rule="evenodd" clip-rule="evenodd" d="M13.2278 10.7803C13.5206 11.0732 13.9955 11.0732 14.2883 10.7803L18.95 6.11852C19.0965 5.97226 19.1697 5.78006 19.1697 5.58828C19.1697 5.39649 19.0965 5.20432 18.95 5.05786L14.2883 0.39608C13.9963 0.104315 13.5231 0.103145 13.23 0.394124C12.9365 0.68512 12.9337 1.15315 13.2233 1.44725L16.5534 4.82836L0.749874 4.82834C0.335628 4.82834 -6.51267e-05 5.17339 -6.51267e-05 5.58744C-6.51267e-05 6.00165 0.335628 6.34654 0.749874 6.34654L16.6092 6.34655L13.2278 9.72397C12.9349 10.0169 12.9349 10.4873 13.2278 10.7803Z" fill="#7B39D9"/>
</svg>
