<?xml version="1.0" encoding="UTF-8"?>
<svg width="446px" height="478px" viewBox="0 0 446 478" version="1.1" xmlns="http://www.w3.org/2000/svg" xmlns:xlink="http://www.w3.org/1999/xlink">
    <!-- Generator: Sketch 50.2 (55047) - http://www.bohemiancoding.com/sketch -->
    <title>super hero flying</title>
    <desc>Created with Sketch.</desc>
    <defs>
        <linearGradient x1="-0.00561666416%" y1="50.0078229%" x2="100.001509%" y2="50.0078229%" id="linearGradient-1">
            <stop stop-color="#082338" offset="0%"></stop>
            <stop stop-color="#09283F" offset="100%"></stop>
        </linearGradient>
        <linearGradient x1="121.175789%" y1="56.2892723%" x2="-104.210218%" y2="39.6300374%" id="linearGradient-2">
            <stop stop-color="#00A887" offset="0%"></stop>
            <stop stop-color="#256351" offset="100%"></stop>
        </linearGradient>
        <linearGradient x1="120.275344%" y1="92.3497354%" x2="-36.1576971%" y2="-34.2479643%" id="linearGradient-3">
            <stop stop-color="#00A887" offset="0%"></stop>
            <stop stop-color="#256351" offset="100%"></stop>
        </linearGradient>
        <linearGradient x1="51.4458712%" y1="79.8686537%" x2="40.5157115%" y2="-54.7739328%" id="linearGradient-4">
            <stop stop-color="#00A887" offset="0%"></stop>
            <stop stop-color="#256351" offset="100%"></stop>
        </linearGradient>
        <linearGradient x1="140.843469%" y1="49.2899851%" x2="-149.755598%" y2="51.7083066%" id="linearGradient-5">
            <stop stop-color="#00A887" offset="0%"></stop>
            <stop stop-color="#256351" offset="100%"></stop>
        </linearGradient>
        <linearGradient x1="130.349183%" y1="131.731104%" x2="-97.6040119%" y2="-68.2236128%" id="linearGradient-6">
            <stop stop-color="#F9AA8F" offset="0%"></stop>
            <stop stop-color="#F78E6B" offset="100%"></stop>
        </linearGradient>
        <linearGradient x1="55.7800224%" y1="58.6858269%" x2="-7.92776247%" y2="-38.0924789%" id="linearGradient-7">
            <stop stop-color="#00A887" offset="0%"></stop>
            <stop stop-color="#03A282" offset="21%"></stop>
            <stop stop-color="#0C9175" offset="50%"></stop>
            <stop stop-color="#1B7660" offset="82%"></stop>
            <stop stop-color="#256351" offset="100%"></stop>
        </linearGradient>
        <linearGradient x1="50%" y1="187.986429%" x2="50%" y2="-259.339497%" id="linearGradient-8">
            <stop stop-color="#FFFFFF" offset="0%"></stop>
            <stop stop-color="#CDDFEC" offset="84%"></stop>
        </linearGradient>
        <linearGradient x1="50.0067304%" y1="187.658617%" x2="50.0067304%" y2="-258.622611%" id="linearGradient-9">
            <stop stop-color="#FFFFFF" offset="0%"></stop>
            <stop stop-color="#CDDFEC" offset="84%"></stop>
        </linearGradient>
        <linearGradient x1="49.9932696%" y1="187.811057%" x2="49.9932696%" y2="-258.832697%" id="linearGradient-10">
            <stop stop-color="#FFFFFF" offset="0%"></stop>
            <stop stop-color="#CDDFEC" offset="84%"></stop>
        </linearGradient>
        <linearGradient x1="50%" y1="187.699026%" x2="50%" y2="-258.937986%" id="linearGradient-11">
            <stop stop-color="#FFFFFF" offset="0%"></stop>
            <stop stop-color="#CDDFEC" offset="84%"></stop>
        </linearGradient>
    </defs>
    <g id="Agency" stroke="none" stroke-width="1" fill="none" fill-rule="evenodd">
        <g id="Agency-Landing-Page" transform="translate(-861.000000, -131.000000)" fill-rule="nonzero">
            <g id="Hero" transform="translate(63.000000, 39.000000)">
                <g id="super-hero-flying" transform="translate(798.000000, 92.000000)">
                    <path d="M343.19,154.33 L343.26,154.18 L343.19,154.33 Z" id="Shape" fill="#161A49"></path>
                    <path d="M365.45,240.21 C306.04,232.14 341.91,157.35 343.18,154.34 L295.04,197.34 C274.19,166.57 283.88,184.05 292.74,153.1 C296.47,140.1 282.29,129.2 270.63,136.1 L257.63,143.79 C257.63,143.79 156.07,191.63 159.3,259.17 C162.17,319.73 109.46,320.75 64.6,348.81 C56.8014847,353.704221 51.5820024,361.811706 50.3551642,370.936678 C49.128326,380.061649 52.0210905,389.259814 58.25,396.04 C80.61,420.18 167.77,447.69 218.91,443.65 C224.316775,443.282583 229.675183,442.391748 234.91,440.99 C308.16,427.85 365.91,369.99 377.09,296.23 C380.74,272.14 382.47,242.52 365.45,240.21 Z" id="Shape" fill="#161A49"></path>
                    <path d="M190.23,290 C190.23,290 196.45,299.77 199.84,302 C199.84,302 194.18,305.11 199.84,307.66 C205.5,310.21 223.59,300.5 200.69,284.09" id="Shape" fill="#F9AA8F"></path>
                    <path d="M99,352.13 C169.7,346.85 185.2,324.03 180.56,276.34 C175.92,228.65 230.76,228.78 229.65,280.12 C228.65,327.47 175.11,404.71 156.34,437.81 C163.71,439.4 171.08,440.73 178.28,441.75 C178.28,441.75 218.34,418.68 246.05,379.1 C273.76,339.52 288.65,356.75 281.49,379.8 C274.33,402.85 318.76,358.71 318.76,358.71 C318.76,358.71 332.34,333.78 337.83,289.14 C343.32,244.5 380,250.42 378.08,289 C380.9,266.57 380.79,242.28 365.45,240.19 C306.04,232.12 341.91,157.33 343.18,154.32 L295.04,197.32 C274.19,166.55 283.88,184.03 292.74,153.08 C296.47,140.08 282.29,129.18 270.63,136.08 L257.63,143.77 C257.63,143.77 156.07,191.61 159.3,259.15 C162.17,319.71 109.46,320.73 64.6,348.79 C56.8014847,353.684221 51.5820024,361.791706 50.3551642,370.916678 C49.128326,380.041649 52.0210905,389.239814 58.25,396.02 C58.25,396.02 28.29,357.41 99,352.13 Z" id="Shape" fill="url(#linearGradient-1)"></path>
                    <path d="M366.09,29.73 L365.45,12.73 C365.45,12.73 374,5 376.14,1.3 C378.28,-2.4 378.88,5.73 376.49,8.99 C374.1,12.25 373.34,17.62 374.75,19.87 C376.16,22.12 377.95,12.11 379.58,15.53 C381.21,18.95 376.77,30.94 376.77,30.94 L366.09,29.73 Z" id="_Path_" fill="#F9AA8F"></path>
                    <path d="M366.42,29 C366.42,29 358.53,66 340.69,92.16 C336.42,98.42 322.09,109.76 314.47,118.5 C298.28,137.09 285.8,138.13 261.94,140.5 C261.94,140.5 231.31,147.66 216.6,174.92 C200.12,205.42 154.4,258.02 193.22,294.29 L204,286.48 C204,286.48 180.29,244.05 248.21,206.58 C252.12,204.42 251.21,216.67 248.91,229.98 C248.736667,230.973333 248.54,231.973333 248.32,232.98 C248.1,233.986667 247.856667,234.966667 247.59,235.92 C247.323333,236.893333 247.033333,237.86 246.72,238.82 C246.406667,239.78 246.073333,240.73 245.72,241.67 C245.36,242.61 244.976667,243.543333 244.57,244.47 C242.91,248.24 240.18,251.47 238.17,255.1 C235.936141,259.327982 234.153006,263.779116 232.85,268.38 C231.4,273.18 230.56,278.15 229.43,283.03 C229.216667,283.956667 228.996667,284.883333 228.77,285.81 C226.77,294.21 224.59,302.6 222.04,310.81 C219.873817,318.343768 217.128987,325.698974 213.83,332.81 C212.663333,335.19 211.46,337.6 210.22,340.04 C196.04,366.29 208.22,343.78 209.59,341.28 C194.14,371.53 173.13,404.36 144.82,443.02 L151.82,451.66 C151.82,451.66 234.21,380.66 278.82,301.99 C280.1,304.3 281.24,306.63 282.26,308.92 C282.72,309.92 283.15,311.14 283.56,312.16 C299.35,351.97 278.83,393.91 261.18,417.67 C250.59,433.51 240.96,441.51 240.96,441.51 L243.96,446.23 C243.96,446.23 311.26,402.83 323.18,344.8 C329.47,314.19 324.56,282.09 318.27,257.87 C313.346281,238.921055 314.992558,218.86256 322.94,200.97 L351,137.7 C353.31,132.49 355.83,127.37 358.43,122.3 C374.21,91.62 373.3,71.3 377.21,30.83 L366.42,29 Z" id="Shape" fill="#00A887"></path>
                    <path d="M304.1,367 C306.74,356.44 325.5,306.25 307.87,293.1 C293.12,282.1 281.74,296.78 278.42,301.87 C279.68,304.16 280.82,306.47 281.83,308.74 C282.29,309.74 282.72,310.96 283.13,311.98 C298.92,351.79 278.4,393.73 260.77,417.49 C258.01,421.61 255.33,425.19 252.86,428.25 L268.75,426.43 C283.36,413.43 301.08,394.82 312.59,372.67 C308.25,380.1 301.62,376.94 304.1,367 Z" id="Shape" fill="url(#linearGradient-2)"></path>
                    <path d="M286.18,159.09 C286.18,159.09 301.8,166.64 304.78,158.78 C307.76,150.92 309.38,136.78 309.38,136.78 C309.38,136.78 326.43,112.78 340.21,92.22 C335.81,98.52 321.67,109.73 314.12,118.39 C298,136.91 285.49,138 261.72,140.31 L260.31,142 L286.18,159.09 Z" id="Shape" fill="url(#linearGradient-3)"></path>
                    <path d="M224.54,191.33 C256.38,180.17 238.89,160.04 252.83,157.4 C266.77,154.76 285.03,160.16 285.03,160.16 L270.92,145.7 L258.24,141.29 C249.9,144.01 228,152.95 216.24,174.73 C209.52,187.17 197.93,203.28 189.24,220.47 C190.69,217.62 200.8,199.64 224.54,191.33 Z" id="Shape" fill="url(#linearGradient-4)"></path>
                    <path d="M157.82,445.79 C166.74,437.69 184.03,421.47 203.76,400.25 C190,415.43 188.43,398.18 195.51,386.25 C203.81,372.25 242.26,316.87 234.35,293.87 C230.397603,282.249769 231.147721,269.54443 236.44,258.47 C234.688888,262.010369 233.301774,265.719391 232.3,269.54 C228.3,285.02 223.2,311.35 213.43,332.64 C212.263333,335.02 211.06,337.43 209.82,339.87 C195.64,366.12 207.82,343.61 209.19,341.11 C194.48,369.9 174.74,401.03 148.47,437.29 L157.82,445.79 Z" id="Shape" fill="url(#linearGradient-5)"></path>
                    <path d="M302,120.36 C301.207231,119.937976 300.711873,119.113102 300.711873,118.215 C300.711873,117.316898 301.207231,116.492024 302,116.07 C306.07,113.87 309.37,111.66 310.78,109.7 C312.19,107.74 310.17,104.62 307.78,101.12 C306.95,99.86 305.78,97.97 304.83,96.38 C303.9347,94.9061538 304.113627,93.019291 305.27,91.74 C306.34,90.56 306.93,88.99 305.27,87.31 C299,80.68 281.08,74 274.72,75.85 C246.72,83.94 257.63,95.46 257.63,95.46 L267.55,115.46 C272.017972,124.398901 268.919374,135.270031 260.41,140.51 L260.08,140.71 C260.08,140.71 286.62,143.3 293.36,141.17 C302.5,138.32 314.12,118.35 314.12,118.35 C314.12,118.35 308.55,123.74 302,120.36 Z" id="Shape" fill="#F9AA8F"></path>
                    <path d="M297.42,136.08 C296.98,133.5 288.23,136.34 287.72,129.53 C287.21,122.72 301.25,116.67 301.25,116.67 C301.445117,116.425459 301.686345,116.221604 301.96,116.07 C304.097593,114.954564 306.146885,113.677518 308.09,112.25 L310.75,109.7 C310.75,109.7 302.59,112.92 295.21,105.7 C287.83,98.48 282.4,88.36 288.42,86.7 C294.44,85.04 305.42,97.39 305.42,97.39 L304.84,96.39 C303.9447,94.9161538 304.123627,93.029291 305.28,91.75 C305.544894,91.4625209 305.773288,91.1434414 305.96,90.8 L306,90 C306,90 304.61,92.7 302.17,89.69 C299.73,86.68 292.98,83.91 289.62,81.06 C286.26,78.21 290.86,78.83 290.86,78.83 L290.3,78.49 C284.14,76.14 277.92,74.87 274.68,75.81 C265.07,78.59 260.05,81.81 257.59,84.76 L256.91,94.52 C257.113245,94.8369987 257.340583,95.1378869 257.59,95.42 L267.51,115.42 C271.977972,124.358901 268.879374,135.230031 260.37,140.47 L260.04,140.67 C260.04,140.67 276.04,142.23 286.35,141.93 C289.55,141.66 291.81,141.45 292.35,141.38 L292.68,141.31 L292.94,141.24 C295.06,140.67 297.82,138.43 297.42,136.08 Z" id="Shape" fill="url(#linearGradient-6)"></path>
                    <path d="M260.89,417.35 C260.89,417.35 263.53,422.94 274.77,420.92 L245,448.12 C245,448.12 250.26,460.05 244.43,462.04 C238.6,464.03 237.24,457.11 233.95,449.04 C228.94,436.67 237.51,447.55 260.89,417.35 Z" id="_Path_2" fill="#A0253A"></path>
                    <path d="M157.1,425.47 C157.1,425.47 161.42,436.84 167.48,436.64 L141.61,463.06 C141.61,463.06 148.14,474.33 142.61,476.96 C137.08,479.59 132.79,474.23 128.61,466.57 C122.22,454.84 136.6,454.22 157.1,425.47 Z" id="_Path_3" fill="#A0253A"></path>
                    <path d="M193.66,188.3 C193.66,188.3 251.56,128.88 282.02,159.8 C282.814776,160.602696 284.057877,160.751868 285.02,160.16 C285.593688,159.804832 285.993876,159.227126 286.124743,158.565207 C286.255609,157.903288 286.10537,157.216758 285.71,156.67 C282,151.52 271.52,138.99 257.62,139.44 C238.49,140.06 193.66,188.3 193.66,188.3 Z" id="_Path_4" fill="#A0253A"></path>
                    <path d="M322.35,110 C322.35,110 309.41,127.53 310.64,146.74 C310.715669,147.707595 310.127664,148.603994 309.21,148.92 L309.01,148.99 C308.387253,149.200634 307.701802,149.107486 307.157848,148.738304 C306.613894,148.369122 306.274214,147.766514 306.24,147.11 C305.84,139.38 305.35,117.85 311.9,115.3 C315.5447,113.871341 319.044041,112.096555 322.35,110 Z" id="_Path_5" fill="#A0253A"></path>
                    <path d="M267.53,197.26 C267.899277,196.157171 267.958089,194.974014 267.7,193.84 C267.491459,192.504714 266.415834,191.473714 265.072915,191.321906 C263.729996,191.170097 262.45136,191.934964 261.95,193.19 C258.5,201.7 250.56,205.37 248.4,206.19 C251.65,205.51 250.71,217.19 248.54,229.8 C248.366667,230.793333 248.17,231.793333 247.95,232.8 C247.73,233.806667 247.486667,234.786667 247.22,235.74 C246.953333,236.713333 246.663333,237.68 246.35,238.64 C246.036667,239.6 245.703333,240.55 245.35,241.49 C244.99,242.43 244.606667,243.363333 244.2,244.29 C243.793333,245.216667 243.356667,246.12 242.89,247 C242.436667,247.906667 241.963333,248.8 241.47,249.68 C240.93,250.68 240.37,251.58 239.78,252.52 L239.66,252.72 C240.33,251.87 240.94,250.97 241.57,250.09 C242.2,249.21 242.77,248.41 243.35,247.57 C243.93,246.73 244.45,245.98 244.99,245.18 C245.53,244.38 245.99,243.68 246.5,242.92 C247.01,242.16 247.42,241.5 247.88,240.79 C248.34,240.08 248.72,239.45 249.14,238.79 C249.56,238.13 249.91,237.53 250.29,236.9 L251.29,235.12 C252.865341,232.53558 254.294258,229.864706 255.57,227.12 C256.76,224.41 257.98,221.55 260.31,219.6 C263.6,216.85 268.31,217.26 272.31,217 C276.54,216.72 280.77,216.49 285,216.21 C293.15,215.66 301.67,215.3 309.57,213.07 C314.99,211.54 316.39,220.45 316.39,220.45 C317.605789,213.698652 319.619924,207.115788 322.39,200.84 L337.67,166.43 C322.35,209.6 265.93,201.25 267.53,197.26 Z" id="Shape" fill="url(#linearGradient-7)"></path>
                    <path d="M298,80.34 C299.87,80.02 302.15,79.2 303.33,77.18 C303.580623,76.7460766 303.50944,76.1980432 303.15628,75.8425444 C302.80312,75.4870455 302.255568,75.4122465 301.82,75.66 C300.15,76.61 297.57,76.78 294.11,73.31 C287.64,66.84 280.27,54.99 258.34,83.86 C257.52,84.94 256.59,85.96 255.67,86.96 C253.47,89.34 249.82,96.46 255.55,100.13 C262.25,104.43 268.42,117.59 269.45,122.24 C269.503959,122.496484 269.696679,122.701336 269.949396,122.770834 C270.202113,122.840331 270.472481,122.762828 270.65,122.57 C273.13,119.95 278.7,113.14 274.51,108.78 C269.23,103.29 268.51,96.69 273.94,96.12 C276.400339,95.9151292 278.742837,97.2086298 279.88,99.4 C280.229173,99.9818862 280.829407,100.367981 281.503699,100.444426 C282.17799,100.520872 282.849425,100.27895 283.32,99.79 L283.38,99.73 C284.187707,98.8930975 284.187707,97.5669025 283.38,96.73 C280.8,93.94 276.13,87.52 281.66,82.12 C286.51,77.38 291.25,78.58 293.56,79.64 C294.933828,80.3211484 296.483243,80.5654256 298,80.34 Z" id="Shape" fill="#161A49"></path>
                    <path d="M282.7,182.07 C288.87,184.72 304.07,188.85 315.91,172.35 C316.603976,171.385596 317.729105,170.825713 318.916916,170.853708 C320.104727,170.881704 321.202229,171.493972 321.85,172.49 C322.588442,173.629174 322.623242,175.086887 321.94,176.26 L303.57,207.8 C303.016393,208.751207 302.058087,209.396921 300.968608,209.552839 C299.879129,209.708757 298.77818,209.357749 297.98,208.6 L277.88,189.6 C276.652492,188.437973 276.39873,186.578437 277.27,185.13 L278.21,183.55 C279.124743,182.001733 281.043896,181.369139 282.7,182.07 Z" id="Shape" fill="#20C4A4"></path>
                    <path d="M135.58,225.78 C135.58,222.21 128.85,218.99 118.11,216.78 C110.105225,214.980603 103.152386,210.054925 98.8,203.1 C94.8616494,197.031685 88.1263354,193.361298 80.8920668,193.34113 C73.6577982,193.320962 66.9021242,196.953738 62.93,203 C62.65,203.426667 62.36,203.846667 62.06,204.26 C56.7792071,211.380215 48.6016991,215.778695 39.75,216.26 C17,217.72 0.3,222.46 0.3,228.09 C0.3,231.66 7.02,234.88 17.77,237.09 C25.7680548,238.879709 32.7198033,243.790214 37.08,250.73 C41.0183506,256.798315 47.7536646,260.468702 54.9879332,260.48887 C62.2222018,260.509038 68.9778758,256.876262 72.95,250.83 L73.07,250.65 C78.3342556,242.965482 86.8693611,238.162176 96.17,237.65 C118.95,236.15 135.58,231.4 135.58,225.78 Z" id="Shape" fill="url(#linearGradient-8)"></path>
                    <path d="M169.63,146.41 C169.63,144.41 165.94,142.68 160.03,141.41 C155.639196,140.426842 151.823088,137.730366 149.43,133.92 C147.267486,130.585986 143.567459,128.569625 139.593542,128.559539 C135.619625,128.549452 131.90941,130.547006 129.73,133.87 C129.576667,134.103333 129.416667,134.333333 129.25,134.56 C126.352364,138.473422 121.862069,140.892684 117,141.16 C104.49,141.98 95.34,144.59 95.34,147.67 C95.34,149.67 99.03,151.4 104.94,152.67 C109.330804,153.653158 113.146912,156.349634 115.54,160.16 C117.702514,163.494014 121.402541,165.510375 125.376458,165.520461 C129.350375,165.530548 133.06059,163.532994 135.24,160.21 L135.31,160.11 C138.192555,155.872692 142.883305,153.218667 148,152.93 C160.5,152.1 169.63,149.5 169.63,146.41 Z" id="Shape" fill="url(#linearGradient-9)"></path>
                    <path d="M370.86,181.66 C370.86,179.66 374.55,177.93 380.46,176.66 C384.850804,175.676842 388.666912,172.980366 391.06,169.17 C393.222514,165.835986 396.922541,163.819625 400.896458,163.809539 C404.870375,163.799452 408.58059,165.797006 410.76,169.12 C410.913333,169.353333 411.073333,169.583333 411.24,169.81 C414.143662,173.712111 418.63304,176.119883 423.49,176.38 C436,177.2 445.15,179.81 445.15,182.89 C445.15,184.89 441.46,186.62 435.55,187.89 C431.159196,188.873158 427.343088,191.569634 424.95,195.38 C422.787486,198.714014 419.087459,200.730375 415.113542,200.740461 C411.139625,200.750548 407.42941,198.752994 405.25,195.43 L405.18,195.33 C402.297399,191.099185 397.611305,188.449398 392.5,188.16 C380,187.35 370.86,184.75 370.86,181.66 Z" id="Shape" fill="url(#linearGradient-10)"></path>
                    <path d="M342.57,417.57 C342.57,414.86 347.67,412.42 355.82,410.71 C361.883481,409.353232 367.153892,405.630824 370.46,400.37 C373.444865,395.766766 378.552092,392.981752 384.03834,392.965616 C389.524589,392.94948 394.648109,395.704404 397.66,400.29 C397.873333,400.616667 398.093333,400.95 398.32,401.29 C402.330903,406.67868 408.531975,410.002777 415.24,410.36 C432.52,411.49 445.15,415.09 445.15,419.36 C445.15,422.07 440.05,424.51 431.9,426.22 C425.836519,427.576768 420.566108,431.299176 417.26,436.56 C414.275135,441.163234 409.167908,443.948248 403.68166,443.964384 C398.195411,443.98052 393.071891,441.225596 390.06,436.64 L389.97,436.5 C385.986346,430.656084 379.511376,426.997282 372.45,426.6 C355.18,425.43 342.57,421.83 342.57,417.57 Z" id="Shape" fill="url(#linearGradient-11)"></path>
                </g>
            </g>
        </g>
    </g>
</svg>