<svg width="54" height="54" viewBox="0 0 54 54" fill="none" xmlns="http://www.w3.org/2000/svg">
<path fill-rule="evenodd" clip-rule="evenodd" d="M7.71863 40.6274L7.42323 40.2481L27.2995 2.26768L27.595 2.64697L7.71863 40.6274Z" fill="#E535AB"/>
<rect x="5.34656" y="36.5479" width="43.0261" height="2.22902" fill="#E535AB"/>
<path fill-rule="evenodd" clip-rule="evenodd" d="M27.7184 50.1997L6.69917 37.1017L7.31262 35.8493L28.3318 48.9473L27.7184 50.1997Z" fill="#E535AB"/>
<path fill-rule="evenodd" clip-rule="evenodd" d="M46.4116 17.8353L25.3924 4.73736L26.0059 3.48491L47.0251 16.5829L46.4116 17.8353Z" fill="#E535AB"/>
<path fill-rule="evenodd" clip-rule="evenodd" d="M7.31702 17.8235L6.70357 16.571L27.7228 3.47308L28.3362 4.72553L7.31702 17.8235Z" fill="#E535AB"/>
<path fill-rule="evenodd" clip-rule="evenodd" d="M46.0143 40.6216L26.138 2.64111L26.4334 2.26182L46.3097 40.2423L46.0143 40.6216Z" fill="#E535AB"/>
<rect x="7.05164" y="14.4351" width="2.22989" height="24.8415" fill="#E535AB"/>
<rect x="44.4492" y="14.4318" width="2.22988" height="24.8415" fill="#E535AB"/>
<path fill-rule="evenodd" clip-rule="evenodd" d="M27.3361 49.2615L26.7991 48.1655L45.0794 36.7732L45.6163 37.8692L27.3361 49.2615Z" fill="#E535AB"/>
<path fill-rule="evenodd" clip-rule="evenodd" d="M49.6356 40.0015C48.346 42.244 45.4713 43.0094 43.228 41.7203C40.9847 40.4312 40.219 37.5577 41.5086 35.3152C42.7981 33.0728 45.6728 32.3074 47.9161 33.5964C50.1729 34.899 50.9386 37.7591 49.6356 40.0015Z" fill="#E535AB"/>
<path fill-rule="evenodd" clip-rule="evenodd" d="M12.2127 18.3951C10.9231 20.6375 8.04846 21.4029 5.80514 20.1138C3.56182 18.8248 2.79613 15.9512 4.08571 13.7088C5.37528 11.4663 8.24995 10.7009 10.4933 11.99C12.7366 13.2925 13.5023 16.1526 12.2127 18.3951Z" fill="#E535AB"/>
<path fill-rule="evenodd" clip-rule="evenodd" d="M4.09449 40.002C2.80492 37.7596 3.57061 34.8994 5.81393 33.5969C8.05724 32.3079 10.9185 33.0733 12.2215 35.3157C13.5111 37.5581 12.7454 40.4183 10.5021 41.7208C8.24531 43.0098 5.38407 42.2445 4.09449 40.002Z" fill="#E535AB"/>
<path fill-rule="evenodd" clip-rule="evenodd" d="M41.52 18.3942C40.2305 16.1518 40.9961 13.2916 43.2395 11.9891C45.4828 10.7001 48.344 11.4655 49.647 13.7079C50.9366 15.9504 50.1709 18.8105 47.9276 20.113C45.6843 21.402 42.8096 20.6367 41.52 18.3942Z" fill="#E535AB"/>
<path fill-rule="evenodd" clip-rule="evenodd" d="M26.8655 53.1476C24.2729 53.1476 22.1774 51.0529 22.1774 48.4613C22.1774 45.8698 24.2729 43.775 26.8655 43.775C29.4581 43.775 31.5536 45.8698 31.5536 48.4613C31.5536 51.0395 29.4581 53.1476 26.8655 53.1476Z" fill="#E535AB"/>
<path fill-rule="evenodd" clip-rule="evenodd" d="M26.8661 9.93622C24.2735 9.93622 22.178 7.84148 22.178 5.24991C22.178 2.65834 24.2735 0.563599 26.8661 0.563599C29.4587 0.563599 31.5542 2.65834 31.5542 5.24991C31.5542 7.84148 29.4587 9.93622 26.8661 9.93622Z" fill="#E535AB"/>
</svg>
