<svg width="70" height="49" viewBox="0 0 70 49" fill="none" xmlns="http://www.w3.org/2000/svg">
<path fill-rule="evenodd" clip-rule="evenodd" d="M55.1535 24.3787C55.1535 21.7199 51.8226 19.2002 46.7157 17.6376C47.8942 12.4346 47.3704 8.29504 45.0625 6.96973C44.5305 6.65885 43.9086 6.5116 43.2293 6.5116V8.33594C43.6057 8.33594 43.9085 8.40957 44.1623 8.54865C45.2753 9.18676 45.7582 11.6165 45.3817 14.7416C45.2917 15.5106 45.1444 16.3205 44.9643 17.1468C43.3602 16.7541 41.6088 16.4514 39.7674 16.2551C38.6625 14.7416 37.5168 13.3672 36.3628 12.1646C39.0308 9.68579 41.5352 8.32776 43.2375 8.32776V6.50342C40.9868 6.50342 38.0406 8.10688 35.0615 10.8884C32.0825 8.12324 29.1363 6.53614 26.8856 6.53614V8.36049C28.5797 8.36049 31.0923 9.71034 33.7603 12.1728C32.6145 13.3754 31.4687 14.7416 30.3802 16.2551C28.5306 16.4514 26.7792 16.7541 25.1752 17.155C24.9869 16.3369 24.8478 15.5433 24.7496 14.7825C24.3649 11.6574 24.8396 9.22766 25.9445 8.58137C26.19 8.43411 26.5092 8.36867 26.8856 8.36867V6.54432C26.1982 6.54432 25.5762 6.69158 25.036 7.00245C22.7363 8.32776 22.2207 12.4591 23.4074 17.6458C18.3169 19.2166 15.0023 21.7281 15.0023 24.3787C15.0023 27.0375 18.3332 29.5572 23.4401 31.1198C22.2616 36.3228 22.7854 40.4624 25.0933 41.7877C25.6253 42.0986 26.2473 42.2458 26.9347 42.2458C29.1854 42.2458 32.1316 40.6424 35.1107 37.8609C38.0897 40.626 41.0359 42.2131 43.2866 42.2131C43.974 42.2131 44.596 42.0658 45.1362 41.755C47.4359 40.4297 47.9515 36.2983 46.7648 31.1116C51.8389 29.5491 55.1535 27.0293 55.1535 24.3787ZM44.4965 18.9233C44.1937 19.9786 43.8172 21.0667 43.3917 22.1548C43.0561 21.5003 42.7042 20.8458 42.3196 20.1913C41.9431 19.5369 41.5421 18.8988 41.141 18.277C42.3032 18.4488 43.4244 18.6615 44.4965 18.9233ZM40.7484 27.635C40.1101 28.7395 39.4553 29.7866 38.7761 30.7602C37.5566 30.8665 36.3208 30.9238 35.0768 30.9238C33.841 30.9238 32.6053 30.8665 31.394 30.7683C30.7147 29.7948 30.0518 28.7558 29.4135 27.6596C28.7915 26.5879 28.2268 25.4998 27.7112 24.4036C28.2186 23.3074 28.7915 22.2111 29.4053 21.1394C30.0436 20.035 30.6984 18.9878 31.3776 18.0143C32.5971 17.9079 33.8329 17.8507 35.0769 17.8507C36.3127 17.8507 37.5485 17.9079 38.7597 18.0061C39.439 18.9796 40.1019 20.0186 40.7402 21.1149C41.3622 22.1866 41.9269 23.2746 42.4425 24.3709C41.9269 25.4671 41.3622 26.5634 40.7484 27.635ZM43.3927 26.5712C43.8347 27.6675 44.2112 28.7637 44.5222 29.8272C43.45 30.089 42.3206 30.3099 41.1503 30.4817C41.5513 29.8518 41.9523 29.2055 42.3288 28.5428C42.7053 27.8884 43.0572 27.2257 43.3927 26.5712ZM35.0939 35.301C34.3328 34.5156 33.5716 33.6402 32.8187 32.6831C33.5553 32.7158 34.3082 32.7403 35.0693 32.7403C35.8386 32.7403 36.5998 32.724 37.3445 32.6831C36.6079 33.6402 35.8468 34.5156 35.0939 35.301ZM29.0046 30.4852C27.8424 30.3134 26.7212 30.1007 25.6491 29.8389C25.9519 28.7836 26.3284 27.6955 26.754 26.6075C27.0895 27.2619 27.4414 27.9164 27.8261 28.5709C28.2107 29.2253 28.6036 29.8635 29.0046 30.4852ZM35.0552 13.4596C35.8163 14.245 36.5774 15.1203 37.3304 16.0775C36.5938 16.0448 35.8409 16.0202 35.0798 16.0202C34.3105 16.0202 33.5493 16.0366 32.8046 16.0775C33.5411 15.1203 34.3023 14.245 35.0552 13.4596ZM28.9961 18.2765C28.5951 18.9064 28.194 19.5527 27.8176 20.2154C27.4411 20.8699 27.0892 21.5243 26.7536 22.1788C26.3117 21.0826 25.9352 19.9863 25.6242 18.9228C26.6964 18.6692 27.8258 18.4483 28.9961 18.2765ZM21.5894 28.5192C18.6922 27.2839 16.8181 25.6641 16.8181 24.3797C16.8181 23.0953 18.6922 21.4673 21.5894 20.2402C22.2932 19.9375 23.0625 19.6675 23.8564 19.4139C24.3229 21.0173 24.9367 22.6862 25.6978 24.3961C24.9449 26.0977 24.3393 27.7584 23.881 29.3537C23.0707 29.1001 22.3014 28.8219 21.5894 28.5192ZM25.9912 40.2095C24.8781 39.5714 24.3953 37.1416 24.7717 34.0165C24.8618 33.2475 25.0091 32.4376 25.1891 31.6113C26.7932 32.004 28.5446 32.3067 30.386 32.5031C31.4909 34.0165 32.6367 35.3909 33.7906 36.5935C31.1226 39.0723 28.6183 40.4304 26.916 40.4304C26.5477 40.4222 26.2367 40.3486 25.9912 40.2095ZM45.4039 33.9767C45.7885 37.1018 45.3139 39.5316 44.209 40.1779C43.9635 40.3251 43.6443 40.3906 43.2678 40.3906C41.5737 40.3906 39.0612 39.0407 36.3932 36.5782C37.539 35.3757 38.6847 34.0094 39.7732 32.496C41.6228 32.2996 43.3742 31.9969 44.9783 31.5961C45.1666 32.4223 45.3139 33.2159 45.4039 33.9767ZM48.5573 28.5203C47.8535 28.823 47.0842 29.093 46.2903 29.3466C45.8238 27.7432 45.21 26.0743 44.4489 24.3644C45.2019 22.6628 45.8075 21.0021 46.2658 19.4068C47.076 19.6604 47.8453 19.9386 48.5655 20.2413C51.4627 21.4766 53.3368 23.0964 53.3368 24.3808C53.3287 25.6652 51.4545 27.2932 48.5573 28.5203Z" fill="#61DAFB"/>
<path fill-rule="evenodd" clip-rule="evenodd" d="M31.3254 24.3789C31.3254 22.3141 33 20.6403 35.0656 20.6403C37.1312 20.6403 38.8057 22.3141 38.8057 24.3789C38.8057 26.4438 37.1312 28.1176 35.0656 28.1176C33 28.1176 31.3254 26.4438 31.3254 24.3789Z" fill="#61DAFB"/>
</svg>
