<svg width="1440" height="1202" viewBox="0 0 1440 1202" fill="none" xmlns="http://www.w3.org/2000/svg">
<rect x="-179" width="1693" height="1144" fill="url(#paint0_linear)"/>
<path fill-rule="evenodd" clip-rule="evenodd" d="M-46.0908 851.131C-46.0908 851.131 -2.19825 823.377 33.5103 833.714C69.2189 844.051 94.5723 885.928 94.5723 885.928C94.5723 885.928 129.085 883.273 150.324 898.318C171.563 913.363 180.413 936.372 180.413 936.372C180.413 936.372 190.687 918.133 219.351 922.213C248.015 926.292 254.749 954.957 254.749 954.957C254.749 954.957 265.473 939.811 292.245 937.843C319.016 935.874 325.71 944.142 325.71 944.142C325.71 944.142 336.339 892.959 389.883 878.786C443.426 864.612 484.765 913.039 484.765 913.039C484.765 913.039 531.872 821.24 626.891 816.185C721.909 811.13 789.883 890.203 789.883 890.203C789.883 890.203 843.032 873.274 879.647 894.141C916.261 915.007 933.19 951.229 933.19 951.229C933.19 951.229 965.474 891.778 1027.68 895.321C1089.88 898.865 1120.59 948.866 1120.99 950.441C1121.38 952.016 1143.82 895.715 1204.84 877.998C1265.87 860.281 1312.72 881.935 1312.72 881.935C1312.72 881.935 1343.37 848.344 1392.64 856.738C1441.91 865.132 1452.87 892.566 1452.87 892.566L1454.92 1149.56L-48.0001 1160.06L-46.0908 851.131Z" fill="#AD74FF"/>
<path fill-rule="evenodd" clip-rule="evenodd" d="M1459.06 1141.17C1459.06 1141.17 1458.86 1071.7 1392.5 1041.56C1326.14 1011.41 1265.06 1049.17 1265.06 1049.17C1265.06 1049.17 1226.32 1005.08 1156.64 1034.21C1086.95 1063.35 1074.36 1103.51 1074.75 1105.08C1075.14 1106.66 1060.17 1089.83 1035.77 1097.21C1011.38 1104.58 1008.61 1120.83 1008.61 1120.83C1008.61 1120.83 998.372 1090.12 951.522 1083.43C904.671 1076.73 881.837 1107.05 881.837 1107.05C881.837 1107.05 871.601 1063.74 822.388 1048.39C773.175 1033.03 740.498 1048.78 740.498 1048.78C740.498 1048.78 691.679 966.886 581.049 977.911C470.419 988.936 433.018 1076.73 433.018 1076.73C433.018 1076.73 399.553 1046.42 364.907 1037.36C330.262 1028.31 293.648 1029.09 293.648 1029.09C293.648 1029.09 253.097 937.753 143.254 935.784C33.4116 933.816 -47.6909 1028.31 -47.6909 1028.31L-46.8025 1187.46L1460.13 1202L1459.06 1141.17Z" fill="white"/>
<defs>
<linearGradient id="paint0_linear" x1="2360.5" y1="572" x2="1299.09" y2="-998.779" gradientUnits="userSpaceOnUse">
<stop stop-color="#9033EA"/>
<stop offset="1" stop-color="#483EB7"/>
</linearGradient>
</defs>
</svg>
