<svg width="30" height="30" viewBox="0 0 30 30" fill="none" xmlns="http://www.w3.org/2000/svg">
<path fill-rule="evenodd" clip-rule="evenodd" d="M0.545613 15.25V29.8957H29.8493V0.603434H0.545613V15.25ZM24.1598 14.082C24.9038 14.2678 25.4715 14.5983 25.9926 15.1374C26.2627 15.4258 26.6624 15.9512 26.6949 16.0766C26.7041 16.1132 25.4299 16.969 24.6574 17.4482C24.63 17.4665 24.5178 17.3462 24.3919 17.1599C24.0151 16.6107 23.6199 16.3741 23.0151 16.3324C22.1269 16.272 21.55 16.737 21.5591 17.5132C21.5591 17.7411 21.5912 17.8757 21.6846 18.0624C21.8801 18.467 22.2432 18.7087 23.3823 19.2021C25.4802 20.1037 26.3776 20.6987 26.9353 21.5454C27.558 22.4891 27.6981 23.9958 27.275 25.1162C26.8098 26.3345 25.6565 27.162 24.0334 27.4366C23.5311 27.5249 22.3402 27.5112 21.8009 27.4137C20.6242 27.2045 19.5079 26.6233 18.8193 25.8608C18.5492 25.5633 18.024 24.7866 18.0565 24.7303C18.0703 24.712 18.1916 24.6374 18.3267 24.5583L19.415 23.9312L20.2575 23.4429L20.4342 23.7038C20.6805 24.0804 21.2203 24.5962 21.5459 24.7683C22.4808 25.2612 23.7646 25.1912 24.3969 24.6242C24.6671 24.3779 24.7783 24.1221 24.7783 23.7454C24.7783 23.4058 24.7371 23.2571 24.5599 23.0017C24.3319 22.6767 23.8667 22.4021 22.5454 21.83C21.0335 21.1792 20.3824 20.7746 19.7872 20.133C19.4429 19.7609 19.1174 19.1659 18.9823 18.6684C18.8706 18.2547 18.8427 17.2176 18.931 16.7992C19.2424 15.3347 20.3449 14.3209 21.936 14.0189C22.4524 13.9214 23.6529 13.9584 24.1593 14.0838L24.1598 14.082ZM17.2833 15.3043L17.2925 16.5034H13.4785V27.3367H10.7808V16.5034H6.96689V15.3272L6.99894 14.1189C7.01268 14.1006 9.334 14.0915 12.148 14.0961L17.2691 14.1098L17.2833 15.3043Z" fill="#007ACC"/>
</svg>
