<svg width="1440" height="267" viewBox="0 0 1440 267" fill="none" xmlns="http://www.w3.org/2000/svg">
<path fill-rule="evenodd" clip-rule="evenodd" d="M1459.06 206.175C1459.06 206.175 1458.86 136.7 1392.5 106.556C1326.14 76.4124 1265.06 114.172 1265.06 114.172C1265.06 114.172 1226.32 70.0768 1156.64 99.2118C1086.95 128.347 1074.36 168.505 1074.75 170.08C1075.14 171.655 1060.17 154.832 1035.77 162.206C1011.38 169.58 1008.61 185.829 1008.61 185.829C1008.61 185.829 998.372 155.119 951.522 148.426C904.671 141.733 881.837 172.049 881.837 172.049C881.837 172.049 871.601 128.741 822.388 113.386C773.175 98.0306 740.498 113.779 740.498 113.779C740.498 113.779 691.679 31.8862 581.049 42.9109C470.419 53.9355 433.018 141.734 433.018 141.734C433.018 141.734 399.553 111.418 364.907 102.362C330.262 93.3071 293.648 94.0944 293.648 94.0944C293.648 94.0944 253.097 2.75281 143.254 0.784243C33.4116 -1.18433 -47.6909 93.3071 -47.6909 93.3071L-46.8025 252.463L1460.13 267L1459.06 206.175Z" fill="white"/>
</svg>
