<svg width="41" height="37" viewBox="0 0 41 37" fill="none" xmlns="http://www.w3.org/2000/svg">
<path d="M37.8397 4.87769L37.8443 5.19254L38.1302 5.32448C39.045 5.74668 39.7013 6.72421 39.7013 7.88263C39.7013 9.44448 38.5095 10.6671 37.0997 10.6671H26.5523C25.1388 10.6671 23.9507 9.44818 23.9507 7.88263C23.9507 6.72563 24.6107 5.74492 25.5282 5.32277L25.8371 5.18067L25.8185 4.8412C25.8141 4.76085 25.8119 4.67983 25.8119 4.5982C25.8119 2.30752 27.5589 0.5 29.6546 0.5C30.9036 0.5 32.022 1.1364 32.7285 2.13877L33.0067 2.5335L33.4109 2.26915C33.8539 1.97941 34.3728 1.81377 34.9279 1.81377C36.495 1.81377 37.815 3.15441 37.8397 4.87769Z" fill="white" stroke="#6A6E7C"/>
<path d="M14.3891 16.0449L14.3936 16.3598L14.6795 16.4917C15.5943 16.9139 16.2506 17.8914 16.2506 19.0499C16.2506 20.6117 15.0589 21.8343 13.649 21.8343H3.10161C1.68813 21.8343 0.5 20.6154 0.5 19.0499C0.5 17.8929 1.15998 16.9122 2.07754 16.49L2.3864 16.3479L2.36781 16.0084C2.36341 15.9281 2.36118 15.8471 2.36118 15.7654C2.36118 13.4748 4.10817 11.6672 6.20392 11.6672C7.45293 11.6672 8.57133 12.3036 9.27783 13.306L9.55606 13.7007L9.96021 13.4364C10.4032 13.1466 10.9222 12.981 11.4773 12.981C13.0443 12.981 14.3643 14.3216 14.3891 16.0449Z" fill="white" stroke="#6A6E7C"/>
<path d="M19.1165 20.8839V28.0287L15.2266 31.9187" stroke="#FA5A28"/>
<path d="M27.6105 20.8839V28.0287L31.5005 31.9187" stroke="#FA5A28"/>
<path d="M23.165 17.8672V35.0147" stroke="#FA5A28"/>
<circle cx="14.9881" cy="32.395" r="1.08773" fill="white" stroke="#FA5A28"/>
<circle cx="31.5008" cy="32.395" r="1.08773" fill="white" stroke="#FA5A28"/>
<circle cx="23.0858" cy="34.9351" r="1.08773" fill="white" stroke="#FA5A28"/>
<path d="M36.1024 12.6115L36.107 12.9285L36.3958 13.0595C38.3361 13.9396 39.7014 15.9607 39.7014 18.3272C39.7014 21.5099 37.2216 24.0676 34.2049 24.0676H13.8133C10.7897 24.0676 8.31689 21.5169 8.31689 18.3272C8.31689 15.9626 9.69003 13.9356 11.6354 13.056L11.9477 12.9148L11.9287 12.5726C11.9197 12.4119 11.9152 12.2499 11.9152 12.0868C11.9152 7.51894 15.4689 3.85022 19.8111 3.85022C22.3945 3.85022 24.6939 5.14472 26.1379 7.15797L26.4148 7.54411L26.8145 7.28717C27.7436 6.68999 28.8362 6.34639 30.0063 6.34639C33.3235 6.34639 36.0513 9.12387 36.1024 12.6115Z" fill="white" stroke="#6A6E7C"/>
</svg>
