<svg width="40" height="35" viewBox="0 0 40 35" fill="none" xmlns="http://www.w3.org/2000/svg">
<path d="M10.9204 0.817993H38C38.8284 0.817993 39.5 1.48957 39.5 2.31799V26.2896C39.5 27.118 38.8284 27.7896 38 27.7896H31.0461H17.8003H10.9204C10.092 27.7896 9.42041 27.118 9.42041 26.2896V2.31799C9.42041 1.48957 10.092 0.817993 10.9204 0.817993Z" fill="white" stroke="#6A6E7C"/>
<rect x="8.92041" y="5.02917" width="31.0138" height="0.553817" fill="#6A6E7C"/>
<circle cx="11.6896" cy="3.36766" r="0.553817" fill="#6A6E7C"/>
<circle cx="13.9049" cy="3.36766" r="0.553817" fill="#6A6E7C"/>
<circle cx="16.1202" cy="3.36766" r="0.553817" fill="#6A6E7C"/>
<path d="M20.4713 16.9325H25.0601C25.3221 16.9325 25.5348 16.6849 25.5348 16.3786C25.5348 16.0724 25.3221 15.8248 25.0601 15.8248H20.4713C20.2092 15.8248 19.9966 16.0724 19.9966 16.3786C19.9966 16.6849 20.2092 16.9325 20.4713 16.9325Z" fill="#6A6E7C"/>
<rect x="19.9966" y="18.344" width="8.08068" height="1.10763" rx="0.553817" fill="#EAEAEA"/>
<path d="M19.9966 22.4917C19.9966 22.1858 20.2445 21.9379 20.5504 21.9379H24.065C24.3709 21.9379 24.6188 22.1858 24.6188 22.4917C24.6188 22.7975 24.3709 23.0455 24.065 23.0455H20.5504C20.2445 23.0455 19.9966 22.7975 19.9966 22.4917Z" fill="#FA5A28"/>
<rect x="19.9966" y="24.2889" width="6.8375" height="1.10763" rx="0.553817" fill="#EAEAEA"/>
<path d="M30.0547 22.4917C30.0547 22.1858 30.3026 21.9379 30.6085 21.9379H33.0155C33.3213 21.9379 33.5693 22.1858 33.5693 22.4917C33.5693 22.7975 33.3213 23.0455 33.0155 23.0455H30.6085C30.3026 23.0455 30.0547 22.7975 30.0547 22.4917Z" fill="#FA5A28"/>
<rect x="30.0547" y="24.2889" width="6.8375" height="1.10763" rx="0.553817" fill="#EAEAEA"/>
<rect x="11.3857" y="7.21375" width="26.0832" height="7.25344" rx="0.75" stroke="#6A6E7C" stroke-width="0.5"/>
<rect x="13.3511" y="9.17896" width="22.1527" height="3.3229" fill="#EAEAEA"/>
<rect x="11.6357" y="16.3248" width="5.64581" height="8.96871" rx="0.5" stroke="#FA5A28"/>
<path d="M6.49023 4.14087H33.5698C34.3982 4.14087 35.0698 4.81244 35.0698 5.64087V29.6125C35.0698 30.4409 34.3982 31.1125 33.5698 31.1125H26.6159H13.3701H6.49023C5.66181 31.1125 4.99023 30.4409 4.99023 29.6125V5.64087C4.99023 4.81244 5.66181 4.14087 6.49023 4.14087Z" fill="white" stroke="#6A6E7C"/>
<rect x="4.49023" y="8.35217" width="31.0138" height="0.553817" fill="#6A6E7C"/>
<circle cx="7.25938" cy="6.69066" r="0.553817" fill="#6A6E7C"/>
<circle cx="9.47472" cy="6.69066" r="0.553817" fill="#6A6E7C"/>
<circle cx="11.6896" cy="6.69066" r="0.553817" fill="#6A6E7C"/>
<path d="M16.0411 20.2555H20.6299C20.8919 20.2555 21.1046 20.0079 21.1046 19.7016C21.1046 19.3954 20.8919 19.1478 20.6299 19.1478H16.0411C15.7791 19.1478 15.5664 19.3954 15.5664 19.7016C15.5664 20.0079 15.7791 20.2555 16.0411 20.2555Z" fill="#6A6E7C"/>
<rect x="15.5664" y="21.667" width="8.08068" height="1.10763" rx="0.553817" fill="#EAEAEA"/>
<path d="M15.5664 25.8147C15.5664 25.5088 15.8144 25.2609 16.1202 25.2609H19.6348C19.9407 25.2609 20.1886 25.5088 20.1886 25.8147C20.1886 26.1205 19.9407 26.3685 19.6348 26.3685H16.1202C15.8144 26.3685 15.5664 26.1205 15.5664 25.8147Z" fill="#FA5A28"/>
<rect x="15.5664" y="27.6119" width="6.8375" height="1.10763" rx="0.553817" fill="#EAEAEA"/>
<path d="M25.6245 25.8147C25.6245 25.5088 25.8725 25.2609 26.1783 25.2609H28.5853C28.8912 25.2609 29.1391 25.5088 29.1391 25.8147C29.1391 26.1205 28.8912 26.3685 28.5853 26.3685H26.1783C25.8725 26.3685 25.6245 26.1205 25.6245 25.8147Z" fill="#FA5A28"/>
<rect x="25.6245" y="27.6119" width="6.8375" height="1.10763" rx="0.553817" fill="#EAEAEA"/>
<rect x="6.95557" y="10.5367" width="26.0832" height="7.25344" rx="0.75" stroke="#6A6E7C" stroke-width="0.5"/>
<rect x="8.9209" y="12.502" width="22.1527" height="3.3229" fill="#EAEAEA"/>
<rect x="7.20557" y="19.6478" width="5.64581" height="8.96871" rx="0.5" stroke="#FA5A28"/>
<path d="M2.05957 7.46375H29.1391C29.9675 7.46375 30.6391 8.13532 30.6391 8.96375V32.9353C30.6391 33.7638 29.9675 34.4353 29.1391 34.4353H22.1852H8.93944H2.05957C1.23114 34.4353 0.55957 33.7638 0.55957 32.9353V8.96375C0.55957 8.13532 1.23114 7.46375 2.05957 7.46375Z" fill="white" stroke="#6A6E7C"/>
<rect x="0.0595703" y="11.6749" width="31.0138" height="0.553817" fill="#6A6E7C"/>
<circle cx="2.82872" cy="10.0135" r="0.553817" fill="#6A6E7C"/>
<circle cx="5.04405" cy="10.0135" r="0.553817" fill="#6A6E7C"/>
<circle cx="7.2589" cy="10.0135" r="0.553817" fill="#6A6E7C"/>
<path d="M11.6104 23.5782H16.1992C16.4612 23.5782 16.6739 23.3307 16.6739 23.0244C16.6739 22.7181 16.4612 22.4706 16.1992 22.4706H11.6104C11.3484 22.4706 11.1357 22.7181 11.1357 23.0244C11.1357 23.3307 11.3484 23.5782 11.6104 23.5782Z" fill="#6A6E7C"/>
<rect x="11.1357" y="24.9899" width="8.08068" height="1.10763" rx="0.553817" fill="#EAEAEA"/>
<path d="M11.1357 29.1374C11.1357 28.8316 11.3837 28.5836 11.6896 28.5836H15.2042C15.51 28.5836 15.758 28.8316 15.758 29.1374C15.758 29.4433 15.51 29.6913 15.2042 29.6913H11.6896C11.3837 29.6913 11.1357 29.4433 11.1357 29.1374Z" fill="#FA5A28"/>
<rect x="11.1357" y="30.9347" width="6.8375" height="1.10763" rx="0.553817" fill="#EAEAEA"/>
<path d="M21.1938 29.1374C21.1938 28.8316 21.4418 28.5836 21.7477 28.5836H24.1546C24.4605 28.5836 24.7084 28.8316 24.7084 29.1374C24.7084 29.4433 24.4605 29.6913 24.1546 29.6913H21.7477C21.4418 29.6913 21.1938 29.4433 21.1938 29.1374Z" fill="#FA5A28"/>
<rect x="21.1938" y="30.9347" width="6.8375" height="1.10763" rx="0.553817" fill="#EAEAEA"/>
<rect x="2.5249" y="13.8595" width="26.0832" height="7.25344" rx="0.75" stroke="#6A6E7C" stroke-width="0.5"/>
<rect x="4.49023" y="15.8248" width="22.1527" height="3.3229" fill="#EAEAEA"/>
<rect x="2.5249" y="22.7206" width="6.14581" height="9.46871" rx="0.75" stroke="#FA5A28" stroke-width="0.5"/>
</svg>
