<svg width="20" height="20" viewBox="0 0 20 20" fill="none" xmlns="http://www.w3.org/2000/svg">
<path d="M12.0511 17.5783H3.14795C2.99255 17.5783 2.84351 17.5166 2.73363 17.4067C2.62374 17.2968 2.56201 17.1478 2.56201 16.9924V5.62244C2.56201 5.46704 2.62374 5.318 2.73363 5.20812C2.84351 5.09823 2.99255 5.0365 3.14795 5.0365H12.0511C12.2065 5.0365 12.3555 5.09823 12.4654 5.20812C12.5753 5.318 12.637 5.46704 12.637 5.62244V16.9924C12.637 17.1478 12.5753 17.2968 12.4654 17.4067C12.3555 17.5166 12.2065 17.5783 12.0511 17.5783ZM3.73389 16.4064H11.4651V6.20837H3.73389V16.4064Z" fill="white"/>
<path d="M15.2122 14.4169H12.0509C11.8955 14.4169 11.7464 14.3552 11.6365 14.2453C11.5267 14.1354 11.4649 13.9864 11.4649 13.831C11.4649 13.6756 11.5267 13.5265 11.6365 13.4167C11.7464 13.3068 11.8955 13.245 12.0509 13.245H14.6263V3.047H6.89502V5.622C6.89502 5.7774 6.83329 5.92643 6.7234 6.03632C6.61352 6.1462 6.46448 6.20793 6.30908 6.20793C6.15368 6.20793 6.00465 6.1462 5.89476 6.03632C5.78488 5.92643 5.72314 5.7774 5.72314 5.622V2.46106C5.72314 2.30566 5.78488 2.15662 5.89476 2.04674C6.00465 1.93685 6.15368 1.87512 6.30908 1.87512H15.2122C15.3676 1.87512 15.5166 1.93685 15.6265 2.04674C15.7364 2.15662 15.7981 2.30566 15.7981 2.46106V13.831C15.7981 13.9864 15.7364 14.1354 15.6265 14.2453C15.5166 14.3552 15.3676 14.4169 15.2122 14.4169Z" fill="white"/>
</svg>
