<svg width="13" height="10" viewBox="0 0 13 10" fill="none" xmlns="http://www.w3.org/2000/svg">
<path fill-rule="evenodd" clip-rule="evenodd" d="M9.18034 9.27702L12.8281 5.19857C12.9427 5.07061 13 4.90246 13 4.73468C13 4.56688 12.9427 4.39876 12.8281 4.27062L9.18034 0.192163C8.95187 -0.0630951 8.58164 -0.0641193 8.35225 0.190451C8.12258 0.445035 8.12043 0.8545 8.34705 1.1118L10.9527 4.06984L0.586813 4.06983C0.262674 4.06983 0 4.3717 0 4.73394C0 5.09632 0.262674 5.39805 0.586813 5.39805L10.9964 5.39807L8.35053 8.35287C8.12134 8.60915 8.12134 9.02073 8.35053 9.27701C8.57963 9.53331 8.95124 9.53331 9.18034 9.27702Z" fill="#000E1A"/>
</svg>
