<svg width="12" height="12" viewBox="0 0 12 12" fill="none" xmlns="http://www.w3.org/2000/svg">
<g opacity="0.7">
<path fill-rule="evenodd" clip-rule="evenodd" d="M11.9351 6C11.9351 9.03757 9.47262 11.5 6.43506 11.5C3.39749 11.5 0.935059 9.03757 0.935059 6C0.935059 2.96243 3.39749 0.5 6.43506 0.5C9.47262 0.5 11.9351 2.96243 11.9351 6ZM6.43506 10.5C8.92034 10.5 10.9351 8.48528 10.9351 6C10.9351 3.51472 8.92034 1.5 6.43506 1.5C3.94978 1.5 1.93506 3.51472 1.93506 6C1.93506 8.48528 3.94978 10.5 6.43506 10.5Z" fill="#44486C"/>
<path d="M5.84942 8.50012V4.53212H7.02542V8.50012H5.84942ZM6.43342 3.94812C6.23608 3.94812 6.07342 3.89212 5.94542 3.78012C5.81742 3.66279 5.75342 3.51345 5.75342 3.33212C5.75342 3.15079 5.81742 3.00412 5.94542 2.89212C6.07342 2.78012 6.23608 2.72412 6.43342 2.72412C6.63608 2.72412 6.79875 2.78012 6.92142 2.89212C7.04942 3.00412 7.11342 3.15079 7.11342 3.33212C7.11342 3.51345 7.04942 3.66279 6.92142 3.78012C6.79875 3.89212 6.63608 3.94812 6.43342 3.94812Z" fill="#44486C"/>
</g>
</svg>
