<svg width="23" height="368" viewBox="0 0 23 368" fill="none" xmlns="http://www.w3.org/2000/svg">
<path d="M1 0V63M18.5 364.5H1V290M1 290H18.5M1 290V215M1 215H18.5M1 215V140M1 140H18.5M1 140V63M1 63H18.5" stroke="#FA5A28" stroke-width="2" stroke-linejoin="round" stroke-dasharray="8 8"/>
<path d="M16 59L16 67L23 62.8261L16 59Z" fill="#FA5A28"/>
<path d="M16 136L16 144L23 139.826L16 136Z" fill="#FA5A28"/>
<path d="M16 211L16 219L23 214.826L16 211Z" fill="#FA5A28"/>
<path d="M16 286L16 294L23 289.826L16 286Z" fill="#FA5A28"/>
<path d="M16 360L16 368L23 363.826L16 360Z" fill="#FA5A28"/>
</svg>
