<svg width="793" height="69" viewBox="0 0 793 69" fill="none" xmlns="http://www.w3.org/2000/svg">
<path d="M373.5 0.00012207V0.00012207C373.5 20.9869 356.487 38.0001 335.5 38.0001H246.022C239.826 38.0001 233.783 39.9183 228.721 43.4911L202.5 62.0001" stroke="#FA5A28" stroke-width="2" stroke-linejoin="round" stroke-dasharray="8 8"/>
<path d="M582.996 63.8401L587.75 57.4061L590.899 64.923L582.996 63.8401Z" fill="#FA5A28"/>
<path d="M414.001 0.00012207V0.00012207C414.001 20.9869 431.014 38.0001 452.001 38.0001H543.479C549.675 38.0001 555.718 39.9183 560.78 43.4911L587.001 62.0001" stroke="#FA5A28" stroke-width="2" stroke-linejoin="round" stroke-dasharray="8 8"/>
<path d="M353.5 0.00012207V0.00012207C353.5 9.94125 345.441 18.0001 335.5 18.0001H66.1526C58.6569 18.0001 51.4326 20.8062 45.9022 25.866L7.49976 61.0001" stroke="#FA5A28" stroke-width="2" stroke-linejoin="round" stroke-dasharray="8 8"/>
<path d="M394 0.00012207V59.5001" stroke="#FA5A28" stroke-width="2" stroke-linejoin="round" stroke-dasharray="8 8"/>
<path d="M11.6143 62.5648L5.45874 57.4552L4.19942 65.5073L11.6143 62.5648Z" fill="#FA5A28"/>
<path d="M433.988 0.00012207V0.00012207C433.988 9.94125 442.047 18.0001 451.988 18.0001H726.335C733.831 18.0001 741.055 20.8062 746.585 25.866L784.988 61.0001" stroke="#FA5A28" stroke-width="2" stroke-linejoin="round" stroke-dasharray="8 8"/>
<path d="M781.9 63.2521L787.345 57.3904L789.633 65.2124L781.9 63.2521Z" fill="#FA5A28"/>
<path d="M206.484 63.9328L201.846 57.4148L198.563 64.8742L206.484 63.9328Z" fill="#FA5A28"/>
<path d="M398 58.5001H390L394.174 65.5001L398 58.5001Z" fill="#FA5A28"/>
</svg>
