<svg width="29" height="31" viewBox="0 0 29 31" fill="none" xmlns="http://www.w3.org/2000/svg">
<path d="M2.44263 8.87565L14.5 2.23153L26.5574 8.87565V22.1242L14.5 28.7683L2.44263 22.1242V8.87565Z" stroke="#FA6400"/>
<path d="M2.82945 21.9196L14.5 2.62667L26.1705 21.9196H2.82945Z" stroke="#FA6400"/>
<path d="M5.3 22.1429C5.3 23.3736 4.24771 24.4107 2.9 24.4107C1.55229 24.4107 0.5 23.3736 0.5 22.1429C0.5 20.9121 1.55229 19.875 2.9 19.875C4.24771 19.875 5.3 20.9121 5.3 22.1429Z" fill="white" stroke="#FA6400"/>
<path d="M5.3 9.41068C5.3 10.6415 4.24771 11.6785 2.9 11.6785C1.55229 11.6785 0.5 10.6415 0.5 9.41068C0.5 8.1799 1.55229 7.14282 2.9 7.14282C4.24771 7.14282 5.3 8.1799 5.3 9.41068Z" fill="white" stroke="#FA6400"/>
<path d="M28.5 22.1429C28.5 23.3736 27.4477 24.4107 26.1 24.4107C24.7522 24.4107 23.7 23.3736 23.7 22.1429C23.7 20.9121 24.7522 19.875 26.1 19.875C27.4477 19.875 28.5 20.9121 28.5 22.1429Z" fill="white" stroke="#FA6400"/>
<path d="M16.9 28.2322C16.9 29.463 15.8477 30.5001 14.5 30.5001C13.1523 30.5001 12.1 29.463 12.1 28.2322C12.1 27.0014 13.1523 25.9644 14.5 25.9644C15.8477 25.9644 16.9 27.0014 16.9 28.2322Z" fill="white" stroke="#FA6400"/>
<path d="M16.9 2.76786C16.9 3.99864 15.8477 5.03571 14.5 5.03571C13.1523 5.03571 12.1 3.99864 12.1 2.76786C12.1 1.53707 13.1523 0.5 14.5 0.5C15.8477 0.5 16.9 1.53707 16.9 2.76786Z" fill="white" stroke="#FA6400"/>
<path d="M28.5 9.41068C28.5 10.6415 27.4477 11.6785 26.1 11.6785C24.7522 11.6785 23.7 10.6415 23.7 9.41068C23.7 8.1799 24.7522 7.14282 26.1 7.14282C27.4477 7.14282 28.5 8.1799 28.5 9.41068Z" fill="white" stroke="#FA6400"/>
<path d="M19.6017 14.4607L20.0995 14.4148L20.0995 14.4147L19.6017 14.4607ZM19.3349 14.2263L19.3224 14.7262L19.3233 14.7262L19.3349 14.2263ZM18.3553 14.2003L18.3641 13.7003H18.3553V14.2003ZM18.1395 14.056L17.6636 14.2097L17.6657 14.2158L18.1395 14.056ZM17.9494 13.6628L18.3658 13.3859L18.3606 13.3783L17.9494 13.6628ZM17.3983 12.9318L17.7901 12.6212L17.7669 12.592L17.7396 12.5665L17.3983 12.9318ZM17.363 12.76L17.8183 12.9667L17.8218 12.9591L17.825 12.9513L17.363 12.76ZM17.5511 12.2658L17.081 12.0953L17.081 12.0954L17.5511 12.2658ZM17.7472 11.7047L18.2195 11.8688L18.2334 11.8289L18.2404 11.7872L17.7472 11.7047ZM17.3887 11.3428L17.6229 10.901L17.6164 10.8976L17.6098 10.8943L17.3887 11.3428ZM16.3803 10.8467L16.5936 10.3944L16.591 10.3932L16.3803 10.8467ZM16.0556 10.9395L15.6455 10.6536L15.6449 10.6543L16.0556 10.9395ZM15.4768 11.7807L15.0637 11.4991L15.043 11.5294L15.0269 11.5625L15.4768 11.7807ZM15.3397 11.8385L15.4841 11.3598L15.4589 11.3522L15.433 11.3473L15.3397 11.8385ZM13.6531 11.8866L13.7099 12.3834L13.7426 12.3796L13.7744 12.3717L13.6531 11.8866ZM13.5255 11.8462L13.1646 12.1922L13.1766 12.2047L13.1894 12.2164L13.5255 11.8462ZM12.7692 11.0368L13.1376 10.6987L13.1364 10.6974L12.7692 11.0368ZM12.4002 10.9997L12.6783 11.4152L12.6819 11.4127L12.4002 10.9997ZM11.3197 11.7187L11.5934 12.1371L11.5938 12.1368L11.3197 11.7187ZM11.2188 12.0834L11.6547 11.8384L11.6526 11.8347L11.2188 12.0834ZM11.7104 12.9496L11.2765 13.1981L11.2874 13.2171L11.2998 13.235L11.7104 12.9496ZM11.6938 13.1003L11.3523 12.735L11.321 12.7643L11.2951 12.7985L11.6938 13.1003ZM11.2975 13.6652L10.858 13.4267L10.8544 13.4333L10.851 13.44L11.2975 13.6652ZM10.9798 14.3923L10.5113 14.2179L10.5003 14.2474L10.4931 14.278L10.9798 14.3923ZM10.8513 14.504L10.7912 14.0076L10.7794 14.009L10.7676 14.011L10.8513 14.504ZM9.78286 14.7008L9.87496 15.1923L9.87726 15.1918L9.78286 14.7008ZM9.54084 15.0035L9.04203 15.038L9.04206 15.0384L9.54084 15.0035ZM9.63463 16.2571L9.1358 16.2914L9.13584 16.2919L9.63463 16.2571ZM9.90034 16.5083L9.88021 17.0079L9.88143 17.0079L9.90034 16.5083ZM10.9299 16.5473L10.9173 17.0473H10.9299V16.5473ZM11.0726 16.6522L10.6057 16.831L10.6068 16.8339L11.0726 16.6522ZM11.9761 17.9866L12.3888 17.7043L12.3584 17.6599L12.3193 17.623L11.9761 17.9866ZM11.9973 18.1238L12.4736 18.2761L12.4752 18.2708L11.9973 18.1238ZM11.6565 19.1459L11.1823 18.9871L11.1817 18.989L11.6565 19.1459ZM11.8037 19.4592L11.6049 19.918L11.6057 19.9183L11.8037 19.4592ZM13.0612 19.9962L12.8715 20.4589L12.8895 20.4662L12.9079 20.4721L13.0612 19.9962ZM13.2533 19.9707L13.5274 20.3888L13.5559 20.3702L13.5816 20.3478L13.2533 19.9707ZM13.5306 19.6622L13.9408 19.9481L13.9425 19.9456L13.5306 19.6622ZM13.937 19.0275L13.5386 18.7253L13.529 18.738L13.5203 18.7511L13.937 19.0275ZM14.056 18.9678L14.1247 18.4726L14.085 18.4671L14.0448 18.468L14.056 18.9678ZM15.5988 18.8798L15.4977 18.3901L15.4857 18.3926L15.4739 18.3956L15.5988 18.8798ZM15.7344 18.9115L16.096 18.5661L16.0723 18.5414L16.0455 18.5201L15.7344 18.9115ZM16.4575 19.6902L16.0872 20.0262L16.0876 20.0266L16.4575 19.6902ZM16.8936 19.757L16.6187 19.3394L16.6183 19.3396L16.8936 19.757ZM17.9817 19.0265L17.7008 18.6129L17.6992 18.614L17.9817 19.0265ZM18.0603 18.7109L18.5012 18.475L18.4993 18.4714L18.0603 18.7109ZM17.5561 17.8023L17.1052 18.0184L17.1108 18.0299L17.1169 18.0412L17.5561 17.8023ZM17.5586 17.6868L17.1777 17.363L17.1428 17.404L17.1174 17.4516L17.5586 17.6868ZM18.2771 16.3543L18.7575 16.493L18.7628 16.4745L18.7668 16.4556L18.2771 16.3543ZM18.4138 16.2383L18.4509 16.7369L18.4772 16.735L18.5032 16.7303L18.4138 16.2383ZM19.4726 16.0377L19.5693 16.5282L19.5708 16.5279L19.4726 16.0377ZM16.2211 16.9282L16.5662 17.2899L16.5662 17.2899L16.2211 16.9282ZM14.6282 17.5573V17.0573L14.628 18.0573L14.6282 17.5573ZM20.0995 14.4147C20.088 14.29 20.0506 14.0688 19.8607 13.903C19.6801 13.7453 19.4633 13.7292 19.3466 13.7265L19.3233 14.7262C19.349 14.7268 19.3452 14.7289 19.3255 14.7238C19.3022 14.7177 19.2534 14.7003 19.203 14.6562C19.096 14.5629 19.0992 14.4566 19.1038 14.5067L20.0995 14.4147ZM19.3475 13.7265C19.0305 13.7185 18.6918 13.7062 18.3641 13.7004L18.3464 14.7003C18.6721 14.706 18.9869 14.7178 19.3224 14.7262L19.3475 13.7265ZM18.3553 13.7003C18.3392 13.7003 18.4047 13.6961 18.4848 13.7461C18.5763 13.8033 18.6077 13.8798 18.6133 13.8962L17.6657 14.2158C17.709 14.3443 17.7929 14.493 17.9551 14.5943C18.1059 14.6885 18.2604 14.7003 18.3553 14.7003V13.7003ZM18.6153 13.9023C18.5563 13.7197 18.4722 13.5461 18.3657 13.3859L17.533 13.9397C17.5893 14.0243 17.6331 14.1151 17.6637 14.2097L18.6153 13.9023ZM18.3606 13.3783C18.1772 13.1132 17.9803 12.8612 17.7901 12.6212L17.0065 13.2424C17.1954 13.4808 17.3747 13.711 17.5382 13.9473L18.3606 13.3783ZM17.7396 12.5665C17.8449 12.6648 17.8824 12.8256 17.8183 12.9667L16.9077 12.5534C16.7904 12.8119 16.8559 13.1093 17.057 13.2972L17.7396 12.5665ZM17.825 12.9513C17.8973 12.7765 17.9613 12.6012 18.0211 12.4362L17.081 12.0954C17.0208 12.2615 16.9638 12.4172 16.9011 12.5687L17.825 12.9513ZM18.0211 12.4363C18.0902 12.2458 18.1562 12.0509 18.2195 11.8688L17.2749 11.5406C17.2081 11.7329 17.1471 11.9133 17.081 12.0953L18.0211 12.4363ZM18.2404 11.7872C18.2631 11.651 18.2488 11.5089 18.1862 11.3753C18.1273 11.2496 18.0408 11.1637 17.9711 11.1078C17.8549 11.0145 17.6858 10.9344 17.6229 10.901L17.1546 11.7846C17.1835 11.7999 17.2122 11.8147 17.2356 11.8269C17.2604 11.8397 17.2802 11.85 17.2979 11.8597C17.336 11.8805 17.3462 11.8885 17.3449 11.8874C17.3423 11.8854 17.308 11.8578 17.2807 11.7996C17.2667 11.7698 17.2571 11.737 17.2529 11.7032C17.2488 11.67 17.2507 11.6422 17.2541 11.6222L18.2404 11.7872ZM17.6098 10.8943C17.2824 10.733 16.9363 10.556 16.5936 10.3944L16.1671 11.2989C16.5 11.4559 16.8215 11.6206 17.1677 11.7913L17.6098 10.8943ZM16.591 10.3932C16.4699 10.337 16.2735 10.2708 16.0501 10.3388C15.8356 10.4042 15.7107 10.56 15.6455 10.6536L16.4658 11.2255C16.4928 11.1868 16.4546 11.261 16.3416 11.2954C16.2196 11.3326 16.1395 11.2861 16.1697 11.3001L16.591 10.3932ZM15.6449 10.6543C15.4498 10.9353 15.2561 11.2169 15.0637 11.4991L15.8899 12.0624C16.0807 11.7825 16.2728 11.5033 16.4663 11.2248L15.6449 10.6543ZM15.0269 11.5625C15.1157 11.3796 15.3156 11.309 15.4841 11.3598L15.1952 12.3172C15.4726 12.4008 15.7899 12.2808 15.9266 11.999L15.0269 11.5625ZM15.433 11.3473C14.8032 11.2276 14.1532 11.2461 13.5318 11.4015L13.7744 12.3717C14.2552 12.2514 14.7586 12.2371 15.2463 12.3297L15.433 11.3473ZM13.5963 11.3898C13.6892 11.3792 13.7865 11.4078 13.8616 11.476L13.1894 12.2164C13.3327 12.3464 13.5236 12.4047 13.7099 12.3834L13.5963 11.3898ZM13.8864 11.5001C13.6345 11.2374 13.3857 10.9691 13.1376 10.6987L12.4009 11.3748C12.6509 11.6473 12.9053 11.9218 13.1646 12.1922L13.8864 11.5001ZM13.1364 10.6974C13.0523 10.6064 12.8926 10.4551 12.6479 10.4301C12.4076 10.4055 12.2203 10.5171 12.1184 10.5867L12.6819 11.4127C12.7035 11.398 12.7015 11.4022 12.6821 11.4095C12.6587 11.4182 12.6101 11.4314 12.5461 11.4249C12.4155 11.4115 12.3616 11.3324 12.4021 11.3761L13.1364 10.6974ZM12.1221 10.5842C11.7617 10.8254 11.4055 11.0644 11.0455 11.3005L11.5938 12.1368C11.9588 11.8974 12.3197 11.6552 12.6783 11.4152L12.1221 10.5842ZM11.046 11.3002C10.9378 11.371 10.7611 11.5059 10.6932 11.741C10.621 11.9911 10.7121 12.2049 10.7851 12.3322L11.6526 11.8347C11.6322 11.7993 11.6929 11.8837 11.6539 12.0184C11.6362 12.0799 11.6061 12.1189 11.5905 12.1359C11.5771 12.1505 11.573 12.1504 11.5934 12.1371L11.046 11.3002ZM10.783 12.3285C10.946 12.6184 11.1105 12.9083 11.2765 13.1981L12.1443 12.7011C11.9796 12.4135 11.8164 12.1259 11.6546 11.8384L10.783 12.3285ZM11.2998 13.235C11.189 13.0756 11.2163 12.8622 11.3523 12.735L12.0352 13.4655C12.2567 13.2585 12.2978 12.9187 12.121 12.6643L11.2998 13.235ZM11.2951 12.7985C11.1733 12.9595 10.9898 13.1839 10.858 13.4267L11.7369 13.9037C11.8219 13.7471 11.936 13.6087 12.0924 13.402L11.2951 12.7985ZM10.851 13.44C10.7233 13.6933 10.6099 13.9529 10.5113 14.2179L11.4484 14.5668C11.5341 14.3365 11.6328 14.1107 11.7439 13.8904L10.851 13.44ZM10.4931 14.278C10.5299 14.1212 10.6585 14.0237 10.7912 14.0076L10.9113 15.0004C11.1704 14.969 11.4019 14.7822 11.4666 14.5067L10.4931 14.278ZM10.7676 14.011C10.4041 14.0727 10.0411 14.142 9.68846 14.2098L9.87726 15.1918C10.2305 15.1239 10.5835 15.0566 10.9349 14.9969L10.7676 14.011ZM9.69076 14.2094C9.6293 14.2209 9.54847 14.2379 9.46968 14.2683C9.38613 14.3006 9.2751 14.3589 9.18419 14.4716C9.01015 14.6874 9.0361 14.952 9.04203 15.038L10.0397 14.969C10.0364 14.9223 10.039 14.9196 10.0368 14.9358C10.0337 14.9592 10.02 15.0282 9.96254 15.0995C9.90642 15.1691 9.84492 15.1954 9.82982 15.2012C9.81948 15.2052 9.826 15.2014 9.87496 15.1923L9.69076 14.2094ZM9.04206 15.0384C9.07427 15.4989 9.1049 15.8417 9.1358 16.2914L10.1334 16.2228C10.1069 15.8361 10.0659 15.3444 10.0396 14.9686L9.04206 15.0384ZM9.13584 16.2919C9.14434 16.4135 9.17413 16.6354 9.3545 16.8084C9.53266 16.9792 9.75445 17.0028 9.88021 17.0079L9.92047 16.0087C9.89552 16.0077 9.90117 16.0055 9.92295 16.012C9.94894 16.0198 9.99803 16.04 10.0466 16.0866C10.0955 16.1335 10.1187 16.183 10.1285 16.2119C10.1366 16.236 10.135 16.2446 10.1334 16.2223L9.13584 16.2919ZM9.88143 17.0079C10.2159 17.0206 10.5708 17.0384 10.9173 17.0471L10.9425 16.0474C10.6033 16.0389 10.2715 16.022 9.91924 16.0086L9.88143 17.0079ZM10.9299 17.0473C10.9035 17.0473 10.8064 17.0411 10.7095 16.963C10.6255 16.8954 10.6011 16.8189 10.6057 16.831L11.5395 16.4734C11.5174 16.4156 11.464 16.2867 11.3365 16.1841C11.1961 16.071 11.041 16.0473 10.9299 16.0473V17.0473ZM10.6068 16.8339C10.8301 17.4064 11.1809 17.9236 11.633 18.3502L12.3193 17.623C11.9729 17.296 11.7069 16.9024 11.5384 16.4705L10.6068 16.8339ZM11.5634 18.2689C11.5062 18.1853 11.4884 18.0776 11.5194 17.9767L12.4752 18.2708C12.5348 18.077 12.5015 17.8691 12.3888 17.7043L11.5634 18.2689ZM11.5211 17.9715C11.413 18.3094 11.2984 18.6406 11.1824 18.9871L12.1306 19.3047C12.2424 18.9707 12.3628 18.6225 12.4736 18.2761L11.5211 17.9715ZM11.1817 18.989C11.1354 19.1291 11.1015 19.3355 11.2012 19.5475C11.2987 19.7549 11.4746 19.8615 11.6049 19.918L12.0025 19.0004C11.9795 18.9904 12.0566 19.0167 12.1062 19.1221C12.158 19.2322 12.1271 19.3152 12.1312 19.3028L11.1817 18.989ZM11.6057 19.9183C12.0195 20.0967 12.4445 20.2838 12.8715 20.4589L13.2508 19.5336C12.8349 19.3631 12.4249 19.1825 12.0017 19L11.6057 19.9183ZM12.9079 20.4721C13.1148 20.5388 13.3433 20.5096 13.5274 20.3888L12.9791 19.5526C13.0507 19.5056 13.1369 19.4953 13.2145 19.5203L12.9079 20.4721ZM13.5816 20.3478C13.7174 20.2296 13.8382 20.0954 13.9408 19.9481L13.1204 19.3764C13.0652 19.4556 12.9996 19.5286 12.925 19.5936L13.5816 20.3478ZM13.9425 19.9456C14.0209 19.8317 14.093 19.7168 14.1595 19.6102C14.2276 19.5007 14.289 19.4014 14.3536 19.3039L13.5203 18.7511C13.4458 18.8635 13.3753 18.9778 13.3107 19.0814C13.2444 19.1878 13.1829 19.2854 13.1186 19.3789L13.9425 19.9456ZM14.3353 19.3297C14.2677 19.4189 14.1669 19.4655 14.0671 19.4677L14.0448 18.468C13.8505 18.4723 13.6617 18.563 13.5386 18.7253L14.3353 19.3297ZM13.9872 19.4631C14.5669 19.5436 15.1578 19.5099 15.7237 19.3639L15.4739 18.3956C15.0347 18.5089 14.5754 18.5352 14.1247 18.4726L13.9872 19.4631ZM15.6999 19.3694C15.6055 19.3889 15.504 19.367 15.4234 19.303L16.0455 18.5201C15.8895 18.3961 15.688 18.3508 15.4977 18.3901L15.6999 19.3694ZM15.3729 19.2569C15.6141 19.5094 15.8511 19.766 16.0872 20.0262L16.8277 19.3542C16.5879 19.0898 16.3448 18.8266 16.096 18.5661L15.3729 19.2569ZM16.0876 20.0266C16.1655 20.1122 16.3286 20.2885 16.5801 20.3305C16.8479 20.3752 17.0603 20.246 17.1688 20.1745L16.6183 19.3396C16.5842 19.3621 16.5809 19.3604 16.5977 19.3544C16.6211 19.346 16.675 19.3325 16.7448 19.3441C16.8119 19.3553 16.8528 19.3831 16.8623 19.3901C16.8683 19.3946 16.8591 19.3886 16.8273 19.3537L16.0876 20.0266ZM17.1685 20.1747C17.5361 19.9327 17.9013 19.6875 18.2641 19.4391L17.6992 18.614C17.3414 18.859 16.9812 19.1008 16.6187 19.3394L17.1685 20.1747ZM18.2625 19.4402C18.3757 19.3634 18.5261 19.2285 18.5811 19.0085C18.6364 18.7875 18.5665 18.5971 18.5012 18.475L17.6194 18.9467C17.6267 18.9603 17.5813 18.8844 17.611 18.7657C17.6405 18.648 17.7152 18.6031 17.7008 18.6129L18.2625 19.4402ZM18.4993 18.4714C18.4147 18.3164 18.3286 18.1628 18.2442 18.0122C18.1594 17.8608 18.0763 17.7123 17.9954 17.5635L17.1169 18.0412C17.2013 18.1964 17.2873 18.3502 17.3718 18.5009C17.4568 18.6526 17.54 18.8011 17.6214 18.9503L18.4993 18.4714ZM18.007 17.5862C18.0582 17.693 18.0553 17.8181 17.9998 17.9221L17.1174 17.4516C17.0235 17.6278 17.0187 17.8379 17.1052 18.0184L18.007 17.5862ZM17.9396 18.0107C18.318 17.5655 18.597 17.0489 18.7575 16.493L17.7967 16.2156C17.6762 16.6332 17.4658 17.024 17.1777 17.363L17.9396 18.0107ZM18.7668 16.4556C18.7319 16.6242 18.5917 16.7265 18.4509 16.7369L18.3766 15.7397C18.1005 15.7603 17.8486 15.9573 17.7875 16.253L18.7668 16.4556ZM18.5032 16.7303C18.8586 16.6657 19.214 16.5983 19.5693 16.5282L19.3758 15.5471C19.0253 15.6162 18.6748 15.6827 18.3243 15.7464L18.5032 16.7303ZM19.5708 16.5279C19.6337 16.5153 19.7153 16.4969 19.7947 16.4648C19.8787 16.4309 19.9886 16.3707 20.0778 16.2575C20.2507 16.0383 20.2219 15.774 20.2136 15.6812L19.2176 15.7695C19.2216 15.8155 19.2189 15.8179 19.221 15.8009C19.224 15.7767 19.2371 15.7087 19.2926 15.6383C19.3466 15.5698 19.4059 15.5434 19.4204 15.5375C19.4302 15.5336 19.4231 15.5376 19.3743 15.5474L19.5708 16.5279ZM20.2139 15.6843C20.1789 15.2591 20.1381 14.8339 20.0995 14.4148L19.1038 14.5065C19.1428 14.9305 19.1828 15.3475 19.2173 15.7664L20.2139 15.6843ZM12.8765 15.4077C12.8765 14.5183 13.6387 13.758 14.6287 13.758V12.758C13.1309 12.758 11.8765 13.9226 11.8765 15.4077H12.8765ZM14.6287 13.758C15.6187 13.758 16.381 14.5183 16.381 15.4077H17.381C17.381 13.9226 16.1265 12.758 14.6287 12.758V13.758ZM16.381 15.4077C16.381 15.838 16.2022 16.2551 15.876 16.5664L16.5662 17.2899C17.085 16.795 17.381 16.1186 17.381 15.4077H16.381ZM15.876 16.5664C15.5489 16.8784 15.1005 17.0575 14.6284 17.0573L14.628 18.0573C15.3507 18.0576 16.0483 17.784 16.5662 17.2899L15.876 16.5664ZM14.6282 18.0573H14.6287V17.0573H14.6282V18.0573ZM14.6287 17.0573C13.6387 17.0573 12.8765 16.297 12.8765 15.4077H11.8765C11.8765 16.8927 13.1309 18.0573 14.6287 18.0573L14.6287 17.0573Z" fill="#FA6400"/>
</svg>
