<svg width="29" height="23" viewBox="0 0 29 23" fill="none" xmlns="http://www.w3.org/2000/svg">
<path d="M24.7111 20.1468L24.498 20.0925L24.314 20.2129C23.0493 21.0406 21.5759 21.4928 20.0647 21.5173C18.5535 21.5417 17.0662 21.1374 15.7754 20.3511C14.4846 19.5648 13.4431 18.4288 12.7716 17.0747C12.1 15.7207 11.826 14.204 11.9813 12.7006C12.1365 11.1972 12.7147 9.76851 13.6488 8.58025C14.5828 7.392 15.8345 6.4928 17.2588 5.98689C18.683 5.48098 20.2215 5.38908 21.6958 5.72184C23.1702 6.05461 24.52 6.7984 25.5889 7.86702C26.8878 9.16616 27.7 10.8728 27.8889 12.7002C28.0778 14.5276 27.632 16.3643 26.6263 17.9018L26.506 18.0857L26.5601 18.2987L27.1905 20.778L24.7111 20.1468Z" fill="#F9F5FF" stroke="#FA6400"/>
<path fill-rule="evenodd" clip-rule="evenodd" d="M17.529 17.999C16.65 17.4113 15.965 16.5762 15.5607 15.5993C15.1563 14.6223 15.0506 13.5474 15.2571 12.5105C15.4636 11.4735 15.9729 10.5211 16.7207 9.77354C17.4684 9.02602 18.421 8.51701 19.4581 8.31086C20.4951 8.10471 21.57 8.21068 22.5468 8.61538C23.5236 9.02007 24.3584 9.70532 24.9458 10.5845C25.5332 11.4636 25.8467 12.4972 25.8467 13.5545C25.8451 14.9722 25.281 16.3314 24.2784 17.3337C23.2758 18.336 21.9165 18.8996 20.4988 18.9008C19.4414 18.9005 18.408 18.5866 17.529 17.999ZM17.6897 9.35049C16.8582 9.90606 16.2102 10.6957 15.8275 11.6196C15.4448 12.5435 15.3447 13.5601 15.5398 14.5409C15.7348 15.5217 16.2164 16.4226 16.9235 17.1298C17.6306 17.8369 18.5315 18.3184 19.5123 18.5135C20.4931 18.7086 21.5098 18.6085 22.4337 18.2258C23.3575 17.8431 24.1472 17.195 24.7028 16.3636C25.2584 15.5321 25.5549 14.5545 25.5549 13.5545C25.5534 12.214 25.0202 10.9288 24.0723 9.98093C23.1245 9.03304 21.8393 8.49986 20.4988 8.49837C19.4987 8.49837 18.5212 8.79491 17.6897 9.35049Z" fill="#FA6400"/>
<path d="M18.5406 16.5225C18.1114 15.6039 17.8936 14.6008 17.9033 13.587C17.913 12.5732 18.1499 11.5744 18.5966 10.6643C19.0433 9.75412 19.6885 8.95573 20.4846 8.32788L20.6641 8.55365C19.9021 9.15467 19.2846 9.9189 18.857 10.7901C18.4295 11.6613 18.2027 12.6173 18.1933 13.5877C18.184 14.5581 18.3924 15.5183 18.8032 16.3975C19.214 17.2767 19.8167 18.0527 20.567 18.6682L20.3836 18.8945C19.5996 18.2516 18.9698 17.441 18.5406 16.5225Z" fill="#FA6400"/>
<path d="M20.479 18.6689C21.2292 18.0534 21.8319 17.2774 22.2426 16.3981C22.6534 15.5189 22.8617 14.5587 22.8524 13.5883C22.843 12.6179 22.6161 11.6619 22.1885 10.7907C21.7609 9.91955 21.1433 9.15536 20.3813 8.55438L20.5614 8.32861C21.3574 8.95648 22.0025 9.75486 22.4493 10.665C22.896 11.5751 23.1329 12.5738 23.1427 13.5876C23.1524 14.6014 22.9347 15.6045 22.5056 16.523C22.0764 17.4416 21.4468 18.2522 20.663 18.8953V18.8947L20.479 18.6689Z" fill="#FA6400"/>
<path fill-rule="evenodd" clip-rule="evenodd" d="M20.6438 8.35376V18.755H20.3536V8.35376H20.6438Z" fill="#FA6400"/>
<path fill-rule="evenodd" clip-rule="evenodd" d="M25.6971 13.4094V13.6995H15.3003V13.4094H25.6971Z" fill="#FA6400"/>
<path d="M17.1802 10.6678L17.376 10.4539C17.389 10.4657 18.6849 11.6234 21.0674 11.6234C23.4611 11.6234 24.8124 10.5272 24.8259 10.5159L25.0111 10.7417C24.9529 10.7874 23.5644 11.9135 21.0674 11.9135C18.5658 11.9135 17.2355 10.7186 17.1802 10.6678Z" fill="#FA6400"/>
<path d="M16.6116 17.018C16.668 16.9672 17.9972 15.7717 20.4988 15.7717C23.0003 15.7717 24.3843 16.9006 24.4425 16.9463L24.2573 17.1721C24.2443 17.1608 22.8852 16.0641 20.4988 16.0641C19.257 16.0641 18.3173 16.3819 17.7506 16.6489C17.1354 16.9356 16.8108 17.2291 16.8074 17.2319L16.6116 17.018Z" fill="#FA6400"/>
<path d="M18.7277 11.4076L18.9409 11.462L20.6473 11.8966L20.2131 10.1902L20.1589 9.97723L20.2792 9.79327C21.0342 8.63879 21.3689 7.25963 21.2271 5.88749C21.0852 4.51539 20.4755 3.23391 19.5003 2.25832C19.5003 2.25829 19.5002 2.25826 19.5002 2.25822M18.7277 11.4076L19.5002 2.25822M18.7277 11.4076L18.5437 11.5282C17.5941 12.1498 16.4877 12.4896 15.3529 12.5081C14.218 12.5267 13.1012 12.2232 12.1318 11.6329C11.1624 11.0425 10.3802 10.1895 9.87581 9.17276C9.37144 8.15599 9.16558 7.01709 9.28209 5.8881C9.3986 4.7591 9.83271 3.68625 10.5341 2.79391C11.2355 1.90158 12.1754 1.22631 13.2449 0.846384C14.3145 0.466463 15.4698 0.397452 16.5769 0.647351C17.684 0.89724 18.6976 1.45578 19.5002 2.25822M18.7277 11.4076L19.5002 2.25822" fill="#F9F5FF" stroke="#FA6400"/>
<path d="M12.794 9.02045C12.7484 8.98139 12.7202 8.92581 12.7155 8.86593C12.7109 8.80606 12.7302 8.74679 12.7693 8.70116C12.8083 8.65554 12.8639 8.62731 12.9238 8.62266C16.0767 8.12202 17.0261 5.81012 17.2603 5.02161H12.9588C12.8989 5.02161 12.8415 4.99782 12.7991 4.95548C12.7568 4.91314 12.733 4.85572 12.733 4.79584C12.733 4.73596 12.7568 4.67854 12.7991 4.6362C12.8415 4.59385 12.8989 4.57007 12.9588 4.57007H17.5493C17.5822 4.57008 17.6147 4.57728 17.6445 4.59116C17.6743 4.60505 17.7007 4.62528 17.7219 4.65044C17.7431 4.67559 17.7585 4.70508 17.7671 4.73682C17.7757 4.76857 17.7773 4.80181 17.7717 4.83422C17.7655 4.87091 17.608 5.74803 16.9397 6.71095C16.3239 7.59823 15.1392 8.72765 12.9938 9.06856C12.9823 9.07126 12.9706 9.07315 12.9588 9.07421C12.8989 9.07885 12.8396 9.05951 12.794 9.02045Z" fill="#FA6400"/>
<path d="M15.0947 4.95826C15.0524 4.91592 15.0286 4.8585 15.0286 4.79862V4.15912C15.0286 4.09924 15.0524 4.04182 15.0947 3.99948C15.137 3.95714 15.1945 3.93335 15.2543 3.93335C15.3142 3.93335 15.3716 3.95714 15.414 3.99948C15.4563 4.04182 15.4801 4.09924 15.4801 4.15912V4.79862C15.4801 4.8585 15.4563 4.91592 15.414 4.95826C15.3716 5.0006 15.3142 5.02439 15.2543 5.02439C15.1945 5.02439 15.137 5.0006 15.0947 4.95826Z" fill="#FA6400"/>
<path d="M16.7766 9.05786C14.4867 8.1418 13.2771 6.00995 13.2263 5.9219C13.2119 5.89596 13.2027 5.86742 13.1993 5.83792C13.1958 5.80842 13.1983 5.77854 13.2064 5.74997C13.2145 5.72141 13.2282 5.69472 13.2466 5.67144C13.265 5.64816 13.2879 5.62874 13.3138 5.61429C13.3662 5.5851 13.4281 5.57791 13.4858 5.59432C13.5434 5.61073 13.5923 5.64938 13.6214 5.70177C13.6327 5.72209 14.8067 7.78338 16.9448 8.6368C16.9938 8.65615 17.0344 8.692 17.0598 8.73815C17.0851 8.78431 17.0935 8.83786 17.0835 8.88956C17.0735 8.94125 17.0458 8.98783 17.0051 9.02124C16.9644 9.05466 16.9133 9.0728 16.8607 9.07254L16.8601 9.07423C16.8315 9.07404 16.8032 9.06849 16.7766 9.05786Z" fill="#FA6400"/>
<path d="M3.23788 18.1806L3.42196 18.3011C4.44359 18.9699 5.63383 19.3354 6.85472 19.3554C8.07561 19.3753 9.27715 19.0488 10.32 18.4137C11.3629 17.7786 12.2045 16.8609 12.7471 15.7671C13.2898 14.6732 13.5113 13.4479 13.386 12.2333C13.2607 11.0187 12.7937 9.86451 12.0392 8.90447C11.2846 7.94444 10.2735 7.2179 9.12289 6.80909C7.97231 6.40028 6.72942 6.32594 5.53831 6.59468C4.34721 6.86342 3.25667 7.46423 2.3931 8.32746L3.23788 18.1806ZM3.23788 18.1806L3.02467 18.2349M3.23788 18.1806L3.02467 18.2349M3.02467 18.2349L1.14184 18.7146M3.02467 18.2349L1.14184 18.7146M1.14184 18.7146L1.62102 16.8329L1.6753 16.6198L1.55487 16.4358C0.742013 15.1936 0.381615 13.7094 0.534268 12.2328C0.68692 10.7562 1.3433 9.37712 2.39306 8.3275L1.14184 18.7146Z" fill="#F9F5FF" stroke="#FA6400"/>
<path d="M8.47976 14.6957C8.44257 14.6706 8.41367 14.6351 8.39675 14.5936L6.96084 11.071L5.5255 14.5936C5.51569 14.6228 5.50001 14.6497 5.47942 14.6726C5.45883 14.6955 5.43376 14.714 5.40576 14.7269C5.37777 14.7397 5.34743 14.7467 5.31663 14.7474C5.28582 14.7481 5.2552 14.7425 5.22664 14.731C5.19809 14.7194 5.1722 14.7021 5.15058 14.6801C5.12897 14.6582 5.11207 14.632 5.10094 14.6033C5.08981 14.5746 5.08468 14.5438 5.08586 14.5131C5.08704 14.4823 5.09452 14.452 5.10782 14.4242L6.73789 10.423C6.75485 10.3814 6.78384 10.3458 6.82114 10.3208C6.85844 10.2957 6.90237 10.2824 6.94729 10.2825H6.97495C7.01978 10.2825 7.06358 10.2959 7.10077 10.3209C7.13797 10.346 7.16687 10.3815 7.18379 10.423L8.81442 14.4242C8.83697 14.4796 8.83662 14.5417 8.81344 14.5968C8.79027 14.652 8.74616 14.6957 8.69081 14.7183C8.66369 14.729 8.63475 14.7344 8.60558 14.7341C8.56075 14.7341 8.51695 14.7207 8.47976 14.6957Z" fill="#FA6400"/>
<path d="M5.91156 13.2716C5.85168 13.2716 5.79426 13.2478 5.75192 13.2055C5.70958 13.1631 5.68579 13.1057 5.68579 13.0458C5.68579 12.986 5.70958 12.9285 5.75192 12.8862C5.79426 12.8439 5.85168 12.8201 5.91156 12.8201H7.94351C8.00338 12.8201 8.06081 12.8439 8.10315 12.8862C8.14549 12.9285 8.16928 12.986 8.16928 13.0458C8.16928 13.1057 8.14549 13.1631 8.10315 13.2055C8.06081 13.2478 8.00338 13.2716 7.94351 13.2716H5.91156Z" fill="#FA6400"/>
</svg>
