<svg width="29" height="27" viewBox="0 0 29 27" fill="none" xmlns="http://www.w3.org/2000/svg">
<path d="M25 0.5C26.933 0.5 28.5 2.067 28.5 4V22.1C28.5 24.033 26.933 25.6 25 25.6H20.6452H8.28571H4C2.067 25.6 0.5 24.033 0.5 22.1V4C0.5 2.06701 2.067 0.5 4 0.5H25Z" stroke="#FA6400"/>
<path d="M14.7677 16.2399C14.9401 16.2399 15.08 16.1103 15.08 15.9499C15.08 15.7895 14.9401 15.6599 14.7677 15.6599H11.3323C11.1599 15.6599 11.02 15.7895 11.02 15.9499C11.02 16.1103 11.1599 16.2399 11.3323 16.2399H14.7677Z" fill="#FA6400"/>
<path d="M13.0086 15.08C13.1915 15.08 13.34 14.9504 13.34 14.79C13.34 14.6296 13.1915 14.5 13.0086 14.5H11.3514C11.1685 14.5 11.02 14.6296 11.02 14.79C11.02 14.9504 11.1685 15.08 11.3514 15.08H13.0086Z" fill="#FA6400"/>
<path d="M14.7677 17.4001C14.9401 17.4001 15.08 17.2704 15.08 17.1101C15.08 16.9497 14.9401 16.8201 14.7677 16.8201H11.3323C11.1599 16.8201 11.02 16.9497 11.02 17.1101C11.02 17.2704 11.1599 17.4001 11.3323 17.4001H14.7677Z" fill="#FA6400"/>
<path fill-rule="evenodd" clip-rule="evenodd" d="M13.7483 20.3982L13.1824 20.9515C13.0579 20.908 12.9257 20.8799 12.7858 20.8799C12.1318 20.8799 11.6 21.4002 11.6 22.0399C11.6 22.6796 12.1318 23.1999 12.7858 23.1999C13.4397 23.1999 13.9715 22.6796 13.9715 22.0399C13.9715 21.7508 13.8589 21.4892 13.6792 21.2859L14.0898 20.8843C14.2979 21.0597 14.5653 21.1699 14.8609 21.1699C15.1564 21.1699 15.4238 21.0597 15.6316 20.8843L16.0422 21.2859C15.8628 21.4892 15.7502 21.7508 15.7502 22.0399C15.7502 22.6796 16.282 23.1999 16.936 23.1999C17.5899 23.1999 18.1218 22.6796 18.1218 22.0399C18.1218 21.8253 18.058 21.6269 17.9537 21.4544L20.019 19.4343C20.2268 19.6097 20.4942 19.7199 20.7898 19.7199C21.0853 19.7199 21.3527 19.6097 21.5605 19.4343L22.8607 20.7059C22.6811 20.9092 22.5684 21.1708 22.5684 21.4599C22.5684 22.0996 23.1002 22.6199 23.7542 22.6199C24.4082 22.6199 24.94 22.0996 24.94 21.4599C24.94 20.8202 24.4082 20.2999 23.7542 20.2999C23.6143 20.2999 23.4821 20.328 23.3576 20.3715L21.9023 18.9482C21.9468 18.8261 21.9755 18.6968 21.9755 18.5599C21.9755 17.9202 21.4437 17.3999 20.7898 17.3999C20.1358 17.3999 19.604 17.9202 19.604 18.5599C19.604 18.6968 19.6327 18.8261 19.6772 18.9482L17.5345 21.0443C17.3581 20.9423 17.1553 20.8799 16.936 20.8799C16.7961 20.8799 16.6638 20.908 16.5393 20.9515L15.9734 20.3982C16.0179 20.2761 16.0466 20.1468 16.0466 20.0099C16.0466 19.3702 15.5148 18.8499 14.8609 18.8499C14.2069 18.8499 13.6751 19.3702 13.6751 20.0099C13.6751 20.1468 13.7038 20.2761 13.7483 20.3982ZM12.1929 22.0399C12.1929 21.72 12.4588 21.4599 12.7858 21.4599C13.1127 21.4599 13.3786 21.72 13.3786 22.0399C13.3786 22.3598 13.1127 22.6199 12.7858 22.6199C12.4588 22.6199 12.1929 22.3598 12.1929 22.0399ZM23.7542 22.0399C23.4272 22.0399 23.1613 21.7798 23.1613 21.4599C23.1613 21.14 23.4272 20.8799 23.7542 20.8799C24.0812 20.8799 24.3471 21.14 24.3471 21.4599C24.3471 21.7798 24.0812 22.0399 23.7542 22.0399ZM21.3826 18.5599C21.3826 18.8798 21.1167 19.1399 20.7898 19.1399C20.4628 19.1399 20.1969 18.8798 20.1969 18.5599C20.1969 18.24 20.4628 17.9799 20.7898 17.9799C21.1167 17.9799 21.3826 18.24 21.3826 18.5599ZM16.936 22.6199C16.609 22.6199 16.3431 22.3598 16.3431 22.0399C16.3431 21.72 16.609 21.4599 16.936 21.4599C17.263 21.4599 17.5289 21.72 17.5289 22.0399C17.5289 22.3598 17.263 22.6199 16.936 22.6199ZM14.8609 20.5899C14.5339 20.5899 14.268 20.3298 14.268 20.0099C14.268 19.69 14.5339 19.4299 14.8609 19.4299C15.1878 19.4299 15.4538 19.69 15.4538 20.0099C15.4538 20.3298 15.1878 20.5899 14.8609 20.5899Z" fill="#FA6400"/>
<rect x="2.81995" y="7.45996" width="23.36" height="4.22" rx="0.5" stroke="#FA6400"/>
<rect x="2.81995" y="14.4199" width="5.38" height="8.28" rx="0.5" stroke="#FA6400"/>
<circle cx="2.26774" cy="2.54277" r="1.03081" fill="#FA6400"/>
<circle cx="5.42888" cy="2.54277" r="1.03081" fill="#FA6400"/>
<circle cx="8.59001" cy="2.54277" r="1.03081" fill="#FA6400"/>
</svg>
