<svg width="29" height="26" viewBox="0 0 29 26" fill="none" xmlns="http://www.w3.org/2000/svg">
<path d="M24.4313 0.5C26.3643 0.5 27.9313 2.067 27.9313 4V16.6357C27.9313 18.5687 26.3643 20.1357 24.4313 20.1357H21.8257H12.0538H9.50281C7.56981 20.1357 6.00281 18.5687 6.00281 16.6357V4C6.00281 2.067 7.56981 0.5 9.50281 0.5H24.4313Z" fill="#F9F5FF" stroke="#FA6400"/>
<path d="M15.7879 11.9229C15.9326 11.9229 16.05 11.8204 16.05 11.6936C16.05 11.5668 15.9326 11.4644 15.7879 11.4644H14.4777C14.3331 11.4644 14.2157 11.5668 14.2157 11.6936C14.2157 11.8204 14.3331 11.9229 14.4777 11.9229H15.7879Z" fill="#7B39D9"/>
<rect x="14.2157" y="12.3813" width="3.66856" height="0.458571" rx="0.229285" fill="#7B39D9"/>
<rect x="14.2157" y="13.2986" width="5.96142" height="0.458571" rx="0.229285" fill="#7B39D9"/>
<rect x="14.2157" y="15.1328" width="5.04428" height="0.458571" rx="0.229285" fill="#7B39D9"/>
<rect x="14.2157" y="16.05" width="5.04428" height="0.458571" rx="0.229285" fill="#7B39D9"/>
<rect x="14.2157" y="17.8843" width="5.04428" height="0.458571" rx="0.229285" fill="#7B39D9"/>
<rect x="14.2157" y="16.967" width="3.20999" height="0.458571" rx="0.229285" fill="#7B39D9"/>
<rect x="21.0942" y="15.1328" width="5.04428" height="0.458571" rx="0.229285" fill="#7B39D9"/>
<rect x="21.0942" y="16.05" width="5.04428" height="0.458571" rx="0.229285" fill="#7B39D9"/>
<rect x="21.0942" y="16.967" width="5.04428" height="0.458571" rx="0.229285" fill="#7B39D9"/>
<rect x="21.0942" y="17.8843" width="3.20999" height="0.458571" rx="0.229285" fill="#7B39D9"/>
<rect x="7.83704" y="6.00293" width="18.26" height="3.12713" rx="0.5" stroke="#FA6400"/>
<rect x="7.83704" y="11.5056" width="4.04428" height="6.33713" rx="0.5" stroke="#FA6400"/>
<circle cx="7.29583" cy="2.01031" r="0.814995" fill="#FA6400"/>
<circle cx="9.7951" cy="2.01031" r="0.814995" fill="#FA6400"/>
<circle cx="12.2945" cy="2.01031" r="0.814995" fill="#FA6400"/>
<path d="M21.68 2.90283C23.613 2.90283 25.18 4.46984 25.18 6.40283V19.0385C25.18 20.9715 23.613 22.5385 21.68 22.5385H19.0744H9.30247H6.75146C4.81847 22.5385 3.25146 20.9715 3.25146 19.0385V6.40283C3.25146 4.46983 4.81847 2.90283 6.75146 2.90283H21.68Z" fill="#F9F5FF" stroke="#FA5A28"/>
<path d="M13.0366 14.3258C13.1812 14.3258 13.2986 14.2233 13.2986 14.0965C13.2986 13.9697 13.1812 13.8672 13.0366 13.8672H11.7264C11.5817 13.8672 11.4644 13.9697 11.4644 14.0965C11.4644 14.2233 11.5817 14.3258 11.7264 14.3258H13.0366Z" fill="#7B39D9"/>
<rect x="11.4644" y="14.7842" width="3.66856" height="0.458571" rx="0.229285" fill="#7B39D9"/>
<rect x="11.4644" y="15.7014" width="5.96142" height="0.458571" rx="0.229285" fill="#7B39D9"/>
<rect x="11.4644" y="17.5356" width="5.04428" height="0.458571" rx="0.229285" fill="#7B39D9"/>
<rect x="11.4644" y="18.4529" width="5.04428" height="0.458571" rx="0.229285" fill="#7B39D9"/>
<rect x="11.4644" y="20.2871" width="5.04428" height="0.458571" rx="0.229285" fill="#7B39D9"/>
<rect x="11.4644" y="19.3699" width="3.20999" height="0.458571" rx="0.229285" fill="#7B39D9"/>
<rect x="18.3429" y="17.5356" width="5.04428" height="0.458571" rx="0.229285" fill="#7B39D9"/>
<rect x="18.3429" y="18.4529" width="5.04428" height="0.458571" rx="0.229285" fill="#7B39D9"/>
<rect x="18.3429" y="19.3699" width="5.04428" height="0.458571" rx="0.229285" fill="#7B39D9"/>
<rect x="18.3429" y="20.2871" width="3.20999" height="0.458571" rx="0.229285" fill="#7B39D9"/>
<rect x="5.08569" y="8.40576" width="18.26" height="3.12713" rx="0.5" stroke="#FA5A28"/>
<rect x="5.08569" y="13.9084" width="4.04428" height="6.33713" rx="0.5" stroke="#FA5A28"/>
<circle cx="4.54449" cy="4.41314" r="0.814995" fill="#FA6400"/>
<circle cx="7.04375" cy="4.41314" r="0.814995" fill="#FA6400"/>
<circle cx="9.54314" cy="4.41314" r="0.814995" fill="#FA6400"/>
<path d="M18.9285 5.1958C20.8615 5.1958 22.4285 6.7628 22.4285 8.6958V21.3315C22.4285 23.2645 20.8615 24.8315 18.9285 24.8315H16.3229H6.55101H4C2.067 24.8315 0.5 23.2645 0.5 21.3315V8.6958C0.5 6.7628 2.067 5.1958 4 5.1958H18.9285Z" fill="#F9F5FF" stroke="#FA5A28"/>
<path d="M10.2851 16.6187C10.4298 16.6187 10.5472 16.5162 10.5472 16.3894C10.5472 16.2626 10.4298 16.1602 10.2851 16.1602H8.97493C8.83028 16.1602 8.71289 16.2626 8.71289 16.3894C8.71289 16.5162 8.83028 16.6187 8.97493 16.6187H10.2851Z" fill="#7B39D9"/>
<rect x="8.71289" y="17.0771" width="3.66856" height="0.458571" rx="0.229285" fill="#FA6400"/>
<rect x="8.71289" y="17.9944" width="5.96142" height="0.458571" rx="0.229285" fill="#FA6400"/>
<rect x="8.71289" y="19.8286" width="5.04428" height="0.458571" rx="0.229285" fill="#FA6400"/>
<rect x="8.71289" y="20.7458" width="5.04428" height="0.458571" rx="0.229285" fill="#FA6400"/>
<rect x="8.71289" y="22.5801" width="5.04428" height="0.458571" rx="0.229285" fill="#FA6400"/>
<rect x="8.71289" y="21.6628" width="3.20999" height="0.458571" rx="0.229285" fill="#FA6400"/>
<rect x="15.5914" y="19.8286" width="5.04428" height="0.458571" rx="0.229285" fill="#FA6400"/>
<rect x="15.5914" y="20.7458" width="5.04428" height="0.458571" rx="0.229285" fill="#FA6400"/>
<rect x="15.5914" y="21.6628" width="5.04428" height="0.458571" rx="0.229285" fill="#FA6400"/>
<rect x="15.5914" y="22.5801" width="3.20999" height="0.458571" rx="0.229285" fill="#FA6400"/>
<rect x="2.33423" y="10.6987" width="18.26" height="3.12713" rx="0.5" stroke="#FA5A28"/>
<rect x="2.33423" y="16.2014" width="4.04428" height="6.33713" rx="0.5" stroke="#FA5A28"/>
<circle cx="1.79302" cy="6.70611" r="0.814995" fill="#FA6400"/>
<circle cx="4.29229" cy="6.70611" r="0.814995" fill="#FA6400"/>
<circle cx="6.79168" cy="6.70611" r="0.814995" fill="#FA6400"/>
</svg>
