<svg width="214" height="141" viewBox="0 0 214 141" fill="none" xmlns="http://www.w3.org/2000/svg">
<g clip-path="url(#clip0)">
<rect x="0.293213" y="69.3555" width="51.0185" height="13.001" rx="6.50048" fill="#F2F2F2"/>
<rect x="161.352" y="82.3564" width="51.0185" height="13.001" rx="6.50048" fill="#F2F2F2"/>
<path fill-rule="evenodd" clip-rule="evenodd" d="M40.3077 122.857C40.3089 129.936 36.0441 136.318 29.5022 139.028C22.9604 141.737 15.43 140.24 10.423 135.235C5.4159 130.229 3.91833 122.701 6.62867 116.161C9.33901 109.621 15.7234 105.357 22.8045 105.358C32.4706 105.36 40.3062 113.193 40.3077 122.857Z" fill="#F2F2F2"/>
<path fill-rule="evenodd" clip-rule="evenodd" d="M52.3121 32.8502C52.3132 35.8841 50.4859 38.6199 47.6825 39.7817C44.8791 40.9435 41.6516 40.3025 39.5053 38.1576C37.359 36.0127 36.7166 32.7864 37.8777 29.9833C39.0388 27.1803 41.7747 25.3525 44.8095 25.3525C48.952 25.3525 52.3106 28.7089 52.3121 32.8502Z" fill="#F2F2F2"/>
<path fill-rule="evenodd" clip-rule="evenodd" d="M168.354 130.86C168.354 135.002 164.995 138.36 160.851 138.36C156.708 138.36 153.349 135.002 153.349 130.86C153.349 126.717 156.708 123.359 160.851 123.359C164.995 123.359 168.354 126.717 168.354 130.86Z" fill="#F2F2F2"/>
<path fill-rule="evenodd" clip-rule="evenodd" d="M213.37 43.8538C213.37 57.3858 202.397 68.3556 188.862 68.3556C175.326 68.3556 164.353 57.3858 164.353 43.8538C164.353 30.3219 175.326 19.3521 188.862 19.3521C195.362 19.3521 201.596 21.9335 206.192 26.5285C210.788 31.1234 213.37 37.3556 213.37 43.8538Z" fill="#F2F2F2"/>
<path fill-rule="evenodd" clip-rule="evenodd" d="M198.365 45.3538V37.2541C198.365 35.6519 197.099 34.353 195.537 34.353H21.1278C19.5659 34.353 18.2997 35.6519 18.2997 37.2541V45.3538H198.365Z" fill="#F94F24"/>
<path fill-rule="evenodd" clip-rule="evenodd" d="M18.2997 45.354V128.537C18.2997 130.096 19.5659 131.36 21.1278 131.36H195.537C197.099 131.36 198.365 130.096 198.365 128.537V45.354H18.2997Z" fill="#E5E5E5"/>
<path fill-rule="evenodd" clip-rule="evenodd" d="M34.2068 39.5091H33.6727L33.2276 40.8144L33.1386 41.076L32.6073 39.4976H32.051L31.5169 41.1019L31.4279 40.8402L30.9828 39.5234H30.3041L30.3514 39.6672L30.521 40.1761L30.9383 41.4066L31.2387 42.3036H31.7951L32.3264 40.731L32.8577 42.3036H33.414L33.7144 41.4066L34.1289 40.1761L34.3014 39.6672L34.3486 39.5234L34.2068 39.5091ZM36.4766 41.4212L36.3932 41.4672C36.2715 41.5325 36.1461 41.5901 36.0176 41.6397C35.8913 41.6882 35.7574 41.7125 35.6226 41.7115C35.4756 41.7204 35.3296 41.6812 35.2054 41.5994C35.1246 41.5307 35.0655 41.4386 35.0357 41.3349H35.389C35.6767 41.3458 35.9628 41.2857 36.2235 41.1595C36.4797 41.0194 36.6471 40.7519 36.6659 40.4529C36.6846 40.1539 36.5519 39.8663 36.3153 39.6932C36.1014 39.5482 35.8506 39.4722 35.5948 39.4747C35.234 39.4697 34.8899 39.6322 34.6574 39.9175C34.4238 40.2146 34.304 40.5902 34.3208 40.9726C34.2996 41.3346 34.4164 41.6907 34.6463 41.9646C34.892 42.2262 35.2339 42.3674 35.5865 42.3527C35.988 42.3468 36.3797 42.2232 36.7158 41.9962L36.8049 41.9387L36.4766 41.4212ZM35.3417 40.1503C35.4097 40.1115 35.4864 40.0917 35.5642 40.0928C35.624 40.0936 35.6836 40.1003 35.7422 40.1129C35.7925 40.1229 35.8406 40.1424 35.8841 40.1704C35.9173 40.1919 35.9457 40.2203 35.9675 40.2538C35.9906 40.2979 36.0021 40.3475 36.0009 40.3976C36.0063 40.4511 35.9914 40.5048 35.9592 40.5471C35.9082 40.5949 35.8499 40.6338 35.7867 40.6621C35.6549 40.7012 35.5174 40.7158 35.3806 40.7052H34.9856C35.013 40.5646 35.0721 40.4326 35.1581 40.32C35.2103 40.2539 35.2723 40.1966 35.3417 40.1503ZM39.211 39.8629C38.8413 39.4227 38.23 39.2973 37.7256 39.5582V38.3535H37.0719V42.1975L37.1442 42.2176C37.4494 42.2997 37.7635 42.3412 38.0789 42.3413C38.4848 42.3693 38.8826 42.2141 39.1693 41.9158C39.4089 41.6218 39.5364 41.2477 39.5281 40.8635C39.5356 40.5038 39.427 40.1517 39.2194 39.8629H39.211ZM38.4711 41.6455C38.3636 41.6912 38.2478 41.7118 38.1317 41.7059C37.996 41.7044 37.8604 41.6958 37.7256 41.68V40.4984C37.7299 40.4078 37.7677 40.3223 37.8313 40.2597C37.9413 40.1284 38.1028 40.0555 38.2708 40.0614C38.4527 40.0553 38.6234 40.1523 38.7159 40.3144C38.8175 40.4874 38.8687 40.6871 38.8633 40.8894C38.8737 41.0966 38.8115 41.3008 38.688 41.4644C38.6333 41.5409 38.5618 41.603 38.4794 41.6455H38.4711ZM39.8313 39.5151H40.485V42.2925H39.8313V39.5151ZM43.5032 42.2922V40.3659C43.505 40.2227 43.4775 40.0806 43.4225 39.949C43.232 39.6167 42.8703 39.4309 42.499 39.4747C42.2052 39.4603 41.9174 39.5633 41.6951 39.7622C41.619 39.6506 41.5249 39.5533 41.4169 39.4747L41.3474 39.4258L40.9218 39.8283L41.0024 39.9059C41.0687 39.9673 41.1225 40.0415 41.161 40.1244C41.1946 40.2162 41.2107 40.3138 41.2083 40.4119V42.2951H41.862V40.4637C41.9342 40.3653 42.0216 40.2798 42.1207 40.2107C42.2258 40.1373 42.3498 40.0983 42.4767 40.0986C42.5821 40.0916 42.6862 40.1255 42.7688 40.1934C42.8105 40.2308 42.8522 40.2969 42.8522 40.4809V42.2779L43.5032 42.2922ZM44.4712 42.2263C44.8384 41.9388 45.2223 42.0653 45.6061 42.0826H45.6785C45.8896 42.0828 46.1004 42.0693 46.3099 42.0423V39.5151H45.6562V41.2402C45.6005 41.482 45.4008 41.6595 45.1611 41.6801C45.1611 41.6801 44.7188 41.7146 44.6687 41.3293V39.518H44.0206V41.4443C44.0188 41.5876 44.0463 41.7297 44.1013 41.8612C44.1819 42.0251 44.3159 42.1544 44.4796 42.2263H44.4712Z" fill="white"/>
<path fill-rule="evenodd" clip-rule="evenodd" d="M46.7713 40.5336C46.4957 40.3622 46.164 40.3105 45.8506 40.39V41.2239C45.8611 41.2087 45.8724 41.1941 45.8844 41.1802C45.8996 41.164 45.9172 41.1503 45.9366 41.1396C46.084 41.0598 46.2622 41.067 46.4031 41.1583C46.5314 41.2351 46.6016 41.383 46.5811 41.5331C46.5744 41.655 46.5175 41.7684 46.4245 41.8454C46.2532 41.9738 46.0525 42.0555 45.8414 42.0828H45.8169C45.5781 42.1057 45.3384 42.1161 45.0987 42.1141H44.9391L44.5493 42.0859H44.4081H44.3069H44.2179H44.1933C44.0477 42.1073 43.9085 42.1606 43.7851 42.2421C43.6624 42.3231 43.5578 42.4295 43.4782 42.5545C43.2524 42.9392 43.2524 43.4191 43.4782 43.8038C43.6856 44.171 44.0823 44.3838 44.4971 44.3504C44.8107 44.3392 45.1055 44.1954 45.3105 43.9537C45.5 43.7215 45.6316 43.4461 45.6941 43.151C45.7156 43.0573 45.734 42.9636 45.7463 42.8762L45.022 42.8855C45.0069 42.9647 44.9874 43.0429 44.9636 43.1198C44.9266 43.2541 44.8652 43.3801 44.7826 43.4915C44.7046 43.5823 44.594 43.6374 44.4757 43.6445C44.328 43.662 44.1844 43.5883 44.1104 43.4571C44.029 43.3086 44.029 43.1277 44.1104 42.9792C44.1231 42.9602 44.1375 42.9424 44.1534 42.9261C44.2497 42.8517 44.3711 42.8191 44.491 42.8356C44.6291 42.8356 44.7642 42.8356 44.8961 42.8356H45.0527L45.7923 42.8543C46.1927 42.8196 46.5755 42.6714 46.8972 42.4264C47.1372 42.2217 47.2847 41.9261 47.3054 41.6081C47.3449 41.1851 47.1435 40.7762 46.7867 40.5555" fill="white"/>
<path fill-rule="evenodd" clip-rule="evenodd" d="M26.1371 40.4943H22.4666C22.3752 40.4943 22.3011 40.4313 22.3011 40.3536C22.3011 40.2759 22.3752 40.2129 22.4666 40.2129H26.1371C26.2285 40.2129 26.3026 40.2759 26.3026 40.3536C26.3026 40.4313 26.2285 40.4943 26.1371 40.4943Z" fill="white"/>
<path fill-rule="evenodd" clip-rule="evenodd" d="M26.1371 41.4943H22.4666C22.3752 41.4943 22.3011 41.4313 22.3011 41.3536C22.3011 41.2759 22.3752 41.2129 22.4666 41.2129H26.1371C26.2285 41.2129 26.3026 41.2759 26.3026 41.3536C26.3026 41.4313 26.2285 41.4943 26.1371 41.4943Z" fill="white"/>
<path fill-rule="evenodd" clip-rule="evenodd" d="M26.1371 41.4943H22.4666C22.3752 41.4943 22.3011 41.4313 22.3011 41.3536C22.3011 41.2759 22.3752 41.2129 22.4666 41.2129H26.1371C26.2285 41.2129 26.3026 41.2759 26.3026 41.3536C26.3026 41.4313 26.2285 41.4943 26.1371 41.4943Z" fill="white"/>
<rect x="66.3171" y="37.3535" width="90.0326" height="5.00037" fill="#EF3B0B"/>
<path fill-rule="evenodd" clip-rule="evenodd" d="M69.8226 41.3537C69.4249 41.3558 69.0432 41.1972 68.7642 40.9138C68.3304 40.4869 68.1988 39.8397 68.4313 39.2773C68.6638 38.7149 69.2141 38.3496 69.8226 38.3535C70.2203 38.3518 70.6018 38.5104 70.8811 38.7934C71.4649 39.3783 71.4649 40.3255 70.8811 40.9104C70.6024 41.1947 70.2208 41.3545 69.8226 41.3537ZM69.8226 38.7007C69.3547 38.6996 68.9323 38.9809 68.7531 39.4131C68.5739 39.8454 68.6733 40.343 69.0047 40.6733C69.4627 41.1097 70.1826 41.1097 70.6405 40.6733C70.9745 40.3434 71.0754 39.8441 70.8959 39.4104C70.7163 38.9766 70.2921 38.6947 69.8226 38.6973V38.7007Z" fill="white"/>
<path fill-rule="evenodd" clip-rule="evenodd" d="M71.2084 41.3536C71.1782 41.3535 71.1492 41.3415 71.1278 41.3201L70.3511 40.5424C70.3078 40.4992 70.3078 40.4291 70.3511 40.3859C70.3943 40.3427 70.4645 40.3427 70.5078 40.3859L71.2868 41.1614C71.3297 41.2056 71.3297 41.2759 71.2868 41.3201C71.2661 41.3411 71.2379 41.3532 71.2084 41.3536Z" fill="white"/>
<path fill-rule="evenodd" clip-rule="evenodd" d="M195.364 40.3507C195.365 41.1602 194.878 41.8906 194.13 42.2009C193.382 42.5113 192.521 42.3403 191.948 41.7679C191.376 41.1955 191.205 40.3345 191.515 39.5869C191.826 38.8392 192.556 38.3523 193.366 38.3535C194.469 38.3535 195.364 39.2477 195.364 40.3507Z" fill="white"/>
<rect x="21.3008" y="46.354" width="58.021" height="79.0058" fill="white"/>
<rect x="21.3008" y="54.2139" width="59.0214" height="0.281414" fill="#E5E5E5"/>
<rect x="21.3008" y="62.2144" width="59.0214" height="0.281414" fill="#E5E5E5"/>
<rect x="21.3008" y="75.2153" width="59.0214" height="0.281418" fill="#E5E5E5"/>
<rect x="21.3008" y="88.2163" width="59.0214" height="0.281418" fill="#E5E5E5"/>
<rect x="21.3008" y="101.217" width="59.0214" height="0.281418" fill="#E5E5E5"/>
<rect x="21.3008" y="112.218" width="59.0214" height="0.281418" fill="#E5E5E5"/>
<rect x="21.3008" y="125.219" width="59.0214" height="0.281418" fill="#E5E5E5"/>
<rect x="79.3219" y="45.354" width="59.0214" height="4.00029" fill="#FDD4CA"/>
<rect x="79.3219" y="49.354" width="59.0214" height="1.00007" fill="#F94F24"/>
<rect x="139.344" y="45.354" width="59.0214" height="4.00029" fill="white"/>
<rect x="82.323" y="53.3545" width="112.041" height="72.0053" fill="white"/>
<rect x="82.323" y="61.2144" width="114.041" height="0.281414" fill="#E5E5E5"/>
<path fill-rule="evenodd" clip-rule="evenodd" d="M169.377 56.3545H169.354V58.6849C169.354 59.2289 169.798 59.3547 170.346 59.3547H171.364C171.912 59.3547 172.356 59.2289 172.356 58.6849V56.3671L169.377 56.3545Z" fill="#808080"/>
<path fill-rule="evenodd" clip-rule="evenodd" d="M172.041 55.6971H171.691C171.692 55.6814 171.692 55.6655 171.691 55.6498C171.691 55.493 171.572 55.3634 171.419 55.3545H170.312C170.153 55.3545 170.025 55.4867 170.025 55.6498C170.023 55.6655 170.023 55.6814 170.025 55.6971H169.675C169.498 55.6971 169.354 55.8443 169.354 56.0258C169.354 56.2074 169.498 56.3546 169.675 56.3546H172.035C172.212 56.3546 172.356 56.2074 172.356 56.0258C172.356 55.8443 172.212 55.6971 172.035 55.6971H172.041Z" fill="#808080"/>
<path fill-rule="evenodd" clip-rule="evenodd" d="M188.361 55.8545C188.361 56.1307 188.137 56.3546 187.861 56.3546C187.585 56.3546 187.361 56.1307 187.361 55.8545C187.361 55.5784 187.585 55.3545 187.861 55.3545C188.137 55.3545 188.361 55.5784 188.361 55.8545Z" fill="#808080"/>
<path fill-rule="evenodd" clip-rule="evenodd" d="M188.361 57.855C188.361 58.1312 188.137 58.3551 187.861 58.3551C187.585 58.3551 187.361 58.1312 187.361 57.855C187.361 57.5789 187.585 57.355 187.861 57.355C188.137 57.355 188.361 57.5789 188.361 57.855Z" fill="#808080"/>
<path fill-rule="evenodd" clip-rule="evenodd" d="M188.361 58.855C188.361 59.1312 188.137 59.3551 187.861 59.3551C187.585 59.3551 187.361 59.1312 187.361 58.855C187.361 58.5789 187.585 58.355 187.861 58.355C188.137 58.355 188.361 58.5789 188.361 58.855Z" fill="#808080"/>
<path fill-rule="evenodd" clip-rule="evenodd" d="M179.355 59.3074L178.358 59.3547L178.405 58.3557L180.406 56.3545L181.359 57.3062L179.355 59.3074Z" fill="#808080"/>
<path fill-rule="evenodd" clip-rule="evenodd" d="M180.138 56.1024L180.552 55.6898L181.404 56.54L180.99 56.9526L180.138 56.1024Z" fill="#808080"/>
<path fill-rule="evenodd" clip-rule="evenodd" d="M122.344 59.3551H87.3183C86.7694 59.3551 86.3243 58.9074 86.3243 58.3551C86.3243 57.8027 86.7694 57.355 87.3183 57.355H122.344C122.893 57.355 123.338 57.8027 123.338 58.3551C123.338 58.9074 122.893 59.3551 122.344 59.3551Z" fill="#E5E5E5"/>
<path fill-rule="evenodd" clip-rule="evenodd" d="M133.335 59.3551H128.346C127.79 59.3551 127.339 58.9074 127.339 58.3551C127.339 57.8027 127.79 57.355 128.346 57.355H133.335C133.891 57.355 134.342 57.8027 134.342 58.3551C134.342 58.9074 133.891 59.3551 133.335 59.3551Z" fill="#E5E5E5"/>
<path fill-rule="evenodd" clip-rule="evenodd" d="M36.2768 50.3541H26.332C25.7633 50.3541 25.3022 49.9064 25.3022 49.3541C25.3022 48.8018 25.7633 48.354 26.332 48.354H36.2768C36.8455 48.354 37.3066 48.8018 37.3066 49.3541C37.3066 49.9064 36.8455 50.3541 36.2768 50.3541Z" fill="#E5E5E5"/>
<path fill-rule="evenodd" clip-rule="evenodd" d="M44.3407 50.3541H41.2765C40.7415 50.3541 40.3077 49.9064 40.3077 49.3541C40.3077 48.8018 40.7415 48.354 41.2765 48.354H44.3407C44.8758 48.354 45.3096 48.8018 45.3096 49.3541C45.3096 49.9064 44.8758 50.3541 44.3407 50.3541Z" fill="#E5E5E5"/>
<path fill-rule="evenodd" clip-rule="evenodd" d="M40.7348 67.3555H23.8748C23.5582 67.3555 23.3015 67.1317 23.3015 66.8555C23.3015 66.5793 23.5582 66.3555 23.8748 66.3555H40.7348C41.0514 66.3555 41.308 66.5793 41.308 66.8555C41.308 67.1317 41.0514 67.3555 40.7348 67.3555Z" fill="#B3B3B3"/>
<path fill-rule="evenodd" clip-rule="evenodd" d="M35.7062 69.3555H23.9015C23.5701 69.3555 23.3015 69.1317 23.3015 68.8555C23.3015 68.5793 23.5701 68.3555 23.9015 68.3555H35.7062C36.0376 68.3555 36.3062 68.5793 36.3062 68.8555C36.3062 69.1317 36.0376 69.3555 35.7062 69.3555Z" fill="#CCCCCC"/>
<path fill-rule="evenodd" clip-rule="evenodd" d="M62.7458 73.356H23.8717C23.5568 73.356 23.3015 73.1322 23.3015 72.856C23.3015 72.5798 23.5568 72.356 23.8717 72.356H62.7458C63.0607 72.356 63.316 72.5798 63.316 72.856C63.316 73.1322 63.0607 73.356 62.7458 73.356Z" fill="#E5E5E5"/>
<path fill-rule="evenodd" clip-rule="evenodd" d="M40.7348 79.3565H23.8748C23.5582 79.3565 23.3015 79.1326 23.3015 78.8565C23.3015 78.5803 23.5582 78.3564 23.8748 78.3564H40.7348C41.0514 78.3564 41.308 78.5803 41.308 78.8565C41.308 79.1326 41.0514 79.3565 40.7348 79.3565Z" fill="#B3B3B3"/>
<path fill-rule="evenodd" clip-rule="evenodd" d="M35.7062 82.3565H23.9015C23.5701 82.3565 23.3015 82.1326 23.3015 81.8565C23.3015 81.5803 23.5701 81.3564 23.9015 81.3564H35.7062C36.0376 81.3564 36.3062 81.5803 36.3062 81.8565C36.3062 82.1326 36.0376 82.3565 35.7062 82.3565Z" fill="#CCCCCC"/>
<path fill-rule="evenodd" clip-rule="evenodd" d="M62.7458 85.357H23.8717C23.5568 85.357 23.3015 85.1331 23.3015 84.857C23.3015 84.5808 23.5568 84.3569 23.8717 84.3569H62.7458C63.0607 84.3569 63.316 84.5808 63.316 84.857C63.316 85.1331 63.0607 85.357 62.7458 85.357Z" fill="#E5E5E5"/>
<path fill-rule="evenodd" clip-rule="evenodd" d="M40.7348 91.357H23.8748C23.5582 91.357 23.3015 91.1331 23.3015 90.857C23.3015 90.5808 23.5582 90.3569 23.8748 90.3569H40.7348C41.0514 90.3569 41.308 90.5808 41.308 90.857C41.308 91.1331 41.0514 91.357 40.7348 91.357Z" fill="#B3B3B3"/>
<path fill-rule="evenodd" clip-rule="evenodd" d="M35.7062 94.3575H23.9015C23.5701 94.3575 23.3015 94.1336 23.3015 93.8575C23.3015 93.5813 23.5701 93.3574 23.9015 93.3574H35.7062C36.0376 93.3574 36.3062 93.5813 36.3062 93.8575C36.3062 94.1336 36.0376 94.3575 35.7062 94.3575Z" fill="#CCCCCC"/>
<path fill-rule="evenodd" clip-rule="evenodd" d="M62.7458 98.358H23.8717C23.5568 98.358 23.3015 98.1341 23.3015 97.8579C23.3015 97.5818 23.5568 97.3579 23.8717 97.3579H62.7458C63.0607 97.3579 63.316 97.5818 63.316 97.8579C63.316 98.1341 63.0607 98.358 62.7458 98.358Z" fill="#E5E5E5"/>
<path fill-rule="evenodd" clip-rule="evenodd" d="M40.7348 103.358H23.8748C23.5582 103.358 23.3015 103.134 23.3015 102.858C23.3015 102.582 23.5582 102.358 23.8748 102.358H40.7348C41.0514 102.358 41.308 102.582 41.308 102.858C41.308 103.134 41.0514 103.358 40.7348 103.358Z" fill="#B3B3B3"/>
<path fill-rule="evenodd" clip-rule="evenodd" d="M35.7062 107.358H23.9015C23.5701 107.358 23.3015 107.135 23.3015 106.858C23.3015 106.582 23.5701 106.358 23.9015 106.358H35.7062C36.0376 106.358 36.3062 106.582 36.3062 106.858C36.3062 107.135 36.0376 107.358 35.7062 107.358Z" fill="#CCCCCC"/>
<path fill-rule="evenodd" clip-rule="evenodd" d="M62.7458 110.358H23.8717C23.5568 110.358 23.3015 110.135 23.3015 109.858C23.3015 109.582 23.5568 109.358 23.8717 109.358H62.7458C63.0607 109.358 63.316 109.582 63.316 109.858C63.316 110.135 63.0607 110.358 62.7458 110.358Z" fill="#E5E5E5"/>
<path fill-rule="evenodd" clip-rule="evenodd" d="M40.7348 116.359H23.8748C23.5582 116.359 23.3015 116.135 23.3015 115.859C23.3015 115.583 23.5582 115.359 23.8748 115.359H40.7348C41.0514 115.359 41.308 115.583 41.308 115.859C41.308 116.135 41.0514 116.359 40.7348 116.359Z" fill="#B3B3B3"/>
<path fill-rule="evenodd" clip-rule="evenodd" d="M35.7062 119.359H23.9015C23.5701 119.359 23.3015 119.136 23.3015 118.859C23.3015 118.583 23.5701 118.359 23.9015 118.359H35.7062C36.0376 118.359 36.3062 118.583 36.3062 118.859C36.3062 119.136 36.0376 119.359 35.7062 119.359Z" fill="#CCCCCC"/>
<path fill-rule="evenodd" clip-rule="evenodd" d="M62.7458 123.359H23.8717C23.5568 123.359 23.3015 123.136 23.3015 122.859C23.3015 122.583 23.5568 122.359 23.8717 122.359H62.7458C63.0607 122.359 63.316 122.583 63.316 122.859C63.316 123.136 63.0607 123.359 62.7458 123.359Z" fill="#E5E5E5"/>
<rect x="82.323" y="120.359" width="112.041" height="5.00037" fill="#CCCCCC"/>
<path fill-rule="evenodd" clip-rule="evenodd" d="M74.7914 73.356H70.8476C70.5555 73.356 70.3186 73.1322 70.3186 72.856C70.3186 72.5798 70.5555 72.356 70.8476 72.356H74.7914C75.0836 72.356 75.3204 72.5798 75.3204 72.856C75.3204 73.1322 75.0836 73.356 74.7914 73.356Z" fill="#E5E5E5"/>
<path fill-rule="evenodd" clip-rule="evenodd" d="M74.7914 85.357H70.8476C70.5555 85.357 70.3186 85.1331 70.3186 84.857C70.3186 84.5808 70.5555 84.3569 70.8476 84.3569H74.7914C75.0836 84.3569 75.3204 84.5808 75.3204 84.857C75.3204 85.1331 75.0836 85.357 74.7914 85.357Z" fill="#E5E5E5"/>
<path fill-rule="evenodd" clip-rule="evenodd" d="M74.7914 98.358H70.8476C70.5555 98.358 70.3186 98.1341 70.3186 97.8579C70.3186 97.5818 70.5555 97.3579 70.8476 97.3579H74.7914C75.0836 97.3579 75.3204 97.5818 75.3204 97.8579C75.3204 98.1341 75.0836 98.358 74.7914 98.358Z" fill="#E5E5E5"/>
<path fill-rule="evenodd" clip-rule="evenodd" d="M74.7914 110.358H70.8476C70.5555 110.358 70.3186 110.135 70.3186 109.858C70.3186 109.582 70.5555 109.358 70.8476 109.358H74.7914C75.0836 109.358 75.3204 109.582 75.3204 109.858C75.3204 110.135 75.0836 110.358 74.7914 110.358Z" fill="#E5E5E5"/>
<path fill-rule="evenodd" clip-rule="evenodd" d="M74.7914 123.359H70.8476C70.5555 123.359 70.3186 123.136 70.3186 122.859C70.3186 122.583 70.5555 122.359 70.8476 122.359H74.7914C75.0836 122.359 75.3204 122.583 75.3204 122.859C75.3204 123.136 75.0836 123.359 74.7914 123.359Z" fill="#E5E5E5"/>
<path fill-rule="evenodd" clip-rule="evenodd" d="M195.326 127.866C197.325 125.872 197.325 122.639 195.326 120.646C193.327 118.652 190.086 118.652 188.087 120.646C186.088 122.639 186.088 125.872 188.087 127.866C190.086 129.86 193.327 129.86 195.326 127.866Z" fill="#1EC4A7"/>
<path fill-rule="evenodd" clip-rule="evenodd" d="M166.353 70.3531C166.354 71.1497 166.005 71.9139 165.384 72.4772C164.762 73.0404 163.919 73.3566 163.04 73.3559H116.644C114.816 73.3559 113.334 72.0127 113.334 70.3557C113.334 69.56 113.683 68.7969 114.304 68.2342C114.925 67.6716 115.766 67.3555 116.644 67.3555H163.04C163.919 67.3548 164.762 67.6706 165.383 68.2333C166.004 68.796 166.353 69.5595 166.353 70.3557V70.3531Z" fill="#808080"/>
<path fill-rule="evenodd" clip-rule="evenodd" d="M160.794 77.356H118.894C118.586 77.356 118.336 77.1322 118.336 76.856C118.336 76.5798 118.586 76.356 118.894 76.356H160.794C161.102 76.356 161.352 76.5798 161.352 76.856C161.352 77.1322 161.102 77.356 160.794 77.356Z" fill="#808080"/>
<path fill-rule="evenodd" clip-rule="evenodd" d="M151.781 80.3565H128.907C128.593 80.3565 128.34 80.1326 128.34 79.8565C128.34 79.5803 128.593 79.3564 128.907 79.3564H151.781C152.094 79.3564 152.348 79.5803 152.348 79.8565C152.348 80.1326 152.094 80.3565 151.781 80.3565Z" fill="#808080"/>
<path fill-rule="evenodd" clip-rule="evenodd" d="M107.78 100.358H93.8791C93.5741 100.358 93.3269 100.134 93.3269 99.8579C93.3269 99.5818 93.5741 99.3579 93.8791 99.3579H107.78C108.085 99.3579 108.332 99.5818 108.332 99.8579C108.332 100.134 108.085 100.358 107.78 100.358Z" fill="#808080"/>
<path fill-rule="evenodd" clip-rule="evenodd" d="M116.056 103.358H93.6058C93.4518 103.358 93.3269 103.134 93.3269 102.858C93.3269 102.582 93.4518 102.358 93.6058 102.358H116.056C116.21 102.358 116.335 102.582 116.335 102.858C116.335 103.134 116.21 103.358 116.056 103.358Z" fill="#C4C4C4"/>
<path fill-rule="evenodd" clip-rule="evenodd" d="M116.056 107.358H93.6058C93.4518 107.358 93.3269 107.135 93.3269 106.858C93.3269 106.582 93.4518 106.358 93.6058 106.358H116.056C116.21 106.358 116.335 106.582 116.335 106.858C116.335 107.135 116.21 107.358 116.056 107.358Z" fill="#C4C4C4"/>
<path fill-rule="evenodd" clip-rule="evenodd" d="M116.056 111.358H93.6058C93.4518 111.358 93.3269 111.135 93.3269 110.858C93.3269 110.582 93.4518 110.358 93.6058 110.358H116.056C116.21 110.358 116.335 110.582 116.335 110.858C116.335 111.135 116.21 111.358 116.056 111.358Z" fill="#C4C4C4"/>
<path fill-rule="evenodd" clip-rule="evenodd" d="M108.065 115.359H94.5948C94.447 115.359 94.3273 115.135 94.3273 114.859C94.3273 114.583 94.447 114.359 94.5948 114.359H108.065C108.213 114.359 108.332 114.583 108.332 114.859C108.332 115.135 108.213 115.359 108.065 115.359Z" fill="#C4C4C4"/>
<path fill-rule="evenodd" clip-rule="evenodd" d="M143.793 100.358H129.892C129.587 100.358 129.34 100.134 129.34 99.8579C129.34 99.5818 129.587 99.3579 129.892 99.3579H143.793C144.098 99.3579 144.345 99.5818 144.345 99.8579C144.345 100.134 144.098 100.358 143.793 100.358Z" fill="#808080"/>
<path fill-rule="evenodd" clip-rule="evenodd" d="M152.069 103.358H129.619C129.465 103.358 129.34 103.134 129.34 102.858C129.34 102.582 129.465 102.358 129.619 102.358H152.069C152.223 102.358 152.348 102.582 152.348 102.858C152.348 103.134 152.223 103.358 152.069 103.358Z" fill="#C4C4C4"/>
<path fill-rule="evenodd" clip-rule="evenodd" d="M152.069 107.358H129.619C129.465 107.358 129.34 107.135 129.34 106.858C129.34 106.582 129.465 106.358 129.619 106.358H152.069C152.223 106.358 152.348 106.582 152.348 106.858C152.348 107.135 152.223 107.358 152.069 107.358Z" fill="#C4C4C4"/>
<path fill-rule="evenodd" clip-rule="evenodd" d="M152.069 111.358H129.619C129.465 111.358 129.34 111.135 129.34 110.858C129.34 110.582 129.465 110.358 129.619 110.358H152.069C152.223 110.358 152.348 110.582 152.348 110.858C152.348 111.135 152.223 111.358 152.069 111.358Z" fill="#C4C4C4"/>
<path fill-rule="evenodd" clip-rule="evenodd" d="M143.078 115.359H129.607C129.46 115.359 129.34 115.135 129.34 114.859C129.34 114.583 129.46 114.359 129.607 114.359H143.078C143.225 114.359 143.345 114.583 143.345 114.859C143.345 115.135 143.225 115.359 143.078 115.359Z" fill="#C4C4C4"/>
<path fill-rule="evenodd" clip-rule="evenodd" d="M178.806 100.358H164.905C164.6 100.358 164.353 100.134 164.353 99.8579C164.353 99.5818 164.6 99.3579 164.905 99.3579H178.806C179.111 99.3579 179.358 99.5818 179.358 99.8579C179.358 100.134 179.111 100.358 178.806 100.358Z" fill="#808080"/>
<path fill-rule="evenodd" clip-rule="evenodd" d="M187.082 103.358H164.632C164.478 103.358 164.353 103.134 164.353 102.858C164.353 102.582 164.478 102.358 164.632 102.358H187.082C187.236 102.358 187.361 102.582 187.361 102.858C187.361 103.134 187.236 103.358 187.082 103.358Z" fill="#C4C4C4"/>
<path fill-rule="evenodd" clip-rule="evenodd" d="M187.082 107.358H164.632C164.478 107.358 164.353 107.135 164.353 106.858C164.353 106.582 164.478 106.358 164.632 106.358H187.082C187.236 106.358 187.361 106.582 187.361 106.858C187.361 107.135 187.236 107.358 187.082 107.358Z" fill="#C4C4C4"/>
<path fill-rule="evenodd" clip-rule="evenodd" d="M187.082 111.358H164.632C164.478 111.358 164.353 111.135 164.353 110.858C164.353 110.582 164.478 110.358 164.632 110.358H187.082C187.236 110.358 187.361 110.582 187.361 110.858C187.361 111.135 187.236 111.358 187.082 111.358Z" fill="#C4C4C4"/>
<path fill-rule="evenodd" clip-rule="evenodd" d="M178.09 115.359H164.62C164.472 115.359 164.353 115.135 164.353 114.859C164.353 114.583 164.472 114.359 164.62 114.359H178.09C178.238 114.359 178.358 114.583 178.358 114.859C178.358 115.135 178.238 115.359 178.09 115.359Z" fill="#C4C4C4"/>
<rect x="94.3273" y="83.3564" width="22.008" height="12.0009" fill="#E9E9E9"/>
<rect x="128.34" y="83.3564" width="22.008" height="12.0009" fill="#E9E9E9"/>
<rect x="165.353" y="83.3564" width="22.008" height="12.0009" fill="#E9E9E9"/>
<path fill-rule="evenodd" clip-rule="evenodd" d="M108.123 39.9102L49.2858 39.9115L85.5276 20.2929L108.123 39.9102Z" fill="#7B39D9" fill-opacity="0.6"/>
<g filter="url(#filter0_d)">
<path fill-rule="evenodd" clip-rule="evenodd" d="M107.332 48.3541C120.592 48.3541 131.341 37.6081 131.341 24.3523C131.341 11.0965 120.592 0.350586 107.332 0.350586C94.0723 0.350586 83.3232 11.0965 83.3232 24.3523C83.3232 37.6081 94.0723 48.3541 107.332 48.3541Z" fill="white"/>
<path d="M107.332 47.8541C106.988 47.8541 106.646 47.8467 106.305 47.8321L106.284 48.3316C105.58 48.3014 104.884 48.2409 104.197 48.1513L104.261 47.6555C103.578 47.5664 102.905 47.4481 102.242 47.3018L102.134 47.7901C101.448 47.6388 100.773 47.4581 100.111 47.2496L100.261 46.7727C99.6061 46.5664 98.9633 46.3321 98.3343 46.0714L98.1428 46.5333C97.4954 46.2649 96.8623 45.9691 96.2449 45.6472L96.4761 45.2038C95.8683 44.8869 95.2761 44.5442 94.7009 44.1772L94.4319 44.5987C93.8423 44.2224 93.2702 43.8212 92.7172 43.3963L93.0217 42.9998C92.4789 42.5829 91.9549 42.1428 91.451 41.681L91.1132 42.0497C90.5982 41.5778 90.104 41.0837 89.6318 40.569L90.0003 40.231C89.5383 39.7273 89.098 39.2034 88.6809 38.6608L88.2845 38.9656C87.8594 38.4127 87.4579 37.8407 87.0814 37.2513L87.5028 36.9821C87.1355 36.4071 86.7926 35.815 86.4755 35.2073L86.0322 35.4387C85.7101 34.8214 85.4141 34.1884 85.1455 33.5411L85.6073 33.3495C85.3464 32.7205 85.112 32.0778 84.9056 31.4227L84.4287 31.573C84.22 30.9107 84.0392 30.236 83.8878 29.5502L84.376 29.4424C84.2296 28.7794 84.1111 28.1058 84.022 27.4229L83.5262 27.4876C83.4366 26.8006 83.376 26.1045 83.3457 25.4005L83.8453 25.379C83.8306 25.0386 83.8232 24.6964 83.8232 24.3523C83.8232 24.0083 83.8306 23.666 83.8453 23.3257L83.3457 23.3042C83.376 22.6002 83.4366 21.9041 83.5262 21.217L84.022 21.2817C84.1111 20.5989 84.2296 19.9253 84.376 19.2623L83.8878 19.1544C84.0392 18.4687 84.22 17.794 84.4287 17.1317L84.9056 17.282C85.112 16.6269 85.3464 15.9842 85.6073 15.3552L85.1455 15.1636C85.4141 14.5163 85.7101 13.8833 86.0322 13.266L86.4755 13.4974C86.7926 12.8897 87.1355 12.2976 87.5028 11.7225L87.0814 11.4534C87.4579 10.864 87.8594 10.292 88.2845 9.73913L88.6809 10.0439C89.098 9.50128 89.5383 8.97739 90.0003 8.47369L89.6318 8.13572C90.104 7.621 90.5982 7.12693 91.1132 6.65503L91.451 7.02366C91.9549 6.56188 92.4789 6.1218 93.0217 5.70487L92.7172 5.30834C93.2702 4.88352 93.8423 4.48224 94.4319 4.10599L94.7009 4.52749C95.2761 4.16044 95.8683 3.81775 96.4761 3.50085L96.2449 3.05749C96.8623 2.73559 97.4954 2.43974 98.1428 2.17138L98.3343 2.63328C98.9633 2.37254 99.6061 2.13832 100.261 1.93203L100.111 1.45511C100.773 1.24656 101.448 1.06593 102.134 0.91462L102.242 1.40288C102.905 1.25657 103.578 1.13824 104.261 1.0492L104.197 0.553398C104.884 0.463821 105.58 0.40328 106.284 0.373048L106.305 0.872588C106.646 0.857971 106.988 0.850586 107.332 0.850586C107.676 0.850586 108.018 0.857971 108.359 0.872587L108.38 0.373048C109.084 0.40328 109.78 0.463821 110.467 0.553398L110.403 1.0492C111.085 1.13824 111.759 1.25657 112.422 1.40287L112.53 0.91462C113.216 1.06593 113.89 1.24656 114.553 1.45511L114.403 1.93203C115.058 2.13833 115.701 2.37254 116.33 2.63328L116.521 2.17138C117.168 2.43974 117.802 2.73559 118.419 3.05749L118.188 3.50085C118.796 3.81775 119.388 4.16044 119.963 4.52749L120.232 4.10599C120.822 4.48224 121.394 4.88352 121.947 5.30834L121.642 5.70486C122.185 6.1218 122.709 6.56188 123.213 7.02366L123.551 6.65503C124.066 7.12693 124.56 7.621 125.032 8.13571L124.664 8.47369C125.126 8.97739 125.566 9.50128 125.983 10.0439L126.379 9.73913C126.804 10.292 127.206 10.864 127.582 11.4534L127.161 11.7225C127.528 12.2976 127.871 12.8897 128.188 13.4974L128.632 13.266C128.954 13.8833 129.25 14.5163 129.518 15.1636L129.057 15.3552C129.317 15.9842 129.552 16.6269 129.758 17.282L130.235 17.1317C130.444 17.794 130.625 18.4687 130.776 19.1544L130.288 19.2623C130.434 19.9253 130.553 20.5989 130.642 21.2817L131.138 21.217C131.227 21.9041 131.288 22.6002 131.318 23.3042L130.819 23.3257C130.833 23.666 130.841 24.0083 130.841 24.3523C130.841 24.6964 130.833 25.0386 130.819 25.379L131.318 25.4005C131.288 26.1045 131.227 26.8006 131.138 27.4876L130.642 27.4229C130.553 28.1058 130.434 28.7794 130.288 29.4424L130.776 29.5502C130.625 30.236 130.444 30.9107 130.235 31.573L129.758 31.4227C129.552 32.0778 129.317 32.7205 129.057 33.3495L129.518 33.5411C129.25 34.1884 128.954 34.8214 128.632 35.4387L128.188 35.2073C127.871 35.815 127.528 36.4071 127.161 36.9821L127.582 37.2513C127.206 37.8407 126.804 38.4127 126.379 38.9656L125.983 38.6608C125.566 39.2034 125.126 39.7273 124.664 40.231L125.032 40.569C124.56 41.0837 124.066 41.5778 123.551 42.0497L123.213 41.681C122.709 42.1428 122.185 42.5829 121.642 42.9998L121.947 43.3963C121.394 43.8212 120.822 44.2224 120.232 44.5987L119.963 44.1772C119.388 44.5442 118.796 44.8869 118.188 45.2038L118.419 45.6472C117.802 45.9691 117.168 46.2649 116.521 46.5333L116.33 46.0714C115.701 46.3321 115.058 46.5664 114.403 46.7727L114.553 47.2496C113.89 47.4581 113.216 47.6388 112.53 47.7901L112.422 47.3018C111.759 47.4481 111.085 47.5664 110.403 47.6555L110.467 48.1513C109.78 48.2409 109.084 48.3014 108.38 48.3316L108.359 47.8321C108.018 47.8467 107.676 47.8541 107.332 47.8541Z" stroke="#FA5A28" stroke-dasharray="2 2"/>
</g>
<path d="M97.3735 23.3525V21.0325L95.4035 16.8325H96.9835L97.5635 18.3325C97.6569 18.5792 97.7435 18.8192 97.8235 19.0525C97.9102 19.2792 98.0002 19.5192 98.0935 19.7725H98.1335C98.2269 19.5192 98.3169 19.2792 98.4035 19.0525C98.4969 18.8192 98.5902 18.5792 98.6835 18.3325L99.2735 16.8325H100.814L98.8435 21.0325V23.3525H97.3735ZM103.982 23.4725C103.542 23.4725 103.138 23.3959 102.772 23.2425C102.412 23.0825 102.102 22.8559 101.842 22.5625C101.582 22.2692 101.378 21.9125 101.232 21.4925C101.092 21.0725 101.022 20.5959 101.022 20.0625C101.022 19.5292 101.092 19.0559 101.232 18.6425C101.378 18.2225 101.582 17.8725 101.842 17.5925C102.102 17.3059 102.412 17.0892 102.772 16.9425C103.138 16.7892 103.542 16.7125 103.982 16.7125C104.422 16.7125 104.822 16.7892 105.182 16.9425C105.548 17.0892 105.862 17.3059 106.122 17.5925C106.382 17.8792 106.582 18.2325 106.722 18.6525C106.868 19.0659 106.942 19.5359 106.942 20.0625C106.942 20.5959 106.868 21.0725 106.722 21.4925C106.582 21.9125 106.382 22.2692 106.122 22.5625C105.862 22.8559 105.548 23.0825 105.182 23.2425C104.822 23.3959 104.422 23.4725 103.982 23.4725ZM103.982 22.2025C104.428 22.2025 104.782 22.0125 105.042 21.6325C105.302 21.2459 105.432 20.7225 105.432 20.0625C105.432 19.4092 105.302 18.8992 105.042 18.5325C104.782 18.1659 104.428 17.9825 103.982 17.9825C103.535 17.9825 103.182 18.1659 102.922 18.5325C102.662 18.8992 102.532 19.4092 102.532 20.0625C102.532 20.7225 102.662 21.2459 102.922 21.6325C103.182 22.0125 103.535 22.2025 103.982 22.2025ZM110.738 23.4725C109.891 23.4725 109.244 23.2225 108.798 22.7225C108.351 22.2225 108.128 21.4259 108.128 20.3325V16.8325H109.608V20.4825C109.608 21.1225 109.704 21.5692 109.898 21.8225C110.091 22.0759 110.371 22.2025 110.738 22.2025C111.104 22.2025 111.388 22.0759 111.588 21.8225C111.788 21.5692 111.888 21.1225 111.888 20.4825V16.8325H113.308V20.3325C113.308 21.4259 113.088 22.2225 112.648 22.7225C112.214 23.2225 111.578 23.4725 110.738 23.4725ZM114.818 23.3525V16.8325H117.168C117.515 16.8325 117.838 16.8659 118.138 16.9325C118.445 16.9992 118.711 17.1125 118.938 17.2725C119.165 17.4259 119.345 17.6325 119.478 17.8925C119.611 18.1525 119.678 18.4759 119.678 18.8625C119.678 19.3425 119.571 19.7392 119.358 20.0525C119.151 20.3592 118.871 20.5892 118.518 20.7425L119.998 23.3525H118.348L117.098 21.0025H116.288V23.3525H114.818ZM116.288 19.8325H117.048C117.435 19.8325 117.728 19.7525 117.928 19.5925C118.135 19.4259 118.238 19.1825 118.238 18.8625C118.238 18.5425 118.135 18.3192 117.928 18.1925C117.728 18.0659 117.435 18.0025 117.048 18.0025H116.288V19.8325ZM96.1705 33.3525V26.8325H97.6405V32.1125H100.221V33.3525H96.1705ZM103.635 33.4725C103.195 33.4725 102.792 33.3959 102.425 33.2425C102.065 33.0825 101.755 32.8559 101.495 32.5625C101.235 32.2692 101.032 31.9125 100.885 31.4925C100.745 31.0725 100.675 30.5959 100.675 30.0625C100.675 29.5292 100.745 29.0559 100.885 28.6425C101.032 28.2225 101.235 27.8725 101.495 27.5925C101.755 27.3059 102.065 27.0892 102.425 26.9425C102.792 26.7892 103.195 26.7125 103.635 26.7125C104.075 26.7125 104.475 26.7892 104.835 26.9425C105.202 27.0892 105.515 27.3059 105.775 27.5925C106.035 27.8792 106.235 28.2325 106.375 28.6525C106.522 29.0659 106.595 29.5359 106.595 30.0625C106.595 30.5959 106.522 31.0725 106.375 31.4925C106.235 31.9125 106.035 32.2692 105.775 32.5625C105.515 32.8559 105.202 33.0825 104.835 33.2425C104.475 33.3959 104.075 33.4725 103.635 33.4725ZM103.635 32.2025C104.082 32.2025 104.435 32.0125 104.695 31.6325C104.955 31.2459 105.085 30.7225 105.085 30.0625C105.085 29.4092 104.955 28.8992 104.695 28.5325C104.435 28.1659 104.082 27.9825 103.635 27.9825C103.188 27.9825 102.835 28.1659 102.575 28.5325C102.315 28.8992 102.185 29.4092 102.185 30.0625C102.185 30.7225 102.315 31.2459 102.575 31.6325C102.835 32.0125 103.188 32.2025 103.635 32.2025ZM110.701 33.4725C110.254 33.4725 109.834 33.4025 109.441 33.2625C109.054 33.1159 108.718 32.9025 108.431 32.6225C108.144 32.3425 107.918 31.9959 107.751 31.5825C107.591 31.1625 107.511 30.6792 107.511 30.1325C107.511 29.5925 107.594 29.1125 107.761 28.6925C107.928 28.2659 108.154 27.9059 108.441 27.6125C108.734 27.3192 109.074 27.0959 109.461 26.9425C109.848 26.7892 110.258 26.7125 110.691 26.7125C111.164 26.7125 111.571 26.7992 111.911 26.9725C112.251 27.1459 112.528 27.3425 112.741 27.5625L111.971 28.5025C111.804 28.3559 111.628 28.2325 111.441 28.1325C111.254 28.0325 111.021 27.9825 110.741 27.9825C110.488 27.9825 110.254 28.0325 110.041 28.1325C109.834 28.2259 109.654 28.3625 109.501 28.5425C109.348 28.7225 109.228 28.9425 109.141 29.2025C109.061 29.4625 109.021 29.7559 109.021 30.0825C109.021 30.7559 109.171 31.2792 109.471 31.6525C109.778 32.0192 110.238 32.2025 110.851 32.2025C110.984 32.2025 111.114 32.1859 111.241 32.1525C111.368 32.1192 111.471 32.0692 111.551 32.0025V30.8825H110.471V29.6825H112.851V32.6825C112.624 32.9025 112.324 33.0892 111.951 33.2425C111.578 33.3959 111.161 33.4725 110.701 33.4725ZM116.848 33.4725C116.408 33.4725 116.005 33.3959 115.638 33.2425C115.278 33.0825 114.968 32.8559 114.708 32.5625C114.448 32.2692 114.245 31.9125 114.098 31.4925C113.958 31.0725 113.888 30.5959 113.888 30.0625C113.888 29.5292 113.958 29.0559 114.098 28.6425C114.245 28.2225 114.448 27.8725 114.708 27.5925C114.968 27.3059 115.278 27.0892 115.638 26.9425C116.005 26.7892 116.408 26.7125 116.848 26.7125C117.288 26.7125 117.688 26.7892 118.048 26.9425C118.415 27.0892 118.728 27.3059 118.988 27.5925C119.248 27.8792 119.448 28.2325 119.588 28.6525C119.735 29.0659 119.808 29.5359 119.808 30.0625C119.808 30.5959 119.735 31.0725 119.588 31.4925C119.448 31.9125 119.248 32.2692 118.988 32.5625C118.728 32.8559 118.415 33.0825 118.048 33.2425C117.688 33.3959 117.288 33.4725 116.848 33.4725ZM116.848 32.2025C117.295 32.2025 117.648 32.0125 117.908 31.6325C118.168 31.2459 118.298 30.7225 118.298 30.0625C118.298 29.4092 118.168 28.8992 117.908 28.5325C117.648 28.1659 117.295 27.9825 116.848 27.9825C116.401 27.9825 116.048 28.1659 115.788 28.5325C115.528 28.8992 115.398 29.4092 115.398 30.0625C115.398 30.7225 115.528 31.2459 115.788 31.6325C116.048 32.0125 116.401 32.2025 116.848 32.2025Z" fill="#FA5A28"/>
</g>
<defs>
<filter id="filter0_d" x="76.3232" y="-6.64941" width="62.0174" height="62.0035" filterUnits="userSpaceOnUse" color-interpolation-filters="sRGB">
<feFlood flood-opacity="0" result="BackgroundImageFix"/>
<feColorMatrix in="SourceAlpha" type="matrix" values="0 0 0 0 0 0 0 0 0 0 0 0 0 0 0 0 0 0 127 0"/>
<feOffset/>
<feGaussianBlur stdDeviation="3.5"/>
<feColorMatrix type="matrix" values="0 0 0 0 0 0 0 0 0 0 0 0 0 0 0 0 0 0 0.2 0"/>
<feBlend mode="normal" in2="BackgroundImageFix" result="effect1_dropShadow"/>
<feBlend mode="normal" in="SourceGraphic" in2="effect1_dropShadow" result="shape"/>
</filter>
<clipPath id="clip0">
<rect width="213.077" height="140.01" fill="white" transform="translate(0.293213 0.350586)"/>
</clipPath>
</defs>
</svg>
