<svg width="200" height="143" viewBox="0 0 200 143" fill="none" xmlns="http://www.w3.org/2000/svg">
<path fill-rule="evenodd" clip-rule="evenodd" d="M33.8487 22.3995C33.4475 22.1573 33.5364 21.3981 34.1179 21.3981H52.5074C52.3596 12.3506 46.6258 4.33955 38.1089 1.28094C29.592 -1.77768 20.0709 0.755018 14.1999 7.64095C8.32884 14.5269 7.33418 24.3278 11.7021 32.2526C16.07 40.1775 24.8882 44.571 33.846 43.2854L33.8487 22.3995Z" fill="#F2F2F2"/>
<path fill-rule="evenodd" clip-rule="evenodd" d="M66.7394 126.188L43.6085 37.0491C42.8446 34.1056 45.0101 31.0132 48.4885 30.0793L138.198 6.0102C139.968 5.53528 141.838 5.69598 143.366 6.45432C144.894 7.21214 145.942 8.50085 146.264 10.0144L167.107 108.075C167.425 109.572 167.004 111.158 165.942 112.464C164.879 113.771 163.268 114.685 161.481 114.994L74.061 130.141C70.6561 130.731 67.4721 129.012 66.7394 126.188V126.188Z" stroke="#FA5A28" stroke-dasharray="5 2"/>
<path fill-rule="evenodd" clip-rule="evenodd" d="M53.5861 108.378L65.7718 16.4859C66.1742 13.4515 68.9931 11.3273 72.1245 11.699L152.883 21.2791C154.477 21.4678 155.931 22.2888 156.902 23.5472C157.873 24.8061 158.274 26.3903 158.009 27.925L140.888 127.364C140.627 128.882 139.738 130.218 138.427 131.063C137.117 131.907 135.5 132.187 133.951 131.837L58.1288 114.708C55.1756 114.042 53.2 111.289 53.5861 108.378V108.378Z" stroke="#FA5A28" stroke-dasharray="5 2"/>
<path fill-rule="evenodd" clip-rule="evenodd" d="M34.8339 42.6006C33.0817 42.6006 31.6602 43.4136 31.6602 44.4134C31.6602 45.4132 33.0817 46.2262 34.8339 46.2262C36.5861 46.2262 38.005 45.4157 38.005 44.4134C38.005 43.4111 36.5915 42.6006 34.8339 42.6006ZM34.8339 45.9205C33.9192 45.9205 33.1777 45.2458 33.1777 44.4134C33.1777 43.5811 33.9192 42.9064 34.8339 42.9064C35.7486 42.9064 36.4901 43.5811 36.4901 44.4134C36.4908 44.8136 36.3166 45.1975 36.0059 45.4806C35.6953 45.7638 35.2736 45.9229 34.8339 45.9229V45.9205Z" fill="#D3D3D3"/>
<path fill-rule="evenodd" clip-rule="evenodd" d="M36.1922 44.8664C36.1922 45.6173 35.5835 46.226 34.8326 46.226C34.0817 46.226 33.473 45.6173 33.473 44.8664C33.473 44.1156 34.0817 43.5068 34.8326 43.5068C35.5835 43.5068 36.1922 44.1156 36.1922 44.8664Z" fill="#D3D3D3"/>
<path fill-rule="evenodd" clip-rule="evenodd" d="M34.8325 35.3491C33.5811 35.3491 32.5665 36.3636 32.5665 37.6151C32.5665 38.8666 33.5811 39.8811 34.8325 39.8811C36.084 39.8811 37.0985 38.8666 37.0985 37.6151C37.0985 36.3636 36.084 35.3491 34.8325 35.3491ZM35.5895 37.9206H35.1382V38.3719C35.1382 38.5407 35.0014 38.6776 34.8326 38.6776C34.6637 38.6776 34.5269 38.5407 34.5269 38.3719V37.9206H34.0732C33.9142 37.9065 33.7924 37.7733 33.7924 37.6137C33.7924 37.4541 33.9142 37.3209 34.0732 37.3068H34.5269V36.8555C34.5269 36.6867 34.6637 36.5498 34.8326 36.5498C35.0014 36.5498 35.1382 36.6867 35.1382 36.8555V37.3189H35.5895C35.7057 37.3086 35.8177 37.3647 35.879 37.4639C35.9403 37.5632 35.9403 37.6885 35.879 37.7877C35.8177 37.8869 35.7057 37.9431 35.5895 37.9327V37.9206Z" fill="#D3D3D3"/>
<g filter="url(#filter0_d)">
<rect x="10.8129" y="23.106" width="42.1398" height="46.687" fill="white"/>
</g>
<path fill-rule="evenodd" clip-rule="evenodd" d="M56.1331 23.1056C56.1331 24.8538 54.7092 26.2709 52.9527 26.2709C51.1962 26.2709 49.7723 24.8538 49.7723 23.1056C49.7723 21.3575 51.1962 19.9404 52.9527 19.9404C54.7092 19.9404 56.1331 21.3575 56.1331 23.1056Z" fill="#F94F24"/>
<path fill-rule="evenodd" clip-rule="evenodd" d="M54.0692 22.6678H53.3546V21.958C53.3546 21.7177 53.1592 21.5229 52.9181 21.5229C52.6771 21.5229 52.4817 21.7177 52.4817 21.958V22.6678H51.7671C51.5387 22.6857 51.3625 22.8758 51.3625 23.1042C51.3625 23.3326 51.5387 23.5227 51.7671 23.5406H52.4817V24.2531C52.4817 24.4934 52.6771 24.6882 52.9181 24.6882C53.1592 24.6882 53.3546 24.4934 53.3546 24.2531V23.5406H54.0692C54.2338 23.5536 54.3919 23.4734 54.4782 23.333C54.5645 23.1926 54.5645 23.0158 54.4782 22.8754C54.3919 22.735 54.2338 22.6548 54.0692 22.6678Z" fill="white"/>
<path fill-rule="evenodd" clip-rule="evenodd" d="M47.3871 64.2533H15.5835V28.6445H47.3871V64.2533ZM16.1239 63.7145H46.8467V29.1832H16.1239V63.7145Z" fill="#DEDEDE"/>
<path fill-rule="evenodd" clip-rule="evenodd" d="M15.9772 57.9227L15.5835 57.5412L31.7188 41.5788C33.0087 40.3028 34.3827 39.6769 35.8246 39.7253C38.0975 39.7978 39.6508 41.5197 39.7159 41.5923L47.3871 49.1812L47.0043 49.56L39.3195 41.9603C39.295 41.9308 37.8368 40.3243 35.7893 40.2625C34.5104 40.2195 33.2694 40.7998 32.0909 41.9603L15.9772 57.9227Z" fill="#DEDEDE"/>
<path fill-rule="evenodd" clip-rule="evenodd" d="M23.1397 40.5143C21.6921 40.5155 20.3865 39.6483 19.832 38.3175C19.2774 36.9866 19.5834 35.4544 20.607 34.4356C21.6306 33.4169 23.1702 33.1124 24.5074 33.6643C25.8446 34.2161 26.7159 35.5156 26.7148 36.9563C26.7117 38.9201 25.1129 40.5112 23.1397 40.5143ZM23.1397 33.9564C21.9202 33.9553 20.8202 34.6855 20.3527 35.8065C19.8853 36.9274 20.1425 38.2183 21.0044 39.0769C21.8663 39.9355 23.163 40.1926 24.2898 39.7284C25.4165 39.2643 26.1513 38.1702 26.1513 36.9565C26.1497 35.3013 24.8028 33.9595 23.1397 33.9564Z" fill="#DEDEDE"/>
<path fill-rule="evenodd" clip-rule="evenodd" d="M173.059 127.802C173.059 131.307 170.218 134.147 166.714 134.147C163.21 134.147 160.369 131.307 160.369 127.802C160.369 124.298 163.21 121.458 166.714 121.458C170.218 121.458 173.059 124.298 173.059 127.802Z" fill="#F2F2F2"/>
<path fill-rule="evenodd" clip-rule="evenodd" d="M184.842 86.1079C184.842 87.6097 183.625 88.8271 182.123 88.8271C180.621 88.8271 179.404 87.6097 179.404 86.1079C179.404 84.6061 180.621 83.3887 182.123 83.3887C183.625 83.3887 184.842 84.6061 184.842 86.1079Z" fill="#F2F2F2"/>
<g filter="url(#filter1_d)">
<rect x="147.68" y="20.3867" width="42.1398" height="46.687" fill="white"/>
</g>
<path fill-rule="evenodd" clip-rule="evenodd" d="M166.858 58.3692H152.348C151.966 58.3692 151.655 58.015 151.655 57.5779C151.655 57.1409 151.966 56.7866 152.348 56.7866H166.864C167.247 56.7866 167.557 57.1409 167.557 57.5779C167.557 58.015 167.247 58.3692 166.864 58.3692H166.858Z" fill="#DEDEDE"/>
<rect x="151.655" y="29.0908" width="33.3938" height="15.0348" fill="#F2F2F2"/>
<path fill-rule="evenodd" clip-rule="evenodd" d="M173.934 58.3692H169.926C169.496 58.3692 169.147 58.015 169.147 57.5779C169.147 57.1409 169.496 56.7866 169.926 56.7866H173.934C174.364 56.7866 174.713 57.1409 174.713 57.5779C174.713 58.015 174.364 58.3692 173.934 58.3692Z" fill="#DEDEDE"/>
<path fill-rule="evenodd" clip-rule="evenodd" d="M172.422 52.0387H152.356C151.969 52.0387 151.655 51.6844 151.655 51.2474C151.655 50.8103 151.969 50.4561 152.356 50.4561H172.422C172.809 50.4561 173.123 50.8103 173.123 51.2474C173.123 51.6844 172.809 52.0387 172.422 52.0387Z" fill="#DEDEDE"/>
<path fill-rule="evenodd" clip-rule="evenodd" d="M183.529 52.0387H176.233C175.832 52.0387 175.508 51.6844 175.508 51.2474C175.508 50.8103 175.832 50.4561 176.233 50.4561H183.529C183.929 50.4561 184.254 50.8103 184.254 51.2474C184.254 51.6844 183.929 52.0387 183.529 52.0387Z" fill="#DEDEDE"/>
<path fill-rule="evenodd" clip-rule="evenodd" d="M193 20.3864C193 22.1345 191.576 23.5516 189.82 23.5516C188.063 23.5516 186.639 22.1345 186.639 20.3864C186.639 18.6383 188.063 17.2212 189.82 17.2212C191.576 17.2212 193 18.6383 193 20.3864Z" fill="#F94F24"/>
<path fill-rule="evenodd" clip-rule="evenodd" d="M190.936 19.9485H190.221V19.2388C190.221 18.9985 190.026 18.8037 189.785 18.8037C189.544 18.8037 189.348 18.9985 189.348 19.2388V19.9485H188.634C188.405 19.9665 188.229 20.1565 188.229 20.385C188.229 20.6134 188.405 20.8034 188.634 20.8214H189.348V21.5338C189.348 21.7741 189.544 21.9689 189.785 21.9689C190.026 21.9689 190.221 21.7741 190.221 21.5338V20.8214H190.936C191.101 20.8344 191.259 20.7541 191.345 20.6137C191.431 20.4734 191.431 20.2966 191.345 20.1562C191.259 20.0158 191.101 19.9356 190.936 19.9485Z" fill="white"/>
<g filter="url(#filter2_d)">
<rect x="20.7832" y="110.229" width="54.8312" height="22.1046" fill="white"/>
</g>
<path fill-rule="evenodd" clip-rule="evenodd" d="M78.793 111.019C78.793 112.763 77.3699 114.177 75.6144 114.177C73.8589 114.177 72.4358 112.763 72.4358 111.019C72.4358 109.275 73.8589 107.861 75.6144 107.861C77.3699 107.861 78.793 109.275 78.793 111.019Z" fill="#F94F24"/>
<path fill-rule="evenodd" clip-rule="evenodd" d="M76.7303 110.582H76.0161V109.874C76.0161 109.634 75.8208 109.44 75.5799 109.44C75.339 109.44 75.1437 109.634 75.1437 109.874V110.582H74.4295C74.2012 110.6 74.0251 110.79 74.0251 111.017C74.0251 111.245 74.2012 111.435 74.4295 111.453H75.1437V112.164C75.1437 112.403 75.339 112.598 75.5799 112.598C75.8208 112.598 76.0161 112.403 76.0161 112.164V111.453H76.7303C76.8949 111.466 77.0528 111.386 77.1391 111.246C77.2253 111.106 77.2253 110.929 77.1391 110.789C77.0528 110.649 76.8949 110.569 76.7303 110.582Z" fill="white"/>
<path fill-rule="evenodd" clip-rule="evenodd" d="M42.2652 115.756H26.313C25.8922 115.756 25.5511 115.402 25.5511 114.966C25.5511 114.53 25.8922 114.177 26.313 114.177H42.2718C42.6925 114.177 43.0336 114.53 43.0336 114.966C43.0336 115.402 42.6925 115.756 42.2718 115.756H42.2652Z" fill="#DEDEDE"/>
<path fill-rule="evenodd" clip-rule="evenodd" d="M50.2013 115.756H46.1962C45.7661 115.756 45.4175 115.402 45.4175 114.966C45.4175 114.53 45.7661 114.177 46.1962 114.177H50.2013C50.6314 114.177 50.9801 114.53 50.9801 114.966C50.9801 115.402 50.6314 115.756 50.2013 115.756Z" fill="#DEDEDE"/>
<path fill-rule="evenodd" clip-rule="evenodd" d="M42.2652 128.387H26.313C25.8922 128.387 25.5511 128.034 25.5511 127.598C25.5511 127.162 25.8922 126.808 26.313 126.808H42.2718C42.6925 126.808 43.0336 127.162 43.0336 127.598C43.0336 128.034 42.6925 128.387 42.2718 128.387H42.2652Z" fill="#DEDEDE"/>
<path fill-rule="evenodd" clip-rule="evenodd" d="M50.2013 128.387H46.1962C45.7661 128.387 45.4175 128.034 45.4175 127.598C45.4175 127.162 45.7661 126.808 46.1962 126.808H50.2013C50.6314 126.808 50.9801 127.162 50.9801 127.598C50.9801 128.034 50.6314 128.387 50.2013 128.387Z" fill="#DEDEDE"/>
<path fill-rule="evenodd" clip-rule="evenodd" d="M70.8691 115.756H54.136C53.7097 115.756 53.364 115.402 53.364 114.966C53.364 114.53 53.7097 114.177 54.136 114.177H70.8691C71.2954 114.177 71.6411 114.53 71.6411 114.966C71.6411 115.402 71.2954 115.756 70.8691 115.756Z" fill="#DEDEDE"/>
<path fill-rule="evenodd" clip-rule="evenodd" d="M48.6132 122.072H26.3288C25.8993 122.072 25.5511 121.718 25.5511 121.282C25.5511 120.846 25.8993 120.493 26.3288 120.493H48.6132C49.0427 120.493 49.3908 120.846 49.3908 121.282C49.3908 121.718 49.0427 122.072 48.6132 122.072Z" fill="#DEDEDE"/>
<path fill-rule="evenodd" clip-rule="evenodd" d="M61.3148 122.072H53.36C52.9234 122.072 52.5695 121.718 52.5695 121.282C52.5695 120.846 52.9234 120.493 53.36 120.493H61.3148C61.7514 120.493 62.1053 120.846 62.1053 121.282C62.1053 121.718 61.7514 122.072 61.3148 122.072Z" fill="#DEDEDE"/>
<path fill-rule="evenodd" clip-rule="evenodd" d="M78.1821 98.6221L76.0765 42.5171C76.007 40.6644 77.4276 39.0943 79.278 38.9785L126.999 35.9955C127.941 35.9365 128.865 36.2694 129.553 36.9155C130.241 37.5615 130.63 38.4631 130.63 39.4067V100.543C130.63 101.476 130.249 102.369 129.574 103.013C128.9 103.658 127.991 103.999 127.059 103.957L81.4439 101.908C79.6673 101.828 78.2487 100.399 78.1821 98.6221H78.1821Z" fill="#FF4785"/>
<path fill-rule="evenodd" clip-rule="evenodd" d="M116.36 44.3438L116.686 36.5039L123.239 35.9888L123.521 44.0737C123.528 44.2718 123.419 44.4559 123.242 44.5456C123.066 44.6353 122.853 44.6143 122.697 44.4918L120.169 42.5005L117.177 44.7706C117.02 44.8897 116.808 44.9074 116.633 44.8161C116.458 44.7248 116.352 44.5409 116.36 44.3438L116.36 44.3438ZM107.978 61.6079C107.978 62.9375 116.934 62.3002 118.137 61.3663C118.137 52.3123 113.278 47.5543 104.382 47.5543C95.4856 47.5543 90.5013 52.3866 90.5013 59.6338C90.5013 72.257 107.537 72.4986 107.537 79.384C107.537 81.317 106.59 82.464 104.508 82.464C101.795 82.464 100.722 81.0787 100.848 76.3678C100.848 75.3456 90.5013 75.0269 90.186 76.3678C89.3828 87.7842 96.4952 91.0772 104.635 91.0772C112.521 91.0772 118.704 86.8735 118.704 79.2632C118.704 65.734 101.417 66.0964 101.417 59.3922C101.417 56.6747 103.436 56.3122 104.635 56.3122C105.896 56.3122 108.167 56.5346 107.978 61.6079Z" fill="white"/>
<defs>
<filter id="filter0_d" x="0.812866" y="13.106" width="62.1398" height="66.687" filterUnits="userSpaceOnUse" color-interpolation-filters="sRGB">
<feFlood flood-opacity="0" result="BackgroundImageFix"/>
<feColorMatrix in="SourceAlpha" type="matrix" values="0 0 0 0 0 0 0 0 0 0 0 0 0 0 0 0 0 0 127 0"/>
<feOffset/>
<feGaussianBlur stdDeviation="5"/>
<feColorMatrix type="matrix" values="0 0 0 0 0 0 0 0 0 0 0 0 0 0 0 0 0 0 0.176471 0"/>
<feBlend mode="normal" in2="BackgroundImageFix" result="effect1_dropShadow"/>
<feBlend mode="normal" in="SourceGraphic" in2="effect1_dropShadow" result="shape"/>
</filter>
<filter id="filter1_d" x="137.68" y="10.3867" width="62.1398" height="66.687" filterUnits="userSpaceOnUse" color-interpolation-filters="sRGB">
<feFlood flood-opacity="0" result="BackgroundImageFix"/>
<feColorMatrix in="SourceAlpha" type="matrix" values="0 0 0 0 0 0 0 0 0 0 0 0 0 0 0 0 0 0 127 0"/>
<feOffset/>
<feGaussianBlur stdDeviation="5"/>
<feColorMatrix type="matrix" values="0 0 0 0 0 0 0 0 0 0 0 0 0 0 0 0 0 0 0.176471 0"/>
<feBlend mode="normal" in2="BackgroundImageFix" result="effect1_dropShadow"/>
<feBlend mode="normal" in="SourceGraphic" in2="effect1_dropShadow" result="shape"/>
</filter>
<filter id="filter2_d" x="10.7832" y="100.229" width="74.8312" height="42.1046" filterUnits="userSpaceOnUse" color-interpolation-filters="sRGB">
<feFlood flood-opacity="0" result="BackgroundImageFix"/>
<feColorMatrix in="SourceAlpha" type="matrix" values="0 0 0 0 0 0 0 0 0 0 0 0 0 0 0 0 0 0 127 0"/>
<feOffset/>
<feGaussianBlur stdDeviation="5"/>
<feColorMatrix type="matrix" values="0 0 0 0 0 0 0 0 0 0 0 0 0 0 0 0 0 0 0.176471 0"/>
<feBlend mode="normal" in2="BackgroundImageFix" result="effect1_dropShadow"/>
<feBlend mode="normal" in="SourceGraphic" in2="effect1_dropShadow" result="shape"/>
</filter>
</defs>
</svg>
