<svg width="229" height="144" viewBox="0 0 229 144" fill="none" xmlns="http://www.w3.org/2000/svg">
<path fill-rule="evenodd" clip-rule="evenodd" d="M40.5646 25.066C40.1219 24.7986 40.2199 23.961 40.8618 23.961H61.1575C60.9944 13.9786 54.6663 5.13962 45.2665 1.76492C35.8667 -1.60977 25.3586 1.18466 18.879 8.78219C12.3994 16.3797 11.3016 27.1935 16.1223 35.9373C20.943 44.6811 30.6753 49.5286 40.5617 48.1102L40.5646 25.066Z" fill="#F2F2F2"/>
<rect x="70.1609" y="119.36" width="125.045" height="2.00014" fill="#F4F4F4"/>
<path fill-rule="evenodd" clip-rule="evenodd" d="M80.1646 46.6344V44.3805C80.1646 44.3805 80.4626 40.356 84.5787 40.356H198.731C198.731 40.356 204.209 40.1339 204.209 44.3805V121.36H196.21V54.9866L80.1646 46.6344Z" fill="#F2F2F2"/>
<rect x="35.1482" y="31.3535" width="12.0043" height="90.0066" fill="#EFEFEF"/>
<rect x="26.1449" y="120.36" width="180.065" height="1.00008" fill="#DEDEDE"/>
<path fill-rule="evenodd" clip-rule="evenodd" d="M195.206 59.3554V51.0554C195.206 48.4592 193.063 46.3545 190.42 46.3545H73.947C71.3035 46.3545 69.1605 48.4592 69.1605 51.0554V59.3554H195.206Z" fill="#F94F24"/>
<rect x="194.206" y="61.3555" width="1.00037" height="60.0044" fill="#DEDEDE"/>
<rect x="70.1609" y="61.3555" width="1.00036" height="60.0044" fill="#DEDEDE"/>
<path fill-rule="evenodd" clip-rule="evenodd" d="M81.1649 53.3516C81.1663 54.1609 80.6798 54.8913 79.9323 55.202C79.1848 55.5126 78.3237 55.3424 77.7507 54.7706C77.1778 54.1989 77.006 53.3383 77.3155 52.5905C77.6249 51.8427 78.3547 51.355 79.1642 51.355C80.267 51.3569 81.161 52.2491 81.1649 53.3516Z" fill="white"/>
<path fill-rule="evenodd" clip-rule="evenodd" d="M97.1706 53.3516C97.1721 54.1609 96.6855 54.8913 95.938 55.202C95.1905 55.5126 94.3294 55.3424 93.7565 54.7706C93.1836 54.1989 93.0117 53.3383 93.3212 52.5905C93.6307 51.8427 94.3604 51.355 95.1699 51.355C96.2727 51.3569 97.1668 52.2491 97.1706 53.3516Z" fill="white"/>
<path fill-rule="evenodd" clip-rule="evenodd" d="M113.176 53.3516C113.178 54.1609 112.691 54.8913 111.944 55.202C111.196 55.5126 110.335 55.3424 109.762 54.7706C109.189 54.1989 109.018 53.3383 109.327 52.5905C109.637 51.8427 110.366 51.355 111.176 51.355C112.279 51.3569 113.173 52.2491 113.176 53.3516Z" fill="white"/>
<path fill-rule="evenodd" clip-rule="evenodd" d="M145.188 92.3578C145.188 93.4624 144.293 94.3578 143.188 94.3578H83.1648C82.0602 94.3578 81.1648 93.4624 81.1648 92.3578V77.3564C81.1648 76.2519 82.0602 75.3564 83.1648 75.3564H143.188C144.293 75.3564 145.188 76.2519 145.188 77.3564V92.3578Z" fill="#F1F1F1"/>
<path fill-rule="evenodd" clip-rule="evenodd" d="M143.187 90.3578C143.187 91.4623 142.292 92.3578 141.187 92.3578H81.1641C80.0595 92.3578 79.1641 91.4623 79.1641 90.3578V76.3564C79.1641 75.2519 80.0595 74.3564 81.1641 74.3564H141.187C142.292 74.3564 143.187 75.2519 143.187 76.3564V90.3578Z" fill="#F94F24"/>
<rect x="92.1688" y="82.3569" width="39.0141" height="3.00022" rx="1.50011" fill="white" fill-opacity="0.329412"/>
<rect x="86.1666" y="64.356" width="9.00326" height="5.00037" fill="#E8E8E8"/>
<rect x="96.1703" y="64.356" width="9.00327" height="5.00037" fill="#DEDEDE"/>
<rect x="105.174" y="64.356" width="9.00327" height="5.00037" fill="#DEDEDE"/>
<path fill-rule="evenodd" clip-rule="evenodd" d="M86.1666 64.3575H81.7428C80.8324 64.3257 79.9772 64.7949 79.5125 65.581C79.0479 66.3672 79.0479 67.3451 79.5125 68.1312C79.9772 68.9174 80.8324 69.3866 81.7428 69.3548H86.1666V64.3575Z" fill="#DEDEDE"/>
<rect x="114.177" y="64.356" width="9.00326" height="5.00037" fill="#DEDEDE"/>
<path fill-rule="evenodd" clip-rule="evenodd" d="M128.547 64.3575H124.18V69.3548H128.547C129.478 69.3866 130.352 68.9174 130.827 68.1312C131.302 67.3451 131.302 66.3672 130.827 65.581C130.352 64.7949 129.478 64.3257 128.547 64.3575Z" fill="#DEDEDE"/>
<path fill-rule="evenodd" clip-rule="evenodd" d="M41.652 47.3545C39.7182 47.3545 38.1493 48.2515 38.1493 49.3546C38.1493 50.4578 39.7182 51.3548 41.652 51.3548C43.5859 51.3548 45.1518 50.4605 45.1518 49.3546C45.1518 48.2488 43.5918 47.3545 41.652 47.3545ZM41.652 51.0174C40.6425 51.0174 39.8241 50.273 39.8241 49.3547C39.8241 48.4363 40.6425 47.6919 41.652 47.6919C42.6615 47.6919 43.4799 48.4363 43.4799 49.3547C43.4807 49.7961 43.2884 50.2197 42.9456 50.5322C42.6027 50.8446 42.1373 51.0201 41.652 51.0201V51.0174Z" fill="#D3D3D3"/>
<path fill-rule="evenodd" clip-rule="evenodd" d="M43.1511 49.8546C43.1511 50.6831 42.4793 51.3547 41.6506 51.3547C40.8218 51.3547 40.15 50.6831 40.15 49.8546C40.15 49.0261 40.8218 48.3545 41.6506 48.3545C42.4793 48.3545 43.1511 49.0261 43.1511 49.8546Z" fill="#D3D3D3"/>
<path fill-rule="evenodd" clip-rule="evenodd" d="M41.6506 39.354C40.2694 39.354 39.1497 40.4734 39.1497 41.8542C39.1497 43.235 40.2694 44.3544 41.6506 44.3544C43.0318 44.3544 44.1515 43.235 44.1515 41.8542C44.1515 40.4734 43.0318 39.354 41.6506 39.354ZM42.486 42.1916H41.988V42.6895C41.988 42.8758 41.8369 43.0268 41.6506 43.0268C41.4642 43.0268 41.3132 42.8758 41.3132 42.6895V42.1916H40.8125C40.637 42.176 40.5026 42.0291 40.5026 41.853C40.5026 41.6769 40.637 41.53 40.8125 41.5144H41.3132V41.0165C41.3132 40.8302 41.4642 40.6792 41.6506 40.6792C41.8369 40.6792 41.988 40.8302 41.988 41.0165V41.5278H42.486C42.6142 41.5164 42.7379 41.5783 42.8055 41.6878C42.8731 41.7973 42.8731 41.9355 42.8055 42.045C42.7379 42.1545 42.6142 42.2164 42.486 42.205V42.1916Z" fill="#D3D3D3"/>
<rect x="35.1482" y="20.3525" width="168.061" height="11.0008" fill="#D3D3D3"/>
<path fill-rule="evenodd" clip-rule="evenodd" d="M186.203 110.359H151.19V71.3564H186.203V110.359ZM151.785 109.769H185.608V71.9463H151.785V109.769Z" fill="#DEDEDE"/>
<path fill-rule="evenodd" clip-rule="evenodd" d="M151.624 103.358L151.19 102.939L168.954 85.3969C170.374 83.9945 171.886 83.3067 173.474 83.3598C175.976 83.4395 177.686 85.3319 177.758 85.4116L186.203 93.7517L185.781 94.168L177.321 85.8161C177.294 85.7836 175.689 84.0181 173.435 83.9502C172.027 83.903 170.661 84.5407 169.363 85.8161L151.624 103.358Z" fill="#DEDEDE"/>
<path fill-rule="evenodd" clip-rule="evenodd" d="M160.197 84.357C158.578 84.3583 157.117 83.3841 156.497 81.8891C155.877 80.394 156.219 78.6727 157.364 77.5282C158.509 76.3837 160.231 76.0417 161.726 76.6617C163.222 77.2816 164.196 78.7414 164.195 80.3599C164.191 82.566 162.403 84.3536 160.197 84.357ZM160.197 76.9897C158.833 76.9885 157.603 77.8088 157.08 79.0681C156.557 80.3274 156.845 81.7775 157.809 82.7421C158.772 83.7066 160.223 83.9955 161.483 83.4741C162.743 82.9526 163.565 81.7235 163.565 80.36C163.563 78.5006 162.057 76.9932 160.197 76.9897Z" fill="#DEDEDE"/>
<path fill-rule="evenodd" clip-rule="evenodd" d="M102.118 101.359H80.2103C79.6325 101.359 79.1641 100.911 79.1641 100.358C79.1641 99.8061 79.6325 99.3584 80.2103 99.3584H102.127C102.704 99.3584 103.173 99.8061 103.173 100.358C103.173 100.911 102.704 101.359 102.127 101.359H102.118Z" fill="#DEDEDE"/>
<path fill-rule="evenodd" clip-rule="evenodd" d="M113.056 101.359H107.294C106.676 101.359 106.174 100.911 106.174 100.358C106.174 99.8061 106.676 99.3584 107.294 99.3584H113.056C113.675 99.3584 114.177 99.8061 114.177 100.358C114.177 100.911 113.675 101.359 113.056 101.359Z" fill="#DEDEDE"/>
<path fill-rule="evenodd" clip-rule="evenodd" d="M140.172 101.359H118.192C117.632 101.359 117.178 100.911 117.178 100.358C117.178 99.8061 117.632 99.3584 118.192 99.3584H140.172C140.733 99.3584 141.187 99.8061 141.187 100.358C141.187 100.911 140.733 101.359 140.172 101.359Z" fill="#DEDEDE"/>
<path fill-rule="evenodd" clip-rule="evenodd" d="M111.132 108.359H81.2087C80.632 108.359 80.1646 107.911 80.1646 107.359C80.1646 106.807 80.632 106.359 81.2087 106.359H111.132C111.709 106.359 112.176 106.807 112.176 107.359C112.176 107.911 111.709 108.359 111.132 108.359Z" fill="#DEDEDE"/>
<path fill-rule="evenodd" clip-rule="evenodd" d="M127.187 108.359H117.173C116.623 108.359 116.177 107.911 116.177 107.359C116.177 106.807 116.623 106.359 117.173 106.359H127.187C127.736 106.359 128.182 106.807 128.182 107.359C128.182 107.911 127.736 108.359 127.187 108.359Z" fill="#DEDEDE"/>
<path fill-rule="evenodd" clip-rule="evenodd" d="M173.131 116.36H151.257C150.668 116.36 150.19 115.912 150.19 115.359C150.19 114.807 150.668 114.359 151.257 114.359H173.131C173.721 114.359 174.199 114.807 174.199 115.359C174.199 115.912 173.721 116.36 173.131 116.36Z" fill="#DEDEDE"/>
<path fill-rule="evenodd" clip-rule="evenodd" d="M109.175 29.353C109.092 29.353 109.026 29.2829 109.026 29.1966V23.509C109.027 23.4233 109.093 23.3542 109.175 23.3525C109.258 23.3525 109.324 23.4226 109.324 23.509V29.1966C109.324 29.2829 109.258 29.353 109.175 29.353Z" fill="white"/>
<path fill-rule="evenodd" clip-rule="evenodd" d="M129.182 29.353C129.1 29.353 129.033 29.2829 129.033 29.1966V23.509C129.033 23.4226 129.1 23.3525 129.182 23.3525C129.265 23.3525 129.332 23.4226 129.332 23.509V29.1966C129.332 29.2829 129.265 29.353 129.182 29.353Z" fill="white"/>
<path fill-rule="evenodd" clip-rule="evenodd" d="M149.19 29.353C149.107 29.353 149.04 29.2829 149.04 29.1966V23.509C149.04 23.4226 149.107 23.3525 149.19 23.3525C149.271 23.3542 149.337 23.4233 149.339 23.509V29.1966C149.339 29.2829 149.272 29.353 149.19 29.353Z" fill="white"/>
<path fill-rule="evenodd" clip-rule="evenodd" d="M173.198 29.353C173.116 29.353 173.049 29.2829 173.049 29.1966V23.509C173.05 23.4233 173.116 23.3542 173.198 23.3525C173.281 23.3525 173.348 23.4226 173.348 23.509V29.1966C173.348 29.2829 173.281 29.353 173.198 29.353Z" fill="white"/>
<path fill-rule="evenodd" clip-rule="evenodd" d="M100.172 26.582C100.172 27.56 99.4999 28.3529 98.6712 28.3529C97.8425 28.3529 97.1707 27.56 97.1707 26.582C97.1707 25.6049 98.6712 23.3525 98.6712 23.3525C98.6712 23.3525 100.172 25.6049 100.172 26.582Z" fill="white"/>
<path fill-rule="evenodd" clip-rule="evenodd" d="M119.177 28.303L117.603 26.353L117.178 26.8781L119.177 29.3532L121.179 26.8781L120.755 26.353L119.177 28.303Z" fill="white"/>
<path fill-rule="evenodd" clip-rule="evenodd" d="M116.975 25.0869L119.285 22.7714L121.595 25.0869L119.285 27.4024L116.975 25.0869Z" fill="white"/>
<path fill-rule="evenodd" clip-rule="evenodd" d="M137.559 25.3527C137.353 25.3527 137.185 25.1865 137.185 24.9816V23.7236C137.185 23.5187 137.353 23.3525 137.559 23.3525H138.812C139.018 23.3525 139.186 23.5187 139.186 23.7236C139.186 23.9286 139.018 24.0947 138.812 24.0947H137.933V24.9816C137.933 25.1865 137.766 25.3527 137.559 25.3527Z" fill="white"/>
<path fill-rule="evenodd" clip-rule="evenodd" d="M142.813 25.3527C142.606 25.3527 142.438 25.1865 142.438 24.9816V24.0947H141.561C141.354 24.0947 141.187 23.9286 141.187 23.7236C141.187 23.5187 141.354 23.3525 141.561 23.3525H142.813C143.02 23.3525 143.187 23.5187 143.187 23.7236V24.9816C143.187 25.1865 143.02 25.3527 142.813 25.3527Z" fill="white"/>
<path fill-rule="evenodd" clip-rule="evenodd" d="M142.813 28.3532H141.561C141.354 28.3532 141.187 28.187 141.187 27.9821C141.187 27.7771 141.354 27.611 141.561 27.611H142.438V26.7241C142.438 26.5192 142.606 26.353 142.813 26.353C143.02 26.353 143.187 26.5192 143.187 26.7241V27.9821C143.187 28.187 143.02 28.3532 142.813 28.3532Z" fill="white"/>
<path fill-rule="evenodd" clip-rule="evenodd" d="M138.812 28.3532H137.559C137.353 28.3532 137.185 28.187 137.185 27.9821V26.7241C137.185 26.5192 137.353 26.353 137.559 26.353C137.766 26.353 137.933 26.5192 137.933 26.7241V27.611H138.812C139.018 27.611 139.186 27.7771 139.186 27.9821C139.186 28.187 139.018 28.3532 138.812 28.3532Z" fill="white"/>
<rect x="159.193" y="23.3525" width="3.00108" height="4.00029" fill="white"/>
<path fill-rule="evenodd" clip-rule="evenodd" d="M158.891 27.4224V24.353H158.193V28.3533H161.194V27.4224H158.891Z" fill="white"/>
<path fill-rule="evenodd" clip-rule="evenodd" d="M179.237 24.353H179.2V27.4615C179.2 28.1861 179.646 28.3533 180.192 28.3533H181.21C181.758 28.3533 182.201 28.1861 182.201 27.4615V24.3694L179.237 24.353Z" fill="white"/>
<path fill-rule="evenodd" clip-rule="evenodd" d="M182.823 24.0382H182.355C182.357 24.0062 182.357 23.9741 182.355 23.9421C182.355 23.6165 182.184 23.3525 181.973 23.3525H180.494C180.283 23.3549 180.113 23.6175 180.111 23.9421C180.108 23.974 180.108 24.0063 180.111 24.0382H179.677C179.514 24.009 179.354 24.1271 179.266 24.3419C179.178 24.5566 179.178 24.8299 179.266 25.0446C179.354 25.2594 179.514 25.3775 179.677 25.3483H182.823C183.039 25.3098 183.202 25.0281 183.202 24.6932C183.202 24.3584 183.039 24.0767 182.823 24.0382Z" fill="white"/>
<rect x="15.1409" y="120.36" width="6.00217" height="1.00008" fill="#DEDEDE"/>
<path fill-rule="evenodd" clip-rule="evenodd" d="M213.532 102.358H199.208V112.359H213.532C216.137 112.292 218.215 110.073 218.215 107.359C218.215 104.645 216.137 102.426 213.532 102.358Z" fill="#F2F2F2"/>
<path fill-rule="evenodd" clip-rule="evenodd" d="M14.1406 51.355C14.1406 55.2213 11.0054 58.3555 7.13803 58.3555C3.27064 58.3555 0.135498 55.2213 0.135498 51.355C0.135498 47.4887 3.27064 44.3545 7.13803 44.3545C11.0054 44.3545 14.1406 47.4887 14.1406 51.355Z" fill="#F2F2F2"/>
<path fill-rule="evenodd" clip-rule="evenodd" d="M219.215 65.3557C219.215 67.0127 217.871 68.3559 216.214 68.3559C214.556 68.3559 213.213 67.0127 213.213 65.3557C213.213 63.6987 214.556 62.3555 216.214 62.3555C217.871 62.3555 219.215 63.6987 219.215 65.3557Z" fill="#F2F2F2"/>
<g filter="url(#filter0_d)">
<rect x="15.1409" y="25.8447" width="46.5081" height="51.5117" fill="white"/>
</g>
<path fill-rule="evenodd" clip-rule="evenodd" d="M65.159 25.8449C65.159 27.7736 63.5875 29.3372 61.649 29.3372C59.7104 29.3372 58.1389 27.7736 58.1389 25.8449C58.1389 23.9161 59.7104 22.3525 61.649 22.3525C63.5875 22.3525 65.159 23.9161 65.159 25.8449Z" fill="#F94F24"/>
<path fill-rule="evenodd" clip-rule="evenodd" d="M62.8811 25.3617H62.0924V24.5787C62.0924 24.3136 61.8768 24.0986 61.6108 24.0986C61.3448 24.0986 61.1291 24.3136 61.1291 24.5787V25.3617H60.3404C60.0883 25.3816 59.8939 25.5913 59.8939 25.8433C59.8939 26.0953 60.0883 26.305 60.3404 26.3248H61.1291V27.1109C61.1291 27.376 61.3448 27.591 61.6108 27.591C61.8768 27.591 62.0924 27.376 62.0924 27.1109V26.3248H62.8811C63.0629 26.3391 63.2373 26.2506 63.3325 26.0957C63.4278 25.9408 63.4278 25.7458 63.3325 25.5909C63.2373 25.436 63.0629 25.3474 62.8811 25.3617Z" fill="white"/>
<path fill-rule="evenodd" clip-rule="evenodd" d="M55.5063 71.2451H20.4059V31.9565H55.5063V71.2451ZM21.0023 70.6506H54.9099V32.5508H21.0023V70.6506Z" fill="#DEDEDE"/>
<path fill-rule="evenodd" clip-rule="evenodd" d="M20.8404 64.2605L20.4059 63.8396L38.2138 46.2277C39.6374 44.8198 41.1539 44.1292 42.7452 44.1826C45.2537 44.2626 46.968 46.1625 47.0399 46.2425L55.5063 54.6157L55.0837 55.0337L46.6023 46.6486C46.5754 46.616 44.966 44.8435 42.7063 44.7754C41.2947 44.7279 39.9251 45.3681 38.6244 46.6486L20.8404 64.2605Z" fill="#DEDEDE"/>
<path fill-rule="evenodd" clip-rule="evenodd" d="M28.7454 45.0525C27.1477 45.0538 25.7067 44.097 25.0947 42.6287C24.4828 41.1603 24.8204 39.4697 25.9501 38.3457C27.0799 37.2216 28.779 36.8857 30.2549 37.4946C31.7307 38.1035 32.6923 39.5372 32.6911 41.1268C32.6876 43.2935 30.9231 45.0491 28.7454 45.0525ZM28.7454 37.8169C27.3995 37.8156 26.1854 38.6213 25.6695 39.8581C25.1536 41.0949 25.4375 42.5192 26.3887 43.4665C27.3399 44.4138 28.7711 44.6976 30.0147 44.1854C31.2583 43.6733 32.0692 42.4661 32.0692 41.127C32.0675 39.3008 30.5808 37.8203 28.7454 37.8169Z" fill="#DEDEDE"/>
<g filter="url(#filter1_d)">
<rect x="172.198" y="42.8462" width="46.5081" height="51.5117" fill="white"/>
</g>
<path fill-rule="evenodd" clip-rule="evenodd" d="M193.364 84.754H177.35C176.928 84.754 176.585 84.3631 176.585 83.8809C176.585 83.3987 176.928 83.0078 177.35 83.0078H193.371C193.793 83.0078 194.136 83.3987 194.136 83.8809C194.136 84.3631 193.793 84.754 193.371 84.754H193.364Z" fill="#DEDEDE"/>
<rect x="176.585" y="52.4502" width="36.8555" height="16.5885" fill="#F2F2F2"/>
<path fill-rule="evenodd" clip-rule="evenodd" d="M201.173 84.754H196.751C196.276 84.754 195.891 84.3631 195.891 83.8809C195.891 83.3987 196.276 83.0078 196.751 83.0078H201.173C201.648 83.0078 202.033 83.3987 202.033 83.8809C202.033 84.3631 201.648 84.754 201.173 84.754Z" fill="#DEDEDE"/>
<path fill-rule="evenodd" clip-rule="evenodd" d="M199.505 77.7696H177.358C176.931 77.7696 176.585 77.3787 176.585 76.8965C176.585 76.4143 176.931 76.0234 177.358 76.0234H199.505C199.932 76.0234 200.278 76.4143 200.278 76.8965C200.278 77.3787 199.932 77.7696 199.505 77.7696Z" fill="#DEDEDE"/>
<path fill-rule="evenodd" clip-rule="evenodd" d="M211.763 77.7696H203.711C203.269 77.7696 202.911 77.3787 202.911 76.8965C202.911 76.4143 203.269 76.0234 203.711 76.0234H211.763C212.205 76.0234 212.563 76.4143 212.563 76.8965C212.563 77.3787 212.205 77.7696 211.763 77.7696Z" fill="#DEDEDE"/>
<path fill-rule="evenodd" clip-rule="evenodd" d="M222.216 42.8463C222.216 44.7751 220.645 46.3386 218.706 46.3386C216.767 46.3386 215.196 44.7751 215.196 42.8463C215.196 40.9176 216.767 39.354 218.706 39.354C220.645 39.354 222.216 40.9176 222.216 42.8463Z" fill="#F94F24"/>
<path fill-rule="evenodd" clip-rule="evenodd" d="M219.938 42.3632H219.149V41.5801C219.149 41.315 218.934 41.1001 218.668 41.1001C218.402 41.1001 218.186 41.315 218.186 41.5801V42.3632H217.397C217.145 42.3831 216.951 42.5927 216.951 42.8448C216.951 43.0968 217.145 43.3065 217.397 43.3263H218.186V44.1124C218.186 44.3775 218.402 44.5924 218.668 44.5924C218.934 44.5924 219.149 44.3775 219.149 44.1124V43.3263H219.938C220.12 43.3406 220.294 43.2521 220.39 43.0972C220.485 42.9423 220.485 42.7472 220.39 42.5923C220.294 42.4374 220.12 42.3489 219.938 42.3632Z" fill="white"/>
<g filter="url(#filter2_d)">
<rect x="26.1449" y="108.972" width="60.5151" height="24.3889" fill="white"/>
</g>
<path fill-rule="evenodd" clip-rule="evenodd" d="M90.1681 109.843C90.1681 111.767 88.5975 113.327 86.66 113.327C84.7225 113.327 83.1519 111.767 83.1519 109.843C83.1519 107.919 84.7225 106.359 86.66 106.359C88.5975 106.359 90.1681 107.919 90.1681 109.843Z" fill="#F94F24"/>
<path fill-rule="evenodd" clip-rule="evenodd" d="M87.8915 109.361H87.1032V108.58C87.1032 108.315 86.8877 108.101 86.6218 108.101C86.3559 108.101 86.1404 108.315 86.1404 108.58V109.361H85.3521C85.1002 109.381 84.9059 109.59 84.9059 109.842C84.9059 110.093 85.1002 110.302 85.3521 110.322H86.1404V111.106C86.1404 111.371 86.3559 111.585 86.6218 111.585C86.8877 111.585 87.1032 111.371 87.1032 111.106V110.322H87.8915C88.0731 110.336 88.2474 110.248 88.3426 110.093C88.4378 109.939 88.4378 109.744 88.3426 109.59C88.2474 109.435 88.0731 109.347 87.8915 109.361Z" fill="white"/>
<path fill-rule="evenodd" clip-rule="evenodd" d="M49.8538 115.069H32.2479C31.7835 115.069 31.4071 114.679 31.4071 114.198C31.4071 113.717 31.7835 113.327 32.2479 113.327H49.861C50.3253 113.327 50.7018 113.717 50.7018 114.198C50.7018 114.679 50.3253 115.069 49.861 115.069H49.8538Z" fill="#DEDEDE"/>
<path fill-rule="evenodd" clip-rule="evenodd" d="M58.6126 115.069H54.1924C53.7177 115.069 53.3329 114.679 53.3329 114.198C53.3329 113.717 53.7177 113.327 54.1924 113.327H58.6126C59.0873 113.327 59.4721 113.717 59.4721 114.198C59.4721 114.679 59.0873 115.069 58.6126 115.069Z" fill="#DEDEDE"/>
<path fill-rule="evenodd" clip-rule="evenodd" d="M49.8538 129.006H32.2479C31.7835 129.006 31.4071 128.616 31.4071 128.135C31.4071 127.654 31.7835 127.264 32.2479 127.264H49.861C50.3253 127.264 50.7018 127.654 50.7018 128.135C50.7018 128.616 50.3253 129.006 49.861 129.006H49.8538Z" fill="#DEDEDE"/>
<path fill-rule="evenodd" clip-rule="evenodd" d="M58.6126 129.006H54.1924C53.7177 129.006 53.3329 128.616 53.3329 128.135C53.3329 127.654 53.7177 127.264 54.1924 127.264H58.6126C59.0873 127.264 59.4721 127.654 59.4721 128.135C59.4721 128.616 59.0873 129.006 58.6126 129.006Z" fill="#DEDEDE"/>
<path fill-rule="evenodd" clip-rule="evenodd" d="M81.4228 115.069H62.9552C62.4846 115.069 62.1031 114.679 62.1031 114.198C62.1031 113.717 62.4846 113.327 62.9552 113.327H81.4228C81.8934 113.327 82.2748 113.717 82.2748 114.198C82.2748 114.679 81.8934 115.069 81.4228 115.069Z" fill="#DEDEDE"/>
<path fill-rule="evenodd" clip-rule="evenodd" d="M56.8598 122.037H32.2653C31.7913 122.037 31.4071 121.647 31.4071 121.166C31.4071 120.685 31.7913 120.295 32.2653 120.295H56.8598C57.3338 120.295 57.718 120.685 57.718 121.166C57.718 121.647 57.3338 122.037 56.8598 122.037Z" fill="#DEDEDE"/>
<path fill-rule="evenodd" clip-rule="evenodd" d="M70.878 122.037H62.0985C61.6167 122.037 61.2261 121.647 61.2261 121.166C61.2261 120.685 61.6167 120.295 62.0985 120.295H70.878C71.3598 120.295 71.7504 120.685 71.7504 121.166C71.7504 121.647 71.3598 122.037 70.878 122.037Z" fill="#DEDEDE"/>
<path fill-rule="evenodd" clip-rule="evenodd" d="M177.251 117.645L170.346 124.541L154.297 108.497L148.72 120.913L134.455 81.9849L172.496 95.0577L161.968 102.966L177.251 117.645Z" fill="url(#paint0_linear)"/>
<g style="mix-blend-mode:multiply">
<path fill-rule="evenodd" clip-rule="evenodd" d="M177.922 119.554L163.441 105.646L173.078 98.4081C173.361 98.2003 173.503 97.8506 173.445 97.5042C173.39 97.1553 173.147 96.8654 172.812 96.7519L134.771 83.679C134.424 83.5632 134.042 83.6538 133.785 83.9129C133.527 84.1743 133.443 84.5608 133.57 84.9054L147.835 123.827C147.967 124.19 148.306 124.437 148.693 124.451C149.079 124.465 149.435 124.243 149.593 123.89L154.607 112.733L169.701 127.809C169.879 127.987 170.12 128.087 170.371 128.088C170.623 128.088 170.864 127.988 171.042 127.809L177.922 120.906C178.105 120.73 178.206 120.484 178.2 120.23C178.201 119.976 178.101 119.733 177.922 119.554Z" fill="#E5E5E5"/>
</g>
<path fill-rule="evenodd" clip-rule="evenodd" d="M170.333 125.173C170.165 125.174 170.004 125.108 169.885 124.99L154.525 109.597L149.321 121.172C149.216 121.405 148.982 121.552 148.727 121.545C148.467 121.537 148.239 121.371 148.151 121.127L133.886 82.2058C133.802 81.9774 133.857 81.7214 134.027 81.5474C134.197 81.3734 134.452 81.3124 134.683 81.3903L172.73 94.4632C172.951 94.5398 173.111 94.7318 173.147 94.9626C173.182 95.1929 173.087 95.4237 172.901 95.5632L162.967 103.023L177.713 117.183C177.834 117.302 177.903 117.465 177.903 117.635C177.903 117.805 177.834 117.968 177.713 118.087L170.795 124.99C170.673 125.111 170.506 125.178 170.333 125.173V125.173ZM154.285 107.865C154.454 107.866 154.615 107.934 154.734 108.055L170.333 123.65L176.334 117.651L161.519 103.421C161.387 103.292 161.317 103.112 161.329 102.928C161.339 102.743 161.429 102.573 161.576 102.46L171.149 95.2726L135.505 83.0151L148.784 119.237L153.728 108.238C153.814 108.05 153.986 107.915 154.19 107.878L154.285 107.865Z" fill="white"/>
<defs>
<filter id="filter0_d" x="5.14087" y="15.8447" width="66.5081" height="71.5117" filterUnits="userSpaceOnUse" color-interpolation-filters="sRGB">
<feFlood flood-opacity="0" result="BackgroundImageFix"/>
<feColorMatrix in="SourceAlpha" type="matrix" values="0 0 0 0 0 0 0 0 0 0 0 0 0 0 0 0 0 0 127 0"/>
<feOffset/>
<feGaussianBlur stdDeviation="5"/>
<feColorMatrix type="matrix" values="0 0 0 0 0 0 0 0 0 0 0 0 0 0 0 0 0 0 0.176471 0"/>
<feBlend mode="normal" in2="BackgroundImageFix" result="effect1_dropShadow"/>
<feBlend mode="normal" in="SourceGraphic" in2="effect1_dropShadow" result="shape"/>
</filter>
<filter id="filter1_d" x="162.198" y="32.8462" width="66.5081" height="71.5117" filterUnits="userSpaceOnUse" color-interpolation-filters="sRGB">
<feFlood flood-opacity="0" result="BackgroundImageFix"/>
<feColorMatrix in="SourceAlpha" type="matrix" values="0 0 0 0 0 0 0 0 0 0 0 0 0 0 0 0 0 0 127 0"/>
<feOffset/>
<feGaussianBlur stdDeviation="5"/>
<feColorMatrix type="matrix" values="0 0 0 0 0 0 0 0 0 0 0 0 0 0 0 0 0 0 0.176471 0"/>
<feBlend mode="normal" in2="BackgroundImageFix" result="effect1_dropShadow"/>
<feBlend mode="normal" in="SourceGraphic" in2="effect1_dropShadow" result="shape"/>
</filter>
<filter id="filter2_d" x="16.1449" y="98.9722" width="80.5151" height="44.3889" filterUnits="userSpaceOnUse" color-interpolation-filters="sRGB">
<feFlood flood-opacity="0" result="BackgroundImageFix"/>
<feColorMatrix in="SourceAlpha" type="matrix" values="0 0 0 0 0 0 0 0 0 0 0 0 0 0 0 0 0 0 127 0"/>
<feOffset/>
<feGaussianBlur stdDeviation="5"/>
<feColorMatrix type="matrix" values="0 0 0 0 0 0 0 0 0 0 0 0 0 0 0 0 0 0 0.176471 0"/>
<feBlend mode="normal" in2="BackgroundImageFix" result="effect1_dropShadow"/>
<feBlend mode="normal" in="SourceGraphic" in2="effect1_dropShadow" result="shape"/>
</filter>
<linearGradient id="paint0_linear" x1="134.455" y1="124.541" x2="177.251" y2="124.541" gradientUnits="userSpaceOnUse">
<stop stop-color="#8033EB"/>
<stop offset="1" stop-color="#6731CE"/>
</linearGradient>
</defs>
</svg>
