<?xml version="1.0" encoding="UTF-8"?>
<svg width="50px" height="50px" viewBox="0 0 50 50" version="1.1" xmlns="http://www.w3.org/2000/svg" xmlns:xlink="http://www.w3.org/1999/xlink">
    <!-- Generator: Sketch 55.2 (78181) - https://sketchapp.com -->
    <title>ssr-icon</title>
    <desc>Created with Sketch.</desc>
    <g id="Homepage" stroke="none" stroke-width="1" fill="none" fill-rule="evenodd">
        <g id="Desktop-HD" transform="translate(-246.000000, -2301.000000)" fill-rule="nonzero">
            <g id="More-than-CMS" transform="translate(-472.000000, 1975.000000)">
                <g id="SSR" transform="translate(718.000000, 326.000000)">
                    <g id="ssr-icon">
                        <circle id="Oval-2" fill="#F7F7F7" cx="25" cy="25" r="25"></circle>
                        <g id="server-solid" transform="translate(9.000000, 10.000000)" fill="#00CCB0">
                            <path d="M28.125,7.42857143 L1.875,7.42857143 C0.839472656,7.42857143 0,6.59709375 0,5.57142857 L0,1.85714286 C0,0.831477679 0.839472656,0 1.875,0 L28.125,0 C29.1605273,0 30,0.831477679 30,1.85714286 L30,5.57142857 C30,6.59709375 29.1605273,7.42857143 28.125,7.42857143 Z M25.3125,2.32142857 C24.5358398,2.32142857 23.90625,2.94502232 23.90625,3.71428571 C23.90625,4.48354911 24.5358398,5.10714286 25.3125,5.10714286 C26.0891602,5.10714286 26.71875,4.48354911 26.71875,3.71428571 C26.71875,2.94502232 26.0891602,2.32142857 25.3125,2.32142857 Z M21.5625,2.32142857 C20.7858398,2.32142857 20.15625,2.94502232 20.15625,3.71428571 C20.15625,4.48354911 20.7858398,5.10714286 21.5625,5.10714286 C22.3391602,5.10714286 22.96875,4.48354911 22.96875,3.71428571 C22.96875,2.94502232 22.3391602,2.32142857 21.5625,2.32142857 Z M28.125,16.7142857 L1.875,16.7142857 C0.839472656,16.7142857 0,15.882808 0,14.8571429 L0,11.1428571 C0,10.117192 0.839472656,9.28571429 1.875,9.28571429 L28.125,9.28571429 C29.1605273,9.28571429 30,10.117192 30,11.1428571 L30,14.8571429 C30,15.882808 29.1605273,16.7142857 28.125,16.7142857 Z M25.3125,11.6071429 C24.5358398,11.6071429 23.90625,12.2307366 23.90625,13 C23.90625,13.7692634 24.5358398,14.3928571 25.3125,14.3928571 C26.0891602,14.3928571 26.71875,13.7692634 26.71875,13 C26.71875,12.2307366 26.0891602,11.6071429 25.3125,11.6071429 Z M21.5625,11.6071429 C20.7858398,11.6071429 20.15625,12.2307366 20.15625,13 C20.15625,13.7692634 20.7858398,14.3928571 21.5625,14.3928571 C22.3391602,14.3928571 22.96875,13.7692634 22.96875,13 C22.96875,12.2307366 22.3391602,11.6071429 21.5625,11.6071429 Z M28.125,26 L1.875,26 C0.839472656,26 0,25.1685223 0,24.1428571 L0,20.4285714 C0,19.4029062 0.839472656,18.5714286 1.875,18.5714286 L28.125,18.5714286 C29.1605273,18.5714286 30,19.4029062 30,20.4285714 L30,24.1428571 C30,25.1685223 29.1605273,26 28.125,26 Z M25.3125,20.8928571 C24.5358398,20.8928571 23.90625,21.5164509 23.90625,22.2857143 C23.90625,23.0549777 24.5358398,23.6785714 25.3125,23.6785714 C26.0891602,23.6785714 26.71875,23.0549777 26.71875,22.2857143 C26.71875,21.5164509 26.0891602,20.8928571 25.3125,20.8928571 Z M21.5625,20.8928571 C20.7858398,20.8928571 20.15625,21.5164509 20.15625,22.2857143 C20.15625,23.0549777 20.7858398,23.6785714 21.5625,23.6785714 C22.3391602,23.6785714 22.96875,23.0549777 22.96875,22.2857143 C22.96875,21.5164509 22.3391602,20.8928571 21.5625,20.8928571 Z" id="Shape"></path>
                        </g>
                        <g id="eye-solid" transform="translate(19.000000, 19.000000)" fill="#00CCB0" stroke="#F7F7F7" stroke-width="2">
                            <path d="M27.7292227,9.05716575 L27.7318091,9.06214914 C28.089397,9.75589397 28.089397,10.5769967 27.729256,11.2756611 C25.0542607,16.3954523 19.8056689,19.6666667 14,19.6666667 C8.19369148,19.6666667 2.94681702,16.3970602 0.26819094,11.2711842 C-0.08939698,10.5774394 -0.08939698,9.75633667 0.270744027,9.05767221 C2.94573934,3.93788099 8.19433106,0.666666667 14,0.666666667 C19.8063085,0.666666667 25.053183,3.93627316 27.7292227,9.05716575 Z M14,15.5416681 L14.0004767,15.5416681 C15.4633282,15.5423648 16.8653222,14.9732004 17.896921,13.9614419 C18.9247446,12.9533861 19.5007177,11.5886691 19.5000137,10.1666667 C19.5000137,7.20252972 17.0418732,4.79166667 14,4.79166667 C10.958127,4.79166667 8.49998766,7.20252954 8.49998766,10.1666667 C8.49998766,13.130804 10.9581272,15.5416681 14,15.5416681 Z M13.986264,4.91674916 L13.9976978,4.91664302 C16.2763436,4.91141147 18.308965,6.33497332 19.0474982,8.46210739 C19.7882852,10.595733 19.0593733,12.9545802 17.2415339,14.3213692 C15.4322461,15.6817285 12.9444901,15.7588059 11.0519425,14.5136072 C9.15084576,13.2627837 8.27194921,10.954724 8.87396285,8.77944553 L9.25736439,7.39408635 L10.4229493,8.23529306 C10.8881764,8.57104916 11.5382442,8.52281783 11.9449455,8.1239385 C12.3421253,7.73439745 12.3890309,7.1262825 12.0576424,6.6845995 L11.1853293,5.52195871 L12.5829711,5.12288356 C13.0392637,4.99259622 13.5112543,4.92327449 13.986264,4.91674916 Z" id="Shape"></path>
                        </g>
                    </g>
                </g>
            </g>
        </g>
    </g>
</svg>