<svg width="63" height="70" viewBox="0 0 63 70" fill="none" xmlns="http://www.w3.org/2000/svg">
<path fill-rule="evenodd" clip-rule="evenodd" d="M59.3108 55.1052L35.1892 68.9211C32.9063 70.2283 30.0939 70.2283 27.8111 68.9211L3.68902 55.1052C1.40618 53.7976 0 51.3816 0 48.7668L0 21.135C0 18.5201 1.40618 16.1038 3.68902 14.7966L27.8111 0.980739C30.0939 -0.326913 32.9063 -0.326913 35.1892 0.980739L59.3108 14.7966C61.5937 16.1038 62.9999 18.5201 62.9999 21.135V48.7668C62.9999 51.3816 61.5937 53.7976 59.3108 55.1052Z" fill="#D3D3D3"/>
<path d="M10.4641 45V24.136H16.3521C17.9521 24.136 19.3921 24.3387 20.6721 24.744C21.9521 25.1493 23.0508 25.7787 23.9681 26.632C24.8855 27.464 25.5895 28.5307 26.0801 29.832C26.5708 31.1333 26.8161 32.68 26.8161 34.472C26.8161 36.264 26.5708 37.8213 26.0801 39.144C25.5895 40.4667 24.8961 41.5653 24.0001 42.44C23.1041 43.2933 22.0268 43.9333 20.7681 44.36C19.5308 44.7867 18.1441 45 16.6081 45H10.4641ZM15.1681 41.192H16.0641C16.9601 41.192 17.7708 41.0747 18.4961 40.84C19.2215 40.6053 19.8401 40.232 20.3521 39.72C20.8641 39.1867 21.2588 38.4933 21.5361 37.64C21.8348 36.7867 21.9841 35.7307 21.9841 34.472C21.9841 33.2347 21.8348 32.2 21.5361 31.368C21.2588 30.5147 20.8641 29.8427 20.3521 29.352C19.8401 28.84 19.2215 28.4773 18.4961 28.264C17.7708 28.0507 16.9601 27.944 16.0641 27.944H15.1681V41.192ZM30.7766 45V24.136H35.4806V45H30.7766ZM43.9856 45V37.576L37.6816 24.136H42.7376L44.5936 28.936C44.8923 29.7253 45.1696 30.4933 45.4256 31.24C45.703 31.9653 45.991 32.7333 46.2896 33.544H46.4176C46.7163 32.7333 47.0043 31.9653 47.2816 31.24C47.5803 30.4933 47.879 29.7253 48.1776 28.936L50.0656 24.136H54.9936L48.6896 37.576V45H43.9856Z" fill="white"/>
</svg>
