<svg width="442" height="50" viewBox="0 0 442 50" fill="none" xmlns="http://www.w3.org/2000/svg">
<rect y="3.05176e-05" width="442" height="50" rx="4" fill="#000E1A"/>
<rect x="409" y="15" width="8" height="18" fill="#DCD207"/>
<path d="M39.8213 20.1831H41.1836L41.2451 21.6069C41.5029 21.3022 41.752 21.0503 41.9922 20.851C42.2324 20.646 42.4668 20.4819 42.6953 20.3589C42.9297 20.2358 43.167 20.1508 43.4072 20.104C43.6475 20.0512 43.8965 20.0249 44.1543 20.0249C45.0625 20.0249 45.748 20.2944 46.2109 20.8335C46.6797 21.3667 46.9141 22.1723 46.9141 23.2505V29.0073H45.3848V23.3735C45.3848 22.6821 45.2559 22.1723 44.998 21.8442C44.7402 21.5102 44.3564 21.3432 43.8467 21.3432C43.6592 21.3432 43.4746 21.3725 43.293 21.4311C43.1172 21.4839 42.9326 21.5805 42.7393 21.7212C42.5459 21.8559 42.335 22.0405 42.1064 22.2749C41.8838 22.5092 41.6318 22.8022 41.3506 23.1538V29.0073H39.8213V20.1831ZM57.2588 24.437C57.2588 25.2221 57.1475 25.9077 56.9248 26.4936C56.708 27.0796 56.4062 27.5659 56.0195 27.9526C55.6328 28.3393 55.1758 28.6294 54.6484 28.8227C54.1211 29.0161 53.5498 29.1128 52.9346 29.1128C52.6533 29.1128 52.3721 29.0981 52.0908 29.0688C51.8154 29.0395 51.5342 28.9897 51.2471 28.9194V32.6108H49.7178V20.1831H51.0801L51.1768 21.6596C51.6162 21.0561 52.085 20.6342 52.583 20.394C53.0811 20.1479 53.6201 20.0249 54.2002 20.0249C54.7041 20.0249 55.1465 20.1303 55.5273 20.3413C55.9082 20.5522 56.2275 20.851 56.4854 21.2378C56.7432 21.6186 56.9365 22.0815 57.0654 22.6264C57.1943 23.1655 57.2588 23.769 57.2588 24.437ZM55.6943 24.5073C55.6943 24.0444 55.6592 23.6196 55.5889 23.2329C55.5244 22.8462 55.4189 22.5151 55.2725 22.2397C55.126 21.9643 54.9385 21.7505 54.71 21.5981C54.4814 21.4399 54.209 21.3608 53.8926 21.3608C53.6992 21.3608 53.5029 21.393 53.3037 21.4575C53.1045 21.5161 52.8965 21.6186 52.6797 21.7651C52.4688 21.9057 52.2432 22.0962 52.0029 22.3364C51.7686 22.5708 51.5166 22.8637 51.2471 23.2153V27.4956C51.5283 27.6128 51.8242 27.7065 52.1348 27.7768C52.4453 27.8413 52.75 27.8735 53.0488 27.8735C53.875 27.8735 54.5225 27.5952 54.9912 27.0385C55.46 26.476 55.6943 25.6323 55.6943 24.5073ZM67.5684 29.0073H65.5381L63.1562 25.6411L60.8008 29.0073H58.8232L62.2422 24.5776L58.9814 20.1831H60.9414L63.2617 23.5757L65.5381 20.1831H67.4277L64.1143 24.6128L67.5684 29.0073ZM86.2627 28.6821C85.8643 28.8344 85.4541 28.9458 85.0322 29.0161C84.6162 29.0923 84.1855 29.1303 83.7402 29.1303C82.3457 29.1303 81.2705 28.7524 80.5146 27.9966C79.7646 27.2407 79.3896 26.1362 79.3896 24.6831C79.3896 23.9858 79.498 23.353 79.7148 22.7846C79.9316 22.2163 80.2363 21.7299 80.6289 21.3257C81.0215 20.9214 81.4902 20.6108 82.0352 20.394C82.5801 20.1714 83.1807 20.06 83.8369 20.06C84.2939 20.06 84.7217 20.0923 85.1201 20.1567C85.5186 20.2212 85.8994 20.3266 86.2627 20.4731V21.9321C85.8818 21.7329 85.4922 21.5893 85.0938 21.5014C84.7012 21.4077 84.2939 21.3608 83.8721 21.3608C83.4795 21.3608 83.1074 21.437 82.7559 21.5893C82.4102 21.7358 82.1055 21.9497 81.8418 22.2309C81.5781 22.5122 81.3701 22.8549 81.2178 23.2592C81.0654 23.6635 80.9893 24.1206 80.9893 24.6303C80.9893 25.6967 81.2471 26.4966 81.7627 27.0298C82.2842 27.5571 83.0049 27.8208 83.9248 27.8208C84.3408 27.8208 84.7422 27.7739 85.1289 27.6801C85.5215 27.5864 85.8994 27.4458 86.2627 27.2583V28.6821ZM89.6641 20.1831H91.0615L91.1055 21.8091C91.627 21.1821 92.1396 20.728 92.6436 20.4467C93.1533 20.1655 93.666 20.0249 94.1816 20.0249C95.0957 20.0249 95.7871 20.3208 96.2559 20.9126C96.7305 21.5044 96.9502 22.3833 96.915 23.5493H95.3682C95.3857 22.7758 95.2715 22.2163 95.0254 21.8706C94.7852 21.519 94.4307 21.3432 93.9619 21.3432C93.7568 21.3432 93.5488 21.3813 93.3379 21.4575C93.1328 21.5278 92.9189 21.645 92.6963 21.8091C92.4795 21.9673 92.248 22.1723 92.002 22.4243C91.7559 22.6762 91.4922 22.9809 91.2109 23.3383V29.0073H89.6641V20.1831ZM106.653 24.1294C106.653 24.3462 106.65 24.5278 106.645 24.6743C106.639 24.8208 106.63 24.9585 106.618 25.0874H100.422C100.422 25.9897 100.674 26.6841 101.178 27.1704C101.682 27.6508 102.408 27.8911 103.357 27.8911C103.615 27.8911 103.873 27.8823 104.131 27.8647C104.389 27.8413 104.638 27.812 104.878 27.7768C105.118 27.7417 105.347 27.7036 105.563 27.6626C105.786 27.6157 105.991 27.5659 106.179 27.5132V28.77C105.763 28.8872 105.291 28.9809 104.764 29.0512C104.242 29.1274 103.7 29.1655 103.138 29.1655C102.382 29.1655 101.731 29.063 101.187 28.8579C100.642 28.6528 100.193 28.3569 99.8418 27.9702C99.4961 27.5776 99.2383 27.1001 99.0684 26.5376C98.9043 25.9692 98.8223 25.3276 98.8223 24.6128C98.8223 23.9917 98.9102 23.4057 99.0859 22.8549C99.2676 22.2983 99.5283 21.812 99.8682 21.396C100.214 20.9741 100.636 20.6401 101.134 20.394C101.632 20.1479 102.197 20.0249 102.83 20.0249C103.445 20.0249 103.99 20.1216 104.465 20.3149C104.939 20.5083 105.338 20.7837 105.66 21.1411C105.988 21.4926 106.234 21.9233 106.398 22.4331C106.568 22.937 106.653 23.5024 106.653 24.1294ZM105.062 23.9096C105.08 23.5171 105.042 23.1596 104.948 22.8374C104.854 22.5092 104.708 22.228 104.509 21.9936C104.315 21.7592 104.072 21.5776 103.779 21.4487C103.486 21.3139 103.146 21.2466 102.76 21.2466C102.426 21.2466 102.121 21.311 101.846 21.4399C101.57 21.5688 101.333 21.7505 101.134 21.9848C100.935 22.2192 100.773 22.5005 100.65 22.8286C100.527 23.1567 100.451 23.5171 100.422 23.9096H105.062ZM114.766 29.0073L114.73 27.8208C114.25 28.2954 113.761 28.6382 113.263 28.8491C112.771 29.06 112.252 29.1655 111.707 29.1655C111.203 29.1655 110.772 29.101 110.415 28.9721C110.058 28.8432 109.762 28.6674 109.527 28.4448C109.299 28.2163 109.129 27.9497 109.018 27.645C108.912 27.3403 108.859 27.0092 108.859 26.6518C108.859 25.7671 109.188 25.0757 109.844 24.5776C110.506 24.0737 111.481 23.8217 112.771 23.8217H114.599V23.0483C114.599 22.5268 114.432 22.1108 114.098 21.8003C113.764 21.4839 113.254 21.3257 112.568 21.3257C112.07 21.3257 111.578 21.3813 111.092 21.4926C110.611 21.604 110.113 21.7622 109.598 21.9673V20.5874C109.791 20.5171 110.005 20.4497 110.239 20.3852C110.479 20.3149 110.731 20.2534 110.995 20.2007C111.259 20.1479 111.534 20.1069 111.821 20.0776C112.108 20.0424 112.398 20.0249 112.691 20.0249C113.225 20.0249 113.705 20.0835 114.133 20.2007C114.561 20.3178 114.921 20.4966 115.214 20.7368C115.513 20.977 115.741 21.2788 115.899 21.6421C116.058 22.0053 116.137 22.4331 116.137 22.9253V29.0073H114.766ZM114.599 24.9907H112.656C112.275 24.9907 111.947 25.0288 111.672 25.1049C111.396 25.1811 111.171 25.2895 110.995 25.4301C110.819 25.5708 110.688 25.7407 110.6 25.9399C110.518 26.1333 110.477 26.353 110.477 26.5991C110.477 26.769 110.503 26.9331 110.556 27.0913C110.608 27.2436 110.693 27.3813 110.811 27.5044C110.928 27.6216 111.08 27.7153 111.268 27.7856C111.455 27.8559 111.684 27.8911 111.953 27.8911C112.305 27.8911 112.706 27.7856 113.157 27.5747C113.614 27.3579 114.095 27.018 114.599 26.5551V24.9907ZM126.104 28.8842C125.758 28.9721 125.4 29.0337 125.031 29.0688C124.662 29.1098 124.287 29.1303 123.906 29.1303C122.799 29.1303 121.973 28.8813 121.428 28.3833C120.883 27.8794 120.61 27.1089 120.61 26.0717V21.4663H118.141V20.1831H120.61V17.7573L122.14 17.3618V20.1831H126.104V21.4663H122.14V25.9487C122.14 26.5815 122.307 27.0561 122.641 27.3725C122.98 27.6831 123.479 27.8383 124.135 27.8383C124.416 27.8383 124.724 27.8178 125.058 27.7768C125.392 27.7299 125.74 27.6596 126.104 27.5659V28.8842ZM136.343 24.1294C136.343 24.3462 136.34 24.5278 136.334 24.6743C136.328 24.8208 136.319 24.9585 136.308 25.0874H130.111C130.111 25.9897 130.363 26.6841 130.867 27.1704C131.371 27.6508 132.098 27.8911 133.047 27.8911C133.305 27.8911 133.562 27.8823 133.82 27.8647C134.078 27.8413 134.327 27.812 134.567 27.7768C134.808 27.7417 135.036 27.7036 135.253 27.6626C135.476 27.6157 135.681 27.5659 135.868 27.5132V28.77C135.452 28.8872 134.98 28.9809 134.453 29.0512C133.932 29.1274 133.39 29.1655 132.827 29.1655C132.071 29.1655 131.421 29.063 130.876 28.8579C130.331 28.6528 129.883 28.3569 129.531 27.9702C129.186 27.5776 128.928 27.1001 128.758 26.5376C128.594 25.9692 128.512 25.3276 128.512 24.6128C128.512 23.9917 128.6 23.4057 128.775 22.8549C128.957 22.2983 129.218 21.812 129.558 21.396C129.903 20.9741 130.325 20.6401 130.823 20.394C131.321 20.1479 131.887 20.0249 132.52 20.0249C133.135 20.0249 133.68 20.1216 134.154 20.3149C134.629 20.5083 135.027 20.7837 135.35 21.1411C135.678 21.4926 135.924 21.9233 136.088 22.4331C136.258 22.937 136.343 23.5024 136.343 24.1294ZM134.752 23.9096C134.77 23.5171 134.731 23.1596 134.638 22.8374C134.544 22.5092 134.397 22.228 134.198 21.9936C134.005 21.7592 133.762 21.5776 133.469 21.4487C133.176 21.3139 132.836 21.2466 132.449 21.2466C132.115 21.2466 131.811 21.311 131.535 21.4399C131.26 21.5688 131.022 21.7505 130.823 21.9848C130.624 22.2192 130.463 22.5005 130.34 22.8286C130.217 23.1567 130.141 23.5171 130.111 23.9096H134.752ZM144.956 24.938H139.7V23.4966H144.956V24.938ZM156.856 20.1831L155.573 29.0073H153.719L152.444 25.3159L152.189 24.4194L151.899 25.3686L150.678 29.0073H148.876L147.602 20.1831H149.096L149.834 26.1772L149.992 27.5132L150.37 26.3442L151.653 22.3803H152.752L154.132 26.2915L154.527 27.4604L154.659 26.2212L155.345 20.1831H156.856ZM166.032 24.1294C166.032 24.3462 166.029 24.5278 166.023 24.6743C166.018 24.8208 166.009 24.9585 165.997 25.0874H159.801C159.801 25.9897 160.053 26.6841 160.557 27.1704C161.061 27.6508 161.787 27.8911 162.736 27.8911C162.994 27.8911 163.252 27.8823 163.51 27.8647C163.768 27.8413 164.017 27.812 164.257 27.7768C164.497 27.7417 164.726 27.7036 164.942 27.6626C165.165 27.6157 165.37 27.5659 165.558 27.5132V28.77C165.142 28.8872 164.67 28.9809 164.143 29.0512C163.621 29.1274 163.079 29.1655 162.517 29.1655C161.761 29.1655 161.11 29.063 160.565 28.8579C160.021 28.6528 159.572 28.3569 159.221 27.9702C158.875 27.5776 158.617 27.1001 158.447 26.5376C158.283 25.9692 158.201 25.3276 158.201 24.6128C158.201 23.9917 158.289 23.4057 158.465 22.8549C158.646 22.2983 158.907 21.812 159.247 21.396C159.593 20.9741 160.015 20.6401 160.513 20.394C161.011 20.1479 161.576 20.0249 162.209 20.0249C162.824 20.0249 163.369 20.1216 163.844 20.3149C164.318 20.5083 164.717 20.7837 165.039 21.1411C165.367 21.4926 165.613 21.9233 165.777 22.4331C165.947 22.937 166.032 23.5024 166.032 24.1294ZM164.441 23.9096C164.459 23.5171 164.421 23.1596 164.327 22.8374C164.233 22.5092 164.087 22.228 163.888 21.9936C163.694 21.7592 163.451 21.5776 163.158 21.4487C162.865 21.3139 162.525 21.2466 162.139 21.2466C161.805 21.2466 161.5 21.311 161.225 21.4399C160.949 21.5688 160.712 21.7505 160.513 21.9848C160.313 22.2192 160.152 22.5005 160.029 22.8286C159.906 23.1567 159.83 23.5171 159.801 23.9096H164.441ZM176.017 24.437C176.017 25.1694 175.914 25.8257 175.709 26.4057C175.51 26.9799 175.223 27.4692 174.848 27.8735C174.479 28.2719 174.027 28.5796 173.494 28.7964C172.961 29.0073 172.36 29.1128 171.692 29.1128C171.171 29.1128 170.638 29.063 170.093 28.9633C169.548 28.8637 169.009 28.7055 168.476 28.4887V16.5883H170.005V20.0073L169.935 21.6421C170.374 21.0503 170.843 20.6342 171.341 20.394C171.845 20.1479 172.384 20.0249 172.958 20.0249C173.462 20.0249 173.904 20.1303 174.285 20.3413C174.666 20.5522 174.985 20.851 175.243 21.2378C175.501 21.6186 175.694 22.0815 175.823 22.6264C175.952 23.1655 176.017 23.769 176.017 24.437ZM174.452 24.5073C174.452 24.0444 174.417 23.6196 174.347 23.2329C174.282 22.8462 174.177 22.5151 174.03 22.2397C173.884 21.9643 173.696 21.7505 173.468 21.5981C173.239 21.4399 172.967 21.3608 172.65 21.3608C172.457 21.3608 172.261 21.393 172.062 21.4575C171.862 21.5161 171.654 21.6186 171.438 21.7651C171.227 21.9057 171.001 22.0962 170.761 22.3364C170.526 22.5708 170.274 22.8637 170.005 23.2153V27.4956C170.304 27.6128 170.608 27.7065 170.919 27.7768C171.229 27.8413 171.525 27.8735 171.807 27.8735C172.158 27.8735 172.492 27.8178 172.809 27.7065C173.131 27.5952 173.412 27.4106 173.652 27.1528C173.898 26.8891 174.092 26.5434 174.232 26.1157C174.379 25.6821 174.452 25.146 174.452 24.5073ZM181.378 21.4487H178.768V20.1831H182.925V27.7329H185.553V29.0073H178.478V27.7329H181.378V21.4487ZM181.914 16.4829C182.084 16.4829 182.242 16.5151 182.389 16.5796C182.535 16.6382 182.661 16.7231 182.767 16.8344C182.878 16.9458 182.963 17.0747 183.021 17.2212C183.086 17.3618 183.118 17.5171 183.118 17.687C183.118 17.851 183.086 18.0063 183.021 18.1528C182.963 18.2993 182.878 18.4282 182.767 18.5395C182.661 18.6508 182.535 18.7387 182.389 18.8032C182.242 18.8618 182.084 18.8911 181.914 18.8911C181.744 18.8911 181.586 18.8618 181.439 18.8032C181.293 18.7387 181.164 18.6508 181.053 18.5395C180.947 18.4282 180.862 18.2993 180.798 18.1528C180.739 18.0063 180.71 17.851 180.71 17.687C180.71 17.5171 180.739 17.3618 180.798 17.2212C180.862 17.0747 180.947 16.9458 181.053 16.8344C181.164 16.7231 181.293 16.6382 181.439 16.5796C181.586 16.5151 181.744 16.4829 181.914 16.4829ZM188.269 20.1831H189.631L189.692 21.6069C189.95 21.3022 190.199 21.0503 190.439 20.851C190.68 20.646 190.914 20.4819 191.143 20.3589C191.377 20.2358 191.614 20.1508 191.854 20.104C192.095 20.0512 192.344 20.0249 192.602 20.0249C193.51 20.0249 194.195 20.2944 194.658 20.8335C195.127 21.3667 195.361 22.1723 195.361 23.2505V29.0073H193.832V23.3735C193.832 22.6821 193.703 22.1723 193.445 21.8442C193.188 21.5102 192.804 21.3432 192.294 21.3432C192.106 21.3432 191.922 21.3725 191.74 21.4311C191.564 21.4839 191.38 21.5805 191.187 21.7212C190.993 21.8559 190.782 22.0405 190.554 22.2749C190.331 22.5092 190.079 22.8022 189.798 23.1538V29.0073H188.269V20.1831ZM206.014 20.1831L203.008 28.0757C202.697 28.8784 202.375 29.5698 202.041 30.1499C201.713 30.7299 201.353 31.2046 200.96 31.5737C200.567 31.9487 200.137 32.2241 199.668 32.3999C199.199 32.5757 198.675 32.6635 198.095 32.6635C197.942 32.6635 197.805 32.6606 197.682 32.6548C197.559 32.6489 197.424 32.6401 197.277 32.6284V31.2397C197.406 31.2573 197.547 31.2719 197.699 31.2837C197.852 31.3012 198.013 31.31 198.183 31.31C198.464 31.31 198.725 31.269 198.965 31.187C199.211 31.1049 199.442 30.9702 199.659 30.7827C199.876 30.601 200.084 30.3637 200.283 30.0708C200.482 29.7778 200.676 29.4233 200.863 29.0073L197.339 20.1831H199.079L201.312 26.019L201.76 27.3901L202.27 25.9839L204.335 20.1831H206.014ZM214.231 24.938H208.976V23.4966H214.231V24.938ZM225.499 24.437C225.499 25.2221 225.388 25.9077 225.165 26.4936C224.948 27.0796 224.646 27.5659 224.26 27.9526C223.873 28.3393 223.416 28.6294 222.889 28.8227C222.361 29.0161 221.79 29.1128 221.175 29.1128C220.894 29.1128 220.612 29.0981 220.331 29.0688C220.056 29.0395 219.774 28.9897 219.487 28.9194V32.6108H217.958V20.1831H219.32L219.417 21.6596C219.856 21.0561 220.325 20.6342 220.823 20.394C221.321 20.1479 221.86 20.0249 222.44 20.0249C222.944 20.0249 223.387 20.1303 223.768 20.3413C224.148 20.5522 224.468 20.851 224.726 21.2378C224.983 21.6186 225.177 22.0815 225.306 22.6264C225.435 23.1655 225.499 23.769 225.499 24.437ZM223.935 24.5073C223.935 24.0444 223.899 23.6196 223.829 23.2329C223.765 22.8462 223.659 22.5151 223.513 22.2397C223.366 21.9643 223.179 21.7505 222.95 21.5981C222.722 21.4399 222.449 21.3608 222.133 21.3608C221.939 21.3608 221.743 21.393 221.544 21.4575C221.345 21.5161 221.137 21.6186 220.92 21.7651C220.709 21.9057 220.483 22.0962 220.243 22.3364C220.009 22.5708 219.757 22.8637 219.487 23.2153V27.4956C219.769 27.6128 220.064 27.7065 220.375 27.7768C220.686 27.8413 220.99 27.8735 221.289 27.8735C222.115 27.8735 222.763 27.5952 223.231 27.0385C223.7 26.476 223.935 25.6323 223.935 24.5073ZM228.215 20.1831H229.612L229.656 21.8091C230.178 21.1821 230.69 20.728 231.194 20.4467C231.704 20.1655 232.217 20.0249 232.732 20.0249C233.646 20.0249 234.338 20.3208 234.807 20.9126C235.281 21.5044 235.501 22.3833 235.466 23.5493H233.919C233.937 22.7758 233.822 22.2163 233.576 21.8706C233.336 21.519 232.981 21.3432 232.513 21.3432C232.308 21.3432 232.1 21.3813 231.889 21.4575C231.684 21.5278 231.47 21.645 231.247 21.8091C231.03 21.9673 230.799 22.1723 230.553 22.4243C230.307 22.6762 230.043 22.9809 229.762 23.3383V29.0073H228.215V20.1831ZM245.433 24.5249C245.433 25.2104 245.336 25.8403 245.143 26.4145C244.949 26.9829 244.671 27.4721 244.308 27.8823C243.944 28.2866 243.502 28.603 242.98 28.8315C242.459 29.0542 241.867 29.1655 241.205 29.1655C240.572 29.1655 240.004 29.0688 239.5 28.8755C239.002 28.6762 238.577 28.3862 238.226 28.0053C237.88 27.6245 237.613 27.1528 237.426 26.5903C237.244 26.0278 237.153 25.3803 237.153 24.6479C237.153 23.9624 237.25 23.3383 237.443 22.7758C237.637 22.2075 237.915 21.7212 238.278 21.3169C238.642 20.9067 239.084 20.5903 239.605 20.3676C240.127 20.1391 240.719 20.0249 241.381 20.0249C242.014 20.0249 242.579 20.1245 243.077 20.3237C243.581 20.5171 244.006 20.8042 244.352 21.185C244.703 21.56 244.97 22.0288 245.151 22.5913C245.339 23.1538 245.433 23.7983 245.433 24.5249ZM243.868 24.5952C243.868 24.0503 243.807 23.5757 243.684 23.1714C243.566 22.7612 243.396 22.4214 243.174 22.1518C242.951 21.8764 242.679 21.6714 242.356 21.5366C242.04 21.396 241.686 21.3257 241.293 21.3257C240.836 21.3257 240.443 21.4165 240.115 21.5981C239.793 21.7739 239.526 22.0112 239.315 22.31C239.11 22.6089 238.958 22.9575 238.858 23.3559C238.765 23.7485 238.718 24.1616 238.718 24.5952C238.718 25.1401 238.776 25.6176 238.894 26.0278C239.017 26.438 239.189 26.7807 239.412 27.0561C239.635 27.3257 239.904 27.5307 240.221 27.6714C240.537 27.8061 240.895 27.8735 241.293 27.8735C241.75 27.8735 242.14 27.7856 242.462 27.6098C242.79 27.4282 243.057 27.188 243.262 26.8891C243.473 26.5903 243.625 26.2446 243.719 25.852C243.818 25.4536 243.868 25.0346 243.868 24.5952ZM253.624 20.1831V28.8491C253.624 29.4643 253.536 30.0092 253.36 30.4839C253.185 30.9643 252.933 31.3686 252.604 31.6967C252.276 32.0249 251.872 32.2739 251.392 32.4438C250.917 32.6137 250.381 32.6987 249.783 32.6987C249.35 32.6987 248.925 32.6577 248.509 32.5757C248.099 32.4995 247.727 32.3911 247.393 32.2505V30.7915C247.574 30.8852 247.768 30.9702 247.973 31.0464C248.184 31.1225 248.397 31.187 248.614 31.2397C248.837 31.2924 249.06 31.3305 249.282 31.354C249.505 31.3833 249.722 31.3979 249.933 31.3979C250.601 31.3979 251.125 31.187 251.506 30.7651C251.887 30.3432 252.077 29.7221 252.077 28.9018V21.4487H247.753V20.1831H253.624ZM252.701 16.4829C252.871 16.4829 253.029 16.5151 253.176 16.5796C253.322 16.6382 253.448 16.7231 253.554 16.8344C253.665 16.9458 253.75 17.0747 253.809 17.2212C253.873 17.3676 253.905 17.5229 253.905 17.687C253.905 17.8569 253.873 18.0151 253.809 18.1616C253.75 18.3022 253.665 18.4282 253.554 18.5395C253.448 18.6508 253.322 18.7387 253.176 18.8032C253.029 18.8618 252.871 18.8911 252.701 18.8911C252.531 18.8911 252.373 18.8618 252.227 18.8032C252.08 18.7387 251.951 18.6508 251.84 18.5395C251.734 18.4282 251.649 18.3022 251.585 18.1616C251.526 18.0151 251.497 17.8569 251.497 17.687C251.497 17.5229 251.526 17.3676 251.585 17.2212C251.649 17.0747 251.734 16.9458 251.84 16.8344C251.951 16.7231 252.08 16.6382 252.227 16.5796C252.373 16.5151 252.531 16.4829 252.701 16.4829ZM264.997 24.1294C264.997 24.3462 264.994 24.5278 264.988 24.6743C264.982 24.8208 264.974 24.9585 264.962 25.0874H258.766C258.766 25.9897 259.018 26.6841 259.521 27.1704C260.025 27.6508 260.752 27.8911 261.701 27.8911C261.959 27.8911 262.217 27.8823 262.475 27.8647C262.732 27.8413 262.981 27.812 263.222 27.7768C263.462 27.7417 263.69 27.7036 263.907 27.6626C264.13 27.6157 264.335 27.5659 264.522 27.5132V28.77C264.106 28.8872 263.635 28.9809 263.107 29.0512C262.586 29.1274 262.044 29.1655 261.481 29.1655C260.726 29.1655 260.075 29.063 259.53 28.8579C258.985 28.6528 258.537 28.3569 258.186 27.9702C257.84 27.5776 257.582 27.1001 257.412 26.5376C257.248 25.9692 257.166 25.3276 257.166 24.6128C257.166 23.9917 257.254 23.4057 257.43 22.8549C257.611 22.2983 257.872 21.812 258.212 21.396C258.558 20.9741 258.979 20.6401 259.478 20.394C259.976 20.1479 260.541 20.0249 261.174 20.0249C261.789 20.0249 262.334 20.1216 262.809 20.3149C263.283 20.5083 263.682 20.7837 264.004 21.1411C264.332 21.4926 264.578 21.9233 264.742 22.4331C264.912 22.937 264.997 23.5024 264.997 24.1294ZM263.406 23.9096C263.424 23.5171 263.386 23.1596 263.292 22.8374C263.198 22.5092 263.052 22.228 262.853 21.9936C262.659 21.7592 262.416 21.5776 262.123 21.4487C261.83 21.3139 261.49 21.2466 261.104 21.2466C260.77 21.2466 260.465 21.311 260.189 21.4399C259.914 21.5688 259.677 21.7505 259.478 21.9848C259.278 22.2192 259.117 22.5005 258.994 22.8286C258.871 23.1567 258.795 23.5171 258.766 23.9096H263.406ZM274.296 28.6821C273.897 28.8344 273.487 28.9458 273.065 29.0161C272.649 29.0923 272.219 29.1303 271.773 29.1303C270.379 29.1303 269.304 28.7524 268.548 27.9966C267.798 27.2407 267.423 26.1362 267.423 24.6831C267.423 23.9858 267.531 23.353 267.748 22.7846C267.965 22.2163 268.27 21.7299 268.662 21.3257C269.055 20.9214 269.523 20.6108 270.068 20.394C270.613 20.1714 271.214 20.06 271.87 20.06C272.327 20.06 272.755 20.0923 273.153 20.1567C273.552 20.2212 273.933 20.3266 274.296 20.4731V21.9321C273.915 21.7329 273.525 21.5893 273.127 21.5014C272.734 21.4077 272.327 21.3608 271.905 21.3608C271.513 21.3608 271.141 21.437 270.789 21.5893C270.443 21.7358 270.139 21.9497 269.875 22.2309C269.611 22.5122 269.403 22.8549 269.251 23.2592C269.099 23.6635 269.022 24.1206 269.022 24.6303C269.022 25.6967 269.28 26.4966 269.796 27.0298C270.317 27.5571 271.038 27.8208 271.958 27.8208C272.374 27.8208 272.775 27.7739 273.162 27.6801C273.555 27.5864 273.933 27.4458 274.296 27.2583V28.6821ZM284.447 28.8842C284.102 28.9721 283.744 29.0337 283.375 29.0688C283.006 29.1098 282.631 29.1303 282.25 29.1303C281.143 29.1303 280.316 28.8813 279.771 28.3833C279.227 27.8794 278.954 27.1089 278.954 26.0717V21.4663H276.484V20.1831H278.954V17.7573L280.483 17.3618V20.1831H284.447V21.4663H280.483V25.9487C280.483 26.5815 280.65 27.0561 280.984 27.3725C281.324 27.6831 281.822 27.8383 282.479 27.8383C282.76 27.8383 283.067 27.8178 283.401 27.7768C283.735 27.7299 284.084 27.6596 284.447 27.5659V28.8842ZM297.13 20.1831H298.492L298.554 21.6069C298.812 21.3022 299.061 21.0503 299.301 20.851C299.541 20.646 299.775 20.4819 300.004 20.3589C300.238 20.2358 300.476 20.1508 300.716 20.104C300.956 20.0512 301.205 20.0249 301.463 20.0249C302.371 20.0249 303.057 20.2944 303.52 20.8335C303.988 21.3667 304.223 22.1723 304.223 23.2505V29.0073H302.693V23.3735C302.693 22.6821 302.564 22.1723 302.307 21.8442C302.049 21.5102 301.665 21.3432 301.155 21.3432C300.968 21.3432 300.783 21.3725 300.602 21.4311C300.426 21.4839 300.241 21.5805 300.048 21.7212C299.854 21.8559 299.644 22.0405 299.415 22.2749C299.192 22.5092 298.94 22.8022 298.659 23.1538V29.0073H297.13V20.1831ZM314.479 24.1294C314.479 24.3462 314.477 24.5278 314.471 24.6743C314.465 24.8208 314.456 24.9585 314.444 25.0874H308.248C308.248 25.9897 308.5 26.6841 309.004 27.1704C309.508 27.6508 310.234 27.8911 311.184 27.8911C311.441 27.8911 311.699 27.8823 311.957 27.8647C312.215 27.8413 312.464 27.812 312.704 27.7768C312.944 27.7417 313.173 27.7036 313.39 27.6626C313.612 27.6157 313.817 27.5659 314.005 27.5132V28.77C313.589 28.8872 313.117 28.9809 312.59 29.0512C312.068 29.1274 311.526 29.1655 310.964 29.1655C310.208 29.1655 309.558 29.063 309.013 28.8579C308.468 28.6528 308.02 28.3569 307.668 27.9702C307.322 27.5776 307.064 27.1001 306.895 26.5376C306.73 25.9692 306.648 25.3276 306.648 24.6128C306.648 23.9917 306.736 23.4057 306.912 22.8549C307.094 22.2983 307.354 21.812 307.694 21.396C308.04 20.9741 308.462 20.6401 308.96 20.394C309.458 20.1479 310.023 20.0249 310.656 20.0249C311.271 20.0249 311.816 20.1216 312.291 20.3149C312.766 20.5083 313.164 20.7837 313.486 21.1411C313.814 21.4926 314.061 21.9233 314.225 22.4331C314.395 22.937 314.479 23.5024 314.479 24.1294ZM312.889 23.9096C312.906 23.5171 312.868 23.1596 312.774 22.8374C312.681 22.5092 312.534 22.228 312.335 21.9936C312.142 21.7592 311.898 21.5776 311.605 21.4487C311.312 21.3139 310.973 21.2466 310.586 21.2466C310.252 21.2466 309.947 21.311 309.672 21.4399C309.396 21.5688 309.159 21.7505 308.96 21.9848C308.761 22.2192 308.6 22.5005 308.477 22.8286C308.354 23.1567 308.277 23.5171 308.248 23.9096H312.889ZM325.097 20.1831L323.813 29.0073H321.959L320.685 25.3159L320.43 24.4194L320.14 25.3686L318.918 29.0073H317.116L315.842 20.1831H317.336L318.074 26.1772L318.232 27.5132L318.61 26.3442L319.894 22.3803H320.992L322.372 26.2915L322.768 27.4604L322.899 26.2212L323.585 20.1831H325.097ZM332.989 24.938H327.733V23.4966H332.989V24.938ZM344.257 24.437C344.257 25.2221 344.146 25.9077 343.923 26.4936C343.706 27.0796 343.404 27.5659 343.018 27.9526C342.631 28.3393 342.174 28.6294 341.646 28.8227C341.119 29.0161 340.548 29.1128 339.933 29.1128C339.651 29.1128 339.37 29.0981 339.089 29.0688C338.813 29.0395 338.532 28.9897 338.245 28.9194V32.6108H336.716V20.1831H338.078L338.175 21.6596C338.614 21.0561 339.083 20.6342 339.581 20.394C340.079 20.1479 340.618 20.0249 341.198 20.0249C341.702 20.0249 342.145 20.1303 342.525 20.3413C342.906 20.5522 343.226 20.851 343.483 21.2378C343.741 21.6186 343.935 22.0815 344.063 22.6264C344.192 23.1655 344.257 23.769 344.257 24.437ZM342.692 24.5073C342.692 24.0444 342.657 23.6196 342.587 23.2329C342.522 22.8462 342.417 22.5151 342.271 22.2397C342.124 21.9643 341.937 21.7505 341.708 21.5981C341.479 21.4399 341.207 21.3608 340.891 21.3608C340.697 21.3608 340.501 21.393 340.302 21.4575C340.103 21.5161 339.895 21.6186 339.678 21.7651C339.467 21.9057 339.241 22.0962 339.001 22.3364C338.767 22.5708 338.515 22.8637 338.245 23.2153V27.4956C338.526 27.6128 338.822 27.7065 339.133 27.7768C339.443 27.8413 339.748 27.8735 340.047 27.8735C340.873 27.8735 341.521 27.5952 341.989 27.0385C342.458 26.476 342.692 25.6323 342.692 24.5073ZM346.973 20.1831H348.37L348.414 21.8091C348.936 21.1821 349.448 20.728 349.952 20.4467C350.462 20.1655 350.975 20.0249 351.49 20.0249C352.404 20.0249 353.096 20.3208 353.564 20.9126C354.039 21.5044 354.259 22.3833 354.224 23.5493H352.677C352.694 22.7758 352.58 22.2163 352.334 21.8706C352.094 21.519 351.739 21.3432 351.271 21.3432C351.065 21.3432 350.857 21.3813 350.646 21.4575C350.441 21.5278 350.228 21.645 350.005 21.8091C349.788 21.9673 349.557 22.1723 349.311 22.4243C349.064 22.6762 348.801 22.9809 348.52 23.3383V29.0073H346.973V20.1831ZM364.19 24.5249C364.19 25.2104 364.094 25.8403 363.9 26.4145C363.707 26.9829 363.429 27.4721 363.065 27.8823C362.702 28.2866 362.26 28.603 361.738 28.8315C361.217 29.0542 360.625 29.1655 359.963 29.1655C359.33 29.1655 358.762 29.0688 358.258 28.8755C357.76 28.6762 357.335 28.3862 356.983 28.0053C356.638 27.6245 356.371 27.1528 356.184 26.5903C356.002 26.0278 355.911 25.3803 355.911 24.6479C355.911 23.9624 356.008 23.3383 356.201 22.7758C356.395 22.2075 356.673 21.7212 357.036 21.3169C357.399 20.9067 357.842 20.5903 358.363 20.3676C358.885 20.1391 359.477 20.0249 360.139 20.0249C360.771 20.0249 361.337 20.1245 361.835 20.3237C362.339 20.5171 362.764 20.8042 363.109 21.185C363.461 21.56 363.728 22.0288 363.909 22.5913C364.097 23.1538 364.19 23.7983 364.19 24.5249ZM362.626 24.5952C362.626 24.0503 362.564 23.5757 362.441 23.1714C362.324 22.7612 362.154 22.4214 361.932 22.1518C361.709 21.8764 361.437 21.6714 361.114 21.5366C360.798 21.396 360.443 21.3257 360.051 21.3257C359.594 21.3257 359.201 21.4165 358.873 21.5981C358.551 21.7739 358.284 22.0112 358.073 22.31C357.868 22.6089 357.716 22.9575 357.616 23.3559C357.522 23.7485 357.476 24.1616 357.476 24.5952C357.476 25.1401 357.534 25.6176 357.651 26.0278C357.774 26.438 357.947 26.7807 358.17 27.0561C358.393 27.3257 358.662 27.5307 358.979 27.6714C359.295 27.8061 359.652 27.8735 360.051 27.8735C360.508 27.8735 360.897 27.7856 361.22 27.6098C361.548 27.4282 361.814 27.188 362.02 26.8891C362.23 26.5903 362.383 26.2446 362.477 25.852C362.576 25.4536 362.626 25.0346 362.626 24.5952ZM372.382 20.1831V28.8491C372.382 29.4643 372.294 30.0092 372.118 30.4839C371.942 30.9643 371.69 31.3686 371.362 31.6967C371.034 32.0249 370.63 32.2739 370.149 32.4438C369.675 32.6137 369.139 32.6987 368.541 32.6987C368.107 32.6987 367.683 32.6577 367.267 32.5757C366.856 32.4995 366.484 32.3911 366.15 32.2505V30.7915C366.332 30.8852 366.525 30.9702 366.73 31.0464C366.941 31.1225 367.155 31.187 367.372 31.2397C367.595 31.2924 367.817 31.3305 368.04 31.354C368.263 31.3833 368.479 31.3979 368.69 31.3979C369.358 31.3979 369.883 31.187 370.264 30.7651C370.645 30.3432 370.835 29.7221 370.835 28.9018V21.4487H366.511V20.1831H372.382ZM371.459 16.4829C371.629 16.4829 371.787 16.5151 371.934 16.5796C372.08 16.6382 372.206 16.7231 372.312 16.8344C372.423 16.9458 372.508 17.0747 372.566 17.2212C372.631 17.3676 372.663 17.5229 372.663 17.687C372.663 17.8569 372.631 18.0151 372.566 18.1616C372.508 18.3022 372.423 18.4282 372.312 18.5395C372.206 18.6508 372.08 18.7387 371.934 18.8032C371.787 18.8618 371.629 18.8911 371.459 18.8911C371.289 18.8911 371.131 18.8618 370.984 18.8032C370.838 18.7387 370.709 18.6508 370.598 18.5395C370.492 18.4282 370.407 18.3022 370.343 18.1616C370.284 18.0151 370.255 17.8569 370.255 17.687C370.255 17.5229 370.284 17.3676 370.343 17.2212C370.407 17.0747 370.492 16.9458 370.598 16.8344C370.709 16.7231 370.838 16.6382 370.984 16.5796C371.131 16.5151 371.289 16.4829 371.459 16.4829ZM383.755 24.1294C383.755 24.3462 383.752 24.5278 383.746 24.6743C383.74 24.8208 383.731 24.9585 383.72 25.0874H377.523C377.523 25.9897 377.775 26.6841 378.279 27.1704C378.783 27.6508 379.51 27.8911 380.459 27.8911C380.717 27.8911 380.975 27.8823 381.232 27.8647C381.49 27.8413 381.739 27.812 381.979 27.7768C382.22 27.7417 382.448 27.7036 382.665 27.6626C382.888 27.6157 383.093 27.5659 383.28 27.5132V28.77C382.864 28.8872 382.393 28.9809 381.865 29.0512C381.344 29.1274 380.802 29.1655 380.239 29.1655C379.483 29.1655 378.833 29.063 378.288 28.8579C377.743 28.6528 377.295 28.3569 376.943 27.9702C376.598 27.5776 376.34 27.1001 376.17 26.5376C376.006 25.9692 375.924 25.3276 375.924 24.6128C375.924 23.9917 376.012 23.4057 376.188 22.8549C376.369 22.2983 376.63 21.812 376.97 21.396C377.315 20.9741 377.737 20.6401 378.235 20.394C378.733 20.1479 379.299 20.0249 379.932 20.0249C380.547 20.0249 381.092 20.1216 381.566 20.3149C382.041 20.5083 382.439 20.7837 382.762 21.1411C383.09 21.4926 383.336 21.9233 383.5 22.4331C383.67 22.937 383.755 23.5024 383.755 24.1294ZM382.164 23.9096C382.182 23.5171 382.144 23.1596 382.05 22.8374C381.956 22.5092 381.81 22.228 381.61 21.9936C381.417 21.7592 381.174 21.5776 380.881 21.4487C380.588 21.3139 380.248 21.2466 379.861 21.2466C379.527 21.2466 379.223 21.311 378.947 21.4399C378.672 21.5688 378.435 21.7505 378.235 21.9848C378.036 22.2192 377.875 22.5005 377.752 22.8286C377.629 23.1567 377.553 23.5171 377.523 23.9096H382.164ZM393.054 28.6821C392.655 28.8344 392.245 28.9458 391.823 29.0161C391.407 29.0923 390.977 29.1303 390.531 29.1303C389.137 29.1303 388.062 28.7524 387.306 27.9966C386.556 27.2407 386.181 26.1362 386.181 24.6831C386.181 23.9858 386.289 23.353 386.506 22.7846C386.723 22.2163 387.027 21.7299 387.42 21.3257C387.812 20.9214 388.281 20.6108 388.826 20.394C389.371 20.1714 389.972 20.06 390.628 20.06C391.085 20.06 391.513 20.0923 391.911 20.1567C392.31 20.2212 392.69 20.3266 393.054 20.4731V21.9321C392.673 21.7329 392.283 21.5893 391.885 21.5014C391.492 21.4077 391.085 21.3608 390.663 21.3608C390.271 21.3608 389.898 21.437 389.547 21.5893C389.201 21.7358 388.896 21.9497 388.633 22.2309C388.369 22.5122 388.161 22.8549 388.009 23.2592C387.856 23.6635 387.78 24.1206 387.78 24.6303C387.78 25.6967 388.038 26.4966 388.554 27.0298C389.075 27.5571 389.796 27.8208 390.716 27.8208C391.132 27.8208 391.533 27.7739 391.92 27.6801C392.312 27.5864 392.69 27.4458 393.054 27.2583V28.6821ZM403.205 28.8842C402.859 28.9721 402.502 29.0337 402.133 29.0688C401.764 29.1098 401.389 29.1303 401.008 29.1303C399.9 29.1303 399.074 28.8813 398.529 28.3833C397.984 27.8794 397.712 27.1089 397.712 26.0717V21.4663H395.242V20.1831H397.712V17.7573L399.241 17.3618V20.1831H403.205V21.4663H399.241V25.9487C399.241 26.5815 399.408 27.0561 399.742 27.3725C400.082 27.6831 400.58 27.8383 401.236 27.8383C401.518 27.8383 401.825 27.8178 402.159 27.7768C402.493 27.7299 402.842 27.6596 403.205 27.5659V28.8842Z" fill="white"/>
</svg>
