<svg width="22" height="21" viewBox="0 0 22 21" fill="none" xmlns="http://www.w3.org/2000/svg">
<path fill-rule="evenodd" clip-rule="evenodd" d="M11.0265 0.833832C5.33529 0.833832 0.719116 5.45001 0.719116 11.1412C0.719116 15.6941 3.69117 19.5515 7.73823 20.9427C8.24412 21.0059 8.43382 20.6897 8.43382 20.4368C8.43382 20.1838 8.43382 19.5515 8.43382 18.6662C5.58823 19.2985 4.95588 17.275 4.95588 17.275C4.51323 16.0735 3.81765 15.7574 3.81765 15.7574C2.86912 15.125 3.88088 15.125 3.88088 15.125C4.89265 15.1882 5.46176 16.2 5.46176 16.2C6.41029 17.7809 7.86471 17.3382 8.43382 17.0853C8.49706 16.3897 8.81323 15.9471 9.06618 15.6941C6.7897 15.4412 4.38676 14.5559 4.38676 10.5721C4.38676 9.43383 4.76618 8.54854 5.46176 7.78971C5.33529 7.53677 5.01912 6.46177 5.58823 5.0706C5.58823 5.0706 6.47353 4.81765 8.43382 6.1456C9.25588 5.89265 10.1412 5.82942 11.0265 5.82942C11.9118 5.82942 12.7971 5.95589 13.6191 6.1456C15.5794 4.81765 16.4647 5.0706 16.4647 5.0706C17.0338 6.46177 16.6544 7.53677 16.5912 7.78971C17.2235 8.4853 17.6662 9.43383 17.6662 10.5721C17.6662 14.5559 15.2632 15.3779 12.9868 15.6309C13.3662 15.9471 13.6824 16.5794 13.6824 17.528C13.6824 18.9191 13.6824 19.9941 13.6824 20.3735C13.6824 20.6265 13.8721 20.9427 14.3779 20.8794C18.4882 19.4882 21.3971 15.6309 21.3971 11.0779C21.3338 5.45001 16.7176 0.833832 11.0265 0.833832Z" fill="#191717"/>
</svg>
