<svg width="983" height="563" viewBox="0 0 983 563" fill="none" xmlns="http://www.w3.org/2000/svg">
<path fill-rule="evenodd" clip-rule="evenodd" d="M54.0001 470.5C54.0001 464.149 59.1488 459 65.5001 459C71.8514 459 77.0001 464.149 77.0001 470.5C77.0001 476.851 71.8514 482 65.5001 482C59.1488 482 54.0001 476.851 54.0001 470.5Z" fill="#E69AD2"/>
<path fill-rule="evenodd" clip-rule="evenodd" d="M96 59C96 26.4152 122.415 0 155 0C187.585 0 214 26.4152 214 59C214 91.5848 187.585 118 155 118C122.415 118 96 91.5848 96 59Z" fill="#7B39D9"/>
<path fill-rule="evenodd" clip-rule="evenodd" d="M0.000244141 334C0.000244141 279.876 43.8763 236 98.0002 236C152.124 236 196 279.876 196 334C196 388.124 152.124 432 98.0002 432C43.8763 432 0.000244141 388.124 0.000244141 334Z" fill="#FA5A28"/>
<path fill-rule="evenodd" clip-rule="evenodd" d="M787 465C787 410.876 830.876 367 885 367C939.124 367 983 410.876 983 465C983 519.124 939.124 563 885 563C830.876 563 787 519.124 787 465Z" fill="#00CCB0"/>
</svg>
