<svg width="268" height="72" viewBox="0 0 268 72" fill="none" xmlns="http://www.w3.org/2000/svg">
<path d="M80.856 32.2041V34.2593C79.7953 32.9334 78.0053 31.7732 75.6517 31.7732C70.7458 31.7732 67 35.6847 67 40.4581C67 45.0326 70.8784 49.3087 75.6517 49.3087C78.0053 49.3087 79.7953 48.1817 80.856 46.8557V48.8778H86.889V32.2041H80.856ZM81.1212 41.0879C80.7566 43.0768 79.2317 44.3365 77.2428 44.3365C74.7236 44.3365 73.2319 42.6127 73.2319 40.4581C73.2319 38.1046 74.591 36.7455 77.2428 36.7455C79.2317 36.7455 80.7566 38.0383 81.1212 40.0272V41.0879Z" fill="#DA2C2C"/>
<path d="M101.298 31.7732C98.9449 31.7732 97.1549 32.9003 96.0609 34.2262V32.2041H90.1929V48.8778H96.2259V39.994C96.5579 38.0051 97.7179 36.7455 99.4749 36.7455C101.431 36.7455 101.961 37.541 101.961 39.8283V48.8778H107.994V39.8283C107.994 34.6903 106.005 31.7732 101.298 31.7732Z" fill="#DA2C2C"/>
<path d="M118.96 37.0106H123.767V32.204H118.96V25.6738H112.927V32.204H110.01V37.0106H112.927V48.8777H118.96V37.0106Z" fill="#DA2C2C"/>
<path d="M131.699 36.9775C131.699 36.4803 132.064 36.2482 133.655 36.2482C135.18 36.2482 136.639 36.6129 138.064 37.4416L140.02 33.4969C138.097 32.3367 136.108 31.7732 133.257 31.7732C129.147 31.7732 125.567 33.0329 125.567 37.0107C125.567 39.8614 127.788 41.1211 130.274 42.0161C133.058 43.0105 133.92 43.3752 133.92 44.1044C133.92 44.5685 133.456 44.8005 131.799 44.8005C130.44 44.8005 128.186 44.1376 126.628 43.2426L124.805 47.4524C126.926 48.6457 129.18 49.3087 132.396 49.3087C136.705 49.3087 140.053 48.1817 140.053 43.9718C140.053 40.9553 137.931 39.762 134.882 38.7344C132.23 37.8394 131.699 37.6073 131.699 36.9775Z" fill="#DA2C2C"/>
<path d="M150.425 37.0106H155.232V32.204H150.425V25.6738H144.392V32.204H141.475V37.0106H144.392V48.8777H150.425V37.0106Z" fill="#DA2C2C"/>
<path d="M170.428 32.2041V34.2593C169.367 32.9334 167.577 31.7732 165.224 31.7732C160.318 31.7732 156.572 35.6847 156.572 40.4581C156.572 45.0326 160.45 49.3087 165.224 49.3087C167.577 49.3087 169.367 48.1817 170.428 46.8557V48.8778H176.461V32.2041H170.428ZM170.693 41.0879C170.328 43.0768 168.804 44.3365 166.815 44.3365C164.295 44.3365 162.804 42.6127 162.804 40.4581C162.804 38.1046 164.163 36.7455 166.815 36.7455C168.804 36.7455 170.328 38.0383 170.693 40.0272V41.0879Z" fill="#DA2C2C"/>
<path d="M189.146 44.3365C186.958 44.3365 185.334 42.8779 185.334 40.4912C185.367 38.0051 186.594 36.7455 188.914 36.7455C190.34 36.7455 191.997 37.0438 193.489 37.6736V32.6351C191.964 32.0716 190.737 31.7732 188.914 31.7732C183.743 31.7732 179.102 35.2206 179.102 40.4912C179.102 45.6624 183.71 49.3087 188.914 49.3087C190.539 49.3087 192.13 49.0767 193.489 48.6126V43.5409C191.699 44.2039 190.406 44.3365 189.146 44.3365Z" fill="#DA2C2C"/>
<path d="M214.804 48.8778L205.29 39.2648L214.307 32.2041H206.716L202.274 35.6847V21H196.307V48.8778H202.274V43.6735L207.312 48.8778H214.804Z" fill="#DA2C2C"/>
<path d="M220.516 42.2812C218.196 42.2812 216.572 43.6734 216.572 45.7949C216.572 47.9164 218.196 49.3087 220.516 49.3087C222.87 49.3087 224.494 47.9164 224.494 45.7949C224.494 43.6734 222.87 42.2812 220.516 42.2812Z" fill="#DA2C2C"/>
<path d="M227.805 32.204V48.8777H233.838V32.204H227.805ZM230.821 23.3203C228.733 23.3203 227.34 24.6462 227.34 26.5357C227.34 28.392 228.733 29.7511 230.821 29.7511C232.909 29.7511 234.302 28.392 234.302 26.5357C234.302 24.6462 232.909 23.3203 230.821 23.3203Z" fill="#DA2C2C"/>
<path d="M246.607 31.7732C241.403 31.7732 236.497 35.4527 236.497 40.5244C236.497 45.6292 241.403 49.3087 246.607 49.3087C251.811 49.3087 256.717 45.6292 256.717 40.5244C256.717 35.4527 251.811 31.7732 246.607 31.7732ZM246.607 44.3365C244.287 44.3365 242.729 42.8448 242.729 40.5244C242.729 38.204 244.287 36.7455 246.607 36.7455C248.928 36.7455 250.486 38.204 250.486 40.5244C250.486 42.8448 248.928 44.3365 246.607 44.3365Z" fill="#DA2C2C"/>
<path d="M262.398 21C263.427 21 264.348 21.237 265.164 21.711C265.979 22.1674 266.618 22.8082 267.079 23.6333C267.54 24.4408 267.77 25.3536 267.77 26.3718C267.77 27.39 267.54 28.3117 267.079 29.1367C266.618 29.9618 265.979 30.6114 265.164 31.0854C264.348 31.5418 263.427 31.77 262.398 31.77C261.352 31.77 260.422 31.5418 259.606 31.0854C258.791 30.6114 258.152 29.9618 257.691 29.1367C257.23 28.3117 257 27.39 257 26.3718C257 25.3536 257.23 24.4408 257.691 23.6333C258.152 22.8082 258.791 22.1674 259.606 21.711C260.422 21.237 261.352 21 262.398 21ZM262.398 30.7167C263.675 30.7167 264.703 30.3129 265.483 29.5054C266.281 28.6979 266.68 27.6533 266.68 26.3718C266.68 25.0903 266.281 24.0458 265.483 23.2383C264.703 22.4307 263.675 22.027 262.398 22.027C261.104 22.027 260.067 22.4307 259.287 23.2383C258.525 24.0458 258.143 25.0903 258.143 26.3718C258.143 27.6533 258.525 28.6979 259.287 29.5054C260.067 30.3129 261.104 30.7167 262.398 30.7167ZM264.792 25.2659C264.792 25.6872 264.676 26.0471 264.446 26.3455C264.233 26.6264 263.932 26.8283 263.542 26.9512L265.031 29.1367L263.356 29.1631L262.079 27.0565H261.627V29.1631H260.244V23.5016H262.797C263.4 23.5016 263.879 23.6596 264.233 23.9756C264.605 24.2916 264.792 24.7217 264.792 25.2659ZM261.627 25.9242H262.717C262.912 25.9242 263.072 25.8715 263.196 25.7662C263.338 25.6609 263.409 25.5116 263.409 25.3185C263.409 25.1254 263.338 24.985 263.196 24.8972C263.072 24.7919 262.912 24.7392 262.717 24.7392H261.627V25.9242Z" fill="#082D59"/>
<path fill-rule="evenodd" clip-rule="evenodd" d="M30.9924 66.2345C29.461 66.2593 27.2641 65.0171 27.2641 65.0171C22.6617 62.7159 13.6671 53.7665 12.5604 42.4237C11.4869 31.42 17.1976 20.6842 30.8503 20.6374L30.8714 20.6373C30.8797 20.6373 30.888 20.6373 30.8963 20.6373L30.94 20.6372C44.5927 20.684 50.3034 31.42 49.2298 42.4237C48.1232 53.7665 39.1286 62.7159 34.5262 65.0171C34.5262 65.0171 32.4519 66.211 30.9924 66.2345Z" fill="#082D59"/>
<path fill-rule="evenodd" clip-rule="evenodd" d="M43.3468 14.0661C45.1547 12.9808 47.4622 11.6344 49.4662 10.55C50.4835 9.99953 51.4173 9.51939 52.1656 9.17558C52.5403 9.00346 52.8622 8.86838 53.1211 8.77612C53.3955 8.67834 53.5521 8.64628 53.6143 8.64427C54.2674 8.6232 54.613 8.20471 54.7534 7.83761C54.9005 7.45281 54.8897 6.98413 54.6986 6.61882C54.6024 6.43477 54.4492 6.25623 54.2165 6.13691C53.9722 6.01165 53.6723 5.96854 53.3458 6.0234C53.0328 6.07601 52.7091 6.2156 52.3744 6.43381C52.0373 6.6536 51.6704 6.96532 51.2715 7.38487C48.8237 9.95899 45.0158 11.9166 43.4276 12.5683L43.3683 12.5926L43.3252 12.631C43.2406 12.7063 43.1193 12.8015 42.9741 12.8977C42.769 12.8301 42.5379 12.8185 42.3336 12.8316C42.0108 12.8522 41.6678 12.9376 41.3668 13.055C41.0665 13.1721 40.7787 13.3325 40.5833 13.5209C40.39 13.7072 40.2494 13.9625 40.3852 14.2312L40.3856 14.2321C40.386 14.2331 40.3868 14.2351 40.3878 14.2382C40.3894 14.2431 40.3913 14.25 40.3931 14.2593C40.3967 14.2781 40.3996 14.3033 40.4005 14.3357C40.4024 14.4011 40.3963 14.4861 40.381 14.5912C40.3502 14.8014 40.2851 15.0735 40.1905 15.3959C40.0017 16.0397 39.7019 16.8628 39.3503 17.7501C38.6474 19.5236 37.744 21.5365 37.1264 22.8487L36.8973 23.3354L39.3799 22.778L39.0323 22.4767C38.9394 22.3962 38.9024 22.2328 38.9737 21.9831C39.0405 21.7491 39.1825 21.5127 39.2917 21.3704L39.3238 21.3285L39.3334 21.281C39.5551 20.1756 40.5271 17.3684 42.6163 15.0652C42.9717 14.6734 43.2095 14.3431 43.3468 14.0661ZM18.5072 14.0937C16.6993 13.0084 14.3918 11.662 12.3878 10.5776C11.3705 10.0271 10.4367 9.54698 9.68836 9.20317C9.31374 9.03105 8.99182 8.89597 8.73291 8.80371C8.45854 8.70594 8.30192 8.67387 8.23974 8.67187C7.58659 8.65079 7.24096 8.2323 7.10063 7.8652C6.95354 7.48041 6.96431 7.01172 7.15537 6.64641C7.25164 6.46236 7.40481 6.28382 7.6375 6.1645C7.88176 6.03924 8.1817 5.99613 8.50818 6.05099C8.82125 6.1036 9.14489 6.24319 9.47957 6.4614C9.81667 6.6812 10.1836 6.99291 10.5825 7.41246C13.0303 9.98659 16.8382 11.9442 18.4264 12.5958L18.4857 12.6202L18.5288 12.6585C18.6134 12.7339 18.7347 12.8291 18.8799 12.9253C19.085 12.8577 19.3161 12.8461 19.5204 12.8592C19.8432 12.8798 20.1862 12.9652 20.4872 13.0826C20.7875 13.1997 21.0753 13.3601 21.2707 13.5485C21.464 13.7348 21.6046 13.9901 21.4688 14.2588L21.4684 14.2597C21.4682 14.2602 21.4679 14.2608 21.4676 14.2617C21.4672 14.2628 21.4667 14.2641 21.4662 14.2658C21.4646 14.2707 21.4627 14.2776 21.4609 14.2869C21.4573 14.3057 21.4544 14.3309 21.4535 14.3633C21.4516 14.4287 21.4577 14.5137 21.473 14.6188C21.5038 14.829 21.5689 15.1011 21.6635 15.4235C21.8523 16.0673 22.1521 16.8904 22.5037 17.7777C23.2066 19.5512 24.11 21.5641 24.7276 22.8763L24.9567 23.363L22.4741 22.8056L22.8217 22.5043C22.9146 22.4238 22.9516 22.2604 22.8803 22.0107C22.8135 21.7767 22.6715 21.5403 22.5623 21.398L22.5302 21.3561L22.5206 21.3086C22.2989 20.2032 21.3269 17.396 19.2377 15.0928C18.8823 14.701 18.6445 14.3706 18.5072 14.0937Z" fill="#082D59"/>
<path fill-rule="evenodd" clip-rule="evenodd" d="M21.9491 57.5926C22.8559 58.4109 23.7961 59.2593 24.6651 60.0901C25.0659 60.4735 25.5675 60.9667 25.9423 61.4161C25.9563 61.4328 25.9736 61.45 25.9913 61.4676C26.0462 61.5221 26.1054 61.5809 26.0834 61.6452C26.0775 61.6626 26.0578 61.6688 26.0386 61.6748C26.0309 61.6773 26.0232 61.6797 26.0166 61.6828C25.9443 61.7166 25.8931 61.7376 25.851 61.7549C25.7324 61.8037 25.6857 61.8228 25.4392 62.0171C24.3998 62.8363 23.6918 63.9502 23.126 65.1366C23.0943 65.2032 23.0664 65.2716 23.0386 65.3401C23 65.4349 22.9614 65.5297 22.9125 65.6193C22.9116 65.621 22.9107 65.6227 22.9097 65.6245C22.8862 65.6677 22.8535 65.728 22.8067 65.7226C22.7138 65.712 22.6471 65.4587 22.6044 65.2963C22.5909 65.2447 22.5797 65.2023 22.5709 65.1798C22.4869 64.9652 22.4725 65.103 22.4579 65.2431C22.456 65.261 22.4541 65.279 22.4521 65.2963C22.3405 66.248 22.2989 67.2155 22.4744 68.1623C22.5654 68.6533 22.7684 69.1608 23.0091 69.6009C23.0479 69.672 23.0393 69.6857 22.9311 69.631C22.1714 69.2467 21.6354 68.3697 21.2547 67.6421C20.6829 66.5494 20.4713 65.4026 20.397 64.1788C20.3019 62.6134 20.2917 60.9846 20.5139 59.429C20.6218 58.6741 20.8956 58.0333 21.2083 57.3556C21.2232 57.3231 21.2376 57.2862 21.2524 57.2483C21.2799 57.1776 21.3088 57.1034 21.3456 57.0476C21.5443 57.2274 21.7459 57.4093 21.9491 57.5926ZM39.9667 57.5927C39.0599 58.4109 38.1197 59.2593 37.2508 60.0902C36.8499 60.4735 36.3483 60.9667 35.9735 61.4161C35.9595 61.4329 35.9423 61.45 35.9246 61.4676C35.8696 61.5221 35.8104 61.5809 35.8324 61.6452C35.8383 61.6626 35.858 61.6688 35.8772 61.6748C35.8849 61.6773 35.8926 61.6797 35.8992 61.6828C35.9716 61.7167 36.0227 61.7377 36.0648 61.755C36.1834 61.8037 36.2301 61.8228 36.4766 62.0171C37.5161 62.8363 38.224 63.9503 38.7898 65.1367C38.8215 65.2032 38.8494 65.2717 38.8773 65.3401C38.9159 65.4349 38.9544 65.5297 39.0033 65.6193L39.0061 65.6245C39.0296 65.6677 39.0623 65.728 39.1091 65.7226C39.2021 65.712 39.2687 65.4587 39.3114 65.2963C39.3249 65.2448 39.3361 65.2024 39.3449 65.1799C39.4289 64.9652 39.4433 65.1031 39.4579 65.2431C39.4598 65.2611 39.4617 65.279 39.4637 65.2963C39.5753 66.248 39.6169 67.2155 39.4414 68.1623C39.3504 68.6534 39.1474 69.1608 38.9068 69.601C38.8679 69.6721 38.8765 69.6857 38.9847 69.631C39.7444 69.2467 40.2804 68.3697 40.6612 67.6421C41.2329 66.5495 41.4446 65.4026 41.5189 64.1788C41.6139 62.6135 41.6241 60.9846 41.4019 59.4291C41.294 58.6741 41.0202 58.0334 40.7076 57.3556C40.6926 57.3231 40.6782 57.2862 40.6634 57.2483C40.6359 57.1776 40.607 57.1035 40.5702 57.0476C40.3715 57.2274 40.1699 57.4093 39.9667 57.5927Z" fill="#082D59"/>
<path d="M26.9735 39.894C26.9735 46.1898 22.9103 51.2935 17.8981 51.2935C12.8859 51.2935 8.82275 46.1898 8.82275 39.894C8.82275 33.5982 12.8859 28.4944 17.8981 28.4944C22.9103 28.4944 26.9735 33.5982 26.9735 39.894Z" fill="#F24545"/>
<path fill-rule="evenodd" clip-rule="evenodd" d="M17.8981 49.8466C21.8209 49.8466 25.5266 45.7158 25.5266 39.894C25.5266 34.0722 21.8209 29.9413 17.8981 29.9413C13.9754 29.9413 10.2697 34.0722 10.2697 39.894C10.2697 45.7158 13.9754 49.8466 17.8981 49.8466ZM17.8981 51.2935C22.9103 51.2935 26.9735 46.1898 26.9735 39.894C26.9735 33.5982 22.9103 28.4944 17.8981 28.4944C12.8859 28.4944 8.82275 33.5982 8.82275 39.894C8.82275 46.1898 12.8859 51.2935 17.8981 51.2935Z" fill="#082D59"/>
<path d="M53.2142 39.8947C53.2142 46.1905 49.1511 51.2942 44.1389 51.2942C39.1267 51.2942 35.0635 46.1905 35.0635 39.8947C35.0635 33.5989 39.1267 28.4951 44.1389 28.4951C49.1511 28.4951 53.2142 33.5989 53.2142 39.8947Z" fill="#F24545"/>
<path fill-rule="evenodd" clip-rule="evenodd" d="M44.1389 49.8473C48.0616 49.8473 51.7673 45.7165 51.7673 39.8947C51.7673 34.0728 48.0616 29.942 44.1389 29.942C40.2161 29.942 36.5104 34.0728 36.5104 39.8947C36.5104 45.7165 40.2161 49.8473 44.1389 49.8473ZM44.1389 51.2942C49.1511 51.2942 53.2142 46.1905 53.2142 39.8947C53.2142 33.5989 49.1511 28.4951 44.1389 28.4951C39.1267 28.4951 35.0635 33.5989 35.0635 39.8947C35.0635 46.1905 39.1267 51.2942 44.1389 51.2942Z" fill="#082D59"/>
</svg>
