<?xml version="1.0" encoding="UTF-8"?>
<svg width="20px" height="20px" viewBox="0 0 20 20" version="1.1" xmlns="http://www.w3.org/2000/svg" xmlns:xlink="http://www.w3.org/1999/xlink">
    <!-- Generator: Sketch 55.2 (78181) - https://sketchapp.com -->
    <title>round-check_circle_outline-24px (1)</title>
    <desc>Created with Sketch.</desc>
    <g id="Homepage" stroke="none" stroke-width="1" fill="none" fill-rule="evenodd">
        <g id="Desktop-HD" transform="translate(-862.000000, -421.000000)">
            <g id="Hero" transform="translate(-48.000000, 21.000000)">
                <g id="Check" transform="translate(908.000000, 398.000000)">
                    <g id="round-check_circle_outline-24px-(1)">
                        <polygon id="Path" points="0 0 24 0 24 24 0 24"></polygon>
                        <path d="M12,2 C6.48,2 2,6.48 2,12 C2,17.52 6.48,22 12,22 C17.52,22 22,17.52 22,12 C22,6.48 17.52,2 12,2 Z M12,20 C7.59,20 4,16.41 4,12 C4,7.59 7.59,4 12,4 C16.41,4 20,7.59 20,12 C20,16.41 16.41,20 12,20 Z M15.88,8.29 L10,14.17 L8.12,12.29 C7.73,11.9 7.1,11.9 6.71,12.29 C6.32,12.68 6.32,13.31 6.71,13.7 L9.3,16.29 C9.69,16.68 10.32,16.68 10.71,16.29 L17.3,9.7 C17.69,9.31 17.69,8.68 17.3,8.29 C16.91,7.9 16.27,7.9 15.88,8.29 Z" id="Shape" fill="#000000" fill-rule="nonzero"></path>
                    </g>
                </g>
            </g>
        </g>
    </g>
</svg>