<svg xmlns="http://www.w3.org/2000/svg" viewBox="0 0 800 500"><title>Artboard 2 copy 8</title><rect x="75.83" y="78.77" width="253" height="154.71" rx="7.23" ry="7.23" style="fill:none;stroke:#fdd2c7;stroke-linecap:round;stroke-linejoin:round;stroke-width:3px"/><path d="M181.63,233.48s4.66,15-9.31,29" style="fill:none;stroke:#fdd2c7;stroke-linecap:round;stroke-linejoin:round;stroke-width:3px"/><path d="M223,233.48s-4.65,15,9.32,29" style="fill:none;stroke:#fdd2c7;stroke-linecap:round;stroke-linejoin:round;stroke-width:3px"/><rect x="150.11" y="262.49" width="104.46" height="10.65" style="fill:none;stroke:#fdd2c7;stroke-linecap:round;stroke-linejoin:round;stroke-width:3px"/><line x1="75.83" y1="216.76" x2="328.83" y2="216.76" style="fill:none;stroke:#fdd2c7;stroke-linecap:round;stroke-linejoin:round;stroke-width:3px"/><line x1="75.83" y1="91.88" x2="328.83" y2="91.88" style="fill:none;stroke:#fdd2c7;stroke-miterlimit:10;stroke-width:3px"/><polyline points="104.56 211.91 104.56 108.53 234.99 108.53 234.99 211.91" style="fill:none;stroke:#fdd2c7;stroke-linecap:round;stroke-linejoin:round;stroke-width:3px"/><line x1="111.5" y1="127.77" x2="234.99" y2="127.77" style="fill:none;stroke:#fdd2c7;stroke-linecap:round;stroke-linejoin:round;stroke-width:3px"/><line x1="118.09" y1="118.59" x2="118.09" y2="118.59" style="fill:none;stroke:#fdd2c7;stroke-linecap:round;stroke-linejoin:round;stroke-width:4.791060000000001px"/><line x1="128.84" y1="118.59" x2="128.84" y2="118.59" style="fill:none;stroke:#fdd2c7;stroke-linecap:round;stroke-linejoin:round;stroke-width:4.791060000000001px"/><line x1="139.6" y1="118.59" x2="139.6" y2="118.59" style="fill:none;stroke:#fdd2c7;stroke-linecap:round;stroke-linejoin:round;stroke-width:4.791060000000001px"/><line x1="126.41" y1="148.08" x2="166.65" y2="148.08" style="fill:none;stroke:#fdd2c7;stroke-linecap:round;stroke-linejoin:round;stroke-width:3px"/><line x1="126.41" y1="164.38" x2="146.53" y2="164.38" style="fill:none;stroke:#fdd2c7;stroke-linecap:round;stroke-linejoin:round;stroke-width:3px"/><rect x="177.35" y="148.08" width="44.94" height="51.69" style="fill:none;stroke:#fdd2c7;stroke-linecap:round;stroke-linejoin:round;stroke-width:3px"/><line x1="126.41" y1="183.81" x2="166.65" y2="183.81" style="fill:none;stroke:#fdd2c7;stroke-linecap:round;stroke-linejoin:round;stroke-width:3px"/><line x1="126.41" y1="191.79" x2="166.65" y2="191.79" style="fill:none;stroke:#fdd2c7;stroke-linecap:round;stroke-linejoin:round;stroke-width:3px"/><line x1="126.41" y1="199.76" x2="166.65" y2="199.76" style="fill:none;stroke:#fdd2c7;stroke-linecap:round;stroke-linejoin:round;stroke-width:3px"/><polyline points="234.99 140.79 282.51 140.79 282.51 211.91" style="fill:none;stroke:#fdd2c7;stroke-linecap:round;stroke-linejoin:round;stroke-width:3px"/><path d="M222.34,308.11c-.16-.47-.31-.95-.47-1.42" style="fill:none;stroke:#fdd2c7;stroke-linecap:round;stroke-linejoin:round;stroke-width:2px"/><path d="M220.41,302q-1.91-6.27-3.41-12.71" style="fill:none;stroke:#fdd2c7;stroke-linecap:round;stroke-linejoin:round;stroke-width:2px;stroke-dasharray:2.923719882965088,4.872859954833984"/><path d="M216.46,287c-.11-.49-.21-1-.32-1.46" style="fill:none;stroke:#fdd2c7;stroke-linecap:round;stroke-linejoin:round;stroke-width:2px"/><path d="M493.56,433.39l-1.4.55" style="fill:none;stroke:#fdd2c7;stroke-linecap:round;stroke-linejoin:round;stroke-width:2px"/><path d="M487.44,435.72a205.89,205.89,0,0,1-208.83-41.46" style="fill:none;stroke:#fdd2c7;stroke-linecap:round;stroke-linejoin:round;stroke-width:2px;stroke-dasharray:3.030669927597046,5.051119804382324"/><path d="M276.75,392.55l-1.09-1" style="fill:none;stroke:#fdd2c7;stroke-linecap:round;stroke-linejoin:round;stroke-width:2px"/><path d="M622.24,226.54c0,.5.07,1,.1,1.5" style="fill:none;stroke:#fdd2c7;stroke-linecap:round;stroke-linejoin:round;stroke-width:2px"/><path d="M622.64,233.28q.2,4.54.2,9.13a205.85,205.85,0,0,1-5.33,46.7" style="fill:none;stroke:#fdd2c7;stroke-linecap:round;stroke-linejoin:round;stroke-width:2px;stroke-dasharray:3.1529500484466553,5.254909992218018"/><path d="M616.9,291.67l-.36,1.45" style="fill:none;stroke:#fdd2c7;stroke-linecap:round;stroke-linejoin:round;stroke-width:2px"/><path d="M303.88,70.85l1.25-.82" style="fill:none;stroke:#fdd2c7;stroke-linecap:round;stroke-linejoin:round;stroke-width:2px"/><path d="M309.35,67.35A205.69,205.69,0,0,1,564.23,98.66" style="fill:none;stroke:#fdd2c7;stroke-linecap:round;stroke-linejoin:round;stroke-width:2px;stroke-dasharray:2.998310089111328,4.997189998626709"/><path d="M566,100.46l1,1.08" style="fill:none;stroke:#fdd2c7;stroke-linecap:round;stroke-linejoin:round;stroke-width:2px"/><path d="M591.48,448.11H522.19a19,19,0,0,1-19-19V321a19,19,0,0,1,19-19H630.28a19,19,0,0,1,19,19v44.92" style="fill:none;stroke:#fdd2c7;stroke-linecap:round;stroke-linejoin:round;stroke-width:3px"/><line x1="509.27" y1="328.06" x2="649.3" y2="328.06" style="fill:none;stroke:#fdd2c7;stroke-linecap:round;stroke-linejoin:round;stroke-width:3px"/><line x1="522.64" y1="316.05" x2="522.64" y2="316.05" style="fill:none;stroke:#fdd2c7;stroke-linecap:round;stroke-linejoin:round;stroke-width:5.95819px"/><line x1="536.02" y1="316.05" x2="536.02" y2="316.05" style="fill:none;stroke:#fdd2c7;stroke-linecap:round;stroke-linejoin:round;stroke-width:5.95819px"/><line x1="549.39" y1="316.05" x2="549.39" y2="316.05" style="fill:none;stroke:#fdd2c7;stroke-linecap:round;stroke-linejoin:round;stroke-width:5.95819px"/><path d="M680.48,426.25c-.34-4.39-.74-8.78-1.13-13.17-.16-1.82-.81-2.39-2.65-2.44-3.24-.09-6.49-.21-9.74-.27a1.93,1.93,0,0,1-2.14-1.52,16.9,16.9,0,0,0-1.89-4.09c-1.72-2.61-3.59-5.12-5.48-7.62a1.61,1.61,0,0,1-.35-1.79c.67-1.7,1.28-3.42,1.87-5.14.67-1.94,1.3-3.9,1.95-5.85.3-1.88-1.48-2.61-3.57-3.76-3.34-1.73-6.66-3.51-10-5.17-1.48-.74-2.31-.41-3.23,1-1.92,2.91-3.85,5.82-5.75,8.76a1.13,1.13,0,0,1-1.36.6,37.36,37.36,0,0,0-16.76.52,1.52,1.52,0,0,1-1.27-.42c-2.54-2.78-5-5.6-7.53-8.43-1.24-1.4-2.1-1.49-3.67-.39q-5.36,3.78-10.74,7.49c-1.6,1.11-1.93,2.11-1,3.8q2.41,4.51,4.88,9a1.24,1.24,0,0,1-.16,1.57,47.48,47.48,0,0,0-3.94,5.88,74.75,74.75,0,0,0-3.12,7.57,1.51,1.51,0,0,1-1.28,1.16c-3.56.65-7.09,1.37-10.64,2.07-2.2.43-2.56.87-2.41,3.15.3,4.36.65,8.7.94,13.06.13,1.88.74,2.53,2.64,2.62,3.41.13,6.82.31,10.23.4a1.35,1.35,0,0,1,1.42,1.09,38.45,38.45,0,0,0,9,13.9,1.71,1.71,0,0,1,.21,1.43c-1.09,3.56-2.25,7.1-3.38,10.65a2.33,2.33,0,0,0,1.46,3.26c4.16,1.88,8.3,3.79,12.49,5.59a2.17,2.17,0,0,0,1.92-.27,17.55,17.55,0,0,0,2.75-3.21c1.42-2.16,2.66-4.43,4-6.61a1.52,1.52,0,0,1,1.18-.62,38,38,0,0,0,15.34-.92,1.61,1.61,0,0,1,1.35.33q3.64,4,7.19,8.11c1.58,1.83,2.4,2,4.33.7q5.45-3.76,10.82-7.61a2.22,2.22,0,0,0,.78-3.29c-1.65-3.17-3.37-6.29-5-9.46a1.33,1.33,0,0,1,0-1.2,38.31,38.31,0,0,0,7.14-13.88,1.52,1.52,0,0,1,1.36-1.21c3.5-.67,7-1.37,10.5-2.09C680.27,429,680.66,428.56,680.48,426.25ZM629.9,445.33A22.39,22.39,0,1,1,652.29,423,22.38,22.38,0,0,1,629.9,445.33Z" style="fill:none;stroke:#fdd2c7;stroke-linecap:round;stroke-linejoin:round;stroke-width:3px;fill-rule:evenodd"/><path d="M600,186.49H562.76A39.9,39.9,0,1,1,571,107.54a50.3,50.3,0,0,1,90.13,16.39,32.49,32.49,0,0,1,3.29-.17,31.37,31.37,0,0,1,0,62.73H623.54" style="fill:none;stroke:#fdd2c7;stroke-linecap:round;stroke-linejoin:round;stroke-width:3px"/><path d="M629.28,195.71a5.8,5.8,0,0,0-8.08,1.56l-4,5.85V145.58H605.59V202l-3-4.48a5.83,5.83,0,1,0-9.65,6.53L607,224.83a5.83,5.83,0,0,0,9.65,0l14.23-21A5.8,5.8,0,0,0,629.28,195.71Z" style="fill:none;stroke:#fdd2c7;stroke-linecap:round;stroke-linejoin:round;stroke-width:3px"/><path d="M390.17,302H291.84a15,15,0,0,1-15-15v-9.36a15,15,0,0,1,15-15H421.31a15,15,0,0,1,15,15V287a15,15,0,0,1-15,15H417.6" style="fill:none;stroke:#fdd2c7;stroke-linecap:round;stroke-linejoin:round;stroke-width:3px"/><path d="M291.54,277.05l1.73,6.64c.37,1.45.72,2.8,1,4.15h.08c.29-1.32.73-2.72,1.16-4.13l2.13-6.66h2l2,6.53c.49,1.56.87,2.94,1.16,4.26h.09a37.77,37.77,0,0,1,1-4.23l1.86-6.56h2.35l-4.21,13.05h-2.15l-2-6.22a42.22,42.22,0,0,1-1.16-4.29h-.05a39.71,39.71,0,0,1-1.19,4.31l-2.1,6.2h-2.16l-3.94-13.05Z" style="fill:#fdd2c7"/><path d="M311.71,277.05l1.72,6.64c.38,1.45.73,2.8,1,4.15h.08c.29-1.32.72-2.72,1.16-4.13l2.13-6.66h2l2,6.53c.49,1.56.87,2.94,1.16,4.26H323a40.31,40.31,0,0,1,1-4.23l1.86-6.56h2.35L324,290.1h-2.16l-2-6.22a42.22,42.22,0,0,1-1.16-4.29h-.05a39.71,39.71,0,0,1-1.19,4.31l-2.1,6.2h-2.16l-3.94-13.05Z" style="fill:#fdd2c7"/><path d="M331.88,277.05l1.72,6.64c.38,1.45.73,2.8,1,4.15h.09c.29-1.32.72-2.72,1.15-4.13l2.13-6.66h2l2,6.53c.49,1.56.86,2.94,1.16,4.26h.08a40.31,40.31,0,0,1,1-4.23l1.86-6.56h2.35L344.2,290.1H342l-2-6.22a42.22,42.22,0,0,1-1.16-4.29h-.06a37.56,37.56,0,0,1-1.18,4.31l-2.11,6.2h-2.15l-3.94-13.05Z" style="fill:#fdd2c7"/><path d="M349.16,288.7a1.6,1.6,0,0,1,1.62-1.7,1.7,1.7,0,0,1,0,3.4A1.59,1.59,0,0,1,349.16,288.7Z" style="fill:#fdd2c7"/><line x1="371.86" y1="273.66" x2="371.86" y2="290.1" style="fill:none;stroke:#fdd2c7;stroke-linecap:round;stroke-linejoin:round;stroke-width:3px"/><polygon points="419.94 309.23 409.59 298.88 416.82 294.28 392.29 288.3 392.44 288.15 398.42 312.69 403.02 305.45 413.37 315.81 419.94 309.23" style="fill:none;stroke:#fdd2c7;stroke-linecap:round;stroke-linejoin:round;stroke-width:3px"/><line x1="340.48" y1="160.22" x2="503.17" y2="160.22" style="fill:none;stroke:#fdd2c7;stroke-linecap:round;stroke-linejoin:round;stroke-width:2px;stroke-dasharray:3,5"/><path d="M354.85,316.05v50.7s3.7,30,41.7,30h90.93" style="fill:none;stroke:#fdd2c7;stroke-linecap:round;stroke-linejoin:round;stroke-width:2px;stroke-dasharray:3,5"/><circle cx="670.73" cy="233.34" r="21.43" transform="translate(31.46 542.62) rotate(-45)" style="fill:none;stroke:#fdd2c7;stroke-linecap:round;stroke-linejoin:round;stroke-width:2px;stroke-dasharray:3,5"/><line x1="670.73" y1="233.34" x2="749.55" y2="233.34" style="fill:none;stroke:#fdd2c7;stroke-linecap:round;stroke-linejoin:round;stroke-width:2px;stroke-dasharray:3,5"/><circle cx="199.82" cy="383.19" r="72.98" transform="translate(-212.43 253.52) rotate(-45)" style="fill:none;stroke:#fdd2c7;stroke-linecap:round;stroke-linejoin:round;stroke-width:2px;stroke-dasharray:3,5"/><polyline points="177.57 405.82 152.4 385.44 177.57 365.05" style="fill:none;stroke:#fdd2c7;stroke-linecap:round;stroke-linejoin:round;stroke-width:3px"/><polyline points="220.06 405.82 245.24 385.44 220.06 365.05" style="fill:none;stroke:#fdd2c7;stroke-linecap:round;stroke-linejoin:round;stroke-width:3px"/><line x1="203.82" y1="365.05" x2="191.37" y2="405.89" style="fill:none;stroke:#fdd2c7;stroke-linecap:round;stroke-linejoin:round;stroke-width:3px"/><circle cx="511.61" cy="57.83" r="34.06" transform="translate(337.78 542.46) rotate(-76.72)" style="fill:none;stroke:#fdd2c7;stroke-linecap:round;stroke-linejoin:round;stroke-width:2px;stroke-dasharray:3,5"/><path d="M477.55,375.05V308.11s1.63-30.34,45.31-30.34h69" style="fill:none;stroke:#fdd2c7;stroke-linecap:round;stroke-linejoin:round;stroke-width:2px;stroke-dasharray:3,5"/><line x1="258.75" y1="247.99" x2="515.55" y2="247.99" style="fill:none;stroke:#fdd2c7;stroke-linecap:round;stroke-linejoin:round;stroke-width:2px;stroke-dasharray:3,5"/><circle cx="536.02" cy="247.99" r="14.93" style="fill:none;stroke:#fdd2c7;stroke-linecap:round;stroke-linejoin:round;stroke-width:2px;stroke-dasharray:3,5"/><circle cx="104.56" cy="296.8" r="14.93" transform="translate(-208.32 330.37) rotate(-76.72)" style="fill:none;stroke:#fdd2c7;stroke-linecap:round;stroke-linejoin:round;stroke-width:2px;stroke-dasharray:3,5"/><circle cx="389.36" cy="362.27" r="17.5" style="fill:none;stroke:#fdd2c7;stroke-linecap:round;stroke-linejoin:round;stroke-width:2px;stroke-dasharray:3,5"/><line x1="136.47" y1="28.24" x2="136.47" y2="69.17" style="fill:none;stroke:#fdd2c7;stroke-linecap:round;stroke-linejoin:round;stroke-width:2px;stroke-dasharray:3,5"/><line x1="136.47" y1="250" x2="136.47" y2="311.73" style="fill:none;stroke:#fdd2c7;stroke-linecap:round;stroke-linejoin:round;stroke-width:2px;stroke-dasharray:3,5"/><line x1="670.73" y1="328.06" x2="695.77" y2="328.06" style="fill:none;stroke:#fdd2c7;stroke-linecap:round;stroke-linejoin:round;stroke-width:2px;stroke-dasharray:3,5"/></svg>