<?xml version="1.0" encoding="UTF-8"?>
<svg width="315px" height="32px" viewBox="0 0 315 32" version="1.1" xmlns="http://www.w3.org/2000/svg" xmlns:xlink="http://www.w3.org/1999/xlink">
    <!-- Generator: Sketch 55.1 (78136) - https://sketchapp.com -->
    <title>Logos</title>
    <desc>Created with Sketch.</desc>
    <g id="Home-v1" stroke="none" stroke-width="1" fill="none" fill-rule="evenodd">
        <g id="Main-page" transform="translate(-171.000000, -322.000000)" fill="#FFFFFF">
            <g id="Hero-v2" transform="translate(72.000000, 35.000000)">
                <g id="Logos" transform="translate(96.000000, 284.000000)">
                    <g id="amazon-web-services-2" transform="translate(264.000000, 3.000000)" fill-rule="nonzero">
                        <path d="M15.2413261,11.6441743 C15.2413261,12.3039514 15.3130254,12.8389058 15.438499,13.2312057 C15.5818975,13.6235056 15.7611456,14.0514691 16.0120929,14.5150963 C16.1017169,14.6577508 16.1375665,14.8004053 16.1375665,14.925228 C16.1375665,15.1035461 16.0300177,15.2818642 15.7969952,15.4601824 L14.6677323,16.2091185 C14.506409,16.3161094 14.3450857,16.3696049 14.2016873,16.3696049 C14.0224392,16.3696049 13.8431911,16.2804458 13.663943,16.1199595 C13.4129957,15.8524823 13.197898,15.5671733 13.01865,15.2818642 C12.8394019,14.9787234 12.6601538,14.6399189 12.4629809,14.2297872 C11.0648459,15.8703141 9.30821477,16.6905775 7.19308746,16.6905775 C5.68740361,16.6905775 4.48644149,16.262614 3.60812591,15.4066869 C2.72981033,14.5507599 2.28169014,13.4095238 2.28169014,11.9829787 C2.28169014,10.4672746 2.81943437,9.23687943 3.91284764,8.30962513 C5.00626092,7.38237082 6.45817034,6.91874367 8.30442554,6.91874367 C8.913869,6.91874367 9.54123727,6.97223911 10.2044552,7.06139818 C10.867673,7.15055724 11.5488157,7.29321175 12.265808,7.45369807 L12.265808,6.15197568 C12.265808,4.79675785 11.9790111,3.85167173 11.4233421,3.29888551 C10.8497482,2.74609929 9.88180862,2.47862209 8.50159842,2.47862209 C7.87423015,2.47862209 7.22893707,2.54994934 6.56571919,2.71043566 C5.9025013,2.87092199 5.25720822,3.06707194 4.62983995,3.31671733 C4.34304303,3.44154002 4.12794534,3.51286727 4.00247168,3.5485309 C3.87699803,3.58419453 3.78737399,3.60202634 3.71567476,3.60202634 C3.46472745,3.60202634 3.3392538,3.42370821 3.3392538,3.04924012 L3.3392538,2.17548126 C3.3392538,1.89017224 3.37510341,1.67619048 3.46472745,1.55136778 C3.55435149,1.42654509 3.71567476,1.30172239 3.96662207,1.1768997 C4.59399034,0.855927052 5.34683226,0.588449848 6.22514784,0.374468085 C7.10346342,0.142654509 8.03555342,0.0356636272 9.02141785,0.0356636272 C11.15447,0.0356636272 12.7139282,0.517122594 13.7177175,1.48004053 C14.7035819,2.44295846 15.2054765,3.90516717 15.2054765,5.86666667 L15.2054765,11.6441743 L15.2413261,11.6441743 Z M7.96385419,14.3546099 C8.55537285,14.3546099 9.16481631,14.247619 9.81010939,14.0336373 C10.4554025,13.8196555 11.0289963,13.4273556 11.5129661,12.8924012 C11.799763,12.5535968 12.0148607,12.1791287 12.1224096,11.7511651 C12.2299584,11.3232016 12.3016577,10.806079 12.3016577,10.1997974 L12.3016577,9.4508612 C11.7818382,9.3260385 11.2261692,9.21904762 10.6525754,9.14772036 C10.0789815,9.07639311 9.52331246,9.04072948 8.96764342,9.04072948 C7.76668131,9.04072948 6.88836573,9.27254306 6.29684707,9.75400203 C5.70532842,10.235461 5.41853149,10.9130699 5.41853149,11.8046606 C5.41853149,12.6427558 5.63362919,13.2668693 6.08174938,13.6948328 C6.51194477,14.1406282 7.13931304,14.3546099 7.96385419,14.3546099 L7.96385419,14.3546099 Z M22.3574748,16.2804458 C22.0348283,16.2804458 21.8197306,16.2269504 21.6763321,16.1021277 C21.5329336,15.9951368 21.40746,15.7454914 21.2999111,15.4066869 L17.0875813,1.62269504 C16.9800325,1.26605876 16.9262581,1.03424519 16.9262581,0.909422492 C16.9262581,0.624113475 17.0696565,0.463627153 17.3564534,0.463627153 L19.1130846,0.463627153 C19.4536559,0.463627153 19.6866784,0.517122594 19.8121521,0.641945289 C19.9555506,0.74893617 20.0630994,0.99858156 20.1706483,1.33738602 L23.182016,13.1420466 L25.978286,1.33738602 C26.06791,0.980749747 26.1754588,0.74893617 26.3188573,0.641945289 C26.4622558,0.534954407 26.7132031,0.463627153 27.0358496,0.463627153 L28.4698342,0.463627153 C28.8104056,0.463627153 29.0434281,0.517122594 29.1868265,0.641945289 C29.330225,0.74893617 29.4556987,0.99858156 29.5273979,1.33738602 L32.3595175,13.2847011 L35.4605092,1.33738602 C35.5680581,0.980749747 35.6935317,0.74893617 35.8190054,0.641945289 C35.9624039,0.534954407 36.1954264,0.463627153 36.5180729,0.463627153 L38.18508,0.463627153 C38.4718769,0.463627153 38.6332002,0.606281662 38.6332002,0.909422492 C38.6332002,0.99858156 38.6152754,1.08774063 38.5973506,1.19473151 C38.5794258,1.30172239 38.5435762,1.4443769 38.4718769,1.64052685 L34.1519983,15.4245187 C34.0444494,15.781155 33.9189758,16.0129686 33.7755773,16.1199595 C33.6321789,16.2269504 33.3991564,16.2982776 33.0944346,16.2982776 L31.5529012,16.2982776 C31.2123298,16.2982776 30.9793073,16.2447822 30.8359089,16.1199595 C30.6925104,15.9951368 30.5670367,15.7633232 30.4953375,15.4066869 L27.7169923,3.90516717 L24.9565719,15.3888551 C24.8669479,15.7454914 24.759399,15.977305 24.6160006,16.1021277 C24.4726021,16.2269504 24.2216548,16.2804458 23.8990083,16.2804458 L22.3574748,16.2804458 L22.3574748,16.2804458 Z M45.3908527,16.7619048 C44.4587627,16.7619048 43.5266727,16.6549139 42.6304323,16.4409321 C41.734192,16.2269504 41.0351245,15.9951368 40.5690795,15.7276596 C40.2822825,15.5671733 40.0851096,15.3888551 40.0134104,15.2283688 C39.9417112,15.0678825 39.9058616,14.8895643 39.9058616,14.729078 L39.9058616,13.8196555 C39.9058616,13.4451874 40.04926,13.2668693 40.3181321,13.2668693 C40.425681,13.2668693 40.5332298,13.2847011 40.6407787,13.3203647 C40.7483275,13.3560284 40.9096508,13.4273556 41.0888989,13.4986829 C41.6983423,13.7661601 42.3615602,13.9801418 43.0606277,14.1227964 C43.77762,14.2654509 44.4766875,14.3367781 45.1936798,14.3367781 C46.3229427,14.3367781 47.2012583,14.1406282 47.8107018,13.7483283 C48.4201452,13.3560284 48.7427918,12.7854103 48.7427918,12.054306 C48.7427918,11.5550152 48.5814685,11.1448835 48.258822,10.806079 C47.9361754,10.4672746 47.326732,10.1641337 46.4484164,9.87882472 L43.8493193,9.07639311 C42.5408083,8.6662614 41.5728687,8.05997974 40.98135,7.25754813 C40.3898314,6.47294833 40.0851096,5.59918946 40.0851096,4.67193516 C40.0851096,3.92299899 40.2464329,3.26322188 40.5690795,2.69260385 C40.891726,2.12198582 41.3219214,1.62269504 41.8596656,1.23039514 C42.3974098,0.820263425 43.0068533,0.517122594 43.7238456,0.303140831 C44.4408379,0.0891590679 45.1936798,0 45.9823714,0 C46.3767172,0 46.7889877,0.0178318136 47.1833335,0.0713272543 C47.5956041,0.124822695 47.972025,0.196149949 48.348446,0.267477204 C48.7069422,0.356636272 49.0475135,0.445795339 49.37016,0.552786221 C49.6928066,0.659777102 49.9437539,0.766767984 50.123002,0.873758865 C50.3739493,1.01641337 50.5531974,1.15906788 50.6607462,1.3195542 C50.768295,1.46220871 50.8220695,1.65835866 50.8220695,1.90800405 L50.8220695,2.74609929 C50.8220695,3.12056738 50.678671,3.31671733 50.4097989,3.31671733 C50.2664004,3.31671733 50.0333779,3.24539007 49.7286562,3.10273556 C48.7069422,2.63910841 47.5597545,2.40729483 46.2870931,2.40729483 C45.2653791,2.40729483 44.4587627,2.56778116 43.9030937,2.90658561 C43.3474246,3.24539007 43.0606277,3.76251266 43.0606277,4.49361702 C43.0606277,4.9929078 43.2398758,5.42087133 43.598372,5.75967579 C43.9568681,6.09848024 44.620086,6.4372847 45.5701008,6.74042553 L48.1154235,7.54285714 C49.4060097,7.95298886 50.3380997,8.52360689 50.8937687,9.25471125 C51.4494377,9.9858156 51.7183099,10.8239108 51.7183099,11.7511651 C51.7183099,12.5179331 51.5569866,13.2133739 51.2522649,13.8196555 C50.9296183,14.4259372 50.4994229,14.9608916 49.9437539,15.3888551 C49.3880849,15.8346505 48.724867,16.1556231 47.9541002,16.3874367 C47.1474839,16.6370821 46.3050179,16.7619048 45.3908527,16.7619048 L45.3908527,16.7619048 Z" id="Shape"></path>
                        <path d="M48.2522866,25.5748224 C42.412282,29.7719142 33.9274121,32 26.6318441,32 C16.4073983,32 7.19474669,28.3210677 0.236443335,22.2067858 C-0.313830655,21.7231703 0.183191013,21.066835 0.839969646,21.4468186 C8.36629776,25.6957263 17.6499525,28.2692517 27.2531211,28.2692517 C33.7321536,28.2692517 40.8502139,26.9565811 47.4002495,24.2621518 C48.376542,23.8303522 49.2108284,24.8839431 48.2522866,25.5748224 Z" id="Shape"></path>
                        <path d="M51.1394654,22.4695317 C50.3458666,21.5060034 45.8865969,22.0056106 43.8648094,22.2375711 C43.2601626,22.3089436 43.1656866,21.8093363 43.7136477,21.4346309 C47.2659473,19.0793395 53.1045673,19.757378 53.7847949,20.5424751 C54.4650225,21.3454153 53.5958428,26.8589383 50.2702857,29.4997195 C49.7601151,29.9101112 49.2688396,29.6959938 49.4955821,29.1607003 C50.2513905,27.3942318 51.9330643,23.4152168 51.1394654,22.4695317 L51.1394654,22.4695317 Z" id="Shape"></path>
                    </g>
                    <g id="webpack-icon" transform="translate(216.000000, 3.000000)" fill-rule="nonzero">
                        <path d="M25.9361274,24.1878838 L14.6152819,30.6976744 L14.6152819,25.6274696 L21.6688104,21.6830595 L25.9361274,24.1878838 Z M26.7105263,23.4749723 L26.7105263,9.86083934 L22.5677629,12.2913447 L22.5677629,21.0417144 L26.7105263,23.4749723 Z M2.30071469,24.1878838 L13.6215602,30.6976744 L13.6215602,25.6274696 L6.56803173,21.6830595 L2.30071469,24.1878838 L2.30071469,24.1878838 Z M1.52631579,23.4749723 L1.52631579,9.86083934 L5.66907916,12.2913447 L5.66907916,21.0417144 L1.52631579,23.4749723 Z M2.01099203,8.980022 L13.6215602,2.30232558 L13.6215602,7.20462456 L6.18353997,11.3637339 L6.12667851,11.3967646 L2.01099203,8.980022 L2.01099203,8.980022 Z M26.2258501,8.980022 L14.6152819,2.30232558 L14.6152819,7.20462456 L22.0533021,11.3637339 L22.1101636,11.3967646 L26.2258501,8.980022 L26.2258501,8.980022 Z" id="Shape"></path>
                        <path d="M13.9914128,24.5581395 L6.86842105,20.5526497 L6.86842105,12.6153732 L13.9914128,16.8221297 L13.9914128,24.5581395 M15.0085872,24.5581395 L22.1315789,20.5526497 L22.1315789,12.6153732 L15.0085872,16.8221297 L15.0085872,24.5581395 M7.35067808,11.6969169 L14.5013858,7.6744186 L21.6520935,11.6969169 L14.5013858,15.9206819 L7.35067808,11.6969169" id="Shape"></path>
                    </g>
                    <g id="graphql-copy" transform="translate(169.000000, 3.000000)">
                        <path d="M16.6879946,3.66708848 L23.1570753,7.46622909 C23.3438404,7.26522973 23.5581669,7.09271951 23.7934177,6.95404041 C25.1350088,6.1695151 26.8462866,6.6353131 27.6255819,8 C28.3968928,9.3646869 27.9389406,11.1051717 26.5972402,11.8978181 C26.3637412,12.034588 26.1121199,12.1364962 25.8501011,12.2004144 L25.8501011,19.8014768 C26.1092579,19.8655024 26.358138,19.966715 26.5892558,20.1020706 C27.9389406,20.8947171 28.3968928,22.6353131 27.6175975,24 C26.8462866,25.3645757 25.1270244,25.8303737 23.785324,25.0459596 C23.5253984,24.8942812 23.2912426,24.7009298 23.0918879,24.4733629 L16.6621821,28.2491413 C16.7563458,28.5391402 16.8041667,28.8426248 16.8038225,29.1480302 C16.8038225,30.7169696 15.5506062,32 14,32 C12.4493938,32 11.1961775,30.7250907 11.1961775,29.1480302 C11.1961775,28.8676837 11.2357712,28.5969045 11.3095992,28.3411439 L4.84226849,24.5431158 C4.65755143,24.7401289 4.44624059,24.9094368 4.214676,25.0459596 C2.86499123,25.8303737 1.15371343,25.3645757 0.38240249,24 C-0.388799078,22.6353131 0.0691531223,20.8947171 1.41074416,20.1020706 C1.6418625,19.9666899 1.8907408,19.8654406 2.14989892,19.8013656 L2.14989892,12.2004144 C1.88788007,12.1364962 1.63625884,12.034588 1.40275981,11.8978181 C0.0610593887,11.1134041 -0.396892812,9.3646869 0.374418131,8 C1.14572907,6.6353131 2.86488185,6.1695151 4.20658227,6.95404041 C4.44054493,7.09197927 4.65381584,7.26338354 4.83986224,7.46300288 L11.3108023,3.66286104 C11.2345222,3.39952397 11.1959179,3.12638736 11.1961775,2.85185855 C11.1961775,1.27490926 12.4493938,0 14,0 C15.5506062,0 16.8038225,1.27479801 16.8038225,2.85185855 C16.8038225,3.13532005 16.7633538,3.40888042 16.6879946,3.66708848 Z M16.0140272,4.83764654 L22.4985297,8.64568703 C22.289908,9.38744198 22.3860926,10.1835506 22.7650761,10.8518585 C23.1598096,11.5502774 23.802824,12.0132942 24.5164944,12.1937395 L24.5164944,19.804258 C24.4800726,19.8132692 24.4438695,19.8231703 24.4078852,19.8336277 L15.938668,4.91385184 C15.9642617,4.88893215 15.9894179,4.86356747 16.0140272,4.83764654 L16.0140272,4.83764654 Z M12.063082,4.91552057 L3.59397413,19.8350739 C3.55735434,19.8243043 3.52052395,19.8142899 3.4835056,19.8050368 L3.4835056,12.1937395 C4.19717604,12.0132942 4.84019037,11.5502774 5.23492394,10.8518585 C5.61467836,10.1822382 5.71049673,9.38436758 5.50037653,8.64145958 L11.9830197,4.83453157 C12.0091603,4.86200998 12.0358477,4.8890434 12.063082,4.91540933 L12.063082,4.91552057 Z M14.7834515,5.59135598 L23.2505907,20.5075719 C23.056639,20.6958112 22.8903917,20.9115177 22.7569823,21.1480302 C22.6239066,21.3831077 22.5243988,21.6362516 22.4614517,21.8998484 L5.53876708,21.8998484 C5.47573695,21.6362444 5.37615606,21.383102 5.24301768,21.1480302 C5.10914338,20.9131483 4.943212,20.6987534 4.75017492,20.5112431 L13.2189547,5.59202347 C13.4728529,5.66638423 13.735786,5.70398506 14,5.70371709 C14.2720151,5.70371709 14.5348427,5.66455758 14.7834515,5.59135598 Z M16.0735271,27.2267664 L22.5159203,23.4434231 C22.4966086,23.3816601 22.479354,23.3192511 22.464186,23.2563029 L5.53515771,23.2563029 C5.52618898,23.2933487 5.51645463,23.3300608 5.50606402,23.3666616 L11.9799572,27.1685834 C12.5082315,26.6098556 13.2378841,26.2947348 14,26.2961717 C14.7893337,26.2947686 15.5424779,26.6327782 16.0735271,27.2267664 L16.0735271,27.2267664 Z" id="Shape"></path>
                    </g>
                    <g id="nodejs" transform="translate(60.000000, 3.000000)" fill-rule="nonzero">
                        <path d="M60.5682111,-1.16573418e-15 C60.483535,-1.16573418e-15 60.4003336,0.0220880782 60.3268002,0.0637316513 C60.1781422,0.150006835 60.0864469,0.307708905 60.0856128,0.478537298 L60.0856128,12.6814942 C60.0856128,12.8012137 60.0295071,12.9085177 59.9248957,12.9685992 C59.82052,13.0289009 59.6915197,13.0289009 59.587144,12.9685992 L57.5767277,11.8201795 C57.2782507,11.648891 56.9102316,11.648891 56.6117546,11.8201795 L48.5864069,16.4140799 C48.2864315,16.5858995 48.1040321,16.9160147 48.1040321,17.2596538 L48.1040321,26.4476765 C48.1040321,26.7908722 48.286655,27.1052465 48.5864069,27.2770661 L56.6117546,31.8711883 C56.9101068,32.0429372 57.2783755,32.0429372 57.5767277,31.8711883 L65.6020754,27.2770661 C65.9011509,27.1063354 66.0852566,26.7899329 66.0846751,26.4476765 L66.0846751,3.54135932 C66.0842298,3.19101892 65.893809,2.86800005 65.5862049,2.69578544 L60.8093985,0.0477690609 C60.7345164,0.00631066652 60.6513637,-0.00100552073 60.5682111,-1.16573418e-15 L60.5682111,-1.16573418e-15 Z M8.94204269,11.4692242 C8.78914912,11.4752101 8.64519669,11.5018145 8.50795012,11.5807406 L0.482378808,16.1748628 C0.183117139,16.3453797 -0.000997055754,16.6619435 2.58681965e-14,17.0042524 L0.0160981221,29.3351317 C0.0160981221,29.5065079 0.105286039,29.6659121 0.257285495,29.7497157 C0.405780082,29.8382092 0.591389184,29.8382092 0.73988377,29.7497157 L5.50037264,27.0380706 C5.80191273,26.8602651 5.99884144,26.5512116 5.99884144,26.2084593 L5.99884144,20.4499549 C5.99884144,20.1063158 6.18101726,19.7910546 6.48143972,19.6203436 L8.50772659,18.4559613 C8.65423291,18.3714719 8.82085556,18.3273817 8.99032487,18.3282606 C9.15573604,18.3282606 9.32561779,18.3692756 9.47269961,18.4559613 L11.49921,19.6203436 C11.798764,19.7907072 11.9830309,20.1074715 11.9818083,20.4499549 L11.9818083,26.2082376 C11.9818083,26.5509899 12.1807488,26.8622604 12.4802771,27.0378489 L17.240766,29.7497157 C17.3892606,29.8382092 17.5748697,29.8382092 17.7233642,29.7497157 C17.8726417,29.6640236 17.9646218,29.5059781 17.9647751,29.33491 L17.9804373,17.0042524 C17.982362,16.6616963 17.7979948,16.3446974 17.4980474,16.1748628 L9.47269961,11.5807406 C9.33701775,11.5018145 9.19261826,11.4754318 9.03860705,11.4692242 L8.94204269,11.4692242 Z M81.0577378,11.5807406 C80.8900914,11.5807406 80.7257979,11.6228641 80.5753631,11.7084413 L72.5500153,16.3025635 C72.2508719,16.4732267 72.0667413,16.7896722 72.0674152,17.1319531 L72.0674152,26.3199758 C72.0674152,26.6656102 72.2636752,26.9786543 72.5658858,27.1495871 L80.5270809,31.6479337 C80.821021,31.8142107 81.180008,31.8268478 81.4759599,31.6634529 L86.300825,28.9996956 C86.4539421,28.9154486 86.5574358,28.7580398 86.5581064,28.5851117 C86.5597841,28.4136197 86.4674142,28.2547573 86.316919,28.170306 L78.2432891,23.5761839 C78.0921837,23.4906066 77.9860077,23.3174569 77.9860077,23.1454156 L77.9860077,20.2743664 C77.9860077,20.1025468 78.0933014,19.945138 78.2432891,19.8595607 L80.7521742,18.4238144 C80.9014411,18.3381274 81.0855057,18.3381274 81.2347725,18.4238144 L83.7434341,19.8595607 C83.8930482,19.9448106 83.9851663,20.1030085 83.984845,20.2741447 L83.984845,22.5392806 C83.9843846,22.7103955 84.0764363,22.8686258 84.2260324,22.9538645 C84.3764672,23.0401069 84.5584195,23.0403286 84.7084072,22.9538645 L89.5174017,20.1788125 C89.8159715,20.0074721 90,19.6913284 90,19.3492012 L90,17.1321748 C90,16.7896442 89.8167065,16.4746048 89.5174017,16.3025635 L81.5403361,11.7084413 C81.3936912,11.6243085 81.2271477,11.5803158 81.0577378,11.5809623 L81.0577378,11.5807406 Z M57.0619413,18.4399987 C57.1039646,18.4399987 57.1531409,18.450197 57.1906937,18.4717022 L59.9409898,20.0508901 C60.0156484,20.0936787 60.0697423,20.1728266 60.0697423,20.2581821 L60.0697423,23.416558 C60.0697423,23.5023569 60.0160954,23.581283 59.9409898,23.6240716 L57.1906937,25.2032596 C57.1159606,25.2455842 57.0242395,25.2455842 56.9495064,25.2032596 L54.1994339,23.6240716 C54.1245518,23.5810613 54.0706814,23.5023569 54.0706814,23.416558 L54.0706814,20.2581821 C54.0706814,20.1726049 54.1247753,20.0941221 54.1994339,20.0508901 L56.9495064,18.4719239 C56.9833111,18.4510699 57.022355,18.4400825 57.0621648,18.4402204 L57.0621648,18.4399987 L57.0619413,18.4399987 Z" id="Shape"></path>
                        <path d="M32.6383975,11.4285714 C32.4711236,11.4285714 32.3056386,11.4712783 32.1558077,11.5580354 L24.1268813,16.1993145 C23.8265485,16.3730535 23.6440678,16.7083943 23.6440678,17.0563217 L23.6440678,26.3710206 C23.6440678,26.7193975 23.8267721,27.0376566 24.1268813,27.2120698 L32.1558077,31.8693069 C32.4542552,32.0435644 32.8227635,32.0435644 33.121211,31.8693069 L41.1501374,27.2120698 C41.4493296,27.038888 41.6334366,26.7180295 41.6327293,26.3710206 L41.6327293,17.0563217 C41.6327293,16.7079448 41.4502465,16.3730535 41.1501374,16.1993145 L33.121211,11.5580354 C32.9744485,11.4728439 32.8078785,11.4281799 32.6383975,11.4285714 L32.6383975,11.4285714 Z M80.6511672,19.7408465 C80.6191883,19.7408465 80.5836314,19.7408465 80.5547834,19.7570292 L79.0101828,20.6625844 C78.9515416,20.695321 78.9147195,20.7570017 78.9135754,20.824411 L78.9135754,22.603156 C78.9135754,22.6701343 78.9520394,22.7314935 79.0101828,22.7649827 L80.5547834,23.6543552 C80.6127031,23.688069 80.6744245,23.688069 80.7316734,23.6543552 L82.2762739,22.7647579 C82.33465,22.731857 82.3713862,22.6704057 82.3728814,22.603156 L82.3728814,20.8241863 C82.3713862,20.7569366 82.33465,20.6954852 82.2762739,20.6625844 L80.7316734,19.7568044 C80.7030489,19.7399475 80.6833696,19.7410713 80.6511672,19.7410713 L80.6511672,19.7408465 Z" id="Shape"></path>
                    </g>
                    <g id="react-logo" fill-rule="nonzero">
                        <path d="M32.3498446,23.5651811 C32.1433445,23.6335829 31.9313266,23.6996433 31.7152957,23.7636968 C31.2370849,22.2496587 30.5916676,20.639624 29.8021182,18.9764064 C30.5557182,17.3524906 31.1760545,15.7631938 31.6408888,14.2588557 C32.0273031,14.3709075 32.4025147,14.4888129 32.7640153,14.6134079 C36.2603046,15.8170456 38.3928571,17.5969978 38.3928571,18.9683788 C38.3928571,20.4292341 36.0895867,22.3257537 32.3500118,23.5651811 L32.3498446,23.5651811 Z M30.7981677,26.6405866 C31.1762217,28.5508201 31.2302294,30.2779239 30.979754,31.6280653 C30.754694,32.8412357 30.302233,33.6500161 29.7427598,33.973963 C28.5520819,34.6633328 26.0056931,33.7672524 23.2598268,31.4037943 C22.9449769,31.1328629 22.627786,30.843535 22.3097591,30.5374829 C23.3743633,29.3728125 24.4382987,28.0188246 25.4766515,26.5153227 C27.303216,26.3532656 29.0287878,26.0881877 30.593674,25.7264441 C30.6705891,26.0375135 30.7391438,26.3423949 30.7981677,26.6405866 L30.7981677,26.6405866 Z M15.1058314,33.854887 C13.9425753,34.2657996 13.0160837,34.2775065 12.4561089,33.954563 C11.2642605,33.2672001 10.7689947,30.6130761 11.4446764,27.0533389 C11.5250259,26.6326528 11.6170248,26.2142764 11.7205672,25.7986925 C13.268064,26.141036 14.9810953,26.3873829 16.8120072,26.5358934 C17.8572154,28.0071176 18.9519168,29.3594331 20.0551458,30.5436708 C19.8206802,30.7705279 19.5806661,30.9915768 19.3353215,31.2066165 C17.8694215,32.488356 16.4005118,33.3974813 15.1059986,33.854887 L15.1058314,33.854887 Z M9.65606776,23.55615 C7.81378581,22.9263182 6.29237325,22.1078379 5.2495059,21.2147678 C4.3124803,20.4120082 3.83928571,19.615102 3.83928571,18.9683788 C3.83928571,17.5924823 5.89040867,15.8372818 9.31128782,14.6443475 C9.74065743,14.4952713 10.1742983,14.3587994 10.6116533,14.2351074 C11.0845135,15.7732283 11.7046826,17.3814234 12.4530992,19.0076806 C11.6949846,20.6581878 11.0659535,22.2919709 10.588746,23.8481538 C10.2755081,23.7584776 9.96452146,23.6611136 9.65606776,23.55615 L9.65606776,23.55615 Z M11.4829667,11.1183932 C10.7728404,7.48874897 11.2443629,4.75083694 12.4310279,4.0638085 C13.6951096,3.33195931 16.4899673,4.37554681 19.4358126,6.99170697 C19.6240872,7.15894856 19.8131979,7.3340505 20.0026429,7.51517314 C18.905099,8.69405909 17.82043,10.0361728 16.7842509,11.4988678 C15.0073467,11.6636007 13.3063543,11.9281769 11.7426385,12.2825618 C11.6463147,11.8966936 11.55973,11.5084584 11.4829667,11.1182259 L11.4829667,11.1183932 Z M27.7800891,15.1433964 C27.4107427,14.5052745 27.0276951,13.875185 26.6312128,13.2535665 C27.8367722,13.4057563 28.9916679,13.6081187 30.0761697,13.8558035 C29.7506185,14.8995582 29.3448082,15.9909768 28.8669318,17.109823 C28.5177739,16.4471767 28.1554208,15.7915705 27.7800891,15.1433964 L27.7800891,15.1433964 Z M21.1341297,8.66880561 C21.8785334,9.47541179 22.6241075,10.376175 23.3574755,11.3533676 C21.8698404,11.2830559 20.3797233,11.282721 18.8920569,11.3523641 C19.6260937,10.3842026 20.3780216,9.48477732 21.1341297,8.66880561 L21.1341297,8.66880561 Z M14.4455327,15.1544344 C14.0749003,15.7974535 13.7193223,16.4490369 13.3790892,17.1086523 C12.9090715,15.9936527 12.5069397,14.8973841 12.178546,13.8387448 C13.2565268,13.5974152 14.4060719,13.4002374 15.6037725,13.2505562 C15.2028469,13.8760271 14.8166605,14.5108281 14.4455327,15.1544344 L14.4455327,15.1544344 Z M15.6382171,24.8014309 C14.4008885,24.6632893 13.2339539,24.476146 12.1563076,24.2415061 C12.4898847,23.1641358 12.9008784,22.0442861 13.3809284,20.9053709 C13.7225959,21.5654752 14.0797364,22.2174517 14.4520537,22.8607595 C14.8319657,23.5169867 15.2274658,24.164061 15.6382171,24.8014309 L15.6382171,24.8014309 Z M21.1787739,29.3820107 C20.4138038,28.556339 19.6508403,27.6432 18.9056006,26.6609901 C19.6289362,26.6894212 20.3664844,26.703804 21.1160714,26.703804 C21.8862249,26.703804 22.6475164,26.6865781 23.396769,26.6531298 C22.6610601,27.6532344 21.9181613,28.5677115 21.1787739,29.3820107 Z M28.8823148,20.847338 C29.3872787,21.9986291 29.8129866,23.1124581 30.1510783,24.1715991 C29.0555408,24.4216252 27.8728888,24.6229841 26.6266982,24.7724981 C27.0260463,24.1392736 27.4127601,23.4981655 27.7866102,22.8495543 C28.1666516,22.1903625 28.5319769,21.5227918 28.8823148,20.847338 L28.8823148,20.847338 Z M26.3884289,22.0431154 C25.8161142,23.0375265 25.2116218,24.0130605 24.5759097,24.9681708 C23.4549569,25.0482795 22.2965498,25.0895882 21.1160714,25.0895882 C19.9404421,25.0895882 18.7967491,25.0529622 17.6953595,24.9815501 C17.0431596,24.0286636 16.4272319,23.0514413 15.8488974,22.0519792 C15.2732661,21.0578198 14.7355882,20.0421545 14.2370261,19.0071788 C14.7343201,17.9718931 15.2703732,16.9556837 15.8440484,15.9607061 L15.8440484,15.9610406 C16.4175436,14.965851 17.0286224,13.9928071 17.6759635,13.0440128 C18.7995917,12.9590541 19.9516449,12.9145678 21.1162386,12.9145678 C22.2860158,12.9145678 23.4395739,12.9593885 24.5628676,13.0450162 C25.203661,13.9923505 25.8108314,14.9620074 26.3832455,15.9521768 C26.9588934,16.9449408 27.5021004,17.9561722 28.0120047,18.9842667 C27.5073455,20.0228359 26.9658661,21.0430988 26.3885961,22.0431154 L26.3884289,22.0431154 Z M29.7180133,4.01581016 C30.9830981,4.74565245 31.4751871,7.68860267 30.680287,11.5480368 C30.6281856,11.7994556 30.5715491,12.0499128 30.5104052,12.299286 C28.9430108,11.9375424 27.240848,11.6682835 25.4587604,11.5010419 C24.4205748,10.022459 23.344935,8.6780039 22.265115,7.51433693 C22.5480725,7.2414903 22.8377636,6.97571716 23.1339203,6.71726353 C25.9232602,4.28925016 28.5301778,3.33062137 29.7180133,4.01581016 L29.7180133,4.01581016 Z" id="Shape"></path>
                        <path d="M21.8839286,15.96 C23.7923639,15.96 25.3392857,17.4912244 25.3392857,19.3799153 C25.3392857,21.2687756 23.7923639,22.8 21.8839286,22.8 C19.9756645,22.8 18.4285714,21.2687756 18.4285714,19.3799153 C18.4285714,17.4912244 19.9756645,15.96 21.8839286,15.96" id="Shape"></path>
                    </g>
                </g>
            </g>
        </g>
    </g>
</svg>