<?xml version="1.0" encoding="UTF-8"?>
<svg width="244px" height="79px" viewBox="0 0 244 79" version="1.1" xmlns="http://www.w3.org/2000/svg" xmlns:xlink="http://www.w3.org/1999/xlink">
    <!-- Generator: Sketch 55.2 (78181) - https://sketchapp.com -->
    <title>Fill 1</title>
    <desc>Created with Sketch.</desc>
    <g id="Page-1" stroke="none" stroke-width="1" fill="none" fill-rule="evenodd">
        <g id="Webiny-Logo-Icon" transform="translate(-176.000000, -330.000000)" fill="#FA5A28">
            <g id="Logo" transform="translate(176.000000, 196.000000)">
                <path d="M108.298107,185.403231 L108.298107,193.541831 L145.140107,193.541831 L145.140107,185.403231 L108.298107,185.403231 Z M145.181307,266.722731 C137.908607,266.722731 130.998707,266.739231 124.088707,266.714431 C119.495907,266.689731 116.263507,263.424431 116.304807,258.930531 C116.337707,254.395331 118.638307,252.292631 123.750707,252.259731 C129.794807,252.218431 135.847207,252.259731 141.891307,252.234931 C142.988007,252.226731 144.084607,252.045331 145.131907,251.946331 L145.131907,243.997431 C144.802007,243.857231 144.628907,243.717131 144.455707,243.717131 C135.822407,243.692331 127.172607,243.552231 118.539307,243.717131 C114.334007,243.799531 111.044007,245.778531 109.279407,249.926131 C112.107707,254.172731 111.860307,258.872731 111.283107,263.581131 C110.804807,267.423631 111.068707,271.183631 111.901507,275.314731 C123.033307,275.281831 134.082607,275.405431 145.181307,275.232331 L145.181307,266.722731 Z M144.216607,230.053931 C145.783307,226.656631 146.459407,223.036831 145.601907,219.408631 C144.892707,216.407231 143.598107,213.545931 142.526207,210.536231 C143.655907,209.233431 144.942207,207.740931 146.368707,206.108331 C144.538207,204.071631 142.963207,202.307031 141.388307,200.550631 C136.671707,204.310731 136.671707,204.310731 130.528607,204.310731 C124.195907,204.310731 117.855007,204.310731 111.522207,204.318931 C110.499807,204.318931 109.469007,204.409631 108.314607,204.467431 L108.314607,212.861531 L128.953707,212.861531 C133.439407,212.861531 136.449107,215.203331 137.578807,219.573631 C138.898107,224.685931 136.877907,227.357531 131.617107,227.374031 C124.905107,227.398831 118.184807,227.374031 111.464507,227.390531 C110.442007,227.390531 109.419607,227.489531 108.380607,227.547231 L108.380607,235.809431 C117.896207,235.809431 127.197407,235.974331 136.490307,235.735231 C140.069007,235.636231 142.699407,233.343931 144.216607,230.053931 Z M131.946907,131.006131 C127.799307,126.883231 129.555707,121.762631 129.275307,116.938931 C134.395907,117.285231 138.304407,121.300931 138.007507,125.638131 C137.727207,129.711531 136.078007,131.286431 131.946907,131.006131 Z M116.832507,131.723531 C115.669807,128.804531 115.331807,125.778331 115.958407,122.677931 C116.576907,119.594031 118.052807,118.109831 121.309907,117.524331 C121.309907,119.280731 121.318207,120.979331 121.309907,122.669631 C121.268707,126.660631 121.829407,130.536131 123.725907,134.098231 C127.609707,141.379231 137.661207,142.278031 142.476707,135.689731 C147.589107,128.705531 147.152107,118.282931 139.970007,112.247031 C134.585607,107.728431 128.285807,106.846131 121.540807,107.926331 C116.032607,108.816831 111.868507,111.661631 109.386607,116.617331 C105.857407,123.659131 107.729207,135.491831 113.286807,141.643131 C115.282307,140.266131 117.302507,138.872531 119.314407,137.495531 C118.407407,135.409331 117.566407,133.587031 116.832507,131.723531 Z M131.971707,278.637831 C131.897407,278.101831 131.559407,277.607131 131.295507,276.996931 L122.901307,276.996931 C123.082707,278.126531 123.305407,279.058331 123.363107,279.998331 C123.511507,282.356631 122.233407,284.665431 120.394607,285.506531 C118.333207,286.454731 115.389507,285.910531 113.798007,284.096431 C112.998207,283.181231 112.190107,282.092731 111.885007,280.946631 C111.151207,278.192531 110.359607,275.372531 110.244107,272.544231 C110.021507,267.374131 110.359607,262.179331 110.202907,257.001031 C110.071007,252.812131 107.927107,248.870731 104.348407,246.693831 C98.1311065,242.917231 89.5061065,244.690131 85.3173065,250.396131 C81.2521065,255.937331 81.9777065,264.199531 87.0241065,269.105731 C90.6605065,272.643131 95.1957065,274.168631 100.407007,274.968431 L100.407007,266.318631 C99.4670065,266.021831 98.3538065,265.757931 97.3066065,265.329131 C96.1604065,264.859131 94.9895065,264.372631 93.9753065,263.680031 C91.4686065,261.964931 90.6440065,258.881031 91.8561065,256.316631 C92.8126065,254.288131 95.5915065,252.952331 97.9250065,253.397631 C100.786307,253.941831 101.800507,255.409531 101.808707,259.136631 C101.825207,264.413931 101.643807,269.691131 101.817007,274.960231 C101.998407,280.237431 103.515607,285.168431 106.846907,289.382031 C110.771907,294.354131 117.879707,296.052831 123.767107,293.504831 C129.192807,291.154831 132.812707,284.624231 131.971707,278.637831 Z M115.669807,160.468131 C115.678107,158.843731 115.933707,157.219331 116.115107,155.116631 C121.878907,155.116631 127.436507,154.902231 132.969407,155.207331 C135.715207,155.355831 137.240707,157.747031 137.949807,160.229031 C138.782607,163.123231 138.543507,165.968031 136.185207,168.235631 C132.153107,172.094631 123.750707,172.531631 119.289707,169.142631 C116.395507,166.941031 115.653307,163.840631 115.669807,160.468131 Z M146.442907,161.606031 C146.319207,159.536331 145.651307,157.499631 145.156607,155.100131 L160.749307,155.100131 L160.749307,146.384431 L109.634007,146.384431 C108.273407,150.292931 107.283907,158.217031 107.605507,162.183231 C108.372407,171.665831 113.163107,177.668731 122.043807,179.524031 C125.168907,180.183731 128.574407,180.216631 131.740807,179.754931 C141.272807,178.377831 147.003607,171.162831 146.442907,161.606031 Z M145.148307,98.3282306 C138.378607,95.9287306 131.592307,93.5127306 124.797907,91.0967306 L124.797907,90.3299306 C131.608807,87.9221306 138.411607,85.5061306 145.206107,83.0984306 L145.206107,75.5865306 C138.337407,73.1458306 131.534607,70.7297306 124.723707,68.3137306 L124.723707,67.6129306 C131.600607,65.1639306 138.477507,62.7149306 145.115407,60.3484306 L145.115407,51.3770306 C132.623107,55.7390306 120.444107,59.9938306 108.265207,64.2486306 L108.265207,71.6533306 L128.871307,78.9837306 L128.871307,79.7258306 C121.961307,82.1748306 115.043207,84.6156306 108.281707,87.0151306 L108.281707,94.4362306 C120.510107,98.7075306 132.697307,102.962331 145.148307,107.307831 L145.148307,98.3282306 Z" id="Fill-1" transform="translate(121.721213, 173.028094) rotate(-90.000000) translate(-121.721213, -173.028094) "></path>
            </g>
        </g>
    </g>
</svg>