<svg width="10" height="10" viewBox="0 0 10 10" fill="none" xmlns="http://www.w3.org/2000/svg">
<path d="M2.09725 1.17217L1.71971 1.5L1.71971 1.5L2.09725 1.17217ZM1.39189 1.12247L1.06406 0.744935H1.06406L1.39189 1.12247ZM5.18499 4.72811L5.56253 4.40028H5.56253L5.18499 4.72811ZM5.17849 5.3911L5.54953 5.72626L5.17849 5.3911ZM2.06738 8.83516L2.43842 9.17033H2.43842L2.06738 8.83516ZM1.36119 8.87103L1.02602 9.24207L1.02602 9.24207L1.36119 8.87103ZM1.32532 8.16484L0.954284 7.82967L0.954284 7.82967L1.32532 8.16484ZM4.13958 5.04939L4.51061 5.38455C4.68006 5.19697 4.68285 4.91243 4.51711 4.72156L4.13958 5.04939ZM1.34218 1.82783L1.71971 1.5L1.71971 1.5L1.34218 1.82783ZM5.68248 1.17217L6.06001 0.84435L6.06001 0.84435L5.68248 1.17217ZM8.77023 4.72811L9.14776 4.40028L9.14776 4.40028L8.77023 4.72811ZM8.76373 5.3911L9.13476 5.72626L8.76373 5.3911ZM5.65262 8.83516L6.02365 9.17033L5.65262 8.83516ZM4.94642 8.87103L4.61126 9.24207H4.61126L4.94642 8.87103ZM4.91055 8.16484L5.28159 8.5L4.91055 8.16484ZM7.72482 5.04939L8.09585 5.38455C8.2653 5.19697 8.26809 4.91243 8.10235 4.72156L7.72482 5.04939ZM4.92742 1.82783L4.54988 2.15565L4.54989 2.15565L4.92742 1.82783ZM2.47478 0.84435C2.11267 0.427339 1.48107 0.38283 1.06406 0.744935L1.71971 1.5L1.71971 1.5L2.47478 0.84435ZM5.56253 4.40028L2.47478 0.84435L1.71971 1.5L4.80746 5.05593L5.56253 4.40028ZM5.54953 5.72626C5.88842 5.3511 5.894 4.78202 5.56253 4.40028L4.80746 5.05593L5.54953 5.72626ZM2.43842 9.17033L5.54953 5.72626L4.80746 5.05593L1.69635 8.5L2.43842 9.17033ZM1.02602 9.24207C1.43586 9.61228 2.0682 9.58016 2.43842 9.17033L1.69635 8.5H1.69635L1.02602 9.24207ZM0.954284 7.82967C0.584073 8.2395 0.616192 8.87185 1.02602 9.24207L1.69635 8.5L1.69635 8.5L0.954284 7.82967ZM3.76855 4.71422L0.954284 7.82967L1.69635 8.5L4.51061 5.38455L3.76855 4.71422ZM0.964649 2.15565L3.76205 5.37721L4.51711 4.72156L1.71971 1.5L0.964649 2.15565ZM1.06406 0.744935C0.647053 1.10704 0.602544 1.73864 0.964649 2.15565L1.71971 1.5L1.71971 1.5L1.06406 0.744935ZM6.06001 0.84435C5.69791 0.427339 5.06631 0.38283 4.6493 0.744935L5.30495 1.5L5.30495 1.5L6.06001 0.84435ZM9.14776 4.40028L6.06001 0.84435L5.30495 1.5L8.3927 5.05593L9.14776 4.40028ZM9.13476 5.72626C9.47366 5.3511 9.47923 4.78202 9.14776 4.40028L8.3927 5.05593L8.3927 5.05593L9.13476 5.72626ZM6.02365 9.17033L9.13476 5.72626L8.3927 5.05593L5.28159 8.5L6.02365 9.17033ZM4.61126 9.24207C5.02109 9.61228 5.65344 9.58016 6.02365 9.17033L5.28159 8.5H5.28159L4.61126 9.24207ZM4.53952 7.82967C4.16931 8.2395 4.20143 8.87185 4.61126 9.24207L5.28159 8.5L4.53952 7.82967ZM7.35378 4.71422L4.53952 7.82967L5.28159 8.5L8.09585 5.38455L7.35378 4.71422ZM4.54989 2.15565L7.34728 5.37721L8.10235 4.72156L5.30495 1.5L4.54989 2.15565ZM4.6493 0.744935C4.23229 1.10704 4.18778 1.73864 4.54988 2.15565L5.30495 1.5V1.5L4.6493 0.744935Z" fill="white"/>
</svg>
