<svg xmlns="http://www.w3.org/2000/svg" xmlns:xlink="http://www.w3.org/1999/xlink" viewBox="0 0 800 500"><defs><linearGradient id="a" x1="479.03" y1="266.23" x2="499.67" y2="348.43" gradientUnits="userSpaceOnUse"><stop offset="0" stop-color="#8033eb"/><stop offset="0.53" stop-color="#d4648e"/><stop offset="1" stop-color="#ec7071"/></linearGradient><linearGradient id="b" x1="456.6" y1="232.68" x2="504.41" y2="423.05" xlink:href="#a"/></defs><title>Artboard 2 copy 15</title><g style="isolation:isolate"><path d="M633.21,317s-78.09,40.14-115.91,20.79S476,284.62,491.16,231.11s52.6-83.9,110.73-44S697.25,279.05,633.21,317Z" style="fill:#f2f2f2"/><path d="M233.06,333.64a45.28,45.28,0,1,1-45.28-45.28A45.28,45.28,0,0,1,233.06,333.64Z" style="fill:#f2f2f2"/><path d="M471.33,147.09a19.77,19.77,0,1,1-19.77-19.77A19.77,19.77,0,0,1,471.33,147.09Z" style="fill:#f2f2f2"/><path d="M327.85,281.27a11.81,11.81,0,0,1-8.76-3.65.42.42,0,0,0-.62-.08L294.83,291.2c-.86.49-1.72,1-2.58,1.48a.37.37,0,0,0-.2.52,11.1,11.1,0,0,1,.48,4.09,11.49,11.49,0,0,1-4.37,8.37,11.17,11.17,0,0,1-6,2.49,11.61,11.61,0,0,1-11.24-5.7,11.41,11.41,0,0,1-1.57-6.6,17.17,17.17,0,0,1,.37-2.26.42.42,0,0,0-.22-.54q-7.57-4.35-15.13-8.73l-11.1-6.41c-.48-.27-.48-.27-.86.1a11.35,11.35,0,0,1-6.48,3.15,11.64,11.64,0,0,1-5.32-22.55,3.11,3.11,0,0,1,.64-.19c.32-.05.39-.22.38-.51V245.75q0-9.08,0-18.18c0-.36-.1-.5-.46-.62a11.26,11.26,0,0,1-8.35-9.36,11.48,11.48,0,0,1,9.09-13.21,11.25,11.25,0,0,1,10.57,3.13.43.43,0,0,0,.62.08l26.16-15.11c.54-.31.54-.31.38-1a11.63,11.63,0,1,1,22.71-5,11.27,11.27,0,0,1-.17,5.29.46.46,0,0,0,.26.61Q304.18,199.18,316,206l2.8,1.62a.38.38,0,0,0,.57-.06,11.23,11.23,0,0,1,6.61-3.31,11.35,11.35,0,0,1,8.69,2.28,10.94,10.94,0,0,1,4.41,7.39,11.39,11.39,0,0,1-5.1,11.58,10.39,10.39,0,0,1-3.27,1.48c-.36.09-.44.25-.44.6q0,9.54,0,19.08,0,5.61,0,11.22a.47.47,0,0,0,.41.55,11.35,11.35,0,0,1,8.33,9.06A11.57,11.57,0,0,1,329.93,281,18.21,18.21,0,0,1,327.85,281.27ZM280.92,266.9h34.89c.3,0,.43-.07.52-.38a11.35,11.35,0,0,1,2.94-5.07.43.43,0,0,0,.08-.62c-1.46-2.5-2.9-5-4.35-7.52l-13.57-23.5-17-29.41c-.17-.31-.32-.41-.69-.31a11.62,11.62,0,0,1-5.62,0c-.52-.11-.51-.12-.77.32q-9.24,16-18.47,32-8.2,14.24-16.43,28.45a.42.42,0,0,0,.1.6,11.27,11.27,0,0,1,2.91,5c.09.35.23.45.59.45Zm0,5.49H246c-.2,0-.38,0-.46.26s.09.35.26.45l6.18,3.56,20.1,11.6c.44.26.44.26.81-.08a11.4,11.4,0,0,1,9.78-3.11,11,11,0,0,1,6.6,3.39.45.45,0,0,0,.67.1l21.35-12.34,4.86-2.81c.12-.07.27-.17.29-.28a.62.62,0,0,0-.64-.74ZM237,242.69V258c0,.21,0,.37.27.45s.35-.08.46-.25q8-13.88,16-27.74l10.77-18.65,8.18-14.17c.1-.18.21-.33,0-.53s-.34-.12-.53,0l-11.33,6.54-15.12,8.73a.4.4,0,0,0-.24.53,10.55,10.55,0,0,1,.2,4.93,11.44,11.44,0,0,1-8.11,9.11c-.63.2-.57,0-.57.78Zm87.78,0v-15c0-.77.07-.61-.6-.81a11.63,11.63,0,0,1-7.95-13.84c.13-.53.13-.52-.33-.79l-21.41-12.37-4.92-2.84c-.21-.12-.35-.14-.52,0s0,.36.06.51c1.94,3.37,3.88,6.75,5.83,10.11q6.38,11,12.73,22.05,5.76,10,11.53,20l4.86,8.43c.13.25.28.32.53.21s.19-.3.19-.47Z" style="fill:#e5e5e5;fill-rule:evenodd"/><path d="M280.91,318.92a76.23,76.23,0,1,1,76.23-76.23A76.31,76.31,0,0,1,280.91,318.92Zm0-145.77a69.54,69.54,0,1,0,69.54,69.54A69.62,69.62,0,0,0,280.91,173.15Z" style="fill:#e5e5e5"/><path d="M325.46,278.88a11.8,11.8,0,0,1-8.76-3.64.41.41,0,0,0-.62-.08l-23.64,13.65c-.86.5-1.71,1-2.58,1.48a.37.37,0,0,0-.2.52,10.7,10.7,0,0,1,.48,4.09,11.49,11.49,0,0,1-4.37,8.37,11.14,11.14,0,0,1-6,2.49,11.64,11.64,0,0,1-12.81-12.3,19.35,19.35,0,0,1,.37-2.26.41.41,0,0,0-.22-.54q-7.57-4.35-15.13-8.72l-11.09-6.42c-.48-.27-.48-.27-.86.1a11.41,11.41,0,0,1-6.48,3.15,11.64,11.64,0,0,1-5.33-22.55,3.11,3.11,0,0,1,.64-.19c.32,0,.39-.22.38-.51V243.36c0-6.05,0-12.12,0-18.17a.53.53,0,0,0-.46-.62,11.3,11.3,0,0,1-8.35-9.37A11.49,11.49,0,0,1,229.49,202a11.28,11.28,0,0,1,10.57,3.13.44.44,0,0,0,.63.09q13.06-7.58,26.15-15.12c.54-.31.54-.31.38-1a11.63,11.63,0,1,1,22.71-5,11.14,11.14,0,0,1-.16,5.29.45.45,0,0,0,.25.61l23.56,13.6c.94.53,1.88,1.07,2.8,1.61a.38.38,0,0,0,.57-.06,11.62,11.62,0,0,1,15.3-1,10.94,10.94,0,0,1,4.41,7.4,11.39,11.39,0,0,1-5.1,11.57,10.29,10.29,0,0,1-3.27,1.48c-.36.09-.44.25-.44.6q0,9.54,0,19.08,0,5.61,0,11.22a.47.47,0,0,0,.41.55,11.35,11.35,0,0,1,8.33,9.06,11.56,11.56,0,0,1-9,13.53A18.21,18.21,0,0,1,325.46,278.88Zm-46.92-14.36h34.88c.3,0,.44-.07.53-.39a11.43,11.43,0,0,1,2.93-5.07.41.41,0,0,0,.08-.61c-1.46-2.51-2.9-5-4.35-7.53L299,227.42q-8.49-14.7-17-29.41c-.18-.31-.33-.41-.7-.31a11.62,11.62,0,0,1-5.62,0c-.51-.11-.5-.12-.76.32l-18.47,32q-8.22,14.24-16.44,28.45a.43.43,0,0,0,.1.6,11.16,11.16,0,0,1,2.91,5c.09.34.23.44.59.44Zm0,5.48h-35c-.2,0-.38,0-.46.26s.09.35.26.45l6.18,3.56,20.1,11.61c.45.26.44.26.82-.09a11.38,11.38,0,0,1,9.77-3.11,11,11,0,0,1,6.6,3.4.45.45,0,0,0,.67.09l21.35-12.33,4.87-2.82c.11-.07.26-.17.29-.28a.63.63,0,0,0-.65-.74Zm-43.9-29.7v15.27c0,.21,0,.37.27.45s.36-.08.46-.25q8-13.87,16-27.74l10.77-18.65,8.18-14.17c.1-.17.22-.32,0-.53s-.34-.12-.52,0l-11.33,6.54-15.13,8.73a.39.39,0,0,0-.23.53,10.68,10.68,0,0,1,.19,4.93,11.42,11.42,0,0,1-8.11,9.11c-.63.21-.57,0-.57.79Zm87.78,0v-15c0-.77.08-.61-.6-.81a11.62,11.62,0,0,1-7.95-13.83c.13-.54.13-.53-.33-.79l-21.4-12.37q-2.47-1.41-4.93-2.85c-.21-.12-.35-.14-.52.06s0,.35.06.5l5.83,10.11q6.38,11,12.73,22,5.76,10,11.53,20l4.86,8.44c.14.24.28.31.53.21s.19-.31.19-.48Z" style="fill:#db34a7;fill-rule:evenodd"/><path d="M278.52,316.53a76.23,76.23,0,1,1,76.23-76.22A76.3,76.3,0,0,1,278.52,316.53Zm0-145.76a69.54,69.54,0,1,0,69.54,69.54A69.62,69.62,0,0,0,278.52,170.77Z" style="fill:#db34a7"/><path d="M387.79,240.3A109.27,109.27,0,1,1,278.52,131,109.27,109.27,0,0,1,387.79,240.3Z" style="fill:none;stroke:#eaeaea;stroke-miterlimit:10;stroke-width:21.8244px"/><path d="M422.88,240.3A144.36,144.36,0,1,1,278.52,95.94,144.36,144.36,0,0,1,422.88,240.3Z" style="fill:none;stroke:#f94f24;stroke-linecap:round;stroke-miterlimit:10;stroke-width:1.8758800000000002px;stroke-dasharray:6.5306901931762695,6.565579891204834"/><path d="M564.83,244.13H376.25a10,10,0,0,0-9.94,10V383.76a10,10,0,0,0,9.94,9.95H564.83a10,10,0,0,0,9.94-9.95V254.08A10,10,0,0,0,564.83,244.13Z" style="fill:#e5e5e5;mix-blend-mode:multiply"/><path d="M376.27,282.45V392.71a10,10,0,0,0,10,9.94H574.79a9.94,9.94,0,0,0,10-9.94V282.45Z" style="fill:#e5e5e5"/><path d="M584.74,282.45V263a10,10,0,0,0-10-9.95H386.22a10,10,0,0,0-10,9.95v19.43Z" style="fill:url(#a)"/><path d="M574.79,253.07a10,10,0,0,1,10,9.95V392.71a9.94,9.94,0,0,1-10,9.94H386.22a10,10,0,0,1-10-9.94V263a10,10,0,0,1,10-9.95H574.79m0-2.34H386.22A12.31,12.31,0,0,0,373.93,263V392.71A12.3,12.3,0,0,0,386.22,405H574.79a12.3,12.3,0,0,0,12.29-12.28V263a12.31,12.31,0,0,0-12.29-12.29Z" style="fill:url(#b)"/><path d="M402.06,267.76A3.76,3.76,0,1,1,398.3,264,3.76,3.76,0,0,1,402.06,267.76Z" style="fill:#fff"/><path d="M418.93,267.76a3.76,3.76,0,1,1-3.75-3.75A3.76,3.76,0,0,1,418.93,267.76Z" style="fill:#fff"/><path d="M435.81,267.76a3.76,3.76,0,1,1-3.76-3.75A3.76,3.76,0,0,1,435.81,267.76Z" style="fill:#fff"/><path d="M430.6,340v13.66h-3.43V323.31h3.43V336.8h17.52V323.31h3.43v30.36h-3.43V340Z" style="fill:#6731cf"/><path d="M471.58,353.67h-3.42V326.48H458v-3.17h23.81v3.17H471.58Z" style="fill:#6731cf"/><path d="M499.68,353.67h-3.42V326.48H486.07v-3.17h23.8v3.17H499.68Z" style="fill:#6731cf"/><path d="M538.11,337.32a9.31,9.31,0,0,1-2.58,3.12,11.29,11.29,0,0,1-3.8,1.89,16.39,16.39,0,0,1-4.6.63h-7.37v10.71h-3.42V323.31H527.7a15.52,15.52,0,0,1,4.66.67,10.85,10.85,0,0,1,3.6,1.91,8.32,8.32,0,0,1,2.3,3,9.92,9.92,0,0,1,.8,4.05A9.47,9.47,0,0,1,538.11,337.32Zm-4.72-9.17a9.63,9.63,0,0,0-5.93-1.67h-7.7v13.35h7.53a11.48,11.48,0,0,0,3.41-.47,8,8,0,0,0,2.65-1.37,6,6,0,0,0,1.7-2.12,6.41,6.41,0,0,0,.58-2.76A5.78,5.78,0,0,0,533.39,328.15Z" style="fill:#6731cf"/><rect x="376.27" y="282.45" width="208.47" height="6.48" style="fill:#ccc"/></g></svg>