<svg xmlns="http://www.w3.org/2000/svg" xmlns:xlink="http://www.w3.org/1999/xlink" viewBox="0 0 800 500"><defs><linearGradient id="a" x1="589.33" y1="250.16" x2="531.94" y2="329.42" gradientUnits="userSpaceOnUse"><stop offset="0" stop-color="#8033eb"/><stop offset="0.53" stop-color="#d4648e"/><stop offset="1" stop-color="#ec7071"/></linearGradient><linearGradient id="b" x1="589.33" y1="111.01" x2="531.94" y2="190.27" xlink:href="#a"/><linearGradient id="c" x1="589.33" y1="389.31" x2="531.94" y2="468.57" xlink:href="#a"/><linearGradient id="d" x1="318.94" y1="141.92" x2="179.72" y2="297.05" gradientUnits="userSpaceOnUse"><stop offset="0" stop-color="#fdbaa9"/><stop offset="1" stop-color="#f94f24"/></linearGradient></defs><title>Artboard 2 copy 14</title><g style="isolation:isolate"><path d="M130.18,264s84.67,20.85,100.39,60-3.74,66.72-50,96.94S86.5,449.51,69,381.72,57.49,250.67,130.18,264Z" style="fill:#f2f2f2"/><path d="M320.06,82.77a26.84,26.84,0,1,1-26.83-26.83A26.84,26.84,0,0,1,320.06,82.77Z" style="fill:#f2f2f2"/><path d="M693.62,195.23a16.89,16.89,0,1,1-16.89-16.89A16.89,16.89,0,0,1,693.62,195.23Z" style="fill:#f2f2f2"/><path d="M354.79,391a16.89,16.89,0,1,1-16.89-16.89A16.9,16.9,0,0,1,354.79,391Z" style="fill:#f2f2f2"/><path d="M478.15,185.53a16.89,16.89,0,1,1-16.89-16.89A16.89,16.89,0,0,1,478.15,185.53Z" style="fill:#f2f2f2"/><polygon points="551.33 227.99 589.45 205.98 627.57 227.99 627.57 272.01 589.45 294.02 551.33 272.01 551.33 227.99" style="fill:url(#a)"/><polygon points="539.62 221.23 589.45 192.46 639.28 221.23 639.28 278.77 589.45 307.54 539.62 278.77 539.62 221.23" style="fill:none;stroke:#e5e5e5;stroke-miterlimit:10;stroke-width:6.377260000000001px"/><path d="M615.72,253.42c-.17-2.12-.36-4.24-.55-6.36-.08-.88-.39-1.16-1.28-1.18-1.57,0-3.14-.1-4.71-.13a.93.93,0,0,1-1-.74,8.39,8.39,0,0,0-.91-2c-.84-1.27-1.74-2.48-2.66-3.68a.79.79,0,0,1-.16-.87c.32-.82.61-1.65.9-2.48s.63-1.89.94-2.83c.15-.91-.71-1.26-1.72-1.82-1.62-.83-3.22-1.69-4.85-2.5-.72-.35-1.12-.19-1.56.47q-1.39,2.11-2.78,4.23a.56.56,0,0,1-.66.3,18,18,0,0,0-8.1.25.77.77,0,0,1-.61-.2q-1.85-2-3.64-4.08c-.6-.67-1-.72-1.77-.19-1.73,1.22-3.45,2.43-5.19,3.62-.78.54-.94,1-.5,1.84q1.17,2.18,2.36,4.35a.58.58,0,0,1-.08.76,23.42,23.42,0,0,0-1.9,2.84,38,38,0,0,0-1.51,3.66.74.74,0,0,1-.62.56c-1.71.31-3.42.66-5.13,1-1.07.21-1.24.42-1.17,1.52.14,2.1.31,4.2.45,6.31.06.91.36,1.22,1.28,1.26,1.65.07,3.3.15,4.94.2a.66.66,0,0,1,.69.52,18.53,18.53,0,0,0,4.34,6.72.86.86,0,0,1,.1.69c-.53,1.72-1.09,3.43-1.64,5.15a1.13,1.13,0,0,0,.71,1.57c2,.91,4,1.83,6,2.7a1,1,0,0,0,.92-.13,7.9,7.9,0,0,0,1.33-1.55c.69-1,1.29-2.14,2-3.19a.78.78,0,0,1,.58-.3,18.35,18.35,0,0,0,7.41-.45.79.79,0,0,1,.65.17c1.17,1.28,2.33,2.59,3.47,3.91.77.88,1.16,1,2.1.34q2.63-1.81,5.22-3.68a1.06,1.06,0,0,0,.38-1.58c-.8-1.54-1.63-3.05-2.42-4.58a.65.65,0,0,1,0-.58,18.52,18.52,0,0,0,3.45-6.7.72.72,0,0,1,.66-.59q2.53-.48,5.07-1C615.61,254.77,615.8,254.54,615.72,253.42Zm-24.44,9.22a10.82,10.82,0,1,1,10.81-10.82A10.81,10.81,0,0,1,591.28,262.64Z" style="fill:none;stroke:#ccc;stroke-miterlimit:10;stroke-width:2.7331100000000004px;fill-rule:evenodd;mix-blend-mode:multiply"/><path d="M613.89,251.6c-.16-2.13-.36-4.25-.54-6.37-.08-.88-.39-1.15-1.29-1.18-1.56,0-3.13-.1-4.7-.13a.94.94,0,0,1-1-.73,7.91,7.91,0,0,0-.91-2c-.83-1.26-1.74-2.47-2.65-3.68a.79.79,0,0,1-.17-.86c.33-.82.62-1.66.91-2.49s.63-1.88.94-2.82c.14-.91-.71-1.26-1.72-1.82-1.62-.84-3.22-1.7-4.85-2.5-.72-.35-1.12-.2-1.57.47-.93,1.41-1.86,2.81-2.78,4.23a.54.54,0,0,1-.65.29,18,18,0,0,0-8.1.26.8.8,0,0,1-.62-.21c-1.23-1.34-2.43-2.71-3.64-4.07-.59-.68-1-.72-1.77-.19-1.72,1.21-3.45,2.43-5.19,3.62-.77.53-.93,1-.49,1.83.78,1.46,1.56,2.91,2.36,4.35a.61.61,0,0,1-.08.76,23,23,0,0,0-1.9,2.84,34.34,34.34,0,0,0-1.51,3.66.74.74,0,0,1-.62.56c-1.72.32-3.43.66-5.14,1-1.06.21-1.24.42-1.16,1.52.14,2.11.31,4.21.45,6.31.06.91.36,1.23,1.27,1.27,1.65.06,3.3.15,4.95.19a.64.64,0,0,1,.68.53A18.61,18.61,0,0,0,576.7,263a.81.81,0,0,1,.11.69c-.53,1.72-1.09,3.43-1.64,5.14a1.13,1.13,0,0,0,.71,1.58c2,.91,4,1.83,6,2.7a1,1,0,0,0,.93-.13,8.52,8.52,0,0,0,1.33-1.55c.68-1,1.28-2.14,2-3.19a.69.69,0,0,1,.57-.3,18.35,18.35,0,0,0,7.41-.45.77.77,0,0,1,.65.16c1.18,1.29,2.33,2.6,3.48,3.92.76.88,1.16,1,2.09.34q2.64-1.81,5.23-3.68a1.09,1.09,0,0,0,.38-1.59c-.8-1.53-1.63-3-2.43-4.57a.69.69,0,0,1,0-.58,18.25,18.25,0,0,0,3.45-6.71.74.74,0,0,1,.66-.58c1.7-.33,3.39-.66,5.08-1C613.79,253,614,252.71,613.89,251.6Zm-24.44,9.22A10.82,10.82,0,1,1,600.27,250,10.82,10.82,0,0,1,589.45,260.82Z" style="fill:none;stroke:#fff;stroke-miterlimit:10;stroke-width:2.7331100000000004px;fill-rule:evenodd"/><polygon points="551.33 88.84 589.45 66.83 627.57 88.84 627.57 132.86 589.45 154.87 551.33 132.86 551.33 88.84" style="fill:url(#b)"/><polygon points="539.62 82.08 589.45 53.31 639.28 82.08 639.28 139.62 589.45 168.39 539.62 139.62 539.62 82.08" style="fill:none;stroke:#e5e5e5;stroke-miterlimit:10;stroke-width:6.377260000000001px"/><path d="M615.72,114.27c-.17-2.12-.36-4.24-.55-6.36-.08-.88-.39-1.16-1.28-1.18-1.57,0-3.14-.1-4.71-.13a.93.93,0,0,1-1-.74,8.39,8.39,0,0,0-.91-2c-.84-1.27-1.74-2.48-2.66-3.68a.79.79,0,0,1-.16-.87c.32-.82.61-1.65.9-2.48S606,95,606.26,94c.15-.91-.71-1.26-1.72-1.82-1.62-.83-3.22-1.69-4.85-2.5-.72-.35-1.12-.19-1.56.47q-1.39,2.11-2.78,4.24a.56.56,0,0,1-.66.29,18,18,0,0,0-8.1.25.77.77,0,0,1-.61-.2q-1.85-2-3.64-4.08c-.6-.68-1-.72-1.77-.18-1.73,1.21-3.45,2.42-5.19,3.61-.78.54-.94,1-.5,1.84q1.17,2.17,2.36,4.35a.58.58,0,0,1-.08.76,23.42,23.42,0,0,0-1.9,2.84,38,38,0,0,0-1.51,3.66.74.74,0,0,1-.62.56c-1.71.31-3.42.66-5.13,1-1.07.21-1.24.42-1.17,1.52.14,2.1.31,4.2.45,6.31.06.91.36,1.22,1.28,1.26,1.65.07,3.3.16,4.94.2a.65.65,0,0,1,.69.52,18.53,18.53,0,0,0,4.34,6.72.86.86,0,0,1,.1.69c-.53,1.72-1.09,3.43-1.64,5.15a1.13,1.13,0,0,0,.71,1.57c2,.91,4,1.83,6,2.7a1,1,0,0,0,.92-.13,7.9,7.9,0,0,0,1.33-1.55c.69-1,1.29-2.14,2-3.19a.78.78,0,0,1,.58-.3,18.17,18.17,0,0,0,7.41-.45.79.79,0,0,1,.65.17c1.17,1.28,2.33,2.59,3.47,3.91.77.89,1.16,1,2.1.34q2.63-1.81,5.22-3.68a1.06,1.06,0,0,0,.38-1.58c-.8-1.54-1.63-3.05-2.42-4.58a.65.65,0,0,1,0-.58,18.52,18.52,0,0,0,3.45-6.7.72.72,0,0,1,.66-.59q2.53-.48,5.07-1C615.61,115.62,615.8,115.39,615.72,114.27Zm-24.44,9.22a10.82,10.82,0,1,1,10.81-10.82A10.81,10.81,0,0,1,591.28,123.49Z" style="fill:none;stroke:#ccc;stroke-miterlimit:10;stroke-width:2.7331100000000004px;fill-rule:evenodd;mix-blend-mode:multiply"/><path d="M613.89,112.45c-.16-2.13-.36-4.25-.54-6.37-.08-.88-.39-1.15-1.29-1.18-1.56,0-3.13-.1-4.7-.13a.94.94,0,0,1-1-.73,7.91,7.91,0,0,0-.91-2c-.83-1.26-1.74-2.47-2.65-3.68a.79.79,0,0,1-.17-.86c.33-.82.62-1.66.91-2.49s.63-1.88.94-2.82c.14-.91-.71-1.26-1.72-1.82-1.62-.84-3.22-1.7-4.85-2.5-.72-.35-1.12-.2-1.57.47q-1.39,2.1-2.78,4.23a.54.54,0,0,1-.65.29,18,18,0,0,0-8.1.26.77.77,0,0,1-.62-.21c-1.23-1.34-2.43-2.71-3.64-4.07-.59-.68-1-.72-1.77-.19-1.72,1.21-3.45,2.43-5.19,3.62-.77.53-.93,1-.49,1.83.78,1.46,1.56,2.91,2.36,4.35a.61.61,0,0,1-.08.76,23.15,23.15,0,0,0-1.9,2.85,33.34,33.34,0,0,0-1.51,3.65.74.74,0,0,1-.62.56c-1.72.32-3.43.66-5.14,1-1.06.21-1.24.42-1.16,1.53.14,2.1.31,4.2.45,6.3.06.91.36,1.23,1.27,1.27,1.65.06,3.3.15,4.95.19a.64.64,0,0,1,.68.53,18.61,18.61,0,0,0,4.34,6.72.81.81,0,0,1,.11.69c-.53,1.72-1.09,3.43-1.64,5.14a1.13,1.13,0,0,0,.71,1.58c2,.91,4,1.83,6,2.7a1,1,0,0,0,.93-.13,8.52,8.52,0,0,0,1.33-1.55c.68-1,1.28-2.14,2-3.19a.69.69,0,0,1,.57-.3,18.35,18.35,0,0,0,7.41-.45.77.77,0,0,1,.65.16c1.18,1.29,2.33,2.6,3.48,3.92.76.88,1.16,1,2.09.34q2.64-1.81,5.23-3.68a1.08,1.08,0,0,0,.38-1.59c-.8-1.53-1.63-3-2.43-4.57a.69.69,0,0,1,0-.58,18.25,18.25,0,0,0,3.45-6.71.74.74,0,0,1,.66-.58c1.7-.33,3.39-.66,5.08-1C613.79,113.8,614,113.56,613.89,112.45Zm-24.44,9.22a10.82,10.82,0,1,1,10.82-10.82A10.82,10.82,0,0,1,589.45,121.67Z" style="fill:none;stroke:#fff;stroke-miterlimit:10;stroke-width:2.7331100000000004px;fill-rule:evenodd"/><polygon points="551.33 367.14 589.45 345.13 627.57 367.14 627.57 411.16 589.45 433.17 551.33 411.16 551.33 367.14" style="fill:url(#c)"/><polygon points="539.62 360.38 589.45 331.61 639.28 360.38 639.28 417.92 589.45 446.69 539.62 417.92 539.62 360.38" style="fill:none;stroke:#e5e5e5;stroke-miterlimit:10;stroke-width:6.377260000000001px"/><path d="M615.72,392.57c-.17-2.12-.36-4.24-.55-6.36-.08-.88-.39-1.16-1.28-1.18-1.57,0-3.14-.1-4.71-.13a.93.93,0,0,1-1-.73,8.28,8.28,0,0,0-.91-2c-.84-1.27-1.74-2.48-2.66-3.68a.79.79,0,0,1-.16-.87c.32-.82.61-1.65.9-2.48s.63-1.89.94-2.83c.15-.91-.71-1.26-1.72-1.82-1.62-.83-3.22-1.69-4.85-2.5-.72-.35-1.12-.19-1.56.47q-1.39,2.11-2.78,4.23a.56.56,0,0,1-.66.3,18,18,0,0,0-8.1.25.77.77,0,0,1-.61-.2q-1.85-2-3.64-4.08c-.6-.67-1-.72-1.77-.19-1.73,1.22-3.45,2.43-5.19,3.62-.78.54-.94,1-.5,1.84q1.17,2.17,2.36,4.35a.58.58,0,0,1-.08.76,23.42,23.42,0,0,0-1.9,2.84,38,38,0,0,0-1.51,3.66.74.74,0,0,1-.62.56c-1.71.31-3.42.66-5.13,1-1.07.21-1.24.42-1.17,1.52.14,2.1.31,4.2.45,6.31.06.91.36,1.22,1.28,1.26,1.65.07,3.3.16,4.94.2a.66.66,0,0,1,.69.52,18.53,18.53,0,0,0,4.34,6.72.86.86,0,0,1,.1.69c-.53,1.72-1.09,3.43-1.64,5.15a1.13,1.13,0,0,0,.71,1.57c2,.91,4,1.83,6,2.7a1,1,0,0,0,.92-.13,7.9,7.9,0,0,0,1.33-1.55c.69-1,1.29-2.14,2-3.19a.78.78,0,0,1,.58-.3,18.35,18.35,0,0,0,7.41-.45.79.79,0,0,1,.65.17c1.17,1.28,2.33,2.59,3.47,3.91.77.89,1.16,1,2.1.34q2.63-1.82,5.22-3.68a1.06,1.06,0,0,0,.38-1.58c-.8-1.54-1.63-3.05-2.42-4.58a.65.65,0,0,1,0-.58,18.52,18.52,0,0,0,3.45-6.7.72.72,0,0,1,.66-.59q2.53-.48,5.07-1C615.61,393.92,615.8,393.69,615.72,392.57Zm-24.44,9.22A10.82,10.82,0,1,1,602.09,391,10.81,10.81,0,0,1,591.28,401.79Z" style="fill:none;stroke:#ccc;stroke-miterlimit:10;stroke-width:2.7331100000000004px;fill-rule:evenodd;mix-blend-mode:multiply"/><path d="M613.89,390.75c-.16-2.13-.36-4.25-.54-6.37-.08-.88-.39-1.15-1.29-1.18-1.56,0-3.13-.1-4.7-.13a.94.94,0,0,1-1-.73,7.91,7.91,0,0,0-.91-2c-.83-1.26-1.74-2.47-2.65-3.68a.79.79,0,0,1-.17-.86c.33-.82.62-1.65.91-2.49s.63-1.88.94-2.82c.14-.91-.71-1.26-1.72-1.82-1.62-.84-3.22-1.7-4.85-2.5-.72-.35-1.12-.2-1.57.47-.93,1.41-1.86,2.81-2.78,4.23a.53.53,0,0,1-.65.29,18,18,0,0,0-8.1.26.77.77,0,0,1-.62-.21c-1.23-1.34-2.43-2.71-3.64-4.07-.59-.68-1-.72-1.77-.19-1.72,1.21-3.45,2.43-5.19,3.62-.77.53-.93,1-.49,1.83.78,1.46,1.56,2.91,2.36,4.35a.61.61,0,0,1-.08.76,23.15,23.15,0,0,0-1.9,2.85,33.34,33.34,0,0,0-1.51,3.65.74.74,0,0,1-.62.56c-1.72.32-3.43.66-5.14,1-1.06.21-1.24.42-1.16,1.53.14,2.1.31,4.2.45,6.3.06.91.36,1.23,1.27,1.27,1.65.06,3.3.15,4.95.19a.64.64,0,0,1,.68.53,18.61,18.61,0,0,0,4.34,6.72.81.81,0,0,1,.11.69c-.53,1.72-1.09,3.43-1.64,5.14a1.13,1.13,0,0,0,.71,1.58c2,.91,4,1.83,6,2.7a1,1,0,0,0,.93-.13,8.52,8.52,0,0,0,1.33-1.55c.68-1,1.28-2.14,2-3.19a.69.69,0,0,1,.57-.3,18.35,18.35,0,0,0,7.41-.45.77.77,0,0,1,.65.16c1.18,1.29,2.33,2.6,3.48,3.92.76.88,1.16,1,2.09.34q2.64-1.82,5.23-3.68a1.08,1.08,0,0,0,.38-1.59c-.8-1.53-1.63-3-2.43-4.57a.69.69,0,0,1,0-.58,18.25,18.25,0,0,0,3.45-6.71.74.74,0,0,1,.66-.58c1.7-.33,3.39-.66,5.08-1C613.79,392.1,614,391.86,613.89,390.75ZM589.45,400a10.82,10.82,0,1,1,10.82-10.82A10.82,10.82,0,0,1,589.45,400Z" style="fill:none;stroke:#fff;stroke-miterlimit:10;stroke-width:2.7331100000000004px;fill-rule:evenodd"/><path d="M117.73,250A104.22,104.22,0,1,1,222,354.22,104.22,104.22,0,0,1,117.73,250Z" style="fill:url(#d)"/><g style="mix-blend-mode:multiply"><path d="M194.84,262.68h-3.17l-2.62,7.52-.52,1.49-3.14-9H182.1l-3.15,9-.52-1.49-2.62-7.52h-4l.29.82,1,2.9,2.45,7.05,1.77,5.12h3.3l3.14-9,3.14,9h3.3l1.77-5.12,2.45-7.05,1-2.9.29-.82Zm13.41,10.93-.5.25a19.6,19.6,0,0,1-2.2,1,7,7,0,0,1-2.35.4,4.15,4.15,0,0,1-2.45-.64,3,3,0,0,1-1-1.51h2.08a10.67,10.67,0,0,0,4.92-1,4.86,4.86,0,0,0,.53-8.38,7.62,7.62,0,0,0-4.24-1.24,7.12,7.12,0,0,0-5.54,2.52,9,9,0,0,0-2,6,7.9,7.9,0,0,0,2,5.63,7.24,7.24,0,0,0,5.55,2.22,12.49,12.49,0,0,0,6.66-2l.53-.34Zm-6.65-7.27a2.58,2.58,0,0,1,1.31-.33,5.59,5.59,0,0,1,1.05.11,2.26,2.26,0,0,1,.84.34,1.26,1.26,0,0,1,.49.48,1.46,1.46,0,0,1,.21.81,1.09,1.09,0,0,1-.26.85,3.27,3.27,0,0,1-1,.66,6.62,6.62,0,0,1-2.4.25H199.5a5.17,5.17,0,0,1,1-2.2A4.57,4.57,0,0,1,201.6,266.34Zm22.85-1.64a7.28,7.28,0,0,0-8.77-1.75v-6.87h-3.87V278l.44.13a22.62,22.62,0,0,0,5.51.7,8.28,8.28,0,0,0,6.44-2.43,9,9,0,0,0,2.12-6A9.19,9.19,0,0,0,224.45,264.7Zm-4.36,10.18a4.5,4.5,0,0,1-2,.35,23.41,23.41,0,0,1-2.41-.15v-6.75a2.08,2.08,0,0,1,.63-1.37,3.36,3.36,0,0,1,2.6-1.13,2.91,2.91,0,0,1,2.63,1.46,6,6,0,0,1,.87,3.27,5,5,0,0,1-1,3.34A3.62,3.62,0,0,1,220.09,274.88Zm8-12.17H232v15.87h-3.86Zm21.69,15.88v-11a5.88,5.88,0,0,0-.47-2.38c-.86-1.75-2.8-2.71-5.45-2.71a6.77,6.77,0,0,0-4.75,1.67,6.81,6.81,0,0,0-1.67-1.62l-.4-.28-2.53,2.29.48.46a3.72,3.72,0,0,1,.94,1.25,4.26,4.26,0,0,1,.28,1.59V278.6h3.86V268.14a6.75,6.75,0,0,1,1.54-1.46,3.72,3.72,0,0,1,2.1-.64,2.54,2.54,0,0,1,1.73.55c.24.22.48.59.48,1.72v10.28Zm5.72-.39c2.17-1.57,4.43-.92,6.71-.83h.42a34.47,34.47,0,0,0,3.74-.23V262.71h-3.86v9.78s-.61,2.46-2.93,2.5c0,0-2.62.2-2.92-2V262.72h-3.86v11a5.64,5.64,0,0,0,.47,2.37A4.46,4.46,0,0,0,255.52,278.2Z" style="fill:#e5e5e5"/><path d="M271.71,269.27a6.51,6.51,0,0,0-4.95-.76h0v4.38a1.19,1.19,0,0,1,.16-.23,2.21,2.21,0,0,1,.29-.22,2.55,2.55,0,0,1,2.5.11,2,2,0,0,1,.94,2,2.31,2.31,0,0,1-.83,1.67,6.65,6.65,0,0,1-3.12,1.24h-.05l-.13,0h0c-.54.05-2.27.19-3.84.17h0l-.31,0h-.11l-.32,0h-.12c-.77,0-1.48-.09-2.08-.14-.21,0-.42,0-.62,0l-.54,0-.47,0-.14,0a5.94,5.94,0,0,0-2.19.82l-.06.05a5.26,5.26,0,0,0-1.59,1.63,6.41,6.41,0,0,0,0,6.5,5.8,5.8,0,0,0,5.47,2.87,6.08,6.08,0,0,0,4.35-2.08,9.81,9.81,0,0,0,2-4.23c.12-.49.22-1,.29-1.44l-3.91-.09c-.09.42-.19.83-.31,1.23a5.59,5.59,0,0,1-1,2,2.28,2.28,0,0,1-1.68.79,2,2,0,0,1-2-1,2.56,2.56,0,0,1-.05-2.51,1.93,1.93,0,0,1,.22-.28,2.5,2.5,0,0,1,1.82-.48c.74,0,1.46,0,2.17-.05h.83c1.28,0,3.66.09,4,.09a11.49,11.49,0,0,0,5.92-2.24,6.14,6.14,0,0,0,2.18-4.31,5.81,5.81,0,0,0-2.77-5.53" style="fill:#e5e5e5"/></g><path d="M192.45,260.29h-3.16l-2.63,7.52-.52,1.49-3.14-9h-3.29l-3.15,9-.52-1.49-2.62-7.52h-4l.29.83,1,2.89,2.45,7.05,1.77,5.12h3.31l3.13-9,3.14,9h3.3l1.78-5.12L192,264l1-2.89.29-.83Zm13.41,10.93-.49.26a24,24,0,0,1-2.21,1,7,7,0,0,1-2.35.41,4.15,4.15,0,0,1-2.45-.65,3,3,0,0,1-1-1.51h2.08a10.74,10.74,0,0,0,4.93-1,4.86,4.86,0,0,0,.53-8.37,7.57,7.57,0,0,0-4.25-1.26,7.12,7.12,0,0,0-5.54,2.54,9,9,0,0,0-2,6,7.89,7.89,0,0,0,1.95,5.63,7.26,7.26,0,0,0,5.55,2.22,12.49,12.49,0,0,0,6.66-2l.53-.33ZM199.21,264a2.68,2.68,0,0,1,1.31-.33,5.59,5.59,0,0,1,1,.11,2.26,2.26,0,0,1,.84.34,1.34,1.34,0,0,1,.49.48,1.49,1.49,0,0,1,.21.81,1.14,1.14,0,0,1-.26.86,3.49,3.49,0,0,1-1,.65,6.62,6.62,0,0,1-2.4.25h-2.32a5.28,5.28,0,0,1,1-2.2A4.57,4.57,0,0,1,199.21,264Zm22.85-1.64a7.28,7.28,0,0,0-8.77-1.75v-6.87h-3.87v21.95l.44.13a22.62,22.62,0,0,0,5.51.7,8.28,8.28,0,0,0,6.44-2.43,9,9,0,0,0,2.12-6A9.19,9.19,0,0,0,222.06,262.31Zm-4.36,10.18a4.5,4.5,0,0,1-2,.35c-.62,0-1.49,0-2.41-.14v-6.76a2.05,2.05,0,0,1,.64-1.37,3.36,3.36,0,0,1,2.6-1.12,2.9,2.9,0,0,1,2.62,1.45,5.92,5.92,0,0,1,.87,3.28,5,5,0,0,1-1,3.33A3.62,3.62,0,0,1,217.7,272.49Zm8-12.17h3.86V276.2h-3.86Zm21.69,15.88v-11a5.71,5.71,0,0,0-.47-2.38c-.86-1.75-2.8-2.72-5.45-2.72a6.77,6.77,0,0,0-4.75,1.68,6.81,6.81,0,0,0-1.67-1.62l-.4-.29-2.53,2.3.48.46a3.91,3.91,0,0,1,.95,1.25,4.48,4.48,0,0,1,.27,1.59v10.76h3.86V265.75a6.75,6.75,0,0,1,1.54-1.46,3.71,3.71,0,0,1,2.1-.63,2.59,2.59,0,0,1,1.73.53c.24.23.48.6.48,1.73V276.2Zm5.72-.39c2.17-1.57,4.43-.91,6.71-.83h.42a34.47,34.47,0,0,0,3.74-.23V260.32h-3.86v9.78s-.61,2.47-2.93,2.51c0,0-2.62.2-2.92-2V260.33h-3.86v11a5.73,5.73,0,0,0,.47,2.39A4.45,4.45,0,0,0,253.13,275.81Z" style="fill:#fff"/><path d="M269.32,266.88a6.51,6.51,0,0,0-4.95-.76h0v4.38a1.88,1.88,0,0,1,.16-.23,1.54,1.54,0,0,1,.29-.21,2.52,2.52,0,0,1,2.5.1,2,2,0,0,1,.95,2,2.36,2.36,0,0,1-.84,1.67,6.76,6.76,0,0,1-3.12,1.25h-.05l-.13,0h0c-.54.05-2.27.19-3.84.17h0l-.31,0h-.11l-.31,0h-.13c-.77,0-1.48-.09-2.08-.14h-.62l-.54,0-.47,0-.14,0a6,6,0,0,0-2.19.83l-.06,0a5.37,5.37,0,0,0-1.59,1.63,6.41,6.41,0,0,0,0,6.5A5.79,5.79,0,0,0,257.2,287a6.08,6.08,0,0,0,4.35-2.08,9.85,9.85,0,0,0,2.05-4.22c.11-.5.21-1,.28-1.45l-3.91-.09c-.08.42-.19.83-.31,1.24a5.49,5.49,0,0,1-1,2,2.3,2.3,0,0,1-1.68.81,2,2,0,0,1-1.95-1,2.51,2.51,0,0,1-.06-2.5,1.51,1.51,0,0,1,.22-.28,2.41,2.41,0,0,1,1.82-.49c.74,0,1.46,0,2.17,0H260c1.29,0,3.66.09,4,.09a11.4,11.4,0,0,0,5.92-2.24,6.14,6.14,0,0,0,2.18-4.31,5.81,5.81,0,0,0-2.77-5.53" style="fill:#fff"/><path d="M211.38,309.36a11.43,11.43,0,0,1-2.09,1.27,12.2,12.2,0,0,1-2.41.82,12.56,12.56,0,0,1-2.86.3,11.43,11.43,0,0,1-4.61-.92,11.61,11.61,0,0,1-3.66-2.52,11.73,11.73,0,0,1-2.42-3.77,12.92,12.92,0,0,1,0-9.32,12,12,0,0,1,2.42-3.8,11.19,11.19,0,0,1,3.69-2.57,11.48,11.48,0,0,1,4.68-.94,14.56,14.56,0,0,1,2.85.26,12.67,12.67,0,0,1,2.35.74,11.07,11.07,0,0,1,2,1.16,19,19,0,0,1,1.78,1.49l-1.78,1.91a14.6,14.6,0,0,0-3.18-2.27,8.89,8.89,0,0,0-10.44,1.85,9.27,9.27,0,0,0-1.87,3,10.65,10.65,0,0,0,0,7.49,9.36,9.36,0,0,0,1.87,3,8.78,8.78,0,0,0,2.83,2,8.38,8.38,0,0,0,3.54.74,8.91,8.91,0,0,0,4.09-.87,14.34,14.34,0,0,0,3.36-2.45l1.71,1.68A16,16,0,0,1,211.38,309.36Z" style="fill:#fff"/><path d="M217.78,288.3h2.6V309h13v2.4H217.78Z" style="fill:#fff"/><path d="M241,288.3v23.05h-2.61V288.3Z" style="fill:#fff"/><path d="M342.78,250A120.83,120.83,0,1,1,222,129.17,120.83,120.83,0,0,1,342.78,250Z" style="fill:none;stroke:#f94f24;stroke-linecap:round;stroke-miterlimit:10;stroke-width:1.6024100000000001px;stroke-dasharray:5.578639984130859,5.608439922332764"/><path d="M196.86,232.84a4.41,4.41,0,0,1-2.71-7.89L209.55,213l-15.4-11.93a4.41,4.41,0,0,1,5.4-7l19.89,15.42a4.41,4.41,0,0,1,0,7l-19.89,15.42A4.38,4.38,0,0,1,196.86,232.84Z" style="fill:#e5e5e5;mix-blend-mode:multiply"/><path d="M246.16,232.84H225.71a4.41,4.41,0,1,1,0-8.81h20.45a4.41,4.41,0,1,1,0,8.81Z" style="fill:#e5e5e5;mix-blend-mode:multiply"/><path d="M194.47,230.66a4.41,4.41,0,0,1-2.7-7.89l15.39-11.93-15.39-11.93a4.41,4.41,0,1,1,5.4-7l19.88,15.41a4.41,4.41,0,0,1,0,7l-19.88,15.42A4.43,4.43,0,0,1,194.47,230.66Z" style="fill:#fff"/><path d="M243.77,230.66H223.32a4.41,4.41,0,0,1,0-8.81h20.45a4.41,4.41,0,1,1,0,8.81Z" style="fill:#fff"/><path d="M534.76,250a4,4,0,1,1-4-4A4,4,0,0,1,534.76,250Z" style="fill:#fff;stroke:#f94f24;stroke-linecap:round;stroke-miterlimit:10;stroke-width:2px"/><line x1="526.7" y1="250" x2="342.78" y2="250" style="fill:none;stroke:#f94f24;stroke-linecap:round;stroke-miterlimit:10;stroke-width:1.6024100000000001px;stroke-dasharray:5.578639984130859,5.608439922332764"/><path d="M337.9,215.93h28.89S386,215.28,386,202.66V125.82s2.19-19.2,21.4-19.2H528.69" style="fill:none;stroke:#f94f24;stroke-linecap:round;stroke-miterlimit:10;stroke-width:1.6024100000000001px;stroke-dasharray:5.578639984130859,5.608439922332764"/><path d="M534.76,106.61a4,4,0,1,1-4-4A4,4,0,0,1,534.76,106.61Z" style="fill:#fff;stroke:#f94f24;stroke-linecap:round;stroke-miterlimit:10;stroke-width:2px"/><path d="M337.9,287h28.89s19.21.66,19.21,13.28v76.83s2.19,19.21,21.4,19.21H528.69" style="fill:none;stroke:#f94f24;stroke-linecap:round;stroke-miterlimit:10;stroke-width:1.6024100000000001px;stroke-dasharray:5.578639984130859,5.608439922332764"/><path d="M534.76,396.33a4,4,0,1,0-4,4A4,4,0,0,0,534.76,396.33Z" style="fill:#fff;stroke:#f94f24;stroke-linecap:round;stroke-miterlimit:10;stroke-width:2px"/></g></svg>