<svg width="42" height="37" viewBox="0 0 42 37" fill="none" xmlns="http://www.w3.org/2000/svg">
<path fill-rule="evenodd" clip-rule="evenodd" d="M21.0004 22.2765C18.9397 22.2765 17.2692 20.6149 17.2692 18.5651C17.2692 16.5154 18.9397 14.8538 21.0004 14.8538C23.061 14.8538 24.7316 16.5154 24.7316 18.5651C24.7316 20.6149 23.061 22.2765 21.0004 22.2765Z" fill="#FA5A28"/>
<path fill-rule="evenodd" clip-rule="evenodd" d="M34.1728 12.9354C38.4006 14.3832 41 16.5777 41 18.5648C41 20.6355 38.2451 22.9668 33.705 24.4631C30.2726 25.5942 25.7558 26.1847 21.0003 26.1847C16.1247 26.1847 11.5078 25.6305 8.03667 24.4506C3.64509 22.9576 1 20.5961 1 18.5648C1 16.5938 3.48191 14.4163 7.65029 12.9707C11.1723 11.7493 15.9411 11.0188 20.9997 11.0188H21.0003C26.01 11.0188 30.6638 11.7338 34.1728 12.9354Z" stroke="#6A6E7C"/>
<path fill-rule="evenodd" clip-rule="evenodd" d="M22.6461 4.42113C26.019 1.50143 29.2289 0.357994 30.9594 1.35059C32.7628 2.38505 33.4169 5.9236 32.4519 10.583C31.723 14.1058 29.9801 18.2926 27.6044 22.3903C25.1686 26.5914 22.3795 30.2928 19.6181 32.6936C16.124 35.7318 12.7458 36.8313 10.9768 35.8166C9.26021 34.8326 8.60377 31.6056 9.42726 27.2916C10.123 23.6466 11.8692 19.1726 14.3955 14.8138L14.3964 14.8139C16.8991 10.4973 19.8466 6.84443 22.6461 4.42113Z" stroke="#6A6E7C"/>
<path fill-rule="evenodd" clip-rule="evenodd" d="M9.4707 10.102C8.61211 5.73712 9.21916 2.39987 10.9481 1.40439C12.7498 0.366896 16.1585 1.57041 19.7348 4.72907C22.4388 7.11715 25.2154 10.7094 27.598 14.8032C30.0408 19.0003 31.8716 23.2525 32.5839 26.831C33.4851 31.3596 32.7557 34.8197 30.9883 35.8374C29.2734 36.8249 26.1353 35.7794 22.7891 32.9152C19.9619 30.4953 16.9371 26.7561 14.4025 22.4015V22.4015C11.8927 18.0898 10.184 13.7246 9.4707 10.102Z" stroke="#6A6E7C"/>
</svg>
