<svg width="26" height="35" viewBox="0 0 26 35" fill="none" xmlns="http://www.w3.org/2000/svg">
<path d="M25.4608 24.6871L25.4608 24.687L25.4589 24.6914C25.4115 24.799 25.3608 24.8496 25.3201 24.8763C25.2795 24.9028 25.2136 24.9286 25.0977 24.9286H25.0833L25.0689 24.9294L19.6293 25.2432L18.8825 25.2863L19.2079 25.9599L22.1286 32.0061C22.1667 32.1039 22.1625 32.1794 22.127 32.2616C22.0866 32.3553 22.024 32.4218 21.912 32.4713L21.8797 32.4856L21.8497 32.5043L19.4474 34.0022C19.3466 34.0333 19.2612 34.0272 19.1722 33.9915C19.0656 33.9486 18.999 33.8852 18.9517 33.7855L18.9479 33.7777L18.944 33.77L15.7773 27.6572L15.4675 27.0592L14.9848 27.5287L11.1653 31.2429C11.1651 31.2431 11.1649 31.2433 11.1647 31.2435C11.0807 31.3243 10.9966 31.3571 10.8881 31.3571C10.8462 31.3571 10.7988 31.3491 10.7431 31.3269C10.6262 31.2787 10.5735 31.2278 10.5479 31.1914C10.5238 31.1571 10.5 31.1021 10.5 31V10.8571C10.5 10.755 10.5238 10.7 10.5479 10.6658C10.5735 10.6294 10.6262 10.5785 10.7431 10.5303C10.7988 10.508 10.8462 10.5 10.8881 10.5C11.0113 10.5 11.0884 10.5362 11.1557 10.6047L11.1556 10.6048L11.1653 10.6142L25.375 24.3285L25.3749 24.3286L25.3809 24.3342C25.4678 24.4153 25.49 24.4726 25.4965 24.5035C25.5027 24.5331 25.5053 24.5885 25.4608 24.6871Z" fill="white" stroke="#6A6E7C"/>
<circle cx="11" cy="11" r="10.5" fill="white" stroke="#FA5A28"/>
</svg>
