<?xml version="1.0" standalone="no"?>
<!DOCTYPE svg PUBLIC "-//W3C//DTD SVG 20010904//EN"
 "http://www.w3.org/TR/2001/REC-SVG-20010904/DTD/svg10.dtd">
<svg version="1.0" xmlns="http://www.w3.org/2000/svg"
 width="252.000000pt" height="252.000000pt" viewBox="0 0 252.000000 252.000000"
 preserveAspectRatio="xMidYMid meet">
<metadata>
Created by potrace 1.11, written by Peter Selinger 2001-2013
</metadata>
<g transform="translate(0.000000,252.000000) scale(0.100000,-0.100000)"
fill="#000000" stroke="none">
<path d="M1194 2499 c-28 -8 -171 -88 -727 -410 -109 -63 -214 -127 -234 -143
-20 -16 -46 -52 -59 -80 l-24 -51 0 -560 c0 -626 -2 -602 73 -674 31 -30 764
-463 920 -543 53 -27 66 -30 135 -26 l77 4 459 264 c253 146 475 280 494 299
74 73 72 50 72 676 l0 560 -24 50 c-13 28 -36 62 -52 76 -41 38 -922 545 -969
558 -47 13 -97 13 -141 0z m-365 -1006 c57 -161 107 -293 111 -293 4 0 54 132
111 293 l104 292 110 3 110 3 101 -288 c60 -171 107 -288 114 -288 8 0 54 116
114 285 l101 285 128 3 c104 2 127 0 127 -12 0 -7 -81 -245 -179 -527 l-179
-514 -110 -3 -109 -3 -57 158 c-31 87 -77 219 -104 293 -26 74 -51 135 -56
135 -5 0 -48 -112 -97 -250 -49 -137 -96 -269 -105 -292 l-16 -43 -108 0 -108
0 -21 58 c-66 181 -341 978 -341 989 0 11 26 13 128 11 l127 -3 104 -292z"/>
</g>
</svg>
