<svg width="1440" height="563" viewBox="0 0 1440 563" fill="none" xmlns="http://www.w3.org/2000/svg">
<path fill-rule="evenodd" clip-rule="evenodd" d="M-1 563L1442 563L1442 18.7018C1442 18.7018 1185.28 9.57574 1021.64 18.7018C961.318 22.0662 927.871 34.3246 867.608 30.4785C808.039 26.6768 780.663 -0.0478516 720.844 6.10352e-05C661.255 0.0477905 634.038 26.7219 574.695 30.4785C515.081 34.2523 482.015 22.0771 422.351 18.7018C258.545 9.43512 1.51196 18.7018 1.51196 18.7018L-1 563Z" fill="url(#paint0_linear)"/>
<mask id="mask0" mask-type="alpha" maskUnits="userSpaceOnUse" x="-1" y="0" width="1443" height="563">
<path fill-rule="evenodd" clip-rule="evenodd" d="M-1 563L1442 563L1442 18.7018C1442 18.7018 1185.28 9.57574 1021.64 18.7018C961.318 22.0662 927.871 34.3246 867.608 30.4785C808.039 26.6768 780.663 -0.0478516 720.844 6.10352e-05C661.255 0.0477905 634.038 26.7219 574.695 30.4785C515.081 34.2523 482.015 22.0771 422.351 18.7018C258.545 9.43512 1.51196 18.7018 1.51196 18.7018L-1 563Z" fill="white"/>
</mask>
<g mask="url(#mask0)">
<path fill-rule="evenodd" clip-rule="evenodd" d="M394.197 39.6665C679.53 49 832.863 113 1108.86 79.6665C1384.86 46.3333 1402.33 62.2537 1589 70.2534C1775.67 78.2532 1462.2 -23 1462.2 -23L30.1965 -20.3334L-99.1368 6.33325L-28.4701 95.6664C-28.4701 95.6664 108.863 30.3331 394.197 39.6665Z" fill="white" fill-opacity="0.180392"/>
<path fill-rule="evenodd" clip-rule="evenodd" d="M1140.13 63.4203C854.797 72.7538 716.501 87.5866 440.5 54.2533C164.499 20.92 99.9978 92.587 -68.002 135.253C-236.002 177.92 -35 0.753906 -35 0.753906L1504.13 3.42041L1633.46 30.087L1551 138.253C1551 138.253 1425.46 54.0868 1140.13 63.4203Z" fill="white" fill-opacity="0.180392"/>
</g>
<defs>
<linearGradient id="paint0_linear" x1="-722.5" y1="563" x2="720.5" y2="563" gradientUnits="userSpaceOnUse">
<stop stop-color="#9033EA"/>
<stop offset="1" stop-color="#483EB7"/>
</linearGradient>
</defs>
</svg>
