<svg width="1127" height="864" viewBox="0 0 1127 864" fill="none" xmlns="http://www.w3.org/2000/svg">
<path opacity="0.7" fill-rule="evenodd" clip-rule="evenodd" d="M581.168 466.081C571.235 471.765 558.997 471.765 549.063 466.081L444.099 406C434.165 400.313 428.046 389.807 428.046 378.435V258.273C428.046 246.902 434.165 236.394 444.099 230.709L549.063 170.628C558.997 164.942 571.235 164.942 581.168 170.628L686.131 230.709C696.064 236.394 702.183 246.902 702.183 258.273V378.435C702.183 389.807 696.064 400.313 686.131 406L581.168 466.081Z" fill="white" fill-opacity="0.0588235"/>
<path fill-rule="evenodd" clip-rule="evenodd" d="M464.812 569.685C445.343 569.471 427.238 558.451 417.316 540.774L312.486 353.969C302.566 336.29 302.337 314.642 311.886 297.176L412.791 112.607C422.34 95.1402 440.216 84.5101 459.685 84.7235L665.419 86.9593C684.89 87.1696 702.995 98.1898 712.915 115.87L817.742 302.673C827.664 320.35 827.892 342 818.343 359.466L717.438 544.036C707.889 561.502 690.015 572.13 670.544 571.919L464.812 569.685Z" fill="white" fill-opacity="0.0509804"/>
<path fill-rule="evenodd" clip-rule="evenodd" d="M692.242 660.164C672.29 680.329 643.474 688.46 616.647 681.495L333.168 607.869C306.34 600.9 285.579 579.895 278.703 552.76L206.044 266.027C199.167 238.893 207.221 209.753 227.173 189.588L437.993 -23.5185C457.944 -43.6882 486.76 -51.8192 513.588 -44.8499L797.063 28.7778C823.89 35.7426 844.651 56.7513 851.528 83.8858L924.187 370.619C931.063 397.754 923.008 426.889 903.057 447.059L692.242 660.164Z" fill="white" fill-opacity="0.0509804"/>
<path fill-rule="evenodd" clip-rule="evenodd" d="M440.337 711.812C406.627 715.622 373.021 700.591 352.173 672.38L131.901 374.249C111.056 346.033 106.139 308.929 119.003 276.903L254.942 -61.5171C267.807 -93.543 296.497 -115.621 330.207 -119.431L686.419 -159.721C720.13 -163.536 753.737 -148.505 774.582 -120.289L994.85 177.839C1015.7 206.05 1020.61 243.159 1007.75 275.185L871.809 613.605C858.945 645.631 830.256 667.705 796.544 671.52L440.337 711.812Z" fill="white" fill-opacity="0.0392157"/>
<path opacity="0.8" fill-rule="evenodd" clip-rule="evenodd" d="M603.527 329.2H600.976C592.962 306.728 584.922 284.28 576.908 261.863H551.908C543.785 284.526 535.744 306.972 527.704 329.446H525.371C517.221 306.754 509.071 284.064 501.193 262.162H471.336C485.854 303.38 500.014 343.565 514.174 383.75H538.818L563.215 315.759H565.685C573.835 338.559 581.959 361.387 589.944 383.695H614.643C628.857 343.347 643.017 303.136 657.48 262.053H627.595C619.61 284.389 611.568 306.782 603.527 329.2Z" fill="white" fill-opacity="0.101961"/>
</svg>
