<svg width="697" height="80" viewBox="0 0 697 80" fill="none" xmlns="http://www.w3.org/2000/svg">
<path d="M686.725 12.0737V31.3551C686.634 47.579 677.497 53.3688 663.111 53.1057L437.933 53.1057C421.163 53.0454 414.506 62.5916 414.722 78.6676" stroke="white" stroke-linecap="round" stroke-linejoin="round" stroke-dasharray="3 3"/>
<path d="M10.512 12.0737L10.512 31.3551C10.6025 47.579 19.7403 53.3688 34.1263 53.1057L259.304 53.1057C276.074 53.0454 282.731 62.5916 282.515 78.6675" stroke="white" stroke-linecap="round" stroke-linejoin="round" stroke-dasharray="3 3"/>
<path d="M355.251 11.4229V79.452" stroke="white" stroke-dasharray="3 3"/>
<ellipse cx="354.251" cy="10.4224" rx="10.0031" ry="10.0043" fill="#90C418"/>
<ellipse cx="354.251" cy="10.4224" rx="4.00127" ry="4.00172" fill="white"/>
<ellipse cx="10.1427" cy="10.4224" rx="10.0031" ry="10.0043" fill="#90C418"/>
<ellipse cx="10.1426" cy="10.4224" rx="4.00126" ry="4.00172" fill="white"/>
<ellipse cx="686.355" cy="10.4224" rx="10.0031" ry="10.0043" fill="#90C418"/>
<ellipse cx="686.355" cy="10.4224" rx="4.00125" ry="4.00172" fill="white"/>
</svg>
