<svg width="535" height="317" viewBox="0 0 535 317" fill="none" xmlns="http://www.w3.org/2000/svg">
<path d="M266.5 80L266.75 316.938" stroke="#E2E2E2"/>
<path d="M399.5 80L399.75 316.938" stroke="#E2E2E2"/>
<path d="M132 80L132.5 316.938" stroke="#E2E2E2"/>
<path d="M0 197.527H535" stroke="#E2E2E2"/>
<ellipse cx="87.591" cy="111.953" rx="5.45986" ry="5.46343" fill="#F2F2F2"/>
<ellipse cx="94.9" cy="121.028" rx="9.07041" ry="9.07634" stroke="#FA5A28"/>
<ellipse cx="40.3895" cy="116.007" rx="13.3855" ry="13.3942" stroke="#FA5A28"/>
<rect x="31.231" y="160.595" width="38.219" height="8.10702" rx="4.05351" fill="#F2F2F2"/>
<path d="M76.4334 168.04L76.4335 168.04L79.0666 165.474L78.7177 165.116L82.6673 161.267L83.0163 161.626L88.2825 156.494L87.9336 156.136L91.8832 152.288L92.2322 152.646L94.8653 150.08L94.5163 149.722L94.8653 150.08C95.3937 149.565 95.8356 148.983 96.1842 148.355L95.7471 148.112C96.2439 147.218 96.5376 146.226 96.6058 145.211L97.1047 145.245C97.1531 144.525 97.0959 143.795 96.9259 143.077L96.0889 139.542L95.6024 139.658L94.347 134.356L94.8335 134.24L93.1597 127.171L92.6731 127.287L91.4177 121.985L91.9043 121.87L91.0673 118.335C90.899 117.624 90.6274 116.956 90.2682 116.348L89.8376 116.602C89.3259 115.735 88.6237 114.999 87.7846 114.451L88.0581 114.032C87.4647 113.645 86.8079 113.344 86.1045 113.148C86.1044 113.148 86.1044 113.148 86.1044 113.148L82.6344 112.179L82.4999 112.66L77.2949 111.207L77.4293 110.725L70.4892 108.788L70.3548 109.269L65.1497 107.816L65.2842 107.334L61.8141 106.365C61.1064 106.168 60.382 106.084 59.6648 106.108L59.6816 106.608C58.6735 106.641 57.6797 106.904 56.7761 107.375L56.5449 106.932C55.9134 107.261 55.3233 107.685 54.797 108.198L52.1638 110.764L52.5127 111.122L48.563 114.97L48.214 114.612L42.9477 119.743L43.2966 120.101L39.3469 123.95L38.9979 123.592L36.3648 126.157C35.8363 126.672 35.3943 127.255 35.0458 127.882L35.4829 128.125C34.986 129.02 34.6924 130.012 34.6242 131.027L34.1253 130.993C34.077 131.713 34.1342 132.443 34.3042 133.161L35.1411 136.695L35.6277 136.58L36.8831 141.882L36.3965 141.997L38.0704 149.066L38.557 148.951L39.8124 154.253L39.3258 154.368L40.1627 157.903C40.331 158.613 40.6027 159.281 40.9619 159.89L41.3925 159.636C41.9041 160.503 42.6064 161.238 43.4455 161.787L43.172 162.205C43.7654 162.593 44.4221 162.893 45.1255 163.09L45.26 162.608L45.1256 163.09L48.5957 164.059L48.7301 163.577L53.9353 165.031L53.8008 165.512L60.7411 167.45L60.8755 166.968L66.0807 168.422L65.9462 168.903L69.4163 169.872L69.4164 169.872C70.1241 170.07 70.8484 170.154 71.5656 170.129L71.5489 169.63C72.5569 169.596 73.5506 169.334 74.4543 168.862L74.6855 169.306C75.3169 168.976 75.9071 168.552 76.4334 168.04Z" fill="white" stroke="#FA5A28" stroke-dasharray="8 6"/>
<path fill-rule="evenodd" clip-rule="evenodd" d="M52.6876 147L56.2267 148.523L60.3304 147L56.509 145.348L52.6876 147ZM50.6357 154.848L56.2266 157.327V149.607L50.7638 147.413L50.6357 154.848ZM57.2017 149.35V156.629L62.2542 154.564V147.413L57.2017 149.35ZM64.4341 125.934L67.9994 127.457L72.1031 125.934L68.2817 124.281L64.4341 125.934ZM62.9469 133.912L67.717 135.306L67.8713 128.542L62.9469 126.477V133.912ZM69.1024 128.826V136.132L73.6165 134.067V126.89H73.6165L69.1024 128.826ZM46.3909 136.398L49.9299 137.922L54.0336 136.398L50.2122 134.746L46.3909 136.398ZM44.3391 144.247L49.93 146.725V139.006L44.4672 136.812L44.3391 144.247ZM50.905 138.748V146.028L55.9575 143.962V136.812L50.905 138.748ZM58.702 136.124L62.2411 137.647L66.3448 136.124L62.5234 134.472L58.702 136.124ZM56.6501 143.972L62.241 146.451V138.732L56.7782 136.537L56.6501 143.972ZM63.2161 138.474V145.753L68.2685 143.688V136.537L63.2161 138.474ZM76.4851 125.933L80.0241 127.457L84.1278 125.933L80.3064 124.281L76.4851 125.933ZM74.4332 133.782L80.0241 136.26V128.542L74.5612 126.347L74.4332 133.782ZM80.999 128.283V135.563L86.0515 133.498V126.347L80.999 128.283Z" fill="#F7A80D"/>
<rect x="166.947" y="161.656" width="38.219" height="8.10702" rx="4.05351" fill="#F2F2F2"/>
<ellipse cx="176.105" cy="117.068" rx="13.3855" ry="13.3942" stroke="#FA5A28"/>
<ellipse cx="230.616" cy="122.09" rx="9.07041" ry="9.07634" stroke="#FA5A28"/>
<ellipse cx="223.307" cy="113.014" rx="5.45986" ry="5.46343" fill="#F2F2F2"/>
<path d="M211.608 169.101L211.608 169.101L214.241 166.536L213.892 166.177L217.842 162.329L218.19 162.687L223.457 157.556L223.108 157.198L227.057 153.349L227.406 153.708L230.039 151.142L229.691 150.784L230.039 151.142C230.568 150.627 231.01 150.044 231.358 149.417L230.921 149.174C231.418 148.28 231.712 147.287 231.78 146.273L232.279 146.306C232.327 145.587 232.27 144.856 232.1 144.138L231.263 140.604L230.777 140.719L229.521 135.417L230.008 135.302L228.334 128.233L227.847 128.348L226.592 123.046L227.078 122.931L226.242 119.397C226.073 118.686 225.802 118.018 225.442 117.409L225.012 117.663C224.5 116.797 223.798 116.061 222.959 115.513L223.232 115.094C222.639 114.706 221.982 114.406 221.279 114.209C221.279 114.209 221.279 114.209 221.279 114.209L217.809 113.24L217.674 113.722L212.469 112.269L212.604 111.787L205.663 109.849L205.529 110.331L200.324 108.877L200.458 108.396L196.988 107.427C196.281 107.229 195.556 107.145 194.839 107.169L194.856 107.669C193.848 107.703 192.854 107.965 191.95 108.437L191.719 107.993C191.088 108.323 190.497 108.747 189.971 109.26L187.338 111.825L187.687 112.183L183.737 116.032L183.388 115.674L178.122 120.805L178.471 121.163L174.521 125.011L174.172 124.653L171.539 127.219C171.01 127.734 170.569 128.316 170.22 128.944L170.657 129.187C170.16 130.081 169.867 131.073 169.798 132.088L169.3 132.055C169.251 132.774 169.308 133.505 169.478 134.222L170.315 137.757L170.802 137.642L172.057 142.944L171.571 143.059L173.245 150.128L173.731 150.013L174.987 155.314L174.5 155.43L175.337 158.964C175.505 159.675 175.777 160.343 176.136 160.952L176.567 160.697C177.078 161.564 177.781 162.3 178.62 162.848L178.346 163.267C178.94 163.654 179.596 163.955 180.3 164.151L180.434 163.67L180.3 164.151L183.77 165.12L183.904 164.639L189.109 166.092L188.975 166.574L195.915 168.512L196.05 168.03L201.255 169.483L201.12 169.965L204.591 170.934L204.591 170.934C205.298 171.131 206.023 171.215 206.74 171.191L206.723 170.691C207.731 170.657 208.725 170.395 209.629 169.924L209.86 170.367C210.491 170.038 211.081 169.614 211.608 169.101Z" fill="white" stroke="#FA5A28" stroke-dasharray="8 6"/>
<path fill-rule="evenodd" clip-rule="evenodd" d="M186.32 129.292V150.696L188.474 151.908L188.487 151.89V128.089L188.474 128.072L186.32 129.292Z" fill="#8C3123"/>
<path fill-rule="evenodd" clip-rule="evenodd" d="M188.487 151.908V128.072L201.488 131.111V148.801L188.487 151.908Z" fill="#E05243"/>
<path fill-rule="evenodd" clip-rule="evenodd" d="M201.424 144.324L201.458 144.244L201.488 135.186L201.424 135.115L196.071 135.808V143.621L201.424 144.324Z" fill="#8C3123"/>
<path fill-rule="evenodd" clip-rule="evenodd" d="M201.488 148.83L213.928 151.908L213.947 151.876L213.947 128.094L213.927 128.072L201.488 131.145V148.83" fill="#8C3123"/>
<path fill-rule="evenodd" clip-rule="evenodd" d="M201.488 144.324V135.115L206.905 135.808V143.621L201.488 144.324Z" fill="#E05243"/>
<path fill-rule="evenodd" clip-rule="evenodd" d="M201.487 132.948L196.071 132.059L201.48 130.781L206.905 132.059L201.487 132.948Z" fill="#5E1F18"/>
<path fill-rule="evenodd" clip-rule="evenodd" d="M201.487 145.949L196.071 147.024L201.481 148.658L206.905 147.024L201.487 145.949Z" fill="#F2B0A9"/>
<path fill-rule="evenodd" clip-rule="evenodd" d="M201.445 130.534L201.488 130.521V121.608L201.445 121.572L196.071 124.261V131.865L201.445 130.534Z" fill="#8C3123"/>
<path fill-rule="evenodd" clip-rule="evenodd" d="M201.488 130.534V121.572L206.905 124.261V131.865L201.488 130.534Z" fill="#E05243"/>
<path fill-rule="evenodd" clip-rule="evenodd" d="M196.071 155.179V147.574L201.409 148.904L201.488 148.994L201.467 157.712L201.409 157.867L196.071 155.179Z" fill="#8C3123"/>
<path fill-rule="evenodd" clip-rule="evenodd" d="M200.946 157.869L206.495 155.142V147.428L200.946 148.777V157.869ZM216.115 129.276V150.365L213.67 151.566V128.074L216.115 129.276Z" fill="#E05243"/>
<ellipse cx="355.198" cy="114.615" rx="5.45986" ry="5.46343" fill="#F2F2F2"/>
<rect x="298.838" y="163.257" width="38.219" height="8.10702" rx="4.05351" fill="#F2F2F2"/>
<ellipse cx="362.507" cy="123.691" rx="9.07041" ry="9.07634" stroke="#FA5A28"/>
<ellipse cx="307.996" cy="118.668" rx="13.3855" ry="13.3942" stroke="#FA5A28"/>
<path d="M344.04 170.16L344.04 170.16L346.673 167.594L346.324 167.236L350.274 163.388L350.623 163.746L355.889 158.615L355.54 158.256L359.49 154.408L359.839 154.766L362.472 152.2L362.123 151.842L362.472 152.2C363 151.686 363.442 151.103 363.791 150.475L363.354 150.233C363.85 149.338 364.144 148.346 364.212 147.331L364.711 147.365C364.76 146.645 364.702 145.915 364.532 145.197L363.695 141.662L363.209 141.778L361.953 136.476L362.44 136.361L360.766 129.292L360.28 129.407L359.024 124.105L359.511 123.99L358.674 120.455C358.505 119.744 358.234 119.076 357.875 118.468L357.444 118.722C356.932 117.855 356.23 117.119 355.391 116.571L355.665 116.153C355.071 115.765 354.414 115.464 353.711 115.268C353.711 115.268 353.711 115.268 353.711 115.268L350.241 114.299L350.106 114.781L344.901 113.327L345.036 112.846L338.096 110.908L337.961 111.389L332.756 109.936L332.891 109.454L329.421 108.485C328.713 108.288 327.988 108.204 327.271 108.228L327.288 108.728C326.28 108.762 325.286 109.024 324.382 109.495L324.151 109.052C323.52 109.381 322.93 109.805 322.403 110.318L319.77 112.884L320.119 113.242L316.169 117.09L315.82 116.732L310.554 121.863L310.903 122.222L306.953 126.07L306.604 125.712L303.971 128.277C303.443 128.792 303.001 129.375 302.652 130.002L303.089 130.245C302.592 131.14 302.299 132.132 302.231 133.147L301.732 133.113C301.683 133.833 301.741 134.563 301.911 135.281L302.748 138.815L303.234 138.7L304.49 144.002L304.003 144.117L305.677 151.186L306.163 151.071L307.419 156.373L306.932 156.488L307.769 160.023C307.937 160.733 308.209 161.402 308.568 162.01L308.999 161.756C309.511 162.623 310.213 163.358 311.052 163.907L310.778 164.325C311.372 164.713 312.029 165.014 312.732 165.21L312.866 164.728L312.732 165.21L316.202 166.179L316.337 165.697L321.542 167.151L321.407 167.632L328.347 169.57L328.482 169.089L333.687 170.542L333.553 171.024L337.023 171.993L337.023 171.993C337.731 172.19 338.455 172.274 339.172 172.25L339.155 171.75C340.163 171.716 341.157 171.454 342.061 170.982L342.292 171.426C342.923 171.097 343.514 170.673 344.04 170.16Z" fill="white" stroke="#FA5A28" stroke-dasharray="8 6"/>
<path fill-rule="evenodd" clip-rule="evenodd" d="M343.481 128.387L346.66 127.558L346.684 127.593L346.764 147.032L346.66 147.138L346.005 147.166L343.518 146.774L343.481 146.675V128.387ZM325.095 148.488L325.107 148.489L333.498 150.959L333.52 150.975L333.556 151.005L333.544 158.404L333.52 158.436L325.095 154.291V148.488Z" fill="#7A3E65"/>
<path fill-rule="evenodd" clip-rule="evenodd" d="M343.569 146.518L333.574 148.949L328.556 147.719L325.095 148.345L333.56 150.851L346.625 147.259L346.764 146.984L343.569 146.518" fill="#CFB2C1"/>
<path fill-rule="evenodd" clip-rule="evenodd" d="M341.807 131.051L333.514 128.648L333.423 128.683L333.34 128.641L320.291 132.394L320.219 132.481L320.324 132.538L323.308 132.974L323.414 132.939L333.409 130.551L338.428 131.759L341.888 131.144L341.807 131.051Z" fill="#512843"/>
<path fill-rule="evenodd" clip-rule="evenodd" d="M320.348 151.935L320.342 151.916L320.219 132.576L320.348 132.433L323.47 132.895V151.158L320.348 151.935Z" fill="#C17B9E"/>
<path fill-rule="evenodd" clip-rule="evenodd" d="M327.804 143.671L333.694 144.351L333.739 144.286L333.763 135.216L333.694 135.142L327.804 135.822V143.671" fill="#7A3E65"/>
<path fill-rule="evenodd" clip-rule="evenodd" d="M333.221 144.35V135.199L338.689 135.875V143.675L333.221 144.35ZM333.221 128.544V121.057L341.347 125.216V131.04L333.221 128.544Z" fill="#C17B9E"/>
<path fill-rule="evenodd" clip-rule="evenodd" d="M317.511 128.789V150.689L320.238 151.935V132.373L333.762 128.53V121.057L317.511 128.789Z" fill="#7A3E65"/>
<path fill-rule="evenodd" clip-rule="evenodd" d="M346.746 147.138L333.221 150.975V158.436L349.472 150.716V128.853L346.746 127.558V147.138Z" fill="#C17B9E"/>
<ellipse cx="493.669" cy="114.615" rx="5.45986" ry="5.46343" fill="#F2F2F2"/>
<rect x="437.309" y="163.257" width="38.219" height="8.10702" rx="4.05351" fill="#F2F2F2"/>
<ellipse cx="500.978" cy="123.691" rx="9.07041" ry="9.07634" stroke="#FA5A28"/>
<ellipse cx="446.468" cy="118.668" rx="13.3855" ry="13.3942" stroke="#FA5A28"/>
<path d="M482.512 170.16L482.512 170.16L485.145 167.594L484.796 167.236L488.746 163.388L489.095 163.746L494.361 158.615L494.012 158.256L497.962 154.408L498.311 154.766L500.944 152.2L500.595 151.842L500.944 152.2C501.472 151.686 501.914 151.103 502.263 150.475L501.825 150.233C502.322 149.338 502.616 148.346 502.684 147.331L503.183 147.365C503.231 146.645 503.174 145.915 503.004 145.197L502.167 141.662L501.681 141.778L500.425 136.476L500.912 136.361L499.238 129.292L498.751 129.407L497.496 124.105L497.983 123.99L497.146 120.455C496.977 119.744 496.706 119.076 496.347 118.468L495.916 118.722C495.404 117.855 494.702 117.119 493.863 116.571L494.136 116.153C493.543 115.765 492.886 115.464 492.183 115.268C492.183 115.268 492.183 115.268 492.183 115.268L488.713 114.299L488.578 114.781L483.373 113.327L483.508 112.846L476.568 110.908L476.433 111.389L471.228 109.936L471.363 109.454L467.893 108.485C467.185 108.288 466.46 108.204 465.743 108.228L465.76 108.728C464.752 108.762 463.758 109.024 462.854 109.495L462.623 109.052C461.992 109.381 461.402 109.805 460.875 110.318L458.242 112.884L458.591 113.242L454.641 117.09L454.292 116.732L449.026 121.863L449.375 122.222L445.425 126.07L445.076 125.712L442.443 128.277C441.915 128.792 441.473 129.375 441.124 130.002L441.561 130.245C441.064 131.14 440.771 132.132 440.703 133.147L440.204 133.113C440.155 133.833 440.213 134.563 440.383 135.281L441.22 138.815L441.706 138.7L442.961 144.002L442.475 144.117L444.149 151.186L444.635 151.071L445.891 156.373L445.404 156.488L446.241 160.023C446.409 160.733 446.681 161.402 447.04 162.01L447.471 161.756C447.983 162.623 448.685 163.358 449.524 163.907L449.25 164.325C449.844 164.713 450.5 165.014 451.204 165.21L451.338 164.728L451.204 165.21L454.674 166.179L454.809 165.697L460.014 167.151L459.879 167.632L466.819 169.57L466.954 169.089L472.159 170.542L472.025 171.024L475.495 171.993L475.495 171.993C476.202 172.19 476.927 172.274 477.644 172.25L477.627 171.75C478.635 171.716 479.629 171.454 480.533 170.982L480.764 171.426C481.395 171.097 481.985 170.673 482.512 170.16Z" fill="white" stroke="#FA5A28" stroke-dasharray="8 6"/>
<path d="M487.5 129.965L483.54 125.6L477.06 140L483.54 154.445L487.5 150.08V146.3L486.195 147.2V145.355L487.5 144.68V140.855L486.195 140.9V139.19L487.5 139.235V135.5L486.195 134.825V133.475L487.5 133.745V129.965Z" fill="#2E73B8"/>
<path d="M483.54 154.445V125.555L476.475 122L468.465 140.315L476.475 158L483.54 154.445Z" fill="#5294CF"/>
<path d="M476.475 158V122H466.575L461.49 140.315L466.575 158H476.475Z" fill="#2E73B8"/>
<path d="M459.465 154.445L457.215 140.315L459.465 125.555L466.575 122V158L459.465 154.445Z" fill="#205B99"/>
<path d="M483.495 146.615L476.43 148.145H466.53L459.465 146.57V141.125L466.575 141.665H476.475L483.54 141.125L487.5 140.81H486.195V139.19H487.5L483.54 138.875L476.475 138.65H466.62L459.465 138.83V133.34H459.555L466.62 131.675H476.475L483.54 133.34L486.195 134.78V133.88L487.5 133.79L483.54 131L476.475 128.705H466.62L459.465 131.045V125.555L456 129.92V133.745L456.99 133.88V134.78L456 135.365V139.19H456.99V140.81H456V144.59L456.99 145.175V146.12L456 146.255V150.035L459.465 154.4V148.955L466.575 151.16H476.475L483.54 148.955L487.5 146.255L486.195 146.165C486.15 146.12 486.15 145.31 486.15 145.31L483.495 146.615Z" fill="#19486F"/>
<ellipse cx="37.304" cy="248.856" rx="5.45986" ry="5.46343" fill="#F2F2F2"/>
<rect x="33.2531" y="279.346" width="38.219" height="8.10702" rx="4.05351" fill="#F2F2F2"/>
<ellipse cx="42.4116" cy="234.757" rx="13.3855" ry="13.3942" stroke="#FA5A28"/>
<ellipse cx="96.9221" cy="239.779" rx="9.07041" ry="9.07634" stroke="#FA5A28"/>
<ellipse cx="89.6131" cy="230.704" rx="5.45986" ry="5.46343" fill="#F2F2F2"/>
<path d="M75.7469 285.671L75.747 285.671L78.3801 283.106L78.0311 282.748L81.9808 278.899L82.3297 279.257L87.596 274.126L87.247 273.768L91.1967 269.92L91.5456 270.278L94.1787 267.712L93.8298 267.354L94.1788 267.712C94.7072 267.197 95.1491 266.615 95.4977 265.987L95.0606 265.744C95.5574 264.85 95.8511 263.858 95.9193 262.843L96.4182 262.877C96.4666 262.157 96.4093 261.427 96.2393 260.709L95.4024 257.174L94.9159 257.289L93.6605 251.988L94.147 251.872L92.4731 244.803L91.9866 244.918L90.7312 239.617L91.2177 239.501L90.3808 235.967C90.2125 235.256 89.9409 234.588 89.5817 233.98L89.1511 234.234C88.6394 233.367 87.9371 232.631 87.098 232.083L87.3715 231.664C86.7782 231.277 86.1214 230.976 85.4179 230.78C85.4179 230.78 85.4179 230.78 85.4179 230.78L81.9479 229.811L81.8134 230.292L76.6083 228.839L76.7428 228.357L69.8027 226.419L69.6683 226.901L64.4632 225.448L64.5977 224.966L61.1276 223.997C60.4199 223.799 59.6955 223.716 58.9783 223.74L58.995 224.24C57.9869 224.273 56.9932 224.536 56.0895 225.007L55.8583 224.564C55.2269 224.893 54.6368 225.317 54.1104 225.83L51.4773 228.395L51.8262 228.754L47.8764 232.602L47.5275 232.244L42.2612 237.375L42.6101 237.733L38.6603 241.582L38.3114 241.224L35.6783 243.789C35.1498 244.304 34.7078 244.887 34.3592 245.514L34.7963 245.757C34.2995 246.651 34.0059 247.644 33.9377 248.658L33.4388 248.625C33.3905 249.344 33.4477 250.075 33.6177 250.793L34.4546 254.327L34.9412 254.212L36.1966 259.514L35.71 259.629L37.3839 266.698L37.8704 266.583L39.1258 271.885L38.6393 272L39.4762 275.534C39.6445 276.245 39.9162 276.913 40.2754 277.522L40.7059 277.268C41.2176 278.134 41.9199 278.87 42.759 279.418L42.4855 279.837C43.0788 280.225 43.7356 280.525 44.439 280.722L44.5735 280.24L44.439 280.722L47.9091 281.691L48.0436 281.209L53.2488 282.662L53.1143 283.144L60.0545 285.082L60.189 284.6L65.3942 286.054L65.2597 286.535L68.7298 287.504L68.7298 287.504C69.4375 287.702 70.1619 287.785 70.8791 287.761L70.8623 287.262C71.8704 287.228 72.8641 286.965 73.7678 286.494L73.9989 286.938C74.6304 286.608 75.2205 286.184 75.7469 285.671Z" fill="white" stroke="#FA5A28" stroke-dasharray="8 6"/>
<path fill-rule="evenodd" clip-rule="evenodd" d="M65.3637 256.567C63.7369 258.954 62.1106 261.341 60.4849 263.727C58.9724 265.947 57.4584 268.165 55.9429 270.382C55.892 270.453 55.8135 270.498 55.727 270.508C53.5873 270.489 51.448 270.466 49.3094 270.438C49.2856 270.438 49.2611 270.431 49.2145 270.424C49.2318 270.38 49.2518 270.336 49.2746 270.294C50.767 267.988 52.2593 265.682 53.7517 263.376C55.0754 261.333 56.3999 259.29 57.7252 257.248C59.1939 254.979 60.6617 252.708 62.1288 250.436C62.3455 250.101 62.5708 249.772 62.7764 249.431C62.8291 249.34 62.845 249.232 62.8207 249.129C62.4253 247.873 62.0221 246.619 61.6196 245.366C61.4472 244.829 61.2669 244.295 61.1056 243.755C61.0534 243.582 60.9672 243.529 60.7893 243.53C59.445 243.535 58.1087 243.534 56.7684 243.534C56.5138 243.534 56.513 243.534 56.513 243.283C56.513 241.64 56.513 239.998 56.5082 238.355C56.5082 238.172 56.5683 238.131 56.7407 238.131C59.4392 238.136 62.1383 238.136 64.8379 238.131C64.9676 238.114 65.0894 238.196 65.1225 238.323C66.5459 241.891 67.9692 245.459 69.3925 249.025C71.0531 253.184 72.7136 257.343 74.3742 261.503C74.8897 262.795 75.4092 264.085 75.9193 265.379C75.9802 265.537 76.0434 265.567 76.2031 265.518C77.6178 265.082 79.0356 264.658 80.4494 264.221C80.6273 264.166 80.6922 264.203 80.7475 264.379C81.2299 265.89 81.7217 267.398 82.2104 268.908C82.227 268.96 82.2396 269.012 82.2594 269.085C82.1582 269.122 82.0633 269.164 81.966 269.191C78.7504 270.206 75.5366 271.223 72.3246 272.24C72.1712 272.288 72.1253 272.236 72.0739 272.107C71.0929 269.629 70.1095 267.152 69.1237 264.675C68.1595 262.251 67.1948 259.826 66.2296 257.401C66.0849 257.037 65.9425 256.671 65.7978 256.307C65.7749 256.245 65.7433 256.19 65.6974 256.094C65.5717 256.272 65.4657 256.419 65.3637 256.567Z" fill="#FA7E14"/>
<ellipse cx="174.182" cy="234.684" rx="13.3855" ry="13.3942" stroke="#FA5A28"/>
<ellipse cx="228.693" cy="239.707" rx="9.07041" ry="9.07634" stroke="#FA5A28"/>
<rect x="165.024" y="279.273" width="38.219" height="8.10702" rx="4.05351" fill="#F2F2F2"/>
<ellipse cx="221.384" cy="230.631" rx="5.45986" ry="5.46343" fill="#F2F2F2"/>
<path d="M210.768 285.634L210.768 285.634L213.401 283.069L213.052 282.711L217.002 278.862L217.351 279.22L222.617 274.089L222.268 273.731L226.218 269.883L226.567 270.241L229.2 267.675L228.851 267.317L229.2 267.675C229.728 267.16 230.17 266.578 230.519 265.95L230.081 265.707C230.578 264.813 230.872 263.82 230.94 262.806L231.439 262.839C231.487 262.12 231.43 261.389 231.26 260.672L230.423 257.137L229.937 257.252L228.681 251.95L229.168 251.835L227.494 244.766L227.007 244.881L225.752 239.58L226.239 239.464L225.402 235.93C225.233 235.219 224.962 234.551 224.603 233.942L224.172 234.197C223.66 233.33 222.958 232.594 222.119 232.046L222.392 231.627C221.799 231.239 221.142 230.939 220.439 230.743C220.439 230.743 220.439 230.743 220.439 230.743L216.969 229.774L216.834 230.255L211.629 228.802L211.764 228.32L204.824 226.382L204.689 226.864L199.484 225.41L199.619 224.929L196.148 223.96C195.441 223.762 194.716 223.679 193.999 223.703L194.016 224.202C193.008 224.236 192.014 224.499 191.11 224.97L190.879 224.526C190.248 224.856 189.658 225.28 189.131 225.793L186.498 228.358L186.847 228.716L182.897 232.565L182.548 232.207L177.282 237.338L177.631 237.696L173.681 241.545L173.332 241.186L170.699 243.752C170.171 244.267 169.729 244.85 169.38 245.477L169.817 245.72C169.32 246.614 169.027 247.607 168.959 248.621L168.46 248.588C168.411 249.307 168.469 250.038 168.639 250.756L169.475 254.29L169.962 254.175L171.217 259.477L170.731 259.592L172.405 266.661L172.891 266.546L174.147 271.848L173.66 271.963L174.497 275.497C174.665 276.208 174.937 276.876 175.296 277.485L175.727 277.231C176.238 278.097 176.941 278.833 177.78 279.381L177.506 279.8C178.1 280.188 178.756 280.488 179.46 280.685L179.594 280.203L179.46 280.685L182.93 281.654L183.064 281.172L188.27 282.625L188.135 283.107L195.075 285.045L195.21 284.563L200.415 286.017L200.281 286.498L203.751 287.467L203.751 287.467C204.458 287.665 205.183 287.748 205.9 287.724L205.883 287.224C206.891 287.191 207.885 286.928 208.789 286.457L209.02 286.9C209.651 286.571 210.241 286.147 210.768 285.634Z" fill="white" stroke="#FA5A28" stroke-dasharray="8 6"/>
<path fill-rule="evenodd" clip-rule="evenodd" d="M214.563 250.047L218.808 251.102L218.823 251.113L210.997 251.672L206.364 251.102L206.371 251.093L214.563 250.047Z" fill="#5E1F18"/>
<path fill-rule="evenodd" clip-rule="evenodd" d="M206.364 251.13L214.434 250.497L214.489 250.416L214.489 240.41L214.434 240.296L206.364 242.405V251.13" fill="#8C3123"/>
<path fill-rule="evenodd" clip-rule="evenodd" d="M214.489 250.488L214.49 240.296L218.823 242.407L218.823 251.13L214.489 250.488Z" fill="#E05243"/>
<path fill-rule="evenodd" clip-rule="evenodd" d="M206.483 258.721L214.557 259.256L218.677 258.721L218.823 258.643L210.997 258.173L206.364 258.639L206.483 258.721Z" fill="#F2B0A9"/>
<path fill-rule="evenodd" clip-rule="evenodd" d="M206.364 258.715L214.464 259.319L214.489 259.353L214.483 269.496L214.463 269.549L206.364 267.454V258.715" fill="#8C3123"/>
<path fill-rule="evenodd" clip-rule="evenodd" d="M214.49 259.316L214.489 269.549L218.823 267.448V258.715L214.49 259.316Z" fill="#E05243"/>
<path fill-rule="evenodd" clip-rule="evenodd" d="M187.331 250.428L183.097 251.155L183.07 251.177L190.949 251.663L195.528 251.177L195.484 251.151V251.151L187.331 250.428Z" fill="#5E1F18"/>
<path fill-rule="evenodd" clip-rule="evenodd" d="M187.327 250.531L187.452 250.439V239.886L187.327 239.763L183.07 241.987V251.176L187.327 250.531Z" fill="#8C3123"/>
<path fill-rule="evenodd" clip-rule="evenodd" d="M187.327 250.531V239.763L195.529 241.983L195.528 251.176L187.327 250.531Z" fill="#E05243"/>
<path fill-rule="evenodd" clip-rule="evenodd" d="M195.34 258.825L187.327 259.447L183.205 258.825L183.069 258.682L190.949 258.181L195.528 258.682L195.34 258.825Z" fill="#F2B0A9"/>
<path fill-rule="evenodd" clip-rule="evenodd" d="M187.326 259.309L187.435 259.447L187.446 269.891L187.327 270.082L183.07 267.872L183.069 258.683L187.326 259.309Z" fill="#8C3123"/>
<path fill-rule="evenodd" clip-rule="evenodd" d="M187.326 259.309L187.327 270.082L195.528 267.877V258.683L187.326 259.309Z" fill="#E05243"/>
<path fill-rule="evenodd" clip-rule="evenodd" d="M200.986 259.259L192.285 260.101L192.408 260.204L200.943 261.547L209.478 260.204L209.601 260.101L200.986 259.259Z" fill="#F2B0A9"/>
<path fill-rule="evenodd" clip-rule="evenodd" d="M192.285 260.101L200.943 261.358L201.031 261.474L201.042 276.42L200.943 276.586L192.285 272.295V260.101" fill="#8C3123"/>
<path fill-rule="evenodd" clip-rule="evenodd" d="M209.601 260.101L200.943 261.358V276.586L209.601 272.295L209.601 260.101" fill="#E05243"/>
<path fill-rule="evenodd" clip-rule="evenodd" d="M192.285 249.757L192.307 249.744L200.943 248.415L209.575 249.747L209.601 249.757L200.986 250.59L192.285 249.757Z" fill="#5E1F18"/>
<path fill-rule="evenodd" clip-rule="evenodd" d="M200.943 248.505L200.985 248.467L200.966 233.278L200.943 233.255L192.285 237.55V249.756L200.943 248.505Z" fill="#8C3123"/>
<path fill-rule="evenodd" clip-rule="evenodd" d="M200.943 248.505V233.255L209.601 237.55V249.756L200.943 248.505Z" fill="#E05243"/>
<ellipse cx="355.115" cy="230.127" rx="5.45986" ry="5.46343" fill="#F2F2F2"/>
<rect x="298.755" y="278.769" width="38.219" height="8.10702" rx="4.05351" fill="#F2F2F2"/>
<ellipse cx="362.424" cy="239.202" rx="9.07041" ry="9.07634" stroke="#FA5A28"/>
<ellipse cx="307.914" cy="234.179" rx="13.3855" ry="13.3942" stroke="#FA5A28"/>
<path d="M345.041 285.671L345.041 285.671L347.674 283.106L347.325 282.748L351.275 278.899L351.624 279.257L356.89 274.126L356.541 273.768L360.491 269.92L360.84 270.278L363.473 267.712L363.124 267.354L363.473 267.712C364.001 267.197 364.443 266.615 364.792 265.987L364.355 265.744C364.851 264.85 365.145 263.858 365.213 262.843L365.712 262.877C365.761 262.157 365.703 261.427 365.533 260.709L364.696 257.174L364.21 257.289L362.954 251.988L363.441 251.872L361.767 244.803L361.281 244.918L360.025 239.617L360.512 239.501L359.675 235.967C359.506 235.256 359.235 234.588 358.876 233.98L358.445 234.234C357.933 233.367 357.231 232.631 356.392 232.083L356.665 231.664C356.072 231.277 355.415 230.976 354.712 230.78C354.712 230.78 354.712 230.78 354.712 230.78L351.242 229.811L351.107 230.292L345.902 228.839L346.037 228.357L339.097 226.419L338.962 226.901L333.757 225.448L333.892 224.966L330.422 223.997C329.714 223.799 328.989 223.716 328.272 223.74L328.289 224.24C327.281 224.273 326.287 224.536 325.383 225.007L325.152 224.564C324.521 224.893 323.931 225.317 323.404 225.83L320.771 228.395L321.12 228.754L317.17 232.602L316.821 232.244L311.555 237.375L311.904 237.733L307.954 241.582L307.605 241.224L304.972 243.789C304.444 244.304 304.002 244.887 303.653 245.514L304.09 245.757C303.593 246.651 303.3 247.644 303.232 248.658L302.733 248.625C302.684 249.344 302.742 250.075 302.912 250.793L303.749 254.327L304.235 254.212L305.491 259.514L305.004 259.629L306.678 266.698L307.164 266.583L308.42 271.885L307.933 272L308.77 275.534C308.938 276.245 309.21 276.913 309.569 277.522L310 277.268C310.512 278.134 311.214 278.87 312.053 279.418L311.779 279.837C312.373 280.225 313.03 280.525 313.733 280.722L313.867 280.24L313.733 280.722L317.203 281.691L317.338 281.209L322.543 282.662L322.408 283.144L329.348 285.082L329.483 284.6L334.688 286.054L334.554 286.535L338.024 287.504L338.024 287.504C338.731 287.702 339.456 287.785 340.173 287.761L340.156 287.262C341.164 287.228 342.158 286.965 343.062 286.494L343.293 286.938C343.924 286.608 344.514 286.184 345.041 285.671Z" fill="white" stroke="#FA5A28" stroke-dasharray="8 6"/>
<path fill-rule="evenodd" clip-rule="evenodd" d="M343.008 252.755L337.469 252.444L346.631 251.672L351.553 252.444L343.008 252.755Z" fill="#634B1E"/>
<path fill-rule="evenodd" clip-rule="evenodd" d="M351.553 252.755V242.774L346.523 240.296L346.136 240.707V251.836L346.523 252.26L351.553 252.755Z" fill="#D9A740"/>
<path fill-rule="evenodd" clip-rule="evenodd" d="M337.469 242.775L346.678 240.296V252.26L337.469 252.755V242.775" fill="#886A2A"/>
<path fill-rule="evenodd" clip-rule="evenodd" d="M325.429 252.755L330.968 252.468L321.832 251.672L316.883 252.467L325.429 252.755Z" fill="#634B1E"/>
<path fill-rule="evenodd" clip-rule="evenodd" d="M316.883 252.755V242.765L321.544 240.296L321.759 240.721V251.903L321.544 252.276L316.883 252.755Z" fill="#886A2A"/>
<path fill-rule="evenodd" clip-rule="evenodd" d="M321.759 240.296V252.26L330.968 252.755V242.775L321.759 240.296Z" fill="#D9A740"/>
<path fill-rule="evenodd" clip-rule="evenodd" d="M343.012 257.637L337.478 257.981L346.593 258.878L351.551 257.981L343.012 257.637Z" fill="#FAD791"/>
<path fill-rule="evenodd" clip-rule="evenodd" d="M351.551 257.982V267.672L346.613 270.078L346.353 269.528V258.957L346.613 258.463L351.551 257.982Z" fill="#D9A740"/>
<path fill-rule="evenodd" clip-rule="evenodd" d="M337.477 267.677L346.613 270.085V258.462L337.477 257.98V267.677" fill="#886A2A"/>
<path fill-rule="evenodd" clip-rule="evenodd" d="M325.422 257.637L330.957 257.981L321.762 258.956L316.883 257.981L325.422 257.637Z" fill="#FAD791"/>
<path fill-rule="evenodd" clip-rule="evenodd" d="M316.883 257.982V267.672L321.821 270.078L322.121 269.644V258.957L321.821 258.463L316.883 257.982Z" fill="#886A2A"/>
<path fill-rule="evenodd" clip-rule="evenodd" d="M321.821 270.085V258.462L330.957 257.98V267.677L321.821 270.085Z" fill="#D9A740"/>
<path fill-rule="evenodd" clip-rule="evenodd" d="M334.286 247.864L343.196 249.122L343.963 249.562L339.636 250.034L329.823 248.644L334.286 247.864Z" fill="#634B1E"/>
<path fill-rule="evenodd" clip-rule="evenodd" d="M334.146 247.864L324.852 249.302L324.468 249.562L328.796 250.034L338.608 248.644L334.146 247.864Z" fill="#634B1E"/>
<path fill-rule="evenodd" clip-rule="evenodd" d="M334.286 262.689L343.174 261.45L343.963 260.991L339.636 260.519L329.823 261.908L334.286 262.689Z" fill="#FAD791"/>
<path fill-rule="evenodd" clip-rule="evenodd" d="M334.146 262.689L324.784 261.36L324.468 260.991L328.796 260.519L338.608 261.908L334.146 262.689Z" fill="#FAD791"/>
<path fill-rule="evenodd" clip-rule="evenodd" d="M343.963 244.732L339.399 243.244V236.922L334.216 234.339V234.339L334 234.682L333.96 275.521L334.216 276.046L339.399 273.463V267.308L343.963 265.82V260.99L339.399 261.791V248.761L343.963 249.562V244.732Z" fill="#D9A740"/>
<path fill-rule="evenodd" clip-rule="evenodd" d="M329.032 243.244L324.468 244.732V249.562L329.032 248.761V261.791L324.468 260.99V265.82L329.032 267.308V273.463L334.216 276.046V234.339L329.032 236.922V243.244Z" fill="#886A2A"/>
<ellipse cx="493.587" cy="230.127" rx="5.45986" ry="5.46343" fill="#F2F2F2"/>
<rect x="437.227" y="278.769" width="38.219" height="8.10702" rx="4.05351" fill="#F2F2F2"/>
<ellipse cx="500.896" cy="239.202" rx="9.07041" ry="9.07634" stroke="#FA5A28"/>
<ellipse cx="446.385" cy="234.179" rx="13.3855" ry="13.3942" stroke="#FA5A28"/>
<path d="M483.513 285.671L483.513 285.671L486.146 283.106L485.797 282.748L489.747 278.899L490.096 279.257L495.362 274.126L495.013 273.768L498.963 269.92L499.312 270.278L501.945 267.712L501.596 267.354L501.945 267.712C502.473 267.197 502.915 266.615 503.264 265.987L502.826 265.744C503.323 264.85 503.617 263.858 503.685 262.843L504.184 262.877C504.232 262.157 504.175 261.427 504.005 260.709L503.168 257.174L502.682 257.289L501.426 251.988L501.913 251.872L500.239 244.803L499.752 244.918L498.497 239.617L498.984 239.501L498.147 235.967C497.978 235.256 497.707 234.588 497.348 233.98L496.917 234.234C496.405 233.367 495.703 232.631 494.864 232.083L495.137 231.664C494.544 231.277 493.887 230.976 493.184 230.78C493.184 230.78 493.184 230.78 493.184 230.78L489.714 229.811L489.579 230.292L484.374 228.839L484.509 228.357L477.569 226.419L477.434 226.901L472.229 225.448L472.364 224.966L468.893 223.997C468.186 223.799 467.461 223.716 466.744 223.74L466.761 224.24C465.753 224.273 464.759 224.536 463.855 225.007L463.624 224.564C462.993 224.893 462.403 225.317 461.876 225.83L459.243 228.395L459.592 228.754L455.642 232.602L455.293 232.244L450.027 237.375L450.376 237.733L446.426 241.582L446.077 241.224L443.444 243.789C442.916 244.304 442.474 244.887 442.125 245.514L442.562 245.757C442.065 246.651 441.772 247.644 441.704 248.658L441.205 248.625C441.156 249.344 441.214 250.075 441.384 250.793L442.22 254.327L442.707 254.212L443.962 259.514L443.476 259.629L445.15 266.698L445.636 266.583L446.892 271.885L446.405 272L447.242 275.534C447.41 276.245 447.682 276.913 448.041 277.522L448.472 277.268C448.983 278.134 449.686 278.87 450.525 279.418L450.251 279.837C450.845 280.225 451.501 280.525 452.205 280.722L452.339 280.24L452.205 280.722L455.675 281.691L455.809 281.209L461.015 282.662L460.88 283.144L467.82 285.082L467.955 284.6L473.16 286.054L473.026 286.535L476.496 287.504L476.496 287.504C477.203 287.702 477.928 287.785 478.645 287.761L478.628 287.262C479.636 287.228 480.63 286.965 481.534 286.494L481.765 286.938C482.396 286.608 482.986 286.184 483.513 285.671Z" fill="white" stroke="#FA5A28" stroke-dasharray="8 6"/>
<path d="M457.548 269.987L458.427 269.78L458.582 254.157L457.548 254.105L455.375 254.261V268.849L457.548 269.987Z" fill="#9D5025"/>
<path d="M457.548 269.935V254.054L461.427 254.261V269.004L457.548 269.935Z" fill="#F58534"/>
<path d="M463.238 272.884L465.618 272.108V247.484L463.238 247.019L459.565 248.157V270.97L463.238 272.884Z" fill="#9D5025"/>
<path d="M463.238 272.884V247.019L469.549 248.26V270.815L463.238 272.884Z" fill="#F58534"/>
<path d="M483.516 265.642L487.758 266.314V247.019L483.516 247.795V265.642Z" fill="#9D5025"/>
<path d="M474.619 241.328L486.879 245.932V248.829L483.62 249.295C483.62 249.243 473.739 246.76 473.739 246.76L474.619 241.328Z" fill="#6B3B19"/>
<path d="M476.171 271.28L486.879 267.556V264.607L483.62 264.142C483.568 264.142 472.601 266.987 472.601 266.987L476.171 271.28Z" fill="#FCBF92"/>
<path d="M472.187 277.385L475.705 275.574L476.895 238.38L472.187 236L466.187 239.052V274.333L472.187 277.385Z" fill="#9D5025"/>
<path fill-rule="evenodd" clip-rule="evenodd" d="M472.188 277.385L489 268.797V244.587L472.188 236V277.385ZM477.257 267.608V245.881L486.879 248.778V264.659L477.257 267.608Z" fill="#F58534"/>
<path d="M210.107 18V6.192H213.473C214.133 6.192 214.733 6.252 215.273 6.372C215.825 6.492 216.293 6.69 216.677 6.966C217.061 7.23 217.361 7.584 217.577 8.028C217.793 8.472 217.901 9.018 217.901 9.666C217.901 10.29 217.793 10.83 217.577 11.286C217.373 11.742 217.079 12.12 216.695 12.42C216.311 12.72 215.849 12.948 215.309 13.104C214.781 13.248 214.193 13.32 213.545 13.32H211.601V18H210.107ZM211.601 12.096H213.365C214.397 12.096 215.159 11.904 215.651 11.52C216.155 11.124 216.407 10.506 216.407 9.666C216.407 8.814 216.143 8.226 215.615 7.902C215.099 7.566 214.325 7.398 213.293 7.398H211.601V12.096ZM224.659 18.216C223.915 18.216 223.231 18.072 222.607 17.784C221.995 17.496 221.467 17.088 221.023 16.56C220.579 16.02 220.231 15.372 219.979 14.616C219.739 13.848 219.619 12.99 219.619 12.042C219.619 11.094 219.739 10.248 219.979 9.504C220.231 8.748 220.579 8.112 221.023 7.596C221.467 7.068 221.995 6.666 222.607 6.39C223.231 6.114 223.915 5.976 224.659 5.976C225.403 5.976 226.081 6.12 226.693 6.408C227.317 6.684 227.851 7.086 228.295 7.614C228.751 8.13 229.099 8.766 229.339 9.522C229.591 10.266 229.717 11.106 229.717 12.042C229.717 12.99 229.591 13.848 229.339 14.616C229.099 15.372 228.751 16.02 228.295 16.56C227.851 17.088 227.317 17.496 226.693 17.784C226.081 18.072 225.403 18.216 224.659 18.216ZM224.659 16.902C225.187 16.902 225.661 16.788 226.081 16.56C226.513 16.332 226.879 16.008 227.179 15.588C227.491 15.156 227.731 14.646 227.899 14.058C228.067 13.458 228.151 12.786 228.151 12.042C228.151 11.31 228.067 10.65 227.899 10.062C227.731 9.474 227.491 8.976 227.179 8.568C226.879 8.16 226.513 7.848 226.081 7.632C225.661 7.404 225.187 7.29 224.659 7.29C224.131 7.29 223.651 7.404 223.219 7.632C222.799 7.848 222.433 8.16 222.121 8.568C221.821 8.976 221.587 9.474 221.419 10.062C221.251 10.65 221.167 11.31 221.167 12.042C221.167 12.786 221.251 13.458 221.419 14.058C221.587 14.646 221.821 15.156 222.121 15.588C222.433 16.008 222.799 16.332 223.219 16.56C223.651 16.788 224.131 16.902 224.659 16.902ZM233.446 18L230.944 6.192H232.492L233.734 12.618C233.842 13.266 233.956 13.902 234.076 14.526C234.196 15.15 234.31 15.786 234.418 16.434H234.49C234.622 15.786 234.76 15.15 234.904 14.526C235.048 13.89 235.186 13.254 235.318 12.618L236.956 6.192H238.324L239.962 12.618C240.106 13.242 240.25 13.872 240.394 14.508C240.538 15.144 240.682 15.786 240.826 16.434H240.898C241.006 15.786 241.114 15.15 241.222 14.526C241.33 13.89 241.444 13.254 241.564 12.618L242.806 6.192H244.246L241.798 18H239.998L238.216 10.89C238.108 10.434 238.006 9.99 237.91 9.558C237.826 9.114 237.736 8.664 237.64 8.208H237.568C237.472 8.664 237.37 9.114 237.262 9.558C237.166 9.99 237.07 10.434 236.974 10.89L235.228 18H233.446ZM246.301 18V6.192H253.105V7.452H247.795V11.16H252.277V12.438H247.795V16.722H253.285V18H246.301ZM255.793 18V6.192H259.483C260.083 6.192 260.635 6.252 261.139 6.372C261.655 6.48 262.093 6.666 262.453 6.93C262.825 7.194 263.113 7.536 263.317 7.956C263.521 8.376 263.623 8.892 263.623 9.504C263.623 10.428 263.383 11.166 262.903 11.718C262.423 12.27 261.775 12.648 260.959 12.852L263.965 18H262.273L259.429 13.014H257.287V18H255.793ZM257.287 11.79H259.267C260.191 11.79 260.899 11.604 261.391 11.232C261.883 10.848 262.129 10.272 262.129 9.504C262.129 8.724 261.883 8.178 261.391 7.866C260.899 7.554 260.191 7.398 259.267 7.398H257.287V11.79ZM266.041 18V6.192H272.845V7.452H267.535V11.16H272.017V12.438H267.535V16.722H273.025V18H266.041ZM275.533 18V6.192H278.485C280.309 6.192 281.695 6.696 282.643 7.704C283.591 8.712 284.065 10.158 284.065 12.042C284.065 12.978 283.945 13.818 283.705 14.562C283.465 15.294 283.111 15.918 282.643 16.434C282.175 16.938 281.599 17.328 280.915 17.604C280.231 17.868 279.445 18 278.557 18H275.533ZM277.027 16.776H278.377C279.757 16.776 280.789 16.362 281.473 15.534C282.169 14.706 282.517 13.542 282.517 12.042C282.517 10.542 282.169 9.396 281.473 8.604C280.789 7.812 279.757 7.416 278.377 7.416H277.027V16.776ZM290.211 18V6.192H293.721C294.321 6.192 294.867 6.246 295.359 6.354C295.863 6.462 296.289 6.63 296.637 6.858C296.997 7.086 297.273 7.386 297.465 7.758C297.669 8.118 297.771 8.556 297.771 9.072C297.771 9.66 297.621 10.194 297.321 10.674C297.033 11.142 296.607 11.466 296.043 11.646V11.718C296.763 11.85 297.345 12.15 297.789 12.618C298.233 13.086 298.455 13.728 298.455 14.544C298.455 15.12 298.347 15.624 298.131 16.056C297.915 16.488 297.609 16.848 297.213 17.136C296.817 17.424 296.343 17.64 295.791 17.784C295.239 17.928 294.633 18 293.973 18H290.211ZM291.705 11.214H293.451C294.459 11.214 295.185 11.04 295.629 10.692C296.073 10.344 296.295 9.87 296.295 9.27C296.295 8.586 296.061 8.1 295.593 7.812C295.137 7.524 294.447 7.38 293.523 7.38H291.705V11.214ZM291.705 16.812H293.757C294.777 16.812 295.569 16.626 296.133 16.254C296.697 15.87 296.979 15.282 296.979 14.49C296.979 13.758 296.703 13.224 296.151 12.888C295.599 12.54 294.801 12.366 293.757 12.366H291.705V16.812ZM302.455 18V13.428L298.909 6.192H300.511L302.041 9.522C302.233 9.954 302.419 10.38 302.599 10.8C302.779 11.22 302.971 11.652 303.175 12.096H303.247C303.451 11.652 303.655 11.22 303.859 10.8C304.063 10.38 304.255 9.954 304.435 9.522L305.947 6.192H307.513L303.967 13.428V18H302.455ZM309.28 11.718C308.98 11.718 308.722 11.616 308.506 11.412C308.302 11.196 308.2 10.926 308.2 10.602C308.2 10.254 308.302 9.978 308.506 9.774C308.722 9.558 308.98 9.45 309.28 9.45C309.568 9.45 309.814 9.558 310.018 9.774C310.234 9.978 310.342 10.254 310.342 10.602C310.342 10.926 310.234 11.196 310.018 11.412C309.814 11.616 309.568 11.718 309.28 11.718ZM309.28 18.216C308.98 18.216 308.722 18.114 308.506 17.91C308.302 17.694 308.2 17.424 308.2 17.1C308.2 16.752 308.302 16.476 308.506 16.272C308.722 16.056 308.98 15.948 309.28 15.948C309.568 15.948 309.814 16.056 310.018 16.272C310.234 16.476 310.342 16.752 310.342 17.1C310.342 17.424 310.234 17.694 310.018 17.91C309.814 18.114 309.568 18.216 309.28 18.216Z" fill="black"/>
<path d="M157.41 58.504C155.618 58.504 153.826 58.182 152.034 57.538C150.27 56.866 148.688 55.872 147.288 54.556L150.816 50.314C151.796 51.154 152.874 51.84 154.05 52.372C155.254 52.904 156.43 53.17 157.578 53.17C158.866 53.17 159.818 52.932 160.434 52.456C161.078 51.98 161.4 51.336 161.4 50.524C161.4 50.104 161.302 49.74 161.106 49.432C160.938 49.124 160.672 48.858 160.308 48.634C159.972 48.382 159.552 48.158 159.048 47.962C158.572 47.738 158.04 47.5 157.452 47.248L153.882 45.736C153.182 45.456 152.496 45.092 151.824 44.644C151.18 44.196 150.592 43.678 150.06 43.09C149.556 42.474 149.15 41.774 148.842 40.99C148.534 40.178 148.38 39.268 148.38 38.26C148.38 37.14 148.618 36.09 149.094 35.11C149.57 34.102 150.242 33.234 151.11 32.506C151.978 31.75 153 31.162 154.176 30.742C155.38 30.322 156.696 30.112 158.124 30.112C159.72 30.112 161.288 30.42 162.828 31.036C164.396 31.652 165.768 32.548 166.944 33.724L163.794 37.63C162.898 36.93 162.002 36.398 161.106 36.034C160.21 35.642 159.216 35.446 158.124 35.446C157.06 35.446 156.206 35.67 155.562 36.118C154.946 36.538 154.638 37.14 154.638 37.924C154.638 38.344 154.736 38.708 154.932 39.016C155.156 39.296 155.45 39.562 155.814 39.814C156.206 40.038 156.654 40.262 157.158 40.486C157.662 40.682 158.208 40.906 158.796 41.158L162.324 42.586C164.004 43.258 165.32 44.182 166.272 45.358C167.252 46.534 167.742 48.088 167.742 50.02C167.742 51.168 167.504 52.26 167.028 53.296C166.58 54.304 165.908 55.2 165.012 55.984C164.144 56.74 163.066 57.356 161.778 57.832C160.49 58.28 159.034 58.504 157.41 58.504ZM172.39 58V30.616H189.526V35.824H178.564V41.326H187.888V46.492H178.564V52.792H189.946V58H172.39ZM195.4 58V30.616H205.27C206.726 30.616 208.084 30.756 209.344 31.036C210.632 31.316 211.752 31.792 212.704 32.464C213.656 33.108 214.412 33.976 214.972 35.068C215.532 36.16 215.812 37.518 215.812 39.142C215.812 41.158 215.364 42.824 214.468 44.14C213.6 45.428 212.424 46.394 210.94 47.038L217.156 58H210.226L204.976 48.13H201.574V58H195.4ZM201.574 43.216H204.766C206.39 43.216 207.622 42.88 208.462 42.208C209.33 41.508 209.764 40.486 209.764 39.142C209.764 37.798 209.33 36.86 208.462 36.328C207.622 35.796 206.39 35.53 204.766 35.53H201.574V43.216ZM225.371 58L217.097 30.616H223.649L226.925 43.384C227.345 44.896 227.709 46.366 228.017 47.794C228.353 49.194 228.731 50.65 229.151 52.162H229.319C229.711 50.65 230.075 49.194 230.411 47.794C230.747 46.366 231.111 44.896 231.503 43.384L234.737 30.616H241.037L232.805 58H225.371ZM243.963 58V30.616H261.099V35.824H250.137V41.326H259.461V46.492H250.137V52.792H261.519V58H243.963ZM266.972 58V30.616H276.842C278.298 30.616 279.656 30.756 280.916 31.036C282.204 31.316 283.324 31.792 284.276 32.464C285.228 33.108 285.984 33.976 286.544 35.068C287.104 36.16 287.384 37.518 287.384 39.142C287.384 41.158 286.936 42.824 286.04 44.14C285.172 45.428 283.996 46.394 282.512 47.038L288.728 58H281.798L276.548 48.13H273.146V58H266.972ZM273.146 43.216H276.338C277.962 43.216 279.194 42.88 280.034 42.208C280.902 41.508 281.336 40.486 281.336 39.142C281.336 37.798 280.902 36.86 280.034 36.328C279.194 35.796 277.962 35.53 276.338 35.53H273.146V43.216ZM292.73 58V30.616H298.904V52.792H309.74V58H292.73ZM314.468 58V30.616H331.604V35.824H320.642V41.326H329.966V46.492H320.642V52.792H332.024V58H314.468ZM345.836 58.504C344.044 58.504 342.252 58.182 340.46 57.538C338.696 56.866 337.114 55.872 335.714 54.556L339.242 50.314C340.222 51.154 341.3 51.84 342.476 52.372C343.68 52.904 344.856 53.17 346.004 53.17C347.292 53.17 348.244 52.932 348.86 52.456C349.504 51.98 349.826 51.336 349.826 50.524C349.826 50.104 349.728 49.74 349.532 49.432C349.364 49.124 349.098 48.858 348.734 48.634C348.398 48.382 347.978 48.158 347.474 47.962C346.998 47.738 346.466 47.5 345.878 47.248L342.308 45.736C341.608 45.456 340.922 45.092 340.25 44.644C339.606 44.196 339.018 43.678 338.486 43.09C337.982 42.474 337.576 41.774 337.268 40.99C336.96 40.178 336.806 39.268 336.806 38.26C336.806 37.14 337.044 36.09 337.52 35.11C337.996 34.102 338.668 33.234 339.536 32.506C340.404 31.75 341.426 31.162 342.602 30.742C343.806 30.322 345.122 30.112 346.55 30.112C348.146 30.112 349.714 30.42 351.254 31.036C352.822 31.652 354.194 32.548 355.37 33.724L352.22 37.63C351.324 36.93 350.428 36.398 349.532 36.034C348.636 35.642 347.642 35.446 346.55 35.446C345.486 35.446 344.632 35.67 343.988 36.118C343.372 36.538 343.064 37.14 343.064 37.924C343.064 38.344 343.162 38.708 343.358 39.016C343.582 39.296 343.876 39.562 344.24 39.814C344.632 40.038 345.08 40.262 345.584 40.486C346.088 40.682 346.634 40.906 347.222 41.158L350.75 42.586C352.43 43.258 353.746 44.182 354.698 45.358C355.678 46.534 356.168 48.088 356.168 50.02C356.168 51.168 355.93 52.26 355.454 53.296C355.006 54.304 354.334 55.2 353.438 55.984C352.57 56.74 351.492 57.356 350.204 57.832C348.916 58.28 347.46 58.504 345.836 58.504ZM368.436 58.504C366.644 58.504 364.852 58.182 363.06 57.538C361.296 56.866 359.714 55.872 358.314 54.556L361.842 50.314C362.822 51.154 363.9 51.84 365.076 52.372C366.28 52.904 367.456 53.17 368.604 53.17C369.892 53.17 370.844 52.932 371.46 52.456C372.104 51.98 372.426 51.336 372.426 50.524C372.426 50.104 372.328 49.74 372.132 49.432C371.964 49.124 371.698 48.858 371.334 48.634C370.998 48.382 370.578 48.158 370.074 47.962C369.598 47.738 369.066 47.5 368.478 47.248L364.908 45.736C364.208 45.456 363.522 45.092 362.85 44.644C362.206 44.196 361.618 43.678 361.086 43.09C360.582 42.474 360.176 41.774 359.868 40.99C359.56 40.178 359.406 39.268 359.406 38.26C359.406 37.14 359.644 36.09 360.12 35.11C360.596 34.102 361.268 33.234 362.136 32.506C363.004 31.75 364.026 31.162 365.202 30.742C366.406 30.322 367.722 30.112 369.15 30.112C370.746 30.112 372.314 30.42 373.854 31.036C375.422 31.652 376.794 32.548 377.97 33.724L374.82 37.63C373.924 36.93 373.028 36.398 372.132 36.034C371.236 35.642 370.242 35.446 369.15 35.446C368.086 35.446 367.232 35.67 366.588 36.118C365.972 36.538 365.664 37.14 365.664 37.924C365.664 38.344 365.762 38.708 365.958 39.016C366.182 39.296 366.476 39.562 366.84 39.814C367.232 40.038 367.68 40.262 368.184 40.486C368.688 40.682 369.234 40.906 369.822 41.158L373.35 42.586C375.03 43.258 376.346 44.182 377.298 45.358C378.278 46.534 378.768 48.088 378.768 50.02C378.768 51.168 378.53 52.26 378.054 53.296C377.606 54.304 376.934 55.2 376.038 55.984C375.17 56.74 374.092 57.356 372.804 57.832C371.516 58.28 370.06 58.504 368.436 58.504Z" fill="#000E1A"/>
</svg>
