<svg width="20" height="12" viewBox="0 0 20 12" fill="none" xmlns="http://www.w3.org/2000/svg">
<path id="arrow" fill-rule="evenodd" clip-rule="evenodd" d="M13.2279 11.0737C13.5206 11.3667 13.9956 11.3667 14.2883 11.0738L18.9501 6.41198C19.0966 6.26572 19.1698 6.07352 19.1698 5.88174C19.1698 5.68994 19.0966 5.49778 18.9501 5.35132L14.2883 0.689539C13.9963 0.397774 13.5232 0.396604 13.2301 0.687583C12.9365 0.978579 12.9338 1.44661 13.2234 1.74071L16.5534 5.12182L0.74994 5.1218C0.335694 5.1218 0 5.46685 0 5.8809C0 6.29511 0.335694 6.63999 0.74994 6.63999L16.6093 6.64001L13.2279 10.0174C12.9349 10.3104 12.9349 10.7808 13.2279 11.0737Z" fill="#7B39D9"/>
</svg>
