<svg width="83" height="63" viewBox="0 0 83 63" fill="none" xmlns="http://www.w3.org/2000/svg">
<path opacity="0.15" d="M36.75 47C36.75 51.8333 35.1667 55.75 32 58.75C28.8333 61.5833 24.8333 63 20 63C14.1667 63 9.33333 61.0833 5.5 57.25C1.83333 53.4167 7.07805e-07 47.9167 7.07805e-07 40.75C7.07805e-07 33.0833 2.16667 25.5833 6.5 18.25C11 10.75 17.25 4.83332 25.25 0.499984L31 9.24999C26.6667 12.25 23.1667 15.5833 20.5 19.25C18 22.9167 16.3333 27.1667 15.5 32C17 31.3333 18.75 31 20.75 31C25.4167 31 29.25 32.5 32.25 35.5C35.25 38.5 36.75 42.3333 36.75 47ZM82.75 47C82.75 51.8333 81.1667 55.75 78 58.75C74.8333 61.5833 70.8333 63 66 63C60.1667 63 55.3333 61.0833 51.5 57.25C47.8333 53.4167 46 47.9167 46 40.75C46 33.0833 48.1667 25.5833 52.5 18.25C57 10.75 63.25 4.83332 71.25 0.499984L77 9.24999C72.6667 12.25 69.1667 15.5833 66.5 19.25C64 22.9167 62.3333 27.1667 61.5 32C63 31.3333 64.75 31 66.75 31C71.4167 31 75.25 32.5 78.25 35.5C81.25 38.5 82.75 42.3333 82.75 47Z" fill="#7B39D9"/>
</svg>
