<svg width="13" height="11" viewBox="0 0 13 11" fill="none" xmlns="http://www.w3.org/2000/svg">
<path fill-rule="evenodd" clip-rule="evenodd" d="M9.18034 10.0422L12.8281 5.96371C12.9427 5.83574 13 5.66759 13 5.49981C13 5.33202 12.9427 5.1639 12.8281 5.03576L9.18034 0.957299C8.95187 0.702042 8.58164 0.701017 8.35225 0.955587C8.12258 1.21017 8.12043 1.61964 8.34705 1.87694L10.9527 4.83498L0.586813 4.83496C0.262674 4.83496 0 5.13684 0 5.49907C0 5.86146 0.262674 6.16319 0.586813 6.16319L10.9964 6.1632L8.35053 9.11801C8.12134 9.37429 8.12134 9.78586 8.35053 10.0421C8.57963 10.2984 8.95124 10.2984 9.18034 10.0422Z" fill="#FA5A28"/>
</svg>
