<svg width="48" height="48" viewBox="0 0 48 48" fill="none" xmlns="http://www.w3.org/2000/svg">
<rect width="48" height="47.8971" rx="4" fill="#FA5A28" fill-opacity="0.1"/>
<path fill-rule="evenodd" clip-rule="evenodd" d="M34.6946 19.9496V17.0981H35.266V20.5211H23.9722V22.9965L25.3027 21.666C25.4143 21.5544 25.5952 21.5544 25.7068 21.666C25.8183 21.7775 25.8183 21.9585 25.7068 22.07L23.8885 23.8883C23.7769 23.9999 23.596 23.9999 23.4845 23.8883L21.6662 22.07C21.5546 21.9585 21.5546 21.7775 21.6662 21.666C21.7778 21.5544 21.9587 21.5544 22.0703 21.666L23.4008 22.9965V19.9496H34.6946Z" fill="#FA5A28"/>
<path d="M8.5 8.57142C8.5 8.53198 8.53198 8.5 8.57142 8.5H16.8401C16.8795 8.5 16.9115 8.53198 16.9115 8.57142V16.8402C16.9115 16.8796 16.8795 16.9116 16.8401 16.9116H8.57142C8.53198 16.9116 8.5 16.8796 8.5 16.8402V8.57142Z" fill="#FA5A28" fill-opacity="0.5" stroke="#FA5A28"/>
<path fill-rule="evenodd" clip-rule="evenodd" d="M30.644 24.8849H16.101V39.428H30.644V24.8849ZM16.101 24.3135C15.7854 24.3135 15.5295 24.5693 15.5295 24.8849V39.428C15.5295 39.7436 15.7854 39.9995 16.101 39.9995H30.644C30.9596 39.9995 31.2154 39.7436 31.2154 39.428V24.8849C31.2154 24.5693 30.9596 24.3135 30.644 24.3135H16.101Z" fill="#FA5A28"/>
<path d="M19.7927 8.57142C19.7927 8.53198 19.8247 8.5 19.8641 8.5H28.1328C28.1723 8.5 28.2043 8.53198 28.2043 8.57142V16.8402C28.2043 16.8796 28.1723 16.9116 28.1328 16.9116H19.8641C19.8247 16.9116 19.7927 16.8796 19.7927 16.8402V8.57142Z" fill="#FA5A28" fill-opacity="0.5" stroke="#FA5A28"/>
<path d="M31.0884 8.57142C31.0884 8.53198 31.1204 8.5 31.1598 8.5H39.4285C39.4679 8.5 39.4999 8.53198 39.4999 8.57142V16.8402C39.4999 16.8796 39.4679 16.9116 39.4285 16.9116H31.1598C31.1204 16.9116 31.0884 16.8796 31.0884 16.8402V8.57142Z" fill="#FA5A28" fill-opacity="0.5" stroke="#FA5A28"/>
<path d="M13.918 13.6833V14.3976H11.2666V13.6833H12.1466V11.3234L11.3237 11.8091V11.0262L12.518 10.3291H13.038V13.6833H13.918Z" fill="#FFEFEA"/>
<path d="M25.4502 13.6835V14.3978H22.6559V13.7407L24.0102 12.3007C24.2921 11.9959 24.4331 11.7178 24.4331 11.4664C24.4331 11.3064 24.3854 11.1864 24.2902 11.1064C24.1988 11.0226 24.0635 10.9807 23.8845 10.9807C23.5378 10.9807 23.1778 11.1121 22.8045 11.375L22.5188 10.735C22.6826 10.594 22.8921 10.4835 23.1474 10.4035C23.4026 10.3197 23.6616 10.2778 23.9245 10.2778C24.3474 10.2778 24.6826 10.3807 24.9302 10.5864C25.1816 10.7883 25.3073 11.0607 25.3073 11.4035C25.3073 11.6397 25.2578 11.8588 25.1588 12.0607C25.0635 12.2588 24.9016 12.4797 24.6731 12.7235L23.7531 13.6835H25.4502Z" fill="#FFEFEA"/>
<path d="M36.2824 12.3064C36.5186 12.375 36.6996 12.4949 36.8253 12.6664C36.9548 12.834 37.0196 13.0416 37.0196 13.2892C37.0196 13.6473 36.8843 13.9292 36.6139 14.1349C36.3434 14.3406 35.9758 14.4435 35.511 14.4435C35.2291 14.4435 34.9587 14.4035 34.6996 14.3235C34.4406 14.2397 34.231 14.1273 34.071 13.9864L34.3568 13.3464C34.7187 13.6092 35.0901 13.7407 35.471 13.7407C35.7186 13.7407 35.8977 13.6987 36.0082 13.6149C36.1225 13.5273 36.1796 13.3902 36.1796 13.2035C36.1796 13.0245 36.1225 12.8949 36.0082 12.8149C35.8977 12.7311 35.7186 12.6892 35.471 12.6892H34.8882V11.9921H35.3739C35.6101 11.9921 35.7853 11.9521 35.8996 11.8721C36.0139 11.7883 36.071 11.6626 36.071 11.495C36.071 11.3273 36.0196 11.1997 35.9167 11.1121C35.8177 11.0245 35.6748 10.9807 35.4882 10.9807C35.3129 10.9807 35.1339 11.015 34.951 11.0835C34.7682 11.1483 34.5891 11.2454 34.4139 11.375L34.1282 10.735C34.292 10.594 34.5015 10.4835 34.7568 10.4035C35.012 10.3197 35.2748 10.2778 35.5453 10.2778C35.8196 10.2778 36.0596 10.3235 36.2653 10.415C36.4748 10.5064 36.6348 10.634 36.7453 10.7978C36.8596 10.9616 36.9167 11.154 36.9167 11.375C36.9167 11.5959 36.8615 11.7883 36.751 11.9521C36.6405 12.1121 36.4844 12.2302 36.2824 12.3064Z" fill="#FFEFEA"/>
<path fill-rule="evenodd" clip-rule="evenodd" d="M23.3715 37.4892C26.317 37.4892 28.7047 35.1015 28.7047 32.156C28.7047 29.2105 26.317 26.8228 23.3715 26.8228C20.4261 26.8228 18.0383 29.2105 18.0383 32.156C18.0383 35.1015 20.4261 37.4892 23.3715 37.4892Z" fill="#FA5A28"/>
<path fill-rule="evenodd" clip-rule="evenodd" d="M27.0261 30.4758L23.0594 34.4425L20.3477 31.7307L20.7517 31.3267L23.0594 33.6344L26.622 30.0718L27.0261 30.4758Z" fill="#FFEFEA"/>
</svg>
