<svg width="48" height="48" viewBox="0 0 48 48" fill="none" xmlns="http://www.w3.org/2000/svg">
<rect width="48" height="47.8971" rx="4" fill="#FA5A28" fill-opacity="0.1"/>
<path fill-rule="evenodd" clip-rule="evenodd" d="M8 35.9907V38.0171C8 39.3677 9.05124 40.4627 10.348 40.4627H37.652C38.9488 40.4627 40 39.3677 40 38.0171V35.9907H8Z" fill="#FA5A28"/>
<path d="M18.6667 35.9907H29.3334V36.2824C29.3334 37.3562 28.6881 38.2267 27.892 38.2267H20.1082C19.3121 38.2267 18.6667 37.3562 18.6667 36.2824V35.9907Z" fill="#FFEFEA"/>
<path fill-rule="evenodd" clip-rule="evenodd" d="M14.4074 30.0063C14.1128 30.0063 13.874 30.2451 13.874 30.5397V33.1102C13.874 33.4047 14.1128 33.6435 14.4074 33.6435H33.2222C33.5167 33.6435 33.7555 33.4047 33.7555 33.1102V30.5397C33.7555 30.2451 33.5167 30.0063 33.2222 30.0063H14.4074Z" fill="#FA5A28" fill-opacity="0.5"/>
<path d="M15.6812 31.8248C15.6812 31.5737 15.8847 31.3701 16.1358 31.3701H18.8413C19.0924 31.3701 19.296 31.5737 19.296 31.8248V31.8248C19.296 32.0759 19.0924 32.2794 18.8413 32.2794H16.1358C15.8847 32.2794 15.6812 32.0759 15.6812 31.8248V31.8248Z" fill="#FFEFEA"/>
<path d="M19.7485 31.8248C19.7485 31.5737 19.9521 31.3701 20.2032 31.3701H22.9087C23.1598 31.3701 23.3633 31.5737 23.3633 31.8248V31.8248C23.3633 32.0759 23.1598 32.2794 22.9087 32.2794H20.2032C19.9521 32.2794 19.7485 32.0759 19.7485 31.8248V31.8248Z" fill="#FFEFEA"/>
<path d="M24.2666 31.8248C24.2666 31.5737 24.4702 31.3701 24.7212 31.3701H27.4268C27.6779 31.3701 27.8814 31.5737 27.8814 31.8248V31.8248C27.8814 32.0759 27.6779 32.2794 27.4268 32.2794H24.7212C24.4702 32.2794 24.2666 32.0759 24.2666 31.8248V31.8248Z" fill="#FFEFEA"/>
<path d="M28.3333 31.8248C28.3333 31.5737 28.5368 31.3701 28.7879 31.3701H31.4934C31.7445 31.3701 31.9481 31.5737 31.9481 31.8248V31.8248C31.9481 32.0759 31.7445 32.2794 31.4934 32.2794H28.7879C28.5368 32.2794 28.3333 32.0759 28.3333 31.8248V31.8248Z" fill="#FFEFEA"/>
<path fill-rule="evenodd" clip-rule="evenodd" d="M12.2913 20.0576C11.4875 20.0576 10.836 20.7101 10.836 21.5151V35.8253H37.1636V21.5151C37.1636 20.7101 36.5121 20.0576 35.7083 20.0576H33.0305L32.5786 18.9976H35.7083C37.0966 18.9976 38.222 20.1247 38.222 21.5151V36.8853H9.77759V21.5151C9.77759 20.1247 10.903 18.9976 12.2913 18.9976H15.2887V20.0576H12.2913Z" fill="#FA5A28"/>
<path fill-rule="evenodd" clip-rule="evenodd" d="M23.0049 16.7355C22.481 16.7745 21.9596 16.8233 21.4382 16.8673C21.2218 16.8868 21.1554 16.9624 21.148 17.182C21.148 17.5625 21.1234 17.9456 21.116 18.3286C21.1263 18.443 21.0495 18.5473 20.9365 18.5726C20.7629 18.6235 20.5974 18.6982 20.4446 18.7946C20.1347 18.9971 19.8371 19.2191 19.5395 19.4411C19.4839 19.496 19.4005 19.5124 19.328 19.4825C19.1263 19.402 18.9197 19.3313 18.7156 19.2605C18.5115 19.1898 18.2532 19.1068 18.022 19.0312C17.7982 18.9971 17.7121 19.2044 17.5744 19.4508C17.3678 19.846 17.1563 20.2364 16.9595 20.6341C16.8735 20.8097 16.9103 20.9073 17.0751 21.0171C17.4195 21.2432 17.7662 21.4692 18.1155 21.6953C18.176 21.7229 18.2065 21.7907 18.1868 21.8539C18.0564 22.5088 18.0783 23.1847 18.2508 23.83C18.2571 23.8855 18.2381 23.941 18.1991 23.9812C17.8695 24.2813 17.5326 24.5741 17.1981 24.8693C17.0309 25.0132 17.021 25.1132 17.1514 25.3011C17.449 25.7207 17.749 26.1428 18.0417 26.5673C18.1721 26.7551 18.2876 26.7942 18.4918 26.6868C18.8509 26.4965 19.2075 26.3062 19.5617 26.111C19.6209 26.0732 19.6986 26.0814 19.7486 26.1306C19.9704 26.302 20.2047 26.457 20.4495 26.5941C20.7412 26.7344 21.0409 26.8574 21.3472 26.9625C21.4202 26.9799 21.4749 27.04 21.485 27.1137C21.5637 27.5334 21.6473 27.9505 21.7309 28.3677C21.7826 28.6263 21.8342 28.6702 22.1072 28.6507C22.6237 28.6166 23.1402 28.5751 23.6567 28.5409C23.8805 28.5263 23.9592 28.4531 23.969 28.2311C23.9838 27.8286 24.0059 27.426 24.0157 27.0235C24.0095 26.9431 24.066 26.8712 24.1461 26.8576C24.7679 26.6277 25.3318 26.2664 25.7989 25.7988C25.8484 25.7648 25.9108 25.755 25.9686 25.7719C26.3916 25.9012 26.8122 26.0379 27.2327 26.172C27.3067 26.2076 27.3928 26.2088 27.4678 26.1754C27.5428 26.142 27.599 26.0773 27.6213 25.9988C27.8451 25.5109 28.0714 25.023 28.2854 24.535C28.3134 24.4588 28.3014 24.3738 28.2534 24.3082C28.1399 24.1852 28.0119 24.0763 27.8722 23.9837C27.6262 23.8178 27.3459 23.6714 27.0876 23.4958C27.0414 23.4643 27.0138 23.4123 27.0138 23.3567C27.1015 22.7529 27.0638 22.1377 26.9032 21.5489C26.8912 21.4929 26.9057 21.4345 26.9425 21.3903C27.2598 21.1025 27.582 20.8219 27.9066 20.5414C28.1231 20.3559 28.1526 20.2583 27.9902 20.0315C27.6935 19.6021 27.3918 19.1768 27.0852 18.7555C27.0497 18.6875 26.9861 18.6382 26.911 18.6204C26.8359 18.6026 26.7568 18.6181 26.6941 18.6628C26.3178 18.858 25.9563 19.0605 25.5701 19.2557C25.5249 19.2764 25.4727 19.2764 25.4275 19.2557C24.9425 18.8641 24.3804 18.5774 23.7772 18.414C23.6992 18.3972 23.6413 18.3319 23.6345 18.253C23.5534 17.8382 23.4722 17.4259 23.3886 17.0136C23.3369 16.7599 23.2779 16.7087 23.0049 16.7355V16.7355Z" fill="#FFEFEA" stroke="#FA5A28"/>
<path fill-rule="evenodd" clip-rule="evenodd" d="M25.2725 22.6977C25.2725 24.1556 24.081 25.3374 22.6113 25.3374C21.1416 25.3374 19.9502 24.1556 19.9502 22.6977C19.9502 21.2399 21.1416 20.058 22.6113 20.058C24.081 20.058 25.2725 21.2399 25.2725 22.6977V22.6977V22.6977Z" stroke="#FA5A28" stroke-opacity="0.5"/>
<path d="M28.179 10.1055L28.1371 9.60727L28.1342 9.60753L28.179 10.1055ZM27.9751 10.3266L27.4754 10.3098L27.4751 10.3182L27.4751 10.3266L27.9751 10.3266ZM27.9527 11.1322L27.4528 11.1225L27.4523 11.1496L27.4547 11.1766L27.9527 11.1322ZM27.8266 11.3036L27.7176 10.8156L27.7016 10.8192L27.6858 10.8238L27.8266 11.3036ZM27.481 11.4595L27.2142 11.0366L27.2075 11.041L27.481 11.4595ZM26.8451 11.9137L26.5461 11.513L26.5184 11.5337L26.4937 11.558L26.8451 11.9137ZM26.6965 11.9429L26.8867 11.4804L26.8819 11.4785L26.6965 11.9429ZM26.2663 11.7869L26.1025 12.2593L26.1026 12.2593L26.2663 11.7869ZM25.779 11.6258L25.9345 11.1506L25.8953 11.1377L25.8545 11.1315L25.779 11.6258ZM25.4645 11.9206L25.0279 11.6765L25.0214 11.6889L25.4645 11.9206ZM25.0326 12.7518L24.5844 12.5301L24.5836 12.5318L25.0326 12.7518ZM25.1138 13.0209L24.8366 13.4371L24.8394 13.4389L25.1138 13.0209ZM25.8447 13.4974L25.573 13.9171L25.6037 13.937L25.6369 13.9522L25.8447 13.4974ZM25.8948 13.6088L25.4174 13.46L25.4096 13.4853L25.4044 13.5112L25.8948 13.6088ZM25.9397 14.9971L26.4365 14.9405L26.4323 14.9038L26.4228 14.868L25.9397 14.9971ZM25.9034 15.1034L26.24 15.4731L26.2516 15.4625L26.2625 15.4513L25.9034 15.1034ZM25.2002 15.7272L25.5264 16.1063L25.531 16.1021L25.2002 15.7272ZM25.1674 16.0306L24.7566 16.3157L24.7595 16.3199L25.1674 16.0306ZM25.7928 16.9201L25.3812 17.204L25.3821 17.2052L25.7928 16.9201ZM26.109 17.0041L26.3418 17.4467L26.3432 17.4459L26.109 17.0041ZM26.8607 16.5996L27.102 17.0375L27.1162 17.0297L27.1298 17.021L26.8607 16.5996ZM26.992 16.6134L26.6411 16.9696L26.6625 16.9906L26.6862 17.0089L26.992 16.6134ZM27.4844 16.939L27.2401 17.3753L27.2537 17.3828L27.2677 17.3896L27.4844 16.939ZM28.1151 17.1978L27.9529 17.6708L27.9756 17.6785L27.9989 17.6841L28.1151 17.1978ZM28.2119 17.3041L27.7165 17.3718L27.7182 17.3841L27.7204 17.3962L28.2119 17.3041ZM28.3847 18.185L28.875 18.0871L28.8749 18.0868L28.3847 18.185ZM28.649 18.3839L28.616 17.8849L28.6134 17.8851L28.649 18.3839ZM29.7376 18.3067L29.705 17.8078L29.7046 17.8078L29.7376 18.3067ZM29.957 18.0891L30.4565 18.1112L30.4567 18.1074L29.957 18.0891ZM29.9899 17.2407L30.4897 17.2529L30.4903 17.2274L30.4883 17.2019L29.9899 17.2407ZM30.0814 17.1241L30.1653 17.617L30.2112 17.6092L30.2548 17.5931L30.0814 17.1241ZM31.2426 16.3803L30.9601 15.9677L30.9217 15.994L30.8888 16.0269L31.2426 16.3803ZM31.3618 16.3614L31.5079 15.8832L31.5027 15.8817L31.3618 16.3614ZM32.2499 16.6425L32.4664 16.1918L32.435 16.1767L32.4019 16.1661L32.2499 16.6425ZM32.415 16.6448L32.6186 17.1015L32.6186 17.1015L32.415 16.6448ZM32.5229 16.5208L32.0684 16.3123L32.0525 16.3471L32.042 16.3839L32.5229 16.5208ZM32.9894 15.4924L33.4473 15.6932L33.4535 15.6793L33.4587 15.665L32.9894 15.4924ZM32.967 15.333L33.3706 15.0379L33.3537 15.0148L33.3344 14.9939L32.967 15.333ZM32.6992 15.1051L32.4196 15.5196L32.4229 15.5219L32.6992 15.1051ZM32.148 14.7623L32.4292 14.3489L32.429 14.3487L32.148 14.7623ZM32.0961 14.6646L31.6013 14.5928L31.5962 14.6282L31.5961 14.664L32.0961 14.6646ZM32.0184 13.3946L31.5294 13.4988L31.5323 13.5126L31.536 13.5262L32.0184 13.3946ZM32.046 13.2832L31.71 12.9129L31.6843 12.9362L31.662 12.9629L32.046 13.2832ZM32.7233 12.6867L32.3981 12.307L32.3964 12.3084L32.7233 12.6867ZM32.7821 12.3285L32.3707 12.6128L32.3755 12.6194L32.7821 12.3285ZM32.1462 11.4321L31.703 11.6635L31.7202 11.6964L31.742 11.7264L32.1462 11.4321ZM32.0239 11.3372L32.1393 10.8507L32.1392 10.8506L32.0239 11.3372ZM31.8715 11.367L32.1017 11.8108L32.1332 11.7945L32.162 11.7739L31.8715 11.367ZM31.0819 11.7835L31.2906 12.2378L31.2991 12.2339L31.3074 12.2297L31.0819 11.7835ZM30.9817 11.7835L30.6676 12.1725L30.7162 12.2117L30.7729 12.2378L30.9817 11.7835ZM29.8222 11.1921L29.953 10.7096L29.9404 10.7061L29.9277 10.7034L29.8222 11.1921ZM29.722 11.079L30.2202 11.0361L30.2179 11.0093L30.2127 10.983L29.722 11.079ZM29.5492 10.2083L30.0393 10.109L30.0392 10.1086L29.5492 10.2083ZM29.2425 9.51433C28.8716 9.54198 28.4969 9.57696 28.1371 9.60727L28.221 10.6037C28.5938 10.5723 28.9517 10.5388 29.3169 10.5116L29.2425 9.51433ZM28.1342 9.60753C28.0267 9.61721 27.8152 9.64838 27.6529 9.8261C27.4947 9.99928 27.4788 10.2085 27.4754 10.3098L28.4749 10.3434C28.4755 10.3253 28.4768 10.3367 28.4695 10.3629C28.4611 10.3933 28.44 10.4472 28.3912 10.5006C28.2914 10.6098 28.1793 10.6075 28.2239 10.6035L28.1342 9.60753ZM27.4751 10.3266C27.4752 10.5984 27.4588 10.8126 27.4528 11.1225L28.4526 11.1418C28.457 10.9136 28.4752 10.5896 28.4751 10.3266L27.4751 10.3266ZM27.4547 11.1766C27.4393 11.0041 27.555 10.8519 27.7176 10.8156L27.9355 11.7915C28.2569 11.7198 28.4805 11.421 28.4507 11.0877L27.4547 11.1766ZM27.6858 10.8238C27.5195 10.8726 27.3608 10.9442 27.2142 11.0366L27.7477 11.8824C27.8158 11.8395 27.8897 11.8061 27.9673 11.7833L27.6858 10.8238ZM27.2075 11.041C26.9746 11.1931 26.7531 11.3585 26.5461 11.513L27.1441 12.3145C27.3553 12.1569 27.552 12.0104 27.7545 11.8781L27.2075 11.041ZM26.4937 11.558C26.598 11.4551 26.7527 11.4253 26.8867 11.4804L26.5063 12.4053C26.7422 12.5023 27.0142 12.4495 27.1965 12.2694L26.4937 11.558ZM26.8819 11.4785C26.7272 11.4167 26.5698 11.3629 26.43 11.3145L26.1026 12.2593C26.2496 12.3103 26.3825 12.3559 26.5111 12.4072L26.8819 11.4785ZM26.43 11.3145C26.2811 11.2629 26.0924 11.2022 25.9345 11.1506L25.6236 12.101C25.7905 12.1556 25.9646 12.2115 26.1025 12.2593L26.43 11.3145ZM25.8545 11.1315C25.7304 11.1126 25.5995 11.1249 25.4745 11.1803C25.3556 11.233 25.2729 11.3111 25.2184 11.3752C25.1296 11.4795 25.0534 11.6313 25.0281 11.6766L25.901 12.1645C25.9145 12.1403 25.9277 12.1161 25.938 12.0973C25.9491 12.077 25.9576 12.0616 25.9654 12.0482C25.9823 12.0188 25.986 12.0161 25.9798 12.0234C25.9721 12.0324 25.9401 12.0677 25.8798 12.0945C25.8134 12.1239 25.7491 12.127 25.7036 12.1201L25.8545 11.1315ZM25.0214 11.6889C24.8809 11.9577 24.7259 12.2442 24.5844 12.5301L25.4807 12.9736C25.6157 12.7007 25.7579 12.4388 25.9077 12.1522L25.0214 11.6889ZM24.5836 12.5318C24.5302 12.6408 24.46 12.8329 24.5305 13.0549C24.5968 13.2639 24.7522 13.3808 24.8366 13.437L25.391 12.6048C25.3597 12.5839 25.4442 12.628 25.4837 12.7525C25.5274 12.8902 25.4745 12.9863 25.4816 12.9719L24.5836 12.5318ZM24.8394 13.4389C25.0822 13.5983 25.3267 13.7577 25.573 13.9171L26.1164 13.0777C25.8719 12.9194 25.6292 12.7612 25.3882 12.603L24.8394 13.4389ZM25.6369 13.9522C25.4525 13.868 25.3557 13.6582 25.4174 13.46L26.3721 13.7576C26.4616 13.4707 26.3219 13.1657 26.0524 13.0426L25.6369 13.9522ZM25.4044 13.5112C25.2978 14.0465 25.3157 14.5988 25.4567 15.1262L26.4228 14.868C26.3214 14.4886 26.3085 14.0914 26.3852 13.7064L25.4044 13.5112ZM25.4429 15.0537C25.4304 14.9434 25.4681 14.8341 25.5443 14.7554L26.2625 15.4513C26.3936 15.316 26.4579 15.1289 26.4365 14.9405L25.4429 15.0537ZM25.5668 14.7337C25.3391 14.941 25.1082 15.1416 24.8693 15.3524L25.531 16.1021C25.7621 15.8982 26.0047 15.6874 26.24 15.4731L25.5668 14.7337ZM24.874 15.3483C24.7936 15.4175 24.6343 15.569 24.6082 15.8145C24.5829 16.0518 24.699 16.2328 24.7566 16.3157L25.5781 15.7455C25.5665 15.7289 25.5738 15.736 25.5833 15.7605C25.5944 15.7891 25.6105 15.846 25.6026 15.9202C25.5864 16.0723 25.4893 16.1381 25.5263 16.1062L24.874 15.3483ZM24.7595 16.3199C24.9692 16.6156 25.1779 16.9091 25.3812 17.204L26.2045 16.6363C25.9966 16.3348 25.7836 16.0352 25.5752 15.7414L24.7595 16.3199ZM25.3821 17.2052C25.4474 17.2993 25.5755 17.4594 25.7965 17.5214C26.0276 17.5861 26.2254 17.5079 26.3418 17.4467L25.8763 16.5616C25.8493 16.5758 25.9348 16.5215 26.0665 16.5585C26.1882 16.5926 26.2299 16.6729 26.2036 16.6351L25.3821 17.2052ZM26.3432 17.4459C26.596 17.3119 26.8495 17.1767 27.102 17.0375L26.6193 16.1617C26.3742 16.2968 26.1266 16.429 25.8749 16.5623L26.3432 17.4459ZM27.1298 17.021C26.9753 17.1197 26.7726 17.0991 26.6411 16.9696L27.3428 16.2571C27.1412 16.0585 26.8292 16.0265 26.5916 16.1782L27.1298 17.021ZM26.6862 17.0089C26.8615 17.1445 27.0466 17.2669 27.2401 17.3753L27.7288 16.5028C27.5782 16.4184 27.4341 16.3232 27.2978 16.2178L26.6862 17.0089ZM27.2677 17.3896C27.4903 17.4967 27.7191 17.5906 27.9529 17.6708L28.2774 16.7249C28.0807 16.6574 27.8883 16.5785 27.7012 16.4884L27.2677 17.3896ZM27.9989 17.6841C27.8515 17.6489 27.7376 17.5264 27.7165 17.3718L28.7073 17.2364C28.672 16.9781 28.4812 16.7712 28.2313 16.7115L27.9989 17.6841ZM27.7204 17.3962C27.7764 17.6946 27.8358 17.9907 27.8944 18.2833L28.8749 18.0868C28.8161 17.7932 28.7579 17.5031 28.7033 17.2119L27.7204 17.3962ZM27.8943 18.283C27.9047 18.3347 27.9211 18.4092 27.9513 18.4834C27.9839 18.5634 28.043 18.6695 28.155 18.7551C28.2667 18.8404 28.3846 18.8698 28.4709 18.8804C28.5514 18.8903 28.6288 18.8866 28.6847 18.8826L28.6134 17.8851C28.5733 17.888 28.5743 17.8856 28.5929 17.8879C28.6173 17.8909 28.6879 17.9037 28.762 17.9604C28.8364 18.0172 28.8677 18.0824 28.8773 18.106C28.8845 18.1237 28.8828 18.1262 28.875 18.0871L27.8943 18.283ZM28.682 18.8828C28.8655 18.8706 29.0487 18.8572 29.2298 18.844C29.4115 18.8307 29.5912 18.8175 29.7706 18.8056L29.7046 17.8078C29.5211 17.82 29.3379 17.8334 29.1568 17.8466C28.9751 17.8599 28.7954 17.8731 28.616 17.885L28.682 18.8828ZM29.7702 18.8057C29.8762 18.7987 30.0854 18.7744 30.2535 18.6097C30.4269 18.4399 30.4514 18.2259 30.4565 18.1112L29.4575 18.0669C29.4557 18.1082 29.4491 17.9979 29.5538 17.8953C29.6533 17.7979 29.7562 17.8045 29.705 17.8078L29.7702 18.8057ZM30.4567 18.1074C30.4665 17.8388 30.4827 17.5377 30.4897 17.2529L29.49 17.2284C29.4831 17.5092 29.4682 17.7737 29.4574 18.0707L30.4567 18.1074ZM30.4883 17.2019C30.5042 17.4064 30.3607 17.5838 30.1653 17.617L29.9976 16.6312C29.6896 16.6836 29.4667 16.9619 29.4914 17.2794L30.4883 17.2019ZM30.2548 17.5931C30.7592 17.4066 31.217 17.1134 31.5963 16.7336L30.8888 16.0269C30.6119 16.3042 30.2773 16.5186 29.908 16.6551L30.2548 17.5931ZM31.525 16.7928C31.4356 16.854 31.324 16.8714 31.2209 16.8411L31.5027 15.8817C31.3184 15.8276 31.1191 15.8588 30.9601 15.9677L31.525 16.7928ZM31.2156 16.8396C31.509 16.9292 31.7991 17.0235 32.0979 17.1188L32.4019 16.1661C32.1098 16.0729 31.809 15.9753 31.5079 15.8832L31.2156 16.8396ZM32.0334 17.0932C32.2177 17.1817 32.4318 17.1848 32.6186 17.1015L32.2115 16.1882C32.2929 16.1519 32.3861 16.1532 32.4664 16.1918L32.0334 17.0932ZM32.6186 17.1015C32.8056 17.0182 32.9473 16.8562 33.0038 16.6577L32.042 16.3839C32.0671 16.2956 32.1299 16.2245 32.2115 16.1882L32.6186 17.1015ZM32.9774 16.7293C33.1334 16.3892 33.2948 16.041 33.4473 15.6932L32.5315 15.2916C32.3834 15.6295 32.2269 15.9668 32.0684 16.3123L32.9774 16.7293ZM33.4587 15.665C33.5363 15.4541 33.5029 15.2188 33.3706 15.0379L32.5634 15.6282C32.4985 15.5395 32.482 15.4237 32.5202 15.3198L33.4587 15.665ZM33.3344 14.9939C33.2274 14.878 33.1069 14.7754 32.9754 14.6883L32.4229 15.5219C32.4878 15.5648 32.5471 15.6153 32.5996 15.6722L33.3344 14.9939ZM32.9788 14.6906C32.8784 14.6229 32.7731 14.5606 32.6827 14.5067C32.5877 14.4501 32.5056 14.4009 32.4292 14.3489L31.8668 15.1757C31.9717 15.2471 32.0789 15.311 32.1709 15.3658C32.2675 15.4234 32.3471 15.4707 32.4196 15.5196L32.9788 14.6906ZM32.429 14.3487C32.5328 14.4193 32.5963 14.5374 32.5961 14.6652L31.5961 14.664C31.5959 14.87 31.6982 15.0612 31.8669 15.1759L32.429 14.3487ZM32.5909 14.7364C32.6624 14.2443 32.6317 13.7428 32.5007 13.2629L31.536 13.5262C31.6308 13.8736 31.653 14.2366 31.6013 14.5928L32.5909 14.7364ZM32.5074 13.2903C32.5311 13.4016 32.5021 13.5169 32.43 13.6034L31.662 12.9629C31.5382 13.1114 31.4889 13.3088 31.5294 13.4988L32.5074 13.2903ZM32.382 13.6535C32.6002 13.4555 32.8228 13.2616 33.0503 13.065L32.3964 12.3084C32.1677 12.506 31.9376 12.7064 31.71 12.9129L32.382 13.6535ZM33.0486 13.0664C33.1171 13.0078 33.2983 12.8558 33.3441 12.6101C33.3947 12.338 33.254 12.1288 33.1887 12.0376L32.3755 12.6194C32.3931 12.6441 32.3853 12.638 32.3749 12.6108C32.3617 12.576 32.3456 12.5094 32.361 12.427C32.3755 12.3491 32.41 12.3014 32.4206 12.288C32.4289 12.2775 32.4278 12.2815 32.3981 12.307L33.0486 13.0664ZM33.1934 12.0442C32.9826 11.7392 32.7683 11.4371 32.5505 11.1379L31.742 11.7264C31.955 12.019 32.1646 12.3145 32.3708 12.6128L33.1934 12.0442ZM32.5895 11.2007C32.497 11.0235 32.3322 10.8964 32.1393 10.8507L31.9085 11.8237C31.8211 11.8029 31.7456 11.7452 31.703 11.6635L32.5895 11.2007ZM32.1392 10.8506C31.9464 10.8049 31.7428 10.8445 31.581 10.96L32.162 11.7739C32.0883 11.8266 31.9959 11.8444 31.9086 11.8237L32.1392 10.8506ZM31.6413 10.9231C31.3487 11.0749 31.1342 11.1968 30.8563 11.3372L31.3074 12.2297C31.5721 12.0959 31.8656 11.9333 32.1017 11.8108L31.6413 10.9231ZM30.8731 11.3291C30.9738 11.2828 31.0897 11.2828 31.1904 11.3291L30.7729 12.2378C30.9372 12.3133 31.1263 12.3133 31.2906 12.2378L30.8731 11.3291ZM31.2957 11.3944C30.9009 11.0757 30.4435 10.8425 29.953 10.7096L29.6915 11.6747C30.0485 11.7715 30.381 11.9411 30.6676 12.1725L31.2957 11.3944ZM29.9277 10.7034C30.0852 10.7374 30.2059 10.8705 30.2202 11.0361L29.2239 11.122C29.2477 11.3984 29.4497 11.6233 29.7168 11.6809L29.9277 10.7034ZM30.2127 10.983C30.1557 10.6914 30.0984 10.4004 30.0393 10.109L29.0592 10.3077C29.1176 10.5956 29.1744 10.8839 29.2313 11.1751L30.2127 10.983ZM30.0392 10.1086C30.0246 10.037 29.9821 9.79243 29.7712 9.63558C29.5603 9.47865 29.314 9.50717 29.2308 9.51535L29.3286 10.5106C29.3653 10.5069 29.3629 10.5097 29.3421 10.5074C29.3157 10.5044 29.2469 10.4919 29.1743 10.4379C29.1016 10.3838 29.0695 10.3211 29.0588 10.2959C29.0505 10.2765 29.052 10.2723 29.0593 10.3081L30.0392 10.1086ZM30.3727 14.2022C30.3727 14.9464 29.7633 15.5566 29.0031 15.5566L29.0031 16.5566C30.308 16.5566 31.3727 15.5063 31.3727 14.2022L30.3727 14.2022ZM29.0031 15.5566C28.2429 15.5566 27.6335 14.9464 27.6335 14.2022L26.6335 14.2022C26.6335 15.5063 27.6983 16.5566 29.0031 16.5566L29.0031 15.5566ZM27.6335 14.2022C27.6335 13.4579 28.2429 12.8477 29.0031 12.8477L29.0031 11.8477C27.6983 11.8477 26.6335 12.898 26.6335 14.2022L27.6335 14.2022ZM29.0031 12.8477C29.7633 12.8477 30.3727 13.4579 30.3727 14.2022L31.3727 14.2022C31.3727 12.898 30.308 11.8477 29.0031 11.8477L29.0031 12.8477Z" fill="#FA5A28" fill-opacity="0.5"/>
<path d="M23.8931 10.9797L23.5638 11.3557L23.573 11.3633L23.8931 10.9797ZM23.0632 10.2782L23.3887 9.89916L23.3865 9.89728L23.0632 10.2782ZM22.7652 10.2899L22.4241 9.9246L22.4179 9.93024L22.412 9.93608L22.7652 10.2899ZM22.18 10.8338L21.8336 10.4733L21.8141 10.4918L21.7967 10.5122L22.18 10.8338ZM21.9712 10.8651L22.2416 10.4456L22.2276 10.4367L22.213 10.4287L21.9712 10.8651ZM21.6209 10.733L21.7324 10.2474L21.7244 10.2457L21.6209 10.733ZM20.8581 10.606L20.9308 10.1133L20.8964 10.1083L20.8615 10.1081L20.8581 10.606ZM20.7343 10.5229L21.1991 10.3348L21.1971 10.33L20.7343 10.5229ZM20.5457 10.1152L20.0924 10.3292L20.0924 10.3293L20.5457 10.1152ZM20.3212 9.6643L20.7706 9.44239L20.752 9.40533L20.7275 9.37182L20.3212 9.6643ZM19.8943 9.65025L19.7583 9.1707L19.7449 9.17484L19.8943 9.65025ZM19.0065 9.92707L18.8465 9.45504L18.8447 9.45564L19.0065 9.92707ZM18.8726 10.1705L18.3795 10.264L18.3802 10.2673L18.8726 10.1705ZM19.0433 11.0099L18.5516 11.1099L18.559 11.1458L18.5716 11.1802L19.0433 11.0099ZM18.9994 11.1222L18.7672 10.6806L18.7439 10.6927L18.7219 10.7072L18.9994 11.1222ZM18.0489 12.1177L18.4399 12.43L18.463 12.4015L18.4817 12.37L18.0489 12.1177ZM17.9485 12.1663L17.9246 12.6637L17.9403 12.6644L17.9561 12.6642L17.9485 12.1663ZM17.0189 12.1103L16.981 12.6069L16.9873 12.6073L17.0189 12.1103ZM16.7816 12.2981L16.2884 12.2053L16.2875 12.2103L16.7816 12.2981ZM16.587 13.3512L16.0941 13.2569L16.0938 13.2583L16.587 13.3512ZM16.7473 13.6295L16.5976 14.1048L16.5991 14.1053L16.7473 13.6295ZM17.5554 13.8715L17.4151 14.3497L17.4308 14.3542L17.4467 14.3577L17.5554 13.8715ZM17.6369 13.9724L17.1348 13.9717L17.1348 14.0016L17.1384 14.0312L17.6369 13.9724ZM17.7486 14.5412L17.2643 14.6723L17.2685 14.6873L17.2735 14.7021L17.7486 14.5412ZM18.0037 15.1598L17.5511 15.3752L17.5616 15.3969L17.5741 15.4176L18.0037 15.1598ZM17.9957 15.3009L17.5977 14.9973L17.5902 15.007L17.5832 15.0171L17.9957 15.3009ZM17.4929 16.0329L17.0769 15.7541L17.0764 15.7548L17.4929 16.0329ZM17.4928 16.033L17.9086 16.3121L17.9093 16.3111L17.4928 16.033ZM17.5358 16.355L17.8682 15.9819L17.8662 15.9801L17.5358 16.355ZM18.3464 17.0589L18.6791 16.686L18.6788 16.6857L18.3464 17.0589ZM18.6528 17.0604L18.99 17.4293L18.9928 17.4267L18.6528 17.0604ZM23.9422 11.303L24.3588 11.5808L24.359 11.5805L23.9422 11.303ZM24.2223 10.6038C23.9451 10.3649 23.66 10.1284 23.3887 9.89917L22.7376 10.6573C23.0189 10.8949 23.291 11.1205 23.5639 11.3556L24.2223 10.6038ZM23.3865 9.89728C23.304 9.82843 23.1324 9.70107 22.891 9.71167C22.6571 9.72194 22.4977 9.8569 22.4241 9.9246L23.1064 10.6553C23.1196 10.6431 23.1124 10.652 23.0888 10.6652C23.0614 10.6804 23.0082 10.7035 22.9354 10.7066C22.786 10.7132 22.707 10.6318 22.7399 10.6592L23.3865 9.89728ZM22.412 9.93608C22.2198 10.1249 22.057 10.2622 21.8336 10.4733L22.5264 11.1943C22.6908 11.0389 22.9325 10.8264 23.1185 10.6438L22.412 9.93608ZM21.7967 10.5122C21.9072 10.3826 22.0974 10.3541 22.2416 10.4456L21.7007 11.2846C21.9803 11.462 22.3491 11.4067 22.5633 11.1554L21.7967 10.5122ZM22.213 10.4287C22.0621 10.3464 21.9003 10.2854 21.7323 10.2475L21.5094 11.2185C21.5863 11.2359 21.6603 11.2638 21.7294 11.3015L22.213 10.4287ZM21.7244 10.2457C21.4547 10.1893 21.1837 10.1501 20.9308 10.1133L20.7853 11.0988C21.0435 11.1363 21.2834 11.1713 21.5173 11.2202L21.7244 10.2457ZM20.8615 10.1081C21.0098 10.1091 21.143 10.1985 21.1991 10.3348L20.2694 10.711C20.3666 10.9472 20.5975 11.1022 20.8546 11.104L20.8615 10.1081ZM21.1971 10.33C21.1331 10.1791 21.0618 10.032 20.999 9.90118L20.0924 10.3293C20.1586 10.4671 20.2185 10.5909 20.2714 10.7158L21.1971 10.33ZM20.999 9.90121C20.932 9.76164 20.8437 9.58807 20.7706 9.44239L19.8718 9.88621C19.9492 10.0404 20.0305 10.2002 20.0924 10.3292L20.999 9.90121ZM20.7275 9.37182C20.6534 9.27056 20.5519 9.18651 20.4237 9.1372C20.3021 9.09039 20.1881 9.08716 20.1045 9.09375C19.9684 9.10447 19.8076 9.15714 19.7583 9.17089L20.0303 10.1296C20.0568 10.1222 20.0831 10.1145 20.1036 10.1086C20.1256 10.1023 20.1424 10.0975 20.1572 10.0936C20.1898 10.085 20.1939 10.0858 20.1841 10.0866C20.1719 10.0875 20.1234 10.0899 20.0608 10.0658C19.9916 10.0392 19.9429 9.99501 19.9149 9.95678L20.7275 9.37182ZM19.7449 9.17484C19.4574 9.26374 19.147 9.35487 18.8465 9.45504L19.1665 10.3991C19.4531 10.3035 19.737 10.2205 20.0437 10.1257L19.7449 9.17484ZM18.8447 9.45564C18.7302 9.4943 18.5455 9.57902 18.4373 9.78248C18.3352 9.9745 18.3605 10.1651 18.3796 10.264L19.3657 10.0769C19.3589 10.0417 19.3864 10.1324 19.3254 10.2472C19.2583 10.3734 19.1535 10.4035 19.1682 10.3985L18.8447 9.45564ZM18.3802 10.2673C18.4361 10.547 18.4932 10.8279 18.5516 11.1099L19.5351 10.9099C19.4772 10.6299 19.4205 10.3512 19.3651 10.0736L18.3802 10.2673ZM18.5716 11.1802C18.5013 10.9885 18.585 10.7749 18.7672 10.6806L19.2315 11.5637C19.4956 11.4271 19.617 11.1175 19.5151 10.8397L18.5716 11.1802ZM18.7219 10.7072C18.2693 11.0048 17.8911 11.401 17.616 11.8654L18.4817 12.37C18.6795 12.036 18.9514 11.7512 19.2768 11.5372L18.7219 10.7072ZM17.6578 11.8054C17.727 11.7202 17.8308 11.67 17.941 11.6683L17.9561 12.6642C18.1444 12.6614 18.3218 12.5756 18.4399 12.43L17.6578 11.8054ZM17.9724 11.6689C17.6677 11.6544 17.3657 11.6331 17.0506 11.6133L16.9873 12.6073C17.2919 12.6264 17.6096 12.6487 17.9246 12.6637L17.9724 11.6689ZM17.0569 11.6137C16.9509 11.6058 16.7322 11.6004 16.5401 11.753C16.3546 11.9003 16.3072 12.1071 16.2884 12.2053L17.2748 12.391C17.2786 12.3715 17.2785 12.3818 17.2677 12.4057C17.2551 12.4334 17.2259 12.4842 17.1679 12.5303C17.0488 12.6249 16.9338 12.6033 16.981 12.6068L17.0569 11.6137ZM16.2875 12.2103C16.224 12.5617 16.1614 12.9106 16.0941 13.2569L17.08 13.4455C17.1488 13.0914 17.2127 12.7351 17.2758 12.386L16.2875 12.2103ZM16.0938 13.2583C16.0727 13.3689 16.0478 13.5716 16.1593 13.7717C16.2763 13.9816 16.4727 14.0661 16.5976 14.1048L16.897 13.1542C16.8689 13.1455 16.9704 13.1686 17.038 13.2899C17.1003 13.4016 17.0717 13.4888 17.0803 13.444L16.0938 13.2583ZM16.5991 14.1053C16.8695 14.1882 17.1412 14.2706 17.4151 14.3497L17.6956 13.3934C17.4299 13.3167 17.1646 13.2362 16.8954 13.1537L16.5991 14.1053ZM17.4467 14.3577C17.2643 14.3175 17.1346 14.157 17.1348 13.9717L18.1389 13.9731C18.1393 13.6909 17.9417 13.4465 17.664 13.3854L17.4467 14.3577ZM17.1384 14.0312C17.1643 14.2477 17.2064 14.462 17.2643 14.6723L18.2329 14.4101C18.1881 14.2472 18.1555 14.0813 18.1354 13.9136L17.1384 14.0312ZM17.2735 14.7021C17.3525 14.9317 17.4452 15.1565 17.5511 15.3752L18.4562 14.9443C18.3676 14.7611 18.2899 14.5728 18.2237 14.3804L17.2735 14.7021ZM17.5741 15.4176C17.4939 15.286 17.5033 15.1191 17.5977 14.9973L18.3937 15.6045C18.5516 15.4008 18.5673 15.1219 18.4332 14.902L17.5741 15.4176ZM17.5832 15.0171C17.4111 15.2632 17.243 15.5101 17.0769 15.7541L17.9089 16.3116C18.0756 16.0668 18.2403 15.825 18.4082 15.5847L17.5832 15.0171ZM17.0764 15.7548L17.0763 15.7549L17.9093 16.3111L17.9094 16.3109L17.0764 15.7548ZM17.0769 15.754C17.0475 15.7971 17.0062 15.8603 16.9747 15.933C16.9407 16.0113 16.9063 16.127 16.9238 16.266C16.9413 16.4051 17.0034 16.5093 17.0568 16.5779C17.1065 16.6418 17.1636 16.6937 17.2054 16.7299L17.8662 15.9801C17.8365 15.9544 17.8397 15.9541 17.8517 15.9696C17.8675 15.9898 17.9084 16.0497 17.9201 16.1427C17.9318 16.2356 17.907 16.3035 17.897 16.3266C17.8894 16.344 17.8864 16.3446 17.9086 16.3121L17.0769 15.754ZM17.2034 16.7282C17.3394 16.8474 17.4762 16.9656 17.6114 17.0824C17.747 17.1996 17.8811 17.3155 18.014 17.432L18.6788 16.6857C18.5428 16.5665 18.406 16.4483 18.2708 16.3315C18.1352 16.2143 18.0012 16.0984 17.8682 15.9819L17.2034 16.7282ZM18.0137 17.4318C18.0931 17.5015 18.2581 17.6321 18.4945 17.6347C18.7368 17.6374 18.9057 17.5051 18.99 17.4293L18.3155 16.6915C18.2848 16.7191 18.3587 16.6372 18.5057 16.6388C18.6468 16.6404 18.7162 16.7185 18.6791 16.686L18.0137 17.4318ZM18.9928 17.4267C19.1896 17.247 19.4137 17.0492 19.62 16.8562L18.931 16.1317C18.7277 16.3219 18.5303 16.4953 18.3127 16.694L18.9928 17.4267ZM23.8612 12.3086C24.0278 12.0663 24.1938 11.8243 24.3588 11.5808L23.5255 11.0252C23.3625 11.2658 23.198 11.5055 23.0317 11.7473L23.8612 12.3086ZM24.359 11.5805C24.3991 11.5213 24.5436 11.3208 24.5077 11.0627C24.4716 10.8026 24.2768 10.6484 24.2132 10.5962L23.573 11.3633C23.6008 11.3862 23.5964 11.3857 23.5828 11.3687C23.5655 11.3469 23.5256 11.2886 23.5131 11.1986C23.5006 11.1087 23.523 11.0419 23.5334 11.0169C23.5415 10.9975 23.5455 10.9956 23.5253 11.0255L24.359 11.5805ZM20.6774 15.2986C20.1191 14.8113 20.0648 13.9673 20.5562 13.4135L19.8024 12.7555C18.9448 13.7222 19.0395 15.1955 20.0141 16.0462L20.6774 15.2986ZM20.5562 13.4135C21.0475 12.8598 21.8983 12.8059 22.4565 13.2933L23.1198 12.5456C22.1453 11.6949 20.66 11.7889 19.8024 12.7555L20.5562 13.4135Z" fill="#FA5A28" fill-opacity="0.2"/>
</svg>
