<svg width="13" height="13" viewBox="0 0 13 13" fill="none" xmlns="http://www.w3.org/2000/svg">
    <path fill-rule="evenodd" clip-rule="evenodd" d="M0.293 1.29302C0.480528 1.10555 0.734836 1.00023 1 1.00023C1.26516 1.00023 1.51947 1.10555 1.707 1.29302L6 5.58602L10.293 1.29302C10.3852 1.19751 10.4956 1.12133 10.6176 1.06892C10.7396 1.01651 10.8708 0.988924 11.0036 0.98777C11.1364 0.986616 11.2681 1.01192 11.391 1.0622C11.5139 1.11248 11.6255 1.18673 11.7194 1.28062C11.8133 1.37452 11.8875 1.48617 11.9378 1.60907C11.9881 1.73196 12.0134 1.86364 12.0123 1.99642C12.0111 2.1292 11.9835 2.26042 11.9311 2.38242C11.8787 2.50443 11.8025 2.61477 11.707 2.70702L7.414 7.00002L11.707 11.293C11.8892 11.4816 11.99 11.7342 11.9877 11.9964C11.9854 12.2586 11.8802 12.5094 11.6948 12.6948C11.5094 12.8802 11.2586 12.9854 10.9964 12.9877C10.7342 12.99 10.4816 12.8892 10.293 12.707L6 8.41402L1.707 12.707C1.5184 12.8892 1.2658 12.99 1.0036 12.9877C0.741402 12.9854 0.49059 12.8802 0.305182 12.6948C0.119773 12.5094 0.0146042 12.2586 0.0123258 11.9964C0.0100473 11.7342 0.110842 11.4816 0.293 11.293L4.586 7.00002L0.293 2.70702C0.105529 2.51949 0.000213623 2.26518 0.000213623 2.00002C0.000213623 1.73486 0.105529 1.48055 0.293 1.29302Z" fill="black"/>
</svg>
