<?xml version="1.0" encoding="utf-8"?>
<svg width="53px" height="53px" viewBox="0 0 53 53" version="1.1" xmlns:xlink="http://www.w3.org/1999/xlink" xmlns="http://www.w3.org/2000/svg">
  <desc>Created with Lunacy</desc>
  <defs>
    <filter filterUnits="userSpaceOnUse" color-interpolation-filters="sRGB" id="filter_1">
      <feFlood flood-opacity="0" result="BackgroundImageFix" />
      <feColorMatrix in="SourceAlpha" type="matrix" values="0 0 0 0 0 0 0 0 0 0 0 0 0 0 0 0 0 0 127 0" />
      <feOffset dx="2" dy="2" />
      <feGaussianBlur stdDeviation="4" />
      <feColorMatrix type="matrix" values="0 0 0 0 0.3921569 0 0 0 0 0.3921569 0 0 0 0 0.3921569 0 0 0 0.1019608 0" />
      <feBlend mode="normal" in2="BackgroundImageFix" result="effect0_dropShadow" />
      <feBlend mode="normal" in="SourceGraphic" in2="effect0_dropShadow" result="shape" />
    </filter>
  </defs>
  <g id="right-arrow" transform="translate(1.5 1.5)">
    <g filter="url(#filter_1)">
      <path d="M24.7273 0L25.2727 0Q25.8797 0 26.486 0.0297851Q27.0923 0.0595702 27.6964 0.119069Q28.3005 0.178567 28.901 0.267635Q29.5014 0.356704 30.0968 0.475128Q30.6921 0.593551 31.281 0.741045Q31.8698 0.888539 32.4507 1.06475Q33.0316 1.24096 33.6031 1.44546Q34.1746 1.64995 34.7354 1.88225Q35.2962 2.11455 35.845 2.37408Q36.3937 2.63362 36.9291 2.91977Q37.4644 3.20591 37.9851 3.51798Q38.5057 3.83005 39.0105 4.1673Q39.5152 4.50454 40.0027 4.86614Q40.4903 5.22774 40.9595 5.61283Q41.4288 5.99792 41.8785 6.40557Q42.3283 6.81322 42.7575 7.24245Q43.1868 7.67168 43.5944 8.12145Q44.0021 8.57122 44.3872 9.04046Q44.7723 9.50969 45.1339 9.99725Q45.4955 10.4848 45.8327 10.9895Q46.1699 11.4943 46.482 12.0149Q46.7941 12.5356 47.0802 13.0709Q47.3664 13.6063 47.6259 14.155Q47.8854 14.7037 48.1177 15.2646Q48.35 15.8254 48.5545 16.3969Q48.759 16.9684 48.9352 17.5493Q49.1115 18.1302 49.259 18.719Q49.4064 19.3079 49.5249 19.9032Q49.6433 20.4986 49.7324 21.099Q49.8214 21.6995 49.8809 22.3036Q49.9404 22.9077 49.9702 23.514Q50 24.1203 50 24.7273L50 24.7293Q50 25.3363 49.9702 25.9426Q49.9404 26.5489 49.8809 27.153Q49.8214 27.7571 49.7324 28.3575Q49.6433 28.958 49.5249 29.5533Q49.4064 30.1487 49.2589 30.7375Q49.1115 31.3263 48.9352 31.9072Q48.759 32.4881 48.5545 33.0596Q48.35 33.6312 48.1177 34.192Q47.8854 34.7528 47.6259 35.3015Q47.3664 35.8503 47.0802 36.3856Q46.7941 36.921 46.482 37.4416Q46.1699 37.9623 45.8327 38.467Q45.4955 38.9717 45.1339 39.4593Q44.7722 39.9469 44.3872 40.4161Q44.0021 40.8853 43.5944 41.3351Q43.1868 41.7849 42.7575 42.2141Q42.3283 42.6433 41.8785 43.051Q41.4288 43.4586 40.9595 43.8437Q40.4903 44.2288 40.0027 44.5904Q39.5152 44.952 39.0105 45.2892Q38.5057 45.6265 37.9851 45.9386Q37.4644 46.2506 36.9291 46.5368Q36.3937 46.8229 35.845 47.0825Q35.2962 47.342 34.7354 47.5743Q34.1746 47.8066 33.6031 48.0111Q33.0316 48.2156 32.4507 48.3918Q31.8698 48.568 31.281 48.7155Q30.6921 48.863 30.0968 48.9814Q29.5014 49.0998 28.901 49.1889Q28.3005 49.278 27.6964 49.3375Q27.0923 49.397 26.486 49.4268Q25.8797 49.4566 25.2727 49.4566L24.7273 49.4566Q24.1203 49.4566 23.514 49.4268Q22.9077 49.397 22.3036 49.3375Q21.6995 49.278 21.099 49.1889Q20.4986 49.0998 19.9032 48.9814Q19.3079 48.863 18.719 48.7155Q18.1302 48.568 17.5493 48.3918Q16.9684 48.2156 16.3969 48.0111Q15.8254 47.8066 15.2646 47.5743Q14.7037 47.342 14.155 47.0825Q13.6063 46.8229 13.0709 46.5368Q12.5356 46.2506 12.0149 45.9386Q11.4943 45.6265 10.9895 45.2892Q10.4848 44.952 9.99725 44.5904Q9.50969 44.2288 9.04046 43.8437Q8.57122 43.4586 8.12145 43.051Q7.67168 42.6433 7.24245 42.2141Q6.81322 41.7849 6.40557 41.3351Q5.99792 40.8853 5.61283 40.4161Q5.22774 39.9469 4.86614 39.4593Q4.50454 38.9717 4.1673 38.467Q3.83005 37.9623 3.51798 37.4416Q3.20591 36.921 2.91977 36.3856Q2.63362 35.8503 2.37408 35.3015Q2.11455 34.7528 1.88225 34.192Q1.64995 33.6312 1.44546 33.0596Q1.24096 32.4881 1.06475 31.9072Q0.888539 31.3263 0.741045 30.7375Q0.593551 30.1487 0.475128 29.5533Q0.356704 28.958 0.267635 28.3575Q0.178567 27.7571 0.119069 27.153Q0.0595702 26.5489 0.0297851 25.9426Q0 25.3363 0 24.7293L0 24.7273Q0 24.1203 0.0297851 23.514Q0.0595702 22.9077 0.119069 22.3036Q0.178567 21.6995 0.267635 21.099Q0.356704 20.4986 0.475128 19.9032Q0.593551 19.3079 0.741045 18.719Q0.888539 18.1302 1.06475 17.5493Q1.24096 16.9684 1.44546 16.3969Q1.64995 15.8254 1.88225 15.2646Q2.11455 14.7037 2.37408 14.155Q2.63362 13.6063 2.91977 13.0709Q3.20591 12.5356 3.51798 12.0149Q3.83005 11.4943 4.1673 10.9895Q4.50454 10.4848 4.86614 9.99725Q5.22774 9.50969 5.61283 9.04046Q5.99792 8.57122 6.40557 8.12145Q6.81322 7.67168 7.24245 7.24245Q7.67168 6.81322 8.12145 6.40557Q8.57122 5.99792 9.04046 5.61283Q9.50969 5.22774 9.99725 4.86614Q10.4848 4.50454 10.9895 4.1673Q11.4943 3.83005 12.0149 3.51798Q12.5356 3.20591 13.0709 2.91977Q13.6063 2.63362 14.155 2.37408Q14.7037 2.11455 15.2646 1.88225Q15.8254 1.64995 16.3969 1.44546Q16.9684 1.24096 17.5493 1.06475Q18.1302 0.888539 18.719 0.741045Q19.3079 0.593551 19.9032 0.475128Q20.4986 0.356704 21.099 0.267635Q21.6995 0.178567 22.3036 0.119069Q22.9077 0.0595702 23.514 0.0297851Q24.1203 0 24.7273 0Z" id="Rectangle-2" fill="#FFFFFF" stroke="none" />
    </g>
    <path d="M0 10.8805L10.2667 21.7608M11 0L0 10.8804" transform="matrix(-1 0 0 1 32.00024 14.83679)" id="Line-2-Union-Copy" fill="none" stroke="#00CCB0" stroke-width="3" stroke-linecap="round" stroke-linejoin="round" />
  </g>
</svg>