<svg width="18" height="18" viewBox="0 0 18 18" fill="none" xmlns="http://www.w3.org/2000/svg">
<path fill-rule="evenodd" clip-rule="evenodd" d="M11.2823 12.9636C10.1145 13.7958 8.68561 14.2853 7.1424 14.2853C3.19803 14.2853 0.000488281 11.0874 0.000488281 7.14265C0.000488281 3.19787 3.19803 0 7.1424 0C11.0868 0 14.2843 3.19787 14.2843 7.14265C14.2843 8.68601 13.7949 10.115 12.9627 11.283L17.6552 15.9759C18.1175 16.4383 18.1137 17.1781 17.6551 17.6367L17.6354 17.6564C17.1779 18.1139 16.4333 18.1151 15.9748 17.6566L11.2823 12.9636ZM7.1425 12.6047C10.1588 12.6047 12.604 10.1593 12.604 7.14266C12.604 4.12607 10.1588 1.68063 7.1425 1.68063C4.12621 1.68063 1.68103 4.12607 1.68103 7.14266C1.68103 10.1593 4.12621 12.6047 7.1425 12.6047Z" fill="#000E1A"/>
</svg>
