<?xml version="1.0" encoding="UTF-8"?>
<svg width="130px" height="63px" viewBox="0 0 130 63" version="1.1" xmlns="http://www.w3.org/2000/svg" xmlns:xlink="http://www.w3.org/1999/xlink">
    <!-- Generator: Sketch 55.2 (78181) - https://sketchapp.com -->
    <title>Versicherungskammer_Bayern_logo 1</title>
    <desc>Created with Sketch.</desc>
    <defs>
        <rect id="path-1" x="0" y="0" width="131" height="64"></rect>
    </defs>
    <g id="Page-1" stroke="none" stroke-width="1" fill="none" fill-rule="evenodd">
        <g id="Case-study---deitals" transform="translate(-655.000000, -505.000000)">
            <g id="Header" transform="translate(-3.000000, -311.000000)">
                <g id="hero-section" transform="translate(314.000000, 535.000000)">
                    <g id="logo" transform="translate(305.000000, 245.000000)">
                        <g id="Versicherungskammer_Bayern_logo-1" transform="translate(39.000000, 36.000000)">
                            <mask id="mask-2" fill="white">
                                <use xlink:href="#path-1"></use>
                            </mask>
                            <g id="Versicherungskammer_Bayern_logo-1-(Background/Mask)"></g>
                            <g id="layer1" mask="url(#mask-2)" fill="#005AAA">
                                <path d="M27.5984467,63 L28.3168444,63 L28.3168444,0 L27.5984467,0 L27.5984467,63 Z M89.4704524,63 L90.1888501,63 L90.1888501,0 L89.4704524,0 L89.4704524,63 Z M30.6217038,16.4806313 C30.6216943,18.2666858 32.060894,18.9102439 33.4653616,19.312769 C33.7120306,19.3826879 33.975424,19.4634146 34.2136926,19.5236729 C35.2529843,19.7876136 36.1294199,20.0105595 36.1294199,20.6384505 C36.1294103,21.2988616 35.3858782,21.5423242 34.6926244,21.5423242 C33.5527571,21.5423339 33.0331256,21.1012339 32.9864298,20.1262554 L32.9864298,20.035868 L30.3523047,20.035868 L30.3523047,20.1262554 C30.3642493,22.3172454 31.9507397,23.6212339 34.5728914,23.6212339 C35.6217618,23.6212628 37.0441797,23.4259971 37.9553475,22.5064562 C38.4989351,21.9605165 38.7934782,21.233802 38.7934782,20.3371593 C38.7934878,18.5270014 37.259699,17.8762123 35.9498205,17.5050215 C35.6552678,17.4218748 35.3643263,17.3314778 35.0817565,17.2639885 C34.1023313,17.0265614 33.2558289,16.8457963 33.2558289,16.3299857 C33.2558193,16.1540412 33.3204847,15.9925395 33.4354283,15.8780488 C33.7012259,15.609297 34.1993246,15.5767575 34.393292,15.5767575 C34.7093678,15.5767768 35.2936838,15.6225538 35.6205548,15.9684362 C35.7834012,16.1395599 35.8420608,16.3890387 35.8300875,16.661406 L35.8300875,16.7216643 L38.4642126,16.7216643 L38.4642126,16.661406 C38.4582451,15.6430513 38.0379632,14.7825538 37.2369497,14.2209469 C36.5509086,13.7388713 35.5978056,13.4978479 34.5728914,13.4978479 C32.604472,13.4978576 30.6217038,14.4149786 30.6217038,16.4806313 Z M45.2590579,18.5595409 C45.2590483,19.9791964 45.7739096,21.277188 46.6958534,22.205165 C47.6214179,23.1379434 48.8714012,23.6212339 50.3177753,23.6212339 C52.9973892,23.6212628 54.8197345,22.0689814 54.9574274,19.6441894 L54.9574274,19.553802 L52.2035694,19.553802 L52.2035694,19.6140603 C52.1065857,20.705959 51.4061479,21.3012912 50.2579089,21.3012912 C49.6472899,21.3012816 49.1695363,21.10967 48.7911801,20.7288379 C48.3086659,20.2431757 48.0428491,19.4826973 48.0428491,18.5595409 C48.04283,17.6363556 48.3086563,16.8445911 48.7911801,16.3601148 C49.1695458,15.9780678 49.6472708,15.7876614 50.2579089,15.7876614 C51.3558793,15.7876518 52.0742578,16.3119082 52.2035694,17.2037303 L52.2035694,17.2639885 L54.9574274,17.2639885 L54.9574274,17.1736011 C54.886785,14.8596746 52.5424137,13.4978479 50.3177753,13.4978479 C50.1346605,13.4978479 49.9554921,13.4815252 49.778977,13.4978479 C47.1312216,13.7426989 45.2590579,15.8061149 45.2590579,18.5595409 Z M111.950315,18.7403156 C111.950315,21.2325969 113.63624,23.5609949 116.470176,23.5609756 C117.588673,23.5609756 118.761971,23.1500432 119.493491,22.1449067 L119.702966,23.3500717 L120.630955,23.3500717 L120.630955,18.2883788 L116.470176,18.2883788 L116.470176,19.3730273 L119.493491,19.3730273 C119.57376,21.1144907 118.426708,22.506437 116.470176,22.5064562 C114.354638,22.5064562 113.207511,20.6770157 113.207511,18.6800574 C113.207511,16.6300717 114.169004,14.6126255 116.470176,14.6126255 C117.881971,14.6126255 119.030058,15.2742611 119.283988,16.7216643 L120.541096,16.7216643 C120.181993,14.4836729 118.546441,13.5581158 116.470176,13.5581062 C116.282435,13.5581062 116.07775,13.5397587 115.901503,13.5581062 C113.257607,13.8332502 111.950315,16.1269876 111.950315,18.7403156 Z M122.636511,16.3299857 C122.636415,18.0847059 124.172645,18.555935 125.689614,18.8909613 C127.206774,19.2259971 128.712929,19.4453179 128.712929,20.758967 C128.712929,22.1388809 127.462917,22.506437 126.31827,22.5064562 C124.881475,22.5064562 123.53442,21.7942326 123.53442,20.1865136 L122.337091,20.1865136 C122.337187,22.5185079 124.159522,23.5609949 126.288278,23.5609756 C128.017414,23.5609756 130,22.7354279 130,20.6987088 C130,18.8222669 128.46377,18.3052511 126.946897,17.9569584 C125.416614,17.6086657 123.893619,17.4182689 123.893619,16.2395983 C123.893715,14.9934577 124.983285,14.6126255 126.048812,14.6126255 C127.352848,14.6126255 128.237523,15.2043905 128.383693,16.5710187 L129.581022,16.5710187 C129.500658,14.4668007 128.022022,13.5581158 126.078804,13.5581062 C124.348615,13.5581062 122.636511,14.3872499 122.636511,16.3299857 Z M40.7092055,23.41033 L43.3433306,23.41033 L43.3433306,13.6786227 L40.7092055,13.6786227 L40.7092055,23.41033 Z M56.9928877,23.41033 L59.6868792,23.41033 L59.6868792,19.4935438 L63.4884006,19.4935438 L63.4884006,23.41033 L66.1823922,23.41033 L66.1823922,13.6786227 L63.4884006,13.6786227 L63.4884006,17.1736011 L59.6868792,17.1736011 L59.6868792,13.6786227 L56.9928877,13.6786227 L56.9928877,23.41033 Z M68.7566508,23.41033 L76.6290927,23.41033 L76.6290927,21.1205165 L71.3907758,21.1205165 L71.3907758,19.4634146 L76.0603612,19.4634146 L76.0603612,17.3543759 L71.3907758,17.3543759 L71.3907758,15.8479197 L76.5093598,15.8479197 L76.5093598,13.6786227 L68.7566508,13.6786227 L68.7566508,23.41033 Z M78.8740857,23.41033 L81.5082107,23.41033 L81.5082107,19.9454806 L83.3042051,19.9454806 C84.3949532,19.9454903 84.5254813,20.8626112 84.5913344,21.8134864 C84.5961173,21.864926 84.646006,22.3972072 84.7410006,23.41033 L87.2853259,23.41033 C87.2853547,23.4103203 87.0877665,21.3531133 87.0757932,21.1807747 C86.9656293,19.926198 86.5429816,19.1259684 85.8185972,18.8608321 C86.6722932,18.4498998 87.1955262,17.5387661 87.1955262,16.4505022 C87.1955262,15.7057006 86.9464817,15.1151793 86.4771285,14.6427547 C85.8748908,14.0365374 84.9229947,13.6786227 83.7831369,13.6786227 L78.8740857,13.6786227 L78.8740857,23.41033 Z M3.35252281,23.3500717 L4.78931829,23.3500717 L8.17177434,13.76901 L6.85471181,13.76901 L4.10085379,22.0545194 L4.07092055,22.0545194 L1.37692901,13.76901 L0,13.76901 L3.35252281,23.3500717 Z M9.42897039,23.3500717 L16.0442163,23.3500717 L16.0442163,22.2654232 L10.7160997,22.2654232 L10.7160997,18.9512195 L15.6251509,18.9512195 L15.6251509,17.8967001 L10.7160997,17.8967001 L10.7160997,14.8536585 L15.9843498,14.8536585 L15.9843498,13.76901 L9.42897039,13.76901 L9.42897039,23.3500717 Z M17.9599436,23.3500717 L19.2171397,23.3500717 L19.2171397,19.2525108 L22.3301965,19.2525108 C23.5538674,19.2525108 23.7502198,20.0322718 23.886725,20.9698709 C24.0280099,21.9436442 24.067493,22.8920898 24.1860574,23.3500717 L25.4432534,23.3199426 C25.3151392,22.5016356 25.2049753,21.6098424 25.0840546,20.6987088 C24.9595323,19.7635007 24.7811302,18.9548157 23.6771923,18.7403156 L23.6771923,18.7101865 C24.8206421,18.3884075 25.3235492,17.4218555 25.3235205,16.2697274 C25.3235205,14.7427833 24.2327341,13.76901 22.4499295,13.76901 L17.9599436,13.76901 L17.9599436,23.3500717 Z M92.4637763,19.8852224 C92.4637763,22.4317359 93.9365012,23.5609949 96.3850307,23.5609756 C98.7533487,23.5609756 100.096743,22.2979917 100.096752,19.8852224 L100.096752,13.76901 L98.8395563,13.76901 L98.8395563,19.8852224 C98.8395563,21.5736586 97.9810806,22.5064562 96.3850307,22.5064562 C94.7075719,22.5064562 93.7209628,21.5736874 93.7209724,19.8852224 L93.7209724,13.76901 L92.4637763,13.76901 L92.4637763,19.8852224 Z M102.521345,23.3500717 L103.718674,23.3500717 L103.718674,15.6671449 L103.748608,15.6671449 L108.717525,23.3500717 L110.094454,23.3500717 L110.094454,13.76901 L108.897125,13.76901 L108.897125,21.5423242 L108.867191,21.5423242 L103.868341,13.76901 L102.521345,13.76901 L102.521345,23.3500717 Z M22.3601298,14.8536585 C23.545486,14.8536585 24.0663053,15.5430129 24.0663244,16.4806313 C24.0663244,17.8738021 23.0354428,18.1678526 21.8512647,18.1678623 L19.2171397,18.1678623 L19.2171397,14.8536585 L22.3601298,14.8536585 Z M83.3940048,15.8479197 C83.7927251,15.8479486 84.1207839,15.9768723 84.3219352,16.17934 C84.4799827,16.3396366 84.5614011,16.5505308 84.5614011,16.8120516 C84.5614011,17.4941847 84.1782557,17.8364419 83.4838045,17.8364419 L81.5082107,17.8364419 L81.5082107,15.8479197 L83.3940048,15.8479197 Z M30.5019709,36.9684362 L32.89663,36.9684362 L32.89663,33.9555237 L33.7048275,33.0215208 L35.8300875,36.9684362 L38.8234114,36.9684362 L41.3078703,36.9684362 L41.8167354,35.251076 L44.7801261,35.251076 L45.3488576,36.9684362 L48.0428491,36.9684362 L44.4209272,27.2367288 L41.9963348,27.2367288 L38.7934782,36.938307 L35.3212224,31.0932568 L38.9132111,27.2367288 L35.6504881,27.2367288 L32.89663,30.7618364 L32.89663,27.2367288 L30.5019709,27.2367288 L30.5019709,36.9684362 Z M48.6415139,36.9684362 L51.0062398,36.9684362 L51.0062398,31.7560976 L52.8920339,34.7388809 L52.9219672,34.7388809 L54.777828,31.8163558 L54.777828,36.9684362 L57.1425539,36.9684362 L57.1425539,27.2367288 L54.8077612,27.2367288 L52.8920339,31.0028694 L50.9463734,27.2367288 L48.6415139,27.2367288 L48.6415139,36.9684362 Z M59.0582812,36.9684362 L61.3930739,36.9684362 L61.3930739,31.7560976 L63.278868,34.7388809 L63.3088012,34.7388809 L65.1945953,31.8163558 L65.1945953,36.9684362 L67.529388,36.9684362 L67.529388,27.2367288 L65.1945953,27.2367288 L63.3088012,31.0028694 L61.3631407,27.2367288 L59.0582812,27.2367288 L59.0582812,36.9684362 Z M69.4451153,36.9684362 L77.287624,36.9684362 L77.287624,34.6484935 L72.0792403,34.6484935 L72.0792403,32.9913917 L76.7188924,32.9913917 L76.7188924,30.9124821 L72.0792403,30.9124821 L72.0792403,29.4060258 L77.167891,29.4060258 L77.167891,27.2367288 L69.4451153,27.2367288 L69.4451153,36.9684362 Z M78.8740857,36.9684362 L81.5082107,36.9684362 L81.5082107,33.4734577 L83.3042051,33.4734577 C84.3949532,33.4734577 84.5254813,34.3905883 84.5913344,35.3414634 C84.5961173,35.3928774 84.646006,35.9352016 84.7410006,36.9684362 L87.2853259,36.9684362 C87.2853547,36.9684169 87.0877665,34.8798852 87.0757932,34.7087518 C86.9656293,33.4542039 86.5429816,32.6539455 85.8185972,32.3888092 C86.6722932,31.9766331 87.1955262,31.0956672 87.1955262,30.0086083 C87.1955262,29.2626208 86.9464817,28.6431564 86.4771285,28.1707317 C85.8748908,27.5633382 84.9229947,27.2367288 83.7831369,27.2367288 L78.8740857,27.2367288 L78.8740857,36.9684362 Z M83.3940048,29.3758967 C83.7927251,29.375916 84.1207839,29.5048494 84.3219352,29.7073171 C84.4799827,29.8675847 84.5614011,30.0785079 84.5614011,30.3400287 C84.5614011,31.0221328 84.1782557,31.3644189 83.4838045,31.3644189 L81.5082107,31.3644189 L81.5082107,29.3758967 L83.3940048,29.3758967 Z M44.151528,33.2324247 L42.3555337,33.2324247 L43.2235976,30.1592539 L44.151528,33.2324247 Z M30.4121712,50.4964132 L35.0817565,50.4964132 C36.4622871,50.4964132 37.477613,50.1637876 38.1050137,49.5322812 C38.6067044,49.0261312 38.8533447,48.3463988 38.8533447,47.4533716 C38.8533447,46.3952464 38.2558772,45.513056 37.3267495,45.1635581 C38.0379536,44.7405548 38.4642126,44.0222669 38.4642126,43.2352941 C38.4642413,42.5507508 38.2462986,42.014462 37.8356145,41.6083214 C37.2537315,41.031028 36.3030327,40.7430129 34.9620236,40.7647059 C34.962809,40.7646866 33.4461915,40.7646866 30.4121712,40.7647059 L30.4121712,50.4964132 Z M39.5717424,50.4964132 L42.0861345,50.4964132 L42.5949996,48.7790531 L45.5583903,48.7790531 L46.1271218,50.4964132 L48.8211134,50.4964132 L45.1991914,40.7647059 L42.774599,40.7647059 L39.5717424,50.4964132 Z M51.0960396,46.8809182 L51.0960396,50.4964132 L53.7600979,50.4964132 L53.7600979,46.8809182 L57.2622869,40.7647059 L54.2689629,40.7647059 L52.4430353,44.5308465 L50.5871745,40.7647059 L47.5938506,40.7647059 L51.0960396,46.8809182 Z M58.160284,50.4964132 L66.032726,50.4964132 L66.032726,48.1764706 L60.7944091,48.1764706 L60.7944091,46.5193687 L65.4639944,46.5193687 L65.4639944,44.4404591 L60.7944091,44.4404591 L60.7944091,42.9340029 L65.8830598,42.9340029 L65.8830598,40.7647059 L58.160284,40.7647059 L58.160284,50.4964132 Z M68.1879192,50.4964132 L70.8220443,50.4964132 L70.8220443,47.0014347 L72.6180386,47.0014347 C73.7088346,47.0014251 73.869248,47.9486944 73.9351012,48.8995696 C73.9398905,48.9509964 73.9897792,49.4832776 74.0847674,50.4964132 L76.6290927,50.4964132 C76.6291023,50.4963843 76.430336,48.4090674 76.41956,48.2367288 C76.309377,46.9821424 75.8580125,46.2120517 75.1324307,45.9469154 C75.9861459,45.5359637 76.5093598,44.6248493 76.5093598,43.5365854 C76.5093789,42.7918223 76.2902485,42.1711334 75.8208953,41.6987088 C75.2186193,41.0925397 74.2667615,40.7647059 73.1269037,40.7647059 L68.1879192,40.7647059 L68.1879192,50.4964132 Z M78.8441524,50.4964132 L81.3286113,50.4964132 L81.3286113,44.7116212 L84.5015347,50.4662841 L84.5314679,50.4964132 L87.1955262,50.4964132 L87.1955262,40.7647059 L84.8008671,40.7647059 L84.7110673,40.7647059 L84.7110673,46.4892396 L81.538144,40.794835 L81.5082107,40.7647059 L78.8441524,40.7647059 L78.8441524,50.4964132 Z M34.9021571,42.8436155 C35.1188737,42.8436059 35.4206008,42.9135151 35.6205548,43.1147776 C35.7606424,43.2557916 35.8300875,43.4305308 35.8300875,43.687231 C35.8300588,44.3416549 35.246988,44.5308465 34.9021571,44.5308465 L33.0762295,44.5308465 L33.0762295,42.8436155 L34.9021571,42.8436155 Z M72.7078384,42.9340029 C73.1053422,42.9340125 73.4346174,43.0328264 73.6357688,43.2352941 C73.7938354,43.3955811 73.8752347,43.6064849 73.8752347,43.8680057 C73.8752251,44.5501291 73.5208251,44.9225251 72.8275713,44.9225251 L70.8220443,44.9225251 L70.8220443,42.9340029 L72.7078384,42.9340029 Z M44.9297923,46.7604017 L43.1337979,46.7604017 L44.0018618,43.687231 L44.9297923,46.7604017 Z M34.9620236,46.3084648 C35.4146429,46.3084456 35.7426824,46.4012626 35.9498205,46.6097561 C36.1186343,46.7809088 36.2192196,47.0195122 36.2192196,47.3328551 C36.2192196,47.9993017 35.8025489,48.3271162 34.9620236,48.3271162 L33.0762295,48.3271162 L33.0762295,46.3084648 L34.9620236,46.3084648 Z" id="path2614"></path>
                            </g>
                        </g>
                    </g>
                </g>
            </g>
        </g>
    </g>
</svg>