<svg width="404" height="69" viewBox="0 0 404 69" fill="none" xmlns="http://www.w3.org/2000/svg">
<path d="M14.7363 2.49658C8.10891 2.49658 2.73633 7.86917 2.73633 14.4966V54.4966C2.73633 61.124 8.1089 66.4966 14.7363 66.4966H390C396.627 66.4966 402 61.124 402 54.4966V14.4966C402 7.86917 396.627 2.49658 390 2.49658H14.7363Z" fill="#5E3894" stroke="white" stroke-width="4"/>
<g clip-path="url(#clip0_130_2768)">
<path fill-rule="evenodd" clip-rule="evenodd" d="M58.498 26.7989C56.6728 24.111 53.5476 22.3388 49.9988 22.3388C44.8117 22.3388 40.913 26.1705 40.3911 29.4372C40.2735 30.1733 39.9173 31.8523 39.9173 31.8523C39.9173 31.8523 38.7609 31.4955 38.3907 31.434C38.1393 31.3922 37.9263 31.3047 37.6888 31.2072C37.2237 31.0161 36.6645 30.7866 35.5388 30.7866C32.383 30.7866 29.8246 33.2863 29.8246 36.3699C29.8246 39.4536 32.383 41.9534 35.5388 41.9534H42.3702C42.4052 42.917 42.5352 43.8571 42.7516 44.7647H35.5392C30.8002 44.7647 26.9585 41.011 26.9585 36.3805C26.9585 31.7499 30.8002 27.9961 35.5392 27.9961C36.24 27.9961 36.9213 28.0782 37.5734 28.2331C39.2959 23.2263 44.1383 19.6198 49.8429 19.6198C55.2278 19.6198 59.8446 22.8336 61.7938 27.4053C60.74 27.0883 59.6367 26.8816 58.498 26.7989Z" fill="white"/>
<path d="M38.0846 17.3747C39.1366 17.3747 39.9894 16.5415 39.9894 15.5136C39.9894 14.4857 39.1366 13.6525 38.0846 13.6525C37.0327 13.6525 36.1799 14.4857 36.1799 15.5136C36.1799 16.5415 37.0327 17.3747 38.0846 17.3747Z" fill="white"/>
<path d="M24.7516 28.5415C25.8036 28.5415 26.6563 27.7082 26.6563 26.6803C26.6563 25.6525 25.8036 24.8192 24.7516 24.8192C23.6997 24.8192 22.8469 25.6525 22.8469 26.6803C22.8469 27.7082 23.6997 28.5415 24.7516 28.5415Z" fill="white"/>
<path d="M28.5617 19.2394C29.6136 19.2394 30.4664 18.4061 30.4664 17.3782C30.4664 16.3503 29.6136 15.5171 28.5617 15.5171C27.5097 15.5171 26.657 16.3503 26.657 17.3782C26.657 18.4061 27.5097 19.2394 28.5617 19.2394Z" fill="white"/>
<path d="M57.6954 29.1006C50.4506 29.1006 44.5229 34.8926 44.5229 41.9717C44.5229 49.0508 50.4506 54.8428 57.6954 54.8428C64.9403 54.8428 70.8679 49.0508 70.8679 41.9717C70.8679 34.8926 64.9403 29.1006 57.6954 29.1006ZM50.3565 49.1427C48.3806 47.2121 47.3456 44.6378 47.3456 42.1556L57.6013 52.0847C54.9668 51.9928 52.3323 51.0734 50.3565 49.1427ZM59.9535 51.8089L47.6279 39.7652C48.6629 35.2603 52.8028 31.8587 57.6954 31.8587C61.1767 31.8587 64.1875 33.5135 66.0693 35.9958L64.658 37.191C63.0585 35.0765 60.5181 33.6974 57.6954 33.6974C54.0259 33.6974 50.921 35.9958 49.6978 39.2136L60.5181 49.7863C63.2467 48.8669 65.3166 46.5685 65.9752 43.8104H61.459V41.9717H68.0452C68.0452 46.7524 64.5639 50.7976 59.9535 51.8089Z" fill="white"/>
<ellipse cx="35.3735" cy="25.0295" rx="5.58619" ry="5.53202" fill="white"/>
</g>
<line x1="91.7363" y1="4.5365" x2="91.7363" y2="64.4966" stroke="#4E3081" stroke-width="2"/>
<path d="M111.964 43.5166V27.2166H116.564C117.814 27.2166 118.939 27.3749 119.939 27.6916C120.939 28.0083 121.797 28.4999 122.514 29.1666C123.23 29.8166 123.78 30.6499 124.164 31.6666C124.547 32.6833 124.739 33.8916 124.739 35.2916C124.739 36.6916 124.547 37.9083 124.164 38.9416C123.78 39.9749 123.239 40.8333 122.539 41.5166C121.839 42.1833 120.997 42.6833 120.014 43.0166C119.047 43.3499 117.964 43.5166 116.764 43.5166H111.964ZM115.639 40.5416H116.339C117.039 40.5416 117.672 40.4499 118.239 40.2666C118.805 40.0833 119.289 39.7916 119.689 39.3916C120.089 38.9749 120.397 38.4333 120.614 37.7666C120.847 37.0999 120.964 36.2749 120.964 35.2916C120.964 34.3249 120.847 33.5166 120.614 32.8666C120.397 32.1999 120.089 31.6749 119.689 31.2916C119.289 30.8916 118.805 30.6083 118.239 30.4416C117.672 30.2749 117.039 30.1916 116.339 30.1916H115.639V40.5416ZM133.083 43.8166C132.199 43.8166 131.374 43.6749 130.608 43.3916C129.841 43.0916 129.174 42.6666 128.608 42.1166C128.041 41.5499 127.599 40.8666 127.283 40.0666C126.966 39.2666 126.808 38.3499 126.808 37.3166C126.808 36.3166 126.974 35.4166 127.308 34.6166C127.641 33.7999 128.074 33.1166 128.608 32.5666C129.158 31.9999 129.783 31.5666 130.483 31.2666C131.183 30.9666 131.908 30.8166 132.658 30.8166C133.541 30.8166 134.308 30.9666 134.958 31.2666C135.624 31.5666 136.174 31.9833 136.608 32.5166C137.058 33.0499 137.391 33.6833 137.608 34.4166C137.824 35.1333 137.933 35.9166 137.933 36.7666C137.933 37.0999 137.916 37.4166 137.883 37.7166C137.849 38.0166 137.816 38.2416 137.783 38.3916H130.358C130.524 39.2916 130.891 39.9583 131.458 40.3916C132.041 40.8083 132.749 41.0166 133.583 41.0166C134.466 41.0166 135.358 40.7416 136.258 40.1916L137.483 42.4166C136.849 42.8499 136.141 43.1916 135.358 43.4416C134.591 43.6916 133.833 43.8166 133.083 43.8166ZM130.333 35.9666H134.808C134.808 35.2666 134.649 34.6999 134.333 34.2666C134.016 33.8333 133.483 33.6166 132.733 33.6166C132.149 33.6166 131.633 33.8083 131.183 34.1916C130.749 34.5749 130.466 35.1666 130.333 35.9666ZM140.472 48.1166V31.1166H143.472L143.722 32.3416H143.822C144.306 31.9083 144.847 31.5499 145.447 31.2666C146.064 30.9666 146.697 30.8166 147.347 30.8166C148.097 30.8166 148.772 30.9666 149.372 31.2666C149.972 31.5666 150.481 31.9916 150.897 32.5416C151.314 33.0916 151.631 33.7583 151.847 34.5416C152.081 35.3083 152.197 36.1666 152.197 37.1166C152.197 38.1833 152.047 39.1333 151.747 39.9666C151.464 40.7833 151.072 41.4833 150.572 42.0666C150.089 42.6333 149.531 43.0666 148.897 43.3666C148.281 43.6666 147.639 43.8166 146.972 43.8166C146.439 43.8166 145.922 43.7083 145.422 43.4916C144.922 43.2583 144.456 42.9333 144.022 42.5166L144.147 44.4916V48.1166H140.472ZM146.122 40.8166C146.756 40.8166 147.297 40.5333 147.747 39.9666C148.197 39.3833 148.422 38.4499 148.422 37.1666C148.422 34.9333 147.706 33.8166 146.272 33.8166C145.556 33.8166 144.847 34.1916 144.147 34.9416V40.0166C144.481 40.3166 144.814 40.5249 145.147 40.6416C145.481 40.7583 145.806 40.8166 146.122 40.8166ZM158.178 43.8166C157.545 43.8166 157.012 43.7166 156.578 43.5166C156.145 43.3166 155.795 43.0416 155.528 42.6916C155.278 42.3249 155.095 41.8916 154.978 41.3916C154.862 40.8749 154.803 40.2999 154.803 39.6666V25.9916H158.478V39.8166C158.478 40.1999 158.545 40.4666 158.678 40.6166C158.828 40.7666 158.978 40.8416 159.128 40.8416C159.212 40.8416 159.278 40.8416 159.328 40.8416C159.395 40.8416 159.478 40.8249 159.578 40.7916L160.028 43.5166C159.828 43.5999 159.57 43.6666 159.253 43.7166C158.953 43.7833 158.595 43.8166 158.178 43.8166ZM167.282 43.8166C166.498 43.8166 165.74 43.6749 165.007 43.3916C164.273 43.0916 163.623 42.6666 163.057 42.1166C162.507 41.5666 162.065 40.8916 161.732 40.0916C161.398 39.2749 161.232 38.3499 161.232 37.3166C161.232 36.2833 161.398 35.3666 161.732 34.5666C162.065 33.7499 162.507 33.0666 163.057 32.5166C163.623 31.9666 164.273 31.5499 165.007 31.2666C165.74 30.9666 166.498 30.8166 167.282 30.8166C168.065 30.8166 168.815 30.9666 169.532 31.2666C170.265 31.5499 170.907 31.9666 171.457 32.5166C172.023 33.0666 172.473 33.7499 172.807 34.5666C173.14 35.3666 173.307 36.2833 173.307 37.3166C173.307 38.3499 173.14 39.2749 172.807 40.0916C172.473 40.8916 172.023 41.5666 171.457 42.1166C170.907 42.6666 170.265 43.0916 169.532 43.3916C168.815 43.6749 168.065 43.8166 167.282 43.8166ZM167.282 40.8416C168.032 40.8416 168.598 40.5249 168.982 39.8916C169.365 39.2583 169.557 38.3999 169.557 37.3166C169.557 36.2333 169.365 35.3749 168.982 34.7416C168.598 34.1083 168.032 33.7916 167.282 33.7916C166.515 33.7916 165.94 34.1083 165.557 34.7416C165.19 35.3749 165.007 36.2333 165.007 37.3166C165.007 38.3999 165.19 39.2583 165.557 39.8916C165.94 40.5249 166.515 40.8416 167.282 40.8416ZM177.003 48.3666C176.62 48.3666 176.295 48.3416 176.028 48.2916C175.762 48.2583 175.503 48.1999 175.253 48.1166L175.903 45.3166C176.02 45.3499 176.153 45.3833 176.303 45.4166C176.453 45.4499 176.595 45.4666 176.728 45.4666C177.345 45.4666 177.82 45.3166 178.153 45.0166C178.487 44.7166 178.737 44.3249 178.903 43.8416L179.078 43.1916L174.303 31.1166H178.003L179.778 36.4416C179.962 37.0083 180.128 37.5833 180.278 38.1666C180.428 38.7499 180.587 39.3499 180.753 39.9666H180.853C180.987 39.3833 181.12 38.7999 181.253 38.2166C181.403 37.6166 181.553 37.0249 181.703 36.4416L183.203 31.1166H186.728L182.428 43.6416C182.128 44.4249 181.812 45.1083 181.478 45.6916C181.162 46.2916 180.787 46.7833 180.353 47.1666C179.937 47.5666 179.453 47.8666 178.903 48.0666C178.37 48.2666 177.737 48.3666 177.003 48.3666ZM198.445 43.8166C197.679 43.8166 197.02 43.6999 196.47 43.4666C195.937 43.2333 195.495 42.9083 195.145 42.4916C194.812 42.0749 194.562 41.5749 194.395 40.9916C194.245 40.3916 194.17 39.7333 194.17 39.0166V33.9916H192.47V31.2666L194.37 31.1166L194.795 27.8166H197.845V31.1166H200.82V33.9916H197.845V38.9666C197.845 39.6666 197.987 40.1749 198.27 40.4916C198.57 40.7916 198.962 40.9416 199.445 40.9416C199.645 40.9416 199.845 40.9166 200.045 40.8666C200.262 40.8166 200.454 40.7583 200.62 40.6916L201.195 43.3666C200.862 43.4666 200.47 43.5666 200.02 43.6666C199.57 43.7666 199.045 43.8166 198.445 43.8166ZM208.126 43.8166C207.343 43.8166 206.585 43.6749 205.851 43.3916C205.118 43.0916 204.468 42.6666 203.901 42.1166C203.351 41.5666 202.91 40.8916 202.576 40.0916C202.243 39.2749 202.076 38.3499 202.076 37.3166C202.076 36.2833 202.243 35.3666 202.576 34.5666C202.91 33.7499 203.351 33.0666 203.901 32.5166C204.468 31.9666 205.118 31.5499 205.851 31.2666C206.585 30.9666 207.343 30.8166 208.126 30.8166C208.91 30.8166 209.66 30.9666 210.376 31.2666C211.11 31.5499 211.751 31.9666 212.301 32.5166C212.868 33.0666 213.318 33.7499 213.651 34.5666C213.985 35.3666 214.151 36.2833 214.151 37.3166C214.151 38.3499 213.985 39.2749 213.651 40.0916C213.318 40.8916 212.868 41.5666 212.301 42.1166C211.751 42.6666 211.11 43.0916 210.376 43.3916C209.66 43.6749 208.91 43.8166 208.126 43.8166ZM208.126 40.8416C208.876 40.8416 209.443 40.5249 209.826 39.8916C210.21 39.2583 210.401 38.3999 210.401 37.3166C210.401 36.2333 210.21 35.3749 209.826 34.7416C209.443 34.1083 208.876 33.7916 208.126 33.7916C207.36 33.7916 206.785 34.1083 206.401 34.7416C206.035 35.3749 205.851 36.2333 205.851 37.3166C205.851 38.3999 206.035 39.2583 206.401 39.8916C206.785 40.5249 207.36 40.8416 208.126 40.8416ZM229.173 43.8166C228.057 43.8166 227.007 43.6416 226.023 43.2916C225.057 42.9249 224.215 42.3916 223.498 41.6916C222.782 40.9916 222.215 40.1249 221.798 39.0916C221.398 38.0416 221.198 36.8333 221.198 35.4666C221.198 34.1166 221.407 32.9166 221.823 31.8666C222.24 30.7999 222.807 29.8999 223.523 29.1666C224.257 28.4333 225.107 27.8749 226.073 27.4916C227.04 27.1083 228.065 26.9166 229.148 26.9166C230.332 26.9166 231.348 27.1333 232.198 27.5666C233.048 27.9999 233.74 28.4916 234.273 29.0416L232.348 31.3916C231.932 31.0249 231.49 30.7166 231.023 30.4666C230.557 30.2166 229.973 30.0916 229.273 30.0916C228.64 30.0916 228.057 30.2166 227.523 30.4666C227.007 30.6999 226.557 31.0416 226.173 31.4916C225.79 31.9416 225.49 32.4916 225.273 33.1416C225.073 33.7916 224.973 34.5249 224.973 35.3416C224.973 37.0249 225.348 38.3333 226.098 39.2666C226.865 40.1833 228.015 40.6416 229.548 40.6416C229.882 40.6416 230.207 40.5999 230.523 40.5166C230.84 40.4333 231.098 40.3083 231.298 40.1416V37.3416H228.598V34.3416H234.548V41.8416C233.982 42.3916 233.232 42.8583 232.298 43.2416C231.365 43.6249 230.323 43.8166 229.173 43.8166ZM240.741 43.8166C240.174 43.8166 239.657 43.7166 239.191 43.5166C238.741 43.3333 238.357 43.0749 238.041 42.7416C237.724 42.3916 237.474 41.9916 237.291 41.5416C237.124 41.0916 237.041 40.5999 237.041 40.0666C237.041 38.7666 237.591 37.7499 238.691 37.0166C239.791 36.2833 241.566 35.7916 244.016 35.5416C243.982 34.9916 243.816 34.5583 243.516 34.2416C243.232 33.9083 242.749 33.7416 242.066 33.7416C241.532 33.7416 240.999 33.8416 240.466 34.0416C239.949 34.2416 239.391 34.5166 238.791 34.8666L237.466 32.4416C238.266 31.9583 239.099 31.5666 239.966 31.2666C240.849 30.9666 241.782 30.8166 242.766 30.8166C244.366 30.8166 245.582 31.2749 246.416 32.1916C247.266 33.0916 247.691 34.4999 247.691 36.4166V43.5166H244.691L244.441 42.2416H244.341C243.807 42.7083 243.249 43.0916 242.666 43.3916C242.082 43.6749 241.441 43.8166 240.741 43.8166ZM241.991 40.9666C242.407 40.9666 242.766 40.8749 243.066 40.6916C243.366 40.5083 243.682 40.2499 244.016 39.9166V37.7416C242.716 37.9249 241.816 38.1916 241.316 38.5416C240.816 38.8916 240.566 39.3083 240.566 39.7916C240.566 40.1916 240.691 40.4916 240.941 40.6916C241.207 40.8749 241.557 40.9666 241.991 40.9666ZM255.135 43.8166C254.368 43.8166 253.71 43.6999 253.16 43.4666C252.627 43.2333 252.185 42.9083 251.835 42.4916C251.502 42.0749 251.252 41.5749 251.085 40.9916C250.935 40.3916 250.86 39.7333 250.86 39.0166V33.9916H249.16V31.2666L251.06 31.1166L251.485 27.8166H254.535V31.1166H257.51V33.9916H254.535V38.9666C254.535 39.6666 254.677 40.1749 254.96 40.4916C255.26 40.7916 255.652 40.9416 256.135 40.9416C256.335 40.9416 256.535 40.9166 256.735 40.8666C256.952 40.8166 257.143 40.7583 257.31 40.6916L257.885 43.3666C257.552 43.4666 257.16 43.5666 256.71 43.6666C256.26 43.7666 255.735 43.8166 255.135 43.8166ZM263.336 43.8166C262.519 43.8166 261.678 43.6583 260.811 43.3416C259.961 43.0249 259.219 42.6083 258.586 42.0916L260.236 39.7916C260.803 40.2249 261.344 40.5499 261.861 40.7666C262.378 40.9833 262.903 41.0916 263.436 41.0916C263.986 41.0916 264.386 40.9999 264.636 40.8166C264.886 40.6333 265.011 40.3749 265.011 40.0416C265.011 39.8416 264.936 39.6666 264.786 39.5166C264.653 39.3499 264.461 39.1999 264.211 39.0666C263.978 38.9333 263.711 38.8166 263.411 38.7166C263.111 38.5999 262.803 38.4749 262.486 38.3416C262.103 38.1916 261.719 38.0166 261.336 37.8166C260.953 37.6166 260.603 37.3749 260.286 37.0916C259.969 36.7916 259.711 36.4499 259.511 36.0666C259.311 35.6666 259.211 35.2083 259.211 34.6916C259.211 34.1249 259.319 33.5999 259.536 33.1166C259.769 32.6333 260.094 32.2249 260.511 31.8916C260.928 31.5583 261.428 31.2999 262.011 31.1166C262.594 30.9166 263.244 30.8166 263.961 30.8166C264.911 30.8166 265.744 30.9833 266.461 31.3166C267.178 31.6333 267.803 31.9916 268.336 32.3916L266.686 34.5916C266.236 34.2583 265.794 33.9999 265.361 33.8166C264.928 33.6333 264.494 33.5416 264.061 33.5416C263.128 33.5416 262.661 33.8666 262.661 34.5166C262.661 34.7166 262.728 34.8916 262.861 35.0416C262.994 35.1749 263.169 35.2999 263.386 35.4166C263.619 35.5333 263.878 35.6499 264.161 35.7666C264.461 35.8666 264.769 35.9749 265.086 36.0916C265.486 36.2416 265.878 36.4166 266.261 36.6166C266.661 36.7999 267.019 37.0333 267.336 37.3166C267.669 37.5999 267.936 37.9499 268.136 38.3666C268.336 38.7666 268.436 39.2499 268.436 39.8166C268.436 40.3833 268.328 40.9083 268.111 41.3916C267.894 41.8749 267.569 42.2999 267.136 42.6666C266.703 43.0166 266.169 43.2999 265.536 43.5166C264.903 43.7166 264.169 43.8166 263.336 43.8166ZM277.27 43.8166C276.72 43.8166 276.162 43.6833 275.595 43.4166C275.045 43.1333 274.528 42.7249 274.045 42.1916H273.945L273.645 43.5166H270.77V25.9916H274.445V30.2916L274.345 32.1916C274.828 31.7583 275.345 31.4249 275.895 31.1916C276.462 30.9416 277.037 30.8166 277.62 30.8166C278.37 30.8166 279.045 30.9666 279.645 31.2666C280.245 31.5666 280.753 31.9916 281.17 32.5416C281.603 33.0749 281.928 33.7333 282.145 34.5166C282.378 35.2833 282.495 36.1416 282.495 37.0916C282.495 38.1583 282.345 39.1083 282.045 39.9416C281.762 40.7749 281.37 41.4833 280.87 42.0666C280.387 42.6333 279.828 43.0666 279.195 43.3666C278.578 43.6666 277.937 43.8166 277.27 43.8166ZM276.42 40.8166C277.053 40.8166 277.595 40.5333 278.045 39.9666C278.495 39.3833 278.72 38.4499 278.72 37.1666C278.72 34.9333 278.003 33.8166 276.57 33.8166C275.837 33.8166 275.128 34.1916 274.445 34.9416V40.0166C274.778 40.3166 275.112 40.5249 275.445 40.6416C275.778 40.7583 276.103 40.8166 276.42 40.8166ZM286.281 48.3666C285.897 48.3666 285.572 48.3416 285.306 48.2916C285.039 48.2583 284.781 48.1999 284.531 48.1166L285.181 45.3166C285.297 45.3499 285.431 45.3833 285.581 45.4166C285.731 45.4499 285.872 45.4666 286.006 45.4666C286.622 45.4666 287.097 45.3166 287.431 45.0166C287.764 44.7166 288.014 44.3249 288.181 43.8416L288.356 43.1916L283.581 31.1166H287.281L289.056 36.4416C289.239 37.0083 289.406 37.5833 289.556 38.1666C289.706 38.7499 289.864 39.3499 290.031 39.9666H290.131C290.264 39.3833 290.397 38.7999 290.531 38.2166C290.681 37.6166 290.831 37.0249 290.981 36.4416L292.481 31.1166H296.006L291.706 43.6416C291.406 44.4249 291.089 45.1083 290.756 45.6916C290.439 46.2916 290.064 46.7833 289.631 47.1666C289.214 47.5666 288.731 47.8666 288.181 48.0666C287.647 48.2666 287.014 48.3666 286.281 48.3666ZM310.048 43.8166C309.014 43.8166 308.039 43.6416 307.123 43.2916C306.206 42.9249 305.398 42.3916 304.698 41.6916C304.014 40.9916 303.473 40.1249 303.073 39.0916C302.673 38.0416 302.473 36.8333 302.473 35.4666C302.473 34.1166 302.681 32.9166 303.098 31.8666C303.514 30.7999 304.073 29.8999 304.773 29.1666C305.473 28.4333 306.289 27.8749 307.223 27.4916C308.156 27.1083 309.139 26.9166 310.173 26.9166C311.223 26.9166 312.164 27.1333 312.998 27.5666C313.831 27.9833 314.523 28.4749 315.073 29.0416L313.123 31.3916C312.706 31.0083 312.264 30.6999 311.798 30.4666C311.348 30.2166 310.831 30.0916 310.248 30.0916C309.698 30.0916 309.173 30.2166 308.673 30.4666C308.189 30.6999 307.764 31.0416 307.398 31.4916C307.048 31.9416 306.764 32.4916 306.548 33.1416C306.348 33.7916 306.248 34.5249 306.248 35.3416C306.248 37.0249 306.606 38.3333 307.323 39.2666C308.039 40.1833 308.998 40.6416 310.198 40.6416C310.864 40.6416 311.456 40.4999 311.973 40.2166C312.506 39.9166 312.973 39.5499 313.373 39.1166L315.323 41.4166C313.956 43.0166 312.198 43.8166 310.048 43.8166ZM320.874 43.8166C320.24 43.8166 319.707 43.7166 319.274 43.5166C318.84 43.3166 318.49 43.0416 318.224 42.6916C317.974 42.3249 317.79 41.8916 317.674 41.3916C317.557 40.8749 317.499 40.2999 317.499 39.6666V25.9916H321.174V39.8166C321.174 40.1999 321.24 40.4666 321.374 40.6166C321.524 40.7666 321.674 40.8416 321.824 40.8416C321.907 40.8416 321.974 40.8416 322.024 40.8416C322.09 40.8416 322.174 40.8249 322.274 40.7916L322.724 43.5166C322.524 43.5999 322.265 43.6666 321.949 43.7166C321.649 43.7833 321.29 43.8166 320.874 43.8166ZM329.977 43.8166C329.194 43.8166 328.435 43.6749 327.702 43.3916C326.969 43.0916 326.319 42.6666 325.752 42.1166C325.202 41.5666 324.76 40.8916 324.427 40.0916C324.094 39.2749 323.927 38.3499 323.927 37.3166C323.927 36.2833 324.094 35.3666 324.427 34.5666C324.76 33.7499 325.202 33.0666 325.752 32.5166C326.319 31.9666 326.969 31.5499 327.702 31.2666C328.435 30.9666 329.194 30.8166 329.977 30.8166C330.76 30.8166 331.51 30.9666 332.227 31.2666C332.96 31.5499 333.602 31.9666 334.152 32.5166C334.719 33.0666 335.169 33.7499 335.502 34.5666C335.835 35.3666 336.002 36.2833 336.002 37.3166C336.002 38.3499 335.835 39.2749 335.502 40.0916C335.169 40.8916 334.719 41.5666 334.152 42.1166C333.602 42.6666 332.96 43.0916 332.227 43.3916C331.51 43.6749 330.76 43.8166 329.977 43.8166ZM329.977 40.8416C330.727 40.8416 331.294 40.5249 331.677 39.8916C332.06 39.2583 332.252 38.3999 332.252 37.3166C332.252 36.2333 332.06 35.3749 331.677 34.7416C331.294 34.1083 330.727 33.7916 329.977 33.7916C329.21 33.7916 328.635 34.1083 328.252 34.7416C327.885 35.3749 327.702 36.2333 327.702 37.3166C327.702 38.3999 327.885 39.2583 328.252 39.8916C328.635 40.5249 329.21 40.8416 329.977 40.8416ZM342.244 43.8166C340.894 43.8166 339.911 43.3749 339.294 42.4916C338.694 41.6083 338.394 40.3833 338.394 38.8166V31.1166H342.069V38.3416C342.069 39.2416 342.194 39.8583 342.444 40.1916C342.694 40.5249 343.086 40.6916 343.619 40.6916C344.086 40.6916 344.477 40.5833 344.794 40.3666C345.111 40.1499 345.452 39.7999 345.819 39.3166V31.1166H349.494V43.5166H346.494L346.219 41.7916H346.144C345.611 42.4249 345.036 42.9249 344.419 43.2916C343.819 43.6416 343.094 43.8166 342.244 43.8166ZM357.153 43.8166C356.386 43.8166 355.686 43.6666 355.053 43.3666C354.436 43.0666 353.903 42.6416 353.453 42.0916C353.02 41.5249 352.678 40.8416 352.428 40.0416C352.195 39.2416 352.078 38.3333 352.078 37.3166C352.078 36.2999 352.22 35.3916 352.503 34.5916C352.803 33.7916 353.186 33.1166 353.653 32.5666C354.136 31.9999 354.686 31.5666 355.303 31.2666C355.936 30.9666 356.578 30.8166 357.228 30.8166C357.928 30.8166 358.503 30.9333 358.953 31.1666C359.403 31.3999 359.845 31.7166 360.278 32.1166L360.128 30.2166V25.9916H363.803V43.5166H360.803L360.553 42.2916H360.453C360.02 42.7249 359.511 43.0916 358.928 43.3916C358.345 43.6749 357.753 43.8166 357.153 43.8166ZM358.103 40.8166C358.503 40.8166 358.861 40.7333 359.178 40.5666C359.511 40.3999 359.828 40.1083 360.128 39.6916V34.6166C359.795 34.3166 359.453 34.1083 359.103 33.9916C358.753 33.8749 358.411 33.8166 358.078 33.8166C357.495 33.8166 356.978 34.0999 356.528 34.6666C356.078 35.2166 355.853 36.0833 355.853 37.2666C355.853 38.4999 356.045 39.3999 356.428 39.9666C356.828 40.5333 357.386 40.8166 358.103 40.8166Z" fill="white"/>
<defs>
<clipPath id="clip0_130_2768">
<rect width="50" height="43" fill="white" transform="translate(21.7363 13.0166)"/>
</clipPath>
</defs>
</svg>
