<svg width="1190" height="217" viewBox="0 0 1190 217" fill="none" xmlns="http://www.w3.org/2000/svg">
<path d="M1184 0H6C2.68629 0 0 2.68629 0 6V210.709C0 214.023 2.68629 216.709 6 216.709H1184C1187.31 216.709 1190 214.023 1190 210.709V6C1190 2.68629 1187.31 0 1184 0Z" fill="#F9F5FF"/>
<mask id="mask0_20_74" style="mask-type:alpha" maskUnits="userSpaceOnUse" x="0" y="0" width="1190" height="217">
<path d="M0 0H1190V216.709H0V0Z" fill="#F9F5FF"/>
</mask>
<g mask="url(#mask0_20_74)">
<path d="M86.1494 -383.012L260.434 -84.0373C264.16 -77.8275 267.956 -71.6721 271.964 -65.5706C273.932 -62.547 276.041 -59.5229 278.151 -56.4993C280.26 -53.5295 282.509 -50.5598 284.9 -47.6977C289.68 -41.9741 294.953 -36.4664 301.632 -31.9849C305.007 -29.771 308.663 -27.8813 312.67 -26.5316C316.677 -25.1813 320.966 -24.3177 325.325 -23.9936C334.113 -23.2916 342.971 -24.4254 351.478 -26.0454C355.766 -26.8552 359.985 -27.8813 364.203 -28.9075C368.421 -29.9869 372.569 -31.1213 376.717 -32.3629C393.239 -37.2229 409.479 -42.7845 425.719 -48.2916L911.384 -215.409C927.554 -220.971 943.724 -226.586 959.96 -232.04C968.115 -234.794 976.271 -237.493 984.497 -240.031C992.723 -242.623 1001.02 -245.053 1009.46 -247.213C1017.89 -249.318 1026.61 -251.154 1035.54 -251.856C1040.04 -252.234 1044.54 -252.288 1049.04 -251.856C1053.54 -251.37 1057.97 -250.452 1062.12 -248.94C1066.19 -247.429 1069.99 -245.431 1073.36 -243.109C1076.74 -240.787 1079.76 -238.195 1082.5 -235.495C1087.98 -230.042 1092.63 -224.156 1096.92 -218.163C1101.21 -212.169 1105.14 -206.014 1108.94 -199.858C1112.73 -193.702 1116.46 -187.493 1120.12 -181.23L1228.88 5.70435L1226.35 6.56793L1118.01 -180.474C1114.35 -186.683 1110.7 -192.893 1106.9 -199.048C1103.1 -205.204 1099.16 -211.306 1094.95 -217.299C1090.73 -223.238 1086.16 -229.124 1080.75 -234.415C1078.07 -237.061 1075.12 -239.599 1071.89 -241.813C1068.65 -244.081 1065.07 -245.971 1061.2 -247.375C1057.33 -248.832 1053.11 -249.696 1048.82 -250.128C1044.54 -250.56 1040.18 -250.507 1035.82 -250.128C1027.1 -249.427 1018.6 -247.645 1010.16 -245.593C1001.79 -243.487 993.499 -241.057 985.273 -238.519C977.047 -235.981 968.891 -233.281 960.806 -230.528C944.566 -225.074 928.396 -219.513 912.155 -213.951L426.141 -47.4819C409.901 -41.9742 393.661 -36.4664 377.069 -31.6069C372.921 -30.4193 368.702 -29.231 364.484 -28.2054C360.266 -27.1254 355.977 -26.1537 351.689 -25.3434C343.112 -23.7239 334.113 -22.5895 325.184 -23.2915C320.755 -23.6157 316.326 -24.5336 312.248 -25.9378C308.171 -27.3413 304.374 -29.2854 300.999 -31.4993C294.25 -36.0346 288.907 -41.5962 284.126 -47.3736C281.736 -50.2357 279.486 -53.2054 277.377 -56.229C275.198 -59.1987 273.159 -62.2229 271.19 -65.3003C267.183 -71.4018 263.386 -77.5578 259.731 -83.767L86.1494 -383.012Z" fill="#7B49D7" fill-opacity="0.05"/>
<path d="M67.0667 -382.018L245.974 -75.6095C249.774 -69.2476 253.643 -62.9395 257.723 -56.685C261.804 -50.4306 266.025 -44.2299 270.809 -38.2991C273.201 -35.3337 275.734 -32.4221 278.478 -29.6729C281.221 -26.9231 284.247 -24.2807 287.553 -21.9083L288.819 -21.046L290.156 -20.2369C291 -19.644 291.985 -19.2128 292.829 -18.6736C294.729 -17.7033 296.629 -16.7867 298.669 -16.0319C302.679 -14.468 307.111 -13.5514 311.543 -13.1202C316.046 -12.6891 320.548 -12.7428 325.051 -13.1202C329.554 -13.4976 333.986 -14.1443 338.418 -15.0072C347.213 -16.6786 355.796 -18.9973 364.308 -21.4772C381.333 -26.4913 397.937 -32.1528 414.611 -37.8143L913.343 -208.999C929.948 -214.715 946.548 -220.43 963.365 -225.876C971.738 -228.571 980.177 -231.214 988.832 -233.64C997.417 -236.012 1006.14 -238.168 1015.15 -239.571C1019.65 -240.217 1024.22 -240.756 1028.86 -240.81C1029.99 -240.81 1031.19 -240.865 1032.31 -240.81L1034.07 -240.756L1035.83 -240.649L1036.67 -240.595L1037.52 -240.487L1039.28 -240.272L1040.96 -240.002L1042.65 -239.678L1044.34 -239.301L1046.87 -238.654L1047.65 -238.384L1049.26 -237.845C1050.32 -237.414 1051.38 -237.09 1052.36 -236.605C1052.86 -236.39 1053.35 -236.173 1053.91 -235.958L1055.39 -235.203C1059.26 -233.262 1062.7 -230.782 1065.87 -228.194C1072.13 -222.964 1077.13 -216.979 1081.7 -210.941C1084.02 -207.921 1086.2 -204.794 1088.24 -201.721C1090.35 -198.594 1092.39 -195.467 1094.36 -192.339C1102.31 -179.723 1109.7 -166.945 1117.16 -154.166L1228.88 37.5075L1226.35 38.3704L1115.11 -153.304C1107.73 -166.082 1100.34 -178.86 1092.46 -191.476C1090.49 -194.604 1088.45 -197.731 1086.34 -200.858C1084.23 -203.932 1082.12 -207.004 1079.87 -210.024C1075.3 -216.063 1070.37 -221.939 1064.32 -227.008C1061.29 -229.542 1057.99 -231.914 1054.26 -233.802L1052.86 -234.502C1052.36 -234.718 1051.87 -234.934 1051.45 -235.149C1050.53 -235.58 1049.48 -235.958 1048.49 -236.335L1046.94 -236.821L1046.17 -237.09L1043.85 -237.737L1042.23 -238.061L1041.46 -238.222L1040.61 -238.33L1038.99 -238.6L1037.38 -238.816L1036.53 -238.923L1034 -239.085L1032.31 -239.139C1031.19 -239.193 1030.06 -239.139 1028.93 -239.193C1024.43 -239.139 1020 -238.654 1015.57 -238.007C1006.7 -236.659 998.047 -234.556 989.538 -232.184C981.024 -229.811 972.58 -227.223 964.207 -224.527C947.466 -219.082 930.861 -213.367 914.186 -207.705L415.033 -37.0052C398.359 -31.3443 381.686 -25.6828 364.66 -20.7224C356.147 -18.2425 347.494 -15.9775 338.629 -14.2524C334.197 -13.3896 329.695 -12.7429 325.122 -12.3654C320.549 -11.9881 315.975 -11.9337 311.403 -12.3654C306.83 -12.8503 302.327 -13.7669 298.247 -15.3846C296.136 -16.1394 294.237 -17.1097 292.337 -18.0806C291.423 -18.6198 290.438 -19.1048 289.593 -19.6983L288.257 -20.5606L286.99 -21.4235C283.613 -23.7959 280.588 -26.4376 277.844 -29.2412C275.101 -32.0447 272.568 -34.9564 270.176 -37.9218C265.392 -43.9069 261.171 -50.107 257.09 -56.3614C253.08 -62.6158 249.211 -68.9778 245.411 -75.3402L67.0667 -382.018Z" fill="#7B49D7" fill-opacity="0.05"/>
<path d="M49.1064 -381.025L232.514 -66.6C236.382 -60.0728 240.32 -53.546 244.469 -47.1268C248.618 -40.7082 252.908 -34.289 257.69 -28.1936C262.542 -22.0982 267.817 -16.1104 274.498 -11.1483C277.874 -8.72038 281.601 -6.50931 285.68 -4.89093C287.719 -4.08145 289.899 -3.43448 292.079 -2.84122L293.767 -2.46365L295.455 -2.13989L297.142 -1.86987L298.83 -1.65417C299.393 -1.6004 299.956 -1.54666 300.518 -1.49231L302.276 -1.38477C303.401 -1.38477 304.597 -1.27664 305.722 -1.27664H307.48C308.043 -1.27664 308.605 -1.33099 309.238 -1.33099C310.363 -1.38477 311.559 -1.43854 312.684 -1.54666C317.326 -1.92422 321.897 -2.62555 326.397 -3.43445C335.399 -5.1604 344.26 -7.53395 352.98 -10.0693C370.421 -15.1939 387.44 -21.0731 404.528 -26.899L915.93 -202.694C933.022 -208.52 950.039 -214.399 967.48 -219.632C976.198 -222.221 985.061 -224.648 994.061 -226.59C998.564 -227.507 1003.2 -228.316 1007.85 -228.856C1012.49 -229.341 1017.27 -229.611 1022.05 -229.287C1023.25 -229.179 1024.44 -229.125 1025.64 -228.963C1026.83 -228.856 1027.96 -228.64 1029.15 -228.424C1031.47 -227.993 1033.8 -227.453 1035.98 -226.698L1036.82 -226.429L1037.59 -226.105L1039.21 -225.512C1040.27 -225.026 1041.32 -224.648 1042.3 -224.109C1044.35 -223.138 1046.17 -222.005 1048.07 -220.818C1055.25 -215.964 1060.87 -210.03 1065.86 -203.935C1070.86 -197.785 1075.22 -191.42 1079.37 -185.001C1083.52 -178.583 1087.52 -172.055 1091.39 -165.528C1099.13 -152.474 1106.65 -139.313 1114.32 -126.205L1228.88 70.3035L1226.35 71.1667L1112.21 -125.504C1104.54 -138.611 1097.09 -151.774 1089.35 -164.827C1085.48 -171.354 1081.55 -177.827 1077.4 -184.3C1073.25 -190.719 1068.89 -197.03 1064.03 -203.125C1059.11 -209.167 1053.63 -214.993 1046.74 -219.632C1044.98 -220.765 1043.22 -221.844 1041.25 -222.761C1040.34 -223.246 1039.28 -223.678 1038.29 -224.109L1036.75 -224.702L1035.2 -225.242C1033.09 -225.943 1030.91 -226.482 1028.73 -226.86C1027.61 -227.022 1026.48 -227.238 1025.36 -227.345C1024.23 -227.507 1023.11 -227.561 1021.98 -227.669C1017.41 -227.939 1012.84 -227.723 1008.27 -227.238C1003.7 -226.752 999.194 -225.997 994.696 -225.026C985.762 -223.138 976.974 -220.765 968.251 -218.175C950.882 -212.997 933.865 -207.117 916.777 -201.346L405.021 -26.2514C387.932 -20.4798 370.843 -14.6001 353.402 -9.4761C344.682 -6.9407 335.821 -4.56717 326.749 -2.84122C322.178 -1.97797 317.607 -1.27661 312.895 -0.95282C311.699 -0.845276 310.575 -0.791504 309.379 -0.737152C308.816 -0.737152 308.184 -0.68338 307.621 -0.68338H305.863C304.667 -0.68338 303.542 -0.737183 302.346 -0.791504L300.588 -0.899078C300.026 -0.95285 299.393 -1.00717 298.83 -1.06094L297.072 -1.27664L295.314 -1.54666L293.626 -1.86987C293.064 -1.978 292.501 -2.08609 291.938 -2.24744C289.688 -2.84122 287.508 -3.48825 285.398 -4.3515C281.179 -6.02365 277.452 -8.2353 274.005 -10.7163C267.254 -15.7328 261.91 -21.7744 257.057 -27.9236C252.205 -34.0734 247.986 -40.492 243.836 -46.9112C239.687 -53.3841 235.819 -59.8571 231.951 -66.4382L49.1064 -381.025Z" fill="#7B49D7" fill-opacity="0.05"/>
<path d="M30.0234 -381.025L218.195 -58.4187C222.132 -51.731 226.141 -45.0438 230.359 -38.4104C234.508 -31.777 238.868 -25.2518 243.72 -18.8883C246.111 -15.7066 248.712 -12.6324 251.455 -9.61203C254.197 -6.64594 257.221 -3.73419 260.596 -1.14557C263.972 1.44302 267.628 3.76227 271.777 5.54214C272.761 6.02716 273.886 6.35086 274.941 6.7821C276.066 7.1058 277.121 7.48331 278.246 7.80704C280.496 8.40015 282.817 8.83136 285.137 9.15506L286.895 9.3707L288.653 9.47879L290.481 9.5863L292.239 9.64066C294.63 9.64066 297.021 9.58633 299.341 9.42505C304.053 9.10132 308.764 8.40012 313.405 7.53708C322.687 5.75775 331.688 3.33099 340.688 0.68808C349.619 -1.95432 358.479 -4.81229 367.268 -7.72461C376.058 -10.6369 384.848 -13.6031 393.567 -16.6229L865.823 -178.897C883.332 -184.883 900.771 -190.923 918.35 -196.855C927.143 -199.822 935.93 -202.734 944.788 -205.538C953.651 -208.342 962.58 -211.039 971.72 -213.358C980.865 -215.623 990.217 -217.618 999.922 -218.266C1004.77 -218.589 1009.69 -218.481 1014.48 -217.78C1016.87 -217.402 1019.26 -216.917 1021.58 -216.27C1023.83 -215.569 1026.08 -214.814 1028.19 -213.789C1032.4 -211.848 1036.21 -209.421 1039.58 -206.724C1042.96 -204.028 1045.91 -201.062 1048.72 -198.042C1054.27 -191.948 1058.92 -185.476 1063.34 -178.897C1067.78 -172.317 1071.93 -165.684 1075.93 -158.997C1079.94 -152.31 1083.88 -145.568 1087.82 -138.881L1228.88 103.101L1226.34 103.963L1085.85 -138.234C1081.98 -144.975 1078.05 -151.662 1074.03 -158.349C1070.02 -165.037 1065.95 -171.671 1061.52 -178.196C1057.16 -184.721 1052.45 -191.139 1047.03 -197.125C1044.29 -200.091 1041.41 -203.003 1038.1 -205.646C1034.8 -208.234 1031.21 -210.607 1027.2 -212.441C1025.24 -213.358 1023.05 -214.113 1020.87 -214.76C1018.7 -215.407 1016.44 -215.893 1014.12 -216.216C1009.55 -216.863 1004.77 -216.971 1000.06 -216.701C990.636 -216.108 981.354 -214.167 972.284 -211.902C963.215 -209.637 954.281 -206.941 945.423 -204.19C936.565 -201.385 927.773 -198.473 918.985 -195.507C901.476 -189.575 883.967 -183.589 866.458 -177.603L393.989 -15.868C385.2 -12.9019 376.48 -9.88202 367.69 -7.02347C358.901 -4.11169 350.04 -1.30743 341.11 1.33548C332.11 3.9241 323.039 6.4046 313.757 8.13074C309.115 8.99323 304.334 9.69443 299.552 10.0181C297.161 10.2338 294.771 10.2337 292.31 10.2337L290.481 10.18L288.653 10.0719L286.825 9.91003L285.067 9.69443C282.676 9.37073 280.356 8.93945 278.035 8.29202C276.91 8.02261 275.785 7.64514 274.66 7.26767C273.605 6.83643 272.48 6.45892 271.425 5.97336C267.206 4.13971 263.409 1.76675 260.034 -0.87561C256.658 -3.51797 253.635 -6.4303 250.822 -9.39639C248.009 -12.4168 245.478 -15.5448 243.087 -18.7265C238.235 -25.0899 233.875 -31.6695 229.727 -38.3029C225.578 -44.9363 221.569 -51.6234 217.632 -58.3644L30.0234 -381.025Z" fill="#7B49D7" fill-opacity="0.05"/>
<path d="M12.063 -381.025L204.787 -50.214C208.795 -43.3559 212.943 -36.4439 217.162 -29.6397C221.381 -22.8354 225.811 -16.0856 230.662 -9.55109C235.514 -3.01715 240.857 3.35474 247.467 8.86298C250.771 11.6171 254.497 14.0471 258.646 16.0452C260.755 17.0171 262.864 17.8269 265.185 18.529C267.435 19.1773 269.755 19.7174 272.146 20.0954C274.536 20.4195 276.927 20.6892 279.388 20.7431C280.583 20.7975 281.849 20.7431 283.044 20.7431C284.24 20.6892 285.505 20.6893 286.7 20.581C291.552 20.2574 296.403 19.6091 301.114 18.6911C310.606 16.9094 319.887 14.425 329.028 11.7253C338.168 9.02506 347.239 6.10889 356.239 3.08502C365.238 0.114992 374.238 -2.96329 383.168 -6.04102L866.773 -172.364C884.699 -178.521 902.559 -184.731 920.631 -190.725C929.63 -193.695 938.699 -196.611 947.909 -199.257C957.124 -201.903 966.475 -204.387 976.108 -206.007C980.958 -206.817 985.878 -207.357 990.873 -207.573C992.139 -207.627 993.334 -207.627 994.599 -207.627C995.864 -207.573 997.13 -207.573 998.324 -207.465C1000.78 -207.303 1003.32 -206.925 1005.71 -206.439C1010.56 -205.467 1015.2 -203.739 1019.28 -201.525C1023.35 -199.311 1027.01 -196.611 1030.24 -193.749C1036.72 -187.971 1041.92 -181.436 1046.77 -174.849C1051.55 -168.206 1055.91 -161.456 1060.13 -154.598C1068.57 -140.936 1076.44 -127.112 1084.46 -113.287L1228.88 134.901L1226.35 135.766L1082.42 -112.585C1074.4 -126.356 1066.53 -140.234 1058.16 -153.842C1053.94 -160.646 1049.65 -167.45 1044.87 -173.984C1040.09 -180.519 1034.96 -186.999 1028.63 -192.615C1025.47 -195.423 1021.95 -198.015 1018.01 -200.175C1014.07 -202.281 1009.72 -203.901 1005.07 -204.873C1002.76 -205.359 1000.43 -205.683 997.972 -205.845C996.777 -205.953 995.582 -205.953 994.387 -206.007C993.193 -206.007 991.998 -206.007 990.803 -206.007C985.949 -205.845 981.169 -205.305 976.386 -204.495C966.893 -202.929 957.613 -200.499 948.403 -197.853C939.263 -195.207 930.194 -192.345 921.191 -189.375C903.194 -183.435 885.263 -177.225 867.332 -171.123L383.379 -5.285C374.379 -2.20731 365.45 0.81708 356.449 3.84094C347.449 6.81097 338.379 9.72721 329.239 12.4269C320.028 15.1272 310.747 17.611 301.185 19.3932C296.403 20.2574 291.552 20.959 286.63 21.2832C285.435 21.3376 284.169 21.3914 282.903 21.4452C281.638 21.4452 280.443 21.4991 279.177 21.3914C276.716 21.3376 274.255 21.0672 271.794 20.7431C269.333 20.3651 267.013 19.8251 264.693 19.1774C262.372 18.4752 260.193 17.611 258.013 16.6391C253.795 14.641 249.998 12.1033 246.693 9.34921C239.943 3.78714 234.67 -2.63913 229.748 -9.22748C224.896 -15.8152 220.537 -22.5657 216.248 -29.37C212.029 -36.1736 207.951 -43.0862 203.943 -49.9443L12.063 -381.025Z" fill="#7B49D7" fill-opacity="0.05"/>
<path d="M-7.01978 -382.018L190.409 -43.0351C194.557 -35.9624 198.705 -28.9441 202.994 -21.9258C207.283 -14.9618 211.712 -7.99734 216.563 -1.24924C221.415 5.49939 226.688 12.1399 233.227 17.9702C236.461 20.8856 240.188 23.5307 244.266 25.7442C246.304 26.8241 248.484 27.7957 250.734 28.6058C252.984 29.3616 255.374 30.0092 257.765 30.4953C260.156 30.927 262.616 31.251 265.148 31.3593C267.608 31.4669 270.139 31.5213 272.6 31.4131C277.592 31.1972 282.514 30.5491 287.435 29.6857C297.209 27.9577 306.7 25.4207 316.052 22.6673C325.402 19.9139 334.683 16.8903 343.894 13.8672C353.104 10.7898 362.315 7.65909 371.455 4.5278L867.204 -166.071L894.767 -175.519C903.977 -178.65 913.187 -181.727 922.537 -184.642C931.888 -187.558 941.239 -190.365 950.943 -192.632C955.797 -193.766 960.646 -194.792 965.637 -195.548C968.102 -195.926 970.632 -196.25 973.163 -196.465C975.694 -196.681 978.224 -196.843 980.825 -196.843C982.091 -196.897 983.356 -196.79 984.692 -196.79C985.327 -196.736 985.957 -196.681 986.592 -196.628L987.575 -196.574L988.558 -196.465C991.089 -196.196 993.624 -195.71 996.084 -195.116C1001 -193.874 1005.51 -191.877 1009.51 -189.447C1013.52 -186.964 1017.03 -184.102 1020.27 -181.079C1023.43 -178.056 1026.31 -174.817 1028.99 -171.523C1034.33 -164.937 1039.04 -158.027 1043.47 -151.063C1047.9 -144.098 1052.12 -137.08 1056.34 -130.008C1060.49 -122.935 1064.56 -115.863 1068.71 -108.845L1130.37 -2.92279L1228.88 166.704L1226.35 167.568L1066.53 -108.089C1062.45 -115.161 1058.37 -122.234 1054.23 -129.252C1050.08 -136.27 1045.86 -143.343 1041.43 -150.253C1037 -157.163 1032.36 -164.02 1027.09 -170.552C1024.42 -173.791 1021.61 -176.976 1018.51 -180C1015.42 -182.969 1011.97 -185.776 1008.11 -188.151C1004.24 -190.527 999.95 -192.416 995.308 -193.604C992.989 -194.198 990.599 -194.684 988.139 -194.9L987.222 -195.008L986.31 -195.062C985.675 -195.116 985.115 -195.17 984.48 -195.17C983.215 -195.224 982.02 -195.278 980.755 -195.278C978.295 -195.278 975.835 -195.116 973.375 -194.954C970.91 -194.738 968.45 -194.414 965.99 -194.036C961.14 -193.28 956.286 -192.309 951.507 -191.175C941.945 -188.907 932.594 -186.154 923.243 -183.239C913.963 -180.324 904.753 -177.246 895.539 -174.169L867.98 -164.775L372.018 5.17535C362.807 8.30664 353.667 11.4379 344.386 14.5154C335.176 17.5923 325.895 20.5615 316.473 23.3149C307.052 26.0683 297.489 28.6058 287.717 30.3332C282.795 31.1972 277.803 31.8448 272.741 32.0606C270.21 32.1689 267.679 32.1688 265.148 32.0068C262.616 31.8448 260.085 31.5213 257.624 31.089C255.164 30.6035 252.773 29.9554 250.453 29.1458C248.133 28.3356 245.953 27.364 243.844 26.2303C239.696 23.963 235.969 21.3173 232.665 18.348C226.055 12.4639 220.782 5.76907 215.931 -0.979004C211.079 -7.78146 206.65 -14.7459 202.361 -21.7099C198.072 -28.7282 193.924 -35.7465 189.846 -42.8187L-7.01978 -382.018Z" fill="#7B49D7" fill-opacity="0.05"/>
<path d="M-13.7549 -360.154L185.451 -18.6424C189.67 -11.576 194.03 -4.50906 198.6 2.44919C203.242 9.35422 208.093 16.2049 213.859 22.6243C216.742 25.8068 219.836 28.8811 223.352 31.6866C226.868 34.4372 230.735 36.9727 235.165 38.8605C237.345 39.7776 239.665 40.5871 242.056 41.1804C244.447 41.7736 246.908 42.2593 249.369 42.5287L250.283 42.6369L251.197 42.6907C251.83 42.7444 252.463 42.7988 253.095 42.7988C254.361 42.8525 255.627 42.9063 256.893 42.8525C259.424 42.8525 261.955 42.6907 264.416 42.475C274.472 41.5042 284.176 39.2925 293.738 36.757C303.301 34.2215 312.724 31.3091 322.005 28.2879C340.639 22.2467 359.133 15.773 377.696 9.46176L877.577 -162.238C886.858 -165.367 896.14 -168.496 905.492 -171.516C914.843 -174.483 924.336 -177.396 933.97 -179.877C943.604 -182.305 953.516 -184.462 963.785 -185.056C968.917 -185.326 974.12 -185.218 979.182 -184.301C981.713 -183.869 984.173 -183.276 986.567 -182.466C988.957 -181.658 991.276 -180.74 993.388 -179.608L994.23 -179.176L995.002 -178.744C995.496 -178.475 996.06 -178.151 996.55 -177.881C997.537 -177.234 998.591 -176.641 999.504 -175.94C1001.47 -174.645 1003.23 -173.188 1004.92 -171.732C1008.3 -168.765 1011.32 -165.583 1014.13 -162.292C1019.76 -155.711 1024.53 -148.806 1029.11 -141.847C1033.68 -134.835 1037.96 -127.768 1042.18 -120.702C1046.4 -113.581 1050.55 -106.461 1054.7 -99.3405L1228.88 199.504L1226.35 200.364L1052.74 -98.6935C1048.59 -105.814 1044.51 -112.934 1040.29 -120.054C1036.07 -127.121 1031.78 -134.188 1027.28 -141.147C1022.71 -148.105 1018 -154.956 1012.44 -161.429C1009.7 -164.666 1006.68 -167.794 1003.37 -170.707C1001.68 -172.109 999.998 -173.512 998.097 -174.807C997.185 -175.454 996.197 -176.047 995.284 -176.641C994.795 -176.91 994.301 -177.234 993.807 -177.504L993.036 -177.936L992.259 -178.313C990.222 -179.392 988.044 -180.255 985.721 -181.01C983.472 -181.765 981.082 -182.359 978.693 -182.736C973.838 -183.599 968.847 -183.707 963.856 -183.437C953.869 -182.844 944.094 -180.794 934.46 -178.367C924.896 -175.94 915.474 -173.08 906.122 -170.06C896.77 -167.093 887.489 -163.964 878.208 -160.835L378.048 10.3788C359.484 16.69 341.061 23.1094 322.357 29.1512C313.005 32.1718 303.583 35.0848 293.949 37.6203C284.386 40.1552 274.542 42.3669 264.416 43.3383C261.885 43.554 259.354 43.7158 256.752 43.7158C255.486 43.7158 254.221 43.6615 252.955 43.6077C252.322 43.5539 251.689 43.4996 251.056 43.4458L250.072 43.392L249.158 43.2839C246.626 43.0145 244.095 42.5287 241.704 41.9355C239.243 41.3422 236.923 40.479 234.673 39.5081C230.173 37.6203 226.235 35.031 222.719 32.2256C219.203 29.3669 216.039 26.2919 213.156 23.0556C207.39 16.6363 202.538 9.73181 197.897 2.77298C193.327 -4.18585 188.967 -11.2522 184.748 -18.3186L-13.7549 -360.154Z" fill="#7B49D7" fill-opacity="0.05"/>
<path d="M-13.7549 -328.352L160.468 -29.3258C164.618 -22.1974 168.767 -15.0685 172.988 -7.99396C177.208 -0.918851 181.569 6.15569 186.141 13.0681C190.783 19.9806 195.636 26.8397 201.404 33.2659C204.288 36.4521 207.382 39.5306 210.899 42.3388C214.416 45.0931 218.355 47.6315 222.716 49.4677C227.076 51.3578 231.929 52.6 236.923 53.1401L237.838 53.2478L238.752 53.3022C239.385 53.356 240.018 53.4099 240.651 53.4099C241.917 53.4637 243.183 53.5182 244.449 53.4638C246.982 53.4638 249.514 53.3022 251.976 53.0857C261.963 52.1138 271.74 49.8995 281.306 47.3611C290.871 44.8233 300.297 41.9069 309.581 38.8828C318.936 35.8582 328.22 32.7258 337.434 29.5396L837.246 -142.196L865.027 -151.701C874.311 -154.833 883.595 -157.966 892.949 -160.99C902.304 -163.961 911.729 -166.877 921.436 -169.361C931.073 -171.845 940.992 -173.952 951.259 -174.599C953.791 -174.708 956.393 -174.815 958.995 -174.708C959.63 -174.708 960.261 -174.653 960.896 -174.599L962.792 -174.437C964.058 -174.275 965.324 -174.168 966.594 -173.952C967.86 -173.79 969.126 -173.465 970.392 -173.196C971.587 -172.871 972.853 -172.547 974.048 -172.169C975.243 -171.791 976.438 -171.359 977.563 -170.873C978.692 -170.387 979.817 -169.901 980.871 -169.361C981.995 -168.821 982.979 -168.227 984.038 -167.633L985.515 -166.715L986.287 -166.229L986.988 -165.742L988.395 -164.717L989.731 -163.69C990.649 -162.988 991.491 -162.232 992.404 -161.53C995.782 -158.56 998.879 -155.374 1001.69 -152.134C1007.32 -145.599 1012.1 -138.686 1016.67 -131.665C1021.24 -124.699 1025.54 -117.624 1029.76 -110.496L1228.88 231.305L1226.35 232.167L1027.93 -109.847C1023.7 -116.922 1019.41 -123.997 1014.91 -130.963C1010.34 -137.93 1005.63 -144.789 1000.07 -151.269C997.331 -154.51 994.305 -157.642 990.997 -160.504C990.155 -161.206 989.312 -161.962 988.395 -162.61L987.059 -163.637L984.951 -165.095L984.245 -165.527L982.772 -166.445C981.784 -166.985 980.8 -167.579 979.746 -168.119C978.692 -168.659 977.634 -169.091 976.58 -169.577C975.455 -170.009 974.401 -170.441 973.206 -170.819C972.076 -171.197 970.881 -171.521 969.757 -171.791C968.561 -172.061 967.366 -172.331 966.171 -172.493C964.976 -172.709 963.71 -172.818 962.515 -172.979L960.684 -173.141C960.049 -173.196 959.419 -173.249 958.854 -173.249C956.393 -173.357 953.862 -173.303 951.401 -173.196C941.411 -172.547 931.633 -170.495 922.071 -168.065C912.505 -165.58 903.08 -162.718 893.726 -159.748C884.371 -156.778 875.083 -153.646 865.799 -150.513L337.927 30.2957C328.642 33.428 319.357 36.5604 310.003 39.5844C300.648 42.6091 291.223 45.5255 281.657 48.0634C272.091 50.6017 262.244 52.816 252.116 53.7879C249.584 54.0038 247.052 54.1659 244.52 54.1659C243.254 54.1659 241.988 54.1121 240.722 54.1121C240.089 54.0582 239.456 54.0038 238.822 54.0038L237.838 53.95L236.923 53.8423C231.859 53.3022 226.936 52.0061 222.434 50.1155C217.933 48.2254 213.994 45.6332 210.407 42.825C206.89 40.0169 203.725 36.8845 200.841 33.6983C195.073 27.2716 190.22 20.3592 185.578 13.4461C181.006 6.47987 176.645 -0.595244 172.425 -7.66977C168.205 -14.7443 164.055 -21.8732 159.976 -29.0016L-13.7549 -328.352Z" fill="#7B49D7" fill-opacity="0.05"/>
<path d="M-13.7549 -297.543L146.92 -21.6198C150.998 -14.5436 155.147 -7.46738 159.296 -0.391174C163.444 6.68561 167.734 13.7079 172.234 20.622C176.734 27.5361 181.446 34.3964 186.86 40.9329C189.603 44.1737 192.485 47.3606 195.72 50.2777C198.955 53.1948 202.541 55.9498 206.549 58.2184C207.533 58.8124 208.588 59.2988 209.643 59.8391C210.698 60.3254 211.822 60.8112 212.948 61.1893C214.073 61.6219 215.198 61.9999 216.393 62.3781C217.589 62.7017 218.714 63.026 219.979 63.242C221.175 63.5124 222.37 63.6745 223.636 63.8904C224.901 64.0526 226.097 64.2147 227.363 64.2686C229.824 64.4846 232.355 64.4845 234.816 64.4307C244.802 64.1064 254.646 62.1077 264.209 59.7852C273.772 57.4084 283.124 54.5995 292.477 51.6286C311.04 45.6861 329.393 39.3122 347.816 32.9922L843.975 -137.705C853.186 -140.838 862.397 -143.97 871.608 -147.049C880.894 -150.074 890.175 -153.1 899.668 -155.8C909.161 -158.501 918.72 -160.986 928.707 -162.553C933.698 -163.309 938.765 -163.849 943.897 -163.903C949.029 -163.957 954.161 -163.417 959.082 -162.228C964.007 -160.986 968.575 -159.042 972.583 -156.611C976.591 -154.126 980.18 -151.317 983.342 -148.238C989.744 -142.134 994.876 -135.382 999.726 -128.575C1002.12 -125.172 1004.44 -121.715 1006.69 -118.204C1008.94 -114.747 1011.12 -111.236 1013.23 -107.725C1017.52 -100.702 1021.67 -93.6256 1025.75 -86.5494L1223.26 253.169L1220.73 254.031L1023.77 -85.7932C1019.7 -92.8694 1015.55 -99.9462 1011.26 -106.968C1009.15 -110.479 1006.97 -113.99 1004.72 -117.448C1002.47 -120.905 1000.22 -124.362 997.83 -127.765C993.046 -134.572 987.985 -141.216 981.728 -147.212C978.633 -150.183 975.184 -152.991 971.318 -155.368C967.451 -157.691 963.09 -159.582 958.452 -160.77C953.809 -161.959 948.817 -162.444 943.897 -162.391C938.972 -162.391 933.98 -161.85 929.13 -161.094C919.355 -159.582 909.791 -157.097 900.369 -154.45C890.946 -151.749 881.665 -148.778 872.384 -145.753C863.102 -142.728 853.892 -139.595 844.747 -136.462L348.098 33.7484C329.674 40.0146 311.322 46.3884 292.687 52.3304C283.335 55.2474 273.983 58.1107 264.349 60.4331C254.786 62.7561 244.872 64.7544 234.746 65.0786C232.215 65.1331 229.683 65.1325 227.152 64.9165C225.886 64.8626 224.62 64.6466 223.355 64.5384C222.089 64.3224 220.894 64.1603 219.628 63.8904C218.362 63.6745 217.237 63.2964 215.972 62.9721C214.776 62.594 213.58 62.2159 212.456 61.7834C211.33 61.3515 210.205 60.8651 209.08 60.3793C208.026 59.8391 206.9 59.3527 205.916 58.7586C201.767 56.49 198.181 53.6812 194.947 50.7102C191.712 47.7387 188.759 44.5518 186.087 41.2566C180.672 34.7206 175.961 27.8065 171.46 20.8918C166.96 13.9239 162.741 6.90158 158.593 -0.174652C154.444 -7.2514 150.365 -14.3277 146.217 -21.4039L-13.7549 -297.543Z" fill="#7B49D7" fill-opacity="0.05"/>
<path d="M-13.7549 -264.747L131.145 -16.1441C139.164 -2.32364 147.112 11.5506 155.623 25.1552C159.914 31.9569 164.275 38.7592 169.199 45.2913C174.123 51.8239 179.468 58.2483 186.15 63.7544C186.995 64.4563 187.909 65.1044 188.753 65.752L190.09 66.7235L190.793 67.2097L191.497 67.6413C193.325 68.8831 195.365 69.9091 197.475 70.9345C199.586 71.9061 201.766 72.7163 204.017 73.4182C206.338 74.0657 208.659 74.5518 211.051 74.9297C215.834 75.5772 220.758 75.6854 225.682 75.3076C230.535 74.9835 235.388 74.2816 240.171 73.3638C249.667 71.5826 258.952 69.0452 268.166 66.3457C277.311 63.6467 286.385 60.6776 295.459 57.7084C313.536 51.7157 331.402 45.4533 349.409 39.2991L834.119 -127.462C843.126 -130.539 852.128 -133.616 861.2 -136.585C870.273 -139.555 879.35 -142.47 888.635 -145.061C897.919 -147.653 907.274 -150.082 917.052 -151.54C921.904 -152.295 926.897 -152.781 931.894 -152.781C936.887 -152.835 941.95 -152.295 946.736 -151.107C949.126 -150.514 951.446 -149.704 953.696 -148.84C955.879 -147.922 957.987 -146.842 960.029 -145.655C963.968 -143.28 967.483 -140.526 970.65 -137.557C976.909 -131.619 982.043 -125.087 986.828 -118.392C991.539 -111.698 995.901 -104.896 1000.05 -98.0396C1004.27 -91.1834 1008.28 -84.2735 1012.36 -77.3636L1205.3 254.164L1202.77 255.025L1010.32 -76.7155C1006.31 -83.6259 1002.23 -90.5359 998.08 -97.3382C993.934 -104.194 989.572 -110.996 984.927 -117.582C980.217 -124.169 975.154 -130.701 969.031 -136.477C965.935 -139.393 962.561 -142.038 958.764 -144.359C956.862 -145.493 954.825 -146.519 952.712 -147.382C950.604 -148.246 948.421 -149.002 946.101 -149.596C941.527 -150.729 936.675 -151.269 931.894 -151.215C927.038 -151.215 922.186 -150.729 917.401 -150.028C907.839 -148.57 898.479 -146.195 889.265 -143.604C880.051 -141.012 870.979 -138.151 861.906 -135.182C852.829 -132.212 843.827 -129.189 834.896 -126.112L349.55 39.9472C331.543 46.1014 313.606 52.3094 295.529 58.3021C286.525 61.2713 277.381 64.2405 268.237 66.94C259.022 69.6389 249.738 72.1764 240.171 73.9581C235.388 74.8753 230.535 75.5234 225.611 75.9013C220.687 76.2792 215.693 76.1709 210.84 75.4696C208.378 75.0917 205.986 74.6056 203.665 73.9037C201.344 73.2018 199.093 72.3922 196.983 71.4206C194.873 70.3946 192.833 69.3149 190.934 68.0736L190.23 67.6413L188.12 66.1837C187.276 65.4823 186.362 64.8342 185.518 64.1323C178.765 58.5718 173.419 52.1479 168.495 45.5615C163.642 38.975 159.21 32.1733 154.99 25.371C146.549 11.7126 138.601 -2.16165 130.582 -15.9821L-13.7549 -264.747Z" fill="#7B49D7" fill-opacity="0.05"/>
<path d="M-13.7549 -231.951L127.485 10.5378C131.424 17.2859 135.363 23.9796 139.442 30.6732C143.522 37.3669 147.672 44.0068 152.173 50.5385C156.675 57.0169 161.458 63.4404 167.226 69.3784C170.11 72.2936 173.205 75.155 176.722 77.6379C177.636 78.2316 178.48 78.8796 179.395 79.4195C180.309 80.0132 181.294 80.5531 182.208 81.0929C184.178 82.1183 186.217 83.0904 188.328 83.8461L189.101 84.1696L189.945 84.4398C190.508 84.6018 191.071 84.8176 191.563 84.9796C192.688 85.3031 193.814 85.5733 194.94 85.843C196.065 86.1132 197.261 86.2752 198.386 86.4911C198.949 86.5987 199.582 86.6531 200.144 86.7069C200.707 86.7607 201.34 86.8689 201.903 86.8689L203.661 86.9771L205.42 87.0309C206.616 87.0847 207.811 87.0309 209.007 87.0309C211.398 86.9771 213.79 86.8151 216.111 86.5993C225.607 85.6272 234.822 83.5221 243.895 81.1468C248.397 79.9594 252.898 78.6638 257.4 77.3138C261.831 75.9645 266.333 74.5607 270.694 73.1575C279.556 70.2961 288.349 67.3815 297.071 64.3581L822.783 -116.266C831.573 -119.236 840.297 -122.259 849.158 -125.119C858.019 -128.035 866.884 -130.842 875.886 -133.379C884.888 -135.916 894.106 -138.292 903.531 -139.803C908.242 -140.559 913.098 -141.099 917.95 -141.206C922.801 -141.261 927.728 -140.99 932.438 -139.911C933.633 -139.695 934.758 -139.371 935.958 -139.047C936.518 -138.885 937.083 -138.669 937.643 -138.507L938.49 -138.237L939.332 -137.913C941.581 -137.104 943.623 -136.132 945.661 -135.052C949.67 -132.839 953.26 -130.302 956.423 -127.441C962.827 -121.773 967.89 -115.457 972.601 -108.979C977.316 -102.501 981.607 -95.8611 985.757 -89.2213C989.908 -82.5276 993.917 -75.8339 997.856 -69.0858L1186.22 254.158L1183.69 255.025L996.025 -68.5459C992.086 -75.294 988.148 -81.9877 983.998 -88.6276C979.847 -95.2675 975.626 -101.907 970.987 -108.331C966.271 -114.755 961.279 -121.017 955.016 -126.523C951.924 -129.276 948.475 -131.814 944.677 -133.919C942.781 -134.944 940.739 -135.916 938.631 -136.672L937.854 -136.996L937.012 -137.266C936.447 -137.428 935.958 -137.643 935.393 -137.805C934.269 -138.075 933.215 -138.399 932.085 -138.615C927.587 -139.641 922.872 -139.911 918.161 -139.857C913.446 -139.749 908.736 -139.263 904.091 -138.507C894.737 -137.05 885.664 -134.728 876.662 -132.192C867.656 -129.654 858.795 -126.847 850 -123.986C841.21 -121.125 832.416 -118.156 823.625 -115.133L297.845 64.898C289.052 67.867 280.26 70.836 271.397 73.6429C266.966 75.0467 262.535 76.4505 258.033 77.7999C253.532 79.1493 249.03 80.4449 244.528 81.6328C235.454 84.0081 226.17 86.1132 216.604 87.0847C214.212 87.3549 211.82 87.4626 209.429 87.517C208.233 87.517 207.038 87.5708 205.842 87.517L204.013 87.4626L202.184 87.3006C201.551 87.2468 200.989 87.1929 200.355 87.1385C199.793 87.0847 199.16 87.0309 198.597 86.9227C197.401 86.7069 196.205 86.5449 195.08 86.2752C193.884 86.0594 192.759 85.7354 191.633 85.4113C191.071 85.2493 190.508 85.0335 189.945 84.8715L189.101 84.6018L188.257 84.2778C186.076 83.5221 184.037 82.4961 181.997 81.4708C181.012 80.9309 180.027 80.3911 179.113 79.7974C178.199 79.2037 177.285 78.6094 176.37 77.9619C172.853 75.4246 169.688 72.5638 166.804 69.6486C161.036 63.7106 156.253 57.2866 151.751 50.7549C147.25 44.2227 143.1 37.5828 139.02 30.8891C134.941 24.1954 131.001 17.4479 127.133 10.6998L-13.7549 -231.951Z" fill="#7B49D7" fill-opacity="0.05"/>
<path d="M-13.7549 -200.148L101.065 -2.99861C108.729 10.1267 116.252 23.3059 124.057 36.4312C127.994 42.9666 131.932 49.5027 136.151 55.9299C140.369 62.3576 144.799 68.6771 149.861 74.7268C154.924 80.7221 160.69 86.502 168.002 90.9849C169.83 92.0653 171.729 93.0912 173.768 93.9556L174.541 94.2798L175.314 94.5497L176.861 95.1437C177.916 95.4679 178.971 95.846 180.095 96.1158C184.455 97.3044 189.096 97.8446 193.736 97.9523C198.377 98.0605 203.017 97.6825 207.587 97.0884C212.158 96.4939 216.728 95.63 221.228 94.6035C230.228 92.6055 238.947 90.1205 247.666 87.4741C265.033 82.1267 282.119 76.2391 299.204 70.4059L811.57 -105.84C820.145 -108.757 828.654 -111.674 837.305 -114.483C845.88 -117.291 854.601 -120.046 863.388 -122.584C872.179 -125.069 881.107 -127.392 890.317 -128.904C894.96 -129.66 899.598 -130.2 904.382 -130.362C909.09 -130.524 913.944 -130.255 918.582 -129.444C923.225 -128.58 927.727 -127.122 931.664 -125.069C935.672 -123.071 939.256 -120.586 942.492 -117.939C948.889 -112.538 954.021 -106.434 958.735 -100.169C963.443 -93.9031 967.662 -87.4759 971.741 -80.9399C975.819 -74.4583 979.756 -67.869 983.623 -61.333L1167.14 254.157L1164.61 255.025L981.652 -60.6852C977.785 -67.2206 973.919 -73.8105 969.84 -80.2921C965.762 -86.7737 961.613 -93.2014 956.975 -99.4127C952.333 -105.624 947.271 -111.674 941.015 -116.913C937.92 -119.506 934.477 -121.936 930.606 -123.827C926.81 -125.772 922.52 -127.176 918.093 -127.986C913.662 -128.796 909.02 -129.066 904.452 -128.904C899.88 -128.742 895.242 -128.202 890.74 -127.5C881.671 -125.987 872.809 -123.719 864.023 -121.288C855.302 -118.804 846.656 -116.103 838.005 -113.294C829.43 -110.486 820.851 -107.623 812.271 -104.706L299.696 70.9455C282.611 76.7793 265.525 82.6668 248.088 87.9598C239.369 90.6069 230.58 93.0912 221.58 95.0899C217.08 96.062 212.51 96.9264 207.869 97.5742C203.228 98.1688 198.518 98.5469 193.877 98.4387C189.166 98.3304 184.455 97.7908 180.025 96.5483C178.9 96.2779 177.846 95.8998 176.72 95.5218L175.103 94.9277L173.557 94.2798C171.447 93.4155 169.549 92.3351 167.65 91.2548C160.268 86.7179 154.502 80.8842 149.369 74.8889C144.307 68.7854 139.877 62.4659 135.658 56.0381C131.44 49.6104 127.502 43.0749 123.564 36.5389C115.76 23.4142 108.307 10.2344 100.643 -2.89091L-13.7549 -200.148Z" fill="#7B49D7" fill-opacity="0.05"/>
<path d="M-13.7549 -167.352L98.0089 24.4985C105.465 37.292 112.85 50.0861 120.868 62.6638C124.877 68.9252 129.097 75.1871 133.74 81.1794C138.382 87.1712 143.516 93.0014 149.917 97.9673C153.152 100.451 156.599 102.664 160.538 104.391C162.507 105.309 164.547 106.011 166.657 106.604C167.712 106.875 168.767 107.198 169.893 107.415C170.455 107.522 170.947 107.684 171.51 107.738L173.198 108.008C177.629 108.71 182.201 108.764 186.703 108.548C191.204 108.332 195.706 107.738 200.137 106.982C208.999 105.471 217.65 103.204 226.161 100.775C234.672 98.3451 243.112 95.6464 251.482 92.9471C268.222 87.4413 284.821 81.6649 301.491 75.9972L800.314 -95.4482C808.614 -98.3096 816.985 -101.117 825.351 -103.87C833.722 -106.623 842.164 -109.268 850.747 -111.697C859.325 -114.126 867.978 -116.394 876.98 -117.905C881.483 -118.661 885.981 -119.254 890.625 -119.47C895.199 -119.686 899.909 -119.578 904.483 -118.876L906.167 -118.607C906.732 -118.499 907.297 -118.39 907.857 -118.229C908.981 -118.013 910.04 -117.689 911.165 -117.419L912.783 -116.879L914.327 -116.339L915.875 -115.745L918.199 -114.774L918.9 -114.396L920.378 -113.64C921.291 -113.101 922.279 -112.615 923.192 -112.021L924.528 -111.157C924.952 -110.887 925.371 -110.563 925.794 -110.294C926.636 -109.699 927.483 -109.052 928.326 -108.458C931.563 -105.921 934.513 -103.168 937.186 -100.307C939.859 -97.4457 942.324 -94.4767 944.644 -91.4539C949.354 -85.4078 953.504 -79.1459 957.513 -72.8301C961.522 -66.5144 965.39 -60.1443 969.122 -53.7747L1148.06 253.164L1145.52 254.031L967.362 -53.1266C963.565 -59.4968 959.767 -65.8663 955.758 -72.1283C951.749 -78.3902 947.599 -84.6522 942.955 -90.6439C940.635 -93.6672 938.245 -96.5818 935.572 -99.3893C932.97 -102.196 930.085 -104.895 926.919 -107.378C926.147 -107.972 925.37 -108.62 924.528 -109.159C924.105 -109.43 923.681 -109.754 923.262 -110.023L921.997 -110.833C921.15 -111.373 920.237 -111.859 919.324 -112.399L917.917 -113.101L917.211 -113.478L916.51 -113.802L915.033 -114.45L913.555 -115.044L912.007 -115.583L910.459 -116.069C909.405 -116.339 908.351 -116.663 907.297 -116.879C906.732 -116.987 906.238 -117.095 905.678 -117.203L904.06 -117.473C899.698 -118.175 895.199 -118.283 890.696 -118.067C886.193 -117.851 881.765 -117.311 877.333 -116.556C868.467 -115.044 859.889 -112.83 851.377 -110.456C842.865 -108.026 834.428 -105.381 826.057 -102.682C817.686 -99.9292 809.315 -97.1216 801.02 -94.3147L301.843 76.6985C285.173 82.3668 268.574 88.1427 251.834 93.5951C243.464 96.3482 235.023 98.9932 226.443 101.422C217.861 103.851 209.21 106.065 200.277 107.576C195.846 108.332 191.275 108.926 186.703 109.142C182.131 109.358 177.489 109.249 172.987 108.548L171.299 108.278C170.736 108.17 170.174 108.062 169.611 107.954C168.486 107.738 167.431 107.415 166.305 107.144C164.195 106.497 162.085 105.795 160.116 104.877C156.107 103.15 152.59 100.829 149.354 98.3457C142.883 93.3249 137.819 87.4414 133.107 81.4491C128.464 75.403 124.244 69.1954 120.235 62.8797C112.217 50.302 104.902 37.454 97.4466 24.6605L75.1499 -13.7207L-13.7549 -167.352Z" fill="#7B49D7" fill-opacity="0.05"/>
<path d="M-13.7549 -134.556L95.0966 52.3999C98.7527 58.6134 102.48 64.8275 106.347 70.9871C110.214 77.1473 114.152 83.2531 118.512 89.1967C122.871 95.1404 127.583 100.976 133.208 106.163C136.021 108.756 139.115 111.188 142.56 113.349C146.006 115.511 149.874 117.186 153.952 118.429C158.03 119.617 162.39 120.32 166.82 120.536C171.25 120.752 175.61 120.536 180.04 120.049C188.759 119.077 197.338 117.132 205.705 114.971C214.073 112.755 222.37 110.27 230.528 107.676C238.755 105.083 246.841 102.381 254.998 99.625C271.241 94.1135 287.414 88.548 303.587 82.9288L789.127 -84.1965C805.371 -89.7081 821.615 -95.2196 838.282 -100.029C846.646 -102.406 855.085 -104.567 863.807 -106.08C868.163 -106.836 872.594 -107.431 877.096 -107.701C881.598 -107.971 886.095 -107.917 890.597 -107.323C895.094 -106.782 899.385 -105.594 903.463 -104.027C907.471 -102.352 911.131 -100.245 914.363 -97.8671C920.902 -93.0581 926.039 -87.3843 930.747 -81.549C935.39 -75.7132 939.535 -69.6074 943.548 -63.5016C947.485 -57.3958 951.281 -51.1823 955.007 -44.9682L1128.97 254.163L1126.44 255.025L952.97 -44.3201C949.31 -50.5337 945.514 -56.6933 941.576 -62.7991C937.639 -68.9048 933.49 -74.9568 928.917 -80.7382C924.279 -86.5202 919.217 -92.0856 912.886 -96.7863C909.724 -99.11 906.206 -101.109 902.409 -102.73C898.542 -104.243 894.464 -105.377 890.174 -105.918C885.883 -106.458 881.527 -106.566 877.167 -106.296C872.806 -106.026 868.445 -105.486 864.155 -104.729C855.579 -103.216 847.21 -101.055 838.841 -98.7318C822.25 -93.9767 806.006 -88.4651 789.763 -83.0081L303.868 83.6313C287.695 89.1967 271.452 94.7621 255.209 100.219C247.052 102.975 238.965 105.677 230.738 108.27C222.511 110.864 214.284 113.349 205.846 115.565C197.408 117.726 188.9 119.671 180.04 120.59C175.61 121.076 171.18 121.292 166.749 121.076C162.319 120.86 157.89 120.158 153.741 118.915C149.592 117.618 145.654 115.889 142.209 113.728C138.763 111.567 135.599 109.135 132.787 106.487C127.091 101.192 122.379 95.3564 118.02 89.4128C113.66 83.4691 109.722 77.3089 105.855 71.1493C101.987 64.9897 98.3312 58.7756 94.6746 52.562L-13.7549 -134.556Z" fill="#7B49D7" fill-opacity="0.05"/>
<path d="M-13.7549 -102.753L71.072 42.7667C78.1058 54.916 85.1397 67.0648 92.525 79.052C96.2528 85.0454 100.051 91.0393 104.131 96.8706C108.21 102.702 112.642 108.426 117.776 113.772C120.308 116.417 123.122 118.955 126.146 121.331C129.241 123.653 132.547 125.759 136.275 127.378L137.682 127.972L139.159 128.512C140.073 128.89 141.128 129.161 142.113 129.485C144.153 130.025 146.193 130.564 148.303 130.888C150.413 131.266 152.522 131.428 154.633 131.59C155.688 131.644 156.743 131.698 157.868 131.698C158.923 131.698 160.049 131.698 161.104 131.644C169.685 131.321 178.125 129.808 186.425 127.918C194.655 126.029 202.744 123.707 210.833 121.277C226.87 116.364 242.625 110.964 258.451 105.564L778.735 -73.379C794.565 -78.7247 810.389 -84.1242 826.567 -88.7678C834.656 -91.0899 842.886 -93.1956 851.394 -94.7073C855.614 -95.4633 859.906 -96.0576 864.268 -96.3812C868.63 -96.7053 873.058 -96.7592 877.42 -96.2735C881.782 -95.7874 886.073 -94.9232 890.083 -93.4114C894.092 -91.9535 897.748 -90.0099 901.056 -87.7961C907.667 -83.3145 912.872 -77.8606 917.582 -72.2452C919.906 -69.4375 922.085 -66.5216 924.193 -63.6056C926.306 -60.6897 928.343 -57.7199 930.244 -54.7502C934.183 -48.8107 937.91 -42.8174 941.5 -36.7696C948.742 -24.6747 955.706 -12.5254 962.811 -0.430443L1111.01 254.163L1108.48 255.025L960.699 0.163948C953.669 -11.9854 946.704 -24.1347 939.528 -36.2296C935.943 -42.2773 932.211 -48.2707 928.343 -54.1564C926.376 -57.1261 924.405 -60.0421 922.297 -62.958C920.184 -65.8733 918.076 -68.7354 915.756 -71.4893C911.112 -77.0508 905.978 -82.3965 899.649 -86.716C896.482 -88.8761 892.967 -90.712 889.165 -92.1155C885.368 -93.5197 881.288 -94.3832 877.067 -94.8694C872.851 -95.3012 868.63 -95.2473 864.339 -94.9776C860.118 -94.6535 855.897 -94.0597 851.676 -93.3576C843.305 -91.8458 835.145 -89.7396 827.057 -87.4719C810.884 -82.8283 795.054 -77.5365 779.3 -72.1913L258.592 106.05C242.766 111.45 227.01 116.795 210.903 121.709C202.885 124.139 194.725 126.46 186.425 128.351C178.125 130.241 169.615 131.752 160.963 132.076C159.908 132.13 158.783 132.13 157.728 132.13C156.673 132.13 155.547 132.076 154.492 132.022C152.312 131.861 150.131 131.698 148.021 131.321C145.911 130.996 143.801 130.456 141.761 129.916C140.777 129.592 139.722 129.323 138.807 128.89L137.33 128.351L135.923 127.703C132.125 126.029 128.749 123.923 125.654 121.547C122.559 119.225 119.816 116.633 117.213 113.934C112.079 108.588 107.718 102.81 103.568 96.9788C99.4883 91.1469 95.6904 85.1536 91.9622 79.1602C84.5769 67.1192 77.6136 54.9698 70.5798 42.8206L-13.7549 -102.753Z" fill="#7B49D7" fill-opacity="0.05"/>
<path d="M-13.7549 -70.5021L68.5928 71.0611C75.4845 82.8357 82.5169 94.6098 90.3227 106.006C94.2608 111.677 98.4098 117.349 103.262 122.587C108.044 127.827 113.529 132.85 120.35 136.577C123.726 138.467 127.523 139.871 131.461 140.897C135.399 141.924 139.619 142.356 143.768 142.518C152.136 142.734 160.434 141.546 168.521 139.871C176.608 138.197 184.555 136.09 192.361 133.768C200.166 131.5 207.972 129.015 215.637 126.477C231.038 121.399 246.368 116.107 261.699 110.813L767.457 -63.1026C782.789 -68.2877 798.192 -73.5266 814.013 -78.0099C817.951 -79.1441 821.959 -80.17 825.967 -81.1965C829.975 -82.1685 834.054 -83.0867 838.133 -83.8428C846.361 -85.355 854.872 -86.3277 863.378 -85.6254C867.668 -85.3012 871.818 -84.4369 875.826 -83.1406C879.764 -81.8443 883.419 -80.0623 886.727 -77.9555C893.336 -73.7431 898.61 -68.558 903.254 -63.1565C907.892 -57.7555 911.971 -52.0302 915.838 -46.305C919.705 -40.5798 923.365 -34.6925 926.88 -28.8596C933.984 -17.1393 940.805 -5.3109 947.627 6.46376L1091.93 254.157L1089.39 255.025L945.726 7.11158C938.905 -4.71633 932.154 -16.5448 925.05 -28.2112C921.535 -34.0446 917.88 -39.8781 914.083 -45.6028C910.212 -51.328 906.203 -56.9993 901.635 -62.3465C897.062 -67.6937 891.93 -72.8249 885.532 -76.8752C882.365 -78.8737 878.851 -80.6025 875.125 -81.8443C871.324 -83.0868 867.386 -83.8967 863.237 -84.2209C855.008 -84.9232 846.714 -83.9511 838.627 -82.4927C834.548 -81.7366 830.54 -80.8723 826.602 -79.9002C822.594 -78.9282 818.652 -77.8478 814.714 -76.7675C799.034 -72.2847 783.631 -67.0997 768.233 -61.9146L262.121 111.461C246.79 116.701 231.46 121.993 215.989 127.071C208.253 129.609 200.518 132.04 192.642 134.362C184.765 136.63 176.82 138.791 168.732 140.411C160.645 142.032 152.277 143.274 143.768 143.004C139.548 142.896 135.329 142.41 131.32 141.384C127.312 140.358 123.515 138.899 120.069 137.008C113.177 133.228 107.692 128.205 102.84 122.912C98.0579 117.619 93.8388 111.948 89.9007 106.276C82.0949 94.8257 75.1326 83.0516 68.2414 71.277L-13.7549 -70.5021Z" fill="#7B49D7" fill-opacity="0.05"/>
<path d="M-13.7549 -38.7402L46.3187 64.3618C53.0011 75.7996 59.6135 87.2912 66.5779 98.6753C70.0245 104.34 73.6119 110.005 77.4105 115.562C79.3098 118.314 81.2798 121.119 83.3193 123.817C85.3594 126.514 87.47 129.212 89.791 131.802C94.3638 136.981 99.4283 141.945 105.829 145.883C112.09 149.875 119.828 152.411 127.917 153.059C136.007 153.76 144.167 152.897 152.116 151.494C156.055 150.793 159.994 149.929 163.933 149.012C167.802 148.095 171.671 147.07 175.54 145.991C183.208 143.833 190.734 141.513 198.261 139.085C205.788 136.657 213.244 134.175 220.701 131.64L757.14 -52.7133C772.053 -57.7852 787.037 -62.8026 802.444 -67.1729C806.313 -68.2514 810.181 -69.2768 814.049 -70.2477C817.988 -71.2187 821.927 -72.0822 825.866 -72.8374C833.819 -74.2942 842.116 -75.3195 850.417 -74.78C854.568 -74.5099 858.718 -73.8084 862.587 -72.6755C866.455 -71.4888 870.116 -69.8701 873.42 -67.9281C876.728 -65.9856 879.683 -63.7736 882.422 -61.3458C885.166 -58.9718 887.632 -56.4359 889.952 -53.8463C894.592 -48.6131 898.672 -43.1643 902.474 -37.6067C906.272 -32.0497 909.858 -26.3851 913.373 -20.72C920.338 -9.33591 926.95 2.10135 933.633 13.5929L953.755 47.9603L1073.97 254.164L1071.44 255.025L931.665 14.3488C925.054 2.85663 918.442 -8.58066 911.477 -19.9647C908.027 -25.6299 904.441 -31.2944 900.644 -36.7976C896.846 -42.3546 892.837 -47.7497 888.262 -52.9291C886.013 -55.5187 883.552 -58.0009 880.879 -60.3205C878.206 -62.6406 875.321 -64.8527 872.154 -66.6871C868.987 -68.5753 865.471 -70.0858 861.815 -71.2188C858.088 -72.3522 854.144 -72.9994 850.205 -73.2694C842.186 -73.8084 834.097 -72.8374 826.29 -71.435C822.351 -70.7336 818.412 -69.8701 814.543 -68.8991C810.675 -67.9282 806.807 -66.9028 803.004 -65.8237C787.743 -61.5077 772.759 -56.4903 757.775 -51.4729L220.842 132.125C213.385 134.661 205.858 137.143 198.332 139.571C190.804 141.998 183.208 144.318 175.54 146.476C171.671 147.555 167.802 148.581 163.933 149.498C160.065 150.415 156.125 151.278 152.116 151.979C144.167 153.382 135.937 154.245 127.706 153.49C119.546 152.789 111.668 150.199 105.337 146.207C98.9361 142.214 93.8009 137.197 89.2987 132.017C86.9773 129.428 84.8671 126.73 82.8271 123.979C80.787 121.281 78.8176 118.475 76.9183 115.724C73.1196 110.167 69.6024 104.502 66.0851 98.8372C59.1914 87.4531 52.5795 75.9615 45.8966 64.5237L25.919 30.1026L-13.7549 -38.7402Z" fill="#7B49D7" fill-opacity="0.05"/>
<path d="M-13.7549 -6.64601L44.5361 93.4159C51.0752 104.528 57.6848 115.586 64.9977 126.374C66.8257 129.071 68.7242 131.769 70.6928 134.358C72.6619 137.001 74.7011 139.59 76.9511 142.125C81.3103 147.196 86.2326 152.05 92.2095 155.988C98.1859 159.926 105.499 162.785 113.304 163.648C121.109 164.619 129.124 164.025 136.788 162.785C144.523 161.598 152.117 159.764 159.57 157.768C167.024 155.772 174.407 153.507 181.72 151.188C196.345 146.549 210.83 141.586 225.315 136.623L745.997 -42.2471C760.481 -47.156 775.035 -52.0106 789.942 -56.2719C793.668 -57.3509 797.393 -58.3217 801.194 -59.2925C804.99 -60.2095 808.786 -61.0728 812.653 -61.8279C820.386 -63.2844 828.402 -64.2552 836.488 -63.9314C840.496 -63.7695 844.504 -63.1763 848.375 -62.2055C852.242 -61.1803 855.826 -59.7782 859.133 -57.9979C865.742 -54.3841 871.086 -49.6909 875.795 -44.7281C880.438 -39.7117 884.516 -34.4257 888.312 -29.0854C892.109 -23.6914 895.622 -18.243 899.071 -12.7408C905.891 -1.73707 912.359 9.3748 918.827 20.5411L938.236 54.0387L1054.89 254.164L1052.36 255.025L916.861 21.2962C910.388 10.1843 903.991 -0.981914 897.17 -11.9857C893.797 -17.4879 890.279 -22.9357 886.483 -28.276C882.757 -33.6162 878.749 -38.849 874.177 -43.7573C869.609 -48.6663 864.406 -53.2514 858.075 -56.7033C851.748 -60.1558 844.156 -62.1517 836.418 -62.4749C828.614 -62.7987 820.81 -61.8817 813.217 -60.4252C809.417 -59.7244 805.62 -58.8611 801.824 -57.9441C798.099 -57.0271 794.373 -56.002 790.643 -54.9774C775.806 -50.7698 761.252 -45.9152 746.768 -41.0606L225.737 137.163C211.252 142.071 196.767 147.034 182.142 151.673C174.829 153.992 167.446 156.204 159.922 158.254C152.469 160.25 144.875 162.084 137.07 163.27C129.335 164.457 121.249 165.104 113.374 164.079C112.39 163.972 111.405 163.81 110.421 163.648C109.436 163.486 108.522 163.27 107.538 163.055C106.623 162.785 105.639 162.569 104.725 162.299C103.811 161.976 102.897 161.706 101.983 161.383C98.3971 160.034 95.0921 158.308 92.0688 156.312C86.0213 152.32 81.0995 147.411 76.7398 142.341C74.5605 139.806 72.4507 137.216 70.4821 134.574C68.5135 131.93 66.6144 129.233 64.7865 126.536C57.4736 115.694 50.9345 104.636 44.3955 93.524L25.0587 60.1341L-13.7549 -6.64601Z" fill="#7B49D7" fill-opacity="0.05"/>
<path d="M-13.7549 25.7682L23.88 90.4462C30.1408 101.244 36.4014 111.987 43.014 122.677C46.3205 128.022 49.6971 133.313 53.2845 138.55C56.872 143.733 60.6708 148.915 64.9618 153.774C69.2528 158.634 74.0365 163.33 79.8754 167.164C82.7592 169.053 85.9952 170.727 89.3718 172.022C92.819 173.318 96.4766 174.236 100.205 174.776C107.732 175.802 115.47 175.316 122.997 174.236C130.524 173.102 137.91 171.429 145.156 169.539C159.647 165.706 173.787 161.063 187.856 156.366C201.925 151.669 215.923 146.81 229.922 142.005L692.372 -17.0981C706.372 -21.903 720.373 -26.7624 734.44 -31.513C748.511 -36.2641 762.577 -40.9608 777.001 -45.1182C784.244 -47.1697 791.492 -49.0592 799.017 -50.5708C806.476 -52.0285 814.213 -53.1622 822.02 -53.0546C825.888 -53.0002 829.827 -52.6223 833.63 -51.8665C837.428 -51.1107 841.084 -49.8694 844.463 -48.3573C847.838 -46.7919 850.934 -44.9024 853.748 -42.8509C856.563 -40.745 859.094 -38.5315 861.485 -36.1559C866.196 -31.4053 870.276 -26.3845 874.079 -21.2016C877.877 -16.0182 881.321 -10.7815 884.7 -5.43662C891.454 5.19879 897.713 15.9968 904.042 26.7404L922.754 59.1333L1035.8 253.164L1033.27 254.031L920.645 59.889L901.934 27.4962C895.675 16.6982 889.411 5.95459 882.729 -4.68082C879.354 -9.97189 875.905 -15.2086 872.177 -20.3915C868.45 -25.5205 864.441 -30.5413 859.796 -35.1842C855.156 -39.7733 849.809 -44.0922 843.404 -47.0615C840.171 -48.5193 836.722 -49.7074 833.136 -50.4088C829.55 -51.1651 825.752 -51.543 822.02 -51.543C814.495 -51.6506 806.895 -50.5708 799.511 -49.1131C792.122 -47.6559 784.88 -45.7658 777.703 -43.7687C763.354 -39.6651 749.283 -34.9684 735.216 -30.2716C721.145 -25.5205 707.149 -20.7155 693.148 -15.9106L230.204 142.491C216.205 147.296 202.136 152.101 188.066 156.798C173.998 161.495 159.858 166.084 145.296 169.917C138.051 171.807 130.664 173.48 123.067 174.614C115.54 175.694 107.732 176.18 100.064 175.1C96.2657 174.56 92.5376 173.642 89.0903 172.293C85.6436 170.997 82.4077 169.269 79.5233 167.38C73.685 163.492 68.9012 158.796 64.6102 153.882C60.3187 148.969 56.5906 143.786 52.933 138.604C49.3451 133.367 45.9684 128.076 42.7325 122.731C36.1906 112.042 29.9298 101.244 23.7394 90.4462L-13.7549 25.7682Z" fill="#7B49D7" fill-opacity="0.05"/>
<path d="M-13.7549 59.3828L4.46053 90.6592C10.5793 101.067 16.5573 111.528 22.7464 121.936C28.9354 132.344 35.1949 142.697 42.2981 152.727C45.8852 157.742 49.6125 162.65 53.9026 167.341C58.1927 171.978 62.9754 176.4 68.883 179.906C71.8369 181.634 75.0015 183.139 78.3774 184.271C81.7532 185.408 85.3404 186.161 89.0677 186.54C96.3822 187.349 103.907 186.755 111.151 185.674C114.808 185.137 118.395 184.435 121.982 183.626C125.569 182.873 129.085 181.956 132.602 181.038C139.635 179.151 146.527 177.102 153.42 174.944C167.204 170.63 180.778 165.993 194.352 161.355L682.935 -6.46027C696.509 -11.0978 710.083 -15.7891 723.657 -20.3728C737.302 -24.9566 750.946 -29.486 764.939 -33.4767C771.903 -35.4177 779.007 -37.3055 786.248 -38.7073C793.494 -40.1096 800.947 -41.1882 808.475 -41.1339C812.272 -41.1339 816.069 -40.8107 819.729 -40.1096C823.456 -39.4084 826.97 -38.3298 830.278 -36.8738C836.959 -34.016 842.445 -29.8635 847.155 -25.3878C849.545 -23.1231 851.729 -20.804 853.766 -18.3775C855.808 -16.0047 857.775 -13.5244 859.675 -11.0441C863.402 -6.08286 866.851 -1.01352 870.153 4.1633C876.764 14.4088 882.885 24.8705 889.002 35.2779L1016.72 254.159L1014.19 255.025L887.035 35.8172C880.984 25.4098 874.868 14.9481 868.323 4.75635C865.02 -0.366701 861.642 -5.43542 857.916 -10.3429C856.09 -12.8232 854.189 -15.2498 852.147 -17.6226C850.11 -19.9954 848.002 -22.3144 845.678 -24.5248C841.109 -28.8929 835.764 -32.9374 829.431 -35.6877C826.269 -37.0356 822.891 -38.1142 819.377 -38.7616C815.857 -39.4084 812.201 -39.7321 808.546 -39.7321C804.89 -39.7321 801.229 -39.5165 797.573 -39.0847C793.917 -38.6535 790.328 -38.0605 786.742 -37.3593C779.567 -35.957 772.538 -34.1235 765.574 -32.1825C751.647 -28.2461 738.003 -23.7162 724.358 -19.1867C710.713 -14.603 697.144 -9.96542 683.57 -5.32791L194.633 161.84C181.059 166.478 167.415 171.062 153.631 175.375C146.738 177.533 139.776 179.582 132.743 181.415C129.226 182.33 125.71 183.196 122.123 184.005C118.536 184.814 114.949 185.516 111.292 186.053C103.977 187.134 96.4523 187.723 89.0677 186.914C85.3404 186.483 81.7532 185.731 78.3073 184.599C74.8608 183.467 71.6962 181.956 68.7423 180.175C62.8347 176.616 58.052 172.194 53.7619 167.503C49.4719 162.811 45.7445 157.85 42.1574 152.835C35.1243 142.751 28.8651 132.397 22.676 121.989C16.5573 111.582 10.5089 101.12 4.46053 90.713L-13.7549 59.3828Z" fill="#7B49D7" fill-opacity="0.05"/>
<path d="M-13.7549 90.5003L3.89391 120.904C9.80023 131.002 15.7064 141.155 22.0346 151.092C25.1988 156.06 28.5036 161.028 31.9488 165.888C35.4646 170.749 39.191 175.501 43.4801 179.983C47.699 184.466 52.5507 188.625 58.3869 191.918C61.2699 193.539 64.4338 194.944 67.7383 195.97C71.0433 196.996 74.559 197.698 78.1449 198.021C85.317 198.724 92.5592 198.129 99.5906 197.047C103.106 196.508 106.622 195.806 110.067 195.052C113.513 194.292 116.958 193.431 120.403 192.564C134.044 188.948 147.333 184.63 160.552 180.253C173.771 175.825 186.92 171.289 200.069 166.753L673.628 3.71783C686.781 -0.818114 699.928 -5.35461 713.146 -9.78287C726.364 -14.2106 739.582 -18.6389 753.153 -22.4732C759.974 -24.3632 766.795 -26.1993 773.827 -27.6036C777.341 -28.3058 780.86 -28.9535 784.444 -29.3853C788.028 -29.8177 791.688 -30.1419 795.343 -30.1958C798.998 -30.2496 802.658 -30.0337 806.313 -29.4936C809.897 -28.9535 813.416 -27.9816 816.718 -26.7394C823.327 -24.2011 828.882 -20.3129 833.666 -16.1011C838.445 -11.8349 842.453 -7.13635 846.179 -2.38449C849.904 2.42178 853.282 7.33627 856.588 12.3046C863.127 22.2413 869.101 32.3395 875.009 42.4382L892.658 72.8416L998.76 255.157L996.23 256.018L872.968 43.1942C867.064 33.0955 861.085 22.9973 854.688 13.0606C851.452 8.14612 848.079 3.23218 844.424 -1.52026C840.764 -6.27267 836.757 -10.8625 832.118 -15.021C827.476 -19.1789 822.132 -22.905 815.805 -25.3356C812.639 -26.5773 809.337 -27.4415 805.889 -27.9816C802.446 -28.5217 798.927 -28.7376 795.343 -28.6838C788.24 -28.5755 781.142 -27.6036 774.251 -26.1993C767.289 -24.8494 760.468 -23.0671 753.718 -21.1772C740.218 -17.3428 726.999 -12.9689 713.781 -8.59448C700.558 -4.16623 687.411 0.36972 674.263 4.85239L200.139 167.131C186.99 171.613 173.771 176.149 160.552 180.577C147.333 184.953 133.974 189.271 120.333 192.836C116.887 193.697 113.512 194.565 109.997 195.318C106.551 196.078 103.036 196.78 99.45 197.262C92.3484 198.344 85.1058 198.94 77.9341 198.18C74.3478 197.806 70.8321 197.154 67.4575 196.078C64.082 195.052 60.9181 193.646 58.0355 191.975C52.1993 188.676 47.3477 184.466 43.1287 179.983C38.9097 175.501 35.1132 170.749 31.6677 165.888C28.152 161.028 24.9175 156.06 21.7534 151.092C15.4252 141.101 9.51898 131.002 3.68289 120.85L-13.7549 90.5003Z" fill="#7B49D7" fill-opacity="0.05"/>
<path d="M-16 119.941C-10.3015 129.748 -4.60315 139.554 1.23595 149.253C7.14547 159.006 13.1253 168.705 20.0198 178.026C23.467 182.716 27.1955 187.239 31.3464 191.553C35.5671 195.806 40.3512 199.798 46.0498 202.868C48.9339 204.429 51.9592 205.667 55.2655 206.64C58.5017 207.606 61.9491 208.2 65.3961 208.522C72.3607 209.173 79.3258 208.579 86.2198 207.606C89.6673 207.069 93.0442 206.425 96.421 205.724C99.7979 204.966 103.104 204.214 106.41 203.349C113.023 201.63 119.566 199.741 126.039 197.745C138.983 193.759 151.787 189.45 164.591 185.085L662.044 14.2239C674.775 9.85923 687.581 5.44081 700.383 1.13041C713.189 -3.17998 726.061 -7.43664 739.15 -11.2087C745.692 -13.0945 752.375 -14.8185 759.128 -16.2734C762.503 -16.974 765.953 -17.6204 769.398 -18.1592C772.848 -18.6444 776.363 -19.0215 779.879 -19.1832C783.4 -19.3449 786.986 -19.2912 790.502 -18.9678C794.022 -18.5907 797.538 -17.9438 800.846 -16.9203C807.53 -14.8728 813.295 -11.4779 818.223 -7.54464C820.684 -5.6046 822.934 -3.4497 825.047 -1.29421C827.155 0.861248 829.127 3.12419 831.024 5.38709C834.827 9.9672 838.202 14.6548 841.44 19.4503C847.911 28.9877 853.747 38.7405 859.588 48.4933C865.358 58.2461 871.057 68.1064 876.752 77.8592L979.677 254.16L977.145 255.025L874.714 78.6672C869.015 68.8607 863.386 59.0541 857.62 49.2476C851.85 39.4948 846.01 29.742 839.609 20.2046C836.371 15.4633 833.067 10.7752 829.339 6.24943C827.508 3.98649 825.536 1.77729 823.498 -0.324451C821.385 -2.42565 819.277 -4.52743 816.886 -6.41317C812.17 -10.2384 806.612 -13.4716 800.211 -15.4117C793.881 -17.4049 786.915 -17.9438 780.091 -17.6203C776.646 -17.4592 773.196 -17.0821 769.821 -16.5969C766.442 -16.1118 763.068 -15.4654 759.689 -14.7649C753.005 -13.3637 746.393 -11.6396 739.851 -9.75384C726.767 -6.036 713.961 -1.77935 701.159 2.4773C688.353 6.78828 675.622 11.1524 662.816 15.5171L164.802 185.407C151.998 189.721 139.194 194.03 126.25 198.016C119.777 200.013 113.235 201.895 106.552 203.62C103.245 204.485 99.868 205.237 96.5618 205.989C93.1849 206.69 89.808 207.341 86.3605 207.878C79.4661 208.845 72.4313 209.438 65.4663 208.794C62.0193 208.472 58.5723 207.821 55.2655 206.854C51.9592 205.882 48.8638 204.593 46.0498 203.026C40.3512 199.905 35.497 195.913 31.3464 191.604C27.1251 187.296 23.467 182.716 20.0198 178.081C13.1253 168.705 7.14546 159.006 1.30632 149.307C-4.60315 139.554 -10.3015 129.748 -16 119.941Z" fill="#7B49D7" fill-opacity="0.05"/>
<path d="M-14.8777 154.793C-9.24806 164.185 -3.61846 173.576 2.64448 182.754C5.81109 187.342 9.04823 191.823 12.7075 196.19C16.2963 200.563 20.3074 204.777 24.9518 208.498C29.5963 212.225 35.0146 215.46 41.2072 217.516C47.3997 219.566 54.226 220.263 60.9109 220.104C67.5964 219.889 74.2814 218.915 80.7555 217.674C87.2295 216.377 93.633 214.763 99.9663 212.979C112.633 209.416 125.019 205.366 137.333 201.265C149.648 197.108 161.963 192.899 174.207 188.69L653.287 23.8479C665.603 19.6376 677.848 15.3736 690.163 11.2715C702.479 7.11512 714.86 3.06687 727.528 -0.549182C733.86 -2.33062 740.268 -4.00384 746.811 -5.40688C750.045 -6.05486 753.355 -6.70229 756.731 -7.18828C760.04 -7.67428 763.415 -8.05208 766.866 -8.21407C773.622 -8.59188 780.66 -8.15969 787.133 -6.32448C793.677 -4.54363 799.378 -1.41301 804.232 2.25746C806.694 4.09266 808.949 6.08988 810.987 8.14091C813.096 10.1919 815.069 12.2968 816.9 14.5098C820.629 18.8282 824.004 23.3619 827.172 27.95C833.504 37.1261 839.276 46.5174 844.836 55.9093C850.466 65.3013 855.885 74.8008 861.374 84.2465L894.375 140.921L960.594 254.164L958.062 255.025L859.472 84.8407C853.983 75.395 848.564 65.8949 843.004 56.503C837.445 47.1116 831.748 37.7197 825.482 28.598C822.319 24.0637 819.009 19.53 815.351 15.2654C813.52 13.1068 811.552 11.0014 809.509 9.00471C807.471 7.00749 805.286 5.0641 802.895 3.28324C798.182 -0.27959 792.693 -3.24822 786.497 -4.97527C780.307 -6.70229 773.622 -7.18828 767.007 -6.81048C763.698 -6.64849 760.393 -6.27068 757.154 -5.78469C753.845 -5.29925 750.61 -4.70565 747.371 -4.05767C740.898 -2.70843 734.566 -1.03521 728.23 0.746228C715.637 4.30848 703.251 8.35673 690.935 12.4588C678.62 16.5608 666.304 20.7711 653.994 24.9813L174.559 188.906C162.244 193.114 150 197.328 137.615 201.429C125.23 205.53 112.844 209.58 100.178 213.086C93.8444 214.871 87.4405 216.434 80.8962 217.731C74.3515 219.023 67.7367 219.997 60.9816 220.155C54.226 220.376 47.3997 219.617 41.2072 217.567C35.0146 215.516 29.5259 212.276 24.9518 208.498C20.3074 204.72 16.3667 200.512 12.7778 196.139C9.18894 191.766 5.88152 187.235 2.78529 182.647C-3.61846 173.631 -9.3184 164.239 -14.8777 154.793Z" fill="#7B49D7" fill-opacity="0.05"/>
<path d="M-13.7549 186.144C-10.8704 190.618 -7.84528 195.035 -4.67932 199.402C-1.51336 203.768 1.93397 208.027 5.73301 212.066C9.53216 216.11 13.8236 219.939 18.8187 223.118C23.8138 226.297 29.6533 228.667 35.9852 229.855C42.317 231.042 48.8597 231.042 55.3323 230.449C61.8048 229.855 68.1366 228.667 74.3277 227.27C86.7805 224.408 98.8813 220.743 110.841 216.919C122.801 213.09 134.691 209.051 146.581 204.95L608.807 46.059C632.514 37.9203 656.151 29.7273 680.004 21.6966C691.893 17.7079 703.853 13.8272 716.095 10.3237C722.213 8.59915 728.407 6.98203 734.667 5.63474C740.927 4.28741 747.403 3.20935 753.945 2.77835C760.487 2.34677 767.241 2.61661 773.572 4.12567C776.739 4.88022 779.836 5.95828 782.651 7.25183C785.531 8.54541 788.134 10.1082 790.601 11.8333C795.524 15.2288 799.604 19.2175 803.403 23.3138C807.13 27.4637 810.439 31.776 813.606 36.1414C819.866 44.9272 825.495 53.9284 830.913 62.9834C836.401 72.0385 841.677 81.1472 846.953 90.2559L942.634 254.165L940.102 255.025L844.91 91.0104C839.634 81.9017 834.358 72.793 828.941 63.738C823.523 54.683 817.965 45.6817 811.776 36.9502C808.679 32.5842 805.375 28.3263 801.713 24.23C798.056 20.1876 794.046 16.2526 789.264 12.9652C784.548 9.67725 779.06 7.03635 773.012 5.58099C766.959 4.12567 760.487 3.8559 754.086 4.23315C747.681 4.66473 741.35 5.68848 735.161 6.98206C728.967 8.32993 722.778 9.89273 716.725 11.6173C704.554 15.067 692.594 18.9477 680.705 22.8822C656.928 30.8597 633.215 38.9984 609.438 47.0827L146.652 205.114C134.762 209.159 122.872 213.197 110.912 217.026C98.8813 220.856 86.8507 224.521 74.3277 227.321C68.0665 228.723 61.7347 229.855 55.2621 230.449C48.7896 231.042 42.1763 230.986 35.8445 229.855C29.5126 228.667 23.6029 226.24 18.6078 223.062C13.6127 219.883 9.32102 216.054 5.52197 212.015C1.72287 207.971 -1.65404 203.712 -4.82 199.345C-7.91551 195.035 -10.8704 190.618 -13.7549 186.144Z" fill="#7B49D7" fill-opacity="0.05"/>
<path d="M-13.7549 214.646C-10.5201 218.748 -7.07451 222.798 -3.13657 226.577C0.801406 230.3 5.23166 233.807 10.4353 236.509C15.6391 239.206 21.6164 240.934 27.8046 241.693C33.9927 242.396 40.3215 242.067 46.5097 241.314C58.8861 239.75 70.7705 236.509 82.5141 233.11C94.2578 229.654 105.72 225.818 117.252 221.988C140.247 214.209 163.102 206.278 186.026 198.391L598.386 56.4017C621.311 48.5197 644.165 40.5833 667.16 32.8089C678.695 28.9756 690.226 25.1422 701.968 21.7411C707.877 20.0675 713.786 18.4477 719.831 17.0981C725.881 15.7486 732.067 14.6149 738.324 13.9667C741.49 13.6427 744.656 13.4806 747.817 13.535C750.983 13.5888 754.22 13.8047 757.311 14.3446C763.573 15.3707 769.547 17.5298 774.609 20.5536C779.676 23.5768 784.032 27.2481 787.833 31.0815C791.63 34.9687 795.073 39.0717 798.239 43.283C804.567 51.7049 810.052 60.3971 815.396 69.1432C820.741 77.8898 825.873 86.6897 831.01 95.5439L861.81 148.453L923.551 254.163L921.02 255.025L829.039 96.192C823.907 87.3916 818.845 78.5374 813.501 69.7914C808.152 61.0453 802.671 52.3531 796.48 44.0388C793.384 39.8813 790.011 35.8321 786.286 31.9987C782.555 28.166 778.34 24.6028 773.485 21.7411C768.634 18.8256 763.008 16.774 756.963 15.8024C753.938 15.3163 750.913 15.0466 747.817 14.9928C744.727 14.9384 741.631 15.1004 738.536 15.4245C732.349 16.0182 726.299 17.1519 720.325 18.4477C714.345 19.7978 708.441 21.3632 702.533 23.0368C690.79 26.3841 679.255 30.1636 667.725 33.9964C644.729 41.717 621.805 49.5996 598.88 57.4278L186.167 198.663C163.242 206.493 140.318 214.374 117.323 222.147C105.79 225.983 94.2578 229.813 82.5141 233.218C70.7705 236.617 58.8861 239.801 46.4396 241.37C40.2514 242.124 33.9226 242.396 27.6639 241.693C21.4757 240.991 15.4281 239.206 10.2244 236.509C5.02062 233.756 0.590411 230.3 -3.34752 226.521C-7.07451 222.793 -10.5201 218.748 -13.7549 214.646Z" fill="#7B49D7" fill-opacity="0.05"/>
<path d="M-13.7549 239.451C-9.74724 242.969 -5.24757 246.214 -0.0447626 248.642C1.29106 249.187 2.55655 249.833 3.96273 250.265C4.66582 250.48 5.29859 250.753 6.07195 250.968L8.18127 251.564C11.0638 252.267 14.0169 252.806 17.0401 253.022C23.0866 253.567 29.2033 253.13 35.1795 252.375C41.1559 251.564 47.0617 250.372 52.8269 248.971C58.592 247.564 64.3572 245.992 70.0523 244.319C75.7474 242.645 81.3719 240.858 86.9264 239.077C98.1053 235.451 109.214 231.667 120.323 227.832L519.744 90.0762L586.323 67.2071C608.543 59.5842 630.688 51.853 652.907 44.3385C664.083 40.6082 675.263 36.8773 686.585 33.5255C692.276 31.8495 697.972 30.2819 703.809 28.876C709.646 27.4707 715.549 26.2271 721.598 25.4164C724.618 24.9835 727.642 24.7134 730.737 24.5512C733.832 24.3889 736.922 24.4428 740.017 24.6589C746.203 25.1457 752.251 26.6055 757.595 29.0922C762.938 31.5794 767.576 34.823 771.588 38.3916C775.595 41.9596 779.109 45.8521 782.345 49.8525C785.576 53.8534 788.601 57.9622 791.413 62.1254C794.226 66.288 796.968 70.5051 799.64 74.7221C804.913 83.1557 809.974 91.6977 814.964 100.24L904.468 254.157L901.938 255.025L812.927 100.943C807.937 92.4006 802.942 83.8587 797.74 75.4251C795.138 71.208 792.467 66.9909 789.584 62.8822C786.771 58.719 783.817 54.6647 780.656 50.7177C777.491 46.7712 774.048 42.9326 770.111 39.4185C766.24 35.9043 761.743 32.7686 756.682 30.3897C751.616 28.0114 745.854 26.6055 739.947 26.1187C736.993 25.8487 733.969 25.8487 731.019 25.9565C728.066 26.1187 725.041 26.3354 722.087 26.7678C716.184 27.5246 710.347 28.7682 704.51 30.1197C698.748 31.5255 693.052 33.0931 687.356 34.7152C676.035 38.067 664.859 41.689 653.679 45.4198C631.393 52.8804 609.244 60.5572 587.029 68.1806L120.533 228.098C109.425 231.883 98.316 235.667 87.067 239.235C81.442 241.023 75.8175 242.804 70.1224 244.483C64.4278 246.157 58.7327 247.723 52.8969 249.13C47.0617 250.537 41.226 251.728 35.1795 252.483C29.2033 253.237 23.0866 253.674 17.0401 253.13C14.0169 252.914 11.0638 252.375 8.11091 251.672L6.00168 251.076C5.29859 250.86 4.5955 250.588 3.89241 250.372C2.48628 249.941 1.22078 249.294 -0.115082 248.75C-5.31784 246.214 -9.81761 243.02 -13.7549 239.451Z" fill="#7B49D7" fill-opacity="0.05"/>
<path d="M55.8416 256.018C66.18 252.993 76.3777 249.69 86.5053 246.284C96.633 242.879 106.76 239.417 116.818 235.954L631.491 58.3894C641.621 54.9277 651.747 51.5204 661.947 48.275C672.214 45.0301 682.555 41.947 693.175 39.4048C698.52 38.1612 703.864 37.0794 709.351 36.3222C712.094 35.9437 714.907 35.6729 717.65 35.5106C720.459 35.3482 723.273 35.3482 726.086 35.5106C731.714 35.8352 737.341 36.8631 742.333 38.8639C747.396 40.8113 751.898 43.5158 755.837 46.5984C759.775 49.6815 763.224 53.0887 766.385 56.6588C769.552 60.1744 772.436 63.8518 775.108 67.5843C780.524 75.048 785.375 82.728 790.16 90.4625C794.87 98.1969 799.443 105.931 803.941 113.72L885.386 253.805L882.854 254.668L801.974 114.477C797.472 106.689 792.973 98.9001 788.259 91.2196C783.549 83.5396 778.764 75.8591 773.349 68.4492C770.676 64.7713 767.863 61.0939 764.771 57.6322C761.676 54.1705 758.297 50.7633 754.5 47.7886C750.703 44.8139 746.412 42.1632 741.561 40.3243C736.776 38.4314 731.431 37.404 726.016 37.0794C723.343 36.9171 720.6 36.9171 717.857 37.0794C715.114 37.2417 712.442 37.458 709.699 37.8365C704.283 38.5398 698.938 39.6216 693.734 40.8112C683.186 43.299 672.919 46.3282 662.648 49.5731C652.452 52.8185 642.322 56.1718 632.197 59.6335L601.882 69.9636L116.888 236.119C106.76 239.576 96.7031 243.038 86.5053 246.392C76.3777 249.69 66.18 252.993 55.8416 256.018Z" fill="#7B49D7" fill-opacity="0.05"/>
<path d="M79.4146 255.025L108.186 245.186L596.173 76.9713C605.74 73.675 615.308 70.3786 624.946 67.1362C634.584 63.8943 644.151 60.7062 653.926 57.6798C663.635 54.6539 673.555 51.8441 683.683 49.5747C688.751 48.4939 693.885 47.5208 699.161 46.9265C704.366 46.3322 709.783 46.1162 715.058 46.5483C720.404 46.981 725.609 48.1695 730.395 50.0607C732.786 51.0332 735.036 52.1685 737.149 53.4109C739.257 54.7078 741.299 56.0591 743.125 57.5176C746.853 60.4357 750.161 63.6782 753.187 66.9745C756.208 70.3247 758.952 73.7827 761.559 77.2951C766.764 84.3199 771.475 91.6152 775.979 98.9099C780.482 106.205 784.84 113.554 789.132 120.903L866.303 253.562L863.771 254.429L787.094 121.659C782.802 114.31 778.511 106.907 774.007 99.6664C769.508 92.3717 764.863 85.1308 759.729 78.1599C757.126 74.6475 754.453 71.2434 751.497 67.9471C748.542 64.6507 745.38 61.4626 741.718 58.6528C739.963 57.1938 737.991 55.8969 735.953 54.7078C733.911 53.5192 731.732 52.4384 729.478 51.5197C724.979 49.6824 719.981 48.5478 714.846 48.1157C709.712 47.683 704.507 47.8996 699.443 48.4395C694.304 48.9799 689.241 49.8985 684.177 50.9793C674.115 53.141 664.341 55.9508 654.632 58.9767C644.923 61.9486 635.285 65.1372 625.647 68.3792C616.014 71.6216 606.446 74.8635 596.879 78.1599L108.256 245.351L79.4146 255.025Z" fill="#7B49D7" fill-opacity="0.05"/>
<path d="M97.375 256.018L589.456 86.3087C598.605 83.172 607.684 80.0358 616.838 76.9529C625.988 73.8701 635.208 70.8417 644.498 67.9751C653.789 65.163 663.221 62.4593 672.865 60.3498C677.72 59.3225 682.579 58.4031 687.576 57.8623C692.572 57.3214 697.643 57.0507 702.71 57.4298C707.777 57.7539 712.844 58.7816 717.421 60.4582C722.064 62.1346 726.217 64.5143 729.88 67.1641C733.539 69.8684 736.849 72.8429 739.802 75.9796C742.759 79.1164 745.505 82.3609 748.038 85.7139C753.175 92.366 757.682 99.2343 762.047 106.157C766.412 113.079 770.561 120.056 774.714 127.086L799.21 169.216L848.342 253.476L845.809 254.339L772.746 127.897C768.663 120.867 764.51 113.89 760.145 106.968C755.85 100.046 751.278 93.2315 746.277 86.5794C743.743 83.2804 741.069 80.0358 738.187 76.9529C735.3 73.8701 732.131 70.9496 728.543 68.3542C724.95 65.7578 721.009 63.4865 716.578 61.864C712.213 60.2419 707.424 59.2681 702.498 58.944C697.643 58.5655 692.642 58.8356 687.787 59.3225C682.933 59.8634 678.073 60.7283 673.289 61.7022C663.716 63.7572 654.354 66.407 645.064 69.2191C635.768 72.0313 626.619 75.0602 617.469 78.0886C608.32 81.1714 599.171 84.2537 590.087 87.3904L97.375 256.018Z" fill="#7B49D7" fill-opacity="0.05"/>
<path d="M118.703 256.019L583.76 95.6971C592.407 92.7273 600.988 89.8112 609.64 86.8952C618.287 84.0336 627.01 81.1719 635.798 78.5795C644.591 75.9876 653.521 73.5039 662.733 71.6679C667.306 70.7499 672.015 69.994 676.729 69.5622C681.438 69.1299 686.294 69.0222 691.074 69.454C695.858 69.8858 700.568 70.912 704.929 72.5859C709.29 74.206 713.228 76.4199 716.742 78.958C720.257 81.4417 723.352 84.3033 726.236 87.2193C729.12 90.1354 731.722 93.2134 734.183 96.3448C739.104 102.609 743.465 109.088 747.685 115.568C751.835 122.102 755.843 128.69 759.781 135.278C767.586 148.507 775.254 161.791 782.989 175.02L829.259 254.613L826.728 255.475L780.74 175.83C773.071 162.546 765.478 149.263 757.673 136.034C753.806 129.446 749.863 122.804 745.718 116.324C741.569 109.844 737.278 103.365 732.423 97.1551C730.033 94.077 727.431 91.0533 724.618 88.1373C721.804 85.2757 718.784 82.5217 715.406 80.0375C712.033 77.6076 708.302 75.4481 704.153 73.8819C700.003 72.2618 695.505 71.3438 690.932 70.912C686.364 70.4802 681.65 70.5879 677.011 71.0202C672.368 71.452 667.795 72.1541 663.227 73.0721C654.151 74.8537 645.222 77.2835 636.433 79.8754C627.64 82.4673 618.923 85.2757 610.271 88.1373C601.619 90.9995 592.972 93.915 584.32 96.8848L118.703 256.019Z" fill="#7B49D7" fill-opacity="0.05"/>
<path d="M137.785 256.018L576.931 104.607C585.084 101.799 593.241 99.045 601.398 96.3448C609.626 93.6452 617.854 90.9988 626.223 88.5689C634.592 86.139 643.027 83.9251 651.749 82.2511C656.11 81.4413 660.536 80.7392 665.039 80.4151C669.541 80.0371 674.108 79.9833 678.61 80.4151C683.113 80.8475 687.61 81.7655 691.689 83.2773C695.838 84.7892 699.634 86.7873 703.012 89.109C709.763 93.7528 715.107 99.4229 719.886 105.255C724.671 111.087 728.89 117.189 732.898 123.291C736.907 129.446 740.703 135.656 744.429 141.866C751.885 154.34 759.054 166.868 766.44 179.396L810.176 254.562L807.645 255.429L764.187 180.26C756.947 167.732 749.773 155.15 742.392 142.676C738.661 136.466 734.935 130.257 730.927 124.1C726.919 117.998 722.77 111.951 718.132 106.119C713.418 100.341 708.215 94.7791 701.676 90.2429C698.439 87.975 694.784 86.0852 690.917 84.6272C686.98 83.1691 682.76 82.305 678.399 81.8193C669.682 81.009 660.819 81.9814 652.243 83.601C643.662 85.2211 635.223 87.435 626.854 89.8111C618.56 92.1871 610.332 94.8329 602.104 97.4787C593.876 100.125 585.719 102.879 577.562 105.687L137.785 256.018Z" fill="#7B49D7" fill-opacity="0.05"/>
<path d="M156.869 256.018L569.989 113.615C585.308 108.382 600.702 103.204 616.444 98.7271C624.314 96.5155 632.326 94.412 640.55 92.9556C648.773 91.4992 657.279 90.5822 665.78 91.2835C669.998 91.661 674.215 92.5243 678.151 93.8726C682.086 95.2209 685.674 97.0549 688.974 99.1046C695.58 103.312 700.781 108.544 705.421 113.992C710.062 119.44 714.134 125.104 718.003 130.821C721.868 136.539 725.522 142.364 729.034 148.244C736.134 159.949 742.951 171.762 749.769 183.519L791.094 254.128L788.564 254.988L747.733 184.221C740.916 172.409 734.168 160.596 727.139 148.945C723.622 143.119 720.039 137.294 716.174 131.577C712.38 125.859 708.304 120.195 703.804 114.855C699.238 109.515 694.175 104.391 687.851 100.292C684.686 98.2419 681.244 96.5155 677.521 95.2209C673.792 93.9807 669.786 93.1175 665.71 92.7399C657.561 91.9848 649.197 92.9018 641.114 94.3039C633.032 95.7604 625.02 97.7563 617.215 99.9678C601.543 104.391 586.154 109.569 570.76 114.694L524.795 130.336L156.869 256.018Z" fill="#7B49D7" fill-opacity="0.05"/>
<path d="M177.074 256.019L521.028 137.453C535.384 132.539 549.67 127.572 564.03 122.713C578.386 117.853 592.813 113.048 607.664 108.944C615.056 106.893 622.585 105.057 630.326 103.707C638 102.411 646.024 101.548 653.976 102.196C657.988 102.52 661.929 103.221 665.658 104.409C669.392 105.543 672.909 107.163 676.078 108.999C682.481 112.724 687.618 117.529 692.124 122.497C696.625 127.518 700.637 132.755 704.371 138.1C708.1 143.446 711.617 148.845 714.998 154.298C721.755 165.205 728.158 176.272 734.632 187.285L773.133 253.322L770.595 254.183L732.382 187.936C725.978 176.921 719.64 165.852 712.954 154.946C709.578 149.493 706.127 144.094 702.469 138.748C698.81 133.457 694.869 128.22 690.434 123.306C685.998 118.393 681.003 113.696 674.877 110.132C671.854 108.351 668.474 106.839 664.956 105.705C661.434 104.571 657.635 103.869 653.835 103.6C646.165 102.951 638.354 103.761 630.749 105.003C623.15 106.299 615.687 108.135 608.299 110.132C593.52 114.182 579.093 118.933 564.732 123.738C550.376 128.543 536.015 133.457 521.659 138.371L177.074 256.019Z" fill="#7B49D7" fill-opacity="0.05"/>
<path d="M197.279 256.018L517.831 145.204C531.204 140.603 544.507 135.947 557.951 131.454C571.395 126.961 584.91 122.522 598.773 118.84C602.224 117.92 605.742 117.054 609.264 116.296C612.782 115.484 616.37 114.78 619.963 114.239C627.21 113.102 634.674 112.507 642.062 113.211C645.796 113.59 649.455 114.293 652.902 115.376C656.354 116.458 659.659 117.92 662.617 119.653C668.602 123.117 673.527 127.502 677.893 132.05C680.073 134.377 682.046 136.759 684.014 139.141C685.917 141.577 687.814 144.013 689.575 146.503C693.164 151.484 696.474 156.518 699.643 161.607C706.047 171.784 712.098 182.07 718.083 192.358L754.05 254.121L751.517 254.99L715.903 193.114C709.918 182.825 704.004 172.488 697.67 162.365C694.501 157.276 691.195 152.241 687.744 147.316C685.987 144.825 684.155 142.444 682.258 140.007C680.355 137.626 678.382 135.298 676.273 133.024C672.049 128.53 667.264 124.254 661.491 120.897C658.605 119.219 655.506 117.866 652.201 116.783C648.89 115.755 645.443 115.051 641.855 114.672C634.744 113.968 627.422 114.564 620.311 115.593C616.723 116.134 613.206 116.783 609.754 117.596C606.236 118.354 602.785 119.219 599.338 120.086C585.541 123.713 572.026 128.098 558.582 132.537C545.138 136.976 531.764 141.577 518.391 146.179L197.279 256.018Z" fill="#7B49D7" fill-opacity="0.05"/>
<path d="M218.607 256.018L514.955 153.777C527.339 149.512 539.652 145.248 552.107 141.145C564.562 137.043 577.082 133.048 590.031 129.809C591.65 129.377 593.265 129.054 594.884 128.621C596.503 128.243 598.122 127.866 599.807 127.542C603.116 126.84 606.425 126.3 609.8 125.814C616.484 124.897 623.45 124.465 630.275 125.221C633.721 125.599 637.101 126.246 640.264 127.272C643.502 128.243 646.529 129.593 649.343 131.105C652.158 132.67 654.761 134.397 657.152 136.287C659.543 138.176 661.727 140.228 663.836 142.279C667.988 146.49 671.574 150.916 674.954 155.45C678.329 159.985 681.497 164.628 684.523 169.27C690.572 178.609 696.201 188.057 701.831 197.557L734.968 254.67L732.435 255.531L699.505 198.418C693.951 188.918 688.392 179.419 682.41 170.134C679.383 165.491 676.291 160.849 672.982 156.368C669.677 151.888 666.086 147.461 662.076 143.359C660.038 141.307 657.924 139.31 655.604 137.474C653.283 135.639 650.821 133.912 648.148 132.454C645.474 130.943 642.589 129.701 639.492 128.729C636.465 127.758 633.231 127.11 629.922 126.732C623.38 125.976 616.625 126.354 610.012 127.272C606.703 127.704 603.399 128.243 600.16 128.945C598.541 129.269 596.927 129.647 595.307 129.971C593.688 130.349 592.069 130.727 590.45 131.105C577.647 134.29 565.122 138.23 552.667 142.279C540.217 146.328 527.833 150.538 515.449 154.749L218.607 256.018Z" fill="#7B49D7" fill-opacity="0.05"/>
<path d="M238.813 256.018L511.435 161.637C522.823 157.743 534.206 153.849 545.665 150.117C557.189 146.385 568.718 142.814 580.665 139.948C586.636 138.542 592.683 137.297 598.936 136.54C602.03 136.162 605.19 135.891 608.354 135.783C611.518 135.729 614.678 135.783 617.842 136.162C621.007 136.486 624.096 137.136 627.048 138.001C630.001 138.866 632.883 140.056 635.484 141.409C640.754 144.113 645.324 147.628 649.26 151.415C651.296 153.308 653.054 155.254 654.879 157.256C656.637 159.257 658.325 161.312 659.942 163.368C663.172 167.478 666.196 171.751 669.008 176.024C674.701 184.57 679.972 193.333 685.172 202.04C690.372 210.804 695.432 219.562 700.496 228.326L715.885 254.503L713.355 255.371L698.243 229.029C693.184 220.266 688.196 211.451 683.066 202.687C677.932 193.929 672.731 185.217 667.108 176.673C664.296 172.4 661.348 168.181 658.184 164.071C656.637 162.016 654.949 160.014 653.195 158.013C651.437 156.066 649.678 154.119 647.713 152.28C643.848 148.602 639.489 145.194 634.43 142.544C631.901 141.246 629.23 140.11 626.348 139.245C623.536 138.379 620.583 137.838 617.56 137.46C614.537 137.136 611.518 137.027 608.425 137.081C605.331 137.136 602.312 137.406 599.218 137.784C593.101 138.542 587.13 139.732 581.154 141.084C569.277 143.896 557.753 147.412 546.224 151.09C534.771 154.768 523.312 158.608 511.929 162.502L238.813 256.018Z" fill="#7B49D7" fill-opacity="0.05"/>
<path d="M259.018 256.019L508.653 169.555C519.07 165.982 529.553 162.463 540.106 159.106C550.659 155.803 561.354 152.609 572.33 150.119C577.819 148.873 583.448 147.845 589.149 147.249C592.034 146.924 594.915 146.762 597.8 146.708C600.686 146.653 603.571 146.816 606.457 147.141C609.342 147.466 612.157 148.007 614.901 148.819C617.645 149.631 620.248 150.606 622.71 151.797C625.172 152.988 627.492 154.396 629.677 155.857C630.801 156.615 631.785 157.373 632.84 158.186C633.334 158.565 633.828 158.998 634.318 159.431C634.812 159.81 635.301 160.243 635.725 160.676C637.627 162.354 639.382 164.141 641.072 165.927C642.762 167.714 644.381 169.555 645.93 171.45C649.023 175.185 651.837 179.029 654.582 182.926C659.999 190.721 664.923 198.63 669.781 206.641C674.563 214.601 679.279 222.668 683.921 230.679L697.924 254.718L695.392 255.581L681.529 231.435C676.888 223.373 672.313 215.356 667.531 207.345C662.744 199.386 657.891 191.426 652.543 183.688C649.87 179.841 647.055 175.998 644.099 172.316C642.621 170.475 641.002 168.635 639.382 166.848C637.697 165.115 636.008 163.329 634.176 161.704C633.758 161.271 633.263 160.892 632.769 160.459C632.28 160.081 631.856 159.647 631.362 159.268C630.378 158.51 629.394 157.752 628.34 156.994C626.226 155.533 624.047 154.179 621.726 153.042C619.401 151.905 616.869 150.93 614.266 150.173C611.663 149.415 608.918 148.873 606.174 148.549C603.43 148.224 600.615 148.061 597.8 148.115C594.986 148.115 592.171 148.278 589.361 148.603C583.731 149.144 578.242 150.173 572.754 151.364C561.848 153.746 551.153 156.886 540.6 160.188C530.047 163.491 519.56 166.956 509.148 170.475L259.018 256.019Z" fill="#7B49D7" fill-opacity="0.05"/>
<path d="M278.101 256.018L448.088 197.063C467.006 190.513 485.855 183.912 504.774 177.47C514.268 174.275 523.763 171.082 533.399 168.159C543.035 165.235 552.807 162.421 562.867 160.363C567.929 159.335 572.992 158.469 578.201 157.982C583.404 157.548 588.679 157.44 593.953 158.09C599.157 158.685 604.29 160.093 608.863 162.15C611.112 163.178 613.361 164.369 615.333 165.668C615.827 165.993 616.316 166.318 616.81 166.643C617.304 166.968 617.793 167.292 618.287 167.671C619.2 168.375 620.184 169.079 621.031 169.837C624.616 172.814 627.782 176.008 630.737 179.364C633.687 182.719 636.359 186.133 638.896 189.65C644.029 196.632 648.597 203.835 653.1 211.032C662.03 225.484 670.33 240.101 678.841 254.661L676.31 255.53C667.94 240.913 659.64 226.245 650.922 211.788C646.49 204.59 641.987 197.393 636.995 190.462C634.463 186.997 631.862 183.588 628.977 180.284C626.093 176.982 622.997 173.842 619.553 170.919C618.711 170.161 617.793 169.512 616.881 168.808C616.387 168.483 615.968 168.159 615.474 167.834C614.98 167.509 614.561 167.184 614.067 166.859C612.166 165.56 610.058 164.478 607.88 163.449C605.697 162.421 603.377 161.608 601.058 160.959C598.663 160.255 596.202 159.822 593.741 159.497C588.749 158.847 583.616 158.956 578.549 159.335C573.486 159.768 568.423 160.58 563.431 161.608C553.443 163.611 543.736 166.372 534.1 169.241C524.464 172.164 514.974 175.25 505.479 178.444C486.49 184.776 467.571 191.326 448.651 197.768L278.101 256.018Z" fill="#7B49D7" fill-opacity="0.05"/>
<path d="M299.429 255.432L453.61 202.079C470.718 196.185 487.824 190.183 505.147 184.453C513.804 181.588 522.465 178.832 531.334 176.346C540.137 173.805 549.147 171.535 558.369 170.021C563.017 169.264 567.732 168.724 572.451 168.616L574.208 168.562C574.773 168.562 575.404 168.562 575.97 168.562C577.166 168.562 578.362 168.669 579.559 168.723C581.956 168.94 584.349 169.156 586.671 169.642L587.514 169.805L588.361 170.021C588.922 170.183 589.487 170.291 590.052 170.454C591.178 170.778 592.304 171.102 593.359 171.48C595.539 172.238 597.654 173.156 599.623 174.183C603.635 176.238 607.159 178.725 610.394 181.48C616.804 186.943 621.872 193.104 626.587 199.373C631.306 205.698 635.531 212.131 639.614 218.672C647.781 231.702 655.454 244.943 663.126 258.138L660.592 259C652.99 245.754 645.455 232.513 637.429 219.483C633.416 212.999 629.191 206.509 624.618 200.241C619.969 193.966 614.972 187.862 608.849 182.564C605.75 179.914 602.369 177.481 598.568 175.481C596.67 174.508 594.696 173.589 592.586 172.886C591.526 172.508 590.471 172.183 589.416 171.859C588.851 171.697 588.361 171.589 587.796 171.427L586.953 171.21L586.105 171.048C583.925 170.561 581.603 170.291 579.347 170.129C578.221 170.075 577.025 169.967 575.899 169.967C575.334 169.967 574.773 169.913 574.137 169.913H572.381C567.732 170.021 563.154 170.508 558.581 171.21C549.429 172.67 540.485 174.886 531.687 177.319C522.884 179.805 514.157 182.507 505.496 185.321C488.177 190.943 471.071 196.831 453.821 202.674L402.287 220.243L299.429 255.432Z" fill="#7B49D7" fill-opacity="0.05"/>
</g>
</svg>
