<svg width="173" height="60" viewBox="0 0 173 60" fill="none" xmlns="http://www.w3.org/2000/svg">
<g clip-path="url(#clip0_21_81)">
<path d="M0.000112581 7.5C0.000112581 3.35625 3.28136 0 7.31261 0H165.188C169.219 0 172.5 3.35625 172.5 7.5V52.5C172.5 56.6438 169.219 60 165.188 60H7.31261C6.33999 59.9878 5.3793 59.7841 4.48541 59.4005C3.59151 59.017 2.78193 58.4611 2.10289 57.7646C1.42384 57.0682 0.88864 56.2448 0.527843 55.3415C0.167047 54.4382 -0.012277 53.4726 0.000112581 52.5V7.5Z" fill="#1374EF"/>
<path fill-rule="evenodd" clip-rule="evenodd" d="M60 60V0H61.875V60H60Z" fill="#1269D3"/>
<path fill-rule="evenodd" clip-rule="evenodd" d="M30 18.75L29.2313 20.175L19.4813 38.0438L18.75 39.375H41.25L40.5188 38.0438L30.7875 20.175L30 18.75ZM126.769 38.6063H124.238V21.225H126.769V38.6063ZM77.5312 38.6063V22.0312H83.6813C88.7438 22.0312 91.6875 25.05 91.6875 30.2812C91.6875 35.5312 88.7625 38.6063 83.6813 38.6063H77.5312ZM83.3813 24.2438H80.175V36.375H83.3813C86.9438 36.375 89.0063 34.1625 89.0063 30.3C89.0063 26.475 86.9063 24.2438 83.3813 24.2438V24.2438ZM100.35 36.8062C101.888 36.8062 102.938 36.2625 103.406 35.25H105.844C105.3 37.4625 103.219 38.8312 100.294 38.8312C96.6 38.8312 94.35 36.375 94.35 32.3813C94.35 28.425 96.6562 25.875 100.275 25.875C103.837 25.875 106.013 28.2562 106.013 32.175V33.0188H96.9375V33.1313C97.0125 35.3813 98.325 36.825 100.35 36.825V36.8062ZM103.425 31.2375C103.369 29.2125 102.131 27.9 100.256 27.9C98.3813 27.9 97.0688 29.2125 96.9375 31.2375H103.425ZM115.725 25.9125C114.909 25.8922 114.102 26.0943 113.392 26.4973C112.682 26.9003 112.095 27.4889 111.694 28.2H111.506V26.1375H109.069V42.75H111.6V36.7125H111.787C112.462 38.025 113.925 38.8125 115.744 38.8125C118.987 38.8125 121.05 36.3 121.05 32.3625C121.05 28.4063 118.988 25.9125 115.725 25.9125V25.9125ZM114.994 36.6937C112.875 36.6937 111.544 35.025 111.544 32.3625C111.544 29.6813 112.875 28.0125 115.013 28.0125C117.169 28.0125 118.444 29.6438 118.444 32.3625C118.444 35.0813 117.169 36.6937 114.994 36.6937V36.6937ZM135.994 38.8312C139.762 38.8312 142.069 36.3938 142.069 32.3625C142.069 28.3313 139.744 25.875 136.013 25.875C132.263 25.875 129.938 28.3313 129.938 32.3625C129.938 36.3938 132.244 38.8312 136.013 38.8312H135.994ZM135.994 36.7313C133.8 36.7313 132.562 35.1375 132.562 32.3625C132.562 29.5875 133.8 27.975 136.013 27.975C138.206 27.975 139.462 29.5875 139.462 32.3625C139.462 35.1375 138.206 36.7313 136.013 36.7313H135.994ZM150.825 39.1687C149.738 42.1687 148.519 43.125 145.894 43.125C145.706 43.125 145.087 43.1062 144.844 43.0687V41.0437C145.05 41.0812 145.444 41.1 145.669 41.1C146.888 41.1 147.563 40.5938 147.994 39.2813L148.181 38.625L143.531 26.1188H146.306L149.531 36.1125H149.719L152.925 26.1188H155.625L150.825 39.1687Z" fill="white"/>
</g>
<defs>
<clipPath id="clip0_21_81">
<rect width="172.5" height="60" fill="white"/>
</clipPath>
</defs>
</svg>
