<svg width="310" height="169" viewBox="0 0 310 169" fill="none" xmlns="http://www.w3.org/2000/svg">
<path d="M93.8273 36.7681H1.99512" stroke="#FA5A28" stroke-width="0.664115" stroke-linejoin="round" stroke-dasharray="3.32 3.32"/>
<path d="M90.8327 19.1334H60.5413C56.8735 19.1334 53.9002 16.1601 53.9002 12.4923V9.80374C53.9002 6.13594 50.9268 3.1626 47.259 3.1626H5.32227" stroke="#FA5A28" stroke-width="0.664115" stroke-linejoin="round" stroke-dasharray="3.32 3.32"/>
<path d="M99.4836 54.4025H69.1922C65.5244 54.4025 62.551 57.3758 62.551 61.0436V63.7321C62.551 67.4 59.5777 70.3733 55.9099 70.3733H13.9731" stroke="#FA5A28" stroke-width="0.664115" stroke-linejoin="round" stroke-dasharray="3.32 3.32"/>
<path d="M115.123 79.0238H81.1717C77.5039 79.0238 74.5305 81.9972 74.5305 85.665V88.3535C74.5305 92.0213 71.5572 94.9946 67.8894 94.9946H25.9526" stroke="#FA5A28" stroke-width="0.664115" stroke-linejoin="round" stroke-dasharray="3.32 3.32"/>
<circle r="2.27992" transform="matrix(-1 0 0 1 4.60775 3.11295)" fill="white" stroke="#FA5A28" stroke-width="0.664115"/>
<circle r="2.27992" transform="matrix(-1 0 0 1 2.61166 36.3854)" fill="white" stroke="#FA5A28" stroke-width="0.664115"/>
<circle r="2.27992" transform="matrix(-1 0 0 1 13.9246 70.3234)" fill="white" stroke="#FA5A28" stroke-width="0.664115"/>
<circle r="2.27992" transform="matrix(-1 0 0 1 26.5677 94.9452)" fill="white" stroke="#FA5A28" stroke-width="0.664115"/>
<circle r="2.27992" transform="matrix(-1 0 0 1 115.073 78.9743)" fill="white" stroke="#334155" stroke-width="0.664115"/>
<circle r="2.27992" transform="matrix(-1 0 0 1 99.1019 54.3527)" fill="white" stroke="#334155" stroke-width="0.664115"/>
<circle r="2.27992" transform="matrix(-1 0 0 1 93.7787 36.3854)" fill="white" stroke="#334155" stroke-width="0.664115"/>
<circle r="2.27992" transform="matrix(-1 0 0 1 90.4515 19.0837)" fill="white" stroke="#334155" stroke-width="0.664115"/>
<path d="M216.27 36.7681H308.102" stroke="#FA5A28" stroke-width="0.664115" stroke-linejoin="round" stroke-dasharray="3.32 3.32"/>
<path d="M219.264 19.1334H249.556C253.224 19.1334 256.197 16.1601 256.197 12.4923V9.80374C256.197 6.13594 259.17 3.1626 262.838 3.1626H304.775" stroke="#FA5A28" stroke-width="0.664115" stroke-linejoin="round" stroke-dasharray="3.32 3.32"/>
<path d="M210.614 54.402H240.905C244.573 54.402 247.546 57.3753 247.546 61.0431V63.7317C247.546 67.3995 250.519 70.3728 254.187 70.3728H296.124" stroke="#FA5A28" stroke-width="0.664115" stroke-linejoin="round" stroke-dasharray="3.32 3.32"/>
<path d="M194.976 79.0241H228.927C232.595 79.0241 235.568 81.9974 235.568 85.6652V88.3537C235.568 92.0215 238.541 94.9949 242.209 94.9949H284.146" stroke="#FA5A28" stroke-width="0.664115" stroke-linejoin="round" stroke-dasharray="3.32 3.32"/>
<circle r="2.27992" transform="matrix(-1 0 0 1 194.927 78.9743)" fill="white" stroke="#334155" stroke-width="0.664115"/>
<circle r="2.27992" transform="matrix(-1 0 0 1 284.097 94.9452)" fill="white" stroke="#FA5A28" stroke-width="0.664115"/>
<circle r="2.27992" transform="matrix(-1 0 0 1 296.075 70.3234)" fill="white" stroke="#FA5A28" stroke-width="0.664115"/>
<circle r="2.27992" transform="matrix(-1 0 0 1 307.389 37.0505)" fill="white" stroke="#FA5A28" stroke-width="0.664115"/>
<circle r="2.27992" transform="matrix(-1 0 0 1 304.726 3.11271)" fill="white" stroke="#FA5A28" stroke-width="0.664115"/>
<circle r="2.27992" transform="matrix(-1 0 0 1 210.232 55.0177)" fill="white" stroke="#334155" stroke-width="0.664115"/>
<circle r="2.27992" transform="matrix(-1 0 0 1 216.222 37.0505)" fill="white" stroke="#334155" stroke-width="0.664115"/>
<circle r="2.27992" transform="matrix(-1 0 0 1 218.884 19.0834)" fill="white" stroke="#334155" stroke-width="0.664115"/>
<path d="M155.051 93.9965L155.051 167.529" stroke="#FA5A28" stroke-width="0.664115" stroke-linejoin="round" stroke-dasharray="3.32 3.32"/>
<path d="M137.083 84.6799L137.083 110.743C137.083 114.411 134.11 117.384 130.442 117.384L127.753 117.384C124.086 117.384 121.112 120.357 121.112 124.025L121.112 158.212" stroke="#FA5A28" stroke-width="0.664115" stroke-linejoin="round" stroke-dasharray="3.32 3.32"/>
<path d="M174.347 84.0145L174.347 109.79C174.347 113.458 177.32 116.431 180.988 116.431L183.677 116.431C187.345 116.431 190.318 119.405 190.318 123.072L190.318 156.881" stroke="#FA5A28" stroke-width="0.664115" stroke-linejoin="round" stroke-dasharray="3.32 3.32"/>
<path d="M115.122 70.0402L115.122 100.847C115.122 104.515 112.148 107.488 108.481 107.488L105.792 107.488C102.124 107.488 99.1509 110.461 99.1509 114.129L99.1509 145.569" stroke="#FA5A28" stroke-width="0.664115" stroke-linejoin="round" stroke-dasharray="3.32 3.32"/>
<path d="M194.975 68.7093L194.975 100.322C194.975 103.989 197.949 106.963 201.617 106.963L204.305 106.963C207.973 106.963 210.946 109.936 210.946 113.604L210.946 147.565" stroke="#FA5A28" stroke-width="0.664115" stroke-linejoin="round" stroke-dasharray="3.32 3.32"/>
<circle r="2.27992" transform="matrix(-1 0 0 1 210.898 147.515)" fill="white" stroke="#FA5A28" stroke-width="0.664115"/>
<circle r="2.27992" transform="matrix(-1 0 0 1 190.269 156.831)" fill="white" stroke="#FA5A28" stroke-width="0.664115"/>
<circle r="2.27992" transform="matrix(-1 0 0 1 155.002 166.148)" fill="white" stroke="#FA5A28" stroke-width="0.664115"/>
<circle r="2.27992" transform="matrix(-1 0 0 1 121.064 156.831)" fill="white" stroke="#FA5A28" stroke-width="0.664115"/>
<circle r="2.27992" transform="matrix(-1 0 0 1 99.1024 147.515)" fill="white" stroke="#FA5A28" stroke-width="0.664115"/>
<circle r="2.27992" transform="matrix(-1 0 0 1 137.034 84.2978)" fill="white" stroke="#334155" stroke-width="0.664115"/>
<circle r="2.27992" transform="matrix(-1 0 0 1 155.001 87.6247)" fill="white" stroke="#334155" stroke-width="0.664115"/>
<circle r="2.27992" transform="matrix(-1 0 0 1 174.299 84.2978)" fill="white" stroke="#334155" stroke-width="0.664115"/>
</svg>
