<svg width="75" height="75" viewBox="0 0 75 75" fill="none" xmlns="http://www.w3.org/2000/svg">
<circle cx="37.5" cy="37.5" r="36" stroke="#00CCB0" stroke-width="3"/>
<path d="M36.6 51.48C34.5467 51.48 32.8133 51.1333 31.4 50.44C30.0133 49.72 28.8667 48.8667 27.96 47.88L30.16 44.92C30.9333 45.6933 31.8133 46.36 32.8 46.92C33.7867 47.4533 34.92 47.72 36.2 47.72C37.5867 47.72 38.7067 47.3867 39.56 46.72C40.44 46.0267 40.88 45.08 40.88 43.88C40.88 43 40.6533 42.24 40.2 41.6C39.7733 40.9333 39.0133 40.4267 37.92 40.08C36.8533 39.7333 35.3467 39.56 33.4 39.56V36.2C35.9067 36.2 37.64 35.8133 38.6 35.04C39.56 34.2667 40.04 33.2933 40.04 32.12C40.04 31.0533 39.7067 30.2267 39.04 29.64C38.3733 29.0267 37.4533 28.72 36.28 28.72C35.2933 28.72 34.3867 28.9467 33.56 29.4C32.7333 29.8267 31.9333 30.4 31.16 31.12L28.8 28.28C29.8933 27.32 31.0533 26.5467 32.28 25.96C33.5333 25.3733 34.92 25.08 36.44 25.08C38.8933 25.08 40.88 25.6667 42.4 26.84C43.92 27.9867 44.68 29.64 44.68 31.8C44.68 33.2133 44.28 34.4133 43.48 35.4C42.7067 36.36 41.6267 37.1067 40.24 37.64V37.8C41.7333 38.2 42.9867 38.9333 44 40C45.0133 41.0667 45.52 42.44 45.52 44.12C45.52 45.6667 45.1067 46.9867 44.28 48.08C43.48 49.1733 42.4 50.0133 41.04 50.6C39.7067 51.1867 38.2267 51.48 36.6 51.48Z" fill="#00CCB0"/>
</svg>
