<svg width="75" height="75" viewBox="0 0 75 75" fill="none" xmlns="http://www.w3.org/2000/svg">
<circle cx="37.5" cy="37.5" r="36" stroke="#00CCB0" stroke-width="3"/>
<path d="M28.52 51V48.32C30.8933 46.0267 32.9333 43.9867 34.64 42.2C36.3733 40.3867 37.7067 38.7467 38.64 37.28C39.5733 35.7867 40.04 34.4 40.04 33.12C40.04 31.7867 39.68 30.72 38.96 29.92C38.24 29.12 37.2 28.72 35.84 28.72C34.8533 28.72 33.9467 29 33.12 29.56C32.32 30.12 31.5733 30.7867 30.88 31.56L28.32 29C29.4933 27.7467 30.7067 26.7867 31.96 26.12C33.2133 25.4267 34.7067 25.08 36.44 25.08C38.8933 25.08 40.84 25.7867 42.28 27.2C43.7467 28.6133 44.48 30.5067 44.48 32.88C44.48 34.3733 44.0533 35.9067 43.2 37.48C42.3733 39.0267 41.2533 40.6133 39.84 42.24C38.4533 43.8667 36.92 45.5733 35.24 47.36C35.9067 47.3067 36.6267 47.2533 37.4 47.2C38.1733 47.12 38.8667 47.08 39.48 47.08H45.72V51H28.52Z" fill="#00CCB0"/>
</svg>
