<svg width="310" height="216" viewBox="0 0 310 216" fill="none" xmlns="http://www.w3.org/2000/svg">
<g clip-path="url(#clip0_25_2)">
<path d="M93.8273 83.7681H1.99512" stroke="#FA5A28" stroke-width="0.664115" stroke-linejoin="round" stroke-dasharray="3.32 3.32"/>
<path d="M90.8327 66.1334H60.5413C56.8735 66.1334 53.9002 63.1601 53.9002 59.4923V56.8037C53.9002 53.1359 50.9268 50.1626 47.259 50.1626H5.32227" stroke="#FA5A28" stroke-width="0.664115" stroke-linejoin="round" stroke-dasharray="3.32 3.32"/>
<path d="M99.4836 101.402H69.1922C65.5244 101.402 62.551 104.376 62.551 108.044V110.732C62.551 114.4 59.5777 117.373 55.9099 117.373H13.9731" stroke="#FA5A28" stroke-width="0.664115" stroke-linejoin="round" stroke-dasharray="3.32 3.32"/>
<path d="M115.123 126.024H81.1717C77.5039 126.024 74.5305 128.997 74.5305 132.665V135.353C74.5305 139.021 71.5572 141.995 67.8894 141.995H25.9526" stroke="#FA5A28" stroke-width="0.664115" stroke-linejoin="round" stroke-dasharray="3.32 3.32"/>
<path d="M4.60778 52.393C3.34861 52.393 2.32786 51.3722 2.32786 50.113C2.32786 48.8539 3.34861 47.8331 4.60778 47.8331C5.86694 47.8331 6.8877 48.8539 6.8877 50.113C6.8877 51.3722 5.86694 52.393 4.60778 52.393Z" fill="white" stroke="#FA5A28" stroke-width="0.664115"/>
<path d="M2.61168 85.6653C1.35252 85.6653 0.331761 84.6446 0.331761 83.3854C0.331761 82.1262 1.35252 81.1055 2.61168 81.1055C3.87085 81.1055 4.8916 82.1262 4.8916 83.3854C4.8916 84.6446 3.87085 85.6653 2.61168 85.6653Z" fill="white" stroke="#FA5A28" stroke-width="0.664115"/>
<path d="M13.9247 119.603C12.6655 119.603 11.6447 118.582 11.6447 117.323C11.6447 116.064 12.6655 115.043 13.9247 115.043C15.1838 115.043 16.2046 116.064 16.2046 117.323C16.2046 118.582 15.1838 119.603 13.9247 119.603Z" fill="white" stroke="#FA5A28" stroke-width="0.664115"/>
<path d="M26.5677 144.225C25.3086 144.225 24.2878 143.204 24.2878 141.945C24.2878 140.686 25.3086 139.665 26.5677 139.665C27.8269 139.665 28.8477 140.686 28.8477 141.945C28.8477 143.204 27.8269 144.225 26.5677 144.225Z" fill="white" stroke="#FA5A28" stroke-width="0.664115"/>
<path d="M115.073 128.254C113.814 128.254 112.793 127.233 112.793 125.974C112.793 124.715 113.814 123.694 115.073 123.694C116.332 123.694 117.353 124.715 117.353 125.974C117.353 127.233 116.332 128.254 115.073 128.254Z" fill="white" stroke="#334155" stroke-width="0.664115"/>
<path d="M99.1019 103.633C97.8428 103.633 96.822 102.612 96.822 101.353C96.822 100.094 97.8428 99.0731 99.1019 99.0731C100.361 99.0731 101.382 100.094 101.382 101.353C101.382 102.612 100.361 103.633 99.1019 103.633Z" fill="white" stroke="#334155" stroke-width="0.664115"/>
<path d="M93.7787 85.6653C92.5195 85.6653 91.4988 84.6446 91.4988 83.3854C91.4988 82.1262 92.5195 81.1055 93.7787 81.1055C95.0378 81.1055 96.0586 82.1262 96.0586 83.3854C96.0586 84.6446 95.0378 85.6653 93.7787 85.6653Z" fill="white" stroke="#334155" stroke-width="0.664115"/>
<path d="M90.4515 68.3637C89.1924 68.3637 88.1716 67.3429 88.1716 66.0838C88.1716 64.8246 89.1924 63.8038 90.4515 63.8038C91.7107 63.8038 92.7314 64.8246 92.7314 66.0838C92.7314 67.3429 91.7107 68.3637 90.4515 68.3637Z" fill="white" stroke="#334155" stroke-width="0.664115"/>
<path d="M216.27 83.7681H308.102" stroke="#FA5A28" stroke-width="0.664115" stroke-linejoin="round" stroke-dasharray="3.32 3.32"/>
<path d="M219.264 66.1334H249.556C253.224 66.1334 256.197 63.1601 256.197 59.4923V56.8037C256.197 53.1359 259.17 50.1626 262.838 50.1626H304.775" stroke="#FA5A28" stroke-width="0.664115" stroke-linejoin="round" stroke-dasharray="3.32 3.32"/>
<path d="M210.614 101.402H240.905C244.573 101.402 247.546 104.375 247.546 108.043V110.732C247.546 114.399 250.519 117.373 254.187 117.373H296.124" stroke="#FA5A28" stroke-width="0.664115" stroke-linejoin="round" stroke-dasharray="3.32 3.32"/>
<path d="M194.976 126.024H228.927C232.595 126.024 235.568 128.997 235.568 132.665V135.354C235.568 139.022 238.541 141.995 242.209 141.995H284.146" stroke="#FA5A28" stroke-width="0.664115" stroke-linejoin="round" stroke-dasharray="3.32 3.32"/>
<path d="M194.927 128.254C193.668 128.254 192.647 127.233 192.647 125.974C192.647 124.715 193.668 123.694 194.927 123.694C196.186 123.694 197.207 124.715 197.207 125.974C197.207 127.233 196.186 128.254 194.927 128.254Z" fill="white" stroke="#334155" stroke-width="0.664115"/>
<path d="M284.097 144.225C282.838 144.225 281.817 143.204 281.817 141.945C281.817 140.686 282.838 139.665 284.097 139.665C285.356 139.665 286.377 140.686 286.377 141.945C286.377 143.204 285.356 144.225 284.097 144.225Z" fill="white" stroke="#FA5A28" stroke-width="0.664115"/>
<path d="M296.075 119.603C294.816 119.603 293.795 118.582 293.795 117.323C293.795 116.064 294.816 115.043 296.075 115.043C297.334 115.043 298.355 116.064 298.355 117.323C298.355 118.582 297.334 119.603 296.075 119.603Z" fill="white" stroke="#FA5A28" stroke-width="0.664115"/>
<path d="M307.389 86.3305C306.13 86.3305 305.109 85.3097 305.109 84.0505C305.109 82.7914 306.13 81.7706 307.389 81.7706C308.648 81.7706 309.669 82.7914 309.669 84.0505C309.669 85.3097 308.648 86.3305 307.389 86.3305Z" fill="white" stroke="#FA5A28" stroke-width="0.664115"/>
<path d="M304.726 52.3926C303.467 52.3926 302.446 51.3718 302.446 50.1127C302.446 48.8535 303.467 47.8328 304.726 47.8328C305.985 47.8328 307.006 48.8535 307.006 50.1127C307.006 51.3718 305.985 52.3926 304.726 52.3926Z" fill="white" stroke="#FA5A28" stroke-width="0.664115"/>
<path d="M210.232 104.298C208.973 104.298 207.952 103.277 207.952 102.018C207.952 100.759 208.973 99.738 210.232 99.738C211.491 99.738 212.512 100.759 212.512 102.018C212.512 103.277 211.491 104.298 210.232 104.298Z" fill="white" stroke="#334155" stroke-width="0.664115"/>
<path d="M216.222 86.3305C214.963 86.3305 213.942 85.3097 213.942 84.0505C213.942 82.7914 214.963 81.7706 216.222 81.7706C217.481 81.7706 218.502 82.7914 218.502 84.0505C218.502 85.3097 217.481 86.3305 216.222 86.3305Z" fill="white" stroke="#334155" stroke-width="0.664115"/>
<path d="M218.884 68.3633C217.625 68.3633 216.604 67.3426 216.604 66.0834C216.604 64.8242 217.625 63.8035 218.884 63.8035C220.143 63.8035 221.164 64.8242 221.164 66.0834C221.164 67.3426 220.143 68.3633 218.884 68.3633Z" fill="white" stroke="#334155" stroke-width="0.664115"/>
<path d="M155.051 140.997V214.529" stroke="#FA5A28" stroke-width="0.664115" stroke-linejoin="round" stroke-dasharray="3.32 3.32"/>
<path d="M137.083 131.68V157.743C137.083 161.411 134.11 164.384 130.442 164.384H127.753C124.086 164.384 121.112 167.357 121.112 171.025V205.212" stroke="#FA5A28" stroke-width="0.664115" stroke-linejoin="round" stroke-dasharray="3.32 3.32"/>
<path d="M174.347 131.015V156.79C174.347 160.458 177.32 163.431 180.988 163.431H183.677C187.345 163.431 190.318 166.405 190.318 170.072V203.881" stroke="#FA5A28" stroke-width="0.664115" stroke-linejoin="round" stroke-dasharray="3.32 3.32"/>
<path d="M115.122 117.04V147.847C115.122 151.515 112.148 154.488 108.481 154.488H105.792C102.124 154.488 99.1509 157.461 99.1509 161.129V192.569" stroke="#FA5A28" stroke-width="0.664115" stroke-linejoin="round" stroke-dasharray="3.32 3.32"/>
<path d="M194.975 115.709V147.322C194.975 150.989 197.949 153.963 201.617 153.963H204.305C207.973 153.963 210.946 156.936 210.946 160.604V194.565" stroke="#FA5A28" stroke-width="0.664115" stroke-linejoin="round" stroke-dasharray="3.32 3.32"/>
<path d="M210.898 196.795C209.639 196.795 208.618 195.774 208.618 194.515C208.618 193.256 209.639 192.235 210.898 192.235C212.157 192.235 213.178 193.256 213.178 194.515C213.178 195.774 212.157 196.795 210.898 196.795Z" fill="white" stroke="#FA5A28" stroke-width="0.664115"/>
<path d="M190.269 206.111C189.01 206.111 187.989 205.09 187.989 203.831C187.989 202.572 189.01 201.551 190.269 201.551C191.528 201.551 192.549 202.572 192.549 203.831C192.549 205.09 191.528 206.111 190.269 206.111Z" fill="white" stroke="#FA5A28" stroke-width="0.664115"/>
<path d="M155.002 215.428C153.743 215.428 152.722 214.407 152.722 213.148C152.722 211.889 153.743 210.868 155.002 210.868C156.261 210.868 157.282 211.889 157.282 213.148C157.282 214.407 156.261 215.428 155.002 215.428Z" fill="white" stroke="#FA5A28" stroke-width="0.664115"/>
<path d="M121.064 206.111C119.805 206.111 118.784 205.09 118.784 203.831C118.784 202.572 119.805 201.551 121.064 201.551C122.323 201.551 123.344 202.572 123.344 203.831C123.344 205.09 122.323 206.111 121.064 206.111Z" fill="white" stroke="#FA5A28" stroke-width="0.664115"/>
<path d="M99.1024 196.795C97.8432 196.795 96.8225 195.774 96.8225 194.515C96.8225 193.256 97.8432 192.235 99.1024 192.235C100.362 192.235 101.382 193.256 101.382 194.515C101.382 195.774 100.362 196.795 99.1024 196.795Z" fill="white" stroke="#FA5A28" stroke-width="0.664115"/>
<path d="M137.034 133.578C135.775 133.578 134.754 132.557 134.754 131.298C134.754 130.039 135.775 129.018 137.034 129.018C138.293 129.018 139.314 130.039 139.314 131.298C139.314 132.557 138.293 133.578 137.034 133.578Z" fill="white" stroke="#334155" stroke-width="0.664115"/>
<path d="M155.001 136.905C153.742 136.905 152.721 135.884 152.721 134.625C152.721 133.366 153.742 132.345 155.001 132.345C156.26 132.345 157.281 133.366 157.281 134.625C157.281 135.884 156.26 136.905 155.001 136.905Z" fill="white" stroke="#334155" stroke-width="0.664115"/>
<path d="M174.299 133.578C173.04 133.578 172.019 132.557 172.019 131.298C172.019 130.039 173.04 129.018 174.299 129.018C175.558 129.018 176.579 130.039 176.579 131.298C176.579 132.557 175.558 133.578 174.299 133.578Z" fill="white" stroke="#334155" stroke-width="0.664115"/>
<g filter="url(#filter0_d_25_2)">
<path d="M46.2339 14.2154C46.2339 10.5476 49.2072 7.57422 52.875 7.57422H259.886C263.554 7.57422 266.527 10.5476 266.527 14.2154V162.638C266.527 166.305 263.554 169.279 259.886 169.279H52.875C49.2072 169.279 46.2339 166.305 46.2339 162.638V14.2154Z" fill="white"/>
</g>
<mask id="mask0_25_2" style="mask-type:alpha" maskUnits="userSpaceOnUse" x="46" y="7" width="221" height="163">
<path d="M46.2339 14.2154C46.2339 10.5476 49.2072 7.57422 52.875 7.57422H259.886C263.554 7.57422 266.527 10.5476 266.527 14.2154V162.638C266.527 166.305 263.554 169.279 259.886 169.279H52.875C49.2072 169.279 46.2339 166.305 46.2339 162.638V14.2154Z" fill="white"/>
</mask>
<g mask="url(#mask0_25_2)">
<path d="M266.872 19.3267H42.4429V11.1802C42.4429 8.97943 44.2269 7.19543 46.4275 7.19543L262.887 7.19545C265.088 7.19545 266.872 8.97945 266.872 11.1802V19.3267Z" fill="white"/>
<path d="M52.8688 15.9145C54.0203 15.9145 54.9538 14.981 54.9538 13.8294C54.9538 12.6779 54.0203 11.7444 52.8688 11.7444C51.7172 11.7444 50.7837 12.6779 50.7837 13.8294C50.7837 14.981 51.7172 15.9145 52.8688 15.9145Z" fill="#EC6B62"/>
<path d="M58.9342 15.9145C60.0857 15.9145 61.0192 14.981 61.0192 13.8294C61.0192 12.6779 60.0857 11.7444 58.9342 11.7444C57.7826 11.7444 56.8491 12.6779 56.8491 13.8294C56.8491 14.981 57.7826 15.9145 58.9342 15.9145Z" fill="#F5BF5C"/>
<path d="M65.0006 15.9145C66.1521 15.9145 67.0857 14.981 67.0857 13.8294C67.0857 12.6779 66.1521 11.7444 65.0006 11.7444C63.849 11.7444 62.9155 12.6779 62.9155 13.8294C62.9155 14.981 63.849 15.9145 65.0006 15.9145Z" fill="#5FC65E"/>
<path d="M217.207 10.228H103.861C102.393 10.228 101.204 11.4174 101.204 12.8845V14.3954C101.204 15.8625 102.393 17.0519 103.861 17.0519H217.207C218.674 17.0519 219.863 15.8625 219.863 14.3954V12.8845C219.863 11.4174 218.674 10.228 217.207 10.228Z" fill="#F4F9FE"/>
<path d="M181.651 79.0131H208.81V84.0258H198.036V110.397H192.649V84.0258H181.651V79.0131Z" fill="black"/>
<path d="M136.985 79.0131V84.0258H115.216V92.0898H132.723V97.1026H115.216V105.385H136.985V110.397H109.829V84.0258H109.827V79.0131H136.985Z" fill="black"/>
<path d="M150.547 79.0262H143.497L168.747 110.411H175.818L163.191 94.7292L175.798 79.0502L168.747 79.0611L159.661 90.3457L150.547 79.0262Z" fill="black"/>
<path d="M157.781 101.444L154.25 97.0547L143.477 110.434H150.547L157.781 101.444Z" fill="black"/>
<path fill-rule="evenodd" clip-rule="evenodd" d="M110.018 110.397L84.7335 79H78V110.384H83.3868V85.7084L103.251 110.397H110.018Z" fill="black"/>
<path d="M210.021 110.206C209.626 110.206 209.29 110.069 209.009 109.796C208.728 109.522 208.59 109.191 208.593 108.799C208.59 108.418 208.728 108.091 209.009 107.817C209.29 107.544 209.626 107.407 210.021 107.407C210.4 107.407 210.732 107.544 211.013 107.817C211.298 108.091 211.44 108.418 211.444 108.799C211.44 109.058 211.374 109.296 211.243 109.508C211.108 109.724 210.937 109.893 210.721 110.015C210.509 110.141 210.276 110.206 210.021 110.206Z" fill="black"/>
<path d="M219.215 96.9845H221.602V106.181C221.598 107.026 221.415 107.749 221.058 108.357C220.697 108.965 220.197 109.429 219.554 109.756C218.916 110.08 218.167 110.245 217.317 110.245C216.539 110.245 215.842 110.105 215.222 109.832C214.601 109.558 214.109 109.148 213.747 108.609C213.382 108.069 213.203 107.397 213.203 106.591H215.594C215.598 106.944 215.678 107.249 215.831 107.505C215.984 107.76 216.196 107.954 216.466 108.091C216.74 108.228 217.054 108.296 217.408 108.296C217.791 108.296 218.12 108.217 218.386 108.055C218.652 107.897 218.857 107.659 218.999 107.343C219.138 107.03 219.211 106.642 219.215 106.181V96.9845Z" fill="black"/>
<path d="M231.424 100.581C231.366 100.024 231.11 99.5883 230.665 99.279C230.216 98.9661 229.635 98.8114 228.923 98.8114C228.424 98.8114 227.993 98.887 227.635 99.0344C227.278 99.1855 227 99.3869 226.81 99.6423C226.621 99.8976 226.526 100.189 226.518 100.516C226.518 100.79 226.584 101.027 226.712 101.225C226.84 101.426 227.011 101.595 227.234 101.732C227.453 101.872 227.697 101.987 227.964 102.081C228.234 102.174 228.504 102.253 228.774 102.318L230.018 102.624C230.519 102.739 231.004 102.894 231.468 103.091C231.931 103.286 232.351 103.534 232.719 103.832C233.088 104.131 233.38 104.491 233.596 104.911C233.811 105.332 233.92 105.825 233.92 106.393C233.92 107.159 233.723 107.832 233.325 108.414C232.928 108.994 232.355 109.447 231.603 109.774C230.854 110.098 229.949 110.263 228.884 110.263C227.854 110.263 226.956 110.105 226.201 109.788C225.442 109.476 224.85 109.015 224.423 108.411C223.996 107.807 223.766 107.069 223.733 106.203H226.099C226.132 106.656 226.278 107.033 226.526 107.339C226.777 107.641 227.106 107.864 227.508 108.015C227.913 108.163 228.365 108.238 228.865 108.238C229.387 108.238 229.847 108.159 230.245 108.004C230.639 107.85 230.949 107.634 231.172 107.354C231.398 107.077 231.512 106.749 231.515 106.375C231.512 106.034 231.409 105.749 231.212 105.526C231.011 105.303 230.734 105.116 230.38 104.965C230.022 104.814 229.606 104.678 229.132 104.559L227.621 104.178C226.529 103.901 225.664 103.48 225.033 102.915C224.398 102.351 224.084 101.602 224.084 100.664C224.084 99.8941 224.295 99.2179 224.723 98.6388C225.146 98.0598 225.726 97.6102 226.46 97.2901C227.197 96.9664 228.03 96.8081 228.956 96.8081C229.898 96.8081 230.723 96.9664 231.435 97.2901C232.146 97.6102 232.705 98.0562 233.11 98.6244C233.515 99.1927 233.727 99.8437 233.738 100.581H231.424Z" fill="black"/>
</g>
</g>
<defs>
<filter id="filter0_d_25_2" x="39.5927" y="0.933079" width="233.575" height="174.987" filterUnits="userSpaceOnUse" color-interpolation-filters="sRGB">
<feFlood flood-opacity="0" result="BackgroundImageFix"/>
<feColorMatrix in="SourceAlpha" type="matrix" values="0 0 0 0 0 0 0 0 0 0 0 0 0 0 0 0 0 0 127 0" result="hardAlpha"/>
<feOffset/>
<feGaussianBlur stdDeviation="3.32057"/>
<feColorMatrix type="matrix" values="0 0 0 0 0 0 0 0 0 0 0 0 0 0 0 0 0 0 0.1 0"/>
<feBlend mode="normal" in2="BackgroundImageFix" result="effect1_dropShadow_25_2"/>
<feBlend mode="normal" in="SourceGraphic" in2="effect1_dropShadow_25_2" result="shape"/>
</filter>
<clipPath id="clip0_25_2">
<rect width="310" height="216" fill="white"/>
</clipPath>
</defs>
</svg>
