<svg width="310" height="216" viewBox="0 0 310 216" fill="none" xmlns="http://www.w3.org/2000/svg">
<g clip-path="url(#clip0_25_2)">
<path d="M93.8273 83.7681H1.99512" stroke="#FA5A28" stroke-width="0.664115" stroke-linejoin="round" stroke-dasharray="3.32 3.32"/>
<path d="M90.8327 66.1334H60.5413C56.8735 66.1334 53.9002 63.1601 53.9002 59.4923V56.8037C53.9002 53.1359 50.9268 50.1626 47.259 50.1626H5.32227" stroke="#FA5A28" stroke-width="0.664115" stroke-linejoin="round" stroke-dasharray="3.32 3.32"/>
<path d="M99.4836 101.402H69.1922C65.5244 101.402 62.551 104.376 62.551 108.044V110.732C62.551 114.4 59.5777 117.373 55.9099 117.373H13.9731" stroke="#FA5A28" stroke-width="0.664115" stroke-linejoin="round" stroke-dasharray="3.32 3.32"/>
<path d="M115.123 126.024H81.1717C77.5039 126.024 74.5305 128.997 74.5305 132.665V135.353C74.5305 139.021 71.5572 141.995 67.8894 141.995H25.9526" stroke="#FA5A28" stroke-width="0.664115" stroke-linejoin="round" stroke-dasharray="3.32 3.32"/>
<path d="M4.60778 52.393C3.34861 52.393 2.32786 51.3722 2.32786 50.113C2.32786 48.8539 3.34861 47.8331 4.60778 47.8331C5.86694 47.8331 6.8877 48.8539 6.8877 50.113C6.8877 51.3722 5.86694 52.393 4.60778 52.393Z" fill="white" stroke="#FA5A28" stroke-width="0.664115"/>
<path d="M2.61168 85.6653C1.35252 85.6653 0.331761 84.6446 0.331761 83.3854C0.331761 82.1262 1.35252 81.1055 2.61168 81.1055C3.87085 81.1055 4.8916 82.1262 4.8916 83.3854C4.8916 84.6446 3.87085 85.6653 2.61168 85.6653Z" fill="white" stroke="#FA5A28" stroke-width="0.664115"/>
<path d="M13.9247 119.603C12.6655 119.603 11.6447 118.582 11.6447 117.323C11.6447 116.064 12.6655 115.043 13.9247 115.043C15.1838 115.043 16.2046 116.064 16.2046 117.323C16.2046 118.582 15.1838 119.603 13.9247 119.603Z" fill="white" stroke="#FA5A28" stroke-width="0.664115"/>
<path d="M26.5677 144.225C25.3086 144.225 24.2878 143.204 24.2878 141.945C24.2878 140.686 25.3086 139.665 26.5677 139.665C27.8269 139.665 28.8477 140.686 28.8477 141.945C28.8477 143.204 27.8269 144.225 26.5677 144.225Z" fill="white" stroke="#FA5A28" stroke-width="0.664115"/>
<path d="M115.073 128.254C113.814 128.254 112.793 127.233 112.793 125.974C112.793 124.715 113.814 123.694 115.073 123.694C116.332 123.694 117.353 124.715 117.353 125.974C117.353 127.233 116.332 128.254 115.073 128.254Z" fill="white" stroke="#334155" stroke-width="0.664115"/>
<path d="M99.1019 103.633C97.8428 103.633 96.822 102.612 96.822 101.353C96.822 100.094 97.8428 99.0731 99.1019 99.0731C100.361 99.0731 101.382 100.094 101.382 101.353C101.382 102.612 100.361 103.633 99.1019 103.633Z" fill="white" stroke="#334155" stroke-width="0.664115"/>
<path d="M93.7787 85.6653C92.5195 85.6653 91.4988 84.6446 91.4988 83.3854C91.4988 82.1262 92.5195 81.1055 93.7787 81.1055C95.0378 81.1055 96.0586 82.1262 96.0586 83.3854C96.0586 84.6446 95.0378 85.6653 93.7787 85.6653Z" fill="white" stroke="#334155" stroke-width="0.664115"/>
<path d="M90.4515 68.3637C89.1924 68.3637 88.1716 67.3429 88.1716 66.0838C88.1716 64.8246 89.1924 63.8038 90.4515 63.8038C91.7107 63.8038 92.7314 64.8246 92.7314 66.0838C92.7314 67.3429 91.7107 68.3637 90.4515 68.3637Z" fill="white" stroke="#334155" stroke-width="0.664115"/>
<path d="M216.27 83.7681H308.102" stroke="#FA5A28" stroke-width="0.664115" stroke-linejoin="round" stroke-dasharray="3.32 3.32"/>
<path d="M219.264 66.1334H249.556C253.224 66.1334 256.197 63.1601 256.197 59.4923V56.8037C256.197 53.1359 259.17 50.1626 262.838 50.1626H304.775" stroke="#FA5A28" stroke-width="0.664115" stroke-linejoin="round" stroke-dasharray="3.32 3.32"/>
<path d="M210.614 101.402H240.905C244.573 101.402 247.546 104.375 247.546 108.043V110.732C247.546 114.399 250.519 117.373 254.187 117.373H296.124" stroke="#FA5A28" stroke-width="0.664115" stroke-linejoin="round" stroke-dasharray="3.32 3.32"/>
<path d="M194.976 126.024H228.927C232.595 126.024 235.568 128.997 235.568 132.665V135.354C235.568 139.022 238.541 141.995 242.209 141.995H284.146" stroke="#FA5A28" stroke-width="0.664115" stroke-linejoin="round" stroke-dasharray="3.32 3.32"/>
<path d="M194.927 128.254C193.668 128.254 192.647 127.233 192.647 125.974C192.647 124.715 193.668 123.694 194.927 123.694C196.186 123.694 197.207 124.715 197.207 125.974C197.207 127.233 196.186 128.254 194.927 128.254Z" fill="white" stroke="#334155" stroke-width="0.664115"/>
<path d="M284.097 144.225C282.838 144.225 281.817 143.204 281.817 141.945C281.817 140.686 282.838 139.665 284.097 139.665C285.356 139.665 286.377 140.686 286.377 141.945C286.377 143.204 285.356 144.225 284.097 144.225Z" fill="white" stroke="#FA5A28" stroke-width="0.664115"/>
<path d="M296.075 119.603C294.816 119.603 293.795 118.582 293.795 117.323C293.795 116.064 294.816 115.043 296.075 115.043C297.334 115.043 298.355 116.064 298.355 117.323C298.355 118.582 297.334 119.603 296.075 119.603Z" fill="white" stroke="#FA5A28" stroke-width="0.664115"/>
<path d="M307.389 86.3305C306.13 86.3305 305.109 85.3097 305.109 84.0505C305.109 82.7914 306.13 81.7706 307.389 81.7706C308.648 81.7706 309.669 82.7914 309.669 84.0505C309.669 85.3097 308.648 86.3305 307.389 86.3305Z" fill="white" stroke="#FA5A28" stroke-width="0.664115"/>
<path d="M304.726 52.3926C303.467 52.3926 302.446 51.3718 302.446 50.1127C302.446 48.8535 303.467 47.8328 304.726 47.8328C305.985 47.8328 307.006 48.8535 307.006 50.1127C307.006 51.3718 305.985 52.3926 304.726 52.3926Z" fill="white" stroke="#FA5A28" stroke-width="0.664115"/>
<path d="M210.232 104.298C208.973 104.298 207.952 103.277 207.952 102.018C207.952 100.759 208.973 99.738 210.232 99.738C211.491 99.738 212.512 100.759 212.512 102.018C212.512 103.277 211.491 104.298 210.232 104.298Z" fill="white" stroke="#334155" stroke-width="0.664115"/>
<path d="M216.222 86.3305C214.963 86.3305 213.942 85.3097 213.942 84.0505C213.942 82.7914 214.963 81.7706 216.222 81.7706C217.481 81.7706 218.502 82.7914 218.502 84.0505C218.502 85.3097 217.481 86.3305 216.222 86.3305Z" fill="white" stroke="#334155" stroke-width="0.664115"/>
<path d="M218.884 68.3633C217.625 68.3633 216.604 67.3426 216.604 66.0834C216.604 64.8242 217.625 63.8035 218.884 63.8035C220.143 63.8035 221.164 64.8242 221.164 66.0834C221.164 67.3426 220.143 68.3633 218.884 68.3633Z" fill="white" stroke="#334155" stroke-width="0.664115"/>
<path d="M155.051 140.997V214.529" stroke="#FA5A28" stroke-width="0.664115" stroke-linejoin="round" stroke-dasharray="3.32 3.32"/>
<path d="M137.083 131.68V157.743C137.083 161.411 134.11 164.384 130.442 164.384H127.753C124.086 164.384 121.112 167.357 121.112 171.025V205.212" stroke="#FA5A28" stroke-width="0.664115" stroke-linejoin="round" stroke-dasharray="3.32 3.32"/>
<path d="M174.347 131.015V156.79C174.347 160.458 177.32 163.431 180.988 163.431H183.677C187.345 163.431 190.318 166.405 190.318 170.072V203.881" stroke="#FA5A28" stroke-width="0.664115" stroke-linejoin="round" stroke-dasharray="3.32 3.32"/>
<path d="M115.122 117.04V147.847C115.122 151.515 112.148 154.488 108.481 154.488H105.792C102.124 154.488 99.1509 157.461 99.1509 161.129V192.569" stroke="#FA5A28" stroke-width="0.664115" stroke-linejoin="round" stroke-dasharray="3.32 3.32"/>
<path d="M194.975 115.709V147.322C194.975 150.989 197.949 153.963 201.617 153.963H204.305C207.973 153.963 210.946 156.936 210.946 160.604V194.565" stroke="#FA5A28" stroke-width="0.664115" stroke-linejoin="round" stroke-dasharray="3.32 3.32"/>
<path d="M210.898 196.795C209.639 196.795 208.618 195.774 208.618 194.515C208.618 193.256 209.639 192.235 210.898 192.235C212.157 192.235 213.178 193.256 213.178 194.515C213.178 195.774 212.157 196.795 210.898 196.795Z" fill="white" stroke="#FA5A28" stroke-width="0.664115"/>
<path d="M190.269 206.111C189.01 206.111 187.989 205.09 187.989 203.831C187.989 202.572 189.01 201.551 190.269 201.551C191.528 201.551 192.549 202.572 192.549 203.831C192.549 205.09 191.528 206.111 190.269 206.111Z" fill="white" stroke="#FA5A28" stroke-width="0.664115"/>
<path d="M155.002 215.428C153.743 215.428 152.722 214.407 152.722 213.148C152.722 211.889 153.743 210.868 155.002 210.868C156.261 210.868 157.282 211.889 157.282 213.148C157.282 214.407 156.261 215.428 155.002 215.428Z" fill="white" stroke="#FA5A28" stroke-width="0.664115"/>
<path d="M121.064 206.111C119.805 206.111 118.784 205.09 118.784 203.831C118.784 202.572 119.805 201.551 121.064 201.551C122.323 201.551 123.344 202.572 123.344 203.831C123.344 205.09 122.323 206.111 121.064 206.111Z" fill="white" stroke="#FA5A28" stroke-width="0.664115"/>
<path d="M99.1024 196.795C97.8432 196.795 96.8225 195.774 96.8225 194.515C96.8225 193.256 97.8432 192.235 99.1024 192.235C100.362 192.235 101.382 193.256 101.382 194.515C101.382 195.774 100.362 196.795 99.1024 196.795Z" fill="white" stroke="#FA5A28" stroke-width="0.664115"/>
<path d="M137.034 133.578C135.775 133.578 134.754 132.557 134.754 131.298C134.754 130.039 135.775 129.018 137.034 129.018C138.293 129.018 139.314 130.039 139.314 131.298C139.314 132.557 138.293 133.578 137.034 133.578Z" fill="white" stroke="#334155" stroke-width="0.664115"/>
<path d="M155.001 136.905C153.742 136.905 152.721 135.884 152.721 134.625C152.721 133.366 153.742 132.345 155.001 132.345C156.26 132.345 157.281 133.366 157.281 134.625C157.281 135.884 156.26 136.905 155.001 136.905Z" fill="white" stroke="#334155" stroke-width="0.664115"/>
<path d="M174.299 133.578C173.04 133.578 172.019 132.557 172.019 131.298C172.019 130.039 173.04 129.018 174.299 129.018C175.558 129.018 176.579 130.039 176.579 131.298C176.579 132.557 175.558 133.578 174.299 133.578Z" fill="white" stroke="#334155" stroke-width="0.664115"/>
<g filter="url(#filter0_d_25_2)">
<path d="M46.2339 14.2154C46.2339 10.5476 49.2072 7.57422 52.875 7.57422H259.886C263.554 7.57422 266.527 10.5476 266.527 14.2154V162.638C266.527 166.305 263.554 169.279 259.886 169.279H52.875C49.2072 169.279 46.2339 166.305 46.2339 162.638V14.2154Z" fill="white"/>
</g>
<mask id="mask0_25_2" style="mask-type:alpha" maskUnits="userSpaceOnUse" x="46" y="7" width="221" height="163">
<path d="M46.2339 14.2154C46.2339 10.5476 49.2072 7.57422 52.875 7.57422H259.886C263.554 7.57422 266.527 10.5476 266.527 14.2154V162.638C266.527 166.305 263.554 169.279 259.886 169.279H52.875C49.2072 169.279 46.2339 166.305 46.2339 162.638V14.2154Z" fill="white"/>
</mask>
<g mask="url(#mask0_25_2)">
<path d="M266.872 19.3267H42.4429V11.1802C42.4429 8.97943 44.2269 7.19543 46.4275 7.19543L262.887 7.19545C265.088 7.19545 266.872 8.97945 266.872 11.1802V19.3267Z" fill="white"/>
<path d="M52.8688 15.9145C54.0203 15.9145 54.9538 14.981 54.9538 13.8294C54.9538 12.6779 54.0203 11.7444 52.8688 11.7444C51.7172 11.7444 50.7837 12.6779 50.7837 13.8294C50.7837 14.981 51.7172 15.9145 52.8688 15.9145Z" fill="#EC6B62"/>
<path d="M58.9342 15.9145C60.0857 15.9145 61.0192 14.981 61.0192 13.8294C61.0192 12.6779 60.0857 11.7444 58.9342 11.7444C57.7826 11.7444 56.8491 12.6779 56.8491 13.8294C56.8491 14.981 57.7826 15.9145 58.9342 15.9145Z" fill="#F5BF5C"/>
<path d="M65.0006 15.9145C66.1521 15.9145 67.0857 14.981 67.0857 13.8294C67.0857 12.6779 66.1521 11.7444 65.0006 11.7444C63.849 11.7444 62.9155 12.6779 62.9155 13.8294C62.9155 14.981 63.849 15.9145 65.0006 15.9145Z" fill="#5FC65E"/>
<path d="M217.207 10.228H103.861C102.393 10.228 101.204 11.4174 101.204 12.8845V14.3954C101.204 15.8625 102.393 17.0519 103.861 17.0519H217.207C218.674 17.0519 219.863 15.8625 219.863 14.3954V12.8845C219.863 11.4174 218.674 10.228 217.207 10.228Z" fill="#F4F9FE"/>
<g clip-path="url(#clip1_25_2)">
<path d="M100.415 95.143C102.917 95.143 104.946 93.1146 104.946 90.6125C104.946 88.1103 102.917 86.0819 100.415 86.0819C97.9132 86.0819 95.8848 88.1103 95.8848 90.6125C95.8848 93.1146 97.9132 95.143 100.415 95.143Z" fill="#61DAFB"/>
<path fill-rule="evenodd" clip-rule="evenodd" d="M78.7559 87.8197C77.6623 88.8069 77.21 89.7525 77.21 90.6125C77.21 91.4724 77.6623 92.4181 78.7559 93.4052C79.8493 94.3923 81.4936 95.3319 83.6195 96.1436C87.8637 97.7641 93.8016 98.7896 100.415 98.7896C107.029 98.7896 112.967 97.7641 117.211 96.1436C119.337 95.3319 120.981 94.3923 122.075 93.4052C123.168 92.4181 123.621 91.4724 123.621 90.6125C123.621 89.7525 123.168 88.8069 122.075 87.8197C120.981 86.8326 119.337 85.893 117.211 85.0813C112.967 83.4608 107.029 82.4354 100.415 82.4354C93.8016 82.4354 87.8637 83.4608 83.6195 85.0813C81.4936 85.893 79.8493 86.8326 78.7559 87.8197ZM82.8312 83.0167C87.3856 81.2777 93.6028 80.2253 100.415 80.2253C107.228 80.2253 113.445 81.2777 117.999 83.0167C120.273 83.8847 122.189 84.9453 123.556 86.1792C124.922 87.413 125.831 88.9093 125.831 90.6125C125.831 92.3157 124.922 93.8119 123.556 95.0457C122.189 96.2796 120.273 97.3402 117.999 98.2082C113.445 99.9472 107.228 101 100.415 101C93.6028 101 87.3856 99.9472 82.8312 98.2082C80.5578 97.3402 78.6419 96.2796 77.275 95.0457C75.9082 93.8119 75 92.3157 75 90.6125C75 88.9093 75.9082 87.413 77.275 86.1792C78.6419 84.9453 80.5578 83.8847 82.8312 83.0167Z" fill="#61DAFB"/>
<path fill-rule="evenodd" clip-rule="evenodd" d="M92.0042 70.4584C90.6025 70.005 89.5574 70.0861 88.8126 70.5161C88.0679 70.9461 87.4751 71.8106 87.1669 73.2512C86.8588 74.6917 86.8673 76.5855 87.2273 78.8324C87.946 83.3182 90.0268 88.9733 93.3337 94.701C96.6406 100.429 100.498 105.058 104.023 107.924C105.789 109.359 107.425 110.313 108.826 110.766C110.228 111.22 111.273 111.139 112.018 110.709C112.763 110.279 113.355 109.414 113.664 107.974C113.972 106.533 113.963 104.639 113.603 102.392C112.885 97.9067 110.804 92.2515 107.497 86.5239C104.19 80.7962 100.333 76.1666 96.8074 73.3013C95.0416 71.866 93.4057 70.9118 92.0042 70.4584ZM98.2013 71.5862C101.985 74.661 106.005 79.5191 109.411 85.4189C112.817 91.3186 115.014 97.2291 115.785 102.043C116.17 104.446 116.21 106.635 115.825 108.436C115.44 110.236 114.598 111.771 113.123 112.623C111.648 113.474 109.898 113.436 108.146 112.869C106.394 112.302 104.518 111.173 102.629 109.639C98.846 106.564 94.826 101.706 91.4198 95.806C88.0135 89.9062 85.8163 83.9957 85.0451 79.182C84.6601 76.7792 84.6206 74.5897 85.0058 72.789C85.3909 70.9884 86.2326 69.4537 87.7076 68.6021C89.1826 67.7505 90.9325 67.7889 92.6844 68.3557C94.4365 68.9225 96.3129 70.0514 98.2013 71.5862Z" fill="#61DAFB"/>
<path fill-rule="evenodd" clip-rule="evenodd" d="M113.664 73.2512C113.355 71.8105 112.763 70.946 112.018 70.516C111.273 70.086 110.228 70.0049 108.826 70.4584C107.425 70.9118 105.789 71.866 104.023 73.3012C100.498 76.1665 96.6405 80.7962 93.3337 86.5238C90.0268 92.2515 87.9459 97.9066 87.2273 102.392C86.8673 104.639 86.8588 106.533 87.1669 107.974C87.4751 109.414 88.0678 110.279 88.8126 110.709C89.5574 111.139 90.6024 111.22 92.0042 110.766C93.4057 110.313 95.0415 109.359 96.8074 107.924C100.333 105.058 104.19 100.429 107.497 94.7009C110.804 88.9733 112.885 83.3182 113.603 78.8324C113.963 76.5854 113.972 74.6917 113.664 73.2512ZM115.785 79.182C115.014 83.9957 112.817 89.9062 109.411 95.806C106.005 101.706 101.984 106.564 98.2013 109.639C96.3129 111.173 94.4365 112.302 92.6844 112.869C90.9325 113.436 89.1826 113.474 87.7076 112.623C86.2326 111.771 85.3909 110.236 85.0058 108.436C84.6206 106.635 84.6601 104.446 85.0451 102.043C85.8163 97.2291 88.0135 91.3186 91.4197 85.4188C94.826 79.5191 98.846 74.661 102.629 71.5862C104.518 70.0514 106.394 68.9225 108.146 68.3557C109.898 67.7889 111.648 67.7505 113.123 68.6021C114.598 69.4537 115.44 70.9884 115.825 72.7889C116.21 74.5896 116.17 76.7791 115.785 79.182Z" fill="#61DAFB"/>
</g>
<path d="M140.823 106.215V79.9023H149.714C151.769 79.9023 153.457 80.2535 154.776 80.9559C156.095 81.6497 157.071 82.6047 157.705 83.821C158.339 85.0372 158.656 86.4205 158.656 87.9709C158.656 89.5212 158.339 90.8959 157.705 92.0951C157.071 93.2942 156.099 94.2364 154.788 94.9216C153.478 95.5983 151.803 95.9366 149.765 95.9366H142.57V93.0587H149.662C151.067 93.0587 152.197 92.8531 153.054 92.442C153.919 92.0308 154.544 91.4484 154.93 90.6946C155.324 89.9323 155.521 89.0244 155.521 87.9709C155.521 86.9173 155.324 85.9966 154.93 85.2086C154.536 84.4205 153.906 83.8124 153.041 83.3841C152.176 82.9473 151.033 82.7289 149.611 82.7289H144.009V106.215H140.823ZM153.208 94.3948L159.684 106.215H155.983L149.611 94.3948H153.208Z" fill="#61DAFB"/>
<path d="M171.616 106.626C169.715 106.626 168.074 106.206 166.695 105.367C165.325 104.519 164.267 103.337 163.522 101.821C162.785 100.296 162.417 98.5233 162.417 96.5019C162.417 94.4805 162.785 92.6989 163.522 91.1572C164.267 89.6068 165.303 88.3991 166.631 87.534C167.967 86.6604 169.526 86.2235 171.308 86.2235C172.336 86.2235 173.351 86.3948 174.353 86.7375C175.355 87.0801 176.267 87.6368 177.089 88.4077C177.912 89.17 178.567 90.1807 179.055 91.4398C179.543 92.6989 179.787 94.2492 179.787 96.0908V97.3756H164.575V94.7546H176.704C176.704 93.6411 176.481 92.6475 176.036 91.7739C175.599 90.9002 174.974 90.2107 174.16 89.7053C173.355 89.2 172.404 88.9473 171.308 88.9473C170.1 88.9473 169.055 89.2471 168.173 89.8467C167.299 90.4377 166.627 91.2085 166.156 92.1593C165.685 93.11 165.449 94.1293 165.449 95.2171V96.9644C165.449 98.4548 165.706 99.7182 166.22 100.755C166.742 101.782 167.466 102.566 168.391 103.106C169.316 103.637 170.391 103.902 171.616 103.902C172.413 103.902 173.132 103.791 173.775 103.568C174.426 103.337 174.987 102.994 175.458 102.54C175.929 102.078 176.293 101.504 176.55 100.819L179.479 101.641C179.171 102.635 178.653 103.508 177.924 104.262C177.196 105.007 176.297 105.59 175.226 106.009C174.156 106.421 172.952 106.626 171.616 106.626Z" fill="#61DAFB"/>
<path d="M190.207 106.677C188.957 106.677 187.822 106.442 186.802 105.971C185.783 105.491 184.974 104.802 184.374 103.902C183.775 102.994 183.475 101.898 183.475 100.613C183.475 99.4826 183.697 98.5661 184.143 97.8638C184.588 97.1529 185.184 96.5961 185.929 96.1936C186.674 95.791 187.496 95.4912 188.396 95.2942C189.303 95.0886 190.216 94.9259 191.132 94.806C192.331 94.6518 193.303 94.5362 194.049 94.4591C194.802 94.3734 195.351 94.2321 195.693 94.0351C196.044 93.8381 196.22 93.4955 196.22 93.0073V92.9045C196.22 91.6368 195.873 90.6518 195.179 89.9494C194.494 89.2471 193.453 88.8959 192.057 88.8959C190.61 88.8959 189.475 89.2128 188.653 89.8467C187.83 90.4805 187.252 91.1572 186.918 91.8766L184.04 90.8488C184.554 89.6497 185.239 88.716 186.096 88.048C186.961 87.3713 187.903 86.9002 188.922 86.6347C189.95 86.3606 190.961 86.2235 191.954 86.2235C192.588 86.2235 193.316 86.3006 194.139 86.4548C194.969 86.6004 195.77 86.9045 196.541 87.367C197.321 87.8295 197.967 88.5276 198.481 89.4612C198.995 90.3948 199.252 91.6454 199.252 93.2128V106.215H196.22V103.543H196.066C195.86 103.971 195.518 104.429 195.038 104.917C194.558 105.406 193.92 105.821 193.124 106.164C192.327 106.506 191.355 106.677 190.207 106.677ZM190.67 103.954C191.869 103.954 192.879 103.718 193.702 103.247C194.533 102.776 195.158 102.168 195.578 101.423C196.006 100.677 196.22 99.8938 196.22 99.0715V96.2963C196.091 96.4505 195.809 96.5918 195.372 96.7203C194.944 96.8402 194.447 96.9473 193.882 97.0415C193.325 97.1272 192.781 97.2043 192.25 97.2728C191.727 97.3327 191.303 97.3841 190.978 97.427C190.19 97.5297 189.453 97.6968 188.768 97.928C188.091 98.1507 187.543 98.4891 187.124 98.943C186.712 99.3884 186.507 99.9966 186.507 100.767C186.507 101.821 186.897 102.618 187.676 103.157C188.464 103.688 189.462 103.954 190.67 103.954Z" fill="#61DAFB"/>
<path d="M212.803 106.626C210.953 106.626 209.36 106.189 208.024 105.316C206.688 104.442 205.66 103.239 204.941 101.705C204.221 100.172 203.861 98.4205 203.861 96.4505C203.861 94.4462 204.23 92.6775 204.966 91.1443C205.711 89.6026 206.748 88.3991 208.075 87.534C209.412 86.6604 210.97 86.2235 212.752 86.2235C214.14 86.2235 215.39 86.4805 216.504 86.9944C217.617 87.5083 218.529 88.2278 219.24 89.1529C219.951 90.0779 220.392 91.1572 220.564 92.3906H217.532C217.3 91.4912 216.786 90.6946 215.99 90.0008C215.202 89.2985 214.14 88.9473 212.803 88.9473C211.621 88.9473 210.585 89.2557 209.694 89.8724C208.812 90.4805 208.123 91.3413 207.626 92.4548C207.138 93.5597 206.893 94.8574 206.893 96.3477C206.893 97.8724 207.133 99.2 207.613 100.331C208.101 101.461 208.786 102.339 209.669 102.964C210.559 103.59 211.604 103.902 212.803 103.902C213.591 103.902 214.307 103.765 214.949 103.491C215.591 103.217 216.135 102.823 216.581 102.309C217.026 101.795 217.343 101.179 217.532 100.459H220.564C220.392 101.624 219.968 102.673 219.292 103.607C218.624 104.532 217.737 105.269 216.632 105.817C215.536 106.356 214.26 106.626 212.803 106.626Z" fill="#61DAFB"/>
<path d="M233.579 86.4805V89.0501H223.352V86.4805H233.579ZM226.332 81.7525H229.364V100.562C229.364 101.418 229.489 102.061 229.737 102.489C229.994 102.909 230.32 103.191 230.714 103.337C231.116 103.474 231.54 103.543 231.985 103.543C232.32 103.543 232.594 103.525 232.808 103.491C233.022 103.448 233.193 103.414 233.322 103.388L233.938 106.112C233.733 106.189 233.446 106.266 233.078 106.343C232.709 106.429 232.242 106.472 231.677 106.472C230.821 106.472 229.981 106.288 229.159 105.919C228.345 105.551 227.669 104.99 227.129 104.236C226.598 103.483 226.332 102.532 226.332 101.384V81.7525Z" fill="#61DAFB"/>
</g>
</g>
<defs>
<filter id="filter0_d_25_2" x="39.5927" y="0.933079" width="233.575" height="174.987" filterUnits="userSpaceOnUse" color-interpolation-filters="sRGB">
<feFlood flood-opacity="0" result="BackgroundImageFix"/>
<feColorMatrix in="SourceAlpha" type="matrix" values="0 0 0 0 0 0 0 0 0 0 0 0 0 0 0 0 0 0 127 0" result="hardAlpha"/>
<feOffset/>
<feGaussianBlur stdDeviation="3.32057"/>
<feColorMatrix type="matrix" values="0 0 0 0 0 0 0 0 0 0 0 0 0 0 0 0 0 0 0.1 0"/>
<feBlend mode="normal" in2="BackgroundImageFix" result="effect1_dropShadow_25_2"/>
<feBlend mode="normal" in="SourceGraphic" in2="effect1_dropShadow_25_2" result="shape"/>
</filter>
<clipPath id="clip0_25_2">
<rect width="310" height="216" fill="white"/>
</clipPath>
<clipPath id="clip1_25_2">
<rect width="50.8306" height="45.2248" fill="white" transform="translate(75 68)"/>
</clipPath>
</defs>
</svg>
