<svg width="310" height="216" viewBox="0 0 310 216" fill="none" xmlns="http://www.w3.org/2000/svg">
<g clip-path="url(#clip0_25_2)">
<path d="M93.8273 83.7681H1.99512" stroke="#FA5A28" stroke-width="0.664115" stroke-linejoin="round" stroke-dasharray="3.32 3.32"/>
<path d="M90.8327 66.1334H60.5413C56.8735 66.1334 53.9002 63.1601 53.9002 59.4923V56.8037C53.9002 53.1359 50.9268 50.1626 47.259 50.1626H5.32227" stroke="#FA5A28" stroke-width="0.664115" stroke-linejoin="round" stroke-dasharray="3.32 3.32"/>
<path d="M99.4836 101.402H69.1922C65.5244 101.402 62.551 104.376 62.551 108.044V110.732C62.551 114.4 59.5777 117.373 55.9099 117.373H13.9731" stroke="#FA5A28" stroke-width="0.664115" stroke-linejoin="round" stroke-dasharray="3.32 3.32"/>
<path d="M115.123 126.024H81.1717C77.5039 126.024 74.5305 128.997 74.5305 132.665V135.353C74.5305 139.021 71.5572 141.995 67.8894 141.995H25.9526" stroke="#FA5A28" stroke-width="0.664115" stroke-linejoin="round" stroke-dasharray="3.32 3.32"/>
<path d="M4.60778 52.393C3.34861 52.393 2.32786 51.3722 2.32786 50.113C2.32786 48.8539 3.34861 47.8331 4.60778 47.8331C5.86694 47.8331 6.8877 48.8539 6.8877 50.113C6.8877 51.3722 5.86694 52.393 4.60778 52.393Z" fill="white" stroke="#FA5A28" stroke-width="0.664115"/>
<path d="M2.61168 85.6653C1.35252 85.6653 0.331761 84.6446 0.331761 83.3854C0.331761 82.1262 1.35252 81.1055 2.61168 81.1055C3.87085 81.1055 4.8916 82.1262 4.8916 83.3854C4.8916 84.6446 3.87085 85.6653 2.61168 85.6653Z" fill="white" stroke="#FA5A28" stroke-width="0.664115"/>
<path d="M13.9247 119.603C12.6655 119.603 11.6447 118.582 11.6447 117.323C11.6447 116.064 12.6655 115.043 13.9247 115.043C15.1838 115.043 16.2046 116.064 16.2046 117.323C16.2046 118.582 15.1838 119.603 13.9247 119.603Z" fill="white" stroke="#FA5A28" stroke-width="0.664115"/>
<path d="M26.5677 144.225C25.3086 144.225 24.2878 143.204 24.2878 141.945C24.2878 140.686 25.3086 139.665 26.5677 139.665C27.8269 139.665 28.8477 140.686 28.8477 141.945C28.8477 143.204 27.8269 144.225 26.5677 144.225Z" fill="white" stroke="#FA5A28" stroke-width="0.664115"/>
<path d="M115.073 128.254C113.814 128.254 112.793 127.233 112.793 125.974C112.793 124.715 113.814 123.694 115.073 123.694C116.332 123.694 117.353 124.715 117.353 125.974C117.353 127.233 116.332 128.254 115.073 128.254Z" fill="white" stroke="#334155" stroke-width="0.664115"/>
<path d="M99.1019 103.633C97.8428 103.633 96.822 102.612 96.822 101.353C96.822 100.094 97.8428 99.0731 99.1019 99.0731C100.361 99.0731 101.382 100.094 101.382 101.353C101.382 102.612 100.361 103.633 99.1019 103.633Z" fill="white" stroke="#334155" stroke-width="0.664115"/>
<path d="M93.7787 85.6653C92.5195 85.6653 91.4988 84.6446 91.4988 83.3854C91.4988 82.1262 92.5195 81.1055 93.7787 81.1055C95.0378 81.1055 96.0586 82.1262 96.0586 83.3854C96.0586 84.6446 95.0378 85.6653 93.7787 85.6653Z" fill="white" stroke="#334155" stroke-width="0.664115"/>
<path d="M90.4515 68.3637C89.1924 68.3637 88.1716 67.3429 88.1716 66.0838C88.1716 64.8246 89.1924 63.8038 90.4515 63.8038C91.7107 63.8038 92.7314 64.8246 92.7314 66.0838C92.7314 67.3429 91.7107 68.3637 90.4515 68.3637Z" fill="white" stroke="#334155" stroke-width="0.664115"/>
<path d="M216.27 83.7681H308.102" stroke="#FA5A28" stroke-width="0.664115" stroke-linejoin="round" stroke-dasharray="3.32 3.32"/>
<path d="M219.264 66.1334H249.556C253.224 66.1334 256.197 63.1601 256.197 59.4923V56.8037C256.197 53.1359 259.17 50.1626 262.838 50.1626H304.775" stroke="#FA5A28" stroke-width="0.664115" stroke-linejoin="round" stroke-dasharray="3.32 3.32"/>
<path d="M210.614 101.402H240.905C244.573 101.402 247.546 104.375 247.546 108.043V110.732C247.546 114.399 250.519 117.373 254.187 117.373H296.124" stroke="#FA5A28" stroke-width="0.664115" stroke-linejoin="round" stroke-dasharray="3.32 3.32"/>
<path d="M194.976 126.024H228.927C232.595 126.024 235.568 128.997 235.568 132.665V135.354C235.568 139.022 238.541 141.995 242.209 141.995H284.146" stroke="#FA5A28" stroke-width="0.664115" stroke-linejoin="round" stroke-dasharray="3.32 3.32"/>
<path d="M194.927 128.254C193.668 128.254 192.647 127.233 192.647 125.974C192.647 124.715 193.668 123.694 194.927 123.694C196.186 123.694 197.207 124.715 197.207 125.974C197.207 127.233 196.186 128.254 194.927 128.254Z" fill="white" stroke="#334155" stroke-width="0.664115"/>
<path d="M284.097 144.225C282.838 144.225 281.817 143.204 281.817 141.945C281.817 140.686 282.838 139.665 284.097 139.665C285.356 139.665 286.377 140.686 286.377 141.945C286.377 143.204 285.356 144.225 284.097 144.225Z" fill="white" stroke="#FA5A28" stroke-width="0.664115"/>
<path d="M296.075 119.603C294.816 119.603 293.795 118.582 293.795 117.323C293.795 116.064 294.816 115.043 296.075 115.043C297.334 115.043 298.355 116.064 298.355 117.323C298.355 118.582 297.334 119.603 296.075 119.603Z" fill="white" stroke="#FA5A28" stroke-width="0.664115"/>
<path d="M307.389 86.3305C306.13 86.3305 305.109 85.3097 305.109 84.0505C305.109 82.7914 306.13 81.7706 307.389 81.7706C308.648 81.7706 309.669 82.7914 309.669 84.0505C309.669 85.3097 308.648 86.3305 307.389 86.3305Z" fill="white" stroke="#FA5A28" stroke-width="0.664115"/>
<path d="M304.726 52.3926C303.467 52.3926 302.446 51.3718 302.446 50.1127C302.446 48.8535 303.467 47.8328 304.726 47.8328C305.985 47.8328 307.006 48.8535 307.006 50.1127C307.006 51.3718 305.985 52.3926 304.726 52.3926Z" fill="white" stroke="#FA5A28" stroke-width="0.664115"/>
<path d="M210.232 104.298C208.973 104.298 207.952 103.277 207.952 102.018C207.952 100.759 208.973 99.738 210.232 99.738C211.491 99.738 212.512 100.759 212.512 102.018C212.512 103.277 211.491 104.298 210.232 104.298Z" fill="white" stroke="#334155" stroke-width="0.664115"/>
<path d="M216.222 86.3305C214.963 86.3305 213.942 85.3097 213.942 84.0505C213.942 82.7914 214.963 81.7706 216.222 81.7706C217.481 81.7706 218.502 82.7914 218.502 84.0505C218.502 85.3097 217.481 86.3305 216.222 86.3305Z" fill="white" stroke="#334155" stroke-width="0.664115"/>
<path d="M218.884 68.3633C217.625 68.3633 216.604 67.3426 216.604 66.0834C216.604 64.8242 217.625 63.8035 218.884 63.8035C220.143 63.8035 221.164 64.8242 221.164 66.0834C221.164 67.3426 220.143 68.3633 218.884 68.3633Z" fill="white" stroke="#334155" stroke-width="0.664115"/>
<path d="M155.051 140.997V214.529" stroke="#FA5A28" stroke-width="0.664115" stroke-linejoin="round" stroke-dasharray="3.32 3.32"/>
<path d="M137.083 131.68V157.743C137.083 161.411 134.11 164.384 130.442 164.384H127.753C124.086 164.384 121.112 167.357 121.112 171.025V205.212" stroke="#FA5A28" stroke-width="0.664115" stroke-linejoin="round" stroke-dasharray="3.32 3.32"/>
<path d="M174.347 131.015V156.79C174.347 160.458 177.32 163.431 180.988 163.431H183.677C187.345 163.431 190.318 166.405 190.318 170.072V203.881" stroke="#FA5A28" stroke-width="0.664115" stroke-linejoin="round" stroke-dasharray="3.32 3.32"/>
<path d="M115.122 117.04V147.847C115.122 151.515 112.148 154.488 108.481 154.488H105.792C102.124 154.488 99.1509 157.461 99.1509 161.129V192.569" stroke="#FA5A28" stroke-width="0.664115" stroke-linejoin="round" stroke-dasharray="3.32 3.32"/>
<path d="M194.975 115.709V147.322C194.975 150.989 197.949 153.963 201.617 153.963H204.305C207.973 153.963 210.946 156.936 210.946 160.604V194.565" stroke="#FA5A28" stroke-width="0.664115" stroke-linejoin="round" stroke-dasharray="3.32 3.32"/>
<path d="M210.898 196.795C209.639 196.795 208.618 195.774 208.618 194.515C208.618 193.256 209.639 192.235 210.898 192.235C212.157 192.235 213.178 193.256 213.178 194.515C213.178 195.774 212.157 196.795 210.898 196.795Z" fill="white" stroke="#FA5A28" stroke-width="0.664115"/>
<path d="M190.269 206.111C189.01 206.111 187.989 205.09 187.989 203.831C187.989 202.572 189.01 201.551 190.269 201.551C191.528 201.551 192.549 202.572 192.549 203.831C192.549 205.09 191.528 206.111 190.269 206.111Z" fill="white" stroke="#FA5A28" stroke-width="0.664115"/>
<path d="M155.002 215.428C153.743 215.428 152.722 214.407 152.722 213.148C152.722 211.889 153.743 210.868 155.002 210.868C156.261 210.868 157.282 211.889 157.282 213.148C157.282 214.407 156.261 215.428 155.002 215.428Z" fill="white" stroke="#FA5A28" stroke-width="0.664115"/>
<path d="M121.064 206.111C119.805 206.111 118.784 205.09 118.784 203.831C118.784 202.572 119.805 201.551 121.064 201.551C122.323 201.551 123.344 202.572 123.344 203.831C123.344 205.09 122.323 206.111 121.064 206.111Z" fill="white" stroke="#FA5A28" stroke-width="0.664115"/>
<path d="M99.1024 196.795C97.8432 196.795 96.8225 195.774 96.8225 194.515C96.8225 193.256 97.8432 192.235 99.1024 192.235C100.362 192.235 101.382 193.256 101.382 194.515C101.382 195.774 100.362 196.795 99.1024 196.795Z" fill="white" stroke="#FA5A28" stroke-width="0.664115"/>
<path d="M137.034 133.578C135.775 133.578 134.754 132.557 134.754 131.298C134.754 130.039 135.775 129.018 137.034 129.018C138.293 129.018 139.314 130.039 139.314 131.298C139.314 132.557 138.293 133.578 137.034 133.578Z" fill="white" stroke="#334155" stroke-width="0.664115"/>
<path d="M155.001 136.905C153.742 136.905 152.721 135.884 152.721 134.625C152.721 133.366 153.742 132.345 155.001 132.345C156.26 132.345 157.281 133.366 157.281 134.625C157.281 135.884 156.26 136.905 155.001 136.905Z" fill="white" stroke="#334155" stroke-width="0.664115"/>
<path d="M174.299 133.578C173.04 133.578 172.019 132.557 172.019 131.298C172.019 130.039 173.04 129.018 174.299 129.018C175.558 129.018 176.579 130.039 176.579 131.298C176.579 132.557 175.558 133.578 174.299 133.578Z" fill="white" stroke="#334155" stroke-width="0.664115"/>
<g filter="url(#filter0_d_25_2)">
<path d="M46.2339 14.2154C46.2339 10.5476 49.2072 7.57422 52.875 7.57422H259.886C263.554 7.57422 266.527 10.5476 266.527 14.2154V162.638C266.527 166.305 263.554 169.279 259.886 169.279H52.875C49.2072 169.279 46.2339 166.305 46.2339 162.638V14.2154Z" fill="white"/>
</g>
<mask id="mask0_25_2" style="mask-type:alpha" maskUnits="userSpaceOnUse" x="46" y="7" width="221" height="163">
<path d="M46.2339 14.2154C46.2339 10.5476 49.2072 7.57422 52.875 7.57422H259.886C263.554 7.57422 266.527 10.5476 266.527 14.2154V162.638C266.527 166.305 263.554 169.279 259.886 169.279H52.875C49.2072 169.279 46.2339 166.305 46.2339 162.638V14.2154Z" fill="white"/>
</mask>
<g mask="url(#mask0_25_2)">
<path d="M266.872 19.3267H42.4429V11.1802C42.4429 8.97943 44.2269 7.19543 46.4275 7.19543L262.887 7.19545C265.088 7.19545 266.872 8.97945 266.872 11.1802V19.3267Z" fill="white"/>
<path d="M52.8688 15.9145C54.0203 15.9145 54.9538 14.981 54.9538 13.8294C54.9538 12.6779 54.0203 11.7444 52.8688 11.7444C51.7172 11.7444 50.7837 12.6779 50.7837 13.8294C50.7837 14.981 51.7172 15.9145 52.8688 15.9145Z" fill="#EC6B62"/>
<path d="M58.9342 15.9145C60.0857 15.9145 61.0192 14.981 61.0192 13.8294C61.0192 12.6779 60.0857 11.7444 58.9342 11.7444C57.7826 11.7444 56.8491 12.6779 56.8491 13.8294C56.8491 14.981 57.7826 15.9145 58.9342 15.9145Z" fill="#F5BF5C"/>
<path d="M65.0006 15.9145C66.1521 15.9145 67.0857 14.981 67.0857 13.8294C67.0857 12.6779 66.1521 11.7444 65.0006 11.7444C63.849 11.7444 62.9155 12.6779 62.9155 13.8294C62.9155 14.981 63.849 15.9145 65.0006 15.9145Z" fill="#5FC65E"/>
<path d="M217.207 10.228H103.861C102.393 10.228 101.204 11.4174 101.204 12.8845V14.3954C101.204 15.8625 102.393 17.0519 103.861 17.0519H217.207C218.674 17.0519 219.863 15.8625 219.863 14.3954V12.8845C219.863 11.4174 218.674 10.228 217.207 10.228Z" fill="#F4F9FE"/>
<path d="M108.701 67L102.754 77.3014L96.8062 67H77L102.754 111.607L128.507 67H108.701Z" fill="#41B883"/>
<path d="M108.701 67L102.754 77.3014L96.8061 67H87.3015L102.754 93.7639L118.206 67H108.701Z" fill="#34495E"/>
<path d="M136.695 80.7472L144.4 102.595H144.704L152.409 80.7472H155.704L146.174 106.701H142.93L133.4 80.7472H136.695Z" fill="black"/>
<path d="M171.608 98.7422V87.2356H174.598V106.701H171.608V103.406H171.405C170.949 104.394 170.239 105.235 169.276 105.928C168.313 106.612 167.096 106.954 165.626 106.954C164.41 106.954 163.328 106.688 162.382 106.156C161.436 105.615 160.692 104.804 160.152 103.723C159.611 102.633 159.341 101.26 159.341 99.604V87.2356H162.331V99.4012C162.331 100.821 162.728 101.953 163.523 102.797C164.325 103.642 165.347 104.065 166.589 104.065C167.333 104.065 168.089 103.875 168.858 103.494C169.635 103.114 170.285 102.531 170.809 101.746C171.342 100.96 171.608 99.9588 171.608 98.7422Z" fill="black"/>
<path d="M188.237 107.106C186.362 107.106 184.744 106.692 183.384 105.864C182.032 105.028 180.989 103.862 180.254 102.367C179.527 100.863 179.164 99.114 179.164 97.1201C179.164 95.1263 179.527 93.3691 180.254 91.8484C180.989 90.3192 182.011 89.128 183.32 88.2747C184.638 87.413 186.176 86.9821 187.933 86.9821C188.947 86.9821 189.948 87.1511 190.936 87.489C191.925 87.8269 192.825 88.3761 193.636 89.1364C194.447 89.8883 195.093 90.8852 195.575 92.1272C196.056 93.3691 196.297 94.8982 196.297 96.7146V97.9819H181.293V95.3967H193.256C193.256 94.2984 193.036 93.3184 192.597 92.4566C192.166 91.5949 191.549 90.9148 190.746 90.4164C189.952 89.9179 189.014 89.6687 187.933 89.6687C186.742 89.6687 185.711 89.9644 184.841 90.5558C183.979 91.1387 183.316 91.8991 182.851 92.8368C182.387 93.7746 182.154 94.7799 182.154 95.8529V97.5764C182.154 99.0464 182.408 100.293 182.915 101.315C183.43 102.329 184.144 103.102 185.056 103.634C185.969 104.158 187.029 104.42 188.237 104.42C189.023 104.42 189.733 104.31 190.366 104.09C191.008 103.862 191.562 103.524 192.026 103.076C192.491 102.62 192.85 102.054 193.103 101.378L195.993 102.189C195.689 103.169 195.178 104.031 194.459 104.774C193.741 105.509 192.854 106.084 191.798 106.498C190.742 106.903 189.555 107.106 188.237 107.106Z" fill="black"/>
<path d="M203.026 106.903C202.401 106.903 201.864 106.679 201.417 106.232C200.969 105.784 200.745 105.247 200.745 104.622C200.745 103.997 200.969 103.461 201.417 103.013C201.864 102.565 202.401 102.341 203.026 102.341C203.651 102.341 204.188 102.565 204.636 103.013C205.083 103.461 205.307 103.997 205.307 104.622C205.307 105.036 205.202 105.416 204.99 105.763C204.788 106.109 204.513 106.388 204.167 106.599C203.829 106.802 203.449 106.903 203.026 106.903Z" fill="black"/>
<path d="M210.674 87.2356H213.665V108.12C213.665 109.32 213.458 110.359 213.044 111.237C212.638 112.116 212.022 112.796 211.194 113.278C210.374 113.759 209.339 114 208.089 114C207.987 114 207.886 114 207.785 114C207.683 114 207.582 114 207.481 114V111.212C207.582 111.212 207.675 111.212 207.759 111.212C207.844 111.212 207.937 111.212 208.038 111.212C208.951 111.212 209.618 110.942 210.04 110.401C210.463 109.869 210.674 109.108 210.674 108.12V87.2356ZM212.144 83.9914C211.561 83.9914 211.058 83.7928 210.636 83.3958C210.222 82.9987 210.015 82.5214 210.015 81.9638C210.015 81.4062 210.222 80.9288 210.636 80.5318C211.058 80.1347 211.561 79.9362 212.144 79.9362C212.727 79.9362 213.225 80.1347 213.639 80.5318C214.062 80.9288 214.273 81.4062 214.273 81.9638C214.273 82.5214 214.062 82.9987 213.639 83.3958C213.225 83.7928 212.727 83.9914 212.144 83.9914Z" fill="black"/>
<path d="M232.93 91.5949L230.244 92.3553C230.075 91.9075 229.825 91.4724 229.496 91.05C229.175 90.6191 228.736 90.2643 228.178 89.9855C227.62 89.7067 226.906 89.5673 226.036 89.5673C224.845 89.5673 223.852 89.8419 223.058 90.391C222.273 90.9317 221.88 91.6203 221.88 92.4566C221.88 93.2001 222.15 93.7873 222.691 94.2181C223.231 94.649 224.076 95.0081 225.225 95.2953L228.115 96.005C229.855 96.4274 231.152 97.0737 232.005 97.9439C232.858 98.8056 233.285 99.9166 233.285 101.277C233.285 102.392 232.964 103.389 232.322 104.267C231.688 105.146 230.801 105.839 229.661 106.346C228.52 106.853 227.194 107.106 225.681 107.106C223.696 107.106 222.053 106.675 220.752 105.814C219.451 104.952 218.627 103.693 218.281 102.037L221.119 101.327C221.39 102.375 221.901 103.161 222.653 103.685C223.413 104.208 224.406 104.47 225.631 104.47C227.025 104.47 228.132 104.175 228.951 103.583C229.779 102.983 230.193 102.265 230.193 101.429C230.193 100.753 229.956 100.187 229.483 99.7307C229.01 99.266 228.284 98.9197 227.304 98.6915L224.059 97.9312C222.277 97.5088 220.967 96.854 220.131 95.9669C219.303 95.0714 218.889 93.952 218.889 92.6087C218.889 91.5104 219.197 90.5389 219.814 89.694C220.439 88.8492 221.288 88.186 222.361 87.7044C223.443 87.2229 224.668 86.9821 226.036 86.9821C227.963 86.9821 229.475 87.4045 230.573 88.2494C231.68 89.0942 232.466 90.2094 232.93 91.5949Z" fill="black"/>
</g>
</g>
<defs>
<filter id="filter0_d_25_2" x="39.5927" y="0.933079" width="233.575" height="174.987" filterUnits="userSpaceOnUse" color-interpolation-filters="sRGB">
<feFlood flood-opacity="0" result="BackgroundImageFix"/>
<feColorMatrix in="SourceAlpha" type="matrix" values="0 0 0 0 0 0 0 0 0 0 0 0 0 0 0 0 0 0 127 0" result="hardAlpha"/>
<feOffset/>
<feGaussianBlur stdDeviation="3.32057"/>
<feColorMatrix type="matrix" values="0 0 0 0 0 0 0 0 0 0 0 0 0 0 0 0 0 0 0.1 0"/>
<feBlend mode="normal" in2="BackgroundImageFix" result="effect1_dropShadow_25_2"/>
<feBlend mode="normal" in="SourceGraphic" in2="effect1_dropShadow_25_2" result="shape"/>
</filter>
<clipPath id="clip0_25_2">
<rect width="310" height="216" fill="white"/>
</clipPath>
</defs>
</svg>
