<svg width="154" height="155" viewBox="0 0 154 155" fill="none" xmlns="http://www.w3.org/2000/svg">
<path fill-rule="evenodd" clip-rule="evenodd" d="M46.3365 27.5731C46.3365 31.7503 42.9492 35.1365 38.7709 35.1365C34.5925 35.1365 31.2053 31.7503 31.2053 27.5731C31.2053 23.396 34.5925 20.0098 38.7709 20.0098C42.9492 20.0098 46.3365 23.396 46.3365 27.5731Z" fill="#F2F2F2"/>
<path fill-rule="evenodd" clip-rule="evenodd" d="M142.925 20.0102C142.927 23.07 141.084 25.8304 138.256 27.0031C135.428 28.1758 132.172 27.5297 130.006 25.3662C127.84 23.2027 127.192 19.9478 128.363 17.1197C129.534 14.2916 132.294 12.4472 135.355 12.4468C139.535 12.4462 142.924 15.832 142.925 20.0102Z" fill="#F2F2F2"/>
<path fill-rule="evenodd" clip-rule="evenodd" d="M59.2399 138.623C59.2399 142.8 55.8527 146.186 51.6743 146.186C47.496 146.186 44.1088 142.8 44.1088 138.623C44.1088 134.446 47.496 131.059 51.6743 131.059C55.8527 131.059 59.2399 134.446 59.2399 138.623Z" fill="#F2F2F2"/>
<path fill-rule="evenodd" clip-rule="evenodd" d="M120.969 20.0099C120.969 23.0941 118.468 25.5944 115.383 25.5944H101.25C98.1653 25.5944 95.6643 23.0941 95.6643 20.0099C95.6643 16.9258 98.1653 14.4255 101.25 14.4255H115.379C118.465 14.4255 120.965 16.9258 120.965 20.0099H120.969Z" fill="#F2F2F2"/>
<path fill-rule="evenodd" clip-rule="evenodd" d="M107.255 140.602C107.255 143.686 104.755 146.186 101.669 146.186H78.2465C75.1615 146.186 72.6605 143.686 72.6605 140.602C72.6605 137.518 75.1615 135.017 78.2465 135.017H101.669C104.755 135.017 107.255 137.518 107.255 140.602H107.255Z" fill="#F2F2F2"/>
<path fill-rule="evenodd" clip-rule="evenodd" d="M98.9146 95.4939C97.4666 95.5207 96.0736 94.9396 95.0742 93.8919C94.9799 93.7941 94.9171 93.7941 94.8019 93.8605C91.3409 95.8569 87.881 97.8545 84.4223 99.8532C84.0418 100.07 83.6682 100.29 83.2877 100.502C83.2445 100.519 83.2104 100.553 83.1938 100.597C83.1771 100.64 83.1795 100.688 83.2004 100.729C83.3841 101.308 83.4564 101.917 83.4134 102.523C83.3295 103.967 82.6303 105.305 81.4932 106.199C80.7373 106.819 79.8134 107.199 78.8398 107.291C76.8499 107.499 74.9224 106.523 73.9136 104.795C73.3935 103.922 73.1501 102.912 73.2154 101.899C73.2491 101.564 73.3039 101.232 73.3795 100.904C73.3979 100.86 73.3979 100.81 73.3795 100.766C73.3611 100.722 73.3259 100.688 73.2817 100.67C71.0636 99.3948 68.8525 98.1151 66.6483 96.8307L61.7606 94.0175C61.5511 93.8988 61.5511 93.8988 61.3835 94.0594C60.6128 94.8226 59.6136 95.3129 58.5381 95.4555C55.9235 95.8251 53.4581 94.1413 52.8518 91.5719C52.2455 89.0025 53.6983 86.3947 56.2025 85.5571C56.2923 85.5192 56.3859 85.4911 56.4818 85.4734C56.6214 85.4524 56.6528 85.3791 56.6494 85.25V79.9029C56.6494 77.2457 56.6494 74.5861 56.6494 71.9242C56.6593 71.8611 56.6435 71.7967 56.6054 71.7455C56.5673 71.6943 56.5101 71.6606 56.4469 71.6519C54.4045 71.0202 53.1441 69.6485 52.781 67.5439C52.3181 64.8493 54.0886 62.2771 56.7715 61.7466C58.4516 61.3649 60.2092 61.8845 61.4114 63.1183C61.4421 63.1611 61.489 63.1894 61.5411 63.1967C61.5932 63.2039 61.6461 63.1895 61.6873 63.1567C65.5137 60.9415 69.3424 58.731 73.1735 56.5252C73.4074 56.3891 73.4074 56.3891 73.3376 56.1063C72.9429 54.325 73.5289 52.4684 74.8748 51.2362C76.2207 50.0039 78.1221 49.5832 79.8625 50.1326C81.6028 50.6819 82.9178 52.1178 83.3119 53.8993C83.4719 54.6684 83.4456 55.4646 83.2353 56.2215C83.2136 56.2719 83.2131 56.3289 83.2342 56.3796C83.2553 56.4302 83.296 56.4702 83.3471 56.4903C86.7964 58.4751 90.2446 60.4633 93.6917 62.4551L94.9241 63.1532C94.9602 63.1849 95.0081 63.2 95.0559 63.1947C95.1038 63.1894 95.1472 63.1642 95.1755 63.1252C95.9491 62.3272 96.9707 61.8153 98.0732 61.6733C99.4294 61.4682 100.81 61.8291 101.893 62.6715C102.952 63.4453 103.651 64.6174 103.827 65.9175C104.12 68.0535 103.352 69.7567 101.589 70.9993C101.151 71.298 100.664 71.5177 100.151 71.6485C99.9934 71.6903 99.9585 71.7601 99.9585 71.9102C99.9585 74.7024 99.9585 77.4946 99.9585 80.2868C99.9585 81.9296 99.9585 83.5712 99.9585 85.2116C99.9485 85.2678 99.9618 85.3256 99.9954 85.3717C100.029 85.4178 100.08 85.4482 100.137 85.4559C102.123 86.0702 103.387 87.3895 103.795 89.4278C104.318 92.1593 102.548 94.8034 99.8223 95.3612C99.5223 95.4213 99.2193 95.4656 98.9146 95.4939ZM78.3161 89.1871H93.6323C93.7649 89.1871 93.8243 89.1592 93.8627 89.0195C94.0904 88.1786 94.5346 87.4121 95.151 86.7962C95.1945 86.7669 95.2235 86.7206 95.2308 86.6687C95.2381 86.6168 95.2231 86.5642 95.1894 86.524C94.547 85.4246 93.9116 84.3182 93.2761 83.2187C91.2908 79.782 89.3054 76.3453 87.3201 72.9085C84.8343 68.6062 82.3497 64.3015 79.8662 59.9946C79.7894 59.8585 79.7231 59.8131 79.559 59.8585C78.7496 60.0592 77.9035 60.0592 77.0941 59.8585C76.8672 59.8061 76.8707 59.8026 76.745 59.9981L68.6383 74.0359C66.2456 78.2126 63.846 82.3811 61.4393 86.5415C61.4095 86.5815 61.3971 86.6319 61.405 86.6812C61.4129 86.7305 61.4404 86.7745 61.4812 86.8032C62.0942 87.4075 62.5352 88.1641 62.759 88.9951C62.7658 89.0567 62.7978 89.1127 62.8474 89.1497C62.8971 89.1868 62.9599 89.2016 63.0209 89.1906L78.3161 89.1871ZM78.3162 91.5986H62.9547C62.8709 91.5986 62.7871 91.5986 62.7522 91.7103C62.7173 91.822 62.7941 91.8639 62.8709 91.9093L65.5801 93.4694L74.406 98.5652C74.6015 98.6769 74.6015 98.6769 74.7551 98.5268C75.8876 97.4168 77.48 96.9104 79.0459 97.1621C80.1545 97.311 81.1779 97.8373 81.9436 98.6525C81.975 98.7006 82.0256 98.7328 82.0825 98.7408C82.1394 98.7488 82.1969 98.7319 82.2404 98.6943C85.3616 96.8864 88.4851 95.0819 91.611 93.281L93.7476 92.0454C93.7965 92.014 93.8663 91.9686 93.8733 91.9232C93.8911 91.8404 93.8689 91.754 93.8132 91.6901C93.7575 91.6263 93.675 91.5924 93.5905 91.5986H78.3162ZM59.0409 78.5591V85.2499C59.0409 85.3407 59.0409 85.4105 59.1596 85.4454C59.2783 85.4803 59.3167 85.4105 59.3586 85.3337L66.39 73.1597L71.1172 64.9715L74.7132 58.7519C74.755 58.6786 74.8039 58.6123 74.7132 58.5215C74.6224 58.4308 74.563 58.4692 74.4827 58.5215L69.5077 61.3905C67.2989 62.6726 65.0877 63.9524 62.8743 65.2298C62.8297 65.2462 62.7937 65.28 62.7746 65.3234C62.7555 65.3669 62.7549 65.4163 62.773 65.4602C62.9697 66.1662 62.9984 66.9085 62.8568 67.6276C62.5486 69.5395 61.1641 71.1017 59.3027 71.6379C59.0269 71.7287 59.0513 71.6379 59.0513 71.9869L59.0409 78.5591ZM97.5808 78.5592V71.9871C97.5808 71.6381 97.6122 71.7183 97.3189 71.6381C94.7285 70.8594 93.1965 68.1946 93.8276 65.565C93.8835 65.3347 93.8835 65.3347 93.681 65.216L84.293 59.7712C83.5692 59.3593 82.8488 58.9428 82.1319 58.5217C82.0411 58.4728 81.9783 58.4624 81.905 58.5461C81.8317 58.6299 81.905 58.7032 81.9294 58.7695C82.7813 60.2494 83.6355 61.7292 84.492 63.2091L90.078 72.8841C91.7608 75.8043 93.4471 78.7245 95.1369 81.6446C95.8491 82.8802 96.5601 84.1146 97.27 85.3478C97.3294 85.456 97.3922 85.4874 97.5039 85.442C97.6157 85.3967 97.5877 85.3094 97.5877 85.2326L97.5808 78.5592Z" fill="#E5E5E5"/>
<path fill-rule="evenodd" clip-rule="evenodd" d="M78.3162 112.02C64.7782 112.02 52.5734 103.867 47.3929 91.3632C42.2125 78.8592 45.0768 64.4667 54.65 54.8972C64.2233 45.3277 78.6203 42.4657 91.1273 47.646C103.634 52.8262 111.788 65.0284 111.787 78.5625C111.761 97.0296 96.791 111.994 78.3174 112.02H78.3162ZM78.3162 48.0367C61.4524 48.0367 47.7816 61.7036 47.7816 78.5625C47.7816 95.4214 61.4524 109.088 78.3162 109.088C95.18 109.088 108.851 95.4214 108.851 78.5625C108.833 61.7105 95.1725 48.0539 78.3159 48.0367H78.3162Z" fill="#E5E5E5"/>
<path fill-rule="evenodd" clip-rule="evenodd" d="M97.8673 94.4465C96.4198 94.4708 95.0278 93.8901 94.0269 92.8445C93.9984 92.8008 93.9522 92.7717 93.9005 92.765C93.8488 92.7583 93.7967 92.7746 93.758 92.8096L83.3785 98.8059C83.0015 99.0222 82.6279 99.2421 82.2473 99.455C82.2034 99.4708 82.1685 99.5049 82.1518 99.5485C82.135 99.5921 82.138 99.6408 82.1601 99.6819C82.3443 100.261 82.4155 100.87 82.3695 101.476C82.287 102.92 81.5876 104.259 80.4493 105.151C79.6951 105.772 78.7721 106.152 77.7995 106.244C75.8061 106.455 73.8738 105.479 72.8628 103.748C72.3419 102.875 72.0984 101.865 72.1646 100.851C72.1965 100.517 72.2513 100.186 72.3287 99.8599C72.3471 99.816 72.3471 99.7665 72.3287 99.7225C72.3103 99.6786 72.2751 99.6439 72.2309 99.6261L65.5975 95.7868L60.7272 92.9701C60.5177 92.8515 60.5177 92.8515 60.3501 93.012C59.5778 93.773 58.5794 94.2629 57.5048 94.4081C54.8901 94.7777 52.4247 93.0939 51.8185 90.5245C51.2122 87.9552 52.6649 85.3474 55.1691 84.5098C55.2589 84.4718 55.3525 84.4437 55.4484 84.426C55.588 84.4051 55.6195 84.3318 55.616 84.2026V78.8556C55.616 76.196 55.616 73.5364 55.616 70.8768C55.616 70.7163 55.5706 70.6569 55.4135 70.6046C53.3676 69.9729 52.1108 68.5977 51.7477 66.4931C51.2867 63.7989 53.0564 61.2279 55.7382 60.6958C57.4189 60.3135 59.1773 60.8347 60.3781 62.0709C60.4086 62.1141 60.4558 62.1424 60.5083 62.149C60.5607 62.1557 60.6136 62.14 60.6539 62.1058L72.1367 55.4743C72.3741 55.3382 72.3741 55.3382 72.3042 55.052C71.8584 53.2517 72.424 51.3513 73.7818 50.0876C75.1396 48.8238 77.0761 48.3954 78.8405 48.9685C80.6049 49.5415 81.9197 51.0259 82.2753 52.8462C82.4383 53.6156 82.4132 54.413 82.202 55.1707C82.1803 55.2205 82.18 55.2771 82.2011 55.3272C82.2222 55.3773 82.2629 55.4166 82.3137 55.4359C85.7631 57.4254 89.2113 59.4148 92.6583 61.4043C93.0703 61.6381 93.4823 61.8755 93.8907 62.1023C93.9258 62.1351 93.9734 62.1508 94.0211 62.1454C94.0688 62.1401 94.1117 62.1141 94.1386 62.0744C94.9133 61.2753 95.936 60.7622 97.0398 60.619C98.3955 60.4145 99.7755 60.7768 100.856 61.6207C101.917 62.3935 102.617 63.5659 102.793 64.8666C103.083 67.0026 102.315 68.7059 100.556 69.9484C100.116 70.2472 99.6285 70.4669 99.1137 70.5976C98.96 70.636 98.9216 70.7093 98.9216 70.8594C98.9216 73.6516 98.9216 76.4438 98.9216 79.236C98.9216 80.8764 98.9216 82.5203 98.9216 84.1607C98.9127 84.2169 98.927 84.2743 98.9612 84.3197C98.9954 84.3651 99.0467 84.3947 99.1032 84.4016C101.09 85.0193 102.354 86.3352 102.762 88.377C103.287 91.1088 101.515 93.7542 98.789 94.3104C98.4846 94.3732 98.1768 94.4186 97.8673 94.4465L97.8673 94.4465ZM77.2686 88.1396H92.5848C92.7175 88.1396 92.7768 88.1082 92.8152 87.9721C93.0437 87.1305 93.4877 86.363 94.1035 85.7453C94.1472 85.7169 94.1763 85.6707 94.183 85.619C94.1897 85.5672 94.1734 85.5152 94.1384 85.4765C93.4995 84.3771 92.8641 83.2707 92.2287 82.1713L86.2761 71.861L78.8257 58.9471C78.8064 58.8857 78.7618 58.8355 78.7032 58.8089C78.6446 58.7822 78.5775 58.7817 78.5185 58.8075C77.7084 59.0117 76.8603 59.0117 76.0502 58.8075C75.8267 58.7586 75.8302 58.7551 75.701 58.9506L67.5943 72.9884C65.1993 77.1651 62.7985 81.3336 60.3919 85.494C60.329 85.6022 60.35 85.665 60.4337 85.7558C61.0453 86.3612 61.4861 87.1173 61.7115 87.9477C61.7184 88.0085 61.7499 88.0639 61.7988 88.1008C61.8476 88.1378 61.9095 88.153 61.9699 88.1431L77.2686 88.1396ZM77.2687 90.5478H61.9316C61.8443 90.5478 61.764 90.5478 61.7291 90.6595C61.6942 90.7712 61.771 90.8131 61.8443 90.8585L64.557 92.4186L73.3829 97.5144C73.5785 97.6296 73.575 97.6296 73.7321 97.476C74.8675 96.3687 76.4601 95.8638 78.0263 96.1148C79.1359 96.2606 80.1603 96.7874 80.9241 97.6051C80.9555 97.6521 81.0054 97.6835 81.0613 97.6915C81.1173 97.6995 81.174 97.6833 81.2173 97.647L90.5984 92.2301L92.735 90.9981C92.7839 90.9667 92.8537 90.9213 92.8607 90.8724C92.877 90.7898 92.8542 90.7043 92.7989 90.6408C92.7436 90.5773 92.662 90.543 92.5779 90.5478L77.2687 90.5478ZM57.9935 77.5118V84.2026C57.9935 84.2968 57.9935 84.3667 58.1157 84.4016C58.2379 84.4365 58.2693 84.3667 58.3147 84.2899C60.6562 80.2319 62.9988 76.1739 65.3426 72.1159L70.0733 63.9277L73.6658 57.7081C73.7112 57.6313 73.76 57.5685 73.6658 57.4777C73.5715 57.387 73.5157 57.4254 73.4354 57.4777L68.4603 60.3467L61.8269 64.186C61.7817 64.2015 61.745 64.2352 61.7258 64.279C61.7065 64.3227 61.7065 64.3726 61.7257 64.4164C61.9223 65.1212 61.951 65.8624 61.8094 66.5803C61.4983 68.492 60.1132 70.0533 58.2519 70.5906C57.9795 70.6814 58.0005 70.5906 58.0005 70.9396L57.9935 77.5118ZM96.5372 77.5116V70.9395C96.5372 70.5905 96.5686 70.6742 96.2753 70.5905C93.6849 69.8118 92.1529 67.147 92.7841 64.5174C92.8399 64.2836 92.8399 64.2871 92.6374 64.1684L83.2459 58.7236C82.5232 58.3118 81.804 57.8929 81.0813 57.4741C80.994 57.4252 80.9312 57.4148 80.8544 57.4985C80.7776 57.5823 80.8544 57.6556 80.8788 57.7219C81.7354 59.2018 82.5896 60.6816 83.4414 62.1615L89.0275 71.8365C90.7126 74.7567 92.4 77.6769 94.0898 80.597C94.802 81.8326 95.5131 83.067 96.2229 84.3002C96.2823 84.4084 96.3451 84.4363 96.4569 84.3909C96.5686 84.3456 96.5406 84.2583 96.5406 84.1815L96.5372 77.5116Z" fill="#DB34A7"/>
<path fill-rule="evenodd" clip-rule="evenodd" d="M77.2689 110.973C63.7306 110.975 51.5247 102.823 46.3432 90.3187C41.1616 77.8149 44.025 63.4218 53.598 53.8516C63.1711 44.2813 77.5683 41.4187 90.0757 46.5988C102.583 51.7788 110.738 63.9812 110.736 77.5156C110.708 95.9841 95.7396 110.947 77.2673 110.973H77.2689ZM77.2689 46.9898C60.4051 46.9898 46.7343 60.6567 46.7343 77.5156C46.7343 94.3745 60.4051 108.041 77.2689 108.041C94.1327 108.041 107.804 94.3745 107.804 77.5156C107.786 60.6636 94.1253 47.007 77.2687 46.9898H77.2689Z" fill="#DB34A7"/>
<path fill-rule="evenodd" clip-rule="evenodd" d="M62.7734 138.912C28.8519 130.906 7.84161 96.9243 15.8457 63.0118C23.8497 29.0994 57.8372 8.09822 91.7587 16.1044C125.68 24.1106 146.691 58.0924 138.686 92.0049C130.682 125.917 96.695 146.919 62.7734 138.912Z" stroke="#F94F24" stroke-width="1.30696" stroke-linecap="round" stroke-dasharray="3.92 7.58"/>
<path fill-rule="evenodd" clip-rule="evenodd" d="M29.414 77.8092C29.1504 51.3171 50.4192 29.6273 76.9192 29.3637C103.419 29.1001 125.115 50.3624 125.379 76.8544C125.642 103.346 104.374 125.036 77.8737 125.3C51.3737 125.564 29.6775 104.301 29.414 77.8092Z" stroke="#EAEAEA" stroke-width="5"/>
<g style="mix-blend-mode:multiply">
<path fill-rule="evenodd" clip-rule="evenodd" d="M145.491 110.973C145.491 122.153 136.425 131.216 125.242 131.216C114.059 131.216 104.993 122.153 104.993 110.973C104.993 99.7928 114.059 90.7295 125.242 90.7295C136.425 90.7295 145.491 99.7928 145.491 110.973Z" fill="#F2F2F2"/>
</g>
<path fill-rule="evenodd" clip-rule="evenodd" d="M140.991 110.973C140.991 117.341 137.154 123.082 131.269 125.519C125.384 127.956 118.61 126.609 114.106 122.106C109.602 117.603 108.254 110.831 110.692 104.948C113.13 99.0645 118.872 95.2285 125.242 95.2285C133.94 95.2285 140.991 102.278 140.991 110.973V110.973Z" fill="url(#paint0_linear)"/>
<g style="mix-blend-mode:multiply">
<path d="M123.179 111.619L126.37 114.805L133.202 107.975" stroke="#CCCCCC" stroke-width="5" stroke-linecap="round" stroke-linejoin="round"/>
</g>
<path d="M122.264 110.704L125.455 113.894L132.288 107.061" stroke="#F2F2F2" stroke-width="5" stroke-linecap="round" stroke-linejoin="round"/>
<defs>
<linearGradient id="paint0_linear" x1="133.885" y1="131.279" x2="162.309" y2="102.11" gradientUnits="userSpaceOnUse">
<stop stop-color="#8033EB"/>
<stop offset="0.53" stop-color="#D4648E"/>
<stop offset="1" stop-color="#EC7071"/>
</linearGradient>
</defs>
</svg>
