<svg width="262" height="164" viewBox="0 0 262 164" fill="none" xmlns="http://www.w3.org/2000/svg">
<mask id="mask0" mask-type="alpha" maskUnits="userSpaceOnUse" x="0" y="0" width="262" height="164">
<rect x="0.436401" y="0.487793" width="261.095" height="163.137" fill="white"/>
</mask>
<g mask="url(#mask0)">
<path fill-rule="evenodd" clip-rule="evenodd" d="M129.159 92.9049C129.159 92.9049 103.849 105.91 91.5911 99.6425C79.3327 93.3748 78.21 82.4218 83.1055 65.0836C88.001 47.7454 100.158 37.8952 119.006 50.8286C137.854 63.7621 149.913 80.6175 129.159 92.9049Z" fill="#F2F2F2"/>
<path fill-rule="evenodd" clip-rule="evenodd" d="M162.08 85.3189C162.08 85.3189 162.406 68.2874 169.179 63.5989C175.951 58.9103 182.057 61.4324 189.812 68.9334C197.566 76.4345 199.319 85.6289 187.155 91.8966C174.991 98.1643 162.677 99.7402 162.08 85.3189Z" fill="#F2F2F2"/>
<path d="M132.146 37.438V50.8609" stroke="#F94F24" stroke-linecap="round" stroke-dasharray="3.4 2.27"/>
<path d="M132.146 106.687V120.106" stroke="#F94F24" stroke-linecap="round" stroke-dasharray="3.4 2.27"/>
<path d="M74.5807 104.957L92.3841 93.626" stroke="#F94F24" stroke-linecap="round" stroke-dasharray="3.4 2.27"/>
<path d="M74.5807 54.0098L95.5335 73.1294" stroke="#F94F24" stroke-linecap="round" stroke-dasharray="3.4 2.27"/>
<path d="M190.729 104.957L172.925 93.626" stroke="#F94F24" stroke-linecap="round" stroke-dasharray="3.4 2.27"/>
<path d="M190.729 54.0098L173.01 69.896" stroke="#F94F24" stroke-linecap="round" stroke-dasharray="3.4 2.27"/>
<path fill-rule="evenodd" clip-rule="evenodd" d="M174.364 41.6472C174.366 45.1897 172.232 48.3839 168.959 49.7402C165.686 51.0966 161.918 50.3481 159.412 47.8438C156.906 45.3394 156.156 41.5725 157.512 38.2998C158.867 35.0271 162.062 32.8932 165.605 32.8933C167.928 32.8925 170.156 33.8144 171.799 35.4562C173.441 37.098 174.364 39.325 174.364 41.6472Z" fill="#F2F2F2"/>
<path fill-rule="evenodd" clip-rule="evenodd" d="M169.887 117.946C169.887 119.678 168.844 121.239 167.243 121.901C165.643 122.564 163.802 122.197 162.577 120.973C161.352 119.749 160.986 117.908 161.649 116.308C162.312 114.708 163.873 113.666 165.605 113.666C166.741 113.665 167.83 114.115 168.634 114.918C169.437 115.721 169.888 116.811 169.887 117.946Z" fill="#F2F2F2"/>
<path fill-rule="evenodd" clip-rule="evenodd" d="M111.101 126.782C111.101 130.247 108.292 133.056 104.825 133.056C101.359 133.056 98.5493 130.247 98.5493 126.782C98.5493 123.317 101.359 120.508 104.825 120.508C108.291 120.509 111.1 123.317 111.101 126.782Z" fill="#F2F2F2"/>
<g style="mix-blend-mode:multiply">
<path fill-rule="evenodd" clip-rule="evenodd" d="M168.787 87.2928C169.495 83.0839 170.768 77.5046 168.422 73.6122C168.301 73.412 168.291 73.1642 168.395 72.9549C168.498 72.7455 168.702 72.6034 168.934 72.5779C164.74 67.8626 158.342 65.7526 152.165 67.0476C147.209 59.8964 138.528 56.3037 129.967 57.8607C121.405 59.4178 114.545 65.8368 112.426 74.2745C111.945 74.2221 111.461 74.1959 110.977 74.1962C103.34 74.1962 97.1492 80.3855 97.1492 88.0204C97.1492 95.6553 103.34 101.845 110.977 101.845H155.788C159.58 101.845 162.583 100.843 165.396 98.0305C167.038 94.6333 168.18 91.0167 168.787 87.2929V87.2928Z" fill="#EBEBEB"/>
</g>
<path fill-rule="evenodd" clip-rule="evenodd" d="M154.175 64.9105C152.963 64.9116 151.753 65.0373 150.566 65.2857C145.611 58.1346 136.93 54.5414 128.368 56.0977C119.807 57.654 112.947 64.0722 110.827 72.5094C110.346 72.4597 109.862 72.4346 109.378 72.4344C101.744 72.4374 95.5559 78.6253 95.5554 86.2577C95.5549 93.8902 101.742 100.079 109.376 100.083H154.175C163.891 100.083 171.767 92.2092 171.767 82.4967C171.767 72.7841 163.891 64.9105 154.175 64.9105V64.9105Z" fill="url(#paint0_linear)"/>
<path fill-rule="evenodd" clip-rule="evenodd" d="M132.325 50.861C126.234 50.8386 120.316 52.8929 115.55 56.685C111.9 59.5819 109.053 63.3651 107.28 67.6739C97.4083 68.7696 90.1149 77.3872 90.6686 87.3009C91.2222 97.2145 99.4299 104.967 109.362 104.957H154.175C162.267 105.055 169.787 100.795 173.861 93.8049C177.935 86.815 177.935 78.1748 173.861 71.1848C169.787 64.1949 162.267 59.9351 154.175 60.0326C153.673 60.0326 153.17 60.0489 152.668 60.0848C147.529 54.2283 140.117 50.8675 132.325 50.861V50.861Z" stroke="#F94F24" stroke-linecap="round" stroke-dasharray="3.4 2.27"/>
<path fill-rule="evenodd" clip-rule="evenodd" d="M109.362 74.5518C109.846 74.5521 110.329 74.5771 110.811 74.6269C112.928 66.1825 119.793 59.7586 128.361 58.2038C136.929 56.6491 145.615 60.2513 150.566 67.413C151.753 67.1696 152.963 67.0471 154.175 67.0475C163.443 67.0485 171.12 74.2394 171.724 83.4852C171.75 83.1035 171.767 82.7217 171.767 82.3335C171.767 77.0312 169.375 72.0142 165.258 68.6756C161.141 65.337 155.737 64.033 150.55 65.1263C145.595 57.9767 136.915 54.3846 128.355 55.9407C119.794 57.4968 112.935 63.9136 110.814 72.3495C110.333 72.2997 109.849 72.2747 109.365 72.2744C101.728 72.2744 95.5367 78.4637 95.5367 86.0987C95.5367 86.4837 95.5563 86.8687 95.589 87.2471C96.1751 80.0768 102.165 74.5551 109.362 74.5518L109.362 74.5518Z" fill="#C4ECEC"/>
<g style="mix-blend-mode:multiply">
<path fill-rule="evenodd" clip-rule="evenodd" d="M144.41 73.7199C141.822 71.1267 137.792 70.6468 134.667 72.5598C131.542 74.4727 130.137 78.2789 131.271 81.7626L122.344 90.6862C122.208 90.8202 122.131 91.0038 122.132 91.1952V95.2703C122.132 95.6685 122.455 95.9914 122.854 95.9914L126.93 95.9914C127.121 95.9902 127.304 95.9141 127.439 95.7793L128.457 94.7613C128.614 94.6055 128.689 94.3865 128.663 94.1675L128.536 93.0745L130.053 92.9309C130.4 92.9006 130.676 92.6254 130.706 92.2784L130.85 90.7612L131.946 90.8885C132.15 90.9152 132.356 90.8508 132.508 90.7123C132.661 90.5755 132.749 90.3796 132.749 90.1739L132.749 88.8329H134.055C134.247 88.8319 134.43 88.7558 134.567 88.6209L136.414 86.797C139.217 87.7368 142.311 87.0117 144.404 84.9242C147.494 81.8292 147.496 76.8185 144.41 73.7199L144.41 73.7199ZM142.37 78.8131C141.753 79.431 140.823 79.616 140.016 79.2817C139.208 78.9475 138.682 78.1598 138.682 77.2861C138.682 76.4124 139.208 75.6248 140.016 75.2905C140.823 74.9562 141.753 75.1412 142.37 75.7592C143.212 76.6033 143.212 77.9689 142.37 78.8131Z" fill="#CCCCCC"/>
</g>
<path fill-rule="evenodd" clip-rule="evenodd" d="M143.63 72.5747C141.042 69.9814 137.012 69.5016 133.887 71.4145C130.762 73.3274 129.357 77.1336 130.491 80.6173L121.565 89.5409C121.43 89.6766 121.354 89.8591 121.353 90.0499L121.353 94.1283C121.353 94.5266 121.675 94.8494 122.074 94.8494L126.15 94.8494C126.342 94.8504 126.525 94.7739 126.659 94.6373L127.678 93.6193C127.834 93.4638 127.91 93.2446 127.883 93.0255L127.759 91.9325L129.273 91.7889C129.621 91.7599 129.897 91.484 129.926 91.1364L130.07 89.6192L131.166 89.7465C131.37 89.7732 131.576 89.7088 131.728 89.5703C131.881 89.4335 131.969 89.2376 131.969 89.0319V87.691H133.275C133.466 87.6908 133.649 87.6145 133.784 87.4789L135.631 85.6583C138.435 86.5957 141.528 85.8694 143.621 83.7822C146.714 80.6877 146.718 75.6745 143.63 72.5747H143.63ZM141.591 77.6678C140.973 78.2858 140.043 78.4707 139.236 78.1365C138.429 77.8022 137.902 77.0146 137.902 76.1409C137.902 75.2672 138.429 74.4795 139.236 74.1452C140.043 73.811 140.973 73.996 141.591 74.6139C141.996 75.0185 142.225 75.5679 142.225 76.1409C142.225 76.7138 141.996 77.2632 141.591 77.6678Z" fill="#FFC300"/>
<path fill-rule="evenodd" clip-rule="evenodd" d="M142.256 78.3596C143.098 77.5143 143.098 76.1477 142.256 75.3024C142.145 75.1909 142.021 75.0924 141.888 75.0088C142.432 75.8629 142.309 76.9804 141.593 77.6965C140.877 78.4126 139.759 78.535 138.905 77.9909C138.99 78.1239 139.09 78.2475 139.202 78.3596C140.046 79.2009 141.412 79.2009 142.256 78.3596V78.3596Z" fill="#FFD344"/>
<path fill-rule="evenodd" clip-rule="evenodd" d="M122.018 94.8168V90.7417C122.018 90.551 122.093 90.3679 122.227 90.2327L131.157 81.3058C130.053 77.9062 131.364 74.189 134.357 72.2334C137.35 70.2778 141.282 70.5687 143.954 72.9434C143.849 72.826 143.74 72.7172 143.627 72.6172C141.039 70.0239 137.009 69.5441 133.884 71.457C130.759 73.3699 129.354 77.1761 130.488 80.6598L121.565 89.5606C121.43 89.6958 121.354 89.8786 121.353 90.0695V94.1447C121.353 94.5215 121.646 94.8336 122.022 94.8592C122.022 94.8495 122.018 94.8331 122.018 94.8168Z" fill="#FFD344"/>
<path fill-rule="evenodd" clip-rule="evenodd" d="M132.071 82.7248C131.87 82.5266 131.547 82.5266 131.346 82.7248L123.047 91.022C122.848 91.2227 122.848 91.5455 123.047 91.7463C123.142 91.8431 123.273 91.8976 123.409 91.8976C123.545 91.8976 123.675 91.8431 123.771 91.7463L132.071 83.4524C132.271 83.2513 132.271 82.926 132.071 82.7248V82.7248Z" fill="#FFA200"/>
<path fill-rule="evenodd" clip-rule="evenodd" d="M130.151 37.2446C121.587 35.8545 115.771 27.7869 117.161 19.2252C118.551 10.6635 126.62 4.84978 135.184 6.23994C143.748 7.6301 149.564 15.6977 148.174 24.2594C146.785 32.8211 138.715 38.6348 130.151 37.2446Z" fill="#F1ECFA"/>
<path fill-rule="evenodd" clip-rule="evenodd" d="M121.997 26.1556C119.558 20.2664 122.355 13.5142 128.246 11.0743C134.136 8.63442 140.889 11.4306 143.328 17.3199C145.768 23.2091 142.97 29.9612 137.08 32.4011C131.189 34.841 124.436 32.0448 121.997 26.1556Z" fill="url(#paint1_linear)" stroke="#F94F24" stroke-linecap="round"/>
<path fill-rule="evenodd" clip-rule="evenodd" d="M135.227 19.5975C135.227 21.0391 134.058 22.2077 132.616 22.2077V22.2077C131.174 22.2077 130.005 21.0391 130.005 19.5975V17.6073C130.005 16.1657 131.174 14.9971 132.616 14.9971V14.9971C134.058 14.9971 135.227 16.1657 135.227 17.6073V19.5975Z" stroke="white" stroke-linecap="round"/>
<path d="M131.186 21.7346V23.5324L128.52 24.4655C128.52 24.4655 127.028 25.0887 127.028 26.5178V27.8947" stroke="white" stroke-linecap="round" stroke-linejoin="round"/>
<path d="M134.068 21.7346V23.5324L136.734 24.4655C136.734 24.4655 138.229 25.0887 138.229 26.5178V27.8947" stroke="white" stroke-linecap="round" stroke-linejoin="round"/>
<path d="M129.489 18.2761C129.489 18.2761 133.079 17.927 134.799 16.1978" stroke="white" stroke-linecap="round"/>
<path d="M131.186 23.5322L132.629 25.3365L134.068 23.5322" stroke="white" stroke-linecap="round"/>
<path fill-rule="evenodd" clip-rule="evenodd" d="M58.142 62.6786C49.5778 61.2888 43.7618 53.2231 45.1516 44.6634C46.5413 36.1037 54.6106 30.2913 63.1747 31.6812C71.7389 33.071 77.5549 41.1367 76.1651 49.6964C74.7753 58.2561 66.7061 64.0685 58.142 62.6786Z" fill="#F1ECFA"/>
<path fill-rule="evenodd" clip-rule="evenodd" d="M49.9895 51.594C47.5501 45.7061 50.3478 38.9556 56.2383 36.5163C62.1287 34.0769 68.8814 36.8725 71.3208 42.7603C73.7602 48.6482 70.9626 55.3987 65.0721 57.8381C59.1816 60.2774 52.4289 57.4818 49.9895 51.594Z" fill="url(#paint2_linear)" stroke="#F94F24" stroke-linecap="round"/>
<path fill-rule="evenodd" clip-rule="evenodd" d="M63.2363 45.0468C63.2363 46.4883 62.0673 47.6569 60.6253 47.6569V47.6569C59.1834 47.6569 58.0144 46.4883 58.0144 45.0468V43.0565C58.0144 41.6149 59.1834 40.4463 60.6253 40.4463V40.4463C62.0673 40.4463 63.2363 41.6149 63.2363 43.0565V45.0468Z" stroke="white" stroke-linecap="round"/>
<path d="M59.1827 47.1841V48.9818L56.5163 49.915C56.5163 49.915 55.0248 50.5382 55.0248 51.9673V53.3441" stroke="white" stroke-linecap="round" stroke-linejoin="round"/>
<path d="M62.0677 47.1841V48.9818L64.7342 49.915C64.7342 49.915 66.2289 50.5382 66.2289 51.9673V53.3441" stroke="white" stroke-linecap="round" stroke-linejoin="round"/>
<path d="M57.4922 43.7253C57.4922 43.7253 61.0822 43.3762 62.7989 41.647" stroke="white" stroke-linecap="round"/>
<path d="M59.186 48.9817L60.6286 50.786L62.0679 48.9817" stroke="white" stroke-linecap="round"/>
<path fill-rule="evenodd" clip-rule="evenodd" d="M46.1439 120.021C42.8245 112.009 46.6314 102.823 54.6469 99.5037C62.6624 96.1844 71.8512 99.9884 75.1706 108C78.4901 116.012 74.6832 125.198 66.6676 128.518C58.6521 131.837 49.4634 128.033 46.1439 120.021Z" fill="#F1ECFA"/>
<path fill-rule="evenodd" clip-rule="evenodd" d="M58.8101 125.403C52.5164 124.381 48.2424 118.454 49.2637 112.164C50.285 105.873 56.215 101.602 62.5086 102.623C68.8023 103.644 73.0764 109.572 72.055 115.862C71.0337 122.153 65.1038 126.424 58.8101 125.403Z" fill="url(#paint3_linear)" stroke="#F94F24" stroke-linecap="round"/>
<path fill-rule="evenodd" clip-rule="evenodd" d="M63.2363 111.884C63.2363 113.326 62.0673 114.494 60.6253 114.494V114.494C59.1834 114.494 58.0144 113.326 58.0144 111.884V109.897C58.0144 108.455 59.1834 107.287 60.6253 107.287V107.287C62.0673 107.287 63.2363 108.455 63.2363 109.897V111.884Z" stroke="white" stroke-linecap="round"/>
<path d="M59.1827 114.031V115.829L56.5163 116.762C56.5163 116.762 55.0248 117.382 55.0248 118.814V120.181" stroke="white" stroke-linecap="round" stroke-linejoin="round"/>
<path d="M62.0677 114.031V115.829L64.7342 116.762C64.7342 116.762 66.2289 117.382 66.2289 118.814V120.181" stroke="white" stroke-linecap="round" stroke-linejoin="round"/>
<path d="M57.4922 110.563C57.4922 110.563 61.0822 110.217 62.7989 108.488" stroke="white" stroke-linecap="round"/>
<path d="M59.186 115.822L60.6286 117.627L62.0679 115.822" stroke="white" stroke-linecap="round"/>
<path fill-rule="evenodd" clip-rule="evenodd" d="M201.073 62.4579C192.631 60.4654 187.402 52.0082 189.394 43.5683C191.386 35.1283 199.845 29.9017 208.287 31.8942C216.729 33.8868 221.958 42.344 219.966 50.7839C217.974 59.2238 209.515 64.4504 201.073 62.4579Z" fill="#F1ECFA"/>
<path fill-rule="evenodd" clip-rule="evenodd" d="M194.026 51.6075C191.587 45.7183 194.384 38.9662 200.273 36.5263C206.162 34.0863 212.913 36.8826 215.352 42.7718C217.791 48.661 214.994 55.4131 209.105 57.853C203.216 60.293 196.465 57.4967 194.026 51.6075Z" fill="url(#paint4_linear)" stroke="#F94F24" stroke-linecap="round"/>
<path fill-rule="evenodd" clip-rule="evenodd" d="M207.295 45.0468C207.295 46.4883 206.126 47.6569 204.684 47.6569V47.6569C203.242 47.6569 202.073 46.4883 202.073 45.0468V43.0565C202.073 41.6149 203.242 40.4463 204.684 40.4463V40.4463C206.126 40.4463 207.295 41.6149 207.295 43.0565V45.0468Z" stroke="white" stroke-linecap="round"/>
<path d="M203.245 47.1841V48.9818L200.578 49.915C200.578 49.915 199.083 50.5382 199.083 51.9673V53.3441" stroke="white" stroke-linecap="round" stroke-linejoin="round"/>
<path d="M206.127 47.1841V48.9818L208.793 49.915C208.793 49.915 210.285 50.5382 210.285 51.9673V53.3441" stroke="white" stroke-linecap="round" stroke-linejoin="round"/>
<path d="M201.548 43.7253C201.548 43.7253 205.138 43.3762 206.855 41.647" stroke="white" stroke-linecap="round"/>
<path d="M203.245 48.9817L204.684 50.786L206.126 48.9817" stroke="white" stroke-linecap="round"/>
<path fill-rule="evenodd" clip-rule="evenodd" d="M193.621 125.143C187.487 119.008 187.487 109.063 193.621 102.929C199.755 96.7946 209.7 96.7946 215.835 102.929C221.969 109.063 221.969 119.008 215.835 125.143C209.7 131.277 199.755 131.277 193.621 125.143Z" fill="#F1ECFA"/>
<path fill-rule="evenodd" clip-rule="evenodd" d="M202.889 125.407C196.595 124.385 192.321 118.458 193.342 112.167C194.364 105.877 200.294 101.606 206.587 102.627C212.881 103.648 217.155 109.576 216.134 115.866C215.112 122.157 209.183 126.428 202.889 125.407Z" fill="url(#paint5_linear)" stroke="#F94F24" stroke-linecap="round"/>
<path fill-rule="evenodd" clip-rule="evenodd" d="M207.295 111.884C207.295 113.326 206.126 114.494 204.684 114.494V114.494C203.242 114.494 202.073 113.326 202.073 111.884V109.897C202.073 108.455 203.242 107.287 204.684 107.287V107.287C206.126 107.287 207.295 108.455 207.295 109.897V111.884Z" stroke="white" stroke-linecap="round"/>
<path d="M203.245 114.031V115.829L200.578 116.762C200.578 116.762 199.083 117.382 199.083 118.814V120.181" stroke="white" stroke-linecap="round" stroke-linejoin="round"/>
<path d="M206.127 114.031V115.829L208.793 116.762C208.793 116.762 210.285 117.382 210.285 118.814V120.181" stroke="white" stroke-linecap="round" stroke-linejoin="round"/>
<path d="M201.548 110.563C201.548 110.563 205.138 110.217 206.855 108.488" stroke="white" stroke-linecap="round"/>
<path d="M203.245 115.822L204.684 117.627L206.126 115.822" stroke="white" stroke-linecap="round"/>
<path fill-rule="evenodd" clip-rule="evenodd" d="M116.943 136.466C116.943 127.793 123.976 120.762 132.652 120.762C141.327 120.762 148.36 127.793 148.36 136.466C148.36 145.138 141.327 152.169 132.652 152.169C123.976 152.169 116.943 145.138 116.943 136.466Z" fill="#F1ECFA"/>
<path fill-rule="evenodd" clip-rule="evenodd" d="M121.108 136.466C121.108 130.092 126.276 124.925 132.651 124.925C139.027 124.925 144.195 130.092 144.195 136.466C144.195 142.839 139.027 148.006 132.651 148.006C126.276 148.006 121.108 142.839 121.108 136.466Z" fill="url(#paint6_linear)" stroke="#F94F24" stroke-linecap="round"/>
<path fill-rule="evenodd" clip-rule="evenodd" d="M135.227 134.325C135.227 135.767 134.058 136.935 132.616 136.935V136.935C131.174 136.935 130.005 135.767 130.005 134.325V132.338C130.005 130.897 131.174 129.728 132.616 129.728V129.728C134.058 129.728 135.227 130.897 135.227 132.338V134.325Z" stroke="white" stroke-linecap="round"/>
<path d="M131.186 136.462V138.26L128.52 139.193C128.52 139.193 127.028 139.816 127.028 141.249V142.616" stroke="white" stroke-linecap="round" stroke-linejoin="round"/>
<path d="M134.068 136.462V138.26L136.734 139.193C136.734 139.193 138.229 139.816 138.229 141.249V142.616" stroke="white" stroke-linecap="round" stroke-linejoin="round"/>
<path d="M129.489 133.004C129.489 133.004 133.079 132.655 134.799 130.929" stroke="white" stroke-linecap="round"/>
<path d="M131.186 138.26L132.629 140.065L134.068 138.26" stroke="white" stroke-linecap="round"/>
<path fill-rule="evenodd" clip-rule="evenodd" d="M132.146 39.1675C132.845 39.1675 133.476 38.7462 133.744 38.1C134.011 37.4539 133.863 36.7101 133.369 36.2155C132.874 35.721 132.13 35.573 131.484 35.8407C130.837 36.1083 130.416 36.7389 130.416 37.4383C130.415 37.8972 130.597 38.3375 130.922 38.662C131.246 38.9865 131.687 39.1684 132.146 39.1675Z" fill="white" stroke="#F94F24" stroke-linecap="round"/>
<path fill-rule="evenodd" clip-rule="evenodd" d="M132.146 52.587C132.846 52.587 133.476 52.1653 133.744 51.5187C134.012 50.8721 133.863 50.1281 133.368 49.6338C132.872 49.1395 132.128 48.9924 131.481 49.261C130.835 49.5297 130.415 50.1613 130.416 50.861C130.416 51.3193 130.598 51.7588 130.923 52.0826C131.247 52.4064 131.687 52.5878 132.146 52.587Z" fill="white" stroke="#F94F24" stroke-linecap="round"/>
<path fill-rule="evenodd" clip-rule="evenodd" d="M74.5808 55.7388C75.5361 55.7388 76.3106 54.9646 76.3106 54.0095C76.3106 53.0545 75.5361 52.2803 74.5808 52.2803C73.6255 52.2803 72.8511 53.0545 72.8511 54.0095C72.8502 54.4684 73.0322 54.9088 73.3568 55.2332C73.6813 55.5577 74.1218 55.7396 74.5808 55.7388Z" fill="white" stroke="#F94F24" stroke-linecap="round"/>
<path fill-rule="evenodd" clip-rule="evenodd" d="M95.5369 74.8553C96.49 74.8535 97.2613 74.0799 97.2601 73.1271C97.2589 72.1743 96.4856 71.4027 95.5325 71.4033C94.5794 71.4039 93.8071 72.1765 93.8071 73.1293C93.8071 73.5876 93.9895 74.0271 94.314 74.3509C94.6384 74.6747 95.0784 74.8561 95.5369 74.8553Z" fill="white" stroke="#F94F24" stroke-linecap="round"/>
<path fill-rule="evenodd" clip-rule="evenodd" d="M173.19 72.0103C173.89 72.0116 174.522 71.5908 174.791 70.9443C175.059 70.2979 174.911 69.5533 174.416 69.0583C173.921 68.5633 173.176 68.4156 172.53 68.6841C171.883 68.9526 171.462 69.5843 171.463 70.2843C171.463 71.2376 172.236 72.0103 173.19 72.0103Z" fill="white" stroke="#F94F24" stroke-linecap="round"/>
<path fill-rule="evenodd" clip-rule="evenodd" d="M92.3841 95.3519C93.0843 95.3532 93.7162 94.9324 93.9848 94.2859C94.2534 93.6394 94.1056 92.8948 93.6105 92.3998C93.1153 91.9049 92.3705 91.7571 91.7239 92.0256C91.0772 92.2941 90.6563 92.9259 90.6576 93.6259C90.6576 94.5791 91.4306 95.3519 92.3841 95.3519H92.3841Z" fill="white" stroke="#F94F24" stroke-linecap="round"/>
<path fill-rule="evenodd" clip-rule="evenodd" d="M173.496 95.3519C174.196 95.3519 174.827 94.9302 175.095 94.2836C175.362 93.637 175.214 92.893 174.718 92.3987C174.223 91.9044 173.478 91.7572 172.832 92.0259C172.186 92.2946 171.765 92.9262 171.767 93.6259C171.767 94.0842 171.949 94.5237 172.273 94.8475C172.598 95.1713 173.038 95.3527 173.496 95.3519Z" fill="white" stroke="#F94F24" stroke-linecap="round"/>
<path fill-rule="evenodd" clip-rule="evenodd" d="M74.5808 106.687C75.2804 106.687 75.9112 106.265 76.1789 105.619C76.4466 104.973 76.2987 104.229 75.8039 103.735C75.3092 103.24 74.5652 103.092 73.9189 103.36C73.2725 103.627 72.8511 104.258 72.8511 104.957C72.8511 105.912 73.6255 106.687 74.5808 106.687H74.5808Z" fill="white" stroke="#F94F24" stroke-linecap="round"/>
<path fill-rule="evenodd" clip-rule="evenodd" d="M190.732 55.7388C191.432 55.7388 192.063 55.3175 192.33 54.6713C192.598 54.0252 192.45 53.2814 191.955 52.7868C191.461 52.2922 190.717 52.1443 190.07 52.412C189.424 52.6796 189.002 53.3102 189.002 54.0096C189.002 54.4685 189.184 54.9088 189.508 55.2333C189.833 55.5578 190.273 55.7397 190.732 55.7388Z" fill="white" stroke="#F94F24" stroke-linecap="round"/>
<path fill-rule="evenodd" clip-rule="evenodd" d="M190.732 106.687C191.432 106.687 192.063 106.265 192.33 105.619C192.598 104.973 192.45 104.229 191.955 103.735C191.461 103.24 190.717 103.092 190.07 103.36C189.424 103.627 189.002 104.258 189.002 104.957C189.002 105.912 189.777 106.687 190.732 106.687Z" fill="white" stroke="#F94F24" stroke-linecap="round"/>
<path fill-rule="evenodd" clip-rule="evenodd" d="M132.146 122.488C132.845 122.488 133.476 122.067 133.744 121.42C134.011 120.774 133.863 120.03 133.369 119.536C132.874 119.041 132.13 118.893 131.484 119.161C130.837 119.429 130.416 120.059 130.416 120.759C130.415 121.217 130.597 121.658 130.922 121.982C131.246 122.307 131.687 122.489 132.146 122.488H132.146Z" fill="white" stroke="#F94F24" stroke-linecap="round"/>
<path fill-rule="evenodd" clip-rule="evenodd" d="M132.146 106.687C132.845 106.687 133.476 106.265 133.744 105.619C134.011 104.973 133.863 104.229 133.369 103.735C132.874 103.24 132.13 103.092 131.484 103.36C130.837 103.627 130.416 104.258 130.416 104.957C130.416 105.912 131.19 106.687 132.146 106.687H132.146Z" fill="white" stroke="#F94F24" stroke-linecap="round"/>
</g>
<defs>
<linearGradient id="paint0_linear" x1="170.968" y1="135.825" x2="176.527" y2="76.4471" gradientUnits="userSpaceOnUse">
<stop stop-color="#8033EB"/>
<stop offset="1" stop-color="#A2E1E0"/>
</linearGradient>
<linearGradient id="paint1_linear" x1="122.364" y1="27.0319" x2="145.449" y2="27.0337" gradientUnits="userSpaceOnUse">
<stop stop-color="#8033EB"/>
<stop offset="1" stop-color="#6731CE"/>
</linearGradient>
<linearGradient id="paint2_linear" x1="50.3579" y1="52.4727" x2="73.4415" y2="52.4757" gradientUnits="userSpaceOnUse">
<stop stop-color="#8033EB"/>
<stop offset="1" stop-color="#6731CE"/>
</linearGradient>
<linearGradient id="paint3_linear" x1="28.5707" y1="120.492" x2="51.6567" y2="120.49" gradientUnits="userSpaceOnUse">
<stop stop-color="#8033EB"/>
<stop offset="1" stop-color="#6731CE"/>
</linearGradient>
<linearGradient id="paint4_linear" x1="194.392" y1="52.4818" x2="217.476" y2="52.4822" gradientUnits="userSpaceOnUse">
<stop stop-color="#8033EB"/>
<stop offset="1" stop-color="#6731CE"/>
</linearGradient>
<linearGradient id="paint5_linear" x1="172.645" y1="120.497" x2="195.734" y2="120.495" gradientUnits="userSpaceOnUse">
<stop stop-color="#8033EB"/>
<stop offset="1" stop-color="#6731CE"/>
</linearGradient>
<linearGradient id="paint6_linear" x1="121.111" y1="148.004" x2="144.195" y2="148.004" gradientUnits="userSpaceOnUse">
<stop stop-color="#8033EB"/>
<stop offset="1" stop-color="#6731CE"/>
</linearGradient>
</defs>
</svg>
