<svg xmlns="http://www.w3.org/2000/svg" xmlns:xlink="http://www.w3.org/1999/xlink" viewBox="0 0 800 500"><defs><linearGradient id="a" x1="394.54" y1="266.37" x2="392.89" y2="304.16" gradientUnits="userSpaceOnUse"><stop offset="0" stop-color="#8033eb"/><stop offset="1" stop-color="#6731ce"/></linearGradient></defs><title>Artboard 2 copy 14</title><g style="isolation:isolate"><path d="M334.26,271.53a45.73,45.73,0,1,1-45.73-45.73A45.73,45.73,0,0,1,334.26,271.53Z" style="fill:#f2f2f2"/><path d="M549.39,131.68a59.28,59.28,0,1,1-59.27-59.27A59.28,59.28,0,0,1,549.39,131.68Z" style="fill:#f2f2f2"/><path d="M241.67,337.71h-8.31a51.64,51.64,0,0,0,.43-6H184.88c.3,20.27,11.13,30.92,24.46,30.92a21.91,21.91,0,0,0,15.9-6.54,1.85,1.85,0,0,0,.48.07c17.74,0,17.94-16.28,17.94-16.45A2,2,0,0,0,241.67,337.71ZM228.5,352a32.64,32.64,0,0,0,4.15-10.27h6.83C238.91,344.94,236.73,350.87,228.5,352Z" style="fill:#58bfd9"/><path d="M157.22,359.57c13.14,5.43,31.48,8.81,51.78,8.81s38.64-3.38,51.78-8.81Z" style="fill:#58bfd9"/><path d="M197.89,359.57h22.88l4.47-3.49-39.05-13.69S187.85,353.63,197.89,359.57Z" style="fill:#3cb4d2"/><path d="M202.72,322.7l-2.35-3.14c.35-.27,8.87-7.17-.53-23.61-4.44-7.77-5.88-14.36-4.28-19.58a11,11,0,0,1,5.12-6.6l1.73,3.52-.87-1.76.89,1.75a7.26,7.26,0,0,0-3.16,4.36c-1.19,4.07.19,9.73,4,16.36C214.44,313.59,203.2,322.34,202.72,322.7Z" style="fill:#e5e5e5"/><path d="M220.1,322.7l-2.36-3.14c.36-.27,8.87-7.17-.52-23.61-4.44-7.77-5.89-14.36-4.29-19.58a11.08,11.08,0,0,1,5.13-6.6l1.73,3.52-.87-1.76.89,1.75a7.22,7.22,0,0,0-3.16,4.36c-1.19,4.07.18,9.73,4,16.36C231.82,313.59,220.58,322.34,220.1,322.7Z" style="fill:#e5e5e5"/><rect x="161.57" y="396.7" width="461.72" height="61.53" style="fill:#ddb331"/><path d="M467.13,336.34l-4.38-58.75c0-18.78-15.88-30.53-15.88-30.53l-35.61-20.71-23,1.69v-.14l-16.51-2.09-35.6,20.71S320.26,258.27,320.26,277l-4.38,58.75H382.7v.55Z" style="fill:url(#a)"/><path d="M211.74,213.86a22.2,22.2,0,1,1-22.2-22.2A22.2,22.2,0,0,1,211.74,213.86Z" style="fill:#f2f2f2"/><path d="M631.06,203.83a22.2,22.2,0,1,1-22.2-22.2A22.2,22.2,0,0,1,631.06,203.83Z" style="fill:#f2f2f2"/><path d="M388.37,343.63a.57.57,0,0,1-.57-.56.56.56,0,0,1,.56-.57c1.14,0,2.27,0,3.39-.07a.56.56,0,0,1,.59.55.57.57,0,0,1-.55.58c-1.14,0-2.28.06-3.42.07Zm-2.27,0h0c-1.14,0-2.28,0-3.42-.08a.57.57,0,0,1,0-1.14c1.13,0,2.26.07,3.39.08a.57.57,0,0,1,.57.57A.58.58,0,0,1,386.1,343.63Zm7.94-.16a.58.58,0,0,1-.57-.54.58.58,0,0,1,.54-.6q1.69-.07,3.39-.21a.57.57,0,0,1,.08,1.13c-1.13.09-2.27.16-3.41.22Zm-13.61,0h0c-1.14-.06-2.27-.13-3.41-.22a.58.58,0,0,1-.52-.61.59.59,0,0,1,.61-.53c1.13.09,2.25.17,3.38.23a.57.57,0,0,1,0,1.13Zm19.27-.38a.57.57,0,0,1-.05-1.13c1.13-.11,2.25-.23,3.37-.36a.57.57,0,0,1,.63.49.56.56,0,0,1-.49.63c-1.13.14-2.27.26-3.41.37Zm-24.93,0h-.06c-1.14-.11-2.27-.23-3.4-.37a.57.57,0,0,1,.14-1.13c1.12.14,2.24.26,3.37.37a.58.58,0,0,1,.51.62A.56.56,0,0,1,374.77,343Zm30.57-.61a.57.57,0,0,1-.56-.49.56.56,0,0,1,.48-.64c1.12-.16,2.24-.33,3.35-.51a.59.59,0,0,1,.66.47.57.57,0,0,1-.47.65c-1.12.18-2.25.36-3.38.51Zm-36.21-.07h-.08c-1.13-.16-2.26-.34-3.38-.53a.56.56,0,0,1-.46-.65.58.58,0,0,1,.65-.47c1.11.19,2.23.36,3.35.52a.57.57,0,0,1-.08,1.13Zm41.81-.84a.57.57,0,0,1-.56-.46.57.57,0,0,1,.46-.66c1.11-.21,2.22-.42,3.33-.66a.58.58,0,0,1,.67.44.56.56,0,0,1-.44.67c-1.11.24-2.23.46-3.36.67Zm-47.41-.08h-.1c-1.13-.21-2.25-.43-3.36-.67a.57.57,0,0,1-.43-.68.55.55,0,0,1,.67-.43c1.1.23,2.21.46,3.32.66a.58.58,0,0,1,.46.67A.57.57,0,0,1,363.53,341.42Zm53-1.06a.57.57,0,0,1-.13-1.12c1.11-.26,2.2-.52,3.3-.81a.57.57,0,0,1,.69.41.57.57,0,0,1-.41.69c-1.1.29-2.21.56-3.32.81ZM358,340.25h-.13c-1.12-.26-2.22-.54-3.32-.82a.57.57,0,0,1-.41-.7.56.56,0,0,1,.69-.4c1.1.28,2.19.55,3.29.81a.57.57,0,0,1,.43.68A.56.56,0,0,1,358,340.25ZM422,339a.57.57,0,0,1-.55-.41.58.58,0,0,1,.4-.7c1.09-.3,2.18-.62,3.26-1a.57.57,0,1,1,.33,1.09c-1.09.33-2.19.65-3.29.95A.39.39,0,0,1,422,339Zm-69.52-.12-.15,0c-1.1-.31-2.2-.63-3.29-1a.57.57,0,0,1-.37-.71.56.56,0,0,1,.71-.37c1.08.33,2.16.65,3.25,1a.57.57,0,0,1-.15,1.11Zm75-1.51a.57.57,0,0,1-.18-1.11c1.08-.35,2.15-.71,3.21-1.09a.58.58,0,0,1,.73.35.57.57,0,0,1-.35.72c-1.07.38-2.15.75-3.24,1.1A.51.51,0,0,1,427.44,337.33Zm-80.4-.15-.18,0c-1.09-.36-2.17-.73-3.24-1.12A.57.57,0,1,1,344,335c1.07.38,2.14.75,3.22,1.11a.56.56,0,0,1,.36.71A.57.57,0,0,1,347,337.18Zm85.76-1.72a.58.58,0,0,1-.54-.37.57.57,0,0,1,.34-.73c1.06-.4,2.11-.81,3.16-1.23a.57.57,0,0,1,.74.31.58.58,0,0,1-.32.74c-1.05.43-2.12.84-3.18,1.24A.51.51,0,0,1,432.8,335.46Zm-91.13-.18a.69.69,0,0,1-.2,0c-1.07-.41-2.13-.83-3.19-1.26a.57.57,0,1,1,.43-1.05c1.05.43,2.1.84,3.16,1.25a.56.56,0,0,1,.33.73A.56.56,0,0,1,341.67,335.28Zm96.39-1.93a.59.59,0,0,1-.53-.34.59.59,0,0,1,.3-.75c1-.44,2.07-.89,3.1-1.36a.56.56,0,0,1,.75.28.57.57,0,0,1-.28.75q-1.54.7-3.12,1.38A.57.57,0,0,1,438.06,333.35Zm-101.66-.2a.59.59,0,0,1-.23,0c-1.05-.45-2.09-.92-3.13-1.4a.57.57,0,1,1,.48-1c1,.48,2.06.94,3.1,1.39a.57.57,0,0,1,.3.74A.57.57,0,0,1,336.4,333.15ZM443.21,331a.57.57,0,0,1-.51-.32.56.56,0,0,1,.27-.76l3-1.5a.57.57,0,0,1,.51,1c-1,.52-2,1-3.05,1.51A.57.57,0,0,1,443.21,331Zm-112-.24a.57.57,0,0,1-.25-.06c-1-.49-2.05-1-3.06-1.53a.58.58,0,0,1-.25-.77.58.58,0,0,1,.77-.24c1,.52,2,1,3,1.52a.57.57,0,0,1-.25,1.08Zm117-2.32a.57.57,0,0,1-.5-.3.57.57,0,0,1,.23-.77c1-.53,2-1.07,3-1.63a.56.56,0,0,1,.77.21.58.58,0,0,1-.21.78c-1,.56-2,1.11-3,1.65A.66.66,0,0,1,448.26,328.46Zm-122.1-.27a.52.52,0,0,1-.27-.07c-1-.54-2-1.1-3-1.67a.57.57,0,1,1,.57-1q1.47.84,3,1.65a.57.57,0,0,1,.23.77A.58.58,0,0,1,326.16,328.19Zm127-2.5a.55.55,0,0,1-.49-.28.57.57,0,0,1,.2-.78c1-.57,1.93-1.16,2.89-1.76a.56.56,0,0,1,.78.18.57.57,0,0,1-.18.78c-1,.61-1.94,1.2-2.92,1.78A.6.6,0,0,1,453.2,325.69Zm-132-.31a.67.67,0,0,1-.29-.08q-1.47-.89-2.91-1.8a.56.56,0,0,1-.18-.78.57.57,0,0,1,.79-.18c.95.61,1.92,1.2,2.89,1.78a.57.57,0,0,1,.19.78A.55.55,0,0,1,321.21,325.38ZM458,322.69a.58.58,0,0,1-.48-.25.57.57,0,0,1,.17-.79c.94-.62,1.88-1.24,2.8-1.89a.57.57,0,0,1,.65.94c-.94.64-1.88,1.28-2.83,1.9A.53.53,0,0,1,458,322.69Zm-141.61-.34a.61.61,0,0,1-.31-.09c-.95-.63-1.9-1.27-2.83-1.92a.57.57,0,1,1,.65-.93c.92.64,1.86,1.28,2.81,1.9a.57.57,0,0,1-.32,1Zm146.28-2.86a.58.58,0,0,1-.46-.23.58.58,0,0,1,.13-.8c.92-.65,1.83-1.32,2.73-2a.56.56,0,0,1,.79.1.57.57,0,0,1-.11.8c-.9.69-1.82,1.36-2.75,2A.56.56,0,0,1,462.68,319.49Zm-150.95-.37a.57.57,0,0,1-.33-.11c-.93-.67-1.84-1.35-2.75-2a.57.57,0,0,1-.1-.8.56.56,0,0,1,.79-.1c.9.68,1.81,1.36,2.72,2a.58.58,0,0,1,.13.8A.56.56,0,0,1,311.73,319.12Zm155.48-3a.57.57,0,0,1-.44-.22.58.58,0,0,1,.09-.8c.89-.69,1.77-1.4,2.64-2.12a.57.57,0,1,1,.73.87c-.88.73-1.77,1.44-2.66,2.15A.6.6,0,0,1,467.21,316.09Zm-160-.4a.54.54,0,0,1-.35-.13c-.89-.7-1.77-1.43-2.65-2.16a.57.57,0,0,1,.73-.87c.87.73,1.74,1.44,2.63,2.15a.57.57,0,0,1,.09.79A.58.58,0,0,1,307.2,315.69Zm164.4-3.2a.57.57,0,0,1-.37-1c.86-.74,1.7-1.48,2.54-2.24a.57.57,0,0,1,.76.84c-.84.77-1.7,1.52-2.56,2.26A.59.59,0,0,1,471.6,312.49Zm-168.76-.43a.59.59,0,0,1-.38-.14c-.86-.75-1.71-1.5-2.55-2.27a.58.58,0,0,1,0-.81.57.57,0,0,1,.8,0c.84.76,1.68,1.51,2.54,2.25a.58.58,0,0,1,.05.81A.59.59,0,0,1,302.84,312.06Zm173-3.36a.57.57,0,0,1-.39-1c.83-.77,1.64-1.56,2.44-2.35a.57.57,0,1,1,.8.81q-1.21,1.2-2.46,2.37A.58.58,0,0,1,475.82,308.7Zm-177.19-.45a.54.54,0,0,1-.39-.16c-.83-.78-1.65-1.58-2.45-2.38a.56.56,0,0,1,0-.81.57.57,0,0,1,.8,0q1.2,1.2,2.43,2.37a.57.57,0,0,1-.39,1Zm181.24-3.52a.54.54,0,0,1-.39-.16.56.56,0,0,1,0-.8q1.18-1.22,2.34-2.46a.57.57,0,1,1,.83.77c-.78.84-1.56,1.66-2.36,2.48A.58.58,0,0,1,479.87,304.73Zm-185.27-.47a.55.55,0,0,1-.41-.18c-.79-.82-1.58-1.65-2.35-2.49a.57.57,0,0,1,0-.8.56.56,0,0,1,.8,0c.76.83,1.54,1.65,2.32,2.46a.57.57,0,0,1,0,.81A.59.59,0,0,1,294.6,304.26Zm189.15-3.67a.57.57,0,0,1-.42-.95c.75-.84,1.5-1.69,2.23-2.56a.57.57,0,0,1,.8-.06.56.56,0,0,1,.06.8q-1.11,1.31-2.25,2.58A.57.57,0,0,1,483.75,300.59Zm-193-.5a.54.54,0,0,1-.42-.19c-.76-.85-1.5-1.71-2.24-2.59a.57.57,0,1,1,.87-.73c.73.87,1.47,1.73,2.22,2.57a.58.58,0,0,1-.05.8A.54.54,0,0,1,290.74,300.09Zm196.7-3.82a.57.57,0,0,1-.36-.13.56.56,0,0,1-.07-.79c.71-.88,1.42-1.76,2.11-2.66a.58.58,0,0,1,.8-.1.57.57,0,0,1,.1.8c-.7.9-1.41,1.79-2.14,2.67A.55.55,0,0,1,487.44,296.27Zm-200.37-.5a.56.56,0,0,1-.44-.21c-.72-.89-1.42-1.78-2.12-2.68a.57.57,0,0,1,.11-.8.56.56,0,0,1,.79.11c.69.89,1.39,1.78,2.1,2.65a.57.57,0,0,1-.08.8A.53.53,0,0,1,287.07,295.77Zm203.88-4a.6.6,0,0,1-.34-.11.58.58,0,0,1-.12-.8c.68-.9,1.35-1.81,2-2.74a.57.57,0,0,1,.79-.13.56.56,0,0,1,.14.79c-.66.93-1.33,1.85-2,2.77A.58.58,0,0,1,491,291.8Zm-207.35-.51a.56.56,0,0,1-.46-.23c-.68-.92-1.34-1.84-2-2.77a.57.57,0,0,1,.14-.79.56.56,0,0,1,.79.14c.65.92,1.31,1.84,2,2.74a.57.57,0,0,1-.11.8A.62.62,0,0,1,283.6,291.29Zm210.65-4.11a.55.55,0,0,1-.32-.1.57.57,0,0,1-.15-.79c.64-.93,1.27-1.87,1.88-2.83a.57.57,0,0,1,1,.62c-.62,1-1.25,1.91-1.9,2.85A.57.57,0,0,1,494.25,287.18Zm-213.93-.52a.57.57,0,0,1-.47-.25c-.63-.94-1.26-1.89-1.87-2.85a.58.58,0,0,1,.17-.79.57.57,0,0,1,.79.18c.6.95,1.22,1.89,1.85,2.83a.57.57,0,0,1-.15.79A.62.62,0,0,1,280.32,286.66Zm217-4.24a.57.57,0,0,1-.48-.87c.6-1,1.18-1.93,1.75-2.91a.57.57,0,0,1,.78-.2.56.56,0,0,1,.2.77c-.57,1-1.16,2-1.76,2.94A.59.59,0,0,1,497.35,282.42Zm-220.09-.52a.59.59,0,0,1-.49-.27c-.59-1-1.18-1.95-1.74-2.94a.56.56,0,0,1,.2-.77.57.57,0,0,1,.78.21c.56,1,1.14,1.94,1.73,2.9a.57.57,0,0,1-.19.78A.52.52,0,0,1,277.26,281.9Zm223-4.38a.58.58,0,0,1-.28-.07.56.56,0,0,1-.21-.77c.55-1,1.09-2,1.62-3a.58.58,0,0,1,.77-.24.57.57,0,0,1,.23.77c-.53,1-1.08,2-1.63,3A.57.57,0,0,1,500.24,277.52ZM274.4,277a.59.59,0,0,1-.5-.29c-.55-1-1.09-2-1.61-3a.56.56,0,0,1,1-.52c.53,1,1.06,2,1.61,3a.57.57,0,0,1-.22.77A.58.58,0,0,1,274.4,277Zm228.51-4.51a.57.57,0,0,1-.25-.06.56.56,0,0,1-.25-.76c.51-1,1-2,1.49-3.06a.57.57,0,1,1,1,.49c-.48,1-1,2.06-1.5,3.08A.56.56,0,0,1,502.91,272.5ZM271.76,272a.57.57,0,0,1-.5-.32c-.51-1-1-2-1.49-3.07a.57.57,0,0,1,1-.48c.48,1,1,2,1.47,3.05a.56.56,0,0,1-.25.76A.58.58,0,0,1,271.76,272Zm233.6-4.64a.46.46,0,0,1-.23-.05.56.56,0,0,1-.29-.75c.47-1,.92-2.07,1.36-3.11a.56.56,0,1,1,1,.43c-.44,1.06-.89,2.11-1.36,3.15A.57.57,0,0,1,505.36,267.36Zm-236-.48a.58.58,0,0,1-.52-.34c-.46-1-.91-2.08-1.34-3.13a.57.57,0,1,1,1.05-.43c.43,1,.87,2.07,1.33,3.1a.56.56,0,0,1-.29.75A.59.59,0,0,1,269.35,266.88Zm238.23-4.76a.52.52,0,0,1-.21,0,.57.57,0,0,1-.32-.73c.42-1.06.83-2.12,1.22-3.18a.55.55,0,0,1,.72-.34.57.57,0,0,1,.34.73c-.39,1.07-.8,2.14-1.22,3.2A.56.56,0,0,1,507.58,262.12Zm-240.42-.46a.56.56,0,0,1-.52-.36c-.42-1.06-.82-2.13-1.21-3.21a.56.56,0,1,1,1.06-.38c.39,1.06.79,2.12,1.2,3.17a.57.57,0,0,1-.32.74A.78.78,0,0,1,267.16,261.66Zm242.4-4.87a.39.39,0,0,1-.18,0A.56.56,0,0,1,509,256c.37-1.07.73-2.14,1.07-3.23a.57.57,0,1,1,1.08.35c-.34,1.09-.7,2.18-1.08,3.25A.57.57,0,0,1,509.56,256.79Zm-244.35-.46a.57.57,0,0,1-.54-.39c-.37-1.07-.72-2.16-1.07-3.25A.58.58,0,0,1,264,252a.57.57,0,0,1,.72.37c.34,1.08.69,2.16,1.05,3.23a.57.57,0,0,1-.35.72Zm246.1-5-.16,0a.59.59,0,0,1-.39-.71c.33-1.08.63-2.17.93-3.26a.56.56,0,0,1,.69-.4.57.57,0,0,1,.41.7c-.3,1.1-.61,2.2-.94,3.29A.57.57,0,0,1,511.31,251.37Zm-247.82-.45a.57.57,0,0,1-.55-.41c-.32-1.09-.63-2.19-.92-3.29a.57.57,0,1,1,1.1-.29c.29,1.09.59,2.18.91,3.26a.57.57,0,0,1-.38.71Zm249.32-5-.14,0a.56.56,0,0,1-.41-.69q.4-1.63.78-3.3a.57.57,0,0,1,.67-.43.58.58,0,0,1,.44.68c-.25,1.11-.51,2.22-.79,3.33A.57.57,0,0,1,512.81,245.9ZM262,245.44a.56.56,0,0,1-.55-.43c-.28-1.11-.53-2.22-.78-3.33a.58.58,0,0,1,.44-.68.57.57,0,0,1,.67.43c.24,1.11.5,2.21.77,3.31a.56.56,0,0,1-.42.68Zm252.06-5.08H514a.56.56,0,0,1-.44-.67c.22-1.1.44-2.21.63-3.33a.57.57,0,1,1,1.12.2c-.2,1.12-.41,2.24-.64,3.36A.56.56,0,0,1,514.07,240.36Zm-253.3-.46a.58.58,0,0,1-.56-.46c-.22-1.11-.43-2.23-.62-3.36a.57.57,0,0,1,.46-.66.59.59,0,0,1,.66.47c.19,1.11.4,2.22.62,3.33a.57.57,0,0,1-.45.67Zm254.31-5.12H515a.57.57,0,0,1-.48-.65c.18-1.11.34-2.23.49-3.35a.56.56,0,0,1,.64-.49.55.55,0,0,1,.48.63c-.14,1.14-.31,2.26-.49,3.39A.56.56,0,0,1,515.08,234.78Zm-255.3-.47a.56.56,0,0,1-.56-.48q-.25-1.68-.48-3.39a.56.56,0,0,1,.49-.63.57.57,0,0,1,.64.49c.14,1.12.3,2.24.47,3.36a.55.55,0,0,1-.47.64Zm256.06-5.16h-.07a.57.57,0,0,1-.5-.63c.13-1.12.24-2.24.34-3.37a.59.59,0,0,1,.62-.52.57.57,0,0,1,.51.62c-.1,1.14-.21,2.27-.34,3.4A.56.56,0,0,1,515.84,229.15ZM259,228.68a.57.57,0,0,1-.57-.5c-.12-1.13-.23-2.27-.33-3.41a.58.58,0,0,1,.52-.61.6.6,0,0,1,.62.52c.09,1.13.2,2.25.32,3.37a.56.56,0,0,1-.5.63Zm257.32-5.18h-.05a.56.56,0,0,1-.52-.61c.08-1.12.14-2.25.19-3.38a.54.54,0,0,1,.59-.54.56.56,0,0,1,.54.59c-.05,1.14-.11,2.28-.19,3.41A.57.57,0,0,1,516.36,223.5ZM258.54,223a.57.57,0,0,1-.56-.53q-.12-1.69-.18-3.42a.56.56,0,0,1,.54-.58h0a.56.56,0,0,1,.57.54q.07,1.69.18,3.39a.57.57,0,0,1-.53.6Zm258.08-5.2h0a.56.56,0,0,1-.55-.58c0-1.13,0-2.26,0-3.39v-.2a.56.56,0,0,1,.57-.57.57.57,0,0,1,.57.57v.2c0,1.14,0,2.28,0,3.42A.57.57,0,0,1,516.62,217.83Zm-258.33-.46a.57.57,0,0,1-.56-.56c0-1,0-2,0-2.95v-.47a.57.57,0,0,1,.57-.56h0a.56.56,0,0,1,.56.57v.46c0,1,0,1.95,0,2.93a.57.57,0,0,1-.55.58ZM516.65,212a.57.57,0,0,1-.57-.56c0-1.14-.06-2.27-.11-3.39a.57.57,0,0,1,.54-.59.55.55,0,0,1,.59.54c.06,1.13.09,2.27.11,3.42a.57.57,0,0,1-.55.58Zm-258.36-.27h0a.57.57,0,0,1-.56-.58c0-1.14.06-2.28.12-3.42a.56.56,0,0,1,.59-.54.57.57,0,0,1,.54.6c-.05,1.12-.09,2.25-.11,3.38A.57.57,0,0,1,258.29,211.69Zm258.12-5.4a.58.58,0,0,1-.56-.54c-.07-1.13-.16-2.26-.26-3.38a.57.57,0,0,1,.52-.61.56.56,0,0,1,.61.51c.1,1.13.19,2.27.26,3.41a.56.56,0,0,1-.53.6ZM258.53,206h0a.57.57,0,0,1-.53-.6c.08-1.14.17-2.28.27-3.41a.58.58,0,0,1,.61-.52.57.57,0,0,1,.52.62c-.1,1.12-.19,2.25-.26,3.38A.57.57,0,0,1,258.53,206Zm257.41-5.39a.56.56,0,0,1-.56-.51c-.12-1.13-.26-2.25-.41-3.37a.56.56,0,0,1,.49-.63.57.57,0,0,1,.64.48c.15,1.13.28,2.27.4,3.4a.57.57,0,0,1-.5.63ZM259,200.36H259a.57.57,0,0,1-.51-.62c.13-1.14.26-2.27.42-3.4a.57.57,0,1,1,1.12.15c-.15,1.12-.29,2.24-.41,3.37A.56.56,0,0,1,259,200.36ZM515.22,195a.56.56,0,0,1-.56-.48c-.17-1.12-.36-2.24-.55-3.35a.57.57,0,0,1,.46-.66.56.56,0,0,1,.65.46c.2,1.12.39,2.25.56,3.38a.56.56,0,0,1-.48.64Zm-255.47-.26h-.08a.57.57,0,0,1-.48-.65c.17-1.13.36-2.25.56-3.37a.58.58,0,0,1,.66-.46.57.57,0,0,1,.46.66c-.2,1.11-.39,2.22-.56,3.34A.56.56,0,0,1,259.75,194.74Zm254.5-5.33a.57.57,0,0,1-.56-.46c-.22-1.11-.45-2.22-.7-3.32a.57.57,0,0,1,1.11-.25c.25,1.11.48,2.23.7,3.35a.58.58,0,0,1-.44.67Zm-253.52-.26h-.11a.58.58,0,0,1-.44-.67c.22-1.12.46-2.24.71-3.35a.58.58,0,0,1,.68-.43.57.57,0,0,1,.42.68c-.24,1.1-.48,2.21-.7,3.32A.57.57,0,0,1,260.73,189.15ZM513,183.86a.57.57,0,0,1-.55-.43c-.27-1.1-.55-2.19-.84-3.28a.56.56,0,0,1,.4-.7.57.57,0,0,1,.69.4c.3,1.1.58,2.2.85,3.31a.57.57,0,0,1-.42.69ZM262,183.61l-.13,0a.57.57,0,0,1-.42-.69c.27-1.11.56-2.21.86-3.31a.56.56,0,0,1,.69-.4.57.57,0,0,1,.4.7c-.3,1.09-.58,2.18-.85,3.28A.57.57,0,0,1,262,183.61Zm249.61-5.23A.56.56,0,0,1,511,178q-.48-1.64-1-3.24a.57.57,0,0,1,.37-.72.57.57,0,0,1,.71.37c.35,1.08.68,2.18,1,3.27a.59.59,0,0,1-.39.71Zm-248.14-.26a.47.47,0,0,1-.16,0,.56.56,0,0,1-.38-.7c.32-1.1.65-2.19,1-3.28a.58.58,0,0,1,.71-.36.56.56,0,0,1,.37.71c-.34,1.08-.68,2.16-1,3.24A.58.58,0,0,1,263.43,178.12ZM509.87,173a.57.57,0,0,1-.54-.38c-.36-1.07-.74-2.14-1.13-3.2a.58.58,0,0,1,.34-.73.57.57,0,0,1,.73.34c.39,1.07.77,2.14,1.14,3.22a.57.57,0,0,1-.36.72Zm-244.72-.26a.63.63,0,0,1-.19,0,.57.57,0,0,1-.35-.72c.37-1.08.75-2.16,1.15-3.23a.57.57,0,0,1,.73-.34.59.59,0,0,1,.34.74c-.4,1.06-.78,2.13-1.15,3.2A.57.57,0,0,1,265.15,172.7Zm242.78-5.07a.57.57,0,0,1-.53-.36c-.41-1.05-.83-2.1-1.26-3.13a.57.57,0,0,1,.3-.75.57.57,0,0,1,.74.31c.44,1,.87,2.1,1.28,3.16a.57.57,0,0,1-.32.73A.52.52,0,0,1,507.93,167.63Zm-240.83-.27a.65.65,0,0,1-.2,0,.57.57,0,0,1-.32-.74q.62-1.59,1.29-3.18a.57.57,0,0,1,.74-.3.56.56,0,0,1,.3.75c-.44,1-.87,2.09-1.28,3.15A.57.57,0,0,1,267.1,167.36Zm238.67-5a.57.57,0,0,1-.52-.34c-.46-1-.92-2.06-1.41-3.08a.57.57,0,0,1,1-.48c.49,1,1,2.06,1.42,3.1a.58.58,0,0,1-.29.75A.68.68,0,0,1,505.77,162.41ZM269.3,162.1a.46.46,0,0,1-.23,0,.56.56,0,0,1-.29-.75c.46-1,.94-2.08,1.43-3.11a.57.57,0,0,1,.75-.27.56.56,0,0,1,.27.76c-.48,1-1,2-1.42,3.09A.55.55,0,0,1,269.3,162.1Zm234.08-4.82a.57.57,0,0,1-.51-.32c-.5-1-1-2-1.54-3a.57.57,0,1,1,1-.53c.53,1,1.05,2,1.55,3a.56.56,0,0,1-.25.76A.57.57,0,0,1,503.38,157.28ZM271.72,157a.58.58,0,0,1-.26-.06.56.56,0,0,1-.25-.76c.51-1,1-2,1.57-3a.56.56,0,0,1,.76-.23.58.58,0,0,1,.24.77c-.53,1-1,2-1.56,3A.56.56,0,0,1,271.72,157Zm229-4.69a.58.58,0,0,1-.5-.29c-.55-1-1.1-2-1.67-2.95a.56.56,0,0,1,.2-.77.57.57,0,0,1,.78.2q.85,1.47,1.68,3a.57.57,0,0,1-.22.77A.54.54,0,0,1,500.76,152.26Zm-226.4-.34a.52.52,0,0,1-.27-.07.55.55,0,0,1-.22-.77c.55-1,1.12-2,1.69-3a.57.57,0,0,1,1,.58c-.57,1-1.13,2-1.68,2.95A.59.59,0,0,1,274.36,151.92Zm223.56-4.56a.59.59,0,0,1-.49-.27c-.58-1-1.18-1.92-1.79-2.87a.57.57,0,1,1,.95-.62c.62,1,1.22,1.92,1.81,2.9a.56.56,0,0,1-.19.78A.6.6,0,0,1,497.92,147.36ZM277.22,147a.52.52,0,0,1-.29-.09.57.57,0,0,1-.19-.78c.6-1,1.21-1.93,1.83-2.89a.57.57,0,1,1,.95.62c-.62.94-1.22,1.9-1.81,2.87A.59.59,0,0,1,277.22,147Zm217.65-4.43a.53.53,0,0,1-.47-.25c-.63-.93-1.27-1.86-1.93-2.79a.57.57,0,0,1,.93-.65c.66.93,1.3,1.86,1.94,2.81a.58.58,0,0,1-.16.79A.56.56,0,0,1,494.87,142.58Zm-214.57-.35a.55.55,0,0,1-.32-.1.56.56,0,0,1-.15-.79c.64-.94,1.29-1.88,1.95-2.81a.57.57,0,0,1,.93.66c-.66.92-1.31,1.85-1.94,2.79A.57.57,0,0,1,280.3,142.23ZM491.61,138a.56.56,0,0,1-.46-.24q-1-1.36-2-2.7a.56.56,0,0,1,.1-.79.57.57,0,0,1,.8.1c.69.9,1.38,1.8,2.06,2.72a.58.58,0,0,1-.12.8A.6.6,0,0,1,491.61,138Zm-208-.36a.62.62,0,0,1-.34-.11.57.57,0,0,1-.11-.8c.68-.91,1.37-1.82,2.07-2.72a.57.57,0,1,1,.89.7c-.69.89-1.38,1.79-2,2.7A.58.58,0,0,1,283.58,137.59Zm204.57-4.14a.56.56,0,0,1-.44-.21q-1.06-1.32-2.16-2.61a.57.57,0,0,1,.07-.8.56.56,0,0,1,.79.07c.74.86,1.47,1.74,2.18,2.63a.57.57,0,0,1-.08.8A.6.6,0,0,1,488.15,133.45Zm-201.09-.35a.57.57,0,0,1-.36-.13.56.56,0,0,1-.08-.79c.72-.89,1.45-1.77,2.19-2.63a.57.57,0,1,1,.86.74c-.73.85-1.45,1.72-2.17,2.6A.55.55,0,0,1,287.06,133.1Zm197.44-4a.57.57,0,0,1-.43-.19c-.74-.85-1.5-1.68-2.27-2.51a.57.57,0,0,1,0-.8.56.56,0,0,1,.8,0c.78.83,1.54,1.68,2.3,2.53a.58.58,0,0,1-.05.8A.56.56,0,0,1,484.5,129.11Zm-193.77-.34a.59.59,0,0,1-.37-.14.56.56,0,0,1-.05-.8c.76-.86,1.52-1.7,2.3-2.53a.57.57,0,0,1,.8,0,.56.56,0,0,1,0,.8c-.77.83-1.53,1.66-2.28,2.51A.56.56,0,0,1,290.73,128.77Zm189.93-3.83a.55.55,0,0,1-.41-.18c-.78-.81-1.58-1.62-2.38-2.41a.57.57,0,0,1,0-.8.56.56,0,0,1,.8,0c.81.8,1.61,1.62,2.4,2.44a.56.56,0,0,1,0,.8A.54.54,0,0,1,480.66,124.94Zm-186.07-.33a.59.59,0,0,1-.39-.16.57.57,0,0,1,0-.81c.8-.81,1.6-1.62,2.41-2.42a.57.57,0,1,1,.8.81c-.81.79-1.61,1.59-2.39,2.4A.55.55,0,0,1,294.59,124.61Zm182.05-3.68a.58.58,0,0,1-.39-.15q-1.23-1.17-2.49-2.31a.57.57,0,1,1,.77-.84c.84.76,1.68,1.54,2.5,2.33a.56.56,0,0,1,0,.8A.54.54,0,0,1,476.64,120.93Zm-178-.32a.58.58,0,0,1-.41-.17.59.59,0,0,1,0-.81q1.25-1.17,2.52-2.31a.56.56,0,0,1,.8,0,.57.57,0,0,1,0,.8c-.85.76-1.68,1.52-2.5,2.3A.58.58,0,0,1,298.62,120.61Zm173.83-3.5a.55.55,0,0,1-.38-.15q-1.27-1.11-2.58-2.19a.58.58,0,0,1-.08-.8.57.57,0,0,1,.8-.08q1.32,1.1,2.61,2.22a.57.57,0,0,1-.37,1Zm-169.62-.31a.56.56,0,0,1-.43-.19.57.57,0,0,1,.05-.8c.87-.75,1.74-1.48,2.62-2.21a.57.57,0,0,1,.8.08.58.58,0,0,1-.08.8c-.88.72-1.74,1.44-2.59,2.19A.58.58,0,0,1,302.83,116.8Zm165.26-3.34a.57.57,0,0,1-.35-.12c-.89-.71-1.78-1.4-2.68-2.09a.56.56,0,0,1,.68-.9c.91.69,1.81,1.39,2.71,2.1a.57.57,0,0,1,.08.8A.55.55,0,0,1,468.09,113.46Zm-160.9-.28a.55.55,0,0,1-.44-.21.56.56,0,0,1,.09-.8c.89-.71,1.79-1.41,2.7-2.09a.57.57,0,0,1,.8.11.58.58,0,0,1-.12.8c-.9.68-1.79,1.37-2.68,2.07A.57.57,0,0,1,307.19,113.18ZM463.58,110a.55.55,0,0,1-.34-.11c-.91-.66-1.83-1.32-2.76-2a.57.57,0,0,1-.15-.79.57.57,0,0,1,.79-.15c.94.65,1.87,1.32,2.79,2a.56.56,0,0,1,.13.79A.58.58,0,0,1,463.58,110Zm-151.87-.26a.57.57,0,0,1-.34-1c.92-.67,1.85-1.33,2.79-2a.57.57,0,0,1,.65.93c-.93.64-1.86,1.29-2.77,2A.58.58,0,0,1,311.71,109.75Zm147.21-3a.62.62,0,0,1-.32-.09c-.94-.63-1.89-1.24-2.85-1.84a.59.59,0,0,1-.18-.79.58.58,0,0,1,.79-.17c1,.6,1.92,1.22,2.87,1.85a.57.57,0,0,1-.31,1Zm-142.55-.23a.57.57,0,0,1-.32-1c.95-.63,1.91-1.24,2.88-1.85a.56.56,0,0,1,.78.19.57.57,0,0,1-.18.78c-1,.6-1.91,1.2-2.85,1.83A.61.61,0,0,1,316.37,106.53Zm137.75-2.81a.67.67,0,0,1-.3-.08c-1-.59-1.94-1.16-2.93-1.72a.56.56,0,1,1,.56-1c1,.56,2,1.14,3,1.73a.57.57,0,0,1-.29,1Zm-133-.21a.59.59,0,0,1-.49-.27.57.57,0,0,1,.2-.78c1-.59,2-1.16,2.95-1.72a.57.57,0,0,1,.77.22.56.56,0,0,1-.21.77c-1,.56-2,1.12-2.93,1.7A.51.51,0,0,1,321.16,103.51Zm128-2.62a.54.54,0,0,1-.27-.07c-1-.54-2-1.07-3-1.58a.57.57,0,1,1,.51-1c1,.52,2,1,3,1.6a.57.57,0,0,1,.22.77A.56.56,0,0,1,449.18,100.89Zm-123.1-.18a.57.57,0,0,1-.5-.3.57.57,0,0,1,.23-.77c1-.54,2-1.07,3-1.58a.58.58,0,0,1,.77.25.56.56,0,0,1-.25.76c-1,.51-2,1-3,1.57A.52.52,0,0,1,326.08,100.71Zm118.05-2.43a.57.57,0,0,1-.25-.06c-1-.49-2-1-3.07-1.45a.56.56,0,0,1-.28-.75.57.57,0,0,1,.75-.28c1,.47,2.08,1,3.1,1.47a.56.56,0,0,1-.25,1.07Zm-113-.15a.57.57,0,0,1-.51-.32.56.56,0,0,1,.26-.76c1-.5,2.05-1,3.09-1.45a.57.57,0,0,1,.47,1q-1.55.7-3.06,1.44A.57.57,0,0,1,331.12,98.13ZM439,95.9a.59.59,0,0,1-.23-.05c-1-.45-2.08-.89-3.14-1.31a.57.57,0,0,1,.43-1.06c1.06.43,2.11.87,3.16,1.33a.57.57,0,0,1,.3.75A.59.59,0,0,1,439,95.9Zm-102.71-.13a.57.57,0,0,1-.52-.34.57.57,0,0,1,.3-.75c1-.45,2.09-.89,3.14-1.31a.57.57,0,1,1,.43,1c-1.05.42-2.09.85-3.12,1.3A.64.64,0,0,1,336.26,95.77Zm97.44-2a.52.52,0,0,1-.21,0c-1.05-.4-2.12-.79-3.19-1.17a.58.58,0,0,1-.35-.73.57.57,0,0,1,.73-.34c1.08.38,2.15.78,3.22,1.18a.57.57,0,0,1-.2,1.1Zm-92.19-.1a.57.57,0,0,1-.2-1.1q1.59-.62,3.21-1.17a.56.56,0,0,1,.72.34.57.57,0,0,1-.34.73c-1.07.37-2.13.76-3.19,1.16A.71.71,0,0,1,341.51,93.64Zm86.82-1.82a.57.57,0,0,1-.18,0c-1.07-.35-2.15-.7-3.24-1a.57.57,0,0,1,.33-1.09q1.65.51,3.27,1a.56.56,0,0,1,.36.71A.57.57,0,0,1,428.33,91.82Zm-81.47-.09a.56.56,0,0,1-.18-1.1c1.08-.36,2.17-.7,3.26-1a.57.57,0,0,1,.71.38.56.56,0,0,1-.38.7c-1.09.33-2.16.67-3.23,1A.58.58,0,0,1,346.86,91.73Zm76-1.59a.39.39,0,0,1-.15,0c-1.09-.31-2.18-.6-3.28-.88a.57.57,0,0,1-.41-.69.58.58,0,0,1,.69-.41c1.11.28,2.21.58,3.31.89a.57.57,0,0,1,.39.7A.57.57,0,0,1,422.9,90.14Zm-70.62-.07a.57.57,0,0,1-.15-1.11c1.09-.31,2.2-.61,3.3-.89a.57.57,0,0,1,.69.41.56.56,0,0,1-.41.69c-1.09.28-2.19.57-3.27.88Zm65.13-1.36h-.13c-1.1-.26-2.2-.51-3.31-.74a.57.57,0,1,1,.23-1.11c1.12.23,2.23.48,3.34.74a.58.58,0,0,1,.42.69A.56.56,0,0,1,417.41,88.71Zm-59.63-.06a.57.57,0,0,1-.13-1.12c1.11-.26,2.22-.51,3.34-.74a.57.57,0,0,1,.23,1.11c-1.11.23-2.21.48-3.31.74Zm54.08-1.13h-.11c-1.11-.21-2.22-.41-3.34-.59a.57.57,0,0,1-.47-.65.58.58,0,0,1,.66-.47c1.12.19,2.25.38,3.36.6a.56.56,0,0,1-.1,1.12Zm-48.53,0a.57.57,0,0,1-.1-1.13c1.11-.21,2.24-.41,3.36-.59a.58.58,0,0,1,.66.47.57.57,0,0,1-.47.65c-1.12.18-2.24.38-3.34.59Zm42.93-.9h-.08q-1.68-.26-3.36-.45a.56.56,0,0,1-.5-.63A.58.58,0,0,1,403,85q1.71.21,3.39.45a.57.57,0,0,1,.48.65A.56.56,0,0,1,406.26,86.58Zm-37.33,0a.56.56,0,0,1-.08-1.12c1.12-.17,2.25-.31,3.39-.45a.57.57,0,0,1,.13,1.13c-1.12.13-2.24.28-3.36.44Zm31.7-.65h-.06c-1.12-.11-2.25-.21-3.38-.29a.57.57,0,0,1,.09-1.13c1.14.08,2.27.18,3.41.3a.57.57,0,0,1-.06,1.13Zm-26.07,0a.56.56,0,0,1-.56-.51.57.57,0,0,1,.51-.62c1.13-.11,2.27-.21,3.4-.29a.57.57,0,0,1,.09,1.13c-1.13.08-2.26.18-3.38.29ZM395,85.44h0q-1.69-.1-3.39-.15a.57.57,0,0,1-.55-.59.58.58,0,0,1,.59-.55c1.14,0,2.28.09,3.41.16a.56.56,0,0,1,.54.6A.57.57,0,0,1,395,85.44Zm-14.75,0a.55.55,0,0,1-.56-.53.57.57,0,0,1,.53-.6c1.14-.06,2.28-.11,3.42-.14h0a.57.57,0,0,1,0,1.13c-1.13,0-2.26.08-3.39.14Zm9.08-.18h0c-1.13,0-2.26,0-3.39,0h0a.57.57,0,0,1-.57-.56.57.57,0,0,1,.56-.57h3.43a.57.57,0,0,1,0,1.14Z" style="fill:#f94f24"/><path d="M372.66,207.85l-4.1,27.62s6.58,8.29,22.2,8.29,22.14-9.36,22.14-9.36l-3.85-26.55Z" style="fill:#ffa881"/><path d="M416.45,149.45c.46.46,17.39,9,5.1,36.08,0,0,1.58-13.1-12.09-23.5S416.45,149.45,416.45,149.45Z" style="fill:#7a4e0d"/><path d="M422.2,176.48c0,24.75-14.09,47.36-31.47,47.36s-31.46-22.61-31.46-47.36,14.08-32,31.46-32S422.2,151.74,422.2,176.48Z" style="fill:#ffc1a6"/><path d="M359.91,185.53S348,167,361.62,156c0,0-3.26-13.05,12.74-18.79s26.87,4.19,33.7,4.19,10.25-3.57,10.25-3.57,3.11-1.25,3.11,1.71-2.84,31.21-26.72,31.21c-22.36,0-27-10.26-27-10.26S360.53,167.93,359.91,185.53Z" style="fill:#7a4e0d"/><path d="M367.68,160.46S374.51,170,391.6,170s25.54-14,25.54-14-2.87,19.42-25.7,19.42C371.41,175.38,367.68,160.46,367.68,160.46Z" style="fill:#ffa881"/><path d="M360.84,185.53s-2-6.73-7.3-3.31-.31,16,11,17.55S360.84,185.53,360.84,185.53Z" style="fill:#ffc1a6"/><path d="M420.69,185.53s2-6.73,7.3-3.31.31,16-11,17.55S420.69,185.53,420.69,185.53Z" style="fill:#ffc1a6"/><path d="M371.77,213.86a24.6,24.6,0,0,0,19.52,10,22,22,0,0,0,18.63-10l2.21,15.22S383.94,240.84,371.77,213.86Z" style="fill:#ff9b6e"/><path d="M367.68,155.35s6.59,12.14,24.73,12.14,27.14-18.36,27.14-25.5c0,0-9.16,27.8-40.38,12.75,0,0-7-4.21-9.16-4.21C366,150.53,367.68,155.35,367.68,155.35Z" style="fill:#6d4400"/><path d="M473.65,348.34V265.83A6.76,6.76,0,0,0,467,259H308a6.76,6.76,0,0,0-6.69,6.82v82.51Z" style="fill:#b3b3b3"/><path d="M297.18,352v7.86a7.64,7.64,0,0,0,7.56,7.71H470.18a7.64,7.64,0,0,0,7.57-7.71V352Z" style="fill:#b3b3b3"/><rect x="301.28" y="267.96" width="172.36" height="84.78" style="fill:#999"/><path d="M378.73,268H301.28v77.36Q340,306.64,378.73,268Z" style="fill:#a6a6a6"/><rect x="301.28" y="351.05" width="172.36" height="1.68" style="fill:#e5e5e5;mix-blend-mode:multiply"/><rect x="301.28" y="267.96" width="172.36" height="1.68" style="fill:#e5e5e5;mix-blend-mode:multiply"/><path d="M330,359.75a1.71,1.71,0,0,1-1.72,1.71h-7.94a1.71,1.71,0,0,1-1.72-1.71h0a1.72,1.72,0,0,1,1.72-1.72h7.94a1.72,1.72,0,0,1,1.72,1.72Z" style="fill:gray"/><path d="M467.83,359.75a1.71,1.71,0,0,1-1.71,1.71h-7.95a1.7,1.7,0,0,1-1.71-1.71h0a1.71,1.71,0,0,1,1.71-1.72h7.95a1.72,1.72,0,0,1,1.71,1.72Z" style="fill:gray"/><path d="M342,359.75a1.7,1.7,0,0,1-1.71,1.71h0a1.71,1.71,0,0,1-1.72-1.71h0a1.72,1.72,0,0,1,1.72-1.72h0a1.71,1.71,0,0,1,1.71,1.72Z" style="fill:gray"/><path d="M352.37,359.75a1.71,1.71,0,0,1-1.72,1.71h0a1.71,1.71,0,0,1-1.71-1.71h0a1.72,1.72,0,0,1,1.71-1.72h0a1.72,1.72,0,0,1,1.72,1.72Z" style="fill:gray"/><path d="M397.05,312.62a8.95,8.95,0,1,1-8.94-8.94A8.95,8.95,0,0,1,397.05,312.62Z" style="fill:#a6a6a6"/><rect x="138.05" y="367.53" width="523.89" height="29.17" style="fill:#efc542"/><polygon points="161.57 396.7 623.3 396.7 623.3 436.65 161.57 396.7" style="fill:#daac23"/><rect x="579.85" y="291.95" width="3.23" height="40" style="fill:#239834"/><path d="M594.31,319.86h-35.8a5,5,0,0,0-5.07,6.65l9.49,34.37c1,3.66,4.07,6.65,6.79,6.65h22.63c2.72,0,5.77-3,6.78-6.65l9.49-34.37a5,5,0,0,0-5.06-6.65Z" style="fill:#f5683a"/><path d="M543,259.43l5.19,1.33-4.49,1.17a76.11,76.11,0,0,0,10.24,21.36l9.69,1.08-7.69,1.69a79.92,79.92,0,0,0,25.56,22.29l-40.19-82.84A86.29,86.29,0,0,0,543,259.43Z" style="fill:#239834"/><path d="M569.79,267.43l3.13-10.2a76.92,76.92,0,0,0-13.52-17.91l-4.13,3.31,2.41-5a92.85,92.85,0,0,0-16.41-12.16l40.19,82.84a81,81,0,0,0-6.77-47.69Z" style="fill:#90cf67"/><path d="M587.21,266.6l1.9,3.21-2.78-1.63a53.17,53.17,0,0,0-5.48,15.56l4.24,5.29-4.62-2.95a55.66,55.66,0,0,0,1.62,23.56l21-60.57A60.15,60.15,0,0,0,587.21,266.6Z" style="fill:#239834"/><path d="M596.49,283.75l6.56-3.48a53.56,53.56,0,0,0,2.16-15.48l-3.66-.39,3.62-1.26a63.85,63.85,0,0,0-2.09-14.07l-21,60.57a56.38,56.38,0,0,0,20.14-26.81Z" style="fill:#90cf67"/><polygon points="557.15 331.33 607.29 331.33 605.59 337.52 557.15 331.33" style="fill:#e65b30"/><path d="M269.1,131.69v-9.47a18.14,18.14,0,0,0-36.27,0v9.47Z" style="fill:#f94f24"/><polygon points="269.1 130.93 250.97 130.93 250.97 130.93 232.84 130.93 183.95 158.27 183.95 161.09 232.84 161.09 269.1 161.09 317.99 161.09 317.99 158.27 269.1 130.93" style="fill:#f94f24"/><polygon points="269.1 122.22 232.84 126.58 232.84 130.93 269.1 130.93 269.1 122.22" style="fill:#f56d3f"/><path d="M251,110a1,1,0,0,1-1-1V42.77a1,1,0,0,1,2,0V109A1,1,0,0,1,251,110Z" style="fill:#f56d3f"/></g></svg>