<svg xmlns="http://www.w3.org/2000/svg" viewBox="0 0 800 500"><title>Artboard 2 copy 13</title><g style="isolation:isolate"><path d="M173.57,131.14c-1.49-.9-1.16-3.72,1-3.72h68.3a80.8,80.8,0,1,0-69.31,81.3Z" style="fill:#f2f2f2"/><rect x="271.28" y="443.01" width="417.69" height="7.04" style="fill:#f4f4f4"/><path d="M301.27,201.06v-7.51s1-13.41,14.81-13.41h383s18.38-.74,18.38,13.41v256.5H690.62V228.89Z" style="fill:#f2f2f2"/><rect x="154.27" y="149.56" width="42.28" height="300.49" style="fill:#efefef"/><rect x="123.84" y="448.05" width="602.84" height="4" style="fill:#dedede"/><path d="M690.62,245.31V217.06a16,16,0,0,0-16-16H285.28a16,16,0,0,0-16,16v28.25Z" style="fill:#f94f24"/><rect x="686.97" y="249.31" width="4" height="200.73" style="fill:#dedede"/><rect x="269.28" y="249.31" width="4" height="200.73" style="fill:#dedede"/><path d="M307,223.18a5.7,5.7,0,1,1-5.7-5.69A5.71,5.71,0,0,1,307,223.18Z" style="fill:#fff"/><path d="M345.33,223.18a5.7,5.7,0,1,1-5.7-5.69A5.71,5.71,0,0,1,345.33,223.18Z" style="fill:#fff"/><path d="M383.68,223.18a5.7,5.7,0,1,1-5.7-5.69A5.71,5.71,0,0,1,383.68,223.18Z" style="fill:#fff"/><path d="M513.83,355H300.77V285.08H513.83Zm-212.06-1H512.83V286.08H301.77Z" style="fill:#f94f24"/><path d="M525,285.56a11.65,11.65,0,1,1-11.65-11.65A11.65,11.65,0,0,1,525,285.56Z" style="fill:#f94f24"/><path d="M517.55,284h-2.62v-2.61a1.6,1.6,0,1,0-3.2,0V284h-2.62a1.61,1.61,0,0,0,0,3.21h2.62v2.62a1.6,1.6,0,1,0,3.2,0v-2.62h2.62a1.61,1.61,0,1,0,0-3.21Z" style="fill:#fff"/><rect x="326.22" y="261.67" width="29.36" height="16.54" style="fill:#e8e8e8"/><rect x="357.58" y="261.67" width="29.36" height="16.54" style="fill:#dedede"/><rect x="388.94" y="261.67" width="29.36" height="16.54" style="fill:#dedede"/><path d="M324.22,261.67H309.54a8.27,8.27,0,1,0,0,16.53h14.68Z" style="fill:#dedede"/><rect x="420.29" y="261.67" width="29.36" height="16.54" style="fill:#dedede"/><path d="M465.83,261.67H451.65V278.2h14.18a8.27,8.27,0,1,0,0-16.53Z" style="fill:#dedede"/><path d="M175.41,203.31c-6.57,0-11.9,3.35-11.9,7.47s5.33,7.47,11.9,7.47,11.89-3.34,11.89-7.47S182,203.31,175.41,203.31Zm0,13.68a6.21,6.21,0,1,1,6.21-6.21A6.21,6.21,0,0,1,175.41,217Z" style="fill:#d3d3d3"/><path d="M179.88,210.78a4.47,4.47,0,1,1-4.47-4.47A4.47,4.47,0,0,1,179.88,210.78Z" style="fill:#d3d3d3"/><path d="M175.41,174.88a9.34,9.34,0,1,0,9.34,9.34A9.34,9.34,0,0,0,175.41,174.88Zm3.12,10.6h-1.86v1.86a1.26,1.26,0,0,1-2.52,0v-1.86h-1.87a1.27,1.27,0,0,1,0-2.53h1.87v-1.86a1.26,1.26,0,0,1,2.52,0V183h1.86a1.27,1.27,0,1,1,0,2.53Z" style="fill:#d3d3d3"/><rect x="154.27" y="115.44" width="560.77" height="34.12" style="fill:#d3d3d3"/><circle cx="175.41" cy="324.15" r="76" style="fill:#fff"/><path d="M229.09,272.23A76,76,0,0,1,121.7,379.66,76,76,0,1,0,229.09,272.23Z" style="fill:#f5f2f5;fill-rule:evenodd;mix-blend-mode:multiply"/><path d="M93.16,292.52l.54.1a5.94,5.94,0,0,1,4.2,3,11.56,11.56,0,0,1,1.38,3.95,23.06,23.06,0,0,1,.26,5.69,38.59,38.59,0,0,1-1,6.33c0,.08,0,.17-.06.29l.38.12a36.19,36.19,0,0,1,7.22,2.93,19.25,19.25,0,0,1,4.43,3.22,10.24,10.24,0,0,1,1.7,2.18,5.94,5.94,0,0,1,0,6.18,11.33,11.33,0,0,1-2.62,3.11,24.9,24.9,0,0,1-5.88,3.62A40.11,40.11,0,0,1,99,335l-.37.12q.12.56.24,1.08a33.51,33.51,0,0,1,.83,7.54,17.93,17.93,0,0,1-.81,5.44,9,9,0,0,1-1.77,3.25,5.79,5.79,0,0,1-3.59,1.93c-.23,0-.45.09-.68.13H92l-.32-.07c-.41-.07-.83-.11-1.23-.2A16.32,16.32,0,0,1,86,352.55a32.63,32.63,0,0,1-6.71-4.9l-.82-.75-.26.23a35.71,35.71,0,0,1-5,4,21.41,21.41,0,0,1-5.82,2.8,10.07,10.07,0,0,1-4.26.43,5.92,5.92,0,0,1-3.94-2.23,9.62,9.62,0,0,1-1.7-3.65,21.31,21.31,0,0,1-.41-7,36.72,36.72,0,0,1,1-5.81c0-.12,0-.23,0-.35l-.31-.11a33.7,33.7,0,0,1-4-1.43,26,26,0,0,1-6-3.42,13.07,13.07,0,0,1-3.18-3.41,6.18,6.18,0,0,1,0-7,11,11,0,0,1,1.85-2.19,21.37,21.37,0,0,1,4.93-3.33,38.62,38.62,0,0,1,6.49-2.49l.27-.1c0-.09,0-.15,0-.21a38.7,38.7,0,0,1-1-6.24,22.38,22.38,0,0,1,.26-6.17,10.92,10.92,0,0,1,1.31-3.59,5.88,5.88,0,0,1,3.7-2.83,8.81,8.81,0,0,1,4,.06,18.22,18.22,0,0,1,4.77,1.9,35.35,35.35,0,0,1,7,5.23l.25.21L79.61,299a31.43,31.43,0,0,1,6.69-4.74,15.59,15.59,0,0,1,4.78-1.65l.61-.11ZM78.42,334.76l5.92-.25a.58.58,0,0,0,.53-.3,100.44,100.44,0,0,0,6-10.41.66.66,0,0,0,0-.68c-.59-1.1-1.15-2.2-1.74-3.29q-2-3.6-4.23-7a.6.6,0,0,0-.56-.33c-.9,0-1.79-.11-2.69-.15a81.22,81.22,0,0,0-9.36.15.58.58,0,0,0-.5.29,89.21,89.21,0,0,0-6,10.43.62.62,0,0,0,0,.59,86.23,86.23,0,0,0,6,10.45.55.55,0,0,0,.48.27Zm-19.48-20s-.08,0-.1,0l-.7.2a32.49,32.49,0,0,0-6.43,2.65,15.65,15.65,0,0,0-3.6,2.67,6.58,6.58,0,0,0-1.41,2,2.9,2.9,0,0,0,0,2.22,6.13,6.13,0,0,0,1,1.7,13.33,13.33,0,0,0,3,2.62,29.24,29.24,0,0,0,7.73,3.48l.44.12c0-.12.08-.21.11-.3a69.17,69.17,0,0,1,3.16-8.21.85.85,0,0,0,0-.79,66.91,66.91,0,0,1-3.12-8.07C59,315,59,314.85,58.94,314.76Zm17.39,30c-.61-.69-1.19-1.34-1.76-2-1.42-1.65-2.76-3.37-4-5.14a.61.61,0,0,0-.48-.28c-.85-.08-1.69-.16-2.53-.26q-2.82-.3-5.61-.87L61,336c0,.12-.07.2-.09.28a34.82,34.82,0,0,0-1,6.51,17.61,17.61,0,0,0,.4,4.91,6.78,6.78,0,0,0,1.05,2.42,3,3,0,0,0,2.12,1.26,6.31,6.31,0,0,0,1.79-.05,12.6,12.6,0,0,0,3.39-1.11,27.39,27.39,0,0,0,6.47-4.4C75.54,345.51,75.93,345.15,76.33,344.77Zm19.41-8.87-.92.19a67.89,67.89,0,0,1-8,1.2.88.88,0,0,0-.74.42,67.15,67.15,0,0,1-5.34,6.78l-.21.26.19.2a38.23,38.23,0,0,0,3.57,3,22.09,22.09,0,0,0,4.88,2.79,8.91,8.91,0,0,0,3.41.72A3.1,3.1,0,0,0,95.26,350a7,7,0,0,0,.85-1.84,15.35,15.35,0,0,0,.64-4.62,31,31,0,0,0-.91-7.3A3.34,3.34,0,0,0,95.74,335.9ZM76.26,302.29c-.1-.08-.19-.13-.26-.2a37.72,37.72,0,0,0-4-3.31,20.75,20.75,0,0,0-5-2.67,8.79,8.79,0,0,0-2.92-.55,3,3,0,0,0-2.9,1.72,9.19,9.19,0,0,0-.62,1.49,14.75,14.75,0,0,0-.55,4.38,32.35,32.35,0,0,0,.88,7.07l.21.87c1.37-.26,2.7-.54,4-.74,1.61-.24,3.24-.43,4.86-.63a.8.8,0,0,0,.63-.35A67.89,67.89,0,0,1,75,303.7Zm19.34,8.85c.05-.19.1-.36.14-.52a34.76,34.76,0,0,0,.86-6.09,17.69,17.69,0,0,0-.42-5.23A7,7,0,0,0,95,296.69a2.74,2.74,0,0,0-1.73-1.12,5.56,5.56,0,0,0-2.26.09,14,14,0,0,0-3.8,1.48,31.43,31.43,0,0,0-6.68,5.06.49.49,0,0,0-.11.14c.06.07.1.13.15.18,1,1.12,2,2.22,2.87,3.37s1.78,2.35,2.65,3.54a.64.64,0,0,0,.52.29c.43,0,.85.08,1.28.13q3.22.36,6.4,1Zm2.24,21.1.2,0a32.76,32.76,0,0,0,6.91-2.91,15.66,15.66,0,0,0,3.57-2.71,6.3,6.3,0,0,0,1.35-2,2.78,2.78,0,0,0,0-2.39,6.18,6.18,0,0,0-1.14-1.67,14.21,14.21,0,0,0-3.17-2.5,31.16,31.16,0,0,0-7-3l-.85-.25a1.55,1.55,0,0,0-.1.27,68.52,68.52,0,0,1-3.17,8.09.67.67,0,0,0,0,.63,68.46,68.46,0,0,1,3.28,8.16C97.75,332,97.8,332.13,97.84,332.24Zm-9.31,1.87a58,58,0,0,0,6.41-1.1,63.25,63.25,0,0,0-2.3-6C91.27,329.34,89.91,331.71,88.53,334.11ZM64,327a64.56,64.56,0,0,0-2.24,6.12,43,43,0,0,0,6.36,1C66.68,331.82,65.33,329.48,64,327Zm18.42,10.63H74.25c1.33,1.74,2.68,3.38,4.16,5A57,57,0,0,0,82.46,337.64ZM74.2,309.4c2.77-.12,5.47-.11,8.23,0a60.35,60.35,0,0,0-4.1-4.94C76.87,306,75.53,307.65,74.2,309.4ZM92.61,320A60.25,60.25,0,0,0,94.8,314a61.69,61.69,0,0,0-6.26-1.1C89.9,315.28,91.24,317.59,92.61,320Zm-30.78-6c.64,2.05,1.37,4,2.21,6,1.27-2.44,2.6-4.76,4.09-7.09A63.26,63.26,0,0,0,61.83,314Z" style="fill:#00d8ff;fill-rule:evenodd"/><path d="M137.15,326c2.61,4,5.21,7.88,7.83,11.84a1.31,1.31,0,0,1-.22,0c-1.27,0-2.54,0-3.8,0-.24,0-.32-.12-.43-.28l-5.41-8.49c-.56-.87-1.11-1.73-1.66-2.61a.39.39,0,0,0-.38-.22h-5.42l-.2,0c0,1.28,0,2.55,0,3.82v7.73h-3.61V308.65l.29,0h11.36a10.09,10.09,0,0,1,4.74,1.06,7.94,7.94,0,0,1,4.37,6,9.68,9.68,0,0,1-.32,4.81,7.77,7.77,0,0,1-5.58,5.16,10.12,10.12,0,0,1-1.22.24ZM127.48,323h7.46a7,7,0,0,0,1.82-.2,5.23,5.23,0,0,0,3.69-3,5.74,5.74,0,0,0,.43-3.49,5.06,5.06,0,0,0-2.69-3.79,6.6,6.6,0,0,0-3.2-.73h-7.23l-.28,0Z" style="fill:#00d8ff;fill-rule:evenodd"/><path d="M168.36,328.32H151.31c0,.28,0,.52.08.75a7.87,7.87,0,0,0,1.91,4.2,6.82,6.82,0,0,0,4.27,2.27,9.14,9.14,0,0,0,7.71-2.44l.18-.15,1.57,2.13c-.31.26-.6.54-.91.79a11.16,11.16,0,0,1-5.46,2.33,12.12,12.12,0,0,1-5.55-.36,9.78,9.78,0,0,1-6.68-6.63,12,12,0,0,1,.52-9.09,9.77,9.77,0,0,1,7.08-5.71,9.89,9.89,0,0,1,8.11,1.58,9.74,9.74,0,0,1,3.37,4.52,14.45,14.45,0,0,1,.89,5.64A.79.79,0,0,1,168.36,328.32Zm-17.06-2.47h13.83a6.92,6.92,0,0,0-.62-2.89,6.39,6.39,0,0,0-3.5-3.55,7.23,7.23,0,0,0-4-.44,6.19,6.19,0,0,0-3.15,1.43,7.56,7.56,0,0,0-2.34,3.85A5.3,5.3,0,0,0,151.3,325.85Z" style="fill:#00d8ff;fill-rule:evenodd"/><path d="M175.12,322l-1.54-2.29a1.49,1.49,0,0,1,.15-.2,10.72,10.72,0,0,1,6.4-3.21,12.93,12.93,0,0,1,4.8.21,8,8,0,0,1,2.31.93,5.94,5.94,0,0,1,2.8,4.19,10.37,10.37,0,0,1,.15,1.76q0,7,0,14.05c0,.12,0,.24,0,.38h-3.26v-2.35a3.37,3.37,0,0,0-.26.25,8.85,8.85,0,0,1-5.35,2.56,8.69,8.69,0,0,1-3.86-.3,6.91,6.91,0,0,1-4.18-3.45,7.12,7.12,0,0,1-.67-4.06,6.46,6.46,0,0,1,4.73-5.66,9.78,9.78,0,0,1,7.63.84,6.86,6.86,0,0,1,1.68,1.31c.06.07.11.15.19.26,0-.1.08-.13.08-.16,0-1.31,0-2.61,0-3.91a3.88,3.88,0,0,0-2.38-3.5A7,7,0,0,0,181,319a8.22,8.22,0,0,0-5.67,2.72A1.74,1.74,0,0,0,175.12,322Zm11.8,9.35v-1.22c0-.89,0-.89-.64-1.49a7.67,7.67,0,0,0-7.35-1.5,4.43,4.43,0,0,0-2.88,5.46,4.35,4.35,0,0,0,3,3.09,7.37,7.37,0,0,0,4.64-.09,6.22,6.22,0,0,0,3-2,.74.74,0,0,0,.19-.53C186.91,332.5,186.92,331.92,186.92,331.35Z" style="fill:#00d8ff;fill-rule:evenodd"/><path d="M213.89,319.84l-2.17,2-.14-.15a6.11,6.11,0,0,0-4.68-2.53,6.89,6.89,0,0,0-5.82,2.2,7.52,7.52,0,0,0-1.84,3.68,10.11,10.11,0,0,0,.4,5.81,6.75,6.75,0,0,0,4.27,4.24,7,7,0,0,0,5.28-.24,6.63,6.63,0,0,0,2.26-1.81c.07-.1.15-.19.26-.32l2.18,2a9.66,9.66,0,0,1-1.44,1.55,8.5,8.5,0,0,1-4.3,2,11.2,11.2,0,0,1-5.36-.34,9.82,9.82,0,0,1-6.09-5.43,12.23,12.23,0,0,1-1.07-6.18,11.44,11.44,0,0,1,1.31-4.68,9.81,9.81,0,0,1,7.2-5.22,11,11,0,0,1,5.6.38A8.69,8.69,0,0,1,213.89,319.84Z" style="fill:#00d8ff;fill-rule:evenodd"/><path d="M219.19,319.58H215.7V316.7h3.49v-5.77h3.32c0,.48,0,.95,0,1.42v4.33c.48,0,.94,0,1.4,0h2.86v2.88h-4.23c0,.13,0,.22,0,.31v12.88a3.54,3.54,0,0,0,.29,1.47,1.89,1.89,0,0,0,2,1.18,3.28,3.28,0,0,0,2.05-.85,1.74,1.74,0,0,1,.11.18c.25.63.49,1.26.73,1.89.15.37.13.41-.18.65a5,5,0,0,1-2.61,1,6.92,6.92,0,0,1-2.64-.15,3.86,3.86,0,0,1-2.9-3.19,9.87,9.87,0,0,1-.15-1.8q0-6.54,0-13.09Z" style="fill:#00d8ff;fill-rule:evenodd"/><path d="M78.31,317.22a6.22,6.22,0,1,1-6.24,6.2A6.23,6.23,0,0,1,78.31,317.22Z" style="fill:#00d8ff;fill-rule:evenodd"/><path d="M660.44,416.78H542.74V284.58h117.7Zm-115.7-2h113.7V286.58H544.74Z" style="fill:#dedede"/><path d="M544.45,393.23,543,391.81l59.42-59.42c4.75-4.75,9.81-7.08,15.12-6.9,8.37.27,14.09,6.68,14.33,6.95l28.25,28.25-1.41,1.41-28.3-28.29c-.09-.11-5.46-6.09-13-6.32-4.71-.16-9.28,2-13.62,6.32Z" style="fill:#dedede"/><path d="M571,328.27a12.7,12.7,0,1,1,12.69-12.69A12.71,12.71,0,0,1,571,328.27Zm0-23.39a10.7,10.7,0,1,0,10.69,10.7A10.71,10.71,0,0,0,571,304.88Z" style="fill:#dedede"/><path d="M380.29,382.49H307a3.5,3.5,0,0,1,0-7h73.32a3.5,3.5,0,0,1,0,7Z" style="fill:#dedede"/><path d="M414.29,382.49h-18a3.5,3.5,0,1,1,0-7h18a3.5,3.5,0,0,1,0,7Z" style="fill:#dedede"/><path d="M507.51,382.49H431.65a3.5,3.5,0,0,1,0-7h75.86a3.5,3.5,0,0,1,0,7Z" style="fill:#dedede"/><path d="M407.3,407H307a3.5,3.5,0,0,1,0-7H407.3a3.5,3.5,0,0,1,0,7Z" style="fill:#dedede"/><path d="M462.87,407H427.65a3.5,3.5,0,0,1,0-7h35.22a3.5,3.5,0,0,1,0,7Z" style="fill:#dedede"/><path d="M615.46,433.24H543.74a3.5,3.5,0,0,1,0-7h71.72a3.5,3.5,0,0,1,0,7Z" style="fill:#dedede"/><path d="M363.43,309.73a5.85,5.85,0,0,1-5.85,5.85H322.36a5.85,5.85,0,0,1-5.85-5.85h0a5.85,5.85,0,0,1,5.85-5.85h35.22a5.85,5.85,0,0,1,5.85,5.85Z" style="fill:#e9e9e9"/><path d="M482.88,309.73a5.85,5.85,0,0,1-5.85,5.85H462.34a5.85,5.85,0,0,1-5.85-5.85h0a5.85,5.85,0,0,1,5.85-5.85H477a5.85,5.85,0,0,1,5.85,5.85Z" style="fill:#e9e9e9"/><path d="M444.31,309.73a5.85,5.85,0,0,1-5.85,5.85H377.73a5.85,5.85,0,0,1-5.85-5.85h0a5.85,5.85,0,0,1,5.85-5.85h60.73a5.85,5.85,0,0,1,5.85,5.85Z" style="fill:#e9e9e9"/><path d="M417.21,333.1a5.85,5.85,0,0,1-5.84,5.85H325.21a5.84,5.84,0,0,1-5.84-5.85h0a5.84,5.84,0,0,1,5.84-5.85h86.16a5.85,5.85,0,0,1,5.84,5.85Z" style="fill:#e9e9e9"/><path d="M403.61,142.2a.5.5,0,0,1-.5-.5V123.52a.51.51,0,0,1,.5-.5.5.5,0,0,1,.5.5V141.7A.5.5,0,0,1,403.61,142.2Z" style="fill:#fff"/><path d="M469.58,142.2a.5.5,0,0,1-.5-.5V123.52a.5.5,0,0,1,1,0V141.7A.5.5,0,0,1,469.58,142.2Z" style="fill:#fff"/><path d="M536.49,142.2a.5.5,0,0,1-.5-.5V123.52a.5.5,0,0,1,.5-.5.51.51,0,0,1,.5.5V141.7A.5.5,0,0,1,536.49,142.2Z" style="fill:#fff"/><path d="M615.46,142.2a.5.5,0,0,1-.5-.5V123.52a.51.51,0,0,1,.5-.5.5.5,0,0,1,.5.5V141.7A.5.5,0,0,1,615.46,142.2Z" style="fill:#fff"/><path d="M372.61,135.15a6.18,6.18,0,1,1-12.36,0c0-3.41,6.18-11.27,6.18-11.27S372.61,131.74,372.61,135.15Z" style="fill:#fff"/><polygon points="435.45 140.1 429.37 134.01 427.73 135.65 435.45 143.38 443.18 135.65 441.54 134.01 435.45 140.1" style="fill:#fff"/><rect x="429.99" y="124.1" width="10.93" height="10.93" transform="translate(35.93 345.86) rotate(-45)" style="fill:#fff"/><path d="M496.81,129.46a1,1,0,0,1-1-1v-3.39a1,1,0,0,1,1-1h3.35a1,1,0,0,1,0,2h-2.35v2.39A1,1,0,0,1,496.81,129.46Z" style="fill:#fff"/><path d="M512.15,129.46a1,1,0,0,1-1-1v-2.39h-2.34a1,1,0,0,1,0-2h3.34a1,1,0,0,1,1,1v3.39A1,1,0,0,1,512.15,129.46Z" style="fill:#fff"/><path d="M512.15,140.94h-3.34a1,1,0,0,1,0-2h2.34v-2.39a1,1,0,0,1,2,0v3.39A1,1,0,0,1,512.15,140.94Z" style="fill:#fff"/><path d="M500.16,140.94h-3.35a1,1,0,0,1-1-1v-3.39a1,1,0,0,1,2,0v2.39h2.35a1,1,0,0,1,0,2Z" style="fill:#fff"/><rect x="569.73" y="124.18" width="12.29" height="12.29" style="fill:#fff"/><polygon points="567.85 138.18 567.85 128.75 564.99 128.75 564.99 141.04 577.28 141.04 577.28 138.18 567.85 138.18" style="fill:#fff"/><path d="M636.62,129.52l-.15,0V139c0,2.21,1.8,2.72,4,2.72h4.11c2.21,0,4-.51,4-2.72v-9.43Z" style="fill:#fff"/><path d="M648.1,124.91h-1.65a1.43,1.43,0,0,0,0-.22,1.35,1.35,0,0,0-1.35-1.35h-5.22a1.36,1.36,0,0,0-1.35,1.35.79.79,0,0,0,0,.22H637a1.51,1.51,0,1,0,0,3H648.1a1.51,1.51,0,0,0,0-3Z" style="fill:#fff"/><rect x="87.3" y="448.05" width="21.11" height="4" style="fill:#dedede"/><path d="M748.85,387.32H700.7v32.27h48.15a16.14,16.14,0,0,0,0-32.27Z" style="fill:#f2f2f2"/><path d="M82.93,217.51a24,24,0,1,1-24-24A24,24,0,0,1,82.93,217.51Z" style="fill:#f2f2f2"/><path d="M770.28,265.12a10.72,10.72,0,1,1-10.72-10.72A10.72,10.72,0,0,1,770.28,265.12Z" style="fill:#f2f2f2"/></g></svg>