<svg width="134" height="43" viewBox="0 0 134 43" fill="none" xmlns="http://www.w3.org/2000/svg">
<path fill-rule="evenodd" clip-rule="evenodd" d="M56.678 6.77603C56.678 3.11475 58.7442 0.178467 61.318 0.178467C63.8918 0.178467 65.9581 3.151 65.9581 6.77603C65.9581 10.4373 63.8918 13.4098 61.318 13.4098C58.7442 13.3736 56.678 10.4373 56.678 6.77603ZM52.6541 22.7262C57.2942 21.7112 56.6779 16.1649 56.5329 14.9324C56.3154 13.0473 54.1041 9.78482 51.0954 10.0386C47.3253 10.3648 46.7816 15.8024 46.7816 15.8024C46.3103 18.3399 48.0141 23.7412 52.6541 22.7262ZM72.3744 13.8086C75.8182 14.2436 78.0295 10.5823 78.4645 7.82729C78.8995 5.03601 76.6882 1.80973 74.2594 1.26597C71.8307 0.722219 68.7856 4.60101 68.4956 7.17478C68.1694 10.2923 68.9669 13.3736 72.3744 13.8086ZM59.4692 30.7375C58.3091 31.1001 57.7291 32.0063 57.5841 32.4051C57.4391 32.8038 57.1491 33.7826 57.4029 34.6526C57.9104 36.6101 59.6142 36.6826 59.6142 36.6826H62.0429V30.7376H59.4692V30.7375ZM86.0044 18.4849C86.0044 17.1436 84.9169 13.1561 80.8206 13.1561C76.7243 13.1561 76.1805 16.9261 76.1805 19.6086C76.1805 22.1462 76.398 25.6987 81.5093 25.5899C86.5481 25.4812 86.0044 19.8261 86.0044 18.4849ZM82.2344 39.2926C79.6969 45.3101 70.3806 42.1926 70.3806 42.1926C70.3806 42.1926 66.9368 41.0688 62.9492 41.9751C58.9617 42.8814 55.5179 42.5189 55.5179 42.5189C55.5179 42.5189 50.8779 42.6276 49.5366 36.7551C48.1953 30.8462 54.1767 27.62 54.6479 27.0762C55.0829 26.5325 58.2004 24.3937 60.1942 21.0586C62.188 17.7236 68.1693 15.0773 72.3743 21.6024C75.4919 26.0612 80.7844 30.1575 80.7844 30.1575C80.7844 30.1575 84.772 33.275 82.2344 39.2926ZM64.8705 24.4662L62.1155 24.43V28.3813H58.8892C58.8892 28.3813 55.6629 28.635 54.5392 32.2963C54.1404 34.7251 54.9017 36.1751 55.0104 36.4651C55.1554 36.7551 56.1704 38.5676 58.7805 39.0751H64.8343V24.4662H64.8705ZM76.1443 28.7438H73.1355V36.5014H70.2717C70.2717 36.5014 69.3655 36.3563 69.1842 35.6313V28.7075L66.3567 28.7438V36.4288C66.3567 36.4288 66.4654 38.3501 69.1842 39.0389H76.1443V28.7438Z" fill="#44486C"/>
<path fill-rule="evenodd" clip-rule="evenodd" d="M87.8895 23.7412H97.0971L96.2271 25.6987H88.397V41.9752H106.957C108.915 41.9752 108.733 40.0176 108.733 40.0176V25.6987H100.903L101.592 23.6687H109.277V20.4062H87.8895V23.7412ZM105.145 38.5314C105.145 38.5314 104.927 39.0751 104.601 39.0751H92.2758V35.2689H105.145V38.5314ZM105.145 28.5626V32.1151H92.312V28.5626H105.145ZM131.499 24.9737V23.7412H128.127V24.9737H121.167V23.7775H117.977V24.9737H115.802L115.839 27.4025H117.977V31.97H129.686C131.318 31.97 131.535 30.2663 131.535 30.2663V27.4025H134V24.9737H131.499ZM127.402 29.65H121.095V27.3663H128.091V29.07C128.091 29.1063 127.801 29.65 127.402 29.65ZM133.746 23.2337H115.258V41.9752H111.778V20.4424H121.385V18.8837H125.336V20.5149H133.71V23.2337H133.746ZM116.237 35.3414L121.639 38.4589C121.204 38.9302 119.355 39.5102 119.355 39.5102H115.766V41.9027H120.66C122.11 41.6127 124.792 40.2352 124.792 40.2352C125.916 41.2502 128.055 41.6852 128.055 41.6852H133.601V39.2927H129.432C128.309 39.1114 127.294 38.4952 127.294 38.4952L133.637 34.8701V32.9126H116.273V35.3414H116.237ZM127.439 35.3051L124.357 36.9364L121.53 35.3051H127.439ZM40.3654 19.8262H45.0417V23.9225H40.3654V19.8262H40.3654ZM40.3654 25.735H45.0417V41.8664H40.3654V25.735H40.3654ZM32.7528 25.7712L22.784 25.735V29.1425H31.5203C31.5203 29.1425 33.5866 29.65 33.5866 30.9913V32.1876H25.7203C25.7203 32.1876 22.6027 32.4776 21.624 36.1751C21.4427 37.9151 21.6965 38.7851 21.8052 39.0751C21.914 39.4014 22.8202 41.4314 25.539 41.9389H38.0816V30.375C38.0816 30.375 37.5016 26.4237 32.7528 25.7712ZM33.6228 38.7489H27.2427C26.3727 38.3864 26.119 37.8426 26.0465 37.6976C25.974 37.5526 25.7927 37.0451 26.0102 36.5376C26.5177 35.5589 27.3877 35.3051 27.3877 35.3051H33.6228V38.7489ZM17.2013 30.9188C20.1738 29.36 19.8113 25.4449 19.8113 25.4449C19.4851 19.4274 12.1263 19.7174 12.1263 19.7174H0.743652V42.1564H13.5763C21.1164 42.1201 20.5726 36.2476 20.5726 36.2476C20.7176 32.2963 17.2013 30.9188 17.2013 30.9188ZM5.63745 24.0675H13.0325C13.0325 24.0675 14.6275 23.995 15.1713 25.2637C15.1713 25.2637 15.4976 26.605 14.9538 27.5475C14.9538 27.5475 14.4463 28.49 13.0688 28.7075H5.63745V24.0675ZM15.1713 36.9001C15.1713 36.9001 14.7 37.7339 13.3225 37.9514H5.63745V33.1301H13.2863L13.54 33.1663C13.54 33.1663 14.99 33.4201 15.5338 34.7251C15.5338 34.7613 15.8238 35.9938 15.1713 36.9001Z" fill="#44486C"/>
</svg>
