<svg width="90" height="37" viewBox="0 0 90 37" fill="none" xmlns="http://www.w3.org/2000/svg">
<path fill-rule="evenodd" clip-rule="evenodd" d="M89.7176 2.65859H74.7837L75.7064 0.0841675H89.7176V2.65859Z" fill="#44486C"/>
<path fill-rule="evenodd" clip-rule="evenodd" d="M49.9052 0.0841675H63.7683L64.6796 2.66998C64.691 2.66998 49.9165 2.66998 49.9165 2.66998C49.9165 2.65859 49.9052 0.0841675 49.9052 0.0841675Z" fill="#44486C"/>
<path fill-rule="evenodd" clip-rule="evenodd" d="M38.9012 0.0841675C41.1909 0.300602 43.1729 1.12077 44.8702 2.65859H19.7411V0.0841683L38.9012 0.0841675Z" fill="#44486C"/>
<rect x="0.0113525" y="0.0841675" width="17.4628" height="2.57443" fill="#44486C"/>
<path fill-rule="evenodd" clip-rule="evenodd" d="M89.7177 7.48851H73.0751C73.0751 7.48851 73.9864 4.92548 73.975 4.92548H89.7177V7.48851H89.7177Z" fill="#44486C"/>
<path fill-rule="evenodd" clip-rule="evenodd" d="M66.3997 7.48851H49.9052V4.92548H65.4998L66.3997 7.48851Z" fill="#44486C"/>
<path fill-rule="evenodd" clip-rule="evenodd" d="M46.8181 4.92548C47.1484 5.76843 47.5357 6.49747 47.5357 7.48851H19.7296V4.92548H46.8181Z" fill="#44486C"/>
<rect x="0.0113525" y="4.92548" width="17.4628" height="2.56304" fill="#44486C"/>
<path fill-rule="evenodd" clip-rule="evenodd" d="M71.3777 12.3298L72.289 9.75537L84.7852 9.76676V12.3298H71.3777Z" fill="#44486C"/>
<path fill-rule="evenodd" clip-rule="evenodd" d="M67.1971 9.75537L68.1084 12.3298H54.8262V9.75537H67.1971Z" fill="#44486C"/>
<path fill-rule="evenodd" clip-rule="evenodd" d="M47.7636 9.75537C47.7636 10.6439 47.6496 11.5552 47.399 12.3298H39.7897V9.75537H47.7636Z" fill="#44486C"/>
<rect x="4.87549" y="9.76672" width="7.50685" height="2.56304" fill="#44486C"/>
<rect x="24.7875" y="9.75537" width="7.49545" height="2.57443" fill="#44486C"/>
<path fill-rule="evenodd" clip-rule="evenodd" d="M62.2077 15.1093V17.0572H54.8262V14.4941H68.8944L69.7715 16.8863L70.6145 14.4941H84.7852V17.0572H77.4378V15.1093L76.7544 17.0572H62.8798L62.2077 15.1093Z" fill="#44486C"/>
<path fill-rule="evenodd" clip-rule="evenodd" d="M24.7875 14.5055H46.2942C45.8272 15.3598 44.9728 16.4078 44.164 17.0685H24.7875C24.7875 17.0571 24.7875 14.5055 24.7875 14.5055Z" fill="#44486C"/>
<rect x="4.87549" y="14.5055" width="7.50685" height="2.56304" fill="#44486C"/>
<rect x="77.4377" y="19.3354" width="7.34737" height="2.56304" fill="#44486C"/>
<path fill-rule="evenodd" clip-rule="evenodd" d="M62.2077 19.3354H54.8262V21.8984H62.2077C62.2077 21.8984 62.2191 19.3354 62.2077 19.3354Z" fill="#44486C"/>
<path fill-rule="evenodd" clip-rule="evenodd" d="M75.9569 19.3354C75.9227 19.3354 75.0912 21.8984 75.057 21.8984H64.5998C64.5884 21.8984 63.6771 19.324 63.6771 19.3354H75.9569Z" fill="#44486C"/>
<path fill-rule="evenodd" clip-rule="evenodd" d="M24.7874 19.3354H44.1184C45.0069 20.0758 45.8043 20.9757 46.4194 21.8984C46.4536 21.8984 24.776 21.8984 24.776 21.8984C24.7874 21.8984 24.7874 19.3354 24.7874 19.3354Z" fill="#44486C"/>
<path fill-rule="evenodd" clip-rule="evenodd" d="M12.3823 21.8984V19.3354H4.88684V21.8984C4.88684 21.8984 12.3709 21.8984 12.3823 21.8984Z" fill="#44486C"/>
<rect x="77.4377" y="24.1653" width="7.34737" height="2.56303" fill="#44486C"/>
<rect x="54.8262" y="24.1653" width="7.38154" height="2.56303" fill="#44486C"/>
<path fill-rule="evenodd" clip-rule="evenodd" d="M73.3369 26.7398C73.3369 26.7284 74.2482 24.1653 74.2596 24.1653H65.363C65.3516 24.1653 66.2743 26.7284 66.2743 26.7284C66.2743 26.7284 73.3369 26.7512 73.3369 26.7398Z" fill="#44486C"/>
<path fill-rule="evenodd" clip-rule="evenodd" d="M24.7875 26.7284C24.7875 26.7398 24.7875 24.1653 24.7875 24.1653H32.3854C32.3854 24.1653 32.3968 26.7284 32.3854 26.7284H24.7875Z" fill="#44486C"/>
<path fill-rule="evenodd" clip-rule="evenodd" d="M47.4902 24.1653C47.8548 24.9399 47.9003 25.8626 47.9687 26.7398H39.915V24.1653H47.4902Z" fill="#44486C"/>
<rect x="4.88684" y="24.1653" width="7.49546" height="2.56303" fill="#44486C"/>
<rect x="77.4377" y="28.8927" width="12.2798" height="2.56303" fill="#44486C"/>
<rect x="49.9052" y="28.8927" width="12.2912" height="2.56303" fill="#44486C"/>
<path fill-rule="evenodd" clip-rule="evenodd" d="M71.6854 31.4557H67.9376L67.0377 28.8927H72.5511L71.6854 31.4557Z" fill="#44486C"/>
<path fill-rule="evenodd" clip-rule="evenodd" d="M0.0113525 28.8927V31.4557H17.4628C17.4742 31.4557 17.4514 28.8927 17.4628 28.8927C17.4628 28.9041 -0.0114301 28.8927 0.0113525 28.8927Z" fill="#44486C"/>
<path fill-rule="evenodd" clip-rule="evenodd" d="M47.6496 28.8927C47.4674 29.7357 47.2965 30.7723 46.6814 31.4557H46.4535H19.7296V28.8927H47.6496Z" fill="#44486C"/>
<path fill-rule="evenodd" clip-rule="evenodd" d="M69.988 36.297H69.6463L68.7692 33.7226H70.8879L69.988 36.297Z" fill="#44486C"/>
<rect x="77.4377" y="33.7226" width="12.2798" height="2.57443" fill="#44486C"/>
<path fill-rule="evenodd" clip-rule="evenodd" d="M19.7296 36.297V33.734C19.7296 33.734 44.9385 33.734 45.0068 33.734C43.3095 35.3516 40.9971 36.2629 38.491 36.297H19.7296Z" fill="#44486C"/>
<rect x="49.9052" y="33.7226" width="12.2912" height="2.57443" fill="#44486C"/>
<path fill-rule="evenodd" clip-rule="evenodd" d="M17.4514 33.734C17.4514 33.734 17.44 36.2856 17.4514 36.2856C17.4628 36.2856 0.0113902 36.297 0 36.2856V33.7112C0 33.734 17.4514 33.7454 17.4514 33.734Z" fill="#44486C"/>
</svg>
