<svg width="128" height="28" viewBox="0 0 128 28" fill="none" xmlns="http://www.w3.org/2000/svg">
<path fill-rule="evenodd" clip-rule="evenodd" d="M128 13.1376V10.902H125.223V7.42594L125.13 7.45482L122.522 8.25269L122.47 8.26838V10.902H118.354V9.43468C118.354 8.75167 118.507 8.2288 118.808 7.88033C119.107 7.53579 119.535 7.36067 120.08 7.36067C120.472 7.36067 120.877 7.45304 121.286 7.63566L121.388 7.68131V5.3266L121.34 5.30912C120.959 5.17216 120.441 5.10297 119.798 5.10297C118.988 5.10297 118.252 5.27916 117.611 5.62869C116.968 5.97823 116.463 6.47756 116.11 7.11243C115.757 7.74658 115.579 8.47881 115.579 9.28916V10.9024H113.645V13.138H115.579V22.5561H118.353V13.138H122.47V19.1235C122.47 21.5885 123.632 22.8375 125.925 22.8375C126.303 22.8375 126.699 22.7929 127.104 22.7066C127.516 22.6181 127.797 22.529 127.962 22.4348L127.999 22.4131V20.1568L127.886 20.2313C127.735 20.3316 127.548 20.4143 127.328 20.4749C127.108 20.537 126.923 20.5684 126.78 20.5684C126.243 20.5684 125.845 20.4236 125.599 20.1379C125.349 19.8493 125.222 19.345 125.222 18.6402V13.1383H128V13.1376H128ZM107.449 20.5677C106.442 20.5677 105.647 20.2339 105.087 19.5758C104.525 18.9145 104.239 17.9722 104.239 16.7742C104.239 15.5383 104.525 14.5718 105.088 13.8984C105.648 13.23 106.435 12.8908 107.427 12.8908C108.389 12.8908 109.155 13.2147 109.703 13.8545C110.255 14.4972 110.535 15.457 110.535 16.7071C110.535 17.9729 110.272 18.9445 109.753 19.5954C109.237 20.2403 108.462 20.5677 107.449 20.5677ZM107.573 10.621C105.651 10.621 104.125 11.1841 103.036 12.2945C101.948 13.4055 101.397 14.9427 101.397 16.8641C101.397 18.6884 101.935 20.1557 102.997 21.2257C104.058 22.295 105.503 22.8375 107.291 22.8375C109.154 22.8375 110.65 22.2665 111.738 21.1412C112.826 20.0159 113.376 18.493 113.376 16.6169C113.376 14.7633 112.86 13.2849 111.839 12.2224C110.818 11.1599 109.382 10.621 107.573 10.621ZM96.9226 10.621C95.615 10.621 94.534 10.9552 93.7076 11.6146C92.8765 12.2777 92.455 13.1476 92.455 14.2001C92.455 14.7476 92.5455 15.233 92.7246 15.6453C92.9058 16.0591 93.1836 16.4232 93.5542 16.7285C93.9219 17.0321 94.489 17.3491 95.2409 17.6723C95.8725 17.9323 96.3444 18.1523 96.644 18.3257C96.9365 18.4958 97.1448 18.6663 97.2617 18.8329C97.3752 18.9959 97.433 19.2181 97.433 19.4934C97.433 20.2763 96.8469 20.6579 95.6407 20.6579C95.1934 20.6579 94.682 20.5641 94.1234 20.3812C93.5642 20.196 93.041 19.9314 92.5702 19.5922L92.4553 19.5105V22.1816L92.497 22.2019C92.8901 22.3835 93.3851 22.5365 93.9683 22.656C94.5507 22.7765 95.08 22.8379 95.5398 22.8379C96.9582 22.8379 98.1006 22.5019 98.9338 21.8381C99.7734 21.1708 100.198 20.2809 100.198 19.191C100.198 18.4063 99.9696 17.7322 99.5184 17.1886C99.0704 16.6497 98.2922 16.1557 97.2075 15.7181C96.3437 15.371 95.7898 15.0836 95.5622 14.8628C95.3429 14.6488 95.2298 14.3474 95.2298 13.9651C95.2298 13.6259 95.3686 13.3548 95.6514 13.1348C95.9371 12.9136 96.3341 12.8013 96.833 12.8013C97.2956 12.8013 97.7686 12.8744 98.2387 13.0171C98.7087 13.1601 99.1221 13.3516 99.466 13.5863L99.5794 13.6637V11.1292L99.5362 11.1103C99.2177 10.9741 98.7986 10.8574 98.2893 10.7626C97.7821 10.6684 97.3224 10.621 96.9226 10.621ZM85.2206 20.5677C84.2134 20.5677 83.4184 20.2339 82.8599 19.5758C82.2963 18.9145 82.0114 17.9722 82.0114 16.7742C82.0114 15.5383 82.2963 14.5718 82.8599 13.8984C83.4191 13.23 84.2056 12.8908 85.1985 12.8908C86.1604 12.8908 86.9262 13.2147 87.4751 13.8545C88.0262 14.4972 88.3062 15.457 88.3062 16.7071C88.3062 17.9729 88.0436 18.9445 87.5247 19.5954C87.0083 20.2403 86.2336 20.5677 85.2206 20.5677ZM85.3441 10.621C83.4213 10.621 81.8952 11.1841 80.8077 12.2945C79.7195 13.4055 79.1677 14.9427 79.1677 16.8641C79.1677 18.6891 79.707 20.1557 80.7677 21.2257C81.8295 22.2954 83.2747 22.8375 85.0624 22.8375C86.9252 22.8375 88.4214 22.2665 89.5096 21.1412C90.5964 20.0159 91.1482 18.493 91.1482 16.6169C91.1482 14.7633 90.6313 13.2849 89.6099 12.2224C88.5898 11.1599 87.1546 10.621 85.3441 10.621ZM74.9554 12.9201V10.9017H72.2134V22.5554H74.9554V16.5941C74.9554 15.5801 75.1855 14.7473 75.6388 14.1188C76.0868 13.4971 76.6838 13.1822 77.4125 13.1822C77.659 13.1822 77.9365 13.2229 78.2368 13.3035C78.5342 13.3837 78.7497 13.4704 78.8763 13.5617L78.9911 13.6452V10.8813L78.9465 10.8624C78.6908 10.754 78.3299 10.6991 77.873 10.6991C77.1839 10.6991 76.5676 10.9202 76.0393 11.3561C75.5753 11.7391 75.2411 12.2645 74.9847 12.9193H74.9554V12.9201H74.9554ZM67.3047 10.621C66.0474 10.621 64.925 10.8906 63.9713 11.4224C63.0147 11.9549 62.276 12.7157 61.7728 13.6833C61.272 14.6488 61.0177 15.7759 61.0177 17.0324C61.0177 18.1338 61.2638 19.1439 61.7514 20.0348C62.2393 20.9265 62.9294 21.6245 63.8026 22.1081C64.6753 22.5914 65.6833 22.8368 66.7993 22.8368C68.1025 22.8368 69.2143 22.5768 70.1059 22.0621L70.1423 22.0418V19.5305L70.0275 19.6136C69.6234 19.9082 69.1722 20.1429 68.6864 20.3123C68.2017 20.4814 67.7591 20.5666 67.3717 20.5666C66.296 20.5666 65.4329 20.2306 64.8069 19.5669C64.1781 18.9017 63.8596 17.9694 63.8596 16.7952C63.8596 15.6136 64.192 14.6567 64.8465 13.9505C65.4992 13.2464 66.3645 12.8894 67.4177 12.8894C68.3183 12.8894 69.1968 13.1943 70.0271 13.7967L70.142 13.8802V11.2341L70.1049 11.213C69.7921 11.0379 69.3666 10.8935 68.8362 10.784C68.3105 10.6763 67.7944 10.621 67.3047 10.621ZM59.129 10.902H56.3873V22.5561H59.129V10.902ZM57.7862 5.93719C57.335 5.93719 56.942 6.09092 56.6189 6.39515C56.2939 6.70046 56.1292 7.08495 56.1292 7.53827C56.1292 7.98446 56.2921 8.36181 56.6128 8.65927C56.9324 8.95566 57.3272 9.10547 57.7862 9.10547C58.2456 9.10547 58.6412 8.95567 58.965 8.65963C59.2906 8.36217 59.4554 7.98482 59.4554 7.53827C59.4554 7.10064 59.2949 6.72044 58.9786 6.40764C58.6622 6.09555 58.2609 5.93719 57.7862 5.93719ZM50.9464 10.0421V22.5561H53.7441V6.29388H49.8725L44.9509 18.3728L40.174 6.29388H36.1444V22.5561H38.7734V10.0407H38.8636L43.9073 22.5554H45.8914L50.8562 10.0417L50.9464 10.0421Z" fill="#44486C"/>
<path fill-rule="evenodd" clip-rule="evenodd" d="M13.77 13.7561H0.873657V0.859741H13.7697V13.7561H13.77Z" fill="#44486C"/>
<path fill-rule="evenodd" clip-rule="evenodd" d="M28.0084 13.7561H15.1124V0.859741H28.0084V13.7561H28.0084Z" fill="#44486C"/>
<path fill-rule="evenodd" clip-rule="evenodd" d="M13.7696 27.9999H0.873291V15.1036H13.7693V27.9999H13.7696Z" fill="#44486C"/>
<path fill-rule="evenodd" clip-rule="evenodd" d="M28.0084 27.9999H15.1124V15.1036H28.0084V27.9999H28.0084Z" fill="#44486C"/>
</svg>
