<svg xmlns="http://www.w3.org/2000/svg" xmlns:xlink="http://www.w3.org/1999/xlink" viewBox="0 0 800 500"><defs><linearGradient id="a" x1="235.36" y1="333.66" x2="186.12" y2="193.41" gradientUnits="userSpaceOnUse"><stop offset="0" stop-color="#8033eb"/><stop offset="1" stop-color="#1eb900"/></linearGradient><linearGradient id="b" x1="225.98" y1="324.28" x2="176.74" y2="184.03" xlink:href="#a"/><linearGradient id="c" x1="216.23" y1="314.92" x2="166.99" y2="174.67" xlink:href="#a"/><linearGradient id="d" x1="466.57" y1="324.29" x2="417.34" y2="184.04" xlink:href="#a"/></defs><title>Artboard 2 copy 16</title><g style="isolation:isolate"><path d="M383.5,259.25S305.41,299.39,267.59,280s-41.27-53.14-26.15-106.65,52.61-83.9,110.73-44S447.53,221.34,383.5,259.25Z" style="fill:#f2f2f2"/><path d="M542.13,169a45.29,45.29,0,1,1-45.29-45.28A45.29,45.29,0,0,1,542.13,169Z" style="fill:#f2f2f2"/><path d="M696.65,298.14a19.77,19.77,0,1,1-19.77-19.78A19.77,19.77,0,0,1,696.65,298.14Z" style="fill:#f2f2f2"/><path d="M173,107.75A19.77,19.77,0,1,1,153.22,88,19.77,19.77,0,0,1,173,107.75Z" style="fill:#f2f2f2"/><path d="M410.14,337.37a15.59,15.59,0,1,1-15.59-15.59A15.59,15.59,0,0,1,410.14,337.37Z" style="fill:#f2f2f2"/><rect x="116.72" y="188.87" width="167.85" height="91.83" style="fill:url(#a)"/><path d="M274.81,260.28v-51a11.06,11.06,0,0,1-11.06-11.06H137.54a11.06,11.06,0,0,1-11.06,11.06v51a11.06,11.06,0,0,1,11.06,11.06H263.75A11.06,11.06,0,0,1,274.81,260.28Z" style="fill:none;stroke:#fff;stroke-linecap:round;stroke-linejoin:round;stroke-width:1.7459300000000002px"/><path d="M146.24,223.57a.94.94,0,0,1,.91.91v.94a10,10,0,0,1,4.82,1.83,1.16,1.16,0,0,1,.57.94,1,1,0,0,1-1.09,1,.93.93,0,0,1-.62-.2,8.64,8.64,0,0,0-3.76-1.65v7c4.33,1,6.15,2.65,6.15,5.53,0,3-2.51,5.15-6.07,5.38v2a.91.91,0,1,1-1.82,0v-2.08a11.39,11.39,0,0,1-6.19-2.53,1.06,1.06,0,0,1-.48-.91,1,1,0,0,1,1.05-1,1.08,1.08,0,0,1,.66.23,9.23,9.23,0,0,0,5,2.34v-7.16c-4.21-1-6.07-2.56-6.07-5.55s2.48-5.1,6-5.27v-.89A.93.93,0,0,1,146.24,223.57ZM145.41,234v-6.72c-2.42.11-3.87,1.48-3.87,3.22S142.31,233.17,145.41,234Zm1.66,2.56v6.87c2.45-.14,4-1.48,4-3.36C151,238.39,150.17,237.36,147.07,236.56Z" style="fill:#fff"/><path d="M255.4,223.57a.94.94,0,0,1,.91.91v.94a10,10,0,0,1,4.81,1.83,1.14,1.14,0,0,1,.57.94,1,1,0,0,1-1.08,1,.93.93,0,0,1-.62-.2,8.63,8.63,0,0,0-3.77-1.65v7c4.33,1,6.16,2.65,6.16,5.53,0,3-2.51,5.15-6.07,5.38v2a.91.91,0,1,1-1.82,0v-2.08a11.35,11.35,0,0,1-6.19-2.53,1.06,1.06,0,0,1-.48-.91,1,1,0,0,1,1.05-1,1.08,1.08,0,0,1,.66.23,9.2,9.2,0,0,0,5,2.34v-7.16c-4.22-1-6.07-2.56-6.07-5.55s2.48-5.1,6-5.27v-.89A.93.93,0,0,1,255.4,223.57ZM254.57,234v-6.72c-2.42.11-3.87,1.48-3.87,3.22S251.46,233.17,254.57,234Zm1.65,2.56v6.87c2.45-.14,4-1.48,4-3.36C260.18,238.39,259.33,237.36,256.22,236.56Z" style="fill:#fff"/><path d="M232.58,236.75c0,9.05-14.3,16.39-31.93,16.39s-31.94-7.34-31.94-16.39,14.3-16.39,31.94-16.39S232.58,227.7,232.58,236.75Z" style="fill:none;stroke:#fff;stroke-linecap:round;stroke-linejoin:round;stroke-width:1.7459300000000002px"/><polygon points="116.72 271.34 116.72 274.88 279.01 274.88 279.01 188.87 274.81 188.87 274.81 271.34 116.72 271.34" style="fill:#ccc;mix-blend-mode:multiply"/><rect x="107.35" y="179.49" width="167.85" height="91.83" style="fill:url(#b)"/><path d="M265.44,250.91v-51a11.07,11.07,0,0,1-11.07-11.07H128.17a11.07,11.07,0,0,1-11.07,11.07v51A11.07,11.07,0,0,1,128.17,262h126.2A11.07,11.07,0,0,1,265.44,250.91Z" style="fill:none;stroke:#fff;stroke-linecap:round;stroke-linejoin:round;stroke-width:1.7459300000000002px"/><path d="M136.86,214.2a.94.94,0,0,1,.92.91v.94a10.06,10.06,0,0,1,4.81,1.82,1.16,1.16,0,0,1,.57.94,1,1,0,0,1-1.08,1,1,1,0,0,1-.63-.2,8.59,8.59,0,0,0-3.76-1.65v7c4.33,1,6.15,2.65,6.15,5.53,0,3-2.5,5.16-6.06,5.39v2a.92.92,0,0,1-1.83,0v-2.08a11.29,11.29,0,0,1-6.18-2.54,1.06,1.06,0,0,1-.49-.91,1,1,0,0,1,1.06-1,1.13,1.13,0,0,1,.66.22,9.1,9.1,0,0,0,5,2.34v-7.15c-4.22-1-6.07-2.57-6.07-5.56s2.48-5.1,6-5.27v-.88A.93.93,0,0,1,136.86,214.2ZM136,224.63V217.9c-2.42.11-3.88,1.48-3.88,3.22S132.93,223.8,136,224.63Zm1.65,2.56v6.87c2.45-.15,4-1.49,4-3.37C141.65,229,140.8,228,137.69,227.19Z" style="fill:#fff"/><path d="M246,214.2a.93.93,0,0,1,.91.91v.94a10.1,10.1,0,0,1,4.82,1.82,1.16,1.16,0,0,1,.57.94,1,1,0,0,1-1.08,1,1,1,0,0,1-.63-.2,8.59,8.59,0,0,0-3.76-1.65v7c4.33,1,6.15,2.65,6.15,5.53,0,3-2.5,5.16-6.07,5.39v2a.91.91,0,0,1-1.82,0v-2.08a11.26,11.26,0,0,1-6.18-2.54,1,1,0,0,1,.57-1.93,1.07,1.07,0,0,1,.65.22,9.16,9.16,0,0,0,5,2.34v-7.15c-4.22-1-6.07-2.57-6.07-5.56s2.48-5.1,6-5.27v-.88A.93.93,0,0,1,246,214.2Zm-.82,10.43V217.9c-2.43.11-3.88,1.48-3.88,3.22S242.09,223.8,245.2,224.63Zm1.65,2.56v6.87c2.45-.15,4-1.49,4-3.37C250.81,229,250,228,246.85,227.19Z" style="fill:#fff"/><path d="M223.21,227.37c0,9-14.3,16.39-31.94,16.39s-31.94-7.34-31.94-16.39S173.63,211,191.27,211,223.21,218.32,223.21,227.37Z" style="fill:none;stroke:#fff;stroke-linecap:round;stroke-linejoin:round;stroke-width:1.7459300000000002px"/><rect x="97.59" y="170.13" width="167.85" height="91.83" style="fill:url(#c)"/><path d="M255.68,241.55v-51a11.06,11.06,0,0,1-11.06-11.07H118.41a11.06,11.06,0,0,1-11.06,11.07v51a11.06,11.06,0,0,1,11.06,11.06H244.62A11.06,11.06,0,0,1,255.68,241.55Z" style="fill:none;stroke:#fff;stroke-linecap:round;stroke-linejoin:round;stroke-width:1.7459300000000002px"/><path d="M127.11,204.84a.93.93,0,0,1,.91.91v.94a10.06,10.06,0,0,1,4.81,1.82,1.16,1.16,0,0,1,.58.94,1,1,0,0,1-1.09,1,.93.93,0,0,1-.62-.2,8.63,8.63,0,0,0-3.77-1.65v7c4.34,1,6.16,2.65,6.16,5.52,0,3.05-2.51,5.16-6.07,5.39v2a.91.91,0,0,1-1.82,0v-2.08A11.39,11.39,0,0,1,120,224a1.08,1.08,0,0,1-.48-.92,1,1,0,0,1,1-1,1,1,0,0,1,.66.23,9.21,9.21,0,0,0,5,2.33v-7.15c-4.21-1-6.07-2.56-6.07-5.56s2.48-5.1,6-5.27v-.88A.93.93,0,0,1,127.11,204.84Zm-.83,10.43v-6.73c-2.42.12-3.87,1.48-3.87,3.22S123.18,214.44,126.28,215.27Zm1.65,2.56v6.87c2.45-.15,4-1.48,4-3.37C131.9,219.65,131,218.63,127.93,217.83Z" style="fill:#fff"/><path d="M236.27,204.84a.93.93,0,0,1,.91.91v.94a10.06,10.06,0,0,1,4.81,1.82,1.15,1.15,0,0,1,.57.94,1,1,0,0,1-1.08,1,1,1,0,0,1-.63-.2,8.54,8.54,0,0,0-3.76-1.65v7c4.33,1,6.16,2.65,6.16,5.52,0,3.05-2.51,5.16-6.07,5.39v2a.92.92,0,0,1-1.83,0v-2.08a11.35,11.35,0,0,1-6.18-2.53,1.08,1.08,0,0,1-.48-.92,1.05,1.05,0,0,1,1.71-.79,9.18,9.18,0,0,0,5,2.33v-7.15c-4.22-1-6.07-2.56-6.07-5.56s2.48-5.1,6-5.27v-.88A.94.94,0,0,1,236.27,204.84Zm-.83,10.43v-6.73c-2.42.12-3.87,1.48-3.87,3.22S232.33,214.44,235.44,215.27Zm1.65,2.56v6.87c2.45-.15,4-1.48,4-3.37C241.05,219.65,240.2,218.63,237.09,217.83Z" style="fill:#fff"/><path d="M213.45,218c0,9.06-14.3,16.39-31.94,16.39s-31.93-7.33-31.93-16.39,14.3-16.39,31.93-16.39S213.45,209,213.45,218Z" style="fill:none;stroke:#fff;stroke-linecap:round;stroke-linejoin:round;stroke-width:1.7459300000000002px"/><polygon points="107.35 261.97 107.35 265.51 269.63 265.51 269.63 179.49 265.44 179.49 265.44 261.97 107.35 261.97" style="fill:#ccc;mix-blend-mode:multiply"/><line x1="345.82" y1="94.87" x2="274.81" y2="386.31" style="fill:none;stroke:#f94f24;stroke-linecap:round;stroke-miterlimit:10;stroke-dasharray:5.701079845428467,5.73153018951416"/><line x1="584.74" y1="94.87" x2="513.73" y2="386.31" style="fill:none;stroke:#f94f24;stroke-linecap:round;stroke-miterlimit:10;stroke-dasharray:5.701079845428467,5.73153018951416"/><rect x="347.94" y="179.5" width="167.85" height="91.83" style="fill:url(#d)"/><path d="M506,250.91v-51A11.07,11.07,0,0,1,495,188.86H368.76a11.07,11.07,0,0,1-11.07,11.07v51A11.07,11.07,0,0,1,368.76,262H495A11.07,11.07,0,0,1,506,250.91Z" style="fill:none;stroke:#fff;stroke-linecap:round;stroke-linejoin:round;stroke-width:1.7459300000000002px"/><path d="M377.46,214.2a.94.94,0,0,1,.91.92v.94a10,10,0,0,1,4.81,1.82,1.14,1.14,0,0,1,.57.94,1,1,0,0,1-1.08,1,1,1,0,0,1-.63-.2,8.5,8.5,0,0,0-3.76-1.66v7c4.33,1,6.16,2.65,6.16,5.53,0,3.05-2.51,5.16-6.07,5.38v2a.92.92,0,0,1-1.83,0v-2.08a11.37,11.37,0,0,1-6.18-2.54,1.06,1.06,0,0,1-.48-.91,1,1,0,0,1,1.05-1,1.1,1.1,0,0,1,.66.23,9.2,9.2,0,0,0,5,2.34v-7.15c-4.22-1-6.07-2.57-6.07-5.56s2.48-5.1,6-5.27v-.88A.94.94,0,0,1,377.46,214.2Zm-.83,10.43v-6.72c-2.42.11-3.88,1.48-3.88,3.22S373.52,223.81,376.63,224.63Zm1.65,2.57v6.86c2.45-.14,4-1.48,4-3.36C382.24,229,381.39,228,378.28,227.2Z" style="fill:#fff"/><path d="M486.61,214.2a.94.94,0,0,1,.92.92v.94a10,10,0,0,1,4.81,1.82,1.16,1.16,0,0,1,.57.94,1,1,0,0,1-1.08,1,1,1,0,0,1-.63-.2,8.5,8.5,0,0,0-3.76-1.66v7c4.33,1,6.15,2.65,6.15,5.53,0,3.05-2.5,5.16-6.06,5.38v2a.92.92,0,0,1-1.83,0v-2.08a11.37,11.37,0,0,1-6.18-2.54,1.07,1.07,0,0,1-.49-.91,1.05,1.05,0,0,1,1.06-1,1.13,1.13,0,0,1,.66.23,9.16,9.16,0,0,0,5,2.34v-7.15c-4.22-1-6.07-2.57-6.07-5.56s2.48-5.1,6-5.27v-.88A.94.94,0,0,1,486.61,214.2Zm-.82,10.43v-6.72c-2.42.11-3.88,1.48-3.88,3.22S482.68,223.81,485.79,224.63Zm1.65,2.57v6.86c2.45-.14,4-1.48,4-3.36C491.4,229,490.55,228,487.44,227.2Z" style="fill:#fff"/><ellipse cx="431.86" cy="227.38" rx="31.94" ry="16.39" style="fill:none;stroke:#fff;stroke-linecap:round;stroke-linejoin:round;stroke-width:1.7459300000000002px"/><path d="M656.13,244.65a37.24,37.24,0,1,1-37.23-37.23A37.23,37.23,0,0,1,656.13,244.65Z" style="fill:#ffc300"/><path d="M618.9,277.84a37.23,37.23,0,0,1-37.18-35.21c0,.67-.06,1.34-.06,2a37.24,37.24,0,0,0,74.47,0c0-.68,0-1.35-.06-2A37.23,37.23,0,0,1,618.9,277.84Z" style="fill:#ffd448"/><path d="M646.93,244.65a28,28,0,1,1-28-28A28,28,0,0,1,646.93,244.65Z" style="fill:#ffd651"/><path d="M618.9,219.59a28,28,0,0,1,28,26c0-.67.08-1.34.08-2a28,28,0,0,0-56.07,0c0,.68,0,1.35.08,2A28,28,0,0,1,618.9,219.59Z" style="fill:#ffac00"/><path d="M619.2,232.31a.94.94,0,0,1,.91.91v.95a9.86,9.86,0,0,1,4.81,1.82,1.14,1.14,0,0,1,.57.94,1,1,0,0,1-1.08,1,.92.92,0,0,1-.63-.2A8.59,8.59,0,0,0,620,236.1v7c4.33,1,6.16,2.65,6.16,5.53,0,3-2.51,5.15-6.07,5.38v2a.92.92,0,0,1-1.83,0V254a11.44,11.44,0,0,1-6.18-2.54,1.06,1.06,0,0,1-.48-.91,1,1,0,0,1,1-1,1.13,1.13,0,0,1,.66.23,9.2,9.2,0,0,0,5,2.34v-7.16c-4.22-1-6.07-2.56-6.07-5.55s2.48-5.1,6-5.27v-.89A.94.94,0,0,1,619.2,232.31Zm-.83,10.43V236c-2.42.11-3.88,1.48-3.88,3.22S615.26,241.91,618.37,242.74ZM620,245.3v6.87c2.45-.14,4-1.48,4-3.36C624,247.13,623.13,246.1,620,245.3Z" style="fill:#ffac00"/><path d="M645.84,172a37.23,37.23,0,1,0,37.24,37.23A37.23,37.23,0,0,0,645.84,172Z" style="fill:#e5e5e5;mix-blend-mode:multiply"/><path d="M686.08,206.19A37.23,37.23,0,1,1,648.85,169,37.23,37.23,0,0,1,686.08,206.19Z" style="fill:#ffc300"/><path d="M648.85,239.38a37.23,37.23,0,0,1-37.18-35.21c0,.67,0,1.34,0,2a37.23,37.23,0,0,0,74.46,0c0-.68,0-1.35-.06-2A37.23,37.23,0,0,1,648.85,239.38Z" style="fill:#ffd448"/><path d="M676.88,206.19a28,28,0,1,1-28-28A28,28,0,0,1,676.88,206.19Z" style="fill:#ffd651"/><path d="M648.85,181.13a28,28,0,0,1,27.95,26c.05-.67.08-1.34.08-2a28,28,0,1,0-56.07,0c0,.68,0,1.35.08,2A28,28,0,0,1,648.85,181.13Z" style="fill:#ffac00"/><path d="M649.15,193.85a.94.94,0,0,1,.91.91v.94a10,10,0,0,1,4.81,1.83,1.12,1.12,0,0,1,.57.94,1,1,0,0,1-1.08,1,1,1,0,0,1-.63-.2,8.59,8.59,0,0,0-3.76-1.65v7c4.33,1,6.16,2.65,6.16,5.52,0,3.05-2.51,5.16-6.07,5.39v2a.92.92,0,0,1-1.83,0v-2.08a11.35,11.35,0,0,1-6.18-2.53,1.08,1.08,0,0,1-.48-.92,1.05,1.05,0,0,1,1.71-.79,9.11,9.11,0,0,0,5,2.33v-7.15c-4.22-1-6.07-2.56-6.07-5.55s2.48-5.1,6-5.27v-.89A.94.94,0,0,1,649.15,193.85Zm-.83,10.43v-6.73c-2.42.12-3.87,1.49-3.87,3.22S645.21,203.45,648.32,204.28Zm1.65,2.56v6.87c2.45-.14,4-1.48,4-3.36C653.93,208.67,653.08,207.64,650,206.84Z" style="fill:#ffac00"/></g></svg>