<svg xmlns="http://www.w3.org/2000/svg" xmlns:xlink="http://www.w3.org/1999/xlink" viewBox="0 0 800 500"><defs><linearGradient id="a" x1="589.33" y1="250.16" x2="531.94" y2="329.42" gradientUnits="userSpaceOnUse"><stop offset="0" stop-color="#8033eb"/><stop offset="0.53" stop-color="#d4648e"/><stop offset="1" stop-color="#ec7071"/></linearGradient><linearGradient id="b" x1="589.33" y1="111.01" x2="531.94" y2="190.27" xlink:href="#a"/><linearGradient id="c" x1="589.33" y1="389.31" x2="531.94" y2="468.57" xlink:href="#a"/></defs><title>Artboard 2 copy 14</title><g style="isolation:isolate"><path d="M130.18,264s84.67,20.85,100.39,60-3.74,66.72-50,96.94S86.5,449.51,69,381.72,57.49,250.67,130.18,264Z" style="fill:#f2f2f2"/><path d="M320.06,82.77a26.84,26.84,0,1,1-26.83-26.83A26.84,26.84,0,0,1,320.06,82.77Z" style="fill:#f2f2f2"/><path d="M693.62,195.23a16.89,16.89,0,1,1-16.89-16.89A16.89,16.89,0,0,1,693.62,195.23Z" style="fill:#f2f2f2"/><path d="M354.79,391a16.89,16.89,0,1,1-16.89-16.89A16.9,16.9,0,0,1,354.79,391Z" style="fill:#f2f2f2"/><path d="M478.15,185.53a16.89,16.89,0,1,1-16.89-16.89A16.89,16.89,0,0,1,478.15,185.53Z" style="fill:#f2f2f2"/><polygon points="551.33 227.99 589.45 205.98 627.57 227.99 627.57 272.01 589.45 294.02 551.33 272.01 551.33 227.99" style="fill:url(#a)"/><polygon points="539.62 221.23 589.45 192.46 639.28 221.23 639.28 278.77 589.45 307.54 539.62 278.77 539.62 221.23" style="fill:none;stroke:#e5e5e5;stroke-miterlimit:10;stroke-width:6.377260000000001px"/><path d="M615.72,253.42c-.17-2.12-.36-4.24-.55-6.36-.08-.88-.39-1.16-1.28-1.18-1.57,0-3.14-.1-4.71-.13a.93.93,0,0,1-1-.74,8.39,8.39,0,0,0-.91-2c-.84-1.27-1.74-2.48-2.66-3.68a.79.79,0,0,1-.16-.87c.32-.82.61-1.65.9-2.48s.63-1.89.94-2.83c.15-.91-.71-1.26-1.72-1.82-1.62-.83-3.22-1.69-4.85-2.5-.72-.35-1.12-.19-1.56.47q-1.39,2.11-2.78,4.23a.56.56,0,0,1-.66.3,18,18,0,0,0-8.1.25.77.77,0,0,1-.61-.2q-1.85-2-3.64-4.08c-.6-.67-1-.72-1.77-.19-1.73,1.22-3.45,2.43-5.19,3.62-.78.54-.94,1-.5,1.84q1.17,2.18,2.36,4.35a.58.58,0,0,1-.08.76,23.42,23.42,0,0,0-1.9,2.84,38,38,0,0,0-1.51,3.66.74.74,0,0,1-.62.56c-1.71.31-3.42.66-5.13,1-1.07.21-1.24.42-1.17,1.52.14,2.1.31,4.2.45,6.31.06.91.36,1.22,1.28,1.26,1.65.07,3.3.15,4.94.2a.66.66,0,0,1,.69.52,18.53,18.53,0,0,0,4.34,6.72.86.86,0,0,1,.1.69c-.53,1.72-1.09,3.43-1.64,5.15a1.13,1.13,0,0,0,.71,1.57c2,.91,4,1.83,6,2.7a1,1,0,0,0,.92-.13,7.9,7.9,0,0,0,1.33-1.55c.69-1,1.29-2.14,2-3.19a.78.78,0,0,1,.58-.3,18.35,18.35,0,0,0,7.41-.45.79.79,0,0,1,.65.17c1.17,1.28,2.33,2.59,3.47,3.91.77.88,1.16,1,2.1.34q2.63-1.81,5.22-3.68a1.06,1.06,0,0,0,.38-1.58c-.8-1.54-1.63-3.05-2.42-4.58a.65.65,0,0,1,0-.58,18.52,18.52,0,0,0,3.45-6.7.72.72,0,0,1,.66-.59q2.53-.48,5.07-1C615.61,254.77,615.8,254.54,615.72,253.42Zm-24.44,9.22a10.82,10.82,0,1,1,10.81-10.82A10.81,10.81,0,0,1,591.28,262.64Z" style="fill:none;stroke:#ccc;stroke-miterlimit:10;stroke-width:2.7331100000000004px;fill-rule:evenodd;mix-blend-mode:multiply"/><path d="M613.89,251.6c-.16-2.13-.36-4.25-.54-6.37-.08-.88-.39-1.15-1.29-1.18-1.56,0-3.13-.1-4.7-.13a.94.94,0,0,1-1-.73,7.91,7.91,0,0,0-.91-2c-.83-1.26-1.74-2.47-2.65-3.68a.79.79,0,0,1-.17-.86c.33-.82.62-1.66.91-2.49s.63-1.88.94-2.82c.14-.91-.71-1.26-1.72-1.82-1.62-.84-3.22-1.7-4.85-2.5-.72-.35-1.12-.2-1.57.47-.93,1.41-1.86,2.81-2.78,4.23a.54.54,0,0,1-.65.29,18,18,0,0,0-8.1.26.8.8,0,0,1-.62-.21c-1.23-1.34-2.43-2.71-3.64-4.07-.59-.68-1-.72-1.77-.19-1.72,1.21-3.45,2.43-5.19,3.62-.77.53-.93,1-.49,1.83.78,1.46,1.56,2.91,2.36,4.35a.61.61,0,0,1-.08.76,23,23,0,0,0-1.9,2.84,34.34,34.34,0,0,0-1.51,3.66.74.74,0,0,1-.62.56c-1.72.32-3.43.66-5.14,1-1.06.21-1.24.42-1.16,1.52.14,2.11.31,4.21.45,6.31.06.91.36,1.23,1.27,1.27,1.65.06,3.3.15,4.95.19a.64.64,0,0,1,.68.53A18.61,18.61,0,0,0,576.7,263a.81.81,0,0,1,.11.69c-.53,1.72-1.09,3.43-1.64,5.14a1.13,1.13,0,0,0,.71,1.58c2,.91,4,1.83,6,2.7a1,1,0,0,0,.93-.13,8.52,8.52,0,0,0,1.33-1.55c.68-1,1.28-2.14,2-3.19a.69.69,0,0,1,.57-.3,18.35,18.35,0,0,0,7.41-.45.77.77,0,0,1,.65.16c1.18,1.29,2.33,2.6,3.48,3.92.76.88,1.16,1,2.09.34q2.64-1.81,5.23-3.68a1.09,1.09,0,0,0,.38-1.59c-.8-1.53-1.63-3-2.43-4.57a.69.69,0,0,1,0-.58,18.25,18.25,0,0,0,3.45-6.71.74.74,0,0,1,.66-.58c1.7-.33,3.39-.66,5.08-1C613.79,253,614,252.71,613.89,251.6Zm-24.44,9.22A10.82,10.82,0,1,1,600.27,250,10.82,10.82,0,0,1,589.45,260.82Z" style="fill:none;stroke:#fff;stroke-miterlimit:10;stroke-width:2.7331100000000004px;fill-rule:evenodd"/><polygon points="551.33 88.84 589.45 66.83 627.57 88.84 627.57 132.86 589.45 154.87 551.33 132.86 551.33 88.84" style="fill:url(#b)"/><polygon points="539.62 82.08 589.45 53.31 639.28 82.08 639.28 139.62 589.45 168.39 539.62 139.62 539.62 82.08" style="fill:none;stroke:#e5e5e5;stroke-miterlimit:10;stroke-width:6.377260000000001px"/><path d="M615.72,114.27c-.17-2.12-.36-4.24-.55-6.36-.08-.88-.39-1.16-1.28-1.18-1.57,0-3.14-.1-4.71-.13a.93.93,0,0,1-1-.74,8.39,8.39,0,0,0-.91-2c-.84-1.27-1.74-2.48-2.66-3.68a.79.79,0,0,1-.16-.87c.32-.82.61-1.65.9-2.48S606,95,606.26,94c.15-.91-.71-1.26-1.72-1.82-1.62-.83-3.22-1.69-4.85-2.5-.72-.35-1.12-.19-1.56.47q-1.39,2.11-2.78,4.24a.56.56,0,0,1-.66.29,18,18,0,0,0-8.1.25.77.77,0,0,1-.61-.2q-1.85-2-3.64-4.08c-.6-.68-1-.72-1.77-.18-1.73,1.21-3.45,2.42-5.19,3.61-.78.54-.94,1-.5,1.84q1.17,2.17,2.36,4.35a.58.58,0,0,1-.08.76,23.42,23.42,0,0,0-1.9,2.84,38,38,0,0,0-1.51,3.66.74.74,0,0,1-.62.56c-1.71.31-3.42.66-5.13,1-1.07.21-1.24.42-1.17,1.52.14,2.1.31,4.2.45,6.31.06.91.36,1.22,1.28,1.26,1.65.07,3.3.16,4.94.2a.65.65,0,0,1,.69.52,18.53,18.53,0,0,0,4.34,6.72.86.86,0,0,1,.1.69c-.53,1.72-1.09,3.43-1.64,5.15a1.13,1.13,0,0,0,.71,1.57c2,.91,4,1.83,6,2.7a1,1,0,0,0,.92-.13,7.9,7.9,0,0,0,1.33-1.55c.69-1,1.29-2.14,2-3.19a.78.78,0,0,1,.58-.3,18.17,18.17,0,0,0,7.41-.45.79.79,0,0,1,.65.17c1.17,1.28,2.33,2.59,3.47,3.91.77.89,1.16,1,2.1.34q2.63-1.81,5.22-3.68a1.06,1.06,0,0,0,.38-1.58c-.8-1.54-1.63-3.05-2.42-4.58a.65.65,0,0,1,0-.58,18.52,18.52,0,0,0,3.45-6.7.72.72,0,0,1,.66-.59q2.53-.48,5.07-1C615.61,115.62,615.8,115.39,615.72,114.27Zm-24.44,9.22a10.82,10.82,0,1,1,10.81-10.82A10.81,10.81,0,0,1,591.28,123.49Z" style="fill:none;stroke:#ccc;stroke-miterlimit:10;stroke-width:2.7331100000000004px;fill-rule:evenodd;mix-blend-mode:multiply"/><path d="M613.89,112.45c-.16-2.13-.36-4.25-.54-6.37-.08-.88-.39-1.15-1.29-1.18-1.56,0-3.13-.1-4.7-.13a.94.94,0,0,1-1-.73,7.91,7.91,0,0,0-.91-2c-.83-1.26-1.74-2.47-2.65-3.68a.79.79,0,0,1-.17-.86c.33-.82.62-1.66.91-2.49s.63-1.88.94-2.82c.14-.91-.71-1.26-1.72-1.82-1.62-.84-3.22-1.7-4.85-2.5-.72-.35-1.12-.2-1.57.47q-1.39,2.1-2.78,4.23a.54.54,0,0,1-.65.29,18,18,0,0,0-8.1.26.77.77,0,0,1-.62-.21c-1.23-1.34-2.43-2.71-3.64-4.07-.59-.68-1-.72-1.77-.19-1.72,1.21-3.45,2.43-5.19,3.62-.77.53-.93,1-.49,1.83.78,1.46,1.56,2.91,2.36,4.35a.61.61,0,0,1-.08.76,23.15,23.15,0,0,0-1.9,2.85,33.34,33.34,0,0,0-1.51,3.65.74.74,0,0,1-.62.56c-1.72.32-3.43.66-5.14,1-1.06.21-1.24.42-1.16,1.53.14,2.1.31,4.2.45,6.3.06.91.36,1.23,1.27,1.27,1.65.06,3.3.15,4.95.19a.64.64,0,0,1,.68.53,18.61,18.61,0,0,0,4.34,6.72.81.81,0,0,1,.11.69c-.53,1.72-1.09,3.43-1.64,5.14a1.13,1.13,0,0,0,.71,1.58c2,.91,4,1.83,6,2.7a1,1,0,0,0,.93-.13,8.52,8.52,0,0,0,1.33-1.55c.68-1,1.28-2.14,2-3.19a.69.69,0,0,1,.57-.3,18.35,18.35,0,0,0,7.41-.45.77.77,0,0,1,.65.16c1.18,1.29,2.33,2.6,3.48,3.92.76.88,1.16,1,2.09.34q2.64-1.81,5.23-3.68a1.08,1.08,0,0,0,.38-1.59c-.8-1.53-1.63-3-2.43-4.57a.69.69,0,0,1,0-.58,18.25,18.25,0,0,0,3.45-6.71.74.74,0,0,1,.66-.58c1.7-.33,3.39-.66,5.08-1C613.79,113.8,614,113.56,613.89,112.45Zm-24.44,9.22a10.82,10.82,0,1,1,10.82-10.82A10.82,10.82,0,0,1,589.45,121.67Z" style="fill:none;stroke:#fff;stroke-miterlimit:10;stroke-width:2.7331100000000004px;fill-rule:evenodd"/><polygon points="551.33 367.14 589.45 345.13 627.57 367.14 627.57 411.16 589.45 433.17 551.33 411.16 551.33 367.14" style="fill:url(#c)"/><polygon points="539.62 360.38 589.45 331.61 639.28 360.38 639.28 417.92 589.45 446.69 539.62 417.92 539.62 360.38" style="fill:none;stroke:#e5e5e5;stroke-miterlimit:10;stroke-width:6.377260000000001px"/><path d="M615.72,392.57c-.17-2.12-.36-4.24-.55-6.36-.08-.88-.39-1.16-1.28-1.18-1.57,0-3.14-.1-4.71-.13a.93.93,0,0,1-1-.73,8.28,8.28,0,0,0-.91-2c-.84-1.27-1.74-2.48-2.66-3.68a.79.79,0,0,1-.16-.87c.32-.82.61-1.65.9-2.48s.63-1.89.94-2.83c.15-.91-.71-1.26-1.72-1.82-1.62-.83-3.22-1.69-4.85-2.5-.72-.35-1.12-.19-1.56.47q-1.39,2.11-2.78,4.23a.56.56,0,0,1-.66.3,18,18,0,0,0-8.1.25.77.77,0,0,1-.61-.2q-1.85-2-3.64-4.08c-.6-.67-1-.72-1.77-.19-1.73,1.22-3.45,2.43-5.19,3.62-.78.54-.94,1-.5,1.84q1.17,2.17,2.36,4.35a.58.58,0,0,1-.08.76,23.42,23.42,0,0,0-1.9,2.84,38,38,0,0,0-1.51,3.66.74.74,0,0,1-.62.56c-1.71.31-3.42.66-5.13,1-1.07.21-1.24.42-1.17,1.52.14,2.1.31,4.2.45,6.31.06.91.36,1.22,1.28,1.26,1.65.07,3.3.16,4.94.2a.66.66,0,0,1,.69.52,18.53,18.53,0,0,0,4.34,6.72.86.86,0,0,1,.1.69c-.53,1.72-1.09,3.43-1.64,5.15a1.13,1.13,0,0,0,.71,1.57c2,.91,4,1.83,6,2.7a1,1,0,0,0,.92-.13,7.9,7.9,0,0,0,1.33-1.55c.69-1,1.29-2.14,2-3.19a.78.78,0,0,1,.58-.3,18.35,18.35,0,0,0,7.41-.45.79.79,0,0,1,.65.17c1.17,1.28,2.33,2.59,3.47,3.91.77.89,1.16,1,2.1.34q2.63-1.82,5.22-3.68a1.06,1.06,0,0,0,.38-1.58c-.8-1.54-1.63-3.05-2.42-4.58a.65.65,0,0,1,0-.58,18.52,18.52,0,0,0,3.45-6.7.72.72,0,0,1,.66-.59q2.53-.48,5.07-1C615.61,393.92,615.8,393.69,615.72,392.57Zm-24.44,9.22A10.82,10.82,0,1,1,602.09,391,10.81,10.81,0,0,1,591.28,401.79Z" style="fill:none;stroke:#ccc;stroke-miterlimit:10;stroke-width:2.7331100000000004px;fill-rule:evenodd;mix-blend-mode:multiply"/><path d="M613.89,390.75c-.16-2.13-.36-4.25-.54-6.37-.08-.88-.39-1.15-1.29-1.18-1.56,0-3.13-.1-4.7-.13a.94.94,0,0,1-1-.73,7.91,7.91,0,0,0-.91-2c-.83-1.26-1.74-2.47-2.65-3.68a.79.79,0,0,1-.17-.86c.33-.82.62-1.65.91-2.49s.63-1.88.94-2.82c.14-.91-.71-1.26-1.72-1.82-1.62-.84-3.22-1.7-4.85-2.5-.72-.35-1.12-.2-1.57.47-.93,1.41-1.86,2.81-2.78,4.23a.53.53,0,0,1-.65.29,18,18,0,0,0-8.1.26.77.77,0,0,1-.62-.21c-1.23-1.34-2.43-2.71-3.64-4.07-.59-.68-1-.72-1.77-.19-1.72,1.21-3.45,2.43-5.19,3.62-.77.53-.93,1-.49,1.83.78,1.46,1.56,2.91,2.36,4.35a.61.61,0,0,1-.08.76,23.15,23.15,0,0,0-1.9,2.85,33.34,33.34,0,0,0-1.51,3.65.74.74,0,0,1-.62.56c-1.72.32-3.43.66-5.14,1-1.06.21-1.24.42-1.16,1.53.14,2.1.31,4.2.45,6.3.06.91.36,1.23,1.27,1.27,1.65.06,3.3.15,4.95.19a.64.64,0,0,1,.68.53,18.61,18.61,0,0,0,4.34,6.72.81.81,0,0,1,.11.69c-.53,1.72-1.09,3.43-1.64,5.14a1.13,1.13,0,0,0,.71,1.58c2,.91,4,1.83,6,2.7a1,1,0,0,0,.93-.13,8.52,8.52,0,0,0,1.33-1.55c.68-1,1.28-2.14,2-3.19a.69.69,0,0,1,.57-.3,18.35,18.35,0,0,0,7.41-.45.77.77,0,0,1,.65.16c1.18,1.29,2.33,2.6,3.48,3.92.76.88,1.16,1,2.09.34q2.64-1.82,5.23-3.68a1.08,1.08,0,0,0,.38-1.59c-.8-1.53-1.63-3-2.43-4.57a.69.69,0,0,1,0-.58,18.25,18.25,0,0,0,3.45-6.71.74.74,0,0,1,.66-.58c1.7-.33,3.39-.66,5.08-1C613.79,392.1,614,391.86,613.89,390.75ZM589.45,400a10.82,10.82,0,1,1,10.82-10.82A10.82,10.82,0,0,1,589.45,400Z" style="fill:none;stroke:#fff;stroke-miterlimit:10;stroke-width:2.7331100000000004px;fill-rule:evenodd"/><path d="M117.73,250A104.22,104.22,0,1,1,222,354.22,104.22,104.22,0,0,1,117.73,250Z" style="fill:#fa5855"/><path d="M342.78,250A120.83,120.83,0,1,1,222,129.17,120.83,120.83,0,0,1,342.78,250Z" style="fill:none;stroke:#f94f24;stroke-linecap:round;stroke-miterlimit:10;stroke-width:1.6024100000000001px;stroke-dasharray:5.578639984130859,5.608439922332764"/><path d="M231.32,207.71l7.45-11.92.1-9.25-.12-.09C227,196,213.12,207.46,201.38,217c0,0,0,1.88,0,5.52l13.89-2.17q-5,7.81-9.82,15.72l0,9.34,34.31-29.53-.11-9.09Z" style="fill:none;stroke:#fff;stroke-width:1.8075764537191394px"/><path d="M239.56,206.88l-34.24,29.31h0s0,0,0,0L219,214.3l-17.51,2.47a0,0,0,0,1,0,0h0l37.17-30.07s0,0,0,0,0,0,0,0l-14.77,21.88,15.67-1.71h0Z" style="fill:none;stroke:#fff;stroke-width:1.8075764537191394px"/><path d="M161.17,271.41c2.2.27,5.5.66,5.67,4a3.91,3.91,0,0,1-1.1,3.11c-1.41,1.43-3.6,1.52-5.14,1.46a15.41,15.41,0,0,1-5.75-1.41l1.18-2.47a13.43,13.43,0,0,0,4.51,1.29c3.58.28,3.6-1.27,3.58-1.84-.06-.77-.75-1.05-3.28-1.35-2.22-.25-5.63-.64-5.69-4.22-.08-3,2.64-4.35,5.61-4.26a22.5,22.5,0,0,1,5.44.88l-.88,2.72a16.68,16.68,0,0,0-4.64-.91c-1.29,0-2.72.47-2.72,1.52C158,270.8,158.42,271.11,161.17,271.41Zm14.45-5.64c6.46,0,6.24,6.58,6.24,6.58v1.59H171.68c0,1.68,1.41,3.45,4.18,3.45a14.47,14.47,0,0,0,4.54-.94l.71,2.45a16.1,16.1,0,0,1-5.36,1.1c-6.29,0-7-5.31-7-7.16S169.79,265.77,175.62,265.77Zm3.46,5.72s.19-3-3.47-3a3.59,3.59,0,0,0-3.9,3Zm8.59-2.81a3.07,3.07,0,0,1,3.1-2.67h4.37v2.89h-4.78a2.7,2.7,0,0,0-2.47,2.26v8.62h-3.08V266h2.69l.17,2.67Zm15.84,8.43,3.63-11.1h2.94l-4.37,13.77h-4.37L197.16,266h3.11l3.24,11.1Zm14.8-11.35c6.46,0,6.24,6.59,6.24,6.59v1.59H214.38c0,1.68,1.4,3.45,4.18,3.45a14.37,14.37,0,0,0,4.53-.94l.72,2.45a16.18,16.18,0,0,1-5.36,1.1c-6.3,0-7-5.31-7-7.16s1-7.07,6.87-7.07Zm3.46,5.73s.2-3-3.46-3a3.59,3.59,0,0,0-3.9,3Zm8.59-2.81a3.07,3.07,0,0,1,3.11-2.67h4.37v2.89h-4.79a2.71,2.71,0,0,0-2.47,2.26v8.62H227.5V266h2.7Zm14.58-8.18v16.39h5.66v2.89H242V263h-4.4V260.5Zm14.14,5.27c6.46,0,6.24,6.58,6.24,6.58v1.59H255.15c0,1.68,1.4,3.45,4.18,3.45a14.37,14.37,0,0,0,4.53-.94l.72,2.45a16.18,16.18,0,0,1-5.36,1.1c-6.3,0-7-5.31-7-7.16S253.25,265.77,259.08,265.77Zm3.46,5.72s.2-3-3.46-3a3.59,3.59,0,0,0-3.9,3Zm10.93-.08c2.2.27,5.5.66,5.66,4a3.91,3.91,0,0,1-1.1,3.11c-1.4,1.43-3.6,1.52-5.14,1.46a15.33,15.33,0,0,1-5.74-1.41l1.18-2.47a13.25,13.25,0,0,0,4.51,1.29c3.57.28,3.6-1.27,3.57-1.84-.06-.77-.74-1.05-3.27-1.35-2.23-.25-5.64-.64-5.69-4.22-.09-3,2.64-4.35,5.61-4.26a22.62,22.62,0,0,1,5.44.88l-.88,2.72a16.8,16.8,0,0,0-4.65-.91c-1.29,0-2.72.47-2.72,1.52C270.28,270.8,270.72,271.11,273.47,271.41Zm13.86,0c2.2.27,5.5.66,5.67,4a3.91,3.91,0,0,1-1.1,3.11c-1.41,1.43-3.61,1.52-5.15,1.46a15.4,15.4,0,0,1-5.74-1.41l1.18-2.47a13.43,13.43,0,0,0,4.51,1.29c3.57.28,3.6-1.27,3.57-1.84,0-.77-.74-1.05-3.27-1.35-2.22-.25-5.63-.64-5.69-4.22-.08-3,2.64-4.35,5.61-4.26a22.5,22.5,0,0,1,5.44.88l-.88,2.72a16.78,16.78,0,0,0-4.64-.91c-1.29,0-2.72.47-2.72,1.52C284.14,270.8,284.58,271.11,287.33,271.41ZM156,293.55h2.48V292c0-1.71.85-4.19,4-4.19h3.38v2.89h-3.16c-1.43,0-1.32,1.07-1.32,2.07v.82h3.93v2.73h-3.93v10.77h-2.94V296.28H156v-2.73Zm15.88,2.4a3.07,3.07,0,0,1,3.1-2.67h4.37v2.89H174.6a2.69,2.69,0,0,0-2.47,2.26v8.62h-3.08V293.28h2.69l.17,2.67Zm21.5,11.1h-2.64l-.19-1.9a5.43,5.43,0,0,1-4.48,2.06c-3.77,0-5.39-2.59-5.39-4.65s1.79-4.16,5-4.16c2.47,0,4.42,0,4.86,0,0,0,.28-2.61-2.8-2.61a17.68,17.68,0,0,0-4.92.77l-.83-2.67a29.09,29.09,0,0,1,5.39-.86c3.66,0,6,1.9,6,6.09v8Zm-6.95-2.43a5.69,5.69,0,0,0,4.2-1.73v-2s-1.76,0-4.39,0c-1.87,0-2.56.69-2.56,1.71S184.59,304.62,186.46,304.62Zm19.39-9.28s.52-2.17,3.49-2.17a3.52,3.52,0,0,1,3.6,2.89v11H210v-9.12c0-1.21-.36-1.95-1.76-1.95-1.13,0-1.81.69-1.81,2.12v8.95h-2.84v-9.23a1.68,1.68,0,0,0-1.76-1.84,1.87,1.87,0,0,0-2,1.81v9.26h-3V293.28h2.78l.11,1.68a3.57,3.57,0,0,1,2.94-1.82,3.12,3.12,0,0,1,3.16,2.2ZM222.19,293c6.46,0,6.24,6.58,6.24,6.58v1.6H218.26c0,1.68,1.4,3.44,4.17,3.44a14.38,14.38,0,0,0,4.54-.94l.72,2.45a16.06,16.06,0,0,1-5.36,1.11c-6.3,0-7-5.32-7-7.16s1-7.08,6.87-7.08Zm3.46,5.73s.19-3-3.46-3a3.59,3.59,0,0,0-3.91,3Zm18-5.48h2.92l-2.29,13.77h-3.71l-2-10.36,0,0,0,0-2,10.36H232.7l-2.28-13.77h2.91l1.32,10.41,2.12-10.36,0-.05h3.46l0,.05,2.11,10.36,1.32-10.41Zm11.86-.25c4.29,0,7,2.64,7,7.08,0,4.21-2.69,7.18-7,7.18-4.54,0-7.28-3-7.28-7.18C248.19,295.67,250.93,293,255.47,293Zm0,11.43c3,0,4.12-1.85,4.12-4.35,0-2.18-1.15-4.46-4.12-4.46-3.24,0-4.29,2.28-4.29,4.46C251.18,302.61,252.23,304.46,255.47,304.46ZM267.91,296a3.07,3.07,0,0,1,3.1-2.67h4.37v2.89H270.6a2.69,2.69,0,0,0-2.47,2.26v8.62h-3.08V293.28h2.69Zm23.84,11.1h-4.23l-6-6.92v6.92h-2.94V290.3h-2.75v-2.53h5.69v10.55l5.25-5h3.91l-6.24,5.86,7.31,7.91Z" style="fill:#fff"/><path d="M534.76,250a4,4,0,1,1-4-4A4,4,0,0,1,534.76,250Z" style="fill:#fff;stroke:#f94f24;stroke-linecap:round;stroke-miterlimit:10;stroke-width:2px"/><line x1="526.7" y1="250" x2="342.78" y2="250" style="fill:none;stroke:#f94f24;stroke-linecap:round;stroke-miterlimit:10;stroke-width:1.6024100000000001px;stroke-dasharray:5.578639984130859,5.608439922332764"/><path d="M337.9,215.93h28.89S386,215.28,386,202.66V125.82s2.19-19.2,21.4-19.2H528.69" style="fill:none;stroke:#f94f24;stroke-linecap:round;stroke-miterlimit:10;stroke-width:1.6024100000000001px;stroke-dasharray:5.578639984130859,5.608439922332764"/><path d="M534.76,106.61a4,4,0,1,1-4-4A4,4,0,0,1,534.76,106.61Z" style="fill:#fff;stroke:#f94f24;stroke-linecap:round;stroke-miterlimit:10;stroke-width:2px"/><path d="M337.9,287h28.89s19.21.66,19.21,13.28v76.83s2.19,19.21,21.4,19.21H528.69" style="fill:none;stroke:#f94f24;stroke-linecap:round;stroke-miterlimit:10;stroke-width:1.6024100000000001px;stroke-dasharray:5.578639984130859,5.608439922332764"/><path d="M534.76,396.33a4,4,0,1,0-4,4A4,4,0,0,0,534.76,396.33Z" style="fill:#fff;stroke:#f94f24;stroke-linecap:round;stroke-miterlimit:10;stroke-width:2px"/></g></svg>