<?xml version="1.0" encoding="UTF-8"?>
<svg width="634px" height="402px" viewBox="0 0 634 402" version="1.1" xmlns="http://www.w3.org/2000/svg" xmlns:xlink="http://www.w3.org/1999/xlink">
    <!-- Generator: Sketch 55.2 (78181) - https://sketchapp.com -->
    <title>sls-deploy</title>
    <desc>Created with Sketch.</desc>
    <defs>
        <linearGradient x1="49.8819668%" y1="50.1817356%" x2="-6.56739605%" y2="140.208996%" id="linearGradient-1">
            <stop stop-color="#8033EB" offset="0%"></stop>
            <stop stop-color="#D4648E" offset="53%"></stop>
            <stop stop-color="#EC7071" offset="100%"></stop>
        </linearGradient>
        <polygon id="path-2" points="1.31 43.9877778 33.215 43.9877778 33.215 0.899555556 1.31 0.899555556"></polygon>
        <polygon id="path-4" points="0.8702222 10.4744442 32.679777 10.4744442 32.679777 0.899555533 0.8702222 0.899555533"></polygon>
    </defs>
    <g id="Page-1" stroke="none" stroke-width="1" fill="none" fill-rule="evenodd">
        <g id="sls-deploy" transform="translate(0.000000, 4.000000)">
            <path d="M70.18,211 C70.18,211 154.85,231.85 170.57,271 C186.29,310.15 166.83,337.72 120.57,367.94 C74.31,398.16 26.5,396.51 9,328.72 C-8.5,260.93 -2.51,197.67 70.18,211 Z" id="Path" fill="#F2F2F2" fill-rule="nonzero"></path>
            <path d="M260.060002,29.77 C260.064045,40.6275856 253.526171,50.4181246 243.495844,54.5750113 C233.465516,58.731898 221.918729,56.4362171 214.241256,48.7587441 C206.563783,41.0812712 204.268102,29.5344842 208.424989,19.5041565 C212.581875,9.4738287 222.372414,2.93595545 233.23,2.93999812 C248.045513,2.94551891 260.054481,14.9544868 260.060002,29.77 Z" id="Path" fill="#F2F2F2" fill-rule="nonzero"></path>
            <path d="M633.62,142.23 C633.62,151.558089 626.058089,159.12 616.73,159.12 C607.401911,159.12 599.84,151.558089 599.84,142.23 C599.84,132.901911 607.401911,125.34 616.73,125.34 C621.209507,125.34 625.505544,127.119477 628.673034,130.286966 C631.840523,133.454456 633.62,137.750493 633.62,142.23 L633.62,142.23 Z" id="Path" fill="#F2F2F2" fill-rule="nonzero"></path>
            <path d="M294.79,338 C294.79,347.328089 287.228089,354.89 277.9,354.89 C268.571911,354.89 261.01,347.328089 261.01,338 C261.01,328.671911 268.571911,321.11 277.9,321.11 C287.225803,321.115517 294.784483,328.674197 294.79,338 Z" id="Path" fill="#F2F2F2" fill-rule="nonzero"></path>
            <path d="M418.15,132.53 C418.15,141.858089 410.588089,149.42 401.26,149.42 C391.931911,149.42 384.37,141.858089 384.37,132.53 C384.37,123.201911 391.931911,115.64 401.26,115.64 C410.588089,115.64 418.15,123.201911 418.15,132.53 L418.15,132.53 Z" id="Path" fill="#F2F2F2" fill-rule="nonzero"></path>
            <polygon id="Path" fill="url(#linearGradient-1)" fill-rule="nonzero" points="491.33 174.99 529.45 152.98 567.57 174.99 567.57 219.01 529.45 241.02 491.33 219.01"></polygon>
            <polygon id="Path" stroke="#E5E5E5" stroke-width="6.37726" points="479.62 168.23 529.45 139.46 579.28 168.23 579.28 225.77 529.45 254.54 479.62 225.77"></polygon>
            <path d="M555.72,200.42 C555.55,198.3 555.36,196.18 555.17,194.06 C555.09,193.18 554.78,192.9 553.89,192.88 C552.32,192.88 550.75,192.78 549.18,192.75 C548.706466,192.795392 548.275016,192.476119 548.18,192.01 C547.965654,191.306324 547.659697,190.633892 547.27,190.01 C546.43,188.74 545.53,187.53 544.61,186.33 C544.384084,186.099844 544.320752,185.755473 544.45,185.46 C544.77,184.64 545.06,183.81 545.35,182.98 C545.64,182.15 545.98,181.09 546.29,180.15 C546.44,179.24 545.58,178.89 544.57,178.33 C542.95,177.5 541.35,176.64 539.72,175.83 C539,175.48 538.6,175.64 538.16,176.3 C537.233333,177.706667 536.306667,179.116667 535.38,180.53 C535.263148,180.778129 534.983781,180.905114 534.72,180.83 C532.036097,180.29656 529.265898,180.38206 526.62,181.08 C526.397247,181.105313 526.174523,181.032289 526.01,180.88 C524.776667,179.546667 523.563333,178.186667 522.37,176.8 C521.77,176.13 521.37,176.08 520.6,176.61 C518.87,177.83 517.15,179.04 515.41,180.23 C514.63,180.77 514.47,181.23 514.91,182.07 C515.69,183.523333 516.476667,184.973333 517.27,186.42 C517.437585,186.657578 517.403381,186.982524 517.19,187.18 C516.48836,188.079141 515.853337,189.028333 515.29,190.02 C514.723409,191.212932 514.219392,192.43459 513.78,193.68 C513.708548,193.976636 513.462354,194.199005 513.16,194.24 C511.45,194.55 509.74,194.9 508.03,195.24 C506.96,195.45 506.79,195.66 506.86,196.76 C507,198.86 507.17,200.96 507.31,203.07 C507.37,203.98 507.67,204.29 508.59,204.33 C510.24,204.4 511.89,204.48 513.53,204.53 C513.857262,204.507788 514.151174,204.729287 514.22,205.05 C515.160126,207.579278 516.641304,209.872715 518.56,211.77 C518.689251,211.975568 518.725574,212.226197 518.66,212.46 C518.13,214.18 517.57,215.89 517.02,217.61 C516.877969,217.909866 516.874907,218.257003 517.011627,218.559328 C517.148348,218.861653 517.411032,219.088611 517.73,219.18 C519.73,220.09 521.73,221.01 523.73,221.88 C524.039404,221.990414 524.383303,221.941819 524.65,221.75 C525.158534,221.293059 525.605603,220.772039 525.98,220.2 C526.67,219.2 527.27,218.06 527.98,217.01 C528.120157,216.829991 528.332097,216.720367 528.56,216.71 C531.034862,217.066415 533.556456,216.913281 535.97,216.26 C536.201169,216.21712 536.439425,216.279433 536.62,216.43 C537.79,217.71 538.95,219.02 540.09,220.34 C540.86,221.22 541.25,221.34 542.19,220.68 C543.943333,219.473333 545.683333,218.246667 547.41,217 C547.690825,216.860395 547.895416,216.603603 547.96875,216.298687 C548.042085,215.99377 547.976634,215.672032 547.79,215.42 C546.99,213.88 546.16,212.37 545.37,210.84 C545.278962,210.657384 545.278962,210.442616 545.37,210.26 C546.967038,208.286719 548.141346,206.006179 548.82,203.56 C548.878825,203.235339 549.150801,202.992209 549.48,202.97 C551.166667,202.65 552.856667,202.316667 554.55,201.97 C555.61,201.77 555.8,201.54 555.72,200.42 Z M531.28,209.640005 C526.902811,209.644045 522.954378,207.010404 521.276496,202.967569 C519.598615,198.924734 520.521858,194.269219 523.615568,191.172647 C526.709279,188.076075 531.363937,187.148528 535.408322,188.82267 C539.452706,190.496813 542.090005,194.442809 542.090005,198.82 C542.092654,201.688722 540.954918,204.440858 538.927362,206.47029 C536.899806,208.499721 534.148724,209.640005 531.28,209.640005 Z" id="Shape" stroke="#CCCCCC" stroke-width="2.73311" style="mix-blend-mode: multiply;"></path>
            <path d="M553.89,198.6 C553.73,196.47 553.53,194.35 553.35,192.23 C553.27,191.35 552.96,191.08 552.06,191.05 C550.5,191.05 548.93,190.95 547.36,190.92 C546.890857,190.961549 546.463383,190.649493 546.36,190.19 C546.15119,189.484244 545.844903,188.811084 545.45,188.19 C544.62,186.93 543.71,185.72 542.8,184.51 C542.574889,184.283953 542.507826,183.944696 542.63,183.65 C542.96,182.83 543.25,181.99 543.54,181.16 C543.83,180.33 544.17,179.28 544.48,178.34 C544.62,177.43 543.77,177.08 542.76,176.52 C541.14,175.68 539.54,174.82 537.91,174.02 C537.19,173.67 536.79,173.82 536.34,174.49 C535.41,175.9 534.48,177.3 533.56,178.72 C533.446707,178.965983 533.168733,179.090003 532.91,179.01 C530.225339,178.479825 527.455134,178.568745 524.81,179.27 C524.582842,179.291625 524.35726,179.215218 524.19,179.06 C522.96,177.72 521.76,176.35 520.55,174.99 C519.96,174.31 519.55,174.27 518.78,174.8 C517.06,176.01 515.33,177.23 513.59,178.42 C512.82,178.95 512.66,179.42 513.1,180.25 C513.88,181.71 514.66,183.16 515.46,184.6 C515.614986,184.840717 515.581711,185.15683 515.38,185.36 C514.677125,186.258247 514.04204,187.207533 513.48,188.2 C512.906697,189.389944 512.402526,190.611975 511.97,191.86 C511.898548,192.156636 511.652354,192.379005 511.35,192.42 C509.63,192.74 507.92,193.08 506.21,193.42 C505.15,193.63 504.97,193.84 505.05,194.94 C505.19,197.05 505.36,199.15 505.5,201.25 C505.56,202.16 505.86,202.48 506.77,202.52 C508.42,202.58 510.07,202.67 511.72,202.71 C512.049511,202.684595 512.344175,202.91426 512.4,203.24 C513.325545,205.778798 514.792877,208.085579 516.7,210 C516.839082,210.201548 516.879518,210.455197 516.81,210.69 C516.28,212.41 515.72,214.12 515.17,215.83 C515.024307,216.130854 515.019293,216.480774 515.156307,216.785678 C515.293321,217.090582 515.558301,217.319177 515.88,217.41 C517.88,218.32 519.88,219.24 521.88,220.11 C522.192335,220.223963 522.540887,220.175241 522.81,219.98 C523.313881,219.518532 523.760422,218.998127 524.14,218.43 C524.82,217.43 525.42,216.29 526.14,215.24 C526.268803,215.05201 526.482118,214.939739 526.71,214.94 C529.184862,215.296415 531.706456,215.143281 534.12,214.49 C534.349729,214.441437 534.589062,214.50035 534.77,214.65 C535.95,215.94 537.1,217.25 538.25,218.57 C539.01,219.45 539.41,219.57 540.34,218.91 C542.1,217.703333 543.843333,216.476667 545.57,215.23 C545.84622,215.083272 546.046099,214.824957 546.118802,214.520752 C546.191505,214.216546 546.130026,213.895768 545.95,213.64 C545.15,212.11 544.32,210.64 543.52,209.07 C543.434799,208.886054 543.434799,208.673946 543.52,208.49 C545.124838,206.518064 546.299947,204.232563 546.97,201.78 C547.038996,201.462846 547.30661,201.227671 547.63,201.2 C549.33,200.87 551.02,200.54 552.71,200.2 C553.79,200 554,199.71 553.89,198.6 Z M529.45,207.82 C523.474279,207.82 518.63,202.975721 518.63,197 C518.63,191.024279 523.474279,186.18 529.45,186.18 C535.425721,186.18 540.27,191.024279 540.27,197 C540.27,202.975721 535.425721,207.82 529.45,207.82 L529.45,207.82 Z" id="Shape" stroke="#FFFFFF" stroke-width="2.73311"></path>
            <polygon id="Path" fill="url(#linearGradient-1)" fill-rule="nonzero" points="491.33 35.84 529.45 13.83 567.57 35.84 567.57 79.86 529.45 101.87 491.33 79.86"></polygon>
            <polygon id="Path" stroke="#E5E5E5" stroke-width="6.37726" points="479.62 29.08 529.45 0.31 579.28 29.08 579.28 86.62 529.45 115.39 479.62 86.62"></polygon>
            <path d="M555.72,61.27 C555.55,59.15 555.36,57.03 555.17,54.91 C555.09,54.03 554.78,53.75 553.89,53.73 C552.32,53.73 550.75,53.63 549.18,53.6 C548.706466,53.6453915 548.275016,53.3261189 548.18,52.86 C547.965654,52.1563236 547.659697,51.4838916 547.27,50.86 C546.43,49.59 545.53,48.38 544.61,47.18 C544.384084,46.9498443 544.320752,46.6054731 544.45,46.31 C544.77,45.49 545.06,44.66 545.35,43.83 C545.64,43 546,42 546.26,41 C546.41,40.09 545.55,39.74 544.54,39.18 C542.92,38.35 541.32,37.49 539.69,36.68 C538.97,36.33 538.57,36.49 538.13,37.15 C537.203333,38.5566667 536.276667,39.97 535.35,41.39 C535.229741,41.6342469 534.951245,41.7566165 534.69,41.68 C532.006097,41.1465596 529.235898,41.2320596 526.59,41.93 C526.367247,41.9553134 526.144523,41.882289 525.98,41.73 C524.746667,40.3966667 523.533333,39.0366667 522.34,37.65 C521.74,36.97 521.34,36.93 520.57,37.47 C518.84,38.68 517.12,39.89 515.38,41.08 C514.6,41.62 514.44,42.08 514.88,42.92 C515.66,44.3666667 516.446667,45.8166667 517.24,47.27 C517.407585,47.5075778 517.373381,47.8325238 517.16,48.03 C516.45836,48.9291408 515.823337,49.8783331 515.26,50.87 C514.693409,52.0629319 514.189392,53.2845897 513.75,54.53 C513.678548,54.8266361 513.432354,55.0490052 513.13,55.09 C511.42,55.4 509.71,55.75 508,56.09 C506.93,56.3 506.76,56.51 506.83,57.61 C506.97,59.71 507.14,61.81 507.28,63.92 C507.34,64.83 507.64,65.14 508.56,65.18 C510.21,65.25 511.86,65.34 513.5,65.38 C513.828589,65.3532712 514.12515,65.5767669 514.19,65.9 C515.130126,68.4292778 516.611304,70.7227152 518.53,72.62 C518.659251,72.825568 518.695574,73.0761966 518.63,73.31 C518.1,75.03 517.54,76.74 516.99,78.46 C516.847969,78.7598665 516.844907,79.1070028 516.981627,79.4093278 C517.118348,79.7116527 517.381032,79.9386111 517.7,80.03 C519.7,80.94 521.7,81.86 523.7,82.73 C524.009404,82.840414 524.353303,82.7918194 524.62,82.6 C525.128534,82.1430592 525.575603,81.6220394 525.95,81.05 C526.64,80.05 527.24,78.91 527.95,77.86 C528.090157,77.6799913 528.302097,77.5703672 528.53,77.56 C531.004648,77.921555 533.52729,77.7683581 535.94,77.11 C536.171169,77.0671201 536.409425,77.1294332 536.59,77.28 C537.76,78.56 538.92,79.87 540.06,81.19 C540.83,82.08 541.22,82.19 542.16,81.53 C543.913333,80.3233333 545.653333,79.0966667 547.38,77.85 C547.660825,77.710395 547.865416,77.4536034 547.93875,77.1486867 C548.012085,76.8437701 547.946634,76.5220317 547.76,76.27 C546.96,74.73 546.13,73.22 545.34,71.69 C545.248962,71.5073838 545.248962,71.2926162 545.34,71.11 C546.937038,69.1367194 548.111346,66.8561793 548.79,64.41 C548.848825,64.085339 549.120801,63.8422093 549.45,63.82 C551.136667,63.5 552.826667,63.1666667 554.52,62.82 C555.61,62.62 555.8,62.39 555.72,61.27 Z M531.28,70.4900047 C526.902811,70.4940455 522.954378,67.8604035 521.276496,63.8175685 C519.598615,59.7747335 520.521858,55.1192194 523.615568,52.0226472 C526.709279,48.9260751 531.363937,47.9985275 535.408322,49.6726703 C539.452706,51.3468131 542.090005,55.2928089 542.090005,59.67 C542.092654,62.5387225 540.954918,65.290858 538.927362,67.3202896 C536.899806,69.3497212 534.148724,70.4900047 531.28,70.4900047 L531.28,70.4900047 Z" id="Shape" stroke="#CCCCCC" stroke-width="2.73311" style="mix-blend-mode: multiply;"></path>
            <path d="M553.89,59.45 C553.73,57.32 553.53,55.2 553.35,53.08 C553.27,52.2 552.96,51.93 552.06,51.9 C550.5,51.9 548.93,51.8 547.36,51.77 C546.890857,51.8115491 546.463383,51.4994928 546.36,51.04 C546.15119,50.3342438 545.844903,49.6610839 545.45,49.04 C544.62,47.78 543.71,46.57 542.8,45.36 C542.574889,45.1339531 542.507826,44.7946962 542.63,44.5 C542.96,43.68 543.25,42.84 543.54,42.01 C543.83,41.18 544.17,40.13 544.48,39.19 C544.62,38.28 543.77,37.93 542.76,37.37 C541.14,36.53 539.54,35.67 537.91,34.87 C537.19,34.52 536.79,34.67 536.34,35.34 C535.413333,36.74 534.486667,38.15 533.56,39.57 C533.446707,39.8159834 533.168733,39.9400028 532.91,39.86 C530.225339,39.329825 527.455134,39.4187451 524.81,40.12 C524.582385,40.1457041 524.355143,40.068735 524.19,39.91 C522.96,38.57 521.76,37.2 520.55,35.84 C519.96,35.16 519.55,35.12 518.78,35.65 C517.06,36.86 515.33,38.08 513.59,39.27 C512.82,39.8 512.66,40.27 513.1,41.1 C513.88,42.56 514.66,44.01 515.46,45.45 C515.614986,45.6907172 515.581711,46.0068298 515.38,46.21 C514.677158,47.1117783 514.042087,48.0643851 513.48,49.06 C512.904972,50.2457546 512.400754,51.4645597 511.97,52.71 C511.898548,53.0066361 511.652354,53.2290052 511.35,53.27 C509.63,53.59 507.92,53.93 506.21,54.27 C505.15,54.48 504.97,54.69 505.05,55.8 C505.19,57.9 505.36,60 505.5,62.1 C505.56,63.01 505.86,63.33 506.77,63.37 C508.42,63.43 510.07,63.52 511.72,63.56 C512.049511,63.5345955 512.344175,63.7642603 512.4,64.09 C513.342431,66.6181215 514.823306,68.9110896 516.74,70.81 C516.879082,71.011548 516.919518,71.2651969 516.85,71.5 C516.32,73.22 515.76,74.93 515.21,76.64 C515.064307,76.9408536 515.059293,77.2907742 515.196307,77.5956783 C515.333321,77.9005825 515.598301,78.1291772 515.92,78.22 C517.92,79.13 519.92,80.05 521.92,80.92 C522.232335,81.0339629 522.580887,80.9852407 522.85,80.79 C523.353881,80.3285322 523.800422,79.8081274 524.18,79.24 C524.86,78.24 525.46,77.1 526.18,76.05 C526.308803,75.8620101 526.522118,75.7497392 526.75,75.75 C529.224862,76.1064147 531.746456,75.9532815 534.16,75.3 C534.389729,75.2514373 534.629062,75.3103501 534.81,75.46 C535.99,76.75 537.14,78.06 538.29,79.38 C539.05,80.26 539.45,80.38 540.38,79.72 C542.14,78.5133333 543.883333,77.2866667 545.61,76.04 C545.88874,75.8956865 546.090906,75.6372466 546.163867,75.3319618 C546.236828,75.0266771 546.173365,74.7047536 545.99,74.45 C545.19,72.92 544.36,71.45 543.56,69.88 C543.474799,69.6960536 543.474799,69.4839464 543.56,69.3 C545.164838,67.3280643 546.339947,65.0425626 547.01,62.59 C547.078996,62.2728464 547.34661,62.0376706 547.67,62.01 C549.37,61.68 551.06,61.35 552.75,61.01 C553.79,60.8 554,60.56 553.89,59.45 Z M529.45,68.67 C523.474279,68.67 518.63,63.825721 518.63,57.85 C518.63,51.874279 523.474279,47.03 529.45,47.03 C535.425721,47.03 540.27,51.874279 540.27,57.85 C540.27,63.825721 535.425721,68.67 529.45,68.67 L529.45,68.67 Z" id="Shape" stroke="#FFFFFF" stroke-width="2.73311"></path>
            <polygon id="Path" fill="url(#linearGradient-1)" fill-rule="nonzero" points="491.33 314.14 529.45 292.13 567.57 314.14 567.57 358.16 529.45 380.17 491.33 358.16"></polygon>
            <polygon id="Path" stroke="#E5E5E5" stroke-width="6.37726" points="479.62 307.38 529.45 278.61 579.28 307.38 579.28 364.92 529.45 393.69 479.62 364.92"></polygon>
            <path d="M555.72,339.57 C555.55,337.45 555.36,335.33 555.17,333.21 C555.09,332.33 554.78,332.05 553.89,332.03 C552.32,332.03 550.75,331.93 549.18,331.9 C548.709591,331.946145 548.279391,331.632099 548.18,331.17 C547.966864,330.465867 547.660837,329.793279 547.27,329.17 C546.43,327.9 545.53,326.69 544.61,325.49 C544.384084,325.259844 544.320752,324.915473 544.45,324.62 C544.77,323.8 545.06,322.97 545.35,322.14 C545.64,321.31 545.98,320.25 546.29,319.31 C546.44,318.4 545.58,318.05 544.57,317.49 C542.95,316.66 541.35,315.8 539.72,314.99 C539,314.64 538.6,314.8 538.16,315.46 C537.233333,316.866667 536.306667,318.276667 535.38,319.69 C535.263148,319.938129 534.983781,320.065114 534.72,319.99 C532.036097,319.45656 529.265898,319.54206 526.62,320.24 C526.397247,320.265313 526.174523,320.192289 526.01,320.04 C524.776667,318.706667 523.563333,317.346667 522.37,315.96 C521.77,315.29 521.37,315.24 520.6,315.77 C518.87,316.99 517.15,318.2 515.41,319.39 C514.63,319.93 514.47,320.39 514.91,321.23 C515.69,322.676667 516.476667,324.126667 517.27,325.58 C517.437585,325.817578 517.403381,326.142524 517.19,326.34 C516.48836,327.239141 515.853337,328.188333 515.29,329.18 C514.723409,330.372932 514.219392,331.59459 513.78,332.84 C513.708548,333.136636 513.462354,333.359005 513.16,333.4 C511.45,333.71 509.74,334.06 508.03,334.4 C506.96,334.61 506.79,334.82 506.86,335.92 C507,338.02 507.17,340.12 507.31,342.23 C507.37,343.14 507.67,343.45 508.59,343.49 C510.24,343.56 511.89,343.65 513.53,343.69 C513.857262,343.667788 514.151174,343.889287 514.22,344.21 C515.160126,346.739278 516.641304,349.032715 518.56,350.93 C518.689251,351.135568 518.725574,351.386197 518.66,351.62 C518.13,353.34 517.57,355.05 517.02,356.77 C516.877969,357.069866 516.874907,357.417003 517.011627,357.719328 C517.148348,358.021653 517.411032,358.248611 517.73,358.34 C519.73,359.25 521.73,360.17 523.73,361.04 C524.039404,361.150414 524.383303,361.101819 524.65,360.91 C525.158534,360.453059 525.605603,359.932039 525.98,359.36 C526.67,358.36 527.27,357.22 527.98,356.17 C528.120157,355.989991 528.332097,355.880367 528.56,355.87 C531.034862,356.226415 533.556456,356.073281 535.97,355.42 C536.201169,355.37712 536.439425,355.439433 536.62,355.59 C537.79,356.87 538.95,358.18 540.09,359.5 C540.86,360.39 541.25,360.5 542.19,359.84 C543.943333,358.626667 545.683333,357.4 547.41,356.16 C547.690825,356.020395 547.895416,355.763603 547.96875,355.458687 C548.042085,355.15377 547.976634,354.832032 547.79,354.58 C546.99,353.04 546.16,351.53 545.37,350 C545.278962,349.817384 545.278962,349.602616 545.37,349.42 C546.967038,347.446719 548.141346,345.166179 548.82,342.72 C548.878825,342.395339 549.150801,342.152209 549.48,342.13 C551.166667,341.81 552.856667,341.476667 554.55,341.13 C555.61,340.92 555.8,340.69 555.72,339.57 Z M531.28,348.790005 C526.900084,348.794031 522.949764,346.157132 521.273654,342.110612 C519.597543,338.064091 520.526298,333.406229 523.626234,330.312028 C526.726169,327.217828 531.385743,326.2977 535.429153,327.981301 C539.472563,329.664903 542.102142,333.620099 542.090042,338 C542.078969,343.962386 537.242396,348.790005 531.28,348.790005 Z" id="Shape" stroke="#CCCCCC" stroke-width="2.73311" style="mix-blend-mode: multiply;"></path>
            <path d="M553.89,337.75 C553.73,335.62 553.53,333.5 553.35,331.38 C553.27,330.5 552.96,330.23 552.06,330.2 C550.5,330.2 548.93,330.1 547.36,330.07 C546.890857,330.111549 546.463383,329.799493 546.36,329.34 C546.15119,328.634244 545.844903,327.961084 545.45,327.34 C544.62,326.08 543.71,324.87 542.8,323.66 C542.574889,323.433953 542.507826,323.094696 542.63,322.8 C542.96,321.98 543.25,321.15 543.54,320.31 C543.83,319.47 544.17,318.43 544.48,317.49 C544.62,316.58 543.77,316.23 542.76,315.67 C541.14,314.83 539.54,313.97 537.91,313.17 C537.19,312.82 536.79,312.97 536.34,313.64 C535.41,315.05 534.48,316.45 533.56,317.87 C533.450125,318.119413 533.169002,318.244837 532.91,318.16 C530.225339,317.629825 527.455134,317.718745 524.81,318.42 C524.582385,318.445704 524.355143,318.368735 524.19,318.21 C522.96,316.87 521.76,315.5 520.55,314.14 C519.96,313.46 519.55,313.42 518.78,313.95 C517.06,315.16 515.33,316.38 513.59,317.57 C512.82,318.1 512.66,318.57 513.1,319.4 C513.88,320.86 514.66,322.31 515.46,323.75 C515.614986,323.990717 515.581711,324.30683 515.38,324.51 C514.677158,325.411778 514.042087,326.364385 513.48,327.36 C512.904972,328.545755 512.400754,329.76456 511.97,331.01 C511.898548,331.306636 511.652354,331.529005 511.35,331.57 C509.63,331.89 507.92,332.23 506.21,332.57 C505.15,332.78 504.97,332.99 505.05,334.1 C505.19,336.2 505.36,338.3 505.5,340.4 C505.56,341.31 505.86,341.63 506.77,341.67 C508.42,341.73 510.07,341.82 511.72,341.86 C512.049511,341.834595 512.344175,342.06426 512.4,342.39 C513.342431,344.918122 514.823306,347.21109 516.74,349.11 C516.879082,349.311548 516.919518,349.565197 516.85,349.8 C516.32,351.52 515.76,353.23 515.21,354.94 C515.064307,355.240854 515.059293,355.590774 515.196307,355.895678 C515.333321,356.200582 515.598301,356.429177 515.92,356.52 C517.92,357.43 519.92,358.35 521.92,359.22 C522.232335,359.333963 522.580887,359.285241 522.85,359.09 C523.353881,358.628532 523.800422,358.108127 524.18,357.54 C524.86,356.54 525.46,355.4 526.18,354.35 C526.308803,354.16201 526.522118,354.049739 526.75,354.05 C529.224862,354.406415 531.746456,354.253281 534.16,353.6 C534.389729,353.551437 534.629062,353.61035 534.81,353.76 C535.99,355.05 537.14,356.36 538.29,357.68 C539.05,358.56 539.45,358.68 540.38,358.02 C542.14,356.806667 543.883333,355.58 545.61,354.34 C545.88874,354.195686 546.090906,353.937247 546.163867,353.631962 C546.236828,353.326677 546.173365,353.004754 545.99,352.75 C545.19,351.22 544.36,349.75 543.56,348.18 C543.474799,347.996054 543.474799,347.783946 543.56,347.6 C545.164838,345.628064 546.339947,343.342563 547.01,340.89 C547.078996,340.572846 547.34661,340.337671 547.67,340.31 C549.37,339.98 551.06,339.65 552.75,339.31 C553.79,339.1 554,338.86 553.89,337.75 Z M529.45,347 C523.474279,347 518.63,342.155721 518.63,336.18 C518.63,330.204279 523.474279,325.36 529.45,325.36 C535.425721,325.36 540.27,330.204279 540.27,336.18 C540.27,342.155721 535.425721,347 529.45,347 Z" id="Shape" stroke="#FFFFFF" stroke-width="2.73311"></path>
            <path d="M57.73,197 C57.73,139.447394 104.380736,92.7892126 161.933341,92.7800133 C219.485947,92.770814 266.151589,139.414079 266.17,196.966683 C266.1884,254.519286 219.5526,301.192389 162,301.220012 C134.350475,301.233265 107.828864,290.258831 88.2730068,270.712352 C68.71715,251.165873 57.73,224.649528 57.73,197 L57.73,197 Z" id="Path" fill="#E8663B" fill-rule="nonzero"></path>
            <g id="text464-copy" transform="translate(162.000000, 249.500000) scale(-1, -1) rotate(-180.000000) translate(-162.000000, -249.500000) translate(141.000000, 235.000000)" fill="#FFFFFF" font-family="Helvetica" font-size="24" font-weight="normal">
                <text id="tspan462">
                    <tspan x="0" y="23">CLI</tspan>
                </text>
            </g>
            <g id="g474" transform="translate(135.000000, 130.000000)">
                <g id="g488" transform="translate(0.000000, -0.000000)">
                    <g id="g486-Clipped">
                        <mask id="mask-3" fill="white">
                            <use xlink:href="#path-2"></use>
                        </mask>
                        <g id="path478"></g>
                        <g id="g486" mask="url(#mask-3)" fill="#E5E5E5" fill-rule="nonzero">
                            <g id="g484" transform="translate(1.213500, 0.900044)">
                                <path d="M5,0 C3.5375,0 2.095,0.633111111 1.1275,1.85288889 C-0.535,3.94044444 -0.1425,6.952 1.9975,8.57022222 L19.1075,21.5428889 L1.9975,34.5131111 C-0.1425,36.1313333 -0.535,39.1428889 1.1275,41.2353333 C2.7825,43.3228889 5.8575,43.7066667 7.9975,42.0884444 L30.1025,25.3268889 C31.3025,24.4248889 32.0025,23.0266667 32.0025,21.5428889 C32.0025,20.0664444 31.3025,18.6633333 30.1025,17.7564444 L7.9975,1.00222222 C7.1025,0.322666667 6.05,0 5,0" id="path482"></path>
                            </g>
                        </g>
                    </g>
                </g>
            </g>
            <g id="g490" transform="translate(168.000000, 163.000000)">
                <g id="g504" transform="translate(0.000000, -0.000000)">
                    <g id="g502-Clipped">
                        <mask id="mask-5" fill="white">
                            <use xlink:href="#path-4"></use>
                        </mask>
                        <g id="path494"></g>
                        <g id="g502" mask="url(#mask-5)">
                            <g transform="translate(-0.611111, 0.000000)" id="g500">
                                <g transform="translate(0.997822, 0.900044)">
                                    <path d="M27.4999993,0 L5.27266649,0 C2.63022211,0 0.483999942,2.14133328 0.483999942,4.7862221 C0.483999942,7.42866648 2.63022211,9.57488865 5.27266649,9.57488865 L27.4999993,9.57488865 C30.1473325,9.57488865 32.2935547,7.42866648 32.2935547,4.7862221 C32.2935547,2.14133328 30.1473325,0 27.4999993,0" id="path498" fill="#E5E5E5" fill-rule="nonzero"></path>
                                </g>
                            </g>
                        </g>
                    </g>
                </g>
            </g>
            <g id="white-logo" transform="translate(100.000000, 193.000000)" fill="#FFFFFF" fill-rule="nonzero">
                <g id="Group-13" transform="translate(62.000000, 21.500000) rotate(-90.000000) translate(-62.000000, -21.500000) translate(42.000000, -39.000000)">
                    <path d="M13.1892658,66.6642061 L13.1892658,70.7001512 L31.843443,70.7001512 L31.843443,66.6642061 L13.1892658,66.6642061 Z M31.8643038,111.210604 L31.8643038,106.99068 C28.1819241,106.99068 24.6832405,106.998862 21.1845063,106.986564 C18.859038,106.974315 17.2223797,105.355047 17.2432911,103.126515 C17.2599494,100.877502 18.4248101,99.8347693 21.0133671,99.8184541 C24.0736709,99.7979734 27.1381772,99.8184541 30.198481,99.8061557 C30.7537722,99.8020893 31.3090127,99.7121328 31.8392911,99.6630385 L31.8392911,95.721166 C31.6722532,95.6516406 31.5846076,95.5821648 31.4969114,95.5821648 C27.1256203,95.5698664 22.7459747,95.5003906 18.3746835,95.5821648 C16.2454177,95.623027 14.5795949,96.6044164 13.6861266,98.661218 C15.1181772,100.767114 14.9929114,103.097852 14.7006582,105.432755 C14.458481,107.338257 14.5921013,109.202847 15.0137722,111.251466 C20.6501266,111.235151 26.2447089,111.296445 31.8643038,111.210604 L31.8643038,111.210604 Z M27.4637975,91.6239275 C29.2757975,91.5748332 30.6076456,90.4380779 31.3758481,88.8065615 C32.1691139,87.1218348 32.511443,85.3267701 32.0772658,83.5275398 C31.7181772,82.0391406 31.0626835,80.6202172 30.5199494,79.127702 C31.0919494,78.4816414 31.7432405,77.7415082 32.465519,76.9318992 C31.5386835,75.9218963 30.7412152,75.0468283 29.9437975,74.1758266 C27.5556456,76.0404664 27.5556456,76.0404664 24.4452152,76.0404664 C21.2387848,76.0404664 18.0282025,76.0404664 14.8217215,76.0445328 C14.3040506,76.0445328 13.7821266,76.0895111 13.1976203,76.1181742 L13.1976203,80.2808221 L23.6477975,80.2808221 C25.919038,80.2808221 27.4429367,81.4421246 28.0149367,83.6093635 C28.6829367,86.1445615 27.6600506,87.4694123 24.9963544,87.4775947 C21.5978734,87.489893 18.1951899,87.4775947 14.7925063,87.485777 C14.2747848,87.485777 13.7571139,87.5348713 13.231038,87.5634848 L13.231038,91.6607234 C18.0490633,91.6607234 22.7585316,91.7424975 27.4637975,91.6239275 L27.4637975,91.6239275 Z M28.232,37.0265951 C28.0900759,39.0466008 27.255038,39.8275963 25.1633418,39.6885951 C23.0632911,37.6440422 23.9526076,35.1047283 23.8106329,32.7126475 C26.4033418,32.8843783 28.3823291,34.8757705 28.232,37.0265951 L28.232,37.0265951 Z M18.7671392,42.9066992 C18.3078987,41.8721492 17.8820759,40.9684676 17.510481,40.0443549 C16.9217722,38.596818 16.7506329,37.0961205 17.0678987,35.558627 C17.3810633,34.029316 18.1283544,33.2932988 19.777519,33.0029484 C19.777519,33.87395 19.7817215,34.7162885 19.777519,35.5545111 C19.7566582,37.5336545 20.040557,39.4555213 21.0008101,41.2219725 C22.9672911,44.8326324 28.0566582,45.2783488 30.4948861,42.0112 C33.083443,38.5477238 32.8621772,33.3791393 29.2256709,30.3859266 C26.4993924,28.1451455 23.3096203,27.7076115 19.8944304,28.2432844 C17.1054684,28.6848848 14.9970633,30.0956258 13.7404051,32.5531656 C11.9534684,36.0452057 12.9012152,41.9130611 15.7151899,44.9635008 C16.7255696,44.2806443 17.7484557,43.5895557 18.7671392,42.9066992 L18.7671392,42.9066992 Z M21.0216709,120.271967 C23.7688608,119.106598 25.6017215,115.868063 25.1758987,112.899397 C25.1382785,112.633594 24.9671392,112.388271 24.833519,112.085672 L20.5832911,112.085672 C20.6751392,112.645843 20.7878987,113.107924 20.8171139,113.574071 C20.8922532,114.743556 20.2451139,115.888494 19.3140759,116.305597 C18.2703291,116.775811 16.7798481,116.505941 15.9740253,115.606326 C15.5690633,115.152477 15.1598987,114.612688 15.0054177,114.044335 C14.6338734,112.678572 14.2330633,111.28013 14.1745823,109.877571 C14.0618734,107.31371 14.2330633,104.7376 14.1537215,102.169673 C14.0869367,100.09239 13.0014177,98.1378434 11.1894177,97.0583152 C8.04141772,95.185493 3.67432911,96.064677 1.55341772,98.8942918 C-0.504911392,101.642182 -0.137518987,105.73942 2.41762025,108.172413 C4.25883544,109.926616 6.55513924,110.683114 9.19377215,111.079736 L9.19377215,106.790286 C8.71782278,106.643102 8.15417722,106.512234 7.62394937,106.299591 C7.04359494,106.066517 6.45073418,105.825261 5.93721519,105.4818 C4.668,104.631279 4.25048101,103.101968 4.86420253,101.830277 C5.34850633,100.824341 6.7555443,100.161916 7.93706329,100.382741 C9.38582278,100.65261 9.89934177,101.380445 9.90349367,103.22872 C9.9118481,105.845742 9.82,108.462714 9.9076962,111.075669 C9.9995443,113.692641 10.7677468,116.137932 12.454481,118.227464 C14.4418228,120.693136 18.0407089,121.535524 21.0216709,120.271967 L21.0216709,120.271967 Z M18.7546329,58.600548 C17.2892152,57.5087709 16.9134177,55.9712775 16.9217722,54.2988492 C16.9259747,53.4933066 17.0553924,52.6877639 17.1472405,51.6450316 C20.0656203,51.6450316 22.8795949,51.5387102 25.6810633,51.6900098 C27.0713418,51.7636512 27.8437468,52.9494512 28.2027848,54.1802791 C28.6244557,55.6155176 28.5033924,57.0262586 27.3093165,58.1507652 C25.2677468,60.0644496 21.0133671,60.2811586 18.7546329,58.600548 L18.7546329,58.600548 Z M25.0589873,63.8632049 C29.8853165,63.1802988 32.7869873,59.6023684 32.5030886,54.8631357 C32.4404557,53.836768 32.1022785,52.8267652 31.8517975,51.6368492 L39.7468354,51.6368492 L39.7468354,47.3147193 L13.8656709,47.3147193 C13.1767595,49.2529508 12.6757468,53.182525 12.8385823,55.1493701 C13.2268861,59.851807 15.652557,62.8286549 20.1491139,63.7487012 C21.731443,64.0758475 23.4557468,64.0921627 25.0589873,63.8632049 L25.0589873,63.8632049 Z M31.8475949,23.4835709 C28.4198987,22.2936549 24.9837975,21.0955566 21.5435949,19.8974582 L21.5435949,19.5172008 C24.9921519,18.3231689 28.4366076,17.1250705 31.8768608,15.9310881 L31.8768608,12.2059246 C28.399038,10.9955775 24.9545823,9.79742951 21.5060253,8.59933115 L21.5060253,8.25180328 C24.988,7.03734016 28.4699747,5.82287705 31.8309367,4.64932582 L31.8309367,0.200393852 C25.5057215,2.3635168 19.3391392,4.4734791 13.1726076,6.58344139 L13.1726076,10.2554443 L23.6060759,13.8906016 L23.6060759,14.2586102 C20.1073418,15.4730734 16.6045063,16.6834701 13.180962,17.8733861 L13.180962,21.5535217 C19.372557,23.6716664 25.5432911,25.7816287 31.8475949,27.9365693 L31.8475949,23.4835709 Z" id="Fill-9"></path>
                </g>
            </g>
            <path d="M282.78,197 C282.78,245.875722 253.335299,289.937885 208.178083,308.637139 C163.020868,327.336394 111.04581,316.989525 76.4926081,282.422019 C41.9394064,247.854513 31.6140498,195.875177 50.3319931,150.725705 C69.0499364,105.576233 113.124282,76.149775 162,76.1699896 C228.713039,76.1976062 282.78,130.286955 282.78,197 Z" id="Path" stroke="#F94F24" stroke-width="1.60241" stroke-linecap="round" stroke-dasharray="5.578639984130859,5.608439922332764"></path>
            <path d="M474.76,197 C474.76,199.209139 472.969139,201 470.76,201 C468.550861,201 466.76,199.209139 466.76,197 C466.76,194.790861 468.550861,193 470.76,193 C472.969139,193 474.76,194.790861 474.76,197 Z" id="Path" stroke="#F94F24" stroke-width="2" fill="#FFFFFF" fill-rule="nonzero" stroke-linecap="round"></path>
            <path d="M466.7,197 L282.78,197" id="Path" stroke="#F94F24" stroke-width="1.60241" stroke-linecap="round" stroke-dasharray="5.578639984130859,5.608439922332764"></path>
            <path d="M277.9,162.93 L306.79,162.93 C306.79,162.93 326,162.28 326,149.66 L326,72.82 C326,72.82 328.19,53.62 347.4,53.62 L468.69,53.62" id="Path" stroke="#F94F24" stroke-width="1.60241" stroke-linecap="round" stroke-dasharray="5.578639984130859,5.608439922332764"></path>
            <path d="M474.76,53.61 C474.76,55.819139 472.969139,57.61 470.76,57.61 C468.550861,57.61 466.76,55.819139 466.76,53.61 C466.76,51.400861 468.550861,49.61 470.76,49.61 C472.969139,49.61 474.76,51.400861 474.76,53.61 Z" id="Path" stroke="#F94F24" stroke-width="2" fill="#FFFFFF" fill-rule="nonzero" stroke-linecap="round"></path>
            <path d="M277.9,234 L306.79,234 C306.79,234 326,234.66 326,247.28 L326,324.11 C326,324.11 328.19,343.32 347.4,343.32 L468.69,343.32" id="Path" stroke="#F94F24" stroke-width="1.60241" stroke-linecap="round" stroke-dasharray="5.578639984130859,5.608439922332764"></path>
            <path d="M474.76,343.33 C474.76,341.120861 472.969139,339.33 470.76,339.33 C468.550861,339.33 466.76,341.120861 466.76,343.33 C466.76,345.539139 468.550861,347.33 470.76,347.33 C472.969139,347.33 474.76,345.539139 474.76,343.33 Z" id="Path" stroke="#F94F24" stroke-width="2" fill="#FFFFFF" fill-rule="nonzero" stroke-linecap="round"></path>
        </g>
    </g>
</svg>