<svg width="20" height="11" viewBox="0 0 20 11" fill="none" xmlns="http://www.w3.org/2000/svg">
<path fill-rule="evenodd" clip-rule="evenodd" d="M13.2279 10.6038C13.5206 10.8967 13.9956 10.8967 14.2883 10.6038L18.9501 5.94201C19.0966 5.79575 19.1698 5.60355 19.1698 5.41177C19.1698 5.21997 19.0966 5.02781 18.9501 4.88135L14.2883 0.219568C13.9963 -0.072197 13.5232 -0.0733671 13.2301 0.217612C12.9365 0.508608 12.9338 0.976635 13.2234 1.27074L16.5534 4.65185L0.74994 4.65183C0.335694 4.65183 0 4.99688 0 5.41093C0 5.82514 0.335694 6.17002 0.74994 6.17002L16.6093 6.17004L13.2279 9.54745C12.9349 9.84039 12.9349 10.3108 13.2279 10.6038Z" fill="white"/>
</svg>
