<svg width="32" height="26" viewBox="0 0 32 26" fill="none" xmlns="http://www.w3.org/2000/svg">
<g id="communicate-icon">
<path id="Shape" fill-rule="evenodd" clip-rule="evenodd" d="M20.7812 17.7812V18.8438C20.7812 19.7203 20.0641 20.4375 19.1875 20.4375H9.73125H9.35938L9.09375 20.65L5.64062 23.3063V21.5V20.4375H4.57812H3.51562C2.63906 20.4375 1.92188 19.7203 1.92188 18.8438V7.6875C1.92188 6.81094 2.63906 6.09375 3.51562 6.09375H9.625V5.03125H3.51562C2.05469 5.03125 0.859375 6.22656 0.859375 7.6875V18.8438C0.859375 20.3047 2.05469 21.5 3.51562 21.5H4.57812V25.4844L9.73125 21.5H19.1875C20.6484 21.5 21.8438 20.3047 21.8438 18.8438V17.7812H20.7812Z" fill="#7B39D9"/>
<path id="Shape_2" fill-rule="evenodd" clip-rule="evenodd" d="M28.4844 1.84375C29.3609 1.84375 30.0781 2.56094 30.0781 3.4375V14.5938C30.0781 15.4703 29.3609 16.1875 28.4844 16.1875H27.4219H26.3594V17.25V19.0828L22.9062 16.4266L22.6406 16.1875H22.2687H12.8125C11.9359 16.1875 11.2187 15.4703 11.2187 14.5938V3.4375C11.2187 2.56094 11.9359 1.84375 12.8125 1.84375H28.4844ZM28.4844 0.78125H12.8125C11.3516 0.78125 10.1562 1.97656 10.1562 3.4375V14.5938C10.1562 16.0547 11.3516 17.25 12.8125 17.25H22.2688L27.4219 21.2344V17.25H28.4844C29.9453 17.25 31.1406 16.0547 31.1406 14.5938V3.4375C31.1406 1.97656 29.9453 0.78125 28.4844 0.78125Z" fill="#7B39D9"/>
</g>
</svg>
