<svg width="23" height="23" viewBox="0 0 23 23" fill="none" xmlns="http://www.w3.org/2000/svg">
<g id="find-time-icon">
<path id="Shape" fill-rule="evenodd" clip-rule="evenodd" d="M20.125 0.958333C21.182 0.958333 22.0417 1.81796 22.0417 2.875V20.125C22.0417 21.182 21.182 22.0417 20.125 22.0417H2.875C1.81796 22.0417 0.958333 21.182 0.958333 20.125V2.875C0.958333 1.81796 1.81796 0.958333 2.875 0.958333H20.125ZM20.125 0H2.875C1.29375 0 0 1.29375 0 2.875V20.125C0 21.7063 1.29375 23 2.875 23H20.125C21.7063 23 23 21.7063 23 20.125V2.875C23 1.29375 21.7063 0 20.125 0Z" fill="#7B39D9"/>
<path id="Shape_2" fill-rule="evenodd" clip-rule="evenodd" d="M12 4.125C16.3421 4.125 19.875 7.65792 19.875 12C19.875 16.3421 16.3421 19.875 12 19.875C7.65792 19.875 4.125 16.3421 4.125 12C4.125 7.65792 7.65792 4.125 12 4.125ZM12 3C7.0295 3 3 7.0295 3 12C3 16.9705 7.0295 21 12 21C16.97 21 21 16.9705 21 12C21 7.0295 16.97 3 12 3Z" fill="#7B39D9"/>
<path id="Path" fill-rule="evenodd" clip-rule="evenodd" d="M14.625 12H12V6.5C12 6.2235 12.168 6 12.375 6C12.582 6 12.75 6.2235 12.75 6.5V11H14.625C14.832 11 15 11.2235 15 11.5C15 11.7765 14.832 12 14.625 12Z" fill="#7B39D9"/>
</g>
</svg>
