<svg width="20" height="20" viewBox="0 0 20 20" fill="none" xmlns="http://www.w3.org/2000/svg">
<path fill-rule="evenodd" clip-rule="evenodd" d="M5.13021 15.9375C5.06076 16.0156 4.97396 16.0026 4.86979 15.8984C4.75694 15.803 4.73958 15.7205 4.81771 15.651C4.88715 15.5729 4.97396 15.5859 5.07812 15.6901C5.18229 15.7856 5.19965 15.8681 5.13021 15.9375ZM4.58333 15.1432C4.66146 15.2474 4.66146 15.3299 4.58333 15.3906C4.51389 15.4427 4.4401 15.4123 4.36198 15.2995C4.28385 15.1866 4.28385 15.1085 4.36198 15.0651C4.4401 15.0043 4.51389 15.0304 4.58333 15.1432ZM3.78906 14.362C3.74566 14.4227 3.68924 14.4314 3.61979 14.388C3.53299 14.3446 3.5026 14.2925 3.52865 14.2318C3.55469 14.1884 3.61111 14.1797 3.69792 14.2057C3.78472 14.2491 3.8151 14.3012 3.78906 14.362ZM4.19271 14.8047C4.14062 14.8655 4.07118 14.8524 3.98438 14.7656C3.90625 14.6701 3.89757 14.6007 3.95833 14.5573C4.01042 14.5052 4.07986 14.5182 4.16667 14.5964C4.24479 14.6918 4.25347 14.7613 4.19271 14.8047ZM5.8724 16.263C5.83767 16.3672 5.75521 16.3932 5.625 16.3411C5.47743 16.3064 5.42101 16.2413 5.45573 16.1458C5.49045 16.0503 5.57292 16.02 5.70312 16.0547C5.84201 16.0981 5.89844 16.1675 5.8724 16.263ZM6.69271 16.3281C6.69271 16.4236 6.62326 16.4714 6.48438 16.4714C6.33681 16.4887 6.26302 16.441 6.26302 16.3281C6.26302 16.2326 6.33247 16.1849 6.47135 16.1849C6.61892 16.1675 6.69271 16.2153 6.69271 16.3281ZM7.44792 16.1979C7.46528 16.2847 7.40451 16.3455 7.26562 16.3802C7.12674 16.4149 7.04861 16.3802 7.03125 16.276C7.01389 16.1719 7.07465 16.1068 7.21354 16.0807C7.35243 16.0634 7.43056 16.1024 7.44792 16.1979ZM20 3.75V16.25C20 17.283 19.6332 18.1662 18.8997 18.8997C18.1662 19.6332 17.283 20 16.25 20H13.3333C13.1944 20 13.0881 19.9957 13.0143 19.987C12.9405 19.9783 12.8559 19.9566 12.7604 19.9219C12.6649 19.8872 12.5955 19.8242 12.5521 19.7331C12.5087 19.6419 12.487 19.5226 12.487 19.375V16.263C12.487 15.421 12.2613 14.8047 11.8099 14.4141C12.3047 14.362 12.7496 14.2839 13.1445 14.1797C13.5395 14.0755 13.9475 13.9062 14.3685 13.6719C14.7895 13.4375 15.1411 13.1489 15.4232 12.806C15.7053 12.4631 15.9353 12.0074 16.1133 11.4388C16.2912 10.8702 16.3802 10.217 16.3802 9.47917C16.3802 8.42882 16.0373 7.53472 15.3516 6.79688C15.6727 6.00694 15.638 5.12153 15.2474 4.14062C15.0043 4.0625 14.6528 4.11024 14.1927 4.28385C13.7326 4.45747 13.3333 4.64844 12.9948 4.85677L12.5 5.16927C11.6927 4.94358 10.8594 4.83073 10 4.83073C9.14062 4.83073 8.30729 4.94358 7.5 5.16927C7.36111 5.07378 7.17665 4.9566 6.94661 4.81771C6.71658 4.67882 6.35417 4.51172 5.85938 4.31641C5.36458 4.12109 4.99132 4.0625 4.73958 4.14062C4.35764 5.12153 4.32726 6.00694 4.64844 6.79688C3.96267 7.53472 3.61979 8.42882 3.61979 9.47917C3.61979 10.217 3.70877 10.8681 3.88672 11.4323C4.06467 11.9965 4.29253 12.4523 4.57031 12.7995C4.84809 13.1467 5.19748 13.4375 5.61849 13.6719C6.0395 13.9062 6.44748 14.0755 6.84245 14.1797C7.23741 14.2839 7.68229 14.362 8.17708 14.4141C7.82986 14.7266 7.61719 15.1736 7.53906 15.7552C7.35677 15.842 7.16146 15.9071 6.95312 15.9505C6.74479 15.9939 6.4974 16.0156 6.21094 16.0156C5.92448 16.0156 5.64019 15.9223 5.35807 15.7357C5.07595 15.549 4.83507 15.2778 4.63542 14.9219C4.47049 14.6441 4.25998 14.4184 4.00391 14.2448C3.74783 14.0712 3.53299 13.967 3.35938 13.9323L3.09896 13.8932C2.91667 13.8932 2.7908 13.9128 2.72135 13.9518C2.65191 13.9909 2.63021 14.0408 2.65625 14.1016C2.68229 14.1623 2.72135 14.2231 2.77344 14.2839C2.82552 14.3446 2.88194 14.3967 2.94271 14.4401L3.03385 14.5052C3.22483 14.592 3.41363 14.7569 3.60026 15C3.78689 15.2431 3.92361 15.4644 4.01042 15.6641L4.14062 15.9635C4.25347 16.2934 4.44444 16.5603 4.71354 16.7643C4.98264 16.9683 5.27344 17.0985 5.58594 17.1549C5.89844 17.2114 6.20009 17.2418 6.49089 17.2461C6.78168 17.2504 7.02257 17.2352 7.21354 17.2005L7.51302 17.1484C7.51302 17.4783 7.51519 17.9253 7.51953 18.4896C7.52387 19.0538 7.52604 19.349 7.52604 19.375C7.52604 19.566 7.4783 19.7114 7.38281 19.8112C7.28733 19.911 7.19184 19.9674 7.09635 19.9805C7.00087 19.9935 6.85764 20 6.66667 20H3.75C2.71701 20 1.83377 19.6332 1.10026 18.8997C0.366753 18.1662 0 17.283 0 16.25V3.75C0 2.71701 0.366753 1.83377 1.10026 1.10026C1.83377 0.366753 2.71701 0 3.75 0H16.25C17.283 0 18.1662 0.366753 18.8997 1.10026C19.6332 1.83377 20 2.71701 20 3.75Z" fill="black"/>
</svg>
