<svg width="27" height="20" viewBox="0 0 27 20" fill="none" xmlns="http://www.w3.org/2000/svg">
<g id="learning-icon">
<path id="Shape" fill-rule="evenodd" clip-rule="evenodd" d="M26.3597 0H18.662C16.1089 0 14.3365 1.69632 13.5 2.71869C12.6635 1.69632 10.8911 0 8.33799 0H0.640262C0.286624 0 0 0.294056 0 0.656865V9.67554C0 10.0384 0.286624 10.3324 0.640262 10.3324C0.9939 10.3324 1.28052 10.0384 1.28052 9.67554V1.31373H8.33799C10.8145 1.31373 12.4582 3.43854 12.8597 4.01717V17.381C11.5969 16.3228 9.50732 15.5864 6.61284 15.1834C4.40187 14.8757 2.31184 14.8447 1.28052 14.8528V12.7897C1.28052 12.4269 0.9939 12.1328 0.640262 12.1328C0.286624 12.1328 0 12.4269 0 12.7897V15.5223V19.3431C0 19.7059 0.286624 19.9999 0.640262 19.9999H13.4986C13.499 19.9999 13.4993 20 13.4996 20C13.4997 20 13.4999 20 13.5 20C13.5001 20 13.5003 20 13.5004 20C13.5007 20 13.501 19.9999 13.5014 19.9999H26.3597C26.7134 19.9999 27 19.7059 27 19.3431V15.5223V0.656865C27 0.294129 26.7133 0 26.3597 0ZM18.6621 1.31396H25.7195V14.8536C25.6391 14.853 25.5522 14.8526 25.4593 14.8526C24.0591 14.8526 21.3297 14.9314 18.7821 15.4585C16.7085 15.8875 15.1567 16.5318 14.1404 17.3831V4.01623C14.54 3.43586 16.1721 1.31396 18.6621 1.31396ZM1.28052 16.1674C2.27008 16.1603 4.31849 16.1897 6.4406 16.4852C9.3353 16.8882 11.3733 17.6551 12.3477 18.6861H1.28052V16.1674ZM14.6431 18.686C16.3543 16.8463 21.1511 16.166 25.4592 16.166C25.5526 16.166 25.6391 16.1664 25.7194 16.167V18.6861H14.6431V18.686Z" fill="#7B39D9"/>
<path id="Path" fill-rule="evenodd" clip-rule="evenodd" d="M17.6614 5H22.3386C22.7039 5 23 4.77617 23 4.5C23 4.22383 22.7039 4 22.3386 4H17.6614C17.2961 4 17 4.22383 17 4.5C17 4.77617 17.2961 5 17.6614 5Z" fill="#7B39D9"/>
<path id="Path_2" fill-rule="evenodd" clip-rule="evenodd" d="M17.6614 9H22.3386C22.7039 9 23 8.77617 23 8.5C23 8.22383 22.7039 8 22.3386 8H17.6614C17.2961 8 17 8.22383 17 8.5C17 8.77617 17.2961 9 17.6614 9Z" fill="#7B39D9"/>
<path id="Path_3" fill-rule="evenodd" clip-rule="evenodd" d="M17.6614 12H22.3386C22.7039 12 23 11.7762 23 11.5C23 11.2238 22.7039 11 22.3386 11H17.6614C17.2961 11 17 11.2238 17 11.5C17 11.7762 17.2961 12 17.6614 12Z" fill="#7B39D9"/>
<path id="Path_4" fill-rule="evenodd" clip-rule="evenodd" d="M4.66136 5H9.33864C9.70393 5 10 4.77617 10 4.5C10 4.22383 9.70393 4 9.33864 4H4.66136C4.29607 4 4 4.22383 4 4.5C4 4.77617 4.29614 5 4.66136 5Z" fill="#7B39D9"/>
<path id="Path_5" fill-rule="evenodd" clip-rule="evenodd" d="M4.66136 9H9.33864C9.70393 9 10 8.77617 10 8.5C10 8.22383 9.70393 8 9.33864 8H4.66136C4.29607 8 4 8.22383 4 8.5C4 8.77617 4.29614 9 4.66136 9Z" fill="#7B39D9"/>
<path id="Path_6" fill-rule="evenodd" clip-rule="evenodd" d="M4.66136 12H9.33864C9.70393 12 10 11.7762 10 11.5C10 11.2238 9.70393 11 9.33864 11H4.66136C4.29607 11 4 11.2238 4 11.5C4 11.7762 4.29614 12 4.66136 12Z" fill="#7B39D9"/>
</g>
</svg>
