<svg width="20" height="20" viewBox="0 0 20 20" fill="none" xmlns="http://www.w3.org/2000/svg">
<path fill-rule="evenodd" clip-rule="evenodd" d="M20 18.75C20 19.44 19.44 20 18.75 20H1.25C0.56 20 0 19.44 0 18.75V1.25C0 0.56 0.56 0 1.25 0H18.75C19.44 0 20 0.56 20 1.25V18.75Z" fill="#007BB5"/>
<rect x="5" y="7.15796" width="2.44444" height="8.8421" fill="white"/>
<path fill-rule="evenodd" clip-rule="evenodd" d="M13.2493 7.15796C11.5437 7.15796 11.2504 7.80091 11.1111 8.42112V7.15796H8.66663V16.0001H11.1111V10.9474C11.1111 10.1283 11.5407 9.68427 12.3333 9.68427C13.107 9.68427 13.5555 10.1188 13.5555 10.9474V16.0001H16V11.579C16 9.0527 15.6816 7.15796 13.2493 7.15796Z" fill="white"/>
<ellipse cx="6.22222" cy="5.26316" rx="1.22222" ry="1.26316" fill="white"/>
</svg>
