<?xml version="1.0" encoding="UTF-8"?>
<svg width="315px" height="185px" viewBox="0 0 315 185" version="1.1" xmlns="http://www.w3.org/2000/svg" xmlns:xlink="http://www.w3.org/1999/xlink">
    <!-- Generator: Sketch 55.2 (78181) - https://sketchapp.com -->
    <title>Logo</title>
    <desc>Created with Sketch.</desc>
    <defs>
        <path d="M59.2852388,54.8887757 L35.1740455,68.650364 C32.8921438,69.9524669 30.080938,69.9524669 27.7990884,68.650364 L3.68742645,54.8887757 C1.40557686,53.586261 1.1295613e-15,51.1798051 1.28904814e-15,48.5751875 L2.97435664e-15,21.052011 C3.13384347e-15,18.4473934 1.40557686,16.0405772 3.68742645,14.7384743 L27.7990884,0.976886029 C30.080938,-0.325628676 32.8921438,-0.325628676 35.1740455,0.976886029 L59.2852388,14.7384743 C61.5671405,16.0405772 62.9727174,18.4473934 62.9727174,21.052011 L62.9727174,48.5751875 C62.9727174,51.1798051 61.5671405,53.586261 59.2852388,54.8887757 Z M46.0597165,23.2046397 C44.2514083,28.2483456 42.4301876,33.3048162 40.6094355,38.3667941 L40.0315537,38.3667941 C38.2168413,33.2925147 36.3960372,28.2237426 34.5813248,23.1617647 L28.9198116,23.1617647 C27.0801595,28.2793309 25.2594074,33.3476397 23.4386554,38.4223824 L22.9101322,38.4223824 C21.0644926,33.2984338 19.2188529,28.1748971 17.4349636,23.2292426 L10.6735537,23.2292426 C13.9613207,32.5366176 17.1679686,41.6105735 20.3745645,50.6845294 L25.9553231,50.6845294 L31.480319,35.3317794 L32.0397174,35.3317794 C33.885357,40.4803309 35.7250091,45.6348529 37.5333174,50.6721765 L43.1265719,50.6721765 C46.3456116,41.5613162 49.5522595,32.4814412 52.8275826,23.2046397 L46.0597165,23.2046397 Z" id="path-1"></path>
    </defs>
    <g id="About-Us" stroke="none" stroke-width="1" fill="none" fill-rule="evenodd">
        <g id="Artboard" transform="translate(-120.000000, -1895.000000)">
            <g id="Webiny-Logo" transform="translate(120.000000, 1895.000000)">
                <g id="Logo">
                    <rect id="Rectangle" fill="#FA5823" x="0" y="0" width="315" height="185"></rect>
                    <g id="Group-27" transform="translate(157.000000, 92.500000) rotate(-90.000000) translate(-157.000000, -92.500000) translate(122.000000, -21.000000)">
                        <path d="M22.089486,162.324509 L22.089486,167.141322 L43.8013552,167.141322 L43.8013552,162.324509 L22.089486,162.324509 Z M43.8256957,215.490293 L43.8256957,210.453747 C39.5396278,210.453747 35.4673191,210.463745 31.3950103,210.448803 C28.6884519,210.434301 26.7837638,208.501917 26.8081043,205.842109 C26.8275221,203.157856 28.1832627,201.913126 31.196129,201.893625 C34.7578881,201.869179 38.3245701,201.893625 41.8867668,201.879122 C42.5330764,201.874178 43.1793861,201.766784 43.7963777,201.70839 L43.7963777,197.003915 C43.6019816,196.921021 43.5000795,196.837633 43.3981227,196.837633 C38.3101298,196.82313 33.2126742,196.740291 28.1251189,196.837633 C25.6467052,196.886578 23.7077762,198.057917 22.6676968,200.51255 C24.3347228,203.026071 24.1885702,205.807721 23.8485137,208.594315 C23.5666011,210.868657 23.7222164,213.094109 24.2129107,215.539183 C30.7730412,215.519737 37.2849282,215.592633 43.8256957,215.490293 L43.8256957,215.490293 Z M38.7038449,192.113711 C40.8128841,192.055263 42.3630208,190.698634 43.2569476,188.751308 C44.1801924,186.740645 44.5788849,184.598088 44.0733128,182.450586 C43.6556401,180.674048 42.8925506,178.980899 42.2606265,177.199362 C42.9267914,176.42843 43.6845206,175.54516 44.5252264,174.578996 C43.4463662,173.373213 42.5181986,172.329099 41.5904139,171.289544 C38.8107791,173.514996 38.8107791,173.514996 35.1903839,173.514996 C31.4586239,173.514996 27.7214488,173.514996 23.9896888,173.51994 C23.3870828,173.51994 22.7795539,173.57339 22.099441,173.607833 L22.099441,178.575932 L34.2621616,178.575932 C36.9056534,178.575932 38.6795043,179.962005 39.3452317,182.548422 C40.1228162,185.57425 38.9320989,187.155555 35.8317708,187.165059 C31.8762966,187.179561 27.915845,187.165059 23.9553933,187.175002 C23.3528419,187.175002 22.7502358,187.233451 22.1382217,187.267399 L22.1382217,192.157603 C27.7457894,192.157603 33.2270597,192.255439 38.7038449,192.113711 L38.7038449,192.113711 Z M39.5978263,126.952066 C39.4327483,129.362753 38.4607677,130.294913 36.0261669,130.129125 C33.5820487,127.68905 34.6171506,124.658223 34.4516349,121.803183 C37.4694241,122.008413 39.7728047,124.385095 39.5978263,126.952066 L39.5978263,126.952066 Z M28.5815177,133.969831 C28.0470651,132.735044 27.5513933,131.656541 27.1188428,130.553594 C26.4337523,128.825946 26.2344334,127.034961 26.6038079,125.199974 C26.9682049,123.374985 27.8382287,122.496219 29.7577947,122.149701 C29.7577947,123.189256 29.7623346,124.194862 29.7577947,125.19503 C29.7334541,127.55721 30.0636103,129.851053 31.1812512,131.959113 C33.4701916,136.268618 39.3939128,136.800426 42.2318007,132.901271 C45.2446123,128.767552 44.9870949,122.598615 40.754248,119.026532 C37.5812811,116.352221 33.8688842,115.829972 29.8935547,116.469119 C26.6475662,116.996367 24.1935477,118.680013 22.7308728,121.612949 C20.6512063,125.780672 21.754407,132.783989 25.029276,136.424903 C26.205553,135.609585 27.3957779,134.784709 28.5815177,133.969831 L28.5815177,133.969831 Z M31.2055917,226.304817 C34.4033367,224.914184 36.5367165,221.049033 36.0410447,217.505955 C35.9972864,217.188441 35.7979128,216.895812 35.6422975,216.534792 L30.6954797,216.534792 C30.8023593,217.203383 30.9336341,217.754637 30.9674373,218.31089 C31.0549539,219.706906 30.3017647,221.073533 29.2183646,221.571337 C28.0033068,222.132534 26.2686743,221.810461 25.3305516,220.736518 C24.8592204,220.194768 24.3829663,219.550621 24.203448,218.872527 C23.7708975,217.242331 23.3045437,215.573187 23.2364449,213.899484 C23.1052248,210.839213 23.3045437,207.764989 23.2121044,204.700214 C23.1340506,202.220696 21.8707493,199.887905 19.7617648,198.599668 C16.0981036,196.364329 11.0150335,197.413826 8.54662944,200.790677 C6.15075474,204.07057 6.57832774,208.960335 9.55241329,211.864266 C11.6952011,213.957878 14.3679563,214.860649 17.4389664,215.334008 L17.4389664,210.214568 C16.8851508,210.038837 16.2288861,209.883047 15.6118945,209.628926 C14.9367044,209.350799 14.2466364,209.063169 13.6485703,208.653203 C12.1714552,207.637654 11.6857384,205.812665 12.3997092,204.294807 C12.9634799,203.094463 14.6011331,202.303591 15.9763462,202.567215 C17.6626805,202.889233 18.2603091,203.758056 18.2652866,205.963951 C18.2747493,209.087175 18.1678698,212.210784 18.2702094,215.329448 C18.3771437,218.452673 19.2710705,221.371106 21.23434,223.864686 C23.5471833,226.807565 27.7363267,227.813171 31.2055917,226.304817 L31.2055917,226.304817 Z M28.5671321,152.700331 C26.8613253,151.397647 26.4242896,149.56222 26.4337523,147.566444 C26.4387298,146.60484 26.5893677,145.643619 26.6962473,144.398889 C30.0929283,144.398889 33.3682349,144.272048 36.6287183,144.452779 C38.2470085,144.540672 39.1458581,145.955695 39.5639684,147.424662 C40.0546627,149.137807 39.9139798,150.821453 38.523889,152.16358 C36.1479243,154.447425 31.196129,154.706106 28.5671321,152.700331 L28.5671321,152.700331 Z M35.9047924,158.981168 C41.5223151,158.16629 44.8995784,153.896171 44.5689846,148.240035 C44.4963459,147.014751 44.1026309,145.809408 43.8108179,144.389386 L53,144.389386 L53,139.230998 L22.8765331,139.230998 C22.0750457,141.544288 21.4919121,146.233821 21.6813307,148.581554 C22.1332442,154.193799 24.9566372,157.74682 30.1903452,158.844824 C32.0318573,159.235289 34.0389397,159.254735 35.9047924,158.981168 L35.9047924,158.981168 Z M43.8063327,110.788482 C39.816563,109.36846 35.8173306,107.938441 31.8131206,106.508421 L31.8131206,106.054563 C35.8267933,104.629542 39.835926,103.199523 43.8401359,101.774502 L43.8401359,97.3286524 C39.7921677,95.8841303 35.7834726,94.4541106 31.7693624,93.0241459 L31.7693624,92.6091809 C35.8222534,91.1601543 39.8747068,89.7106883 43.7864774,88.3096733 L43.7864774,83 C36.4248594,85.5819129 29.247245,88.0999385 22.0701229,90.6184036 L22.0701229,95.0008603 L34.2139181,99.3393704 L34.2139181,99.7787257 C30.1416094,101.228192 26.0643778,102.672714 22.0800232,104.092736 L22.0800232,108.485135 C29.2864634,111.013159 36.4686177,113.531184 43.8063327,116.103099 L43.8063327,110.788482 Z" id="Fill-23" fill="#FFFFFF"></path>
                        <g id="Webiny-Icon-White" transform="translate(35.000000, 31.500000) rotate(90.000000) translate(-35.000000, -31.500000) translate(3.500000, -3.500000)">
                            <mask id="mask-2" fill="white">
                                <use xlink:href="#path-1"></use>
                            </mask>
                            <use id="Mask" fill="#FFFFFF" fill-rule="evenodd" xlink:href="#path-1"></use>
                            <g id="White" mask="url(#mask-2)"></g>
                        </g>
                    </g>
                </g>
            </g>
        </g>
    </g>
</svg>