<svg width="19" height="27" viewBox="0 0 19 27" fill="none" xmlns="http://www.w3.org/2000/svg">
<g id="motivated-icon">
<path id="Shape" fill-rule="evenodd" clip-rule="evenodd" d="M7.97247 24.4124C6.27627 24.2834 5.22467 23.4202 4.95994 23.1936C4.75754 23.0228 4.5632 22.8431 4.39454 22.6825L4.08947 22.3782C2.61694 20.8147 2.14687 19.1735 2.51721 16.8921C2.67487 15.9278 3.02834 15.0397 3.40234 14.0988C3.50427 13.8429 3.60621 13.5848 3.70594 13.3237C3.81227 14.024 3.88121 14.6943 3.90614 15.1805L4.02201 17.4304L5.25254 15.5428C6.72727 13.2804 7.99081 8.57612 8.18587 5.13752C8.23134 4.31618 8.13234 3.54178 7.80747 2.54665C7.48261 1.55151 6.51241 1.71798 6.51241 1.71798L6.69574 3.25872C6.97001 5.56578 6.19194 9.69372 5.07141 12.597C4.90054 11.6246 4.75167 10.999 4.57274 10.1608C4.27427 8.76385 3.31214 7.91538 3.31214 7.91538C3.31214 7.91538 3.33487 8.78658 3.10607 10.1843C2.87507 11.5916 2.48494 12.4378 2.03981 13.5584C1.65407 14.53 1.25441 15.5347 1.07034 16.6574C0.623739 19.4038 1.22581 21.4784 3.03641 23.4004L3.37007 23.7334C3.56954 23.9248 3.78734 24.1242 4.01027 24.3127C4.45687 24.694 5.79374 25.7185 7.861 25.8754C7.88007 25.8769 7.89914 25.8776 7.91747 25.8776C8.29734 25.8776 8.61854 25.585 8.64787 25.2C8.67867 24.7952 8.3758 24.4432 7.97247 24.4124Z" fill="#7B39D9"/>
<path id="Shape_2" fill-rule="evenodd" clip-rule="evenodd" d="M17.7573 13.2957C17.1061 10.3507 15.4583 8.02893 14.9758 7.47673C14.0679 6.36353 13.3038 6.17286 13.3038 6.17286C13.3038 6.17286 13.7313 7.15846 13.7995 8.27533C13.8677 9.3922 13.6902 9.77793 13.3082 10.754C13.0024 9.70166 11.425 6.35546 10.325 4.68273C9.28582 3.10313 7.81622 1.41426 6.29822 0.468262C6.33269 0.831995 6.53435 1.82859 6.56882 2.1872C9.07315 4.726 11.8488 10.5956 12.327 12.8858L12.624 14.307L13.592 13.2246C14.0774 12.6819 14.7074 11.4023 15.0491 10.1497C15.514 11.0275 16.0178 12.2192 16.3258 13.6125C16.834 15.9108 16.8883 19.2717 14.2615 22.2299C13.8039 22.7462 12.8117 24.295 10.7716 24.4109C10.3668 24.4343 10.058 24.7805 10.0808 25.1845C10.1028 25.5747 10.4262 25.8761 10.8126 25.8761C10.8266 25.8761 10.8412 25.8761 10.8552 25.8753C12.613 25.7749 13.8633 24.8897 15.3586 23.2031C18.3953 19.7828 18.3396 15.9277 17.7573 13.2957Z" fill="#7B39D9"/>
</g>
</svg>
