<svg width="32" height="27" viewBox="0 0 32 27" fill="none" xmlns="http://www.w3.org/2000/svg">
<g id="quality-work-icon">
<path id="Polygon" fill-rule="evenodd" clip-rule="evenodd" d="M9.87492 21.7587L9.37599 22.2452L9.16449 22.4511L9.21455 22.743L9.72699 25.7322L7.04274 24.3208L6.78061 24.183L6.51905 24.3208L3.8348 25.7322L4.3478 22.743L4.39786 22.4511L4.18636 22.2452L2.01455 20.1291L5.01549 19.692L5.30799 19.6498L5.43905 19.3843L6.78061 16.6658L8.12274 19.3843L8.2538 19.6498L8.5463 19.692L10.1888 19.9317L10.2839 19.377L8.6273 19.1357L6.78061 15.3945L4.93449 19.1357L0.805176 19.7365L3.79374 22.648L3.0878 26.761L6.78061 24.8181L10.474 26.761L9.76861 22.648L9.87492 21.7587Z" fill="#7B39D9" stroke="#7B39D9" stroke-width="0.2"/>
<path id="Polygon_2" fill-rule="evenodd" clip-rule="evenodd" d="M31.3185 19.7365L27.1898 19.1357L25.3431 15.3945L23.497 19.1357L21.7195 19.3945L21.8145 19.9491L23.578 19.692L23.8705 19.6498L24.0015 19.3843L25.3431 16.6658L26.6852 19.3843L26.8163 19.6498L27.1088 19.692L30.1097 20.1291L27.9385 22.2452L27.727 22.4511L27.777 22.743L28.2895 25.7322L25.6052 24.3208L25.3431 24.183L25.0815 24.3208L22.3973 25.7322L22.9103 22.743L22.9603 22.4511L22.7488 22.2452L22.1003 21.613L22.2617 22.5563L22.3562 22.648L21.6503 26.761L25.3431 24.8181L29.0365 26.761L28.3311 22.648L31.3185 19.7365Z" fill="#7B39D9" stroke="#7B39D9" stroke-width="0.2"/>
<g id="Shape">
<path fill-rule="evenodd" clip-rule="evenodd" d="M24.9369 11.0705L18.7612 10.1727L15.9999 4.57812L13.2392 10.1727L7.06348 11.0705L11.5331 15.4242L10.4773 21.5752L15.9999 18.6716L21.5225 21.5752L20.4673 15.4242L24.9369 11.0705ZM20.7912 20.5679L16.2569 18.1852L15.9999 18.049L15.7428 18.1846L11.2085 20.5673L12.0759 15.5178L12.1248 15.2309L11.9167 15.0301L8.24805 11.456L13.3184 10.718L13.6059 10.6763L13.733 10.417L15.9999 5.82422L18.2679 10.4176L18.395 10.6769L18.6824 10.7185L23.7522 11.4565L20.0836 15.0307L19.8761 15.2315L19.925 15.5183L20.7912 20.5679Z" fill="#7B39D9"/>
<path d="M18.7612 10.1727L18.6716 10.217L18.6948 10.2641L18.7468 10.2717L18.7612 10.1727ZM15.9999 4.57812L16.0896 4.53387L15.9999 4.35216L15.9102 4.53387L15.9999 4.57812ZM13.2392 10.1727L13.2535 10.2717L13.3056 10.2641L13.3288 10.217L13.2392 10.1727ZM7.06348 11.0705L7.04909 10.9715L6.8485 11.0007L6.9937 11.1421L7.06348 11.0705ZM11.5331 15.4242L11.6317 15.4412L11.6406 15.3893L11.6029 15.3526L11.5331 15.4242ZM10.4773 21.5752L10.3787 21.5583L10.3444 21.758L10.5238 21.6637L10.4773 21.5752ZM15.9999 18.6716L16.0465 18.5831L15.9999 18.5586L15.9534 18.5831L15.9999 18.6716ZM21.5225 21.5752L21.476 21.6637L21.6554 21.758L21.6211 21.5583L21.5225 21.5752ZM20.4673 15.4242L20.3975 15.3526L20.3598 15.3893L20.3687 15.4412L20.4673 15.4242ZM16.2569 18.1852L16.2101 18.2735L16.2104 18.2737L16.2569 18.1852ZM15.9999 18.049L16.0467 17.9607L16 17.9359L15.9532 17.9606L15.9999 18.049ZM15.7428 18.1846L15.7893 18.2731L15.7894 18.273L15.7428 18.1846ZM11.2085 20.5673L11.1099 20.5504L11.0756 20.7501L11.255 20.6559L11.2085 20.5673ZM12.0759 15.5178L12.1744 15.5347L12.1744 15.5346L12.0759 15.5178ZM12.1248 15.2309L12.2234 15.2477L12.2323 15.1956L12.1942 15.1589L12.1248 15.2309ZM11.9167 15.0301L11.8469 15.1017L11.8472 15.1021L11.9167 15.0301ZM8.24805 11.456L8.23364 11.357L8.03313 11.3862L8.17826 11.5276L8.24805 11.456ZM13.3184 10.718L13.3041 10.619L13.304 10.619L13.3184 10.718ZM13.6059 10.6763L13.6202 10.7753L13.6724 10.7678L13.6957 10.7204L13.6059 10.6763ZM13.733 10.417L13.6433 10.3728L13.6432 10.373L13.733 10.417ZM15.9999 5.82422L16.0895 5.77995L15.9998 5.59831L15.9102 5.77996L15.9999 5.82422ZM18.2679 10.4176L18.3577 10.3736L18.3575 10.3733L18.2679 10.4176ZM18.395 10.6769L18.3052 10.7209L18.3284 10.7683L18.3807 10.7759L18.395 10.6769ZM18.6824 10.7185L18.6968 10.6196L18.6968 10.6196L18.6824 10.7185ZM23.7522 11.4565L23.822 11.5282L23.9672 11.3868L23.7666 11.3576L23.7522 11.4565ZM20.0836 15.0307L20.1531 15.1025L20.1534 15.1023L20.0836 15.0307ZM19.8761 15.2315L19.8065 15.1596L19.7686 15.1963L19.7775 15.2483L19.8761 15.2315ZM19.925 15.5183L19.8264 15.5352L19.8264 15.5353L19.925 15.5183ZM24.9513 10.9715L18.7756 10.0738L18.7468 10.2717L24.9225 11.1695L24.9513 10.9715ZM18.8509 10.1285L16.0896 4.53387L15.9102 4.62238L18.6716 10.217L18.8509 10.1285ZM15.9102 4.53387L13.1495 10.1285L13.3288 10.217L16.0896 4.62238L15.9102 4.53387ZM13.2248 10.0738L7.04909 10.9715L7.07786 11.1695L13.2535 10.2717L13.2248 10.0738ZM6.9937 11.1421L11.4633 15.4959L11.6029 15.3526L7.13325 10.9989L6.9937 11.1421ZM11.4345 15.4073L10.3787 21.5583L10.5758 21.5921L11.6317 15.4412L11.4345 15.4073ZM10.5238 21.6637L16.0465 18.7601L15.9534 18.5831L10.4308 21.4867L10.5238 21.6637ZM15.9534 18.7601L21.476 21.6637L21.5691 21.4867L16.0465 18.5831L15.9534 18.7601ZM21.6211 21.5583L20.5658 15.4073L20.3687 15.4412L21.424 21.5921L21.6211 21.5583ZM20.5371 15.4959L25.0067 11.1421L24.8671 10.9989L20.3975 15.3526L20.5371 15.4959ZM20.8378 20.4794L16.3034 18.0966L16.2104 18.2737L20.7447 20.6564L20.8378 20.4794ZM16.3037 18.0968L16.0467 17.9607L15.9531 18.1374L16.2101 18.2735L16.3037 18.0968ZM15.9532 17.9606L15.6962 18.0961L15.7894 18.273L16.0465 18.1375L15.9532 17.9606ZM15.6963 18.0961L11.162 20.4788L11.255 20.6559L15.7893 18.2731L15.6963 18.0961ZM11.307 20.5843L12.1744 15.5347L11.9773 15.5009L11.1099 20.5504L11.307 20.5843ZM12.1744 15.5346L12.2234 15.2477L12.0262 15.2141L11.9773 15.501L12.1744 15.5346ZM12.1942 15.1589L11.9861 14.9581L11.8472 15.1021L12.0554 15.3029L12.1942 15.1589ZM11.9865 14.9585L8.31783 11.3843L8.17826 11.5276L11.8469 15.1017L11.9865 14.9585ZM8.26245 11.5549L13.3328 10.8169L13.304 10.619L8.23364 11.357L8.26245 11.5549ZM13.3328 10.8169L13.6202 10.7753L13.5915 10.5774L13.3041 10.619L13.3328 10.8169ZM13.6957 10.7204L13.8228 10.4611L13.6432 10.373L13.5161 10.6323L13.6957 10.7204ZM13.8227 10.4613L16.0895 5.86848L15.9102 5.77996L13.6433 10.3728L13.8227 10.4613ZM15.9102 5.86849L18.1782 10.4619L18.3575 10.3733L16.0895 5.77995L15.9102 5.86849ZM18.1781 10.4616L18.3052 10.7209L18.4848 10.6329L18.3577 10.3736L18.1781 10.4616ZM18.3807 10.7759L18.6681 10.8175L18.6968 10.6196L18.4093 10.5779L18.3807 10.7759ZM18.668 10.8175L23.7378 11.5555L23.7666 11.3576L18.6968 10.6196L18.668 10.8175ZM23.6825 11.3849L20.0138 14.959L20.1534 15.1023L23.822 11.5282L23.6825 11.3849ZM20.0141 14.9588L19.8065 15.1596L19.9456 15.3033L20.1531 15.1025L20.0141 14.9588ZM19.7775 15.2483L19.8264 15.5352L20.0236 15.5015L19.9746 15.2147L19.7775 15.2483ZM19.8264 15.5353L20.6927 20.5848L20.8898 20.551L20.0236 15.5014L19.8264 15.5353Z" fill="#7B39D9"/>
</g>
<path id="Rectangle" fill-rule="evenodd" clip-rule="evenodd" d="M2.57056 1.8374L7.39668 7.2732L6.97605 7.64665L2.14993 2.21085L2.57056 1.8374Z" fill="#7B39D9" stroke="#7B39D9" stroke-width="0.2"/>
<path id="Rectangle_2" fill-rule="evenodd" clip-rule="evenodd" d="M1.25549 8.06055L6.23508 9.89564L6.04078 10.4229L1.06119 8.5878L1.25549 8.06055Z" fill="#7B39D9" stroke="#7B39D9" stroke-width="0.2"/>
<path id="Rectangle_3" fill-rule="evenodd" clip-rule="evenodd" d="M8.92468 0.760742L10.724 6.87821L10.1838 7.03709L8.38449 0.919626L8.92468 0.760742Z" fill="#7B39D9" stroke="#7B39D9" stroke-width="0.2"/>
<path id="Rectangle_4" fill-rule="evenodd" clip-rule="evenodd" d="M29.4752 1.83789L29.8959 2.21134L25.0697 7.64714L24.6491 7.27369L29.4752 1.83789Z" fill="#7B39D9" stroke="#7B39D9" stroke-width="0.2"/>
<rect id="Rectangle_5" x="30.9875" y="8.58984" width="5.30696" height="0.561913" transform="rotate(159.77 30.9875 8.58984)" fill="#7B39D9" stroke="#7B39D9" stroke-width="0.2"/>
<path id="Rectangle_6" fill-rule="evenodd" clip-rule="evenodd" d="M23.1219 0.761719L23.6621 0.920603L21.8628 7.03807L21.3226 6.87919L23.1219 0.761719Z" fill="#7B39D9" stroke="#7B39D9" stroke-width="0.2"/>
</g>
</svg>
