<svg width="19" height="25" viewBox="0 0 19 25" fill="none" xmlns="http://www.w3.org/2000/svg">
<g id="speak-mind-icon">
<g id="People">
<g id="Icon-25">
<g id="microphone">
<path fill-rule="evenodd" clip-rule="evenodd" d="M17.6138 13.3636H16.841C16.6274 13.3636 16.4547 13.5367 16.4547 13.75C16.4547 17.1867 13.9989 20.0725 10.6128 20.6161C10.4212 20.6392 10.2728 20.8019 10.2728 20.9997V23.7955C10.2728 24.0087 10.4456 24.1818 10.6592 24.1818C10.8729 24.1818 11.0456 24.0087 11.0456 23.7955V21.3231C14.5205 20.6219 17.0381 17.6774 17.2108 14.1364H17.6138C17.8274 14.1364 18.0001 13.9633 18.0001 13.75C18.0001 13.5367 17.8274 13.3636 17.6138 13.3636ZM8.39396 20.6172C5.00478 20.0759 2.54558 17.1886 2.54558 13.75C2.54558 13.5367 2.37287 13.3636 2.15921 13.3636H1.38649C1.17283 13.3636 1.00012 13.5367 1.00012 13.75C1.00012 13.9633 1.17283 14.1364 1.38649 14.1364H1.78946C1.96217 17.6774 4.47971 20.6219 7.95467 21.3231V23.7955C7.95467 24.0087 8.12737 24.1818 8.34103 24.1818C8.55469 24.1818 8.72739 24.0087 8.72739 23.7955V20.9997C8.72739 20.805 8.58174 20.6435 8.39396 20.6172ZM9.50012 19.5455C6.5174 19.5455 4.09103 17.1191 4.09103 14.1364V13.75C4.09103 13.5367 4.26374 13.3636 4.47739 13.3636H12.9774C13.1911 13.3636 13.3638 13.5367 13.3638 13.75C13.3638 13.9633 13.1911 14.1364 12.9774 14.1364H4.86376C4.86376 16.6929 6.94355 18.7727 9.50012 18.7727C12.0567 18.7727 14.1365 16.6929 14.1365 14.1364V11.8182H11.4319C11.2183 11.8182 11.0456 11.6451 11.0456 11.4318C11.0456 11.2185 11.2183 11.0455 11.4319 11.0455H14.1365V9.5H11.4319C11.2183 9.5 11.0456 9.32691 11.0456 9.11364C11.0456 8.90036 11.2183 8.72727 11.4319 8.72727H14.1365V7.18182H11.4319C11.2183 7.18182 11.0456 7.00873 11.0456 6.79545C11.0456 6.58218 11.2183 6.40909 11.4319 6.40909H14.1365C14.1365 3.85252 12.0567 1.77273 9.50012 1.77273C6.94355 1.77273 4.86376 3.85252 4.86376 6.40909H6.02285C6.23651 6.40909 6.40921 6.58218 6.40921 6.79545C6.40921 7.00873 6.23651 7.18182 6.02285 7.18182H4.86376V8.72727H6.02285C6.23651 8.72727 6.40921 8.90036 6.40921 9.11364C6.40921 9.32691 6.23651 9.5 6.02285 9.5H4.86376V11.0455H6.02285C6.23651 11.0455 6.40921 11.2185 6.40921 11.4318C6.40921 11.6451 6.23651 11.8182 6.02285 11.8182H4.86376V12.2045C4.86376 12.4178 4.69105 12.5909 4.47739 12.5909C4.26374 12.5909 4.09103 12.4178 4.09103 12.2045V6.40909C4.09103 3.42636 6.5174 1 9.50012 1C12.4829 1 14.9092 3.42636 14.9092 6.40909V14.1364C14.9092 17.1191 12.4829 19.5455 9.50012 19.5455Z" fill="#7B39D9"/>
<path d="M10.6128 20.6161L10.6189 20.6657L10.6208 20.6654L10.6128 20.6161ZM11.0456 21.3231L11.0357 21.2741L10.9956 21.2822V21.3231H11.0456ZM17.2108 14.1364V14.0864H17.1632L17.1608 14.1339L17.2108 14.1364ZM1.78946 14.1364L1.8394 14.1339L1.83708 14.0864H1.78946V14.1364ZM7.95467 21.3231H8.00467V21.2822L7.96456 21.2741L7.95467 21.3231ZM4.86376 14.1364V14.0864H4.81376V14.1364H4.86376ZM14.1365 11.8182H14.1865V11.7682H14.1365V11.8182ZM14.1365 11.0455V11.0955H14.1865V11.0455H14.1365ZM14.1365 9.5H14.1865V9.45H14.1365V9.5ZM14.1365 8.72727V8.77727H14.1865V8.72727H14.1365ZM14.1365 7.18182H14.1865V7.13182H14.1365V7.18182ZM14.1365 6.40909V6.45909H14.1865V6.40909H14.1365ZM4.86376 6.40909H4.81376V6.45909H4.86376V6.40909ZM4.86376 7.18182V7.13182H4.81376V7.18182H4.86376ZM4.86376 8.72727H4.81376V8.77727H4.86376V8.72727ZM4.86376 9.5V9.45H4.81376V9.5H4.86376ZM4.86376 11.0455H4.81376V11.0955H4.86376V11.0455ZM4.86376 11.8182V11.7682H4.81376V11.8182H4.86376ZM17.6138 13.3136H16.841V13.4136H17.6138V13.3136ZM16.841 13.3136C16.5997 13.3136 16.4047 13.5091 16.4047 13.75H16.5047C16.5047 13.5643 16.655 13.4136 16.841 13.4136V13.3136ZM16.4047 13.75C16.4047 17.1622 13.9667 20.027 10.6049 20.5667L10.6208 20.6654C14.0312 20.1179 16.5047 17.2112 16.5047 13.75H16.4047ZM10.6068 20.5664C10.3905 20.5926 10.2228 20.7762 10.2228 20.9997H10.3228C10.3228 20.8276 10.452 20.6859 10.6189 20.6657L10.6068 20.5664ZM10.2228 20.9997V23.7955H10.3228V20.9997H10.2228ZM10.2228 23.7955C10.2228 24.0363 10.4179 24.2318 10.6592 24.2318V24.1318C10.4732 24.1318 10.3228 23.9811 10.3228 23.7955H10.2228ZM10.6592 24.2318C10.9005 24.2318 11.0956 24.0363 11.0956 23.7955H10.9956C10.9956 23.9811 10.8452 24.1318 10.6592 24.1318V24.2318ZM11.0956 23.7955V21.3231H10.9956V23.7955H11.0956ZM11.0555 21.3721C14.553 20.6663 17.0869 17.7025 17.2607 14.1388L17.1608 14.1339C16.9892 17.6522 14.4881 20.5774 11.0357 21.2741L11.0555 21.3721ZM17.2108 14.1864H17.6138V14.0864H17.2108V14.1864ZM17.6138 14.1864C17.8551 14.1864 18.0501 13.9909 18.0501 13.75H17.9501C17.9501 13.9357 17.7998 14.0864 17.6138 14.0864V14.1864ZM18.0501 13.75C18.0501 13.5091 17.8551 13.3136 17.6138 13.3136V13.4136C17.7998 13.4136 17.9501 13.5643 17.9501 13.75H18.0501ZM8.40185 20.5679C5.03699 20.0304 2.59558 17.1641 2.59558 13.75H2.49558C2.49558 17.2131 4.97257 20.1214 8.38608 20.6666L8.40185 20.5679ZM2.59558 13.75C2.59558 13.5091 2.40052 13.3136 2.15921 13.3136V13.4136C2.34523 13.4136 2.49558 13.5643 2.49558 13.75H2.59558ZM2.15921 13.3136H1.38649V13.4136H2.15921V13.3136ZM1.38649 13.3136C1.14518 13.3136 0.950122 13.5091 0.950122 13.75H1.05012C1.05012 13.5643 1.20047 13.4136 1.38649 13.4136V13.3136ZM0.950122 13.75C0.950122 13.9909 1.14518 14.1864 1.38649 14.1864V14.0864C1.20047 14.0864 1.05012 13.9357 1.05012 13.75H0.950122ZM1.38649 14.1864H1.78946V14.0864H1.38649V14.1864ZM1.73952 14.1388C1.91334 17.7025 4.44725 20.6663 7.94478 21.3721L7.96456 21.2741C4.51218 20.5774 2.011 17.6522 1.8394 14.1339L1.73952 14.1388ZM7.90467 21.3231V23.7955H8.00467V21.3231H7.90467ZM7.90467 23.7955C7.90467 24.0363 8.09973 24.2318 8.34103 24.2318V24.1318C8.15502 24.1318 8.00467 23.9811 8.00467 23.7955H7.90467ZM8.34103 24.2318C8.58234 24.2318 8.77739 24.0363 8.77739 23.7955H8.67739C8.67739 23.9811 8.52704 24.1318 8.34103 24.1318V24.2318ZM8.77739 23.7955V20.9997H8.67739V23.7955H8.77739ZM8.77739 20.9997C8.77739 20.7795 8.61282 20.5974 8.40089 20.5677L8.38703 20.6667C8.55065 20.6896 8.67739 20.8305 8.67739 20.9997H8.77739ZM9.50012 19.4955C6.54501 19.4955 4.14103 17.0915 4.14103 14.1364H4.04103C4.04103 17.1467 6.48978 19.5955 9.50012 19.5955V19.4955ZM4.14103 14.1364V13.75H4.04103V14.1364H4.14103ZM4.14103 13.75C4.14103 13.5643 4.29138 13.4136 4.47739 13.4136V13.3136C4.23609 13.3136 4.04103 13.5091 4.04103 13.75H4.14103ZM4.47739 13.4136H12.9774V13.3136H4.47739V13.4136ZM12.9774 13.4136C13.1634 13.4136 13.3138 13.5643 13.3138 13.75H13.4138C13.4138 13.5091 13.2187 13.3136 12.9774 13.3136V13.4136ZM13.3138 13.75C13.3138 13.9357 13.1634 14.0864 12.9774 14.0864V14.1864C13.2187 14.1864 13.4138 13.9909 13.4138 13.75H13.3138ZM12.9774 14.0864H4.86376V14.1864H12.9774V14.0864ZM4.81376 14.1364C4.81376 16.7205 6.91594 18.8227 9.50012 18.8227V18.7227C6.97117 18.7227 4.91376 16.6653 4.91376 14.1364H4.81376ZM9.50012 18.8227C12.0843 18.8227 14.1865 16.7205 14.1865 14.1364H14.0865C14.0865 16.6653 12.0291 18.7227 9.50012 18.7227V18.8227ZM14.1865 14.1364V11.8182H14.0865V14.1364H14.1865ZM14.1365 11.7682H11.4319V11.8682H14.1365V11.7682ZM11.4319 11.7682C11.2459 11.7682 11.0956 11.6175 11.0956 11.4318H10.9956C10.9956 11.6727 11.1906 11.8682 11.4319 11.8682V11.7682ZM11.0956 11.4318C11.0956 11.2461 11.2459 11.0955 11.4319 11.0955V10.9955C11.1906 10.9955 10.9956 11.191 10.9956 11.4318H11.0956ZM11.4319 11.0955H14.1365V10.9955H11.4319V11.0955ZM14.1865 11.0455V9.5H14.0865V11.0455H14.1865ZM14.1365 9.45H11.4319V9.55H14.1365V9.45ZM11.4319 9.45C11.2459 9.45 11.0956 9.29933 11.0956 9.11364H10.9956C10.9956 9.35449 11.1906 9.55 11.4319 9.55V9.45ZM11.0956 9.11364C11.0956 8.92795 11.2459 8.77727 11.4319 8.77727V8.67727C11.1906 8.67727 10.9956 8.87278 10.9956 9.11364H11.0956ZM11.4319 8.77727H14.1365V8.67727H11.4319V8.77727ZM14.1865 8.72727V7.18182H14.0865V8.72727H14.1865ZM14.1365 7.13182H11.4319V7.23182H14.1365V7.13182ZM11.4319 7.13182C11.2459 7.13182 11.0956 6.98115 11.0956 6.79545H10.9956C10.9956 7.03631 11.1906 7.23182 11.4319 7.23182V7.13182ZM11.0956 6.79545C11.0956 6.60976 11.2459 6.45909 11.4319 6.45909V6.35909C11.1906 6.35909 10.9956 6.5546 10.9956 6.79545H11.0956ZM11.4319 6.45909H14.1365V6.35909H11.4319V6.45909ZM14.1865 6.40909C14.1865 3.82491 12.0843 1.72273 9.50012 1.72273V1.82273C12.0291 1.82273 14.0865 3.88014 14.0865 6.40909H14.1865ZM9.50012 1.72273C6.91594 1.72273 4.81376 3.82491 4.81376 6.40909H4.91376C4.91376 3.88014 6.97117 1.82273 9.50012 1.82273V1.72273ZM4.86376 6.45909H6.02285V6.35909H4.86376V6.45909ZM6.02285 6.45909C6.20886 6.45909 6.35921 6.60976 6.35921 6.79545H6.45921C6.45921 6.5546 6.26415 6.35909 6.02285 6.35909V6.45909ZM6.35921 6.79545C6.35921 6.98115 6.20886 7.13182 6.02285 7.13182V7.23182C6.26415 7.23182 6.45921 7.03631 6.45921 6.79545H6.35921ZM6.02285 7.13182H4.86376V7.23182H6.02285V7.13182ZM4.81376 7.18182V8.72727H4.91376V7.18182H4.81376ZM4.86376 8.77727H6.02285V8.67727H4.86376V8.77727ZM6.02285 8.77727C6.20886 8.77727 6.35921 8.92795 6.35921 9.11364H6.45921C6.45921 8.87278 6.26415 8.67727 6.02285 8.67727V8.77727ZM6.35921 9.11364C6.35921 9.29933 6.20886 9.45 6.02285 9.45V9.55C6.26415 9.55 6.45921 9.35449 6.45921 9.11364H6.35921ZM6.02285 9.45H4.86376V9.55H6.02285V9.45ZM4.81376 9.5V11.0455H4.91376V9.5H4.81376ZM4.86376 11.0955H6.02285V10.9955H4.86376V11.0955ZM6.02285 11.0955C6.20886 11.0955 6.35921 11.2461 6.35921 11.4318H6.45921C6.45921 11.191 6.26415 10.9955 6.02285 10.9955V11.0955ZM6.35921 11.4318C6.35921 11.6175 6.20886 11.7682 6.02285 11.7682V11.8682C6.26415 11.8682 6.45921 11.6727 6.45921 11.4318H6.35921ZM6.02285 11.7682H4.86376V11.8682H6.02285V11.7682ZM4.81376 11.8182V12.2045H4.91376V11.8182H4.81376ZM4.81376 12.2045C4.81376 12.3902 4.66341 12.5409 4.47739 12.5409V12.6409C4.7187 12.6409 4.91376 12.4454 4.91376 12.2045H4.81376ZM4.47739 12.5409C4.29138 12.5409 4.14103 12.3902 4.14103 12.2045H4.04103C4.04103 12.4454 4.23609 12.6409 4.47739 12.6409V12.5409ZM4.14103 12.2045V6.40909H4.04103V12.2045H4.14103ZM4.14103 6.40909C4.14103 3.45398 6.54501 1.05 9.50012 1.05V0.95C6.48978 0.95 4.04103 3.39875 4.04103 6.40909H4.14103ZM9.50012 1.05C12.4552 1.05 14.8592 3.45398 14.8592 6.40909H14.9592C14.9592 3.39875 12.5105 0.95 9.50012 0.95V1.05ZM14.8592 6.40909V14.1364H14.9592V6.40909H14.8592ZM14.8592 14.1364C14.8592 17.0915 12.4552 19.4955 9.50012 19.4955V19.5955C12.5105 19.5955 14.9592 17.1467 14.9592 14.1364H14.8592Z" fill="#7B39D9"/>
</g>
</g>
</g>
</g>
</svg>
