<svg width="20" height="20" viewBox="0 0 20 20" fill="none" xmlns="http://www.w3.org/2000/svg">
<rect width="20" height="20" rx="4" fill="#00ABF1"/>
<path fill-rule="evenodd" clip-rule="evenodd" d="M17.9622 5.53693C17.3757 5.79715 16.7455 5.97277 16.0839 6.0519C16.7588 5.6472 17.2776 5.00619 17.5219 4.24298C16.89 4.61771 16.1897 4.88953 15.4445 5.03626C14.8482 4.40061 13.9979 4.00366 13.0574 4.00366C11.2508 4.00366 9.78618 5.46791 9.78618 7.27373C9.78618 7.52994 9.81519 7.77937 9.87105 8.01902C7.15246 7.8823 4.74257 6.58077 3.12928 4.60206C2.84767 5.08504 2.68642 5.64658 2.68642 6.24622C2.68642 7.38072 3.26367 8.38144 4.14141 8.96785C3.60549 8.95078 3.10124 8.80383 2.65991 8.55897C2.65974 8.57243 2.65974 8.58622 2.65974 8.60001C2.65974 10.1843 3.78732 11.5058 5.28346 11.8067C5.00897 11.881 4.71989 11.9213 4.42194 11.9213C4.21089 11.9213 4.00617 11.9002 3.80665 11.8624C4.22276 13.1613 5.43085 14.1069 6.86186 14.1333C5.74271 15.0105 4.33228 15.5333 2.79944 15.5333C2.5357 15.5333 2.27534 15.5178 2.01929 15.4872C3.46715 16.4154 5.18638 16.9568 7.03345 16.9568C13.0497 16.9568 16.3398 11.9741 16.3398 7.65299C16.3398 7.51089 16.3365 7.36998 16.3305 7.22964C16.9691 6.76848 17.524 6.19281 17.9622 5.53693Z" fill="white"/>
</svg>
