<?xml version="1.0" encoding="UTF-8"?>
<svg width="87px" height="87px" viewBox="0 0 87 87" version="1.1" xmlns="http://www.w3.org/2000/svg" xmlns:xlink="http://www.w3.org/1999/xlink">
    <!-- Generator: Sketch 55.2 (78181) - https://sketchapp.com -->
    <title>Icon</title>
    <desc>Created with Sketch.</desc>
    <defs>
        <linearGradient x1="100%" y1="100%" x2="0%" y2="0%" id="linearGradient-1">
            <stop stop-color="#764BA2" offset="0%"></stop>
            <stop stop-color="#667EEA" offset="100%"></stop>
        </linearGradient>
        <circle id="path-2" cx="41.5" cy="41.5" r="41.5"></circle>
        <filter x="-4.8%" y="-2.4%" width="109.6%" height="109.6%" filterUnits="objectBoundingBox" id="filter-3">
            <feOffset dx="0" dy="2" in="SourceAlpha" result="shadowOffsetOuter1"></feOffset>
            <feGaussianBlur stdDeviation="1" in="shadowOffsetOuter1" result="shadowBlurOuter1"></feGaussianBlur>
            <feColorMatrix values="0 0 0 0 0.855157382   0 0 0 0 0.855157382   0 0 0 0 0.855157382  0 0 0 0.5 0" type="matrix" in="shadowBlurOuter1"></feColorMatrix>
        </filter>
    </defs>
    <g id="SWDF" stroke="none" stroke-width="1" fill="none" fill-rule="evenodd">
        <g id="Desktop-HD" transform="translate(-679.000000, -2506.000000)">
            <g id="Docs" transform="translate(575.000000, 2482.000000)">
                <g id="Icon" transform="translate(106.000000, 24.000000)">
                    <g id="Oval">
                        <use fill="black" fill-opacity="1" filter="url(#filter-3)" xlink:href="#path-2"></use>
                        <use fill="url(#linearGradient-1)" fill-rule="evenodd" xlink:href="#path-2"></use>
                    </g>
                    <g id="library_books-24px" transform="translate(18.662722, 20.136095)"></g>
                    <path d="M20.7991124,28.6816568 C19.6240976,28.6816568 18.6627219,29.6430325 18.6627219,30.8180473 L18.6627219,58.5911243 C18.6627219,60.9411538 20.5854734,62.8639053 22.935503,62.8639053 L50.7085799,62.8639053 C51.8835947,62.8639053 52.8449704,61.9025296 52.8449704,60.7275148 C52.8449704,59.5525 51.8835947,58.5911243 50.7085799,58.5911243 L25.0718935,58.5911243 C23.8968787,58.5911243 22.935503,57.6297485 22.935503,56.4547337 L22.935503,30.8180473 C22.935503,29.6430325 21.9741272,28.6816568 20.7991124,28.6816568 Z M57.1177515,20.1360947 L31.4810651,20.1360947 C29.1310355,20.1360947 27.208284,22.0588462 27.208284,24.4088757 L27.208284,50.0455621 C27.208284,52.3955917 29.1310355,54.3183432 31.4810651,54.3183432 L57.1177515,54.3183432 C59.4677811,54.3183432 61.3905325,52.3955917 61.3905325,50.0455621 L61.3905325,24.4088757 C61.3905325,22.0588462 59.4677811,20.1360947 57.1177515,20.1360947 Z M52.8449704,39.3636095 L35.7538462,39.3636095 C34.5788314,39.3636095 33.6174556,38.4022337 33.6174556,37.2272189 C33.6174556,36.0522041 34.5788314,35.0908284 35.7538462,35.0908284 L52.8449704,35.0908284 C54.0199852,35.0908284 54.9813609,36.0522041 54.9813609,37.2272189 C54.9813609,38.4022337 54.0199852,39.3636095 52.8449704,39.3636095 Z M44.2994083,47.9091716 L35.7538462,47.9091716 C34.5788314,47.9091716 33.6174556,46.9477959 33.6174556,45.7727811 C33.6174556,44.5977663 34.5788314,43.6363905 35.7538462,43.6363905 L44.2994083,43.6363905 C45.4744231,43.6363905 46.4357988,44.5977663 46.4357988,45.7727811 C46.4357988,46.9477959 45.4744231,47.9091716 44.2994083,47.9091716 Z M52.8449704,30.8180473 L35.7538462,30.8180473 C34.5788314,30.8180473 33.6174556,29.8566716 33.6174556,28.6816568 C33.6174556,27.506642 34.5788314,26.5452663 35.7538462,26.5452663 L52.8449704,26.5452663 C54.0199852,26.5452663 54.9813609,27.506642 54.9813609,28.6816568 C54.9813609,29.8566716 54.0199852,30.8180473 52.8449704,30.8180473 Z" id="Shape" fill="#FFFFFF"></path>
                </g>
            </g>
        </g>
    </g>
</svg>