<?xml version="1.0" encoding="UTF-8"?>
<svg width="87px" height="87px" viewBox="0 0 87 87" version="1.1" xmlns="http://www.w3.org/2000/svg" xmlns:xlink="http://www.w3.org/1999/xlink">
    <!-- Generator: Sketch 55.2 (78181) - https://sketchapp.com -->
    <title>Icon</title>
    <desc>Created with Sketch.</desc>
    <defs>
        <linearGradient x1="100%" y1="100%" x2="0%" y2="0%" id="linearGradient-1">
            <stop stop-color="#764BA2" offset="0%"></stop>
            <stop stop-color="#667EEA" offset="100%"></stop>
        </linearGradient>
        <circle id="path-2" cx="41.5" cy="41.5" r="41.5"></circle>
        <filter x="-4.8%" y="-2.4%" width="109.6%" height="109.6%" filterUnits="objectBoundingBox" id="filter-3">
            <feOffset dx="0" dy="2" in="SourceAlpha" result="shadowOffsetOuter1"></feOffset>
            <feGaussianBlur stdDeviation="1" in="shadowOffsetOuter1" result="shadowBlurOuter1"></feGaussianBlur>
            <feColorMatrix values="0 0 0 0 0.855157382   0 0 0 0 0.855157382   0 0 0 0 0.855157382  0 0 0 0.5 0" type="matrix" in="shadowBlurOuter1"></feColorMatrix>
        </filter>
    </defs>
    <g id="SWDF" stroke="none" stroke-width="1" fill="none" fill-rule="evenodd">
        <g id="Desktop-HD" transform="translate(-326.000000, -2506.000000)">
            <g id="Github" transform="translate(225.000000, 2482.000000)">
                <g id="Icon" transform="translate(103.000000, 24.000000)">
                    <g id="Oval">
                        <use fill="black" fill-opacity="1" filter="url(#filter-3)" xlink:href="#path-2"></use>
                        <use fill="url(#linearGradient-1)" fill-rule="evenodd" xlink:href="#path-2"></use>
                    </g>
                    <g id="github-brands" transform="translate(19.644970, 20.136095)"></g>
                    <path d="M34.290722,54.5125605 C34.290722,54.6891217 34.0876767,54.8303707 33.8316629,54.8303707 C33.5403369,54.8568549 33.3372916,54.7156059 33.3372916,54.5125605 C33.3372916,54.3359993 33.5403369,54.1947504 33.7963507,54.1947504 C34.0611925,54.1682662 34.290722,54.3095151 34.290722,54.5125605 Z M31.5451954,54.1152978 C31.4833989,54.291859 31.6599601,54.4949044 31.9248019,54.5478728 C32.1543315,54.6361534 32.4191733,54.5478728 32.4721417,54.3713116 C32.52511,54.1947504 32.3573769,53.991705 32.0925351,53.9122524 C31.8630055,53.850456 31.6069918,53.9387366 31.5451954,54.1152978 Z M35.4471979,53.9652208 C35.1911842,54.0270172 35.014623,54.1947504 35.0411071,54.3977957 C35.0675913,54.5743569 35.2971209,54.6891217 35.5619627,54.6273253 C35.8179764,54.5655289 35.9945376,54.3977957 35.9680535,54.2212345 C35.9415693,54.0535014 35.7032116,53.9387366 35.4471979,53.9652208 Z M41.2560614,20.1360947 C29.0115421,20.1360947 19.6449704,29.4320419 19.6449704,41.6765612 C19.6449704,51.4668798 25.8069563,59.8447088 34.6085322,62.7932808 C35.7385239,62.9963262 36.1357866,62.2989095 36.1357866,61.7250856 C36.1357866,61.1777459 36.1093024,58.1585493 36.1093024,56.3046567 C36.1093024,56.3046567 29.9296604,57.6288657 28.6319355,53.6738948 C28.6319355,53.6738948 27.6255367,51.1049293 26.1777349,50.4428248 C26.1777349,50.4428248 24.1561091,49.0568194 26.3189838,49.0833036 C26.3189838,49.0833036 28.5171708,49.2598648 29.726615,51.3609431 C31.6599601,54.7685743 34.8998582,53.7886596 36.1622708,53.2060076 C36.3653162,51.793518 36.9391401,50.8136034 37.5747604,50.2309514 C32.6398748,49.6836117 27.6608489,48.9685388 27.6608489,40.475945 C27.6608489,38.0482285 28.3317815,36.8299562 29.7442711,35.2762177 C29.5147416,34.7023938 28.7643564,32.3364737 29.9738007,29.2819649 C31.8188652,28.708141 36.0651621,31.6655411 36.0651621,31.6655411 C37.8307741,31.1711697 39.728807,30.915156 41.6091838,30.915156 C43.4895606,30.915156 45.3875935,31.1711697 47.1532055,31.6655411 C47.1532055,31.6655411 51.3995024,28.6993129 53.244567,29.2819649 C54.4540112,32.3453017 53.7036261,34.7023938 53.4740965,35.2762177 C54.8865861,36.8387843 55.751736,38.0570566 55.751736,40.475945 C55.751736,48.995023 50.5520087,49.6747836 45.6171231,50.2309514 C46.4293046,50.9283681 47.1178933,52.2525771 47.1178933,54.3271713 C47.1178933,57.3022275 47.0914091,60.9835285 47.0914091,61.7074295 C47.0914091,62.2812534 47.4974999,62.9786701 48.6186635,62.7756247 C57.4467236,59.8447088 63.4321483,51.4668798 63.4321483,41.6765612 C63.4321483,29.4320419 53.5005807,20.1360947 41.2560614,20.1360947 Z M28.2258448,50.5840738 C28.11108,50.6723544 28.1375642,50.8753998 28.2876412,51.0431329 C28.4288902,51.1843819 28.6319355,51.2461783 28.7467003,51.1314135 C28.8614651,51.0431329 28.8349809,50.8400875 28.6849039,50.6723544 C28.5436549,50.5311054 28.3406096,50.469309 28.2258448,50.5840738 Z M27.2724143,49.8690009 C27.2106179,49.9837657 27.2988985,50.1250147 27.4754597,50.2132953 C27.6167086,50.3015759 27.7932698,50.2750917 27.8550663,50.1514989 C27.9168627,50.0367341 27.8285821,49.8954851 27.6520209,49.8072045 C27.4754597,49.7542361 27.3342107,49.7807203 27.2724143,49.8690009 Z M30.1327058,53.0117903 C29.9914568,53.1265551 30.0444252,53.3913969 30.2474705,53.55913 C30.4505159,53.7621754 30.7065297,53.7886596 30.8212944,53.6474106 C30.9360592,53.5326459 30.8830909,53.267804 30.7065297,53.1000709 C30.5123123,52.8970255 30.2474705,52.8705413 30.1327058,53.0117903 Z M29.1263069,51.7140655 C28.9850579,51.8023461 28.9850579,52.0318756 29.1263069,52.234921 C29.2675559,52.4379664 29.5059135,52.526247 29.6206783,52.4379664 C29.7619272,52.3232016 29.7619272,52.0936721 29.6206783,51.8906267 C29.4970854,51.6875813 29.2675559,51.5993007 29.1263069,51.7140655 Z" id="Shape" fill="#FFFFFF" fill-rule="nonzero"></path>
                </g>
            </g>
        </g>
    </g>
</svg>