<?xml version="1.0" encoding="UTF-8"?>
<svg width="560px" height="347px" viewBox="0 0 560 347" version="1.1" xmlns="http://www.w3.org/2000/svg" xmlns:xlink="http://www.w3.org/1999/xlink">
    <!-- Generator: Sketch 55.2 (78181) - https://sketchapp.com -->
    <title>device-agnostic-img</title>
    <desc>Created with Sketch.</desc>
    <defs>
        <rect id="path-1" x="0" y="0" width="229.595194" height="105.044776" rx="8"></rect>
        <rect id="path-3" x="0" y="0" width="229.595194" height="105.044776" rx="8"></rect>
        <linearGradient x1="11.8852459%" y1="37.7478665%" x2="86.4128925%" y2="61.7097652%" id="linearGradient-5">
            <stop stop-color="#8033EB" offset="0%"></stop>
            <stop stop-color="#D4648E" offset="53%"></stop>
            <stop stop-color="#EC7071" offset="100%"></stop>
        </linearGradient>
        <linearGradient x1="59.5178791%" y1="82.378595%" x2="30.8311246%" y2="-15.2286657%" id="linearGradient-6">
            <stop stop-color="#8033EB" offset="0%"></stop>
            <stop stop-color="#D4648E" offset="53%"></stop>
            <stop stop-color="#EC7071" offset="100%"></stop>
        </linearGradient>
        <linearGradient x1="73.0783554%" y1="91.542032%" x2="3.61162624%" y2="-33.3419288%" id="linearGradient-7">
            <stop stop-color="#8033EB" offset="0%"></stop>
            <stop stop-color="#D4648E" offset="53%"></stop>
            <stop stop-color="#EC7071" offset="100%"></stop>
        </linearGradient>
        <linearGradient x1="54.5%" y1="64.5539962%" x2="39.5%" y2="40.5539962%" id="linearGradient-8">
            <stop stop-color="#8033EB" offset="0%"></stop>
            <stop stop-color="#D4648E" offset="53%"></stop>
            <stop stop-color="#EC7071" offset="100%"></stop>
        </linearGradient>
        <linearGradient x1="74.2441506%" y1="74.375%" x2="1.24415064%" y2="0.625%" id="linearGradient-9">
            <stop stop-color="#8033EB" offset="0%"></stop>
            <stop stop-color="#D4648E" offset="53%"></stop>
            <stop stop-color="#EC7071" offset="100%"></stop>
        </linearGradient>
    </defs>
    <g id="Headless-CMS" stroke="none" stroke-width="1" fill="none" fill-rule="evenodd">
        <g id="Artboard" transform="translate(-841.000000, -6992.000000)">
            <g id="Features" transform="translate(-12.000000, 2507.000000)">
                <g id="Device-agnostic" transform="translate(181.000000, 4486.000000)">
                    <g id="device-agnostic-img" transform="translate(673.000000, 0.000000)">
                        <g id="BG" opacity="0.481468564" transform="translate(46.000000, 18.000000)" fill="#F2F2F2" fill-rule="nonzero">
                            <path d="M206.324361,40.1440871 C206.324361,47.5038133 200.355922,53.471329 192.990492,53.4758888 L159.263162,53.4758888 C151.897733,53.471329 145.929293,47.5038133 145.929293,40.1440871 L145.929293,40.1440871 C145.929293,32.7856982 151.89907,26.8205455 159.263162,26.8205455 L192.990492,26.8205455 C200.354585,26.8205455 206.324361,32.7856982 206.324361,40.1440871 Z" id="Path"></path>
                            <path d="M275.217394,104.490268 C275.217394,111.848657 269.247618,117.813809 261.883525,117.813809 L205.985434,117.813809 C198.621343,117.813809 192.651567,111.848657 192.651567,104.490268 L192.651567,104.490268 C192.651567,97.131879 198.621343,91.1667262 205.985434,91.1667262 L261.883525,91.1667262 C269.247618,91.1667262 275.217394,97.131879 275.217394,104.490268 L275.217394,104.490268 Z" id="Path"></path>
                            <path d="M123.510538,241.227967 C123.510538,241.227967 59.4038106,274.185767 28.3465604,258.285074 C-2.71068987,242.384381 -5.54610026,214.713046 6.89498616,170.794093 C19.3360725,126.87514 50.0791957,101.970937 97.8265148,134.713975 C145.573833,167.457012 176.085495,210.12869 123.510538,241.227967 Z" id="Path"></path>
                            <path d="M323.832696,22.170109 C323.832696,34.4143221 313.899107,44.3402181 301.645403,44.3402181 C289.391699,44.3402181 279.458109,34.4143221 279.458109,22.170109 C279.458109,9.9258959 289.391699,1.0658141e-14 301.645403,1.0658141e-14 C313.899107,1.0658141e-14 323.832696,9.9258959 323.832696,22.170109 Z" id="Path"></path>
                            <path d="M431.338607,273.995785 C431.320305,294.853168 414.387375,311.748336 393.513821,311.736189 C372.640267,311.724016 355.727064,294.809131 355.733142,273.95174 C355.739226,253.094351 372.662288,236.189304 393.535845,236.189304 C403.568155,236.187108 413.189715,240.170628 420.280527,247.262146 C427.371339,254.353664 431.349534,263.971251 431.338607,273.995785 L431.338607,273.995785 Z" id="Path"></path>
                            <rect id="Rectangle" x="355.733129" y="62.9006632" width="117.169408" height="28.2578028" rx="13.721337"></rect>
                            <path d="M331.969776,233.606704 C331.956059,238.662633 327.845564,242.751472 322.785706,242.74239 C317.725848,242.733249 313.63013,238.629632 313.634673,233.573685 C313.639231,228.51774 317.742329,224.421472 322.802195,224.421472 C325.237207,224.42366 327.571497,225.392882 329.290984,227.115685 C331.010472,228.838489 331.974135,231.173581 331.969776,233.606704 L331.969776,233.606704 Z" id="Path"></path>
                        </g>
                        <g id="logos">
                            <g id="nuxtjs" transform="translate(171.909427, 0.000000)">
                                <g id="Rectangle" stroke-dasharray="2,2">
                                    <g id="path-1-Clipped">
                                        <mask id="mask-2" fill="white">
                                            <use xlink:href="#path-1"></use>
                                        </mask>
                                        <g id="path-1"></g>
                                        <path d="M8,0 L221.595194,0 C226.013472,1.48852522e-14 229.595194,3.581722 229.595194,8 L229.595194,97.0447761 C229.595194,101.463054 226.013472,105.044776 221.595194,105.044776 L8,105.044776 C3.581722,105.044776 5.41083001e-16,101.463054 0,97.0447761 L0,8 C-1.42926142e-15,3.581722 3.581722,8.11624501e-16 8,0 Z" id="path-1" stroke="#50E3C2" stroke-width="2" mask="url(#mask-2)"></path>
                                    </g>
                                </g>
                                <g id="nuxtjs-typo" transform="translate(34.090573, 39.000000)" fill-rule="nonzero">
                                    <path d="M21.6207004,0.785545777 C21.9113012,1.10535951 22.1147218,1.54146915 22.0856617,2.00665277 L22.0856617,25.7019432 C22.0856617,26.1962008 21.9113012,26.6904584 21.5625802,27.0684201 C21.2136598,27.4312565 20.7289615,27.6315537 20.2258165,27.6208256 C19.9352157,27.6208256 19.6446149,27.5626777 19.3540141,27.4754558 C19.1191499,27.3942203 18.9090355,27.254077 18.7437524,27.0684201 L3.4000295,7.09459857 L3.4000295,25.8763871 C3.41701183,26.3414529 3.23776024,26.7922315 2.90609466,27.1185252 C2.57442907,27.444819 2.12091715,27.6165554 1.65642463,27.5917517 C1.22052341,27.5917517 0.784622192,27.4173078 0.49402138,27.0974941 C0.177888546,26.7813982 0,26.3526212 0,25.9054611 L0,2.15202265 C0,1.65776506 0.203420568,1.16350747 0.581201623,0.814619753 C0.910204036,0.478806679 1.36078103,0.29010287 1.83078511,0.291288184 C2.12138593,0.291288184 2.44104682,0.349436136 2.70258755,0.46573204 C2.99318836,0.552953969 3.22566901,0.756471801 3.4000295,0.959989633 L18.6565721,20.9919591 L18.6565721,2.00665277 C18.6395898,1.54158695 18.8188414,1.09080837 19.1505069,0.76451461 C19.4821725,0.438220848 19.9356845,0.26648445 20.400177,0.291288184 C20.8360782,0.291288184 21.2719794,0.436658064 21.5625802,0.785545777 L21.6207004,0.785545777 Z M53.2090086,0.843693729 C53.5286695,1.22165542 53.7320901,1.71591301 53.70303,2.18109663 L53.70303,17.1832683 C53.7320901,19.1021507 53.2671288,21.0210331 52.3372062,22.7073237 C51.4654037,24.3354664 50.1577001,25.6728693 48.5593956,26.5741625 C46.9320311,27.5336037 45.0721859,28.0278613 43.1542205,27.9987873 C41.2653153,27.9987873 39.37641,27.5336037 37.6909253,26.6032365 C36.1008482,25.6985183 34.7930206,24.3699353 33.9131147,22.7654717 C32.986168,21.0634886 32.5156156,19.1503294 32.5472909,17.2123422 L32.5472909,2.2101706 C32.5472909,1.71591301 32.7216514,1.22165542 33.1284925,0.872767705 C33.8826703,0.145390982 35.0769024,0.145390982 35.8310801,0.872767705 C36.1798011,1.22165542 36.3832216,1.68683903 36.3832216,2.2101706 L36.3832216,17.1541943 C36.3541615,18.4334492 36.6738224,19.6836302 37.3131442,20.8175153 C38.5104925,22.9164095 40.7386949,24.214043 43.1542205,24.2191705 C45.024189,24.2271122 46.819018,23.4834327 48.1358221,22.155066 C49.4526262,20.8266992 50.1810918,19.0249273 50.1577001,17.1541943 L50.1577001,2.2101706 C50.1577001,1.71591301 50.3030005,1.22165542 50.6226614,0.843693729 C50.9713824,0.46573204 51.4363437,0.262214208 51.930365,0.291288184 C52.4243864,0.291288184 52.8893477,0.494806016 53.2090086,0.843693729 Z M83.4024329,24.6262061 C83.6247906,24.9505851 83.7368721,25.3379608 83.7220938,25.7310172 C83.7511539,26.2252748 83.5477334,26.7195324 83.1699523,27.0684201 C82.8295443,27.3832137 82.383907,27.5594801 81.9203688,27.5626777 C81.3101071,27.5917572 80.7289055,27.2719379 80.3801845,26.7776803 L72.8245634,16.6599367 L65.3851826,26.7776803 C65.0513072,27.287048 64.4828917,27.5932642 63.8740584,27.5917572 C63.4090971,27.5917572 63.002256,27.4173078 62.6825951,27.0974941 C62.3919943,26.8067543 62.1885737,26.3997187 62.1885737,25.992683 C62.1885737,25.5274994 62.3629342,25.0623158 62.653535,24.713428 L70.6741174,13.810687 L62.6244749,2.99516795 C62.0287892,2.26779417 62.0920507,1.20449328 62.7697753,0.552953969 C63.3319135,-0.0238040935 64.2047136,-0.165406912 64.9202213,0.204066256 C65.1999452,0.332876532 65.4405832,0.533504106 65.6176633,0.785545777 L73.1151642,10.8451415 L80.4964248,0.872767705 C80.8160857,0.378510112 81.3682273,0.0586963761 81.978489,0.000548424051 C82.4434503,0.000548424051 82.9084116,0.233140232 83.2280725,0.582027945 C83.5477334,0.872767705 83.7511539,1.30887735 83.780214,1.74498699 C83.780214,2.18109663 83.6349136,2.55905831 83.3733729,2.90794603 L75.2365501,13.7234651 L83.3733729,24.6262061 L83.4024329,24.6262061 Z M111.445411,0.785545777 C111.794132,1.10535951 112.026613,1.59961711 111.997553,2.0938747 C111.997553,2.58813229 111.794132,3.05331591 111.416351,3.37312964 C111.06763,3.69294338 110.573609,3.86738724 110.079587,3.83831326 L103.163288,3.83831326 L103.163288,25.7600912 C103.163288,26.2543488 102.988928,26.7195324 102.611147,27.0684201 C101.797861,27.7874125 100.576544,27.7874125 99.7632586,27.0684201 C99.3972991,26.7312873 99.1869497,26.2577748 99.182057,25.7600912 L99.182057,3.83831326 L92.2657577,3.83831326 C91.7717363,3.83831326 91.306775,3.69294338 90.928994,3.34405567 C90.5646725,3.00822759 90.3633405,2.53116075 90.3768524,2.03572675 C90.3768524,1.57054313 90.5512129,1.10535951 90.8999339,0.785545777 C91.2777149,0.436658064 91.7717363,0.262214208 92.2366976,0.291288184 L110.079587,0.291288184 C110.573609,0.291288184 111.06763,0.436658064 111.445411,0.785545777 Z" id="Shape" fill="#2E495E"></path>
                                    <path d="M120.41171,26.885473 C119.157834,26.1963776 118.078917,25.1627345 117.349919,23.9281053 C117.1458,23.6409822 117.02916,23.2677222 117,22.8944622 C117,22.4063529 117.204119,21.946956 117.583198,21.6311206 C117.903957,21.2865729 118.341356,21.1142991 118.807915,21.0568745 C119.507753,21.1430114 120.149271,21.4875591 120.55751,22.0330929 C121.432307,23.4687083 123.006943,24.3300776 124.669058,24.272653 C126.024331,24.3114622 127.337825,23.8083393 128.310188,22.877948 C129.282552,21.9475567 129.830936,20.6691694 129.830363,19.334136 L129.830363,2.45129877 C129.819577,1.94831378 130.032628,1.46581855 130.413562,1.1305326 C130.792641,0.7859849 131.288359,0.584998743 131.784078,0.584998743 C132.308956,0.584998743 132.804675,0.757272592 133.183754,1.10182029 C133.534013,1.45336671 133.723562,1.9303337 133.708632,2.42258647 L133.708632,19.3628483 C133.773663,22.4584606 132.08886,25.3339574 129.334645,26.8280484 C126.582233,28.3699475 123.213581,28.3916979 120.44087,26.885473 L120.41171,26.885473 Z M147.384633,27.0003222 C145.839158,26.4260761 144.410322,25.5647068 143.185605,24.4162145 C142.694206,24.0435237 142.395323,23.4759543 142.369128,22.8657499 C142.375057,22.3827531 142.58665,21.9243944 142.952326,21.6024083 C143.277524,21.2601979 143.730282,21.0632133 144.206202,21.0568745 C144.643601,21.0568745 145.02268,21.200436 145.343439,21.4875591 C146.276556,22.3489283 147.384633,23.066736 148.55103,23.5835576 C149.775746,24.0429545 151.058783,24.272653 152.341819,24.272653 C153.799815,24.3013653 155.257811,23.9281053 156.511687,23.1241606 C157.532284,22.5499145 158.202962,21.4875591 158.202962,20.3103544 C158.232122,19.0757252 157.590604,17.8985206 156.511687,17.2094252 C154.943853,16.3126128 153.225371,15.6999549 151.437862,15.4005498 C148.755149,14.8263036 146.684795,13.9649343 145.226799,12.7303051 C143.768804,11.4956758 143.068966,9.77293735 143.068966,7.59080193 C143.039806,6.15518653 143.448044,4.74828343 144.293682,3.57107879 C145.13932,2.42258647 146.276556,1.5037926 147.617913,0.929546441 C150.642582,-0.258299145 154.005272,-0.309395948 157.065726,0.7859849 C158.366267,1.21235487 159.55929,1.90739135 160.564916,2.82455878 C161.089794,3.22653109 161.439713,3.82948957 161.439713,4.46116034 C161.440902,4.92553971 161.25164,5.37072448 160.914835,5.6957896 C160.594822,6.0651058 160.124807,6.27546952 159.631798,6.27003576 C159.340199,6.27003576 158.99028,6.15518653 158.757001,5.95420037 C157.041988,4.44010715 154.820205,3.6018378 152.516779,3.5997911 C151.058783,3.51365418 149.600787,3.88691418 148.34691,4.63343419 C147.381906,5.26718617 146.802318,6.33380297 146.802318,7.4759527 C146.802318,8.61810243 147.381906,9.68471923 148.34691,10.3184712 C149.77226,11.1459807 151.330268,11.7285475 152.954177,12.0412097 C154.674612,12.3570451 156.336728,12.9025789 157.940523,13.562962 C159.16524,14.1084959 160.214997,14.9411528 160.943994,16.0322205 C161.702152,17.2955621 162.052071,18.7024652 161.993751,20.1667929 C162.022911,21.6024083 161.585513,22.9805991 160.739875,24.1290914 C159.865078,25.3350084 158.640361,26.2538022 157.240685,26.8280484 C154.067506,28.0221753 150.569581,28.0831351 147.355473,27.0003222 L147.384633,27.0003222 Z" id="Shape" fill="#00C48D"></path>
                                </g>
                            </g>
                            <g id="react" transform="translate(0.354898, 0.000000)">
                                <path d="M52.5083179,105.044776 C81.5078611,105.044776 105.016636,81.529702 105.016636,52.5223881 C105.016636,23.5150742 81.5078611,-2.62900812e-13 52.5083179,-2.62900812e-13 C23.5087747,-2.62900812e-13 0,23.5150742 0,52.5223881 C0,81.529702 23.5087747,105.044776 52.5083179,105.044776 Z" id="Oval" stroke="#F65030" stroke-dasharray="2,2"></path>
                                <g transform="translate(18.645102, 23.000000)" fill-rule="nonzero">
                                    <path d="M0,29.8921467 C0,34.9320749 4.94021473,39.6367947 12.7284976,42.2888225 C11.1732107,50.0885803 12.4499309,56.3754415 16.7137393,58.8249804 C21.0962941,61.3429773 27.6254975,59.6000513 33.8226853,54.2034069 C39.8634755,59.3820872 45.9685099,61.420091 50.2286321,58.9634702 C54.6072374,56.4383914 55.9387231,49.7253067 54.340519,41.6818803 C62.4526555,39.0101807 66.9902913,34.9984346 66.9902913,29.8921467 C66.9902913,24.9692004 62.0411245,20.7103758 54.3576332,18.075397 C56.0782698,9.69964744 54.6204022,3.56543975 50.1799225,1.01465641 C45.8989998,-1.44458724 39.7228757,0.698857635 33.5933549,6.01288029 C27.2163362,0.372567201 21.1012967,-1.34937548 16.6655562,1.20848972 C12.388583,3.67481524 11.1682081,10.0760355 12.7284976,18.0200535 C5.20298371,20.6337868 0,24.9891345 0,29.8921467 Z" id="Path" fill="#FFFFFF"></path>
                                    <path d="M52.9309753,21.0702367 C52.2985473,20.855097 51.6607536,20.6557947 51.0182015,20.4725196 C51.1247597,20.043114 51.2232991,19.6117903 51.313769,19.1787698 C52.7616288,12.208533 51.8149715,6.5933302 48.5821365,4.74489266 C45.4826225,2.97208249 40.4132723,4.82052004 35.2934337,9.23898467 C34.7889398,9.67536591 34.295644,10.1243186 33.8140186,10.5854129 C33.4914872,10.2788125 33.1632563,9.97816378 32.8294949,9.68362152 C27.4637884,4.9587356 22.0854597,2.96790995 18.8560433,4.82182396 C15.7594218,6.59958902 14.842216,11.8786411 16.1457106,18.4843018 C16.2753993,19.1384549 16.4218278,19.7892343 16.5848545,20.4360098 C15.8238471,20.6503744 15.0888729,20.8788212 14.3857168,21.121872 C8.0951786,23.2968112 4.0776699,26.7057806 4.0776699,30.2414912 C4.0776699,33.8935114 8.39022014,37.5564846 14.9426669,39.7773218 C15.4739736,39.9565666 16.0097026,40.1226507 16.5493548,40.2754193 C16.3740396,40.9722188 16.218394,41.673741 16.0826002,42.3791645 C14.8398494,48.8700802 15.8104362,54.0239559 18.8989058,55.7907681 C22.0888782,57.6149527 27.4427515,55.7399152 32.6562041,51.2205271 C33.068263,50.8632529 33.4818996,50.4843336 33.8960622,50.0871595 C34.4177288,50.5863157 34.9533241,51.0709538 35.5022242,51.5405092 C40.5521154,55.849966 45.539422,57.5901782 48.625262,55.818672 C51.8123418,53.9890109 52.8478798,48.4523041 51.5031004,41.7159906 C51.4005459,41.2014636 51.2808989,40.6759837 51.1467891,40.1408548 C51.5228225,40.0308039 51.8917559,39.917102 52.2517486,39.7987061 C59.0634743,37.5606571 63.4951456,33.942278 63.4951456,30.2414912 C63.4951456,26.6930022 59.3482604,23.2610838 52.9309753,21.0702367 Z" id="Path" fill="#53C1DE"></path>
                                    <path d="M51.5886452,37.4644516 C51.261403,37.5719302 50.9254168,37.6757298 50.5830711,37.776376 C49.8252472,35.3973943 48.8024499,32.8675747 47.5512456,30.2541899 C48.7454807,27.7025593 49.7285319,25.2053249 50.465158,22.8415847 C51.0775115,23.0176498 51.6721118,23.2029124 52.2449843,23.3986863 C57.7855779,25.2899413 61.1650485,28.0867492 61.1650485,30.2415763 C61.1650485,32.5369927 57.5150401,35.5169609 51.5889101,37.4644516 L51.5886452,37.4644516 Z M49.1296921,42.2967828 C49.7287969,45.2982993 49.8143833,48.0120675 49.4174532,50.133521 C49.060799,52.0397547 48.343781,53.3105771 47.45718,53.8195893 C45.5703045,54.9027841 41.5350247,53.4947885 37.1836316,49.781128 C36.6846867,49.3554182 36.1820322,48.9008023 35.6780528,48.4199079 C37.3651384,46.5898816 39.0511641,44.462384 40.6966489,42.0999577 C43.5912182,41.8453202 46.3257436,41.4288079 48.8056296,40.8604066 C48.9275174,41.3491844 49.0361565,41.8282393 49.1296921,42.2967828 L49.1296921,42.2967828 Z M24.2619392,53.6324872 C22.4185193,54.278147 20.9503017,54.2965419 20.0629058,53.7891064 C18.1741755,52.709065 17.3893243,48.5386862 18.4600818,42.9453332 C18.5874121,42.2843164 18.7332035,41.626929 18.8972879,40.9739292 C21.3496166,41.5118476 24.064269,41.8989281 26.9657277,42.1322801 C28.6220763,44.4439892 30.3568571,46.5688589 32.1051516,48.4296309 C31.7335925,48.7860875 31.3532404,49.1334178 30.9644411,49.4713059 C28.6414194,51.4852809 26.3136281,52.9137736 24.2622041,53.6324872 L24.2619392,53.6324872 Z M15.6256614,37.4502613 C12.7061845,36.4606175 10.2951916,35.1745536 8.64255258,33.7712882 C7.15764169,32.509926 6.40776699,31.2577612 6.40776699,30.2415763 C6.40776699,28.079654 9.6581956,25.3217381 15.0792862,23.4473013 C15.7597112,23.2130604 16.4469049,22.9986246 17.1399843,22.8042694 C17.8893291,25.2210919 18.8721154,27.7480209 20.0581363,30.3033305 C18.8567469,32.8967437 17.859917,35.4638786 17.103683,37.9090818 C16.6072928,37.7681751 16.1144701,37.6151887 15.6256614,37.4502613 L15.6256614,37.4502613 Z M18.5207607,17.9070306 C17.3954187,12.203834 18.1426436,7.9018005 20.0231598,6.82228468 C22.0263587,5.67234281 26.4553889,7.31211367 31.1236901,11.4228405 C31.4220502,11.6856243 31.7217351,11.960759 32.0219499,12.2453538 C30.2826646,14.0977168 28.5637822,16.2065567 26.9217421,18.5048638 C24.1058698,18.7637058 21.4102955,19.1794298 18.9322643,19.7362686 C18.7796194,19.1299606 18.6424079,18.5199333 18.5207607,17.9067678 L18.5207607,17.9070306 Z M44.3469223,24.2314482 C43.7616165,23.2287782 43.1545983,22.2387296 42.5262902,21.2619913 C44.4367483,21.5011246 46.2669195,21.8190929 47.985537,22.2082757 C47.4696338,23.8483094 46.8265433,25.5632364 46.0692494,27.32126 C45.5159365,26.2800554 44.941713,25.2499127 44.3469223,24.2314482 L44.3469223,24.2314482 Z M33.8150249,14.0580364 C34.9946864,15.3254426 36.1762028,16.7407962 37.3383761,18.2762419 C34.9809107,18.1657623 32.6195119,18.1652362 30.2619967,18.2746652 C31.4252299,16.7534098 32.6168152,15.3401585 33.8150249,14.0580364 L33.8150249,14.0580364 Z M23.2155592,24.2487919 C22.6282155,25.2591567 22.0647287,26.2829783 21.5255589,27.3194205 C20.7807187,25.567441 20.1434577,23.8448932 19.62305,22.1814718 C21.3313334,21.8022748 23.1530255,21.4924527 25.0510299,21.2572612 C24.4156803,22.2400527 23.803688,23.2375046 23.2155592,24.2487919 L23.2155592,24.2487919 Z M25.1056144,39.4069494 C23.1448113,39.18989 21.295562,38.8958349 19.5878085,38.5271493 C20.1164304,36.8342961 20.767735,35.0746958 21.5284736,33.2851382 C22.0699164,34.3223486 22.6358793,35.3467879 23.2258932,36.3576063 C23.8279423,37.3887246 24.4546941,38.4054612 25.1056144,39.4069494 L25.1056144,39.4069494 Z M33.8857728,46.6043347 C32.6735195,45.3069711 31.4644459,43.8721716 30.2834595,42.3288424 C31.4297344,42.3735156 32.598532,42.3961151 33.7864078,42.3961151 C35.0068752,42.3961151 36.2132991,42.3690483 37.4006448,42.3164916 C36.2347619,43.8879386 35.0574851,45.3248404 33.8857728,46.6043347 Z M46.0936269,33.1939522 C46.8938466,35.0029558 47.5684688,36.7530959 48.104245,38.4173056 C46.3681394,38.8101674 44.4939826,39.1265591 42.5191359,39.3614878 C43.1519854,38.3665132 43.7648135,37.3591512 44.3572563,36.3399998 C44.9595105,35.3042232 45.5384441,34.2552809 46.0936269,33.1939522 L46.0936269,33.1939522 Z M42.1415488,35.0728563 C41.2345978,36.6353572 40.2766545,38.1681967 39.2692372,39.6689449 C37.4928556,39.7948183 35.6571199,39.8597259 33.7864078,39.8597259 C31.9233798,39.8597259 30.1109618,39.8021762 28.3655821,39.6899676 C27.3320365,38.1927137 26.3559716,36.6572213 25.4394809,35.0867839 C24.5272741,33.5246786 23.6752123,31.9287814 22.8851374,30.3025421 C23.6732027,28.6758157 24.5226897,27.0790636 25.4317967,25.5156726 L25.4317967,25.5161981 C26.3406184,23.9524741 27.3089993,22.4235472 28.3348452,20.9327232 C30.1154664,20.799229 31.9411331,20.7293286 33.7866727,20.7293286 C35.6404266,20.7293286 37.468478,20.7997546 39.2485693,20.9342999 C40.264039,22.4228298 41.2262261,23.9464348 42.1333346,25.5022706 C43.0455677,27.0621834 43.9063916,28.6511137 44.7144404,30.2665408 C43.9147036,31.8984264 43.0566176,33.5015477 42.1418138,35.0728563 L42.1415488,35.0728563 Z M47.417964,6.74686573 C49.4227526,7.89365421 50.2025693,12.5178606 48.9428858,18.5821222 C48.8603203,18.9771722 48.770568,19.3707113 48.6736729,19.762547 C46.1898123,19.1941456 43.4923831,18.7710637 40.6682967,18.5082799 C39.0230769,16.1850084 37.3185031,14.0724895 35.6073049,12.2440399 C36.0557096,11.8153207 36.5147852,11.397716 36.9841067,10.9916123 C41.4043928,7.17651723 45.535593,5.67024054 47.417964,6.74686573 L47.417964,6.74686573 Z" id="Shape" fill="#FFFFFF"></path>
                                    <path d="M33.7864078,24.4660194 C36.6820243,24.4660194 39.0291262,26.813323 39.0291262,29.7086079 C39.0291262,32.6041527 36.6820243,34.9514563 33.7864078,34.9514563 C30.8910511,34.9514563 28.5436893,32.6041527 28.5436893,29.7086079 C28.5436893,26.813323 30.8910511,24.4660194 33.7864078,24.4660194" id="Path" fill="#53C1DE"></path>
                                </g>
                            </g>
                            <g id="vue" transform="translate(452.983364, 0.000000)">
                                <path d="M52.5083179,105.044776 C81.5078611,105.044776 105.016636,81.529702 105.016636,52.5223881 C105.016636,23.5150742 81.5078611,-2.62900812e-13 52.5083179,-2.62900812e-13 C23.5087747,-2.62900812e-13 6.39488462e-14,23.5150742 6.39488462e-14,52.5223881 C6.39488462e-14,81.529702 23.5087747,105.044776 52.5083179,105.044776 Z" id="Oval-Copy-2" stroke="#8943DD" stroke-dasharray="2,2"></path>
                                <g id="vue-9" transform="translate(18.016636, 23.000000)" fill-rule="nonzero">
                                    <polygon id="Path" fill="#41B883" points="55.9223301 0 69.9029126 0 34.9514563 60 0 0 26.7378641 0 34.9514563 13.9130435 42.9902913 0"></polygon>
                                    <polygon id="Path" fill="#41B883" points="0 0 34.9514563 60 69.9029126 0 55.9223301 0 34.9514563 36 13.8058252 0"></polygon>
                                    <polygon id="Path" fill="#35495E" points="13.3980583 0 34.7484188 36.1165049 55.9223301 0 42.8650848 0 34.7484188 13.8909634 26.4553035 0"></polygon>
                                </g>
                            </g>
                            <g id="gatsby" transform="translate(1.000000, 239.955224)">
                                <g transform="translate(23.000000, 22.044776)" fill="#744C9E" fill-rule="nonzero" id="Shape">
                                    <path d="M30,0 C13.4304,0 0,13.4304 0,30 C0,46.5696 13.4304,60 30,60 C46.5696,60 60,46.5696 60,30 C60,13.4304 46.5696,0 30,0 Z M6.4464,30.312 L29.688,53.5536 C16.9248,53.388 6.612,43.0752 6.4464,30.312 Z M35.2728,52.9656 L7.0344,24.7272 C9.4296,14.256 18.8016,6.4416 30,6.4416 C37.8264,6.4416 44.7624,10.26 49.0464,16.1352 L45.7848,19.0128 C42.3096,14.0304 36.5352,10.7688 30,10.7688 C21.6792,10.7688 14.592,16.0536 11.9136,23.4504 L36.5496,48.084 C42.5328,45.9168 47.1336,40.8672 48.6744,34.6128 L38.4648,34.6128 L38.4648,30 L53.5608,30 C53.5584,41.1984 45.744,50.5704 35.2728,52.9656 Z"></path>
                                </g>
                                <path d="M52.5083179,105.044776 C81.5078611,105.044776 105.016636,81.529702 105.016636,52.5223881 C105.016636,23.5150742 81.5078611,-1.63424829e-13 52.5083179,-1.63424829e-13 C23.5087747,-1.63424829e-13 0,23.5150742 0,52.5223881 C0,81.529702 23.5087747,105.044776 52.5083179,105.044776 Z" id="Oval-Copy-3" stroke="#8943DD" stroke-dasharray="2,2"></path>
                            </g>
                            <g id="angular" transform="translate(452.983364, 238.925373)">
                                <path d="M52.5083179,105.044776 C81.5078611,105.044776 105.016636,81.529702 105.016636,52.5223881 C105.016636,23.5150742 81.5078611,-3.41060513e-13 52.5083179,-3.41060513e-13 C23.5087747,-3.41060513e-13 6.39488462e-14,23.5150742 6.39488462e-14,52.5223881 C6.39488462e-14,81.529702 23.5087747,105.044776 52.5083179,105.044776 Z" id="Oval-Copy" stroke="#F65030" stroke-dasharray="2,2"></path>
                                <g id="angular-icon-1" transform="translate(24.016636, 23.074627)" fill-rule="nonzero">
                                    <polygon id="Path" fill="#E23237" points="0 9.94475751 27.6279901 0 56 9.76793717 51.4060956 46.6960997 27.6279901 60 4.22189456 46.8729201"></polygon>
                                    <polygon id="Path" fill="#B52E31" points="56 9.76793717 27 0 27 60 51.3044134 46.7182855"></polygon>
                                    <path d="M27.5755923,6 L10,44.8889645 L16.5656528,44.777929 L20.0943128,36.0050081 L35.8610717,36.0050081 L39.7246843,44.8889645 L46,45 L27.5755923,6 Z M27.620432,18.4596123 L33.5607952,30.8079661 L22.3943651,30.8079661 L27.620432,18.4596123 Z" id="Shape" fill="#FFFFFF"></path>
                                </g>
                            </g>
                            <g id="nextjs" transform="translate(171.791128, 237.895522)">
                                <g id="Rectangle-Copy" stroke-dasharray="2,2">
                                    <g id="path-3-Clipped">
                                        <mask id="mask-4" fill="white">
                                            <use xlink:href="#path-3"></use>
                                        </mask>
                                        <g id="path-3"></g>
                                        <path d="M8,0 L221.595194,0 C226.013472,1.39970738e-14 229.595194,3.581722 229.595194,8 L229.595194,97.0447761 C229.595194,101.463054 226.013472,105.044776 221.595194,105.044776 L8,105.044776 C3.581722,105.044776 5.41083001e-16,101.463054 0,97.0447761 L0,8 C-1.42926142e-15,3.581722 3.581722,8.11624501e-16 8,0 Z" id="path-3" stroke="#50E3C2" stroke-width="2" mask="url(#mask-4)"></path>
                                    </g>
                                </g>
                                <g id="nextjs-3" transform="translate(34.208872, 5.104478)" fill="#000000" fill-rule="nonzero">
                                    <path d="M38.2246945,25.5593957 L68.7796594,25.5593957 L68.7796594,27.9948259 L41.0262518,27.9948259 L41.0262518,46.3225633 L67.1243931,46.3225633 L67.1243931,48.7579935 L41.0262518,48.7579935 L41.0262518,68.8802007 L69.0977689,68.8802007 L69.0977689,71.3156309 L38.2246945,71.3156309 L38.2246945,25.5593957 Z M71.516498,25.5593957 L74.7634086,25.5593957 L89.149636,45.6816028 L103.853973,25.5593957 L123.854284,0 L90.995768,47.7965528 L107.927968,71.3156309 L104.553814,71.3156309 L89.149636,49.9115028 L73.6818363,71.3156309 L70.3713038,71.3156309 L87.4307479,47.7965528 L71.5175949,25.5593957 L71.516498,25.5593957 Z M109.137881,27.9948259 L109.137881,25.5593957 L143.95661,25.5593957 L143.95661,27.9948259 L127.916214,27.9948259 L127.916214,71.3145334 L125.114656,71.3145334 L125.114656,27.9948259 L109.138978,27.9948259 L109.137881,27.9948259 Z M0,25.5593957 L3.50139825,25.5593957 L51.7783526,98 L31.8274029,71.3156309 L2.92770424,29.0199236 L2.80046044,71.3156309 L0,71.3156309 L0,25.5593957 Z M143.675796,68.1448522 C143.102102,68.1448522 142.673203,67.7003505 142.673203,67.1263397 C142.673203,66.5512314 143.102102,66.1067297 143.6747,66.1067297 C144.253878,66.1067297 144.676196,66.5512314 144.676196,67.1263397 C144.676196,67.7003505 144.253878,68.1448522 143.6747,68.1448522 L143.675796,68.1448522 Z M146.426895,65.4635742 L147.926397,65.4635742 C147.947239,66.2779451 148.540678,66.8245176 149.41164,66.8245176 C150.385713,66.8245176 150.937468,66.2373363 150.937468,65.1354112 L150.937468,58.1594786 L152.463297,58.1594786 L152.463297,65.1419964 C152.463297,67.1263397 151.3192,68.2688737 149.424803,68.2688737 C147.647777,68.2688737 146.427992,67.1603633 146.427992,65.4635742 L146.426895,65.4635742 Z M154.458611,65.3757714 L155.971277,65.3757714 C156.100714,66.3119687 157.01336,66.9068327 158.328578,66.9068327 C159.553848,66.9068327 160.45333,66.2702624 160.45333,65.395527 C160.45333,64.6437155 159.88183,64.1915311 158.579775,63.8842213 L157.312821,63.5769114 C155.535796,63.1598481 154.724068,62.2971856 154.724068,60.8473418 C154.724068,59.0890907 156.154464,57.9191184 158.300058,57.9191184 C160.296469,57.9191184 161.755385,59.0890907 161.843139,60.7507588 L160.357897,60.7507588 C160.215296,59.8419998 159.425507,59.2734766 158.280313,59.2734766 C157.073691,59.2734766 156.270738,59.8551702 156.270738,60.7441735 C156.270738,61.448791 156.788489,61.8526839 158.069702,62.1534085 L159.152372,62.4201095 C161.168528,62.8920496 162,63.7130058 162,65.1968731 C162,67.0846334 160.541084,68.2688737 158.212303,68.2688737 C156.032705,68.2688737 154.567207,67.1395101 154.458611,65.3746738 L154.458611,65.3757714 Z" id="Shape"></path>
                                </g>
                            </g>
                        </g>
                        <g id="devices" opacity="0.849004836" transform="translate(153.000000, 137.000000)" fill-rule="nonzero">
                            <g id="desktop" transform="translate(83.000000, 0.000000)">
                                <path d="M52.1142339,50 L36.8857661,50 C36.8857661,50 38.5432457,62.5019732 28,65 L61,65 C50.4567543,62.5019732 52.1142339,50 52.1142339,50 Z" id="Path" fill="#999999"></path>
                                <rect id="Rectangle" fill="#E5E5E5" x="28" y="66" width="32" height="2"></rect>
                                <path d="M86,49.6105688 C86.0093582,50.5010747 85.6627721,51.3587978 85.0364669,51.9946217 C84.4101618,52.6304456 83.5555703,52.9921558 82.6611186,53 L3.3329094,53 C2.43949778,52.9905877 1.58643934,52.6281879 0.961422916,51.9925352 C0.336406487,51.3568825 -0.00936203839,50.5000543 0,49.6105688 L0,3.3834848 C-0.0163848284,1.53352806 1.47481971,0.0196075492 3.3329094,0 L82.6432008,0 C83.5366074,0.00785051917 84.3902861,0.368742701 85.0164193,1.00327683 C85.6425525,1.63781096 85.9898453,2.49400381 85.9818899,3.3834848 L86,49.6105688 Z" id="Path" fill="#B3B3B3"></path>
                                <rect id="Rectangle" fill="url(#linearGradient-5)" x="0" y="5" width="86" height="42"></rect>
                                <rect id="Rectangle" fill="#E5E5E5" style="mix-blend-mode: multiply;" x="0" y="46" width="86" height="1"></rect>
                                <rect id="Rectangle" fill="#E5E5E5" style="mix-blend-mode: multiply;" x="0" y="4" width="86" height="1"></rect>
                                <path d="M86,47 L86,29.3670311 C86,29.3670311 73.7569444,45.1211768 43,31.1911313 C12.2430556,17.2610859 0,31.1911313 0,31.1911313 L0,46.9695983 L86,47 Z" id="Path" fill="#E5E5E5" opacity="0.1" style="mix-blend-mode: screen;"></path>
                                <path d="M36.4685389,53 L51.7099182,53 C51.7099182,53 51.8972627,54.9271333 52,55.4276127 L35,59 C36.0260314,57.1544202 36.5319971,55.0871997 36.4685389,53 L36.4685389,53 Z" id="Path" fill="#828282"></path>
                            </g>
                            <g id="phone">
                                <path d="M34.99338,63.7392276 C34.99338,66.0923844 33.0876051,68 30.7367127,68 L4.26328731,68 C3.13320239,68.0017541 2.04880093,67.5536298 1.2490886,66.7543902 C0.449376273,65.9551506 0,64.8704024 0,63.7392276 L0,4.26077239 C0,3.12959763 0.449376273,2.0448494 1.2490886,1.24560979 C2.04880093,0.446370175 3.13320239,-0.00175405412 4.26328731,0 L30.7433327,0 C33.0942251,0 35,1.90761563 35,4.26077239 L34.99338,63.7392276 Z" id="Path" fill="#808080"></path>
                                <rect id="Rectangle" fill="url(#linearGradient-6)" x="0" y="4" width="35" height="56"></rect>
                                <path d="M0.00662502366,4 L35,4 L35,14.5956709 C35,14.5956709 30.1836078,22.1257591 17.4966875,17.4939182 C4.80976718,12.8620772 0,17.4939182 0,17.4939182 L0.00662502366,4 Z" id="Path" fill="#E5E5E5" opacity="0.1" style="mix-blend-mode: screen;"></path>
                                <rect id="Rectangle" fill="#CCCCCC" style="mix-blend-mode: multiply;" x="0" y="4" width="35" height="1"></rect>
                                <rect id="Rectangle" fill="#CCCCCC" style="mix-blend-mode: multiply;" x="0" y="59" width="35" height="1"></rect>
                                <path d="M21,63.4968553 C21,64.3270192 20.2549769,65 19.3359443,65 L14.6640557,65 C13.7450231,65 13,64.3270192 13,63.4968553 L13,63.4968553 C13.003834,62.6691487 13.7477353,62 14.6640557,62 L19.3359443,62 C20.2522647,62 20.996166,62.6691487 21,63.4968553 L21,63.4968553 Z" id="Path" fill="#747474"></path>
                                <path d="M20.2967211,64.3661972 L15.6337866,64.3661972 C14.8389952,64.363752 14.1573103,63.7910292 14.0076663,63 C13.9974446,63.1053799 13.9974446,63.2115215 14.0076663,63.3169014 C14.0076663,64.2464511 14.7512615,65 15.6685327,65 L20.3314673,65 C21.2487385,65 21.9923337,64.2464511 21.9923337,63.3169014 C22.0025554,63.2115215 22.0025554,63.1053799 21.9923337,63 C21.8382843,63.8176618 21.1175425,64.3983814 20.2967211,64.3661972 L20.2967211,64.3661972 Z" id="Path" fill="#8E8E8E"></path>
                                <path d="M6.99996636,3.00001682 C6.99996636,3.55229228 6.55225864,4 5.99998318,4 C5.44770772,4 5,3.55229228 5,3.00001682 C5,2.44774136 5.44770772,2.00003364 5.99998318,2.00003364 C6.26586005,1.99784525 6.52148316,2.10249743 6.70949287,2.29050713 C6.89750257,2.47851684 7.00215475,2.73413995 6.99996636,3.00001682 Z" id="Path" fill="#4D4D4D"></path>
                                <path d="M9,2.5 C9,2.77614237 8.77614237,3 8.5,3 C8.22385763,3 8,2.77614237 8,2.5 C8,2.22385763 8.22385763,2 8.5,2 C8.77614237,2 9,2.22385763 9,2.5 Z" id="Path" fill="#4D4D4D"></path>
                            </g>
                            <g id="watch" transform="translate(211.000000, 0.000000)">
                                <path d="M29.637931,14.7666782 C26.362069,12.3708782 27.4568966,7.64162236 28.0172414,5.86035841 C28.8475036,4.3826166 28.4250873,2.49279597 27.0517241,1.54079332 C25.0344828,0 22.0344828,0 19.0344828,0 L19.0344828,0 C16.0344828,0 13.0431034,0 11.0258621,1.54079332 C9.87166679,2.32443024 9.36412198,3.80647931 9.78448276,5.16566546 L9.78448276,5.16566546 C9.83148031,5.32688393 9.88908574,5.48459623 9.95689655,5.63770041 C10.4827586,7.21411901 11.8706897,12.3975971 8.23275862,14.8646477 C7.84583326,15.1013003 7.43167339,15.2868157 7,15.4168395 L11.4310345,15.4168395 C12.5430088,18.7573124 15.5851015,21 19.0043103,21 C22.4235192,21 25.4656119,18.7573124 26.5775862,15.4168395 L31,15.4168395 C30.5186044,15.2674752 30.0600496,15.0485916 29.637931,14.7666782 L29.637931,14.7666782 Z" id="Path" fill="#6731CF"></path>
                                <path d="M8.35344828,53.2333218 C11.637931,55.6291218 10.5431034,60.3583776 9.98275862,62.1396416 C9.15249644,63.6173834 9.57491267,65.507204 10.9482759,66.4592067 C12.9655172,67.9910937 15.9655172,68 18.9655172,68 L18.9655172,68 C21.9655172,68 25,68 26.9741379,66.4592067 C28.1297303,65.6725031 28.6371303,64.1872364 28.2155172,62.8254282 L28.2155172,62.8254282 C28.1670719,62.6647205 28.1095008,62.5071022 28.0431034,62.3533933 C27.5172414,60.7769747 26.1293103,55.5934966 29.7672414,53.1353523 C30.1523862,52.8951136 30.5670101,52.7093904 31,52.5831605 L26.5689655,52.5831605 C25.4569912,49.2426876 22.4148985,47 18.9956897,47 C15.5764808,47 12.5343881,49.2426876 11.4224138,52.5831605 L7,52.5831605 C7.47920244,52.7311367 7.93509742,52.9501368 8.35344828,53.2333218 L8.35344828,53.2333218 Z" id="Path" fill="#6731CF"></path>
                                <path d="M4,34.7590361 C4,35.3533767 3.78928632,35.9233746 3.41421356,36.3436369 C3.03914081,36.7638991 2.53043298,37 2,37 L2,37 C0.8954305,37 0,35.9966863 0,34.7590361 L0,30.2409639 C0,29.0033137 0.8954305,28 2,28 L2,28 C3.1045695,28 4,29.0033137 4,30.2409639 L4,34.7590361 Z" id="Path" fill="#999999"></path>
                                <path d="M7.2857251,17 L30.7053585,17 C32.5249387,17 34,18.4484362 34,20.2351728 L34,47.7735946 C34,48.6292905 33.6538277,49.4499394 33.037637,50.0550077 C32.4214462,50.6600761 31.5857123,51 30.714287,51 L7.2857251,51 C5.47107595,51 4,49.5554891 4,47.7735946 L4,20.2439402 C3.99764093,19.3859181 4.3424819,18.5621137 4.9586733,17.9537562 C5.57486471,17.3453987 6.41193085,17.0023221 7.2857251,17 L7.2857251,17 Z" id="Path" fill="url(#linearGradient-7)"></path>
                                <path d="M30.9952191,52 L8.00478088,52 C5.23929952,51.9952359 3,49.7848087 3,47.0597572 L3,19.9402428 C3,17.2151913 5.23929952,15.0047641 8.00478088,15 L30.9952191,15 C33.7607005,15.0047641 36,17.2151913 36,19.9402428 L36,47.0597572 C36,49.7848087 33.7607005,51.9952359 30.9952191,52 Z M8.00478088,18.4719887 C7.20121757,18.4719887 6.5498008,19.1138812 6.5498008,19.9056956 L6.5498008,47.0252101 C6.5498008,47.8170245 7.20121757,48.4589169 8.00478088,48.4589169 L30.9952191,48.4589169 C31.7987824,48.4589169 32.4501992,47.8170245 32.4501992,47.0252101 L32.4501992,19.9402428 C32.4596459,19.5540502 32.3105343,19.1804426 32.036642,18.9040516 C31.7627497,18.6276605 31.3872559,18.4719887 30.9952191,18.4719887 L8.00478088,18.4719887 Z" id="Shape" fill="#CCCCCC"></path>
                                <path d="M30.315,18.50554 C30.4380931,18.4946537 30.5619069,18.4946537 30.685,18.50554 C30.5621091,18.4907667 30.4378909,18.4907667 30.315,18.50554 L30.315,18.50554 Z" id="Path" fill="url(#linearGradient-8)"></path>
                                <path d="M18.9956007,34.0714928 C9.43147208,29.410634 6,34.0714928 6,34.0714928 L6,47.5725045 C6,48.3608885 6.65392183,49 7.4605753,49 L30.5394247,49 C31.3460782,49 32,48.3608885 32,47.5725045 L32,34.0714928 C32,34.0714928 28.5685279,38.7323516 18.9956007,34.0714928 Z" id="Path" fill="#E5E5E5" opacity="0.2" style="mix-blend-mode: screen;"></path>
                                <path d="M6.31244151,19.65 L6.31244151,20 C6.27973605,19.6506037 6.41186587,19.3028936 6.69244151,19 C6.44904005,19.1825822 6.314713,19.4123521 6.31244151,19.65 L6.31244151,19.65 Z" id="Path" fill="url(#linearGradient-9)"></path>
                            </g>
                        </g>
                    </g>
                </g>
            </g>
        </g>
    </g>
</svg>