<svg width="149" height="145" viewBox="0 0 149 145" fill="none" xmlns="http://www.w3.org/2000/svg">
<path fill-rule="evenodd" clip-rule="evenodd" d="M133.924 114.207L83.931 142.841C79.1996 145.55 73.3708 145.55 68.6396 142.841L18.6457 114.207C13.9145 111.497 11.0001 106.49 11.0001 101.07L11.0001 43.8026C11.0001 38.3832 13.9145 33.3753 18.6457 30.666L68.6396 2.03213C73.3708 -0.678027 79.1996 -0.678027 83.931 2.03213L133.924 30.666C138.655 33.3753 141.57 38.3832 141.57 43.8026V101.07C141.57 106.49 138.655 111.497 133.924 114.207Z" fill="white"/>
<circle cx="98" cy="54" r="13" fill="#F2F2F2"/>
<path fill-rule="evenodd" clip-rule="evenodd" d="M87 30C87 33.3122 84.3161 35.9979 81.0039 36C77.6917 36.0021 75.0043 33.3199 75 30.0077C74.9957 26.6955 77.6762 24.0064 80.9884 24C82.5817 23.9969 84.1108 24.6277 85.2385 25.7533C86.3663 26.8788 87 28.4067 87 30Z" fill="#F2F2F2"/>
<rect x="2" y="88" width="73" height="18" rx="9" fill="#F2F2F2"/>
<path fill-rule="evenodd" clip-rule="evenodd" d="M62.9803 76.981C62.8266 75.0078 62.6483 73.0391 62.4767 71.0682C62.4054 70.2515 62.118 69.9927 61.298 69.9725C59.8563 69.9342 58.4123 69.878 56.9684 69.851C56.4782 69.851 56.1818 69.7002 56.0147 69.176C55.8169 68.5283 55.5343 67.9101 55.1746 67.3378C54.4081 66.1656 53.5769 65.0384 52.7391 63.9202C52.5273 63.7109 52.4653 63.3914 52.5831 63.1169C52.8817 62.3542 53.1491 61.5802 53.4142 60.8062C53.7128 59.9355 53.9936 59.058 54.2811 58.1828C54.4147 57.3368 53.6237 57.0106 52.6967 56.4909C51.2082 55.7146 49.7331 54.9159 48.2401 54.1712C47.5716 53.8427 47.2129 53.9867 46.8051 54.6054C45.9465 55.9134 45.0938 57.2244 44.247 58.5383C44.141 58.7695 43.8815 58.8851 43.6409 58.8083C41.1716 58.3121 38.6228 58.389 36.1873 59.0333C35.9808 59.0583 35.7741 58.989 35.6235 58.8443C34.4938 57.5978 33.3818 56.3289 32.2811 55.0599C31.7307 54.4299 31.3452 54.3849 30.6499 54.8867C29.0612 56.0116 27.4768 57.1366 25.8747 58.2481C25.1594 58.7431 25.0168 59.193 25.429 59.9535C26.1466 61.3035 26.8708 62.6534 27.6016 64.0034C27.7476 64.2256 27.7167 64.5211 27.5281 64.7076C26.9131 65.5671 26.2557 66.4153 25.7767 67.3491C25.2489 68.4561 24.7802 69.591 24.3728 70.7487C24.3112 71.0262 24.084 71.2349 23.8046 71.2707C22.2248 71.5542 20.6427 71.8737 19.0829 72.1909C18.1069 72.3844 17.9464 72.5824 18.0133 73.6061C18.1425 75.5613 18.3007 77.512 18.4277 79.4672C18.4834 80.3109 18.7575 80.6057 19.602 80.6417C21.1195 80.7024 22.637 80.7834 24.1522 80.8239C24.5266 80.8239 24.6647 80.9882 24.7828 81.3144C25.6487 83.6625 27.0114 85.7917 28.7759 87.5535C28.8985 87.7431 28.9327 87.9774 28.8695 88.1947C28.386 89.7944 27.8668 91.3829 27.3632 92.9736C27.1404 93.6868 27.3365 94.1278 28.0139 94.4383C29.8634 95.282 31.7084 96.1415 33.5712 96.9492C33.8571 97.0466 34.1716 97.0024 34.4202 96.8299C34.8855 96.4015 35.297 95.9171 35.6458 95.3877C36.2764 94.418 36.8268 93.401 37.4418 92.4201C37.5643 92.2492 37.7588 92.146 37.9677 92.1411C40.2445 92.4756 42.5651 92.3354 44.7863 91.7293C44.9981 91.6831 45.2192 91.7379 45.3857 91.8778C46.4686 93.0771 47.5293 94.292 48.5811 95.5182C49.2852 96.3372 49.6506 96.4295 50.5085 95.831C52.1218 94.7075 53.7247 93.569 55.3172 92.4156C55.881 92.0106 55.9857 91.5741 55.6648 90.9396C54.9317 89.5177 54.1674 88.1137 53.4365 86.6917C53.3585 86.5195 53.3626 86.3206 53.4477 86.1518C54.9207 84.3186 56.0018 82.1974 56.623 79.9217C56.6811 79.6246 56.9279 79.403 57.2269 79.3795C58.7867 79.0795 60.3465 78.7667 61.9063 78.4412C62.8934 78.232 63.0672 78.0182 62.9803 76.981ZM40.499 85.5465C35.0017 85.5465 30.5452 81.0468 30.5452 75.4961C30.5452 69.9454 35.0017 65.4456 40.499 65.4456C45.9964 65.4456 50.4528 69.9454 50.4528 75.4961C50.4534 78.1618 49.4049 80.7185 47.5381 82.6035C45.6713 84.4884 43.1391 85.5471 40.499 85.5465Z" fill="url(#paint0_linear)"/>
<path fill-rule="evenodd" clip-rule="evenodd" d="M16.3195 67.9996C16.1699 68.0021 16.0213 67.975 15.8825 67.92C14.3945 67.2875 12.8931 66.6153 11.4432 65.9652L10.2891 65.4478C9.43982 65.0697 9.15298 64.4373 9.4331 63.5661L9.88129 62.2394C10.2398 61.1338 10.6118 60.0038 10.9592 58.8828C10.9807 58.7894 10.9745 58.6919 10.9413 58.6019C9.13294 56.8331 7.73529 54.6981 6.84481 52.3442C6.75966 52.1231 6.72828 52.1054 6.54901 52.101C5.52714 52.0745 4.49182 52.0302 3.49012 51.986C2.98143 51.9639 2.47498 51.9418 1.96628 51.9241C0.930967 51.8799 0.500707 51.4598 0.431237 50.4271C0.361768 49.3945 0.285576 48.3795 0.207143 47.3558C0.139915 46.4713 0.0726868 45.5647 0.0121814 44.6669C-0.0662516 43.4862 0.216107 43.1191 1.38588 42.898L2.32707 42.7144C3.57752 42.469 4.87054 42.2147 6.14788 41.9847C6.30699 41.956 6.34732 41.9295 6.4392 41.6995L6.70811 41.003C7.03615 40.0875 7.41852 39.1919 7.85324 38.3208C8.28973 37.5363 8.7888 36.7872 9.3457 36.0808L9.64375 35.6762C9.76924 35.5081 9.75579 35.4882 9.69305 35.3755C8.88407 33.9249 8.09974 32.5009 7.50589 31.3953C7.01736 30.4931 7.18768 29.8475 8.07957 29.246C9.62358 28.2001 11.181 27.121 12.6869 26.0773L12.8797 25.9447C13.7335 25.3454 14.3296 25.4096 15.0108 26.1658C16.0125 27.2891 17.1823 28.5981 18.3722 29.8784C18.4365 29.9274 18.5151 29.9545 18.5963 29.9558C21.0912 29.3161 23.7003 29.2405 26.229 29.7347C26.3522 29.759 26.3701 29.7634 26.4531 29.633C27.2172 28.4721 28.0352 27.2427 29.0301 25.7611C29.559 24.9762 30.1327 24.8103 30.9461 25.2083C32.0196 25.728 33.0952 26.283 34.135 26.8181C34.5697 27.0436 35.0052 27.2648 35.4415 27.4815L35.7328 27.6362C36.5485 28.0785 37.3933 28.5207 37.232 29.5246L37.2185 29.5821L36.9362 30.4268C36.7412 31.0061 36.5485 31.5877 36.3446 32.1648C36.1025 32.8591 35.8157 33.6662 35.5042 34.449C35.4459 34.5971 35.4415 34.6701 35.6095 34.8912C36.3782 35.8907 37.2656 37.0604 38.0746 38.2699C38.4586 38.8596 38.7601 39.4978 38.971 40.1671C39.0763 40.4922 39.195 40.574 39.585 40.5828C40.4948 40.5983 41.4181 40.6271 42.31 40.6536L43.9324 40.7133C44.9565 40.7398 45.389 41.1334 45.4786 42.1218L45.5862 43.3424C45.7229 44.8483 45.8618 46.4027 45.9829 47.9373C46.0792 49.1402 45.7901 49.5139 44.5845 49.7593C43.0674 50.0667 41.4853 50.3763 39.8785 50.6814C39.6656 50.7234 39.6119 50.7699 39.5581 50.9556C39.2379 52.0929 38.8016 53.1953 38.2561 54.2459L37.5973 53.912C38.1207 52.9054 38.5389 51.8489 38.8455 50.7588C38.9408 50.3319 39.3015 50.0126 39.7418 49.965C41.3441 49.6598 42.924 49.3503 44.4478 49.0429C45.2837 48.8726 45.3218 48.8218 45.2546 47.9926C45.1335 46.4646 44.9946 44.9102 44.8601 43.4065L44.7503 42.186C44.6966 41.5779 44.5643 41.4607 43.9257 41.443C43.3789 41.4297 42.8343 41.412 42.2898 41.3966C41.3934 41.3678 40.4791 41.3413 39.5738 41.3236C39.1009 41.3236 38.525 41.202 38.2673 40.3993C38.0791 39.7948 37.8101 39.2177 37.4673 38.6834C36.6695 37.4938 35.7911 36.3351 35.0291 35.3423C34.74 35.0336 34.6602 34.5867 34.8252 34.1991C35.1322 33.4318 35.4146 32.6314 35.6566 31.9437C35.8583 31.3688 36.051 30.7916 36.2437 30.2145C36.3334 29.9447 36.4252 29.6728 36.5171 29.4008C36.5709 28.9718 36.2437 28.7529 35.3966 28.2952L35.1098 28.1404L33.8078 27.477C32.7725 26.9441 31.7036 26.3913 30.6369 25.8739C30.1618 25.6528 29.9893 25.697 29.6666 26.1769C28.6716 27.6561 27.8536 28.8834 27.094 30.0376C26.9054 30.3919 26.4926 30.5694 26.1012 30.4644C23.6723 29.9912 21.1662 30.0668 18.7711 30.6855C18.4303 30.7441 18.082 30.6343 17.8389 30.3914C16.6467 29.1067 15.4724 27.7955 14.4775 26.6677C14.0494 26.1879 13.8791 26.1724 13.3323 26.555L13.1374 26.6899C11.6292 27.7335 10.0718 28.8148 8.52552 29.8629C7.94736 30.2521 7.87789 30.4998 8.18489 31.0614C8.7765 32.1493 9.55859 33.5822 10.3653 35.0283C10.5803 35.3713 10.5411 35.8131 10.269 36.114L9.94403 36.512C9.4121 37.188 8.93409 37.9036 8.51431 38.6525C8.09118 39.4976 7.71709 40.3658 7.39384 41.2528C7.3042 41.4872 7.21457 41.7238 7.12269 41.956C7.01628 42.3459 6.68844 42.6383 6.28458 42.7034C5.0162 42.9245 3.72542 43.1854 2.47498 43.4309L1.53154 43.6144C0.727042 43.7714 0.697909 43.809 0.751692 44.6227C0.814438 45.519 0.880173 46.4138 0.948895 47.3071C1.02509 48.3331 1.10128 49.3569 1.17299 50.3829C1.21781 51.0463 1.34778 51.1701 1.99766 51.1966L3.52374 51.2607C4.5232 51.305 5.55627 51.3492 6.56918 51.3757C7.02552 51.3582 7.43163 51.6592 7.54175 52.0966C8.39677 54.3539 9.7378 56.4014 11.4724 58.0978C11.6928 58.3798 11.7621 58.7494 11.6584 59.0906C11.3088 60.2183 10.9368 61.3571 10.576 62.4583C10.4326 62.9005 10.2869 63.3428 10.1412 63.785C9.97317 64.3068 10.083 64.5501 10.5894 64.7778L11.7458 65.2953C13.1912 65.9431 14.6881 66.622 16.1716 67.2433C16.3261 67.282 16.4897 67.2631 16.631 67.1903C17.076 66.791 17.4689 66.3386 17.8008 65.8436C18.1526 65.3152 18.4865 64.7624 18.8092 64.225C19.0647 63.8005 19.3313 63.3605 19.6047 62.9337C19.8047 62.6419 20.1445 62.4742 20.5011 62.4914C21.4577 62.617 22.4226 62.671 23.3874 62.6529L23.4054 63.3826C22.4023 63.4026 21.3992 63.3472 20.4047 63.2167C20.3416 63.2407 20.2843 63.2777 20.2367 63.3251C19.9678 63.743 19.7056 64.1786 19.4523 64.5987C19.1252 65.1427 18.7801 65.7043 18.426 66.2439C18.0595 66.7905 17.6259 67.2903 17.1352 67.732C16.9034 67.9126 16.6148 68.0073 16.3195 67.9996Z" fill="#D3C3F1"/>
<path fill-rule="evenodd" clip-rule="evenodd" d="M52.9021 46.9995C52.7985 47.0023 52.6956 46.9823 52.6003 46.941C51.7968 46.5924 50.9889 46.2191 50.2054 45.8593L49.6017 45.5827C49.3601 45.4994 49.1637 45.3182 49.0593 45.0823C48.9549 44.8465 48.9519 44.5772 49.0512 44.3391L49.2887 43.5948C49.4818 42.9831 49.6771 42.3714 49.8613 41.7597V41.7417C48.8947 40.7579 48.1463 39.5765 47.6662 38.2763C47.6666 38.2688 47.6666 38.2613 47.6662 38.2538C47.1202 38.2403 46.5742 38.2156 46.026 38.1908L45.2136 38.1548C44.5766 38.1279 44.2725 37.8243 44.2303 37.1744C44.1926 36.6122 44.1527 36.0499 44.1127 35.4945C44.0757 34.9982 44.0402 34.5013 44.0062 34.0035C43.9596 33.2726 44.1704 32.9915 44.8784 32.8499L45.369 32.7509C46.0348 32.616 46.7406 32.4743 47.4309 32.3461L47.4509 32.2967C47.4997 32.173 47.5463 32.0448 47.593 31.9211C47.7733 31.4105 47.9815 30.9105 48.2167 30.4234C48.4604 29.9815 48.738 29.5597 49.0468 29.1618L49.2021 28.9369C48.8048 28.2038 48.4231 27.4887 48.0413 26.769C47.7372 26.1933 47.8526 25.7481 48.4009 25.3658C49.2687 24.7631 50.1343 24.1469 50.9733 23.551C51.1554 23.4018 51.3788 23.3138 51.6126 23.2991C51.9011 23.3186 52.1662 23.4669 52.3361 23.7039C53.002 24.4617 53.5502 25.0959 54.1118 25.7278C55.4513 25.3782 56.8508 25.3344 58.2091 25.5996C58.653 24.8913 59.1169 24.1919 59.5741 23.4947C59.7252 23.2075 60.0126 23.0203 60.3332 23C60.5022 23.0051 60.6678 23.0497 60.817 23.1304C61.3897 23.416 61.9646 23.7196 62.5194 24.0142L63.2275 24.3875L63.3873 24.4752C63.8312 24.7181 64.3816 25.0217 64.2751 25.6918L64.2596 25.7503L64.1153 26.2001C64.0088 26.5284 63.8933 26.8545 63.7912 27.1806C63.6536 27.5854 63.5027 28.0194 63.3473 28.4422V28.4624C63.3619 28.4794 63.3753 28.4974 63.3873 28.5164C63.8023 29.0696 64.2751 29.7172 64.719 30.3851C64.931 30.7225 65.0974 31.087 65.214 31.4691C65.2495 31.577 65.2495 31.577 65.3871 31.5815C65.8776 31.5815 66.3659 31.604 66.8564 31.6198L67.7221 31.6445C68.3524 31.6625 68.6587 31.9503 68.7142 32.5778L68.7697 33.2232C68.8429 34.0732 68.9184 34.9255 68.9917 35.7778C69.0471 36.5222 68.8341 36.8078 68.1038 36.9607C67.287 37.1316 66.437 37.3003 65.5802 37.469H65.5469C65.5463 37.4757 65.5463 37.4825 65.5469 37.4892C65.2052 38.7381 64.6187 39.9045 63.8223 40.9187C64.011 41.283 64.2019 41.645 64.395 42.0093C64.5881 42.3736 64.8034 42.7829 65.0031 43.1742C65.1364 43.3812 65.1798 43.6345 65.1231 43.8748C65.0664 44.1152 64.9147 44.3213 64.7035 44.4448C63.7002 45.1712 62.8746 45.7581 62.1088 46.2956C61.9104 46.4554 61.6691 46.551 61.4163 46.57C61.0479 46.57 60.7926 46.3091 60.584 46.064C59.9381 45.3106 59.4032 44.6967 58.8971 44.1345C57.6698 44.4757 56.387 44.5614 55.1261 44.3863C54.9885 44.6112 54.8553 44.8361 54.7244 45.061C54.549 45.3623 54.367 45.6727 54.1695 45.974C53.9669 46.2875 53.7252 46.5733 53.4504 46.8241C53.2928 46.9444 53.0993 47.0064 52.9021 46.9995ZM44.7253 33.6639C44.7195 33.7613 44.7195 33.8589 44.7253 33.9563C44.7578 34.451 44.7926 34.9458 44.8296 35.4405C44.871 35.9997 44.911 36.5612 44.9495 37.1249C44.9672 37.4015 44.9717 37.4015 45.2314 37.4127L46.0459 37.4487C46.5897 37.4712 47.1335 37.4959 47.6773 37.5094C47.9877 37.5073 48.2608 37.7167 48.3432 38.0199C48.7931 39.2385 49.498 40.344 50.4096 41.2605C50.5722 41.4597 50.6255 41.7282 50.5516 41.9756C50.3652 42.594 50.1699 43.208 49.9723 43.8219L49.737 44.564C49.6727 44.7686 49.6927 44.8136 49.8902 44.9036L50.4961 45.1824C51.273 45.54 52.0765 45.9111 52.8711 46.2574H52.8888C52.9124 46.2606 52.9363 46.2606 52.9598 46.2574C53.181 46.0501 53.3769 45.8168 53.5436 45.5625C53.73 45.2769 53.9076 44.9733 54.0807 44.6787C54.2205 44.4403 54.3604 44.1997 54.5091 43.9658C54.6387 43.7707 54.8521 43.6497 55.0839 43.6397H55.1505C56.3289 43.8113 57.5295 43.7347 58.6774 43.4149C58.7332 43.4002 58.7906 43.3926 58.8483 43.3924C59.043 43.3895 59.2308 43.4656 59.3699 43.6038C59.8871 44.1795 60.4375 44.8069 61.0989 45.5782C61.3009 45.8166 61.3653 45.8278 61.3764 45.8278C61.3875 45.8278 61.4629 45.8278 61.6516 45.6862C62.4151 45.1509 63.2364 44.5618 64.2374 43.8421C64.395 43.7274 64.4038 43.696 64.3128 43.5183C64.1131 43.1315 63.9111 42.7462 63.7069 42.3624C63.5071 41.9823 63.3052 41.6023 63.1098 41.2222C62.9991 40.9986 63.017 40.7316 63.1565 40.5251C63.9179 39.5733 64.4771 38.4723 64.7989 37.2913C64.8684 36.9955 65.1098 36.7731 65.4071 36.7313C66.2638 36.5649 67.1095 36.394 67.9218 36.2254C68.0266 36.2145 68.1284 36.1832 68.2215 36.1332C68.2348 36.0317 68.2348 35.9288 68.2215 35.8273C68.1549 34.9795 68.0816 34.1294 67.9995 33.2816L67.9418 32.6362C67.9263 32.4563 67.8952 32.4113 67.8952 32.4113C67.8253 32.3808 67.7492 32.3677 67.6732 32.3731L66.8054 32.3484C66.3193 32.3326 65.831 32.3169 65.3449 32.3079C64.9478 32.3322 64.5887 32.0699 64.486 31.6805C64.3912 31.3631 64.2538 31.0604 64.0776 30.7809C63.6559 30.131 63.1897 29.4969 62.7791 28.9526C62.5882 28.7358 62.5365 28.4274 62.646 28.1588C62.8058 27.7473 62.9523 27.3222 63.0899 26.9242C63.1986 26.6004 63.3118 26.2788 63.4095 25.955L63.5427 25.5457C63.5427 25.4332 63.445 25.3523 63.0255 25.1229L62.8701 25.0374L62.1688 24.6664C61.6161 24.374 61.0479 24.0727 60.4819 23.7916C60.433 23.762 60.3786 23.7429 60.3221 23.7354C60.3066 23.7354 60.2533 23.7803 60.1756 23.8995C59.7139 24.6027 59.2552 25.3095 58.7995 26.0202C58.6615 26.2744 58.3708 26.4012 58.0937 26.3283C56.8166 26.074 55.4992 26.1162 54.2405 26.4519C53.9975 26.5009 53.7466 26.4212 53.5746 26.2406C52.9953 25.5996 52.4338 24.9587 51.7657 24.1896C51.6414 24.0457 51.5926 24.0367 51.5926 24.0367C51.5926 24.0367 51.5304 24.0367 51.3706 24.1536C50.5294 24.7518 49.6616 25.3703 48.7937 25.9729C48.5363 26.1529 48.5474 26.1978 48.6628 26.4227C49.0667 27.1543 49.4618 27.8815 49.848 28.6041C49.993 28.8515 49.9672 29.1648 49.7837 29.3844L49.6261 29.6093C49.3443 29.9763 49.0912 30.365 48.8692 30.7719C48.6455 31.2322 48.4484 31.7053 48.2788 32.1887C48.2322 32.3169 48.1856 32.4451 48.1367 32.571C48.0558 32.8419 47.829 33.042 47.553 33.086C46.8694 33.2119 46.1747 33.3514 45.5044 33.4863L45.0116 33.5875C44.912 33.5975 44.815 33.6257 44.7253 33.6707V33.6639Z" fill="#D3C3F1"/>
<g style="mix-blend-mode:multiply">
<path fill-rule="evenodd" clip-rule="evenodd" d="M36.9836 79C36.8267 78.9994 36.6765 78.9338 36.5659 78.8176L34.3786 76.5304C34.2669 76.4145 34.2041 76.2569 34.2041 76.0924C34.2041 75.9279 34.2669 75.7702 34.3786 75.6544L36.5636 73.3696C36.7115 73.2022 36.9351 73.133 37.1464 73.1891C37.3576 73.2452 37.5225 73.4176 37.5762 73.6385C37.6298 73.8594 37.5636 74.0933 37.4036 74.248L35.6363 76.0936L37.4036 77.9392C37.5733 78.1169 37.624 78.384 37.5321 78.6161C37.4402 78.8482 37.2238 78.9997 36.9836 79Z" fill="#CCCCCC"/>
<path fill-rule="evenodd" clip-rule="evenodd" d="M45.2115 79C44.9717 78.9987 44.7561 78.8469 44.6648 78.615C44.5735 78.3832 44.6243 78.1166 44.7938 77.9392L46.5587 76.0936L44.7915 74.248C44.5595 74.0061 44.559 73.6133 44.7903 73.3708C45.0217 73.1282 45.3972 73.1277 45.6292 73.3696L47.8164 75.6568C47.9281 75.7726 47.991 75.9303 47.991 76.0948C47.991 76.2592 47.9281 76.4169 47.8164 76.5328L45.6315 78.8176C45.52 78.9339 45.369 78.9995 45.2115 79Z" fill="#CCCCCC"/>
<path fill-rule="evenodd" clip-rule="evenodd" d="M42.2163 78.9999C41.9974 78.9989 41.7966 78.8728 41.6931 78.6711L39.3521 74.1111C39.252 73.916 39.2591 73.68 39.3707 73.4918C39.4822 73.3037 39.6812 73.1921 39.8928 73.199C40.1044 73.206 40.2963 73.3304 40.3963 73.5255L42.7396 78.0855C42.8937 78.3878 42.7849 78.7634 42.4963 78.9255C42.4105 78.9745 42.3142 79 42.2163 78.9999Z" fill="#CCCCCC"/>
</g>
<path fill-rule="evenodd" clip-rule="evenodd" d="M36.4753 79C36.3361 79.0004 36.2025 78.9335 36.1039 78.8141L34.1551 76.4519C34.0554 76.3321 33.9995 76.1686 34 75.9983C34.0007 75.8289 34.0564 75.6668 34.1551 75.5471L36.0978 73.1874C36.2308 73.0258 36.4247 72.9627 36.6065 73.0218C36.7882 73.081 36.9302 73.2534 36.9789 73.4742C37.0276 73.695 36.9756 73.9305 36.8426 74.0921L35.2733 75.9983L36.8446 77.9069C36.9962 78.0898 37.0417 78.3659 36.9598 78.6056C36.8779 78.8453 36.6848 79.0011 36.4712 79H36.4753Z" fill="url(#paint1_linear)"/>
<path fill-rule="evenodd" clip-rule="evenodd" d="M44.5279 79C44.3145 79.0001 44.1222 78.8439 44.0408 78.6045C43.9594 78.365 44.005 78.0895 44.1564 77.9069L45.7262 76.0007L44.1543 74.0921C44.0212 73.9305 43.9692 73.695 44.018 73.4742C44.0667 73.2534 44.2087 73.081 44.3905 73.0218C44.5723 72.9627 44.7663 73.0258 44.8994 73.1874L46.8449 75.5471C46.9433 75.668 46.999 75.8308 47 76.0007C46.9996 76.1709 46.9439 76.3339 46.8449 76.4544L44.8953 78.8141C44.7972 78.9314 44.6656 78.998 44.5279 79Z" fill="url(#paint2_linear)"/>
<path fill-rule="evenodd" clip-rule="evenodd" d="M41.4982 79C41.3133 79.0001 41.1434 78.8711 41.0556 78.6642L39.0735 73.9726C38.9765 73.7702 38.9754 73.516 39.0708 73.3123C39.1662 73.1086 39.3423 72.9887 39.5285 73.0008C39.7146 73.0129 39.8802 73.155 39.9588 73.3701L41.9408 78.0617C42.0711 78.3727 41.9791 78.7592 41.735 78.9259C41.6618 78.9741 41.5806 78.9995 41.4982 79Z" fill="url(#paint3_linear)"/>
<path fill-rule="evenodd" clip-rule="evenodd" d="M139.64 65.2401H96.5845C93.2753 58.6692 86.714 54.3879 79.3967 54.025C72.0794 53.662 65.1308 57.2732 61.1942 63.4847C60.7733 64.1598 61.0017 65.5484 62.2239 65.5484H72.5776C77.3466 65.5497 81.2119 69.4366 81.2119 74.2309V74.7778C81.2119 79.5717 77.3462 83.458 72.5776 83.458H62.4165C61.1315 83.458 60.78 84.8736 61.2054 85.5442C65.1487 91.7425 72.0934 95.3414 79.403 94.9744C86.7126 94.6074 93.2662 90.331 96.5756 83.7686H139.64C142.966 83.8207 146.063 82.0664 147.741 79.1786C149.42 76.2909 149.42 72.7178 147.741 69.83C146.063 66.9422 142.966 65.188 139.64 65.2401ZM139.888 77.3029C138.35 77.3029 137.104 76.0494 137.104 74.5032C137.104 72.957 138.35 71.7036 139.888 71.7036C141.426 71.7036 142.673 72.957 142.673 74.5032C142.67 76.0459 141.425 77.2949 139.891 77.2961L139.888 77.3029Z" fill="url(#paint4_linear)"/>
<g style="mix-blend-mode:multiply">
<path fill-rule="evenodd" clip-rule="evenodd" d="M138.605 81H99V79.5523H138.605C141.843 79.5523 144.469 76.8428 144.469 73.5006C144.469 70.1583 141.843 67.4489 138.605 67.4489H99V66.0012H138.605C141.231 65.9534 143.678 67.372 145.005 69.7116C146.332 72.0512 146.332 74.9476 145.005 77.2872C143.678 79.6268 141.231 81.0454 138.605 80.9977V81Z" fill="url(#paint5_linear)"/>
</g>
<path fill-rule="evenodd" clip-rule="evenodd" d="M112.846 71.727H112.041L111.382 73.7014L111.251 74.0918L110.452 71.727H109.609L108.813 74.0918L108.679 73.7014L108.02 71.727H107L107.072 71.954L107.329 72.712L107.95 74.5616L108.389 75.9051H109.236L110.033 73.5449L110.827 75.9051H111.665L112.111 74.5638L112.734 72.7142L112.988 71.9563L113.063 71.7293L112.846 71.727ZM116.245 74.5956L116.122 74.6637C115.94 74.7614 115.752 74.8478 115.56 74.9224C115.37 74.9937 115.168 75.0305 114.966 75.0313C114.746 75.0438 114.528 74.9842 114.342 74.8611C114.22 74.7596 114.13 74.6219 114.086 74.4662H114.617C115.047 74.4808 115.475 74.3898 115.865 74.2007C116.286 73.9922 116.551 73.5488 116.543 73.066C116.553 72.64 116.346 72.2399 115.999 72.0107C115.68 71.7918 115.305 71.6771 114.922 71.6816C114.38 71.6736 113.864 71.9178 113.515 72.3466C113.165 72.7945 112.985 73.3596 113.01 73.9352C112.983 74.4765 113.161 75.0075 113.506 75.4149C113.873 75.8099 114.386 76.0225 114.915 75.9981C115.516 75.9885 116.101 75.8036 116.605 75.4648L116.739 75.3763L116.245 74.5956ZM114.56 72.687C114.662 72.6306 114.775 72.6018 114.891 72.603C114.98 72.6024 115.069 72.6116 115.157 72.6303C115.235 72.6439 115.309 72.674 115.376 72.7188C115.427 72.7499 115.469 72.7936 115.499 72.8459C115.536 72.9092 115.555 72.9827 115.552 73.0569C115.563 73.1389 115.539 73.2218 115.486 73.2839C115.411 73.357 115.324 73.4155 115.229 73.4563C115.032 73.5161 114.826 73.5384 114.621 73.5222H114.031C114.071 73.3116 114.159 73.1139 114.288 72.9457C114.364 72.8449 114.456 72.7575 114.56 72.687ZM120.357 72.2558C119.801 71.5998 118.887 71.4135 118.132 71.8019V70H117.151V75.7598L117.261 75.7939C117.718 75.9152 118.189 75.977 118.661 75.9777C119.374 75.9777 119.923 75.7644 120.294 75.3422C120.655 74.8988 120.847 74.3336 120.833 73.7536C120.841 73.2134 120.673 72.6862 120.357 72.2558ZM119.26 74.9292C119.099 74.9989 118.925 75.0307 118.751 75.0223C118.591 75.0223 118.371 75.0064 118.139 74.9837V73.2022C118.146 73.0652 118.203 72.9362 118.299 72.8413C118.466 72.648 118.707 72.5402 118.957 72.5463C119.228 72.5389 119.48 72.6852 119.616 72.9276C119.768 73.1862 119.844 73.485 119.835 73.7877C119.853 74.102 119.76 74.4124 119.574 74.6614C119.488 74.776 119.378 74.8678 119.251 74.9292H119.26ZM121.294 71.7338H122.275V75.9005H121.294V71.7338ZM126.791 75.9028V73.0115C126.795 72.7962 126.754 72.5826 126.67 72.3852C126.451 71.9313 125.962 71.6726 125.288 71.6726C124.846 71.6524 124.413 71.8102 124.081 72.1128C123.966 71.9462 123.822 71.8024 123.658 71.6885L123.557 71.6136L122.916 72.2172L123.039 72.3352C123.139 72.4275 123.22 72.5394 123.278 72.6643C123.325 72.798 123.348 72.9396 123.346 73.0819V75.9051H124.327V73.1591C124.435 73.0109 124.567 72.8821 124.715 72.7778C124.873 72.6668 125.06 72.6083 125.251 72.6098C125.409 72.5999 125.565 72.6508 125.69 72.7528C125.751 72.8096 125.812 72.9094 125.812 73.2067V75.9028H126.791ZM128.239 75.8007C128.792 75.3876 129.367 75.5601 129.944 75.5737H130.052C130.369 75.5725 130.685 75.5528 131 75.5147V71.7338H130.021V74.3006C130.021 74.3006 129.866 74.9496 129.277 74.9587C129.277 74.9587 128.619 75.0109 128.536 74.4345V71.7384H127.557V74.6274C127.553 74.8389 127.591 75.049 127.669 75.2447C127.789 75.4942 127.991 75.6913 128.239 75.8007Z" fill="white"/>
<path fill-rule="evenodd" clip-rule="evenodd" d="M133.216 73.2698C132.797 73.0137 132.294 72.936 131.818 73.0536V74.2993C131.831 74.2762 131.847 74.2548 131.865 74.2354C131.889 74.2115 131.916 74.1901 131.945 74.1715C132.17 74.0582 132.438 74.0693 132.653 74.201C132.845 74.3171 132.95 74.5377 132.919 74.7612C132.909 74.9473 132.82 75.12 132.675 75.2355C132.416 75.4269 132.114 75.5494 131.796 75.5918H131.779H131.745C131.385 75.6265 131.024 75.6429 130.662 75.6409H130.418C130.201 75.6286 130.001 75.6139 129.83 75.5991H129.657H129.506L129.374 75.6114H129.333C129.113 75.6504 128.903 75.734 128.716 75.8571L128.698 75.8694C128.517 75.988 128.363 76.1458 128.25 76.3313C127.917 76.9016 127.917 77.6088 128.25 78.1791C128.564 78.7275 129.164 79.0449 129.791 78.9948C130.261 78.9732 130.702 78.7593 131.011 78.4027C131.297 78.0561 131.494 77.6445 131.587 77.2036C131.621 77.0636 131.648 76.9235 131.667 76.7908L130.565 76.7662C130.54 76.8842 130.511 77.012 130.477 77.1176C130.424 77.3154 130.333 77.5008 130.208 77.6631C130.088 77.8017 129.916 77.8836 129.733 77.8891C129.51 77.9169 129.293 77.8061 129.184 77.609C129.055 77.3918 129.048 77.1222 129.167 76.8989C129.184 76.8693 129.206 76.842 129.23 76.8178C129.376 76.7054 129.56 76.6559 129.743 76.6802C129.952 76.6802 130.155 76.6802 130.355 76.6802C130.433 76.6802 130.508 76.6802 130.584 76.6802L131.701 76.7048C132.309 76.6558 132.891 76.4343 133.38 76.066C133.742 75.7579 133.963 75.314 133.992 74.8374C134.054 74.2062 133.751 73.5951 133.211 73.2673" fill="white"/>
<path fill-rule="evenodd" clip-rule="evenodd" d="M78.207 103C72.0668 103.019 66.0962 100.971 61.2441 97.1799L61.3952 96.9851C66.2042 100.742 72.1218 102.77 78.207 102.749C93.2055 102.446 105.207 90.1103 105.207 74.9978C105.207 59.8853 93.2055 47.5499 78.207 47.2465C70.6212 47.216 63.3648 50.3666 58.1778 55.9429L58 55.775C63.2324 50.1481 70.5535 46.9689 78.207 47.0002C93.5567 47.0002 106 59.5357 106 74.9989C106 90.4622 93.5567 102.998 78.207 102.998V103Z" fill="#F94F24"/>
<path fill-rule="evenodd" clip-rule="evenodd" d="M40.5607 107C23.7093 107 10 93.186 10 76.2061C9.99928 74.1217 10.2068 72.0425 10.6195 70L10.861 70.0496C10.451 72.0757 10.2449 74.1383 10.246 76.2061C10.246 93.0486 23.8435 106.752 40.5607 106.752C47.166 106.773 53.594 104.599 58.8502 100.568L59 100.767C53.7007 104.83 47.22 107.021 40.5607 107Z" fill="#F94F24"/>
<path fill-rule="evenodd" clip-rule="evenodd" d="M133.597 88.9985H132.505C132.365 89.0131 132.231 88.9214 132.158 88.7611C132.084 88.6009 132.084 88.3991 132.158 88.2389C132.231 88.0786 132.365 87.9869 132.505 88.0015H133.597C133.737 87.9869 133.872 88.0786 133.945 88.2389C134.018 88.3991 134.018 88.6009 133.945 88.7611C133.872 88.9214 133.737 89.0131 133.597 88.9985ZM129.914 88.9985H128.36C128.22 89.0131 128.086 88.9214 128.012 88.7611C127.939 88.6009 127.939 88.3991 128.012 88.2389C128.086 88.0786 128.22 87.9869 128.36 88.0015H129.914C130.108 88.0218 130.259 88.2389 130.259 88.5C130.259 88.7611 130.108 88.9782 129.914 88.9985ZM125.769 88.9985H124.215C124.075 89.0131 123.941 88.9214 123.867 88.7611C123.794 88.6009 123.794 88.3991 123.867 88.2389C123.941 88.0786 124.075 87.9869 124.215 88.0015H125.769C125.963 88.0218 126.113 88.2389 126.113 88.5C126.113 88.7611 125.963 88.9782 125.769 88.9985ZM121.624 88.9985H120.07C119.93 89.0131 119.796 88.9214 119.722 88.7611C119.649 88.6009 119.649 88.3991 119.722 88.2389C119.796 88.0786 119.93 87.9869 120.07 88.0015H121.624C121.818 88.0218 121.968 88.2389 121.968 88.5C121.968 88.7611 121.818 88.9782 121.624 88.9985ZM117.479 88.9985H115.925C115.785 89.0131 115.651 88.9214 115.577 88.7611C115.504 88.6009 115.504 88.3991 115.577 88.2389C115.651 88.0786 115.785 87.9869 115.925 88.0015H117.488C117.628 87.9869 117.762 88.0786 117.835 88.2389C117.909 88.3991 117.909 88.6009 117.835 88.7611C117.762 88.9214 117.628 89.0131 117.488 88.9985H117.479ZM113.334 88.9985H111.78C111.585 88.9782 111.435 88.7611 111.435 88.5C111.435 88.2389 111.585 88.0218 111.78 88.0015H113.334C113.474 87.9869 113.608 88.0786 113.681 88.2389C113.755 88.3991 113.755 88.6009 113.681 88.7611C113.608 88.9214 113.474 89.0131 113.334 88.9985ZM109.188 88.9985H107.635C107.44 88.9782 107.29 88.7611 107.29 88.5C107.29 88.2389 107.44 88.0218 107.635 88.0015H109.188C109.328 87.9869 109.463 88.0786 109.536 88.2389C109.61 88.3991 109.61 88.6009 109.536 88.7611C109.463 88.9214 109.328 89.0131 109.188 88.9985ZM105.043 88.9985H103.49C103.295 88.9782 103.145 88.7611 103.145 88.5C103.145 88.2389 103.295 88.0218 103.49 88.0015H105.043C105.183 87.9869 105.318 88.0786 105.391 88.2389C105.464 88.3991 105.464 88.6009 105.391 88.7611C105.318 88.9214 105.183 89.0131 105.043 88.9985ZM100.898 88.9985H99.3448C99.1502 88.9782 99 88.7611 99 88.5C99 88.2389 99.1502 88.0218 99.3448 88.0015H100.898C101.038 87.9869 101.173 88.0786 101.246 88.2389C101.319 88.3991 101.319 88.6009 101.246 88.7611C101.173 88.9214 101.038 89.0131 100.898 88.9985Z" fill="#F94F24"/>
<defs>
<linearGradient id="paint0_linear" x1="17.9932" y1="97.0016" x2="63.0048" y2="97.0016" gradientUnits="userSpaceOnUse">
<stop stop-color="#8033EB"/>
<stop offset="1" stop-color="#6731CE"/>
</linearGradient>
<linearGradient id="paint1_linear" x1="34.0041" y1="79.0004" x2="37.0038" y2="79.0004" gradientUnits="userSpaceOnUse">
<stop stop-color="#8033EB"/>
<stop offset="1" stop-color="#6731CE"/>
</linearGradient>
<linearGradient id="paint2_linear" x1="43.9992" y1="79.0016" x2="47" y2="79.0016" gradientUnits="userSpaceOnUse">
<stop stop-color="#8033EB"/>
<stop offset="1" stop-color="#6731CE"/>
</linearGradient>
<linearGradient id="paint3_linear" x1="39.0153" y1="78.9959" x2="41.999" y2="78.9959" gradientUnits="userSpaceOnUse">
<stop stop-color="#8033EB"/>
<stop offset="1" stop-color="#6731CE"/>
</linearGradient>
<linearGradient id="paint4_linear" x1="113.468" y1="115.901" x2="121.778" y2="72.4196" gradientUnits="userSpaceOnUse">
<stop stop-color="#8033EB"/>
<stop offset="1" stop-color="#F94F24"/>
</linearGradient>
<linearGradient id="paint5_linear" x1="99" y1="80.9802" x2="145.872" y2="80.9802" gradientUnits="userSpaceOnUse">
<stop stop-color="white"/>
<stop offset="1" stop-color="#F94F24"/>
</linearGradient>
</defs>
</svg>
