<svg width="141" height="145" viewBox="0 0 141 145" fill="none" xmlns="http://www.w3.org/2000/svg">
<path fill-rule="evenodd" clip-rule="evenodd" d="M129.924 114.208L79.9308 142.842C75.1994 145.551 69.3706 145.551 64.6393 142.842L14.6455 114.208C9.91424 111.498 6.99988 106.491 6.99988 101.071L6.99988 43.8036C6.99988 38.3842 9.91424 33.3763 14.6455 30.667L64.6393 2.0331C69.3706 -0.67705 75.1994 -0.67705 79.9308 2.0331L129.924 30.667C134.655 33.3763 137.569 38.3842 137.569 43.8036V101.071C137.569 106.491 134.655 111.498 129.924 114.208Z" fill="white"/>
<ellipse cx="28.2211" cy="41.2606" rx="20.2924" ry="20.3251" transform="rotate(-80.78 28.2211 41.2606)" stroke="#EAEAEA" stroke-width="5"/>
<ellipse cx="28.2145" cy="41.2559" rx="26.8062" ry="26.8517" transform="rotate(-89.27 28.2145 41.2559)" stroke="#F94F24" stroke-linecap="round" stroke-dasharray="4.88 4.91"/>
<path fill-rule="evenodd" clip-rule="evenodd" d="M134 41.4972C134.001 49.789 129.007 57.2649 121.346 60.4385C113.686 63.6121 104.868 61.8584 99.0048 55.9952C93.1416 50.132 91.3879 41.3141 94.5615 33.6536C97.7351 25.9932 105.211 20.999 113.503 21C118.939 21 124.153 23.1595 127.997 27.0035C131.84 30.8475 134 36.061 134 41.4972Z" stroke="#EAEAEA" stroke-width="5"/>
<ellipse cx="113.373" cy="41.2554" rx="26.8061" ry="26.8517" transform="rotate(-89.27 113.373 41.2554)" stroke="#F94F24" stroke-linecap="round" stroke-dasharray="4.88 4.91"/>
<path fill-rule="evenodd" clip-rule="evenodd" d="M49 100.5C49 108.791 44.0051 116.266 36.3446 119.439C28.6841 122.612 19.8666 120.858 14.0039 114.994C8.14126 109.131 6.38801 100.313 9.56177 92.6531C12.7355 84.9929 20.2112 79.999 28.5028 80C33.9394 80 39.1534 82.1599 42.9974 86.0044C46.8414 89.8489 49.0007 95.0631 49 100.5Z" stroke="#EAEAEA" stroke-width="5"/>
<ellipse cx="28.2146" cy="100.64" rx="26.8062" ry="26.8517" transform="rotate(-89.27 28.2146 100.64)" stroke="#F94F24" stroke-linecap="round" stroke-dasharray="4.88 4.91"/>
<path fill-rule="evenodd" clip-rule="evenodd" d="M134 100.5C134 108.791 129.005 116.266 121.345 119.439C113.684 122.612 104.867 120.858 99.0039 114.994C93.1413 109.131 91.388 100.313 94.5618 92.6531C97.7355 84.9929 105.211 79.999 113.503 80C118.939 80 124.153 82.1599 127.997 86.0044C131.841 89.8489 134.001 95.0631 134 100.5Z" stroke="#EAEAEA" stroke-width="5"/>
<path d="M86 111.366C75.9803 115 64.9258 114.87 55 111" stroke="#F94F24" stroke-linecap="round" stroke-dasharray="4.88 4.91"/>
<path d="M56 32C65.632 28.1378 76.2787 28.0004 86 31.6129" stroke="#F94F24" stroke-linecap="round" stroke-dasharray="4.88 4.91"/>
<path fill-rule="evenodd" clip-rule="evenodd" d="M71.5027 87C65.6378 87.001 60.3499 83.4689 58.1049 78.0507C55.8598 72.6326 57.0997 66.3956 61.2464 62.2482C65.3932 58.1008 71.63 56.8598 77.0485 59.1039C82.467 61.3481 86 66.6354 86 72.5002C85.9918 80.5039 79.5063 86.9905 71.5027 87Z" fill="url(#paint0_linear)"/>
<path fill-rule="evenodd" clip-rule="evenodd" d="M71.0027 57.9867C76.6707 57.9867 81.7805 61.4011 83.9494 66.6378C86.1182 71.8744 84.9188 77.9019 80.9106 81.9094C76.9023 85.9169 70.8747 87.1152 65.6384 84.9455C60.4021 82.7758 56.9886 77.6653 56.9896 71.9973C56.9896 68.281 58.466 64.717 61.0941 62.0894C63.7221 59.4618 67.2864 57.986 71.0027 57.9867ZM71.0027 57C64.9354 56.999 59.465 60.6532 57.1427 66.2585C54.8204 71.8637 56.1035 78.316 60.3938 82.6062C64.684 86.8965 71.1363 88.1796 76.7415 85.8573C82.3468 83.535 86.001 78.0646 86 71.9973C85.9891 63.719 79.281 57.0109 71.0027 57Z" fill="#E5E5E5"/>
<ellipse cx="71.3804" cy="72.0855" rx="16.3824" ry="16.3602" transform="rotate(-18.43 71.3804 72.0855)" stroke="#F94F24" stroke-linecap="round" stroke-dasharray="3.04 3.06"/>
<path d="M57 81L51 85" stroke="#F94F24" stroke-width="1.40252" stroke-linecap="round" stroke-dasharray="4.88 4.91"/>
<path d="M93 58L86 62" stroke="#F94F24" stroke-width="1.40252" stroke-linecap="round" stroke-dasharray="4.88 4.91"/>
<path d="M86 81L92 85" stroke="#F94F24" stroke-width="1.40252" stroke-linecap="round" stroke-dasharray="4.88 4.91"/>
<path d="M51 58L57 62" stroke="#F94F24" stroke-width="1.40252" stroke-linecap="round" stroke-dasharray="4.88 4.91"/>
<g style="mix-blend-mode:multiply">
<ellipse cx="28.1773" cy="44.058" rx="18.3004" ry="18.3299" transform="rotate(-80.78 28.1773 44.058)" fill="#E5E5E5"/>
</g>
<ellipse cx="28.1757" cy="41.4936" rx="18.3004" ry="18.3299" transform="rotate(-80.78 28.1757 41.4936)" fill="white" stroke="#F94F24" stroke-linecap="round" stroke-dasharray="2.47 3"/>
<g style="mix-blend-mode:multiply">
<ellipse cx="112.903" cy="44.058" rx="18.3004" ry="18.3299" transform="rotate(-80.78 112.903 44.058)" fill="#E5E5E5"/>
</g>
<ellipse cx="112.904" cy="41.4936" rx="18.3004" ry="18.3299" transform="rotate(-80.78 112.904 41.4936)" fill="white" stroke="#F94F24" stroke-linecap="round" stroke-dasharray="2.47 3"/>
<g style="mix-blend-mode:multiply">
<ellipse cx="112.903" cy="102.93" rx="18.3004" ry="18.3299" transform="rotate(-80.78 112.903 102.93)" fill="#E5E5E5"/>
</g>
<ellipse cx="112.904" cy="100.366" rx="18.3004" ry="18.3299" transform="rotate(-80.78 112.904 100.366)" fill="white" stroke="#F94F24" stroke-linecap="round" stroke-dasharray="2.47 3"/>
<g style="mix-blend-mode:multiply">
<ellipse cx="28.1742" cy="102.93" rx="18.3004" ry="18.3299" transform="rotate(-80.78 28.1742 102.93)" fill="#E5E5E5"/>
</g>
<ellipse cx="28.1751" cy="100.366" rx="18.3004" ry="18.3299" transform="rotate(-80.78 28.1751 100.366)" fill="white" stroke="#F94F24" stroke-linecap="round" stroke-dasharray="2.47 3"/>
<path fill-rule="evenodd" clip-rule="evenodd" d="M43 41.5069C42.95 41.6303 42.8581 41.7297 42.7422 41.7858C42.282 42.0596 41.8243 42.341 41.3689 42.6224C41.3138 42.6694 41.2381 42.6792 41.1738 42.6477C41.1015 42.6046 41.0967 42.5311 41.0967 42.4551C41.0967 42.0444 41.0967 41.6336 41.0967 41.2229C41.104 41.1275 41.054 41.0374 40.9714 40.9973C40.5184 40.737 40.0671 40.4734 39.6174 40.2063C39.5486 40.162 39.4621 40.162 39.3933 40.2063L38.02 41.0024C37.9476 41.0415 37.904 41.1222 37.9092 41.2077V42.7796C37.9042 42.8725 37.954 42.9591 38.0345 42.9976L40.5715 44.4553L41.0894 44.7545C41.1652 44.7851 41.2151 44.8618 41.2147 44.9472C41.2109 45.0293 41.162 45.1016 41.0894 45.1322L39.7017 45.941C39.5763 46.0197 39.42 46.0197 39.2945 45.941L37.0395 44.6277C36.7744 44.4731 36.5094 44.3159 36.242 44.1638C36.0886 44.0926 35.9928 43.9293 36.0011 43.7531C36.0011 42.5852 36.0011 41.4165 36.0011 40.2469C35.9887 40.0658 36.0849 39.8959 36.242 39.821C37.2442 39.2396 38.2449 38.6565 39.2439 38.0717C39.3917 37.9761 39.578 37.9761 39.7258 38.0717C40.7393 38.6649 41.7536 39.2565 42.7687 39.8463C42.8701 39.9104 42.9456 40.0114 42.9807 40.1303L43 41.5069Z" fill="#36464E"/>
<path fill-rule="evenodd" clip-rule="evenodd" d="M12.0072 40.0287C12.0548 39.8863 12.1611 39.771 12.2993 39.7123C13.2952 39.1633 14.2896 38.6134 15.2824 38.0627C15.4186 37.9791 15.5902 37.9791 15.7264 38.0627L18.7747 39.7534C18.921 39.8246 19.0097 39.9774 18.9992 40.1398C18.9992 41.6872 18.9992 43.2346 18.9992 44.782C18.9992 44.9897 18.9002 45.0452 18.7216 44.9414C18.2389 44.6661 17.7731 44.3883 17.2952 44.1154C17.1676 44.0505 17.0915 43.9152 17.1021 43.7724C17.1021 42.886 17.1021 41.9972 17.1021 41.1156C17.1119 41.0026 17.0489 40.8959 16.9453 40.8499C16.5205 40.6084 16.1005 40.3862 15.6806 40.1471C15.5763 40.0768 15.4398 40.0768 15.3355 40.1471C14.901 40.3886 14.4594 40.6301 14.0201 40.8717C13.9449 40.9103 13.9002 40.9902 13.9067 41.0745C13.9067 41.9754 13.9067 42.8763 13.9067 43.7772C13.9145 43.9207 13.8369 44.0553 13.7088 44.1202C13.2261 44.3931 12.7603 44.6709 12.2848 44.9462C12.14 45.0308 12.0941 45.0187 12 44.8883L12.0072 40.0287Z" fill="#36464E"/>
<path fill-rule="evenodd" clip-rule="evenodd" d="M34.1048 38.2393V33.188C34.1048 33.0274 34.2136 32.9482 34.3465 33.0369C34.5882 33.164 34.8298 33.2959 35.0546 33.4277C35.2793 33.5596 35.5597 33.7082 35.8134 33.8449C35.9336 33.904 36.0067 34.0284 35.9995 34.1613V42.8998C36.005 43.0455 35.9236 43.1807 35.7917 43.245L32.7055 44.9423C32.5743 45.0192 32.4114 45.0192 32.2802 44.9423L30.1777 43.7868L29.2279 43.2642C29.0833 43.1973 28.9936 43.0506 29.0007 42.8926C29.0007 41.7738 29.0007 40.655 29.0007 39.5362C28.9911 39.3783 29.0791 39.2303 29.2231 39.1623L32.2778 37.4841C32.4138 37.4026 32.584 37.4026 32.72 37.4841C33.1502 37.7238 33.5828 37.9636 34.013 38.2033L34.1048 38.2393ZM34.1048 41.212C34.1048 40.9723 34.1048 40.7182 34.1048 40.4712C34.1117 40.3849 34.0634 40.3034 33.984 40.2674C33.5361 40.0229 33.0914 39.7776 32.6499 39.5314C32.5654 39.4773 32.4566 39.4773 32.372 39.5314C31.9274 39.7712 31.4778 40.0253 31.0283 40.2674C30.9465 40.3075 30.8977 40.393 30.9051 40.4832C30.9051 40.9627 30.9051 41.4422 30.9051 41.9216C30.8958 42.023 30.952 42.1191 31.0453 42.1614C31.4972 42.4011 31.9467 42.6528 32.3986 42.9022C32.4647 42.9418 32.5476 42.9418 32.6137 42.9022L33.9912 42.147C34.064 42.1113 34.1079 42.0356 34.1024 41.9552C34.1024 41.7107 34.1048 41.4589 34.1048 41.212Z" fill="#36464E"/>
<path fill-rule="evenodd" clip-rule="evenodd" d="M20.0018 42.0121C20.0018 41.442 20.0018 40.8719 20.0018 40.2993C19.9847 40.0988 20.0889 39.9085 20.2626 39.823C21.2817 39.2402 22.2936 38.6448 23.3103 38.0494C23.4519 37.9732 23.6222 37.9859 23.7522 38.0824L26.3362 39.5823C26.4738 39.6634 26.6115 39.7444 26.754 39.8356C26.9185 39.9063 27.0174 40.0838 26.9954 40.2689C26.9785 40.5223 26.9954 40.7756 26.9954 41.029V43.6741C27.0015 43.7509 27.0015 43.828 26.9954 43.9047C26.9701 44.0174 26.8959 44.1112 26.795 44.1581L24.525 45.4781C24.269 45.6276 24.0106 45.7695 23.7595 45.9266C23.612 46.0245 23.4239 46.0245 23.2765 45.9266L21.4701 44.8751C21.0789 44.6471 20.6901 44.414 20.294 44.1935C20.1142 44.1124 20.0042 43.9193 20.0212 43.7147C20.0115 43.1471 20.0018 42.5796 20.0018 42.0121Z" fill="#4BAE4F"/>
<path fill-rule="evenodd" clip-rule="evenodd" d="M39.9832 41.4981C40.0431 41.6947 39.9378 41.8127 39.7477 41.8776C39.7276 41.8859 39.7083 41.8957 39.6899 41.9071C39.4441 42.0329 39.5329 42.029 39.2912 41.9071C39.2112 41.8683 39.1333 41.8256 39.0578 41.7793C39.0264 41.7588 39.0054 41.7267 39 41.6908C39 41.5597 39 41.4286 39 41.2975C39.0056 41.2606 39.0274 41.2278 39.0599 41.207C39.1818 41.1363 39.3098 41.0694 39.4379 41.0104C39.4729 40.9965 39.5123 40.9965 39.5474 41.0104C39.6734 41.0714 39.7932 41.1402 39.9192 41.207C39.963 41.2237 39.9894 41.2667 39.9832 41.3113C39.9708 41.3683 39.9832 41.4332 39.9832 41.4981Z" fill="#4BAE4F"/>
<path fill-rule="evenodd" clip-rule="evenodd" d="M26.9511 44C26.9731 43.9703 26.988 43.9367 26.9948 43.9012C27.0017 43.8245 27.0017 43.7475 26.9948 43.6708V41.0268C26.9948 40.7736 26.9812 40.5203 26.9948 40.267C27.0197 40.0821 26.9076 39.9046 26.7212 39.834C26.5598 39.7555 26.4038 39.6744 26.2479 39.5807L23.3201 38.0815C23.2251 38.0244 23.1132 37.9961 23 38.0004L26.9511 44Z" fill="#2E7D32"/>
<path fill-rule="evenodd" clip-rule="evenodd" d="M20.1019 40C20.0288 40.0952 19.9935 40.2113 20.0019 40.3282C20.0019 40.8988 20.0019 41.4668 20.0019 42.0348C20.0019 42.6029 20.0019 43.1659 20.0019 43.7314C19.9829 43.9353 20.106 44.1277 20.3072 44.2085C20.7502 44.4282 21.1851 44.6605 21.6228 44.8877L23.6434 45.9354C23.7511 45.9937 23.8779 46.0134 24 45.9909L20.1019 40Z" fill="#2E7D32"/>
<path fill-rule="evenodd" clip-rule="evenodd" d="M20.0797 43.7862L21 41.8945L20.0797 40L20.0021 40.2138L20 44" fill="#378D3B"/>
<path fill-rule="evenodd" clip-rule="evenodd" d="M26.9203 40.207L26 42.0388L26.9727 44L26.9979 43.6662L27 40" fill="#378D3B"/>
<path fill-rule="evenodd" clip-rule="evenodd" d="M105 36.7488L113.5 32L122 36.7488V46.2488L113.5 51L105 46.2488V36.7488Z" fill="#8ED5FA"/>
<path fill-rule="evenodd" clip-rule="evenodd" d="M113.001 52L104 46.75V36.25L113.001 31L122 36.25V46.75L113.001 52ZM105.085 46.1169L113.001 50.7339L120.918 46.1169V36.8805L113.001 32.2636L105.085 36.8805V46.1169Z" fill="white"/>
<path fill-rule="evenodd" clip-rule="evenodd" d="M108 38.75L113 36L118 38.75V44.25L113 47L108 44.25V38.75Z" fill="#1C78C0"/>
<path fill-rule="evenodd" clip-rule="evenodd" d="M113.001 47L108 44.0019V37.9981L113.001 35L118 37.9981V43.9942L113.001 47ZM108.571 43.6594L113.001 46.315L117.431 43.6594V38.3406L113.001 35.685L108.571 38.3406V43.6594Z" fill="white"/>
<path fill-rule="evenodd" clip-rule="evenodd" d="M113.501 42L105 37.4572L105.291 37L113.501 41.385L121.712 37L122 37.4572L113.501 42Z" fill="white"/>
<rect x="113" y="32" width="1" height="4" fill="white"/>
<rect x="113" y="41" width="1" height="10" fill="white"/>
<path fill-rule="evenodd" clip-rule="evenodd" d="M104.88 46.0287L108.476 43.9517L108.765 44.4504L105.169 46.5274L104.88 46.0287Z" fill="white"/>
<path fill-rule="evenodd" clip-rule="evenodd" d="M118.009 44.4489L118.298 43.9501L121.895 46.0271L121.606 46.5259L118.009 44.4489Z" fill="white"/>
<ellipse cx="113.375" cy="100.639" rx="26.8062" ry="26.8517" transform="rotate(-89.27 113.375 100.639)" stroke="#F94F24" stroke-linecap="round" stroke-dasharray="4.88 4.91"/>
<path fill-rule="evenodd" clip-rule="evenodd" d="M105.848 96.0049L105.933 96.0198C106.216 96.0725 106.459 96.2544 106.595 96.5137C106.705 96.7108 106.779 96.9267 106.814 97.1508C106.863 97.4543 106.876 97.7628 106.853 98.0695C106.831 98.4142 106.78 98.7562 106.701 99.0919C106.699 99.1075 106.699 99.1232 106.701 99.1388L106.761 99.1586C107.157 99.2745 107.539 99.4335 107.901 99.6327C108.156 99.7711 108.391 99.9457 108.599 100.151C108.703 100.256 108.793 100.374 108.867 100.502C109.044 100.806 109.044 101.186 108.867 101.49C108.758 101.678 108.618 101.846 108.451 101.984C108.171 102.223 107.859 102.42 107.524 102.569C107.281 102.679 107.032 102.774 106.778 102.853L106.718 102.873C106.732 102.932 106.744 102.989 106.756 103.046C106.845 103.445 106.89 103.853 106.889 104.263C106.889 104.561 106.846 104.857 106.761 105.142C106.703 105.334 106.608 105.513 106.481 105.666C106.335 105.837 106.134 105.949 105.914 105.979L105.807 105.999H105.667H105.617L105.421 105.967C105.174 105.912 104.937 105.821 104.716 105.695C104.331 105.479 103.975 105.214 103.656 104.905L103.526 104.782L103.484 104.819C103.241 105.059 102.977 105.275 102.695 105.466C102.413 105.664 102.104 105.817 101.777 105.92C101.56 105.992 101.33 106.016 101.104 105.989C100.859 105.957 100.636 105.828 100.483 105.629C100.354 105.454 100.262 105.253 100.215 105.039C100.132 104.666 100.11 104.282 100.15 103.903C100.176 103.587 100.228 103.274 100.304 102.967V102.91C100.289 102.903 100.273 102.897 100.256 102.893C100.04 102.829 99.8278 102.751 99.6211 102.66C99.2821 102.52 98.9629 102.334 98.6721 102.107C98.4737 101.957 98.3043 101.77 98.1723 101.556C97.9426 101.218 97.9426 100.769 98.1723 100.43C98.2542 100.299 98.3524 100.18 98.4644 100.075C98.6985 99.8595 98.961 99.6791 99.2444 99.5389C99.5727 99.3725 99.9154 99.2377 100.268 99.1363L100.309 99.119C100.311 99.1076 100.311 99.0959 100.309 99.0845C100.228 98.7537 100.173 98.4167 100.145 98.0769C100.116 97.7472 100.13 97.415 100.186 97.0891C100.221 96.8852 100.291 96.6894 100.394 96.5112C100.518 96.2817 100.729 96.1153 100.978 96.0519C101.187 96.0025 101.404 96.0025 101.613 96.0519C101.877 96.1176 102.131 96.2216 102.367 96.3606C102.767 96.5929 103.137 96.8758 103.468 97.2027L103.506 97.2372L103.707 97.0496C104.025 96.7477 104.381 96.4895 104.764 96.2815C105.001 96.1522 105.256 96.0622 105.52 96.0148L105.614 96L105.848 96.0049ZM103.518 102.826L104.455 102.784C104.49 102.786 104.522 102.766 104.537 102.734C104.885 102.195 105.201 101.634 105.484 101.055C105.503 101.021 105.503 100.978 105.484 100.944C105.39 100.769 105.303 100.588 105.209 100.413C105.003 100.025 104.779 99.65 104.54 99.282C104.522 99.2498 104.489 99.23 104.453 99.2302C104.31 99.2302 104.17 99.2129 104.028 99.2079C103.535 99.1857 103.042 99.1931 102.55 99.2302C102.517 99.2306 102.487 99.2484 102.47 99.2771C102.117 99.8157 101.8 100.378 101.521 100.961C101.505 100.99 101.505 101.026 101.521 101.055C101.804 101.641 102.127 102.205 102.487 102.744C102.503 102.771 102.531 102.788 102.562 102.789C102.876 102.799 103.212 102.813 103.518 102.826ZM100.444 99.5957H100.43L100.319 99.6278C99.9663 99.7322 99.6262 99.8763 99.3047 100.057C99.0953 100.172 98.9033 100.316 98.7349 100.487C98.6415 100.58 98.5661 100.689 98.5127 100.811C98.4668 100.926 98.4668 101.056 98.5127 101.171C98.5529 101.27 98.6074 101.363 98.6745 101.445C98.8144 101.61 98.9771 101.752 99.1574 101.868C99.5357 102.115 99.9474 102.303 100.379 102.428L100.447 102.448C100.447 102.431 100.461 102.416 100.466 102.401C100.604 101.948 100.771 101.505 100.966 101.075C100.987 101.035 100.987 100.987 100.966 100.947C100.777 100.524 100.616 100.089 100.483 99.6451C100.457 99.6253 100.449 99.6105 100.444 99.5957ZM103.19 104.441L102.912 104.117C102.688 103.851 102.478 103.574 102.277 103.288C102.261 103.261 102.233 103.244 102.202 103.243L101.801 103.201C101.504 103.167 101.21 103.122 100.918 103.06L100.768 103.031C100.768 103.051 100.768 103.063 100.768 103.075C100.683 103.42 100.631 103.772 100.613 104.127C100.597 104.393 100.618 104.66 100.676 104.92C100.706 105.06 100.761 105.192 100.84 105.31C100.918 105.425 101.04 105.5 101.176 105.515C101.27 105.53 101.365 105.53 101.459 105.515C101.645 105.482 101.825 105.422 101.995 105.337C102.367 105.152 102.711 104.912 103.016 104.626C103.067 104.559 103.127 104.498 103.19 104.441ZM106.254 103.016L106.109 103.046C105.692 103.136 105.269 103.202 104.844 103.241C104.797 103.241 104.753 103.266 104.728 103.307C104.47 103.691 104.189 104.057 103.885 104.404C103.873 104.417 103.862 104.431 103.852 104.446L103.88 104.478C104.058 104.655 104.247 104.82 104.446 104.972C104.682 105.156 104.941 105.308 105.216 105.424C105.386 105.498 105.569 105.537 105.754 105.54C105.929 105.542 106.092 105.448 106.179 105.293C106.237 105.201 106.283 105.101 106.314 104.997C106.383 104.756 106.416 104.506 106.413 104.256C106.412 103.859 106.364 103.463 106.271 103.078C106.266 103.048 106.261 103.031 106.254 103.016ZM103.18 97.583C103.166 97.5726 103.152 97.561 103.139 97.5484C102.939 97.3551 102.725 97.1769 102.499 97.015C102.255 96.835 101.988 96.6897 101.705 96.5828C101.557 96.5274 101.401 96.4974 101.244 96.4939C101.05 96.4842 100.869 96.5941 100.785 96.773C100.745 96.8521 100.713 96.9347 100.688 97.0199C100.625 97.2495 100.595 97.4876 100.601 97.7262C100.606 98.1114 100.652 98.4948 100.739 98.8696C100.739 98.9165 100.763 98.9659 100.773 99.0104C100.99 98.9684 101.198 98.9239 101.408 98.8894C101.664 98.8499 101.92 98.8202 102.176 98.7881C102.216 98.7868 102.253 98.7656 102.275 98.7313C102.495 98.4144 102.731 98.1094 102.982 97.8176L103.18 97.583ZM106.232 99.0104C106.232 98.9783 106.249 98.9536 106.254 98.9264C106.328 98.6018 106.374 98.2713 106.392 97.9386C106.409 97.6552 106.386 97.3707 106.324 97.094C106.293 96.9421 106.231 96.7984 106.143 96.6717C106.078 96.5784 105.98 96.5139 105.87 96.4914C105.751 96.4704 105.63 96.4755 105.513 96.5063C105.302 96.557 105.1 96.6403 104.914 96.7532C104.527 96.9751 104.172 97.2492 103.856 97.5682L103.839 97.5929L103.864 97.6225C104.016 97.8028 104.17 97.9806 104.318 98.1658C104.465 98.351 104.598 98.5461 104.738 98.7363C104.754 98.765 104.785 98.7828 104.817 98.7832L105.02 98.8054C105.359 98.8425 105.696 98.8969 106.03 98.9684L106.232 99.0104ZM106.585 102.418H106.616C106.997 102.306 107.363 102.148 107.708 101.949C107.914 101.83 108.104 101.683 108.273 101.512C108.362 101.42 108.434 101.312 108.485 101.193C108.542 101.072 108.542 100.93 108.485 100.808C108.44 100.708 108.379 100.617 108.304 100.539C108.157 100.377 107.987 100.238 107.799 100.127C107.454 99.9158 107.084 99.7499 106.698 99.6327L106.563 99.5907L106.546 99.6352C106.408 100.081 106.241 100.518 106.046 100.942C106.031 100.973 106.031 101.011 106.046 101.043C106.247 101.471 106.42 101.911 106.566 102.362C106.573 102.384 106.592 102.399 106.592 102.418H106.585ZM105.114 102.72C105.455 102.68 105.794 102.621 106.129 102.542C106.024 102.21 105.902 101.885 105.764 101.566L105.114 102.72ZM101.251 101.574C101.115 101.896 100.997 102.226 100.896 102.562C101.227 102.64 101.562 102.694 101.9 102.722C101.666 102.349 101.454 101.971 101.251 101.574ZM104.149 103.29H102.852C103.062 103.572 103.274 103.836 103.509 104.093C103.738 103.837 103.955 103.569 104.158 103.29H104.149ZM102.845 98.7289C103.282 98.7116 103.707 98.7116 104.144 98.7289C103.942 98.4516 103.726 98.1854 103.497 97.9312C103.27 98.186 103.055 98.4522 102.854 98.7289H102.845ZM105.742 100.433C105.875 100.12 105.991 99.8003 106.09 99.4747C105.764 99.3983 105.434 99.3397 105.102 99.2993C105.332 99.6796 105.544 100.053 105.759 100.433H105.742ZM100.884 99.4697C100.985 99.8031 101.099 100.119 101.232 100.443C101.432 100.048 101.645 99.6722 101.879 99.2968C101.555 99.3388 101.232 99.3956 100.901 99.4697H100.884Z" fill="#00D8FF"/>
<path fill-rule="evenodd" clip-rule="evenodd" d="M112.887 100.971L114 103H113.967H113.428C113.393 103 113.383 102.979 113.367 102.953L112.598 101.494L112.361 101.047C112.352 101.022 112.331 101.007 112.309 101.008C112.05 101.008 111.793 101.008 111.537 101.008H111.509V102.99H111V98.0003H111.041H112.654C112.888 97.9952 113.12 98.0572 113.33 98.1814C113.665 98.3813 113.897 98.7669 113.95 99.2128C113.994 99.4877 113.978 99.7715 113.904 100.037C113.786 100.478 113.486 100.813 113.113 100.921C113.055 100.939 112.996 100.953 112.937 100.963L112.887 100.971ZM111.511 100.47H112.572C112.66 100.472 112.747 100.46 112.833 100.436C113.064 100.376 113.258 100.189 113.357 99.9293C113.426 99.7409 113.448 99.5315 113.417 99.3283C113.384 99.0498 113.241 98.8076 113.035 98.6774C112.894 98.5913 112.738 98.5481 112.58 98.5514H111.552H111.511V100.47Z" fill="#00D8FF"/>
<path fill-rule="evenodd" clip-rule="evenodd" d="M118 101.189H115.535C115.535 101.238 115.535 101.282 115.535 101.324C115.565 101.605 115.661 101.869 115.812 102.081C115.969 102.308 116.189 102.454 116.428 102.489C116.831 102.565 117.24 102.403 117.534 102.051L117.56 102.024L117.781 102.407C117.737 102.456 117.695 102.506 117.651 102.55C117.422 102.775 117.15 102.92 116.862 102.971C116.594 103.025 116.319 103.003 116.059 102.905C115.595 102.739 115.231 102.288 115.096 101.709C114.946 101.173 114.973 100.585 115.169 100.073C115.353 99.5772 115.704 99.2084 116.127 99.065C116.55 98.9216 117.003 99.0182 117.363 99.3289C117.588 99.533 117.758 99.8161 117.852 100.142C117.949 100.466 117.993 100.812 117.98 101.158C117.988 101.168 117.994 101.178 118 101.189ZM115.533 100.745H117.523C117.523 100.566 117.493 100.388 117.434 100.224C117.342 99.9345 117.159 99.7038 116.928 99.5852C116.746 99.4916 116.547 99.4639 116.353 99.5053C116.184 99.5342 116.026 99.6243 115.898 99.7643C115.73 99.9454 115.612 100.187 115.56 100.456C115.54 100.551 115.531 100.649 115.533 100.748V100.745Z" fill="#00D8FF"/>
<path fill-rule="evenodd" clip-rule="evenodd" d="M119.43 100.051L119.169 99.6376C119.177 99.625 119.186 99.613 119.196 99.6017C119.485 99.2821 119.87 99.0775 120.285 99.0223C120.557 98.9828 120.835 98.9958 121.103 99.061C121.241 99.0949 121.374 99.1517 121.496 99.2293C121.753 99.3943 121.927 99.671 121.973 99.9852C121.991 100.09 122 100.196 121.999 100.302C121.999 101.147 121.999 101.994 121.999 102.838C122 102.861 122 102.884 121.999 102.907H121.444V102.482L121.4 102.526C120.984 102.946 120.389 103.101 119.837 102.934C119.529 102.839 119.272 102.613 119.125 102.311C119.019 102.085 118.979 101.83 119.011 101.58C119.049 101.094 119.371 100.686 119.816 100.559C120.251 100.42 120.721 100.473 121.118 100.708C121.224 100.773 121.32 100.853 121.405 100.945C121.405 100.959 121.423 100.976 121.436 100.992C121.449 101.009 121.452 100.97 121.452 100.965C121.452 100.73 121.452 100.493 121.452 100.258C121.447 99.9818 121.289 99.7343 121.048 99.6265C120.858 99.5347 120.649 99.4976 120.441 99.5189C120.07 99.5391 119.723 99.7161 119.477 100.01C119.459 100.02 119.443 100.034 119.43 100.051ZM121.439 101.737V101.519C121.439 101.359 121.439 101.359 121.329 101.243C120.987 100.926 120.513 100.822 120.079 100.967C119.689 101.099 119.472 101.537 119.589 101.952C119.657 102.221 119.856 102.432 120.11 102.504C120.366 102.587 120.64 102.581 120.892 102.487C121.096 102.428 121.277 102.303 121.413 102.132C121.435 102.105 121.447 102.07 121.447 102.035C121.439 101.947 121.439 101.842 121.439 101.74V101.737Z" fill="#00D8FF"/>
<path fill-rule="evenodd" clip-rule="evenodd" d="M126 99.6581L125.646 100.011L125.624 99.9837C125.445 99.7111 125.165 99.5435 124.861 99.5284C124.506 99.4862 124.154 99.6326 123.912 99.923C123.759 100.11 123.655 100.34 123.613 100.588C123.54 100.937 123.563 101.302 123.677 101.637C123.788 101.998 124.045 102.281 124.373 102.401C124.654 102.513 124.964 102.498 125.235 102.36C125.377 102.281 125.502 102.169 125.601 102.031L125.644 101.973L126 102.338C125.926 102.439 125.843 102.532 125.751 102.613C125.553 102.803 125.31 102.927 125.05 102.969C124.759 103.026 124.46 103.004 124.178 102.906C123.733 102.756 123.369 102.398 123.181 101.926C123.038 101.581 122.978 101.201 123.007 100.823C123.023 100.527 123.096 100.239 123.221 99.9782C123.453 99.4741 123.888 99.1232 124.393 99.0344C124.697 98.9714 125.011 98.9952 125.305 99.1034C125.582 99.2059 125.824 99.3993 126 99.6581Z" fill="#00D8FF"/>
<path fill-rule="evenodd" clip-rule="evenodd" d="M126.587 100.257H126V99.838H126.577V99H127.126C127.126 99.0669 127.126 99.136 127.126 99.2073V99.8358C127.204 99.8358 127.283 99.8358 127.359 99.8358H127.832V100.255H127.131C127.13 100.27 127.13 100.285 127.131 100.299V102.176C127.128 102.253 127.145 102.329 127.179 102.399C127.232 102.514 127.365 102.584 127.506 102.571C127.632 102.565 127.753 102.521 127.847 102.446L127.865 102.472L127.986 102.747C128.009 102.802 128.006 102.807 127.956 102.842C127.83 102.926 127.68 102.978 127.523 102.992C127.378 103.008 127.23 103 127.088 102.969C126.834 102.916 126.644 102.731 126.607 102.504C126.589 102.418 126.58 102.33 126.582 102.243C126.582 101.605 126.582 100.97 126.582 100.333L126.587 100.257Z" fill="#00D8FF"/>
<path fill-rule="evenodd" clip-rule="evenodd" d="M104.002 100C104.555 100.001 105.001 100.45 105 101.002C104.999 101.555 104.55 102.001 103.998 102C103.445 101.999 102.999 101.55 103 100.998C103.001 100.732 103.107 100.478 103.295 100.291C103.483 100.104 103.737 99.9993 104.002 100Z" fill="#00D8FF"/>
<path fill-rule="evenodd" clip-rule="evenodd" d="M25.9927 97.3209C25.9927 97.3335 25.9927 97.3538 25.9927 97.3588C25.2742 97.7157 25.4868 98.4902 25.3353 99.08C25.3154 99.256 25.2666 99.4271 25.1912 99.5862C25.1194 99.7204 25.0636 99.8632 25.025 100.011C24.5249 101.591 24.0231 103.17 23.5197 104.75C23.4821 104.877 23.408 104.99 23.3071 105.074C23.4912 104.399 23.6737 103.724 23.8545 103.049L23.7568 103.013C23.6566 103.315 23.5515 103.613 23.4538 103.917C23.334 104.281 23.2363 104.656 23.1019 105.015C23.031 105.138 22.942 105.248 22.838 105.342L22.7207 105.271L24.2162 100.042L24.0989 99.9633C23.5295 100.13 22.9039 100.118 22.5081 100.75C22.0194 101.51 21.4964 102.254 20.9637 102.985C20.7194 103.304 20.4457 103.583 20.1573 103.912C19.9406 103.618 19.9592 103.206 20.2013 102.935C20.668 102.236 21.0981 101.512 21.5429 100.801C21.3908 100.682 21.1982 100.634 21.0104 100.667C20.8226 100.7 20.6563 100.812 20.5508 100.976C20.1713 101.616 19.6545 102.156 19.0406 102.555C18.6398 102.839 18.2684 103.17 17.8579 103.436C17.3524 103.801 16.7904 104.073 16.1962 104.241C15.4916 104.449 14.8023 104.71 14.1338 105.02C14.0532 105.053 14.0068 105.17 13.9481 105.253C13.7797 105.53 13.5758 105.781 13.3421 106L13.7331 105.063L13 105.114C14.4292 102.396 15.6752 99.5791 16.7289 96.683L16.6654 96.5818C16.4064 96.7033 16.1547 96.8349 15.8908 96.9412C15.5194 97.0956 15.2652 97.498 14.7838 97.4626C14.6372 97.4626 14.4735 97.6929 14.366 97.7765L14.0972 97.6752L15.4803 96.6046L15.2945 96.4426C15.6068 96.1854 15.9432 95.9615 16.2989 95.7744C17.3765 95.3415 18.4615 94.9138 19.6613 95.015C20.2094 95.0525 20.7408 95.2261 21.2105 95.5212C21.9436 95.992 22.0291 97.293 21.3474 97.9536C21.0101 98.2776 20.6387 98.5611 20.2844 98.8674C20.194 98.9458 20.1085 99.0369 20.0132 99.1205C20.2192 99.4245 20.4488 99.7107 20.6998 99.976C20.8671 100.07 21.0623 100.096 21.2472 100.049C21.9962 99.9268 22.6616 99.4854 23.0823 98.8319C23.9205 97.66 24.81 96.5312 25.6774 95.3871C25.9902 95.6731 25.9902 95.6731 25.7043 97.2551L26 97.3335L25.9927 97.3209ZM14.7105 103.788L14.7985 103.879C15.0429 103.778 15.3068 103.687 15.5511 103.568C16.749 103.02 17.8636 102.294 18.8598 101.414C19.0661 101.214 19.238 100.98 19.368 100.72C19.5342 100.391 19.4511 100.186 19.0968 100.125C18.7441 100.076 18.3866 100.076 18.0338 100.125C17.8149 100.176 17.6025 100.254 17.4009 100.356C16.9709 100.515 16.443 100.571 16.1327 100.862C15.8224 101.153 15.666 101.73 15.4509 102.178C15.1992 102.725 14.9573 103.256 14.7105 103.788ZM18.591 96.0983L18.5617 96.0022C18.4077 96.0958 18.1682 96.149 18.1071 96.2882C17.6868 97.2323 17.2983 98.1916 16.9098 99.1508C16.8316 99.3407 16.9098 99.4925 17.1199 99.404C17.7308 99.1508 18.3979 98.9762 18.9209 98.5915C19.566 98.1207 20.0987 97.4778 20.6583 96.8906C20.7418 96.8142 20.7814 96.6987 20.763 96.5849C20.7446 96.4711 20.6708 96.3752 20.5679 96.3312C20.2274 96.1787 19.8679 96.0764 19.5 96.0275C19.1955 96.0211 18.8911 96.0448 18.591 96.0983ZM14.2242 104.6L14.278 104.714C14.6934 104.828 17.7577 103.299 18.0412 102.793C17.8383 102.912 17.6844 103.011 17.5207 103.094C16.8536 103.444 16.2622 103.985 15.4583 104.011C15.3696 104.012 15.2863 104.055 15.231 104.127C15.0893 104.418 14.8425 104.393 14.5932 104.418C14.4615 104.455 14.3368 104.515 14.2242 104.595V104.6ZM23.6492 99.3685C24.4434 99.3685 24.7147 98.6674 24.6511 97.8321L23.6492 99.3685ZM20.3699 95.5162L21.257 95.8883C21.2716 95.8503 21.2838 95.8098 21.2985 95.7718C21.081 95.4276 20.7242 95.4706 20.3699 95.5111V95.5162Z" fill="#F7D100"/>
<path fill-rule="evenodd" clip-rule="evenodd" d="M35.9935 98.5043L35.5132 98.5631L35.9109 98.9205C35.2937 98.9996 34.7515 99.0609 34.2117 99.1401C33.7469 99.209 33.2847 99.2958 32.8225 99.3954C32.7193 99.4107 32.6265 99.4658 32.5642 99.5486C32.2311 100.248 31.9161 100.953 31.552 101.752L35.286 101.52V101.571L34.4054 101.826V101.88L35.8386 101.811C35.725 101.928 35.6811 102.015 35.6165 102.035C34.8148 102.288 33.985 102.445 33.1453 102.5C32.6065 102.526 32.0695 102.579 31.5365 102.661C31.3433 102.715 31.1583 102.795 30.9864 102.898C30.8031 102.594 30.8315 103.082 30.7489 102.988L30.1446 102.64L30 102.232L30.0697 102.291C30.266 101.946 30.4855 101.614 30.6533 101.257C31.3419 99.8064 32.0125 98.3511 32.6649 96.8908C32.7321 96.7427 32.7218 96.564 32.7786 96.5103C32.9283 96.255 33.0807 96.0227 33.246 95.7572L33.0549 95.6448C33.0549 95.6116 33.0549 95.5759 33.0549 95.5401C35.0329 95.3333 36.9877 94.8048 39.0252 95.0755L38.4958 95.9078L38.6972 96.0737L38.8444 95.6959C38.9994 96.8959 38.408 97.8686 38.0362 98.8899C37.7779 99.6098 37.4035 100.292 37.0859 100.994C37.0182 101.131 36.962 101.274 36.918 101.42C36.8509 101.675 37.0497 101.675 37.2021 101.657C37.8967 101.599 38.5888 101.53 39.2834 101.453C39.9781 101.377 40.6804 101.28 41.3932 101.267L39.9858 101.458L40.0013 101.601L42 101.44C41.9276 101.486 41.8526 101.528 41.7753 101.566C41.7159 101.586 41.6488 101.589 41.4861 101.619L41.9484 101.68L41.9638 101.785C41.6075 101.859 41.2563 101.951 40.8974 102C40.5384 102.048 40.1691 102.058 39.7973 102.117L40.1459 102.143C40.1473 102.16 40.1473 102.177 40.1459 102.194L38.7334 102.403C38.6843 102.403 38.5913 102.403 38.5862 102.403C38.4777 102.048 38.1963 102.222 37.9948 102.229C37.3828 102.26 36.7708 102.321 36.1278 102.372V101.823L35.9083 101.974L35.8618 101.892C35.9522 101.841 36.04 101.788 36.133 101.739C36.1511 101.739 36.1821 101.739 36.2053 101.739C36.2285 101.739 36.226 101.724 36.1717 101.691L36.4893 100.805C36.8302 99.8575 37.1659 98.9052 37.5223 97.9605C37.6746 97.5444 37.7805 97.1103 38.1188 96.7733C38.2048 96.6742 38.2492 96.5463 38.2427 96.4159C38.1608 96.0757 38.302 95.7211 38.5965 95.5274L38.5526 95.415C38.2944 95.4457 38.0362 95.4738 37.7908 95.5146C37.7854 95.5741 37.7854 95.6339 37.7908 95.6933C37.122 95.8465 36.4506 96.0048 35.7766 96.1529C35.3221 96.2525 34.8599 96.3316 34.4028 96.4261C34.3247 96.4365 34.2517 96.4703 34.1937 96.5231C33.7418 97.0516 33.2899 97.5852 33.091 98.3256C33.5817 98.3256 34.0491 98.3256 34.5165 98.3256C34.847 98.3256 35.175 98.2924 35.5029 98.3026C35.6699 98.3221 35.8343 98.3589 35.9935 98.4124C36.0065 98.4405 36.0013 98.4737 35.9935 98.5043Z" fill="#F7D100"/>
<path fill-rule="evenodd" clip-rule="evenodd" d="M26.2257 97.8287C26.2257 97.792 26.2257 97.7429 26.241 97.7209C27.3824 96.4189 28.8276 95.8378 30.5946 96.0389C30.839 96.0743 31.0755 96.1489 31.2942 96.2596C31.6779 96.4261 31.9426 96.7736 31.9918 97.1751C32.0409 97.5767 31.8673 97.9736 31.5343 98.221C31.2227 98.4834 30.8984 98.7286 30.5486 99.0081C30.7036 99.1556 30.8399 99.3202 30.9546 99.4984C31.0561 99.687 31.0945 99.9011 31.0644 100.111C30.901 100.712 30.4158 101.092 29.9128 101.433C29.3555 101.838 28.7713 102.207 28.1637 102.539C27.6157 102.793 27.0426 102.994 26.4529 103.139C26.0425 103.212 25.6921 103.466 25.5081 103.826C25.4612 103.912 25.3787 103.975 25.2809 104C25.3651 103.814 25.4494 103.625 25.5566 103.392H25C26.1423 101.373 27.1354 99.2799 27.9722 97.1275L26.218 97.8116L26.2257 97.8287ZM27.1934 102.732L29.0063 101.847L28.9476 101.744C28.3782 102.021 27.8113 102.298 27.247 102.583C27.2113 102.6 27.2138 102.686 27.196 102.737C26.7925 102.343 26.5653 103.056 26.1899 102.892C26.1567 102.88 26.0648 102.985 26.0061 103.041C26.0061 103.041 26.0061 103.085 26.0393 103.186L27.1934 102.732ZM26.3508 102.414L26.4401 102.492C26.5704 102.446 26.6955 102.409 26.8308 102.352C27.8367 101.942 28.7751 101.394 29.6166 100.724C29.8924 100.496 30.1554 100.266 30.0839 99.8956C30.0456 99.697 29.443 99.6088 29.0625 99.7044L29.0268 99.7166C28.5672 99.8539 28.1075 99.9888 27.6505 100.131C27.5783 100.15 27.5147 100.192 27.4692 100.249C27.0964 100.979 26.7261 101.703 26.3508 102.423V102.414ZM28.0692 99.1601C28.1126 99.2067 28.1535 99.2532 28.1969 99.2974C28.8419 99.0013 29.4709 98.6739 30.0813 98.3166C30.4529 98.0378 30.7843 97.713 31.067 97.3506C31.2278 97.1741 31.1487 97.0025 30.9444 96.8897C30.4337 96.6028 29.8694 96.7401 29.3306 96.7475C29.1963 96.7729 29.0815 96.856 29.0191 96.973C28.7638 97.4487 28.5314 97.9342 28.3118 98.4245C28.2173 98.6687 28.1363 98.9175 28.0692 99.1699V99.1601Z" fill="#F7D100"/>
<defs>
<linearGradient id="paint0_linear" x1="95.8646" y1="76.842" x2="78.0388" y2="41.4962" gradientUnits="userSpaceOnUse">
<stop stop-color="#8033EB"/>
<stop offset="0.53" stop-color="#D4648E"/>
<stop offset="1" stop-color="#EC7071"/>
</linearGradient>
</defs>
</svg>
