<svg xmlns="http://www.w3.org/2000/svg" xmlns:xlink="http://www.w3.org/1999/xlink" viewBox="0 0 800 500"><defs><linearGradient id="a" x1="195.21" y1="127.75" x2="132.21" y2="214.75" gradientUnits="userSpaceOnUse"><stop offset="0" stop-color="#8033eb"/><stop offset="0.53" stop-color="#d4648e"/><stop offset="1" stop-color="#ec7071"/></linearGradient><linearGradient id="b" x1="538.77" y1="250.12" x2="495.76" y2="309.51" xlink:href="#a"/><linearGradient id="c" x1="655.28" y1="303.4" x2="592.28" y2="390.4" xlink:href="#a"/><linearGradient id="d" x1="369.01" y1="187.74" x2="306.01" y2="274.74" gradientUnits="userSpaceOnUse"><stop offset="0" stop-color="#8033eb"/><stop offset="1" stop-color="#a2e1e0"/></linearGradient><linearGradient id="e" x1="679.56" y1="174.89" x2="640.6" y2="228.69" xlink:href="#d"/><linearGradient id="f" x1="687.02" y1="75.29" x2="624.02" y2="162.28" xlink:href="#d"/><linearGradient id="g" x1="186.02" y1="243.99" x2="154.05" y2="288.15" xlink:href="#d"/><linearGradient id="h" x1="365.98" y1="390.26" x2="334" y2="434.41" xlink:href="#d"/><linearGradient id="i" x1="497.96" y1="74.68" x2="422.14" y2="170.84" gradientUnits="userSpaceOnUse"><stop offset="0" stop-color="#f94f24"/><stop offset="1" stop-color="#e4c358"/></linearGradient><linearGradient id="j" x1="155.06" y1="358.27" x2="79.24" y2="454.44" xlink:href="#i"/></defs><title>Artboard 2 copy 9</title><g style="isolation:isolate"><path d="M217.71,182.35S140.15,222.22,102.59,203s-41-52.77-26-105.92,52.24-83.32,110-43.68S281.3,144.7,217.71,182.35Z" style="fill:#f2f2f2"/><path d="M594.72,292.64s85.87-15.19,116.08,14.26,23.57,62.53-6.48,108.86-74.52,64.18-118,9.27S522.84,309.83,594.72,292.64Z" style="fill:#f2f2f2"/><line x1="251.82" y1="133.58" x2="373.11" y2="163.65" style="fill:none;stroke:#f94f24;stroke-linecap:round;stroke-miterlimit:10;stroke-dasharray:4,3"/><line x1="224.19" y1="174.08" x2="271.3" y2="232.66" style="fill:none;stroke:#f94f24;stroke-linecap:round;stroke-miterlimit:10;stroke-dasharray:4,3"/><line x1="174.67" y1="227.61" x2="195.34" y2="190.73" style="fill:none;stroke:#f94f24;stroke-linecap:round;stroke-miterlimit:10;stroke-dasharray:4,3"/><line x1="187.52" y1="354.9" x2="251.82" y2="306.99" style="fill:none;stroke:#f94f24;stroke-linecap:round;stroke-miterlimit:10;stroke-dasharray:4,3"/><line x1="202.43" y1="260.68" x2="250.03" y2="272.56" style="fill:none;stroke:#f94f24;stroke-linecap:round;stroke-miterlimit:10;stroke-dasharray:4,3"/><line x1="359.42" y1="244.94" x2="397.26" y2="209.17" style="fill:none;stroke:#f94f24;stroke-linecap:round;stroke-miterlimit:10;stroke-dasharray:4,3"/><line x1="482.5" y1="195.23" x2="501.52" y2="228.44" style="fill:none;stroke:#f94f24;stroke-linecap:round;stroke-miterlimit:10;stroke-dasharray:4,3"/><line x1="359.42" y1="308.1" x2="555.26" y2="334.41" style="fill:none;stroke:#f94f24;stroke-linecap:round;stroke-miterlimit:10;stroke-dasharray:4,3"/><line x1="482.5" y1="154.49" x2="609.95" y2="137.75" style="fill:none;stroke:#f94f24;stroke-linecap:round;stroke-miterlimit:10;stroke-dasharray:4,3"/><line x1="639.8" y1="268.84" x2="633.24" y2="316.28" style="fill:none;stroke:#f94f24;stroke-linecap:round;stroke-miterlimit:10;stroke-dasharray:4,3"/><line x1="656.41" y1="199.91" x2="665.68" y2="169.33" style="fill:none;stroke:#f94f24;stroke-linecap:round;stroke-miterlimit:10;stroke-dasharray:4,3"/><line x1="605.98" y1="236.48" x2="576.19" y2="251.11" style="fill:none;stroke:#f94f24;stroke-linecap:round;stroke-miterlimit:10;stroke-dasharray:4,3"/><line x1="558.55" y1="281.74" x2="583.11" y2="318.33" style="fill:none;stroke:#f94f24;stroke-linecap:round;stroke-miterlimit:10;stroke-dasharray:4,3"/><line x1="159.67" y1="282.98" x2="132.82" y2="323.32" style="fill:none;stroke:#f94f24;stroke-linecap:round;stroke-miterlimit:10;stroke-dasharray:4,3"/><line x1="501.52" y1="260.68" x2="359.42" y2="273.58" style="fill:none;stroke:#f94f24;stroke-linecap:round;stroke-miterlimit:10;stroke-dasharray:4,3"/><line x1="605.98" y1="210.26" x2="482.5" y2="171.36" style="fill:none;stroke:#f94f24;stroke-linecap:round;stroke-miterlimit:10;stroke-dasharray:4,3"/><line x1="306.73" y1="151.15" x2="304.73" y2="213.36" style="fill:none;stroke:#f94f24;stroke-linecap:round;stroke-miterlimit:10;stroke-dasharray:4,3"/><line x1="343.43" y1="380.34" x2="319.85" y2="330.94" style="fill:none;stroke:#f94f24;stroke-linecap:round;stroke-miterlimit:10;stroke-dasharray:4,3"/><line x1="493.01" y1="324.32" x2="519.16" y2="281.74" style="fill:none;stroke:#f94f24;stroke-linecap:round;stroke-miterlimit:10;stroke-dasharray:4,3"/><line x1="552.26" y1="148.15" x2="632.02" y2="195.23" style="fill:none;stroke:#f94f24;stroke-linecap:round;stroke-miterlimit:10;stroke-dasharray:4,3"/><path d="M557.25,64.42a26.84,26.84,0,1,1-26.84-26.84A26.84,26.84,0,0,1,557.25,64.42Z" style="fill:#f2f2f2"/><path d="M282.42,405.36a26.84,26.84,0,1,1-26.83-26.84A26.83,26.83,0,0,1,282.42,405.36Z" style="fill:#f2f2f2"/><polygon points="153.49 103.42 195.34 79.26 237.18 103.42 237.18 151.74 195.34 175.9 153.49 151.74 153.49 103.42" style="fill:url(#a)"/><polygon points="140.64 96 195.34 64.42 250.03 96 250.03 159.16 195.34 190.73 140.64 159.16 140.64 96" style="fill:none;stroke:#e5e5e5;stroke-miterlimit:10;stroke-width:7px"/><path d="M224.16,131.33c-.18-2.33-.39-4.66-.59-7-.09-1-.43-1.27-1.41-1.3-1.72,0-3.44-.11-5.16-.14a1,1,0,0,1-1.14-.81,9.5,9.5,0,0,0-1-2.17c-.92-1.38-1.91-2.71-2.91-4a.85.85,0,0,1-.19-1c.36-.9.68-1.81,1-2.72s.69-2.07,1-3.1c.16-1-.78-1.39-1.89-2-1.78-.92-3.54-1.86-5.33-2.74-.78-.39-1.22-.22-1.71.51q-1.53,2.31-3.05,4.65a.61.61,0,0,1-.72.32,19.77,19.77,0,0,0-8.89.27.82.82,0,0,1-.68-.22c-1.35-1.47-2.67-3-4-4.47-.66-.74-1.12-.79-1.95-.21-1.89,1.34-3.78,2.67-5.69,4-.85.58-1,1.11-.54,2,.85,1.59,1.71,3.19,2.59,4.77a.68.68,0,0,1-.09.84,23.91,23.91,0,0,0-2.09,3.12,40.24,40.24,0,0,0-1.66,4,.8.8,0,0,1-.68.62c-1.88.34-3.76.72-5.64,1.09-1.16.23-1.35.47-1.27,1.67.15,2.32.34,4.62.49,6.93.07,1,.4,1.34,1.4,1.39,1.81.07,3.62.17,5.43.21a.71.71,0,0,1,.75.58,20.39,20.39,0,0,0,4.76,7.37.9.9,0,0,1,.12.76c-.58,1.89-1.2,3.77-1.8,5.65a1.24,1.24,0,0,0,.78,1.73c2.2,1,4.4,2,6.63,3a1.13,1.13,0,0,0,1-.14,9.11,9.11,0,0,0,1.46-1.7c.75-1.15,1.41-2.35,2.14-3.51a.84.84,0,0,1,.63-.33,20,20,0,0,0,8.14-.49.85.85,0,0,1,.71.18q1.93,2.13,3.81,4.3c.84,1,1.28,1.08,2.3.37,1.92-1.33,3.83-2.68,5.74-4a1.19,1.19,0,0,0,.41-1.75c-.87-1.68-1.79-3.34-2.66-5a.73.73,0,0,1,0-.63,20.09,20.09,0,0,0,3.79-7.36.8.8,0,0,1,.72-.64q2.79-.54,5.58-1.11C224.05,132.81,224.26,132.56,224.16,131.33Zm-26.82,10.12a11.87,11.87,0,1,1,11.87-11.87A11.86,11.86,0,0,1,197.34,141.45Z" style="fill:none;stroke:#ccc;stroke-miterlimit:10;stroke-width:3px;fill-rule:evenodd;mix-blend-mode:multiply"/><path d="M222.16,129.33c-.18-2.33-.39-4.66-.6-7-.08-1-.42-1.26-1.4-1.29-1.72,0-3.44-.11-5.17-.14a1,1,0,0,1-1.14-.81,8.72,8.72,0,0,0-1-2.17c-.91-1.38-1.9-2.72-2.9-4a.85.85,0,0,1-.19-1c.36-.9.68-1.81,1-2.73s.69-2.06,1-3.1c.16-1-.79-1.38-1.89-2-1.78-.92-3.54-1.87-5.33-2.75-.79-.38-1.23-.21-1.71.52-1,1.54-2,3.09-3.05,4.64a.6.6,0,0,1-.73.32,19.93,19.93,0,0,0-8.89.28.81.81,0,0,1-.67-.22c-1.35-1.48-2.67-3-4-4.47-.66-.75-1.12-.8-1.95-.21-1.89,1.33-3.78,2.66-5.69,4-.86.59-1,1.12-.55,2q1.29,2.39,2.59,4.77a.65.65,0,0,1-.08.83,25.34,25.34,0,0,0-2.09,3.12,41.43,41.43,0,0,0-1.66,4,.81.81,0,0,1-.68.62c-1.88.34-3.76.72-5.64,1.09-1.16.23-1.36.46-1.28,1.67.16,2.31.35,4.62.5,6.93.07,1,.39,1.34,1.4,1.39,1.81.07,3.62.16,5.43.21a.71.71,0,0,1,.75.58,20.48,20.48,0,0,0,4.76,7.37.94.94,0,0,1,.12.76c-.58,1.89-1.2,3.76-1.8,5.65a1.23,1.23,0,0,0,.78,1.72c2.2,1,4.4,2,6.62,3a1.18,1.18,0,0,0,1-.14,9.11,9.11,0,0,0,1.46-1.7c.75-1.15,1.41-2.35,2.14-3.51a.81.81,0,0,1,.63-.33,19.93,19.93,0,0,0,8.13-.49.86.86,0,0,1,.72.18c1.29,1.41,2.55,2.85,3.81,4.3.84,1,1.28,1.08,2.3.37,1.92-1.33,3.83-2.68,5.73-4a1.19,1.19,0,0,0,.42-1.75c-.87-1.68-1.79-3.34-2.66-5a.7.7,0,0,1,0-.63,20.25,20.25,0,0,0,3.79-7.36.82.82,0,0,1,.72-.65q2.79-.53,5.57-1.1C222.05,130.81,222.26,130.56,222.16,129.33Zm-26.82,10.12a11.88,11.88,0,1,1,11.87-11.87A11.88,11.88,0,0,1,195.34,139.45Z" style="fill:none;stroke:#fff;stroke-miterlimit:10;stroke-width:3px;fill-rule:evenodd"/><polygon points="510.29 233.51 538.85 217.01 567.42 233.51 567.42 266.49 538.85 282.98 510.29 266.49 510.29 233.51" style="fill:url(#b)"/><polygon points="501.52 228.44 538.85 206.89 576.19 228.44 576.19 271.56 538.85 293.11 501.52 271.56 501.52 228.44" style="fill:none;stroke:#e5e5e5;stroke-miterlimit:10;stroke-width:4.77855px"/><path d="M558.53,252.56c-.12-1.59-.27-3.18-.41-4.77,0-.65-.29-.86-1-.88-1.17,0-2.34-.08-3.52-.1a.7.7,0,0,1-.78-.55,5.84,5.84,0,0,0-.68-1.48c-.62-.94-1.3-1.85-2-2.76a.59.59,0,0,1-.12-.64c.24-.62.46-1.24.68-1.87s.47-1.41.7-2.11-.53-1-1.29-1.37c-1.21-.62-2.41-1.27-3.63-1.87a.78.78,0,0,0-1.17.35c-.7,1.06-1.4,2.11-2.09,3.17a.39.39,0,0,1-.49.22,13.67,13.67,0,0,0-6.07.19.54.54,0,0,1-.46-.15c-.92-1-1.83-2-2.73-3.05-.44-.51-.76-.54-1.32-.14l-3.89,2.71c-.58.4-.7.76-.37,1.37.58,1.09,1.17,2.18,1.77,3.26a.46.46,0,0,1-.06.57,17.61,17.61,0,0,0-1.43,2.13c-.45.88-.77,1.82-1.13,2.74a.54.54,0,0,1-.46.42c-1.29.24-2.57.5-3.85.75-.8.16-.93.32-.88,1.14.11,1.58.24,3.15.34,4.73,0,.68.27.92,1,1,1.23,0,2.47.11,3.7.14a.5.5,0,0,1,.52.4,13.8,13.8,0,0,0,3.25,5,.65.65,0,0,1,.08.52c-.4,1.29-.82,2.57-1.23,3.85a.85.85,0,0,0,.53,1.18c1.5.68,3,1.38,4.52,2a.82.82,0,0,0,.7-.1,6.46,6.46,0,0,0,1-1.16c.52-.78,1-1.6,1.47-2.39a.51.51,0,0,1,.42-.23,13.9,13.9,0,0,0,5.56-.33.55.55,0,0,1,.48.12c.89,1,1.75,1.95,2.61,2.93.57.66.87.74,1.57.26q2-1.36,3.91-2.76a.81.81,0,0,0,.29-1.19c-.6-1.15-1.23-2.28-1.82-3.43a.47.47,0,0,1,0-.43,13.72,13.72,0,0,0,2.58-5,.55.55,0,0,1,.49-.44l3.81-.76C558.46,253.57,558.6,253.4,558.53,252.56Zm-18.31,6.91a8.11,8.11,0,1,1,8.11-8.1A8.1,8.1,0,0,1,540.22,259.47Z" style="fill:none;stroke:#ccc;stroke-miterlimit:10;stroke-width:2.04795px;fill-rule:evenodd;mix-blend-mode:multiply"/><path d="M557.17,251.2c-.13-1.59-.27-3.18-.41-4.77-.06-.66-.29-.87-1-.89-1.18,0-2.35-.07-3.53-.09a.69.69,0,0,1-.77-.55,5.89,5.89,0,0,0-.69-1.48c-.62-.95-1.3-1.86-2-2.76a.59.59,0,0,1-.13-.65c.24-.61.46-1.24.68-1.86s.47-1.41.7-2.12-.53-.94-1.29-1.36c-1.21-.63-2.41-1.27-3.63-1.88-.54-.26-.84-.14-1.17.36-.7,1-1.4,2.11-2.08,3.17a.43.43,0,0,1-.5.22,13.39,13.39,0,0,0-6.07.19.58.58,0,0,1-.46-.16c-.92-1-1.82-2-2.72-3-.45-.51-.76-.54-1.33-.14-1.29.91-2.58,1.82-3.89,2.71-.58.4-.7.76-.37,1.38.59,1.09,1.17,2.17,1.77,3.25a.46.46,0,0,1-.06.57,19.8,19.8,0,0,0-1.43,2.13c-.45.88-.77,1.82-1.13,2.74a.55.55,0,0,1-.46.43c-1.29.23-2.57.49-3.85.74-.8.16-.93.32-.87,1.14.1,1.58.23,3.16.34,4.73,0,.68.26.92,1,1,1.24,0,2.47.11,3.71.15.3,0,.41.13.51.39a13.8,13.8,0,0,0,3.25,5,.63.63,0,0,1,.08.52c-.4,1.29-.82,2.57-1.23,3.86a.85.85,0,0,0,.53,1.18c1.51.68,3,1.37,4.53,2a.77.77,0,0,0,.69-.1,6.52,6.52,0,0,0,1-1.16c.51-.78,1-1.6,1.46-2.39a.56.56,0,0,1,.43-.23,13.51,13.51,0,0,0,5.55-.33.6.6,0,0,1,.49.12c.88,1,1.74,2,2.6,2.94.57.66.87.73,1.57.25,1.31-.91,2.62-1.83,3.91-2.75a.81.81,0,0,0,.29-1.2c-.6-1.14-1.22-2.28-1.82-3.42a.52.52,0,0,1,0-.44,13.81,13.81,0,0,0,2.59-5,.55.55,0,0,1,.49-.44c1.27-.24,2.54-.5,3.8-.75C557.09,252.21,557.23,252,557.17,251.2Zm-18.32,6.91A8.11,8.11,0,1,1,547,250,8.11,8.11,0,0,1,538.85,258.11Z" style="fill:none;stroke:#fff;stroke-miterlimit:10;stroke-width:2.04795px;fill-rule:evenodd"/><polygon points="568.11 341.83 609.95 317.67 651.8 341.83 651.8 390.15 609.95 414.31 568.11 390.15 568.11 341.83" style="fill:url(#c)"/><polygon points="555.26 334.41 609.95 302.83 664.65 334.41 664.65 397.57 609.95 429.15 555.26 397.57 555.26 334.41" style="fill:none;stroke:#e5e5e5;stroke-miterlimit:10;stroke-width:7px"/><path d="M638.78,369.75c-.18-2.33-.39-4.66-.6-7-.08-1-.42-1.27-1.4-1.29-1.72-.05-3.44-.11-5.17-.15a1,1,0,0,1-1.14-.8,8.72,8.72,0,0,0-1-2.17c-.91-1.39-1.9-2.72-2.9-4a.85.85,0,0,1-.19-.95c.36-.9.68-1.82,1-2.73s.68-2.07,1-3.1c.16-1-.79-1.38-1.89-2-1.78-.91-3.54-1.86-5.33-2.74-.79-.39-1.23-.22-1.71.52-1,1.54-2,3.09-3.05,4.64a.6.6,0,0,1-.73.32,19.78,19.78,0,0,0-8.89.28.84.84,0,0,1-.67-.22c-1.35-1.48-2.67-3-4-4.47-.66-.75-1.12-.8-1.95-.21-1.89,1.33-3.78,2.66-5.69,4-.86.59-1,1.12-.55,2q1.29,2.4,2.59,4.78a.65.65,0,0,1-.08.83,24.6,24.6,0,0,0-2.09,3.12,39.45,39.45,0,0,0-1.66,4,.8.8,0,0,1-.68.61c-1.88.35-3.76.73-5.64,1.1-1.16.23-1.36.46-1.28,1.67.16,2.31.35,4.62.5,6.92.07,1,.39,1.35,1.4,1.39,1.81.07,3.62.17,5.43.22a.7.7,0,0,1,.75.58,20.48,20.48,0,0,0,4.76,7.37.94.94,0,0,1,.12.76c-.58,1.88-1.2,3.76-1.8,5.64a1.24,1.24,0,0,0,.78,1.73c2.2,1,4.4,2,6.62,3a1.18,1.18,0,0,0,1-.14,9.51,9.51,0,0,0,1.46-1.71c.75-1.14,1.41-2.35,2.14-3.5a.78.78,0,0,1,.63-.33,20.1,20.1,0,0,0,8.13-.49.83.83,0,0,1,.72.18c1.29,1.41,2.55,2.85,3.81,4.3.84,1,1.28,1.07,2.3.37q2.88-2,5.73-4a1.17,1.17,0,0,0,.42-1.74c-.87-1.68-1.79-3.34-2.66-5a.75.75,0,0,1,0-.64,20.17,20.17,0,0,0,3.79-7.36.81.81,0,0,1,.72-.64q2.79-.54,5.57-1.11C638.67,371.23,638.88,371,638.78,369.75ZM612,379.87A11.88,11.88,0,1,1,623.83,368,11.88,11.88,0,0,1,612,379.87Z" style="fill:none;stroke:#ccc;stroke-miterlimit:10;stroke-width:3px;fill-rule:evenodd;mix-blend-mode:multiply"/><path d="M636.78,367.74c-.18-2.33-.39-4.65-.6-7-.08-1-.43-1.27-1.4-1.3-1.73,0-3.45-.11-5.17-.14a1,1,0,0,1-1.14-.8,8.4,8.4,0,0,0-1-2.17c-.91-1.39-1.9-2.72-2.91-4a.87.87,0,0,1-.18-.95c.35-.9.68-1.82,1-2.73s.69-2.07,1-3.1c.15-1-.79-1.39-1.9-2-1.77-.92-3.53-1.86-5.32-2.74-.79-.39-1.23-.22-1.71.51-1,1.55-2.05,3.09-3.05,4.65a.62.62,0,0,1-.73.32,19.78,19.78,0,0,0-8.89.28.82.82,0,0,1-.67-.23c-1.35-1.47-2.68-3-4-4.47-.65-.74-1.11-.79-1.94-.2-1.89,1.33-3.79,2.66-5.7,4-.85.59-1,1.11-.54,2q1.29,2.4,2.59,4.77a.67.67,0,0,1-.08.84,23.91,23.91,0,0,0-2.09,3.12,38,38,0,0,0-1.66,4,.81.81,0,0,1-.68.62c-1.88.34-3.76.72-5.64,1.1-1.17.23-1.36.46-1.28,1.67.16,2.31.35,4.61.5,6.92.07,1,.39,1.35,1.4,1.39,1.81.07,3.62.17,5.43.22a.7.7,0,0,1,.75.57,20.43,20.43,0,0,0,4.76,7.38.88.88,0,0,1,.11.75c-.57,1.89-1.19,3.77-1.79,5.65a1.24,1.24,0,0,0,.77,1.73c2.21,1,4.41,2,6.63,3a1.15,1.15,0,0,0,1-.15,9.11,9.11,0,0,0,1.46-1.7c.75-1.14,1.41-2.35,2.14-3.5a.78.78,0,0,1,.63-.33,20.28,20.28,0,0,0,8.13-.49.85.85,0,0,1,.72.18c1.29,1.41,2.55,2.85,3.81,4.29.84,1,1.27,1.08,2.3.38q2.88-2,5.73-4a1.17,1.17,0,0,0,.42-1.74c-.88-1.69-1.79-3.34-2.66-5a.72.72,0,0,1,0-.64,20.32,20.32,0,0,0,3.79-7.36.79.79,0,0,1,.72-.64q2.79-.54,5.57-1.11C636.67,369.22,636.88,369,636.78,367.74ZM610,377.87A11.88,11.88,0,1,1,621.83,366,11.88,11.88,0,0,1,610,377.87Z" style="fill:none;stroke:#fff;stroke-miterlimit:10;stroke-width:3px;fill-rule:evenodd"/><polygon points="262.88 252.36 304.73 228.2 346.57 252.36 346.57 300.68 304.73 324.84 262.88 300.68 262.88 252.36" style="fill:url(#d)"/><polygon points="250.03 244.94 304.73 213.36 359.42 244.94 359.42 308.1 304.73 339.68 250.03 308.1 250.03 244.94" style="fill:none;stroke:#e5e5e5;stroke-miterlimit:10;stroke-width:7px"/><path d="M333.56,280.27c-.19-2.33-.4-4.65-.6-7-.09-1-.43-1.27-1.41-1.3-1.72,0-3.44-.11-5.16-.14a1,1,0,0,1-1.14-.8,9.38,9.38,0,0,0-1-2.18c-.92-1.38-1.91-2.71-2.91-4a.82.82,0,0,1-.18-.94c.35-.9.67-1.82,1-2.73s.69-2.07,1-3.1c.16-1-.78-1.39-1.89-2-1.78-.92-3.54-1.86-5.33-2.74-.78-.39-1.22-.22-1.71.51-1,1.55-2,3.09-3.05,4.65a.6.6,0,0,1-.72.32,19.63,19.63,0,0,0-8.89.28.87.87,0,0,1-.68-.23c-1.34-1.47-2.67-3-4-4.47-.66-.74-1.11-.79-1.94-.21-1.9,1.34-3.79,2.67-5.7,4-.85.58-1,1.11-.54,2,.85,1.59,1.71,3.19,2.59,4.77a.68.68,0,0,1-.09.84,23.91,23.91,0,0,0-2.09,3.12,40.24,40.24,0,0,0-1.66,4,.79.79,0,0,1-.67.62c-1.89.34-3.77.72-5.65,1.09-1.16.23-1.35.47-1.27,1.68.15,2.31.34,4.61.49,6.92.07,1,.4,1.35,1.4,1.39,1.81.07,3.62.17,5.43.21a.71.71,0,0,1,.75.58,20.2,20.2,0,0,0,4.77,7.37,1,1,0,0,1,.11.76c-.58,1.89-1.2,3.77-1.8,5.65a1.24,1.24,0,0,0,.78,1.73c2.2,1,4.4,2,6.63,3a1.1,1.1,0,0,0,1-.14,9.11,9.11,0,0,0,1.46-1.7c.75-1.15,1.41-2.35,2.14-3.51a.84.84,0,0,1,.63-.33,20.14,20.14,0,0,0,8.14-.48.85.85,0,0,1,.71.17c1.29,1.42,2.56,2.86,3.81,4.3.84,1,1.28,1.08,2.3.37,1.92-1.32,3.84-2.67,5.74-4a1.19,1.19,0,0,0,.41-1.75c-.87-1.68-1.79-3.34-2.66-5a.75.75,0,0,1,0-.64,20,20,0,0,0,3.79-7.36.8.8,0,0,1,.72-.64l5.58-1.11C333.44,281.75,333.65,281.5,333.56,280.27Zm-26.83,10.12a11.87,11.87,0,1,1,11.87-11.87A11.86,11.86,0,0,1,306.73,290.39Z" style="fill:none;stroke:#ccc;stroke-miterlimit:10;stroke-width:3px;fill-rule:evenodd;mix-blend-mode:multiply"/><path d="M331.55,278.27c-.18-2.33-.39-4.66-.6-7-.08-1-.42-1.27-1.4-1.3-1.72,0-3.44-.11-5.17-.14a1,1,0,0,1-1.13-.81,9.5,9.5,0,0,0-1-2.17c-.92-1.38-1.91-2.71-2.91-4a.85.85,0,0,1-.19-.95c.36-.9.68-1.81,1-2.72s.68-2.07,1-3.1c.16-1-.78-1.39-1.89-2-1.78-.92-3.54-1.86-5.33-2.74-.79-.39-1.22-.22-1.71.51q-1.53,2.31-3.05,4.65a.61.61,0,0,1-.72.32,19.82,19.82,0,0,0-8.9.27.81.81,0,0,1-.67-.22c-1.35-1.47-2.67-3-4-4.47-.66-.74-1.12-.8-1.95-.21-1.89,1.33-3.78,2.66-5.69,4-.86.58-1,1.11-.54,2q1.27,2.38,2.59,4.77a.67.67,0,0,1-.09.83,24.71,24.71,0,0,0-2.09,3.13,40.24,40.24,0,0,0-1.66,4,.81.81,0,0,1-.68.62c-1.88.34-3.76.72-5.64,1.09-1.16.23-1.35.47-1.27,1.67.15,2.31.34,4.62.49,6.93.07,1,.39,1.34,1.4,1.39,1.81.07,3.62.16,5.43.21a.71.71,0,0,1,.75.58,20.39,20.39,0,0,0,4.76,7.37.94.94,0,0,1,.12.76c-.58,1.89-1.2,3.77-1.8,5.65a1.24,1.24,0,0,0,.78,1.73c2.2,1,4.4,2,6.62,3a1.15,1.15,0,0,0,1-.14,9.11,9.11,0,0,0,1.46-1.7c.75-1.15,1.41-2.35,2.14-3.51a.81.81,0,0,1,.63-.33,19.92,19.92,0,0,0,8.13-.49.86.86,0,0,1,.72.18c1.29,1.42,2.55,2.85,3.81,4.3.84,1,1.28,1.08,2.3.37,1.92-1.33,3.83-2.68,5.74-4a1.19,1.19,0,0,0,.41-1.75c-.87-1.68-1.79-3.34-2.66-5a.73.73,0,0,1,0-.63,20.25,20.25,0,0,0,3.79-7.36.83.83,0,0,1,.72-.65q2.79-.53,5.58-1.1C331.44,279.75,331.65,279.5,331.55,278.27Zm-26.82,10.12a11.87,11.87,0,1,1,11.87-11.87A11.87,11.87,0,0,1,304.73,288.39Z" style="fill:none;stroke:#fff;stroke-miterlimit:10;stroke-width:3px;fill-rule:evenodd"/><polygon points="613.93 214.85 639.8 199.91 665.68 214.85 665.68 244.73 639.8 259.67 613.93 244.73 613.93 214.85" style="fill:url(#e)"/><polygon points="605.98 210.26 639.8 190.73 673.63 210.26 673.63 249.32 639.8 268.85 605.98 249.32 605.98 210.26" style="fill:none;stroke:#e5e5e5;stroke-miterlimit:10;stroke-width:4.32866px"/><path d="M657.63,232.11c-.11-1.44-.24-2.88-.37-4.32,0-.59-.26-.78-.87-.8l-3.19-.09a.64.64,0,0,1-.71-.49,5.88,5.88,0,0,0-.61-1.35c-.57-.85-1.18-1.68-1.8-2.49A.53.53,0,0,1,650,222c.22-.56.42-1.12.62-1.69s.42-1.28.64-1.92-.49-.85-1.18-1.23c-1.09-.57-2.18-1.15-3.29-1.7-.48-.24-.76-.13-1.06.32-.63,1-1.26,1.91-1.88,2.87a.37.37,0,0,1-.45.2,12.31,12.31,0,0,0-5.5.17.51.51,0,0,1-.41-.13c-.84-.92-1.66-1.84-2.47-2.77-.41-.46-.69-.49-1.21-.13-1.17.83-2.34,1.65-3.52,2.46-.53.36-.63.69-.33,1.24.53,1,1.06,2,1.6,3a.41.41,0,0,1-.06.52,17.53,17.53,0,0,0-1.29,1.93,24.37,24.37,0,0,0-1,2.48c-.09.22-.17.34-.42.38l-3.49.68c-.72.14-.84.29-.79,1,.1,1.43.21,2.85.31,4.28,0,.61.24.83.86.86,1.12,0,2.24.1,3.36.13.28,0,.38.12.46.36a12.72,12.72,0,0,0,2.95,4.56.56.56,0,0,1,.07.46c-.36,1.17-.74,2.33-1.11,3.5a.76.76,0,0,0,.48,1.07c1.36.61,2.72,1.24,4.1,1.83a.71.71,0,0,0,.62-.09,6.07,6.07,0,0,0,.91-1.05c.46-.71.87-1.45,1.32-2.17a.49.49,0,0,1,.39-.2,12.55,12.55,0,0,0,5-.3.5.5,0,0,1,.44.11c.8.87,1.58,1.76,2.36,2.65.52.6.79.67,1.42.23q1.79-1.23,3.55-2.49a.74.74,0,0,0,.26-1.08c-.55-1-1.11-2.07-1.65-3.1a.46.46,0,0,1,0-.4,12.56,12.56,0,0,0,2.34-4.55.51.51,0,0,1,.45-.4l3.44-.68C657.56,233,657.69,232.87,657.63,232.11ZM641,238.37a7.34,7.34,0,1,1,7.34-7.34A7.34,7.34,0,0,1,641,238.37Z" style="fill:none;stroke:#ccc;stroke-miterlimit:10;stroke-width:1.8551400000000002px;fill-rule:evenodd;mix-blend-mode:multiply"/><path d="M656.39,230.87c-.11-1.44-.24-2.88-.37-4.32,0-.59-.26-.78-.87-.8-1.06,0-2.12-.07-3.19-.08a.63.63,0,0,1-.7-.5,5.28,5.28,0,0,0-.62-1.34c-.57-.86-1.18-1.69-1.8-2.5a.52.52,0,0,1-.11-.59c.21-.56.41-1.12.61-1.69s.43-1.28.64-1.91-.49-.86-1.17-1.24c-1.1-.57-2.19-1.15-3.29-1.7-.49-.24-.76-.13-1.06.32-.64,1-1.27,1.91-1.89,2.88a.37.37,0,0,1-.45.19,12.46,12.46,0,0,0-5.5.17.49.49,0,0,1-.41-.13c-.83-.91-1.66-1.84-2.47-2.77-.41-.46-.69-.49-1.2-.12L629,217.19a.82.82,0,0,0-.33,1.25c.53,1,1.06,2,1.6,2.95a.4.4,0,0,1,0,.51,16.3,16.3,0,0,0-1.3,1.93c-.4.8-.7,1.65-1,2.49a.5.5,0,0,1-.42.38c-1.16.21-2.33.44-3.49.67-.72.15-.84.29-.79,1,.1,1.43.21,2.85.31,4.28,0,.62.24.83.86.86,1.12,0,2.24.1,3.36.13a.45.45,0,0,1,.47.36,12.56,12.56,0,0,0,2.94,4.56.58.58,0,0,1,.07.47c-.36,1.16-.74,2.33-1.11,3.49a.76.76,0,0,0,.48,1.07c1.36.61,2.72,1.24,4.1,1.83a.71.71,0,0,0,.63-.09,6,6,0,0,0,.9-1.05c.46-.71.87-1.45,1.32-2.17a.49.49,0,0,1,.39-.2,12.54,12.54,0,0,0,5-.3.49.49,0,0,1,.44.11c.8.87,1.58,1.76,2.36,2.66.52.59.79.66,1.42.23l3.55-2.5a.73.73,0,0,0,.26-1.08c-.54-1-1.11-2.06-1.65-3.1a.47.47,0,0,1,0-.4,12.4,12.4,0,0,0,2.34-4.55.49.49,0,0,1,.45-.39c1.15-.23,2.3-.45,3.44-.69C656.32,231.79,656.45,231.63,656.39,230.87Zm-16.59,6.26a7.34,7.34,0,1,1,7.35-7.34A7.34,7.34,0,0,1,639.8,237.13Z" style="fill:none;stroke:#fff;stroke-miterlimit:10;stroke-width:1.8551400000000002px;fill-rule:evenodd"/><polygon points="622.8 82.02 664.65 57.86 706.49 82.02 706.49 130.33 664.65 154.49 622.8 130.33 622.8 82.02" style="fill:url(#f)"/><polygon points="609.95 74.6 664.65 43.02 719.35 74.6 719.35 137.75 664.65 169.33 609.95 137.75 609.95 74.6" style="fill:none;stroke:#e5e5e5;stroke-miterlimit:10;stroke-width:7px"/><path d="M693.48,109.93c-.18-2.33-.4-4.66-.6-7-.09-1-.43-1.27-1.41-1.3-1.72,0-3.44-.11-5.16-.14a1,1,0,0,1-1.14-.81,9.09,9.09,0,0,0-1-2.17c-.91-1.38-1.91-2.72-2.91-4a.86.86,0,0,1-.18-.95c.35-.9.67-1.81,1-2.73s.69-2.06,1-3.1c.16-1-.78-1.38-1.89-2-1.77-.92-3.53-1.86-5.32-2.75-.79-.38-1.23-.21-1.72.52q-1.53,2.31-3,4.64a.6.6,0,0,1-.72.33,19.78,19.78,0,0,0-8.89.27.8.8,0,0,1-.67-.22c-1.35-1.47-2.68-3-4-4.47-.65-.75-1.11-.8-1.94-.21-1.9,1.33-3.79,2.66-5.7,4-.85.59-1,1.12-.54,2q1.29,2.39,2.59,4.77a.64.64,0,0,1-.09.83,27.82,27.82,0,0,0-2.09,3.12,41.36,41.36,0,0,0-1.65,4,.82.82,0,0,1-.68.62c-1.89.34-3.76.72-5.64,1.09-1.17.23-1.36.46-1.28,1.67.16,2.31.34,4.62.5,6.93.06,1,.39,1.34,1.39,1.39,1.82.07,3.63.16,5.43.21.45,0,.61.2.76.58a20.35,20.35,0,0,0,4.76,7.37.9.9,0,0,1,.11.76c-.58,1.89-1.19,3.77-1.8,5.65a1.23,1.23,0,0,0,.78,1.72c2.21,1,4.41,2,6.63,3a1.15,1.15,0,0,0,1-.14,9.11,9.11,0,0,0,1.46-1.7c.76-1.15,1.41-2.35,2.15-3.51a.81.81,0,0,1,.62-.33,20,20,0,0,0,8.14-.49.85.85,0,0,1,.71.18q1.93,2.13,3.82,4.3c.83,1,1.27,1.08,2.29.37,1.93-1.33,3.84-2.68,5.74-4a1.19,1.19,0,0,0,.42-1.75c-.88-1.68-1.79-3.34-2.67-5a.73.73,0,0,1,0-.63,20.4,20.4,0,0,0,3.79-7.36.81.81,0,0,1,.72-.65q2.77-.53,5.57-1.1C693.37,111.41,693.57,111.16,693.48,109.93Zm-26.83,10.12a11.88,11.88,0,1,1,11.88-11.87A11.87,11.87,0,0,1,666.65,120.05Z" style="fill:none;stroke:#ccc;stroke-miterlimit:10;stroke-width:3px;fill-rule:evenodd;mix-blend-mode:multiply"/><path d="M691.48,107.93c-.19-2.33-.4-4.66-.6-7-.09-1-.43-1.27-1.41-1.29-1.72-.05-3.44-.11-5.16-.14a1,1,0,0,1-1.14-.81,9.09,9.09,0,0,0-1-2.17c-.92-1.39-1.91-2.72-2.91-4a.85.85,0,0,1-.18-.95c.35-.9.67-1.81,1-2.73s.69-2.06,1-3.1c.16-1-.78-1.38-1.89-2-1.77-.91-3.53-1.86-5.33-2.74-.78-.39-1.22-.21-1.71.52q-1.53,2.31-3,4.64a.59.59,0,0,1-.72.32,19.77,19.77,0,0,0-8.89.28.87.87,0,0,1-.68-.22q-2-2.22-4-4.47c-.65-.75-1.11-.8-1.94-.21-1.9,1.33-3.79,2.66-5.7,4-.85.59-1,1.12-.54,2,.85,1.59,1.72,3.18,2.59,4.77a.66.66,0,0,1-.09.83,26.52,26.52,0,0,0-2.09,3.12,43,43,0,0,0-1.66,4,.79.79,0,0,1-.67.61c-1.89.35-3.77.73-5.64,1.1-1.17.23-1.36.46-1.28,1.67.15,2.31.34,4.62.49,6.93.07,1,.4,1.34,1.4,1.38,1.81.08,3.62.17,5.43.22a.7.7,0,0,1,.75.58,20.5,20.5,0,0,0,4.77,7.37.94.94,0,0,1,.11.76c-.58,1.89-1.2,3.76-1.8,5.64a1.24,1.24,0,0,0,.78,1.73c2.2,1,4.4,2,6.63,3a1.16,1.16,0,0,0,1-.14,9.17,9.17,0,0,0,1.46-1.71c.75-1.14,1.41-2.34,2.14-3.5a.8.8,0,0,1,.63-.33,20,20,0,0,0,8.14-.49.85.85,0,0,1,.71.18c1.29,1.41,2.56,2.85,3.81,4.3.84,1,1.28,1.07,2.3.37q2.89-2,5.74-4a1.18,1.18,0,0,0,.41-1.74c-.87-1.68-1.78-3.34-2.66-5a.72.72,0,0,1,0-.64,20.07,20.07,0,0,0,3.78-7.36.82.82,0,0,1,.72-.64c1.86-.36,3.72-.72,5.58-1.11C691.36,109.41,691.57,109.15,691.48,107.93Zm-26.83,10.12a11.88,11.88,0,1,1,11.87-11.87A11.87,11.87,0,0,1,664.65,118.05Z" style="fill:none;stroke:#fff;stroke-miterlimit:10;stroke-width:3px;fill-rule:evenodd"/><polygon points="153.43 247.41 174.67 235.14 195.91 247.41 195.91 271.93 174.67 284.19 153.43 271.93 153.43 247.41" style="fill:url(#g)"/><polygon points="146.91 243.64 174.67 227.61 202.43 243.64 202.43 275.7 174.67 291.72 146.91 275.7 146.91 243.64" style="fill:none;stroke:#e5e5e5;stroke-miterlimit:10;stroke-width:3.5528600000000004px"/><path d="M189.3,261.57c-.09-1.18-.2-2.36-.3-3.54-.05-.49-.22-.65-.72-.66l-2.62-.07a.53.53,0,0,1-.58-.41,4.76,4.76,0,0,0-.5-1.1c-.47-.7-1-1.38-1.48-2a.44.44,0,0,1-.1-.48c.18-.46.35-.92.51-1.39s.35-1.05.52-1.57-.39-.7-1-1c-.9-.46-1.79-.94-2.7-1.39-.4-.19-.62-.11-.87.27-.52.78-1,1.56-1.55,2.35a.29.29,0,0,1-.36.16,10,10,0,0,0-4.52.15.44.44,0,0,1-.34-.12c-.68-.75-1.36-1.51-2-2.27-.33-.37-.56-.4-1-.1-1,.67-1.92,1.35-2.89,2a.67.67,0,0,0-.28,1c.44.8.87,1.61,1.32,2.42a.32.32,0,0,1-.05.42,12.93,12.93,0,0,0-1.06,1.59,21.14,21.14,0,0,0-.84,2,.42.42,0,0,1-.34.32c-1,.17-1.91.36-2.87.55-.59.12-.69.24-.64.85.07,1.17.17,2.34.25,3.52,0,.5.2.68.71.7l2.75.11c.23,0,.31.1.38.29a10.53,10.53,0,0,0,2.42,3.75.44.44,0,0,1,.06.38c-.3,1-.61,1.91-.91,2.87a.62.62,0,0,0,.39.87c1.12.51,2.24,1,3.36,1.51a.59.59,0,0,0,.52-.07,4.73,4.73,0,0,0,.74-.87c.38-.58.72-1.19,1.09-1.78a.38.38,0,0,1,.32-.16,10.28,10.28,0,0,0,4.13-.25.42.42,0,0,1,.36.09c.65.72,1.3,1.45,1.93,2.18.43.49.65.55,1.17.19,1-.68,1.95-1.36,2.91-2.05a.6.6,0,0,0,.21-.89c-.44-.85-.91-1.69-1.35-2.54a.38.38,0,0,1,0-.33,10.2,10.2,0,0,0,1.92-3.73.41.41,0,0,1,.37-.33l2.82-.56C189.24,262.33,189.35,262.2,189.3,261.57Zm-13.62,5.14a6,6,0,1,1,6-6A6,6,0,0,1,175.68,266.71Z" style="fill:none;stroke:#ccc;stroke-miterlimit:10;stroke-width:1.52265px;fill-rule:evenodd;mix-blend-mode:multiply"/><path d="M188.28,260.56c-.09-1.18-.2-2.37-.3-3.55,0-.49-.22-.64-.72-.65l-2.62-.08a.51.51,0,0,1-.57-.4,4.86,4.86,0,0,0-.51-1.11c-.47-.7-1-1.38-1.48-2.05a.43.43,0,0,1-.09-.48c.18-.46.34-.92.5-1.38l.53-1.58c.08-.5-.4-.7-1-1-.9-.47-1.8-1-2.71-1.39-.4-.2-.62-.11-.86.26-.52.78-1,1.57-1.55,2.36a.32.32,0,0,1-.37.16,10.1,10.1,0,0,0-4.51.14.43.43,0,0,1-.34-.11c-.69-.75-1.36-1.51-2-2.27-.33-.38-.57-.41-1-.11l-2.89,2c-.43.3-.52.56-.27,1,.43.81.87,1.62,1.31,2.42a.35.35,0,0,1,0,.43,11.78,11.78,0,0,0-1.06,1.58,20.37,20.37,0,0,0-.85,2,.42.42,0,0,1-.34.31c-1,.17-1.91.37-2.86.56-.59.11-.69.23-.65.84.08,1.18.17,2.35.25,3.52,0,.51.2.68.71.7.92,0,1.84.09,2.76.11a.37.37,0,0,1,.38.3,10.46,10.46,0,0,0,2.41,3.74.42.42,0,0,1,.06.38c-.29,1-.6,1.91-.91,2.87a.63.63,0,0,0,.39.88c1.12.5,2.24,1,3.37,1.5a.57.57,0,0,0,.51-.07,4.11,4.11,0,0,0,.74-.87c.39-.58.72-1.19,1.09-1.77a.43.43,0,0,1,.32-.17,10.28,10.28,0,0,0,4.13-.25.42.42,0,0,1,.36.09c.66.72,1.3,1.45,1.94,2.18.42.5.64.55,1.16.19,1-.67,1.95-1.36,2.91-2.05a.6.6,0,0,0,.22-.88c-.45-.85-.91-1.7-1.35-2.55a.36.36,0,0,1,0-.32,10.24,10.24,0,0,0,1.92-3.74.4.4,0,0,1,.37-.32c.94-.18,1.89-.37,2.83-.57C188.23,261.31,188.33,261.18,188.28,260.56Zm-13.61,5.13a6,6,0,1,1,6-6A6,6,0,0,1,174.67,265.69Z" style="fill:none;stroke:#fff;stroke-miterlimit:10;stroke-width:1.52265px;fill-rule:evenodd"/><polygon points="333.39 393.67 354.63 381.41 375.86 393.67 375.86 418.2 354.63 430.46 333.39 418.2 333.39 393.67" style="fill:url(#h)"/><polygon points="326.86 389.91 354.63 373.88 382.39 389.91 382.39 421.96 354.63 437.99 326.86 421.96 326.86 389.91" style="fill:none;stroke:#e5e5e5;stroke-miterlimit:10;stroke-width:3.5528600000000004px"/><path d="M369.26,407.84c-.1-1.18-.2-2.36-.31-3.55,0-.48-.21-.64-.71-.65-.87,0-1.75-.06-2.62-.07a.53.53,0,0,1-.58-.41,4.47,4.47,0,0,0-.51-1.11c-.46-.7-1-1.37-1.47-2.05a.43.43,0,0,1-.1-.48c.18-.45.35-.92.51-1.38s.35-1.05.52-1.58-.4-.7-1-1c-.9-.47-1.79-.94-2.7-1.39-.4-.2-.62-.11-.87.26-.52.78-1,1.57-1.55,2.36a.3.3,0,0,1-.37.16,10.11,10.11,0,0,0-4.51.14.4.4,0,0,1-.34-.11c-.68-.75-1.36-1.51-2-2.27-.33-.38-.56-.4-1-.11l-2.9,2c-.43.3-.52.57-.27,1,.43.81.87,1.62,1.31,2.42a.35.35,0,0,1,0,.43,12.81,12.81,0,0,0-1.06,1.58,18.2,18.2,0,0,0-.84,2,.41.41,0,0,1-.35.31l-2.86.56c-.59.11-.69.23-.65.85.08,1.17.18,2.34.25,3.51,0,.51.2.68.71.71.92,0,1.84.08,2.76.1a.36.36,0,0,1,.38.3,10.4,10.4,0,0,0,2.42,3.74.5.5,0,0,1,.06.38c-.3,1-.61,1.92-.92,2.87a.64.64,0,0,0,.4.88c1.12.5,2.23,1,3.36,1.5a.56.56,0,0,0,.52-.07,4.67,4.67,0,0,0,.74-.86c.38-.58.71-1.19,1.09-1.78a.39.39,0,0,1,.31-.17,10.09,10.09,0,0,0,4.13-.25.48.48,0,0,1,.37.09c.65.72,1.29,1.45,1.93,2.19.43.49.65.54,1.17.18,1-.67,1.94-1.36,2.91-2a.61.61,0,0,0,.21-.89c-.44-.85-.91-1.7-1.35-2.55a.33.33,0,0,1,0-.32,10.32,10.32,0,0,0,1.92-3.74.41.41,0,0,1,.36-.32l2.83-.56C369.2,408.59,369.31,408.46,369.26,407.84ZM355.64,413a6,6,0,1,1,6-6A6,6,0,0,1,355.64,413Z" style="fill:none;stroke:#ccc;stroke-miterlimit:10;stroke-width:1.52265px;fill-rule:evenodd;mix-blend-mode:multiply"/><path d="M368.24,406.82c-.09-1.18-.2-2.36-.3-3.54-.05-.49-.22-.65-.72-.66l-2.62-.07a.53.53,0,0,1-.58-.41,4.38,4.38,0,0,0-.5-1.1c-.47-.71-1-1.38-1.48-2.05a.43.43,0,0,1-.09-.48c.18-.46.34-.93.5-1.39s.35-1.05.52-1.57-.39-.7-1-1c-.89-.46-1.79-.94-2.7-1.39-.4-.19-.62-.11-.87.26l-1.55,2.36a.29.29,0,0,1-.36.16,10,10,0,0,0-4.51.15.46.46,0,0,1-.35-.12c-.68-.75-1.35-1.51-2-2.27a.62.62,0,0,0-1-.1c-1,.67-1.92,1.35-2.89,2-.43.3-.52.57-.28,1l1.32,2.42a.32.32,0,0,1-.05.42,12.93,12.93,0,0,0-1.06,1.59c-.33.65-.57,1.35-.84,2a.42.42,0,0,1-.34.32c-1,.17-1.91.36-2.86.55-.6.12-.69.24-.65.85.08,1.17.17,2.34.25,3.51,0,.51.2.69.71.71l2.75.11c.23,0,.31.1.39.29a10.24,10.24,0,0,0,2.41,3.74.44.44,0,0,1,.06.39c-.29,1-.61,1.91-.91,2.87a.62.62,0,0,0,.39.87c1.12.51,2.24,1,3.37,1.51a.61.61,0,0,0,.51-.07,4.73,4.73,0,0,0,.74-.87c.38-.58.72-1.19,1.09-1.78a.39.39,0,0,1,.32-.16,10.28,10.28,0,0,0,4.13-.25.42.42,0,0,1,.36.09c.65.72,1.3,1.44,1.93,2.18.43.49.65.55,1.17.19,1-.68,1.95-1.36,2.91-2.05a.6.6,0,0,0,.21-.89c-.44-.85-.9-1.69-1.35-2.54a.42.42,0,0,1,0-.33,10.2,10.2,0,0,0,1.92-3.73.41.41,0,0,1,.37-.33l2.83-.56C368.18,407.58,368.29,407.45,368.24,406.82ZM354.62,412a6,6,0,1,1,6-6A6,6,0,0,1,354.62,412Z" style="fill:none;stroke:#fff;stroke-miterlimit:10;stroke-width:1.52265px;fill-rule:evenodd"/><polygon points="385.96 139.49 427.81 115.33 469.65 139.49 469.65 187.81 427.81 211.97 385.96 187.81 385.96 139.49" style="fill:url(#i)"/><polygon points="373.11 132.07 427.81 100.49 482.5 132.07 482.5 195.23 427.81 226.81 373.11 195.23 373.11 132.07" style="fill:none;stroke:#e5e5e5;stroke-miterlimit:10;stroke-width:7px"/><path d="M456.64,167.41c-.19-2.33-.4-4.66-.6-7-.09-1-.43-1.27-1.41-1.29l-5.16-.15a1,1,0,0,1-1.14-.8,9.5,9.5,0,0,0-1-2.17c-.92-1.39-1.91-2.72-2.91-4a.83.83,0,0,1-.18-.95c.35-.9.67-1.81,1-2.73s.69-2.07,1-3.1c.16-1-.78-1.38-1.89-2-1.78-.91-3.54-1.86-5.33-2.74-.78-.39-1.22-.22-1.71.52q-1.53,2.31-3.05,4.64a.59.59,0,0,1-.72.32,19.77,19.77,0,0,0-8.89.28A.87.87,0,0,1,424,146c-1.34-1.48-2.67-3-4-4.47-.66-.75-1.11-.8-1.94-.21-1.9,1.33-3.79,2.66-5.7,4-.85.59-1,1.12-.54,2q1.28,2.4,2.59,4.78a.67.67,0,0,1-.09.83,24.6,24.6,0,0,0-2.09,3.12,39.45,39.45,0,0,0-1.66,4,.79.79,0,0,1-.67.61c-1.89.35-3.77.73-5.65,1.1-1.16.23-1.35.46-1.27,1.67.15,2.31.34,4.62.49,6.92.07,1,.4,1.35,1.4,1.39,1.81.07,3.62.17,5.43.22a.7.7,0,0,1,.75.58,20.37,20.37,0,0,0,4.77,7.37.94.94,0,0,1,.11.76c-.58,1.88-1.2,3.76-1.8,5.64a1.24,1.24,0,0,0,.78,1.73c2.2,1,4.4,2,6.63,3a1.16,1.16,0,0,0,1-.14,9.51,9.51,0,0,0,1.46-1.71c.75-1.14,1.41-2.35,2.14-3.5a.78.78,0,0,1,.63-.33,20.14,20.14,0,0,0,8.14-.49.82.82,0,0,1,.71.18c1.29,1.41,2.56,2.85,3.81,4.3.84,1,1.28,1.07,2.3.37,1.92-1.33,3.84-2.68,5.74-4a1.18,1.18,0,0,0,.41-1.74c-.87-1.68-1.79-3.34-2.66-5a.72.72,0,0,1,0-.64,20.15,20.15,0,0,0,3.78-7.36.82.82,0,0,1,.72-.64l5.58-1.11C456.52,168.89,456.73,168.63,456.64,167.41Zm-26.83,10.12a11.88,11.88,0,1,1,11.87-11.88A11.87,11.87,0,0,1,429.81,177.53Z" style="fill:none;stroke:#ccc;stroke-miterlimit:10;stroke-width:3px;fill-rule:evenodd;mix-blend-mode:multiply"/><path d="M454.63,165.4c-.18-2.33-.39-4.65-.6-7-.08-1-.42-1.27-1.4-1.3-1.72,0-3.44-.11-5.17-.14a1,1,0,0,1-1.13-.8,9.12,9.12,0,0,0-1-2.17c-.92-1.39-1.91-2.72-2.91-4a.85.85,0,0,1-.19-.95c.36-.9.68-1.82,1-2.73s.68-2.07,1-3.1c.16-1-.78-1.39-1.89-2-1.78-.92-3.54-1.86-5.33-2.74-.79-.39-1.22-.22-1.71.51-1,1.55-2,3.09-3.05,4.65a.6.6,0,0,1-.72.32,19.82,19.82,0,0,0-8.9.28A.82.82,0,0,1,422,144c-1.35-1.47-2.67-3-4-4.47-.66-.74-1.12-.79-1.95-.2-1.89,1.33-3.78,2.66-5.69,4-.86.59-1,1.11-.54,2q1.28,2.4,2.59,4.77a.68.68,0,0,1-.09.84,23.91,23.91,0,0,0-2.09,3.12,40.24,40.24,0,0,0-1.66,4,.8.8,0,0,1-.68.62c-1.88.34-3.76.73-5.64,1.1-1.16.23-1.35.46-1.27,1.67.15,2.31.34,4.61.49,6.92.07,1,.39,1.35,1.4,1.39,1.81.07,3.62.17,5.43.22a.7.7,0,0,1,.75.57,20.43,20.43,0,0,0,4.76,7.38.88.88,0,0,1,.12.75c-.58,1.89-1.2,3.77-1.8,5.65a1.24,1.24,0,0,0,.78,1.73c2.2,1,4.4,2,6.62,3a1.15,1.15,0,0,0,1-.15,9.11,9.11,0,0,0,1.46-1.7c.75-1.14,1.41-2.35,2.14-3.5a.78.78,0,0,1,.63-.33,20.27,20.27,0,0,0,8.13-.49.83.83,0,0,1,.72.18c1.29,1.41,2.55,2.85,3.81,4.29.84,1,1.28,1.08,2.3.38q2.88-2,5.74-4a1.18,1.18,0,0,0,.41-1.74c-.87-1.69-1.79-3.34-2.66-5a.75.75,0,0,1,0-.64,20.17,20.17,0,0,0,3.79-7.36.8.8,0,0,1,.72-.64l5.58-1.11C454.52,166.88,454.73,166.63,454.63,165.4Zm-26.82,10.13a11.88,11.88,0,1,1,11.87-11.88A11.88,11.88,0,0,1,427.81,175.53Z" style="fill:none;stroke:#fff;stroke-miterlimit:10;stroke-width:3px;fill-rule:evenodd"/><polygon points="90.98 362.32 132.82 338.16 174.67 362.32 174.67 410.64 132.82 434.8 90.98 410.64 90.98 362.32" style="fill:url(#j)"/><polygon points="78.13 354.9 132.82 323.32 187.52 354.9 187.52 418.06 132.82 449.64 78.13 418.06 78.13 354.9" style="fill:none;stroke:#e5e5e5;stroke-miterlimit:10;stroke-width:7px"/><path d="M161.65,390.23c-.18-2.33-.39-4.65-.6-7-.08-1-.43-1.27-1.4-1.29-1.73,0-3.45-.12-5.17-.15a1,1,0,0,1-1.14-.8,8.4,8.4,0,0,0-1-2.17c-.91-1.39-1.9-2.72-2.91-4a.87.87,0,0,1-.18-.95c.35-.9.68-1.82,1-2.73s.69-2.07,1-3.1c.15-1-.79-1.39-1.9-2-1.77-.92-3.53-1.86-5.32-2.74-.79-.39-1.23-.22-1.71.51-1,1.55-2,3.09-3,4.65a.62.62,0,0,1-.73.32,19.78,19.78,0,0,0-8.89.28.82.82,0,0,1-.67-.23c-1.35-1.47-2.68-3-4-4.47-.65-.74-1.11-.79-1.94-.2-1.89,1.33-3.79,2.66-5.7,4-.85.59-1,1.11-.54,2q1.29,2.4,2.59,4.77a.67.67,0,0,1-.08.84,23.91,23.91,0,0,0-2.09,3.12,38,38,0,0,0-1.66,4,.81.81,0,0,1-.68.62c-1.88.34-3.76.73-5.64,1.1-1.17.23-1.36.46-1.28,1.67.16,2.31.35,4.61.5,6.92.07,1,.39,1.35,1.4,1.39,1.81.07,3.62.17,5.43.22a.71.71,0,0,1,.75.57,20.43,20.43,0,0,0,4.76,7.38.88.88,0,0,1,.11.75c-.57,1.89-1.19,3.77-1.79,5.65a1.24,1.24,0,0,0,.77,1.73c2.21,1,4.41,2,6.63,3a1.15,1.15,0,0,0,1-.15A9.11,9.11,0,0,0,129,412c.75-1.14,1.41-2.35,2.14-3.5a.78.78,0,0,1,.63-.33,20.28,20.28,0,0,0,8.13-.49.85.85,0,0,1,.72.18c1.29,1.41,2.55,2.85,3.81,4.29.84,1,1.27,1.08,2.3.38q2.88-2,5.73-4a1.17,1.17,0,0,0,.42-1.74c-.88-1.69-1.79-3.34-2.66-5a.72.72,0,0,1,0-.64,20.32,20.32,0,0,0,3.79-7.36.79.79,0,0,1,.72-.64q2.79-.54,5.57-1.11C161.54,391.71,161.75,391.46,161.65,390.23Zm-26.82,10.13a11.88,11.88,0,1,1,11.87-11.88A11.88,11.88,0,0,1,134.83,400.36Z" style="fill:none;stroke:#ccc;stroke-miterlimit:10;stroke-width:3px;fill-rule:evenodd;mix-blend-mode:multiply"/><path d="M159.65,388.23c-.18-2.33-.4-4.65-.6-7-.08-1-.43-1.27-1.41-1.3-1.72,0-3.44-.11-5.16-.14a1,1,0,0,1-1.14-.8,9,9,0,0,0-1-2.18c-.91-1.38-1.91-2.71-2.91-4a.85.85,0,0,1-.18-.94c.35-.9.67-1.82,1-2.73s.69-2.07,1-3.1c.16-1-.78-1.39-1.89-2-1.77-.92-3.53-1.86-5.32-2.74-.79-.39-1.23-.22-1.72.51-1,1.55-2,3.09-3.05,4.65a.6.6,0,0,1-.72.32,19.64,19.64,0,0,0-8.89.28.84.84,0,0,1-.67-.23c-1.35-1.47-2.68-3-4-4.47-.65-.74-1.11-.79-1.94-.21-1.9,1.34-3.79,2.67-5.7,4-.85.58-1,1.11-.54,2,.86,1.59,1.72,3.19,2.59,4.77a.66.66,0,0,1-.09.84,24.89,24.89,0,0,0-2.08,3.12,38,38,0,0,0-1.66,4,.81.81,0,0,1-.68.62c-1.89.34-3.76.72-5.64,1.09-1.17.23-1.36.47-1.28,1.68.16,2.31.34,4.61.5,6.92.06,1,.39,1.35,1.4,1.39,1.81.07,3.62.17,5.43.21.44,0,.6.2.75.58a20.18,20.18,0,0,0,4.76,7.37.91.91,0,0,1,.11.76c-.58,1.89-1.19,3.77-1.79,5.65a1.24,1.24,0,0,0,.77,1.73c2.21,1,4.41,2,6.63,3a1.09,1.09,0,0,0,1-.14A9.11,9.11,0,0,0,127,410c.76-1.15,1.41-2.35,2.15-3.51a.84.84,0,0,1,.62-.33,20.14,20.14,0,0,0,8.14-.48.85.85,0,0,1,.71.17c1.29,1.42,2.56,2.86,3.82,4.3.84,1,1.27,1.08,2.29.37,1.93-1.32,3.84-2.67,5.74-4a1.19,1.19,0,0,0,.42-1.75c-.88-1.68-1.79-3.34-2.66-5a.72.72,0,0,1,0-.64,20.32,20.32,0,0,0,3.79-7.36.79.79,0,0,1,.72-.64q2.79-.54,5.57-1.11C159.54,389.71,159.75,389.46,159.65,388.23Zm-26.83,10.12a11.87,11.87,0,1,1,11.88-11.87A11.86,11.86,0,0,1,132.82,398.35Z" style="fill:none;stroke:#fff;stroke-miterlimit:10;stroke-width:3px;fill-rule:evenodd"/><path d="M438.52,266.62a4,4,0,1,1-4-4A4,4,0,0,1,438.52,266.62Z" style="fill:#fff;stroke:#f94f24;stroke-linecap:round;stroke-miterlimit:10;stroke-width:2px"/><path d="M554.28,146.12a4,4,0,1,1-4-4A4,4,0,0,1,554.28,146.12Z" style="fill:#fff;stroke:#f94f24;stroke-linecap:round;stroke-miterlimit:10;stroke-width:2px"/><path d="M310.76,147.12a4,4,0,1,1-4-4A4,4,0,0,1,310.76,147.12Z" style="fill:#fff;stroke:#f94f24;stroke-linecap:round;stroke-miterlimit:10;stroke-width:2px"/><path d="M496,325.28a4,4,0,1,1-4-4A4,4,0,0,1,496,325.28Z" style="fill:#fff;stroke:#f94f24;stroke-linecap:round;stroke-miterlimit:10;stroke-width:2px"/></g></svg>