<svg xmlns="http://www.w3.org/2000/svg" xmlns:xlink="http://www.w3.org/1999/xlink" viewBox="0 0 800 500"><defs><linearGradient id="a" x1="148.11" y1="296.1" x2="350.11" y2="296.1" gradientUnits="userSpaceOnUse"><stop offset="0" stop-color="#8033eb"/><stop offset="1" stop-color="#6731ce"/></linearGradient><linearGradient id="b" x1="218.26" y1="295.28" x2="232.96" y2="295.28" xlink:href="#a"/><linearGradient id="c" x1="263.61" y1="295.28" x2="278.31" y2="295.28" xlink:href="#a"/><linearGradient id="d" x1="240.36" y1="295.28" x2="255.73" y2="295.28" xlink:href="#a"/><linearGradient id="e" x1="388.03" y1="437.95" x2="539.75" y2="266.53" gradientUnits="userSpaceOnUse"><stop offset="0" stop-color="#8033eb"/><stop offset="1" stop-color="#f94f24"/></linearGradient><linearGradient id="f" x1="509.82" y1="289.13" x2="717.63" y2="289.13" gradientUnits="userSpaceOnUse"><stop offset="0" stop-color="#fff"/><stop offset="1" stop-color="#f94f24"/></linearGradient></defs><title>Artboard 2 copy 10</title><g style="isolation:isolate"><circle cx="503.55" cy="201.76" r="58.27" style="fill:#f2f2f2"/><path d="M453,91.42A25.85,25.85,0,1,1,427.1,65.57,25.85,25.85,0,0,1,453,91.42Z" style="fill:#f2f2f2"/><rect x="78.93" y="352.32" width="326.16" height="78.72" rx="37.14" ry="37.14" style="fill:#f2f2f2"/><path d="M350,302.7c-.69-8.77-1.49-17.52-2.26-26.28-.32-3.63-1.61-4.78-5.29-4.87-6.47-.17-12.95-.42-19.43-.54-2.2,0-3.53-.67-4.28-3a33.87,33.87,0,0,0-3.77-8.17c-3.44-5.21-7.17-10.22-10.93-15.19a3.21,3.21,0,0,1-.7-3.57c1.34-3.39,2.54-6.83,3.73-10.27,1.34-3.87,2.6-7.77,3.89-11.66.6-3.76-2.95-5.21-7.11-7.52-6.68-3.45-13.3-7-20-10.31-3-1.46-4.61-.82-6.44,1.93q-5.78,8.72-11.48,17.48a2.25,2.25,0,0,1-2.72,1.2,74.56,74.56,0,0,0-33.45,1,3.13,3.13,0,0,1-2.53-.84c-5.07-5.54-10.06-11.18-15-16.82-2.47-2.8-4.2-3-7.32-.77-7.13,5-14.24,10-21.43,14.94-3.21,2.2-3.85,4.2-2,7.58q4.83,9,9.75,18a2.47,2.47,0,0,1-.33,3.13c-2.76,3.82-5.71,7.59-7.86,11.74A152.73,152.73,0,0,0,176.74,275a3,3,0,0,1-2.55,2.32C167.1,278.58,160,280,153,281.41c-4.38.86-5.1,1.74-4.8,6.29.58,8.69,1.29,17.36,1.86,26.05.25,3.75,1.48,5.06,5.27,5.22,6.81.27,13.62.63,20.42.81,1.68,0,2.3.73,2.83,2.18a76.57,76.57,0,0,0,17.92,27.73,3.44,3.44,0,0,1,.42,2.85c-2.17,7.11-4.5,14.17-6.76,21.24-1,3.17-.12,5.13,2.92,6.51,8.3,3.75,16.58,7.57,24.94,11.16a4.3,4.3,0,0,0,3.81-.53,34.65,34.65,0,0,0,5.5-6.41c2.83-4.31,5.3-8.83,8.06-13.19a3,3,0,0,1,2.36-1.24,75.58,75.58,0,0,0,30.6-1.83,3.16,3.16,0,0,1,2.69.66c4.86,5.33,9.62,10.73,14.34,16.18,3.16,3.64,4.8,4.05,8.65,1.39q10.86-7.49,21.58-15.18c2.53-1.8,3-3.74,1.56-6.56-3.29-6.32-6.72-12.56-10-18.88a2.76,2.76,0,0,1,.05-2.4,76,76,0,0,0,14.25-27.69,3,3,0,0,1,2.71-2.41q10.5-2,21-4.17C349.61,308.26,350.39,307.31,350,302.7ZM249.11,340.77a44.67,44.67,0,1,1,44.67-44.67A44.66,44.66,0,0,1,249.11,340.77Z" style="fill-rule:evenodd;fill:url(#a)"/><path d="M141.78,267.4a5,5,0,0,1-1.95-.36c-6.64-2.86-13.34-5.9-19.81-8.84l-5.15-2.34c-3.79-1.71-5.07-4.57-3.82-8.51l2-6c1.6-5,3.26-10.11,4.81-15.18a2.25,2.25,0,0,0-.08-1.27A78.51,78.51,0,0,1,99.5,196.6c-.38-1-.52-1.08-1.32-1.1-4.56-.12-9.18-.32-13.65-.52-2.27-.1-4.53-.2-6.8-.28-4.62-.2-6.54-2.1-6.85-6.77s-.65-9.26-1-13.89c-.3-4-.6-8.1-.87-12.16-.35-5.34.91-7,6.13-8l4.2-.83c5.58-1.11,11.35-2.26,17.05-3.3.71-.13.89-.25,1.3-1.29l1.2-3.15A111.9,111.9,0,0,1,104,133.18a76.31,76.31,0,0,1,6.66-10.13l1.33-1.83c.56-.76.5-.85.22-1.36-3.61-6.56-7.11-13-9.76-18-2.18-4.08-1.42-7,2.56-9.72,6.89-4.73,13.84-9.61,20.56-14.33l.86-.6c3.81-2.71,6.47-2.42,9.51,1,4.47,5.08,9.69,11,15,16.79a1.68,1.68,0,0,0,1,.35A76.41,76.41,0,0,1,186,94.35c.55.11.63.13,1-.46,3.41-5.25,7.06-10.81,11.5-17.51,2.36-3.55,4.92-4.3,8.55-2.5,4.79,2.35,9.59,4.86,14.23,7.28q2.91,1.53,5.83,3l1.3.7c3.64,2,7.41,4,6.69,8.54l-.06.26-1.26,3.82c-.87,2.62-1.73,5.25-2.64,7.86-1.08,3.14-2.36,6.79-3.75,10.33-.26.67-.28,1,.47,2,3.43,4.52,7.39,9.81,11,15.28a35.2,35.2,0,0,1,4,8.58c.47,1.47,1,1.84,2.74,1.88,4.06.07,8.18.2,12.16.32L265,144c4.57.12,6.5,1.9,6.9,6.37l.48,5.52c.61,6.81,1.23,13.84,1.77,20.78.43,5.44-.86,7.13-6.24,8.24-6.77,1.39-13.83,2.79-21,4.17-.95.19-1.19.4-1.43,1.24a79,79,0,0,1-5.81,14.88l-2.94-1.51a75.39,75.39,0,0,0,5.57-14.26,4.61,4.61,0,0,1,4-3.59c7.15-1.38,14.2-2.78,21-4.17,3.73-.77,3.9-1,3.6-4.75-.54-6.91-1.16-13.94-1.76-20.74l-.49-5.52c-.24-2.75-.83-3.28-3.68-3.36-2.44-.06-4.87-.14-7.3-.21-4-.13-8.08-.25-12.12-.33-2.11,0-4.68-.55-5.83-4.18a32.16,32.16,0,0,0-3.57-7.76c-3.56-5.38-7.48-10.62-10.88-15.11a4.85,4.85,0,0,1-.91-5.17c1.37-3.47,2.63-7.09,3.71-10.2.9-2.6,1.76-5.21,2.62-7.82.4-1.22.81-2.45,1.22-3.68.24-1.94-1.22-2.93-5-5l-1.28-.7-5.81-3c-4.62-2.41-9.39-4.91-14.15-7.25-2.12-1-2.89-.8-4.33,1.37-4.44,6.69-8.09,12.24-11.48,17.46a3.86,3.86,0,0,1-4.43,1.93,73.19,73.19,0,0,0-32.71,1,4.71,4.71,0,0,1-4.16-1.33c-5.32-5.81-10.56-11.74-15-16.84-1.91-2.17-2.67-2.24-5.11-.51l-.87.61c-6.73,4.72-13.68,9.61-20.58,14.35-2.58,1.76-2.89,2.88-1.52,5.42,2.64,4.92,6.13,11.4,9.73,17.94a4.12,4.12,0,0,1-.43,4.91L113.33,125a74.85,74.85,0,0,0-6.38,9.68,112.48,112.48,0,0,0-5,11.76c-.4,1.06-.8,2.13-1.21,3.18A4.65,4.65,0,0,1,97,153c-5.66,1-11.42,2.18-17,3.29l-4.21.83c-3.59.71-3.72.88-3.48,4.56q.42,6.08.88,12.14c.34,4.64.68,9.27,1,13.91.2,3,.78,3.56,3.68,3.68l6.81.29c4.46.2,9.07.4,13.59.52a4.3,4.3,0,0,1,4.34,3.26,75.36,75.36,0,0,0,17.54,27.14,5,5,0,0,1,.83,4.49c-1.56,5.1-3.22,10.25-4.83,15.23-.64,2-1.29,4-1.94,6-.75,2.36-.26,3.46,2,4.49l5.16,2.34c6.45,2.93,13.13,6,19.75,8.81a2.89,2.89,0,0,0,2.05-.24,32.38,32.38,0,0,0,5.22-6.09c1.57-2.39,3.06-4.89,4.5-7.32,1.14-1.92,2.33-3.91,3.55-5.84a4.56,4.56,0,0,1,4-2,85.33,85.33,0,0,0,12.88.73l.08,3.3a88.06,88.06,0,0,1-13.39-.75,2.14,2.14,0,0,0-.75.49c-1.2,1.89-2.37,3.86-3.5,5.76-1.46,2.46-3,5-4.58,7.44a36,36,0,0,1-5.76,6.73A5.63,5.63,0,0,1,141.78,267.4Z" style="fill:#d3c3f1"/><path d="M303.37,170.62a3.24,3.24,0,0,1-1.36-.26c-3.62-1.55-7.26-3.21-10.79-4.81l-2.72-1.23a4.14,4.14,0,0,1-2.48-5.53l1.07-3.31c.87-2.72,1.75-5.44,2.58-8.16v-.08a43.4,43.4,0,0,1-9.89-15.41,1,1,0,0,0,0-.1c-2.46-.06-4.92-.17-7.39-.28l-3.66-.16c-2.87-.12-4.24-1.47-4.43-4.36-.17-2.5-.35-5-.53-7.47q-.25-3.31-.48-6.63c-.21-3.25.74-4.5,3.93-5.13l2.21-.44c3-.6,6.18-1.23,9.29-1.8h0l.09-.22c.22-.55.43-1.12.64-1.67a65,65,0,0,1,2.81-6.66A43.11,43.11,0,0,1,286,91.3l.7-1h0c-1.79-3.26-3.51-6.44-5.23-9.64-1.37-2.56-.85-4.54,1.62-6.24,3.91-2.68,7.81-5.42,11.59-8.07a5.08,5.08,0,0,1,2.88-1.12,4.39,4.39,0,0,1,3.26,1.8c3,3.37,5.47,6.19,8,9a42.08,42.08,0,0,1,18.46-.57c2-3.15,4.09-6.26,6.15-9.36a4.17,4.17,0,0,1,3.42-2.2,4.94,4.94,0,0,1,2.18.58c2.58,1.27,5.17,2.62,7.67,3.93l3.19,1.66.72.39c2,1.08,4.48,2.43,4,5.41l-.07.26-.65,2c-.48,1.46-1,2.91-1.46,4.36-.62,1.8-1.3,3.73-2,5.61l0,.09a2.07,2.07,0,0,1,.18.24c1.87,2.46,4,5.34,6,8.31a19.94,19.94,0,0,1,2.23,4.82c.16.48.16.48.78.5,2.21,0,4.41.1,6.62.17l3.9.11c2.84.08,4.22,1.36,4.47,4.15l.25,2.87c.33,3.78.67,7.57,1,11.36.25,3.31-.71,4.58-4,5.26-3.68.76-7.51,1.51-11.37,2.26l-.15,0a.46.46,0,0,0,0,.09,42.9,42.9,0,0,1-7.77,15.25c.85,1.62,1.71,3.23,2.58,4.85s1.84,3.44,2.74,5.18a4,4,0,0,1-1.35,5.65c-4.52,3.23-8.24,5.84-11.69,8.23a5.69,5.69,0,0,1-3.12,1.22h0c-1.66,0-2.81-1.16-3.75-2.25-2.91-3.35-5.32-6.08-7.6-8.58h0A42.43,42.43,0,0,1,313.39,159c-.62,1-1.22,2-1.81,3-.79,1.34-1.61,2.72-2.5,4.06a19.36,19.36,0,0,1-3.24,3.78A3.88,3.88,0,0,1,303.37,170.62Zm-36.84-59.3a10.75,10.75,0,0,0,0,1.3q.22,3.3.47,6.6.28,3.73.54,7.49c.08,1.23.1,1.23,1.27,1.28l3.67.16c2.45.1,4.9.21,7.35.27a3.09,3.09,0,0,1,3,2.27,40.09,40.09,0,0,0,9.31,14.41,3.43,3.43,0,0,1,.64,3.18c-.84,2.75-1.72,5.48-2.61,8.21l-1.06,3.3c-.29.91-.2,1.11.69,1.51l2.73,1.24c3.5,1.59,7.12,3.24,10.7,4.78h.08a1.19,1.19,0,0,0,.32,0,17.09,17.09,0,0,0,2.63-3.09c.84-1.27,1.64-2.62,2.42-3.93.63-1.06,1.26-2.13,1.93-3.17a3.29,3.29,0,0,1,2.59-1.45l.3,0a39,39,0,0,0,15.89-1,3.12,3.12,0,0,1,.77-.1,3.29,3.29,0,0,1,2.35.94c2.33,2.56,4.81,5.35,7.79,8.78.91,1.06,1.2,1.11,1.25,1.11s.39,0,1.24-.63c3.44-2.38,7.14-5,11.65-8.2.71-.51.75-.65.34-1.44q-1.35-2.58-2.73-5.14c-.9-1.69-1.81-3.38-2.69-5.07a3.06,3.06,0,0,1,.21-3.1,39.56,39.56,0,0,0,7.4-14.38,3.28,3.28,0,0,1,2.74-2.49c3.86-.74,7.67-1.5,11.33-2.25a3.68,3.68,0,0,0,1.35-.41,5.15,5.15,0,0,0,0-1.36c-.3-3.77-.63-7.55-1-11.32l-.26-2.87c-.07-.8-.21-1-.21-1a2.15,2.15,0,0,0-1-.17l-3.91-.11c-2.19-.07-4.39-.14-6.58-.18a3.77,3.77,0,0,1-3.87-2.79,16.07,16.07,0,0,0-1.84-4c-1.9-2.89-4-5.71-5.85-8.13a3.37,3.37,0,0,1-.6-3.53c.72-1.83,1.38-3.72,2-5.49.49-1.44,1-2.87,1.44-4.31l.6-1.82c0-.5-.44-.86-2.33-1.88l-.7-.38-3.16-1.65c-2.49-1.3-5.05-2.64-7.6-3.89a1.88,1.88,0,0,0-.72-.25c-.07,0-.31.2-.66.73q-3.12,4.69-6.2,9.43a2.82,2.82,0,0,1-3.18,1.37,38.8,38.8,0,0,0-17.36.55,3.28,3.28,0,0,1-3-.94c-2.61-2.85-5.14-5.7-8.15-9.12-.56-.64-.78-.68-.78-.68s-.28,0-1,.52c-3.79,2.66-7.7,5.41-11.61,8.09-1.16.8-1.11,1-.59,2Q287,84,289.61,88.82a3,3,0,0,1-.29,3.47l-.71,1a39.69,39.69,0,0,0-3.41,5.17,59,59,0,0,0-2.66,6.3c-.21.57-.42,1.14-.64,1.7a3.28,3.28,0,0,1-2.63,2.29c-3.08.56-6.21,1.18-9.23,1.78l-2.22.45a3.74,3.74,0,0,0-1.29.37Z" style="fill:#d3c3f1"/><g style="mix-blend-mode:multiply"><path d="M232,309a2.58,2.58,0,0,1-1.82-.76l-9.53-9.53a2.57,2.57,0,0,1,0-3.65l9.52-9.52a2.59,2.59,0,1,1,3.66,3.66l-7.7,7.69,7.7,7.69A2.59,2.59,0,0,1,232,309Z" style="fill:#ccc"/><path d="M267.85,309a2.59,2.59,0,0,1-1.82-4.42l7.69-7.69-7.7-7.69a2.58,2.58,0,0,1,3.65-3.66l9.53,9.53a2.57,2.57,0,0,1,0,3.65l-9.52,9.52A2.6,2.6,0,0,1,267.85,309Z" style="fill:#ccc"/><path d="M254.8,309a2.6,2.6,0,0,1-2.28-1.37l-10.2-19a2.58,2.58,0,1,1,4.55-2.44l10.21,19a2.59,2.59,0,0,1-1.06,3.5A2.54,2.54,0,0,1,254.8,309Z" style="fill:#ccc"/></g><path d="M230.37,307.38a2.57,2.57,0,0,1-1.82-.75L219,297.1a2.56,2.56,0,0,1-.76-1.83,2.59,2.59,0,0,1,.76-1.82l9.52-9.52a2.58,2.58,0,1,1,3.65,3.65l-7.69,7.69,7.7,7.7a2.58,2.58,0,0,1-1.83,4.41Z" style="fill:url(#b)"/><path d="M266.2,307.38a2.58,2.58,0,0,1-1.82-4.41l7.69-7.69-7.7-7.7a2.58,2.58,0,0,1,3.65-3.65l9.53,9.52a2.63,2.63,0,0,1,.76,1.83,2.6,2.6,0,0,1-.76,1.83L268,306.63A2.61,2.61,0,0,1,266.2,307.38Z" style="fill:url(#c)"/><path d="M253.15,307.38a2.59,2.59,0,0,1-2.28-1.36l-10.21-19a2.59,2.59,0,1,1,4.56-2.44l10.21,19a2.59,2.59,0,0,1-1.06,3.5A2.68,2.68,0,0,1,253.15,307.38Z" style="fill:url(#d)"/><path d="M689.88,248H497.55a91.09,91.09,0,0,0-158.09-7.8c-1.88,3-.86,9.17,4.6,9.17h46.25a38.58,38.58,0,0,1,38.57,38.58v2.43a38.57,38.57,0,0,1-38.57,38.57H344.92c-5.74,0-7.31,6.29-5.41,9.27a91.1,91.1,0,0,0,158-7.89H689.88a41.17,41.17,0,1,0,0-82.33Zm1.11,53.6a12.44,12.44,0,1,1,12.44-12.44A12.44,12.44,0,0,1,691,301.57Z" style="fill:url(#e)"/><path d="M685.41,321.35H509.82v-6.22H685.41a26,26,0,1,0,0-52H509.82v-6.22H685.41a32.22,32.22,0,1,1,0,64.43Z" style="mix-blend-mode:multiply;fill:url(#f)"/><path d="M570.45,277.5h-3.67l-3,8.7-.6,1.72-3.64-10.42H555.7l-3.63,10.42-.61-1.72-3-8.7h-4.65l.33,1,1.17,3.34,2.83,8.15,2,5.92H554l3.63-10.4,3.62,10.4h3.82L567.1,290l2.84-8.15,1.16-3.34.34-1Zm15.49,12.64-.56.3a23.43,23.43,0,0,1-2.56,1.14,8.06,8.06,0,0,1-2.71.48,4.77,4.77,0,0,1-2.84-.75,3.51,3.51,0,0,1-1.17-1.74h2.42a12.45,12.45,0,0,0,5.69-1.17,5.44,5.44,0,0,0,3.09-5,5.37,5.37,0,0,0-2.48-4.65,8.7,8.7,0,0,0-4.91-1.45,8.22,8.22,0,0,0-6.41,2.93,10.38,10.38,0,0,0-2.3,7,9.15,9.15,0,0,0,2.26,6.52,8.38,8.38,0,0,0,6.42,2.57,14.53,14.53,0,0,0,7.7-2.35l.61-.39Zm-7.68-8.41a3.13,3.13,0,0,1,1.51-.37,5.78,5.78,0,0,1,1.21.12,2.64,2.64,0,0,1,1,.39,1.61,1.61,0,0,1,.56.56,1.64,1.64,0,0,1,.24.93,1.25,1.25,0,0,1-.3,1,3.86,3.86,0,0,1-1.17.76,7.75,7.75,0,0,1-2.77.29h-2.69a5.92,5.92,0,0,1,1.17-2.54A5.24,5.24,0,0,1,578.26,281.73Zm26.42-1.9a8.47,8.47,0,0,0-10.14-2v-7.94h-4.47v25.38l.5.15a25.83,25.83,0,0,0,6.38.81c3.25,0,5.75-.94,7.44-2.8a10.45,10.45,0,0,0,2.46-7A10.67,10.67,0,0,0,604.68,279.83Zm-5,11.78a5.36,5.36,0,0,1-2.32.41c-.73,0-1.73-.07-2.79-.17V284a2.38,2.38,0,0,1,.73-1.59,3.9,3.9,0,0,1,3-1.3,3.36,3.36,0,0,1,3,1.68,6.87,6.87,0,0,1,1,3.79,5.74,5.74,0,0,1-1.19,3.85A4,4,0,0,1,599.64,291.61Zm9.27-14.08h4.47v18.36h-4.47ZM634,295.9V283.16a6.64,6.64,0,0,0-.55-2.76c-1-2-3.23-3.14-6.3-3.14a7.8,7.8,0,0,0-5.5,1.94,7.51,7.51,0,0,0-1.93-1.87l-.46-.33-2.92,2.66.56.52a4.62,4.62,0,0,1,1.09,1.45,5.1,5.1,0,0,1,.31,1.84v12.44h4.47v-12.1a7.5,7.5,0,0,1,1.77-1.68,4.28,4.28,0,0,1,2.44-.74,2.93,2.93,0,0,1,2,.63c.28.25.56.69.56,2V295.9Zm6.6-.45c2.52-1.82,5.14-1.06,7.77-1h.49a38.42,38.42,0,0,0,4.32-.26V277.53h-4.46v11.31s-.71,2.86-3.39,2.9c0,0-3,.23-3.38-2.31V277.55h-4.46v12.73A6.8,6.8,0,0,0,638,293,5.17,5.17,0,0,0,640.6,295.45Z" style="fill:#fff"/><path d="M659.33,285.12a7.57,7.57,0,0,0-5.73-.88h0v5.07a1.34,1.34,0,0,1,.19-.26,2.1,2.1,0,0,1,.33-.26,3,3,0,0,1,2.9.12,2.29,2.29,0,0,1,1.09,2.28,2.64,2.64,0,0,1-1,1.93,7.8,7.8,0,0,1-3.6,1.45h-.07l-.14,0v0a44.09,44.09,0,0,1-4.44.2h-1c-.89-.05-1.71-.11-2.41-.17h-.71l-.62,0-.54.05-.17,0a6.77,6.77,0,0,0-2.53,1l-.07.05a6,6,0,0,0-1.84,1.88,7.42,7.42,0,0,0,0,7.52,6.69,6.69,0,0,0,6.32,3.32,7.07,7.07,0,0,0,5-2.41,11.28,11.28,0,0,0,2.36-4.88c.14-.57.25-1.14.33-1.68l-4.52-.1c-.1.48-.22,1-.36,1.43A6.35,6.35,0,0,1,647,303a2.7,2.7,0,0,1-1.95.92,2.26,2.26,0,0,1-2.25-1.14,2.93,2.93,0,0,1-.07-2.89,1.64,1.64,0,0,1,.26-.33,2.84,2.84,0,0,1,2.1-.56c.86,0,1.69,0,2.51,0h0c.32,0,.63,0,.94,0h0l4.58.1A13.24,13.24,0,0,0,660,296.5a7.11,7.11,0,0,0,2.51-5,6.69,6.69,0,0,0-3.2-6.39" style="fill:#fff"/><path d="M417.59,418.46a123.93,123.93,0,0,1-76.34-26l.68-.87a122.78,122.78,0,0,0,75.66,25.75,124,124,0,0,0,0-247.95,122.86,122.86,0,0,0-90.14,38.85l-.8-.75a123.92,123.92,0,0,1,90.94-39.2,125.08,125.08,0,0,1,0,250.16Z" style="fill:#f94f24"/><path d="M246.31,436.08c-75.35,0-136.65-61.3-136.65-136.65a137.81,137.81,0,0,1,2.77-27.54l1.08.22a136.35,136.35,0,0,0-2.75,27.32c0,74.74,60.8,135.55,135.55,135.55a134.34,134.34,0,0,0,81.78-27.44l.67.88A135.44,135.44,0,0,1,246.31,436.08Z" style="fill:#f94f24"/><path d="M662.55,355.42H657.7a1.66,1.66,0,1,1,0-3.31h4.85a1.66,1.66,0,1,1,0,3.31Zm-16.36,0h-6.9a1.66,1.66,0,1,1,0-3.31h6.9a1.66,1.66,0,0,1,0,3.31Zm-18.41,0h-6.9a1.66,1.66,0,1,1,0-3.31h6.9a1.66,1.66,0,0,1,0,3.31Zm-18.41,0h-6.9a1.66,1.66,0,1,1,0-3.31h6.9a1.66,1.66,0,0,1,0,3.31Zm-18.41,0h-6.9a1.66,1.66,0,1,1,0-3.31H591a1.66,1.66,0,1,1,0,3.31Zm-18.41,0h-6.9a1.66,1.66,0,0,1,0-3.31h6.9a1.66,1.66,0,1,1,0,3.31Zm-18.41,0h-6.9a1.66,1.66,0,0,1,0-3.31h6.9a1.66,1.66,0,1,1,0,3.31Zm-18.41,0h-6.9a1.66,1.66,0,0,1,0-3.31h6.9a1.66,1.66,0,1,1,0,3.31Zm-18.41,0h-6.9a1.66,1.66,0,0,1,0-3.31h6.9a1.66,1.66,0,1,1,0,3.31Z" style="fill:#f94f24"/></g></svg>