<svg width="162" height="145" viewBox="0 0 162 145" fill="none" xmlns="http://www.w3.org/2000/svg">
<path fill-rule="evenodd" clip-rule="evenodd" d="M139.924 114.207L89.931 142.841C85.1996 145.55 79.3708 145.55 74.6396 142.841L24.6457 114.207C19.9145 111.497 17.0001 106.49 17.0001 101.07L17.0001 43.8026C17.0001 38.3832 19.9145 33.3753 24.6457 30.666L74.6396 2.03213C79.3708 -0.678027 85.1996 -0.678027 89.931 2.03213L139.924 30.666C144.655 33.3753 147.57 38.3832 147.57 43.8026V101.07C147.57 106.49 144.655 111.497 139.924 114.207Z" fill="white"/>
<mask id="mask0" mask-type="alpha" maskUnits="userSpaceOnUse" x="0" y="22" width="162" height="102">
<rect y="22" width="162" height="102" fill="white"/>
</mask>
<g mask="url(#mask0)">
<path fill-rule="evenodd" clip-rule="evenodd" d="M79.4261 79.6062C79.4261 79.6062 63.6689 87.7153 56.0372 83.8072C48.4055 79.8992 47.7065 73.0698 50.7544 62.2591C53.8022 51.4485 61.3709 45.3067 73.1049 53.3709C84.839 61.4352 92.3467 71.9448 79.4261 79.6062Z" fill="#F2F2F2"/>
<path fill-rule="evenodd" clip-rule="evenodd" d="M99.9216 74.8763C99.9216 74.8763 100.125 64.2568 104.341 61.3334C108.557 58.4101 112.359 59.9826 117.186 64.6597C122.014 69.3367 123.105 75.0696 115.532 78.9776C107.96 82.8856 100.293 83.8682 99.9216 74.8763Z" fill="#F2F2F2"/>
<path d="M81.2852 45.022V53.3914" stroke="#F94F24" stroke-linecap="round" stroke-dasharray="3.4 2.27"/>
<path d="M81.2852 88.1997V96.5671" stroke="#F94F24" stroke-linecap="round" stroke-dasharray="3.4 2.27"/>
<path d="M45.4471 87.1215L56.531 80.0562" stroke="#F94F24" stroke-linecap="round" stroke-dasharray="3.4 2.27"/>
<path d="M45.4471 55.355L58.4918 67.2764" stroke="#F94F24" stroke-linecap="round" stroke-dasharray="3.4 2.27"/>
<path d="M117.757 87.1215L106.674 80.0562" stroke="#F94F24" stroke-linecap="round" stroke-dasharray="3.4 2.27"/>
<path d="M117.757 55.355L106.726 65.2604" stroke="#F94F24" stroke-linecap="round" stroke-dasharray="3.4 2.27"/>
<path fill-rule="evenodd" clip-rule="evenodd" d="M107.57 47.6462C107.57 49.855 106.242 51.8466 104.204 52.6924C102.166 53.5381 99.8205 53.0714 98.2604 51.5099C96.7004 49.9483 96.2335 47.5996 97.0775 45.559C97.9215 43.5184 99.9103 42.1879 102.116 42.188C103.562 42.1875 104.949 42.7623 105.972 43.786C106.995 44.8097 107.57 46.1983 107.57 47.6462Z" fill="#F2F2F2"/>
<path fill-rule="evenodd" clip-rule="evenodd" d="M104.782 95.2199C104.782 96.2994 104.132 97.2727 103.136 97.6858C102.14 98.0989 100.993 97.8706 100.231 97.1072C99.4684 96.3439 99.2403 95.1958 99.653 94.1985C100.066 93.2011 101.038 92.5508 102.116 92.5508C102.823 92.5502 103.501 92.8313 104.001 93.3319C104.502 93.8326 104.782 94.5118 104.782 95.2199Z" fill="#F2F2F2"/>
<path fill-rule="evenodd" clip-rule="evenodd" d="M68.1837 100.729C68.1837 102.89 66.4344 104.642 64.2764 104.642C62.1185 104.642 60.3691 102.89 60.3691 100.729C60.3691 98.5689 62.1185 96.8174 64.2764 96.8174C66.4339 96.8185 68.1826 98.5694 68.1837 100.729Z" fill="#F2F2F2"/>
<g style="mix-blend-mode:multiply">
<path fill-rule="evenodd" clip-rule="evenodd" d="M104.097 76.1074C104.538 73.483 105.33 70.0042 103.87 67.5772C103.795 67.4524 103.788 67.2979 103.853 67.1674C103.917 67.0369 104.044 66.9483 104.189 66.9323C101.578 63.9923 97.5945 62.6767 93.7488 63.4841C90.6636 59.0252 85.2589 56.7851 79.9287 57.7559C74.5985 58.7268 70.328 62.7291 69.0087 67.9902C68.7091 67.9575 68.408 67.9412 68.1066 67.9414C63.352 67.9414 59.4976 71.8005 59.4976 76.561C59.4976 81.3215 63.352 85.1807 68.1066 85.1807H96.0042C98.3652 85.1807 100.235 84.5561 101.986 82.8025C103.008 80.6843 103.719 78.4293 104.097 76.1074V76.1074Z" fill="#EBEBEB"/>
</g>
<path fill-rule="evenodd" clip-rule="evenodd" d="M95.0003 62.1515C94.2452 62.1522 93.4922 62.2306 92.7531 62.3855C89.6682 57.9266 84.2638 55.6862 78.9337 56.6566C73.6035 57.627 69.3328 61.6288 68.013 66.8896C67.7133 66.8586 67.4122 66.843 67.1109 66.8428C62.3578 66.8447 58.5055 70.7029 58.5052 75.4619C58.505 80.2209 62.3567 84.0796 67.1098 84.0821H95.0003C101.049 84.0821 105.952 79.1728 105.952 73.1168C105.952 67.0609 101.049 62.1515 95.0003 62.1515V62.1515Z" fill="url(#paint0_linear)"/>
<path fill-rule="evenodd" clip-rule="evenodd" d="M81.3971 53.3912C77.6046 53.3772 73.9208 54.6581 70.9533 57.0226C68.6809 58.8289 66.9083 61.1877 65.8045 63.8744C59.6589 64.5575 55.1183 69.9308 55.463 76.1121C55.8077 82.2934 60.9175 87.1272 67.1009 87.1212H95.0005C100.038 87.1819 104.719 84.5258 107.256 80.1675C109.793 75.8091 109.793 70.4218 107.256 66.0635C104.719 61.7051 100.038 59.0491 95.0004 59.1099C94.6875 59.1099 94.3746 59.12 94.0617 59.1424C90.8629 55.4908 86.2483 53.3953 81.3971 53.3912V53.3912Z" stroke="#F94F24" stroke-linecap="round" stroke-dasharray="3.4 2.27"/>
<path fill-rule="evenodd" clip-rule="evenodd" d="M67.1006 68.1628C67.402 68.163 67.7031 68.1786 68.0028 68.2096C69.3211 62.9444 73.595 58.939 78.9292 57.9696C84.2635 57.0001 89.6707 59.2462 92.753 63.7116C93.4925 63.5598 94.2454 63.4835 95.0003 63.4837C100.77 63.4844 105.55 67.968 105.926 73.7329C105.942 73.4949 105.952 73.2569 105.952 73.0148C105.952 69.7088 104.463 66.5806 101.9 64.4989C99.337 62.4172 95.9728 61.6041 92.7434 62.2858C89.6582 57.8279 84.2545 55.5882 78.925 56.5585C73.5956 57.5287 69.3252 61.5297 68.0048 66.7896C67.7051 66.7586 67.404 66.743 67.1027 66.7428C62.3481 66.7428 58.4936 70.602 58.4937 75.3625C58.4937 75.6025 58.5058 75.8426 58.5262 76.0786C58.8911 71.6077 62.6204 68.1649 67.1007 68.1628L67.1006 68.1628Z" fill="#C4ECEC"/>
<g style="mix-blend-mode:multiply">
<path fill-rule="evenodd" clip-rule="evenodd" d="M88.9213 67.6444C87.3099 66.0275 84.8011 65.7283 82.8555 66.921C80.9099 68.1138 80.0353 70.487 80.741 72.6592L75.1838 78.2232C75.0988 78.3067 75.0512 78.4212 75.0518 78.5405V81.0815C75.0518 81.3298 75.2528 81.5311 75.5008 81.5311L78.0386 81.5311C78.1575 81.5303 78.2713 81.4828 78.3556 81.3988L78.9895 80.7641C79.0868 80.6669 79.134 80.5304 79.1175 80.3938L79.0383 79.7123L79.9831 79.6228C80.1992 79.6039 80.3706 79.4323 80.3895 79.2159L80.4789 78.27L81.1616 78.3493C81.2886 78.366 81.4164 78.3258 81.5111 78.2394C81.6067 78.1542 81.6614 78.032 81.6614 77.9038L81.6614 77.0676H82.4742C82.5937 77.067 82.7082 77.0195 82.7932 76.9354L83.9432 75.7982C85.6883 76.3842 87.6142 75.9321 88.9172 74.6305C90.8409 72.7007 90.8427 69.5764 88.9213 67.6444L88.9213 67.6444ZM87.6514 70.82C87.2668 71.2053 86.6882 71.3206 86.1855 71.1122C85.6828 70.9038 85.355 70.4126 85.355 69.8679C85.355 69.3231 85.6828 68.832 86.1855 68.6236C86.6882 68.4152 87.2668 68.5305 87.6514 68.9158C88.1753 69.4421 88.1753 70.2936 87.6514 70.82Z" fill="#CCCCCC"/>
</g>
<path fill-rule="evenodd" clip-rule="evenodd" d="M88.4355 66.9301C86.8241 65.3131 84.3153 65.0139 82.3696 66.2067C80.424 67.3994 79.5495 69.7726 80.2552 71.9448L74.698 77.5088C74.6145 77.5934 74.5671 77.7072 74.5659 77.8262L74.5659 80.3691C74.5659 80.6174 74.767 80.8187 75.015 80.8187L77.5528 80.8187C77.6719 80.8194 77.7863 80.7717 77.8697 80.6865L78.5037 80.0518C78.6012 79.9548 78.6484 79.8181 78.6317 79.6815L78.5545 79L79.4973 78.9105C79.7138 78.8924 79.8855 78.7204 79.9036 78.5036L79.993 77.5576L80.6757 77.637C80.8027 77.6537 80.9306 77.6135 81.0252 77.5271C81.1209 77.4418 81.1756 77.3197 81.1756 77.1915V76.3553H81.9883C82.1074 76.3553 82.2214 76.3077 82.3053 76.2231L83.4553 75.0879C85.2008 75.6724 87.1263 75.2196 88.4294 73.9181C90.3549 71.9887 90.3576 68.8629 88.4354 66.9301H88.4355ZM87.1656 70.1056C86.7809 70.4909 86.2023 70.6062 85.6996 70.3978C85.1969 70.1894 84.8691 69.6983 84.8691 69.1535C84.8691 68.6088 85.1969 68.1176 85.6996 67.9092C86.2023 67.7008 86.7809 67.8161 87.1656 68.2014C87.4182 68.4537 87.5602 68.7963 87.5602 69.1535C87.5602 69.5108 87.4182 69.8533 87.1656 70.1056Z" fill="#FFC300"/>
<path fill-rule="evenodd" clip-rule="evenodd" d="M87.5801 70.5371C88.1043 70.01 88.1043 69.1579 87.5801 68.6308C87.5108 68.5613 87.4337 68.4999 87.3505 68.4478C87.6893 68.9803 87.6131 69.6771 87.1672 70.1236C86.7212 70.5701 86.0253 70.6464 85.4934 70.3072C85.5468 70.3901 85.6088 70.4671 85.6783 70.5371C86.204 71.0616 87.0544 71.0616 87.5801 70.5371V70.5371Z" fill="#FFD344"/>
<path fill-rule="evenodd" clip-rule="evenodd" d="M74.9804 80.7988V78.2579C74.9799 78.139 75.0267 78.0248 75.1105 77.9405L80.6697 72.3745C79.9826 70.2547 80.799 67.937 82.6621 66.7176C84.5252 65.4983 86.9731 65.6797 88.6366 67.1604C88.5716 67.0871 88.5039 67.0193 88.4334 66.9569C86.822 65.34 84.3133 65.0408 82.3676 66.2335C80.422 67.4263 79.5474 69.7995 80.2531 71.9716L74.698 77.5214C74.6141 77.6058 74.5666 77.7197 74.5659 77.8388V80.3797C74.5664 80.6147 74.7483 80.8092 74.9825 80.8252C74.9824 80.8191 74.9804 80.809 74.9804 80.7988Z" fill="#FFD344"/>
<path fill-rule="evenodd" clip-rule="evenodd" d="M81.2385 73.2592C81.1135 73.1356 80.9125 73.1356 80.7874 73.2592L75.6204 78.4326C75.497 78.5578 75.497 78.7591 75.6204 78.8842C75.68 78.9446 75.7612 78.9786 75.8459 78.9786C75.9307 78.9786 76.0119 78.9446 76.0715 78.8842L81.2385 73.7129C81.3633 73.5874 81.3633 73.3846 81.2385 73.2592V73.2592Z" fill="#FFA200"/>
<ellipse cx="81.6044" cy="35.2342" rx="9.79127" ry="9.77984" transform="rotate(-80.78 81.6044 35.2342)" fill="#F1ECFA"/>
<ellipse cx="81.6016" cy="35.2314" rx="7.18812" ry="7.19438" transform="rotate(-22.5 81.6016 35.2314)" fill="url(#paint1_linear)" stroke="#F94F24" stroke-linecap="round"/>
<path fill-rule="evenodd" clip-rule="evenodd" d="M83.2034 33.8983C83.2034 34.7971 82.4756 35.5258 81.5779 35.5258V35.5258C80.6802 35.5258 79.9524 34.7971 79.9524 33.8983V32.6573C79.9524 31.7584 80.6802 31.0298 81.5779 31.0298V31.0298C82.4756 31.0298 83.2034 31.7584 83.2034 32.6573V33.8983Z" stroke="white" stroke-linecap="round"/>
<path d="M80.688 35.231V36.3519L79.0279 36.9337C79.0279 36.9337 78.0994 37.3223 78.0994 38.2134V39.0719" stroke="white" stroke-linecap="round" stroke-linejoin="round"/>
<path d="M82.4822 35.231V36.3519L84.1422 36.9337C84.1422 36.9337 85.0728 37.3223 85.0728 38.2134V39.0719" stroke="white" stroke-linecap="round" stroke-linejoin="round"/>
<path d="M79.6313 33.0742C79.6313 33.0742 81.8664 32.8565 82.9372 31.7783" stroke="white" stroke-linecap="round"/>
<path d="M80.6877 36.3516L81.5858 37.4766L82.4819 36.3516" stroke="white" stroke-linecap="round"/>
<ellipse cx="36.7782" cy="51.1" rx="9.79127" ry="9.77983" transform="rotate(-80.78 36.7782 51.1)" fill="#F1ECFA"/>
<ellipse cx="36.7761" cy="51.0986" rx="7.18812" ry="7.19439" transform="rotate(-22.5 36.7761 51.0986)" fill="url(#paint2_linear)" stroke="#F94F24" stroke-linecap="round"/>
<path fill-rule="evenodd" clip-rule="evenodd" d="M38.3845 49.7659C38.3845 50.6648 37.6568 51.3934 36.759 51.3934V51.3934C35.8613 51.3934 35.1335 50.6648 35.1335 49.7659V48.525C35.1335 47.6261 35.8613 46.8975 36.759 46.8975V46.8975C37.6568 46.8975 38.3845 47.6261 38.3845 48.525V49.7659Z" stroke="white" stroke-linecap="round"/>
<path d="M35.8608 51.0986V52.2196L34.2008 52.8014C34.2008 52.8014 33.2722 53.19 33.2722 54.081V54.9395" stroke="white" stroke-linecap="round" stroke-linejoin="round"/>
<path d="M37.657 51.0986V52.2196L39.317 52.8014C39.317 52.8014 40.2476 53.19 40.2476 54.081V54.9395" stroke="white" stroke-linecap="round" stroke-linejoin="round"/>
<path d="M34.8081 48.9424C34.8081 48.9424 37.0432 48.7247 38.1119 47.6465" stroke="white" stroke-linecap="round"/>
<path d="M35.8629 52.2197L36.761 53.3447L37.6571 52.2197" stroke="white" stroke-linecap="round"/>
<ellipse cx="36.7775" cy="92.7766" rx="9.78129" ry="9.78981" transform="rotate(-22.5 36.7775 92.7766)" fill="#F1ECFA"/>
<ellipse cx="36.7788" cy="92.7781" rx="7.19545" ry="7.18705" transform="rotate(-80.78 36.7788 92.7781)" fill="url(#paint3_linear)" stroke="#F94F24" stroke-linecap="round"/>
<path fill-rule="evenodd" clip-rule="evenodd" d="M38.3845 91.4407C38.3845 92.3395 37.6568 93.0682 36.759 93.0682V93.0682C35.8613 93.0682 35.1335 92.3395 35.1335 91.4407V90.2017C35.1335 89.3029 35.8613 88.5742 36.759 88.5742V88.5742C37.6568 88.5742 38.3845 89.3029 38.3845 90.2017V91.4407Z" stroke="white" stroke-linecap="round"/>
<path d="M35.8608 92.7788V93.8998L34.2008 94.4816C34.2008 94.4816 33.2722 94.8681 33.2722 95.7612V96.6136" stroke="white" stroke-linecap="round" stroke-linejoin="round"/>
<path d="M37.657 92.7788V93.8998L39.317 94.4816C39.317 94.4816 40.2476 94.8681 40.2476 95.7612V96.6136" stroke="white" stroke-linecap="round" stroke-linejoin="round"/>
<path d="M34.8081 90.6161C34.8081 90.6161 37.0432 90.4005 38.1119 89.3223" stroke="white" stroke-linecap="round"/>
<path d="M35.8629 93.896L36.761 95.021L37.6571 93.896" stroke="white" stroke-linecap="round"/>
<ellipse cx="126.457" cy="51.0979" rx="9.79094" ry="9.78016" transform="rotate(-76.72 126.457 51.0979)" fill="#F1ECFA"/>
<ellipse cx="126.462" cy="51.0996" rx="7.18812" ry="7.19438" transform="rotate(-22.5 126.462 51.0996)" fill="url(#paint4_linear)" stroke="#F94F24" stroke-linecap="round"/>
<path fill-rule="evenodd" clip-rule="evenodd" d="M128.071 49.7659C128.071 50.6648 127.343 51.3934 126.446 51.3934V51.3934C125.548 51.3934 124.82 50.6648 124.82 49.7659V48.525C124.82 47.6261 125.548 46.8975 126.446 46.8975V46.8975C127.343 46.8975 128.071 47.6261 128.071 48.525V49.7659Z" stroke="white" stroke-linecap="round"/>
<path d="M125.549 51.0986V52.2196L123.889 52.8014C123.889 52.8014 122.959 53.19 122.959 54.081V54.9395" stroke="white" stroke-linecap="round" stroke-linejoin="round"/>
<path d="M127.344 51.0986V52.2196L129.004 52.8014C129.004 52.8014 129.932 53.19 129.932 54.081V54.9395" stroke="white" stroke-linecap="round" stroke-linejoin="round"/>
<path d="M124.493 48.9424C124.493 48.9424 126.728 48.7247 127.797 47.6465" stroke="white" stroke-linecap="round"/>
<path d="M125.55 52.2197L126.446 53.3447L127.344 52.2197" stroke="white" stroke-linecap="round"/>
<circle cx="126.463" cy="92.7764" r="9.78555" transform="rotate(-45 126.463 92.7764)" fill="#F1ECFA"/>
<ellipse cx="126.469" cy="92.78" rx="7.19546" ry="7.18705" transform="rotate(-80.78 126.469 92.78)" fill="url(#paint5_linear)" stroke="#F94F24" stroke-linecap="round"/>
<path fill-rule="evenodd" clip-rule="evenodd" d="M128.071 91.4407C128.071 92.3395 127.343 93.0682 126.446 93.0682V93.0682C125.548 93.0682 124.82 92.3395 124.82 91.4407V90.2017C124.82 89.3029 125.548 88.5742 126.446 88.5742V88.5742C127.343 88.5742 128.071 89.3029 128.071 90.2017V91.4407Z" stroke="white" stroke-linecap="round"/>
<path d="M125.549 92.7788V93.8998L123.889 94.4816C123.889 94.4816 122.959 94.8681 122.959 95.7612V96.6136" stroke="white" stroke-linecap="round" stroke-linejoin="round"/>
<path d="M127.344 92.7788V93.8998L129.004 94.4816C129.004 94.4816 129.932 94.8681 129.932 95.7612V96.6136" stroke="white" stroke-linecap="round" stroke-linejoin="round"/>
<path d="M124.493 90.6161C124.493 90.6161 126.728 90.4005 127.797 89.3223" stroke="white" stroke-linecap="round"/>
<path d="M125.55 93.896L126.446 95.021L127.344 93.896" stroke="white" stroke-linecap="round"/>
<ellipse cx="81.6002" cy="106.768" rx="9.77939" ry="9.79145" fill="#F1ECFA"/>
<ellipse cx="81.6001" cy="106.767" rx="7.18672" ry="7.19558" fill="url(#paint6_linear)" stroke="#F94F24" stroke-linecap="round"/>
<path fill-rule="evenodd" clip-rule="evenodd" d="M83.2034 105.432C83.2034 106.331 82.4756 107.06 81.5779 107.06V107.06C80.6802 107.06 79.9524 106.331 79.9524 105.432V104.193C79.9524 103.295 80.6802 102.566 81.5779 102.566V102.566C82.4756 102.566 83.2034 103.295 83.2034 104.193V105.432Z" stroke="white" stroke-linecap="round"/>
<path d="M80.688 106.765V107.886L79.0279 108.468C79.0279 108.468 78.0994 108.856 78.0994 109.75V110.602" stroke="white" stroke-linecap="round" stroke-linejoin="round"/>
<path d="M82.4822 106.765V107.886L84.1422 108.468C84.1422 108.468 85.0728 108.856 85.0728 109.75V110.602" stroke="white" stroke-linecap="round" stroke-linejoin="round"/>
<path d="M79.6313 104.609C79.6313 104.609 81.8664 104.391 82.9372 103.315" stroke="white" stroke-linecap="round"/>
<path d="M80.6877 107.886L81.5858 109.011L82.4819 107.886" stroke="white" stroke-linecap="round"/>
<path fill-rule="evenodd" clip-rule="evenodd" d="M81.2854 46.1003C81.7209 46.1003 82.1136 45.8376 82.2803 45.4347C82.447 45.0318 82.3549 44.5681 82.0469 44.2597C81.7389 43.9513 81.2757 43.8591 80.8733 44.026C80.4709 44.1928 80.2085 44.586 80.2085 45.0221C80.208 45.3082 80.3212 45.5828 80.5233 45.7851C80.7254 45.9874 80.9996 46.1009 81.2854 46.1003Z" fill="white" stroke="#F94F24" stroke-linecap="round"/>
<path fill-rule="evenodd" clip-rule="evenodd" d="M81.2854 54.4675C81.7211 54.4675 82.1139 54.2046 82.2805 53.8014C82.4471 53.3983 82.3545 52.9344 82.0461 52.6261C81.7377 52.3179 81.2742 52.2262 80.8719 52.3937C80.4695 52.5613 80.2077 52.955 80.2085 53.3913C80.2085 53.6771 80.322 53.9511 80.524 54.153C80.726 54.3549 81 54.468 81.2854 54.4675Z" fill="white" stroke="#F94F24" stroke-linecap="round"/>
<path fill-rule="evenodd" clip-rule="evenodd" d="M45.4471 56.4328C46.0419 56.4328 46.524 55.9501 46.524 55.3546C46.524 54.7591 46.0419 54.2764 45.4471 54.2764C44.8524 54.2764 44.3702 54.7591 44.3702 55.3546C44.3697 55.6407 44.483 55.9153 44.6851 56.1176C44.8871 56.3199 45.1614 56.4333 45.4471 56.4328Z" fill="white" stroke="#F94F24" stroke-linecap="round"/>
<path fill-rule="evenodd" clip-rule="evenodd" d="M58.4938 68.3526C59.0871 68.3514 59.5673 67.8691 59.5666 67.275C59.5658 66.6809 59.0844 66.1998 58.4911 66.2002C57.8977 66.2006 57.4169 66.6823 57.4169 67.2764C57.4169 67.5621 57.5304 67.8362 57.7324 68.0381C57.9344 68.24 58.2083 68.3531 58.4938 68.3526Z" fill="white" stroke="#F94F24" stroke-linecap="round"/>
<path fill-rule="evenodd" clip-rule="evenodd" d="M106.838 66.5779C107.274 66.5787 107.667 66.3163 107.835 65.9132C108.002 65.5101 107.91 65.0459 107.602 64.7372C107.293 64.4286 106.83 64.3365 106.427 64.5039C106.024 64.6713 105.762 65.0652 105.763 65.5017C105.763 66.096 106.244 66.5778 106.838 66.5779Z" fill="white" stroke="#F94F24" stroke-linecap="round"/>
<path fill-rule="evenodd" clip-rule="evenodd" d="M56.5309 81.1321C56.9668 81.1329 57.3603 80.8705 57.5275 80.4674C57.6947 80.0643 57.6027 79.6001 57.2944 79.2914C56.9862 78.9828 56.5225 78.8907 56.1199 79.0581C55.7173 79.2255 55.4552 79.6194 55.4561 80.0559C55.4561 80.6502 55.9373 81.1321 56.5309 81.1321H56.5309Z" fill="white" stroke="#F94F24" stroke-linecap="round"/>
<path fill-rule="evenodd" clip-rule="evenodd" d="M107.029 81.1321C107.465 81.132 107.858 80.8691 108.024 80.466C108.191 80.0628 108.098 79.5989 107.79 79.2907C107.481 78.9825 107.018 78.8907 106.616 79.0583C106.213 79.2258 105.951 79.6196 105.952 80.0559C105.952 80.3416 106.066 80.6157 106.268 80.8176C106.47 81.0195 106.744 81.1326 107.029 81.1321Z" fill="white" stroke="#F94F24" stroke-linecap="round"/>
<path fill-rule="evenodd" clip-rule="evenodd" d="M45.4471 88.1999C45.8827 88.1999 46.2754 87.9372 46.4421 87.5343C46.6087 87.1314 46.5166 86.6677 46.2086 86.3593C45.9006 86.0509 45.4374 85.9587 45.035 86.1256C44.6326 86.2925 44.3702 86.6856 44.3702 87.1217C44.3702 87.7172 44.8524 88.1999 45.4471 88.1999H45.4471Z" fill="white" stroke="#F94F24" stroke-linecap="round"/>
<path fill-rule="evenodd" clip-rule="evenodd" d="M117.759 56.4328C118.195 56.4328 118.588 56.1701 118.754 55.7672C118.921 55.3643 118.829 54.9006 118.521 54.5922C118.213 54.2838 117.75 54.1916 117.347 54.3585C116.945 54.5254 116.683 54.9185 116.683 55.3546C116.682 55.6407 116.795 55.9153 116.997 56.1176C117.2 56.3199 117.474 56.4334 117.759 56.4328Z" fill="white" stroke="#F94F24" stroke-linecap="round"/>
<path fill-rule="evenodd" clip-rule="evenodd" d="M117.759 88.1999C118.195 88.1999 118.588 87.9372 118.754 87.5343C118.921 87.1314 118.829 86.6677 118.521 86.3593C118.213 86.0509 117.75 85.9587 117.347 86.1256C116.945 86.2925 116.683 86.6856 116.683 87.1217C116.683 87.7172 117.165 88.1999 117.759 88.1999Z" fill="white" stroke="#F94F24" stroke-linecap="round"/>
<path fill-rule="evenodd" clip-rule="evenodd" d="M81.2854 98.052C81.7209 98.052 82.1136 97.7893 82.2803 97.3864C82.447 96.9835 82.3549 96.5197 82.0469 96.2113C81.7389 95.903 81.2757 95.8107 80.8733 95.9776C80.4709 96.1445 80.2085 96.5377 80.2085 96.9738C80.208 97.2599 80.3212 97.5344 80.5233 97.7368C80.7254 97.9391 80.9996 98.0525 81.2854 98.052H81.2854Z" fill="white" stroke="#F94F24" stroke-linecap="round"/>
<path fill-rule="evenodd" clip-rule="evenodd" d="M81.2854 88.1999C81.7209 88.1999 82.1136 87.9372 82.2803 87.5343C82.447 87.1314 82.3549 86.6677 82.0469 86.3593C81.7389 86.0509 81.2757 85.9587 80.8733 86.1256C80.4709 86.2925 80.2085 86.6856 80.2085 87.1217C80.2085 87.7172 80.6906 88.1999 81.2854 88.1999H81.2854Z" fill="white" stroke="#F94F24" stroke-linecap="round"/>
</g>
<defs>
<linearGradient id="paint0_linear" x1="105.455" y1="106.368" x2="108.926" y2="69.3458" gradientUnits="userSpaceOnUse">
<stop stop-color="#8033EB"/>
<stop offset="1" stop-color="#A2E1E0"/>
</linearGradient>
<linearGradient id="paint1_linear" x1="74.4156" y1="35.8236" x2="87.6991" y2="41.321" gradientUnits="userSpaceOnUse">
<stop stop-color="#8033EB"/>
<stop offset="1" stop-color="#6731CE"/>
</linearGradient>
<linearGradient id="paint2_linear" x1="29.5905" y1="51.692" x2="42.8739" y2="57.1894" gradientUnits="userSpaceOnUse">
<stop stop-color="#8033EB"/>
<stop offset="1" stop-color="#6731CE"/>
</linearGradient>
<linearGradient id="paint3_linear" x1="29.5847" y1="73.7061" x2="31.8849" y2="87.8933" gradientUnits="userSpaceOnUse">
<stop stop-color="#8033EB"/>
<stop offset="1" stop-color="#6731CE"/>
</linearGradient>
<linearGradient id="paint4_linear" x1="119.277" y1="51.691" x2="132.562" y2="57.1891" gradientUnits="userSpaceOnUse">
<stop stop-color="#8033EB"/>
<stop offset="1" stop-color="#6731CE"/>
</linearGradient>
<linearGradient id="paint5_linear" x1="119.274" y1="73.7051" x2="121.575" y2="87.8944" gradientUnits="userSpaceOnUse">
<stop stop-color="#8033EB"/>
<stop offset="1" stop-color="#6731CE"/>
</linearGradient>
<linearGradient id="paint6_linear" x1="74.4154" y1="113.962" x2="88.7868" y2="113.962" gradientUnits="userSpaceOnUse">
<stop stop-color="#8033EB"/>
<stop offset="1" stop-color="#6731CE"/>
</linearGradient>
</defs>
</svg>
