<svg width="131" height="146" viewBox="0 0 131 146" fill="none" xmlns="http://www.w3.org/2000/svg">
<path fill-rule="evenodd" clip-rule="evenodd" d="M123.139 114.364L73.1461 142.998C68.4147 145.708 62.5859 145.708 57.8547 142.998L7.86083 114.364C3.12957 111.654 0.21521 106.647 0.21521 101.228L0.21521 43.9599C0.21521 38.5404 3.12957 33.5325 7.86083 30.8232L57.8547 2.18935C62.5859 -0.5208 68.4147 -0.5208 73.1461 2.18935L123.139 30.8232C127.87 33.5325 130.785 38.5404 130.785 43.9599V101.228C130.785 106.647 127.87 111.654 123.139 114.364Z" fill="white"/>
<ellipse cx="28.5212" cy="43.3361" rx="6.401" ry="6.401" fill="#F2F2F2"/>
<path fill-rule="evenodd" clip-rule="evenodd" d="M110.32 48.2572C110.32 52.8392 107.561 56.9681 103.33 58.7205C99.0982 60.473 94.2279 59.5038 90.9898 56.2651C87.7516 53.0263 86.7834 48.1558 88.5367 43.9248C90.2899 39.6938 94.4193 36.9356 98.9992 36.9365C105.251 36.9377 110.319 42.0055 110.32 48.2572Z" fill="#F2F2F2"/>
<path fill-rule="evenodd" clip-rule="evenodd" d="M7.17944 84.7456V84.4926C7.17944 83.3161 7.59536 82.312 8.42721 81.4802C9.25905 80.6483 10.2632 80.2324 11.4396 80.2324H40.3176C41.494 80.2324 42.4981 80.6483 43.33 81.4802C44.1618 82.312 44.5777 83.3161 44.5777 84.4926V84.9986C44.5777 86.175 44.1618 87.1791 43.33 88.0109C42.4981 88.8428 41.494 89.2587 40.3176 89.2587H11.4396C10.2632 89.2587 9.25905 88.8428 8.42721 88.0109C7.59536 87.1791 7.17944 86.175 7.17944 84.9986V84.7456Z" fill="#F2F2F2"/>
<path fill-rule="evenodd" clip-rule="evenodd" d="M88.8247 99.0415V98.7863C88.8247 97.6105 89.2404 96.6069 90.0718 95.7754C90.9033 94.944 91.9069 94.5283 93.0827 94.5283H121.965C123.141 94.5283 124.144 94.944 124.976 95.7754C125.807 96.6069 126.223 97.6105 126.223 98.7863V99.2966C126.223 100.472 125.807 101.476 124.976 102.307C124.144 103.139 123.141 103.555 121.965 103.555H93.0827C91.9069 103.555 90.9033 103.139 90.0718 102.307C89.2404 101.476 88.8247 100.472 88.8247 99.2966V99.0415Z" fill="#F2F2F2"/>
<path fill-rule="evenodd" clip-rule="evenodd" d="M25.8785 72.6009C25.8785 51.6848 42.8344 34.729 63.7504 34.729C84.6665 34.729 101.622 51.6848 101.622 72.6009C101.622 93.5169 84.6665 110.473 63.7504 110.473C42.8343 110.473 25.8785 93.5169 25.8785 72.6009L25.8785 72.6009Z" fill="url(#paint0_linear)"/>
<path fill-rule="evenodd" clip-rule="evenodd" d="M63.7742 119.001H63.7505C63.2574 119.001 62.76 119.001 62.267 118.977C62.1829 118.975 62.1031 118.939 62.0454 118.878C61.9878 118.817 61.957 118.735 61.9599 118.651C61.968 118.477 62.1122 118.34 62.2865 118.342C62.773 118.357 63.2639 118.365 63.7505 118.365H63.7742C63.9498 118.365 64.0921 118.508 64.0921 118.683C64.0921 118.859 63.9498 119.001 63.7742 119.001ZM66.2676 118.945C66.0986 118.943 65.9599 118.811 65.9497 118.642C65.9411 118.467 66.0755 118.319 66.2503 118.309C66.7455 118.281 67.245 118.247 67.7338 118.203C67.9087 118.188 68.0631 118.317 68.0786 118.492C68.0942 118.667 67.965 118.821 67.79 118.837C67.2926 118.88 66.7866 118.917 66.2762 118.943L66.2676 118.945ZM59.78 118.844H59.7541C59.2567 118.803 58.7528 118.751 58.2533 118.692C58.0896 118.66 57.9785 118.506 57.9984 118.341C58.0182 118.175 58.1621 118.052 58.329 118.059C58.8199 118.117 59.3194 118.169 59.8081 118.21C59.9837 118.218 60.1197 118.366 60.112 118.542C60.1042 118.718 59.9557 118.854 59.7801 118.846L59.78 118.844ZM70.2337 118.556C70.0633 118.561 69.9191 118.431 69.9069 118.261C69.8947 118.091 70.0188 117.941 70.1882 117.922C70.6748 117.853 71.1679 117.775 71.6566 117.689C71.83 117.66 71.9945 117.775 72.0264 117.948C72.0408 118.031 72.0215 118.117 71.9729 118.186C71.9242 118.255 71.8501 118.302 71.7669 118.316C71.2716 118.405 70.7721 118.482 70.2791 118.552L70.2337 118.556ZM55.8227 118.34C55.8047 118.342 55.7865 118.342 55.7686 118.34C55.2777 118.255 54.7803 118.16 54.2873 118.056C54.1153 118.021 54.0049 117.852 54.0407 117.68C54.0765 117.508 54.245 117.398 54.4169 117.434C54.9036 117.535 55.3945 117.628 55.8767 117.713C56.0402 117.74 56.1554 117.888 56.1412 118.053C56.1271 118.218 55.9884 118.345 55.8227 118.344V118.34ZM74.1564 117.834C73.9916 117.838 73.8511 117.715 73.8325 117.552C73.814 117.388 73.9235 117.237 74.085 117.204C74.5629 117.094 75.0473 116.973 75.5274 116.845C75.6374 116.815 75.7552 116.846 75.836 116.927C75.9168 117.007 75.9483 117.125 75.9185 117.235C75.8887 117.345 75.8022 117.431 75.6917 117.46C75.2052 117.589 74.7143 117.713 74.2277 117.825C74.2056 117.823 74.1838 117.819 74.1628 117.812L74.1564 117.834ZM51.9259 117.483C51.8982 117.483 51.8706 117.479 51.8438 117.472C51.3615 117.342 50.875 117.204 50.3927 117.059C50.2243 117.008 50.129 116.831 50.1797 116.662C50.2305 116.494 50.4081 116.399 50.5765 116.449C51.0523 116.594 51.5324 116.73 52.0059 116.856C52.1641 116.893 52.2685 117.044 52.2479 117.205C52.2273 117.367 52.0884 117.486 51.9259 117.483ZM78.0013 116.759C77.8442 116.76 77.7097 116.646 77.6849 116.491C77.66 116.336 77.7522 116.186 77.9019 116.138C78.3711 115.985 78.8425 115.82 79.3075 115.652C79.4729 115.592 79.6554 115.677 79.7151 115.843C79.7748 116.008 79.6891 116.191 79.5237 116.251C79.0545 116.421 78.5744 116.588 78.0986 116.744C78.0682 116.746 78.0376 116.744 78.0078 116.737L78.0013 116.759ZM48.1112 116.283C48.0745 116.284 48.0379 116.278 48.0031 116.266C47.5295 116.093 47.0559 115.911 46.591 115.725C46.4855 115.683 46.4107 115.587 46.3948 115.475C46.3788 115.362 46.4241 115.25 46.5137 115.18C46.6032 115.11 46.7234 115.093 46.8288 115.135C47.2852 115.319 47.7544 115.496 48.2215 115.667C48.3663 115.72 48.4521 115.87 48.4249 116.021C48.3978 116.173 48.2655 116.284 48.1112 116.283ZM81.7294 115.353C81.5795 115.35 81.4516 115.244 81.4215 115.097C81.3914 114.95 81.4672 114.802 81.604 114.741C82.0537 114.551 82.51 114.345 82.9577 114.138C83.0609 114.086 83.1841 114.094 83.2794 114.159C83.3748 114.225 83.4273 114.336 83.4166 114.451C83.4059 114.566 83.3337 114.666 83.228 114.713C82.7717 114.929 82.3111 115.132 81.8548 115.327C81.8158 115.336 81.7754 115.337 81.7359 115.331L81.7294 115.353ZM44.4263 114.733C44.3793 114.732 44.333 114.722 44.2901 114.702C43.8381 114.486 43.3818 114.27 42.932 114.041C42.7821 113.958 42.7247 113.771 42.8022 113.618C42.8797 113.466 43.0643 113.402 43.2196 113.474C43.6521 113.69 44.1128 113.917 44.5604 114.123C44.6976 114.185 44.7726 114.334 44.7402 114.481C44.7077 114.628 44.5768 114.732 44.4263 114.731V114.733ZM85.33 113.606C85.1833 113.608 85.0548 113.508 85.0188 113.366C84.9829 113.224 85.0489 113.076 85.1786 113.007C85.6111 112.776 86.0436 112.534 86.4761 112.285C86.6284 112.197 86.8235 112.248 86.9118 112.401C87.0002 112.553 86.9484 112.748 86.7962 112.836C86.3637 113.087 85.9204 113.334 85.4814 113.567C85.4344 113.593 85.3815 113.607 85.3279 113.606H85.33ZM40.8777 112.89C40.8224 112.891 40.768 112.876 40.7199 112.849C40.2874 112.596 39.8549 112.335 39.4224 112.071C39.3219 112.012 39.2612 111.904 39.2641 111.788C39.267 111.672 39.333 111.566 39.4362 111.513C39.5394 111.46 39.6634 111.467 39.7597 111.532C40.1771 111.792 40.6074 112.049 41.0356 112.298C41.1597 112.37 41.2198 112.517 41.1824 112.655C41.1449 112.794 41.0192 112.89 40.8756 112.89H40.8777ZM88.7576 111.573C88.6171 111.572 88.4939 111.479 88.4537 111.345C88.4135 111.21 88.4657 111.065 88.5824 110.987C88.9933 110.721 89.4063 110.44 89.8129 110.157C89.9052 110.083 90.0305 110.067 90.1384 110.115C90.2462 110.162 90.319 110.266 90.3273 110.383C90.3357 110.501 90.2784 110.613 90.1783 110.676C89.7653 110.965 89.3458 111.249 88.9306 111.521C88.879 111.555 88.819 111.573 88.7576 111.573H88.7576ZM37.5063 110.728C37.4405 110.727 37.3764 110.707 37.3225 110.669C36.9116 110.382 36.5007 110.083 36.1028 109.783C35.9729 109.675 35.9505 109.484 36.0519 109.348C36.1533 109.213 36.3429 109.18 36.4834 109.275C36.877 109.571 37.2835 109.865 37.6879 110.14C37.8113 110.216 37.8677 110.366 37.8249 110.504C37.7822 110.643 37.6511 110.735 37.5063 110.728V110.728ZM92.0014 109.237C91.8665 109.237 91.7466 109.151 91.7024 109.024C91.6581 108.896 91.6991 108.755 91.8046 108.671C92.1917 108.366 92.581 108.05 92.9572 107.734C93.0442 107.661 93.1637 107.639 93.2707 107.678C93.3778 107.717 93.4561 107.809 93.4762 107.921C93.4963 108.033 93.4551 108.148 93.3681 108.221C92.9832 108.543 92.5918 108.87 92.1982 109.17C92.1432 109.217 92.0737 109.244 92.0014 109.246L92.0014 109.237ZM34.3491 108.295C34.2743 108.295 34.202 108.268 34.1458 108.219C33.763 107.899 33.3803 107.57 33.0062 107.233C32.8748 107.114 32.8651 106.91 32.9845 106.779C33.104 106.648 33.3073 106.638 33.4387 106.757C33.8085 107.088 34.1869 107.417 34.5632 107.733C34.6664 107.818 34.7045 107.96 34.6584 108.086C34.6124 108.212 34.492 108.296 34.3577 108.295L34.3491 108.295ZM95.0289 106.649C94.9414 106.649 94.8579 106.613 94.7975 106.55C94.7395 106.488 94.7082 106.406 94.7107 106.322C94.7131 106.238 94.749 106.158 94.8104 106.1C95.1716 105.762 95.5306 105.414 95.8809 105.066C95.9402 105.006 96.0212 104.972 96.1058 104.972C96.1903 104.972 96.2714 105.006 96.3307 105.066C96.4538 105.191 96.4538 105.391 96.3307 105.516C95.976 105.868 95.6106 106.221 95.2494 106.562C95.1898 106.619 95.1108 106.65 95.0289 106.649V106.649ZM31.4059 105.605C31.3246 105.603 31.2472 105.569 31.1896 105.512C30.8393 105.161 30.4868 104.798 30.1408 104.43C30.0317 104.301 30.0434 104.108 30.1675 103.993C30.2916 103.878 30.4844 103.88 30.6058 103.998C30.9453 104.359 31.2934 104.718 31.6394 105.064C31.7294 105.154 31.7572 105.289 31.7102 105.407C31.6632 105.525 31.5503 105.604 31.4232 105.607L31.4059 105.605ZM97.8142 103.807C97.7346 103.809 97.6573 103.78 97.5979 103.727C97.468 103.609 97.4574 103.409 97.5741 103.278C97.9007 102.912 98.2229 102.534 98.5494 102.155C98.6212 102.064 98.7368 102.019 98.8513 102.038C98.9657 102.057 99.0608 102.137 99.0992 102.246C99.1376 102.356 99.1134 102.478 99.036 102.564C98.7116 102.949 98.3872 103.332 98.0477 103.701C97.9885 103.768 97.9036 103.807 97.8142 103.807V103.807ZM28.7028 102.677C28.6083 102.677 28.5187 102.635 28.4585 102.562C28.1384 102.181 27.8097 101.788 27.5091 101.394C27.4005 101.256 27.4242 101.057 27.5621 100.948C27.7 100.839 27.8999 100.863 28.0086 101.001C28.3136 101.39 28.6293 101.777 28.945 102.153C29 102.217 29.0271 102.301 29.0202 102.385C29.0132 102.469 28.973 102.547 28.9083 102.601C28.8491 102.645 28.7767 102.668 28.7028 102.666V102.677ZM100.351 100.73C100.23 100.729 100.121 100.661 100.067 100.553C100.013 100.446 100.024 100.317 100.096 100.22C100.39 99.8307 100.684 99.4241 100.971 99.0176C101.071 98.8791 101.262 98.8447 101.404 98.9398C101.54 99.0405 101.574 99.2302 101.482 99.3722C101.19 99.7853 100.891 100.196 100.593 100.592C100.535 100.667 100.446 100.712 100.351 100.713V100.73ZM26.2722 99.5042C26.1679 99.5045 26.0701 99.4535 26.0105 99.368C25.7229 98.9571 25.4396 98.5376 25.1649 98.1224C25.0753 97.9765 25.1163 97.786 25.2579 97.6899C25.4033 97.5978 25.5957 97.6392 25.6904 97.7828C25.9586 98.1937 26.2397 98.6068 26.523 99.0111C26.5901 99.1085 26.5981 99.2349 26.5438 99.3399C26.4895 99.4449 26.3817 99.5114 26.2635 99.5128L26.2722 99.5042ZM102.608 97.4174C102.55 97.4174 102.492 97.4009 102.442 97.3698C102.296 97.2772 102.251 97.0852 102.34 96.9373C102.6 96.5221 102.857 96.0918 103.106 95.6614C103.194 95.5092 103.389 95.4574 103.542 95.5458C103.694 95.6342 103.746 95.8292 103.657 95.9815C103.404 96.414 103.143 96.8465 102.879 97.279C102.818 97.3683 102.716 97.4205 102.608 97.4174ZM24.1248 96.1438C24.011 96.1441 23.9056 96.084 23.848 95.986C23.5971 95.5535 23.3506 95.1101 23.117 94.6712C23.0606 94.5709 23.0628 94.4479 23.1228 94.3497C23.1827 94.2515 23.2911 94.1933 23.4061 94.1977C23.5211 94.202 23.6247 94.2681 23.6771 94.3706C23.9085 94.8031 24.1529 95.2356 24.3994 95.6681C24.4416 95.7408 24.4529 95.8274 24.431 95.9086C24.4091 95.9898 24.3557 96.0589 24.2826 96.1006C24.235 96.1293 24.1804 96.1443 24.1248 96.1438H24.1248ZM104.57 93.938C104.519 93.9384 104.47 93.9265 104.425 93.9034C104.349 93.865 104.291 93.7976 104.265 93.7162C104.239 93.6349 104.247 93.5464 104.287 93.4709C104.503 93.0384 104.719 92.5799 104.935 92.1323C105.01 91.9729 105.2 91.9043 105.359 91.9789C105.519 92.0536 105.587 92.2432 105.513 92.4027C105.296 92.8568 105.08 93.313 104.851 93.7585C104.8 93.8656 104.693 93.935 104.574 93.938H104.57ZM22.2758 92.6123C22.1519 92.6119 22.0393 92.5404 21.986 92.4285C21.7698 91.9744 21.5687 91.5138 21.3719 91.0575C21.3026 90.8957 21.3777 90.7083 21.5395 90.639C21.7013 90.5698 21.8887 90.6448 21.9579 90.8066C22.1504 91.2564 22.3537 91.7127 22.5634 92.1582C22.6017 92.2357 22.6069 92.3254 22.578 92.4069C22.5491 92.4883 22.4885 92.5546 22.4099 92.5907C22.3686 92.6066 22.3244 92.614 22.2801 92.6123L22.2758 92.6123ZM106.222 90.2962C106.181 90.2964 106.141 90.289 106.103 90.2745C105.94 90.2085 105.861 90.0229 105.926 89.8593C106.112 89.3987 106.291 88.9295 106.46 88.4688C106.52 88.3035 106.702 88.2178 106.867 88.2776C107.033 88.3373 107.119 88.5198 107.059 88.6852C106.888 89.1544 106.706 89.6279 106.518 90.0972C106.469 90.2157 106.355 90.2939 106.226 90.2962H106.222ZM20.747 88.934C20.6114 88.9335 20.4913 88.8465 20.4486 88.7178C20.2777 88.2464 20.1112 87.7663 19.9555 87.2927C19.9147 87.1835 19.937 87.0608 20.0134 86.9729C20.0899 86.885 20.2083 86.8459 20.3221 86.8711C20.4358 86.8963 20.5267 86.9818 20.5589 87.0938C20.7124 87.563 20.8767 88.0344 21.0476 88.4994C21.107 88.6642 21.0219 88.846 20.8573 88.9059C20.8241 88.9221 20.7881 88.9317 20.7513 88.934H20.747ZM107.55 86.5231C107.518 86.5232 107.487 86.5188 107.457 86.5101C107.375 86.4866 107.306 86.4312 107.265 86.3564C107.225 86.2817 107.216 86.1937 107.241 86.1122C107.383 85.6408 107.519 85.1607 107.647 84.6828C107.676 84.5726 107.762 84.4862 107.872 84.4565C107.982 84.4268 108.099 84.4582 108.18 84.5389C108.26 84.6196 108.291 84.7372 108.261 84.8472C108.134 85.3316 107.993 85.8181 107.848 86.2982C107.809 86.4288 107.69 86.5195 107.554 86.5231H107.55ZM19.536 85.13C19.3924 85.1293 19.2668 85.0329 19.2289 84.8943C19.0992 84.4077 18.9759 83.9147 18.8613 83.4303C18.8219 83.2589 18.9289 83.0881 19.1002 83.0486C19.2716 83.0092 19.4425 83.1161 19.4819 83.2874C19.5922 83.7633 19.7155 84.2499 19.8431 84.7278C19.8905 84.8955 19.794 85.0701 19.6268 85.1192C19.6042 85.125 19.581 85.1286 19.5576 85.13H19.536ZM108.529 82.6563H108.462C108.291 82.6196 108.182 82.4514 108.218 82.28C108.317 81.7935 108.413 81.3026 108.497 80.8204C108.527 80.6472 108.691 80.531 108.864 80.5609C109.038 80.5907 109.154 80.7553 109.124 80.9285C109.037 81.4194 108.942 81.9167 108.841 82.4098C108.808 82.5496 108.686 82.6504 108.542 82.6563H108.529ZM18.6926 81.2335C18.5383 81.2334 18.4066 81.1219 18.3812 80.9696C18.2926 80.4744 18.2147 79.9749 18.1434 79.4818C18.119 79.3081 18.2399 79.1474 18.4137 79.1229C18.497 79.1099 18.582 79.131 18.6495 79.1815C18.7171 79.2319 18.7614 79.3074 18.7727 79.391C18.8419 79.8776 18.9219 80.3706 19.0062 80.8593C19.0213 80.9425 19.0026 81.0283 18.9544 81.0977C18.9061 81.1671 18.8321 81.2144 18.7489 81.2291L18.6926 81.2335ZM109.187 78.7227H109.148C109.064 78.7125 108.988 78.6693 108.936 78.6028C108.884 78.5363 108.861 78.4518 108.871 78.3681C108.929 77.8772 108.979 77.3798 109.022 76.8889C109.038 76.714 109.192 76.5847 109.367 76.6002C109.542 76.6158 109.671 76.7702 109.656 76.9452C109.613 77.4425 109.561 77.9464 109.502 78.4438C109.482 78.6027 109.347 78.7219 109.187 78.7227ZM18.1649 77.2802C18.0002 77.2799 17.8626 77.1545 17.847 76.9905C17.8038 76.4888 17.7692 75.9827 17.7411 75.4767C17.7364 75.3924 17.7654 75.3096 17.8218 75.2467C17.8782 75.1839 17.9573 75.146 18.0417 75.1415C18.1264 75.135 18.2102 75.1634 18.2735 75.2202C18.3368 75.2769 18.3742 75.3571 18.3769 75.4421C18.4028 75.9309 18.4396 76.4304 18.4828 76.9234C18.4978 77.0988 18.3684 77.2534 18.193 77.2694L18.1649 77.2802ZM109.487 74.7413H109.477C109.392 74.7391 109.312 74.703 109.254 74.6413C109.196 74.5795 109.166 74.4971 109.169 74.4126C109.185 73.9196 109.193 73.42 109.193 72.927V72.834C109.193 72.6584 109.336 72.5161 109.511 72.5161C109.687 72.5161 109.829 72.6584 109.829 72.834L109.829 72.927C109.829 73.4265 109.829 73.9347 109.805 74.4408C109.794 74.6078 109.655 74.7374 109.487 74.737V74.7413ZM17.9898 73.2924C17.8142 73.2924 17.6719 73.1501 17.6719 72.9745V72.9269C17.6719 72.4447 17.6719 71.956 17.6935 71.4672C17.7005 71.2912 17.846 71.1524 18.0222 71.1537C18.1063 71.1559 18.1861 71.1917 18.2437 71.253C18.3014 71.3143 18.3322 71.3961 18.3293 71.4802C18.3141 71.9625 18.3076 72.4447 18.3076 72.9204V72.968C18.3082 73.0527 18.275 73.1341 18.2153 73.1942C18.1556 73.2543 18.0744 73.2881 17.9898 73.2881V73.2924ZM109.438 70.6567C109.269 70.6559 109.13 70.5244 109.12 70.3561C109.094 69.8652 109.057 69.3657 109.014 68.8748C108.998 68.6998 109.128 68.5454 109.303 68.5299C109.477 68.5144 109.632 68.6436 109.647 68.8186C109.693 69.316 109.727 69.822 109.756 70.3215C109.761 70.4057 109.732 70.4884 109.676 70.5514C109.62 70.6143 109.541 70.6523 109.457 70.6567H109.438ZM18.1563 69.3051H18.1304C18.0463 69.2979 17.9686 69.2577 17.9143 69.1932C17.8599 69.1287 17.8334 69.0453 17.8406 68.9612C17.8817 68.4617 17.9336 67.9557 17.992 67.4605C18.0055 67.3476 18.0781 67.2506 18.1826 67.2059C18.287 67.1612 18.4074 67.1756 18.4984 67.2437C18.5893 67.3118 18.637 67.4233 18.6234 67.5361C18.5672 68.0249 18.5153 68.5222 18.4742 69.0153C18.4566 69.1776 18.3196 69.3006 18.1563 69.3008L18.1563 69.3051ZM109.044 66.6861C108.886 66.6857 108.752 66.57 108.728 66.4136C108.659 65.9249 108.579 65.4319 108.495 64.9453C108.475 64.7783 108.59 64.6252 108.755 64.5959C108.921 64.5667 109.081 64.6715 109.12 64.835C109.208 65.3281 109.288 65.8298 109.358 66.3228C109.369 66.4061 109.347 66.4906 109.296 66.5573C109.244 66.6239 109.169 66.6673 109.085 66.6775C109.072 66.6806 109.058 66.6821 109.044 66.6818V66.6861ZM18.6688 65.3477H18.6148C18.5315 65.3334 18.4574 65.2866 18.4088 65.2177C18.3601 65.1487 18.3408 65.0632 18.3552 64.98C18.4418 64.4848 18.5369 63.9874 18.6385 63.4987C18.6744 63.3267 18.8428 63.2164 19.0148 63.2522C19.1868 63.288 19.2972 63.4565 19.2613 63.6285C19.1597 64.1107 19.0667 64.6016 18.9824 65.0882C18.9516 65.2368 18.8206 65.3434 18.6688 65.3433L18.6688 65.3477ZM108.304 62.7655C108.157 62.7652 108.028 62.663 107.995 62.5189C107.883 62.0389 107.76 61.5545 107.632 61.0765C107.602 60.9666 107.633 60.849 107.713 60.7683C107.794 60.6875 107.911 60.6561 108.021 60.6858C108.132 60.7156 108.217 60.8019 108.246 60.9122C108.376 61.3944 108.501 61.8875 108.614 62.3741C108.654 62.5448 108.549 62.7162 108.378 62.7568C108.354 62.7603 108.329 62.7617 108.304 62.7611V62.7655ZM19.5251 61.4506C19.4972 61.4507 19.4695 61.4463 19.4429 61.4376C19.2736 61.3932 19.172 61.2201 19.2159 61.0506C19.3456 60.5618 19.484 60.0731 19.6289 59.5995C19.6525 59.5182 19.7075 59.4497 19.7818 59.4091C19.8561 59.3685 19.9435 59.3592 20.0247 59.3833C20.1935 59.4343 20.2899 59.6117 20.2409 59.7812C20.0982 60.2483 19.9619 60.7305 19.8344 61.2106C19.7963 61.3499 19.6696 61.4465 19.5251 61.4463V61.4506ZM107.225 58.9186C107.088 58.9193 106.966 58.8321 106.923 58.7023C106.767 58.2331 106.603 57.7595 106.434 57.2967C106.385 57.1351 106.471 56.9636 106.63 56.9061C106.789 56.8486 106.965 56.9251 107.031 57.0805C107.204 57.5497 107.37 58.0298 107.526 58.5055C107.553 58.5855 107.547 58.6731 107.509 58.7484C107.47 58.8237 107.403 58.8804 107.323 58.9056C107.291 58.9151 107.258 58.9195 107.225 58.9186ZM20.7253 57.6317C20.6884 57.6317 20.6518 57.6251 20.6172 57.6122C20.5378 57.5839 20.4729 57.525 20.4372 57.4487C20.4015 57.3723 20.3977 57.2848 20.4269 57.2057C20.5977 56.7321 20.7794 56.2585 20.9653 55.7936C21.0325 55.6337 21.2153 55.557 21.3764 55.6213C21.5374 55.6856 21.6172 55.8671 21.5557 56.0293C21.3719 56.4877 21.1924 56.957 21.0237 57.4219C20.9783 57.5496 20.8565 57.634 20.721 57.6317H20.7253ZM105.818 55.1906C105.69 55.1917 105.575 55.1156 105.526 54.9981C105.331 54.5461 105.126 54.092 104.918 53.6465C104.866 53.5433 104.875 53.4201 104.94 53.3247C105.005 53.2293 105.117 53.1768 105.232 53.1875C105.347 53.1982 105.447 53.2705 105.493 53.3762C105.709 53.8282 105.913 54.2888 106.11 54.7472C106.179 54.9085 106.104 55.0953 105.943 55.1646C105.902 55.182 105.858 55.1909 105.813 55.1906L105.818 55.1906ZM22.2542 53.9361C22.2078 53.9356 22.1621 53.9253 22.1201 53.9058C22.0407 53.8706 21.9792 53.8045 21.9498 53.7229C21.9204 53.6412 21.9257 53.551 21.9644 53.4733C22.1806 53.0214 22.3969 52.5629 22.6261 52.1131C22.7089 51.9631 22.8956 51.9057 23.0483 51.9833C23.2011 52.0608 23.2649 52.2454 23.1927 52.4007C22.9764 52.8332 22.7602 53.296 22.5439 53.7415C22.4937 53.8594 22.378 53.936 22.2498 53.9361H22.2542ZM104.085 51.6027C103.969 51.603 103.862 51.539 103.806 51.4362C103.573 51.0037 103.331 50.5712 103.082 50.1387C103.023 50.0405 103.021 49.918 103.078 49.8183C103.134 49.7185 103.24 49.6568 103.355 49.6569C103.469 49.657 103.575 49.7188 103.631 49.8186C103.884 50.2511 104.131 50.6945 104.367 51.1313C104.448 51.2867 104.391 51.4791 104.237 51.5638C104.189 51.59 104.136 51.6035 104.081 51.6027L104.085 51.6027ZM24.0988 50.3938C23.9851 50.3947 23.8797 50.3344 23.8229 50.2359C23.766 50.1374 23.7665 50.016 23.8241 49.918C24.075 49.4855 24.3367 49.053 24.6005 48.6205C24.693 48.4712 24.8891 48.4252 25.0384 48.5178C25.1877 48.6104 25.2337 48.8064 25.1411 48.9557C24.8816 49.3731 24.6243 49.8034 24.3734 50.2338C24.3174 50.3326 24.2125 50.3938 24.0988 50.3938ZM102.048 48.1817C101.941 48.1818 101.84 48.1283 101.78 48.0389C101.512 47.6302 101.231 47.2172 100.948 46.8106C100.875 46.7183 100.858 46.593 100.906 46.4851C100.953 46.3773 101.057 46.3046 101.174 46.2962C101.292 46.2878 101.404 46.3452 101.467 46.4452C101.756 46.856 102.042 47.2734 102.312 47.6886C102.403 47.8337 102.363 48.025 102.221 48.1211C102.17 48.1579 102.108 48.1775 102.044 48.1773L102.048 48.1817ZM26.2419 47.0202C26.1237 47.0197 26.0156 46.9537 25.9611 46.8489C25.9067 46.744 25.9149 46.6176 25.9824 46.5207C26.2678 46.112 26.5662 45.7011 26.8668 45.2989C26.9719 45.1579 27.1713 45.1288 27.3123 45.2339C27.4532 45.339 27.4823 45.5384 27.3773 45.6793C27.0787 46.0774 26.7846 46.4817 26.5122 46.884C26.4503 46.9715 26.349 47.0226 26.2419 47.0202ZM99.7128 44.9424C99.6152 44.9421 99.5229 44.8976 99.462 44.8213C99.1592 44.4364 98.8435 44.0471 98.5256 43.6687C98.4481 43.5823 98.4239 43.4606 98.4623 43.3511C98.5008 43.2417 98.5958 43.1619 98.7103 43.1429C98.8247 43.1239 98.9404 43.1688 99.0121 43.26C99.3344 43.6449 99.6609 44.0363 99.9636 44.4277C100.071 44.5658 100.047 44.765 99.9096 44.8732C99.854 44.9184 99.7844 44.9428 99.7128 44.9424L99.7128 44.9424ZM28.6726 43.8609C28.5982 43.8613 28.5262 43.8352 28.4693 43.7874C28.4042 43.7331 28.3634 43.655 28.3561 43.5706C28.3488 43.4861 28.3755 43.4022 28.4304 43.3376C28.7483 42.957 29.0791 42.5742 29.4165 42.1979C29.5345 42.068 29.7352 42.0574 29.8663 42.1741C29.9297 42.2302 29.968 42.3095 29.9725 42.3941C29.977 42.4786 29.9473 42.5615 29.89 42.6239C29.5592 42.9937 29.2413 43.3722 28.9169 43.7463C28.8551 43.8159 28.7657 43.8547 28.6726 43.8522L28.6726 43.8609ZM97.1092 41.9146C97.0215 41.9152 96.9376 41.8791 96.8778 41.8151C96.5426 41.4561 96.1923 41.0993 95.842 40.749C95.7188 40.6243 95.7188 40.4238 95.842 40.2992C95.9013 40.239 95.9823 40.2051 96.0669 40.2051C96.1514 40.2051 96.2324 40.239 96.2918 40.2992C96.6486 40.6517 97.0011 41.0171 97.3427 41.3804C97.431 41.4725 97.4552 41.6086 97.4041 41.7254C97.353 41.8422 97.2367 41.9168 97.1092 41.9146H97.1092ZM31.3692 40.9049C31.2421 40.9016 31.1292 40.8229 31.0822 40.7048C31.0351 40.5867 31.063 40.4519 31.153 40.3621C31.5054 40.0096 31.8709 39.655 32.2342 39.3133C32.3651 39.2193 32.5455 39.2373 32.6553 39.3553C32.765 39.4733 32.7699 39.6545 32.6667 39.7783C32.3056 40.1156 31.9466 40.4638 31.5984 40.8119C31.5384 40.8738 31.4555 40.9082 31.3692 40.9071V40.9049ZM94.2525 39.1275C94.1731 39.1282 94.0961 39.0997 94.0363 39.0475C93.6665 38.7166 93.2881 38.3879 92.9139 38.0743C92.8249 38.0022 92.7815 37.8878 92.8004 37.7748C92.8193 37.6617 92.8976 37.5677 93.0053 37.5285C93.113 37.4893 93.2334 37.5111 93.3205 37.5856C93.7033 37.9057 94.086 38.2344 94.4623 38.5717C94.5922 38.6897 94.6029 38.8904 94.4861 39.0215C94.4273 39.0893 94.3423 39.1287 94.2525 39.1296L94.2525 39.1275ZM34.308 38.2059C34.2141 38.2056 34.125 38.1646 34.0637 38.0935C33.9506 37.9584 33.968 37.7573 34.1026 37.6437C34.4853 37.3236 34.8789 36.9949 35.2725 36.6943C35.4128 36.5856 35.6147 36.6113 35.7234 36.7516C35.832 36.892 35.8064 37.0938 35.6661 37.2025C35.279 37.5074 34.8897 37.8232 34.5134 38.141C34.4548 38.1865 34.3822 38.2102 34.308 38.2081L34.308 38.2059ZM91.1645 36.5971C91.0957 36.5965 91.029 36.5738 90.9742 36.5323C90.5785 36.236 90.1741 35.9441 89.7697 35.6673C89.6258 35.5663 89.591 35.3679 89.6919 35.224C89.7928 35.0801 89.9913 35.0453 90.1352 35.1461C90.5438 35.4316 90.9547 35.73 91.3548 36.0306C91.4649 36.1124 91.5101 36.2557 91.4669 36.3859C91.4236 36.5162 91.3017 36.604 91.1645 36.6036V36.5971ZM37.4696 35.7751C37.366 35.7748 37.2687 35.725 37.208 35.641C37.1152 35.499 37.1493 35.3093 37.2858 35.2085C37.6967 34.9188 38.1162 34.6355 38.5314 34.363C38.6783 34.2663 38.8758 34.3069 38.9726 34.4538C39.0693 34.6007 39.0286 34.7982 38.8817 34.895C38.4709 35.1631 38.0578 35.4443 37.6513 35.7275C37.5974 35.7625 37.5337 35.7792 37.4696 35.7751V35.7751ZM87.8667 34.3461C87.8076 34.3453 87.75 34.3281 87.7002 34.2964C87.2806 34.0369 86.8525 33.7796 86.4221 33.533C86.2699 33.4452 86.2177 33.2507 86.3054 33.0984C86.3932 32.9462 86.5877 32.8939 86.74 32.9816C87.1725 33.2324 87.605 33.4941 88.0375 33.7558C88.1574 33.8317 88.2129 33.9776 88.1739 34.114C88.1349 34.2505 88.0107 34.345 87.8689 34.3461L87.8667 34.3461ZM40.828 33.6281C40.6848 33.6262 40.5604 33.5295 40.5232 33.3912C40.486 33.253 40.5451 33.1069 40.668 33.0334C41.1005 32.7826 41.533 32.536 41.9828 32.3003C42.138 32.2173 42.3312 32.2759 42.4142 32.4311C42.4972 32.5864 42.4386 32.7796 42.2833 32.8626C41.8508 33.094 41.4183 33.3383 40.9858 33.5848C40.9376 33.6121 40.8834 33.6269 40.828 33.6281H40.828ZM84.385 32.3868C84.3346 32.3869 84.285 32.375 84.2401 32.3522C83.7968 32.136 83.3448 31.9197 82.8994 31.7035C82.7399 31.6288 82.6712 31.439 82.7458 31.2796C82.8205 31.1202 83.0102 31.0514 83.1697 31.1261C83.6195 31.3423 84.0758 31.5586 84.5277 31.7748C84.661 31.8401 84.7314 31.989 84.6972 32.1335C84.663 32.2779 84.5334 32.3795 84.385 32.3782L84.385 32.3868ZM44.3592 31.781C44.235 31.7816 44.1219 31.7098 44.0695 31.5971C44.0318 31.5195 44.0269 31.4301 44.0558 31.3488C44.0846 31.2675 44.1449 31.2012 44.223 31.1646C44.6771 30.9484 45.1377 30.7473 45.5962 30.5505C45.756 30.4875 45.937 30.5629 46.0048 30.7208C46.0726 30.8786 46.0028 31.0618 45.8471 31.1344C45.3951 31.329 44.941 31.5323 44.4933 31.742C44.452 31.7645 44.4062 31.7778 44.3593 31.781H44.3592ZM80.7412 30.7388C80.7006 30.739 80.6602 30.7317 80.6223 30.7172C80.1638 30.5334 79.6946 30.3539 79.2296 30.1852C79.1169 30.1512 79.0322 30.0577 79.0094 29.9422C78.9867 29.8267 79.0297 29.7081 79.1211 29.6339C79.2126 29.5598 79.3375 29.5422 79.4459 29.5884C79.9173 29.757 80.393 29.9387 80.858 30.1247C81.0008 30.1802 81.0837 30.3298 81.055 30.4803C81.0264 30.6309 80.8945 30.7396 80.7412 30.7388ZM48.0356 30.2501C47.8813 30.2505 47.7491 30.1401 47.7219 29.9883C47.6947 29.8364 47.7805 29.687 47.9253 29.6338C48.3924 29.463 48.8725 29.2965 49.3504 29.1386C49.5176 29.0837 49.6976 29.1748 49.7525 29.3419C49.8074 29.5091 49.7165 29.6892 49.5493 29.7441C49.0779 29.8977 48.6065 30.062 48.1437 30.2307C48.109 30.2432 48.0725 30.2498 48.0356 30.2501ZM76.9634 29.4178C76.9326 29.4178 76.9021 29.4134 76.8726 29.4049C76.4011 29.2621 75.921 29.1259 75.441 28.9983C75.2725 28.952 75.173 28.7784 75.2181 28.6096C75.2633 28.4408 75.4362 28.3401 75.6053 28.3842C76.0919 28.5139 76.5784 28.6523 77.0564 28.795C77.2085 28.8399 77.3043 28.99 77.2809 29.1469C77.2575 29.3038 77.122 29.4194 76.9634 29.4178ZM51.8393 29.0477C51.6816 29.0439 51.5502 28.9258 51.5297 28.7694C51.5092 28.613 51.6058 28.4649 51.7572 28.4206C52.2416 28.2909 52.7325 28.1676 53.219 28.053C53.3904 28.013 53.5618 28.1195 53.6018 28.2909C53.6418 28.4623 53.5353 28.6336 53.3639 28.6736C52.8838 28.7861 52.3994 28.9072 51.9215 29.0348C51.895 29.0433 51.8672 29.0477 51.8393 29.0477ZM73.0968 28.4356H73.0319C72.5497 28.3361 72.0588 28.2431 71.5701 28.1566C71.4527 28.1432 71.3525 28.0657 71.3099 27.9555C71.2672 27.8453 71.2893 27.7206 71.367 27.6316C71.4448 27.5427 71.5655 27.5042 71.6804 27.5317C72.1734 27.616 72.6729 27.7112 73.1595 27.8128C73.3191 27.8455 73.4281 27.9936 73.4119 28.1557C73.3958 28.3178 73.2597 28.4415 73.0968 28.4421V28.4356ZM55.7341 28.1807C55.5683 28.1817 55.4297 28.0551 55.4155 27.89C55.4014 27.7248 55.5165 27.5765 55.68 27.5493C56.1731 27.4628 56.6748 27.3828 57.1678 27.3114C57.2803 27.2951 57.3928 27.3401 57.4631 27.4293C57.5334 27.5186 57.5507 27.6386 57.5085 27.744C57.4664 27.8495 57.3711 27.9245 57.2587 27.9407C56.7699 28.012 56.2769 28.0899 55.7903 28.1764L55.7341 28.1807ZM69.1567 27.7978H69.1199C68.6312 27.7394 68.1338 27.6896 67.6408 27.6464C67.5267 27.6383 67.4256 27.5696 67.3763 27.4663C67.327 27.363 67.337 27.2413 67.4024 27.1474C67.4679 27.0536 67.5788 27.0021 67.6927 27.0128C68.1944 27.056 68.6982 27.1058 69.1935 27.1641C69.3557 27.1901 69.4719 27.3347 69.4624 27.4986C69.4529 27.6626 69.3208 27.7928 69.1567 27.7999L69.1567 27.7978ZM59.6915 27.6593C59.5159 27.6671 59.3673 27.5311 59.3595 27.3556C59.3517 27.18 59.4877 27.0314 59.6632 27.0236C60.1629 26.9803 60.6689 26.9436 61.1771 26.9154C61.3527 26.9053 61.5032 27.0394 61.5133 27.215C61.5235 27.3905 61.3894 27.5411 61.2138 27.5512C60.7208 27.5793 60.2213 27.6139 59.7304 27.6572L59.6915 27.6593ZM65.1864 27.5016C64.7128 27.4887 64.237 27.48 63.7699 27.48H63.6726C63.559 27.4801 63.4539 27.4196 63.3971 27.3212C63.3402 27.2228 63.3402 27.1015 63.3971 27.0031C63.4539 26.9047 63.559 26.8441 63.6726 26.8442L63.7397 26.8442C64.2176 26.8442 64.6998 26.8442 65.1799 26.8659C65.2642 26.8687 65.344 26.9049 65.4016 26.9666C65.4592 27.0282 65.4899 27.1102 65.487 27.1946C65.4826 27.3598 65.3515 27.4938 65.1864 27.5016H65.1864Z" fill="#F94F24"/>
<g style="mix-blend-mode:multiply">
<path fill-rule="evenodd" clip-rule="evenodd" d="M90.6671 75.7861C91.2012 72.6138 92.1614 68.4142 90.3903 65.4732C90.3004 65.3219 90.2933 65.1353 90.3715 64.9776C90.4497 64.8199 90.6025 64.7126 90.7774 64.6925C88.2655 61.8593 84.6595 60.239 80.8731 60.2421C79.9547 60.2425 79.0387 60.3374 78.1397 60.5254C74.4063 55.1337 67.8647 52.4235 61.4122 53.5952C54.9596 54.7669 49.7885 59.604 48.1891 65.9641C47.8299 65.927 47.469 65.9083 47.1078 65.9078C41.4115 65.9898 36.8367 70.6309 36.8367 76.3278C36.8367 82.0248 41.4115 86.6659 47.1078 86.7479L80.8731 86.7479C83.7298 86.7479 85.9939 85.9953 88.1132 83.8761C89.3489 81.3162 90.209 78.5915 90.6671 75.7861Z" fill="#EBEBEB"/>
</g>
<path fill-rule="evenodd" clip-rule="evenodd" d="M79.6557 58.9125C78.7372 58.9129 77.8213 59.0079 76.9222 59.1958C73.1886 53.8037 66.646 51.094 60.1933 52.2672C53.7405 53.4405 48.5705 58.2797 46.9738 64.6409C46.6145 64.604 46.2537 64.5852 45.8925 64.5847C40.1385 64.5865 35.4748 69.2514 35.4746 75.0054C35.4744 80.7594 40.1377 85.4247 45.8917 85.4269H79.6557C84.4324 85.4879 88.8726 82.9745 91.2787 78.8476C93.6848 74.7208 93.6848 69.6186 91.2787 65.4917C88.8725 61.3648 84.4323 58.8514 79.6556 58.9125L79.6557 58.9125Z" fill="url(#paint1_linear)"/>
<path fill-rule="evenodd" clip-rule="evenodd" d="M45.8818 66.1805C46.2429 66.1818 46.6038 66.2013 46.963 66.2389C48.5591 59.8774 53.7289 55.0376 60.1818 53.8639C66.6346 52.6901 73.1775 55.3995 76.9115 60.7916C77.8105 60.6037 78.7264 60.5088 79.6449 60.5083C86.6295 60.5094 92.415 65.9297 92.8707 72.8994C92.8902 72.6118 92.901 72.3242 92.901 72.0344C92.901 68.5161 91.5041 65.1441 89.0176 62.658C86.5311 60.1719 83.1589 58.7756 79.6427 58.7761C78.725 58.7768 77.8098 58.8717 76.9115 59.0594C73.1775 53.6674 66.6346 50.958 60.1818 52.1317C53.7289 53.3054 48.5591 58.1452 46.963 64.5068C46.6038 64.4698 46.2429 64.4511 45.8818 64.4505C43.1181 64.45 40.4675 65.5474 38.5131 67.5014C36.5587 69.4554 35.4607 72.1058 35.4607 74.8695C35.4607 75.1636 35.4758 75.4512 35.4996 75.7345C35.9495 70.3346 40.4632 66.181 45.8818 66.1805Z" fill="#C4ECEC"/>
<g style="mix-blend-mode:multiply">
<path fill-rule="evenodd" clip-rule="evenodd" d="M57.4121 73.1003H56.4628L55.6713 75.3407L55.5134 75.7883L54.59 73.1003H53.5953L52.6546 75.7991L52.4989 75.3515L51.7139 73.1003H50.5094L50.5937 73.3469L50.8965 74.2119L51.6317 76.3203L52.1616 77.8535H53.1498L54.0883 75.1612L55.0225 77.8449H56.013L56.5428 76.3116L57.2759 74.2032L57.5786 73.3382L57.6651 73.0917L57.4121 73.1003ZM61.4236 76.3722L61.2766 76.4479C61.0629 76.5604 60.8426 76.6601 60.617 76.7463C60.3914 76.8265 60.1536 76.8674 59.9142 76.8674C59.6554 76.8816 59.3987 76.8135 59.1811 76.6728C59.0347 76.5586 58.928 76.4012 58.8762 76.223H59.5011C60.0092 76.2413 60.5142 76.1375 60.9738 75.9202C61.4352 75.6874 61.7388 75.2276 61.7718 74.7118C61.8047 74.1959 61.5619 73.7013 61.1338 73.4117C60.756 73.1649 60.3135 73.0355 59.8623 73.0398C59.2238 73.0301 58.6148 73.308 58.2036 73.7966C57.7915 74.3058 57.5792 74.9478 57.6068 75.6023C57.5742 76.2189 57.7846 76.8237 58.1928 77.2869C58.6243 77.7383 59.2298 77.9811 59.8536 77.9529C60.5624 77.9436 61.2539 77.7329 61.8474 77.3453L62.0053 77.2437L61.4236 76.3722ZM59.434 74.1813C59.5549 74.116 59.6903 74.0826 59.8276 74.084C59.9329 74.085 60.0379 74.0958 60.1412 74.1164C60.2309 74.1326 60.3163 74.1672 60.392 74.218C60.4523 74.2526 60.5023 74.3026 60.5369 74.3629C60.5824 74.4345 60.605 74.5182 60.6018 74.603C60.6129 74.6958 60.5847 74.7891 60.5239 74.8603C60.4355 74.9444 60.3321 75.0112 60.219 75.0571C59.9863 75.1258 59.743 75.1514 59.5011 75.1328H58.8069C58.8535 74.8922 58.9565 74.6662 59.1075 74.4732C59.2003 74.3594 59.3105 74.2608 59.434 74.1813L59.434 74.1813ZM66.2676 73.6927C65.613 72.9406 64.533 72.7255 63.6402 73.1693V71.1128H62.4832V77.6846L62.613 77.7236C63.152 77.8634 63.7062 77.936 64.263 77.9398C65.1063 77.9398 65.7551 77.6954 66.1898 77.2132C66.6144 76.7105 66.8405 76.0698 66.8255 75.4119C66.837 74.7925 66.6406 74.1872 66.2676 73.6927ZM64.9701 76.7395C64.7804 76.8202 64.5748 76.8565 64.3689 76.8454C64.1808 76.8454 63.9213 76.8303 63.6488 76.8022V74.7824C63.6567 74.6258 63.724 74.4781 63.8369 74.3694C64.0344 74.1484 64.3192 74.0257 64.6154 74.0342C64.9372 74.021 65.2397 74.1876 65.4004 74.4667C65.5803 74.7618 65.6705 75.1029 65.6599 75.4484C65.6818 75.8073 65.5718 76.1619 65.3507 76.4454C65.2489 76.5721 65.1184 76.6729 64.9701 76.7395ZM67.3704 73.1001H68.5274V77.8576H67.3704V73.1001ZM73.8579 77.8579V74.5536C73.8614 74.3083 73.8128 74.0651 73.7151 73.84C73.4578 73.3167 72.8782 73.0291 72.0846 73.0291C71.5633 73.0062 71.0534 73.186 70.6617 73.5308C70.5256 73.3406 70.3564 73.1765 70.1621 73.0464L70.0432 72.9599L69.2863 73.6475L69.4312 73.7838C69.5491 73.8883 69.6447 74.0156 69.7123 74.1579C69.7698 74.3098 69.7977 74.4713 69.7945 74.6336V77.8579H70.9493V74.7223C71.0792 74.5549 71.2346 74.4089 71.4099 74.2898C71.5961 74.1634 71.8164 74.097 72.0414 74.0995C72.227 74.0885 72.4102 74.1462 72.556 74.2617C72.6274 74.3265 72.7009 74.439 72.7009 74.7764V77.8579H73.8579ZM75.5685 77.743C76.2172 77.2716 76.8962 77.4683 77.5774 77.4943H77.705C78.0787 77.493 78.4519 77.4707 78.823 77.4273L78.823 73.1001H77.6682V76.0281C77.6682 76.0281 77.4844 76.7655 76.7903 76.7785C76.7903 76.7785 76.0074 76.8391 75.9253 76.1817V73.1001H74.7662V76.3979C74.7626 76.6432 74.8113 76.8865 74.9089 77.1115C75.0483 77.3902 75.2809 77.6113 75.5663 77.7365L75.5685 77.743Z" fill="#E5E5E5"/>
<path fill-rule="evenodd" clip-rule="evenodd" d="M80.4234 75.0617C79.9797 74.7892 79.4454 74.7059 78.9399 74.8303V76.1429C78.9534 76.1178 78.9702 76.0946 78.9896 76.0737C79.0152 76.0481 79.0443 76.0262 79.0761 76.0089C79.3136 75.8871 79.5975 75.8986 79.8243 76.0391C80.0293 76.1607 80.141 76.3936 80.1076 76.6295C80.0982 76.824 80.0071 77.0054 79.8568 77.129C79.5821 77.3308 79.2606 77.4595 78.9226 77.5032H78.9074H78.8707C78.7085 77.5183 78.1917 77.5615 77.7202 77.5551H77.6272H77.5926H77.4997H77.4629C77.2315 77.5551 77.0196 77.5269 76.8379 77.514C76.7774 77.514 76.7147 77.514 76.6541 77.514C76.5936 77.514 76.546 77.514 76.4919 77.514C76.4379 77.514 76.3968 77.514 76.3535 77.5269H76.3081C76.0776 77.5638 75.8569 77.6469 75.6594 77.7713L75.6399 77.7864C75.4477 77.912 75.2853 78.078 75.1641 78.273C74.8115 78.8738 74.8115 79.6184 75.1641 80.2193C75.4966 80.7999 76.1341 81.1367 76.8012 81.0843C77.3008 81.0636 77.77 80.8384 78.0987 80.4615C78.4023 80.0965 78.6124 79.663 78.7106 79.1986C78.7452 79.0515 78.7755 78.9045 78.7971 78.7661L77.6251 78.7401C77.5991 78.8655 77.5688 78.9888 77.5321 79.1099C77.4753 79.3229 77.376 79.5223 77.2401 79.6959C77.1137 79.8436 76.9306 79.9308 76.7363 79.936C76.4996 79.9648 76.2686 79.8489 76.1502 79.6419C76.0137 79.4118 76.0079 79.1269 76.1351 78.8915C76.1536 78.8605 76.1762 78.8322 76.2021 78.8071C76.3564 78.6882 76.5519 78.6361 76.7449 78.6622C76.9612 78.6622 77.1774 78.6622 77.3937 78.6493C77.4759 78.6493 77.5559 78.6493 77.638 78.6493L78.8253 78.6752C79.4091 78.6017 80.1076 78.4244 80.5985 78.0027C80.9829 77.6769 81.2173 77.2081 81.2473 76.7052C81.314 76.0401 80.9915 75.396 80.419 75.0509" fill="#E5E5E5"/>
</g>
<path fill-rule="evenodd" clip-rule="evenodd" d="M56.6986 72.3734H55.7492L54.9642 74.6246L54.8085 75.0722L53.8679 72.3734H52.8818L51.9411 75.0722L51.7832 74.6246L50.9982 72.3734H49.7937L49.8802 72.6221L50.1829 73.4871L50.916 75.5977L51.4459 77.1309H52.4276L53.3662 74.4364L54.3047 77.1309H55.2951L55.8249 75.5977L56.5602 73.4871L56.8608 72.6221L56.9473 72.3734H56.6986ZM60.7079 75.6449L60.563 75.7228C60.3485 75.8346 60.1276 75.9336 59.9013 76.019C59.6765 76.0997 59.4395 76.1414 59.2006 76.1423C58.9412 76.1558 58.6841 76.0878 58.4654 75.9477C58.3201 75.8316 58.2137 75.6739 58.1605 75.4957H58.7876C59.2953 75.5132 59.8 75.4102 60.2603 75.1951C60.7214 74.9619 61.0246 74.5019 61.057 73.9861C61.0895 73.4703 60.8464 72.9759 60.4181 72.6866C60.0412 72.4376 59.5983 72.3073 59.1466 72.3125C58.5087 72.3029 57.9004 72.5809 57.4901 73.0694C57.0763 73.5777 56.8631 74.2202 56.8911 74.8751C56.86 75.4921 57.0701 76.097 57.4771 76.5618C57.909 77.0124 58.5145 77.2545 59.1379 77.2257C59.8467 77.2164 60.5382 77.0056 61.1317 76.6181L61.2896 76.5186L60.7079 75.6449ZM58.7205 73.4699C58.84 73.4033 58.9751 73.3697 59.1119 73.3726C59.2173 73.3724 59.3224 73.3833 59.4255 73.405C59.5153 73.4209 59.6008 73.4555 59.6763 73.5066C59.7374 73.54 59.7882 73.5893 59.8234 73.6494C59.8677 73.7222 59.8895 73.8064 59.8861 73.8916C59.8966 73.9844 59.8685 74.0775 59.8082 74.1489C59.719 74.2314 59.6158 74.2974 59.5033 74.3435C59.2715 74.413 59.0288 74.4387 58.7875 74.4192H58.0912C58.1386 74.1822 58.2417 73.9599 58.3918 73.7705C58.4836 73.6524 58.5947 73.5508 58.7205 73.4699V73.4699ZM65.5605 72.9787C64.9069 72.2252 63.8268 72.0082 62.933 72.4511V70.3945H61.7761V76.9707L61.908 77.0075C62.447 77.1474 63.0012 77.22 63.558 77.2237C64.4014 77.2237 65.048 76.9793 65.4848 76.4971C65.9098 75.9946 66.1359 75.3537 66.1206 74.6958C66.1316 74.0768 65.9343 73.4721 65.5605 72.9787V72.9787ZM64.2631 76.0256C64.0732 76.1055 63.8677 76.1417 63.6619 76.1316C63.4212 76.1289 63.1809 76.1137 62.9418 76.0862V74.0664C62.9501 73.9099 63.0173 73.7623 63.1299 73.6533C63.3279 73.4331 63.6124 73.3106 63.9084 73.3182C64.2302 73.305 64.5327 73.4716 64.6934 73.7507C64.8741 74.0456 64.965 74.3867 64.9551 74.7324C64.9762 75.0912 64.8663 75.4455 64.6458 75.7293C64.5404 75.8574 64.4063 75.9589 64.2544 76.0256H64.2631ZM66.6634 72.3818H67.8204V77.1393H66.6634V72.3818ZM73.1509 77.1392V73.8392C73.1548 73.5939 73.1061 73.3505 73.0081 73.1256C72.7508 72.6001 72.1734 72.3125 71.3776 72.3125C70.8563 72.2899 70.3465 72.4696 69.9547 72.8142C69.8188 72.6246 69.6504 72.4606 69.4573 72.3298L69.3362 72.2433L68.5793 72.931L68.7242 73.0672C68.8416 73.1722 68.9371 73.2993 69.0053 73.4413C69.063 73.5939 69.0909 73.7561 69.0875 73.9192V77.1392H70.2445V74.0079C70.3737 73.8406 70.5284 73.6946 70.7029 73.5754C70.8898 73.4505 71.1096 73.3842 71.3344 73.3851C71.5207 73.3739 71.7046 73.4317 71.8512 73.5473C71.9226 73.6143 71.9939 73.7267 71.9939 74.0619V77.1413L73.1509 77.1392ZM74.8615 77.0226C75.5102 76.5511 76.1893 76.7479 76.8726 76.7739H76.998C77.3717 76.7726 77.7449 76.7502 78.1161 76.7068L78.116 72.3818H76.9613V75.3099C76.9613 75.3099 76.7774 76.0473 76.0833 76.0602C76.0833 76.0602 75.3005 76.1208 75.2183 75.4634V72.3861H74.0527V75.6948C74.048 75.9393 74.096 76.1819 74.1933 76.4062C74.3369 76.6824 74.5725 76.8996 74.8593 77.0204L74.8615 77.0226Z" fill="white"/>
<path fill-rule="evenodd" clip-rule="evenodd" d="M79.7076 74.3461C79.2627 74.0768 78.7291 73.9951 78.2241 74.1191V75.4317C78.2382 75.4069 78.2549 75.3837 78.2738 75.3625C78.2999 75.3373 78.3289 75.3155 78.3603 75.2976C78.5978 75.1758 78.8817 75.1873 79.1086 75.3279C79.3138 75.4502 79.4255 75.6839 79.3918 75.9204C79.3824 76.1142 79.2912 76.295 79.141 76.4178C78.8663 76.6196 78.5448 76.7483 78.2068 76.7919L78.1917 76.7919H78.1549C77.7725 76.8288 77.3885 76.8461 77.0044 76.8438H77.0044H76.9115H76.8639H76.7687H76.732C76.5027 76.8287 76.2887 76.8157 76.107 76.8005C76.0465 76.8005 75.9859 76.8005 75.9232 76.8005C75.8605 76.8005 75.8151 76.8005 75.761 76.8005C75.7069 76.8005 75.668 76.8005 75.6226 76.8135H75.5793C75.3487 76.851 75.128 76.9349 74.9306 77.0601L74.9133 77.073C74.7206 77.1979 74.5581 77.3641 74.4375 77.5596C74.084 78.1602 74.084 78.9053 74.4375 79.5058C74.77 80.0865 75.4075 80.4233 76.0746 80.3708C76.5744 80.3489 77.0433 80.123 77.3721 79.7459C77.6746 79.3805 77.8839 78.9471 77.9819 78.483C78.0187 78.3359 78.0468 78.1889 78.0684 78.0505L76.8985 78.0245C76.8725 78.1499 76.8401 78.2732 76.8033 78.3943C76.746 78.6078 76.6468 78.8078 76.5114 78.9825C76.3843 79.1291 76.2015 79.2155 76.0075 79.2204C75.7713 79.2495 75.5408 79.1334 75.4236 78.9263C75.2855 78.6968 75.2789 78.4115 75.4063 78.1759C75.4256 78.1461 75.4481 78.1186 75.4734 78.0937C75.627 77.9734 75.8228 77.9204 76.0162 77.9467C76.2324 77.9467 76.4487 77.9467 76.6649 77.9337C76.7456 77.9294 76.8265 77.9294 76.9071 77.9337L78.0943 77.9597C78.6782 77.8861 79.3767 77.7088 79.8676 77.2893C80.2524 76.9638 80.4869 76.4949 80.5163 75.9918C80.5812 75.3264 80.2594 74.6826 79.6881 74.3353" fill="white"/>
<path fill-rule="evenodd" clip-rule="evenodd" d="M76.2886 35.8362C76.2886 42.6939 70.7278 48.255 63.8679 48.2554C57.0081 48.2558 51.4466 42.6953 51.4458 35.8354C51.445 28.9756 57.0052 23.4138 63.865 23.4126C67.1601 23.412 70.3205 24.7207 72.6505 27.0507C74.9805 29.3807 76.2892 32.541 76.2886 35.8362V35.8362Z" fill="#EBEBEB"/>
<path fill-rule="evenodd" clip-rule="evenodd" d="M63.8673 48.7981C56.7086 48.7981 50.9053 42.9948 50.9053 35.836C50.9053 28.6773 56.7086 22.874 63.8673 22.874C71.026 22.874 76.8293 28.6773 76.8293 35.8361C76.8219 42.9923 71.0226 48.7912 63.8668 48.7981H63.8673ZM63.8673 23.9532C57.2985 23.9532 51.9735 29.2782 51.9735 35.847C51.9735 42.4157 57.2985 47.7407 63.8673 47.7407C70.436 47.7407 75.761 42.4157 75.761 35.847C75.761 29.2782 70.436 23.9532 63.8673 23.9532V23.9532Z" fill="#8D64DB"/>
<path fill-rule="evenodd" clip-rule="evenodd" d="M67.3641 42.49C67.1977 42.4898 67.0328 42.459 66.8776 42.3992C66.5183 42.2579 66.2381 41.9675 66.1099 41.6034L62.6693 31.8418H61.8043C61.316 31.8615 60.8561 31.6122 60.6061 31.1923C60.3561 30.7724 60.3561 30.2493 60.6061 29.8293C60.8561 29.4094 61.316 29.1601 61.8043 29.1798L63.6187 29.1798C64.183 29.18 64.6857 29.5362 64.8729 30.0686L68.1167 39.2657L69.053 38.7726C69.7033 38.4307 70.5077 38.6805 70.8498 39.3306C71.1919 39.9808 70.9423 40.7853 70.2922 41.1276L67.9934 42.3386C67.7992 42.4399 67.5831 42.4918 67.3641 42.49Z" fill="#8D64DB"/>
<path fill-rule="evenodd" clip-rule="evenodd" d="M59.8601 42.4904C59.3571 42.4939 58.8952 42.2134 58.6664 41.7654C58.4376 41.3174 58.4811 40.7787 58.7789 40.3733L63.8521 33.4706C64.2856 32.8758 65.1192 32.7451 65.714 33.1787C66.3088 33.6122 66.4395 34.4458 66.0059 35.0406L60.9327 41.9606C60.6795 42.2974 60.2815 42.494 59.8601 42.4904H59.8601Z" fill="#8D64DB"/>
<path fill-rule="evenodd" clip-rule="evenodd" d="M44.9497 97.169C44.9497 102.197 41.9218 106.727 37.2784 108.65C32.635 110.572 27.2907 109.508 23.7383 105.953C20.1858 102.398 19.1251 97.0529 21.0507 92.4108C22.9764 87.7687 27.5091 84.7441 32.5347 84.7476C39.3924 84.7511 44.9497 90.3113 44.9497 97.169Z" fill="#EBEBEB"/>
<path fill-rule="evenodd" clip-rule="evenodd" d="M32.5326 110.131C25.3739 110.131 19.5706 104.328 19.5706 97.1691C19.5706 90.0103 25.3739 84.207 32.5326 84.207C39.6913 84.207 45.4946 90.0103 45.4946 97.1691C45.4872 104.325 39.6879 110.124 32.5321 110.131H32.5326ZM32.5325 85.2862C25.9712 85.2922 20.6564 90.615 20.6604 97.1764C20.6644 103.738 25.9856 109.054 32.5469 109.052C39.1083 109.05 44.4263 103.731 44.4263 97.1692C44.4203 90.6046 39.097 85.2862 32.5325 85.2862L32.5325 85.2862Z" fill="#8D64DB"/>
<path fill-rule="evenodd" clip-rule="evenodd" d="M36.025 103.823C35.8586 103.823 35.6937 103.792 35.5384 103.732C35.1784 103.59 34.8975 103.299 34.7686 102.934L31.3302 93.1747H30.4652C29.751 93.1459 29.1868 92.5585 29.1868 91.8437C29.1868 91.1289 29.751 90.5415 30.4652 90.5127H32.2817C32.8458 90.5135 33.3482 90.8695 33.536 91.4015L36.7797 100.599L37.7161 100.106C38.1389 99.8606 38.6618 99.8668 39.0787 100.122C39.4956 100.377 39.7394 100.839 39.7141 101.327C39.6888 101.815 39.3984 102.25 38.9573 102.461L36.6413 103.672C36.4512 103.771 36.2397 103.823 36.025 103.823Z" fill="#8D64DB"/>
<path fill-rule="evenodd" clip-rule="evenodd" d="M28.519 103.823C28.2365 103.824 27.9612 103.734 27.7341 103.566C27.4495 103.357 27.2595 103.044 27.206 102.695C27.1524 102.346 27.2397 101.99 27.4486 101.706L32.5326 94.8053C32.8091 94.4098 33.2782 94.195 33.7583 94.2443C34.2383 94.2935 34.6541 94.5989 34.8446 95.0423C35.0351 95.4857 34.9704 95.9975 34.6757 96.3796L29.6046 103.28C29.3512 103.625 28.9472 103.827 28.519 103.823H28.519Z" fill="#8D64DB"/>
<path fill-rule="evenodd" clip-rule="evenodd" d="M108.912 97.169C108.914 102.192 105.888 106.723 101.246 108.648C96.6035 110.572 91.2592 109.51 87.7052 105.957C84.1512 102.405 83.0875 97.0607 85.0102 92.4178C86.9329 87.7749 91.4633 84.7475 96.4885 84.7476C99.7835 84.7464 102.944 86.0547 105.274 88.3843C107.604 90.714 108.913 93.8741 108.912 97.169Z" fill="#EBEBEB"/>
<path fill-rule="evenodd" clip-rule="evenodd" d="M96.4908 110.131C89.3321 110.131 83.5288 104.328 83.5288 97.1691C83.5288 90.0103 89.3321 84.207 96.4908 84.207C103.65 84.207 109.453 90.0103 109.453 97.1691C109.445 104.325 103.646 110.124 96.4904 110.131H96.4908ZM96.4908 85.2862C89.9294 85.2922 84.6147 90.615 84.6187 97.1764C84.6226 103.738 89.9438 109.054 96.5052 109.052C103.067 109.05 108.385 103.731 108.385 97.1692C108.379 90.6046 103.055 85.2862 96.4907 85.2862L96.4908 85.2862Z" fill="#8D64DB"/>
<path fill-rule="evenodd" clip-rule="evenodd" d="M99.9876 103.823C99.4229 103.824 98.9194 103.467 98.7333 102.934L95.2949 93.1748H94.4299C93.9416 93.1945 93.4817 92.9452 93.2317 92.5253C92.9817 92.1054 92.9817 91.5823 93.2317 91.1623C93.4817 90.7424 93.9416 90.4931 94.4299 90.5128H96.2443C96.809 90.5133 97.3122 90.8693 97.5007 91.4016L100.744 100.599L101.681 100.106C102.331 99.7635 103.136 100.013 103.478 100.664C103.82 101.314 103.57 102.118 102.92 102.461L100.621 103.672C100.426 103.774 100.208 103.826 99.9876 103.823H99.9876Z" fill="#8D64DB"/>
<path fill-rule="evenodd" clip-rule="evenodd" d="M92.4835 103.823C91.9805 103.826 91.5186 103.546 91.2898 103.098C91.061 102.65 91.1046 102.111 91.4023 101.706L96.4755 94.8051C96.9103 94.2127 97.7429 94.0849 98.3353 94.5197C98.9276 94.9544 99.0555 95.787 98.6207 96.3794L93.5475 103.28C93.2991 103.619 92.9042 103.821 92.4835 103.823Z" fill="#8D64DB"/>
<defs>
<linearGradient id="paint0_linear" x1="60.8591" y1="19.119" x2="10.2675" y2="75.4911" gradientUnits="userSpaceOnUse">
<stop stop-color="#FDBAA9"/>
<stop offset="1" stop-color="#F94F24"/>
</linearGradient>
<linearGradient id="paint1_linear" x1="92.4234" y1="112.362" x2="96.5898" y2="67.6015" gradientUnits="userSpaceOnUse">
<stop stop-color="#8033EB"/>
<stop offset="1" stop-color="#A2E1E0"/>
</linearGradient>
</defs>
</svg>
