<svg xmlns="http://www.w3.org/2000/svg" xmlns:xlink="http://www.w3.org/1999/xlink" viewBox="0 0 800 500"><defs><linearGradient id="a" x1="318.88" y1="388.65" x2="273.12" y2="134.89" gradientUnits="userSpaceOnUse"><stop offset="0" stop-color="#8033eb"/><stop offset="1" stop-color="#a2e1e0"/></linearGradient><linearGradient id="b" x1="370.45" y1="279.31" x2="393.5" y2="206.43" gradientUnits="userSpaceOnUse"><stop offset="0" stop-color="#8033eb"/><stop offset="1" stop-color="#f94f24"/></linearGradient><linearGradient id="c" x1="558.32" y1="103.85" x2="654.81" y2="103.85" gradientUnits="userSpaceOnUse"><stop offset="0" stop-color="#8033eb"/><stop offset="1" stop-color="#6731ce"/></linearGradient><linearGradient id="d" x1="558.32" y1="250" x2="654.81" y2="250" xlink:href="#c"/><linearGradient id="e" x1="558.32" y1="396.15" x2="654.81" y2="396.15" xlink:href="#c"/></defs><title>Artboard 2 copy 16</title><g style="isolation:isolate"><path d="M444.57,147a25.52,25.52,0,1,1-25.52-25.53A25.53,25.53,0,0,1,444.57,147Z" style="fill:#f2f2f2"/><path d="M212.62,133.89a25.52,25.52,0,1,1-25.52-25.52A25.52,25.52,0,0,1,212.62,133.89Z" style="fill:#f2f2f2"/><rect x="127.78" y="265.5" width="280.96" height="67.82" rx="32" ry="32" style="fill:#f2f2f2"/><path d="M398.1,243.23c2.17-12.83,6-29.83-1.11-41.73a2.1,2.1,0,0,1,1.56-3.16,53.48,53.48,0,0,0-40.08-18,54.36,54.36,0,0,0-11.05,1.14,67.63,67.63,0,0,0-121.19,22,42.87,42.87,0,0,0-4.42-.23,42.17,42.17,0,0,0,0,84.33H358.47c11.57,0,20.73-3.05,29.3-11.62A119.08,119.08,0,0,0,398.1,243.23Z" style="fill:#ebebeb;mix-blend-mode:multiply"/><path d="M353.55,175a53.66,53.66,0,0,0-11.05,1.15,67.62,67.62,0,0,0-121.19,22,43,43,0,0,0-4.42-.23,42.17,42.17,0,0,0,0,84.33H353.55a53.65,53.65,0,0,0,0-107.29Z" style="fill:url(#a)"/><path d="M216.89,204.4a43,43,0,0,1,4.42.23,67.63,67.63,0,0,1,121.19-22,54.28,54.28,0,0,1,11.05-1.14,53.63,53.63,0,0,1,53.52,50.13c.07-1.16.12-2.33.12-3.51a53.64,53.64,0,0,0-64.69-52.49,67.63,67.63,0,0,0-121.19,22,40.36,40.36,0,0,0-4.42-.24,42.18,42.18,0,0,0-42.17,42.17c0,1.18.07,2.35.16,3.51A42.16,42.16,0,0,1,216.89,204.4Z" style="fill:#c4ecec"/><g style="mix-blend-mode:multiply"><path d="M267,252.22a3.62,3.62,0,0,1-2.57-1.06L251,237.77a3.61,3.61,0,0,1,0-5.13l13.37-13.38a3.63,3.63,0,1,1,5.14,5.14L258.7,235.2,269.52,246a3.63,3.63,0,0,1-2.57,6.19Z" style="fill:#ccc"/><path d="M317.3,252.22a3.63,3.63,0,0,1-2.57-6.2l10.81-10.81L314.72,224.4a3.63,3.63,0,1,1,5.14-5.14l13.38,13.39a3.61,3.61,0,0,1,0,5.13l-13.38,13.38A3.6,3.6,0,0,1,317.3,252.22Z" style="fill:#ccc"/><path d="M299,252.22a3.64,3.64,0,0,1-3.21-1.91l-14.34-26.76a3.63,3.63,0,0,1,6.4-3.44l14.35,26.77a3.63,3.63,0,0,1-1.49,4.91A3.5,3.5,0,0,1,299,252.22Z" style="fill:#ccc"/></g><path d="M264.63,249.9a3.62,3.62,0,0,1-2.57-1.06l-13.39-13.39a3.63,3.63,0,0,1,0-5.13l13.38-13.38a3.63,3.63,0,1,1,5.14,5.14l-10.81,10.8,10.81,10.82a3.63,3.63,0,0,1,0,5.14A3.58,3.58,0,0,1,264.63,249.9Z" style="fill:#fff"/><path d="M315,249.9a3.63,3.63,0,0,1-2.57-6.2l10.81-10.81L312.4,222.08a3.63,3.63,0,1,1,5.13-5.14l13.39,13.39a3.61,3.61,0,0,1,0,5.13l-13.38,13.38A3.6,3.6,0,0,1,315,249.9Z" style="fill:#fff"/><path d="M296.64,249.9a3.64,3.64,0,0,1-3.21-1.91l-14.34-26.77a3.63,3.63,0,0,1,6.4-3.43l14.34,26.76a3.63,3.63,0,0,1-3.19,5.35Z" style="fill:#fff"/><path d="M410.66,276.84a39.44,39.44,0,1,1-39.43-39.44A39.43,39.43,0,0,1,410.66,276.84Z" style="fill:url(#b)"/><g style="mix-blend-mode:multiply"><path d="M367.64,274.24h-4.89v-7.89a10.5,10.5,0,0,1,21,0v7.89h-4.89v-7.89a5.61,5.61,0,0,0-11.22,0Z" style="fill:#ccc"/><path d="M383.83,276.17H362.68a2,2,0,0,0-1.95,1.95v17.75a2,2,0,0,0,1.95,2h21.15a2,2,0,0,0,1.95-2V278.12A2,2,0,0,0,383.83,276.17ZM374.9,288v2.36a1.65,1.65,0,0,1-3.29,0V288a3.27,3.27,0,1,1,3.29,0Z" style="fill:#ccc"/></g><path d="M365.62,271.81h-4.89v-7.88a10.5,10.5,0,1,1,21,0v7.88h-4.89v-7.88a5.61,5.61,0,1,0-11.22,0Z" style="fill:#fff"/><path d="M381.8,273.74H360.65a2,2,0,0,0-1.95,2v17.75a2,2,0,0,0,1.95,2H381.8a2,2,0,0,0,1.95-2V275.7A2,2,0,0,0,381.8,273.74Zm-8.93,11.88V288a1.65,1.65,0,1,1-3.29,0v-2.35a3.27,3.27,0,1,1,3.29,0Z" style="fill:#fff"/><circle cx="606.57" cy="103.85" r="65.66" transform="translate(104.22 459.32) rotate(-45)" style="fill:#f1ecfa"/><path d="M654.81,103.85a48.25,48.25,0,1,1-48.24-48.24A48.24,48.24,0,0,1,654.81,103.85Z" style="fill:url(#c)"/><path d="M606.57,153.39a49.54,49.54,0,1,1,49.54-49.54A49.59,49.59,0,0,1,606.57,153.39Zm0-96.49a46.95,46.95,0,1,0,46.95,46.95A47,47,0,0,0,606.57,56.9Z" style="fill:#f94f24"/><circle cx="606.57" cy="250" r="65.66" transform="translate(223.89 782.9) rotate(-76.72)" style="fill:#f1ecfa"/><path d="M654.81,250a48.25,48.25,0,1,1-48.24-48.25A48.24,48.24,0,0,1,654.81,250Z" style="fill:url(#d)"/><path d="M606.57,299.54A49.54,49.54,0,1,1,656.11,250,49.59,49.59,0,0,1,606.57,299.54Zm0-96.49A46.95,46.95,0,1,0,653.52,250,47,47,0,0,0,606.57,203.05Z" style="fill:#f94f24"/><path d="M672.22,396.15a65.66,65.66,0,1,1-65.65-65.66A65.65,65.65,0,0,1,672.22,396.15Z" style="fill:#f1ecfa;fill-rule:evenodd"/><path d="M654.81,396.15a48.25,48.25,0,1,1-48.24-48.25A48.24,48.24,0,0,1,654.81,396.15Z" style="fill:url(#e)"/><path d="M606.57,445.69a49.54,49.54,0,1,1,49.54-49.54A49.6,49.6,0,0,1,606.57,445.69Zm0-96.49a46.95,46.95,0,1,0,46.95,46.95A47,47,0,0,0,606.57,349.2Z" style="fill:#f94f24"/><path d="M635.32,274.61H587.49a1,1,0,0,1-1-1V240.31a1,1,0,0,1,1-1h47.83a1,1,0,0,1,1,1v33.26A1,1,0,0,1,635.32,274.61Zm-46.79-2.07h45.75V241.35H588.53Z" style="fill:#fff"/><path d="M582.66,264.93h-4.85a1,1,0,0,1-1-1V230.64a1,1,0,0,1,1-1h47.83a1,1,0,0,1,1,1v5.74a1,1,0,0,1-2.08,0v-4.71H578.85v31.19h3.81a1,1,0,1,1,0,2.07Z" style="fill:#fff"/><path d="M635.18,252.05h-47a1,1,0,1,1,0-2.07h47a1,1,0,1,1,0,2.07Z" style="fill:#fff"/><path d="M595.71,245.86a1.51,1.51,0,1,1-1.51-1.51A1.51,1.51,0,0,1,595.71,245.86Z" style="fill:#fff"/><path d="M601.62,245.86a1.52,1.52,0,1,1-1.51-1.51A1.51,1.51,0,0,1,601.62,245.86Z" style="fill:#fff"/><path d="M607.53,245.86a1.52,1.52,0,1,1-1.52-1.51A1.51,1.51,0,0,1,607.53,245.86Z" style="fill:#fff"/><path d="M606.65,107.25c-8.75,0-15.87-8.36-15.87-18.63,0-9.8,6.52-16.65,15.87-16.65s15.87,6.85,15.87,16.65C622.52,98.89,615.4,107.25,606.65,107.25Zm0-33.2c-8.13,0-13.8,6-13.8,14.57,0,9.13,6.19,16.56,13.8,16.56s13.79-7.43,13.79-16.56C620.44,80,614.77,74.05,606.65,74.05Z" style="fill:#fff"/><path d="M606.65,131.77c-17.79,0-26-5.23-26.38-5.46a1,1,0,0,1-.47-.87c0-8.12,7.09-11,11.32-12.77.91-.37,1.69-.69,2.28-1,2.69-1.42,3.45-3,3.61-3.41v-4.92a1,1,0,1,1,2.07,0v5.08a1,1,0,0,1,0,.25c-.07.28-.79,2.78-4.68,4.83-.68.36-1.5.7-2.46,1.09-4.11,1.69-9.69,4-10,10.26,2,1.07,10,4.85,24.76,4.85a1,1,0,1,1,0,2.07Z" style="fill:#fff"/><path d="M606.51,131.77a1,1,0,1,1,0-2.07c14.8,0,22.78-3.77,24.75-4.85-.32-6.28-5.91-8.57-10-10.26-1-.39-1.78-.73-2.45-1.09-3.9-2-4.62-4.55-4.69-4.83a1,1,0,0,1,0-.25v-5.08a1,1,0,1,1,2.08,0v4.92c.15.39.89,2,3.6,3.41.59.31,1.38.63,2.28,1,4.24,1.74,11.33,4.65,11.33,12.77a1,1,0,0,1-.48.87C632.54,126.54,624.29,131.77,606.51,131.77Z" style="fill:#fff"/><path d="M618.08,427h-23a5.07,5.07,0,0,1-5.06-5.07V374a5.07,5.07,0,0,1,5.06-5.07h23a5.07,5.07,0,0,1,5.06,5.07v47.93A5.07,5.07,0,0,1,618.08,427Zm-23-56a3,3,0,0,0-3,3v47.93a3,3,0,0,0,3,3h23a3,3,0,0,0,3-3V374a3,3,0,0,0-3-3Z" style="fill:#fff"/><path d="M622.1,376.14H591a1,1,0,1,1,0-2.07H622.1a1,1,0,1,1,0,2.07Z" style="fill:#fff"/><path d="M622.1,419.55H591a1,1,0,1,1,0-2.08H622.1a1,1,0,1,1,0,2.08Z" style="fill:#fff"/><path d="M607.91,423.4h-2.69a1,1,0,1,1,0-2.07h2.69a1,1,0,1,1,0,2.07Z" style="fill:#fff"/><path d="M458.77,234.23h-.71a1.67,1.67,0,1,1,0-3.33h.71a22.51,22.51,0,0,0,5.74-.7,1.66,1.66,0,0,1,2,1.18,1.68,1.68,0,0,1-1.18,2A26.05,26.05,0,0,1,458.77,234.23Zm-12.3,0h-7a1.67,1.67,0,1,1,0-3.33h7a1.67,1.67,0,1,1,0,3.33Zm-18.54,0H421a1.67,1.67,0,1,1,0-3.33h6.95a1.67,1.67,0,1,1,0,3.33Zm46.43-7.08a1.57,1.57,0,0,1-1-.33,1.66,1.66,0,0,1-.34-2.33,19.55,19.55,0,0,0,2.87-5.7,1.67,1.67,0,0,1,3.17,1,23.17,23.17,0,0,1-3.37,6.66A1.67,1.67,0,0,1,474.36,227.15Zm4.42-17.65a1.66,1.66,0,0,1-1.66-1.67v-7a1.67,1.67,0,1,1,3.33,0v7A1.67,1.67,0,0,1,478.78,209.5Zm0-18.55a1.66,1.66,0,0,1-1.66-1.66v-6.95a1.67,1.67,0,1,1,3.33,0v6.95A1.66,1.66,0,0,1,478.78,191Zm0-18.54a1.66,1.66,0,0,1-1.66-1.66v-7a1.67,1.67,0,0,1,3.33,0v7A1.66,1.66,0,0,1,478.78,172.41Zm0-18.54a1.66,1.66,0,0,1-1.66-1.66v-7a1.67,1.67,0,0,1,3.33,0v7A1.66,1.66,0,0,1,478.78,153.87Zm0-18.54a1.66,1.66,0,0,1-1.66-1.66v-7a1.67,1.67,0,0,1,3.33,0v7A1.67,1.67,0,0,1,478.78,135.33Zm1-18.45a1.31,1.31,0,0,1-.39,0,1.65,1.65,0,0,1-1.23-2,32.11,32.11,0,0,1,2.49-6.87,1.66,1.66,0,1,1,3,1.49,29.47,29.47,0,0,0-2.23,6.16A1.65,1.65,0,0,1,479.8,116.88Zm9.45-15.57a1.68,1.68,0,0,1-1.27-.58,1.67,1.67,0,0,1,.18-2.35,34.94,34.94,0,0,1,6-4.14,1.66,1.66,0,0,1,1.61,2.91,32.28,32.28,0,0,0-5.43,3.76A1.64,1.64,0,0,1,489.25,101.31Zm16.55-8a1.67,1.67,0,0,1-.34-3.3c1-.21,1.59-.28,1.59-.28h5.7a1.67,1.67,0,0,1,0,3.33h-5.37c-.18,0-.62.09-1.24.22A1.37,1.37,0,0,1,505.8,93.33Zm25.49-.26h-7a1.67,1.67,0,0,1,0-3.33h7a1.67,1.67,0,0,1,0,3.33Z" style="fill:#f94f24"/><path d="M531.29,414.47h-7a1.67,1.67,0,0,1,0-3.33h7a1.67,1.67,0,0,1,0,3.33Zm-18.54,0h-5.7s-.58-.07-1.59-.28a1.67,1.67,0,0,1,.68-3.26c.62.13,1.05.2,1.24.22h5.37a1.67,1.67,0,0,1,0,3.33ZM495,410.18a1.64,1.64,0,0,1-.8-.2,35.55,35.55,0,0,1-6-4.15,1.66,1.66,0,1,1,2.17-2.52,32.83,32.83,0,0,0,5.43,3.75,1.66,1.66,0,0,1-.81,3.12Zm-12.79-13a1.65,1.65,0,0,1-1.49-.92,31.83,31.83,0,0,1-2.49-6.86,1.66,1.66,0,0,1,3.23-.79,29.47,29.47,0,0,0,2.23,6.16,1.66,1.66,0,0,1-.74,2.24A1.63,1.63,0,0,1,482.16,397.17Zm-3.38-18a1.66,1.66,0,0,1-1.66-1.67v-6.95a1.67,1.67,0,1,1,3.33,0v6.95A1.67,1.67,0,0,1,478.78,379.17Zm0-18.55a1.66,1.66,0,0,1-1.66-1.66V352a1.67,1.67,0,1,1,3.33,0V359A1.66,1.66,0,0,1,478.78,360.62Zm0-18.54a1.66,1.66,0,0,1-1.66-1.66v-7a1.67,1.67,0,0,1,3.33,0v7A1.66,1.66,0,0,1,478.78,342.08Zm0-18.54a1.66,1.66,0,0,1-1.66-1.66v-7a1.67,1.67,0,0,1,3.33,0v7A1.66,1.66,0,0,1,478.78,323.54Zm0-18.54a1.66,1.66,0,0,1-1.66-1.67v-6.95a1.67,1.67,0,0,1,3.33,0v6.95A1.67,1.67,0,0,1,478.78,305Zm-1.29-18.43a1.66,1.66,0,0,1-1.58-1.15,19.94,19.94,0,0,0-2.88-5.7,1.67,1.67,0,0,1,2.67-2,23.17,23.17,0,0,1,3.37,6.66,1.66,1.66,0,0,1-1.07,2.1A1.81,1.81,0,0,1,477.49,286.57Zm-12.55-12.5a1.59,1.59,0,0,1-.43-.06,22.51,22.51,0,0,0-5.74-.7h-.71a1.67,1.67,0,0,1,0-3.33h.71a25.6,25.6,0,0,1,6.6.82,1.66,1.66,0,0,1-.43,3.27Zm-18.47-.76h-7a1.67,1.67,0,1,1,0-3.33h7a1.67,1.67,0,1,1,0,3.33Zm-18.54,0H421a1.67,1.67,0,1,1,0-3.33h6.95a1.67,1.67,0,1,1,0,3.33Z" style="fill:#f94f24"/><path d="M539.71,250.75h-7a1.67,1.67,0,1,1,0-3.33h7a1.67,1.67,0,1,1,0,3.33Zm-18.54,0h-6.95a1.67,1.67,0,1,1,0-3.33h6.95a1.67,1.67,0,0,1,0,3.33Zm-18.54,0h-7a1.67,1.67,0,0,1,0-3.33h7a1.67,1.67,0,0,1,0,3.33Zm-18.54,0h-7a1.67,1.67,0,0,1,0-3.33h7a1.67,1.67,0,0,1,0,3.33Zm-18.55,0h-7a1.67,1.67,0,0,1,0-3.33h7a1.67,1.67,0,1,1,0,3.33Zm-18.54,0h-6.95a1.67,1.67,0,1,1,0-3.33H447a1.67,1.67,0,1,1,0,3.33Zm-18.54,0h-6.95a1.67,1.67,0,1,1,0-3.33h6.95a1.67,1.67,0,1,1,0,3.33Z" style="fill:#f94f24"/><path d="M227.34,315.39a97.19,97.19,0,1,1,54.34-177.78l-.61.91a96.1,96.1,0,1,0,2.27,157.77l.65.89A96.53,96.53,0,0,1,227.34,315.39Z" style="fill:#f94f24"/><path d="M371.08,339.87a61.42,61.42,0,0,1-59-44.75l1.06-.3A60.15,60.15,0,0,0,431,283.73l1.1.1a61.26,61.26,0,0,1-61,56Z" style="fill:#f94f24"/></g></svg>