<svg xmlns="http://www.w3.org/2000/svg" xmlns:xlink="http://www.w3.org/1999/xlink" viewBox="0 0 800 500"><defs><linearGradient id="a" x1="376.04" y1="280.67" x2="465.54" y2="18.56" gradientUnits="userSpaceOnUse"><stop offset="0" stop-color="#002298"/><stop offset="1" stop-color="#6731ce"/></linearGradient></defs><title>Artboard 2 copy 11</title><g style="isolation:isolate"><rect x="336.91" y="249.71" width="326.16" height="78.72" rx="37.14" ry="37.14" style="fill:#f2f2f2"/><rect x="122.16" y="120.92" width="326.16" height="78.72" rx="37.14" ry="37.14" style="fill:#f2f2f2"/><rect x="231.87" y="103.28" width="330.44" height="323.3" style="fill:#e5e5e5;mix-blend-mode:multiply"/><rect x="220.33" y="91.18" width="330.44" height="323.3" style="fill:url(#a)"/><rect x="238.29" y="113.3" width="0.22" height="293.72" style="fill:#fff"/><rect x="254.64" y="113.3" width="0.22" height="293.72" style="fill:#fff"/><rect x="270.99" y="113.3" width="0.22" height="293.72" style="fill:#fff"/><rect x="287.34" y="113.3" width="0.22" height="293.72" style="fill:#fff"/><rect x="303.69" y="113.3" width="0.22" height="293.72" style="fill:#fff"/><rect x="320.04" y="113.3" width="0.22" height="293.72" style="fill:#fff"/><rect x="336.39" y="113.3" width="0.22" height="293.72" style="fill:#fff"/><rect x="352.74" y="113.3" width="0.22" height="293.72" style="fill:#fff"/><rect x="369.09" y="113.3" width="0.22" height="293.72" style="fill:#fff"/><rect x="385.44" y="113.3" width="0.22" height="293.72" style="fill:#fff"/><rect x="401.79" y="113.3" width="0.22" height="293.72" style="fill:#fff"/><rect x="418.13" y="113.3" width="0.22" height="293.72" style="fill:#fff"/><rect x="434.48" y="113.3" width="0.22" height="293.72" style="fill:#fff"/><rect x="450.83" y="113.3" width="0.22" height="293.72" style="fill:#fff"/><rect x="467.18" y="113.3" width="0.22" height="293.72" style="fill:#fff"/><rect x="483.53" y="113.3" width="0.22" height="293.72" style="fill:#fff"/><rect x="499.88" y="113.3" width="0.22" height="293.72" style="fill:#fff"/><rect x="516.23" y="113.3" width="0.22" height="293.72" style="fill:#fff"/><rect x="532.58" y="113.3" width="0.22" height="293.72" style="fill:#fff"/><rect x="238.22" y="407.66" width="294.65" height="0.22" style="fill:#fff"/><rect x="238.22" y="391.31" width="294.65" height="0.22" style="fill:#fff"/><rect x="238.22" y="374.96" width="294.65" height="0.22" style="fill:#fff"/><rect x="238.22" y="358.61" width="294.65" height="0.22" style="fill:#fff"/><rect x="238.22" y="342.26" width="294.65" height="0.22" style="fill:#fff"/><rect x="238.22" y="325.92" width="294.65" height="0.22" style="fill:#fff"/><rect x="238.22" y="309.57" width="294.65" height="0.22" style="fill:#fff"/><rect x="238.22" y="293.22" width="294.65" height="0.22" style="fill:#fff"/><rect x="238.22" y="276.87" width="294.65" height="0.22" style="fill:#fff"/><rect x="238.22" y="260.52" width="294.65" height="0.22" style="fill:#fff"/><rect x="238.22" y="244.17" width="294.65" height="0.22" style="fill:#fff"/><rect x="238.22" y="227.82" width="294.65" height="0.22" style="fill:#fff"/><rect x="238.22" y="211.47" width="294.65" height="0.22" style="fill:#fff"/><rect x="238.22" y="195.12" width="294.65" height="0.22" style="fill:#fff"/><rect x="238.22" y="178.77" width="294.65" height="0.22" style="fill:#fff"/><rect x="238.22" y="162.42" width="294.65" height="0.22" style="fill:#fff"/><rect x="238.22" y="146.08" width="294.65" height="0.22" style="fill:#fff"/><rect x="238.22" y="129.73" width="294.65" height="0.22" style="fill:#fff"/><rect x="238.22" y="113.38" width="294.65" height="0.22" style="fill:#fff"/><path d="M457.26,379.8H455l-1.88,5.39-.37,1.07-2.25-6.46h-2.36l-2.26,6.46-.37-1.07-1.88-5.39h-2.89l.21.59.72,2.08,1.76,5,1.27,3.67h2.37l2.24-6.45,2.25,6.45h2.37l1.27-3.67,1.76-5,.72-2.08.21-.59Zm9.61,7.83-.35.19a14.62,14.62,0,0,1-1.59.71,5,5,0,0,1-1.68.29,3,3,0,0,1-1.76-.46,2.17,2.17,0,0,1-.72-1.08h1.49a7.55,7.55,0,0,0,3.53-.73,3.48,3.48,0,0,0,.38-6,5.39,5.39,0,0,0-3-.9,5.1,5.1,0,0,0-4,1.82,6.43,6.43,0,0,0-1.43,4.32,5.67,5.67,0,0,0,1.4,4,5.21,5.21,0,0,0,4,1.59,9,9,0,0,0,4.77-1.45l.38-.25Zm-4.76-5.2a1.79,1.79,0,0,1,.93-.24,3.92,3.92,0,0,1,.76.08,1.84,1.84,0,0,1,.6.24.94.94,0,0,1,.35.35,1,1,0,0,1,.15.57.79.79,0,0,1-.19.62,2.32,2.32,0,0,1-.73.47,4.65,4.65,0,0,1-1.72.18H460.6a3.81,3.81,0,0,1,.72-1.58A3.07,3.07,0,0,1,462.11,382.43Zm16.37-1.18a5.24,5.24,0,0,0-6.29-1.25v-4.93h-2.77V390.8l.32.1a16.2,16.2,0,0,0,3.95.5,5.94,5.94,0,0,0,4.61-1.74,6.45,6.45,0,0,0,1.52-4.31A6.61,6.61,0,0,0,478.48,381.25Zm-3.12,7.29a3.17,3.17,0,0,1-1.44.26c-.45,0-1.08,0-1.73-.11v-4.84a1.48,1.48,0,0,1,.45-1,2.44,2.44,0,0,1,1.87-.81,2.08,2.08,0,0,1,1.88,1,4.33,4.33,0,0,1,.62,2.35,3.54,3.54,0,0,1-.74,2.39A2.48,2.48,0,0,1,475.36,388.54Zm5.74-8.72h2.77V391.2H481.1Zm15.55,11.38v-7.89a4.11,4.11,0,0,0-.34-1.71c-.62-1.26-2-2-3.9-2a4.83,4.83,0,0,0-3.41,1.21,4.71,4.71,0,0,0-1.19-1.16l-.29-.21-1.81,1.65.34.32a2.84,2.84,0,0,1,.68.9,3.06,3.06,0,0,1,.19,1.14v7.71h2.77v-7.5a5,5,0,0,1,1.1-1,2.67,2.67,0,0,1,1.51-.46,1.82,1.82,0,0,1,1.24.39c.17.16.34.43.34,1.24v7.36Zm4.1-.27c1.55-1.13,3.18-.66,4.81-.6h.3a24.44,24.44,0,0,0,2.68-.16V379.82h-2.77v7a2.35,2.35,0,0,1-2.1,1.8s-1.87.14-2.09-1.43v-7.37h-2.77v7.9a4.19,4.19,0,0,0,.34,1.7A3.21,3.21,0,0,0,500.75,390.93Z" style="fill:#fff"/><path d="M512.36,384.52a4.73,4.73,0,0,0-3.56-.54h0v3.14a1,1,0,0,1,.12-.16,1.56,1.56,0,0,1,.2-.16,1.84,1.84,0,0,1,1.8.08,1.41,1.41,0,0,1,.67,1.41,1.65,1.65,0,0,1-.6,1.2,4.83,4.83,0,0,1-2.23.89h-.13a25.58,25.58,0,0,1-2.75.13h-.62l-1.49-.1h-.83l-.33,0h-.11a4.21,4.21,0,0,0-1.57.59l0,0a3.75,3.75,0,0,0-1.14,1.17,4.6,4.6,0,0,0,0,4.66,4.16,4.16,0,0,0,3.91,2.06,4.41,4.41,0,0,0,3.13-1.5,6.92,6.92,0,0,0,1.46-3c.08-.35.16-.71.21-1l-2.81-.07a8.89,8.89,0,0,1-.22.89,4,4,0,0,1-.7,1.41,1.7,1.7,0,0,1-1.21.57,1.44,1.44,0,0,1-1.4-.71,1.82,1.82,0,0,1,0-1.79,1.56,1.56,0,0,1,.16-.2,1.76,1.76,0,0,1,1.31-.35c.53,0,1,0,1.55,0h.59l2.84.07a8.31,8.31,0,0,0,4.25-1.61,4.41,4.41,0,0,0,1.56-3.09,4.19,4.19,0,0,0-2-4" style="fill:#fff"/><path d="M351.2,208.71H299.39a6.75,6.75,0,0,1-6.74-6.74v-4.66a6.75,6.75,0,0,1,6.74-6.74H351.2a6.75,6.75,0,0,1,6.74,6.74V202A6.75,6.75,0,0,1,351.2,208.71Zm-51.81-16.28a4.89,4.89,0,0,0-4.88,4.88V202a4.89,4.89,0,0,0,4.88,4.88H351.2a4.89,4.89,0,0,0,4.88-4.88v-4.66a4.89,4.89,0,0,0-4.88-4.88Z" style="fill:#e5e5e5"/><path d="M358.46,257.3H342.11c-17.09,0-17.28-17.11-17.28-17.28V207.78h1.86V240c0,.63.21,15.42,15.42,15.42h16.35Z" style="fill:#e5e5e5"/><path d="M370.89,269.74a13.37,13.37,0,1,1,13.37-13.37A13.38,13.38,0,0,1,370.89,269.74Zm0-24.88a11.51,11.51,0,1,0,11.51,11.51A11.52,11.52,0,0,0,370.89,244.86Z" style="fill:#e5e5e5"/><path d="M325.76,314.87a13.37,13.37,0,1,1,13.36-13.36A13.38,13.38,0,0,1,325.76,314.87Zm0-24.87a11.51,11.51,0,1,0,11.5,11.51A11.52,11.52,0,0,0,325.76,290Z" style="fill:#e5e5e5"/><rect x="324.83" y="240.02" width="1.86" height="49.05" style="fill:#e5e5e5"/><path d="M429.67,279.47a3.28,3.28,0,0,1-2.33-1l-19.8-19.8a3.29,3.29,0,0,1,0-4.66l19.8-19.8a3.36,3.36,0,0,1,4.66,0L451.8,254a3.29,3.29,0,0,1,0,4.66L432,278.5A3.28,3.28,0,0,1,429.67,279.47Zm0-44.34a1.42,1.42,0,0,0-1,.42l-19.81,19.81a1.42,1.42,0,0,0,0,2l19.81,19.81a1.46,1.46,0,0,0,2,0l19.81-19.81a1.44,1.44,0,0,0,0-2l-19.81-19.81A1.42,1.42,0,0,0,429.67,235.13Z" style="fill:#e5e5e5"/><rect x="383.33" y="255.44" width="24.87" height="1.86" style="fill:#e5e5e5"/><rect x="428.74" y="277.84" width="1.86" height="27.57" style="fill:#e5e5e5"/><rect x="428.74" y="207.32" width="1.86" height="27.57" style="fill:#e5e5e5"/><path d="M429.67,208.75a9.11,9.11,0,1,1,9.11-9.11A9.12,9.12,0,0,1,429.67,208.75Zm0-16.35a7.25,7.25,0,1,0,7.24,7.24A7.25,7.25,0,0,0,429.67,192.4Z" style="fill:#e5e5e5"/><rect x="452.69" y="255.44" width="27.57" height="1.86" style="fill:#e5e5e5"/><path d="M488,265.48a9.11,9.11,0,1,1,9.11-9.11A9.12,9.12,0,0,1,488,265.48Zm0-16.35a7.24,7.24,0,1,0,7.25,7.24A7.25,7.25,0,0,0,488,249.13Z" style="fill:#e5e5e5"/><path d="M387.86,353.22a9.11,9.11,0,1,1,9.11-9.1A9.11,9.11,0,0,1,387.86,353.22Zm0-16.35a7.25,7.25,0,1,0,7.25,7.25A7.25,7.25,0,0,0,387.86,336.87Z" style="fill:#e5e5e5"/><path d="M470.9,353.22a9.11,9.11,0,1,1,9.1-9.1A9.11,9.11,0,0,1,470.9,353.22Zm0-16.35a7.25,7.25,0,1,0,7.24,7.25A7.26,7.26,0,0,0,470.9,336.87Z" style="fill:#e5e5e5"/><path d="M429.67,322.7a9.11,9.11,0,1,1,9.11-9.11A9.12,9.12,0,0,1,429.67,322.7Zm0-16.35a7.25,7.25,0,1,0,7.24,7.24A7.25,7.25,0,0,0,429.67,306.35Z" style="fill:#e5e5e5"/><path d="M388.79,335.94h-1.86v-9c0-.27-.05-6.95,3.92-11a10.15,10.15,0,0,1,7.54-3h22.52v1.86H398.39a8.34,8.34,0,0,0-6.2,2.4c-3.44,3.47-3.4,9.6-3.4,9.66Z" style="fill:#e5e5e5"/><path d="M471.82,335.94H470v-9c0-.09.15-6.14-3.22-9.62a8.52,8.52,0,0,0-6.38-2.46H437.84V313h22.52a10.3,10.3,0,0,1,7.73,3c3.92,4.05,3.74,10.65,3.73,10.93Z" style="fill:#e5e5e5"/><path d="M345.35,168.29H302.57a14.13,14.13,0,0,1,0-28.26h.69a22.09,22.09,0,0,1,39-6.93,17.38,17.38,0,0,1,3.05-.27,17.73,17.73,0,0,1,0,35.45Zm-42.78-26.4a12.27,12.27,0,1,0,0,24.53h42.78a15.86,15.86,0,0,0,0-31.72,16.28,16.28,0,0,0-3.27.34l-.6.13-.36-.51a20.24,20.24,0,0,0-36.26,6.6l-.2.78-.8-.08A10.91,10.91,0,0,0,302.57,141.89Z" style="fill:#e5e5e5"/><path d="M337.43,391.31H253.82V341.44h83.61Zm-81.75-1.86h79.89V343.31H255.68Z" style="fill:#e5e5e5"/><path d="M322.49,353.22H262.62a.93.93,0,1,1,0-1.86h59.87a.93.93,0,1,1,0,1.86Z" style="fill:#e5e5e5"/><path d="M322.49,364.37H262.62a.93.93,0,1,1,0-1.86h59.87a.93.93,0,1,1,0,1.86Z" style="fill:#e5e5e5"/><path d="M308.53,375.52H262.62a.93.93,0,0,1,0-1.86h45.91a.93.93,0,0,1,0,1.86Z" style="fill:#e5e5e5"/><rect x="324.83" y="167.36" width="1.86" height="24.11" style="fill:#e5e5e5"/><path d="M428.64,226.47h0a26.15,26.15,0,0,1-3.07-.3.47.47,0,1,1,.14-.92,26.48,26.48,0,0,0,3,.29.47.47,0,0,1,0,.93Zm3-.06a.47.47,0,0,1-.47-.43.48.48,0,0,1,.43-.5,24.2,24.2,0,0,0,3-.39.46.46,0,1,1,.17.91,25.87,25.87,0,0,1-3.06.41Zm-9-.87h-.12a30.58,30.58,0,0,1-2.93-1,.47.47,0,0,1-.25-.61.46.46,0,0,1,.6-.26,25.46,25.46,0,0,0,2.83,1,.46.46,0,0,1,.32.57A.46.46,0,0,1,422.65,225.54Zm15-.27a.47.47,0,0,1-.14-.91,25.39,25.39,0,0,0,2.79-1.06.47.47,0,0,1,.38.85,27.26,27.26,0,0,1-2.89,1.1Zm-20.57-2a.43.43,0,0,1-.22-.06,25,25,0,0,1-2.62-1.63.48.48,0,0,1-.12-.65.47.47,0,0,1,.65-.11,27.45,27.45,0,0,0,2.53,1.58.46.46,0,0,1,.19.63A.49.49,0,0,1,417,223.27Zm26.1-.47a.46.46,0,0,1-.4-.23.47.47,0,0,1,.16-.64,27.42,27.42,0,0,0,2.47-1.67.47.47,0,0,1,.65.09.45.45,0,0,1-.09.65,27.84,27.84,0,0,1-2.55,1.73A.44.44,0,0,1,443.14,222.8Zm-31.05-3a.47.47,0,0,1-.31-.12,28.15,28.15,0,0,1-2.18-2.19.46.46,0,0,1,0-.65.47.47,0,0,1,.66,0,24.59,24.59,0,0,0,2.1,2.11.47.47,0,0,1,0,.66A.48.48,0,0,1,412.09,219.78Zm35.86-.66a.43.43,0,0,1-.33-.14.47.47,0,0,1,0-.66,24.59,24.59,0,0,0,2-2.18.45.45,0,0,1,.65-.06.46.46,0,0,1,.07.65,30,30,0,0,1-2.1,2.27A.5.5,0,0,1,448,219.12Zm-39.88-3.87a.46.46,0,0,1-.38-.2,26.06,26.06,0,0,1-1.63-2.62.47.47,0,0,1,.19-.63.46.46,0,0,1,.63.19,25.37,25.37,0,0,0,1.57,2.53.47.47,0,0,1-.11.65A.53.53,0,0,1,408.07,215.25Zm43.74-.79a.47.47,0,0,1-.39-.72,25.46,25.46,0,0,0,1.48-2.59.46.46,0,0,1,.62-.21.46.46,0,0,1,.21.62,27.4,27.4,0,0,1-1.53,2.69A.48.48,0,0,1,451.81,214.46Zm-46.63-4.53a.46.46,0,0,1-.43-.29,27.8,27.8,0,0,1-1-2.92.48.48,0,0,1,.32-.58.48.48,0,0,1,.58.33,23.9,23.9,0,0,0,.94,2.82.47.47,0,0,1-.25.61Zm49.32-.9a.4.4,0,0,1-.15,0,.46.46,0,0,1-.28-.59,27.64,27.64,0,0,0,.84-2.86.47.47,0,1,1,.91.21,27.23,27.23,0,0,1-.88,3A.45.45,0,0,1,454.5,209Zm-50.91-4.94a.45.45,0,0,1-.46-.39,28.66,28.66,0,0,1-.29-3.08.47.47,0,0,1,.45-.48.45.45,0,0,1,.48.45,26.88,26.88,0,0,0,.28,3,.47.47,0,0,1-.39.53Zm52.29-1h-.05a.46.46,0,0,1-.41-.51,27.06,27.06,0,0,0,.17-3c0-.63,0-1.27-.07-1.89a.46.46,0,0,1,.43-.5.48.48,0,0,1,.5.43c0,.65.07,1.31.07,2a26.38,26.38,0,0,1-.18,3.08A.46.46,0,0,1,455.88,203.13ZM403.37,198h0a.47.47,0,0,1-.42-.5,25.87,25.87,0,0,1,.41-3.06.47.47,0,0,1,.55-.37.47.47,0,0,1,.36.55,29,29,0,0,0-.4,3A.46.46,0,0,1,403.37,198Zm52.22-2.87a.48.48,0,0,1-.46-.38,24.4,24.4,0,0,0-.72-2.89.47.47,0,0,1,.89-.28,25.79,25.79,0,0,1,.75,3,.46.46,0,0,1-.37.54Zm-51.06-3.07a.32.32,0,0,1-.14,0,.47.47,0,0,1-.31-.58,28.55,28.55,0,0,1,1.11-2.88.47.47,0,1,1,.85.38,25.3,25.3,0,0,0-1.07,2.78A.46.46,0,0,1,404.53,192.1Zm49.26-2.71a.47.47,0,0,1-.43-.27,25.44,25.44,0,0,0-1.36-2.65.46.46,0,0,1,.16-.64.47.47,0,0,1,.64.17,27.22,27.22,0,0,1,1.41,2.74.46.46,0,0,1-.24.61A.39.39,0,0,1,453.79,189.39ZM407,186.58a.55.55,0,0,1-.24-.07.47.47,0,0,1-.16-.64,26,26,0,0,1,1.74-2.55.46.46,0,1,1,.73.56,27.42,27.42,0,0,0-1.67,2.47A.48.48,0,0,1,407,186.58Zm43.68-2.4a.46.46,0,0,1-.37-.18,24.37,24.37,0,0,0-1.93-2.27.46.46,0,0,1,0-.66.45.45,0,0,1,.65,0,27.87,27.87,0,0,1,2,2.34.48.48,0,0,1-.09.66A.52.52,0,0,1,450.7,184.18Zm-40-2.41a.45.45,0,0,1-.32-.13.47.47,0,0,1,0-.66,26.38,26.38,0,0,1,2.27-2.09.46.46,0,0,1,.65.06.47.47,0,0,1-.06.66,26.2,26.2,0,0,0-2.19,2A.48.48,0,0,1,410.7,181.77Zm35.82-2a.48.48,0,0,1-.3-.11,27.31,27.31,0,0,0-2.39-1.77.46.46,0,1,1,.5-.78,28,28,0,0,1,2.49,1.83.47.47,0,0,1-.3.83Zm-31.14-1.88a.47.47,0,0,1-.39-.22.46.46,0,0,1,.14-.64,25.28,25.28,0,0,1,2.68-1.52.48.48,0,0,1,.63.21.46.46,0,0,1-.21.62,27.42,27.42,0,0,0-2.59,1.47A.5.5,0,0,1,415.38,177.93Zm26.07-1.44a.41.41,0,0,1-.21-.05,26.53,26.53,0,0,0-2.74-1.17.47.47,0,0,1,.32-.88,26.38,26.38,0,0,1,2.84,1.22.46.46,0,0,1-.21.88Zm-20.64-1.24a.47.47,0,0,1-.15-.91,27.8,27.8,0,0,1,3-.86.47.47,0,0,1,.56.35.48.48,0,0,1-.35.56,26,26,0,0,0-2.86.83A.45.45,0,0,1,420.81,175.25Zm14.94-.82h-.1a26.19,26.19,0,0,0-2.94-.52.46.46,0,0,1-.4-.51.45.45,0,0,1,.51-.41,27.57,27.57,0,0,1,3,.53.47.47,0,0,1,.35.56A.46.46,0,0,1,435.75,174.43Zm-9-.54a.47.47,0,0,1,0-.93,27.33,27.33,0,0,1,3-.17.5.5,0,0,1,.5.47.44.44,0,0,1-.43.47,26,26,0,0,0-3,.16Z" style="fill:#e5e5e5"/><path d="M486.92,283.2h0a26.11,26.11,0,0,1-3.08-.3A.47.47,0,1,1,484,282a26.66,26.66,0,0,0,3,.29.47.47,0,0,1,0,.93Zm3-.06a.45.45,0,0,1-.46-.43.46.46,0,0,1,.42-.5,24.2,24.2,0,0,0,3-.39.46.46,0,1,1,.17.91,26,26,0,0,1-3.05.41Zm-9-.87h-.12a29.48,29.48,0,0,1-2.92-1,.47.47,0,0,1-.26-.61.48.48,0,0,1,.61-.26,22.83,22.83,0,0,0,2.82,1,.46.46,0,0,1,.32.57A.45.45,0,0,1,480.93,282.27Zm15-.27a.48.48,0,0,1-.45-.33.47.47,0,0,1,.31-.58,25.23,25.23,0,0,0,2.78-1.06.48.48,0,0,1,.62.24.46.46,0,0,1-.24.61A26.29,26.29,0,0,1,496,282Zm-20.58-2a.43.43,0,0,1-.22-.06,25,25,0,0,1-2.62-1.63.47.47,0,0,1-.11-.65.46.46,0,0,1,.64-.11,27.45,27.45,0,0,0,2.53,1.58.46.46,0,0,1,.19.63A.49.49,0,0,1,475.32,280Zm26.1-.48a.46.46,0,0,1-.24-.86,27.42,27.42,0,0,0,2.47-1.67.46.46,0,0,1,.65.09.45.45,0,0,1-.09.65,26,26,0,0,1-2.55,1.73A.53.53,0,0,1,501.42,279.52Zm-31.05-3a.47.47,0,0,1-.31-.12,28.15,28.15,0,0,1-2.18-2.19.46.46,0,0,1,0-.65.47.47,0,0,1,.66,0,28,28,0,0,0,2.1,2.12.45.45,0,0,1,0,.65A.48.48,0,0,1,470.37,276.51Zm35.87-.66a.44.44,0,0,1-.34-.14.47.47,0,0,1,0-.66,26.06,26.06,0,0,0,2-2.18.45.45,0,0,1,.65-.06.46.46,0,0,1,.07.65,28.08,28.08,0,0,1-2.1,2.26A.45.45,0,0,1,506.24,275.85ZM466.35,272a.46.46,0,0,1-.38-.2,25.3,25.3,0,0,1-1.62-2.62.46.46,0,1,1,.81-.44,27.88,27.88,0,0,0,1.57,2.53.47.47,0,0,1-.11.65A.53.53,0,0,1,466.35,272Zm43.74-.79a.49.49,0,0,1-.25-.08.46.46,0,0,1-.14-.64,25.46,25.46,0,0,0,1.48-2.59.46.46,0,1,1,.83.41,24.4,24.4,0,0,1-1.53,2.68A.47.47,0,0,1,510.09,271.19Zm-46.63-4.53a.46.46,0,0,1-.43-.29,27.8,27.8,0,0,1-1-2.92.47.47,0,0,1,.9-.25,23.9,23.9,0,0,0,.94,2.82.47.47,0,0,1-.25.61Zm49.33-.9a.41.41,0,0,1-.16,0,.46.46,0,0,1-.28-.59,26.66,26.66,0,0,0,.84-2.86.47.47,0,0,1,.91.21,27.23,27.23,0,0,1-.88,3A.45.45,0,0,1,512.79,265.76Zm-50.92-4.94a.46.46,0,0,1-.46-.39,28.42,28.42,0,0,1-.29-3.08.47.47,0,0,1,.45-.48.46.46,0,0,1,.48.45,26.65,26.65,0,0,0,.28,3,.47.47,0,0,1-.39.53Zm52.29-1h0a.46.46,0,0,1-.41-.52,26.74,26.74,0,0,0,.17-3c0-.63,0-1.27-.07-1.9a.47.47,0,0,1,.93-.06c0,.65.07,1.31.07,2a26.51,26.51,0,0,1-.18,3.08A.45.45,0,0,1,514.16,259.86Zm-52.51-5.09h0a.46.46,0,0,1-.42-.5,28.47,28.47,0,0,1,.41-3.06.47.47,0,0,1,.55-.37.47.47,0,0,1,.36.55,29,29,0,0,0-.4,3A.45.45,0,0,1,461.65,254.77Zm52.22-2.87a.48.48,0,0,1-.46-.38,23.47,23.47,0,0,0-.72-2.89.47.47,0,0,1,.89-.28,25.79,25.79,0,0,1,.75,3,.46.46,0,0,1-.37.54Zm-51.06-3.07a.35.35,0,0,1-.14,0,.45.45,0,0,1-.3-.58,26.29,26.29,0,0,1,1.1-2.88.47.47,0,0,1,.85.38,25.3,25.3,0,0,0-1.07,2.78A.46.46,0,0,1,462.81,248.83Zm49.26-2.71a.47.47,0,0,1-.43-.28,26.32,26.32,0,0,0-1.36-2.64.46.46,0,0,1,.16-.64.47.47,0,0,1,.64.16,27.28,27.28,0,0,1,1.41,2.74.47.47,0,0,1-.24.62A.39.39,0,0,1,512.07,246.12Zm-46.77-2.81a.44.44,0,0,1-.24-.07.47.47,0,0,1-.16-.64,26,26,0,0,1,1.74-2.55.46.46,0,0,1,.65-.09.48.48,0,0,1,.09.66,24.26,24.26,0,0,0-1.68,2.46A.46.46,0,0,1,465.3,243.31Zm43.69-2.4a.48.48,0,0,1-.38-.18,24.37,24.37,0,0,0-1.93-2.27.46.46,0,0,1,0-.66.45.45,0,0,1,.65,0,26.14,26.14,0,0,1,2,2.34.48.48,0,0,1-.09.66A.51.51,0,0,1,509,240.91Zm-40-2.41a.51.51,0,0,1-.33-.13.47.47,0,0,1,0-.66,26.38,26.38,0,0,1,2.27-2.09.45.45,0,0,1,.65.06.46.46,0,0,1-.06.66,27.86,27.86,0,0,0-2.19,2A.47.47,0,0,1,469,238.5Zm35.81-2a.47.47,0,0,1-.3-.1,24.31,24.31,0,0,0-2.4-1.77A.48.48,0,0,1,502,234a.46.46,0,0,1,.64-.13,26.11,26.11,0,0,1,2.49,1.83.48.48,0,0,1,.06.66A.46.46,0,0,1,504.8,236.53Zm-31.14-1.87a.47.47,0,0,1-.39-.22.46.46,0,0,1,.14-.64,27.44,27.44,0,0,1,2.68-1.52.48.48,0,0,1,.63.21.46.46,0,0,1-.21.62,25.38,25.38,0,0,0-2.59,1.47A.5.5,0,0,1,473.66,234.66Zm26.07-1.44a.41.41,0,0,1-.21-.05,25.34,25.34,0,0,0-2.74-1.17.47.47,0,1,1,.32-.88,27.27,27.27,0,0,1,2.84,1.22.45.45,0,0,1,.2.62A.45.45,0,0,1,499.73,233.22ZM479.09,232a.47.47,0,0,1-.15-.91,27.14,27.14,0,0,1,3-.86.47.47,0,0,1,.56.35.46.46,0,0,1-.35.55,27.64,27.64,0,0,0-2.86.84A.45.45,0,0,1,479.09,232Zm15-.82h-.11a26.19,26.19,0,0,0-2.94-.52.46.46,0,0,1-.4-.52.45.45,0,0,1,.51-.4,25.4,25.4,0,0,1,3,.53.47.47,0,0,1-.1.92Zm-9.05-.54a.47.47,0,0,1-.46-.42.47.47,0,0,1,.41-.51,27.47,27.47,0,0,1,3-.17.5.5,0,0,1,.5.47.43.43,0,0,1-.43.46,26,26,0,0,0-3,.17Z" style="fill:#e5e5e5"/><path d="M324.72,330.19h0a24.34,24.34,0,0,1-3.07-.29.47.47,0,1,1,.15-.92,24.3,24.3,0,0,0,3,.28.47.47,0,0,1,0,.94Zm3-.06a.47.47,0,0,1,0-.93,24,24,0,0,0,2.95-.39.47.47,0,0,1,.55.37.46.46,0,0,1-.37.54,25.87,25.87,0,0,1-3.06.41Zm-9-.87h-.12a28.81,28.81,0,0,1-2.93-1,.47.47,0,0,1,.35-.87,28.37,28.37,0,0,0,2.82,1,.46.46,0,0,1,.33.57A.47.47,0,0,1,318.74,329.26Zm15-.27a.46.46,0,0,1-.44-.33.46.46,0,0,1,.3-.58,27.42,27.42,0,0,0,2.78-1.06.47.47,0,1,1,.38.85,26.29,26.29,0,0,1-2.88,1.1Zm-20.58-2a.46.46,0,0,1-.22-.06,27.24,27.24,0,0,1-2.62-1.63.47.47,0,1,1,.54-.76,26.17,26.17,0,0,0,2.53,1.58.46.46,0,0,1-.23.87Zm26.1-.47a.47.47,0,0,1-.39-.23.46.46,0,0,1,.16-.64,25.92,25.92,0,0,0,2.46-1.67.48.48,0,0,1,.66.09.47.47,0,0,1-.09.65,26.68,26.68,0,0,1-2.56,1.73A.48.48,0,0,1,339.22,326.52Zm-31-3a.47.47,0,0,1-.31-.12,26.5,26.5,0,0,1-2.18-2.19.46.46,0,0,1,.69-.62,26.26,26.26,0,0,0,2.11,2.11.47.47,0,0,1-.31.82Zm35.86-.66a.46.46,0,0,1-.32-.8,26.06,26.06,0,0,0,2-2.18.47.47,0,0,1,.72.59,26.38,26.38,0,0,1-2.1,2.26A.44.44,0,0,1,344,322.84ZM304.16,319a.49.49,0,0,1-.39-.2,27.92,27.92,0,0,1-1.62-2.62.47.47,0,1,1,.82-.44,25.37,25.37,0,0,0,1.57,2.53.48.48,0,0,1-.12.65A.5.5,0,0,1,304.16,319Zm43.74-.79a.5.5,0,0,1-.26-.08.47.47,0,0,1-.13-.64,25.38,25.38,0,0,0,1.47-2.59.47.47,0,0,1,.63-.21.46.46,0,0,1,.21.62,26.14,26.14,0,0,1-1.53,2.68A.47.47,0,0,1,347.9,318.18Zm-46.63-4.53a.46.46,0,0,1-.43-.29,25.88,25.88,0,0,1-1-2.93.48.48,0,0,1,.33-.57.46.46,0,0,1,.57.33,26,26,0,0,0,.95,2.82.48.48,0,0,1-.26.61A.51.51,0,0,1,301.27,313.65Zm49.32-.9-.16,0a.47.47,0,0,1-.28-.59,26.05,26.05,0,0,0,.85-2.86.45.45,0,0,1,.55-.35.47.47,0,0,1,.35.56,25.12,25.12,0,0,1-.87,3A.47.47,0,0,1,350.59,312.75Zm-50.92-4.94a.48.48,0,0,1-.46-.4,28.47,28.47,0,0,1-.28-3.07.47.47,0,0,1,.45-.48.46.46,0,0,1,.48.45,26.86,26.86,0,0,0,.27,3,.45.45,0,0,1-.39.52Zm52.3-1h-.06a.47.47,0,0,1-.41-.52,24.53,24.53,0,0,0,.17-3c0-.63,0-1.27-.07-1.9a.47.47,0,0,1,.93-.06c.05.65.07,1.31.07,2a28.9,28.9,0,0,1-.17,3.08A.46.46,0,0,1,352,306.85Zm-52.51-5.09h0a.47.47,0,0,1-.43-.5,25.88,25.88,0,0,1,.42-3.06.48.48,0,0,1,.54-.37.47.47,0,0,1,.37.55,26.47,26.47,0,0,0-.4,2.95A.47.47,0,0,1,299.46,301.76Zm52.22-2.87a.47.47,0,0,1-.46-.38,26,26,0,0,0-.72-2.89.46.46,0,0,1,.3-.58.47.47,0,0,1,.59.3,27.94,27.94,0,0,1,.74,3,.46.46,0,0,1-.37.54Zm-51.07-3.08a.36.36,0,0,1-.14,0,.46.46,0,0,1-.3-.58,24.46,24.46,0,0,1,1.11-2.88.46.46,0,1,1,.84.38,27.42,27.42,0,0,0-1.06,2.78A.46.46,0,0,1,300.61,295.81Zm49.26-2.7a.44.44,0,0,1-.42-.28,26.4,26.4,0,0,0-1.37-2.64.47.47,0,0,1,.8-.48,27.37,27.37,0,0,1,1.42,2.74.48.48,0,0,1-.24.62A.43.43,0,0,1,349.87,293.11Zm-46.76-2.82a.48.48,0,0,1-.24-.06.46.46,0,0,1-.16-.64,26,26,0,0,1,1.73-2.55.46.46,0,0,1,.65-.09.46.46,0,0,1,.09.65,26.16,26.16,0,0,0-1.68,2.47A.46.46,0,0,1,303.11,290.29Zm43.68-2.39a.46.46,0,0,1-.37-.18,27.86,27.86,0,0,0-1.93-2.27.47.47,0,0,1,0-.66.46.46,0,0,1,.66,0,27.75,27.75,0,0,1,2,2.34.46.46,0,0,1-.37.75Zm-40-2.41a.48.48,0,0,1-.32-.13.46.46,0,0,1,0-.66,26.26,26.26,0,0,1,2.26-2.09.46.46,0,0,1,.66.06.47.47,0,0,1-.07.66,24.48,24.48,0,0,0-2.19,2A.47.47,0,0,1,306.79,285.49Zm35.82-2a.48.48,0,0,1-.3-.11,26,26,0,0,0-2.4-1.77.48.48,0,0,1-.13-.65.46.46,0,0,1,.64-.13,27.8,27.8,0,0,1,2.48,1.83.46.46,0,0,1,.06.66A.46.46,0,0,1,342.61,283.53Zm-31.14-1.88a.47.47,0,0,1-.39-.22.46.46,0,0,1,.14-.64,25.28,25.28,0,0,1,2.68-1.52.46.46,0,0,1,.62.21.46.46,0,0,1-.21.62,25.38,25.38,0,0,0-2.59,1.47A.46.46,0,0,1,311.47,281.65Zm26.07-1.44a.36.36,0,0,1-.21,0,27.5,27.5,0,0,0-2.74-1.17.47.47,0,0,1-.28-.6.48.48,0,0,1,.6-.28,26.23,26.23,0,0,1,2.83,1.22.46.46,0,0,1,.21.62A.46.46,0,0,1,337.54,280.21ZM316.9,279a.47.47,0,0,1-.16-.91,28.5,28.5,0,0,1,3-.86.46.46,0,0,1,.56.35.45.45,0,0,1-.35.55,29.17,29.17,0,0,0-2.86.84Zm14.94-.82h-.11a25.62,25.62,0,0,0-2.93-.52.46.46,0,1,1,.11-.92,28.41,28.41,0,0,1,3,.53.47.47,0,0,1-.11.92Zm-9-.54a.47.47,0,0,1-.05-.93,27.33,27.33,0,0,1,3-.17.5.5,0,0,1,.5.47.43.43,0,0,1-.43.46,26,26,0,0,0-3,.17Z" style="fill:#e5e5e5"/><path d="M403.29,200.11h-3a.47.47,0,0,1,0-.94h3a.47.47,0,1,1,0,.94Zm-6.07,0h-3a.47.47,0,1,1,0-.94h3a.47.47,0,1,1,0,.94Zm-6.07,0h-3a.47.47,0,0,1,0-.94h3a.47.47,0,0,1,0,.94Zm-6.07,0h-3a.47.47,0,0,1,0-.94h3a.47.47,0,0,1,0,.94Zm-6.07,0h-3a.47.47,0,0,1,0-.94h3a.47.47,0,0,1,0,.94Zm-6.07,0h-3a.47.47,0,0,1,0-.94h3a.47.47,0,0,1,0,.94Zm-6.07,0h-3a.47.47,0,0,1,0-.94h3a.47.47,0,1,1,0,.94Zm-6.07,0h-3a.47.47,0,1,1,0-.94h3a.47.47,0,1,1,0,.94Z" style="fill:#e5e5e5"/><path d="M459.77,344.58h-3a.46.46,0,0,1-.47-.46.47.47,0,0,1,.47-.47h3a.47.47,0,0,1,.47.47A.46.46,0,0,1,459.77,344.58Zm-6.07,0h-3a.46.46,0,0,1-.47-.46.47.47,0,0,1,.47-.47h3a.47.47,0,0,1,.47.47A.46.46,0,0,1,453.7,344.58Zm-6.07,0h-3a.46.46,0,0,1-.47-.46.47.47,0,0,1,.47-.47h3a.47.47,0,0,1,.47.47A.46.46,0,0,1,447.63,344.58Zm-6.07,0h-3a.46.46,0,0,1-.47-.46.47.47,0,0,1,.47-.47h3a.47.47,0,0,1,.47.47A.46.46,0,0,1,441.56,344.58Zm-6.07,0h-3a.46.46,0,0,1-.47-.46.47.47,0,0,1,.47-.47h3a.47.47,0,0,1,.47.47A.46.46,0,0,1,435.49,344.58Zm-6.07,0h-3a.46.46,0,0,1-.47-.46.47.47,0,0,1,.47-.47h3a.47.47,0,0,1,.47.47A.46.46,0,0,1,429.42,344.58Zm-6.07,0h-3a.46.46,0,0,1-.47-.46.47.47,0,0,1,.47-.47h3a.47.47,0,0,1,.47.47A.46.46,0,0,1,423.35,344.58Zm-6.07,0h-3a.46.46,0,0,1-.47-.46.47.47,0,0,1,.47-.47h3a.47.47,0,0,1,.47.47A.46.46,0,0,1,417.28,344.58Zm-6.07,0h-3a.46.46,0,0,1-.47-.46.47.47,0,0,1,.47-.47h3a.47.47,0,0,1,.47.47A.46.46,0,0,1,411.21,344.58Zm-6.07,0h-3a.46.46,0,0,1-.47-.46.47.47,0,0,1,.47-.47h3a.47.47,0,0,1,.47.47A.46.46,0,0,1,405.14,344.58Zm-6.07,0h-3a.46.46,0,0,1-.47-.46.47.47,0,0,1,.47-.47h3a.47.47,0,0,1,.47.47A.46.46,0,0,1,399.07,344.58Z" style="fill:#e5e5e5"/><path d="M391,173.73h-1.14a.47.47,0,0,1,0-.94H391a.47.47,0,0,1,0,.94Zm-4.17,0h-3a.47.47,0,1,1,0-.94h3a.47.47,0,0,1,0,.94Zm-6.07,0h-3a.47.47,0,0,1,0-.94h3a.47.47,0,0,1,0,.94Zm-6.07,0h-3a.47.47,0,1,1,0-.94h3a.47.47,0,0,1,0,.94Zm-6.07,0h-3a.47.47,0,0,1,0-.94h3a.47.47,0,0,1,0,.94Zm-6.07,0h-3a.47.47,0,0,1,0-.94h3a.47.47,0,0,1,0,.94Zm-6.07,0h-3a.47.47,0,0,1,0-.94h3a.47.47,0,0,1,0,.94Zm-6.07,0h-3a.47.47,0,0,1,0-.94h3a.47.47,0,0,1,0,.94Zm-6.07,0h-3a.47.47,0,0,1,0-.94h3a.47.47,0,0,1,0,.94Zm-6.07,0h-3a.47.47,0,0,1,0-.94h3a.47.47,0,0,1,0,.94Zm-6.07,0h-3a.47.47,0,0,1,0-.94h3a.47.47,0,0,1,0,.94Zm-6.07,0h-3a.47.47,0,0,1,0-.94h3a.47.47,0,0,1,0,.94Zm-6.07,0h-3a.47.47,0,0,1,0-.94h3a.47.47,0,0,1,0,.94Zm-6.07,0h-3a.47.47,0,0,1,0-.94h3a.47.47,0,0,1,0,.94Z" style="fill:#e5e5e5"/><path d="M299.38,303.83h-3a.47.47,0,0,1,0-.94h3a.47.47,0,0,1,0,.94Zm-6.07,0h-3a.47.47,0,0,1,0-.94h3a.47.47,0,0,1,0,.94Zm-6.07,0h-3a.47.47,0,0,1,0-.94h3a.47.47,0,0,1,0,.94Zm-6.07,0h-3a.47.47,0,0,1,0-.94h3a.47.47,0,0,1,0,.94Zm-6.07,0h-3a.47.47,0,0,1,0-.94h3a.47.47,0,0,1,0,.94Z" style="fill:#e5e5e5"/><path d="M261.67,313.86a.47.47,0,0,1,0-.93,9.35,9.35,0,0,0,2.81-.6.47.47,0,1,1,.33.87,10.53,10.53,0,0,1-3.09.66Zm-3-.26h-.11a10.37,10.37,0,0,1-2.92-1.21.46.46,0,0,1-.16-.63.45.45,0,0,1,.64-.16,9.5,9.5,0,0,0,2.66,1.09.47.47,0,0,1,.35.56A.48.48,0,0,1,258.66,313.6Zm8.6-1.87a.48.48,0,0,1-.37-.17.47.47,0,0,1,.08-.66,9.64,9.64,0,0,0,2-2.1.46.46,0,1,1,.76.53,10.49,10.49,0,0,1-2.16,2.3A.46.46,0,0,1,267.26,311.73Zm-13.72-1.21a.49.49,0,0,1-.35-.15,10.81,10.81,0,0,1-1.73-2.65.47.47,0,1,1,.85-.39,9.44,9.44,0,0,0,1.58,2.42.46.46,0,0,1,0,.65A.47.47,0,0,1,253.54,310.52Zm17.11-3.71a.36.36,0,0,1-.14,0,.46.46,0,0,1-.3-.58,9.79,9.79,0,0,0,.43-2.85,9.47,9.47,0,0,0-.3-2.38.47.47,0,0,1,.33-.57.47.47,0,0,1,.57.34,10.32,10.32,0,0,1,.33,2.61,10.69,10.69,0,0,1-.47,3.13A.47.47,0,0,1,270.65,306.81Zm-19.59-1.73a.46.46,0,0,1-.46-.4,11.69,11.69,0,0,1-.08-1.32,10.24,10.24,0,0,1,.16-1.84.46.46,0,0,1,.54-.38.47.47,0,0,1,.38.54,9.37,9.37,0,0,0-.15,1.68,9.66,9.66,0,0,0,.07,1.2.45.45,0,0,1-.4.52Zm1.05-5.88a.5.5,0,0,1-.21-.05.47.47,0,0,1-.2-.63,10.35,10.35,0,0,1,1.86-2.56.47.47,0,1,1,.66.66,9.75,9.75,0,0,0-1.7,2.33A.45.45,0,0,1,252.11,299.2Zm17.5-.65a.46.46,0,0,1-.4-.23,9.32,9.32,0,0,0-1.87-2.19.47.47,0,0,1,0-.66.48.48,0,0,1,.66-.05,10.49,10.49,0,0,1,2,2.42.46.46,0,0,1-.15.64A.55.55,0,0,1,269.61,298.55Zm-13.3-3.6a.45.45,0,0,1-.41-.25.46.46,0,0,1,.19-.63,10.28,10.28,0,0,1,3-1.05.47.47,0,0,1,.55.37.46.46,0,0,1-.37.54,9.38,9.38,0,0,0-2.72,1A.46.46,0,0,1,256.31,295Zm8.79-.33a.43.43,0,0,1-.19,0,9.24,9.24,0,0,0-2.78-.75.47.47,0,0,1,.1-.93,10.44,10.44,0,0,1,3.06.83.47.47,0,0,1,.24.61A.48.48,0,0,1,265.1,294.62Z" style="fill:#e5e5e5"/><path d="M492.31,150.4a.47.47,0,0,1,0-.93,9.36,9.36,0,0,0,2.82-.61.47.47,0,1,1,.33.87,10.55,10.55,0,0,1-3.09.67Zm-3-.26-.11,0a10.4,10.4,0,0,1-2.93-1.2.47.47,0,0,1,.48-.8,9.59,9.59,0,0,0,2.67,1.1.46.46,0,0,1,.34.56A.47.47,0,0,1,489.3,150.14Zm8.59-1.87a.46.46,0,0,1-.28-.83,9.58,9.58,0,0,0,2-2.1.47.47,0,0,1,.77.53,10.78,10.78,0,0,1-2.17,2.3A.45.45,0,0,1,497.89,148.27Zm-13.72-1.21a.44.44,0,0,1-.34-.16,10.47,10.47,0,0,1-1.73-2.64.46.46,0,0,1,.23-.62.48.48,0,0,1,.62.23,9.86,9.86,0,0,0,1.57,2.42.45.45,0,0,1,0,.65A.43.43,0,0,1,484.17,147.06Zm17.12-3.71-.14,0a.47.47,0,0,1-.31-.58,9.47,9.47,0,0,0,.43-2.85,9.6,9.6,0,0,0-.3-2.39.47.47,0,0,1,.91-.23,10.93,10.93,0,0,1,.32,2.62,10.63,10.63,0,0,1-.47,3.12A.47.47,0,0,1,501.29,143.35Zm-19.59-1.73a.46.46,0,0,1-.46-.41,9.61,9.61,0,0,1-.09-1.31,10.44,10.44,0,0,1,.17-1.85.46.46,0,0,1,.54-.37.45.45,0,0,1,.37.54,9.37,9.37,0,0,0-.14,1.68,8.05,8.05,0,0,0,.07,1.2.47.47,0,0,1-.41.52Zm1-5.88a.54.54,0,0,1-.21-.05.47.47,0,0,1-.2-.63,10.89,10.89,0,0,1,1.86-2.56.47.47,0,0,1,.66,0,.46.46,0,0,1,0,.66,9.26,9.26,0,0,0-1.69,2.33A.48.48,0,0,1,482.74,135.74Zm17.5-.66a.49.49,0,0,1-.4-.22,9.53,9.53,0,0,0-1.86-2.2.47.47,0,0,1-.05-.65.46.46,0,0,1,.66,0,10.74,10.74,0,0,1,2.05,2.41.48.48,0,0,1-.15.64A.45.45,0,0,1,500.24,135.08ZM487,131.48a.46.46,0,0,1-.41-.24.45.45,0,0,1,.19-.63,10.18,10.18,0,0,1,3-1.05.46.46,0,1,1,.17.91,9.49,9.49,0,0,0-2.72,1A.41.41,0,0,1,487,131.48Zm8.78-.32a.58.58,0,0,1-.18,0,9.32,9.32,0,0,0-2.79-.76.48.48,0,0,1-.41-.51.47.47,0,0,1,.52-.41,10.45,10.45,0,0,1,3.05.82.47.47,0,0,1,.24.62A.48.48,0,0,1,495.73,131.16Z" style="fill:#e5e5e5"/><path d="M471.33,198.31a.47.47,0,0,1-.46-.45c0-1-.12-2-.24-3a.47.47,0,0,1,.93-.11c.12,1,.2,2.05.24,3.06a.47.47,0,0,1-.45.49Zm-.69-6a.48.48,0,0,1-.46-.38c-.18-1-.41-2-.66-2.93a.46.46,0,1,1,.89-.24c.27,1,.5,2,.69,3a.47.47,0,0,1-.37.55Zm-1.56-5.86a.45.45,0,0,1-.44-.32c-.33-.93-.69-1.87-1.09-2.79a.47.47,0,0,1,.24-.61.48.48,0,0,1,.62.24c.4.94.77,1.9,1.11,2.86a.47.47,0,0,1-.29.59Zm-2.4-5.56a.49.49,0,0,1-.42-.26c-.45-.87-.95-1.75-1.48-2.6a.47.47,0,0,1,.16-.64.46.46,0,0,1,.64.15c.53.87,1,1.77,1.51,2.66a.47.47,0,0,1-.2.63A.42.42,0,0,1,466.68,180.87Zm-3.19-5.16a.47.47,0,0,1-.37-.19c-.58-.81-1.2-1.6-1.85-2.37a.47.47,0,0,1,.72-.6c.66.79,1.29,1.6,1.88,2.42a.47.47,0,0,1-.1.65A.49.49,0,0,1,463.49,175.71Zm-3.89-4.65a.45.45,0,0,1-.34-.14c-.69-.71-1.42-1.41-2.16-2.07a.47.47,0,0,1,.62-.7c.76.68,1.5,1.39,2.21,2.12a.46.46,0,0,1,0,.66A.45.45,0,0,1,459.6,171.06Zm-4.53-4a.42.42,0,0,1-.28-.1c-.8-.61-1.62-1.19-2.45-1.74a.47.47,0,0,1,.52-.78c.84.56,1.68,1.16,2.49,1.78a.47.47,0,0,1,.09.66A.46.46,0,0,1,455.07,167ZM450,163.69a.46.46,0,0,1-.23-.06c-.87-.48-1.76-.94-2.67-1.37a.48.48,0,0,1-.23-.62.47.47,0,0,1,.62-.22c.93.43,1.85.9,2.73,1.4a.46.46,0,0,1,.18.63A.44.44,0,0,1,450,163.69Zm-5.5-2.57a.51.51,0,0,1-.17,0c-.92-.35-1.88-.68-2.84-1a.48.48,0,0,1-.31-.58.45.45,0,0,1,.58-.31c1,.29,2,.62,2.91,1a.47.47,0,0,1-.17.9Zm-5.81-1.73-.1,0c-1-.21-2-.39-3-.53a.47.47,0,0,1-.39-.53.46.46,0,0,1,.52-.4c1,.15,2,.34,3,.56a.47.47,0,0,1,.36.55A.48.48,0,0,1,438.7,159.39Zm-6-.88h0c-1-.07-2-.1-3-.1a.47.47,0,1,1,0-.94c1,0,2.06,0,3.07.11a.48.48,0,0,1,.43.5A.47.47,0,0,1,432.7,158.51Z" style="fill:#e5e5e5"/><path d="M448.71,181.86a.47.47,0,0,1-.33-.8l2.15-2.14a.47.47,0,1,1,.66.66L449,181.72A.47.47,0,0,1,448.71,181.86Zm4.29-4.29a.49.49,0,0,1-.33-.14.47.47,0,0,1,0-.66l2.15-2.15a.47.47,0,0,1,.66.66l-2.15,2.15A.47.47,0,0,1,453,177.57Zm4.3-4.3a.46.46,0,0,1-.33-.13.47.47,0,0,1,0-.66l2.14-2.15a.47.47,0,0,1,.66.66l-2.15,2.15A.45.45,0,0,1,457.3,173.27Zm4.29-4.29a.46.46,0,0,1-.33-.13.47.47,0,0,1,0-.66l2.15-2.15a.46.46,0,0,1,.65,0,.45.45,0,0,1,0,.66l-2.14,2.15A.46.46,0,0,1,461.59,169Zm4.29-4.29a.47.47,0,0,1-.33-.14.46.46,0,0,1,0-.65l2.15-2.15a.47.47,0,0,1,.66.66l-2.15,2.14A.47.47,0,0,1,465.88,164.69Zm4.29-4.29a.47.47,0,0,1-.33-.8l2.15-2.14a.47.47,0,0,1,.66.66l-2.15,2.14A.47.47,0,0,1,470.17,160.4Zm4.29-4.29a.47.47,0,0,1-.32-.14.45.45,0,0,1,0-.66l2.14-2.14a.45.45,0,0,1,.66,0,.46.46,0,0,1,0,.65L474.79,156A.47.47,0,0,1,474.46,156.11Zm4.3-4.3a.46.46,0,0,1-.33-.13.47.47,0,0,1,0-.66l2.14-2.15a.47.47,0,0,1,.66.66l-2.14,2.15A.46.46,0,0,1,478.76,151.81Zm4.29-4.29a.43.43,0,0,1-.33-.14.46.46,0,0,1,0-.65l.73-.73a.47.47,0,0,1,.66.66l-.73.72A.43.43,0,0,1,483.05,147.52Z" style="fill:#e5e5e5"/><path d="M172.83,257.41a25.34,25.34,0,1,1-25.33-25.33A25.33,25.33,0,0,1,172.83,257.41Z" style="fill:#f2f2f2"/><path d="M613.55,185.13a6.34,6.34,0,1,1-6.33-6.34A6.33,6.33,0,0,1,613.55,185.13Z" style="fill:#f2f2f2"/><path d="M677.84,344.12a52.21,52.21,0,1,1-52.21-52.21A52.2,52.2,0,0,1,677.84,344.12Z" style="fill:#f2f2f2;mix-blend-mode:multiply"/><path d="M208.22,194.65A86.52,86.52,0,1,1,317.93,79.82l-1,.43A85.41,85.41,0,1,0,208.6,193.61Z" style="fill:#f94f24"/><path d="M172.83,473A36.13,36.13,0,1,1,209,436.88,36.16,36.16,0,0,1,172.83,473Zm0-71.15a35,35,0,1,0,35,35A35.06,35.06,0,0,0,172.83,401.86Z" style="fill:#f94f24"/><path d="M497.17,75.54h-6.9a1.66,1.66,0,0,1,0-3.31h6.9a1.66,1.66,0,1,1,0,3.31Zm-18.41,0h-6.9a1.66,1.66,0,0,1,0-3.31h6.9a1.66,1.66,0,1,1,0,3.31Zm-18.41,0h-6.9a1.66,1.66,0,0,1,0-3.31h6.9a1.66,1.66,0,1,1,0,3.31Zm-18.4,0H435a1.66,1.66,0,0,1,0-3.31H442a1.66,1.66,0,0,1,0,3.31Zm-18.41,0h-6.91a1.66,1.66,0,0,1,0-3.31h6.91a1.66,1.66,0,0,1,0,3.31Zm-18.41,0h-6.91a1.66,1.66,0,0,1,0-3.31h6.91a1.66,1.66,0,0,1,0,3.31Zm-18.41,0h-6.91a1.66,1.66,0,0,1,0-3.31h6.91a1.66,1.66,0,0,1,0,3.31Zm-18.41,0h-6.9a1.66,1.66,0,1,1,0-3.31h6.9a1.66,1.66,0,0,1,0,3.31Zm-18.41,0H343a1.66,1.66,0,1,1,0-3.31h6.9a1.66,1.66,0,0,1,0,3.31Zm-18.41,0h-6.9a1.66,1.66,0,1,1,0-3.31h6.9a1.66,1.66,0,0,1,0,3.31Zm-18.41,0h-6.9a1.66,1.66,0,1,1,0-3.31h6.9a1.66,1.66,0,0,1,0,3.31Zm-18.41,0h-6.9a1.66,1.66,0,1,1,0-3.31h6.9a1.66,1.66,0,0,1,0,3.31Zm-18.41,0h-6.9a1.66,1.66,0,1,1,0-3.31h6.9a1.66,1.66,0,0,1,0,3.31Z" style="fill:#f94f24"/><path d="M382.24,438.54h-6.9a1.66,1.66,0,0,1,0-3.31h6.9a1.66,1.66,0,1,1,0,3.31Zm-18.41,0h-6.9a1.66,1.66,0,0,1,0-3.31h6.9a1.66,1.66,0,1,1,0,3.31Zm-18.41,0h-6.9a1.66,1.66,0,0,1,0-3.31h6.9a1.66,1.66,0,1,1,0,3.31Zm-18.41,0h-6.9a1.66,1.66,0,0,1,0-3.31H327a1.66,1.66,0,1,1,0,3.31Zm-18.4,0H301.7a1.66,1.66,0,0,1,0-3.31h6.91a1.66,1.66,0,0,1,0,3.31Zm-18.41,0h-6.91a1.66,1.66,0,0,1,0-3.31h6.91a1.66,1.66,0,0,1,0,3.31Zm-18.41,0h-6.91a1.66,1.66,0,0,1,0-3.31h6.91a1.66,1.66,0,0,1,0,3.31Zm-18.41,0h-6.91a1.66,1.66,0,0,1,0-3.31h6.91a1.66,1.66,0,0,1,0,3.31Zm-18.41,0h-6.91a1.66,1.66,0,0,1,0-3.31H235a1.66,1.66,0,0,1,0,3.31Zm-18.41,0h-6.9a1.66,1.66,0,1,1,0-3.31h6.9a1.66,1.66,0,0,1,0,3.31Zm-18.41,0h-6.9a1.66,1.66,0,1,1,0-3.31h6.9a1.66,1.66,0,0,1,0,3.31Zm-18.41,0h-6.9a1.66,1.66,0,1,1,0-3.31h6.9a1.66,1.66,0,0,1,0,3.31Z" style="fill:#f94f24"/><path d="M566.34,290.11V289a81.2,81.2,0,1,0,0-162.39v-1.1a82.3,82.3,0,1,1,0,164.59Z" style="fill:#f94f24"/></g></svg>