<svg xmlns="http://www.w3.org/2000/svg" xmlns:xlink="http://www.w3.org/1999/xlink" viewBox="0 0 800 500"><defs><linearGradient id="a" x1="320.62" y1="339.27" x2="463.71" y2="98.37" gradientUnits="userSpaceOnUse"><stop offset="0" stop-color="#8033eb"/><stop offset="1" stop-color="#f94f24"/></linearGradient><linearGradient id="b" x1="652.22" y1="361.27" x2="716.3" y2="295.52" gradientUnits="userSpaceOnUse"><stop offset="0" stop-color="#8033eb"/><stop offset="0.53" stop-color="#d4648e"/><stop offset="1" stop-color="#ec7071"/></linearGradient></defs><title>Artboard 2 copy 17</title><g style="isolation:isolate"><path d="M647.48,288.26A74.54,74.54,0,1,1,722,213.72,74.63,74.63,0,0,1,647.48,288.26Zm0-147.9a73.36,73.36,0,1,0,73.36,73.36A73.44,73.44,0,0,0,647.48,140.36Z" style="fill:#f94f24"/><rect x="84.29" y="331.42" width="350.17" height="84.52" rx="39.88" ry="39.88" style="fill:#f2f2f2"/><path d="M163.81,146.77a27.21,27.21,0,1,1-27.21-27.2A27.21,27.21,0,0,1,163.81,146.77Z" style="fill:#f2f2f2"/><path d="M168.31,266.3a17.49,17.49,0,1,1-17.48-17.48A17.49,17.49,0,0,1,168.31,266.3Z" style="fill:#f2f2f2"/><path d="M606.82,148.5A49.82,49.82,0,1,1,557,98.68,49.82,49.82,0,0,1,606.82,148.5Z" style="fill:#f2f2f2"/><path d="M560.38,348V162.13a15.21,15.21,0,0,0-15.06-15.36H187.21a15.21,15.21,0,0,0-15.05,15.36V348Z" style="fill:#b3b3b3"/><path d="M150.83,356.14v17.69a17.21,17.21,0,0,0,17,17.39h396.8a17.21,17.21,0,0,0,17-17.39V356.14Z" style="fill:#b3b3b3"/><rect x="172.16" y="166.93" width="388.23" height="190.95" style="fill:url(#a)"/><path d="M346.6,166.93H172.16V341.19Q259.36,254,346.6,166.93Z" style="fill:#fff;opacity:0.2"/><rect x="172.16" y="354.1" width="388.23" height="3.79" style="fill:#e5e5e5;mix-blend-mode:multiply"/><rect x="172.16" y="166.93" width="388.23" height="3.79" style="fill:#e5e5e5;mix-blend-mode:multiply"/><path d="M382.84,373.68a3.86,3.86,0,0,1-3.86,3.86h-17.9a3.86,3.86,0,0,1-3.86-3.86h0a3.86,3.86,0,0,1,3.86-3.86H379a3.86,3.86,0,0,1,3.86,3.86Z" style="fill:gray"/><path d="M264,373.68a3.85,3.85,0,0,1-3.85,3.86h0a3.86,3.86,0,0,1-3.87-3.86h0a3.86,3.86,0,0,1,3.87-3.86h0a3.85,3.85,0,0,1,3.85,3.86Z" style="fill:gray"/><path d="M287.22,373.68a3.86,3.86,0,0,1-3.86,3.86h0a3.86,3.86,0,0,1-3.86-3.86h0a3.86,3.86,0,0,1,3.86-3.86h0a3.86,3.86,0,0,1,3.86,3.86Z" style="fill:gray"/><rect x="200.1" y="239.48" width="245.29" height="119.19" style="fill:#fff"/><path d="M218.73,213.72v-4.37s.6-7.81,8.62-7.81h223s10.7-.43,10.7,7.81V358.67H445.4V229.92Z" style="fill:#e5e5e5;mix-blend-mode:multiply"/><path d="M445.4,239.48V223a9.31,9.31,0,0,0-9.32-9.31H209.42A9.31,9.31,0,0,0,200.1,223v16.45Z" style="fill:#f94f24"/><path d="M222.05,226.6a3.32,3.32,0,1,1-3.32-3.32A3.32,3.32,0,0,1,222.05,226.6Z" style="fill:#fff"/><path d="M244.37,226.6a3.32,3.32,0,1,1-3.31-3.32A3.32,3.32,0,0,1,244.37,226.6Z" style="fill:#fff"/><path d="M266.71,226.6a3.32,3.32,0,1,1-3.32-3.32A3.32,3.32,0,0,1,266.71,226.6Z" style="fill:#fff"/><path d="M342.48,303.34h-124V262.63h124ZM219,302.76H341.89V263.22H219Z" style="fill:#f94f24"/><path d="M349,262.91a6.78,6.78,0,1,1-6.79-6.78A6.78,6.78,0,0,1,349,262.91Z" style="fill:#f94f24"/><path d="M344.64,262h-1.52v-1.53a.94.94,0,0,0-1.87,0V262h-1.52a.94.94,0,0,0,0,1.87h1.52v1.52a.94.94,0,0,0,1.87,0v-1.52h1.52a.94.94,0,1,0,0-1.87Z" style="fill:#fff"/><rect x="233.25" y="249" width="17.09" height="9.63" style="fill:#e8e8e8"/><rect x="251.51" y="249" width="17.09" height="9.63" style="fill:#dedede"/><rect x="269.76" y="249" width="17.09" height="9.63" style="fill:#dedede"/><path d="M232.09,249h-8.55a4.82,4.82,0,0,0,0,9.63h8.55Z" style="fill:#dedede"/><rect x="288.02" y="249" width="17.09" height="9.63" style="fill:#dedede"/><path d="M314.53,249h-8.26v9.63h8.26a4.82,4.82,0,0,0,0-9.63Z" style="fill:#dedede"/><path d="M427.83,339.31H359.3v-77h68.53Zm-67.36-1.17h66.2V263.51h-66.2Z" style="fill:#dedede"/><path d="M360.3,325.6l-.83-.83,34.6-34.59c2.77-2.77,5.74-4.12,8.8-4a12.63,12.63,0,0,1,8.34,4l16.45,16.44-.82.82L410.37,291c-.06-.06-3.19-3.54-7.54-3.68-2.75-.08-5.41,1.15-7.94,3.68Z" style="fill:#dedede"/><path d="M375.76,287.78a7.39,7.39,0,1,1,7.39-7.39A7.4,7.4,0,0,1,375.76,287.78Zm0-13.62a6.23,6.23,0,1,0,6.22,6.23A6.24,6.24,0,0,0,375.76,274.16Z" style="fill:#dedede"/><path d="M264.73,319.34H222.05a2,2,0,1,1,0-4.07h42.68a2,2,0,1,1,0,4.07Z" style="fill:#dedede"/><path d="M284.52,319.34H274a2,2,0,0,1,0-4.07h10.48a2,2,0,1,1,0,4.07Z" style="fill:#dedede"/><path d="M338.8,319.34H294.63a2,2,0,1,1,0-4.07H338.8a2,2,0,0,1,0,4.07Z" style="fill:#dedede"/><path d="M254.91,277a3.4,3.4,0,0,1-3.4,3.4H231a3.4,3.4,0,0,1-3.4-3.4h0a3.4,3.4,0,0,1,3.4-3.41h20.51a3.4,3.4,0,0,1,3.4,3.41Z" style="fill:#e9e9e9"/><path d="M324.45,277a3.4,3.4,0,0,1-3.4,3.4H312.5a3.41,3.41,0,0,1-3.41-3.4h0a3.41,3.41,0,0,1,3.41-3.41h8.55a3.4,3.4,0,0,1,3.4,3.41Z" style="fill:#e9e9e9"/><path d="M302,277a3.4,3.4,0,0,1-3.4,3.4H263.24a3.41,3.41,0,0,1-3.41-3.4h0a3.41,3.41,0,0,1,3.41-3.41H298.6A3.4,3.4,0,0,1,302,277Z" style="fill:#e9e9e9"/><path d="M286.23,290.59a3.41,3.41,0,0,1-3.41,3.41H232.66a3.41,3.41,0,0,1-3.4-3.41h0a3.4,3.4,0,0,1,3.4-3.4h50.16a3.41,3.41,0,0,1,3.41,3.4Z" style="fill:#e9e9e9"/><rect x="462.47" y="239.48" width="171.52" height="119.19" style="fill:#fff"/><path d="M481.09,213.72v-4.37s.6-7.81,8.63-7.81H638.93s10.7-.43,10.7,7.81V358.67H634V229.92Z" style="fill:#e5e5e5;mix-blend-mode:multiply"/><path d="M634,239.48V223a9.31,9.31,0,0,0-9.31-9.31H471.78a9.31,9.31,0,0,0-9.31,9.31v16.45Z" style="fill:#f94f24"/><path d="M484.41,226.6a3.32,3.32,0,1,1-3.32-3.32A3.32,3.32,0,0,1,484.41,226.6Z" style="fill:#fff"/><path d="M506.74,226.6a3.32,3.32,0,1,1-3.32-3.32A3.32,3.32,0,0,1,506.74,226.6Z" style="fill:#fff"/><path d="M529.07,226.6a3.32,3.32,0,1,1-3.32-3.32A3.32,3.32,0,0,1,529.07,226.6Z" style="fill:#fff"/><rect x="495.62" y="249" width="17.09" height="9.63" style="fill:#e8e8e8"/><rect x="513.88" y="249" width="17.09" height="9.63" style="fill:#dedede"/><rect x="532.13" y="249" width="17.09" height="9.63" style="fill:#dedede"/><path d="M494.46,249h-8.55a4.82,4.82,0,1,0,0,9.63h8.55Z" style="fill:#dedede"/><rect x="550.38" y="249" width="17.09" height="9.63" style="fill:#dedede"/><path d="M576.89,249h-8.25v9.63h8.25a4.82,4.82,0,1,0,0-9.63Z" style="fill:#dedede"/><path d="M527.1,319.34H484.41a2,2,0,1,1,0-4.07H527.1a2,2,0,0,1,0,4.07Z" style="fill:#dedede"/><path d="M546.89,319.34H536.41a2,2,0,1,1,0-4.07h10.48a2,2,0,1,1,0,4.07Z" style="fill:#dedede"/><path d="M601.16,319.34H557a2,2,0,1,1,0-4.07h44.16a2,2,0,1,1,0,4.07Z" style="fill:#dedede"/><rect x="496.47" y="256.13" width="49.87" height="31.06" style="fill:#e9e9e9"/><rect x="541.4" y="273.31" width="49.87" height="31.06" style="fill:#e9e9e9"/><path d="M684.5,360.46h-3.25a1.79,1.79,0,1,1,0-3.57h3.25a1.79,1.79,0,0,1,0,3.57Zm-15.69,0h-7.47a1.79,1.79,0,1,1,0-3.57h7.47a1.79,1.79,0,0,1,0,3.57Zm-19.91,0h-7.47a1.79,1.79,0,0,1,0-3.57h7.47a1.79,1.79,0,1,1,0,3.57Zm-19.91,0h-7.46a1.79,1.79,0,1,1,0-3.57H629a1.79,1.79,0,1,1,0,3.57Zm-19.91,0h-7.46a1.79,1.79,0,1,1,0-3.57h7.46a1.79,1.79,0,1,1,0,3.57Zm-19.9,0h-7.47a1.79,1.79,0,0,1,0-3.57h7.47a1.79,1.79,0,1,1,0,3.57Z" style="fill:#f94f24"/><path d="M158.91,271A107.33,107.33,0,1,1,286.6,131.46l-1.12.39a106.15,106.15,0,1,0-126.29,138Z" style="fill:#f94f24"/><path d="M711.25,347.53a45.64,45.64,0,1,1-45.64-45.64A45.63,45.63,0,0,1,711.25,347.53Z" style="fill:#f2f2f2;mix-blend-mode:multiply"/><path d="M701.1,347.53A35.49,35.49,0,1,1,665.61,312,35.49,35.49,0,0,1,701.1,347.53Z" style="fill:url(#b)"/><path d="M668.15,359.77a3.62,3.62,0,0,1-2.55-1l-7.19-7.19a3.6,3.6,0,1,1,5.09-5.09l4.65,4.64L681,338.22a3.6,3.6,0,1,1,5.09,5.09l-15.4,15.41A3.58,3.58,0,0,1,668.15,359.77Z" style="fill:#ccc;mix-blend-mode:multiply"/><path d="M666.09,357.71a3.63,3.63,0,0,1-2.55-1l-7.19-7.19a3.6,3.6,0,1,1,5.09-5.09l4.65,4.64,12.85-12.85a3.6,3.6,0,0,1,5.1,5.09l-15.41,15.4A3.6,3.6,0,0,1,666.09,357.71Z" style="fill:#f2f2f2"/></g></svg>