<svg xmlns="http://www.w3.org/2000/svg" xmlns:xlink="http://www.w3.org/1999/xlink" viewBox="0 0 800 500"><defs><linearGradient id="a" x1="284.66" y1="481.97" x2="470.46" y2="134.61" gradientUnits="userSpaceOnUse"><stop offset="0" stop-color="#8033eb"/><stop offset="1" stop-color="#f94f24"/></linearGradient><linearGradient id="b" x1="383.58" y1="219.19" x2="383.58" y2="188.19" gradientUnits="userSpaceOnUse"><stop offset="0" stop-color="#b3b3b3"/><stop offset="1" stop-color="#d4d4d4"/></linearGradient><linearGradient id="c" x1="383.58" y1="269.57" x2="383.58" y2="238.56" xlink:href="#b"/><linearGradient id="d" x1="383.58" y1="323.93" x2="383.58" y2="292.93" xlink:href="#b"/><linearGradient id="e" x1="521.1" y1="292.37" x2="550.26" y2="220.67" xlink:href="#a"/></defs><title>Artboard 2 copy 12</title><g style="isolation:isolate"><rect x="139.77" y="200.48" width="326.16" height="78.72" rx="37.14" ry="37.14" style="fill:#f2f2f2"/><path d="M658.63,157.76a25.34,25.34,0,1,1-25.34-25.34A25.34,25.34,0,0,1,658.63,157.76Z" style="fill:#f2f2f2"/><path d="M299.76,422.29A25.34,25.34,0,1,1,274.42,397,25.34,25.34,0,0,1,299.76,422.29Z" style="fill:#f2f2f2"/><circle cx="415.77" cy="236.86" r="152.39" style="fill:url(#a)"/><path d="M411.26,423.88h0c-2.3-.05-4.64-.15-6.94-.29a1.65,1.65,0,0,1,.2-3.3c2.26.14,4.56.23,6.82.29a1.65,1.65,0,0,1,0,3.3Zm11.47-.07a1.66,1.66,0,0,1-.06-3.31c2.27-.08,4.56-.21,6.82-.38a1.65,1.65,0,1,1,.24,3.3c-2.3.17-4.63.3-6.93.39ZM393,422.54h-.2c-2.29-.28-4.61-.61-6.88-1a1.66,1.66,0,0,1,.53-3.27c2.23.37,4.5.69,6.75,1a1.65,1.65,0,0,1-.2,3.29Zm48.06-.32a1.65,1.65,0,0,1-.23-3.29c2.25-.31,4.51-.66,6.74-1.05a1.65,1.65,0,1,1,.57,3.25c-2.27.4-4.57.76-6.86,1.08Zm-66.13-2.84a1.5,1.5,0,0,1-.37,0c-2.25-.51-4.52-1.07-6.75-1.66a1.65,1.65,0,1,1,.86-3.19c2.18.58,4.41,1.13,6.62,1.63a1.65,1.65,0,0,1-.36,3.26Zm84.16-.56a1.64,1.64,0,0,1-1.61-1.26,1.66,1.66,0,0,1,1.22-2c2.19-.52,4.41-1.1,6.6-1.72a1.65,1.65,0,1,1,.9,3.18c-2.23.63-4.49,1.22-6.72,1.76A1.72,1.72,0,0,1,459.05,418.82Zm-101.84-4.39a1.57,1.57,0,0,1-.52-.08c-2.2-.74-4.41-1.52-6.57-2.34a1.65,1.65,0,0,1,1.17-3.09c2.12.8,4.29,1.57,6.45,2.29a1.65,1.65,0,0,1-.53,3.22Zm119.44-.8a1.65,1.65,0,0,1-.54-3.21c2.12-.74,4.27-1.54,6.39-2.37a1.65,1.65,0,1,1,1.21,3.07c-2.16.85-4.35,1.66-6.51,2.42A1.51,1.51,0,0,1,476.65,413.63Zm-136.56-5.91a1.67,1.67,0,0,1-.68-.15c-2.1-.95-4.22-1.95-6.29-3a1.65,1.65,0,0,1,1.48-3c2,1,4.11,2,6.17,2.93a1.65,1.65,0,0,1-.68,3.16Zm153.54-1a1.65,1.65,0,0,1-.7-3.15c2-.94,4.08-1.95,6.11-3a1.65,1.65,0,1,1,1.51,2.94c-2.06,1.06-4.16,2.09-6.22,3.05A1.61,1.61,0,0,1,493.63,406.71Zm-169.89-7.38a1.63,1.63,0,0,1-.82-.22c-2-1.16-4-2.37-6-3.6a1.65,1.65,0,0,1,1.76-2.8c1.92,1.21,3.89,2.4,5.85,3.53a1.66,1.66,0,0,1-.83,3.09Zm186.08-1.19a1.66,1.66,0,0,1-.84-3.08c1.94-1.15,3.89-2.36,5.78-3.59a1.66,1.66,0,0,1,1.8,2.78c-1.93,1.25-3.92,2.48-5.89,3.65A1.66,1.66,0,0,1,509.82,398.14Zm-201.5-8.79a1.67,1.67,0,0,1-1-.31c-1.88-1.35-3.75-2.75-5.56-4.16a1.65,1.65,0,0,1,2-2.61c1.78,1.38,3.62,2.76,5.47,4.09a1.66,1.66,0,0,1,.37,2.31A1.64,1.64,0,0,1,308.32,389.35ZM525.09,388a1.69,1.69,0,0,1-1.33-.67,1.67,1.67,0,0,1,.35-2.32c1.81-1.33,3.63-2.73,5.41-4.15a1.65,1.65,0,1,1,2.06,2.58c-1.81,1.45-3.66,2.87-5.51,4.23A1.63,1.63,0,0,1,525.09,388ZM294,377.9a1.66,1.66,0,0,1-1.09-.41c-1.73-1.53-3.45-3.1-5.13-4.7A1.65,1.65,0,1,1,290,370.4c1.65,1.56,3.34,3.11,5,4.61A1.65,1.65,0,0,1,294,377.9Zm245.32-1.54a1.65,1.65,0,0,1-1.11-2.87c1.67-1.52,3.35-3.09,5-4.67a1.65,1.65,0,1,1,2.31,2.36c-1.65,1.61-3.36,3.21-5.06,4.76A1.69,1.69,0,0,1,539.29,376.36ZM280.83,365.09a1.63,1.63,0,0,1-1.21-.53c-1.57-1.69-3.13-3.43-4.63-5.18a1.65,1.65,0,1,1,2.5-2.15c1.48,1.71,3,3.42,4.55,5.08a1.65,1.65,0,0,1-1.21,2.78Zm271.43-1.7a1.61,1.61,0,0,1-1.1-.43,1.65,1.65,0,0,1-.12-2.33c1.53-1.69,3-3.42,4.49-5.14a1.65,1.65,0,1,1,2.53,2.12c-1.47,1.75-3,3.51-4.57,5.24A1.65,1.65,0,0,1,552.26,363.39ZM269,351a1.62,1.62,0,0,1-1.31-.65c-1.4-1.84-2.78-3.72-4.1-5.6a1.66,1.66,0,0,1,2.71-1.91c1.3,1.85,2.65,3.7,4,5.51a1.66,1.66,0,0,1-.32,2.32A1.69,1.69,0,0,1,269,351Zm294.88-1.85a1.62,1.62,0,0,1-1-.32,1.65,1.65,0,0,1-.35-2.31c1.35-1.83,2.68-3.7,4-5.57a1.65,1.65,0,0,1,2.73,1.86c-1.3,1.91-2.66,3.82-4,5.67A1.63,1.63,0,0,1,563.9,349.19ZM258.68,335.91a1.69,1.69,0,0,1-1.42-.79c-1.2-2-2.38-4-3.51-6a1.65,1.65,0,1,1,2.88-1.62c1.11,2,2.27,3.93,3.45,5.87a1.64,1.64,0,0,1-.54,2.27A1.61,1.61,0,0,1,258.68,335.91Zm315.39-2a1.71,1.71,0,0,1-.84-.23,1.65,1.65,0,0,1-.57-2.27c1.15-1.94,2.29-3.94,3.38-5.94a1.65,1.65,0,0,1,2.9,1.59c-1.11,2-2.27,4.06-3.44,6A1.66,1.66,0,0,1,574.07,333.9ZM249.89,319.82a1.64,1.64,0,0,1-1.49-.93c-1-2.06-2-4.17-2.9-6.3a1.64,1.64,0,0,1,.85-2.17,1.66,1.66,0,0,1,2.18.85c.91,2.08,1.87,4.16,2.84,6.18a1.65,1.65,0,0,1-1.48,2.37Zm332.78-2.16a1.68,1.68,0,0,1-.69-.15,1.65,1.65,0,0,1-.8-2.2c1-2.06,1.9-4.17,2.77-6.25a1.66,1.66,0,1,1,3,1.29c-.89,2.12-1.84,4.26-2.83,6.36A1.64,1.64,0,0,1,582.67,317.66ZM242.75,303a1.64,1.64,0,0,1-1.55-1.08c-.79-2.16-1.55-4.37-2.26-6.57a1.66,1.66,0,0,1,3.15-1c.7,2.17,1.44,4.34,2.21,6.45a1.65,1.65,0,0,1-1.55,2.22Zm346.86-2.31a1.56,1.56,0,0,1-.55-.1,1.65,1.65,0,0,1-1-2.1c.75-2.14,1.47-4.32,2.14-6.5a1.65,1.65,0,1,1,3.16,1c-.69,2.22-1.42,4.45-2.18,6.62A1.66,1.66,0,0,1,589.61,300.64ZM237.33,285.42a1.65,1.65,0,0,1-1.6-1.24c-.57-2.24-1.11-4.52-1.59-6.77a1.66,1.66,0,0,1,3.24-.69c.47,2.2,1,4.44,1.55,6.64a1.65,1.65,0,0,1-1.19,2A1.92,1.92,0,0,1,237.33,285.42ZM594.8,283a1.31,1.31,0,0,1-.39-.05,1.65,1.65,0,0,1-1.22-2c.53-2.19,1-4.43,1.47-6.66a1.65,1.65,0,1,1,3.24.65c-.45,2.28-1,4.56-1.49,6.78A1.66,1.66,0,0,1,594.8,283ZM233.7,267.43a1.65,1.65,0,0,1-1.64-1.4c-.34-2.27-.64-4.59-.9-6.89a1.65,1.65,0,1,1,3.28-.37c.26,2.26.56,4.53.89,6.76a1.65,1.65,0,0,1-1.39,1.89ZM598.19,265l-.22,0a1.66,1.66,0,0,1-1.42-1.86c.31-2.24.58-4.52.8-6.78a1.65,1.65,0,0,1,3.29.33c-.23,2.29-.5,4.61-.81,6.9A1.66,1.66,0,0,1,598.19,265ZM231.87,249.17a1.66,1.66,0,0,1-1.65-1.57c-.11-2.31-.19-4.65-.22-6.94a1.65,1.65,0,0,1,1.64-1.67h0a1.65,1.65,0,0,1,1.66,1.63c0,2.25.1,4.54.22,6.82a1.65,1.65,0,0,1-1.57,1.73Zm367.9-2.48h-.06a1.65,1.65,0,0,1-1.59-1.71c.08-2.25.12-4.55.12-6.82v-.4a1.66,1.66,0,0,1,3.31,0v.39c0,2.32,0,4.66-.13,6.95A1.65,1.65,0,0,1,599.77,246.69ZM231.86,230.82h-.08a1.66,1.66,0,0,1-1.58-1.73c.11-2.29.27-4.63.46-6.93a1.66,1.66,0,0,1,3.3.28c-.19,2.27-.35,4.56-.45,6.81A1.66,1.66,0,0,1,231.86,230.82ZM599.52,228a1.65,1.65,0,0,1-1.65-1.55c-.14-2.26-.33-4.55-.56-6.8a1.65,1.65,0,1,1,3.29-.33c.23,2.29.42,4.62.57,6.92a1.66,1.66,0,0,1-1.54,1.76ZM233.64,212.56l-.24,0a1.64,1.64,0,0,1-1.39-1.87c.33-2.28.72-4.58,1.15-6.86a1.65,1.65,0,0,1,1.92-1.32,1.66,1.66,0,0,1,1.33,1.93c-.42,2.23-.8,4.5-1.13,6.73A1.66,1.66,0,0,1,233.64,212.56Zm363.81-2.84a1.65,1.65,0,0,1-1.63-1.39c-.37-2.23-.78-4.49-1.24-6.71a1.65,1.65,0,0,1,3.24-.66c.46,2.26.89,4.56,1.26,6.84a1.64,1.64,0,0,1-1.36,1.89ZM237.24,194.57a1.51,1.51,0,0,1-.41-.06,1.64,1.64,0,0,1-1.19-2c.56-2.23,1.17-4.48,1.82-6.7a1.66,1.66,0,1,1,3.18.93c-.64,2.18-1.25,4.39-1.8,6.58A1.65,1.65,0,0,1,237.24,194.57Zm356.33-2.79a1.65,1.65,0,0,1-1.6-1.22c-.59-2.19-1.23-4.4-1.9-6.56a1.65,1.65,0,0,1,3.16-1c.68,2.2,1.33,4.45,1.93,6.68a1.66,1.66,0,0,1-1.59,2.08ZM242.62,177a1.62,1.62,0,0,1-.56-.1,1.65,1.65,0,0,1-1-2.11c.79-2.19,1.63-4.37,2.5-6.51a1.65,1.65,0,1,1,3.06,1.25c-.85,2.09-1.68,4.24-2.45,6.38A1.65,1.65,0,0,1,242.62,177Zm345.29-2.7a1.64,1.64,0,0,1-1.54-1.06c-.81-2.11-1.66-4.23-2.54-6.31a1.65,1.65,0,1,1,3-1.29c.9,2.12,1.77,4.28,2.58,6.42a1.64,1.64,0,0,1-1,2.13A1.54,1.54,0,0,1,587.91,174.32ZM249.75,160.08a1.67,1.67,0,0,1-1.49-2.37c1-2.07,2.05-4.16,3.14-6.22a1.65,1.65,0,1,1,2.92,1.55c-1.06,2-2.1,4.07-3.08,6.1A1.65,1.65,0,0,1,249.75,160.08Zm330.8-2.53a1.64,1.64,0,0,1-1.48-.91c-1-2-2.08-4.06-3.16-6a1.65,1.65,0,0,1,2.9-1.59c1.1,2,2.18,4.07,3.22,6.14a1.67,1.67,0,0,1-.74,2.22A1.63,1.63,0,0,1,580.55,157.55Zm-322-13.61a1.59,1.59,0,0,1-.86-.25,1.64,1.64,0,0,1-.55-2.27c1.21-2,2.47-4,3.74-5.87a1.65,1.65,0,0,1,2.75,1.83c-1.24,1.88-2.48,3.82-3.67,5.77A1.65,1.65,0,0,1,258.54,143.94Zm313-2.35a1.65,1.65,0,0,1-1.4-.77c-1.21-1.91-2.47-3.83-3.74-5.69a1.65,1.65,0,1,1,2.72-1.87c1.3,1.9,2.58,3.85,3.82,5.79a1.65,1.65,0,0,1-1.4,2.54ZM268.88,128.76a1.68,1.68,0,0,1-1-.33,1.66,1.66,0,0,1-.32-2.32c1.39-1.85,2.84-3.68,4.3-5.46a1.65,1.65,0,1,1,2.55,2.09c-1.42,1.75-2.85,3.55-4.22,5.37A1.67,1.67,0,0,1,268.88,128.76ZM561,126.6a1.67,1.67,0,0,1-1.31-.64c-1.38-1.77-2.83-3.56-4.29-5.3a1.65,1.65,0,0,1,.2-2.33,1.67,1.67,0,0,1,2.33.2c1.49,1.78,3,3.59,4.37,5.4a1.66,1.66,0,0,1-.29,2.32A1.67,1.67,0,0,1,561,126.6ZM280.68,114.69a1.62,1.62,0,0,1-1.12-.44,1.65,1.65,0,0,1-.09-2.33c1.57-1.7,3.19-3.38,4.81-5a1.65,1.65,0,1,1,2.34,2.34c-1.59,1.59-3.18,3.25-4.73,4.91A1.65,1.65,0,0,1,280.68,114.69Zm268.31-2a1.64,1.64,0,0,1-1.19-.51c-1.56-1.63-3.18-3.26-4.8-4.85a1.65,1.65,0,1,1,2.3-2.37c1.66,1.61,3.3,3.27,4.89,4.94a1.65,1.65,0,0,1-.06,2.33A1.63,1.63,0,0,1,549,112.71ZM293.81,101.87a1.64,1.64,0,0,1-1.24-.56,1.66,1.66,0,0,1,.14-2.34c1.73-1.53,3.51-3,5.28-4.5a1.66,1.66,0,0,1,2.1,2.56c-1.74,1.43-3.49,2.92-5.19,4.42A1.62,1.62,0,0,1,293.81,101.87Zm241.87-1.79a1.64,1.64,0,0,1-1.08-.4c-1.72-1.48-3.49-3-5.26-4.35a1.65,1.65,0,0,1,2.06-2.59c1.8,1.43,3.6,2.92,5.36,4.43a1.66,1.66,0,0,1-1.08,2.91ZM308.13,90.41a1.66,1.66,0,0,1-1-3c1.86-1.34,3.78-2.67,5.7-4a1.65,1.65,0,1,1,1.84,2.75c-1.89,1.26-3.77,2.56-5.6,3.88A1.68,1.68,0,0,1,308.13,90.41Zm213-1.59a1.66,1.66,0,0,1-.94-.3c-1.85-1.3-3.76-2.58-5.67-3.81a1.65,1.65,0,1,1,1.79-2.78c1.94,1.26,3.89,2.56,5.77,3.88a1.65,1.65,0,0,1-1,3ZM323.51,80.43a1.66,1.66,0,0,1-.83-3.09c2-1.15,4-2.29,6.07-3.36a1.64,1.64,0,0,1,2.23.68,1.66,1.66,0,0,1-.68,2.24c-2,1.06-4,2.17-6,3.3A1.65,1.65,0,0,1,323.51,80.43Zm182.1-1.38a1.55,1.55,0,0,1-.8-.21c-2-1.11-4-2.2-6-3.22a1.66,1.66,0,0,1,1.51-3c2,1,4.11,2.16,6.13,3.29a1.65,1.65,0,0,1-.81,3.09ZM339.8,72a1.65,1.65,0,0,1-.68-3.15c2.09-.95,4.23-1.88,6.36-2.75a1.65,1.65,0,1,1,1.25,3.06c-2.09.86-4.19,1.76-6.24,2.7A1.7,1.7,0,0,1,339.8,72Zm149.35-1.14a1.74,1.74,0,0,1-.66-.14c-2.08-.9-4.2-1.78-6.32-2.61a1.65,1.65,0,1,1,1.21-3.08c2.15.84,4.32,1.74,6.43,2.66a1.65,1.65,0,0,1-.66,3.17ZM356.86,65.31a1.65,1.65,0,0,1-.53-3.22c2.19-.74,4.42-1.45,6.62-2.1a1.65,1.65,0,1,1,.94,3.17c-2.16.64-4.35,1.34-6.5,2.06A1.69,1.69,0,0,1,356.86,65.31Zm115.08-.9a1.8,1.8,0,0,1-.5-.08c-2.14-.69-4.34-1.34-6.54-2a1.65,1.65,0,0,1,.89-3.18c2.24.62,4.47,1.29,6.66,2a1.65,1.65,0,0,1-.51,3.23Zm-97.42-4.09a1.65,1.65,0,0,1-.37-3.26c2.23-.51,4.52-1,6.8-1.43a1.65,1.65,0,0,1,.62,3.25c-2.24.43-4.49.9-6.68,1.4A1.61,1.61,0,0,1,374.52,60.32Zm79.69-.62a1.39,1.39,0,0,1-.35,0c-2.21-.47-4.46-.9-6.7-1.29a1.65,1.65,0,1,1,.57-3.25c2.27.39,4.57.83,6.82,1.31a1.65,1.65,0,0,1-.34,3.27Zm-61.62-2.57a1.66,1.66,0,0,1-.21-3.3c2.3-.28,4.62-.53,6.91-.73a1.65,1.65,0,1,1,.29,3.29c-2.25.2-4.53.44-6.79.72Zm43.5-.34h-.18c-2.25-.25-4.54-.45-6.8-.62a1.66,1.66,0,0,1-1.53-1.77,1.64,1.64,0,0,1,1.77-1.52c2.3.16,4.63.37,6.92.62a1.66,1.66,0,0,1-.18,3.3Zm-25.2-1a1.66,1.66,0,0,1-.05-3.31c2.31-.06,4.64-.08,7,0a1.65,1.65,0,0,1,0,3.3c-2.27,0-4.55,0-6.82.06Z" style="fill:#f94f24"/><path d="M457.61,227.93a20.65,20.65,0,0,0,20.65-20.64v-4a20.66,20.66,0,0,0-20.65-20.65H397.9V164a20.71,20.71,0,1,0-16.79,0v18.67H321.4a20.66,20.66,0,0,0-20.65,20.65v4a20.65,20.65,0,0,0,20.65,20.64h59.71V233H321.4a20.66,20.66,0,0,0-20.65,20.65v4a20.66,20.66,0,0,0,20.65,20.65h59.71v9.06H321.4A20.66,20.66,0,0,0,300.75,308v4a20.65,20.65,0,0,0,20.65,20.64H457.61A20.65,20.65,0,0,0,478.26,312v-4a20.66,20.66,0,0,0-20.65-20.65H397.9v-9.06h59.71a20.66,20.66,0,0,0,20.65-20.65v-4A20.66,20.66,0,0,0,457.61,233H397.9v-5.08Z" style="fill:#ccc;mix-blend-mode:multiply"/><rect x="375.19" y="206.43" width="16.79" height="92.16" style="fill:gray"/><polygon points="391.83 224.7 375.31 227.5 375.31 219.94 391.83 219.94 391.83 224.7" style="fill:#6e6e6e"/><rect x="375.19" y="142.75" width="16.79" height="44.73" style="fill:gray"/><polygon points="391.83 169.21 375.31 166.41 375.31 173.98 391.83 173.98 391.83 169.21" style="fill:#6e6e6e"/><path d="M472.34,199.29a20.65,20.65,0,0,1-20.65,20.64H315.48a20.65,20.65,0,0,1-20.65-20.64v-4a20.65,20.65,0,0,1,20.65-20.65H451.69a20.65,20.65,0,0,1,20.65,20.65Z" style="fill:url(#b)"/><path d="M421.11,196.35a6.89,6.89,0,1,1-6.88-6.89A6.88,6.88,0,0,1,421.11,196.35Z" style="fill:#fff"/><path d="M452.16,196.35a6.89,6.89,0,1,1-6.89-6.89A6.88,6.88,0,0,1,452.16,196.35Z" style="fill:#fff"/><path d="M383.58,203.57h-60.2a6.29,6.29,0,0,1,0-12.57h60.2a6.29,6.29,0,1,1,0,12.57Z" style="fill:#fff"/><path d="M472.34,249.67a20.65,20.65,0,0,1-20.65,20.64H315.48a20.65,20.65,0,0,1-20.65-20.64v-4A20.65,20.65,0,0,1,315.48,225H451.69a20.65,20.65,0,0,1,20.65,20.64Z" style="fill:url(#c)"/><path d="M421.11,246.72a6.89,6.89,0,1,1-6.88-6.88A6.89,6.89,0,0,1,421.11,246.72Z" style="fill:#fff"/><path d="M452.16,246.72a6.89,6.89,0,1,1-6.89-6.88A6.89,6.89,0,0,1,452.16,246.72Z" style="fill:#fff"/><path d="M383.58,254h-60.2a6.29,6.29,0,0,1,0-12.57h60.2a6.29,6.29,0,1,1,0,12.57Z" style="fill:#fff"/><path d="M472.34,304a20.66,20.66,0,0,1-20.65,20.65H315.48A20.66,20.66,0,0,1,294.83,304v-4a20.65,20.65,0,0,1,20.65-20.64H451.69A20.65,20.65,0,0,1,472.34,300Z" style="fill:url(#d)"/><path d="M421.11,301.09a6.89,6.89,0,1,1-6.88-6.89A6.89,6.89,0,0,1,421.11,301.09Z" style="fill:#fff"/><path d="M452.16,301.09a6.89,6.89,0,1,1-6.89-6.89A6.89,6.89,0,0,1,452.16,301.09Z" style="fill:#fff"/><path d="M383.58,308.32h-60.2a6.29,6.29,0,0,1,0-12.58h60.2a6.29,6.29,0,1,1,0,12.58Z" style="fill:#fff"/><path d="M404.29,137.05a20.71,20.71,0,1,1-20.71-20.69A20.71,20.71,0,0,1,404.29,137.05Z" style="fill:gray"/><path d="M614.36,296c-.16-.33-.3-.67-.44-1a16.47,16.47,0,0,0-1.76-3.39,181.63,181.63,0,0,0-18.92-22.72c-11.85-12-23.85-20.39-36.67-25.68a77.76,77.76,0,0,0-40.27-5.38c-14.5,1.91-28.43,7.55-42.57,17.26a151.14,151.14,0,0,0-30.09,27.41c-.54.65-1.09,1.28-1.64,1.92-2.92,3.37-5.94,6.85-7.83,11.48a4.52,4.52,0,0,0-.34,1.7v3a4.51,4.51,0,0,0,.84,2.61c.43.59.83,1.2,1.24,1.8a45.94,45.94,0,0,0,3.3,4.45c12.9,14.72,25.85,25.78,39.59,33.81,13.35,7.8,26.54,12.1,40.31,13.14,2.17.17,4.36.25,6.51.25,15,0,29.88-4.05,44.13-12a131.9,131.9,0,0,0,35.83-29.88c.43-.51.87-1,1.31-1.51,2.74-3.16,5.84-6.74,7.61-11.37a4.58,4.58,0,0,0,.29-1.6v-2.35A4.57,4.57,0,0,0,614.36,296Z" style="fill:#ccc;mix-blend-mode:multiply"/><path d="M607.82,290.38c-1.73,4.54-5.08,8-8.14,11.56a126.67,126.67,0,0,1-34.6,28.87c-14.94,8.38-30.91,12.53-48.1,11.23-13.79-1-26.49-5.59-38.38-12.54-14.8-8.64-27.24-20.07-38.47-32.89-1.59-1.82-2.85-3.93-4.26-5.9v-3c1.94-4.76,5.52-8.38,8.74-12.2a146.73,146.73,0,0,1,29.19-26.61c12.34-8.46,25.67-14.54,40.62-16.5a73,73,0,0,1,38,5.07c13.57,5.6,25,14.34,35.2,24.69A178.52,178.52,0,0,1,606,284.3a24.1,24.1,0,0,1,1.8,3.72Z" style="fill:#f2f2f2;fill-rule:evenodd"/><path d="M523.16,346.77c-2.16,0-4.35-.08-6.52-.24-13.77-1-27-5.34-40.31-13.14-13.74-8-26.69-19.09-39.59-33.82a43,43,0,0,1-3.29-4.44c-.41-.61-.82-1.21-1.24-1.8a4.47,4.47,0,0,1-.84-2.62v-3a4.48,4.48,0,0,1,.33-1.7c1.89-4.63,4.91-8.12,7.83-11.49.55-.63,1.1-1.27,1.64-1.91a151.77,151.77,0,0,1,30.09-27.42c14.14-9.7,28.07-15.35,42.58-17.25a77.73,77.73,0,0,1,40.26,5.37c12.82,5.3,24.82,13.7,36.67,25.68a182.36,182.36,0,0,1,18.92,22.72,17,17,0,0,1,1.76,3.39c.14.34.28.68.44,1a4.64,4.64,0,0,1,.43,1.93v2.36A4.56,4.56,0,0,1,612,292c-1.76,4.64-4.87,8.21-7.61,11.37l-1.31,1.51a131.83,131.83,0,0,1-35.82,29.88C553,342.72,538.18,346.77,523.16,346.77ZM440.37,289.3l.53.78a36.94,36.94,0,0,0,2.61,3.56c12.25,14,24.47,24.45,37.36,32,12.15,7.09,24.07,11,36.45,11.93,15.52,1.18,30.83-2.41,45.56-10.67A122.73,122.73,0,0,0,596.26,299c.45-.53.91-1.06,1.37-1.58,2.27-2.63,4.44-5.11,5.69-7.95V289l-.18-.43a9.67,9.67,0,0,0-.78-1.63,172.77,172.77,0,0,0-18-21.62c-11-11.11-22-18.86-33.72-23.69A68.75,68.75,0,0,0,515,236.84c-13.07,1.72-25.71,6.87-38.66,15.75a143.13,143.13,0,0,0-28.3,25.79c-.56.68-1.14,1.35-1.72,2-2.35,2.72-4.59,5.3-6,8.24Z" style="fill:#6731cf"/><path d="M521.84,246.9a39.84,39.84,0,0,0-21.92,6.53,19.5,19.5,0,1,1-18.16,32.73c0,.28,0,.56,0,.85a40.11,40.11,0,1,0,40.1-40.11Z" style="fill-rule:evenodd;fill:url(#e)"/><path d="M602.36,286.94c-1-1.39-2-2.73-3-4.05-.57.68-1.16,1.37-1.77,2.06l-1.36,1.59a122.91,122.91,0,0,1-33.38,27.86c-12.89,7.22-26.26,10.89-39.72,10.89-1.93,0-3.9-.08-5.84-.22-12.38-.94-24.3-4.84-36.45-11.94-12.5-7.3-24.37-17.37-36.24-30.72a29.28,29.28,0,0,0-4.26,6.24v.67l.53.78a36.94,36.94,0,0,0,2.61,3.56c12.25,14,24.47,24.45,37.36,32,12.15,7.09,24.07,11,36.45,11.93,1.94.15,3.91.23,5.84.23,13.46,0,26.83-3.67,39.72-10.9A122.73,122.73,0,0,0,596.26,299l1.36-1.58c2.28-2.62,4.45-5.11,5.7-7.95V289c-.06-.14-.12-.28-.17-.42A10.15,10.15,0,0,0,602.36,286.94Z" style="fill:#e5e5e5;fill-rule:evenodd;mix-blend-mode:multiply"/><path d="M256.7,224.27a74.72,74.72,0,1,1,59.38-120.08l-.88.67a73.62,73.62,0,1,0-58.5,118.31Z" style="fill:#f94f24"/><path d="M552.47,404.42A107.2,107.2,0,0,1,492.23,386l.61-.91a106.66,106.66,0,1,0,78.05-193.5l.19-1.09a107.76,107.76,0,0,1-18.61,213.91Z" style="fill:#f94f24"/></g></svg>