<svg xmlns="http://www.w3.org/2000/svg" xmlns:xlink="http://www.w3.org/1999/xlink" viewBox="0 0 800 500"><defs><linearGradient id="a" x1="383.88" y1="194.87" x2="432.59" y2="144.89" gradientUnits="userSpaceOnUse"><stop offset="0" stop-color="#8033eb"/><stop offset="0.53" stop-color="#d4648e"/><stop offset="1" stop-color="#ec7071"/></linearGradient><linearGradient id="b" x1="214.99" y1="250.88" x2="611.47" y2="250.88" gradientUnits="userSpaceOnUse"><stop offset="0" stop-color="#8033eb"/><stop offset="1" stop-color="#6731ce"/></linearGradient></defs><title>Artboard 2 copy 13</title><g style="isolation:isolate"><rect x="231.01" y="294.37" width="164.27" height="102.31" style="fill:#eee8fa"/><path d="M659.06,396.68a48.91,48.91,0,1,1-48.9-48.9A48.9,48.9,0,0,1,659.06,396.68Z" style="fill:#f2f2f2"/><rect x="131.72" y="140.29" width="198.59" height="62.34" rx="29.41" ry="29.41" style="fill:#f2f2f2"/><path d="M506.24,283.25A20.21,20.21,0,1,1,486,263,20.21,20.21,0,0,1,506.24,283.25Z" style="fill:#f2f2f2"/><path d="M231,398.69a2,2,0,0,1-.78-3.86c.62-.26,63.16-27,132.91-78,40.92-29.92,76.29-62.22,105.1-96,36-42.16,61.78-86.74,76.72-132.5a2,2,0,0,1,3.81,1.25c-15.1,46.28-41.18,91.33-77.51,133.89-29,34-64.64,66.53-105.83,96.64-70.11,51.25-133,78.14-133.64,78.41A2,2,0,0,1,231,398.69Z" style="fill:#f94f24"/><path d="M557.44,398.69a2,2,0,0,1-.79-.16c-.62-.27-63-27.17-132.58-78.42C383.19,290,347.82,257.49,319,223.48c-36.11-42.57-62.08-87.62-77.18-133.89a2,2,0,0,1,3.82-1.25c14.93,45.78,40.65,90.37,76.42,132.54,28.65,33.78,63.79,66.07,104.42,96,69.22,51,131.16,77.69,131.78,78a2,2,0,0,1-.79,3.85Z" style="fill:#bfa9eb"/><path d="M131.47,93.43h6.32c3.81,0,6.32,2,6.32,5.35v0c0,3.64-3,5.52-6.63,5.52h-4.1v6h-1.91Zm6.08,9.18c2.8,0,4.63-1.49,4.63-3.71v-.05c0-2.41-1.81-3.66-4.53-3.66h-4.27v7.42Z" style="fill:#6731cf"/><path d="M147.58,93.43h7.25a6.65,6.65,0,0,1,4.8,1.68,4.66,4.66,0,0,1,1.3,3.33v0c0,2.8-1.93,4.43-4.58,4.92l5.18,6.89H159.2l-4.9-6.56h-4.82v6.56h-1.9Zm7.08,8.6c2.53,0,4.34-1.3,4.34-3.47v0c0-2.07-1.59-3.32-4.31-3.32h-5.21V102Z" style="fill:#6731cf"/><path d="M165.17,93.43h1.91V110.3h-1.91Z" style="fill:#6731cf"/><path d="M171.27,101.91v0a8.5,8.5,0,0,1,8.53-8.72,8.79,8.79,0,0,1,6.59,2.67l-1.31,1.4a7.32,7.32,0,0,0-5.3-2.31,6.61,6.61,0,0,0-6.53,6.92v0a6.66,6.66,0,0,0,6.53,7,7.35,7.35,0,0,0,5.45-2.43l1.25,1.23a8.8,8.8,0,0,1-6.75,3A8.41,8.41,0,0,1,171.27,101.91Z" style="fill:#6731cf"/><path d="M189.81,93.43H202v1.73H191.71v5.76h9.21v1.74h-9.21v5.91h10.41v1.73H189.81Z" style="fill:#6731cf"/><path d="M246.15,444.82A8.63,8.63,0,0,1,232.24,438v-.05a8.56,8.56,0,0,1,8.63-8.73,8.47,8.47,0,0,1,8.58,8.68v0a8.75,8.75,0,0,1-2,5.66l2.24,1.86-1.3,1.42Zm-1.4-1.23-3.13-2.68,1.28-1.42,3.11,2.82a7.13,7.13,0,0,0,1.47-4.36v-.05a6.71,6.71,0,0,0-6.66-7,6.63,6.63,0,0,0-6.6,6.92v0a6.71,6.71,0,0,0,6.65,7A6.36,6.36,0,0,0,244.75,443.59Z" style="fill:#6731cf"/><path d="M253.21,439.27v-9.81h1.91v9.69c0,3.64,1.92,5.69,5.15,5.69s5.09-1.88,5.09-5.57v-9.81h1.91v9.67c0,4.92-2.82,7.47-7,7.47S253.21,444.05,253.21,439.27Z" style="fill:#6731cf"/><path d="M277.41,429.34h1.79l7.69,17h-2.05l-2-4.46h-9.18l-2,4.46h-1.95Zm4.7,10.82-3.83-8.6-3.86,8.6Z" style="fill:#6731cf"/><path d="M290.21,429.46H292L302.63,443V429.46h1.85v16.88H303L292.07,432.5v13.84h-1.86Z" style="fill:#6731cf"/><path d="M313.71,431.22h-5.66v-1.76h13.26v1.76h-5.67v15.12h-1.93Z" style="fill:#6731cf"/><path d="M325,429.46H327v16.88H325Z" style="fill:#6731cf"/><path d="M336.35,431.22h-5.67v-1.76h13.26v1.76h-5.66v15.12h-1.93Z" style="fill:#6731cf"/><path d="M352.79,439.66l-7-10.2h2.31l5.69,8.44,5.74-8.44h2.22l-7,10.17v6.71h-1.92Z" style="fill:#6731cf"/><path d="M643.06,399.3H231a2.62,2.62,0,0,1-2.62-2.62v-321a2.62,2.62,0,1,1,5.24,0V394.06H643.06a2.62,2.62,0,0,1,0,5.24Z" style="fill:#6731cf"/><path d="M428.75,184.42a34.69,34.69,0,1,1-34.69-34.69A34.69,34.69,0,0,1,428.75,184.42Z" style="fill:#f2f2f2;mix-blend-mode:multiply"/><path d="M421,184.42a27,27,0,1,1-27-27A27,27,0,0,1,421,184.42Z" style="fill:url(#a)"/><path d="M396,193.73a2.77,2.77,0,0,1-1.94-.8l-5.46-5.47a2.73,2.73,0,1,1,3.86-3.87l3.54,3.53,9.77-9.77a2.74,2.74,0,0,1,3.87,3.87l-11.71,11.71A2.73,2.73,0,0,1,396,193.73Z" style="fill:#ccc;mix-blend-mode:multiply"/><path d="M394.42,192.16a2.7,2.7,0,0,1-1.93-.8L387,185.9a2.74,2.74,0,0,1,3.87-3.87l3.53,3.53,9.77-9.78a2.74,2.74,0,0,1,3.87,3.87l-11.7,11.71A2.72,2.72,0,0,1,394.42,192.16Z" style="fill:#f2f2f2"/><path d="M396.59,227.85a1.31,1.31,0,0,1-.08-2.61,41.84,41.84,0,0,0,5.25-.66,1.31,1.31,0,0,1,.49,2.58,43.55,43.55,0,0,1-5.59.69Zm-9.08-.43h-.21a44.46,44.46,0,0,1-5.49-1.23,1.31,1.31,0,1,1,.73-2.51,41.49,41.49,0,0,0,5.17,1.15,1.31,1.31,0,0,1-.2,2.6Zm23.19-2.9a1.31,1.31,0,0,1-.52-2.51,40.11,40.11,0,0,0,4.71-2.4,1.31,1.31,0,1,1,1.34,2.25,41.51,41.51,0,0,1-5,2.55A1.14,1.14,0,0,1,410.7,224.52Zm-36.92-1.78a1.28,1.28,0,0,1-.63-.16,42,42,0,0,1-4.75-3,1.31,1.31,0,1,1,1.54-2.11,39.24,39.24,0,0,0,4.47,2.84,1.31,1.31,0,0,1,.51,1.78A1.28,1.28,0,0,1,373.78,222.74Zm49.05-6.15a1.31,1.31,0,0,1-.89-2.26,41.34,41.34,0,0,0,3.63-3.86,1.31,1.31,0,0,1,2,1.67,42.74,42.74,0,0,1-3.86,4.1A1.28,1.28,0,0,1,422.83,216.59Zm-60.38-2.91a1.32,1.32,0,0,1-1-.44A44.71,44.71,0,0,1,358,208.8a1.31,1.31,0,1,1,2.17-1.47,40.61,40.61,0,0,0,3.24,4.18,1.3,1.3,0,0,1-.11,1.84A1.27,1.27,0,0,1,362.45,213.68ZM431.59,205a1.33,1.33,0,0,1-.6-.15,1.31,1.31,0,0,1-.56-1.76,39.28,39.28,0,0,0,2.11-4.85,1.31,1.31,0,0,1,2.47.88,43.19,43.19,0,0,1-2.25,5.17A1.31,1.31,0,0,1,431.59,205Zm-76.74-3.69a1.3,1.3,0,0,1-1.22-.83,42.84,42.84,0,0,1-1.74-5.35,1.31,1.31,0,0,1,2.54-.65,40,40,0,0,0,1.63,5,1.31,1.31,0,0,1-.73,1.7A1.36,1.36,0,0,1,354.85,201.34Zm81.06-10.16h-.17a1.31,1.31,0,0,1-1.13-1.47,42.05,42.05,0,0,0,.34-5.28c0-.91,0-1.83-.09-2.73a1.31,1.31,0,1,1,2.61-.17c.06,1,.09,1.94.09,2.9a43.83,43.83,0,0,1-.36,5.62A1.3,1.3,0,0,1,435.91,191.18Zm-84-4a1.3,1.3,0,0,1-1.31-1.26c0-.49,0-1,0-1.46,0-1.39.06-2.8.19-4.17a1.3,1.3,0,0,1,1.43-1.18,1.31,1.31,0,0,1,1.18,1.43c-.12,1.29-.19,2.61-.19,3.92,0,.46,0,.92,0,1.37a1.32,1.32,0,0,1-1.27,1.35ZM434.59,174a1.31,1.31,0,0,1-1.26-1,40.42,40.42,0,0,0-1.8-5,1.31,1.31,0,1,1,2.4-1,43.55,43.55,0,0,1,1.92,5.3,1.31,1.31,0,0,1-.9,1.62A1.49,1.49,0,0,1,434.59,174Zm-80.7-1.18a1.39,1.39,0,0,1-.4-.06,1.32,1.32,0,0,1-.85-1.65,43.94,43.94,0,0,1,2.08-5.24,1.31,1.31,0,0,1,2.36,1.12,40.87,40.87,0,0,0-1.94,4.92A1.31,1.31,0,0,1,353.89,172.78Zm74.32-11.84a1.3,1.3,0,0,1-1.06-.54,43.94,43.94,0,0,0-3.38-4.07,1.31,1.31,0,1,1,1.9-1.8,45.4,45.4,0,0,1,3.6,4.33,1.32,1.32,0,0,1-.29,1.83A1.29,1.29,0,0,1,428.21,160.94Zm-67.55-1a1.26,1.26,0,0,1-.8-.28,1.3,1.3,0,0,1-.24-1.83,45.38,45.38,0,0,1,3.72-4.23,1.31,1.31,0,1,1,1.85,1.86,42.63,42.63,0,0,0-3.5,4A1.31,1.31,0,0,1,360.66,160Zm57.14-9.11a1.27,1.27,0,0,1-.74-.23,41.64,41.64,0,0,0-4.56-2.69,1.31,1.31,0,1,1,1.19-2.33,43.74,43.74,0,0,1,4.85,2.86,1.31,1.31,0,0,1-.74,2.39Zm-46.44-.68a1.31,1.31,0,0,1-.71-2.41,43,43,0,0,1,4.93-2.72,1.31,1.31,0,0,1,1.11,2.37,40.15,40.15,0,0,0-4.63,2.55A1.3,1.3,0,0,1,371.36,150.16Zm33.22-5.3a1.22,1.22,0,0,1-.32,0,40.35,40.35,0,0,0-5.2-1,1.31,1.31,0,0,1-1.14-1.46,1.32,1.32,0,0,1,1.46-1.14,45.62,45.62,0,0,1,5.53,1,1.31,1.31,0,0,1-.33,2.58Zm-19.85-.29a1.29,1.29,0,0,1-1.27-1,1.31,1.31,0,0,1,1-1.57,45,45,0,0,1,5.56-.88,1.33,1.33,0,0,1,1.42,1.19,1.3,1.3,0,0,1-1.18,1.42,40.09,40.09,0,0,0-5.23.83A1.36,1.36,0,0,1,384.73,144.57Z" style="fill:#f94f24"/><path d="M394.06,277.13a1.31,1.31,0,0,1-1.31-1.31v-5.47a1.31,1.31,0,0,1,2.62,0v5.47A1.31,1.31,0,0,1,394.06,277.13Zm0-14.58a1.31,1.31,0,0,1-1.31-1.31v-5.47a1.31,1.31,0,0,1,2.62,0v5.47A1.31,1.31,0,0,1,394.06,262.55Zm0-14.58a1.31,1.31,0,0,1-1.31-1.31V241.2a1.31,1.31,0,0,1,2.62,0v5.46A1.31,1.31,0,0,1,394.06,248Zm0-14.58a1.31,1.31,0,0,1-1.31-1.31v-5.46a1.31,1.31,0,0,1,2.62,0v5.46A1.31,1.31,0,0,1,394.06,233.39Z" style="fill:#f94f24"/><path d="M521.91,351.41h4.66c4.22,0,7.14,2.89,7.14,6.68v0c0,3.79-2.92,6.72-7.14,6.72h-4.66Zm4.66,12a5.2,5.2,0,0,0,5.57-5.28v0a5.23,5.23,0,0,0-5.57-5.31h-3.15v10.63Z" style="fill:#bfa9eb"/><path d="M536.92,351.41h9.71v1.38h-8.19v4.59h7.33v1.38h-7.33v4.7h8.29v1.38h-9.81Z" style="fill:#bfa9eb"/><path d="M549.78,351.41h1.54l4.89,7.33,4.9-7.33h1.54v13.43h-1.52V354l-4.9,7.2h-.07l-4.9-7.18v10.86h-1.48Z" style="fill:#bfa9eb"/><path d="M571.42,351.31h1.42L579,364.84h-1.64l-1.57-3.55h-7.31l-1.6,3.55H565.3Zm3.74,8.62-3-6.85L569,359.93Z" style="fill:#bfa9eb"/><path d="M581.62,351.41H583l8.46,10.76V351.41H593v13.43h-1.21l-8.67-11v11h-1.48Z" style="fill:#bfa9eb"/><path d="M596.79,351.41h4.66c4.22,0,7.14,2.89,7.14,6.68v0c0,3.79-2.92,6.72-7.14,6.72h-4.66Zm4.66,12a5.2,5.2,0,0,0,5.57-5.28v0a5.23,5.23,0,0,0-5.57-5.31H598.3v10.63Z" style="fill:#bfa9eb"/><path d="M521.31,178.46v0a6.77,6.77,0,0,1,6.8-6.95,7,7,0,0,1,5.24,2.13l-1,1.12a5.82,5.82,0,0,0-4.22-1.85,5.27,5.27,0,0,0-5.21,5.51v0a5.31,5.31,0,0,0,5.21,5.55,5.81,5.81,0,0,0,4.33-1.94l1,1a7,7,0,0,1-5.37,2.36A6.7,6.7,0,0,1,521.31,178.46Z" style="fill:#f94f24"/><path d="M535.1,178.46v0a6.85,6.85,0,1,1,13.7,0v0a6.85,6.85,0,1,1-13.7,0Zm12.13,0v0a5.35,5.35,0,0,0-5.3-5.55,5.28,5.28,0,0,0-5.26,5.51v0A5.35,5.35,0,0,0,542,184,5.28,5.28,0,0,0,547.23,178.46Z" style="fill:#f94f24"/><path d="M551,183.18l.94-1.11a6.45,6.45,0,0,0,4.61,1.9c1.8,0,3-1,3-2.29v0c0-1.25-.68-2-3.5-2.56-3.09-.67-4.51-1.67-4.51-3.88v0c0-2.12,1.86-3.67,4.42-3.67a7.05,7.05,0,0,1,4.72,1.65l-.89,1.17a5.86,5.86,0,0,0-3.87-1.46c-1.75,0-2.86,1-2.86,2.17v0c0,1.27.69,2,3.64,2.61s4.38,1.75,4.38,3.8v0c0,2.3-1.92,3.8-4.59,3.8A7.88,7.88,0,0,1,551,183.18Z" style="fill:#f94f24"/><path d="M567.47,173.1H563v-1.4h10.55v1.4H569v12h-1.53Z" style="fill:#f94f24"/><path d="M610.16,414.12h-3.39a1.31,1.31,0,1,1,0-2.62h3.39a1.31,1.31,0,1,1,0,2.62Zm-12.5,0H592.2a1.31,1.31,0,0,1,0-2.62h5.46a1.31,1.31,0,1,1,0,2.62Zm-14.57,0h-5.47a1.31,1.31,0,0,1,0-2.62h5.47a1.31,1.31,0,0,1,0,2.62Zm-14.58,0H563a1.31,1.31,0,1,1,0-2.62h5.47a1.31,1.31,0,1,1,0,2.62Zm-14.58,0h-5.47a1.31,1.31,0,0,1,0-2.62h5.47a1.31,1.31,0,1,1,0,2.62Zm-14.58,0h-5.46a1.31,1.31,0,1,1,0-2.62h5.46a1.31,1.31,0,0,1,0,2.62Zm-14.58,0h-5.46a1.31,1.31,0,1,1,0-2.62h5.46a1.31,1.31,0,1,1,0,2.62Zm-14.57,0h-5.47a1.31,1.31,0,0,1,0-2.62h5.47a1.31,1.31,0,0,1,0,2.62Zm-14.58,0h-5.47a1.31,1.31,0,0,1,0-2.62h5.47a1.31,1.31,0,0,1,0,2.62Zm-14.58,0h-5.47a1.31,1.31,0,0,1,0-2.62H481a1.31,1.31,0,0,1,0,2.62Zm-14.58,0H461a1.31,1.31,0,0,1,0-2.62h5.46a1.31,1.31,0,0,1,0,2.62Zm-14.57,0h-5.47a1.31,1.31,0,0,1,0-2.62h5.47a1.31,1.31,0,0,1,0,2.62Zm-14.58,0h-5.47a1.31,1.31,0,0,1,0-2.62h5.47a1.31,1.31,0,0,1,0,2.62Zm-14.58,0h-5.47a1.31,1.31,0,0,1,0-2.62h5.47a1.31,1.31,0,0,1,0,2.62Zm-14.58,0h-5.46a1.31,1.31,0,0,1,0-2.62h5.46a1.31,1.31,0,0,1,0,2.62Zm-14.58,0h-5.46a1.31,1.31,0,0,1,0-2.62h5.46a1.31,1.31,0,0,1,0,2.62Zm-14.57,0h-5.47a1.31,1.31,0,1,1,0-2.62H379a1.31,1.31,0,0,1,0,2.62Zm-14.58,0H359a1.31,1.31,0,0,1,0-2.62h5.47a1.31,1.31,0,0,1,0,2.62Zm-14.58,0h-5.47a1.31,1.31,0,0,1,0-2.62h5.47a1.31,1.31,0,0,1,0,2.62Zm-14.58,0H329.8a1.31,1.31,0,0,1,0-2.62h5.46a1.31,1.31,0,0,1,0,2.62Zm-14.58,0h-5.46a1.31,1.31,0,0,1,0-2.62h5.46a1.31,1.31,0,0,1,0,2.62Zm-14.57,0h-5.47a1.31,1.31,0,0,1,0-2.62h5.47a1.31,1.31,0,0,1,0,2.62Zm-14.58,0h-5.47a1.31,1.31,0,0,1,0-2.62h5.47a1.31,1.31,0,0,1,0,2.62Zm-14.58,0h-5.47a1.31,1.31,0,0,1,0-2.62H277a1.31,1.31,0,0,1,0,2.62Zm-14.58,0h-5.46a1.31,1.31,0,0,1,0-2.62h5.46a1.31,1.31,0,0,1,0,2.62Zm-14.57,0h-5.47a1.31,1.31,0,0,1,0-2.62h5.47a1.31,1.31,0,0,1,0,2.62Zm-14.58,0h-5.47a1.31,1.31,0,0,1,0-2.62h5.47a1.31,1.31,0,0,1,0,2.62Zm-14.58,0H215v-4.45a1.31,1.31,0,0,1,2.62,0v1.83h1a1.31,1.31,0,0,1,0,2.62Zm-2.34-12.25a1.31,1.31,0,0,1-1.31-1.31V395.1a1.31,1.31,0,0,1,2.62,0v5.46A1.3,1.3,0,0,1,216.3,401.87Zm0-14.57A1.31,1.31,0,0,1,215,386v-5.47a1.31,1.31,0,0,1,2.62,0V386A1.31,1.31,0,0,1,216.3,387.3Zm0-14.58a1.31,1.31,0,0,1-1.31-1.31v-5.47a1.31,1.31,0,0,1,2.62,0v5.47A1.31,1.31,0,0,1,216.3,372.72Zm0-14.58a1.31,1.31,0,0,1-1.31-1.31v-5.47a1.31,1.31,0,0,1,2.62,0v5.47A1.31,1.31,0,0,1,216.3,358.14Zm0-14.58a1.31,1.31,0,0,1-1.31-1.31v-5.46a1.31,1.31,0,0,1,2.62,0v5.46A1.3,1.3,0,0,1,216.3,343.56Zm0-14.58a1.31,1.31,0,0,1-1.31-1.31v-5.46a1.31,1.31,0,0,1,2.62,0v5.46A1.3,1.3,0,0,1,216.3,329Zm0-14.57A1.31,1.31,0,0,1,215,313.1v-5.47a1.31,1.31,0,0,1,2.62,0v5.47A1.31,1.31,0,0,1,216.3,314.41Zm0-14.58a1.31,1.31,0,0,1-1.31-1.31v-5.47a1.31,1.31,0,0,1,2.62,0v5.47A1.31,1.31,0,0,1,216.3,299.83Zm0-14.58a1.31,1.31,0,0,1-1.31-1.31v-5.47a1.31,1.31,0,0,1,2.62,0v5.47A1.31,1.31,0,0,1,216.3,285.25Zm0-14.58a1.31,1.31,0,0,1-1.31-1.31V263.9a1.31,1.31,0,0,1,2.62,0v5.46A1.3,1.3,0,0,1,216.3,270.67Zm0-14.57a1.31,1.31,0,0,1-1.31-1.31v-5.47a1.31,1.31,0,0,1,2.62,0v5.47A1.31,1.31,0,0,1,216.3,256.1Zm0-14.58a1.31,1.31,0,0,1-1.31-1.31v-5.47a1.31,1.31,0,0,1,2.62,0v5.47A1.31,1.31,0,0,1,216.3,241.52Zm0-14.58a1.31,1.31,0,0,1-1.31-1.31v-5.47a1.31,1.31,0,0,1,2.62,0v5.47A1.31,1.31,0,0,1,216.3,226.94Zm0-14.58a1.31,1.31,0,0,1-1.31-1.31v-5.46a1.31,1.31,0,1,1,2.62,0v5.46A1.3,1.3,0,0,1,216.3,212.36Zm0-14.58a1.31,1.31,0,0,1-1.31-1.31V191a1.31,1.31,0,0,1,2.62,0v5.46A1.3,1.3,0,0,1,216.3,197.78Zm0-14.57A1.31,1.31,0,0,1,215,181.9v-5.47a1.31,1.31,0,0,1,2.62,0v5.47A1.31,1.31,0,0,1,216.3,183.21Zm0-14.58a1.31,1.31,0,0,1-1.31-1.31v-5.47a1.31,1.31,0,1,1,2.62,0v5.47A1.31,1.31,0,0,1,216.3,168.63Zm0-14.58a1.31,1.31,0,0,1-1.31-1.31v-5.47a1.31,1.31,0,0,1,2.62,0v5.47A1.31,1.31,0,0,1,216.3,154.05Zm0-14.58a1.31,1.31,0,0,1-1.31-1.31V132.7a1.31,1.31,0,0,1,2.62,0v5.46A1.3,1.3,0,0,1,216.3,139.47Zm0-14.58a1.31,1.31,0,0,1-1.31-1.3v-5.47a1.31,1.31,0,0,1,2.62,0v5.47A1.3,1.3,0,0,1,216.3,124.89Zm0-14.57A1.31,1.31,0,0,1,215,109v-5.47a1.31,1.31,0,0,1,2.62,0V109A1.31,1.31,0,0,1,216.3,110.32Zm0-14.58A1.31,1.31,0,0,1,215,94.43V89a1.31,1.31,0,0,1,2.62,0v5.47A1.31,1.31,0,0,1,216.3,95.74Z" style="fill:url(#b)"/><path d="M406.31,295.11a11.87,11.87,0,1,1-11.87-11.86A11.86,11.86,0,0,1,406.31,295.11Z" style="fill:#fff"/><path d="M394.44,308.29a13.18,13.18,0,1,1,13.18-13.18A13.19,13.19,0,0,1,394.44,308.29Zm0-23.73A10.56,10.56,0,1,0,405,295.11,10.56,10.56,0,0,0,394.44,284.56Z" style="fill:#f94f24"/><path d="M655.68,411.92a15.24,15.24,0,1,1,15.23-15.24A15.26,15.26,0,0,1,655.68,411.92Zm0-25.24a10,10,0,1,0,10,10A10,10,0,0,0,655.68,386.68Z" style="fill:#6731cf"/><path d="M230.6,78.26A15.24,15.24,0,1,1,245.84,63,15.26,15.26,0,0,1,230.6,78.26Zm0-25.24a10,10,0,1,0,10,10A10,10,0,0,0,230.6,53Z" style="fill:#6731cf"/></g></svg>