<svg xmlns="http://www.w3.org/2000/svg" xmlns:xlink="http://www.w3.org/1999/xlink" viewBox="0 0 800 500"><defs><linearGradient id="a" x1="363.49" y1="122.17" x2="457.71" y2="122.17" gradientUnits="userSpaceOnUse"><stop offset="0" stop-color="#8033eb"/><stop offset="1" stop-color="#6731ce"/></linearGradient></defs><title>Artboard 2 copy 15</title><g style="isolation:isolate"><path d="M574.42,197.06A52.11,52.11,0,1,1,522.31,145,52.11,52.11,0,0,1,574.42,197.06Z" style="fill:#f2f2f2"/><path d="M293.72,349.07a26.89,26.89,0,1,1-26.89-26.89A26.89,26.89,0,0,1,293.72,349.07Z" style="fill:#f2f2f2"/><rect x="399.9" y="335.8" width="181.68" height="43.85" rx="20.69" ry="20.69" style="fill:#f2f2f2"/><rect x="239.62" y="206.04" width="181.68" height="43.85" rx="20.69" ry="20.69" style="fill:#f2f2f2"/><path d="M460.52,240.5h0c-1.16,0-2.38-.11-3.62-.24a.88.88,0,1,1,.18-1.76c1.19.12,2.36.19,3.48.22a.89.89,0,0,1,0,1.78Zm56.81,0h-3.55a.89.89,0,0,1,0-1.77h3.55a.89.89,0,1,1,0,1.77Zm-7.1,0h-3.55a.89.89,0,1,1,0-1.77h3.55a.89.89,0,1,1,0,1.77Zm-7.1,0h-3.55a.89.89,0,1,1,0-1.77h3.55a.89.89,0,1,1,0,1.77Zm-7.1,0h-3.55a.89.89,0,1,1,0-1.77H496a.89.89,0,1,1,0,1.77Zm-7.1,0h-3.55a.89.89,0,1,1,0-1.77h3.55a.89.89,0,1,1,0,1.77Zm-7.1,0h-3.55a.89.89,0,1,1,0-1.77h3.55a.89.89,0,1,1,0,1.77Zm-7.1,0h-3.55a.89.89,0,1,1,0-1.77h3.55a.89.89,0,1,1,0,1.77Zm-7.1,0h-3.55a.89.89,0,1,1,0-1.77h3.55a.89.89,0,1,1,0,1.77Zm-14.18-.71-.16,0c-1.2-.21-2.4-.47-3.54-.77a.89.89,0,0,1-.64-1.08.9.9,0,0,1,1.09-.64c1.1.29,2.24.54,3.4.75a.89.89,0,0,1-.15,1.76ZM446.58,238a.79.79,0,0,1-.3-.05,33.25,33.25,0,0,1-3.36-1.43.89.89,0,1,1,.78-1.59,31.63,31.63,0,0,0,3.18,1.35.89.89,0,0,1,.53,1.14A.88.88,0,0,1,446.58,238Zm-6.35-3.14a.88.88,0,0,1-.49-.15,25,25,0,0,1-2.92-2.23.89.89,0,0,1,1.18-1.33,23.79,23.79,0,0,0,2.72,2.08.9.9,0,0,1,.25,1.23A.88.88,0,0,1,440.23,234.82ZM435,230.11a.88.88,0,0,1-.69-.33,21.78,21.78,0,0,1-2.08-3,.89.89,0,1,1,1.54-.88,20.42,20.42,0,0,0,1.92,2.8.89.89,0,0,1-.13,1.25A.91.91,0,0,1,435,230.11ZM431.47,224a.9.9,0,0,1-.84-.58,26.48,26.48,0,0,1-1-3.52.89.89,0,1,1,1.73-.38,22.64,22.64,0,0,0,.95,3.28.88.88,0,0,1-.52,1.14A.89.89,0,0,1,431.47,224Zm-1.5-6.9a.89.89,0,0,1-.89-.82c-.07-.92-.11-1.88-.11-2.85v-.77a.89.89,0,0,1,1.77,0v.77c0,.92,0,1.83.11,2.7a.89.89,0,0,1-.81,1Zm-.12-7.1a.88.88,0,0,1-.88-.89v-3.55a.89.89,0,0,1,1.77,0v3.55A.89.89,0,0,1,429.85,210Zm0-7.1A.88.88,0,0,1,429,202v-3.55a.89.89,0,1,1,1.77,0V202A.89.89,0,0,1,429.85,202.88Zm0-7.1a.88.88,0,0,1-.88-.89v-3.55a.89.89,0,1,1,1.77,0v3.55A.89.89,0,0,1,429.85,195.78Zm0-7.1a.88.88,0,0,1-.88-.89v-3.55a.89.89,0,1,1,1.77,0v3.55A.89.89,0,0,1,429.85,188.68Zm0-7.1a.88.88,0,0,1-.88-.89v-3.55a.89.89,0,1,1,1.77,0v3.55A.89.89,0,0,1,429.85,181.58Zm0-7.1a.88.88,0,0,1-.88-.89V170a.89.89,0,1,1,1.77,0v3.55A.89.89,0,0,1,429.85,174.48Zm0-7.1a.88.88,0,0,1-.88-.89v-3.55a.89.89,0,1,1,1.77,0v3.55A.89.89,0,0,1,429.85,167.38Z" style="fill:#6731cf"/><path d="M370.32,232.12H370a.89.89,0,0,1,0-1.78h.31c1.05,0,2.11,0,3.16-.14a.89.89,0,1,1,.16,1.77C372.54,232.07,371.42,232.12,370.32,232.12Zm-3.86-.05h-3.55a.89.89,0,1,1,0-1.77h3.55a.89.89,0,0,1,0,1.77Zm-7.1,0h-3.55a.89.89,0,1,1,0-1.77h3.55a.89.89,0,0,1,0,1.77Zm-7.11,0H348.7a.89.89,0,0,1,0-1.77h3.55a.89.89,0,1,1,0,1.77Zm-7.1,0H341.6a.89.89,0,0,1,0-1.77h3.55a.89.89,0,1,1,0,1.77Zm-7.1,0H334.5a.89.89,0,0,1,0-1.77h3.55a.89.89,0,1,1,0,1.77Zm-7.1,0H327.4a.89.89,0,1,1,0-1.77H331a.89.89,0,1,1,0,1.77Zm-7.1,0H320.3a.89.89,0,1,1,0-1.77h3.55a.89.89,0,1,1,0,1.77Zm-7.1,0H313.2a.89.89,0,1,1,0-1.77h3.55a.89.89,0,1,1,0,1.77Zm-7.1,0H306.1a.89.89,0,1,1,0-1.77h3.55a.89.89,0,1,1,0,1.77Zm67.43-.57a.89.89,0,0,1-.17-1.76,26.92,26.92,0,0,0,3.33-.86.88.88,0,0,1,1.12.56.87.87,0,0,1-.56,1.12,27,27,0,0,1-3.55.92Zm6.7-2.3a.88.88,0,0,1-.43-1.66A13.44,13.44,0,0,0,386,225.6a.89.89,0,0,1,1.22,1.29,14.58,14.58,0,0,1-3.06,2.2A.8.8,0,0,1,383.78,229.2Zm5-4.85a.86.86,0,0,1-.43-.11A.9.9,0,0,1,388,223a10.45,10.45,0,0,0,1.11-3.06.89.89,0,0,1,1.05-.69.87.87,0,0,1,.69,1,12.57,12.57,0,0,1-1.29,3.57A.9.9,0,0,1,388.82,224.35Zm1.48-6.84a.89.89,0,0,1-.89-.89v-3.55a.89.89,0,0,1,1.78,0v3.55A.89.89,0,0,1,390.3,217.51Zm0-7.1a.89.89,0,0,1-.89-.89V206a.89.89,0,1,1,1.78,0v3.55A.89.89,0,0,1,390.3,210.41Zm0-7.1a.89.89,0,0,1-.89-.89v-3.55a.89.89,0,1,1,1.78,0v3.55A.89.89,0,0,1,390.3,203.31Zm0-7.1a.89.89,0,0,1-.89-.89v-3.55a.89.89,0,1,1,1.78,0v3.55A.89.89,0,0,1,390.3,196.21Zm0-7.11a.88.88,0,0,1-.89-.88v-3.55a.89.89,0,0,1,1.78,0v3.55A.88.88,0,0,1,390.3,189.1Zm0-7.1a.88.88,0,0,1-.89-.88v-3.55a.89.89,0,0,1,1.78,0v3.55A.88.88,0,0,1,390.3,182Zm0-7.1a.88.88,0,0,1-.89-.88v-3.56a.89.89,0,0,1,1.78,0V174A.88.88,0,0,1,390.3,174.9Zm0-7.1a.89.89,0,0,1-.89-.89v-3.55a.89.89,0,0,1,1.78,0v3.55A.89.89,0,0,1,390.3,167.8Z" style="fill:#f94f24"/><path d="M384.57,254.74s4.15,6.06-1.8,12-22.65,18.72-8.63,34.36,76.4,1.26,76.4,1.26,9.34-8.8-3.24-19.68-8.1-26.34-6.56-29.75S398.5,228.54,384.57,254.74Z" style="fill:#ffd000"/><path d="M381.69,245.73s-8.65-47.8,31.81-47.8,30.21,47.8,30.21,47.8-19.6,15.65-31.82,15.65S383.31,252.72,381.69,245.73Z" style="fill:#ffd000"/><path d="M481.31,380.8l-3.89-52.15c.85-26.31-16.79-34.88-16.79-34.88l-28.91-14.89-20.41,5.79v-.13L396.67,281l-13.28,4.81S351.92,297.33,351,320.1l-3.89,60.21h59.31v.49Z" style="fill:#f94f24"/><path d="M397.46,266.75l-3.64,24.51s.21,17.14,19.7,17.14c19.65,0,19.65-18.08,19.65-18.08l-3.41-23.57Z" style="fill:#ffa881"/><path d="M441.43,238.91c0,22-12.51,42-27.93,42s-27.93-20.08-27.93-42,12.5-28.4,27.93-28.4S441.43,217,441.43,238.91Z" style="fill:#ffc1a6"/><path d="M387,246.94s-1.79-6-6.48-2.94-.27,14.2,9.79,15.58S387,246.94,387,246.94Z" style="fill:#ffc1a6"/><path d="M440.09,246.94s1.79-6,6.48-2.94.27,14.2-9.79,15.58S440.09,246.94,440.09,246.94Z" style="fill:#ffc1a6"/><path d="M396.67,272.09A21.83,21.83,0,0,0,414,280.94a19.58,19.58,0,0,0,16.54-8.85l1.95,13.5S407.47,296,396.67,272.09Z" style="fill:#ff9b6e"/><path d="M385.57,243.14s38.45,2.84,52-21.45c0,0-2.18-14.23-26.95-14.23S380.1,228.67,385.57,243.14Z" style="fill:#ffd000"/><path d="M385.57,243.14s38.45,3.55,52-21.45C437.55,221.69,428.1,258.33,385.57,243.14Z" style="fill:#ffa881"/><path d="M364.62,320.1l-12.53-29.42s0-10.71-11-11.8c0,0-5.8-3-10.54-5.17,0,0-5.78.69-1.29,5.17,5.16,5.16,2.37,5.89,2.37,5.89s-10.66-7.4-15.39-15.39c0,0-1.63-2.51-3-1.18s-3.55,12.72,14.8,27.22l11,3,8.8,22.47Z" style="fill:#ffc1a6"/><path d="M457.88,320.1l12.53-29.42s0-10.71,11-11.8c0,0,5.81-3,10.54-5.17,0,0,5.78.69,1.3,5.17-5.16,5.16-2.37,5.89-2.37,5.89s10.65-7.4,15.38-15.39c0,0,1.63-2.51,3-1.18s3.55,12.72-14.79,27.22l-11,3-8.79,22.47Z" style="fill:#ffc1a6"/><path d="M471.17,122.17A60.58,60.58,0,1,1,410.6,61.6,60.57,60.57,0,0,1,471.17,122.17Z" style="fill:#e5e5e5;mix-blend-mode:multiply"/><path d="M457.71,122.17A47.11,47.11,0,1,1,410.6,75.06,47.12,47.12,0,0,1,457.71,122.17Z" style="fill:url(#a)"/><rect x="285.12" y="434.38" width="237.64" height="41.29" style="fill:#5315c9"/><path d="M487.1,391.46V318.21a6,6,0,0,0-5.94-6H340a6,6,0,0,0-5.94,6v73.25Z" style="fill:#b3b3b3"/><path d="M330.46,394.67v7a6.79,6.79,0,0,0,6.72,6.85H484a6.79,6.79,0,0,0,6.72-6.85v-7Z" style="fill:#b3b3b3"/><rect x="334.1" y="320.1" width="152.99" height="75.25" style="fill:#999"/><path d="M402.85,320.1H334.1v68.67Q368.47,354.44,402.85,320.1Z" style="fill:#a6a6a6"/><rect x="334.1" y="393.86" width="152.99" height="1.49" style="fill:#e5e5e5;mix-blend-mode:multiply"/><rect x="334.1" y="320.1" width="152.99" height="1.49" style="fill:#e5e5e5;mix-blend-mode:multiply"/><path d="M359.59,401.58a1.52,1.52,0,0,1-1.52,1.52H351a1.52,1.52,0,0,1-1.52-1.52h0a1.53,1.53,0,0,1,1.52-1.53h7.05a1.53,1.53,0,0,1,1.52,1.53Z" style="fill:gray"/><path d="M481.93,401.58a1.52,1.52,0,0,1-1.52,1.52h-7.05a1.52,1.52,0,0,1-1.52-1.52h0a1.53,1.53,0,0,1,1.52-1.53h7.05a1.53,1.53,0,0,1,1.52,1.53Z" style="fill:gray"/><path d="M370.28,401.58a1.52,1.52,0,0,1-1.52,1.52h0a1.52,1.52,0,0,1-1.52-1.52h0a1.53,1.53,0,0,1,1.52-1.53h0a1.53,1.53,0,0,1,1.52,1.53Z" style="fill:gray"/><path d="M379.45,401.58a1.52,1.52,0,0,1-1.52,1.52h0a1.52,1.52,0,0,1-1.53-1.52h0a1.53,1.53,0,0,1,1.53-1.53h0a1.53,1.53,0,0,1,1.52,1.53Z" style="fill:gray"/><path d="M419.11,359.75a7.94,7.94,0,1,1-7.94-7.94A7.94,7.94,0,0,1,419.11,359.75Z" style="fill:#a6a6a6"/><rect x="264.25" y="408.49" width="281.27" height="25.89" style="fill:#6731cf"/><polygon points="285.12 434.38 522.76 434.38 522.76 469.83 285.12 434.38" style="fill:#5315b4"/><path d="M319.73,352.7h-3.56a.89.89,0,0,1,0-1.78h3.56a.89.89,0,0,1,0,1.78Zm-7.11,0h-3.55a.89.89,0,0,1,0-1.78h3.55a.89.89,0,0,1,0,1.78Zm-7.1,0H302a.89.89,0,0,1,0-1.78h3.55a.89.89,0,0,1,0,1.78Zm-7.1,0h-3.55a.89.89,0,0,1,0-1.78h3.55a.89.89,0,0,1,0,1.78Zm-7.1,0h-3.55a.89.89,0,0,1,0-1.78h3.55a.89.89,0,0,1,0,1.78Zm-7.1,0h-3.55a.89.89,0,1,1,0-1.78h3.55a.89.89,0,0,1,0,1.78Zm-7.1,0H277a21,21,0,0,1-3.65-.71.88.88,0,0,1-.61-1.1.89.89,0,0,1,1.1-.61,18.8,18.8,0,0,0,3.33.65.89.89,0,0,1-.08,1.77Zm-6.82-1.93a.85.85,0,0,1-.38-.09,19.43,19.43,0,0,1-3.19-1.89.88.88,0,1,1,1-1.43,18.72,18.72,0,0,0,2.91,1.72.89.89,0,0,1-.38,1.69Zm-5.7-4.16a.87.87,0,0,1-.65-.29,18.74,18.74,0,0,1-2.23-3,.88.88,0,1,1,1.51-.92,17.25,17.25,0,0,0,2,2.69.88.88,0,0,1-.06,1.25A.86.86,0,0,1,264.6,346.57Zm-3.68-6a.87.87,0,0,1-.82-.57,22.82,22.82,0,0,1-1-3.52.89.89,0,1,1,1.73-.38,23.05,23.05,0,0,0,1,3.27.89.89,0,0,1-.51,1.15A.86.86,0,0,1,260.92,340.55Zm-1.51-6.9a.89.89,0,0,1-.89-.81c-.08-1-.12-2-.12-3v-.62a.89.89,0,1,1,1.77,0v.62q0,1.47.12,2.85a.89.89,0,0,1-.81,1Zm-.12-7.09a.89.89,0,0,1-.89-.89v-3.55a.89.89,0,1,1,1.77,0v3.55A.88.88,0,0,1,259.29,326.56Zm0-7.1a.89.89,0,0,1-.89-.89V315a.89.89,0,1,1,1.77,0v3.55A.88.88,0,0,1,259.29,319.46Zm0-7.1a.89.89,0,0,1-.89-.89v-3.55a.89.89,0,1,1,1.77,0v3.55A.88.88,0,0,1,259.29,312.36Zm0-7.1a.89.89,0,0,1-.89-.89v-3.55a.89.89,0,1,1,1.77,0v3.55A.88.88,0,0,1,259.29,305.26Zm0-7.1a.89.89,0,0,1-.89-.89v-3.55a.89.89,0,1,1,1.77,0v3.55A.88.88,0,0,1,259.29,298.16Zm0-7.11a.88.88,0,0,1-.89-.88v-3.55a.89.89,0,1,1,1.77,0v3.55A.87.87,0,0,1,259.29,291.05Zm0-7.1a.88.88,0,0,1-.89-.88v-3.56a.89.89,0,0,1,1.77,0v3.56A.87.87,0,0,1,259.29,284Zm0-7.1a.88.88,0,0,1-.89-.89v-3.55a.89.89,0,0,1,1.77,0V276A.88.88,0,0,1,259.29,276.85Zm0-7.1a.89.89,0,0,1-.89-.89v-3.55a.89.89,0,0,1,1.77,0v3.55A.88.88,0,0,1,259.29,269.75Zm0-7.1a.89.89,0,0,1-.89-.89v-3.55a.89.89,0,0,1,1.77,0v3.55A.88.88,0,0,1,259.29,262.65Zm0-7.1a.89.89,0,0,1-.89-.89v-3.55a.89.89,0,1,1,1.77,0v3.55A.88.88,0,0,1,259.29,255.55Zm0-7.1a.89.89,0,0,1-.89-.89V244a.89.89,0,1,1,1.77,0v3.55A.88.88,0,0,1,259.29,248.45Zm0-7.1a.89.89,0,0,1-.89-.89v-3.55a.89.89,0,1,1,1.77,0v3.55A.88.88,0,0,1,259.29,241.35Zm0-7.1a.89.89,0,0,1-.89-.89v-3.55a.89.89,0,1,1,1.77,0v3.55A.88.88,0,0,1,259.29,234.25Zm0-7.1a.89.89,0,0,1-.89-.89v-3.55a.89.89,0,1,1,1.77,0v3.55A.88.88,0,0,1,259.29,227.15Zm0-7.1a.89.89,0,0,1-.89-.89v-2.94s0-.26,0-.68a.92.92,0,0,1,.95-.83.89.89,0,0,1,.82.95c0,.37,0,.57,0,.58v2.92A.88.88,0,0,1,259.29,220.05Zm.49-7.1h-.16a.9.9,0,0,1-.72-1c.22-1.19.49-2.38.81-3.55a.89.89,0,1,1,1.71.47c-.31,1.12-.57,2.26-.77,3.39A.89.89,0,0,1,259.78,213Zm1.88-6.85a.85.85,0,0,1-.31-.06.88.88,0,0,1-.52-1.14,34.76,34.76,0,0,1,1.47-3.34.89.89,0,1,1,1.58.8c-.5,1-1,2.07-1.39,3.17A.89.89,0,0,1,261.66,206.1Zm3.21-6.33a.87.87,0,0,1-.49-.14.9.9,0,0,1-.26-1.23,29.17,29.17,0,0,1,2.21-2.93.89.89,0,1,1,1.34,1.16,27,27,0,0,0-2.06,2.75A.91.91,0,0,1,264.87,199.77Zm4.62-5.35a.93.93,0,0,1-.67-.3.9.9,0,0,1,.08-1.26,29.9,29.9,0,0,1,2.91-2.23.9.9,0,0,1,1.23.26.89.89,0,0,1-.25,1.23,23.67,23.67,0,0,0-2.71,2.07A.89.89,0,0,1,269.49,194.42Zm5.9-3.89a.89.89,0,0,1-.38-1.69,28.83,28.83,0,0,1,3.39-1.35.88.88,0,0,1,1.12.57.89.89,0,0,1-.57,1.12,27,27,0,0,0-3.18,1.26A.85.85,0,0,1,275.39,190.53Zm6.71-2.2a.89.89,0,0,1-.17-1.76c1.16-.23,2.37-.41,3.59-.53a.89.89,0,1,1,.17,1.77,33.7,33.7,0,0,0-3.41.5Zm74.5-.52h0c-1.49,0-2.52-.15-2.77-.18h-.76a.89.89,0,0,1,0-1.77H354s1,.14,2.64.18a.89.89,0,0,1,0,1.77Zm3.55-.09a.88.88,0,0,1-.88-.82.89.89,0,0,1,.82-1,27.25,27.25,0,0,0,3.41-.46.89.89,0,0,1,.35,1.75,31.2,31.2,0,0,1-3.63.48Zm-71-.09a.89.89,0,1,1,0-1.77h3.56a.89.89,0,1,1,0,1.77Zm60.35,0H346a.89.89,0,0,1,0-1.77h3.55a.89.89,0,1,1,0,1.77Zm-7.1,0h-3.55a.89.89,0,0,1,0-1.77h3.55a.89.89,0,1,1,0,1.77Zm-7.1,0h-3.55a.89.89,0,0,1,0-1.77h3.55a.89.89,0,1,1,0,1.77Zm-7.1,0h-3.55a.89.89,0,1,1,0-1.77h3.55a.89.89,0,1,1,0,1.77Zm-7.1,0h-3.55a.89.89,0,1,1,0-1.77h3.55a.89.89,0,1,1,0,1.77Zm-7.1,0h-3.55a.89.89,0,1,1,0-1.77H314a.89.89,0,1,1,0,1.77Zm-7.1,0h-3.55a.89.89,0,1,1,0-1.77h3.55a.89.89,0,1,1,0,1.77Zm-7.1,0h-3.55a.89.89,0,1,1,0-1.77h3.55a.89.89,0,1,1,0,1.77Zm67.29-1.33a.89.89,0,0,1-.31-1.72,14.66,14.66,0,0,0,3-1.5.89.89,0,1,1,1,1.48,16.39,16.39,0,0,1-3.35,1.68A.81.81,0,0,1,367.09,186.3Zm5.79-4a.9.9,0,0,1-.56-.19.89.89,0,0,1-.13-1.25,9.89,9.89,0,0,0,1.58-2.82.9.9,0,0,1,1.14-.54.89.89,0,0,1,.53,1.14,11.48,11.48,0,0,1-1.87,3.33A.87.87,0,0,1,372.88,182.34Zm2.45-6.53h-.07a.89.89,0,0,1-.81-1c0-.39,0-.79,0-1.21v-2.27a.89.89,0,0,1,1.78,0v2.27c0,.47,0,.92,0,1.35A.89.89,0,0,1,375.33,175.81Zm.05-7.1a.89.89,0,0,1-.89-.89v-3.55a.89.89,0,1,1,1.78,0v3.55A.89.89,0,0,1,375.38,168.71Zm0-7.1a.89.89,0,0,1-.89-.89v-1.58a.89.89,0,0,1,1.78,0v1.58A.89.89,0,0,1,375.38,161.61Z" style="fill:#f94f24"/><path d="M309.16,313h-3.55a.89.89,0,1,1,0-1.77h3.55a.89.89,0,1,1,0,1.77Zm-7.1,0h-3.55a.89.89,0,1,1,0-1.77h3.55a.89.89,0,1,1,0,1.77Zm-7.1,0h-3.55a.89.89,0,1,1,0-1.77H295a.89.89,0,1,1,0,1.77Zm-7.1,0h-3.55a.89.89,0,1,1,0-1.77h3.55a.89.89,0,1,1,0,1.77Zm-7.1,0h-3.55a.89.89,0,1,1,0-1.77h3.55a.89.89,0,1,1,0,1.77Zm-7.1,0h-3.55a.89.89,0,1,1,0-1.77h3.55a.89.89,0,1,1,0,1.77Zm-7.1,0H263a.89.89,0,1,1,0-1.77h3.55a.89.89,0,0,1,0,1.77Zm-7.1,0h-3.55a.89.89,0,1,1,0-1.77h3.55a.89.89,0,0,1,0,1.77Zm-7.1,0H248.8a.89.89,0,0,1,0-1.77h3.56a.89.89,0,0,1,0,1.77Zm-7.11,0h-1.58a16.78,16.78,0,0,1-2.09-.17.89.89,0,0,1,.24-1.76,17.42,17.42,0,0,0,1.85.16h1.58a.89.89,0,1,1,0,1.77Zm-7-.92a.73.73,0,0,1-.25,0,22.53,22.53,0,0,1-3.44-1.34.89.89,0,0,1,.78-1.6,20.07,20.07,0,0,0,3.17,1.24.89.89,0,0,1-.26,1.74ZM231.89,309a.87.87,0,0,1-.53-.18,18.25,18.25,0,0,1-2.74-2.52.9.9,0,0,1,.08-1.26.89.89,0,0,1,1.25.08,16.7,16.7,0,0,0,2.47,2.28.88.88,0,0,1,.18,1.24A.86.86,0,0,1,231.89,309Zm-4.65-5.28a.9.9,0,0,1-.78-.45,20.67,20.67,0,0,1-1.51-3.38.88.88,0,0,1,.55-1.13.89.89,0,0,1,1.13.55,17.18,17.18,0,0,0,1.38,3.08.89.89,0,0,1-.34,1.21A.85.85,0,0,1,227.24,303.7ZM224.91,297a.89.89,0,0,1-.87-.74,27.61,27.61,0,0,1-.4-3.63.89.89,0,0,1,.84-.93.91.91,0,0,1,.93.85,28,28,0,0,0,.37,3.41.87.87,0,0,1-.72,1Zm-.42-7.07a.89.89,0,0,1-.89-.89v-3.55a.89.89,0,1,1,1.78,0v3.55A.89.89,0,0,1,224.49,290Zm0-7.11a.89.89,0,0,1-.89-.89v-3.55a.89.89,0,1,1,1.78,0V282A.89.89,0,0,1,224.49,282.86Zm0-7.1a.89.89,0,0,1-.89-.89v-3.56a.89.89,0,0,1,1.78,0v3.56A.89.89,0,0,1,224.49,275.76Zm0-7.11a.89.89,0,0,1-.89-.89v-3.55a.89.89,0,1,1,1.78,0v3.55A.89.89,0,0,1,224.49,268.65Zm0-7.11a.89.89,0,0,1-.89-.89V257.1a.89.89,0,1,1,1.78,0v3.55A.89.89,0,0,1,224.49,261.54Zm0-7.11a.89.89,0,0,1-.89-.89V250a.89.89,0,0,1,1.78,0v3.55A.89.89,0,0,1,224.49,254.43Zm.08-7.11-.19,0a.89.89,0,0,1-.68-1.05,24.29,24.29,0,0,1,1.06-3.54.89.89,0,0,1,1.14-.52.9.9,0,0,1,.52,1.15,22.52,22.52,0,0,0-1,3.27A.9.9,0,0,1,224.57,247.32Zm2.5-6.64a1,1,0,0,1-.43-.11.89.89,0,0,1-.35-1.2,21.65,21.65,0,0,1,2-3.09.88.88,0,0,1,1.4,1.08,22,22,0,0,0-1.86,2.86A.9.9,0,0,1,227.07,240.68Zm4.36-5.57a.92.92,0,0,1-.67-.29.9.9,0,0,1,.08-1.26,17.74,17.74,0,0,1,3-2.18.89.89,0,1,1,.89,1.53,16.28,16.28,0,0,0-2.72,2A.88.88,0,0,1,231.43,235.11Zm6.09-3.54a.88.88,0,0,1-.84-.6.89.89,0,0,1,.55-1.13,20.2,20.2,0,0,1,3.61-.84.88.88,0,0,1,.25,1.75,18.36,18.36,0,0,0-3.29.78A.9.9,0,0,1,237.52,231.57Zm43.11-1H280a.89.89,0,1,1,0-1.77h.63a.89.89,0,0,1,0,1.77Zm-4.18,0H272.9a.89.89,0,1,1,0-1.77h3.55a.89.89,0,1,1,0,1.77Zm-7.1,0H265.8a.89.89,0,1,1,0-1.77h3.55a.89.89,0,1,1,0,1.77Zm-7.1,0H258.7a.89.89,0,1,1,0-1.77h3.55a.89.89,0,1,1,0,1.77Zm-7.1,0H251.6a.89.89,0,1,1,0-1.77h3.55a.89.89,0,1,1,0,1.77Zm-7.1,0H244.5a.89.89,0,1,1,0-1.77h3.55a.89.89,0,1,1,0,1.77Z" style="fill:#f94f24"/><path d="M295.42,242.82a.88.88,0,0,1-.12-1.76,11.52,11.52,0,0,0,3.15-.92.89.89,0,1,1,.74,1.62,13.21,13.21,0,0,1-3.64,1.05Zm-3.53,0h-.13a13.27,13.27,0,0,1-3.64-1.08.9.9,0,0,1-.43-1.18.88.88,0,0,1,1.18-.43A11.54,11.54,0,0,0,292,241a.89.89,0,0,1-.13,1.77Zm9.91-2.88a.87.87,0,0,1-.67-.31.89.89,0,0,1,.09-1.25,11.6,11.6,0,0,0,2.16-2.48.89.89,0,0,1,1.23-.26.88.88,0,0,1,.26,1.22,13.07,13.07,0,0,1-2.49,2.86A.86.86,0,0,1,301.8,239.93Zm-16.27-.06a.88.88,0,0,1-.58-.22,13.31,13.31,0,0,1-2.47-2.88.89.89,0,0,1,1.5-1,11.33,11.33,0,0,0,2.14,2.49.9.9,0,0,1,.08,1.26A.87.87,0,0,1,285.53,239.87Zm20.07-5.82a.69.69,0,0,1-.25,0,.88.88,0,0,1-.6-1.1,11.5,11.5,0,0,0,.46-3.25.89.89,0,1,1,1.78,0,13.18,13.18,0,0,1-.54,3.75A.89.89,0,0,1,305.6,234.05ZM281.78,234a.89.89,0,0,1-.85-.65,13.19,13.19,0,0,1-.51-3.65.94.94,0,0,1,.89-.94h0a.84.84,0,0,1,.88.84,11.78,11.78,0,0,0,.44,3.26.88.88,0,0,1-.6,1.1A.77.77,0,0,1,281.78,234Zm23.87-6.73a.89.89,0,0,1-.85-.65,11.42,11.42,0,0,0-1.33-3,.89.89,0,0,1,1.51-.94,13.44,13.44,0,0,1,1.53,3.47.89.89,0,0,1-.62,1.09A.67.67,0,0,1,305.65,227.23ZM281.84,227a.75.75,0,0,1-.26,0,.87.87,0,0,1-.59-1.1,13,13,0,0,1,1.6-3.44.89.89,0,0,1,1.49,1,11,11,0,0,0-1.39,3A.88.88,0,0,1,281.84,227Zm20.1-5.67a.88.88,0,0,1-.59-.22,11.57,11.57,0,0,0-2.73-1.81.89.89,0,1,1,.76-1.61,13.48,13.48,0,0,1,3.15,2.09.9.9,0,0,1,.08,1.26A.92.92,0,0,1,301.94,221.28Zm-16.26-.18a.92.92,0,0,1-.68-.31.9.9,0,0,1,.1-1.26,13.57,13.57,0,0,1,3.21-2,.89.89,0,0,1,.72,1.63,11.22,11.22,0,0,0-2.78,1.75A.89.89,0,0,1,285.68,221.1Zm9.93-2.81h-.13a11.7,11.7,0,0,0-3.29,0,.88.88,0,0,1-1-.77.87.87,0,0,1,.76-1,13.37,13.37,0,0,1,3.79,0,.89.89,0,0,1-.14,1.76Z" style="fill:#f94f24"/><path d="M518.52,350a.89.89,0,0,1,0-1.78h1.15a16.63,16.63,0,0,0,2.17-.37.89.89,0,0,1,1.07.66.87.87,0,0,1-.66,1.06,18.78,18.78,0,0,1-2.52.43ZM515,350h-3.55a.89.89,0,1,1,0-1.78H515a.89.89,0,0,1,0,1.78Zm-7.1,0h-3.55a.89.89,0,0,1,0-1.78h3.55a.89.89,0,0,1,0,1.78Zm-7.1,0h-3.55a.89.89,0,1,1,0-1.78h3.55a.89.89,0,0,1,0,1.78Zm24.65-1.53a.89.89,0,0,1-.36-1.7,15.54,15.54,0,0,0,2.91-1.67.89.89,0,0,1,1.24.19.9.9,0,0,1-.19,1.25,18,18,0,0,1-3.24,1.86A.92.92,0,0,1,525.42,348.43Zm5.64-4.2a.86.86,0,0,1-.56-.2.89.89,0,0,1-.13-1.25,12.41,12.41,0,0,0,1.71-2.82.88.88,0,0,1,1.62.71,13.76,13.76,0,0,1-2,3.23A.88.88,0,0,1,531.06,344.23Zm2.84-6.41h-.16a.9.9,0,0,1-.72-1,17.68,17.68,0,0,0,.27-3.15v-.23a.89.89,0,1,1,1.77,0v.23a20.27,20.27,0,0,1-.29,3.46A.88.88,0,0,1,533.9,337.82Zm.27-7.08a.88.88,0,0,1-.88-.89V326.3a.89.89,0,1,1,1.77,0v3.55A.89.89,0,0,1,534.17,330.74Zm0-7.1a.88.88,0,0,1-.88-.89V319.2a.89.89,0,1,1,1.77,0v3.55A.89.89,0,0,1,534.17,323.64Zm0-7.1a.88.88,0,0,1-.88-.89V312.1a.89.89,0,1,1,1.77,0v3.55A.89.89,0,0,1,534.17,316.54Zm0-7.1a.88.88,0,0,1-.88-.89v-.13a6.5,6.5,0,0,1,0-.81,14.13,14.13,0,0,1,.27-2.77.89.89,0,0,1,1.74.34,12.6,12.6,0,0,0-.24,2.43c0,.43,0,.69,0,.71v.23A.89.89,0,0,1,534.17,309.44Zm1.4-6.88a.8.8,0,0,1-.42-.11.88.88,0,0,1-.35-1.2,10,10,0,0,1,2.48-3,.89.89,0,0,1,1.11,1.39,8.2,8.2,0,0,0-2,2.44A.89.89,0,0,1,535.57,302.56Zm5.38-4.35a.89.89,0,0,1-.27-1.73,15,15,0,0,1,3.7-.66.91.91,0,0,1,.94.84.88.88,0,0,1-.83.93,13.5,13.5,0,0,0-3.27.58A.84.84,0,0,1,541,298.21Zm24.79-.65h-3.55a.89.89,0,1,1,0-1.77h3.55a.89.89,0,0,1,0,1.77Zm-7.11,0h-3.55a.89.89,0,0,1,0-1.77h3.55a.89.89,0,1,1,0,1.77Zm-7.1,0H548a.89.89,0,0,1,0-1.77h3.55a.89.89,0,1,1,0,1.77Zm17.76-.08a.89.89,0,0,1-.88-.81.88.88,0,0,1,.8-1,20.22,20.22,0,0,0,3.35-.6.89.89,0,0,1,1.09.63.9.9,0,0,1-.63,1.09,21.46,21.46,0,0,1-3.64.64Zm6.82-1.88a.88.88,0,0,1-.79-.49.87.87,0,0,1,.38-1.19,11.65,11.65,0,0,0,2.69-1.89.88.88,0,0,1,1.25,0,.88.88,0,0,1,0,1.25,12.87,12.87,0,0,1-3.1,2.19A1,1,0,0,1,576.11,295.6Zm5-4.87a.85.85,0,0,1-.4-.1.88.88,0,0,1-.39-1.19,10.58,10.58,0,0,0,1-3.11.89.89,0,0,1,1.76.29,12.8,12.8,0,0,1-1.16,3.62A.88.88,0,0,1,581.1,290.73Zm1.26-6.9a.89.89,0,0,1-.89-.89v-3.55a.89.89,0,0,1,1.78,0v3.55A.89.89,0,0,1,582.36,283.83Zm0-7.1a.89.89,0,0,1-.89-.89v-3.55a.89.89,0,0,1,1.78,0v3.55A.89.89,0,0,1,582.36,276.73Zm0-7.1a.89.89,0,0,1-.89-.89v-3.55a.89.89,0,0,1,1.78,0v3.55A.89.89,0,0,1,582.36,269.63Zm0-7.1a.89.89,0,0,1-.89-.89v-3.55a.89.89,0,0,1,1.78,0v3.55A.89.89,0,0,1,582.36,262.53Zm0-7.11a.88.88,0,0,1-.89-.88V251a.89.89,0,1,1,1.78,0v3.55A.88.88,0,0,1,582.36,255.42Zm0-7.1a.88.88,0,0,1-.89-.88v-3.55a.89.89,0,0,1,1.78,0v3.55A.88.88,0,0,1,582.36,248.32Zm0-7.1a.88.88,0,0,1-.89-.88v-3.55a.89.89,0,0,1,1.78,0v3.55A.88.88,0,0,1,582.36,241.22Zm0-7.1a.89.89,0,0,1-.89-.89v-3.55a.89.89,0,0,1,1.78,0v3.55A.89.89,0,0,1,582.36,234.12Zm0-7.1a.89.89,0,0,1-.89-.89v-3.55a.89.89,0,0,1,1.78,0v3.55A.89.89,0,0,1,582.36,227Zm-.3-7.1a.89.89,0,0,1-.88-.73,26.29,26.29,0,0,0-.8-3.35.89.89,0,0,1,1.7-.53,28.45,28.45,0,0,1,.85,3.57.88.88,0,0,1-.72,1ZM580,213.14a.88.88,0,0,1-.81-.52,25.67,25.67,0,0,0-1.63-3,.89.89,0,0,1,.27-1.22.9.9,0,0,1,1.23.27,27.75,27.75,0,0,1,1.74,3.23.88.88,0,0,1-.44,1.18A.94.94,0,0,1,580,213.14Zm-3.8-6a.88.88,0,0,1-.67-.31,22.94,22.94,0,0,0-2.42-2.41.89.89,0,0,1,1.16-1.35,24.55,24.55,0,0,1,2.6,2.6.89.89,0,0,1-.09,1.25A.88.88,0,0,1,576.18,207.17Zm-5.36-4.61a.92.92,0,0,1-.47-.14,25.47,25.47,0,0,0-3-1.62.89.89,0,0,1,.73-1.62,26.82,26.82,0,0,1,3.22,1.74.89.89,0,0,1-.47,1.64Zm-6.43-2.94a.85.85,0,0,1-.26-.05,33.26,33.26,0,0,0-3.34-.85.89.89,0,0,1-.7-1,.9.9,0,0,1,1-.7c1.21.25,2.4.55,3.52.9a.88.88,0,0,1,.58,1.11A.9.9,0,0,1,564.39,199.62Zm-6.93-1.41h-.09c-1.12-.12-2.29-.2-3.47-.23a.89.89,0,0,1,0-1.78h0c1.23,0,2.44.12,3.61.24a.89.89,0,0,1-.1,1.78ZM462.27,198h-.68a.88.88,0,0,1-.86-.91.91.91,0,0,1,.9-.87,15.49,15.49,0,0,0,1.91,0h1.62a.89.89,0,0,1,0,1.78h-1.53S463.12,198,462.27,198Zm88.11,0h-3.55a.89.89,0,0,1,0-1.78h3.55a.89.89,0,0,1,0,1.78Zm-7.11,0h-3.55a.89.89,0,0,1,0-1.78h3.55a.89.89,0,0,1,0,1.78Zm-7.1,0h-3.55a.89.89,0,0,1,0-1.78h3.55a.89.89,0,0,1,0,1.78Zm-7.1,0h-3.55a.89.89,0,0,1,0-1.78h3.55a.89.89,0,0,1,0,1.78Zm-7.1,0h-3.55a.89.89,0,0,1,0-1.78H522a.89.89,0,0,1,0,1.78Zm-7.1,0h-3.55a.89.89,0,0,1,0-1.78h3.55a.89.89,0,0,1,0,1.78Zm-7.1,0h-3.55a.89.89,0,1,1,0-1.78h3.55a.89.89,0,1,1,0,1.78Zm-7.1,0h-3.55a.89.89,0,0,1,0-1.78h3.55a.89.89,0,0,1,0,1.78Zm-7.1,0H490a.89.89,0,0,1,0-1.78h3.55a.89.89,0,0,1,0,1.78Zm-7.1,0h-3.55a.89.89,0,1,1,0-1.78h3.55a.89.89,0,0,1,0,1.78Zm-7.1,0h-3.55a.89.89,0,0,1,0-1.78h3.55a.89.89,0,0,1,0,1.78Zm-7.1,0h-3.55a.89.89,0,1,1,0-1.78h3.55a.89.89,0,0,1,0,1.78Zm-14.19-.33h-.16a22,22,0,0,1-3.57-.94.89.89,0,0,1,.59-1.67,19.82,19.82,0,0,0,3.29.86.89.89,0,0,1-.15,1.76Zm-6.64-2.41a.86.86,0,0,1-.46-.14,15.25,15.25,0,0,1-3-2.32.88.88,0,0,1,0-1.25.88.88,0,0,1,1.25,0,13.86,13.86,0,0,0,2.61,2.06.89.89,0,0,1,.3,1.22A.91.91,0,0,1,451.44,195.21Zm-4.93-5a.88.88,0,0,1-.76-.44,16.27,16.27,0,0,1-1.51-3.42.89.89,0,1,1,1.69-.53,15,15,0,0,0,1.35,3.05.91.91,0,0,1-.32,1.22A.92.92,0,0,1,446.51,190.21Zm-2.18-6.7a.89.89,0,0,1-.88-.77,27.6,27.6,0,0,1-.21-3.46v-.19a.89.89,0,1,1,1.78,0v.19a25.74,25.74,0,0,0,.19,3.23.87.87,0,0,1-.76,1Zm-.2-7.09a.88.88,0,0,1-.89-.88V172a.89.89,0,1,1,1.78,0v3.55A.88.88,0,0,1,444.13,176.42Zm0-7.1a.89.89,0,0,1-.89-.89v-3.55a.89.89,0,0,1,1.78,0v3.55A.89.89,0,0,1,444.13,169.32Z" style="fill:#6731cf"/><path d="M544.23,324.7h-3.56a.89.89,0,0,1,0-1.78h3.56a.89.89,0,0,1,0,1.78Zm-7.11,0h-3.55a.89.89,0,0,1,0-1.78h3.55a.89.89,0,1,1,0,1.78Zm-7.1,0h-3.55a.89.89,0,0,1,0-1.78H530a.89.89,0,0,1,0,1.78Zm-7.1,0h-3.55a.89.89,0,0,1,0-1.78h3.55a.89.89,0,1,1,0,1.78Zm-7.1,0h-3.55a.89.89,0,0,1,0-1.78h3.55a.89.89,0,1,1,0,1.78Zm-7.1,0h-3.55a.89.89,0,1,1,0-1.78h3.55a.89.89,0,0,1,0,1.78Zm39.06,0a.89.89,0,0,1,0-1.77,29.08,29.08,0,0,0,3.42-.38.88.88,0,0,1,1,.72.9.9,0,0,1-.72,1,30.87,30.87,0,0,1-3.65.4Zm7-1.27a.89.89,0,0,1-.29-1.72,15.37,15.37,0,0,0,3-1.43.88.88,0,1,1,.95,1.49,16,16,0,0,1-3.38,1.61A.79.79,0,0,1,554.75,323.41Zm5.85-3.86a.88.88,0,0,1-.69-1.44,8.35,8.35,0,0,0,1.47-2.82.89.89,0,0,1,1.7.51,10.09,10.09,0,0,1-1.79,3.42A.87.87,0,0,1,560.6,319.55Zm2.11-6.61a.89.89,0,0,1-.89-.89V308.5a.89.89,0,0,1,1.78,0v3.55A.89.89,0,0,1,562.71,312.94Zm0-7.11a.88.88,0,0,1-.89-.88V301.4a.89.89,0,1,1,1.78,0V305A.88.88,0,0,1,562.71,305.83Zm0-7.1a.88.88,0,0,1-.89-.88V294.3a.89.89,0,1,1,1.78,0v3.55A.88.88,0,0,1,562.71,298.73Zm0-7.1a.88.88,0,0,1-.89-.88V287.2a.89.89,0,1,1,1.78,0v3.55A.88.88,0,0,1,562.71,291.63Zm0-7.1a.89.89,0,0,1-.89-.89v-3.55a.89.89,0,0,1,1.78,0v3.55A.89.89,0,0,1,562.71,284.53Zm0-7.1a.89.89,0,0,1-.89-.89V273a.89.89,0,0,1,1.78,0v3.55A.89.89,0,0,1,562.71,277.43Zm0-7.1a.89.89,0,0,1-.89-.89v-3.55a.89.89,0,1,1,1.78,0v3.55A.89.89,0,0,1,562.71,270.33Zm0-7.1a.89.89,0,0,1-.89-.89v-2.67c0-.06,0-.29,0-.7v-.17a.88.88,0,0,1,.87-.9h0a.89.89,0,0,1,.89.88V259c0,.48,0,.76,0,.76v2.61A.89.89,0,0,1,562.71,263.23Zm-.26-7.1a.9.9,0,0,1-.88-.76,25.29,25.29,0,0,0-.7-3.36.88.88,0,1,1,1.7-.49,25.79,25.79,0,0,1,.76,3.6.88.88,0,0,1-.75,1Zm-2-6.8a.89.89,0,0,1-.8-.5,16,16,0,0,0-1.75-2.87.9.9,0,0,1,.17-1.25.89.89,0,0,1,1.24.17,17.08,17.08,0,0,1,1.94,3.18.88.88,0,0,1-.41,1.18A.92.92,0,0,1,560.47,249.33Zm-4.32-5.55a.86.86,0,0,1-.55-.19,14,14,0,0,0-2.84-1.71.89.89,0,1,1,.72-1.62,15.4,15.4,0,0,1,3.22,1.94.89.89,0,0,1,.14,1.25A.87.87,0,0,1,556.15,243.78Zm-6.4-2.89h-.18a20,20,0,0,0-3.37-.38.89.89,0,0,1,0-1.77,20.4,20.4,0,0,1,3.67.41.88.88,0,0,1-.17,1.75Zm-7.07-.4h-3.55a.89.89,0,1,1,0-1.77h3.55a.89.89,0,1,1,0,1.77Z" style="fill:#6731cf"/><path d="M527.62,250.78a10.81,10.81,0,0,1-1.7-.13.88.88,0,1,1,.26-1.75,9.45,9.45,0,0,0,3.23-.06.89.89,0,0,1,.34,1.74A11.56,11.56,0,0,1,527.62,250.78Zm-4.92-1.25a.8.8,0,0,1-.42-.11,11.14,11.14,0,0,1-3-2.38.89.89,0,1,1,1.32-1.18,9.84,9.84,0,0,0,2.53,2,.88.88,0,0,1-.43,1.66Zm10.18-.19a.88.88,0,0,1-.76-.43.89.89,0,0,1,.31-1.22,9.48,9.48,0,0,0,2.45-2.1.89.89,0,1,1,1.37,1.13,11.45,11.45,0,0,1-2.91,2.5A.93.93,0,0,1,532.88,249.34Zm-14.8-5a.89.89,0,0,1-.83-.56,11.24,11.24,0,0,1-.8-3.75.89.89,0,0,1,.86-.92.88.88,0,0,1,.92.85,9.26,9.26,0,0,0,.67,3.16.89.89,0,0,1-.49,1.15A.78.78,0,0,1,518.08,244.34Zm19.23-.37a.79.79,0,0,1-.3-.05.88.88,0,0,1-.53-1.13,9.55,9.55,0,0,0,.55-3.19c0-.23,0-.47,0-.71a.89.89,0,0,1,.82-.95.87.87,0,0,1,.95.82q0,.42,0,.84a11.25,11.25,0,0,1-.65,3.78A.88.88,0,0,1,537.31,244Zm-19.5-6.59a.84.84,0,0,1-.27,0,.89.89,0,0,1-.57-1.12,11.15,11.15,0,0,1,1.77-3.4.89.89,0,0,1,1.41,1.08,9.41,9.41,0,0,0-1.49,2.86A.89.89,0,0,1,517.81,237.38ZM537,236.29a.9.9,0,0,1-.82-.52,9.49,9.49,0,0,0-1.8-2.68.88.88,0,0,1,0-1.25.9.9,0,0,1,1.26,0,11.05,11.05,0,0,1,2.14,3.18.88.88,0,0,1-.44,1.17A.78.78,0,0,1,537,236.29Zm-15-4.44a.89.89,0,0,1-.49-1.63,11,11,0,0,1,3.54-1.5.87.87,0,0,1,1.06.66.88.88,0,0,1-.66,1.06,9.2,9.2,0,0,0-3,1.27A1,1,0,0,1,522,231.85Zm10.16-.58a.89.89,0,0,1-.39-.09,9.64,9.64,0,0,0-3.1-.92.88.88,0,0,1-.78-1,.89.89,0,0,1,1-.78,11.07,11.07,0,0,1,3.69,1.09.89.89,0,0,1-.4,1.68Z" style="fill:#6731cf"/><g style="mix-blend-mode:multiply"><path d="M412.34,132.44a3.53,3.53,0,0,1-3.46-3.13l-.64-4.35a3.16,3.16,0,0,1,2.94-3.84c5.57-.7,8.13-2.43,8.13-5.56v-.13c0-2.88-2.18-4.54-5.89-4.54a11.88,11.88,0,0,0-7.42,2.56,4.92,4.92,0,0,1-2.87,1,4.54,4.54,0,0,1-4.48-4.47,4.48,4.48,0,0,1,1.66-3.46,20.07,20.07,0,0,1,13.3-4.6c9.21,0,15.48,4.73,15.48,13.23v.13c0,8.12-5.63,11.45-12.6,12.86l-.19,1.15a3.58,3.58,0,0,1-3.45,3.13Zm0,4.22a5.39,5.39,0,0,1,5.56,5.44v.13a5.57,5.57,0,0,1-11.13,0v-.13A5.39,5.39,0,0,1,412.34,136.66Z" style="fill:#ccc"/></g><path d="M409.7,130.58a3.51,3.51,0,0,1-3.45-3.14l-.64-4.35a3.15,3.15,0,0,1,2.94-3.83c5.56-.7,8.12-2.43,8.12-5.57v-.12c0-2.88-2.18-4.54-5.88-4.54a11.9,11.9,0,0,0-7.42,2.55,4.89,4.89,0,0,1-2.88,1,4.54,4.54,0,0,1-4.48-4.48,4.45,4.45,0,0,1,1.67-3.45,20,20,0,0,1,13.3-4.61c9.21,0,15.47,4.74,15.47,13.24v.13c0,8.12-5.62,11.45-12.6,12.85l-.19,1.15a3.57,3.57,0,0,1-3.45,3.14Zm0,4.22a5.38,5.38,0,0,1,5.56,5.43v.13a5.57,5.57,0,0,1-11.13,0v-.13A5.39,5.39,0,0,1,409.7,134.8Z" style="fill:#fff"/><path d="M483,185.63l-.84-.71a96.83,96.83,0,1,0-153.9-8.12l-.91.62A97.94,97.94,0,1,1,483,185.63Z" style="fill:#f94f24"/><path d="M215.89,270.37a69.08,69.08,0,1,1,99.52-94.05l-.9.65a68,68,0,1,0-97.93,92.54Z" style="fill:#f94f24"/><path d="M559.27,372.07A50.64,50.64,0,0,1,522.32,356l.81-.75a49.37,49.37,0,1,0,66.39-72.66l.67-.87a50.47,50.47,0,0,1-30.92,90.37Z" style="fill:#f94f24"/></g></svg>