<svg xmlns="http://www.w3.org/2000/svg" xmlns:xlink="http://www.w3.org/1999/xlink" viewBox="0 0 800 500"><defs><linearGradient id="a" x1="248.66" y1="514.26" x2="440.75" y2="155.13" gradientTransform="translate(648.21 -103.01) rotate(89.42)" gradientUnits="userSpaceOnUse"><stop offset="0" stop-color="#8033eb"/><stop offset="0.53" stop-color="#d4648e"/><stop offset="1" stop-color="#ec7071"/></linearGradient><linearGradient id="b" x1="416.4" y1="511.44" x2="350.42" y2="145.52" gradientUnits="userSpaceOnUse"><stop offset="0" stop-color="#8033eb"/><stop offset="1" stop-color="#a2e1e0"/></linearGradient></defs><title>Artboard 2 copy 8</title><g style="isolation:isolate"><path d="M474.43,86.9a56,56,0,1,1-56-56A56,56,0,0,1,474.43,86.9Z" style="fill:#f2f2f2"/><rect x="392.32" y="154.1" width="183.34" height="44.25" rx="20.88" ry="20.88" style="fill:#f2f2f2"/><rect x="137.08" y="170.72" width="295.93" height="71.43" rx="33.7" ry="33.7" style="fill:#f2f2f2"/><circle cx="376.14" cy="275.92" r="157.55" transform="translate(96.39 649.23) rotate(-89.42)" style="fill:url(#a)"/><path d="M376.24,469.13h-.1c-2.07,0-4.14,0-6.18-.1a1.5,1.5,0,0,1,.05-3h.05c2,.07,4.05.1,6.08.1a1.54,1.54,0,0,1,1.55,1.5A1.46,1.46,0,0,1,376.24,469.13Zm10.38-.28a1.5,1.5,0,0,1-.08-3c2-.11,4.1-.26,6.16-.44a1.5,1.5,0,0,1,.26,3c-2.09.18-4.2.33-6.26.44Zm-27-.42h-.13c-2.09-.18-4.19-.39-6.25-.64a1.5,1.5,0,0,1,.35-3c2,.24,4.1.46,6.15.63a1.5,1.5,0,0,1-.12,3Zm43.48-1.2a1.5,1.5,0,0,1-.21-3c2-.28,4.09-.61,6.1-1a1.5,1.5,0,1,1,.52,3c-2,.36-4.13.69-6.2,1Zm-59.95-.94-.26,0c-2.05-.36-4.12-.76-6.16-1.18a1.52,1.52,0,0,1-1.17-1.78,1.5,1.5,0,0,1,1.78-1.16c2,.42,4.05.81,6.07,1.16a1.5,1.5,0,0,1-.26,3Zm76.27-2.11a1.5,1.5,0,0,1-.34-3c2-.46,4-1,6-1.5a1.5,1.5,0,0,1,.78,2.9c-2,.54-4.07,1.05-6.09,1.52A1.32,1.32,0,0,1,419.46,464.18ZM327,462.72a1.74,1.74,0,0,1-.39-.05c-2-.53-4-1.11-6-1.72a1.5,1.5,0,0,1,.87-2.87c2,.6,4,1.17,5.94,1.69a1.5,1.5,0,0,1-.38,3Zm108.47-3a1.5,1.5,0,0,1-.47-2.93c1.94-.63,3.91-1.31,5.84-2a1.5,1.5,0,0,1,1.92.9,1.49,1.49,0,0,1-.89,1.92c-2,.72-4,1.41-5.94,2.05A1.24,1.24,0,0,1,435.45,459.71Zm-124.34-2a1.31,1.31,0,0,1-.51-.09c-2-.71-4-1.47-5.88-2.24a1.5,1.5,0,0,1,1.12-2.79c1.9.77,3.84,1.51,5.79,2.21a1.5,1.5,0,0,1,.89,1.93A1.48,1.48,0,0,1,311.11,457.73ZM451,453.86a1.5,1.5,0,0,1-.59-2.88c1.88-.8,3.77-1.65,5.63-2.51a1.5,1.5,0,1,1,1.27,2.71c-1.89.89-3.81,1.75-5.72,2.56A1.52,1.52,0,0,1,451,453.86Zm-155.22-2.49a1.56,1.56,0,0,1-.63-.14c-1.89-.88-3.8-1.81-5.66-2.76a1.5,1.5,0,1,1,1.36-2.67c1.83.93,3.71,1.84,5.57,2.71a1.5,1.5,0,0,1-.64,2.86Zm170.16-4.69a1.5,1.5,0,0,1-.71-2.82c1.81-1,3.62-2,5.39-3a1.5,1.5,0,1,1,1.5,2.6c-1.79,1-3.63,2.06-5.47,3A1.42,1.42,0,0,1,465.9,446.68Zm-184.91-3a1.48,1.48,0,0,1-.75-.2c-1.81-1-3.62-2.13-5.39-3.23a1.5,1.5,0,0,1,1.59-2.55c1.74,1.08,3.52,2.16,5.31,3.18a1.5,1.5,0,0,1,.54,2.05A1.47,1.47,0,0,1,281,443.68Zm199.17-5.46a1.49,1.49,0,0,1-.82-2.75c1.7-1.12,3.42-2.28,5.11-3.46a1.5,1.5,0,1,1,1.72,2.46c-1.71,1.2-3.46,2.38-5.19,3.51A1.45,1.45,0,0,1,480.16,438.22ZM267,434.74a1.44,1.44,0,0,1-.86-.27c-1.71-1.19-3.42-2.44-5.08-3.69a1.5,1.5,0,1,1,1.8-2.4c1.64,1.24,3.32,2.46,5,3.63a1.5,1.5,0,0,1-.86,2.73Zm226.66-6.19a1.47,1.47,0,0,1-1.18-.57,1.51,1.51,0,0,1,.25-2.11c1.6-1.25,3.21-2.56,4.79-3.89a1.5,1.5,0,1,1,1.93,2.3c-1.6,1.35-3.24,2.68-4.87,4A1.45,1.45,0,0,1,493.64,428.55Zm-239.83-3.93a1.49,1.49,0,0,1-1-.35c-1.59-1.33-3.18-2.72-4.74-4.11a1.5,1.5,0,0,1,2-2.24c1.54,1.38,3.11,2.74,4.67,4.05a1.5,1.5,0,0,1-1,2.65Zm252.42-6.88a1.45,1.45,0,0,1-1.09-.47,1.49,1.49,0,0,1,.07-2.12c1.5-1.41,3-2.86,4.44-4.3a1.5,1.5,0,0,1,2.12,2.12c-1.46,1.47-3,2.94-4.51,4.37A1.5,1.5,0,0,1,506.23,417.74ZM241.56,413.4a1.48,1.48,0,0,1-1.06-.44c-1.47-1.47-2.94-3-4.36-4.5a1.5,1.5,0,0,1,2.19-2.06c1.4,1.5,2.84,3,4.29,4.44a1.49,1.49,0,0,1,0,2.12A1.45,1.45,0,0,1,241.56,413.4Zm276.29-7.52a1.5,1.5,0,0,1-1.12-2.5c1.37-1.53,2.74-3.1,4.06-4.67a1.5,1.5,0,1,1,2.29,1.93c-1.34,1.59-2.72,3.19-4.11,4.74A1.51,1.51,0,0,1,517.85,405.88Zm-287.51-4.71a1.48,1.48,0,0,1-1.15-.54c-1.33-1.58-2.66-3.22-3.95-4.86a1.5,1.5,0,1,1,2.35-1.86c1.28,1.62,2.59,3.24,3.9,4.79a1.51,1.51,0,0,1-.18,2.12A1.54,1.54,0,0,1,230.34,401.17Zm298.06-8.12a1.5,1.5,0,0,1-1.2-2.4c1.23-1.64,2.45-3.32,3.63-5a1.5,1.5,0,0,1,2.46,1.73c-1.2,1.71-2.44,3.42-3.69,5.08A1.52,1.52,0,0,1,528.4,393.05Zm-308.17-5a1.51,1.51,0,0,1-1.23-.63c-1.19-1.71-2.38-3.45-3.52-5.19a1.5,1.5,0,1,1,2.51-1.64c1.12,1.71,2.29,3.43,3.46,5.1a1.49,1.49,0,0,1-.36,2.09A1.44,1.44,0,0,1,220.23,388Zm317.57-8.67a1.53,1.53,0,0,1-.8-.22,1.52,1.52,0,0,1-.48-2.07c1.1-1.75,2.17-3.53,3.19-5.3a1.5,1.5,0,1,1,2.6,1.5c-1,1.8-2.13,3.61-3.24,5.39A1.49,1.49,0,0,1,537.8,379.34ZM211.3,374a1.5,1.5,0,0,1-1.3-.75c-1-1.8-2.07-3.64-3.05-5.47a1.5,1.5,0,0,1,2.64-1.42c1,1.81,2,3.62,3,5.39a1.51,1.51,0,0,1-.55,2A1.59,1.59,0,0,1,211.3,374ZM546,364.87a1.52,1.52,0,0,1-.68-.17,1.49,1.49,0,0,1-.66-2c.93-1.84,1.85-3.72,2.71-5.57a1.5,1.5,0,0,1,2.72,1.27c-.88,1.88-1.81,3.78-2.76,5.66A1.49,1.49,0,0,1,546,364.87Zm-342.34-5.52a1.49,1.49,0,0,1-1.36-.87c-.88-1.88-1.74-3.8-2.56-5.71a1.5,1.5,0,1,1,2.75-1.18c.81,1.88,1.66,3.77,2.52,5.62a1.51,1.51,0,0,1-.72,2A1.6,1.6,0,0,1,203.63,359.35Zm349.21-9.63a1.43,1.43,0,0,1-.56-.11,1.5,1.5,0,0,1-.83-1.95c.77-1.9,1.51-3.85,2.22-5.78a1.49,1.49,0,1,1,2.81,1c-.71,2-1.47,3.94-2.25,5.88A1.48,1.48,0,0,1,552.84,349.72Zm-355.57-5.67a1.51,1.51,0,0,1-1.41-1c-.71-2-1.41-3.95-2.06-5.94a1.5,1.5,0,1,1,2.85-.93c.64,1.95,1.33,3.92,2,5.84a1.5,1.5,0,0,1-.9,1.92A1.52,1.52,0,0,1,197.27,344.05Zm361.09-10a1.29,1.29,0,0,1-.43-.07,1.49,1.49,0,0,1-1-1.87c.59-2,1.16-4,1.69-5.94a1.5,1.5,0,1,1,2.9.78c-.54,2-1.12,4-1.72,6A1.51,1.51,0,0,1,558.36,334Zm-366.1-5.8a1.49,1.49,0,0,1-1.44-1.11c-.55-2-1.06-4.07-1.53-6.09a1.5,1.5,0,0,1,2.92-.68c.47,2,1,4,1.5,6a1.5,1.5,0,0,1-1.06,1.84A1.74,1.74,0,0,1,192.26,328.22Zm370.21-10.29-.31,0a1.5,1.5,0,0,1-1.16-1.78c.42-2,.82-4,1.17-6.06a1.5,1.5,0,1,1,3,.52c-.36,2.05-.75,4.12-1.18,6.16A1.5,1.5,0,0,1,562.47,317.93ZM188.67,312a1.5,1.5,0,0,1-1.48-1.24c-.36-2.07-.69-4.16-1-6.2a1.5,1.5,0,0,1,3-.42c.28,2,.61,4.06,1,6.1a1.51,1.51,0,0,1-1.22,1.74Zm376.49-10.46H565a1.5,1.5,0,0,1-1.31-1.67c.24-2,.45-4.09.63-6.15a1.5,1.5,0,0,1,3,.26c-.18,2.09-.4,4.19-.64,6.25A1.51,1.51,0,0,1,565.16,301.55Zm-378.65-6a1.51,1.51,0,0,1-1.5-1.37c-.18-2.08-.33-4.19-.44-6.26a1.5,1.5,0,0,1,3-.16c.11,2,.25,4.11.43,6.16a1.51,1.51,0,0,1-1.36,1.63ZM566.41,285h0a1.49,1.49,0,0,1-1.45-1.54c.06-2,.09-4.12.09-6.18v-.39a1.5,1.5,0,0,1,3,0v.38c0,2.1,0,4.21-.1,6.28A1.49,1.49,0,0,1,566.41,285Zm-380.63-6a1.5,1.5,0,0,1-1.5-1.5v-.19c0-2,0-4.07.09-6.08a1.5,1.5,0,0,1,3,.09c-.06,2-.09,4-.09,6v.19A1.5,1.5,0,0,1,185.78,279ZM566.2,268a1.49,1.49,0,0,1-1.49-1.42c-.12-2-.26-4.11-.45-6.16a1.5,1.5,0,0,1,3-.26c.19,2.07.34,4.18.45,6.26a1.5,1.5,0,0,1-1.41,1.58Zm-379.72-5.62h-.13a1.5,1.5,0,0,1-1.37-1.62c.18-2.08.39-4.19.63-6.25a1.5,1.5,0,0,1,3,.36c-.24,2-.45,4.09-.62,6.14A1.5,1.5,0,0,1,186.48,262.38Zm378.08-10.9a1.5,1.5,0,0,1-1.48-1.29c-.29-2-.62-4.07-1-6.1a1.5,1.5,0,0,1,1.22-1.73,1.48,1.48,0,0,1,1.73,1.21c.37,2.06.7,4.15,1,6.2a1.5,1.5,0,0,1-1.27,1.69A.86.86,0,0,1,564.56,251.48Zm-375.95-5.57-.26,0a1.49,1.49,0,0,1-1.22-1.74c.35-2.05.75-4.12,1.17-6.16a1.5,1.5,0,0,1,2.94.61c-.42,2-.81,4.05-1.16,6.07A1.5,1.5,0,0,1,188.61,245.91Zm372.88-10.74A1.5,1.5,0,0,1,560,234c-.47-2-1-4-1.51-6a1.5,1.5,0,1,1,2.9-.78c.54,2,1.05,4.06,1.53,6.08a1.5,1.5,0,0,1-1.12,1.81A2.09,2.09,0,0,1,561.49,235.17Zm-369.33-5.48a1.28,1.28,0,0,1-.38-.05,1.5,1.5,0,0,1-1.07-1.83c.54-2,1.11-4,1.72-6a1.5,1.5,0,1,1,2.87.87c-.6,2-1.16,4-1.69,5.94A1.49,1.49,0,0,1,192.16,229.69ZM557,219.18a1.5,1.5,0,0,1-1.42-1c-.64-2-1.33-3.91-2-5.83a1.5,1.5,0,1,1,2.82-1c.71,2,1.41,3.94,2.06,5.92a1.5,1.5,0,0,1-1,1.9A1.49,1.49,0,0,1,557,219.18Zm-359.85-5.35a1.52,1.52,0,0,1-.51-.09,1.5,1.5,0,0,1-.9-1.92c.72-2,1.47-3.95,2.24-5.88a1.5,1.5,0,0,1,2.79,1.11c-.76,1.91-1.51,3.85-2.21,5.79A1.5,1.5,0,0,1,197.14,213.83Zm354-10.15a1.51,1.51,0,0,1-1.38-.91c-.8-1.88-1.65-3.77-2.52-5.62a1.5,1.5,0,1,1,2.72-1.28c.88,1.89,1.74,3.81,2.56,5.71a1.49,1.49,0,0,1-.79,2A1.37,1.37,0,0,1,551.12,203.68ZM203.5,198.45a1.41,1.41,0,0,1-.63-.14,1.5,1.5,0,0,1-.73-2c.88-1.88,1.8-3.78,2.75-5.66a1.5,1.5,0,0,1,2.68,1.36c-.94,1.84-1.85,3.72-2.71,5.57A1.5,1.5,0,0,1,203.5,198.45Zm340.42-9.7a1.49,1.49,0,0,1-1.32-.79c-1-1.8-2-3.61-3-5.38a1.5,1.5,0,0,1,2.59-1.51c1.05,1.8,2.08,3.64,3.06,5.47a1.5,1.5,0,0,1-.61,2A1.42,1.42,0,0,1,543.92,188.75ZM211.18,183.7a1.43,1.43,0,0,1-.75-.2,1.49,1.49,0,0,1-.55-2.05c1-1.8,2.13-3.61,3.23-5.39a1.5,1.5,0,0,1,2.55,1.59c-1.09,1.75-2.16,3.53-3.18,5.3A1.49,1.49,0,0,1,211.18,183.7Zm324.26-9.2a1.5,1.5,0,0,1-1.26-.67c-1.12-1.71-2.29-3.43-3.46-5.11a1.5,1.5,0,1,1,2.45-1.72c1.2,1.7,2.38,3.44,3.52,5.18a1.5,1.5,0,0,1-.43,2.08A1.45,1.45,0,0,1,535.44,174.5Zm-315.33-4.81a1.5,1.5,0,0,1-1.23-2.36c1.2-1.71,2.44-3.42,3.69-5.09A1.5,1.5,0,0,1,225,164c-1.23,1.64-2.45,3.32-3.63,5A1.49,1.49,0,0,1,220.11,169.69ZM525.75,161a1.51,1.51,0,0,1-1.18-.57c-1.26-1.6-2.58-3.22-3.9-4.79a1.5,1.5,0,0,1,2.29-1.93c1.35,1.6,2.68,3.23,4,4.86a1.5,1.5,0,0,1-1.18,2.43Zm-295.53-4.53a1.5,1.5,0,0,1-1.15-2.47c1.35-1.6,2.73-3.2,4.12-4.74a1.5,1.5,0,1,1,2.23,2c-1.36,1.52-2.73,3.09-4,4.67A1.5,1.5,0,0,1,230.22,156.51Zm284.7-8a1.49,1.49,0,0,1-1.09-.47c-1.42-1.51-2.87-3-4.31-4.43a1.5,1.5,0,0,1,2.12-2.13c1.46,1.46,2.93,3,4.37,4.51a1.49,1.49,0,0,1-1.09,2.52Zm-273.48-4.2a1.5,1.5,0,0,1-1.06-2.56c1.48-1.49,3-3,4.5-4.37a1.5,1.5,0,1,1,2.05,2.19c-1.48,1.39-3,2.84-4.43,4.3A1.53,1.53,0,0,1,241.44,144.26ZM503,136.87a1.47,1.47,0,0,1-1-.39c-1.52-1.36-3.09-2.72-4.68-4a1.5,1.5,0,0,1,1.93-2.3c1.61,1.34,3.21,2.73,4.75,4.11a1.49,1.49,0,0,1,.11,2.12A1.48,1.48,0,0,1,503,136.87ZM253.67,133a1.49,1.49,0,0,1-1.15-.53,1.51,1.51,0,0,1,.18-2.12c1.59-1.33,3.22-2.67,4.86-4a1.5,1.5,0,0,1,1.86,2.36c-1.62,1.27-3.23,2.58-4.79,3.9A1.46,1.46,0,0,1,253.67,133Zm236.52-6.7a1.45,1.45,0,0,1-.9-.3c-1.65-1.23-3.33-2.45-5-3.62A1.5,1.5,0,1,1,486,120c1.7,1.19,3.41,2.43,5.09,3.68a1.5,1.5,0,0,1,.3,2.1A1.48,1.48,0,0,1,490.19,126.33Zm-223.37-3.42a1.48,1.48,0,0,1-1.23-.64,1.49,1.49,0,0,1,.36-2.09c1.69-1.19,3.44-2.37,5.19-3.52a1.5,1.5,0,0,1,1.64,2.51c-1.72,1.13-3.44,2.3-5.1,3.47A1.56,1.56,0,0,1,266.82,122.91Zm209.65-6a1.54,1.54,0,0,1-.79-.23c-1.74-1.08-3.53-2.15-5.31-3.18a1.5,1.5,0,1,1,1.5-2.59c1.81,1,3.62,2.13,5.39,3.22a1.5,1.5,0,0,1-.79,2.78Zm-195.68-3a1.5,1.5,0,0,1-.76-2.8c1.79-1,3.63-2.06,5.47-3a1.5,1.5,0,0,1,1.42,2.64c-1.81,1-3.62,2-5.38,3A1.48,1.48,0,0,1,280.79,114ZM462,108.81a1.51,1.51,0,0,1-.68-.16c-1.83-.93-3.71-1.84-5.57-2.71a1.5,1.5,0,1,1,1.27-2.72c1.89.88,3.79,1.81,5.66,2.75a1.5,1.5,0,0,1-.68,2.84Zm-166.51-2.52a1.5,1.5,0,0,1-.63-2.86c1.88-.88,3.81-1.74,5.71-2.56a1.5,1.5,0,0,1,1.18,2.76c-1.87.8-3.76,1.65-5.62,2.52A1.45,1.45,0,0,1,295.47,106.29ZM446.82,102a1.54,1.54,0,0,1-.55-.11c-1.91-.76-3.86-1.51-5.79-2.21a1.5,1.5,0,0,1,1-2.82c2,.71,3.94,1.47,5.88,2.24a1.5,1.5,0,0,1-.56,2.9Zm-136-2a1.5,1.5,0,0,1-.52-2.91c1.95-.72,3.94-1.41,5.93-2.06a1.5,1.5,0,0,1,.94,2.85c-2,.64-3.92,1.32-5.84,2A1.52,1.52,0,0,1,310.77,99.93Zm120.34-3.47a1.59,1.59,0,0,1-.43-.06c-2-.6-4-1.16-5.94-1.69a1.5,1.5,0,1,1,.76-2.9c2,.54,4,1.11,6,1.71a1.5,1.5,0,0,1-.43,2.94ZM326.59,94.92a1.5,1.5,0,0,1-.39-3c2-.55,4.07-1.06,6.09-1.53a1.5,1.5,0,1,1,.69,2.92c-2,.46-4,1-6,1.5A1.32,1.32,0,0,1,326.59,94.92ZM415,92.38l-.31,0c-2-.42-4-.81-6.06-1.16a1.5,1.5,0,1,1,.51-3c2,.36,4.12.75,6.16,1.18a1.5,1.5,0,0,1-.3,3ZM342.8,91.31a1.5,1.5,0,0,1-.26-3c2.07-.37,4.16-.7,6.2-1a1.5,1.5,0,0,1,.42,3c-2,.28-4.06.61-6.1,1A1.14,1.14,0,0,1,342.8,91.31Zm55.83-1.59h-.17c-2-.24-4.11-.45-6.15-.62a1.5,1.5,0,1,1,.25-3c2.07.17,4.17.38,6.25.63a1.5,1.5,0,0,1-.18,3Zm-39.37-.58a1.5,1.5,0,0,1-.13-3c2.09-.19,4.19-.34,6.26-.45a1.5,1.5,0,1,1,.16,3c-2,.11-4.1.26-6.16.43Zm22.82-.65H382c-1.95-.06-3.93-.09-5.89-.09h-.29a1.5,1.5,0,0,1,0-3h.29c2,0,4,0,6,.1a1.5,1.5,0,0,1,0,3Z" style="fill:#f94f24"/><path d="M530.64,301.75c3.13-18.51,8.72-43-1.6-60.18-1.31-2.16.33-4.18,2.25-4.55a77.4,77.4,0,0,0-73.73-24.31A97.53,97.53,0,0,0,282.8,244.49a60.8,60.8,0,1,0-6.37,121.27H473.5c16.67,0,29.88-4.4,42.25-16.76A171.93,171.93,0,0,0,530.64,301.75Z" style="fill:#ebebeb;mix-blend-mode:multiply"/><path d="M466.4,203.29a78.14,78.14,0,0,0-15.94,1.65A97.53,97.53,0,0,0,275.7,236.72a63.56,63.56,0,0,0-6.36-.33,60.81,60.81,0,1,0,0,121.61H466.4a77.36,77.36,0,0,0,0-154.71Z" style="fill:url(#b)"/><path d="M269.33,245.76a60.77,60.77,0,0,1,6.37.33,97.52,97.52,0,0,1,174.75-31.78,78.31,78.31,0,0,1,15.95-1.65A77.34,77.34,0,0,1,543.57,285c.1-1.67.18-3.36.18-5.06a77.35,77.35,0,0,0-77.35-77.35,78.31,78.31,0,0,0-15.95,1.65A97.52,97.52,0,0,0,275.7,236a60.75,60.75,0,0,0-67.17,60.47c0,1.7.09,3.38.23,5.05A60.79,60.79,0,0,1,269.33,245.76Z" style="fill:#c4ecec"/><path d="M194.83,282.33a9.74,9.74,0,1,1-9.74-9.74A9.74,9.74,0,0,1,194.83,282.33Z" style="fill:#fff"/><path d="M185.09,293.57a11.24,11.24,0,1,1,11.24-11.24A11.25,11.25,0,0,1,185.09,293.57Zm0-19.48a8.24,8.24,0,1,0,8.24,8.24A8.24,8.24,0,0,0,185.09,274.09Z" style="fill:#f94f24"/><path d="M238.79,407.68a23.16,23.16,0,1,1-23.16-23.16A23.16,23.16,0,0,1,238.79,407.68Z" style="fill:#f2f2f2"/><path d="M622,350.33a23.16,23.16,0,1,1-23.15-23.15A23.15,23.15,0,0,1,622,350.33Z" style="fill:#f2f2f2"/><path d="M547.37,398.22a24.72,24.72,0,1,1-24.72-24.73A24.72,24.72,0,0,1,547.37,398.22Z" style="fill:#fff"/><path d="M522.65,424.44a26.23,26.23,0,1,1,26.22-26.22A26.25,26.25,0,0,1,522.65,424.44Zm0-49.45a23.23,23.23,0,1,0,23.22,23.23A23.25,23.25,0,0,0,522.65,375Z" style="fill:#f94f24"/><g style="mix-blend-mode:multiply"><path d="M341.52,314.72a5.19,5.19,0,0,1-3.7-1.54l-19.31-19.3a5.25,5.25,0,0,1,0-7.41l19.3-19.28a5.23,5.23,0,0,1,7.4,7.4l-15.59,15.59,15.6,15.6a5.24,5.24,0,0,1-3.7,8.94Z" style="fill:#ccc"/><path d="M414.12,314.72a5.24,5.24,0,0,1-3.7-8.94L426,290.19l-15.6-15.6a5.23,5.23,0,1,1,7.4-7.4l19.31,19.3a5.25,5.25,0,0,1,0,7.41l-19.3,19.28A5.19,5.19,0,0,1,414.12,314.72Z" style="fill:#ccc"/><path d="M387.68,314.72a5.23,5.23,0,0,1-4.62-2.76l-20.69-38.6a5.23,5.23,0,0,1,9.23-4.94L392.29,307a5.23,5.23,0,0,1-4.61,7.71Z" style="fill:#ccc"/></g><path d="M338.17,311.37a5.22,5.22,0,0,1-3.7-1.53l-19.3-19.31a5.21,5.21,0,0,1,0-7.4l19.29-19.29a5.24,5.24,0,0,1,7.4,7.41l-15.59,15.58,15.6,15.6a5.24,5.24,0,0,1-3.7,8.94Z" style="fill:#fff"/><path d="M410.77,311.37a5.24,5.24,0,0,1-3.7-8.94l15.59-15.58-15.6-15.6a5.24,5.24,0,1,1,7.4-7.41l19.31,19.3a5.25,5.25,0,0,1,0,7.41l-19.3,19.29A5.22,5.22,0,0,1,410.77,311.37Z" style="fill:#fff"/><path d="M384.33,311.37a5.24,5.24,0,0,1-4.62-2.76L359,270a5.23,5.23,0,1,1,9.22-4.95l20.69,38.59a5.23,5.23,0,0,1-4.61,7.71Z" style="fill:#fff"/><path d="M580.6,293.79l-.21-1a106.81,106.81,0,1,0-93.81-184.19l-.66-.74A107.8,107.8,0,1,1,580.6,293.79Z" style="fill:#f94f24"/><path d="M185.78,333.43a51.11,51.11,0,0,1,0-102.21,50.6,50.6,0,0,1,31.05,10.52l-.6.8a49.64,49.64,0,0,0-30.45-10.32,50.11,50.11,0,0,0,0,100.21A49.48,49.48,0,0,0,208.43,327l.46.9A50.66,50.66,0,0,1,185.78,333.43Z" style="fill:#f94f24"/></g></svg>