<svg width="178" height="161" viewBox="0 0 178 161" fill="none" xmlns="http://www.w3.org/2000/svg">
<path fill-rule="evenodd" clip-rule="evenodd" d="M114.29 136.643C114.29 135.245 114.784 134.052 115.773 133.063C116.762 132.074 117.955 131.58 119.353 131.58H156.964C158.362 131.58 159.556 132.074 160.544 133.063C161.533 134.052 162.027 135.245 162.027 136.643C162.027 138.041 161.533 139.235 160.544 140.223C159.556 141.212 158.362 141.706 156.964 141.706H119.353C117.955 141.706 116.762 141.212 115.773 140.223C114.784 139.235 114.29 138.041 114.29 136.643V136.643Z" fill="#F2F2F2"/>
<path fill-rule="evenodd" clip-rule="evenodd" d="M127.127 27.7045C127.127 20.8321 132.695 15.2607 139.563 15.2607C146.431 15.2607 151.999 20.8321 151.999 27.7045C151.999 34.577 146.431 40.1482 139.563 40.1482C132.695 40.1482 127.127 34.577 127.127 27.7045Z" fill="#F2F2F2"/>
<path fill-rule="evenodd" clip-rule="evenodd" d="M135.551 48.378C135.551 36.9608 144.801 27.7051 156.211 27.7051C167.62 27.7051 176.87 36.9608 176.87 48.378C176.87 59.7952 167.62 69.051 156.211 69.051C144.801 69.051 135.551 59.7952 135.551 48.378V48.378Z" stroke="#FA5A28" stroke-width="2"/>
<path fill-rule="evenodd" clip-rule="evenodd" d="M1.56641 36.9371C1.56641 20.0883 15.2161 6.42969 32.054 6.42969C48.8915 6.42969 62.5415 20.0883 62.5415 36.9371C62.5415 53.7858 48.8915 67.4446 32.054 67.4446C15.2161 67.4446 1.56641 53.7858 1.56641 36.9371V36.9371Z" stroke="#FA5A28" stroke-width="2"/>
<path fill-rule="evenodd" clip-rule="evenodd" d="M18.7047 67.6982L18.7047 67.6978L56.6039 21.7624V21.7624C59.9528 17.7029 65.3382 15.7414 70.7461 16.653L70.913 15.6641L70.7461 16.653L131.47 26.8863C136.88 27.7973 141.458 31.4422 143.484 36.4293L166.309 92.5977C168.334 97.5792 167.506 103.14 164.159 107.196L126.261 153.131C122.912 157.19 117.526 159.152 112.119 158.241L51.3946 148.008C45.9838 147.096 41.4063 143.452 39.3797 138.465L16.5548 82.2965L15.6257 82.674L16.5547 82.2965C14.5303 77.3146 15.3576 71.7539 18.7047 67.6982Z" fill="url(#paint0_linear)" stroke="white" stroke-width="5"/>
<mask id="mask0" mask-type="alpha" maskUnits="userSpaceOnUse" x="15" y="15" width="153" height="144">
<path fill-rule="evenodd" clip-rule="evenodd" d="M18.7047 67.6982L18.7047 67.6978L56.6039 21.7624V21.7624C59.9528 17.7029 65.3382 15.7414 70.7461 16.653L70.913 15.6641L70.7461 16.653L131.47 26.8863C136.88 27.7973 141.458 31.4422 143.484 36.4293L166.309 92.5977C168.334 97.5792 167.506 103.14 164.159 107.196L126.261 153.131C122.912 157.19 117.526 159.152 112.119 158.241L51.3946 148.008C45.9838 147.096 41.4063 143.452 39.3797 138.465L16.5548 82.2965L15.6257 82.674L16.5547 82.2965C14.5303 77.3146 15.3576 71.7539 18.7047 67.6982Z" fill="white"/>
</mask>
<g mask="url(#mask0)">
<path opacity="0.7" fill-rule="evenodd" clip-rule="evenodd" d="M57.8186 116.122L51.9778 109.136L46.1375 116.122H49.3314V141.509H54.6704V116.122H57.8186Z" fill="white"/>
<path opacity="0.7" fill-rule="evenodd" clip-rule="evenodd" d="M77.5765 109.363L70.7778 101.281L63.9786 109.363H67.6748V138.905H73.8803V109.363H77.5765Z" fill="white"/>
<path opacity="0.66" fill-rule="evenodd" clip-rule="evenodd" d="M150.767 91.2818L139.223 77.4922L127.678 91.2818H133.93V141.508H144.471V91.2818H150.767Z" fill="white"/>
<path opacity="0.7" fill-rule="evenodd" clip-rule="evenodd" d="M124.849 96.9571L115.286 85.5371L105.723 96.9571H110.954V138.514H119.671V96.9571H124.849Z" fill="white"/>
<path d="M107.27 78.4839C100.823 73.5417 80.2189 74.4675 78.2817 75.8704C76.3442 77.2728 77.4935 80.0957 83.0005 80.6918" stroke="white" stroke-linecap="round" stroke-linejoin="round" stroke-dasharray="6 4"/>
<path fill-rule="evenodd" clip-rule="evenodd" d="M95.3268 56.7168L85.4709 65.575L76.0254 132.695L91.357 132.147L95.3268 56.7168Z" fill="#FA5A28"/>
<path fill-rule="evenodd" clip-rule="evenodd" d="M88.8929 56.7168L98.7488 65.575L108.24 132.695L92.8627 132.147L88.8929 56.7168Z" fill="#F94F24"/>
<g opacity="0.69">
<path opacity="0.69" fill-rule="evenodd" clip-rule="evenodd" d="M88.893 62.8809L85.2425 69.3647L78.7174 152.009H91.9502H105.183L98.6578 69.3647L95.0074 62.8809L91.9502 63.1091L88.893 62.8809Z" fill="white"/>
</g>
<g opacity="0.69">
<path opacity="0.69" fill-rule="evenodd" clip-rule="evenodd" d="M90.6268 60.6895L89.0299 67.1729L86.2009 149.818H91.9502H97.6995L94.8706 67.1729L93.2732 60.6895L91.9502 60.872L90.6268 60.6895Z" fill="white"/>
</g>
<path fill-rule="evenodd" clip-rule="evenodd" d="M82.5958 126.668C84.8776 126.668 86.7481 128.54 86.7481 130.823C86.7481 131.052 86.7481 131.28 86.7028 131.554C87.6608 131.097 88.7106 130.823 89.8057 130.823C91.1744 130.823 92.4978 131.234 93.593 131.873C94.7792 129.042 97.5628 127.079 100.802 127.079C104.635 127.079 107.829 129.864 108.514 133.472C109.244 133.106 110.065 132.878 110.932 132.878C113.716 132.878 115.997 135.161 115.997 137.946C115.997 138.311 115.952 138.677 115.861 139.042C115.997 139.088 116.088 139.179 116.226 139.271C117.549 137.901 119.465 137.033 121.518 137.033C122.979 137.033 124.302 137.444 125.443 138.175C126.492 135.983 128.774 134.476 131.375 134.476C134.979 134.476 137.9 137.353 137.946 140.96C138.812 140.686 139.679 140.503 140.638 140.503C142.235 140.503 143.695 140.96 144.927 141.736C146.524 138.723 149.672 136.668 153.323 136.668C157.201 136.668 160.532 138.997 161.993 142.284C163.088 142.512 164.046 143.06 164.867 143.745C166.282 142.604 168.107 141.919 170.069 141.919C172.853 141.919 175.362 143.334 176.822 145.48C178.511 142.741 181.568 140.914 185.036 140.914C188.138 140.914 190.922 142.375 192.701 144.704C194.025 143.517 195.804 142.786 197.766 142.786C200.641 142.786 203.105 144.339 204.428 146.667C205.706 144.795 207.805 143.608 210.224 143.608C214.102 143.608 217.205 146.758 217.205 150.594V164.794H113.898H106.734H37.0113V164.018C31.5814 163.333 27.3833 158.722 27.3833 153.105C27.3833 149.087 29.5279 145.571 32.7676 143.654C32.585 142.969 32.494 142.284 32.494 141.554C32.494 137.17 36.053 133.609 40.4336 133.609C42.6696 133.609 44.7227 134.567 46.1829 136.074C47.6431 133.015 50.7917 130.915 54.3965 130.915C55.6284 130.915 56.815 131.143 57.8644 131.599C58.5488 128.358 61.3777 125.938 64.8003 125.938C68.2225 125.938 71.0515 128.358 71.7358 131.554C72.9678 130.641 74.4737 130.093 76.0707 130.093C76.938 130.093 77.7591 130.23 78.5349 130.504C78.626 128.358 80.4055 126.668 82.5958 126.668Z" fill="white"/>
<path opacity="0.64" fill-rule="evenodd" clip-rule="evenodd" d="M96.3761 116.852C94.5055 116.943 93.0907 118.861 93.1821 121.143C93.1821 121.372 93.2279 121.6 93.2732 121.829C92.4978 121.417 91.6305 121.189 90.7178 121.235C89.5774 121.281 88.5733 121.737 87.7064 122.422C86.6113 119.637 84.2384 117.765 81.5921 117.902C78.4434 118.039 75.9795 120.915 75.6145 124.568C75.0212 124.203 74.3368 124.02 73.6067 124.066C71.3254 124.157 69.5455 126.532 69.6827 129.317C69.6827 129.682 69.728 130.047 69.8195 130.412C69.728 130.504 69.6369 130.55 69.5455 130.641C68.405 129.317 66.8076 128.541 65.1196 128.586C63.933 128.632 62.8835 129.089 61.9709 129.865C61.0126 127.719 59.0963 126.258 56.9974 126.349C54.0771 126.486 51.7953 129.454 51.9325 133.061C51.2477 132.787 50.4723 132.65 49.6965 132.696C48.4188 132.741 47.2326 133.243 46.2285 134.065C44.8141 131.098 42.1219 129.18 39.1558 129.317C36.0076 129.454 33.4065 131.874 32.3114 135.253C31.4445 135.527 30.6687 136.074 30.03 136.851C28.8434 135.755 27.3375 135.116 25.695 135.207C23.4135 135.298 21.4513 136.805 20.3562 138.997C18.8504 136.303 16.2951 134.613 13.4661 134.751C10.9108 134.842 8.72052 136.44 7.39728 138.814C6.25652 137.673 4.79633 137.034 3.19927 137.079C0.872147 137.17 -1.08997 138.86 -2.0482 141.234C-3.1433 139.408 -4.92289 138.266 -6.88501 138.358C-10.0335 138.494 -12.4519 141.736 -12.2694 145.617L-11.6305 159.818L72.5573 156.119L78.3977 155.846L135.299 153.38L135.253 152.603C139.633 151.736 142.873 146.987 142.645 141.371C142.463 137.353 140.546 133.929 137.854 132.102C137.991 131.417 138.036 130.686 137.991 129.956C137.808 125.573 134.751 122.148 131.192 122.331C129.367 122.422 127.724 123.427 126.629 124.979C125.306 121.965 122.659 120.002 119.693 120.139C118.689 120.185 117.731 120.459 116.91 120.961C116.225 117.765 113.807 115.436 110.978 115.573C108.194 115.71 105.958 118.222 105.548 121.417C104.544 120.55 103.266 120.048 101.943 120.094C101.259 120.139 100.574 120.322 99.9809 120.596C99.6615 118.404 98.1556 116.761 96.3761 116.852Z" fill="white"/>
<path opacity="0.64" fill-rule="evenodd" clip-rule="evenodd" d="M142.691 121.601C140.82 121.692 139.406 123.61 139.497 125.893C139.497 126.121 139.542 126.349 139.588 126.577C138.812 126.167 137.946 125.938 137.033 125.984C135.892 126.029 134.888 126.486 134.021 127.171C132.926 124.386 130.553 122.514 127.907 122.651C124.758 122.788 122.294 125.664 121.929 129.317C121.336 128.952 120.651 128.769 119.921 128.815C117.64 128.906 115.861 131.28 115.997 134.066C115.997 134.431 116.043 134.796 116.134 135.162C116.043 135.253 115.952 135.298 115.861 135.39C114.72 134.066 113.123 133.289 111.434 133.335C110.248 133.381 109.198 133.837 108.286 134.614C107.328 132.467 105.411 131.006 103.312 131.098C100.392 131.235 98.1103 134.203 98.2471 137.81C97.5628 137.536 96.7869 137.399 96.0111 137.445C94.7334 137.49 93.5472 137.992 92.5432 138.814C91.1287 135.846 88.4366 133.929 85.4704 134.066C82.3222 134.203 79.7211 136.623 78.626 140.001C77.7591 140.275 76.9833 140.823 76.3447 141.6C75.158 140.504 73.6525 139.865 72.0098 139.956C69.7281 140.047 67.766 141.554 66.6709 143.745C65.1654 141.052 62.61 139.362 59.7807 139.499C57.2254 139.591 55.0351 141.188 53.7121 143.563C52.5712 142.422 51.111 141.782 49.514 141.828C47.1869 141.919 45.2249 143.609 44.2666 145.983C43.1714 144.157 41.3919 143.015 39.4299 143.106C36.2812 143.243 33.8627 146.485 34.0452 150.366L34.6842 164.566L118.872 160.868L124.713 160.594L181.613 158.128L181.568 157.352C185.949 156.485 189.188 151.736 188.96 146.12C188.777 142.102 186.861 138.677 184.169 136.851C184.306 136.166 184.351 135.436 184.306 134.705C184.123 130.322 181.066 126.897 177.507 127.08C175.681 127.171 174.039 128.176 172.944 129.728C171.621 126.715 168.974 124.751 166.008 124.888C165.004 124.934 164.046 125.208 163.224 125.71C162.54 122.514 160.122 120.185 157.293 120.322C154.509 120.459 152.273 122.97 151.863 126.167C150.859 125.299 149.581 124.797 148.258 124.842C147.573 124.888 146.889 125.071 146.296 125.345C146.022 123.153 144.516 121.509 142.691 121.601Z" fill="white"/>
<path opacity="0.7" fill-rule="evenodd" clip-rule="evenodd" d="M100.779 102.977L92.8055 93.4355L84.8318 102.977H89.1811V137.627H96.4857V102.977H100.779Z" fill="white"/>
<path opacity="0.62" fill-rule="evenodd" clip-rule="evenodd" d="M157.801 105.055C157.905 105.107 158.061 105.055 158.113 104.951C158.165 104.847 158.113 104.691 158.009 104.64C157.905 104.587 157.749 104.64 157.697 104.744C157.646 104.847 157.697 104.951 157.801 105.055Z" fill="white"/>
<path opacity="0.62" fill-rule="evenodd" clip-rule="evenodd" d="M144.341 125.146C144.444 125.198 144.6 125.146 144.652 125.042C144.704 124.938 144.652 124.782 144.548 124.73C144.444 124.678 144.289 124.73 144.237 124.834C144.185 124.938 144.237 125.094 144.341 125.146Z" fill="white"/>
<path opacity="0.62" fill-rule="evenodd" clip-rule="evenodd" d="M156.341 136.515C156.445 136.568 156.6 136.515 156.653 136.411C156.704 136.308 156.653 136.152 156.549 136.099C156.445 136.048 156.289 136.099 156.237 136.204C156.185 136.308 156.237 136.463 156.341 136.515Z" fill="white"/>
<path opacity="0.62" fill-rule="evenodd" clip-rule="evenodd" d="M157.299 144.826C157.403 144.878 157.559 144.826 157.611 144.722C157.663 144.618 157.611 144.462 157.507 144.41C157.403 144.358 157.247 144.41 157.196 144.514C157.143 144.67 157.196 144.774 157.299 144.826Z" fill="white"/>
<path opacity="0.62" fill-rule="evenodd" clip-rule="evenodd" d="M151.672 119.797C151.808 119.842 151.946 119.797 152.037 119.66C152.082 119.523 152.037 119.386 151.9 119.294C151.763 119.249 151.626 119.294 151.535 119.431C151.489 119.568 151.535 119.751 151.672 119.797Z" fill="white"/>
<path opacity="0.62" fill-rule="evenodd" clip-rule="evenodd" d="M164.604 90.5982C164.658 90.7041 164.551 90.8626 164.444 90.8626C164.337 90.9155 164.176 90.8096 164.176 90.7041C164.123 90.5982 164.23 90.4398 164.337 90.4398C164.444 90.3868 164.551 90.4398 164.604 90.5982Z" fill="white"/>
<path opacity="0.62" fill-rule="evenodd" clip-rule="evenodd" d="M159.125 20.0827C159.229 20.1347 159.384 20.0827 159.437 19.9787C159.488 19.8748 159.437 19.7189 159.333 19.6669C159.229 19.6149 159.073 19.6669 159.021 19.7709C158.969 19.9268 159.021 20.0307 159.125 20.0827Z" fill="white"/>
<path opacity="0.62" fill-rule="evenodd" clip-rule="evenodd" d="M145.664 40.2183C145.767 40.2704 145.923 40.2183 145.975 40.1144C146.027 40.0105 145.975 39.8544 145.871 39.8027C145.767 39.7505 145.611 39.8027 145.56 39.9066C145.508 40.0105 145.56 40.1144 145.664 40.2183Z" fill="white"/>
<path opacity="0.62" fill-rule="evenodd" clip-rule="evenodd" d="M157.664 51.5878C157.768 51.6396 157.924 51.5878 157.976 51.4835C158.028 51.3796 157.976 51.224 157.872 51.1718C157.768 51.1197 157.612 51.1718 157.561 51.2757C157.508 51.3796 157.561 51.5357 157.664 51.5878Z" fill="white"/>
<path opacity="0.62" fill-rule="evenodd" clip-rule="evenodd" d="M158.622 59.8989C158.726 59.9511 158.882 59.8989 158.934 59.7951C158.986 59.6912 158.934 59.5351 158.83 59.4834C158.726 59.4312 158.57 59.4834 158.518 59.5873C158.467 59.6912 158.518 59.8472 158.622 59.8989Z" fill="white"/>
<path opacity="0.62" fill-rule="evenodd" clip-rule="evenodd" d="M152.995 34.869C153.132 34.9147 153.269 34.869 153.36 34.7322C153.405 34.595 153.36 34.4582 153.223 34.3668C153.086 34.321 152.949 34.3668 152.858 34.504C152.812 34.6407 152.858 34.8233 152.995 34.869Z" fill="white"/>
<path opacity="0.62" fill-rule="evenodd" clip-rule="evenodd" d="M32.9877 76.2372C33.1245 76.2829 33.2613 76.2372 33.3527 76.1004C33.3981 75.9632 33.3527 75.8264 33.2155 75.7349C33.0787 75.6892 32.9419 75.7349 32.8505 75.8721C32.8051 76.0089 32.8505 76.1914 32.9877 76.2372Z" fill="white"/>
<path opacity="0.62" fill-rule="evenodd" clip-rule="evenodd" d="M37.1532 116.881C37.2547 116.934 37.4072 116.881 37.4577 116.777C37.5086 116.674 37.4577 116.518 37.3562 116.466C37.2547 116.414 37.1023 116.466 37.0517 116.57C37.0008 116.725 37.0008 116.83 37.1532 116.881Z" fill="white"/>
<path opacity="0.62" fill-rule="evenodd" clip-rule="evenodd" d="M26.5215 106.015C26.623 106.067 26.7753 106.015 26.826 105.911C26.8768 105.807 26.826 105.651 26.7245 105.6C26.623 105.547 26.4707 105.6 26.42 105.703C26.3693 105.86 26.3693 105.963 26.5215 106.015Z" fill="white"/>
<path opacity="0.62" fill-rule="evenodd" clip-rule="evenodd" d="M31.4513 156.652C31.5552 156.704 31.7108 156.652 31.763 156.548C31.8147 156.444 31.763 156.288 31.6591 156.236C31.5552 156.184 31.3991 156.236 31.3474 156.34C31.2952 156.444 31.3474 156.6 31.4513 156.652Z" fill="white"/>
<path opacity="0.62" fill-rule="evenodd" clip-rule="evenodd" d="M27.7552 136.653C27.8591 136.705 28.0151 136.653 28.0669 136.549C28.119 136.445 28.0669 136.289 27.963 136.237C27.8591 136.185 27.7034 136.237 27.6513 136.341C27.5995 136.445 27.6513 136.601 27.7552 136.653Z" fill="white"/>
<path opacity="0.62" fill-rule="evenodd" clip-rule="evenodd" d="M25.5648 133.685C25.6687 133.737 25.8245 133.685 25.8765 133.581C25.9284 133.478 25.8765 133.321 25.7726 133.269C25.6687 133.218 25.5129 133.269 25.4609 133.373C25.409 133.478 25.4609 133.633 25.5648 133.685Z" fill="white"/>
<path opacity="0.62" fill-rule="evenodd" clip-rule="evenodd" d="M43.1783 154.094C43.2822 154.146 43.4382 154.094 43.49 153.99C43.5421 153.886 43.49 153.73 43.3861 153.679C43.2822 153.627 43.1265 153.679 43.0744 153.783C43.0226 153.886 43.0744 154.043 43.1783 154.094Z" fill="white"/>
<path opacity="0.62" fill-rule="evenodd" clip-rule="evenodd" d="M43.6801 133.503C43.784 133.554 43.94 133.503 43.9918 133.399C44.0439 133.294 43.9918 133.139 43.8879 133.087C43.784 133.035 43.6284 133.087 43.5762 133.191C43.5245 133.295 43.5762 133.451 43.6801 133.503Z" fill="white"/>
<path opacity="0.62" fill-rule="evenodd" clip-rule="evenodd" d="M27.147 110.117C27.2838 110.163 27.4205 110.117 27.512 110.026C27.5577 109.889 27.512 109.752 27.4205 109.661C27.2838 109.615 27.147 109.661 27.0557 109.798C26.9644 109.889 27.01 110.072 27.147 110.117Z" fill="white"/>
<path opacity="0.62" fill-rule="evenodd" clip-rule="evenodd" d="M58.8142 122.811C58.8599 122.947 58.7684 123.085 58.6316 123.13C58.4948 123.176 58.358 123.085 58.3123 122.947C58.2666 122.811 58.358 122.674 58.4948 122.628C58.6316 122.582 58.7684 122.674 58.8142 122.811Z" fill="white"/>
<path opacity="0.62" fill-rule="evenodd" clip-rule="evenodd" d="M33.8282 129.415C33.8819 129.525 33.7748 129.691 33.6677 129.691C33.561 129.746 33.4006 129.636 33.4006 129.525C33.3468 129.415 33.4539 129.249 33.561 129.249C33.6677 129.249 33.7748 129.304 33.8282 129.415Z" fill="white"/>
<path opacity="0.62" fill-rule="evenodd" clip-rule="evenodd" d="M34.3758 97.7229C34.4292 97.8296 34.3225 97.9904 34.2153 97.9904C34.1082 98.0438 33.9482 97.9367 33.9482 97.8296C33.8944 97.7229 34.0015 97.562 34.1082 97.562C34.2153 97.5087 34.3758 97.6158 34.3758 97.7229Z" fill="white"/>
<path opacity="0.62" fill-rule="evenodd" clip-rule="evenodd" d="M21.5992 94.8503C21.6526 94.9606 21.5457 95.1262 21.4388 95.1262C21.3318 95.1816 21.1713 95.0713 21.1713 94.9606C21.1178 94.8503 21.2248 94.6846 21.3318 94.6846C21.3852 94.6846 21.5457 94.7395 21.5992 94.8503Z" fill="white"/>
<path opacity="0.62" fill-rule="evenodd" clip-rule="evenodd" d="M51.4873 98.7301C51.5406 98.8404 51.4335 99.0061 51.3268 99.0061C51.2197 99.0615 51.0592 98.9508 51.0592 98.8404C51.0059 98.7301 51.1126 98.5645 51.2197 98.5645C51.3268 98.5645 51.4873 98.6194 51.4873 98.7301Z" fill="white"/>
<path opacity="0.62" fill-rule="evenodd" clip-rule="evenodd" d="M38.2997 92.3795C38.3535 92.485 38.2464 92.6435 38.1393 92.6435C38.0326 92.6964 37.8721 92.5909 37.8721 92.485C37.8187 92.3795 37.9255 92.221 38.0326 92.221C38.1393 92.1681 38.2464 92.221 38.2997 92.3795Z" fill="white"/>
<path opacity="0.62" fill-rule="evenodd" clip-rule="evenodd" d="M28.17 107.406C28.2237 107.517 28.1166 107.682 28.0095 107.682C27.9028 107.738 27.7424 107.627 27.7424 107.517C27.6886 107.406 27.7957 107.24 27.9028 107.24C28.0095 107.24 28.1166 107.296 28.17 107.406Z" fill="white"/>
<path opacity="0.62" fill-rule="evenodd" clip-rule="evenodd" d="M50.6464 143.677C50.6922 143.814 50.6007 143.951 50.4639 143.996C50.3271 144.042 50.1903 143.951 50.1446 143.814C50.0989 143.677 50.1903 143.54 50.3271 143.494C50.4639 143.449 50.6007 143.54 50.6464 143.677Z" fill="white"/>
<path opacity="0.62" fill-rule="evenodd" clip-rule="evenodd" d="M32.7595 133.357C32.8052 133.494 32.7138 133.631 32.577 133.677C32.4402 133.723 32.303 133.631 32.2577 133.494C32.2119 133.357 32.303 133.22 32.4402 133.175C32.577 133.129 32.7138 133.175 32.7595 133.357Z" fill="white"/>
<path opacity="0.62" fill-rule="evenodd" clip-rule="evenodd" d="M26.3711 95.7794C26.4167 95.9166 26.3255 96.0534 26.1886 96.0991C26.0517 96.1448 25.9148 96.0534 25.8692 95.9166C25.8236 95.7794 25.9148 95.6426 26.0517 95.5969C26.1886 95.5511 26.3255 95.6426 26.3711 95.7794Z" fill="white"/>
<path opacity="0.62" fill-rule="evenodd" clip-rule="evenodd" d="M55.7115 125.87C55.7572 126.053 55.6658 126.281 55.4379 126.327C55.2554 126.372 55.0271 126.281 54.9814 126.053C54.9357 125.87 55.0271 125.641 55.2554 125.596C55.4379 125.55 55.6204 125.687 55.7115 125.87Z" fill="white"/>
<path opacity="0.62" fill-rule="evenodd" clip-rule="evenodd" d="M38.4766 31.9548C38.5781 32.0066 38.7301 31.9548 38.7811 31.8509C38.8316 31.747 38.7811 31.591 38.6796 31.5388C38.5781 31.4871 38.4256 31.5388 38.3751 31.6431C38.3241 31.747 38.3241 31.9027 38.4766 31.9548Z" fill="white"/>
<path opacity="0.62" fill-rule="evenodd" clip-rule="evenodd" d="M27.8467 21.0876C27.9505 21.1396 28.1062 21.0876 28.1583 20.9836C28.2101 20.8797 28.1583 20.7237 28.0544 20.6717C27.9505 20.6198 27.7945 20.6717 27.7428 20.7757C27.6906 20.9316 27.7428 21.0356 27.8467 21.0876Z" fill="white"/>
<path opacity="0.62" fill-rule="evenodd" clip-rule="evenodd" d="M16.074 24.3745C16.1779 24.4267 16.3337 24.3745 16.3856 24.2706C16.4376 24.1667 16.3856 24.0107 16.2817 23.9589C16.1779 23.9068 16.022 23.9589 15.9701 24.0628C15.9181 24.2185 15.9701 24.3228 16.074 24.3745Z" fill="white"/>
<path opacity="0.62" fill-rule="evenodd" clip-rule="evenodd" d="M32.7748 71.7241C32.8787 71.7763 33.0343 71.7241 33.0864 71.6202C33.1382 71.5163 33.0864 71.3603 32.9825 71.3085C32.8787 71.2564 32.7226 71.3085 32.6709 71.4124C32.6187 71.5163 32.6709 71.6724 32.7748 71.7241Z" fill="white"/>
<path opacity="0.62" fill-rule="evenodd" clip-rule="evenodd" d="M29.0784 51.7253C29.1823 51.7771 29.338 51.7253 29.3901 51.6214C29.4419 51.5176 29.3901 51.3615 29.2862 51.3094C29.1823 51.2576 29.0267 51.3094 28.9745 51.4133C28.9228 51.5176 28.9745 51.6732 29.0784 51.7253Z" fill="white"/>
<path opacity="0.62" fill-rule="evenodd" clip-rule="evenodd" d="M15.6157 64.1902C15.7173 64.2419 15.8695 64.1902 15.9203 64.0863C15.971 63.9824 15.9203 63.8263 15.8188 63.7742C15.7173 63.7225 15.565 63.7742 15.5142 63.8781C15.4635 63.9824 15.4635 64.138 15.6157 64.1902Z" fill="white"/>
<path opacity="0.62" fill-rule="evenodd" clip-rule="evenodd" d="M26.8882 48.7576C26.9921 48.8093 27.1477 48.7576 27.1998 48.6537C27.2516 48.5494 27.1998 48.3937 27.096 48.3416C26.9921 48.2898 26.8362 48.3416 26.7843 48.4455C26.7323 48.5494 26.7843 48.7054 26.8882 48.7576Z" fill="white"/>
<path opacity="0.62" fill-rule="evenodd" clip-rule="evenodd" d="M44.5016 69.1675C44.6055 69.2197 44.7611 69.1675 44.8133 69.0636C44.865 68.9597 44.8133 68.8037 44.7094 68.7519C44.6055 68.6998 44.4494 68.7519 44.3977 68.8558C44.3455 68.9597 44.3977 69.1158 44.5016 69.1675Z" fill="white"/>
<path opacity="0.62" fill-rule="evenodd" clip-rule="evenodd" d="M45.0035 48.5747C45.1074 48.6269 45.2634 48.5747 45.3152 48.4708C45.3673 48.3669 45.3152 48.2109 45.2113 48.1591C45.1074 48.107 44.9517 48.1591 44.8996 48.263C44.8478 48.3669 44.8996 48.523 45.0035 48.5747Z" fill="white"/>
<path opacity="0.62" fill-rule="evenodd" clip-rule="evenodd" d="M28.4703 25.1897C28.6071 25.235 28.7439 25.1897 28.8353 25.0983C28.8807 24.9615 28.8353 24.8243 28.7439 24.7328C28.6071 24.6875 28.4703 24.7328 28.3788 24.87C28.2878 24.9615 28.3331 25.144 28.4703 25.1897Z" fill="white"/>
<path opacity="0.62" fill-rule="evenodd" clip-rule="evenodd" d="M60.1377 37.8833C60.1834 38.0201 60.0919 38.1569 59.9552 38.2026C59.8184 38.2483 59.6812 38.1569 59.6358 38.0201C59.5901 37.8833 59.6812 37.7461 59.8184 37.7004C59.9552 37.6546 60.1377 37.7461 60.1377 37.8833Z" fill="white"/>
<path opacity="0.62" fill-rule="evenodd" clip-rule="evenodd" d="M35.1515 44.486C35.2049 44.5967 35.0982 44.7624 34.9911 44.7624C34.884 44.8177 34.7235 44.707 34.7235 44.5967C34.6702 44.486 34.7773 44.3203 34.884 44.3203C34.9911 44.3203 35.0982 44.3757 35.1515 44.486Z" fill="white"/>
<path opacity="0.62" fill-rule="evenodd" clip-rule="evenodd" d="M29.4934 22.4782C29.5467 22.5887 29.44 22.7544 29.3329 22.7544C29.2258 22.8096 29.0657 22.6992 29.0657 22.5887C29.012 22.4782 29.1191 22.3125 29.2258 22.3125C29.3329 22.3125 29.44 22.3677 29.4934 22.4782Z" fill="white"/>
<path opacity="0.62" fill-rule="evenodd" clip-rule="evenodd" d="M51.9698 58.7491C52.0156 58.8863 51.9241 59.0231 51.7873 59.0688C51.6505 59.1146 51.5133 59.0231 51.468 58.8863C51.4223 58.7491 51.5133 58.6123 51.6505 58.5666C51.7873 58.5209 51.9241 58.6123 51.9698 58.7491Z" fill="white"/>
<path opacity="0.62" fill-rule="evenodd" clip-rule="evenodd" d="M34.0828 48.3851C34.1282 48.5219 34.0371 48.6591 33.9003 48.7044C33.7631 48.7501 33.6263 48.6591 33.5806 48.5219C33.5353 48.3851 33.6263 48.2479 33.7631 48.2021C33.9003 48.2021 34.0828 48.2479 34.0828 48.3851Z" fill="white"/>
<path opacity="0.62" fill-rule="evenodd" clip-rule="evenodd" d="M57.0347 40.942C57.0805 41.1246 56.989 41.3528 56.7608 41.3986C56.5782 41.4443 56.3504 41.3528 56.3047 41.1246C56.2589 40.942 56.3504 40.7138 56.5782 40.6681C56.7608 40.6223 56.9433 40.7591 57.0347 40.942Z" fill="white"/>
<path opacity="0.62" fill-rule="evenodd" clip-rule="evenodd" d="M94.6796 69.7997C94.8164 69.8454 94.9536 69.7997 95.0446 69.6629C95.0904 69.5257 95.0446 69.3889 94.9078 69.2974C94.771 69.2517 94.6339 69.2974 94.5428 69.4346C94.4971 69.5714 94.5428 69.7539 94.6796 69.7997Z" fill="white"/>
<path opacity="0.62" fill-rule="evenodd" clip-rule="evenodd" d="M98.8014 110.49C98.9053 110.542 99.061 110.49 99.1131 110.386C99.1649 110.282 99.1131 110.126 99.0092 110.074C98.9053 110.022 98.7497 110.074 98.6975 110.178C98.6458 110.282 98.6975 110.386 98.8014 110.49Z" fill="white"/>
<path opacity="0.62" fill-rule="evenodd" clip-rule="evenodd" d="M88.1698 99.6218C88.2737 99.6736 88.4293 99.6218 88.4815 99.5179C88.5332 99.4136 88.4815 99.258 88.3776 99.2058C88.2737 99.1541 88.1176 99.2058 88.0659 99.3097C88.0137 99.4136 88.0659 99.5697 88.1698 99.6218Z" fill="white"/>
<path opacity="0.62" fill-rule="evenodd" clip-rule="evenodd" d="M76.4424 102.91C76.5463 102.962 76.7024 102.91 76.7541 102.806C76.8063 102.702 76.7541 102.546 76.6502 102.494C76.5463 102.442 76.3907 102.494 76.3385 102.598C76.2868 102.702 76.3385 102.858 76.4424 102.91Z" fill="white"/>
<path opacity="0.62" fill-rule="evenodd" clip-rule="evenodd" d="M62.9799 123.001C63.0813 123.053 63.2338 123.001 63.2843 122.897C63.3353 122.793 63.2843 122.637 63.1828 122.585C63.0813 122.533 62.9293 122.585 62.8784 122.689C62.8278 122.793 62.8278 122.949 62.9799 123.001Z" fill="white"/>
<path opacity="0.62" fill-rule="evenodd" clip-rule="evenodd" d="M74.9823 134.37C75.0862 134.422 75.2423 134.37 75.294 134.266C75.3462 134.162 75.294 134.006 75.1901 133.954C75.0862 133.902 74.9306 133.954 74.8784 134.058C74.8267 134.214 74.8784 134.318 74.9823 134.37Z" fill="white"/>
<path opacity="0.62" fill-rule="evenodd" clip-rule="evenodd" d="M93.1416 150.213C93.2431 150.266 93.3951 150.213 93.4461 150.11C93.4966 150.006 93.4461 149.85 93.3446 149.798C93.2431 149.746 93.0907 149.798 93.0401 149.902C92.9892 150.006 92.9892 150.162 93.1416 150.213Z" fill="white"/>
<path opacity="0.62" fill-rule="evenodd" clip-rule="evenodd" d="M89.4017 130.215C89.5056 130.267 89.6613 130.215 89.7134 130.111C89.7651 130.007 89.7134 129.851 89.6095 129.799C89.5056 129.747 89.3496 129.799 89.2978 129.903C89.2457 130.059 89.2978 130.162 89.4017 130.215Z" fill="white"/>
<path opacity="0.62" fill-rule="evenodd" clip-rule="evenodd" d="M75.9406 142.68C76.0445 142.732 76.2005 142.68 76.2523 142.577C76.3044 142.472 76.2523 142.317 76.1484 142.264C76.0445 142.213 75.8888 142.264 75.8367 142.368C75.7849 142.524 75.8367 142.628 75.9406 142.68Z" fill="white"/>
<path opacity="0.62" fill-rule="evenodd" clip-rule="evenodd" d="M87.2113 127.247C87.3152 127.299 87.4709 127.247 87.523 127.143C87.5748 127.039 87.523 126.883 87.4191 126.831C87.3152 126.779 87.1596 126.831 87.1074 126.935C87.0557 127.039 87.1074 127.194 87.2113 127.247Z" fill="white"/>
<path opacity="0.62" fill-rule="evenodd" clip-rule="evenodd" d="M104.868 147.657C104.97 147.709 105.122 147.657 105.173 147.553C105.224 147.449 105.173 147.293 105.071 147.241C104.97 147.189 104.818 147.241 104.767 147.345C104.716 147.501 104.716 147.605 104.868 147.657Z" fill="white"/>
<path opacity="0.62" fill-rule="evenodd" clip-rule="evenodd" d="M105.372 127.064C105.476 127.116 105.632 127.064 105.684 126.96C105.736 126.856 105.684 126.701 105.58 126.648C105.476 126.596 105.32 126.648 105.269 126.752C105.216 126.856 105.269 127.012 105.372 127.064Z" fill="white"/>
<path opacity="0.62" fill-rule="evenodd" clip-rule="evenodd" d="M70.3134 117.651C70.4501 117.697 70.5869 117.651 70.6784 117.514C70.7237 117.377 70.6784 117.24 70.5412 117.149C70.4044 117.103 70.2676 117.149 70.1762 117.286C70.1308 117.423 70.1762 117.606 70.3134 117.651Z" fill="white"/>
<path opacity="0.62" fill-rule="evenodd" clip-rule="evenodd" d="M88.8389 103.679C88.9757 103.724 89.1128 103.679 89.2039 103.588C89.2496 103.45 89.2039 103.314 89.1128 103.222C88.9757 103.177 88.8389 103.222 88.7478 103.359C88.6563 103.45 88.7021 103.633 88.8389 103.679Z" fill="white"/>
<path opacity="0.62" fill-rule="evenodd" clip-rule="evenodd" d="M120.506 116.372C120.552 116.509 120.461 116.646 120.324 116.692C120.187 116.737 120.05 116.646 120.004 116.509C119.959 116.372 120.05 116.235 120.187 116.189C120.324 116.144 120.461 116.235 120.506 116.372Z" fill="white"/>
<path opacity="0.62" fill-rule="evenodd" clip-rule="evenodd" d="M95.4748 123.017C95.5281 123.123 95.421 123.281 95.3143 123.281C95.2072 123.334 95.0467 123.229 95.0467 123.123C94.9934 123.017 95.1005 122.859 95.2072 122.859C95.3143 122.806 95.4748 122.859 95.4748 123.017Z" fill="white"/>
<path opacity="0.62" fill-rule="evenodd" clip-rule="evenodd" d="M96.0677 91.2877C96.1214 91.3985 96.0143 91.5641 95.9072 91.5641C95.8005 91.6195 95.64 91.5088 95.64 91.3985C95.5867 91.2877 95.6934 91.1221 95.8005 91.1221C95.9072 91.1221 96.0143 91.1774 96.0677 91.2877Z" fill="white"/>
<path opacity="0.62" fill-rule="evenodd" clip-rule="evenodd" d="M83.2456 88.4527C83.2993 88.5586 83.1922 88.7171 83.0851 88.7171C82.9784 88.7701 82.8179 88.6641 82.8179 88.5586C82.7642 88.4527 82.8713 88.2943 82.9784 88.2943C83.0851 88.2413 83.1922 88.2943 83.2456 88.4527Z" fill="white"/>
<path opacity="0.62" fill-rule="evenodd" clip-rule="evenodd" d="M113.179 92.3346C113.232 92.4405 113.126 92.5989 113.019 92.5989C112.912 92.6515 112.751 92.546 112.751 92.4405C112.698 92.3346 112.805 92.1761 112.912 92.1761C113.019 92.1232 113.126 92.1761 113.179 92.3346Z" fill="white"/>
<path opacity="0.62" fill-rule="evenodd" clip-rule="evenodd" d="M99.992 85.9422C100.045 86.0493 99.9382 86.2098 99.8315 86.2098C99.7244 86.2635 99.564 86.1564 99.564 86.0493C99.5106 85.9422 99.6177 85.7817 99.7244 85.7817C99.7782 85.7284 99.9382 85.8355 99.992 85.9422Z" fill="white"/>
<path opacity="0.62" fill-rule="evenodd" clip-rule="evenodd" d="M89.8165 100.968C89.8698 101.079 89.7631 101.244 89.656 101.244C89.5489 101.3 89.3884 101.189 89.3884 101.079C89.3351 100.968 89.4422 100.803 89.5489 100.803C89.656 100.803 89.8165 100.858 89.8165 100.968Z" fill="white"/>
<path opacity="0.62" fill-rule="evenodd" clip-rule="evenodd" d="M112.293 137.239C112.338 137.376 112.247 137.513 112.111 137.559C111.973 137.604 111.837 137.513 111.791 137.376C111.745 137.239 111.837 137.102 111.973 137.057C112.111 137.011 112.247 137.102 112.293 137.239Z" fill="white"/>
<path opacity="0.62" fill-rule="evenodd" clip-rule="evenodd" d="M94.4514 126.919C94.4971 127.056 94.4056 127.193 94.2688 127.239C94.1321 127.284 93.9953 127.193 93.9495 127.056C93.9038 126.919 93.9953 126.782 94.1321 126.737C94.2688 126.691 94.4056 126.782 94.4514 126.919Z" fill="white"/>
<path opacity="0.62" fill-rule="evenodd" clip-rule="evenodd" d="M88.0177 89.3417C88.0634 89.4789 87.9719 89.6157 87.8352 89.6614C87.6984 89.7072 87.5612 89.6157 87.5158 89.4789C87.4701 89.3417 87.5612 89.2049 87.6984 89.1592C87.8352 89.1592 88.0177 89.2049 88.0177 89.3417Z" fill="white"/>
<path opacity="0.62" fill-rule="evenodd" clip-rule="evenodd" d="M117.358 119.431C117.404 119.614 117.312 119.842 117.084 119.888C116.901 119.934 116.674 119.842 116.628 119.614C116.582 119.431 116.674 119.203 116.901 119.157C117.084 119.112 117.312 119.249 117.358 119.431Z" fill="white"/>
<path opacity="0.62" fill-rule="evenodd" clip-rule="evenodd" d="M100.125 25.5164C100.229 25.5681 100.384 25.5164 100.436 25.4125C100.488 25.3086 100.436 25.1525 100.333 25.1004C100.229 25.0486 100.073 25.1004 100.021 25.2043C99.9687 25.3603 100.021 25.4642 100.125 25.5164Z" fill="white"/>
<path opacity="0.62" fill-rule="evenodd" clip-rule="evenodd" d="M77.7659 17.9821C77.8698 18.0341 78.0259 17.9821 78.0776 17.8782C78.1298 17.7742 78.0776 17.6183 77.9737 17.5663C77.8698 17.5143 77.7142 17.5663 77.662 17.6703C77.6103 17.7742 77.662 17.8782 77.7659 17.9821Z" fill="white"/>
<path opacity="0.62" fill-rule="evenodd" clip-rule="evenodd" d="M64.3032 38.073C64.4047 38.1248 64.5572 38.073 64.6077 37.9691C64.6587 37.8652 64.6077 37.7092 64.5062 37.657C64.4047 37.6053 64.2523 37.657 64.2018 37.7609C64.1508 37.8652 64.1508 38.0209 64.3032 38.073Z" fill="white"/>
<path opacity="0.62" fill-rule="evenodd" clip-rule="evenodd" d="M76.3058 49.4419C76.4097 49.4941 76.5658 49.4419 76.6175 49.338C76.6697 49.2341 76.6175 49.0781 76.5136 49.0263C76.4097 48.9742 76.2541 49.0263 76.2019 49.1302C76.1502 49.2341 76.2019 49.3902 76.3058 49.4419Z" fill="white"/>
<path opacity="0.62" fill-rule="evenodd" clip-rule="evenodd" d="M94.4646 65.2866C94.5665 65.3388 94.7185 65.2866 94.7695 65.1828C94.82 65.0789 94.7695 64.9228 94.668 64.8711C94.5665 64.8189 94.4141 64.8711 94.3631 64.975C94.3126 65.0789 94.3126 65.2349 94.4646 65.2866Z" fill="white"/>
<path opacity="0.62" fill-rule="evenodd" clip-rule="evenodd" d="M90.7246 45.2869C90.8285 45.3386 90.9846 45.2869 91.0363 45.183C91.0885 45.0787 91.0363 44.923 90.9324 44.8709C90.8285 44.8191 90.6729 44.8709 90.6208 44.9748C90.569 45.1308 90.6208 45.2347 90.7246 45.2869Z" fill="white"/>
<path opacity="0.62" fill-rule="evenodd" clip-rule="evenodd" d="M77.2639 57.7525C77.3678 57.8046 77.5234 57.7525 77.5756 57.6486C77.6273 57.5447 77.5756 57.389 77.4717 57.3369C77.3678 57.2847 77.2117 57.3369 77.16 57.4408C77.1078 57.5968 77.16 57.7007 77.2639 57.7525Z" fill="white"/>
<path opacity="0.62" fill-rule="evenodd" clip-rule="evenodd" d="M88.5346 42.3193C88.6385 42.371 88.7942 42.3193 88.8463 42.215C88.8981 42.1111 88.8463 41.9554 88.7424 41.9033C88.6385 41.8511 88.4825 41.9033 88.4307 42.0072C88.3786 42.1111 88.4307 42.2671 88.5346 42.3193Z" fill="white"/>
<path opacity="0.62" fill-rule="evenodd" clip-rule="evenodd" d="M106.193 62.729C106.297 62.7812 106.453 62.729 106.505 62.6251C106.557 62.5212 106.505 62.3652 106.401 62.3134C106.297 62.2613 106.142 62.3134 106.09 62.4173C106.038 62.5212 106.09 62.6773 106.193 62.729Z" fill="white"/>
<path opacity="0.62" fill-rule="evenodd" clip-rule="evenodd" d="M106.695 42.1365C106.799 42.1886 106.955 42.1365 107.007 42.0326C107.059 41.9287 107.007 41.7726 106.903 41.7205C106.799 41.6687 106.643 41.7205 106.591 41.8248C106.54 41.9287 106.591 42.0843 106.695 42.1365Z" fill="white"/>
<path opacity="0.62" fill-rule="evenodd" clip-rule="evenodd" d="M71.6363 32.7233C71.7734 32.7691 71.9102 32.7233 72.0013 32.5865C72.047 32.4497 72.0013 32.3125 71.8645 32.2211C71.7277 32.1758 71.5909 32.2211 71.4995 32.3583C71.4537 32.4951 71.4995 32.678 71.6363 32.7233Z" fill="white"/>
<path opacity="0.62" fill-rule="evenodd" clip-rule="evenodd" d="M90.1622 18.7511C90.299 18.7967 90.4358 18.7511 90.5273 18.6597C90.573 18.5228 90.5273 18.3858 90.4358 18.2945C90.299 18.2488 90.1622 18.2945 90.0708 18.4314C89.9797 18.5228 90.0254 18.7054 90.1622 18.7511Z" fill="white"/>
<path opacity="0.62" fill-rule="evenodd" clip-rule="evenodd" d="M121.83 31.4444C121.875 31.5816 121.784 31.7184 121.647 31.7641C121.51 31.8099 121.374 31.7184 121.328 31.5816C121.282 31.4444 121.374 31.3076 121.51 31.2619C121.647 31.2162 121.784 31.3076 121.83 31.4444Z" fill="white"/>
<path opacity="0.62" fill-rule="evenodd" clip-rule="evenodd" d="M96.7977 38.0485C96.8514 38.1592 96.7443 38.3249 96.6372 38.3249C96.5305 38.3802 96.37 38.2695 96.37 38.1592C96.3163 38.0485 96.4234 37.8828 96.5305 37.8828C96.6372 37.8828 96.7977 37.9382 96.7977 38.0485Z" fill="white"/>
<path opacity="0.62" fill-rule="evenodd" clip-rule="evenodd" d="M91.1398 16.0397C91.1932 16.1502 91.0861 16.3159 90.9794 16.3159C90.8723 16.3712 90.7118 16.2607 90.7118 16.1502C90.6585 16.0397 90.7652 15.874 90.8723 15.874C90.9794 15.874 91.1398 15.9293 91.1398 16.0397Z" fill="white"/>
<path opacity="0.62" fill-rule="evenodd" clip-rule="evenodd" d="M113.616 52.3106C113.662 52.4478 113.571 52.5846 113.433 52.6304C113.297 52.6761 113.16 52.5846 113.114 52.4478C113.068 52.3106 113.16 52.1738 113.297 52.1281C113.433 52.0824 113.571 52.1738 113.616 52.3106Z" fill="white"/>
<path opacity="0.62" fill-rule="evenodd" clip-rule="evenodd" d="M95.7746 41.9923C95.8204 42.1295 95.7289 42.2663 95.5921 42.312C95.4553 42.3577 95.3181 42.2663 95.2728 42.1295C95.2271 41.9923 95.3181 41.8555 95.4553 41.8098C95.5921 41.764 95.7289 41.8555 95.7746 41.9923Z" fill="white"/>
<path opacity="0.62" fill-rule="evenodd" clip-rule="evenodd" d="M118.681 34.5045C118.727 34.6871 118.636 34.9153 118.408 34.9611C118.225 35.0068 117.997 34.9153 117.951 34.6871C117.906 34.5045 117.997 34.2759 118.225 34.2306C118.408 34.1848 118.636 34.3216 118.681 34.5045Z" fill="white"/>
<path opacity="0.62" fill-rule="evenodd" clip-rule="evenodd" d="M130.869 70.9051C131.005 70.9509 131.142 70.9051 131.234 70.768C131.279 70.6312 131.234 70.494 131.097 70.4029C130.96 70.3572 130.823 70.4029 130.732 70.5397C130.686 70.6769 130.777 70.8594 130.869 70.9051Z" fill="white"/>
<path opacity="0.62" fill-rule="evenodd" clip-rule="evenodd" d="M135.036 111.595C135.14 111.648 135.296 111.595 135.348 111.492C135.4 111.388 135.348 111.232 135.244 111.179C135.14 111.128 134.984 111.179 134.932 111.284C134.88 111.388 134.932 111.543 135.036 111.595Z" fill="white"/>
<path opacity="0.62" fill-rule="evenodd" clip-rule="evenodd" d="M124.404 100.728C124.508 100.78 124.664 100.728 124.716 100.624C124.768 100.52 124.716 100.364 124.612 100.312C124.508 100.26 124.352 100.312 124.3 100.416C124.248 100.52 124.3 100.676 124.404 100.728Z" fill="white"/>
<path opacity="0.62" fill-rule="evenodd" clip-rule="evenodd" d="M112.634 104.016C112.743 104.068 112.906 104.016 112.96 103.912C113.015 103.808 112.96 103.652 112.851 103.601C112.743 103.548 112.579 103.601 112.525 103.704C112.525 103.808 112.525 103.964 112.634 104.016Z" fill="white"/>
<path opacity="0.62" fill-rule="evenodd" clip-rule="evenodd" d="M99.1706 124.106C99.2745 124.158 99.4305 124.106 99.4823 124.002C99.5344 123.898 99.4823 123.742 99.3784 123.69C99.2745 123.638 99.1188 123.69 99.0667 123.794C99.0149 123.898 99.0667 124.054 99.1706 124.106Z" fill="white"/>
<path opacity="0.62" fill-rule="evenodd" clip-rule="evenodd" d="M111.217 135.476C111.321 135.528 111.477 135.476 111.529 135.372C111.581 135.268 111.529 135.112 111.425 135.061C111.321 135.008 111.165 135.061 111.113 135.164C111.061 135.32 111.113 135.424 111.217 135.476Z" fill="white"/>
<path opacity="0.62" fill-rule="evenodd" clip-rule="evenodd" d="M129.332 151.32C129.436 151.372 129.592 151.32 129.644 151.216C129.696 151.112 129.644 150.956 129.54 150.904C129.436 150.852 129.28 150.904 129.229 151.008C129.176 151.112 129.229 151.268 129.332 151.32Z" fill="white"/>
<path opacity="0.62" fill-rule="evenodd" clip-rule="evenodd" d="M125.636 131.367C125.74 131.419 125.896 131.367 125.948 131.263C126 131.159 125.948 131.003 125.844 130.951C125.74 130.899 125.584 130.951 125.532 131.055C125.48 131.159 125.532 131.263 125.636 131.367Z" fill="white"/>
<path opacity="0.62" fill-rule="evenodd" clip-rule="evenodd" d="M112.175 143.786C112.279 143.838 112.435 143.786 112.487 143.682C112.539 143.578 112.487 143.422 112.383 143.37C112.279 143.318 112.123 143.37 112.071 143.474C112.019 143.63 112.071 143.734 112.175 143.786Z" fill="white"/>
<path opacity="0.62" fill-rule="evenodd" clip-rule="evenodd" d="M123.446 128.352C123.55 128.404 123.706 128.352 123.758 128.248C123.81 128.144 123.758 127.988 123.654 127.936C123.55 127.884 123.394 127.936 123.342 128.04C123.29 128.144 123.342 128.3 123.446 128.352Z" fill="white"/>
<path opacity="0.62" fill-rule="evenodd" clip-rule="evenodd" d="M141.059 148.762C141.163 148.814 141.319 148.762 141.371 148.658C141.422 148.554 141.371 148.398 141.267 148.347C141.163 148.294 141.007 148.347 140.955 148.451C140.903 148.607 140.955 148.71 141.059 148.762Z" fill="white"/>
<path opacity="0.62" fill-rule="evenodd" clip-rule="evenodd" d="M141.605 128.17C141.707 128.223 141.859 128.17 141.91 128.067C141.96 127.963 141.91 127.807 141.808 127.755C141.707 127.703 141.554 127.755 141.504 127.859C141.453 128.015 141.453 128.119 141.605 128.17Z" fill="white"/>
<path opacity="0.62" fill-rule="evenodd" clip-rule="evenodd" d="M106.548 118.757C106.685 118.802 106.821 118.757 106.913 118.62C106.959 118.483 106.913 118.346 106.776 118.254C106.639 118.209 106.502 118.254 106.411 118.391C106.365 118.528 106.411 118.711 106.548 118.757Z" fill="white"/>
<path opacity="0.62" fill-rule="evenodd" clip-rule="evenodd" d="M125.028 104.83C125.165 104.876 125.302 104.83 125.393 104.739C125.439 104.602 125.393 104.465 125.302 104.374C125.165 104.328 125.028 104.374 124.937 104.511C124.845 104.602 124.937 104.739 125.028 104.83Z" fill="white"/>
<path opacity="0.62" fill-rule="evenodd" clip-rule="evenodd" d="M156.741 117.478C156.786 117.615 156.695 117.752 156.559 117.797C156.421 117.843 156.285 117.752 156.239 117.615C156.193 117.478 156.285 117.341 156.421 117.295C156.513 117.249 156.695 117.341 156.741 117.478Z" fill="white"/>
<path opacity="0.62" fill-rule="evenodd" clip-rule="evenodd" d="M131.709 124.124C131.763 124.229 131.656 124.388 131.549 124.388C131.442 124.441 131.281 124.335 131.281 124.229C131.228 124.124 131.335 123.965 131.442 123.965C131.549 123.912 131.656 123.965 131.709 124.124Z" fill="white"/>
<path opacity="0.62" fill-rule="evenodd" clip-rule="evenodd" d="M132.303 92.3932C132.356 92.5035 132.249 92.6692 132.142 92.6692C132.035 92.7246 131.875 92.6142 131.875 92.5035C131.821 92.3932 131.928 92.2275 132.035 92.2275C132.089 92.2275 132.249 92.2825 132.303 92.3932Z" fill="white"/>
<path opacity="0.62" fill-rule="evenodd" clip-rule="evenodd" d="M119.481 89.5596C119.534 89.6667 119.427 89.8271 119.32 89.8271C119.213 89.8805 119.053 89.7738 119.053 89.6667C118.999 89.5596 119.106 89.3991 119.213 89.3991C119.32 89.3453 119.427 89.4525 119.481 89.5596Z" fill="white"/>
<path opacity="0.62" fill-rule="evenodd" clip-rule="evenodd" d="M149.368 93.4399C149.422 93.5458 149.314 93.7042 149.208 93.7042C149.101 93.7572 148.94 93.6513 148.94 93.5458C148.887 93.4399 148.994 93.2814 149.101 93.2814C149.208 93.2289 149.368 93.2814 149.368 93.4399Z" fill="white"/>
<path opacity="0.62" fill-rule="evenodd" clip-rule="evenodd" d="M136.181 87.0514C136.234 87.1617 136.127 87.3274 136.02 87.3274C135.913 87.3828 135.753 87.2721 135.753 87.1617C135.7 87.0514 135.806 86.8857 135.913 86.8857C136.02 86.8857 136.181 86.9407 136.181 87.0514Z" fill="white"/>
<path opacity="0.62" fill-rule="evenodd" clip-rule="evenodd" d="M126.051 102.115C126.105 102.22 125.997 102.379 125.89 102.379C125.784 102.432 125.623 102.326 125.623 102.22C125.569 102.115 125.677 101.956 125.784 101.956C125.89 101.903 125.997 101.956 126.051 102.115Z" fill="white"/>
<path opacity="0.62" fill-rule="evenodd" clip-rule="evenodd" d="M148.527 138.345C148.573 138.482 148.482 138.619 148.345 138.665C148.208 138.71 148.071 138.619 148.026 138.482C147.98 138.345 148.071 138.208 148.208 138.162C148.345 138.117 148.482 138.208 148.527 138.345Z" fill="white"/>
<path opacity="0.62" fill-rule="evenodd" clip-rule="evenodd" d="M130.686 128.025C130.732 128.162 130.641 128.299 130.504 128.345C130.367 128.391 130.23 128.299 130.185 128.162C130.139 128.025 130.23 127.889 130.367 127.843C130.458 127.797 130.641 127.889 130.686 128.025Z" fill="white"/>
<path opacity="0.62" fill-rule="evenodd" clip-rule="evenodd" d="M124.252 90.493C124.298 90.6302 124.207 90.767 124.07 90.8127C123.933 90.8584 123.796 90.767 123.75 90.6302C123.705 90.493 123.796 90.3562 123.933 90.3104C124.07 90.2647 124.207 90.3104 124.252 90.493Z" fill="white"/>
<path opacity="0.62" fill-rule="evenodd" clip-rule="evenodd" d="M153.592 120.583C153.638 120.766 153.546 120.994 153.319 121.04C153.136 121.086 152.908 120.994 152.862 120.766C152.816 120.583 152.908 120.355 153.136 120.309C153.319 120.264 153.501 120.355 153.592 120.583Z" fill="white"/>
<path opacity="0.62" fill-rule="evenodd" clip-rule="evenodd" d="M136.538 26.8406C136.642 26.8923 136.797 26.8406 136.85 26.7367C136.901 26.6328 136.85 26.4767 136.746 26.4246C136.642 26.3728 136.486 26.4246 136.434 26.5285C136.382 26.6328 136.434 26.7367 136.538 26.8406Z" fill="white"/>
<path opacity="0.62" fill-rule="evenodd" clip-rule="evenodd" d="M125.906 15.9733C126.01 16.0253 126.166 15.9733 126.217 15.8694C126.27 15.7654 126.217 15.6095 126.113 15.5575C126.01 15.5055 125.854 15.5575 125.802 15.6615C125.75 15.7654 125.802 15.9213 125.906 15.9733Z" fill="white"/>
<path opacity="0.62" fill-rule="evenodd" clip-rule="evenodd" d="M114.177 19.2604C114.279 19.3124 114.431 19.2604 114.482 19.1565C114.532 19.0525 114.482 18.8966 114.38 18.8446C114.279 18.7926 114.126 18.8446 114.076 18.9486C114.025 19.0525 114.025 19.2084 114.177 19.2604Z" fill="white"/>
<path opacity="0.62" fill-rule="evenodd" clip-rule="evenodd" d="M100.672 39.3513C100.776 39.4031 100.932 39.3513 100.984 39.2474C101.036 39.1435 100.984 38.9875 100.88 38.9353C100.776 38.8836 100.62 38.9353 100.569 39.0392C100.516 39.1435 100.569 39.2992 100.672 39.3513Z" fill="white"/>
<path opacity="0.62" fill-rule="evenodd" clip-rule="evenodd" d="M112.719 50.7205C112.822 50.7726 112.979 50.7205 113.03 50.6166C113.082 50.5127 113.03 50.3566 112.926 50.3045C112.822 50.2527 112.667 50.3045 112.615 50.4088C112.563 50.5644 112.615 50.6683 112.719 50.7205Z" fill="white"/>
<path opacity="0.62" fill-rule="evenodd" clip-rule="evenodd" d="M130.834 66.565C130.938 66.6171 131.094 66.565 131.146 66.4611C131.198 66.3572 131.146 66.2011 131.042 66.1494C130.938 66.0972 130.782 66.1494 130.73 66.2533C130.678 66.3572 130.73 66.5132 130.834 66.565Z" fill="white"/>
<path opacity="0.62" fill-rule="evenodd" clip-rule="evenodd" d="M127.138 46.6111C127.242 46.6632 127.398 46.6111 127.449 46.5072C127.502 46.4033 127.449 46.2472 127.346 46.1951C127.242 46.1433 127.086 46.1951 127.034 46.2994C126.982 46.4033 127.034 46.5072 127.138 46.6111Z" fill="white"/>
<path opacity="0.62" fill-rule="evenodd" clip-rule="evenodd" d="M113.677 59.03C113.781 59.0818 113.937 59.03 113.989 58.9261C114.041 58.8218 113.989 58.6662 113.885 58.614C113.781 58.5623 113.625 58.614 113.573 58.7179C113.521 58.874 113.573 58.9779 113.677 59.03Z" fill="white"/>
<path opacity="0.62" fill-rule="evenodd" clip-rule="evenodd" d="M124.948 43.5986C125.052 43.6503 125.207 43.5986 125.26 43.4943C125.311 43.3904 125.26 43.2347 125.156 43.1826C125.052 43.1304 124.896 43.1826 124.844 43.2865C124.792 43.3904 124.844 43.5464 124.948 43.5986Z" fill="white"/>
<path opacity="0.62" fill-rule="evenodd" clip-rule="evenodd" d="M142.561 64.0083C142.665 64.0605 142.821 64.0083 142.872 63.9044C142.925 63.8005 142.872 63.6445 142.769 63.5927C142.665 63.5406 142.509 63.5927 142.457 63.6966C142.405 63.8527 142.457 63.9566 142.561 64.0083Z" fill="white"/>
<path opacity="0.62" fill-rule="evenodd" clip-rule="evenodd" d="M143.108 43.4146C143.212 43.4667 143.368 43.4146 143.42 43.3107C143.472 43.2068 143.42 43.0507 143.316 42.999C143.212 42.9468 143.057 42.999 143.004 43.1029C142.953 43.2068 143.004 43.3628 143.108 43.4146Z" fill="white"/>
<path opacity="0.62" fill-rule="evenodd" clip-rule="evenodd" d="M108.049 34.0018C108.186 34.0475 108.323 34.0018 108.414 33.865C108.46 33.7278 108.414 33.591 108.277 33.4996C108.141 33.4538 108.003 33.4996 107.912 33.6368C107.867 33.7736 107.912 33.9561 108.049 34.0018Z" fill="white"/>
<path opacity="0.62" fill-rule="evenodd" clip-rule="evenodd" d="M126.529 20.0294C126.666 20.075 126.803 20.0294 126.895 19.9381C126.94 19.8011 126.895 19.6641 126.803 19.5728C126.666 19.5271 126.529 19.5728 126.438 19.7098C126.347 19.8467 126.438 19.9837 126.529 20.0294Z" fill="white"/>
<path opacity="0.62" fill-rule="evenodd" clip-rule="evenodd" d="M158.243 32.7227C158.288 32.8599 158.197 32.9967 158.06 33.0425C157.923 33.0882 157.786 32.9967 157.741 32.8599C157.695 32.7227 157.786 32.586 157.923 32.5402C158.014 32.4945 158.197 32.586 158.243 32.7227Z" fill="white"/>
<path opacity="0.62" fill-rule="evenodd" clip-rule="evenodd" d="M133.211 39.3678C133.265 39.4737 133.157 39.6321 133.051 39.6321C132.944 39.6847 132.783 39.5792 132.783 39.4737C132.73 39.3678 132.837 39.2093 132.944 39.2093C133.051 39.1564 133.157 39.2093 133.211 39.3678Z" fill="white"/>
<path opacity="0.62" fill-rule="evenodd" clip-rule="evenodd" d="M127.553 17.319C127.606 17.4295 127.499 17.5952 127.392 17.5952C127.285 17.6505 127.125 17.54 127.125 17.4295C127.071 17.319 127.178 17.1533 127.285 17.1533C127.392 17.1533 127.499 17.2086 127.553 17.319Z" fill="white"/>
<path opacity="0.62" fill-rule="evenodd" clip-rule="evenodd" d="M150.029 53.589C150.075 53.7262 149.984 53.8629 149.847 53.9087C149.71 53.9544 149.573 53.8629 149.527 53.7262C149.482 53.589 149.573 53.4522 149.71 53.4064C149.847 53.3607 149.984 53.4522 150.029 53.589Z" fill="white"/>
<path opacity="0.62" fill-rule="evenodd" clip-rule="evenodd" d="M132.188 43.2706C132.234 43.4078 132.142 43.5446 132.005 43.5903C131.869 43.6361 131.731 43.5446 131.686 43.4078C131.64 43.2706 131.731 43.1338 131.869 43.0881C131.96 43.0423 132.142 43.1338 132.188 43.2706Z" fill="white"/>
<path opacity="0.62" fill-rule="evenodd" clip-rule="evenodd" d="M155.094 35.7824C155.14 35.9653 155.049 36.1936 154.82 36.2393C154.638 36.285 154.41 36.1936 154.364 35.9653C154.319 35.7824 154.41 35.5541 154.638 35.5088C154.82 35.5088 155.049 35.5999 155.094 35.7824Z" fill="white"/>
</g>
<path fill-rule="evenodd" clip-rule="evenodd" d="M89.0756 62.8352C88.9384 63.0181 86.7028 64.2051 86.7028 64.2051C86.7028 64.2051 86.3377 64.5702 85.8359 66.2598C85.3336 67.9491 85.1511 69.593 85.1511 69.4558C85.1511 69.319 86.1095 68.1773 86.1095 68.1773C86.1095 68.1773 85.6534 70.2778 85.6534 72.1499C85.6534 74.0679 85.8812 75.8028 85.8812 75.5746C85.8812 75.3463 86.5203 73.7481 86.5203 73.7481C86.5203 73.7481 86.7485 76.0311 87.5239 78.0858C88.2998 80.1405 88.8931 81.2364 88.8473 80.9625C88.8016 80.6885 89.3949 78.6795 89.3949 78.6795C89.3949 78.6795 89.7142 81.5558 90.9008 84.0674C91.3112 84.9804 91.6762 85.7109 91.9502 86.2589C92.2238 85.7109 92.5435 85.0261 92.9997 84.0674C94.1405 81.5558 94.5056 78.6795 94.5056 78.6795C94.5056 78.6795 95.0985 80.6885 95.0531 80.9625C95.0074 81.2364 95.6007 80.1862 96.3761 78.0858C97.152 76.0311 97.3802 73.7481 97.3802 73.7481C97.3802 73.7481 98.0189 75.3463 98.0189 75.5746C98.0189 75.8028 98.2471 74.0679 98.2471 72.1499C98.2471 70.232 97.791 68.1773 97.791 68.1773C97.791 68.1773 98.749 69.2733 98.749 69.4558C98.749 69.593 98.5664 67.9491 98.0646 66.2598C97.5627 64.5702 97.1977 64.2051 97.1977 64.2051C97.1977 64.2051 94.9617 62.9724 94.8249 62.8352L91.9502 62.7441L89.0756 62.8352Z" fill="#F9B059"/>
<path fill-rule="evenodd" clip-rule="evenodd" d="M86.9762 65.8487L87.7978 64.89L87.0677 68.3603C86.9305 69.0908 86.7937 69.8671 86.7026 70.6433L87.0677 69.6388L87.4327 73.611C87.5695 74.9352 87.8888 76.4877 88.3454 77.7204C88.3907 77.8576 88.4364 77.9487 88.4821 78.0859L89.7141 73.8393L90.2616 78.4966C90.4442 80.1406 90.9917 82.1038 91.6761 83.6105C91.7218 83.7477 91.7676 83.8388 91.8586 83.976C91.9044 83.8388 91.9954 83.7477 92.0412 83.6105C92.7255 82.1495 93.2731 80.1406 93.4556 78.4966L94.0032 73.8393L95.2355 78.0859C95.2809 77.9487 95.3266 77.8576 95.3723 77.7204C95.8284 76.4877 96.1935 74.9352 96.2849 73.611L96.65 69.6388L97.015 70.6433C96.9236 69.8671 96.8325 69.0908 96.65 68.3603L95.9199 64.89L96.7411 65.8487C96.65 65.5294 96.4675 65.164 96.376 64.9357C96.0567 64.7532 95.6916 64.5702 95.3723 64.342C95.1441 64.2052 94.688 63.9769 94.3682 63.7487L91.8129 63.6572L89.258 63.7487C88.9383 63.9769 88.4821 64.2052 88.2539 64.342C87.9346 64.5249 87.5695 64.7074 87.2502 64.9357C87.2502 65.164 87.113 65.5294 86.9762 65.8487Z" fill="#F7CE78"/>
<path fill-rule="evenodd" clip-rule="evenodd" d="M91.95 80.7338C92.1779 79.9575 92.3151 79.1813 92.4061 78.4508L93.5928 68.1769L95.2355 73.7934L95.6916 68.7249L95.0072 65.3917L94.9615 65.346C94.6879 65.2092 94.4139 65.0267 94.1857 64.8895L91.9954 64.8438L89.8055 64.8895C89.5315 65.0267 89.2579 65.2092 89.0297 65.346L88.9839 65.3917L88.2996 68.6338C88.2996 68.6796 88.2996 68.8164 88.2996 68.8621L88.7557 73.8388L90.3984 68.2227L91.585 78.4961C91.585 79.1813 91.7218 79.9575 91.95 80.7338Z" fill="#F6F0EB"/>
<path fill-rule="evenodd" clip-rule="evenodd" d="M87.0221 59.6846H97.0152L98.5665 65.5747H85.4705L87.0221 59.6846Z" fill="url(#paint1_linear)"/>
<path opacity="0.17" fill-rule="evenodd" clip-rule="evenodd" d="M86.6571 61.0996C86.7939 61.0996 86.9307 61.0996 87.0679 61.0996C86.9307 61.7386 86.7481 62.3781 86.5656 63.1086C86.3831 63.8848 86.2006 64.7068 85.9727 65.5744C85.7902 65.5744 85.653 65.5744 85.4705 65.5744C85.6987 64.7068 85.927 63.8848 86.1095 63.1086C86.3378 62.4238 86.4745 61.7386 86.6571 61.0996Z" fill="white"/>
<path opacity="0.17" fill-rule="evenodd" clip-rule="evenodd" d="M87.7064 61.0996C87.8436 61.0996 87.9803 61.0996 88.1171 61.0996C87.9803 61.7386 87.8432 62.3781 87.7064 63.1086C87.5696 63.8848 87.387 64.7068 87.2503 65.5744C87.0677 65.5744 86.9309 65.5744 86.7484 65.5744C86.9309 64.7068 87.1135 63.8848 87.296 63.1086C87.4328 62.4238 87.5696 61.7386 87.7064 61.0996Z" fill="white"/>
<path opacity="0.17" fill-rule="evenodd" clip-rule="evenodd" d="M88.7106 61.0996C88.8474 61.0996 88.9841 61.0996 89.1209 61.0996C89.0299 61.7386 88.9384 62.3781 88.8474 63.1086C88.7559 63.8848 88.6191 64.7068 88.4823 65.5744C88.2998 65.5744 88.163 65.5744 87.9805 65.5744C88.1173 64.7068 88.2541 63.8848 88.3908 63.1086C88.528 62.4238 88.6191 61.7386 88.7106 61.0996Z" fill="white"/>
<path opacity="0.17" fill-rule="evenodd" clip-rule="evenodd" d="M89.7599 61.0996C89.8967 61.0996 90.0335 61.0996 90.1707 61.0996C90.1249 61.7386 90.0335 62.3781 89.9881 63.1086C89.8967 63.8848 89.851 64.7068 89.7599 65.5744C89.5774 65.5744 89.4406 65.5744 89.2581 65.5744C89.3491 64.7068 89.4406 63.8848 89.5316 63.1086C89.6231 62.4238 89.6684 61.7386 89.7599 61.0996Z" fill="white"/>
<path opacity="0.17" fill-rule="evenodd" clip-rule="evenodd" d="M90.7636 61.0996C90.9008 61.0996 91.0376 61.0996 91.1743 61.0996C91.1286 61.7386 91.1286 62.3781 91.0833 63.1086C91.0376 63.8848 91.0376 64.7068 90.9918 65.5744C90.8093 65.5744 90.6725 65.5744 90.49 65.5744C90.5357 64.7068 90.5811 63.8848 90.6268 63.1086C90.7182 62.4238 90.7636 61.7386 90.7636 61.0996Z" fill="white"/>
<path opacity="0.17" fill-rule="evenodd" clip-rule="evenodd" d="M91.8132 61.0996C91.95 61.0996 92.0868 61.0996 92.2236 61.0996C92.2236 61.7386 92.2236 62.3781 92.2236 63.1086C92.2236 63.8848 92.2236 64.7068 92.2693 65.5744C92.0868 65.5744 91.95 65.5744 91.7675 65.5744C91.7675 64.7068 91.7675 63.8848 91.8132 63.1086C91.8132 62.4238 91.8132 61.7386 91.8132 61.0996Z" fill="white"/>
<path opacity="0.17" fill-rule="evenodd" clip-rule="evenodd" d="M92.8625 61.0996C92.9993 61.0996 93.1361 61.0996 93.2729 61.0996C93.3187 61.7386 93.3644 62.3781 93.4101 63.1086C93.4554 63.8848 93.5012 64.7068 93.5469 65.5744C93.3644 65.5744 93.2276 65.5744 93.0451 65.5744C92.9993 64.7068 92.9536 63.8848 92.9536 63.1086C92.9079 62.4238 92.8625 61.7386 92.8625 61.0996Z" fill="white"/>
<path opacity="0.17" fill-rule="evenodd" clip-rule="evenodd" d="M93.8665 61.0996C94.0032 61.0996 94.1404 61.0996 94.2772 61.0996C94.3683 61.7386 94.414 62.3781 94.5055 63.1086C94.5965 63.8848 94.6876 64.7068 94.7791 65.5744C94.5965 65.5744 94.4598 65.5744 94.2772 65.5744C94.1858 64.7068 94.1404 63.8848 94.049 63.1086C94.0032 62.4238 93.9122 61.7386 93.8665 61.0996Z" fill="white"/>
<path opacity="0.17" fill-rule="evenodd" clip-rule="evenodd" d="M94.9158 61.0996C95.053 61.0996 95.1898 61.0996 95.3265 61.0996C95.418 61.7386 95.5548 62.3781 95.6459 63.1086C95.7831 63.8848 95.9198 64.7068 96.0566 65.5744C95.8741 65.5744 95.7373 65.5744 95.5548 65.5744C95.418 64.7068 95.3265 63.8848 95.1898 63.1086C95.0983 62.4238 95.0072 61.7386 94.9158 61.0996Z" fill="white"/>
<path opacity="0.17" fill-rule="evenodd" clip-rule="evenodd" d="M95.9199 61.0996C96.0567 61.0996 96.1935 61.0996 96.3307 61.0996C96.4675 61.7386 96.6043 62.3781 96.7411 63.1086C96.9236 63.8848 97.0608 64.7068 97.2886 65.5744C97.1061 65.5744 96.9693 65.5744 96.7868 65.5744C96.6043 64.7068 96.4675 63.8848 96.3307 63.1086C96.1935 62.4238 96.0567 61.7386 95.9199 61.0996Z" fill="white"/>
<path opacity="0.17" fill-rule="evenodd" clip-rule="evenodd" d="M96.9692 61.0996C97.106 61.0996 97.2432 61.0996 97.38 61.0996C97.5625 61.7386 97.7451 62.3781 97.9276 63.1086C98.1101 63.8848 98.338 64.7068 98.5662 65.5744C98.3837 65.5744 98.2469 65.5744 98.0644 65.5744C97.8361 64.7068 97.6536 63.8848 97.4711 63.1086C97.2886 62.4238 97.106 61.7386 96.9692 61.0996Z" fill="white"/>
<path fill-rule="evenodd" clip-rule="evenodd" d="M83.463 50.6895C83.2804 50.8724 74.4735 56.7625 73.926 57.6298C73.3784 58.4975 72.5573 67.6293 72.5573 67.6293L76.7096 62.4243L85.151 60.689L83.463 50.6895Z" fill="url(#paint2_linear)"/>
<path opacity="0.24" fill-rule="evenodd" clip-rule="evenodd" d="M83.189 55.9863C80.36 57.0823 76.3445 58.6801 76.3445 58.6801L72.5573 67.6298L76.7096 62.4244L85.151 60.6894C84.4209 59.1823 83.7365 57.5845 83.189 55.9863Z" fill="#DB6E00"/>
<path opacity="0.24" fill-rule="evenodd" clip-rule="evenodd" d="M76.3445 58.6797L72.5573 67.629L76.7096 62.424L76.3445 58.6797Z" fill="#CE6612"/>
<path opacity="0.25" fill-rule="evenodd" clip-rule="evenodd" d="M81.8201 52.4248L82.2305 54.3423L75.0667 58.406L73.2415 63.5203L74.2451 57.6755L81.8201 52.4248Z" fill="#EA926A"/>
<path fill-rule="evenodd" clip-rule="evenodd" d="M100.574 50.6895C100.756 50.8724 109.563 56.7625 110.111 57.6298C110.658 58.4975 111.48 67.6293 111.48 67.6293L107.327 62.4243L98.8855 60.689L100.574 50.6895Z" fill="url(#paint3_linear)"/>
<path opacity="0.24" fill-rule="evenodd" clip-rule="evenodd" d="M100.893 55.9863C103.723 57.0823 107.738 58.6801 107.738 58.6801L111.526 67.6298L107.373 62.4244L98.9314 60.6894C99.6615 59.1823 100.301 57.5845 100.893 55.9863Z" fill="#DB6E00"/>
<path opacity="0.24" fill-rule="evenodd" clip-rule="evenodd" d="M107.692 58.6797L111.48 67.629L107.327 62.424L107.692 58.6797Z" fill="#CE6612"/>
<path opacity="0.25" fill-rule="evenodd" clip-rule="evenodd" d="M102.262 52.4248L101.806 54.3423L108.97 58.406L110.795 63.5203L109.791 57.6755L102.262 52.4248Z" fill="#EA926A"/>
<path fill-rule="evenodd" clip-rule="evenodd" d="M92.041 0.554688C104.315 15.9878 107.829 42.7444 98.9312 60.6891H85.1966C76.2529 42.7444 79.7666 15.9421 92.041 0.554688Z" fill="#E5EEF9"/>
<path fill-rule="evenodd" clip-rule="evenodd" d="M92.0411 0.554688C88.0713 5.53161 85.0141 11.6957 83.0063 18.4077H101.03C99.0227 11.6957 95.9655 5.53161 92.0411 0.554688Z" fill="url(#paint4_linear)"/>
<path fill-rule="evenodd" clip-rule="evenodd" d="M101.031 18.3633H83.0065C82.8697 18.8199 82.7329 19.3222 82.5957 19.7787H101.441C101.304 19.3222 101.167 18.8656 101.031 18.3633Z" fill="#752994"/>
<path fill-rule="evenodd" clip-rule="evenodd" d="M85.338 33.7924C84.8823 30.0885 87.5135 26.7165 91.2149 26.2603C94.9163 25.8042 98.2864 28.437 98.7421 32.1408C99.1978 35.8447 96.5667 39.2171 92.8653 39.6732C89.1638 40.1294 85.7937 37.4962 85.338 33.7924Z" fill="#E47D7D"/>
<path fill-rule="evenodd" clip-rule="evenodd" d="M92.0411 38.7715C95.2355 38.7715 97.8362 36.1689 97.8362 32.9725C97.8362 29.7765 95.2355 27.1738 92.0411 27.1738C88.8472 27.1738 86.2461 29.7765 86.2461 32.9725C86.2461 36.1689 88.8472 38.7715 92.0411 38.7715Z" fill="url(#paint5_radial)"/>
<path opacity="0.25" fill-rule="evenodd" clip-rule="evenodd" d="M97.2885 32.1968C97.2885 35.7129 94.4596 38.5439 90.9459 38.5439C90.7634 38.5439 90.5808 38.5439 90.3983 38.5439C90.9006 38.6806 91.4477 38.7721 91.9953 38.7721C95.1897 38.7721 97.7903 36.1694 97.7903 32.9731C97.7903 31.6946 97.38 30.5076 96.6956 29.5488C97.0602 30.3704 97.2885 31.2838 97.2885 32.1968Z" fill="#0EA8EE"/>
<path fill-rule="evenodd" clip-rule="evenodd" d="M92.0411 26.5352L92.0869 26.5809L92.1779 26.6266L92.2236 26.7177V26.8091L92.1779 26.9006L92.1326 26.9463H92.0411H91.9043L91.8586 26.9006L91.8129 26.8091V26.7177L91.8586 26.6266L91.9501 26.5809L92.0411 26.5352Z" fill="#31587D"/>
<path fill-rule="evenodd" clip-rule="evenodd" d="M87.4782 28.4538L87.5697 28.408L87.6607 28.3623L87.7522 28.408L87.8432 28.4538V28.5448V28.6363L87.7979 28.7278L87.7065 28.7731H87.6154H87.5239L87.4782 28.682L87.4329 28.5906V28.4995L87.4782 28.4538Z" fill="#31587D"/>
<path fill-rule="evenodd" clip-rule="evenodd" d="M85.6074 32.9743L85.6532 32.8833L85.6985 32.7918H85.7899L85.881 32.7461L85.9267 32.8376L86.0182 32.8833V32.9743V33.0658L85.9267 33.1115L85.881 33.203L85.7899 33.1573H85.6985L85.6532 33.0658L85.6074 32.9743Z" fill="#31587D"/>
<path fill-rule="evenodd" clip-rule="evenodd" d="M87.4782 37.4944L87.4329 37.4029V37.3118L87.4782 37.2661L87.5239 37.1746H87.6154L87.7065 37.1289L87.7979 37.2204L87.8432 37.2661V37.3572V37.4486L87.7522 37.5401L87.6607 37.5858L87.5697 37.5401L87.4782 37.4944Z" fill="#31587D"/>
<path fill-rule="evenodd" clip-rule="evenodd" d="M92.0411 39.3663H91.9501L91.8586 39.3205L91.8129 39.2291V39.138L91.8586 39.0465L91.9043 38.9551H92.0411H92.1326L92.1779 39.0465L92.2236 39.138V39.2291L92.1779 39.3205L92.0869 39.3663H92.0411Z" fill="#31587D"/>
<path fill-rule="evenodd" clip-rule="evenodd" d="M96.5584 37.4944L96.4673 37.5401L96.3759 37.5858L96.2848 37.5401L96.1934 37.4486V37.3572V37.2661L96.2391 37.2204L96.3305 37.1289L96.4216 37.1746H96.5131L96.5584 37.2661L96.6041 37.3118V37.4029L96.5584 37.4944Z" fill="#31587D"/>
<path fill-rule="evenodd" clip-rule="evenodd" d="M98.4297 32.9743L98.384 33.0658L98.3382 33.1573H98.2472L98.1557 33.203L98.1104 33.1115L98.0189 33.0658V32.9743V32.8833L98.1104 32.8376L98.1557 32.7461L98.2472 32.7918H98.3382L98.384 32.8833L98.4297 32.9743Z" fill="#31587D"/>
<path fill-rule="evenodd" clip-rule="evenodd" d="M96.5584 28.4538L96.6041 28.4995V28.5906L96.5584 28.682L96.5131 28.7731H96.4216H96.3305L96.2391 28.7278L96.1934 28.6363V28.5448V28.4538L96.2848 28.408L96.3759 28.3623L96.4673 28.408L96.5584 28.4538Z" fill="#31587D"/>
<rect x="85.1511" y="60.6895" width="13.7347" height="2.19167" fill="#752994"/>
<path fill-rule="evenodd" clip-rule="evenodd" d="M86.1551 61.4658L86.2919 61.5116L86.4287 61.603L86.4744 61.7398L86.5201 61.9227L86.4287 62.0595L86.3376 62.1963H86.1551H85.9726L85.8811 62.0595L85.79 61.9227L85.8354 61.7398V61.603L86.0179 61.5116L86.1551 61.4658Z" fill="#303030"/>
<path fill-rule="evenodd" clip-rule="evenodd" d="M89.0756 61.4658L89.2581 61.5116L89.3949 61.603L89.4407 61.7398V61.9227L89.3492 62.0595L89.2581 62.1963H89.0756H88.9384L88.8016 62.0595L88.7106 61.9227L88.7559 61.7398L88.8016 61.603L88.9384 61.5116L89.0756 61.4658Z" fill="#303030"/>
<path fill-rule="evenodd" clip-rule="evenodd" d="M92.0411 61.4658L92.1783 61.5116L92.3151 61.603L92.3608 61.7398L92.4062 61.9227L92.2694 62.0595L92.1783 62.1963H92.0411H91.8586L91.7675 62.0595L91.6307 61.9227L91.6761 61.7398L91.7218 61.603L91.8586 61.5116L92.0411 61.4658Z" fill="#303030"/>
<path fill-rule="evenodd" clip-rule="evenodd" d="M94.9616 61.4658L95.0984 61.5116L95.2356 61.603L95.2809 61.7398L95.3267 61.9227L95.2356 62.0595L95.0984 62.1963H94.9616H94.7791L94.688 62.0595L94.5966 61.9227L94.6423 61.7398V61.603L94.8248 61.5116L94.9616 61.4658Z" fill="#303030"/>
<path fill-rule="evenodd" clip-rule="evenodd" d="M97.8819 61.4658L98.0187 61.5116L98.2012 61.603V61.7398L98.2469 61.9227L98.1555 62.0595L98.0644 62.1963H97.8819H97.7451L97.6079 62.0595L97.5168 61.9227L97.5626 61.7398L97.6079 61.603L97.7451 61.5116L97.8819 61.4658Z" fill="#303030"/>
<path fill-rule="evenodd" clip-rule="evenodd" d="M92.0414 51.7402L93.0912 55.8954L92.0414 67.6302V51.7402Z" fill="url(#paint6_linear)"/>
<path fill-rule="evenodd" clip-rule="evenodd" d="M92.0412 51.7402L90.946 55.8954L92.0412 67.6302V51.7402Z" fill="url(#paint7_linear)"/>
<path opacity="0.46" fill-rule="evenodd" clip-rule="evenodd" d="M91.3568 2.33594C90.0334 3.38615 85.6528 13.7509 84.5123 17.0842H88.6189C89.2122 12.4268 90.0334 7.22156 91.3568 2.33594Z" fill="#EA926A"/>
<path fill-rule="evenodd" clip-rule="evenodd" d="M83.0975 21.148C83.0975 21.148 81.4551 28.6361 81.4094 34.9374C81.3637 38.0877 82.5046 54.7539 84.8774 56.6714L89.0297 56.5346V40.0971C83.5997 38.8639 82.7328 28.6361 89.2575 25.4855L89.1665 20.874C87.113 20.874 85.151 21.0566 83.0975 21.148Z" fill="#FCFDFF"/>
<path opacity="0.25" fill-rule="evenodd" clip-rule="evenodd" d="M90.946 37.9046C88.7104 37.7221 86.9762 35.5302 86.9762 32.8822C86.9762 30.2338 88.7557 28.0419 90.946 27.8594V37.9046Z" fill="#3DC6FA"/>
<path fill-rule="evenodd" clip-rule="evenodd" d="M7.98499 69.0506C7.98499 62.178 13.5526 56.6064 20.4207 56.6064C27.2889 56.6064 32.8565 62.178 32.8565 69.0506C32.8565 75.9231 27.2889 81.4943 20.4207 81.4943C13.5526 81.4943 7.98499 75.9231 7.98499 69.0506Z" fill="#F2F2F2"/>
<path d="M45.2921 104.776C45.2921 104.776 120.546 88.1227 107.27 78.4834" stroke="white" stroke-linecap="round" stroke-linejoin="round" stroke-dasharray="6 4"/>
<path fill-rule="evenodd" clip-rule="evenodd" d="M85.385 80.6834C85.1858 80.6717 85.0077 80.7513 84.9859 80.8619C84.9649 80.972 85.1083 81.0713 85.3075 81.0834L85.385 80.6834ZM143.559 68.2852L141.243 68.3293L142.439 70.3126L143.559 68.2852ZM86.3599 81.1833C86.5659 81.1914 86.7458 81.1079 86.76 80.9975C86.775 80.8871 86.6199 80.7908 86.4138 80.7827L86.3599 81.1833ZM88.1912 80.8809C87.9801 80.8753 87.8012 80.9607 87.7905 81.0715C87.7798 81.1818 87.9419 81.2762 88.1529 81.2818L88.1912 80.8809ZM90.4178 81.3698C90.634 81.3726 90.8134 81.2847 90.8189 81.174C90.8236 81.0633 90.6528 80.9714 90.4366 80.9686L90.4178 81.3698ZM92.2467 80.9941C92.027 80.9933 91.8471 81.0824 91.8455 81.1931C91.8439 81.3038 92.0206 81.3945 92.2403 81.3953L92.2467 80.9941ZM94.4697 81.389C94.688 81.3874 94.8629 81.2968 94.8597 81.1857C94.8565 81.0749 94.677 80.9867 94.4586 80.9879L94.4697 81.389ZM96.2582 80.9546C96.0425 80.9578 95.8721 81.0501 95.8784 81.1609C95.8838 81.2717 96.0636 81.3588 96.2793 81.3556L96.2582 80.9546ZM98.5418 81.262C98.7528 81.2564 98.9157 81.1625 98.905 81.0517C98.895 80.9409 98.7153 80.8558 98.5043 80.8611L98.5418 81.262ZM100.277 80.7723C100.068 80.7791 99.9105 80.8743 99.9233 80.9851C99.9362 81.0956 100.116 81.1799 100.324 81.1731L100.277 80.7723ZM102.594 80.9959C102.798 80.9867 102.949 80.8895 102.932 80.779C102.915 80.6686 102.736 80.5862 102.532 80.5955L102.594 80.9959ZM104.284 80.4516C104.083 80.4624 103.936 80.5606 103.955 80.6712C103.974 80.7818 104.154 80.8626 104.355 80.8518L104.284 80.4516ZM106.631 80.5914C106.828 80.5785 106.969 80.4782 106.945 80.3679C106.922 80.2576 106.743 80.1787 106.547 80.1916L106.631 80.5914ZM108.276 79.9913C108.083 80.0058 107.946 80.1074 107.971 80.2174C107.998 80.3278 108.175 80.4055 108.37 80.3906L108.276 79.9913ZM110.648 80.0452C110.838 80.0282 110.968 79.9253 110.938 79.8151C110.909 79.7049 110.731 79.6295 110.541 79.6464L110.648 80.0452ZM112.253 79.3884C112.066 79.407 111.94 79.5112 111.972 79.6211C112.004 79.7313 112.181 79.8053 112.368 79.7867L112.253 79.3884ZM114.645 79.3537C114.828 79.3327 114.948 79.2265 114.912 79.1168C114.877 79.007 114.7 78.9349 114.517 78.9564L114.645 79.3537ZM116.21 78.6371C116.03 78.6598 115.915 78.7672 115.952 78.8771C115.99 78.9865 116.167 79.0566 116.347 79.0339L116.21 78.6371ZM118.619 78.5092C118.794 78.4836 118.903 78.3743 118.862 78.2649C118.821 78.156 118.645 78.0881 118.47 78.1133L118.619 78.5092ZM120.126 77.7342C119.953 77.7615 119.848 77.8723 119.892 77.981C119.935 78.0902 120.11 78.1565 120.283 78.1292L120.126 77.7342ZM122.544 77.5106C122.712 77.4804 122.811 77.3677 122.764 77.259C122.717 77.1504 122.543 77.0867 122.375 77.1169L122.544 77.5106ZM124.008 76.6721C123.842 76.704 123.748 76.8179 123.797 76.9264C123.846 77.0349 124.02 77.0967 124.185 77.0648L124.008 76.6721ZM126.43 76.3464C126.591 76.3114 126.68 76.1954 126.628 76.0873C126.575 75.9795 126.402 75.9203 126.241 75.9553L126.43 76.3464ZM127.839 75.4443C127.681 75.481 127.598 75.5986 127.652 75.7063C127.706 75.814 127.878 75.8713 128.036 75.8342L127.839 75.4443ZM130.256 75.0129C130.41 74.9728 130.488 74.8531 130.43 74.7462C130.372 74.6389 130.201 74.5847 130.048 74.6253L130.256 75.0129ZM131.612 74.0432C131.462 74.0856 131.389 74.2066 131.448 74.313C131.508 74.4198 131.678 74.4718 131.829 74.4298L131.612 74.0432ZM134.018 73.5009C134.164 73.4553 134.231 73.3319 134.168 73.2261C134.106 73.1198 133.937 73.0713 133.791 73.1169L134.018 73.5009ZM135.313 72.463C135.17 72.5109 135.107 72.6356 135.173 72.7411C135.237 72.8469 135.406 72.8931 135.548 72.8453L135.313 72.463ZM137.696 71.8061C137.834 71.7541 137.89 71.6277 137.822 71.5229C137.755 71.418 137.588 71.3753 137.45 71.4269L137.696 71.8061ZM138.93 70.6964C138.796 70.7504 138.744 70.8788 138.813 70.983C138.884 71.0872 139.049 71.1276 139.184 71.0736L138.93 70.6964ZM141.285 69.9203C141.414 69.8624 141.46 69.7317 141.387 69.6285C141.314 69.5252 141.15 69.4888 141.021 69.5466L141.285 69.9203ZM142.447 68.7407C142.321 68.8015 142.279 68.9335 142.354 69.0361C142.428 69.1387 142.592 69.1723 142.718 69.1119L142.447 68.7407ZM85.1845 80.8821C85.1633 81.0819 85.1633 81.0819 85.1633 81.0819C85.1633 81.0819 85.1633 81.0819 85.1637 81.0819C85.1637 81.0819 85.1641 81.0819 85.1645 81.0819C85.1653 81.0819 85.1669 81.0823 85.1685 81.0823C85.1717 81.0827 85.1769 81.0831 85.1833 81.0839C85.1965 81.0851 85.2158 81.0871 85.2419 81.0899C85.2932 81.0947 85.3702 81.1024 85.4709 81.1116C85.6727 81.1296 85.9712 81.1549 86.3599 81.183L86.3888 80.7827C86.0029 80.755 85.7064 80.7301 85.507 80.712C85.4076 80.7028 85.3317 80.6956 85.2816 80.6904C85.2563 80.688 85.2371 80.686 85.2246 80.6848C85.2182 80.6844 85.2138 80.6836 85.2106 80.6832C85.209 80.6832 85.2078 80.6832 85.207 80.6832C85.2066 80.6828 85.2066 80.6828 85.2062 80.6828C85.2062 80.6828 85.2062 80.6828 85.1845 80.8821ZM87.9803 81.2814C88.6779 81.3163 89.4947 81.348 90.4177 81.37L90.4273 80.9689C89.5079 80.9472 88.6948 80.9151 88.0004 80.8806L87.9803 81.2814ZM92.0445 81.3958C92.7995 81.4023 93.6078 81.4007 94.4643 81.389L94.4587 80.9879C93.6054 80.9995 92.8003 81.0011 92.0477 80.9947L92.0445 81.3958ZM96.0842 81.3552C96.8652 81.3335 97.6795 81.303 98.524 81.2621L98.5043 80.8614C97.6631 80.9023 96.8516 80.9328 96.0733 80.9544L96.0842 81.3552ZM100.136 81.1721C100.924 81.1228 101.734 81.0642 102.565 80.9952L102.532 80.5953C101.704 80.6643 100.896 80.7225 100.111 80.7718L100.136 81.1721ZM104.174 80.8503C104.964 80.7737 105.771 80.6871 106.594 80.5896L106.546 80.1913C105.727 80.2883 104.923 80.3746 104.135 80.4512L104.174 80.8503ZM108.196 80.3888C108.986 80.2841 109.789 80.1689 110.603 80.043L110.541 79.6466C109.73 79.7722 108.931 79.8865 108.143 79.9912L108.196 80.3888ZM112.201 79.7838C112.99 79.6498 113.788 79.5054 114.593 79.3498L114.517 78.9562C113.715 79.1111 112.92 79.2547 112.134 79.3883L112.201 79.7838ZM116.187 79.0295C116.972 78.8654 117.764 78.6905 118.561 78.504L118.469 78.1133C117.676 78.299 116.887 78.4731 116.105 78.6368L116.187 79.0295ZM120.132 78.1236C120.911 77.9282 121.695 77.7216 122.482 77.5034L122.375 77.1167C121.591 77.3341 120.81 77.5399 120.034 77.7345L120.132 78.1236ZM124.042 77.0567C124.814 76.8284 125.588 76.5885 126.365 76.3366L126.242 75.9551C125.468 76.2058 124.697 76.4445 123.928 76.672L124.042 77.0567ZM127.902 75.8236C128.663 75.5612 129.426 75.2872 130.189 75.0008L130.048 74.6253C129.288 74.9105 128.529 75.1833 127.771 75.4445L127.902 75.8236ZM131.702 74.4156C132.452 74.1176 133.201 73.8071 133.95 73.4842L133.791 73.1159C133.046 73.4372 132.3 73.7461 131.554 74.0426L131.702 74.4156ZM135.431 72.8274C136.165 72.4929 136.897 72.1459 137.628 71.7857L137.45 71.4258C136.723 71.7841 135.995 72.1294 135.264 72.4624L135.431 72.8274ZM139.076 71.0522C139.792 70.6795 140.506 70.2936 141.217 69.8945L141.021 69.5447C140.314 69.9418 139.604 70.3257 138.891 70.6964L139.076 71.0522Z" fill="white"/>
<defs>
<linearGradient id="paint0_linear" x1="257.721" y1="12.1519" x2="145.576" y2="-89.0362" gradientUnits="userSpaceOnUse">
<stop stop-color="#9033EA"/>
<stop offset="1" stop-color="#483EB7"/>
</linearGradient>
<linearGradient id="paint1_linear" x1="110.843" y1="69.2264" x2="110.843" y2="60.7605" gradientUnits="userSpaceOnUse">
<stop stop-color="#FF5A19"/>
<stop offset="0.18" stop-color="#FD591C"/>
<stop offset="0.304" stop-color="#F75525"/>
<stop offset="0.4112" stop-color="#EC4D34"/>
<stop offset="0.5088" stop-color="#DD434A"/>
<stop offset="0.5999" stop-color="#CA3666"/>
<stop offset="0.685" stop-color="#B22788"/>
<stop offset="0.7069" stop-color="#AB2292"/>
</linearGradient>
<linearGradient id="paint2_linear" x1="37.0916" y1="54.9882" x2="67.8414" y2="89.6315" gradientUnits="userSpaceOnUse">
<stop stop-color="#FF5A19"/>
<stop offset="0.18" stop-color="#FD591C"/>
<stop offset="0.304" stop-color="#F75525"/>
<stop offset="0.4112" stop-color="#EC4D34"/>
<stop offset="0.5088" stop-color="#DD434A"/>
<stop offset="0.5999" stop-color="#CA3666"/>
<stop offset="0.685" stop-color="#B22788"/>
<stop offset="0.7069" stop-color="#AB2292"/>
</linearGradient>
<linearGradient id="paint3_linear" x1="79.7498" y1="9.283" x2="49.0008" y2="43.9276" gradientUnits="userSpaceOnUse">
<stop stop-color="#FF5A19"/>
<stop offset="0.18" stop-color="#FD591C"/>
<stop offset="0.304" stop-color="#F75525"/>
<stop offset="0.4112" stop-color="#EC4D34"/>
<stop offset="0.5088" stop-color="#DD434A"/>
<stop offset="0.5999" stop-color="#CA3666"/>
<stop offset="0.685" stop-color="#B22788"/>
<stop offset="0.7069" stop-color="#AB2292"/>
</linearGradient>
<linearGradient id="paint4_linear" x1="82.9979" y1="27.3353" x2="101.043" y2="27.3353" gradientUnits="userSpaceOnUse">
<stop stop-color="#FF5A19"/>
<stop offset="0.7069" stop-color="#AB2292"/>
</linearGradient>
<radialGradient id="paint5_radial" cx="0" cy="0" r="1" gradientUnits="userSpaceOnUse" gradientTransform="translate(91.9244 28.5297) scale(9.44857 9.46096)">
<stop stop-color="#D650D1"/>
<stop offset="1" stop-color="#3B1AAF"/>
</radialGradient>
<linearGradient id="paint6_linear" x1="81.163" y1="333.592" x2="99.3608" y2="333.592" gradientUnits="userSpaceOnUse">
<stop stop-color="#FF5A19"/>
<stop offset="0.18" stop-color="#FD591C"/>
<stop offset="0.304" stop-color="#F75525"/>
<stop offset="0.4112" stop-color="#EC4D34"/>
<stop offset="0.5088" stop-color="#DD434A"/>
<stop offset="0.5999" stop-color="#CA3666"/>
<stop offset="0.685" stop-color="#B22788"/>
<stop offset="0.7069" stop-color="#AB2292"/>
</linearGradient>
<linearGradient id="paint7_linear" x1="95.359" y1="-41.2252" x2="88.4375" y2="-41.2252" gradientUnits="userSpaceOnUse">
<stop stop-color="#FF5A19"/>
<stop offset="0.18" stop-color="#FD591C"/>
<stop offset="0.304" stop-color="#F75525"/>
<stop offset="0.4112" stop-color="#EC4D34"/>
<stop offset="0.5088" stop-color="#DD434A"/>
<stop offset="0.5999" stop-color="#CA3666"/>
<stop offset="0.685" stop-color="#B22788"/>
<stop offset="0.7069" stop-color="#AB2292"/>
</linearGradient>
</defs>
</svg>
