<svg width="246" height="140" viewBox="0 0 246 140" fill="none" xmlns="http://www.w3.org/2000/svg">
<rect y="58" width="59" height="14" rx="7" fill="#F2F2F2"/>
<rect x="185" y="73" width="59" height="14" rx="7" fill="#F2F2F2"/>
<path fill-rule="evenodd" clip-rule="evenodd" d="M46 119.996C46.0013 128.086 41.129 135.38 33.6553 138.476C26.1817 141.573 17.5787 139.862 11.8584 134.142C6.13807 128.421 4.42719 119.818 7.52359 112.345C10.62 104.871 17.9138 99.9987 26.0035 100C37.0465 100.002 45.9982 108.953 46 119.996Z" fill="#F2F2F2"/>
<path fill-rule="evenodd" clip-rule="evenodd" d="M60 15.4968C60.0013 18.9349 57.9311 22.0352 54.755 23.3518C51.579 24.6684 47.9225 23.942 45.4909 21.5113C43.0593 19.0806 42.3315 15.4244 43.647 12.2478C44.9624 9.07127 48.062 7 51.5001 7C56.1933 7 59.9983 10.8036 60 15.4968Z" fill="#F2F2F2"/>
<path fill-rule="evenodd" clip-rule="evenodd" d="M194 129.5C194 134.194 190.194 138 185.5 138C180.806 138 177 134.194 177 129.5C177 124.806 180.806 121 185.5 121C190.194 121 194 124.806 194 129.5Z" fill="#F2F2F2"/>
<path fill-rule="evenodd" clip-rule="evenodd" d="M246 28.5C246 44.2401 233.24 57 217.5 57C201.76 57 189 44.2401 189 28.5C189 12.7599 201.76 0 217.5 0C225.059 0 232.308 3.00267 237.653 8.34746C242.997 13.6922 246 20.9413 246 28.5Z" fill="#F2F2F2"/>
<path fill-rule="evenodd" clip-rule="evenodd" d="M228 30V21.1646C228 19.4168 226.537 18 224.733 18H23.2669C21.4626 18 20 19.4168 20 21.1646V30H228Z" fill="#F94F24"/>
<path fill-rule="evenodd" clip-rule="evenodd" d="M20 31V126.75C20 128.545 21.4626 130 23.2669 130H224.733C226.537 130 228 128.545 228 126.75V31H20Z" fill="#E5E5E5"/>
<path fill-rule="evenodd" clip-rule="evenodd" d="M38.6328 23.1557H37.9988L37.4705 24.4609L37.3648 24.7225L36.7341 23.1442H36.0737L35.4397 24.7484L35.334 24.4868L34.8057 23.1701H34L34.0561 23.3138L34.2576 23.8227L34.7529 25.0531L35.1095 25.9501H35.7699L36.4006 24.3775L37.0313 25.9501H37.6917L38.0483 25.0531L38.5403 23.8227L38.745 23.3138L38.8012 23.1701L38.6328 23.1557ZM41.3273 25.0675L41.2282 25.1135C41.0838 25.1788 40.9349 25.2364 40.7824 25.286C40.6324 25.3345 40.4735 25.3588 40.3135 25.3579C40.139 25.3667 39.9657 25.3275 39.8182 25.2457C39.7223 25.177 39.6522 25.0849 39.6168 24.9813H40.0361C40.3777 24.9922 40.7173 24.9321 41.0268 24.8059C41.3309 24.6657 41.5297 24.3982 41.5519 24.0993C41.5741 23.8004 41.4166 23.5128 41.1357 23.3397C40.8818 23.1947 40.5841 23.1186 40.2805 23.1212C39.8521 23.1162 39.4437 23.2787 39.1677 23.5639C38.8904 23.8611 38.7482 24.2366 38.7682 24.619C38.743 24.9809 38.8817 25.337 39.1545 25.6108C39.4462 25.8725 39.8521 26.0136 40.2706 25.999C40.7472 25.9931 41.2122 25.8695 41.6112 25.6425L41.7169 25.585L41.3273 25.0675ZM39.98 23.7968C40.0608 23.758 40.1519 23.7382 40.2442 23.7393C40.3152 23.7401 40.386 23.7468 40.4555 23.7594C40.5152 23.7694 40.5723 23.7889 40.6239 23.8169C40.6633 23.8383 40.6971 23.8667 40.723 23.9003C40.7503 23.9444 40.764 23.9939 40.7626 24.044C40.769 24.0976 40.7513 24.1512 40.7131 24.1935C40.6525 24.2414 40.5834 24.2802 40.5083 24.3085C40.3518 24.3477 40.1886 24.3623 40.0262 24.3517H39.5574C39.5899 24.211 39.6601 24.0791 39.7621 23.9664C39.8241 23.9003 39.8977 23.8431 39.98 23.7968ZM44.5732 23.5093C44.1343 23.0691 43.4086 22.9437 42.8099 23.2046V22H42.0339V25.8437L42.1197 25.8638C42.482 25.9459 42.8549 25.9874 43.2292 25.9875C43.7111 26.0155 44.1833 25.8603 44.5236 25.562C44.808 25.2681 44.9595 24.894 44.9496 24.5098C44.9585 24.1501 44.8296 23.7981 44.5831 23.5093H44.5732ZM43.6948 25.2917C43.5673 25.3374 43.4297 25.358 43.292 25.3521C43.1309 25.3506 42.97 25.342 42.8099 25.3262V24.1447C42.815 24.0541 42.8599 23.9686 42.9353 23.906C43.0659 23.7747 43.2577 23.7018 43.4571 23.7077C43.6731 23.7016 43.8757 23.7986 43.9854 23.9607C44.106 24.1337 44.1668 24.3333 44.1604 24.5356C44.1728 24.7428 44.0989 24.947 43.9524 25.1106C43.8874 25.1871 43.8025 25.2492 43.7047 25.2917H43.6948ZM45.3095 23.1615H46.0855V25.9386H45.3095V23.1615ZM49.6682 25.9386V24.0124C49.6704 23.8691 49.6377 23.7271 49.5725 23.5956C49.3463 23.2632 48.917 23.0775 48.4762 23.1212C48.1275 23.1069 47.7859 23.2098 47.5219 23.4087C47.4316 23.2971 47.3199 23.1998 47.1917 23.1212L47.1091 23.0723L46.6039 23.4748L46.6997 23.5524C46.7783 23.6138 46.8423 23.688 46.8879 23.7709C46.9279 23.8627 46.9469 23.9603 46.944 24.0584V25.9415H47.72V24.1102C47.8058 24.0118 47.9096 23.9263 48.0271 23.8572C48.1519 23.7838 48.2992 23.7448 48.4498 23.7451C48.5749 23.7381 48.6984 23.7719 48.7965 23.8399C48.846 23.8773 48.8956 23.9434 48.8956 24.1274V25.9242L49.6682 25.9386ZM50.8173 25.8725C51.2532 25.585 51.7089 25.7115 52.1646 25.7287H52.2504C52.501 25.7289 52.7514 25.7154 53 25.6885V23.1615H52.224V24.8864C52.1579 25.1282 51.9208 25.3056 51.6363 25.3262C51.6363 25.3262 51.1112 25.3607 51.0518 24.9755V23.1643H50.2824V25.0905C50.2803 25.2338 50.3129 25.3758 50.3782 25.5074C50.4739 25.6712 50.6329 25.8005 50.8272 25.8725H50.8173Z" fill="white"/>
<path fill-rule="evenodd" clip-rule="evenodd" d="M53.4613 24.1801C53.1857 24.0087 52.8542 23.9569 52.5409 24.0364V24.8703C52.5514 24.8552 52.5626 24.8406 52.5746 24.8266C52.5898 24.8104 52.6074 24.7967 52.6268 24.786C52.7742 24.7063 52.9523 24.7134 53.0931 24.8047C53.2214 24.8816 53.2916 25.0295 53.271 25.1795C53.2643 25.3014 53.2075 25.4147 53.1146 25.4918C52.9433 25.6202 52.7426 25.7019 52.5317 25.7292H52.5071C52.2685 25.7521 52.0289 25.7625 51.7892 25.7604H51.6297L51.24 25.7323H51.0989H50.9977H50.9087H50.8842C50.7386 25.7537 50.5994 25.807 50.4761 25.8885C50.3534 25.9695 50.2489 26.0759 50.1693 26.2008C49.9436 26.5855 49.9436 27.0653 50.1693 27.45C50.3766 27.8172 50.7732 28.03 51.1879 27.9966C51.5013 27.9854 51.796 27.8416 52.0009 27.5999C52.1904 27.3677 52.3219 27.0924 52.3844 26.7973C52.4059 26.7036 52.4243 26.6099 52.4365 26.5225L51.7125 26.5318C51.6974 26.611 51.6779 26.6892 51.6542 26.7661C51.6172 26.9004 51.5558 27.0264 51.4732 27.1377C51.3952 27.2285 51.2847 27.2837 51.1664 27.2907C51.0188 27.3083 50.8752 27.2346 50.8013 27.1034C50.7199 26.9549 50.7199 26.774 50.8013 26.6255C50.8139 26.6065 50.8283 26.5887 50.8443 26.5724C50.9406 26.498 51.0619 26.4654 51.1817 26.4819C51.3198 26.4819 51.4548 26.4819 51.5867 26.4819H51.7432L52.4826 26.5006C52.8828 26.4659 53.2654 26.3177 53.587 26.0727C53.827 25.8681 53.9744 25.5725 53.9951 25.2545C54.0346 24.8315 53.8333 24.4227 53.4766 24.202" fill="white"/>
<path fill-rule="evenodd" clip-rule="evenodd" d="M29.8346 23.1635H26.1654C26.0741 23.1635 26 23.0906 26 23.0007C26 22.9108 26.0741 22.8379 26.1654 22.8379H29.8346C29.9259 22.8379 30 22.9108 30 23.0007C30 23.0906 29.9259 23.1635 29.8346 23.1635Z" fill="white"/>
<path fill-rule="evenodd" clip-rule="evenodd" d="M29.8346 24.1635H26.1654C26.0741 24.1635 26 24.0906 26 24.0007C26 23.9108 26.0741 23.8379 26.1654 23.8379H29.8346C29.9259 23.8379 30 23.9108 30 24.0007C30 24.0906 29.9259 24.1635 29.8346 24.1635Z" fill="white"/>
<path fill-rule="evenodd" clip-rule="evenodd" d="M29.8346 25.1635H26.1654C26.0741 25.1635 26 25.0906 26 25.0007C26 24.9108 26.0741 24.8379 26.1654 24.8379H29.8346C29.9259 24.8379 30 24.9108 30 25.0007C30 25.0906 29.9259 25.1635 29.8346 25.1635Z" fill="white"/>
<rect x="78" y="21" width="103" height="7" fill="#EF3B0B"/>
<path fill-rule="evenodd" clip-rule="evenodd" d="M80.5042 25C80.1066 25.0021 79.7251 24.8435 79.4461 24.5601C79.0126 24.1332 78.881 23.4861 79.1134 22.9237C79.3458 22.3613 79.8959 21.9961 80.5042 22C80.9017 21.9983 81.2831 22.1568 81.5623 22.4399C82.1459 23.0247 82.1459 23.9718 81.5623 24.5567C81.2837 24.841 80.9022 25.0008 80.5042 25ZM80.5042 22.3471C80.0365 22.346 79.6143 22.6273 79.4351 23.0595C79.256 23.4917 79.3553 23.9893 79.6866 24.3196C80.1444 24.7559 80.864 24.7559 81.3218 24.3196C81.6556 23.9896 81.7565 23.4904 81.5771 23.0567C81.3976 22.623 80.9735 22.3411 80.5042 22.3437V22.3471Z" fill="white"/>
<path fill-rule="evenodd" clip-rule="evenodd" d="M82.779 26C82.7185 25.9999 82.6606 25.9757 82.6179 25.933L81.0649 24.3776C80.9784 24.2913 80.9784 24.1512 81.0649 24.0648C81.1514 23.9784 81.2917 23.9784 81.3782 24.0648L82.9356 25.6156C83.0215 25.704 83.0215 25.8446 82.9356 25.933C82.8943 25.9751 82.838 25.9992 82.779 26Z" fill="white"/>
<path fill-rule="evenodd" clip-rule="evenodd" d="M225 23.9971C225.001 24.8065 224.514 25.5368 223.767 25.8471C223.019 26.1574 222.158 25.9865 221.586 25.4142C221.013 24.8418 220.843 23.9809 221.153 23.2333C221.463 22.4857 222.193 21.9988 223.003 22C224.106 22 225 22.8941 225 23.9971Z" fill="white"/>
<rect x="23" y="34" width="68" height="88" fill="#464646"/>
<rect x="23" y="49.8379" width="69" height="0.325581" fill="#6E6E6E"/>
<rect x="23" y="64.8379" width="69" height="0.325584" fill="#6E6E6E"/>
<rect x="23" y="79.8379" width="69" height="0.325584" fill="#6E6E6E"/>
<rect x="23" y="93.8379" width="69" height="0.325584" fill="#6E6E6E"/>
<rect x="23" y="108.838" width="69" height="0.325584" fill="#6E6E6E"/>
<rect x="23" y="122.838" width="69" height="0.325584" fill="#E5E5E5"/>
<rect x="95" y="34" width="130" height="88" fill="#464646"/>
<rect x="95" y="48.8379" width="132" height="0.325581" fill="#6E6E6E"/>
<path fill-rule="evenodd" clip-rule="evenodd" d="M195.022 44H195V46.3302C195 46.8742 195.444 47 195.992 47H197.008C197.556 47 198 46.8742 198 46.3302V44.0126L195.022 44Z" fill="#808080"/>
<path fill-rule="evenodd" clip-rule="evenodd" d="M197.685 42.3426H197.335C197.337 42.3269 197.337 42.311 197.335 42.2953C197.336 42.1385 197.217 42.0089 197.064 42H195.958C195.799 42 195.67 42.1322 195.67 42.2953C195.669 42.311 195.669 42.3269 195.67 42.3426H195.32C195.143 42.3426 195 42.4898 195 42.6713C195 42.8528 195.143 43 195.32 43H197.68C197.857 43 198 42.8528 198 42.6713C198 42.4898 197.857 42.3426 197.68 42.3426H197.685Z" fill="#808080"/>
<path fill-rule="evenodd" clip-rule="evenodd" d="M217 42.5C217 42.7761 216.776 43 216.5 43C216.224 43 216 42.7761 216 42.5C216 42.2239 216.224 42 216.5 42C216.776 42 217 42.2239 217 42.5Z" fill="#808080"/>
<path fill-rule="evenodd" clip-rule="evenodd" d="M217 43.5C217 43.7761 216.776 44 216.5 44C216.224 44 216 43.7761 216 43.5C216 43.2239 216.224 43 216.5 43C216.776 43 217 43.2239 217 43.5Z" fill="#808080"/>
<path fill-rule="evenodd" clip-rule="evenodd" d="M217 45.5C217 45.7761 216.776 46 216.5 46C216.224 46 216 45.7761 216 45.5C216 45.2239 216.224 45 216.5 45C216.776 45 217 45.2239 217 45.5Z" fill="#808080"/>
<path fill-rule="evenodd" clip-rule="evenodd" d="M205.997 45.9527L205 46L205.047 45.0011L207.047 43L208 43.9517L205.997 45.9527Z" fill="#808080"/>
<path fill-rule="evenodd" clip-rule="evenodd" d="M207.551 42.5905L208.176 41.9666L209.159 42.9497L208.535 43.5736L207.551 42.5905Z" fill="#808080"/>
<path fill-rule="evenodd" clip-rule="evenodd" d="M140.845 46H100.155C99.517 46 99 45.3284 99 44.5C99 43.6716 99.517 43 100.155 43H140.845C141.483 43 142 43.6716 142 44.5C142 45.3284 141.483 46 140.845 46Z" fill="#E5E5E5"/>
<path fill-rule="evenodd" clip-rule="evenodd" d="M152.85 46H147.15C146.515 46 146 45.3284 146 44.5C146 43.6716 146.515 43 147.15 43H152.85C153.485 43 154 43.6716 154 44.5C154 45.3284 153.485 46 152.85 46Z" fill="#E5E5E5"/>
<path fill-rule="evenodd" clip-rule="evenodd" d="M40.8848 46H30.1152C29.4993 46 29 45.3284 29 44.5C29 43.6716 29.4993 43 30.1152 43H40.8848C41.5007 43 42 43.6716 42 44.5C42 45.3284 41.5007 46 40.8848 46Z" fill="#E5E5E5"/>
<path fill-rule="evenodd" clip-rule="evenodd" d="M50.8379 46H47.1621C46.5203 46 46 45.3284 46 44.5C46 43.6716 46.5203 43 47.1621 43H50.8379C51.4797 43 52 43.6716 52 44.5C52 45.3284 51.4797 46 50.8379 46Z" fill="#E5E5E5"/>
<path fill-rule="evenodd" clip-rule="evenodd" d="M47.3314 55H27.6686C27.2993 55 27 54.7761 27 54.5C27 54.2239 27.2993 54 27.6686 54H47.3314C47.7007 54 48 54.2239 48 54.5C48 54.7761 47.7007 55 47.3314 55Z" fill="#B3B3B3"/>
<path fill-rule="evenodd" clip-rule="evenodd" d="M41.3541 58H28.6459C28.2892 58 28 57.7761 28 57.5C28 57.2239 28.2892 57 28.6459 57H41.3541C41.7108 57 42 57.2239 42 57.5C42 57.7761 41.7108 58 41.3541 58Z" fill="#CCCCCC"/>
<path fill-rule="evenodd" clip-rule="evenodd" d="M72.3445 63H27.6555C27.2935 63 27 62.7761 27 62.5C27 62.2239 27.2935 62 27.6555 62H72.3445C72.7065 62 73 62.2239 73 62.5C73 62.7761 72.7065 63 72.3445 63Z" fill="#E5E5E5"/>
<path fill-rule="evenodd" clip-rule="evenodd" d="M47.3314 69H27.6686C27.2993 69 27 68.7761 27 68.5C27 68.2239 27.2993 68 27.6686 68H47.3314C47.7007 68 48 68.2239 48 68.5C48 68.7761 47.7007 69 47.3314 69Z" fill="#B3B3B3"/>
<path fill-rule="evenodd" clip-rule="evenodd" d="M41.3541 73H28.6459C28.2892 73 28 72.7761 28 72.5C28 72.2239 28.2892 72 28.6459 72H41.3541C41.7108 72 42 72.2239 42 72.5C42 72.7761 41.7108 73 41.3541 73Z" fill="#CCCCCC"/>
<path fill-rule="evenodd" clip-rule="evenodd" d="M72.3445 77H27.6555C27.2935 77 27 76.7761 27 76.5C27 76.2239 27.2935 76 27.6555 76H72.3445C72.7065 76 73 76.2239 73 76.5C73 76.7761 72.7065 77 72.3445 77Z" fill="#E5E5E5"/>
<path fill-rule="evenodd" clip-rule="evenodd" d="M47.3314 84H27.6686C27.2993 84 27 83.7761 27 83.5C27 83.2239 27.2993 83 27.6686 83H47.3314C47.7007 83 48 83.2239 48 83.5C48 83.7761 47.7007 84 47.3314 84Z" fill="#B3B3B3"/>
<path fill-rule="evenodd" clip-rule="evenodd" d="M41.3541 87H28.6459C28.2892 87 28 86.7761 28 86.5C28 86.2239 28.2892 86 28.6459 86H41.3541C41.7108 86 42 86.2239 42 86.5C42 86.7761 41.7108 87 41.3541 87Z" fill="#CCCCCC"/>
<path fill-rule="evenodd" clip-rule="evenodd" d="M72.3445 91H27.6555C27.2935 91 27 90.7761 27 90.5C27 90.2239 27.2935 90 27.6555 90H72.3445C72.7065 90 73 90.2239 73 90.5C73 90.7761 72.7065 91 72.3445 91Z" fill="#E5E5E5"/>
<path fill-rule="evenodd" clip-rule="evenodd" d="M47.3314 97H27.6686C27.2993 97 27 96.7761 27 96.5C27 96.2239 27.2993 96 27.6686 96H47.3314C47.7007 96 48 96.2239 48 96.5C48 96.7761 47.7007 97 47.3314 97Z" fill="#B3B3B3"/>
<path fill-rule="evenodd" clip-rule="evenodd" d="M41.3541 102H28.6459C28.2892 102 28 101.776 28 101.5C28 101.224 28.2892 101 28.6459 101H41.3541C41.7108 101 42 101.224 42 101.5C42 101.776 41.7108 102 41.3541 102Z" fill="#CCCCCC"/>
<path fill-rule="evenodd" clip-rule="evenodd" d="M72.3445 105H27.6555C27.2935 105 27 104.776 27 104.5C27 104.224 27.2935 104 27.6555 104H72.3445C72.7065 104 73 104.224 73 104.5C73 104.776 72.7065 105 72.3445 105Z" fill="#E5E5E5"/>
<path fill-rule="evenodd" clip-rule="evenodd" d="M47.3314 112H27.6686C27.2993 112 27 111.776 27 111.5C27 111.224 27.2993 111 27.6686 111H47.3314C47.7007 111 48 111.224 48 111.5C48 111.776 47.7007 112 47.3314 112Z" fill="#B3B3B3"/>
<path fill-rule="evenodd" clip-rule="evenodd" d="M41.3541 116H28.6459C28.2892 116 28 115.776 28 115.5C28 115.224 28.2892 115 28.6459 115H41.3541C41.7108 115 42 115.224 42 115.5C42 115.776 41.7108 116 41.3541 116Z" fill="#CCCCCC"/>
<path fill-rule="evenodd" clip-rule="evenodd" d="M72.3445 120H27.6555C27.2935 120 27 119.776 27 119.5C27 119.224 27.2935 119 27.6555 119H72.3445C72.7065 119 73 119.224 73 119.5C73 119.776 72.7065 120 72.3445 120Z" fill="#E5E5E5"/>
<rect x="95" y="117" width="130" height="6" fill="#262626"/>
<path fill-rule="evenodd" clip-rule="evenodd" d="M87.3654 63H82.6346C82.2841 63 82 62.7761 82 62.5C82 62.2239 82.2841 62 82.6346 62H87.3654C87.7159 62 88 62.2239 88 62.5C88 62.7761 87.7159 63 87.3654 63Z" fill="#E5E5E5"/>
<path fill-rule="evenodd" clip-rule="evenodd" d="M87.3654 77H82.6346C82.2841 77 82 76.7761 82 76.5C82 76.2239 82.2841 76 82.6346 76H87.3654C87.7159 76 88 76.2239 88 76.5C88 76.7761 87.7159 77 87.3654 77Z" fill="#E5E5E5"/>
<path fill-rule="evenodd" clip-rule="evenodd" d="M87.3654 91H82.6346C82.2841 91 82 90.7761 82 90.5C82 90.2239 82.2841 90 82.6346 90H87.3654C87.7159 90 88 90.2239 88 90.5C88 90.7761 87.7159 91 87.3654 91Z" fill="#E5E5E5"/>
<path fill-rule="evenodd" clip-rule="evenodd" d="M87.3654 105H82.6346C82.2841 105 82 104.776 82 104.5C82 104.224 82.2841 104 82.6346 104H87.3654C87.7159 104 88 104.224 88 104.5C88 104.776 87.7159 105 87.3654 105Z" fill="#E5E5E5"/>
<path fill-rule="evenodd" clip-rule="evenodd" d="M87.3654 120H82.6346C82.2841 120 82 119.776 82 119.5C82 119.224 82.2841 119 82.6346 119H87.3654C87.7159 119 88 119.224 88 119.5C88 119.776 87.7159 120 87.3654 120Z" fill="#E5E5E5"/>
<path fill-rule="evenodd" clip-rule="evenodd" d="M225.16 125.539C227.468 123.233 227.468 119.494 225.16 117.187C222.852 114.881 219.11 114.881 216.801 117.187C214.493 119.494 214.493 123.233 216.801 125.539C219.11 127.846 222.852 127.846 225.16 125.539Z" fill="#1EC4A7"/>
<path fill-rule="evenodd" clip-rule="evenodd" d="M191 58.9966C191.001 60.0586 190.6 61.0774 189.885 61.8284C189.17 62.5794 188.2 63.0009 187.188 63H133.808C131.705 63 130 61.2091 130 59C130 57.9391 130.401 56.9217 131.115 56.1716C131.83 55.4214 132.798 55 133.808 55H187.188C188.199 54.9991 189.168 55.4201 189.883 56.1704C190.598 56.9206 191 57.9385 191 59V58.9966Z" fill="#808080"/>
<path fill-rule="evenodd" clip-rule="evenodd" d="M185.351 68H136.649C136.29 68 136 67.7761 136 67.5C136 67.2239 136.29 67 136.649 67H185.351C185.71 67 186 67.2239 186 67.5C186 67.7761 185.71 68 185.351 68Z" fill="#808080"/>
<path fill-rule="evenodd" clip-rule="evenodd" d="M175.339 71H148.661C148.296 71 148 70.7761 148 70.5C148 70.2239 148.296 70 148.661 70H175.339C175.704 70 176 70.2239 176 70.5C176 70.7761 175.704 71 175.339 71Z" fill="#808080"/>
<path fill-rule="evenodd" clip-rule="evenodd" d="M123.374 93H107.626C107.28 93 107 92.7761 107 92.5C107 92.2239 107.28 92 107.626 92H123.374C123.72 92 124 92.2239 124 92.5C124 92.7761 123.72 93 123.374 93Z" fill="#808080"/>
<path fill-rule="evenodd" clip-rule="evenodd" d="M134.673 97H108.327C108.147 97 108 96.7761 108 96.5C108 96.2239 108.147 96 108.327 96H134.673C134.853 96 135 96.2239 135 96.5C135 96.7761 134.853 97 134.673 97Z" fill="#C4C4C4"/>
<path fill-rule="evenodd" clip-rule="evenodd" d="M134.673 102H108.327C108.147 102 108 101.776 108 101.5C108 101.224 108.147 101 108.327 101H134.673C134.853 101 135 101.224 135 101.5C135 101.776 134.853 102 134.673 102Z" fill="#C4C4C4"/>
<path fill-rule="evenodd" clip-rule="evenodd" d="M134.673 106H108.327C108.147 106 108 105.776 108 105.5C108 105.224 108.147 105 108.327 105H134.673C134.853 105 135 105.224 135 105.5C135 105.776 134.853 106 134.673 106Z" fill="#C4C4C4"/>
<path fill-rule="evenodd" clip-rule="evenodd" d="M123.675 111H107.325C107.145 111 107 110.776 107 110.5C107 110.224 107.145 110 107.325 110H123.675C123.855 110 124 110.224 124 110.5C124 110.776 123.855 111 123.675 111Z" fill="#C4C4C4"/>
<path fill-rule="evenodd" clip-rule="evenodd" d="M164.374 93H148.626C148.28 93 148 92.7761 148 92.5C148 92.2239 148.28 92 148.626 92H164.374C164.72 92 165 92.2239 165 92.5C165 92.7761 164.72 93 164.374 93Z" fill="#808080"/>
<path fill-rule="evenodd" clip-rule="evenodd" d="M175.673 97H149.327C149.147 97 149 96.7761 149 96.5C149 96.2239 149.147 96 149.327 96H175.673C175.853 96 176 96.2239 176 96.5C176 96.7761 175.853 97 175.673 97Z" fill="#C4C4C4"/>
<path fill-rule="evenodd" clip-rule="evenodd" d="M175.673 102H149.327C149.147 102 149 101.776 149 101.5C149 101.224 149.147 101 149.327 101H175.673C175.853 101 176 101.224 176 101.5C176 101.776 175.853 102 175.673 102Z" fill="#C4C4C4"/>
<path fill-rule="evenodd" clip-rule="evenodd" d="M175.673 106H149.327C149.147 106 149 105.776 149 105.5C149 105.224 149.147 105 149.327 105H175.673C175.853 105 176 105.224 176 105.5C176 105.776 175.853 106 175.673 106Z" fill="#C4C4C4"/>
<path fill-rule="evenodd" clip-rule="evenodd" d="M164.675 111H148.325C148.145 111 148 110.776 148 110.5C148 110.224 148.145 110 148.325 110H164.675C164.855 110 165 110.224 165 110.5C165 110.776 164.855 111 164.675 111Z" fill="#C4C4C4"/>
<path fill-rule="evenodd" clip-rule="evenodd" d="M205.375 93H189.625C189.28 93 189 92.7761 189 92.5C189 92.2239 189.28 92 189.625 92H205.375C205.72 92 206 92.2239 206 92.5C206 92.7761 205.72 93 205.375 93Z" fill="#808080"/>
<path fill-rule="evenodd" clip-rule="evenodd" d="M215.673 97H189.327C189.147 97 189 96.7761 189 96.5C189 96.2239 189.147 96 189.327 96H215.673C215.853 96 216 96.2239 216 96.5C216 96.7761 215.853 97 215.673 97Z" fill="#C4C4C4"/>
<path fill-rule="evenodd" clip-rule="evenodd" d="M215.673 102H189.327C189.147 102 189 101.776 189 101.5C189 101.224 189.147 101 189.327 101H215.673C215.853 101 216 101.224 216 101.5C216 101.776 215.853 102 215.673 102Z" fill="#C4C4C4"/>
<path fill-rule="evenodd" clip-rule="evenodd" d="M215.673 106H189.327C189.147 106 189 105.776 189 105.5C189 105.224 189.147 105 189.327 105H215.673C215.853 105 216 105.224 216 105.5C216 105.776 215.853 106 215.673 106Z" fill="#C4C4C4"/>
<path fill-rule="evenodd" clip-rule="evenodd" d="M205.675 111H189.325C189.145 111 189 110.776 189 110.5C189 110.224 189.145 110 189.325 110H205.675C205.855 110 206 110.224 206 110.5C206 110.776 205.855 111 205.675 111Z" fill="#C4C4C4"/>
<rect x="108" y="75" width="26" height="13" fill="#6E6E6E"/>
<rect x="148" y="75" width="26" height="13" fill="#6E6E6E"/>
<rect x="190" y="75" width="26" height="13" fill="#6E6E6E"/>
</svg>
