<svg width="233" height="141" viewBox="0 0 233 141" fill="none" xmlns="http://www.w3.org/2000/svg">
<path fill-rule="evenodd" clip-rule="evenodd" d="M42.7689 27.4741C42.282 27.18 42.3899 26.2586 43.0956 26.2586H65.4061C65.2268 15.2778 58.2684 5.55467 47.9325 1.8424C37.5966 -1.86987 26.042 1.20404 18.917 9.56151C11.7921 17.919 10.585 29.8144 15.8858 39.4328C21.1865 49.0512 31.8881 54.3836 42.759 52.8234L42.7689 27.4741Z" fill="#F2F2F2"/>
<rect x="59.1914" y="129.377" width="137.019" height="2.30032" fill="#F4F4F4"/>
<path fill-rule="evenodd" clip-rule="evenodd" d="M69.0004 50.3202V47.8663C69.0004 47.8663 69.3271 43.4846 73.8395 43.4846H198.985C198.985 43.4846 204.99 43.2428 204.99 47.8663V131.678H196.214V59.4137L69.0004 50.3202Z" fill="#F2F2F2"/>
<rect x="36.4626" y="33.4922" width="13.815" height="98.1851" fill="#EFEFEF"/>
<rect x="26.5197" y="131.024" width="196.978" height="1.30699" fill="#DEDEDE"/>
<path fill-rule="evenodd" clip-rule="evenodd" d="M196.214 64.779V55.5483C196.214 52.661 193.873 50.3203 190.986 50.3203H63.7724C60.8851 50.3203 58.5444 52.661 58.5444 55.5483V64.779H196.214Z" fill="#F94F24"/>
<rect x="195.018" y="64.7793" width="1.30699" height="66.8988" fill="#DEDEDE"/>
<rect x="58.5378" y="65.1055" width="1.307" height="66.572" fill="#DEDEDE"/>
<path fill-rule="evenodd" clip-rule="evenodd" d="M70.8563 57.5487C70.8577 58.3023 70.4047 58.9824 69.7088 59.2717C69.013 59.561 68.2114 59.4024 67.678 58.87C67.1447 58.3376 66.9848 57.5363 67.2729 56.8399C67.561 56.1435 68.2403 55.6894 68.9939 55.6895C70.0205 55.6913 70.8528 56.5221 70.8563 57.5487Z" fill="white"/>
<path fill-rule="evenodd" clip-rule="evenodd" d="M83.3775 57.5487C83.3788 58.3023 82.9258 58.9824 82.23 59.2717C81.5341 59.561 80.7325 59.4024 80.1991 58.87C79.6658 58.3376 79.5059 57.5363 79.794 56.8399C80.0821 56.1435 80.7614 55.6894 81.515 55.6895C82.5416 55.6913 83.3739 56.5221 83.3775 57.5487Z" fill="white"/>
<path fill-rule="evenodd" clip-rule="evenodd" d="M95.9213 57.5487C95.9226 58.3023 95.4696 58.9824 94.7738 59.2717C94.0779 59.561 93.2763 59.4024 92.743 58.87C92.2096 58.3376 92.0497 57.5363 92.3378 56.8399C92.6259 56.1435 93.3053 55.6894 94.0589 55.6895C95.0854 55.6913 95.9177 56.5221 95.9213 57.5487Z" fill="white"/>
<path fill-rule="evenodd" clip-rule="evenodd" d="M132.142 77.4213H131.286V76.5685C131.301 76.3712 131.205 76.1819 131.036 76.0785C130.867 75.9751 130.655 75.9751 130.486 76.0785C130.318 76.1819 130.221 76.3712 130.237 76.5685L130.237 77.4213H129.381C129.107 77.4429 128.896 77.6713 128.896 77.9457C128.896 78.2202 129.107 78.4485 129.381 78.4702L130.237 78.4702V79.3262C130.258 79.5999 130.487 79.8109 130.761 79.8109C131.036 79.8109 131.264 79.5999 131.286 79.3262V78.4702H132.142C132.415 78.4485 132.626 78.2202 132.626 77.9457C132.626 77.6713 132.415 77.4429 132.142 77.4213Z" fill="white"/>
<path fill-rule="evenodd" clip-rule="evenodd" d="M43.3702 51.0557C41.2234 51.0557 39.4851 52.1503 39.4851 53.4965C39.4851 54.8427 41.2234 55.9373 43.3702 55.9373C45.5169 55.9373 47.2552 54.846 47.2552 53.4965C47.2552 52.147 45.5169 51.0557 43.3702 51.0557ZM43.3702 55.5256C42.2496 55.5256 41.3411 54.6171 41.3411 53.4965C41.3411 52.3758 42.2496 51.4674 43.3702 51.4674C44.4909 51.4674 45.3993 52.3758 45.3993 53.4965C45.4002 54.0353 45.1868 54.5522 44.8061 54.9335C44.4255 55.3147 43.9089 55.5289 43.3701 55.5289L43.3702 55.5256Z" fill="#D3D3D3"/>
<path fill-rule="evenodd" clip-rule="evenodd" d="M44.8209 53.4967C44.8205 54.3041 44.1663 54.9577 43.3596 54.9573C42.553 54.9569 41.8994 54.3026 41.8998 53.496C41.9002 52.6893 42.5544 52.0357 43.3611 52.0361C44.1674 52.0365 44.8209 52.6903 44.8209 53.4967Z" fill="#D3D3D3"/>
<path fill-rule="evenodd" clip-rule="evenodd" d="M43.3702 41.7656C42.1358 41.7656 41.023 42.5092 40.5506 43.6496C40.0783 44.79 40.3394 46.1026 41.2122 46.9755C42.085 47.8483 43.3977 48.1094 44.5381 47.637C45.6785 47.1646 46.422 46.0518 46.422 44.8175C46.422 43.132 45.0557 41.7656 43.3702 41.7656ZM44.3929 45.2292H43.7818V45.837C43.7818 46.0644 43.5975 46.2487 43.3701 46.2487C43.1428 46.2487 42.9584 46.0644 42.9584 45.837L42.9584 45.2292H42.3507C42.1942 45.2432 42.0433 45.1676 41.9608 45.0339C41.8783 44.9003 41.8783 44.7315 41.9608 44.5979C42.0433 44.4642 42.1942 44.3886 42.3507 44.4025H42.9584V43.7948C42.9584 43.5674 43.1428 43.3831 43.3701 43.3831C43.5975 43.3831 43.7818 43.5674 43.7818 43.7948V44.4189H44.3929C44.6069 44.4379 44.771 44.6173 44.771 44.8322C44.771 45.0471 44.6069 45.2265 44.3929 45.2456V45.2292Z" fill="#D3D3D3"/>
<rect x="36.4626" y="22.3438" width="183.232" height="11.1487" fill="#D3D3D3"/>
<path fill-rule="evenodd" clip-rule="evenodd" d="M117.938 31.0874C117.848 31.0874 117.774 31.0142 117.774 30.924V24.9837C117.774 24.8935 117.848 24.8203 117.938 24.8203C118.027 24.8221 118.099 24.8942 118.101 24.9837V30.924C118.101 31.0142 118.028 31.0874 117.938 31.0874Z" fill="white"/>
<path fill-rule="evenodd" clip-rule="evenodd" d="M139.49 31.0874C139.4 31.0874 139.327 31.0142 139.327 30.924V24.9837C139.329 24.8942 139.401 24.8221 139.49 24.8203C139.58 24.8203 139.654 24.8935 139.654 24.9837L139.654 30.924C139.654 31.0142 139.58 31.0874 139.49 31.0874Z" fill="white"/>
<path fill-rule="evenodd" clip-rule="evenodd" d="M161.353 31.0874C161.263 31.0874 161.19 31.0142 161.19 30.924V24.9837C161.19 24.8935 161.263 24.8203 161.353 24.8203C161.443 24.8203 161.516 24.8935 161.516 24.9837V30.924C161.516 31.0142 161.443 31.0874 161.353 31.0874Z" fill="white"/>
<path fill-rule="evenodd" clip-rule="evenodd" d="M187.156 31.0874C187.066 31.0874 186.993 31.0142 186.993 30.924V24.9837C186.995 24.8942 187.067 24.8221 187.156 24.8203C187.247 24.8203 187.32 24.8935 187.32 24.9837V30.924C187.32 31.0142 187.247 31.0874 187.156 31.0874Z" fill="white"/>
<path fill-rule="evenodd" clip-rule="evenodd" d="M107.805 28.784C107.806 29.5062 107.422 30.174 106.796 30.5354C106.171 30.8968 105.401 30.8968 104.775 30.5354C104.15 30.174 103.766 29.5062 103.767 28.784C103.767 27.6698 105.786 25.1016 105.786 25.1016C105.786 25.1016 107.805 27.6698 107.805 28.784Z" fill="white"/>
<path fill-rule="evenodd" clip-rule="evenodd" d="M128.341 30.402L126.352 28.4121L125.816 28.948L128.341 31.4738L130.864 28.948L130.328 28.4121L128.341 30.402Z" fill="white"/>
<path fill-rule="evenodd" clip-rule="evenodd" d="M125.811 26.959L128.336 24.4337L130.861 26.959L128.336 29.4842L125.811 26.959Z" fill="white"/>
<path fill-rule="evenodd" clip-rule="evenodd" d="M148.401 26.9252C148.22 26.9252 148.074 26.779 148.074 26.5985V25.4908C148.074 25.3104 148.22 25.1641 148.401 25.1641H149.495C149.676 25.1641 149.822 25.3104 149.822 25.4908C149.822 25.6713 149.676 25.8176 149.495 25.8176H148.727V26.5985C148.727 26.779 148.581 26.9252 148.401 26.9252Z" fill="white"/>
<path fill-rule="evenodd" clip-rule="evenodd" d="M153.403 26.9252C153.223 26.9252 153.076 26.779 153.076 26.5985V25.8176H152.322C152.141 25.8176 151.995 25.6713 151.995 25.4908C151.995 25.3104 152.141 25.1641 152.322 25.1641H153.416C153.597 25.1641 153.743 25.3104 153.743 25.4908V26.5985C153.743 26.6875 153.707 26.7726 153.643 26.8343C153.579 26.8959 153.492 26.9288 153.403 26.9252H153.403Z" fill="white"/>
<path fill-rule="evenodd" clip-rule="evenodd" d="M153.403 30.6762H152.322C152.141 30.6762 151.995 30.5299 151.995 30.3495C151.995 30.169 152.141 30.0227 152.322 30.0227H153.089V29.2418C153.089 29.0613 153.236 28.915 153.416 28.915C153.597 28.915 153.743 29.0613 153.743 29.2418V30.3495C153.743 30.4384 153.707 30.5236 153.643 30.5853C153.579 30.6469 153.492 30.6798 153.403 30.6762H153.403Z" fill="white"/>
<path fill-rule="evenodd" clip-rule="evenodd" d="M149.482 30.6762H148.401C148.22 30.6762 148.074 30.5299 148.074 30.3495V29.2418C148.074 29.0613 148.22 28.915 148.401 28.915C148.581 28.915 148.727 29.0613 148.727 29.2418V30.0227H149.495C149.676 30.0227 149.822 30.169 149.822 30.3495C149.822 30.5299 149.676 30.6762 149.495 30.6762H149.482Z" fill="white"/>
<rect x="172.214" y="25.2002" width="4.01575" height="4.01576" fill="white"/>
<path fill-rule="evenodd" clip-rule="evenodd" d="M171.6 29.7746V26.6934H170.665V30.7091H174.681V29.7746H171.6Z" fill="white"/>
<path fill-rule="evenodd" clip-rule="evenodd" d="M194.071 26.9453H194.021V30.0429C194.021 30.765 194.61 30.9317 195.328 30.9317H196.671C197.394 30.9317 197.978 30.765 197.978 30.0429V26.9617L194.071 26.9453Z" fill="white"/>
<path fill-rule="evenodd" clip-rule="evenodd" d="M197.822 25.4388H197.282C197.286 25.4149 197.286 25.3907 197.282 25.3669C197.281 25.1227 197.082 24.9258 196.838 24.9258L195.136 24.9258C194.892 24.9258 194.693 25.1227 194.691 25.3669C194.689 25.3908 194.689 25.4149 194.691 25.4388L194.152 25.4388C193.964 25.417 193.779 25.5053 193.678 25.666C193.577 25.8267 193.577 26.0311 193.678 26.1918C193.779 26.3525 193.964 26.4408 194.152 26.419H197.789C198.038 26.3902 198.226 26.1795 198.226 25.9289C198.226 25.6783 198.038 25.4676 197.789 25.4388H197.822Z" fill="white"/>
<rect x="14.5834" y="131.024" width="6.89769" height="1.30699" fill="#DEDEDE"/>
<path fill-rule="evenodd" clip-rule="evenodd" d="M215.237 57.5485H199.504V68.0927H215.237C217.152 68.1404 218.942 67.1461 219.914 65.4953C220.885 63.8445 220.885 61.7968 219.914 60.146C218.942 58.4952 217.152 57.5009 215.237 57.5485H215.237Z" fill="#F2F2F2"/>
<path fill-rule="evenodd" clip-rule="evenodd" d="M23.873 73.5754C23.873 77.9064 20.362 81.4174 16.031 81.4174C11.6999 81.4174 8.18896 77.9064 8.18896 73.5754C8.18896 69.2444 11.6999 65.7334 16.031 65.7334C20.362 65.7334 23.873 69.2444 23.873 73.5754Z" fill="#F2F2F2"/>
<path fill-rule="evenodd" clip-rule="evenodd" d="M232.375 105.541C232.375 109.515 229.98 113.098 226.308 114.617C222.635 116.136 218.409 115.292 215.601 112.479C212.794 109.666 211.958 105.438 213.485 101.769C215.011 98.0989 218.598 95.7108 222.573 95.7188C225.176 95.7188 227.672 96.7542 229.511 98.5968C231.35 100.439 232.381 102.938 232.375 105.541Z" fill="#F2F2F2"/>
<path fill-rule="evenodd" clip-rule="evenodd" d="M153.001 108.623H152.021V108.296H153.001V108.623ZM150.714 108.623H149.734V108.296H150.714V108.623ZM148.427 108.623H147.446V108.296H148.427V108.623ZM146.14 108.623H145.159V108.296H146.14V108.623ZM143.852 108.623H142.872V108.296H143.852V108.623ZM141.565 108.623H140.585V108.296H141.565V108.623ZM139.278 108.623H138.82V107.77H139.147V108.296H139.278V108.623ZM139.147 106.463H138.82V105.483H139.147V106.463ZM139.147 104.176H138.82V103.196H139.147V104.176ZM139.147 101.889H138.82V100.908H139.147V101.889ZM139.147 99.6014H138.82V98.6212H139.147V99.6014ZM139.147 97.3142H138.82V96.3339H139.147V97.3142ZM139.147 95.0269H138.82V94.0466H139.147V95.0269ZM139.147 92.7396H138.82V91.7593H139.147V92.7396ZM139.147 90.4523H138.82V89.4721H139.147V90.4523ZM139.147 88.165H138.82V87.1848H139.147V88.165ZM139.147 85.8777H138.82V84.8975H139.147V85.8777ZM139.147 83.5905H138.82V82.6102H139.147V83.5905ZM139.147 81.3032H138.82V80.3229H139.147V81.3032ZM139.147 79.0159H138.82V78.0356H139.147V79.0159ZM139.147 76.7286H138.82V75.7484H139.147V76.7286ZM139.147 74.4413H138.82V73.4611H139.147V74.4413ZM139.147 72.1545H138.82V71.1742H139.147V72.1545ZM195.201 71.0269H194.874V70.7002H195.201V71.0269ZM193.567 71.0269H192.587V70.7002H193.567V71.0269ZM191.28 71.0269H190.3V70.7002H191.28V71.0269ZM188.993 71.0269H188.012V70.7002H188.993V71.0269ZM186.706 71.0269H185.725V70.7002H186.706V71.0269ZM184.418 71.0269H183.438V70.7002H184.418V71.0269ZM182.131 71.0269H181.151V70.7002H182.131V71.0269ZM179.844 71.0269H178.863V70.7002H179.844V71.0269ZM177.557 71.0269H176.576V70.7002H177.557V71.0269ZM175.269 71.0269H174.289V70.7002H175.269V71.0269ZM172.982 71.0269H172.002V70.7002H172.982V71.0269ZM170.695 71.0269H169.715V70.7002H170.695V71.0269ZM168.408 71.0269H167.427V70.7002H168.408V71.0269ZM166.12 71.0269H165.14V70.7002H166.12V71.0269ZM163.833 71.0269H162.853V70.7002H163.833V71.0269ZM161.546 71.0269H160.566V70.7002H161.546V71.0269ZM159.259 71.0269H158.278V70.7002H159.259V71.0269ZM156.971 71.0269H155.991V70.7002H156.971V71.0269ZM154.684 71.0269H153.704V70.7002H154.684V71.0269ZM152.397 71.0269H151.417V70.7002H152.397V71.0269ZM150.109 71.0269H149.129V70.7002H150.109V71.0269ZM147.822 71.0269H146.842V70.7002H147.822V71.0269ZM145.535 71.0269H144.555V70.7002H145.535V71.0269ZM143.248 71.0269H142.268V70.7002H143.248V71.0269ZM140.96 71.0269H139.98V70.7002H140.96V71.0269Z" fill="#F94F24"/>
<g style="mix-blend-mode:multiply">
<path fill-rule="evenodd" clip-rule="evenodd" d="M152.782 84.2302V81.7567C152.782 81.0737 153.024 80.4907 153.507 80.0077C153.99 79.5247 154.573 79.2832 155.256 79.2832H205.425C206.108 79.2832 206.691 79.5247 207.174 80.0077C207.657 80.4907 207.899 81.0737 207.899 81.7567V113.978C207.899 114.661 207.657 115.244 207.174 115.727C206.691 116.21 206.108 116.451 205.425 116.451H155.256C154.573 116.451 153.99 116.21 153.507 115.727C153.024 115.244 152.782 114.661 152.782 113.978V84.2302Z" fill="#E5E5E5"/>
</g>
<path fill-rule="evenodd" clip-rule="evenodd" d="M150.636 82.0837V79.6102C150.636 78.9272 150.877 78.3442 151.36 77.8612C151.843 77.3782 152.426 77.1367 153.109 77.1367H203.278C203.961 77.1367 204.544 77.3782 205.027 77.8612C205.51 78.3442 205.752 78.9272 205.752 79.6102V111.831C205.752 112.514 205.51 113.097 205.027 113.58C204.544 114.063 203.961 114.305 203.278 114.305H153.109C152.426 114.305 151.843 114.063 151.36 113.58C150.877 113.097 150.636 112.514 150.636 111.831V82.0837Z" fill="url(#paint0_linear)"/>
<path fill-rule="evenodd" clip-rule="evenodd" d="M187.996 87.2236L168.218 107.002L159.722 98.5063L150.629 107.6V111.815C150.629 113.181 151.736 114.288 153.103 114.288H203.295C204.661 114.288 205.768 113.181 205.768 111.815L205.768 104.992L187.996 87.2236Z" fill="white"/>
<path fill-rule="evenodd" clip-rule="evenodd" d="M167.357 94.5372C164.815 93.9374 163.241 91.391 163.841 88.8497C164.441 86.3084 166.987 84.7345 169.529 85.3343C172.07 85.9341 173.644 88.4805 173.044 91.0218C172.444 93.5631 169.898 95.137 167.357 94.5372Z" fill="white"/>
<rect x="66" y="72.999" width="20" height="15" rx="2" fill="#EFEFEF"/>
<rect x="89" y="72.999" width="20" height="15" rx="2" fill="#EFEFEF"/>
<rect x="112" y="72.999" width="20" height="15" rx="2" fill="#EFEFEF"/>
<rect x="66" y="90.999" width="20" height="15" rx="2" fill="#EFEFEF"/>
<rect x="89" y="90.999" width="20" height="15" rx="2" fill="#EFEFEF"/>
<rect x="112" y="90.999" width="20" height="15" rx="2" fill="#EFEFEF"/>
<rect x="66" y="108.999" width="20" height="15" rx="2" fill="#EFEFEF"/>
<rect x="89" y="108.999" width="20" height="15" rx="2" fill="#EFEFEF"/>
<rect x="112" y="108.999" width="20" height="15" rx="2" fill="#EFEFEF"/>
<path fill-rule="evenodd" clip-rule="evenodd" d="M65.7785 100.281C64.4371 100.282 63.0994 100.42 61.7863 100.695C56.3282 92.8163 46.7672 88.858 37.3377 90.5728C27.9082 92.2876 20.3528 99.3586 18.0177 108.654C17.4885 108.6 16.9569 108.572 16.4249 108.572C10.9377 108.501 5.837 111.388 3.07292 116.129C0.308852 120.87 0.30886 126.731 3.07295 131.472C5.83704 136.213 10.9378 139.1 16.4249 139.03H65.7785C76.3923 138.909 84.933 130.27 84.933 119.656C84.933 109.041 76.3923 100.402 65.7785 100.281V100.281Z" fill="url(#paint1_linear)" stroke="white" stroke-width="2"/>
<path fill-rule="evenodd" clip-rule="evenodd" d="M28 121.999H31V125.999H54V121.999H57V125.999V128.999H54H31H28V125.999V121.999Z" fill="white"/>
<path fill-rule="evenodd" clip-rule="evenodd" d="M48.5 112.999L41.9996 105.999L35.5 112.999H39V122.999H45V112.999H48.5Z" fill="white"/>
<path fill-rule="evenodd" clip-rule="evenodd" d="M189 108.235C189 100.372 195.374 93.999 203.236 93.999C211.098 93.999 217.471 100.372 217.471 108.235C217.471 116.097 211.098 122.47 203.236 122.47C195.374 122.47 189 116.097 189 108.235Z" fill="white" fill-opacity="0.721569" stroke="#FA5A28" stroke-width="2"/>
<path fill-rule="evenodd" clip-rule="evenodd" d="M214.729 115.914C215.522 114.823 217.048 114.582 218.138 115.374L229.327 123.503C230.417 124.295 230.659 125.821 229.867 126.912C229.074 128.002 227.548 128.244 226.458 127.452L215.269 119.323C214.179 118.531 213.937 117.004 214.729 115.914Z" fill="#FA5A28"/>
<defs>
<linearGradient id="paint0_linear" x1="189.49" y1="117.332" x2="198.712" y2="85.9636" gradientUnits="userSpaceOnUse">
<stop stop-color="#8033EB"/>
<stop offset="0.53" stop-color="#D4648E"/>
<stop offset="1" stop-color="#EC7071"/>
</linearGradient>
<linearGradient id="paint1_linear" x1="0.439735" y1="146.056" x2="89.6553" y2="140.735" gradientUnits="userSpaceOnUse">
<stop stop-color="#9839C3"/>
<stop offset="1" stop-color="#F94F24"/>
</linearGradient>
</defs>
</svg>
