<svg width="263" height="169" viewBox="0 0 263 169" fill="none" xmlns="http://www.w3.org/2000/svg">
<path fill-rule="evenodd" clip-rule="evenodd" d="M48.5548 29.3468C48.0292 29.0294 48.1456 28.0347 48.9076 28.0347H73C72.8064 16.1815 65.2944 5.68599 54.1362 1.67882C42.978 -2.32834 30.5042 0.989805 22.8125 10.0112C15.1207 19.0326 13.8176 31.873 19.5401 42.2555C25.2626 52.638 36.8155 58.3941 48.5513 56.7099L48.5548 29.3468Z" fill="#F2F2F2"/>
<path fill-rule="evenodd" clip-rule="evenodd" d="M251.334 120H234V131H251.334C254.486 130.926 257 128.485 257 125.5C257 122.515 254.486 120.074 251.334 120Z" fill="#F2F2F2"/>
<rect x="43" y="48" width="194" height="93" fill="white"/>
<path fill-rule="evenodd" clip-rule="evenodd" d="M88.7255 79H62.2637C61.5658 79 61 78.3284 61 77.5C61 76.6716 61.5658 76 62.2637 76H88.7363C89.4342 76 90 76.6716 90 77.5C90 78.3284 89.4342 79 88.7363 79H88.7255Z" fill="#DEDEDE"/>
<path fill-rule="evenodd" clip-rule="evenodd" d="M130.76 127H95.2395C94.5549 127 94 126.328 94 125.5C94 124.672 94.5549 124 95.2395 124H130.76C131.445 124 132 124.672 132 125.5C132 126.328 131.445 127 130.76 127Z" fill="#DEDEDE"/>
<path fill-rule="evenodd" clip-rule="evenodd" d="M70 57C70 57.5304 69.7898 58.0391 69.4157 58.4142C69.0416 58.7893 68.5342 59 68.0051 59H55.9949C54.8931 59 54 58.1046 54 57C54 56.4696 54.2102 55.9609 54.5843 55.5858C54.9584 55.2107 55.4658 55 55.9949 55H68.0051C68.5342 55 69.0416 55.2107 69.4157 55.5858C69.7898 55.9609 70 56.4696 70 57Z" fill="#E9E9E9"/>
<path fill-rule="evenodd" clip-rule="evenodd" d="M85 63C85 64.1046 84.096 65 82.9808 65H62.0192C60.904 65 60 64.1046 60 63C60 62.4696 60.2127 61.9609 60.5914 61.5858C60.9701 61.2107 61.4837 61 62.0192 61H82.9808C83.5163 61 84.0299 61.2107 84.4086 61.5858C84.7873 61.9609 85 62.4696 85 63Z" fill="#E9E9E9"/>
<path fill-rule="evenodd" clip-rule="evenodd" d="M96 71C96 72.1032 95.0652 72.9981 93.9109 73H63.0891C62.5344 73 62.0025 72.7892 61.6106 72.414C61.2187 72.0388 60.9991 71.5301 61 71C60.9991 70.4699 61.2187 69.9612 61.6106 69.586C62.0025 69.2108 62.5344 69 63.0891 69H93.9109C95.0652 69.0019 96 69.8968 96 71Z" fill="#E9E9E9"/>
<path fill-rule="evenodd" clip-rule="evenodd" d="M85.7255 95H59.2637C58.5658 95 58 94.3284 58 93.5C58 92.6716 58.5658 92 59.2637 92H85.7363C86.4342 92 87 92.6716 87 93.5C87 94.3284 86.4342 95 85.7363 95H85.7255Z" fill="#DEDEDE"/>
<path fill-rule="evenodd" clip-rule="evenodd" d="M93 87C93 88.1032 92.0652 88.9981 90.9109 89H60.0891C59.5344 89 59.0025 88.7892 58.6106 88.414C58.2187 88.0388 57.9991 87.5301 58 87C57.9991 86.4699 58.2187 85.9612 58.6106 85.586C59.0025 85.2108 59.5344 85 60.0891 85H90.9109C92.0652 85.0019 93 85.8968 93 87Z" fill="#E9E9E9"/>
<path fill-rule="evenodd" clip-rule="evenodd" d="M88.7255 110H62.2637C61.5658 110 61 109.328 61 108.5C61 107.672 61.5658 107 62.2637 107H88.7363C89.4342 107 90 107.672 90 108.5C90 109.328 89.4342 110 88.7363 110H88.7255Z" fill="#DEDEDE"/>
<path fill-rule="evenodd" clip-rule="evenodd" d="M96 102C96 103.103 95.0652 103.998 93.9109 104H63.0891C62.5344 104 62.0025 103.789 61.6106 103.414C61.2187 103.039 60.9991 102.53 61 102C60.9991 101.47 61.2187 100.961 61.6106 100.586C62.0025 100.211 62.5344 100 63.0891 100H93.9109C95.0652 100.002 96 100.897 96 102Z" fill="#E9E9E9"/>
<path fill-rule="evenodd" clip-rule="evenodd" d="M85.7255 126H59.2637C58.5658 126 58 125.328 58 124.5C58 123.672 58.5658 123 59.2637 123H85.7363C86.4342 123 87 123.672 87 124.5C87 125.328 86.4342 126 85.7363 126H85.7255Z" fill="#DEDEDE"/>
<path fill-rule="evenodd" clip-rule="evenodd" d="M93 118C93 119.103 92.0652 119.998 90.9109 120H60.0891C59.5344 120 59.0025 119.789 58.6106 119.414C58.2187 119.039 57.9991 118.53 58 118C57.9991 117.47 58.2187 116.961 58.6106 116.586C59.0025 116.211 59.5344 116 60.0891 116H90.9109C92.0652 116.002 93 116.897 93 118Z" fill="#E9E9E9"/>
<path fill-rule="evenodd" clip-rule="evenodd" d="M179.275 79H205.736C206.434 79 207 78.3284 207 77.5C207 76.6716 206.434 76 205.736 76H179.264C178.566 76 178 76.6716 178 77.5C178 78.3284 178.566 79 179.264 79H179.275Z" fill="#DEDEDE"/>
<path fill-rule="evenodd" clip-rule="evenodd" d="M178 71C178 72.1032 178.935 72.9981 180.089 73H210.911C211.466 73 211.997 72.7892 212.389 72.414C212.781 72.0388 213.001 71.5301 213 71C213.001 70.4699 212.781 69.9612 212.389 69.586C211.997 69.2108 211.466 69 210.911 69H180.089C178.935 69.0019 178 69.8968 178 71Z" fill="#E9E9E9"/>
<path fill-rule="evenodd" clip-rule="evenodd" d="M185.275 95H211.736C212.434 95 213 94.3284 213 93.5C213 92.6716 212.434 92 211.736 92H185.264C184.566 92 184 92.6716 184 93.5C184 94.3284 184.566 95 185.264 95H185.275Z" fill="#DEDEDE"/>
<path fill-rule="evenodd" clip-rule="evenodd" d="M175 87C175 88.1032 175.935 88.9981 177.089 89H207.911C208.466 89 208.997 88.7892 209.389 88.414C209.781 88.0388 210.001 87.5301 210 87C210.001 86.4699 209.781 85.9612 209.389 85.586C208.997 85.2108 208.466 85 207.911 85H177.089C175.935 85.0019 175 85.8968 175 87Z" fill="#E9E9E9"/>
<path fill-rule="evenodd" clip-rule="evenodd" d="M179.275 110H205.736C206.434 110 207 109.328 207 108.5C207 107.672 206.434 107 205.736 107H179.264C178.566 107 178 107.672 178 108.5C178 109.328 178.566 110 179.264 110H179.275Z" fill="#DEDEDE"/>
<path fill-rule="evenodd" clip-rule="evenodd" d="M178 102C178 103.103 178.935 103.998 180.089 104H210.911C211.466 104 211.997 103.789 212.389 103.414C212.781 103.039 213.001 102.53 213 102C213.001 101.47 212.781 100.961 212.389 100.586C211.997 100.211 211.466 100 210.911 100H180.089C178.935 100.002 178 100.897 178 102Z" fill="#E9E9E9"/>
<path fill-rule="evenodd" clip-rule="evenodd" d="M194.275 126H220.736C221.434 126 222 125.328 222 124.5C222 123.672 221.434 123 220.736 123H194.264C193.566 123 193 123.672 193 124.5C193 125.328 193.566 126 194.264 126H194.275Z" fill="#DEDEDE"/>
<path fill-rule="evenodd" clip-rule="evenodd" d="M175 118C175 119.103 175.935 119.998 177.089 120H207.911C208.466 120 208.997 119.789 209.389 119.414C209.781 119.039 210.001 118.53 210 118C210.001 117.47 209.781 116.961 209.389 116.586C208.997 116.211 208.466 116 207.911 116H177.089C175.935 116.002 175 116.897 175 118Z" fill="#E9E9E9"/>
<rect x="83" y="139" width="147" height="3" fill="#F4F4F4"/>
<rect x="41" y="36" width="2" height="106" fill="#EFEFEF"/>
<rect x="138" y="36" width="2" height="53" fill="#EFEFEF"/>
<rect x="238" y="36" width="2" height="106" fill="#EFEFEF"/>
<rect x="31" y="141" width="212" height="2" fill="#DEDEDE"/>
<rect x="171" y="57" width="10" height="5" fill="#E8E8E8"/>
<rect x="183" y="57" width="10" height="5" fill="#DEDEDE"/>
<rect x="193" y="57" width="10" height="5" fill="#DEDEDE"/>
<path fill-rule="evenodd" clip-rule="evenodd" d="M170 57.0015H164.946C163.906 56.9697 162.929 57.4389 162.398 58.225C161.867 59.0111 161.867 59.9889 162.398 60.775C162.929 61.5611 163.906 62.0303 164.946 61.9985H170V57.0015Z" fill="#DEDEDE"/>
<rect x="203" y="57" width="10" height="5" fill="#DEDEDE"/>
<path fill-rule="evenodd" clip-rule="evenodd" d="M219.989 57.0015H215V61.9985H219.989C221.052 62.0303 222.051 61.5611 222.593 60.775C223.136 59.9889 223.136 59.0111 222.593 58.225C222.051 57.4389 221.052 56.9697 219.989 57.0015Z" fill="#DEDEDE"/>
<rect x="41" y="14" width="198" height="12" fill="#C5C5C5"/>
<path fill-rule="evenodd" clip-rule="evenodd" d="M67.4019 20.6972C68.4815 18.4381 70.7627 17 73.2665 17H120.4C123.021 17 125.386 18.5742 126.397 20.9923L127.233 22.9923C129.024 27.2747 125.878 32 121.236 32H72.3107C67.5292 32 64.3842 27.0113 66.446 22.6972L67.4019 20.6972Z" fill="#E6E6E6"/>
<rect x="41" y="26" width="198" height="12" fill="#E6E6E6"/>
<path fill-rule="evenodd" clip-rule="evenodd" d="M48.5 122C66.4493 122 81 107.449 81 89.5C81 71.5507 66.4493 57 48.5 57C30.5507 57 16 71.5507 16 89.5C16 107.449 30.5507 122 48.5 122Z" fill="white" stroke="#F94F24" stroke-width="0.5" stroke-linecap="round" stroke-linejoin="round" stroke-dasharray="2 2"/>
<path fill-rule="evenodd" clip-rule="evenodd" d="M49 117C63.9117 117 76 104.912 76 90C76 75.0883 63.9117 63 49 63C34.0883 63 22 75.0883 22 90C22 104.912 34.0883 117 49 117Z" fill="#E535AB"/>
<path fill-rule="evenodd" clip-rule="evenodd" d="M229.5 128C247.449 128 262 113.449 262 95.5C262 77.5507 247.449 63 229.5 63C211.551 63 197 77.5507 197 95.5C197 113.449 211.551 128 229.5 128Z" fill="white" stroke="#F94F24" stroke-width="0.5" stroke-linecap="round" stroke-linejoin="round" stroke-dasharray="2 2"/>
<path fill-rule="evenodd" clip-rule="evenodd" d="M230 122C244.912 122 257 109.912 257 95C257 80.0883 244.912 68 230 68C215.088 68 203 80.0883 203 95C203 109.912 215.088 122 230 122Z" fill="#F94F24"/>
<path fill-rule="evenodd" clip-rule="evenodd" d="M242.302 103.226L231.198 109.551C230.147 110.15 228.853 110.15 227.802 109.551L216.698 103.226C215.647 102.628 215 101.522 215 100.325V87.6753C215 86.4783 215.647 85.3721 216.698 84.7737L227.802 78.449C228.853 77.8503 230.147 77.8503 231.198 78.449L242.302 84.7737C243.353 85.3721 244 86.4783 244 87.6753V100.325C244 101.522 243.353 102.628 242.302 103.226ZM236.268 88.6861C235.412 90.9666 234.551 93.2529 233.69 95.5416H233.417C232.558 93.2473 231.697 90.9554 230.839 88.6667H228.161C227.291 90.9806 226.43 93.2722 225.569 95.5668H225.319C224.446 93.25 223.573 90.9334 222.729 88.6972H219.531C221.086 92.9055 222.603 97.0083 224.12 101.111H226.759L229.372 94.1693H229.637C230.51 96.4973 231.38 98.8279 232.235 101.106H234.88C236.403 96.986 237.92 92.8806 239.469 88.6861H236.268Z" fill="white"/>
<rect x="230" y="30" width="6" height="1" rx="0.5" fill="#C5C5C5"/>
<rect x="230" y="32" width="6" height="1" rx="0.5" fill="#C5C5C5"/>
<rect x="230" y="34" width="6" height="1" rx="0.5" fill="#C5C5C5"/>
<path fill-rule="evenodd" clip-rule="evenodd" d="M132.74 119H126.26C125.564 119 125 118.328 125 117.5C125 116.672 125.564 116 126.26 116H132.74C133.436 116 134 116.672 134 117.5C134 118.328 133.436 119 132.74 119Z" fill="#DEDEDE"/>
<path fill-rule="evenodd" clip-rule="evenodd" d="M166.775 119H140.225C139.548 119 139 118.328 139 117.5C139 116.672 139.548 116 140.225 116H166.775C167.452 116 168 116.672 168 117.5C168 118.328 167.452 119 166.775 119Z" fill="#DEDEDE"/>
<path fill-rule="evenodd" clip-rule="evenodd" d="M150.757 127H138.243C137.557 127 137 126.328 137 125.5C137 124.672 137.557 124 138.243 124H150.757C151.443 124 152 124.672 152 125.5C152 126.328 151.443 127 150.757 127Z" fill="#DEDEDE"/>
<rect x="18" y="141" width="7" height="2" fill="#DEDEDE"/>
<rect x="249" y="141" width="7" height="2" fill="#DEDEDE"/>
<path fill-rule="evenodd" clip-rule="evenodd" d="M16 60C16 64.4183 12.4183 68 8 68C3.58172 68 0 64.4183 0 60C0 55.5817 3.58172 52 8 52C12.4183 52 16 55.5817 16 60Z" fill="#F2F2F2"/>
<path fill-rule="evenodd" clip-rule="evenodd" d="M262 52C262 54.2091 260.209 56 258 56C255.791 56 254 54.2091 254 52C254 49.7909 255.791 48 258 48C260.209 48 262 49.7909 262 52Z" fill="#F2F2F2"/>
<path fill-rule="evenodd" clip-rule="evenodd" d="M51 19.9965C51.0014 20.8057 50.515 21.536 49.7678 21.8467C49.0206 22.1574 48.1598 21.9871 47.5871 21.4154C47.0144 20.8437 46.8426 19.9832 47.152 19.2354C47.4613 18.4877 48.1908 18 49 18C50.1024 18.0019 50.9961 18.8941 51 19.9965Z" fill="#E20000"/>
<path fill-rule="evenodd" clip-rule="evenodd" d="M58 19.9965C58.0014 20.8057 57.515 21.536 56.7678 21.8467C56.0206 22.1574 55.1598 21.9871 54.5871 21.4154C54.0144 20.8437 53.8426 19.9832 54.152 19.2354C54.4613 18.4877 55.1908 18 56 18C57.1024 18.0019 57.9961 18.8941 58 19.9965Z" fill="#FFED47"/>
<path fill-rule="evenodd" clip-rule="evenodd" d="M65 19.9965C65.0014 20.8057 64.515 21.536 63.7678 21.8467C63.0206 22.1574 62.1598 21.9871 61.5871 21.4154C61.0144 20.8437 60.8426 19.9832 61.152 19.2354C61.4613 18.4877 62.1908 18 63 18C64.1024 18.0019 64.9961 18.8941 65 19.9965Z" fill="#00C7AB"/>
<path fill-rule="evenodd" clip-rule="evenodd" d="M47 31L51 29V33L47 31Z" fill="#C5C5C5"/>
<rect x="61" y="29" width="165" height="6" rx="3" fill="white"/>
<path fill-rule="evenodd" clip-rule="evenodd" d="M57 31L53 29V33L57 31Z" fill="#C5C5C5"/>
<path fill-rule="evenodd" clip-rule="evenodd" d="M37.1459 100.085L36.9489 99.8321L50.1998 74.5118L50.3968 74.7646L37.1459 100.085Z" fill="white"/>
<rect x="35.5643" y="97.3652" width="28.684" height="1.48601" fill="white"/>
<path fill-rule="evenodd" clip-rule="evenodd" d="M50.479 106.467L36.4662 97.7348L36.8752 96.8999L50.888 105.632L50.479 106.467Z" fill="white"/>
<path fill-rule="evenodd" clip-rule="evenodd" d="M62.9412 84.8906L48.9284 76.1587L49.3373 75.3237L63.3501 84.0557L62.9412 84.8906Z" fill="white"/>
<path fill-rule="evenodd" clip-rule="evenodd" d="M36.8781 84.8818L36.4691 84.0469L50.4819 75.3149L50.8909 76.1499L36.8781 84.8818Z" fill="white"/>
<path fill-rule="evenodd" clip-rule="evenodd" d="M62.6763 100.082L49.4255 74.7619L49.6225 74.5091L62.8732 99.8292L62.6763 100.082Z" fill="white"/>
<rect x="36.7012" y="82.623" width="1.48659" height="16.561" fill="white"/>
<rect x="61.6328" y="82.6211" width="1.48659" height="16.561" fill="white"/>
<path fill-rule="evenodd" clip-rule="evenodd" d="M50.224 105.841L49.866 105.11L62.0529 97.5153L62.4108 98.246L50.224 105.841Z" fill="white"/>
<path fill-rule="evenodd" clip-rule="evenodd" d="M65.0905 99.6677C64.2307 101.163 62.3143 101.673 60.8187 100.814C59.3232 99.9541 58.8127 98.0384 59.6725 96.5435C60.5322 95.0485 62.4486 94.5383 63.9442 95.3976C65.4487 96.266 65.9591 98.1727 65.0905 99.6677Z" fill="white"/>
<path fill-rule="evenodd" clip-rule="evenodd" d="M40.1418 85.2634C39.2821 86.7583 37.3657 87.2686 35.8701 86.4092C34.3746 85.5498 33.8641 83.6341 34.7238 82.1392C35.5836 80.6442 37.5 80.134 38.9956 80.9933C40.4911 81.8617 41.0016 83.7684 40.1418 85.2634Z" fill="white"/>
<path fill-rule="evenodd" clip-rule="evenodd" d="M34.7297 99.6677C33.87 98.1727 34.3804 96.266 35.876 95.3976C37.3715 94.5383 39.279 95.0485 40.1477 96.5435C41.0074 98.0384 40.497 99.9452 39.0014 100.814C37.4969 101.673 35.5894 101.163 34.7297 99.6677Z" fill="white"/>
<path fill-rule="evenodd" clip-rule="evenodd" d="M59.68 85.2634C58.8203 83.7684 59.3308 81.8617 60.8263 80.9933C62.3219 80.134 64.2294 80.6442 65.098 82.1392C65.9577 83.6341 65.4473 85.5409 63.9517 86.4092C62.4562 87.2686 60.5397 86.7583 59.68 85.2634Z" fill="white"/>
<path fill-rule="evenodd" clip-rule="evenodd" d="M49.9103 108.432C48.1819 108.432 46.7849 107.036 46.7849 105.308C46.7849 103.58 48.182 102.184 49.9103 102.184C51.6387 102.184 53.0358 103.58 53.0358 105.308C53.0358 107.027 51.6387 108.432 49.9103 108.432Z" fill="white"/>
<path fill-rule="evenodd" clip-rule="evenodd" d="M49.9108 79.6244C48.1824 79.6244 46.7854 78.2279 46.7854 76.5002C46.7854 74.7725 48.1824 73.376 49.9108 73.376C51.6392 73.376 53.0362 74.7725 53.0362 76.5002C53.0362 78.2279 51.6392 79.6244 49.9108 79.6244Z" fill="white"/>
<path fill-rule="evenodd" clip-rule="evenodd" d="M137.317 160.919C137.193 160.905 137.1 160.801 137.1 160.677C137.1 160.552 137.193 160.448 137.317 160.434C137.871 160.434 138.435 160.411 138.989 160.379C139.054 160.374 139.117 160.396 139.166 160.439C139.214 160.483 139.242 160.544 139.244 160.608C139.248 160.672 139.227 160.735 139.184 160.783C139.142 160.831 139.082 160.86 139.018 160.864C138.455 160.896 137.883 160.913 137.323 160.919H137.317ZM135.622 160.896C135.058 160.872 134.487 160.84 133.929 160.791C133.865 160.786 133.806 160.756 133.765 160.706C133.723 160.657 133.703 160.594 133.709 160.53C133.713 160.466 133.743 160.406 133.793 160.365C133.842 160.323 133.906 160.303 133.97 160.31C134.521 160.356 135.082 160.391 135.642 160.411C135.706 160.413 135.766 160.441 135.81 160.488C135.853 160.535 135.877 160.597 135.874 160.661C135.868 160.795 135.756 160.899 135.622 160.896ZM140.687 160.73C140.554 160.737 140.441 160.634 140.435 160.501C140.428 160.368 140.531 160.255 140.664 160.249C141.218 160.191 141.779 160.118 142.324 160.037C142.388 160.026 142.453 160.042 142.505 160.08C142.557 160.118 142.592 160.176 142.6 160.24C142.619 160.372 142.529 160.495 142.397 160.516C141.843 160.6 141.277 160.669 140.713 160.727L140.687 160.73ZM132.269 160.611H132.237C131.677 160.539 131.111 160.449 130.562 160.35C130.497 160.339 130.439 160.302 130.402 160.247C130.364 160.192 130.351 160.125 130.364 160.06C130.376 159.995 130.413 159.937 130.468 159.901C130.523 159.864 130.59 159.851 130.655 159.866C131.201 159.964 131.755 160.049 132.309 160.124C132.373 160.132 132.431 160.165 132.47 160.215C132.509 160.266 132.527 160.33 132.518 160.394C132.503 160.524 132.388 160.62 132.257 160.611H132.269ZM144.04 160.225C143.912 160.231 143.802 160.136 143.79 160.008C143.777 159.881 143.867 159.766 143.994 159.747C144.539 159.637 145.088 159.512 145.625 159.378C145.754 159.348 145.884 159.427 145.915 159.555C145.945 159.683 145.868 159.811 145.741 159.845C145.195 159.982 144.641 160.107 144.087 160.217L144.04 160.225ZM128.945 160.011H128.89C128.344 159.883 127.79 159.744 127.247 159.59C127.122 159.554 127.048 159.426 127.078 159.3C127.115 159.176 127.243 159.103 127.369 159.135C127.906 159.283 128.451 159.425 128.991 159.547C129.12 159.578 129.2 159.707 129.171 159.837C129.141 159.942 129.043 160.014 128.933 160.011H128.945ZM147.317 159.405C147.196 159.407 147.091 159.319 147.073 159.199C147.056 159.079 147.13 158.964 147.248 158.932C147.782 158.769 148.316 158.595 148.839 158.41C148.961 158.379 149.086 158.447 149.128 158.566C149.169 158.685 149.113 158.816 148.998 158.868C148.47 159.054 147.927 159.231 147.387 159.396L147.317 159.405ZM125.679 159.097C125.653 159.101 125.627 159.101 125.601 159.097C125.064 158.917 124.527 158.723 124.001 158.517C123.921 158.486 123.863 158.414 123.85 158.329C123.837 158.244 123.87 158.158 123.937 158.104C124.004 158.05 124.095 158.036 124.175 158.067C124.695 158.268 125.223 158.459 125.755 158.647C125.868 158.684 125.938 158.797 125.919 158.915C125.9 159.032 125.798 159.118 125.679 159.117V159.097ZM150.487 158.276C150.371 158.278 150.271 158.196 150.248 158.083C150.225 157.969 150.287 157.855 150.395 157.812C150.911 157.6 151.425 157.377 151.924 157.142C152.043 157.1 152.175 157.155 152.228 157.27C152.281 157.384 152.237 157.52 152.128 157.583C151.622 157.818 151.1 158.044 150.577 158.259C150.55 158.27 150.52 158.276 150.49 158.276H150.487ZM122.524 157.89C122.49 157.891 122.456 157.884 122.425 157.87C121.914 157.644 121.397 157.4 120.889 157.145C120.77 157.085 120.722 156.939 120.782 156.82C120.842 156.701 120.988 156.653 121.107 156.713C121.609 156.962 122.117 157.203 122.622 157.426C122.725 157.474 122.781 157.587 122.757 157.697C122.734 157.808 122.637 157.888 122.524 157.89ZM153.547 156.855C153.435 156.855 153.338 156.779 153.312 156.671C153.285 156.562 153.337 156.45 153.437 156.399C153.924 156.141 154.418 155.869 154.888 155.587C154.963 155.544 155.055 155.543 155.13 155.586C155.205 155.629 155.252 155.709 155.252 155.795C155.253 155.881 155.207 155.961 155.132 156.005C154.647 156.295 154.148 156.568 153.652 156.826C153.62 156.844 153.584 156.854 153.547 156.855ZM119.502 156.359C119.46 156.359 119.419 156.349 119.383 156.33C118.889 156.04 118.399 155.75 117.931 155.46C117.876 155.426 117.837 155.372 117.822 155.309C117.808 155.246 117.819 155.181 117.853 155.126C117.924 155.013 118.073 154.978 118.187 155.048C118.657 155.338 119.142 155.628 119.638 155.918C119.736 155.971 119.785 156.083 119.757 156.191C119.728 156.298 119.63 156.372 119.519 156.37L119.502 156.359ZM156.45 155.149C156.342 155.151 156.246 155.081 156.215 154.978C156.184 154.875 156.225 154.763 156.316 154.705C156.784 154.415 157.245 154.085 157.695 153.76C157.765 153.708 157.858 153.697 157.938 153.732C158.018 153.767 158.073 153.841 158.083 153.928C158.093 154.014 158.056 154.1 157.986 154.151C157.53 154.479 157.06 154.801 156.586 155.109C156.547 155.137 156.499 155.151 156.45 155.149ZM116.628 154.569C116.579 154.569 116.531 154.554 116.491 154.526C116.024 154.204 115.565 153.867 115.118 153.525C115.023 153.442 115.008 153.299 115.085 153.198C115.161 153.097 115.303 153.073 115.409 153.142C115.847 153.478 116.303 153.809 116.761 154.128C116.851 154.188 116.89 154.299 116.857 154.401C116.825 154.503 116.729 154.572 116.622 154.569H116.628ZM159.187 153.18C159.083 153.182 158.989 153.117 158.955 153.018C158.921 152.92 158.954 152.811 159.037 152.747C159.469 152.402 159.907 152.043 160.32 151.677C160.421 151.59 160.574 151.6 160.662 151.7C160.749 151.8 160.739 151.952 160.639 152.04C160.215 152.411 159.768 152.776 159.338 153.127C159.296 153.159 159.246 153.176 159.193 153.177L159.187 153.18ZM113.946 152.512C113.889 152.513 113.835 152.494 113.792 152.457C113.359 152.092 112.921 151.715 112.52 151.332C112.457 151.273 112.43 151.185 112.449 151.101C112.468 151.017 112.531 150.95 112.613 150.925C112.695 150.899 112.785 150.919 112.848 150.978C113.255 151.355 113.679 151.726 114.102 152.086C114.181 152.151 114.21 152.259 114.175 152.355C114.14 152.451 114.048 152.514 113.946 152.512ZM161.728 150.955C161.662 150.956 161.599 150.929 161.553 150.882C161.46 150.787 161.46 150.635 161.553 150.54C161.954 150.157 162.349 149.757 162.732 149.351C162.827 149.259 162.979 149.259 163.074 149.351C163.168 149.446 163.168 149.598 163.074 149.693C162.688 150.102 162.285 150.508 161.881 150.897C161.84 150.931 161.787 150.951 161.733 150.952L161.728 150.955ZM111.469 150.215C111.405 150.215 111.343 150.189 111.298 150.143C110.903 149.742 110.514 149.325 110.137 148.904C110.094 148.857 110.071 148.794 110.074 148.731C110.078 148.667 110.106 148.607 110.154 148.565C110.254 148.476 110.407 148.483 110.497 148.582C110.869 148.997 111.252 149.409 111.641 149.803C111.734 149.898 111.734 150.051 111.641 150.145C111.596 150.188 111.537 150.212 111.475 150.212L111.469 150.215ZM164.05 148.504C163.992 148.503 163.935 148.483 163.89 148.446C163.789 148.358 163.777 148.205 163.864 148.103C164.227 147.683 164.584 147.248 164.927 146.81C165.013 146.728 165.146 146.721 165.241 146.793C165.335 146.865 165.364 146.994 165.31 147.1C164.961 147.543 164.598 147.984 164.233 148.411C164.189 148.464 164.125 148.497 164.056 148.501L164.05 148.504ZM109.223 147.697C109.15 147.696 109.081 147.663 109.034 147.607C108.68 147.169 108.331 146.72 107.998 146.267C107.917 146.159 107.94 146.006 108.048 145.926C108.157 145.846 108.309 145.869 108.389 145.977C108.717 146.424 109.06 146.868 109.411 147.3C109.494 147.404 109.479 147.554 109.376 147.639C109.335 147.674 109.283 147.693 109.228 147.694L109.223 147.697ZM166.12 145.841C166.069 145.842 166.019 145.827 165.977 145.797C165.925 145.76 165.89 145.704 165.88 145.64C165.87 145.577 165.885 145.513 165.922 145.461C166.242 145.005 166.558 144.538 166.857 144.071C166.929 143.959 167.079 143.927 167.191 143.999C167.303 144.071 167.335 144.22 167.263 144.332C166.973 144.805 166.642 145.278 166.317 145.739C166.274 145.797 166.209 145.833 166.137 145.838L166.12 145.841ZM107.211 144.971C107.13 144.971 107.055 144.931 107.011 144.863C106.7 144.399 106.395 143.915 106.105 143.43C106.037 143.316 106.074 143.168 106.189 143.1C106.304 143.031 106.452 143.069 106.52 143.184C106.81 143.659 107.101 144.135 107.414 144.596C107.449 144.65 107.462 144.715 107.448 144.778C107.435 144.84 107.398 144.895 107.344 144.93C107.311 144.956 107.271 144.972 107.228 144.976L107.211 144.971ZM167.94 142.986C167.898 142.987 167.857 142.976 167.821 142.955C167.705 142.888 167.665 142.74 167.731 142.624C168.021 142.145 168.276 141.649 168.532 141.153C168.593 141.035 168.738 140.988 168.857 141.049C168.976 141.11 169.022 141.255 168.962 141.374C168.703 141.878 168.43 142.38 168.149 142.865C168.111 142.937 168.039 142.985 167.957 142.992L167.94 142.986ZM105.478 142.079C105.389 142.079 105.307 142.03 105.266 141.951C104.999 141.458 104.741 140.95 104.5 140.443C104.462 140.365 104.469 140.273 104.518 140.202C104.567 140.131 104.65 140.091 104.736 140.097C104.822 140.104 104.898 140.156 104.935 140.234C105.176 140.735 105.428 141.234 105.69 141.722C105.721 141.778 105.727 141.845 105.709 141.906C105.69 141.968 105.648 142.019 105.591 142.05C105.562 142.068 105.529 142.08 105.495 142.084L105.478 142.079ZM169.513 139.984C169.479 139.985 169.445 139.978 169.414 139.964C169.292 139.909 169.237 139.764 169.292 139.642C169.522 139.14 169.742 138.624 169.951 138.102C169.975 138.042 170.021 137.994 170.08 137.968C170.139 137.943 170.205 137.942 170.265 137.965C170.39 138.015 170.451 138.157 170.401 138.281C170.189 138.809 169.966 139.334 169.734 139.845C169.693 139.93 169.607 139.984 169.513 139.984ZM104.044 139.036C103.946 139.037 103.857 138.978 103.82 138.888C103.603 138.371 103.396 137.843 103.202 137.313C103.157 137.187 103.222 137.049 103.347 137.002C103.473 136.959 103.61 137.023 103.658 137.147C103.846 137.669 104.053 138.192 104.267 138.699C104.293 138.758 104.294 138.825 104.269 138.885C104.244 138.945 104.197 138.992 104.137 139.015C104.108 139.029 104.076 139.036 104.044 139.036ZM170.753 136.834C170.726 136.833 170.699 136.829 170.674 136.82C170.613 136.799 170.563 136.755 170.535 136.697C170.507 136.639 170.504 136.572 170.526 136.512C170.703 135.993 170.875 135.456 171.031 134.92C171.055 134.837 171.121 134.773 171.205 134.752C171.289 134.731 171.378 134.757 171.437 134.819C171.497 134.881 171.52 134.97 171.496 135.053C171.336 135.598 171.165 136.141 170.982 136.672C170.951 136.772 170.858 136.841 170.753 136.843V136.834ZM102.886 135.868C102.781 135.868 102.688 135.8 102.656 135.7C102.488 135.163 102.331 134.615 102.189 134.07C102.167 133.986 102.191 133.897 102.253 133.837C102.314 133.776 102.403 133.753 102.487 133.776C102.57 133.799 102.634 133.864 102.656 133.948C102.798 134.487 102.947 135.027 103.118 135.555C103.152 135.679 103.081 135.807 102.958 135.845C102.936 135.86 102.912 135.871 102.886 135.877V135.868ZM171.684 133.594C171.665 133.597 171.646 133.597 171.626 133.594C171.498 133.562 171.418 133.433 171.449 133.304C171.577 132.764 171.696 132.213 171.801 131.668C171.825 131.536 171.952 131.45 172.084 131.475C172.215 131.5 172.302 131.626 172.277 131.758C172.169 132.312 172.05 132.869 171.92 133.417C171.895 133.52 171.805 133.595 171.699 133.603L171.684 133.594ZM102.015 132.602C101.901 132.602 101.803 132.522 101.78 132.41C101.663 131.862 101.559 131.302 101.469 130.742C101.459 130.679 101.474 130.615 101.512 130.563C101.55 130.512 101.606 130.477 101.669 130.467C101.735 130.452 101.803 130.465 101.859 130.503C101.914 130.541 101.951 130.601 101.96 130.667C102.047 131.218 102.151 131.769 102.264 132.312C102.279 132.375 102.267 132.441 102.233 132.496C102.198 132.55 102.142 132.589 102.079 132.602C102.064 132.607 102.05 132.61 102.035 132.611L102.015 132.602ZM172.309 130.281H172.274C172.207 130.271 172.148 130.235 172.11 130.18C172.071 130.125 172.057 130.057 172.071 129.991C172.146 129.44 172.213 128.883 172.265 128.332C172.277 128.199 172.395 128.101 172.528 128.113C172.661 128.125 172.759 128.243 172.747 128.375C172.695 128.935 172.628 129.501 172.55 130.061C172.54 130.179 172.447 130.273 172.329 130.284L172.309 130.281ZM101.478 129.278C101.355 129.275 101.253 129.182 101.24 129.06C101.176 128.5 101.126 127.935 101.089 127.372C101.081 127.239 101.182 127.125 101.315 127.117C101.448 127.109 101.563 127.21 101.571 127.343C101.608 127.894 101.658 128.454 101.721 129.008C101.729 129.072 101.71 129.136 101.67 129.186C101.629 129.236 101.571 129.268 101.507 129.275L101.478 129.278ZM172.625 126.922C172.491 126.916 172.388 126.803 172.393 126.67C172.419 126.119 172.433 125.556 172.433 124.996C172.433 124.558 172.433 124.111 172.407 123.67C172.404 123.537 172.509 123.426 172.642 123.421C172.774 123.419 172.884 123.521 172.892 123.653C172.91 124.1 172.915 124.552 172.915 124.996C172.915 125.562 172.915 126.133 172.878 126.69C172.873 126.817 172.772 126.919 172.645 126.925L172.625 126.922ZM101.295 125.91C101.231 125.911 101.169 125.886 101.124 125.841C101.078 125.797 101.052 125.736 101.051 125.672C101.051 125.449 101.051 125.225 101.051 124.999C101.051 124.66 101.051 124.317 101.065 123.978C101.073 123.846 101.183 123.743 101.315 123.743C101.449 123.748 101.553 123.859 101.55 123.992C101.55 124.326 101.536 124.663 101.536 124.999C101.536 125.222 101.536 125.443 101.536 125.663C101.537 125.797 101.431 125.907 101.298 125.91H101.295ZM101.391 122.536H101.37C101.237 122.524 101.138 122.408 101.147 122.275C101.19 121.715 101.245 121.15 101.315 120.59C101.331 120.458 101.451 120.364 101.584 120.38C101.716 120.396 101.81 120.516 101.794 120.648C101.727 121.202 101.672 121.762 101.631 122.313C101.622 122.445 101.508 122.545 101.376 122.536H101.391ZM172.57 122.217C172.445 122.216 172.341 122.121 172.329 121.997C172.282 121.44 172.224 120.883 172.152 120.335C172.134 120.202 172.227 120.081 172.359 120.063C172.492 120.046 172.613 120.139 172.631 120.271C172.703 120.825 172.764 121.393 172.814 121.956C172.824 122.089 172.726 122.205 172.593 122.217H172.57ZM101.785 119.186H101.745C101.679 119.176 101.621 119.138 101.583 119.084C101.546 119.029 101.533 118.961 101.547 118.896C101.643 118.339 101.753 117.779 101.872 117.231C101.891 117.146 101.953 117.078 102.036 117.052C102.119 117.026 102.209 117.046 102.273 117.104C102.336 117.163 102.364 117.251 102.346 117.335C102.227 117.875 102.119 118.426 102.023 118.977C102.007 119.096 101.906 119.186 101.785 119.186ZM172.126 118.873C172.009 118.872 171.909 118.788 171.888 118.673C171.789 118.127 171.676 117.576 171.551 117.034C171.536 116.971 171.547 116.905 171.582 116.85C171.616 116.796 171.671 116.757 171.734 116.744C171.796 116.728 171.862 116.738 171.917 116.772C171.972 116.806 172.01 116.861 172.024 116.923C172.152 117.472 172.265 118.031 172.367 118.583C172.381 118.647 172.369 118.715 172.332 118.769C172.295 118.824 172.237 118.862 172.172 118.873H172.126ZM102.514 115.891C102.493 115.894 102.471 115.894 102.45 115.891C102.324 115.857 102.247 115.728 102.279 115.601C102.427 115.055 102.589 114.51 102.761 113.973C102.811 113.858 102.941 113.799 103.06 113.838C103.18 113.878 103.25 114.001 103.222 114.124C103.051 114.652 102.891 115.192 102.746 115.725C102.712 115.825 102.619 115.891 102.514 115.891ZM171.359 115.583C171.251 115.583 171.156 115.511 171.127 115.406C170.976 114.873 170.811 114.336 170.637 113.808C170.594 113.681 170.662 113.544 170.789 113.502C170.916 113.46 171.053 113.528 171.095 113.654C171.275 114.191 171.441 114.736 171.592 115.276C171.613 115.349 171.598 115.427 171.552 115.488C171.507 115.548 171.435 115.583 171.359 115.583ZM103.553 112.683C103.524 112.682 103.494 112.677 103.466 112.668C103.404 112.645 103.355 112.599 103.328 112.538C103.302 112.478 103.301 112.41 103.327 112.349C103.524 111.824 103.739 111.293 103.963 110.774C103.988 110.715 104.036 110.668 104.096 110.645C104.156 110.621 104.223 110.623 104.282 110.649C104.404 110.703 104.46 110.846 104.407 110.968C104.186 111.479 103.974 112.001 103.78 112.52C103.743 112.613 103.653 112.674 103.553 112.674V112.683ZM170.294 112.392C170.193 112.392 170.103 112.33 170.068 112.236C169.867 111.722 169.652 111.203 169.429 110.696C169.394 110.617 169.403 110.525 169.454 110.455C169.504 110.385 169.588 110.348 169.674 110.357C169.76 110.366 169.835 110.42 169.87 110.498C170.099 111.015 170.317 111.54 170.518 112.062C170.541 112.121 170.54 112.188 170.515 112.247C170.489 112.306 170.441 112.352 170.381 112.375C170.353 112.382 170.323 112.384 170.294 112.381V112.392ZM104.894 109.57C104.811 109.569 104.734 109.526 104.69 109.456C104.646 109.385 104.641 109.297 104.677 109.222C104.926 108.714 105.188 108.207 105.46 107.714C105.502 107.638 105.582 107.59 105.668 107.589C105.755 107.587 105.836 107.632 105.88 107.706C105.925 107.781 105.926 107.873 105.884 107.949C105.617 108.433 105.356 108.935 105.112 109.434C105.072 109.517 104.987 109.57 104.894 109.57ZM168.933 109.3C168.841 109.3 168.756 109.249 168.715 109.167C168.468 108.671 168.204 108.175 167.934 107.69C167.902 107.635 167.894 107.569 167.911 107.507C167.929 107.445 167.97 107.393 168.027 107.363C168.082 107.331 168.149 107.322 168.21 107.34C168.272 107.357 168.324 107.399 168.355 107.455C168.645 107.946 168.898 108.447 169.15 108.949C169.207 109.07 169.158 109.213 169.04 109.274C169.007 109.291 168.97 109.3 168.933 109.3ZM106.52 106.608C106.476 106.608 106.432 106.595 106.395 106.571C106.34 106.538 106.301 106.484 106.286 106.422C106.271 106.36 106.281 106.295 106.314 106.24C106.604 105.758 106.921 105.28 107.237 104.813C107.286 104.741 107.369 104.701 107.455 104.708C107.542 104.714 107.618 104.766 107.656 104.844C107.693 104.922 107.686 105.014 107.638 105.086C107.327 105.544 107.019 106.017 106.729 106.492C106.684 106.564 106.605 106.608 106.52 106.608ZM167.275 106.359C167.192 106.36 167.114 106.317 167.072 106.246C166.781 105.776 166.468 105.306 166.152 104.851C166.1 104.78 166.09 104.686 166.125 104.606C166.161 104.526 166.237 104.47 166.324 104.461C166.412 104.452 166.497 104.489 166.549 104.56C166.871 105.025 167.185 105.5 167.481 105.976C167.551 106.089 167.518 106.238 167.406 106.31C167.368 106.337 167.324 106.354 167.278 106.359H167.275ZM108.427 103.815C108.375 103.816 108.323 103.798 108.282 103.766C108.176 103.686 108.154 103.536 108.233 103.429C108.572 102.98 108.926 102.533 109.286 102.098C109.327 102.048 109.386 102.016 109.45 102.01C109.513 102.004 109.577 102.024 109.626 102.066C109.675 102.107 109.707 102.165 109.713 102.229C109.719 102.293 109.699 102.356 109.658 102.405C109.304 102.835 108.953 103.275 108.622 103.719C108.575 103.78 108.503 103.815 108.427 103.815ZM165.356 103.589C165.281 103.588 165.21 103.552 165.165 103.493C164.828 103.052 164.474 102.623 164.117 102.191C164.032 102.087 164.045 101.936 164.146 101.848C164.248 101.762 164.401 101.775 164.488 101.877C164.851 102.307 165.208 102.748 165.551 103.2C165.605 103.274 165.614 103.372 165.573 103.454C165.532 103.536 165.448 103.588 165.356 103.589ZM110.584 101.216C110.524 101.216 110.465 101.193 110.421 101.152C110.323 101.062 110.315 100.909 110.404 100.81C110.784 100.395 111.179 99.9831 111.565 99.5857C111.61 99.54 111.672 99.5143 111.737 99.5143C111.801 99.5143 111.863 99.54 111.908 99.5857C112 99.6812 112 99.8325 111.908 99.928C111.513 100.32 111.124 100.726 110.747 101.138C110.705 101.184 110.646 101.212 110.584 101.216ZM163.182 101.007C163.114 101.007 163.05 100.979 163.005 100.929C162.627 100.523 162.236 100.119 161.844 99.7308C161.751 99.6353 161.751 99.484 161.844 99.3885C161.889 99.3428 161.951 99.3171 162.015 99.3171C162.079 99.3171 162.141 99.3428 162.186 99.3885C162.59 99.783 162.987 100.192 163.368 100.604C163.434 100.674 163.452 100.777 163.413 100.865C163.375 100.954 163.287 101.011 163.191 101.01L163.182 101.007ZM112.962 98.8315C112.861 98.8307 112.772 98.7687 112.736 98.6752C112.7 98.5816 112.725 98.4756 112.799 98.408C113.217 98.028 113.65 97.6567 114.082 97.3C114.131 97.2591 114.195 97.2395 114.259 97.2455C114.322 97.2515 114.381 97.2826 114.422 97.3319C114.505 97.4348 114.491 97.5856 114.39 97.6713C113.963 98.0251 113.539 98.3935 113.124 98.7677C113.082 98.8054 113.029 98.8279 112.973 98.8315H112.962ZM160.761 98.6401C160.701 98.6401 160.643 98.6185 160.598 98.5792C160.183 98.2079 159.754 97.8424 159.327 97.4943C159.253 97.4067 159.251 97.2799 159.321 97.1894C159.39 97.0988 159.514 97.0688 159.617 97.1172C160.053 97.4711 160.488 97.8424 160.909 98.2195C160.957 98.2618 160.986 98.3217 160.989 98.3855C160.992 98.4494 160.97 98.5119 160.926 98.5589C160.887 98.6049 160.832 98.634 160.772 98.6401H160.761ZM115.577 96.685C115.5 96.6841 115.429 96.6477 115.383 96.5864C115.303 96.4798 115.325 96.3293 115.432 96.2499C115.882 95.9105 116.346 95.5798 116.811 95.2636C116.882 95.2149 116.974 95.2081 117.052 95.2457C117.13 95.2832 117.182 95.3595 117.189 95.4458C117.195 95.5321 117.155 95.6152 117.084 95.6639C116.625 95.9743 116.166 96.3021 115.722 96.6357C115.68 96.6669 115.629 96.6842 115.577 96.685ZM158.151 96.5139C158.099 96.5141 158.048 96.4978 158.006 96.4674C157.562 96.1368 157.1 95.8148 156.636 95.5044C156.582 95.469 156.544 95.4134 156.532 95.3501C156.519 95.2869 156.533 95.2212 156.569 95.1679C156.644 95.0571 156.794 95.0274 156.906 95.1012C157.373 95.4145 157.841 95.7423 158.293 96.0759C158.376 96.1385 158.41 96.2467 158.378 96.3455C158.346 96.4442 158.255 96.5118 158.151 96.5139ZM118.381 94.7908C118.297 94.7914 118.218 94.7473 118.175 94.6748C118.105 94.5609 118.14 94.4122 118.254 94.3412C118.733 94.0511 119.226 93.7611 119.705 93.4913C119.821 93.4408 119.956 93.4872 120.017 93.5982C120.077 93.7092 120.043 93.8479 119.937 93.9177C119.452 94.1846 118.965 94.4659 118.486 94.7531C118.451 94.7755 118.411 94.7875 118.37 94.7879L118.381 94.7908ZM155.35 94.6371C155.306 94.6383 155.263 94.6272 155.225 94.6052C154.749 94.3151 154.261 94.0395 153.774 93.7756C153.656 93.7123 153.612 93.5655 153.675 93.4478C153.738 93.33 153.885 93.2859 154.003 93.3492C154.502 93.6189 154.999 93.9003 155.48 94.1904C155.535 94.2235 155.574 94.2769 155.59 94.3389C155.605 94.4009 155.595 94.4664 155.562 94.5211C155.515 94.5981 155.428 94.6419 155.338 94.6342L155.35 94.6371ZM121.325 93.1664C121.211 93.1684 121.112 93.091 121.086 92.9806C121.06 92.8702 121.115 92.7566 121.217 92.7081C121.723 92.4615 122.239 92.2237 122.756 92.0003C122.879 91.9475 123.021 92.004 123.074 92.1265C123.127 92.2491 123.07 92.3913 122.948 92.4441C122.44 92.6646 121.929 92.8996 121.429 93.1432C121.396 93.1578 121.361 93.1657 121.325 93.1664ZM152.354 93.0359C152.318 93.0358 152.284 93.0269 152.252 93.0098C151.747 92.769 151.233 92.5399 150.723 92.3252C150.643 92.292 150.587 92.2188 150.575 92.1331C150.564 92.0475 150.6 91.9623 150.668 91.9098C150.737 91.8573 150.829 91.8453 150.908 91.8785C151.428 92.096 151.951 92.331 152.459 92.5747C152.517 92.6017 152.562 92.651 152.584 92.7115C152.606 92.7719 152.602 92.8386 152.575 92.8967C152.534 92.9804 152.45 93.0342 152.357 93.0359H152.354ZM124.419 91.8321C124.301 91.8345 124.199 91.7513 124.178 91.6355C124.156 91.5197 124.221 91.4053 124.332 91.3651C124.861 91.1678 125.398 90.9793 125.935 90.8052C126.062 90.7644 126.199 90.8345 126.239 90.9619C126.28 91.0892 126.21 91.2256 126.083 91.2664C125.554 91.4376 125.023 91.6232 124.504 91.8176C124.478 91.8274 124.45 91.8323 124.422 91.8321H124.419ZM149.236 91.7219C149.209 91.7276 149.18 91.7276 149.152 91.7219C148.63 91.5333 148.095 91.3506 147.564 91.1852C147.436 91.1449 147.365 91.0088 147.405 90.8806C147.444 90.759 147.572 90.6899 147.695 90.724C148.235 90.8922 148.778 91.075 149.306 91.2693C149.367 91.2909 149.416 91.3359 149.443 91.3942C149.471 91.4525 149.473 91.5193 149.451 91.5797C149.414 91.6641 149.331 91.7195 149.239 91.7219H149.236ZM127.636 90.7965C127.515 90.7964 127.413 90.7073 127.397 90.588C127.381 90.4686 127.456 90.3558 127.572 90.3237C128.118 90.1758 128.672 90.0336 129.221 89.9176C129.305 89.8989 129.393 89.9268 129.452 89.9906C129.51 90.0544 129.53 90.1445 129.504 90.227C129.478 90.3095 129.41 90.3718 129.325 90.3904C128.782 90.5094 128.237 90.6457 127.7 90.7878C127.679 90.795 127.657 90.7979 127.636 90.7965ZM146.011 90.7153H145.947C145.413 90.5761 144.865 90.4484 144.319 90.3324C144.234 90.3143 144.166 90.2525 144.139 90.1702C144.113 90.088 144.132 89.9979 144.19 89.9338C144.248 89.8698 144.336 89.8415 144.42 89.8596C144.972 89.9756 145.529 90.1061 146.072 90.2483C146.194 90.2751 146.275 90.3904 146.259 90.514C146.243 90.6376 146.136 90.7288 146.011 90.724V90.7153ZM130.936 90.0742C130.814 90.0687 130.715 89.9733 130.704 89.8513C130.694 89.7294 130.776 89.6187 130.896 89.5927C131.45 89.497 132.013 89.4158 132.574 89.3462C132.706 89.3324 132.825 89.4261 132.844 89.5579C132.859 89.6907 132.764 89.8111 132.632 89.8277C132.08 89.8944 131.523 89.9756 130.977 90.0684L130.936 90.0742ZM142.705 90.0133H142.667C142.121 89.9263 141.564 89.8509 141.009 89.7871C140.923 89.7777 140.849 89.7232 140.814 89.6441C140.779 89.5649 140.789 89.4731 140.84 89.4033C140.891 89.3335 140.976 89.2962 141.062 89.3055C141.625 89.3694 142.191 89.4477 142.742 89.5376C142.867 89.5571 142.955 89.669 142.945 89.7944C142.936 89.9198 142.831 90.0165 142.705 90.0162V90.0133ZM134.286 89.6565C134.159 89.657 134.053 89.5598 134.042 89.4332C134.038 89.3693 134.059 89.3061 134.101 89.2577C134.142 89.2092 134.202 89.1795 134.266 89.175C134.823 89.1344 135.392 89.1054 135.961 89.088C136.086 89.0973 136.183 89.199 136.187 89.3237C136.19 89.4483 136.099 89.5556 135.976 89.5724C135.416 89.5724 134.852 89.6159 134.304 89.6565H134.286ZM139.346 89.6362H139.323C138.771 89.5985 138.208 89.5753 137.651 89.5637C137.587 89.5622 137.526 89.5354 137.482 89.4891C137.438 89.4429 137.414 89.381 137.416 89.3172C137.416 89.253 137.443 89.1919 137.489 89.1477C137.536 89.1035 137.598 89.0798 137.662 89.0822C138.226 89.0822 138.795 89.117 139.355 89.1518C139.478 89.1654 139.572 89.2697 139.572 89.394C139.572 89.5183 139.478 89.6227 139.355 89.6362H139.346Z" fill="#F94F24"/>
<path fill-rule="evenodd" clip-rule="evenodd" d="M158.942 147.009C171.072 134.86 171.072 115.163 158.942 103.014C146.812 90.8656 127.146 90.8656 115.017 103.014C102.887 115.163 102.887 134.86 115.017 147.009C127.146 159.158 146.812 159.158 158.942 147.009Z" fill="url(#paint0_linear)"/>
<g style="mix-blend-mode:multiply">
<path fill-rule="evenodd" clip-rule="evenodd" d="M167.571 130.275C168.184 126.613 169.283 121.764 167.255 118.368C167.153 118.193 167.146 117.978 167.235 117.796C167.324 117.615 167.498 117.491 167.698 117.467C164.82 114.195 160.689 112.324 156.351 112.329C155.299 112.329 154.251 112.439 153.221 112.656C148.942 106.43 141.446 103.303 134.054 104.661C126.662 106.02 120.742 111.612 118.918 118.959C118.507 118.919 118.087 118.895 117.665 118.895C113.357 118.828 109.347 121.106 107.173 124.856C104.999 128.607 104.999 133.247 107.173 136.997C109.347 140.748 113.357 143.026 117.665 142.958H156.351C159.625 142.958 162.22 142.084 164.646 139.64C166.065 136.678 167.05 133.523 167.571 130.275Z" fill="#EBEBEB"/>
</g>
<path fill-rule="evenodd" clip-rule="evenodd" d="M154.883 110.538C153.822 110.538 152.763 110.647 151.725 110.865C147.404 104.637 139.834 101.508 132.369 102.863C124.903 104.218 118.921 109.808 117.073 117.156C112.636 116.686 108.302 118.702 105.807 122.395C103.312 126.088 103.064 130.854 105.162 134.786C107.26 138.717 111.361 141.171 115.823 141.163H154.883C163.353 141.163 170.22 134.307 170.22 125.85C170.22 117.394 163.353 110.538 154.883 110.538Z" fill="url(#paint1_linear)"/>
<path fill-rule="evenodd" clip-rule="evenodd" d="M115.801 119.254C116.224 119.255 116.646 119.277 117.066 119.322C118.912 111.901 124.895 106.254 132.363 104.885C139.831 103.516 147.402 106.678 151.722 112.969C156.073 112.049 160.606 113.076 164.148 115.785C167.69 118.493 169.892 122.617 170.185 127.089C170.209 126.756 170.22 126.417 170.22 126.079C170.219 121.42 168.134 117.01 164.545 114.074C160.956 111.138 156.246 109.989 151.722 110.946C147.401 104.657 139.83 101.497 132.364 102.866C124.897 104.235 118.914 109.879 117.066 117.299C113.671 116.944 110.285 118.055 107.747 120.356C105.208 122.657 103.755 125.933 103.746 129.374C103.746 129.716 103.76 130.052 103.79 130.388C104.315 124.094 109.536 119.255 115.801 119.254Z" fill="#C4ECEC"/>
<path fill-rule="evenodd" clip-rule="evenodd" d="M130.729 122.307H131.559L135.186 130.388H134.218L133.286 128.27H128.967L128.023 130.388H127.102L130.729 122.307ZM132.943 127.445L131.136 123.357L129.315 127.445H132.943Z" fill="#6731CF"/>
<path fill-rule="evenodd" clip-rule="evenodd" d="M137.887 122.307H141.03C142.924 122.307 144.169 123.276 144.169 124.869V124.895C144.169 126.637 142.658 127.539 140.872 127.539H138.83V130.388H137.881L137.887 122.307ZM140.907 126.707C142.299 126.707 143.209 125.991 143.209 124.928V124.906C143.209 123.751 142.311 123.15 140.957 123.15H138.836V126.707H140.907Z" fill="#6731CF"/>
<path fill-rule="evenodd" clip-rule="evenodd" d="M145.966 122.307H146.864V130.388H145.966V122.307Z" fill="#6731CF"/>
<g style="mix-blend-mode:multiply">
<path fill-rule="evenodd" clip-rule="evenodd" d="M178.295 144.24C178.205 143.129 178.104 142.019 178.005 140.908C177.965 140.447 177.797 140.302 177.322 140.29C176.488 140.268 175.654 140.236 174.817 140.222C174.559 140.254 174.32 140.087 174.266 139.838C174.151 139.473 173.988 139.124 173.78 138.801C173.337 138.141 172.856 137.506 172.369 136.877C172.248 136.758 172.212 136.579 172.28 136.424C172.45 135.994 172.607 135.57 172.76 135.12C172.934 134.63 173.096 134.135 173.261 133.642C173.34 133.167 172.882 132.981 172.343 132.688C171.474 132.253 170.629 131.803 169.76 131.381C169.378 131.196 169.181 131.279 168.929 131.626C168.435 132.363 167.941 133.102 167.449 133.844C167.387 133.974 167.237 134.039 167.098 133.995C165.669 133.717 164.195 133.763 162.786 134.129C162.666 134.143 162.546 134.104 162.459 134.021C161.804 133.317 161.161 132.597 160.521 131.888C160.203 131.535 159.98 131.509 159.577 131.791C158.659 132.426 157.738 133.061 156.814 133.685C156.4 133.969 156.316 134.217 156.551 134.647C156.964 135.406 157.383 136.166 157.808 136.925C157.892 137.051 157.874 137.218 157.764 137.324C157.388 137.794 157.05 138.292 156.751 138.813C156.448 139.436 156.179 140.075 155.945 140.726C155.905 140.877 155.776 140.99 155.618 141.011C154.703 141.173 153.794 141.355 152.881 141.532C152.317 141.643 152.224 141.754 152.262 142.329C152.337 143.431 152.427 144.53 152.502 145.632C152.534 146.108 152.693 146.276 153.18 146.295C154.049 146.33 154.938 146.375 155.815 146.398C156.032 146.398 156.105 146.492 156.18 146.683C156.684 148.006 157.475 149.206 158.497 150.199C158.568 150.306 158.588 150.438 158.552 150.561C158.262 151.46 157.973 152.357 157.683 153.254C157.606 153.411 157.604 153.593 157.676 153.752C157.749 153.911 157.889 154.03 158.06 154.077C159.131 154.553 160.197 155.037 161.274 155.501C161.44 155.557 161.623 155.531 161.767 155.432C162.036 155.191 162.274 154.919 162.476 154.621C162.841 154.077 163.16 153.502 163.516 152.95C163.584 152.857 163.69 152.8 163.806 152.793C165.124 152.981 166.467 152.901 167.753 152.56C167.875 152.534 168.002 152.566 168.098 152.645C168.726 153.32 169.34 154.006 169.948 154.695C170.357 155.156 170.568 155.208 171.063 154.872C171.999 154.239 172.923 153.593 173.846 152.947C173.994 152.87 174.1 152.735 174.139 152.576C174.178 152.417 174.145 152.249 174.049 152.115C173.623 151.312 173.18 150.521 172.757 149.721C172.709 149.625 172.709 149.512 172.757 149.416C173.61 148.383 174.237 147.188 174.596 145.905C174.631 145.738 174.774 145.614 174.947 145.601C175.849 145.43 176.749 145.253 177.649 145.071C178.249 144.946 178.341 144.823 178.295 144.24ZM165.277 149.08C162.947 149.08 160.846 147.7 159.955 145.584C159.063 143.468 159.556 141.032 161.204 139.412C162.851 137.793 165.329 137.308 167.481 138.185C169.634 139.061 171.037 141.126 171.037 143.417C171.029 146.539 168.453 149.066 165.277 149.066V149.08Z" fill="#EBEBEB"/>
</g>
<path fill-rule="evenodd" clip-rule="evenodd" d="M173.814 139.816C173.814 144.032 170.395 147.449 166.178 147.449C161.961 147.449 158.542 144.032 158.542 139.816C158.542 135.601 161.961 132.184 166.178 132.184C168.203 132.184 170.145 132.988 171.577 134.419C173.009 135.851 173.814 137.792 173.814 139.816Z" fill="white"/>
<path fill-rule="evenodd" clip-rule="evenodd" d="M179.194 142.445C179.104 141.332 179.002 140.224 178.904 139.114C178.863 138.653 178.698 138.507 178.223 138.496C177.386 138.473 176.552 138.442 175.718 138.428C175.46 138.46 175.22 138.293 175.165 138.043C175.051 137.678 174.887 137.329 174.679 137.007C174.235 136.346 173.755 135.711 173.268 135.079C173.146 134.962 173.111 134.783 173.178 134.629C173.352 134.199 173.509 133.775 173.662 133.325C173.833 132.835 173.995 132.34 174.16 131.847C174.238 131.369 173.781 131.187 173.242 130.893C172.373 130.455 171.528 130.008 170.659 129.586C170.279 129.401 170.08 129.484 169.83 129.831C169.332 130.568 168.839 131.307 168.351 132.049C168.289 132.181 168.137 132.245 167.997 132.2C166.568 131.922 165.094 131.966 163.685 132.331C163.565 132.347 163.445 132.308 163.358 132.226C162.703 131.523 162.06 130.802 161.42 130.093C161.102 129.74 160.879 129.714 160.476 129.994C159.558 130.631 158.64 131.266 157.713 131.89C157.299 132.175 157.215 132.422 157.45 132.849C157.867 133.609 158.286 134.368 158.707 135.127C158.791 135.253 158.774 135.42 158.666 135.526C158.289 135.995 157.95 136.492 157.652 137.012C157.348 137.636 157.08 138.276 156.847 138.929C156.806 139.081 156.676 139.193 156.517 139.213C155.602 139.379 154.693 139.561 153.78 139.737C153.201 139.848 153.123 139.957 153.161 140.535C153.236 141.637 153.329 142.736 153.401 143.838C153.433 144.313 153.592 144.478 154.082 144.498C154.95 144.535 155.837 144.581 156.714 144.601C156.892 144.59 157.05 144.713 157.079 144.886C157.582 146.21 158.373 147.411 159.396 148.405C159.468 148.511 159.489 148.644 159.451 148.767C159.161 149.666 158.872 150.56 158.582 151.46C158.505 151.617 158.503 151.799 158.575 151.958C158.648 152.117 158.788 152.236 158.959 152.283C160.03 152.759 161.096 153.243 162.173 153.707C162.339 153.761 162.522 153.736 162.666 153.638C162.935 153.397 163.173 153.125 163.375 152.827C163.74 152.28 164.059 151.708 164.415 151.156C164.485 151.059 164.598 151.001 164.719 150.999C166.037 151.187 167.38 151.107 168.666 150.765C168.789 150.741 168.917 150.772 169.014 150.851C169.639 151.525 170.255 152.208 170.861 152.901C171.27 153.362 171.481 153.414 171.976 153.078C172.913 152.442 173.842 151.8 174.763 151.153C174.909 151.076 175.015 150.94 175.053 150.781C175.092 150.622 175.058 150.455 174.962 150.321C174.54 149.518 174.094 148.727 173.671 147.927C173.621 147.831 173.621 147.718 173.671 147.622C174.522 146.588 175.147 145.393 175.507 144.111C175.54 143.943 175.684 143.819 175.857 143.806C176.758 143.635 177.662 143.459 178.562 143.277C179.139 143.151 179.24 143.029 179.194 142.445ZM166.161 147.272C163.831 147.272 161.731 145.892 160.839 143.775C159.948 141.659 160.441 139.223 162.088 137.603C163.735 135.984 166.213 135.499 168.366 136.376C170.518 137.252 171.921 139.317 171.921 141.608C171.921 144.73 169.351 147.264 166.176 147.272H166.161Z" fill="url(#paint2_linear)"/>
<path fill-rule="evenodd" clip-rule="evenodd" d="M75.4242 113.071C75.4056 113.009 75.414 112.942 75.4474 112.886C75.5143 112.771 75.6626 112.728 75.7803 112.79L76.0345 112.932C76.0913 112.962 76.133 113.013 76.1505 113.074C76.168 113.135 76.1597 113.2 76.1276 113.256C76.0607 113.371 75.9124 113.414 75.7947 113.352L75.5405 113.21C75.4841 113.181 75.4422 113.131 75.4242 113.071ZM77.156 114.036C77.1331 113.943 77.1685 113.845 77.2464 113.785C77.3243 113.726 77.4301 113.716 77.5165 113.76L78.9728 114.581C79.0799 114.65 79.1126 114.79 79.0478 114.9C78.9829 115.01 78.8426 115.054 78.7266 114.999L77.2561 114.183C77.2051 114.148 77.1694 114.096 77.156 114.036ZM80.1076 115.672C80.089 115.61 80.0974 115.543 80.1308 115.487C80.1976 115.371 80.346 115.329 80.4637 115.391L81.9341 116.207C82.0412 116.277 82.0739 116.416 82.0091 116.526C81.9442 116.637 81.8039 116.68 81.6878 116.626L80.2097 115.815C80.1585 115.782 80.1221 115.731 80.1076 115.672ZM83.0557 117.302C83.0281 117.208 83.0618 117.107 83.1407 117.046C83.2196 116.986 83.3276 116.978 83.4134 117.026L84.8838 117.843C84.959 117.884 85.0052 117.962 85.005 118.047C85.0049 118.133 84.9583 118.212 84.8829 118.255C84.8075 118.298 84.7148 118.3 84.6396 118.258L83.1691 117.442C83.1136 117.412 83.0728 117.361 83.0557 117.302ZM86.0038 118.938C85.9871 118.875 85.9965 118.808 86.0298 118.752C86.0609 118.696 86.1134 118.655 86.1755 118.637C86.2375 118.619 86.304 118.626 86.3598 118.657L87.8331 119.472C87.9496 119.538 87.9887 119.684 87.9205 119.799C87.8522 119.913 87.7025 119.954 87.586 119.888L86.1156 119.072C86.0582 119.046 86.0139 118.999 85.9925 118.941L86.0038 118.938ZM88.9544 120.575C88.9365 120.514 88.9452 120.448 88.9784 120.392C89.0453 120.277 89.1936 120.234 89.3113 120.297L90.7817 121.113C90.8888 121.182 90.9215 121.322 90.8567 121.432C90.7918 121.542 90.6515 121.586 90.5354 121.532L89.0791 120.711C89.0214 120.683 88.9769 120.634 88.9544 120.575ZM91.9042 122.22C91.8855 122.158 91.8939 122.091 91.9274 122.035C91.9942 121.919 92.1425 121.877 92.2602 121.939L93.7306 122.755C93.8469 122.82 93.8865 122.965 93.819 123.08C93.7516 123.194 93.6027 123.235 93.4864 123.171L92.016 122.354C91.9622 122.325 91.9222 122.277 91.9042 122.22ZM94.8515 123.857C94.8345 123.795 94.8428 123.728 94.8747 123.671C94.9415 123.556 95.0898 123.514 95.2075 123.576L96.6638 124.396C96.7391 124.438 96.7853 124.516 96.7851 124.601C96.7849 124.686 96.7384 124.765 96.663 124.809C96.5876 124.852 96.4948 124.853 96.4196 124.811L94.9633 123.991C94.9095 123.962 94.8695 123.914 94.8515 123.857ZM97.7985 125.491C97.7816 125.43 97.7912 125.363 97.8253 125.308C97.8922 125.193 98.0405 125.15 98.1582 125.213L99.6286 126.029C99.7357 126.098 99.7684 126.238 99.7036 126.348C99.6387 126.458 99.4984 126.502 99.3823 126.448L97.926 125.627C97.8709 125.603 97.827 125.559 97.8025 125.505L97.7985 125.491Z" fill="#F94F24"/>
<path d="M102.75 127C102.75 127.966 101.966 128.75 101 128.75C100.034 128.75 99.25 127.966 99.25 127C99.25 126.034 100.034 125.25 101 125.25C101.966 125.25 102.75 126.034 102.75 127Z" fill="white" stroke="#F94F24" stroke-width="0.5"/>
<path d="M74.75 111C74.75 111.966 73.9665 112.75 73 112.75C72.0335 112.75 71.25 111.966 71.25 111C71.25 110.034 72.0335 109.25 73 109.25C73.9665 109.25 74.75 110.034 74.75 111Z" fill="white" stroke="#F94F24" stroke-width="0.5"/>
<path fill-rule="evenodd" clip-rule="evenodd" d="M198.54 112.095C198.558 112.033 198.55 111.966 198.517 111.91C198.45 111.794 198.301 111.752 198.183 111.814L197.929 111.956C197.872 111.986 197.83 112.038 197.813 112.099C197.795 112.16 197.803 112.226 197.835 112.281C197.902 112.397 198.051 112.439 198.169 112.377L198.423 112.235C198.48 112.206 198.522 112.156 198.54 112.095ZM196.806 113.059C196.829 112.966 196.794 112.867 196.716 112.808C196.638 112.748 196.532 112.738 196.445 112.783L194.987 113.605C194.88 113.675 194.847 113.815 194.912 113.925C194.977 114.036 195.117 114.079 195.233 114.025L196.706 113.207C196.757 113.172 196.793 113.119 196.806 113.059ZM193.851 114.703C193.87 114.641 193.861 114.574 193.828 114.517C193.761 114.402 193.612 114.359 193.495 114.422L192.022 115.24C191.915 115.31 191.882 115.45 191.947 115.56C192.012 115.671 192.152 115.714 192.269 115.66L193.749 114.847C193.8 114.813 193.836 114.762 193.851 114.703ZM190.897 116.349C190.925 116.256 190.891 116.155 190.812 116.094C190.733 116.033 190.625 116.025 190.539 116.074L189.067 116.892C188.992 116.934 188.945 117.012 188.946 117.098C188.946 117.183 188.992 117.262 189.068 117.306C189.143 117.349 189.236 117.35 189.311 117.308L190.784 116.49C190.839 116.46 190.88 116.409 190.897 116.349ZM187.945 117.987C187.962 117.925 187.952 117.858 187.919 117.801C187.888 117.745 187.835 117.704 187.773 117.686C187.711 117.668 187.644 117.675 187.589 117.706L186.113 118.524C185.997 118.589 185.957 118.736 186.026 118.851C186.094 118.966 186.244 119.006 186.361 118.941L187.833 118.122C187.89 118.096 187.935 118.049 187.956 117.991L187.945 117.987ZM184.992 119.63C185.01 119.568 185.001 119.502 184.968 119.447C184.901 119.331 184.752 119.289 184.634 119.351L183.162 120.17C183.055 120.239 183.022 120.379 183.087 120.489C183.152 120.6 183.292 120.644 183.408 120.589L184.867 119.767C184.925 119.738 184.969 119.689 184.992 119.63ZM182.038 121.264C182.057 121.202 182.048 121.135 182.015 121.079C181.948 120.963 181.799 120.921 181.681 120.983L180.209 121.802C180.093 121.866 180.053 122.012 180.12 122.127C180.188 122.242 180.337 122.282 180.453 122.218L181.926 121.399C181.98 121.37 182.02 121.322 182.038 121.264ZM179.086 122.914C179.103 122.852 179.095 122.786 179.063 122.729C178.996 122.613 178.848 122.571 178.73 122.633L177.272 123.456C177.196 123.497 177.15 123.576 177.15 123.661C177.15 123.746 177.197 123.825 177.272 123.869C177.348 123.912 177.441 123.913 177.516 123.872L178.974 123.049C179.028 123.02 179.068 122.972 179.086 122.914ZM176.133 124.549C176.15 124.487 176.141 124.421 176.106 124.366C176.04 124.25 175.891 124.208 175.773 124.27L174.301 125.089C174.194 125.158 174.161 125.298 174.226 125.408C174.29 125.519 174.431 125.563 174.547 125.508L176.005 124.686C176.061 124.661 176.105 124.618 176.129 124.563L176.133 124.549Z" fill="#F94F24"/>
<path d="M199.25 111C199.25 111.966 200.034 112.75 201 112.75C201.966 112.75 202.75 111.966 202.75 111C202.75 110.034 201.966 109.25 201 109.25C200.034 109.25 199.25 110.034 199.25 111Z" fill="white" stroke="#F94F24" stroke-width="0.5"/>
<path d="M171.25 127C171.25 127.966 172.034 128.75 173 128.75C173.966 128.75 174.75 127.966 174.75 127C174.75 126.034 173.966 125.25 173 125.25C172.034 125.25 171.25 126.034 171.25 127Z" fill="white" stroke="#F94F24" stroke-width="0.5"/>
<path d="M80 81.9978C80 81.9978 104.568 65 137.071 65C169.573 65 201 82 201 82" stroke="#F94F24" stroke-width="0.5" stroke-linecap="round" stroke-linejoin="round" stroke-dasharray="2 2"/>
<path d="M199.25 82C199.25 82.9665 200.034 83.75 201 83.75C201.966 83.75 202.75 82.9665 202.75 82C202.75 81.0335 201.966 80.25 201 80.25C200.034 80.25 199.25 81.0335 199.25 82Z" fill="white" stroke="#F94F24" stroke-width="0.5"/>
<path d="M78.25 82C78.25 82.9665 79.0335 83.75 80 83.75C80.9665 83.75 81.75 82.9665 81.75 82C81.75 81.0335 80.9665 80.25 80 80.25C79.0335 80.25 78.25 81.0335 78.25 82Z" fill="white" stroke="#F94F24" stroke-width="0.5"/>
<defs>
<linearGradient id="paint0_linear" x1="145.664" y1="193.958" x2="183.562" y2="123.101" gradientUnits="userSpaceOnUse">
<stop stop-color="#8033EB"/>
<stop offset="0.53" stop-color="#D4648E"/>
<stop offset="1" stop-color="#EC7071"/>
</linearGradient>
<linearGradient id="paint1_linear" x1="167.46" y1="179.808" x2="172.29" y2="128.103" gradientUnits="userSpaceOnUse">
<stop stop-color="#8033EB"/>
<stop offset="1" stop-color="#A2E1E0"/>
</linearGradient>
<linearGradient id="paint2_linear" x1="153.152" y1="153.73" x2="179.202" y2="153.73" gradientUnits="userSpaceOnUse">
<stop stop-color="#8033EB"/>
<stop offset="1" stop-color="#6731CE"/>
</linearGradient>
</defs>
</svg>
