<svg width="204" height="138" viewBox="0 0 204 138" fill="none" xmlns="http://www.w3.org/2000/svg">
<path fill-rule="evenodd" clip-rule="evenodd" d="M203.217 34.5406C203.217 48.9834 191.509 60.6915 177.066 60.6915C162.623 60.6915 150.915 48.9834 150.915 34.5406C150.915 20.0978 162.623 8.38965 177.066 8.38965C184.002 8.38965 190.653 11.1448 195.558 16.0491C200.462 20.9533 203.217 27.6049 203.217 34.5406Z" fill="#F2F2F2"/>
<path fill-rule="evenodd" clip-rule="evenodd" d="M189.208 113.457C189.209 120.068 185.228 126.029 179.12 128.559C173.013 131.09 165.983 129.693 161.308 125.018C156.633 120.344 155.234 113.314 157.763 107.206C160.293 101.099 166.253 97.1162 172.864 97.1162C181.889 97.1162 189.206 104.432 189.208 113.457Z" fill="#F2F2F2"/>
<path fill-rule="evenodd" clip-rule="evenodd" d="M38.3867 86.4179C38.3867 93.1234 32.9507 98.5594 26.2451 98.5594C19.5396 98.5594 14.1036 93.1234 14.1036 86.4179C14.1036 79.7123 19.5396 74.2764 26.2451 74.2764C29.4655 74.2756 32.5542 75.5545 34.8314 77.8316C37.1085 80.1088 38.3875 83.1975 38.3867 86.4179Z" fill="#F2F2F2"/>
<rect x="64.0568" y="116.729" width="55.1038" height="13.0755" rx="6.53773" fill="#F2F2F2"/>
<rect y="37.2764" width="55.1038" height="13.0755" rx="6.53773" fill="#F2F2F2"/>
<path fill-rule="evenodd" clip-rule="evenodd" d="M120.451 108.323H95.4545C95.4545 108.323 98.1742 129.34 80.868 133.54H135.038C117.732 129.334 120.451 108.323 120.451 108.323Z" fill="#999999"/>
<rect x="80.868" y="133.541" width="54.1698" height="3.73586" fill="#E5E5E5"/>
<path fill-rule="evenodd" clip-rule="evenodd" d="M176.132 107.444C176.146 108.901 175.578 110.305 174.552 111.346C173.526 112.386 172.127 112.979 170.662 112.993H40.5743C37.5239 112.962 35.0757 110.478 35.1041 107.444V31.6815C35.0774 28.648 37.5251 26.1661 40.5743 26.1348H170.662C172.127 26.149 173.526 26.7417 174.552 27.7825C175.578 28.8233 176.146 30.2269 176.132 31.6845V107.444Z" fill="#B3B3B3"/>
<rect x="35.1039" y="33.6064" width="141.028" height="69.1132" fill="url(#paint0_linear)"/>
<g style="mix-blend-mode:multiply">
<rect x="35.1039" y="33.6064" width="141.028" height="0.93396" fill="#E5E5E5"/>
</g>
<path fill-rule="evenodd" clip-rule="evenodd" d="M95.421 112.993H120.547C120.547 112.993 120.854 116.295 121.028 117.15L93.0095 123.267C93.0095 123.267 95.421 119.446 95.421 112.993Z" fill="#828282"/>
<rect x="44.4435" y="49.4844" width="117.679" height="53.2358" fill="white"/>
<path fill-rule="evenodd" clip-rule="evenodd" d="M162.123 49.4834V46.3509C162.123 45.2001 161.658 44.0964 160.832 43.2826C160.005 42.4689 158.884 42.0117 157.715 42.0117H48.8512C46.4169 42.0117 44.4435 43.9544 44.4435 46.3509V49.4834H162.123Z" fill="#F94F24"/>
<path fill-rule="evenodd" clip-rule="evenodd" d="M52.8491 45.7484C52.8491 46.2642 52.431 46.6824 51.9152 46.6824C51.3994 46.6824 50.9812 46.2642 50.9812 45.7484C50.9812 45.2326 51.3994 44.8145 51.9152 44.8145C52.4304 44.8159 52.8476 45.2332 52.8491 45.7484Z" fill="white"/>
<path fill-rule="evenodd" clip-rule="evenodd" d="M60.3208 45.7484C60.3208 46.1261 60.0933 46.4667 59.7443 46.6113C59.3953 46.7558 58.9936 46.6759 58.7265 46.4088C58.4593 46.1417 58.3794 45.74 58.524 45.391C58.6686 45.042 59.0091 44.8145 59.3869 44.8145C59.9027 44.8145 60.3208 45.2326 60.3208 45.7484Z" fill="white"/>
<path fill-rule="evenodd" clip-rule="evenodd" d="M67.7926 45.7484C67.7926 46.1264 67.5648 46.4671 67.2154 46.6115C66.8661 46.7559 66.4642 46.6755 66.1973 46.4078C65.9304 46.1402 65.8512 45.738 65.9966 45.3891C66.142 45.0402 66.4834 44.8134 66.8614 44.8145C67.3761 44.8159 67.7926 45.2337 67.7926 45.7484Z" fill="white"/>
<path fill-rule="evenodd" clip-rule="evenodd" d="M89.1037 59.7576H54.887C54.2773 59.7576 53.7831 59.3394 53.7831 58.8236C53.7831 58.3078 54.2773 57.8896 54.887 57.8896H89.1037C89.7134 57.8896 90.2076 58.3078 90.2076 58.8236C90.2076 59.3394 89.7134 59.7576 89.1037 59.7576Z" fill="#D7D7D7"/>
<path fill-rule="evenodd" clip-rule="evenodd" d="M74.1076 66.2944H54.8248C54.2409 66.2684 53.7831 65.8585 53.7831 65.3617C53.7831 64.8649 54.2409 64.455 54.8248 64.429H74.1076C74.5135 64.411 74.8979 64.5847 75.1072 64.8807C75.3165 65.1767 75.3165 65.5467 75.1072 65.8427C74.8979 66.1387 74.5135 66.3124 74.1076 66.2944Z" fill="#D7D7D7"/>
<path fill-rule="evenodd" clip-rule="evenodd" d="M88.6778 74.6993H54.3789C54.1714 74.7122 53.9728 74.6264 53.8644 74.477C53.756 74.3275 53.756 74.1396 53.8644 73.9902C53.9728 73.8408 54.1714 73.7549 54.3789 73.7679H88.6778C88.8853 73.7549 89.0839 73.8408 89.1923 73.9902C89.3008 74.1396 89.3008 74.3275 89.1923 74.477C89.0839 74.6264 88.8853 74.7122 88.6778 74.6993Z" fill="#D7D7D7"/>
<path fill-rule="evenodd" clip-rule="evenodd" d="M88.6778 81.2374H54.3789C54.1714 81.2503 53.9728 81.1645 53.8644 81.0151C53.756 80.8656 53.756 80.6777 53.8644 80.5283C53.9728 80.3789 54.1714 80.293 54.3789 80.306H88.6778C88.8853 80.293 89.0839 80.3789 89.1923 80.5283C89.3008 80.6777 89.3008 80.8656 89.1923 81.0151C89.0839 81.1645 88.8853 81.2503 88.6778 81.2374Z" fill="#D7D7D7"/>
<path fill-rule="evenodd" clip-rule="evenodd" d="M88.6778 87.7755H54.3789C54.1714 87.7884 53.9728 87.7026 53.8644 87.5531C53.756 87.4037 53.756 87.2158 53.8644 87.0664C53.9728 86.9169 54.1714 86.8311 54.3789 86.8441H88.6778C88.8853 86.8311 89.0839 86.9169 89.1923 87.0664C89.3008 87.2158 89.3008 87.4037 89.1923 87.5531C89.0839 87.7026 88.8853 87.7884 88.6778 87.7755Z" fill="#D7D7D7"/>
<path fill-rule="evenodd" clip-rule="evenodd" d="M70.0903 93.379H54.3676C54.1641 93.3919 53.9692 93.3061 53.8629 93.1567C53.7565 93.0072 53.7565 92.8193 53.8629 92.6699C53.9692 92.5205 54.1641 92.4346 54.3676 92.4476H70.0903C70.3745 92.4656 70.5944 92.6687 70.5944 92.9133C70.5944 93.1578 70.3745 93.3609 70.0903 93.379Z" fill="#D7D7D7"/>
<g style="mix-blend-mode:screen" opacity="0.1">
<path fill-rule="evenodd" clip-rule="evenodd" d="M176.132 102.72V74.2371C176.132 74.2371 156.054 99.7004 105.618 77.2205C55.1823 54.7407 35.1039 77.2205 35.1039 77.2205V102.72H176.132Z" fill="#E5E5E5"/>
</g>
<g style="mix-blend-mode:multiply">
<rect x="35.1039" y="101.786" width="141.028" height="0.93396" fill="#E5E5E5"/>
</g>
<path fill-rule="evenodd" clip-rule="evenodd" d="M144.526 60.7535C143.814 60.7542 143.104 60.828 142.407 60.9738C139.498 56.7747 134.403 54.6648 129.377 55.5787C124.351 56.4925 120.324 60.2612 119.08 65.2156C118.797 65.1864 118.513 65.1717 118.229 65.1715C113.747 65.1733 110.115 68.8068 110.115 73.2886C110.114 77.7703 113.746 81.4043 118.228 81.4067H144.526C150.229 81.4067 154.853 76.7833 154.853 71.0801C154.853 65.3769 150.229 60.7535 144.526 60.7535V60.7535Z" fill="url(#paint1_linear)"/>
<path fill-rule="evenodd" clip-rule="evenodd" d="M118.219 66.4153C118.504 66.4154 118.787 66.4301 119.07 66.4593C120.313 61.5008 124.343 57.7287 129.373 56.8157C134.402 55.9028 139.501 58.018 142.407 62.2233C143.105 62.0804 143.815 62.0085 144.526 62.0088C149.967 62.0093 154.474 66.2318 154.828 71.6609C154.843 71.4368 154.853 71.2126 154.853 70.9846C154.853 67.8712 153.449 64.9252 151.032 62.9648C148.616 61.0043 145.443 60.2386 142.398 60.8806C139.489 56.6824 134.394 54.5731 129.369 55.4869C124.344 56.4006 120.317 60.1685 119.072 65.122C118.789 65.0928 118.505 65.0781 118.221 65.078C113.738 65.078 110.104 68.7123 110.104 73.1956C110.104 73.4216 110.115 73.6477 110.134 73.8699C110.478 69.6595 113.995 66.4172 118.219 66.4153L118.219 66.4153Z" fill="#8E4DEC"/>
<path fill-rule="evenodd" clip-rule="evenodd" d="M151.631 101.269L146.496 106.399L134.561 94.4648L130.414 103.7L119.805 74.7432L148.094 84.4676L140.265 90.3503L151.631 101.269Z" fill="url(#paint2_linear)"/>
<g style="mix-blend-mode:multiply">
<path fill-rule="evenodd" clip-rule="evenodd" d="M152.129 102.69L141.361 92.3444L148.527 86.9602C148.738 86.8056 148.843 86.5454 148.8 86.2877C148.76 86.0282 148.578 85.8126 148.33 85.7282L120.04 76.0037C119.783 75.9175 119.498 75.985 119.307 76.1777C119.115 76.3721 119.053 76.6597 119.147 76.916L129.755 105.868C129.853 106.139 130.106 106.322 130.393 106.333C130.681 106.343 130.946 106.178 131.063 105.915L134.792 97.6157L146.016 108.831C146.149 108.963 146.328 109.037 146.515 109.038C146.702 109.038 146.881 108.964 147.013 108.831L152.129 103.696C152.266 103.564 152.341 103.382 152.336 103.193C152.337 103.004 152.263 102.823 152.129 102.69Z" fill="#E5E5E5"/>
</g>
<path fill-rule="evenodd" clip-rule="evenodd" d="M146.486 106.87C146.362 106.87 146.241 106.821 146.153 106.733L134.731 95.2831L130.861 103.893C130.783 104.066 130.608 104.176 130.419 104.171C130.226 104.165 130.056 104.042 129.991 103.86L119.382 74.9078C119.32 74.7379 119.361 74.5474 119.487 74.418C119.614 74.2886 119.803 74.2432 119.975 74.3012L148.269 84.0257C148.433 84.0826 148.552 84.2255 148.579 84.3971C148.605 84.5685 148.534 84.7401 148.396 84.8439L141.008 90.3926L151.974 100.926C152.065 101.014 152.116 101.136 152.116 101.262C152.116 101.389 152.065 101.51 151.974 101.598L146.83 106.733C146.739 106.824 146.615 106.873 146.486 106.87V106.87ZM134.552 93.9946C134.678 93.9952 134.798 94.046 134.886 94.1357L146.486 105.736L150.949 101.274L139.931 90.6889C139.833 90.5931 139.782 90.4591 139.79 90.3221C139.798 90.1849 139.865 90.0578 139.974 89.9741L147.093 84.6276L120.586 75.5097L130.461 102.454L134.138 94.2721C134.202 94.1319 134.33 94.0318 134.481 94.004L134.552 93.9946Z" fill="white"/>
<path fill-rule="evenodd" clip-rule="evenodd" d="M128.1 36.2165L128.104 36.2263C126.978 36.3413 125.539 36.2556 125.104 35.9963C125.104 35.9963 125.104 24.2996 125.104 23.4066C125.104 22.9271 125.179 22.5651 125.338 22.2764L125.406 22.2935C126.733 22.2935 128.1 22.3449 128.1 23.1351C128.1 23.9253 128.1 36.2165 128.1 36.2165Z" fill="#FFD54F"/>
<path fill-rule="evenodd" clip-rule="evenodd" d="M127.104 7.27637C127.104 9.4513 127.104 12.7527 127.104 15.2764L148.104 11.2569L127.104 7.27637Z" fill="#7B39D9"/>
<path fill-rule="evenodd" clip-rule="evenodd" d="M56.1038 10.9828L81.0018 16.2764H81.022V14.8614H80.9816C78.767 14.0912 79.4329 12.2724 81.196 11.3316C82.9591 10.3883 88.1753 6.64516 102.457 6.64516C116.738 6.64516 124.696 11.9537 125.337 12.5935C125.98 13.2332 126.079 14.9041 123.609 15.2478H123.594V16.2638L126.104 15.732V6.27888L102.308 1.27637L56.1038 10.9828Z" fill="#7B39D9"/>
<path fill-rule="evenodd" clip-rule="evenodd" d="M87.4505 9.77505C84.6811 10.6464 82.3073 11.8092 80.5732 13.2659V14.8722H80.5321C78.2765 14.0664 78.9548 12.1635 80.7505 11.1793C82.5462 10.1924 87.8589 6.27637 102.405 6.27637C116.95 6.27637 125.056 11.8302 125.708 12.4995C126.363 13.1688 126.463 14.9168 123.948 15.2764H123.933V13.2659C116.873 8.10051 102.081 6.5782 91.0779 8.84592C89.8114 9.10576 88.5962 9.41547 87.4505 9.77505Z" fill="#360083"/>
<path fill-rule="evenodd" clip-rule="evenodd" d="M124.104 30.4348V31.43C118.646 29.5129 106.408 30.0867 102.328 33.2764C99.8769 31.3892 95.6219 30.4212 91.1038 30.2716V29.2764C95.6194 29.4259 99.8769 30.394 102.328 32.2838C106.408 29.0942 118.646 28.5204 124.104 30.4348Z" fill="#FEB64D"/>
<path fill-rule="evenodd" clip-rule="evenodd" d="M125.573 5.28391L102.283 0.276367L54.1117 10.6347L54.1038 12.2764L102.283 1.98191L127.096 7.28745V5.65375L127.104 5.61384L125.573 5.28391Z" fill="#360083"/>
<path fill-rule="evenodd" clip-rule="evenodd" d="M91.1038 29.2948V30.2255C89.778 30.1874 88.4352 30.2052 87.1038 30.2764V29.3457C88.4352 29.2745 89.7808 29.2592 91.1038 29.2948Z" fill="#FEB64D"/>
<path fill-rule="evenodd" clip-rule="evenodd" d="M102.104 33.3463C99.6272 31.4316 95.3283 30.4494 90.7636 30.2976C89.5435 30.2563 88.3078 30.2756 87.0825 30.3528C84.632 30.5046 82.2284 30.8825 80.1038 31.473V34.403C82.2284 33.8126 84.632 33.4346 87.0825 33.2829C88.3078 33.2056 89.5435 33.1863 90.7636 33.2277C95.3283 33.3794 99.6272 34.3616 102.104 36.2764C106.225 33.0401 118.59 32.4579 124.104 34.403V31.473C118.59 29.5279 106.225 30.11 102.104 33.3463Z" fill="#FFD54F"/>
<path fill-rule="evenodd" clip-rule="evenodd" d="M87.1038 29.2764V30.2246C84.6458 30.367 82.2349 30.722 80.1038 31.2764V30.3282C82.2349 29.7738 84.6484 29.4189 87.1038 29.2764Z" fill="#FEB64D"/>
<path fill-rule="evenodd" clip-rule="evenodd" d="M90.7636 8.28556C89.4783 8.54225 88.2452 8.84819 87.0825 9.2034C84.2723 10.0642 81.8634 11.2128 80.1038 12.6518V14.2385V15.7009V30.5133C82.2284 29.9584 84.6346 29.6032 87.0825 29.4606C88.3078 29.388 89.5461 29.3725 90.7636 29.4088C95.3257 29.5514 99.6272 30.4744 102.104 32.2764C106.225 29.2351 118.59 28.688 124.104 30.5133V15.6879V14.6378V12.6518C116.94 7.54922 101.929 6.04542 90.7636 8.28556Z" fill="url(#paint3_linear)"/>
<path fill-rule="evenodd" clip-rule="evenodd" d="M148.104 10.7104L148.076 12.2764L127.104 7.87281C127.104 7.24337 127.104 6.69769 127.104 6.27637L148.104 10.7104Z" fill="#360083"/>
<path fill-rule="evenodd" clip-rule="evenodd" d="M128.093 23.9551C128.093 24.8135 128.093 36.0573 128.093 36.0573C127.908 36.1631 127.633 36.236 127.323 36.2783L127.321 36.2689C127.321 36.2689 127.321 24.4537 127.321 23.6941C127.321 22.9345 126.371 22.8851 125.448 22.8851L125.401 22.8686C125.491 22.6287 125.626 22.4429 125.801 22.2783H127.531C127.908 22.6334 128.093 23.0967 128.093 23.9551Z" fill="#FEC007"/>
<path fill-rule="evenodd" clip-rule="evenodd" d="M127.841 21.088C128.063 21.3187 128.068 21.7005 127.851 21.9418L127.543 22.2786H127.531H125.801L125.441 21.9233C125.208 21.6952 125.198 21.3081 125.416 21.0642L125.776 20.6611H127.431L127.841 21.088Z" fill="#C52827"/>
<path fill-rule="evenodd" clip-rule="evenodd" d="M127.431 16.5039C127.431 18.8797 127.431 20.6615 127.431 20.6615H125.776V16.8778L127.431 16.5039Z" fill="#FA5A28"/>
<path fill-rule="evenodd" clip-rule="evenodd" d="M127.431 7.25793C127.431 9.77157 127.431 13.5871 127.431 16.5038L125.776 16.8776V6.88672L127.431 7.25793Z" fill="#FA5A28"/>
<path fill-rule="evenodd" clip-rule="evenodd" d="M127.431 5.58996C127.431 6.03011 127.431 6.60019 127.431 7.25776L125.776 6.88655V5.25852L125.783 5.21875L127.431 5.58996Z" fill="#FA5A28"/>
<path fill-rule="evenodd" clip-rule="evenodd" d="M127.431 5.51816C127.431 5.54202 127.431 5.56589 127.431 5.58975L125.783 5.21854L124.328 4.88975V4.88445C124.328 2.90642 127.431 2.74733 127.431 5.51816Z" fill="#FA5A28"/>
<defs>
<linearGradient id="paint0_linear" x1="-18.9749" y1="58.4089" x2="15.5916" y2="153.486" gradientUnits="userSpaceOnUse">
<stop stop-color="#8033EB"/>
<stop offset="0.53" stop-color="#D4648E"/>
<stop offset="1" stop-color="#EC7071"/>
</linearGradient>
<linearGradient id="paint1_linear" x1="177.222" y1="68.3874" x2="154.582" y2="29.4876" gradientUnits="userSpaceOnUse">
<stop stop-color="#7D6DF2"/>
<stop offset="1" stop-color="#C499FB"/>
</linearGradient>
<linearGradient id="paint2_linear" x1="119.805" y1="106.399" x2="151.631" y2="106.399" gradientUnits="userSpaceOnUse">
<stop stop-color="#8033EB"/>
<stop offset="1" stop-color="#6731CE"/>
</linearGradient>
<linearGradient id="paint3_linear" x1="150.259" y1="6.66148" x2="132.004" y2="-20.5827" gradientUnits="userSpaceOnUse">
<stop stop-color="#9033EA"/>
<stop offset="1" stop-color="#483EB7"/>
</linearGradient>
</defs>
</svg>
