<svg width="205" height="122" viewBox="0 0 205 122" fill="none" xmlns="http://www.w3.org/2000/svg">
<path fill-rule="evenodd" clip-rule="evenodd" d="M165.058 65H33.7537C33.335 65 33 64.6693 33 64.2559V51.7441C33 51.3307 33.335 51 33.7537 51H165.058C165.058 51 167 54.89 167 58.2601C167 61.6301 165.058 65 165.058 65Z" fill="url(#paint0_linear)"/>
<path fill-rule="evenodd" clip-rule="evenodd" d="M204.113 26.2642C204.113 40.707 192.405 52.4152 177.962 52.4152C163.52 52.4152 151.811 40.707 151.811 26.2642C151.811 11.8215 163.52 0.113281 177.962 0.113281C184.898 0.113281 191.55 2.86846 196.454 7.77272C201.358 12.677 204.113 19.3286 204.113 26.2642Z" fill="#F2F2F2"/>
<path fill-rule="evenodd" clip-rule="evenodd" d="M190.104 105.181C190.105 111.792 186.124 117.752 180.017 120.283C173.909 122.814 166.879 121.416 162.204 116.742C157.529 112.068 156.13 105.038 158.66 98.93C161.189 92.8223 167.149 88.8398 173.76 88.8398C182.785 88.8398 190.102 96.1555 190.104 105.181Z" fill="#F2F2F2"/>
<path fill-rule="evenodd" clip-rule="evenodd" d="M39.2829 78.1415C39.2829 84.8471 33.847 90.283 27.1414 90.283C20.4358 90.283 14.9999 84.8471 14.9999 78.1415C14.9999 71.4359 20.4358 66 27.1414 66C30.3618 65.9992 33.4505 67.2781 35.7276 69.5553C38.0048 71.8324 39.2837 74.9211 39.2829 78.1415Z" fill="#F2F2F2"/>
<rect x="64.953" y="108.453" width="55.1038" height="13.0755" rx="6.53773" fill="#F2F2F2"/>
<rect x="0.89624" y="29" width="55.1038" height="13.0755" rx="6.53773" fill="#F2F2F2"/>
<path fill-rule="evenodd" clip-rule="evenodd" d="M186 98.4442V104.672C186 109.911 181.404 114 175.745 114H40.1735C39.5169 114 39 113.52 39 112.836V112.807C39 112.123 39.5309 111.57 40.1735 111.57H40.8441L40.7463 111.686V111.759H98.4035C101.84 111.759 104.634 108.921 104.634 105.429V97.833C104.634 94.3406 101.84 91.503 98.4035 91.503H61.4929V91.4739H40.1735C39.5169 91.4739 39 90.921 39 90.2516V90.237C39 89.5531 39.5309 89.0001 40.1735 89.0001H148.111V92.8127C148.111 93.1037 148.321 93.2784 148.475 93.0892L151.856 89.0001H152.68L156.061 93.0892C156.214 93.2638 156.424 93.1037 156.424 92.8127V89.0001H175.732C181.418 88.971 186 93.2201 186 98.4442Z" fill="#00CCB0"/>
<path fill-rule="evenodd" clip-rule="evenodd" d="M41 110.928V111H98.7581C102.201 111 105 108.198 105 104.75V97.25C105 93.8017 102.201 91 98.7581 91H41V91.0718C43.3652 93.9885 43.4771 108.213 41 110.928Z" fill="white"/>
<path fill-rule="evenodd" clip-rule="evenodd" d="M181 88.6281V88.6573C181 89.3579 180.483 90 179.826 90H61.9554H51.4215H44.2545C38.5964 90 34 85.6509 34 80.2802V73.9025C34 69.9183 36.5287 66.5032 40.1471 65H177.609C177.651 65.4816 177.707 65.9486 177.861 66.3719C177.903 66.474 177.931 66.5762 177.973 66.6637H102.415C98.908 66.6637 96.0719 69.5388 96.0719 73.0998V80.8056C96.0719 82.4694 96.7006 83.9872 97.7205 85.1255C98.8801 86.4244 100.557 87.2271 102.415 87.2271L179.812 87.3876C180.483 87.373 181 87.9422 181 88.6281Z" fill="url(#paint1_linear)"/>
<path fill-rule="evenodd" clip-rule="evenodd" d="M179.844 67.2841C177.585 70.8038 177.543 85.1514 179.999 87.9254V88H157.01V76.3669H148.645V88H102.372C100.646 88 99.0877 87.2841 97.9368 86.1506C96.7438 84.9575 96 83.2871 96 81.4377V73.563C96 69.9388 98.8631 67.0007 102.372 67.0007H170.132H178.581H179.999C180.013 66.9858 179.901 67.2095 179.844 67.2841Z" fill="white"/>
<path fill-rule="evenodd" clip-rule="evenodd" d="M141 13.2318V13.2598C141 13.9317 140.456 14.4776 139.773 14.4776H139.606C139.606 14.4776 139.606 14.4636 139.62 14.4636V14.3936H59.284C55.6457 14.3936 52.6904 17.1932 52.6904 20.6366V28.1254C52.6904 31.5689 55.6457 34.3684 59.284 34.3684H63.2011V37H62.8248H60.6501C59.6883 37 58.7682 36.888 57.89 36.6781C53.3456 35.6002 50 31.9468 50 27.5935V21.4065C50 16.2133 54.7675 12 60.6641 12H139.801C140.456 12 141 12.5599 141 13.2318Z" fill="#FA5A28"/>
<path fill-rule="evenodd" clip-rule="evenodd" d="M141 35.492V35.5241C141 36.2941 140.457 36.9198 139.775 36.9198L74 37V34L139.775 34.0802C140.457 34.0963 141 34.7219 141 35.492Z" fill="#FA5A28"/>
<path fill-rule="evenodd" clip-rule="evenodd" d="M139.986 14.0701C137.475 17.0413 137.362 31.2109 140 33.9299V34H73.4992V22.143H62.6367V34H58.6727C54.9907 34 52 31.1969 52 27.7491V20.2509C52 16.8031 54.9907 14 58.6727 14H139.986V14.0701C139.986 14.0561 139.986 14.0561 139.986 14.0701Z" fill="white"/>
<path fill-rule="evenodd" clip-rule="evenodd" d="M174.911 36C174.911 36 177 39.4507 177 43.3004C177 47.1501 174.911 51 174.911 51L41.1747 50.9449C40.5174 50.9449 40 50.614 40 50.2142V50.2004C40 49.8006 40.5314 49.4697 41.1747 49.4697H62.5148V49.3869H118.648C122.158 49.3869 124.997 47.705 124.997 45.6369V41.1425C124.997 39.0607 122.144 37.3925 118.648 37.3925H74.2476V45.568C74.2476 45.9265 73.968 46.1333 73.7722 45.9127L68.8637 40.3015L63.9552 45.9127C63.7594 46.1333 63.4797 45.9265 63.4797 45.568V37.3649H41.3145V37.4062C41.3425 37.42 41.3705 37.4476 41.3984 37.4752H41.1747C40.5174 37.4752 40 37.1443 40 36.7445V36.7307C40 36.3171 40.5314 36 41.1747 36H152.056L174.911 36Z" fill="url(#paint2_linear)"/>
<path fill-rule="evenodd" clip-rule="evenodd" d="M125 41.7612V46.2526C125 48.3192 122.136 50 118.627 50H41V49.9587C43.5267 48.333 43.4144 39.8048 41 38.0413V38H63.2634V46.1699C63.2634 46.5281 63.5441 46.7348 63.7406 46.5144L68.6678 40.907L73.5949 46.5144C73.7914 46.7348 74.0722 46.5281 74.0722 46.1699V38H118.641C122.15 38 125 39.6808 125 41.7612Z" fill="white"/>
<path fill-rule="evenodd" clip-rule="evenodd" d="M73.4701 46.9036L68 40.9338L62.5299 46.9036C62.3117 47.1377 62 46.9182 62 46.5378V22H74V46.5378C74 46.9182 73.6727 47.1377 73.4701 46.9036Z" fill="#00CCB0"/>
<path fill-rule="evenodd" clip-rule="evenodd" d="M156.607 92.9243L152.5 88.5096L148.393 92.9243C148.227 93.092 148 92.9383 148 92.6589L148.136 75H157V92.6589C157 92.9383 156.773 93.1059 156.607 92.9243Z" fill="#7B39D9"/>
<rect x="125" y="76" width="23" height="1" fill="#F2F2F2"/>
<rect x="59" y="96" width="23" height="1" fill="#F2F2F2"/>
<rect x="74" y="23" width="23" height="1" fill="#F2F2F2"/>
<path fill-rule="evenodd" clip-rule="evenodd" d="M57.7155 109.939L54.9871 106.353L52.2586 109.939C52.1552 110.085 52 109.953 52 109.72V95H58V109.72C57.9741 109.953 57.819 110.085 57.7155 109.939Z" fill="#EC7071"/>
<rect x="44" y="38" width="1" height="12" fill="#F2F2F2"/>
<rect x="44" y="91" width="1" height="21" fill="#F2F2F2"/>
<rect x="175" y="67" width="1" height="21" fill="#F2F2F2"/>
<rect x="135" y="14" width="1" height="20" fill="#F2F2F2"/>
<defs>
<linearGradient id="paint0_linear" x1="167" y1="51" x2="33" y2="51" gradientUnits="userSpaceOnUse">
<stop stop-color="#B26BEE"/>
<stop offset="1" stop-color="#7B39D9"/>
</linearGradient>
<linearGradient id="paint1_linear" x1="34" y1="89.791" x2="178.542" y2="89.791" gradientUnits="userSpaceOnUse">
<stop stop-color="#FF9C41"/>
<stop offset="1" stop-color="#FFC372"/>
</linearGradient>
<linearGradient id="paint2_linear" x1="245.5" y1="43.5" x2="242.254" y2="13.8554" gradientUnits="userSpaceOnUse">
<stop stop-color="#EE7170"/>
<stop offset="1" stop-color="#8F3DDC"/>
</linearGradient>
</defs>
</svg>
