<svg width="229" height="154" viewBox="0 0 229 154" fill="none" xmlns="http://www.w3.org/2000/svg">
<path fill-rule="evenodd" clip-rule="evenodd" d="M40.4146 35.7131C39.972 35.4458 40.07 34.6082 40.7116 34.6082H61C60.8369 24.6265 54.5111 15.7882 45.1147 12.4137C35.7183 9.03929 25.2141 11.8335 18.7368 19.4305C12.2595 27.0275 11.1622 37.8404 15.9811 46.5836C20.8001 55.3268 30.5288 60.1739 40.4116 58.7557L40.4146 35.7131Z" fill="#F2F2F2"/>
<rect x="70" y="130" width="125" height="2" fill="#F4F4F4"/>
<path fill-rule="evenodd" clip-rule="evenodd" d="M80 57.2799V55.0262C80 55.0262 80.2979 51.002 84.4125 51.002H198.524C198.524 51.002 204 50.7799 204 55.0262V132H196.003V65.6315L80 57.2799Z" fill="#F2F2F2"/>
<rect x="35" y="42" width="12" height="90" fill="#EFEFEF"/>
<rect x="26" y="131" width="180" height="1" fill="#DEDEDE"/>
<path fill-rule="evenodd" clip-rule="evenodd" d="M195 70V61.7006C195 59.1045 192.858 57 190.215 57H73.7847C71.1422 57 69 59.1045 69 61.7006V70H195Z" fill="#F94F24"/>
<rect x="194" y="72" width="1" height="60" fill="#DEDEDE"/>
<rect x="70" y="72" width="1" height="60" fill="#DEDEDE"/>
<path fill-rule="evenodd" clip-rule="evenodd" d="M80 63.9965C80.0011 64.8057 79.6363 65.536 79.0759 65.8467C78.5154 66.1574 77.8698 65.9871 77.4403 65.4154C77.0108 64.8437 76.882 63.9832 77.114 63.2354C77.346 62.4877 77.8931 62 78.5 62C79.3268 62.0019 79.9971 62.8941 80 63.9965Z" fill="white"/>
<path fill-rule="evenodd" clip-rule="evenodd" d="M92 63.9965C92.0011 64.8057 91.6363 65.536 91.0759 65.8467C90.5154 66.1574 89.8698 65.9871 89.4403 65.4154C89.0108 64.8437 88.882 63.9832 89.114 63.2354C89.346 62.4877 89.8931 62 90.5 62C91.3268 62.0019 91.9971 62.8941 92 63.9965Z" fill="white"/>
<path fill-rule="evenodd" clip-rule="evenodd" d="M104 63.9965C104.001 64.8057 103.636 65.536 103.076 65.8467C102.515 66.1574 101.87 65.9871 101.44 65.4154C101.011 64.8437 100.882 63.9832 101.114 63.2354C101.346 62.4877 101.893 62 102.5 62C103.327 62.0019 103.997 62.8941 104 63.9965Z" fill="white"/>
<path fill-rule="evenodd" clip-rule="evenodd" d="M143 103H79V82H143V103ZM79.3004 102.7H142.7V82.3003H79.3004V102.7Z" fill="#F94F24"/>
<path fill-rule="evenodd" clip-rule="evenodd" d="M146 82.5C146 84.433 144.433 86 142.5 86C140.567 86 139 84.433 139 82.5C139 80.567 140.567 79 142.5 79C144.433 79 146 80.567 146 82.5Z" fill="#F94F24"/>
<path fill-rule="evenodd" clip-rule="evenodd" d="M143.553 82.4467H142.879V81.5498C142.879 81.2462 142.695 81 142.467 81C142.24 81 142.056 81.2462 142.056 81.5498V82.4467H141.382C141.166 82.4695 141 82.7096 141 82.9983C141 83.2869 141.166 83.5271 141.382 83.5498H142.056V84.4502C142.056 84.7538 142.24 85 142.467 85C142.695 85 142.879 84.7538 142.879 84.4502V83.5498H143.553C143.708 83.5662 143.858 83.4648 143.939 83.2874C144.02 83.11 144.02 82.8866 143.939 82.7092C143.858 82.5317 143.708 82.4303 143.553 82.4467Z" fill="white"/>
<rect x="86" y="75" width="9" height="5" fill="#E8E8E8"/>
<rect x="96" y="75" width="9" height="5" fill="#DEDEDE"/>
<rect x="105" y="75" width="9" height="5" fill="#DEDEDE"/>
<path fill-rule="evenodd" clip-rule="evenodd" d="M86 75.0015H81.5778C80.6677 74.9697 79.8128 75.4389 79.3483 76.225C78.8839 77.0111 78.8839 77.9889 79.3483 78.775C79.8128 79.5611 80.6677 80.0303 81.5778 79.9985H86V75.0015Z" fill="#DEDEDE"/>
<rect x="114" y="75" width="9" height="5" fill="#DEDEDE"/>
<path fill-rule="evenodd" clip-rule="evenodd" d="M128.365 75.0015H124V79.9985H128.365C129.296 80.0303 130.169 79.5611 130.644 78.775C131.119 77.9889 131.119 77.0111 130.644 76.225C130.169 75.4389 129.296 74.9697 128.365 75.0015Z" fill="#DEDEDE"/>
<path fill-rule="evenodd" clip-rule="evenodd" d="M41.5015 58C39.5683 58 38 58.8969 38 60C38 61.1031 39.5683 62 41.5015 62C43.4346 62 45 61.1058 45 60C45 58.8942 43.4405 58 41.5015 58ZM41.5015 61.6627C40.4923 61.6627 39.6742 60.9183 39.6742 60C39.6742 59.0817 40.4923 58.3373 41.5015 58.3373C42.5106 58.3373 43.3287 59.0817 43.3287 60C43.3295 60.4414 43.1373 60.865 42.7946 61.1774C42.4518 61.4898 41.9866 61.6653 41.5015 61.6653V61.6627Z" fill="#D3D3D3"/>
<path fill-rule="evenodd" clip-rule="evenodd" d="M43 60.5C43 61.3284 42.3284 62 41.5 62C40.6716 62 40 61.3284 40 60.5C40 59.6716 40.6716 59 41.5 59C42.3284 59 43 59.6716 43 60.5Z" fill="#D3D3D3"/>
<path fill-rule="evenodd" clip-rule="evenodd" d="M41.5 50C40.1193 50 39 51.1193 39 52.5C39 53.8807 40.1193 55 41.5 55C42.8807 55 44 53.8807 44 52.5C44 51.1193 42.8807 50 41.5 50ZM42.3351 52.8373H41.8373V53.3351C41.8373 53.5214 41.6863 53.6724 41.5 53.6724C41.3137 53.6724 41.1627 53.5214 41.1627 53.3351V52.8373H40.6622C40.4868 52.8217 40.3524 52.6747 40.3524 52.4987C40.3524 52.3226 40.4868 52.1757 40.6622 52.1601H41.1627V51.6622C41.1627 51.4759 41.3137 51.3249 41.5 51.3249C41.6863 51.3249 41.8373 51.4759 41.8373 51.6622V52.1734H42.3351C42.4633 52.162 42.5869 52.224 42.6545 52.3334C42.7221 52.4429 42.7221 52.5812 42.6545 52.6906C42.5869 52.8001 42.4633 52.862 42.3351 52.8506V52.8373Z" fill="#D3D3D3"/>
<rect x="35" y="31" width="168" height="11" fill="#D3D3D3"/>
<path fill-rule="evenodd" clip-rule="evenodd" d="M186 121H151V82H186V121ZM151.595 120.41H185.405V82.59H151.595V120.41Z" fill="#DEDEDE"/>
<path fill-rule="evenodd" clip-rule="evenodd" d="M151.433 114L151 113.581L168.757 96.0398C170.176 94.6375 171.689 93.9497 173.275 94.0029C175.777 94.0826 177.486 95.9748 177.558 96.0545L186 104.394L185.579 104.81L177.121 96.459C177.095 96.4265 175.49 94.6612 173.237 94.5933C171.829 94.546 170.463 95.1837 169.166 96.459L151.433 114Z" fill="#DEDEDE"/>
<path fill-rule="evenodd" clip-rule="evenodd" d="M160.003 95C158.385 95.0013 156.925 94.0272 156.305 92.5322C155.685 91.0373 156.027 89.3161 157.172 88.1717C158.316 87.0273 160.037 86.6853 161.532 87.3052C163.027 87.9251 164.001 89.3848 164 91.0032C163.997 93.2091 162.209 94.9965 160.003 95ZM160.003 87.6332C158.64 87.6319 157.41 88.4522 156.887 89.7114C156.365 90.9706 156.652 92.4206 157.616 93.3851C158.58 94.3495 160.029 94.6384 161.289 94.117C162.549 93.5956 163.37 92.3665 163.37 91.0032C163.368 89.1439 161.862 87.6366 160.003 87.6332Z" fill="#DEDEDE"/>
<path fill-rule="evenodd" clip-rule="evenodd" d="M101.945 112H80.0458C79.4682 112 79 111.552 79 111C79 110.448 79.4682 110 80.0458 110H101.954C102.532 110 103 110.448 103 111C103 111.552 102.532 112 101.954 112H101.945Z" fill="#DEDEDE"/>
<path fill-rule="evenodd" clip-rule="evenodd" d="M112.88 112H107.12C106.501 112 106 111.552 106 111C106 110.448 106.501 110 107.12 110H112.88C113.499 110 114 110.448 114 111C114 111.552 113.499 112 112.88 112Z" fill="#DEDEDE"/>
<path fill-rule="evenodd" clip-rule="evenodd" d="M139.986 112H118.014C117.454 112 117 111.552 117 111C117 110.448 117.454 110 118.014 110H139.986C140.546 110 141 110.448 141 111C141 111.552 140.546 112 139.986 112Z" fill="#DEDEDE"/>
<path fill-rule="evenodd" clip-rule="evenodd" d="M110.956 119H81.0438C80.4673 119 80 118.552 80 118C80 117.448 80.4673 117 81.0438 117H110.956C111.533 117 112 117.448 112 118C112 118.552 111.533 119 110.956 119Z" fill="#DEDEDE"/>
<path fill-rule="evenodd" clip-rule="evenodd" d="M127.005 119H116.995C116.445 119 116 118.552 116 118C116 117.448 116.445 117 116.995 117H127.005C127.555 117 128 117.448 128 118C128 118.552 127.555 119 127.005 119Z" fill="#DEDEDE"/>
<path fill-rule="evenodd" clip-rule="evenodd" d="M172.933 127H151.067C150.478 127 150 126.552 150 126C150 125.448 150.478 125 151.067 125H172.933C173.522 125 174 125.448 174 126C174 126.552 173.522 127 172.933 127Z" fill="#DEDEDE"/>
<path fill-rule="evenodd" clip-rule="evenodd" d="M98 90C98 90.5304 97.8161 91.0391 97.4887 91.4142C97.1614 91.7893 96.7174 92 96.2545 92H85.7455C84.7815 92 84 91.1046 84 90C84 89.4696 84.1839 88.9609 84.5113 88.5858C84.8386 88.2107 85.2826 88 85.7455 88H96.2545C96.7174 88 97.1614 88.2107 97.4887 88.5858C97.8161 88.9609 98 89.4696 98 90Z" fill="#E9E9E9"/>
<path fill-rule="evenodd" clip-rule="evenodd" d="M133 90C133 91.1046 132.206 92 131.227 92H126.773C125.794 92 125 91.1046 125 90C125 89.4696 125.187 88.9609 125.519 88.5858C125.852 88.2107 126.303 88 126.773 88H131.218C131.688 88 132.139 88.2107 132.471 88.5858C132.804 88.9609 132.991 89.4696 132.991 90H133Z" fill="#E9E9E9"/>
<path fill-rule="evenodd" clip-rule="evenodd" d="M122 90C122 91.1046 121.204 92 120.223 92H101.777C100.796 92 100 91.1046 100 90C100 89.4696 100.187 88.9609 100.52 88.5858C100.854 88.2107 101.306 88 101.777 88H120.223C120.694 88 121.146 88.2107 121.48 88.5858C121.813 88.9609 122 89.4696 122 90Z" fill="#E9E9E9"/>
<path fill-rule="evenodd" clip-rule="evenodd" d="M114 97C114 98.1032 113.225 98.9981 112.269 99H86.731C86.2714 99 85.8307 98.7892 85.5059 98.414C85.1812 98.0388 84.9992 97.5301 85 97C84.9992 96.4699 85.1812 95.9612 85.5059 95.586C85.8307 95.2108 86.2714 95 86.731 95H112.269C113.225 95.0019 114 95.8968 114 97Z" fill="#E9E9E9"/>
<path fill-rule="evenodd" clip-rule="evenodd" d="M109 40C108.917 40 108.851 39.93 108.851 39.8436V34.1564C108.852 34.0707 108.918 34.0017 109 34C109.083 34 109.149 34.07 109.149 34.1564V39.8436C109.149 39.93 109.083 40 109 40Z" fill="white"/>
<path fill-rule="evenodd" clip-rule="evenodd" d="M129 40C128.917 40 128.851 39.93 128.851 39.8436V34.1564C128.851 34.07 128.917 34 129 34C129.083 34 129.149 34.07 129.149 34.1564V39.8436C129.149 39.93 129.083 40 129 40Z" fill="white"/>
<path fill-rule="evenodd" clip-rule="evenodd" d="M149 40C148.917 40 148.851 39.93 148.851 39.8436V34.1564C148.851 34.07 148.917 34 149 34C149.082 34.0017 149.148 34.0707 149.149 34.1564V39.8436C149.149 39.93 149.083 40 149 40Z" fill="white"/>
<path fill-rule="evenodd" clip-rule="evenodd" d="M173 40C172.917 40 172.851 39.93 172.851 39.8436V34.1564C172.852 34.0707 172.918 34.0017 173 34C173.083 34 173.149 34.07 173.149 34.1564V39.8436C173.149 39.93 173.083 40 173 40Z" fill="white"/>
<path fill-rule="evenodd" clip-rule="evenodd" d="M100 37.2292C100 38.2072 99.3284 39 98.5 39C97.6716 39 97 38.2072 97 37.2292C97 36.2521 98.5 34 98.5 34C98.5 34 100 36.2521 100 37.2292Z" fill="white"/>
<path fill-rule="evenodd" clip-rule="evenodd" d="M118.999 38.9498L117.425 37L117 37.5251L118.999 40L121 37.5251L120.575 37L118.999 38.9498Z" fill="white"/>
<path fill-rule="evenodd" clip-rule="evenodd" d="M116.792 35.7334L119.102 33.4181L121.412 35.7334L119.102 38.0487L116.792 35.7334Z" fill="white"/>
<path fill-rule="evenodd" clip-rule="evenodd" d="M137.374 36C137.167 36 137 35.8339 137 35.6289V34.3711C137 34.1661 137.167 34 137.374 34H138.626C138.833 34 139 34.1661 139 34.3711C139 34.576 138.833 34.7421 138.626 34.7421H137.748V35.6289C137.748 35.8339 137.58 36 137.374 36Z" fill="white"/>
<path fill-rule="evenodd" clip-rule="evenodd" d="M142.625 36C142.419 36 142.251 35.8339 142.251 35.6289V34.7421H141.375C141.168 34.7421 141 34.576 141 34.3711C141 34.1661 141.168 34 141.375 34H142.625C142.832 34 143 34.1661 143 34.3711V35.6289C143 35.8339 142.832 36 142.625 36Z" fill="white"/>
<path fill-rule="evenodd" clip-rule="evenodd" d="M142.625 39H141.375C141.168 39 141 38.8339 141 38.6289C141 38.424 141.168 38.2579 141.375 38.2579H142.251V37.3711C142.251 37.1661 142.419 37 142.625 37C142.832 37 143 37.1661 143 37.3711V38.6289C143 38.8339 142.832 39 142.625 39Z" fill="white"/>
<path fill-rule="evenodd" clip-rule="evenodd" d="M138.626 39H137.374C137.167 39 137 38.8339 137 38.6289V37.3711C137 37.1661 137.167 37 137.374 37C137.58 37 137.748 37.1661 137.748 37.3711V38.2579H138.626C138.833 38.2579 139 38.424 139 38.6289C139 38.8339 138.833 39 138.626 39Z" fill="white"/>
<rect x="159" y="34" width="3" height="4" fill="white"/>
<path fill-rule="evenodd" clip-rule="evenodd" d="M158.698 38.0692V35H158V39H161V38.0692H158.698Z" fill="white"/>
<path fill-rule="evenodd" clip-rule="evenodd" d="M179.037 35H179V38.1082C179 38.8328 179.446 39 179.991 39H181.009C181.557 39 182 38.8328 182 38.1082V35.0164L179.037 35Z" fill="white"/>
<path fill-rule="evenodd" clip-rule="evenodd" d="M182.621 34.6856H182.154C182.156 34.6536 182.156 34.6215 182.154 34.5895C182.154 34.2639 181.983 34 181.772 34H180.293C180.082 34.0024 179.912 34.2649 179.91 34.5895C179.907 34.6214 179.907 34.6537 179.91 34.6856H179.477C179.313 34.6564 179.154 34.7745 179.066 34.9892C178.978 35.204 178.978 35.4772 179.066 35.692C179.154 35.9067 179.313 36.0248 179.477 35.9956H182.621C182.837 35.9571 183 35.6755 183 35.3406C183 35.0057 182.837 34.7241 182.621 34.6856Z" fill="white"/>
<rect x="15" y="131" width="6" height="1" fill="#DEDEDE"/>
<path fill-rule="evenodd" clip-rule="evenodd" d="M213.32 113H199V123H213.32C215.923 122.932 218 120.714 218 118C218 115.286 215.923 113.068 213.32 113Z" fill="#F2F2F2"/>
<path fill-rule="evenodd" clip-rule="evenodd" d="M14 62C14 65.866 10.866 69 7 69C3.13401 69 0 65.866 0 62C0 58.134 3.13401 55 7 55C10.866 55 14 58.134 14 62Z" fill="#F2F2F2"/>
<path fill-rule="evenodd" clip-rule="evenodd" d="M219 76C219 77.6569 217.657 79 216 79C214.343 79 213 77.6569 213 76C213 74.3431 214.343 73 216 73C217.657 73 219 74.3431 219 76Z" fill="#F2F2F2"/>
<path fill-rule="evenodd" clip-rule="evenodd" d="M119.5 53C133.583 53 145 41.3594 145 27C145 12.6406 133.583 1 119.5 1C105.417 1 94 12.6406 94 27C94 41.3594 105.417 53 119.5 53Z" fill="white" stroke="#00D8FF" stroke-linecap="round" stroke-dasharray="3.4 2.27"/>
<path fill-rule="evenodd" clip-rule="evenodd" d="M123.939 11.0831L124.1 11.1131C124.633 11.2053 125.094 11.5363 125.354 12.0121C125.562 12.3783 125.701 12.7794 125.766 13.1959C125.862 13.7588 125.888 14.3316 125.844 14.901C125.797 15.5405 125.697 16.1751 125.545 16.798C125.545 16.8219 125.545 16.8489 125.527 16.8849L125.641 16.9208C126.388 17.1348 127.111 17.4292 127.796 17.7989C128.28 18.0556 128.726 18.3806 129.118 18.7638C129.316 18.9576 129.487 19.1773 129.626 19.4171C129.971 19.9859 129.971 20.7004 129.626 21.2691C129.423 21.6246 129.158 21.9404 128.844 22.2011C128.312 22.6428 127.721 23.0079 127.088 23.286C126.631 23.4911 126.162 23.6673 125.682 23.8134L125.572 23.8493C125.596 23.9612 125.62 24.0691 125.643 24.173C125.811 24.9143 125.894 25.6724 125.891 26.4326C125.895 26.9852 125.813 27.5351 125.649 28.0628C125.542 28.4207 125.363 28.7523 125.121 29.0367C124.845 29.3536 124.465 29.5591 124.049 29.6151C123.981 29.6151 123.915 29.6421 123.846 29.6541H123.593L123.497 29.6331C123.375 29.6121 123.249 29.6001 123.13 29.5732C122.665 29.4723 122.218 29.3037 121.802 29.0727C121.074 28.6709 120.401 28.1774 119.798 27.6043L119.554 27.3795L119.476 27.4485C119.015 27.8921 118.516 28.2933 117.983 28.6472C117.45 29.0134 116.864 29.2964 116.246 29.4863C115.836 29.6202 115.403 29.6642 114.974 29.6151C114.51 29.5576 114.087 29.3172 113.798 28.9468C113.554 28.6222 113.381 28.2495 113.291 27.853C113.135 27.1654 113.093 26.4565 113.168 25.7553C113.221 25.1678 113.321 24.5856 113.467 24.0142C113.467 23.9782 113.467 23.9452 113.467 23.9093L113.374 23.8763C112.968 23.7588 112.569 23.6157 112.18 23.4478C111.54 23.1876 110.938 22.843 110.389 22.4229C110.014 22.1421 109.693 21.796 109.44 21.401C109.007 20.7691 109.007 19.9351 109.44 19.3033C109.595 19.0612 109.78 18.8406 109.992 18.647C110.434 18.2471 110.929 17.9112 111.464 17.649C112.086 17.3424 112.734 17.0926 113.401 16.9029L113.482 16.8729C113.482 16.8459 113.482 16.8279 113.482 16.81C113.332 16.1958 113.232 15.5704 113.183 14.94C113.124 14.323 113.15 13.7007 113.261 13.091C113.327 12.7121 113.46 12.3479 113.652 12.0151C113.888 11.5919 114.288 11.285 114.756 11.1671C115.151 11.081 115.559 11.0872 115.95 11.185C116.45 11.3064 116.929 11.4981 117.374 11.7544C118.133 12.1881 118.835 12.7145 119.464 13.3217L119.539 13.3847L119.894 13.025C120.495 12.466 121.166 11.9885 121.891 11.6046C122.337 11.3629 122.819 11.1959 123.318 11.1101L123.5 11.0771L123.939 11.0831ZM119.539 23.7415L121.306 23.6665C121.371 23.669 121.433 23.6342 121.464 23.5766C122.123 22.5736 122.721 21.5318 123.255 20.457C123.293 20.3943 123.293 20.3159 123.255 20.2532C123.079 19.9236 122.912 19.5939 122.736 19.2673C122.338 18.5481 121.917 17.8488 121.473 17.1696C121.442 17.1065 121.376 17.0679 121.306 17.0707C121.037 17.0707 120.772 17.0377 120.503 17.0257C119.571 16.9868 118.639 17.0018 117.709 17.0707C117.647 17.0709 117.59 17.104 117.56 17.1576C116.893 18.1578 116.295 19.202 115.768 20.2832C115.739 20.3384 115.739 20.4048 115.768 20.46C116.292 21.5445 116.89 22.591 117.56 23.5916C117.589 23.6424 117.644 23.6732 117.703 23.6725L119.539 23.7415ZM113.724 17.7479C113.724 17.7479 113.7 17.7479 113.694 17.7479L113.485 17.8079C112.818 18.0029 112.175 18.2691 111.565 18.602C111.171 18.8156 110.809 19.0851 110.491 19.4022C110.314 19.5738 110.171 19.7771 110.07 20.0015C109.982 20.2145 109.982 20.4538 110.07 20.6668C110.141 20.8517 110.242 21.0237 110.368 21.1762C110.626 21.4815 110.928 21.7462 111.264 21.9614C111.978 22.4197 112.756 22.771 113.571 23.0043L113.703 23.0402C113.703 23.0043 113.727 22.9773 113.735 22.9503C113.998 22.1109 114.313 21.2892 114.679 20.49C114.718 20.4159 114.718 20.3274 114.679 20.2532C114.317 19.4681 114.006 18.6603 113.747 17.8348C113.741 17.8199 113.741 17.7749 113.724 17.7479ZM118.915 26.7382C118.733 26.5314 118.56 26.3367 118.389 26.1389C117.966 25.6444 117.566 25.129 117.195 24.5985C117.164 24.5491 117.11 24.5179 117.052 24.5146C116.798 24.4907 116.548 24.4667 116.297 24.4367C115.736 24.3768 115.177 24.2899 114.622 24.176L114.338 24.1131C114.338 24.149 114.318 24.173 114.312 24.197C114.151 24.8363 114.051 25.4896 114.013 26.1479C113.984 26.6415 114.024 27.1368 114.133 27.6193C114.189 27.8793 114.295 28.1257 114.446 28.3445C114.593 28.5556 114.824 28.6931 115.079 28.7221C115.257 28.7426 115.437 28.7376 115.613 28.7071C115.965 28.645 116.305 28.5329 116.625 28.3745C117.329 28.03 117.979 27.5859 118.557 27.0559C118.679 26.963 118.795 26.8551 118.915 26.7412V26.7382ZM124.709 24.0801L124.434 24.137C123.646 24.3045 122.849 24.4245 122.046 24.4966C121.956 24.4977 121.873 24.5452 121.825 24.6225C121.338 25.3334 120.806 26.0121 120.231 26.6543L120.169 26.7322L120.225 26.7922C120.562 27.1133 120.918 27.4136 121.291 27.6912C121.739 28.031 122.229 28.312 122.748 28.5273C123.07 28.6658 123.416 28.7391 123.766 28.7431C124.09 28.7489 124.393 28.584 124.566 28.3085C124.677 28.1381 124.762 27.9523 124.82 27.7571C124.953 27.3081 125.018 26.8412 125.011 26.3726C125.007 25.6352 124.916 24.9008 124.739 24.185C124.731 24.1505 124.721 24.1165 124.709 24.0831V24.0801ZM118.894 14.011C118.864 13.987 118.837 13.972 118.816 13.951C118.441 13.5933 118.042 13.2618 117.622 12.9591C117.163 12.6251 116.661 12.3559 116.13 12.159C115.85 12.0548 115.556 11.999 115.258 11.9942C114.891 11.9715 114.548 12.1758 114.392 12.5096C114.318 12.6527 114.256 12.8021 114.207 12.9561C114.087 13.3829 114.032 13.8254 114.043 14.2687C114.053 14.9825 114.141 15.693 114.306 16.3874L114.368 16.6481C114.777 16.5702 115.174 16.4863 115.562 16.4264C116.043 16.3544 116.53 16.2975 117.013 16.2376C117.089 16.2345 117.159 16.1956 117.201 16.1327C117.61 15.5434 118.049 14.9762 118.518 14.4335L118.894 14.011ZM124.667 16.6631C124.682 16.6062 124.697 16.5552 124.709 16.5073C124.848 15.9077 124.934 15.297 124.966 14.6823C125.002 14.1565 124.96 13.6282 124.84 13.1149C124.778 12.8326 124.658 12.5663 124.488 12.3328C124.366 12.1577 124.181 12.0373 123.972 11.9972C123.747 11.9596 123.518 11.9688 123.297 12.0241C122.899 12.1156 122.517 12.265 122.163 12.4676C121.434 12.8815 120.763 13.3915 120.169 13.984C120.155 13.9959 120.144 14.0101 120.136 14.026C120.154 14.0469 120.166 14.0649 120.181 14.0799C120.479 14.4155 120.778 14.7452 121.037 15.0898C121.297 15.4344 121.569 15.7941 121.828 16.1507C121.863 16.2035 121.921 16.236 121.984 16.2376C122.112 16.2376 122.237 16.2615 122.366 16.2765C123.007 16.3485 123.643 16.4483 124.276 16.5762L124.667 16.6631ZM125.336 22.9863H125.396C126.114 22.7758 126.806 22.4832 127.459 22.1142C127.851 21.8962 128.21 21.6227 128.524 21.3021C128.696 21.1302 128.833 20.9267 128.927 20.7027C129.035 20.4762 129.035 20.2131 128.927 19.9865C128.842 19.8021 128.727 19.633 128.587 19.4861C128.309 19.1924 127.99 18.9401 127.641 18.7369C126.983 18.3525 126.282 18.0506 125.551 17.8378L125.297 17.7629C125.285 17.7889 125.275 17.816 125.267 17.8438C125.003 18.6712 124.687 19.481 124.321 20.2682C124.29 20.3272 124.29 20.398 124.321 20.457C124.699 21.2502 125.026 22.067 125.3 22.9024C125.309 22.9144 125.324 22.9533 125.336 22.9863ZM122.557 23.5467C123.2 23.4728 123.839 23.3628 124.47 23.217C124.272 22.6064 124.043 22.0063 123.784 21.419C123.375 22.1172 122.969 22.8274 122.557 23.5467ZM115.234 21.416C114.981 22.0156 114.757 22.6277 114.565 23.25C115.19 23.3974 115.825 23.4975 116.464 23.5497C116.034 22.8604 115.631 22.1592 115.234 21.416ZM120.733 24.6015H118.294C118.691 25.123 119.094 25.6144 119.536 26.0999C119.966 25.6247 120.37 25.1254 120.745 24.6045L120.733 24.6015ZM118.279 16.1417C119.106 16.1057 119.912 16.1087 120.736 16.1417C120.354 15.6268 119.946 15.1326 119.512 14.6613C119.076 15.1228 118.676 15.6172 118.279 16.1417ZM123.775 19.3182C124.024 18.7309 124.242 18.1307 124.429 17.5202C123.812 17.3781 123.188 17.2681 122.56 17.1905C122.966 17.9038 123.366 18.596 123.775 19.3182ZM114.586 17.5202C114.777 18.1345 114.995 18.7189 115.246 19.3182C115.625 18.587 116.022 17.8918 116.467 17.1935C115.835 17.2705 115.207 17.3795 114.586 17.5202Z" fill="#00D8FF"/>
<path fill-rule="evenodd" clip-rule="evenodd" d="M119.506 19.0391C120.461 19.0422 121.234 19.8369 121.231 20.814C121.228 21.7911 120.45 22.5807 119.494 22.5775C118.539 22.5744 117.766 21.7797 117.769 20.8026C117.774 19.8261 118.55 19.0375 119.506 19.0391Z" fill="#00D8FF"/>
<path fill-rule="evenodd" clip-rule="evenodd" d="M107.736 35.7956C108.484 37.0075 109.23 38.183 109.981 39.3828C109.96 39.3847 109.939 39.3847 109.918 39.3828C109.554 39.3828 109.19 39.3828 108.828 39.3828C108.76 39.3828 108.737 39.3465 108.705 39.298L107.154 36.7257C106.994 36.4621 106.836 36.2016 106.678 35.9349C106.658 35.8912 106.615 35.8647 106.569 35.8683H105.015H104.958C104.958 36.2561 104.958 36.6409 104.958 37.0257V39.3677H103.923V30.5389H104.006H107.263C107.734 30.5274 108.2 30.6377 108.622 30.8601C109.298 31.2097 109.767 31.8903 109.875 32.6779C109.961 33.1641 109.929 33.6654 109.783 34.1353C109.544 34.9152 108.938 35.5075 108.183 35.6986C108.068 35.7304 107.951 35.7547 107.834 35.7713L107.736 35.7956ZM104.964 34.8866H107.102C107.278 34.8907 107.454 34.8703 107.624 34.826C108.094 34.7198 108.488 34.3818 108.682 33.9171C108.827 33.587 108.87 33.2171 108.805 32.8597C108.74 32.3674 108.452 31.9394 108.034 31.7114C107.751 31.5572 107.435 31.4812 107.117 31.4903H105.044H104.964V34.8866Z" fill="#00D8FF"/>
<path fill-rule="evenodd" clip-rule="evenodd" d="M116.888 36.1869H111.884C111.884 36.276 111.884 36.3524 111.907 36.4256C111.967 36.9218 112.162 37.3874 112.468 37.7622C112.79 38.1609 113.236 38.4178 113.721 38.4846C114.546 38.6213 115.382 38.3343 115.984 37.7081L116.037 37.6603L116.498 38.3382C116.407 38.4209 116.322 38.51 116.231 38.5896C115.768 38.9891 115.214 39.2453 114.628 39.3311C114.084 39.4303 113.527 39.3911 112.999 39.2165C112.056 38.9228 111.316 38.127 111.039 37.1066C110.737 36.1581 110.792 35.1189 111.191 34.2139C111.566 33.2742 112.343 32.5946 113.269 32.3967C114.092 32.1797 114.962 32.3634 115.65 32.8996C116.103 33.2628 116.447 33.7633 116.639 34.338C116.835 34.9115 116.924 35.5216 116.9 36.1328C116.898 36.1513 116.894 36.1694 116.888 36.1869ZM111.881 35.4009H115.94C115.941 35.0837 115.879 34.77 115.758 34.4812C115.571 33.9693 115.2 33.5617 114.731 33.3514C114.36 33.1852 113.953 33.1367 113.557 33.2114C113.215 33.2648 112.894 33.4226 112.632 33.6665C112.294 33.9897 112.054 34.4171 111.945 34.8917C111.9 35.0568 111.878 35.2286 111.881 35.4009Z" fill="#00D8FF"/>
<path fill-rule="evenodd" clip-rule="evenodd" d="M118.526 34.1663L118.072 33.4365C118.085 33.414 118.1 33.3926 118.117 33.3728C118.618 32.8081 119.283 32.4469 120 32.3498C120.471 32.2763 120.95 32.299 121.413 32.4167C121.653 32.4765 121.882 32.5765 122.093 32.7131C122.537 33.0037 122.839 33.4929 122.917 34.0484C122.947 34.2337 122.962 34.4213 122.962 34.6093C122.962 36.0965 122.962 37.5891 122.962 39.0869C122.962 39.1252 122.962 39.1634 122.962 39.208H122.002V38.4591C121.975 38.4842 121.95 38.5108 121.925 38.5388C121.503 38.9987 120.947 39.2869 120.351 39.3546C119.97 39.4157 119.582 39.383 119.214 39.259C118.683 39.0892 118.239 38.6922 117.984 38.1595C117.802 37.7587 117.734 37.3086 117.787 36.8656C117.857 36.0084 118.412 35.2889 119.179 35.0618C119.93 34.816 120.741 34.9127 121.425 35.3295C121.609 35.44 121.776 35.5808 121.92 35.747C121.937 35.7693 121.952 35.7948 121.976 35.8299C121.976 35.798 121.999 35.7885 121.999 35.7789C121.999 35.3614 121.999 34.9471 121.999 34.5328C121.99 34.0437 121.715 33.6064 121.298 33.4174C120.974 33.2512 120.615 33.1798 120.256 33.2102C119.616 33.2483 119.016 33.56 118.588 34.0771C118.564 34.1045 118.543 34.1344 118.526 34.1663ZM121.999 37.1461V36.7573C121.999 36.4737 121.999 36.4737 121.811 36.2824C121.216 35.7261 120.396 35.545 119.647 35.8044C118.976 36.0407 118.601 36.8117 118.799 37.5445C118.913 38.0185 119.248 38.3928 119.682 38.5292C120.129 38.6792 120.608 38.6691 121.048 38.5005C121.394 38.3871 121.702 38.1654 121.931 37.8632C121.97 37.817 121.99 37.7563 121.987 37.6942C121.996 37.5126 121.999 37.3278 121.999 37.1461Z" fill="#00D8FF"/>
<path fill-rule="evenodd" clip-rule="evenodd" d="M129.885 33.4597L129.269 34.0965L129.23 34.0487C128.92 33.5667 128.431 33.27 127.902 33.2432C127.284 33.1686 126.671 33.4287 126.252 33.9437C125.984 34.2722 125.803 34.6779 125.73 35.1154C125.605 35.7311 125.644 36.3744 125.843 36.9652C126.036 37.6035 126.484 38.1033 127.054 38.3152C127.543 38.5104 128.081 38.483 128.552 38.2388C128.801 38.1021 129.019 37.9053 129.193 37.6625C129.213 37.6307 129.235 37.602 129.266 37.5606L129.885 38.1974C129.765 38.3782 129.628 38.5437 129.476 38.6909C129.132 39.0288 128.709 39.2496 128.257 39.3277C127.75 39.4306 127.228 39.3934 126.736 39.2194C125.965 38.9517 125.334 38.3208 125.009 37.4906C124.757 36.8754 124.653 36.1973 124.706 35.5229C124.733 35.0021 124.86 34.4939 125.077 34.0328C125.482 33.1444 126.241 32.5267 127.119 32.3708C127.649 32.2563 128.196 32.298 128.708 32.4918C129.178 32.6737 129.588 33.0111 129.885 33.4597Z" fill="#00D8FF"/>
<path fill-rule="evenodd" clip-rule="evenodd" d="M131.748 33.9359H130.75V33.0992H131.748V31.4229H132.696C132.696 31.5623 132.696 31.6989 132.696 31.8354V33.0934C132.834 33.0934 132.965 33.0934 133.097 33.0934H133.914V33.9301H132.705C132.705 33.9679 132.705 33.994 132.705 34.0202V37.7622C132.702 37.909 132.731 38.0546 132.788 38.1893C132.879 38.4231 133.114 38.5644 133.36 38.5321C133.577 38.5215 133.784 38.4342 133.945 38.2852C133.957 38.302 133.968 38.3194 133.977 38.3375C134.048 38.5205 134.117 38.7036 134.186 38.8866C134.228 38.9941 134.223 39.0057 134.134 39.0754C133.918 39.2424 133.659 39.3432 133.388 39.366C133.136 39.4009 132.88 39.3861 132.634 39.3224C132.197 39.2137 131.87 38.8472 131.805 38.3956C131.775 38.223 131.76 38.0479 131.762 37.8726C131.762 36.6059 131.762 35.3382 131.762 34.0696L131.748 33.9359Z" fill="#00D8FF"/>
<g filter="url(#filter0_d)">
<rect x="15" y="36.4922" width="46.4912" height="51.5079" fill="white"/>
</g>
<path fill-rule="evenodd" clip-rule="evenodd" d="M65 36.4921C65 38.4207 63.429 39.9841 61.4912 39.9841C59.5534 39.9841 57.9824 38.4207 57.9824 36.4921C57.9824 34.5635 59.5534 33 61.4912 33C63.429 33 65 34.5635 65 36.4921Z" fill="#F94F24"/>
<path fill-rule="evenodd" clip-rule="evenodd" d="M62.7229 36.0091H61.9345V35.2261C61.9345 34.961 61.719 34.7461 61.453 34.7461C61.1871 34.7461 60.9716 34.961 60.9716 35.2261V36.0091H60.1832C59.9312 36.029 59.7368 36.2386 59.7368 36.4906C59.7368 36.7426 59.9312 36.9523 60.1832 36.9721H60.9716V37.7581C60.9716 38.0233 61.1871 38.2382 61.453 38.2382C61.719 38.2382 61.9345 38.0233 61.9345 37.7581V36.9721H62.7229C62.9046 36.9864 63.0789 36.8979 63.1742 36.743C63.2694 36.5882 63.2694 36.3931 63.1742 36.2382C63.0789 36.0833 62.9046 35.9948 62.7229 36.0091Z" fill="white"/>
<path fill-rule="evenodd" clip-rule="evenodd" d="M55.3509 81.8892H20.2632V42.6035H55.3509V81.8892ZM20.8594 81.2949H54.7547V43.1979H20.8594V81.2949Z" fill="#DEDEDE"/>
<path fill-rule="evenodd" clip-rule="evenodd" d="M20.6976 74.9046L20.2632 74.4837L38.0647 56.8731C39.4877 55.4653 41.0036 54.7747 42.5945 54.8281C45.102 54.9081 46.8156 56.8079 46.8875 56.8879L55.3509 65.2605L54.9285 65.6784L46.4501 57.2939C46.4232 57.2613 44.8144 55.489 42.5555 55.4208C41.1445 55.3734 39.7753 56.0136 38.4751 57.2939L20.6976 74.9046Z" fill="#DEDEDE"/>
<path fill-rule="evenodd" clip-rule="evenodd" d="M28.5997 55.698C27.0026 55.6992 25.5621 54.7425 24.9504 53.2743C24.3386 51.806 24.6761 50.1155 25.8054 48.9916C26.9347 47.8676 28.6333 47.5317 30.1086 48.1406C31.5839 48.7494 32.5452 50.183 32.5439 51.7725C32.5405 53.9391 30.7766 55.6946 28.5997 55.698ZM28.5997 48.4627C27.2543 48.4614 26.0407 49.2671 25.525 50.5038C25.0092 51.7405 25.293 53.1646 26.2439 54.1119C27.1948 55.0591 28.6255 55.3429 29.8686 54.8307C31.1117 54.3186 31.9223 53.1115 31.9223 51.7725C31.9206 49.9465 30.4345 48.4661 28.5997 48.4627Z" fill="#DEDEDE"/>
<g filter="url(#filter1_d)">
<rect x="172" y="53.4922" width="46.4912" height="51.5079" fill="white"/>
</g>
<path fill-rule="evenodd" clip-rule="evenodd" d="M193.159 95.3964H177.15C176.728 95.3964 176.386 95.0056 176.386 94.5234C176.386 94.0413 176.728 93.6504 177.15 93.6504H193.165C193.588 93.6504 193.93 94.0413 193.93 94.5234C193.93 95.0056 193.588 95.3964 193.165 95.3964H193.159Z" fill="#DEDEDE"/>
<rect x="176.386" y="63.0957" width="36.8421" height="16.5873" fill="#F2F2F2"/>
<path fill-rule="evenodd" clip-rule="evenodd" d="M200.965 95.3964H196.544C196.069 95.3964 195.684 95.0056 195.684 94.5234C195.684 94.0413 196.069 93.6504 196.544 93.6504H200.965C201.44 93.6504 201.825 94.0413 201.825 94.5234C201.825 95.0056 201.44 95.3964 200.965 95.3964Z" fill="#DEDEDE"/>
<path fill-rule="evenodd" clip-rule="evenodd" d="M199.298 88.413H177.159C176.732 88.413 176.386 88.0222 176.386 87.54C176.386 87.0579 176.732 86.667 177.159 86.667H199.298C199.724 86.667 200.07 87.0579 200.07 87.54C200.07 88.0222 199.724 88.413 199.298 88.413Z" fill="#DEDEDE"/>
<path fill-rule="evenodd" clip-rule="evenodd" d="M211.551 88.413H203.502C203.06 88.413 202.702 88.0222 202.702 87.54C202.702 87.0579 203.06 86.667 203.502 86.667H211.551C211.993 86.667 212.351 87.0579 212.351 87.54C212.351 88.0222 211.993 88.413 211.551 88.413Z" fill="#DEDEDE"/>
<path fill-rule="evenodd" clip-rule="evenodd" d="M222 53.4921C222 55.4207 220.429 56.9841 218.491 56.9841C216.553 56.9841 214.982 55.4207 214.982 53.4921C214.982 51.5635 216.553 50 218.491 50C220.429 50 222 51.5635 222 53.4921Z" fill="#F94F24"/>
<path fill-rule="evenodd" clip-rule="evenodd" d="M219.723 53.0091H218.935V52.2261C218.935 51.961 218.719 51.7461 218.453 51.7461C218.187 51.7461 217.972 51.961 217.972 52.2261V53.0091H217.183C216.931 53.029 216.737 53.2386 216.737 53.4906C216.737 53.7426 216.931 53.9523 217.183 53.9721H217.972V54.7581C217.972 55.0233 218.187 55.2382 218.453 55.2382C218.719 55.2382 218.935 55.0233 218.935 54.7581V53.9721H219.723C219.905 53.9864 220.079 53.8979 220.174 53.743C220.269 53.5882 220.269 53.3931 220.174 53.2382C220.079 53.0833 219.905 52.9948 219.723 53.0091Z" fill="white"/>
<g filter="url(#filter2_d)">
<rect x="26" y="119.613" width="60.4931" height="24.3871" fill="white"/>
</g>
<path fill-rule="evenodd" clip-rule="evenodd" d="M90 120.484C90 122.408 88.43 123.968 86.4932 123.968C84.5564 123.968 82.9863 122.408 82.9863 120.484C82.9863 118.56 84.5564 117 86.4932 117C88.43 117 90 118.56 90 120.484Z" fill="#F94F24"/>
<path fill-rule="evenodd" clip-rule="evenodd" d="M87.7242 120.002H86.9363V119.221C86.9363 118.957 86.7208 118.742 86.455 118.742C86.1893 118.742 85.9738 118.957 85.9738 119.221V120.002H85.1858C84.934 120.022 84.7397 120.231 84.7397 120.483C84.7397 120.734 84.934 120.943 85.1858 120.963H85.9738V121.747C85.9738 122.012 86.1893 122.226 86.455 122.226C86.7208 122.226 86.9363 122.012 86.9363 121.747V120.963H87.7242C87.9058 120.977 88.08 120.889 88.1752 120.734C88.2704 120.58 88.2704 120.385 88.1752 120.231C88.08 120.076 87.9058 119.988 87.7242 120.002Z" fill="white"/>
<path fill-rule="evenodd" clip-rule="evenodd" d="M49.7003 125.71H32.1007C31.6365 125.71 31.2603 125.32 31.2603 124.839C31.2603 124.358 31.6365 123.968 32.1007 123.968H49.7075C50.1716 123.968 50.5479 124.358 50.5479 124.839C50.5479 125.32 50.1716 125.71 49.7075 125.71H49.7003Z" fill="#DEDEDE"/>
<path fill-rule="evenodd" clip-rule="evenodd" d="M58.4559 125.71H54.0373C53.5628 125.71 53.1781 125.32 53.1781 124.839C53.1781 124.358 53.5628 123.968 54.0373 123.968H58.4559C58.9304 123.968 59.3151 124.358 59.3151 124.839C59.3151 125.32 58.9304 125.71 58.4559 125.71Z" fill="#DEDEDE"/>
<path fill-rule="evenodd" clip-rule="evenodd" d="M49.7003 139.645H32.1007C31.6365 139.645 31.2603 139.255 31.2603 138.774C31.2603 138.293 31.6365 137.903 32.1007 137.903H49.7075C50.1716 137.903 50.5479 138.293 50.5479 138.774C50.5479 139.255 50.1716 139.645 49.7075 139.645H49.7003Z" fill="#DEDEDE"/>
<path fill-rule="evenodd" clip-rule="evenodd" d="M58.4559 139.645H54.0373C53.5628 139.645 53.1781 139.255 53.1781 138.774C53.1781 138.293 53.5628 137.903 54.0373 137.903H58.4559C58.9304 137.903 59.3151 138.293 59.3151 138.774C59.3151 139.255 58.9304 139.645 58.4559 139.645Z" fill="#DEDEDE"/>
<path fill-rule="evenodd" clip-rule="evenodd" d="M81.2578 125.71H62.7969C62.3265 125.71 61.9452 125.32 61.9452 124.839C61.9452 124.358 62.3265 123.968 62.7969 123.968H81.2578C81.7282 123.968 82.1096 124.358 82.1096 124.839C82.1096 125.32 81.7282 125.71 81.2578 125.71Z" fill="#DEDEDE"/>
<path fill-rule="evenodd" clip-rule="evenodd" d="M56.7037 132.677H32.1182C31.6444 132.677 31.2603 132.288 31.2603 131.807C31.2603 131.325 31.6444 130.936 32.1182 130.936H56.7037C57.1775 130.936 57.5616 131.325 57.5616 131.807C57.5616 132.288 57.1775 132.677 56.7037 132.677Z" fill="#DEDEDE"/>
<path fill-rule="evenodd" clip-rule="evenodd" d="M70.7169 132.677H61.9406C61.459 132.677 61.0685 132.288 61.0685 131.807C61.0685 131.325 61.459 130.936 61.9406 130.936H70.7169C71.1986 130.936 71.589 131.325 71.589 131.807C71.589 132.288 71.1986 132.677 70.7169 132.677Z" fill="#DEDEDE"/>
<defs>
<filter id="filter0_d" x="5" y="26.4922" width="66.4912" height="71.5079" filterUnits="userSpaceOnUse" color-interpolation-filters="sRGB">
<feFlood flood-opacity="0" result="BackgroundImageFix"/>
<feColorMatrix in="SourceAlpha" type="matrix" values="0 0 0 0 0 0 0 0 0 0 0 0 0 0 0 0 0 0 127 0"/>
<feOffset/>
<feGaussianBlur stdDeviation="5"/>
<feColorMatrix type="matrix" values="0 0 0 0 0 0 0 0 0 0 0 0 0 0 0 0 0 0 0.176471 0"/>
<feBlend mode="normal" in2="BackgroundImageFix" result="effect1_dropShadow"/>
<feBlend mode="normal" in="SourceGraphic" in2="effect1_dropShadow" result="shape"/>
</filter>
<filter id="filter1_d" x="162" y="43.4922" width="66.4912" height="71.5079" filterUnits="userSpaceOnUse" color-interpolation-filters="sRGB">
<feFlood flood-opacity="0" result="BackgroundImageFix"/>
<feColorMatrix in="SourceAlpha" type="matrix" values="0 0 0 0 0 0 0 0 0 0 0 0 0 0 0 0 0 0 127 0"/>
<feOffset/>
<feGaussianBlur stdDeviation="5"/>
<feColorMatrix type="matrix" values="0 0 0 0 0 0 0 0 0 0 0 0 0 0 0 0 0 0 0.176471 0"/>
<feBlend mode="normal" in2="BackgroundImageFix" result="effect1_dropShadow"/>
<feBlend mode="normal" in="SourceGraphic" in2="effect1_dropShadow" result="shape"/>
</filter>
<filter id="filter2_d" x="16" y="109.613" width="80.4931" height="44.3871" filterUnits="userSpaceOnUse" color-interpolation-filters="sRGB">
<feFlood flood-opacity="0" result="BackgroundImageFix"/>
<feColorMatrix in="SourceAlpha" type="matrix" values="0 0 0 0 0 0 0 0 0 0 0 0 0 0 0 0 0 0 127 0"/>
<feOffset/>
<feGaussianBlur stdDeviation="5"/>
<feColorMatrix type="matrix" values="0 0 0 0 0 0 0 0 0 0 0 0 0 0 0 0 0 0 0.176471 0"/>
<feBlend mode="normal" in2="BackgroundImageFix" result="effect1_dropShadow"/>
<feBlend mode="normal" in="SourceGraphic" in2="effect1_dropShadow" result="shape"/>
</filter>
</defs>
</svg>
