<svg width="40" height="38" viewBox="0 0 40 38" fill="none" xmlns="http://www.w3.org/2000/svg">
<path d="M35.0546 11.0739L35.0596 11.3959L35.3548 11.5246C37.7982 12.5897 39.5 15.0255 39.5 17.8596C39.5 21.6665 36.4074 24.767 32.5934 24.767H7.40658C3.58397 24.767 0.5 21.6749 0.5 17.8596C0.5 15.0276 2.2117 12.5848 4.66133 11.5204L4.98143 11.3813L4.96123 11.0329C4.95009 10.8408 4.94444 10.6472 4.94444 10.4522C4.94444 5.0009 9.36356 0.581787 14.8148 0.581787C18.0547 0.581787 20.93 2.14227 22.7305 4.55476L23.0043 4.92176L23.3939 4.68109C24.5603 3.96061 25.9345 3.54475 27.4074 3.54475C31.5916 3.54475 34.9911 6.90491 35.0546 11.0739Z" stroke="#6A6E7C"/>
<path d="M24.4637 15.3966L22.4948 20.647L22.2414 21.3225H22.9629H26.941L13.1305 35.1331L16.7644 25.4425L17.0178 24.767H16.2963H13.3021L16.6486 15.3966H24.4637Z" fill="white" stroke="#FA5A28"/>
</svg>
