<svg width="40" height="37" viewBox="0 0 40 37" fill="none" xmlns="http://www.w3.org/2000/svg">
<path d="M12.766 4.7234L21.3596 1.40976C22.0184 1.15574 22.7623 1.26789 23.3169 1.70485L34.5745 10.5745" stroke="#FA5A28"/>
<path d="M0.5 34.0818V4.0759C0.5 3.24395 1.17708 2.57093 2.00902 2.57593L9.528 2.62112C9.91668 2.62345 10.2893 2.77658 10.5673 3.04822L17.7911 10.1067C18.2582 10.563 18.8853 10.8185 19.5383 10.8185H38C38.8284 10.8185 39.5 11.4901 39.5 12.3185V35.2308C39.5 35.4247 39.3428 35.5818 39.1489 35.5818H2C1.17157 35.5818 0.5 34.9103 0.5 34.0818Z" stroke="#6A6E7C"/>
<path d="M33.3115 30.8327H7.12496C6.43693 30.8327 5.87918 30.275 5.87918 29.587C5.87918 28.8989 6.43693 28.3412 7.12495 28.3412H33.3115C33.9996 28.3412 34.5573 28.8989 34.5573 29.587C34.5573 30.275 33.9996 30.8327 33.3115 30.8327Z" stroke="#FA5A28"/>
</svg>
