<svg width="391" height="248" viewBox="0 0 391 248" fill="none" xmlns="http://www.w3.org/2000/svg">
<g opacity="0.8">
<path opacity="0.7" fill-rule="evenodd" clip-rule="evenodd" d="M236.238 50.9117L192.708 75.8321C188.589 78.19 183.513 78.19 179.394 75.8321L135.863 50.9117C131.744 48.553 129.206 44.1953 129.206 39.4787V-10.3621C129.206 -15.0787 131.744 -19.4371 135.863 -21.795L179.394 -46.7154C183.513 -49.074 188.589 -49.074 192.708 -46.7154L236.238 -21.795C240.358 -19.4371 242.895 -15.0787 242.895 -10.3621V39.4787C242.895 44.1953 240.358 48.553 236.238 50.9117V50.9117Z" fill="#FA5A28" fill-opacity="0.06"/>
<path fill-rule="evenodd" clip-rule="evenodd" d="M229.774 119.733L144.453 118.807C136.379 118.718 128.87 114.147 124.756 106.815L81.2809 29.3316C77.1669 21.9984 77.0716 13.0194 81.0317 5.77457L122.879 -70.7815C126.839 -78.0263 134.252 -82.4354 142.327 -82.3469L227.648 -81.4196C235.723 -81.3323 243.232 -76.7613 247.346 -69.428L290.819 8.05467C294.934 15.3869 295.029 24.3669 291.069 31.6117L249.221 108.168C245.261 115.413 237.848 119.821 229.774 119.733V119.733Z" fill="#FA5A28" fill-opacity="0.05"/>
<path fill-rule="evenodd" clip-rule="evenodd" d="M326.201 67.9432L238.772 156.336C230.498 164.7 218.547 168.072 207.422 165.183L89.8578 134.645C78.7318 131.754 70.122 123.041 67.2705 111.786L37.1372 -7.14558C34.2856 -18.4005 37.6256 -30.487 45.9 -38.8511L133.331 -127.244C141.605 -135.61 153.555 -138.983 164.681 -136.092L282.243 -105.553C293.369 -102.664 301.979 -93.9496 304.831 -82.6947L334.964 36.2373C337.816 47.4922 334.475 59.5771 326.201 67.9432V67.9432Z" fill="#FA5A28" fill-opacity="0.05"/>
<path fill-rule="evenodd" clip-rule="evenodd" d="M277.643 169.623L132.825 186.007C119.12 187.556 105.457 181.444 96.981 169.973L7.42762 48.7464C-1.04713 37.2731 -3.04624 22.1856 2.18386 9.16314L57.451 -128.446C62.6811 -141.468 74.3455 -150.446 88.0503 -151.995L232.871 -168.377C246.577 -169.929 260.24 -163.817 268.715 -152.343L358.266 -31.1182C366.742 -19.647 368.74 -4.55766 363.51 8.46482L308.243 146.074C303.013 159.096 291.349 168.072 277.643 169.623V169.623Z" fill="#FA5A28" fill-opacity="0.04"/>
<g opacity="0.2" filter="url(#filter0_f_125_90)">
<path fill-rule="evenodd" clip-rule="evenodd" d="M234.039 13.9109L221.238 40.9104C220.026 43.4653 217.545 45.1893 214.728 45.4331L184.958 48.0067C182.141 48.2501 179.416 46.9764 177.81 44.6649L160.842 20.2388C159.236 17.9273 158.993 14.9293 160.205 12.3743L173.005 -14.6254C174.217 -17.1807 176.698 -18.9047 179.516 -19.1481L209.285 -21.7215C212.102 -21.9653 214.827 -20.6913 216.433 -18.3797L233.401 6.0464C235.007 8.35793 235.25 11.3556 234.039 13.9109V13.9109Z" fill="white"/>
</g>
</g>
<defs>
<filter id="filter0_f_125_90" x="139.441" y="-41.751" width="115.361" height="109.787" filterUnits="userSpaceOnUse" color-interpolation-filters="sRGB">
<feFlood flood-opacity="0" result="BackgroundImageFix"/>
<feBlend mode="normal" in="SourceGraphic" in2="BackgroundImageFix" result="shape"/>
<feGaussianBlur stdDeviation="10" result="effect1_foregroundBlur_125_90"/>
</filter>
</defs>
</svg>
