<svg width="350" height="275" viewBox="0 0 350 275" fill="none" xmlns="http://www.w3.org/2000/svg">
<path fill-rule="evenodd" clip-rule="evenodd" d="M288.553 50.5974C288.558 56.3608 285.091 61.559 279.768 63.7679C274.446 65.9768 268.317 64.7612 264.24 60.6881C260.163 56.615 258.942 50.4869 261.147 45.1624C263.351 39.8378 268.546 36.3659 274.309 36.3662C282.171 36.3666 288.546 42.7358 288.553 50.5974H288.553Z" fill="#F2F2F2"/>
<path fill-rule="evenodd" clip-rule="evenodd" d="M73.7838 185.623C73.7838 190.221 71.0138 194.367 66.7654 196.127C62.5171 197.886 57.627 196.914 54.3754 193.662C51.1239 190.411 50.1512 185.521 51.9109 181.272C53.6707 177.024 57.8163 174.254 62.4146 174.254C68.6937 174.254 73.7838 179.344 73.7838 185.623H73.7838Z" fill="#F2F2F2"/>
<path fill-rule="evenodd" clip-rule="evenodd" d="M276.403 234.504C276.403 239.102 273.633 243.248 269.384 245.008C265.136 246.767 260.246 245.795 256.994 242.543C253.743 239.292 252.77 234.401 254.53 230.153C256.289 225.905 260.435 223.135 265.033 223.135C271.312 223.135 276.403 228.225 276.403 234.504H276.403Z" fill="#F2F2F2"/>
<path fill-rule="evenodd" clip-rule="evenodd" d="M233.335 124.387L233.037 123.822C258.796 110.293 269.978 79.346 258.817 52.4759C247.656 25.6058 217.839 11.6891 190.075 20.3913C162.311 29.0936 145.772 57.54 151.945 85.9735L151.32 86.1093C145.072 57.349 161.799 28.5729 189.882 19.7688C217.966 10.9646 248.127 25.0414 259.416 52.2215C270.705 79.4015 259.392 110.704 233.335 124.387L233.335 124.387Z" fill="#F94F24"/>
<path fill-rule="evenodd" clip-rule="evenodd" d="M117.03 224.951C119.155 236.955 114.119 249.1 104.125 256.081C94.1312 263.061 80.9945 263.608 70.4553 257.481C59.9161 251.355 53.89 239.669 55.0101 227.53L55.5114 227.575C54.3724 239.542 60.2938 251.08 70.6805 257.131C81.0672 263.183 94.0244 262.645 103.873 255.752C113.722 248.86 118.666 236.871 116.539 225.04L117.03 224.951Z" fill="#F94F24"/>
<path fill-rule="evenodd" clip-rule="evenodd" d="M226.857 168.607C226.86 173.225 225.023 177.539 221.695 180.744C218.366 183.95 213.979 185.617 209.346 185.44C200.616 185.104 193.506 178.005 193.178 169.268C193.001 164.637 194.669 160.253 197.872 156.923C201.08 153.59 205.391 151.756 210.012 151.759L226.857 151.757L226.859 168.602L226.857 168.607ZM138.53 134.396C133.909 134.393 129.598 132.562 126.393 129.233C123.188 125.905 121.52 121.518 121.698 116.884C122.029 108.148 129.132 101.045 137.864 100.716C142.501 100.539 146.885 102.208 150.214 105.41C153.543 108.618 155.377 112.928 155.378 117.551L155.38 134.396L138.53 134.396ZM244.218 134.4L244.216 95.0783C244.215 76.2142 228.871 60.8723 210.007 60.8733C200.872 60.8728 192.279 64.4306 185.819 70.8919C179.36 77.3522 175.803 85.9418 175.803 95.0767L175.799 122.654C175.803 125.695 174.636 128.471 172.738 130.555L172.733 117.547C172.735 108.167 169.011 99.4152 162.253 92.9075C155.495 86.3993 146.596 83.0104 137.207 83.3708C119.459 84.0411 105.022 98.4723 104.349 116.223C103.995 125.616 107.379 134.514 113.885 141.268C118.798 146.374 124.988 149.744 131.763 151.092C133.966 151.53 136.228 151.756 138.528 151.756L155.368 151.753C155.091 166.439 143.07 178.305 128.317 178.307L128.26 178.306C121.054 178.294 114.279 175.478 109.182 170.383C104.067 165.269 101.255 158.474 101.255 151.249L101.254 119.59C101.252 106.357 90.4887 95.5964 77.2573 95.5934C70.8491 95.5939 64.8203 98.0853 60.2909 102.619C55.7558 107.151 53.2609 113.177 53.2609 119.59L53.2598 122.656C53.2639 129.126 47.9937 134.398 41.5187 134.396L32.0658 134.396V151.993L41.5166 151.755C49.2935 151.756 56.6002 148.727 62.0971 143.231C67.5945 137.735 70.6194 130.429 70.6204 122.652L70.6214 119.587C70.6194 117.817 71.3101 116.148 72.5645 114.893C73.8189 113.639 75.4863 112.949 77.2563 112.948C80.9158 112.947 83.8987 115.929 83.8947 119.588L83.8957 151.247C83.8988 163.11 88.5145 174.268 96.9071 182.657C103.19 188.94 111.027 193.112 119.554 194.808C122.408 195.376 125.339 195.662 128.311 195.665L128.421 195.661C152.865 195.61 172.736 175.706 172.734 151.246L172.735 150.434C184.558 146.732 193.16 135.68 193.158 122.656L193.157 95.0778C193.157 90.5754 194.909 86.3482 198.092 83.1661C201.277 79.9839 205.508 78.2328 210.011 78.2282C219.297 78.2277 226.861 85.7912 226.862 95.0778L226.859 134.398L210.009 134.399C200.628 134.401 191.877 138.121 185.368 144.884C178.86 151.642 175.473 160.536 175.832 169.93C176.435 185.869 188.133 199.132 203.364 202.162C205.097 202.506 206.878 202.715 208.686 202.783C218.078 203.142 226.976 199.753 233.73 193.248C240.491 186.737 244.215 177.988 244.218 168.604L244.216 151.759L303.707 151.757V134.401L244.218 134.4Z" fill="url(#paint0_linear)"/>
<path fill-rule="evenodd" clip-rule="evenodd" d="M235.028 112.822H236.048L236.049 109.236L235.029 109.236L235.028 112.822Z" fill="white"/>
<path fill-rule="evenodd" clip-rule="evenodd" d="M236.046 102.052H235.026L235.03 105.645H236.05L236.046 102.052Z" fill="white"/>
<path fill-rule="evenodd" clip-rule="evenodd" d="M174.254 140.94C175.32 140.345 176.343 139.648 177.294 138.874L176.644 138.084C175.743 138.821 174.768 139.48 173.754 140.049L174.254 140.94Z" fill="white"/>
<path fill-rule="evenodd" clip-rule="evenodd" d="M234.972 87.6438L233.993 87.9333C234.327 89.0564 234.581 90.2102 234.757 91.3696L235.766 91.2165C235.584 90.0091 235.318 88.8109 234.972 87.6438Z" fill="white"/>
<path fill-rule="evenodd" clip-rule="evenodd" d="M235.027 130.78L235.026 134.372L236.051 134.373L236.047 130.78H235.027Z" fill="white"/>
<path fill-rule="evenodd" clip-rule="evenodd" d="M236.05 123.597H235.03L235.028 127.189H236.048L236.05 123.597Z" fill="white"/>
<path fill-rule="evenodd" clip-rule="evenodd" d="M235.027 116.414L235.026 120.006L236.051 120.006L236.047 116.414H235.027Z" fill="white"/>
<path fill-rule="evenodd" clip-rule="evenodd" d="M231.065 81.5624C231.696 82.5472 232.266 83.5815 232.752 84.6465L233.681 84.2171C233.177 83.1123 232.585 82.0367 231.924 81.0095L231.065 81.5624Z" fill="white"/>
<path fill-rule="evenodd" clip-rule="evenodd" d="M123.258 187.149C124.449 187.313 125.667 187.419 126.875 187.467L126.911 186.449C125.739 186.403 124.557 186.299 123.397 186.136L123.258 187.149Z" fill="white"/>
<path fill-rule="evenodd" clip-rule="evenodd" d="M116.215 185.425C117.353 185.829 118.522 186.18 119.693 186.466L119.938 185.473C118.801 185.195 117.66 184.859 116.557 184.468L116.215 185.425Z" fill="white"/>
<path fill-rule="evenodd" clip-rule="evenodd" d="M130.442 186.412L130.501 187.428C131.706 187.361 132.919 187.228 134.107 187.038L133.944 186.026C132.788 186.213 131.612 186.343 130.442 186.412Z" fill="white"/>
<path fill-rule="evenodd" clip-rule="evenodd" d="M227.157 75.4811L226.483 76.253C227.366 77.0218 228.198 77.8637 228.964 78.7505L229.738 78.0817C228.943 77.1587 228.075 76.2882 227.157 75.4811Z" fill="white"/>
<path fill-rule="evenodd" clip-rule="evenodd" d="M137.395 185.297L137.657 186.281C138.822 185.971 139.984 185.599 141.11 185.172L140.754 184.217C139.656 184.633 138.528 184.992 137.395 185.297Z" fill="white"/>
<path fill-rule="evenodd" clip-rule="evenodd" d="M143.98 182.807L144.438 183.726C145.519 183.186 146.58 182.59 147.602 181.95L147.056 181.082C146.068 181.708 145.031 182.287 143.98 182.807Z" fill="white"/>
<path fill-rule="evenodd" clip-rule="evenodd" d="M183.585 126.56C183.375 127.612 183.08 128.651 182.703 129.654L183.663 130.011C184.056 128.954 184.367 127.861 184.586 126.759L184.643 126.469L183.639 126.284L183.585 126.56Z" fill="white"/>
<path fill-rule="evenodd" clip-rule="evenodd" d="M184.991 112.03H183.971L183.969 115.622H184.99L184.991 112.03Z" fill="white"/>
<path fill-rule="evenodd" clip-rule="evenodd" d="M179.922 136.311C180.726 135.382 181.447 134.376 182.073 133.323L181.192 132.805C180.597 133.806 179.913 134.758 179.149 135.641L179.922 136.311Z" fill="white"/>
<path fill-rule="evenodd" clip-rule="evenodd" d="M184.993 104.848L183.968 104.847L183.972 108.439L184.992 108.439L184.993 104.848Z" fill="white"/>
<path fill-rule="evenodd" clip-rule="evenodd" d="M183.969 101.256H184.99L184.991 97.6643" fill="white"/>
<path fill-rule="evenodd" clip-rule="evenodd" d="M184.988 119.214H183.968L183.968 122.8L184.991 122.811L184.988 119.214Z" fill="white"/>
<path fill-rule="evenodd" clip-rule="evenodd" d="M187.601 83.9415L186.687 83.4841C186.142 84.5777 185.672 85.7126 185.29 86.8704L186.258 87.188C186.629 86.0801 187.08 84.9881 187.601 83.9415Z" fill="white"/>
<path fill-rule="evenodd" clip-rule="evenodd" d="M185.392 90.597L184.386 90.4178C184.169 91.6135 184.036 92.8362 183.991 94.0558L185.008 94.0967C185.054 92.9245 185.184 91.7477 185.392 90.597Z" fill="white"/>
<path fill-rule="evenodd" clip-rule="evenodd" d="M194.13 75.7407C195.037 74.9999 196.002 74.3118 196.997 73.7083L196.468 72.8327C195.425 73.4684 194.425 74.1805 193.485 74.9565L194.13 75.7407Z" fill="white"/>
<path fill-rule="evenodd" clip-rule="evenodd" d="M189.386 80.9077C190.051 79.9469 190.786 79.0213 191.577 78.158L190.825 77.4673C190.001 78.3653 189.237 79.3271 188.543 80.3288L189.386 80.9077Z" fill="white"/>
<path fill-rule="evenodd" clip-rule="evenodd" d="M109.657 182.335C110.689 182.957 111.766 183.531 112.856 184.044L113.295 183.121C112.233 182.624 111.189 182.063 110.185 181.457L109.657 182.335Z" fill="white"/>
<path fill-rule="evenodd" clip-rule="evenodd" d="M217.333 71.1479L217.631 70.1713C216.468 69.8201 215.274 69.5413 214.062 69.3519L213.903 70.3617C215.068 70.5465 216.215 70.8059 217.333 71.1479Z" fill="white"/>
<path fill-rule="evenodd" clip-rule="evenodd" d="M206.76 69.2424L206.886 70.2563C207.911 70.1272 208.965 70.0613 210.012 70.0613C210.142 70.0608 210.272 70.0608 210.396 70.0644L210.412 69.0423C210.282 69.0423 210.147 69.0418 210.006 69.0398C208.923 69.0428 207.828 69.1061 206.76 69.2424Z" fill="white"/>
<path fill-rule="evenodd" clip-rule="evenodd" d="M223.685 74.124L224.24 73.2714C223.222 72.6057 222.145 72.0007 221.045 71.4856L220.61 72.4138C221.668 72.9054 222.703 73.4859 223.685 74.124Z" fill="white"/>
<path fill-rule="evenodd" clip-rule="evenodd" d="M200.119 72.0908C201.194 71.6283 202.307 71.2403 203.436 70.934L203.169 69.9492C201.996 70.2677 200.833 70.671 199.717 71.152L200.119 72.0908Z" fill="white"/>
<path fill-rule="evenodd" clip-rule="evenodd" d="M235.027 98.4609H236.047L236.05 94.8648L235.029 94.8694L235.027 98.4609Z" fill="white"/>
<path fill-rule="evenodd" clip-rule="evenodd" d="M61.7338 116.481C61.67 116.801 61.6174 117.119 61.574 117.444L62.5869 117.583C62.6267 117.278 62.6757 116.981 62.7354 116.68C62.9008 115.849 63.1418 115.028 63.4446 114.24L62.4929 113.868C62.1687 114.715 61.9104 115.595 61.7338 116.481Z" fill="white"/>
<path fill-rule="evenodd" clip-rule="evenodd" d="M21.4777 142.563L21.4828 143.584L25.059 143.583V142.563L21.4777 142.563Z" fill="white"/>
<path fill-rule="evenodd" clip-rule="evenodd" d="M28.6394 142.567V143.587L32.2208 143.586L32.2157 142.565L28.6394 142.567Z" fill="white"/>
<path fill-rule="evenodd" clip-rule="evenodd" d="M42.9219 142.519L42.9898 143.537C44.2094 143.452 45.4296 143.257 46.6079 142.961L46.3623 141.97C45.2397 142.251 44.0833 142.437 42.9219 142.519Z" fill="white"/>
<path fill-rule="evenodd" clip-rule="evenodd" d="M61.4324 121.085L61.4329 122.652C61.4324 123.308 61.4002 123.967 61.3348 124.61L62.3503 124.713C62.4177 124.034 62.4509 123.344 62.4534 122.652L62.4524 121.085H61.4324Z" fill="white"/>
<path fill-rule="evenodd" clip-rule="evenodd" d="M49.6545 140.833L50.0727 141.765C51.1826 141.262 52.2598 140.664 53.2711 139.976L52.6993 139.133C51.737 139.785 50.7124 140.357 49.6545 140.833Z" fill="white"/>
<path fill-rule="evenodd" clip-rule="evenodd" d="M59.4635 131.297L60.3789 131.744C60.9103 130.642 61.3479 129.491 61.6761 128.312L60.6949 128.039C60.3784 129.157 59.9679 130.252 59.4635 131.297Z" fill="white"/>
<path fill-rule="evenodd" clip-rule="evenodd" d="M35.7974 142.564V143.585L39.3787 143.584V142.564L35.7974 142.564Z" fill="white"/>
<path fill-rule="evenodd" clip-rule="evenodd" d="M0 142.565V143.585L3.58188 143.584L3.58137 142.564L0 142.565Z" fill="white"/>
<path fill-rule="evenodd" clip-rule="evenodd" d="M14.3198 142.566V143.586L17.9012 143.585V142.565L14.3198 142.566Z" fill="white"/>
<path fill-rule="evenodd" clip-rule="evenodd" d="M7.16309 142.563V143.583L10.7383 143.587V142.566L7.16309 142.563Z" fill="white"/>
<path fill-rule="evenodd" clip-rule="evenodd" d="M76.7341 103.771L76.7663 104.787C76.9281 104.783 77.0956 104.78 77.2569 104.781C78.2351 104.783 79.2153 104.879 80.1618 105.067L80.2068 105.076L80.3609 104.065C79.3496 103.864 78.303 103.76 77.2564 103.76C77.0798 103.762 76.9072 103.764 76.7341 103.771Z" fill="white"/>
<path fill-rule="evenodd" clip-rule="evenodd" d="M93.0875 145.127H92.067L92.0629 148.707L93.088 148.708L93.0875 145.127Z" fill="white"/>
<path fill-rule="evenodd" clip-rule="evenodd" d="M92.0649 120.068H93.0855L93.0865 119.59C93.0865 118.517 92.9762 117.449 92.7669 116.408L91.7678 116.615C91.9654 117.586 92.0634 118.584 92.0665 119.59L92.0649 120.068Z" fill="white"/>
<path fill-rule="evenodd" clip-rule="evenodd" d="M93.103 152.271L92.0819 152.303C92.112 153.511 92.2085 154.728 92.3627 155.914L93.3771 155.787C93.2275 154.628 93.1351 153.444 93.103 152.271Z" fill="white"/>
<path fill-rule="evenodd" clip-rule="evenodd" d="M88.871 110.401C89.5867 111.304 90.1968 112.294 90.6874 113.334L91.611 112.903C91.0882 111.79 90.4342 110.733 89.6694 109.763L88.871 110.401Z" fill="white"/>
<path fill-rule="evenodd" clip-rule="evenodd" d="M99.0175 172.598C99.7245 173.571 100.494 174.516 101.299 175.416L102.059 174.733C101.275 173.864 100.532 172.941 99.8399 171.997L99.0175 172.598Z" fill="white"/>
<path fill-rule="evenodd" clip-rule="evenodd" d="M93.0052 159.487C93.2769 160.66 93.6153 161.837 94.0033 162.976L94.9693 162.647C94.5915 161.536 94.2657 160.399 93.9982 159.258L93.0052 159.487Z" fill="white"/>
<path fill-rule="evenodd" clip-rule="evenodd" d="M95.3475 166.345C95.853 167.44 96.413 168.525 97.0236 169.562L97.9073 169.046C97.3115 168.037 96.7658 166.986 96.2803 165.921L95.3475 166.345Z" fill="white"/>
<path fill-rule="evenodd" clip-rule="evenodd" d="M64.219 110.609L65.0614 111.188C65.7184 110.241 66.4806 109.367 67.3368 108.596L66.6547 107.835C65.7409 108.663 64.92 109.598 64.219 110.609Z" fill="white"/>
<path fill-rule="evenodd" clip-rule="evenodd" d="M103.847 177.994C104.741 178.812 105.68 179.587 106.645 180.31L107.255 179.494C106.317 178.792 105.406 178.033 104.538 177.241L103.847 177.994Z" fill="white"/>
<path fill-rule="evenodd" clip-rule="evenodd" d="M92.0632 130.806L92.0637 134.387H93.0843L93.0884 130.806L92.0632 130.806Z" fill="white"/>
<path fill-rule="evenodd" clip-rule="evenodd" d="M69.6626 105.695L70.1502 106.594C71.1656 106.041 72.2418 105.604 73.3537 105.3L73.0862 104.315C71.8972 104.641 70.748 105.105 69.6626 105.695Z" fill="white"/>
<path fill-rule="evenodd" clip-rule="evenodd" d="M93.086 123.649H92.0654L92.0665 127.23H93.0865L93.086 123.649Z" fill="white"/>
<path fill-rule="evenodd" clip-rule="evenodd" d="M83.4858 106.15C84.5294 106.633 85.5167 107.246 86.4265 107.958L87.0595 107.157C86.0875 106.391 85.0292 105.744 83.9142 105.225L83.4858 106.15Z" fill="white"/>
<path fill-rule="evenodd" clip-rule="evenodd" d="M92.0666 141.545H93.0872L93.0851 137.969H92.0651L92.0666 141.545Z" fill="white"/>
<path fill-rule="evenodd" clip-rule="evenodd" d="M55.3966 136.932L56.1098 137.663C56.9874 136.812 57.7925 135.878 58.5042 134.89L57.6756 134.294C56.9986 135.237 56.2298 136.119 55.3966 136.932Z" fill="white"/>
<path fill-rule="evenodd" clip-rule="evenodd" d="M185.815 158.97L186.765 159.351C187.185 158.285 187.69 157.24 188.258 156.239L187.37 155.734C186.777 156.777 186.253 157.865 185.815 158.97Z" fill="white"/>
<path fill-rule="evenodd" clip-rule="evenodd" d="M196.545 189.655C195.58 189.037 194.652 188.342 193.781 187.59L193.115 188.369C194.023 189.149 194.989 189.866 195.989 190.513L196.545 189.655Z" fill="white"/>
<path fill-rule="evenodd" clip-rule="evenodd" d="M185.229 176.572C185.596 177.707 186.045 178.827 186.571 179.9L187.487 179.453C186.984 178.42 186.553 177.346 186.201 176.261L185.229 176.572Z" fill="white"/>
<path fill-rule="evenodd" clip-rule="evenodd" d="M185.016 169.581L185.011 169.475L183.991 169.527L183.994 169.616C184.038 170.781 184.16 171.945 184.36 173.088L185.368 172.914C185.176 171.814 185.055 170.692 185.016 169.581Z" fill="white"/>
<path fill-rule="evenodd" clip-rule="evenodd" d="M188.356 183.014C189.023 184.005 189.76 184.959 190.556 185.851L191.315 185.174C190.555 184.315 189.841 183.397 189.204 182.443L188.356 183.014Z" fill="white"/>
<path fill-rule="evenodd" clip-rule="evenodd" d="M194.461 147.718L195.073 148.538C195.991 147.85 196.964 147.222 197.969 146.672L197.48 145.779C196.435 146.352 195.415 147.002 194.461 147.718Z" fill="white"/>
<path fill-rule="evenodd" clip-rule="evenodd" d="M185.474 163.696C185.545 163.341 185.625 162.987 185.711 162.634L184.718 162.39C184.63 162.758 184.546 163.126 184.472 163.497C184.313 164.298 184.191 165.117 184.108 165.928L185.123 166.031C185.206 165.251 185.32 164.467 185.474 163.696Z" fill="white"/>
<path fill-rule="evenodd" clip-rule="evenodd" d="M189.359 152.746L190.167 153.365C190.868 152.459 191.634 151.591 192.455 150.786L191.737 150.054C190.888 150.896 190.089 151.798 189.359 152.746Z" fill="white"/>
<path fill-rule="evenodd" clip-rule="evenodd" d="M235.491 173.983L234.491 173.774C234.257 174.899 233.936 176.016 233.549 177.095L234.512 177.438C234.918 176.315 235.247 175.153 235.491 173.983Z" fill="white"/>
<path fill-rule="evenodd" clip-rule="evenodd" d="M228.88 186.546L228.14 185.842C227.35 186.674 226.497 187.456 225.599 188.174L226.237 188.972C227.167 188.225 228.057 187.413 228.88 186.546Z" fill="white"/>
<path fill-rule="evenodd" clip-rule="evenodd" d="M202.788 192.552C201.693 192.22 200.61 191.802 199.567 191.318L199.137 192.248C200.224 192.75 201.351 193.183 202.489 193.529L202.788 192.552Z" fill="white"/>
<path fill-rule="evenodd" clip-rule="evenodd" d="M200.732 144.27L201.1 145.223C202.169 144.816 203.278 144.474 204.397 144.218L204.172 143.226C203.005 143.493 201.848 143.841 200.732 144.27Z" fill="white"/>
<path fill-rule="evenodd" clip-rule="evenodd" d="M233.062 180.725L232.157 180.248C231.622 181.266 231.009 182.253 230.34 183.182L231.169 183.779C231.866 182.809 232.503 181.78 233.062 180.725Z" fill="white"/>
<path fill-rule="evenodd" clip-rule="evenodd" d="M167.329 143.331C168.538 143.14 169.737 142.842 170.899 142.443L170.566 141.476C169.464 141.861 168.32 142.144 167.171 142.321L167.329 143.331Z" fill="white"/>
<path fill-rule="evenodd" clip-rule="evenodd" d="M209.571 194.641L209.587 193.619C209.401 193.612 209.22 193.608 209.033 193.602C208.072 193.567 207.102 193.473 206.149 193.32L205.99 194.329C206.984 194.485 207.995 194.582 208.998 194.62L209.571 194.641Z" fill="white"/>
<path fill-rule="evenodd" clip-rule="evenodd" d="M216.681 193.78L216.42 192.791C215.31 193.086 214.174 193.302 213.033 193.439L213.154 194.452C214.337 194.313 215.527 194.087 216.681 193.78Z" fill="white"/>
<path fill-rule="evenodd" clip-rule="evenodd" d="M246.508 143.589V142.569L242.985 142.566V143.586L246.508 143.589Z" fill="white"/>
<path fill-rule="evenodd" clip-rule="evenodd" d="M225.37 143.586V142.565L221.85 142.568V143.588L225.37 143.586Z" fill="white"/>
<path fill-rule="evenodd" clip-rule="evenodd" d="M236.046 168.602L236.051 168.603L236.047 166.817H235.027L235.026 168.602C235.024 169.185 235.006 169.775 234.969 170.356L235.985 170.427C236.027 169.822 236.05 169.207 236.046 168.602Z" fill="white"/>
<path fill-rule="evenodd" clip-rule="evenodd" d="M239.465 143.589L239.46 142.568L235.941 142.57V143.59L239.465 143.589Z" fill="white"/>
<path fill-rule="evenodd" clip-rule="evenodd" d="M232.417 143.587V142.567L228.893 142.569V143.589L232.417 143.587Z" fill="white"/>
<path fill-rule="evenodd" clip-rule="evenodd" d="M218.326 143.59V142.569L214.803 142.566V143.587L218.326 143.59Z" fill="white"/>
<path fill-rule="evenodd" clip-rule="evenodd" d="M207.803 143.683C208.534 143.62 209.28 143.587 210.013 143.592L211.278 143.588V142.568L210.014 142.566C209.249 142.565 208.477 142.599 207.714 142.666L207.803 143.683Z" fill="white"/>
<path fill-rule="evenodd" clip-rule="evenodd" d="M281.737 143.591L281.738 142.566L278.213 142.567V143.588L281.737 143.591Z" fill="white"/>
<path fill-rule="evenodd" clip-rule="evenodd" d="M288.78 143.586V142.566L285.261 142.569V143.589L288.78 143.586Z" fill="white"/>
<path fill-rule="evenodd" clip-rule="evenodd" d="M295.826 143.586V142.566L292.306 142.569V143.589L295.826 143.586Z" fill="white"/>
<path fill-rule="evenodd" clip-rule="evenodd" d="M253.555 143.591L253.556 142.566L250.032 142.568V143.588L253.555 143.591Z" fill="white"/>
<path fill-rule="evenodd" clip-rule="evenodd" d="M302.871 143.586V142.566L299.351 142.569V143.589L302.871 143.586Z" fill="white"/>
<path fill-rule="evenodd" clip-rule="evenodd" d="M274.689 143.589V142.569L271.166 142.566L271.171 143.587L274.689 143.589Z" fill="white"/>
<path fill-rule="evenodd" clip-rule="evenodd" d="M260.599 143.587L260.598 142.567L257.074 142.568L257.075 143.588L260.599 143.587Z" fill="white"/>
<path fill-rule="evenodd" clip-rule="evenodd" d="M267.646 143.588V142.568L264.122 142.57V143.59L267.646 143.588Z" fill="white"/>
<path fill-rule="evenodd" clip-rule="evenodd" d="M223.282 191.007L222.763 190.134C221.778 190.719 220.741 191.241 219.681 191.681L220.076 192.624C221.178 192.161 222.254 191.62 223.282 191.007Z" fill="white"/>
<path fill-rule="evenodd" clip-rule="evenodd" d="M117.691 131.396C117.043 130.419 116.461 129.392 115.952 128.338L115.032 128.78C115.558 129.874 116.167 130.947 116.845 131.962L117.691 131.396Z" fill="white"/>
<path fill-rule="evenodd" clip-rule="evenodd" d="M114.541 107.46C114.063 108.578 113.665 109.743 113.353 110.919L114.342 111.179C114.639 110.051 115.022 108.935 115.481 107.861L114.541 107.46Z" fill="white"/>
<path fill-rule="evenodd" clip-rule="evenodd" d="M118.304 101.207C117.538 102.153 116.833 103.158 116.204 104.199L117.078 104.727C117.682 103.728 118.359 102.759 119.097 101.849L118.304 101.207Z" fill="white"/>
<path fill-rule="evenodd" clip-rule="evenodd" d="M123.641 96.2259C122.649 96.9238 121.692 97.7019 120.799 98.5289L121.498 99.2769C122.35 98.4779 123.273 97.7356 124.23 97.0612L123.641 96.2259Z" fill="white"/>
<path fill-rule="evenodd" clip-rule="evenodd" d="M121.7 137.414L122.359 136.634C121.469 135.879 120.619 135.049 119.84 134.176L119.08 134.858C119.888 135.768 120.768 136.625 121.7 137.414Z" fill="white"/>
<path fill-rule="evenodd" clip-rule="evenodd" d="M130.148 92.9023C128.996 93.298 127.864 93.781 126.776 94.3349L127.241 95.2441C128.283 94.7127 129.375 94.2481 130.476 93.8683L130.148 92.9023Z" fill="white"/>
<path fill-rule="evenodd" clip-rule="evenodd" d="M114.662 125.063C114.31 123.952 114.039 122.805 113.847 121.647L112.842 121.812C113.039 123.017 113.327 124.214 113.689 125.374L114.662 125.063Z" fill="white"/>
<path fill-rule="evenodd" clip-rule="evenodd" d="M131.304 142.567C131.998 142.768 132.703 142.939 133.404 143.079C133.905 143.173 134.387 143.264 134.884 143.332L135.028 142.319C134.556 142.256 134.084 142.173 133.623 142.081C132.937 141.945 132.256 141.783 131.587 141.588L131.304 142.567Z" fill="white"/>
<path fill-rule="evenodd" clip-rule="evenodd" d="M152.901 143.584L156.493 143.585V142.565L152.901 142.564V143.584Z" fill="white"/>
<path fill-rule="evenodd" clip-rule="evenodd" d="M163.671 143.587L163.676 142.567L160.084 142.566V143.586L163.671 143.587Z" fill="white"/>
<path fill-rule="evenodd" clip-rule="evenodd" d="M113.681 114.633L112.669 114.515C112.593 115.182 112.537 115.858 112.511 116.535C112.492 117.078 112.487 117.629 112.498 118.172L113.523 118.147C113.507 117.628 113.513 117.099 113.535 116.572C113.559 115.926 113.605 115.274 113.681 114.633Z" fill="white"/>
<path fill-rule="evenodd" clip-rule="evenodd" d="M149.309 143.588L149.31 142.563L145.717 142.567V143.587L149.309 143.588Z" fill="white"/>
<path fill-rule="evenodd" clip-rule="evenodd" d="M138.535 143.584L142.126 143.585V142.565L138.535 142.564V143.584Z" fill="white"/>
<path fill-rule="evenodd" clip-rule="evenodd" d="M127.869 141.312L128.288 140.38C127.223 139.898 126.178 139.341 125.193 138.719L124.648 139.578C125.674 140.23 126.761 140.811 127.869 141.312Z" fill="white"/>
<path fill-rule="evenodd" clip-rule="evenodd" d="M137.321 91.5398C136.102 91.5939 134.877 91.7353 133.686 91.9671L133.877 92.9683C135.024 92.7487 136.197 92.6124 137.368 92.5588L137.321 91.5398Z" fill="white"/>
<path fill-rule="evenodd" clip-rule="evenodd" d="M236.048 159.509L235.027 159.514L235.027 163.101H236.047L236.048 159.509Z" fill="white"/>
<path fill-rule="evenodd" clip-rule="evenodd" d="M149.942 179.058L150.572 179.865C151.522 179.122 152.445 178.328 153.318 177.496L152.611 176.758C151.763 177.567 150.865 178.341 149.942 179.058Z" fill="white"/>
<path fill-rule="evenodd" clip-rule="evenodd" d="M155.041 174.201L155.82 174.866C156.606 173.95 157.354 172.985 158.046 171.998L157.209 171.415C156.534 172.374 155.806 173.312 155.041 174.201Z" fill="white"/>
<path fill-rule="evenodd" clip-rule="evenodd" d="M161.89 161.961L162.858 162.274C163.227 161.124 163.539 159.947 163.785 158.763L162.786 158.553C162.547 159.703 162.241 160.85 161.89 161.961Z" fill="white"/>
<path fill-rule="evenodd" clip-rule="evenodd" d="M159.079 168.424L159.974 168.925C160.563 167.871 161.104 166.776 161.583 165.674L160.644 165.264C160.18 166.343 159.652 167.403 159.079 168.424Z" fill="white"/>
<path fill-rule="evenodd" clip-rule="evenodd" d="M236.05 152.331H235.03L235.028 155.923H236.048L236.05 152.331Z" fill="white"/>
<path fill-rule="evenodd" clip-rule="evenodd" d="M163.54 151.754C163.523 152.86 163.457 153.976 163.344 155.067L164.358 155.18C164.48 154.044 164.547 152.891 164.561 151.749C164.394 151.752 164.227 151.755 164.061 151.753L163.54 151.754Z" fill="white"/>
<path fill-rule="evenodd" clip-rule="evenodd" d="M140.978 91.6266L140.885 92.6441C142.051 92.7508 143.221 92.9418 144.354 93.2139L144.587 92.2199C143.415 91.9396 142.195 91.7384 140.978 91.6266Z" fill="white"/>
<path fill-rule="evenodd" clip-rule="evenodd" d="M154.426 96.9254L153.802 97.733C154.733 98.4488 155.611 99.2381 156.429 100.072L157.16 99.3585C156.311 98.4922 155.393 97.6692 154.426 96.9254Z" fill="white"/>
<path fill-rule="evenodd" clip-rule="evenodd" d="M148.08 93.3203L147.705 94.2658C148.791 94.6951 149.859 95.2097 150.874 95.7866L151.379 94.8978C150.322 94.2974 149.21 93.7639 148.08 93.3203Z" fill="white"/>
<path fill-rule="evenodd" clip-rule="evenodd" d="M162.021 108.935C162.428 110.031 162.754 111.168 162.999 112.315L163.994 112.102C163.742 110.907 163.4 109.724 162.981 108.584L162.021 108.935Z" fill="white"/>
<path fill-rule="evenodd" clip-rule="evenodd" d="M159.529 102.151L158.707 102.753C159.399 103.698 160.033 104.698 160.582 105.729L161.48 105.246C160.907 104.174 160.25 103.133 159.529 102.151Z" fill="white"/>
<path fill-rule="evenodd" clip-rule="evenodd" d="M164.567 117.546C164.568 116.937 164.544 116.323 164.507 115.727L163.489 115.796C163.525 116.371 163.548 116.963 163.546 117.546L163.544 119.336L164.57 119.337L164.567 117.546Z" fill="white"/>
<path fill-rule="evenodd" clip-rule="evenodd" d="M164.569 133.652L164.568 130.076H163.548L163.549 133.652H164.569Z" fill="white"/>
<path fill-rule="evenodd" clip-rule="evenodd" d="M163.546 122.913L163.547 126.494H164.567L164.566 122.913H163.546Z" fill="white"/>
<path fill-rule="evenodd" clip-rule="evenodd" d="M90.1752 73.5768C90.1752 80.9075 84.2321 86.8506 76.9015 86.8506C69.5708 86.8506 63.6277 80.9075 63.6277 73.5768C63.6277 66.2461 69.5708 60.3031 76.9015 60.3031C84.2321 60.3031 90.1752 66.2461 90.1752 73.5768Z" fill="white"/>
<path d="M90.1752 73.5768C90.1752 80.9075 84.2321 86.8506 76.9015 86.8506C69.5708 86.8506 63.6277 80.9075 63.6277 73.5768C63.6277 66.2461 69.5708 60.3031 76.9015 60.3031C84.2321 60.3031 90.1752 66.2461 90.1752 73.5768" stroke="#F03A42" stroke-width="2"/>
<path fill-rule="evenodd" clip-rule="evenodd" d="M77.2275 105.52C76.6639 105.52 76.2064 105.062 76.2064 104.498V85.8687H78.2485V104.498C78.2485 105.062 77.7911 105.52 77.2275 105.52Z" fill="#F03A42"/>
<path fill-rule="evenodd" clip-rule="evenodd" d="M140.362 165.704C140.362 173.034 134.419 178.978 127.088 178.978C119.758 178.978 113.814 173.034 113.814 165.704C113.814 158.373 119.758 152.43 127.088 152.43C134.419 152.43 140.362 158.373 140.362 165.704Z" fill="white"/>
<path d="M140.362 165.704C140.362 173.034 134.419 178.978 127.088 178.978C119.758 178.978 113.814 173.034 113.814 165.704C113.814 158.373 119.758 152.43 127.088 152.43C134.419 152.43 140.362 158.373 140.362 165.704" stroke="#F03A42" stroke-width="2"/>
<path fill-rule="evenodd" clip-rule="evenodd" d="M127.424 188.047C126.86 188.047 126.402 187.769 126.402 187.426V178.271H128.445V187.426C128.445 187.769 127.987 188.047 127.424 188.047Z" fill="#F03A42"/>
<path fill-rule="evenodd" clip-rule="evenodd" d="M210.633 194.133C210.069 194.133 209.612 193.676 209.612 193.112V178.056H211.654V193.112C211.654 193.676 211.196 194.133 210.633 194.133Z" fill="#F03A42"/>
<path fill-rule="evenodd" clip-rule="evenodd" d="M223.909 168.607C223.909 175.938 217.966 181.881 210.635 181.881C203.304 181.881 197.361 175.938 197.361 168.607C197.361 161.276 203.304 155.333 210.635 155.333C217.966 155.333 223.909 161.276 223.909 168.607Z" fill="white"/>
<path d="M223.909 168.607C223.909 175.938 217.966 181.881 210.635 181.881C203.304 181.881 197.361 175.938 197.361 168.607C197.361 161.276 203.304 155.333 210.635 155.333C217.966 155.333 223.909 161.276 223.909 168.607" stroke="#F03A42" stroke-width="2"/>
<path fill-rule="evenodd" clip-rule="evenodd" d="M210.632 143.066C210.068 143.066 209.61 142.609 209.61 142.045V104.526H211.653V142.045C211.653 142.609 211.195 143.066 210.632 143.066Z" fill="#F03A42"/>
<path fill-rule="evenodd" clip-rule="evenodd" d="M223.908 95.0768C223.908 102.408 217.965 108.351 210.634 108.351C203.303 108.351 197.36 102.408 197.36 95.0768C197.36 87.7461 203.303 81.8031 210.634 81.8031C217.965 81.8031 223.908 87.7461 223.908 95.0768Z" fill="white"/>
<path d="M223.908 95.0768C223.908 102.408 217.965 108.351 210.634 108.351C203.303 108.351 197.36 102.408 197.36 95.0768C197.36 87.7461 203.303 81.8031 210.634 81.8031C217.965 81.8031 223.908 87.7461 223.908 95.0768" stroke="#F03A42" stroke-width="2"/>
<path fill-rule="evenodd" clip-rule="evenodd" d="M270.633 143.244C270.069 143.244 269.612 142.787 269.612 142.223V123.593H271.654V142.223C271.654 142.787 271.196 143.244 270.633 143.244Z" fill="#F03A42"/>
<path fill-rule="evenodd" clip-rule="evenodd" d="M283.909 114.143C283.909 121.474 277.966 127.417 270.635 127.417C263.305 127.417 257.362 121.474 257.362 114.143C257.362 106.813 263.305 100.869 270.635 100.869C277.966 100.869 283.909 106.813 283.909 114.143Z" fill="white"/>
<path d="M283.909 114.143C283.909 121.474 277.966 127.417 270.635 127.417C263.305 127.417 257.362 121.474 257.362 114.143C257.362 106.813 263.305 100.869 270.635 100.869C277.966 100.869 283.909 106.813 283.909 114.143" stroke="#F03A42" stroke-width="2"/>
<path fill-rule="evenodd" clip-rule="evenodd" d="M305.036 235.107H31.0929V217.238H305.036V235.107Z" fill="url(#paint1_linear)"/>
<path fill-rule="evenodd" clip-rule="evenodd" d="M32.7479 226.684H28.6769C28.3951 226.684 28.1664 226.455 28.1664 226.173C28.1664 225.891 28.3951 225.663 28.6769 225.663H32.7479C33.0302 225.663 33.2584 225.891 33.2584 226.173C33.2584 226.455 33.0302 226.684 32.7479 226.684M40.891 226.684H36.8195C36.5377 226.684 36.309 226.455 36.309 226.173C36.309 225.891 36.5377 225.663 36.8195 225.663H40.891C41.1728 225.663 41.4015 225.891 41.4015 226.173C41.4015 226.455 41.1728 226.684 40.891 226.684ZM49.0333 226.684H44.9624C44.6801 226.684 44.4518 226.455 44.4518 226.173C44.4518 225.891 44.6801 225.663 44.9624 225.663H49.0333C49.3157 225.663 49.5439 225.891 49.5439 226.173C49.5439 226.455 49.3157 226.684 49.0333 226.684ZM57.1762 226.684H53.1047C52.8229 226.684 52.5942 226.455 52.5942 226.173C52.5942 225.891 52.8229 225.663 53.1047 225.663H57.1762C57.458 225.663 57.6868 225.891 57.6868 226.173C57.6868 226.455 57.458 226.684 57.1762 226.684ZM65.3188 226.684H61.2474C60.9655 226.684 60.7368 226.455 60.7368 226.173C60.7368 225.891 60.9655 225.663 61.2474 225.663H65.3188C65.6006 225.663 65.8294 225.891 65.8294 226.173C65.8294 226.455 65.6006 226.684 65.3188 226.684ZM73.4612 226.684H69.3902C69.1084 226.684 68.8797 226.455 68.8797 226.173C68.8797 225.891 69.1084 225.663 69.3902 225.663H73.4612C73.7435 225.663 73.9717 225.891 73.9717 226.173C73.9717 226.455 73.7435 226.684 73.4612 226.684ZM81.6039 226.684H77.5325C77.2507 226.684 77.0219 226.455 77.0219 226.173C77.0219 225.891 77.2507 225.663 77.5325 225.663H81.6039C81.8858 225.663 82.1145 225.891 82.1145 226.173C82.1145 226.455 81.8858 226.684 81.6039 226.684ZM89.7464 226.684H85.675C85.3931 226.684 85.1644 226.455 85.1644 226.173C85.1644 225.891 85.3931 225.663 85.675 225.663H89.7464C90.0282 225.663 90.257 225.891 90.257 226.173C90.257 226.455 90.0282 226.684 89.7464 226.684ZM97.8894 226.684H93.8179C93.5361 226.684 93.3074 226.455 93.3074 226.173C93.3074 225.891 93.5361 225.663 93.8179 225.663H97.8894C98.1712 225.663 98.3999 225.891 98.3999 226.173C98.3999 226.455 98.1712 226.684 97.8894 226.684ZM106.032 226.684H101.96C101.678 226.684 101.45 226.455 101.45 226.173C101.45 225.891 101.678 225.663 101.96 225.663H106.032C106.314 225.663 106.542 225.891 106.542 226.173C106.542 226.455 106.314 226.684 106.032 226.684ZM114.174 226.684H110.103C109.821 226.684 109.592 226.455 109.592 226.173C109.592 225.891 109.821 225.663 110.103 225.663H114.174C114.456 225.663 114.685 225.891 114.685 226.173C114.685 226.455 114.456 226.684 114.174 226.684ZM122.317 226.684H118.246C117.964 226.684 117.735 226.455 117.735 226.173C117.735 225.891 117.964 225.663 118.246 225.663H122.317C122.599 225.663 122.828 225.891 122.828 226.173C122.828 226.455 122.599 226.684 122.317 226.684ZM130.46 226.684H126.388C126.106 226.684 125.878 226.455 125.878 226.173C125.878 225.891 126.106 225.663 126.388 225.663H130.46C130.742 225.663 130.97 225.891 130.97 226.173C130.97 226.455 130.742 226.684 130.46 226.684ZM138.602 226.684H134.531C134.249 226.684 134.021 226.455 134.021 226.173C134.021 225.891 134.249 225.663 134.531 225.663H138.602C138.884 225.663 139.113 225.891 139.113 226.173C139.113 226.455 138.884 226.684 138.602 226.684ZM146.745 226.684H142.674C142.392 226.684 142.163 226.455 142.163 226.173C142.163 225.891 142.392 225.663 142.674 225.663H146.745C147.027 225.663 147.256 225.891 147.256 226.173C147.256 226.455 147.027 226.684 146.745 226.684ZM154.888 226.684H150.816C150.534 226.684 150.306 226.455 150.306 226.173C150.306 225.891 150.534 225.663 150.816 225.663H154.888C155.17 225.663 155.399 225.891 155.399 226.173C155.399 226.455 155.17 226.684 154.888 226.684ZM163.03 226.684H158.959C158.677 226.684 158.448 226.455 158.448 226.173C158.448 225.891 158.677 225.663 158.959 225.663H163.03C163.313 225.663 163.541 225.891 163.541 226.173C163.541 226.455 163.313 226.684 163.03 226.684ZM171.173 226.684H167.102C166.82 226.684 166.591 226.455 166.591 226.173C166.591 225.891 166.82 225.663 167.102 225.663H171.173C171.455 225.663 171.684 225.891 171.684 226.173C171.684 226.455 171.455 226.684 171.173 226.684ZM179.315 226.684H175.244C174.962 226.684 174.734 226.455 174.734 226.173C174.734 225.891 174.962 225.663 175.244 225.663H179.315C179.598 225.663 179.826 225.891 179.826 226.173C179.826 226.455 179.598 226.684 179.315 226.684ZM187.458 226.684H183.387C183.105 226.684 182.876 226.455 182.876 226.173C182.876 225.891 183.105 225.663 183.387 225.663H187.458C187.74 225.663 187.969 225.891 187.969 226.173C187.969 226.455 187.74 226.684 187.458 226.684ZM195.601 226.684H191.529C191.247 226.684 191.019 226.455 191.019 226.173C191.019 225.891 191.247 225.663 191.529 225.663H195.601C195.883 225.663 196.111 225.891 196.111 226.173C196.111 226.455 195.883 226.684 195.601 226.684ZM203.743 226.684H199.672C199.39 226.684 199.161 226.455 199.161 226.173C199.161 225.891 199.39 225.663 199.672 225.663H203.743C204.025 225.663 204.254 225.891 204.254 226.173C204.254 226.455 204.025 226.684 203.743 226.684ZM211.886 226.684H207.814C207.532 226.684 207.304 226.455 207.304 226.173C207.304 225.891 207.532 225.663 207.814 225.663H211.886C212.168 225.663 212.396 225.891 212.396 226.173C212.396 226.455 212.168 226.684 211.886 226.684ZM220.028 226.684H215.957C215.675 226.684 215.446 226.455 215.446 226.173C215.446 225.891 215.675 225.663 215.957 225.663H220.028C220.311 225.663 220.539 225.891 220.539 226.173C220.539 226.455 220.311 226.684 220.028 226.684ZM228.172 226.684H224.1C223.818 226.684 223.59 226.455 223.59 226.173C223.59 225.891 223.818 225.663 224.1 225.663H228.172C228.453 225.663 228.682 225.891 228.682 226.173C228.682 226.455 228.453 226.684 228.172 226.684ZM236.314 226.684H232.243C231.96 226.684 231.732 226.455 231.732 226.173C231.732 225.891 231.96 225.663 232.243 225.663H236.314C236.596 225.663 236.825 225.891 236.825 226.173C236.825 226.455 236.596 226.684 236.314 226.684ZM244.456 226.684H240.385C240.103 226.684 239.874 226.455 239.874 226.173C239.874 225.891 240.103 225.663 240.385 225.663H244.456C244.739 225.663 244.967 225.891 244.967 226.173C244.967 226.455 244.739 226.684 244.456 226.684ZM252.599 226.684H248.528C248.245 226.684 248.017 226.455 248.017 226.173C248.017 225.891 248.245 225.663 248.528 225.663H252.599C252.881 225.663 253.109 225.891 253.109 226.173C253.109 226.455 252.881 226.684 252.599 226.684ZM260.741 226.684H256.67C256.388 226.684 256.16 226.455 256.16 226.173C256.16 225.891 256.388 225.663 256.67 225.663H260.741C261.024 225.663 261.252 225.891 261.252 226.173C261.252 226.455 261.024 226.684 260.741 226.684ZM268.884 226.684H264.813C264.53 226.684 264.302 226.455 264.302 226.173C264.302 225.891 264.53 225.663 264.813 225.663H268.884C269.166 225.663 269.395 225.891 269.395 226.173C269.395 226.455 269.166 226.684 268.884 226.684ZM277.027 226.684H272.955C272.673 226.684 272.445 226.455 272.445 226.173C272.445 225.891 272.673 225.663 272.955 225.663H277.027C277.309 225.663 277.537 225.891 277.537 226.173C277.537 226.455 277.309 226.684 277.027 226.684ZM285.17 226.684H281.098C280.816 226.684 280.587 226.455 280.587 226.173C280.587 225.891 280.816 225.663 281.098 225.663H285.17C285.452 225.663 285.68 225.891 285.68 226.173C285.68 226.455 285.452 226.684 285.17 226.684ZM293.312 226.684H289.241C288.959 226.684 288.731 226.455 288.731 226.173C288.731 225.891 288.959 225.663 289.241 225.663H293.312C293.594 225.663 293.823 225.891 293.823 226.173C293.823 226.455 293.594 226.684 293.312 226.684ZM301.455 226.684H297.384C297.101 226.684 296.873 226.455 296.873 226.173C296.873 225.891 297.101 225.663 297.384 225.663H301.455C301.737 225.663 301.965 225.891 301.965 226.173C301.965 226.455 301.737 226.684 301.455 226.684ZM309.598 226.684H305.526C305.244 226.684 305.016 226.455 305.016 226.173C305.016 225.891 305.244 225.663 305.526 225.663H309.598C309.879 225.663 310.108 225.891 310.108 226.173C310.108 226.455 309.879 226.684 309.598 226.684Z" fill="white"/>
<path fill-rule="evenodd" clip-rule="evenodd" d="M302.375 141.728C302.375 128.77 312.88 118.266 325.838 118.266C338.796 118.266 349.3 128.77 349.3 141.728C349.3 154.686 338.796 165.191 325.838 165.191C312.88 165.191 302.375 154.686 302.375 141.728Z" fill="white" stroke="#7B39D9" stroke-dasharray="3 3"/>
<path fill-rule="evenodd" clip-rule="evenodd" d="M326.435 142.992H309.474L309.494 137.447L312.666 140.219L315.438 137.447L317.954 141.051L320.151 137.447L323.386 141.421L326.435 136.523V142.992Z" fill="url(#paint2_linear)"/>
<path fill-rule="evenodd" clip-rule="evenodd" d="M325.881 142.992H308.92L308.94 137.447L312.112 140.219L314.884 137.447H315.439L317.4 141.051L319.597 137.447H320.152L322.832 141.421L325.881 136.523H326.436L325.881 142.992Z" fill="#212228"/>
<path fill-rule="evenodd" clip-rule="evenodd" d="M326.632 148.074V146.411L331.006 145.24L333.224 141.667L335.688 143.947L338.213 139.08L340.431 141.852L343.573 136.985V143.7C343.573 143.7 344.867 148.074 326.632 148.074Z" fill="url(#paint3_linear)"/>
<path fill-rule="evenodd" clip-rule="evenodd" d="M325.834 142.998H342.796L342.776 137.454L339.603 140.226L336.831 137.454L334.315 141.058L332.118 137.454L328.884 141.427L325.834 136.53V142.998Z" fill="url(#paint4_linear)"/>
<path fill-rule="evenodd" clip-rule="evenodd" d="M326.389 142.998H343.35L343.33 137.454L340.158 140.226L337.386 137.454H336.831L334.87 141.058L332.673 137.454H332.118L329.438 141.427L326.389 136.53H325.834L326.389 142.998Z" fill="#212228"/>
<path fill-rule="evenodd" clip-rule="evenodd" d="M325.465 146.763L326.019 138.977L327.405 146.763H325.465Z" fill="url(#paint5_linear)"/>
<path fill-rule="evenodd" clip-rule="evenodd" d="M325.881 148.537V146.874L321.507 145.703L319.289 142.13L316.825 144.41L314.299 139.543L312.081 142.315L308.94 137.448V144.163C308.94 144.163 307.646 148.537 325.881 148.537Z" fill="url(#paint6_linear)"/>
<path fill-rule="evenodd" clip-rule="evenodd" d="M325.638 148.068V146.405L321.264 145.234L319.046 141.661L316.582 143.941L314.056 139.074L311.839 141.846L308.697 136.979V143.694C308.697 143.694 307.403 148.068 325.638 148.068Z" fill="url(#paint7_linear)"/>
<path fill-rule="evenodd" clip-rule="evenodd" d="M326.389 148.542V146.879L330.763 145.709L332.981 142.136L335.445 144.415L337.971 139.548L340.189 142.321L343.33 137.454V144.169C343.33 144.169 344.624 148.542 326.389 148.542Z" fill="url(#paint8_linear)"/>
<path fill-rule="evenodd" clip-rule="evenodd" d="M328.041 147.785C328.041 148.621 327.306 149.298 326.4 149.298C325.494 149.298 324.76 148.621 324.76 147.785C324.76 146.949 325.494 146.272 326.4 146.272C327.306 146.272 328.041 146.949 328.041 147.785Z" fill="url(#paint9_linear)"/>
<path fill-rule="evenodd" clip-rule="evenodd" d="M327.37 147.785C327.37 148.295 326.936 148.709 326.4 148.709C325.864 148.709 325.429 148.295 325.429 147.785C325.429 147.274 325.864 146.861 326.4 146.861C326.936 146.861 327.37 147.274 327.37 147.785Z" fill="white"/>
<path fill-rule="evenodd" clip-rule="evenodd" d="M302.375 224.825C302.375 211.867 312.88 201.362 325.838 201.362C338.796 201.362 349.3 211.867 349.3 224.825C349.3 237.783 338.796 248.288 325.838 248.288C312.88 248.288 302.375 237.783 302.375 224.825Z" fill="white" stroke="#FA5A28" stroke-dasharray="3 3"/>
<path fill-rule="evenodd" clip-rule="evenodd" d="M339.647 234.001L327.669 240.861C326.536 241.51 325.139 241.51 324.006 240.861L312.028 234.001C310.894 233.352 310.196 232.152 310.196 230.853V217.133C310.196 215.834 310.894 214.634 312.028 213.985L324.006 207.125C325.139 206.475 326.536 206.475 327.669 207.125L339.647 213.985C340.781 214.634 341.479 215.834 341.479 217.133V230.853C341.479 232.152 340.781 233.352 339.647 234.001ZM333.077 218.206C332.179 220.72 331.274 223.241 330.37 225.764H330.083C329.181 223.235 328.277 220.708 327.375 218.184H324.563C323.649 220.735 322.744 223.262 321.84 225.792H321.577C320.66 223.238 319.743 220.683 318.857 218.218H315.498C317.131 222.858 318.724 227.381 320.317 231.905H323.09L325.835 224.251H326.112C327.029 226.818 327.943 229.388 328.841 231.899H331.62C333.219 227.357 334.812 222.83 336.439 218.206H333.077Z" fill="#FA5A28"/>
<path fill-rule="evenodd" clip-rule="evenodd" d="M152.431 117.551C152.431 124.882 146.488 130.825 139.157 130.825C131.827 130.825 125.884 124.882 125.884 117.551C125.884 110.221 131.827 104.278 139.157 104.278C146.488 104.278 152.431 110.221 152.431 117.551Z" fill="white"/>
<path d="M152.431 117.551C152.431 124.882 146.488 130.825 139.157 130.825C131.827 130.825 125.884 124.882 125.884 117.551C125.884 110.221 131.827 104.278 139.157 104.278C146.488 104.278 152.431 110.221 152.431 117.551" stroke="#F03A42" stroke-width="2"/>
<path fill-rule="evenodd" clip-rule="evenodd" d="M139.633 143.244C139.069 143.244 138.612 142.948 138.612 142.584V130.535H140.654V142.584C140.654 142.948 140.197 143.244 139.633 143.244Z" fill="#F03A42"/>
<defs>
<linearGradient id="paint0_linear" x1="439.528" y1="131.841" x2="323.013" y2="354.831" gradientUnits="userSpaceOnUse">
<stop stop-color="#9033EA"/>
<stop offset="1" stop-color="#483EB7"/>
</linearGradient>
<linearGradient id="paint1_linear" x1="29.2647" y1="214.669" x2="256.984" y2="335.862" gradientUnits="userSpaceOnUse">
<stop stop-color="#9839C3"/>
<stop offset="1" stop-color="#F94F24"/>
</linearGradient>
<linearGradient id="paint2_linear" x1="334.916" y1="139.757" x2="330.609" y2="151.052" gradientUnits="userSpaceOnUse">
<stop stop-color="#9033EA"/>
<stop offset="1" stop-color="#483EB7"/>
</linearGradient>
<linearGradient id="paint3_linear" x1="352.074" y1="142.53" x2="341.916" y2="158.067" gradientUnits="userSpaceOnUse">
<stop stop-color="#9033EA"/>
<stop offset="1" stop-color="#483EB7"/>
</linearGradient>
<linearGradient id="paint4_linear" x1="351.277" y1="139.764" x2="346.969" y2="151.058" gradientUnits="userSpaceOnUse">
<stop stop-color="#483EB7"/>
<stop offset="1" stop-color="#9033EA"/>
</linearGradient>
<linearGradient id="paint5_linear" x1="328.375" y1="142.87" x2="324.721" y2="143.781" gradientUnits="userSpaceOnUse">
<stop stop-color="#483EB7"/>
<stop offset="1" stop-color="#9033EA"/>
</linearGradient>
<linearGradient id="paint6_linear" x1="334.362" y1="142.993" x2="324.204" y2="158.53" gradientUnits="userSpaceOnUse">
<stop stop-color="#483EB7"/>
<stop offset="1" stop-color="#9033EA"/>
</linearGradient>
<linearGradient id="paint7_linear" x1="334.119" y1="142.524" x2="323.961" y2="158.061" gradientUnits="userSpaceOnUse">
<stop stop-color="#9033EA"/>
<stop offset="1" stop-color="#483EB7"/>
</linearGradient>
<linearGradient id="paint8_linear" x1="351.831" y1="142.998" x2="341.673" y2="158.535" gradientUnits="userSpaceOnUse">
<stop stop-color="#9033EA"/>
<stop offset="1" stop-color="#483EB7"/>
</linearGradient>
<linearGradient id="paint9_linear" x1="329.681" y1="147.785" x2="326.664" y2="151.055" gradientUnits="userSpaceOnUse">
<stop stop-color="#9033EA"/>
<stop offset="1" stop-color="#483EB7"/>
</linearGradient>
</defs>
</svg>
