<svg width="326" height="220" viewBox="0 0 326 220" fill="none" xmlns="http://www.w3.org/2000/svg">
<g clip-path="url(#clip0)">
<path fill-rule="evenodd" clip-rule="evenodd" d="M50.41 70.2939C35.5335 62.1104 30.0926 43.2937 38.1959 28.0534C46.2993 12.8131 64.9416 6.8016 80.0449 14.5586C86.0795 17.7418 90.8658 22.8755 93.6498 29.1508L93.0961 29.4159C90.3657 23.2618 85.6725 18.2269 79.7551 15.1039C64.9477 7.5016 46.6728 13.396 38.7287 28.3366C30.7847 43.2773 36.1172 61.7239 50.6999 69.7486C54.9185 72.0044 59.6234 73.2039 64.4236 73.2476L64.4094 73.8695C59.5129 73.8187 54.7144 72.5931 50.41 70.2939Z" fill="#F94F24"/>
<path fill-rule="evenodd" clip-rule="evenodd" d="M250.241 133.547L250.114 132.924C276.511 126.957 296.504 104.669 300.211 77.0793C303.917 49.4893 290.551 22.4411 266.721 9.30631C242.89 -3.82853 213.643 -0.267712 193.438 18.2284L193.039 17.7677C213.436 -0.881224 242.945 -4.46067 266.986 8.79792C291.027 22.0565 304.51 49.3464 300.773 77.1838C297.036 105.021 276.871 127.513 250.241 133.547H250.241Z" fill="#F94F24"/>
<path fill-rule="evenodd" clip-rule="evenodd" d="M56.3002 102.686C56.3002 47.4571 101.072 2.68555 156.3 2.68555C211.529 2.68555 256.3 47.4571 256.3 102.686C256.3 157.914 211.529 202.686 156.3 202.686C101.072 202.686 56.3002 157.914 56.3002 102.686Z" fill="white" stroke="#FA5A28" stroke-dasharray="5 5"/>
<path fill-rule="evenodd" clip-rule="evenodd" d="M68.5716 36.9598C68.5716 42.2959 64.3655 46.6217 59.177 46.6217C53.9886 46.6217 49.7825 42.2959 49.7825 36.9598C49.7825 31.6236 53.9886 27.2979 59.177 27.2979C64.3655 27.2979 68.5716 31.6236 68.5716 36.9598Z" fill="#F2F2F2"/>
<path fill-rule="evenodd" clip-rule="evenodd" d="M24.6592 133.312V132.841C24.6592 130.659 25.4113 128.796 26.9155 127.253C28.4196 125.71 30.2354 124.938 32.3626 124.938H84.5967C86.7239 124.938 88.5397 125.71 90.0438 127.253C91.548 128.796 92.3001 130.659 92.3001 132.841V133.783C92.3001 135.966 91.548 137.828 90.0438 139.371C88.5397 140.914 86.7239 141.686 84.5967 141.686H32.3626C30.2354 141.686 28.4196 140.914 26.9155 139.371C25.4113 137.828 24.6592 135.966 24.6592 133.783V133.312Z" fill="#F2F2F2"/>
<path fill-rule="evenodd" clip-rule="evenodd" d="M308.3 207.014C308.298 213.772 302.969 219.249 296.398 219.247C289.826 219.246 284.5 213.766 284.5 207.008C284.501 200.25 289.828 194.771 296.4 194.771C299.557 194.77 302.584 196.06 304.816 198.357C307.048 200.653 308.301 203.767 308.3 207.014Z" fill="#F2F2F2"/>
<rect x="267.3" y="15.6855" width="58" height="26" fill="white"/>
<path d="M280.582 34.9015C279.838 34.9015 279.136 34.7755 278.476 34.5235C277.816 34.2595 277.234 33.8755 276.73 33.3715C276.238 32.8675 275.848 32.2435 275.56 31.4995C275.272 30.7435 275.128 29.8735 275.128 28.8895C275.128 27.9175 275.278 27.0535 275.578 26.2975C275.878 25.5295 276.28 24.8815 276.784 24.3535C277.288 23.8255 277.876 23.4235 278.548 23.1475C279.22 22.8715 279.928 22.7335 280.672 22.7335C281.428 22.7335 282.106 22.8895 282.706 23.2015C283.306 23.5015 283.804 23.8555 284.2 24.2635L282.796 25.9555C282.496 25.6795 282.178 25.4575 281.842 25.2895C281.518 25.1095 281.146 25.0195 280.726 25.0195C280.33 25.0195 279.952 25.1095 279.592 25.2895C279.244 25.4575 278.938 25.7035 278.674 26.0275C278.422 26.3515 278.218 26.7475 278.062 27.2155C277.918 27.6835 277.846 28.2115 277.846 28.7995C277.846 30.0115 278.104 30.9535 278.62 31.6255C279.136 32.2855 279.826 32.6155 280.69 32.6155C281.17 32.6155 281.596 32.5135 281.968 32.3095C282.352 32.0935 282.688 31.8295 282.976 31.5175L284.38 33.1735C283.396 34.3255 282.13 34.9015 280.582 34.9015ZM290.265 34.9015C289.473 34.9015 288.747 34.7635 288.087 34.4875C287.439 34.1995 286.881 33.7915 286.413 33.2635C285.945 32.7355 285.579 32.0935 285.315 31.3375C285.063 30.5815 284.937 29.7235 284.937 28.7635C284.937 27.8035 285.063 26.9515 285.315 26.2075C285.579 25.4515 285.945 24.8215 286.413 24.3175C286.881 23.8015 287.439 23.4115 288.087 23.1475C288.747 22.8715 289.473 22.7335 290.265 22.7335C291.057 22.7335 291.777 22.8715 292.425 23.1475C293.085 23.4115 293.649 23.8015 294.117 24.3175C294.585 24.8335 294.945 25.4695 295.197 26.2255C295.461 26.9695 295.593 27.8155 295.593 28.7635C295.593 29.7235 295.461 30.5815 295.197 31.3375C294.945 32.0935 294.585 32.7355 294.117 33.2635C293.649 33.7915 293.085 34.1995 292.425 34.4875C291.777 34.7635 291.057 34.9015 290.265 34.9015ZM290.265 32.6155C291.069 32.6155 291.705 32.2735 292.173 31.5895C292.641 30.8935 292.875 29.9515 292.875 28.7635C292.875 27.5875 292.641 26.6695 292.173 26.0095C291.705 25.3495 291.069 25.0195 290.265 25.0195C289.461 25.0195 288.825 25.3495 288.357 26.0095C287.889 26.6695 287.655 27.5875 287.655 28.7635C287.655 29.9515 287.889 30.8935 288.357 31.5895C288.825 32.2735 289.461 32.6155 290.265 32.6155ZM301.382 34.9015C300.614 34.9015 299.846 34.7635 299.078 34.4875C298.322 34.1995 297.644 33.7735 297.044 33.2095L298.556 31.3915C298.976 31.7515 299.438 32.0455 299.942 32.2735C300.458 32.5015 300.962 32.6155 301.454 32.6155C302.006 32.6155 302.414 32.5135 302.678 32.3095C302.954 32.1055 303.092 31.8295 303.092 31.4815C303.092 31.3015 303.05 31.1455 302.966 31.0135C302.894 30.8815 302.78 30.7675 302.624 30.6715C302.48 30.5635 302.3 30.4675 302.084 30.3835C301.88 30.2875 301.652 30.1855 301.4 30.0775L299.87 29.4295C299.57 29.3095 299.276 29.1535 298.988 28.9615C298.712 28.7695 298.46 28.5475 298.232 28.2955C298.016 28.0315 297.842 27.7315 297.71 27.3955C297.578 27.0475 297.512 26.6575 297.512 26.2255C297.512 25.7455 297.614 25.2955 297.818 24.8755C298.022 24.4435 298.31 24.0715 298.682 23.7595C299.054 23.4355 299.492 23.1835 299.996 23.0035C300.512 22.8235 301.076 22.7335 301.688 22.7335C302.372 22.7335 303.044 22.8655 303.704 23.1295C304.376 23.3935 304.964 23.7775 305.468 24.2815L304.118 25.9555C303.734 25.6555 303.35 25.4275 302.966 25.2715C302.582 25.1035 302.156 25.0195 301.688 25.0195C301.232 25.0195 300.866 25.1155 300.59 25.3075C300.326 25.4875 300.194 25.7455 300.194 26.0815C300.194 26.2615 300.236 26.4175 300.32 26.5495C300.416 26.6695 300.542 26.7835 300.698 26.8915C300.866 26.9875 301.058 27.0835 301.274 27.1795C301.49 27.2635 301.724 27.3595 301.976 27.4675L303.488 28.0795C304.208 28.3675 304.772 28.7635 305.18 29.2675C305.6 29.7715 305.81 30.4375 305.81 31.2655C305.81 31.7575 305.708 32.2255 305.504 32.6695C305.312 33.1015 305.024 33.4855 304.64 33.8215C304.268 34.1455 303.806 34.4095 303.254 34.6135C302.702 34.8055 302.078 34.9015 301.382 34.9015ZM309.736 34.6855V25.1815H306.514V22.9495H315.622V25.1815H312.4V34.6855H309.736Z" fill="#7B39D9"/>
</g>
<path fill-rule="evenodd" clip-rule="evenodd" d="M11.738 203.498L128.894 203.498V184.811H11.738V203.498Z" fill="#D1E5A6" stroke="#90AE6E" stroke-width="0.75"/>
<path fill-rule="evenodd" clip-rule="evenodd" d="M127.457 186.881H13.1759V186.162H127.457V186.881Z" fill="#90AE6E"/>
<path fill-rule="evenodd" clip-rule="evenodd" d="M127.457 186.881H13.1759V186.162H127.457V186.881Z" fill="#A3BC82"/>
<path fill-rule="evenodd" clip-rule="evenodd" d="M127.457 188.146H13.1759V187.427H127.457V188.146Z" fill="#90AE6E"/>
<path fill-rule="evenodd" clip-rule="evenodd" d="M127.457 188.146H13.1759V187.427H127.457V188.146Z" fill="#A3BC82"/>
<path fill-rule="evenodd" clip-rule="evenodd" d="M127.457 189.411H13.1759V188.692H127.457V189.411Z" fill="#90AE6E"/>
<path fill-rule="evenodd" clip-rule="evenodd" d="M127.457 189.411H13.1759V188.692H127.457V189.411Z" fill="#A3BC82"/>
<path fill-rule="evenodd" clip-rule="evenodd" d="M127.457 190.676H13.1759V189.957H127.457V190.676Z" fill="#90AE6E"/>
<path fill-rule="evenodd" clip-rule="evenodd" d="M127.457 190.676H13.1759V189.957H127.457V190.676Z" fill="#A3BC82"/>
<path fill-rule="evenodd" clip-rule="evenodd" d="M127.457 191.94H13.1759V191.222H127.457V191.94Z" fill="#90AE6E"/>
<path fill-rule="evenodd" clip-rule="evenodd" d="M127.457 191.94H13.1759V191.222H127.457V191.94Z" fill="#A3BC82"/>
<path fill-rule="evenodd" clip-rule="evenodd" d="M127.457 193.205H13.1759V192.486H127.457V193.205Z" fill="#90AE6E"/>
<path fill-rule="evenodd" clip-rule="evenodd" d="M127.457 193.205H13.1759V192.486H127.457V193.205Z" fill="#A3BC82"/>
<path fill-rule="evenodd" clip-rule="evenodd" d="M127.457 194.472H13.1759V193.753H127.457V194.472Z" fill="#90AE6E"/>
<path fill-rule="evenodd" clip-rule="evenodd" d="M127.457 194.472H13.1759V193.753H127.457V194.472Z" fill="#A3BC82"/>
<path fill-rule="evenodd" clip-rule="evenodd" d="M127.457 195.735H13.1759V195.017H127.457V195.735Z" fill="#90AE6E"/>
<path fill-rule="evenodd" clip-rule="evenodd" d="M127.457 195.735H13.1759V195.017H127.457V195.735Z" fill="#A3BC82"/>
<path fill-rule="evenodd" clip-rule="evenodd" d="M127.457 197H13.1759V196.282H127.457V197Z" fill="#90AE6E"/>
<path fill-rule="evenodd" clip-rule="evenodd" d="M127.457 197H13.1759V196.282H127.457V197Z" fill="#A3BC82"/>
<path fill-rule="evenodd" clip-rule="evenodd" d="M127.457 198.266H13.1759V197.547H127.457V198.266Z" fill="#90AE6E"/>
<path fill-rule="evenodd" clip-rule="evenodd" d="M127.457 198.266H13.1759V197.547H127.457V198.266Z" fill="#A3BC82"/>
<path fill-rule="evenodd" clip-rule="evenodd" d="M127.457 199.531H13.1759V198.812H127.457V199.531Z" fill="#90AE6E"/>
<path fill-rule="evenodd" clip-rule="evenodd" d="M127.457 199.531H13.1759V198.812H127.457V199.531Z" fill="#A3BC82"/>
<path fill-rule="evenodd" clip-rule="evenodd" d="M127.457 200.796H13.1759V200.077H127.457V200.796Z" fill="#90AE6E"/>
<path fill-rule="evenodd" clip-rule="evenodd" d="M127.457 200.796H13.1759V200.077H127.457V200.796Z" fill="#A3BC82"/>
<path fill-rule="evenodd" clip-rule="evenodd" d="M127.457 202.061H13.1759V201.342H127.457V202.061Z" fill="#90AE6E"/>
<path fill-rule="evenodd" clip-rule="evenodd" d="M127.457 202.061H13.1759V201.342H127.457V202.061Z" fill="#A3BC82"/>
<path fill-rule="evenodd" clip-rule="evenodd" d="M88.6444 203.498H51.2693L51.2693 184.092H88.6444V203.498Z" fill="#FAFBEB"/>
<path fill-rule="evenodd" clip-rule="evenodd" d="M53.7948 184.092H51.2691L51.2691 203.498H53.7948V184.092Z" fill="#EBE5CB"/>
<path fill-rule="evenodd" clip-rule="evenodd" d="M88.6444 184.092H86.1187V203.498H88.6444V184.092Z" fill="#EBE5CB"/>
<path fill-rule="evenodd" clip-rule="evenodd" d="M23.2377 184.092L140.394 184.092L140.394 165.404L23.2377 165.404L23.2377 184.092Z" fill="#D1E5A6" stroke="#90AE6E" stroke-width="0.75"/>
<path fill-rule="evenodd" clip-rule="evenodd" d="M138.957 167.475L24.6761 167.475V166.756L138.957 166.756V167.475Z" fill="#90AE6E"/>
<path fill-rule="evenodd" clip-rule="evenodd" d="M138.957 167.475L24.6761 167.475V166.756L138.957 166.756V167.475Z" fill="#A3BC82"/>
<path fill-rule="evenodd" clip-rule="evenodd" d="M138.957 168.739L24.6761 168.739V168.02L138.957 168.021V168.739Z" fill="#90AE6E"/>
<path fill-rule="evenodd" clip-rule="evenodd" d="M138.957 168.739L24.6761 168.739V168.02L138.957 168.021V168.739Z" fill="#A3BC82"/>
<path fill-rule="evenodd" clip-rule="evenodd" d="M138.957 170.004L24.6761 170.004V169.286L138.957 169.286V170.004Z" fill="#90AE6E"/>
<path fill-rule="evenodd" clip-rule="evenodd" d="M138.957 170.004L24.6761 170.004V169.286L138.957 169.286V170.004Z" fill="#A3BC82"/>
<path fill-rule="evenodd" clip-rule="evenodd" d="M138.957 171.27L24.6761 171.27V170.551L138.957 170.551V171.27Z" fill="#90AE6E"/>
<path fill-rule="evenodd" clip-rule="evenodd" d="M138.957 171.27L24.6761 171.27V170.551L138.957 170.551V171.27Z" fill="#A3BC82"/>
<path fill-rule="evenodd" clip-rule="evenodd" d="M138.957 172.534L24.6761 172.534V171.815L138.957 171.815V172.534Z" fill="#90AE6E"/>
<path fill-rule="evenodd" clip-rule="evenodd" d="M138.957 172.534L24.6761 172.534V171.815L138.957 171.815V172.534Z" fill="#A3BC82"/>
<path fill-rule="evenodd" clip-rule="evenodd" d="M138.957 173.799L24.6761 173.799V173.08L138.957 173.08V173.799Z" fill="#90AE6E"/>
<path fill-rule="evenodd" clip-rule="evenodd" d="M138.957 173.799L24.6761 173.799V173.08L138.957 173.08V173.799Z" fill="#A3BC82"/>
<path fill-rule="evenodd" clip-rule="evenodd" d="M138.957 175.065L24.6761 175.065V174.347L138.957 174.347V175.065Z" fill="#90AE6E"/>
<path fill-rule="evenodd" clip-rule="evenodd" d="M138.957 175.065L24.6761 175.065V174.347L138.957 174.347V175.065Z" fill="#A3BC82"/>
<path fill-rule="evenodd" clip-rule="evenodd" d="M138.957 176.33L24.6761 176.33V175.611L138.957 175.611V176.33Z" fill="#90AE6E"/>
<path fill-rule="evenodd" clip-rule="evenodd" d="M138.957 176.33L24.6761 176.33V175.611L138.957 175.611V176.33Z" fill="#A3BC82"/>
<path fill-rule="evenodd" clip-rule="evenodd" d="M138.957 177.595L24.6761 177.595V176.876L138.957 176.876V177.595Z" fill="#90AE6E"/>
<path fill-rule="evenodd" clip-rule="evenodd" d="M138.957 177.595L24.6761 177.595V176.876L138.957 176.876V177.595Z" fill="#A3BC82"/>
<path fill-rule="evenodd" clip-rule="evenodd" d="M138.957 178.859L24.6761 178.859V178.141L138.957 178.141L138.957 178.859Z" fill="#90AE6E"/>
<path fill-rule="evenodd" clip-rule="evenodd" d="M138.957 178.859L24.6761 178.859V178.141L138.957 178.141L138.957 178.859Z" fill="#A3BC82"/>
<path fill-rule="evenodd" clip-rule="evenodd" d="M138.957 180.124L24.6762 180.124V179.405L138.957 179.405V180.124Z" fill="#90AE6E"/>
<path fill-rule="evenodd" clip-rule="evenodd" d="M138.957 180.124L24.6762 180.124V179.405L138.957 179.405V180.124Z" fill="#A3BC82"/>
<path fill-rule="evenodd" clip-rule="evenodd" d="M138.957 181.39L24.6762 181.39V180.671L138.957 180.671V181.39Z" fill="#90AE6E"/>
<path fill-rule="evenodd" clip-rule="evenodd" d="M138.957 181.39L24.6762 181.39V180.671L138.957 180.671V181.39Z" fill="#A3BC82"/>
<path fill-rule="evenodd" clip-rule="evenodd" d="M138.957 182.654L24.6762 182.654V181.936L138.957 181.936V182.654Z" fill="#90AE6E"/>
<path fill-rule="evenodd" clip-rule="evenodd" d="M138.957 182.654L24.6762 182.654V181.936L138.957 181.936V182.654Z" fill="#A3BC82"/>
<path fill-rule="evenodd" clip-rule="evenodd" d="M100.144 184.092H62.7691V164.686H100.144V184.092Z" fill="#FAFBEB"/>
<path fill-rule="evenodd" clip-rule="evenodd" d="M65.2949 164.686H62.7692V184.092H65.2949V164.686Z" fill="#EBE5CB"/>
<path fill-rule="evenodd" clip-rule="evenodd" d="M100.144 164.686H97.6185V184.092H100.144V164.686Z" fill="#EBE5CB"/>
<path fill-rule="evenodd" clip-rule="evenodd" d="M62.0503 164.686L179.207 164.686V145.998L62.0503 145.998V164.686Z" fill="#D1E5A6" stroke="#90AE6E" stroke-width="0.75"/>
<path fill-rule="evenodd" clip-rule="evenodd" d="M177.77 148.068L63.4888 148.068V147.35L177.77 147.35V148.068Z" fill="#90AE6E"/>
<path fill-rule="evenodd" clip-rule="evenodd" d="M177.77 148.068L63.4888 148.068V147.35L177.77 147.35V148.068Z" fill="#A3BC82"/>
<path fill-rule="evenodd" clip-rule="evenodd" d="M177.77 149.333L63.4888 149.333V148.614L177.77 148.614V149.333Z" fill="#90AE6E"/>
<path fill-rule="evenodd" clip-rule="evenodd" d="M177.77 149.333L63.4888 149.333V148.614L177.77 148.614V149.333Z" fill="#A3BC82"/>
<path fill-rule="evenodd" clip-rule="evenodd" d="M177.77 150.599L63.4888 150.599V149.88L177.77 149.88V150.599Z" fill="#90AE6E"/>
<path fill-rule="evenodd" clip-rule="evenodd" d="M177.77 150.599L63.4888 150.599V149.88L177.77 149.88V150.599Z" fill="#A3BC82"/>
<path fill-rule="evenodd" clip-rule="evenodd" d="M177.77 151.863L63.4888 151.863V151.145L177.77 151.145V151.863Z" fill="#90AE6E"/>
<path fill-rule="evenodd" clip-rule="evenodd" d="M177.77 151.863L63.4888 151.863V151.145L177.77 151.145V151.863Z" fill="#A3BC82"/>
<path fill-rule="evenodd" clip-rule="evenodd" d="M177.77 153.128L63.4888 153.128L63.4888 152.409L177.77 152.409V153.128Z" fill="#90AE6E"/>
<path fill-rule="evenodd" clip-rule="evenodd" d="M177.77 153.128L63.4888 153.128L63.4888 152.409L177.77 152.409V153.128Z" fill="#A3BC82"/>
<path fill-rule="evenodd" clip-rule="evenodd" d="M177.77 154.393L63.4888 154.393V153.674L177.77 153.674V154.393Z" fill="#90AE6E"/>
<path fill-rule="evenodd" clip-rule="evenodd" d="M177.77 154.393L63.4888 154.393V153.674L177.77 153.674V154.393Z" fill="#A3BC82"/>
<path fill-rule="evenodd" clip-rule="evenodd" d="M177.77 155.659H63.4888V154.94H177.77V155.659Z" fill="#90AE6E"/>
<path fill-rule="evenodd" clip-rule="evenodd" d="M177.77 155.659H63.4888V154.94H177.77V155.659Z" fill="#A3BC82"/>
<path fill-rule="evenodd" clip-rule="evenodd" d="M177.77 156.923H63.4888V156.205H177.77V156.923Z" fill="#90AE6E"/>
<path fill-rule="evenodd" clip-rule="evenodd" d="M177.77 156.923H63.4888V156.205H177.77V156.923Z" fill="#A3BC82"/>
<path fill-rule="evenodd" clip-rule="evenodd" d="M177.77 158.188H63.4888V157.469H177.77V158.188Z" fill="#90AE6E"/>
<path fill-rule="evenodd" clip-rule="evenodd" d="M177.77 158.188H63.4888V157.469H177.77V158.188Z" fill="#A3BC82"/>
<path fill-rule="evenodd" clip-rule="evenodd" d="M177.77 159.453H63.4888V158.734H177.77V159.453Z" fill="#90AE6E"/>
<path fill-rule="evenodd" clip-rule="evenodd" d="M177.77 159.453H63.4888V158.734H177.77V159.453Z" fill="#A3BC82"/>
<path fill-rule="evenodd" clip-rule="evenodd" d="M177.77 160.718H63.4888V159.999H177.77V160.718Z" fill="#90AE6E"/>
<path fill-rule="evenodd" clip-rule="evenodd" d="M177.77 160.718H63.4888V159.999H177.77V160.718Z" fill="#A3BC82"/>
<path fill-rule="evenodd" clip-rule="evenodd" d="M177.77 161.983H63.4888V161.265H177.77V161.983Z" fill="#90AE6E"/>
<path fill-rule="evenodd" clip-rule="evenodd" d="M177.77 161.983H63.4888V161.265H177.77V161.983Z" fill="#A3BC82"/>
<path fill-rule="evenodd" clip-rule="evenodd" d="M177.77 163.248H63.4888V162.529H177.77V163.248Z" fill="#90AE6E"/>
<path fill-rule="evenodd" clip-rule="evenodd" d="M177.77 163.248H63.4888V162.529H177.77V163.248Z" fill="#A3BC82"/>
<path fill-rule="evenodd" clip-rule="evenodd" d="M138.957 164.686L101.582 164.686L101.582 145.279L138.957 145.279V164.686Z" fill="#FAFBEB"/>
<path fill-rule="evenodd" clip-rule="evenodd" d="M104.108 145.279H101.582L101.582 164.686H104.108L104.108 145.279Z" fill="#EBE5CB"/>
<path fill-rule="evenodd" clip-rule="evenodd" d="M138.957 145.279H136.431V164.686L138.957 164.686V145.279Z" fill="#EBE5CB"/>
<path fill-rule="evenodd" clip-rule="evenodd" d="M88.6443 145.998L205.801 145.998V127.311L88.6443 127.311V145.998Z" fill="#D1E5A6" stroke="#90AE6E" stroke-width="0.75"/>
<path fill-rule="evenodd" clip-rule="evenodd" d="M204.363 129.381L90.0826 129.381V128.662L204.363 128.662V129.381Z" fill="#90AE6E"/>
<path fill-rule="evenodd" clip-rule="evenodd" d="M204.363 129.381L90.0826 129.381V128.662L204.363 128.662V129.381Z" fill="#A3BC82"/>
<path fill-rule="evenodd" clip-rule="evenodd" d="M204.363 130.646L90.0826 130.646V129.927L204.363 129.927V130.646Z" fill="#90AE6E"/>
<path fill-rule="evenodd" clip-rule="evenodd" d="M204.363 130.646L90.0826 130.646V129.927L204.363 129.927V130.646Z" fill="#A3BC82"/>
<path fill-rule="evenodd" clip-rule="evenodd" d="M204.363 131.911L90.0826 131.911V131.192L204.363 131.192V131.911Z" fill="#90AE6E"/>
<path fill-rule="evenodd" clip-rule="evenodd" d="M204.363 131.911L90.0826 131.911V131.192L204.363 131.192V131.911Z" fill="#A3BC82"/>
<path fill-rule="evenodd" clip-rule="evenodd" d="M204.363 133.176L90.0826 133.176V132.457L204.363 132.457V133.176Z" fill="#90AE6E"/>
<path fill-rule="evenodd" clip-rule="evenodd" d="M204.363 133.176L90.0826 133.176V132.457L204.363 132.457V133.176Z" fill="#A3BC82"/>
<path fill-rule="evenodd" clip-rule="evenodd" d="M204.363 134.44L90.0826 134.44V133.722L204.363 133.722V134.44Z" fill="#90AE6E"/>
<path fill-rule="evenodd" clip-rule="evenodd" d="M204.363 134.44L90.0826 134.44V133.722L204.363 133.722V134.44Z" fill="#A3BC82"/>
<path fill-rule="evenodd" clip-rule="evenodd" d="M204.363 135.705L90.0826 135.705V134.986L204.363 134.986V135.705Z" fill="#90AE6E"/>
<path fill-rule="evenodd" clip-rule="evenodd" d="M204.363 135.705L90.0826 135.705V134.986L204.363 134.986V135.705Z" fill="#A3BC82"/>
<path fill-rule="evenodd" clip-rule="evenodd" d="M204.363 136.972L90.0826 136.972V136.253L204.363 136.253V136.972Z" fill="#90AE6E"/>
<path fill-rule="evenodd" clip-rule="evenodd" d="M204.363 136.972L90.0826 136.972V136.253L204.363 136.253V136.972Z" fill="#A3BC82"/>
<path fill-rule="evenodd" clip-rule="evenodd" d="M204.363 138.235L90.0826 138.235V137.517L204.363 137.517V138.235Z" fill="#90AE6E"/>
<path fill-rule="evenodd" clip-rule="evenodd" d="M204.363 138.235L90.0826 138.235V137.517L204.363 137.517V138.235Z" fill="#A3BC82"/>
<path fill-rule="evenodd" clip-rule="evenodd" d="M204.363 139.5L90.0826 139.5V138.781L204.363 138.781V139.5Z" fill="#90AE6E"/>
<path fill-rule="evenodd" clip-rule="evenodd" d="M204.363 139.5L90.0826 139.5V138.781L204.363 138.781V139.5Z" fill="#A3BC82"/>
<path fill-rule="evenodd" clip-rule="evenodd" d="M204.363 140.766L90.0826 140.766V140.047L204.363 140.047V140.766Z" fill="#90AE6E"/>
<path fill-rule="evenodd" clip-rule="evenodd" d="M204.363 140.766L90.0826 140.766V140.047L204.363 140.047V140.766Z" fill="#A3BC82"/>
<path fill-rule="evenodd" clip-rule="evenodd" d="M204.363 142.03L90.0826 142.03V141.312L204.363 141.312V142.03Z" fill="#90AE6E"/>
<path fill-rule="evenodd" clip-rule="evenodd" d="M204.363 142.03L90.0826 142.03V141.312L204.363 141.312V142.03Z" fill="#A3BC82"/>
<path fill-rule="evenodd" clip-rule="evenodd" d="M204.363 143.295L90.0826 143.295V142.577L204.363 142.577V143.295Z" fill="#90AE6E"/>
<path fill-rule="evenodd" clip-rule="evenodd" d="M204.363 143.295L90.0826 143.295V142.577L204.363 142.577V143.295Z" fill="#A3BC82"/>
<path fill-rule="evenodd" clip-rule="evenodd" d="M204.363 144.561L90.0826 144.561V143.842L204.363 143.842V144.561Z" fill="#90AE6E"/>
<path fill-rule="evenodd" clip-rule="evenodd" d="M204.363 144.561L90.0826 144.561V143.842L204.363 143.842V144.561Z" fill="#A3BC82"/>
<path fill-rule="evenodd" clip-rule="evenodd" d="M165.551 145.998L128.176 145.998V126.592L165.551 126.592V145.998Z" fill="#FAFBEB"/>
<path fill-rule="evenodd" clip-rule="evenodd" d="M130.701 126.592H128.176V145.998H130.701V126.592Z" fill="#EBE5CB"/>
<path fill-rule="evenodd" clip-rule="evenodd" d="M165.551 126.592L163.025 126.592V145.998L165.551 145.998V126.592Z" fill="#EBE5CB"/>
<path fill-rule="evenodd" clip-rule="evenodd" d="M140.394 184.092L257.551 184.092V165.404H140.394L140.394 184.092Z" fill="#D1E5A6" stroke="#90AE6E" stroke-width="0.75"/>
<path fill-rule="evenodd" clip-rule="evenodd" d="M256.113 167.475H141.833V166.756H256.113V167.475Z" fill="#90AE6E"/>
<path fill-rule="evenodd" clip-rule="evenodd" d="M256.113 167.475H141.833V166.756H256.113V167.475Z" fill="#A3BC82"/>
<path fill-rule="evenodd" clip-rule="evenodd" d="M256.113 168.739H141.833V168.021H256.113V168.739Z" fill="#90AE6E"/>
<path fill-rule="evenodd" clip-rule="evenodd" d="M256.113 168.739H141.833V168.021H256.113V168.739Z" fill="#A3BC82"/>
<path fill-rule="evenodd" clip-rule="evenodd" d="M256.113 170.004H141.833V169.286H256.113V170.004Z" fill="#90AE6E"/>
<path fill-rule="evenodd" clip-rule="evenodd" d="M256.113 170.004H141.833V169.286H256.113V170.004Z" fill="#A3BC82"/>
<path fill-rule="evenodd" clip-rule="evenodd" d="M256.113 171.27H141.833V170.551H256.113V171.27Z" fill="#90AE6E"/>
<path fill-rule="evenodd" clip-rule="evenodd" d="M256.113 171.27H141.833V170.551H256.113V171.27Z" fill="#A3BC82"/>
<path fill-rule="evenodd" clip-rule="evenodd" d="M256.113 172.534H141.833V171.815H256.113V172.534Z" fill="#90AE6E"/>
<path fill-rule="evenodd" clip-rule="evenodd" d="M256.113 172.534H141.833V171.815H256.113V172.534Z" fill="#A3BC82"/>
<path fill-rule="evenodd" clip-rule="evenodd" d="M256.113 173.799H141.833V173.08H256.113V173.799Z" fill="#90AE6E"/>
<path fill-rule="evenodd" clip-rule="evenodd" d="M256.113 173.799H141.833V173.08H256.113V173.799Z" fill="#A3BC82"/>
<path fill-rule="evenodd" clip-rule="evenodd" d="M256.113 175.065H141.833V174.347H256.113V175.065Z" fill="#90AE6E"/>
<path fill-rule="evenodd" clip-rule="evenodd" d="M256.113 175.065H141.833V174.347H256.113V175.065Z" fill="#A3BC82"/>
<path fill-rule="evenodd" clip-rule="evenodd" d="M256.113 176.33H141.833V175.611H256.113V176.33Z" fill="#90AE6E"/>
<path fill-rule="evenodd" clip-rule="evenodd" d="M256.113 176.33H141.833V175.611H256.113V176.33Z" fill="#A3BC82"/>
<path fill-rule="evenodd" clip-rule="evenodd" d="M256.113 177.595H141.833V176.876H256.113V177.595Z" fill="#90AE6E"/>
<path fill-rule="evenodd" clip-rule="evenodd" d="M256.113 177.595H141.833V176.876H256.113V177.595Z" fill="#A3BC82"/>
<path fill-rule="evenodd" clip-rule="evenodd" d="M256.113 178.859H141.833L141.833 178.141H256.113V178.859Z" fill="#90AE6E"/>
<path fill-rule="evenodd" clip-rule="evenodd" d="M256.113 178.859H141.833L141.833 178.141H256.113V178.859Z" fill="#A3BC82"/>
<path fill-rule="evenodd" clip-rule="evenodd" d="M256.113 180.124H141.833V179.405H256.113V180.124Z" fill="#90AE6E"/>
<path fill-rule="evenodd" clip-rule="evenodd" d="M256.113 180.124H141.833V179.405H256.113V180.124Z" fill="#A3BC82"/>
<path fill-rule="evenodd" clip-rule="evenodd" d="M256.113 181.39H141.833V180.671H256.113V181.39Z" fill="#90AE6E"/>
<path fill-rule="evenodd" clip-rule="evenodd" d="M256.113 181.39H141.833V180.671H256.113V181.39Z" fill="#A3BC82"/>
<path fill-rule="evenodd" clip-rule="evenodd" d="M256.113 182.654H141.833V181.936H256.113V182.654Z" fill="#90AE6E"/>
<path fill-rule="evenodd" clip-rule="evenodd" d="M256.113 182.654H141.833V181.936H256.113V182.654Z" fill="#A3BC82"/>
<path fill-rule="evenodd" clip-rule="evenodd" d="M217.301 184.092H179.926L179.926 164.686H217.301L217.301 184.092Z" fill="#FAFBEB"/>
<path fill-rule="evenodd" clip-rule="evenodd" d="M182.451 164.686H179.926L179.926 184.092H182.451L182.451 164.686Z" fill="#EBE5CB"/>
<path fill-rule="evenodd" clip-rule="evenodd" d="M217.301 164.686H214.775L214.775 184.092H217.301L217.301 164.686Z" fill="#EBE5CB"/>
<path fill-rule="evenodd" clip-rule="evenodd" d="M128.894 203.498L246.051 203.498V184.811L128.894 184.811V203.498Z" fill="#D1E5A6" stroke="#90AE6E" stroke-width="0.75"/>
<path fill-rule="evenodd" clip-rule="evenodd" d="M244.613 186.881L130.332 186.881V186.162L244.613 186.162V186.881Z" fill="#90AE6E"/>
<path fill-rule="evenodd" clip-rule="evenodd" d="M244.613 186.881L130.332 186.881V186.162L244.613 186.162V186.881Z" fill="#A3BC82"/>
<path fill-rule="evenodd" clip-rule="evenodd" d="M244.613 188.146L130.332 188.146V187.427L244.613 187.427V188.146Z" fill="#90AE6E"/>
<path fill-rule="evenodd" clip-rule="evenodd" d="M244.613 188.146L130.332 188.146V187.427L244.613 187.427V188.146Z" fill="#A3BC82"/>
<path fill-rule="evenodd" clip-rule="evenodd" d="M244.613 189.411L130.332 189.411V188.692L244.613 188.692V189.411Z" fill="#90AE6E"/>
<path fill-rule="evenodd" clip-rule="evenodd" d="M244.613 189.411L130.332 189.411V188.692L244.613 188.692V189.411Z" fill="#A3BC82"/>
<path fill-rule="evenodd" clip-rule="evenodd" d="M244.613 190.676L130.332 190.676V189.957L244.613 189.957V190.676Z" fill="#90AE6E"/>
<path fill-rule="evenodd" clip-rule="evenodd" d="M244.613 190.676L130.332 190.676V189.957L244.613 189.957V190.676Z" fill="#A3BC82"/>
<path fill-rule="evenodd" clip-rule="evenodd" d="M244.613 191.94L130.332 191.94V191.222L244.613 191.222V191.94Z" fill="#90AE6E"/>
<path fill-rule="evenodd" clip-rule="evenodd" d="M244.613 191.94L130.332 191.94V191.222L244.613 191.222V191.94Z" fill="#A3BC82"/>
<path fill-rule="evenodd" clip-rule="evenodd" d="M244.613 193.205L130.332 193.205V192.486L244.613 192.486V193.205Z" fill="#90AE6E"/>
<path fill-rule="evenodd" clip-rule="evenodd" d="M244.613 193.205L130.332 193.205V192.486L244.613 192.486V193.205Z" fill="#A3BC82"/>
<path fill-rule="evenodd" clip-rule="evenodd" d="M244.613 194.472L130.332 194.472V193.753L244.613 193.753V194.472Z" fill="#90AE6E"/>
<path fill-rule="evenodd" clip-rule="evenodd" d="M244.613 194.472L130.332 194.472V193.753L244.613 193.753V194.472Z" fill="#A3BC82"/>
<path fill-rule="evenodd" clip-rule="evenodd" d="M244.613 195.735L130.332 195.735V195.017L244.613 195.017V195.735Z" fill="#90AE6E"/>
<path fill-rule="evenodd" clip-rule="evenodd" d="M244.613 195.735L130.332 195.735V195.017L244.613 195.017V195.735Z" fill="#A3BC82"/>
<path fill-rule="evenodd" clip-rule="evenodd" d="M244.613 197L130.332 197V196.282L244.613 196.282V197Z" fill="#90AE6E"/>
<path fill-rule="evenodd" clip-rule="evenodd" d="M244.613 197L130.332 197V196.282L244.613 196.282V197Z" fill="#A3BC82"/>
<path fill-rule="evenodd" clip-rule="evenodd" d="M244.613 198.266L130.332 198.266V197.547L244.613 197.547V198.266Z" fill="#90AE6E"/>
<path fill-rule="evenodd" clip-rule="evenodd" d="M244.613 198.266L130.332 198.266V197.547L244.613 197.547V198.266Z" fill="#A3BC82"/>
<path fill-rule="evenodd" clip-rule="evenodd" d="M244.613 199.531L130.332 199.531V198.812L244.613 198.812V199.531Z" fill="#90AE6E"/>
<path fill-rule="evenodd" clip-rule="evenodd" d="M244.613 199.531L130.332 199.531V198.812L244.613 198.812V199.531Z" fill="#A3BC82"/>
<path fill-rule="evenodd" clip-rule="evenodd" d="M244.613 200.796L130.332 200.796V200.077L244.613 200.077V200.796Z" fill="#90AE6E"/>
<path fill-rule="evenodd" clip-rule="evenodd" d="M244.613 200.796L130.332 200.796V200.077L244.613 200.077V200.796Z" fill="#A3BC82"/>
<path fill-rule="evenodd" clip-rule="evenodd" d="M244.613 202.061L130.332 202.061V201.342L244.613 201.342V202.061Z" fill="#90AE6E"/>
<path fill-rule="evenodd" clip-rule="evenodd" d="M244.613 202.061L130.332 202.061V201.342L244.613 201.342V202.061Z" fill="#A3BC82"/>
<path fill-rule="evenodd" clip-rule="evenodd" d="M205.801 203.498H168.426V184.092H205.801V203.498Z" fill="#FAFBEB"/>
<path fill-rule="evenodd" clip-rule="evenodd" d="M170.951 184.092H168.426V203.498H170.951V184.092Z" fill="#EBE5CB"/>
<path fill-rule="evenodd" clip-rule="evenodd" d="M205.801 184.092H203.275V203.498H205.801V184.092Z" fill="#EBE5CB"/>
<path fill-rule="evenodd" clip-rule="evenodd" d="M322.957 41.0602H269.051L172.738 135.217L97.9878 107.185L13.8939 184.092L6.70639 175.467L0.95639 208.529L31.8627 202.779L24.6752 194.873L101.582 128.748L172.019 163.967L322.957 41.0602Z" fill="url(#paint0_linear)"/>
<path fill-rule="evenodd" clip-rule="evenodd" d="M315.051 153.904L205.801 153.904L205.801 205.654H315.051V153.904Z" fill="#9DBF73"/>
<path fill-rule="evenodd" clip-rule="evenodd" d="M310.738 196.071V163.487C310.738 160.18 308.057 157.498 304.749 157.498H215.384C212.076 157.498 209.394 160.18 209.394 163.487V196.071C209.394 199.379 212.076 202.061 215.384 202.061H304.749C308.057 202.061 310.738 199.379 310.738 196.071Z" fill="#D1E5A6"/>
<path fill-rule="evenodd" clip-rule="evenodd" d="M259.348 198.467C267.868 198.467 274.801 189.922 274.801 179.42C274.801 168.917 267.868 160.373 259.348 160.373C250.827 160.373 243.894 168.917 243.894 179.42C243.894 189.922 250.827 198.467 259.348 198.467Z" fill="#90AE6E"/>
<path fill-rule="evenodd" clip-rule="evenodd" d="M259.347 159.654C268.279 159.654 275.519 168.504 275.519 179.42C275.519 190.336 268.279 199.186 259.347 199.186C250.416 199.186 243.175 190.336 243.175 179.42C243.175 168.504 250.416 159.654 259.347 159.654ZM259.347 161.092C251.223 161.092 244.613 169.314 244.613 179.42C244.613 189.526 251.223 197.748 259.347 197.748C267.472 197.748 274.082 189.526 274.082 179.42C274.082 169.314 267.472 161.092 259.347 161.092Z" fill="#A3BC82"/>
<path fill-rule="evenodd" clip-rule="evenodd" d="M290.973 186.009C293.946 186.009 296.364 182.981 296.364 179.26C296.364 175.539 293.946 172.512 290.973 172.512C288 172.512 285.582 175.539 285.582 179.26C285.582 182.981 288 186.009 290.973 186.009Z" fill="#90AE6E"/>
<path fill-rule="evenodd" clip-rule="evenodd" d="M290.973 171.793C294.346 171.793 297.082 175.136 297.082 179.26C297.082 183.385 294.346 186.728 290.973 186.728C287.599 186.728 284.863 183.385 284.863 179.26C284.863 175.136 287.599 171.793 290.973 171.793ZM290.973 173.231C288.397 173.231 286.301 175.936 286.301 179.26C286.301 182.585 288.397 185.29 290.973 185.29C293.549 185.29 295.645 182.585 295.645 179.26C295.645 175.936 293.549 173.231 290.973 173.231Z" fill="#A3BC82"/>
<path fill-rule="evenodd" clip-rule="evenodd" d="M224.136 186.009C227.108 186.009 229.526 182.981 229.526 179.26C229.526 175.539 227.108 172.512 224.136 172.512C221.163 172.512 218.745 175.539 218.745 179.26C218.745 182.981 221.163 186.009 224.136 186.009Z" fill="#90AE6E"/>
<path fill-rule="evenodd" clip-rule="evenodd" d="M224.136 171.793C227.51 171.793 230.245 175.136 230.245 179.26C230.245 183.385 227.51 186.728 224.136 186.728C220.762 186.728 218.026 183.385 218.026 179.26C218.026 175.136 220.762 171.793 224.136 171.793ZM224.136 173.231C221.56 173.231 219.464 175.936 219.464 179.26C219.464 182.585 221.56 185.29 224.136 185.29C226.712 185.29 228.808 182.585 228.808 179.26C228.808 175.936 226.712 173.231 224.136 173.231Z" fill="#A3BC82"/>
<path fill-rule="evenodd" clip-rule="evenodd" d="M231.683 197.029H214.433V196.311H231.683V197.029Z" fill="#BACC9E"/>
<path fill-rule="evenodd" clip-rule="evenodd" d="M299.957 164.686H282.707V163.967H299.957V164.686Z" fill="#BACC9E"/>
<path fill-rule="evenodd" clip-rule="evenodd" d="M231.683 164.686H214.433V163.248H231.683V164.686Z" fill="#BACC9E"/>
<path fill-rule="evenodd" clip-rule="evenodd" d="M299.957 196.311H282.707V194.873H299.957V196.311Z" fill="#BACC9E"/>
<path fill-rule="evenodd" clip-rule="evenodd" d="M271.933 205.655H245.339V153.905H271.933V205.655Z" fill="#FEFFE8"/>
<path fill-rule="evenodd" clip-rule="evenodd" d="M248.933 153.905H245.339V205.655H248.933V153.905Z" fill="#EBE5CB"/>
<path fill-rule="evenodd" clip-rule="evenodd" d="M271.933 153.905H268.339V205.655H271.933V153.905Z" fill="#EBE5CB"/>
<path fill-rule="evenodd" clip-rule="evenodd" d="M162.683 205.655H214.433V96.4046H162.683V205.655Z" fill="#9DBF73"/>
<path fill-rule="evenodd" clip-rule="evenodd" d="M172.266 201.342H204.849C208.158 201.342 210.839 198.66 210.839 195.352V105.987C210.839 102.68 208.158 99.9979 204.849 99.9979H172.266C168.958 99.9979 166.277 102.68 166.277 105.987V195.352C166.277 198.66 168.958 201.342 172.266 201.342Z" fill="#D1E5A6"/>
<path fill-rule="evenodd" clip-rule="evenodd" d="M188.917 165.404C199.419 165.404 207.964 158.472 207.964 149.951C207.964 141.43 199.419 134.498 188.917 134.498C178.414 134.498 169.87 141.43 169.87 149.951C169.87 158.472 178.414 165.404 188.917 165.404Z" fill="#90AE6E"/>
<path fill-rule="evenodd" clip-rule="evenodd" d="M188.917 133.779C199.833 133.779 208.683 141.019 208.683 149.951C208.683 158.883 199.833 166.123 188.917 166.123C178.001 166.123 169.151 158.883 169.151 149.951C169.151 141.019 178.001 133.779 188.917 133.779ZM188.917 135.217C178.81 135.217 170.589 141.826 170.589 149.951C170.589 158.076 178.81 164.686 188.917 164.686C199.023 164.686 207.245 158.076 207.245 149.951C207.245 141.826 199.023 135.217 188.917 135.217Z" fill="#A3BC82"/>
<path fill-rule="evenodd" clip-rule="evenodd" d="M189.077 186.967C192.798 186.967 195.825 184.549 195.825 181.577C195.825 178.604 192.798 176.186 189.077 176.186C185.356 176.186 182.328 178.604 182.328 181.577C182.328 184.549 185.356 186.967 189.077 186.967Z" fill="#90AE6E"/>
<path fill-rule="evenodd" clip-rule="evenodd" d="M189.077 175.467C193.201 175.467 196.544 178.202 196.544 181.576C196.544 184.95 193.201 187.686 189.077 187.686C184.952 187.686 181.609 184.95 181.609 181.576C181.609 178.202 184.952 175.467 189.077 175.467ZM189.076 176.904C185.752 176.904 183.047 179 183.047 181.576C183.047 184.152 185.752 186.248 189.076 186.248C192.401 186.248 195.106 184.152 195.106 181.576C195.106 179 192.401 176.904 189.076 176.904Z" fill="#A3BC82"/>
<path fill-rule="evenodd" clip-rule="evenodd" d="M189.077 120.123C192.798 120.123 195.825 117.705 195.825 114.732C195.825 111.76 192.798 109.342 189.077 109.342C185.356 109.342 182.328 111.76 182.328 114.732C182.328 117.705 185.356 120.123 189.077 120.123Z" fill="#90AE6E"/>
<path fill-rule="evenodd" clip-rule="evenodd" d="M189.077 108.623C193.201 108.623 196.544 111.359 196.544 114.732C196.544 118.106 193.201 120.842 189.077 120.842C184.952 120.842 181.609 118.106 181.609 114.732C181.609 111.359 184.952 108.623 189.077 108.623ZM189.076 110.06C185.752 110.06 183.047 112.156 183.047 114.732C183.047 117.308 185.752 119.404 189.076 119.404C192.401 119.404 195.106 117.308 195.106 114.732C195.106 112.156 192.401 110.06 189.076 110.06Z" fill="#A3BC82"/>
<path fill-rule="evenodd" clip-rule="evenodd" d="M172.026 122.279H171.307V105.029H172.026V122.279Z" fill="#BACC9E"/>
<path fill-rule="evenodd" clip-rule="evenodd" d="M204.37 190.561H203.651V173.311H204.37V190.561Z" fill="#BACC9E"/>
<path fill-rule="evenodd" clip-rule="evenodd" d="M205.089 122.279H203.651V105.029H205.089V122.279Z" fill="#BACC9E"/>
<path fill-rule="evenodd" clip-rule="evenodd" d="M173.464 190.561H172.026V173.311H173.464V190.561Z" fill="#BACC9E"/>
<path fill-rule="evenodd" clip-rule="evenodd" d="M214.433 162.529H162.683V135.936H214.433V162.529Z" fill="#FEFFE8"/>
<path fill-rule="evenodd" clip-rule="evenodd" d="M162.683 139.529H214.433V135.936H162.683V139.529Z" fill="#EBE5CB"/>
<path fill-rule="evenodd" clip-rule="evenodd" d="M162.683 162.529H214.433V158.936H162.683V162.529Z" fill="#EBE5CB"/>
<path fill-rule="evenodd" clip-rule="evenodd" d="M104.209 216.525C104.399 216.525 104.553 216.371 104.553 216.181V209.502C104.553 209.313 104.399 209.158 104.209 209.158H78.1246C77.9342 209.158 77.7796 209.313 77.7796 209.502V216.181C77.7796 216.371 77.9342 216.525 78.1246 216.525H104.209Z" fill="#FFD618"/>
<path fill-rule="evenodd" clip-rule="evenodd" d="M78.1244 209.068H104.209C104.448 209.068 104.643 209.263 104.643 209.502V216.181C104.643 216.42 104.448 216.615 104.209 216.615H78.1244C77.885 216.615 77.6903 216.42 77.6903 216.181V209.502C77.6903 209.263 77.885 209.068 78.1244 209.068ZM78.1245 209.248C77.9836 209.248 77.8701 209.362 77.8701 209.503V216.181C77.8701 216.322 77.9836 216.436 78.1245 216.436H104.209C104.35 216.436 104.464 216.322 104.464 216.181V209.503C104.464 209.362 104.35 209.248 104.209 209.248H78.1245Z" fill="#E2A129"/>
<path fill-rule="evenodd" clip-rule="evenodd" d="M103.026 216.436H103.745V209.248H103.026V216.436Z" fill="#FAC20D"/>
<path fill-rule="evenodd" clip-rule="evenodd" d="M101.589 216.436H102.307V209.248H101.589V216.436Z" fill="#FAC20D"/>
<path fill-rule="evenodd" clip-rule="evenodd" d="M100.151 216.436H100.87V209.248H100.151V216.436Z" fill="#FAC20D"/>
<path fill-rule="evenodd" clip-rule="evenodd" d="M98.7137 216.436H99.4325V209.248H98.7137V216.436Z" fill="#FAC20D"/>
<path fill-rule="evenodd" clip-rule="evenodd" d="M97.276 216.436H97.9948V209.248H97.276V216.436Z" fill="#FAC20D"/>
<path fill-rule="evenodd" clip-rule="evenodd" d="M95.8386 216.436H96.5574V209.248H95.8386V216.436Z" fill="#FAC20D"/>
<path fill-rule="evenodd" clip-rule="evenodd" d="M94.4011 216.436H95.1199V209.248H94.4011V216.436Z" fill="#FAC20D"/>
<path fill-rule="evenodd" clip-rule="evenodd" d="M92.9636 216.436H93.6824V209.248H92.9636V216.436Z" fill="#FAC20D"/>
<path fill-rule="evenodd" clip-rule="evenodd" d="M91.5261 216.436H92.2449V209.248H91.5261V216.436Z" fill="#FAC20D"/>
<path fill-rule="evenodd" clip-rule="evenodd" d="M90.0886 216.436H90.8074V209.248H90.0886V216.436Z" fill="#FAC20D"/>
<path fill-rule="evenodd" clip-rule="evenodd" d="M88.6511 216.436H89.3699V209.248H88.6511V216.436Z" fill="#FAC20D"/>
<path fill-rule="evenodd" clip-rule="evenodd" d="M87.2137 216.436H87.9325V209.248H87.2137V216.436Z" fill="#FAC20D"/>
<path fill-rule="evenodd" clip-rule="evenodd" d="M85.7761 216.436H86.4949V209.248H85.7761V216.436Z" fill="#FAC20D"/>
<path fill-rule="evenodd" clip-rule="evenodd" d="M81.4637 216.436H82.1825V209.248H81.4637V216.436Z" fill="#FAC20D"/>
<path fill-rule="evenodd" clip-rule="evenodd" d="M80.026 216.436H80.7448V209.248H80.026V216.436Z" fill="#FAC20D"/>
<path fill-rule="evenodd" clip-rule="evenodd" d="M78.5886 216.436H79.3074V209.248H78.5886V216.436Z" fill="#FAC20D"/>
<path fill-rule="evenodd" clip-rule="evenodd" d="M132.959 216.525C133.15 216.525 133.303 216.371 133.303 216.181V209.502C133.303 209.313 133.15 209.158 132.959 209.158H106.875C106.684 209.158 106.53 209.313 106.53 209.502V216.181C106.53 216.371 106.684 216.525 106.875 216.525H132.959Z" fill="#FFD618"/>
<path fill-rule="evenodd" clip-rule="evenodd" d="M106.875 209.068H132.959C133.198 209.068 133.394 209.263 133.394 209.502V216.181C133.394 216.42 133.198 216.615 132.959 216.615H106.875C106.635 216.615 106.44 216.42 106.44 216.181V209.502C106.44 209.263 106.635 209.068 106.875 209.068ZM106.875 209.248C106.734 209.248 106.62 209.362 106.62 209.503V216.181C106.62 216.322 106.734 216.436 106.875 216.436H132.959C133.1 216.436 133.214 216.322 133.214 216.181V209.503C133.214 209.362 133.1 209.248 132.959 209.248H106.875Z" fill="#E2A129"/>
<path fill-rule="evenodd" clip-rule="evenodd" d="M131.776 216.436H132.495V209.248H131.776V216.436Z" fill="#FAC20D"/>
<path fill-rule="evenodd" clip-rule="evenodd" d="M130.339 216.436H131.057V209.248H130.339V216.436Z" fill="#FAC20D"/>
<path fill-rule="evenodd" clip-rule="evenodd" d="M128.901 216.436H129.62V209.248H128.901V216.436Z" fill="#FAC20D"/>
<path fill-rule="evenodd" clip-rule="evenodd" d="M127.464 216.436H128.182V209.248H127.464V216.436Z" fill="#FAC20D"/>
<path fill-rule="evenodd" clip-rule="evenodd" d="M126.026 216.436H126.745V209.248H126.026V216.436Z" fill="#FAC20D"/>
<path fill-rule="evenodd" clip-rule="evenodd" d="M124.589 216.436H125.307V209.248H124.589V216.436Z" fill="#FAC20D"/>
<path fill-rule="evenodd" clip-rule="evenodd" d="M123.151 216.436H123.87V209.248H123.151V216.436Z" fill="#FAC20D"/>
<path fill-rule="evenodd" clip-rule="evenodd" d="M121.714 216.436H122.432V209.248H121.714V216.436Z" fill="#FAC20D"/>
<path fill-rule="evenodd" clip-rule="evenodd" d="M120.276 216.436H120.995V209.248H120.276V216.436Z" fill="#FAC20D"/>
<path fill-rule="evenodd" clip-rule="evenodd" d="M118.839 216.436H119.557V209.248H118.839V216.436Z" fill="#FAC20D"/>
<path fill-rule="evenodd" clip-rule="evenodd" d="M117.401 216.436H118.12V209.248H117.401V216.436Z" fill="#FAC20D"/>
<path fill-rule="evenodd" clip-rule="evenodd" d="M115.964 216.436H116.682V209.248H115.964V216.436Z" fill="#FAC20D"/>
<path fill-rule="evenodd" clip-rule="evenodd" d="M114.526 216.436H115.245V209.248H114.526V216.436Z" fill="#FAC20D"/>
<path fill-rule="evenodd" clip-rule="evenodd" d="M110.214 216.436H110.932V209.248H110.214V216.436Z" fill="#FAC20D"/>
<path fill-rule="evenodd" clip-rule="evenodd" d="M108.776 216.436H109.495V209.248H108.776V216.436Z" fill="#FAC20D"/>
<path fill-rule="evenodd" clip-rule="evenodd" d="M107.339 216.436H108.057V209.248H107.339V216.436Z" fill="#FAC20D"/>
<path fill-rule="evenodd" clip-rule="evenodd" d="M73.3024 216.525C73.4929 216.525 73.6467 216.371 73.6467 216.181V209.502C73.6467 209.313 73.4929 209.158 73.3024 209.158H47.2182C47.0278 209.158 46.8732 209.313 46.8732 209.502V216.181C46.8732 216.371 47.0278 216.525 47.2182 216.525H73.3024Z" fill="#FFD618"/>
<path fill-rule="evenodd" clip-rule="evenodd" d="M47.2123 209.068H73.2965C73.5358 209.068 73.7313 209.263 73.7313 209.502V216.181C73.7313 216.42 73.5358 216.615 73.2965 216.615H47.2123C46.9729 216.615 46.7782 216.42 46.7782 216.181V209.502C46.7782 209.263 46.9729 209.068 47.2123 209.068ZM47.2128 209.248C47.0719 209.248 46.9583 209.362 46.9583 209.503V216.181C46.9583 216.322 47.0719 216.436 47.2128 216.436H73.297C73.4378 216.436 73.5521 216.322 73.5521 216.181V209.503C73.5521 209.362 73.4378 209.248 73.297 209.248H47.2128Z" fill="#E2A129"/>
<path fill-rule="evenodd" clip-rule="evenodd" d="M72.12 216.436H72.8387V209.248H72.12V216.436Z" fill="#FAC20D"/>
<path fill-rule="evenodd" clip-rule="evenodd" d="M70.6823 216.436H71.401V209.248H70.6823V216.436Z" fill="#FAC20D"/>
<path fill-rule="evenodd" clip-rule="evenodd" d="M69.2448 216.436H69.9635V209.248H69.2448V216.436Z" fill="#FAC20D"/>
<path fill-rule="evenodd" clip-rule="evenodd" d="M67.8073 216.436H68.526V209.248H67.8073V216.436Z" fill="#FAC20D"/>
<path fill-rule="evenodd" clip-rule="evenodd" d="M66.3699 216.436H67.0886V209.248H66.3699V216.436Z" fill="#FAC20D"/>
<path fill-rule="evenodd" clip-rule="evenodd" d="M64.9323 216.436H65.651V209.248H64.9323V216.436Z" fill="#FAC20D"/>
<path fill-rule="evenodd" clip-rule="evenodd" d="M63.4949 216.436H64.2136V209.248H63.4949V216.436Z" fill="#FAC20D"/>
<path fill-rule="evenodd" clip-rule="evenodd" d="M62.0573 216.436H62.776V209.248H62.0573V216.436Z" fill="#FAC20D"/>
<path fill-rule="evenodd" clip-rule="evenodd" d="M60.6198 216.436H61.3385V209.248H60.6198V216.436Z" fill="#FAC20D"/>
<path fill-rule="evenodd" clip-rule="evenodd" d="M59.1823 216.436H59.901V209.248H59.1823V216.436Z" fill="#FAC20D"/>
<path fill-rule="evenodd" clip-rule="evenodd" d="M57.7449 216.436H58.4636V209.248H57.7449V216.436Z" fill="#FAC20D"/>
<path fill-rule="evenodd" clip-rule="evenodd" d="M56.3071 216.436H57.0259V209.248H56.3071V216.436Z" fill="#FAC20D"/>
<path fill-rule="evenodd" clip-rule="evenodd" d="M54.8698 216.436H55.5885V209.248H54.8698V216.436Z" fill="#FAC20D"/>
<path fill-rule="evenodd" clip-rule="evenodd" d="M50.5573 216.436H51.276V209.248H50.5573V216.436Z" fill="#FAC20D"/>
<path fill-rule="evenodd" clip-rule="evenodd" d="M49.12 216.436H49.8387V209.248H49.12V216.436Z" fill="#FAC20D"/>
<path fill-rule="evenodd" clip-rule="evenodd" d="M47.6823 216.436H48.401V209.248H47.6823V216.436Z" fill="#FAC20D"/>
<path fill-rule="evenodd" clip-rule="evenodd" d="M81.9277 209.338C82.1182 209.338 82.272 209.183 82.272 208.994V202.315C82.272 202.125 82.1182 201.971 81.9277 201.971H55.8435C55.653 201.971 55.4985 202.125 55.4985 202.315V208.994C55.4985 209.183 55.653 209.338 55.8435 209.338H81.9277Z" fill="#FFD618"/>
<path fill-rule="evenodd" clip-rule="evenodd" d="M55.8434 201.881H81.9276C82.1669 201.881 82.3624 202.076 82.3624 202.315V208.994C82.3624 209.233 82.1669 209.428 81.9276 209.428H55.8434C55.604 209.428 55.4093 209.233 55.4093 208.994V202.315C55.4093 202.076 55.604 201.881 55.8434 201.881ZM55.8434 202.06C55.7025 202.06 55.5889 202.174 55.5889 202.315V208.993C55.5889 209.134 55.7025 209.248 55.8434 209.248H81.9276C82.0684 209.248 82.1827 209.134 82.1827 208.993V202.315C82.1827 202.174 82.0684 202.06 81.9276 202.06H55.8434Z" fill="#E2A129"/>
<path fill-rule="evenodd" clip-rule="evenodd" d="M80.7449 209.248H81.4636V202.061H80.7449V209.248Z" fill="#FAC20D"/>
<path fill-rule="evenodd" clip-rule="evenodd" d="M79.3075 209.248H80.0262V202.061H79.3075V209.248Z" fill="#FAC20D"/>
<path fill-rule="evenodd" clip-rule="evenodd" d="M77.8699 209.248H78.5886V202.061H77.8699V209.248Z" fill="#FAC20D"/>
<path fill-rule="evenodd" clip-rule="evenodd" d="M76.4325 209.248H77.1512V202.061H76.4325V209.248Z" fill="#FAC20D"/>
<path fill-rule="evenodd" clip-rule="evenodd" d="M74.9949 209.248H75.7136V202.061H74.9949V209.248Z" fill="#FAC20D"/>
<path fill-rule="evenodd" clip-rule="evenodd" d="M73.5573 209.248H74.276V202.061H73.5573V209.248Z" fill="#FAC20D"/>
<path fill-rule="evenodd" clip-rule="evenodd" d="M72.12 209.248H72.8387V202.061H72.12V209.248Z" fill="#FAC20D"/>
<path fill-rule="evenodd" clip-rule="evenodd" d="M70.6823 209.248H71.401V202.061H70.6823V209.248Z" fill="#FAC20D"/>
<path fill-rule="evenodd" clip-rule="evenodd" d="M69.2448 209.248H69.9635V202.061H69.2448V209.248Z" fill="#FAC20D"/>
<path fill-rule="evenodd" clip-rule="evenodd" d="M67.8073 209.248H68.526V202.061H67.8073V209.248Z" fill="#FAC20D"/>
<path fill-rule="evenodd" clip-rule="evenodd" d="M66.3699 209.248H67.0886V202.061H66.3699V209.248Z" fill="#FAC20D"/>
<path fill-rule="evenodd" clip-rule="evenodd" d="M64.9323 209.248H65.651V202.061H64.9323V209.248Z" fill="#FAC20D"/>
<path fill-rule="evenodd" clip-rule="evenodd" d="M63.4949 209.248H64.2136V202.061H63.4949V209.248Z" fill="#FAC20D"/>
<path fill-rule="evenodd" clip-rule="evenodd" d="M59.1823 209.248H59.901V202.061H59.1823V209.248Z" fill="#FAC20D"/>
<path fill-rule="evenodd" clip-rule="evenodd" d="M57.7449 209.248H58.4636V202.061H57.7449V209.248Z" fill="#FAC20D"/>
<path fill-rule="evenodd" clip-rule="evenodd" d="M56.3071 209.248H57.0259V202.061H56.3071V209.248Z" fill="#FAC20D"/>
<path fill-rule="evenodd" clip-rule="evenodd" d="M79.7714 202.15C79.9619 202.15 80.1157 201.996 80.1157 201.806V195.127C80.1157 194.938 79.9619 194.783 79.7714 194.783H53.6872C53.4968 194.783 53.3422 194.938 53.3422 195.127V201.806C53.3422 201.996 53.4968 202.15 53.6872 202.15H79.7714Z" fill="#FFD618"/>
<path fill-rule="evenodd" clip-rule="evenodd" d="M53.6871 194.693H79.7713C80.0107 194.693 80.2062 194.888 80.2062 195.127V201.806C80.2062 202.045 80.0107 202.24 79.7713 202.24H53.6871C53.4478 202.24 53.253 202.045 53.253 201.806V195.127C53.253 194.888 53.4478 194.693 53.6871 194.693ZM53.6871 194.873C53.5462 194.873 53.4327 194.986 53.4327 195.127V201.806C53.4327 201.947 53.5462 202.06 53.6871 202.06H79.7713C79.9122 202.06 80.0265 201.947 80.0265 201.806V195.127C80.0265 194.986 79.9122 194.873 79.7713 194.873H53.6871Z" fill="#E2A129"/>
<path fill-rule="evenodd" clip-rule="evenodd" d="M78.5886 202.061H79.3074V194.873H78.5886V202.061Z" fill="#FAC20D"/>
<path fill-rule="evenodd" clip-rule="evenodd" d="M77.1512 202.061H77.87V194.873H77.1512V202.061Z" fill="#FAC20D"/>
<path fill-rule="evenodd" clip-rule="evenodd" d="M75.7136 202.061H76.4324V194.873H75.7136V202.061Z" fill="#FAC20D"/>
<path fill-rule="evenodd" clip-rule="evenodd" d="M74.276 202.061H74.9948V194.873H74.276V202.061Z" fill="#FAC20D"/>
<path fill-rule="evenodd" clip-rule="evenodd" d="M72.8387 202.061H73.5575V194.873H72.8387V202.061Z" fill="#FAC20D"/>
<path fill-rule="evenodd" clip-rule="evenodd" d="M71.4011 202.061H72.1199V194.873H71.4011V202.061Z" fill="#FAC20D"/>
<path fill-rule="evenodd" clip-rule="evenodd" d="M69.9634 202.061H70.6821V194.873H69.9634V202.061Z" fill="#FAC20D"/>
<path fill-rule="evenodd" clip-rule="evenodd" d="M68.5261 202.061H69.2449V194.873H68.5261V202.061Z" fill="#FAC20D"/>
<path fill-rule="evenodd" clip-rule="evenodd" d="M67.0886 202.061H67.8074V194.873H67.0886V202.061Z" fill="#FAC20D"/>
<path fill-rule="evenodd" clip-rule="evenodd" d="M65.651 202.061H66.3698V194.873H65.651V202.061Z" fill="#FAC20D"/>
<path fill-rule="evenodd" clip-rule="evenodd" d="M64.2137 202.061H64.9325V194.873H64.2137V202.061Z" fill="#FAC20D"/>
<path fill-rule="evenodd" clip-rule="evenodd" d="M62.7761 202.061H63.4949V194.873H62.7761V202.061Z" fill="#FAC20D"/>
<path fill-rule="evenodd" clip-rule="evenodd" d="M61.3386 202.061H62.0574V194.873H61.3386V202.061Z" fill="#FAC20D"/>
<path fill-rule="evenodd" clip-rule="evenodd" d="M57.026 202.061H57.7448V194.873H57.026V202.061Z" fill="#FAC20D"/>
<path fill-rule="evenodd" clip-rule="evenodd" d="M55.5886 202.061H56.3074V194.873H55.5886V202.061Z" fill="#FAC20D"/>
<path fill-rule="evenodd" clip-rule="evenodd" d="M54.151 202.061H54.8698V194.873H54.151V202.061Z" fill="#FAC20D"/>
<path fill-rule="evenodd" clip-rule="evenodd" d="M78.3337 194.963C78.5242 194.963 78.678 194.808 78.678 194.619V187.94C78.678 187.75 78.5242 187.596 78.3337 187.596H52.2495C52.059 187.596 51.9045 187.75 51.9045 187.94V194.619C51.9045 194.808 52.059 194.963 52.2495 194.963H78.3337Z" fill="#FFD618"/>
<path fill-rule="evenodd" clip-rule="evenodd" d="M52.2494 187.506H78.3336C78.5729 187.506 78.7684 187.701 78.7684 187.94V194.619C78.7684 194.858 78.5729 195.053 78.3336 195.053H52.2494C52.0101 195.053 51.8153 194.858 51.8153 194.619V187.94C51.8153 187.701 52.0101 187.506 52.2494 187.506ZM52.2495 187.686C52.1087 187.686 51.9951 187.799 51.9951 187.94V194.619C51.9951 194.76 52.1087 194.873 52.2495 194.873H78.3337C78.4746 194.873 78.5889 194.76 78.5889 194.619V187.94C78.5889 187.799 78.4746 187.686 78.3337 187.686H52.2495Z" fill="#E2A129"/>
<path fill-rule="evenodd" clip-rule="evenodd" d="M77.1512 194.873H77.87V187.686H77.1512V194.873Z" fill="#FAC20D"/>
<path fill-rule="evenodd" clip-rule="evenodd" d="M75.7136 194.873H76.4324V187.686H75.7136V194.873Z" fill="#FAC20D"/>
<path fill-rule="evenodd" clip-rule="evenodd" d="M74.276 194.873H74.9948V187.686H74.276V194.873Z" fill="#FAC20D"/>
<path fill-rule="evenodd" clip-rule="evenodd" d="M72.8387 194.873H73.5575V187.686H72.8387V194.873Z" fill="#FAC20D"/>
<path fill-rule="evenodd" clip-rule="evenodd" d="M71.4011 194.873H72.1199V187.686H71.4011V194.873Z" fill="#FAC20D"/>
<path fill-rule="evenodd" clip-rule="evenodd" d="M69.9634 194.873H70.6821V187.686H69.9634V194.873Z" fill="#FAC20D"/>
<path fill-rule="evenodd" clip-rule="evenodd" d="M68.5261 194.873H69.2449V187.686H68.5261V194.873Z" fill="#FAC20D"/>
<path fill-rule="evenodd" clip-rule="evenodd" d="M67.0886 194.873H67.8074V187.686H67.0886V194.873Z" fill="#FAC20D"/>
<path fill-rule="evenodd" clip-rule="evenodd" d="M65.651 194.873H66.3698V187.686H65.651V194.873Z" fill="#FAC20D"/>
<path fill-rule="evenodd" clip-rule="evenodd" d="M64.2137 194.873H64.9325V187.686H64.2137V194.873Z" fill="#FAC20D"/>
<path fill-rule="evenodd" clip-rule="evenodd" d="M62.7761 194.873H63.4949V187.686H62.7761V194.873Z" fill="#FAC20D"/>
<path fill-rule="evenodd" clip-rule="evenodd" d="M61.3386 194.873H62.0574V187.686H61.3386V194.873Z" fill="#FAC20D"/>
<path fill-rule="evenodd" clip-rule="evenodd" d="M59.9011 194.873H60.6199V187.686H59.9011V194.873Z" fill="#FAC20D"/>
<path fill-rule="evenodd" clip-rule="evenodd" d="M55.5886 194.873H56.3074V187.686H55.5886V194.873Z" fill="#FAC20D"/>
<path fill-rule="evenodd" clip-rule="evenodd" d="M54.151 194.873H54.8698V187.686H54.151V194.873Z" fill="#FAC20D"/>
<path fill-rule="evenodd" clip-rule="evenodd" d="M52.7135 194.873H53.4323V187.686H52.7135V194.873Z" fill="#FAC20D"/>
<path fill-rule="evenodd" clip-rule="evenodd" d="M80.4899 187.775C80.6804 187.775 80.8342 187.621 80.8342 187.431V180.752C80.8342 180.563 80.6804 180.408 80.4899 180.408H54.4057C54.2153 180.408 54.0607 180.563 54.0607 180.752V187.431C54.0607 187.621 54.2153 187.775 54.4057 187.775H80.4899Z" fill="#FFD618"/>
<path fill-rule="evenodd" clip-rule="evenodd" d="M54.4058 180.318H80.49C80.7293 180.318 80.9248 180.513 80.9248 180.752V187.431C80.9248 187.67 80.7293 187.865 80.49 187.865H54.4058C54.1664 187.865 53.9716 187.67 53.9716 187.431V180.752C53.9716 180.513 54.1664 180.318 54.4058 180.318ZM54.4059 180.498C54.265 180.498 54.1515 180.611 54.1515 180.752V187.431C54.1515 187.572 54.265 187.685 54.4059 187.685H80.4901C80.631 187.685 80.7452 187.572 80.7452 187.431V180.752C80.7452 180.611 80.631 180.498 80.4901 180.498H54.4059Z" fill="#E2A129"/>
<path fill-rule="evenodd" clip-rule="evenodd" d="M79.3075 187.686H80.0262V180.498H79.3075V187.686Z" fill="#FAC20D"/>
<path fill-rule="evenodd" clip-rule="evenodd" d="M77.8699 187.686H78.5886V180.498H77.8699V187.686Z" fill="#FAC20D"/>
<path fill-rule="evenodd" clip-rule="evenodd" d="M76.4325 187.686H77.1512V180.498H76.4325V187.686Z" fill="#FAC20D"/>
<path fill-rule="evenodd" clip-rule="evenodd" d="M74.9949 187.686H75.7136V180.498H74.9949V187.686Z" fill="#FAC20D"/>
<path fill-rule="evenodd" clip-rule="evenodd" d="M73.5573 187.686H74.276V180.498H73.5573V187.686Z" fill="#FAC20D"/>
<path fill-rule="evenodd" clip-rule="evenodd" d="M72.12 187.686H72.8387V180.498H72.12V187.686Z" fill="#FAC20D"/>
<path fill-rule="evenodd" clip-rule="evenodd" d="M70.6823 187.686H71.401V180.498H70.6823V187.686Z" fill="#FAC20D"/>
<path fill-rule="evenodd" clip-rule="evenodd" d="M69.2448 187.686H69.9635V180.498H69.2448V187.686Z" fill="#FAC20D"/>
<path fill-rule="evenodd" clip-rule="evenodd" d="M67.8073 187.686H68.526V180.498H67.8073V187.686Z" fill="#FAC20D"/>
<path fill-rule="evenodd" clip-rule="evenodd" d="M66.3699 187.686H67.0886V180.498H66.3699V187.686Z" fill="#FAC20D"/>
<path fill-rule="evenodd" clip-rule="evenodd" d="M64.9323 187.686H65.651V180.498H64.9323V187.686Z" fill="#FAC20D"/>
<path fill-rule="evenodd" clip-rule="evenodd" d="M63.4949 187.686H64.2136V180.498H63.4949V187.686Z" fill="#FAC20D"/>
<path fill-rule="evenodd" clip-rule="evenodd" d="M62.0573 187.686H62.776V180.498H62.0573V187.686Z" fill="#FAC20D"/>
<path fill-rule="evenodd" clip-rule="evenodd" d="M57.7449 187.686H58.4636V180.498H57.7449V187.686Z" fill="#FAC20D"/>
<path fill-rule="evenodd" clip-rule="evenodd" d="M56.3071 187.686H57.0259V180.498H56.3071V187.686Z" fill="#FAC20D"/>
<path fill-rule="evenodd" clip-rule="evenodd" d="M54.8698 187.686H55.5885V180.498H54.8698V187.686Z" fill="#FAC20D"/>
<path fill-rule="evenodd" clip-rule="evenodd" d="M111.396 209.338C111.587 209.338 111.741 209.183 111.741 208.994V202.315C111.741 202.125 111.587 201.971 111.396 201.971H85.3121C85.1216 201.971 84.9671 202.125 84.9671 202.315V208.994C84.9671 209.183 85.1216 209.338 85.3121 209.338H111.396Z" fill="#FFD618"/>
<path fill-rule="evenodd" clip-rule="evenodd" d="M85.312 201.881H111.396C111.636 201.881 111.831 202.076 111.831 202.315V208.994C111.831 209.233 111.636 209.428 111.396 209.428H85.312C85.0726 209.428 84.8779 209.233 84.8779 208.994V202.315C84.8779 202.076 85.0726 201.881 85.312 201.881ZM85.312 202.06C85.1711 202.06 85.0575 202.174 85.0575 202.315V208.993C85.0575 209.134 85.1711 209.248 85.312 209.248H111.396C111.537 209.248 111.651 209.134 111.651 208.993V202.315C111.651 202.174 111.537 202.06 111.396 202.06H85.312Z" fill="#E2A129"/>
<path fill-rule="evenodd" clip-rule="evenodd" d="M110.214 209.248H110.932V202.061H110.214V209.248Z" fill="#FAC20D"/>
<path fill-rule="evenodd" clip-rule="evenodd" d="M108.776 209.248H109.495V202.061H108.776V209.248Z" fill="#FAC20D"/>
<path fill-rule="evenodd" clip-rule="evenodd" d="M107.339 209.248H108.057V202.061H107.339V209.248Z" fill="#FAC20D"/>
<path fill-rule="evenodd" clip-rule="evenodd" d="M105.901 209.248H106.62V202.061H105.901V209.248Z" fill="#FAC20D"/>
<path fill-rule="evenodd" clip-rule="evenodd" d="M104.464 209.248H105.182V202.061H104.464V209.248Z" fill="#FAC20D"/>
<path fill-rule="evenodd" clip-rule="evenodd" d="M103.026 209.248H103.745V202.061H103.026V209.248Z" fill="#FAC20D"/>
<path fill-rule="evenodd" clip-rule="evenodd" d="M101.589 209.248H102.307V202.061H101.589V209.248Z" fill="#FAC20D"/>
<path fill-rule="evenodd" clip-rule="evenodd" d="M100.151 209.248H100.87V202.061H100.151V209.248Z" fill="#FAC20D"/>
<path fill-rule="evenodd" clip-rule="evenodd" d="M98.7137 209.248H99.4325V202.061H98.7137V209.248Z" fill="#FAC20D"/>
<path fill-rule="evenodd" clip-rule="evenodd" d="M97.276 209.248H97.9948V202.061H97.276V209.248Z" fill="#FAC20D"/>
<path fill-rule="evenodd" clip-rule="evenodd" d="M95.8386 209.248H96.5574V202.061H95.8386V209.248Z" fill="#FAC20D"/>
<path fill-rule="evenodd" clip-rule="evenodd" d="M94.4011 209.248H95.1199V202.061H94.4011V209.248Z" fill="#FAC20D"/>
<path fill-rule="evenodd" clip-rule="evenodd" d="M92.9636 209.248H93.6824V202.061H92.9636V209.248Z" fill="#FAC20D"/>
<path fill-rule="evenodd" clip-rule="evenodd" d="M88.6511 209.248H89.3699V202.061H88.6511V209.248Z" fill="#FAC20D"/>
<path fill-rule="evenodd" clip-rule="evenodd" d="M87.2137 209.248H87.9325V202.061H87.2137V209.248Z" fill="#FAC20D"/>
<path fill-rule="evenodd" clip-rule="evenodd" d="M85.7761 209.248H86.4949V202.061H85.7761V209.248Z" fill="#FAC20D"/>
<path fill-rule="evenodd" clip-rule="evenodd" d="M114.271 202.15C114.462 202.15 114.615 201.996 114.615 201.806V195.127C114.615 194.938 114.462 194.783 114.271 194.783H88.1869C87.9964 194.783 87.8419 194.938 87.8419 195.127V201.806C87.8419 201.996 87.9964 202.15 88.1869 202.15H114.271Z" fill="#FFD618"/>
<path fill-rule="evenodd" clip-rule="evenodd" d="M88.187 194.693H114.271C114.511 194.693 114.706 194.888 114.706 195.127V201.806C114.706 202.045 114.511 202.24 114.271 202.24H88.187C87.9477 202.24 87.7529 202.045 87.7529 201.806V195.127C87.7529 194.888 87.9477 194.693 88.187 194.693ZM88.1871 194.873C88.0463 194.873 87.9327 194.986 87.9327 195.127V201.806C87.9327 201.947 88.0463 202.06 88.1871 202.06H114.271C114.412 202.06 114.526 201.947 114.526 201.806V195.127C114.526 194.986 114.412 194.873 114.271 194.873H88.1871Z" fill="#E2A129"/>
<path fill-rule="evenodd" clip-rule="evenodd" d="M113.089 202.061H113.807V194.873H113.089V202.061Z" fill="#FAC20D"/>
<path fill-rule="evenodd" clip-rule="evenodd" d="M111.651 202.061H112.37V194.873H111.651V202.061Z" fill="#FAC20D"/>
<path fill-rule="evenodd" clip-rule="evenodd" d="M110.214 202.061H110.932V194.873H110.214V202.061Z" fill="#FAC20D"/>
<path fill-rule="evenodd" clip-rule="evenodd" d="M108.776 202.061H109.495V194.873H108.776V202.061Z" fill="#FAC20D"/>
<path fill-rule="evenodd" clip-rule="evenodd" d="M107.339 202.061H108.057V194.873H107.339V202.061Z" fill="#FAC20D"/>
<path fill-rule="evenodd" clip-rule="evenodd" d="M105.901 202.061H106.62V194.873H105.901V202.061Z" fill="#FAC20D"/>
<path fill-rule="evenodd" clip-rule="evenodd" d="M104.464 202.061H105.182V194.873H104.464V202.061Z" fill="#FAC20D"/>
<path fill-rule="evenodd" clip-rule="evenodd" d="M103.026 202.061H103.745V194.873H103.026V202.061Z" fill="#FAC20D"/>
<path fill-rule="evenodd" clip-rule="evenodd" d="M101.589 202.061H102.307V194.873H101.589V202.061Z" fill="#FAC20D"/>
<path fill-rule="evenodd" clip-rule="evenodd" d="M100.151 202.061H100.87V194.873H100.151V202.061Z" fill="#FAC20D"/>
<path fill-rule="evenodd" clip-rule="evenodd" d="M98.7137 202.061H99.4325V194.873H98.7137V202.061Z" fill="#FAC20D"/>
<path fill-rule="evenodd" clip-rule="evenodd" d="M97.276 202.061H97.9948V194.873H97.276V202.061Z" fill="#FAC20D"/>
<path fill-rule="evenodd" clip-rule="evenodd" d="M95.8386 202.061H96.5574V194.873H95.8386V202.061Z" fill="#FAC20D"/>
<path fill-rule="evenodd" clip-rule="evenodd" d="M91.5261 202.061H92.2449V194.873H91.5261V202.061Z" fill="#FAC20D"/>
<path fill-rule="evenodd" clip-rule="evenodd" d="M90.0886 202.061H90.8074V194.873H90.0886V202.061Z" fill="#FAC20D"/>
<path fill-rule="evenodd" clip-rule="evenodd" d="M88.6511 202.061H89.3699V194.873H88.6511V202.061Z" fill="#FAC20D"/>
<path fill-rule="evenodd" clip-rule="evenodd" d="M94.7605 194.154C101.696 194.154 107.339 188.511 107.339 181.576C107.339 174.641 101.696 168.998 94.7605 168.998C87.8252 168.998 82.1823 174.641 82.1823 181.576C82.1823 188.511 87.8252 194.154 94.7605 194.154Z" fill="#FDC00D"/>
<path fill-rule="evenodd" clip-rule="evenodd" d="M94.7602 168.279C102.104 168.279 108.057 174.233 108.057 181.576C108.057 188.92 102.104 194.873 94.7602 194.873C87.4167 194.873 81.4633 188.92 81.4633 181.576C81.4633 174.233 87.4167 168.279 94.7602 168.279ZM94.7603 169.717C88.2211 169.717 82.9009 175.037 82.9009 181.576C82.9009 188.115 88.2211 193.436 94.7603 193.436C101.3 193.436 106.62 188.115 106.62 181.576C106.62 175.037 101.3 169.717 94.7603 169.717Z" fill="#FFD618"/>
<path fill-rule="evenodd" clip-rule="evenodd" d="M102.475 188.781L104.114 187.38L90.584 171.554L88.9452 172.954L102.475 188.781Z" fill="#FFD618"/>
<path fill-rule="evenodd" clip-rule="evenodd" d="M98.4231 192.038L101.346 189.539L87.718 173.598L84.7956 176.096L98.4231 192.038Z" fill="#FFD618"/>
<defs>
<linearGradient id="paint0_linear" x1="171.9" y1="-38.0002" x2="33.2493" y2="215.307" gradientUnits="userSpaceOnUse">
<stop stop-color="#9839C3"/>
<stop offset="1" stop-color="#F94F24"/>
</linearGradient>
<clipPath id="clip0">
<rect width="301.922" height="219.062" fill="white" transform="translate(23.3784 0.185547)"/>
</clipPath>
</defs>
</svg>
