<svg width="334" height="188" viewBox="0 0 334 188" fill="none" xmlns="http://www.w3.org/2000/svg">
<path fill-rule="evenodd" clip-rule="evenodd" d="M189.497 69.8172C189.497 53.6862 202.574 40.6094 218.705 40.6094C234.836 40.6094 247.913 53.6862 247.913 69.8172C247.913 85.9483 234.836 99.0251 218.705 99.0251C202.574 99.0251 189.497 85.9483 189.497 69.8172Z" fill="#F2F2F2"/>
<path fill-rule="evenodd" clip-rule="evenodd" d="M193.367 14.5091C193.367 21.6619 187.57 27.4618 180.418 27.4664C173.265 27.471 167.461 21.6786 167.452 14.5258C167.443 7.37293 173.231 1.56562 180.384 1.55178C183.825 1.54512 187.127 2.90732 189.563 5.33801C191.998 7.7687 193.367 11.0682 193.367 14.5091Z" fill="#F2F2F2"/>
<path fill-rule="evenodd" clip-rule="evenodd" d="M5.86389 165.014V163.902C5.86389 158.761 7.68143 154.373 11.3165 150.738C14.9516 147.103 19.3395 145.285 24.4803 145.285H150.735C155.876 145.285 160.264 147.103 163.899 150.738C167.534 154.373 169.352 158.761 169.352 163.902L169.352 165.014L169.352 166.127C169.352 171.268 167.534 175.656 163.899 179.291C160.264 182.926 155.876 184.744 150.735 184.744H24.4803C19.3395 184.744 14.9516 182.926 11.3165 179.291C7.68143 175.656 5.86389 171.268 5.86389 166.127V165.014Z" fill="#F2F2F2"/>
<path fill-rule="evenodd" clip-rule="evenodd" d="M141.738 120.413C141.392 116.017 140.991 111.631 140.605 107.24C140.444 105.421 139.798 104.844 137.953 104.799C134.71 104.714 131.462 104.589 128.214 104.528C127.111 104.528 126.444 104.193 126.069 103.025C125.624 101.582 124.988 100.204 124.179 98.9294C122.455 96.3179 120.585 93.8066 118.7 91.3154C118.224 90.8492 118.084 90.1375 118.349 89.5259C119.021 87.8267 119.622 86.1024 120.219 84.3781C120.891 82.4383 121.522 80.4834 122.169 78.5335C122.47 76.6488 120.69 75.922 118.605 74.7641C115.257 73.0348 111.938 71.2554 108.58 69.5962C107.076 68.8644 106.269 69.1852 105.352 70.5636C103.42 73.4776 101.502 76.3982 99.5976 79.3255C99.3591 79.8404 98.7752 80.098 98.2342 79.927C92.6794 78.8214 86.9461 78.9928 81.4673 80.4282C81.003 80.4839 80.538 80.3295 80.1992 80.0072C77.6579 77.2303 75.1566 74.4032 72.6804 71.5762C71.4424 70.1727 70.5752 70.0724 69.0113 71.1902C65.4374 73.6964 61.8735 76.2027 58.2695 78.6789C56.6605 79.7816 56.3397 80.7841 57.267 82.4783C58.881 85.4858 60.5101 88.4933 62.1542 91.5008C62.4825 91.9958 62.4131 92.6542 61.9888 93.0698C60.6053 94.9845 59.1266 96.8742 58.0489 98.9544C56.8617 101.421 55.8075 103.949 54.8911 106.528C54.7525 107.147 54.2414 107.612 53.6129 107.691C50.059 108.323 46.5001 109.035 42.9914 109.741C40.7959 110.172 40.435 110.614 40.5854 112.894C40.8761 117.25 41.232 121.596 41.5177 125.952C41.643 127.831 42.2596 128.488 44.1593 128.568C47.5728 128.704 50.9863 128.884 54.3948 128.974C55.2369 128.974 55.5477 129.34 55.8134 130.067C57.7611 135.298 60.8265 140.042 64.7958 143.967C65.0715 144.389 65.1485 144.911 65.0063 145.395C63.9186 148.959 62.7507 152.498 61.6178 156.042C61.1166 157.631 61.5577 158.613 63.0815 159.305C67.2419 161.185 71.3922 163.099 75.5827 164.899C76.2256 165.116 76.9331 165.017 77.4924 164.633C78.539 163.679 79.4648 162.6 80.2493 161.42C81.6678 159.26 82.9059 156.994 84.2894 154.809C84.5649 154.428 85.0026 154.198 85.4723 154.187C90.5941 154.932 95.8142 154.62 100.811 153.27C101.287 153.167 101.784 153.289 102.159 153.601C104.595 156.272 106.981 158.979 109.347 161.711C110.931 163.536 111.753 163.741 113.683 162.408C117.312 159.905 120.917 157.368 124.5 154.799C125.768 153.896 126.003 152.924 125.282 151.511C123.632 148.343 121.913 145.215 120.269 142.047C120.093 141.663 120.103 141.22 120.294 140.844C123.608 136.76 126.04 132.034 127.437 126.964C127.568 126.303 128.123 125.809 128.795 125.756C132.304 125.088 135.813 124.391 139.322 123.666C141.542 123.2 141.933 122.724 141.738 120.413ZM91.1665 139.496C78.8004 139.496 68.7757 129.471 68.7757 117.105C68.7757 104.739 78.8004 94.7141 91.1665 94.7141C103.533 94.7141 113.557 104.739 113.557 117.105C113.557 123.049 111.198 128.744 106.997 132.943C102.797 137.141 97.1004 139.498 91.1615 139.496H91.1665Z" fill="url(#paint0_linear)"/>
<path fill-rule="evenodd" clip-rule="evenodd" d="M37.3675 102.719C37.0329 102.725 36.7005 102.663 36.39 102.538C33.0617 101.105 29.7034 99.581 26.4603 98.1073L23.8788 96.9344C21.9791 96.0773 21.3375 94.6437 21.9641 92.6688L22.9666 89.6613C23.7686 87.155 24.6006 84.5936 25.3776 82.0523C25.4257 81.8407 25.4118 81.6196 25.3375 81.4157C21.2927 77.406 18.1664 72.5661 16.1746 67.2303C15.9841 66.7291 15.914 66.689 15.513 66.679C13.2273 66.6188 10.9115 66.5186 8.67091 66.4183C7.53307 66.3682 6.40025 66.3181 5.26241 66.278C2.94663 66.1777 1.98423 65.2253 1.82884 62.8845C1.67346 60.5437 1.50303 58.2429 1.32759 55.9221C1.17722 53.9171 1.02685 51.862 0.891505 49.8269C0.716069 47.1502 1.34764 46.3182 3.96417 45.8169L6.06942 45.4009C8.86639 44.8445 11.7586 44.2681 14.6157 43.7468C14.9716 43.6816 15.0618 43.6214 15.2674 43.1001L15.8689 41.5212C16.6026 39.446 17.4579 37.4158 18.4302 35.4411C19.4066 33.6627 20.5229 31.9648 21.7686 30.3634L22.4352 29.4461C22.7159 29.0651 22.6859 29.02 22.5455 28.7644C20.736 25.4762 18.9816 22.2481 17.6533 19.7419C16.5606 17.6968 16.9415 16.2331 18.9365 14.8697C22.3901 12.4988 25.8738 10.0527 29.2422 7.68683L29.6733 7.38608C31.583 6.02769 32.9164 6.17306 34.4402 7.88733C36.6808 10.4337 39.2973 13.4011 41.9589 16.3033C42.1027 16.4143 42.2785 16.4759 42.4602 16.4788C48.0407 15.0287 53.8767 14.8574 59.5327 15.9775C59.8084 16.0326 59.8485 16.0427 60.034 15.7469C61.7433 13.1154 63.5728 10.3284 65.7984 6.97005C66.9813 5.19061 68.2645 4.81467 70.0841 5.71692C72.4851 6.89486 74.8911 8.153 77.2169 9.36602C78.1893 9.87729 79.1634 10.3785 80.1391 10.8698L80.7908 11.2206C82.6153 12.2231 84.505 13.2256 84.1441 15.5013L84.1141 15.6316L83.4825 17.5464C83.0464 18.8597 82.6153 20.178 82.1592 21.4862C81.6178 23.0602 80.9762 24.8897 80.2795 26.6642C80.1492 27 80.1392 27.1654 80.5151 27.6667C82.2344 29.9323 84.2193 32.5839 86.0288 35.3258C86.8878 36.6625 87.5622 38.1092 88.0338 39.6265C88.2694 40.3633 88.5351 40.5488 89.4073 40.5688C91.4423 40.6039 93.5075 40.6691 95.5025 40.7292L99.1315 40.8646C101.422 40.9247 102.39 41.8169 102.59 44.0575L102.831 46.8244C103.136 50.238 103.447 53.7617 103.718 57.2404C103.933 59.9672 103.287 60.8143 100.59 61.3707C97.1967 62.0675 93.6579 62.7692 90.0639 63.4609C89.5877 63.5562 89.4674 63.6614 89.3471 64.0825C88.6309 66.6607 87.6551 69.1597 86.4348 71.5411L84.9612 70.7842C86.132 68.5025 87.0675 66.1075 87.7532 63.6363C87.9665 62.6687 88.7731 61.9448 89.7581 61.8369C93.3421 61.1452 96.8759 60.4434 100.284 59.7467C102.154 59.3607 102.239 59.2454 102.089 57.3657C101.818 53.9021 101.507 50.3783 101.207 46.9698L100.961 44.2029C100.841 42.8245 100.545 42.5588 99.1165 42.5187C97.8934 42.4886 96.6754 42.4485 95.4574 42.4134C93.4524 42.3483 91.4073 42.2881 89.3822 42.248C88.3246 42.248 87.0364 41.9723 86.4599 40.1528C86.039 38.7824 85.4372 37.4743 84.6705 36.2631C82.886 33.5664 80.9211 30.9398 79.2169 28.6892C78.5701 27.9895 78.3917 26.9763 78.7607 26.0978C79.4474 24.3584 80.079 22.5439 80.6204 20.985C81.0715 19.6818 81.5025 18.3735 81.9336 17.0652C82.1341 16.4537 82.3396 15.8372 82.5452 15.2206C82.6655 14.2482 81.9336 13.752 80.0389 12.7144L79.3973 12.3635L76.485 10.8598C74.1693 9.65175 71.7783 8.39862 69.3924 7.2257C68.3297 6.72445 67.9437 6.8247 67.2219 7.91241C64.9964 11.2658 63.1668 14.0477 61.4676 16.6642C61.0458 17.4674 60.1225 17.8697 59.2471 17.6316C53.814 16.5591 48.2086 16.7305 42.8512 18.1329C42.0889 18.2658 41.3098 18.0168 40.766 17.4662C38.0993 14.554 35.4728 11.5816 33.2472 9.02519C32.2898 7.93747 31.9089 7.90239 30.6858 8.76955L30.2498 9.07531C26.8763 11.4412 23.3927 13.8923 19.934 16.2682C18.6408 17.1504 18.4854 17.7118 19.1721 18.985C20.4954 21.4512 22.2448 24.6993 24.0493 27.9774C24.5302 28.7551 24.4425 29.7564 23.8337 30.4386L23.1069 31.3408C21.9171 32.8731 20.8479 34.4953 19.9089 36.1929C18.9625 38.1087 18.1257 40.0768 17.4027 42.0876C17.2022 42.6189 17.0017 43.1553 16.7962 43.6816C16.5582 44.5655 15.8249 45.2282 14.9215 45.3758C12.0844 45.8771 9.19722 46.4685 6.40025 47.0249L4.28998 47.441C2.4905 47.7969 2.42533 47.8821 2.54563 49.7267C2.68598 51.7584 2.83302 53.7868 2.98673 55.8119C3.15715 58.1376 3.32758 60.4584 3.48798 62.7842C3.58823 64.288 3.87896 64.5687 5.33258 64.6288L8.74609 64.7742C10.9817 64.8744 13.2924 64.9747 15.5581 65.0348C16.5788 64.9952 17.4872 65.6775 17.7335 66.6689C19.646 71.7859 22.6456 76.4273 26.5254 80.2728C27.0186 80.9122 27.1734 81.75 26.9415 82.5235C26.1595 85.0798 25.3274 87.6613 24.5204 90.1575C24.1996 91.16 23.8738 92.1625 23.548 93.165C23.1721 94.3479 23.4177 94.8993 24.5505 95.4156L27.1369 96.5885C30.37 98.0572 33.7184 99.596 37.0366 101.005C37.3823 101.092 37.7482 101.049 38.0642 100.884C39.0595 99.9791 39.9384 98.9537 40.6807 97.8316C41.4677 96.6337 42.2146 95.3805 42.9364 94.1625C43.5078 93.2001 44.1043 92.2026 44.7158 91.2352C45.1631 90.5737 45.9232 90.1937 46.7208 90.2327C48.8605 90.5174 51.0187 90.6397 53.1769 90.5986L53.217 92.2527C50.9734 92.2982 48.7297 92.1725 46.5052 91.8768C46.364 91.9312 46.2359 92.0149 46.1293 92.1224C45.5278 93.0698 44.9414 94.0572 44.3749 95.0096C43.6431 96.2427 42.8712 97.5159 42.0792 98.7389C41.2594 99.978 40.2896 101.111 39.192 102.112C38.6736 102.522 38.0279 102.736 37.3675 102.719Z" fill="#D3C3F1"/>
<path fill-rule="evenodd" clip-rule="evenodd" d="M118.364 54.2082C118.13 54.2144 117.898 54.17 117.683 54.0779C115.868 53.301 114.044 52.4689 112.274 51.6669L110.911 51.0504C110.365 50.8647 109.922 50.4607 109.686 49.935C109.45 49.4093 109.444 48.8092 109.668 48.2785L110.204 46.6193C110.64 45.2559 111.081 43.8925 111.497 42.5291V42.489C109.314 40.2961 107.624 37.6628 106.54 34.7647C106.541 34.7481 106.541 34.7313 106.54 34.7146C105.307 34.6846 104.074 34.6294 102.836 34.5743L101.001 34.4941C99.5625 34.4339 98.8758 33.7572 98.7806 32.3086C98.6953 31.0555 98.6051 29.8024 98.5149 28.5643C98.4314 27.4582 98.3512 26.3504 98.2743 25.241C98.169 23.6119 98.6452 22.9854 100.244 22.6696L101.352 22.449C102.856 22.1483 104.45 21.8325 106.009 21.5468L106.054 21.4365C106.164 21.1608 106.269 20.8751 106.374 20.5994C106.782 19.4614 107.252 18.3469 107.783 17.2611C108.334 16.2762 108.96 15.336 109.658 14.4491L110.009 13.9478C109.111 12.3138 108.249 10.7198 107.387 9.11579C106.7 7.83259 106.961 6.84012 108.199 5.98799C110.159 4.64464 112.114 3.27122 114.009 1.9429C114.42 1.61041 114.924 1.41419 115.452 1.3815C116.104 1.42489 116.702 1.75543 117.086 2.28375C118.59 3.97297 119.828 5.38649 121.096 6.79501C124.121 6.01574 127.282 5.91815 130.349 6.50929C131.352 4.93036 132.399 3.37147 133.432 1.81759C133.773 1.17742 134.422 0.760016 135.146 0.714844C135.528 0.726175 135.902 0.825678 136.239 1.00556C137.532 1.64215 138.83 2.31884 140.084 2.97548L141.683 3.80756L142.043 4.00304C143.046 4.54439 144.289 5.22108 144.048 6.71481L144.013 6.84513L143.688 7.84763C143.447 8.57946 143.186 9.30627 142.956 10.0331C142.645 10.9353 142.304 11.9027 141.953 12.8451V12.8902C141.986 12.9281 142.016 12.9683 142.043 13.0105C142.981 14.2436 144.048 15.6872 145.051 17.1759C145.53 17.9278 145.906 18.7403 146.169 19.5919C146.249 19.8325 146.249 19.8325 146.56 19.8425C147.668 19.8425 148.77 19.8927 149.878 19.9278L151.833 19.9829C153.256 20.023 153.948 20.6646 154.073 22.0631L154.199 23.5017C154.364 25.3964 154.535 27.2961 154.7 29.1959C154.825 30.855 154.344 31.4916 152.695 31.8324C150.85 32.2134 148.931 32.5893 146.996 32.9653H146.921C146.919 32.9803 146.919 32.9954 146.921 33.0104C146.149 35.7941 144.824 38.3939 143.026 40.6544C143.452 41.4665 143.883 42.2735 144.319 43.0855C144.755 43.8975 145.241 44.8098 145.693 45.682C145.994 46.1432 146.092 46.7079 145.964 47.2436C145.836 47.7793 145.493 48.2387 145.016 48.514C142.75 50.1331 140.886 51.4413 139.156 52.6393C138.708 52.9955 138.163 53.2086 137.592 53.2509C136.76 53.2509 136.184 52.6694 135.713 52.123C134.254 50.4438 133.046 49.0754 131.903 47.8223C129.132 48.583 126.234 48.7739 123.387 48.3837C123.076 48.885 122.775 49.3862 122.48 49.8875C122.084 50.5591 121.673 51.2509 121.227 51.9225C120.769 52.6214 120.223 53.2582 119.603 53.8173C119.247 54.0856 118.81 54.2236 118.364 54.2082ZM99.8984 24.4839C99.8853 24.7009 99.8853 24.9186 99.8984 25.1356C99.9719 26.2383 100.05 27.3411 100.134 28.4438C100.228 29.6903 100.318 30.9417 100.405 32.1982C100.445 32.8147 100.455 32.8147 101.041 32.8398L102.881 32.92C104.109 32.9701 105.337 33.0252 106.565 33.0553C107.266 33.0506 107.883 33.5173 108.069 34.1931C109.085 36.9093 110.677 39.3734 112.735 41.4162C113.103 41.8602 113.223 42.4586 113.056 43.0101C112.635 44.3886 112.194 45.757 111.748 47.1254L111.217 48.7795C111.071 49.2357 111.116 49.3359 111.563 49.5364L112.931 50.158C114.685 50.9549 116.5 51.782 118.294 52.5539H118.334C118.388 52.5612 118.442 52.5612 118.495 52.5539C118.994 52.0918 119.437 51.5719 119.813 51.0051C120.234 50.3685 120.635 49.6918 121.026 49.0352C121.342 48.5038 121.658 47.9675 121.994 47.4462C122.286 47.0114 122.768 46.7416 123.292 46.7194H123.442C126.103 47.1018 128.815 46.9311 131.407 46.2181C131.533 46.1854 131.663 46.1686 131.793 46.168C132.233 46.1617 132.657 46.3313 132.971 46.6392C134.139 47.9224 135.382 49.3209 136.876 51.0402C137.332 51.5715 137.477 51.5966 137.502 51.5966C137.527 51.5966 137.698 51.5966 138.124 51.2808C139.848 50.0878 141.703 48.7745 143.963 47.1705C144.319 46.9149 144.339 46.8447 144.134 46.4487C143.683 45.5866 143.226 44.7278 142.765 43.8723C142.314 43.0252 141.858 42.1781 141.417 41.3309C141.167 40.8324 141.207 40.2374 141.522 39.7771C143.242 37.6555 144.505 35.2015 145.231 32.5691C145.388 31.9097 145.934 31.4142 146.605 31.321C148.54 30.9501 150.45 30.5691 152.284 30.1932C152.521 30.169 152.751 30.0992 152.961 29.9877C152.991 29.7614 152.991 29.5322 152.961 29.306C152.81 27.4163 152.645 25.5215 152.459 23.6318L152.329 22.1932C152.294 21.7922 152.224 21.692 152.224 21.692C152.066 21.624 151.894 21.5948 151.723 21.6068L149.763 21.5516C148.665 21.5165 147.562 21.4814 146.465 21.4614C145.568 21.5157 144.757 20.931 144.525 20.0629C144.311 19.3554 144 18.6808 143.602 18.0579C142.65 16.6093 141.597 15.1958 140.67 13.9827C140.239 13.4994 140.122 12.812 140.369 12.2133C140.73 11.296 141.061 10.3487 141.372 9.46148C141.617 8.73967 141.873 8.02289 142.094 7.30109L142.394 6.38881C142.394 6.13819 142.174 5.95774 141.226 5.44647L140.876 5.25599L139.292 4.42893C138.044 3.7773 136.76 3.10563 135.482 2.47907C135.372 2.41309 135.249 2.37045 135.121 2.35375C135.086 2.35375 134.966 2.454 134.79 2.71967C133.748 4.28691 132.712 5.86251 131.683 7.44646C131.371 8.013 130.715 8.2958 130.089 8.13317C127.205 7.56633 124.229 7.66058 121.387 8.40885C120.838 8.5179 120.272 8.34037 119.883 7.93768C118.575 6.50912 117.307 5.08056 115.798 3.36628C115.517 3.04548 115.407 3.02543 115.407 3.02543C115.407 3.02543 115.267 3.02543 114.906 3.28608C113.006 4.61941 111.046 5.99784 109.086 7.34119C108.505 7.74219 108.53 7.84244 108.791 8.34369C109.703 9.97442 110.595 11.5951 111.467 13.2058C111.795 13.7573 111.736 14.4557 111.322 14.9451L110.966 15.4464C110.33 16.2644 109.758 17.1308 109.257 18.0379C108.752 19.0638 108.306 20.1182 107.923 21.1957C107.818 21.4814 107.713 21.7672 107.603 22.0479C107.42 22.6517 106.908 23.0977 106.284 23.1957C104.74 23.4764 103.172 23.7872 101.658 24.0879L100.545 24.3135C100.32 24.3358 100.101 24.3987 99.8984 24.499L99.8984 24.4839Z" fill="#D3C3F1"/>
<g style="mix-blend-mode:multiply">
<path fill-rule="evenodd" clip-rule="evenodd" d="M82.5903 123.571C82.2478 123.57 81.9197 123.433 81.678 123.19L76.9011 118.413C76.6571 118.171 76.5199 117.842 76.5199 117.498C76.5199 117.155 76.6571 116.825 76.9011 116.583L81.673 111.811C81.9961 111.462 82.4846 111.317 82.9458 111.435C83.4072 111.552 83.7674 111.912 83.8845 112.373C84.0017 112.834 83.857 113.323 83.5076 113.646L79.648 117.501L83.5076 121.355C83.8783 121.727 83.9891 122.284 83.7884 122.769C83.5877 123.254 83.1149 123.57 82.5903 123.571Z" fill="#CCCCCC"/>
<path fill-rule="evenodd" clip-rule="evenodd" d="M100.56 123.571C100.036 123.568 99.5654 123.251 99.366 122.767C99.1666 122.282 99.2777 121.726 99.6478 121.355L103.502 117.5L99.6428 113.646C99.1362 113.141 99.135 112.32 99.6403 111.814C100.145 111.307 100.966 111.306 101.472 111.811L106.249 116.588C106.493 116.83 106.63 117.159 106.63 117.503C106.63 117.847 106.493 118.176 106.249 118.418L101.477 123.19C101.234 123.433 100.904 123.57 100.56 123.571H100.56Z" fill="#CCCCCC"/>
<path fill-rule="evenodd" clip-rule="evenodd" d="M94.0188 123.571C93.5407 123.569 93.1021 123.305 92.8759 122.884L87.7632 113.36C87.5445 112.953 87.5599 112.46 87.8035 112.067C88.0471 111.674 88.4818 111.441 88.944 111.455C89.4061 111.47 89.8254 111.73 90.0438 112.137L95.1616 121.661C95.4982 122.292 95.2605 123.077 94.6303 123.415C94.4427 123.518 94.2324 123.571 94.0188 123.571H94.0188Z" fill="#CCCCCC"/>
</g>
<path fill-rule="evenodd" clip-rule="evenodd" d="M81.7732 122.759C81.4312 122.76 81.103 122.624 80.8609 122.383L76.074 117.606C75.829 117.364 75.6917 117.033 75.693 116.689C75.6947 116.346 75.8316 116.019 76.074 115.777L80.8459 111.005C81.1726 110.678 81.649 110.55 82.0956 110.67C82.5421 110.789 82.8909 111.138 83.0105 111.584C83.1302 112.031 83.0024 112.507 82.6755 112.834L78.8208 116.689L82.6804 120.549C83.0527 120.918 83.1645 121.477 82.9633 121.961C82.7621 122.446 82.288 122.761 81.7631 122.759L81.7732 122.759Z" fill="url(#paint1_linear)"/>
<path fill-rule="evenodd" clip-rule="evenodd" d="M99.7331 122.759C99.2092 122.759 98.7368 122.443 98.537 121.959C98.3371 121.475 98.4492 120.918 98.8208 120.548L102.675 116.694L98.8158 112.834C98.3108 112.329 98.3109 111.51 98.8161 111.005C99.3213 110.5 100.14 110.5 100.645 111.005L105.422 115.777C105.664 116.021 105.801 116.35 105.803 116.694C105.802 117.038 105.665 117.368 105.422 117.611L100.635 122.383C100.394 122.62 100.071 122.755 99.7331 122.759Z" fill="url(#paint2_linear)"/>
<path fill-rule="evenodd" clip-rule="evenodd" d="M93.1917 122.759C92.7144 122.759 92.2756 122.498 92.0489 122.078L86.9311 112.554C86.6805 112.143 86.6778 111.627 86.924 111.214C87.1702 110.8 87.6251 110.557 88.1057 110.581C88.5864 110.606 89.014 110.894 89.2168 111.331L94.3346 120.855C94.6711 121.486 94.4335 122.27 93.8033 122.609C93.6142 122.707 93.4046 122.758 93.1917 122.759Z" fill="url(#paint3_linear)"/>
<path fill-rule="evenodd" clip-rule="evenodd" d="M312.103 92.9947H215.697C208.287 78.3595 193.596 68.824 177.212 68.0156C160.828 67.2073 145.269 75.2502 136.455 89.0849C135.512 90.5887 136.023 93.6814 138.76 93.6814H161.943C172.621 93.6841 181.276 102.341 181.276 113.02V114.238C181.276 124.915 172.621 133.571 161.943 133.571H139.191C136.314 133.571 135.527 136.724 136.48 138.217C145.309 152.023 160.859 160.038 177.226 159.221C193.593 158.404 208.267 148.879 215.677 134.263H312.103C319.551 134.379 326.484 130.471 330.242 124.04C334 117.608 334 109.65 330.242 103.218C326.484 96.7859 319.551 92.8786 312.103 92.9947L312.103 92.9947ZM312.659 119.862C309.215 119.862 306.423 117.07 306.423 113.626C306.423 110.182 309.215 107.391 312.659 107.391C316.103 107.391 318.895 110.182 318.895 113.626C318.886 117.062 316.1 119.844 312.664 119.847L312.659 119.862Z" fill="url(#paint4_linear)"/>
<g style="mix-blend-mode:multiply">
<path fill-rule="evenodd" clip-rule="evenodd" d="M309.862 129.762H221.848V126.644H309.862C317.06 126.644 322.894 120.809 322.894 113.612C322.894 106.414 317.06 100.579 309.862 100.579H221.848V97.4615H309.862C315.699 97.3586 321.137 100.414 324.086 105.452C327.034 110.491 327.034 116.728 324.086 121.766C321.137 126.805 315.699 129.86 309.862 129.757V129.762Z" fill="url(#paint5_linear)"/>
</g>
<path fill-rule="evenodd" clip-rule="evenodd" d="M252.238 107.782H250.399L248.895 112.143L248.594 113.005L246.77 107.782H244.845L243.025 113.005L242.72 112.143L241.216 107.782H238.885L239.051 108.283L239.637 109.957L241.056 114.042L242.058 117.01H243.993L245.812 111.797L247.627 117.01H249.542L250.559 114.047L251.983 109.962L252.564 108.288L252.735 107.787L252.238 107.782ZM260.003 114.117L259.722 114.268C259.306 114.484 258.878 114.674 258.439 114.839C258.003 114.997 257.544 115.078 257.08 115.08C256.578 115.107 256.08 114.976 255.657 114.704C255.377 114.48 255.173 114.175 255.07 113.832H256.283C257.267 113.864 258.244 113.663 259.136 113.245C260.098 112.785 260.703 111.805 260.684 110.739C260.706 109.798 260.235 108.914 259.441 108.408C258.712 107.925 257.855 107.671 256.98 107.681C255.743 107.664 254.563 108.203 253.767 109.15C252.967 110.139 252.557 111.388 252.614 112.659C252.551 113.854 252.958 115.027 253.747 115.927C254.584 116.799 255.757 117.269 256.965 117.215C258.337 117.194 259.675 116.786 260.825 116.037L261.131 115.842L260.003 114.117ZM256.153 109.902C256.386 109.777 256.646 109.714 256.91 109.716C257.114 109.715 257.317 109.735 257.517 109.777C257.695 109.807 257.866 109.873 258.018 109.972C258.133 110.041 258.23 110.137 258.299 110.253C258.384 110.393 258.426 110.555 258.419 110.719C258.444 110.9 258.389 111.083 258.268 111.22C258.098 111.382 257.899 111.511 257.682 111.601C257.232 111.733 256.761 111.782 256.294 111.746L254.945 111.746C255.036 111.281 255.237 110.845 255.532 110.473C255.707 110.251 255.917 110.058 256.153 109.902V109.902ZM269.396 108.95C268.126 107.501 266.039 107.089 264.314 107.947V103.967H262.073V116.689L262.324 116.764C263.369 117.032 264.443 117.169 265.522 117.17C267.151 117.17 268.404 116.699 269.251 115.767C270.077 114.787 270.516 113.539 270.484 112.258C270.501 111.065 270.118 109.9 269.396 108.95V108.95ZM266.89 114.855C266.522 115.008 266.125 115.079 265.727 115.06C265.361 115.06 264.86 115.025 264.329 114.975V111.04C264.345 110.738 264.476 110.453 264.695 110.243C265.076 109.816 265.626 109.578 266.198 109.591C266.816 109.575 267.393 109.898 267.702 110.434C268.05 111.005 268.224 111.665 268.203 112.333C268.244 113.027 268.032 113.713 267.607 114.263C267.412 114.516 267.159 114.719 266.87 114.855H266.89ZM271.536 107.797H273.777V117H271.536V107.797ZM284.093 117.005V110.619C284.101 110.143 284.007 109.672 283.817 109.235C283.316 108.233 282.198 107.662 280.659 107.662C279.649 107.617 278.661 107.966 277.902 108.634C277.639 108.266 277.311 107.948 276.935 107.697L276.704 107.531L275.241 108.865L275.522 109.125C275.75 109.329 275.936 109.576 276.068 109.852C276.176 110.147 276.229 110.46 276.223 110.774V117.01H278.464V110.945C278.712 110.618 279.011 110.333 279.351 110.103C279.712 109.858 280.138 109.728 280.574 109.732C280.936 109.71 281.293 109.822 281.577 110.048C281.717 110.173 281.857 110.393 281.857 111.05V117.005H284.093ZM287.401 116.779C288.664 115.867 289.978 116.248 291.296 116.278H291.542C292.265 116.275 292.988 116.232 293.707 116.148L293.707 107.797H291.471V113.466C291.471 113.466 291.115 114.9 289.772 114.92C289.772 114.92 288.268 115.035 288.078 113.762V107.807H285.842V114.188C285.833 114.655 285.92 115.119 286.098 115.551C286.373 116.102 286.835 116.538 287.401 116.779V116.779ZM296.789 111.601C295.929 111.079 294.895 110.92 293.917 111.16V113.702C293.944 113.655 293.976 113.611 294.013 113.571C294.063 113.522 294.119 113.479 294.178 113.441C294.641 113.21 295.19 113.232 295.632 113.501C296.026 113.738 296.242 114.188 296.178 114.644C296.158 115.023 295.975 115.376 295.677 115.611C295.146 116.002 294.525 116.252 293.872 116.338H293.837H293.767C293.027 116.409 292.284 116.442 291.541 116.438H291.04C290.594 116.413 290.183 116.383 289.832 116.353H289.476H289.165L288.895 116.378H288.81C288.357 116.458 287.926 116.628 287.541 116.88L287.506 116.905C287.133 117.147 286.818 117.468 286.584 117.847C285.9 119.01 285.9 120.453 286.584 121.616C287.231 122.735 288.464 123.383 289.752 123.28C290.717 123.236 291.622 122.8 292.258 122.072C292.845 121.365 293.252 120.526 293.441 119.626C293.511 119.341 293.566 119.055 293.607 118.784L291.341 118.734C291.291 118.975 291.231 119.235 291.16 119.451C291.051 119.854 290.864 120.233 290.609 120.564C290.361 120.847 290.007 121.014 289.632 121.025C289.174 121.081 288.729 120.856 288.504 120.453C288.238 120.01 288.225 119.46 288.469 119.005C288.505 118.944 288.549 118.889 288.599 118.839C288.899 118.61 289.277 118.509 289.652 118.559C290.083 118.559 290.499 118.559 290.91 118.559C291.07 118.559 291.226 118.559 291.381 118.559L293.677 118.609C294.926 118.509 296.122 118.057 297.125 117.306C297.87 116.677 298.324 115.772 298.383 114.799C298.512 113.512 297.887 112.265 296.779 111.596" fill="white"/>
<path fill-rule="evenodd" clip-rule="evenodd" d="M175.617 178.438C161.766 178.482 148.297 173.895 137.352 165.406L137.693 164.97C148.541 173.381 161.89 177.924 175.617 177.877C209.451 177.197 236.524 149.575 236.524 115.734C236.524 81.8936 209.451 54.2715 175.617 53.5919C158.505 53.5236 142.136 60.5787 130.435 73.0655L130.034 72.6896C141.837 60.0894 158.352 52.9705 175.617 53.0406C210.243 53.0406 238.314 81.1107 238.314 115.737C238.314 150.363 210.243 178.433 175.617 178.433L175.617 178.438Z" fill="#F94F24"/>
<path fill-rule="evenodd" clip-rule="evenodd" d="M89.763 187.27C51.9938 187.27 21.2672 156.544 21.2672 118.775C21.265 114.148 21.7295 109.523 22.6538 104.979L23.197 105.08C22.2779 109.587 21.8161 114.175 21.8186 118.775C21.8186 156.238 52.2946 186.719 89.763 186.719C104.568 186.765 118.975 181.931 130.755 172.965L131.091 173.406C119.214 182.445 104.689 187.318 89.763 187.27L89.763 187.27Z" fill="#F94F24"/>
<path fill-rule="evenodd" clip-rule="evenodd" d="M298.404 146.839H295.972C295.661 146.864 295.362 146.711 295.198 146.444C295.035 146.178 295.035 145.842 295.198 145.575C295.362 145.309 295.661 145.156 295.972 145.18H298.404C298.715 145.156 299.014 145.309 299.178 145.575C299.341 145.842 299.341 146.178 299.178 146.444C299.014 146.711 298.715 146.864 298.404 146.839ZM290.203 146.839H286.744C286.433 146.864 286.134 146.711 285.97 146.444C285.807 146.178 285.807 145.842 285.97 145.575C286.134 145.309 286.433 145.156 286.744 145.18H290.203C290.636 145.214 290.971 145.575 290.971 146.01C290.971 146.444 290.636 146.806 290.203 146.839ZM280.975 146.839H277.516C277.205 146.864 276.906 146.711 276.742 146.444C276.579 146.178 276.579 145.842 276.742 145.575C276.906 145.309 277.205 145.156 277.516 145.18H280.975C281.408 145.214 281.743 145.575 281.743 146.01C281.743 146.444 281.408 146.806 280.975 146.839ZM271.747 146.839H268.288C267.977 146.864 267.678 146.711 267.514 146.444C267.351 146.178 267.351 145.842 267.514 145.575C267.678 145.309 267.977 145.156 268.288 145.18H271.747C272.18 145.214 272.515 145.575 272.515 146.01C272.515 146.444 272.18 146.806 271.747 146.839ZM262.519 146.839H259.06C258.749 146.864 258.45 146.711 258.286 146.444C258.123 146.178 258.123 145.842 258.286 145.575C258.45 145.309 258.749 145.156 259.06 145.18H262.539C262.851 145.156 263.15 145.309 263.313 145.575C263.476 145.842 263.476 146.178 263.313 146.444C263.15 146.711 262.851 146.864 262.539 146.839H262.519ZM253.291 146.839H249.832C249.399 146.806 249.065 146.444 249.065 146.01C249.065 145.575 249.399 145.214 249.832 145.18H253.291C253.603 145.156 253.902 145.309 254.065 145.575C254.228 145.842 254.228 146.178 254.065 146.444C253.902 146.711 253.603 146.864 253.291 146.839ZM244.063 146.839H240.604C240.171 146.806 239.837 146.444 239.837 146.01C239.837 145.575 240.171 145.214 240.604 145.18H244.063C244.375 145.156 244.674 145.309 244.837 145.575C245 145.842 245 146.178 244.837 146.444C244.674 146.711 244.375 146.864 244.063 146.839ZM234.835 146.839H231.376C230.943 146.806 230.609 146.444 230.609 146.01C230.609 145.575 230.943 145.214 231.376 145.18H234.835C235.147 145.156 235.446 145.309 235.609 145.575C235.773 145.842 235.773 146.178 235.609 146.444C235.446 146.711 235.147 146.864 234.835 146.839ZM225.607 146.839H222.148C221.715 146.806 221.381 146.444 221.381 146.01C221.381 145.575 221.715 145.214 222.148 145.18H225.607C225.919 145.156 226.218 145.309 226.381 145.575C226.544 145.842 226.544 146.178 226.381 146.444C226.218 146.711 225.919 146.864 225.607 146.839Z" fill="#F94F24"/>
<defs>
<linearGradient id="paint0_linear" x1="40.5403" y1="165.016" x2="141.793" y2="165.016" gradientUnits="userSpaceOnUse">
<stop stop-color="#8033EB"/>
<stop offset="1" stop-color="#6731CE"/>
</linearGradient>
<linearGradient id="paint1_linear" x1="75.703" y1="122.76" x2="83.0714" y2="122.76" gradientUnits="userSpaceOnUse">
<stop stop-color="#8033EB"/>
<stop offset="1" stop-color="#6731CE"/>
</linearGradient>
<linearGradient id="paint2_linear" x1="98.4348" y1="122.762" x2="105.803" y2="122.762" gradientUnits="userSpaceOnUse">
<stop stop-color="#8033EB"/>
<stop offset="1" stop-color="#6731CE"/>
</linearGradient>
<linearGradient id="paint3_linear" x1="86.7807" y1="122.751" x2="94.485" y2="122.751" gradientUnits="userSpaceOnUse">
<stop stop-color="#8033EB"/>
<stop offset="1" stop-color="#6731CE"/>
</linearGradient>
<linearGradient id="paint4_linear" x1="253.502" y1="205.83" x2="271.918" y2="108.949" gradientUnits="userSpaceOnUse">
<stop stop-color="#8033EB"/>
<stop offset="1" stop-color="#F94F24"/>
</linearGradient>
<linearGradient id="paint5_linear" x1="221.848" y1="129.719" x2="326.012" y2="129.719" gradientUnits="userSpaceOnUse">
<stop stop-color="white"/>
<stop offset="1" stop-color="#F94F24"/>
</linearGradient>
</defs>
</svg>
