<?xml version="1.0" encoding="UTF-8"?>
<svg width="32px" height="25px" viewBox="0 0 32 25" version="1.1" xmlns="http://www.w3.org/2000/svg" xmlns:xlink="http://www.w3.org/1999/xlink">
    <!-- Generator: Sketch 50.2 (55047) - http://www.bohemiancoding.com/sketch -->
    <title>Doc Icon</title>
    <desc>Created with Sketch.</desc>
    <defs></defs>
    <g id="Support" stroke="none" stroke-width="1" fill="none" fill-rule="evenodd">
        <g transform="translate(-277.000000, -455.000000)" fill="#FA5723" fill-rule="nonzero" id="Resources">
            <g transform="translate(276.000000, 377.000000)">
                <g id="Documentation" transform="translate(1.000000, 74.000000)">
                    <g id="Doc-Icon" transform="translate(0.000000, 4.000000)">
                        <g id="Book-04">
                            <path d="M3.44086022,0 L3.44086022,20.6451613 C11.109063,20.6451613 12.5345622,21.812596 15.2380952,23.5330261 L15.2380952,2.82642089 C13.8617512,1.10599078 11.8463902,0 3.44086022,0 Z M28.5099846,0 C20.1044547,0 18.0399386,1.16743472 16.7127496,2.88786482 L16.7127496,23.5330261 C19.4162826,21.812596 20.8417819,20.6451613 28.5099846,20.6451613 L28.5099846,0 Z M0,2.15053763 L0,24.2703533 L14.0092166,24.2703533 C11.7480799,22.9185868 10.1259601,22.1198157 3.44086022,22.1198157 L2.31029186,22.1198157 L2.31029186,20.7066052 L2.31029186,2.15053763 L0,2.15053763 Z M29.6897081,2.15053763 L29.6897081,20.6451613 L29.6897081,22.0583717 L28.5591398,22.0583717 C21.8740399,22.0583717 20.2519201,22.8571429 17.9907834,24.2089094 L32,24.2089094 L32,2.0890937 L29.6897081,2.0890937 L29.6897081,2.15053763 Z" id="XMLID_8_"></path>
                        </g>
                    </g>
                </g>
            </g>
        </g>
    </g>
</svg>