<?xml version="1.0" encoding="UTF-8"?>
<svg width="29px" height="25px" viewBox="0 0 29 25" version="1.1" xmlns="http://www.w3.org/2000/svg" xmlns:xlink="http://www.w3.org/1999/xlink">
    <!-- Generator: Sketch 50.2 (55047) - http://www.bohemiancoding.com/sketch -->
    <title>medium-m-2</title>
    <desc>Created with Sketch.</desc>
    <defs></defs>
    <g id="Support" stroke="none" stroke-width="1" fill="none" fill-rule="evenodd" fill-opacity="0.8">
        <g transform="translate(-635.000000, -724.000000)" fill="#FA5723" fill-rule="nonzero" id="Community">
            <g transform="translate(276.000000, 646.000000)">
                <g id="Blog" transform="translate(359.000000, 74.000000)">
                    <g id="medium-m-2" transform="translate(0.000000, 4.000000)">
                        <path d="M19.2786378,0.0268980758 C19.123839,-0.0430680636 19,0.0268980758 19,0.196815843 L19,20.4770011 L28.1744066,24.9148534 C28.628483,25.134747 29,24.9148534 29,24.4150953 L29,4.89454235 C29,4.79459072 28.9484004,4.70463426 28.8555212,4.6646536 L19.2786378,0.0268980758 Z" id="XMLID_103_"></path>
                        <path d="M10,16.0385222 L19.3856072,0.159743244 C19.4742436,0.0162294248 19.6613648,-0.0452764977 19.8090921,0.036731399 L28.8795478,4.75218546 C28.9878812,4.81369138 29.0371236,4.9572052 28.9681842,5.06996606 L19.543183,21 L10,16.0385222 Z" id="XMLID_102_"></path>
                        <path d="M1.61510036,1.13956259 C1.02268688,0.827591939 0.821868755,1.05637042 1.17330048,1.64911465 L10.2703617,16.9564745 L20,22 L10.3306071,5.72553113 C10.2904435,5.65273798 10.2301981,5.60074287 10.1599117,5.55914679 L1.61510036,1.13956259 Z" id="XMLID_101_"></path>
                        <path d="M10,24.4142554 C10,24.905987 9.62848297,25.1367998 9.1744066,24.9160223 L0.557275542,20.7212506 C0.247678019,20.5707205 0,20.1793423 0,19.8481761 L0,0.389653723 C0,0.0584875345 0.247678019,-0.0920425511 0.557275542,0.0584875345 L9.87616099,4.59446078 C9.94840041,4.63460214 10,4.70484951 10,4.78513222 L10,24.4142554 Z" id="XMLID_100_"></path>
                    </g>
                </g>
            </g>
        </g>
    </g>
</svg>