<?xml version="1.0" encoding="UTF-8"?>
<svg width="20px" height="22px" viewBox="0 0 20 22" version="1.1" xmlns="http://www.w3.org/2000/svg" xmlns:xlink="http://www.w3.org/1999/xlink">
    <!-- Generator: Sketch 50.2 (55047) - http://www.bohemiancoding.com/sketch -->
    <title>round-bug_report-24px</title>
    <desc>Created with Sketch.</desc>
    <defs></defs>
    <g id="Support" stroke="none" stroke-width="1" fill="none" fill-rule="evenodd">
        <g transform="translate(-994.000000, -455.000000)" id="Resources">
            <g transform="translate(276.000000, 377.000000)">
                <g id="Bug" transform="translate(713.000000, 74.000000)">
                    <g id="round-bug_report-24px">
                        <polygon id="Shape" points="0 0 30 0 30 30 0 30"></polygon>
                        <path d="M23.75,9.74307233 L21.4875,9.74307233 C20.925,8.76765667 20.15,7.92979963 19.2125,7.29202785 L20.375,6.12903226 C20.8625,5.64132443 20.8625,4.8534887 20.375,4.36578087 C19.8875,3.87807304 19.1,3.87807304 18.6125,4.36578087 L16.775,6.20406423 C16.2,6.06650561 15.6125,5.99147364 15,5.99147364 C14.3875,5.99147364 13.8,6.06650561 13.2375,6.20406423 L11.3875,4.36578087 C10.9,3.87807304 10.1125,3.87807304 9.625,4.36578087 C9.1375,4.8534887 9.1375,5.64132443 9.625,6.12903226 L10.775,7.29202785 C9.85,7.92979963 9.075,8.76765667 8.5125,9.74307233 L6.25,9.74307233 C5.5625,9.74307233 5,10.3058121 5,10.9936052 C5,11.6813983 5.5625,12.2441381 6.25,12.2441381 L7.6125,12.2441381 C7.55,12.656814 7.5,13.0694898 7.5,13.494671 L7.5,14.7452039 L6.25,14.7452039 C5.5625,14.7452039 5,15.3079437 5,15.9957368 C5,16.6835299 5.5625,17.2462697 6.25,17.2462697 L7.5,17.2462697 L7.5,18.4968026 C7.5,18.9219838 7.55,19.3346597 7.6125,19.7473355 L6.25,19.7473355 C5.5625,19.7473355 5,20.3100753 5,20.9978684 C5,21.6856615 5.5625,22.2484013 6.25,22.2484013 L8.5125,22.2484013 C9.8125,24.4868552 12.225,26 15,26 C17.775,26 20.1875,24.4868552 21.4875,22.2484013 L23.75,22.2484013 C24.4375,22.2484013 25,21.6856615 25,20.9978684 C25,20.3100753 24.4375,19.7473355 23.75,19.7473355 L22.3875,19.7473355 C22.45,19.3346597 22.5,18.9219838 22.5,18.4968026 L22.5,17.2462697 L23.75,17.2462697 C24.4375,17.2462697 25,16.6835299 25,15.9957368 C25,15.3079437 24.4375,14.7452039 23.75,14.7452039 L22.5,14.7452039 L22.5,13.494671 C22.5,13.0694898 22.45,12.656814 22.3875,12.2441381 L23.75,12.2441381 C24.4375,12.2441381 25,11.6813983 25,10.9936052 C25,10.3058121 24.4375,9.74307233 23.75,9.74307233 Z M16.25,19.7473355 L13.75,19.7473355 C13.0625,19.7473355 12.5,19.1845957 12.5,18.4968026 C12.5,17.8090095 13.0625,17.2462697 13.75,17.2462697 L16.25,17.2462697 C16.9375,17.2462697 17.5,17.8090095 17.5,18.4968026 C17.5,19.1845957 16.9375,19.7473355 16.25,19.7473355 Z M16.25,14.7452039 L13.75,14.7452039 C13.0625,14.7452039 12.5,14.1824641 12.5,13.494671 C12.5,12.8068779 13.0625,12.2441381 13.75,12.2441381 L16.25,12.2441381 C16.9375,12.2441381 17.5,12.8068779 17.5,13.494671 C17.5,14.1824641 16.9375,14.7452039 16.25,14.7452039 Z" id="Shape" fill="#FA5723" fill-rule="nonzero"></path>
                    </g>
                </g>
            </g>
        </g>
    </g>
</svg>