<?xml version="1.0" encoding="UTF-8"?>
<svg width="54px" height="54px" viewBox="0 0 54 54" version="1.1" xmlns="http://www.w3.org/2000/svg" xmlns:xlink="http://www.w3.org/1999/xlink">
    <!-- Generator: Sketch 50.2 (55047) - http://www.bohemiancoding.com/sketch -->
    <title>life-ring-solid</title>
    <desc>Created with Sketch.</desc>
    <defs></defs>
    <g id="Support" stroke="none" stroke-width="1" fill="none" fill-rule="evenodd">
        <g transform="translate(-1010.000000, -761.000000)" fill="#FFFFFF" fill-rule="nonzero" id="Premium-Support">
            <g transform="translate(993.000000, 646.000000)">
                <g id="Box" transform="translate(0.000000, 80.000000)">
                    <g id="life-ring-solid" transform="translate(17.000000, 35.000000)">
                        <path d="M27,0 C12.0882702,0 0,12.0882702 0,27 C0,41.9117298 12.0882702,54 27,54 C41.9117298,54 54,41.9117298 54,27 C54,12.0882702 41.9117298,0 27,0 Z M45.9104516,13.016504 L39.0081411,19.9188145 C37.8119758,17.8982782 36.1045524,16.1897661 34.0811855,14.9918589 L40.983496,8.08954839 C42.8588475,9.48101258 44.5189874,11.1411525 45.9104516,13.016504 Z M27,37.4516129 C21.2277702,37.4516129 16.5483871,32.7722298 16.5483871,27 C16.5483871,21.2277702 21.2277702,16.5483871 27,16.5483871 C32.7722298,16.5483871 37.4516129,21.2277702 37.4516129,27 C37.4516129,32.7722298 32.7722298,37.4516129 27,37.4516129 Z M13.016504,8.08954839 L19.9188145,14.9918589 C17.8982782,16.1880242 16.1897661,17.8954476 14.9918589,19.9188145 L8.08954839,13.016504 C9.48098372,11.1411276 11.1411276,9.48098372 13.016504,8.08954839 Z M8.08954839,40.983496 L14.9918589,34.0811855 C16.1880242,36.1017218 17.8954476,37.8102339 19.9188145,39.0081411 L13.016504,45.9104516 C11.1411525,44.5189874 9.48101258,42.8588475 8.08954839,40.983496 Z M40.983496,45.9104516 L34.0811855,39.0081411 C36.1017218,37.8119758 37.8102339,36.1045524 39.0081411,34.0811855 L45.9104516,40.983496 C44.518979,42.8588402 42.8588402,44.518979 40.983496,45.9104516 Z" id="Shape"></path>
                    </g>
                </g>
            </g>
        </g>
    </g>
</svg>