<svg xmlns="http://www.w3.org/2000/svg" xmlns:xlink="http://www.w3.org/1999/xlink" viewBox="0 0 800 500"><defs><linearGradient id="a" x1="122.97" y1="437.42" x2="235.46" y2="437.42" gradientUnits="userSpaceOnUse"><stop offset="0" stop-color="#8033eb"/><stop offset="1" stop-color="#6731ce"/></linearGradient><linearGradient id="b" x1="346.45" y1="437.42" x2="458.94" y2="437.42" xlink:href="#a"/><linearGradient id="c" x1="571.8" y1="437.42" x2="684.29" y2="437.42" xlink:href="#a"/><linearGradient id="d" x1="145.59" y1="79.24" x2="216.32" y2="79.24" xlink:href="#a"/><linearGradient id="e" x1="367.33" y1="79.24" x2="438.06" y2="79.24" xlink:href="#a"/><linearGradient id="f" x1="589.07" y1="79.24" x2="659.81" y2="79.24" xlink:href="#a"/></defs><title>Artboard 2 copy 10</title><path d="M429.39,329.36S351.84,369.22,314.27,350s-41-52.78-26-105.92,52.25-83.32,110-43.69S493,291.71,429.39,329.36Z" style="fill:#f2f2f2"/><path d="M532.92,148.62a26.84,26.84,0,1,1-26.84-26.83A26.83,26.83,0,0,1,532.92,148.62Z" style="fill:#f2f2f2"/><path d="M211.34,312.77a26.84,26.84,0,1,1-26.83-26.83A26.84,26.84,0,0,1,211.34,312.77Z" style="fill:#f2f2f2"/><path d="M555.87,357.75a19.23,19.23,0,1,1-19.23-19.23A19.23,19.23,0,0,1,555.87,357.75Z" style="fill:#f2f2f2"/><path d="M150.21,175.46a13.12,13.12,0,1,1-13.12-13.12A13.12,13.12,0,0,1,150.21,175.46Z" style="fill:#f2f2f2"/><path d="M284.42,405.1A13.12,13.12,0,1,1,271.3,392,13.12,13.12,0,0,1,284.42,405.1Z" style="fill:#f2f2f2"/><path d="M622.51,257.09a19.24,19.24,0,1,1-19.23-19.23A19.23,19.23,0,0,1,622.51,257.09Z" style="fill:#f2f2f2"/><path d="M218.51,420.6a16,16,0,0,1,16,16v1.65a16,16,0,0,1-16,16H139.92a16,16,0,0,1-16-16V436.6a16,16,0,0,1,16-16h78.59m0-8H139.92a24,24,0,0,0-24,24v1.65a24,24,0,0,0,24,24h78.59a24,24,0,0,0,24-24V436.6a24,24,0,0,0-24-24Z" style="fill:#f1ecfa"/><rect x="123.92" y="420.6" width="110.6" height="33.65" rx="16" ry="16" style="fill:#f94f24;stroke-linecap:round;stroke-miterlimit:10;stroke-width:1.89867px;stroke:url(#a)"/><path d="M147.73,442.65h-1.82l-1-2.37h-4.64l-1,2.37h-1.77l4.31-9.87h1.6Zm-5.14-7.82-1.68,3.92h3.38Z" style="fill:#fff"/><path d="M156.54,441.8a4.94,4.94,0,0,1-.88.54,3.93,3.93,0,0,1-1,.35,6,6,0,0,1-1.25.12,5,5,0,0,1-2-.39,4.81,4.81,0,0,1-1.57-1.07,5,5,0,0,1-1.05-1.6,5.26,5.26,0,0,1-.37-2,5.15,5.15,0,0,1,.37-2,4.74,4.74,0,0,1,1-1.62,4.84,4.84,0,0,1,1.6-1.09,5,5,0,0,1,2-.4,5.86,5.86,0,0,1,1.23.11,5.18,5.18,0,0,1,1,.31,4.71,4.71,0,0,1,.85.49,6.24,6.24,0,0,1,.75.61l-1.11,1.28a5.17,5.17,0,0,0-1.25-.88,3.35,3.35,0,0,0-2.79-.07,3.19,3.19,0,0,0-1,.74,3.42,3.42,0,0,0-.67,1.1,3.81,3.81,0,0,0-.24,1.36,3.87,3.87,0,0,0,.24,1.37,3.47,3.47,0,0,0,.67,1.11,3.07,3.07,0,0,0,1,.75,3.12,3.12,0,0,0,1.3.27,3.24,3.24,0,0,0,1.54-.34,6.41,6.41,0,0,0,1.27-.93l1.11,1.12A6.67,6.67,0,0,1,156.54,441.8Z" style="fill:#fff"/><path d="M166.6,441.8a5.42,5.42,0,0,1-.89.54,4,4,0,0,1-1,.35,6.13,6.13,0,0,1-1.26.12,5,5,0,0,1-2-.39,4.92,4.92,0,0,1-1.57-1.07,5,5,0,0,1-1-1.6,5.08,5.08,0,0,1-.38-2,5.15,5.15,0,0,1,.37-2,4.9,4.9,0,0,1,1-1.62,4.84,4.84,0,0,1,1.6-1.09,5,5,0,0,1,2-.4,5.86,5.86,0,0,1,1.23.11,5,5,0,0,1,1,.31,5.18,5.18,0,0,1,.86.49,7,7,0,0,1,.74.61l-1.11,1.28a5.32,5.32,0,0,0-1.24-.88,3.19,3.19,0,0,0-1.5-.34,3.12,3.12,0,0,0-1.3.27,3.3,3.3,0,0,0-1,.74,3.42,3.42,0,0,0-.67,1.1,3.81,3.81,0,0,0-.24,1.36,3.87,3.87,0,0,0,.24,1.37,3.47,3.47,0,0,0,.67,1.11,3.18,3.18,0,0,0,1,.75,3.12,3.12,0,0,0,1.3.27,3.24,3.24,0,0,0,1.54-.34,6.13,6.13,0,0,0,1.27-.93l1.11,1.12A6.6,6.6,0,0,1,166.6,441.8Z" style="fill:#fff"/><path d="M178.35,439.69a5,5,0,0,1-1.06,1.62,5.39,5.39,0,0,1-5.77,1.1,4.75,4.75,0,0,1-1.61-1.08,4.88,4.88,0,0,1-1-1.61,5.24,5.24,0,0,1,0-3.92,4.79,4.79,0,0,1,1.06-1.62,5.39,5.39,0,0,1,5.77-1.1,4.85,4.85,0,0,1,1.61,1.08,5,5,0,0,1,1,1.61,5.24,5.24,0,0,1,0,3.92Zm-1.67-3.28a3.47,3.47,0,0,0-.69-1.11,3.26,3.26,0,0,0-1.06-.76,3.16,3.16,0,0,0-1.34-.28,3.27,3.27,0,0,0-1.34.27,3.23,3.23,0,0,0-1,.74,3.49,3.49,0,0,0-.68,1.11,3.84,3.84,0,0,0-.24,1.35,3.76,3.76,0,0,0,.24,1.35,3.29,3.29,0,0,0,.69,1.12,3.35,3.35,0,0,0,1.05.75,3.17,3.17,0,0,0,1.35.28A3.23,3.23,0,0,0,175,441a3.17,3.17,0,0,0,1.05-.74,3.56,3.56,0,0,0,.68-1.11,3.92,3.92,0,0,0,0-2.7Z" style="fill:#fff"/><path d="M189.05,438.4a5.61,5.61,0,0,1-.3,1.92,4,4,0,0,1-.85,1.38,3.61,3.61,0,0,1-1.32.83,5.31,5.31,0,0,1-1.75.27,5.17,5.17,0,0,1-1.72-.27,3.73,3.73,0,0,1-1.32-.82,3.86,3.86,0,0,1-.84-1.35,5.61,5.61,0,0,1-.29-1.87v-5.64h1.71v5.57a3,3,0,0,0,.66,2.08,2.36,2.36,0,0,0,1.83.72,2.42,2.42,0,0,0,1.82-.69,2.84,2.84,0,0,0,.66-2v-5.64h1.71Z" style="fill:#fff"/><path d="M198.24,432.85H200v9.8h-1.44l-5.39-7v7h-1.71v-9.8H193l5.24,6.77Z" style="fill:#fff"/><path d="M206.62,442.65h-1.74v-8.21h-3.11v-1.59h7.95v1.59h-3.1Z" style="fill:#fff"/><path d="M212.87,435.91a1.09,1.09,0,0,0,.36.39,2.7,2.7,0,0,0,.72.34c.3.1.69.21,1.16.32a10.38,10.38,0,0,1,1.36.44,3.16,3.16,0,0,1,1,.58,2.28,2.28,0,0,1,.6.79,2.57,2.57,0,0,1,.2,1.08,2.89,2.89,0,0,1-.25,1.24,2.74,2.74,0,0,1-.72.93,3.1,3.1,0,0,1-1.1.57,4.85,4.85,0,0,1-1.41.2,6,6,0,0,1-4.09-1.57l1-1.23a5.82,5.82,0,0,0,1.44.94,3.92,3.92,0,0,0,1.65.33,2.12,2.12,0,0,0,1.27-.34,1.06,1.06,0,0,0,.47-.91,1.2,1.2,0,0,0-.1-.47,1,1,0,0,0-.33-.39,3.6,3.6,0,0,0-.68-.33,10.91,10.91,0,0,0-1.11-.32,11.41,11.41,0,0,1-1.4-.4,3.52,3.52,0,0,1-1-.56,2.18,2.18,0,0,1-.63-.82,2.67,2.67,0,0,1-.22-1.16,2.68,2.68,0,0,1,.93-2.07,3.11,3.11,0,0,1,1.06-.58,4.1,4.1,0,0,1,1.34-.2,5.64,5.64,0,0,1,1.94.31,6,6,0,0,1,1.62.92l-.93,1.3a5.79,5.79,0,0,0-1.33-.75,3.66,3.66,0,0,0-1.33-.26,1.85,1.85,0,0,0-1.17.34,1.05,1.05,0,0,0-.42.84A1.28,1.28,0,0,0,212.87,435.91Z" style="fill:#fff"/><path d="M442,420.6a16,16,0,0,1,16,16v1.65a16,16,0,0,1-16,16H363.4a16,16,0,0,1-16-16V436.6a16,16,0,0,1,16-16H442m0-8H363.4a24,24,0,0,0-24,24v1.65a24,24,0,0,0,24,24H442a24,24,0,0,0,24-24V436.6a24,24,0,0,0-24-24Z" style="fill:#f1ecfa"/><rect x="347.4" y="420.6" width="110.6" height="33.65" rx="16" ry="16" style="fill:#f94f24;stroke-linecap:round;stroke-miterlimit:10;stroke-width:1.89867px;stroke:url(#b)"/><path d="M378.24,442.65l-2.42-3.42h-2.16v3.42H372v-9.8h4.37a5.17,5.17,0,0,1,1.52.21,3.43,3.43,0,0,1,1.15.62,2.63,2.63,0,0,1,.72,1A3.37,3.37,0,0,1,380,436a3.13,3.13,0,0,1-.18,1.1,2.69,2.69,0,0,1-.48.86,3.42,3.42,0,0,1-.73.63,4,4,0,0,1-.95.4l2.65,3.71Zm-.57-7.84a2.41,2.41,0,0,0-1.5-.41h-2.51v3.3h2.53a2.24,2.24,0,0,0,1.47-.45,1.64,1.64,0,0,0,0-2.44Z" style="fill:#fff"/><path d="M389.32,434.4h-5.54v2.52h4.91v1.55h-4.91v2.62h5.61v1.56h-7.32v-9.8h7.25Z" style="fill:#fff"/><path d="M398.41,432.85h1.86l-4.07,9.87h-1.51l-4.08-9.87h1.91l3,7.53Z" style="fill:#fff"/><path d="M403.76,432.85v9.8h-1.71v-9.8Z" style="fill:#fff"/><path d="M413.64,434.4H408.1v2.52H413v1.55H408.1v2.62h5.61v1.56h-7.32v-9.8h7.25Z" style="fill:#fff"/><path d="M421.62,432.82h1.46l2.41,7.29,2.33-7.26h1.81l-3.42,9.87h-1.48l-2.41-7.05-2.41,7.05h-1.48L415,432.85h1.87l2.33,7.26Z" style="fill:#fff"/><path d="M432.65,435.91a1.09,1.09,0,0,0,.36.39,2.86,2.86,0,0,0,.72.34c.3.1.69.21,1.16.32a10.38,10.38,0,0,1,1.36.44,3.16,3.16,0,0,1,1,.58,2.16,2.16,0,0,1,.6.79,2.57,2.57,0,0,1,.2,1.08,2.89,2.89,0,0,1-.25,1.24,2.62,2.62,0,0,1-.72.93,3.1,3.1,0,0,1-1.1.57,4.85,4.85,0,0,1-1.41.2,6,6,0,0,1-4.09-1.57l1-1.23a5.82,5.82,0,0,0,1.44.94,3.92,3.92,0,0,0,1.65.33,2.12,2.12,0,0,0,1.27-.34,1.06,1.06,0,0,0,.47-.91,1.19,1.19,0,0,0-.09-.47,1.11,1.11,0,0,0-.34-.39,3.6,3.6,0,0,0-.68-.33,10.91,10.91,0,0,0-1.11-.32,11.41,11.41,0,0,1-1.4-.4,3.66,3.66,0,0,1-1-.56,2.18,2.18,0,0,1-.63-.82,2.67,2.67,0,0,1-.22-1.16,2.64,2.64,0,0,1,.25-1.17,2.53,2.53,0,0,1,.69-.9,3,3,0,0,1,1-.58,4.14,4.14,0,0,1,1.34-.2,5.6,5.6,0,0,1,1.94.31,6,6,0,0,1,1.62.92l-.93,1.3a5.79,5.79,0,0,0-1.33-.75,3.66,3.66,0,0,0-1.33-.26,1.85,1.85,0,0,0-1.17.34,1.05,1.05,0,0,0-.42.84A1.28,1.28,0,0,0,432.65,435.91Z" style="fill:#fff"/><path d="M667.34,420.6a16,16,0,0,1,16,16v1.65a16,16,0,0,1-16,16H588.75a16,16,0,0,1-16-16V436.6a16,16,0,0,1,16-16h78.59m0-8H588.75a24,24,0,0,0-24,24v1.65a24,24,0,0,0,24,24h78.59a24,24,0,0,0,24-24V436.6a24,24,0,0,0-24-24Z" style="fill:#f1ecfa"/><rect x="572.75" y="420.6" width="110.6" height="33.65" rx="16" ry="16" style="fill:#f94f24;stroke-linecap:round;stroke-miterlimit:10;stroke-width:1.89867px;stroke:url(#c)"/><path d="M594.46,437.59a2.88,2.88,0,0,1-.84,1.05,3.89,3.89,0,0,1-1.25.64,5.44,5.44,0,0,1-1.53.22h-2v3.15h-1.71v-9.8h3.87a4.66,4.66,0,0,1,1.54.23,3.15,3.15,0,0,1,1.18.66,3,3,0,0,1,.74,1,3.44,3.44,0,0,1,.26,1.36A3.19,3.19,0,0,1,594.46,437.59Zm-2-2.75a2.52,2.52,0,0,0-1.55-.44h-2v3.54h2a2.34,2.34,0,0,0,1.55-.48,1.61,1.61,0,0,0,.57-1.29A1.59,1.59,0,0,0,592.45,434.84Z" style="fill:#fff"/><path d="M602.82,442.65l-2.41-3.42h-2.17v3.42h-1.71v-9.8h4.37a5.12,5.12,0,0,1,1.52.21,3.33,3.33,0,0,1,1.15.62,2.63,2.63,0,0,1,.72,1,3.19,3.19,0,0,1,.25,1.29,3.39,3.39,0,0,1-.17,1.1,2.91,2.91,0,0,1-.49.86,3.19,3.19,0,0,1-.73.63,4,4,0,0,1-.95.4l2.65,3.71Zm-.56-7.84a2.45,2.45,0,0,0-1.5-.41h-2.52v3.3h2.53a2.27,2.27,0,0,0,1.48-.45,1.66,1.66,0,0,0,0-2.44Z" style="fill:#fff"/><path d="M616.09,439.69a4.79,4.79,0,0,1-1.06,1.62,5.39,5.39,0,0,1-5.77,1.1,4.75,4.75,0,0,1-1.61-1.08,4.88,4.88,0,0,1-1-1.61,5.24,5.24,0,0,1,0-3.92,5,5,0,0,1,1.06-1.62,5.39,5.39,0,0,1,5.77-1.1,4.75,4.75,0,0,1,1.61,1.08,5,5,0,0,1,1.05,1.61,5.24,5.24,0,0,1,0,3.92Zm-1.67-3.28a3.16,3.16,0,0,0-.69-1.11,3.22,3.22,0,0,0-1.05-.76,3.17,3.17,0,0,0-1.35-.28,3.23,3.23,0,0,0-1.33.27,3.17,3.17,0,0,0-1,.74,3.68,3.68,0,0,0-.68,1.11,3.84,3.84,0,0,0-.24,1.35,3.76,3.76,0,0,0,.24,1.35,3.64,3.64,0,0,0,.69,1.12A3.39,3.39,0,0,0,610,441a3.12,3.12,0,0,0,1.34.28,3.27,3.27,0,0,0,1.34-.27,3.23,3.23,0,0,0,1-.74,3.39,3.39,0,0,0,.68-1.11,3.92,3.92,0,0,0,0-2.7Z" style="fill:#fff"/><path d="M627,439.67a4.57,4.57,0,0,1-1.07,1.56,5,5,0,0,1-1.65,1,5.74,5.74,0,0,1-2.11.38h-3.65v-9.8h3.65a5.74,5.74,0,0,1,2.11.37,4.81,4.81,0,0,1,1.65,1A4.44,4.44,0,0,1,627,435.8a5.12,5.12,0,0,1,0,3.87Zm-1.67-3.25a3.35,3.35,0,0,0-.69-1.06,3.18,3.18,0,0,0-1.07-.71,3.76,3.76,0,0,0-1.41-.25h-1.94v6.69h1.94a4,4,0,0,0,1.41-.24,3.29,3.29,0,0,0,1.07-.69,3.35,3.35,0,0,0,.69-1.06,3.86,3.86,0,0,0,0-2.68Z" style="fill:#fff"/><path d="M637.74,438.4a5.61,5.61,0,0,1-.3,1.92,4,4,0,0,1-.85,1.38,3.61,3.61,0,0,1-1.32.83,5.31,5.31,0,0,1-1.75.27,5.17,5.17,0,0,1-1.72-.27,3.73,3.73,0,0,1-1.32-.82,3.86,3.86,0,0,1-.84-1.35,5.61,5.61,0,0,1-.29-1.87v-5.64h1.71v5.57a3,3,0,0,0,.66,2.08,2.36,2.36,0,0,0,1.83.72,2.42,2.42,0,0,0,1.82-.69,2.84,2.84,0,0,0,.66-2v-5.64h1.71Z" style="fill:#fff"/><path d="M647.84,441.8a5,5,0,0,1-.89.54,4,4,0,0,1-1,.35,6.13,6.13,0,0,1-1.26.12,4.93,4.93,0,0,1-2-.39,4.85,4.85,0,0,1-1.58-1.07,5,5,0,0,1-1-1.6,5.08,5.08,0,0,1-.38-2,5.15,5.15,0,0,1,.37-2,4.9,4.9,0,0,1,1-1.62,4.84,4.84,0,0,1,1.6-1.09,5,5,0,0,1,2-.4,5.86,5.86,0,0,1,1.23.11,5,5,0,0,1,1,.31,4.8,4.8,0,0,1,.86.49,6.15,6.15,0,0,1,.74.61l-1.11,1.28a5.12,5.12,0,0,0-1.24-.88,3.19,3.19,0,0,0-1.5-.34,3.12,3.12,0,0,0-1.3.27,3.3,3.3,0,0,0-1,.74,3.61,3.61,0,0,0-.67,1.1,3.81,3.81,0,0,0-.24,1.36,3.87,3.87,0,0,0,.24,1.37,3.66,3.66,0,0,0,.67,1.11,3.18,3.18,0,0,0,1,.75,3.12,3.12,0,0,0,1.3.27,3.21,3.21,0,0,0,1.54-.34,6.13,6.13,0,0,0,1.27-.93l1.11,1.12A6.6,6.6,0,0,1,647.84,441.8Z" style="fill:#fff"/><path d="M654.58,442.65h-1.74v-8.21h-3.11v-1.59h8v1.59h-3.11Z" style="fill:#fff"/><path d="M660.84,435.91a1,1,0,0,0,.35.39,3,3,0,0,0,.72.34c.3.1.69.21,1.16.32a11.08,11.08,0,0,1,1.37.44,3.4,3.4,0,0,1,1,.58,2.25,2.25,0,0,1,.59.79,2.57,2.57,0,0,1,.21,1.08,2.89,2.89,0,0,1-.26,1.24,2.62,2.62,0,0,1-.72.93,3.1,3.1,0,0,1-1.1.57,4.85,4.85,0,0,1-1.41.2,6,6,0,0,1-4.09-1.57l1-1.23a5.82,5.82,0,0,0,1.44.94,4,4,0,0,0,1.65.33,2.1,2.1,0,0,0,1.27-.34,1.06,1.06,0,0,0,.47-.91,1.19,1.19,0,0,0-.09-.47,1,1,0,0,0-.34-.39,3.48,3.48,0,0,0-.67-.33c-.29-.1-.66-.21-1.12-.32a12,12,0,0,1-1.4-.4,3.8,3.8,0,0,1-1-.56,2.18,2.18,0,0,1-.63-.82,2.67,2.67,0,0,1-.22-1.16,2.64,2.64,0,0,1,.25-1.17,2.78,2.78,0,0,1,.69-.9,3,3,0,0,1,1-.58,4.14,4.14,0,0,1,1.34-.2,5.6,5.6,0,0,1,1.94.31,6,6,0,0,1,1.62.92l-.93,1.3a5.59,5.59,0,0,0-1.33-.75,3.62,3.62,0,0,0-1.33-.26,1.85,1.85,0,0,0-1.17.34,1.05,1.05,0,0,0-.42.84A1.12,1.12,0,0,0,660.84,435.91Z" style="fill:#fff"/><rect x="336.38" y="250.4" width="132.64" height="66.14" rx="22.87" ry="22.87" style="fill:#1d127d"/><path d="M356.78,245.49h91.84a26.27,26.27,0,0,1,26.27,26.27v23.42a26.27,26.27,0,0,1-26.27,26.27H356.78a26.26,26.26,0,0,1-26.26-26.26V271.75A26.26,26.26,0,0,1,356.78,245.49Z" style="fill:none;stroke:#f94f24;stroke-linecap:round;stroke-miterlimit:10;stroke-width:1.13494px;stroke-dasharray:3.404819965362549,2.269890069961548"/><path d="M359.06,274.87a12.37,12.37,0,0,0,12.58,12.46,11.94,11.94,0,0,0,8.78-4.05c.27-.3.52-1,1.07-.54s0,.94-.36,1.27c-3.91,4-8.61,5.46-13.95,3.65s-8.42-5.79-9.05-11.43a13.41,13.41,0,0,1,13.13-15,12.76,12.76,0,0,1,7.91,2.58,2.48,2.48,0,0,0,1.16.4,1.43,1.43,0,0,1,1.35,1.3,1.4,1.4,0,0,1-1.31,1.42,1.28,1.28,0,0,1-1.32-1.29,1.1,1.1,0,0,0-.6-1.05,11.72,11.72,0,0,0-12.45-1A12,12,0,0,0,359.11,274C359.08,274.26,359.07,274.57,359.06,274.87Z" style="fill:#fff;fill-rule:evenodd"/><path d="M438.43,274.16a5.29,5.29,0,0,1,5.28-5.36,5.37,5.37,0,0,1-.09,10.74A5.3,5.3,0,0,1,438.43,274.16Zm1.92,0a3.33,3.33,0,0,0,3.28,3.4,3.4,3.4,0,0,0,.08-6.8A3.3,3.3,0,0,0,440.35,274.17Z" style="fill:#fff;fill-rule:evenodd"/><path d="M407.42,274.19a5.26,5.26,0,1,1-5.2-5.39A5.37,5.37,0,0,1,407.42,274.19Zm-5.28-3.42a3.4,3.4,0,0,0,0,6.8,3.4,3.4,0,0,0,0-6.8Z" style="fill:#fff;fill-rule:evenodd"/><path d="M371.38,271c-.59,1.64-1.11,3.09-1.66,4.67a13.79,13.79,0,0,0,1.59,0,.92.92,0,0,1,1.18.87,8.23,8.23,0,0,0,.35,1c-1.08,0-2.07,0-3.07,0a1.06,1.06,0,0,0-.77.48c-.59,1.25-.56,1.26-1.92,1.26h-.94l.52-1.38c1-2.76,2.11-5.52,3.12-8.29a.92.92,0,0,1,1.06-.71c1.87,0,1.87,0,2.54,1.78,1,2.59,1.95,5.17,2.92,7.76.09.25.17.5.27.77a1.73,1.73,0,0,1-.3.06c-2,.1-2,.1-2.65-1.79C372.9,275.43,372.17,273.34,371.38,271Z" style="fill:#fff;fill-rule:evenodd"/><path d="M385.25,275.76v3.52h-2.06V269h4.47a3.4,3.4,0,1,1,0,6.8Zm.07-4.82v2.82c.95,0,1.84.05,2.73,0a1.34,1.34,0,0,0,1.17-1.44,1.37,1.37,0,0,0-1.28-1.35C387.1,270.91,386.25,270.94,385.32,270.94Z" style="fill:#fff;fill-rule:evenodd"/><path d="M414.46,269h2v8.44h4.31v1.83h-6.33Z" style="fill:#fff;fill-rule:evenodd"/><path d="M427.12,279.26V269h2v8.44h4.32v1.82Z" style="fill:#fff;fill-rule:evenodd"/><path d="M376.72,305.6a6.21,6.21,0,0,1-4.59.06,4.93,4.93,0,0,1-1.67-1.15,4.82,4.82,0,0,1-1-1.71,5.93,5.93,0,0,1,0-4.15,5.51,5.51,0,0,1,1.06-1.72,5,5,0,0,1,1.65-1.18,5.1,5.1,0,0,1,2.13-.44,7.42,7.42,0,0,1,1.2.09,5.15,5.15,0,0,1,1,.27,4.44,4.44,0,0,1,.87.44,6.24,6.24,0,0,1,.8.58l-.76.89c-.2-.17-.41-.33-.62-.48a4.34,4.34,0,0,0-.71-.37,4,4,0,0,0-.83-.25,5.24,5.24,0,0,0-1-.08,3.69,3.69,0,0,0-1.59.34,3.79,3.79,0,0,0-1.24.92,4.33,4.33,0,0,0-.82,1.36,4.61,4.61,0,0,0-.3,1.66,5.12,5.12,0,0,0,.29,1.74,4,4,0,0,0,.83,1.38,3.61,3.61,0,0,0,1.29.9,4.21,4.21,0,0,0,1.71.33,4.72,4.72,0,0,0,1.68-.3,5.17,5.17,0,0,0,1.32-.74v-2.6h-3.17v-1h4.3v4.14A6.65,6.65,0,0,1,376.72,305.6Z" style="fill:#fff"/><path d="M390.85,305.89h-1.27l-1.21-2.75H382.7l-1.23,2.75h-1.2L385,295.41h1.1Zm-5.31-9.09-2.38,5.3h4.75Z" style="fill:#fff"/><path d="M395.49,305.89h-1.18v-9.32h-3.49v-1.08H399v1.08h-3.49Z" style="fill:#fff"/><path d="M408.72,296.56h-6.35v3.55h5.68v1.07h-5.68v3.64h6.42v1.07h-7.6v-10.4h7.53Z" style="fill:#fff"/><path d="M417.46,295.46h1l2.86,8.69,3-8.66h1.23L421.77,306h-1l-2.85-8.45L415.05,306h-1l-3.72-10.48h1.28l3,8.66Z" style="fill:#fff"/><path d="M436,305.89H434.7l-1.22-2.75h-5.66l-1.24,2.75h-1.2l4.74-10.48h1.1Zm-5.3-9.09-2.38,5.3H433Z" style="fill:#fff"/><path d="M440.81,305.89h-1.18v-4.11l-4.32-6.29h1.43l3.5,5.2,3.53-5.2h1.36l-4.32,6.27Z" style="fill:#fff"/><circle cx="180.95" cy="79.24" r="48.13" style="fill:#f1ecfa"/><circle cx="180.95" cy="79.24" r="35.37" style="stroke:#f94f24;stroke-linecap:round;stroke-miterlimit:10;stroke-width:1.89867px;fill:url(#d)"/><path d="M150.1,127.58h1.46l2.41,7.29,2.34-7.26h1.8l-3.41,9.87h-1.49l-2.41-7-2.4,7h-1.49l-3.41-9.87h1.86l2.34,7.26Z" style="fill:#6731cf"/><path d="M167.13,129.16h-5.55v2.52h4.92v1.56h-4.92v2.61h5.62v1.56h-7.33v-9.8h7.26Z" style="fill:#6731cf"/><path d="M176,128.28a2.2,2.2,0,0,1,.87,1.84,2.49,2.49,0,0,1-.12.8,2.19,2.19,0,0,1-.31.61,2.08,2.08,0,0,1-.44.45,3.08,3.08,0,0,1-.52.34,4,4,0,0,1,.78.36,2.29,2.29,0,0,1,.62.48,2,2,0,0,1,.39.66,2.45,2.45,0,0,1,.14.89,2.39,2.39,0,0,1-.26,1.16,2.29,2.29,0,0,1-.73.85,3.27,3.27,0,0,1-1.15.51,5.66,5.66,0,0,1-1.48.18h-4.53v-9.8h4.39A3.73,3.73,0,0,1,176,128.28Zm-1.34,3.14a1.26,1.26,0,0,0,.06-2,2.1,2.1,0,0,0-1.28-.33H171v2.62h2.35A2.42,2.42,0,0,0,174.65,131.42Zm.54,4.12a1.24,1.24,0,0,0,0-2,2.69,2.69,0,0,0-1.52-.35H171v2.69h2.85A2.39,2.39,0,0,0,175.19,135.54Z" style="fill:#6731cf"/><path d="M180.9,130.67a1.11,1.11,0,0,0,.36.4,2.71,2.71,0,0,0,.72.33c.3.1.69.21,1.15.32a11.71,11.71,0,0,1,1.37.44,3.36,3.36,0,0,1,1,.58,2.34,2.34,0,0,1,.6.8,2.69,2.69,0,0,1,.2,1.07,2.86,2.86,0,0,1-.25,1.24,2.65,2.65,0,0,1-.72.93,3.19,3.19,0,0,1-1.1.57,4.85,4.85,0,0,1-1.41.2,6.09,6.09,0,0,1-2.17-.39,5.87,5.87,0,0,1-1.92-1.18l1-1.23a6.06,6.06,0,0,0,1.45.94,3.92,3.92,0,0,0,1.65.33,2.19,2.19,0,0,0,1.27-.33,1.07,1.07,0,0,0,.46-.91,1.21,1.21,0,0,0-.09-.48.9.9,0,0,0-.33-.38,2.69,2.69,0,0,0-.68-.33,10.59,10.59,0,0,0-1.11-.33,11.41,11.41,0,0,1-1.4-.4,3.52,3.52,0,0,1-1-.56,2.37,2.37,0,0,1-.64-.81,2.91,2.91,0,0,1-.21-1.17,2.57,2.57,0,0,1,.25-1.16,2.65,2.65,0,0,1,.68-.91,3.29,3.29,0,0,1,1.06-.58,4.38,4.38,0,0,1,1.34-.2,5.64,5.64,0,0,1,1.94.31,5.78,5.78,0,0,1,1.61.92l-.92,1.3a6.65,6.65,0,0,0-1.33-.75,3.66,3.66,0,0,0-1.33-.26,1.82,1.82,0,0,0-1.18.35,1,1,0,0,0-.42.83A1.24,1.24,0,0,0,180.9,130.67Z" style="fill:#6731cf"/><path d="M190.13,127.61v9.8h-1.71v-9.8Z" style="fill:#6731cf"/><path d="M196.91,137.41h-1.74V129.2h-3.11v-1.59H200v1.59h-3.1Z" style="fill:#6731cf"/><path d="M209.08,129.16h-5.54v2.52h4.91v1.56h-4.91v2.61h5.61v1.56h-7.32v-9.8h7.25Z" style="fill:#6731cf"/><path d="M212.75,130.67a1.11,1.11,0,0,0,.36.4,2.71,2.71,0,0,0,.72.33c.3.1.69.21,1.15.32a11.71,11.71,0,0,1,1.37.44,3.36,3.36,0,0,1,1,.58,2.34,2.34,0,0,1,.6.8,2.69,2.69,0,0,1,.2,1.07,2.72,2.72,0,0,1-.26,1.24,2.51,2.51,0,0,1-.71.93,3.19,3.19,0,0,1-1.1.57,4.85,4.85,0,0,1-1.41.2,6.09,6.09,0,0,1-2.17-.39,5.77,5.77,0,0,1-1.92-1.18l1-1.23a6.06,6.06,0,0,0,1.45.94,3.92,3.92,0,0,0,1.65.33,2.14,2.14,0,0,0,1.26-.33,1.06,1.06,0,0,0,.47-.91,1.21,1.21,0,0,0-.09-.48.9.9,0,0,0-.33-.38,2.69,2.69,0,0,0-.68-.33,11.38,11.38,0,0,0-1.11-.33,11.41,11.41,0,0,1-1.4-.4,3.72,3.72,0,0,1-1-.56,2.47,2.47,0,0,1-.63-.81,2.91,2.91,0,0,1-.21-1.17,2.57,2.57,0,0,1,.25-1.16,2.65,2.65,0,0,1,.68-.91,3.18,3.18,0,0,1,1.06-.58,4.33,4.33,0,0,1,1.34-.2,5.64,5.64,0,0,1,1.94.31,5.78,5.78,0,0,1,1.61.92l-.92,1.3a6.65,6.65,0,0,0-1.33-.75,3.66,3.66,0,0,0-1.33-.26,1.82,1.82,0,0,0-1.18.35,1,1,0,0,0-.42.83A1.24,1.24,0,0,0,212.75,130.67Z" style="fill:#6731cf"/><rect x="160.81" y="63.32" width="40.29" height="30.49" style="fill:none;stroke:#fff;stroke-linecap:round;stroke-linejoin:round;stroke-width:2.2038100000000003px"/><line x1="160.81" y1="73.58" x2="201.1" y2="73.58" style="fill:none;stroke:#fff;stroke-linecap:round;stroke-linejoin:round;stroke-width:2.2038100000000003px"/><path d="M167.87,68.81a1.34,1.34,0,1,1-1.34-1.34A1.34,1.34,0,0,1,167.87,68.81Z" style="fill:#fff;fill-rule:evenodd"/><path d="M173.54,68.81a1.34,1.34,0,1,1-1.34-1.34A1.34,1.34,0,0,1,173.54,68.81Z" style="fill:#fff;fill-rule:evenodd"/><path d="M179.21,68.81a1.34,1.34,0,1,1-1.34-1.34A1.34,1.34,0,0,1,179.21,68.81Z" style="fill:#fff;fill-rule:evenodd"/><line x1="171.04" y1="80.5" x2="190.87" y2="80.5" style="fill:none;stroke:#fff;stroke-linecap:round;stroke-linejoin:round;stroke-width:2.2038100000000003px"/><line x1="175.28" y1="87.01" x2="186.62" y2="87.01" style="fill:none;stroke:#fff;stroke-linecap:round;stroke-linejoin:round;stroke-width:2.2038100000000003px"/><circle cx="402.7" cy="79.24" r="48.13" style="fill:#f1ecfa"/><circle cx="402.7" cy="79.24" r="35.37" style="stroke:#f94f24;stroke-linecap:round;stroke-miterlimit:10;stroke-width:1.89867px;fill:url(#e)"/><path d="M380.46,135h0l-3.07-4.59v7h-1.71v-9.8h1.84l3,4.63,3-4.63h1.84v9.8h-1.71v-7Z" style="fill:#6731cf"/><path d="M397.22,134.45a4.79,4.79,0,0,1-1.06,1.62,5.15,5.15,0,0,1-3.7,1.51,5.38,5.38,0,0,1-2.07-.4,4.89,4.89,0,0,1-2.66-2.7,5.24,5.24,0,0,1,0-3.92,5,5,0,0,1,2.69-2.71,5.49,5.49,0,0,1,4.14,0,5.06,5.06,0,0,1,1.61,1.08,5,5,0,0,1,1.05,1.61,5.24,5.24,0,0,1,0,3.92Zm-1.67-3.28a3.35,3.35,0,0,0-.69-1.11,3.22,3.22,0,0,0-1.05-.76,3.43,3.43,0,0,0-2.69,0,3.26,3.26,0,0,0-1,.75,3.52,3.52,0,0,0-.68,1.1,3.84,3.84,0,0,0-.24,1.35,3.76,3.76,0,0,0,.24,1.35,3.46,3.46,0,0,0,.69,1.12,3.28,3.28,0,0,0,2.4,1,3.27,3.27,0,0,0,1.34-.27,3.23,3.23,0,0,0,1-.74,3.29,3.29,0,0,0,.68-1.11,3.76,3.76,0,0,0,.24-1.35A3.84,3.84,0,0,0,395.55,131.17Z" style="fill:#6731cf"/><path d="M406.42,128.28a2.2,2.2,0,0,1,.87,1.84,2.49,2.49,0,0,1-.12.8,2.19,2.19,0,0,1-.31.61,2.08,2.08,0,0,1-.44.45,2.73,2.73,0,0,1-.52.34,4.41,4.41,0,0,1,.79.36,2.4,2.4,0,0,1,.61.48,2,2,0,0,1,.39.66,2.45,2.45,0,0,1,.14.89,2.51,2.51,0,0,1-.25,1.16,2.41,2.41,0,0,1-.74.85,3.3,3.3,0,0,1-1.14.51,5.8,5.8,0,0,1-1.49.18h-4.52v-9.8h4.38A3.73,3.73,0,0,1,406.42,128.28Zm-1.34,3.14a1.26,1.26,0,0,0,.06-2,2.1,2.1,0,0,0-1.28-.33h-2.47v2.62h2.35A2.42,2.42,0,0,0,405.08,131.42Zm.54,4.12a1.24,1.24,0,0,0,0-2,2.67,2.67,0,0,0-1.51-.35h-2.73v2.69h2.85A2.39,2.39,0,0,0,405.62,135.54Z" style="fill:#6731cf"/><path d="M411.6,127.61v9.8h-1.71v-9.8Z" style="fill:#6731cf"/><path d="M414.23,127.61h1.71v8.24h5.15v1.56h-6.86Z" style="fill:#6731cf"/><path d="M430.15,129.16h-5.54v2.52h4.91v1.56h-4.91v2.61h5.61v1.56H422.9v-9.8h7.25Z" style="fill:#6731cf"/><rect x="390.57" y="57.43" width="24.25" height="43.63" rx="3.68" ry="3.68" style="fill:none;stroke:#fff;stroke-linecap:round;stroke-linejoin:round;stroke-width:2.2038100000000003px"/><line x1="390.57" y1="61.64" x2="414.82" y2="61.64" style="fill:none;stroke:#fff;stroke-linecap:round;stroke-linejoin:round;stroke-width:2.2038100000000003px"/><line x1="390.57" y1="92.48" x2="414.82" y2="92.48" style="fill:none;stroke:#fff;stroke-linecap:round;stroke-linejoin:round;stroke-width:2.2038100000000003px"/><line x1="400.45" y1="96.16" x2="404.95" y2="96.16" style="fill:none;stroke:#fff;stroke-linecap:round;stroke-linejoin:round;stroke-width:2.2038100000000003px"/><line x1="398.36" y1="75.35" x2="405.39" y2="68.33" style="fill:none;stroke:#fff;stroke-linecap:round;stroke-linejoin:round;stroke-width:2.2038100000000003px"/><line x1="400.45" y1="80.75" x2="403.63" y2="77.56" style="fill:none;stroke:#fff;stroke-linecap:round;stroke-linejoin:round;stroke-width:2.2038100000000003px"/><circle cx="624.44" cy="79.24" r="48.13" style="fill:#f1ecfa"/><circle cx="624.44" cy="79.24" r="35.37" style="stroke:#f94f24;stroke-linecap:round;stroke-miterlimit:10;stroke-width:1.89867px;fill:url(#f)"/><path d="M615.07,127.61v9.8h-1.71v-9.8Z" style="fill:#6731cf"/><path d="M627.14,134.45a5,5,0,0,1-1.07,1.62,5.11,5.11,0,0,1-3.7,1.51,5.38,5.38,0,0,1-2.07-.4,5,5,0,0,1-1.61-1.09,5.21,5.21,0,0,1-1.05-1.61,5.38,5.38,0,0,1,0-3.92,5,5,0,0,1,2.69-2.71,5.24,5.24,0,0,1,5.76,1.07,5.34,5.34,0,0,1,1,1.61,5.38,5.38,0,0,1,0,3.92Zm-1.68-3.28a3.49,3.49,0,0,0-.68-1.11,3.37,3.37,0,0,0-1.06-.76,3.33,3.33,0,0,0-1.35-.28,3.23,3.23,0,0,0-1.33.27,3.05,3.05,0,0,0-1,.75,3.34,3.34,0,0,0-.68,1.1,3.63,3.63,0,0,0-.25,1.35,3.56,3.56,0,0,0,.25,1.35A3.43,3.43,0,0,0,620,135a3.19,3.19,0,0,0,1.06.75,3.16,3.16,0,0,0,1.34.28,3.27,3.27,0,0,0,1.34-.27,3.13,3.13,0,0,0,1-.74,3.29,3.29,0,0,0,.68-1.11,3.56,3.56,0,0,0,.25-1.35A3.63,3.63,0,0,0,625.46,131.17Z" style="fill:#6731cf"/><path d="M633.21,137.41h-1.73V129.2h-3.11v-1.59h8v1.59h-3.11Z" style="fill:#6731cf"/><path d="M634.87,81.45h.46a9.62,9.62,0,1,0,0-19.23,10,10,0,0,0-2,.2,12.12,12.12,0,0,0-21.72,4c-.26,0-.53,0-.79,0a7.56,7.56,0,0,0,0,15.12h2.75" style="fill:none;stroke:#fff;stroke-linecap:round;stroke-linejoin:round;stroke-width:2.2038100000000003px"/><path d="M626.45,74.51a2,2,0,1,1-2-2A2,2,0,0,1,626.45,74.51Z" style="fill:#fff"/><path d="M626.45,97.37a2,2,0,1,1-2-2A2,2,0,0,1,626.45,97.37Z" style="fill:#fff"/><line x1="624.44" y1="74.9" x2="624.44" y2="97.37" style="fill:none;stroke:#fff;stroke-linecap:round;stroke-linejoin:round;stroke-width:2.2038100000000003px"/><path d="M620.78,74.51a2,2,0,1,1-2-2A2,2,0,0,1,620.78,74.51Z" style="fill:#fff"/><path d="M611.45,91.27a2,2,0,1,1-2-2A2,2,0,0,1,611.45,91.27Z" style="fill:#fff"/><path d="M618.77,74.51V87.75s-.13,3.52-4.53,3.52h-4" style="fill:none;stroke:#fff;stroke-linecap:round;stroke-linejoin:round;stroke-width:2.2038100000000003px"/><path d="M628,74.51a2,2,0,1,0,2-2A2,2,0,0,0,628,74.51Z" style="fill:#fff"/><path d="M637.36,91.27a2,2,0,1,0,2-2A2,2,0,0,0,637.36,91.27Z" style="fill:#fff"/><path d="M630.05,74.51V87.75s.12,3.52,4.52,3.52h4" style="fill:none;stroke:#fff;stroke-linecap:round;stroke-linejoin:round;stroke-width:2.2038100000000003px"/><line x1="403.63" y1="159.22" x2="403.63" y2="203.52" style="fill:#fff;stroke:#f94f24;stroke-linecap:round;stroke-miterlimit:10;stroke-width:1.13494px;stroke-dasharray:3.404819965362549,2.269890069961548"/><line x1="403.63" y1="208.82" x2="403.63" y2="236.12" style="fill:#fff;stroke:#f94f24;stroke-linecap:round;stroke-miterlimit:10;stroke-width:1.13494px;stroke-dasharray:3.404819965362549,2.269890069961548"/><path d="M403.63,148.63a5.3,5.3,0,1,1-5.29,5.29A5.29,5.29,0,0,1,403.63,148.63Z" style="fill:#fff;stroke:#f94f24;stroke-linecap:round;stroke-miterlimit:10;stroke-width:2.26989px"/><path d="M628,148.63a5.3,5.3,0,1,1-5.29,5.29A5.29,5.29,0,0,1,628,148.63Z" style="fill:#fff;stroke:#f94f24;stroke-linecap:round;stroke-miterlimit:10;stroke-width:2.26989px"/><path d="M628,159.22v15.64s0,34-35,34H214.24c-35,0-35-34-35-34V159.22" style="fill:none;stroke:#f94f24;stroke-linecap:round;stroke-miterlimit:10;stroke-width:1.13494px;stroke-dasharray:3.404819965362549,2.269890069961548"/><path d="M179.22,148.63a5.3,5.3,0,1,1-5.3,5.29A5.29,5.29,0,0,1,179.22,148.63Z" style="fill:#fff;stroke:#f94f24;stroke-linecap:round;stroke-miterlimit:10;stroke-width:2.26989px"/><line x1="403.63" y1="405.1" x2="403.63" y2="360.79" style="fill:#fff;stroke:#f94f24;stroke-linecap:round;stroke-miterlimit:10;stroke-width:1.13494px;stroke-dasharray:3.404819965362549,2.269890069961548"/><path d="M403.63,415.69a5.3,5.3,0,1,0-5.29-5.3A5.3,5.3,0,0,0,403.63,415.69Z" style="fill:#fff;stroke:#f94f24;stroke-linecap:round;stroke-miterlimit:10;stroke-width:2.26989px"/><path d="M628,415.69a5.3,5.3,0,1,0-5.29-5.3A5.3,5.3,0,0,0,628,415.69Z" style="fill:#fff;stroke:#f94f24;stroke-linecap:round;stroke-miterlimit:10;stroke-width:2.26989px"/><path d="M628,405.1V389.45s0-33.95-35-33.95H214.24c-35,0-35,33.95-35,33.95V405.1" style="fill:none;stroke:#f94f24;stroke-linecap:round;stroke-miterlimit:10;stroke-width:1.13494px;stroke-dasharray:3.404819965362549,2.269890069961548"/><path d="M179.22,415.69a5.3,5.3,0,1,0-5.3-5.3A5.3,5.3,0,0,0,179.22,415.69Z" style="fill:#fff;stroke:#f94f24;stroke-linecap:round;stroke-miterlimit:10;stroke-width:2.26989px"/><path d="M403.63,203.52a5.3,5.3,0,1,1-5.29,5.3A5.3,5.3,0,0,1,403.63,203.52Z" style="fill:#fff;stroke:#f94f24;stroke-linecap:round;stroke-miterlimit:10;stroke-width:2.26989px"/><path d="M403.63,236.12a5.3,5.3,0,1,1-5.29,5.29A5.29,5.29,0,0,1,403.63,236.12Z" style="fill:#fff;stroke:#f94f24;stroke-linecap:round;stroke-miterlimit:10;stroke-width:2.26989px"/><line x1="403.63" y1="321.84" x2="403.63" y2="350.15" style="fill:#fff;stroke:#f94f24;stroke-linecap:round;stroke-miterlimit:10;stroke-width:1.13494px;stroke-dasharray:3.404819965362549,2.269890069961548"/><path d="M403.63,316.55a5.3,5.3,0,1,1-5.29,5.29A5.29,5.29,0,0,1,403.63,316.55Z" style="fill:#fff;stroke:#f94f24;stroke-linecap:round;stroke-miterlimit:10;stroke-width:2.26989px"/><path d="M403.63,350.15a5.29,5.29,0,1,1-5.29,5.29A5.29,5.29,0,0,1,403.63,350.15Z" style="fill:#fff;stroke:#f94f24;stroke-linecap:round;stroke-miterlimit:10;stroke-width:2.26989px"/></svg>