<?xml version="1.0" encoding="UTF-8"?>
<svg width="200px" height="142px" viewBox="0 0 200 142" version="1.1" xmlns="http://www.w3.org/2000/svg" xmlns:xlink="http://www.w3.org/1999/xlink">
    <!-- Generator: Sketch 52.5 (67469) - http://www.bohemiancoding.com/sketch -->
    <title>undraw_static_assets_rpm6</title>
    <desc>Created with Sketch.</desc>
    <defs>
        <linearGradient x1="49.9834446%" y1="99.9971032%" x2="49.9834446%" y2="-0.000733345336%" id="linearGradient-1">
            <stop stop-color="#808080" stop-opacity="0.25" offset="0%"></stop>
            <stop stop-color="#808080" stop-opacity="0.12" offset="54%"></stop>
            <stop stop-color="#808080" stop-opacity="0.1" offset="100%"></stop>
        </linearGradient>
        <linearGradient x1="50.0138616%" y1="100.13861%" x2="50.0138616%" y2="-0.00862391885%" id="linearGradient-2">
            <stop stop-color="#808080" stop-opacity="0.25" offset="0%"></stop>
            <stop stop-color="#808080" stop-opacity="0.12" offset="54%"></stop>
            <stop stop-color="#808080" stop-opacity="0.1" offset="100%"></stop>
        </linearGradient>
    </defs>
    <g id="Home-v1" stroke="none" stroke-width="1" fill="none" fill-rule="evenodd">
        <g id="Main-page" transform="translate(-275.000000, -8049.000000)">
            <g id="Mission----as-a-developer-v2" transform="translate(274.000000, 7658.000000)">
                <g id="Build-more-than-websites" transform="translate(1.000000, 391.000000)">
                    <g id="undraw_static_assets_rpm6">
                        <ellipse id="Oval" fill="#FF6347" opacity="0.1" cx="158.073643" cy="113.414729" rx="40.9612403" ry="7.96124031"></ellipse>
                        <g id="Group" opacity="0.5" transform="translate(117.054264, 18.798450)">
                            <path d="M5.93410853,1.27131783 C5.38178295,1.42829457 4.70542636,1.8372093 4.37209302,2.95542636 C3.71899225,5.14728682 5.23643411,6.6375969 4.73643411,8.92248062 C4.59765187,9.5285791 4.33359722,10.0989372 3.96124031,10.5968992 C3.35077519,11.4244186 2.6879845,11.8158915 2.04457364,12.3953488 C1.22843204,13.1356306 0.643603362,14.095988 0.360465116,15.1608527 C0.050196771,16.3361751 0.0242882742,17.5684895 0.284883721,18.755814 C0.513565891,19.748062 0.903100775,20.4709302 1.24418605,21.2751938 C1.66827056,22.3010266 1.99969593,23.3627553 2.23449612,24.4476744 C2.36338834,24.9760061 2.43614297,25.516469 2.45155039,26.0600775 C2.44190055,26.7823096 2.37711271,27.5027503 2.25775194,28.2151163 L1.32945736,34.6918605 C1.1884646,35.5386868 1.10365406,36.3939137 1.0755814,37.251938 C1.08771986,38.11184 1.18706572,38.9682921 1.37209302,39.8081395 C1.69767442,41.5213178 2.04844961,43.2965116 2.79457364,44.2034884 C3.54069767,45.1104651 4.8120155,44.7848837 5.59302326,42.9496124 C6.33527132,41.1937984 6.35271318,38.8507752 7.00775194,36.9748062 C8.04069767,34.0193798 10.0930233,33.622093 11.2325581,30.8023256 C12.3255814,28.0891473 11.9903101,24.7790698 12.5445736,21.6937984 C12.9321705,19.4825581 13.7868217,17.4670543 14.2887597,15.2829457 C15.0096899,12.1375969 14.9379845,8.87209302 14.3624031,6.45348837 C13.9246432,4.46623949 12.9776331,2.6269831 11.6143411,1.11627907 C11.1317829,0.583333333 10.6143411,0.108527132 10.0077519,0.0600775194 C9.3624031,0.00968992248 8.79844961,0.821705426 8.16085271,1.06589147 C7.4244186,1.35465116 6.68410853,1.05813953 5.93410853,1.27131783 Z" id="Path" fill="#FF6347"></path>
                            <path d="M9.42829457,0.224806202 C9.42829457,0.224806202 8.33527132,28.1976744 3.73837209,44.6918605" id="Path" stroke="#535461" stroke-width="2"></path>
                            <path d="M4.34496124,3.0872093 C4.34496124,3.0872093 9.25775194,7.56007752 8.3255814,16.0717054" id="Path" stroke="#535461" stroke-width="2"></path>
                            <path d="M0.222868217,15.8158915 C0.222868217,15.8158915 8.28682171,17.4379845 7.6879845,22.2616279" id="Path" stroke="#535461" stroke-width="2"></path>
                            <path d="M14.375969,6.39534884 C14.375969,6.39534884 11.1124031,9.25193798 8.20542636,17.3430233" id="Path" stroke="#535461" stroke-width="2"></path>
                            <path d="M11.1879845,30.8488372 C11.1879845,30.8488372 8.96124031,32.5930233 7.1744186,26.4864341" id="Path" stroke="#535461" stroke-width="2"></path>
                            <path d="M1.57945736,34.4166667 C1.57945736,34.4166667 6.12015504,33.8236434 6.53875969,30.9806202" id="Path" stroke="#535461" stroke-width="2"></path>
                        </g>
                        <path d="M133.965116,1.30813953 C132.841085,1.4748062 131.488372,1.99612403 130.932171,3.60271318 C129.841085,6.75387597 133.156977,9.13953488 132.393411,12.4321705 C132.16558,13.3382922 131.685836,14.1613835 131.00969,14.8062016 C129.846899,15.9515504 128.517442,16.4515504 127.257752,17.2286822 C125.998062,18.005814 124.689922,19.2286822 124.098837,21.1046512 C123.531008,22.9089147 123.777132,24.9011628 124.368217,26.3895349 C124.959302,27.877907 125.852713,28.9883721 126.651163,30.2131783 C127.621454,31.7207407 128.432648,33.3249431 129.071705,35 C129.394018,35.7634857 129.610491,36.5674341 129.715116,37.3895349 C129.817829,38.3972868 129.687984,39.4806202 129.55814,40.5406977 L128.405039,49.9864341 C128.251938,51.2422481 128.096899,52.5174419 128.184109,53.7267442 C128.282946,55.120155 128.695736,56.3372093 129.102713,57.5251938 C129.978682,60.0872093 130.916667,62.7577519 132.569767,64.1686047 C134.222868,65.5794574 136.815891,65.2771318 138.213178,62.6531008 C139.542636,60.1550388 139.29845,56.7073643 140.432171,54.0232558 C142.218992,49.7926357 146.420543,49.4496124 148.44186,45.4341085 C150.379845,41.5813953 149.296512,36.6531008 150.075581,32.1763566 C150.633721,28.9689922 152.145349,26.1007752 152.920543,22.9437984 C154.03876,18.3953488 153.501938,13.5794574 152.025194,9.95930233 C150.54845,6.33914729 148.213178,3.75775194 145.707364,1.7751938 C144.645349,0.932170543 143.51938,0.170542636 142.257752,0.0310077519 C140.916667,-0.118217054 139.844961,1.00968992 138.556202,1.29457364 C137.056202,1.60658915 135.49031,1.08139535 133.965116,1.30813953 Z" id="Path" fill="#FF6347"></path>
                        <path d="M141.073643,0.180232558 C141.073643,0.180232558 142.131783,41.244186 134.569767,64.9903101" id="Path" stroke="#535461" stroke-width="2"></path>
                        <path d="M130.889535,3.8003876 C130.889535,3.8003876 141.587209,10.9709302 140.670543,23.4050388" id="Path" stroke="#535461" stroke-width="2"></path>
                        <path d="M123.868217,22.0503876 C123.868217,22.0503876 140.751938,25.3953488 140.085271,32.4263566" id="Path" stroke="#535461" stroke-width="2"></path>
                        <path d="M152.044574,9.85465116 C152.044574,9.85465116 145.627907,13.6744186 140.573643,25.244186" id="Path" stroke="#535461" stroke-width="2"></path>
                        <path d="M148.341085,45.4883721 C148.341085,45.4883721 143.94186,47.8139535 139.517442,38.5872093" id="Path" stroke="#535461" stroke-width="2"></path>
                        <path d="M128.877907,49.5988372 C128.877907,49.5988372 138.205426,49.2635659 138.736434,45.125969" id="Path" stroke="#535461" stroke-width="2"></path>
                        <path d="M13.2267442,112.129845 C13.2267442,112.129845 14.8507752,114.261628 12.4767442,117.459302 C10.1027132,120.656977 8.14147287,123.374031 8.9379845,125.374031 C8.9379845,125.374031 12.5193798,119.418605 15.4341085,119.335271 C18.3488372,119.251938 16.4341085,115.71124 13.2267442,112.129845 Z" id="Path" fill="#FF6347"></path>
                        <path d="M13.2267442,112.129845 C13.3716583,112.334659 13.4865176,112.559157 13.5678295,112.796512 C16.4127907,116.137597 17.9263566,119.255814 15.1937984,119.335271 C12.6472868,119.408915 9.59302326,123.96124 8.86046512,125.112403 C8.88463785,125.201169 8.91375302,125.288515 8.94767442,125.374031 C8.94767442,125.374031 12.5290698,119.418605 15.4437984,119.335271 C18.3585271,119.251938 16.4341085,115.71124 13.2267442,112.129845 Z" id="Path" fill="#000000" opacity="0.1"></path>
                        <path d="M16.246124,114.837209 C16.246124,115.585271 16.1627907,116.193798 16.0523256,116.193798 C15.9418605,116.193798 15.8585271,115.587209 15.8585271,114.837209 C15.8585271,114.087209 15.9631783,114.449612 16.0658915,114.449612 C16.1686047,114.449612 16.246124,114.089147 16.246124,114.837209 Z" id="Path" fill="#FFD037"></path>
                        <path d="M17.2829457,115.728682 C16.625969,116.087209 16.0542636,116.310078 16.005814,116.21124 C15.9573643,116.112403 16.4476744,115.755814 17.1046512,115.399225 C17.7616279,115.042636 17.501938,115.302326 17.5523256,115.399225 C17.6027132,115.496124 17.9379845,115.370155 17.2829457,115.728682 Z" id="Path" fill="#FFD037"></path>
                        <path d="M4.65310078,112.129845 C4.65310078,112.129845 3.02906977,114.261628 5.40310078,117.459302 C7.77713178,120.656977 9.73449612,123.372093 8.94186047,125.372093 C8.94186047,125.372093 5.36046512,119.416667 2.44573643,119.333333 C-0.468992248,119.25 1.44186047,115.71124 4.65310078,112.129845 Z" id="Path" fill="#FF6347"></path>
                        <path d="M4.65310078,112.129845 C4.51158062,112.335228 4.39999767,112.559699 4.32170543,112.796512 C1.47674419,116.137597 -0.0368217054,119.255814 2.69573643,119.335271 C5.24224806,119.408915 8.29651163,123.96124 9.02906977,125.112403 C9.00489703,125.201169 8.97578186,125.288515 8.94186047,125.374031 C8.94186047,125.374031 5.36046512,119.418605 2.44573643,119.335271 C-0.468992248,119.251938 1.44186047,115.71124 4.65310078,112.129845 Z" id="Path" fill="#000000" opacity="0.1"></path>
                        <path d="M1.62984496,114.837209 C1.62984496,115.585271 1.71317829,116.193798 1.82364341,116.193798 C1.93410853,116.193798 2.01744186,115.587209 2.01744186,114.837209 C2.01744186,114.087209 1.9127907,114.449612 1.81007752,114.449612 C1.70736434,114.449612 1.62984496,114.089147 1.62984496,114.837209 Z" id="Path" fill="#FFD037"></path>
                        <path d="M0.593023256,115.728682 C1.25,116.087209 1.82170543,116.310078 1.87015504,116.21124 C1.91860465,116.112403 1.42829457,115.755814 0.771317829,115.399225 C0.114341085,115.042636 0.374031008,115.302326 0.323643411,115.399225 C0.273255814,115.496124 -0.0620155039,115.370155 0.593023256,115.728682 Z" id="Path" fill="#FFD037"></path>
                        <path d="M2.14728682,125.094961 C2.14728682,125.094961 6.6879845,124.955426 8.05620155,123.98062 C9.4244186,123.005814 15.0329457,121.848837 15.379845,123.399225 C15.7267442,124.949612 22.2034884,131.172481 17.0775194,131.213178 C11.9515504,131.253876 5.16666667,130.414729 3.8003876,129.583333 C2.43410853,128.751938 2.14728682,125.094961 2.14728682,125.094961 Z" id="Path" fill="#A8A8A8"></path>
                        <path d="M17.1686047,130.674419 C12.0426357,130.715116 5.25775194,129.875969 3.89147287,129.044574 C2.85077519,128.410853 2.43604651,126.137597 2.29844961,125.089147 L2.14728682,125.089147 C2.14728682,125.089147 2.43410853,128.751938 3.8003876,129.583333 C5.16666667,130.414729 11.9515504,131.255814 17.0775194,131.213178 C18.5581395,131.20155 19.0678295,130.674419 19.0406977,129.895349 C18.8352713,130.372093 18.2713178,130.666667 17.1686047,130.674419 Z" id="Path" fill="#000000" opacity="0.2"></path>
                        <path d="M190.573643,111.248062 C190.928831,110.958499 191.187675,110.567868 191.315891,110.127907 C191.412791,109.682171 191.222868,109.149225 190.796512,108.986434 C190.319767,108.804264 189.810078,109.133721 189.424419,109.468992 C189.03876,109.804264 188.594961,110.184109 188.089147,110.112403 C188.617971,109.633039 188.856353,108.911269 188.717054,108.21124 C188.69519,108.0686 188.634893,107.934607 188.542636,107.823643 C188.277132,107.540698 187.79845,107.662791 187.48062,107.885659 C186.472868,108.594961 186.19186,109.963178 186.186047,111.195736 C186.085271,110.751938 186.170543,110.28876 186.166667,109.839147 C186.162791,109.389535 186.03876,108.870155 185.655039,108.633721 C185.417091,108.505869 185.149869,108.442404 184.879845,108.449612 C184.426357,108.432171 183.922481,108.478682 183.612403,108.810078 C183.224806,109.22093 183.327519,109.912791 183.662791,110.360465 C183.998062,110.80814 184.505814,111.096899 184.974806,111.410853 C185.350685,111.634317 185.671305,111.939701 185.912791,112.304264 C185.941193,112.354823 185.964561,112.40805 185.982558,112.463178 L188.821705,112.463178 C189.457829,112.139031 190.047157,111.730282 190.573643,111.248062 Z" id="Path" fill="#FF6347"></path>
                        <path d="M28.629845,93.0852713 C34.7965116,100.926357 32.4011628,112.381783 28.4825581,121.554264 C27.1705426,124.625969 25.6860465,127.875969 26.2403101,131.168605 C26.9166667,135.195736 30.503876,138.145349 34.2868217,139.695736 C41.1666667,142.540698 49.4031008,141.862403 55.7228682,137.930233 C61.1860465,134.531008 65.0988372,129.003876 70.6550388,125.75969 C79.9573643,120.333333 91.7906977,122.381783 101.887597,126.120155 C109.031008,128.765504 116.841085,132.207364 123.939922,129.44186 C128.934109,127.503876 132.387597,122.761628 134.26938,117.742248 C135.178295,115.317829 135.837209,112.703488 137.563953,110.765504 C138.594961,109.624031 139.939922,108.812016 141.319767,108.129845 C153.916667,101.887597 169.80814,105.222868 182.032946,98.3081395 C190.290698,93.6337209 195.577519,84.8139535 197.924419,75.6182171 C200.271318,66.4224806 199.992248,56.7790698 199.397287,47.3100775 C198.974806,40.5794574 198.217054,33.3953488 193.916667,28.1996124 C189.368217,22.7054264 181.560078,20.6608527 174.503876,21.7054264 C167.447674,22.75 161.04845,26.4903101 155.428295,30.874031 C148.395349,36.3527132 141.874031,43.1763566 133.238372,45.3972868 C127.358527,46.9089147 121.172481,46.0813953 115.106589,45.7965116 C104.967054,45.3178295 94.8255814,46.377907 84.7422481,47.5406977 C75.0891473,48.6569767 65.3624031,49.8856589 56.1705426,53.0251938 C49.6627907,55.248062 44.4457364,59.2810078 38.3003876,62.0988372 C34.2945736,63.9360465 29.9263566,64.4437984 26.1356589,66.7829457 C21.4631783,69.6647287 17.1821705,74.6782946 18.3837209,80.5426357 C19.5116279,86.125969 25.3546512,88.9244186 28.629845,93.0852713 Z" id="Path" fill="#FF6347" opacity="0.1"></path>
                        <ellipse id="Oval" fill="#FF6347" opacity="0.1" cx="107.238372" cy="85.120155" rx="82.8817829" ry="7.96124031"></ellipse>
                        <ellipse id="Oval" fill="#FF6347" opacity="0.1" cx="43.5387597" cy="131.050388" rx="40.9612403" ry="7.96124031"></ellipse>
                        <path d="M85.4108527,82.6375969 L84.7616279,83.5813953 C84.7616279,83.5813953 85.4689922,84.5251938 85.5368217,84.6434109 C85.6046512,84.7616279 87.6007752,84.5852713 87.6007752,84.5852713 L87.7771318,83.877907 L87.4825581,83.0523256 L85.4108527,82.6375969 Z" id="Path" fill="#E6E6F0"></path>
                        <polygon id="Path" fill="#FDC2CC" points="63.5833333 82.1065891 62.2848837 82.3410853 63.1104651 83.9360465 63.996124 84.4069767 64.8217054 84.996124 65.0581395 84.3488372 64.4670543 83.1085271"></polygon>
                        <path d="M84.8217054,66.7674419 C84.8217054,66.7674419 91.7248062,68.4186047 93.0213178,70.255814 C93.0213178,70.255814 94.2015504,71.2596899 93.0213178,73.0872093 C91.8410853,74.9147287 90.1899225,79.0465116 90.1899225,79.0465116 C90.1899225,79.0465116 89.0096899,83.0581395 88.5387597,83.3527132 C88.0678295,83.6472868 85.3527132,83.8837209 85.1162791,82.7713178 C85.1162791,82.7713178 86.6492248,80.3527132 86.6492248,79.2306202 C86.6492248,78.1085271 89.1860465,72.8003876 89.1860465,72.8003876 C89.1860465,72.8003876 83.4050388,72.1511628 81.5755814,72.5639535 C79.746124,72.9767442 82.4031008,66.1182171 84.8217054,66.7674419 Z" id="Path" fill="#565171"></path>
                        <path d="M84.8217054,66.7674419 C84.8217054,66.7674419 91.7248062,68.4186047 93.0213178,70.255814 C93.0213178,70.255814 94.2015504,71.2596899 93.0213178,73.0872093 C91.8410853,74.9147287 90.1899225,79.0465116 90.1899225,79.0465116 C90.1899225,79.0465116 89.0096899,83.0581395 88.5387597,83.3527132 C88.0678295,83.6472868 85.3527132,83.8837209 85.1162791,82.7713178 C85.1162791,82.7713178 86.6492248,80.3527132 86.6492248,79.2306202 C86.6492248,78.1085271 89.1860465,72.8003876 89.1860465,72.8003876 C89.1860465,72.8003876 83.4050388,72.1511628 81.5755814,72.5639535 C79.746124,72.9767442 82.4031008,66.1182171 84.8217054,66.7674419 Z" id="Path" fill="#000000" opacity="0.1"></path>
                        <path d="M83.4050388,68.3604651 C83.3914729,68.7034884 83.3546512,69.0891473 83.3023256,69.503876 C82.9244186,72.5077519 81.6937984,76.9748062 81.6937984,76.9748062 C81.6937984,76.9748062 80.4554264,79.629845 80.1007752,81.3410853 C79.746124,83.0523256 77.3275194,83.4728682 77.3275194,83.4728682 C77.3275194,83.4728682 70.7189922,84.248062 69.3624031,83.9457364 C68.005814,83.6434109 65.874031,84.8313953 64.8197674,84.6531008 C63.7655039,84.4748062 63.1085271,81.998062 63.1085271,81.998062 C64.9383,82.0087984 66.7490783,81.6268167 68.4186047,80.877907 C71.1317829,79.6395349 75.0271318,80.2286822 75.0271318,80.2286822 C75.6143508,80.0581603 76.1051775,79.6528777 76.3837209,79.1085271 C76.7965116,78.2228682 76.7965116,72.8546512 76.6782946,72.5 C75.9031008,70.1744186 75.9670543,68.6821705 76.1899225,67.8120155 C76.2645222,67.4319411 76.4323343,67.0763394 76.6782946,66.7771318 L83.4050388,68.3604651 Z" id="Path" fill="#565171"></path>
                        <path d="M83.4050388,68.3604651 C83.3914729,68.7034884 83.3546512,69.0891473 83.3023256,69.503876 C82.7093023,69.5503876 81.0465116,69.5949612 79.8139535,68.8333333 C78.6511628,68.120155 76.9593023,67.877907 76.1976744,67.8023256 C76.2722741,67.4222512 76.4400862,67.0666495 76.6860465,66.7674419 L83.4050388,68.3604651 Z" id="Path" fill="#000000" opacity="0.1"></path>
                        <path d="M84.2209302,67.622093 C83.9457364,68.3972868 83.5232558,69.3062016 83.5232558,69.3062016 C83.5232558,69.3062016 81.3410853,69.6007752 79.8062016,68.6569767 C78.2713178,67.7131783 75.7945736,67.5949612 75.7945736,67.5949612 C76.1957364,67.3488372 76.4670543,66.6007752 76.6356589,65.9457364 C76.7297955,65.57538 76.8035497,65.2001396 76.8565891,64.8217054 C76.8565891,64.8217054 84.1124031,66.2965116 84.4147287,66.5329457 C84.5271318,66.625969 84.4069767,67.0949612 84.2209302,67.622093 Z" id="Path" fill="#E6E6F0"></path>
                        <path d="M97.1511628,42.755814 L88.3507752,48.0678295 L87.4767442,48.5949612 L87.4767442,46 L88.0833333,45.7093023 L95.5,42.1647287 C95.5,42.1647287 95.8546512,35.7344961 96.7984496,36.7383721 C97.7422481,37.7422481 97.1511628,42.755814 97.1511628,42.755814 Z" id="Path" fill="#FDC2CC"></path>
                        <path d="M88.3507752,48.0678295 L87.4767442,48.5949612 L87.4767442,46 L88.0833333,45.7093023 C88.1234884,46.5002631 88.2128082,47.2879599 88.3507752,48.0678295 Z" id="Path" fill="#000000" opacity="0.1"></path>
                        <path d="M81.5775194,49.0174419 L87.8895349,45.3604651 C87.8895349,45.3604651 88.0077519,48.9011628 88.7151163,49.4302326 C88.7151163,49.4302326 86.120155,50.2054264 85.1162791,51.8488372 L81.5775194,49.0174419 Z" id="Path" fill="#B45181"></path>
                        <path d="M81.5775194,49.0174419 L87.8895349,45.3604651 C87.8895349,45.3604651 88.0077519,48.9011628 88.7151163,49.4302326 C88.7151163,49.4302326 86.120155,50.2054264 85.1162791,51.8488372 L81.5775194,49.0174419 Z" id="Path" fill="#000000" opacity="0.1"></path>
                        <path d="M97.0949612,52.1356589 C97.0949612,52.1356589 94.0930233,53.4437984 92.1046512,53.9244186 C91.6572181,54.0593633 91.1892537,54.1131825 90.7228682,54.0833333 C89.3662791,53.8468992 91.0775194,52.1453488 91.0775194,52.1453488 L91.7906977,52.0348837 L95.620155,51.4379845 C95.620155,51.4379845 96.0329457,45.5387597 96.7403101,46.0116279 C97.4476744,46.4844961 97.0949612,52.1356589 97.0949612,52.1356589 Z" id="Path" fill="#FDC2CC"></path>
                        <path d="M84.4089147,46.8255814 C84.4089147,46.8255814 81.872093,48.7131783 82.8158915,51.0736434 C83.7596899,53.4341085 77.9186047,49.6569767 77.9186047,49.6569767 C77.9186047,49.6569767 79.8062016,46.8255814 80.2189922,44.7015504 C80.6317829,42.5775194 84.4089147,46.8255814 84.4089147,46.8255814 Z" id="Path" fill="#FDC2CC"></path>
                        <path d="M84.2209302,67.622093 C83.1237291,67.2088517 81.9769454,66.9417032 80.8100775,66.8275194 C79.1046512,66.6337209 77.5426357,66.3062016 76.6375969,65.9457364 C76.7317335,65.57538 76.8054877,65.2001396 76.8585271,64.8217054 C76.8585271,64.8217054 84.1143411,66.2965116 84.4166667,66.5329457 C84.5271318,66.625969 84.4069767,67.0949612 84.2209302,67.622093 Z" id="Path" fill="#000000" opacity="0.1"></path>
                        <path d="M92.1027132,53.9244186 C91.6552801,54.0593633 91.1873157,54.1131825 90.7209302,54.0833333 C89.3643411,53.8468992 91.0755814,52.1453488 91.0755814,52.1453488 L91.7887597,52.0348837 C92.0872093,52.494186 92.3914729,53.2112403 92.1027132,53.9244186 Z" id="Path" fill="#000000" opacity="0.1"></path>
                        <path d="M80.2790698,47.8875969 C80.2790698,47.8875969 77.9786822,47.8294574 77.1531008,48.7732558 C76.3275194,49.7170543 76.503876,52.2616279 76.503876,52.2616279 C76.503876,52.2616279 76.3313953,57.3565891 77.624031,60.2073643 C77.6666611,60.2993788 77.6715313,60.4044361 77.6375969,60.5 C77.624031,60.5348837 77.624031,60.5135659 77.624031,60.5135659 C77.624031,60.5135659 76.7984496,64.2306202 75.9728682,64.879845 C75.1472868,65.5290698 77.7422481,66.2965116 80.8178295,66.6492248 C83.8934109,67.001938 85.124031,67.8875969 85.124031,67.8875969 C85.124031,67.8875969 85.6550388,67.3062016 85.7054264,66 C85.755814,64.6937984 84.8856589,55.2034884 84.8856589,55.2034884 C84.8856589,55.2034884 88.129845,56.0290698 90.0775194,55.0271318 C90.0775194,55.0271318 90.9631783,55.5 91.7887597,54.2015504 C92.6143411,52.9031008 91.2073643,51.4883721 91.2073643,51.4883721 C91.2073643,51.4883721 89.9089147,52.7868217 86.3100775,51.0755814 C82.7112403,49.3643411 81.3972868,47.8294574 80.2790698,47.8875969 Z" id="Path" fill="#B45181"></path>
                        <path d="M62.6395349,82.2248062 L61.9321705,82.2248062 L61.9321705,83.2286822 L62.6395349,84.8217054 C62.6395349,84.8217054 63.5833333,84.998062 63.6434109,84.998062 C63.7034884,84.998062 64.4689922,84.8217054 64.4689922,84.8217054 L64.7054264,84.4089147 C64.7054264,84.4089147 62.1085271,83.4031008 62.6395349,82.2248062 Z" id="Path" fill="#E6E6F0"></path>
                        <path d="M84.8217054,83.1686047 L83.7596899,85.5290698 L88.244186,87.6608527 L91.7848837,87.7790698 C91.7848837,87.7790698 92.0794574,86.9534884 90.8992248,86.5406977 L89.9554264,86.3643411 C89.9554264,86.3643411 88.7170543,84.122093 88.5988372,83.0697674 C88.5988372,83.0697674 87.4186047,83.3062016 87.2422481,84.1899225 C87.2403101,84.1705426 85.5891473,84.996124 84.8217054,83.1686047 Z" id="Path" fill="#B45181"></path>
                        <path d="M62.1085271,81.9883721 L61.748062,82.2829457 L60.1627907,83.5813953 L63.8197674,88.4263566 C63.8197674,88.4263566 65.8837209,89.3120155 66.8294574,88.4263566 C66.8294574,88.4263566 67.4108527,87.8449612 66.122093,87.3643411 C66.122093,87.3643411 65.1182171,87.5406977 65.1182171,86.5387597 C65.1182171,85.5368217 65.3546512,84.4748062 65.6996124,84.2383721 C65.6996124,84.2383721 64.8139535,83.9437984 64.5794574,84.1802326 C64.3990122,84.3790598 64.2404775,84.5967201 64.1065891,84.8294574 C64.1065891,84.8294574 61.9903101,83.994186 62.1085271,81.9883721 Z" id="Path" fill="#B45181"></path>
                        <path d="M80.1027132,44.8197674 C80.0427918,45.1190732 79.9638198,45.4142474 79.8662791,45.7034884 C80.50343,47.2362247 82.244115,47.9841954 83.7945736,47.3914729 C83.9501469,47.2310188 84.1165594,47.0814418 84.2926357,46.9437984 C84.2926357,46.9437984 80.5155039,42.6957364 80.1027132,44.8197674 Z" id="Path" fill="#000000" opacity="0.1"></path>
                        <path d="M79.7771318,52.6996124 C79.7771318,52.6996124 81.6065891,55.1182171 84.2616279,55.1782946" id="Path" fill="#000000" opacity="0.1"></path>
                        <g id="Group" opacity="0.1" transform="translate(75.581395, 47.868217)" fill="#000000">
                            <path d="M15.129845,7.1996124 C15.0925563,7.18922297 15.0562434,7.17560562 15.0213178,7.15891473 C14.9644703,7.18863049 14.9063307,7.21640827 14.8468992,7.24224806 C14.9426659,7.24038523 15.0377817,7.22605271 15.129845,7.1996124 Z" id="Path"></path>
                            <path d="M15.7577519,3.8624031 C15.6935577,3.77997166 15.6249836,3.70104667 15.5523256,3.62596899 C15.5523256,3.62596899 15.1647287,4.01356589 14.2073643,4.0872093 C14.7347545,4.13957741 15.2669559,4.06240821 15.7577519,3.8624031 Z" id="Path"></path>
                            <path d="M9.82945736,7.33527132 L9.84108527,7.46124031 C10.6193418,7.60539955 11.4102026,7.67033065 12.2015504,7.65503876 C11.4023281,7.62592821 10.6078593,7.51883071 9.82945736,7.33527132 Z" id="Path"></path>
                            <path d="M5.75968992,18.7848837 C2.69186047,18.4302326 0.0968992248,17.6647287 0.914728682,17.0155039 C1.73255814,16.3662791 2.56589147,12.6492248 2.56589147,12.6492248 C2.56589147,12.6492248 2.56589147,12.6705426 2.57945736,12.6356589 C2.61339181,12.5400951 2.60852161,12.4350378 2.56589147,12.3430233 C1.27325581,9.48449612 1.44573643,4.39728682 1.44573643,4.39728682 C1.44573643,4.39728682 1.26937984,1.86046512 2.09496124,0.908914729 C2.70930233,0.205426357 4.14147287,0.0600775194 4.83333333,0.0310077519 C4.76883059,0.0260080439 4.70403763,0.0260080439 4.63953488,0.0310077519 C4.63953488,0.0310077519 2.33914729,-0.0271317829 1.51356589,0.916666667 C0.687984496,1.86046512 0.864341085,4.40503876 0.864341085,4.40503876 C0.864341085,4.40503876 0.691860465,9.5 1.98449612,12.3507752 C2.02712626,12.4427897 2.03199647,12.547847 1.99806202,12.6434109 C1.98449612,12.6782946 1.98449612,12.6569767 1.98449612,12.6569767 C1.98449612,12.6569767 1.16472868,16.3624031 0.331395349,17.0116279 C-0.501937984,17.6608527 2.10077519,18.4282946 5.17635659,18.7810078 C8.25193798,19.1337209 9.48255814,20.0193798 9.48255814,20.0193798 C9.5443013,19.9452973 9.59881334,19.8654761 9.64534884,19.7810078 C9.04651163,19.4922481 7.81395349,19.0174419 5.75968992,18.7848837 Z" id="Path"></path>
                        </g>
                        <circle id="Oval" fill="#FDC2CC" cx="82.8158915" cy="44.4069767" r="3.06782946"></circle>
                        <path d="M87.1821705,43.0348837 C86.9282946,43.6705426 86.1705426,43.9108527 85.505814,44.0755814 C84.5562016,44.3081395 83.5329457,44.5368217 82.624031,44.1763566 C82.5062747,44.1102647 82.3703947,44.0837681 82.2364341,44.1007752 C82.1284583,44.1440719 82.0383016,44.2226175 81.9806202,44.3236434 C80.9786822,45.75 81.1414729,47.6511628 80.8817829,49.375969 C80.8003876,49.9127907 80.6627907,50.4670543 80.3003876,50.8682171 C79.5949612,51.6434109 78.2635659,51.6143411 77.6143411,52.4379845 C77.1860465,52.9806202 77.1821705,53.7344961 77.1860465,54.4263566 C77.1860465,55.1640827 77.1795866,55.9024548 77.1666667,56.6414729 C77.1550388,57.125969 77.1317829,57.627907 76.9127907,58.0581395 C76.5406977,58.7868217 75.7112403,59.1337209 74.9457364,59.4147287 C74.4689922,59.5930233 73.9767442,59.7732558 73.4651163,59.7248062 C72.9534884,59.6763566 72.4418605,59.3372093 72.375969,58.8255814 C72.2848837,58.1317829 73,57.6472868 73.4922481,57.1472868 C74.2790698,56.3507752 74.6027132,55.1918605 74.6317829,54.0717054 C74.6594544,53.6193009 74.5934794,53.1660528 74.4379845,52.7403101 C74.2577519,52.3003876 73.9360465,51.9302326 73.7422481,51.496124 C73.1453488,50.1589147 73.8817829,48.6124031 74.7635659,47.4418605 C75.6453488,46.2713178 76.7286822,45.129845 76.9166667,43.6782946 C76.9330585,43.3641763 76.9778143,43.052183 77.0503876,42.746124 C77.1860465,42.3236434 77.5077519,41.1569767 77.8624031,40.8895349 C78.4301667,40.4618321 79.0967916,40.1845161 79.8003876,40.0833333 C80.3449612,40.003876 80.9011628,40.0329457 81.4418605,39.9282946 C82.0736434,39.8062016 82.6608527,39.505814 83.2926357,39.3934109 C84.6589147,39.1511628 86.1414729,40.7383721 86.7403101,41.9903101 C86.9050388,42.374031 87.3372093,42.6453488 87.1821705,43.0348837 Z" id="Path" fill="#000000" opacity="0.1"></path>
                        <path d="M87.1821705,42.9166667 C86.9282946,43.5523256 86.1705426,43.7926357 85.505814,43.9573643 C84.5562016,44.1899225 83.5329457,44.4186047 82.624031,44.0581395 C82.5062747,43.9920476 82.3703947,43.965551 82.2364341,43.9825581 C82.1284583,44.0258549 82.0383016,44.1044005 81.9806202,44.2054264 C80.9786822,45.6317829 81.1414729,47.5329457 80.8817829,49.2577519 C80.8003876,49.7945736 80.6627907,50.3488372 80.3003876,50.75 C79.5949612,51.5251938 78.2635659,51.496124 77.6143411,52.3197674 C77.1860465,52.8624031 77.1821705,53.6162791 77.1860465,54.3081395 C77.1860465,55.0458656 77.1795866,55.7842377 77.1666667,56.5232558 C77.1550388,57.0077519 77.1317829,57.5096899 76.9127907,57.9399225 C76.5406977,58.6686047 75.7112403,59.0155039 74.9457364,59.2965116 C74.4689922,59.4748062 73.9767442,59.6550388 73.4651163,59.6065891 C72.9534884,59.5581395 72.4418605,59.2189922 72.375969,58.7073643 C72.2848837,58.0135659 73,57.5290698 73.4922481,57.0290698 C74.2790698,56.2325581 74.6027132,55.0736434 74.6317829,53.9534884 C74.6594544,53.5010839 74.5934794,53.0478358 74.4379845,52.622093 C74.2577519,52.1821705 73.9360465,51.8120155 73.7422481,51.377907 C73.1453488,50.0406977 73.8817829,48.494186 74.7635659,47.3236434 C75.6453488,46.1531008 76.7286822,45.0116279 76.9166667,43.5600775 C76.9330585,43.2459592 76.9778143,42.933966 77.0503876,42.627907 C77.1860465,42.2054264 77.5077519,41.0387597 77.8624031,40.7713178 C78.4301667,40.343615 79.0967916,40.066299 79.8003876,39.9651163 C80.3449612,39.8856589 80.9011628,39.9147287 81.4418605,39.8100775 C82.0736434,39.6879845 82.6608527,39.3875969 83.2926357,39.2751938 C84.6589147,39.0329457 86.1414729,40.620155 86.7403101,41.872093 C86.9050388,42.255814 87.3372093,42.5271318 87.1821705,42.9166667 Z" id="Path" fill="#F569BC"></path>
                        <polygon id="Path" fill="#F7DF1E" points="97.0949612 37.0193798 148.096899 37.0193798 148.096899 88.0174419 97.0949612 88.0174419"></polygon>
                        <path d="M110.507752,79.6375969 L114.410853,77.2751938 C115.164729,78.6104651 115.848837,79.7403101 117.492248,79.7403101 C119.067829,79.7403101 120.060078,79.124031 120.060078,76.7286822 L120.060078,60.4321705 L124.852713,60.4321705 L124.852713,76.7945736 C124.852713,81.7577519 121.945736,84.0174419 117.697674,84.0174419 C113.864341,84.0174419 111.639535,82.0310078 110.50969,79.6356589 M127.455426,79.122093 L131.356589,76.8624031 C132.383721,78.5406977 133.718992,79.7693798 136.081395,79.7693798 C138.067829,79.7693798 139.333333,78.7771318 139.333333,77.4069767 C139.333333,75.7635659 138.032946,75.1821705 135.844961,74.2228682 L134.647287,73.7093023 C131.189922,72.2383721 128.895349,70.3895349 128.895349,66.4864341 C128.895349,62.8914729 131.633721,60.1531008 135.912791,60.1531008 C138.959302,60.1531008 141.145349,61.2151163 142.724806,63.9864341 L138.994186,66.3837209 C138.172481,64.9108527 137.282946,64.3294574 135.912791,64.3294574 C134.50969,64.3294574 133.618217,65.2189922 133.618217,66.3837209 C133.618217,67.8217054 134.507752,68.4031008 136.562016,69.2906977 L137.75969,69.8042636 C141.829457,71.5484496 144.127907,73.3294574 144.127907,77.3352713 C144.127907,81.6492248 140.738372,84.0116279 136.182171,84.0116279 C131.724806,84.0116279 128.856589,81.879845 127.46124,79.1162791" id="Shape" fill="#000000" fill-rule="nonzero"></path>
                        <path d="M170.468992,116.319767 C170.468992,116.319767 168.478682,116.459302 167.25,114.327519 C167.009861,113.898285 166.726058,113.494985 166.403101,113.124031 C166.006446,112.473628 165.800308,111.724951 165.80814,110.963178 C165.875969,109.383721 164.228682,100.732558 164.228682,100.732558 C164.228682,100.732558 164.434109,97.4379845 162.786822,95.377907 C161.70155,94.0213178 160.141473,90.1453488 159.20155,87.6414729 C159.264599,87.6976841 159.34045,87.7376057 159.422481,87.7577519 L159.383721,87.5426357 L159.422481,87.5426357 L158.936047,84.870155 C158.227833,84.0560624 157.630882,83.1515127 157.160853,82.1802326 L157.271318,82.1569767 L158.728682,81.8507752 C158.728682,81.8507752 161.096899,78.4844961 161.248062,76.8294574 L161.44186,76.8294574 L161.715116,76.8294574 C163.907232,76.8174683 166.098213,76.9319998 168.277132,77.1724806 C168.277132,77.1627907 168.261628,77.120155 168.242248,77.0523256 C168.149995,76.7192772 168.078795,76.3807527 168.02907,76.0387597 L168.164729,76.0387597 L169.521318,75.9496124 C169.521318,75.9496124 174.189922,70.7325581 172.472868,69.7713178 C170.755814,68.8100775 168.97093,74.0968992 168.97093,74.0968992 L168.389535,74.2015504 L168.232558,74.2306202 C168.248062,74.2073643 168.263566,74.1860465 168.281008,74.1647287 C168.29845,74.1434109 160.660853,73.8236434 159.484496,71.9670543 C159.484496,71.9670543 156.120155,69.2887597 155.982558,67.5096899 C155.932088,66.7572267 155.465373,66.096047 154.773256,65.7965116 C154.3576,65.5981079 153.897264,65.5119201 153.437984,65.5465116 L151.862403,65.6550388 L151.972868,65.8488372 L151.928295,65.8488372 C151.829444,65.6223462 151.746555,65.3892193 151.680233,65.1511628 L151.713178,65.1511628 C151.70155,65.1027132 151.69186,65.0542636 151.682171,65.005814 C152.657715,64.7757523 153.498539,64.1604954 154.012986,63.3002861 C154.527432,62.4400767 154.671658,61.4082212 154.412791,60.4399225 C154.56694,60.4597055 154.723242,60.4551276 154.875969,60.4263566 C155.457364,60.3081395 155.866279,59.7189922 155.881783,59.129845 C155.881783,59.0910853 155.881783,59.0523256 155.881783,59.0155039 C155.881783,59.0155039 155.881783,59 155.881783,58.9922481 C155.870028,58.3927139 155.588854,57.8303644 155.116279,57.4612403 C154.802326,57.1996124 154.426357,57.0135659 154.147287,56.7228682 C153.80814,56.375969 153.622093,55.9108527 153.358527,55.501938 C152.917034,54.8255298 152.26222,54.3160029 151.498062,54.0542636 C150.930233,53.8604651 150.232558,53.8410853 149.796512,54.248062 C149.571705,54.4593023 149.44186,54.7655039 149.189922,54.9437984 C148.827519,55.2034884 148.335271,55.125969 147.891473,55.1782946 C147.075354,55.3038386 146.375473,55.8278406 146.025194,56.5755814 C145.807626,57.0366367 145.702679,57.5427752 145.718992,58.0523256 C145.714197,58.4019026 145.755906,58.7505653 145.843023,59.0891473 C145.928295,59.4263566 146.054264,59.751938 146.147287,60.0891473 C146.341085,60.7868217 146.385659,61.5213178 146.608527,62.2093023 C146.758265,62.7199298 147.057242,63.1741318 147.467054,63.5135659 L147.401163,63.7965116 C147.358527,63.7965116 146.28876,64.0348837 145.550388,65.6492248 C144.968992,66.9224806 142.99031,68.2364341 142.120155,68.7674419 C141.79234,68.9680419 141.55905,69.2921323 141.472868,69.6666667 C141.389296,70.0411752 141.352195,70.4245555 141.362403,70.8081395 C141.346899,71.6356589 141.51938,72.7810078 142.184109,74.2325581 C143.693798,77.5271318 144.792636,78.9689922 144.792636,78.9689922 C144.792636,78.9689922 144.875969,79.9786822 144.881783,81.0426357 C144.881783,81.8352713 144.823643,82.624031 144.655039,83.0193798 C144.511628,83.3527132 144.46124,84.2034884 144.472868,85.1763566 C144.472868,87.0406977 144.655039,89.4728682 144.655039,89.4728682 C144.655039,89.4728682 145.180233,89.5736434 145.992248,89.6918605 L146.498062,98.5910853 C146.561648,99.6687963 146.215521,100.730714 145.52907,101.563953 C145.17426,102.002198 144.76457,102.393 144.310078,102.726744 C142.868217,103.755814 139.77907,114.604651 139.77907,114.604651 C139.77907,114.604651 139.930233,114.604651 140.178295,114.633721 L139.228682,117.282946 C139.228682,117.282946 143.023256,120.189922 145.331395,119.395349 C145.581404,119.313883 145.84382,119.277145 146.106589,119.286822 C146.562016,119.286822 147.536822,118.926357 146.994186,118.45155 C145.946353,117.486572 144.958099,116.45884 144.034884,115.374031 C144.109142,115.410356 144.180422,115.452476 144.248062,115.5 L144.248062,115.478682 L144.281008,115.5 C144.281008,115.5 144.281008,115.393411 144.306202,115.218992 L144.273256,115.207364 C144.343023,114.494186 144.563953,112.687984 145.001938,112.478682 C145.550388,112.203488 149.602713,104.170543 149.602713,104.170543 L153.653101,93.7344961 C153.653101,93.7344961 156.879845,99.2965116 159.625969,100.255814 L159.625969,102.581395 C159.625969,102.581395 161.135659,109.447674 161.686047,110.20155 C162.236434,110.955426 161.686047,113.976744 161.686047,113.976744 C161.794621,114.101033 161.919073,114.210499 162.056202,114.302326 L161.616279,116.790698 C161.616279,116.790698 164.775194,116.653101 170.129845,118.300388 C170.125969,118.310078 172.186047,117.418605 170.468992,116.319767 Z M157.837209,80.4127907 L157.168605,80.5794574 L157.036822,80.6124031 C157.023256,80.5290698 157.013566,80.4806202 157.013566,80.4806202 C156.860159,80.5498601 156.695206,80.5899481 156.527132,80.5988372 C156.290145,79.8481479 156.153304,79.0694561 156.120155,78.2829457 C155.895199,77.3416229 155.758304,76.3814131 155.71124,75.4147287 C155.71124,74.9147287 155.794574,74.4786822 155.982558,74.2325581 L156.205426,74.25 L156.360465,74.3972868 L156.372093,74.4069767 L156.45155,74.4786822 L156.534884,74.5523256 L156.54845,74.5639535 L156.637597,74.6434109 L156.653101,74.6569767 L156.744186,74.7344961 L156.846899,74.8197674 L156.870155,74.8391473 L156.978682,74.9263566 L157.085271,75.0116279 L157.110465,75.0310078 L157.228682,75.120155 L157.253876,75.1375969 L157.366279,75.2209302 L157.385659,75.2344961 L157.513566,75.3255814 L157.544574,75.3468992 L157.680233,75.4399225 L157.69186,75.4399225 L157.823643,75.5271318 L157.854651,75.5484496 L157.996124,75.6395349 L158.027132,75.6589147 L158.158915,75.7403101 L158.184109,75.755814 L158.335271,75.8449612 L158.372093,75.8662791 L158.52907,75.9534884 L158.540698,75.9534884 L158.693798,76.0348837 L158.73062,76.0542636 L158.893411,76.1356589 L158.926357,76.1511628 L159.077519,76.2209302 L159.106589,76.2344961 L159.277132,76.3081395 L159.317829,76.3255814 L159.494186,76.3972868 C158.399225,77.6027132 157.837209,80.4127907 157.837209,80.4127907 Z" id="Shape" fill="url(#linearGradient-1)" fill-rule="nonzero"></path>
                        <path d="M140.903101,113.001938 L139.629845,116.554264 C139.629845,116.554264 143.118217,119.228682 145.385659,118.674419 C145.727271,118.5894 146.075375,118.533004 146.426357,118.505814 C146.895349,118.47093 147.703488,118.127907 147.20155,117.693798 C145.593023,116.286822 143.447674,113.672481 143.447674,113.672481 L140.903101,113.001938 Z" id="Path" fill="#4F4D59"></path>
                        <path d="M162.083333,112.666667 L161.48062,116.085271 C161.48062,116.085271 164.563953,115.95155 169.792636,117.560078 C169.792636,117.560078 171.804264,116.687984 170.127907,115.622093 C170.127907,115.622093 168.189922,115.755814 166.978682,113.684109 C165.767442,111.612403 165.040698,111.874031 165.040698,111.874031 L162.083333,112.666667 Z" id="Path" fill="#4F4D59"></path>
                        <path d="M146.125969,87.8682171 L146.707364,98.2713178 C146.771054,99.3798222 146.403717,100.470028 145.682171,101.313953 C145.356121,101.701452 144.984582,102.048266 144.575581,102.346899 C143.168605,103.352713 140.151163,113.94186 140.151163,113.94186 C140.151163,113.94186 143.569767,114.135659 144.507752,114.813953 C144.507752,114.813953 144.70155,112.133721 145.244186,111.864341 C145.786822,111.594961 149.734496,103.753876 149.734496,103.753876 L153.689922,93.5658915 C153.689922,93.5658915 156.839147,98.9922481 159.521318,99.9341085 L159.521318,102.213178 C159.521318,102.213178 160.996124,108.916667 161.532946,109.653101 C162.069767,110.389535 161.532946,113.335271 161.532946,113.335271 C161.532946,113.335271 163.083333,115.273256 166.625969,113.20155 C166.625969,113.20155 165.486434,111.928295 165.554264,110.385659 C165.622093,108.843023 164.003876,100.399225 164.003876,100.399225 C164.003876,100.399225 164.197674,97.1821705 162.596899,95.1666667 C160.996124,93.1511628 158.335271,85.4515504 158.335271,85.4515504 L156.49031,81.4825581 L146.125969,87.8682171 Z" id="Path" fill="#C48C96"></path>
                        <g id="Group" opacity="0.1" transform="translate(140.116279, 81.395349)" fill="#000000">
                            <path d="M0.686046512,32.5445736 C0.686046512,32.5445736 3.70155039,21.9554264 5.11046512,20.9496124 C5.54264582,20.6328485 5.93330374,20.2630257 6.27325581,19.8488372 C6.96108246,19.016353 7.30739054,17.9538799 7.24224806,16.875969 L6.65116279,6.47093023 L16.5348837,0.377906977 L16.4011628,0.0891472868 L6.04844961,6.47286822 L6.63953488,16.877907 C6.70467736,17.9558178 6.35836928,19.018291 5.67054264,19.8507752 C5.33059056,20.2649637 4.93993264,20.6347865 4.50775194,20.9515504 C3.10271318,21.9554264 0.0833333333,32.5445736 0.0833333333,32.5445736 C0.0833333333,32.5445736 3.50193798,32.7383721 4.43992248,33.4166667 C4.43992248,33.4166667 4.43992248,33.3120155 4.46511628,33.1434109 C3.14534884,32.6899225 0.686046512,32.5445736 0.686046512,32.5445736 Z" id="Path"></path>
                            <path d="M22.0678295,31.9418605 C22.0678295,31.9418605 22.6046512,28.9922481 22.0678295,28.2596899 C21.5310078,27.5271318 20.0562016,20.8197674 20.0562016,20.8197674 L20.0562016,18.5368217 C17.375969,17.5988372 14.2248062,12.1686047 14.2248062,12.1686047 L13.9922481,12.7771318 C14.9011628,14.2189922 17.3255814,17.7965116 19.4554264,18.5406977 L19.4554264,20.8197674 C19.4554264,20.8197674 20.9302326,27.5232558 21.4670543,28.2596899 C22.003876,28.996124 21.4670543,31.9418605 21.4670543,31.9418605 C21.4670543,31.9418605 22.2151163,32.8837209 23.8662791,32.755814 C22.6317829,32.6531008 22.0678295,31.9418605 22.0678295,31.9418605 Z" id="Path"></path>
                        </g>
                        <path d="M169.187984,76.2054264 L167.872093,76.2926357 L167.178295,76.3391473 L167.178295,74.6627907 L168.089147,74.498062 L168.653101,74.3953488 C168.653101,74.3953488 170.397287,69.2344961 172.071705,70.1724806 C173.746124,71.1104651 169.187984,76.2054264 169.187984,76.2054264 Z" id="Path" fill="#714B4F"></path>
                        <path d="M148.075581,62.3895349 C148.075581,62.3895349 147.203488,65.7403101 146.936047,67.8158915 C146.668605,69.8914729 153.168605,68.2189922 153.168605,68.2189922 C153.168605,68.2189922 150.687984,65.2034884 152.096899,63.5949612 L148.075581,62.3895349 Z" id="Path" fill="#714B4F"></path>
                        <path d="M155.112403,76.3430233 L155.246124,77.6162791 L153.168605,77.4825581 L151.091085,75.6724806 L149.013566,69.8391473 L147.676357,67.7596899 L146.670543,66.4864341 L147.073643,64.9360465 C147.073643,64.9360465 147.257752,65.0968992 147.567829,65.3333333 C148.589147,66.1085271 150.982558,67.7383721 152.732558,67.2887597 C152.813456,67.2683572 152.893056,67.243118 152.97093,67.2131783 L155.585271,71.7034884 L155.112403,76.3430233 Z" id="Path" fill="#E6E6F0"></path>
                        <path d="M147.606589,64.5426357 C147.606589,64.5426357 146.534884,64.7364341 145.796512,66.3527132 C145.23062,67.5891473 143.315891,68.872093 142.46124,69.3895349 C142.13185,69.5906459 141.897714,69.9163385 141.812016,70.2926357 C141.639535,71.0562016 141.573643,72.4806202 142.511628,74.5290698 C143.986434,77.746124 145.05814,79.1531008 145.05814,79.1531008 C145.05814,79.1531008 145.325581,82.370155 144.924419,83.3081395 C144.523256,84.246124 144.924419,89.4069767 144.924419,89.4069767 C144.924419,89.4069767 151.96124,90.748062 154.30814,89.4069767 C156.655039,88.0658915 156.319767,82.9050388 156.319767,82.9050388 C156.319767,82.9050388 158.531008,87.5968992 159.335271,87.7306202 L158.866279,85.1162791 C158.866279,85.1162791 156.251938,82.3003876 156.118217,78.6821705 C156.118217,78.6821705 155.313953,75.3972868 155.984496,74.5271318 C155.984496,74.5271318 167.312016,75.4651163 167.982558,74.6608527 C167.982558,74.6608527 160.542636,74.3255814 159.403101,72.5155039 C159.403101,72.5155039 156.118217,69.9011628 155.984496,68.1589147 C155.944877,67.4939321 155.5645,66.8966151 154.978682,66.5794574 C154.522795,66.3201068 153.999646,66.2033266 153.476744,66.244186 L151.963178,66.3488372 C151.963178,66.3488372 154.577519,70.9728682 154.443798,71.5813953 C154.310078,72.1899225 154.577519,77.0775194 154.577519,77.0775194 C154.577519,77.0775194 151.552326,70.5755814 150.22093,69.8391473 C148.889535,69.1027132 147.337209,66.0717054 147.337209,66.0717054 L147.604651,64.5406977" id="Path" fill="#000000" opacity="0.1"></path>
                        <path d="M155.112403,76.3430233 L155.246124,77.6162791 L153.168605,77.4825581 L151.091085,75.6724806 L149.013566,69.8391473 L147.676357,67.7596899 L146.670543,66.4864341 L147.073643,64.9360465 C147.073643,64.9360465 147.257752,65.0968992 147.567829,65.3333333 L147.474806,65.8624031 C147.474806,65.8624031 149.025194,68.8895349 150.356589,69.627907 C151.687984,70.3662791 154.713178,76.8662791 154.713178,76.8662791 C154.713178,76.8662791 154.445736,71.9728682 154.579457,71.370155 C154.670543,70.9612403 153.496124,68.7015504 152.732558,67.2887597 C152.813456,67.2683572 152.893056,67.243118 152.97093,67.2131783 L155.585271,71.7034884 L155.112403,76.3430233 Z" id="Path" fill="#000000" opacity="0.1"></path>
                        <path d="M167.872093,76.2926357 L167.178295,76.3391473 L167.178295,74.6627907 L168.089147,74.498062 C167.771318,74.9186047 167.782946,75.6627907 167.872093,76.2926357 Z" id="Path" fill="#000000" opacity="0.1"></path>
                        <path d="M147.606589,64.3430233 C147.606589,64.3430233 146.534884,64.5368217 145.796512,66.1531008 C145.23062,67.3895349 143.315891,68.6724806 142.46124,69.1899225 C142.13185,69.3910335 141.897714,69.7167261 141.812016,70.0930233 C141.639535,70.8565891 141.573643,72.2810078 142.511628,74.3294574 C143.986434,77.5465116 145.05814,78.9534884 145.05814,78.9534884 C145.05814,78.9534884 145.325581,82.1705426 144.924419,83.1085271 C144.523256,84.0465116 144.924419,89.2073643 144.924419,89.2073643 C144.924419,89.2073643 151.96124,90.5484496 154.30814,89.2073643 C156.655039,87.8662791 156.319767,82.7054264 156.319767,82.7054264 C156.319767,82.7054264 158.52907,87.3895349 159.335271,87.5329457 L158.866279,84.9186047 C158.866279,84.9186047 156.251938,82.1027132 156.118217,78.4844961 C156.118217,78.4844961 155.313953,75.1996124 155.984496,74.3294574 C155.984496,74.3294574 158.598837,77.1453488 161.54845,77.0775194 C163.697835,77.0645822 165.846158,77.1765279 167.982558,77.4127907 C167.982558,77.4127907 167.312016,75.2674419 167.982558,74.4631783 C167.982558,74.4631783 160.542636,74.127907 159.403101,72.3178295 C159.403101,72.3178295 156.118217,69.7034884 155.984496,67.9612403 C155.944877,67.2962577 155.5645,66.6989406 154.978682,66.3817829 C154.522795,66.1224324 153.999646,66.0056521 153.476744,66.0465116 L151.963178,66.1511628 C151.963178,66.1511628 154.577519,70.7751938 154.443798,71.3837209 C154.310078,71.9922481 154.577519,76.879845 154.577519,76.879845 C154.577519,76.879845 151.552326,70.374031 150.22093,69.6375969 C148.889535,68.9011628 147.337209,65.877907 147.337209,65.877907 L147.604651,64.3468992" id="Path" fill="#C48C96"></path>
                        <path d="M146.125969,71.379845 C146.125969,71.379845 147.734496,76.8062016 148.672481,77.4786822 C149.610465,78.1511628 155.30814,81.5678295 156.984496,80.7635659 C156.984496,80.7635659 157.387597,82.7751938 156.790698,83.244186 C156.790698,83.244186 150.540698,83 150.49031,82.9767442 C150.49031,82.9767442 146.401163,82.4399225 145.73062,80.4302326 C145.060078,78.4205426 144.255814,75.003876 144.255814,75.003876 L146.125969,71.379845 Z" id="Path" fill="#000000" opacity="0.1"></path>
                        <ellipse id="Oval" fill="#BA7855" cx="154.71124" cy="77.1782946" rx="1" ry="1"></ellipse>
                        <ellipse id="Oval" fill="#BA7855" cx="155.379845" cy="79.5232558" rx="1" ry="1"></ellipse>
                        <g id="Group" opacity="0.1" transform="translate(141.666667, 64.147287)" fill="#000000">
                            <path d="M3.72868217,24.9864341 C3.72868217,24.9864341 3.3255814,19.8255814 3.72868217,18.8875969 C4.13178295,17.9496124 3.8624031,14.7325581 3.8624031,14.7325581 C3.8624031,14.7325581 2.79069767,13.3255814 1.31589147,10.1085271 C0.375968992,8.06007752 0.44379845,6.63565891 0.61627907,5.87209302 C0.701977965,5.49579591 0.936113246,5.17010325 1.26550388,4.96899225 C2.12015504,4.44573643 4.03294574,3.16860465 4.60077519,1.93217054 C5.01744186,1.0251938 5.53875969,0.565891473 5.91472868,0.337209302 L5.93992248,0.189922481 C5.93992248,0.189922481 4.86821705,0.38372093 4.12984496,2 C3.56395349,3.23643411 1.64922481,4.51937984 0.794573643,5.03682171 C0.465183013,5.2379327 0.231047732,5.56362536 0.145348837,5.93992248 C-0.0271317829,6.70348837 -0.0930232558,8.12790698 0.84496124,10.1763566 C2.31976744,13.3934109 3.39147287,14.8003876 3.39147287,14.8003876 C3.39147287,14.8003876 3.65891473,18.0174419 3.25775194,18.9554264 C2.85658915,19.8934109 3.25775194,25.0542636 3.25775194,25.0542636 C3.25775194,25.0542636 8.28488372,26.0116279 11.2577519,25.498062 C8.25581395,25.8565891 3.72868217,24.9864341 3.72868217,24.9864341 Z" id="Path"></path>
                            <path d="M12.7751938,7.23255814 C12.6841085,7.64534884 12.7751938,10.0736434 12.8507752,11.5620155 C13.1744186,12.2228682 13.377907,12.6627907 13.377907,12.6627907 C13.377907,12.6627907 13.1104651,7.76937984 13.244186,7.16666667 C13.372093,6.58527132 11.0174419,2.3875969 10.7829457,1.97286822 L10.2945736,2.00581395 C10.2945736,2.00581395 12.9108527,6.62984496 12.7751938,7.23255814 Z" id="Path"></path>
                            <path d="M20.3507752,12.8624031 C17.4011628,12.9302326 14.7868217,10.1143411 14.7868217,10.1143411 C14.708431,10.2235234 14.6512385,10.3464543 14.6182171,10.4767442 C15.3934109,11.1976744 17.5251938,12.9825581 19.8817829,12.9282946 C22.0311688,12.9153574 24.179491,13.0273031 26.3158915,13.2635659 C26.3158915,13.2635659 26.3023256,13.2189922 26.2810078,13.1434109 C24.3110108,12.9397547 22.3312027,12.8459402 20.3507752,12.8624031 Z" id="Path"></path>
                            <path d="M15.1182171,18.4922481 C15.1182171,18.4922481 15.1453488,18.9108527 15.129845,19.5387597 C15.8275194,20.9224806 17.0968992,23.2887597 17.6647287,23.3837209 L17.5658915,22.8333333 C16.5910853,21.6085271 15.1182171,18.4922481 15.1182171,18.4922481 Z" id="Path"></path>
                        </g>
                        <path d="M158.664729,81.9631783 L157.24031,82.2635659 L156.116279,82.5 L156.718992,80.8236434 L157.139535,80.7189922 L157.792636,80.5562016 C157.792636,80.5562016 158.73062,75.8643411 160.608527,76.1996124 C162.486434,76.5348837 158.664729,81.9631783 158.664729,81.9631783 Z" id="Path" fill="#714B4F"></path>
                        <path d="M157.242248,82.2693798 L156.118217,82.505814 L156.72093,80.8294574 L157.141473,80.7248062 C157.234679,81.234035 157.268497,81.7523573 157.242248,82.2693798 Z" id="Path" fill="#000000" opacity="0.1"></path>
                        <path d="M146.125969,71.246124 C146.125969,71.246124 147.734496,76.6724806 148.672481,77.3449612 C149.610465,78.0174419 155.30814,81.4341085 156.984496,80.629845 C156.984496,80.629845 157.387597,82.6414729 156.790698,83.1104651 C156.790698,83.1104651 150.540698,82.8662791 150.49031,82.8430233 C150.49031,82.8430233 146.401163,82.3062016 145.73062,80.2965116 C145.060078,78.2868217 144.255814,74.870155 144.255814,74.870155 L146.125969,71.246124 Z" id="Path" fill="#C48C96"></path>
                        <path d="M148.141473,62.5329457 C148.141473,62.5329457 148.005814,63.0581395 147.823643,63.8217054 C148.586465,65.2670147 150.223433,66.0215608 151.817829,65.6627907 C151.656977,64.9748062 151.69186,64.2790698 152.162791,63.7403101 L148.141473,62.5329457 Z" id="Path" fill="#000000" opacity="0.1"></path>
                        <circle id="Oval" fill="#714B4F" cx="150.957364" cy="61.996124" r="3.62015504"></circle>
                        <path d="M154.100775,61 C154.362987,61.0732368 154.637687,61.0904056 154.906977,61.0503876 C155.480056,60.8952891 155.880479,60.3785378 155.887597,59.7848837 C155.877268,59.1997093 155.603042,58.6505449 155.141473,58.2906977 C154.835271,58.0348837 154.468992,57.8546512 154.187984,57.5697674 C153.856589,57.2306202 153.674419,56.7771318 153.412791,56.377907 C152.981863,55.7177589 152.342734,55.2205067 151.596899,54.9651163 C151.042636,54.7713178 150.362403,54.755814 149.936047,55.1589147 C149.717054,55.3662791 149.589147,55.6627907 149.344961,55.8391473 C148.99031,56.0910853 148.50969,56.0174419 148.077519,56.0678295 C147.282376,56.1887162 146.599477,56.6972583 146.255814,57.4244186 C145.925111,58.1546175 145.861991,58.9779233 146.077519,59.75 C146.160853,60.0794574 146.284884,60.3972868 146.374031,60.7189922 C146.567829,61.4011628 146.606589,62.1162791 146.823643,62.7887597 C147.040698,63.4612403 147.488372,64.120155 148.166667,64.3217054 C148.11319,63.5668977 148.262394,62.8115118 148.598837,62.1337209 C148.654277,61.9855029 148.763637,61.8636838 148.905039,61.7926357 C149.025819,61.7616244 149.152476,61.7616244 149.273256,61.7926357 C150.123295,61.9183799 150.990545,61.7428733 151.724806,61.2965116 C151.982558,61.1414729 152.383721,60.6065891 152.656977,60.5542636 C153.00969,60.494186 153.732558,60.9186047 154.100775,61 Z" id="Path" fill="#000000" opacity="0.1"></path>
                        <path d="M154.100775,60.8662791 C154.362987,60.9395159 154.637687,60.9566847 154.906977,60.9166667 C155.480056,60.7615681 155.880479,60.2448169 155.887597,59.6511628 C155.877268,59.0659884 155.603042,58.5168239 155.141473,58.1569767 C154.835271,57.9011628 154.468992,57.7209302 154.187984,57.4360465 C153.856589,57.0968992 153.674419,56.6434109 153.412791,56.244186 C152.981863,55.584038 152.342734,55.0867857 151.596899,54.8313953 C151.042636,54.6375969 150.362403,54.622093 149.936047,55.0251938 C149.717054,55.2325581 149.589147,55.5290698 149.344961,55.7054264 C148.99031,55.9573643 148.50969,55.8837209 148.077519,55.9341085 C147.282376,56.0549953 146.599477,56.5635373 146.255814,57.2906977 C145.925111,58.0208966 145.861991,58.8442024 146.077519,59.6162791 C146.160853,59.9457364 146.284884,60.2635659 146.374031,60.5852713 C146.567829,61.2674419 146.606589,61.9825581 146.823643,62.6550388 C147.040698,63.3275194 147.488372,63.9864341 148.166667,64.1879845 C148.114738,63.4334727 148.265275,62.6787835 148.602713,62.001938 C148.658153,61.85372 148.767513,61.7319008 148.908915,61.6608527 C149.029695,61.6298415 149.156352,61.6298415 149.277132,61.6608527 C150.127171,61.786597 150.994421,61.6110904 151.728682,61.1647287 C151.986434,61.0096899 152.387597,60.4748062 152.660853,60.4224806 C153.00969,60.3604651 153.732558,60.7848837 154.100775,60.8662791 Z" id="Path" fill="#503F43"></path>
                        <polygon id="Path" fill="#E44D26" points="190.215116 48.9186047 187.261628 82 173.986434 85.6821705 160.748062 82 157.79845 48.9186047"></polygon>
                        <polygon id="Path" fill="#F16529" points="174.005814 82.8682171 184.732558 79.8953488 187.251938 51.624031 174.005814 51.624031"></polygon>
                        <path d="M168.265504,59.7403101 L174.005814,59.7403101 L174.005814,55.6821705 L163.831395,55.6821705 L163.928295,56.7713178 L164.926357,67.9534884 L174.007752,67.9534884 L174.007752,63.8953488 L168.637597,63.8953488 L168.265504,59.7403101 Z M169.187984,69.9825581 L165.118217,69.9825581 L165.686047,76.3546512 L173.988372,78.6686047 L174.007752,78.6686047 L174.007752,74.4341085 L173.99031,74.4341085 L169.47093,73.2131783 L169.187984,69.9825581 Z" id="Shape" fill="#EBEBEB" fill-rule="nonzero"></path>
                        <path d="M160.815891,39.9263566 L162.877907,39.9263566 L162.877907,41.9631783 L164.763566,41.9631783 L164.763566,39.9263566 L166.825581,39.9263566 L166.825581,46.0968992 L164.763566,46.0968992 L164.763566,44.0310078 L162.877907,44.0310078 L162.877907,46.0968992 L160.815891,46.0968992 L160.815891,39.9263566 Z M169.536822,41.9728682 L167.72093,41.9728682 L167.72093,39.9263566 L173.414729,39.9263566 L173.414729,41.9728682 L171.598837,41.9728682 L171.598837,46.0968992 L169.53876,46.0968992 L169.53876,41.9728682 L169.536822,41.9728682 Z M174.319767,39.9263566 L176.47093,39.9263566 L177.794574,42.0949612 L179.116279,39.9263566 L181.267442,39.9263566 L181.267442,46.0968992 L179.213178,46.0968992 L179.213178,43.0387597 L177.794574,45.2325581 L177.75969,45.2325581 L176.339147,43.0387597 L176.339147,46.0968992 L174.319767,46.0968992 L174.319767,39.9263566 Z M182.292636,39.9263566 L184.354651,39.9263566 L184.354651,44.0562016 L187.261628,44.0562016 L187.261628,46.0949612 L182.29845,46.0949612 L182.29845,39.9263566 L182.292636,39.9263566 Z" id="Shape" fill="#000000" fill-rule="nonzero"></path>
                        <path d="M173.992248,67.9534884 L178.988372,67.9534884 L178.517442,73.2170543 L173.992248,74.4379845 L173.992248,78.6686047 L182.312016,76.3624031 L182.372093,75.6763566 L183.325581,64.9922481 L183.424419,63.9031008 L173.992248,63.9031008 L173.992248,67.9612403 L173.992248,67.9534884 Z M173.992248,59.7306202 L173.992248,59.7403101 L183.794574,59.7403101 L183.875969,58.8275194 L184.069767,56.7693798 L184.166667,55.6802326 L173.992248,55.6802326 L173.992248,59.7286822 L173.992248,59.7306202 Z" id="Shape" fill="#FFFFFF" fill-rule="nonzero"></path>
                        <path d="M71.2655039,73.3410853 C70.8875969,72.2344961 70.3430233,70.8217054 69.9089147,70.5 C69.8827625,70.4791013 69.8541203,70.4615254 69.8236434,70.4476744 L69.7693798,70.4476744 L69.7693798,69.0813953 L68.75,69.244186 C68.5864017,68.7503562 68.4626209,68.2442158 68.379845,67.7306202 C68.5806919,67.9315404 68.8826747,67.9919369 69.1453488,67.8837209 C69.127907,67.8565891 69.1143411,67.8275194 69.0988372,67.7984496 L69.1453488,67.7790698 C68.9848924,67.4959325 68.9001243,67.1762167 68.8992248,66.8507752 C68.9076826,66.5538372 68.95525,66.25931 69.0406977,65.9748062 C69.2228682,65.3449612 69.5310078,64.755814 69.7034884,64.124031 C69.8136951,63.7160681 69.8658875,63.2946153 69.8585271,62.872093 C69.8637533,62.1562322 69.7004362,61.4491888 69.3817829,60.8081395 C69.3027204,60.6235938 69.1788156,60.4617182 69.0213178,60.3372093 C68.8779248,60.2577674 68.7304321,60.1859617 68.5794574,60.122093 C68.326753,59.9518369 68.1090045,59.7347462 67.9379845,59.4825581 C67.2140428,58.6011312 66.2448471,57.9543263 65.1531008,57.624031 C64.8688514,57.5184845 64.5607947,57.4943232 64.2635659,57.5542636 C63.5794574,57.748062 63.3294574,58.5872093 62.7751938,59.0310078 C62.2848837,59.4186047 61.6124031,59.4631783 61,59.5949612 C60.3713104,59.7019004 59.792623,60.0051516 59.3468992,60.4612403 C59.0570943,60.79253 58.8991496,61.2187736 58.9031008,61.6589147 C58.8691695,62.0765434 59.0548934,62.4817592 59.3934109,62.7286822 C59.7770027,62.9809115 60.2532706,63.048442 60.6918605,62.9127907 C60.3497606,64.0944635 60.5160045,65.3652726 61.1505574,66.4191822 C61.7851103,67.4730918 62.8304666,68.2145925 64.0348837,68.4651163 L64.1550388,68.6782946 C64.5215591,69.3618598 64.799631,70.0892751 64.9825581,70.8430233 C64.0445736,71.375969 63.0193798,71.874031 62.4011628,71.9205426 C62.3766319,72.1622299 62.3319019,72.4014381 62.2674419,72.6356589 C62.1230012,73.2238384 61.8451619,73.7708967 61.4554264,74.2344961 C60.6143411,75.1802326 56.8294574,82.3313953 56.8294574,82.3313953 C56.8294574,82.3313953 56.7093023,82.6162791 56.5155039,83.1065891 C54.1647287,83.3953488 50.3294574,83.8120155 49.2577519,83.5968992 L45.0523256,79.6007752 C45.0523256,79.6007752 43.6957364,80.6375969 43.8120155,81.8972868 L43.0542636,81.1763566 C43.0542636,81.1763566 39.0581395,84.2248062 45.3682171,86.2151163 L54.9689922,87.3294574 C54.0542636,90.0891473 53.2015504,93.3003876 53.4651163,95.0484496 L53.5445736,95.0484496 C53.7282055,95.0481311 53.9115484,95.0338783 54.0930233,95.005814 L54.0755814,95.3158915 L53.1511628,111.872093 C53.1511628,111.872093 52.9399225,114.920543 55.7790698,116.28876 C55.7790698,116.28876 59.25,126.488372 57.8817829,127.645349 C57.8817829,127.645349 58.0445736,127.73062 58.3178295,127.850775 L55.4631783,130.370155 C55.4631783,130.370155 53.3604651,130.895349 52.2034884,130.790698 C51.7825325,130.733279 51.3855411,131.000998 51.2810078,131.412791 C51.2810078,131.434109 51.2810078,131.455426 51.2693798,131.478682 L51.2693798,131.505814 C51.2693798,131.527132 51.2693798,131.550388 51.2693798,131.573643 C51.2693798,131.596899 51.2693798,131.591085 51.2693798,131.598837 C51.2693798,131.606589 51.2693798,131.637597 51.2693798,131.656977 L51.2693798,131.682171 C51.2693798,131.705426 51.2693798,131.726744 51.2829457,131.75 L51.2829457,131.775194 C51.2894057,131.799742 51.2971576,131.823643 51.3062016,131.846899 L51.3062016,131.870155 C51.3158915,131.893411 51.3275194,131.916667 51.3391473,131.939922 L51.3391473,131.955426 C51.3527132,131.978682 51.3662791,132.001938 51.3817829,132.025194 L51.3953488,132.044574 C51.4121447,132.069121 51.4308786,132.093669 51.4515504,132.118217 L51.4670543,132.137597 C51.4883721,132.162791 51.5116279,132.186047 51.5368217,132.21124 L51.5484496,132.21124 L51.625969,132.277132 L51.6434109,132.290698 L51.7383721,132.358527 L51.7616279,132.374031 L51.872093,132.437984 L51.8895349,132.437984 L52.0077519,132.496124 L52.0251938,132.496124 L52.1627907,132.552326 L52.1918605,132.563953 L52.3449612,132.614341 L52.370155,132.614341 L52.5348837,132.656977 L52.5484496,132.656977 L52.7422481,132.693798 L52.7790698,132.693798 L52.9728682,132.722868 L53.0096899,132.722868 L53.2325581,132.744186 C53.6647287,132.777132 54.248062,132.78876 54.9224806,132.786822 C54.9224806,132.786822 54.9224806,132.804264 54.9224806,132.812016 C54.9224806,132.819767 54.9224806,132.850775 54.9224806,132.870155 L54.9224806,132.895349 C54.9224806,132.918605 54.9224806,132.939922 54.9360465,132.963178 L54.9360465,132.988372 C54.9425065,133.01292 54.9502584,133.036822 54.9593023,133.060078 L54.9593023,133.083333 C54.9689922,133.106589 54.9806202,133.129845 54.9922481,133.153101 L54.9922481,133.168605 C55.005814,133.19186 55.0193798,133.215116 55.0348837,133.238372 L55.0484496,133.257752 C55.0652455,133.2823 55.0839793,133.306848 55.1046512,133.331395 L55.120155,133.350775 C55.1414729,133.375969 55.1647287,133.399225 55.1899225,133.424419 L55.1996124,133.424419 L55.2771318,133.49031 L55.2945736,133.503876 L55.3895349,133.571705 L55.4127907,133.587209 L55.5213178,133.651163 L55.5387597,133.651163 L55.6569767,133.709302 L55.6744186,133.709302 L55.8120155,133.765504 L55.8410853,133.777132 L55.994186,133.827519 L56.0193798,133.827519 L56.1841085,133.870155 L56.1976744,133.870155 L56.3914729,133.906977 L56.4282946,133.906977 L56.622093,133.936047 L56.6589147,133.936047 L56.8817829,133.957364 C59.6162791,134.168605 68.3430233,133.536822 68.3430233,133.536822 L68.3430233,133.511628 L68.3430233,133.48062 C68.4302326,133.073643 68.8488372,130.707364 67.3604651,128.957364 C67.4050388,128.910853 67.4476744,128.862403 67.4883721,128.812016 C67.4883721,128.812016 66.3255814,126.813953 66.9631783,126.184109 C67.6007752,125.554264 63.8837209,114.715116 63.8837209,114.715116 C63.8837209,114.715116 61.8856589,111.560078 63.0426357,107.984496 C64.1996124,104.408915 62.9379845,100.51938 62.9379845,100.51938 C62.9379845,100.51938 65.6996124,99.7015504 65.75,96.3042636 C65.75,96.2015504 65.75,96.0949612 65.75,95.9883721 C65.8077462,95.9968013 65.8660645,96.0006892 65.9244186,96 C65.963129,96.0027655 66.0019873,96.0027655 66.0406977,96 C66.0406977,96 65.5155039,94.1065891 66.1453488,92.7403101 C66.7751938,91.374031 68.1434109,92.6356589 69.4050388,87.0620155 C70.3178295,83.0290698 71.120155,78.3914729 71.496124,76.1337209 C71.6505579,75.1980611 71.5713354,74.2387357 71.2655039,73.3410853 Z M47.2693798,85.1627907 L46.3100775,84.251938 C46.627907,84.3837209 46.9806202,84.5116279 47.374031,84.6395349 L50.9883721,85.0639535 C49.375969,85.2093023 47.870155,85.2906977 47.2693798,85.1686047 L47.2693798,85.1627907 Z" id="Shape" fill="url(#linearGradient-2)" fill-rule="nonzero"></path>
                        <path d="M56.4224806,84.6317829 C56.4224806,84.6317829 48.9844961,85.6647287 47.4341085,85.3546512 L43.3023256,81.4282946 C43.3023256,81.4282946 39.375969,84.4244186 45.5755814,86.3875969 L57.1453488,87.7306202 L56.4224806,84.6317829 Z" id="Path" fill="#FDC2CC"></path>
                        <path d="M56.4224806,84.6317829 C56.4224806,84.6317829 48.9844961,85.6647287 47.4341085,85.3546512 L43.3023256,81.4282946 C43.3023256,81.4282946 39.375969,84.4244186 45.5755814,86.3875969 L57.1453488,87.7306202 L56.4224806,84.6317829 Z" id="Path" fill="#000000" opacity="0.05"></path>
                        <polygon id="Path" fill="#264DE4" points="41.8624031 87.2383721 25.7887597 82.7810078 22.2073643 42.6065891 61.5658915 42.6065891 57.9806202 82.7751938"></polygon>
                        <polygon id="Path" fill="#2965F1" points="54.9108527 80.2189922 57.9748062 45.8934109 41.8895349 45.8934109 41.8895349 83.8217054"></polygon>
                        <path d="M30.4282946,60.7868217 L30.870155,65.7131783 L41.8972868,65.7131783 L41.8972868,60.7868217 L30.4282946,60.7868217 Z M29.5406977,50.8139535 L29.9883721,55.7403101 L41.8953488,55.7403101 L41.8953488,50.8139535 L29.5310078,50.8139535 L29.5406977,50.8139535 Z M41.8953488,73.5833333 L41.874031,73.5833333 L36.3856589,72.1007752 L36.0348837,68.1705426 L31.0794574,68.1705426 L31.7693798,75.9069767 L41.8624031,78.7151163 L41.8856589,78.7151163 L41.8953488,73.5833333 Z" id="Shape" fill="#EBEBEB" fill-rule="nonzero"></path>
                        <path d="M31.4709302,31.6841085 L37.4379845,31.6841085 L37.4379845,34.1802326 L33.9651163,34.1802326 L33.9651163,36.6763566 L37.4379845,36.6763566 L37.4379845,39.1724806 L31.4709302,39.1724806 L31.4709302,31.6841085 Z M38.6414729,31.6841085 L44.6085271,31.6841085 L44.6085271,33.8546512 L41.127907,33.8546512 L41.127907,34.2887597 L44.6007752,34.2887597 L44.6007752,39.2810078 L38.6317829,39.2810078 L38.6317829,37.001938 L42.1046512,37.001938 L42.1046512,36.5678295 L38.6317829,36.5678295 L38.6317829,31.6841085 L38.6414729,31.6841085 Z M45.8120155,31.6841085 L51.7790698,31.6841085 L51.7790698,33.8546512 L48.2887597,33.8546512 L48.2887597,34.2887597 L51.7616279,34.2887597 L51.7616279,39.2810078 L45.7926357,39.2810078 L45.7926357,37.001938 L49.2655039,37.001938 L49.2655039,36.5678295 L45.7926357,36.5678295 L45.7926357,31.6841085 L45.8120155,31.6841085 Z" id="Shape" fill="#000000" fill-rule="nonzero"></path>
                        <polygon id="Path" fill="#FFFFFF" points="53.3236434 60.7868217 54.2131783 50.8139535 41.8624031 50.8139535 41.8624031 55.7403101 48.8062016 55.7403101 48.3585271 60.7790698 41.8624031 60.7790698 41.8624031 65.7054264 47.9302326 65.7054264 47.3488372 72.1007752 41.8624031 73.5872093 41.8624031 78.7131783 51.9631783 75.9127907 52.0368217 75.0794574 53.1996124 62.1065891 53.3197674 60.7829457"></polygon>
                        <path d="M59.1104651,126.573643 L55.494186,129.775194 C55.494186,129.775194 53.4282946,130.292636 52.2926357,130.187984 C51.1569767,130.083333 50.6395349,131.943798 53.3255814,132.151163 C56.0116279,132.358527 64.5852713,131.738372 64.5852713,131.738372 C64.5852713,131.738372 65.4108527,128.432171 62.9321705,126.573643 L59.1104651,126.573643 Z" id="Path" fill="#47465A"></path>
                        <path d="M59.1104651,126.573643 L55.494186,129.775194 C55.494186,129.775194 53.4282946,130.292636 52.2926357,130.187984 C51.1569767,130.083333 50.6395349,131.943798 53.3255814,132.151163 C56.0116279,132.358527 64.5852713,131.738372 64.5852713,131.738372 C64.5852713,131.738372 65.4108527,128.432171 62.9321705,126.573643 L59.1104651,126.573643 Z" id="Path" fill="#000000" opacity="0.05"></path>
                        <path d="M64.7131783,130.310078 C64.7070433,130.686838 64.6635487,131.06206 64.5833333,131.430233 C64.5833333,131.430233 56.0096899,132.050388 53.3236434,131.843023 C52.0310078,131.744186 51.4825581,131.261628 51.3856589,130.800388 C51.2674419,131.331395 51.7364341,132.031008 53.3236434,132.156977 C56.0096899,132.364341 64.5833333,131.744186 64.5833333,131.744186 C64.684329,131.273141 64.7279278,130.791602 64.7131783,130.310078 Z" id="Path" fill="#FFFFFF" opacity="0.3"></path>
                        <path d="M63.3430233,68.0096899 C63.3430233,68.0096899 65.6162791,71.2112403 64.7887597,73.3817829 C63.9612403,75.5523256 69.127907,71.1085271 69.127907,71.1085271 C69.127907,71.1085271 67.4748062,68.2034884 68.3023256,65.1027132 L63.3430233,68.0096899 Z" id="Path" fill="#FDC2CC"></path>
                        <path d="M62.7228682,127.813953 L59.1104651,131.015504 C59.1104651,131.015504 57.0445736,131.532946 55.9089147,131.428295 C54.7732558,131.323643 54.255814,133.184109 56.9418605,133.391473 C59.627907,133.598837 68.2015504,132.978682 68.2015504,132.978682 C68.2015504,132.978682 69.0271318,129.672481 66.5484496,127.813953 L62.7228682,127.813953 Z" id="Path" fill="#47465A"></path>
                        <path d="M63.7616279,127.091085 C63.2228682,127.755814 62.4631783,128.011628 61.6686047,128.050388 C59.8624031,128.135659 57.874031,127.091085 57.874031,127.091085 C59.2170543,125.955426 55.8081395,115.934109 55.8081395,115.934109 C53.0193798,114.591085 53.2248062,111.594961 53.2248062,111.594961 L54.127907,95.3352713 L54.3565891,91.25 L57.25,89.494186 L59.5290698,91.2383721 L61.6918605,92.8972868 C61.8327528,93.4250376 61.9235937,93.9648922 61.9631783,94.5096899 C62.2151163,98.3062016 59.2131783,99.1996124 59.2131783,99.1996124 C59.2131783,99.1996124 60.4534884,103.021318 59.3158915,106.534884 C58.1782946,110.04845 60.1414729,113.147287 60.1414729,113.147287 C60.1414729,113.147287 63.8604651,123.891473 63.2422481,124.511628 C62.624031,125.131783 63.7616279,127.091085 63.7616279,127.091085 Z" id="Path" fill="#565171"></path>
                        <path d="M63.7616279,127.091085 C63.2228682,127.755814 62.4631783,128.011628 61.6686047,128.050388 C59.8624031,128.135659 57.874031,127.091085 57.874031,127.091085 C59.2170543,125.955426 55.8081395,115.934109 55.8081395,115.934109 C53.0193798,114.591085 53.2248062,111.594961 53.2248062,111.594961 L54.127907,95.3352713 L54.3565891,91.25 L57.25,89.494186 L59.5290698,91.2383721 L61.6918605,92.8972868 C61.8327528,93.4250376 61.9235937,93.9648922 61.9631783,94.5096899 C62.2151163,98.3062016 59.2131783,99.1996124 59.2131783,99.1996124 C59.2131783,99.1996124 60.4534884,103.021318 59.3158915,106.534884 C58.1782946,110.04845 60.1414729,113.147287 60.1414729,113.147287 C60.1414729,113.147287 63.8604651,123.891473 63.2422481,124.511628 C62.624031,125.131783 63.7616279,127.091085 63.7616279,127.091085 Z" id="Path" fill="#000000" opacity="0.05"></path>
                        <path d="M67.372093,128.329457 C65.6162791,130.498062 61.4844961,128.329457 61.4844961,128.329457 C61.5676998,128.252813 61.6297695,128.156037 61.6647287,128.04845 C62.4224806,125.988372 59.1085271,116.139535 59.1085271,116.139535 C56.3197674,114.796512 56.0077519,111.594961 56.0077519,111.594961 L55.2771318,95.0406977 L55.1821705,92.8972868 L59.5290698,91.2383721 L60.8643411,90.7286822 L65.3120155,94.1375969 C65.5029824,94.8437983 65.5968686,95.5727204 65.5910853,96.3042636 C65.5348837,99.6395349 62.8275194,100.445736 62.8275194,100.445736 C62.8275194,100.445736 64.0678295,104.267442 62.9302326,107.781008 C61.7926357,111.294574 63.7616279,114.383721 63.7616279,114.383721 C63.7616279,114.383721 67.4806202,125.127907 66.8624031,125.748062 C66.244186,126.368217 67.372093,128.329457 67.372093,128.329457 Z" id="Path" fill="#565171"></path>
                        <path d="M65.5910853,96.3042636 C64.6976744,96.1763566 62.8895349,95.1007752 61.9612403,94.5174419 C61.6065891,94.2945736 61.379845,94.1453488 61.379845,94.1453488 C61.379845,94.1453488 60.4496124,91.5620155 57.9709302,93.5251938 C57.164574,94.1801254 56.2539855,94.6950338 55.2771318,95.0484496 C54.9039757,95.1805815 54.5192005,95.277262 54.127907,95.3372093 L54.3565891,91.251938 L57.25,89.496124 L59.5290698,91.2403101 L60.8643411,90.7306202 L65.3120155,94.1375969 C65.5029824,94.8437983 65.5968686,95.5727204 65.5910853,96.3042636 Z" id="Path" fill="#000000" opacity="0.1"></path>
                        <path d="M71.1821705,76.4806202 C70.8139535,78.6976744 70.0193798,83.2635659 69.127907,87.2151163 C67.8875969,92.6899225 66.5445736,91.4496124 65.9263566,92.7926357 C65.3081395,94.1356589 65.8236434,95.994186 65.8236434,95.994186 C64.7906977,96.0968992 61.3817829,93.8255814 61.3817829,93.8255814 C61.3817829,93.8255814 60.4515504,91.2422481 57.9728682,93.2054264 C55.494186,95.1686047 53.5310078,95.0639535 53.5310078,95.0639535 C53.0135659,91.6550388 56.8372093,82.5639535 56.8372093,82.5639535 C56.8372093,82.5639535 60.5562016,75.5387597 61.3817829,74.6182171 C61.7648602,74.1631609 62.038062,73.626041 62.1802326,73.0484496 C62.2436491,72.8186841 62.2877305,72.5840154 62.3120155,72.3468992 C63.6550388,72.244186 66.9631783,69.9709302 66.9631783,69.9709302 L69.5465116,69.5581395 L69.5465116,70.9011628 C69.5770765,70.9148477 69.605739,70.932436 69.6317829,70.9534884 C70.0562016,71.2771318 70.6007752,72.6569767 70.9631783,73.744186 C71.2599027,74.6244825 71.3351177,75.5643372 71.1821705,76.4806202 Z" id="Path" fill="#E1A0A7"></path>
                        <path d="M59.1104651,86.1821705 L57.7751938,86.0271318 L47.5406977,84.8391473 C41.3391473,82.875969 45.2674419,79.879845 45.2674419,79.879845 L49.3992248,83.8062016 C50.5910853,84.0445736 55.2674419,83.4883721 57.3624031,83.2248062 C57.9903101,83.1434109 58.3875969,83.0891473 58.3875969,83.0891473 L59.1104651,86.1821705 Z" id="Path" fill="#FDC2CC"></path>
                        <path d="M69.127907,72.2364341 C69.127907,72.2364341 66.4418605,70.0678295 62.4050388,77.0910853 C58.3682171,84.1143411 57.4457364,82.9786822 57.4457364,82.9786822 C57.4457364,82.9786822 58.2713178,86.0794574 57.8585271,86.6976744 C57.8585271,86.6976744 60.6472868,86.4903101 61.6802326,86.6976744 C62.7131783,86.9050388 69.1182171,78.8468992 69.1182171,78.8468992 C69.1182171,78.8468992 72.4341085,74.3023256 69.127907,72.2364341 Z" id="Path" fill="#000000" opacity="0.1"></path>
                        <path d="M69.0251938,71.8236434 C69.0251938,71.8236434 66.3391473,69.6550388 62.3100775,76.6782946 C58.2810078,83.7015504 57.3507752,82.5658915 57.3507752,82.5658915 C57.3507752,82.5658915 60.5523256,86.0775194 61.5852713,86.2848837 C62.6182171,86.4922481 69.0232558,78.4341085 69.0232558,78.4341085 C69.0232558,78.4341085 72.3313953,73.8895349 69.0251938,71.8236434 Z" id="Path" fill="#000000" opacity="0.1"></path>
                        <path d="M57.7732558,86.0329457 C57.8158915,85.2674419 57.5271318,83.9224806 57.3604651,83.2248062 C57.9883721,83.1434109 58.3856589,83.0891473 58.3856589,83.0891473 L59.1085271,86.1899225 L57.7732558,86.0329457 Z" id="Path" fill="#000000" opacity="0.1"></path>
                        <path d="M69.127907,72.0290698 C69.127907,72.0290698 66.4418605,69.8604651 62.4050388,76.8856589 C58.3682171,83.9108527 57.4457364,82.7732558 57.4457364,82.7732558 C57.4457364,82.7732558 58.2713178,85.874031 57.8585271,86.4922481 C57.8585271,86.4922481 60.6472868,86.2848837 61.6802326,86.4922481 C62.7131783,86.6996124 69.1182171,78.6414729 69.1182171,78.6414729 C69.1182171,78.6414729 72.4341085,74.0949612 69.127907,72.0290698 Z" id="Path" fill="#E1A0A7"></path>
                        <path d="M68.4127907,65.3139535 L63.4457364,68.2034884 C63.655923,68.5083609 63.8499876,68.8240393 64.0271318,69.1492248 C64.3128916,69.2072641 64.6037545,69.2364803 64.8953488,69.2364341 C66.2189922,69.2364341 66.8333333,67.8468992 67.6337209,66.9108527 C67.5755814,66.1666667 68.1841085,66.1472868 68.4127907,65.3139535 Z" id="Path" fill="#000000" opacity="0.1"></path>
                        <circle id="Oval" fill="#FDC2CC" cx="64.7887597" cy="64.6957364" r="4.33914729"></circle>
                        <path d="M59.3042636,61.1860465 C59.7418725,60.7373012 60.3104304,60.4387744 60.9282946,60.3333333 C61.5310078,60.2034884 62.1918605,60.1647287 62.6724806,59.7790698 C63.2170543,59.3430233 63.4612403,58.5135659 64.1337209,58.3275194 C64.4258858,58.2690798 64.7285571,58.2932398 65.0077519,58.3972868 C66.0804923,58.7215342 67.0328541,59.3568918 67.744186,60.2228682 C67.9124991,60.4713409 68.1269804,60.6851643 68.375969,60.8527132 C68.5242898,60.9154351 68.6691945,60.9859467 68.8100775,61.0639535 C68.9643628,61.1865871 69.0855981,61.3457917 69.1627907,61.5271318 C69.6469561,62.5051419 69.7585552,63.6259544 69.4767442,64.6802326 C69.3081395,65.3023256 69.005814,65.879845 68.8255814,66.5 C68.6453488,67.120155 68.6007752,67.8217054 68.9282946,68.375969 C68.6104651,68.5387597 68.2093023,68.3333333 68.0096899,68.0368217 C67.8100775,67.7403101 67.75,67.375969 67.6453488,67.0329457 C67.4395045,66.3595845 67.0519037,65.7560539 66.5251938,65.2887597 C66.1996124,65.001938 65.6182171,64.8081395 65.3914729,65.1782946 C65.3042636,65.3217054 65.3100775,65.505814 65.2344961,65.6550388 C65.0872093,65.9476744 64.6531008,66.005814 64.375969,65.8488372 C64.1030578,65.660459 63.9113328,65.3759861 63.8391473,65.0523256 C63.4147287,63.6124031 62.6879845,62.7073643 61.1492248,63.3217054 C60.5678295,63.5503876 59.8992248,63.7093023 59.3468992,63.3217054 C58.6395349,62.8023256 58.7810078,61.7732558 59.3042636,61.1860465 Z" id="Path" fill="#000000" opacity="0.1"></path>
                        <path d="M59.3042636,61.0813953 C59.7418725,60.63265 60.3104304,60.3341232 60.9282946,60.2286822 C61.5310078,60.0988372 62.1918605,60.0600775 62.6724806,59.6744186 C63.2170543,59.2383721 63.4612403,58.4089147 64.1337209,58.2228682 C64.4258858,58.1644286 64.7285571,58.1885886 65.0077519,58.2926357 C66.0804923,58.6168831 67.0328541,59.2522406 67.744186,60.1182171 C67.9124991,60.3666897 68.1269804,60.5805132 68.375969,60.748062 C68.5242898,60.8107839 68.6691945,60.8812955 68.8100775,60.9593023 C68.9643628,61.0819359 69.0855981,61.2411405 69.1627907,61.4224806 C69.6469561,62.4004907 69.7585552,63.5213032 69.4767442,64.5755814 C69.3081395,65.1976744 69.005814,65.7751938 68.8255814,66.3953488 C68.6453488,67.0155039 68.6007752,67.7170543 68.9282946,68.2713178 C68.6104651,68.4341085 68.2093023,68.2286822 68.0096899,67.9321705 C67.8100775,67.6356589 67.75,67.2713178 67.6453488,66.9282946 C67.4395045,66.2549334 67.0519037,65.6514028 66.5251938,65.1841085 C66.1996124,64.8972868 65.6182171,64.7034884 65.3914729,65.0736434 C65.3042636,65.2170543 65.3100775,65.4011628 65.2344961,65.5503876 C65.0872093,65.8430233 64.6531008,65.9011628 64.375969,65.744186 C64.1030578,65.5558078 63.9113328,65.2713349 63.8391473,64.9476744 C63.4147287,63.5077519 62.6879845,62.6027132 61.1492248,63.2170543 C60.5678295,63.4457364 59.8992248,63.6046512 59.3468992,63.2170543 C58.6395349,62.6996124 58.7810078,61.6705426 59.3042636,61.0813953 Z" id="Path" fill="#8F5A6A"></path>
                        <path d="M69.625969,70.9457364 L67.5271318,70.9457364 C67.5271318,70.9457364 63.3953488,73.0116279 63.2926357,72.9089147 C63.2228682,72.8391473 62.5833333,72.9593023 62.1782946,73.0426357 C62.2417111,72.8128701 62.2857925,72.5782015 62.3100775,72.3410853 C63.6531008,72.2383721 66.9612403,69.9651163 66.9612403,69.9651163 L69.5445736,69.5523256 L69.5445736,70.8953488 C69.5736833,70.9087168 69.6010236,70.9256417 69.625969,70.9457364 Z" id="Path" fill="#000000" opacity="0.05"></path>
                        <path d="M68.3275194,131.54845 C68.3213844,131.92521 68.2778898,132.300432 68.1976744,132.668605 C68.1976744,132.668605 59.624031,133.28876 56.9379845,133.081395 C55.6453488,132.982558 55.0968992,132.5 55,132.03876 C54.8817829,132.569767 55.3507752,133.26938 56.9379845,133.395349 C59.624031,133.602713 68.1976744,132.982558 68.1976744,132.982558 C68.2986701,132.511513 68.3422689,132.029974 68.3275194,131.54845 Z" id="Path" fill="#FFFFFF" opacity="0.3"></path>
                        <g id="Group" opacity="0.05" transform="translate(53.488372, 70.736434)" fill="#000000">
                            <path d="M3.50193798,22.3662791 C2.10852713,23.4709302 0.875968992,23.9166667 0.0658914729,24.1104651 C0.0658914729,24.1879845 0.0813953488,24.2635659 0.0930232558,24.3372093 C0.0930232558,24.3372093 2.05620155,24.4399225 4.53488372,22.4786822 C4.91894887,22.1495865 5.37294329,21.9123164 5.8624031,21.7848837 C5.32170543,21.5193798 4.5503876,21.5368217 3.50193798,22.3662791 Z" id="Path"></path>
                            <path d="M17.5213178,2.99806202 C17.1511628,1.91085271 16.6143411,0.532945736 16.1899225,0.207364341 C16.1638785,0.186311971 16.1352161,0.16872363 16.1046512,0.15503876 C16.1046512,0.15503876 15.25,0.184108527 15.2790698,0.207364341 C15.7034884,0.531007752 16.1182171,1.80813953 16.4883721,2.89341085 C16.788329,3.77563182 16.8655549,4.71832037 16.7131783,5.6375969 C16.3449612,7.85465116 15.5503876,12.4205426 14.6589147,16.372093 C13.4186047,21.8468992 12.0755814,20.6065891 11.4573643,21.9496124 C10.9496124,23.0503876 11.2034884,24.496124 11.3139535,24.9825581 C11.6480345,25.1497528 12.0142353,25.2429555 12.3875969,25.255814 C12.3875969,25.255814 11.870155,23.3972868 12.4903101,22.0542636 C13.1104651,20.7112403 14.4534884,21.9515504 15.6918605,16.4767442 C16.5891473,12.5155039 17.377907,7.9496124 17.746124,5.74224806 C17.8985006,4.82297153 17.8212747,3.88028298 17.5213178,2.99806202 Z" id="Path"></path>
                        </g>
                        <path d="M83.0155039,93.0310078 C83.3706918,92.741445 83.6295358,92.3508137 83.7577519,91.9108527 C83.8546512,91.4651163 83.6647287,90.9321705 83.2383721,90.7693798 C82.7616279,90.5872093 82.251938,90.9166667 81.8662791,91.251938 C81.4806202,91.5872093 81.0368217,91.9670543 80.5310078,91.8953488 C81.0598311,91.4159845 81.2982138,90.6942147 81.1589147,89.994186 C81.1370506,89.8515457 81.0767536,89.7175525 80.9844961,89.6065891 C80.7189922,89.3236434 80.2403101,89.4457364 79.9224806,89.6686047 C78.9147287,90.377907 78.6337209,91.746124 78.627907,92.9786822 C78.5271318,92.5348837 78.6124031,92.0717054 78.6085271,91.622093 C78.6046512,91.1724806 78.4806202,90.6531008 78.0968992,90.4166667 C77.8589518,90.2888149 77.5917297,90.2253497 77.3217054,90.2325581 C76.8682171,90.2151163 76.3643411,90.2616279 76.0542636,90.5930233 C75.6666667,91.003876 75.7693798,91.6957364 76.1046512,92.1434109 C76.4399225,92.5910853 76.9476744,92.879845 77.4166667,93.1937984 C77.7925451,93.4172624 78.1131659,93.7226471 78.3546512,94.0872093 C78.3830536,94.137769 78.4064216,94.1909961 78.4244186,94.246124 L81.2635659,94.246124 C81.8996894,93.9219764 82.4890171,93.5132281 83.0155039,93.0310078 Z" id="Path" fill="#FF6347"></path>
                        <path d="M88.2306202,129.420543 C88.6821705,129 89.1065891,128.503876 89.2383721,127.901163 C89.370155,127.29845 89.1124031,126.573643 88.5348837,126.350775 C87.8895349,126.102713 87.1976744,126.544574 86.6744186,127.003876 C86.1511628,127.463178 85.5503876,127.972868 84.8662791,127.875969 C85.5829932,127.225922 85.9059712,126.247423 85.7170543,125.29845 C85.6870215,125.105856 85.6053087,124.925017 85.4806202,124.775194 C85.122093,124.387597 84.4709302,124.556202 84.0426357,124.858527 C82.6860465,125.827519 82.2984496,127.674419 82.2887597,129.344961 C82.1511628,128.742248 82.2674419,128.114341 82.2635659,127.496124 C82.2596899,126.877907 82.0910853,126.193798 81.5697674,125.860465 C81.2450829,125.685961 80.8800398,125.600383 80.5116279,125.612403 C79.8972868,125.589147 79.2131783,125.651163 78.7945736,126.100775 C78.2732558,126.658915 78.4069767,127.594961 78.8624031,128.209302 C79.3178295,128.823643 80.005814,129.209302 80.6395349,129.633721 C81.1482843,129.936977 81.5821575,130.350978 81.9089147,130.844961 C81.947653,130.914002 81.9794618,130.986708 82.003876,131.062016 L85.8546512,131.062016 C86.7169975,130.624436 87.5162256,130.072277 88.2306202,129.420543 Z" id="Path" fill="#FF6347"></path>
                    </g>
                </g>
            </g>
        </g>
    </g>
</svg>