<?xml version="1.0" encoding="UTF-8"?>
<svg width="489px" height="42px" viewBox="0 0 489 42" version="1.1" xmlns="http://www.w3.org/2000/svg" xmlns:xlink="http://www.w3.org/1999/xlink">
    <!-- Generator: Sketch 52.5 (67469) - http://www.bohemiancoding.com/sketch -->
    <title>Logos</title>
    <desc>Created with Sketch.</desc>
    <g id="Home-v1" stroke="none" stroke-width="1" fill="none" fill-rule="evenodd">
        <g id="Main-page" transform="translate(-558.000000, -6691.000000)" fill="#FFFFFF">
            <g id="Made-for-devs" transform="translate(72.000000, 3974.000000)">
                <g id="Technology" transform="translate(481.000000, 2667.000000)">
                    <g id="Logos" transform="translate(0.000000, 46.000000)">
                        <g id="serverless-logo" transform="translate(443.000000, 4.000000)" fill-rule="nonzero">
                            <polygon id="Fill-1" points="0 31.9406037 0 40.3409609 6.19649485 40.3409609 8.97803972 31.9406037"></polygon>
                            <polygon id="Fill-2" points="0 15.9703154 0 24.3706724 11.4850103 24.3706724 14.266286 15.9703154"></polygon>
                            <polygon id="Fill-3" points="0 2.69190445e-05 0 8.40011475 16.7729874 8.40011475 19.5548015 2.69190445e-05"></polygon>
                            <polygon id="Fill-4" points="28.4031722 2.69190445e-05 25.6218966 8.40011475 50.7239055 8.40011475 50.7239055 2.69190445e-05"></polygon>
                            <polygon id="Fill-5" points="23.1151143 15.9703154 20.3335694 24.3706724 50.7238247 24.3706724 50.7238247 15.9703154"></polygon>
                            <polygon id="Fill-6" points="17.8268142 31.9406037 15.0455385 40.3409609 50.7237709 40.3409609 50.7237709 31.9406037"></polygon>
                        </g>
                        <g id="amazon-web-services-2" transform="translate(347.000000, 4.000000)" fill-rule="nonzero">
                            <path d="M20.0395214,15.2829787 C20.0395214,16.1489362 20.1337926,16.8510638 20.2987672,17.3659574 C20.4873096,17.8808511 20.7229877,18.4425532 21.0529369,19.0510638 C21.1707759,19.2382979 21.2179115,19.4255319 21.2179115,19.5893617 C21.2179115,19.8234043 21.0765047,20.0574468 20.7701233,20.2914894 L19.2853517,21.2744681 C19.0732415,21.4148936 18.8611313,21.4851064 18.6725888,21.4851064 C18.4369108,21.4851064 18.2012328,21.3680851 17.9655547,21.1574468 C17.6356055,20.806383 17.3527919,20.4319149 17.1171139,20.0574468 C16.8814358,19.6595745 16.6457578,19.2148936 16.386512,18.6765957 C14.5482234,20.8297872 12.2385787,21.906383 9.45757796,21.906383 C7.47788252,21.906383 5.89883974,21.3446809 4.7440174,20.2212766 C3.58919507,19.0978723 3,17.6 3,15.7276596 C3,13.7382979 3.70703408,12.1234043 5.14467005,10.906383 C6.58230602,9.6893617 8.49129804,9.08085106 10.9187817,9.08085106 C11.720087,9.08085106 12.5449601,9.15106383 13.4169688,9.26808511 C14.2889775,9.38510638 15.184554,9.57234043 16.1272661,9.78297872 L16.1272661,8.07446809 C16.1272661,6.29574468 15.7501813,5.05531915 15.0195794,4.32978723 C14.2654097,3.60425532 12.9927484,3.25319149 11.1780276,3.25319149 C10.3531545,3.25319149 9.50471356,3.34680851 8.63270486,3.55744681 C7.76069616,3.76808511 6.91225526,4.02553191 6.08738216,4.35319149 C5.71029732,4.51702128 5.42748368,4.6106383 5.26250906,4.65744681 C5.09753445,4.70425532 4.97969543,4.72765957 4.88542422,4.72765957 C4.55547498,4.72765957 4.39050036,4.49361702 4.39050036,4.00212766 L4.39050036,2.85531915 C4.39050036,2.48085106 4.43763597,2.2 4.55547498,2.03617021 C4.673314,1.87234043 4.88542422,1.70851064 5.21537346,1.54468085 C6.04024656,1.12340426 7.03009427,0.772340426 8.18491661,0.491489362 C9.33973894,0.187234043 10.5652647,0.0468085106 11.8614938,0.0468085106 C14.6660624,0.0468085106 16.7164612,0.678723404 18.0362582,1.94255319 C19.3324873,3.20638298 19.9923858,5.12553191 19.9923858,7.7 L19.9923858,15.2829787 L20.0395214,15.2829787 Z M10.4709935,18.8404255 C11.248731,18.8404255 12.0500363,18.7 12.8984772,18.4191489 C13.7469181,18.1382979 14.5010877,17.6234043 15.1374184,16.9212766 C15.5145033,16.4765957 15.7973169,15.9851064 15.9387237,15.4234043 C16.0801305,14.8617021 16.1744017,14.1829787 16.1744017,13.387234 L16.1744017,12.4042553 C15.4909355,12.2404255 14.7603336,12.1 14.0061639,12.006383 C13.2519942,11.912766 12.5213923,11.8659574 11.7907904,11.8659574 C10.2117476,11.8659574 9.05692531,12.1702128 8.27918782,12.8021277 C7.50145033,13.4340426 7.12436548,14.3234043 7.12436548,15.493617 C7.12436548,16.593617 7.40717912,17.412766 7.99637418,17.9744681 C8.56200145,18.5595745 9.38687455,18.8404255 10.4709935,18.8404255 Z M29.3959391,21.3680851 C28.9717186,21.3680851 28.688905,21.2978723 28.5003626,21.1340426 C28.3118202,20.993617 28.1468455,20.6659574 28.0054387,20.2212766 L22.4670051,2.12978723 C22.3255983,1.66170213 22.2548949,1.35744681 22.2548949,1.19361702 C22.2548949,0.819148936 22.4434373,0.608510638 22.8205221,0.608510638 L25.1301668,0.608510638 C25.577955,0.608510638 25.8843365,0.678723404 26.0493111,0.842553191 C26.2378535,0.982978723 26.3792603,1.3106383 26.5206672,1.75531915 L30.480058,17.2489362 L34.1566352,1.75531915 C34.2744743,1.28723404 34.4158811,0.982978723 34.6044235,0.842553191 C34.7929659,0.70212766 35.1229152,0.608510638 35.5471356,0.608510638 L37.4325598,0.608510638 C37.8803481,0.608510638 38.1867295,0.678723404 38.3752719,0.842553191 C38.5638144,0.982978723 38.728789,1.3106383 38.8230602,1.75531915 L42.546773,17.4361702 L46.6240029,1.75531915 C46.7654097,1.28723404 46.9303843,0.982978723 47.095359,0.842553191 C47.2839014,0.70212766 47.5902828,0.608510638 48.0145033,0.608510638 L50.2063089,0.608510638 C50.5833938,0.608510638 50.795504,0.795744681 50.795504,1.19361702 C50.795504,1.3106383 50.7719362,1.42765957 50.7483684,1.56808511 C50.7248006,1.70851064 50.677665,1.89574468 50.5833938,2.15319149 L44.9035533,20.2446809 C44.7621465,20.712766 44.5971719,21.0170213 44.4086294,21.1574468 C44.220087,21.2978723 43.9137056,21.3914894 43.5130529,21.3914894 L41.4862219,21.3914894 C41.0384336,21.3914894 40.7320522,21.3212766 40.5435098,21.1574468 C40.3549674,20.993617 40.1899927,20.6893617 40.0957215,20.2212766 L36.4427121,5.12553191 L32.8132705,20.1978723 C32.6954315,20.6659574 32.5540247,20.9702128 32.3654822,21.1340426 C32.1769398,21.2978723 31.8469906,21.3680851 31.4227701,21.3680851 L29.3959391,21.3680851 Z M59.6805656,22 C58.4550399,22 57.2295141,21.8595745 56.051124,21.5787234 C54.8727339,21.2978723 53.9535896,20.993617 53.3408267,20.6425532 C52.9637418,20.4319149 52.704496,20.1978723 52.6102248,19.987234 C52.5159536,19.7765957 52.468818,19.5425532 52.468818,19.3319149 L52.468818,18.1382979 C52.468818,17.6468085 52.6573604,17.412766 53.0108774,17.412766 C53.1522843,17.412766 53.2936911,17.4361702 53.4350979,17.4829787 C53.5765047,17.5297872 53.7886149,17.6234043 54.024293,17.7170213 C54.8255983,18.0680851 55.697607,18.3489362 56.6167513,18.5361702 C57.5594634,18.7234043 58.4786077,18.8170213 59.4213198,18.8170213 C60.9060914,18.8170213 62.0609137,18.5595745 62.862219,18.0446809 C63.6635243,17.5297872 64.0877447,16.7808511 64.0877447,15.8212766 C64.0877447,15.1659574 63.8756345,14.6276596 63.4514141,14.1829787 C63.0271936,13.7382979 62.2258883,13.3404255 61.071066,12.9659574 L57.6537346,11.912766 C55.933285,11.3744681 54.6606236,10.5787234 53.8828861,9.52553191 C53.1051487,8.49574468 52.704496,7.34893617 52.704496,6.13191489 C52.704496,5.14893617 52.9166062,4.28297872 53.3408267,3.53404255 C53.7650471,2.78510638 54.3306744,2.12978723 55.0377085,1.61489362 C55.7447426,1.07659574 56.5460479,0.678723404 57.48876,0.39787234 C58.4314721,0.117021277 59.4213198,0 60.4583031,0 C60.9767948,0 61.5188542,0.0234042553 62.0373459,0.0936170213 C62.5794054,0.163829787 63.0743292,0.257446809 63.5692531,0.35106383 C64.0406091,0.468085106 64.4883974,0.585106383 64.9126178,0.725531915 C65.3368383,0.865957447 65.6667875,1.00638298 65.9024656,1.14680851 C66.2324148,1.33404255 66.4680928,1.5212766 66.6094996,1.73191489 C66.7509065,1.91914894 66.8216099,2.17659574 66.8216099,2.50425532 L66.8216099,3.60425532 C66.8216099,4.09574468 66.6330674,4.35319149 66.2795504,4.35319149 C66.091008,4.35319149 65.7846265,4.25957447 65.3839739,4.07234043 C64.0406091,3.46382979 62.5322698,3.15957447 60.8589558,3.15957447 C59.515591,3.15957447 58.4550399,3.37021277 57.724438,3.81489362 C56.9938361,4.25957447 56.6167513,4.93829787 56.6167513,5.89787234 C56.6167513,6.55319149 56.8524293,7.11489362 57.3237854,7.55957447 C57.7951414,8.00425532 58.6671501,8.44893617 59.9162437,8.84680851 L63.2628716,9.9 C64.9597534,10.4382979 66.1852792,11.187234 66.9158811,12.1468085 C67.646483,13.106383 68,14.206383 68,15.4234043 C68,16.4297872 67.7878898,17.3425532 67.3872371,18.1382979 C66.9630167,18.9340426 66.3973894,19.6361702 65.6667875,20.1978723 C64.9361856,20.7829787 64.0641769,21.2042553 63.0507614,21.5085106 C61.9902103,21.8361702 60.8825236,22 59.6805656,22 Z" id="Shape"></path>
                            <path d="M63.4428213,33.5669544 C55.7642967,39.0756374 44.6082641,42 35.0159431,42 C21.5726904,42 9.45975953,37.1714013 0.310879199,29.1464064 C-0.412629194,28.511661 0.240862258,27.6502209 1.10440453,28.1489494 C11.0001322,33.7256408 23.206419,37.1033929 35.8328074,37.1033929 C44.3515353,37.1033929 53.7104664,35.3805126 62.3225502,31.8440742 C63.6061941,31.2773372 64.7031262,32.6601754 63.4428213,33.5669544 Z" id="Shape"></path>
                            <path d="M67.2389268,29.4912603 C66.1954913,28.2266294 60.3323774,28.8823639 57.6741012,29.1868121 C56.8791027,29.2804885 56.7548842,28.624754 57.4753516,28.1329531 C62.1459677,25.0416331 69.8226719,25.9315586 70.7170452,26.9619985 C71.6114185,28.0158576 70.4686081,35.2523565 66.0961164,38.7183819 C65.4253365,39.257021 64.7794002,38.9759919 65.0775246,38.2734192 C66.0712727,35.9549292 68.2823623,30.7324721 67.2389268,29.4912603 Z" id="Shape"></path>
                        </g>
                        <g id="webpack-icon" transform="translate(284.000000, 4.000000)" fill-rule="nonzero">
                            <path d="M33.9852704,31.5175456 L19.151059,40 L19.151059,33.3933695 L28.3936136,28.2536836 L33.9852704,31.5175456 Z M35,30.5886002 L35,12.8489725 L29.5715514,16.0159946 L29.5715514,27.4179915 L35,30.5886002 Z M3.0147296,31.5175456 L17.848941,40 L17.848941,33.3933695 L8.60638641,28.2536836 L3.0147296,31.5175456 Z M2,30.5886002 L2,12.8489725 L7.42844855,16.0159946 L7.42844855,27.4179915 L2,30.5886002 Z M2.635093,11.7012408 L17.848941,3 L17.848941,9.38784413 L8.10256962,14.8072896 L8.0280615,14.8503296 L2.635093,11.7012408 Z M34.364907,11.7012408 L19.151059,3 L19.151059,9.38784413 L28.8974304,14.8072896 L28.9719385,14.8503296 L34.364907,11.7012408 Z" id="Shape"></path>
                            <path d="M18.3335754,32 L9,26.7807253 L9,16.4382136 L18.3335754,21.9197448 L18.3335754,32 M19.6664246,32 L29,26.7807253 L29,16.4382136 L19.6664246,21.9197448 L19.6664246,32 M9.63192301,15.2414372 L19.0018159,10 L28.3717087,15.2414372 L19.0018159,20.745131 L9.63192301,15.2414372" id="Shape"></path>
                        </g>
                        <g id="graphql-copy" transform="translate(222.000000, 4.000000)">
                            <path d="M22.0519928,4.81305364 L30.6004209,9.79942568 C30.8472177,9.53561403 31.1304348,9.30919435 31.441302,9.12717804 C33.2141187,8.09748856 35.4754501,8.70884844 36.5052332,10.5 C37.5244655,12.2911516 36.9193144,14.5755378 35.1463531,15.6158863 C34.8378008,15.7953967 34.5053013,15.9291513 34.1590621,16.0130439 L34.1590621,25.9894383 C34.5015194,26.0734719 34.8303966,26.2063134 35.1358024,26.3839677 C36.9193144,27.4243162 37.5244655,29.7088484 36.4946824,31.5 C35.4754501,33.2910055 33.203568,33.9023654 31.4306067,32.872822 C31.0871336,32.6737441 30.7777135,32.4199704 30.5142804,32.1212888 L22.0178835,37.076998 C22.1423141,37.4576215 22.205506,37.855945 22.2050511,38.2567896 C22.2050511,40.3160226 20.5490154,42 18.5,42 C16.4509846,42 14.7949489,40.3266816 14.7949489,38.2567896 C14.7949489,37.8888348 14.8472691,37.5334372 14.9448275,37.1977514 L6.39871193,32.2128395 C6.15462154,32.4714192 5.87538935,32.6936358 5.56939329,32.872822 C3.78588127,33.9023654 1.52454989,33.2910055 0.505317576,31.5 C-0.51377021,29.7088484 0.0913809116,27.4243162 1.86419765,26.3839677 C2.16960402,26.2062805 2.49847892,26.0733907 2.84093786,25.9892923 L2.84093786,16.0130439 C2.49469867,15.9291513 2.16219918,15.7953967 1.85364689,15.6158863 C0.0806856207,14.5863428 -0.524465501,12.2911516 0.494766816,10.5 C1.51399913,8.70884844 3.78573674,8.09748856 5.558698,9.12717804 C5.86786294,9.30822279 6.14968522,9.53319089 6.39553225,9.79519128 L14.9464173,4.80750511 C14.8456187,4.46187521 14.7946058,4.10338341 14.7949489,3.74306434 C14.7949489,1.67331841 16.4509846,0 18.5,0 C20.5490154,0 22.2050511,1.67317239 22.2050511,3.74306434 C22.2050511,4.11510756 22.1515747,4.47415555 22.0519928,4.81305364 Z M21.1613931,6.34941108 L29.7302,11.3474642 C29.4545212,12.3210176 29.5816224,13.3659102 30.0824219,14.2430643 C30.6040342,15.1597391 31.4537317,15.7674487 32.3967962,16.0042831 L32.3967962,25.9930887 C32.3486674,26.0049158 32.3008276,26.017911 32.2532769,26.0316363 L21.0618112,6.44943055 C21.0956315,6.41672345 21.1288736,6.3834323 21.1613931,6.34955709 L21.1613931,6.34941108 Z M15.9405013,6.45162075 L4.7491801,26.0335345 C4.70078966,26.0193994 4.65212094,26.0062555 4.60320383,25.9941108 L4.60320383,16.0042831 C5.54626834,15.7674487 6.39596584,15.1597391 6.91757807,14.2430643 C7.41939641,13.3641877 7.54601354,12.3169824 7.2683547,11.3419157 L15.8347046,6.34532269 C15.8692475,6.3813881 15.9045131,6.41686946 15.9405013,6.45147474 L15.9405013,6.45162075 Z M19.5352753,7.33865473 L30.7239949,26.9161881 C30.4677016,27.1632523 30.2480176,27.4463669 30.0717266,27.7567896 C29.8958766,28.0653288 29.7643841,28.3975802 29.681204,28.7435511 L7.31908507,28.7435511 C7.23579525,28.3975708 7.10420623,28.0653214 6.92827336,27.7567896 C6.75136803,27.4485071 6.53210158,27.1671139 6.27701686,26.9210065 L17.4679044,7.33953081 C17.8034127,7.4371293 18.1508601,7.48648039 18.5,7.48612869 C18.8594485,7.48612869 19.2067564,7.43473182 19.5352753,7.33865473 Z M21.2400179,35.7351309 L29.7531804,30.7694928 C29.7276614,30.6884289 29.7048607,30.6065171 29.6848173,30.5238976 L7.31431555,30.5238976 C7.30246401,30.5725202 7.28960076,30.6207048 7.27587031,30.6687433 L15.8306577,35.6587657 C16.5287345,34.9254354 17.4929183,34.5118394 18.5,34.5137253 C19.5430481,34.5118838 20.5382744,34.9555214 21.2400179,35.7351309 Z" id="Shape"></path>
                        </g>
                        <g id="nodejs" transform="translate(79.000000, 4.000000)" fill-rule="nonzero">
                            <path d="M79.4116545,0.000135177641 C79.3006348,0.000208291583 79.1915486,0.0289906026 79.095138,0.0836477924 C78.9002309,0.196883971 78.7800081,0.403867937 78.7789146,0.628080204 L78.7789146,16.6444612 C78.7789146,16.8015929 78.7053538,16.9424295 78.5681966,17.0212864 C78.4313485,17.1004325 78.2622147,17.1004325 78.1253666,17.0212864 L75.4894874,15.5139855 C75.0981509,15.2891694 74.615637,15.2891694 74.2243005,15.5139855 L63.7021779,21.5434799 C63.3088768,21.7689931 63.069731,22.2022693 63.069731,22.6532956 L63.069731,34.7125754 C63.069731,35.1630198 63.3091699,35.5756361 63.7021779,35.8011492 L74.2243005,41.8309346 C74.6154734,42.0563551 75.0983146,42.0563551 75.4894874,41.8309346 L86.01161,35.8011492 C86.4037312,35.5770652 86.6451142,35.1617869 86.64435,34.7125754 L86.64435,4.64803411 C86.6437679,4.18821234 86.3941051,3.76425007 85.990802,3.53821839 L79.727878,0.0626968925 C79.6296992,0.00828274981 79.5206769,-0.00131974596 79.4116545,0.000135177641 Z M11.7240115,15.0533567 C11.5235511,15.0612133 11.3348134,15.0961315 11.1548679,15.199722 L0.632452215,21.2295074 C0.240086915,21.4533108 -0.00130725088,21.8688008 5.32570083e-06,22.3180813 L0.0211064267,38.5023604 C0.0211064267,38.7272916 0.138041695,38.9365096 0.337329872,39.0465018 C0.532022774,39.1626495 0.77537693,39.1626495 0.970069832,39.0465018 L7.21159968,35.4874677 C7.60695225,35.254098 7.86514767,34.8484653 7.86514767,34.3986029 L7.86514767,26.8405658 C7.86514767,26.3895395 8.10400041,25.9757592 8.49788763,25.7517009 L11.1545749,24.2234492 C11.3466609,24.1125569 11.5651217,24.0546885 11.7873148,24.055842 C12.0041873,24.055842 12.2269211,24.1096742 12.4197617,24.2234492 L15.076742,25.7517009 C15.4694905,25.9753032 15.7110849,26.3910564 15.709482,26.8405658 L15.709482,34.3983119 C15.709482,34.8481743 15.970315,35.2567168 16.36303,35.4871767 L22.6045598,39.0465018 C22.7992527,39.1626495 23.0426069,39.1626495 23.2372998,39.0465018 C23.4330191,38.9340309 23.5536153,38.7265963 23.5538163,38.5020694 L23.5743313,22.3180813 C23.5768746,21.8684764 23.3351487,21.4524154 22.9418844,21.2295074 L12.4197617,15.199722 C12.2418677,15.0961315 12.0525439,15.0615043 11.8506181,15.0533567 L11.7240115,15.0533567 Z M106.275701,15.199722 C106.055898,15.199722 105.840491,15.2550091 105.643254,15.3673292 L95.1211312,21.3971146 C94.7289209,21.6211101 94.4875052,22.0364447 94.4883912,22.4856884 L94.4883912,34.5449682 C94.4883912,34.9986134 94.7457074,35.4094838 95.1419392,35.633833 L105.579951,41.537913 C105.965339,41.7561515 106.43601,41.7727377 106.824036,41.5582819 L113.149971,38.0621005 C113.350724,37.9515263 113.486416,37.7449272 113.487295,37.5179591 C113.489495,37.2928758 113.368387,37.084369 113.171072,36.9735267 L102.585646,30.9437413 C102.38753,30.8314212 102.248321,30.6041621 102.248321,30.378358 L102.248321,26.6101059 C102.248321,26.3845927 102.388995,26.1779936 102.585646,26.0656735 L105.875073,24.1812564 C106.070778,24.0687922 106.312107,24.0687922 106.507813,24.1812564 L109.796947,26.0656735 C109.993108,26.1775639 110.113885,26.3851987 110.113463,26.6098149 L110.113463,29.5828058 C110.11286,29.807394 110.23355,30.0150713 110.429687,30.1269472 C110.626924,30.2401403 110.865483,30.2404312 111.062134,30.1269472 L117.36726,26.4846915 C117.758718,26.2598071 117.999839,25.8448686 118,25.3958266 L118,22.4859794 C118,22.036408 117.759682,21.6229188 117.36726,21.3971146 L106.908441,15.3673292 C106.716173,15.2569049 106.497816,15.1991645 106.275701,15.200013 L106.275701,15.199722 Z M74.8145452,24.2024983 C74.8696425,24.2024983 74.9341181,24.2158836 74.983354,24.2441091 L78.5892977,26.3167933 C78.6871834,26.3729533 78.7581065,26.4768349 78.7581065,26.588864 L78.7581065,30.7342323 C78.7581065,30.8468434 78.6877695,30.950434 78.5892977,31.006594 L74.983354,33.0792782 C74.8853706,33.1348293 74.7651141,33.1348293 74.6671306,33.0792782 L71.0614799,31.006594 C70.9633012,30.950143 70.8926711,30.8468434 70.8926711,30.7342323 L70.8926711,26.588864 C70.8926711,26.4765439 70.9635943,26.3735353 71.0614799,26.3167933 L74.6671306,24.2444001 C74.7114523,24.2170292 74.7626432,24.2026082 74.8148383,24.2027893 L74.8148383,24.2024983 L74.8145452,24.2024983 Z" id="Shape"></path>
                            <path d="M42.7925656,15.0000034 C42.5732509,15.0000034 42.3562817,15.0560527 42.1598367,15.1699214 L31.6330221,21.2616003 C31.2392525,21.4896327 31,21.9297675 31,22.3864222 L31,34.6119645 C31,35.0692092 31.2395457,35.4869243 31.6330221,35.7158416 L42.1598367,41.8284653 C42.5511346,42.0571782 43.0342899,42.0571782 43.4255877,41.8284653 L53.9524023,35.7158416 C54.3446765,35.4885405 54.5860613,35.0674137 54.5851313,34.6119645 L54.5851313,22.3864222 C54.5851313,21.9291775 54.3458788,21.4896327 53.9524023,21.2616003 L43.4255877,15.1699214 C43.2331658,15.0581076 43.0147741,14.9994862 42.7925656,15.0000034 Z M105.742641,25.9098611 C105.700714,25.9098611 105.654095,25.9098611 105.616272,25.9311008 L103.591129,27.119642 C103.514243,27.1626088 103.465966,27.2435647 103.464465,27.3320395 L103.464465,29.6666422 C103.464465,29.7545512 103.514896,29.8350853 103.591129,29.8790398 L105.616272,31.0463411 C105.692211,31.0905906 105.773134,31.0905906 105.848194,31.0463411 L107.873337,29.8787448 C107.949874,29.8355624 107.99804,29.7549075 108,29.6666422 L108,27.3317445 C107.99804,27.2434792 107.949874,27.1628244 107.873337,27.119642 L105.848194,25.9308058 C105.810664,25.9086811 105.784862,25.9101561 105.742641,25.9101561 L105.742641,25.9098611 Z" id="Shape"></path>
                        </g>
                        <g id="react-logo" fill-rule="nonzero">
                            <path d="M42.1300302,31.0068172 C41.8610998,31.0968196 41.5849835,31.1837412 41.3036409,31.2680222 C40.6808548,29.2758668 39.8403112,27.1574 38.8120609,24.9689558 C39.7934934,22.8322244 40.6013733,20.7410444 41.2067389,18.7616522 C41.7099762,18.9090889 42.1986238,19.0642275 42.6694152,19.2281682 C47.2227223,20.8119021 50,23.1539444 50,24.9583932 C50,26.8805711 47.000392,29.3759917 42.130248,31.0068172 L42.1300302,31.0068172 Z M40.1092416,35.0534035 C40.6015911,37.5668685 40.6719267,39.8393736 40.3457261,41.6158753 C40.0526247,43.2121523 39.4633732,44.2763369 38.734757,44.7025829 C37.1841066,45.6096485 33.8678793,44.4305953 30.2918675,41.320782 C29.8818303,40.9642933 29.4687446,40.5835987 29.05457,40.1808985 C30.4410313,38.6484374 31.8266216,36.8668744 33.178895,34.8885825 C35.5576767,34.6753495 37.8049329,34.3265627 39.8429243,33.8505844 C39.9430927,34.2598861 40.0323733,34.6610459 40.1092416,35.0534035 Z M19.6727106,44.545904 C18.1577725,45.0865784 16.9511788,45.1019822 16.2219093,44.6770566 C14.6697346,43.7726317 14.0247372,40.2803632 14.9046948,35.5964985 C15.009336,35.0429641 15.1291486,34.492469 15.2639945,33.945648 C17.2793392,34.3961 19.5102636,34.7202406 21.894707,34.9156492 C23.2559085,36.8514706 24.6815661,38.6308331 26.1183294,40.1890405 C25.8129789,40.4875367 25.5004024,40.7783905 25.1808838,41.0613375 C23.2718048,42.7478368 21.3588061,43.9440543 19.6729284,44.545904 L19.6727106,44.545904 Z M12.5753441,30.9949343 C10.1760931,30.1662082 8.19471866,29.0892604 6.83656582,27.9141682 C5.61625341,26.8579055 5,25.8093448 5,24.9583932 C5,23.148003 7.67122989,20.8385287 12.1263283,19.2688783 C12.6855073,19.0727254 13.250249,18.8931572 13.8198275,18.7304044 C14.4356454,20.7542477 15.2433076,22.8702939 16.2179897,25.010106 C15.2306777,27.1818261 14.4114744,29.3315406 13.7899948,31.3791498 C13.3820571,31.2611547 12.9770512,31.1330442 12.5753441,30.9949343 Z M14.9545613,14.6294647 C14.0297457,9.85361707 14.6438215,6.25110123 16.1892457,5.34711644 C17.8354916,4.38415698 21.4753063,5.75729844 25.311756,9.19961444 C25.5569508,9.41966916 25.8032344,9.65006645 26.0499535,9.88838571 C24.620594,11.4395514 23.2080019,13.2054906 21.8585593,15.1300892 C19.5444515,15.3468431 17.3292056,15.6949696 15.2927385,16.1612656 C15.1672936,15.6535442 15.054532,15.1427084 14.9545613,14.6292446 L14.9545613,14.6294647 Z M36.1787207,19.9255216 C35.6977115,19.0858875 35.1988587,18.2568223 34.6825097,17.4389033 C36.2525405,17.6391531 37.7565908,17.9054193 39.1689652,18.2313203 C38.7449916,19.6046819 38.2164944,21.040759 37.5941438,22.512925 C37.1394265,21.641022 36.6675248,20.7783822 36.1787207,19.9255216 Z M27.5235178,11.4063232 C28.4929737,12.4676471 29.4639539,13.6528618 30.4190378,14.9386416 C28.4816527,14.8461262 26.5410351,14.8456856 24.603609,14.9373212 C25.5595639,13.6634244 26.5388189,12.4799702 27.5235178,11.4063232 Z M18.8127867,19.9400452 C18.3301027,20.7861231 17.8670244,21.6434696 17.4239301,22.5113847 C16.8118141,21.0442798 16.2881075,19.6018211 15.860432,18.2088748 C17.2643139,17.8913358 18.761396,17.6318913 20.3211921,17.4349423 C19.7990564,18.2579303 19.2961159,19.0931949 18.8127867,19.9400452 Z M20.3660502,32.6334617 C18.7546455,32.4516965 17.2349167,32.2054553 15.8314703,31.8967185 C16.2658963,30.479126 16.801144,29.0056396 17.4263254,27.5070669 C17.8712877,28.3756253 18.3364008,29.233489 18.8212793,30.0799467 C19.3160483,30.9434035 19.8311183,31.7948171 20.3660502,32.6334617 Z M27.581659,38.6605404 C26.585419,37.5741303 25.591792,36.3726315 24.6212473,35.0802501 C25.5632658,35.1176594 26.5237936,35.1365842 27.5,35.1365842 C28.5029905,35.1365842 29.4944399,35.1139185 30.4702108,35.0699076 C29.5120783,36.3858348 28.5445822,37.589094 27.581659,38.6605404 Z M37.6141775,27.4307079 C38.2718048,28.9455646 38.8262151,30.4111291 39.2665205,31.8047356 C37.8397741,32.1337174 36.2995761,32.3986633 34.6766303,32.5953922 C35.1967114,31.7622021 35.7003387,30.9186388 36.1872133,30.0652031 C36.6821509,29.1978454 37.1579234,28.3194628 37.6141775,27.4307079 Z M34.366326,29.0040992 C33.620986,30.3125349 32.83374,31.5961322 32.0058359,32.8528563 C30.5459904,32.9582625 29.0373672,33.012616 27.5,33.012616 C25.9689478,33.012616 24.4794873,32.964424 23.0451193,32.8704606 C22.1957428,31.6166627 21.3936043,30.3308438 20.6404245,29.0157621 C19.8907651,27.7076577 19.1905335,26.371256 18.5412432,25.0094458 C19.188882,23.6472277 19.8869977,22.3101102 20.6341095,21.0009291 L20.6341095,21.0013692 C21.380987,19.6919092 22.1768106,18.4115883 23.0198595,17.1631747 C24.4831891,17.0513869 25.9835375,16.9928524 27.5002178,16.9928524 C29.0236485,16.9928524 30.5259567,17.051827 31.9888508,17.1644951 C32.8233724,18.4109875 33.6141061,19.6868519 34.3595755,20.9897063 C35.1092565,22.2959747 35.8166888,23.6265424 36.4807502,24.9792984 C35.8235197,26.3458368 35.1183373,27.6882879 34.3665438,29.0040992 L34.366326,29.0040992 Z M38.7025289,5.28396074 C40.3500813,6.24427954 40.9909413,10.1165825 39.9557227,15.1947852 C39.8878696,15.5255995 39.8141104,15.8551485 39.7344812,16.1832711 C37.6932234,15.7072927 35.4764532,15.3530046 33.1555949,15.1329499 C31.8035393,13.1874461 30.402706,11.4184262 28.9964288,9.88728544 C29.3649316,9.52827671 29.7422038,9.17857522 30.1278962,8.83850464 C33.7605249,5.6437502 37.1555804,4.38239655 38.7025289,5.28396074 Z" id="Shape"></path>
                            <path d="M28.5,21 C30.9854042,21 33,23.0147689 33,25.4998885 C33,27.9852311 30.9854042,30 28.5,30 C26.0148189,30 24,27.9852311 24,25.4998885 C24,23.0147689 26.0148189,21 28.5,21" id="Shape"></path>
                        </g>
                    </g>
                </g>
            </g>
        </g>
    </g>
</svg>