<?xml version="1.0" encoding="UTF-8"?>
<svg width="16px" height="16px" viewBox="0 0 16 16" version="1.1" xmlns="http://www.w3.org/2000/svg" xmlns:xlink="http://www.w3.org/1999/xlink">
    <!-- Generator: Sketch 50.2 (55047) - http://www.bohemiancoding.com/sketch -->
    <title>outline-remove_circle_outline-24px</title>
    <desc>Created with Sketch.</desc>
    <defs></defs>
    <g id="Home-v1" stroke="none" stroke-width="1" fill="none" fill-rule="evenodd">
        <g id="Main-page" transform="translate(-277.000000, -6790.000000)" fill="#F95A28" fill-rule="nonzero">
            <g id="FAQ-/-Patreon" transform="translate(252.000000, 6718.000000)">
                <g id="Questions" transform="translate(0.000000, 69.000000)">
                    <g id="Why-webiny" transform="translate(25.000000, 0.000000)">
                        <g id="outline-remove_circle_outline-24px" transform="translate(0.000000, 3.000000)">
                            <g id="Outline">
                                <path d="M3.88888889,7 L3.88888889,8.55555556 L11.6666667,8.55555556 L11.6666667,7 L3.88888889,7 Z M7.77777778,0 C3.48444444,0 0,3.48444444 0,7.77777778 C0,12.0711111 3.48444444,15.5555556 7.77777778,15.5555556 C12.0711111,15.5555556 15.5555556,12.0711111 15.5555556,7.77777778 C15.5555556,3.48444444 12.0711111,0 7.77777778,0 Z M7.77777778,14 C4.34777778,14 1.55555556,11.2077778 1.55555556,7.77777778 C1.55555556,4.34777778 4.34777778,1.55555556 7.77777778,1.55555556 C11.2077778,1.55555556 14,4.34777778 14,7.77777778 C14,11.2077778 11.2077778,14 7.77777778,14 Z" id="Shape"></path>
                            </g>
                        </g>
                    </g>
                </g>
            </g>
        </g>
    </g>
</svg>