<svg xmlns="http://www.w3.org/2000/svg" xmlns:xlink="http://www.w3.org/1999/xlink" viewBox="0 0 800 500"><defs><linearGradient id="a" x1="368.78" y1="400.4" x2="418.25" y2="221.45" gradientUnits="userSpaceOnUse"><stop offset="0" stop-color="#8033eb"/><stop offset="1" stop-color="#a2e1e0"/></linearGradient><linearGradient id="b" x1="369.75" y1="65.12" x2="440.48" y2="65.12" gradientTransform="translate(55.76 -150.07) rotate(22.5)" gradientUnits="userSpaceOnUse"><stop offset="0" stop-color="#8033eb"/><stop offset="1" stop-color="#6731ce"/></linearGradient><linearGradient id="c" x1="149.14" y1="143.12" x2="219.87" y2="143.12" gradientTransform="translate(68.82 -59.71) rotate(22.5)" xlink:href="#b"/><linearGradient id="d" x1="149.14" y1="347.98" x2="219.87" y2="347.98" gradientTransform="translate(498.44 110.11) rotate(80.78)" xlink:href="#b"/><linearGradient id="e" x1="590.53" y1="143.12" x2="661.27" y2="143.12" gradientTransform="translate(102.42 -228.63) rotate(22.5)" xlink:href="#b"/><linearGradient id="f" x1="590.53" y1="347.98" x2="661.27" y2="347.98" gradientTransform="translate(869.13 -325.58) rotate(80.78)" xlink:href="#b"/><linearGradient id="g" x1="369.75" y1="416.76" x2="440.48" y2="416.76" gradientTransform="matrix(1, 0, 0, 1, 0, 0)" xlink:href="#b"/></defs><title>Artboard 2 copy 11</title><g style="isolation:isolate"><path d="M394.41,283.25S316.86,323.11,279.3,303.9s-41-52.78-26-105.92,52.25-83.33,110-43.69S458,245.59,394.41,283.25Z" style="fill:#f2f2f2"/><path d="M495.28,260s1-52.2,21.75-66.57,39.46-6.64,63.22,16.35,29.13,51.17-8.14,70.38S497.11,304.2,495.28,260Z" style="fill:#f2f2f2"/><line x1="403.56" y1="113.25" x2="403.56" y2="154.39" style="fill:none;stroke:#f94f24;stroke-linecap:round;stroke-miterlimit:10;stroke-dasharray:3.404819965362549,2.269890069961548"/><line x1="403.56" y1="325.49" x2="403.56" y2="366.62" style="fill:none;stroke:#f94f24;stroke-linecap:round;stroke-miterlimit:10;stroke-dasharray:3.404819965362549,2.269890069961548"/><line x1="227.18" y1="320.19" x2="281.73" y2="285.46" style="fill:none;stroke:#f94f24;stroke-linecap:round;stroke-miterlimit:10;stroke-dasharray:3.404819965362549,2.269890069961548"/><line x1="227.18" y1="164.04" x2="291.38" y2="222.64" style="fill:none;stroke:#f94f24;stroke-linecap:round;stroke-miterlimit:10;stroke-dasharray:3.404819965362549,2.269890069961548"/><line x1="583.06" y1="320.19" x2="528.51" y2="285.46" style="fill:none;stroke:#f94f24;stroke-linecap:round;stroke-miterlimit:10;stroke-dasharray:3.404819965362549,2.269890069961548"/><line x1="583.06" y1="164.04" x2="528.77" y2="212.73" style="fill:none;stroke:#f94f24;stroke-linecap:round;stroke-miterlimit:10;stroke-dasharray:3.404819965362549,2.269890069961548"/><path d="M532.92,126.15a26.84,26.84,0,1,1-26.84-26.83A26.83,26.83,0,0,1,532.92,126.15Z" style="fill:#f2f2f2"/><path d="M519.2,360a13.12,13.12,0,1,1-13.12-13.12A13.11,13.11,0,0,1,519.2,360Z" style="fill:#f2f2f2"/><path d="M339.08,387.08a19.23,19.23,0,1,1-19.23-19.23A19.24,19.24,0,0,1,339.08,387.08Z" style="fill:#f2f2f2"/><path d="M515.83,266.05c2.17-12.9,6.07-30-1.12-41.93a2.1,2.1,0,0,1,1.57-3.17A53.94,53.94,0,0,0,464.9,204a67.95,67.95,0,0,0-121.76,22.15,40.73,40.73,0,0,0-4.44-.24,42.37,42.37,0,1,0,0,84.74H476c11.62,0,20.82-3.07,29.44-11.69A120,120,0,0,0,515.83,266.05Z" style="fill:#ebebeb;mix-blend-mode:multiply"/><path d="M471.06,197.45A54.24,54.24,0,0,0,460,198.6a67.95,67.95,0,0,0-121.76,22.14,43.41,43.41,0,0,0-4.44-.23,42.37,42.37,0,0,0,0,84.74H471.06a53.9,53.9,0,1,0,0-107.8Z" style="fill:url(#a)"/><path d="M404.11,154.39a82.06,82.06,0,0,0-51.4,17.85,83.62,83.62,0,0,0-25.34,33.68,57.31,57.31,0,0,0,6.38,114.27H471.06a68.85,68.85,0,1,0,0-137.69c-1.54,0-3.08.05-4.62.16a83,83,0,0,0-62.33-28.27Z" style="fill:none;stroke:#f94f24;stroke-linecap:round;stroke-miterlimit:10;stroke-dasharray:3.404819965362549,2.269890069961548"/><path d="M333.75,227a43.41,43.41,0,0,1,4.44.23A67.95,67.95,0,0,1,460,205.12,55,55,0,0,1,471.06,204a53.89,53.89,0,0,1,53.77,50.38c.08-1.17.13-2.34.13-3.53a53.89,53.89,0,0,0-65-52.74,67.95,67.95,0,0,0-121.76,22.14,43.41,43.41,0,0,0-4.44-.23,42.37,42.37,0,0,0-42.37,42.37c0,1.18.06,2.36.16,3.52A42.36,42.36,0,0,1,333.75,227Z" style="fill:#c4ecec"/><g style="mix-blend-mode:multiply"><path d="M441.14,224.45a24.27,24.27,0,0,0-40.26,24.65l-27.35,27.35a2.17,2.17,0,0,0-.65,1.56V290.5a2.21,2.21,0,0,0,2.21,2.21h12.49a2.23,2.23,0,0,0,1.56-.65l3.12-3.12a2.2,2.2,0,0,0,.63-1.82l-.39-3.35,4.65-.44a2.2,2.2,0,0,0,2-2l.44-4.65,3.36.39a2.14,2.14,0,0,0,1.72-.54,2.21,2.21,0,0,0,.74-1.65v-4.11h4a2.25,2.25,0,0,0,1.57-.65l5.66-5.59a23.9,23.9,0,0,0,24.48-5.74A24.32,24.32,0,0,0,441.14,224.45Zm-6.25,15.61a6.62,6.62,0,1,1,0-9.36A6.63,6.63,0,0,1,434.89,240.06Z" style="fill:#ccc"/></g><path d="M438.75,220.94a24.27,24.27,0,0,0-40.26,24.65l-27.35,27.35a2.25,2.25,0,0,0-.65,1.56V287a2.21,2.21,0,0,0,2.21,2.21h12.49a2.17,2.17,0,0,0,1.56-.65l3.12-3.12a2.19,2.19,0,0,0,.63-1.82l-.38-3.35,4.64-.44a2.19,2.19,0,0,0,2-2l.44-4.65,3.36.39a2.14,2.14,0,0,0,1.72-.54,2.21,2.21,0,0,0,.74-1.65v-4.11h4a2.2,2.2,0,0,0,1.56-.65l5.66-5.58a23.92,23.92,0,0,0,24.48-5.75A24.32,24.32,0,0,0,438.75,220.94Zm-6.25,15.61a6.62,6.62,0,1,1,0-9.36A6.61,6.61,0,0,1,432.5,236.55Z" style="fill:#ffc300"/><path d="M434.54,238.67a6.64,6.64,0,0,0,0-9.37,6.38,6.38,0,0,0-1.13-.9,6.62,6.62,0,0,1-9.14,9.14,6.93,6.93,0,0,0,.91,1.13A6.63,6.63,0,0,0,434.54,238.67Z" style="fill:#ffd344"/><path d="M372.53,289.11V276.62a2.2,2.2,0,0,1,.64-1.56l27.36-27.36a24.27,24.27,0,0,1,39.21-25.63q-.48-.54-1-1a24.27,24.27,0,0,0-40.26,24.65L371.14,273a2.23,2.23,0,0,0-.65,1.56v12.49a2.2,2.2,0,0,0,2.05,2.19C372.54,289.21,372.53,289.16,372.53,289.11Z" style="fill:#ffd344"/><path d="M403.33,252.05a1.58,1.58,0,0,0-2.22,0l-25.43,25.43a1.58,1.58,0,0,0,0,2.22h0a1.56,1.56,0,0,0,2.22,0l25.43-25.42a1.58,1.58,0,0,0,0-2.23Z" style="fill:#ffa200"/><circle cx="405.11" cy="65.12" r="48.13" transform="translate(275.94 454.58) rotate(-80.78)" style="fill:#f1ecfa"/><circle cx="405.11" cy="65.12" r="35.37" transform="translate(5.92 159.99) rotate(-22.5)" style="stroke:#f94f24;stroke-linecap:round;stroke-miterlimit:10;stroke-width:1.89867px;fill:url(#b)"/><path d="M413,58.57a8,8,0,0,1-8,8h0a8,8,0,0,1-8-8v-6.1a8,8,0,0,1,8-8h0a8,8,0,0,1,8,8Z" style="fill:none;stroke:#fff;stroke-linecap:round;stroke-miterlimit:10;stroke-width:2px"/><path d="M400.62,65.12v5.51l-8.17,2.86s-4.57,1.91-4.57,6.29V84" style="fill:none;stroke:#fff;stroke-linecap:round;stroke-linejoin:round;stroke-width:2px"/><path d="M409.45,65.12v5.51l8.17,2.86s4.58,1.91,4.58,6.29V84" style="fill:none;stroke:#fff;stroke-linecap:round;stroke-linejoin:round;stroke-width:2px"/><path d="M395.42,54.52s11-1.07,16.27-6.37" style="fill:none;stroke:#fff;stroke-linecap:round;stroke-miterlimit:10;stroke-width:2px"/><polyline points="400.62 70.63 405.04 76.16 409.45 70.63" style="fill:none;stroke:#fff;stroke-linecap:round;stroke-miterlimit:10;stroke-width:2px"/><circle cx="184.51" cy="143.12" r="48.13" transform="translate(13.68 302.32) rotate(-80.78)" style="fill:#f1ecfa"/><circle cx="184.51" cy="143.12" r="35.37" transform="translate(-40.73 81.5) rotate(-22.5)" style="stroke:#f94f24;stroke-linecap:round;stroke-miterlimit:10;stroke-width:1.89867px;fill:url(#c)"/><path d="M192.42,136.57a8,8,0,0,1-8,8h0a8,8,0,0,1-8-8v-6.1a8,8,0,0,1,8-8h0a8,8,0,0,1,8,8Z" style="fill:none;stroke:#fff;stroke-linecap:round;stroke-miterlimit:10;stroke-width:2px"/><path d="M180,143.12v5.51l-8.17,2.86s-4.57,1.91-4.57,6.29V162" style="fill:none;stroke:#fff;stroke-linecap:round;stroke-linejoin:round;stroke-width:2px"/><path d="M188.84,143.12v5.51l8.17,2.86s4.58,1.91,4.58,6.29V162" style="fill:none;stroke:#fff;stroke-linecap:round;stroke-linejoin:round;stroke-width:2px"/><path d="M174.82,132.52s11-1.07,16.26-6.37" style="fill:none;stroke:#fff;stroke-linecap:round;stroke-miterlimit:10;stroke-width:2px"/><polyline points="180.01 148.63 184.43 154.16 188.84 148.63" style="fill:none;stroke:#fff;stroke-linecap:round;stroke-miterlimit:10;stroke-width:2px"/><circle cx="184.51" cy="347.98" r="48.13" transform="translate(-119.12 97.1) rotate(-22.5)" style="fill:#f1ecfa"/><circle cx="184.51" cy="347.98" r="35.37" transform="translate(-188.53 474.36) rotate(-80.78)" style="stroke:#f94f24;stroke-linecap:round;stroke-miterlimit:10;stroke-width:1.89867px;fill:url(#d)"/><path d="M192.42,341.42a8,8,0,0,1-8,8h0a8,8,0,0,1-8-8v-6.09a8,8,0,0,1,8-8h0a8,8,0,0,1,8,8Z" style="fill:none;stroke:#fff;stroke-linecap:round;stroke-miterlimit:10;stroke-width:2px"/><path d="M180,348v5.51l-8.17,2.86s-4.57,1.9-4.57,6.29v4.19" style="fill:none;stroke:#fff;stroke-linecap:round;stroke-linejoin:round;stroke-width:2px"/><path d="M188.84,348v5.51l8.17,2.86s4.58,1.9,4.58,6.29v4.19" style="fill:none;stroke:#fff;stroke-linecap:round;stroke-linejoin:round;stroke-width:2px"/><path d="M174.82,337.37s11-1.06,16.26-6.36" style="fill:none;stroke:#fff;stroke-linecap:round;stroke-miterlimit:10;stroke-width:2px"/><polyline points="180.01 353.49 184.43 359.02 188.84 353.49" style="fill:none;stroke:#fff;stroke-linecap:round;stroke-miterlimit:10;stroke-width:2px"/><circle cx="625.9" cy="143.12" r="48.13" transform="translate(342.8 719.4) rotate(-76.72)" style="fill:#f1ecfa"/><circle cx="625.9" cy="143.12" r="35.37" transform="translate(-7.13 250.42) rotate(-22.5)" style="stroke:#f94f24;stroke-linecap:round;stroke-miterlimit:10;stroke-width:1.89867px;fill:url(#e)"/><path d="M633.82,136.57a8,8,0,0,1-8,8h0a8,8,0,0,1-8-8v-6.1a8,8,0,0,1,8-8h0a8,8,0,0,1,8,8Z" style="fill:none;stroke:#fff;stroke-linecap:round;stroke-miterlimit:10;stroke-width:2px"/><path d="M621.41,143.12v5.51l-8.17,2.86s-4.58,1.91-4.58,6.29V162" style="fill:none;stroke:#fff;stroke-linecap:round;stroke-linejoin:round;stroke-width:2px"/><path d="M630.24,143.12v5.51l8.17,2.86s4.57,1.91,4.57,6.29V162" style="fill:none;stroke:#fff;stroke-linecap:round;stroke-linejoin:round;stroke-width:2px"/><path d="M616.21,132.52s11-1.07,16.26-6.37" style="fill:none;stroke:#fff;stroke-linecap:round;stroke-miterlimit:10;stroke-width:2px"/><polyline points="621.41 148.63 625.82 154.16 630.24 148.63" style="fill:none;stroke:#fff;stroke-linecap:round;stroke-miterlimit:10;stroke-width:2px"/><circle cx="625.9" cy="347.98" r="48.13" transform="translate(-62.74 544.5) rotate(-45)" style="fill:#f1ecfa"/><circle cx="625.9" cy="347.98" r="35.37" transform="translate(182.16 910.06) rotate(-80.78)" style="stroke:#f94f24;stroke-linecap:round;stroke-miterlimit:10;stroke-width:1.89867px;fill:url(#f)"/><path d="M633.82,341.42a8,8,0,0,1-8,8h0a8,8,0,0,1-8-8v-6.09a8,8,0,0,1,8-8h0a8,8,0,0,1,8,8Z" style="fill:none;stroke:#fff;stroke-linecap:round;stroke-miterlimit:10;stroke-width:2px"/><path d="M621.41,348v5.51l-8.17,2.86s-4.58,1.9-4.58,6.29v4.19" style="fill:none;stroke:#fff;stroke-linecap:round;stroke-linejoin:round;stroke-width:2px"/><path d="M630.24,348v5.51l8.17,2.86s4.57,1.9,4.57,6.29v4.19" style="fill:none;stroke:#fff;stroke-linecap:round;stroke-linejoin:round;stroke-width:2px"/><path d="M616.21,337.37s11-1.06,16.26-6.36" style="fill:none;stroke:#fff;stroke-linecap:round;stroke-miterlimit:10;stroke-width:2px"/><polyline points="621.41 353.49 625.82 359.02 630.24 353.49" style="fill:none;stroke:#fff;stroke-linecap:round;stroke-miterlimit:10;stroke-width:2px"/><circle cx="405.11" cy="416.76" r="48.13" style="fill:#f1ecfa"/><circle cx="405.11" cy="416.76" r="35.37" style="stroke:#f94f24;stroke-linecap:round;stroke-miterlimit:10;stroke-width:1.89867px;fill:url(#g)"/><path d="M413,410.2a8,8,0,0,1-8,8h0a8,8,0,0,1-8-8v-6.09a8,8,0,0,1,8-8h0a8,8,0,0,1,8,8Z" style="fill:none;stroke:#fff;stroke-linecap:round;stroke-miterlimit:10;stroke-width:2px"/><path d="M400.62,416.75v5.51l-8.17,2.86s-4.57,1.91-4.57,6.3v4.19" style="fill:none;stroke:#fff;stroke-linecap:round;stroke-linejoin:round;stroke-width:2px"/><path d="M409.45,416.75v5.51l8.17,2.86s4.58,1.91,4.58,6.3v4.19" style="fill:none;stroke:#fff;stroke-linecap:round;stroke-linejoin:round;stroke-width:2px"/><path d="M395.42,406.15s11-1.07,16.27-6.36" style="fill:none;stroke:#fff;stroke-linecap:round;stroke-miterlimit:10;stroke-width:2px"/><polyline points="400.62 422.26 405.04 427.79 409.45 422.26" style="fill:none;stroke:#fff;stroke-linecap:round;stroke-miterlimit:10;stroke-width:2px"/><path d="M403.56,118.55a5.3,5.3,0,1,0-5.3-5.3A5.29,5.29,0,0,0,403.56,118.55Z" style="fill:#fff;stroke:#f94f24;stroke-linecap:round;stroke-miterlimit:10;stroke-width:2.26989px"/><path d="M403.56,159.68a5.3,5.3,0,1,0-5.3-5.29A5.29,5.29,0,0,0,403.56,159.68Z" style="fill:#fff;stroke:#f94f24;stroke-linecap:round;stroke-miterlimit:10;stroke-width:2.26989px"/><path d="M227.18,169.34a5.3,5.3,0,1,0-5.3-5.3A5.29,5.29,0,0,0,227.18,169.34Z" style="fill:#fff;stroke:#f94f24;stroke-linecap:round;stroke-miterlimit:10;stroke-width:2.26989px"/><path d="M291.39,227.93a5.29,5.29,0,1,0-5.3-5.29A5.29,5.29,0,0,0,291.39,227.93Z" style="fill:#fff;stroke:#f94f24;stroke-linecap:round;stroke-miterlimit:10;stroke-width:2.26989px"/><path d="M529.32,219.21a5.3,5.3,0,1,0-5.29-5.29A5.29,5.29,0,0,0,529.32,219.21Z" style="fill:#fff;stroke:#f94f24;stroke-linecap:round;stroke-miterlimit:10;stroke-width:2.26989px"/><path d="M281.73,290.75a5.3,5.3,0,1,0-5.29-5.29A5.29,5.29,0,0,0,281.73,290.75Z" style="fill:#fff;stroke:#f94f24;stroke-linecap:round;stroke-miterlimit:10;stroke-width:2.26989px"/><path d="M530.26,290.75a5.3,5.3,0,1,0-5.3-5.29A5.29,5.29,0,0,0,530.26,290.75Z" style="fill:#fff;stroke:#f94f24;stroke-linecap:round;stroke-miterlimit:10;stroke-width:2.26989px"/><path d="M227.18,325.49a5.3,5.3,0,1,0-5.3-5.3A5.3,5.3,0,0,0,227.18,325.49Z" style="fill:#fff;stroke:#f94f24;stroke-linecap:round;stroke-miterlimit:10;stroke-width:2.26989px"/><path d="M583.07,169.34a5.3,5.3,0,1,0-5.3-5.3A5.29,5.29,0,0,0,583.07,169.34Z" style="fill:#fff;stroke:#f94f24;stroke-linecap:round;stroke-miterlimit:10;stroke-width:2.26989px"/><path d="M583.07,325.49a5.3,5.3,0,1,0-5.3-5.3A5.3,5.3,0,0,0,583.07,325.49Z" style="fill:#fff;stroke:#f94f24;stroke-linecap:round;stroke-miterlimit:10;stroke-width:2.26989px"/><path d="M403.56,373.92a5.3,5.3,0,1,0-5.3-5.3A5.29,5.29,0,0,0,403.56,373.92Z" style="fill:#fff;stroke:#f94f24;stroke-linecap:round;stroke-miterlimit:10;stroke-width:2.26989px"/><path d="M403.56,325.49a5.3,5.3,0,1,0-5.3-5.3A5.3,5.3,0,0,0,403.56,325.49Z" style="fill:#fff;stroke:#f94f24;stroke-linecap:round;stroke-miterlimit:10;stroke-width:2.26989px"/></g></svg>