<svg xmlns="http://www.w3.org/2000/svg" xmlns:xlink="http://www.w3.org/1999/xlink" viewBox="0 0 800 500"><defs><linearGradient id="a" x1="679.48" y1="262.92" x2="473.49" y2="51.38" gradientUnits="userSpaceOnUse"><stop offset="0" stop-color="#8033eb"/><stop offset="0.53" stop-color="#d4648e"/><stop offset="1" stop-color="#ec7071"/></linearGradient><linearGradient id="b" x1="514.88" y1="545.62" x2="568.51" y2="351.62" gradientUnits="userSpaceOnUse"><stop offset="0" stop-color="#8033eb"/><stop offset="1" stop-color="#a2e1e0"/></linearGradient><linearGradient id="c" x1="267.19" y1="141.1" x2="127.97" y2="296.23" gradientUnits="userSpaceOnUse"><stop offset="0" stop-color="#fdbaa9"/><stop offset="1" stop-color="#f94f24"/></linearGradient></defs><title>Artboard 2 copy 17</title><g style="isolation:isolate"><path d="M751.43,167a96.73,96.73,0,1,1-96.72-96.72A96.72,96.72,0,0,1,751.43,167Z" style="fill:#f2f2f2"/><path d="M181.63,365.1A61.6,61.6,0,1,1,120,303.5,61.6,61.6,0,0,1,181.63,365.1Z" style="fill:#f2f2f2"/><path d="M291.83,102.57a25.69,25.69,0,1,1-25.69-25.69A25.69,25.69,0,0,1,291.83,102.57Z" style="fill:#f2f2f2"/><path d="M740.05,311.86a25.69,25.69,0,1,1-25.69-25.69A25.69,25.69,0,0,1,740.05,311.86Z" style="fill:#f2f2f2"/><path d="M448.36,91.12a47.91,47.91,0,1,1-47.91-47.91A47.92,47.92,0,0,1,448.36,91.12Z" style="fill:#f2f2f2"/><path d="M722.08,141.52a72.65,72.65,0,0,1-72.65,72.65H473.1a72.65,72.65,0,0,1-72.65-72.65h0A72.65,72.65,0,0,1,473.1,68.86H649.43a72.65,72.65,0,0,1,72.65,72.66Z" style="fill:url(#a)"/><path d="M649.43,215.85H473.1a74.34,74.34,0,1,1,0-148.67H649.43a74.34,74.34,0,1,1,0,148.67ZM473.1,70.55a71,71,0,0,0,0,141.94H649.43a71,71,0,1,0,0-141.94Z" style="fill:#fff"/><path d="M353.89,379.46H488.67a19.87,19.87,0,0,1,19.87,19.87v2.38a19.88,19.88,0,0,1-19.88,19.88H353.89A19.88,19.88,0,0,1,334,401.71v-2.38a19.88,19.88,0,0,1,19.88-19.88Z" style="fill:#f2f2f2"/><path d="M168.34,165.52H303.13A19.88,19.88,0,0,1,323,185.39v2.38a19.88,19.88,0,0,1-19.88,19.88H168.34a19.87,19.87,0,0,1-19.87-19.87v-2.38a19.87,19.87,0,0,1,19.87-19.87Z" style="fill:#f2f2f2"/><g style="mix-blend-mode:multiply"><path d="M615.36,135.84s0,.13,0,.14c-2.94,1.42-2.07,4.48-2.69,6.81a6.17,6.17,0,0,1-.59,2,7.49,7.49,0,0,0-.68,1.68q-3.09,9.36-6.16,18.72a2.58,2.58,0,0,1-.87,1.27q1.13-4,2.24-8l-.4-.14c-.41,1.19-.84,2.37-1.24,3.56-.49,1.45-.89,2.92-1.44,4.34a5.23,5.23,0,0,1-1.08,1.3l-.48-.28,6.12-20.67-.48-.3c-2.33.66-4.89.61-6.51,3.11-2,3-4.14,5.94-6.32,8.83-.95,1.26-2.12,2.36-3.3,3.66a3,3,0,0,1,.19-3.86c1.9-2.76,3.66-5.62,5.48-8.43a2.82,2.82,0,0,0-4.06.69,19.16,19.16,0,0,1-6.18,6.23c-1.64,1.13-3.16,2.44-4.84,3.49a22.06,22.06,0,0,1-6.8,3.17,62.38,62.38,0,0,0-8.44,3.09c-.32.13-.53.59-.76.92a14.56,14.56,0,0,1-2.48,3l1.6-3.7-2.95.19a264.48,264.48,0,0,0,15.26-33.31l-.27-.39c-1.05.47-2.08,1-3.16,1.42-1.52.61-2.56,2.19-4.53,2.05-.6,0-1.27.91-1.71,1.25l-1.1-.4,5.62-4.22-.76-.65a24.19,24.19,0,0,1,4.11-2.63c4.41-1.71,8.85-3.41,13.76-3a13.89,13.89,0,0,1,6.34,2c3,1.85,3.34,7,.56,9.6-1.38,1.29-2.9,2.41-4.35,3.61-.38.32-.72.68-1.11,1a26.94,26.94,0,0,0,2.81,3.38,3.13,3.13,0,0,0,2.24.3,11.15,11.15,0,0,0,7.51-4.81c3.43-4.63,7.07-9.09,10.62-13.62,1.28,1.13,1.28,1.13.11,7.39l1.21.31Zm-46.17,25.54.36.37c1-.41,2.08-.76,3.08-1.23A55.26,55.26,0,0,0,586.17,152a10,10,0,0,0,2.08-2.75c.68-1.3.34-2.1-1.11-2.34a16.26,16.26,0,0,0-4.35,0,12.9,12.9,0,0,0-2.59.91c-1.76.64-3.92.85-5.19,2s-1.91,3.42-2.79,5.2C571.19,157.19,570.2,159.29,569.19,161.38ZM585.07,131l-.12-.38c-.64.36-1.61.58-1.86,1.12-1.72,3.74-3.31,7.53-4.9,11.32-.32.75,0,1.34.86,1,2.5-1,5.23-1.7,7.37-3.21,2.64-1.87,4.82-4.4,7.11-6.72a1.32,1.32,0,0,0-.37-2.21,16.21,16.21,0,0,0-4.37-1.2A18.79,18.79,0,0,0,585.07,131ZM567.2,164.57c.07.16.14.31.22.46,1.7.45,14.24-5.59,15.41-7.59-.84.47-1.48.86-2.14,1.19-2.74,1.38-5.15,3.52-8.44,3.62a1.16,1.16,0,0,0-.93.46c-.58,1.14-1.59,1-2.61,1.15A4.93,4.93,0,0,0,567.2,164.57Zm38.57-20.66c3.25,0,4.36-2.77,4.1-6.07Zm-13.43-15.22,3.64,1.47c.06-.15.11-.31.17-.46C595.26,128.36,593.8,128.53,592.34,128.69Z" style="fill:#e5e5e5;fill-rule:evenodd"/><path d="M654.6,139.41l-1.86.22c.53.48.89.82,1.54,1.4-2.39.31-4.49.55-6.58.87-1.8.27-3.59.6-5.38,1a1.49,1.49,0,0,0-1,.6c-1.29,2.73-2.51,5.5-3.92,8.62l14.46-.9,0,.2-3.41,1,0,.22,5.55-.27c-.43.45-.61.8-.86.87a39.31,39.31,0,0,1-9.57,1.82,59.5,59.5,0,0,0-6.23.64,8.74,8.74,0,0,0-2.13.93c-.72-1.19-.6.71-.92.35L632,155.61l-.56-1.61.27.23c.76-1.34,1.61-2.65,2.26-4q4-8.53,7.79-17.11c.26-.57.22-1.27.44-1.49l1.81-2.94-.74-.44c0-.14,0-.27,0-.41,7.66-.81,15.23-2.89,23.12-1.82l-2,3.26c.25.22.52.43.78.65l.57-1.48c.59,4.7-1.69,8.5-3.14,12.5-1,2.82-2.44,5.5-3.67,8.24a11.43,11.43,0,0,0-.65,1.68c-.26,1,.51,1,1.1.93,2.69-.24,5.37-.5,8-.8s5.42-.68,8.17-.73l-5.44.75.06.56,7.74-.63a8.8,8.8,0,0,1-.87.49,9.86,9.86,0,0,1-1.12.2l1.79.24.06.42c-1.38.29-2.74.65-4.13.84s-2.82.22-4.26.45l1.35.1a1.49,1.49,0,0,1,0,.21l-5.47.82c-.19,0-.55,0-.57,0-.42-1.39-1.51-.72-2.29-.68-2.37.12-4.74.36-7.23.56v-2.15l-.85.59-.18-.32c.35-.2.69-.41,1-.6.07,0,.19,0,.28,0s.07-.06-.14-.19c.42-1.16.83-2.31,1.24-3.47,1.32-3.71,2.62-7.44,4-11.14.6-1.63,1-3.33,2.32-4.65a2,2,0,0,0,.48-1.4c-.14-1.4,0-2.63,1.37-3.48-.06-.15-.11-.3-.17-.44-1,.12-2,.23-3,.39a3.86,3.86,0,0,0,0,.7c-2.59.6-5.19,1.22-7.8,1.79-1.76.39-3.55.71-5.32,1.08a1.49,1.49,0,0,0-.81.38c-1.75,2.07-3.5,4.16-4.27,7.06,1.9,0,3.71,0,5.52,0,1.28,0,2.55-.14,3.82-.1a10,10,0,0,1,1.9.44C654.65,139.16,654.63,139.28,654.6,139.41Z" style="fill:#e5e5e5;fill-rule:evenodd"/><path d="M615.39,135.87c0-.15,0-.35.06-.44,4.47-5.31,10.13-7.69,17-6.86a8.74,8.74,0,0,1,2.74.9,4.7,4.7,0,0,1,.94,8c-1.22,1.06-2.49,2.07-3.86,3.21a10.54,10.54,0,0,1,1.59,2,4.2,4.2,0,0,1,.43,2.5c-.64,2.45-2.54,4-4.51,5.39a62.25,62.25,0,0,1-6.86,4.5,34.8,34.8,0,0,1-6.69,2.46,5.16,5.16,0,0,0-3.7,2.8,1.41,1.41,0,0,1-.89.71c.33-.76.66-1.53,1.08-2.48h-2.18A200.25,200.25,0,0,0,622.23,133l-6.87,2.8Zm3.79,20q3.54-1.82,7.1-3.61c-.08-.14-.16-.28-.23-.42-2.22,1.13-4.45,2.25-6.66,3.41-.14.08-.13.43-.2.64-1.58-1.61-2.47,1.3-3.94.63-.13-.06-.49.38-.72.61,0,0,0,.18.13.58Zm-3.3-1.3.35.32c.51-.19,1-.35,1.53-.57a44.14,44.14,0,0,0,10.91-6.64c1.08-.93,2.11-1.88,1.83-3.39-.15-.8-2.51-1.16-4-.77l-.15.05c-1.79.56-3.59,1.11-5.38,1.69a1.35,1.35,0,0,0-.71.48C618.8,148.71,617.34,151.66,615.88,154.61Zm6.73-13.27c.17.18.33.37.5.56a82.85,82.85,0,0,0,7.38-4,20.91,20.91,0,0,0,3.86-3.94c.63-.72.32-1.43-.48-1.89-2-1.16-4.21-.6-6.33-.58a1.8,1.8,0,0,0-1.21.93c-1,1.94-1.91,3.92-2.78,5.92C623.15,139.33,622.92,140.35,622.61,141.34Z" style="fill:#e5e5e5;fill-rule:evenodd"/></g><path d="M674.3,400c2.36-14,6.59-32.49-1.21-45.46a2.28,2.28,0,0,1,1.7-3.44,58.45,58.45,0,0,0-55.7-18.36,73.67,73.67,0,0,0-132,24,45.07,45.07,0,0,0-4.82-.26,45.94,45.94,0,0,0,0,91.87H631.13c12.6,0,22.58-3.33,31.92-12.67A130.08,130.08,0,0,0,674.3,400Z" style="fill:#ebebeb;mix-blend-mode:multiply"/><path d="M625.77,325.59a58.89,58.89,0,0,0-12,1.25,73.68,73.68,0,0,0-132,24,44.89,44.89,0,0,0-4.81-.25,45.93,45.93,0,1,0,0,91.86H625.77a58.44,58.44,0,0,0,0-116.87Z" style="fill:url(#b)"/><path d="M476.9,357.67a47.65,47.65,0,0,1,4.81.25,73.67,73.67,0,0,1,132-24,58.43,58.43,0,0,1,70.33,53.36c.08-1.27.14-2.54.14-3.82a58.45,58.45,0,0,0-70.47-57.18,73.67,73.67,0,0,0-132,24,42.43,42.43,0,0,0-4.81-.26A45.93,45.93,0,0,0,431,396c0,1.29.06,2.56.17,3.82A45.93,45.93,0,0,1,476.9,357.67Z" style="fill:#c4ecec"/><g style="mix-blend-mode:multiply"><path d="M531.7,358.65h-3.63l-3,8.6-.6,1.71-3.6-10.31h-3.77L513.52,369l-.6-1.71-3-8.6h-4.61l.33.94,1.16,3.32,2.81,8,2,5.86h3.78L519,366.53l3.58,10.29h3.78l2-5.86,2.81-8,1.15-3.32.33-.94ZM547,371.15l-.56.29a22.88,22.88,0,0,1-2.53,1.14,7.92,7.92,0,0,1-2.68.47,4.69,4.69,0,0,1-2.81-.75,3.46,3.46,0,0,1-1.16-1.72h2.39a12.33,12.33,0,0,0,5.63-1.15,5.38,5.38,0,0,0,3.06-5,5.32,5.32,0,0,0-2.45-4.6,8.71,8.71,0,0,0-4.86-1.43,8.14,8.14,0,0,0-6.34,2.9,10.29,10.29,0,0,0-2.28,6.9,9,9,0,0,0,2.24,6.44,8.26,8.26,0,0,0,6.35,2.54,14.31,14.31,0,0,0,7.62-2.32l.6-.39Zm-7.6-8.32a3,3,0,0,1,1.49-.37,6.37,6.37,0,0,1,1.2.12,2.45,2.45,0,0,1,1,.39,1.49,1.49,0,0,1,.56.55,1.63,1.63,0,0,1,.24.92,1.27,1.27,0,0,1-.3,1,3.67,3.67,0,0,1-1.16.75,7.61,7.61,0,0,1-2.74.28H537a5.78,5.78,0,0,1,1.15-2.51A5,5,0,0,1,539.43,362.83ZM565.57,361a7.81,7.81,0,0,0-6.31-2.87,7.73,7.73,0,0,0-3.73.88V351.1h-4.42v25.11l.5.15a26.16,26.16,0,0,0,6.3.8c3.22,0,5.7-.94,7.37-2.78a10.31,10.31,0,0,0,2.43-6.88A10.59,10.59,0,0,0,565.57,361Zm-5,11.65a5.12,5.12,0,0,1-2.3.41c-.72,0-1.71-.06-2.75-.17v-7.73a2.34,2.34,0,0,1,.72-1.57,3.83,3.83,0,0,1,3-1.28,3.32,3.32,0,0,1,3,1.66,6.79,6.79,0,0,1,1,3.75,5.7,5.7,0,0,1-1.18,3.81A4,4,0,0,1,560.58,372.6Zm9.17-13.92h4.42v18.16h-4.42Zm24.82,18.17v-12.6a6.65,6.65,0,0,0-.54-2.73c-1-2-3.2-3.11-6.24-3.11a7.7,7.7,0,0,0-5.43,1.92,7.87,7.87,0,0,0-1.91-1.85l-.46-.33-2.89,2.63.55.52a4.52,4.52,0,0,1,1.08,1.43,5,5,0,0,1,.31,1.82v12.31h4.42v-12a7.43,7.43,0,0,1,1.76-1.67,4.26,4.26,0,0,1,2.4-.72,2.9,2.9,0,0,1,2,.62c.27.25.55.68.55,2v11.77Zm6.53-.45c2.49-1.79,5.08-1,7.69-.94h.48a35.3,35.3,0,0,0,4.27-.26V358.68h-4.41v11.19s-.7,2.82-3.36,2.87c0,0-3,.22-3.33-2.29V358.69H598v12.6a6.65,6.65,0,0,0,.54,2.73A5,5,0,0,0,601.1,376.4Z" style="fill:#e5e5e5"/><path d="M619.63,366.18a7.46,7.46,0,0,0-5.67-.86h0v5a1.57,1.57,0,0,1,.19-.26,1.59,1.59,0,0,1,.33-.25,2.93,2.93,0,0,1,2.86.11,2.28,2.28,0,0,1,1.08,2.26,2.64,2.64,0,0,1-1,1.91,7.73,7.73,0,0,1-3.56,1.43h-.07l-.14,0v0a43.05,43.05,0,0,1-4.39.2h0l-.36,0h-.13l-.36,0h-.14l-2.38-.16c-.24,0-.47,0-.7,0l-.62,0-.54.05-.16,0a6.6,6.6,0,0,0-2.5.94.18.18,0,0,0-.07.05,5.88,5.88,0,0,0-1.82,1.86,7.32,7.32,0,0,0,0,7.44,6.62,6.62,0,0,0,6.25,3.28,6.91,6.91,0,0,0,5-2.38,11.17,11.17,0,0,0,2.34-4.83c.13-.56.25-1.12.33-1.66l-4.47-.1c-.1.48-.22.95-.36,1.42a6.44,6.44,0,0,1-1.12,2.24,2.65,2.65,0,0,1-1.93.91,2.26,2.26,0,0,1-2.23-1.12,2.91,2.91,0,0,1-.06-2.87,2.51,2.51,0,0,1,.25-.32,2.83,2.83,0,0,1,2.08-.56c.85,0,1.68,0,2.48-.05h0c.3,0,.61,0,.92,0h0l4.53.1a13.07,13.07,0,0,0,6.78-2.57,7,7,0,0,0,2.49-4.93,6.65,6.65,0,0,0-3.17-6.33" style="fill:#e5e5e5"/></g><path d="M529,355.92h-3.63l-3,8.6-.59,1.7-3.6-10.3h-3.77l-3.6,10.3-.59-1.7-3-8.6h-4.61l.33.94,1.16,3.31,2.8,8.06,2,5.86h3.78l3.58-10.29,3.59,10.29h3.78l2-5.86,2.8-8.06,1.16-3.31.33-.94Zm15.32,12.5-.56.29a21,21,0,0,1-2.52,1.13,7.92,7.92,0,0,1-2.68.47,4.67,4.67,0,0,1-2.81-.74,3.39,3.39,0,0,1-1.16-1.72H537a12.19,12.19,0,0,0,5.63-1.16,5.56,5.56,0,0,0,.61-9.58,8.63,8.63,0,0,0-4.86-1.43,8.13,8.13,0,0,0-6.34,2.9,10.21,10.21,0,0,0-2.28,6.89,9.11,9.11,0,0,0,2.23,6.45,8.32,8.32,0,0,0,6.35,2.54,14.29,14.29,0,0,0,7.62-2.32l.61-.39Zm-7.6-8.32a3.09,3.09,0,0,1,1.5-.37,6.45,6.45,0,0,1,1.2.12,2.45,2.45,0,0,1,1,.39,1.49,1.49,0,0,1,.56.55,1.61,1.61,0,0,1,.24.92,1.29,1.29,0,0,1-.3,1,4,4,0,0,1-1.16.74,7.56,7.56,0,0,1-2.74.29h-2.66a5.91,5.91,0,0,1,1.16-2.51A5.08,5.08,0,0,1,536.69,360.1Zm26.15-1.88a8.41,8.41,0,0,0-10.05-2v-7.86h-4.41v25.12l.5.14a25.68,25.68,0,0,0,6.3.81c3.22,0,5.7-.94,7.36-2.78a10.3,10.3,0,0,0,2.44-6.89A10.62,10.62,0,0,0,562.84,358.22Zm-5,11.65a5.2,5.2,0,0,1-2.29.4c-.72,0-1.72-.06-2.76-.17v-7.72a2.35,2.35,0,0,1,.73-1.57,3.82,3.82,0,0,1,3-1.28,3.34,3.34,0,0,1,3,1.65,6.84,6.84,0,0,1,1,3.76,5.7,5.7,0,0,1-1.18,3.81A4,4,0,0,1,557.84,369.87ZM567,356h4.42v18.16H567Zm24.81,18.16v-12.6a6.45,6.45,0,0,0-.54-2.72c-1-2-3.19-3.11-6.23-3.11a7.73,7.73,0,0,0-5.44,1.92,7.47,7.47,0,0,0-1.9-1.85l-.47-.33-2.88,2.63.55.52A4.47,4.47,0,0,1,576,360a4.78,4.78,0,0,1,.32,1.82v12.31h4.42v-12a7.57,7.57,0,0,1,1.75-1.67,4.25,4.25,0,0,1,2.41-.73,3,3,0,0,1,2,.62c.27.26.54.69.54,2v11.76Zm6.54-.44c2.49-1.8,5.08-1.05,7.68-.95h.49a37.53,37.53,0,0,0,4.27-.26V356h-4.42v11.19S605.7,370,603,370c0,0-3,.23-3.34-2.28V356h-4.42v12.6a6.42,6.42,0,0,0,.55,2.72A5.07,5.07,0,0,0,598.37,373.67Z" style="fill:#fff"/><path d="M616.9,363.45a7.51,7.51,0,0,0-5.67-.87h0v5a1,1,0,0,1,.19-.26,1.54,1.54,0,0,1,.32-.25,2.92,2.92,0,0,1,2.87.11,2.28,2.28,0,0,1,1.08,2.26,2.64,2.64,0,0,1-1,1.91,7.62,7.62,0,0,1-3.57,1.42h-.06l-.14,0v0c-.62.06-2.6.22-4.4.2h-1l-2.39-.16a5.47,5.47,0,0,0-.7,0l-.62,0c-.18,0-.36,0-.53.05l-.17,0a7,7,0,0,0-2.5.94l-.07.06a6.1,6.1,0,0,0-1.82,1.86,7.36,7.36,0,0,0,0,7.44,6.64,6.64,0,0,0,6.26,3.28,7,7,0,0,0,5-2.38,11.34,11.34,0,0,0,2.34-4.83c.13-.56.24-1.12.33-1.66l-4.48-.1a14.06,14.06,0,0,1-.36,1.42,6.35,6.35,0,0,1-1.11,2.24,2.66,2.66,0,0,1-1.93.91,2.26,2.26,0,0,1-2.23-1.13,2.87,2.87,0,0,1-.07-2.86,2,2,0,0,1,.26-.32,2.81,2.81,0,0,1,2.07-.56c.86,0,1.68,0,2.49-.05h.95l4.53.1a13.05,13.05,0,0,0,6.78-2.56,7,7,0,0,0,2.48-4.93,6.65,6.65,0,0,0-3.16-6.33" style="fill:#fff"/><g style="mix-blend-mode:multiply"><path d="M498.06,406.16l1.26-1.49a8.56,8.56,0,0,0,6.15,2.54c2.42,0,4-1.28,4-3v-.05c0-1.67-.9-2.62-4.67-3.42-4.13-.9-6-2.23-6-5.18v-.05c0-2.83,2.49-4.91,5.9-4.91a9.37,9.37,0,0,1,6.31,2.21l-1.18,1.57a7.88,7.88,0,0,0-5.18-1.95c-2.34,0-3.83,1.28-3.83,2.9v.05c0,1.69.93,2.64,4.88,3.49s5.85,2.33,5.85,5.08V404c0,3.08-2.57,5.08-6.13,5.08A10.52,10.52,0,0,1,498.06,406.16Z" style="fill:#ccc"/><path d="M521.18,407.37a5.48,5.48,0,0,0,4.18-1.88l1.24,1.1a6.87,6.87,0,0,1-5.47,2.49,6.6,6.6,0,0,1-6.62-6.93c0-3.85,2.69-6.92,6.36-6.92,3.93,0,6.19,3.13,6.19,7a6.41,6.41,0,0,1,0,.69H516.51A4.64,4.64,0,0,0,521.18,407.37Zm3.88-6c-.23-2.41-1.62-4.47-4.24-4.47-2.28,0-4,1.9-4.31,4.47Z" style="fill:#ccc"/><path d="M530.52,395.51h2V399a5.66,5.66,0,0,1,5.41-3.69v2.13h-.15c-2.9,0-5.26,2.08-5.26,6.08v5.29h-2Z" style="fill:#ccc"/><path d="M539.61,395.51h2.18l4.46,11,4.5-11h2.13l-5.78,13.37h-1.74Z" style="fill:#ccc"/><path d="M561.06,407.37a5.51,5.51,0,0,0,4.19-1.88l1.23,1.1a6.85,6.85,0,0,1-5.47,2.49,6.6,6.6,0,0,1-6.62-6.93c0-3.85,2.69-6.92,6.36-6.92,3.93,0,6.19,3.13,6.19,7a6.41,6.41,0,0,1,0,.69H556.39A4.64,4.64,0,0,0,561.06,407.37Zm3.88-6c-.23-2.41-1.62-4.47-4.24-4.47-2.28,0-4,1.9-4.31,4.47Z" style="fill:#ccc"/><path d="M570.4,395.51h2V399a5.66,5.66,0,0,1,5.41-3.69v2.13h-.15c-2.9,0-5.26,2.08-5.26,6.08v5.29h-2Z" style="fill:#ccc"/><path d="M581,390h2v18.74h-2Z" style="fill:#ccc"/><path d="M593.4,407.37a5.49,5.49,0,0,0,4.18-1.88l1.23,1.1a6.83,6.83,0,0,1-5.46,2.49,6.6,6.6,0,0,1-6.63-6.93c0-3.85,2.7-6.92,6.37-6.92,3.93,0,6.18,3.13,6.18,7,0,.18,0,.38,0,.69H588.73A4.63,4.63,0,0,0,593.4,407.37Zm3.87-6c-.23-2.41-1.61-4.47-4.23-4.47-2.29,0-4,1.9-4.31,4.47Z" style="fill:#ccc"/><path d="M601.63,407.08l1-1.41a7.76,7.76,0,0,0,4.6,1.7c1.59,0,2.74-.83,2.74-2.11v-.05c0-1.34-1.56-1.85-3.31-2.34-2.08-.59-4.38-1.31-4.38-3.74v-.05c0-2.29,1.89-3.8,4.51-3.8a9.07,9.07,0,0,1,4.78,1.46l-.9,1.49a7.49,7.49,0,0,0-3.93-1.29c-1.56,0-2.57.83-2.57,1.93v.05c0,1.26,1.65,1.75,3.42,2.29,2,.61,4.26,1.41,4.26,3.79v.05c0,2.52-2.08,4-4.72,4A9.13,9.13,0,0,1,601.63,407.08Z" style="fill:#ccc"/><path d="M614.16,407.08l1-1.41a7.76,7.76,0,0,0,4.59,1.7c1.59,0,2.75-.83,2.75-2.11v-.05c0-1.34-1.57-1.85-3.31-2.34-2.08-.59-4.39-1.31-4.39-3.74v-.05c0-2.29,1.9-3.8,4.52-3.8a9.06,9.06,0,0,1,4.77,1.46l-.9,1.49a7.46,7.46,0,0,0-3.92-1.29c-1.57,0-2.57.83-2.57,1.93v.05c0,1.26,1.64,1.75,3.41,2.29,2.06.61,4.26,1.41,4.26,3.79v.05c0,2.52-2.08,4-4.72,4A9.1,9.1,0,0,1,614.16,407.08Z" style="fill:#ccc"/><path d="M521.6,423.67v-.05a9.05,9.05,0,0,1,9.09-9.29,9.38,9.38,0,0,1,7,2.85l-1.39,1.49a7.79,7.79,0,0,0-5.65-2.46,7,7,0,0,0-6.95,7.36v.05c0,4.16,3,7.42,6.95,7.42a7.8,7.8,0,0,0,5.8-2.59l1.34,1.31a9.36,9.36,0,0,1-7.19,3.15A9,9,0,0,1,521.6,423.67Z" style="fill:#ccc"/><path d="M541.18,413.87h2v18.74h-2Z" style="fill:#ccc"/><path d="M546.93,426V426a6.92,6.92,0,0,1,13.84-.05V426a6.89,6.89,0,0,1-7,6.93A6.8,6.8,0,0,1,546.93,426Zm11.81,0V426a5,5,0,0,0-4.93-5.18,4.9,4.9,0,0,0-4.85,5.13V426a5,5,0,0,0,4.9,5.16A4.89,4.89,0,0,0,558.74,426Z" style="fill:#ccc"/><path d="M564.13,427.58v-8.24h2v7.75c0,2.46,1.34,4,3.67,4a3.92,3.92,0,0,0,4-4.16v-7.59h2v13.27h-2V430.3a5.07,5.07,0,0,1-4.54,2.59C566,432.89,564.13,430.73,564.13,427.58Z" style="fill:#ccc"/><path d="M579.37,426V426c0-4.34,3.16-6.9,6.34-6.9a6,6,0,0,1,5.08,2.82v-8h2v18.74h-2v-2.67a6,6,0,0,1-5.08,2.95C582.53,432.89,579.37,430.37,579.37,426Zm11.5,0v-.05a4.93,4.93,0,0,0-4.8-5.1c-2.57,0-4.67,1.9-4.67,5.1V426c0,3.14,2.15,5.14,4.67,5.14A5,5,0,0,0,590.87,426Z" style="fill:#ccc"/></g><path d="M496.22,405.24l1.26-1.49a8.52,8.52,0,0,0,6.16,2.54c2.41,0,4-1.28,4-3.05v-.05c0-1.67-.89-2.62-4.67-3.42-4.13-.89-6-2.23-6-5.18v0c0-2.83,2.49-4.9,5.9-4.9a9.39,9.39,0,0,1,6.32,2.2L508,393.41a7.9,7.9,0,0,0-5.19-2c-2.33,0-3.82,1.28-3.82,2.9v.05c0,1.69.92,2.64,4.87,3.49s5.86,2.34,5.86,5.08v0c0,3.08-2.57,5.09-6.14,5.09A10.5,10.5,0,0,1,496.22,405.24Z" style="fill:#fff"/><path d="M519.35,406.45a5.49,5.49,0,0,0,4.18-1.88l1.23,1.11a6.84,6.84,0,0,1-5.47,2.49,6.61,6.61,0,0,1-6.62-6.93c0-3.85,2.7-6.93,6.37-6.93,3.92,0,6.18,3.13,6.18,7,0,.18,0,.38,0,.69H514.67A4.65,4.65,0,0,0,519.35,406.45Zm3.87-6C523,398,521.6,396,519,396c-2.29,0-4,1.9-4.32,4.46Z" style="fill:#fff"/><path d="M528.69,394.59h2v3.46a5.7,5.7,0,0,1,5.42-3.69v2.13h-.16c-2.9,0-5.26,2.08-5.26,6.08v5.29h-2Z" style="fill:#fff"/><path d="M537.77,394.59H540l4.47,11,4.49-11H551L545.27,408h-1.75Z" style="fill:#fff"/><path d="M559.23,406.45a5.49,5.49,0,0,0,4.18-1.88l1.23,1.11a6.83,6.83,0,0,1-5.46,2.49,6.61,6.61,0,0,1-6.63-6.93c0-3.85,2.7-6.93,6.37-6.93,3.93,0,6.18,3.13,6.18,7,0,.18,0,.38,0,.69H554.56A4.63,4.63,0,0,0,559.23,406.45Zm3.87-6c-.23-2.41-1.61-4.46-4.23-4.46-2.29,0-4,1.9-4.31,4.46Z" style="fill:#fff"/><path d="M568.57,394.59h2v3.46a5.7,5.7,0,0,1,5.42-3.69v2.13h-.16c-2.89,0-5.26,2.08-5.26,6.08v5.29h-2Z" style="fill:#fff"/><path d="M579.14,389.12h2v18.74h-2Z" style="fill:#fff"/><path d="M591.56,406.45a5.51,5.51,0,0,0,4.19-1.88l1.23,1.11a6.85,6.85,0,0,1-5.47,2.49,6.61,6.61,0,0,1-6.62-6.93c0-3.85,2.69-6.93,6.36-6.93,3.93,0,6.19,3.13,6.19,7a6.41,6.41,0,0,1,0,.69H586.89A4.64,4.64,0,0,0,591.56,406.45Zm3.88-6c-.23-2.41-1.62-4.46-4.24-4.46-2.28,0-4,1.9-4.31,4.46Z" style="fill:#fff"/><path d="M599.8,406.16l1-1.41a7.76,7.76,0,0,0,4.59,1.7c1.6,0,2.75-.82,2.75-2.11v0c0-1.33-1.57-1.85-3.31-2.33-2.08-.59-4.39-1.31-4.39-3.75v0c0-2.29,1.9-3.8,4.52-3.8a9.06,9.06,0,0,1,4.77,1.46l-.9,1.49a7.44,7.44,0,0,0-3.92-1.28c-1.57,0-2.57.82-2.57,1.92V398c0,1.26,1.64,1.75,3.41,2.29,2.06.61,4.26,1.41,4.26,3.8v.05c0,2.51-2.08,4-4.72,4A9.11,9.11,0,0,1,599.8,406.16Z" style="fill:#fff"/><path d="M612.32,406.16l1-1.41a7.76,7.76,0,0,0,4.6,1.7c1.59,0,2.74-.82,2.74-2.11v0c0-1.33-1.56-1.85-3.31-2.33-2.08-.59-4.39-1.31-4.39-3.75v0c0-2.29,1.9-3.8,4.52-3.8a9.07,9.07,0,0,1,4.78,1.46l-.9,1.49a7.47,7.47,0,0,0-3.93-1.28c-1.56,0-2.57.82-2.57,1.92V398c0,1.26,1.65,1.75,3.42,2.29,2.05.61,4.26,1.41,4.26,3.8v.05c0,2.51-2.08,4-4.72,4A9.14,9.14,0,0,1,612.32,406.16Z" style="fill:#fff"/><path d="M519.77,422.76v-.05a9,9,0,0,1,9.08-9.29,9.37,9.37,0,0,1,7,2.84l-1.39,1.49a7.81,7.81,0,0,0-5.64-2.46,7,7,0,0,0-7,7.36v.06a7.09,7.09,0,0,0,7,7.41,7.81,7.81,0,0,0,5.8-2.59l1.33,1.31a9.33,9.33,0,0,1-7.18,3.16A9,9,0,0,1,519.77,422.76Z" style="fill:#fff"/><path d="M539.35,413h2v18.74h-2Z" style="fill:#fff"/><path d="M545.1,425.12v-.05a6.92,6.92,0,0,1,13.83-.05v.05A6.89,6.89,0,0,1,552,432,6.8,6.8,0,0,1,545.1,425.12Zm11.8,0v-.05a5,5,0,0,0-4.92-5.19,4.91,4.91,0,0,0-4.86,5.14v.05a5,5,0,0,0,4.91,5.16A4.89,4.89,0,0,0,556.9,425.12Z" style="fill:#fff"/><path d="M562.29,426.66v-8.24h2v7.75c0,2.46,1.33,4,3.67,4a3.91,3.91,0,0,0,4-4.15v-7.6h2v13.27h-2v-2.31a5.06,5.06,0,0,1-4.55,2.59C564.16,432,562.29,429.81,562.29,426.66Z" style="fill:#fff"/><path d="M577.54,425.09v0c0-4.34,3.15-6.9,6.34-6.9A6,6,0,0,1,589,421v-8h2v18.74h-2V429a6,6,0,0,1-5.08,3C580.69,432,577.54,429.46,577.54,425.09Zm11.49,0V425a4.93,4.93,0,0,0-4.8-5.11c-2.56,0-4.67,1.9-4.67,5.11v.05c0,3.13,2.16,5.13,4.67,5.13A5,5,0,0,0,589,425.07Z" style="fill:#fff"/><g style="mix-blend-mode:multiply"><polygon points="452.88 126.63 484.58 108.32 516.28 126.63 516.28 163.23 484.58 181.53 452.88 163.23 452.88 126.63" style="fill:#e5e5e5"/><path d="M484.58,183.88,450.85,164.4V125.45L484.58,106l33.73,19.47v39Zm-29.67-21.82,29.67,17.13,29.67-17.13V127.8l-29.67-17.13L454.91,127.8Z" style="fill:#e5e5e5"/><polygon points="466.51 134.48 484.58 124.05 502.64 134.48 502.64 155.34 484.58 165.77 466.51 155.34 466.51 134.48" style="fill:#e5e5e5"/><path d="M484.58,167,465.42,156V133.85l19.16-11.06,19.16,11.06V156Zm-17-12.33,17,9.8,17-9.8v-19.6l-17-9.8-17,9.8Z" style="fill:#e5e5e5"/><polygon points="484.58 146.3 452.33 127.57 453.43 125.68 484.58 143.77 515.73 125.68 516.83 127.57 484.58 146.3" style="fill:#e5e5e5"/><rect x="483.48" y="108.32" width="2.19" height="15.72" style="fill:#e5e5e5"/><rect x="483.48" y="145.04" width="2.19" height="36.49" style="fill:#e5e5e5"/><rect x="451.82" y="158.19" width="15.75" height="2.19" transform="translate(-17.95 251.76) rotate(-30.07)" style="fill:#e5e5e5"/><rect x="508.37" y="151.41" width="2.19" height="15.75" transform="matrix(0.5, -0.87, 0.87, 0.5, 116.48, 520.52)" style="fill:#e5e5e5"/></g><path d="M615.36,132.42c0,.05,0,.14,0,.15-2.94,1.42-2.07,4.48-2.69,6.81a6.17,6.17,0,0,1-.59,2,7.3,7.3,0,0,0-.68,1.68q-3.09,9.36-6.16,18.72a2.63,2.63,0,0,1-.87,1.27c.75-2.68,1.5-5.35,2.24-8l-.4-.14c-.41,1.19-.84,2.37-1.24,3.56-.49,1.45-.89,2.92-1.44,4.34a5.23,5.23,0,0,1-1.08,1.3l-.48-.28,6.12-20.67-.48-.3c-2.33.66-4.89.6-6.51,3.11-2,3-4.14,5.93-6.32,8.82-.95,1.27-2.12,2.37-3.3,3.67a3,3,0,0,1,.19-3.87c1.9-2.75,3.66-5.61,5.48-8.43a2.83,2.83,0,0,0-4.06.69,19.1,19.1,0,0,1-6.18,6.24c-1.64,1.13-3.16,2.44-4.84,3.49a22.06,22.06,0,0,1-6.8,3.17,61.06,61.06,0,0,0-8.44,3.09c-.32.13-.53.59-.76.91a14.34,14.34,0,0,1-2.48,3l1.6-3.7-2.95.19a264.48,264.48,0,0,0,15.26-33.31l-.27-.39c-1.05.47-2.08,1-3.16,1.42-1.52.61-2.56,2.19-4.53,2.05-.6,0-1.27.91-1.71,1.25l-1.1-.41,5.62-4.22-.76-.64a24.19,24.19,0,0,1,4.11-2.63c4.41-1.71,8.85-3.41,13.76-3a13.77,13.77,0,0,1,6.34,2c3,1.85,3.34,7,.56,9.6-1.38,1.28-2.9,2.41-4.35,3.61-.38.32-.72.68-1.11,1a26.94,26.94,0,0,0,2.81,3.38,3.13,3.13,0,0,0,2.24.3,11.15,11.15,0,0,0,7.51-4.81c3.43-4.63,7.07-9.09,10.62-13.62,1.28,1.13,1.28,1.13.11,7.38l1.21.31ZM569.19,158l.36.37c1-.41,2.08-.76,3.08-1.24a54.67,54.67,0,0,0,13.54-8.51,9.84,9.84,0,0,0,2.08-2.74c.68-1.3.34-2.1-1.11-2.34a16.26,16.26,0,0,0-4.35,0,12.3,12.3,0,0,0-2.59.91c-1.76.64-3.92.85-5.19,2s-1.91,3.42-2.79,5.2C571.19,153.78,570.2,155.88,569.19,158Zm15.88-30.39-.12-.39c-.64.37-1.61.59-1.86,1.13-1.72,3.73-3.31,7.53-4.9,11.32-.32.75,0,1.34.86,1,2.5-1,5.23-1.7,7.37-3.21,2.64-1.87,4.82-4.4,7.11-6.72a1.33,1.33,0,0,0-.37-2.22,16.19,16.19,0,0,0-4.37-1.19A18.79,18.79,0,0,0,585.07,127.58ZM567.2,161.16c.07.15.14.3.22.45,1.7.45,14.24-5.59,15.41-7.58-.84.47-1.48.86-2.14,1.19-2.74,1.38-5.15,3.52-8.44,3.61a1.22,1.22,0,0,0-.93.46c-.58,1.15-1.59,1.06-2.61,1.15A5.21,5.21,0,0,0,567.2,161.16Zm38.57-20.66c3.25-.05,4.36-2.77,4.1-6.07Zm-13.43-15.22,3.64,1.47c.06-.16.11-.31.17-.46C595.26,125,593.8,125.11,592.34,125.28Z" style="fill:#f7d100;fill-rule:evenodd"/><path d="M654.6,136l-1.86.22c.53.48.89.82,1.54,1.4-2.39.31-4.49.55-6.58.87-1.8.27-3.59.6-5.38,1a1.45,1.45,0,0,0-1,.6c-1.29,2.73-2.51,5.5-3.92,8.62l14.46-.9,0,.19-3.41,1,0,.21,5.55-.26c-.43.45-.61.8-.86.87a39.31,39.31,0,0,1-9.57,1.82,62.29,62.29,0,0,0-6.23.63,9.59,9.59,0,0,0-2.13.93c-.72-1.18-.6.72-.92.35L632,152.2l-.56-1.61.27.23c.76-1.34,1.61-2.65,2.26-4q4-8.52,7.79-17.1c.26-.57.22-1.27.44-1.49l1.81-2.94-.74-.44c0-.14,0-.27,0-.41,7.66-.82,15.23-2.89,23.12-1.82l-2,3.26.78.65.57-1.48c.59,4.7-1.69,8.5-3.14,12.5-1,2.82-2.44,5.5-3.67,8.24a11.43,11.43,0,0,0-.65,1.68c-.26,1,.51,1,1.1.93,2.69-.24,5.37-.5,8-.81s5.42-.67,8.17-.72l-5.44.75.06.56,7.74-.64a7.09,7.09,0,0,1-.87.49,7.47,7.47,0,0,1-1.12.21l1.79.24.06.42c-1.38.29-2.74.64-4.13.84s-2.82.22-4.26.45l1.35.1a1.5,1.5,0,0,1,0,.2c-1.82.28-3.64.56-5.47.82-.19,0-.55,0-.57,0-.42-1.38-1.51-.71-2.29-.67-2.37.12-4.74.36-7.23.56V149l-.85.59-.18-.33c.35-.2.69-.4,1-.59.07,0,.19,0,.28,0s.07,0-.14-.18c.42-1.16.83-2.31,1.24-3.47,1.32-3.72,2.62-7.44,4-11.15.6-1.62,1-3.32,2.32-4.64a2.05,2.05,0,0,0,.48-1.41,3.28,3.28,0,0,1,1.37-3.48c-.06-.14-.11-.29-.17-.43-1,.12-2,.22-3,.38a4,4,0,0,0,0,.71c-2.59.6-5.19,1.22-7.8,1.79-1.76.39-3.55.71-5.32,1.07a1.65,1.65,0,0,0-.81.38c-1.75,2.08-3.5,4.16-4.27,7.07,1.9,0,3.71,0,5.52,0,1.28,0,2.55-.13,3.82-.09a9.32,9.32,0,0,1,1.9.44C654.65,135.75,654.63,135.87,654.6,136Z" style="fill:#f7d100;fill-rule:evenodd"/><path d="M615.39,132.45c0-.14,0-.34.06-.44,4.47-5.3,10.13-7.68,17-6.85a8.72,8.72,0,0,1,2.74.89,4.71,4.71,0,0,1,.94,8c-1.22,1.06-2.49,2.07-3.86,3.21a10.54,10.54,0,0,1,1.59,2,4.17,4.17,0,0,1,.43,2.49c-.64,2.46-2.54,4-4.51,5.4a63.72,63.72,0,0,1-6.86,4.5,34.8,34.8,0,0,1-6.69,2.46,5.14,5.14,0,0,0-3.7,2.79,1.42,1.42,0,0,1-.89.72c.33-.77.66-1.53,1.08-2.48h-2.18a200.25,200.25,0,0,0,11.64-25.53l-6.87,2.79Zm3.79,20,7.1-3.6c-.08-.14-.16-.28-.23-.42-2.22,1.13-4.45,2.25-6.66,3.41-.14.07-.13.43-.2.64-1.58-1.61-2.47,1.3-3.94.63-.13-.06-.49.38-.72.6,0,0,0,.19.13.59C616.19,153.72,617.69,153.11,619.18,152.49Zm-3.3-1.29.35.32c.51-.19,1-.35,1.53-.57a44.14,44.14,0,0,0,10.91-6.64c1.08-.93,2.11-1.88,1.83-3.39-.15-.8-2.51-1.16-4-.77l-.15,0c-1.79.56-3.59,1.11-5.38,1.69a1.25,1.25,0,0,0-.71.48C618.8,145.3,617.34,148.25,615.88,151.2Zm6.73-13.27c.17.18.33.37.5.56a82.85,82.85,0,0,0,7.38-4,21.21,21.21,0,0,0,3.86-3.94c.63-.72.32-1.43-.48-1.89-2-1.16-4.21-.6-6.33-.58a1.78,1.78,0,0,0-1.21.92c-1,2-1.91,3.93-2.78,5.93C623.15,135.91,622.92,136.94,622.61,137.93Z" style="fill:#f7d100;fill-rule:evenodd"/><polygon points="452.88 123.21 484.58 104.91 516.28 123.21 516.28 159.82 484.58 178.12 452.88 159.82 452.88 123.21" style="fill:#8ed5fa"/><path d="M484.58,180.46,450.85,161V122l33.73-19.47L518.31,122v39Zm-29.67-21.81,29.67,17.12,29.67-17.12V124.38l-29.67-17.12-29.67,17.12Z" style="fill:#fff"/><polygon points="466.51 131.07 484.58 120.64 502.64 131.07 502.64 151.93 484.58 162.36 466.51 151.93 466.51 131.07" style="fill:#1c78c0"/><path d="M484.58,163.62l-19.16-11.06V130.44l19.16-11.06,19.16,11.06v22.12Zm-17-12.32,17,9.8,17-9.8V131.7l-17-9.8-17,9.8Z" style="fill:#fff"/><polygon points="484.58 142.89 452.33 124.16 453.43 122.27 484.58 140.36 515.73 122.27 516.83 124.16 484.58 142.89" style="fill:#fff"/><rect x="483.48" y="104.91" width="2.19" height="15.73" style="fill:#fff"/><rect x="483.48" y="141.63" width="2.19" height="36.49" style="fill:#fff"/><rect x="451.82" y="154.78" width="15.75" height="2.19" transform="translate(-16.24 251.3) rotate(-30.07)" style="fill:#fff"/><rect x="508.37" y="148" width="2.19" height="15.75" transform="matrix(0.5, -0.87, 0.87, 0.5, 119.44, 518.82)" style="fill:#fff"/><path d="M621.06,456.79h-5.58a.81.81,0,0,1,0-1.61h5.58a.81.81,0,0,1,0,1.61Zm-11.19,0h-5.58a.81.81,0,0,1,0-1.61h5.58a.81.81,0,0,1,0,1.61Zm-11.18,0h-5.58a.81.81,0,0,1,0-1.61h5.58a.81.81,0,0,1,0,1.61Zm-11.19,0h-5.58a.81.81,0,0,1,0-1.61h5.58a.81.81,0,0,1,0,1.61Zm-11.19,0h-5.58a.81.81,0,0,1,0-1.61h5.58a.81.81,0,0,1,0,1.61Zm-11.18,0h-5.58a.81.81,0,0,1,0-1.61h5.58a.81.81,0,0,1,0,1.61Zm-11.19,0h-5.58a.81.81,0,0,1,0-1.61h5.58a.81.81,0,0,1,0,1.61Zm-11.19,0h-5.58a.81.81,0,0,1,0-1.61h5.58a.81.81,0,0,1,0,1.61Zm-11.19,0H526a.81.81,0,1,1,0-1.61h5.57a.81.81,0,1,1,0,1.61Zm-11.18,0H514.8a.81.81,0,0,1,0-1.61h5.58a.81.81,0,0,1,0,1.61Zm-11.19,0h-5.58a.81.81,0,0,1,0-1.61h5.58a.81.81,0,0,1,0,1.61Zm-11.19,0h-5.58a.81.81,0,0,1,0-1.61H498a.81.81,0,0,1,0,1.61Zm-11.18,0h-5.58a.81.81,0,0,1,0-1.61h5.58a.81.81,0,0,1,0,1.61Zm139.85,0a.8.8,0,0,1,0-1.6c1.84,0,3.69-.12,5.51-.28a.8.8,0,0,1,.87.73.81.81,0,0,1-.73.87c-1.86.16-3.75.26-5.63.28Zm-151,0h0c-1.89,0-3.78-.16-5.64-.38a.81.81,0,0,1-.71-.89.79.79,0,0,1,.89-.7c1.81.21,3.66.33,5.49.37a.8.8,0,0,1,0,1.6Zm162.16-1a.8.8,0,0,1-.13-1.59c1.81-.31,3.62-.69,5.4-1.13a.8.8,0,0,1,1,.58.81.81,0,0,1-.58,1c-1.82.45-3.67.84-5.52,1.15Zm-173.25-.29h-.17c-1.84-.4-3.68-.88-5.46-1.44a.8.8,0,0,1,.47-1.53c1.74.55,3.53,1,5.32,1.4a.8.8,0,0,1,.62.95A.79.79,0,0,1,464.54,455.49Zm184.09-2.43a.8.8,0,0,1-.25-1.56c1.73-.58,3.47-1.24,5.16-2a.8.8,0,1,1,.62,1.48c-1.72.73-3.5,1.41-5.27,2A.78.78,0,0,1,648.63,453.06Zm-194.75-.91a.85.85,0,0,1-.31-.06c-1.72-.73-3.44-1.55-5.1-2.44a.8.8,0,0,1,.76-1.41c1.61.86,3.28,1.66,5,2.37a.8.8,0,0,1-.31,1.54Zm205-3.46a.81.81,0,0,1-.37-1.52c1.62-.84,3.23-1.76,4.79-2.73a.8.8,0,0,1,1.1.25.81.81,0,0,1-.25,1.11c-1.59,1-3.24,1.93-4.9,2.8A.84.84,0,0,1,658.92,448.69ZM444,446.86a.8.8,0,0,1-.44-.13c-1.56-1-3.09-2.16-4.55-3.35a.8.8,0,1,1,1-1.24c1.42,1.15,2.91,2.24,4.43,3.25a.8.8,0,0,1,.22,1.11A.78.78,0,0,1,444,446.86Zm224.36-4.1a.79.79,0,0,1-.64-.32.8.8,0,0,1,.17-1.12c1.47-1.09,2.92-2.25,4.31-3.44a.8.8,0,1,1,1,1.21c-1.41,1.22-2.9,2.41-4.4,3.52A.85.85,0,0,1,668.4,442.76Zm-233-2.93a.78.78,0,0,1-.56-.22c-1.34-1.31-2.64-2.7-3.86-4.14a.82.82,0,0,1,.09-1.13.81.81,0,0,1,1.13.1c1.19,1.39,2.45,2.75,3.75,4a.79.79,0,0,1,0,1.13A.81.81,0,0,1,435.37,439.83Zm241.49-4.37a.81.81,0,0,1-.57-1.37c1.29-1.3,2.54-2.67,3.73-4.06a.78.78,0,0,1,1.12-.09.81.81,0,0,1,.1,1.13c-1.21,1.42-2.5,2.82-3.82,4.15A.77.77,0,0,1,676.86,435.46Zm-248.72-4.14a.8.8,0,0,1-.66-.35c-1.07-1.53-2.09-3.14-3-4.77a.8.8,0,0,1,1.39-.79c.9,1.59,1.89,3.15,2.94,4.65a.8.8,0,0,1-.2,1.11A.79.79,0,0,1,428.14,431.32Zm256-4.38a.8.8,0,0,1-.65-1.27c1.07-1.49,2.1-3,3.06-4.59a.8.8,0,0,1,1.1-.26.8.8,0,0,1,.26,1.1c-1,1.59-2,3.17-3.12,4.69A.81.81,0,0,1,684.09,426.94ZM422.63,421.6a.78.78,0,0,1-.73-.47c-.77-1.71-1.47-3.48-2.07-5.26a.8.8,0,1,1,1.52-.51,54.71,54.71,0,0,0,2,5.11.8.8,0,0,1-.4,1.06A.78.78,0,0,1,422.63,421.6Zm267.29-4.19a.8.8,0,0,1-.37-.08.81.81,0,0,1-.35-1.08c.84-1.63,1.61-3.32,2.31-5a.81.81,0,1,1,1.49.61c-.72,1.73-1.52,3.45-2.37,5.12A.8.8,0,0,1,689.92,417.41ZM419,411a.8.8,0,0,1-.78-.62c-.43-1.83-.78-3.7-1-5.55a.8.8,0,0,1,.68-.91.83.83,0,0,1,.91.69c.25,1.81.59,3.62,1,5.4a.82.82,0,0,1-.6,1Zm275.16-3.92a1.09,1.09,0,0,1-.25,0,.81.81,0,0,1-.51-1c.56-1.73,1.07-3.52,1.5-5.3a.8.8,0,1,1,1.56.38c-.44,1.82-1,3.65-1.54,5.42A.8.8,0,0,1,694.2,407.11ZM417.5,400a.81.81,0,0,1-.8-.77c0-.88-.06-1.78-.06-2.67s0-2,.08-3a.83.83,0,0,1,.84-.76.8.8,0,0,1,.76.84c-.05,1-.07,1.94-.07,2.9s0,1.74.05,2.6a.8.8,0,0,1-.76.84Zm279.32-3.72h-.12a.81.81,0,0,1-.67-.92c.29-1.8.51-3.64.66-5.48a.78.78,0,0,1,.86-.73.8.8,0,0,1,.74.86c-.16,1.88-.38,3.76-.68,5.6A.8.8,0,0,1,696.82,396.25Zm-278.77-7.43h-.11a.81.81,0,0,1-.68-.91c.27-1.86.63-3.73,1.07-5.55a.8.8,0,1,1,1.56.38c-.43,1.77-.78,3.58-1,5.4A.81.81,0,0,1,418.05,388.82Zm279.68-3.71a.8.8,0,0,1-.8-.8V384c0-1.75-.07-3.51-.19-5.23a.8.8,0,1,1,1.59-.12c.13,1.76.2,3.56.2,5.35v.28A.8.8,0,0,1,697.73,385.11Zm-277-7.15a.82.82,0,0,1-.26,0,.8.8,0,0,1-.49-1c.61-1.78,1.31-3.54,2.09-5.25a.8.8,0,0,1,1.46.66c-.76,1.66-1.44,3.38-2,5.11A.8.8,0,0,1,420.68,378Zm276.23-4a.8.8,0,0,1-.79-.68c-.28-1.81-.63-3.63-1-5.42a.8.8,0,0,1,1.56-.36c.42,1.82.78,3.69,1.06,5.54a.79.79,0,0,1-.67.91Zm-271.6-6.17a.86.86,0,0,1-.4-.11.8.8,0,0,1-.29-1.09c.93-1.63,1.95-3.23,3-4.77a.8.8,0,0,1,1.31.93,53.55,53.55,0,0,0-3,4.64A.82.82,0,0,1,425.31,367.8Zm269.06-4.71a.8.8,0,0,1-.76-.56c-.56-1.75-1.19-3.49-1.88-5.19a.8.8,0,0,1,1.49-.6c.7,1.73,1.35,3.52,1.91,5.31a.78.78,0,0,1-.52,1A.67.67,0,0,1,694.37,363.09Zm-262.61-4.41a.81.81,0,0,1-.61-1.33c1.22-1.42,2.52-2.8,3.87-4.11a.8.8,0,1,1,1.12,1.15c-1.32,1.27-2.58,2.62-3.77,4A.83.83,0,0,1,431.76,358.68Zm258.4-5.95a.79.79,0,0,1-.71-.44c-.82-1.64-1.72-3.26-2.66-4.84a.8.8,0,1,1,1.37-.82c1,1.6,1.88,3.27,2.72,4.94a.8.8,0,0,1-.36,1.08A.9.9,0,0,1,690.16,352.73Zm-250.37-1.82a.8.8,0,0,1-.5-1.43c1.46-1.17,3-2.29,4.57-3.32a.8.8,0,0,1,.88,1.34c-1.53,1-3,2.09-4.45,3.23A.81.81,0,0,1,439.79,350.91Zm9.33-6.14a.79.79,0,0,1-.71-.42.81.81,0,0,1,.33-1.09c1.66-.88,3.38-1.69,5.11-2.41a.81.81,0,0,1,1,.44.79.79,0,0,1-.43,1c-1.69.7-3.36,1.49-5,2.35A.84.84,0,0,1,449.12,344.77Zm235.28-1.62a.78.78,0,0,1-.65-.33c-1.07-1.5-2.2-3-3.38-4.37a.8.8,0,1,1,1.23-1c1.2,1.44,2.36,2.94,3.45,4.47a.8.8,0,0,1-.65,1.26Zm-225-2.66a.79.79,0,0,1-.76-.56.81.81,0,0,1,.53-1c1.79-.55,3.63-1,5.47-1.4a.8.8,0,1,1,.33,1.57c-1.8.37-3.59.83-5.33,1.37A1,1,0,0,1,459.43,340.49Zm10.94-2.26a.8.8,0,0,1-.09-1.6l1-.1c.44-1.11.91-2.23,1.4-3.33a.8.8,0,1,1,1.46.65c-.54,1.23-1.06,2.48-1.55,3.72l-.18.47-.5,0-1.47.15Zm206.86-3.65a.78.78,0,0,1-.57-.24q-1.93-2-4-3.8a.8.8,0,1,1,1.06-1.2c1.4,1.23,2.78,2.54,4.09,3.88a.8.8,0,0,1,0,1.13A.82.82,0,0,1,677.23,334.58Zm-201.36-5.3a.84.84,0,0,1-.37-.09.82.82,0,0,1-.34-1.09c.87-1.65,1.8-3.3,2.77-4.9a.8.8,0,1,1,1.37.83c-.95,1.57-1.87,3.19-2.72,4.82A.8.8,0,0,1,475.87,329.28Zm193-2.07a.77.77,0,0,1-.48-.16c-1.47-1.1-3-2.15-4.54-3.13a.8.8,0,0,1,.86-1.36c1.58,1,3.14,2.08,4.64,3.21a.8.8,0,0,1-.48,1.44Zm-9.43-6a.85.85,0,0,1-.38-.09c-1.61-.86-3.28-1.66-5-2.39a.81.81,0,0,1-.41-1.06.8.8,0,0,1,1.05-.41c1.72.74,3.42,1.57,5.08,2.44a.8.8,0,0,1-.38,1.51Zm-177.73-1.5a.82.82,0,0,1-.45-.14.8.8,0,0,1-.2-1.12c1.06-1.53,2.2-3,3.36-4.51a.81.81,0,0,1,1.13-.13.82.82,0,0,1,.13,1.13c-1.15,1.43-2.26,2.93-3.31,4.43A.79.79,0,0,1,481.67,319.72Zm167.49-3a.82.82,0,0,1-.26,0c-1.73-.6-3.5-1.13-5.28-1.59a.8.8,0,1,1,.41-1.55c1.81.47,3.63,1,5.39,1.62a.81.81,0,0,1,.5,1A.8.8,0,0,1,649.16,316.77ZM638.35,314h-.14c-1.81-.32-3.65-.57-5.46-.75a.8.8,0,0,1,.15-1.6c1.86.19,3.74.44,5.59.77a.81.81,0,0,1,.65.93A.8.8,0,0,1,638.35,314Zm-16.7-1a.8.8,0,0,1,0-1.6c1.89-.11,3.78-.14,5.64-.11a.8.8,0,0,1,.78.82.79.79,0,0,1-.8.78h0c-1.81,0-3.66,0-5.51.11Zm-133-2a.81.81,0,0,1-.6-1.34c1.26-1.39,2.58-2.75,3.91-4.05a.81.81,0,0,1,1.14,0,.81.81,0,0,1,0,1.14c-1.31,1.27-2.6,2.61-3.84,4A.78.78,0,0,1,488.64,311Zm128.61-.51a.8.8,0,0,1-.59-.26c-1.24-1.34-2.55-2.67-3.88-3.94a.8.8,0,0,1,0-1.13.82.82,0,0,1,1.14,0c1.35,1.3,2.68,2.64,4,4a.8.8,0,0,1-.59,1.34Zm-120.59-7.28a.81.81,0,0,1-.61-.28.8.8,0,0,1,.09-1.13c.81-.7,1.64-1.37,2.48-2,.64-.5,1.27-1,1.92-1.48a.8.8,0,0,1,1.12.17.81.81,0,0,1-.16,1.12c-.63.47-1.26.95-1.88,1.45-.83.65-1.64,1.32-2.44,2A.78.78,0,0,1,496.66,303.19Zm112.49-.43a.77.77,0,0,1-.51-.19c-1.41-1.17-2.87-2.32-4.35-3.41a.8.8,0,0,1,1-1.29c1.51,1.11,3,2.28,4.43,3.47a.8.8,0,0,1-.52,1.42Zm-103.54-6.27a.78.78,0,0,1-.67-.36.8.8,0,0,1,.23-1.11c1.56-1,3.18-2,4.8-2.93a.8.8,0,0,1,.79,1.4c-1.59.9-3.18,1.87-4.71,2.87A.8.8,0,0,1,505.61,296.49Zm94.53-.35a.82.82,0,0,1-.43-.12c-1.55-1-3.15-1.95-4.75-2.83a.8.8,0,0,1,.78-1.4c1.63.9,3.25,1.87,4.83,2.88a.8.8,0,0,1-.43,1.47ZM515.33,291a.79.79,0,0,1-.72-.45.8.8,0,0,1,.37-1.07c1.68-.81,3.41-1.58,5.14-2.28a.8.8,0,1,1,.61,1.48c-1.7.69-3.4,1.45-5.05,2.24A.72.72,0,0,1,515.33,291Zm75-.24a.85.85,0,0,1-.35-.08c-1.65-.78-3.36-1.53-5.06-2.2a.79.79,0,0,1-.45-1,.8.8,0,0,1,1-.45c1.73.69,3.47,1.44,5.16,2.24a.8.8,0,0,1-.34,1.53Zm-64.67-4a.8.8,0,0,1-.25-1.56c1.77-.59,3.59-1.13,5.39-1.6a.81.81,0,0,1,1,.58.79.79,0,0,1-.57,1c-1.77.47-3.56,1-5.3,1.57A.73.73,0,0,1,525.69,286.78Zm54.27-.16a.67.67,0,0,1-.24,0c-1.74-.56-3.52-1.08-5.31-1.53a.81.81,0,0,1,.4-1.56c1.81.47,3.63,1,5.4,1.56a.8.8,0,0,1-.25,1.57ZM536.5,284a.8.8,0,0,1-.15-1.58c1.84-.36,3.71-.65,5.56-.89a.82.82,0,0,1,.9.7.79.79,0,0,1-.69.89c-1.83.23-3.66.52-5.46.87Zm32.63-.09-.14,0c-1.8-.33-3.64-.61-5.46-.84a.79.79,0,0,1-.7-.89.78.78,0,0,1,.89-.7c1.86.23,3.73.52,5.56.86a.8.8,0,0,1-.15,1.59Zm-21.53-1.31a.8.8,0,0,1-.05-1.6,90.2,90.2,0,0,1,10.53,0,.8.8,0,0,1,.76.84.82.82,0,0,1-.85.76,89.15,89.15,0,0,0-10.34,0Z" style="fill:#f94f24"/><path d="M644.17,225.79h-5.58a.8.8,0,0,1,0-1.6h5.58a.8.8,0,0,1,0,1.6Zm-11.19,0H627.4a.8.8,0,1,1,0-1.6H633a.8.8,0,1,1,0,1.6Zm-11.18,0h-5.58a.8.8,0,0,1,0-1.6h5.58a.8.8,0,0,1,0,1.6Zm-11.19,0H605a.8.8,0,1,1,0-1.6h5.58a.8.8,0,1,1,0,1.6Zm-11.19,0h-5.58a.8.8,0,0,1,0-1.6h5.58a.8.8,0,0,1,0,1.6Zm-11.19,0h-5.57a.8.8,0,1,1,0-1.6h5.57a.8.8,0,1,1,0,1.6Zm-11.18,0h-5.58a.8.8,0,0,1,0-1.6h5.58a.8.8,0,0,1,0,1.6Zm-11.19,0h-5.58a.8.8,0,1,1,0-1.6h5.58a.8.8,0,1,1,0,1.6Zm-11.19,0h-5.58a.8.8,0,0,1,0-1.6h5.58a.8.8,0,0,1,0,1.6Zm-11.18,0h-5.58a.8.8,0,1,1,0-1.6h5.58a.8.8,0,1,1,0,1.6Zm-11.19,0h-5.58a.8.8,0,0,1,0-1.6h5.58a.8.8,0,0,1,0,1.6Zm-11.19,0h-5.58a.8.8,0,1,1,0-1.6h5.58a.8.8,0,1,1,0,1.6Zm-11.19,0h-5.57a.8.8,0,0,1,0-1.6h5.57a.8.8,0,1,1,0,1.6Zm-11.18,0h-5.58a.8.8,0,0,1,0-1.6h5.58a.8.8,0,0,1,0,1.6Zm-11.19,0H482a.8.8,0,0,1,0-1.6h5.58a.8.8,0,0,1,0,1.6Zm-11.19,0H473.1q-1.17,0-2.34,0a.81.81,0,0,1-.78-.83.78.78,0,0,1,.83-.77c.76,0,1.53,0,2.29,0h3.26a.8.8,0,1,1,0,1.6Zm173.42,0a.8.8,0,1,1,0-1.6c1.84,0,3.69-.08,5.51-.21a.8.8,0,1,1,.12,1.6c-1.86.13-3.75.2-5.63.21Zm-184.59-.37h-.07c-1.87-.18-3.75-.42-5.59-.72a.8.8,0,0,1,.26-1.58c1.81.29,3.65.53,5.48.7a.8.8,0,0,1-.08,1.6ZM660.92,225a.8.8,0,0,1-.1-1.59c1.81-.25,3.64-.57,5.44-.94a.79.79,0,0,1,.94.62.81.81,0,0,1-.62.95c-1.83.38-3.7.7-5.55,1Zm-206.76-1.38a.55.55,0,0,1-.18,0c-1.82-.42-3.65-.91-5.44-1.46a.8.8,0,0,1,.47-1.53c1.76.53,3.55,1,5.33,1.43a.8.8,0,0,1-.18,1.58Zm217.71-.89a.8.8,0,0,1-.22-1.58c1.77-.49,3.54-1.05,5.26-1.66a.8.8,0,1,1,.54,1.51c-1.76.62-3.56,1.19-5.37,1.7A.76.76,0,0,1,671.87,222.73Zm-228.4-2.37a.92.92,0,0,1-.28-.05c-1.74-.67-3.48-1.4-5.19-2.18a.8.8,0,0,1,.67-1.46c1.67.77,3.38,1.49,5.09,2.14a.8.8,0,0,1-.29,1.55ZM682.41,219a.8.8,0,0,1-.32-1.54c1.69-.73,3.37-1.52,5-2.36a.8.8,0,1,1,.73,1.43c-1.66.85-3.37,1.66-5.09,2.4A.77.77,0,0,1,682.41,219Zm-249.08-3.31a.85.85,0,0,1-.38-.09c-1.64-.9-3.27-1.86-4.85-2.86a.8.8,0,1,1,.86-1.35c1.55,1,3.15,1.92,4.76,2.8a.8.8,0,0,1,.32,1.08A.8.8,0,0,1,433.33,215.69Zm259-1.81a.8.8,0,0,1-.42-1.48c1.57-1,3.13-2,4.64-3a.81.81,0,0,1,1.12.2.8.8,0,0,1-.2,1.11c-1.54,1.07-3.13,2.1-4.73,3.07A.77.77,0,0,1,692.36,213.88ZM423.9,209.71a.82.82,0,0,1-.47-.15c-1.51-1.1-3-2.27-4.43-3.48a.79.79,0,0,1-.1-1.12.81.81,0,0,1,1.13-.1c1.41,1.18,2.87,2.32,4.35,3.4a.81.81,0,0,1,.17,1.12A.79.79,0,0,1,423.9,209.71Zm277.63-2.22a.78.78,0,0,1-.62-.3.8.8,0,0,1,.12-1.13c1.42-1.14,2.84-2.35,4.19-3.59a.8.8,0,1,1,1.09,1.18c-1.39,1.27-2.83,2.5-4.28,3.66A.79.79,0,0,1,701.53,207.49Zm-286.19-5a.78.78,0,0,1-.55-.23c-1.34-1.29-2.67-2.64-3.93-4a.79.79,0,0,1,.05-1.13.8.8,0,0,1,1.13.05c1.24,1.36,2.54,2.69,3.86,4a.79.79,0,0,1,0,1.13A.83.83,0,0,1,415.34,202.53Zm294.43-2.59a.77.77,0,0,1-.55-.22.82.82,0,0,1,0-1.14c1.26-1.32,2.5-2.7,3.68-4.11a.8.8,0,0,1,1.13-.1.79.79,0,0,1,.1,1.12c-1.2,1.44-2.46,2.85-3.75,4.2A.79.79,0,0,1,709.77,199.94Zm-302-5.67a.81.81,0,0,1-.63-.3c-1.16-1.47-2.29-3-3.36-4.52a.81.81,0,0,1,.2-1.12.8.8,0,0,1,1.12.21c1,1.5,2.15,3,3.3,4.43a.8.8,0,0,1-.13,1.12A.79.79,0,0,1,407.81,194.27Zm309.13-2.91a.85.85,0,0,1-.48-.15.81.81,0,0,1-.17-1.12c1.08-1.48,2.12-3,3.1-4.57a.8.8,0,1,1,1.36.86c-1,1.58-2.07,3.15-3.17,4.66A.79.79,0,0,1,716.94,191.36Zm-315.5-6.28a.8.8,0,0,1-.69-.39c-1-1.59-1.88-3.25-2.73-4.93a.79.79,0,0,1,.34-1.07.79.79,0,0,1,1.08.34c.84,1.65,1.74,3.27,2.68,4.84a.8.8,0,0,1-.27,1.1A.77.77,0,0,1,401.44,185.08Zm321.46-3.16a.75.75,0,0,1-.38-.1.8.8,0,0,1-.33-1.08c.87-1.61,1.7-3.27,2.47-4.94a.8.8,0,1,1,1.45.67c-.78,1.7-1.62,3.39-2.51,5A.79.79,0,0,1,722.9,181.92Zm-326.56-6.8a.79.79,0,0,1-.73-.48c-.74-1.73-1.43-3.49-2.05-5.26a.8.8,0,1,1,1.51-.53c.61,1.73,1.29,3.46,2,5.16a.8.8,0,0,1-.42,1.05A.87.87,0,0,1,396.34,175.12Zm331.2-3.35a.87.87,0,0,1-.28-.05.8.8,0,0,1-.47-1c.65-1.71,1.25-3.47,1.78-5.22a.8.8,0,1,1,1.53.46c-.54,1.79-1.15,3.58-1.81,5.33A.81.81,0,0,1,727.54,171.77Zm-334.9-7.2a.79.79,0,0,1-.77-.59c-.5-1.81-.95-3.65-1.32-5.47a.8.8,0,1,1,1.57-.32c.36,1.78.8,3.59,1.29,5.37a.8.8,0,0,1-.56,1Zm338.14-3.5a.55.55,0,0,1-.18,0,.8.8,0,0,1-.6-1c.41-1.78.76-3.6,1.06-5.42a.8.8,0,0,1,1.58.25c-.3,1.86-.66,3.72-1.08,5.53A.81.81,0,0,1,730.78,161.07Zm-340.39-7.44a.81.81,0,0,1-.79-.7c-.25-1.85-.45-3.73-.57-5.6a.8.8,0,0,1,1.59-.11c.13,1.83.32,3.68.56,5.5a.8.8,0,0,1-.68.9ZM732.55,150h-.08a.8.8,0,0,1-.72-.87c.17-1.82.28-3.68.33-5.52a.79.79,0,0,1,.82-.78.8.8,0,0,1,.78.82c0,1.88-.16,3.77-.33,5.62A.8.8,0,0,1,732.55,150Zm-342.92-7.56a.8.8,0,0,1-.8-.8v-.16c0-1.83.06-3.67.17-5.47a.84.84,0,0,1,.85-.75.8.8,0,0,1,.75.85c-.11,1.77-.17,3.58-.17,5.37v.16A.8.8,0,0,1,389.63,142.48Zm343.2-3.61a.8.8,0,0,1-.8-.77c-.07-1.84-.21-3.7-.41-5.51a.8.8,0,0,1,.71-.88.81.81,0,0,1,.89.71c.2,1.85.34,3.74.41,5.61a.8.8,0,0,1-.77.84Zm-342.48-7.54h-.11a.81.81,0,0,1-.69-.9c.25-1.86.56-3.72.93-5.55a.8.8,0,0,1,1.57.31c-.36,1.8-.67,3.63-.91,5.45A.8.8,0,0,1,390.35,131.33Zm341.28-3.57a.8.8,0,0,1-.79-.66c-.32-1.81-.7-3.62-1.14-5.4a.8.8,0,1,1,1.56-.39c.44,1.82.84,3.67,1.16,5.51a.8.8,0,0,1-.65.93Zm-339.08-7.39-.21,0a.79.79,0,0,1-.56-1c.5-1.81,1.05-3.62,1.67-5.38a.78.78,0,0,1,1-.49.8.8,0,0,1,.5,1c-.6,1.73-1.15,3.51-1.63,5.28A.8.8,0,0,1,392.55,120.37ZM729,116.91a.8.8,0,0,1-.76-.56c-.56-1.74-1.19-3.49-1.87-5.2a.8.8,0,0,1,.45-1,.8.8,0,0,1,1,.45c.69,1.74,1.33,3.52,1.9,5.31a.78.78,0,0,1-.52,1A.67.67,0,0,1,729,116.91Zm-332.74-7.09a.85.85,0,0,1-.31-.06.81.81,0,0,1-.43-1.05c.73-1.72,1.53-3.43,2.37-5.1a.8.8,0,1,1,1.43.72c-.82,1.64-1.61,3.32-2.32,5A.8.8,0,0,1,396.21,109.82Zm328.62-3.31a.81.81,0,0,1-.73-.46c-.79-1.65-1.64-3.31-2.54-4.91a.8.8,0,0,1,.3-1.09.79.79,0,0,1,1.09.31c.92,1.63,1.79,3.31,2.6,5a.8.8,0,0,1-.38,1.07A.84.84,0,0,1,724.83,106.51ZM401.25,99.86a.87.87,0,0,1-.41-.11.81.81,0,0,1-.28-1.1c1-1.62,2-3.21,3-4.74a.8.8,0,1,1,1.32.91c-1,1.5-2,3.06-3,4.65A.8.8,0,0,1,401.25,99.86Zm318.1-3.1a.82.82,0,0,1-.68-.36c-1-1.54-2.07-3.06-3.17-4.53a.79.79,0,0,1,.16-1.12.8.8,0,0,1,1.12.16c1.12,1.49,2.21,3,3.24,4.61a.81.81,0,0,1-.24,1.11A.75.75,0,0,1,719.35,96.76ZM407.58,90.65a.8.8,0,0,1-.5-.17.82.82,0,0,1-.13-1.13c1.16-1.46,2.38-2.9,3.64-4.29a.79.79,0,0,1,1.13-.06.8.8,0,0,1,.06,1.13c-1.24,1.36-2.44,2.78-3.57,4.22A.8.8,0,0,1,407.58,90.65Zm305-2.82a.81.81,0,0,1-.61-.28c-1.2-1.39-2.46-2.76-3.75-4.06a.8.8,0,0,1,0-1.13.79.79,0,0,1,1.13,0c1.31,1.32,2.6,2.72,3.82,4.13a.8.8,0,0,1-.08,1.13A.81.81,0,0,1,712.62,87.83ZM415.08,82.36a.82.82,0,0,1-.58-.24.79.79,0,0,1,0-1.13c1.34-1.3,2.74-2.57,4.17-3.78a.8.8,0,0,1,1.13.09.81.81,0,0,1-.09,1.13c-1.4,1.19-2.78,2.44-4.1,3.71A.77.77,0,0,1,415.08,82.36Zm289.69-2.49a.76.76,0,0,1-.53-.2c-1.38-1.22-2.81-2.41-4.25-3.53a.8.8,0,0,1-.15-1.12.81.81,0,0,1,1.13-.14c1.47,1.14,2.93,2.35,4.33,3.59a.8.8,0,0,1-.53,1.4ZM423.61,75.14a.79.79,0,0,1-.65-.33.81.81,0,0,1,.17-1.12c1.51-1.11,3.07-2.19,4.64-3.19a.8.8,0,0,1,.87,1.35c-1.55,1-3.08,2-4.56,3.13A.76.76,0,0,1,423.61,75.14ZM695.93,73a.79.79,0,0,1-.44-.14c-1.52-1-3.09-2-4.68-2.93a.8.8,0,0,1-.29-1.09.78.78,0,0,1,1.09-.29c1.62.94,3.23,1.94,4.77,3a.8.8,0,0,1,.22,1.11A.8.8,0,0,1,695.93,73ZM433,69.11a.8.8,0,0,1-.71-.42.8.8,0,0,1,.32-1.08c1.64-.9,3.33-1.76,5-2.55a.8.8,0,0,1,.67,1.45c-1.66.78-3.32,1.62-4.93,2.5A.75.75,0,0,1,433,69.11Zm253.25-1.69a.78.78,0,0,1-.36-.08c-1.64-.81-3.33-1.58-5-2.27a.81.81,0,0,1,.61-1.49c1.72.72,3.44,1.5,5.12,2.32a.8.8,0,0,1-.35,1.52Zm-243.11-3a.8.8,0,0,1-.29-1.55c1.75-.67,3.55-1.29,5.33-1.85a.8.8,0,1,1,.47,1.53c-1.75.55-3.5,1.16-5.22,1.82A1,1,0,0,1,443.17,64.39ZM676,63.17a.74.74,0,0,1-.25-.05c-1.75-.58-3.53-1.11-5.3-1.58a.8.8,0,0,1,.41-1.55c1.8.48,3.62,1,5.4,1.61a.81.81,0,0,1-.26,1.57ZM453.85,61.08a.8.8,0,0,1-.78-.61.82.82,0,0,1,.6-1c1.82-.43,3.67-.8,5.52-1.11a.8.8,0,1,1,.26,1.58c-1.81.3-3.63.67-5.41,1.09A.65.65,0,0,1,453.85,61.08Zm211.3-.75-.15,0c-1.79-.34-3.62-.63-5.45-.85a.81.81,0,0,1-.7-.9.79.79,0,0,1,.89-.69c1.87.23,3.74.52,5.56.87a.8.8,0,0,1-.15,1.59ZM464.87,59.25a.8.8,0,0,1-.79-.73.79.79,0,0,1,.72-.87c1.86-.19,3.75-.31,5.61-.37h0a.81.81,0,0,1,.81.78.8.8,0,0,1-.78.82c-1.83.06-3.68.18-5.51.36ZM654.06,59h0c-1.53-.08-3.07-.13-4.59-.13h-5.58a.8.8,0,1,1,0-1.6h5.58c1.55,0,3.12,0,4.68.13a.79.79,0,0,1,.75.84A.8.8,0,0,1,654.06,59Zm-15.82-.13h-5.58a.8.8,0,1,1,0-1.6h5.58a.8.8,0,0,1,0,1.6Zm-11.18,0h-5.58a.8.8,0,1,1,0-1.6h5.58a.8.8,0,0,1,0,1.6Zm-11.19,0h-5.58a.8.8,0,1,1,0-1.6h5.58a.8.8,0,0,1,0,1.6Zm-11.19,0H599.1a.8.8,0,1,1,0-1.6h5.58a.8.8,0,0,1,0,1.6Zm-11.19,0h-5.57a.8.8,0,1,1,0-1.6h5.57a.8.8,0,0,1,0,1.6Zm-11.18,0h-5.58a.8.8,0,1,1,0-1.6h5.58a.8.8,0,0,1,0,1.6Zm-11.19,0h-5.58a.8.8,0,0,1,0-1.6h5.58a.8.8,0,0,1,0,1.6Zm-11.19,0h-5.58a.8.8,0,1,1,0-1.6h5.58a.8.8,0,0,1,0,1.6Zm-11.18,0h-5.58a.8.8,0,0,1,0-1.6h5.58a.8.8,0,0,1,0,1.6Zm-11.19,0H532a.8.8,0,1,1,0-1.6h5.58a.8.8,0,0,1,0,1.6Zm-11.19,0h-5.58a.8.8,0,0,1,0-1.6h5.58a.8.8,0,0,1,0,1.6Zm-11.19,0h-5.57a.8.8,0,0,1,0-1.6h5.57a.8.8,0,1,1,0,1.6Zm-11.18,0h-5.58a.8.8,0,0,1,0-1.6H504a.8.8,0,1,1,0,1.6Zm-11.19,0h-5.58a.8.8,0,0,1,0-1.6h5.58a.8.8,0,1,1,0,1.6Zm-11.19,0H476a.8.8,0,0,1,0-1.6h5.58a.8.8,0,1,1,0,1.6Z" style="fill:#f94f24"/><path d="M66,249.18A104.22,104.22,0,1,1,170.2,353.39,104.22,104.22,0,0,1,66,249.18Z" style="fill:url(#c)"/><g style="mix-blend-mode:multiply"><path d="M143.09,261.86h-3.17l-2.62,7.51-.52,1.5-3.14-9h-3.29l-3.15,9-.52-1.5-2.62-7.51h-4l.29.82,1,2.9,2.45,7,1.77,5.12h3.3l3.14-9,3.14,9h3.3l1.77-5.12,2.45-7,1-2.9.29-.82Zm13.41,10.92-.5.26a18,18,0,0,1-2.2,1,7,7,0,0,1-2.35.41,4.08,4.08,0,0,1-2.45-.65,3,3,0,0,1-1-1.5h2.08a10.67,10.67,0,0,0,4.92-1,4.7,4.7,0,0,0,2.68-4.36,4.65,4.65,0,0,0-2.15-4,7.55,7.55,0,0,0-4.24-1.25,7.1,7.1,0,0,0-5.54,2.53,9,9,0,0,0-2,6,7.9,7.9,0,0,0,2,5.63,7.21,7.21,0,0,0,5.55,2.22,12.57,12.57,0,0,0,6.66-2l.53-.34Zm-6.65-7.27a2.67,2.67,0,0,1,1.31-.32,5.59,5.59,0,0,1,1.05.11,2.27,2.27,0,0,1,.84.33,1.34,1.34,0,0,1,.49.48,1.51,1.51,0,0,1,.21.81,1.11,1.11,0,0,1-.26.86,3.68,3.68,0,0,1-1,.66,6.62,6.62,0,0,1-2.4.25h-2.32a5.17,5.17,0,0,1,1-2.2A4.62,4.62,0,0,1,149.85,265.51Zm22.85-1.64a6.82,6.82,0,0,0-5.51-2.51,6.71,6.71,0,0,0-3.26.77v-6.87h-3.87v21.95l.44.12A22.16,22.16,0,0,0,166,278a8.28,8.28,0,0,0,6.44-2.43,9,9,0,0,0,2.12-6A9.23,9.23,0,0,0,172.7,263.87Zm-4.36,10.18a4.49,4.49,0,0,1-2,.36c-.63,0-1.5-.06-2.41-.15v-6.75a2.09,2.09,0,0,1,.63-1.38,3.39,3.39,0,0,1,2.6-1.12,2.92,2.92,0,0,1,2.63,1.45,6,6,0,0,1,.87,3.28,5,5,0,0,1-1,3.34A3.49,3.49,0,0,1,168.34,274.05Zm8-12.17h3.86v15.88h-3.86Zm21.69,15.88v-11a5.93,5.93,0,0,0-.47-2.39c-.86-1.75-2.8-2.71-5.45-2.71a6.73,6.73,0,0,0-4.75,1.68,6.47,6.47,0,0,0-1.67-1.62l-.4-.29-2.53,2.3.48.45a3.93,3.93,0,0,1,.94,1.25,4.35,4.35,0,0,1,.28,1.6v10.76h3.86V267.31a6.75,6.75,0,0,1,1.54-1.46,3.71,3.71,0,0,1,2.1-.63,2.59,2.59,0,0,1,1.73.54c.24.22.48.6.48,1.72v10.28Zm5.72-.38c2.17-1.57,4.43-.92,6.71-.83h.42a32.55,32.55,0,0,0,3.74-.22V261.88h-3.86v9.78s-.61,2.47-2.93,2.51c0,0-2.62.2-2.92-2V261.89h-3.86v11a5.68,5.68,0,0,0,.47,2.38A4.46,4.46,0,0,0,203.77,277.38Z" style="fill:#e5e5e5"/><path d="M220,268.44a6.51,6.51,0,0,0-5-.75h0v4.38a1.19,1.19,0,0,1,.16-.23,1.23,1.23,0,0,1,.29-.22,2.54,2.54,0,0,1,2.5.1,2,2,0,0,1,.94,2,2.29,2.29,0,0,1-.83,1.66,6.65,6.65,0,0,1-3.12,1.25h-.05l-.13,0v0a36.93,36.93,0,0,1-3.84.18h-.86c-.77,0-1.48-.1-2.08-.14-.21,0-.42,0-.62,0l-.54,0c-.16,0-.32,0-.47.05l-.14,0a5.76,5.76,0,0,0-2.19.82l-.06.05a5.34,5.34,0,0,0-1.59,1.62,6.41,6.41,0,0,0,0,6.5,5.79,5.79,0,0,0,5.47,2.88,6.09,6.09,0,0,0,4.35-2.09,9.78,9.78,0,0,0,2-4.22c.12-.49.22-1,.29-1.45l-3.91-.09c-.09.42-.19.84-.31,1.24a5.46,5.46,0,0,1-1,2,2.32,2.32,0,0,1-1.68.8,2,2,0,0,1-2-1,2.54,2.54,0,0,1-.05-2.5,1.51,1.51,0,0,1,.22-.28,2.5,2.5,0,0,1,1.82-.49c.74,0,1.46,0,2.17,0h.83l4,.09a11.41,11.41,0,0,0,5.92-2.25,6.12,6.12,0,0,0,2.18-4.31,5.82,5.82,0,0,0-2.77-5.53" style="fill:#e5e5e5"/></g><path d="M140.7,259.47h-3.16L134.91,267l-.52,1.49-3.14-9H128l-3.15,9-.52-1.49-2.62-7.52h-4l.29.82,1,2.9,2.45,7,1.77,5.12h3.31l3.13-9,3.14,9H136l1.78-5.12,2.45-7,1-2.9.29-.82Zm13.41,10.92-.49.26a21.58,21.58,0,0,1-2.21,1,7.21,7.21,0,0,1-2.35.4,4.15,4.15,0,0,1-2.45-.64,3.06,3.06,0,0,1-1-1.51h2.08a10.74,10.74,0,0,0,4.93-1,4.71,4.71,0,0,0,2.67-4.36,4.65,4.65,0,0,0-2.14-4,7.56,7.56,0,0,0-4.25-1.25,7.11,7.11,0,0,0-5.54,2.53,9,9,0,0,0-2,6,7.92,7.92,0,0,0,1.95,5.64,7.26,7.26,0,0,0,5.55,2.22,12.49,12.49,0,0,0,6.66-2l.53-.34Zm-6.65-7.26a2.58,2.58,0,0,1,1.31-.33,5.59,5.59,0,0,1,1,.11,2.26,2.26,0,0,1,.84.34,1.26,1.26,0,0,1,.49.48,1.45,1.45,0,0,1,.21.8,1.11,1.11,0,0,1-.26.86,3.47,3.47,0,0,1-1,.66,6.62,6.62,0,0,1-2.4.25h-2.32a5.17,5.17,0,0,1,1-2.2A4.57,4.57,0,0,1,147.46,263.13Zm22.85-1.65a7.3,7.3,0,0,0-8.77-1.74v-6.87h-3.87v21.95l.44.13a22.62,22.62,0,0,0,5.51.7,8.28,8.28,0,0,0,6.44-2.43,9,9,0,0,0,2.12-6A9.23,9.23,0,0,0,170.31,261.48ZM166,271.66a4.49,4.49,0,0,1-2,.36,23.74,23.74,0,0,1-2.41-.15v-6.75a2.09,2.09,0,0,1,.64-1.38,3.36,3.36,0,0,1,2.6-1.12,2.92,2.92,0,0,1,2.62,1.45,5.94,5.94,0,0,1,.87,3.28,5,5,0,0,1-1,3.33A3.41,3.41,0,0,1,166,271.66Zm8-12.16h3.86v15.87H174Zm21.69,15.88v-11a5.68,5.68,0,0,0-.47-2.38c-.86-1.76-2.8-2.72-5.45-2.72a6.73,6.73,0,0,0-4.75,1.68,6.64,6.64,0,0,0-1.67-1.62l-.4-.29-2.53,2.3.49.45a4.16,4.16,0,0,1,.94,1.26,4.48,4.48,0,0,1,.27,1.59v10.76H186V264.92a6.51,6.51,0,0,1,1.54-1.45,3.65,3.65,0,0,1,2.1-.64,2.59,2.59,0,0,1,1.73.54c.24.22.48.6.48,1.72v10.29Zm5.72-.39c2.17-1.57,4.43-.92,6.71-.83h.42a32.55,32.55,0,0,0,3.74-.22V259.5h-3.86v9.78s-.61,2.46-2.93,2.5c0,0-2.62.2-2.92-2V259.5h-3.86v11a5.68,5.68,0,0,0,.47,2.38A4.46,4.46,0,0,0,201.38,275Z" style="fill:#fff"/><path d="M217.57,266.05a6.51,6.51,0,0,0-4.95-.75h0v4.38a1.34,1.34,0,0,1,.16-.23,1.58,1.58,0,0,1,.29-.22,2.54,2.54,0,0,1,2.5.1,2,2,0,0,1,.95,2,2.32,2.32,0,0,1-.84,1.66,6.65,6.65,0,0,1-3.12,1.25h0l-.13,0h0c-.54.05-2.27.19-3.84.17h-.42l-.31,0h-.13l-2.08-.14c-.21,0-.41,0-.62,0l-.54,0a3.73,3.73,0,0,0-.47,0l-.14,0a5.76,5.76,0,0,0-2.19.82l-.06.05A5.34,5.34,0,0,0,200,276.8a6.43,6.43,0,0,0,0,6.51,5.8,5.8,0,0,0,5.47,2.87,6.09,6.09,0,0,0,4.35-2.09,9.79,9.79,0,0,0,2-4.22c.11-.49.21-1,.28-1.45l-3.91-.08c-.08.41-.19.82-.31,1.23a5.54,5.54,0,0,1-1,2,2.32,2.32,0,0,1-1.68.8,2,2,0,0,1-1.95-1,2.53,2.53,0,0,1-.06-2.51,1.51,1.51,0,0,1,.22-.28,2.45,2.45,0,0,1,1.82-.49c.74,0,1.46,0,2.17,0h.83l4,.09a11.49,11.49,0,0,0,5.92-2.24,6.16,6.16,0,0,0,2.18-4.32,5.82,5.82,0,0,0-2.77-5.53" style="fill:#fff"/><path d="M140.72,299.07V299a11.62,11.62,0,0,1,11.66-11.92,12,12,0,0,1,9,3.66l-1.78,1.91a10.06,10.06,0,0,0-7.25-3.16c-5.1,0-8.92,4.15-8.92,9.45V299c0,5.34,3.85,9.52,8.92,9.52,3.16,0,5.24-1.22,7.44-3.32l1.72,1.68a12,12,0,0,1-9.22,4.05A11.5,11.5,0,0,1,140.72,299.07Z" style="fill:#fff"/><path d="M166,287.48h2.6v20.65h13v2.4H166Z" style="fill:#fff"/><path d="M186.65,287.48h2.6v23h-2.6Z" style="fill:#fff"/><path d="M169.89,370.81h0c-1.87,0-3.76-.06-5.61-.14a.81.81,0,0,1-.77-.84.82.82,0,0,1,.84-.76c1.84.08,3.7.13,5.54.13a.81.81,0,0,1,.8.81A.8.8,0,0,1,169.89,370.81Zm5.6-.12a.8.8,0,0,1-.8-.76.81.81,0,0,1,.77-.84c1.84-.08,3.7-.2,5.53-.36a.8.8,0,1,1,.14,1.59c-1.85.17-3.74.29-5.6.37Zm-16.77-.42h-.07c-1.87-.17-3.74-.39-5.58-.65a.8.8,0,1,1,.23-1.59c1.81.26,3.66.48,5.5.65a.8.8,0,0,1-.08,1.6Zm27.91-.57a.79.79,0,0,1-.79-.7.8.8,0,0,1,.68-.9c1.83-.25,3.67-.54,5.47-.87a.8.8,0,0,1,.29,1.58c-1.82.33-3.69.63-5.54.88Zm-39-1-.15,0c-1.82-.34-3.67-.73-5.49-1.17a.79.79,0,0,1-.59-1,.81.81,0,0,1,1-.6c1.8.43,3.62.82,5.42,1.16a.8.8,0,0,1-.15,1.59Zm50-1a.8.8,0,0,1-.18-1.58c1.78-.42,3.59-.88,5.36-1.38a.8.8,0,0,1,.44,1.54c-1.8.51-3.63,1-5.44,1.4Zm-60.85-1.55a.54.54,0,0,1-.22,0c-1.8-.51-3.6-1.08-5.36-1.67a.8.8,0,1,1,.51-1.52c1.74.59,3.52,1.15,5.29,1.65a.82.82,0,0,1,.55,1A.81.81,0,0,1,136.78,366.13Zm71.61-1.48a.81.81,0,0,1-.26-1.57c1.75-.58,3.51-1.21,5.22-1.87a.81.81,0,0,1,1,.46.8.8,0,0,1-.46,1c-1.73.67-3.51,1.3-5.28,1.89A.79.79,0,0,1,208.39,364.65Zm-82.22-2.11a.79.79,0,0,1-.29-.06c-1.73-.68-3.48-1.41-5.19-2.17a.8.8,0,0,1-.4-1.06.79.79,0,0,1,1-.4c1.69.75,3.42,1.47,5.13,2.14a.8.8,0,0,1,.45,1A.81.81,0,0,1,126.17,362.54Zm92.64-1.91a.81.81,0,0,1-.74-.48.8.8,0,0,1,.41-1c1.69-.75,3.37-1.53,5-2.35a.8.8,0,0,1,.71,1.44c-1.66.82-3.36,1.62-5.07,2.37A.77.77,0,0,1,218.81,360.63ZM115.94,358a.94.94,0,0,1-.36-.08c-1.66-.84-3.33-1.73-5-2.65a.8.8,0,1,1,.79-1.39c1.61.9,3.25,1.78,4.9,2.61a.8.8,0,0,1-.37,1.51Zm112.86-2.3a.81.81,0,0,1-.7-.41.79.79,0,0,1,.31-1.09c1.6-.89,3.21-1.84,4.77-2.8a.8.8,0,1,1,.85,1.36c-1.59,1-3.22,1.94-4.84,2.84A.78.78,0,0,1,228.8,355.67Zm-122.61-3.19a.85.85,0,0,1-.43-.12c-1.58-1-3.16-2-4.69-3.09a.81.81,0,0,1-.2-1.12A.8.8,0,0,1,102,348c1.52,1.05,3.07,2.07,4.63,3.05a.8.8,0,0,1-.42,1.48ZM238.3,349.8a.78.78,0,0,1-.66-.35.79.79,0,0,1,.21-1.11c1.5-1,3-2.12,4.49-3.23a.8.8,0,1,1,1,1.28c-1.5,1.13-3,2.23-4.56,3.27A.82.82,0,0,1,238.3,349.8ZM97,346.11a.82.82,0,0,1-.49-.16c-1.48-1.13-3-2.31-4.39-3.51a.81.81,0,0,1-.1-1.13.81.81,0,0,1,1.13-.1c1.41,1.18,2.87,2.35,4.33,3.46a.8.8,0,0,1,.15,1.13A.79.79,0,0,1,97,346.11Zm150.23-3a.78.78,0,0,1-.61-.29.8.8,0,0,1,.1-1.13c1.42-1.17,2.82-2.39,4.18-3.63a.8.8,0,1,1,1.08,1.18c-1.38,1.26-2.8,2.5-4.24,3.68A.77.77,0,0,1,247.22,343.08Zm-158.8-4.15a.82.82,0,0,1-.55-.21c-1.37-1.27-2.73-2.58-4-3.9a.8.8,0,0,1,0-1.13.81.81,0,0,1,1.14,0c1.29,1.31,2.63,2.6,4,3.85a.8.8,0,0,1,.05,1.13A.82.82,0,0,1,88.42,338.93Zm167.07-3.37a.77.77,0,0,1-.56-.24.79.79,0,0,1,0-1.13c1.3-1.3,2.59-2.65,3.83-4a.8.8,0,0,1,1.18,1.08c-1.25,1.37-2.56,2.73-3.88,4.05A.8.8,0,0,1,255.49,335.56ZM80.54,331a.79.79,0,0,1-.59-.27c-1.25-1.37-2.48-2.8-3.67-4.24a.81.81,0,0,1,.11-1.13.8.8,0,0,1,1.13.11c1.17,1.42,2.39,2.83,3.62,4.19a.8.8,0,0,1-.06,1.13A.78.78,0,0,1,80.54,331ZM263,327.31a.77.77,0,0,1-.51-.19.8.8,0,0,1-.1-1.13c1.18-1.41,2.34-2.87,3.45-4.34a.8.8,0,0,1,1.12-.15.81.81,0,0,1,.16,1.12c-1.13,1.49-2.31,3-3.5,4.4A.81.81,0,0,1,263,327.31Zm-189.6-4.95a.79.79,0,0,1-.64-.32c-1.13-1.5-2.22-3-3.26-4.56a.8.8,0,0,1,.21-1.12.79.79,0,0,1,1.11.22c1,1.51,2.11,3,3.22,4.5a.81.81,0,0,1-.16,1.12A.77.77,0,0,1,73.44,322.36Zm196.36-4a.77.77,0,0,1-.45-.14.8.8,0,0,1-.21-1.11c1.05-1.52,2.07-3.08,3-4.64a.81.81,0,0,1,1.11-.26.8.8,0,0,1,.25,1.1c-1,1.58-2,3.16-3.08,4.71A.79.79,0,0,1,269.8,318.39ZM67.16,313.13a.79.79,0,0,1-.68-.39c-1-1.59-1.93-3.22-2.82-4.84a.79.79,0,0,1,.31-1.09.81.81,0,0,1,1.09.32c.88,1.59,1.82,3.2,2.78,4.78a.8.8,0,0,1-.26,1.1A.81.81,0,0,1,67.16,313.13Zm208.55-4.24a.79.79,0,0,1-.69-1.19c.89-1.6,1.77-3.25,2.59-4.91a.81.81,0,0,1,1.44.72c-.84,1.67-1.73,3.35-2.64,5A.79.79,0,0,1,275.71,308.89ZM61.76,303.35a.81.81,0,0,1-.72-.44c-.82-1.67-1.61-3.38-2.36-5.08a.8.8,0,1,1,1.47-.64c.74,1.68,1.52,3.36,2.33,5a.8.8,0,0,1-.36,1.07A.78.78,0,0,1,61.76,303.35Zm219-4.48a.74.74,0,0,1-.32-.07.79.79,0,0,1-.41-1.05c.75-1.69,1.46-3.41,2.13-5.13a.82.82,0,0,1,1-.46.8.8,0,0,1,.45,1c-.67,1.74-1.4,3.49-2.15,5.2A.81.81,0,0,1,280.72,298.87ZM57.3,293.13a.8.8,0,0,1-.75-.51c-.66-1.74-1.3-3.52-1.88-5.29a.8.8,0,0,1,1.52-.5c.58,1.74,1.2,3.5,1.86,5.21a.81.81,0,0,1-.46,1A1,1,0,0,1,57.3,293.13Zm227.48-4.7a.82.82,0,0,1-.26,0,.8.8,0,0,1-.5-1c.59-1.75,1.14-3.53,1.64-5.29a.8.8,0,0,1,1.54.44c-.51,1.79-1.07,3.59-1.66,5.36A.8.8,0,0,1,284.78,288.43Zm-231-5.92a.79.79,0,0,1-.77-.58c-.51-1.8-1-3.63-1.39-5.44a.8.8,0,0,1,.61-1,.79.79,0,0,1,1,.6c.42,1.79.88,3.6,1.37,5.37a.79.79,0,0,1-.56,1Zm234-4.84a.65.65,0,0,1-.19,0,.79.79,0,0,1-.59-1c.42-1.8.8-3.62,1.14-5.42a.79.79,0,0,1,.93-.64.8.8,0,0,1,.64.93c-.34,1.83-.73,3.68-1.15,5.49A.81.81,0,0,1,287.84,277.67ZM51.3,271.62a.8.8,0,0,1-.79-.66c-.33-1.85-.63-3.71-.87-5.55a.8.8,0,0,1,.69-.9.81.81,0,0,1,.9.69c.24,1.81.53,3.65.86,5.47a.8.8,0,0,1-.65.93Zm238.58-4.94h-.11a.79.79,0,0,1-.68-.9c.25-1.83.46-3.68.63-5.5a.8.8,0,1,1,1.59.14c-.16,1.85-.38,3.72-.64,5.58A.79.79,0,0,1,289.88,266.68ZM49.82,260.54a.81.81,0,0,1-.8-.74c-.16-1.85-.28-3.73-.35-5.6a.79.79,0,0,1,.76-.83h0a.81.81,0,0,1,.8.77c.07,1.84.19,3.7.35,5.53a.79.79,0,0,1-.73.86Zm241.08-5h0a.8.8,0,0,1-.76-.84c.08-1.82.12-3.69.12-5.54a.81.81,0,0,1,1.61,0c0,1.88-.05,3.76-.13,5.62A.79.79,0,0,1,290.9,255.55ZM49.37,249.36h0a.79.79,0,0,1-.79-.8c0-1.86.06-3.75.15-5.61a.79.79,0,0,1,.84-.76.8.8,0,0,1,.76.84c-.09,1.84-.14,3.7-.15,5.54A.79.79,0,0,1,49.37,249.36ZM291,245.59a.8.8,0,0,1-.8-.77c-.07-1.83-.18-3.7-.33-5.53a.82.82,0,0,1,.74-.87.79.79,0,0,1,.86.74c.15,1.86.26,3.74.33,5.6a.81.81,0,0,1-.77.83Zm-241-7.39h-.08a.81.81,0,0,1-.72-.88c.18-1.85.41-3.73.67-5.57a.8.8,0,0,1,1.59.23c-.26,1.82-.48,3.66-.66,5.5A.8.8,0,0,1,49.93,238.2ZM290,234.45a.81.81,0,0,1-.8-.7c-.23-1.83-.51-3.67-.83-5.48A.8.8,0,1,1,290,228c.32,1.83.6,3.7.84,5.55a.8.8,0,0,1-.69.89ZM51.52,227.13h-.15a.81.81,0,0,1-.64-.94c.36-1.84.75-3.68,1.19-5.49a.8.8,0,0,1,1-.59.82.82,0,0,1,.6,1c-.43,1.78-.82,3.6-1.17,5.41A.79.79,0,0,1,51.52,227.13Zm236.58-3.69a.8.8,0,0,1-.78-.63c-.4-1.79-.85-3.6-1.34-5.37a.82.82,0,0,1,.56-1,.8.8,0,0,1,1,.56c.49,1.81,1,3.64,1.35,5.45a.8.8,0,0,1-.6,1Zm-234-7.18a.83.83,0,0,1-.22,0,.8.8,0,0,1-.55-1c.52-1.79,1.09-3.59,1.69-5.35a.8.8,0,0,1,1-.5.79.79,0,0,1,.5,1c-.6,1.74-1.16,3.52-1.67,5.29A.79.79,0,0,1,54.13,216.26Zm231-3.61a.79.79,0,0,1-.76-.55c-.57-1.74-1.18-3.5-1.83-5.23a.8.8,0,1,1,1.5-.56c.65,1.74,1.28,3.53,1.85,5.3a.78.78,0,0,1-.51,1A.73.73,0,0,1,285.15,212.65Zm-227.4-7a1,1,0,0,1-.3,0,.81.81,0,0,1-.45-1c.69-1.75,1.42-3.49,2.19-5.19a.8.8,0,0,1,1.46.66c-.75,1.67-1.48,3.39-2.16,5.11A.78.78,0,0,1,57.75,205.67Zm223.46-3.46a.81.81,0,0,1-.73-.49c-.73-1.69-1.51-3.38-2.31-5a.81.81,0,1,1,1.45-.7c.81,1.66,1.59,3.37,2.33,5.09a.8.8,0,0,1-.42,1A.88.88,0,0,1,281.21,202.21ZM62.34,195.45a.8.8,0,0,1-.37-.08.81.81,0,0,1-.35-1.08c.85-1.67,1.74-3.34,2.66-4.95a.81.81,0,0,1,1.09-.31.79.79,0,0,1,.3,1.09c-.9,1.6-1.78,3.25-2.62,4.89A.79.79,0,0,1,62.34,195.45Zm214-3.28a.81.81,0,0,1-.71-.41c-.88-1.62-1.8-3.23-2.76-4.8a.8.8,0,0,1,1.37-.83c1,1.59,1.91,3.22,2.8,4.86a.81.81,0,0,1-.32,1.09A.85.85,0,0,1,276.33,192.17ZM67.85,185.71a.81.81,0,0,1-.42-.12.8.8,0,0,1-.25-1.11c1-1.57,2-3.15,3.1-4.68a.79.79,0,0,1,1.11-.2.78.78,0,0,1,.2,1.11c-1,1.51-2.08,3.07-3.06,4.63A.8.8,0,0,1,67.85,185.71Zm202.68-3.08a.8.8,0,0,1-.66-.35c-1-1.53-2.1-3.05-3.2-4.53a.8.8,0,1,1,1.29-.95c1.11,1.5,2.2,3,3.24,4.58a.8.8,0,0,1-.22,1.11A.82.82,0,0,1,270.53,182.63Zm-196.29-6.1a.78.78,0,0,1-.48-.17.8.8,0,0,1-.15-1.12c1.13-1.47,2.31-3,3.52-4.38a.8.8,0,1,1,1.22,1c-1.19,1.42-2.35,2.87-3.47,4.32A.79.79,0,0,1,74.24,176.53Zm189.64-2.87a.8.8,0,0,1-.63-.3c-1.16-1.42-2.37-2.84-3.59-4.21a.8.8,0,0,1,.06-1.13.8.8,0,0,1,1.13.06c1.24,1.39,2.47,2.83,3.65,4.27a.8.8,0,0,1-.12,1.13A.81.81,0,0,1,263.88,173.66ZM81.45,168a.8.8,0,0,1-.59-1.34c1.28-1.38,2.59-2.73,3.91-4a.8.8,0,1,1,1.12,1.14c-1.3,1.28-2.59,2.62-3.85,4A.79.79,0,0,1,81.45,168Zm175-2.64a.78.78,0,0,1-.57-.24c-1.29-1.32-2.63-2.62-4-3.86a.81.81,0,0,1,0-1.14.82.82,0,0,1,1.14,0c1.36,1.27,2.71,2.58,4,3.92a.79.79,0,0,1,0,1.13A.8.8,0,0,1,256.42,165.33Zm-167-5.21a.8.8,0,0,1-.53-1.39c1.37-1.24,2.8-2.47,4.25-3.66a.8.8,0,1,1,1,1.24c-1.43,1.17-2.84,2.38-4.2,3.61A.86.86,0,0,1,89.41,160.12Zm158.82-2.4a.78.78,0,0,1-.52-.19c-1.4-1.18-2.85-2.36-4.31-3.48a.8.8,0,1,1,1-1.27c1.48,1.14,3,2.33,4.36,3.53a.81.81,0,0,1,.1,1.13A.83.83,0,0,1,248.23,157.72ZM98.05,153a.8.8,0,0,1-.47-1.44c1.49-1.12,3-2.21,4.57-3.25a.8.8,0,1,1,.89,1.33c-1.51,1-3,2.1-4.51,3.2A.77.77,0,0,1,98.05,153Zm141.31-2.15a.73.73,0,0,1-.45-.14c-1.51-1.06-3.06-2.09-4.62-3.08a.79.79,0,0,1-.25-1.1.81.81,0,0,1,1.11-.25c1.57,1,3.15,2.05,4.67,3.12a.8.8,0,0,1-.46,1.45Zm-132-4.11a.81.81,0,0,1-.69-.38.8.8,0,0,1,.27-1.1c1.58-1,3.21-1.91,4.85-2.81a.8.8,0,1,1,.77,1.4c-1.61.89-3.22,1.82-4.78,2.78A.83.83,0,0,1,107.31,146.78Zm122.6-1.87a.71.71,0,0,1-.4-.11c-1.6-.91-3.24-1.79-4.88-2.63a.8.8,0,0,1,.72-1.43c1.67.85,3.33,1.75,5,2.67a.79.79,0,0,1,.3,1.09A.81.81,0,0,1,229.91,144.91Zm-112.82-3.5a.8.8,0,0,1-.35-1.52c1.67-.82,3.39-1.61,5.09-2.35a.8.8,0,0,1,1,.42.79.79,0,0,1-.42,1c-1.67.73-3.36,1.51-5,2.32A.72.72,0,0,1,117.09,141.41Zm102.84-1.58a.8.8,0,0,1-.33-.08c-1.69-.76-3.4-1.49-5.11-2.17a.8.8,0,1,1,.59-1.48c1.73.68,3.47,1.42,5.18,2.19a.81.81,0,0,1-.33,1.54ZM127.33,137a.79.79,0,0,1-.75-.51.81.81,0,0,1,.46-1c1.74-.66,3.52-1.29,5.3-1.87a.8.8,0,1,1,.49,1.53c-1.75.57-3.5,1.19-5.22,1.84A.69.69,0,0,1,127.33,137Zm82.19-1.28a.84.84,0,0,1-.27,0c-1.72-.6-3.5-1.16-5.27-1.68a.8.8,0,1,1,.45-1.54c1.8.53,3.6,1.1,5.35,1.7a.8.8,0,0,1-.26,1.56ZM138,133.5a.81.81,0,0,1-.77-.59.8.8,0,0,1,.56-1c1.79-.49,3.62-.95,5.44-1.36a.8.8,0,1,1,.36,1.56c-1.8.41-3.61.86-5.38,1.35A.76.76,0,0,1,138,133.5Zm60.84-.95-.19,0c-1.79-.44-3.61-.83-5.42-1.18a.81.81,0,0,1-.63-.94.8.8,0,0,1,.94-.64c1.83.36,3.67.76,5.48,1.2a.8.8,0,0,1-.18,1.58ZM148.85,131a.8.8,0,0,1-.78-.66.79.79,0,0,1,.64-.93c1.85-.33,3.71-.62,5.55-.86a.8.8,0,0,1,.21,1.59c-1.82.24-3.66.52-5.47.84Zm39-.61h-.11c-1.83-.26-3.68-.49-5.5-.67a.8.8,0,0,1-.72-.88.78.78,0,0,1,.87-.71c1.85.18,3.73.41,5.58.68a.8.8,0,0,1,.67.91A.8.8,0,0,1,187.81,130.42Zm-27.87-.84a.81.81,0,0,1-.8-.74.79.79,0,0,1,.73-.86c1.85-.16,3.73-.27,5.6-.35h0a.81.81,0,0,1,0,1.61c-1.85.07-3.71.18-5.53.33Zm16.75-.26h-.05c-1.84-.1-3.7-.16-5.53-.17a.8.8,0,0,1-.8-.81.79.79,0,0,1,.81-.79c1.86,0,3.74.07,5.61.17a.8.8,0,0,1,0,1.6Z" style="fill:#f94f24"/><path d="M145.11,232a4.41,4.41,0,0,1-2.71-7.89l15.4-11.93-15.4-11.94a4.4,4.4,0,0,1,5.4-7l19.89,15.41a4.42,4.42,0,0,1,0,7L147.8,231.09A4.33,4.33,0,0,1,145.11,232Z" style="fill:#e5e5e5;mix-blend-mode:multiply"/><path d="M194.41,232H174a4.41,4.41,0,1,1,0-8.81h20.45a4.41,4.41,0,1,1,0,8.81Z" style="fill:#e5e5e5;mix-blend-mode:multiply"/><path d="M142.72,229.84A4.41,4.41,0,0,1,140,222L155.41,210,140,198.08a4.4,4.4,0,1,1,5.4-7l19.88,15.41a4.41,4.41,0,0,1,0,7l-19.88,15.41A4.38,4.38,0,0,1,142.72,229.84Z" style="fill:#fff"/><path d="M192,229.84H171.57a4.41,4.41,0,0,1,0-8.82H192a4.41,4.41,0,1,1,0,8.82Z" style="fill:#fff"/><path d="M435.34,255.83h-5.58a.81.81,0,0,1,0-1.61h5.58a.81.81,0,0,1,0,1.61Zm-11.19,0h-5.58a.81.81,0,0,1,0-1.61h5.58a.81.81,0,0,1,0,1.61Zm-11.18,0h-5.58a.81.81,0,0,1,0-1.61H413a.81.81,0,0,1,0,1.61Zm-11.19,0H396.2a.81.81,0,0,1,0-1.61h5.58a.81.81,0,0,1,0,1.61Zm-11.19,0H385a.81.81,0,0,1,0-1.61h5.58a.81.81,0,0,1,0,1.61Zm-11.18,0h-5.58a.81.81,0,0,1,0-1.61h5.58a.81.81,0,0,1,0,1.61Zm-11.19,0h-5.58a.81.81,0,0,1,0-1.61h5.58a.81.81,0,0,1,0,1.61Zm-11.19,0h-5.58a.81.81,0,0,1,0-1.61H357a.81.81,0,0,1,0,1.61Zm-11.19,0h-5.58a.81.81,0,0,1,0-1.61h5.58a.81.81,0,0,1,0,1.61Zm-11.18,0h-5.58a.81.81,0,0,1,0-1.61h5.58a.81.81,0,0,1,0,1.61Zm-11.19,0h-5.58a.81.81,0,0,1,0-1.61h5.58a.81.81,0,0,1,0,1.61Zm-11.19,0H306.7a.81.81,0,0,1,0-1.61h5.58a.81.81,0,0,1,0,1.61Zm-11.18,0h-5.58a.81.81,0,0,1,0-1.61h5.58a.81.81,0,0,1,0,1.61ZM441,255.47a.8.8,0,0,1-.11-1.6,33.35,33.35,0,0,0,5.32-1.19.8.8,0,0,1,.48,1.53,35.28,35.28,0,0,1-5.58,1.25ZM451.53,252a.8.8,0,0,1-.4-1.5,16.89,16.89,0,0,0,4.12-3.33.79.79,0,0,1,1.13-.07.8.8,0,0,1,.07,1.13,18.67,18.67,0,0,1-4.51,3.66A.87.87,0,0,1,451.53,252Zm7.15-8.29a.65.65,0,0,1-.27-.05.79.79,0,0,1-.48-1,16.91,16.91,0,0,0,.95-5.2.79.79,0,0,1,.83-.78.8.8,0,0,1,.77.83,18.2,18.2,0,0,1-1.05,5.69A.78.78,0,0,1,458.68,243.72Zm1-11.06a.8.8,0,0,1-.8-.8v-5.58a.8.8,0,0,1,1.6,0v5.58A.8.8,0,0,1,459.69,232.66Z" style="fill:#f94f24"/><path d="M459.69,335.75a.8.8,0,0,1-.8-.8V331a.8.8,0,0,1,1.6,0V335A.8.8,0,0,1,459.69,335.75Zm0-9.52a.8.8,0,0,1-.8-.8v-5.58a.8.8,0,0,1,1.6,0v5.58A.8.8,0,0,1,459.69,326.23Zm0-11.18a.8.8,0,0,1-.8-.81v-5.57a.8.8,0,1,1,1.6,0v5.57A.8.8,0,0,1,459.69,315.05Zm0-11.19a.8.8,0,0,1-.8-.8v-5.58a.8.8,0,0,1,1.6,0v5.58A.8.8,0,0,1,459.69,303.86Zm0-11.19a.8.8,0,0,1-.8-.8v-5.58a.8.8,0,0,1,1.6,0v5.58A.8.8,0,0,1,459.69,292.67Zm0-11.19a.8.8,0,0,1-.8-.77,16.8,16.8,0,0,0-.95-5.2.8.8,0,0,1,.48-1,.81.81,0,0,1,1,.48,18.55,18.55,0,0,1,1,5.7.79.79,0,0,1-.77.82Zm-3.83-10.23a.77.77,0,0,1-.6-.27,16.92,16.92,0,0,0-4.12-3.34.8.8,0,1,1,.81-1.38,18.21,18.21,0,0,1,4.51,3.66.8.8,0,0,1-.07,1.13A.83.83,0,0,1,455.85,271.25Zm-9.45-5.74a.67.67,0,0,1-.24,0,34.48,34.48,0,0,0-5.32-1.19.8.8,0,0,1,.22-1.59,35.28,35.28,0,0,1,5.58,1.26.79.79,0,0,1,.52,1A.8.8,0,0,1,446.4,265.51Zm-11.06-1.58h-5.58a.8.8,0,0,1,0-1.6h5.58a.8.8,0,1,1,0,1.6Zm-11.19,0h-5.58a.8.8,0,1,1,0-1.6h5.58a.8.8,0,0,1,0,1.6Zm-11.18,0h-5.58a.8.8,0,0,1,0-1.6H413a.8.8,0,1,1,0,1.6Zm-11.19,0H396.2a.8.8,0,1,1,0-1.6h5.58a.8.8,0,0,1,0,1.6Zm-11.19,0H385a.8.8,0,0,1,0-1.6h5.58a.8.8,0,1,1,0,1.6Zm-11.18,0h-5.58a.8.8,0,1,1,0-1.6h5.58a.8.8,0,1,1,0,1.6Zm-11.19,0h-5.58a.8.8,0,0,1,0-1.6h5.58a.8.8,0,1,1,0,1.6Zm-11.19,0h-5.58a.8.8,0,1,1,0-1.6H357a.8.8,0,0,1,0,1.6Zm-11.19,0h-5.58a.8.8,0,0,1,0-1.6h5.58a.8.8,0,1,1,0,1.6Zm-11.18,0h-5.58a.8.8,0,1,1,0-1.6h5.58a.8.8,0,1,1,0,1.6Zm-11.19,0h-5.58a.8.8,0,0,1,0-1.6h5.58a.8.8,0,1,1,0,1.6Zm-11.19,0H306.7a.8.8,0,1,1,0-1.6h5.58a.8.8,0,0,1,0,1.6Zm-11.18,0h-5.58a.8.8,0,0,1,0-1.6h5.58a.8.8,0,1,1,0,1.6Z" style="fill:#f94f24"/><path d="M284.41,265.2a9.36,9.36,0,1,1,13.23,0A9.36,9.36,0,0,1,284.41,265.2Z" style="fill:#fff"/><path d="M291,269.38a10.8,10.8,0,1,1,7.63-3.16A10.72,10.72,0,0,1,291,269.38Zm0-18.71a7.91,7.91,0,1,0,5.6,2.31A7.86,7.86,0,0,0,291,250.67Z" style="fill:#f94f24"/><path d="M454.54,228.35a7.28,7.28,0,1,1,10.3,0A7.27,7.27,0,0,1,454.54,228.35Z" style="fill:#fff"/><path d="M459.69,231.93a8.63,8.63,0,0,1-6.16-2.56,8.7,8.7,0,1,1,6.16,2.56Zm0-14.56a5.86,5.86,0,0,0-5.84,5.83,5.85,5.85,0,1,0,5.84-5.83Z" style="fill:#f94f24"/><path d="M454.54,341.86a7.28,7.28,0,1,1,10.3,0A7.28,7.28,0,0,1,454.54,341.86Z" style="fill:#fff"/><path d="M459.69,345.43a8.72,8.72,0,1,1,6.17-2.55A8.66,8.66,0,0,1,459.69,345.43Zm0-14.56a5.79,5.79,0,0,0-4.12,1.71,5.83,5.83,0,1,0,4.12-1.71Z" style="fill:#f94f24"/><path d="M321.4,230H328a5.34,5.34,0,0,1,3.87,1.31,3.32,3.32,0,0,1,1,2.45v0a3.52,3.52,0,0,1-2.11,3.3c1.73.59,2.93,1.58,2.93,3.59v0c0,2.65-2.17,4.06-5.47,4.06H321.4Zm6.11,6.23c1.67,0,2.79-.65,2.79-2v-.05c0-1.16-.93-1.88-2.6-1.88H324v3.93Zm.76,6.26c1.78,0,2.85-.7,2.85-2v0c0-1.25-1-2-3-2H324v4.06Z" style="fill:#6731cf"/><path d="M336.43,238.51V230H339v8.41c0,2.75,1.42,4.23,3.74,4.23s3.72-1.4,3.72-4.12V230h2.6v8.39c0,4.42-2.49,6.63-6.36,6.63S336.43,242.8,336.43,238.51Z" style="fill:#6731cf"/><path d="M352.81,230h2.6v14.79h-2.6Z" style="fill:#6731cf"/><path d="M359.37,230H362v12.43h7.78v2.36H359.37Z" style="fill:#6731cf"/><path d="M372.45,230H378c4.65,0,7.87,3.19,7.87,7.35v0c0,4.16-3.22,7.39-7.87,7.39h-5.51ZM378,242.42a4.83,4.83,0,0,0,5.14-5v0a4.85,4.85,0,0,0-5.14-5h-2.91v10.06Z" style="fill:#6731cf"/><path d="M321.4,273.78h5.52c4.65,0,7.86,3.19,7.86,7.36v0c0,4.16-3.21,7.4-7.86,7.4H321.4Zm5.52,12.43a4.82,4.82,0,0,0,5.14-5v0a4.85,4.85,0,0,0-5.14-5H324v10.06Z" style="fill:#6731cf"/><path d="M337.93,273.78h11v2.33h-8.37V280H348v2.33h-7.42v4H349v2.33H337.93Z" style="fill:#6731cf"/><path d="M352.09,273.78h5.84c3.44,0,5.62,2,5.62,5v0c0,3.32-2.66,5.05-5.92,5.05h-2.94v4.76h-2.6Zm5.63,7.7c2,0,3.19-1.1,3.19-2.65v0c0-1.73-1.25-2.64-3.19-2.64h-3v5.33Z" style="fill:#6731cf"/><path d="M366.21,273.78h2.6v12.43h7.78v2.37H366.21Z" style="fill:#6731cf"/><path d="M377.8,281.22v0a7.74,7.74,0,0,1,15.47,0v0a7.74,7.74,0,0,1-15.47,0Zm12.74,0v0a5.07,5.07,0,0,0-5-5.26,5,5,0,0,0-5,5.22v0a5.07,5.07,0,0,0,5,5.26A5,5,0,0,0,390.54,281.22Z" style="fill:#6731cf"/><path d="M399.5,282.74l-5.87-9h3.06l4.14,6.55,4.19-6.55h3l-5.88,8.9v5.9H399.5Z" style="fill:#6731cf"/></g></svg>