<svg width="20" height="12" viewBox="0 0 20 12" fill="none" xmlns="http://www.w3.org/2000/svg">
<path fill-rule="evenodd" clip-rule="evenodd" d="M13.2885 11.4788C13.5816 11.7717 14.057 11.7717 14.3501 11.4788L19.0168 6.81701C19.1634 6.67074 19.2367 6.47855 19.2367 6.28677C19.2367 6.09497 19.1634 5.90281 19.0168 5.75634L14.3501 1.09457C14.0578 0.802802 13.5842 0.801632 13.2907 1.09261C12.9969 1.38361 12.9941 1.85163 13.2841 2.14574L16.6176 5.52684L0.797481 5.52683C0.3828 5.52683 0.0467529 5.87188 0.0467529 6.28593C0.0467529 6.70014 0.3828 7.04502 0.797481 7.04502L16.6735 7.04504L13.2885 10.4225C12.9953 10.7154 12.9953 11.1858 13.2885 11.4788Z" fill="white"/>
</svg>
