<svg width="181" height="232" viewBox="0 0 181 232" fill="none" xmlns="http://www.w3.org/2000/svg">
<path fill-rule="evenodd" clip-rule="evenodd" d="M0.905609 58.1627C0.905586 47.2784 9.72663 38.4549 20.6079 38.4549C31.4893 38.4549 40.3103 47.2784 40.3103 58.1627C40.3103 69.047 31.4893 77.8705 20.6079 77.8705C9.72665 77.8705 0.905609 69.047 0.905609 58.1627Z" fill="#F2F2F2"/>
<path fill-rule="evenodd" clip-rule="evenodd" d="M180.925 41.4886C180.927 45.8428 178.306 49.7688 174.285 51.4359C170.264 53.1031 165.635 52.1831 162.557 49.1049C159.478 46.0268 158.557 41.3968 160.222 37.3742C161.888 33.3516 165.812 30.7288 170.165 30.7289C176.106 30.729 180.923 35.5456 180.925 41.4886Z" fill="#F2F2F2"/>
<path fill-rule="evenodd" clip-rule="evenodd" d="M49.3923 191.498C49.3908 187.144 52.0117 183.218 56.0326 181.551C60.0536 179.883 64.6826 180.803 67.7609 183.882C70.8392 186.96 71.7605 191.59 70.095 195.612C68.4296 199.635 64.5055 202.258 60.1529 202.258C54.2115 202.258 49.3945 197.441 49.3923 191.498Z" fill="#F2F2F2"/>
<path fill-rule="evenodd" clip-rule="evenodd" d="M41.8756 139.618C41.8768 137.201 40.422 135.022 38.1899 134.097C35.9578 133.172 33.3882 133.683 31.6798 135.392C29.9714 137.1 29.4608 139.67 30.3863 141.902C31.3118 144.134 33.4909 145.588 35.9072 145.587C39.2028 145.585 41.8738 142.914 41.8756 139.618Z" fill="#F2F2F2"/>
<rect width="97.2663" height="23.89" rx="11.945" transform="matrix(1 0 0 -1 11.1599 184.834)" fill="#F2F2F2"/>
<path fill-rule="evenodd" clip-rule="evenodd" d="M40.1692 90.1315C40.1705 86.3351 37.8847 82.9119 34.3778 81.4582C30.8709 80.0045 26.8336 80.8067 24.1488 83.4907C21.464 86.1746 20.6605 90.2117 22.113 93.7191C23.5655 97.2265 26.988 99.5134 30.7843 99.5133C35.9661 99.5132 40.1673 95.3134 40.1692 90.1315Z" fill="#F2F2F2"/>
<path fill-rule="evenodd" clip-rule="evenodd" d="M173.27 84.9994C173.27 75.1038 165.248 67.0819 155.353 67.0819C145.457 67.0819 137.435 75.1038 137.435 84.9994C137.435 94.8949 145.457 102.917 155.353 102.917C165.248 102.917 173.27 94.8949 173.27 84.9994Z" fill="#F2F2F2"/>
<path fill-rule="evenodd" clip-rule="evenodd" d="M171.564 134.495C171.564 171.721 141.768 201.899 105.014 201.899C68.2585 201.899 38.4628 171.721 38.4628 134.495C38.4628 97.269 68.2585 67.0912 105.014 67.0912C141.768 67.0912 171.564 97.269 171.564 134.495Z" fill="white" stroke="#FA5A28" stroke-linecap="round" stroke-dasharray="2 2"/>
<path fill-rule="evenodd" clip-rule="evenodd" d="M163.032 134.495C163.032 167.009 137.056 193.367 105.014 193.367C72.9707 193.367 46.9949 167.009 46.9949 134.495C46.9949 101.981 72.9707 75.6233 105.014 75.6233C137.056 75.6233 163.032 101.981 163.032 134.495Z" fill="url(#paint0_linear)" stroke="#FA5A28" stroke-linecap="round" stroke-dasharray="2 2"/>
<rect width="5.11961" height="32.4242" transform="matrix(-1 0 0 1 106.726 121.671)" fill="#808080"/>
<path fill-rule="evenodd" clip-rule="evenodd" d="M101.606 127.233L106.726 128.497V125.084H101.606V127.233Z" fill="#6E6E6E"/>
<path fill-rule="evenodd" clip-rule="evenodd" d="M74.3015 118.085C74.3034 121.951 77.5026 125.084 81.4484 125.084H128.59C132.536 125.084 135.735 121.951 135.737 118.085V116.728C135.737 112.861 132.537 109.726 128.59 109.726H81.4484C77.5013 109.726 74.3015 112.861 74.3015 116.728V118.085Z" fill="url(#paint1_linear)"/>
<path fill-rule="evenodd" clip-rule="evenodd" d="M91.3668 117.405C91.3668 118.441 91.9909 119.374 92.9479 119.77C93.9049 120.166 95.0062 119.947 95.738 119.214C96.4697 118.481 96.6878 117.379 96.2905 116.423C95.8931 115.466 94.9586 114.844 93.9229 114.845C93.2443 114.845 92.5936 115.115 92.1142 115.595C91.6347 116.075 91.3659 116.726 91.3668 117.405Z" fill="white"/>
<path fill-rule="evenodd" clip-rule="evenodd" d="M81.1277 117.405C81.1277 118.819 82.2738 119.965 83.6875 119.965C85.1013 119.965 86.2473 118.819 86.2473 117.405C86.2473 115.991 85.1013 114.845 83.6875 114.845C83.0083 114.844 82.3566 115.113 81.8764 115.594C81.3961 116.074 81.1267 116.726 81.1277 117.405Z" fill="white"/>
<path fill-rule="evenodd" clip-rule="evenodd" d="M105.613 119.963H126.786C127.973 119.908 128.911 118.779 128.911 117.405C128.911 116.031 127.973 114.902 126.786 114.847H105.613C104.802 114.81 104.039 115.289 103.624 116.096C103.209 116.903 103.209 117.907 103.624 118.714C104.039 119.521 104.802 120 105.613 119.963Z" fill="white"/>
<path fill-rule="evenodd" clip-rule="evenodd" d="M74.3015 136.86C74.3034 140.724 77.5026 143.856 81.4484 143.856H128.59C132.536 143.856 135.735 140.724 135.737 136.86V135.504C135.739 133.646 134.986 131.864 133.646 130.55C132.306 129.236 130.487 128.497 128.59 128.497H81.4484C77.5026 128.497 74.3034 131.629 74.3015 135.494V136.86Z" fill="url(#paint2_linear)"/>
<path fill-rule="evenodd" clip-rule="evenodd" d="M91.3668 134.467C91.3653 135.503 91.9885 136.437 92.9453 136.834C93.9022 137.232 95.0041 137.013 95.7366 136.28C96.4692 135.548 96.688 134.446 96.2908 133.489C95.8937 132.532 94.9589 131.909 93.9229 131.911C92.5121 131.913 91.3689 133.056 91.3668 134.467Z" fill="white"/>
<path fill-rule="evenodd" clip-rule="evenodd" d="M81.1277 134.467C81.1262 135.502 81.7489 136.437 82.7053 136.834C83.6617 137.232 84.7633 137.013 85.4962 136.282C86.229 135.55 86.4487 134.449 86.0527 133.492C85.6568 132.535 84.7231 131.911 83.6875 131.911C82.2752 131.911 81.1298 133.054 81.1277 134.467Z" fill="white"/>
<path fill-rule="evenodd" clip-rule="evenodd" d="M105.613 138.735H126.786C127.973 138.68 128.911 137.551 128.911 136.177C128.911 134.803 127.973 133.674 126.786 133.619H105.613C104.802 133.582 104.039 134.061 103.624 134.868C103.209 135.674 103.209 136.679 103.624 137.486C104.039 138.293 104.802 138.772 105.613 138.735Z" fill="white"/>
<path fill-rule="evenodd" clip-rule="evenodd" d="M74.3015 155.625C74.3034 159.492 77.5021 162.626 81.4484 162.628H128.59C132.536 162.626 135.735 159.492 135.737 155.625V154.269C135.735 150.403 132.536 147.269 128.59 147.269H81.4484C77.5026 147.269 74.3034 150.403 74.3015 154.269V155.625Z" fill="url(#paint3_linear)"/>
<path fill-rule="evenodd" clip-rule="evenodd" d="M91.3668 154.949C91.3668 155.984 91.9909 156.918 92.9479 157.314C93.9049 157.71 95.0062 157.49 95.738 156.757C96.4697 156.025 96.6878 154.923 96.2905 153.967C95.8931 153.01 94.9586 152.387 93.9229 152.389C92.5106 152.391 91.3668 153.536 91.3668 154.949Z" fill="white"/>
<path fill-rule="evenodd" clip-rule="evenodd" d="M81.1277 154.949C81.1277 156.362 82.2738 157.509 83.6875 157.509C85.1013 157.509 86.2473 156.362 86.2473 154.949C86.2473 153.535 85.1013 152.389 83.6875 152.389C83.0086 152.389 82.3575 152.659 81.8775 153.139C81.3974 153.619 81.1277 154.27 81.1277 154.949Z" fill="white"/>
<path fill-rule="evenodd" clip-rule="evenodd" d="M105.525 157.509H126.698C127.92 157.509 128.911 156.362 128.911 154.949C128.911 153.535 127.92 152.389 126.698 152.389H105.525C104.303 152.389 103.312 153.535 103.312 154.949C103.312 156.362 104.303 157.509 105.525 157.509Z" fill="white"/>
<path fill-rule="evenodd" clip-rule="evenodd" d="M82.2087 80.6114V105.624H74.4596L86.2024 120.843L96.8553 105.624H88.4947V77.9484L82.2087 80.6114Z" fill="url(#paint4_linear)"/>
<path fill-rule="evenodd" clip-rule="evenodd" d="M126.485 80.6025V105.615H134.234L122.492 120.834L111.839 105.615H120.199V77.9395L126.485 80.6025Z" fill="url(#paint5_linear)"/>
<path fill-rule="evenodd" clip-rule="evenodd" d="M100.816 74.5273V123.533H93.0673L104.81 138.752L115.463 123.533H107.102V74.5273H100.816Z" fill="url(#paint6_linear)"/>
<path fill-rule="evenodd" clip-rule="evenodd" d="M144.59 207.009C144.408 207.009 144.261 206.866 144.261 206.69V200.502C144.261 200.327 144.408 200.183 144.59 200.183H169.528C169.71 200.183 169.857 200.327 169.857 200.502V206.69C169.857 206.866 169.71 207.009 169.528 207.009H144.59Z" fill="#FFD618"/>
<path fill-rule="evenodd" clip-rule="evenodd" d="M169.445 200.183H144.674C144.447 200.183 144.261 200.359 144.261 200.576V206.616C144.261 206.833 144.447 207.009 144.674 207.009H169.445C169.672 207.009 169.857 206.833 169.857 206.616V200.576C169.857 200.359 169.672 200.183 169.445 200.183ZM169.445 200.346C169.579 200.346 169.686 200.449 169.686 200.576V206.617C169.686 206.744 169.579 206.847 169.445 206.847H144.674C144.54 206.847 144.431 206.744 144.431 206.617V200.576C144.431 200.449 144.54 200.346 144.674 200.346H169.445Z" fill="#E2A129"/>
<path fill-rule="evenodd" clip-rule="evenodd" d="M144.613 207.009H143.908V200.183H144.613V207.009Z" fill="#FAC20D"/>
<path fill-rule="evenodd" clip-rule="evenodd" d="M146.32 207.009H145.615V200.183H146.32V207.009Z" fill="#FAC20D"/>
<path fill-rule="evenodd" clip-rule="evenodd" d="M148.026 207.009H147.321V200.183H148.026V207.009Z" fill="#FAC20D"/>
<path fill-rule="evenodd" clip-rule="evenodd" d="M149.732 207.009H149.027V200.183H149.732V207.009Z" fill="#FAC20D"/>
<path fill-rule="evenodd" clip-rule="evenodd" d="M151.439 207.009H150.734V200.183H151.439V207.009Z" fill="#FAC20D"/>
<path fill-rule="evenodd" clip-rule="evenodd" d="M153.145 207.009H152.44V200.183H153.145V207.009Z" fill="#FAC20D"/>
<path fill-rule="evenodd" clip-rule="evenodd" d="M153.145 207.009H152.44V200.183H153.145V207.009Z" fill="#FAC20D"/>
<path fill-rule="evenodd" clip-rule="evenodd" d="M154.851 207.013H154.146V200.187H154.851V207.013Z" fill="#FAC20D"/>
<path fill-rule="evenodd" clip-rule="evenodd" d="M156.558 207.013H155.854V200.187H156.558V207.013Z" fill="#FAC20D"/>
<path fill-rule="evenodd" clip-rule="evenodd" d="M158.264 207.013H157.56V200.187H158.264V207.013Z" fill="#FAC20D"/>
<path fill-rule="evenodd" clip-rule="evenodd" d="M159.971 207.013H159.266V200.187H159.971V207.013Z" fill="#FAC20D"/>
<path fill-rule="evenodd" clip-rule="evenodd" d="M161.678 207.013H160.973V200.187H161.678V207.013Z" fill="#FAC20D"/>
<path fill-rule="evenodd" clip-rule="evenodd" d="M161.678 207.013H160.973V200.187H161.678V207.013Z" fill="#FAC20D"/>
<path fill-rule="evenodd" clip-rule="evenodd" d="M166.797 207.013H166.092V200.187H166.797V207.013Z" fill="#FAC20D"/>
<path fill-rule="evenodd" clip-rule="evenodd" d="M168.503 207.013H167.798V200.187H168.503V207.013Z" fill="#FAC20D"/>
<path fill-rule="evenodd" clip-rule="evenodd" d="M168.503 207.013H167.798V200.187H168.503V207.013Z" fill="#FAC20D"/>
<path fill-rule="evenodd" clip-rule="evenodd" d="M115.581 207.009C115.399 207.009 115.252 206.866 115.252 206.69V200.502C115.252 200.326 115.399 200.183 115.581 200.183H140.518C140.7 200.183 140.848 200.326 140.848 200.502V206.69C140.848 206.866 140.7 207.009 140.518 207.009H115.581Z" fill="#FFD618"/>
<path fill-rule="evenodd" clip-rule="evenodd" d="M140.436 200.183H115.665C115.437 200.183 115.252 200.359 115.252 200.576V206.616C115.252 206.833 115.437 207.009 115.665 207.009H140.436C140.663 207.009 140.848 206.833 140.848 206.616V200.576C140.848 200.359 140.663 200.183 140.436 200.183ZM140.436 200.346C140.57 200.346 140.677 200.449 140.677 200.576V206.616C140.677 206.744 140.57 206.847 140.436 206.847H115.665C115.531 206.847 115.422 206.744 115.422 206.616V200.576C115.422 200.449 115.531 200.346 115.665 200.346H140.436Z" fill="#E2A129"/>
<path fill-rule="evenodd" clip-rule="evenodd" d="M117.311 207.009H116.606V200.183H117.311V207.009Z" fill="#FAC20D"/>
<path fill-rule="evenodd" clip-rule="evenodd" d="M119.017 207.009H118.312V200.183H119.017V207.009Z" fill="#FAC20D"/>
<path fill-rule="evenodd" clip-rule="evenodd" d="M120.723 207.009H120.018V200.183H120.723V207.009Z" fill="#FAC20D"/>
<path fill-rule="evenodd" clip-rule="evenodd" d="M120.723 207.009H120.018V200.183H120.723V207.009Z" fill="#FAC20D"/>
<path fill-rule="evenodd" clip-rule="evenodd" d="M122.43 207.009H121.725V200.183H122.43V207.009Z" fill="#FAC20D"/>
<path fill-rule="evenodd" clip-rule="evenodd" d="M124.136 207.009H123.432V200.183H124.136V207.009Z" fill="#FAC20D"/>
<path fill-rule="evenodd" clip-rule="evenodd" d="M125.843 207.009H125.138V200.183H125.843V207.009Z" fill="#FAC20D"/>
<path fill-rule="evenodd" clip-rule="evenodd" d="M127.549 207.009H126.844V200.183H127.549V207.009Z" fill="#FAC20D"/>
<path fill-rule="evenodd" clip-rule="evenodd" d="M129.255 207.009H128.551V200.183H129.255V207.009Z" fill="#FAC20D"/>
<path fill-rule="evenodd" clip-rule="evenodd" d="M129.255 207.009H128.551V200.183H129.255V207.009Z" fill="#FAC20D"/>
<path fill-rule="evenodd" clip-rule="evenodd" d="M130.962 207.009H130.257V200.183H130.962V207.009Z" fill="#FAC20D"/>
<path fill-rule="evenodd" clip-rule="evenodd" d="M132.668 207.009H131.963V200.183H132.668V207.009Z" fill="#FAC20D"/>
<path fill-rule="evenodd" clip-rule="evenodd" d="M134.375 207.009H133.67V200.183H134.375V207.009Z" fill="#FAC20D"/>
<path fill-rule="evenodd" clip-rule="evenodd" d="M137.787 207.009H137.083V200.183H137.787V207.009Z" fill="#FAC20D"/>
<path fill-rule="evenodd" clip-rule="evenodd" d="M139.493 207.009H138.789V200.183H139.493V207.009Z" fill="#FAC20D"/>
<path fill-rule="evenodd" clip-rule="evenodd" d="M141.2 207.009H140.495V200.183H141.2V207.009Z" fill="#FAC20D"/>
<path fill-rule="evenodd" clip-rule="evenodd" d="M137.765 200.183C137.583 200.183 137.436 200.04 137.436 199.864V193.677C137.436 193.501 137.583 193.358 137.765 193.358H162.702C162.884 193.358 163.032 193.501 163.032 193.677V199.864C163.032 200.04 162.884 200.183 162.702 200.183H137.765Z" fill="#FFD618"/>
<path fill-rule="evenodd" clip-rule="evenodd" d="M162.62 193.358H137.849C137.621 193.358 137.436 193.534 137.436 193.75V199.791C137.436 200.007 137.621 200.183 137.849 200.183H162.62C162.847 200.183 163.032 200.007 163.032 199.791V193.75C163.032 193.534 162.847 193.358 162.62 193.358ZM162.62 193.52C162.753 193.52 162.861 193.622 162.861 193.75V199.79C162.861 199.918 162.753 200.02 162.62 200.02H137.849C137.715 200.02 137.606 199.918 137.606 199.79V193.75C137.606 193.622 137.715 193.52 137.849 193.52H162.62Z" fill="#E2A129"/>
<path fill-rule="evenodd" clip-rule="evenodd" d="M137.787 200.183H137.083V193.357H137.787V200.183Z" fill="#FAC20D"/>
<path fill-rule="evenodd" clip-rule="evenodd" d="M139.494 200.183H138.789V193.357H139.494V200.183Z" fill="#FAC20D"/>
<path fill-rule="evenodd" clip-rule="evenodd" d="M141.2 200.183H140.496V193.357H141.2V200.183Z" fill="#FAC20D"/>
<path fill-rule="evenodd" clip-rule="evenodd" d="M142.907 200.183H142.202V193.357H142.907V200.183Z" fill="#FAC20D"/>
<path fill-rule="evenodd" clip-rule="evenodd" d="M144.613 200.183H143.908V193.357H144.613V200.183Z" fill="#FAC20D"/>
<path fill-rule="evenodd" clip-rule="evenodd" d="M144.613 200.183H143.908V193.357H144.613V200.183Z" fill="#FAC20D"/>
<path fill-rule="evenodd" clip-rule="evenodd" d="M146.32 200.183H145.615V193.357H146.32V200.183Z" fill="#FAC20D"/>
<path fill-rule="evenodd" clip-rule="evenodd" d="M148.026 200.183H147.321V193.357H148.026V200.183Z" fill="#FAC20D"/>
<path fill-rule="evenodd" clip-rule="evenodd" d="M149.732 200.183H149.027V193.357H149.732V200.183Z" fill="#FAC20D"/>
<path fill-rule="evenodd" clip-rule="evenodd" d="M151.439 200.183H150.734V193.357H151.439V200.183Z" fill="#FAC20D"/>
<path fill-rule="evenodd" clip-rule="evenodd" d="M153.145 200.183H152.44V193.357H153.145V200.183Z" fill="#FAC20D"/>
<path fill-rule="evenodd" clip-rule="evenodd" d="M153.145 200.183H152.44V193.357H153.145V200.183Z" fill="#FAC20D"/>
<path fill-rule="evenodd" clip-rule="evenodd" d="M154.851 200.187H154.146V193.361H154.851V200.187Z" fill="#FAC20D"/>
<path fill-rule="evenodd" clip-rule="evenodd" d="M159.971 200.187H159.266V193.361H159.971V200.187Z" fill="#FAC20D"/>
<path fill-rule="evenodd" clip-rule="evenodd" d="M161.678 200.187H160.973V193.361H161.678V200.187Z" fill="#FAC20D"/>
<path fill-rule="evenodd" clip-rule="evenodd" d="M161.678 200.187H160.973V193.361H161.678V200.187Z" fill="#FAC20D"/>
<path fill-rule="evenodd" clip-rule="evenodd" d="M134.352 193.357C134.17 193.357 134.022 193.214 134.022 193.038V186.851C134.022 186.675 134.17 186.532 134.352 186.532H159.289C159.471 186.532 159.619 186.675 159.619 186.851V193.038C159.619 193.214 159.471 193.357 159.289 193.357H134.352Z" fill="#FFD618"/>
<path fill-rule="evenodd" clip-rule="evenodd" d="M159.207 186.532H134.435C134.208 186.532 134.022 186.708 134.022 186.924V192.965C134.022 193.181 134.208 193.357 134.435 193.357H159.207C159.434 193.357 159.619 193.181 159.619 192.965V186.924C159.619 186.708 159.434 186.532 159.207 186.532ZM159.207 186.694C159.34 186.694 159.448 186.796 159.448 186.924V192.964C159.448 193.092 159.34 193.194 159.207 193.194H134.435C134.302 193.194 134.193 193.092 134.193 192.964V186.924C134.193 186.796 134.302 186.694 134.435 186.694H159.207Z" fill="#E2A129"/>
<path fill-rule="evenodd" clip-rule="evenodd" d="M136.081 193.357H135.376V186.532H136.081V193.357Z" fill="#FAC20D"/>
<path fill-rule="evenodd" clip-rule="evenodd" d="M136.081 193.357H135.376V186.532H136.081V193.357Z" fill="#FAC20D"/>
<path fill-rule="evenodd" clip-rule="evenodd" d="M137.787 193.357H137.083V186.532H137.787V193.357Z" fill="#FAC20D"/>
<path fill-rule="evenodd" clip-rule="evenodd" d="M139.494 193.357H138.789V186.532H139.494V193.357Z" fill="#FAC20D"/>
<path fill-rule="evenodd" clip-rule="evenodd" d="M141.2 193.357H140.496V186.532H141.2V193.357Z" fill="#FAC20D"/>
<path fill-rule="evenodd" clip-rule="evenodd" d="M142.907 193.357H142.202V186.532H142.907V193.357Z" fill="#FAC20D"/>
<path fill-rule="evenodd" clip-rule="evenodd" d="M144.613 193.357H143.908V186.532H144.613V193.357Z" fill="#FAC20D"/>
<path fill-rule="evenodd" clip-rule="evenodd" d="M144.613 193.357H143.908V186.532H144.613V193.357Z" fill="#FAC20D"/>
<path fill-rule="evenodd" clip-rule="evenodd" d="M146.32 193.357H145.615V186.532H146.32V193.357Z" fill="#FAC20D"/>
<path fill-rule="evenodd" clip-rule="evenodd" d="M148.026 193.357H147.321V186.532H148.026V193.357Z" fill="#FAC20D"/>
<path fill-rule="evenodd" clip-rule="evenodd" d="M149.732 193.357H149.027V186.532H149.732V193.357Z" fill="#FAC20D"/>
<path fill-rule="evenodd" clip-rule="evenodd" d="M151.439 193.357H150.734V186.532H151.439V193.357Z" fill="#FAC20D"/>
<path fill-rule="evenodd" clip-rule="evenodd" d="M153.145 193.357H152.44V186.532H153.145V193.357Z" fill="#FAC20D"/>
<path fill-rule="evenodd" clip-rule="evenodd" d="M156.558 193.361H155.854V186.535H156.558V193.361Z" fill="#FAC20D"/>
<path fill-rule="evenodd" clip-rule="evenodd" d="M158.264 193.361H157.56V186.535H158.264V193.361Z" fill="#FAC20D"/>
<path fill-rule="evenodd" clip-rule="evenodd" d="M159.971 193.361H159.266V186.535H159.971V193.361Z" fill="#FAC20D"/>
<path fill-rule="evenodd" clip-rule="evenodd" d="M153.646 184.825C146.59 184.825 140.848 179.084 140.848 172.027C140.848 164.971 146.59 159.229 153.646 159.229C160.703 159.229 166.445 164.971 166.445 172.027C166.445 179.084 160.703 184.825 153.646 184.825Z" fill="#FDC00D"/>
<path fill-rule="evenodd" clip-rule="evenodd" d="M153.646 159.229C146.578 159.229 140.848 164.959 140.848 172.027C140.848 179.095 146.578 184.825 153.646 184.825C160.714 184.825 166.445 179.095 166.445 172.027C166.445 164.959 160.714 159.229 153.646 159.229ZM153.646 160.613C159.94 160.613 165.061 165.733 165.061 172.027C165.061 178.321 159.94 183.442 153.646 183.442C147.352 183.442 142.232 178.321 142.232 172.027C142.232 165.733 147.352 160.613 153.646 160.613Z" fill="#FFD618"/>
<path fill-rule="evenodd" clip-rule="evenodd" d="M145.92 179.706L144.261 178.319L157.959 162.642L159.619 164.03L145.92 179.706Z" fill="#FFD618"/>
<path fill-rule="evenodd" clip-rule="evenodd" d="M148.981 183.119L145.967 180.575L160.018 164.348L163.032 166.891L148.981 183.119Z" fill="#FFD618"/>
<path fill-rule="evenodd" clip-rule="evenodd" d="M45.6177 207.018C45.4356 207.018 45.2886 206.875 45.2886 206.699V200.511C45.2886 200.336 45.4356 200.192 45.6177 200.192H70.5551C70.7372 200.192 70.885 200.336 70.885 200.511V206.699C70.885 206.875 70.7372 207.018 70.5551 207.018H45.6177Z" fill="#FFD618"/>
<path fill-rule="evenodd" clip-rule="evenodd" d="M70.4727 200.192H45.7015C45.4742 200.192 45.2886 200.369 45.2886 200.585V206.625C45.2886 206.842 45.4742 207.018 45.7015 207.018H70.4727C70.7 207.018 70.885 206.842 70.885 206.625V200.585C70.885 200.369 70.7 200.192 70.4727 200.192ZM70.4727 200.354C70.6065 200.354 70.7143 200.457 70.7143 200.585V206.625C70.7143 206.752 70.6065 206.855 70.4727 206.855H45.7015C45.5678 206.855 45.4592 206.752 45.4592 206.625V200.585C45.4592 200.457 45.5678 200.354 45.7015 200.354H70.4727Z" fill="#E2A129"/>
<path fill-rule="evenodd" clip-rule="evenodd" d="M45.6409 207.018H44.936V200.192H45.6409V207.018Z" fill="#FAC20D"/>
<path fill-rule="evenodd" clip-rule="evenodd" d="M47.3473 207.018H46.6425V200.192H47.3473V207.018Z" fill="#FAC20D"/>
<path fill-rule="evenodd" clip-rule="evenodd" d="M49.0538 207.018H48.3489V200.192H49.0538V207.018Z" fill="#FAC20D"/>
<path fill-rule="evenodd" clip-rule="evenodd" d="M50.7603 207.018H50.0554V200.192H50.7603V207.018Z" fill="#FAC20D"/>
<path fill-rule="evenodd" clip-rule="evenodd" d="M52.4666 207.018H51.7617V200.192H52.4666V207.018Z" fill="#FAC20D"/>
<path fill-rule="evenodd" clip-rule="evenodd" d="M52.4666 207.018H51.7617V200.192H52.4666V207.018Z" fill="#FAC20D"/>
<path fill-rule="evenodd" clip-rule="evenodd" d="M54.173 207.018H53.4681V200.192H54.173V207.018Z" fill="#FAC20D"/>
<path fill-rule="evenodd" clip-rule="evenodd" d="M55.8794 207.018H55.1746V200.192H55.8794V207.018Z" fill="#FAC20D"/>
<path fill-rule="evenodd" clip-rule="evenodd" d="M57.5859 207.018H56.881V200.192H57.5859V207.018Z" fill="#FAC20D"/>
<path fill-rule="evenodd" clip-rule="evenodd" d="M59.2924 207.018H58.5875V200.192H59.2924V207.018Z" fill="#FAC20D"/>
<path fill-rule="evenodd" clip-rule="evenodd" d="M60.9987 207.018H60.2938V200.192H60.9987V207.018Z" fill="#FAC20D"/>
<path fill-rule="evenodd" clip-rule="evenodd" d="M60.9987 207.018H60.2938V200.192H60.9987V207.018Z" fill="#FAC20D"/>
<path fill-rule="evenodd" clip-rule="evenodd" d="M62.7051 207.018H62.0002V200.192H62.7051V207.018Z" fill="#FAC20D"/>
<path fill-rule="evenodd" clip-rule="evenodd" d="M67.8245 207.018H67.1196V200.192H67.8245V207.018Z" fill="#FAC20D"/>
<path fill-rule="evenodd" clip-rule="evenodd" d="M67.8245 207.018H67.1196V200.192H67.8245V207.018Z" fill="#FAC20D"/>
<path fill-rule="evenodd" clip-rule="evenodd" d="M69.5308 207.018H68.8259V200.192H69.5308V207.018Z" fill="#FAC20D"/>
<path fill-rule="evenodd" clip-rule="evenodd" d="M47.3241 200.192C47.142 200.192 46.995 200.049 46.995 199.873V193.686C46.995 193.51 47.142 193.367 47.3241 193.367H72.2615C72.4436 193.367 72.5914 193.51 72.5914 193.686V199.873C72.5914 200.049 72.4436 200.192 72.2615 200.192H47.3241Z" fill="#FFD618"/>
<path fill-rule="evenodd" clip-rule="evenodd" d="M72.1791 193.367H47.4079C47.1807 193.367 46.995 193.543 46.995 193.759V199.8C46.995 200.016 47.1807 200.192 47.4079 200.192H72.1791C72.4064 200.192 72.5914 200.016 72.5914 199.8V193.759C72.5914 193.543 72.4064 193.367 72.1791 193.367ZM72.1791 193.529C72.3129 193.529 72.4207 193.631 72.4207 193.759V199.799C72.4207 199.927 72.3129 200.029 72.1791 200.029H47.408C47.2742 200.029 47.1656 199.927 47.1656 199.799V193.759C47.1656 193.631 47.2742 193.529 47.408 193.529H72.1791Z" fill="#E2A129"/>
<path fill-rule="evenodd" clip-rule="evenodd" d="M47.3473 200.192H46.6425V193.367H47.3473V200.192Z" fill="#FAC20D"/>
<path fill-rule="evenodd" clip-rule="evenodd" d="M49.0538 200.192H48.3489V193.367H49.0538V200.192Z" fill="#FAC20D"/>
<path fill-rule="evenodd" clip-rule="evenodd" d="M50.7603 200.192H50.0554V193.367H50.7603V200.192Z" fill="#FAC20D"/>
<path fill-rule="evenodd" clip-rule="evenodd" d="M52.4666 200.192H51.7617V193.367H52.4666V200.192Z" fill="#FAC20D"/>
<path fill-rule="evenodd" clip-rule="evenodd" d="M54.173 200.192H53.4681V193.367H54.173V200.192Z" fill="#FAC20D"/>
<path fill-rule="evenodd" clip-rule="evenodd" d="M55.8794 200.192H55.1746V193.367H55.8794V200.192Z" fill="#FAC20D"/>
<path fill-rule="evenodd" clip-rule="evenodd" d="M55.8794 200.192H55.1746V193.367H55.8794V200.192Z" fill="#FAC20D"/>
<path fill-rule="evenodd" clip-rule="evenodd" d="M57.5859 200.192H56.881V193.367H57.5859V200.192Z" fill="#FAC20D"/>
<path fill-rule="evenodd" clip-rule="evenodd" d="M59.2924 200.192H58.5875V193.367H59.2924V200.192Z" fill="#FAC20D"/>
<path fill-rule="evenodd" clip-rule="evenodd" d="M60.9987 200.192H60.2938V193.367H60.9987V200.192Z" fill="#FAC20D"/>
<path fill-rule="evenodd" clip-rule="evenodd" d="M62.7051 200.192H62.0002V193.367H62.7051V200.192Z" fill="#FAC20D"/>
<path fill-rule="evenodd" clip-rule="evenodd" d="M64.4117 200.192H63.7068V193.367H64.4117V200.192Z" fill="#FAC20D"/>
<path fill-rule="evenodd" clip-rule="evenodd" d="M64.4117 200.192H63.7068V193.367H64.4117V200.192Z" fill="#FAC20D"/>
<path fill-rule="evenodd" clip-rule="evenodd" d="M69.5308 200.192H68.8259V193.367H69.5308V200.192Z" fill="#FAC20D"/>
<path fill-rule="evenodd" clip-rule="evenodd" d="M71.2374 200.192H70.5325V193.367H71.2374V200.192Z" fill="#FAC20D"/>
<path fill-rule="evenodd" clip-rule="evenodd" d="M72.9438 200.192H72.2389V193.367H72.9438V200.192Z" fill="#FAC20D"/>
<path fill-rule="evenodd" clip-rule="evenodd" d="M49.0304 193.367C48.8483 193.367 48.7013 193.223 48.7013 193.048V186.86C48.7013 186.684 48.8483 186.541 49.0304 186.541H73.9678C74.1499 186.541 74.2977 186.684 74.2977 186.86V193.048C74.2977 193.223 74.1499 193.367 73.9678 193.367H49.0304Z" fill="#FFD618"/>
<path fill-rule="evenodd" clip-rule="evenodd" d="M73.8854 186.541H49.1142C48.887 186.541 48.7013 186.717 48.7013 186.934V192.974C48.7013 193.19 48.887 193.367 49.1142 193.367H73.8854C74.1127 193.367 74.2977 193.19 74.2977 192.974V186.934C74.2977 186.717 74.1127 186.541 73.8854 186.541ZM73.8854 186.704C74.0192 186.704 74.127 186.806 74.127 186.934V192.974C74.127 193.102 74.0192 193.204 73.8854 193.204H49.1143C48.9805 193.204 48.8719 193.102 48.8719 192.974V186.934C48.8719 186.806 48.9805 186.704 49.1143 186.704H73.8854Z" fill="#E2A129"/>
<path fill-rule="evenodd" clip-rule="evenodd" d="M49.0538 193.367H48.3489V186.541H49.0538V193.367Z" fill="#FAC20D"/>
<path fill-rule="evenodd" clip-rule="evenodd" d="M50.7603 193.367H50.0554V186.541H50.7603V193.367Z" fill="#FAC20D"/>
<path fill-rule="evenodd" clip-rule="evenodd" d="M52.4666 193.367H51.7617V186.541H52.4666V193.367Z" fill="#FAC20D"/>
<path fill-rule="evenodd" clip-rule="evenodd" d="M54.173 193.367H53.4681V186.541H54.173V193.367Z" fill="#FAC20D"/>
<path fill-rule="evenodd" clip-rule="evenodd" d="M55.8794 193.367H55.1746V186.541H55.8794V193.367Z" fill="#FAC20D"/>
<path fill-rule="evenodd" clip-rule="evenodd" d="M55.8794 193.367H55.1746V186.541H55.8794V193.367Z" fill="#FAC20D"/>
<path fill-rule="evenodd" clip-rule="evenodd" d="M57.5859 193.367H56.881V186.541H57.5859V193.367Z" fill="#FAC20D"/>
<path fill-rule="evenodd" clip-rule="evenodd" d="M59.2924 193.367H58.5875V186.541H59.2924V193.367Z" fill="#FAC20D"/>
<path fill-rule="evenodd" clip-rule="evenodd" d="M60.9987 193.367H60.2938V186.541H60.9987V193.367Z" fill="#FAC20D"/>
<path fill-rule="evenodd" clip-rule="evenodd" d="M62.7051 193.367H62.0002V186.541H62.7051V193.367Z" fill="#FAC20D"/>
<path fill-rule="evenodd" clip-rule="evenodd" d="M64.4117 193.367H63.7068V186.541H64.4117V193.367Z" fill="#FAC20D"/>
<path fill-rule="evenodd" clip-rule="evenodd" d="M64.4117 193.367H63.7068V186.541H64.4117V193.367Z" fill="#FAC20D"/>
<path fill-rule="evenodd" clip-rule="evenodd" d="M66.118 193.367H65.4131V186.541H66.118V193.367Z" fill="#FAC20D"/>
<path fill-rule="evenodd" clip-rule="evenodd" d="M71.2374 193.367H70.5325V186.541H71.2374V193.367Z" fill="#FAC20D"/>
<path fill-rule="evenodd" clip-rule="evenodd" d="M72.9438 193.367H72.2389V186.541H72.9438V193.367Z" fill="#FAC20D"/>
<path fill-rule="evenodd" clip-rule="evenodd" d="M72.9438 193.367H72.2389V186.541H72.9438V193.367Z" fill="#FAC20D"/>
<path fill-rule="evenodd" clip-rule="evenodd" d="M47.3241 186.541C47.142 186.541 46.995 186.398 46.995 186.222V180.034C46.995 179.858 47.142 179.715 47.3241 179.715H72.2615C72.4436 179.715 72.5914 179.858 72.5914 180.034V186.222C72.5914 186.398 72.4436 186.541 72.2615 186.541H47.3241Z" fill="#FFD618"/>
<path fill-rule="evenodd" clip-rule="evenodd" d="M72.1791 179.715H47.4079C47.1807 179.715 46.995 179.891 46.995 180.108V186.148C46.995 186.365 47.1807 186.541 47.4079 186.541H72.1791C72.4064 186.541 72.5914 186.365 72.5914 186.148V180.108C72.5914 179.891 72.4064 179.715 72.1791 179.715ZM72.1791 179.877C72.3129 179.877 72.4207 179.98 72.4207 180.108V186.148C72.4207 186.275 72.3129 186.378 72.1791 186.378H47.408C47.2742 186.378 47.1656 186.275 47.1656 186.148V180.108C47.1656 179.98 47.2742 179.877 47.408 179.877H72.1791Z" fill="#E2A129"/>
<path fill-rule="evenodd" clip-rule="evenodd" d="M47.3473 186.541H46.6425V179.715H47.3473V186.541Z" fill="#FAC20D"/>
<path fill-rule="evenodd" clip-rule="evenodd" d="M49.0538 186.541H48.3489V179.715H49.0538V186.541Z" fill="#FAC20D"/>
<path fill-rule="evenodd" clip-rule="evenodd" d="M50.7603 186.541H50.0554V179.715H50.7603V186.541Z" fill="#FAC20D"/>
<path fill-rule="evenodd" clip-rule="evenodd" d="M52.4666 186.541H51.7617V179.715H52.4666V186.541Z" fill="#FAC20D"/>
<path fill-rule="evenodd" clip-rule="evenodd" d="M52.4666 186.541H51.7617V179.715H52.4666V186.541Z" fill="#FAC20D"/>
<path fill-rule="evenodd" clip-rule="evenodd" d="M54.173 186.541H53.4681V179.715H54.173V186.541Z" fill="#FAC20D"/>
<path fill-rule="evenodd" clip-rule="evenodd" d="M55.8794 186.541H55.1746V179.715H55.8794V186.541Z" fill="#FAC20D"/>
<path fill-rule="evenodd" clip-rule="evenodd" d="M57.5859 186.541H56.881V179.715H57.5859V186.541Z" fill="#FAC20D"/>
<path fill-rule="evenodd" clip-rule="evenodd" d="M59.2924 186.541H58.5875V179.715H59.2924V186.541Z" fill="#FAC20D"/>
<path fill-rule="evenodd" clip-rule="evenodd" d="M60.9987 186.541H60.2938V179.715H60.9987V186.541Z" fill="#FAC20D"/>
<path fill-rule="evenodd" clip-rule="evenodd" d="M60.9987 186.541H60.2938V179.715H60.9987V186.541Z" fill="#FAC20D"/>
<path fill-rule="evenodd" clip-rule="evenodd" d="M62.7051 186.541H62.0002V179.715H62.7051V186.541Z" fill="#FAC20D"/>
<path fill-rule="evenodd" clip-rule="evenodd" d="M64.4117 186.541H63.7068V179.715H64.4117V186.541Z" fill="#FAC20D"/>
<path fill-rule="evenodd" clip-rule="evenodd" d="M67.8245 186.541H67.1196V179.715H67.8245V186.541Z" fill="#FAC20D"/>
<path fill-rule="evenodd" clip-rule="evenodd" d="M69.5308 186.541H68.8259V179.715H69.5308V186.541Z" fill="#FAC20D"/>
<path fill-rule="evenodd" clip-rule="evenodd" d="M71.2374 186.541H70.5325V179.715H71.2374V186.541Z" fill="#FAC20D"/>
<ellipse cx="145.178" cy="67.0185" rx="35.0035" ry="35.0003" fill="white" stroke="#FA5A28" stroke-dasharray="3 3"/>
<rect x="90.17" y="228.02" width="40.004" height="3.00003" fill="#7B39D9"/>
<path d="M141.84 83.5942C139.344 83.5942 137.232 83.2102 135.504 82.4422C133.776 81.6422 132.352 80.5862 131.232 79.2742L134.496 74.8102C135.424 75.7062 136.432 76.4422 137.52 77.0182C138.64 77.5942 139.856 77.8822 141.168 77.8822C142.672 77.8822 143.872 77.5782 144.768 76.9702C145.664 76.3302 146.112 75.4342 146.112 74.2822C146.112 73.6102 145.984 73.0022 145.728 72.4582C145.504 71.9142 145.088 71.4662 144.48 71.1142C143.872 70.7302 143.04 70.4422 141.984 70.2502C140.928 70.0262 139.568 69.9142 137.904 69.9142V64.9222C139.28 64.9222 140.416 64.8262 141.312 64.6342C142.24 64.4422 142.976 64.1702 143.52 63.8182C144.096 63.4342 144.496 63.0022 144.72 62.5222C144.976 62.0102 145.104 61.4502 145.104 60.8422C145.104 59.7862 144.784 58.9702 144.144 58.3942C143.504 57.7862 142.576 57.4822 141.36 57.4822C140.272 57.4822 139.28 57.7222 138.384 58.2022C137.52 58.6822 136.608 59.3382 135.648 60.1702L132.096 55.8502C133.504 54.6342 134.976 53.6902 136.512 53.0182C138.08 52.3142 139.808 51.9622 141.696 51.9622C143.264 51.9622 144.688 52.1542 145.968 52.5382C147.28 52.8902 148.384 53.4342 149.28 54.1702C150.208 54.8742 150.928 55.7382 151.44 56.7622C151.952 57.7862 152.208 58.9702 152.208 60.3142C152.208 61.9142 151.76 63.2742 150.864 64.3942C150 65.4822 148.752 66.3782 147.12 67.0822V67.2742C148.88 67.7862 150.32 68.6662 151.44 69.9142C152.592 71.1302 153.168 72.7302 153.168 74.7142C153.168 76.1222 152.864 77.3862 152.256 78.5062C151.648 79.5942 150.832 80.5222 149.808 81.2902C148.784 82.0262 147.584 82.6022 146.208 83.0182C144.832 83.4022 143.376 83.5942 141.84 83.5942ZM162.736 83.5942C161.52 83.5942 160.496 83.1782 159.664 82.3462C158.864 81.4822 158.464 80.4262 158.464 79.1782C158.464 77.8982 158.864 76.8422 159.664 76.0102C160.496 75.1462 161.52 74.7142 162.736 74.7142C163.952 74.7142 164.96 75.1462 165.76 76.0102C166.592 76.8422 167.008 77.8982 167.008 79.1782C167.008 80.4262 166.592 81.4822 165.76 82.3462C164.96 83.1782 163.952 83.5942 162.736 83.5942Z" fill="#FA5A28"/>
<defs>
<linearGradient id="paint0_linear" x1="74.2764" y1="207.218" x2="74.2764" y2="144.84" gradientUnits="userSpaceOnUse">
<stop stop-color="#7D6DF2"/>
<stop offset="1" stop-color="#C499FB"/>
</linearGradient>
<linearGradient id="paint1_linear" x1="83.9953" y1="124.833" x2="83.9953" y2="114.321" gradientUnits="userSpaceOnUse">
<stop stop-color="#B3B3B3"/>
<stop offset="1" stop-color="#D4D4D4"/>
</linearGradient>
<linearGradient id="paint2_linear" x1="83.9978" y1="143.605" x2="83.9978" y2="133.094" gradientUnits="userSpaceOnUse">
<stop stop-color="#B3B3B3"/>
<stop offset="1" stop-color="#D4D4D4"/>
</linearGradient>
<linearGradient id="paint3_linear" x1="83.9953" y1="162.384" x2="83.9953" y2="151.871" gradientUnits="userSpaceOnUse">
<stop stop-color="#B3B3B3"/>
<stop offset="1" stop-color="#D4D4D4"/>
</linearGradient>
<linearGradient id="paint4_linear" x1="108.053" y1="99.3955" x2="72.8565" y2="81.0188" gradientUnits="userSpaceOnUse">
<stop stop-color="#EE7170"/>
<stop offset="1" stop-color="#8F3DDC"/>
</linearGradient>
<linearGradient id="paint5_linear" x1="100.641" y1="99.3866" x2="135.838" y2="81.0099" gradientUnits="userSpaceOnUse">
<stop stop-color="#EE7170"/>
<stop offset="1" stop-color="#8F3DDC"/>
</linearGradient>
<linearGradient id="paint6_linear" x1="126.661" y1="106.639" x2="86.7255" y2="92.7136" gradientUnits="userSpaceOnUse">
<stop stop-color="#EE7170"/>
<stop offset="1" stop-color="#8F3DDC"/>
</linearGradient>
</defs>
</svg>
