<svg width="879" height="80" viewBox="0 0 879 80" fill="none" xmlns="http://www.w3.org/2000/svg">
<path d="M866.944 12.0048V31.278C866.812 47.4951 853.562 53.2824 832.703 53.0195L506.192 53.0195C481.876 52.9591 472.223 62.5014 472.537 78.5705" stroke="#FA5A28" stroke-linecap="round" stroke-linejoin="round" stroke-dasharray="3 3"/>
<path d="M436.569 79.0053V12.0048" stroke="#FA5A28" stroke-linecap="round" stroke-linejoin="round" stroke-dasharray="3 3"/>
<path d="M10.0433 12.0049L10.0433 31.2782C10.1747 47.4952 23.4245 53.2825 44.2843 53.0196L370.795 53.0196C395.111 52.9593 404.764 62.5015 404.45 78.5706" stroke="#FA5A28" stroke-linecap="round" stroke-linejoin="round" stroke-dasharray="3 3"/>
<ellipse cx="10.0434" cy="10.0048" rx="10.0105" ry="10.0001" fill="#FA5A28"/>
<ellipse cx="10.0434" cy="10.0048" rx="4.00421" ry="4.00003" fill="white"/>
<ellipse cx="437.57" cy="10.0046" rx="10.0105" ry="10.0001" fill="#FA5A28"/>
<ellipse cx="437.57" cy="10.0045" rx="4.00421" ry="4.00003" fill="white"/>
<ellipse cx="868.022" cy="10.0048" rx="10.0105" ry="10.0001" fill="#FA5A28"/>
<ellipse cx="868.022" cy="10.0048" rx="4.00421" ry="4.00003" fill="white"/>
</svg>
