<svg width="220" height="202" viewBox="0 0 220 202" fill="none" xmlns="http://www.w3.org/2000/svg">
<rect x="91.1271" y="198.02" width="40.0039" height="3.00003" fill="#7B39D9"/>
<ellipse cx="183.136" cy="36.0185" rx="35.0035" ry="35.0003" fill="white" stroke="#FA5A28" stroke-dasharray="3 3"/>
<path d="M169.911 52.0182V47.9862C171.863 46.1622 173.639 44.4662 175.239 42.8982C176.871 41.2982 178.263 39.8102 179.415 38.4342C180.599 37.0262 181.511 35.7302 182.151 34.5462C182.823 33.3302 183.159 32.1782 183.159 31.0902C183.159 29.5862 182.775 28.4502 182.007 27.6822C181.239 26.8822 180.183 26.4822 178.839 26.4822C177.719 26.4822 176.727 26.8022 175.863 27.4422C174.999 28.0502 174.183 28.7702 173.415 29.6022L169.575 25.8102C171.079 24.2102 172.615 23.0102 174.183 22.2102C175.751 21.3782 177.623 20.9622 179.799 20.9622C181.303 20.9622 182.663 21.2022 183.879 21.6822C185.127 22.1302 186.199 22.7862 187.095 23.6502C187.991 24.4822 188.679 25.4902 189.159 26.6742C189.639 27.8582 189.879 29.1862 189.879 30.6582C189.879 31.9382 189.607 33.2502 189.063 34.5942C188.519 35.9062 187.783 37.2342 186.855 38.5782C185.959 39.8902 184.919 41.2182 183.735 42.5622C182.583 43.8742 181.383 45.1702 180.135 46.4502C180.903 46.3542 181.751 46.2742 182.679 46.2102C183.639 46.1142 184.487 46.0662 185.223 46.0662H191.367V52.0182H169.911ZM200.694 52.5942C199.478 52.5942 198.454 52.1782 197.622 51.3462C196.822 50.4822 196.422 49.4262 196.422 48.1782C196.422 46.8982 196.822 45.8422 197.622 45.0102C198.454 44.1462 199.478 43.7142 200.694 43.7142C201.91 43.7142 202.918 44.1462 203.718 45.0102C204.55 45.8422 204.966 46.8982 204.966 48.1782C204.966 49.4262 204.55 50.4822 203.718 51.3462C202.918 52.1782 201.91 52.5942 200.694 52.5942Z" fill="#FA5A28"/>
<mask id="mask0" mask-type="alpha" maskUnits="userSpaceOnUse" x="0" y="38" width="220" height="147">
<rect y="38.0004" width="220" height="146" fill="white"/>
</mask>
<g mask="url(#mask0)">
<path fill-rule="evenodd" clip-rule="evenodd" d="M190.435 168.798C190.435 160.832 196.893 154.375 204.859 154.375C212.825 154.375 219.283 160.832 219.283 168.798C219.283 176.764 212.825 183.222 204.859 183.222C196.893 183.222 190.435 176.764 190.435 168.798Z" fill="#F2F2F2"/>
<path fill-rule="evenodd" clip-rule="evenodd" d="M86.4224 76.1908C86.4152 81.5638 82.0548 85.9145 76.6816 85.9098C71.3083 85.905 66.9556 81.5466 66.9579 76.1734C66.9602 70.8001 71.3166 66.4454 76.6899 66.4452C79.2731 66.446 81.7501 67.4735 83.5755 69.3013C85.4009 71.1292 86.4251 73.6076 86.4224 76.1908Z" fill="#F2F2F2"/>
<path fill-rule="evenodd" clip-rule="evenodd" d="M0.717285 126.743V126.073C0.717285 122.979 1.81127 120.337 3.99923 118.149C6.18719 115.962 8.82829 114.868 11.9225 114.868H57.485C60.5792 114.868 63.2203 115.962 65.4083 118.149C67.5963 120.337 68.6902 122.979 68.6902 126.073V127.413C68.6902 130.507 67.5963 133.148 65.4083 135.336C63.2203 137.524 60.5792 138.618 57.485 138.618H11.9225C8.82829 138.618 6.18719 137.524 3.99923 135.336C1.81127 133.148 0.717285 130.507 0.717285 127.413V126.743Z" fill="#F2F2F2"/>
<path fill-rule="evenodd" clip-rule="evenodd" d="M118.801 82.7531V82.0831C118.801 78.9888 119.895 76.3477 122.083 74.1598C124.271 71.9718 126.912 70.8778 130.007 70.8778H205.993C209.087 70.8778 211.728 71.9718 213.916 74.1598C216.104 76.3477 217.198 78.9888 217.198 82.0831V83.4231C217.198 86.5173 216.104 89.1584 213.916 91.3464C211.728 93.5343 209.087 94.6283 205.993 94.6283H130.007C126.912 94.6283 124.271 93.5343 122.083 91.3464C119.895 89.1584 118.801 86.5173 118.801 83.4231V82.7531Z" fill="#F2F2F2"/>
<path fill-rule="evenodd" clip-rule="evenodd" d="M203.057 173.131H21.8112V53.4745H22.1437V172.798H203.057V173.131Z" fill="#B3B3B3"/>
<path fill-rule="evenodd" clip-rule="evenodd" d="M21.9774 53.6406C21.1809 53.6406 20.463 53.1607 20.1585 52.4247C19.854 51.6888 20.023 50.8419 20.5867 50.2792C21.1503 49.7165 21.9975 49.5489 22.7329 49.8546C23.4684 50.1603 23.9471 50.8791 23.9458 51.6756C23.9439 52.7614 23.0632 53.6406 21.9774 53.6406ZM21.9774 50.0397C21.3157 50.0397 20.7192 50.4383 20.466 51.0496C20.2128 51.6609 20.3528 52.3645 20.8206 52.8324C21.2885 53.3002 21.9921 53.4402 22.6034 53.187C23.2147 52.9338 23.6133 52.3373 23.6133 51.6756C23.6141 51.2414 23.4421 50.8248 23.1351 50.5179C22.8281 50.2109 22.4115 50.0388 21.9773 50.0397H21.9774Z" fill="#B3B3B3"/>
<path fill-rule="evenodd" clip-rule="evenodd" d="M204.859 174.93C204.063 174.93 203.345 174.45 203.04 173.714C202.736 172.978 202.905 172.131 203.468 171.568C204.032 171.006 204.879 170.838 205.615 171.144C206.35 171.449 206.829 172.168 206.827 172.965C206.826 174.05 205.945 174.93 204.859 174.93ZM204.859 171.329C204.197 171.329 203.601 171.727 203.348 172.339C203.094 172.95 203.234 173.654 203.702 174.122C204.17 174.589 204.874 174.729 205.485 174.476C206.096 174.223 206.495 173.626 206.495 172.965C206.493 172.062 205.762 171.331 204.859 171.329Z" fill="#B3B3B3"/>
<rect x="20.1786" y="62.0695" width="3.60097" height="0.332502" fill="#B3B3B3"/>
<rect x="20.1786" y="76.0248" width="3.60097" height="0.3325" fill="#B3B3B3"/>
<rect x="20.1786" y="89.9762" width="3.60097" height="0.3325" fill="#B3B3B3"/>
<rect x="20.1786" y="103.931" width="3.60097" height="0.332497" fill="#B3B3B3"/>
<rect x="20.1786" y="117.886" width="3.60097" height="0.332512" fill="#B3B3B3"/>
<rect x="20.1786" y="131.841" width="3.60097" height="0.332512" fill="#B3B3B3"/>
<rect x="20.1786" y="145.796" width="3.60097" height="0.332512" fill="#B3B3B3"/>
<rect x="20.1786" y="159.751" width="3.60097" height="0.332512" fill="#B3B3B3"/>
<rect x="26.9382" y="62.0695" width="177.924" height="0.332502" fill="#D6D6D6"/>
<rect x="26.9382" y="76.0248" width="177.924" height="0.3325" fill="#D6D6D6"/>
<rect x="26.9382" y="89.9762" width="177.924" height="0.3325" fill="#D6D6D6"/>
<rect x="26.9382" y="103.931" width="177.924" height="0.332497" fill="#D6D6D6"/>
<rect x="26.9382" y="117.886" width="177.924" height="0.332512" fill="#D6D6D6"/>
<rect x="26.9382" y="131.841" width="177.924" height="0.332512" fill="#D6D6D6"/>
<rect x="26.9382" y="145.796" width="177.924" height="0.332512" fill="#D6D6D6"/>
<rect x="26.9382" y="159.751" width="177.924" height="0.332512" fill="#D6D6D6"/>
<g style="mix-blend-mode:multiply">
<rect x="35.9822" y="130.066" width="11.7472" height="38.7329" fill="#E5E5E5"/>
</g>
<rect x="34.9183" y="131.349" width="11.7472" height="37.4495" fill="url(#paint0_linear)"/>
<g style="mix-blend-mode:multiply">
<rect x="61.0826" y="122.033" width="11.7472" height="46.7661" fill="#E5E5E5"/>
</g>
<rect x="60.0187" y="123.316" width="11.7472" height="45.4793" fill="url(#paint1_linear)"/>
<g style="mix-blend-mode:multiply">
<rect x="86.1831" y="114.402" width="11.7472" height="54.397" fill="#E5E5E5"/>
</g>
<rect x="85.119" y="115.685" width="11.7472" height="53.1102" fill="url(#paint2_linear)"/>
<g style="mix-blend-mode:multiply">
<rect x="111.287" y="106.369" width="11.7472" height="62.4302" fill="#E5E5E5"/>
</g>
<rect x="110.223" y="107.652" width="11.7472" height="61.1434" fill="url(#paint3_linear)"/>
<g style="mix-blend-mode:multiply">
<rect x="136.387" y="97.933" width="11.7472" height="70.8624" fill="#E5E5E5"/>
</g>
<rect x="135.323" y="99.2198" width="11.7472" height="69.5789" fill="url(#paint4_linear)"/>
<g style="mix-blend-mode:multiply">
<rect x="161.491" y="89.8998" width="11.7472" height="78.8956" fill="#E5E5E5"/>
</g>
<rect x="160.427" y="91.1864" width="11.7472" height="77.6122" fill="url(#paint5_linear)"/>
<g style="mix-blend-mode:multiply">
<rect x="186.591" y="81.4677" width="11.7472" height="87.3311" fill="#E5E5E5"/>
</g>
<rect x="185.527" y="82.7509" width="11.7472" height="86.0443" fill="url(#paint6_linear)"/>
<path fill-rule="evenodd" clip-rule="evenodd" d="M14.2401 61.9931C8.90296 57.9805 7.51458 50.5559 11.0411 44.8857C14.5675 39.2156 21.8408 37.178 27.7998 40.1908C33.7588 43.2036 36.4297 50.2689 33.954 56.4703L33.6448 56.344C36.06 50.2971 33.4545 43.4071 27.6424 40.4716C21.8303 37.5361 14.7386 39.5282 11.3053 45.0609C7.87207 50.5936 9.2355 57.8325 14.4462 61.7371L14.2401 61.9931Z" fill="#F94F24"/>
</g>
<defs>
<linearGradient id="paint0_linear" x1="50.4443" y1="151.628" x2="50.4443" y2="120.852" gradientUnits="userSpaceOnUse">
<stop stop-color="#8033EB"/>
<stop offset="0.53" stop-color="#D4648E"/>
<stop offset="1" stop-color="#EC7071"/>
</linearGradient>
<linearGradient id="paint1_linear" x1="75.5473" y1="147.944" x2="75.5473" y2="110.571" gradientUnits="userSpaceOnUse">
<stop stop-color="#8033EB"/>
<stop offset="0.53" stop-color="#D4648E"/>
<stop offset="1" stop-color="#EC7071"/>
</linearGradient>
<linearGradient id="paint2_linear" x1="100.648" y1="144.443" x2="100.648" y2="100.799" gradientUnits="userSpaceOnUse">
<stop stop-color="#8033EB"/>
<stop offset="0.53" stop-color="#D4648E"/>
<stop offset="1" stop-color="#EC7071"/>
</linearGradient>
<linearGradient id="paint3_linear" x1="125.752" y1="140.762" x2="125.752" y2="90.515" gradientUnits="userSpaceOnUse">
<stop stop-color="#8033EB"/>
<stop offset="0.53" stop-color="#D4648E"/>
<stop offset="1" stop-color="#EC7071"/>
</linearGradient>
<linearGradient id="paint4_linear" x1="150.852" y1="136.895" x2="150.852" y2="79.7186" gradientUnits="userSpaceOnUse">
<stop stop-color="#8033EB"/>
<stop offset="0.53" stop-color="#D4648E"/>
<stop offset="1" stop-color="#EC7071"/>
</linearGradient>
<linearGradient id="paint5_linear" x1="175.956" y1="133.211" x2="175.956" y2="69.4343" gradientUnits="userSpaceOnUse">
<stop stop-color="#8033EB"/>
<stop offset="0.53" stop-color="#D4648E"/>
<stop offset="1" stop-color="#EC7071"/>
</linearGradient>
<linearGradient id="paint6_linear" x1="201.056" y1="129.344" x2="201.056" y2="58.6346" gradientUnits="userSpaceOnUse">
<stop stop-color="#8033EB"/>
<stop offset="0.53" stop-color="#D4648E"/>
<stop offset="1" stop-color="#EC7071"/>
</linearGradient>
</defs>
</svg>
