<svg width="299" height="204" viewBox="0 0 299 204" fill="none" xmlns="http://www.w3.org/2000/svg">
<path fill-rule="evenodd" clip-rule="evenodd" d="M51.3981 60.0555C50.8477 59.7223 50.9696 58.6785 51.7675 58.6785H76.9977C76.795 46.2383 68.9282 35.2231 57.2431 31.0176C45.5579 26.812 32.495 30.2944 24.44 39.7625C16.385 49.2307 15.0203 62.7068 21.0131 73.6034C27.0058 84.5 39.1043 90.541 51.3944 88.7734L51.3981 60.0555Z" fill="#F2F2F2"/>
<path fill-rule="evenodd" clip-rule="evenodd" d="M284.868 85.6506C284.868 85.6506 253.816 101.642 238.779 93.9353C223.741 86.2283 222.364 72.7602 228.369 51.4408C234.375 30.1213 249.284 18.0133 272.408 33.9126C295.533 49.8119 310.326 70.5457 284.868 85.6506Z" fill="#F2F2F2"/>
<path fill-rule="evenodd" clip-rule="evenodd" d="M263.754 155.197H245.601V166.742H263.754C267.055 166.664 269.688 164.102 269.688 160.969C269.688 157.836 267.055 155.275 263.754 155.197Z" fill="#F2F2F2"/>
<rect x="43.1659" y="48.1467" width="207.433" height="131.939" fill="url(#paint0_linear)" stroke="#EFEFEF"/>
<rect x="43.4865" y="43.9486" width="207.351" height="12.5942" fill="#C5C5C5"/>
<rect x="25.933" y="178.547" width="7.33059" height="2.09901" fill="#DEDEDE"/>
<rect x="261.31" y="178.547" width="7.33057" height="2.09901" fill="#DEDEDE"/>
<path fill-rule="evenodd" clip-rule="evenodd" d="M17.3057 92.2266C17.3057 96.8636 13.5548 100.623 8.92787 100.623C4.30093 100.623 0.550049 96.8636 0.550049 92.2266C0.550049 87.5895 4.30093 83.8304 8.92787 83.8304C13.5548 83.8304 17.3057 87.5895 17.3057 92.2266Z" fill="#F2F2F2"/>
<path fill-rule="evenodd" clip-rule="evenodd" d="M274.924 83.8301C274.924 86.1487 273.048 88.0282 270.735 88.0282C268.421 88.0282 266.546 86.1487 266.546 83.8301C266.546 81.5116 268.421 79.6321 270.735 79.6321C273.048 79.6321 274.924 81.5116 274.924 83.8301Z" fill="#F2F2F2"/>
<path fill-rule="evenodd" clip-rule="evenodd" d="M53.9587 50.2418C53.9602 51.0911 53.4508 51.8576 52.6683 52.1836C51.8858 52.5097 50.9843 52.331 50.3846 51.731C49.7848 51.131 49.605 50.2279 49.9289 49.4431C50.2529 48.6583 51.0168 48.1465 51.8643 48.1465C53.0187 48.1485 53.9546 49.0848 53.9587 50.2418Z" fill="#E20000"/>
<path fill-rule="evenodd" clip-rule="evenodd" d="M61.2891 50.2418C61.2906 51.0911 60.7813 51.8576 59.9988 52.1836C59.2162 52.5097 58.3148 52.331 57.715 51.731C57.1153 51.131 56.9354 50.2279 57.2594 49.4431C57.5833 48.6583 58.3473 48.1465 59.1947 48.1465C60.3492 48.1485 61.2851 49.0848 61.2891 50.2418Z" fill="#FFED47"/>
<path fill-rule="evenodd" clip-rule="evenodd" d="M68.6199 50.2418C68.6214 51.0911 68.1121 51.8576 67.3296 52.1836C66.5471 52.5097 65.6456 52.331 65.0458 51.731C64.4461 51.131 64.2662 50.2279 64.5902 49.4431C64.9141 48.6583 65.6781 48.1465 66.5255 48.1465C67.68 48.1485 68.6159 49.0848 68.6199 50.2418Z" fill="#00C7AB"/>
<rect x="60.6508" y="74.8342" width="57.4878" height="6.54697" rx="3.27349" fill="#00CCB0"/>
<rect x="60.6509" y="127.21" width="57.4878" height="6.54697" rx="3.27349" fill="white"/>
<rect x="60.6509" y="101.022" width="40.5028" height="6.54698" rx="3.27349" fill="white"/>
<rect x="60.6509" y="153.398" width="40.5028" height="6.54698" rx="3.27349" fill="#FA5A28"/>
<rect x="144.269" y="140.304" width="40.5028" height="6.54698" rx="3.27349" fill="#FFF49A"/>
<rect x="128.591" y="74.8342" width="39.1962" height="6.54697" rx="3.27349" fill="white"/>
<rect x="60.6509" y="114.116" width="22.2112" height="6.54698" rx="3.27349" fill="#7B39D9"/>
<rect x="108.993" y="101.022" width="52.2616" height="6.54698" rx="3.27349" fill="white"/>
<rect x="167.787" y="101.022" width="16.985" height="6.54698" rx="3.27349" fill="#7B39D9"/>
<rect x="84.1688" y="140.304" width="52.2616" height="6.54698" rx="3.27349" fill="white"/>
<rect x="128.591" y="127.21" width="39.1962" height="6.54697" rx="3.27349" fill="white"/>
<rect x="60.6511" y="140.304" width="16.985" height="6.54698" rx="3.27349" fill="white"/>
<rect x="90.7015" y="114.116" width="57.4878" height="6.54698" rx="3.27349" fill="white"/>
<rect x="60.6509" y="87.9282" width="82.3121" height="6.54697" rx="3.27349" fill="white"/>
<rect x="156.028" y="114.116" width="16.985" height="6.54698" rx="3.27349" fill="white"/>
<ellipse cx="252.713" cy="116.735" rx="41.8093" ry="41.9006" fill="white" stroke="#F94F24" stroke-width="0.5" stroke-linecap="round" stroke-linejoin="round" stroke-dasharray="2 2"/>
<ellipse cx="252.712" cy="116.735" rx="35.2766" ry="35.3537" fill="#7B39D9"/>
<path fill-rule="evenodd" clip-rule="evenodd" d="M236.283 105.994C236.871 104.762 238.425 104.352 239.544 105.134L253.262 114.712C253.756 115.057 254.071 115.573 254.172 116.131C254.247 116.236 254.314 116.348 254.372 116.469C254.838 117.445 254.529 118.615 253.642 119.235L239.924 128.813C238.804 129.595 237.251 129.185 236.663 127.953C236.197 126.977 236.505 125.807 237.392 125.187L248.966 117.106L237.012 108.76C236.125 108.14 235.817 106.97 236.283 105.994ZM256.111 125.901C255.026 125.901 254.146 126.78 254.146 127.865C254.146 128.95 255.026 129.829 256.111 129.829H269.167C270.252 129.829 271.131 128.95 271.131 127.865C271.131 126.78 270.252 125.901 269.167 125.901H256.111Z" fill="white"/>
<ellipse cx="215.095" cy="36.0185" rx="35.0035" ry="35.0003" fill="white" stroke="#FA5A28" stroke-dasharray="3 3"/>
<path d="M203.453 52.0182V46.3062H210.077V28.6902H204.365V24.3222C206.029 24.0022 207.437 23.6182 208.589 23.1702C209.741 22.7222 210.861 22.1782 211.949 21.5382H217.133V46.3062H222.845V52.0182H203.453ZM232.653 52.5942C231.437 52.5942 230.413 52.1782 229.581 51.3462C228.781 50.4822 228.381 49.4262 228.381 48.1782C228.381 46.8982 228.781 45.8422 229.581 45.0102C230.413 44.1462 231.437 43.7142 232.653 43.7142C233.869 43.7142 234.877 44.1462 235.677 45.0102C236.509 45.8422 236.925 46.8982 236.925 48.1782C236.925 49.4262 236.509 50.4822 235.677 51.3462C234.877 52.1782 233.869 52.5942 232.653 52.5942Z" fill="#FA5A28"/>
<rect x="120.085" y="200.02" width="40.004" height="3.00003" fill="#7B39D9"/>
<defs>
<linearGradient id="paint0_linear" x1="353.316" y1="114.116" x2="234.864" y2="-72.6293" gradientUnits="userSpaceOnUse">
<stop stop-color="#EE7170"/>
<stop offset="1" stop-color="#8F3DDC"/>
</linearGradient>
</defs>
</svg>
