<svg xmlns="http://www.w3.org/2000/svg" xmlns:xlink="http://www.w3.org/1999/xlink" viewBox="0 0 800 500"><defs><linearGradient id="a" x1="146.05" y1="93.76" x2="446.6" y2="293.03" gradientUnits="userSpaceOnUse"><stop offset="0" stop-color="#8033eb"/><stop offset="0.53" stop-color="#d4648e"/><stop offset="1" stop-color="#ec7071"/></linearGradient><linearGradient id="b" x1="171.05" y1="91.78" x2="148.19" y2="213.67" gradientTransform="translate(185.84 -47.85) rotate(45)" gradientUnits="userSpaceOnUse"><stop offset="0" stop-color="#fdbaa9"/><stop offset="1" stop-color="#f94f24"/></linearGradient></defs><title>Artboard 2 copy 11</title><g style="isolation:isolate"><circle cx="122.09" cy="357.2" r="25.06" style="fill:#f2f2f2"/><circle cx="122.09" cy="100.17" r="71.06" style="fill:none;stroke:#f94f24;stroke-linecap:round;stroke-miterlimit:10;stroke-width:1.10206px;stroke-dasharray:3.752310037612915,2.5015499591827393"/><line x1="284.2" y1="357.2" x2="146.53" y2="357.2" style="fill:none;stroke:#f94f24;stroke-linecap:round;stroke-miterlimit:10;stroke-width:1.10206px;stroke-dasharray:3.752310037612915,2.5015499591827393"/><circle cx="674.68" cy="142.15" r="49.59" transform="translate(523.89 814.95) rotate(-89.27)" style="fill:none;stroke:#f2f2f2;stroke-miterlimit:10;stroke-width:11px"/><path d="M560.45,181.2S475,225.14,433.58,204,388.42,145.8,405,87.23,462.54-4.59,526.16,39.09,630.53,139.71,560.45,181.2Z" style="fill:#f2f2f2"/><path d="M525.44,322v50.39c0,17.66,14.32,20,32,20h25.45c17.67,0,32-2.31,32-20V322Z" style="fill:none;stroke:#f94f24;stroke-linecap:round;stroke-miterlimit:10;stroke-width:1.10206px"/><path d="M577.75,322s20-120.9,137-143.9c0,0-56,10.79-118,143.9" style="fill:none;stroke:#f94f24;stroke-linecap:round;stroke-miterlimit:10;stroke-width:1.10206px"/><path d="M544.75,322s-6-78.35-83-121.62c0,0,93.8,20.3,108.4,121.62" style="fill:none;stroke:#f94f24;stroke-linecap:round;stroke-miterlimit:10;stroke-width:1.10206px"/><path d="M558.43,280.82s-3.68-64.7-21.68-97.7c0,0,41.71,38.53,49.36,109.77" style="fill:none;stroke:#f94f24;stroke-linecap:round;stroke-miterlimit:10;stroke-width:1.10206px"/><path d="M611.84,244.26s3.91-35.14,15.91-66.14c0,0-35,36.71-50,75.1" style="fill:none;stroke:#f94f24;stroke-linecap:round;stroke-miterlimit:10;stroke-width:1.10206px"/><path d="M657.75,209.12S601.88,263.91,588.82,322" style="fill:none;stroke:#f94f24;stroke-linecap:round;stroke-miterlimit:10;stroke-width:1.10206px"/><path d="M516,238s40.8,42.9,40.8,84" style="fill:none;stroke:#f94f24;stroke-linecap:round;stroke-miterlimit:10;stroke-width:1.10206px"/><path d="M606.75,215.67S586.56,255.19,584.31,280" style="fill:none;stroke:#f94f24;stroke-linecap:round;stroke-miterlimit:10;stroke-width:1.10206px"/><path d="M341.59,311.69H270.3s7.76,59.16-41.6,71H383.19C333.83,370.85,341.59,311.69,341.59,311.69Z" style="fill:#999"/><rect x="228.7" y="382.68" width="154.49" height="10.77" style="fill:#e5e5e5"/><path d="M501.41,309.28a15.8,15.8,0,0,1-15.65,16h-372a15.8,15.8,0,0,1-15.64-16V91.51a15.8,15.8,0,0,1,15.64-16h372a15.8,15.8,0,0,1,15.65,16Z" style="fill:#b3b3b3"/><rect x="98.12" y="96.5" width="403.29" height="198.36" style="fill:url(#a)"/><rect x="98.12" y="290.92" width="403.29" height="3.94" style="fill:#e5e5e5;mix-blend-mode:multiply"/><rect x="98.12" y="96.5" width="403.29" height="3.94" style="fill:#e5e5e5;mix-blend-mode:multiply"/><path d="M501.41,294.86V213.63S444,286.24,299.76,222.15s-201.64,0-201.64,0v72.71Z" style="fill:#e5e5e5;opacity:0.1;mix-blend-mode:screen"/><path d="M270.62,325.24h70.65s.87,9.39,1.36,11.82l-78.81,17.4S270.62,343.61,270.62,325.24Z" style="fill:#828282"/><line x1="85.75" y1="393.45" x2="746.75" y2="393.45" style="fill:none;stroke:#f94f24;stroke-linecap:round;stroke-miterlimit:10;stroke-width:1.10206px"/><line x1="85.75" y1="423.33" x2="746.75" y2="423.33" style="fill:none;stroke:#f94f24;stroke-linecap:round;stroke-miterlimit:10;stroke-width:1.10206px"/><line x1="531.21" y1="327.56" x2="531.21" y2="341.33" style="fill:none;stroke:#f94f24;stroke-linecap:round;stroke-miterlimit:10;stroke-width:1.10206px"/><line x1="531.21" y1="347.19" x2="531.21" y2="353.23" style="fill:none;stroke:#f94f24;stroke-linecap:round;stroke-miterlimit:10;stroke-width:1.10206px"/><line x1="531.21" y1="357.2" x2="531.21" y2="368.89" style="fill:none;stroke:#f94f24;stroke-linecap:round;stroke-miterlimit:10;stroke-width:1.10206px"/><path d="M498.72,123.54H321.65a15.69,15.69,0,0,0-15.7,15.7V261.56a15.69,15.69,0,0,0,15.7,15.7H498.72Z" style="fill:#e5e5e5;mix-blend-mode:multiply"/><rect x="298.43" y="114.41" width="235.64" height="153.72" rx="15.7" ry="15.7" style="fill:#fff;stroke:#f94f24;stroke-linecap:round;stroke-miterlimit:10;stroke-width:2px"/><line x1="298.43" y1="142.15" x2="525.44" y2="142.15" style="fill:none;stroke:#f94f24;stroke-linecap:round;stroke-miterlimit:10;stroke-width:2px"/><path d="M321.87,129.1a4,4,0,1,1-4-4A4,4,0,0,1,321.87,129.1Z" style="fill:#fff;stroke:#f94f24;stroke-linecap:round;stroke-miterlimit:10;stroke-width:2px"/><path d="M340.6,129.1a4,4,0,1,1-4-4A4,4,0,0,1,340.6,129.1Z" style="fill:#fff;stroke:#f94f24;stroke-linecap:round;stroke-miterlimit:10;stroke-width:2px"/><path d="M359.34,129.1a4,4,0,1,1-4-4A4,4,0,0,1,359.34,129.1Z" style="fill:#fff;stroke:#f94f24;stroke-linecap:round;stroke-miterlimit:10;stroke-width:2px"/><path d="M323.15,156.61l.24-1.36h-.92l0-.51h1l.26-1.54h.56l-.26,1.54h1.55l.27-1.54h.57l-.28,1.54h.77l0,.51h-.82l-.23,1.36h.78l0,.51h-.83l-.27,1.61h-.57l.27-1.61h-1.56l-.27,1.61h-.56l.28-1.61h-.89l0-.51Zm.56,0h1.56l.23-1.36H324Z" style="fill:#999"/><path d="M332.75,157.3c0-1.27-2.68-1-2.68-2.75a1.6,1.6,0,0,1,1.74-1.51,2.3,2.3,0,0,1,1.45.47l-.4.5a1.69,1.69,0,0,0-1.09-.38c-.66,0-1,.36-1,.88,0,1.29,2.67,1,2.67,2.75,0,.84-.67,1.55-1.87,1.55a2.63,2.63,0,0,1-1.75-.59l.38-.52a2.14,2.14,0,0,0,1.43.53C332.34,158.23,332.75,157.82,332.75,157.3Z" style="fill:#999"/><path d="M334.59,157.57v-2.69h-.65v-.4l.65-.12.19-1.13h.42v1.15h1.2v.5h-1.2v2.66c0,.48.25.68.63.68a1.28,1.28,0,0,0,.67-.15l.17.5a2,2,0,0,1-1,.2C335,158.77,334.59,158.39,334.59,157.57Z" style="fill:#999"/><path d="M340.54,158.39a2.2,2.2,0,0,1-1.36.39c-1.24,0-1.91-.63-1.91-2.25s.88-2.22,1.84-2.22a1.51,1.51,0,0,1,1.59,1.7,7.42,7.42,0,0,1-.05.75h-2.77c.06,1.07.5,1.48,1.38,1.48a1.62,1.62,0,0,0,1-.33Zm-2.65-2.14h2.18c0-.11,0-.21,0-.26,0-.74-.32-1.15-1-1.15S338,155.2,337.89,156.25Z" style="fill:#999"/><path d="M343.14,158.74a3.08,3.08,0,0,1-.68-.08v1.62h-.62v-5.9h.46l.14.44h0a1.36,1.36,0,0,1,1.13-.52c1,0,1.62.66,1.62,2.08S344.39,158.74,343.14,158.74Zm0-.56c1,0,1.47-.57,1.47-1.73s-.55-1.62-1.12-1.62a1.1,1.1,0,0,0-1,.61v2.65A2.48,2.48,0,0,0,343.11,158.18Z" style="fill:#999"/><path d="M350.26,153.51v5.22h-.62v-3.16l0-1.41h0l-.58.44-.62.43-.36-.51,1.52-1Z" style="fill:#999"/><path d="M352.09,157.74a.49.49,0,0,1,.49.51.48.48,0,0,1-.49.48.49.49,0,0,1-.49-.48A.5.5,0,0,1,352.09,157.74Z" style="fill:#999"/><path d="M356.11,153.12h.64v5.61h-.64Z" style="fill:#999"/><path d="M361.54,158.73h-.63v-2.86c0-.66-.33-1-.93-1a1.18,1.18,0,0,0-1.11.78v3.11h-.62v-4.35h.47l.13.45h0a1.66,1.66,0,0,1,1.24-.54,1.3,1.3,0,0,1,1.42,1.44Z" style="fill:#999"/><path d="M362.69,155.51c0-.62.54-1.2,1.49-1.2a1.8,1.8,0,0,1,1.27.46l-.4.43a1.28,1.28,0,0,0-.89-.35c-.59,0-.86.3-.86.65,0,1,2.2.58,2.2,2.06,0,.6-.5,1.24-1.55,1.24a2.15,2.15,0,0,1-1.53-.55l.38-.47a1.62,1.62,0,0,0,1.18.48c.61,0,.91-.32.91-.68C364.89,156.59,362.69,157,362.69,155.51Z" style="fill:#999"/><path d="M366.77,157.57v-2.69h-.65v-.4l.65-.12.19-1.13h.42v1.15h1.2v.5h-1.2v2.66c0,.48.25.68.64.68a1.21,1.21,0,0,0,.66-.15l.18.5a2,2,0,0,1-1,.2C367.16,158.77,366.77,158.39,366.77,157.57Z" style="fill:#999"/><path d="M372.5,155.63v2c0,.39.12.66.43.66H373v.45a.51.51,0,0,1-.22,0,.79.79,0,0,1-.8-.53h0a1.57,1.57,0,0,1-1.29.59,1.17,1.17,0,0,1-1.26-1.16c0-1,.94-1.44,2.49-1.41v-.47c0-.71-.35-.92-.92-.92a1.07,1.07,0,0,0-1,.53l-.46-.36a1.69,1.69,0,0,1,1.46-.72C372,154.31,372.5,154.72,372.5,155.63Zm-.57,1.11c-1.05,0-1.87.21-1.87.87a.7.7,0,0,0,.78.69,1.33,1.33,0,0,0,1.09-.59Z" style="fill:#999"/><path d="M374.71,152.66v5c0,.38.12.55.45.55a.79.79,0,0,0,.36-.09v.53a1.46,1.46,0,0,1-.54.09.82.82,0,0,1-.89-.92v-5.2Z" style="fill:#999"/><path d="M377,152.66v5c0,.38.13.55.45.55a.79.79,0,0,0,.36-.09v.53a1.39,1.39,0,0,1-.54.09.82.82,0,0,1-.89-.92v-5.2Z" style="fill:#999"/><path d="M383.31,155l-.93,3.71h-.84l-1.15-4.35H381l.61,2.4c.12.46.23.92.33,1.4h0c.09-.43.18-.84.28-1.24l.66-2.56h.8l.63,2.56c.1.4.2.8.28,1.24h0c.1-.48.21-1,.33-1.41l.62-2.39h.6l-1.17,4.35h-.84l-.89-3.71Z" style="fill:#999"/><path d="M390.05,158.39a2.26,2.26,0,0,1-1.37.39c-1.24,0-1.91-.63-1.91-2.25s.88-2.22,1.85-2.22a1.51,1.51,0,0,1,1.58,1.7,7.42,7.42,0,0,1-.05.75h-2.77c.06,1.07.51,1.48,1.38,1.48a1.68,1.68,0,0,0,1-.33Zm-2.66-2.14h2.19V156c0-.74-.32-1.15-1-1.15S387.45,155.2,387.39,156.25Z" style="fill:#999"/><path d="M391.35,152.66H392v2h0a1.75,1.75,0,0,1,1.06-.33c.91,0,1.65.59,1.65,2.08s-.69,2.39-2.13,2.39a2.8,2.8,0,0,1-1.22-.23Zm2.73,3.84c0-1.26-.59-1.62-1.2-1.62a1.17,1.17,0,0,0-.91.43v2.83a1.73,1.73,0,0,0,.7.12C393.51,158.26,394.08,157.68,394.08,156.5Z" style="fill:#999"/><path d="M396.28,152.65a.45.45,0,1,1,0,.9.44.44,0,0,1-.45-.44A.44.44,0,0,1,396.28,152.65Zm-.27,1.73h.62v4.35H396Z" style="fill:#999"/><path d="M401.4,158.73h-.62v-2.86c0-.66-.33-1-.94-1a1.16,1.16,0,0,0-1.1.78v3.11h-.63v-4.35h.47l.13.45h0a1.66,1.66,0,0,1,1.24-.54,1.3,1.3,0,0,1,1.42,1.44Z" style="fill:#999"/><path d="M402.35,159.77a1.41,1.41,0,0,0,.41.07c.54,0,.84-.29,1-1l-1.57-4.5h.67l.7,2.13c.26.79.39,1.21.49,1.59h0c.07-.32.17-.69.45-1.59l.67-2.13h.65L404.34,159c-.27.82-.7,1.37-1.59,1.37a1.41,1.41,0,0,1-.49-.08Z" style="fill:#999"/><path d="M406.22,156.62v-.55h2.31v.55Z" style="fill:#999"/><path d="M411,154.31a1.61,1.61,0,0,1,1.24.45l-.42.46a1.08,1.08,0,0,0-.85-.36c-.71,0-1.18.46-1.18,1.68s.45,1.71,1.18,1.71a1.09,1.09,0,0,0,.85-.35l.38.44a1.62,1.62,0,0,1-1.29.46c-1.06,0-1.76-.62-1.76-2.18S409.94,154.31,411,154.31Z" style="fill:#999"/><path d="M413.82,152.66v5c0,.38.13.55.46.55a.79.79,0,0,0,.36-.09v.53a1.46,1.46,0,0,1-.54.09.82.82,0,0,1-.89-.92v-5.2Z" style="fill:#999"/><path d="M415.94,152.65a.45.45,0,1,1,0,.9.44.44,0,0,1-.44-.44A.44.44,0,0,1,415.94,152.65Zm-.27,1.73h.63v4.35h-.63Z" style="fill:#999"/><path d="M323.66,169.43V168.3a2.58,2.58,0,0,1-1.56-.56l.38-.52a2.19,2.19,0,0,0,1.42.52c.83,0,1.15-.39,1.15-.86s-.42-.75-1-1l-.49-.21c-.65-.29-1.16-.67-1.16-1.43a1.46,1.46,0,0,1,1.38-1.4v-1.11h.57v1.09a2.3,2.3,0,0,1,1.24.44l-.41.5a1.64,1.64,0,0,0-1.08-.38c-.65,0-1,.31-1,.83s.39.74.94,1l.46.21c.69.33,1.25.65,1.25,1.43a1.51,1.51,0,0,1-1.48,1.47l0,1.14Z" style="fill:#333"/><path d="M332.34,168.33h-.62v-2.86c0-.66-.33-1-.93-1a1.17,1.17,0,0,0-1.11.78v3.11h-.62V164h.47l.13.45h0a1.66,1.66,0,0,1,1.24-.54,1.29,1.29,0,0,1,1.41,1.44Z" style="fill:#333"/><path d="M335,168.33a3.08,3.08,0,0,1-.68-.07v1.62h-.62V164h.46l.14.44h0a1.36,1.36,0,0,1,1.13-.52c1,0,1.61.66,1.61,2.08S336.2,168.33,335,168.33Zm0-.55c1,0,1.47-.57,1.47-1.73s-.55-1.62-1.13-1.62a1.1,1.1,0,0,0-1,.61v2.65A2.48,2.48,0,0,0,334.92,167.78Z" style="fill:#333"/><path d="M342.34,163.89c.87,0,1.35.49,1.35,1.44v3h-.62v-2.87c0-.67-.32-1-.85-1a1,1,0,0,0-1,.73v3.16h-.63V165.5c0-.68-.3-1.06-.86-1.06a1,1,0,0,0-1,.78v3.11h-.63V164h.48l.13.46h0a1.3,1.3,0,0,1,1.13-.55,1.12,1.12,0,0,1,1.15.69h0A1.34,1.34,0,0,1,342.34,163.89Z" style="fill:#333"/><path d="M347.78,162.25a.45.45,0,1,1,0,.9.44.44,0,0,1-.45-.44A.44.44,0,0,1,347.78,162.25ZM347.5,164h.63v4.35h-.63Z" style="fill:#333"/><path d="M352.9,168.33h-.63v-2.86c0-.66-.33-1-.93-1a1.18,1.18,0,0,0-1.11.78v3.11h-.62V164h.47l.13.45h0a1.66,1.66,0,0,1,1.24-.54,1.3,1.3,0,0,1,1.42,1.44Z" style="fill:#333"/><path d="M354.05,165.11c0-.62.54-1.2,1.49-1.2a1.8,1.8,0,0,1,1.27.46l-.4.43a1.28,1.28,0,0,0-.89-.35c-.59,0-.85.3-.85.65,0,1,2.19.58,2.19,2.06,0,.6-.5,1.24-1.55,1.24a2.15,2.15,0,0,1-1.53-.55l.38-.47a1.62,1.62,0,0,0,1.18.48c.61,0,.91-.32.91-.68C356.25,166.19,354.05,166.58,354.05,165.11Z" style="fill:#333"/><path d="M358.13,167.17v-2.69h-.65v-.4l.65-.12.19-1.13h.43V164h1.19v.5h-1.19v2.66c0,.48.24.68.63.68a1.21,1.21,0,0,0,.66-.15l.18.5a2,2,0,0,1-1,.2C358.52,168.37,358.13,168,358.13,167.17Z" style="fill:#333"/><path d="M363.86,165.23v2c0,.39.12.66.43.66h.11v.45a.51.51,0,0,1-.22.05.79.79,0,0,1-.8-.53h0a1.57,1.57,0,0,1-1.29.58,1.17,1.17,0,0,1-1.26-1.15c0-1,.95-1.44,2.49-1.41v-.47c0-.72-.35-.92-.92-.92a1.08,1.08,0,0,0-1,.53l-.46-.37a1.71,1.71,0,0,1,1.46-.71C363.31,163.91,363.86,164.32,363.86,165.23Zm-.57,1.11c-1.05,0-1.87.21-1.87.87a.7.7,0,0,0,.78.69,1.33,1.33,0,0,0,1.09-.59Z" style="fill:#333"/><path d="M366.06,162.26v5c0,.38.13.55.46.55a.79.79,0,0,0,.36-.09v.53a1.46,1.46,0,0,1-.54.09.82.82,0,0,1-.89-.92v-5.2Z" style="fill:#333"/><path d="M368.37,162.26v5c0,.38.13.55.46.55a.74.74,0,0,0,.35-.09v.53a1.43,1.43,0,0,1-.54.09.82.82,0,0,1-.89-.92v-5.2Z" style="fill:#333"/><path d="M374.67,164.62l-.93,3.71h-.84L371.75,164h.64l.61,2.4c.12.46.23.92.33,1.4h0c.09-.43.18-.84.28-1.24l.66-2.56h.8l.64,2.56c.09.4.19.8.27,1.24h0c.1-.48.21-1,.33-1.41L377,164h.6l-1.17,4.35h-.84l-.89-3.71Z" style="fill:#333"/><path d="M381.41,168a2.26,2.26,0,0,1-1.37.39c-1.24,0-1.91-.63-1.91-2.25s.88-2.22,1.85-2.22a1.51,1.51,0,0,1,1.58,1.7,7.42,7.42,0,0,1-.05.75h-2.76c.05,1.07.5,1.48,1.37,1.48a1.68,1.68,0,0,0,1-.33Zm-2.66-2.14h2.19v-.27c0-.73-.32-1.14-1-1.14S378.81,164.8,378.75,165.85Z" style="fill:#333"/><path d="M382.71,162.26h.61v2h0a1.78,1.78,0,0,1,1.06-.33c.91,0,1.65.59,1.65,2.08s-.69,2.39-2.13,2.39a2.67,2.67,0,0,1-1.22-.24Zm2.73,3.84c0-1.26-.59-1.62-1.2-1.62a1.17,1.17,0,0,0-.91.43v2.83a1.71,1.71,0,0,0,.69.12C384.87,167.86,385.44,167.28,385.44,166.1Z" style="fill:#333"/><path d="M387.64,162.25a.45.45,0,1,1,0,.9.44.44,0,0,1-.45-.44A.44.44,0,0,1,387.64,162.25Zm-.27,1.73H388v4.35h-.62Z" style="fill:#333"/><path d="M392.76,168.33h-.62v-2.86c0-.66-.33-1-.94-1a1.17,1.17,0,0,0-1.1.78v3.11h-.63V164H390l.12.45h0a1.68,1.68,0,0,1,1.24-.54,1.3,1.3,0,0,1,1.42,1.44Z" style="fill:#333"/><path d="M393.71,169.37a1.47,1.47,0,0,0,.41.07c.55,0,.84-.29,1-1l-1.57-4.5h.67l.7,2.13c.26.79.39,1.21.49,1.59h0c.07-.32.17-.69.45-1.59l.67-2.13h.65l-1.54,4.65c-.27.82-.7,1.37-1.59,1.37a1.41,1.41,0,0,1-.49-.08Z" style="fill:#333"/><path d="M397.58,166.22v-.56h2.31v.56Z" style="fill:#333"/><path d="M402.36,163.91a1.61,1.61,0,0,1,1.24.45l-.42.46a1.08,1.08,0,0,0-.85-.36c-.71,0-1.18.46-1.18,1.68s.45,1.71,1.18,1.71a1.09,1.09,0,0,0,.85-.35l.38.44a1.62,1.62,0,0,1-1.29.46c-1.06,0-1.76-.62-1.76-2.18S401.3,163.91,402.36,163.91Z" style="fill:#333"/><path d="M405.18,162.26v5c0,.38.13.55.46.55a.79.79,0,0,0,.36-.09v.53a1.46,1.46,0,0,1-.54.09.82.82,0,0,1-.89-.92v-5.2Z" style="fill:#333"/><path d="M407.3,162.25a.45.45,0,1,1,0,.9.44.44,0,0,1-.44-.44A.44.44,0,0,1,407.3,162.25ZM407,164h.63v4.35H407Z" style="fill:#333"/><path d="M411,166.22v-.56h2.31v.56Z" style="fill:#333"/><path d="M413.67,166.22v-.56H416v.56Z" style="fill:#333"/><path d="M419.36,162.26H420v6.07h-.46l-.14-.44h0a1.35,1.35,0,0,1-1.13.52c-1,0-1.61-.64-1.61-2.07s.84-2.36,2.06-2.36a3.6,3.6,0,0,1,.7.07Zm0,4.92v-2.56a2.76,2.76,0,0,0-.66-.1c-1,0-1.47.55-1.47,1.75s.54,1.61,1.11,1.61A1.06,1.06,0,0,0,419.36,167.18Z" style="fill:#333"/><path d="M424.35,168a2.24,2.24,0,0,1-1.37.39c-1.24,0-1.91-.63-1.91-2.25s.88-2.22,1.85-2.22a1.51,1.51,0,0,1,1.58,1.7,5.32,5.32,0,0,1-.05.75h-2.76c.05,1.07.5,1.48,1.37,1.48a1.63,1.63,0,0,0,1-.33Zm-2.65-2.14h2.18c0-.11,0-.21,0-.27,0-.73-.32-1.14-1-1.14S421.75,164.8,421.7,165.85Z" style="fill:#333"/><path d="M426.47,166.58c.14.42.23.78.32,1.15h0c.09-.37.2-.73.33-1.15L428,164h.65l-1.47,4.35h-.72l-1.5-4.35h.68Z" style="fill:#333"/><path d="M323.15,185.41l.24-1.36h-.92l0-.51h1l.26-1.54h.56l-.26,1.54h1.55l.27-1.54h.57l-.28,1.54h.77l0,.51h-.82l-.23,1.36h.78l0,.51h-.83l-.27,1.61h-.57l.27-1.61h-1.56l-.27,1.61h-.56l.28-1.61h-.89l0-.51Zm.56,0h1.56l.23-1.36H324Z" style="fill:#999"/><path d="M332.75,186.1c0-1.27-2.68-1-2.68-2.75a1.6,1.6,0,0,1,1.74-1.51,2.3,2.3,0,0,1,1.45.47l-.4.5a1.69,1.69,0,0,0-1.09-.38c-.66,0-1,.36-1,.88,0,1.29,2.67,1,2.67,2.75,0,.84-.67,1.55-1.87,1.55a2.63,2.63,0,0,1-1.75-.59l.38-.52a2.14,2.14,0,0,0,1.43.53C332.34,187,332.75,186.62,332.75,186.1Z" style="fill:#999"/><path d="M334.59,186.37v-2.69h-.65v-.4l.65-.12.19-1.13h.42v1.15h1.2v.5h-1.2v2.66c0,.48.25.68.63.68a1.28,1.28,0,0,0,.67-.15l.17.5a2,2,0,0,1-1,.2C335,187.57,334.59,187.19,334.59,186.37Z" style="fill:#999"/><path d="M340.54,187.19a2.2,2.2,0,0,1-1.36.39c-1.24,0-1.91-.63-1.91-2.25s.88-2.22,1.84-2.22a1.51,1.51,0,0,1,1.59,1.7,7.42,7.42,0,0,1-.05.75h-2.77c.06,1.07.5,1.48,1.38,1.48a1.62,1.62,0,0,0,1-.33Zm-2.65-2.14h2.18c0-.11,0-.21,0-.26,0-.74-.32-1.15-1-1.15S338,184,337.89,185.05Z" style="fill:#999"/><path d="M343.14,187.54a3.08,3.08,0,0,1-.68-.08v1.62h-.62v-5.9h.46l.14.44h0a1.36,1.36,0,0,1,1.13-.52c1,0,1.62.66,1.62,2.08S344.39,187.54,343.14,187.54Zm0-.56c1,0,1.47-.57,1.47-1.73s-.55-1.62-1.12-1.62a1.1,1.1,0,0,0-1,.61v2.65A2.48,2.48,0,0,0,343.11,187Z" style="fill:#999"/><path d="M349,187h2.38v.56h-3l-.11-.56c.21-.19,1.75-1.93,1.84-2.06a1.81,1.81,0,0,0,.54-1.25.78.78,0,0,0-.83-.84.82.82,0,0,0-.82.75l-.63-.14a1.43,1.43,0,0,1,1.49-1.16,1.29,1.29,0,0,1,1.44,1.32,2.63,2.63,0,0,1-.74,1.71l-.75.84c-.05.05-.72.76-.79.81Z" style="fill:#999"/><path d="M352.61,186.54a.49.49,0,0,1,.49.51.48.48,0,0,1-.49.48.49.49,0,0,1-.49-.48A.5.5,0,0,1,352.61,186.54Z" style="fill:#999"/><path d="M358.58,181.84a2.17,2.17,0,0,1,1.49.47l-.4.48a1.67,1.67,0,0,0-1.15-.37c-1,0-1.57.71-1.57,2.29s.56,2.31,1.63,2.31a1.52,1.52,0,0,0,1.1-.34l.35.46a2.21,2.21,0,0,1-1.53.47c-1.55,0-2.21-1.11-2.21-2.84S357.09,181.84,358.58,181.84Z" style="fill:#999"/><path d="M363.19,183.79a2.05,2.05,0,0,0-.49-.06,1.18,1.18,0,0,0-1.07.56v3.24H361v-4.35h.47l.13.48h0a1.26,1.26,0,0,1,1.09-.55,1.59,1.59,0,0,1,.44,0Z" style="fill:#999"/><path d="M367,187.19a2.24,2.24,0,0,1-1.37.39c-1.24,0-1.91-.63-1.91-2.25s.88-2.22,1.85-2.22a1.51,1.51,0,0,1,1.58,1.7,5.32,5.32,0,0,1-.05.75h-2.76c0,1.07.5,1.48,1.37,1.48a1.63,1.63,0,0,0,1-.33Zm-2.65-2.14h2.18c0-.11,0-.21,0-.26,0-.74-.32-1.15-1-1.15C364.9,183.64,364.35,184,364.3,185.05Z" style="fill:#999"/><path d="M371.07,184.43v2c0,.39.12.66.43.66h.11v.45a.56.56,0,0,1-.23.05.78.78,0,0,1-.79-.53h0a1.58,1.58,0,0,1-1.3.59,1.17,1.17,0,0,1-1.25-1.16c0-1,.94-1.44,2.49-1.41v-.47c0-.71-.35-.92-.92-.92a1.1,1.1,0,0,0-1,.53l-.45-.36a1.69,1.69,0,0,1,1.46-.72C370.52,183.11,371.07,183.52,371.07,184.43Zm-.57,1.11c-1.05,0-1.88.21-1.88.87a.7.7,0,0,0,.79.69,1.34,1.34,0,0,0,1.09-.59Z" style="fill:#999"/><path d="M372.75,186.37v-2.69h-.65v-.4l.65-.12.19-1.13h.42v1.15h1.2v.5h-1.2v2.66c0,.48.25.68.63.68a1.28,1.28,0,0,0,.67-.15l.17.5a2,2,0,0,1-1,.2C373.14,187.57,372.75,187.19,372.75,186.37Z" style="fill:#999"/><path d="M378.7,187.19a2.2,2.2,0,0,1-1.36.39c-1.24,0-1.92-.63-1.92-2.25s.88-2.22,1.85-2.22a1.51,1.51,0,0,1,1.59,1.7,7.42,7.42,0,0,1-.05.75H376c.06,1.07.5,1.48,1.38,1.48a1.62,1.62,0,0,0,1-.33Zm-2.65-2.14h2.18c0-.11,0-.21,0-.26,0-.74-.32-1.15-1-1.15S376.1,184,376.05,185.05Z" style="fill:#999"/><path d="M385.13,184.43v2c0,.39.12.66.42.66h.11v.45a.48.48,0,0,1-.22.05.77.77,0,0,1-.79-.53h0a1.58,1.58,0,0,1-1.3.59,1.17,1.17,0,0,1-1.25-1.16c0-1,.94-1.44,2.48-1.41v-.47c0-.71-.34-.92-.92-.92a1.1,1.1,0,0,0-1,.53l-.45-.36a1.69,1.69,0,0,1,1.46-.72C384.58,183.11,385.13,183.52,385.13,184.43Zm-.58,1.11c-1.05,0-1.87.21-1.87.87a.7.7,0,0,0,.78.69,1.33,1.33,0,0,0,1.09-.59Z" style="fill:#999"/><path d="M390.27,187.54a3.25,3.25,0,0,1-.69-.08v1.62H389v-5.9h.46l.14.44h0a1.36,1.36,0,0,1,1.13-.52c1,0,1.61.66,1.61,2.08S391.52,187.54,390.27,187.54Zm0-.56c1,0,1.47-.57,1.47-1.73s-.55-1.62-1.13-1.62a1.13,1.13,0,0,0-1,.61v2.65A2.56,2.56,0,0,0,390.24,187Z" style="fill:#999"/><path d="M395.62,183.79a2.05,2.05,0,0,0-.49-.06,1.16,1.16,0,0,0-1.07.56v3.24h-.62v-4.35h.47l.14.48h0a1.27,1.27,0,0,1,1.1-.55,1.63,1.63,0,0,1,.44,0Z" style="fill:#999"/><path d="M396.1,185.36c0-1.34.5-2.26,1.82-2.26s1.78.89,1.78,2.22-.51,2.28-1.83,2.28S396.1,186.7,396.1,185.36Zm1.82,1.7c.84,0,1.14-.56,1.14-1.69s-.35-1.74-1.19-1.74-1.13.56-1.13,1.68S397.09,187.06,397.92,187.06Z" style="fill:#999"/><path d="M399.93,188.77c.49-.16.91-.45.91-1.53v-4.06h.62v4.08a1.86,1.86,0,0,1-1.32,2Zm1.19-7.32a.45.45,0,1,1,0,.9.43.43,0,0,1-.45-.44A.44.44,0,0,1,401.12,181.45Z" style="fill:#999"/><path d="M405.87,187.19a2.24,2.24,0,0,1-1.37.39c-1.24,0-1.91-.63-1.91-2.25s.88-2.22,1.85-2.22a1.51,1.51,0,0,1,1.58,1.7,5.32,5.32,0,0,1,0,.75h-2.76c.05,1.07.5,1.48,1.37,1.48a1.63,1.63,0,0,0,1-.33Zm-2.65-2.14h2.18c0-.11,0-.21,0-.26,0-.74-.32-1.15-1-1.15S403.27,184,403.22,185.05Z" style="fill:#999"/><path d="M408.78,183.11a1.61,1.61,0,0,1,1.24.45l-.41.46a1.1,1.1,0,0,0-.86-.36c-.7,0-1.17.46-1.17,1.68s.44,1.71,1.17,1.71a1.09,1.09,0,0,0,.85-.35l.38.44a1.63,1.63,0,0,1-1.28.46c-1.07,0-1.76-.62-1.76-2.18S407.72,183.11,408.78,183.11Z" style="fill:#999"/><path d="M411.08,186.37v-2.69h-.65v-.4l.65-.12.19-1.13h.43v1.15h1.2v.5h-1.2v2.66c0,.48.24.68.63.68a1.21,1.21,0,0,0,.66-.15l.18.5a2,2,0,0,1-1,.2C411.47,187.57,411.08,187.19,411.08,186.37Z" style="fill:#999"/><path d="M323.66,198.23V197.1a2.58,2.58,0,0,1-1.56-.56l.38-.52a2.19,2.19,0,0,0,1.42.52c.83,0,1.15-.39,1.15-.86s-.42-.75-1-1l-.49-.21c-.65-.29-1.16-.67-1.16-1.43a1.46,1.46,0,0,1,1.38-1.4v-1.1h.57v1.08a2.3,2.3,0,0,1,1.24.44l-.41.5a1.64,1.64,0,0,0-1.08-.38c-.65,0-1,.31-1,.83s.39.74.94,1l.46.2c.69.33,1.25.65,1.25,1.43a1.51,1.51,0,0,1-1.48,1.47l0,1.14Z" style="fill:#333"/><path d="M332.34,197.13h-.62v-2.86c0-.66-.33-1-.93-1a1.17,1.17,0,0,0-1.11.78v3.11h-.62v-4.35h.47l.13.45h0a1.66,1.66,0,0,1,1.24-.54,1.29,1.29,0,0,1,1.41,1.44Z" style="fill:#333"/><path d="M335,197.14a3.08,3.08,0,0,1-.68-.08v1.62h-.62v-5.9h.46l.14.44h0a1.36,1.36,0,0,1,1.13-.52c1,0,1.61.66,1.61,2.08S336.2,197.14,335,197.14Zm0-.56c1,0,1.47-.57,1.47-1.73s-.55-1.62-1.13-1.62a1.1,1.1,0,0,0-1,.61v2.65A2.48,2.48,0,0,0,334.92,196.58Z" style="fill:#333"/><path d="M342.34,192.69c.87,0,1.35.49,1.35,1.44v3h-.62v-2.87c0-.67-.32-1-.85-1a1,1,0,0,0-1,.73v3.16h-.63v-2.82c0-.69-.3-1.07-.86-1.07a1,1,0,0,0-1,.78v3.11h-.63v-4.35h.48l.13.46h0a1.3,1.3,0,0,1,1.13-.55,1.12,1.12,0,0,1,1.15.69h0A1.34,1.34,0,0,1,342.34,192.69Z" style="fill:#333"/><path d="M349.66,193.42l-.93,3.71h-.84l-1.15-4.35h.64l.61,2.4c.11.46.23.92.32,1.4h0c.09-.43.18-.83.28-1.24l.66-2.56h.8l.64,2.56c.1.41.19.8.28,1.24h0c.11-.48.22-1,.34-1.41l.61-2.39h.6l-1.16,4.35h-.84l-.89-3.71Z" style="fill:#333"/><path d="M356.39,196.79a2.24,2.24,0,0,1-1.37.39c-1.23,0-1.91-.63-1.91-2.25s.88-2.22,1.85-2.22a1.51,1.51,0,0,1,1.58,1.7,7.14,7.14,0,0,1,0,.75h-2.77c.06,1.07.5,1.48,1.37,1.48a1.63,1.63,0,0,0,1-.33Zm-2.65-2.14h2.18c0-.11,0-.21,0-.26,0-.74-.32-1.15-1-1.15C354.34,193.24,353.79,193.6,353.74,194.65Z" style="fill:#333"/><path d="M357.69,191.06h.62v2h0a1.71,1.71,0,0,1,1.05-.33c.91,0,1.66.59,1.66,2.08s-.7,2.39-2.14,2.39a2.83,2.83,0,0,1-1.22-.23Zm2.73,3.85c0-1.27-.59-1.63-1.19-1.63a1.17,1.17,0,0,0-.92.43v2.83a1.76,1.76,0,0,0,.7.12C359.86,196.66,360.42,196.08,360.42,194.91Z" style="fill:#333"/><path d="M362.62,191.05a.46.46,0,1,1-.44.46A.44.44,0,0,1,362.62,191.05Zm-.27,1.73H363v4.35h-.63Z" style="fill:#333"/><path d="M367.74,197.13h-.62v-2.86c0-.66-.33-1-.94-1a1.17,1.17,0,0,0-1.1.78v3.11h-.62v-4.35h.47l.13.45h0a1.66,1.66,0,0,1,1.24-.54,1.29,1.29,0,0,1,1.41,1.44Z" style="fill:#333"/><path d="M368.7,198.17a1.41,1.41,0,0,0,.41.07c.54,0,.84-.29,1-1l-1.58-4.5h.67l.71,2.13c.25.79.38,1.21.48,1.59h0c.07-.32.16-.69.44-1.59l.68-2.13h.64l-1.53,4.65c-.27.82-.7,1.37-1.59,1.37a1.48,1.48,0,0,1-.5-.08Z" style="fill:#333"/><path d="M375.82,191.05a.46.46,0,1,1-.45.46A.45.45,0,0,1,375.82,191.05Zm-.28,1.73h.63v4.35h-.63Z" style="fill:#333"/><path d="M380.94,197.13h-.63v-2.86c0-.66-.33-1-.93-1a1.17,1.17,0,0,0-1.11.78v3.11h-.62v-4.35h.47l.13.45h0a1.66,1.66,0,0,1,1.24-.54,1.3,1.3,0,0,1,1.42,1.44Z" style="fill:#333"/><path d="M382.72,191.05a.46.46,0,1,1-.45.46A.45.45,0,0,1,382.72,191.05Zm-.27,1.73h.62v4.35h-.62Z" style="fill:#333"/><path d="M384.69,196v-2.69H384v-.4l.65-.12.19-1.13h.42v1.15h1.2v.5h-1.2v2.66c0,.48.25.68.64.68a1.21,1.21,0,0,0,.66-.15l.18.5a2,2,0,0,1-1,.2C385.08,197.17,384.69,196.79,384.69,196Z" style="fill:#333"/><path d="M323.15,214.21l.24-1.36h-.92l0-.51h1l.26-1.54h.56l-.26,1.54h1.55l.27-1.54h.57l-.28,1.54h.77l0,.51h-.82l-.23,1.36h.78l0,.51h-.83l-.27,1.61h-.57l.27-1.61h-1.56l-.27,1.61h-.56l.28-1.61h-.89l0-.51Zm.56,0h1.56l.23-1.36H324Z" style="fill:#999"/><path d="M332.75,214.9c0-1.28-2.68-1-2.68-2.75a1.6,1.6,0,0,1,1.74-1.51,2.3,2.3,0,0,1,1.45.47l-.4.5a1.69,1.69,0,0,0-1.09-.38c-.66,0-1,.36-1,.88,0,1.29,2.67,1,2.67,2.75,0,.84-.67,1.55-1.87,1.55a2.63,2.63,0,0,1-1.75-.59l.38-.52a2.14,2.14,0,0,0,1.43.53C332.34,215.83,332.75,215.42,332.75,214.9Z" style="fill:#999"/><path d="M334.59,215.17v-2.69h-.65v-.4l.65-.12.19-1.13h.42V212h1.2v.5h-1.2v2.66c0,.48.25.68.63.68a1.28,1.28,0,0,0,.67-.15l.17.5a2,2,0,0,1-1,.2C335,216.37,334.59,216,334.59,215.17Z" style="fill:#999"/><path d="M340.54,216a2.2,2.2,0,0,1-1.36.39c-1.24,0-1.91-.63-1.91-2.25s.88-2.22,1.84-2.22a1.51,1.51,0,0,1,1.59,1.7,7.42,7.42,0,0,1-.05.75h-2.77c.06,1.07.5,1.48,1.38,1.48a1.62,1.62,0,0,0,1-.33Zm-2.65-2.14h2.18c0-.11,0-.21,0-.27,0-.73-.32-1.14-1-1.14S338,212.8,337.89,213.85Z" style="fill:#999"/><path d="M343.14,216.33a3.08,3.08,0,0,1-.68-.07v1.62h-.62V212h.46l.14.44h0a1.36,1.36,0,0,1,1.13-.52c1,0,1.62.66,1.62,2.08S344.39,216.33,343.14,216.33Zm0-.55c1,0,1.47-.57,1.47-1.73s-.55-1.62-1.12-1.62a1.1,1.1,0,0,0-1,.61v2.65A2.48,2.48,0,0,0,343.11,215.78Z" style="fill:#999"/><path d="M350.42,213.67a1,1,0,0,1,.92,1.17,1.46,1.46,0,0,1-1.67,1.55,1.64,1.64,0,0,1-1.48-.8l.55-.34a1.13,1.13,0,0,0,1,.59.86.86,0,0,0,1-1c0-.67-.39-.89-1.17-.89h-.34v-.53h.34c.72,0,1-.34,1-1a.79.79,0,0,0-.85-.86.79.79,0,0,0-.84.69l-.62-.11a1.41,1.41,0,0,1,1.48-1.13,1.3,1.3,0,0,1,1.47,1.36,1.16,1.16,0,0,1-.8,1.24Z" style="fill:#999"/><path d="M352.69,215.34a.49.49,0,0,1,.49.51.48.48,0,0,1-.49.48.49.49,0,0,1-.49-.48A.5.5,0,0,1,352.69,215.34Z" style="fill:#999"/><path d="M359.07,210.26h.62v6.07h-.47l-.13-.44h0a1.38,1.38,0,0,1-1.14.52c-1,0-1.61-.64-1.61-2.07s.84-2.36,2.07-2.36a3.58,3.58,0,0,1,.69.07Zm0,4.92v-2.56a2.76,2.76,0,0,0-.66-.1c-1,0-1.46.55-1.46,1.75s.53,1.61,1.11,1.61A1.05,1.05,0,0,0,359.07,215.18Z" style="fill:#999"/><path d="M364.06,216a2.2,2.2,0,0,1-1.36.39c-1.24,0-1.91-.63-1.91-2.25s.88-2.22,1.84-2.22a1.51,1.51,0,0,1,1.59,1.7,7.42,7.42,0,0,1-.05.75H361.4c.06,1.07.5,1.48,1.38,1.48a1.62,1.62,0,0,0,1-.33Zm-2.65-2.14h2.18c0-.11,0-.21,0-.27,0-.73-.32-1.14-1-1.14S361.46,212.8,361.41,213.85Z" style="fill:#999"/><path d="M366.66,216.33a3.08,3.08,0,0,1-.68-.07v1.62h-.62V212h.46l.14.44h0a1.36,1.36,0,0,1,1.13-.52c1,0,1.62.66,1.62,2.08S367.91,216.33,366.66,216.33Zm0-.55c1,0,1.47-.57,1.47-1.73s-.55-1.62-1.12-1.62a1.1,1.1,0,0,0-1,.61v2.65A2.48,2.48,0,0,0,366.63,215.78Z" style="fill:#999"/><path d="M370.5,210.26v5c0,.38.12.55.45.55a.79.79,0,0,0,.36-.09v.53a1.43,1.43,0,0,1-.54.09.82.82,0,0,1-.89-.92v-5.2Z" style="fill:#999"/><path d="M371.91,214.16c0-1.34.5-2.26,1.82-2.26s1.78.89,1.78,2.22-.51,2.28-1.83,2.28S371.91,215.5,371.91,214.16Zm1.82,1.7c.84,0,1.14-.56,1.14-1.69s-.35-1.74-1.19-1.74-1.14.56-1.14,1.68S372.9,215.86,373.73,215.86Z" style="fill:#999"/><path d="M376.08,217.37a1.41,1.41,0,0,0,.41.07c.54,0,.84-.29,1-1L376,212h.67l.7,2.13c.26.79.38,1.21.49,1.59h0c.07-.32.17-.69.45-1.59L379,212h.65l-1.54,4.65c-.27.82-.7,1.37-1.59,1.37a1.41,1.41,0,0,1-.49-.08Z" style="fill:#999"/><path d="M382.86,215.17v-2.69h-.65v-.4l.65-.12.19-1.13h.42V212h1.2v.5h-1.2v2.66c0,.48.25.68.63.68a1.22,1.22,0,0,0,.67-.15l.17.5a1.94,1.94,0,0,1-1,.2C383.25,216.37,382.86,216,382.86,215.17Z" style="fill:#999"/><path d="M385.54,214.16c0-1.34.5-2.26,1.82-2.26s1.78.89,1.78,2.22-.51,2.28-1.83,2.28S385.54,215.5,385.54,214.16Zm1.82,1.7c.84,0,1.14-.56,1.14-1.69s-.35-1.74-1.19-1.74-1.13.56-1.13,1.68S386.53,215.86,387.36,215.86Z" style="fill:#999"/><path d="M394.16,211.91a1.61,1.61,0,0,1,1.24.45l-.42.46a1.08,1.08,0,0,0-.85-.36c-.71,0-1.18.46-1.18,1.68s.45,1.71,1.18,1.71a1.09,1.09,0,0,0,.85-.35l.38.44a1.62,1.62,0,0,1-1.29.46c-1.06,0-1.76-.62-1.76-2.18S393.1,211.91,394.16,211.91Z" style="fill:#999"/><path d="M397,210.26v5c0,.38.13.55.46.55a.79.79,0,0,0,.36-.09v.53a1.46,1.46,0,0,1-.54.09.82.82,0,0,1-.89-.92v-5.2Z" style="fill:#999"/><path d="M398.39,214.16c0-1.34.51-2.26,1.83-2.26s1.78.89,1.78,2.22-.51,2.28-1.83,2.28S398.39,215.5,398.39,214.16Zm1.83,1.7c.84,0,1.14-.56,1.14-1.69s-.35-1.74-1.19-1.74S399,213,399,214.11,399.38,215.86,400.22,215.86Z" style="fill:#999"/><path d="M403.07,212h.63v2.84c0,.72.3,1.06.95,1.06a1,1,0,0,0,1.09-1V212h.63v4.35h-.49l-.12-.46h0a1.52,1.52,0,0,1-1.24.54c-.9,0-1.39-.47-1.42-1.46Z" style="fill:#999"/><path d="M410.22,210.26h.62v6.07h-.47l-.13-.44h0a1.38,1.38,0,0,1-1.14.52c-1,0-1.61-.64-1.61-2.07s.84-2.36,2.07-2.36a3.58,3.58,0,0,1,.69.07Zm0,4.92v-2.56a2.69,2.69,0,0,0-.66-.1c-1,0-1.46.55-1.46,1.75s.53,1.61,1.11,1.61A1,1,0,0,0,410.22,215.18Z" style="fill:#999"/><path d="M415.78,216.33a3.11,3.11,0,0,1-.69-.07v1.62h-.62V212h.47l.13.44h0a1.36,1.36,0,0,1,1.13-.52c1,0,1.62.66,1.62,2.08S417,216.33,415.78,216.33Zm0-.55c1,0,1.47-.57,1.47-1.73s-.55-1.62-1.12-1.62a1.1,1.1,0,0,0-1,.61v2.65A2.48,2.48,0,0,0,415.74,215.78Z" style="fill:#999"/><path d="M421.12,212.59a1.65,1.65,0,0,0-.49-.06,1.18,1.18,0,0,0-1.07.56v3.24h-.62V212h.48l.13.48h0a1.28,1.28,0,0,1,1.1-.55,1.63,1.63,0,0,1,.44,0Z" style="fill:#999"/><path d="M421.6,214.16c0-1.34.5-2.26,1.82-2.26s1.79.89,1.79,2.22-.51,2.28-1.83,2.28S421.6,215.5,421.6,214.16Zm1.82,1.7c.84,0,1.15-.56,1.15-1.69s-.36-1.74-1.19-1.74-1.14.56-1.14,1.68S422.59,215.86,423.42,215.86Z" style="fill:#999"/><path d="M427.16,214.58c.14.42.23.78.32,1.15h0c.09-.37.2-.73.33-1.15l.83-2.6h.65l-1.47,4.35h-.72l-1.5-4.35h.68Z" style="fill:#999"/><path d="M430.55,210.25a.45.45,0,1,1,0,.9.44.44,0,0,1-.45-.44A.44.44,0,0,1,430.55,210.25Zm-.27,1.73h.62v4.35h-.62Z" style="fill:#999"/><path d="M434.91,210.26h.62v6.07h-.47l-.13-.44h0a1.34,1.34,0,0,1-1.13.52c-1,0-1.61-.64-1.61-2.07S433,212,434.22,212a3.58,3.58,0,0,1,.69.07Zm0,4.92v-2.56a2.76,2.76,0,0,0-.66-.1c-1,0-1.47.55-1.47,1.75s.54,1.61,1.12,1.61A1.05,1.05,0,0,0,434.91,215.18Z" style="fill:#999"/><path d="M439.9,216a2.22,2.22,0,0,1-1.36.39c-1.24,0-1.92-.63-1.92-2.25s.88-2.22,1.85-2.22a1.51,1.51,0,0,1,1.58,1.7,7.14,7.14,0,0,1,0,.75h-2.77c.06,1.07.5,1.48,1.38,1.48a1.62,1.62,0,0,0,1-.33Zm-2.65-2.14h2.18c0-.11,0-.21,0-.27,0-.73-.32-1.14-1-1.14S437.3,212.8,437.25,213.85Z" style="fill:#999"/><path d="M443.37,212.59a1.58,1.58,0,0,0-.48-.06,1.16,1.16,0,0,0-1.07.56v3.24h-.62V212h.47l.14.48h0a1.26,1.26,0,0,1,1.09-.55,1.59,1.59,0,0,1,.44,0Z" style="fill:#999"/><path d="M323.66,227V225.9a2.58,2.58,0,0,1-1.56-.56l.38-.52a2.19,2.19,0,0,0,1.42.52c.83,0,1.15-.39,1.15-.86s-.42-.75-1-1l-.49-.21c-.65-.29-1.16-.67-1.16-1.43a1.46,1.46,0,0,1,1.38-1.4v-1.1h.57v1.08a2.3,2.3,0,0,1,1.24.44l-.41.5a1.64,1.64,0,0,0-1.08-.38c-.65,0-1,.31-1,.83s.39.74.94,1l.46.2c.69.33,1.25.65,1.25,1.43a1.51,1.51,0,0,1-1.48,1.47l0,1.14Z" style="fill:#333"/><path d="M328.91,222.71c0-.62.53-1.2,1.48-1.2a1.83,1.83,0,0,1,1.28.46l-.41.43a1.26,1.26,0,0,0-.88-.35c-.59,0-.86.3-.86.65,0,1,2.2.58,2.2,2.06,0,.6-.5,1.24-1.55,1.24a2.2,2.2,0,0,1-1.54-.55L329,225a1.61,1.61,0,0,0,1.18.48c.61,0,.91-.32.91-.68C331.11,223.79,328.91,224.18,328.91,222.71Z" style="fill:#333"/><path d="M333.51,219.86v5c0,.38.13.55.46.55a.79.79,0,0,0,.36-.09v.53a1.46,1.46,0,0,1-.54.09.82.82,0,0,1-.89-.92v-5.2Z" style="fill:#333"/><path d="M335,222.71c0-.62.54-1.2,1.49-1.2a1.78,1.78,0,0,1,1.27.46l-.4.43a1.28,1.28,0,0,0-.89-.35c-.59,0-.85.3-.85.65,0,1,2.2.58,2.2,2.06,0,.6-.51,1.24-1.55,1.24a2.18,2.18,0,0,1-1.54-.55l.38-.47a1.63,1.63,0,0,0,1.19.48c.61,0,.9-.32.9-.68C337.2,223.79,335,224.18,335,222.71Z" style="fill:#333"/><path d="M343.78,219.86h.61v6.07h-.46l-.14-.44h0a1.38,1.38,0,0,1-1.14.53c-1,0-1.6-.65-1.6-2.08s.84-2.36,2.06-2.36a3.6,3.6,0,0,1,.7.07Zm0,4.92v-2.55a2.41,2.41,0,0,0-.67-.11c-1,0-1.46.55-1.46,1.75s.53,1.61,1.11,1.61A1.06,1.06,0,0,0,343.78,224.78Z" style="fill:#333"/><path d="M348.77,225.59a2.26,2.26,0,0,1-1.37.39c-1.24,0-1.91-.63-1.91-2.25s.88-2.22,1.85-2.22a1.51,1.51,0,0,1,1.58,1.7,7.42,7.42,0,0,1-.05.75h-2.76c.05,1.07.5,1.48,1.37,1.48a1.68,1.68,0,0,0,1-.33Zm-2.66-2.14h2.19v-.26c0-.74-.32-1.15-1-1.15S346.17,222.4,346.11,223.45Z" style="fill:#333"/><path d="M351.37,225.94a3.25,3.25,0,0,1-.69-.08v1.62h-.61v-5.9h.46l.14.44h0a1.35,1.35,0,0,1,1.13-.52c1,0,1.61.66,1.61,2.08S352.62,225.94,351.37,225.94Zm0-.56c1,0,1.47-.57,1.47-1.73s-.55-1.62-1.13-1.62a1.12,1.12,0,0,0-1,.61v2.65A2.56,2.56,0,0,0,351.34,225.38Z" style="fill:#333"/><path d="M355.2,219.86v5c0,.38.13.55.46.55a.79.79,0,0,0,.36-.09v.53a1.48,1.48,0,0,1-.55.09.81.81,0,0,1-.88-.92v-5.2Z" style="fill:#333"/><path d="M356.61,223.76c0-1.34.5-2.26,1.82-2.26s1.79.89,1.79,2.22-.52,2.28-1.84,2.28S356.61,225.1,356.61,223.76Zm1.82,1.7c.84,0,1.15-.56,1.15-1.69s-.36-1.74-1.2-1.74-1.13.56-1.13,1.68S357.6,225.46,358.43,225.46Z" style="fill:#333"/><path d="M360.79,227a1.34,1.34,0,0,0,.4.07c.55,0,.84-.29,1-1l-1.57-4.5h.67l.7,2.13c.26.79.39,1.21.49,1.59h0c.08-.32.17-.69.45-1.59l.67-2.13h.65l-1.53,4.65c-.28.82-.71,1.37-1.59,1.37a1.43,1.43,0,0,1-.5-.08Z" style="fill:#333"/><path d="M323.15,243l.24-1.36h-.92l0-.51h1l.26-1.54h.56l-.26,1.54h1.55l.27-1.54h.57l-.28,1.54h.77l0,.51h-.82l-.23,1.36h.78l0,.51h-.83l-.27,1.61h-.57l.27-1.61h-1.56l-.27,1.61h-.56l.28-1.61h-.89l0-.51Zm.56,0h1.56l.23-1.36H324Z" style="fill:#999"/><path d="M329.7,243.11v2h-.64v-2l-1.85-3.59h.73l1.44,2.93h0l1.44-2.93h.69Z" style="fill:#999"/><path d="M331.61,243c0-1.34.5-2.26,1.82-2.26s1.79.89,1.79,2.22-.52,2.28-1.84,2.28S331.61,244.3,331.61,243Zm1.82,1.7c.84,0,1.15-.56,1.15-1.69s-.36-1.74-1.2-1.74-1.13.56-1.13,1.68S332.6,244.66,333.43,244.66Z" style="fill:#999"/><path d="M336.29,240.78h.62v2.84c0,.72.31,1.06,1,1.06a1,1,0,0,0,1.09-1.05v-2.85h.62v4.35h-.48l-.12-.46h0a1.49,1.49,0,0,1-1.23.55c-.9,0-1.4-.48-1.42-1.47Z" style="fill:#999"/><path d="M343.09,241.39a2.05,2.05,0,0,0-.49-.06,1.18,1.18,0,0,0-1.07.56v3.24h-.62v-4.35h.48l.13.48h0a1.28,1.28,0,0,1,1.1-.55,1.63,1.63,0,0,1,.44,0Z" style="fill:#999"/><path d="M346,241.91c0-.62.54-1.2,1.49-1.2a1.78,1.78,0,0,1,1.27.46l-.4.43a1.28,1.28,0,0,0-.89-.35c-.59,0-.85.3-.85.65,0,1,2.2.58,2.2,2.06,0,.6-.51,1.24-1.55,1.24a2.18,2.18,0,0,1-1.54-.55l.39-.47a1.61,1.61,0,0,0,1.18.48c.61,0,.9-.32.9-.68C348.15,243,346,243.38,346,241.91Z" style="fill:#999"/><path d="M350.38,239.05a.46.46,0,1,1-.45.46A.45.45,0,0,1,350.38,239.05Zm-.28,1.73h.63v4.35h-.63Z" style="fill:#999"/><path d="M352.35,244v-2.69h-.65v-.4l.65-.12.19-1.13H353v1.15h1.2v.5H353v2.66c0,.48.25.68.63.68a1.28,1.28,0,0,0,.67-.15l.17.5a2,2,0,0,1-1,.2C352.74,245.17,352.35,244.79,352.35,244Z" style="fill:#999"/><path d="M358.3,244.79a2.2,2.2,0,0,1-1.36.39c-1.24,0-1.91-.63-1.91-2.25s.88-2.22,1.84-2.22a1.51,1.51,0,0,1,1.59,1.7,7.42,7.42,0,0,1,0,.75h-2.77c.06,1.07.5,1.48,1.38,1.48a1.62,1.62,0,0,0,1-.33Zm-2.65-2.14h2.18c0-.11,0-.21,0-.26,0-.74-.32-1.15-1-1.15S355.71,241.6,355.65,242.65Z" style="fill:#999"/><path d="M362.38,239.05a.46.46,0,1,1-.44.46A.44.44,0,0,1,362.38,239.05Zm-.27,1.73h.63v4.35h-.63Z" style="fill:#999"/><path d="M364.07,241.91c0-.62.53-1.2,1.48-1.2a1.78,1.78,0,0,1,1.27.46l-.4.43a1.27,1.27,0,0,0-.88-.35c-.59,0-.86.3-.86.65,0,1,2.2.58,2.2,2.06,0,.6-.5,1.24-1.55,1.24a2.2,2.2,0,0,1-1.54-.55l.39-.47a1.61,1.61,0,0,0,1.18.48c.61,0,.9-.32.9-.68C366.26,243,364.07,243.38,364.07,241.91Z" style="fill:#999"/><path d="M372.84,239.06h.62v6.07H373l-.13-.44h0a1.34,1.34,0,0,1-1.13.53c-1,0-1.61-.65-1.61-2.07,0-1.58.84-2.37,2.06-2.37a3.6,3.6,0,0,1,.7.07Zm0,4.92v-2.55a2.34,2.34,0,0,0-.66-.11c-1,0-1.47.55-1.47,1.75s.54,1.61,1.11,1.61A1.06,1.06,0,0,0,372.84,244Z" style="fill:#999"/><path d="M377.83,244.79a2.24,2.24,0,0,1-1.37.39c-1.24,0-1.91-.63-1.91-2.25s.88-2.22,1.85-2.22a1.51,1.51,0,0,1,1.58,1.7,5.32,5.32,0,0,1-.05.75h-2.76c.05,1.07.5,1.48,1.37,1.48a1.63,1.63,0,0,0,1-.33Zm-2.65-2.14h2.18c0-.11,0-.21,0-.26,0-.74-.32-1.15-1-1.15C375.78,241.24,375.23,241.6,375.18,242.65Z" style="fill:#999"/><path d="M380.43,245.14a3.08,3.08,0,0,1-.68-.08v1.62h-.62v-5.9h.46l.14.44h0a1.36,1.36,0,0,1,1.13-.52c1,0,1.61.66,1.61,2.08S381.68,245.14,380.43,245.14Zm0-.56c1,0,1.47-.57,1.47-1.73s-.55-1.62-1.13-1.62a1.1,1.1,0,0,0-1,.61v2.65A2.43,2.43,0,0,0,380.4,244.58Z" style="fill:#999"/><path d="M384.26,239.06v5c0,.38.13.55.46.55a.79.79,0,0,0,.36-.09v.53a1.46,1.46,0,0,1-.54.09.82.82,0,0,1-.89-.92v-5.2Z" style="fill:#999"/><path d="M385.67,243c0-1.34.51-2.26,1.83-2.26s1.78.89,1.78,2.22-.51,2.28-1.83,2.28S385.67,244.3,385.67,243Zm1.83,1.7c.84,0,1.14-.56,1.14-1.69s-.35-1.74-1.19-1.74-1.14.56-1.14,1.68S386.66,244.66,387.5,244.66Z" style="fill:#999"/><path d="M389.85,246.17a1.41,1.41,0,0,0,.41.07c.54,0,.84-.29,1-1l-1.58-4.5h.67l.71,2.13c.25.79.38,1.21.49,1.59h0c.07-.32.17-.69.45-1.59l.67-2.13h.64l-1.53,4.65c-.27.82-.7,1.37-1.59,1.37a1.48,1.48,0,0,1-.5-.08Z" style="fill:#999"/><path d="M397.23,244.79a2.24,2.24,0,0,1-1.37.39c-1.24,0-1.91-.63-1.91-2.25s.88-2.22,1.85-2.22a1.51,1.51,0,0,1,1.58,1.7,5.32,5.32,0,0,1-.05.75h-2.76c.05,1.07.5,1.48,1.37,1.48a1.63,1.63,0,0,0,1-.33Zm-2.65-2.14h2.18c0-.11,0-.21,0-.26,0-.74-.32-1.15-1-1.15S394.63,241.6,394.58,242.65Z" style="fill:#999"/><path d="M401.06,239.06h.61v6.07h-.46l-.14-.44h0a1.38,1.38,0,0,1-1.14.53c-1,0-1.6-.65-1.6-2.07,0-1.58.84-2.37,2.06-2.37a3.6,3.6,0,0,1,.7.07Zm0,4.92v-2.55a2.41,2.41,0,0,0-.67-.11c-1,0-1.46.55-1.46,1.75s.53,1.61,1.11,1.61A1.06,1.06,0,0,0,401.06,244Z" style="fill:#999"/><path d="M403.52,244.16a.49.49,0,0,1,.49.5.48.48,0,1,1-.49-.5Zm-.26-1-.16-3.69h.81l-.15,3.69Z" style="fill:#999"/><path d="M323.66,255.83V254.7a2.58,2.58,0,0,1-1.56-.56l.38-.52a2.19,2.19,0,0,0,1.42.52c.83,0,1.15-.39,1.15-.86s-.42-.75-1-1l-.49-.21c-.65-.29-1.16-.67-1.16-1.43a1.46,1.46,0,0,1,1.38-1.4v-1.1h.57v1.08a2.3,2.3,0,0,1,1.24.44l-.41.5a1.64,1.64,0,0,0-1.08-.38c-.65,0-1,.31-1,.83s.39.74.94,1l.46.21c.69.33,1.25.65,1.25,1.43a1.51,1.51,0,0,1-1.48,1.47l0,1.14Z" style="fill:#333"/><path d="M332.34,251.72v3h-.62v-2.91a.85.85,0,0,0-.88-1,1.25,1.25,0,0,0-1.16.76v3.11h-.62v-6.07h.62v2.2h0a1.61,1.61,0,0,1,1.26-.55A1.28,1.28,0,0,1,332.34,251.72Z" style="fill:#333"/><path d="M333.79,253.57v-2.69h-.65v-.4l.65-.12.19-1.13h.42v1.15h1.2v.5h-1.2v2.66c0,.48.25.68.63.68a1.28,1.28,0,0,0,.67-.15l.17.5a1.94,1.94,0,0,1-1,.2C334.18,254.77,333.79,254.39,333.79,253.57Z" style="fill:#333"/><path d="M336.83,253.57v-2.69h-.64v-.4l.64-.12.2-1.13h.42v1.15h1.2v.5h-1.2v2.66c0,.48.25.68.63.68a1.28,1.28,0,0,0,.67-.15l.17.5a2,2,0,0,1-1,.2C337.23,254.77,336.83,254.39,336.83,253.57Z" style="fill:#333"/><path d="M341.05,254.74a3.25,3.25,0,0,1-.69-.08v1.62h-.61v-5.9h.46l.14.44h0a1.33,1.33,0,0,1,1.12-.52c1,0,1.62.66,1.62,2.08S342.3,254.74,341.05,254.74Zm0-.56c1,0,1.47-.57,1.47-1.73s-.55-1.62-1.13-1.62a1.12,1.12,0,0,0-1,.61v2.65A2.5,2.5,0,0,0,341,254.18Z" style="fill:#333"/><path d="M344.43,250.49a.5.5,0,0,1,.5.5.49.49,0,0,1-.5.49A.48.48,0,0,1,344,251,.48.48,0,0,1,344.43,250.49Zm0,3.2a.49.49,0,1,1,0,1,.47.47,0,0,1-.48-.48A.48.48,0,0,1,344.43,253.69Z" style="fill:#333"/><path d="M348,248.89l-2.17,6.92h-.56l2.16-6.92Z" style="fill:#333"/><path d="M350.75,248.89l-2.18,6.92H348l2.17-6.92Z" style="fill:#333"/><path d="M352.65,253h0l-1,1.77h-.73l1.41-2.27L351,250.38h.72l1,1.61h0l.93-1.61h.73l-1.32,2.1,1.4,2.25h-.72Z" style="fill:#333"/><path d="M354.82,255.77a1.41,1.41,0,0,0,.41.07c.54,0,.84-.29,1-1l-1.58-4.5h.67l.71,2.13c.25.79.38,1.21.48,1.59h0c.07-.32.17-.69.44-1.59l.68-2.13h.64L356.81,255c-.27.82-.71,1.37-1.59,1.37a1.48,1.48,0,0,1-.5-.08Z" style="fill:#333"/><path d="M359.4,254.18h2.25v.55h-2.84l-.1-.62,2.18-3.16v0h-2v-.54h2.58l.12.61-2.18,3.16Z" style="fill:#333"/><path d="M362.9,253.74a.49.49,0,0,1,.49.51.49.49,0,0,1-1,0A.49.49,0,0,1,362.9,253.74Z" style="fill:#333"/><path d="M367.27,251.63v2c0,.39.12.66.43.66h.11v.45a.56.56,0,0,1-.23,0,.78.78,0,0,1-.79-.53h0a1.58,1.58,0,0,1-1.3.59,1.17,1.17,0,0,1-1.25-1.16c0-1,.94-1.44,2.49-1.41v-.47c0-.71-.35-.92-.92-.92a1.07,1.07,0,0,0-1,.53l-.46-.36a1.69,1.69,0,0,1,1.46-.72C366.72,250.31,367.27,250.72,367.27,251.63Zm-.57,1.11c-1.05,0-1.87.21-1.87.87a.7.7,0,0,0,.78.69,1.34,1.34,0,0,0,1.09-.59Z" style="fill:#333"/><path d="M373,250.29c.86,0,1.34.49,1.34,1.44v3h-.61v-2.87c0-.67-.32-1-.86-1a1.06,1.06,0,0,0-1,.73v3.16h-.62v-2.82c0-.69-.3-1.07-.86-1.07a1,1,0,0,0-1,.78v3.11h-.62v-4.35h.48l.13.46h0a1.3,1.3,0,0,1,1.13-.55,1.13,1.13,0,0,1,1.15.69h0A1.34,1.34,0,0,1,373,250.29Z" style="fill:#333"/><path d="M378.5,251.63v2c0,.39.12.66.43.66H379v.45a.51.51,0,0,1-.22,0,.79.79,0,0,1-.8-.53h0a1.57,1.57,0,0,1-1.29.59,1.17,1.17,0,0,1-1.26-1.16c0-1,.94-1.44,2.49-1.41v-.47c0-.71-.35-.92-.92-.92a1.07,1.07,0,0,0-1,.53l-.46-.36a1.69,1.69,0,0,1,1.46-.72C378,250.31,378.5,250.72,378.5,251.63Zm-.57,1.11c-1.05,0-1.87.21-1.87.87a.7.7,0,0,0,.78.69,1.33,1.33,0,0,0,1.09-.59Z" style="fill:#333"/><path d="M380.35,254.18h2.25v.55h-2.84l-.09-.62,2.17-3.16v0h-2v-.54h2.58l.13.61-2.19,3.16Z" style="fill:#333"/><path d="M383.4,252.56c0-1.34.51-2.26,1.82-2.26s1.79.89,1.79,2.22-.51,2.28-1.83,2.28S383.4,253.9,383.4,252.56Zm1.82,1.7c.84,0,1.15-.56,1.15-1.69s-.35-1.74-1.19-1.74-1.14.56-1.14,1.68S384.39,254.26,385.22,254.26Z" style="fill:#333"/><path d="M391.39,254.73h-.62v-2.86c0-.66-.33-1-.94-1a1.17,1.17,0,0,0-1.1.78v3.11h-.62v-4.35h.47l.13.45h0a1.66,1.66,0,0,1,1.24-.54,1.29,1.29,0,0,1,1.41,1.44Z" style="fill:#333"/><path d="M395.52,251.63v2c0,.39.12.66.42.66h.11v.45a.48.48,0,0,1-.22,0,.77.77,0,0,1-.79-.53h0a1.58,1.58,0,0,1-1.3.59,1.17,1.17,0,0,1-1.25-1.16c0-1,.94-1.44,2.48-1.41v-.47c0-.71-.34-.92-.92-.92a1.1,1.1,0,0,0-1,.53l-.45-.36a1.69,1.69,0,0,1,1.46-.72C395,250.31,395.52,250.72,395.52,251.63Zm-.58,1.11c-1,0-1.87.21-1.87.87a.7.7,0,0,0,.79.69,1.33,1.33,0,0,0,1.08-.59Z" style="fill:#333"/><path d="M399.42,251l-.93,3.71h-.84l-1.15-4.35h.64l.61,2.4c.11.46.23.92.32,1.4h0c.09-.43.18-.84.28-1.24l.66-2.56h.8l.64,2.56c.1.4.19.8.28,1.24h0c.11-.48.22-1,.34-1.41l.61-2.39h.6l-1.17,4.35h-.84l-.88-3.71Z" style="fill:#333"/><path d="M402.87,251.51c0-.62.54-1.2,1.49-1.2a1.78,1.78,0,0,1,1.27.46l-.4.43a1.28,1.28,0,0,0-.89-.35c-.59,0-.85.3-.85.65,0,1,2.2.58,2.2,2.06,0,.6-.51,1.24-1.55,1.24a2.18,2.18,0,0,1-1.54-.55l.39-.47a1.61,1.61,0,0,0,1.18.48c.61,0,.9-.32.9-.68C405.07,252.59,402.87,253,402.87,251.51Z" style="fill:#333"/><path d="M407,253.74a.5.5,0,0,1,.5.51.5.5,0,1,1-.5-.51Z" style="fill:#333"/><path d="M410.2,250.31a1.61,1.61,0,0,1,1.24.45l-.42.46a1.08,1.08,0,0,0-.85-.36c-.71,0-1.18.46-1.18,1.68s.45,1.71,1.18,1.71a1.09,1.09,0,0,0,.85-.35l.38.44a1.62,1.62,0,0,1-1.29.46c-1.06,0-1.76-.62-1.76-2.18S409.14,250.31,410.2,250.31Z" style="fill:#333"/><path d="M412.11,252.56c0-1.34.51-2.26,1.83-2.26s1.78.89,1.78,2.22-.51,2.28-1.83,2.28S412.11,253.9,412.11,252.56Zm1.83,1.7c.84,0,1.14-.56,1.14-1.69s-.35-1.74-1.19-1.74-1.14.56-1.14,1.68S413.1,254.26,413.94,254.26Z" style="fill:#333"/><path d="M421,250.29c.86,0,1.34.49,1.34,1.44v3h-.61v-2.87c0-.67-.32-1-.86-1a1,1,0,0,0-1,.73v3.16h-.62v-2.82c0-.69-.31-1.07-.87-1.07a1,1,0,0,0-1,.78v3.11h-.62v-4.35h.48l.12.46h0a1.27,1.27,0,0,1,1.12-.55,1.13,1.13,0,0,1,1.16.69h0A1.34,1.34,0,0,1,421,250.29Z" style="fill:#333"/><path d="M425.74,248.89l-2.17,6.92H423l2.17-6.92Z" style="fill:#333"/><path d="M429.68,251.72v3h-.62v-2.91a.85.85,0,0,0-.88-1,1.25,1.25,0,0,0-1.16.76v3.11h-.63v-6.07H427v2.2h0a1.6,1.6,0,0,1,1.25-.55A1.29,1.29,0,0,1,429.68,251.72Z" style="fill:#333"/><path d="M434,254.39a2.24,2.24,0,0,1-1.37.39c-1.24,0-1.91-.63-1.91-2.25s.88-2.22,1.85-2.22a1.51,1.51,0,0,1,1.58,1.7,5.32,5.32,0,0,1-.05.75h-2.76c.05,1.07.5,1.48,1.37,1.48a1.63,1.63,0,0,0,1-.33Zm-2.65-2.14h2.18c0-.11,0-.21,0-.26,0-.74-.32-1.15-1-1.15S431.43,251.2,431.38,252.25Z" style="fill:#333"/><path d="M436,248.66v5c0,.38.13.55.46.55a.79.79,0,0,0,.36-.09v.53a1.48,1.48,0,0,1-.55.09.81.81,0,0,1-.88-.92v-5.2Z" style="fill:#333"/><path d="M438.3,248.66v5c0,.38.12.55.45.55a.79.79,0,0,0,.36-.09v.53a1.43,1.43,0,0,1-.54.09.82.82,0,0,1-.89-.92v-5.2Z" style="fill:#333"/><path d="M439.7,252.56c0-1.34.51-2.26,1.83-2.26s1.78.89,1.78,2.22-.51,2.28-1.83,2.28S439.7,253.9,439.7,252.56Zm1.83,1.7c.84,0,1.14-.56,1.14-1.69s-.35-1.74-1.19-1.74-1.14.56-1.14,1.68S440.7,254.26,441.53,254.26Z" style="fill:#333"/><path d="M443.94,252.62v-.55h2.31v.55Z" style="fill:#333"/><path d="M449.46,251l-.92,3.71h-.84l-1.16-4.35h.64l.61,2.4c.12.46.23.92.33,1.4h0c.09-.43.18-.84.28-1.24l.66-2.56h.8l.64,2.56c.09.4.19.8.28,1.24h0c.1-.48.21-1,.33-1.41l.62-2.39h.6l-1.17,4.35h-.84L449.5,251Z" style="fill:#333"/><path d="M452.92,252.56c0-1.34.5-2.26,1.82-2.26s1.79.89,1.79,2.22-.52,2.28-1.83,2.28S452.92,253.9,452.92,252.56Zm1.82,1.7c.84,0,1.15-.56,1.15-1.69s-.36-1.74-1.19-1.74-1.14.56-1.14,1.68S453.91,254.26,454.74,254.26Z" style="fill:#333"/><path d="M459.8,251a2.05,2.05,0,0,0-.49-.06,1.18,1.18,0,0,0-1.07.56v3.24h-.62v-4.35h.48l.13.48h0a1.3,1.3,0,0,1,1.1-.55,1.63,1.63,0,0,1,.44,0Z" style="fill:#333"/><path d="M461.18,248.66v5c0,.38.12.55.45.55a.79.79,0,0,0,.36-.09v.53a1.43,1.43,0,0,1-.54.09.82.82,0,0,1-.89-.92v-5.2Z" style="fill:#333"/><path d="M465.34,248.66H466v6.07h-.47l-.13-.44h0a1.38,1.38,0,0,1-1.14.53c-1,0-1.61-.65-1.61-2.07,0-1.58.84-2.37,2.07-2.37a3.58,3.58,0,0,1,.69.07Zm0,4.92V251a2.34,2.34,0,0,0-.66-.11c-1,0-1.46.55-1.46,1.75s.53,1.61,1.11,1.61A1.05,1.05,0,0,0,465.34,253.58Z" style="fill:#333"/><line x1="534.08" y1="142.15" x2="652.84" y2="142.15" style="fill:none;stroke:#f94f24;stroke-linecap:round;stroke-miterlimit:10;stroke-width:1.10206px;stroke-dasharray:3.752310037612915,2.5015499591827393"/><path d="M696.52,142.15a21.84,21.84,0,1,1-21.84-21.84A21.84,21.84,0,0,1,696.52,142.15Z" style="fill:none;stroke:#f94f24;stroke-linecap:round;stroke-miterlimit:10;stroke-width:1.10206px;stroke-dasharray:3.752310037612915,2.5015499591827393"/><circle cx="150.68" cy="200.4" r="77.41" transform="translate(-97.57 165.24) rotate(-45)" style="fill:url(#b)"/><path d="M150.68,125A75.41,75.41,0,1,1,75.27,200.4,75.41,75.41,0,0,1,150.68,125m0-4a79.41,79.41,0,1,0,79.41,79.41A79.5,79.5,0,0,0,150.68,121Z" style="fill:#f2f2f2"/><g style="mix-blend-mode:multiply"><polyline points="126.13 188.03 111.39 202.76 126.14 217.51" style="fill:none;stroke:#ccc;stroke-linecap:round;stroke-linejoin:round;stroke-width:8px;fill-rule:evenodd"/><polyline points="181.6 217.51 196.34 202.77 181.6 188.03" style="fill:none;stroke:#ccc;stroke-linecap:round;stroke-linejoin:round;stroke-width:8px;fill-rule:evenodd"/><line x1="145.6" y1="188.03" x2="161.4" y2="217.51" style="fill:none;stroke:#ccc;stroke-linecap:round;stroke-linejoin:round;stroke-width:8px"/></g><polyline points="123.58 185.47 108.84 200.2 123.58 214.95" style="fill:none;stroke:#fff;stroke-linecap:round;stroke-linejoin:round;stroke-width:8px;fill-rule:evenodd"/><polyline points="179.05 214.95 193.79 200.22 179.04 185.47" style="fill:none;stroke:#fff;stroke-linecap:round;stroke-linejoin:round;stroke-width:8px;fill-rule:evenodd"/><line x1="143.04" y1="185.47" x2="158.84" y2="214.95" style="fill:none;stroke:#fff;stroke-linecap:round;stroke-linejoin:round;stroke-width:8px"/><line x1="525.33" y1="354.46" x2="448.85" y2="354.46" style="fill:none;stroke:#f94f24;stroke-linecap:round;stroke-miterlimit:10;stroke-width:1.10206px;stroke-dasharray:3.752310037612915,2.5015499591827393"/><circle cx="434.4" cy="353.23" r="14.52" transform="translate(-122.54 410.63) rotate(-45)" style="fill:none;stroke:#f94f24;stroke-linecap:round;stroke-miterlimit:10;stroke-width:1.10206px;stroke-dasharray:3.752310037612915,2.5015499591827393"/><path d="M614.87,334.45h20.82s16.85.09,16.85-16.85V292.89s-1.28-15.63,12.62-15.63h12.23" style="fill:none;stroke:#f94f24;stroke-linecap:round;stroke-miterlimit:10;stroke-width:1.10206px;stroke-dasharray:3.752310037612915,2.5015499591827393"/></g></svg>