<svg xmlns="http://www.w3.org/2000/svg" xmlns:xlink="http://www.w3.org/1999/xlink" viewBox="0 0 800 500"><defs><linearGradient id="a" x1="341.44" y1="265.06" x2="341.44" y2="286.96" gradientUnits="userSpaceOnUse"><stop offset="0" stop-color="#f04b3d"/><stop offset="1" stop-color="#e9127f"/></linearGradient></defs><title>Artboard 2 copy 15</title><path d="M595.68,186.65a31.34,31.34,0,1,1-31.34-31.34A31.35,31.35,0,0,1,595.68,186.65Z" style="fill:#f2f2f2"/><path d="M200.89,348.58a55.73,55.73,0,1,1-55.73-55.72A55.73,55.73,0,0,1,200.89,348.58Z" style="fill:#f2f2f2"/><path d="M442.62,246.51c-2.28-6.62-11.65-6.62-13.47-1.14s4.34,8.68,13.93,11.88,15.53,11.65,14.39,19.19-4.34,17.35-23.3,17.35c-11.84,0-18.43-7.4-21.7-13l10.74-6.45s3.66,7.77,10.51,7.77,9.59-2.29,9.59-7.54c0-6.4-22.16-8.68-25.58-19.64s1.14-26.5,17.13-25.35c10,.71,15.61,5.62,18.42,9.2Z" style="fill:#e5e5e5"/><path d="M392.84,230.76v43.85c0,5.25-4.57,8-9.14,7.08s-6.62-6.4-6.62-6.4l-10.51,7.09s2.28,10.5,16.67,11.41,22.61-7.76,22.61-15.07v-48Z" style="fill:#e5e5e5"/><path d="M345.44,267.53a13,13,0,1,1-13,13A13,13,0,0,1,345.44,267.53Z" style="fill:#e5e5e5"/><path d="M341.34,186.66v76.18a17.9,17.9,0,0,1,4.1-.48,17.71,17.71,0,0,1,3.28.31V194H468.2V314H348.72V298.43a18.61,18.61,0,0,1-3.28.31,17.9,17.9,0,0,1-4.1-.49v23.1H475.58V186.66Z" style="fill:#e5e5e5"/><path d="M438.62,242.51c-2.29-6.62-11.65-6.62-13.48-1.14s4.35,8.68,13.94,11.88,15.53,11.64,14.38,19.18-4.34,17.36-23.29,17.36c-11.85,0-18.43-7.4-21.71-13l10.75-6.45s3.65,7.76,10.5,7.76,9.59-2.28,9.59-7.53c0-6.4-22.15-8.69-25.58-19.65s1.15-26.49,17.13-25.35c10,.72,15.62,5.62,18.43,9.2Z" style="fill:#333"/><path d="M388.83,226.75v43.86c0,5.25-4.57,8-9.14,7.07s-6.62-6.39-6.62-6.39l-10.51,7.08s2.29,10.51,16.68,11.42,22.61-7.76,22.61-15.08v-48Z" style="fill:#333"/><path d="M341.44,263.52a13,13,0,1,1-13,13A13,13,0,0,1,341.44,263.52Z" style="fill:url(#a)"/><path d="M337.33,182.65v76.19a17.92,17.92,0,0,1,4.11-.49,18.7,18.7,0,0,1,3.28.31V190H464.19V310H344.72V294.42a17.69,17.69,0,0,1-7.39-.17v23.1H471.58V182.65Z" style="fill:#333"/><path d="M381.43,347.25a155.66,155.66,0,1,1,7.7-191.07" style="fill:none;stroke:#f94f24;stroke-linecap:round;stroke-miterlimit:10;stroke-width:1.10206px;stroke-dasharray:3.752310037612915,2.5015499591827393"/><circle cx="155.52" cy="129.97" r="73.41" style="fill:none;stroke:#f94f24;stroke-linecap:round;stroke-miterlimit:10;stroke-width:1.10206px;stroke-dasharray:3.752310037612915,2.5015499591827393"/><path d="M363.28,102a192.75,192.75,0,0,1,108.3-33.08c107,0,193.7,86.72,193.7,193.7s-86.72,193.7-193.7,193.7a192.82,192.82,0,0,1-117.64-39.8" style="fill:none;stroke:#f94f24;stroke-linecap:round;stroke-miterlimit:10;stroke-width:1.10206px;stroke-dasharray:3.752310037612915,2.5015499591827393"/><circle cx="614.93" cy="386.84" r="32.63" style="fill:none;stroke:#f94f24;stroke-linecap:round;stroke-miterlimit:10;stroke-width:1.10206px;stroke-dasharray:3.752310037612915,2.5015499591827393"/><line x1="560.71" y1="317.35" x2="718.74" y2="317.35" style="fill:none;stroke:#f94f24;stroke-linecap:round;stroke-miterlimit:10;stroke-width:1.10206px;stroke-dasharray:3.752310037612915,2.5015499591827393"/><line x1="143.56" y1="230.76" x2="70.15" y2="230.76" style="fill:none;stroke:#f94f24;stroke-linecap:round;stroke-miterlimit:10;stroke-width:1.10206px;stroke-dasharray:3.752310037612915,2.5015499591827393"/><path d="M748.91,317.35a15.09,15.09,0,1,1-15.08-15.09A15.09,15.09,0,0,1,748.91,317.35Z" style="fill:none;stroke:#f94f24;stroke-linecap:round;stroke-miterlimit:10;stroke-width:1.10206px;stroke-dasharray:3.752310037612915,2.5015499591827393"/></svg>