<svg xmlns="http://www.w3.org/2000/svg" xmlns:xlink="http://www.w3.org/1999/xlink" viewBox="0 0 800 500"><defs><linearGradient id="a" x1="369.42" y1="369.99" x2="475.22" y2="119.82" gradientUnits="userSpaceOnUse"><stop offset="0" stop-color="#8033eb"/><stop offset="0.53" stop-color="#d4648e"/><stop offset="1" stop-color="#ec7071"/></linearGradient></defs><title>Artboard 2 copy 14</title><g style="isolation:isolate"><path d="M326.48,253.21S241,297.14,199.61,276,154.45,217.8,171,159.23s57.58-91.82,121.19-48.14S396.56,211.71,326.48,253.21Z" style="fill:#f2f2f2"/><path d="M385.53,418.4a33.91,33.91,0,1,1-33.91-33.91A33.91,33.91,0,0,1,385.53,418.4Z" style="fill:#f2f2f2"/><circle cx="403.81" cy="301.45" r="148.12" transform="translate(-33.81 51.6) rotate(-7.02)" style="fill:none;stroke:#f94f24;stroke-linecap:round;stroke-miterlimit:10;stroke-width:1.10206px;stroke-dasharray:3.752310037612915,2.5015499591827393"/><circle cx="398.26" cy="301.81" r="111.05" style="fill:url(#a)"/><circle cx="251.18" cy="348.68" r="112.03" transform="translate(-107.64 585.15) rotate(-87.62)" style="fill:#e5e5e5;mix-blend-mode:multiply"/><circle cx="549.96" cy="348.68" r="112.03" transform="translate(194.43 894.24) rotate(-89.28)" style="fill:#e5e5e5;mix-blend-mode:multiply"/><circle cx="402.12" cy="157.6" r="112.03" style="fill:#e5e5e5;mix-blend-mode:multiply"/><path d="M514.15,141.9a112,112,0,1,1-112-112A112,112,0,0,1,514.15,141.9Z" style="fill:#fff;stroke:#f94f24;stroke-linecap:round;stroke-miterlimit:10;stroke-dasharray:2.467710018157959,3;fill-rule:evenodd"/><circle cx="239.06" cy="348.68" r="112.03" transform="translate(-112.58 583.36) rotate(-89.28)" style="fill:#fff;stroke:#f94f24;stroke-linecap:round;stroke-miterlimit:10;stroke-dasharray:2.467710018157959,3"/><circle cx="563.95" cy="348.68" r="112.03" transform="translate(206.77 907.28) rotate(-89.13)" style="fill:#fff;stroke:#f94f24;stroke-linecap:round;stroke-miterlimit:10;stroke-dasharray:2.467710018157959,3"/><path d="M589.61,163.26a14.46,14.46,0,1,1-14.45-14.46A14.46,14.46,0,0,1,589.61,163.26Z" style="fill:#f2f2f2"/><path d="M569.41,393.84c-1.78,0-3.14,0-4.51,0a52.52,52.52,0,0,1-7.52-.66,74,74,0,0,1-9.77-2c-1.78-.49-3.55-1-5.3-1.64s-3.58-1.33-5.33-2.08a77.38,77.38,0,0,1-7-3.41c-1.4-.77-2.78-1.59-4.15-2.42s-2.87-2-4.29-2.94c-2.06-1.42-3.94-3.05-5.87-4.63a23.59,23.59,0,0,1-1.8-1.66c-.65-.66-.62-1.44,0-1.84a1,1,0,0,1,1,0c1.39.64,2.66,1.51,4,2.21s2.43,1.29,3.66,1.89c1,.49,2,.95,3,1.41,1.94.88,3.89,1.73,5.91,2.44,1.18.41,2.38.82,3.55,1.26a37.05,37.05,0,0,0,3.69,1.22,33.3,33.3,0,0,0,4.33,1.24c1.19.15,2.34.48,3.51.71,1,.21,2,.44,3.07.68A86,86,0,0,0,559,385a94.74,94.74,0,0,0,12.71.61c2.25,0,4.52,0,6.76-.24,2.52-.29,5-.51,7.54-.91,2.13-.35,4.25-.74,6.36-1.15,1.28-.25,2.53-.64,3.81-.93,2.32-.52,4.58-1.25,6.85-2s4.73-1.69,7.09-2.55c.82-.3,1.62-.65,2.4-1a2.25,2.25,0,0,1,2.28.28,1.64,1.64,0,0,1-.08,2.33,18.52,18.52,0,0,1-2.73,2q-2,1.31-4,2.51c-1,.57-2,1.06-3,1.57-1.66.86-3.36,1.62-5.07,2.34-1.24.52-2.52.94-3.77,1.41-1.93.72-3.91,1.27-5.89,1.81s-3.78.93-5.69,1.31c-2.47.5-5,.81-7.46,1.14A74.18,74.18,0,0,1,569.41,393.84Z" style="fill:#fb9a02;fill-rule:evenodd"/><path d="M570.9,335.57a.87.87,0,0,0-.43.67Q569,342.12,567.64,348q-1.25,5.25-2.51,10.51a6.61,6.61,0,0,1-.22.76,1.74,1.74,0,0,1-2,1.43c-1.06,0-2.12,0-3.19,0-1.55,0-2.21-.5-2.46-2a27.47,27.47,0,0,0-.91-3.22q-1.56-5.31-3.2-10.61A31,31,0,0,0,551.9,341a4.28,4.28,0,0,1-.21-.8,13.19,13.19,0,0,0-.9-2.88,27.74,27.74,0,0,1-.73-2.71c-.54-1.67-1-3.37-1.5-5.06a3.58,3.58,0,0,1-.15-.78.82.82,0,0,1,.83-.95c1.42,0,2.84,0,4.26,0a1.56,1.56,0,0,1,1.43,1.14,30.69,30.69,0,0,1,.89,3.29q1,3.71,1.94,7.42c1.09,4.3,2.16,8.6,3.24,12.9,0,.19.09.37.14.55s.08.27.24.28.24-.15.28-.3l.81-3.43q.88-3.74,1.76-7.48c.44-1.88.86-3.76,1.32-5.64.61-2.48,1.11-5,1.81-7.45a1.57,1.57,0,0,1,1.59-1.29c1.29,0,2.59,0,3.88,0a1.59,1.59,0,0,1,1.63,1.32c.54,1.77.89,3.6,1.33,5.4.67,2.8,1.31,5.61,2,8.41l1.92,8.2c.19.81.39,1.62.59,2.43,0,.13,0,.35.2.36s.2-.21.23-.35q.7-2.66,1.39-5.33l2.16-8.37c.42-1.63.81-3.27,1.27-4.89.55-1.95.94-3.94,1.59-5.86a1.64,1.64,0,0,1,1.8-1.34c1.12,0,2.24,0,3.36,0s1.39.44,1.16,1.44c-.18.8-.43,1.57-.67,2.35l-2.61,8.29-3.42,10.91c-.87,2.78-1.74,5.57-2.63,8.34-.4,1.27-.85,1.57-2.16,1.58-1.06,0-2.13,0-3.19,0a1.85,1.85,0,0,1-2.13-1.69c-.41-1.65-.81-3.31-1.22-5-.65-2.7-1.31-5.41-2-8.12-.74-3-1.47-6.07-2.2-9.11C571.13,336.42,571,336,570.9,335.57Z" style="fill:#24303f;fill-rule:evenodd"/><path d="M544.87,345.06c0,1.73.06,3.46,0,5.18a12.28,12.28,0,0,0,1.59,6.71c.54,1,.38,1.5-.53,2.12-.73.5-1.48,1-2.23,1.45a1.45,1.45,0,0,1-2-.18,10.34,10.34,0,0,1-2.2-3.15c-.29-.59-.44-.62-.88-.14a13,13,0,0,1-8,4.34c-3.16.43-6.28.3-9-1.73a8.79,8.79,0,0,1-3.54-6.66,11.05,11.05,0,0,1,.64-5.15,9.83,9.83,0,0,1,4-4.68,10.25,10.25,0,0,1,2.63-1.2,18.29,18.29,0,0,1,6.5-.69,43.23,43.23,0,0,1,6,.87c.77.17.86.11.85-.69a24.21,24.21,0,0,0-.21-4.42,7.31,7.31,0,0,0-1.24-3,4.29,4.29,0,0,0-1.92-1.32,12.91,12.91,0,0,0-6.58-.58,24,24,0,0,0-5.33,1.45,9.67,9.67,0,0,1-2.1.66c-.7.07-1-.12-1-.81a25.27,25.27,0,0,1,0-2.61,1.78,1.78,0,0,1,1-1.39,14.43,14.43,0,0,1,3.94-1.57,22.8,22.8,0,0,1,7.74-1,15.26,15.26,0,0,1,6.86,1.6,8.7,8.7,0,0,1,4.09,4.76,16,16,0,0,1,.92,5.69v6.15Zm-15.12,11.66a10.37,10.37,0,0,0,5-1.07,6.69,6.69,0,0,0,3.47-3.51,10.76,10.76,0,0,0,.61-4.84c-.07-.91-.12-.88-1.06-1.05-1.36-.25-2.72-.46-4.1-.58a13.76,13.76,0,0,0-6,.64,4.47,4.47,0,0,0-2.49,2.11,6.41,6.41,0,0,0-.56,4.61,4.17,4.17,0,0,0,2,3A5.88,5.88,0,0,0,529.75,356.72Z" style="fill:#24303f;fill-rule:evenodd"/><path d="M607.21,361.74a25.82,25.82,0,0,1-9.4-1.94,2.68,2.68,0,0,1-1.81-2.94c0-.51,0-1,0-1.53.09-.74.45-1,1.18-.83a7.85,7.85,0,0,1,1.34.46,20.28,20.28,0,0,0,10.84,1.55,5.72,5.72,0,0,0,4.32-2.33,3.83,3.83,0,0,0-1-5.32,16.73,16.73,0,0,0-4.23-1.78c-2.53-.85-5.16-1.41-7.51-2.76A8.9,8.9,0,0,1,597,333.27a9.46,9.46,0,0,1,5.11-5.1,15.87,15.87,0,0,1,8.74-1.19,23.23,23.23,0,0,1,6.33,1.73,2.09,2.09,0,0,1,1.41,2.06c0,.66,0,1.32,0,2a1,1,0,0,1-1.39.87,18.5,18.5,0,0,0-7.24-1.77,11.89,11.89,0,0,0-5,.67,3.8,3.8,0,0,0-2.06,5.39,4.07,4.07,0,0,0,1.84,1.71,27.41,27.41,0,0,0,4.88,1.86,31.46,31.46,0,0,1,6.58,2.48,8.11,8.11,0,0,1,4.17,6.47c.46,5-2.59,8.71-6.83,10.24A20,20,0,0,1,607.21,361.74Z" style="fill:#24303f;fill-rule:evenodd"/><path d="M618.11,368.86a15.85,15.85,0,0,1,4.81.52,7.09,7.09,0,0,1,1.61.54,1.79,1.79,0,0,1,.84,1.53,18.9,18.9,0,0,1-.48,5.24,27.13,27.13,0,0,1-2.32,6.41,16.77,16.77,0,0,1-4,5.27,7.43,7.43,0,0,0-.59.53.93.93,0,0,1-1.24.21c-.42-.27-.29-.78-.13-1.14a62.47,62.47,0,0,0,2.93-8.16,12.48,12.48,0,0,0,.64-4.13,2,2,0,0,0-1.68-2.18,18.44,18.44,0,0,0-5.64-.41c-1.74.1-3.48.26-5.21.4-.77.06-1.54.17-2.32.24-.35,0-.72,0-.86-.39s.09-.66.38-.92a12.67,12.67,0,0,1,4.42-2.32,25.4,25.4,0,0,1,4-1A24.77,24.77,0,0,1,618.11,368.86Z" style="fill:#fb9a02;fill-rule:evenodd"/><path d="M428.08,101.08a35.77,35.77,0,0,1,11.11,16.22,9.72,9.72,0,0,0,3.08,4.59,28.39,28.39,0,0,1-18.06,50.16c-7.37,0-14.73-.06-22.1-.1V154.66l20.73-.11c6.62,0,11.39-3.92,12-9.86.62-5.59-3.06-10.35-9.32-11.87-1-.26-1.6-.49-1.58-1.67.11-7.2-2.86-13-8.08-17.79Z" style="fill:#4485f3;fill-rule:evenodd"/><path d="M363.19,166.18C350,157.54,347.86,137,359,124.69c1.64-1.8,3.57-3.33,5.37-5,6.83-3.83,14.05-5.57,21.87-4a30.66,30.66,0,0,1,15.07,8.81c1.19,1.28,1.54,2.11.05,3.5-3.27,3-6.39,6.21-9.46,9.43-1.22,1.28-1.78,1.4-2.95-.19a10.78,10.78,0,0,0-18.24,1c-3.11,5.43-1.32,11.16,4.8,15.34Z" style="fill:#fabc07;fill-rule:evenodd"/><path d="M386.27,115.68c-7.82-1.55-15,.19-21.87,4,3.34-12.27,11.21-20.63,22.69-25.61,13.65-5.92,31.47-2.77,41,7L415.9,113.36c-.92-.57-1.84-1.18-2.78-1.73C404.23,106.41,392.68,108.16,386.27,115.68Z" style="fill:#e94537;fill-rule:evenodd"/><path d="M363.19,166.18l12.35-12.6a20.2,20.2,0,0,0,7,1c6.53,0,13.07.05,19.61.09V172c-9,0-18,.73-26.93-.42A22.19,22.19,0,0,1,363.19,166.18Z" style="fill:#36a854;fill-rule:evenodd"/><path d="M215.14,379.89a48,48,0,0,1,5.81-1.12q14.75-2.64,29.48-5.23l6-1.06a.94.94,0,0,0,.67-.27l-5-6q-8.16-9.75-16.33-19.49c-.28-.34-.53-.61-.33-1.16q5.6-15.35,11.14-30.72c.45.11.5.5.66.78q16.54,28.63,33.08,57.28c1.34,2.32,2.65,4.66,4,7Z" style="fill:#0189d5;fill-rule:evenodd"/><path d="M243.33,310.13c-1.68,3.65-3.34,7.29-5,10.93Q226.63,346.14,215,371.22a1.45,1.45,0,0,1-1.56,1c-6.24,0-12.47,0-18.7,0-1,0-1,0-.49-.88l22.13-38.44a3.2,3.2,0,0,1,.76-1l25.73-21.59a3.22,3.22,0,0,1,.39-.25A.47.47,0,0,0,243.33,310.13Z" style="fill:#0189d5;fill-rule:evenodd"/><path d="M243.23,310l.12-.13c.09.08.06.16,0,.23A.47.47,0,0,1,243.23,310Z" style="fill:#0189d5;fill-rule:evenodd"/></g></svg>