<svg xmlns="http://www.w3.org/2000/svg" viewBox="0 0 800 500"><title>Artboard 2 copy 10</title><path d="M177.87,386.84a31.34,31.34,0,1,1-31.34-31.34A31.34,31.34,0,0,1,177.87,386.84Z" style="fill:#f2f2f2"/><path d="M258,288c-9,0-18-.1-27,.06-2.79.05-2.89-.82-2-3,1.2-3.11,2.23-6.3,3.17-9.5a2.29,2.29,0,0,1,2.58-1.91q25.68,0,51.35,0c1.55,0,2.17.45,2.12,2.07-.09,3.34-.13,6.69,0,10,.09,2-.78,2.32-2.51,2.31C276.47,288,267.25,288,258,288Z" style="fill:#e5e5e5;fill-rule:evenodd"/><path d="M262.53,261.18c-7.58,0-15.17-.1-22.75.05-2.61.06-2.88-.7-2-2.91,1.19-3.11,2.18-6.31,3.15-9.5a2.46,2.46,0,0,1,2.79-2q21.09.09,42.18,0c2,0,2.37.78,2.3,2.51-.1,3.14-.14,6.28,0,9.41.1,2.05-.65,2.56-2.6,2.54C277.91,261.12,270.22,261.18,262.53,261.18Z" style="fill:#e5e5e5;fill-rule:evenodd"/><path d="M266.76,234.32c-6.18,0-12.37-.06-18.55,0-2,0-2.48-.43-1.73-2.39,1.22-3.21,2.3-6.49,3.25-9.8.47-1.62,1.18-2.26,2.94-2.25q16.58.12,33.14,0c1.92,0,2.44.64,2.37,2.46-.12,3.13-.17,6.29,0,9.42.12,2.07-.63,2.59-2.58,2.56C279.32,234.26,273,234.32,266.76,234.32Z" style="fill:#e5e5e5;fill-rule:evenodd"/><path d="M361.75,256.38c-2.84,0-5.68.09-8.5,0-2.17-.09-2.08.88-1.46,2.38,1.23,3,4.53,4.86,8.49,4.7a20.26,20.26,0,0,0,7.13-1.28c2.31-1,2.43.55,2.95,2s.9,2.59-1.21,3.12a46.3,46.3,0,0,1-9.24,1.72c-8.64.38-14.29-4.92-15-14-.85-10.77,8.62-18.62,18.75-15.54,5.91,1.79,10.45,9.88,9,15.85-.29,1.18-1,1.07-1.8,1.07ZM358.89,251c1.91,0,3.83-.12,5.73,0,2.31.18,2.23-.85,1.55-2.48-1.16-2.78-3.76-4.29-7.35-4.15a7.84,7.84,0,0,0-7.19,5.05c-.4,1.28,0,1.6,1.23,1.57C354.87,251,356.88,251,358.89,251Z" style="fill:#e5e5e5;fill-rule:evenodd"/><path d="M533.53,256.38c-2.94,0-5.87.06-8.81,0-1.61-.05-1.91.43-1.38,1.93,1.15,3.23,4.57,5.32,8.79,5.13a21.94,21.94,0,0,0,7.14-1.3c2.46-1,2.28,1,2.85,2.24.66,1.45.58,2.4-1.22,2.9a40.24,40.24,0,0,1-9.52,1.75c-10.38.29-17.14-9-14.17-19.36,2.09-7.27,7.27-11.14,14.51-10.81a13.82,13.82,0,0,1,12.62,16.4c-.29,1.43-1.17,1.13-2,1.14C539.4,256.39,536.46,256.38,533.53,256.38ZM523,251c4.28,0,8.29.05,12.3,0,1,0,2.43.74,2.9-.62.4-1.16-.35-2.35-1.12-3.3-2-2.48-4.72-2.94-7.63-2.51C526,245,523.92,247.17,523,251Z" style="fill:#e5e5e5;fill-rule:evenodd"/><path d="M452.08,256.38c-3,0-6.08.05-9.12,0-1.53,0-1.65.6-1.26,1.84,1,3.2,4.54,5.39,8.75,5.22a22.73,22.73,0,0,0,7.43-1.38c1.72-.69,2.25.3,2.37,1.61.11,1.14,2,2.64-.52,3.42-3.69,1.14-7.42,2.16-11.31,1.88-10-.74-15.76-9.75-12.65-19.74,2-6.44,6.5-10.14,12.69-10.38,11.35-.43,14.7,8.62,14.28,16.26-.07,1.42-.94,1.29-1.85,1.29ZM449,251c1.91,0,3.82-.12,5.72,0,2.26.17,2.28-.83,1.62-2.49-1.13-2.82-4-4.41-7.67-4.12-3.32.26-6.36,2.65-7,5.33-.32,1.36.46,1.25,1.29,1.25Z" style="fill:#e5e5e5;fill-rule:evenodd"/><path d="M561.32,238.81a56.38,56.38,0,0,1,10.55,1.5c1.24.29,1.55.68,1.16,2.06-1.14,4.08-1,4-5,3.34-3.07-.49-6.16-1.35-9.31-.32-1.21.4-2.31.88-2.33,2.39s1.18,2.06,2.39,2.28c2.88.55,5.81.8,8.66,1.46,5.35,1.23,7.57,4,7.39,8.78-.16,4.49-3.06,7.46-8.09,8.35-5.37,1-10.44-.23-15.46-2-1.53-.53-1.3-1.26-.83-2.48,1-2.68,2.15-4.09,5.38-2.41a16.42,16.42,0,0,0,9.5,1.28c1.79-.21,3.5-.81,3.68-2.93s-1.71-2.48-3.27-2.78c-2.78-.53-5.62-.78-8.36-1.42-4.83-1.14-7.1-3.85-7.12-8.11,0-4.09,2.52-7.17,7-8.4A14.61,14.61,0,0,1,561.32,238.81Z" style="fill:#e5e5e5;fill-rule:evenodd"/><path d="M326.73,238.82a50.28,50.28,0,0,1,10,1.38c1,.22,2.7.35,1.64,2-.9,1.38.5,4.67-3.09,4-2-.38-4-.77-6-1a15.29,15.29,0,0,0-4.22,0c-1.54.26-3.48.55-3.37,2.75.1,2,1.95,2.07,3.39,2.38,3.06.64,6.24.58,9.23,1.66,4,1.43,5.91,4,5.91,7.85a8.19,8.19,0,0,1-5.94,8.24c-6.22,2-12.19.64-18.07-1.54-1-.39-1-.94-.63-1.87,1.52-4,1.64-4.08,5.61-2.72a21.5,21.5,0,0,0,8.95,1.2c2-.18,4-.55,4.16-3.07s-2.08-2.43-3.64-2.76c-2.37-.51-4.82-.6-7.19-1.1-5.44-1.17-7.94-3.91-7.93-8.43s3-7.56,8.26-8.6A28.27,28.27,0,0,1,326.73,238.82Z" style="fill:#e5e5e5;fill-rule:evenodd"/><path d="M592.53,238.85a47.84,47.84,0,0,1,9.3,1.34c.91.21,2.77.25,1.69,1.92-.89,1.38.56,4.76-3.07,4-3.37-.73-6.74-1.53-10.21-1-1.58.26-3.44.58-3.37,2.77s1.93,2.1,3.35,2.37c2.78.54,5.64.73,8.38,1.42,4.74,1.19,6.73,3.88,6.64,8.44-.08,4.3-2.5,7.27-7,8.31-5.74,1.34-11.25.14-16.65-1.85-1.05-.38-1.62-1.07-.79-2,1.05-1.13.45-4.15,3.4-3.18a28.42,28.42,0,0,0,10.12,1.72,13.52,13.52,0,0,0,3-.47,2.73,2.73,0,0,0,2.24-2.87c0-1.5-1.18-2-2.45-2.24-3.48-.64-7-1-10.43-1.95a7.44,7.44,0,0,1-5.91-7.22A8.18,8.18,0,0,1,586,240a13.48,13.48,0,0,1,1.72-.6A14.76,14.76,0,0,1,592.53,238.85Z" style="fill:#e5e5e5;fill-rule:evenodd"/><path d="M235.77,220c-1.49,4.54-2.87,8.74-4.22,12.95-.38,1.2-1.2,1.42-2.32,1.41-8.08,0-16.17-.05-24.25,0-1.78,0-2.26-.68-2.22-2.32.09-3.33,0-6.67,0-10,0-1-.13-2.08,1.44-2.07C214.62,220,225,220,235.77,220Z" style="fill:#e5e5e5;fill-rule:evenodd"/><path d="M418.7,260.58q2.83-8.52,5.68-17c1.43-4.34,1.42-4.27,5.89-4,1.51.11,1.63.56,1.17,1.86Q427,254,422.74,266.65a2,2,0,0,1-2.14,1.6c-6.14.38-6.13.42-8.05-5.5-2.22-6.82-4.38-13.67-6.71-20.45-.71-2.06-.53-2.62,1.87-2.78,3.11-.22,4.4.81,5.16,3.81,1.48,5.81,3.39,11.5,5.13,17.24Z" style="fill:#e5e5e5;fill-rule:evenodd"/><path d="M498,249.32c0-5.26-.15-10.52.06-15.77.1-2.46-.7-3.3-3-2.89-2.56.45-3.33-.62-3.15-3.13.11-1.62.39-2.35,2.18-2.25a62.78,62.78,0,0,0,7.88,0c2-.14,2.3.64,2.29,2.41-.08,10.62.06,21.24-.1,31.86-.05,2.62.77,3.43,3.21,3,.69-.11,1.43.09,2.12,0,2.88-.53,3.59.79,3.39,3.46-.12,1.6-.34,2.33-2.16,2.26-3.53-.14-7.08-.14-10.62,0-1.78.06-2.17-.59-2.14-2.25C498.05,260.45,498,254.89,498,249.32Z" style="fill:#e5e5e5;fill-rule:evenodd"/><path d="M214.92,246.81c3.34,0,6.68.05,10,0,1.62,0,1.88.49,1.36,2-1.25,3.52-2.44,7.08-3.51,10.66-.43,1.46-1.23,1.82-2.64,1.8q-7.59-.09-15.17,0c-1.51,0-2.24-.37-2.21-2q.1-5.15,0-10.31c0-1.58.56-2.13,2.14-2.09C208.25,246.87,211.59,246.81,214.92,246.81Z" style="fill:#e5e5e5;fill-rule:evenodd"/><path d="M475.48,242.93c3.47-5.3,8.71-3.1,13.32-3.54,1.15-.12,1.2.63,1.28,1.53.43,4.69.46,4.68-4.17,4.68-10.07,0-10.43.36-10.43,10.33,0,3.34-.2,6.69.06,10,.23,3.05-1.78,2.22-3.31,2.28-1.68.06-3.3.45-3.23-2.41.21-7.88.09-15.76.07-23.64,0-1.47-.2-3,2.05-2.62,1.54.29,4.24-1.3,3.91,2.27C475,242.06,475.23,242.33,475.48,242.93Z" style="fill:#e5e5e5;fill-rule:evenodd"/><path d="M384.91,243.06c2.87-3.12,10.39-5.21,13.9-3.58,1.9.88.42,3.07.78,4.63.29,1.22-.43,1.54-1.56,1.51-2.22-.06-4.45,0-6.68,0-4.35,0-6.25,1.93-6.3,6.35s-.2,9.12.06,13.66c.15,2.6-1,2.78-3,2.62-1.68-.14-3.54.65-3.44-2.49.23-7.89.09-15.78.06-23.68,0-1.51-.14-3,2.1-2.55,1.57.31,4.26-1.21,3.88,2.35A4.84,4.84,0,0,0,384.91,243.06Z" style="fill:#e5e5e5;fill-rule:evenodd"/><path d="M202.79,280.62c0-7,0-7,6.92-6.92,2.65,0,6.29-1.25,7.65.65.93,1.3-1.12,4.79-1.93,7.26-2.09,6.42-2.11,6.41-8.05,6.41-4.59,0-4.59,0-4.59-4.67Z" style="fill:#e5e5e5;fill-rule:evenodd"/><path d="M254,284c-9,0-18-.11-27,.06-2.79.05-2.9-.82-2-3,1.2-3.12,2.22-6.3,3.17-9.5a2.28,2.28,0,0,1,2.58-1.92q25.67.06,51.35,0c1.54,0,2.17.46,2.12,2.08-.1,3.34-.14,6.69,0,10,.09,2-.77,2.32-2.5,2.31C272.46,284,263.24,284,254,284Z" style="fill:#f05e57;fill-rule:evenodd"/><path d="M258.53,257.17c-7.59,0-15.18-.1-22.76.06-2.6,0-2.87-.71-2-2.92,1.19-3.11,2.19-6.3,3.15-9.49a2.47,2.47,0,0,1,2.8-2q21.09.09,42.17,0c2,0,2.37.77,2.31,2.51-.1,3.13-.15,6.28,0,9.4.11,2.06-.64,2.57-2.59,2.54C273.9,257.12,266.22,257.17,258.53,257.17Z" style="fill:#f05e57;fill-rule:evenodd"/><path d="M262.75,230.32c-6.18,0-12.36-.07-18.54,0-2,0-2.48-.44-1.74-2.39,1.23-3.22,2.3-6.49,3.26-9.8.47-1.62,1.18-2.26,2.94-2.25q16.58.12,33.14,0c1.92,0,2.44.64,2.37,2.45-.13,3.14-.17,6.29,0,9.42.12,2.07-.64,2.6-2.59,2.57C275.32,230.26,269,230.32,262.75,230.32Z" style="fill:#f05e57;fill-rule:evenodd"/><path d="M357.75,252.37c-2.84,0-5.68.1-8.51,0-2.17-.1-2.07.88-1.45,2.37,1.23,3,4.53,4.87,8.48,4.71a20.33,20.33,0,0,0,7.14-1.29c2.3-1,2.43.55,2.94,2s.9,2.59-1.21,3.12a46.9,46.9,0,0,1-9.23,1.71c-8.64.39-14.29-4.92-15-14-.85-10.78,8.61-18.62,18.75-15.55,5.9,1.8,10.45,9.89,9,15.86-.29,1.17-1,1.07-1.8,1.07ZM354.89,247c1.91,0,3.83-.11,5.73,0,2.31.18,2.22-.85,1.54-2.49-1.15-2.78-3.75-4.28-7.34-4.15a7.87,7.87,0,0,0-7.2,5.06c-.39,1.28,0,1.6,1.24,1.57C350.87,247,352.88,247,354.89,247Z" style="fill:#080808;fill-rule:evenodd"/><path d="M529.52,252.37c-2.93,0-5.87.07-8.8,0-1.62,0-1.92.43-1.39,1.93,1.15,3.23,4.57,5.32,8.79,5.12a21.57,21.57,0,0,0,7.14-1.29c2.47-1,2.29,1,2.86,2.24.66,1.45.58,2.4-1.22,2.89a40.85,40.85,0,0,1-9.53,1.76c-10.37.29-17.14-9-14.16-19.37,2.08-7.27,7.27-11.13,14.5-10.8a13.83,13.83,0,0,1,12.63,16.4c-.29,1.42-1.17,1.12-2,1.13C535.4,252.39,532.46,252.37,529.52,252.37ZM519,247c4.28,0,8.3.06,12.31,0,1,0,2.42.75,2.89-.62.4-1.15-.34-2.34-1.11-3.3-2-2.47-4.73-2.93-7.63-2.5C522,241,519.92,243.17,519,247Z" style="fill:#080808;fill-rule:evenodd"/><path d="M448.07,252.37c-3,0-6.07,0-9.11,0-1.54,0-1.65.6-1.26,1.84,1,3.2,4.54,5.39,8.74,5.22a22.17,22.17,0,0,0,7.43-1.38c1.73-.69,2.25.3,2.38,1.62.11,1.14,2,2.64-.52,3.41-3.69,1.15-7.43,2.17-11.32,1.88-10-.73-15.75-9.74-12.65-19.73,2-6.44,6.5-10.14,12.7-10.38,11.35-.44,14.7,8.61,14.28,16.26-.08,1.42-.94,1.28-1.86,1.28ZM445,247c1.91,0,3.83-.11,5.73,0,2.26.17,2.28-.84,1.61-2.49-1.13-2.82-4-4.41-7.66-4.13-3.32.26-6.37,2.66-7,5.33-.32,1.36.45,1.26,1.29,1.26Z" style="fill:#080808;fill-rule:evenodd"/><path d="M557.32,234.81a55.69,55.69,0,0,1,10.55,1.5c1.24.28,1.55.68,1.16,2.05-1.14,4.08-1,4-5,3.35-3.06-.49-6.16-1.36-9.3-.32-1.22.39-2.32.88-2.34,2.38s1.19,2.06,2.4,2.29c2.87.54,5.81.8,8.66,1.45,5.35,1.23,7.57,4,7.39,8.79-.17,4.48-3.06,7.46-8.1,8.35-5.36.94-10.43-.24-15.46-2-1.53-.53-1.29-1.26-.83-2.47,1-2.69,2.16-4.09,5.38-2.42a16.47,16.47,0,0,0,9.51,1.29c1.79-.21,3.49-.81,3.67-2.93s-1.7-2.48-3.27-2.78c-2.77-.53-5.61-.78-8.35-1.43-4.83-1.13-7.11-3.84-7.12-8.1,0-4.09,2.51-7.17,7-8.41A14.11,14.11,0,0,1,557.32,234.81Z" style="fill:#080808;fill-rule:evenodd"/><path d="M322.73,234.82a51.28,51.28,0,0,1,10,1.37c1,.22,2.69.35,1.64,2-.91,1.37.5,4.67-3.09,4-2-.39-4-.77-6-1a15.29,15.29,0,0,0-4.22,0c-1.55.27-3.48.56-3.38,2.75.1,2,1.95,2.08,3.39,2.38,3.06.64,6.25.59,9.24,1.67,4,1.43,5.91,4,5.91,7.85a8.21,8.21,0,0,1-6,8.24c-6.21,2-12.18.63-18.07-1.55-1-.38-1-.93-.63-1.86,1.52-4,1.64-4.08,5.61-2.73a21.37,21.37,0,0,0,9,1.21c2-.18,4-.55,4.16-3.08s-2.09-2.42-3.64-2.75c-2.37-.52-4.83-.6-7.2-1.11-5.43-1.16-7.94-3.91-7.92-8.43s3-7.55,8.26-8.59A27.66,27.66,0,0,1,322.73,234.82Z" style="fill:#080808;fill-rule:evenodd"/><path d="M588.53,234.84a48.63,48.63,0,0,1,9.3,1.35c.91.21,2.76.24,1.69,1.91-.89,1.39.55,4.76-3.07,4-3.37-.72-6.74-1.52-10.21-1-1.59.26-3.44.58-3.38,2.76s1.93,2.1,3.36,2.38c2.78.54,5.63.72,8.37,1.41,4.75,1.2,6.74,3.89,6.65,8.45-.08,4.3-2.5,7.26-7,8.31-5.75,1.33-11.25.14-16.66-1.85-1-.39-1.62-1.08-.78-2,1.05-1.14.45-4.15,3.4-3.19a28.42,28.42,0,0,0,10.12,1.72,13.6,13.6,0,0,0,3-.46,2.75,2.75,0,0,0,2.24-2.87c0-1.51-1.18-2-2.46-2.24-3.48-.64-7-1-10.43-2a7.44,7.44,0,0,1-5.91-7.21A8.22,8.22,0,0,1,582,236a15.23,15.23,0,0,1,1.72-.6A15,15,0,0,1,588.53,234.84Z" style="fill:#080808;fill-rule:evenodd"/><path d="M231.76,216c-1.48,4.55-2.87,8.74-4.21,12.95-.39,1.21-1.2,1.42-2.33,1.42-8.08,0-16.16-.05-24.24,0-1.78,0-2.26-.68-2.22-2.33.08-3.33,0-6.66,0-10,0-1-.14-2.07,1.44-2.07C210.62,216,221,216,231.76,216Z" style="fill:#f05e57;fill-rule:evenodd"/><path d="M414.7,256.58q2.83-8.52,5.67-17c1.44-4.33,1.42-4.27,5.9-3.95,1.51.11,1.63.56,1.17,1.86Q423,250,418.73,262.65a2,2,0,0,1-2.13,1.6c-6.14.38-6.14.41-8.06-5.5-2.21-6.83-4.37-13.67-6.7-20.45-.71-2.07-.53-2.62,1.86-2.79,3.12-.21,4.41.82,5.17,3.82,1.47,5.8,3.39,11.5,5.13,17.24Z" style="fill:#080808;fill-rule:evenodd"/><path d="M494,245.32c0-5.26-.14-10.53.07-15.78.09-2.45-.7-3.29-3-2.88-2.56.45-3.33-.63-3.15-3.13.12-1.62.39-2.35,2.19-2.25a62.78,62.78,0,0,0,7.88,0c2-.15,2.3.63,2.29,2.4-.08,10.62.05,21.25-.11,31.86,0,2.62.77,3.44,3.21,3,.69-.11,1.44.09,2.12,0,2.89-.53,3.6.79,3.4,3.46-.12,1.6-.34,2.33-2.16,2.25-3.54-.14-7.08-.13-10.62,0-1.78.07-2.17-.58-2.15-2.24C494.05,256.45,494,250.88,494,245.32Z" style="fill:#080808;fill-rule:evenodd"/><path d="M210.92,242.8c3.34,0,6.68,0,10,0,1.62,0,1.88.49,1.35,2-1.25,3.52-2.44,7.07-3.5,10.65-.44,1.47-1.23,1.83-2.64,1.81q-7.59-.1-15.18,0c-1.5,0-2.24-.37-2.2-2,.07-3.44.06-6.88,0-10.32,0-1.57.56-2.13,2.14-2.09C204.24,242.86,207.58,242.8,210.92,242.8Z" style="fill:#f05e57;fill-rule:evenodd"/><path d="M471.48,238.93c3.47-5.3,8.71-3.1,13.32-3.55,1.15-.11,1.19.64,1.28,1.54.43,4.68.45,4.68-4.18,4.68-10.06,0-10.43.36-10.43,10.33,0,3.33-.19,6.68.06,10,.23,3-1.77,2.21-3.31,2.27s-3.29.46-3.22-2.4c.21-7.88.08-15.77.06-23.65,0-1.46-.19-3,2.06-2.62,1.54.29,4.24-1.29,3.91,2.28C471,238.05,471.22,238.32,471.48,238.93Z" style="fill:#080808;fill-rule:evenodd"/><path d="M380.91,239.05c2.87-3.11,10.38-5.2,13.89-3.57,1.9.88.43,3.07.79,4.63.28,1.22-.44,1.53-1.56,1.51-2.23-.06-4.45,0-6.68,0-4.35.06-6.25,1.93-6.3,6.36s-.2,9.11.06,13.65c.15,2.6-1,2.78-3,2.62-1.69-.13-3.54.66-3.45-2.48.24-7.89.1-15.79.07-23.68,0-1.51-.14-3,2.1-2.55,1.57.31,4.26-1.21,3.88,2.35A4.77,4.77,0,0,0,380.91,239.05Z" style="fill:#080808;fill-rule:evenodd"/><path d="M198.79,276.62c0-7,0-7,6.91-6.93,2.66.05,6.29-1.25,7.66.66.93,1.29-1.12,4.78-1.93,7.26-2.1,6.41-2.12,6.41-8.05,6.41-4.59,0-4.59,0-4.59-4.67Z" style="fill:#f05e57;fill-rule:evenodd"/><path d="M398.54,316.06a165.8,165.8,0,1,1-8.15-141" style="fill:none;stroke:#f94f24;stroke-linecap:round;stroke-miterlimit:10;stroke-width:1.10206px;stroke-dasharray:3.752310037612915,2.5015499591827393;fill-rule:evenodd"/><path d="M246.83,95.16a48.08,48.08,0,1,1-48.07-48.08A48.08,48.08,0,0,1,246.83,95.16Z" style="fill:none;stroke:#f94f24;stroke-linecap:round;stroke-miterlimit:10;stroke-width:1.10206px;stroke-dasharray:3.752310037612915,2.5015499591827393;fill-rule:evenodd"/><path d="M538.07,177.9A108.78,108.78,0,1,1,515,288" style="fill:none;stroke:#f94f24;stroke-linecap:round;stroke-miterlimit:10;stroke-width:1.10206px;stroke-dasharray:3.752310037612915,2.5015499591827393;fill-rule:evenodd"/><circle cx="532.22" cy="355.5" r="56.59" transform="translate(-95.49 480.46) rotate(-45)" style="fill:none;stroke:#f94f24;stroke-linecap:round;stroke-miterlimit:10;stroke-width:1.10206px;stroke-dasharray:3.752310037612915,2.5015499591827393"/><line x1="401.47" y1="358.82" x2="525.33" y2="358.82" style="fill:none;stroke:#f94f24;stroke-linecap:round;stroke-miterlimit:10;stroke-width:1.10206px;stroke-dasharray:3.752310037612915,2.5015499591827393"/><path d="M529.73,126.5a31.34,31.34,0,1,1-31.34-31.34A31.34,31.34,0,0,1,529.73,126.5Z" style="fill:#f2f2f2"/></svg>